<?xml version="1.0" encoding="UTF-8" standalone="no"?>
<!DOCTYPE svg PUBLIC "-//W3C//DTD SVG 1.1//EN"
 "http://www.w3.org/Graphics/SVG/1.1/DTD/svg11.dtd">
<!-- Generated by graphviz version 2.47.1 (20210417.1919)
 -->
<!-- Title: BlockBase Pages: 1 -->
<!--zoomable 694 -->
<svg id="main" version="1.1" xmlns="http://www.w3.org/2000/svg" xmlns:xlink="http://www.w3.org/1999/xlink" xml:space="preserve" onload="init(evt)">
<style type="text/css"><![CDATA[
.edge:hover path { stroke: red; }
.edge:hover polygon { stroke: red; fill: red; }
]]></style>
<script type="text/javascript"><![CDATA[
var edges = document.getElementsByTagName('g');
if (edges && edges.length) {
  for (var i=0;i<edges.length;i++) {
    if (edges[i].id.substr(0,4)=='edge') {
      edges[i].setAttribute('class','edge');
    }
  }
}
]]></script>
        <defs>
                <circle id="rim" cx="0" cy="0" r="7"/>
                <circle id="rim2" cx="0" cy="0" r="3.5"/>
                <g id="zoomPlus">
                        <use xlink:href="#rim" fill="#404040">
                                <set attributeName="fill" to="#808080" begin="zoomplus.mouseover" end="zoomplus.mouseout"/>
                        </use>
                        <path d="M-4,0h8M0,-4v8" fill="none" stroke="white" stroke-width="1.5" pointer-events="none"/>
                </g>
                <g id="zoomMin">
                        <use xlink:href="#rim" fill="#404040">
                                <set attributeName="fill" to="#808080" begin="zoomminus.mouseover" end="zoomminus.mouseout"/>
                        </use>
                        <path d="M-4,0h8" fill="none" stroke="white" stroke-width="1.5" pointer-events="none"/>
                </g>
                <g id="dirArrow">
                        <path fill="none" stroke="white" stroke-width="1.5" d="M0,-3.0v7 M-2.5,-0.5L0,-3.0L2.5,-0.5"/>
                </g>
               <g id="resetDef">
                       <use xlink:href="#rim2" fill="#404040">
                               <set attributeName="fill" to="#808080" begin="reset.mouseover" end="reset.mouseout"/>
                       </use>
               </g>
        </defs>

<script type="text/javascript">
var viewWidth = 1140;
var viewHeight = 694;
var sectionId = 'dynsection-1';
</script>
<script xlink:href="svgpan.js"/>
<svg id="graph" class="graph">
<g id="viewport">
<title>BlockBase</title>
<polygon fill="white" stroke="transparent" points="-4,4 -4,-690 1136,-690 1136,4 -4,4"/>
<!-- Node1 -->
<g id="node1" class="node">
<title>Node1</title>
<g id="a_node1"><a xlink:title="抽象構文木のステップ式のクラス.">
<polygon fill="#bfbfbf" stroke="black" points="1068,-526.5 1068,-545.5 1132,-545.5 1132,-526.5 1068,-526.5"/>
<text text-anchor="middle" x="1100" y="-533.5" font-family="Helvetica,sans-Serif" font-size="10.00">BlockBase</text>
</a>
</g>
</g>
<!-- Node2 -->
<g id="node2" class="node">
<title>Node2</title>
<g id="a_node2"><a xlink:href="classast_1_1_ast_node_named.html" target="_top" xlink:title="タグ付きの子をもつノードのクラス．利用者は自前で，追加する子のField名と，Getter，型を設定する．読み出しは子の添字でも行える．">
<polygon fill="white" stroke="black" points="788,-254.5 788,-273.5 874,-273.5 874,-254.5 788,-254.5"/>
<text text-anchor="middle" x="831" y="-261.5" font-family="Helvetica,sans-Serif" font-size="10.00">AstNodeNamed</text>
</a>
</g>
</g>
<!-- Node2&#45;&gt;Node1 -->
<g id="edge1" class="edge">
<title>Node2&#45;&gt;Node1</title>
<path fill="none" stroke="midnightblue" d="M841.32,-283.21C857.85,-315.91 894.85,-383.27 940,-429 983.6,-473.16 1048.06,-509.77 1079.85,-526.39"/>
<polygon fill="midnightblue" stroke="midnightblue" points="844.27,-281.28 836.69,-273.88 838,-284.4 844.27,-281.28"/>
</g>
<!-- Node3 -->
<g id="node3" class="node">
<title>Node3</title>
<g id="a_node3"><a xlink:href="classast_1_1_ast_node.html" target="_top" xlink:title="タグなしの順アクセスの子供をもてる抽象構文木のノードのクラス。">
<polygon fill="white" stroke="black" points="571,-292.5 571,-311.5 626,-311.5 626,-292.5 571,-292.5"/>
<text text-anchor="middle" x="598.5" y="-299.5" font-family="Helvetica,sans-Serif" font-size="10.00">AstNode</text>
</a>
</g>
</g>
<!-- Node3&#45;&gt;Node2 -->
<g id="edge2" class="edge">
<title>Node3&#45;&gt;Node2</title>
<path fill="none" stroke="midnightblue" d="M636.36,-298.22C671.02,-294.39 724.28,-287.77 770,-279 778.01,-277.46 786.56,-275.52 794.61,-273.54"/>
<polygon fill="midnightblue" stroke="midnightblue" points="635.79,-294.76 626.23,-299.32 636.55,-301.72 635.79,-294.76"/>
</g>
<!-- Node26 -->
<g id="node26" class="node">
<title>Node26</title>
<g id="a_node26"><a xlink:href="classast_1_1_ast_node_new.html" target="_top" xlink:title="実装置き換え用のノードのクラス。">
<polygon fill="white" stroke="black" points="793.5,-513.5 793.5,-532.5 868.5,-532.5 868.5,-513.5 793.5,-513.5"/>
<text text-anchor="middle" x="831" y="-520.5" font-family="Helvetica,sans-Serif" font-size="10.00">AstNodeNew</text>
</a>
</g>
</g>
<!-- Node3&#45;&gt;Node26 -->
<g id="edge31" class="edge">
<title>Node3&#45;&gt;Node26</title>
<path fill="none" stroke="midnightblue" d="M612.21,-319.81C640.19,-357.97 710.79,-448.6 788,-504 793.07,-507.64 798.95,-510.82 804.68,-513.49"/>
<polygon fill="midnightblue" stroke="midnightblue" points="615.03,-317.74 606.32,-311.7 609.36,-321.84 615.03,-317.74"/>
</g>
<!-- Node4 -->
<g id="node4" class="node">
<title>Node4</title>
<g id="a_node4"><a xlink:href="classast_1_1_ast_node_base.html" target="_top" xlink:title=" ">
<polygon fill="white" stroke="black" points="285.5,-179.5 285.5,-198.5 362.5,-198.5 362.5,-179.5 285.5,-179.5"/>
<text text-anchor="middle" x="324" y="-186.5" font-family="Helvetica,sans-Serif" font-size="10.00">AstNodeBase</text>
</a>
</g>
</g>
<!-- Node4&#45;&gt;Node3 -->
<g id="edge3" class="edge">
<title>Node4&#45;&gt;Node3</title>
<path fill="none" stroke="midnightblue" d="M372.78,-198.77C383.79,-201.42 395.38,-204.53 406,-208 449.15,-222.13 466.75,-217.08 500,-248 512.81,-259.91 504.24,-272.2 518,-283 532.96,-294.74 554.04,-299.39 570.74,-301.16"/>
<polygon fill="midnightblue" stroke="midnightblue" points="373.41,-195.32 362.88,-196.47 371.83,-202.14 373.41,-195.32"/>
</g>
<!-- Node5 -->
<g id="node5" class="node">
<title>Node5</title>
<g id="a_node5"><a xlink:title=" ">
<polygon fill="white" stroke="#bfbfbf" points="20.5,-261.5 20.5,-280.5 62.5,-280.5 62.5,-261.5 20.5,-261.5"/>
<text text-anchor="middle" x="41.5" y="-268.5" font-family="Helvetica,sans-Serif" font-size="10.00">String</text>
</a>
</g>
</g>
<!-- Node5&#45;&gt;Node4 -->
<g id="edge4" class="edge">
<title>Node5&#45;&gt;Node4</title>
<path fill="none" stroke="#9a32cd" stroke-dasharray="5,2" d="M72.79,-270.88C118.1,-270.11 200.71,-266.3 224,-249 239.98,-237.13 226.7,-220.73 242,-208 253.99,-198.03 270.28,-193.08 285.11,-190.71"/>
<polygon fill="#9a32cd" stroke="#9a32cd" points="72.61,-267.38 62.66,-271.01 72.7,-274.38 72.61,-267.38"/>
<text text-anchor="middle" x="162.5" y="-285" font-family="Helvetica,sans-Serif" font-size="10.00"> MOD_AST</text>
<text text-anchor="middle" x="162.5" y="-274" font-family="Helvetica,sans-Serif" font-size="10.00">mod_</text>
</g>
<!-- Node18 -->
<g id="node18" class="node">
<title>Node18</title>
<g id="a_node18"><a xlink:href="classformat_1_1_style.html" target="_top" xlink:title="ノードの表示スタイルに関するプロパティのクラス.">
<polygon fill="white" stroke="black" points="304.5,-419.5 304.5,-438.5 343.5,-438.5 343.5,-419.5 304.5,-419.5"/>
<text text-anchor="middle" x="324" y="-426.5" font-family="Helvetica,sans-Serif" font-size="10.00">Style</text>
</a>
</g>
</g>
<!-- Node5&#45;&gt;Node18 -->
<g id="edge19" class="edge">
<title>Node5&#45;&gt;Node18</title>
<path fill="none" stroke="#9a32cd" stroke-dasharray="5,2" d="M72.17,-283.92C81.29,-287.55 91.45,-291.26 101,-294 154.45,-309.35 184.51,-277.84 224,-317 253.58,-346.34 213.27,-378.83 242,-409 258.08,-425.89 285.97,-429.44 304.46,-429.76"/>
<polygon fill="#9a32cd" stroke="#9a32cd" points="73.33,-280.62 62.75,-280.06 70.67,-287.09 73.33,-280.62"/>
<text text-anchor="middle" x="162.5" y="-342" font-family="Helvetica,sans-Serif" font-size="10.00"> operSTR</text>
<text text-anchor="middle" x="162.5" y="-331" font-family="Helvetica,sans-Serif" font-size="10.00">parenLPAR</text>
<text text-anchor="middle" x="162.5" y="-320" font-family="Helvetica,sans-Serif" font-size="10.00">parenRPAR</text>
</g>
<!-- Node21 -->
<g id="node21" class="node">
<title>Node21</title>
<g id="a_node21"><a xlink:href="enumtype_1_1_x_type.html" target="_top" xlink:title="式がもつ値の型のクラス．Kotlin言語の型システムを参考にしている． 次の型をもつ．">
<polygon fill="white" stroke="black" points="302,-44.5 302,-63.5 346,-63.5 346,-44.5 302,-44.5"/>
<text text-anchor="middle" x="324" y="-51.5" font-family="Helvetica,sans-Serif" font-size="10.00">XType</text>
</a>
</g>
</g>
<!-- Node5&#45;&gt;Node21 -->
<g id="edge24" class="edge">
<title>Node5&#45;&gt;Node21</title>
<path fill="none" stroke="#9a32cd" stroke-dasharray="5,2" d="M55.22,-252.98C65.85,-239.41 82.24,-221.57 101,-212 150.28,-186.88 184.97,-232.2 224,-193 262.05,-154.78 205.45,-112.66 242,-73 257.07,-56.64 283.32,-53.09 301.85,-52.86"/>
<polygon fill="#9a32cd" stroke="#9a32cd" points="52.3,-251.05 49.11,-261.15 57.91,-255.24 52.3,-251.05"/>
<text text-anchor="middle" x="162.5" y="-237" font-family="Helvetica,sans-Serif" font-size="10.00"> name</text>
<text text-anchor="middle" x="162.5" y="-226" font-family="Helvetica,sans-Serif" font-size="10.00">nickname</text>
<text text-anchor="middle" x="162.5" y="-215" font-family="Helvetica,sans-Serif" font-size="10.00">prefix</text>
</g>
<!-- Node6 -->
<g id="node6" class="node">
<title>Node6</title>
<g id="a_node6"><a xlink:title=" ">
<polygon fill="white" stroke="#bfbfbf" points="0,-422.5 0,-441.5 83,-441.5 83,-422.5 0,-422.5"/>
<text text-anchor="middle" x="41.5" y="-429.5" font-family="Helvetica,sans-Serif" font-size="10.00">static ReportKt</text>
</a>
</g>
</g>
<!-- Node6&#45;&gt;Node4 -->
<g id="edge5" class="edge">
<title>Node6&#45;&gt;Node4</title>
<path fill="none" stroke="#9a32cd" stroke-dasharray="5,2" d="M71.12,-418.29C80.48,-414.21 91.04,-410.02 101,-407 154.22,-390.86 186.34,-424.92 224,-384 277.25,-326.14 190.08,-267.05 242,-208 252.68,-195.85 269.52,-190.69 285.08,-188.74"/>
<polygon fill="#9a32cd" stroke="#9a32cd" points="69.55,-415.16 61.87,-422.45 72.42,-421.54 69.55,-415.16"/>
<text text-anchor="middle" x="162.5" y="-410" font-family="Helvetica,sans-Serif" font-size="10.00"> repo</text>
</g>
<!-- Node30 -->
<g id="node30" class="node">
<title>Node30</title>
<g id="a_node30"><a xlink:href="classmachine_1_1_var_table.html" target="_top" xlink:title="@整数の表">
<polygon fill="white" stroke="black" points="571.5,-541.5 571.5,-560.5 625.5,-560.5 625.5,-541.5 571.5,-541.5"/>
<text text-anchor="middle" x="598.5" y="-548.5" font-family="Helvetica,sans-Serif" font-size="10.00">VarTable</text>
</a>
</g>
</g>
<!-- Node6&#45;&gt;Node30 -->
<g id="edge40" class="edge">
<title>Node6&#45;&gt;Node30</title>
<path fill="none" stroke="#9a32cd" stroke-dasharray="5,2" d="M61,-448.39C68.29,-455.3 76.45,-463.67 83,-472 92.61,-484.23 88.1,-493.32 101,-502 140.25,-528.43 474.19,-545.44 571.19,-549.85"/>
<polygon fill="#9a32cd" stroke="#9a32cd" points="63.29,-445.73 53.57,-441.53 58.55,-450.88 63.29,-445.73"/>
<text text-anchor="middle" x="324" y="-543" font-family="Helvetica,sans-Serif" font-size="10.00"> repo</text>
</g>
<!-- Node7 -->
<g id="node7" class="node">
<title>Node7</title>
<g id="a_node7"><a xlink:title=" ">
<polygon fill="white" stroke="#bfbfbf" points="9,-362.5 9,-381.5 74,-381.5 74,-362.5 9,-362.5"/>
<text text-anchor="middle" x="41.5" y="-369.5" font-family="Helvetica,sans-Serif" font-size="10.00">TraceLevel</text>
</a>
</g>
</g>
<!-- Node7&#45;&gt;Node4 -->
<g id="edge6" class="edge">
<title>Node7&#45;&gt;Node4</title>
<path fill="none" stroke="#9a32cd" stroke-dasharray="5,2" d="M84.38,-372.66C131.8,-372.45 204.96,-368.94 224,-350 269.11,-305.14 199.42,-255.27 242,-208 252.83,-195.98 269.68,-190.84 285.22,-188.86"/>
<polygon fill="#9a32cd" stroke="#9a32cd" points="84.1,-369.16 74.1,-372.65 84.09,-376.16 84.1,-369.16"/>
<text text-anchor="middle" x="162.5" y="-376" font-family="Helvetica,sans-Serif" font-size="10.00"> LOG</text>
</g>
<!-- Node8 -->
<g id="node8" class="node">
<title>Node8</title>
<g id="a_node8"><a xlink:title=" ">
<polygon fill="white" stroke="#bfbfbf" points="27,-71.5 27,-90.5 56,-90.5 56,-71.5 27,-71.5"/>
<text text-anchor="middle" x="41.5" y="-78.5" font-family="Helvetica,sans-Serif" font-size="10.00">int</text>
</a>
</g>
</g>
<!-- Node8&#45;&gt;Node4 -->
<g id="edge7" class="edge">
<title>Node8&#45;&gt;Node4</title>
<path fill="none" stroke="#9a32cd" stroke-dasharray="5,2" d="M66.09,-85.44C109.36,-93.95 199.28,-113.47 224,-133 236.8,-143.12 229.24,-154.83 242,-165 254.27,-174.79 270.43,-180.58 285.09,-184.02"/>
<polygon fill="#9a32cd" stroke="#9a32cd" points="66.64,-81.98 56.16,-83.52 65.31,-88.85 66.64,-81.98"/>
<text text-anchor="middle" x="162.5" y="-169" font-family="Helvetica,sans-Serif" font-size="10.00"> BITMASK_PRINT_WIDTH</text>
<text text-anchor="middle" x="162.5" y="-158" font-family="Helvetica,sans-Serif" font-size="10.00">UNDEF</text>
<text text-anchor="middle" x="162.5" y="-147" font-family="Helvetica,sans-Serif" font-size="10.00">id_</text>
<text text-anchor="middle" x="162.5" y="-136" font-family="Helvetica,sans-Serif" font-size="10.00">numInstances</text>
</g>
<!-- Node8&#45;&gt;Node21 -->
<g id="edge25" class="edge">
<title>Node8&#45;&gt;Node21</title>
<path fill="none" stroke="#9a32cd" stroke-dasharray="5,2" d="M65.67,-68.6C76.15,-63.65 88.88,-58.54 101,-56 173.43,-40.83 262.09,-47.29 301.89,-51.47"/>
<polygon fill="#9a32cd" stroke="#9a32cd" points="63.81,-65.61 56.41,-73.19 66.92,-71.88 63.81,-65.61"/>
<text text-anchor="middle" x="162.5" y="-59" font-family="Helvetica,sans-Serif" font-size="10.00"> FLAG_WIDTH</text>
</g>
<!-- Node8&#45;&gt;Node30 -->
<g id="edge41" class="edge">
<title>Node8&#45;&gt;Node30</title>
<path fill="none" stroke="#9a32cd" stroke-dasharray="5,2" d="M66.69,-76.56C103.45,-71.13 174.33,-65.9 224,-95 236.44,-102.29 230.12,-113.83 242,-122 303.57,-164.34 356.99,-102.6 406,-159 438.03,-195.86 395.34,-338.46 424,-378 445.51,-407.68 477.32,-381.21 500,-410 530.66,-448.91 486.83,-481.5 518,-520 531.05,-536.12 553.6,-543.88 571.36,-547.6"/>
<polygon fill="#9a32cd" stroke="#9a32cd" points="65.76,-73.17 56.44,-78.21 66.87,-80.08 65.76,-73.17"/>
<text text-anchor="middle" x="324" y="-162" font-family="Helvetica,sans-Serif" font-size="10.00"> UNDEF</text>
</g>
<!-- Node9 -->
<g id="node9" class="node">
<title>Node9</title>
<g id="a_node9"><a xlink:href="interfacetype_1_1_typable.html" target="_top" xlink:title="抽象ノードがもつ関数型のインタフェース">
<polygon fill="white" stroke="black" points="16.5,-171.5 16.5,-190.5 66.5,-190.5 66.5,-171.5 16.5,-171.5"/>
<text text-anchor="middle" x="41.5" y="-178.5" font-family="Helvetica,sans-Serif" font-size="10.00">Typable</text>
</a>
</g>
</g>
<!-- Node9&#45;&gt;Node4 -->
<g id="edge8" class="edge">
<title>Node9&#45;&gt;Node4</title>
<path fill="none" stroke="#9a32cd" stroke-dasharray="5,2" d="M76.69,-180.53C113.19,-180.17 172.7,-180.05 224,-182 244.32,-182.77 266.94,-184.32 285.42,-185.76"/>
<polygon fill="#9a32cd" stroke="#9a32cd" points="76.55,-177.03 66.59,-180.63 76.62,-184.03 76.55,-177.03"/>
<text text-anchor="middle" x="162.5" y="-185" font-family="Helvetica,sans-Serif" font-size="10.00"> typing</text>
</g>
<!-- Node10 -->
<g id="node10" class="node">
<title>Node10</title>
<g id="a_node10"><a xlink:title=" ">
<polygon fill="white" stroke="#bfbfbf" points="16.5,-601.5 16.5,-620.5 66.5,-620.5 66.5,-601.5 16.5,-601.5"/>
<text text-anchor="middle" x="41.5" y="-608.5" font-family="Helvetica,sans-Serif" font-size="10.00">boolean</text>
</a>
</g>
</g>
<!-- Node10&#45;&gt;Node1 -->
<g id="edge44" class="edge">
<title>Node10&#45;&gt;Node1</title>
<path fill="none" stroke="#9a32cd" stroke-dasharray="5,2" d="M76.26,-623.87C128.38,-642.56 231.97,-675 323,-675 323,-675 323,-675 970.5,-675 1010.67,-675 1021.94,-660.74 1050,-632 1075.36,-606.03 1090.42,-564.29 1096.23,-545.59"/>
<polygon fill="#9a32cd" stroke="#9a32cd" points="77.43,-620.58 66.84,-620.44 75.04,-627.15 77.43,-620.58"/>
<text text-anchor="middle" x="733.5" y="-678" font-family="Helvetica,sans-Serif" font-size="10.00"> DEBUG_REPO</text>
</g>
<!-- Node10&#45;&gt;Node4 -->
<g id="edge9" class="edge">
<title>Node10&#45;&gt;Node4</title>
<path fill="none" stroke="#9a32cd" stroke-dasharray="5,2" d="M47.92,-591.72C55.96,-565.98 73.15,-520.14 101,-490 143.98,-443.47 190.17,-471.56 224,-418 249.01,-378.4 211.36,-243.43 242,-208 252.68,-195.65 269.71,-190.5 285.41,-188.6"/>
<polygon fill="#9a32cd" stroke="#9a32cd" points="44.53,-590.83 45.03,-601.42 51.24,-592.83 44.53,-590.83"/>
<text text-anchor="middle" x="162.5" y="-493" font-family="Helvetica,sans-Serif" font-size="10.00"> DEBUG_REPO</text>
</g>
<!-- Node10&#45;&gt;Node18 -->
<g id="edge20" class="edge">
<title>Node10&#45;&gt;Node18</title>
<path fill="none" stroke="#9a32cd" stroke-dasharray="5,2" d="M66.47,-595.99C77.01,-589.46 89.57,-581.77 101,-575 155.13,-542.96 184.47,-553.92 224,-505 240.7,-484.34 222.52,-466.06 242,-448 258.84,-432.38 286.01,-428.84 304.18,-428.39"/>
<polygon fill="#9a32cd" stroke="#9a32cd" points="64.45,-593.13 57.81,-601.38 68.15,-599.07 64.45,-593.13"/>
<text text-anchor="middle" x="162.5" y="-589" font-family="Helvetica,sans-Serif" font-size="10.00"> preoperSupress</text>
<text text-anchor="middle" x="162.5" y="-578" font-family="Helvetica,sans-Serif" font-size="10.00">toInline</text>
</g>
<!-- Node25 -->
<g id="node25" class="node">
<title>Node25</title>
<g id="a_node25"><a xlink:href="classast_1_1_sent_list.html" target="_top" xlink:title="文Sentenceのリスト.">
<polygon fill="white" stroke="black" points="943,-526.5 943,-545.5 996,-545.5 996,-526.5 943,-526.5"/>
<text text-anchor="middle" x="969.5" y="-533.5" font-family="Helvetica,sans-Serif" font-size="10.00">SentList</text>
</a>
</g>
</g>
<!-- Node10&#45;&gt;Node25 -->
<g id="edge33" class="edge">
<title>Node10&#45;&gt;Node25</title>
<path fill="none" stroke="#9a32cd" stroke-dasharray="5,2" d="M76.76,-613.74C84.71,-614.26 93.15,-614.73 101,-615 155.63,-616.87 169.34,-615.9 224,-615 291.23,-613.89 678.64,-599.05 679,-599 777.75,-586.55 892.61,-556.93 942.82,-543.21"/>
<polygon fill="#9a32cd" stroke="#9a32cd" points="76.9,-610.24 66.67,-613.02 76.4,-617.22 76.9,-610.24"/>
<text text-anchor="middle" x="598.5" y="-607" font-family="Helvetica,sans-Serif" font-size="10.00"> DEBUG_CHILD</text>
</g>
<!-- Node10&#45;&gt;Node30 -->
<g id="edge43" class="edge">
<title>Node10&#45;&gt;Node30</title>
<path fill="none" stroke="#9a32cd" stroke-dasharray="5,2" d="M76.7,-608.47C113.21,-605.71 172.73,-601 224,-596 346.86,-584.03 377.56,-580.66 500,-565 524.26,-561.9 551.84,-557.89 571.46,-554.96"/>
<polygon fill="#9a32cd" stroke="#9a32cd" points="76.3,-604.99 66.59,-609.24 76.83,-611.97 76.3,-604.99"/>
<text text-anchor="middle" x="324" y="-597" font-family="Helvetica,sans-Serif" font-size="10.00"> DEBUG_REPO</text>
</g>
<!-- Node11 -->
<g id="node11" class="node">
<title>Node11</title>
<g id="a_node11"><a xlink:href="interfaceast_1_1_node.html" target="_top" xlink:title=" ">
<polygon fill="white" stroke="black" points="304,-255.5 304,-274.5 344,-274.5 344,-255.5 304,-255.5"/>
<text text-anchor="middle" x="324" y="-262.5" font-family="Helvetica,sans-Serif" font-size="10.00">Node</text>
</a>
</g>
</g>
<!-- Node11&#45;&gt;Node3 -->
<g id="edge10" class="edge">
<title>Node11&#45;&gt;Node3</title>
<path fill="none" stroke="midnightblue" d="M354.31,-268.98C407.63,-276.22 519.71,-291.44 570.94,-298.39"/>
<polygon fill="midnightblue" stroke="midnightblue" points="354.54,-265.48 344.16,-267.6 353.6,-272.42 354.54,-265.48"/>
</g>
<!-- Node12 -->
<g id="node12" class="node">
<title>Node12</title>
<g id="a_node12"><a xlink:href="interfaceformat_1_1_x_formattable.html" target="_top" xlink:title="入れ子フォーマット出力可能なオブジェクトのインタフェース。">
<polygon fill="white" stroke="black" points="4,-481.5 4,-500.5 79,-500.5 79,-481.5 4,-481.5"/>
<text text-anchor="middle" x="41.5" y="-488.5" font-family="Helvetica,sans-Serif" font-size="10.00">XFormattable</text>
</a>
</g>
</g>
<!-- Node12&#45;&gt;Node11 -->
<g id="edge11" class="edge">
<title>Node12&#45;&gt;Node11</title>
<path fill="none" stroke="midnightblue" d="M89.25,-493.94C136.66,-495.81 205.58,-495.12 224,-477 254.7,-446.79 213.7,-316.48 242,-284 257.18,-266.57 285.03,-263.51 303.78,-263.66"/>
<polygon fill="midnightblue" stroke="midnightblue" points="89.34,-490.44 79.19,-493.49 89.02,-497.43 89.34,-490.44"/>
</g>
<!-- Node13 -->
<g id="node13" class="node">
<title>Node13</title>
<g id="a_node13"><a xlink:href="interfaceformat_1_1_x_formattable_1_1_navigatable.html" target="_top" xlink:title="木構造の分岐ノードとして清書可能なオブジェクトのクラス">
<polygon fill="white" stroke="black" points="259,-217.5 259,-236.5 389,-236.5 389,-217.5 259,-217.5"/>
<text text-anchor="middle" x="324" y="-224.5" font-family="Helvetica,sans-Serif" font-size="10.00">XFormattable.Navigatable</text>
</a>
</g>
</g>
<!-- Node12&#45;&gt;Node13 -->
<g id="edge13" class="edge">
<title>Node12&#45;&gt;Node13</title>
<path fill="none" stroke="midnightblue" d="M88.94,-481.72C141.96,-471.02 221.73,-454.58 224,-452 254.41,-417.55 211.92,-280.74 242,-246 246.63,-240.65 252.46,-236.65 258.86,-233.68"/>
<polygon fill="midnightblue" stroke="midnightblue" points="88.16,-478.3 79.05,-483.71 89.55,-485.17 88.16,-478.3"/>
</g>
<!-- Node28 -->
<g id="node28" class="node">
<title>Node28</title>
<g id="a_node28"><a xlink:href="interfaceformat_1_1_x_formattable_1_1_custom_formattable.html" target="_top" xlink:title="カスタム清書出力器をもつオブジェクトのクラス．">
<polygon fill="white" stroke="black" points="242,-495.5 242,-514.5 406,-514.5 406,-495.5 242,-495.5"/>
<text text-anchor="middle" x="324" y="-502.5" font-family="Helvetica,sans-Serif" font-size="10.00">XFormattable.CustomFormattable</text>
</a>
</g>
</g>
<!-- Node12&#45;&gt;Node28 -->
<g id="edge36" class="edge">
<title>Node12&#45;&gt;Node28</title>
<path fill="none" stroke="midnightblue" d="M49.99,-509.99C58.87,-529.59 75.73,-559.08 101,-572 149.67,-596.89 178.49,-602.29 224,-572 241.25,-560.52 226.58,-542.83 242,-529 249.1,-522.63 257.81,-517.95 266.86,-514.51"/>
<polygon fill="midnightblue" stroke="midnightblue" points="53.1,-508.37 45.97,-500.53 46.66,-511.11 53.1,-508.37"/>
</g>
<!-- Node13&#45;&gt;Node3 -->
<g id="edge12" class="edge">
<title>Node13&#45;&gt;Node3</title>
<path fill="none" stroke="midnightblue" d="M378.36,-238.89C387.6,-241.13 397.11,-243.54 406,-246 448.27,-257.68 458.66,-261.38 500,-276 508.09,-278.86 509.81,-280.44 518,-283 535.34,-288.42 555.21,-293.17 570.75,-296.56"/>
<polygon fill="midnightblue" stroke="midnightblue" points="379,-235.44 368.46,-236.53 377.38,-242.25 379,-235.44"/>
</g>
<!-- Node14 -->
<g id="node14" class="node">
<title>Node14</title>
<g id="a_node14"><a xlink:title=" ">
<polygon fill="white" stroke="#bfbfbf" points="260,-83 260,-113 388,-113 388,-83 260,-83"/>
<text text-anchor="start" x="268" y="-101" font-family="Helvetica,sans-Serif" font-size="10.00">java.util.function.Function</text>
<text text-anchor="middle" x="324" y="-90" font-family="Helvetica,sans-Serif" font-size="10.00">&lt; ast.Node, String &gt;</text>
</a>
</g>
</g>
<!-- Node14&#45;&gt;Node3 -->
<g id="edge14" class="edge">
<title>Node14&#45;&gt;Node3</title>
<path fill="none" stroke="#9a32cd" stroke-dasharray="5,2" d="M386.23,-116.79C425.61,-132.26 474.1,-158.37 500,-199 520.52,-231.2 491.32,-255.69 518,-283 531.58,-296.91 553.4,-301.37 570.74,-302.52"/>
<polygon fill="#9a32cd" stroke="#9a32cd" points="387.03,-113.35 376.44,-113.08 384.55,-119.9 387.03,-113.35"/>
<text text-anchor="middle" x="462" y="-202" font-family="Helvetica,sans-Serif" font-size="10.00"> printerFunc</text>
</g>
<!-- Node15 -->
<g id="node15" class="node">
<title>Node15</title>
<g id="a_node15"><a xlink:title=" ">
<polygon fill="white" stroke="#bfbfbf" points="256,-370 256,-400 392,-400 392,-370 256,-370"/>
<text text-anchor="start" x="264" y="-388" font-family="Helvetica,sans-Serif" font-size="10.00">java.util.function.Consumer</text>
<text text-anchor="middle" x="324" y="-377" font-family="Helvetica,sans-Serif" font-size="10.00">&lt; ast.Node &gt;</text>
</a>
</g>
</g>
<!-- Node15&#45;&gt;Node3 -->
<g id="edge15" class="edge">
<title>Node15&#45;&gt;Node3</title>
<path fill="none" stroke="#9a32cd" stroke-dasharray="5,2" d="M401.95,-368.69C432.73,-361.5 468.33,-352.32 500,-342 526.96,-333.21 557.02,-320.4 576.54,-311.66"/>
<polygon fill="#9a32cd" stroke="#9a32cd" points="401.09,-365.3 392.13,-370.96 402.67,-372.12 401.09,-365.3"/>
<text text-anchor="middle" x="462" y="-366" font-family="Helvetica,sans-Serif" font-size="10.00"> typerFunc</text>
</g>
<!-- Node16 -->
<g id="node16" class="node">
<title>Node16</title>
<g id="a_node16"><a xlink:title=" ">
<polygon fill="white" stroke="#bfbfbf" points="279,-331.5 279,-350.5 369,-350.5 369,-331.5 279,-331.5"/>
<text text-anchor="middle" x="324" y="-338.5" font-family="Helvetica,sans-Serif" font-size="10.00">List&lt; ast.Node &gt;</text>
</a>
</g>
</g>
<!-- Node16&#45;&gt;Node3 -->
<g id="edge16" class="edge">
<title>Node16&#45;&gt;Node3</title>
<path fill="none" stroke="#9a32cd" stroke-dasharray="5,2" d="M379.16,-333.25C437.08,-324.96 526.56,-312.15 570.83,-305.82"/>
<polygon fill="#9a32cd" stroke="#9a32cd" points="378.49,-329.81 369.08,-334.69 379.48,-336.74 378.49,-329.81"/>
<text text-anchor="middle" x="462" y="-330" font-family="Helvetica,sans-Serif" font-size="10.00"> children_</text>
</g>
<!-- Node17 -->
<g id="node17" class="node">
<title>Node17</title>
<g id="a_node17"><a xlink:title=" ">
<polygon fill="white" stroke="#bfbfbf" points="298,-293.5 298,-312.5 350,-312.5 350,-293.5 298,-293.5"/>
<text text-anchor="middle" x="324" y="-300.5" font-family="Helvetica,sans-Serif" font-size="10.00">Boolean</text>
</a>
</g>
</g>
<!-- Node17&#45;&gt;Node3 -->
<g id="edge17" class="edge">
<title>Node17&#45;&gt;Node3</title>
<path fill="none" stroke="#9a32cd" stroke-dasharray="5,2" d="M360.17,-302.87C415.42,-302.67 521.34,-302.28 570.81,-302.1"/>
<polygon fill="#9a32cd" stroke="#9a32cd" points="360.13,-299.37 350.15,-302.91 360.16,-306.37 360.13,-299.37"/>
<text text-anchor="middle" x="462" y="-306" font-family="Helvetica,sans-Serif" font-size="10.00"> DEBUG_CHILD</text>
</g>
<!-- Node18&#45;&gt;Node3 -->
<g id="edge18" class="edge">
<title>Node18&#45;&gt;Node3</title>
<path fill="none" stroke="#9a32cd" stroke-dasharray="5,2" d="M353.82,-422.45C369.35,-418.78 388.81,-413.95 406,-409 448.27,-396.83 461.19,-398.72 500,-378 535.22,-359.2 570.73,-327.6 587.52,-311.72"/>
<polygon fill="#9a32cd" stroke="#9a32cd" points="352.71,-419.11 343.77,-424.8 354.3,-425.93 352.71,-419.11"/>
<text text-anchor="middle" x="462" y="-408" font-family="Helvetica,sans-Serif" font-size="10.00"> sty</text>
</g>
<!-- Node19 -->
<g id="node19" class="node">
<title>Node19</title>
<g id="a_node19"><a xlink:href="classast_1_1_named_children.html" target="_top" xlink:title=" ">
<polygon fill="white" stroke="black" points="527.5,-254.5 527.5,-273.5 669.5,-273.5 669.5,-254.5 527.5,-254.5"/>
<text text-anchor="middle" x="598.5" y="-261.5" font-family="Helvetica,sans-Serif" font-size="10.00">NamedChildren&lt; ast.Node &gt;</text>
</a>
</g>
</g>
<!-- Node19&#45;&gt;Node2 -->
<g id="edge21" class="edge">
<title>Node19&#45;&gt;Node2</title>
<path fill="none" stroke="#9a32cd" stroke-dasharray="5,2" d="M679.7,-264C716.04,-264 757.52,-264 787.69,-264"/>
<polygon fill="#9a32cd" stroke="#9a32cd" points="679.6,-260.5 669.6,-264 679.6,-267.5 679.6,-260.5"/>
<text text-anchor="middle" x="733.5" y="-267" font-family="Helvetica,sans-Serif" font-size="10.00"> astChildren</text>
</g>
<!-- Node20 -->
<g id="node20" class="node">
<title>Node20</title>
<g id="a_node20"><a xlink:href="classast_1_1_named_children.html" target="_top" xlink:title=" ">
<polygon fill="white" stroke="black" points="518,-216.5 518,-235.5 679,-235.5 679,-216.5 518,-216.5"/>
<text text-anchor="middle" x="598.5" y="-223.5" font-family="Helvetica,sans-Serif" font-size="10.00">NamedChildren&lt; XFormattable &gt;</text>
</a>
</g>
</g>
<!-- Node20&#45;&gt;Node2 -->
<g id="edge22" class="edge">
<title>Node20&#45;&gt;Node2</title>
<path fill="none" stroke="#9a32cd" stroke-dasharray="5,2" d="M689.42,-236.23C715.51,-239.71 743.97,-244.01 770,-249 778.01,-250.54 786.56,-252.48 794.61,-254.46"/>
<polygon fill="#9a32cd" stroke="#9a32cd" points="689.54,-232.72 679.17,-234.89 688.63,-239.66 689.54,-232.72"/>
<text text-anchor="middle" x="733.5" y="-252" font-family="Helvetica,sans-Serif" font-size="10.00"> navChildren</text>
</g>
<!-- Node21&#45;&gt;Node2 -->
<g id="edge23" class="edge">
<title>Node21&#45;&gt;Node2</title>
<path fill="none" stroke="#9a32cd" stroke-dasharray="5,2" d="M356.22,-59.9C371.43,-63.14 389.87,-67.59 406,-73 569.43,-127.78 755.17,-224.04 812.34,-254.48"/>
<polygon fill="#9a32cd" stroke="#9a32cd" points="356.78,-56.45 346.28,-57.86 355.37,-63.3 356.78,-56.45"/>
<text text-anchor="middle" x="598.5" y="-189" font-family="Helvetica,sans-Serif" font-size="10.00"> xtSelf</text>
</g>
<!-- Node22 -->
<g id="node22" class="node">
<title>Node22</title>
<g id="a_node22"><a xlink:title=" ">
<polygon fill="white" stroke="#bfbfbf" points="24,-0.5 24,-19.5 59,-19.5 59,-0.5 24,-0.5"/>
<text text-anchor="middle" x="41.5" y="-7.5" font-family="Helvetica,sans-Serif" font-size="10.00">long</text>
</a>
</g>
</g>
<!-- Node22&#45;&gt;Node21 -->
<g id="edge26" class="edge">
<title>Node22&#45;&gt;Node21</title>
<path fill="none" stroke="#9a32cd" stroke-dasharray="5,2" d="M69.28,-9.45C104.93,-9.22 169.79,-10.51 224,-21 251.57,-26.33 282.05,-37.31 301.8,-45.13"/>
<polygon fill="#9a32cd" stroke="#9a32cd" points="69.16,-5.96 59.2,-9.57 69.24,-12.95 69.16,-5.96"/>
<text text-anchor="middle" x="162.5" y="-35" font-family="Helvetica,sans-Serif" font-size="10.00"> FLAG_RETURN_TYPE</text>
<text text-anchor="middle" x="162.5" y="-24" font-family="Helvetica,sans-Serif" font-size="10.00">flag</text>
</g>
<!-- Node23 -->
<g id="node23" class="node">
<title>Node23</title>
<g id="a_node23"><a xlink:href="interfacemachine_1_1_blockable.html" target="_top" xlink:title="局所変数をもつ実行可能コードのインタフェース.">
<polygon fill="white" stroke="black" points="940,-400.5 940,-419.5 999,-419.5 999,-400.5 940,-400.5"/>
<text text-anchor="middle" x="969.5" y="-407.5" font-family="Helvetica,sans-Serif" font-size="10.00">Blockable</text>
</a>
</g>
</g>
<!-- Node23&#45;&gt;Node1 -->
<g id="edge27" class="edge">
<title>Node23&#45;&gt;Node1</title>
<path fill="none" stroke="midnightblue" d="M1009.33,-415.04C1023.41,-418.48 1038.63,-424.27 1050,-434 1079.4,-459.17 1092.57,-506 1097.08,-526.25"/>
<polygon fill="midnightblue" stroke="midnightblue" points="1009.86,-411.58 999.35,-412.93 1008.41,-418.42 1009.86,-411.58"/>
</g>
<!-- Node24 -->
<g id="node24" class="node">
<title>Node24</title>
<g id="a_node24"><a xlink:href="interfacecmd_1_1_generatable.html" target="_top" xlink:title="変換してコードを生成できるノードのインタフェース.">
<polygon fill="white" stroke="black" points="796.5,-475.5 796.5,-494.5 865.5,-494.5 865.5,-475.5 796.5,-475.5"/>
<text text-anchor="middle" x="831" y="-482.5" font-family="Helvetica,sans-Serif" font-size="10.00">Generatable</text>
</a>
</g>
</g>
<!-- Node24&#45;&gt;Node1 -->
<g id="edge28" class="edge">
<title>Node24&#45;&gt;Node1</title>
<path fill="none" stroke="midnightblue" d="M875.51,-493.31C929.53,-503.63 1020.34,-520.98 1067.87,-530.05"/>
<polygon fill="midnightblue" stroke="midnightblue" points="876.02,-489.85 865.55,-491.41 874.71,-496.72 876.02,-489.85"/>
</g>
<!-- Node24&#45;&gt;Node25 -->
<g id="edge32" class="edge">
<title>Node24&#45;&gt;Node25</title>
<path fill="none" stroke="midnightblue" d="M867.35,-498.21C891.01,-507.05 921.62,-518.48 942.94,-526.45"/>
<polygon fill="midnightblue" stroke="midnightblue" points="868.27,-494.81 857.67,-494.59 865.82,-501.37 868.27,-494.81"/>
</g>
<!-- Node25&#45;&gt;Node1 -->
<g id="edge29" class="edge">
<title>Node25&#45;&gt;Node1</title>
<path fill="none" stroke="#9a32cd" stroke-dasharray="5,2" d="M1006.44,-536C1025.77,-536 1049.37,-536 1067.91,-536"/>
<polygon fill="#9a32cd" stroke="#9a32cd" points="1006.2,-532.5 996.2,-536 1006.2,-539.5 1006.2,-532.5"/>
<text text-anchor="middle" x="1033.5" y="-539" font-family="Helvetica,sans-Serif" font-size="10.00"> sents_</text>
</g>
<!-- Node26&#45;&gt;Node25 -->
<g id="edge30" class="edge">
<title>Node26&#45;&gt;Node25</title>
<path fill="none" stroke="midnightblue" d="M878.78,-527.45C900.15,-529.49 924.64,-531.82 942.63,-533.54"/>
<polygon fill="midnightblue" stroke="midnightblue" points="878.87,-523.95 868.58,-526.48 878.2,-530.92 878.87,-523.95"/>
</g>
<!-- Node27 -->
<g id="node27" class="node">
<title>Node27</title>
<g id="a_node27"><a xlink:href="classcmd_1_1_cmd_list.html" target="_top" xlink:title="仮想命令のリスト．">
<polygon fill="white" stroke="black" points="572,-491.5 572,-510.5 625,-510.5 625,-491.5 572,-491.5"/>
<text text-anchor="middle" x="598.5" y="-498.5" font-family="Helvetica,sans-Serif" font-size="10.00">CmdList</text>
</a>
</g>
</g>
<!-- Node27&#45;&gt;Node1 -->
<g id="edge34" class="edge">
<title>Node27&#45;&gt;Node1</title>
<path fill="none" stroke="#9a32cd" stroke-dasharray="5,2" d="M634.83,-512.97C689.28,-530.73 797.31,-563.21 892,-575 905.23,-576.65 908.72,-576.23 922,-575 979.63,-569.64 993.8,-564.83 1050,-551 1056.48,-549.41 1063.37,-547.46 1069.87,-545.5"/>
<polygon fill="#9a32cd" stroke="#9a32cd" points="635.9,-509.64 625.3,-509.84 633.71,-516.29 635.9,-509.64"/>
<text text-anchor="middle" x="907" y="-579" font-family="Helvetica,sans-Serif" font-size="10.00"> code_</text>
</g>
<!-- Node28&#45;&gt;Node27 -->
<g id="edge35" class="edge">
<title>Node28&#45;&gt;Node27</title>
<path fill="none" stroke="midnightblue" d="M416.1,-503.66C470.79,-502.86 536.42,-501.9 571.83,-501.38"/>
<polygon fill="midnightblue" stroke="midnightblue" points="415.97,-500.16 406.02,-503.81 416.07,-507.16 415.97,-500.16"/>
</g>
<!-- Node28&#45;&gt;Node30 -->
<g id="edge39" class="edge">
<title>Node28&#45;&gt;Node30</title>
<path fill="none" stroke="midnightblue" d="M391.62,-516.25C449.45,-526.01 530.16,-539.63 571.23,-546.57"/>
<polygon fill="midnightblue" stroke="midnightblue" points="391.91,-512.74 381.46,-514.53 390.74,-519.65 391.91,-512.74"/>
</g>
<!-- Node29 -->
<g id="node29" class="node">
<title>Node29</title>
<g id="a_node29"><a xlink:title=" ">
<polygon fill="white" stroke="#bfbfbf" points="288.5,-457.5 288.5,-476.5 359.5,-476.5 359.5,-457.5 288.5,-457.5"/>
<text text-anchor="middle" x="324" y="-464.5" font-family="Helvetica,sans-Serif" font-size="10.00">List&lt; Cmd &gt;</text>
</a>
</g>
</g>
<!-- Node29&#45;&gt;Node27 -->
<g id="edge37" class="edge">
<title>Node29&#45;&gt;Node27</title>
<path fill="none" stroke="#9a32cd" stroke-dasharray="5,2" d="M369.58,-471.74C404.97,-475.58 455.7,-481.29 500,-487 524.42,-490.15 552.22,-494.18 571.87,-497.11"/>
<polygon fill="#9a32cd" stroke="#9a32cd" points="369.89,-468.25 359.57,-470.65 369.13,-475.21 369.89,-468.25"/>
<text text-anchor="middle" x="462" y="-490" font-family="Helvetica,sans-Serif" font-size="10.00"> list_</text>
</g>
<!-- Node30&#45;&gt;Node1 -->
<g id="edge38" class="edge">
<title>Node30&#45;&gt;Node1</title>
<path fill="none" stroke="#9a32cd" stroke-dasharray="5,2" d="M618.06,-567.38C636.59,-582.55 666.59,-604.07 697,-613 772.26,-635.11 981.38,-651.02 1050,-613 1076.47,-598.33 1090.72,-562.69 1096.25,-545.53"/>
<polygon fill="#9a32cd" stroke="#9a32cd" points="620.07,-564.5 610.17,-560.72 615.56,-569.85 620.07,-564.5"/>
<text text-anchor="middle" x="907" y="-638" font-family="Helvetica,sans-Serif" font-size="10.00"> vars_</text>
</g>
<!-- Node30&#45;&gt;Node30 -->
<g id="edge42" class="edge">
<title>Node30&#45;&gt;Node30</title>
<path fill="none" stroke="#9a32cd" stroke-dasharray="5,2" d="M573.57,-570.03C574.93,-575.13 583.24,-579 598.5,-579 622.32,-579 629.2,-569.57 619.15,-560.76"/>
<polygon fill="#9a32cd" stroke="#9a32cd" points="576.84,-571.3 577.85,-560.76 570.48,-568.37 576.84,-571.3"/>
<text text-anchor="middle" x="598.5" y="-582" font-family="Helvetica,sans-Serif" font-size="10.00"> parent</text>
</g>
</g>
</svg>
        <g id="navigator" transform="translate(0 0)" fill="#404254">
                <rect fill="#f2f5e9" fill-opacity="0.5" stroke="#606060" stroke-width=".5" x="0" y="0" width="60" height="60"/>
                <use id="zoomplus" xlink:href="#zoomPlus" x="17" y="9" onmousedown="handleZoom(evt,'in')"/>
                <use id="zoomminus" xlink:href="#zoomMin" x="42" y="9" onmousedown="handleZoom(evt,'out')"/>
                <use id="reset" xlink:href="#resetDef" x="30" y="36" onmousedown="handleReset()"/>
                <g id="arrowUp" xlink:href="#dirArrow" transform="translate(30 24)" onmousedown="handlePan(0,-1)">
                  <use xlink:href="#rim" fill="#404040">
                        <set attributeName="fill" to="#808080" begin="arrowUp.mouseover" end="arrowUp.mouseout"/>
                  </use>
                  <path fill="none" stroke="white" stroke-width="1.5" d="M0,-3.0v7 M-2.5,-0.5L0,-3.0L2.5,-0.5"/>
                </g>
                <g id="arrowRight" xlink:href="#dirArrow" transform="rotate(90) translate(36 -43)" onmousedown="handlePan(1,0)">
                  <use xlink:href="#rim" fill="#404040">
                        <set attributeName="fill" to="#808080" begin="arrowRight.mouseover" end="arrowRight.mouseout"/>
                  </use>
                  <path fill="none" stroke="white" stroke-width="1.5" d="M0,-3.0v7 M-2.5,-0.5L0,-3.0L2.5,-0.5"/>
                </g>
                <g id="arrowDown" xlink:href="#dirArrow" transform="rotate(180) translate(-30 -48)" onmousedown="handlePan(0,1)">
                  <use xlink:href="#rim" fill="#404040">
                        <set attributeName="fill" to="#808080" begin="arrowDown.mouseover" end="arrowDown.mouseout"/>
                  </use>
                  <path fill="none" stroke="white" stroke-width="1.5" d="M0,-3.0v7 M-2.5,-0.5L0,-3.0L2.5,-0.5"/>
                </g>
                <g id="arrowLeft" xlink:href="#dirArrow" transform="rotate(270) translate(-36 17)" onmousedown="handlePan(-1,0)">
                  <use xlink:href="#rim" fill="#404040">
                        <set attributeName="fill" to="#808080" begin="arrowLeft.mouseover" end="arrowLeft.mouseout"/>
                  </use>
                  <path fill="none" stroke="white" stroke-width="1.5" d="M0,-3.0v7 M-2.5,-0.5L0,-3.0L2.5,-0.5"/>
                </g>
        </g>
        <svg viewBox="0 0 15 15" width="100%" height="30px" preserveAspectRatio="xMaxYMin meet">
         <g id="arrow_out" transform="scale(0.3 0.3)">
          <a xlink:href="classast_1_1_block_base__coll__graph_org.svg" target="_base">
           <rect id="button" ry="5" rx="5" y="6" x="6" height="38" width="38"
                fill="#f2f5e9" fill-opacity="0.5" stroke="#606060" stroke-width="1.0"/>
           <path id="arrow"
             d="M 11.500037,31.436501 C 11.940474,20.09759 22.043105,11.32322 32.158766,21.979434 L 37.068811,17.246167 C 37.068811,17.246167 37.088388,32 37.088388,32 L 22.160133,31.978069 C 22.160133,31.978069 26.997745,27.140456 26.997745,27.140456 C 18.528582,18.264221 13.291696,25.230495 11.500037,31.436501 z"
             style="fill:#404040;"/>
          </a>
         </g>
        </svg>
</svg>
