<?xml version="1.0" encoding="UTF-8" standalone="no"?>
<!DOCTYPE svg PUBLIC "-//W3C//DTD SVG 1.1//EN"
 "http://www.w3.org/Graphics/SVG/1.1/DTD/svg11.dtd">
<!-- Generated by graphviz version 2.47.0 (20210316.0004)
 -->
<!-- Title: AstLiteral.BooleanLiteral Pages: 1 -->
<svg width="495pt" height="252pt"
 viewBox="0.00 0.00 495.00 252.00" xmlns="http://www.w3.org/2000/svg" xmlns:xlink="http://www.w3.org/1999/xlink">
<g id="graph0" class="graph" transform="scale(1 1) rotate(0) translate(4 248)">
<title>AstLiteral.BooleanLiteral</title>
<polygon fill="white" stroke="transparent" points="-4,4 -4,-248 491,-248 491,4 -4,4"/>
<!-- Node1 -->
<g id="node1" class="node">
<title>Node1</title>
<g id="a_node1"><a xlink:title="ダミーの生成子．このクラス自身は直接生成されない．部分クラスからのみ生成される">
<polygon fill="#bfbfbf" stroke="black" points="232.5,-0.5 232.5,-19.5 354.5,-19.5 354.5,-0.5 232.5,-0.5"/>
<text text-anchor="middle" x="293.5" y="-7.5" font-family="Helvetica,sans-Serif" font-size="10.00">AstLiteral.BooleanLiteral</text>
</a>
</g>
</g>
<!-- Node2 -->
<g id="node2" class="node">
<title>Node2</title>
<g id="a_node2"><a xlink:href="classast_1_1_ast_literal.html" target="_top" xlink:title="値を返すことができる終端オブジェクトのクラス">
<polygon fill="white" stroke="black" points="264.5,-56.5 264.5,-75.5 322.5,-75.5 322.5,-56.5 264.5,-56.5"/>
<text text-anchor="middle" x="293.5" y="-63.5" font-family="Helvetica,sans-Serif" font-size="10.00">AstLiteral</text>
</a>
</g>
</g>
<!-- Node2&#45;&gt;Node1 -->
<g id="edge1" class="edge">
<title>Node2&#45;&gt;Node1</title>
<path fill="none" stroke="midnightblue" d="M293.5,-45.8C293.5,-36.91 293.5,-26.78 293.5,-19.75"/>
<polygon fill="midnightblue" stroke="midnightblue" points="290,-46.08 293.5,-56.08 297,-46.08 290,-46.08"/>
</g>
<!-- Node3 -->
<g id="node3" class="node">
<title>Node3</title>
<g id="a_node3"><a xlink:href="classast_1_1_ast_node.html" target="_top" xlink:title="タグなしの順アクセスの子供をもてる抽象構文木のノードのクラス。">
<polygon fill="white" stroke="black" points="213,-112.5 213,-131.5 268,-131.5 268,-112.5 213,-112.5"/>
<text text-anchor="middle" x="240.5" y="-119.5" font-family="Helvetica,sans-Serif" font-size="10.00">AstNode</text>
</a>
</g>
</g>
<!-- Node3&#45;&gt;Node2 -->
<g id="edge2" class="edge">
<title>Node3&#45;&gt;Node2</title>
<path fill="none" stroke="midnightblue" d="M256.48,-104.72C265.82,-95.2 277.25,-83.56 284.91,-75.75"/>
<polygon fill="midnightblue" stroke="midnightblue" points="253.76,-102.49 249.25,-112.08 258.75,-107.4 253.76,-102.49"/>
</g>
<!-- Node4 -->
<g id="node4" class="node">
<title>Node4</title>
<g id="a_node4"><a xlink:href="classast_1_1_ast_node_base.html" target="_top" xlink:title=" ">
<polygon fill="white" stroke="black" points="0,-168.5 0,-187.5 77,-187.5 77,-168.5 0,-168.5"/>
<text text-anchor="middle" x="38.5" y="-175.5" font-family="Helvetica,sans-Serif" font-size="10.00">AstNodeBase</text>
</a>
</g>
</g>
<!-- Node4&#45;&gt;Node3 -->
<g id="edge3" class="edge">
<title>Node4&#45;&gt;Node3</title>
<path fill="none" stroke="midnightblue" d="M80.17,-165.86C119.9,-155.24 178.61,-139.55 212.86,-130.39"/>
<polygon fill="midnightblue" stroke="midnightblue" points="79.26,-162.48 70.51,-168.44 81.07,-169.24 79.26,-162.48"/>
</g>
<!-- Node5 -->
<g id="node5" class="node">
<title>Node5</title>
<g id="a_node5"><a xlink:href="interfaceformat_1_1_x_formattable_1_1_navigatable.html" target="_top" xlink:title="木構造の分岐ノードとして清書可能なオブジェクトのクラス">
<polygon fill="white" stroke="black" points="95.5,-168.5 95.5,-187.5 225.5,-187.5 225.5,-168.5 95.5,-168.5"/>
<text text-anchor="middle" x="160.5" y="-175.5" font-family="Helvetica,sans-Serif" font-size="10.00">XFormattable.Navigatable</text>
</a>
</g>
</g>
<!-- Node5&#45;&gt;Node3 -->
<g id="edge4" class="edge">
<title>Node5&#45;&gt;Node3</title>
<path fill="none" stroke="midnightblue" d="M181.8,-162.62C196.42,-152.76 215.33,-139.99 227.68,-131.65"/>
<polygon fill="midnightblue" stroke="midnightblue" points="179.68,-159.83 173.35,-168.32 183.6,-165.63 179.68,-159.83"/>
</g>
<!-- Node6 -->
<g id="node6" class="node">
<title>Node6</title>
<g id="a_node6"><a xlink:href="interfaceformat_1_1_x_formattable.html" target="_top" xlink:title="入れ子フォーマット出力可能なオブジェクトのインタフェース。">
<polygon fill="white" stroke="black" points="203,-224.5 203,-243.5 278,-243.5 278,-224.5 203,-224.5"/>
<text text-anchor="middle" x="240.5" y="-231.5" font-family="Helvetica,sans-Serif" font-size="10.00">XFormattable</text>
</a>
</g>
</g>
<!-- Node6&#45;&gt;Node5 -->
<g id="edge5" class="edge">
<title>Node6&#45;&gt;Node5</title>
<path fill="none" stroke="midnightblue" d="M219.2,-218.62C204.58,-208.76 185.67,-195.99 173.32,-187.65"/>
<polygon fill="midnightblue" stroke="midnightblue" points="217.4,-221.63 227.65,-224.32 221.32,-215.83 217.4,-221.63"/>
</g>
<!-- Node7 -->
<g id="node7" class="node">
<title>Node7</title>
<g id="a_node7"><a xlink:href="interfaceformat_1_1_x_formattable_1_1_typed_formattable.html" target="_top" xlink:title="ノードの型情報をもつ書式出力可能なオブジェクトのインタフェース．">
<polygon fill="white" stroke="black" points="243.5,-168.5 243.5,-187.5 399.5,-187.5 399.5,-168.5 243.5,-168.5"/>
<text text-anchor="middle" x="321.5" y="-175.5" font-family="Helvetica,sans-Serif" font-size="10.00">XFormattable.TypedFormattable</text>
</a>
</g>
</g>
<!-- Node6&#45;&gt;Node7 -->
<g id="edge7" class="edge">
<title>Node6&#45;&gt;Node7</title>
<path fill="none" stroke="midnightblue" d="M262.07,-218.62C276.86,-208.76 296.01,-195.99 308.52,-187.65"/>
<polygon fill="midnightblue" stroke="midnightblue" points="259.89,-215.86 253.51,-224.32 263.78,-221.69 259.89,-215.86"/>
</g>
<!-- Node7&#45;&gt;Node3 -->
<g id="edge6" class="edge">
<title>Node7&#45;&gt;Node3</title>
<path fill="none" stroke="midnightblue" d="M299.93,-162.62C285.14,-152.76 265.99,-139.99 253.48,-131.65"/>
<polygon fill="midnightblue" stroke="midnightblue" points="298.22,-165.69 308.49,-168.32 302.11,-159.86 298.22,-165.69"/>
</g>
<!-- Node8 -->
<g id="node8" class="node">
<title>Node8</title>
<g id="a_node8"><a xlink:href="interfacecmd_1_1_generatable_1_1_evaluatable.html" target="_top" xlink:title="評価して値を返すノードのインタフェース．必ずしもコードを生成しなくても良い．">
<polygon fill="white" stroke="black" points="338,-112.5 338,-131.5 461,-131.5 461,-112.5 338,-112.5"/>
<text text-anchor="middle" x="399.5" y="-119.5" font-family="Helvetica,sans-Serif" font-size="10.00">Generatable.Evaluatable</text>
</a>
</g>
</g>
<!-- Node8&#45;&gt;Node2 -->
<g id="edge8" class="edge">
<title>Node8&#45;&gt;Node2</title>
<path fill="none" stroke="midnightblue" d="M373.44,-107.73C353.82,-97.73 327.47,-84.31 310.49,-75.65"/>
<polygon fill="midnightblue" stroke="midnightblue" points="371.97,-110.9 382.47,-112.32 375.15,-104.67 371.97,-110.9"/>
</g>
<!-- Node9 -->
<g id="node9" class="node">
<title>Node9</title>
<g id="a_node9"><a xlink:href="interfacecmd_1_1_generatable.html" target="_top" xlink:title="変換してコードを生成できるノードのインタフェース.">
<polygon fill="white" stroke="black" points="418,-168.5 418,-187.5 487,-187.5 487,-168.5 418,-168.5"/>
<text text-anchor="middle" x="452.5" y="-175.5" font-family="Helvetica,sans-Serif" font-size="10.00">Generatable</text>
</a>
</g>
</g>
<!-- Node9&#45;&gt;Node8 -->
<g id="edge9" class="edge">
<title>Node9&#45;&gt;Node8</title>
<path fill="none" stroke="midnightblue" d="M436.52,-160.72C427.18,-151.2 415.75,-139.56 408.09,-131.75"/>
<polygon fill="midnightblue" stroke="midnightblue" points="434.25,-163.4 443.75,-168.08 439.24,-158.49 434.25,-163.4"/>
</g>
</g>
</svg>
