<?xml version="1.0" encoding="UTF-8" standalone="no"?>
<!DOCTYPE svg PUBLIC "-//W3C//DTD SVG 1.1//EN"
 "http://www.w3.org/Graphics/SVG/1.1/DTD/svg11.dtd">
<!-- Generated by graphviz version 2.47.0 (20210316.0004)
 -->
<!-- Title: StringRel.StringMatchRel Pages: 1 -->
<svg width="316pt" height="323pt"
 viewBox="0.00 0.00 315.50 323.00" xmlns="http://www.w3.org/2000/svg" xmlns:xlink="http://www.w3.org/1999/xlink">
<g id="graph0" class="graph" transform="scale(1 1) rotate(0) translate(4 319)">
<title>StringRel.StringMatchRel</title>
<polygon fill="white" stroke="transparent" points="-4,4 -4,-319 311.5,-319 311.5,4 -4,4"/>
<!-- Node1 -->
<g id="node1" class="node">
<title>Node1</title>
<g id="a_node1"><a xlink:title=" ">
<polygon fill="#bfbfbf" stroke="black" points="121.5,-0.5 121.5,-19.5 249.5,-19.5 249.5,-0.5 121.5,-0.5"/>
<text text-anchor="middle" x="185.5" y="-7.5" font-family="Helvetica,sans-Serif" font-size="10.00">StringRel.StringMatchRel</text>
</a>
</g>
</g>
<!-- Node2 -->
<g id="node2" class="node">
<title>Node2</title>
<g id="a_node2"><a xlink:href="classast_1_1_string_rel.html" target="_top" xlink:title=" ">
<polygon fill="white" stroke="black" points="157,-57.5 157,-76.5 214,-76.5 214,-57.5 157,-57.5"/>
<text text-anchor="middle" x="185.5" y="-64.5" font-family="Helvetica,sans-Serif" font-size="10.00">StringRel</text>
</a>
</g>
</g>
<!-- Node2&#45;&gt;Node1 -->
<g id="edge1" class="edge">
<title>Node2&#45;&gt;Node1</title>
<path fill="none" stroke="midnightblue" d="M185.5,-47.12C185.5,-37.82 185.5,-27.06 185.5,-19.71"/>
<polygon fill="midnightblue" stroke="midnightblue" points="182,-47.41 185.5,-57.41 189,-47.41 182,-47.41"/>
</g>
<!-- Node3 -->
<g id="node3" class="node">
<title>Node3</title>
<g id="a_node3"><a xlink:title=" ">
<polygon fill="white" stroke="#bfbfbf" points="151.5,-114.5 151.5,-133.5 219.5,-133.5 219.5,-114.5 151.5,-114.5"/>
<text text-anchor="middle" x="185.5" y="-121.5" font-family="Helvetica,sans-Serif" font-size="10.00">AstRelOper</text>
</a>
</g>
</g>
<!-- Node3&#45;&gt;Node2 -->
<g id="edge2" class="edge">
<title>Node3&#45;&gt;Node2</title>
<path fill="none" stroke="midnightblue" d="M185.5,-104.12C185.5,-94.82 185.5,-84.06 185.5,-76.71"/>
<polygon fill="midnightblue" stroke="midnightblue" points="182,-104.41 185.5,-114.41 189,-104.41 182,-104.41"/>
</g>
<!-- Node4 -->
<g id="node4" class="node">
<title>Node4</title>
<g id="a_node4"><a xlink:href="classast_1_1_ast_oper.html" target="_top" xlink:title=" ">
<polygon fill="white" stroke="black" points="159,-171.5 159,-190.5 212,-190.5 212,-171.5 159,-171.5"/>
<text text-anchor="middle" x="185.5" y="-178.5" font-family="Helvetica,sans-Serif" font-size="10.00">AstOper</text>
</a>
</g>
</g>
<!-- Node4&#45;&gt;Node3 -->
<g id="edge3" class="edge">
<title>Node4&#45;&gt;Node3</title>
<path fill="none" stroke="midnightblue" d="M185.5,-161.12C185.5,-151.82 185.5,-141.06 185.5,-133.71"/>
<polygon fill="midnightblue" stroke="midnightblue" points="182,-161.41 185.5,-171.41 189,-161.41 182,-161.41"/>
</g>
<!-- Node5 -->
<g id="node5" class="node">
<title>Node5</title>
<g id="a_node5"><a xlink:href="classast_1_1_ast_node.html" target="_top" xlink:title="タグなしの順アクセスの子供をもてる抽象構文木のノードのクラス。">
<polygon fill="white" stroke="red" points="51,-238.5 51,-257.5 106,-257.5 106,-238.5 51,-238.5"/>
<text text-anchor="middle" x="78.5" y="-245.5" font-family="Helvetica,sans-Serif" font-size="10.00">AstNode</text>
</a>
</g>
</g>
<!-- Node5&#45;&gt;Node4 -->
<g id="edge4" class="edge">
<title>Node5&#45;&gt;Node4</title>
<path fill="none" stroke="midnightblue" d="M101.64,-232.94C122.83,-220.07 153.52,-201.43 171.3,-190.63"/>
<polygon fill="midnightblue" stroke="midnightblue" points="99.66,-230.05 92.93,-238.23 103.29,-236.03 99.66,-230.05"/>
</g>
<!-- Node19 -->
<g id="node6" class="node">
<title>Node19</title>
<g id="a_node6"><a xlink:href="interfacecmd_1_1_generatable_1_1_evaluatable.html" target="_top" xlink:title="評価して値を返すノードのインタフェース．必ずしもコードを生成しなくても良い．">
<polygon fill="white" stroke="black" points="124,-238.5 124,-257.5 247,-257.5 247,-238.5 124,-238.5"/>
<text text-anchor="middle" x="185.5" y="-245.5" font-family="Helvetica,sans-Serif" font-size="10.00">Generatable.Evaluatable</text>
</a>
</g>
</g>
<!-- Node19&#45;&gt;Node4 -->
<g id="edge5" class="edge">
<title>Node19&#45;&gt;Node4</title>
<path fill="none" stroke="midnightblue" d="M185.5,-228.04C185.5,-215.67 185.5,-200.12 185.5,-190.63"/>
<polygon fill="midnightblue" stroke="midnightblue" points="182,-228.23 185.5,-238.23 189,-228.23 182,-228.23"/>
</g>
<!-- Node20 -->
<g id="node7" class="node">
<title>Node20</title>
<g id="a_node7"><a xlink:href="interfacecmd_1_1_generatable.html" target="_top" xlink:title="変換してコードを生成できるノードのインタフェース.">
<polygon fill="white" stroke="black" points="0,-295.5 0,-314.5 69,-314.5 69,-295.5 0,-295.5"/>
<text text-anchor="middle" x="34.5" y="-302.5" font-family="Helvetica,sans-Serif" font-size="10.00">Generatable</text>
</a>
</g>
</g>
<!-- Node20&#45;&gt;Node1 -->
<g id="edge8" class="edge">
<title>Node20&#45;&gt;Node1</title>
<path fill="none" stroke="midnightblue" d="M28.37,-285.43C25.41,-274.87 22.5,-261.33 22.5,-249 22.5,-249 22.5,-249 22.5,-66 22.5,-43.23 80.34,-28.07 127.11,-19.53"/>
<polygon fill="midnightblue" stroke="midnightblue" points="25.08,-286.63 31.35,-295.17 31.78,-284.59 25.08,-286.63"/>
</g>
<!-- Node20&#45;&gt;Node19 -->
<g id="edge6" class="edge">
<title>Node20&#45;&gt;Node19</title>
<path fill="none" stroke="midnightblue" d="M67.66,-291.92C96.23,-281.52 136.76,-266.75 162.07,-257.53"/>
<polygon fill="midnightblue" stroke="midnightblue" points="66.29,-288.7 58.09,-295.41 68.69,-295.27 66.29,-288.7"/>
</g>
<!-- Node7 -->
<g id="node8" class="node">
<title>Node7</title>
<g id="a_node8"><a xlink:title=" ">
<polygon fill="white" stroke="#bfbfbf" points="265.5,-238.5 265.5,-257.5 307.5,-257.5 307.5,-238.5 265.5,-238.5"/>
<text text-anchor="middle" x="286.5" y="-245.5" font-family="Helvetica,sans-Serif" font-size="10.00">String</text>
</a>
</g>
</g>
<!-- Node7&#45;&gt;Node1 -->
<g id="edge9" class="edge">
<title>Node7&#45;&gt;Node1</title>
<path fill="none" stroke="#9a32cd" stroke-dasharray="5,2" d="M279.53,-228.82C275.22,-215.94 270.5,-198.16 270.5,-182 270.5,-182 270.5,-182 270.5,-66 270.5,-41.57 245.44,-27.45 222.53,-19.65"/>
<polygon fill="#9a32cd" stroke="#9a32cd" points="276.28,-230.11 282.95,-238.34 282.87,-227.74 276.28,-230.11"/>
<text text-anchor="middle" x="287.5" y="-121.5" font-family="Helvetica,sans-Serif" font-size="10.00"> pattern</text>
</g>
<!-- Node7&#45;&gt;Node4 -->
<g id="edge7" class="edge">
<title>Node7&#45;&gt;Node4</title>
<path fill="none" stroke="#9a32cd" stroke-dasharray="5,2" d="M263.42,-233.06C256.65,-228.91 249.25,-224.32 242.5,-220 227.07,-210.13 209.58,-198.38 198.09,-190.59"/>
<polygon fill="#9a32cd" stroke="#9a32cd" points="261.79,-236.17 272.15,-238.38 265.43,-230.19 261.79,-236.17"/>
<text text-anchor="middle" x="249.5" y="-212" font-family="Helvetica,sans-Serif" font-size="10.00"> op</text>
</g>
</g>
</svg>
