<?xml version="1.0" encoding="UTF-8" standalone="no"?>
<!DOCTYPE svg PUBLIC "-//W3C//DTD SVG 1.1//EN"
 "http://www.w3.org/Graphics/SVG/1.1/DTD/svg11.dtd">
<!-- Generated by graphviz version 2.47.0 (20210316.0004)
 -->
<!-- Title: CommandString.CmdStrRegexMatch Pages: 1 -->
<svg width="443pt" height="251pt"
 viewBox="0.00 0.00 443.00 251.00" xmlns="http://www.w3.org/2000/svg" xmlns:xlink="http://www.w3.org/1999/xlink">
<g id="graph0" class="graph" transform="scale(1 1) rotate(0) translate(4 247)">
<title>CommandString.CmdStrRegexMatch</title>
<polygon fill="white" stroke="transparent" points="-4,4 -4,-247 439,-247 439,4 -4,4"/>
<!-- Node1 -->
<g id="node1" class="node">
<title>Node1</title>
<g id="a_node1"><a xlink:title="正規表現照合命令">
<polygon fill="#bfbfbf" stroke="black" points="183,-0.5 183,-30.5 335,-30.5 335,-0.5 183,-0.5"/>
<text text-anchor="start" x="191" y="-18.5" font-family="Helvetica,sans-Serif" font-size="10.00">CommandString.CmdStrRegex</text>
<text text-anchor="middle" x="259" y="-7.5" font-family="Helvetica,sans-Serif" font-size="10.00">Match</text>
</a>
</g>
</g>
<!-- Node2 -->
<g id="node2" class="node">
<title>Node2</title>
<g id="a_node2"><a xlink:href="classcmd_1_1_command_base.html" target="_top" xlink:title="局所変数環境に値を書き込む式の抽象クラス.">
<polygon fill="white" stroke="black" points="159,-78.5 159,-97.5 243,-97.5 243,-78.5 159,-78.5"/>
<text text-anchor="middle" x="201" y="-85.5" font-family="Helvetica,sans-Serif" font-size="10.00">CommandBase</text>
</a>
</g>
</g>
<!-- Node2&#45;&gt;Node1 -->
<g id="edge1" class="edge">
<title>Node2&#45;&gt;Node1</title>
<path fill="none" stroke="midnightblue" d="M214.66,-70.39C224.63,-58.28 237.98,-42.05 247.42,-30.58"/>
<polygon fill="midnightblue" stroke="midnightblue" points="211.76,-68.41 208.11,-78.36 217.17,-72.86 211.76,-68.41"/>
</g>
<!-- Node3 -->
<g id="node3" class="node">
<title>Node3</title>
<g id="a_node3"><a xlink:href="interfacemachine_1_1_cmd.html" target="_top" xlink:title="仮装命令のインタフェース.">
<polygon fill="white" stroke="black" points="0,-145.5 0,-164.5 38,-164.5 38,-145.5 0,-145.5"/>
<text text-anchor="middle" x="19" y="-152.5" font-family="Helvetica,sans-Serif" font-size="10.00">Cmd</text>
</a>
</g>
</g>
<!-- Node3&#45;&gt;Node2 -->
<g id="edge2" class="edge">
<title>Node3&#45;&gt;Node2</title>
<path fill="none" stroke="midnightblue" d="M47.95,-143.66C83.65,-130.91 143.69,-109.47 176.97,-97.58"/>
<polygon fill="midnightblue" stroke="midnightblue" points="46.37,-140.51 38.13,-147.17 48.73,-147.1 46.37,-140.51"/>
</g>
<!-- Node4 -->
<g id="node4" class="node">
<title>Node4</title>
<g id="a_node4"><a xlink:href="interfaceformat_1_1_x_formattable_1_1_custom_formattable.html" target="_top" xlink:title="カスタム清書出力器をもつオブジェクトのクラス．">
<polygon fill="white" stroke="black" points="56,-145.5 56,-164.5 220,-164.5 220,-145.5 56,-145.5"/>
<text text-anchor="middle" x="138" y="-152.5" font-family="Helvetica,sans-Serif" font-size="10.00">XFormattable.CustomFormattable</text>
</a>
</g>
</g>
<!-- Node4&#45;&gt;Node2 -->
<g id="edge3" class="edge">
<title>Node4&#45;&gt;Node2</title>
<path fill="none" stroke="midnightblue" d="M153.51,-138C165.87,-125.25 182.69,-107.89 192.64,-97.63"/>
<polygon fill="midnightblue" stroke="midnightblue" points="150.94,-135.62 146.5,-145.23 155.97,-140.49 150.94,-135.62"/>
</g>
<!-- Node5 -->
<g id="node5" class="node">
<title>Node5</title>
<g id="a_node5"><a xlink:href="interfaceformat_1_1_x_formattable.html" target="_top" xlink:title="入れ子フォーマット出力可能なオブジェクトのインタフェース。">
<polygon fill="white" stroke="black" points="75.5,-223.5 75.5,-242.5 150.5,-242.5 150.5,-223.5 75.5,-223.5"/>
<text text-anchor="middle" x="113" y="-230.5" font-family="Helvetica,sans-Serif" font-size="10.00">XFormattable</text>
</a>
</g>
</g>
<!-- Node5&#45;&gt;Node4 -->
<g id="edge4" class="edge">
<title>Node5&#45;&gt;Node4</title>
<path fill="none" stroke="midnightblue" d="M119.03,-213.67C124.15,-198.11 131.27,-176.47 135.17,-164.62"/>
<polygon fill="midnightblue" stroke="midnightblue" points="115.67,-212.69 115.87,-223.28 122.32,-214.88 115.67,-212.69"/>
</g>
<!-- Node6 -->
<g id="node6" class="node">
<title>Node6</title>
<g id="a_node6"><a xlink:href="classutil_1_1_report.html" target="_top" xlink:title="標準出力への入れ子出力のためのレポートオブジェクトのクラス.">
<polygon fill="white" stroke="black" points="238.5,-145.5 238.5,-164.5 309.5,-164.5 309.5,-145.5 238.5,-145.5"/>
<text text-anchor="middle" x="274" y="-152.5" font-family="Helvetica,sans-Serif" font-size="10.00">Report&lt; S &gt;</text>
</a>
</g>
</g>
<!-- Node6&#45;&gt;Node2 -->
<g id="edge5" class="edge">
<title>Node6&#45;&gt;Node2</title>
<path fill="none" stroke="#9a32cd" stroke-dasharray="5,2" d="M256.43,-138.36C242.08,-125.58 222.33,-107.99 210.69,-97.63"/>
<polygon fill="#9a32cd" stroke="#9a32cd" points="254.36,-141.2 264.15,-145.23 259.01,-135.97 254.36,-141.2"/>
<text text-anchor="middle" x="253" y="-119" font-family="Helvetica,sans-Serif" font-size="10.00"> repo</text>
</g>
<!-- Node7 -->
<g id="node7" class="node">
<title>Node7</title>
<g id="a_node7"><a xlink:title=" ">
<polygon fill="white" stroke="#bfbfbf" points="169,-223.5 169,-242.5 211,-242.5 211,-223.5 169,-223.5"/>
<text text-anchor="middle" x="190" y="-230.5" font-family="Helvetica,sans-Serif" font-size="10.00">String</text>
</a>
</g>
</g>
<!-- Node7&#45;&gt;Node6 -->
<g id="edge6" class="edge">
<title>Node7&#45;&gt;Node6</title>
<path fill="none" stroke="#9a32cd" stroke-dasharray="5,2" d="M197.16,-213.83C201.87,-203.74 208.85,-191.53 218,-183 226.6,-174.98 238.03,-168.89 248.32,-164.55"/>
<polygon fill="#9a32cd" stroke="#9a32cd" points="193.8,-212.78 193.08,-223.35 200.24,-215.53 193.8,-212.78"/>
<text text-anchor="middle" x="244" y="-191.5" font-family="Helvetica,sans-Serif" font-size="10.00"> STEMSTR</text>
</g>
<!-- Node8 -->
<g id="node8" class="node">
<title>Node8</title>
<g id="a_node8"><a xlink:href="classutil_1_1_stack_base.html" target="_top" xlink:title=" ">
<polygon fill="white" stroke="black" points="229,-223.5 229,-242.5 337,-242.5 337,-223.5 229,-223.5"/>
<text text-anchor="middle" x="283" y="-230.5" font-family="Helvetica,sans-Serif" font-size="10.00">StackBase&lt; String &gt;</text>
</a>
</g>
</g>
<!-- Node8&#45;&gt;Node6 -->
<g id="edge7" class="edge">
<title>Node8&#45;&gt;Node6</title>
<path fill="none" stroke="#9a32cd" stroke-dasharray="5,2" d="M276.83,-213.56C276.08,-210.72 275.44,-207.8 275,-205 272.83,-191.04 273.05,-174.58 273.48,-164.74"/>
<polygon fill="#9a32cd" stroke="#9a32cd" points="273.48,-214.58 279.72,-223.14 280.18,-212.55 273.48,-214.58"/>
<text text-anchor="middle" x="284" y="-191.5" font-family="Helvetica,sans-Serif" font-size="10.00"> NS</text>
</g>
<!-- Node9 -->
<g id="node9" class="node">
<title>Node9</title>
<g id="a_node9"><a xlink:title=" ">
<polygon fill="white" stroke="#bfbfbf" points="363,-223.5 363,-242.5 413,-242.5 413,-223.5 363,-223.5"/>
<text text-anchor="middle" x="388" y="-230.5" font-family="Helvetica,sans-Serif" font-size="10.00">boolean</text>
</a>
</g>
</g>
<!-- Node9&#45;&gt;Node2 -->
<g id="edge9" class="edge">
<title>Node9&#45;&gt;Node2</title>
<path fill="none" stroke="#9a32cd" stroke-dasharray="5,2" d="M389.46,-213.04C389.32,-203.35 387.69,-191.79 382,-183 350.23,-133.97 284.22,-109.09 241.31,-97.6"/>
<polygon fill="#9a32cd" stroke="#9a32cd" points="385.96,-213.15 389.11,-223.27 392.95,-213.39 385.96,-213.15"/>
<text text-anchor="middle" x="401" y="-152.5" font-family="Helvetica,sans-Serif" font-size="10.00"> DEBUG_CMD</text>
</g>
<!-- Node9&#45;&gt;Node6 -->
<g id="edge8" class="edge">
<title>Node9&#45;&gt;Node6</title>
<path fill="none" stroke="#9a32cd" stroke-dasharray="5,2" d="M353.22,-222.89C340.8,-218.65 327.13,-212.79 316,-205 300.21,-193.95 286.68,-175.63 279.5,-164.8"/>
<polygon fill="#9a32cd" stroke="#9a32cd" points="352.25,-226.26 362.84,-225.95 354.37,-219.58 352.25,-226.26"/>
<text text-anchor="middle" x="349" y="-197" font-family="Helvetica,sans-Serif" font-size="10.00"> DEBUG_POP</text>
<text text-anchor="middle" x="349" y="-186" font-family="Helvetica,sans-Serif" font-size="10.00">toPrint</text>
</g>
<!-- Node10 -->
<g id="node10" class="node">
<title>Node10</title>
<g id="a_node10"><a xlink:title=" ">
<polygon fill="white" stroke="#bfbfbf" points="261,-78.5 261,-97.5 373,-97.5 373,-78.5 261,-78.5"/>
<text text-anchor="middle" x="317" y="-85.5" font-family="Helvetica,sans-Serif" font-size="10.00">java.util.regex.Pattern</text>
</a>
</g>
</g>
<!-- Node10&#45;&gt;Node1 -->
<g id="edge10" class="edge">
<title>Node10&#45;&gt;Node1</title>
<path fill="none" stroke="#9a32cd" stroke-dasharray="5,2" d="M303.34,-70.39C293.37,-58.28 280.02,-42.05 270.58,-30.58"/>
<polygon fill="#9a32cd" stroke="#9a32cd" points="300.83,-72.86 309.89,-78.36 306.24,-68.41 300.83,-72.86"/>
<text text-anchor="middle" x="307" y="-52" font-family="Helvetica,sans-Serif" font-size="10.00"> regex</text>
</g>
</g>
</svg>
