<?xml version="1.0" encoding="UTF-8" standalone="no"?>
<!DOCTYPE svg PUBLIC "-//W3C//DTD SVG 1.1//EN"
 "http://www.w3.org/Graphics/SVG/1.1/DTD/svg11.dtd">
<!-- Generated by graphviz version 2.38.0 (20140413.2041)
 -->
<!-- Title: OSRef Pages: 1 -->
<svg width="192pt" height="92pt"
 viewBox="0.00 0.00 191.70 92.00" xmlns="http://www.w3.org/2000/svg" xmlns:xlink="http://www.w3.org/1999/xlink">
<g id="graph0" class="graph" transform="scale(1 1) rotate(0) translate(4 88)">
<title>OSRef</title>
<polygon fill="white" stroke="none" points="-4,4 -4,-88 187.699,-88 187.699,4 -4,4"/>
<!-- Node1 -->
<g id="node1" class="node"><title>Node1</title>
<g id="a_node1"><a xlink:title="フレーム中の変数参照オブジェクトref = (XType type, int vid)">
<polygon fill="#bfbfbf" stroke="black" points="59.4556,-0.5 59.4556,-18.5 105.465,-18.5 105.465,-0.5 59.4556,-0.5"/>
<text text-anchor="middle" x="82.4604" y="-6.5" font-family="Helvetica,sans-Serif" font-size="10.00">OSRef</text>
</a>
</g>
</g>
<!-- Node2 -->
<g id="node2" class="node"><title>Node2</title>
<g id="a_node2"><a xlink:href="interfacemachine_1_1_assignable.html" target="_top" xlink:title="変数（チャネルとコンテナの名前）の抽象化">
<polygon fill="white" stroke="black" points="0,-65.5 0,-83.5 64.9209,-83.5 64.9209,-65.5 0,-65.5"/>
<text text-anchor="middle" x="32.4604" y="-71.5" font-family="Helvetica,sans-Serif" font-size="10.00">Assignable</text>
</a>
</g>
</g>
<!-- Node2&#45;&gt;Node1 -->
<g id="edge1" class="edge"><title>Node2&#45;&gt;Node1</title>
<path fill="none" stroke="midnightblue" d="M45.4651,-57.1142C55.307,-44.7134 68.3996,-28.2167 76.0803,-18.539"/>
<polygon fill="midnightblue" stroke="midnightblue" points="42.4722,-55.2551 38.9971,-65.2639 47.9552,-59.6068 42.4722,-55.2551"/>
</g>
<!-- Node3 -->
<g id="node3" class="node"><title>Node3</title>
<g id="a_node3"><a xlink:title=" ">
<polygon fill="white" stroke="#bfbfbf" points="83.2217,-65.5 83.2217,-83.5 183.699,-83.5 183.699,-65.5 83.2217,-65.5"/>
<text text-anchor="middle" x="133.46" y="-71.5" font-family="Helvetica,sans-Serif" font-size="10.00">java.io.PrintStream</text>
</a>
</g>
</g>
<!-- Node3&#45;&gt;Node1 -->
<g id="edge2" class="edge"><title>Node3&#45;&gt;Node1</title>
<path fill="none" stroke="#9a32cd" stroke-dasharray="5,2" d="M120.487,-57.4742C110.417,-45.0344 96.8786,-28.3107 88.9682,-18.539"/>
<polygon fill="#9a32cd" stroke="#9a32cd" points="117.781,-59.6936 126.793,-65.2639 123.221,-55.2892 117.781,-59.6936"/>
<text text-anchor="middle" x="118.13" y="-39" font-family="Helvetica,sans-Serif" font-size="10.00"> os</text>
</g>
</g>
</svg>
