<?xml version="1.0" encoding="UTF-8" standalone="no"?>
<!DOCTYPE svg PUBLIC "-//W3C//DTD SVG 1.1//EN"
 "http://www.w3.org/Graphics/SVG/1.1/DTD/svg11.dtd">
<!-- Generated by graphviz version 2.47.0 (20210316.0004)
 -->
<!-- Title: FrameStackUni Pages: 1 -->
<svg width="1419pt" height="1154pt"
 viewBox="0.00 0.00 1419.00 1154.00" xmlns="http://www.w3.org/2000/svg" xmlns:xlink="http://www.w3.org/1999/xlink">
<g id="graph0" class="graph" transform="scale(1 1) rotate(0) translate(4 1150)">
<title>FrameStackUni</title>
<polygon fill="white" stroke="transparent" points="-4,4 -4,-1150 1415,-1150 1415,4 -4,4"/>
<!-- Node1 -->
<g id="node1" class="node">
<title>Node1</title>
<g id="a_node1"><a xlink:title="フレームスタックのクラス。新実装。">
<polygon fill="#bfbfbf" stroke="black" points="1326,-893.5 1326,-912.5 1411,-912.5 1411,-893.5 1326,-893.5"/>
<text text-anchor="middle" x="1368.5" y="-900.5" font-family="Helvetica,sans-Serif" font-size="10.00">FrameStackUni</text>
</a>
</g>
</g>
<!-- Node2 -->
<g id="node2" class="node">
<title>Node2</title>
<g id="a_node2"><a xlink:href="interfacemachine_1_1_frame_stackable.html" target="_top" xlink:title=" ">
<polygon fill="white" stroke="black" points="1122.5,-1126.5 1122.5,-1145.5 1210.5,-1145.5 1210.5,-1126.5 1122.5,-1126.5"/>
<text text-anchor="middle" x="1166.5" y="-1133.5" font-family="Helvetica,sans-Serif" font-size="10.00">FrameStackable</text>
</a>
</g>
</g>
<!-- Node2&#45;&gt;Node1 -->
<g id="edge1" class="edge">
<title>Node2&#45;&gt;Node1</title>
<path fill="none" stroke="midnightblue" d="M1220.6,-1129.96C1250.69,-1123.7 1286.52,-1110.95 1308,-1085 1352.72,-1030.96 1364.14,-942.36 1366.78,-912.88"/>
<polygon fill="midnightblue" stroke="midnightblue" points="1219.81,-1126.55 1210.64,-1131.84 1221.11,-1133.42 1219.81,-1126.55"/>
</g>
<!-- Node3 -->
<g id="node3" class="node">
<title>Node3</title>
<g id="a_node3"><a xlink:href="classutil_1_1_auto_stack.html" target="_top" xlink:title=" ">
<polygon fill="white" stroke="black" points="1083,-1088.5 1083,-1107.5 1250,-1107.5 1250,-1088.5 1083,-1088.5"/>
<text text-anchor="middle" x="1166.5" y="-1095.5" font-family="Helvetica,sans-Serif" font-size="10.00">AutoStack&lt; frame.DoubleHolder &gt;</text>
</a>
</g>
</g>
<!-- Node3&#45;&gt;Node1 -->
<g id="edge2" class="edge">
<title>Node3&#45;&gt;Node1</title>
<path fill="none" stroke="#9a32cd" stroke-dasharray="5,2" d="M1230.06,-1085.51C1236.91,-1083.36 1243.69,-1080.87 1250,-1078 1278.74,-1064.94 1287.99,-1061.41 1308,-1037 1340.76,-997.04 1358.98,-936.19 1365.12,-912.71"/>
<polygon fill="#9a32cd" stroke="#9a32cd" points="1228.62,-1082.28 1219.99,-1088.43 1230.57,-1089 1228.62,-1082.28"/>
<text text-anchor="middle" x="1288" y="-1073" font-family="Helvetica,sans-Serif" font-size="10.00"> DS</text>
</g>
<!-- Node4 -->
<g id="node4" class="node">
<title>Node4</title>
<g id="a_node4"><a xlink:href="classutil_1_1_auto_stack.html" target="_top" xlink:title=" ">
<polygon fill="white" stroke="black" points="1099.5,-1039 1099.5,-1069 1233.5,-1069 1233.5,-1039 1099.5,-1039"/>
<text text-anchor="start" x="1107.5" y="-1057" font-family="Helvetica,sans-Serif" font-size="10.00">AutoStack&lt; frame.Boolean</text>
<text text-anchor="middle" x="1166.5" y="-1046" font-family="Helvetica,sans-Serif" font-size="10.00">Holder &gt;</text>
</a>
</g>
</g>
<!-- Node4&#45;&gt;Node1 -->
<g id="edge3" class="edge">
<title>Node4&#45;&gt;Node1</title>
<path fill="none" stroke="#9a32cd" stroke-dasharray="5,2" d="M1238.68,-1035.53C1262.94,-1026.46 1288.76,-1013.41 1308,-995 1334.38,-969.75 1354.66,-930.62 1363.15,-912.64"/>
<polygon fill="#9a32cd" stroke="#9a32cd" points="1237.37,-1032.28 1229.12,-1038.93 1239.71,-1038.87 1237.37,-1032.28"/>
<text text-anchor="middle" x="1288" y="-1025" font-family="Helvetica,sans-Serif" font-size="10.00"> BS</text>
</g>
<!-- Node5 -->
<g id="node5" class="node">
<title>Node5</title>
<g id="a_node5"><a xlink:href="classutil_1_1_auto_stack.html" target="_top" xlink:title=" ">
<polygon fill="white" stroke="black" points="1085.5,-1000.5 1085.5,-1019.5 1247.5,-1019.5 1247.5,-1000.5 1085.5,-1000.5"/>
<text text-anchor="middle" x="1166.5" y="-1007.5" font-family="Helvetica,sans-Serif" font-size="10.00">AutoStack&lt; frame.StringHolder &gt;</text>
</a>
</g>
</g>
<!-- Node5&#45;&gt;Node1 -->
<g id="edge4" class="edge">
<title>Node5&#45;&gt;Node1</title>
<path fill="none" stroke="#9a32cd" stroke-dasharray="5,2" d="M1227.35,-997.79C1235.09,-995.55 1242.81,-992.96 1250,-990 1295.54,-971.26 1339.53,-930.96 1358.18,-912.54"/>
<polygon fill="#9a32cd" stroke="#9a32cd" points="1226.3,-994.45 1217.58,-1000.45 1228.15,-1001.2 1226.3,-994.45"/>
<text text-anchor="middle" x="1288" y="-983" font-family="Helvetica,sans-Serif" font-size="10.00"> SS</text>
</g>
<!-- Node6 -->
<g id="node6" class="node">
<title>Node6</title>
<g id="a_node6"><a xlink:href="classutil_1_1_auto_stack.html" target="_top" xlink:title=" ">
<polygon fill="white" stroke="black" points="1102,-951 1102,-981 1231,-981 1231,-951 1102,-951"/>
<text text-anchor="start" x="1110" y="-969" font-family="Helvetica,sans-Serif" font-size="10.00">AutoStack&lt; frame.Integer</text>
<text text-anchor="middle" x="1166.5" y="-958" font-family="Helvetica,sans-Serif" font-size="10.00">Holder &gt;</text>
</a>
</g>
</g>
<!-- Node6&#45;&gt;Node1 -->
<g id="edge5" class="edge">
<title>Node6&#45;&gt;Node1</title>
<path fill="none" stroke="#9a32cd" stroke-dasharray="5,2" d="M1237.33,-948.28C1260.03,-942.08 1285.24,-934.72 1308,-927 1320.55,-922.74 1334.29,-917.26 1345.4,-912.6"/>
<polygon fill="#9a32cd" stroke="#9a32cd" points="1236.17,-944.97 1227.43,-950.96 1238,-951.73 1236.17,-944.97"/>
<text text-anchor="middle" x="1288" y="-943" font-family="Helvetica,sans-Serif" font-size="10.00"> IS</text>
</g>
<!-- Node7 -->
<g id="node7" class="node">
<title>Node7</title>
<g id="a_node7"><a xlink:href="classutil_1_1_auto_stack.html" target="_top" xlink:title=" ">
<polygon fill="white" stroke="black" points="1093,-912.5 1093,-931.5 1240,-931.5 1240,-912.5 1093,-912.5"/>
<text text-anchor="middle" x="1166.5" y="-919.5" font-family="Helvetica,sans-Serif" font-size="10.00">AutoStack&lt; frame.MemCell &gt;</text>
</a>
</g>
</g>
<!-- Node7&#45;&gt;Node1 -->
<g id="edge6" class="edge">
<title>Node7&#45;&gt;Node1</title>
<path fill="none" stroke="#9a32cd" stroke-dasharray="5,2" d="M1250.52,-914.11C1276.5,-911.64 1304.07,-909.03 1325.91,-906.95"/>
<polygon fill="#9a32cd" stroke="#9a32cd" points="1249.89,-910.66 1240.27,-915.09 1250.56,-917.63 1249.89,-910.66"/>
<text text-anchor="middle" x="1288" y="-915" font-family="Helvetica,sans-Serif" font-size="10.00"> REC</text>
</g>
<!-- Node8 -->
<g id="node8" class="node">
<title>Node8</title>
<g id="a_node8"><a xlink:href="classutil_1_1_report.html" target="_top" xlink:title="標準出力への入れ子出力のためのレポートオブジェクトのクラス.">
<polygon fill="white" stroke="black" points="318.5,-898.5 318.5,-917.5 389.5,-917.5 389.5,-898.5 318.5,-898.5"/>
<text text-anchor="middle" x="354" y="-905.5" font-family="Helvetica,sans-Serif" font-size="10.00">Report&lt; S &gt;</text>
</a>
</g>
</g>
<!-- Node8&#45;&gt;Node1 -->
<g id="edge7" class="edge">
<title>Node8&#45;&gt;Node1</title>
<path fill="none" stroke="#9a32cd" stroke-dasharray="5,2" d="M399.96,-907.58C514.11,-906.55 824.39,-903.89 1083,-903 1169.19,-902.7 1270.07,-902.81 1325.56,-902.91"/>
<polygon fill="#9a32cd" stroke="#9a32cd" points="399.82,-904.08 389.85,-907.68 399.89,-911.08 399.82,-904.08"/>
<text text-anchor="middle" x="921.5" y="-908" font-family="Helvetica,sans-Serif" font-size="10.00"> repo</text>
</g>
<!-- Node9 -->
<g id="node9" class="node">
<title>Node9</title>
<g id="a_node9"><a xlink:title=" ">
<polygon fill="white" stroke="#bfbfbf" points="35.5,-733.5 35.5,-752.5 77.5,-752.5 77.5,-733.5 35.5,-733.5"/>
<text text-anchor="middle" x="56.5" y="-740.5" font-family="Helvetica,sans-Serif" font-size="10.00">String</text>
</a>
</g>
</g>
<!-- Node9&#45;&gt;Node8 -->
<g id="edge8" class="edge">
<title>Node9&#45;&gt;Node8</title>
<path fill="none" stroke="#9a32cd" stroke-dasharray="5,2" d="M59.98,-762.7C65.56,-797.73 82.64,-870.15 131,-902 160.78,-921.62 263.46,-916.01 318.12,-911.4"/>
<polygon fill="#9a32cd" stroke="#9a32cd" points="63.44,-762.14 58.55,-752.74 56.51,-763.14 63.44,-762.14"/>
<text text-anchor="middle" x="192.5" y="-919" font-family="Helvetica,sans-Serif" font-size="10.00"> STEMSTR</text>
</g>
<!-- Node16 -->
<g id="node16" class="node">
<title>Node16</title>
<g id="a_node16"><a xlink:href="classast_1_1_ast_node_base.html" target="_top" xlink:title=" ">
<polygon fill="white" stroke="red" points="315.5,-485.5 315.5,-504.5 392.5,-504.5 392.5,-485.5 315.5,-485.5"/>
<text text-anchor="middle" x="354" y="-492.5" font-family="Helvetica,sans-Serif" font-size="10.00">AstNodeBase</text>
</a>
</g>
</g>
<!-- Node9&#45;&gt;Node16 -->
<g id="edge16" class="edge">
<title>Node9&#45;&gt;Node16</title>
<path fill="none" stroke="#9a32cd" stroke-dasharray="5,2" d="M86.53,-728.54C96.34,-722.28 106.46,-714.05 113,-704 135.48,-669.44 105.53,-645.42 131,-613 168.23,-565.63 212.02,-599.22 254,-556 268.15,-541.43 256.44,-527.05 272,-514 284.06,-503.88 300.54,-498.93 315.48,-496.59"/>
<polygon fill="#9a32cd" stroke="#9a32cd" points="84.55,-725.64 77.71,-733.73 88.1,-731.67 84.55,-725.64"/>
<text text-anchor="middle" x="192.5" y="-627" font-family="Helvetica,sans-Serif" font-size="10.00"> MOD_AST</text>
<text text-anchor="middle" x="192.5" y="-616" font-family="Helvetica,sans-Serif" font-size="10.00">mod_</text>
</g>
<!-- Node24 -->
<g id="node22" class="node">
<title>Node24</title>
<g id="a_node22"><a xlink:href="classformat_1_1_style.html" target="_top" xlink:title="ノードの表示スタイルに関するプロパティのクラス.">
<polygon fill="white" stroke="black" points="334.5,-637.5 334.5,-656.5 373.5,-656.5 373.5,-637.5 334.5,-637.5"/>
<text text-anchor="middle" x="354" y="-644.5" font-family="Helvetica,sans-Serif" font-size="10.00">Style</text>
</a>
</g>
</g>
<!-- Node9&#45;&gt;Node24 -->
<g id="edge26" class="edge">
<title>Node9&#45;&gt;Node24</title>
<path fill="none" stroke="#9a32cd" stroke-dasharray="5,2" d="M87.59,-733.22C148.51,-713.43 284.83,-669.15 334.47,-653.02"/>
<polygon fill="#9a32cd" stroke="#9a32cd" points="86.24,-729.98 77.81,-736.4 88.4,-736.64 86.24,-729.98"/>
<text text-anchor="middle" x="192.5" y="-798" font-family="Helvetica,sans-Serif" font-size="10.00"> childLPAD</text>
<text text-anchor="middle" x="192.5" y="-787" font-family="Helvetica,sans-Serif" font-size="10.00">childRPAD</text>
<text text-anchor="middle" x="192.5" y="-776" font-family="Helvetica,sans-Serif" font-size="10.00">name</text>
<text text-anchor="middle" x="192.5" y="-765" font-family="Helvetica,sans-Serif" font-size="10.00">operSTR</text>
<text text-anchor="middle" x="192.5" y="-754" font-family="Helvetica,sans-Serif" font-size="10.00">parenLPAD</text>
<text text-anchor="middle" x="192.5" y="-743" font-family="Helvetica,sans-Serif" font-size="10.00">parenLPAR</text>
<text text-anchor="middle" x="192.5" y="-732" font-family="Helvetica,sans-Serif" font-size="10.00">parenRPAD</text>
<text text-anchor="middle" x="192.5" y="-721" font-family="Helvetica,sans-Serif" font-size="10.00">parenRPAR</text>
</g>
<!-- Node10 -->
<g id="node10" class="node">
<title>Node10</title>
<g id="a_node10"><a xlink:href="classutil_1_1_stack_base.html" target="_top" xlink:title=" ">
<polygon fill="white" stroke="black" points="2.5,-948.5 2.5,-967.5 110.5,-967.5 110.5,-948.5 2.5,-948.5"/>
<text text-anchor="middle" x="56.5" y="-955.5" font-family="Helvetica,sans-Serif" font-size="10.00">StackBase&lt; String &gt;</text>
</a>
</g>
</g>
<!-- Node10&#45;&gt;Node8 -->
<g id="edge9" class="edge">
<title>Node10&#45;&gt;Node8</title>
<path fill="none" stroke="#9a32cd" stroke-dasharray="5,2" d="M120.9,-953.56C159.6,-950.19 209.93,-944.64 254,-936 277.84,-931.33 304.29,-923.72 323.85,-917.61"/>
<polygon fill="#9a32cd" stroke="#9a32cd" points="120.49,-950.08 110.82,-954.41 121.08,-957.06 120.49,-950.08"/>
<text text-anchor="middle" x="192.5" y="-956" font-family="Helvetica,sans-Serif" font-size="10.00"> NS</text>
</g>
<!-- Node11 -->
<g id="node11" class="node">
<title>Node11</title>
<g id="a_node11"><a xlink:title=" ">
<polygon fill="white" stroke="#bfbfbf" points="31.5,-675.5 31.5,-694.5 81.5,-694.5 81.5,-675.5 31.5,-675.5"/>
<text text-anchor="middle" x="56.5" y="-682.5" font-family="Helvetica,sans-Serif" font-size="10.00">boolean</text>
</a>
</g>
</g>
<!-- Node11&#45;&gt;Node1 -->
<g id="edge52" class="edge">
<title>Node11&#45;&gt;Node1</title>
<path fill="none" stroke="#9a32cd" stroke-dasharray="5,2" d="M86.91,-699.78C96.58,-706.01 106.5,-714.14 113,-724 134.48,-756.62 102.77,-783.02 131,-810 203.27,-879.05 253.04,-846 353,-846 353,-846 353,-846 1167.5,-846 1235.92,-846 1312.64,-877.23 1347.87,-893.46"/>
<polygon fill="#9a32cd" stroke="#9a32cd" points="88.59,-696.71 78.21,-694.6 85.01,-702.72 88.59,-696.71"/>
<text text-anchor="middle" x="776" y="-860" font-family="Helvetica,sans-Serif" font-size="10.00"> DEBUG_FETCH</text>
<text text-anchor="middle" x="776" y="-849" font-family="Helvetica,sans-Serif" font-size="10.00">DEBUG_STACK</text>
</g>
<!-- Node11&#45;&gt;Node8 -->
<g id="edge10" class="edge">
<title>Node11&#45;&gt;Node8</title>
<path fill="none" stroke="#9a32cd" stroke-dasharray="5,2" d="M87.53,-699.67C97.17,-705.86 106.91,-713.99 113,-724 143.99,-774.97 89.22,-814.43 131,-857 150.37,-876.74 227.09,-869.62 254,-876 279.31,-882 307.47,-891.38 327.27,-898.43"/>
<polygon fill="#9a32cd" stroke="#9a32cd" points="89.21,-696.6 78.82,-694.54 85.65,-702.63 89.21,-696.6"/>
<text text-anchor="middle" x="192.5" y="-890" font-family="Helvetica,sans-Serif" font-size="10.00"> DEBUG_POP</text>
<text text-anchor="middle" x="192.5" y="-879" font-family="Helvetica,sans-Serif" font-size="10.00">toPrint</text>
</g>
<!-- Node13 -->
<g id="node13" class="node">
<title>Node13</title>
<g id="a_node13"><a xlink:href="classmachine_1_1_program.html" target="_top" xlink:title="ルールの集合からなるコンパイル済みのプログラム.">
<polygon fill="white" stroke="black" points="1140,-422.5 1140,-441.5 1193,-441.5 1193,-422.5 1140,-422.5"/>
<text text-anchor="middle" x="1166.5" y="-429.5" font-family="Helvetica,sans-Serif" font-size="10.00">Program</text>
</a>
</g>
</g>
<!-- Node11&#45;&gt;Node13 -->
<g id="edge51" class="edge">
<title>Node11&#45;&gt;Node13</title>
<path fill="none" stroke="#9a32cd" stroke-dasharray="5,2" d="M91.92,-690.08C165.16,-700.43 341.94,-723 491,-723 491,-723 491,-723 922.5,-723 1072.57,-723 1148.08,-492.18 1162.8,-441.68"/>
<polygon fill="#9a32cd" stroke="#9a32cd" points="92.27,-686.59 81.88,-688.64 91.28,-693.52 92.27,-686.59"/>
<text text-anchor="middle" x="629" y="-726" font-family="Helvetica,sans-Serif" font-size="10.00"> DEBUG_NAME</text>
</g>
<!-- Node14 -->
<g id="node14" class="node">
<title>Node14</title>
<g id="a_node14"><a xlink:href="classast_1_1_ast_node_tagged.html" target="_top" xlink:title="子それぞれにタグと型アイテムをもつ順序ノードAstNodeのサブクラス．利用者は自前で，追加する子のField名と型を設定する．読み出しは子の添字のみで行う．">
<polygon fill="white" stroke="black" points="878.5,-532.5 878.5,-551.5 964.5,-551.5 964.5,-532.5 878.5,-532.5"/>
<text text-anchor="middle" x="921.5" y="-539.5" font-family="Helvetica,sans-Serif" font-size="10.00">AstNodeTagged</text>
</a>
</g>
</g>
<!-- Node11&#45;&gt;Node14 -->
<g id="edge35" class="edge">
<title>Node11&#45;&gt;Node14</title>
<path fill="none" stroke="#9a32cd" stroke-dasharray="5,2" d="M91.77,-684.01C222.23,-679.88 687.47,-661.6 824,-608 858.57,-594.43 893.03,-566.53 909.87,-551.73"/>
<polygon fill="#9a32cd" stroke="#9a32cd" points="91.46,-680.52 81.57,-684.33 91.67,-687.52 91.46,-680.52"/>
<text text-anchor="middle" x="492" y="-668" font-family="Helvetica,sans-Serif" font-size="10.00"> DEBUG_REPO</text>
</g>
<!-- Node11&#45;&gt;Node16 -->
<g id="edge19" class="edge">
<title>Node11&#45;&gt;Node16</title>
<path fill="none" stroke="#9a32cd" stroke-dasharray="5,2" d="M61.98,-665.31C70.1,-634.43 90.29,-575.07 131,-545 175.74,-511.96 200.9,-538.52 254,-522 262.36,-519.4 263.7,-516.79 272,-514 285.97,-509.31 301.66,-505.34 315.49,-502.26"/>
<polygon fill="#9a32cd" stroke="#9a32cd" points="58.52,-664.74 59.52,-675.29 65.31,-666.41 58.52,-664.74"/>
<text text-anchor="middle" x="192.5" y="-548" font-family="Helvetica,sans-Serif" font-size="10.00"> DEBUG_REPO</text>
</g>
<!-- Node11&#45;&gt;Node24 -->
<g id="edge28" class="edge">
<title>Node11&#45;&gt;Node24</title>
<path fill="none" stroke="#9a32cd" stroke-dasharray="5,2" d="M80.85,-670.21C94.82,-662.24 113.25,-653.2 131,-649 204.52,-631.61 295.59,-639.68 334.25,-644.41"/>
<polygon fill="#9a32cd" stroke="#9a32cd" points="78.78,-667.37 71.96,-675.48 82.35,-673.39 78.78,-667.37"/>
<text text-anchor="middle" x="192.5" y="-663" font-family="Helvetica,sans-Serif" font-size="10.00"> preoperSupress</text>
<text text-anchor="middle" x="192.5" y="-652" font-family="Helvetica,sans-Serif" font-size="10.00">toInline</text>
</g>
<!-- Node38 -->
<g id="node36" class="node">
<title>Node38</title>
<g id="a_node36"><a xlink:href="classframe_1_1_level_stack.html" target="_top" xlink:title="レベル付きスタックのクラス。">
<polygon fill="white" stroke="black" points="321.5,-85.5 321.5,-104.5 386.5,-104.5 386.5,-85.5 321.5,-85.5"/>
<text text-anchor="middle" x="354" y="-92.5" font-family="Helvetica,sans-Serif" font-size="10.00">LevelStack</text>
</a>
</g>
</g>
<!-- Node11&#45;&gt;Node38 -->
<g id="edge59" class="edge">
<title>Node11&#45;&gt;Node38</title>
<path fill="none" stroke="#9a32cd" stroke-dasharray="5,2" d="M64.17,-665.7C75.68,-631.76 99.32,-559.03 113,-496 119,-468.36 111.35,-390.35 131,-370 169.57,-330.05 216.27,-388.75 254,-348 281.16,-318.67 254.06,-204.73 272,-169 286.53,-140.06 317.48,-116.93 336.64,-104.65"/>
<polygon fill="#9a32cd" stroke="#9a32cd" points="60.82,-664.7 60.89,-675.29 67.44,-666.96 60.82,-664.7"/>
<text text-anchor="middle" x="192.5" y="-384" font-family="Helvetica,sans-Serif" font-size="10.00"> DEBUG_ASSERT</text>
<text text-anchor="middle" x="192.5" y="-373" font-family="Helvetica,sans-Serif" font-size="10.00">DEBUG_POP</text>
</g>
<!-- Node12 -->
<g id="node12" class="node">
<title>Node12</title>
<g id="a_node12"><a xlink:title=" ">
<polygon fill="white" stroke="#bfbfbf" points="42,-298.5 42,-317.5 71,-317.5 71,-298.5 42,-298.5"/>
<text text-anchor="middle" x="56.5" y="-305.5" font-family="Helvetica,sans-Serif" font-size="10.00">int</text>
</a>
</g>
</g>
<!-- Node12&#45;&gt;Node1 -->
<g id="edge11" class="edge">
<title>Node12&#45;&gt;Node1</title>
<path fill="none" stroke="#9a32cd" stroke-dasharray="5,2" d="M64.95,-289.14C75.65,-264.72 97.81,-222.84 131,-202 268.18,-115.85 329.01,-145 491,-145 491,-145 491,-145 1167.5,-145 1330.14,-145 1363.42,-805.67 1367.12,-893.42"/>
<polygon fill="#9a32cd" stroke="#9a32cd" points="61.7,-287.85 61.07,-298.42 68.16,-290.55 61.7,-287.85"/>
<text text-anchor="middle" x="776" y="-203" font-family="Helvetica,sans-Serif" font-size="10.00"> IDX_FLEN</text>
<text text-anchor="middle" x="776" y="-192" font-family="Helvetica,sans-Serif" font-size="10.00">IDX_FPAR</text>
<text text-anchor="middle" x="776" y="-181" font-family="Helvetica,sans-Serif" font-size="10.00">INIT_IMMED_VALUE</text>
<text text-anchor="middle" x="776" y="-170" font-family="Helvetica,sans-Serif" font-size="10.00">LEN_HEADER</text>
<text text-anchor="middle" x="776" y="-159" font-family="Helvetica,sans-Serif" font-size="10.00">UNDEF</text>
<text text-anchor="middle" x="776" y="-148" font-family="Helvetica,sans-Serif" font-size="10.00">_INIT_FLEN_</text>
</g>
<!-- Node12&#45;&gt;Node13 -->
<g id="edge45" class="edge">
<title>Node12&#45;&gt;Node13</title>
<path fill="none" stroke="#9a32cd" stroke-dasharray="5,2" d="M81.1,-299.52C119.04,-287.31 195.27,-268.65 254,-292 264.23,-296.07 262.08,-304.25 272,-309 352.67,-347.65 1001.18,-415.3 1139.58,-429.38"/>
<polygon fill="#9a32cd" stroke="#9a32cd" points="79.83,-296.26 71.46,-302.75 82.06,-302.89 79.83,-296.26"/>
<text text-anchor="middle" x="629" y="-385" font-family="Helvetica,sans-Serif" font-size="10.00"> rootRID</text>
</g>
<!-- Node12&#45;&gt;Node16 -->
<g id="edge18" class="edge">
<title>Node12&#45;&gt;Node16</title>
<path fill="none" stroke="#9a32cd" stroke-dasharray="5,2" d="M68.63,-326.22C81.46,-345.88 104.27,-376.92 131,-396 178.63,-430 208.58,-406.1 254,-443 265.48,-452.33 260.17,-462.12 272,-471 284.55,-480.42 300.76,-486.16 315.38,-489.65"/>
<polygon fill="#9a32cd" stroke="#9a32cd" points="71.46,-324.16 63.15,-317.59 65.55,-327.91 71.46,-324.16"/>
<text text-anchor="middle" x="192.5" y="-457" font-family="Helvetica,sans-Serif" font-size="10.00"> BITMASK_PRINT_WIDTH</text>
<text text-anchor="middle" x="192.5" y="-446" font-family="Helvetica,sans-Serif" font-size="10.00">UNDEF</text>
</g>
<!-- Node12&#45;&gt;Node24 -->
<g id="edge27" class="edge">
<title>Node12&#45;&gt;Node24</title>
<path fill="none" stroke="#9a32cd" stroke-dasharray="5,2" d="M61.1,-327.54C68.32,-361.25 87.74,-430.41 131,-469 173.89,-507.27 216.82,-465.15 254,-509 288.59,-549.8 235.72,-588.69 272,-628 287.77,-645.09 315.74,-648.2 334.33,-648.15"/>
<polygon fill="#9a32cd" stroke="#9a32cd" points="64.5,-326.68 59.1,-317.57 57.64,-328.06 64.5,-326.68"/>
<text text-anchor="middle" x="192.5" y="-512" font-family="Helvetica,sans-Serif" font-size="10.00"> pref</text>
</g>
<!-- Node29 -->
<g id="node27" class="node">
<title>Node29</title>
<g id="a_node27"><a xlink:href="classmachine_1_1_call.html" target="_top" xlink:title=" ">
<polygon fill="white" stroke="black" points="612,-402.5 612,-421.5 646,-421.5 646,-402.5 612,-402.5"/>
<text text-anchor="middle" x="629" y="-409.5" font-family="Helvetica,sans-Serif" font-size="10.00">Call</text>
</a>
</g>
</g>
<!-- Node12&#45;&gt;Node29 -->
<g id="edge41" class="edge">
<title>Node12&#45;&gt;Node29</title>
<path fill="none" stroke="#9a32cd" stroke-dasharray="5,2" d="M80.9,-312.85C132.24,-323.54 250.52,-348.36 254,-351 267.61,-361.34 257.7,-375.63 272,-385 328.91,-422.27 549.95,-415.48 611.82,-412.78"/>
<polygon fill="#9a32cd" stroke="#9a32cd" points="81.53,-309.41 71.02,-310.8 80.1,-316.26 81.53,-309.41"/>
<text text-anchor="middle" x="354" y="-461" font-family="Helvetica,sans-Serif" font-size="10.00"> UNDEF</text>
<text text-anchor="middle" x="354" y="-450" font-family="Helvetica,sans-Serif" font-size="10.00">aid</text>
<text text-anchor="middle" x="354" y="-439" font-family="Helvetica,sans-Serif" font-size="10.00">fp</text>
<text text-anchor="middle" x="354" y="-428" font-family="Helvetica,sans-Serif" font-size="10.00">fpLast</text>
<text text-anchor="middle" x="354" y="-417" font-family="Helvetica,sans-Serif" font-size="10.00">rid</text>
</g>
<!-- Node34 -->
<g id="node32" class="node">
<title>Node34</title>
<g id="a_node32"><a xlink:href="classmachine_1_1_id_mask.html" target="_top" xlink:title="@IDのマスク">
<polygon fill="white" stroke="black" points="604.5,-242.5 604.5,-261.5 653.5,-261.5 653.5,-242.5 604.5,-242.5"/>
<text text-anchor="middle" x="629" y="-249.5" font-family="Helvetica,sans-Serif" font-size="10.00">IdMask</text>
</a>
</g>
</g>
<!-- Node12&#45;&gt;Node34 -->
<g id="edge48" class="edge">
<title>Node12&#45;&gt;Node34</title>
<path fill="none" stroke="#9a32cd" stroke-dasharray="5,2" d="M79.16,-292.34C116.35,-266.59 195.74,-216.5 272,-200 395.93,-173.19 547.17,-221.6 604.48,-242.79"/>
<polygon fill="#9a32cd" stroke="#9a32cd" points="76.81,-289.72 70.64,-298.33 80.83,-295.44 76.81,-289.72"/>
<text text-anchor="middle" x="354" y="-225" font-family="Helvetica,sans-Serif" font-size="10.00"> OUTPUT_MIN_BIT_WIDTH</text>
<text text-anchor="middle" x="354" y="-214" font-family="Helvetica,sans-Serif" font-size="10.00">maxState</text>
<text text-anchor="middle" x="354" y="-203" font-family="Helvetica,sans-Serif" font-size="10.00">numStates</text>
</g>
<!-- Node13&#45;&gt;Node1 -->
<g id="edge12" class="edge">
<title>Node13&#45;&gt;Node1</title>
<path fill="none" stroke="#9a32cd" stroke-dasharray="5,2" d="M1175.64,-451.18C1209.5,-530.91 1338.5,-834.71 1363.35,-893.22"/>
<polygon fill="#9a32cd" stroke="#9a32cd" points="1178.81,-449.67 1171.68,-441.84 1172.36,-452.41 1178.81,-449.67"/>
<text text-anchor="middle" x="1288" y="-754" font-family="Helvetica,sans-Serif" font-size="10.00"> gRefList</text>
</g>
<!-- Node14&#45;&gt;Node13 -->
<g id="edge13" class="edge">
<title>Node14&#45;&gt;Node13</title>
<path fill="none" stroke="midnightblue" d="M952.96,-528.21C1002.92,-505.59 1101.05,-461.18 1144.24,-441.63"/>
<polygon fill="midnightblue" stroke="midnightblue" points="951.31,-525.12 943.64,-532.43 954.19,-531.5 951.31,-525.12"/>
</g>
<!-- Node15 -->
<g id="node15" class="node">
<title>Node15</title>
<g id="a_node15"><a xlink:href="classast_1_1_ast_node.html" target="_top" xlink:title="タグなしの順アクセスの子供をもてる抽象構文木のノードのクラス。">
<polygon fill="white" stroke="black" points="601.5,-515.5 601.5,-534.5 656.5,-534.5 656.5,-515.5 601.5,-515.5"/>
<text text-anchor="middle" x="629" y="-522.5" font-family="Helvetica,sans-Serif" font-size="10.00">AstNode</text>
</a>
</g>
</g>
<!-- Node15&#45;&gt;Node14 -->
<g id="edge14" class="edge">
<title>Node15&#45;&gt;Node14</title>
<path fill="none" stroke="midnightblue" d="M666.71,-522.48C720.73,-522.95 821.39,-528.76 878.36,-534.61"/>
<polygon fill="midnightblue" stroke="midnightblue" points="666.56,-518.98 656.55,-522.46 666.54,-525.98 666.56,-518.98"/>
</g>
<!-- Node15&#45;&gt;Node14 -->
<g id="edge31" class="edge">
<title>Node15&#45;&gt;Node14</title>
<path fill="none" stroke="midnightblue" d="M666.71,-531.82C720.73,-537.67 821.39,-543.64 878.36,-544.46"/>
<polygon fill="midnightblue" stroke="midnightblue" points="666.88,-528.31 656.55,-530.65 666.09,-535.27 666.88,-528.31"/>
</g>
<!-- Node16&#45;&gt;Node15 -->
<g id="edge15" class="edge">
<title>Node16&#45;&gt;Node15</title>
<path fill="none" stroke="midnightblue" d="M402.63,-500.23C460.29,-506.57 555.35,-517.02 601.38,-522.07"/>
<polygon fill="midnightblue" stroke="midnightblue" points="403,-496.75 392.67,-499.14 402.23,-503.71 403,-496.75"/>
</g>
<!-- Node18 -->
<g id="node17" class="node">
<title>Node18</title>
<g id="a_node17"><a xlink:title=" ">
<polygon fill="white" stroke="#bfbfbf" points="20,-175.5 20,-194.5 93,-194.5 93,-175.5 20,-175.5"/>
<text text-anchor="middle" x="56.5" y="-182.5" font-family="Helvetica,sans-Serif" font-size="10.00">static Report</text>
</a>
</g>
</g>
<!-- Node18&#45;&gt;Node16 -->
<g id="edge17" class="edge">
<title>Node18&#45;&gt;Node16</title>
<path fill="none" stroke="#9a32cd" stroke-dasharray="5,2" d="M88.02,-199C132.74,-221.28 214.97,-269.29 254,-337 284.01,-389.06 232.92,-425.36 272,-471 282.68,-483.48 299.52,-489.63 315.09,-492.61"/>
<polygon fill="#9a32cd" stroke="#9a32cd" points="89.34,-195.75 78.82,-194.52 86.28,-202.05 89.34,-195.75"/>
<text text-anchor="middle" x="192.5" y="-340" font-family="Helvetica,sans-Serif" font-size="10.00"> repo</text>
</g>
<!-- Node18&#45;&gt;Node38 -->
<g id="edge56" class="edge">
<title>Node18&#45;&gt;Node38</title>
<path fill="none" stroke="#9a32cd" stroke-dasharray="5,2" d="M74.29,-168.23C88.24,-155.34 109.28,-138.22 131,-129 164.74,-114.68 268.65,-103.05 321.47,-97.89"/>
<polygon fill="#9a32cd" stroke="#9a32cd" points="71.76,-165.81 66.93,-175.24 76.59,-170.88 71.76,-165.81"/>
<text text-anchor="middle" x="192.5" y="-132" font-family="Helvetica,sans-Serif" font-size="10.00"> repo</text>
</g>
<!-- Node20 -->
<g id="node18" class="node">
<title>Node20</title>
<g id="a_node18"><a xlink:href="interfaceformat_1_1_x_formattable_1_1_navigatable.html" target="_top" xlink:title="木構造の分岐ノードとして清書可能なオブジェクトのクラス">
<polygon fill="white" stroke="black" points="289,-599.5 289,-618.5 419,-618.5 419,-599.5 289,-599.5"/>
<text text-anchor="middle" x="354" y="-606.5" font-family="Helvetica,sans-Serif" font-size="10.00">XFormattable.Navigatable</text>
</a>
</g>
</g>
<!-- Node20&#45;&gt;Node15 -->
<g id="edge20" class="edge">
<title>Node20&#45;&gt;Node15</title>
<path fill="none" stroke="midnightblue" d="M427.77,-597.68C467.95,-590.41 513.06,-580.24 530,-569 541.41,-561.43 536.62,-551.62 548,-544 563.78,-533.44 584.75,-528.72 601.27,-526.63"/>
<polygon fill="midnightblue" stroke="midnightblue" points="426.92,-594.28 417.68,-599.47 428.14,-601.17 426.92,-594.28"/>
</g>
<!-- Node25 -->
<g id="node23" class="node">
<title>Node25</title>
<g id="a_node23"><a xlink:href="interfaceformat_1_1_x_formattable_1_1_field_navigatable.html" target="_top" xlink:title="タグ付きノードに対応する清書対象のクラス。">
<polygon fill="white" stroke="black" points="553.5,-553.5 553.5,-572.5 704.5,-572.5 704.5,-553.5 553.5,-553.5"/>
<text text-anchor="middle" x="629" y="-560.5" font-family="Helvetica,sans-Serif" font-size="10.00">XFormattable.FieldNavigatable</text>
</a>
</g>
</g>
<!-- Node20&#45;&gt;Node25 -->
<g id="edge30" class="edge">
<title>Node20&#45;&gt;Node25</title>
<path fill="none" stroke="midnightblue" d="M429.28,-611.86C461.14,-610.87 498.25,-606.68 530,-595 539.26,-591.59 539.03,-586.11 548,-582 556.31,-578.2 565.46,-575.11 574.52,-572.61"/>
<polygon fill="midnightblue" stroke="midnightblue" points="429.06,-608.36 419.14,-612.07 429.21,-615.36 429.06,-608.36"/>
</g>
<!-- Node21 -->
<g id="node19" class="node">
<title>Node21</title>
<g id="a_node19"><a xlink:href="interfaceformat_1_1_x_formattable.html" target="_top" xlink:title="入れ子フォーマット出力可能なオブジェクトのインタフェース。">
<polygon fill="white" stroke="black" points="19,-467.5 19,-486.5 94,-486.5 94,-467.5 19,-467.5"/>
<text text-anchor="middle" x="56.5" y="-474.5" font-family="Helvetica,sans-Serif" font-size="10.00">XFormattable</text>
</a>
</g>
</g>
<!-- Node21&#45;&gt;Node20 -->
<g id="edge21" class="edge">
<title>Node21&#45;&gt;Node20</title>
<path fill="none" stroke="midnightblue" d="M62.59,-496.37C71.26,-525.01 91.89,-577.77 131,-601 186.71,-634.08 264.91,-627.19 312.09,-618.54"/>
<polygon fill="midnightblue" stroke="midnightblue" points="65.94,-495.35 59.84,-486.68 59.2,-497.26 65.94,-495.35"/>
</g>
<!-- Node22 -->
<g id="node20" class="node">
<title>Node22</title>
<g id="a_node20"><a xlink:href="interfaceformat_1_1_x_formattable_1_1_typed_formattable.html" target="_top" xlink:title="ノードの型情報をもつ書式出力可能なオブジェクトのインタフェース．">
<polygon fill="white" stroke="black" points="276,-523.5 276,-542.5 432,-542.5 432,-523.5 276,-523.5"/>
<text text-anchor="middle" x="354" y="-530.5" font-family="Helvetica,sans-Serif" font-size="10.00">XFormattable.TypedFormattable</text>
</a>
</g>
</g>
<!-- Node21&#45;&gt;Node22 -->
<g id="edge23" class="edge">
<title>Node21&#45;&gt;Node22</title>
<path fill="none" stroke="midnightblue" d="M104.49,-470.08C146.24,-466.22 207.65,-466.34 254,-491 265.46,-497.1 261.06,-507.01 272,-514 278.09,-517.89 284.88,-520.98 291.88,-523.45"/>
<polygon fill="midnightblue" stroke="midnightblue" points="103.91,-466.62 94.33,-471.13 104.63,-473.58 103.91,-466.62"/>
</g>
<!-- Node30 -->
<g id="node28" class="node">
<title>Node30</title>
<g id="a_node28"><a xlink:href="interfaceformat_1_1_x_formattable_1_1_custom_formattable.html" target="_top" xlink:title="カスタム清書出力器をもつオブジェクトのクラス．">
<polygon fill="white" stroke="black" points="272,-356.5 272,-375.5 436,-375.5 436,-356.5 272,-356.5"/>
<text text-anchor="middle" x="354" y="-363.5" font-family="Helvetica,sans-Serif" font-size="10.00">XFormattable.CustomFormattable</text>
</a>
</g>
</g>
<!-- Node21&#45;&gt;Node30 -->
<g id="edge40" class="edge">
<title>Node21&#45;&gt;Node30</title>
<path fill="none" stroke="midnightblue" d="M74.96,-460.22C89.02,-447.62 109.86,-430.88 131,-421 181.79,-397.25 199.61,-406.6 254,-393 275.78,-387.55 300.1,-380.93 319.19,-375.6"/>
<polygon fill="midnightblue" stroke="midnightblue" points="72.49,-457.73 67.51,-467.08 77.24,-462.88 72.49,-457.73"/>
</g>
<!-- Node22&#45;&gt;Node15 -->
<g id="edge22" class="edge">
<title>Node22&#45;&gt;Node15</title>
<path fill="none" stroke="midnightblue" d="M442.28,-530.44C497.42,-528.83 564.94,-526.85 601.47,-525.78"/>
<polygon fill="midnightblue" stroke="midnightblue" points="442.03,-526.95 432.14,-530.74 442.23,-533.95 442.03,-526.95"/>
</g>
<!-- Node23 -->
<g id="node21" class="node">
<title>Node23</title>
<g id="a_node21"><a xlink:title=" ">
<polygon fill="white" stroke="#bfbfbf" points="328,-561.5 328,-580.5 380,-580.5 380,-561.5 328,-561.5"/>
<text text-anchor="middle" x="354" y="-568.5" font-family="Helvetica,sans-Serif" font-size="10.00">Boolean</text>
</a>
</g>
</g>
<!-- Node23&#45;&gt;Node15 -->
<g id="edge24" class="edge">
<title>Node23&#45;&gt;Node15</title>
<path fill="none" stroke="#9a32cd" stroke-dasharray="5,2" d="M390.23,-565.06C445.59,-555.74 551.7,-537.86 601.26,-529.5"/>
<polygon fill="#9a32cd" stroke="#9a32cd" points="389.47,-561.64 380.19,-566.75 390.64,-568.54 389.47,-561.64"/>
<text text-anchor="middle" x="492" y="-557" font-family="Helvetica,sans-Serif" font-size="10.00"> DEBUG_CHILD</text>
</g>
<!-- Node24&#45;&gt;Node15 -->
<g id="edge25" class="edge">
<title>Node24&#45;&gt;Node15</title>
<path fill="none" stroke="#9a32cd" stroke-dasharray="5,2" d="M383.87,-641.02C399.42,-637.6 418.88,-633 436,-628 478.5,-615.59 498.66,-626.28 530,-595 547.01,-578.02 530.13,-560.07 548,-544 562.44,-531.02 584.11,-526.47 601.26,-525.05"/>
<polygon fill="#9a32cd" stroke="#9a32cd" points="382.85,-637.66 373.81,-643.19 384.32,-644.5 382.85,-637.66"/>
<text text-anchor="middle" x="492" y="-627" font-family="Helvetica,sans-Serif" font-size="10.00"> sty</text>
</g>
<!-- Node25&#45;&gt;Node13 -->
<g id="edge37" class="edge">
<title>Node25&#45;&gt;Node13</title>
<path fill="none" stroke="midnightblue" d="M704.51,-548.27C706.43,-546.96 708.27,-545.54 710,-544 727.35,-528.6 709.97,-509.6 728,-495 760.27,-468.85 1050.87,-441.87 1139.77,-434.17"/>
<polygon fill="midnightblue" stroke="midnightblue" points="702.58,-545.34 695.63,-553.34 706.05,-551.42 702.58,-545.34"/>
</g>
<!-- Node25&#45;&gt;Node14 -->
<g id="edge29" class="edge">
<title>Node25&#45;&gt;Node14</title>
<path fill="none" stroke="midnightblue" d="M696.18,-552.45C752.12,-546.86 830.55,-541.47 878.32,-540.12"/>
<polygon fill="midnightblue" stroke="midnightblue" points="695.6,-548.99 686.01,-553.49 696.32,-555.95 695.6,-548.99"/>
</g>
<!-- Node25&#45;&gt;Node14 -->
<g id="edge32" class="edge">
<title>Node25&#45;&gt;Node14</title>
<path fill="none" stroke="midnightblue" d="M715.01,-563.06C768.69,-560.21 835.71,-554.94 878.32,-549.97"/>
<polygon fill="midnightblue" stroke="midnightblue" points="714.62,-559.58 704.81,-563.58 714.98,-566.57 714.62,-559.58"/>
</g>
<!-- Node26 -->
<g id="node24" class="node">
<title>Node26</title>
<g id="a_node24"><a xlink:title=" ">
<polygon fill="white" stroke="#bfbfbf" points="591,-591.5 591,-610.5 667,-610.5 667,-591.5 591,-591.5"/>
<text text-anchor="middle" x="629" y="-598.5" font-family="Helvetica,sans-Serif" font-size="10.00">List&lt; String &gt;</text>
</a>
</g>
</g>
<!-- Node26&#45;&gt;Node14 -->
<g id="edge33" class="edge">
<title>Node26&#45;&gt;Node14</title>
<path fill="none" stroke="#9a32cd" stroke-dasharray="5,2" d="M677.41,-597.7C717,-594.27 774.72,-587.72 824,-576 849.75,-569.88 878.21,-559.36 897.51,-551.65"/>
<polygon fill="#9a32cd" stroke="#9a32cd" points="676.92,-594.22 667.25,-598.54 677.5,-601.2 676.92,-594.22"/>
<text text-anchor="middle" x="776" y="-596" font-family="Helvetica,sans-Serif" font-size="10.00"> fields</text>
</g>
<!-- Node27 -->
<g id="node25" class="node">
<title>Node27</title>
<g id="a_node25"><a xlink:title=" ">
<polygon fill="white" stroke="#bfbfbf" points="548,-475.5 548,-494.5 710,-494.5 710,-475.5 548,-475.5"/>
<text text-anchor="middle" x="629" y="-482.5" font-family="Helvetica,sans-Serif" font-size="10.00">List&lt; Supplier&lt; XFormattable &gt; &gt;</text>
</a>
</g>
</g>
<!-- Node27&#45;&gt;Node14 -->
<g id="edge34" class="edge">
<title>Node27&#45;&gt;Node14</title>
<path fill="none" stroke="#9a32cd" stroke-dasharray="5,2" d="M711.4,-496.07C746.24,-501.31 787.27,-508.14 824,-516 845.72,-520.65 869.84,-527.15 888.54,-532.49"/>
<polygon fill="#9a32cd" stroke="#9a32cd" points="711.69,-492.57 701.28,-494.57 710.66,-499.5 711.69,-492.57"/>
<text text-anchor="middle" x="776" y="-519" font-family="Helvetica,sans-Serif" font-size="10.00"> getters</text>
</g>
<!-- Node28 -->
<g id="node26" class="node">
<title>Node28</title>
<g id="a_node26"><a xlink:href="interfacemachine_1_1_runnable.html" target="_top" xlink:title="実行可能なプログラムのインタフェース.">
<polygon fill="white" stroke="black" points="892.5,-319.5 892.5,-338.5 950.5,-338.5 950.5,-319.5 892.5,-319.5"/>
<text text-anchor="middle" x="921.5" y="-326.5" font-family="Helvetica,sans-Serif" font-size="10.00">Runnable</text>
</a>
</g>
</g>
<!-- Node28&#45;&gt;Node13 -->
<g id="edge36" class="edge">
<title>Node28&#45;&gt;Node13</title>
<path fill="none" stroke="midnightblue" d="M961.04,-330.34C990.59,-332.56 1031.8,-338.31 1065,-353 1103.56,-370.06 1140.24,-405.31 1156.59,-422.36"/>
<polygon fill="midnightblue" stroke="midnightblue" points="960.93,-326.82 950.72,-329.67 960.47,-333.81 960.93,-326.82"/>
</g>
<!-- Node29&#45;&gt;Node13 -->
<g id="edge38" class="edge">
<title>Node29&#45;&gt;Node13</title>
<path fill="none" stroke="#9a32cd" stroke-dasharray="5,2" d="M656.04,-412.97C746.95,-416.37 1049.66,-427.67 1139.9,-431.04"/>
<polygon fill="#9a32cd" stroke="#9a32cd" points="656.15,-409.47 646.03,-412.6 655.89,-416.47 656.15,-409.47"/>
<text text-anchor="middle" x="921.5" y="-429" font-family="Helvetica,sans-Serif" font-size="10.00"> rootCall</text>
</g>
<!-- Node30&#45;&gt;Node29 -->
<g id="edge39" class="edge">
<title>Node30&#45;&gt;Node29</title>
<path fill="none" stroke="midnightblue" d="M421.46,-377.2C484.68,-387.85 575.38,-403.13 611.88,-409.28"/>
<polygon fill="midnightblue" stroke="midnightblue" points="422.01,-373.74 411.57,-375.53 420.85,-380.64 422.01,-373.74"/>
</g>
<!-- Node30&#45;&gt;Node34 -->
<g id="edge47" class="edge">
<title>Node30&#45;&gt;Node34</title>
<path fill="none" stroke="midnightblue" d="M387.21,-352.55C443.05,-329.23 556.48,-281.87 605.07,-261.58"/>
<polygon fill="midnightblue" stroke="midnightblue" points="385.69,-349.39 377.81,-356.48 388.38,-355.85 385.69,-349.39"/>
</g>
<!-- Node31 -->
<g id="node29" class="node">
<title>Node31</title>
<g id="a_node29"><a xlink:title=" ">
<polygon fill="white" stroke="#bfbfbf" points="842,-281.5 842,-300.5 1001,-300.5 1001,-281.5 842,-281.5"/>
<text text-anchor="middle" x="921.5" y="-288.5" font-family="Helvetica,sans-Serif" font-size="10.00">HashMap&lt; Integer, BlockBase &gt;</text>
</a>
</g>
</g>
<!-- Node31&#45;&gt;Node13 -->
<g id="edge42" class="edge">
<title>Node31&#45;&gt;Node13</title>
<path fill="none" stroke="#9a32cd" stroke-dasharray="5,2" d="M1010.8,-302.87C1029.49,-307.69 1048.53,-314.47 1065,-324 1109.34,-349.65 1145.74,-401.14 1159.54,-422.44"/>
<polygon fill="#9a32cd" stroke="#9a32cd" points="1011.61,-299.47 1001.07,-300.52 1009.97,-306.27 1011.61,-299.47"/>
<text text-anchor="middle" x="1042" y="-327" font-family="Helvetica,sans-Serif" font-size="10.00"> ruleList</text>
</g>
<!-- Node32 -->
<g id="node30" class="node">
<title>Node32</title>
<g id="a_node30"><a xlink:href="classmachine_1_1_program_1_1_global_ref_list.html" target="_top" xlink:title=" ">
<polygon fill="white" stroke="black" points="863.5,-619.5 863.5,-638.5 979.5,-638.5 979.5,-619.5 863.5,-619.5"/>
<text text-anchor="middle" x="921.5" y="-626.5" font-family="Helvetica,sans-Serif" font-size="10.00">Program.GlobalRefList</text>
</a>
</g>
</g>
<!-- Node32&#45;&gt;Node13 -->
<g id="edge43" class="edge">
<title>Node32&#45;&gt;Node13</title>
<path fill="none" stroke="#9a32cd" stroke-dasharray="5,2" d="M942.08,-613.12C990.49,-573.88 1114.64,-473.23 1153.61,-441.64"/>
<polygon fill="#9a32cd" stroke="#9a32cd" points="939.78,-610.48 934.22,-619.5 944.19,-615.92 939.78,-610.48"/>
<text text-anchor="middle" x="1042" y="-552" font-family="Helvetica,sans-Serif" font-size="10.00"> gRefList_</text>
</g>
<!-- Node33 -->
<g id="node31" class="node">
<title>Node33</title>
<g id="a_node31"><a xlink:title=" ">
<polygon fill="white" stroke="#bfbfbf" points="576,-667.5 576,-686.5 682,-686.5 682,-667.5 576,-667.5"/>
<text text-anchor="middle" x="629" y="-674.5" font-family="Helvetica,sans-Serif" font-size="10.00">List&lt; machine.Ref &gt;</text>
</a>
</g>
</g>
<!-- Node33&#45;&gt;Node32 -->
<g id="edge44" class="edge">
<title>Node33&#45;&gt;Node32</title>
<path fill="none" stroke="#9a32cd" stroke-dasharray="5,2" d="M692.09,-671.25C730.31,-667.23 780.2,-661.13 824,-653 844.88,-649.13 867.97,-643.44 886.33,-638.57"/>
<polygon fill="#9a32cd" stroke="#9a32cd" points="691.72,-667.77 682.14,-672.27 692.44,-674.73 691.72,-667.77"/>
<text text-anchor="middle" x="776" y="-671" font-family="Helvetica,sans-Serif" font-size="10.00"> list_</text>
</g>
<!-- Node34&#45;&gt;Node13 -->
<g id="edge46" class="edge">
<title>Node34&#45;&gt;Node13</title>
<path fill="none" stroke="#9a32cd" stroke-dasharray="5,2" d="M664,-246.85C730.49,-238.07 881.66,-224.47 1001,-261 1085.69,-286.92 1144.16,-389.92 1160.71,-422.24"/>
<polygon fill="#9a32cd" stroke="#9a32cd" points="663.14,-243.44 653.71,-248.26 664.09,-250.37 663.14,-243.44"/>
<text text-anchor="middle" x="921.5" y="-264" font-family="Helvetica,sans-Serif" font-size="10.00"> loopMask_</text>
</g>
<!-- Node35 -->
<g id="node33" class="node">
<title>Node35</title>
<g id="a_node33"><a xlink:title=" ">
<polygon fill="white" stroke="#bfbfbf" points="314,-242.5 314,-261.5 394,-261.5 394,-242.5 314,-242.5"/>
<text text-anchor="middle" x="354" y="-249.5" font-family="Helvetica,sans-Serif" font-size="10.00">List&lt; Integer &gt;</text>
</a>
</g>
</g>
<!-- Node35&#45;&gt;Node34 -->
<g id="edge49" class="edge">
<title>Node35&#45;&gt;Node34</title>
<path fill="none" stroke="#9a32cd" stroke-dasharray="5,2" d="M404.33,-252C463.39,-252 559.89,-252 604.28,-252"/>
<polygon fill="#9a32cd" stroke="#9a32cd" points="404.11,-248.5 394.11,-252 404.11,-255.5 404.11,-248.5"/>
<text text-anchor="middle" x="492" y="-255" font-family="Helvetica,sans-Serif" font-size="10.00"> idlist</text>
</g>
<!-- Node36 -->
<g id="node34" class="node">
<title>Node36</title>
<g id="a_node34"><a xlink:title=" ">
<polygon fill="white" stroke="#bfbfbf" points="336.5,-280.5 336.5,-299.5 371.5,-299.5 371.5,-280.5 336.5,-280.5"/>
<text text-anchor="middle" x="354" y="-287.5" font-family="Helvetica,sans-Serif" font-size="10.00">long</text>
</a>
</g>
</g>
<!-- Node36&#45;&gt;Node34 -->
<g id="edge50" class="edge">
<title>Node36&#45;&gt;Node34</title>
<path fill="none" stroke="#9a32cd" stroke-dasharray="5,2" d="M382.1,-286.62C416.51,-282.28 477.71,-274.44 530,-267 555.39,-263.39 584.42,-258.9 604.26,-255.78"/>
<polygon fill="#9a32cd" stroke="#9a32cd" points="381.4,-283.18 371.91,-287.9 382.27,-290.13 381.4,-283.18"/>
<text text-anchor="middle" x="492" y="-280" font-family="Helvetica,sans-Serif" font-size="10.00"> MASK_STATE</text>
</g>
<!-- Node37 -->
<g id="node35" class="node">
<title>Node37</title>
<g id="a_node35"><a xlink:href="interfaceutil_1_1_stackable.html" target="_top" xlink:title="レベル付きスタックを実装するための最小限のインタフェース">
<polygon fill="white" stroke="black" points="26.5,-51.5 26.5,-70.5 86.5,-70.5 86.5,-51.5 26.5,-51.5"/>
<text text-anchor="middle" x="56.5" y="-58.5" font-family="Helvetica,sans-Serif" font-size="10.00">Stackable</text>
</a>
</g>
</g>
<!-- Node37&#45;&gt;Node1 -->
<g id="edge53" class="edge">
<title>Node37&#45;&gt;Node1</title>
<path fill="none" stroke="#9a32cd" stroke-dasharray="5,2" d="M96.73,-55.56C153.25,-48.2 260.91,-36 353,-36 353,-36 353,-36 1167.5,-36 1235.58,-36 1268.59,-41.49 1308,-97 1356.49,-165.29 1366.29,-807.24 1367.39,-893.44"/>
<polygon fill="#9a32cd" stroke="#9a32cd" points="96.25,-52.09 86.79,-56.87 97.16,-59.03 96.25,-52.09"/>
<text text-anchor="middle" x="776" y="-72" font-family="Helvetica,sans-Serif" font-size="10.00"> LBS</text>
<text text-anchor="middle" x="776" y="-61" font-family="Helvetica,sans-Serif" font-size="10.00">LDS</text>
<text text-anchor="middle" x="776" y="-50" font-family="Helvetica,sans-Serif" font-size="10.00">LIS</text>
<text text-anchor="middle" x="776" y="-39" font-family="Helvetica,sans-Serif" font-size="10.00">LSS</text>
</g>
<!-- Node37&#45;&gt;Node38 -->
<g id="edge55" class="edge">
<title>Node37&#45;&gt;Node38</title>
<path fill="none" stroke="midnightblue" d="M96.66,-62.31C136.43,-63.99 199.72,-67.61 254,-75 276.59,-78.07 301.76,-83.18 321.08,-87.47"/>
<polygon fill="midnightblue" stroke="midnightblue" points="96.72,-58.81 86.59,-61.91 96.44,-65.81 96.72,-58.81"/>
</g>
<!-- Node37&#45;&gt;Node38 -->
<g id="edge58" class="edge">
<title>Node37&#45;&gt;Node38</title>
<path fill="none" stroke="#9a32cd" stroke-dasharray="5,2" d="M96.98,-67.24C107.98,-68.89 119.94,-70.6 131,-72 198.66,-80.56 278.22,-88.22 321.33,-92.17"/>
<polygon fill="#9a32cd" stroke="#9a32cd" points="97.2,-63.74 86.79,-65.69 96.15,-70.66 97.2,-63.74"/>
<text text-anchor="middle" x="192.5" y="-89" font-family="Helvetica,sans-Serif" font-size="10.00"> VS</text>
</g>
<!-- Node38&#45;&gt;Node1 -->
<g id="edge54" class="edge">
<title>Node38&#45;&gt;Node1</title>
<path fill="none" stroke="#9a32cd" stroke-dasharray="5,2" d="M396.65,-95C450.19,-95 546.02,-95 628,-95 628,-95 628,-95 1167.5,-95 1231.96,-95 1266.55,-81.63 1308,-131 1359.49,-192.32 1366.67,-808.16 1367.42,-893.26"/>
<polygon fill="#9a32cd" stroke="#9a32cd" points="396.53,-91.5 386.53,-95 396.53,-98.5 396.53,-91.5"/>
<text text-anchor="middle" x="921.5" y="-109" font-family="Helvetica,sans-Serif" font-size="10.00"> FP</text>
<text text-anchor="middle" x="921.5" y="-98" font-family="Helvetica,sans-Serif" font-size="10.00">LV</text>
</g>
<!-- Node39 -->
<g id="node37" class="node">
<title>Node39</title>
<g id="a_node37"><a xlink:title=" ">
<polygon fill="white" stroke="#bfbfbf" points="0,-0.5 0,-19.5 113,-19.5 113,-0.5 0,-0.5"/>
<text text-anchor="middle" x="56.5" y="-7.5" font-family="Helvetica,sans-Serif" font-size="10.00">StackBase&lt; Integer &gt;</text>
</a>
</g>
</g>
<!-- Node39&#45;&gt;Node38 -->
<g id="edge57" class="edge">
<title>Node39&#45;&gt;Node38</title>
<path fill="none" stroke="#9a32cd" stroke-dasharray="5,2" d="M123.49,-19.61C162.09,-26.17 211.44,-36.19 254,-50 283.45,-59.56 315.8,-75.34 335.24,-85.44"/>
<polygon fill="#9a32cd" stroke="#9a32cd" points="123.86,-16.12 113.42,-17.93 122.71,-23.02 123.86,-16.12"/>
<text text-anchor="middle" x="192.5" y="-53" font-family="Helvetica,sans-Serif" font-size="10.00"> LS</text>
</g>
</g>
</svg>
