<?xml version="1.0" encoding="UTF-8" standalone="no"?>
<!DOCTYPE svg PUBLIC "-//W3C//DTD SVG 1.1//EN"
 "http://www.w3.org/Graphics/SVG/1.1/DTD/svg11.dtd">
<!-- Generated by graphviz version 2.47.0 (20210316.0004)
 -->
<!-- Title: AstDataReader.GetSystemVar Pages: 1 -->
<svg width="941pt" height="526pt"
 viewBox="0.00 0.00 941.00 525.80" xmlns="http://www.w3.org/2000/svg" xmlns:xlink="http://www.w3.org/1999/xlink">
<g id="graph0" class="graph" transform="scale(1 1) rotate(0) translate(4 521.8)">
<title>AstDataReader.GetSystemVar</title>
<polygon fill="white" stroke="transparent" points="-4,4 -4,-521.8 937,-521.8 937,4 -4,4"/>
<!-- Node1 -->
<g id="node1" class="node">
<title>Node1</title>
<g id="a_node1"><a xlink:title=" ">
<polygon fill="#bfbfbf" stroke="black" points="783,-342.5 783,-361.5 933,-361.5 933,-342.5 783,-342.5"/>
<text text-anchor="middle" x="858" y="-349.5" font-family="Helvetica,sans-Serif" font-size="10.00">AstDataReader.GetSystemVar</text>
</a>
</g>
</g>
<!-- Node2 -->
<g id="node2" class="node">
<title>Node2</title>
<g id="a_node2"><a xlink:href="$classast_1_1_ast_data_reader.html" xlink:title="値の読み出しオブジェクト．">
<polygon fill="white" stroke="black" points="662,-175.5 662,-194.5 746,-194.5 746,-175.5 662,-175.5"/>
<text text-anchor="middle" x="704" y="-182.5" font-family="Helvetica,sans-Serif" font-size="10.00">AstDataReader</text>
</a>
</g>
</g>
<!-- Node2&#45;&gt;Node1 -->
<g id="edge1" class="edge">
<title>Node2&#45;&gt;Node1</title>
<path fill="none" stroke="midnightblue" d="M720.92,-202.49C752.77,-237.48 823.39,-315.07 848.18,-342.31"/>
<polygon fill="midnightblue" stroke="midnightblue" points="723.37,-199.99 714.05,-194.95 718.2,-204.7 723.37,-199.99"/>
</g>
<!-- Node3 -->
<g id="node3" class="node">
<title>Node3</title>
<g id="a_node3"><a xlink:href="$classast_1_1_ast_node.html" xlink:title="タグなしの順アクセスの子供をもてる抽象構文木のノードのクラス。">
<polygon fill="white" stroke="black" points="536,-140.5 536,-159.5 591,-159.5 591,-140.5 536,-140.5"/>
<text text-anchor="middle" x="563.5" y="-147.5" font-family="Helvetica,sans-Serif" font-size="10.00">AstNode</text>
</a>
</g>
</g>
<!-- Node3&#45;&gt;Node2 -->
<g id="edge2" class="edge">
<title>Node3&#45;&gt;Node2</title>
<path fill="none" stroke="midnightblue" d="M601.1,-159.25C620.93,-164.26 645.4,-170.44 665.38,-175.49"/>
<polygon fill="midnightblue" stroke="midnightblue" points="601.76,-155.81 591.2,-156.75 600.04,-162.59 601.76,-155.81"/>
</g>
<!-- Node4 -->
<g id="node4" class="node">
<title>Node4</title>
<g id="a_node4"><a xlink:href="$classast_1_1_ast_node_base.html" xlink:title=" ">
<polygon fill="white" stroke="black" points="273.5,-152.5 273.5,-171.5 350.5,-171.5 350.5,-152.5 273.5,-152.5"/>
<text text-anchor="middle" x="312" y="-159.5" font-family="Helvetica,sans-Serif" font-size="10.00">AstNodeBase</text>
</a>
</g>
</g>
<!-- Node4&#45;&gt;Node3 -->
<g id="edge3" class="edge">
<title>Node4&#45;&gt;Node3</title>
<path fill="none" stroke="midnightblue" d="M360.93,-159.69C412.9,-157.2 494,-153.29 535.72,-151.29"/>
<polygon fill="midnightblue" stroke="midnightblue" points="360.44,-156.21 350.62,-160.19 360.78,-163.21 360.44,-156.21"/>
</g>
<!-- Node5 -->
<g id="node5" class="node">
<title>Node5</title>
<g id="a_node5"><a xlink:title=" ">
<polygon fill="white" stroke="#bfbfbf" points="16.5,-392.5 16.5,-411.5 58.5,-411.5 58.5,-392.5 16.5,-392.5"/>
<text text-anchor="middle" x="37.5" y="-399.5" font-family="Helvetica,sans-Serif" font-size="10.00">String</text>
</a>
</g>
</g>
<!-- Node5&#45;&gt;Node1 -->
<g id="edge22" class="edge">
<title>Node5&#45;&gt;Node1</title>
<path fill="none" stroke="#9a32cd" stroke-dasharray="5,2" d="M44.31,-421.19C51.83,-442.33 67.12,-475.39 93,-491 176.14,-541.14 213.91,-505 311,-505 311,-505 311,-505 705,-505 786.25,-505 838.97,-395.07 853.15,-361.57"/>
<polygon fill="#9a32cd" stroke="#9a32cd" points="47.62,-420.04 41.16,-411.64 40.97,-422.24 47.62,-420.04"/>
<text text-anchor="middle" x="563.5" y="-508" font-family="Helvetica,sans-Serif" font-size="10.00"> sysVar</text>
</g>
<!-- Node5&#45;&gt;Node4 -->
<g id="edge4" class="edge">
<title>Node5&#45;&gt;Node4</title>
<path fill="none" stroke="#9a32cd" stroke-dasharray="5,2" d="M53.76,-385.17C63.96,-374.84 78.18,-362.09 93,-354 142.89,-326.77 175.24,-358.61 216,-319 235.05,-300.49 221.71,-285.55 234,-262 253.06,-225.48 285.65,-188.67 301.62,-171.69"/>
<polygon fill="#9a32cd" stroke="#9a32cd" points="51.16,-382.83 46.8,-392.48 56.23,-387.65 51.16,-382.83"/>
<text text-anchor="middle" x="154.5" y="-368" font-family="Helvetica,sans-Serif" font-size="10.00"> MOD_AST</text>
<text text-anchor="middle" x="154.5" y="-357" font-family="Helvetica,sans-Serif" font-size="10.00">mod_</text>
</g>
<!-- Node15 -->
<g id="node15" class="node">
<title>Node15</title>
<g id="a_node15"><a xlink:href="$classformat_1_1_style.html" xlink:title="ノードの表示スタイルに関するプロパティのクラス.">
<polygon fill="white" stroke="black" points="292.5,-271.5 292.5,-290.5 331.5,-290.5 331.5,-271.5 292.5,-271.5"/>
<text text-anchor="middle" x="312" y="-278.5" font-family="Helvetica,sans-Serif" font-size="10.00">Style</text>
</a>
</g>
</g>
<!-- Node5&#45;&gt;Node15 -->
<g id="edge16" class="edge">
<title>Node5&#45;&gt;Node15</title>
<path fill="none" stroke="#9a32cd" stroke-dasharray="5,2" d="M68.76,-400.69C112.49,-398.38 190.87,-392.6 216,-380 258.16,-358.86 291.94,-311.2 305.07,-290.69"/>
<polygon fill="#9a32cd" stroke="#9a32cd" points="68.51,-397.19 58.7,-401.19 68.86,-404.19 68.51,-397.19"/>
<text text-anchor="middle" x="154.5" y="-479" font-family="Helvetica,sans-Serif" font-size="10.00"> childLPAD</text>
<text text-anchor="middle" x="154.5" y="-468" font-family="Helvetica,sans-Serif" font-size="10.00">childRPAD</text>
<text text-anchor="middle" x="154.5" y="-457" font-family="Helvetica,sans-Serif" font-size="10.00">name</text>
<text text-anchor="middle" x="154.5" y="-446" font-family="Helvetica,sans-Serif" font-size="10.00">operSTR</text>
<text text-anchor="middle" x="154.5" y="-435" font-family="Helvetica,sans-Serif" font-size="10.00">parenLPAD</text>
<text text-anchor="middle" x="154.5" y="-424" font-family="Helvetica,sans-Serif" font-size="10.00">parenLPAR</text>
<text text-anchor="middle" x="154.5" y="-413" font-family="Helvetica,sans-Serif" font-size="10.00">parenRPAD</text>
<text text-anchor="middle" x="154.5" y="-402" font-family="Helvetica,sans-Serif" font-size="10.00">parenRPAR</text>
</g>
<!-- Node6 -->
<g id="node6" class="node">
<title>Node6</title>
<g id="a_node6"><a xlink:title=" ">
<polygon fill="white" stroke="#bfbfbf" points="5,-134.5 5,-153.5 70,-153.5 70,-134.5 5,-134.5"/>
<text text-anchor="middle" x="37.5" y="-141.5" font-family="Helvetica,sans-Serif" font-size="10.00">TraceLevel</text>
</a>
</g>
</g>
<!-- Node6&#45;&gt;Node4 -->
<g id="edge5" class="edge">
<title>Node6&#45;&gt;Node4</title>
<path fill="none" stroke="#9a32cd" stroke-dasharray="5,2" d="M80.19,-141.47C84.51,-141.28 88.84,-141.11 93,-141 147.65,-139.5 161.66,-135.07 216,-141 236.32,-143.22 258.65,-148.03 276.56,-152.49"/>
<polygon fill="#9a32cd" stroke="#9a32cd" points="80,-137.97 70.19,-141.96 80.35,-144.97 80,-137.97"/>
<text text-anchor="middle" x="154.5" y="-144" font-family="Helvetica,sans-Serif" font-size="10.00"> LOG</text>
</g>
<!-- Node7 -->
<g id="node7" class="node">
<title>Node7</title>
<g id="a_node7"><a xlink:title=" ">
<polygon fill="white" stroke="#bfbfbf" points="1,-96.5 1,-115.5 74,-115.5 74,-96.5 1,-96.5"/>
<text text-anchor="middle" x="37.5" y="-103.5" font-family="Helvetica,sans-Serif" font-size="10.00">static Report</text>
</a>
</g>
</g>
<!-- Node7&#45;&gt;Node4 -->
<g id="edge6" class="edge">
<title>Node7&#45;&gt;Node4</title>
<path fill="none" stroke="#9a32cd" stroke-dasharray="5,2" d="M84.14,-100.98C121.62,-98.92 175.03,-100.87 216,-122 226.93,-127.63 223.53,-136.55 234,-143 245.72,-150.22 260.04,-154.7 273.13,-157.48"/>
<polygon fill="#9a32cd" stroke="#9a32cd" points="83.75,-97.49 74.01,-101.65 84.22,-104.48 83.75,-97.49"/>
<text text-anchor="middle" x="154.5" y="-125" font-family="Helvetica,sans-Serif" font-size="10.00"> repo</text>
</g>
<!-- Node8 -->
<g id="node8" class="node">
<title>Node8</title>
<g id="a_node8"><a xlink:title=" ">
<polygon fill="white" stroke="#bfbfbf" points="23,-291.5 23,-310.5 52,-310.5 52,-291.5 23,-291.5"/>
<text text-anchor="middle" x="37.5" y="-298.5" font-family="Helvetica,sans-Serif" font-size="10.00">int</text>
</a>
</g>
</g>
<!-- Node8&#45;&gt;Node4 -->
<g id="edge7" class="edge">
<title>Node8&#45;&gt;Node4</title>
<path fill="none" stroke="#9a32cd" stroke-dasharray="5,2" d="M61.24,-288.32C70.79,-283.49 82.18,-278.34 93,-275 145.86,-258.7 166.6,-280.89 216,-256 256.61,-235.54 290.72,-191.31 304.48,-171.7"/>
<polygon fill="#9a32cd" stroke="#9a32cd" points="59.61,-285.23 52.38,-292.98 62.86,-291.42 59.61,-285.23"/>
<text text-anchor="middle" x="154.5" y="-289" font-family="Helvetica,sans-Serif" font-size="10.00"> BITMASK_PRINT_WIDTH</text>
<text text-anchor="middle" x="154.5" y="-278" font-family="Helvetica,sans-Serif" font-size="10.00">UNDEF</text>
</g>
<!-- Node8&#45;&gt;Node15 -->
<g id="edge17" class="edge">
<title>Node8&#45;&gt;Node15</title>
<path fill="none" stroke="#9a32cd" stroke-dasharray="5,2" d="M62.76,-302.59C97.02,-304.46 161.48,-306.68 216,-301 242.82,-298.21 273.23,-291.09 292.26,-286.15"/>
<polygon fill="#9a32cd" stroke="#9a32cd" points="62.55,-299.07 52.36,-301.97 62.14,-306.05 62.55,-299.07"/>
<text text-anchor="middle" x="154.5" y="-307" font-family="Helvetica,sans-Serif" font-size="10.00"> pref</text>
</g>
<!-- Node9 -->
<g id="node9" class="node">
<title>Node9</title>
<g id="a_node9"><a xlink:href="$interfacetype_1_1_typable.html" xlink:title="抽象ノードがもつ関数型のインタフェース">
<polygon fill="white" stroke="black" points="12.5,-58.5 12.5,-77.5 62.5,-77.5 62.5,-58.5 12.5,-58.5"/>
<text text-anchor="middle" x="37.5" y="-65.5" font-family="Helvetica,sans-Serif" font-size="10.00">Typable</text>
</a>
</g>
</g>
<!-- Node9&#45;&gt;Node4 -->
<g id="edge8" class="edge">
<title>Node9&#45;&gt;Node4</title>
<path fill="none" stroke="#9a32cd" stroke-dasharray="5,2" d="M72.64,-61.02C111.75,-55.12 175.63,-52.17 216,-85 236.94,-102.03 214.36,-124.49 234,-143 244.52,-152.92 259.36,-157.9 273.22,-160.32"/>
<polygon fill="#9a32cd" stroke="#9a32cd" points="71.83,-57.61 62.54,-62.7 72.98,-64.51 71.83,-57.61"/>
<text text-anchor="middle" x="154.5" y="-88" font-family="Helvetica,sans-Serif" font-size="10.00"> typing</text>
</g>
<!-- Node10 -->
<g id="node10" class="node">
<title>Node10</title>
<g id="a_node10"><a xlink:title=" ">
<polygon fill="white" stroke="#bfbfbf" points="12.5,-190.5 12.5,-209.5 62.5,-209.5 62.5,-190.5 12.5,-190.5"/>
<text text-anchor="middle" x="37.5" y="-197.5" font-family="Helvetica,sans-Serif" font-size="10.00">boolean</text>
</a>
</g>
</g>
<!-- Node10&#45;&gt;Node2 -->
<g id="edge21" class="edge">
<title>Node10&#45;&gt;Node2</title>
<path fill="none" stroke="#9a32cd" stroke-dasharray="5,2" d="M72.6,-199.23C184.52,-196.7 540.48,-188.67 661.93,-185.93"/>
<polygon fill="#9a32cd" stroke="#9a32cd" points="72.46,-195.73 62.54,-199.46 72.62,-202.73 72.46,-195.73"/>
<text text-anchor="middle" x="446" y="-194" font-family="Helvetica,sans-Serif" font-size="10.00"> DEBUG_TYPE</text>
</g>
<!-- Node10&#45;&gt;Node4 -->
<g id="edge9" class="edge">
<title>Node10&#45;&gt;Node4</title>
<path fill="none" stroke="#9a32cd" stroke-dasharray="5,2" d="M64.14,-185.87C73.02,-181.62 83.21,-177.45 93,-175 154.8,-159.56 229.37,-158.79 273.34,-160.08"/>
<polygon fill="#9a32cd" stroke="#9a32cd" points="62.45,-182.8 55.09,-190.43 65.6,-189.06 62.45,-182.8"/>
<text text-anchor="middle" x="154.5" y="-178" font-family="Helvetica,sans-Serif" font-size="10.00"> DEBUG_REPO</text>
</g>
<!-- Node10&#45;&gt;Node15 -->
<g id="edge18" class="edge">
<title>Node10&#45;&gt;Node15</title>
<path fill="none" stroke="#9a32cd" stroke-dasharray="5,2" d="M72.82,-207C79.51,-208.35 86.47,-209.73 93,-211 147.59,-221.61 163.25,-216.39 216,-234 245.15,-243.73 276.7,-260.77 295.11,-271.44"/>
<polygon fill="#9a32cd" stroke="#9a32cd" points="73.13,-203.5 62.63,-204.95 71.74,-210.36 73.13,-203.5"/>
<text text-anchor="middle" x="154.5" y="-248" font-family="Helvetica,sans-Serif" font-size="10.00"> preoperSupress</text>
<text text-anchor="middle" x="154.5" y="-237" font-family="Helvetica,sans-Serif" font-size="10.00">toInline</text>
</g>
<!-- Node11 -->
<g id="node11" class="node">
<title>Node11</title>
<g id="a_node11"><a xlink:href="$interfaceformat_1_1_x_formattable_1_1_navigatable.html" xlink:title="木構造の分岐ノードとして清書可能なオブジェクトのクラス">
<polygon fill="white" stroke="black" points="247,-114.5 247,-133.5 377,-133.5 377,-114.5 247,-114.5"/>
<text text-anchor="middle" x="312" y="-121.5" font-family="Helvetica,sans-Serif" font-size="10.00">XFormattable.Navigatable</text>
</a>
</g>
</g>
<!-- Node11&#45;&gt;Node3 -->
<g id="edge10" class="edge">
<title>Node11&#45;&gt;Node3</title>
<path fill="none" stroke="midnightblue" d="M387.4,-131.75C437.48,-136.97 500.56,-143.54 535.7,-147.21"/>
<polygon fill="midnightblue" stroke="midnightblue" points="387.56,-128.25 377.25,-130.7 386.84,-135.21 387.56,-128.25"/>
</g>
<!-- Node12 -->
<g id="node12" class="node">
<title>Node12</title>
<g id="a_node12"><a xlink:href="$interfaceformat_1_1_x_formattable.html" xlink:title="入れ子フォーマット出力可能なオブジェクトのインタフェース。">
<polygon fill="white" stroke="black" points="0,-12.5 0,-31.5 75,-31.5 75,-12.5 0,-12.5"/>
<text text-anchor="middle" x="37.5" y="-19.5" font-family="Helvetica,sans-Serif" font-size="10.00">XFormattable</text>
</a>
</g>
</g>
<!-- Node12&#45;&gt;Node11 -->
<g id="edge11" class="edge">
<title>Node12&#45;&gt;Node11</title>
<path fill="none" stroke="midnightblue" d="M85.12,-24.84C130.94,-28.55 196.73,-36.6 216,-53 234.62,-68.85 215.94,-88.51 234,-105 238.17,-108.81 242.98,-111.88 248.12,-114.36"/>
<polygon fill="midnightblue" stroke="midnightblue" points="85.33,-21.35 75.09,-24.07 84.79,-28.33 85.33,-21.35"/>
</g>
<!-- Node13 -->
<g id="node13" class="node">
<title>Node13</title>
<g id="a_node13"><a xlink:href="$interfaceformat_1_1_x_formattable_1_1_typed_formattable.html" xlink:title="ノードの型情報をもつ書式出力可能なオブジェクトのインタフェース．">
<polygon fill="white" stroke="black" points="234,-76.5 234,-95.5 390,-95.5 390,-76.5 234,-76.5"/>
<text text-anchor="middle" x="312" y="-83.5" font-family="Helvetica,sans-Serif" font-size="10.00">XFormattable.TypedFormattable</text>
</a>
</g>
</g>
<!-- Node12&#45;&gt;Node13 -->
<g id="edge13" class="edge">
<title>Node12&#45;&gt;Node13</title>
<path fill="none" stroke="midnightblue" d="M85.06,-11.03C123.42,-4.74 177.56,-2.48 216,-28 231.9,-38.56 219.28,-54.85 234,-67 238.67,-70.86 244.01,-73.95 249.65,-76.43"/>
<polygon fill="midnightblue" stroke="midnightblue" points="84.41,-7.59 75.18,-12.79 85.64,-14.48 84.41,-7.59"/>
</g>
<!-- Node13&#45;&gt;Node3 -->
<g id="edge12" class="edge">
<title>Node13&#45;&gt;Node3</title>
<path fill="none" stroke="midnightblue" d="M361.77,-97.97C371.14,-100.29 380.88,-102.71 390,-105 431.82,-115.5 442.28,-118.1 484,-129 501.33,-133.53 520.79,-138.74 535.99,-142.83"/>
<polygon fill="midnightblue" stroke="midnightblue" points="362.34,-94.51 351.79,-95.51 360.66,-101.3 362.34,-94.51"/>
</g>
<!-- Node14 -->
<g id="node14" class="node">
<title>Node14</title>
<g id="a_node14"><a xlink:title=" ">
<polygon fill="white" stroke="#bfbfbf" points="286,-38.5 286,-57.5 338,-57.5 338,-38.5 286,-38.5"/>
<text text-anchor="middle" x="312" y="-45.5" font-family="Helvetica,sans-Serif" font-size="10.00">Boolean</text>
</a>
</g>
</g>
<!-- Node14&#45;&gt;Node3 -->
<g id="edge14" class="edge">
<title>Node14&#45;&gt;Node3</title>
<path fill="none" stroke="#9a32cd" stroke-dasharray="5,2" d="M347.99,-53.46C383.53,-59.89 439.52,-72.53 484,-94 510.23,-106.66 537.07,-127.98 551.57,-140.34"/>
<polygon fill="#9a32cd" stroke="#9a32cd" points="348.55,-50 338.09,-51.73 347.34,-56.9 348.55,-50"/>
<text text-anchor="middle" x="446" y="-97" font-family="Helvetica,sans-Serif" font-size="10.00"> DEBUG_CHILD</text>
</g>
<!-- Node15&#45;&gt;Node3 -->
<g id="edge15" class="edge">
<title>Node15&#45;&gt;Node3</title>
<path fill="none" stroke="#9a32cd" stroke-dasharray="5,2" d="M341.61,-273.07C376.65,-262.67 437.1,-242.48 484,-215 511.48,-198.9 539.13,-173.31 553.12,-159.53"/>
<polygon fill="#9a32cd" stroke="#9a32cd" points="340.23,-269.83 331.6,-275.98 342.18,-276.55 340.23,-269.83"/>
<text text-anchor="middle" x="446" y="-252" font-family="Helvetica,sans-Serif" font-size="10.00"> sty</text>
</g>
<!-- Node16 -->
<g id="node16" class="node">
<title>Node16</title>
<g id="a_node16"><a xlink:href="$interfacecmd_1_1_generatable_1_1_evaluatable.html" xlink:title="評価して値を返すノードのインタフェース．必ずしもコードを生成しなくても良い．">
<polygon fill="white" stroke="black" points="502,-45.5 502,-64.5 625,-64.5 625,-45.5 502,-45.5"/>
<text text-anchor="middle" x="563.5" y="-52.5" font-family="Helvetica,sans-Serif" font-size="10.00">Generatable.Evaluatable</text>
</a>
</g>
</g>
<!-- Node16&#45;&gt;Node2 -->
<g id="edge19" class="edge">
<title>Node16&#45;&gt;Node2</title>
<path fill="none" stroke="midnightblue" d="M582.41,-71.81C611.85,-99.44 669.52,-153.57 692.85,-175.47"/>
<polygon fill="midnightblue" stroke="midnightblue" points="584.6,-69.06 574.91,-64.77 579.81,-74.17 584.6,-69.06"/>
</g>
<!-- Node17 -->
<g id="node17" class="node">
<title>Node17</title>
<g id="a_node17"><a xlink:href="$interfacecmd_1_1_generatable.html" xlink:title="変換してコードを生成できるノードのインタフェース.">
<polygon fill="white" stroke="black" points="277.5,-0.5 277.5,-19.5 346.5,-19.5 346.5,-0.5 277.5,-0.5"/>
<text text-anchor="middle" x="312" y="-7.5" font-family="Helvetica,sans-Serif" font-size="10.00">Generatable</text>
</a>
</g>
</g>
<!-- Node17&#45;&gt;Node16 -->
<g id="edge20" class="edge">
<title>Node17&#45;&gt;Node16</title>
<path fill="none" stroke="midnightblue" d="M356.81,-10.97C391.66,-12.48 441.45,-16.32 484,-26 503.98,-30.54 525.76,-38.88 541.3,-45.45"/>
<polygon fill="midnightblue" stroke="midnightblue" points="356.63,-7.46 346.51,-10.57 356.36,-14.45 356.63,-7.46"/>
</g>
</g>
</svg>
