<?xml version="1.0" encoding="UTF-8" standalone="no"?>
<!DOCTYPE svg PUBLIC "-//W3C//DTD SVG 1.1//EN"
 "http://www.w3.org/Graphics/SVG/1.1/DTD/svg11.dtd">
<!-- Generated by graphviz version 2.47.1 (20210417.1919)
 -->
<!-- Title: AstLiteral.StringExpr Pages: 1 -->
<svg width="876pt" height="626pt"
 viewBox="0.00 0.00 876.00 626.00" xmlns="http://www.w3.org/2000/svg" xmlns:xlink="http://www.w3.org/1999/xlink">
<g id="graph0" class="graph" transform="scale(1 1) rotate(0) translate(4 622)">
<title>AstLiteral.StringExpr</title>
<polygon fill="white" stroke="transparent" points="-4,4 -4,-622 872,-622 872,4 -4,4"/>
<!-- Node1 -->
<g id="node1" class="node">
<title>Node1</title>
<g id="a_node1"><a xlink:title="String値アトム">
<polygon fill="#bfbfbf" stroke="black" points="761,-574.5 761,-593.5 868,-593.5 868,-574.5 761,-574.5"/>
<text text-anchor="middle" x="814.5" y="-581.5" font-family="Helvetica,sans-Serif" font-size="10.00">AstLiteral.StringExpr</text>
</a>
</g>
</g>
<!-- Node2 -->
<g id="node2" class="node">
<title>Node2</title>
<g id="a_node2"><a xlink:href="classast_1_1_ast_literal.html" target="_top" xlink:title="値を返すことができる終端オブジェクトのクラス">
<polygon fill="white" stroke="black" points="666,-497.5 666,-516.5 724,-516.5 724,-497.5 666,-497.5"/>
<text text-anchor="middle" x="695" y="-504.5" font-family="Helvetica,sans-Serif" font-size="10.00">AstLiteral</text>
</a>
</g>
</g>
<!-- Node2&#45;&gt;Node1 -->
<g id="edge1" class="edge">
<title>Node2&#45;&gt;Node1</title>
<path fill="none" stroke="midnightblue" d="M719.28,-522.25C742.9,-537.74 778.76,-561.24 798.74,-574.33"/>
<polygon fill="midnightblue" stroke="midnightblue" points="721.16,-519.31 710.88,-516.75 717.33,-525.16 721.16,-519.31"/>
</g>
<!-- Node3 -->
<g id="node3" class="node">
<title>Node3</title>
<g id="a_node3"><a xlink:href="classast_1_1_ast_node.html" target="_top" xlink:title="タグなしの順アクセスの子供をもてる抽象構文木のノードのクラス。">
<polygon fill="white" stroke="black" points="540,-172.5 540,-191.5 595,-191.5 595,-172.5 540,-172.5"/>
<text text-anchor="middle" x="567.5" y="-179.5" font-family="Helvetica,sans-Serif" font-size="10.00">AstNode</text>
</a>
</g>
</g>
<!-- Node3&#45;&gt;Node2 -->
<g id="edge2" class="edge">
<title>Node3&#45;&gt;Node2</title>
<path fill="none" stroke="midnightblue" d="M575.98,-201.36C599.72,-262.84 672.86,-452.26 690.26,-497.31"/>
<polygon fill="midnightblue" stroke="midnightblue" points="579.12,-199.79 572.26,-191.73 572.59,-202.32 579.12,-199.79"/>
</g>
<!-- Node4 -->
<g id="node4" class="node">
<title>Node4</title>
<g id="a_node4"><a xlink:href="classast_1_1_ast_node_base.html" target="_top" xlink:title=" ">
<polygon fill="white" stroke="black" points="273.5,-228.5 273.5,-247.5 350.5,-247.5 350.5,-228.5 273.5,-228.5"/>
<text text-anchor="middle" x="312" y="-235.5" font-family="Helvetica,sans-Serif" font-size="10.00">AstNodeBase</text>
</a>
</g>
</g>
<!-- Node4&#45;&gt;Node3 -->
<g id="edge3" class="edge">
<title>Node4&#45;&gt;Node3</title>
<path fill="none" stroke="midnightblue" d="M360.77,-229.8C396.08,-223.48 445.24,-214.13 488,-204 505.35,-199.89 524.64,-194.5 539.76,-190.08"/>
<polygon fill="midnightblue" stroke="midnightblue" points="359.97,-226.39 350.74,-231.58 361.2,-233.28 359.97,-226.39"/>
</g>
<!-- Node5 -->
<g id="node5" class="node">
<title>Node5</title>
<g id="a_node5"><a xlink:title=" ">
<polygon fill="white" stroke="#bfbfbf" points="16.5,-499.5 16.5,-518.5 58.5,-518.5 58.5,-499.5 16.5,-499.5"/>
<text text-anchor="middle" x="37.5" y="-506.5" font-family="Helvetica,sans-Serif" font-size="10.00">String</text>
</a>
</g>
</g>
<!-- Node5&#45;&gt;Node1 -->
<g id="edge25" class="edge">
<title>Node5&#45;&gt;Node1</title>
<path fill="none" stroke="#9a32cd" stroke-dasharray="5,2" d="M51.71,-527.16C61.67,-539.49 76.41,-555.1 93,-564 180.03,-610.68 212.24,-607 311,-607 311,-607 311,-607 696,-607 725.52,-607 758.44,-599.92 781.91,-593.62"/>
<polygon fill="#9a32cd" stroke="#9a32cd" points="54.23,-524.69 45.35,-518.91 48.68,-528.97 54.23,-524.69"/>
<text text-anchor="middle" x="567.5" y="-610" font-family="Helvetica,sans-Serif" font-size="10.00"> sval</text>
</g>
<!-- Node5&#45;&gt;Node2 -->
<g id="edge24" class="edge">
<title>Node5&#45;&gt;Node2</title>
<path fill="none" stroke="#9a32cd" stroke-dasharray="5,2" d="M55.9,-525.27C65.93,-533.52 79.24,-542.68 93,-547 145.15,-563.39 161.38,-549.28 216,-547 387.19,-539.85 591.97,-518.35 665.77,-510.19"/>
<polygon fill="#9a32cd" stroke="#9a32cd" points="58.16,-522.6 48.32,-518.69 53.57,-527.89 58.16,-522.6"/>
<text text-anchor="middle" x="448" y="-537" font-family="Helvetica,sans-Serif" font-size="10.00"> QUOTE_CHARS</text>
</g>
<!-- Node5&#45;&gt;Node4 -->
<g id="edge4" class="edge">
<title>Node5&#45;&gt;Node4</title>
<path fill="none" stroke="#9a32cd" stroke-dasharray="5,2" d="M44.08,-489.74C51.56,-467.31 67.01,-430.69 93,-410 137.47,-374.6 175.34,-414.71 216,-375 235.31,-356.14 220.2,-340.2 234,-317 251.33,-287.87 281.51,-261.25 298.48,-247.6"/>
<polygon fill="#9a32cd" stroke="#9a32cd" points="40.68,-488.9 41.03,-499.48 47.36,-490.98 40.68,-488.9"/>
<text text-anchor="middle" x="154.5" y="-424" font-family="Helvetica,sans-Serif" font-size="10.00"> MOD_AST</text>
<text text-anchor="middle" x="154.5" y="-413" font-family="Helvetica,sans-Serif" font-size="10.00">mod_</text>
</g>
<!-- Node17 -->
<g id="node17" class="node">
<title>Node17</title>
<g id="a_node17"><a xlink:href="classformat_1_1_style.html" target="_top" xlink:title="ノードの表示スタイルに関するプロパティのクラス.">
<polygon fill="white" stroke="black" points="292.5,-326.5 292.5,-345.5 331.5,-345.5 331.5,-326.5 292.5,-326.5"/>
<text text-anchor="middle" x="312" y="-333.5" font-family="Helvetica,sans-Serif" font-size="10.00">Style</text>
</a>
</g>
</g>
<!-- Node5&#45;&gt;Node17 -->
<g id="edge19" class="edge">
<title>Node5&#45;&gt;Node17</title>
<path fill="none" stroke="#9a32cd" stroke-dasharray="5,2" d="M53.02,-491.36C63.09,-480.33 77.44,-466.78 93,-459 142.74,-434.13 167.14,-462.56 216,-436 257.66,-413.35 291.7,-365.92 305,-345.59"/>
<polygon fill="#9a32cd" stroke="#9a32cd" points="50.14,-489.33 46.21,-499.17 55.42,-493.93 50.14,-489.33"/>
<text text-anchor="middle" x="154.5" y="-539" font-family="Helvetica,sans-Serif" font-size="10.00"> childLPAD</text>
<text text-anchor="middle" x="154.5" y="-528" font-family="Helvetica,sans-Serif" font-size="10.00">childRPAD</text>
<text text-anchor="middle" x="154.5" y="-517" font-family="Helvetica,sans-Serif" font-size="10.00">name</text>
<text text-anchor="middle" x="154.5" y="-506" font-family="Helvetica,sans-Serif" font-size="10.00">operSTR</text>
<text text-anchor="middle" x="154.5" y="-495" font-family="Helvetica,sans-Serif" font-size="10.00">parenLPAD</text>
<text text-anchor="middle" x="154.5" y="-484" font-family="Helvetica,sans-Serif" font-size="10.00">parenLPAR</text>
<text text-anchor="middle" x="154.5" y="-473" font-family="Helvetica,sans-Serif" font-size="10.00">parenRPAD</text>
<text text-anchor="middle" x="154.5" y="-462" font-family="Helvetica,sans-Serif" font-size="10.00">parenRPAR</text>
</g>
<!-- Node6 -->
<g id="node6" class="node">
<title>Node6</title>
<g id="a_node6"><a xlink:title=" ">
<polygon fill="white" stroke="#bfbfbf" points="5,-215.5 5,-234.5 70,-234.5 70,-215.5 5,-215.5"/>
<text text-anchor="middle" x="37.5" y="-222.5" font-family="Helvetica,sans-Serif" font-size="10.00">TraceLevel</text>
</a>
</g>
</g>
<!-- Node6&#45;&gt;Node4 -->
<g id="edge5" class="edge">
<title>Node6&#45;&gt;Node4</title>
<path fill="none" stroke="#9a32cd" stroke-dasharray="5,2" d="M80.19,-222.47C84.51,-222.28 88.84,-222.11 93,-222 147.65,-220.5 161.52,-217.44 216,-222 235,-223.59 255.92,-226.94 273.28,-230.16"/>
<polygon fill="#9a32cd" stroke="#9a32cd" points="80,-218.97 70.19,-222.96 80.35,-225.97 80,-218.97"/>
<text text-anchor="middle" x="154.5" y="-225" font-family="Helvetica,sans-Serif" font-size="10.00"> LOG</text>
</g>
<!-- Node7 -->
<g id="node7" class="node">
<title>Node7</title>
<g id="a_node7"><a xlink:title=" ">
<polygon fill="white" stroke="#bfbfbf" points="1,-177.5 1,-196.5 74,-196.5 74,-177.5 1,-177.5"/>
<text text-anchor="middle" x="37.5" y="-184.5" font-family="Helvetica,sans-Serif" font-size="10.00">static Report</text>
</a>
</g>
</g>
<!-- Node7&#45;&gt;Node4 -->
<g id="edge6" class="edge">
<title>Node7&#45;&gt;Node4</title>
<path fill="none" stroke="#9a32cd" stroke-dasharray="5,2" d="M84.8,-184.09C121.71,-183.48 174,-186.49 216,-204 225.61,-208.01 224.71,-214.3 234,-219 246.16,-225.15 260.43,-229.39 273.36,-232.27"/>
<polygon fill="#9a32cd" stroke="#9a32cd" points="84.24,-180.61 74.34,-184.37 84.43,-187.61 84.24,-180.61"/>
<text text-anchor="middle" x="154.5" y="-207" font-family="Helvetica,sans-Serif" font-size="10.00"> repo</text>
</g>
<!-- Node8 -->
<g id="node8" class="node">
<title>Node8</title>
<g id="a_node8"><a xlink:title=" ">
<polygon fill="white" stroke="#bfbfbf" points="23,-347.5 23,-366.5 52,-366.5 52,-347.5 23,-347.5"/>
<text text-anchor="middle" x="37.5" y="-354.5" font-family="Helvetica,sans-Serif" font-size="10.00">int</text>
</a>
</g>
</g>
<!-- Node8&#45;&gt;Node4 -->
<g id="edge7" class="edge">
<title>Node8&#45;&gt;Node4</title>
<path fill="none" stroke="#9a32cd" stroke-dasharray="5,2" d="M61.24,-344.32C70.79,-339.49 82.18,-334.34 93,-331 145.86,-314.7 165.21,-333.92 216,-312 252.09,-296.42 286.4,-263.82 302.09,-247.59"/>
<polygon fill="#9a32cd" stroke="#9a32cd" points="59.61,-341.23 52.38,-348.98 62.86,-347.42 59.61,-341.23"/>
<text text-anchor="middle" x="154.5" y="-345" font-family="Helvetica,sans-Serif" font-size="10.00"> BITMASK_PRINT_WIDTH</text>
<text text-anchor="middle" x="154.5" y="-334" font-family="Helvetica,sans-Serif" font-size="10.00">UNDEF</text>
</g>
<!-- Node8&#45;&gt;Node17 -->
<g id="edge20" class="edge">
<title>Node8&#45;&gt;Node17</title>
<path fill="none" stroke="#9a32cd" stroke-dasharray="5,2" d="M62.77,-358.66C97.04,-360.63 161.51,-362.95 216,-357 242.87,-354.07 273.26,-346.6 292.28,-341.41"/>
<polygon fill="#9a32cd" stroke="#9a32cd" points="62.56,-355.14 52.36,-358.02 62.13,-362.13 62.56,-355.14"/>
<text text-anchor="middle" x="154.5" y="-363" font-family="Helvetica,sans-Serif" font-size="10.00"> pref</text>
</g>
<!-- Node9 -->
<g id="node9" class="node">
<title>Node9</title>
<g id="a_node9"><a xlink:href="interfacetype_1_1_typable.html" target="_top" xlink:title="抽象ノードがもつ関数型のインタフェース">
<polygon fill="white" stroke="black" points="12.5,-139.5 12.5,-158.5 62.5,-158.5 62.5,-139.5 12.5,-139.5"/>
<text text-anchor="middle" x="37.5" y="-146.5" font-family="Helvetica,sans-Serif" font-size="10.00">Typable</text>
</a>
</g>
</g>
<!-- Node9&#45;&gt;Node4 -->
<g id="edge8" class="edge">
<title>Node9&#45;&gt;Node4</title>
<path fill="none" stroke="#9a32cd" stroke-dasharray="5,2" d="M73.02,-142.95C112,-138.17 175.3,-136.84 216,-169 234.53,-183.64 216.46,-203.19 234,-219 244.74,-228.68 259.62,-233.62 273.44,-236.07"/>
<polygon fill="#9a32cd" stroke="#9a32cd" points="72.14,-139.54 62.71,-144.37 73.09,-146.48 72.14,-139.54"/>
<text text-anchor="middle" x="154.5" y="-172" font-family="Helvetica,sans-Serif" font-size="10.00"> typing</text>
</g>
<!-- Node10 -->
<g id="node10" class="node">
<title>Node10</title>
<g id="a_node10"><a xlink:title=" ">
<polygon fill="white" stroke="#bfbfbf" points="12.5,-266.5 12.5,-285.5 62.5,-285.5 62.5,-266.5 12.5,-266.5"/>
<text text-anchor="middle" x="37.5" y="-273.5" font-family="Helvetica,sans-Serif" font-size="10.00">boolean</text>
</a>
</g>
</g>
<!-- Node10&#45;&gt;Node4 -->
<g id="edge9" class="edge">
<title>Node10&#45;&gt;Node4</title>
<path fill="none" stroke="#9a32cd" stroke-dasharray="5,2" d="M69.81,-262.88C77.29,-260.2 85.34,-257.69 93,-256 155.12,-242.3 229.28,-238.82 273.12,-238.05"/>
<polygon fill="#9a32cd" stroke="#9a32cd" points="68.49,-259.64 60.37,-266.44 70.96,-266.19 68.49,-259.64"/>
<text text-anchor="middle" x="154.5" y="-259" font-family="Helvetica,sans-Serif" font-size="10.00"> DEBUG_REPO</text>
</g>
<!-- Node10&#45;&gt;Node17 -->
<g id="edge21" class="edge">
<title>Node10&#45;&gt;Node17</title>
<path fill="none" stroke="#9a32cd" stroke-dasharray="5,2" d="M72.56,-274.98C108.77,-274.74 167.39,-276.82 216,-290 245.89,-298.11 277.72,-315.56 295.9,-326.48"/>
<polygon fill="#9a32cd" stroke="#9a32cd" points="72.48,-271.48 62.52,-275.11 72.56,-278.48 72.48,-271.48"/>
<text text-anchor="middle" x="154.5" y="-304" font-family="Helvetica,sans-Serif" font-size="10.00"> preoperSupress</text>
<text text-anchor="middle" x="154.5" y="-293" font-family="Helvetica,sans-Serif" font-size="10.00">toInline</text>
</g>
<!-- Node11 -->
<g id="node11" class="node">
<title>Node11</title>
<g id="a_node11"><a xlink:href="interfaceast_1_1_node.html" target="_top" xlink:title=" ">
<polygon fill="white" stroke="black" points="292,-152.5 292,-171.5 332,-171.5 332,-152.5 292,-152.5"/>
<text text-anchor="middle" x="312" y="-159.5" font-family="Helvetica,sans-Serif" font-size="10.00">Node</text>
</a>
</g>
</g>
<!-- Node11&#45;&gt;Node3 -->
<g id="edge10" class="edge">
<title>Node11&#45;&gt;Node3</title>
<path fill="none" stroke="midnightblue" d="M342.11,-164.3C391.71,-168.21 491.85,-176.11 539.77,-179.89"/>
<polygon fill="midnightblue" stroke="midnightblue" points="342.3,-160.8 332.05,-163.5 341.75,-167.78 342.3,-160.8"/>
</g>
<!-- Node12 -->
<g id="node12" class="node">
<title>Node12</title>
<g id="a_node12"><a xlink:href="interfaceformat_1_1_x_formattable.html" target="_top" xlink:title="入れ子フォーマット出力可能なオブジェクトのインタフェース。">
<polygon fill="white" stroke="black" points="0,-85.5 0,-104.5 75,-104.5 75,-85.5 0,-85.5"/>
<text text-anchor="middle" x="37.5" y="-92.5" font-family="Helvetica,sans-Serif" font-size="10.00">XFormattable</text>
</a>
</g>
</g>
<!-- Node12&#45;&gt;Node11 -->
<g id="edge11" class="edge">
<title>Node12&#45;&gt;Node11</title>
<path fill="none" stroke="midnightblue" d="M85.44,-87.04C123.7,-83.12 177.51,-83.71 216,-109 230.29,-118.39 220.52,-132.48 234,-143 250.6,-155.96 274.87,-160.22 291.7,-161.54"/>
<polygon fill="midnightblue" stroke="midnightblue" points="84.61,-83.61 75.08,-88.25 85.42,-90.56 84.61,-83.61"/>
</g>
<!-- Node13 -->
<g id="node13" class="node">
<title>Node13</title>
<g id="a_node13"><a xlink:href="interfaceformat_1_1_x_formattable_1_1_navigatable.html" target="_top" xlink:title="木構造の分岐ノードとして清書可能なオブジェクトのクラス">
<polygon fill="white" stroke="black" points="247,-114.5 247,-133.5 377,-133.5 377,-114.5 247,-114.5"/>
<text text-anchor="middle" x="312" y="-121.5" font-family="Helvetica,sans-Serif" font-size="10.00">XFormattable.Navigatable</text>
</a>
</g>
</g>
<!-- Node12&#45;&gt;Node13 -->
<g id="edge13" class="edge">
<title>Node12&#45;&gt;Node13</title>
<path fill="none" stroke="midnightblue" d="M76.4,-82.63C113.7,-72.7 171.39,-63.48 216,-84 227.17,-89.14 223.53,-98.55 234,-105 240.33,-108.9 247.42,-112 254.66,-114.46"/>
<polygon fill="midnightblue" stroke="midnightblue" points="75.13,-79.35 66.44,-85.43 77.02,-86.09 75.13,-79.35"/>
</g>
<!-- Node14 -->
<g id="node14" class="node">
<title>Node14</title>
<g id="a_node14"><a xlink:href="interfaceformat_1_1_x_formattable_1_1_typed_formattable.html" target="_top" xlink:title="ノードの型情報をもつ書式出力可能なオブジェクトのインタフェース．">
<polygon fill="white" stroke="black" points="234,-190.5 234,-209.5 390,-209.5 390,-190.5 234,-190.5"/>
<text text-anchor="middle" x="312" y="-197.5" font-family="Helvetica,sans-Serif" font-size="10.00">XFormattable.TypedFormattable</text>
</a>
</g>
</g>
<!-- Node12&#45;&gt;Node14 -->
<g id="edge15" class="edge">
<title>Node12&#45;&gt;Node14</title>
<path fill="none" stroke="midnightblue" d="M84.96,-104.62C135.84,-115.32 210.95,-131.67 216,-136 232.35,-150.02 217.75,-166.86 234,-181 238.47,-184.89 243.6,-188 249.06,-190.5"/>
<polygon fill="midnightblue" stroke="midnightblue" points="85.64,-101.18 75.13,-102.56 84.2,-108.04 85.64,-101.18"/>
</g>
<!-- Node13&#45;&gt;Node3 -->
<g id="edge12" class="edge">
<title>Node13&#45;&gt;Node3</title>
<path fill="none" stroke="midnightblue" d="M364.47,-135.78C417.53,-147.92 498.18,-166.37 539.71,-175.87"/>
<polygon fill="midnightblue" stroke="midnightblue" points="365.11,-132.33 354.58,-133.51 363.54,-139.15 365.11,-132.33"/>
</g>
<!-- Node14&#45;&gt;Node3 -->
<g id="edge14" class="edge">
<title>Node14&#45;&gt;Node3</title>
<path fill="none" stroke="midnightblue" d="M400.07,-193.82C449,-190.34 506.7,-186.25 539.7,-183.9"/>
<polygon fill="midnightblue" stroke="midnightblue" points="399.82,-190.33 390.09,-194.53 400.31,-197.31 399.82,-190.33"/>
</g>
<!-- Node15 -->
<g id="node15" class="node">
<title>Node15</title>
<g id="a_node15"><a xlink:title=" ">
<polygon fill="white" stroke="#bfbfbf" points="267,-76.5 267,-95.5 357,-95.5 357,-76.5 267,-76.5"/>
<text text-anchor="middle" x="312" y="-83.5" font-family="Helvetica,sans-Serif" font-size="10.00">List&lt; ast.Node &gt;</text>
</a>
</g>
</g>
<!-- Node15&#45;&gt;Node3 -->
<g id="edge16" class="edge">
<title>Node15&#45;&gt;Node3</title>
<path fill="none" stroke="#9a32cd" stroke-dasharray="5,2" d="M367.26,-95.12C402.63,-102.22 449.25,-113.8 488,-131 513.25,-142.21 539.58,-161.02 554.42,-172.4"/>
<polygon fill="#9a32cd" stroke="#9a32cd" points="367.62,-91.62 357.13,-93.14 366.28,-98.49 367.62,-91.62"/>
<text text-anchor="middle" x="448" y="-134" font-family="Helvetica,sans-Serif" font-size="10.00"> children</text>
</g>
<!-- Node16 -->
<g id="node16" class="node">
<title>Node16</title>
<g id="a_node16"><a xlink:title=" ">
<polygon fill="white" stroke="#bfbfbf" points="286,-38.5 286,-57.5 338,-57.5 338,-38.5 286,-38.5"/>
<text text-anchor="middle" x="312" y="-45.5" font-family="Helvetica,sans-Serif" font-size="10.00">Boolean</text>
</a>
</g>
</g>
<!-- Node16&#45;&gt;Node3 -->
<g id="edge17" class="edge">
<title>Node16&#45;&gt;Node3</title>
<path fill="none" stroke="#9a32cd" stroke-dasharray="5,2" d="M348.39,-49.78C385.61,-53.07 444.66,-62.43 488,-89 523.13,-110.53 550.29,-153.22 561.24,-172.34"/>
<polygon fill="#9a32cd" stroke="#9a32cd" points="348.29,-46.26 338.05,-48.97 347.74,-53.24 348.29,-46.26"/>
<text text-anchor="middle" x="448" y="-92" font-family="Helvetica,sans-Serif" font-size="10.00"> DEBUG_CHILD</text>
</g>
<!-- Node17&#45;&gt;Node3 -->
<g id="edge18" class="edge">
<title>Node17&#45;&gt;Node3</title>
<path fill="none" stroke="#9a32cd" stroke-dasharray="5,2" d="M337.7,-320.99C389.41,-289.58 507.8,-217.66 550.65,-191.63"/>
<polygon fill="#9a32cd" stroke="#9a32cd" points="335.59,-318.18 328.86,-326.37 339.22,-324.17 335.59,-318.18"/>
<text text-anchor="middle" x="448" y="-280" font-family="Helvetica,sans-Serif" font-size="10.00"> sty</text>
</g>
<!-- Node18 -->
<g id="node18" class="node">
<title>Node18</title>
<g id="a_node18"><a xlink:href="interfacecmd_1_1_generatable_1_1_evaluatable.html" target="_top" xlink:title="評価して値を返すノードのインタフェース．必ずしもコードを生成しなくても良い．">
<polygon fill="white" stroke="black" points="506,-58.5 506,-77.5 629,-77.5 629,-58.5 506,-58.5"/>
<text text-anchor="middle" x="567.5" y="-65.5" font-family="Helvetica,sans-Serif" font-size="10.00">Generatable.Evaluatable</text>
</a>
</g>
</g>
<!-- Node18&#45;&gt;Node2 -->
<g id="edge22" class="edge">
<title>Node18&#45;&gt;Node2</title>
<path fill="none" stroke="midnightblue" d="M582.6,-85.55C596.55,-103.81 617.43,-133.78 629,-163 678.77,-288.74 691.13,-455.77 693.51,-497.33"/>
<polygon fill="midnightblue" stroke="midnightblue" points="585.29,-83.31 576.38,-77.57 579.77,-87.61 585.29,-83.31"/>
</g>
<!-- Node19 -->
<g id="node19" class="node">
<title>Node19</title>
<g id="a_node19"><a xlink:href="interfacecmd_1_1_generatable.html" target="_top" xlink:title="変換してコードを生成できるノードのインタフェース.">
<polygon fill="white" stroke="black" points="277.5,-0.5 277.5,-19.5 346.5,-19.5 346.5,-0.5 277.5,-0.5"/>
<text text-anchor="middle" x="312" y="-7.5" font-family="Helvetica,sans-Serif" font-size="10.00">Generatable</text>
</a>
</g>
</g>
<!-- Node19&#45;&gt;Node18 -->
<g id="edge23" class="edge">
<title>Node19&#45;&gt;Node18</title>
<path fill="none" stroke="midnightblue" d="M356.81,-9.21C392.77,-9.7 444.64,-13 488,-26 512.28,-33.28 537.67,-48.47 552.78,-58.45"/>
<polygon fill="midnightblue" stroke="midnightblue" points="356.67,-5.71 346.65,-9.15 356.62,-12.71 356.67,-5.71"/>
</g>
</g>
</svg>
