<?xml version="1.0" encoding="UTF-8" standalone="no"?>
<!DOCTYPE svg PUBLIC "-//W3C//DTD SVG 1.1//EN"
 "http://www.w3.org/Graphics/SVG/1.1/DTD/svg11.dtd">
<!-- Generated by graphviz version 2.47.1 (20210417.1919)
 -->
<!-- Title: AstMathOper Pages: 1 -->
<!--zoomable 624 -->
<svg id="main" version="1.1" xmlns="http://www.w3.org/2000/svg" xmlns:xlink="http://www.w3.org/1999/xlink" xml:space="preserve" onload="init(evt)">
<style type="text/css"><![CDATA[
.edge:hover path { stroke: red; }
.edge:hover polygon { stroke: red; fill: red; }
]]></style>
<script type="text/javascript"><![CDATA[
var edges = document.getElementsByTagName('g');
if (edges && edges.length) {
  for (var i=0;i<edges.length;i++) {
    if (edges[i].id.substr(0,4)=='edge') {
      edges[i].setAttribute('class','edge');
    }
  }
}
]]></script>
        <defs>
                <circle id="rim" cx="0" cy="0" r="7"/>
                <circle id="rim2" cx="0" cy="0" r="3.5"/>
                <g id="zoomPlus">
                        <use xlink:href="#rim" fill="#404040">
                                <set attributeName="fill" to="#808080" begin="zoomplus.mouseover" end="zoomplus.mouseout"/>
                        </use>
                        <path d="M-4,0h8M0,-4v8" fill="none" stroke="white" stroke-width="1.5" pointer-events="none"/>
                </g>
                <g id="zoomMin">
                        <use xlink:href="#rim" fill="#404040">
                                <set attributeName="fill" to="#808080" begin="zoomminus.mouseover" end="zoomminus.mouseout"/>
                        </use>
                        <path d="M-4,0h8" fill="none" stroke="white" stroke-width="1.5" pointer-events="none"/>
                </g>
                <g id="dirArrow">
                        <path fill="none" stroke="white" stroke-width="1.5" d="M0,-3.0v7 M-2.5,-0.5L0,-3.0L2.5,-0.5"/>
                </g>
               <g id="resetDef">
                       <use xlink:href="#rim2" fill="#404040">
                               <set attributeName="fill" to="#808080" begin="reset.mouseover" end="reset.mouseout"/>
                       </use>
               </g>
        </defs>

<script type="text/javascript">
var viewWidth = 834;
var viewHeight = 624;
var sectionId = 'dynsection-1';
</script>
<script xlink:href="svgpan.js"/>
<svg id="graph" class="graph">
<g id="viewport">
<title>AstMathOper</title>
<polygon fill="white" stroke="transparent" points="-4,4 -4,-620 830,-620 830,4 -4,4"/>
<!-- Node1 -->
<g id="node1" class="node">
<title>Node1</title>
<g id="a_node1"><a xlink:title="値を返すことができるノードのクラス．一般に1個以上の子をもつ演算子である．">
<polygon fill="#bfbfbf" stroke="black" points="752,-455.5 752,-474.5 826,-474.5 826,-455.5 752,-455.5"/>
<text text-anchor="middle" x="789" y="-462.5" font-family="Helvetica,sans-Serif" font-size="10.00">AstMathOper</text>
</a>
</g>
</g>
<!-- Node2 -->
<g id="node2" class="node">
<title>Node2</title>
<g id="a_node2"><a xlink:href="classast_1_1_ast_oper.html" target="_top" xlink:title=" ">
<polygon fill="white" stroke="black" points="662,-388.5 662,-407.5 715,-407.5 715,-388.5 662,-388.5"/>
<text text-anchor="middle" x="688.5" y="-395.5" font-family="Helvetica,sans-Serif" font-size="10.00">AstOper</text>
</a>
</g>
</g>
<!-- Node2&#45;&gt;Node1 -->
<g id="edge1" class="edge">
<title>Node2&#45;&gt;Node1</title>
<path fill="none" stroke="midnightblue" d="M712.01,-413.31C731.06,-426.27 757.76,-444.43 773.91,-455.42"/>
<polygon fill="midnightblue" stroke="midnightblue" points="713.85,-410.33 703.61,-407.6 709.91,-416.12 713.85,-410.33"/>
</g>
<!-- Node3 -->
<g id="node3" class="node">
<title>Node3</title>
<g id="a_node3"><a xlink:href="classast_1_1_ast_node.html" target="_top" xlink:title="タグなしの順アクセスの子供をもてる抽象構文木のノードのクラス。">
<polygon fill="white" stroke="black" points="536,-192.5 536,-211.5 591,-211.5 591,-192.5 536,-192.5"/>
<text text-anchor="middle" x="563.5" y="-199.5" font-family="Helvetica,sans-Serif" font-size="10.00">AstNode</text>
</a>
</g>
</g>
<!-- Node3&#45;&gt;Node2 -->
<g id="edge2" class="edge">
<title>Node3&#45;&gt;Node2</title>
<path fill="none" stroke="midnightblue" d="M576.01,-220.35C601.49,-260.95 661.93,-357.25 681.36,-388.22"/>
<polygon fill="midnightblue" stroke="midnightblue" points="578.88,-218.33 570.6,-211.72 572.95,-222.05 578.88,-218.33"/>
</g>
<!-- Node4 -->
<g id="node4" class="node">
<title>Node4</title>
<g id="a_node4"><a xlink:href="classast_1_1_ast_node_base.html" target="_top" xlink:title=" ">
<polygon fill="white" stroke="black" points="273.5,-172.5 273.5,-191.5 350.5,-191.5 350.5,-172.5 273.5,-172.5"/>
<text text-anchor="middle" x="312" y="-179.5" font-family="Helvetica,sans-Serif" font-size="10.00">AstNodeBase</text>
</a>
</g>
</g>
<!-- Node4&#45;&gt;Node3 -->
<g id="edge3" class="edge">
<title>Node4&#45;&gt;Node3</title>
<path fill="none" stroke="midnightblue" d="M360.6,-185.82C412.56,-189.98 493.91,-196.5 535.72,-199.85"/>
<polygon fill="midnightblue" stroke="midnightblue" points="360.87,-182.33 350.62,-185.02 360.31,-189.3 360.87,-182.33"/>
</g>
<!-- Node5 -->
<g id="node5" class="node">
<title>Node5</title>
<g id="a_node5"><a xlink:title=" ">
<polygon fill="white" stroke="#bfbfbf" points="16.5,-300.5 16.5,-319.5 58.5,-319.5 58.5,-300.5 16.5,-300.5"/>
<text text-anchor="middle" x="37.5" y="-307.5" font-family="Helvetica,sans-Serif" font-size="10.00">String</text>
</a>
</g>
</g>
<!-- Node5&#45;&gt;Node2 -->
<g id="edge24" class="edge">
<title>Node5&#45;&gt;Node2</title>
<path fill="none" stroke="#9a32cd" stroke-dasharray="5,2" d="M44.02,-329.17C51.33,-350.57 66.5,-384.15 93,-399 192.16,-454.55 560.75,-413.78 661.76,-401.3"/>
<polygon fill="#9a32cd" stroke="#9a32cd" points="47.32,-328 40.97,-319.51 40.65,-330.1 47.32,-328"/>
<text text-anchor="middle" x="446" y="-427" font-family="Helvetica,sans-Serif" font-size="10.00"> op</text>
</g>
<!-- Node5&#45;&gt;Node4 -->
<g id="edge4" class="edge">
<title>Node5&#45;&gt;Node4</title>
<path fill="none" stroke="#9a32cd" stroke-dasharray="5,2" d="M53.48,-292.62C63.56,-282.07 77.77,-269.27 93,-262 143.04,-238.1 172.14,-274.94 216,-241 231.42,-229.07 219.03,-213.48 234,-201 245,-191.83 259.77,-186.98 273.43,-184.44"/>
<polygon fill="#9a32cd" stroke="#9a32cd" points="50.78,-290.38 46.62,-300.12 55.95,-295.1 50.78,-290.38"/>
<text text-anchor="middle" x="154.5" y="-276" font-family="Helvetica,sans-Serif" font-size="10.00"> MOD_AST</text>
<text text-anchor="middle" x="154.5" y="-265" font-family="Helvetica,sans-Serif" font-size="10.00">mod_</text>
</g>
<!-- Node17 -->
<g id="node17" class="node">
<title>Node17</title>
<g id="a_node17"><a xlink:href="classformat_1_1_style.html" target="_top" xlink:title="ノードの表示スタイルに関するプロパティのクラス.">
<polygon fill="white" stroke="black" points="292.5,-210.5 292.5,-229.5 331.5,-229.5 331.5,-210.5 292.5,-210.5"/>
<text text-anchor="middle" x="312" y="-217.5" font-family="Helvetica,sans-Serif" font-size="10.00">Style</text>
</a>
</g>
</g>
<!-- Node5&#45;&gt;Node17 -->
<g id="edge19" class="edge">
<title>Node5&#45;&gt;Node17</title>
<path fill="none" stroke="#9a32cd" stroke-dasharray="5,2" d="M68.88,-309.95C113.5,-309.28 193.87,-305.57 216,-288 234.17,-273.57 216.72,-254.48 234,-239 250,-224.67 275.09,-220.75 292.26,-219.87"/>
<polygon fill="#9a32cd" stroke="#9a32cd" points="68.58,-306.46 58.62,-310.06 68.66,-313.45 68.58,-306.46"/>
<text text-anchor="middle" x="154.5" y="-389" font-family="Helvetica,sans-Serif" font-size="10.00"> childLPAD</text>
<text text-anchor="middle" x="154.5" y="-378" font-family="Helvetica,sans-Serif" font-size="10.00">childRPAD</text>
<text text-anchor="middle" x="154.5" y="-367" font-family="Helvetica,sans-Serif" font-size="10.00">name</text>
<text text-anchor="middle" x="154.5" y="-356" font-family="Helvetica,sans-Serif" font-size="10.00">operSTR</text>
<text text-anchor="middle" x="154.5" y="-345" font-family="Helvetica,sans-Serif" font-size="10.00">parenLPAD</text>
<text text-anchor="middle" x="154.5" y="-334" font-family="Helvetica,sans-Serif" font-size="10.00">parenLPAR</text>
<text text-anchor="middle" x="154.5" y="-323" font-family="Helvetica,sans-Serif" font-size="10.00">parenRPAD</text>
<text text-anchor="middle" x="154.5" y="-312" font-family="Helvetica,sans-Serif" font-size="10.00">parenRPAR</text>
</g>
<!-- Node6 -->
<g id="node6" class="node">
<title>Node6</title>
<g id="a_node6"><a xlink:title=" ">
<polygon fill="white" stroke="#bfbfbf" points="5,-146.5 5,-165.5 70,-165.5 70,-146.5 5,-146.5"/>
<text text-anchor="middle" x="37.5" y="-153.5" font-family="Helvetica,sans-Serif" font-size="10.00">TraceLevel</text>
</a>
</g>
</g>
<!-- Node6&#45;&gt;Node4 -->
<g id="edge5" class="edge">
<title>Node6&#45;&gt;Node4</title>
<path fill="none" stroke="#9a32cd" stroke-dasharray="5,2" d="M80.45,-157.9C116.47,-159.76 169.74,-163.04 216,-168 234.9,-170.03 255.8,-173.03 273.18,-175.73"/>
<polygon fill="#9a32cd" stroke="#9a32cd" points="80.47,-154.4 70.31,-157.39 80.12,-161.39 80.47,-154.4"/>
<text text-anchor="middle" x="154.5" y="-171" font-family="Helvetica,sans-Serif" font-size="10.00"> LOG</text>
</g>
<!-- Node7 -->
<g id="node7" class="node">
<title>Node7</title>
<g id="a_node7"><a xlink:title=" ">
<polygon fill="white" stroke="#bfbfbf" points="1,-108.5 1,-127.5 74,-127.5 74,-108.5 1,-108.5"/>
<text text-anchor="middle" x="37.5" y="-115.5" font-family="Helvetica,sans-Serif" font-size="10.00">static Report</text>
</a>
</g>
</g>
<!-- Node7&#45;&gt;Node4 -->
<g id="edge6" class="edge">
<title>Node7&#45;&gt;Node4</title>
<path fill="none" stroke="#9a32cd" stroke-dasharray="5,2" d="M84.57,-119.68C121.14,-122.21 173.08,-128.48 216,-144 224.82,-147.19 225.53,-150.98 234,-155 248.34,-161.8 264.87,-167.82 278.93,-172.44"/>
<polygon fill="#9a32cd" stroke="#9a32cd" points="84.41,-116.17 74.21,-119.04 83.97,-123.15 84.41,-116.17"/>
<text text-anchor="middle" x="154.5" y="-147" font-family="Helvetica,sans-Serif" font-size="10.00"> repo</text>
</g>
<!-- Node8 -->
<g id="node8" class="node">
<title>Node8</title>
<g id="a_node8"><a xlink:title=" ">
<polygon fill="white" stroke="#bfbfbf" points="23,-481.5 23,-500.5 52,-500.5 52,-481.5 23,-481.5"/>
<text text-anchor="middle" x="37.5" y="-488.5" font-family="Helvetica,sans-Serif" font-size="10.00">int</text>
</a>
</g>
</g>
<!-- Node8&#45;&gt;Node1 -->
<g id="edge25" class="edge">
<title>Node8&#45;&gt;Node1</title>
<path fill="none" stroke="#9a32cd" stroke-dasharray="5,2" d="M62.21,-497.05C71.72,-499.25 82.82,-501.56 93,-503 189.13,-516.59 213.91,-517 311,-517 311,-517 311,-517 689.5,-517 725.47,-517 761.17,-489.55 778,-474.54"/>
<polygon fill="#9a32cd" stroke="#9a32cd" points="62.82,-493.59 52.28,-494.65 61.18,-500.4 62.82,-493.59"/>
<text text-anchor="middle" x="563.5" y="-608" font-family="Helvetica,sans-Serif" font-size="10.00"> PREF_ADD_TERM</text>
<text text-anchor="middle" x="563.5" y="-597" font-family="Helvetica,sans-Serif" font-size="10.00">PREF_AND_EXPR</text>
<text text-anchor="middle" x="563.5" y="-586" font-family="Helvetica,sans-Serif" font-size="10.00">PREF_BIN_OPER</text>
<text text-anchor="middle" x="563.5" y="-575" font-family="Helvetica,sans-Serif" font-size="10.00">PREF_BIN_REL</text>
<text text-anchor="middle" x="563.5" y="-564" font-family="Helvetica,sans-Serif" font-size="10.00">PREF_MUL_TERM</text>
<text text-anchor="middle" x="563.5" y="-553" font-family="Helvetica,sans-Serif" font-size="10.00">PREF_NOT_EXPR</text>
<text text-anchor="middle" x="563.5" y="-542" font-family="Helvetica,sans-Serif" font-size="10.00">PREF_NUM_SENT</text>
<text text-anchor="middle" x="563.5" y="-531" font-family="Helvetica,sans-Serif" font-size="10.00">PREF_OR_EXPR</text>
<text text-anchor="middle" x="563.5" y="-520" font-family="Helvetica,sans-Serif" font-size="10.00">PREF_PRE_TERM</text>
</g>
<!-- Node8&#45;&gt;Node4 -->
<g id="edge7" class="edge">
<title>Node8&#45;&gt;Node4</title>
<path fill="none" stroke="#9a32cd" stroke-dasharray="5,2" d="M54.27,-474.07C64.5,-463.9 78.57,-451.37 93,-443 142.97,-414.02 180.32,-446.43 216,-401 243.56,-365.91 204.94,-234.86 234,-201 243.69,-189.72 258.9,-184.57 273.26,-182.39"/>
<polygon fill="#9a32cd" stroke="#9a32cd" points="51.73,-471.66 47.26,-481.27 56.74,-476.55 51.73,-471.66"/>
<text text-anchor="middle" x="154.5" y="-457" font-family="Helvetica,sans-Serif" font-size="10.00"> BITMASK_PRINT_WIDTH</text>
<text text-anchor="middle" x="154.5" y="-446" font-family="Helvetica,sans-Serif" font-size="10.00">UNDEF</text>
</g>
<!-- Node8&#45;&gt;Node17 -->
<g id="edge20" class="edge">
<title>Node8&#45;&gt;Node17</title>
<path fill="none" stroke="#9a32cd" stroke-dasharray="5,2" d="M62.51,-491.6C106.04,-492.15 195.42,-490.53 216,-469 251.42,-431.94 200.84,-278.1 234,-239 248.16,-222.3 274.44,-219.02 292.31,-218.93"/>
<polygon fill="#9a32cd" stroke="#9a32cd" points="62.31,-488.1 52.25,-491.43 62.19,-495.1 62.31,-488.1"/>
<text text-anchor="middle" x="154.5" y="-494" font-family="Helvetica,sans-Serif" font-size="10.00"> pref</text>
</g>
<!-- Node9 -->
<g id="node9" class="node">
<title>Node9</title>
<g id="a_node9"><a xlink:href="interfacetype_1_1_typable.html" target="_top" xlink:title="抽象ノードがもつ関数型のインタフェース">
<polygon fill="white" stroke="black" points="12.5,-70.5 12.5,-89.5 62.5,-89.5 62.5,-70.5 12.5,-70.5"/>
<text text-anchor="middle" x="37.5" y="-77.5" font-family="Helvetica,sans-Serif" font-size="10.00">Typable</text>
</a>
</g>
</g>
<!-- Node9&#45;&gt;Node4 -->
<g id="edge8" class="edge">
<title>Node9&#45;&gt;Node4</title>
<path fill="none" stroke="#9a32cd" stroke-dasharray="5,2" d="M73.11,-75.37C112.18,-72.13 175.56,-73.16 216,-106 234.01,-120.63 217.47,-138.72 234,-155 244.6,-165.44 259.45,-171.86 273.29,-175.8"/>
<polygon fill="#9a32cd" stroke="#9a32cd" points="72.39,-71.92 62.78,-76.37 73.07,-78.89 72.39,-71.92"/>
<text text-anchor="middle" x="154.5" y="-109" font-family="Helvetica,sans-Serif" font-size="10.00"> typing</text>
</g>
<!-- Node10 -->
<g id="node10" class="node">
<title>Node10</title>
<g id="a_node10"><a xlink:title=" ">
<polygon fill="white" stroke="#bfbfbf" points="12.5,-197.5 12.5,-216.5 62.5,-216.5 62.5,-197.5 12.5,-197.5"/>
<text text-anchor="middle" x="37.5" y="-204.5" font-family="Helvetica,sans-Serif" font-size="10.00">boolean</text>
</a>
</g>
</g>
<!-- Node10&#45;&gt;Node4 -->
<g id="edge9" class="edge">
<title>Node10&#45;&gt;Node4</title>
<path fill="none" stroke="#9a32cd" stroke-dasharray="5,2" d="M72.84,-197.82C79.49,-196.33 86.43,-194.96 93,-194 155.83,-184.85 229.77,-182.54 273.38,-182.03"/>
<polygon fill="#9a32cd" stroke="#9a32cd" points="71.65,-194.51 62.74,-200.23 73.28,-201.32 71.65,-194.51"/>
<text text-anchor="middle" x="154.5" y="-197" font-family="Helvetica,sans-Serif" font-size="10.00"> DEBUG_REPO</text>
</g>
<!-- Node10&#45;&gt;Node17 -->
<g id="edge21" class="edge">
<title>Node10&#45;&gt;Node17</title>
<path fill="none" stroke="#9a32cd" stroke-dasharray="5,2" d="M72.85,-208.64C131.08,-211.42 247.25,-216.96 292.42,-219.11"/>
<polygon fill="#9a32cd" stroke="#9a32cd" points="72.84,-205.13 62.68,-208.15 72.5,-212.13 72.84,-205.13"/>
<text text-anchor="middle" x="154.5" y="-229" font-family="Helvetica,sans-Serif" font-size="10.00"> preoperSupress</text>
<text text-anchor="middle" x="154.5" y="-218" font-family="Helvetica,sans-Serif" font-size="10.00">toInline</text>
</g>
<!-- Node11 -->
<g id="node11" class="node">
<title>Node11</title>
<g id="a_node11"><a xlink:href="interfaceast_1_1_node.html" target="_top" xlink:title=" ">
<polygon fill="white" stroke="black" points="292,-71.5 292,-90.5 332,-90.5 332,-71.5 292,-71.5"/>
<text text-anchor="middle" x="312" y="-78.5" font-family="Helvetica,sans-Serif" font-size="10.00">Node</text>
</a>
</g>
</g>
<!-- Node11&#45;&gt;Node3 -->
<g id="edge10" class="edge">
<title>Node11&#45;&gt;Node3</title>
<path fill="none" stroke="midnightblue" d="M341.63,-92.98C375.88,-107.52 434.78,-133.19 484,-158 506.04,-169.11 530.78,-183.27 546.49,-192.48"/>
<polygon fill="midnightblue" stroke="midnightblue" points="342.81,-89.68 332.23,-89.01 340.08,-96.12 342.81,-89.68"/>
</g>
<!-- Node12 -->
<g id="node12" class="node">
<title>Node12</title>
<g id="a_node12"><a xlink:href="interfaceformat_1_1_x_formattable.html" target="_top" xlink:title="入れ子フォーマット出力可能なオブジェクトのインタフェース。">
<polygon fill="white" stroke="black" points="0,-16.5 0,-35.5 75,-35.5 75,-16.5 0,-16.5"/>
<text text-anchor="middle" x="37.5" y="-23.5" font-family="Helvetica,sans-Serif" font-size="10.00">XFormattable</text>
</a>
</g>
</g>
<!-- Node12&#45;&gt;Node11 -->
<g id="edge11" class="edge">
<title>Node12&#45;&gt;Node11</title>
<path fill="none" stroke="midnightblue" d="M85.35,-25.53C121.53,-26.17 172.58,-29.23 216,-40 244.42,-47.05 275.16,-61.74 293.75,-71.49"/>
<polygon fill="midnightblue" stroke="midnightblue" points="85.13,-22.03 75.09,-25.41 85.05,-29.03 85.13,-22.03"/>
</g>
<!-- Node13 -->
<g id="node13" class="node">
<title>Node13</title>
<g id="a_node13"><a xlink:href="interfaceformat_1_1_x_formattable_1_1_navigatable.html" target="_top" xlink:title="木構造の分岐ノードとして清書可能なオブジェクトのクラス">
<polygon fill="white" stroke="black" points="247,-0.5 247,-19.5 377,-19.5 377,-0.5 247,-0.5"/>
<text text-anchor="middle" x="312" y="-7.5" font-family="Helvetica,sans-Serif" font-size="10.00">XFormattable.Navigatable</text>
</a>
</g>
</g>
<!-- Node12&#45;&gt;Node13 -->
<g id="edge13" class="edge">
<title>Node12&#45;&gt;Node13</title>
<path fill="none" stroke="midnightblue" d="M84.9,-16.06C87.63,-15.66 90.35,-15.3 93,-15 144.54,-9.25 203.35,-8.22 246.89,-8.51"/>
<polygon fill="midnightblue" stroke="midnightblue" points="84.29,-12.62 75.01,-17.71 85.44,-19.52 84.29,-12.62"/>
</g>
<!-- Node14 -->
<g id="node14" class="node">
<title>Node14</title>
<g id="a_node14"><a xlink:href="interfaceformat_1_1_x_formattable_1_1_typed_formattable.html" target="_top" xlink:title="ノードの型情報をもつ書式出力可能なオブジェクトのインタフェース．">
<polygon fill="white" stroke="black" points="234,-126.5 234,-145.5 390,-145.5 390,-126.5 234,-126.5"/>
<text text-anchor="middle" x="312" y="-133.5" font-family="Helvetica,sans-Serif" font-size="10.00">XFormattable.TypedFormattable</text>
</a>
</g>
</g>
<!-- Node12&#45;&gt;Node14 -->
<g id="edge15" class="edge">
<title>Node12&#45;&gt;Node14</title>
<path fill="none" stroke="midnightblue" d="M85.2,-35.94C134.13,-46.66 205.37,-63.22 216,-71 228.24,-79.96 222.66,-89.93 234,-100 247.35,-111.86 265.28,-120.55 280.48,-126.42"/>
<polygon fill="midnightblue" stroke="midnightblue" points="85.64,-32.46 75.12,-33.75 84.15,-39.3 85.64,-32.46"/>
</g>
<!-- Node13&#45;&gt;Node3 -->
<g id="edge12" class="edge">
<title>Node13&#45;&gt;Node3</title>
<path fill="none" stroke="midnightblue" d="M340.05,-24.49C374.98,-43.79 436.86,-80.06 484,-119 512.6,-142.62 541.3,-176.02 554.7,-192.31"/>
<polygon fill="midnightblue" stroke="midnightblue" points="341.41,-21.24 330.95,-19.51 338.04,-27.38 341.41,-21.24"/>
</g>
<!-- Node14&#45;&gt;Node3 -->
<g id="edge14" class="edge">
<title>Node14&#45;&gt;Node3</title>
<path fill="none" stroke="midnightblue" d="M358.95,-148.16C410.81,-161.87 493.44,-183.73 535.69,-194.91"/>
<polygon fill="midnightblue" stroke="midnightblue" points="359.58,-144.7 349.01,-145.53 357.79,-151.47 359.58,-144.7"/>
</g>
<!-- Node15 -->
<g id="node15" class="node">
<title>Node15</title>
<g id="a_node15"><a xlink:title=" ">
<polygon fill="white" stroke="#bfbfbf" points="267,-286.5 267,-305.5 357,-305.5 357,-286.5 267,-286.5"/>
<text text-anchor="middle" x="312" y="-293.5" font-family="Helvetica,sans-Serif" font-size="10.00">List&lt; ast.Node &gt;</text>
</a>
</g>
</g>
<!-- Node15&#45;&gt;Node3 -->
<g id="edge16" class="edge">
<title>Node15&#45;&gt;Node3</title>
<path fill="none" stroke="#9a32cd" stroke-dasharray="5,2" d="M366.94,-289.67C401.5,-284.26 446.71,-274.62 484,-258 510.76,-246.08 537.62,-224.29 551.93,-211.69"/>
<polygon fill="#9a32cd" stroke="#9a32cd" points="366.41,-286.21 357.03,-291.15 367.44,-293.13 366.41,-286.21"/>
<text text-anchor="middle" x="446" y="-284" font-family="Helvetica,sans-Serif" font-size="10.00"> children</text>
</g>
<!-- Node16 -->
<g id="node16" class="node">
<title>Node16</title>
<g id="a_node16"><a xlink:title=" ">
<polygon fill="white" stroke="#bfbfbf" points="286,-248.5 286,-267.5 338,-267.5 338,-248.5 286,-248.5"/>
<text text-anchor="middle" x="312" y="-255.5" font-family="Helvetica,sans-Serif" font-size="10.00">Boolean</text>
</a>
</g>
</g>
<!-- Node16&#45;&gt;Node3 -->
<g id="edge17" class="edge">
<title>Node16&#45;&gt;Node3</title>
<path fill="none" stroke="#9a32cd" stroke-dasharray="5,2" d="M348.3,-253.35C383.1,-248.4 437.65,-239.68 484,-228 501.96,-223.48 521.75,-216.91 536.97,-211.51"/>
<polygon fill="#9a32cd" stroke="#9a32cd" points="347.58,-249.91 338.16,-254.76 348.55,-256.85 347.58,-249.91"/>
<text text-anchor="middle" x="446" y="-246" font-family="Helvetica,sans-Serif" font-size="10.00"> DEBUG_CHILD</text>
</g>
<!-- Node17&#45;&gt;Node3 -->
<g id="edge18" class="edge">
<title>Node17&#45;&gt;Node3</title>
<path fill="none" stroke="#9a32cd" stroke-dasharray="5,2" d="M341.93,-217.91C390.7,-214.39 488.57,-207.33 535.8,-203.93"/>
<polygon fill="#9a32cd" stroke="#9a32cd" points="341.48,-214.44 331.75,-218.65 341.98,-221.42 341.48,-214.44"/>
<text text-anchor="middle" x="446" y="-216" font-family="Helvetica,sans-Serif" font-size="10.00"> sty</text>
</g>
<!-- Node18 -->
<g id="node18" class="node">
<title>Node18</title>
<g id="a_node18"><a xlink:href="interfacecmd_1_1_generatable_1_1_evaluatable.html" target="_top" xlink:title="評価して値を返すノードのインタフェース．必ずしもコードを生成しなくても良い．">
<polygon fill="white" stroke="black" points="502,-365.5 502,-384.5 625,-384.5 625,-365.5 502,-365.5"/>
<text text-anchor="middle" x="563.5" y="-372.5" font-family="Helvetica,sans-Serif" font-size="10.00">Generatable.Evaluatable</text>
</a>
</g>
</g>
<!-- Node18&#45;&gt;Node2 -->
<g id="edge22" class="edge">
<title>Node18&#45;&gt;Node2</title>
<path fill="none" stroke="midnightblue" d="M625.79,-386.46C638.56,-388.85 651.34,-391.24 661.93,-393.22"/>
<polygon fill="midnightblue" stroke="midnightblue" points="626.07,-382.95 615.59,-384.55 624.78,-389.83 626.07,-382.95"/>
</g>
<!-- Node19 -->
<g id="node19" class="node">
<title>Node19</title>
<g id="a_node19"><a xlink:href="interfacecmd_1_1_generatable.html" target="_top" xlink:title="変換してコードを生成できるノードのインタフェース.">
<polygon fill="white" stroke="black" points="277.5,-365.5 277.5,-384.5 346.5,-384.5 346.5,-365.5 277.5,-365.5"/>
<text text-anchor="middle" x="312" y="-372.5" font-family="Helvetica,sans-Serif" font-size="10.00">Generatable</text>
</a>
</g>
</g>
<!-- Node19&#45;&gt;Node18 -->
<g id="edge23" class="edge">
<title>Node19&#45;&gt;Node18</title>
<path fill="none" stroke="midnightblue" d="M356.67,-375C396.84,-375 456.81,-375 501.67,-375"/>
<polygon fill="midnightblue" stroke="midnightblue" points="356.65,-371.5 346.65,-375 356.65,-378.5 356.65,-371.5"/>
</g>
</g>
</svg>
        <g id="navigator" transform="translate(0 0)" fill="#404254">
                <rect fill="#f2f5e9" fill-opacity="0.5" stroke="#606060" stroke-width=".5" x="0" y="0" width="60" height="60"/>
                <use id="zoomplus" xlink:href="#zoomPlus" x="17" y="9" onmousedown="handleZoom(evt,'in')"/>
                <use id="zoomminus" xlink:href="#zoomMin" x="42" y="9" onmousedown="handleZoom(evt,'out')"/>
                <use id="reset" xlink:href="#resetDef" x="30" y="36" onmousedown="handleReset()"/>
                <g id="arrowUp" xlink:href="#dirArrow" transform="translate(30 24)" onmousedown="handlePan(0,-1)">
                  <use xlink:href="#rim" fill="#404040">
                        <set attributeName="fill" to="#808080" begin="arrowUp.mouseover" end="arrowUp.mouseout"/>
                  </use>
                  <path fill="none" stroke="white" stroke-width="1.5" d="M0,-3.0v7 M-2.5,-0.5L0,-3.0L2.5,-0.5"/>
                </g>
                <g id="arrowRight" xlink:href="#dirArrow" transform="rotate(90) translate(36 -43)" onmousedown="handlePan(1,0)">
                  <use xlink:href="#rim" fill="#404040">
                        <set attributeName="fill" to="#808080" begin="arrowRight.mouseover" end="arrowRight.mouseout"/>
                  </use>
                  <path fill="none" stroke="white" stroke-width="1.5" d="M0,-3.0v7 M-2.5,-0.5L0,-3.0L2.5,-0.5"/>
                </g>
                <g id="arrowDown" xlink:href="#dirArrow" transform="rotate(180) translate(-30 -48)" onmousedown="handlePan(0,1)">
                  <use xlink:href="#rim" fill="#404040">
                        <set attributeName="fill" to="#808080" begin="arrowDown.mouseover" end="arrowDown.mouseout"/>
                  </use>
                  <path fill="none" stroke="white" stroke-width="1.5" d="M0,-3.0v7 M-2.5,-0.5L0,-3.0L2.5,-0.5"/>
                </g>
                <g id="arrowLeft" xlink:href="#dirArrow" transform="rotate(270) translate(-36 17)" onmousedown="handlePan(-1,0)">
                  <use xlink:href="#rim" fill="#404040">
                        <set attributeName="fill" to="#808080" begin="arrowLeft.mouseover" end="arrowLeft.mouseout"/>
                  </use>
                  <path fill="none" stroke="white" stroke-width="1.5" d="M0,-3.0v7 M-2.5,-0.5L0,-3.0L2.5,-0.5"/>
                </g>
        </g>
        <svg viewBox="0 0 15 15" width="100%" height="30px" preserveAspectRatio="xMaxYMin meet">
         <g id="arrow_out" transform="scale(0.3 0.3)">
          <a xlink:href="classast_1_1_ast_math_oper__coll__graph_org.svg" target="_base">
           <rect id="button" ry="5" rx="5" y="6" x="6" height="38" width="38"
                fill="#f2f5e9" fill-opacity="0.5" stroke="#606060" stroke-width="1.0"/>
           <path id="arrow"
             d="M 11.500037,31.436501 C 11.940474,20.09759 22.043105,11.32322 32.158766,21.979434 L 37.068811,17.246167 C 37.068811,17.246167 37.088388,32 37.088388,32 L 22.160133,31.978069 C 22.160133,31.978069 26.997745,27.140456 26.997745,27.140456 C 18.528582,18.264221 13.291696,25.230495 11.500037,31.436501 z"
             style="fill:#404040;"/>
          </a>
         </g>
        </svg>
</svg>
