<?xml version="1.0" encoding="UTF-8" standalone="no"?>
<!DOCTYPE svg PUBLIC "-//W3C//DTD SVG 1.1//EN"
 "http://www.w3.org/Graphics/SVG/1.1/DTD/svg11.dtd">
<!-- Generated by graphviz version 2.47.1 (20210417.1919)
 -->
<!-- Title: TypeItem Pages: 1 -->
<svg width="289pt" height="184pt"
 viewBox="0.00 0.00 289.00 184.00" xmlns="http://www.w3.org/2000/svg" xmlns:xlink="http://www.w3.org/1999/xlink">
<g id="graph0" class="graph" transform="scale(1 1) rotate(0) translate(4 180)">
<title>TypeItem</title>
<polygon fill="white" stroke="transparent" points="-4,4 -4,-180 285,-180 285,4 -4,4"/>
<!-- Node1 -->
<g id="node1" class="node">
<title>Node1</title>
<g id="a_node1"><a xlink:title="XTypeの値型をもち単一化を行う型アイテムのクラス．">
<polygon fill="#bfbfbf" stroke="black" points="115.5,-0.5 115.5,-19.5 172.5,-19.5 172.5,-0.5 115.5,-0.5"/>
<text text-anchor="middle" x="144" y="-7.5" font-family="Helvetica,sans-Serif" font-size="10.00">TypeItem</text>
</a>
</g>
</g>
<!-- Node2 -->
<g id="node2" class="node">
<title>Node2</title>
<g id="a_node2"><a xlink:href="enumtype_1_1_x_type.html" target="_top" xlink:title="式がもつ値の型のクラス．Kotlin言語の型システムを参考にしている． 次の型をもつ．">
<polygon fill="white" stroke="black" points="65,-67.5 65,-86.5 109,-86.5 109,-67.5 65,-67.5"/>
<text text-anchor="middle" x="87" y="-74.5" font-family="Helvetica,sans-Serif" font-size="10.00">XType</text>
</a>
</g>
</g>
<!-- Node2&#45;&gt;Node1 -->
<g id="edge1" class="edge">
<title>Node2&#45;&gt;Node1</title>
<path fill="none" stroke="#9a32cd" stroke-dasharray="5,2" d="M101.35,-59.63C112.5,-46.92 127.52,-29.8 136.43,-19.63"/>
<polygon fill="#9a32cd" stroke="#9a32cd" points="98.65,-57.41 94.69,-67.23 103.91,-62.02 98.65,-57.41"/>
<text text-anchor="middle" x="147" y="-41" font-family="Helvetica,sans-Serif" font-size="10.00"> typeConflict</text>
</g>
<!-- Node3 -->
<g id="node3" class="node">
<title>Node3</title>
<g id="a_node3"><a xlink:title=" ">
<polygon fill="white" stroke="#bfbfbf" points="0,-156.5 0,-175.5 42,-175.5 42,-156.5 0,-156.5"/>
<text text-anchor="middle" x="21" y="-163.5" font-family="Helvetica,sans-Serif" font-size="10.00">String</text>
</a>
</g>
</g>
<!-- Node3&#45;&gt;Node2 -->
<g id="edge2" class="edge">
<title>Node3&#45;&gt;Node2</title>
<path fill="none" stroke="#9a32cd" stroke-dasharray="5,2" d="M23.3,-146.33C25.68,-133.55 30.46,-116.85 40,-105 46.49,-96.94 56.08,-90.82 64.91,-86.46"/>
<polygon fill="#9a32cd" stroke="#9a32cd" points="19.82,-145.91 21.77,-156.33 26.74,-146.97 19.82,-145.91"/>
<text text-anchor="middle" x="61.5" y="-130" font-family="Helvetica,sans-Serif" font-size="10.00"> name</text>
<text text-anchor="middle" x="61.5" y="-119" font-family="Helvetica,sans-Serif" font-size="10.00">nickname</text>
<text text-anchor="middle" x="61.5" y="-108" font-family="Helvetica,sans-Serif" font-size="10.00">prefix</text>
</g>
<!-- Node4 -->
<g id="node4" class="node">
<title>Node4</title>
<g id="a_node4"><a xlink:title=" ">
<polygon fill="white" stroke="#bfbfbf" points="72.5,-156.5 72.5,-175.5 101.5,-175.5 101.5,-156.5 72.5,-156.5"/>
<text text-anchor="middle" x="87" y="-163.5" font-family="Helvetica,sans-Serif" font-size="10.00">int</text>
</a>
</g>
</g>
<!-- Node4&#45;&gt;Node2 -->
<g id="edge3" class="edge">
<title>Node4&#45;&gt;Node2</title>
<path fill="none" stroke="#9a32cd" stroke-dasharray="5,2" d="M87,-146.19C87,-127.74 87,-100.41 87,-86.62"/>
<polygon fill="#9a32cd" stroke="#9a32cd" points="83.5,-146.34 87,-156.34 90.5,-146.34 83.5,-146.34"/>
<text text-anchor="middle" x="121" y="-119" font-family="Helvetica,sans-Serif" font-size="10.00"> FLAG_WIDTH</text>
</g>
<!-- Node5 -->
<g id="node5" class="node">
<title>Node5</title>
<g id="a_node5"><a xlink:title=" ">
<polygon fill="white" stroke="#bfbfbf" points="160.5,-156.5 160.5,-175.5 195.5,-175.5 195.5,-156.5 160.5,-156.5"/>
<text text-anchor="middle" x="178" y="-163.5" font-family="Helvetica,sans-Serif" font-size="10.00">long</text>
</a>
</g>
</g>
<!-- Node5&#45;&gt;Node2 -->
<g id="edge4" class="edge">
<title>Node5&#45;&gt;Node2</title>
<path fill="none" stroke="#9a32cd" stroke-dasharray="5,2" d="M175.28,-146.26C172.49,-133.19 166.92,-116.16 156,-105 149.25,-98.1 126.72,-90.02 109.22,-84.51"/>
<polygon fill="#9a32cd" stroke="#9a32cd" points="171.9,-147.24 177.09,-156.48 178.79,-146.02 171.9,-147.24"/>
<text text-anchor="middle" x="226.5" y="-124.5" font-family="Helvetica,sans-Serif" font-size="10.00"> FLAG_RETURN_TYPE</text>
<text text-anchor="middle" x="226.5" y="-113.5" font-family="Helvetica,sans-Serif" font-size="10.00">flag</text>
</g>
<!-- Node6 -->
<g id="node6" class="node">
<title>Node6</title>
<g id="a_node6"><a xlink:href="classtype_1_1_union_find_item.html" target="_top" xlink:title=" ">
<polygon fill="white" stroke="black" points="127,-67.5 127,-86.5 275,-86.5 275,-67.5 127,-67.5"/>
<text text-anchor="middle" x="201" y="-74.5" font-family="Helvetica,sans-Serif" font-size="10.00">UnionFindItem&lt; type.XType &gt;</text>
</a>
</g>
</g>
<!-- Node6&#45;&gt;Node1 -->
<g id="edge5" class="edge">
<title>Node6&#45;&gt;Node1</title>
<path fill="none" stroke="#9a32cd" stroke-dasharray="5,2" d="M192.55,-58.18C188.91,-51.47 184.26,-44.01 179,-38 172.83,-30.96 164.59,-24.49 157.66,-19.66"/>
<polygon fill="#9a32cd" stroke="#9a32cd" points="189.49,-59.89 197.14,-67.23 195.74,-56.73 189.49,-59.89"/>
<text text-anchor="middle" x="201.5" y="-41" font-family="Helvetica,sans-Serif" font-size="10.00"> ufitem</text>
</g>
</g>
</svg>
