<?xml version="1.0" encoding="UTF-8" standalone="no"?>
<!DOCTYPE svg PUBLIC "-//W3C//DTD SVG 1.1//EN"
 "http://www.w3.org/Graphics/SVG/1.1/DTD/svg11.dtd">
<!-- Generated by graphviz version 2.38.0 (20140413.2041)
 -->
<!-- Title: CommandString.CmdStrSysVarLoad Pages: 1 -->
<svg width="352pt" height="233pt"
 viewBox="0.00 0.00 351.87 233.00" xmlns="http://www.w3.org/2000/svg" xmlns:xlink="http://www.w3.org/1999/xlink">
<g id="graph0" class="graph" transform="scale(1 1) rotate(0) translate(4 229)">
<title>CommandString.CmdStrSysVarLoad</title>
<polygon fill="white" stroke="none" points="-4,4 -4,-229 347.867,-229 347.867,4 -4,4"/>
<!-- Node1 -->
<g id="node1" class="node"><title>Node1</title>
<g id="a_node1"><a xlink:title="スタックトップにシステム変数値を取り出す．">
<polygon fill="#bfbfbf" stroke="black" points="129.408,-0.5 129.408,-18.5 308.069,-18.5 308.069,-0.5 129.408,-0.5"/>
<text text-anchor="middle" x="218.739" y="-6.5" font-family="Helvetica,sans-Serif" font-size="10.00">CommandString.CmdStrSysVarLoad</text>
</a>
</g>
</g>
<!-- Node2 -->
<g id="node2" class="node"><title>Node2</title>
<g id="a_node2"><a xlink:href="classmachine_1_1_command.html" target="_top" xlink:title="局所変数環境に値を書き込む式の抽象クラス.">
<polygon fill="white" stroke="black" points="135.675,-65.5 135.675,-83.5 197.803,-83.5 197.803,-65.5 135.675,-65.5"/>
<text text-anchor="middle" x="166.739" y="-71.5" font-family="Helvetica,sans-Serif" font-size="10.00">Command</text>
</a>
</g>
</g>
<!-- Node2&#45;&gt;Node1 -->
<g id="edge1" class="edge"><title>Node2&#45;&gt;Node1</title>
<path fill="none" stroke="midnightblue" d="M179.966,-57.4742C190.234,-45.0344 204.038,-28.3107 212.103,-18.539"/>
<polygon fill="midnightblue" stroke="midnightblue" points="177.203,-55.3236 173.537,-65.2639 182.602,-59.7796 177.203,-55.3236"/>
</g>
<!-- Node3 -->
<g id="node3" class="node"><title>Node3</title>
<g id="a_node3"><a xlink:href="interfacemachine_1_1_executable.html" target="_top" xlink:title="仮装命令のインタフェース.">
<polygon fill="white" stroke="black" points="0,-150.5 0,-168.5 65.4775,-168.5 65.4775,-150.5 0,-150.5"/>
<text text-anchor="middle" x="32.7388" y="-156.5" font-family="Helvetica,sans-Serif" font-size="10.00">Executable</text>
</a>
</g>
</g>
<!-- Node3&#45;&gt;Node2 -->
<g id="edge2" class="edge"><title>Node3&#45;&gt;Node2</title>
<path fill="none" stroke="midnightblue" d="M54.779,-144.848C82.8336,-127.471 130.416,-97.9983 153.454,-83.7284"/>
<polygon fill="midnightblue" stroke="midnightblue" points="52.7354,-141.997 46.0771,-150.238 56.4214,-147.948 52.7354,-141.997"/>
</g>
<!-- Node4 -->
<g id="node4" class="node"><title>Node4</title>
<g id="a_node4"><a xlink:href="interfaceformat_1_1_x_formattable_1_1_custom_formattable.html" target="_top" xlink:title="カスタム清書出力器をもつオブジェクトのクラス．">
<polygon fill="white" stroke="black" points="83.4336,-150.5 83.4336,-168.5 250.044,-168.5 250.044,-150.5 83.4336,-150.5"/>
<text text-anchor="middle" x="166.739" y="-156.5" font-family="Helvetica,sans-Serif" font-size="10.00">XFormattable.CustomFormattable</text>
</a>
</g>
</g>
<!-- Node4&#45;&gt;Node2 -->
<g id="edge3" class="edge"><title>Node4&#45;&gt;Node2</title>
<path fill="none" stroke="midnightblue" d="M166.739,-140.059C166.739,-122.46 166.739,-96.7575 166.739,-83.7284"/>
<polygon fill="midnightblue" stroke="midnightblue" points="163.239,-140.238 166.739,-150.238 170.239,-140.238 163.239,-140.238"/>
</g>
<!-- Node5 -->
<g id="node5" class="node"><title>Node5</title>
<g id="a_node5"><a xlink:href="interfaceformat_1_1_x_formattable.html" target="_top" xlink:title="入れ子フォーマット出力可能なオブジェクトのインタフェース。">
<polygon fill="white" stroke="black" points="128.727,-206.5 128.727,-224.5 204.751,-224.5 204.751,-206.5 128.727,-206.5"/>
<text text-anchor="middle" x="166.739" y="-212.5" font-family="Helvetica,sans-Serif" font-size="10.00">XFormattable</text>
</a>
</g>
</g>
<!-- Node5&#45;&gt;Node4 -->
<g id="edge4" class="edge"><title>Node5&#45;&gt;Node4</title>
<path fill="none" stroke="midnightblue" d="M166.739,-195.829C166.739,-186.577 166.739,-175.88 166.739,-168.701"/>
<polygon fill="midnightblue" stroke="midnightblue" points="163.239,-196.062 166.739,-206.062 170.239,-196.063 163.239,-196.062"/>
</g>
<!-- Node6 -->
<g id="node6" class="node"><title>Node6</title>
<g id="a_node6"><a xlink:title=" ">
<polygon fill="white" stroke="#bfbfbf" points="267.943,-150.5 267.943,-168.5 319.534,-168.5 319.534,-150.5 267.943,-150.5"/>
<text text-anchor="middle" x="293.739" y="-156.5" font-family="Helvetica,sans-Serif" font-size="10.00">boolean</text>
</a>
</g>
</g>
<!-- Node6&#45;&gt;Node2 -->
<g id="edge5" class="edge"><title>Node6&#45;&gt;Node2</title>
<path fill="none" stroke="#9a32cd" stroke-dasharray="5,2" d="M272.502,-144.621C245.869,-127.215 201.069,-97.9363 179.329,-83.7284"/>
<polygon fill="#9a32cd" stroke="#9a32cd" points="270.812,-147.697 281.097,-150.238 274.641,-141.838 270.812,-147.697"/>
<text text-anchor="middle" x="298.303" y="-124" font-family="Helvetica,sans-Serif" font-size="10.00"> DEBUG_EVAL</text>
<text text-anchor="middle" x="298.303" y="-114" font-family="Helvetica,sans-Serif" font-size="10.00">DEBUG_CMDELEM</text>
<text text-anchor="middle" x="298.303" y="-104" font-family="Helvetica,sans-Serif" font-size="10.00">DEBUG_CMD</text>
</g>
<!-- Node7 -->
<g id="node7" class="node"><title>Node7</title>
<g id="a_node7"><a xlink:title=" ">
<polygon fill="white" stroke="#bfbfbf" points="215.677,-65.5 215.677,-83.5 257.8,-83.5 257.8,-65.5 215.677,-65.5"/>
<text text-anchor="middle" x="236.739" y="-71.5" font-family="Helvetica,sans-Serif" font-size="10.00">String</text>
</a>
</g>
</g>
<!-- Node7&#45;&gt;Node1 -->
<g id="edge6" class="edge"><title>Node7&#45;&gt;Node1</title>
<path fill="none" stroke="#9a32cd" stroke-dasharray="5,2" d="M231.533,-55.2805C228.061,-43.1279 223.666,-27.7469 221.036,-18.539"/>
<polygon fill="#9a32cd" stroke="#9a32cd" points="228.273,-56.6102 234.386,-65.2639 235.004,-54.6871 228.273,-56.6102"/>
<text text-anchor="middle" x="246.04" y="-39" font-family="Helvetica,sans-Serif" font-size="10.00"> sysVar</text>
</g>
</g>
</svg>
