<?xml version="1.0" encoding="UTF-8" standalone="no"?>
<!DOCTYPE svg PUBLIC "-//W3C//DTD SVG 1.1//EN"
 "http://www.w3.org/Graphics/SVG/1.1/DTD/svg11.dtd">
<!-- Generated by graphviz version 2.47.0 (20210316.0004)
 -->
<!-- Title: fetch Pages: 1 -->
<!--zoomable 66 -->
<svg id="main" version="1.1" xmlns="http://www.w3.org/2000/svg" xmlns:xlink="http://www.w3.org/1999/xlink" xml:space="preserve" onload="init(evt)">
<style type="text/css"><![CDATA[
.edge:hover path { stroke: red; }
.edge:hover polygon { stroke: red; fill: red; }
]]></style>
<script type="text/javascript"><![CDATA[
var edges = document.getElementsByTagName('g');
if (edges && edges.length) {
  for (var i=0;i<edges.length;i++) {
    if (edges[i].id.substr(0,4)=='edge') {
      edges[i].setAttribute('class','edge');
    }
  }
}
]]></script>
        <defs>
                <circle id="rim" cx="0" cy="0" r="7"/>
                <circle id="rim2" cx="0" cy="0" r="3.5"/>
                <g id="zoomPlus">
                        <use xlink:href="#rim" fill="#404040">
                                <set attributeName="fill" to="#808080" begin="zoomplus.mouseover" end="zoomplus.mouseout"/>
                        </use>
                        <path d="M-4,0h8M0,-4v8" fill="none" stroke="white" stroke-width="1.5" pointer-events="none"/>
                </g>
                <g id="zoomMin">
                        <use xlink:href="#rim" fill="#404040">
                                <set attributeName="fill" to="#808080" begin="zoomminus.mouseover" end="zoomminus.mouseout"/>
                        </use>
                        <path d="M-4,0h8" fill="none" stroke="white" stroke-width="1.5" pointer-events="none"/>
                </g>
                <g id="dirArrow">
                        <path fill="none" stroke="white" stroke-width="1.5" d="M0,-3.0v7 M-2.5,-0.5L0,-3.0L2.5,-0.5"/>
                </g>
               <g id="resetDef">
                       <use xlink:href="#rim2" fill="#404040">
                               <set attributeName="fill" to="#808080" begin="reset.mouseover" end="reset.mouseout"/>
                       </use>
               </g>
        </defs>

<script type="text/javascript">
var viewWidth = 606;
var viewHeight = 66;
var sectionId = 'dynsection-3';
</script>
<script xlink:href="svgpan.js"/>
<svg id="graph" class="graph">
<g id="viewport">
<title>fetch</title>
<polygon fill="white" stroke="transparent" points="-4,4 -4,-62 602.48,-62 602.48,4 -4,4"/>
<!-- Node1 -->
<g id="node1" class="node">
<title>Node1</title>
<g id="a_node1"><a xlink:title="変数の名前から参照オブジェクトを得る．">
<polygon fill="#bfbfbf" stroke="black" points="1.48,-19.5 1.48,-38.5 39.48,-38.5 39.48,-19.5 1.48,-19.5"/>
<text text-anchor="middle" x="20.48" y="-26.5" font-family="Helvetica,sans-Serif" font-size="10.00">fetch</text>
</a>
</g>
</g>
<!-- Node1&#45;&gt;Node1 -->
<g id="edge1" class="edge">
<title>Node1&#45;&gt;Node1</title>
<path fill="none" stroke="midnightblue" d="M3.83,-38.76C-4.26,-47.57 1.28,-57 20.48,-57 32.48,-57 39.14,-53.31 40.48,-48.4"/>
<polygon fill="midnightblue" stroke="midnightblue" points="43.72,-47.05 37.13,-38.76 37.1,-49.35 43.72,-47.05"/>
</g>
<!-- Node2 -->
<g id="node2" class="node">
<title>Node2</title>
<g id="a_node2"><a xlink:href="classmachine_1_1_ref.html#ad146fa8579a5f8a876c4688cc5a68520" target="_top" xlink:title="文字列表現を返す。">
<polygon fill="white" stroke="black" points="75.48,-19.5 75.48,-38.5 184.48,-38.5 184.48,-19.5 75.48,-19.5"/>
<text text-anchor="middle" x="129.98" y="-26.5" font-family="Helvetica,sans-Serif" font-size="10.00">machine.Ref.toString</text>
</a>
</g>
</g>
<!-- Node1&#45;&gt;Node2 -->
<g id="edge2" class="edge">
<title>Node1&#45;&gt;Node2</title>
<path fill="none" stroke="midnightblue" d="M39.72,-29C47.02,-29 55.9,-29 65.2,-29"/>
<polygon fill="midnightblue" stroke="midnightblue" points="65.4,-32.5 75.4,-29 65.4,-25.5 65.4,-32.5"/>
</g>
<!-- Node3 -->
<g id="node3" class="node">
<title>Node3</title>
<g id="a_node3"><a xlink:href="classmachine_1_1_ref.html#a3137357d0abb2bd75321d6e19024956a" target="_top" xlink:title="ノードが保持するデータの文字列表現を返す. interface XFormattableで必要。">
<polygon fill="white" stroke="black" points="220.48,-19.5 220.48,-38.5 314.48,-38.5 314.48,-19.5 220.48,-19.5"/>
<text text-anchor="middle" x="267.48" y="-26.5" font-family="Helvetica,sans-Serif" font-size="10.00">machine.Ref.data</text>
</a>
</g>
</g>
<!-- Node2&#45;&gt;Node3 -->
<g id="edge3" class="edge">
<title>Node2&#45;&gt;Node3</title>
<path fill="none" stroke="midnightblue" d="M184.53,-29C192.95,-29 201.67,-29 210.14,-29"/>
<polygon fill="midnightblue" stroke="midnightblue" points="210.32,-32.5 220.32,-29 210.32,-25.5 210.32,-32.5"/>
</g>
<!-- Node4 -->
<g id="node4" class="node">
<title>Node4</title>
<g id="a_node4"><a xlink:href="classmachine_1_1_ref.html#a78ee178b6a73658d65ca60da4d1e6683" target="_top" xlink:title="変数名文字列を返す.">
<polygon fill="white" stroke="black" points="350.48,-38.5 350.48,-57.5 465.48,-57.5 465.48,-38.5 350.48,-38.5"/>
<text text-anchor="middle" x="407.98" y="-45.5" font-family="Helvetica,sans-Serif" font-size="10.00">machine.Ref.getName</text>
</a>
</g>
</g>
<!-- Node3&#45;&gt;Node4 -->
<g id="edge4" class="edge">
<title>Node3&#45;&gt;Node4</title>
<path fill="none" stroke="midnightblue" d="M314.6,-35.33C322.86,-36.46 331.61,-37.66 340.31,-38.85"/>
<polygon fill="midnightblue" stroke="midnightblue" points="340.08,-42.36 350.46,-40.25 341.03,-35.42 340.08,-42.36"/>
</g>
<!-- Node5 -->
<g id="node5" class="node">
<title>Node5</title>
<g id="a_node5"><a xlink:href="classmachine_1_1_ref.html#aac66012db63fd274931e6690afa76212" target="_top" xlink:title="データ型を返す.">
<polygon fill="white" stroke="black" points="360.98,-0.5 360.98,-19.5 454.98,-19.5 454.98,-0.5 360.98,-0.5"/>
<text text-anchor="middle" x="407.98" y="-7.5" font-family="Helvetica,sans-Serif" font-size="10.00">machine.Ref.type</text>
</a>
</g>
</g>
<!-- Node3&#45;&gt;Node5 -->
<g id="edge5" class="edge">
<title>Node3&#45;&gt;Node5</title>
<path fill="none" stroke="midnightblue" d="M314.6,-22.67C326.16,-21.09 338.68,-19.37 350.68,-17.72"/>
<polygon fill="midnightblue" stroke="midnightblue" points="351.16,-21.19 360.59,-16.36 350.21,-14.26 351.16,-21.19"/>
</g>
<!-- Node6 -->
<g id="node6" class="node">
<title>Node6</title>
<g id="a_node6"><a xlink:href="classtype_1_1_x_type_item.html#a376d814d15cc5ae21afd6425d0780ad9" target="_top" xlink:title="この型変数thisがもつ値型を返す。">
<polygon fill="white" stroke="red" points="501.48,-0.5 501.48,-19.5 598.48,-19.5 598.48,-0.5 501.48,-0.5"/>
<text text-anchor="middle" x="549.98" y="-7.5" font-family="Helvetica,sans-Serif" font-size="10.00">type.XTypeItem.ty</text>
</a>
</g>
</g>
<!-- Node5&#45;&gt;Node6 -->
<g id="edge6" class="edge">
<title>Node5&#45;&gt;Node6</title>
<path fill="none" stroke="midnightblue" d="M455.21,-10C466.67,-10 479.09,-10 491.03,-10"/>
<polygon fill="midnightblue" stroke="midnightblue" points="491.36,-13.5 501.36,-10 491.36,-6.5 491.36,-13.5"/>
</g>
</g>
</svg>
        <g id="navigator" transform="translate(0 0)" fill="#404254">
                <rect fill="#f2f5e9" fill-opacity="0.5" stroke="#606060" stroke-width=".5" x="0" y="0" width="60" height="60"/>
                <use id="zoomplus" xlink:href="#zoomPlus" x="17" y="9" onmousedown="handleZoom(evt,'in')"/>
                <use id="zoomminus" xlink:href="#zoomMin" x="42" y="9" onmousedown="handleZoom(evt,'out')"/>
                <use id="reset" xlink:href="#resetDef" x="30" y="36" onmousedown="handleReset()"/>
                <g id="arrowUp" xlink:href="#dirArrow" transform="translate(30 24)" onmousedown="handlePan(0,-1)">
                  <use xlink:href="#rim" fill="#404040">
                        <set attributeName="fill" to="#808080" begin="arrowUp.mouseover" end="arrowUp.mouseout"/>
                  </use>
                  <path fill="none" stroke="white" stroke-width="1.5" d="M0,-3.0v7 M-2.5,-0.5L0,-3.0L2.5,-0.5"/>
                </g>
                <g id="arrowRight" xlink:href="#dirArrow" transform="rotate(90) translate(36 -43)" onmousedown="handlePan(1,0)">
                  <use xlink:href="#rim" fill="#404040">
                        <set attributeName="fill" to="#808080" begin="arrowRight.mouseover" end="arrowRight.mouseout"/>
                  </use>
                  <path fill="none" stroke="white" stroke-width="1.5" d="M0,-3.0v7 M-2.5,-0.5L0,-3.0L2.5,-0.5"/>
                </g>
                <g id="arrowDown" xlink:href="#dirArrow" transform="rotate(180) translate(-30 -48)" onmousedown="handlePan(0,1)">
                  <use xlink:href="#rim" fill="#404040">
                        <set attributeName="fill" to="#808080" begin="arrowDown.mouseover" end="arrowDown.mouseout"/>
                  </use>
                  <path fill="none" stroke="white" stroke-width="1.5" d="M0,-3.0v7 M-2.5,-0.5L0,-3.0L2.5,-0.5"/>
                </g>
                <g id="arrowLeft" xlink:href="#dirArrow" transform="rotate(270) translate(-36 17)" onmousedown="handlePan(-1,0)">
                  <use xlink:href="#rim" fill="#404040">
                        <set attributeName="fill" to="#808080" begin="arrowLeft.mouseover" end="arrowLeft.mouseout"/>
                  </use>
                  <path fill="none" stroke="white" stroke-width="1.5" d="M0,-3.0v7 M-2.5,-0.5L0,-3.0L2.5,-0.5"/>
                </g>
        </g>
        <svg viewBox="0 0 15 15" width="100%" height="30px" preserveAspectRatio="xMaxYMin meet">
         <g id="arrow_out" transform="scale(0.3 0.3)">
          <a xlink:href="classmachine_1_1_ref_list_a61a1316af87e4a6656beb03056a26f12_cgraph_org.svg" target="_base">
           <rect id="button" ry="5" rx="5" y="6" x="6" height="38" width="38"
                fill="#f2f5e9" fill-opacity="0.5" stroke="#606060" stroke-width="1.0"/>
           <path id="arrow"
             d="M 11.500037,31.436501 C 11.940474,20.09759 22.043105,11.32322 32.158766,21.979434 L 37.068811,17.246167 C 37.068811,17.246167 37.088388,32 37.088388,32 L 22.160133,31.978069 C 22.160133,31.978069 26.997745,27.140456 26.997745,27.140456 C 18.528582,18.264221 13.291696,25.230495 11.500037,31.436501 z"
             style="fill:#404040;"/>
          </a>
         </g>
        </svg>
</svg>
