<?xml version="1.0" encoding="UTF-8" standalone="no"?>
<!DOCTYPE svg PUBLIC "-//W3C//DTD SVG 1.1//EN"
 "http://www.w3.org/Graphics/SVG/1.1/DTD/svg11.dtd">
<!-- Generated by graphviz version 2.38.0 (20140413.2041)
 -->
<!-- Title: pushing Pages: 1 -->
<svg width="378pt" height="27pt"
 viewBox="0.00 0.00 377.56 27.00" xmlns="http://www.w3.org/2000/svg" xmlns:xlink="http://www.w3.org/1999/xlink">
<g id="graph0" class="graph" transform="scale(1 1) rotate(0) translate(4 23)">
<title>pushing</title>
<polygon fill="white" stroke="none" points="-4,4 -4,-23 373.556,-23 373.556,4 -4,4"/>
<!-- Node1 -->
<g id="node1" class="node"><title>Node1</title>
<g id="a_node1"><a xlink:title="クエリのコード生成を行う．">
<polygon fill="#bfbfbf" stroke="black" points="318.526,-0.5 318.526,-18.5 369.556,-18.5 369.556,-0.5 318.526,-0.5"/>
<text text-anchor="middle" x="344.041" y="-6.5" font-family="Helvetica,sans-Serif" font-size="10.00">pushing</text>
</a>
</g>
</g>
<!-- Node2 -->
<g id="node2" class="node"><title>Node2</title>
<g id="a_node2"><a xlink:href="classcompile_1_1_x_compiler.html#a9a5b5de067fc28642be5e1f787527c21" target="_top" xlink:title="入力ストリーム{is}から与えられたクエリをプログラムにコンパイルする.">
<polygon fill="white" stroke="black" points="145.921,-0.5 145.921,-18.5 282.526,-18.5 282.526,-0.5 145.921,-0.5"/>
<text text-anchor="middle" x="214.224" y="-6.5" font-family="Helvetica,sans-Serif" font-size="10.00">compile.XCompiler.compile</text>
</a>
</g>
</g>
<!-- Node1&#45;&gt;Node2 -->
<g id="edge1" class="edge"><title>Node1&#45;&gt;Node2</title>
<path fill="none" stroke="midnightblue" d="M308.345,-9.5C300.311,-9.5 291.492,-9.5 282.583,-9.5"/>
<polygon fill="midnightblue" stroke="midnightblue" points="308.397,-13.0001 318.397,-9.5 308.397,-6.0001 308.397,-13.0001"/>
</g>
<!-- Node3 -->
<g id="node3" class="node"><title>Node3</title>
<g id="a_node3"><a xlink:href="classcompile_1_1_x_c_test.html#a8b260eecbaabcef8473fd87ada040682" target="_top" xlink:title="テスト用のサンプルプログラム。">
<polygon fill="white" stroke="black" points="0,-0.5 0,-18.5 109.921,-18.5 109.921,-0.5 0,-0.5"/>
<text text-anchor="middle" x="54.9604" y="-6.5" font-family="Helvetica,sans-Serif" font-size="10.00">compile.XCTest.main</text>
</a>
</g>
</g>
<!-- Node2&#45;&gt;Node3 -->
<g id="edge2" class="edge"><title>Node2&#45;&gt;Node3</title>
<path fill="none" stroke="midnightblue" d="M135.587,-9.5C127.015,-9.5 118.428,-9.5 110.233,-9.5"/>
<polygon fill="midnightblue" stroke="midnightblue" points="135.617,-13.0001 145.617,-9.5 135.617,-6.0001 135.617,-13.0001"/>
</g>
</g>
</svg>
