<?xml version="1.0" encoding="UTF-8" standalone="no"?>
<!DOCTYPE svg PUBLIC "-//W3C//DTD SVG 1.1//EN"
 "http://www.w3.org/Graphics/SVG/1.1/DTD/svg11.dtd">
<!-- Generated by graphviz version 2.47.1 (20210417.1919)
 -->
<!-- Title: AutoStack&lt; S &gt; Pages: 1 -->
<svg width="580pt" height="173pt"
 viewBox="0.00 0.00 579.50 173.00" xmlns="http://www.w3.org/2000/svg" xmlns:xlink="http://www.w3.org/1999/xlink">
<g id="graph0" class="graph" transform="scale(1 1) rotate(0) translate(4 169)">
<title>AutoStack&lt; S &gt;</title>
<polygon fill="white" stroke="transparent" points="-4,4 -4,-169 575.5,-169 575.5,4 -4,4"/>
<!-- Node1 -->
<g id="node1" class="node">
<title>Node1</title>
<g id="a_node1"><a xlink:title="再利用可能な型Sのオブジェクトを要素に持つスタックの実装.">
<polygon fill="#bfbfbf" stroke="black" points="220,-0.5 220,-19.5 307,-19.5 307,-0.5 220,-0.5"/>
<text text-anchor="middle" x="263.5" y="-7.5" font-family="Helvetica,sans-Serif" font-size="10.00">AutoStack&lt; S &gt;</text>
</a>
</g>
</g>
<!-- Node2 -->
<g id="node2" class="node">
<title>Node2</title>
<g id="a_node2"><a xlink:href="classutil_1_1_stack_base.html" target="_top" xlink:title=" ">
<polygon fill="white" stroke="black" points="0,-67.5 0,-86.5 89,-86.5 89,-67.5 0,-67.5"/>
<text text-anchor="middle" x="44.5" y="-74.5" font-family="Helvetica,sans-Serif" font-size="10.00">StackBase&lt; S &gt;</text>
</a>
</g>
</g>
<!-- Node2&#45;&gt;Node1 -->
<g id="edge1" class="edge">
<title>Node2&#45;&gt;Node1</title>
<path fill="none" stroke="midnightblue" d="M83.21,-64.51C126.56,-51.65 195.8,-31.09 234.65,-19.56"/>
<polygon fill="midnightblue" stroke="midnightblue" points="82.17,-61.17 73.58,-67.37 84.16,-67.88 82.17,-61.17"/>
</g>
<!-- Node3 -->
<g id="node3" class="node">
<title>Node3</title>
<g id="a_node3"><a xlink:href="interfaceutil_1_1_stackable.html" target="_top" xlink:title="レベル付きスタックを実装するための最小限のインタフェース">
<polygon fill="white" stroke="black" points="107.5,-67.5 107.5,-86.5 167.5,-86.5 167.5,-67.5 107.5,-67.5"/>
<text text-anchor="middle" x="137.5" y="-74.5" font-family="Helvetica,sans-Serif" font-size="10.00">Stackable</text>
</a>
</g>
</g>
<!-- Node3&#45;&gt;Node1 -->
<g id="edge2" class="edge">
<title>Node3&#45;&gt;Node1</title>
<path fill="none" stroke="midnightblue" d="M163.14,-62.77C188.09,-49.9 225.3,-30.71 246.7,-19.67"/>
<polygon fill="midnightblue" stroke="midnightblue" points="161.51,-59.67 154.23,-67.37 164.72,-65.89 161.51,-59.67"/>
</g>
<!-- Node4 -->
<g id="node4" class="node">
<title>Node4</title>
<g id="a_node4"><a xlink:title=" ">
<polygon fill="white" stroke="#bfbfbf" points="186,-67.5 186,-86.5 265,-86.5 265,-67.5 186,-67.5"/>
<text text-anchor="middle" x="225.5" y="-74.5" font-family="Helvetica,sans-Serif" font-size="10.00">Resetter&lt; S &gt;</text>
</a>
</g>
</g>
<!-- Node4&#45;&gt;Node1 -->
<g id="edge3" class="edge">
<title>Node4&#45;&gt;Node1</title>
<path fill="none" stroke="#9a32cd" stroke-dasharray="5,2" d="M233.13,-58.04C236.1,-51.58 239.71,-44.33 243.5,-38 247.34,-31.6 252.34,-24.85 256.38,-19.7"/>
<polygon fill="#9a32cd" stroke="#9a32cd" points="229.88,-56.74 229.04,-67.3 236.28,-59.57 229.88,-56.74"/>
<text text-anchor="middle" x="262" y="-41" font-family="Helvetica,sans-Serif" font-size="10.00"> resetter</text>
</g>
<!-- Node5 -->
<g id="node5" class="node">
<title>Node5</title>
<g id="a_node5"><a xlink:href="classutil_1_1_report.html" target="_top" xlink:title="標準出力への入れ子出力のためのレポートオブジェクトのクラス.">
<polygon fill="white" stroke="black" points="283,-67.5 283,-86.5 354,-86.5 354,-67.5 283,-67.5"/>
<text text-anchor="middle" x="318.5" y="-74.5" font-family="Helvetica,sans-Serif" font-size="10.00">Report&lt; S &gt;</text>
</a>
</g>
</g>
<!-- Node5&#45;&gt;Node1 -->
<g id="edge4" class="edge">
<title>Node5&#45;&gt;Node1</title>
<path fill="none" stroke="#9a32cd" stroke-dasharray="5,2" d="M304.34,-59.27C293.62,-46.6 279.32,-29.7 270.8,-19.63"/>
<polygon fill="#9a32cd" stroke="#9a32cd" points="301.95,-61.86 311.08,-67.23 307.29,-57.34 301.95,-61.86"/>
<text text-anchor="middle" x="305.5" y="-41" font-family="Helvetica,sans-Serif" font-size="10.00"> repo</text>
</g>
<!-- Node6 -->
<g id="node6" class="node">
<title>Node6</title>
<g id="a_node6"><a xlink:title=" ">
<polygon fill="white" stroke="#bfbfbf" points="163.5,-145.5 163.5,-164.5 205.5,-164.5 205.5,-145.5 163.5,-145.5"/>
<text text-anchor="middle" x="184.5" y="-152.5" font-family="Helvetica,sans-Serif" font-size="10.00">String</text>
</a>
</g>
</g>
<!-- Node6&#45;&gt;Node5 -->
<g id="edge5" class="edge">
<title>Node6&#45;&gt;Node5</title>
<path fill="none" stroke="#9a32cd" stroke-dasharray="5,2" d="M192.86,-136.16C198.66,-125.63 207.34,-112.87 218.5,-105 223.92,-101.18 256.29,-92.8 282.76,-86.38"/>
<polygon fill="#9a32cd" stroke="#9a32cd" points="189.61,-134.83 188.2,-145.33 195.85,-138 189.61,-134.83"/>
<text text-anchor="middle" x="244.5" y="-113.5" font-family="Helvetica,sans-Serif" font-size="10.00"> STEMSTR</text>
</g>
<!-- Node7 -->
<g id="node7" class="node">
<title>Node7</title>
<g id="a_node7"><a xlink:href="classutil_1_1_stack_base.html" target="_top" xlink:title=" ">
<polygon fill="white" stroke="black" points="223.5,-145.5 223.5,-164.5 331.5,-164.5 331.5,-145.5 223.5,-145.5"/>
<text text-anchor="middle" x="277.5" y="-152.5" font-family="Helvetica,sans-Serif" font-size="10.00">StackBase&lt; String &gt;</text>
</a>
</g>
</g>
<!-- Node7&#45;&gt;Node5 -->
<g id="edge6" class="edge">
<title>Node7&#45;&gt;Node5</title>
<path fill="none" stroke="#9a32cd" stroke-dasharray="5,2" d="M273.96,-135.32C273.07,-125.71 273.53,-114.13 278.5,-105 282.83,-97.05 290.62,-91.01 298.19,-86.67"/>
<polygon fill="#9a32cd" stroke="#9a32cd" points="270.52,-136.03 275.42,-145.43 277.45,-135.03 270.52,-136.03"/>
<text text-anchor="middle" x="287.5" y="-113.5" font-family="Helvetica,sans-Serif" font-size="10.00"> NS</text>
</g>
<!-- Node8 -->
<g id="node8" class="node">
<title>Node8</title>
<g id="a_node8"><a xlink:title=" ">
<polygon fill="white" stroke="#bfbfbf" points="361.5,-145.5 361.5,-164.5 411.5,-164.5 411.5,-145.5 361.5,-145.5"/>
<text text-anchor="middle" x="386.5" y="-152.5" font-family="Helvetica,sans-Serif" font-size="10.00">boolean</text>
</a>
</g>
</g>
<!-- Node8&#45;&gt;Node1 -->
<g id="edge9" class="edge">
<title>Node8&#45;&gt;Node1</title>
<path fill="none" stroke="#9a32cd" stroke-dasharray="5,2" d="M388.29,-135.4C388.64,-126.11 388.24,-114.79 385.5,-105 380.25,-86.21 376.82,-81.26 363.5,-67 342.32,-44.31 309.82,-28.48 287.66,-19.57"/>
<polygon fill="#9a32cd" stroke="#9a32cd" points="384.79,-135.27 387.59,-145.49 391.77,-135.75 384.79,-135.27"/>
<text text-anchor="middle" x="413.5" y="-74.5" font-family="Helvetica,sans-Serif" font-size="10.00"> DEBUG_DATA</text>
</g>
<!-- Node8&#45;&gt;Node5 -->
<g id="edge7" class="edge">
<title>Node8&#45;&gt;Node5</title>
<path fill="none" stroke="#9a32cd" stroke-dasharray="5,2" d="M351.22,-148C339.15,-144.09 326.85,-137.64 319.5,-127 311.28,-115.09 313.54,-97.39 315.98,-86.84"/>
<polygon fill="#9a32cd" stroke="#9a32cd" points="350.62,-151.47 361.19,-150.72 352.46,-144.71 350.62,-151.47"/>
<text text-anchor="middle" x="352.5" y="-119" font-family="Helvetica,sans-Serif" font-size="10.00"> DEBUG_POP</text>
<text text-anchor="middle" x="352.5" y="-108" font-family="Helvetica,sans-Serif" font-size="10.00">toPrint</text>
</g>
<!-- Node9 -->
<g id="node9" class="node">
<title>Node9</title>
<g id="a_node9"><a xlink:title=" ">
<polygon fill="white" stroke="#bfbfbf" points="487.5,-67.5 487.5,-86.5 571.5,-86.5 571.5,-67.5 487.5,-67.5"/>
<text text-anchor="middle" x="529.5" y="-74.5" font-family="Helvetica,sans-Serif" font-size="10.00">Generator&lt; S &gt;</text>
</a>
</g>
</g>
<!-- Node9&#45;&gt;Node1 -->
<g id="edge8" class="edge">
<title>Node9&#45;&gt;Node1</title>
<path fill="none" stroke="#9a32cd" stroke-dasharray="5,2" d="M497.04,-64.03C473.98,-55.85 442.14,-45.23 413.5,-38 378.1,-29.06 337.27,-21.91 307.16,-17.22"/>
<polygon fill="#9a32cd" stroke="#9a32cd" points="496.07,-67.4 506.67,-67.48 498.43,-60.81 496.07,-67.4"/>
<text text-anchor="middle" x="470.5" y="-41" font-family="Helvetica,sans-Serif" font-size="10.00"> generator</text>
</g>
</g>
</svg>
