<?xml version="1.0" encoding="UTF-8" standalone="no"?>
<!DOCTYPE svg PUBLIC "-//W3C//DTD SVG 1.1//EN"
 "http://www.w3.org/Graphics/SVG/1.1/DTD/svg11.dtd">
<!-- Generated by graphviz version 2.47.0 (20210316.0004)
 -->
<!-- Title: space Pages: 1 -->
<!--zoomable 792 -->
<svg id="main" version="1.1" xmlns="http://www.w3.org/2000/svg" xmlns:xlink="http://www.w3.org/1999/xlink" xml:space="preserve" onload="init(evt)">
<style type="text/css"><![CDATA[
.edge:hover path { stroke: red; }
.edge:hover polygon { stroke: red; fill: red; }
]]></style>
<script type="text/javascript"><![CDATA[
var edges = document.getElementsByTagName('g');
if (edges && edges.length) {
  for (var i=0;i<edges.length;i++) {
    if (edges[i].id.substr(0,4)=='edge') {
      edges[i].setAttribute('class','edge');
    }
  }
}
]]></script>
        <defs>
                <circle id="rim" cx="0" cy="0" r="7"/>
                <circle id="rim2" cx="0" cy="0" r="3.5"/>
                <g id="zoomPlus">
                        <use xlink:href="#rim" fill="#404040">
                                <set attributeName="fill" to="#808080" begin="zoomplus.mouseover" end="zoomplus.mouseout"/>
                        </use>
                        <path d="M-4,0h8M0,-4v8" fill="none" stroke="white" stroke-width="1.5" pointer-events="none"/>
                </g>
                <g id="zoomMin">
                        <use xlink:href="#rim" fill="#404040">
                                <set attributeName="fill" to="#808080" begin="zoomminus.mouseover" end="zoomminus.mouseout"/>
                        </use>
                        <path d="M-4,0h8" fill="none" stroke="white" stroke-width="1.5" pointer-events="none"/>
                </g>
                <g id="dirArrow">
                        <path fill="none" stroke="white" stroke-width="1.5" d="M0,-3.0v7 M-2.5,-0.5L0,-3.0L2.5,-0.5"/>
                </g>
               <g id="resetDef">
                       <use xlink:href="#rim2" fill="#404040">
                               <set attributeName="fill" to="#808080" begin="reset.mouseover" end="reset.mouseout"/>
                       </use>
               </g>
        </defs>

<script type="text/javascript">
var viewWidth = 1001;
var viewHeight = 792;
var sectionId = 'dynsection-7';
</script>
<script xlink:href="svgpan.js"/>
<svg id="graph" class="graph">
<g id="viewport">
<title>space</title>
<polygon fill="white" stroke="transparent" points="-4,4 -4,-788.24 997,-788.24 997,4 -4,4"/>
<!-- Node1 -->
<g id="node1" class="node">
<title>Node1</title>
<g id="a_node1"><a xlink:title="空白を出力する.">
<polygon fill="#bfbfbf" stroke="black" points="950,-528 950,-547 993,-547 993,-528 950,-528"/>
<text text-anchor="middle" x="971.5" y="-535" font-family="Helvetica,sans-Serif" font-size="10.00">space</text>
</a>
</g>
</g>
<!-- Node2 -->
<g id="node2" class="node">
<title>Node2</title>
<g id="a_node2"><a xlink:href="classutil_1_1_yaml_buf.html#a4f8fd03100e4ced3de85f8959d3fcbc1" target="_top" xlink:title="タグ{name}とダブル値{value}の対をバッファに追加する">
<polygon fill="white" stroke="black" points="621,-756 621,-775 709,-775 709,-756 621,-756"/>
<text text-anchor="middle" x="665" y="-763" font-family="Helvetica,sans-Serif" font-size="10.00">util.YamlBuf.add</text>
</a>
</g>
</g>
<!-- Node1&#45;&gt;Node2 -->
<g id="edge1" class="edge">
<title>Node1&#45;&gt;Node2</title>
<path fill="none" stroke="midnightblue" d="M968.04,-557.37C961.74,-604.73 943.42,-722.14 914,-746.5 854.96,-795.38 758.57,-785.61 705,-775.03"/>
<polygon fill="midnightblue" stroke="midnightblue" points="971.55,-557.54 969.35,-547.17 964.6,-556.64 971.55,-557.54"/>
</g>
<!-- Node3 -->
<g id="node3" class="node">
<title>Node3</title>
<g id="a_node3"><a xlink:href="classutil_1_1_yaml_buf.html#ad53cd7a10238ce08a4f6b30b3460e3fa" target="_top" xlink:title="属性名を追加する。">
<polygon fill="white" stroke="black" points="776,-490 776,-509 906,-509 906,-490 776,-490"/>
<text text-anchor="middle" x="841" y="-497" font-family="Helvetica,sans-Serif" font-size="10.00">util.YamlBuf.addAttrName</text>
</a>
</g>
</g>
<!-- Node1&#45;&gt;Node3 -->
<g id="edge2" class="edge">
<title>Node1&#45;&gt;Node3</title>
<path fill="none" stroke="midnightblue" d="M940.41,-526.97C931.91,-524.11 922.62,-521.08 914,-518.5 903.1,-515.23 891.19,-511.97 880.25,-509.09"/>
<polygon fill="midnightblue" stroke="midnightblue" points="939.35,-530.3 949.94,-530.22 941.61,-523.68 939.35,-530.3"/>
</g>
<!-- Node4 -->
<g id="node4" class="node">
<title>Node4</title>
<g id="a_node4"><a xlink:href="classutil_1_1_foldable_string_buf.html#ab3d4d59d8a1bb8f1cffeef544c66c052" target="_top" xlink:title="改行を出力する.">
<polygon fill="white" stroke="black" points="826.5,-528 826.5,-547 855.5,-547 855.5,-528 826.5,-528"/>
<text text-anchor="middle" x="841" y="-535" font-family="Helvetica,sans-Serif" font-size="10.00">nl</text>
</a>
</g>
</g>
<!-- Node1&#45;&gt;Node4 -->
<g id="edge3" class="edge">
<title>Node1&#45;&gt;Node4</title>
<path fill="none" stroke="midnightblue" d="M939.52,-537.5C912.9,-537.5 875.75,-537.5 855.86,-537.5"/>
<polygon fill="midnightblue" stroke="midnightblue" points="939.85,-541 949.85,-537.5 939.85,-534 939.85,-541"/>
</g>
<!-- Node33 -->
<g id="node32" class="node">
<title>Node33</title>
<g id="a_node32"><a xlink:href="classutil_1_1_yaml_buf.html#a5005fc24515d55a5b8984d5c7f2e78c1" target="_top" xlink:title="調整された空白をバッファに追加する">
<polygon fill="white" stroke="black" points="792,-718 792,-737 890,-737 890,-718 792,-718"/>
<text text-anchor="middle" x="841" y="-725" font-family="Helvetica,sans-Serif" font-size="10.00">util.YamlBuf.space</text>
</a>
</g>
</g>
<!-- Node1&#45;&gt;Node33 -->
<g id="edge44" class="edge">
<title>Node1&#45;&gt;Node33</title>
<path fill="none" stroke="midnightblue" d="M958.28,-555.56C931.68,-594.9 869.24,-687.22 848.69,-717.61"/>
<polygon fill="midnightblue" stroke="midnightblue" points="961.25,-557.43 963.95,-547.18 955.45,-553.51 961.25,-557.43"/>
</g>
<!-- Node34 -->
<g id="node33" class="node">
<title>Node34</title>
<g id="a_node33"><a xlink:href="classformat_1_1_node_formatter_base.html#ad2ed4947c266a995d1a0fb4b766bc824" target="_top" xlink:title="クエリの項表現の文字列（qsring）を返す.">
<polygon fill="white" stroke="black" points="768,-440.5 768,-470.5 914,-470.5 914,-440.5 768,-440.5"/>
<text text-anchor="start" x="776" y="-458.5" font-family="Helvetica,sans-Serif" font-size="10.00">format.NodeFormatterBase.to</text>
<text text-anchor="middle" x="841" y="-447.5" font-family="Helvetica,sans-Serif" font-size="10.00">EmitString</text>
</a>
</g>
</g>
<!-- Node1&#45;&gt;Node34 -->
<g id="edge47" class="edge">
<title>Node1&#45;&gt;Node34</title>
<path fill="none" stroke="midnightblue" d="M956.69,-519.76C946.16,-507.28 930.67,-491 914,-480.5 907.95,-476.69 901.25,-473.38 894.45,-470.52"/>
<polygon fill="midnightblue" stroke="midnightblue" points="954.11,-522.14 963.14,-527.68 959.53,-517.72 954.11,-522.14"/>
</g>
<!-- Node5 -->
<g id="node5" class="node">
<title>Node5</title>
<g id="a_node5"><a xlink:href="classutil_1_1_yaml_buf.html#a8663c31f082a838793228ce664adf114" target="_top" xlink:title="配列モードで、文字列valueを正しい段下げでバッファに追加する。">
<polygon fill="white" stroke="black" points="425,-553 425,-572 540,-572 540,-553 425,-553"/>
<text text-anchor="middle" x="482.5" y="-560" font-family="Helvetica,sans-Serif" font-size="10.00">util.YamlBuf.addIndent</text>
</a>
</g>
</g>
<!-- Node4&#45;&gt;Node5 -->
<g id="edge4" class="edge">
<title>Node4&#45;&gt;Node5</title>
<path fill="none" stroke="midnightblue" d="M816.17,-539.17C760.3,-543.09 619.62,-552.95 540.25,-558.52"/>
<polygon fill="midnightblue" stroke="midnightblue" points="816.73,-542.64 826.46,-538.45 816.24,-535.66 816.73,-542.64"/>
</g>
<!-- Node7 -->
<g id="node7" class="node">
<title>Node7</title>
<g id="a_node7"><a xlink:href="classutil_1_1_yaml_buf.html#aa2dbf5580c67426222a69dd024b3789c" target="_top" xlink:title="配列のモードを終了する.">
<polygon fill="white" stroke="black" points="605.5,-452 605.5,-471 724.5,-471 724.5,-452 605.5,-452"/>
<text text-anchor="middle" x="665" y="-459" font-family="Helvetica,sans-Serif" font-size="10.00">util.YamlBuf.closeArray</text>
</a>
</g>
</g>
<!-- Node4&#45;&gt;Node7 -->
<g id="edge6" class="edge">
<title>Node4&#45;&gt;Node7</title>
<path fill="none" stroke="midnightblue" d="M816.11,-534.59C801.44,-532 782.71,-527.22 768,-518.5 747.99,-506.63 751.88,-492.59 732,-480.5 725.68,-476.66 718.56,-473.56 711.38,-471.08"/>
<polygon fill="midnightblue" stroke="midnightblue" points="815.99,-538.11 826.4,-536.16 817.05,-531.19 815.99,-538.11"/>
</g>
<!-- Node13 -->
<g id="node13" class="node">
<title>Node13</title>
<g id="a_node13"><a xlink:href="classutil_1_1_yaml_buf.html#a74d796e1e4a0dfe981f1cd331ca2a8ad" target="_top" xlink:title="オブジェクトのモードを終了する.">
<polygon fill="white" stroke="black" points="610,-280 610,-299 720,-299 720,-280 610,-280"/>
<text text-anchor="middle" x="665" y="-287" font-family="Helvetica,sans-Serif" font-size="10.00">util.YamlBuf.closeObj</text>
</a>
</g>
</g>
<!-- Node4&#45;&gt;Node13 -->
<g id="edge14" class="edge">
<title>Node4&#45;&gt;Node13</title>
<path fill="none" stroke="midnightblue" d="M816.48,-536.96C800.86,-535.38 780.93,-530.82 768,-518.5 729.54,-481.84 753.35,-453.16 732,-404.5 714.06,-363.6 685.41,-318.65 672.58,-299.27"/>
<polygon fill="midnightblue" stroke="midnightblue" points="816.25,-540.45 826.47,-537.64 816.73,-533.47 816.25,-540.45"/>
</g>
<!-- Node18 -->
<g id="node18" class="node">
<title>Node18</title>
<g id="a_node18"><a xlink:href="classutil_1_1_foldable_string_buf.html#ad8c09f96206ccb28fc5e37e0e47eb22d" target="_top" xlink:title="入れ子文字列を、正しく段下げしながら読み込む。">
<polygon fill="white" stroke="black" points="635,-50 635,-69 695,-69 695,-50 635,-50"/>
<text text-anchor="middle" x="665" y="-57" font-family="Helvetica,sans-Serif" font-size="10.00">includeStr</text>
</a>
</g>
</g>
<!-- Node4&#45;&gt;Node18 -->
<g id="edge20" class="edge">
<title>Node4&#45;&gt;Node18</title>
<path fill="none" stroke="midnightblue" d="M815.98,-537.73C799.96,-536.52 779.76,-532.08 768,-518.5 722.03,-465.4 750.78,-272.18 732,-204.5 717.14,-150.93 684.93,-92.09 671.77,-69.28"/>
<polygon fill="midnightblue" stroke="midnightblue" points="816.11,-541.24 826.24,-538.14 816.39,-534.25 816.11,-541.24"/>
</g>
<!-- Node22 -->
<g id="node22" class="node">
<title>Node22</title>
<g id="a_node22"><a xlink:href="classutil_1_1_yaml_buf.html#a50f6097b032e431f7d3340bdd3768d9f" target="_top" xlink:title="入れ子文字列を、正しく段下げしながら読み込む。">
<polygon fill="white" stroke="black" points="607,-490 607,-509 723,-509 723,-490 607,-490"/>
<text text-anchor="middle" x="665" y="-497" font-family="Helvetica,sans-Serif" font-size="10.00">util.YamlBuf.includeStr</text>
</a>
</g>
</g>
<!-- Node4&#45;&gt;Node22 -->
<g id="edge24" class="edge">
<title>Node4&#45;&gt;Node22</title>
<path fill="none" stroke="midnightblue" d="M816.5,-532.37C789.17,-526.4 743.47,-516.42 709.58,-509.02"/>
<polygon fill="midnightblue" stroke="midnightblue" points="815.83,-535.8 826.35,-534.52 817.32,-528.97 815.83,-535.8"/>
</g>
<!-- Node23 -->
<g id="node23" class="node">
<title>Node23</title>
<g id="a_node23"><a xlink:href="classutil_1_1_foldable_string_buf.html#ac0544cb00ffba355dfe72d6a4044e78c" target="_top" xlink:title="新しい行として、文字列を出力する.">
<polygon fill="white" stroke="black" points="649,-680 649,-699 681,-699 681,-680 649,-680"/>
<text text-anchor="middle" x="665" y="-687" font-family="Helvetica,sans-Serif" font-size="10.00">line</text>
</a>
</g>
</g>
<!-- Node4&#45;&gt;Node23 -->
<g id="edge26" class="edge">
<title>Node4&#45;&gt;Node23</title>
<path fill="none" stroke="midnightblue" d="M829.84,-556.27C813.23,-585.18 777.49,-640.4 732,-670.5 716.49,-680.76 695.37,-685.57 681.24,-687.77"/>
<polygon fill="midnightblue" stroke="midnightblue" points="833.07,-557.66 834.9,-547.23 826.96,-554.24 833.07,-557.66"/>
</g>
<!-- Node24 -->
<g id="node24" class="node">
<title>Node24</title>
<g id="a_node24"><a xlink:href="classutil_1_1_yaml_buf.html#abb9a0f5723e48d12790f370d16ec068a" target="_top" xlink:title="改行">
<polygon fill="white" stroke="black" points="625,-642 625,-661 705,-661 705,-642 625,-642"/>
<text text-anchor="middle" x="665" y="-649" font-family="Helvetica,sans-Serif" font-size="10.00">util.YamlBuf.nl</text>
</a>
</g>
</g>
<!-- Node4&#45;&gt;Node24 -->
<g id="edge27" class="edge">
<title>Node4&#45;&gt;Node24</title>
<path fill="none" stroke="midnightblue" d="M824.97,-554.76C805.54,-576.02 769.71,-611.86 732,-632.5 723.74,-637.02 714.29,-640.56 705.17,-643.3"/>
<polygon fill="midnightblue" stroke="midnightblue" points="827.73,-556.91 831.8,-547.13 822.52,-552.24 827.73,-556.91"/>
</g>
<!-- Node25 -->
<g id="node25" class="node">
<title>Node25</title>
<g id="a_node25"><a xlink:href="classutil_1_1_foldable_string_buf.html#a23199bc8ccfa76c48cf9213752b46476" target="_top" xlink:title="フラグtoFoldが真ならば改行し、そうでなければ空白を出力する.">
<polygon fill="white" stroke="black" points="650.5,-604 650.5,-623 679.5,-623 679.5,-604 650.5,-604"/>
<text text-anchor="middle" x="665" y="-611" font-family="Helvetica,sans-Serif" font-size="10.00">nl</text>
</a>
</g>
</g>
<!-- Node4&#45;&gt;Node25 -->
<g id="edge28" class="edge">
<title>Node4&#45;&gt;Node25</title>
<path fill="none" stroke="midnightblue" d="M817.81,-550.95C796.41,-563.49 762.83,-582.08 732,-594.5 714.41,-601.58 693.21,-607.2 679.67,-610.43"/>
<polygon fill="midnightblue" stroke="midnightblue" points="819.64,-553.93 826.46,-545.82 816.07,-547.91 819.64,-553.93"/>
</g>
<!-- Node26 -->
<g id="node26" class="node">
<title>Node26</title>
<g id="a_node26"><a xlink:href="classutil_1_1_yaml_buf.html#a0cdc3f00b2d8dc03acf755b2e205bd55" target="_top" xlink:title="配列のモードを開始する.">
<polygon fill="white" stroke="black" points="607,-414 607,-433 723,-433 723,-414 607,-414"/>
<text text-anchor="middle" x="665" y="-421" font-family="Helvetica,sans-Serif" font-size="10.00">util.YamlBuf.openArray</text>
</a>
</g>
</g>
<!-- Node4&#45;&gt;Node26 -->
<g id="edge29" class="edge">
<title>Node4&#45;&gt;Node26</title>
<path fill="none" stroke="midnightblue" d="M816.01,-536.26C800.77,-534.34 781.44,-529.67 768,-518.5 739.25,-494.62 760.48,-466.7 732,-442.5 727.46,-438.64 722.17,-435.56 716.61,-433.11"/>
<polygon fill="midnightblue" stroke="midnightblue" points="815.96,-539.77 826.25,-537.23 816.62,-532.8 815.96,-539.77"/>
</g>
<!-- Node27 -->
<g id="node27" class="node">
<title>Node27</title>
<g id="a_node27"><a xlink:href="classutil_1_1_yaml_buf.html#a0ac66c68634f271c4e64c2fac7c39ae5" target="_top" xlink:title="オブジェクトのモードを開始する.">
<polygon fill="white" stroke="black" points="611,-214 611,-233 719,-233 719,-214 611,-214"/>
<text text-anchor="middle" x="665" y="-221" font-family="Helvetica,sans-Serif" font-size="10.00">util.YamlBuf.openObj</text>
</a>
</g>
</g>
<!-- Node4&#45;&gt;Node27 -->
<g id="edge34" class="edge">
<title>Node4&#45;&gt;Node27</title>
<path fill="none" stroke="midnightblue" d="M816.1,-537.62C800.14,-536.35 779.96,-531.9 768,-518.5 693.85,-435.39 790.03,-365.56 732,-270.5 721.59,-253.45 702.42,-240.85 687.42,-233.02"/>
<polygon fill="midnightblue" stroke="midnightblue" points="816.18,-541.13 826.33,-538.06 816.49,-534.14 816.18,-541.13"/>
</g>
<!-- Node32 -->
<g id="node31" class="node">
<title>Node32</title>
<g id="a_node31"><a xlink:href="classutil_1_1_yaml_buf.html#a4048c4dbacc178a6483bd8b894b78f18" target="_top" xlink:title="要素列を中かっこで囲んだオブジェクト表現の文字列を返す．">
<polygon fill="white" stroke="black" points="598,-566 598,-585 732,-585 732,-566 598,-566"/>
<text text-anchor="middle" x="665" y="-573" font-family="Helvetica,sans-Serif" font-size="10.00">util.YamlBuf.toObjectString</text>
</a>
</g>
</g>
<!-- Node4&#45;&gt;Node32 -->
<g id="edge43" class="edge">
<title>Node4&#45;&gt;Node32</title>
<path fill="none" stroke="midnightblue" d="M816.5,-542.63C789.17,-548.6 743.47,-558.58 709.58,-565.98"/>
<polygon fill="midnightblue" stroke="midnightblue" points="817.32,-546.03 826.35,-540.48 815.83,-539.2 817.32,-546.03"/>
</g>
<!-- Node6 -->
<g id="node6" class="node">
<title>Node6</title>
<g id="a_node6"><a xlink:href="classframe_1_1_frame_stack_uni.html#ad146fa8579a5f8a876c4688cc5a68520" target="_top" xlink:title="フレームスタックの文字列表現を返す.">
<polygon fill="white" stroke="black" points="0,-477 0,-496 149,-496 149,-477 0,-477"/>
<text text-anchor="middle" x="74.5" y="-484" font-family="Helvetica,sans-Serif" font-size="10.00">frame.FrameStackUni.toString</text>
</a>
</g>
</g>
<!-- Node5&#45;&gt;Node6 -->
<g id="edge5" class="edge">
<title>Node5&#45;&gt;Node6</title>
<path fill="none" stroke="midnightblue" d="M414.6,-558.77C354,-554.36 262.57,-545.12 185,-526.5 153.71,-518.99 119.05,-505.38 97.27,-496.14"/>
<polygon fill="midnightblue" stroke="midnightblue" points="414.58,-562.28 424.8,-559.49 415.07,-555.3 414.58,-562.28"/>
</g>
<!-- Node8 -->
<g id="node8" class="node">
<title>Node8</title>
<g id="a_node8"><a xlink:href="classutil_1_1_util.html#a4581c93b5836ca546d74ed8e57228386" target="_top" xlink:title="要素の型パラメータTをもつ配列と、YamlBufの初期化関数と要素の変換関数を受け取り、清書文字列を返す。">
<polygon fill="white" stroke="black" points="428.5,-477 428.5,-496 536.5,-496 536.5,-477 428.5,-477"/>
<text text-anchor="middle" x="482.5" y="-484" font-family="Helvetica,sans-Serif" font-size="10.00">util.Util.arrayToString</text>
</a>
</g>
</g>
<!-- Node7&#45;&gt;Node8 -->
<g id="edge7" class="edge">
<title>Node7&#45;&gt;Node8</title>
<path fill="none" stroke="midnightblue" d="M595.37,-471.01C575.91,-473.7 555.02,-476.59 536.62,-479.14"/>
<polygon fill="midnightblue" stroke="midnightblue" points="595.97,-474.46 605.4,-469.62 595.01,-467.52 595.97,-474.46"/>
</g>
<!-- Node9 -->
<g id="node9" class="node">
<title>Node9</title>
<g id="a_node9"><a xlink:href="classframe_1_1_frame_stack_uni.html#a2642133c8586f59378e1bc16c614af68" target="_top" xlink:title="フレームポインタfpからフレームの文字列表現を返す">
<polygon fill="white" stroke="black" points="412.5,-427.5 412.5,-457.5 552.5,-457.5 552.5,-427.5 412.5,-427.5"/>
<text text-anchor="start" x="420.5" y="-445.5" font-family="Helvetica,sans-Serif" font-size="10.00">frame.FrameStackUni.frame</text>
<text text-anchor="middle" x="482.5" y="-434.5" font-family="Helvetica,sans-Serif" font-size="10.00">ToString</text>
</a>
</g>
</g>
<!-- Node7&#45;&gt;Node9 -->
<g id="edge8" class="edge">
<title>Node7&#45;&gt;Node9</title>
<path fill="none" stroke="midnightblue" d="M595.39,-454.28C581.45,-452.81 566.78,-451.27 552.81,-449.8"/>
<polygon fill="midnightblue" stroke="midnightblue" points="595.09,-457.77 605.4,-455.33 595.82,-450.8 595.09,-457.77"/>
</g>
<!-- Node10 -->
<g id="node10" class="node">
<title>Node10</title>
<g id="a_node10"><a xlink:href="classast_1_1_ast_list_1_1_list_wrapper.html#a54d57ec79cee3ac4683b86ee2dcddd49" target="_top" xlink:title="ノードの清書出力を返す。">
<polygon fill="white" stroke="black" points="415.5,-378.5 415.5,-408.5 549.5,-408.5 549.5,-378.5 415.5,-378.5"/>
<text text-anchor="start" x="423.5" y="-396.5" font-family="Helvetica,sans-Serif" font-size="10.00">ast.AstList.ListWrapper.get</text>
<text text-anchor="middle" x="482.5" y="-385.5" font-family="Helvetica,sans-Serif" font-size="10.00">CustomObjectString</text>
</a>
</g>
</g>
<!-- Node7&#45;&gt;Node10 -->
<g id="edge9" class="edge">
<title>Node7&#45;&gt;Node10</title>
<path fill="none" stroke="midnightblue" d="M613.76,-448.81C608.35,-446.92 603,-444.82 598,-442.5 580.55,-434.41 579.33,-426.83 562,-418.5 554.39,-414.84 546.13,-411.54 537.9,-408.63"/>
<polygon fill="midnightblue" stroke="midnightblue" points="612.9,-452.21 623.49,-451.97 615.07,-445.55 612.9,-452.21"/>
</g>
<!-- Node11 -->
<g id="node11" class="node">
<title>Node11</title>
<g id="a_node11"><a xlink:href="classutil_1_1_auto_stack.html#aed8f716239f4d48b8d22dc2a80c52263" target="_top" xlink:title="内部仕様のYamlBufの初期化器yamlInitializerと要素の清書器elemWriterをもつ清書出力文字列を返す実装手続き。">
<polygon fill="white" stroke="black" points="422.5,-515 422.5,-534 542.5,-534 542.5,-515 422.5,-515"/>
<text text-anchor="middle" x="482.5" y="-522" font-family="Helvetica,sans-Serif" font-size="10.00">util.AutoStack.toString_</text>
</a>
</g>
</g>
<!-- Node7&#45;&gt;Node11 -->
<g id="edge10" class="edge">
<title>Node7&#45;&gt;Node11</title>
<path fill="none" stroke="midnightblue" d="M613.5,-474.17C608.17,-476.06 602.91,-478.16 598,-480.5 580.41,-488.86 579.77,-497.52 562,-505.5 553.56,-509.29 544.25,-512.39 535.09,-514.9"/>
<polygon fill="midnightblue" stroke="midnightblue" points="614.69,-477.47 623.09,-471.02 612.5,-470.82 614.69,-477.47"/>
</g>
<!-- Node11&#45;&gt;Node6 -->
<g id="edge11" class="edge">
<title>Node11&#45;&gt;Node6</title>
<path fill="none" stroke="midnightblue" d="M412.11,-522.17C351.9,-519.64 262.48,-514.68 185,-505.5 164.88,-503.12 142.85,-499.49 123.85,-496.05"/>
<polygon fill="midnightblue" stroke="midnightblue" points="412.13,-525.67 422.26,-522.58 412.41,-518.68 412.13,-525.67"/>
</g>
<!-- Node12 -->
<g id="node12" class="node">
<title>Node12</title>
<g id="a_node12"><a xlink:href="classutil_1_1_auto_stack.html#ad146fa8579a5f8a876c4688cc5a68520" target="_top" xlink:title="清書出力文字列を返す．">
<polygon fill="white" stroke="black" points="218.5,-477 218.5,-496 333.5,-496 333.5,-477 218.5,-477"/>
<text text-anchor="middle" x="276" y="-484" font-family="Helvetica,sans-Serif" font-size="10.00">util.AutoStack.toString</text>
</a>
</g>
</g>
<!-- Node11&#45;&gt;Node12 -->
<g id="edge12" class="edge">
<title>Node11&#45;&gt;Node12</title>
<path fill="none" stroke="midnightblue" d="M420.05,-513.08C390.79,-507.64 356.2,-501.22 328.36,-496.04"/>
<polygon fill="midnightblue" stroke="midnightblue" points="419.69,-516.57 430.16,-514.96 420.97,-509.69 419.69,-516.57"/>
</g>
<!-- Node12&#45;&gt;Node6 -->
<g id="edge13" class="edge">
<title>Node12&#45;&gt;Node6</title>
<path fill="none" stroke="midnightblue" d="M208.31,-486.5C189.29,-486.5 168.47,-486.5 149.07,-486.5"/>
<polygon fill="midnightblue" stroke="midnightblue" points="208.36,-490 218.36,-486.5 208.36,-483 208.36,-490"/>
</g>
<!-- Node13&#45;&gt;Node6 -->
<g id="edge17" class="edge">
<title>Node13&#45;&gt;Node6</title>
<path fill="none" stroke="midnightblue" d="M633.58,-303.04C613.52,-311.65 586.51,-322.61 562,-330.5 492.74,-352.79 472.69,-348.57 403,-369.5 287.64,-404.15 153.19,-455.85 99.46,-476.98"/>
<polygon fill="midnightblue" stroke="midnightblue" points="635.05,-306.22 642.83,-299.03 632.27,-299.8 635.05,-306.22"/>
</g>
<!-- Node14 -->
<g id="node14" class="node">
<title>Node14</title>
<g id="a_node14"><a xlink:href="classast_1_1_ast_scan_from.html#a3137357d0abb2bd75321d6e19024956a" target="_top" xlink:title="ノード名文字列を返す。">
<polygon fill="white" stroke="black" points="425,-302 425,-321 540,-321 540,-302 425,-302"/>
<text text-anchor="middle" x="482.5" y="-309" font-family="Helvetica,sans-Serif" font-size="10.00">ast.AstScanFrom.data</text>
</a>
</g>
</g>
<!-- Node13&#45;&gt;Node14 -->
<g id="edge15" class="edge">
<title>Node13&#45;&gt;Node14</title>
<path fill="none" stroke="midnightblue" d="M599.84,-297.32C580.35,-299.7 559.08,-302.29 540.12,-304.6"/>
<polygon fill="midnightblue" stroke="midnightblue" points="600.34,-300.78 609.84,-296.1 599.49,-293.84 600.34,-300.78"/>
</g>
<!-- Node15 -->
<g id="node15" class="node">
<title>Node15</title>
<g id="a_node15"><a xlink:href="classutil_1_1_util.html#ac22c9249f3cd4656475c2f5ebefa4d0c" target="_top" xlink:title="オブジェクトのすべてのpublicフィールドを表すyaml文字列を返す．">
<polygon fill="white" stroke="black" points="424.5,-252.5 424.5,-282.5 540.5,-282.5 540.5,-252.5 424.5,-252.5"/>
<text text-anchor="start" x="432.5" y="-270.5" font-family="Helvetica,sans-Serif" font-size="10.00">util.Util.getClassFields</text>
<text text-anchor="middle" x="482.5" y="-259.5" font-family="Helvetica,sans-Serif" font-size="10.00">String</text>
</a>
</g>
</g>
<!-- Node13&#45;&gt;Node15 -->
<g id="edge16" class="edge">
<title>Node13&#45;&gt;Node15</title>
<path fill="none" stroke="midnightblue" d="M599.67,-281.66C580.44,-279.32 559.5,-276.76 540.75,-274.48"/>
<polygon fill="midnightblue" stroke="midnightblue" points="599.49,-285.16 609.84,-282.9 600.34,-278.22 599.49,-285.16"/>
</g>
<!-- Node16 -->
<g id="node16" class="node">
<title>Node16</title>
<g id="a_node16"><a xlink:href="classutil_1_1_stack_base_1_1_stat.html#ad146fa8579a5f8a876c4688cc5a68520" target="_top" xlink:title="文字列表現を返す。">
<polygon fill="white" stroke="black" points="413.5,-214 413.5,-233 551.5,-233 551.5,-214 413.5,-214"/>
<text text-anchor="middle" x="482.5" y="-221" font-family="Helvetica,sans-Serif" font-size="10.00">util.StackBase.Stat.toString</text>
</a>
</g>
</g>
<!-- Node13&#45;&gt;Node16 -->
<g id="edge18" class="edge">
<title>Node13&#45;&gt;Node16</title>
<path fill="none" stroke="midnightblue" d="M637.08,-275.34C616.85,-265.14 588.23,-251.62 562,-242.5 551.67,-238.91 540.35,-235.74 529.6,-233.07"/>
<polygon fill="midnightblue" stroke="midnightblue" points="635.52,-278.48 646.02,-279.91 638.7,-272.24 635.52,-278.48"/>
</g>
<!-- Node17 -->
<g id="node17" class="node">
<title>Node17</title>
<g id="a_node17"><a xlink:href="classframe_1_1_mem_cell.html#aa8d9ae5003a10cc83e0e5fe73b974555" target="_top" xlink:title="メモリセルの内容を表す文字列を返す。">
<polygon fill="white" stroke="black" points="422.5,-176 422.5,-195 542.5,-195 542.5,-176 422.5,-176"/>
<text text-anchor="middle" x="482.5" y="-183" font-family="Helvetica,sans-Serif" font-size="10.00">frame.MemCell.toString</text>
</a>
</g>
</g>
<!-- Node13&#45;&gt;Node17 -->
<g id="edge19" class="edge">
<title>Node13&#45;&gt;Node17</title>
<path fill="none" stroke="midnightblue" d="M640.3,-274.26C627.35,-265.54 611.28,-254.05 598,-242.5 580.44,-227.24 582.13,-216.16 562,-204.5 555.33,-200.63 547.9,-197.55 540.34,-195.1"/>
<polygon fill="midnightblue" stroke="midnightblue" points="638.43,-277.22 648.7,-279.83 642.3,-271.39 638.43,-277.22"/>
</g>
<!-- Node19 -->
<g id="node19" class="node">
<title>Node19</title>
<g id="a_node19"><a xlink:href="classutil_1_1_yaml_buf.html#aee371624d7c135f4684656e6ab6b8269" target="_top" xlink:title="配列モードで、文字列valueを正しい段下げでバッファに追加する。">
<polygon fill="white" stroke="black" points="425,-50 425,-69 540,-69 540,-50 425,-50"/>
<text text-anchor="middle" x="482.5" y="-57" font-family="Helvetica,sans-Serif" font-size="10.00">util.YamlBuf.addIndent</text>
</a>
</g>
</g>
<!-- Node18&#45;&gt;Node19 -->
<g id="edge21" class="edge">
<title>Node18&#45;&gt;Node19</title>
<path fill="none" stroke="midnightblue" d="M624.89,-59.5C600.12,-59.5 567.68,-59.5 540.12,-59.5"/>
<polygon fill="midnightblue" stroke="midnightblue" points="625,-63 635,-59.5 625,-56 625,-63"/>
</g>
<!-- Node20 -->
<g id="node20" class="node">
<title>Node20</title>
<g id="a_node20"><a xlink:href="classformat_1_1_node_formatter_simple.html#aac82597a42c45dabd61899050038d1d4" target="_top" xlink:title="項表現を出力する再帰ルーチン">
<polygon fill="white" stroke="black" points="403,-0.5 403,-30.5 562,-30.5 562,-0.5 403,-0.5"/>
<text text-anchor="start" x="411" y="-18.5" font-family="Helvetica,sans-Serif" font-size="10.00">format.NodeFormatterSimple.rec</text>
<text text-anchor="middle" x="482.5" y="-7.5" font-family="Helvetica,sans-Serif" font-size="10.00">EmitString</text>
</a>
</g>
</g>
<!-- Node18&#45;&gt;Node20 -->
<g id="edge22" class="edge">
<title>Node18&#45;&gt;Node20</title>
<path fill="none" stroke="midnightblue" d="M625.16,-50.03C601.9,-44.36 571.8,-37.03 545.34,-30.57"/>
<polygon fill="midnightblue" stroke="midnightblue" points="624.46,-53.46 635,-52.43 626.11,-46.66 624.46,-53.46"/>
</g>
<!-- Node21 -->
<g id="node21" class="node">
<title>Node21</title>
<g id="a_node21"><a xlink:href="classformat_1_1_node_formatter_simple.html#a46d5211e25bcc126f592fb7630291d12" target="_top" xlink:title="項表現の出力">
<polygon fill="white" stroke="black" points="194,-0.5 194,-30.5 358,-30.5 358,-0.5 194,-0.5"/>
<text text-anchor="start" x="202" y="-18.5" font-family="Helvetica,sans-Serif" font-size="10.00">format.NodeFormatterSimple.emit</text>
<text text-anchor="middle" x="276" y="-7.5" font-family="Helvetica,sans-Serif" font-size="10.00">String</text>
</a>
</g>
</g>
<!-- Node20&#45;&gt;Node21 -->
<g id="edge23" class="edge">
<title>Node20&#45;&gt;Node21</title>
<path fill="none" stroke="midnightblue" d="M392.7,-15.5C381.2,-15.5 369.47,-15.5 358.1,-15.5"/>
<polygon fill="midnightblue" stroke="midnightblue" points="392.73,-19 402.73,-15.5 392.73,-12 392.73,-19"/>
</g>
<!-- Node22&#45;&gt;Node5 -->
<g id="edge25" class="edge">
<title>Node22&#45;&gt;Node5</title>
<path fill="none" stroke="midnightblue" d="M625.14,-512.47C616.12,-515.8 606.64,-519.56 598,-523.5 581.35,-531.1 579.05,-536.84 562,-543.5 552.47,-547.22 541.98,-550.37 531.87,-552.96"/>
<polygon fill="midnightblue" stroke="midnightblue" points="626.46,-515.72 634.69,-509.04 624.09,-509.13 626.46,-515.72"/>
</g>
<!-- Node26&#45;&gt;Node8 -->
<g id="edge30" class="edge">
<title>Node26&#45;&gt;Node8</title>
<path fill="none" stroke="midnightblue" d="M613.5,-436.17C608.17,-438.06 602.91,-440.16 598,-442.5 580.41,-450.86 579.77,-459.52 562,-467.5 553.56,-471.29 544.25,-474.39 535.09,-476.9"/>
<polygon fill="midnightblue" stroke="midnightblue" points="614.69,-439.47 623.09,-433.02 612.5,-432.82 614.69,-439.47"/>
</g>
<!-- Node26&#45;&gt;Node9 -->
<g id="edge31" class="edge">
<title>Node26&#45;&gt;Node9</title>
<path fill="none" stroke="midnightblue" d="M596.59,-430.6C582.22,-432.11 567.01,-433.71 552.58,-435.23"/>
<polygon fill="midnightblue" stroke="midnightblue" points="597.31,-434.04 606.89,-429.51 596.58,-427.08 597.31,-434.04"/>
</g>
<!-- Node26&#45;&gt;Node10 -->
<g id="edge32" class="edge">
<title>Node26&#45;&gt;Node10</title>
<path fill="none" stroke="midnightblue" d="M596.91,-412.35C581.48,-409.78 565.08,-407.06 549.69,-404.5"/>
<polygon fill="midnightblue" stroke="midnightblue" points="596.45,-415.82 606.89,-414.01 597.6,-408.92 596.45,-415.82"/>
</g>
<!-- Node26&#45;&gt;Node11 -->
<g id="edge33" class="edge">
<title>Node26&#45;&gt;Node11</title>
<path fill="none" stroke="midnightblue" d="M605.44,-437.52C602.83,-439.02 600.33,-440.67 598,-442.5 572.64,-462.42 587.78,-486.12 562,-505.5 556.28,-509.8 549.73,-513.14 542.9,-515.73"/>
<polygon fill="midnightblue" stroke="midnightblue" points="607.22,-440.55 614.69,-433.03 604.16,-434.25 607.22,-440.55"/>
</g>
<!-- Node27&#45;&gt;Node6 -->
<g id="edge40" class="edge">
<title>Node27&#45;&gt;Node6</title>
<path fill="none" stroke="midnightblue" d="M643.52,-207.88C623.84,-193.92 592.64,-174.48 562,-166.5 493.61,-148.69 468.54,-140.07 403,-166.5 236.75,-233.55 109.28,-430.77 81.26,-476.81"/>
<polygon fill="midnightblue" stroke="midnightblue" points="641.57,-210.79 651.71,-213.85 645.69,-205.13 641.57,-210.79"/>
</g>
<!-- Node27&#45;&gt;Node14 -->
<g id="edge35" class="edge">
<title>Node27&#45;&gt;Node14</title>
<path fill="none" stroke="midnightblue" d="M642.45,-239.12C617.72,-256.82 578.45,-284.18 562,-291.5 552.49,-295.73 541.92,-299.19 531.7,-301.96"/>
<polygon fill="midnightblue" stroke="midnightblue" points="644.77,-241.77 650.84,-233.09 640.68,-236.09 644.77,-241.77"/>
</g>
<!-- Node27&#45;&gt;Node15 -->
<g id="edge36" class="edge">
<title>Node27&#45;&gt;Node15</title>
<path fill="none" stroke="midnightblue" d="M614.98,-235.45C592.06,-241.04 564.62,-247.73 540.75,-253.54"/>
<polygon fill="midnightblue" stroke="midnightblue" points="615.95,-238.82 624.83,-233.05 614.29,-232.02 615.95,-238.82"/>
</g>
<!-- Node27&#45;&gt;Node16 -->
<g id="edge41" class="edge">
<title>Node27&#45;&gt;Node16</title>
<path fill="none" stroke="midnightblue" d="M600.62,-223.5C584.8,-223.5 567.77,-223.5 551.72,-223.5"/>
<polygon fill="midnightblue" stroke="midnightblue" points="600.82,-227 610.82,-223.5 600.82,-220 600.82,-227"/>
</g>
<!-- Node27&#45;&gt;Node17 -->
<g id="edge42" class="edge">
<title>Node27&#45;&gt;Node17</title>
<path fill="none" stroke="midnightblue" d="M608.52,-211.82C582.92,-206.43 552.92,-200.11 528.72,-195.02"/>
<polygon fill="midnightblue" stroke="midnightblue" points="607.95,-215.28 618.45,-213.91 609.39,-208.43 607.95,-215.28"/>
</g>
<!-- Node28 -->
<g id="node28" class="node">
<title>Node28</title>
<g id="a_node28"><a xlink:href="classmachine_1_1_o_v_machine.html#afcb7bfddbaa58f232f8b97b5b1a6b74f" target="_top" xlink:title="文字列表現を返す">
<polygon fill="white" stroke="black" points="406.5,-88.5 406.5,-118.5 558.5,-118.5 558.5,-88.5 406.5,-88.5"/>
<text text-anchor="start" x="414.5" y="-106.5" font-family="Helvetica,sans-Serif" font-size="10.00">machine.OVMachine.opStacks</text>
<text text-anchor="middle" x="482.5" y="-95.5" font-family="Helvetica,sans-Serif" font-size="10.00">ToString</text>
</a>
</g>
</g>
<!-- Node27&#45;&gt;Node28 -->
<g id="edge37" class="edge">
<title>Node27&#45;&gt;Node28</title>
<path fill="none" stroke="midnightblue" d="M648.41,-206.45C629.56,-186.67 596.1,-154.13 562,-133.5 552.51,-127.76 541.74,-122.79 531.28,-118.63"/>
<polygon fill="midnightblue" stroke="midnightblue" points="645.95,-208.93 655.34,-213.84 651.05,-204.15 645.95,-208.93"/>
</g>
<!-- Node29 -->
<g id="node29" class="node">
<title>Node29</title>
<g id="a_node29"><a xlink:href="classmachine_1_1_o_v_machine.html#a4171d94cd3db7876e92db22ba965dab7" target="_top" xlink:title="与えられた環境と呼び出し情報のもとで、仮想機械プログラムを実行する。">
<polygon fill="white" stroke="red" points="185,-97 185,-116 367,-116 367,-97 185,-97"/>
<text text-anchor="middle" x="276" y="-104" font-family="Helvetica,sans-Serif" font-size="10.00">machine.OVMachine.execCommands</text>
</a>
</g>
</g>
<!-- Node28&#45;&gt;Node29 -->
<g id="edge38" class="edge">
<title>Node28&#45;&gt;Node29</title>
<path fill="none" stroke="midnightblue" d="M395.95,-104.76C386.39,-104.9 376.63,-105.04 367.02,-105.18"/>
<polygon fill="midnightblue" stroke="midnightblue" points="396.28,-108.25 406.22,-104.6 396.17,-101.25 396.28,-108.25"/>
</g>
<!-- Node31 -->
<g id="node30" class="node">
<title>Node31</title>
<g id="a_node30"><a xlink:href="classmachine_1_1_o_v_machine.html#ad146fa8579a5f8a876c4688cc5a68520" target="_top" xlink:title="文字列表現を返す">
<polygon fill="white" stroke="black" points="204,-59 204,-78 348,-78 348,-59 204,-59"/>
<text text-anchor="middle" x="276" y="-66" font-family="Helvetica,sans-Serif" font-size="10.00">machine.OVMachine.toString</text>
</a>
</g>
</g>
<!-- Node28&#45;&gt;Node31 -->
<g id="edge39" class="edge">
<title>Node28&#45;&gt;Node31</title>
<path fill="none" stroke="midnightblue" d="M396.12,-88.89C374.66,-85.21 352.18,-81.37 332.6,-78.02"/>
<polygon fill="midnightblue" stroke="midnightblue" points="395.78,-92.38 406.22,-90.62 396.96,-85.48 395.78,-92.38"/>
</g>
<!-- Node33&#45;&gt;Node2 -->
<g id="edge45" class="edge">
<title>Node33&#45;&gt;Node2</title>
<path fill="none" stroke="midnightblue" d="M786.15,-739.26C761.45,-744.66 732.55,-750.97 709.29,-756.05"/>
<polygon fill="midnightblue" stroke="midnightblue" points="787.07,-742.64 796.09,-737.09 785.58,-735.8 787.07,-742.64"/>
</g>
<!-- Node33&#45;&gt;Node5 -->
<g id="edge46" class="edge">
<title>Node33&#45;&gt;Node5</title>
<path fill="none" stroke="midnightblue" d="M781.56,-735.54C730.13,-739.8 654.82,-738.95 598,-708.5 538.66,-676.69 499.9,-599.51 487.66,-572.24"/>
<polygon fill="midnightblue" stroke="midnightblue" points="782.2,-739 791.83,-734.6 781.56,-732.03 782.2,-739"/>
</g>
</g>
</svg>
        <g id="navigator" transform="translate(0 0)" fill="#404254">
                <rect fill="#f2f5e9" fill-opacity="0.5" stroke="#606060" stroke-width=".5" x="0" y="0" width="60" height="60"/>
                <use id="zoomplus" xlink:href="#zoomPlus" x="17" y="9" onmousedown="handleZoom(evt,'in')"/>
                <use id="zoomminus" xlink:href="#zoomMin" x="42" y="9" onmousedown="handleZoom(evt,'out')"/>
                <use id="reset" xlink:href="#resetDef" x="30" y="36" onmousedown="handleReset()"/>
                <g id="arrowUp" xlink:href="#dirArrow" transform="translate(30 24)" onmousedown="handlePan(0,-1)">
                  <use xlink:href="#rim" fill="#404040">
                        <set attributeName="fill" to="#808080" begin="arrowUp.mouseover" end="arrowUp.mouseout"/>
                  </use>
                  <path fill="none" stroke="white" stroke-width="1.5" d="M0,-3.0v7 M-2.5,-0.5L0,-3.0L2.5,-0.5"/>
                </g>
                <g id="arrowRight" xlink:href="#dirArrow" transform="rotate(90) translate(36 -43)" onmousedown="handlePan(1,0)">
                  <use xlink:href="#rim" fill="#404040">
                        <set attributeName="fill" to="#808080" begin="arrowRight.mouseover" end="arrowRight.mouseout"/>
                  </use>
                  <path fill="none" stroke="white" stroke-width="1.5" d="M0,-3.0v7 M-2.5,-0.5L0,-3.0L2.5,-0.5"/>
                </g>
                <g id="arrowDown" xlink:href="#dirArrow" transform="rotate(180) translate(-30 -48)" onmousedown="handlePan(0,1)">
                  <use xlink:href="#rim" fill="#404040">
                        <set attributeName="fill" to="#808080" begin="arrowDown.mouseover" end="arrowDown.mouseout"/>
                  </use>
                  <path fill="none" stroke="white" stroke-width="1.5" d="M0,-3.0v7 M-2.5,-0.5L0,-3.0L2.5,-0.5"/>
                </g>
                <g id="arrowLeft" xlink:href="#dirArrow" transform="rotate(270) translate(-36 17)" onmousedown="handlePan(-1,0)">
                  <use xlink:href="#rim" fill="#404040">
                        <set attributeName="fill" to="#808080" begin="arrowLeft.mouseover" end="arrowLeft.mouseout"/>
                  </use>
                  <path fill="none" stroke="white" stroke-width="1.5" d="M0,-3.0v7 M-2.5,-0.5L0,-3.0L2.5,-0.5"/>
                </g>
        </g>
        <svg viewBox="0 0 15 15" width="100%" height="30px" preserveAspectRatio="xMaxYMin meet">
         <g id="arrow_out" transform="scale(0.3 0.3)">
          <a xlink:href="classutil_1_1_foldable_string_buf_a186579e7cd763dada34bcdc6c8f8f209_icgraph_org.svg" target="_base">
           <rect id="button" ry="5" rx="5" y="6" x="6" height="38" width="38"
                fill="#f2f5e9" fill-opacity="0.5" stroke="#606060" stroke-width="1.0"/>
           <path id="arrow"
             d="M 11.500037,31.436501 C 11.940474,20.09759 22.043105,11.32322 32.158766,21.979434 L 37.068811,17.246167 C 37.068811,17.246167 37.088388,32 37.088388,32 L 22.160133,31.978069 C 22.160133,31.978069 26.997745,27.140456 26.997745,27.140456 C 18.528582,18.264221 13.291696,25.230495 11.500037,31.436501 z"
             style="fill:#404040;"/>
          </a>
         </g>
        </svg>
</svg>
