<?xml version="1.0" encoding="UTF-8" standalone="no"?>
<!DOCTYPE svg PUBLIC "-//W3C//DTD SVG 1.1//EN"
 "http://www.w3.org/Graphics/SVG/1.1/DTD/svg11.dtd">
<!-- Generated by graphviz version 2.47.1 (20210417.1919)
 -->
<!-- Title: AstDataWriter Pages: 1 -->
<svg width="839pt" height="410pt"
 viewBox="0.00 0.00 839.00 410.00" xmlns="http://www.w3.org/2000/svg" xmlns:xlink="http://www.w3.org/1999/xlink">
<g id="graph0" class="graph" transform="scale(1 1) rotate(0) translate(4 406)">
<title>AstDataWriter</title>
<polygon fill="white" stroke="transparent" points="-4,4 -4,-406 835,-406 835,4 -4,4"/>
<!-- Node1 -->
<g id="node1" class="node">
<title>Node1</title>
<g id="a_node1"><a xlink:title="局所変数環境からの値を書き込むクラス">
<polygon fill="#bfbfbf" stroke="black" points="753,-289.5 753,-308.5 831,-308.5 831,-289.5 753,-289.5"/>
<text text-anchor="middle" x="792" y="-296.5" font-family="Helvetica,sans-Serif" font-size="10.00">AstDataWriter</text>
</a>
</g>
</g>
<!-- Node2 -->
<g id="node2" class="node">
<title>Node2</title>
<g id="a_node2"><a xlink:href="classast_1_1_ast_node_unary.html" target="_top" xlink:title="ただ一つの子をもつノードのクラス。">
<polygon fill="white" stroke="black" points="619,-289.5 619,-308.5 700,-308.5 700,-289.5 619,-289.5"/>
<text text-anchor="middle" x="659.5" y="-296.5" font-family="Helvetica,sans-Serif" font-size="10.00">AstNodeUnary</text>
</a>
</g>
</g>
<!-- Node2&#45;&gt;Node1 -->
<g id="edge1" class="edge">
<title>Node2&#45;&gt;Node1</title>
<path fill="none" stroke="midnightblue" d="M710.12,-299C724.33,-299 739.58,-299 752.97,-299"/>
<polygon fill="midnightblue" stroke="midnightblue" points="710.01,-295.5 700.01,-299 710.01,-302.5 710.01,-295.5"/>
</g>
<!-- Node3 -->
<g id="node3" class="node">
<title>Node3</title>
<g id="a_node3"><a xlink:href="classast_1_1_ast_node.html" target="_top" xlink:title="タグなしの順アクセスの子供をもてる抽象構文木のノードのクラス。">
<polygon fill="white" stroke="black" points="508.5,-218.5 508.5,-237.5 563.5,-237.5 563.5,-218.5 508.5,-218.5"/>
<text text-anchor="middle" x="536" y="-225.5" font-family="Helvetica,sans-Serif" font-size="10.00">AstNode</text>
</a>
</g>
</g>
<!-- Node3&#45;&gt;Node2 -->
<g id="edge2" class="edge">
<title>Node3&#45;&gt;Node2</title>
<path fill="none" stroke="midnightblue" d="M559.68,-243.39C575.9,-254.15 598.42,-268.58 619,-280 624.85,-283.25 631.35,-286.51 637.36,-289.39"/>
<polygon fill="midnightblue" stroke="midnightblue" points="561.17,-240.18 550.92,-237.53 557.28,-246 561.17,-240.18"/>
</g>
<!-- Node21 -->
<g id="node21" class="node">
<title>Node21</title>
<g id="a_node21"><a xlink:href="classmachine_1_1_var.html" target="_top" xlink:title="フレーム中の変数参照オブジェクトref = (XType type, int vid)">
<polygon fill="white" stroke="black" points="644,-213.5 644,-232.5 675,-232.5 675,-213.5 644,-213.5"/>
<text text-anchor="middle" x="659.5" y="-220.5" font-family="Helvetica,sans-Serif" font-size="10.00">Var</text>
</a>
</g>
</g>
<!-- Node3&#45;&gt;Node21 -->
<g id="edge27" class="edge">
<title>Node3&#45;&gt;Node21</title>
<path fill="none" stroke="midnightblue" d="M573.66,-226.49C597.17,-225.52 626.42,-224.32 643.71,-223.61"/>
<polygon fill="midnightblue" stroke="midnightblue" points="573.51,-222.99 563.66,-226.9 573.8,-229.99 573.51,-222.99"/>
</g>
<!-- Node4 -->
<g id="node4" class="node">
<title>Node4</title>
<g id="a_node4"><a xlink:href="classast_1_1_ast_node_base.html" target="_top" xlink:title=" ">
<polygon fill="white" stroke="black" points="271.5,-176.5 271.5,-195.5 348.5,-195.5 348.5,-176.5 271.5,-176.5"/>
<text text-anchor="middle" x="310" y="-183.5" font-family="Helvetica,sans-Serif" font-size="10.00">AstNodeBase</text>
</a>
</g>
</g>
<!-- Node4&#45;&gt;Node3 -->
<g id="edge3" class="edge">
<title>Node4&#45;&gt;Node3</title>
<path fill="none" stroke="midnightblue" d="M358.71,-194.94C404.34,-203.5 471.5,-216.09 508.36,-223"/>
<polygon fill="midnightblue" stroke="midnightblue" points="359.22,-191.48 348.75,-193.08 357.93,-198.36 359.22,-191.48"/>
</g>
<!-- Node5 -->
<g id="node5" class="node">
<title>Node5</title>
<g id="a_node5"><a xlink:title=" ">
<polygon fill="white" stroke="#bfbfbf" points="20.5,-229.5 20.5,-248.5 62.5,-248.5 62.5,-229.5 20.5,-229.5"/>
<text text-anchor="middle" x="41.5" y="-236.5" font-family="Helvetica,sans-Serif" font-size="10.00">String</text>
</a>
</g>
</g>
<!-- Node5&#45;&gt;Node4 -->
<g id="edge4" class="edge">
<title>Node5&#45;&gt;Node4</title>
<path fill="none" stroke="#9a32cd" stroke-dasharray="5,2" d="M59.27,-222.48C70.19,-212.87 85.29,-201.58 101,-196 157.73,-175.87 228.65,-177.7 271.31,-181.43"/>
<polygon fill="#9a32cd" stroke="#9a32cd" points="56.77,-220.03 51.8,-229.39 61.52,-225.18 56.77,-220.03"/>
<text text-anchor="middle" x="162.5" y="-210" font-family="Helvetica,sans-Serif" font-size="10.00"> MOD_AST</text>
<text text-anchor="middle" x="162.5" y="-199" font-family="Helvetica,sans-Serif" font-size="10.00">mod_</text>
</g>
<!-- Node18 -->
<g id="node18" class="node">
<title>Node18</title>
<g id="a_node18"><a xlink:href="classformat_1_1_style.html" target="_top" xlink:title="ノードの表示スタイルに関するプロパティのクラス.">
<polygon fill="white" stroke="black" points="290.5,-254.5 290.5,-273.5 329.5,-273.5 329.5,-254.5 290.5,-254.5"/>
<text text-anchor="middle" x="310" y="-261.5" font-family="Helvetica,sans-Serif" font-size="10.00">Style</text>
</a>
</g>
</g>
<!-- Node5&#45;&gt;Node18 -->
<g id="edge19" class="edge">
<title>Node5&#45;&gt;Node18</title>
<path fill="none" stroke="#9a32cd" stroke-dasharray="5,2" d="M72.45,-246.63C81.56,-248.68 91.64,-250.7 101,-252 170.32,-261.64 253.69,-263.56 290.26,-263.93"/>
<polygon fill="#9a32cd" stroke="#9a32cd" points="73.2,-243.21 62.66,-244.32 71.59,-250.02 73.2,-243.21"/>
<text text-anchor="middle" x="162.5" y="-286" font-family="Helvetica,sans-Serif" font-size="10.00"> operSTR</text>
<text text-anchor="middle" x="162.5" y="-275" font-family="Helvetica,sans-Serif" font-size="10.00">parenLPAR</text>
<text text-anchor="middle" x="162.5" y="-264" font-family="Helvetica,sans-Serif" font-size="10.00">parenRPAR</text>
</g>
<!-- Node6 -->
<g id="node6" class="node">
<title>Node6</title>
<g id="a_node6"><a xlink:title=" ">
<polygon fill="white" stroke="#bfbfbf" points="0,-117.5 0,-136.5 83,-136.5 83,-117.5 0,-117.5"/>
<text text-anchor="middle" x="41.5" y="-124.5" font-family="Helvetica,sans-Serif" font-size="10.00">static ReportKt</text>
</a>
</g>
</g>
<!-- Node6&#45;&gt;Node4 -->
<g id="edge5" class="edge">
<title>Node6&#45;&gt;Node4</title>
<path fill="none" stroke="#9a32cd" stroke-dasharray="5,2" d="M93.62,-121.6C131.73,-119.9 183.91,-122.66 224,-144 235.15,-149.94 231.49,-159 242,-166 250.79,-171.85 261.34,-176.04 271.45,-179.01"/>
<polygon fill="#9a32cd" stroke="#9a32cd" points="93.05,-118.13 83.26,-122.18 93.44,-125.11 93.05,-118.13"/>
<text text-anchor="middle" x="162.5" y="-147" font-family="Helvetica,sans-Serif" font-size="10.00"> repo</text>
</g>
<!-- Node7 -->
<g id="node7" class="node">
<title>Node7</title>
<g id="a_node7"><a xlink:title=" ">
<polygon fill="white" stroke="#bfbfbf" points="9,-79.5 9,-98.5 74,-98.5 74,-79.5 9,-79.5"/>
<text text-anchor="middle" x="41.5" y="-86.5" font-family="Helvetica,sans-Serif" font-size="10.00">TraceLevel</text>
</a>
</g>
</g>
<!-- Node7&#45;&gt;Node4 -->
<g id="edge6" class="edge">
<title>Node7&#45;&gt;Node4</title>
<path fill="none" stroke="#9a32cd" stroke-dasharray="5,2" d="M84.05,-81.06C124.37,-75.87 185.03,-75.05 224,-107 245.2,-124.38 222.56,-146.67 242,-166 249.92,-173.87 260.8,-178.67 271.49,-181.59"/>
<polygon fill="#9a32cd" stroke="#9a32cd" points="83.41,-77.61 74.01,-82.5 84.4,-84.54 83.41,-77.61"/>
<text text-anchor="middle" x="162.5" y="-110" font-family="Helvetica,sans-Serif" font-size="10.00"> LOG</text>
</g>
<!-- Node8 -->
<g id="node8" class="node">
<title>Node8</title>
<g id="a_node8"><a xlink:title=" ">
<polygon fill="white" stroke="#bfbfbf" points="27,-0.5 27,-19.5 56,-19.5 56,-0.5 27,-0.5"/>
<text text-anchor="middle" x="41.5" y="-7.5" font-family="Helvetica,sans-Serif" font-size="10.00">int</text>
</a>
</g>
</g>
<!-- Node8&#45;&gt;Node4 -->
<g id="edge7" class="edge">
<title>Node8&#45;&gt;Node4</title>
<path fill="none" stroke="#9a32cd" stroke-dasharray="5,2" d="M66.32,-9.29C110.41,-8.51 202.21,-9.58 224,-31 267.17,-73.43 202.7,-119.96 242,-166 249.41,-174.68 260.41,-179.68 271.37,-182.54"/>
<polygon fill="#9a32cd" stroke="#9a32cd" points="66.14,-5.79 56.22,-9.51 66.29,-12.79 66.14,-5.79"/>
<text text-anchor="middle" x="162.5" y="-67" font-family="Helvetica,sans-Serif" font-size="10.00"> BITMASK_PRINT_WIDTH</text>
<text text-anchor="middle" x="162.5" y="-56" font-family="Helvetica,sans-Serif" font-size="10.00">UNDEF</text>
<text text-anchor="middle" x="162.5" y="-45" font-family="Helvetica,sans-Serif" font-size="10.00">id_</text>
<text text-anchor="middle" x="162.5" y="-34" font-family="Helvetica,sans-Serif" font-size="10.00">numInstances</text>
</g>
<!-- Node8&#45;&gt;Node21 -->
<g id="edge28" class="edge">
<title>Node8&#45;&gt;Node21</title>
<path fill="none" stroke="#9a32cd" stroke-dasharray="5,2" d="M66.49,-6.66C101.45,-2.45 168.32,3.1 224,-7 339.83,-28 367.1,-46.59 472,-100 541.47,-135.37 616.82,-191.02 645.99,-213.31"/>
<polygon fill="#9a32cd" stroke="#9a32cd" points="65.79,-3.22 56.31,-7.96 66.67,-10.16 65.79,-3.22"/>
<text text-anchor="middle" x="434" y="-103" font-family="Helvetica,sans-Serif" font-size="10.00"> UNDEF</text>
</g>
<!-- Node9 -->
<g id="node9" class="node">
<title>Node9</title>
<g id="a_node9"><a xlink:href="interfacetype_1_1_typable.html" target="_top" xlink:title="抽象ノードがもつ関数型のインタフェース">
<polygon fill="white" stroke="black" points="16.5,-155.5 16.5,-174.5 66.5,-174.5 66.5,-155.5 16.5,-155.5"/>
<text text-anchor="middle" x="41.5" y="-162.5" font-family="Helvetica,sans-Serif" font-size="10.00">Typable</text>
</a>
</g>
</g>
<!-- Node9&#45;&gt;Node4 -->
<g id="edge8" class="edge">
<title>Node9&#45;&gt;Node4</title>
<path fill="none" stroke="#9a32cd" stroke-dasharray="5,2" d="M76.77,-162.95C84.72,-162.55 93.15,-162.2 101,-162 155.65,-160.6 169.85,-154.5 224,-162 229.39,-162.75 254.95,-170.05 276.65,-176.41"/>
<polygon fill="#9a32cd" stroke="#9a32cd" points="76.48,-159.46 66.68,-163.48 76.85,-166.45 76.48,-159.46"/>
<text text-anchor="middle" x="162.5" y="-165" font-family="Helvetica,sans-Serif" font-size="10.00"> typing</text>
</g>
<!-- Node10 -->
<g id="node10" class="node">
<title>Node10</title>
<g id="a_node10"><a xlink:title=" ">
<polygon fill="white" stroke="#bfbfbf" points="16.5,-305.5 16.5,-324.5 66.5,-324.5 66.5,-305.5 16.5,-305.5"/>
<text text-anchor="middle" x="41.5" y="-312.5" font-family="Helvetica,sans-Serif" font-size="10.00">boolean</text>
</a>
</g>
</g>
<!-- Node10&#45;&gt;Node4 -->
<g id="edge9" class="edge">
<title>Node10&#45;&gt;Node4</title>
<path fill="none" stroke="#9a32cd" stroke-dasharray="5,2" d="M55.18,-297.15C70.46,-275.88 94.85,-242.7 101,-239 148.51,-210.39 172.86,-239.46 224,-218 233.1,-214.18 233.12,-209.3 242,-205 251.14,-200.57 261.5,-197.01 271.29,-194.21"/>
<polygon fill="#9a32cd" stroke="#9a32cd" points="52.24,-295.25 49.27,-305.42 57.93,-299.32 52.24,-295.25"/>
<text text-anchor="middle" x="162.5" y="-242" font-family="Helvetica,sans-Serif" font-size="10.00"> DEBUG_REPO</text>
</g>
<!-- Node10&#45;&gt;Node18 -->
<g id="edge20" class="edge">
<title>Node10&#45;&gt;Node18</title>
<path fill="none" stroke="#9a32cd" stroke-dasharray="5,2" d="M77.21,-317.7C114.86,-319.3 175.99,-317.96 224,-298 233.62,-294 232.79,-287.86 242,-283 257.29,-274.93 276.41,-269.95 290.3,-267.12"/>
<polygon fill="#9a32cd" stroke="#9a32cd" points="76.95,-314.19 66.78,-317.16 76.59,-321.18 76.95,-314.19"/>
<text text-anchor="middle" x="162.5" y="-332" font-family="Helvetica,sans-Serif" font-size="10.00"> preoperSupress</text>
<text text-anchor="middle" x="162.5" y="-321" font-family="Helvetica,sans-Serif" font-size="10.00">toInline</text>
</g>
<!-- Node11 -->
<g id="node11" class="node">
<title>Node11</title>
<g id="a_node11"><a xlink:href="interfaceast_1_1_node.html" target="_top" xlink:title=" ">
<polygon fill="white" stroke="black" points="290,-292.5 290,-311.5 330,-311.5 330,-292.5 290,-292.5"/>
<text text-anchor="middle" x="310" y="-299.5" font-family="Helvetica,sans-Serif" font-size="10.00">Node</text>
</a>
</g>
</g>
<!-- Node11&#45;&gt;Node3 -->
<g id="edge10" class="edge">
<title>Node11&#45;&gt;Node3</title>
<path fill="none" stroke="midnightblue" d="M340.71,-297.96C373.65,-292.84 427.94,-282.52 472,-265 490.15,-257.78 509.26,-245.86 521.61,-237.5"/>
<polygon fill="midnightblue" stroke="midnightblue" points="339.78,-294.56 330.41,-299.49 340.81,-301.48 339.78,-294.56"/>
</g>
<!-- Node19 -->
<g id="node19" class="node">
<title>Node19</title>
<g id="a_node19"><a xlink:href="interfaceast_1_1_node_1_1_node_unary.html" target="_top" xlink:title="子供を一つだけもつノードのインタフェース">
<polygon fill="white" stroke="black" points="490,-299.5 490,-318.5 582,-318.5 582,-299.5 490,-299.5"/>
<text text-anchor="middle" x="536" y="-306.5" font-family="Helvetica,sans-Serif" font-size="10.00">Node.NodeUnary</text>
</a>
</g>
</g>
<!-- Node11&#45;&gt;Node19 -->
<g id="edge22" class="edge">
<title>Node11&#45;&gt;Node19</title>
<path fill="none" stroke="midnightblue" d="M340.5,-302.92C378.61,-304.11 445.34,-306.2 489.86,-307.59"/>
<polygon fill="midnightblue" stroke="midnightblue" points="340.2,-299.41 330.1,-302.6 339.98,-306.41 340.2,-299.41"/>
</g>
<!-- Node12 -->
<g id="node12" class="node">
<title>Node12</title>
<g id="a_node12"><a xlink:href="interfaceformat_1_1_x_formattable.html" target="_top" xlink:title="入れ子フォーマット出力可能なオブジェクトのインタフェース。">
<polygon fill="white" stroke="black" points="4,-369.5 4,-388.5 79,-388.5 79,-369.5 4,-369.5"/>
<text text-anchor="middle" x="41.5" y="-376.5" font-family="Helvetica,sans-Serif" font-size="10.00">XFormattable</text>
</a>
</g>
</g>
<!-- Node12&#45;&gt;Node11 -->
<g id="edge11" class="edge">
<title>Node12&#45;&gt;Node11</title>
<path fill="none" stroke="midnightblue" d="M89.6,-378.6C128.19,-376.33 182.94,-368.49 224,-344 234.85,-337.53 231.49,-329 242,-322 256.45,-312.38 275.66,-307.26 289.81,-304.63"/>
<polygon fill="midnightblue" stroke="midnightblue" points="88.99,-375.13 79.17,-379.11 89.33,-382.12 88.99,-375.13"/>
</g>
<!-- Node13 -->
<g id="node13" class="node">
<title>Node13</title>
<g id="a_node13"><a xlink:href="interfaceformat_1_1_x_formattable_1_1_navigatable.html" target="_top" xlink:title="木構造の分岐ノードとして清書可能なオブジェクトのクラス">
<polygon fill="white" stroke="black" points="245,-382.5 245,-401.5 375,-401.5 375,-382.5 245,-382.5"/>
<text text-anchor="middle" x="310" y="-389.5" font-family="Helvetica,sans-Serif" font-size="10.00">XFormattable.Navigatable</text>
</a>
</g>
</g>
<!-- Node12&#45;&gt;Node13 -->
<g id="edge13" class="edge">
<title>Node12&#45;&gt;Node13</title>
<path fill="none" stroke="midnightblue" d="M89.51,-381.29C132.7,-383.4 197.09,-386.54 244.97,-388.88"/>
<polygon fill="midnightblue" stroke="midnightblue" points="89.43,-377.79 79.28,-380.79 89.09,-384.78 89.43,-377.79"/>
</g>
<!-- Node13&#45;&gt;Node1 -->
<g id="edge23" class="edge">
<title>Node13&#45;&gt;Node1</title>
<path fill="none" stroke="midnightblue" d="M385.54,-382.77C412.77,-379.27 443.81,-375.13 472,-371 573.58,-356.14 598.74,-350.9 700,-334 715.57,-331.4 720.04,-333.02 735,-328 749.32,-323.19 764.48,-315.14 775.4,-308.74"/>
<polygon fill="midnightblue" stroke="midnightblue" points="384.78,-379.34 375.31,-384.08 385.67,-386.28 384.78,-379.34"/>
</g>
<!-- Node13&#45;&gt;Node3 -->
<g id="edge12" class="edge">
<title>Node13&#45;&gt;Node3</title>
<path fill="none" stroke="midnightblue" d="M385.33,-381.05C415.52,-373.24 448.7,-359.86 472,-337 487.96,-321.33 479.34,-309.66 490,-290 500.78,-270.12 517.08,-249.3 526.83,-237.56"/>
<polygon fill="midnightblue" stroke="midnightblue" points="384.12,-377.74 375.22,-383.5 385.76,-384.55 384.12,-377.74"/>
</g>
<!-- Node14 -->
<g id="node14" class="node">
<title>Node14</title>
<g id="a_node14"><a xlink:title=" ">
<polygon fill="white" stroke="#bfbfbf" points="246,-127 246,-157 374,-157 374,-127 246,-127"/>
<text text-anchor="start" x="254" y="-145" font-family="Helvetica,sans-Serif" font-size="10.00">java.util.function.Function</text>
<text text-anchor="middle" x="310" y="-134" font-family="Helvetica,sans-Serif" font-size="10.00">&lt; ast.Node, String &gt;</text>
</a>
</g>
</g>
<!-- Node14&#45;&gt;Node3 -->
<g id="edge14" class="edge">
<title>Node14&#45;&gt;Node3</title>
<path fill="none" stroke="#9a32cd" stroke-dasharray="5,2" d="M383.81,-158.06C412,-165.49 444.13,-175.49 472,-188 490.44,-196.28 509.8,-209.32 522.11,-218.25"/>
<polygon fill="#9a32cd" stroke="#9a32cd" points="384.58,-154.64 374.02,-155.54 382.83,-161.42 384.58,-154.64"/>
<text text-anchor="middle" x="434" y="-191" font-family="Helvetica,sans-Serif" font-size="10.00"> printerFunc</text>
</g>
<!-- Node15 -->
<g id="node15" class="node">
<title>Node15</title>
<g id="a_node15"><a xlink:title=" ">
<polygon fill="white" stroke="#bfbfbf" points="242,-331 242,-361 378,-361 378,-331 242,-331"/>
<text text-anchor="start" x="250" y="-349" font-family="Helvetica,sans-Serif" font-size="10.00">java.util.function.Consumer</text>
<text text-anchor="middle" x="310" y="-338" font-family="Helvetica,sans-Serif" font-size="10.00">&lt; ast.Node &gt;</text>
</a>
</g>
</g>
<!-- Node15&#45;&gt;Node3 -->
<g id="edge15" class="edge">
<title>Node15&#45;&gt;Node3</title>
<path fill="none" stroke="#9a32cd" stroke-dasharray="5,2" d="M382.35,-327.97C411.44,-318.82 444.6,-305.98 472,-289 495.04,-274.73 516.49,-250.81 527.43,-237.56"/>
<polygon fill="#9a32cd" stroke="#9a32cd" points="381.19,-324.66 372.65,-330.93 383.24,-331.36 381.19,-324.66"/>
<text text-anchor="middle" x="434" y="-325" font-family="Helvetica,sans-Serif" font-size="10.00"> typerFunc</text>
</g>
<!-- Node16 -->
<g id="node16" class="node">
<title>Node16</title>
<g id="a_node16"><a xlink:title=" ">
<polygon fill="white" stroke="#bfbfbf" points="265,-214.5 265,-233.5 355,-233.5 355,-214.5 265,-214.5"/>
<text text-anchor="middle" x="310" y="-221.5" font-family="Helvetica,sans-Serif" font-size="10.00">List&lt; ast.Node &gt;</text>
</a>
</g>
</g>
<!-- Node16&#45;&gt;Node3 -->
<g id="edge16" class="edge">
<title>Node16&#45;&gt;Node3</title>
<path fill="none" stroke="#9a32cd" stroke-dasharray="5,2" d="M365.32,-223.78C396.53,-223.79 436.48,-224.04 472,-225 483.93,-225.32 497.12,-225.91 508.34,-226.49"/>
<polygon fill="#9a32cd" stroke="#9a32cd" points="365.08,-220.28 355.08,-223.78 365.09,-227.28 365.08,-220.28"/>
<text text-anchor="middle" x="434" y="-228" font-family="Helvetica,sans-Serif" font-size="10.00"> children_</text>
</g>
<!-- Node17 -->
<g id="node17" class="node">
<title>Node17</title>
<g id="a_node17"><a xlink:title=" ">
<polygon fill="white" stroke="#bfbfbf" points="284,-88.5 284,-107.5 336,-107.5 336,-88.5 284,-88.5"/>
<text text-anchor="middle" x="310" y="-95.5" font-family="Helvetica,sans-Serif" font-size="10.00">Boolean</text>
</a>
</g>
</g>
<!-- Node17&#45;&gt;Node3 -->
<g id="edge17" class="edge">
<title>Node17&#45;&gt;Node3</title>
<path fill="none" stroke="#9a32cd" stroke-dasharray="5,2" d="M346.38,-102.59C380.98,-108.47 433.88,-121.29 472,-148 499.36,-167.17 520.66,-201.64 529.94,-218.37"/>
<polygon fill="#9a32cd" stroke="#9a32cd" points="346.69,-99.09 336.27,-100.98 345.59,-106.01 346.69,-99.09"/>
<text text-anchor="middle" x="434" y="-151" font-family="Helvetica,sans-Serif" font-size="10.00"> DEBUG_CHILD</text>
</g>
<!-- Node18&#45;&gt;Node3 -->
<g id="edge18" class="edge">
<title>Node18&#45;&gt;Node3</title>
<path fill="none" stroke="#9a32cd" stroke-dasharray="5,2" d="M339.68,-259.39C383.35,-252.37 465.91,-239.1 508.34,-232.28"/>
<polygon fill="#9a32cd" stroke="#9a32cd" points="339.03,-255.95 329.71,-260.99 340.14,-262.86 339.03,-255.95"/>
<text text-anchor="middle" x="434" y="-253" font-family="Helvetica,sans-Serif" font-size="10.00"> sty</text>
</g>
<!-- Node19&#45;&gt;Node1 -->
<g id="edge24" class="edge">
<title>Node19&#45;&gt;Node1</title>
<path fill="none" stroke="midnightblue" d="M592.23,-316.25C594.85,-316.52 597.45,-316.77 600,-317 659.79,-322.36 676.09,-324.54 735,-313 741.59,-311.71 748.57,-310.14 755.27,-308.51"/>
<polygon fill="midnightblue" stroke="midnightblue" points="592.36,-312.74 582.04,-315.13 591.6,-319.7 592.36,-312.74"/>
</g>
<!-- Node19&#45;&gt;Node2 -->
<g id="edge21" class="edge">
<title>Node19&#45;&gt;Node2</title>
<path fill="none" stroke="midnightblue" d="M592.25,-304.45C601.2,-303.72 610.32,-302.97 618.82,-302.27"/>
<polygon fill="midnightblue" stroke="midnightblue" points="591.92,-300.97 582.24,-305.28 592.5,-307.94 591.92,-300.97"/>
</g>
<!-- Node20 -->
<g id="node20" class="node">
<title>Node20</title>
<g id="a_node20"><a xlink:href="interfacemachine_1_1_data_accessor.html" target="_top" xlink:title="参照をもつデータ読み書きオブジェクトのインタフェース.">
<polygon fill="white" stroke="black" points="620,-251.5 620,-270.5 699,-270.5 699,-251.5 620,-251.5"/>
<text text-anchor="middle" x="659.5" y="-258.5" font-family="Helvetica,sans-Serif" font-size="10.00">DataAccessor</text>
</a>
</g>
</g>
<!-- Node20&#45;&gt;Node1 -->
<g id="edge25" class="edge">
<title>Node20&#45;&gt;Node1</title>
<path fill="none" stroke="midnightblue" d="M703.05,-273.39C720.92,-278.59 741.39,-284.55 758.08,-289.41"/>
<polygon fill="midnightblue" stroke="midnightblue" points="704.01,-270.02 693.43,-270.59 702.05,-276.75 704.01,-270.02"/>
</g>
<!-- Node21&#45;&gt;Node1 -->
<g id="edge26" class="edge">
<title>Node21&#45;&gt;Node1</title>
<path fill="none" stroke="#9a32cd" stroke-dasharray="5,2" d="M684.67,-234.19C689.78,-236.68 695.1,-239.36 700,-242 728.06,-257.13 759.24,-277.48 776.85,-289.32"/>
<polygon fill="#9a32cd" stroke="#9a32cd" points="685.83,-230.86 675.29,-229.72 682.81,-237.18 685.83,-230.86"/>
<text text-anchor="middle" x="726.5" y="-264" font-family="Helvetica,sans-Serif" font-size="10.00"> var</text>
</g>
</g>
</svg>
