<?xml version="1.0" encoding="UTF-8" standalone="no"?>
<!DOCTYPE svg PUBLIC "-//W3C//DTD SVG 1.1//EN"
 "http://www.w3.org/Graphics/SVG/1.1/DTD/svg11.dtd">
<!-- Generated by graphviz version 2.47.0 (20210316.0004)
 -->
<!-- Title: Block Pages: 1 -->
<svg width="1109pt" height="693pt"
 viewBox="0.00 0.00 1109.00 693.08" xmlns="http://www.w3.org/2000/svg" xmlns:xlink="http://www.w3.org/1999/xlink">
<g id="graph0" class="graph" transform="scale(1 1) rotate(0) translate(4 689.08)">
<title>Block</title>
<polygon fill="white" stroke="transparent" points="-4,4 -4,-689.08 1105,-689.08 1105,4 -4,4"/>
<!-- Node1 -->
<g id="node1" class="node">
<title>Node1</title>
<g id="a_node1"><a xlink:title="抽象構文木のステップ式のクラス.">
<polygon fill="#bfbfbf" stroke="black" points="1060,-324.58 1060,-343.58 1101,-343.58 1101,-324.58 1060,-324.58"/>
<text text-anchor="middle" x="1080.5" y="-331.58" font-family="Helvetica,sans-Serif" font-size="10.00">Block</text>
</a>
</g>
</g>
<!-- Node2 -->
<g id="node2" class="node">
<title>Node2</title>
<g id="a_node2"><a xlink:href="classast_1_1_block_base.html" target="_top" xlink:title="抽象構文木のステップ式のクラス.">
<polygon fill="white" stroke="black" points="959,-429.58 959,-448.58 1023,-448.58 1023,-429.58 959,-429.58"/>
<text text-anchor="middle" x="991" y="-436.58" font-family="Helvetica,sans-Serif" font-size="10.00">BlockBase</text>
</a>
</g>
</g>
<!-- Node2&#45;&gt;Node1 -->
<g id="edge1" class="edge">
<title>Node2&#45;&gt;Node1</title>
<path fill="none" stroke="midnightblue" d="M1006.5,-421.68C1025.09,-399.37 1056.68,-361.46 1071.44,-343.74"/>
<polygon fill="midnightblue" stroke="midnightblue" points="1003.79,-419.46 1000.07,-429.39 1009.17,-423.95 1003.79,-419.46"/>
</g>
<!-- Node3 -->
<g id="node3" class="node">
<title>Node3</title>
<g id="a_node3"><a xlink:href="classast_1_1_ast_node_tagged.html" target="_top" xlink:title="子それぞれにタグと型アイテムをもつ順序ノードAstNodeのサブクラス．利用者は自前で，追加する子のField名と型を設定する．読み出しは子の添字のみで行う．">
<polygon fill="white" stroke="black" points="791,-206.58 791,-225.58 877,-225.58 877,-206.58 791,-206.58"/>
<text text-anchor="middle" x="834" y="-213.58" font-family="Helvetica,sans-Serif" font-size="10.00">AstNodeTagged</text>
</a>
</g>
</g>
<!-- Node3&#45;&gt;Node2 -->
<g id="edge2" class="edge">
<title>Node3&#45;&gt;Node2</title>
<path fill="none" stroke="midnightblue" d="M847.56,-234.14C878.88,-279.21 959.66,-395.42 983.36,-429.53"/>
<polygon fill="midnightblue" stroke="midnightblue" points="850.24,-231.87 841.66,-225.66 844.49,-235.87 850.24,-231.87"/>
</g>
<!-- Node4 -->
<g id="node4" class="node">
<title>Node4</title>
<g id="a_node4"><a xlink:href="classast_1_1_ast_node.html" target="_top" xlink:title="タグなしの順アクセスの子供をもてる抽象構文木のノードのクラス。">
<polygon fill="white" stroke="black" points="583.5,-275.58 583.5,-294.58 638.5,-294.58 638.5,-275.58 583.5,-275.58"/>
<text text-anchor="middle" x="611" y="-282.58" font-family="Helvetica,sans-Serif" font-size="10.00">AstNode</text>
</a>
</g>
</g>
<!-- Node4&#45;&gt;Node3 -->
<g id="edge3" class="edge">
<title>Node4&#45;&gt;Node3</title>
<path fill="none" stroke="midnightblue" d="M640.92,-272.53C673.49,-262.95 727.77,-250.03 773,-234.08 780.11,-231.57 787.54,-228.56 794.66,-225.63"/>
<polygon fill="midnightblue" stroke="midnightblue" points="639.69,-269.24 631.15,-275.52 641.73,-275.94 639.69,-269.24"/>
</g>
<!-- Node4&#45;&gt;Node3 -->
<g id="edge17" class="edge">
<title>Node4&#45;&gt;Node3</title>
<path fill="none" stroke="midnightblue" d="M648.72,-284.41C681.69,-278.97 731.21,-266.81 773,-252.08 792.39,-245.24 814.18,-234.67 825.4,-225.87"/>
<polygon fill="midnightblue" stroke="midnightblue" points="647.99,-280.98 638.62,-285.94 649.03,-287.9 647.99,-280.98"/>
</g>
<!-- Node25 -->
<g id="node21" class="node">
<title>Node25</title>
<g id="a_node21"><a xlink:href="classast_1_1_sent_list.html" target="_top" xlink:title="文Sentenceのリスト.">
<polygon fill="white" stroke="black" points="807.5,-335.58 807.5,-354.58 860.5,-354.58 860.5,-335.58 807.5,-335.58"/>
<text text-anchor="middle" x="834" y="-342.58" font-family="Helvetica,sans-Serif" font-size="10.00">SentList</text>
</a>
</g>
</g>
<!-- Node4&#45;&gt;Node25 -->
<g id="edge25" class="edge">
<title>Node4&#45;&gt;Node25</title>
<path fill="none" stroke="midnightblue" d="M648.68,-288.53C681.83,-292.38 731.63,-300.02 773,-314.08 788.88,-319.47 805.74,-328.51 817.53,-335.44"/>
<polygon fill="midnightblue" stroke="midnightblue" points="648.86,-285.03 638.54,-287.41 648.09,-291.99 648.86,-285.03"/>
</g>
<!-- Node29 -->
<g id="node25" class="node">
<title>Node29</title>
<g id="a_node25"><a xlink:href="classmachine_1_1_var.html" target="_top" xlink:title="フレーム中の変数参照オブジェクトref = (XType type, int vid)">
<polygon fill="white" stroke="black" points="818.5,-394.58 818.5,-413.58 849.5,-413.58 849.5,-394.58 818.5,-394.58"/>
<text text-anchor="middle" x="834" y="-401.58" font-family="Helvetica,sans-Serif" font-size="10.00">Var</text>
</a>
</g>
</g>
<!-- Node4&#45;&gt;Node29 -->
<g id="edge32" class="edge">
<title>Node4&#45;&gt;Node29</title>
<path fill="none" stroke="midnightblue" d="M648.45,-291.42C681.93,-302.36 732.36,-323.58 773,-348.08 794.98,-361.33 818.11,-381.49 828.02,-394.39"/>
<polygon fill="midnightblue" stroke="midnightblue" points="649.22,-287.99 638.63,-288.36 647.14,-294.68 649.22,-287.99"/>
</g>
<!-- Node4&#45;&gt;Node29 -->
<g id="edge34" class="edge">
<title>Node4&#45;&gt;Node29</title>
<path fill="none" stroke="midnightblue" d="M634.86,-299.25C666.88,-314.19 726.39,-337.98 773,-366.08 789.54,-376.05 806.73,-389.94 818.45,-398.36"/>
<polygon fill="midnightblue" stroke="midnightblue" points="636.01,-295.92 625.48,-294.72 632.96,-302.23 636.01,-295.92"/>
</g>
<!-- Node5 -->
<g id="node5" class="node">
<title>Node5</title>
<g id="a_node5"><a xlink:href="classast_1_1_ast_node_base.html" target="_top" xlink:title=" ">
<polygon fill="white" stroke="red" points="301.5,-420.58 301.5,-439.58 378.5,-439.58 378.5,-420.58 301.5,-420.58"/>
<text text-anchor="middle" x="340" y="-427.58" font-family="Helvetica,sans-Serif" font-size="10.00">AstNodeBase</text>
</a>
</g>
</g>
<!-- Node5&#45;&gt;Node4 -->
<g id="edge4" class="edge">
<title>Node5&#45;&gt;Node4</title>
<path fill="none" stroke="midnightblue" d="M388.76,-431.77C424.81,-431.01 474.33,-425.47 512,-404.08 524.16,-397.17 581.78,-322.23 602.53,-294.94"/>
<polygon fill="midnightblue" stroke="midnightblue" points="388.47,-428.27 378.51,-431.86 388.54,-435.27 388.47,-428.27"/>
</g>
<!-- Node8 -->
<g id="node6" class="node">
<title>Node8</title>
<g id="a_node6"><a xlink:title=" ">
<polygon fill="white" stroke="#bfbfbf" points="15,-547.58 15,-566.58 88,-566.58 88,-547.58 15,-547.58"/>
<text text-anchor="middle" x="51.5" y="-554.58" font-family="Helvetica,sans-Serif" font-size="10.00">static Report</text>
</a>
</g>
</g>
<!-- Node8&#45;&gt;Node5 -->
<g id="edge5" class="edge">
<title>Node8&#45;&gt;Node5</title>
<path fill="none" stroke="#9a32cd" stroke-dasharray="5,2" d="M80.46,-542.84C92.76,-536.78 107.47,-529.79 121,-524.08 174.62,-501.42 190.69,-502.47 244,-479.08 272.04,-466.77 303.4,-449.98 322.15,-439.59"/>
<polygon fill="#9a32cd" stroke="#9a32cd" points="78.56,-539.88 71.17,-547.47 81.68,-546.14 78.56,-539.88"/>
<text text-anchor="middle" x="182.5" y="-527.08" font-family="Helvetica,sans-Serif" font-size="10.00"> repo</text>
</g>
<!-- Node31 -->
<g id="node27" class="node">
<title>Node31</title>
<g id="a_node27"><a xlink:href="classmachine_1_1_var_table.html" target="_top" xlink:title="@整数の表">
<polygon fill="white" stroke="black" points="313,-547.58 313,-566.58 367,-566.58 367,-547.58 313,-547.58"/>
<text text-anchor="middle" x="340" y="-554.58" font-family="Helvetica,sans-Serif" font-size="10.00">VarTable</text>
</a>
</g>
</g>
<!-- Node8&#45;&gt;Node31 -->
<g id="edge39" class="edge">
<title>Node8&#45;&gt;Node31</title>
<path fill="none" stroke="#9a32cd" stroke-dasharray="5,2" d="M98.34,-566.24C105.89,-567.42 113.64,-568.44 121,-569.08 175.46,-573.81 189.44,-572.51 244,-569.08 267.39,-567.61 293.84,-564.11 312.87,-561.28"/>
<polygon fill="#9a32cd" stroke="#9a32cd" points="98.69,-562.75 88.25,-564.55 97.54,-569.65 98.69,-562.75"/>
<text text-anchor="middle" x="182.5" y="-575.08" font-family="Helvetica,sans-Serif" font-size="10.00"> repo</text>
</g>
<!-- Node9 -->
<g id="node7" class="node">
<title>Node9</title>
<g id="a_node7"><a xlink:title=" ">
<polygon fill="white" stroke="#bfbfbf" points="37,-248.58 37,-267.58 66,-267.58 66,-248.58 37,-248.58"/>
<text text-anchor="middle" x="51.5" y="-255.58" font-family="Helvetica,sans-Serif" font-size="10.00">int</text>
</a>
</g>
</g>
<!-- Node9&#45;&gt;Node1 -->
<g id="edge45" class="edge">
<title>Node9&#45;&gt;Node1</title>
<path fill="none" stroke="#9a32cd" stroke-dasharray="5,2" d="M53.23,-238.17C55.84,-197.66 67.64,-105.34 121,-56.08 194.42,11.71 239.08,-1.08 339,-1.08 339,-1.08 339,-1.08 992,-1.08 1060.74,-1.08 1076.59,-269.87 1079.1,-324.47"/>
<polygon fill="#9a32cd" stroke="#9a32cd" points="49.73,-238.18 52.71,-248.35 56.72,-238.54 49.73,-238.18"/>
<text text-anchor="middle" x="741.5" y="-4.08" font-family="Helvetica,sans-Serif" font-size="10.00"> idxTypeSents</text>
</g>
<!-- Node9&#45;&gt;Node2 -->
<g id="edge30" class="edge">
<title>Node9&#45;&gt;Node2</title>
<path fill="none" stroke="#9a32cd" stroke-dasharray="5,2" d="M59.64,-239.1C69.84,-214.29 90.73,-170.85 121,-144.08 200.43,-73.82 232.95,-47.08 339,-47.08 339,-47.08 339,-47.08 835,-47.08 982.15,-47.08 908.87,-215.73 959,-354.08 968.85,-381.25 980.55,-413.27 986.36,-429.14"/>
<polygon fill="#9a32cd" stroke="#9a32cd" points="56.35,-237.9 55.93,-248.49 62.86,-240.48 56.35,-237.9"/>
<text text-anchor="middle" x="611" y="-50.08" font-family="Helvetica,sans-Serif" font-size="10.00"> funcid_</text>
</g>
<!-- Node9&#45;&gt;Node5 -->
<g id="edge6" class="edge">
<title>Node9&#45;&gt;Node5</title>
<path fill="none" stroke="#9a32cd" stroke-dasharray="5,2" d="M60.04,-277.1C70.34,-300.68 91.01,-340.49 121,-363.08 128.57,-368.78 246.8,-403.44 305.9,-420.55"/>
<polygon fill="#9a32cd" stroke="#9a32cd" points="63.24,-275.69 56.15,-267.81 56.78,-278.39 63.24,-275.69"/>
<text text-anchor="middle" x="182.5" y="-415.08" font-family="Helvetica,sans-Serif" font-size="10.00"> BITMASK_PRINT_WIDTH</text>
<text text-anchor="middle" x="182.5" y="-404.08" font-family="Helvetica,sans-Serif" font-size="10.00">UNDEF</text>
</g>
<!-- Node18 -->
<g id="node14" class="node">
<title>Node18</title>
<g id="a_node14"><a xlink:href="classformat_1_1_style.html" target="_top" xlink:title="ノードの表示スタイルに関するプロパティのクラス.">
<polygon fill="white" stroke="red" points="320.5,-154.58 320.5,-173.58 359.5,-173.58 359.5,-154.58 320.5,-154.58"/>
<text text-anchor="middle" x="340" y="-161.58" font-family="Helvetica,sans-Serif" font-size="10.00">Style</text>
</a>
</g>
</g>
<!-- Node9&#45;&gt;Node18 -->
<g id="edge14" class="edge">
<title>Node9&#45;&gt;Node18</title>
<path fill="none" stroke="#9a32cd" stroke-dasharray="5,2" d="M75.77,-248.87C114.16,-233.87 193.37,-203.77 262,-183.08 281.77,-177.12 304.81,-171.62 320.5,-168.09"/>
<polygon fill="#9a32cd" stroke="#9a32cd" points="74.1,-245.76 66.07,-252.68 76.65,-252.28 74.1,-245.76"/>
<text text-anchor="middle" x="182.5" y="-235.08" font-family="Helvetica,sans-Serif" font-size="10.00"> pref</text>
</g>
<!-- Node9&#45;&gt;Node29 -->
<g id="edge36" class="edge">
<title>Node9&#45;&gt;Node29</title>
<path fill="none" stroke="#9a32cd" stroke-dasharray="5,2" d="M63.21,-276.39C75,-294.87 95.68,-322.78 121,-338.08 168.99,-367.06 190.4,-349.65 244,-366.08 252.21,-368.59 253.59,-371.36 262,-373.08 449.34,-411.39 501.34,-372.51 692,-387.08 738.22,-390.61 792.6,-398.12 818.22,-401.86"/>
<polygon fill="#9a32cd" stroke="#9a32cd" points="66.1,-274.4 57.88,-267.71 60.13,-278.06 66.1,-274.4"/>
<text text-anchor="middle" x="474" y="-393.08" font-family="Helvetica,sans-Serif" font-size="10.00"> UNDEF</text>
</g>
<!-- Node9&#45;&gt;Node31 -->
<g id="edge40" class="edge">
<title>Node9&#45;&gt;Node31</title>
<path fill="none" stroke="#9a32cd" stroke-dasharray="5,2" d="M58.53,-277.5C72.67,-322.52 107.77,-431.03 121,-442.08 163.63,-477.67 194.64,-438.64 244,-464.08 284.21,-484.8 318.54,-528.31 332.42,-547.56"/>
<polygon fill="#9a32cd" stroke="#9a32cd" points="61.8,-276.25 55.48,-267.75 55.12,-278.34 61.8,-276.25"/>
<text text-anchor="middle" x="182.5" y="-467.08" font-family="Helvetica,sans-Serif" font-size="10.00"> UNDEF</text>
</g>
<!-- Node11 -->
<g id="node8" class="node">
<title>Node11</title>
<g id="a_node8"><a xlink:title=" ">
<polygon fill="white" stroke="#bfbfbf" points="26.5,-420.58 26.5,-439.58 76.5,-439.58 76.5,-420.58 26.5,-420.58"/>
<text text-anchor="middle" x="51.5" y="-427.58" font-family="Helvetica,sans-Serif" font-size="10.00">boolean</text>
</a>
</g>
</g>
<!-- Node11&#45;&gt;Node2 -->
<g id="edge43" class="edge">
<title>Node11&#45;&gt;Node2</title>
<path fill="none" stroke="#9a32cd" stroke-dasharray="5,2" d="M70.87,-446.37C83.89,-456.88 102.31,-469.72 121,-476.08 212.92,-507.33 241.91,-490.08 339,-490.08 339,-490.08 339,-490.08 835,-490.08 887.41,-490.08 945.02,-463.44 972.94,-448.67"/>
<polygon fill="#9a32cd" stroke="#9a32cd" points="73.05,-443.64 63.14,-439.9 68.56,-449.01 73.05,-443.64"/>
<text text-anchor="middle" x="611" y="-493.08" font-family="Helvetica,sans-Serif" font-size="10.00"> DEBUG_REPO</text>
</g>
<!-- Node11&#45;&gt;Node3 -->
<g id="edge21" class="edge">
<title>Node11&#45;&gt;Node3</title>
<path fill="none" stroke="#9a32cd" stroke-dasharray="5,2" d="M59.66,-410.93C70.21,-382.18 90.08,-326 103,-277.08 113.41,-237.64 93.51,-217.22 121,-187.08 165.06,-138.76 197.3,-154.51 262,-145.08 372.64,-128.95 429.71,-97.39 512,-173.08 528.16,-187.94 511.87,-206.7 530,-219.08 589.47,-259.67 620,-219.52 692,-219.08 728,-218.86 737.01,-218.9 773,-218.08 778.73,-217.95 784.77,-217.78 790.72,-217.6"/>
<polygon fill="#9a32cd" stroke="#9a32cd" points="56.29,-409.94 56.1,-420.53 62.85,-412.37 56.29,-409.94"/>
<text text-anchor="middle" x="474" y="-176.08" font-family="Helvetica,sans-Serif" font-size="10.00"> DEBUG_REPO</text>
</g>
<!-- Node11&#45;&gt;Node5 -->
<g id="edge7" class="edge">
<title>Node11&#45;&gt;Node5</title>
<path fill="none" stroke="#9a32cd" stroke-dasharray="5,2" d="M87.04,-430.08C141.1,-430.08 245.29,-430.08 301.26,-430.08"/>
<polygon fill="#9a32cd" stroke="#9a32cd" points="86.93,-426.58 76.93,-430.08 86.93,-433.58 86.93,-426.58"/>
<text text-anchor="middle" x="182.5" y="-433.08" font-family="Helvetica,sans-Serif" font-size="10.00"> DEBUG_REPO</text>
</g>
<!-- Node11&#45;&gt;Node18 -->
<g id="edge15" class="edge">
<title>Node11&#45;&gt;Node18</title>
<path fill="none" stroke="#9a32cd" stroke-dasharray="5,2" d="M63.63,-411.72C76.11,-391.99 97.69,-360.32 121,-337.08 168.97,-289.25 205.38,-302.73 244,-247.08 260.85,-222.8 240.77,-203.63 262,-183.08 277.53,-168.04 302.97,-164.3 320.33,-163.66"/>
<polygon fill="#9a32cd" stroke="#9a32cd" points="60.56,-410.02 58.26,-420.37 66.51,-413.72 60.56,-410.02"/>
<text text-anchor="middle" x="182.5" y="-351.08" font-family="Helvetica,sans-Serif" font-size="10.00"> preoperSupress</text>
<text text-anchor="middle" x="182.5" y="-340.08" font-family="Helvetica,sans-Serif" font-size="10.00">toInline</text>
</g>
<!-- Node11&#45;&gt;Node31 -->
<g id="edge42" class="edge">
<title>Node11&#45;&gt;Node31</title>
<path fill="none" stroke="#9a32cd" stroke-dasharray="5,2" d="M59.09,-449.34C68.58,-473.85 88.61,-515.37 121,-535.08 152.6,-554.31 262.02,-557.02 312.77,-557.21"/>
<polygon fill="#9a32cd" stroke="#9a32cd" points="62.28,-447.89 55.56,-439.7 55.71,-450.3 62.28,-447.89"/>
<text text-anchor="middle" x="182.5" y="-558.08" font-family="Helvetica,sans-Serif" font-size="10.00"> DEBUG_REPO</text>
</g>
<!-- Node12 -->
<g id="node9" class="node">
<title>Node12</title>
<g id="a_node9"><a xlink:href="interfaceast_1_1_node.html" target="_top" xlink:title=" ">
<polygon fill="white" stroke="red" points="320,-230.58 320,-249.58 360,-249.58 360,-230.58 320,-230.58"/>
<text text-anchor="middle" x="340" y="-237.58" font-family="Helvetica,sans-Serif" font-size="10.00">Node</text>
</a>
</g>
</g>
<!-- Node12&#45;&gt;Node4 -->
<g id="edge8" class="edge">
<title>Node12&#45;&gt;Node4</title>
<path fill="none" stroke="midnightblue" d="M370.39,-244.99C423.1,-253.81 532.93,-272.18 583.48,-280.64"/>
<polygon fill="midnightblue" stroke="midnightblue" points="370.79,-241.51 360.35,-243.31 369.63,-248.42 370.79,-241.51"/>
</g>
<!-- Node14 -->
<g id="node10" class="node">
<title>Node14</title>
<g id="a_node10"><a xlink:href="interfaceformat_1_1_x_formattable_1_1_navigatable.html" target="_top" xlink:title="木構造の分岐ノードとして清書可能なオブジェクトのクラス">
<polygon fill="white" stroke="red" points="275,-192.58 275,-211.58 405,-211.58 405,-192.58 275,-192.58"/>
<text text-anchor="middle" x="340" y="-199.58" font-family="Helvetica,sans-Serif" font-size="10.00">XFormattable.Navigatable</text>
</a>
</g>
</g>
<!-- Node14&#45;&gt;Node4 -->
<g id="edge9" class="edge">
<title>Node14&#45;&gt;Node4</title>
<path fill="none" stroke="midnightblue" d="M392.29,-214.13C400.91,-216.32 409.73,-218.68 418,-221.08 477.74,-238.37 546.65,-262.35 583.5,-275.5"/>
<polygon fill="midnightblue" stroke="midnightblue" points="392.87,-210.66 382.32,-211.63 391.17,-217.46 392.87,-210.66"/>
</g>
<!-- Node15 -->
<g id="node11" class="node">
<title>Node15</title>
<g id="a_node11"><a xlink:href="interfaceformat_1_1_x_formattable_1_1_typed_formattable.html" target="_top" xlink:title="ノードの型情報をもつ書式出力可能なオブジェクトのインタフェース．">
<polygon fill="white" stroke="red" points="262,-344.58 262,-363.58 418,-363.58 418,-344.58 262,-344.58"/>
<text text-anchor="middle" x="340" y="-351.58" font-family="Helvetica,sans-Serif" font-size="10.00">XFormattable.TypedFormattable</text>
</a>
</g>
</g>
<!-- Node15&#45;&gt;Node4 -->
<g id="edge10" class="edge">
<title>Node15&#45;&gt;Node4</title>
<path fill="none" stroke="midnightblue" d="M410.02,-342.74C441.39,-336.98 478.83,-329.25 512,-320.08 537.77,-312.95 566.5,-302.37 586.15,-294.71"/>
<polygon fill="midnightblue" stroke="midnightblue" points="409.28,-339.32 400.07,-344.54 410.53,-346.2 409.28,-339.32"/>
</g>
<!-- Node16 -->
<g id="node12" class="node">
<title>Node16</title>
<g id="a_node12"><a xlink:title=" ">
<polygon fill="white" stroke="#bfbfbf" points="295,-306.58 295,-325.58 385,-325.58 385,-306.58 295,-306.58"/>
<text text-anchor="middle" x="340" y="-313.58" font-family="Helvetica,sans-Serif" font-size="10.00">List&lt; ast.Node &gt;</text>
</a>
</g>
</g>
<!-- Node16&#45;&gt;Node4 -->
<g id="edge11" class="edge">
<title>Node16&#45;&gt;Node4</title>
<path fill="none" stroke="#9a32cd" stroke-dasharray="5,2" d="M395.06,-309.85C452.15,-303.27 539.8,-293.17 583.43,-288.14"/>
<polygon fill="#9a32cd" stroke="#9a32cd" points="394.65,-306.37 385.12,-310.99 395.45,-313.33 394.65,-306.37"/>
<text text-anchor="middle" x="474" y="-308.08" font-family="Helvetica,sans-Serif" font-size="10.00"> children</text>
</g>
<!-- Node17 -->
<g id="node13" class="node">
<title>Node17</title>
<g id="a_node13"><a xlink:title=" ">
<polygon fill="white" stroke="#bfbfbf" points="314,-268.58 314,-287.58 366,-287.58 366,-268.58 314,-268.58"/>
<text text-anchor="middle" x="340" y="-275.58" font-family="Helvetica,sans-Serif" font-size="10.00">Boolean</text>
</a>
</g>
</g>
<!-- Node17&#45;&gt;Node4 -->
<g id="edge12" class="edge">
<title>Node17&#45;&gt;Node4</title>
<path fill="none" stroke="#9a32cd" stroke-dasharray="5,2" d="M376.56,-279C431.22,-280.43 534.67,-283.12 583.37,-284.38"/>
<polygon fill="#9a32cd" stroke="#9a32cd" points="376.39,-275.5 366.31,-278.74 376.21,-282.5 376.39,-275.5"/>
<text text-anchor="middle" x="474" y="-286.08" font-family="Helvetica,sans-Serif" font-size="10.00"> DEBUG_CHILD</text>
</g>
<!-- Node18&#45;&gt;Node4 -->
<g id="edge13" class="edge">
<title>Node18&#45;&gt;Node4</title>
<path fill="none" stroke="#9a32cd" stroke-dasharray="5,2" d="M369.68,-170.67C384.22,-174.14 402.11,-178.59 418,-183.08 460.2,-195 479.14,-184.04 512,-213.08 526.31,-225.72 516.23,-238.86 530,-252.08 544.74,-266.23 566.4,-274.65 583.46,-279.45"/>
<polygon fill="#9a32cd" stroke="#9a32cd" points="370.3,-167.22 359.76,-168.34 368.7,-174.04 370.3,-167.22"/>
<text text-anchor="middle" x="474" y="-216.08" font-family="Helvetica,sans-Serif" font-size="10.00"> sty</text>
</g>
<!-- Node19 -->
<g id="node15" class="node">
<title>Node19</title>
<g id="a_node15"><a xlink:title=" ">
<polygon fill="white" stroke="#bfbfbf" points="566.5,-76.58 566.5,-95.58 655.5,-95.58 655.5,-76.58 566.5,-76.58"/>
<text text-anchor="middle" x="611" y="-83.58" font-family="Helvetica,sans-Serif" font-size="10.00">FieldNavigatable</text>
</a>
</g>
</g>
<!-- Node19&#45;&gt;Node3 -->
<g id="edge16" class="edge">
<title>Node19&#45;&gt;Node3</title>
<path fill="none" stroke="midnightblue" d="M665.75,-92.5C699.25,-98.7 741.76,-110.75 773,-134.08 799.85,-154.13 819.9,-189.59 828.45,-206.54"/>
<polygon fill="midnightblue" stroke="midnightblue" points="666.12,-89.01 655.67,-90.76 664.93,-95.91 666.12,-89.01"/>
</g>
<!-- Node20 -->
<g id="node16" class="node">
<title>Node20</title>
<g id="a_node16"><a xlink:title=" ">
<polygon fill="white" stroke="#bfbfbf" points="573,-190.58 573,-209.58 649,-209.58 649,-190.58 573,-190.58"/>
<text text-anchor="middle" x="611" y="-197.58" font-family="Helvetica,sans-Serif" font-size="10.00">List&lt; String &gt;</text>
</a>
</g>
</g>
<!-- Node20&#45;&gt;Node3 -->
<g id="edge18" class="edge">
<title>Node20&#45;&gt;Node3</title>
<path fill="none" stroke="#9a32cd" stroke-dasharray="5,2" d="M659.18,-200.82C691.32,-201.65 734.8,-203.39 773,-207.08 778.77,-207.63 784.82,-208.37 790.78,-209.17"/>
<polygon fill="#9a32cd" stroke="#9a32cd" points="659.25,-197.32 649.17,-200.58 659.08,-204.32 659.25,-197.32"/>
<text text-anchor="middle" x="741.5" y="-210.08" font-family="Helvetica,sans-Serif" font-size="10.00"> fields</text>
</g>
<!-- Node21 -->
<g id="node17" class="node">
<title>Node21</title>
<g id="a_node17"><a xlink:title=" ">
<polygon fill="white" stroke="#bfbfbf" points="562,-152.58 562,-171.58 660,-171.58 660,-152.58 562,-152.58"/>
<text text-anchor="middle" x="611" y="-159.58" font-family="Helvetica,sans-Serif" font-size="10.00">List&lt; XTypeItem &gt;</text>
</a>
</g>
</g>
<!-- Node21&#45;&gt;Node3 -->
<g id="edge19" class="edge">
<title>Node21&#45;&gt;Node3</title>
<path fill="none" stroke="#9a32cd" stroke-dasharray="5,2" d="M670.54,-167.58C701.47,-171.48 739.81,-177.87 773,-188.08 788.05,-192.71 804.18,-200.4 815.92,-206.55"/>
<polygon fill="#9a32cd" stroke="#9a32cd" points="670.69,-164.08 660.35,-166.36 669.86,-171.03 670.69,-164.08"/>
<text text-anchor="middle" x="741.5" y="-191.08" font-family="Helvetica,sans-Serif" font-size="10.00"> types</text>
</g>
<!-- Node22 -->
<g id="node18" class="node">
<title>Node22</title>
<g id="a_node18"><a xlink:title=" ">
<polygon fill="white" stroke="#bfbfbf" points="530,-114.58 530,-133.58 692,-133.58 692,-114.58 530,-114.58"/>
<text text-anchor="middle" x="611" y="-121.58" font-family="Helvetica,sans-Serif" font-size="10.00">List&lt; Supplier&lt; XFormattable &gt; &gt;</text>
</a>
</g>
</g>
<!-- Node22&#45;&gt;Node3 -->
<g id="edge20" class="edge">
<title>Node22&#45;&gt;Node3</title>
<path fill="none" stroke="#9a32cd" stroke-dasharray="5,2" d="M702.19,-134.71C726.14,-139.9 751.34,-147.61 773,-159.08 795.35,-170.91 815.33,-193.41 825.63,-206.32"/>
<polygon fill="#9a32cd" stroke="#9a32cd" points="702.88,-131.28 692.38,-132.71 701.48,-138.14 702.88,-131.28"/>
<text text-anchor="middle" x="741.5" y="-162.08" font-family="Helvetica,sans-Serif" font-size="10.00"> getters</text>
</g>
<!-- Node23 -->
<g id="node19" class="node">
<title>Node23</title>
<g id="a_node19"><a xlink:href="interfacemachine_1_1_rule.html" target="_top" xlink:title="実行可能コードのインタフェース. ブロックとステップの二種がある。">
<polygon fill="white" stroke="black" points="815.5,-595.58 815.5,-614.58 852.5,-614.58 852.5,-595.58 815.5,-595.58"/>
<text text-anchor="middle" x="834" y="-602.58" font-family="Helvetica,sans-Serif" font-size="10.00">Rule</text>
</a>
</g>
</g>
<!-- Node23&#45;&gt;Node2 -->
<g id="edge22" class="edge">
<title>Node23&#45;&gt;Node2</title>
<path fill="none" stroke="midnightblue" d="M862.81,-605.88C886.38,-605.07 919.67,-600.19 941,-581.08 981.21,-545.05 988.43,-474.44 989.72,-448.73"/>
<polygon fill="midnightblue" stroke="midnightblue" points="862.69,-602.39 852.73,-606.01 862.78,-609.39 862.69,-602.39"/>
</g>
<!-- Node24 -->
<g id="node20" class="node">
<title>Node24</title>
<g id="a_node20"><a xlink:href="interfacecmd_1_1_generatable.html" target="_top" xlink:title="変換してコードを生成できるノードのインタフェース.">
<polygon fill="white" stroke="black" points="576.5,-396.58 576.5,-415.58 645.5,-415.58 645.5,-396.58 576.5,-396.58"/>
<text text-anchor="middle" x="611" y="-403.58" font-family="Helvetica,sans-Serif" font-size="10.00">Generatable</text>
</a>
</g>
</g>
<!-- Node24&#45;&gt;Node2 -->
<g id="edge23" class="edge">
<title>Node24&#45;&gt;Node2</title>
<path fill="none" stroke="midnightblue" d="M656.07,-412.47C711.64,-420.21 810.16,-432.85 895,-438.08 916.24,-439.39 940.19,-439.63 958.74,-439.55"/>
<polygon fill="midnightblue" stroke="midnightblue" points="656.27,-408.97 645.88,-411.04 655.3,-415.9 656.27,-408.97"/>
</g>
<!-- Node24&#45;&gt;Node25 -->
<g id="edge26" class="edge">
<title>Node24&#45;&gt;Node25</title>
<path fill="none" stroke="midnightblue" d="M655.4,-394.1C700.7,-381.59 770.2,-362.41 807.41,-352.14"/>
<polygon fill="midnightblue" stroke="midnightblue" points="654.27,-390.78 645.57,-396.81 656.14,-397.53 654.27,-390.78"/>
</g>
<!-- Node25&#45;&gt;Node1 -->
<g id="edge44" class="edge">
<title>Node25&#45;&gt;Node1</title>
<path fill="none" stroke="#9a32cd" stroke-dasharray="5,2" d="M870.86,-343.46C923.15,-341.11 1018.54,-336.82 1059.71,-334.97"/>
<polygon fill="#9a32cd" stroke="#9a32cd" points="870.54,-339.98 860.7,-343.92 870.85,-346.97 870.54,-339.98"/>
<text text-anchor="middle" x="991" y="-342.08" font-family="Helvetica,sans-Serif" font-size="10.00"> sents_</text>
</g>
<!-- Node25&#45;&gt;Node2 -->
<g id="edge24" class="edge">
<title>Node25&#45;&gt;Node2</title>
<path fill="none" stroke="#9a32cd" stroke-dasharray="5,2" d="M864.09,-359.2C885.78,-370.09 915.87,-385.97 941,-402.08 954.28,-410.59 968.58,-421.63 978.29,-429.42"/>
<polygon fill="#9a32cd" stroke="#9a32cd" points="865.57,-356.02 855.05,-354.71 862.45,-362.29 865.57,-356.02"/>
<text text-anchor="middle" x="918" y="-405.08" font-family="Helvetica,sans-Serif" font-size="10.00"> pre_sent_</text>
</g>
<!-- Node26 -->
<g id="node22" class="node">
<title>Node26</title>
<g id="a_node22"><a xlink:href="classcmd_1_1_cmd_list.html" target="_top" xlink:title="仮想命令のリスト．">
<polygon fill="white" stroke="black" points="313.5,-632.58 313.5,-651.58 366.5,-651.58 366.5,-632.58 313.5,-632.58"/>
<text text-anchor="middle" x="340" y="-639.58" font-family="Helvetica,sans-Serif" font-size="10.00">CmdList</text>
</a>
</g>
</g>
<!-- Node26&#45;&gt;Node2 -->
<g id="edge27" class="edge">
<title>Node26&#45;&gt;Node2</title>
<path fill="none" stroke="#9a32cd" stroke-dasharray="5,2" d="M376.56,-638.77C491.09,-627.55 848.29,-587.91 941,-522.08 967.06,-503.57 981.51,-466.48 987.17,-448.83"/>
<polygon fill="#9a32cd" stroke="#9a32cd" points="376.17,-635.29 366.56,-639.74 376.85,-642.26 376.17,-635.29"/>
<text text-anchor="middle" x="741.5" y="-595.08" font-family="Helvetica,sans-Serif" font-size="10.00"> code_</text>
</g>
<!-- Node27 -->
<g id="node23" class="node">
<title>Node27</title>
<g id="a_node23"><a xlink:title=" ">
<polygon fill="white" stroke="#bfbfbf" points="0,-617.58 0,-636.58 103,-636.58 103,-617.58 0,-617.58"/>
<text text-anchor="middle" x="51.5" y="-624.58" font-family="Helvetica,sans-Serif" font-size="10.00">CustomFormattable</text>
</a>
</g>
</g>
<!-- Node27&#45;&gt;Node26 -->
<g id="edge28" class="edge">
<title>Node27&#45;&gt;Node26</title>
<path fill="none" stroke="midnightblue" d="M113.11,-630.25C175.14,-633.5 268.58,-638.39 313.33,-640.73"/>
<polygon fill="midnightblue" stroke="midnightblue" points="113.23,-626.75 103.06,-629.72 112.86,-633.74 113.23,-626.75"/>
</g>
<!-- Node27&#45;&gt;Node31 -->
<g id="edge38" class="edge">
<title>Node27&#45;&gt;Node31</title>
<path fill="none" stroke="midnightblue" d="M113.07,-616.03C150.93,-608.73 200.57,-598.44 244,-587.08 267.59,-580.9 294.02,-572.43 312.99,-566.06"/>
<polygon fill="midnightblue" stroke="midnightblue" points="112.39,-612.6 103.22,-617.92 113.7,-619.48 112.39,-612.6"/>
</g>
<!-- Node28 -->
<g id="node24" class="node">
<title>Node28</title>
<g id="a_node24"><a xlink:title=" ">
<polygon fill="white" stroke="#bfbfbf" points="16,-665.58 16,-684.58 87,-684.58 87,-665.58 16,-665.58"/>
<text text-anchor="middle" x="51.5" y="-672.58" font-family="Helvetica,sans-Serif" font-size="10.00">List&lt; Cmd &gt;</text>
</a>
</g>
</g>
<!-- Node28&#45;&gt;Node26 -->
<g id="edge29" class="edge">
<title>Node28&#45;&gt;Node26</title>
<path fill="none" stroke="#9a32cd" stroke-dasharray="5,2" d="M97.11,-669.94C157.77,-662.95 264.32,-650.68 313.19,-645.05"/>
<polygon fill="#9a32cd" stroke="#9a32cd" points="96.59,-666.48 87.06,-671.1 97.39,-673.43 96.59,-666.48"/>
<text text-anchor="middle" x="182.5" y="-670.08" font-family="Helvetica,sans-Serif" font-size="10.00"> list_</text>
</g>
<!-- Node29&#45;&gt;Node2 -->
<g id="edge31" class="edge">
<title>Node29&#45;&gt;Node2</title>
<path fill="none" stroke="#9a32cd" stroke-dasharray="5,2" d="M859.71,-409.24C881.22,-413.79 913.22,-420.66 941,-427.08 946.8,-428.42 952.98,-429.89 958.92,-431.34"/>
<polygon fill="#9a32cd" stroke="#9a32cd" points="860.28,-405.79 849.77,-407.15 858.84,-412.64 860.28,-405.79"/>
<text text-anchor="middle" x="918" y="-430.08" font-family="Helvetica,sans-Serif" font-size="10.00"> retVar_</text>
</g>
<!-- Node30 -->
<g id="node26" class="node">
<title>Node30</title>
<g id="a_node26"><a xlink:href="interfacemachine_1_1_assignable.html" target="_top" xlink:title="変数（チャネルとコンテナの名前）の抽象化">
<polygon fill="white" stroke="black" points="578.5,-434.58 578.5,-453.58 643.5,-453.58 643.5,-434.58 578.5,-434.58"/>
<text text-anchor="middle" x="611" y="-441.58" font-family="Helvetica,sans-Serif" font-size="10.00">Assignable</text>
</a>
</g>
</g>
<!-- Node30&#45;&gt;Node29 -->
<g id="edge33" class="edge">
<title>Node30&#45;&gt;Node29</title>
<path fill="none" stroke="midnightblue" d="M649.1,-432.17C698.67,-420.68 784.23,-405.73 818.34,-403.15"/>
<polygon fill="midnightblue" stroke="midnightblue" points="648.01,-428.83 639.1,-434.56 649.64,-435.63 648.01,-428.83"/>
</g>
<!-- Node30&#45;&gt;Node29 -->
<g id="edge35" class="edge">
<title>Node30&#45;&gt;Node29</title>
<path fill="none" stroke="midnightblue" d="M653.85,-441.93C703.92,-435.11 785.14,-419.8 818.25,-410.33"/>
<polygon fill="midnightblue" stroke="midnightblue" points="653.13,-438.49 643.66,-443.25 654.03,-445.43 653.13,-438.49"/>
</g>
<!-- Node31&#45;&gt;Node2 -->
<g id="edge37" class="edge">
<title>Node31&#45;&gt;Node2</title>
<path fill="none" stroke="#9a32cd" stroke-dasharray="5,2" d="M377.35,-554.68C503.53,-546.27 916.23,-517.82 941,-504.08 963.74,-491.46 979.1,-463.4 985.95,-448.62"/>
<polygon fill="#9a32cd" stroke="#9a32cd" points="376.81,-551.21 367.07,-555.37 377.28,-558.2 376.81,-551.21"/>
<text text-anchor="middle" x="741.5" y="-533.08" font-family="Helvetica,sans-Serif" font-size="10.00"> vars_</text>
</g>
<!-- Node31&#45;&gt;Node31 -->
<g id="edge41" class="edge">
<title>Node31&#45;&gt;Node31</title>
<path fill="none" stroke="#9a32cd" stroke-dasharray="5,2" d="M315.07,-576.11C316.43,-581.21 324.74,-585.08 340,-585.08 363.82,-585.08 370.7,-575.64 360.65,-566.83"/>
<polygon fill="#9a32cd" stroke="#9a32cd" points="318.34,-577.38 319.35,-566.83 311.98,-574.45 318.34,-577.38"/>
<text text-anchor="middle" x="340" y="-588.08" font-family="Helvetica,sans-Serif" font-size="10.00"> parent</text>
</g>
</g>
</svg>
