<?xml version="1.0" encoding="UTF-8" standalone="no"?>
<!DOCTYPE svg PUBLIC "-//W3C//DTD SVG 1.1//EN"
 "http://www.w3.org/Graphics/SVG/1.1/DTD/svg11.dtd">
<!-- Generated by graphviz version 2.47.1 (20210417.1919)
 -->
<!-- Title: lookupVariable Pages: 1 -->
<svg width="548pt" height="104pt"
 viewBox="0.00 0.00 548.00 104.00" xmlns="http://www.w3.org/2000/svg" xmlns:xlink="http://www.w3.org/1999/xlink">
<g id="graph0" class="graph" transform="scale(1 1) rotate(0) translate(4 100)">
<title>lookupVariable</title>
<polygon fill="white" stroke="transparent" points="-4,4 -4,-100 544,-100 544,4 -4,4"/>
<!-- Node1 -->
<g id="node1" class="node">
<title>Node1</title>
<g id="a_node1"><a xlink:title="与えられた名前をもつ変数を記号表で見つけて返し， もし見つからなければ，Universe.createVariable(name)で， 最汎型をもつ新しい変数を生成して返す．">
<polygon fill="#bfbfbf" stroke="black" points="0,-57.5 0,-76.5 80,-76.5 80,-57.5 0,-57.5"/>
<text text-anchor="middle" x="40" y="-64.5" font-family="Helvetica,sans-Serif" font-size="10.00">lookupVariable</text>
</a>
</g>
</g>
<!-- Node2 -->
<g id="node2" class="node">
<title>Node2</title>
<g id="a_node2"><a xlink:href="classast_1_1_program.html#a31235693f479ea4df2da3ff442a9fe6b" target="_top" xlink:title="名前のカタログを返す．">
<polygon fill="white" stroke="black" points="124.5,-76.5 124.5,-95.5 210.5,-95.5 210.5,-76.5 124.5,-76.5"/>
<text text-anchor="middle" x="167.5" y="-83.5" font-family="Helvetica,sans-Serif" font-size="10.00">ast.Program.uni</text>
</a>
</g>
</g>
<!-- Node1&#45;&gt;Node2 -->
<g id="edge1" class="edge">
<title>Node1&#45;&gt;Node2</title>
<path fill="none" stroke="midnightblue" d="M80.02,-72.91C90.93,-74.56 102.96,-76.38 114.49,-78.13"/>
<polygon fill="midnightblue" stroke="midnightblue" points="114.04,-81.6 124.45,-79.63 115.09,-74.68 114.04,-81.6"/>
</g>
<!-- Node3 -->
<g id="node3" class="node">
<title>Node3</title>
<g id="a_node3"><a xlink:href="classtype_1_1_type_item.html#a6ce5a50989555a633ba32656e6b3a121" target="_top" xlink:title="この型変数thisと指定された型変数を単一化する（同じ同値類にする）。成功すればtrueを返し、そうでなければfalseを返す。">
<polygon fill="white" stroke="black" points="116,-38.5 116,-57.5 219,-57.5 219,-38.5 116,-38.5"/>
<text text-anchor="middle" x="167.5" y="-45.5" font-family="Helvetica,sans-Serif" font-size="10.00">type.TypeItem.unify</text>
</a>
</g>
</g>
<!-- Node1&#45;&gt;Node3 -->
<g id="edge2" class="edge">
<title>Node1&#45;&gt;Node3</title>
<path fill="none" stroke="midnightblue" d="M80.02,-61.09C88.28,-59.84 97.18,-58.49 106.03,-57.16"/>
<polygon fill="midnightblue" stroke="midnightblue" points="106.59,-60.61 115.95,-55.65 105.54,-53.69 106.59,-60.61"/>
</g>
<!-- Node4 -->
<g id="node4" class="node">
<title>Node4</title>
<g id="a_node4"><a xlink:href="enumtype_1_1_x_type.html#a56bd5bc246f87ecc5987ec1cced2ca85" target="_top" xlink:title="値型xt0と値型xt1の単一化（最大下界）xtを返す。 返り値がXType.Nothingは，単一化不可能を意味する．">
<polygon fill="white" stroke="black" points="273.5,-76.5 273.5,-95.5 364.5,-95.5 364.5,-76.5 273.5,-76.5"/>
<text text-anchor="middle" x="319" y="-83.5" font-family="Helvetica,sans-Serif" font-size="10.00">type.XType.meet</text>
</a>
</g>
</g>
<!-- Node3&#45;&gt;Node4 -->
<g id="edge3" class="edge">
<title>Node3&#45;&gt;Node4</title>
<path fill="none" stroke="midnightblue" d="M206.23,-57.59C225.78,-62.56 249.85,-68.68 270.64,-73.96"/>
<polygon fill="midnightblue" stroke="midnightblue" points="269.99,-77.41 280.55,-76.48 271.72,-70.62 269.99,-77.41"/>
</g>
<!-- Node5 -->
<g id="node5" class="node">
<title>Node5</title>
<g id="a_node5"><a xlink:href="classtype_1_1_union_find_item.html#a5d2f3e9121ceab808329981e2daed56d" target="_top" xlink:title="自身の同値類と与えられた元の同値類を併合して、代表元を返す。">
<polygon fill="white" stroke="black" points="255,-38.5 255,-57.5 383,-57.5 383,-38.5 255,-38.5"/>
<text text-anchor="middle" x="319" y="-45.5" font-family="Helvetica,sans-Serif" font-size="10.00">type.UnionFindItem.union</text>
</a>
</g>
</g>
<!-- Node3&#45;&gt;Node5 -->
<g id="edge4" class="edge">
<title>Node3&#45;&gt;Node5</title>
<path fill="none" stroke="midnightblue" d="M219.11,-48C227.39,-48 236.12,-48 244.81,-48"/>
<polygon fill="midnightblue" stroke="midnightblue" points="244.98,-51.5 254.98,-48 244.98,-44.5 244.98,-51.5"/>
</g>
<!-- Node7 -->
<g id="node7" class="node">
<title>Node7</title>
<g id="a_node7"><a xlink:href="classtype_1_1_type_item.html#ab2779590ca497b3e0b72a642b69a4c9a" target="_top" xlink:title="この型アイテムthisがもつ値型XTypeを返す。">
<polygon fill="white" stroke="black" points="266,-0.5 266,-19.5 372,-19.5 372,-0.5 266,-0.5"/>
<text text-anchor="middle" x="319" y="-7.5" font-family="Helvetica,sans-Serif" font-size="10.00">type.TypeItem.xtype</text>
</a>
</g>
</g>
<!-- Node3&#45;&gt;Node7 -->
<g id="edge7" class="edge">
<title>Node3&#45;&gt;Node7</title>
<path fill="none" stroke="midnightblue" d="M206.23,-38.41C225.78,-33.44 249.85,-27.32 270.64,-22.04"/>
<polygon fill="midnightblue" stroke="midnightblue" points="271.72,-25.38 280.55,-19.52 269.99,-18.59 271.72,-25.38"/>
</g>
<!-- Node6 -->
<g id="node6" class="node">
<title>Node6</title>
<g id="a_node6"><a xlink:href="classtype_1_1_union_find_item.html#a9389ec55354a215f76de769c1e149985" target="_top" xlink:title="与えられた元が属する同値類の代表元を返す。">
<polygon fill="white" stroke="black" points="419,-19.5 419,-38.5 540,-38.5 540,-19.5 419,-19.5"/>
<text text-anchor="middle" x="479.5" y="-26.5" font-family="Helvetica,sans-Serif" font-size="10.00">type.UnionFindItem.find</text>
</a>
</g>
</g>
<!-- Node5&#45;&gt;Node6 -->
<g id="edge5" class="edge">
<title>Node5&#45;&gt;Node6</title>
<path fill="none" stroke="midnightblue" d="M383.1,-40.44C391.6,-39.42 400.36,-38.37 408.96,-37.34"/>
<polygon fill="midnightblue" stroke="midnightblue" points="409.46,-40.8 418.97,-36.14 408.62,-33.85 409.46,-40.8"/>
</g>
<!-- Node6&#45;&gt;Node6 -->
<g id="edge6" class="edge">
<title>Node6&#45;&gt;Node6</title>
<path fill="none" stroke="midnightblue" d="M454.84,-38.76C442.84,-47.57 451.06,-57 479.5,-57 498.61,-57 508.59,-52.74 509.44,-47.27"/>
<polygon fill="midnightblue" stroke="midnightblue" points="512.4,-45.41 504.16,-38.76 506.45,-49.1 512.4,-45.41"/>
</g>
<!-- Node7&#45;&gt;Node6 -->
<g id="edge8" class="edge">
<title>Node7&#45;&gt;Node6</title>
<path fill="none" stroke="midnightblue" d="M372.34,-16.27C383.96,-17.67 396.46,-19.17 408.66,-20.63"/>
<polygon fill="midnightblue" stroke="midnightblue" points="408.46,-24.13 418.81,-21.84 409.3,-17.18 408.46,-24.13"/>
</g>
</g>
</svg>
