<?xml version="1.0" encoding="UTF-8" standalone="no"?>
<!DOCTYPE svg PUBLIC "-//W3C//DTD SVG 1.1//EN"
 "http://www.w3.org/Graphics/SVG/1.1/DTD/svg11.dtd">
<!-- Generated by graphviz version 2.47.1 (20210417.1919)
 -->
<!-- Title: recGen Pages: 1 -->
<svg width="367pt" height="155pt"
 viewBox="0.00 0.00 367.00 155.00" xmlns="http://www.w3.org/2000/svg" xmlns:xlink="http://www.w3.org/1999/xlink">
<g id="graph0" class="graph" transform="scale(1 1) rotate(0) translate(4 151)">
<title>recGen</title>
<polygon fill="white" stroke="transparent" points="-4,4 -4,-151 363,-151 363,4 -4,4"/>
<!-- Node1 -->
<g id="node1" class="node">
<title>Node1</title>
<g id="a_node1"><a xlink:title="コード生成を行う再帰手続き．">
<polygon fill="#bfbfbf" stroke="black" points="0,-57.5 0,-76.5 48,-76.5 48,-57.5 0,-57.5"/>
<text text-anchor="middle" x="24" y="-64.5" font-family="Helvetica,sans-Serif" font-size="10.00">recGen</text>
</a>
</g>
</g>
<!-- Node2 -->
<g id="node2" class="node">
<title>Node2</title>
<g id="a_node2"><a xlink:href="classutil_1_1_util.html#ae411a90dd0a4a15776ea6eb5f0cbae13" target="_top" xlink:title="与えられた文字列を標準出力に印刷して、プログラムを強制停止する。">
<polygon fill="white" stroke="black" points="97.5,-118.5 97.5,-137.5 184.5,-137.5 184.5,-118.5 97.5,-118.5"/>
<text text-anchor="middle" x="141" y="-125.5" font-family="Helvetica,sans-Serif" font-size="10.00">util.Util.errorExit</text>
</a>
</g>
</g>
<!-- Node1&#45;&gt;Node2 -->
<g id="edge1" class="edge">
<title>Node1&#45;&gt;Node2</title>
<path fill="none" stroke="midnightblue" d="M38.64,-76.8C50.33,-84.95 67.8,-96.55 84,-105 90.53,-108.41 97.69,-111.68 104.64,-114.62"/>
<polygon fill="midnightblue" stroke="midnightblue" points="103.32,-117.87 113.9,-118.43 105.98,-111.39 103.32,-117.87"/>
</g>
<!-- Node4 -->
<g id="node4" class="node">
<title>Node4</title>
<g id="a_node4"><a xlink:href="classutil_1_1_trace_level.html#a163bdc94e3e530c147c8fcd59f9f01f4" target="_top" xlink:title="モジュールnameの現在のトレースレベルが{level}以上かを返す。モジュールのレベルが登録されていなければ、全体のトレースレベルを返す。">
<polygon fill="white" stroke="black" points="84,-76.5 84,-95.5 198,-95.5 198,-76.5 84,-76.5"/>
<text text-anchor="middle" x="141" y="-83.5" font-family="Helvetica,sans-Serif" font-size="10.00">util.TraceLevel.LEVEL</text>
</a>
</g>
</g>
<!-- Node1&#45;&gt;Node4 -->
<g id="edge3" class="edge">
<title>Node1&#45;&gt;Node4</title>
<path fill="none" stroke="midnightblue" d="M48.27,-70.84C55.89,-72.1 64.76,-73.57 73.93,-75.08"/>
<polygon fill="midnightblue" stroke="midnightblue" points="73.52,-78.56 83.96,-76.74 74.66,-71.66 73.52,-78.56"/>
</g>
<!-- Node6 -->
<g id="node6" class="node">
<title>Node6</title>
<g id="a_node6"><a xlink:href="classutil_1_1_util.html#a7ce29b607a8e9fd7ff55a606c0120b64" target="_top" xlink:title="与えられたオブジェクトがnullならば&quot;null&quot;を、それ以外はクラス名を表す文字列を返す。">
<polygon fill="white" stroke="black" points="95,-38.5 95,-57.5 187,-57.5 187,-38.5 95,-38.5"/>
<text text-anchor="middle" x="141" y="-45.5" font-family="Helvetica,sans-Serif" font-size="10.00">util.Util.toCName</text>
</a>
</g>
</g>
<!-- Node1&#45;&gt;Node6 -->
<g id="edge6" class="edge">
<title>Node1&#45;&gt;Node6</title>
<path fill="none" stroke="midnightblue" d="M48.27,-63.16C58.84,-61.41 71.82,-59.26 84.67,-57.14"/>
<polygon fill="midnightblue" stroke="midnightblue" points="85.59,-60.54 94.89,-55.45 84.45,-53.63 85.59,-60.54"/>
</g>
<!-- Node7 -->
<g id="node7" class="node">
<title>Node7</title>
<g id="a_node7"><a xlink:href="classcmd_1_1_cmd_list.html#a76f0e577c1ccab0026ada08ac4256887" target="_top" xlink:title="清書出力文字列を返す．">
<polygon fill="white" stroke="black" points="91.5,-0.5 91.5,-19.5 190.5,-19.5 190.5,-0.5 91.5,-0.5"/>
<text text-anchor="middle" x="141" y="-7.5" font-family="Helvetica,sans-Serif" font-size="10.00">cmd.CmdList.toStr</text>
</a>
</g>
</g>
<!-- Node1&#45;&gt;Node7 -->
<g id="edge7" class="edge">
<title>Node1&#45;&gt;Node7</title>
<path fill="none" stroke="midnightblue" d="M38.04,-57.27C49.65,-48.94 67.32,-37.05 84,-29 88.39,-26.88 93.08,-24.89 97.81,-23.06"/>
<polygon fill="midnightblue" stroke="midnightblue" points="99.28,-26.25 107.48,-19.53 96.88,-19.67 99.28,-26.25"/>
</g>
<!-- Node3 -->
<g id="node3" class="node">
<title>Node3</title>
<g id="a_node3"><a xlink:href="classutil_1_1_util.html#a7c4b5534ff284b188f83399c344c89c8" target="_top" xlink:title="スタックトレースを出力する。">
<polygon fill="white" stroke="black" points="234,-127.5 234,-146.5 359,-146.5 359,-127.5 234,-127.5"/>
<text text-anchor="middle" x="296.5" y="-134.5" font-family="Helvetica,sans-Serif" font-size="10.00">util.Util.reportStackTrace</text>
</a>
</g>
</g>
<!-- Node2&#45;&gt;Node3 -->
<g id="edge2" class="edge">
<title>Node2&#45;&gt;Node3</title>
<path fill="none" stroke="midnightblue" d="M184.76,-130.51C196.85,-131.22 210.34,-132.01 223.65,-132.79"/>
<polygon fill="midnightblue" stroke="midnightblue" points="223.56,-136.29 233.75,-133.38 223.97,-129.3 223.56,-136.29"/>
</g>
<!-- Node5 -->
<g id="node5" class="node">
<title>Node5</title>
<g id="a_node5"><a xlink:href="classutil_1_1_trace_level.html#ac3ccfd677fa662c8af08cebe99eafebf" target="_top" xlink:title="現在のプログラムでのトレースレベル（出力の活性化レベル）を返す.">
<polygon fill="white" stroke="black" points="236.5,-71.5 236.5,-90.5 356.5,-90.5 356.5,-71.5 236.5,-71.5"/>
<text text-anchor="middle" x="296.5" y="-78.5" font-family="Helvetica,sans-Serif" font-size="10.00">util.TraceLevel.getLevel</text>
</a>
</g>
</g>
<!-- Node4&#45;&gt;Node5 -->
<g id="edge4" class="edge">
<title>Node4&#45;&gt;Node5</title>
<path fill="none" stroke="midnightblue" d="M198.29,-84.17C207.4,-83.87 216.92,-83.56 226.3,-83.25"/>
<polygon fill="midnightblue" stroke="midnightblue" points="226.5,-86.75 236.38,-82.93 226.28,-79.75 226.5,-86.75"/>
</g>
<!-- Node5&#45;&gt;Node5 -->
<g id="edge5" class="edge">
<title>Node5&#45;&gt;Node5</title>
<path fill="none" stroke="midnightblue" d="M272.76,-90.76C261.22,-99.57 269.13,-109 296.5,-109 314.46,-109 324.04,-104.94 325.25,-99.65"/>
<polygon fill="midnightblue" stroke="midnightblue" points="328.19,-97.75 320.24,-90.76 322.09,-101.19 328.19,-97.75"/>
</g>
</g>
</svg>
