<?xml version="1.0" encoding="UTF-8" standalone="no"?>
<!DOCTYPE svg PUBLIC "-//W3C//DTD SVG 1.1//EN"
 "http://www.w3.org/Graphics/SVG/1.1/DTD/svg11.dtd">
<!-- Generated by graphviz version 2.47.0 (20210316.0004)
 -->
<!-- Title: AstTemplate Pages: 1 -->
<svg width="455pt" height="308pt"
 viewBox="0.00 0.00 455.00 308.00" xmlns="http://www.w3.org/2000/svg" xmlns:xlink="http://www.w3.org/1999/xlink">
<g id="graph0" class="graph" transform="scale(1 1) rotate(0) translate(4 304)">
<title>AstTemplate</title>
<polygon fill="white" stroke="transparent" points="-4,4 -4,-304 451,-304 451,4 -4,4"/>
<!-- Node1 -->
<g id="node1" class="node">
<title>Node1</title>
<g id="a_node1"><a xlink:title=" ">
<polygon fill="#bfbfbf" stroke="black" points="226,-0.5 226,-19.5 297,-19.5 297,-0.5 226,-0.5"/>
<text text-anchor="middle" x="261.5" y="-7.5" font-family="Helvetica,sans-Serif" font-size="10.00">AstTemplate</text>
</a>
</g>
</g>
<!-- Node2 -->
<g id="node2" class="node">
<title>Node2</title>
<g id="a_node2"><a xlink:href="classast_1_1_ast_oper.html" target="_top" xlink:title=" ">
<polygon fill="white" stroke="black" points="235,-56.5 235,-75.5 288,-75.5 288,-56.5 235,-56.5"/>
<text text-anchor="middle" x="261.5" y="-63.5" font-family="Helvetica,sans-Serif" font-size="10.00">AstOper</text>
</a>
</g>
</g>
<!-- Node2&#45;&gt;Node1 -->
<g id="edge1" class="edge">
<title>Node2&#45;&gt;Node1</title>
<path fill="none" stroke="midnightblue" d="M261.5,-45.8C261.5,-36.91 261.5,-26.78 261.5,-19.75"/>
<polygon fill="midnightblue" stroke="midnightblue" points="258,-46.08 261.5,-56.08 265,-46.08 258,-46.08"/>
</g>
<!-- Node3 -->
<g id="node3" class="node">
<title>Node3</title>
<g id="a_node3"><a xlink:href="classast_1_1_ast_node_branch.html" target="_top" xlink:title="タグなしの順アクセスの子供をもてる抽象構文木のノードのクラス。">
<polygon fill="white" stroke="black" points="157.5,-112.5 157.5,-131.5 243.5,-131.5 243.5,-112.5 157.5,-112.5"/>
<text text-anchor="middle" x="200.5" y="-119.5" font-family="Helvetica,sans-Serif" font-size="10.00">AstNodeBranch</text>
</a>
</g>
</g>
<!-- Node3&#45;&gt;Node2 -->
<g id="edge2" class="edge">
<title>Node3&#45;&gt;Node2</title>
<path fill="none" stroke="midnightblue" d="M217.97,-105.54C228.84,-95.91 242.44,-83.87 251.52,-75.83"/>
<polygon fill="midnightblue" stroke="midnightblue" points="215.47,-103.07 210.3,-112.32 220.11,-108.32 215.47,-103.07"/>
</g>
<!-- Node4 -->
<g id="node4" class="node">
<title>Node4</title>
<g id="a_node4"><a xlink:href="classast_1_1_ast_node.html" target="_top" xlink:title=" ">
<polygon fill="white" stroke="black" points="0,-224.5 0,-243.5 55,-243.5 55,-224.5 0,-224.5"/>
<text text-anchor="middle" x="27.5" y="-231.5" font-family="Helvetica,sans-Serif" font-size="10.00">AstNode</text>
</a>
</g>
</g>
<!-- Node4&#45;&gt;Node3 -->
<g id="edge3" class="edge">
<title>Node4&#45;&gt;Node3</title>
<path fill="none" stroke="midnightblue" d="M28.31,-213.79C29.94,-199.36 34.43,-180.07 46.5,-168 75.75,-138.75 122.88,-128.29 157.31,-124.67"/>
<polygon fill="midnightblue" stroke="midnightblue" points="24.8,-213.86 27.53,-224.1 31.78,-214.39 24.8,-213.86"/>
</g>
<!-- Node5 -->
<g id="node5" class="node">
<title>Node5</title>
<g id="a_node5"><a xlink:href="interfaceformat_1_1_x_formattable.html" target="_top" xlink:title="入れ子フォーマット出力可能なオブジェクトのインタフェース。">
<polygon fill="white" stroke="black" points="112,-280.5 112,-299.5 187,-299.5 187,-280.5 112,-280.5"/>
<text text-anchor="middle" x="149.5" y="-287.5" font-family="Helvetica,sans-Serif" font-size="10.00">XFormattable</text>
</a>
</g>
</g>
<!-- Node5&#45;&gt;Node4 -->
<g id="edge4" class="edge">
<title>Node5&#45;&gt;Node4</title>
<path fill="none" stroke="midnightblue" d="M120.96,-276.37C98.11,-266.26 66.69,-252.35 46.74,-243.52"/>
<polygon fill="midnightblue" stroke="midnightblue" points="119.61,-279.6 130.17,-280.44 122.44,-273.2 119.61,-279.6"/>
</g>
<!-- Node7 -->
<g id="node7" class="node">
<title>Node7</title>
<g id="a_node7"><a xlink:href="interfaceformat_1_1_x_formattable_1_1_label_formattable.html" target="_top" xlink:title="カスタム清書出力器をもつオブジェクトのクラス．">
<polygon fill="white" stroke="black" points="73,-224.5 73,-243.5 226,-243.5 226,-224.5 73,-224.5"/>
<text text-anchor="middle" x="149.5" y="-231.5" font-family="Helvetica,sans-Serif" font-size="10.00">XFormattable.LabelFormattable</text>
</a>
</g>
</g>
<!-- Node5&#45;&gt;Node7 -->
<g id="edge7" class="edge">
<title>Node5&#45;&gt;Node7</title>
<path fill="none" stroke="midnightblue" d="M149.5,-269.8C149.5,-260.91 149.5,-250.78 149.5,-243.75"/>
<polygon fill="midnightblue" stroke="midnightblue" points="146,-270.08 149.5,-280.08 153,-270.08 146,-270.08"/>
</g>
<!-- Node8 -->
<g id="node8" class="node">
<title>Node8</title>
<g id="a_node8"><a xlink:href="interfaceformat_1_1_x_formattable_1_1_typed_formattable.html" target="_top" xlink:title="ノードの型情報をもつ書式出力可能なオブジェクトのインタフェース．">
<polygon fill="white" stroke="black" points="203.5,-168.5 203.5,-187.5 359.5,-187.5 359.5,-168.5 203.5,-168.5"/>
<text text-anchor="middle" x="281.5" y="-175.5" font-family="Helvetica,sans-Serif" font-size="10.00">XFormattable.TypedFormattable</text>
</a>
</g>
</g>
<!-- Node5&#45;&gt;Node8 -->
<g id="edge9" class="edge">
<title>Node5&#45;&gt;Node8</title>
<path fill="none" stroke="midnightblue" d="M181.65,-276.23C198.54,-268.52 218.91,-257.56 234.5,-244 253.83,-227.18 269.66,-200.96 277.03,-187.54"/>
<polygon fill="midnightblue" stroke="midnightblue" points="179.92,-273.17 172.16,-280.39 182.73,-279.58 179.92,-273.17"/>
</g>
<!-- Node6 -->
<g id="node6" class="node">
<title>Node6</title>
<g id="a_node6"><a xlink:href="interfaceformat_1_1_x_formattable_1_1_navigatable.html" target="_top" xlink:title="木構造の分岐ノードとして清書可能なオブジェクトのクラス">
<polygon fill="white" stroke="black" points="55.5,-168.5 55.5,-187.5 185.5,-187.5 185.5,-168.5 55.5,-168.5"/>
<text text-anchor="middle" x="120.5" y="-175.5" font-family="Helvetica,sans-Serif" font-size="10.00">XFormattable.Navigatable</text>
</a>
</g>
</g>
<!-- Node6&#45;&gt;Node3 -->
<g id="edge5" class="edge">
<title>Node6&#45;&gt;Node3</title>
<path fill="none" stroke="midnightblue" d="M141.8,-162.62C156.42,-152.76 175.33,-139.99 187.68,-131.65"/>
<polygon fill="midnightblue" stroke="midnightblue" points="139.68,-159.83 133.35,-168.32 143.6,-165.63 139.68,-159.83"/>
</g>
<!-- Node7&#45;&gt;Node6 -->
<g id="edge6" class="edge">
<title>Node7&#45;&gt;Node6</title>
<path fill="none" stroke="midnightblue" d="M139.82,-214.98C134.9,-205.82 129.14,-195.09 125.2,-187.75"/>
<polygon fill="midnightblue" stroke="midnightblue" points="136.9,-216.93 144.71,-224.08 143.06,-213.62 136.9,-216.93"/>
</g>
<!-- Node8&#45;&gt;Node3 -->
<g id="edge8" class="edge">
<title>Node8&#45;&gt;Node3</title>
<path fill="none" stroke="midnightblue" d="M259.93,-162.62C245.14,-152.76 225.99,-139.99 213.48,-131.65"/>
<polygon fill="midnightblue" stroke="midnightblue" points="258.22,-165.69 268.49,-168.32 262.11,-159.86 258.22,-165.69"/>
</g>
<!-- Node9 -->
<g id="node9" class="node">
<title>Node9</title>
<g id="a_node9"><a xlink:href="interfacecmd_1_1_generatable_1_1_evaluatable.html" target="_top" xlink:title="評価して値を返すノードのインタフェース．必ずしもコードを生成しなくても良い．">
<polygon fill="white" stroke="black" points="306,-112.5 306,-131.5 429,-131.5 429,-112.5 306,-112.5"/>
<text text-anchor="middle" x="367.5" y="-119.5" font-family="Helvetica,sans-Serif" font-size="10.00">Generatable.Evaluatable</text>
</a>
</g>
</g>
<!-- Node9&#45;&gt;Node2 -->
<g id="edge10" class="edge">
<title>Node9&#45;&gt;Node2</title>
<path fill="none" stroke="midnightblue" d="M341.44,-107.73C321.82,-97.73 295.47,-84.31 278.49,-75.65"/>
<polygon fill="midnightblue" stroke="midnightblue" points="339.97,-110.9 350.47,-112.32 343.15,-104.67 339.97,-110.9"/>
</g>
<!-- Node10 -->
<g id="node10" class="node">
<title>Node10</title>
<g id="a_node10"><a xlink:href="interfacecmd_1_1_generatable.html" target="_top" xlink:title="変換してコードを生成できるノードのインタフェース.">
<polygon fill="white" stroke="black" points="378,-168.5 378,-187.5 447,-187.5 447,-168.5 378,-168.5"/>
<text text-anchor="middle" x="412.5" y="-175.5" font-family="Helvetica,sans-Serif" font-size="10.00">Generatable</text>
</a>
</g>
</g>
<!-- Node10&#45;&gt;Node9 -->
<g id="edge11" class="edge">
<title>Node10&#45;&gt;Node9</title>
<path fill="none" stroke="midnightblue" d="M398.45,-160.14C390.61,-150.74 381.17,-139.4 374.79,-131.75"/>
<polygon fill="midnightblue" stroke="midnightblue" points="395.98,-162.64 405.07,-168.08 401.36,-158.16 395.98,-162.64"/>
</g>
</g>
</svg>
