<?xml version="1.0" encoding="UTF-8" standalone="no"?>
<!DOCTYPE svg PUBLIC "-//W3C//DTD SVG 1.1//EN"
 "http://www.w3.org/Graphics/SVG/1.1/DTD/svg11.dtd">
<!-- Generated by graphviz version 2.38.0 (20140413.2041)
 -->
<!-- Title: queryParser.StrRelStrDQContext Pages: 1 -->
<svg width="171pt" height="137pt"
 viewBox="0.00 0.00 170.72 137.00" xmlns="http://www.w3.org/2000/svg" xmlns:xlink="http://www.w3.org/1999/xlink">
<g id="graph0" class="graph" transform="scale(1 1) rotate(0) translate(4 133)">
<title>queryParser.StrRelStrDQContext</title>
<polygon fill="white" stroke="none" points="-4,4 -4,-133 166.724,-133 166.724,4 -4,4"/>
<!-- Node1 -->
<g id="node1" class="node"><title>Node1</title>
<g id="a_node1"><a xlink:title=" ">
<polygon fill="#bfbfbf" stroke="black" points="0,-0.5 0,-18.5 162.724,-18.5 162.724,-0.5 0,-0.5"/>
<text text-anchor="middle" x="81.3618" y="-6.5" font-family="Helvetica,sans-Serif" font-size="10.00">queryParser.StrRelStrDQContext</text>
</a>
</g>
</g>
<!-- Node2 -->
<g id="node2" class="node"><title>Node2</title>
<g id="a_node2"><a xlink:href="classparse_1_1query_parser_1_1_string_rel_context.html" target="_top" xlink:title=" ">
<polygon fill="white" stroke="black" points="7.2168,-55.5 7.2168,-73.5 155.507,-73.5 155.507,-55.5 7.2168,-55.5"/>
<text text-anchor="middle" x="81.3618" y="-61.5" font-family="Helvetica,sans-Serif" font-size="10.00">queryParser.StringRelContext</text>
</a>
</g>
</g>
<!-- Node2&#45;&gt;Node1 -->
<g id="edge1" class="edge"><title>Node2&#45;&gt;Node1</title>
<path fill="none" stroke="midnightblue" d="M81.3618,-45.1746C81.3618,-36.0945 81.3618,-25.5949 81.3618,-18.5496"/>
<polygon fill="midnightblue" stroke="midnightblue" points="77.8619,-45.2187 81.3618,-55.2188 84.8619,-45.2188 77.8619,-45.2187"/>
</g>
<!-- Node3 -->
<g id="node3" class="node"><title>Node3</title>
<g id="a_node3"><a xlink:title=" ">
<polygon fill="white" stroke="#bfbfbf" points="31.1206,-110.5 31.1206,-128.5 131.603,-128.5 131.603,-110.5 31.1206,-110.5"/>
<text text-anchor="middle" x="81.3618" y="-116.5" font-family="Helvetica,sans-Serif" font-size="10.00">ParserRuleContext</text>
</a>
</g>
</g>
<!-- Node3&#45;&gt;Node2 -->
<g id="edge2" class="edge"><title>Node3&#45;&gt;Node2</title>
<path fill="none" stroke="midnightblue" d="M81.3618,-100.175C81.3618,-91.0945 81.3618,-80.5949 81.3618,-73.5496"/>
<polygon fill="midnightblue" stroke="midnightblue" points="77.8619,-100.219 81.3618,-110.219 84.8619,-100.219 77.8619,-100.219"/>
</g>
</g>
</svg>
