<?xml version="1.0" encoding="UTF-8" standalone="no"?>
<!DOCTYPE svg PUBLIC "-//W3C//DTD SVG 1.1//EN"
 "http://www.w3.org/Graphics/SVG/1.1/DTD/svg11.dtd">
<!-- Generated by graphviz version 2.47.0 (20210316.0004)
 -->
<!-- Title: AstVarDecl Pages: 1 -->
<svg width="682pt" height="570pt"
 viewBox="0.00 0.00 682.00 570.00" xmlns="http://www.w3.org/2000/svg" xmlns:xlink="http://www.w3.org/1999/xlink">
<g id="graph0" class="graph" transform="scale(1 1) rotate(0) translate(4 566)">
<title>AstVarDecl</title>
<polygon fill="white" stroke="transparent" points="-4,4 -4,-566 678,-566 678,4 -4,4"/>
<!-- Node1 -->
<g id="node1" class="node">
<title>Node1</title>
<g id="a_node1"><a xlink:title="値の読み出しオブジェクト．">
<polygon fill="#bfbfbf" stroke="black" points="608,-134.5 608,-153.5 674,-153.5 674,-134.5 608,-134.5"/>
<text text-anchor="middle" x="641" y="-141.5" font-family="Helvetica,sans-Serif" font-size="10.00">AstVarDecl</text>
</a>
</g>
</g>
<!-- Node2 -->
<g id="node2" class="node">
<title>Node2</title>
<g id="a_node2"><a xlink:href="classast_1_1_ast_node.html" target="_top" xlink:title="タグなしの順アクセスの子供をもてる抽象構文木のノードのクラス。">
<polygon fill="white" stroke="black" points="509,-134.5 509,-153.5 564,-153.5 564,-134.5 509,-134.5"/>
<text text-anchor="middle" x="536.5" y="-141.5" font-family="Helvetica,sans-Serif" font-size="10.00">AstNode</text>
</a>
</g>
</g>
<!-- Node2&#45;&gt;Node1 -->
<g id="edge1" class="edge">
<title>Node2&#45;&gt;Node1</title>
<path fill="none" stroke="midnightblue" d="M574.35,-144C585.35,-144 597.33,-144 608,-144"/>
<polygon fill="midnightblue" stroke="midnightblue" points="574.16,-140.5 564.16,-144 574.16,-147.5 574.16,-140.5"/>
</g>
<!-- Node3 -->
<g id="node3" class="node">
<title>Node3</title>
<g id="a_node3"><a xlink:href="classast_1_1_ast_node_base.html" target="_top" xlink:title=" ">
<polygon fill="white" stroke="black" points="273.5,-208.5 273.5,-227.5 350.5,-227.5 350.5,-208.5 273.5,-208.5"/>
<text text-anchor="middle" x="312" y="-215.5" font-family="Helvetica,sans-Serif" font-size="10.00">AstNodeBase</text>
</a>
</g>
</g>
<!-- Node3&#45;&gt;Node2 -->
<g id="edge2" class="edge">
<title>Node3&#45;&gt;Node2</title>
<path fill="none" stroke="midnightblue" d="M356.54,-205.64C391.3,-195.5 441.12,-180.35 484,-165 493.73,-161.52 504.32,-157.28 513.36,-153.52"/>
<polygon fill="midnightblue" stroke="midnightblue" points="355.33,-202.34 346.71,-208.49 357.28,-209.07 355.33,-202.34"/>
</g>
<!-- Node4 -->
<g id="node4" class="node">
<title>Node4</title>
<g id="a_node4"><a xlink:title=" ">
<polygon fill="white" stroke="#bfbfbf" points="16.5,-445.5 16.5,-464.5 58.5,-464.5 58.5,-445.5 16.5,-445.5"/>
<text text-anchor="middle" x="37.5" y="-452.5" font-family="Helvetica,sans-Serif" font-size="10.00">String</text>
</a>
</g>
</g>
<!-- Node4&#45;&gt;Node1 -->
<g id="edge22" class="edge">
<title>Node4&#45;&gt;Node1</title>
<path fill="none" stroke="#9a32cd" stroke-dasharray="5,2" d="M44.02,-474.17C51.33,-495.57 66.5,-529.15 93,-544 140.69,-570.72 165.2,-564.18 216,-544 431.37,-458.44 600.71,-205.88 634.03,-153.55"/>
<polygon fill="#9a32cd" stroke="#9a32cd" points="47.32,-473 40.97,-464.51 40.65,-475.1 47.32,-473"/>
<text text-anchor="middle" x="446" y="-422" font-family="Helvetica,sans-Serif" font-size="10.00"> name</text>
</g>
<!-- Node4&#45;&gt;Node3 -->
<g id="edge3" class="edge">
<title>Node4&#45;&gt;Node3</title>
<path fill="none" stroke="#9a32cd" stroke-dasharray="5,2" d="M53.74,-438.13C63.93,-427.79 78.15,-415.03 93,-407 142.89,-380.01 175.55,-412.76 216,-373 236.16,-353.19 220.78,-336.99 234,-312 252.25,-277.5 284.34,-243.78 300.73,-227.72"/>
<polygon fill="#9a32cd" stroke="#9a32cd" points="51.13,-435.79 46.79,-445.46 56.21,-440.61 51.13,-435.79"/>
<text text-anchor="middle" x="154.5" y="-421" font-family="Helvetica,sans-Serif" font-size="10.00"> MOD_AST</text>
<text text-anchor="middle" x="154.5" y="-410" font-family="Helvetica,sans-Serif" font-size="10.00">mod_</text>
</g>
<!-- Node16 -->
<g id="node16" class="node">
<title>Node16</title>
<g id="a_node16"><a xlink:href="classformat_1_1_style.html" target="_top" xlink:title="ノードの表示スタイルに関するプロパティのクラス.">
<polygon fill="white" stroke="black" points="292.5,-321.5 292.5,-340.5 331.5,-340.5 331.5,-321.5 292.5,-321.5"/>
<text text-anchor="middle" x="312" y="-328.5" font-family="Helvetica,sans-Serif" font-size="10.00">Style</text>
</a>
</g>
</g>
<!-- Node4&#45;&gt;Node16 -->
<g id="edge18" class="edge">
<title>Node4&#45;&gt;Node16</title>
<path fill="none" stroke="#9a32cd" stroke-dasharray="5,2" d="M68.78,-453.73C112.54,-451.49 190.96,-445.78 216,-433 258.89,-411.1 292.5,-361.61 305.35,-340.66"/>
<polygon fill="#9a32cd" stroke="#9a32cd" points="68.53,-450.24 58.71,-454.22 68.87,-457.23 68.53,-450.24"/>
<text text-anchor="middle" x="154.5" y="-532" font-family="Helvetica,sans-Serif" font-size="10.00"> childLPAD</text>
<text text-anchor="middle" x="154.5" y="-521" font-family="Helvetica,sans-Serif" font-size="10.00">childRPAD</text>
<text text-anchor="middle" x="154.5" y="-510" font-family="Helvetica,sans-Serif" font-size="10.00">name</text>
<text text-anchor="middle" x="154.5" y="-499" font-family="Helvetica,sans-Serif" font-size="10.00">operSTR</text>
<text text-anchor="middle" x="154.5" y="-488" font-family="Helvetica,sans-Serif" font-size="10.00">parenLPAD</text>
<text text-anchor="middle" x="154.5" y="-477" font-family="Helvetica,sans-Serif" font-size="10.00">parenLPAR</text>
<text text-anchor="middle" x="154.5" y="-466" font-family="Helvetica,sans-Serif" font-size="10.00">parenRPAD</text>
<text text-anchor="middle" x="154.5" y="-455" font-family="Helvetica,sans-Serif" font-size="10.00">parenRPAR</text>
</g>
<!-- Node5 -->
<g id="node5" class="node">
<title>Node5</title>
<g id="a_node5"><a xlink:title=" ">
<polygon fill="white" stroke="#bfbfbf" points="5,-212.5 5,-231.5 70,-231.5 70,-212.5 5,-212.5"/>
<text text-anchor="middle" x="37.5" y="-219.5" font-family="Helvetica,sans-Serif" font-size="10.00">TraceLevel</text>
</a>
</g>
</g>
<!-- Node5&#45;&gt;Node3 -->
<g id="edge4" class="edge">
<title>Node5&#45;&gt;Node3</title>
<path fill="none" stroke="#9a32cd" stroke-dasharray="5,2" d="M80.19,-219.49C84.51,-219.29 88.84,-219.12 93,-219 156.18,-217.12 229.7,-217.27 273.18,-217.6"/>
<polygon fill="#9a32cd" stroke="#9a32cd" points="80,-215.99 70.19,-219.99 80.35,-222.99 80,-215.99"/>
<text text-anchor="middle" x="154.5" y="-222" font-family="Helvetica,sans-Serif" font-size="10.00"> LOG</text>
</g>
<!-- Node6 -->
<g id="node6" class="node">
<title>Node6</title>
<g id="a_node6"><a xlink:title=" ">
<polygon fill="white" stroke="#bfbfbf" points="1,-174.5 1,-193.5 74,-193.5 74,-174.5 1,-174.5"/>
<text text-anchor="middle" x="37.5" y="-181.5" font-family="Helvetica,sans-Serif" font-size="10.00">static Report</text>
</a>
</g>
</g>
<!-- Node6&#45;&gt;Node3 -->
<g id="edge5" class="edge">
<title>Node6&#45;&gt;Node3</title>
<path fill="none" stroke="#9a32cd" stroke-dasharray="5,2" d="M84.44,-187.82C120.34,-191.01 171.44,-195.99 216,-202 234.9,-204.55 255.8,-208 273.18,-211.04"/>
<polygon fill="#9a32cd" stroke="#9a32cd" points="84.55,-184.32 74.28,-186.93 83.94,-191.29 84.55,-184.32"/>
<text text-anchor="middle" x="154.5" y="-205" font-family="Helvetica,sans-Serif" font-size="10.00"> repo</text>
</g>
<!-- Node7 -->
<g id="node7" class="node">
<title>Node7</title>
<g id="a_node7"><a xlink:title=" ">
<polygon fill="white" stroke="#bfbfbf" points="23,-344.5 23,-363.5 52,-363.5 52,-344.5 23,-344.5"/>
<text text-anchor="middle" x="37.5" y="-351.5" font-family="Helvetica,sans-Serif" font-size="10.00">int</text>
</a>
</g>
</g>
<!-- Node7&#45;&gt;Node3 -->
<g id="edge6" class="edge">
<title>Node7&#45;&gt;Node3</title>
<path fill="none" stroke="#9a32cd" stroke-dasharray="5,2" d="M61.24,-341.32C70.79,-336.49 82.18,-331.34 93,-328 145.86,-311.7 166.4,-333.49 216,-309 255.93,-289.29 290.15,-246.81 304.19,-227.68"/>
<polygon fill="#9a32cd" stroke="#9a32cd" points="59.61,-338.23 52.38,-345.98 62.86,-344.42 59.61,-338.23"/>
<text text-anchor="middle" x="154.5" y="-342" font-family="Helvetica,sans-Serif" font-size="10.00"> BITMASK_PRINT_WIDTH</text>
<text text-anchor="middle" x="154.5" y="-331" font-family="Helvetica,sans-Serif" font-size="10.00">UNDEF</text>
</g>
<!-- Node7&#45;&gt;Node16 -->
<g id="edge19" class="edge">
<title>Node7&#45;&gt;Node16</title>
<path fill="none" stroke="#9a32cd" stroke-dasharray="5,2" d="M62.79,-355.81C97.08,-357.96 161.57,-360.5 216,-354 242.96,-350.78 273.33,-342.6 292.32,-336.92"/>
<polygon fill="#9a32cd" stroke="#9a32cd" points="62.59,-352.29 52.38,-355.11 62.12,-359.28 62.59,-352.29"/>
<text text-anchor="middle" x="154.5" y="-361" font-family="Helvetica,sans-Serif" font-size="10.00"> pref</text>
</g>
<!-- Node8 -->
<g id="node8" class="node">
<title>Node8</title>
<g id="a_node8"><a xlink:href="interfacetype_1_1_typable.html" target="_top" xlink:title="抽象ノードがもつ関数型のインタフェース">
<polygon fill="white" stroke="black" points="12.5,-136.5 12.5,-155.5 62.5,-155.5 62.5,-136.5 12.5,-136.5"/>
<text text-anchor="middle" x="37.5" y="-143.5" font-family="Helvetica,sans-Serif" font-size="10.00">Typable</text>
</a>
</g>
</g>
<!-- Node8&#45;&gt;Node3 -->
<g id="edge7" class="edge">
<title>Node8&#45;&gt;Node3</title>
<path fill="none" stroke="#9a32cd" stroke-dasharray="5,2" d="M72.57,-148.22C108.8,-151.27 167.44,-158.15 216,-173 219.88,-174.19 264.29,-195.48 291,-208.34"/>
<polygon fill="#9a32cd" stroke="#9a32cd" points="72.78,-144.73 62.53,-147.43 72.23,-151.71 72.78,-144.73"/>
<text text-anchor="middle" x="154.5" y="-176" font-family="Helvetica,sans-Serif" font-size="10.00"> typing</text>
</g>
<!-- Node9 -->
<g id="node9" class="node">
<title>Node9</title>
<g id="a_node9"><a xlink:title=" ">
<polygon fill="white" stroke="#bfbfbf" points="12.5,-263.5 12.5,-282.5 62.5,-282.5 62.5,-263.5 12.5,-263.5"/>
<text text-anchor="middle" x="37.5" y="-270.5" font-family="Helvetica,sans-Serif" font-size="10.00">boolean</text>
</a>
</g>
</g>
<!-- Node9&#45;&gt;Node3 -->
<g id="edge8" class="edge">
<title>Node9&#45;&gt;Node3</title>
<path fill="none" stroke="#9a32cd" stroke-dasharray="5,2" d="M70.96,-259.93C78.13,-257.37 85.76,-254.89 93,-253 126.29,-244.31 220.07,-230.6 273.15,-223.18"/>
<polygon fill="#9a32cd" stroke="#9a32cd" points="69.68,-256.67 61.52,-263.43 72.12,-263.23 69.68,-256.67"/>
<text text-anchor="middle" x="154.5" y="-256" font-family="Helvetica,sans-Serif" font-size="10.00"> DEBUG_REPO</text>
</g>
<!-- Node9&#45;&gt;Node16 -->
<g id="edge20" class="edge">
<title>Node9&#45;&gt;Node16</title>
<path fill="none" stroke="#9a32cd" stroke-dasharray="5,2" d="M72.82,-272.14C109.01,-272.06 167.42,-274.27 216,-287 245.19,-294.65 276.47,-310.88 294.85,-321.34"/>
<polygon fill="#9a32cd" stroke="#9a32cd" points="72.75,-268.64 62.78,-272.23 72.81,-275.64 72.75,-268.64"/>
<text text-anchor="middle" x="154.5" y="-301" font-family="Helvetica,sans-Serif" font-size="10.00"> preoperSupress</text>
<text text-anchor="middle" x="154.5" y="-290" font-family="Helvetica,sans-Serif" font-size="10.00">toInline</text>
</g>
<!-- Node10 -->
<g id="node10" class="node">
<title>Node10</title>
<g id="a_node10"><a xlink:href="interfaceast_1_1_node.html" target="_top" xlink:title=" ">
<polygon fill="white" stroke="black" points="292,-76.5 292,-95.5 332,-95.5 332,-76.5 292,-76.5"/>
<text text-anchor="middle" x="312" y="-83.5" font-family="Helvetica,sans-Serif" font-size="10.00">Node</text>
</a>
</g>
</g>
<!-- Node10&#45;&gt;Node2 -->
<g id="edge9" class="edge">
<title>Node10&#45;&gt;Node2</title>
<path fill="none" stroke="midnightblue" d="M341.84,-92.52C375.95,-100.37 434.35,-114.2 484,-128 492.12,-130.26 500.89,-132.9 508.86,-135.39"/>
<polygon fill="midnightblue" stroke="midnightblue" points="342.6,-89.11 332.08,-90.29 341.04,-95.93 342.6,-89.11"/>
</g>
<!-- Node11 -->
<g id="node11" class="node">
<title>Node11</title>
<g id="a_node11"><a xlink:href="interfaceformat_1_1_x_formattable.html" target="_top" xlink:title="入れ子フォーマット出力可能なオブジェクトのインタフェース。">
<polygon fill="white" stroke="black" points="0,-82.5 0,-101.5 75,-101.5 75,-82.5 0,-82.5"/>
<text text-anchor="middle" x="37.5" y="-89.5" font-family="Helvetica,sans-Serif" font-size="10.00">XFormattable</text>
</a>
</g>
</g>
<!-- Node11&#45;&gt;Node10 -->
<g id="edge10" class="edge">
<title>Node11&#45;&gt;Node10</title>
<path fill="none" stroke="midnightblue" d="M85.31,-81.93C87.9,-81.57 90.48,-81.25 93,-81 166.27,-73.68 254.04,-80.37 291.99,-84.01"/>
<polygon fill="midnightblue" stroke="midnightblue" points="84.61,-78.5 75.29,-83.54 85.72,-85.41 84.61,-78.5"/>
</g>
<!-- Node12 -->
<g id="node12" class="node">
<title>Node12</title>
<g id="a_node12"><a xlink:href="interfaceformat_1_1_x_formattable_1_1_navigatable.html" target="_top" xlink:title="木構造の分岐ノードとして清書可能なオブジェクトのクラス">
<polygon fill="white" stroke="black" points="247,-152.5 247,-171.5 377,-171.5 377,-152.5 247,-152.5"/>
<text text-anchor="middle" x="312" y="-159.5" font-family="Helvetica,sans-Serif" font-size="10.00">XFormattable.Navigatable</text>
</a>
</g>
</g>
<!-- Node11&#45;&gt;Node12 -->
<g id="edge12" class="edge">
<title>Node11&#45;&gt;Node12</title>
<path fill="none" stroke="midnightblue" d="M85.33,-101.84C135.84,-112.52 209.92,-128.42 216,-131 224.85,-134.76 225.2,-139.12 234,-143 242.57,-146.77 252.02,-149.88 261.28,-152.42"/>
<polygon fill="midnightblue" stroke="midnightblue" points="85.76,-98.35 75.25,-99.71 84.31,-105.2 85.76,-98.35"/>
</g>
<!-- Node13 -->
<g id="node13" class="node">
<title>Node13</title>
<g id="a_node13"><a xlink:href="interfaceformat_1_1_x_formattable_1_1_typed_formattable.html" target="_top" xlink:title="ノードの型情報をもつ書式出力可能なオブジェクトのインタフェース．">
<polygon fill="white" stroke="black" points="234,-114.5 234,-133.5 390,-133.5 390,-114.5 234,-114.5"/>
<text text-anchor="middle" x="312" y="-121.5" font-family="Helvetica,sans-Serif" font-size="10.00">XFormattable.TypedFormattable</text>
</a>
</g>
</g>
<!-- Node11&#45;&gt;Node13 -->
<g id="edge14" class="edge">
<title>Node11&#45;&gt;Node13</title>
<path fill="none" stroke="midnightblue" d="M85.51,-94.31C121.37,-96.42 171.94,-100.11 216,-106 232.47,-108.2 250.41,-111.39 266.22,-114.48"/>
<polygon fill="midnightblue" stroke="midnightblue" points="85.52,-90.81 75.34,-93.74 85.12,-97.8 85.52,-90.81"/>
</g>
<!-- Node12&#45;&gt;Node2 -->
<g id="edge11" class="edge">
<title>Node12&#45;&gt;Node2</title>
<path fill="none" stroke="midnightblue" d="M387.25,-155.99C429.19,-152.6 479.05,-148.57 508.93,-146.15"/>
<polygon fill="midnightblue" stroke="midnightblue" points="386.74,-152.52 377.06,-156.82 387.31,-159.5 386.74,-152.52"/>
</g>
<!-- Node13&#45;&gt;Node2 -->
<g id="edge13" class="edge">
<title>Node13&#45;&gt;Node2</title>
<path fill="none" stroke="midnightblue" d="M400.48,-131.86C439.27,-135.35 482.11,-139.2 508.91,-141.61"/>
<polygon fill="midnightblue" stroke="midnightblue" points="400.47,-128.35 390.2,-130.94 399.84,-135.32 400.47,-128.35"/>
</g>
<!-- Node14 -->
<g id="node14" class="node">
<title>Node14</title>
<g id="a_node14"><a xlink:title=" ">
<polygon fill="white" stroke="#bfbfbf" points="267,-38.5 267,-57.5 357,-57.5 357,-38.5 267,-38.5"/>
<text text-anchor="middle" x="312" y="-45.5" font-family="Helvetica,sans-Serif" font-size="10.00">List&lt; ast.Node &gt;</text>
</a>
</g>
</g>
<!-- Node14&#45;&gt;Node2 -->
<g id="edge15" class="edge">
<title>Node14&#45;&gt;Node2</title>
<path fill="none" stroke="#9a32cd" stroke-dasharray="5,2" d="M367.16,-51.68C403.45,-56.58 450.54,-67.91 484,-94 496.56,-103.8 490.68,-113.79 502,-125 505.61,-128.57 510.03,-131.7 514.46,-134.33"/>
<polygon fill="#9a32cd" stroke="#9a32cd" points="367.58,-48.21 357.23,-50.46 366.73,-55.15 367.58,-48.21"/>
<text text-anchor="middle" x="446" y="-97" font-family="Helvetica,sans-Serif" font-size="10.00"> children</text>
</g>
<!-- Node15 -->
<g id="node15" class="node">
<title>Node15</title>
<g id="a_node15"><a xlink:title=" ">
<polygon fill="white" stroke="#bfbfbf" points="286,-0.5 286,-19.5 338,-19.5 338,-0.5 286,-0.5"/>
<text text-anchor="middle" x="312" y="-7.5" font-family="Helvetica,sans-Serif" font-size="10.00">Boolean</text>
</a>
</g>
</g>
<!-- Node15&#45;&gt;Node2 -->
<g id="edge16" class="edge">
<title>Node15&#45;&gt;Node2</title>
<path fill="none" stroke="#9a32cd" stroke-dasharray="5,2" d="M348.3,-7.12C386.93,-6.04 448.12,-10.71 484,-46 509.67,-71.25 480.51,-96.1 502,-125 504.79,-128.76 508.56,-131.88 512.57,-134.43"/>
<polygon fill="#9a32cd" stroke="#9a32cd" points="347.88,-3.64 338.04,-7.56 348.18,-10.63 347.88,-3.64"/>
<text text-anchor="middle" x="446" y="-49" font-family="Helvetica,sans-Serif" font-size="10.00"> DEBUG_CHILD</text>
</g>
<!-- Node16&#45;&gt;Node2 -->
<g id="edge17" class="edge">
<title>Node16&#45;&gt;Node2</title>
<path fill="none" stroke="#9a32cd" stroke-dasharray="5,2" d="M333.44,-314.85C365.81,-289.14 430.67,-237.1 484,-191 498.65,-178.33 515.11,-163.14 525.39,-153.53"/>
<polygon fill="#9a32cd" stroke="#9a32cd" points="330.87,-312.42 325.21,-321.37 335.22,-317.91 330.87,-312.42"/>
<text text-anchor="middle" x="446" y="-256" font-family="Helvetica,sans-Serif" font-size="10.00"> sty</text>
</g>
<!-- Node17 -->
<g id="node17" class="node">
<title>Node17</title>
<g id="a_node17"><a xlink:href="interfacecmd_1_1_generatable.html" target="_top" xlink:title="変換してコードを生成できるノードのインタフェース.">
<polygon fill="white" stroke="black" points="502,-96.5 502,-115.5 571,-115.5 571,-96.5 502,-96.5"/>
<text text-anchor="middle" x="536.5" y="-103.5" font-family="Helvetica,sans-Serif" font-size="10.00">Generatable</text>
</a>
</g>
</g>
<!-- Node17&#45;&gt;Node1 -->
<g id="edge21" class="edge">
<title>Node17&#45;&gt;Node1</title>
<path fill="none" stroke="midnightblue" d="M572.88,-119.12C586.44,-124.14 601.64,-129.78 614.14,-134.41"/>
<polygon fill="midnightblue" stroke="midnightblue" points="573.96,-115.78 563.37,-115.59 571.52,-122.35 573.96,-115.78"/>
</g>
</g>
</svg>
