<?xml version="1.0" encoding="UTF-8" standalone="no"?>
<!DOCTYPE svg PUBLIC "-//W3C//DTD SVG 1.1//EN"
 "http://www.w3.org/Graphics/SVG/1.1/DTD/svg11.dtd">
<!-- Generated by graphviz version 2.47.1 (20210417.1919)
 -->
<!-- Title: AstFuncCall Pages: 1 -->
<svg width="819pt" height="550pt"
 viewBox="0.00 0.00 819.00 550.00" xmlns="http://www.w3.org/2000/svg" xmlns:xlink="http://www.w3.org/1999/xlink">
<g id="graph0" class="graph" transform="scale(1 1) rotate(0) translate(4 546)">
<title>AstFuncCall</title>
<polygon fill="white" stroke="transparent" points="-4,4 -4,-546 815,-546 815,4 -4,4"/>
<!-- Node1 -->
<g id="node1" class="node">
<title>Node1</title>
<g id="a_node1"><a xlink:title=" ">
<polygon fill="#bfbfbf" stroke="black" points="740,-475.5 740,-494.5 811,-494.5 811,-475.5 740,-475.5"/>
<text text-anchor="middle" x="775.5" y="-482.5" font-family="Helvetica,sans-Serif" font-size="10.00">AstFuncCall</text>
</a>
</g>
</g>
<!-- Node2 -->
<g id="node2" class="node">
<title>Node2</title>
<g id="a_node2"><a xlink:href="classast_1_1_ast_oper.html" target="_top" xlink:title=" ">
<polygon fill="white" stroke="black" points="650,-412.5 650,-431.5 703,-431.5 703,-412.5 650,-412.5"/>
<text text-anchor="middle" x="676.5" y="-419.5" font-family="Helvetica,sans-Serif" font-size="10.00">AstOper</text>
</a>
</g>
</g>
<!-- Node2&#45;&gt;Node1 -->
<g id="edge1" class="edge">
<title>Node2&#45;&gt;Node1</title>
<path fill="none" stroke="midnightblue" d="M700.85,-437.17C719.12,-449.03 743.98,-465.18 759.63,-475.34"/>
<polygon fill="midnightblue" stroke="midnightblue" points="702.53,-434.08 692.23,-431.57 698.71,-439.95 702.53,-434.08"/>
</g>
<!-- Node3 -->
<g id="node3" class="node">
<title>Node3</title>
<g id="a_node3"><a xlink:href="classast_1_1_ast_node.html" target="_top" xlink:title="タグなしの順アクセスの子供をもてる抽象構文木のノードのクラス。">
<polygon fill="white" stroke="black" points="524,-175.5 524,-194.5 579,-194.5 579,-175.5 524,-175.5"/>
<text text-anchor="middle" x="551.5" y="-182.5" font-family="Helvetica,sans-Serif" font-size="10.00">AstNode</text>
</a>
</g>
</g>
<!-- Node3&#45;&gt;Node2 -->
<g id="edge2" class="edge">
<title>Node3&#45;&gt;Node2</title>
<path fill="none" stroke="midnightblue" d="M562.1,-203.49C586.79,-251.06 651.86,-376.44 670.46,-412.3"/>
<polygon fill="midnightblue" stroke="midnightblue" points="565.19,-201.85 557.47,-194.58 558.97,-205.07 565.19,-201.85"/>
</g>
<!-- Node4 -->
<g id="node4" class="node">
<title>Node4</title>
<g id="a_node4"><a xlink:href="classast_1_1_ast_node_base.html" target="_top" xlink:title=" ">
<polygon fill="white" stroke="black" points="271.5,-213.5 271.5,-232.5 348.5,-232.5 348.5,-213.5 271.5,-213.5"/>
<text text-anchor="middle" x="310" y="-220.5" font-family="Helvetica,sans-Serif" font-size="10.00">AstNodeBase</text>
</a>
</g>
</g>
<!-- Node4&#45;&gt;Node3 -->
<g id="edge3" class="edge">
<title>Node4&#45;&gt;Node3</title>
<path fill="none" stroke="midnightblue" d="M358.78,-216.24C390.84,-211.62 434,-205.22 472,-199 489.21,-196.18 508.5,-192.75 523.65,-189.98"/>
<polygon fill="midnightblue" stroke="midnightblue" points="358.18,-212.79 348.78,-217.68 359.18,-219.72 358.18,-212.79"/>
</g>
<!-- Node5 -->
<g id="node5" class="node">
<title>Node5</title>
<g id="a_node5"><a xlink:title=" ">
<polygon fill="white" stroke="#bfbfbf" points="20.5,-375.5 20.5,-394.5 62.5,-394.5 62.5,-375.5 20.5,-375.5"/>
<text text-anchor="middle" x="41.5" y="-382.5" font-family="Helvetica,sans-Serif" font-size="10.00">String</text>
</a>
</g>
</g>
<!-- Node5&#45;&gt;Node1 -->
<g id="edge25" class="edge">
<title>Node5&#45;&gt;Node1</title>
<path fill="none" stroke="#9a32cd" stroke-dasharray="5,2" d="M59.05,-401.94C98.47,-440.41 202.62,-531 309,-531 309,-531 309,-531 677.5,-531 711.23,-531 745.76,-508 763.09,-494.53"/>
<polygon fill="#9a32cd" stroke="#9a32cd" points="61.2,-399.15 51.64,-394.58 56.26,-404.11 61.2,-399.15"/>
<text text-anchor="middle" x="551.5" y="-534" font-family="Helvetica,sans-Serif" font-size="10.00"> op</text>
</g>
<!-- Node5&#45;&gt;Node2 -->
<g id="edge23" class="edge">
<title>Node5&#45;&gt;Node2</title>
<path fill="none" stroke="#9a32cd" stroke-dasharray="5,2" d="M72.81,-390.91C81.85,-392.47 91.8,-394 101,-395 312.19,-417.93 569.14,-421.39 649.93,-421.91"/>
<polygon fill="#9a32cd" stroke="#9a32cd" points="73.18,-387.42 62.72,-389.08 71.94,-394.31 73.18,-387.42"/>
<text text-anchor="middle" x="434" y="-422" font-family="Helvetica,sans-Serif" font-size="10.00"> op</text>
</g>
<!-- Node5&#45;&gt;Node4 -->
<g id="edge4" class="edge">
<title>Node5&#45;&gt;Node4</title>
<path fill="none" stroke="#9a32cd" stroke-dasharray="5,2" d="M52.36,-366.61C62.34,-349.87 79.36,-325.87 101,-313 148.8,-284.57 180.74,-324.95 224,-290 240.11,-276.98 226.97,-261.26 242,-247 250.07,-239.35 260.74,-234.11 271.2,-230.53"/>
<polygon fill="#9a32cd" stroke="#9a32cd" points="49.21,-365.06 47.32,-375.48 55.3,-368.52 49.21,-365.06"/>
<text text-anchor="middle" x="162.5" y="-327" font-family="Helvetica,sans-Serif" font-size="10.00"> MOD_AST</text>
<text text-anchor="middle" x="162.5" y="-316" font-family="Helvetica,sans-Serif" font-size="10.00">mod_</text>
</g>
<!-- Node18 -->
<g id="node18" class="node">
<title>Node18</title>
<g id="a_node18"><a xlink:href="classformat_1_1_style.html" target="_top" xlink:title="ノードの表示スタイルに関するプロパティのクラス.">
<polygon fill="white" stroke="black" points="290.5,-256.5 290.5,-275.5 329.5,-275.5 329.5,-256.5 290.5,-256.5"/>
<text text-anchor="middle" x="310" y="-263.5" font-family="Helvetica,sans-Serif" font-size="10.00">Style</text>
</a>
</g>
</g>
<!-- Node5&#45;&gt;Node18 -->
<g id="edge19" class="edge">
<title>Node5&#45;&gt;Node18</title>
<path fill="none" stroke="#9a32cd" stroke-dasharray="5,2" d="M72.17,-372.08C81.29,-368.45 91.45,-364.74 101,-362 154.45,-346.65 182.08,-375.54 224,-339 243.07,-322.38 223.71,-302.48 242,-285 255.02,-272.55 275.58,-268.16 290.5,-266.66"/>
<polygon fill="#9a32cd" stroke="#9a32cd" points="70.67,-368.91 62.75,-375.94 73.33,-375.38 70.67,-368.91"/>
<text text-anchor="middle" x="162.5" y="-387" font-family="Helvetica,sans-Serif" font-size="10.00"> operSTR</text>
<text text-anchor="middle" x="162.5" y="-376" font-family="Helvetica,sans-Serif" font-size="10.00">parenLPAR</text>
<text text-anchor="middle" x="162.5" y="-365" font-family="Helvetica,sans-Serif" font-size="10.00">parenRPAR</text>
</g>
<!-- Node6 -->
<g id="node6" class="node">
<title>Node6</title>
<g id="a_node6"><a xlink:title=" ">
<polygon fill="white" stroke="#bfbfbf" points="0,-159.5 0,-178.5 83,-178.5 83,-159.5 0,-159.5"/>
<text text-anchor="middle" x="41.5" y="-166.5" font-family="Helvetica,sans-Serif" font-size="10.00">static ReportKt</text>
</a>
</g>
</g>
<!-- Node6&#45;&gt;Node4 -->
<g id="edge5" class="edge">
<title>Node6&#45;&gt;Node4</title>
<path fill="none" stroke="#9a32cd" stroke-dasharray="5,2" d="M93.39,-164.76C131.17,-163.7 183.03,-166.74 224,-186 234.24,-190.81 232.24,-198.27 242,-204 250.97,-209.26 261.47,-213.14 271.47,-215.96"/>
<polygon fill="#9a32cd" stroke="#9a32cd" points="92.98,-161.27 83.13,-165.16 93.26,-168.27 92.98,-161.27"/>
<text text-anchor="middle" x="162.5" y="-189" font-family="Helvetica,sans-Serif" font-size="10.00"> repo</text>
</g>
<!-- Node7 -->
<g id="node7" class="node">
<title>Node7</title>
<g id="a_node7"><a xlink:title=" ">
<polygon fill="white" stroke="#bfbfbf" points="9,-121.5 9,-140.5 74,-140.5 74,-121.5 9,-121.5"/>
<text text-anchor="middle" x="41.5" y="-128.5" font-family="Helvetica,sans-Serif" font-size="10.00">TraceLevel</text>
</a>
</g>
</g>
<!-- Node7&#45;&gt;Node4 -->
<g id="edge6" class="edge">
<title>Node7&#45;&gt;Node4</title>
<path fill="none" stroke="#9a32cd" stroke-dasharray="5,2" d="M84.25,-123.5C124.46,-118.76 184.8,-118.52 224,-150 243.72,-165.84 223.71,-186.52 242,-204 249.95,-211.6 260.72,-216.2 271.29,-218.97"/>
<polygon fill="#9a32cd" stroke="#9a32cd" points="83.69,-120.04 74.23,-124.82 84.6,-126.98 83.69,-120.04"/>
<text text-anchor="middle" x="162.5" y="-153" font-family="Helvetica,sans-Serif" font-size="10.00"> LOG</text>
</g>
<!-- Node8 -->
<g id="node8" class="node">
<title>Node8</title>
<g id="a_node8"><a xlink:title=" ">
<polygon fill="white" stroke="#bfbfbf" points="27,-58.5 27,-77.5 56,-77.5 56,-58.5 27,-58.5"/>
<text text-anchor="middle" x="41.5" y="-65.5" font-family="Helvetica,sans-Serif" font-size="10.00">int</text>
</a>
</g>
</g>
<!-- Node8&#45;&gt;Node4 -->
<g id="edge7" class="edge">
<title>Node8&#45;&gt;Node4</title>
<path fill="none" stroke="#9a32cd" stroke-dasharray="5,2" d="M65.73,-60.38C103.97,-49.45 180.31,-34.66 224,-74 267.34,-113.03 203.71,-160 242,-204 249.46,-212.57 260.47,-217.41 271.43,-220.1"/>
<polygon fill="#9a32cd" stroke="#9a32cd" points="64.57,-57.07 56.01,-63.31 66.59,-63.78 64.57,-57.07"/>
<text text-anchor="middle" x="162.5" y="-110" font-family="Helvetica,sans-Serif" font-size="10.00"> BITMASK_PRINT_WIDTH</text>
<text text-anchor="middle" x="162.5" y="-99" font-family="Helvetica,sans-Serif" font-size="10.00">UNDEF</text>
<text text-anchor="middle" x="162.5" y="-88" font-family="Helvetica,sans-Serif" font-size="10.00">id_</text>
<text text-anchor="middle" x="162.5" y="-77" font-family="Helvetica,sans-Serif" font-size="10.00">numInstances</text>
</g>
<!-- Node9 -->
<g id="node9" class="node">
<title>Node9</title>
<g id="a_node9"><a xlink:href="interfacetype_1_1_typable.html" target="_top" xlink:title="抽象ノードがもつ関数型のインタフェース">
<polygon fill="white" stroke="black" points="16.5,-197.5 16.5,-216.5 66.5,-216.5 66.5,-197.5 16.5,-197.5"/>
<text text-anchor="middle" x="41.5" y="-204.5" font-family="Helvetica,sans-Serif" font-size="10.00">Typable</text>
</a>
</g>
</g>
<!-- Node9&#45;&gt;Node4 -->
<g id="edge8" class="edge">
<title>Node9&#45;&gt;Node4</title>
<path fill="none" stroke="#9a32cd" stroke-dasharray="5,2" d="M76.77,-204.95C84.72,-204.55 93.15,-204.2 101,-204 155.65,-202.6 169.66,-198 224,-204 240.83,-205.86 259.21,-209.73 274.55,-213.49"/>
<polygon fill="#9a32cd" stroke="#9a32cd" points="76.48,-201.46 66.68,-205.48 76.85,-208.45 76.48,-201.46"/>
<text text-anchor="middle" x="162.5" y="-207" font-family="Helvetica,sans-Serif" font-size="10.00"> typing</text>
</g>
<!-- Node10 -->
<g id="node10" class="node">
<title>Node10</title>
<g id="a_node10"><a xlink:title=" ">
<polygon fill="white" stroke="#bfbfbf" points="16.5,-248.5 16.5,-267.5 66.5,-267.5 66.5,-248.5 16.5,-248.5"/>
<text text-anchor="middle" x="41.5" y="-255.5" font-family="Helvetica,sans-Serif" font-size="10.00">boolean</text>
</a>
</g>
</g>
<!-- Node10&#45;&gt;Node4 -->
<g id="edge9" class="edge">
<title>Node10&#45;&gt;Node4</title>
<path fill="none" stroke="#9a32cd" stroke-dasharray="5,2" d="M76.39,-249.79C84.42,-248.03 92.99,-246.31 101,-245 160.13,-235.33 229.45,-228.99 271.25,-225.7"/>
<polygon fill="#9a32cd" stroke="#9a32cd" points="75.56,-246.39 66.57,-252.01 77.1,-253.21 75.56,-246.39"/>
<text text-anchor="middle" x="162.5" y="-248" font-family="Helvetica,sans-Serif" font-size="10.00"> DEBUG_REPO</text>
</g>
<!-- Node10&#45;&gt;Node18 -->
<g id="edge20" class="edge">
<title>Node10&#45;&gt;Node18</title>
<path fill="none" stroke="#9a32cd" stroke-dasharray="5,2" d="M76.91,-259.03C133.87,-260.74 245.84,-264.1 290.23,-265.44"/>
<polygon fill="#9a32cd" stroke="#9a32cd" points="76.72,-255.53 66.62,-258.72 76.51,-262.52 76.72,-255.53"/>
<text text-anchor="middle" x="162.5" y="-278" font-family="Helvetica,sans-Serif" font-size="10.00"> preoperSupress</text>
<text text-anchor="middle" x="162.5" y="-267" font-family="Helvetica,sans-Serif" font-size="10.00">toInline</text>
</g>
<!-- Node11 -->
<g id="node11" class="node">
<title>Node11</title>
<g id="a_node11"><a xlink:href="interfaceast_1_1_node.html" target="_top" xlink:title=" ">
<polygon fill="white" stroke="black" points="290,-0.5 290,-19.5 330,-19.5 330,-0.5 290,-0.5"/>
<text text-anchor="middle" x="310" y="-7.5" font-family="Helvetica,sans-Serif" font-size="10.00">Node</text>
</a>
</g>
</g>
<!-- Node11&#45;&gt;Node3 -->
<g id="edge10" class="edge">
<title>Node11&#45;&gt;Node3</title>
<path fill="none" stroke="midnightblue" d="M340.11,-13.37C374.77,-18.69 432.9,-31.83 472,-63 511.78,-94.72 537.66,-152.34 546.81,-175.24"/>
<polygon fill="midnightblue" stroke="midnightblue" points="340.54,-9.9 330.15,-11.97 339.56,-16.83 340.54,-9.9"/>
</g>
<!-- Node12 -->
<g id="node12" class="node">
<title>Node12</title>
<g id="a_node12"><a xlink:href="interfaceformat_1_1_x_formattable.html" target="_top" xlink:title="入れ子フォーマット出力可能なオブジェクトのインタフェース。">
<polygon fill="white" stroke="black" points="4,-10.5 4,-29.5 79,-29.5 79,-10.5 4,-10.5"/>
<text text-anchor="middle" x="41.5" y="-17.5" font-family="Helvetica,sans-Serif" font-size="10.00">XFormattable</text>
</a>
</g>
</g>
<!-- Node12&#45;&gt;Node11 -->
<g id="edge11" class="edge">
<title>Node12&#45;&gt;Node11</title>
<path fill="none" stroke="midnightblue" d="M89.5,-18.24C148.8,-16.01 248.06,-12.29 289.69,-10.72"/>
<polygon fill="midnightblue" stroke="midnightblue" points="89.14,-14.75 79.28,-18.62 89.4,-21.74 89.14,-14.75"/>
</g>
<!-- Node13 -->
<g id="node13" class="node">
<title>Node13</title>
<g id="a_node13"><a xlink:href="interfaceformat_1_1_x_formattable_1_1_navigatable.html" target="_top" xlink:title="木構造の分岐ノードとして清書可能なオブジェクトのクラス">
<polygon fill="white" stroke="black" points="245,-175.5 245,-194.5 375,-194.5 375,-175.5 245,-175.5"/>
<text text-anchor="middle" x="310" y="-182.5" font-family="Helvetica,sans-Serif" font-size="10.00">XFormattable.Navigatable</text>
</a>
</g>
</g>
<!-- Node12&#45;&gt;Node13 -->
<g id="edge13" class="edge">
<title>Node12&#45;&gt;Node13</title>
<path fill="none" stroke="midnightblue" d="M89.25,-21.38C136.66,-23.81 205.6,-30.51 224,-49 260.81,-85.97 207.7,-125.68 242,-165 245.75,-169.3 250.38,-172.69 255.45,-175.37"/>
<polygon fill="midnightblue" stroke="midnightblue" points="89.35,-17.88 79.19,-20.91 89.02,-24.87 89.35,-17.88"/>
</g>
<!-- Node13&#45;&gt;Node3 -->
<g id="edge12" class="edge">
<title>Node13&#45;&gt;Node3</title>
<path fill="none" stroke="midnightblue" d="M385.36,-185C432.48,-185 490.6,-185 523.82,-185"/>
<polygon fill="midnightblue" stroke="midnightblue" points="385.18,-181.5 375.18,-185 385.18,-188.5 385.18,-181.5"/>
</g>
<!-- Node14 -->
<g id="node14" class="node">
<title>Node14</title>
<g id="a_node14"><a xlink:title=" ">
<polygon fill="white" stroke="#bfbfbf" points="246,-126 246,-156 374,-156 374,-126 246,-126"/>
<text text-anchor="start" x="254" y="-144" font-family="Helvetica,sans-Serif" font-size="10.00">java.util.function.Function</text>
<text text-anchor="middle" x="310" y="-133" font-family="Helvetica,sans-Serif" font-size="10.00">&lt; ast.Node, String &gt;</text>
</a>
</g>
</g>
<!-- Node14&#45;&gt;Node3 -->
<g id="edge14" class="edge">
<title>Node14&#45;&gt;Node3</title>
<path fill="none" stroke="#9a32cd" stroke-dasharray="5,2" d="M384.07,-153.99C411.64,-158.94 443.28,-164.67 472,-170 489.33,-173.22 508.78,-176.93 523.99,-179.86"/>
<polygon fill="#9a32cd" stroke="#9a32cd" points="384.57,-150.53 374.11,-152.21 383.34,-157.42 384.57,-150.53"/>
<text text-anchor="middle" x="434" y="-173" font-family="Helvetica,sans-Serif" font-size="10.00"> printerFunc</text>
</g>
<!-- Node15 -->
<g id="node15" class="node">
<title>Node15</title>
<g id="a_node15"><a xlink:title=" ">
<polygon fill="white" stroke="#bfbfbf" points="242,-77 242,-107 378,-107 378,-77 242,-77"/>
<text text-anchor="start" x="250" y="-95" font-family="Helvetica,sans-Serif" font-size="10.00">java.util.function.Consumer</text>
<text text-anchor="middle" x="310" y="-84" font-family="Helvetica,sans-Serif" font-size="10.00">&lt; ast.Node &gt;</text>
</a>
</g>
</g>
<!-- Node15&#45;&gt;Node3 -->
<g id="edge15" class="edge">
<title>Node15&#45;&gt;Node3</title>
<path fill="none" stroke="#9a32cd" stroke-dasharray="5,2" d="M379.05,-109.86C408.15,-118.33 442.22,-129.37 472,-142 494.89,-151.71 519.83,-166.08 535.32,-175.49"/>
<polygon fill="#9a32cd" stroke="#9a32cd" points="379.96,-106.48 369.38,-107.08 378.02,-113.2 379.96,-106.48"/>
<text text-anchor="middle" x="434" y="-145" font-family="Helvetica,sans-Serif" font-size="10.00"> typerFunc</text>
</g>
<!-- Node16 -->
<g id="node16" class="node">
<title>Node16</title>
<g id="a_node16"><a xlink:title=" ">
<polygon fill="white" stroke="#bfbfbf" points="265,-38.5 265,-57.5 355,-57.5 355,-38.5 265,-38.5"/>
<text text-anchor="middle" x="310" y="-45.5" font-family="Helvetica,sans-Serif" font-size="10.00">List&lt; ast.Node &gt;</text>
</a>
</g>
</g>
<!-- Node16&#45;&gt;Node3 -->
<g id="edge16" class="edge">
<title>Node16&#45;&gt;Node3</title>
<path fill="none" stroke="#9a32cd" stroke-dasharray="5,2" d="M365.01,-58.23C397.87,-66.22 439.61,-79.63 472,-101 503.66,-121.88 531.56,-158.04 543.85,-175.29"/>
<polygon fill="#9a32cd" stroke="#9a32cd" points="365.65,-54.78 355.12,-55.92 364.06,-61.6 365.65,-54.78"/>
<text text-anchor="middle" x="434" y="-104" font-family="Helvetica,sans-Serif" font-size="10.00"> children_</text>
</g>
<!-- Node17 -->
<g id="node17" class="node">
<title>Node17</title>
<g id="a_node17"><a xlink:title=" ">
<polygon fill="white" stroke="#bfbfbf" points="284,-294.5 284,-313.5 336,-313.5 336,-294.5 284,-294.5"/>
<text text-anchor="middle" x="310" y="-301.5" font-family="Helvetica,sans-Serif" font-size="10.00">Boolean</text>
</a>
</g>
</g>
<!-- Node17&#45;&gt;Node3 -->
<g id="edge17" class="edge">
<title>Node17&#45;&gt;Node3</title>
<path fill="none" stroke="#9a32cd" stroke-dasharray="5,2" d="M346.05,-298.89C379.96,-292.85 431.98,-280.62 472,-258 502.14,-240.97 529.92,-210.15 542.86,-194.57"/>
<polygon fill="#9a32cd" stroke="#9a32cd" points="345.41,-295.45 336.14,-300.57 346.58,-302.35 345.41,-295.45"/>
<text text-anchor="middle" x="434" y="-290" font-family="Helvetica,sans-Serif" font-size="10.00"> DEBUG_CHILD</text>
</g>
<!-- Node18&#45;&gt;Node3 -->
<g id="edge18" class="edge">
<title>Node18&#45;&gt;Node3</title>
<path fill="none" stroke="#9a32cd" stroke-dasharray="5,2" d="M339.3,-258.88C371.73,-250.47 426.28,-235.5 472,-219 492.26,-211.69 514.75,-201.75 530.45,-194.51"/>
<polygon fill="#9a32cd" stroke="#9a32cd" points="338.4,-255.5 329.59,-261.38 340.15,-262.28 338.4,-255.5"/>
<text text-anchor="middle" x="434" y="-246" font-family="Helvetica,sans-Serif" font-size="10.00"> sty</text>
</g>
<!-- Node19 -->
<g id="node19" class="node">
<title>Node19</title>
<g id="a_node19"><a xlink:href="interfacecmd_1_1_generatable_1_1_evaluatable.html" target="_top" xlink:title="評価して値を返すノードのインタフェース．必ずしもコードを生成しなくても良い．">
<polygon fill="white" stroke="black" points="490,-437.5 490,-456.5 613,-456.5 613,-437.5 490,-437.5"/>
<text text-anchor="middle" x="551.5" y="-444.5" font-family="Helvetica,sans-Serif" font-size="10.00">Generatable.Evaluatable</text>
</a>
</g>
</g>
<!-- Node19&#45;&gt;Node2 -->
<g id="edge21" class="edge">
<title>Node19&#45;&gt;Node2</title>
<path fill="none" stroke="midnightblue" d="M609.52,-435.41C623.61,-432.55 638.02,-429.62 649.77,-427.23"/>
<polygon fill="midnightblue" stroke="midnightblue" points="608.45,-432.06 599.35,-437.48 609.85,-438.92 608.45,-432.06"/>
</g>
<!-- Node20 -->
<g id="node20" class="node">
<title>Node20</title>
<g id="a_node20"><a xlink:href="interfacecmd_1_1_generatable.html" target="_top" xlink:title="変換してコードを生成できるノードのインタフェース.">
<polygon fill="white" stroke="black" points="275.5,-460.5 275.5,-479.5 344.5,-479.5 344.5,-460.5 275.5,-460.5"/>
<text text-anchor="middle" x="310" y="-467.5" font-family="Helvetica,sans-Serif" font-size="10.00">Generatable</text>
</a>
</g>
</g>
<!-- Node20&#45;&gt;Node1 -->
<g id="edge24" class="edge">
<title>Node20&#45;&gt;Node1</title>
<path fill="none" stroke="midnightblue" d="M354.76,-471.42C446.43,-474.38 656.99,-481.2 739.98,-483.88"/>
<polygon fill="midnightblue" stroke="midnightblue" points="354.82,-467.92 344.71,-471.09 354.59,-474.91 354.82,-467.92"/>
</g>
<!-- Node20&#45;&gt;Node19 -->
<g id="edge22" class="edge">
<title>Node20&#45;&gt;Node19</title>
<path fill="none" stroke="midnightblue" d="M354.75,-465.8C392.63,-462.16 447.8,-456.86 489.93,-452.82"/>
<polygon fill="midnightblue" stroke="midnightblue" points="354.17,-462.34 344.55,-466.78 354.84,-469.31 354.17,-462.34"/>
</g>
</g>
</svg>
