<?xml version="1.0" encoding="UTF-8" standalone="no"?>
<!DOCTYPE svg PUBLIC "-//W3C//DTD SVG 1.1//EN"
 "http://www.w3.org/Graphics/SVG/1.1/DTD/svg11.dtd">
<!-- Generated by graphviz version 2.47.0 (20210316.0004)
 -->
<!-- Title: CommandTyped&lt; T &gt;.CmdConv&lt; S, T &gt; Pages: 1 -->
<svg width="443pt" height="262pt"
 viewBox="0.00 0.00 443.00 262.00" xmlns="http://www.w3.org/2000/svg" xmlns:xlink="http://www.w3.org/1999/xlink">
<g id="graph0" class="graph" transform="scale(1 1) rotate(0) translate(4 258)">
<title>CommandTyped&lt; T &gt;.CmdConv&lt; S, T &gt;</title>
<polygon fill="white" stroke="transparent" points="-4,4 -4,-258 439,-258 439,4 -4,4"/>
<!-- Node1 -->
<g id="node1" class="node">
<title>Node1</title>
<g id="a_node1"><a xlink:title="OVMachine上のS型の値をT型の値に変換する命令．">
<polygon fill="#bfbfbf" stroke="black" points="227.5,-0.5 227.5,-30.5 386.5,-30.5 386.5,-0.5 227.5,-0.5"/>
<text text-anchor="start" x="235.5" y="-18.5" font-family="Helvetica,sans-Serif" font-size="10.00">CommandTyped&lt; T &gt;.CmdConv</text>
<text text-anchor="middle" x="307" y="-7.5" font-family="Helvetica,sans-Serif" font-size="10.00">&lt; S, T &gt;</text>
</a>
</g>
</g>
<!-- Node2 -->
<g id="node2" class="node">
<title>Node2</title>
<g id="a_node2"><a xlink:href="classcmd_1_1_command_base.html" target="_top" xlink:title="局所変数環境に値を書き込む式の抽象クラス.">
<polygon fill="white" stroke="black" points="159,-89.5 159,-108.5 243,-108.5 243,-89.5 159,-89.5"/>
<text text-anchor="middle" x="201" y="-96.5" font-family="Helvetica,sans-Serif" font-size="10.00">CommandBase</text>
</a>
</g>
</g>
<!-- Node2&#45;&gt;Node1 -->
<g id="edge1" class="edge">
<title>Node2&#45;&gt;Node1</title>
<path fill="none" stroke="midnightblue" d="M220.49,-83.01C239.95,-68.05 269.62,-45.24 288.66,-30.6"/>
<polygon fill="midnightblue" stroke="midnightblue" points="218.14,-80.41 212.34,-89.28 222.4,-85.96 218.14,-80.41"/>
</g>
<!-- Node3 -->
<g id="node3" class="node">
<title>Node3</title>
<g id="a_node3"><a xlink:href="interfacemachine_1_1_cmd.html" target="_top" xlink:title="仮装命令のインタフェース.">
<polygon fill="white" stroke="black" points="0,-156.5 0,-175.5 38,-175.5 38,-156.5 0,-156.5"/>
<text text-anchor="middle" x="19" y="-163.5" font-family="Helvetica,sans-Serif" font-size="10.00">Cmd</text>
</a>
</g>
</g>
<!-- Node3&#45;&gt;Node2 -->
<g id="edge2" class="edge">
<title>Node3&#45;&gt;Node2</title>
<path fill="none" stroke="midnightblue" d="M47.95,-154.66C83.65,-141.91 143.69,-120.47 176.97,-108.58"/>
<polygon fill="midnightblue" stroke="midnightblue" points="46.37,-151.51 38.13,-158.17 48.73,-158.1 46.37,-151.51"/>
</g>
<!-- Node4 -->
<g id="node4" class="node">
<title>Node4</title>
<g id="a_node4"><a xlink:href="interfaceformat_1_1_x_formattable_1_1_custom_formattable.html" target="_top" xlink:title="カスタム清書出力器をもつオブジェクトのクラス．">
<polygon fill="white" stroke="black" points="56,-156.5 56,-175.5 220,-175.5 220,-156.5 56,-156.5"/>
<text text-anchor="middle" x="138" y="-163.5" font-family="Helvetica,sans-Serif" font-size="10.00">XFormattable.CustomFormattable</text>
</a>
</g>
</g>
<!-- Node4&#45;&gt;Node2 -->
<g id="edge3" class="edge">
<title>Node4&#45;&gt;Node2</title>
<path fill="none" stroke="midnightblue" d="M153.51,-149C165.87,-136.25 182.69,-118.89 192.64,-108.63"/>
<polygon fill="midnightblue" stroke="midnightblue" points="150.94,-146.62 146.5,-156.23 155.97,-151.49 150.94,-146.62"/>
</g>
<!-- Node5 -->
<g id="node5" class="node">
<title>Node5</title>
<g id="a_node5"><a xlink:href="interfaceformat_1_1_x_formattable.html" target="_top" xlink:title="入れ子フォーマット出力可能なオブジェクトのインタフェース。">
<polygon fill="white" stroke="black" points="75.5,-234.5 75.5,-253.5 150.5,-253.5 150.5,-234.5 75.5,-234.5"/>
<text text-anchor="middle" x="113" y="-241.5" font-family="Helvetica,sans-Serif" font-size="10.00">XFormattable</text>
</a>
</g>
</g>
<!-- Node5&#45;&gt;Node4 -->
<g id="edge4" class="edge">
<title>Node5&#45;&gt;Node4</title>
<path fill="none" stroke="midnightblue" d="M119.03,-224.67C124.15,-209.11 131.27,-187.47 135.17,-175.62"/>
<polygon fill="midnightblue" stroke="midnightblue" points="115.67,-223.69 115.87,-234.28 122.32,-225.88 115.67,-223.69"/>
</g>
<!-- Node6 -->
<g id="node6" class="node">
<title>Node6</title>
<g id="a_node6"><a xlink:href="classutil_1_1_report.html" target="_top" xlink:title="標準出力への入れ子出力のためのレポートオブジェクトのクラス.">
<polygon fill="white" stroke="black" points="238.5,-156.5 238.5,-175.5 309.5,-175.5 309.5,-156.5 238.5,-156.5"/>
<text text-anchor="middle" x="274" y="-163.5" font-family="Helvetica,sans-Serif" font-size="10.00">Report&lt; S &gt;</text>
</a>
</g>
</g>
<!-- Node6&#45;&gt;Node2 -->
<g id="edge5" class="edge">
<title>Node6&#45;&gt;Node2</title>
<path fill="none" stroke="#9a32cd" stroke-dasharray="5,2" d="M256.43,-149.36C242.08,-136.58 222.33,-118.99 210.69,-108.63"/>
<polygon fill="#9a32cd" stroke="#9a32cd" points="254.36,-152.2 264.15,-156.23 259.01,-146.97 254.36,-152.2"/>
<text text-anchor="middle" x="253" y="-130" font-family="Helvetica,sans-Serif" font-size="10.00"> repo</text>
</g>
<!-- Node7 -->
<g id="node7" class="node">
<title>Node7</title>
<g id="a_node7"><a xlink:title=" ">
<polygon fill="white" stroke="#bfbfbf" points="169,-234.5 169,-253.5 211,-253.5 211,-234.5 169,-234.5"/>
<text text-anchor="middle" x="190" y="-241.5" font-family="Helvetica,sans-Serif" font-size="10.00">String</text>
</a>
</g>
</g>
<!-- Node7&#45;&gt;Node6 -->
<g id="edge6" class="edge">
<title>Node7&#45;&gt;Node6</title>
<path fill="none" stroke="#9a32cd" stroke-dasharray="5,2" d="M197.16,-224.83C201.87,-214.74 208.85,-202.53 218,-194 226.6,-185.98 238.03,-179.89 248.32,-175.55"/>
<polygon fill="#9a32cd" stroke="#9a32cd" points="193.8,-223.78 193.08,-234.35 200.24,-226.53 193.8,-223.78"/>
<text text-anchor="middle" x="244" y="-202.5" font-family="Helvetica,sans-Serif" font-size="10.00"> STEMSTR</text>
</g>
<!-- Node8 -->
<g id="node8" class="node">
<title>Node8</title>
<g id="a_node8"><a xlink:href="classutil_1_1_stack_base.html" target="_top" xlink:title=" ">
<polygon fill="white" stroke="black" points="229,-234.5 229,-253.5 337,-253.5 337,-234.5 229,-234.5"/>
<text text-anchor="middle" x="283" y="-241.5" font-family="Helvetica,sans-Serif" font-size="10.00">StackBase&lt; String &gt;</text>
</a>
</g>
</g>
<!-- Node8&#45;&gt;Node6 -->
<g id="edge7" class="edge">
<title>Node8&#45;&gt;Node6</title>
<path fill="none" stroke="#9a32cd" stroke-dasharray="5,2" d="M276.83,-224.56C276.08,-221.72 275.44,-218.8 275,-216 272.83,-202.04 273.05,-185.58 273.48,-175.74"/>
<polygon fill="#9a32cd" stroke="#9a32cd" points="273.48,-225.58 279.72,-234.14 280.18,-223.55 273.48,-225.58"/>
<text text-anchor="middle" x="284" y="-202.5" font-family="Helvetica,sans-Serif" font-size="10.00"> NS</text>
</g>
<!-- Node9 -->
<g id="node9" class="node">
<title>Node9</title>
<g id="a_node9"><a xlink:title=" ">
<polygon fill="white" stroke="#bfbfbf" points="363,-234.5 363,-253.5 413,-253.5 413,-234.5 363,-234.5"/>
<text text-anchor="middle" x="388" y="-241.5" font-family="Helvetica,sans-Serif" font-size="10.00">boolean</text>
</a>
</g>
</g>
<!-- Node9&#45;&gt;Node2 -->
<g id="edge9" class="edge">
<title>Node9&#45;&gt;Node2</title>
<path fill="none" stroke="#9a32cd" stroke-dasharray="5,2" d="M389.46,-224.04C389.32,-214.35 387.69,-202.79 382,-194 350.23,-144.97 284.22,-120.09 241.31,-108.6"/>
<polygon fill="#9a32cd" stroke="#9a32cd" points="385.96,-224.15 389.11,-234.27 392.95,-224.39 385.96,-224.15"/>
<text text-anchor="middle" x="401" y="-163.5" font-family="Helvetica,sans-Serif" font-size="10.00"> DEBUG_CMD</text>
</g>
<!-- Node9&#45;&gt;Node6 -->
<g id="edge8" class="edge">
<title>Node9&#45;&gt;Node6</title>
<path fill="none" stroke="#9a32cd" stroke-dasharray="5,2" d="M353.22,-233.89C340.8,-229.65 327.13,-223.79 316,-216 300.21,-204.95 286.68,-186.63 279.5,-175.8"/>
<polygon fill="#9a32cd" stroke="#9a32cd" points="352.25,-237.26 362.84,-236.95 354.37,-230.58 352.25,-237.26"/>
<text text-anchor="middle" x="349" y="-208" font-family="Helvetica,sans-Serif" font-size="10.00"> DEBUG_POP</text>
<text text-anchor="middle" x="349" y="-197" font-family="Helvetica,sans-Serif" font-size="10.00">toPrint</text>
</g>
<!-- Node10 -->
<g id="node10" class="node">
<title>Node10</title>
<g id="a_node10"><a xlink:title=" ">
<polygon fill="white" stroke="#bfbfbf" points="261.5,-89.5 261.5,-108.5 352.5,-108.5 352.5,-89.5 261.5,-89.5"/>
<text text-anchor="middle" x="307" y="-96.5" font-family="Helvetica,sans-Serif" font-size="10.00">Function&lt; S, T &gt;</text>
</a>
</g>
</g>
<!-- Node10&#45;&gt;Node1 -->
<g id="edge10" class="edge">
<title>Node10&#45;&gt;Node1</title>
<path fill="none" stroke="#9a32cd" stroke-dasharray="5,2" d="M307,-79.23C307,-64.41 307,-44.05 307,-30.6"/>
<polygon fill="#9a32cd" stroke="#9a32cd" points="303.5,-79.28 307,-89.28 310.5,-79.28 303.5,-79.28"/>
<text text-anchor="middle" x="318" y="-57.5" font-family="Helvetica,sans-Serif" font-size="10.00"> func</text>
</g>
<!-- Node11 -->
<g id="node11" class="node">
<title>Node11</title>
<g id="a_node11"><a xlink:href="enumtype_1_1_x_type.html" target="_top" xlink:title="基本型を表す半順序をもつ列挙型のクラス。">
<polygon fill="white" stroke="black" points="371,-89.5 371,-108.5 415,-108.5 415,-89.5 371,-89.5"/>
<text text-anchor="middle" x="393" y="-96.5" font-family="Helvetica,sans-Serif" font-size="10.00">XType</text>
</a>
</g>
</g>
<!-- Node11&#45;&gt;Node1 -->
<g id="edge11" class="edge">
<title>Node11&#45;&gt;Node1</title>
<path fill="none" stroke="#9a32cd" stroke-dasharray="5,2" d="M376.33,-82.2C360.54,-67.23 337.05,-44.97 321.88,-30.6"/>
<polygon fill="#9a32cd" stroke="#9a32cd" points="374.13,-84.94 383.8,-89.28 378.95,-79.86 374.13,-84.94"/>
<text text-anchor="middle" x="369" y="-63" font-family="Helvetica,sans-Serif" font-size="10.00"> ixt</text>
<text text-anchor="middle" x="369" y="-52" font-family="Helvetica,sans-Serif" font-size="10.00">oxt</text>
</g>
</g>
</svg>
