<?xml version="1.0" encoding="UTF-8" standalone="no"?>
<!DOCTYPE svg PUBLIC "-//W3C//DTD SVG 1.1//EN"
 "http://www.w3.org/Graphics/SVG/1.1/DTD/svg11.dtd">
<!-- Generated by graphviz version 2.47.1 (20210417.1919)
 -->
<!-- Title: AstReturn Pages: 1 -->
<!--zoomable 516 -->
<svg id="main" version="1.1" xmlns="http://www.w3.org/2000/svg" xmlns:xlink="http://www.w3.org/1999/xlink" xml:space="preserve" onload="init(evt)">
<style type="text/css"><![CDATA[
.edge:hover path { stroke: red; }
.edge:hover polygon { stroke: red; fill: red; }
]]></style>
<script type="text/javascript"><![CDATA[
var edges = document.getElementsByTagName('g');
if (edges && edges.length) {
  for (var i=0;i<edges.length;i++) {
    if (edges[i].id.substr(0,4)=='edge') {
      edges[i].setAttribute('class','edge');
    }
  }
}
]]></script>
        <defs>
                <circle id="rim" cx="0" cy="0" r="7"/>
                <circle id="rim2" cx="0" cy="0" r="3.5"/>
                <g id="zoomPlus">
                        <use xlink:href="#rim" fill="#404040">
                                <set attributeName="fill" to="#808080" begin="zoomplus.mouseover" end="zoomplus.mouseout"/>
                        </use>
                        <path d="M-4,0h8M0,-4v8" fill="none" stroke="white" stroke-width="1.5" pointer-events="none"/>
                </g>
                <g id="zoomMin">
                        <use xlink:href="#rim" fill="#404040">
                                <set attributeName="fill" to="#808080" begin="zoomminus.mouseover" end="zoomminus.mouseout"/>
                        </use>
                        <path d="M-4,0h8" fill="none" stroke="white" stroke-width="1.5" pointer-events="none"/>
                </g>
                <g id="dirArrow">
                        <path fill="none" stroke="white" stroke-width="1.5" d="M0,-3.0v7 M-2.5,-0.5L0,-3.0L2.5,-0.5"/>
                </g>
               <g id="resetDef">
                       <use xlink:href="#rim2" fill="#404040">
                               <set attributeName="fill" to="#808080" begin="reset.mouseover" end="reset.mouseout"/>
                       </use>
               </g>
        </defs>

<script type="text/javascript">
var viewWidth = 809;
var viewHeight = 516;
var sectionId = 'dynsection-1';
</script>
<script xlink:href="svgpan.js"/>
<svg id="graph" class="graph">
<g id="viewport">
<title>AstReturn</title>
<polygon fill="white" stroke="transparent" points="-4,4 -4,-512 805,-512 805,4 -4,4"/>
<!-- Node1 -->
<g id="node1" class="node">
<title>Node1</title>
<g id="a_node1"><a xlink:title="リターン式のクラス．値を返すことができる．">
<polygon fill="#bfbfbf" stroke="black" points="740,-407.5 740,-426.5 801,-426.5 801,-407.5 740,-407.5"/>
<text text-anchor="middle" x="770.5" y="-414.5" font-family="Helvetica,sans-Serif" font-size="10.00">AstReturn</text>
</a>
</g>
</g>
<!-- Node2 -->
<g id="node2" class="node">
<title>Node2</title>
<g id="a_node2"><a xlink:href="classast_1_1_ast_oper.html" target="_top" xlink:title=" ">
<polygon fill="white" stroke="black" points="650,-299.5 650,-318.5 703,-318.5 703,-299.5 650,-299.5"/>
<text text-anchor="middle" x="676.5" y="-306.5" font-family="Helvetica,sans-Serif" font-size="10.00">AstOper</text>
</a>
</g>
</g>
<!-- Node2&#45;&gt;Node1 -->
<g id="edge1" class="edge">
<title>Node2&#45;&gt;Node1</title>
<path fill="none" stroke="midnightblue" d="M692.15,-326.2C711.69,-349.14 745.62,-388.97 761.22,-407.28"/>
<polygon fill="midnightblue" stroke="midnightblue" points="694.81,-323.93 685.66,-318.58 689.48,-328.47 694.81,-323.93"/>
</g>
<!-- Node3 -->
<g id="node3" class="node">
<title>Node3</title>
<g id="a_node3"><a xlink:href="classast_1_1_ast_node.html" target="_top" xlink:title="タグなしの順アクセスの子供をもてる抽象構文木のノードのクラス。">
<polygon fill="white" stroke="black" points="524,-190.5 524,-209.5 579,-209.5 579,-190.5 524,-190.5"/>
<text text-anchor="middle" x="551.5" y="-197.5" font-family="Helvetica,sans-Serif" font-size="10.00">AstNode</text>
</a>
</g>
</g>
<!-- Node3&#45;&gt;Node2 -->
<g id="edge2" class="edge">
<title>Node3&#45;&gt;Node2</title>
<path fill="none" stroke="midnightblue" d="M571.07,-216.45C597.01,-239.45 643.3,-280.47 664.43,-299.19"/>
<polygon fill="midnightblue" stroke="midnightblue" points="573.22,-213.69 563.42,-209.67 568.58,-218.92 573.22,-213.69"/>
</g>
<!-- Node4 -->
<g id="node4" class="node">
<title>Node4</title>
<g id="a_node4"><a xlink:href="classast_1_1_ast_node_base.html" target="_top" xlink:title=" ">
<polygon fill="white" stroke="black" points="271.5,-114.5 271.5,-133.5 348.5,-133.5 348.5,-114.5 271.5,-114.5"/>
<text text-anchor="middle" x="310" y="-121.5" font-family="Helvetica,sans-Serif" font-size="10.00">AstNodeBase</text>
</a>
</g>
</g>
<!-- Node4&#45;&gt;Node3 -->
<g id="edge3" class="edge">
<title>Node4&#45;&gt;Node3</title>
<path fill="none" stroke="midnightblue" d="M358.8,-135.97C391.04,-144.38 434.39,-156.36 472,-169 491.17,-175.44 512.48,-183.95 528.06,-190.42"/>
<polygon fill="midnightblue" stroke="midnightblue" points="359.3,-132.49 348.75,-133.37 357.55,-139.26 359.3,-132.49"/>
</g>
<!-- Node5 -->
<g id="node5" class="node">
<title>Node5</title>
<g id="a_node5"><a xlink:title=" ">
<polygon fill="white" stroke="#bfbfbf" points="20.5,-327.5 20.5,-346.5 62.5,-346.5 62.5,-327.5 20.5,-327.5"/>
<text text-anchor="middle" x="41.5" y="-334.5" font-family="Helvetica,sans-Serif" font-size="10.00">String</text>
</a>
</g>
</g>
<!-- Node5&#45;&gt;Node2 -->
<g id="edge23" class="edge">
<title>Node5&#45;&gt;Node2</title>
<path fill="none" stroke="#9a32cd" stroke-dasharray="5,2" d="M73.13,-335.65C182.03,-330.83 549.34,-314.58 649.87,-310.13"/>
<polygon fill="#9a32cd" stroke="#9a32cd" points="72.68,-332.16 62.84,-336.1 72.99,-339.15 72.68,-332.16"/>
<text text-anchor="middle" x="434" y="-324" font-family="Helvetica,sans-Serif" font-size="10.00"> op</text>
</g>
<!-- Node5&#45;&gt;Node4 -->
<g id="edge4" class="edge">
<title>Node5&#45;&gt;Node4</title>
<path fill="none" stroke="#9a32cd" stroke-dasharray="5,2" d="M65.78,-321.8C76.36,-315.13 89.14,-307.37 101,-301 154.08,-272.5 187.22,-291.72 224,-244 251.83,-207.88 211.41,-176.81 242,-143 249.54,-134.66 260.45,-129.87 271.28,-127.16"/>
<polygon fill="#9a32cd" stroke="#9a32cd" points="63.67,-319 57.12,-327.33 67.44,-324.9 63.67,-319"/>
<text text-anchor="middle" x="162.5" y="-315" font-family="Helvetica,sans-Serif" font-size="10.00"> MOD_AST</text>
<text text-anchor="middle" x="162.5" y="-304" font-family="Helvetica,sans-Serif" font-size="10.00">mod_</text>
</g>
<!-- Node18 -->
<g id="node18" class="node">
<title>Node18</title>
<g id="a_node18"><a xlink:href="classformat_1_1_style.html" target="_top" xlink:title="ノードの表示スタイルに関するプロパティのクラス.">
<polygon fill="white" stroke="black" points="290.5,-365.5 290.5,-384.5 329.5,-384.5 329.5,-365.5 290.5,-365.5"/>
<text text-anchor="middle" x="310" y="-372.5" font-family="Helvetica,sans-Serif" font-size="10.00">Style</text>
</a>
</g>
</g>
<!-- Node5&#45;&gt;Node18 -->
<g id="edge19" class="edge">
<title>Node5&#45;&gt;Node18</title>
<path fill="none" stroke="#9a32cd" stroke-dasharray="5,2" d="M72.85,-343.05C81.89,-344.76 91.83,-346.54 101,-348 170.59,-359.05 253.81,-368.82 290.3,-372.93"/>
<polygon fill="#9a32cd" stroke="#9a32cd" points="73.24,-339.56 62.76,-341.1 71.91,-346.43 73.24,-339.56"/>
<text text-anchor="middle" x="162.5" y="-389" font-family="Helvetica,sans-Serif" font-size="10.00"> operSTR</text>
<text text-anchor="middle" x="162.5" y="-378" font-family="Helvetica,sans-Serif" font-size="10.00">parenLPAR</text>
<text text-anchor="middle" x="162.5" y="-367" font-family="Helvetica,sans-Serif" font-size="10.00">parenRPAR</text>
</g>
<!-- Node6 -->
<g id="node6" class="node">
<title>Node6</title>
<g id="a_node6"><a xlink:title=" ">
<polygon fill="white" stroke="#bfbfbf" points="0,-175.5 0,-194.5 83,-194.5 83,-175.5 0,-175.5"/>
<text text-anchor="middle" x="41.5" y="-182.5" font-family="Helvetica,sans-Serif" font-size="10.00">static ReportKt</text>
</a>
</g>
</g>
<!-- Node6&#45;&gt;Node4 -->
<g id="edge5" class="edge">
<title>Node6&#45;&gt;Node4</title>
<path fill="none" stroke="#9a32cd" stroke-dasharray="5,2" d="M93.4,-183.18C130.76,-180.35 182.08,-173.33 224,-156 233.12,-152.23 233.12,-147.3 242,-143 251.14,-138.57 261.5,-135.01 271.29,-132.21"/>
<polygon fill="#9a32cd" stroke="#9a32cd" points="92.99,-179.69 83.25,-183.86 93.47,-186.68 92.99,-179.69"/>
<text text-anchor="middle" x="162.5" y="-185" font-family="Helvetica,sans-Serif" font-size="10.00"> repo</text>
</g>
<!-- Node7 -->
<g id="node7" class="node">
<title>Node7</title>
<g id="a_node7"><a xlink:title=" ">
<polygon fill="white" stroke="#bfbfbf" points="9,-137.5 9,-156.5 74,-156.5 74,-137.5 9,-137.5"/>
<text text-anchor="middle" x="41.5" y="-144.5" font-family="Helvetica,sans-Serif" font-size="10.00">TraceLevel</text>
</a>
</g>
</g>
<!-- Node7&#45;&gt;Node4 -->
<g id="edge6" class="edge">
<title>Node7&#45;&gt;Node4</title>
<path fill="none" stroke="#9a32cd" stroke-dasharray="5,2" d="M84.21,-143.4C135.57,-138.97 222.05,-131.5 271.43,-127.24"/>
<polygon fill="#9a32cd" stroke="#9a32cd" points="83.78,-139.92 74.12,-144.27 84.38,-146.9 83.78,-139.92"/>
<text text-anchor="middle" x="162.5" y="-144" font-family="Helvetica,sans-Serif" font-size="10.00"> LOG</text>
</g>
<!-- Node8 -->
<g id="node8" class="node">
<title>Node8</title>
<g id="a_node8"><a xlink:title=" ">
<polygon fill="white" stroke="#bfbfbf" points="27,-72.5 27,-91.5 56,-91.5 56,-72.5 27,-72.5"/>
<text text-anchor="middle" x="41.5" y="-79.5" font-family="Helvetica,sans-Serif" font-size="10.00">int</text>
</a>
</g>
</g>
<!-- Node8&#45;&gt;Node4 -->
<g id="edge7" class="edge">
<title>Node8&#45;&gt;Node4</title>
<path fill="none" stroke="#9a32cd" stroke-dasharray="5,2" d="M66.16,-76.03C102.22,-68.23 172.2,-58.28 224,-83 235.4,-88.44 231.44,-98.07 242,-105 250.79,-110.77 261.35,-114.81 271.45,-117.64"/>
<polygon fill="#9a32cd" stroke="#9a32cd" points="65.08,-72.69 56.12,-78.34 66.65,-79.51 65.08,-72.69"/>
<text text-anchor="middle" x="162.5" y="-119" font-family="Helvetica,sans-Serif" font-size="10.00"> BITMASK_PRINT_WIDTH</text>
<text text-anchor="middle" x="162.5" y="-108" font-family="Helvetica,sans-Serif" font-size="10.00">UNDEF</text>
<text text-anchor="middle" x="162.5" y="-97" font-family="Helvetica,sans-Serif" font-size="10.00">id_</text>
<text text-anchor="middle" x="162.5" y="-86" font-family="Helvetica,sans-Serif" font-size="10.00">numInstances</text>
</g>
<!-- Node9 -->
<g id="node9" class="node">
<title>Node9</title>
<g id="a_node9"><a xlink:href="interfacetype_1_1_typable.html" target="_top" xlink:title="抽象ノードがもつ関数型のインタフェース">
<polygon fill="white" stroke="black" points="16.5,-213.5 16.5,-232.5 66.5,-232.5 66.5,-213.5 16.5,-213.5"/>
<text text-anchor="middle" x="41.5" y="-220.5" font-family="Helvetica,sans-Serif" font-size="10.00">Typable</text>
</a>
</g>
</g>
<!-- Node9&#45;&gt;Node4 -->
<g id="edge8" class="edge">
<title>Node9&#45;&gt;Node4</title>
<path fill="none" stroke="#9a32cd" stroke-dasharray="5,2" d="M76.57,-227.95C116.55,-231.77 182.62,-231.55 224,-197 243.42,-180.79 223.71,-160.48 242,-143 249.95,-135.4 260.72,-130.8 271.29,-128.03"/>
<polygon fill="#9a32cd" stroke="#9a32cd" points="76.84,-224.46 66.52,-226.86 76.08,-231.42 76.84,-224.46"/>
<text text-anchor="middle" x="162.5" y="-232" font-family="Helvetica,sans-Serif" font-size="10.00"> typing</text>
</g>
<!-- Node10 -->
<g id="node10" class="node">
<title>Node10</title>
<g id="a_node10"><a xlink:title=" ">
<polygon fill="white" stroke="#bfbfbf" points="16.5,-450.5 16.5,-469.5 66.5,-469.5 66.5,-450.5 16.5,-450.5"/>
<text text-anchor="middle" x="41.5" y="-457.5" font-family="Helvetica,sans-Serif" font-size="10.00">boolean</text>
</a>
</g>
</g>
<!-- Node10&#45;&gt;Node1 -->
<g id="edge24" class="edge">
<title>Node10&#45;&gt;Node1</title>
<path fill="none" stroke="#9a32cd" stroke-dasharray="5,2" d="M71.76,-473.54C80.94,-477.23 91.23,-480.8 101,-483 191.4,-503.3 216.35,-497 309,-497 309,-497 309,-497 677.5,-497 719.83,-497 752.17,-448.17 764.3,-426.81"/>
<polygon fill="#9a32cd" stroke="#9a32cd" points="72.9,-470.22 62.32,-469.56 70.18,-476.67 72.9,-470.22"/>
<text text-anchor="middle" x="551.5" y="-500" font-family="Helvetica,sans-Serif" font-size="10.00"> DEBUG_REPO</text>
</g>
<!-- Node10&#45;&gt;Node4 -->
<g id="edge9" class="edge">
<title>Node10&#45;&gt;Node4</title>
<path fill="none" stroke="#9a32cd" stroke-dasharray="5,2" d="M64.34,-444.46C74.96,-437.56 88.18,-429.91 101,-425 153.01,-405.07 187.11,-442.73 224,-401 262.06,-357.94 205.77,-187.61 242,-143 249.24,-134.08 260.33,-129.17 271.42,-126.51"/>
<polygon fill="#9a32cd" stroke="#9a32cd" points="62.1,-441.75 55.76,-450.23 66.01,-447.56 62.1,-441.75"/>
<text text-anchor="middle" x="162.5" y="-428" font-family="Helvetica,sans-Serif" font-size="10.00"> DEBUG_REPO</text>
</g>
<!-- Node10&#45;&gt;Node18 -->
<g id="edge20" class="edge">
<title>Node10&#45;&gt;Node18</title>
<path fill="none" stroke="#9a32cd" stroke-dasharray="5,2" d="M77.04,-460.99C114.55,-460.89 175.56,-457.3 224,-438 255.06,-425.62 284.92,-399 299.58,-384.65"/>
<polygon fill="#9a32cd" stroke="#9a32cd" points="76.68,-457.48 66.66,-460.92 76.64,-464.48 76.68,-457.48"/>
<text text-anchor="middle" x="162.5" y="-474" font-family="Helvetica,sans-Serif" font-size="10.00"> preoperSupress</text>
<text text-anchor="middle" x="162.5" y="-463" font-family="Helvetica,sans-Serif" font-size="10.00">toInline</text>
</g>
<!-- Node11 -->
<g id="node11" class="node">
<title>Node11</title>
<g id="a_node11"><a xlink:href="interfaceast_1_1_node.html" target="_top" xlink:title=" ">
<polygon fill="white" stroke="black" points="290,-38.5 290,-57.5 330,-57.5 330,-38.5 290,-38.5"/>
<text text-anchor="middle" x="310" y="-45.5" font-family="Helvetica,sans-Serif" font-size="10.00">Node</text>
</a>
</g>
</g>
<!-- Node11&#45;&gt;Node3 -->
<g id="edge10" class="edge">
<title>Node11&#45;&gt;Node3</title>
<path fill="none" stroke="midnightblue" d="M339.83,-53.61C373.99,-61.36 431.39,-77.9 472,-108 504.56,-132.13 532.64,-172.17 544.49,-190.41"/>
<polygon fill="midnightblue" stroke="midnightblue" points="340.53,-50.18 330.02,-51.49 339.05,-57.03 340.53,-50.18"/>
</g>
<!-- Node12 -->
<g id="node12" class="node">
<title>Node12</title>
<g id="a_node12"><a xlink:href="interfaceformat_1_1_x_formattable.html" target="_top" xlink:title="入れ子フォーマット出力可能なオブジェクトのインタフェース。">
<polygon fill="white" stroke="black" points="4,-24.5 4,-43.5 79,-43.5 79,-24.5 4,-24.5"/>
<text text-anchor="middle" x="41.5" y="-31.5" font-family="Helvetica,sans-Serif" font-size="10.00">XFormattable</text>
</a>
</g>
</g>
<!-- Node12&#45;&gt;Node11 -->
<g id="edge11" class="edge">
<title>Node12&#45;&gt;Node11</title>
<path fill="none" stroke="midnightblue" d="M89.43,-33.81C126.11,-33.96 178.36,-34.82 224,-38 246.68,-39.58 272.61,-42.84 289.81,-45.21"/>
<polygon fill="midnightblue" stroke="midnightblue" points="89.06,-30.31 79.05,-33.79 89.04,-37.31 89.06,-30.31"/>
</g>
<!-- Node13 -->
<g id="node13" class="node">
<title>Node13</title>
<g id="a_node13"><a xlink:href="interfaceformat_1_1_x_formattable_1_1_navigatable.html" target="_top" xlink:title="木構造の分岐ノードとして清書可能なオブジェクトのクラス">
<polygon fill="white" stroke="black" points="245,-76.5 245,-95.5 375,-95.5 375,-76.5 245,-76.5"/>
<text text-anchor="middle" x="310" y="-83.5" font-family="Helvetica,sans-Serif" font-size="10.00">XFormattable.Navigatable</text>
</a>
</g>
</g>
<!-- Node12&#45;&gt;Node13 -->
<g id="edge13" class="edge">
<title>Node12&#45;&gt;Node13</title>
<path fill="none" stroke="midnightblue" d="M89.12,-40.53C125.91,-45.97 178.45,-54.36 224,-64 240.85,-67.57 259.39,-72.27 274.84,-76.41"/>
<polygon fill="midnightblue" stroke="midnightblue" points="89.58,-37.06 79.18,-39.08 88.57,-43.99 89.58,-37.06"/>
</g>
<!-- Node13&#45;&gt;Node3 -->
<g id="edge12" class="edge">
<title>Node13&#45;&gt;Node3</title>
<path fill="none" stroke="midnightblue" d="M356.66,-98.3C363.84,-100.42 371.15,-102.69 378,-105 420.54,-119.36 432.72,-120.25 472,-142 497.79,-156.28 524.79,-177.94 539.44,-190.36"/>
<polygon fill="midnightblue" stroke="midnightblue" points="357.59,-94.92 347.02,-95.51 355.65,-101.65 357.59,-94.92"/>
</g>
<!-- Node14 -->
<g id="node14" class="node">
<title>Node14</title>
<g id="a_node14"><a xlink:title=" ">
<polygon fill="white" stroke="#bfbfbf" points="246,-278 246,-308 374,-308 374,-278 246,-278"/>
<text text-anchor="start" x="254" y="-296" font-family="Helvetica,sans-Serif" font-size="10.00">java.util.function.Function</text>
<text text-anchor="middle" x="310" y="-285" font-family="Helvetica,sans-Serif" font-size="10.00">&lt; ast.Node, String &gt;</text>
</a>
</g>
</g>
<!-- Node14&#45;&gt;Node3 -->
<g id="edge14" class="edge">
<title>Node14&#45;&gt;Node3</title>
<path fill="none" stroke="#9a32cd" stroke-dasharray="5,2" d="M379.05,-275.14C408.15,-266.67 442.22,-255.63 472,-243 494.89,-233.29 519.83,-218.92 535.32,-209.51"/>
<polygon fill="#9a32cd" stroke="#9a32cd" points="378.02,-271.8 369.38,-277.92 379.96,-278.52 378.02,-271.8"/>
<text text-anchor="middle" x="434" y="-272" font-family="Helvetica,sans-Serif" font-size="10.00"> printerFunc</text>
</g>
<!-- Node15 -->
<g id="node15" class="node">
<title>Node15</title>
<g id="a_node15"><a xlink:title=" ">
<polygon fill="white" stroke="#bfbfbf" points="242,-229 242,-259 378,-259 378,-229 242,-229"/>
<text text-anchor="start" x="250" y="-247" font-family="Helvetica,sans-Serif" font-size="10.00">java.util.function.Consumer</text>
<text text-anchor="middle" x="310" y="-236" font-family="Helvetica,sans-Serif" font-size="10.00">&lt; ast.Node &gt;</text>
</a>
</g>
</g>
<!-- Node15&#45;&gt;Node3 -->
<g id="edge15" class="edge">
<title>Node15&#45;&gt;Node3</title>
<path fill="none" stroke="#9a32cd" stroke-dasharray="5,2" d="M388.02,-230.3C414.64,-225.52 444.64,-220.08 472,-215 489.33,-211.78 508.78,-208.07 523.99,-205.14"/>
<polygon fill="#9a32cd" stroke="#9a32cd" points="387.23,-226.88 378,-232.09 388.46,-233.77 387.23,-226.88"/>
<text text-anchor="middle" x="434" y="-231" font-family="Helvetica,sans-Serif" font-size="10.00"> typerFunc</text>
</g>
<!-- Node16 -->
<g id="node16" class="node">
<title>Node16</title>
<g id="a_node16"><a xlink:title=" ">
<polygon fill="white" stroke="#bfbfbf" points="265,-190.5 265,-209.5 355,-209.5 355,-190.5 265,-190.5"/>
<text text-anchor="middle" x="310" y="-197.5" font-family="Helvetica,sans-Serif" font-size="10.00">List&lt; ast.Node &gt;</text>
</a>
</g>
</g>
<!-- Node16&#45;&gt;Node3 -->
<g id="edge16" class="edge">
<title>Node16&#45;&gt;Node3</title>
<path fill="none" stroke="#9a32cd" stroke-dasharray="5,2" d="M365.43,-200C414.94,-200 485.92,-200 523.98,-200"/>
<polygon fill="#9a32cd" stroke="#9a32cd" points="365.21,-196.5 355.21,-200 365.21,-203.5 365.21,-196.5"/>
<text text-anchor="middle" x="434" y="-203" font-family="Helvetica,sans-Serif" font-size="10.00"> children_</text>
</g>
<!-- Node17 -->
<g id="node17" class="node">
<title>Node17</title>
<g id="a_node17"><a xlink:title=" ">
<polygon fill="white" stroke="#bfbfbf" points="284,-152.5 284,-171.5 336,-171.5 336,-152.5 284,-152.5"/>
<text text-anchor="middle" x="310" y="-159.5" font-family="Helvetica,sans-Serif" font-size="10.00">Boolean</text>
</a>
</g>
</g>
<!-- Node17&#45;&gt;Node3 -->
<g id="edge17" class="edge">
<title>Node17&#45;&gt;Node3</title>
<path fill="none" stroke="#9a32cd" stroke-dasharray="5,2" d="M346.12,-166.53C378.79,-170.87 428.78,-177.79 472,-185 489.24,-187.88 508.53,-191.56 523.67,-194.55"/>
<polygon fill="#9a32cd" stroke="#9a32cd" points="346.53,-163.06 336.15,-165.22 345.61,-170 346.53,-163.06"/>
<text text-anchor="middle" x="434" y="-188" font-family="Helvetica,sans-Serif" font-size="10.00"> DEBUG_CHILD</text>
</g>
<!-- Node18&#45;&gt;Node3 -->
<g id="edge18" class="edge">
<title>Node18&#45;&gt;Node3</title>
<path fill="none" stroke="#9a32cd" stroke-dasharray="5,2" d="M340,-378.14C374.66,-380.33 432.87,-378.92 472,-351 522.27,-315.14 542.78,-237.19 548.62,-209.77"/>
<polygon fill="#9a32cd" stroke="#9a32cd" points="339.87,-374.62 329.63,-377.33 339.33,-381.6 339.87,-374.62"/>
<text text-anchor="middle" x="434" y="-379" font-family="Helvetica,sans-Serif" font-size="10.00"> sty</text>
</g>
<!-- Node19 -->
<g id="node19" class="node">
<title>Node19</title>
<g id="a_node19"><a xlink:href="interfacecmd_1_1_generatable_1_1_evaluatable.html" target="_top" xlink:title="評価して値を返すノードのインタフェース．必ずしもコードを生成しなくても良い．">
<polygon fill="white" stroke="black" points="490,-76.5 490,-95.5 613,-95.5 613,-76.5 490,-76.5"/>
<text text-anchor="middle" x="551.5" y="-83.5" font-family="Helvetica,sans-Serif" font-size="10.00">Generatable.Evaluatable</text>
</a>
</g>
</g>
<!-- Node19&#45;&gt;Node2 -->
<g id="edge21" class="edge">
<title>Node19&#45;&gt;Node2</title>
<path fill="none" stroke="midnightblue" d="M565,-104.25C577.69,-123.11 597.63,-153.56 613,-181 637.17,-224.15 661.72,-278 671.31,-299.5"/>
<polygon fill="midnightblue" stroke="midnightblue" points="567.75,-102.07 559.24,-95.76 561.95,-106 567.75,-102.07"/>
</g>
<!-- Node20 -->
<g id="node20" class="node">
<title>Node20</title>
<g id="a_node20"><a xlink:href="interfacecmd_1_1_generatable.html" target="_top" xlink:title="変換してコードを生成できるノードのインタフェース.">
<polygon fill="white" stroke="black" points="275.5,-0.5 275.5,-19.5 344.5,-19.5 344.5,-0.5 275.5,-0.5"/>
<text text-anchor="middle" x="310" y="-7.5" font-family="Helvetica,sans-Serif" font-size="10.00">Generatable</text>
</a>
</g>
</g>
<!-- Node20&#45;&gt;Node19 -->
<g id="edge22" class="edge">
<title>Node20&#45;&gt;Node19</title>
<path fill="none" stroke="midnightblue" d="M354.82,-14.03C387.83,-18.04 433.78,-25.74 472,-40 496.57,-49.17 522.28,-65.79 537.32,-76.34"/>
<polygon fill="midnightblue" stroke="midnightblue" points="354.92,-10.52 344.58,-12.85 354.12,-17.47 354.92,-10.52"/>
</g>
</g>
</svg>
        <g id="navigator" transform="translate(0 0)" fill="#404254">
                <rect fill="#f2f5e9" fill-opacity="0.5" stroke="#606060" stroke-width=".5" x="0" y="0" width="60" height="60"/>
                <use id="zoomplus" xlink:href="#zoomPlus" x="17" y="9" onmousedown="handleZoom(evt,'in')"/>
                <use id="zoomminus" xlink:href="#zoomMin" x="42" y="9" onmousedown="handleZoom(evt,'out')"/>
                <use id="reset" xlink:href="#resetDef" x="30" y="36" onmousedown="handleReset()"/>
                <g id="arrowUp" xlink:href="#dirArrow" transform="translate(30 24)" onmousedown="handlePan(0,-1)">
                  <use xlink:href="#rim" fill="#404040">
                        <set attributeName="fill" to="#808080" begin="arrowUp.mouseover" end="arrowUp.mouseout"/>
                  </use>
                  <path fill="none" stroke="white" stroke-width="1.5" d="M0,-3.0v7 M-2.5,-0.5L0,-3.0L2.5,-0.5"/>
                </g>
                <g id="arrowRight" xlink:href="#dirArrow" transform="rotate(90) translate(36 -43)" onmousedown="handlePan(1,0)">
                  <use xlink:href="#rim" fill="#404040">
                        <set attributeName="fill" to="#808080" begin="arrowRight.mouseover" end="arrowRight.mouseout"/>
                  </use>
                  <path fill="none" stroke="white" stroke-width="1.5" d="M0,-3.0v7 M-2.5,-0.5L0,-3.0L2.5,-0.5"/>
                </g>
                <g id="arrowDown" xlink:href="#dirArrow" transform="rotate(180) translate(-30 -48)" onmousedown="handlePan(0,1)">
                  <use xlink:href="#rim" fill="#404040">
                        <set attributeName="fill" to="#808080" begin="arrowDown.mouseover" end="arrowDown.mouseout"/>
                  </use>
                  <path fill="none" stroke="white" stroke-width="1.5" d="M0,-3.0v7 M-2.5,-0.5L0,-3.0L2.5,-0.5"/>
                </g>
                <g id="arrowLeft" xlink:href="#dirArrow" transform="rotate(270) translate(-36 17)" onmousedown="handlePan(-1,0)">
                  <use xlink:href="#rim" fill="#404040">
                        <set attributeName="fill" to="#808080" begin="arrowLeft.mouseover" end="arrowLeft.mouseout"/>
                  </use>
                  <path fill="none" stroke="white" stroke-width="1.5" d="M0,-3.0v7 M-2.5,-0.5L0,-3.0L2.5,-0.5"/>
                </g>
        </g>
        <svg viewBox="0 0 15 15" width="100%" height="30px" preserveAspectRatio="xMaxYMin meet">
         <g id="arrow_out" transform="scale(0.3 0.3)">
          <a xlink:href="classast_1_1_ast_return__coll__graph_org.svg" target="_base">
           <rect id="button" ry="5" rx="5" y="6" x="6" height="38" width="38"
                fill="#f2f5e9" fill-opacity="0.5" stroke="#606060" stroke-width="1.0"/>
           <path id="arrow"
             d="M 11.500037,31.436501 C 11.940474,20.09759 22.043105,11.32322 32.158766,21.979434 L 37.068811,17.246167 C 37.068811,17.246167 37.088388,32 37.088388,32 L 22.160133,31.978069 C 22.160133,31.978069 26.997745,27.140456 26.997745,27.140456 C 18.528582,18.264221 13.291696,25.230495 11.500037,31.436501 z"
             style="fill:#404040;"/>
          </a>
         </g>
        </svg>
</svg>
