<?xml version="1.0" encoding="UTF-8" standalone="no"?>
<!DOCTYPE svg PUBLIC "-//W3C//DTD SVG 1.1//EN"
 "http://www.w3.org/Graphics/SVG/1.1/DTD/svg11.dtd">
<!-- Generated by graphviz version 2.47.0 (20210316.0004)
 -->
<!-- Title: AstMathOper.BooleanOper Pages: 1 -->
<svg width="461pt" height="453pt"
 viewBox="0.00 0.00 461.00 453.00" xmlns="http://www.w3.org/2000/svg" xmlns:xlink="http://www.w3.org/1999/xlink">
<g id="graph0" class="graph" transform="scale(1 1) rotate(0) translate(4 449)">
<title>AstMathOper.BooleanOper</title>
<polygon fill="white" stroke="transparent" points="-4,4 -4,-449 457,-449 457,4 -4,4"/>
<!-- Node1 -->
<g id="node1" class="node">
<title>Node1</title>
<g id="a_node1"><a xlink:title=" ">
<polygon fill="#bfbfbf" stroke="black" points="201,-0.5 201,-19.5 334,-19.5 334,-0.5 201,-0.5"/>
<text text-anchor="middle" x="267.5" y="-7.5" font-family="Helvetica,sans-Serif" font-size="10.00">AstMathOper.BooleanOper</text>
</a>
</g>
</g>
<!-- Node2 -->
<g id="node2" class="node">
<title>Node2</title>
<g id="a_node2"><a xlink:href="classast_1_1_ast_math_oper_1_1_binary_oper.html" target="_top" xlink:title="end of class AstMathOper">
<polygon fill="white" stroke="black" points="114,-57.5 114,-76.5 239,-76.5 239,-57.5 114,-57.5"/>
<text text-anchor="middle" x="176.5" y="-64.5" font-family="Helvetica,sans-Serif" font-size="10.00">AstMathOper.BinaryOper</text>
</a>
</g>
</g>
<!-- Node2&#45;&gt;Node1 -->
<g id="edge1" class="edge">
<title>Node2&#45;&gt;Node1</title>
<path fill="none" stroke="midnightblue" d="M199.48,-52.11C216.45,-41.86 238.99,-28.23 253.38,-19.53"/>
<polygon fill="midnightblue" stroke="midnightblue" points="197.47,-49.24 190.72,-57.41 201.09,-55.23 197.47,-49.24"/>
</g>
<!-- Node3 -->
<g id="node3" class="node">
<title>Node3</title>
<g id="a_node3"><a xlink:href="classast_1_1_ast_math_oper.html" target="_top" xlink:title="値を返すことができるノードのクラス．一般に1個以上の子をもつ演算子である．">
<polygon fill="white" stroke="black" points="139.5,-114.5 139.5,-133.5 213.5,-133.5 213.5,-114.5 139.5,-114.5"/>
<text text-anchor="middle" x="176.5" y="-121.5" font-family="Helvetica,sans-Serif" font-size="10.00">AstMathOper</text>
</a>
</g>
</g>
<!-- Node3&#45;&gt;Node2 -->
<g id="edge2" class="edge">
<title>Node3&#45;&gt;Node2</title>
<path fill="none" stroke="midnightblue" d="M176.5,-104.12C176.5,-94.82 176.5,-84.06 176.5,-76.71"/>
<polygon fill="midnightblue" stroke="midnightblue" points="173,-104.41 176.5,-114.41 180,-104.41 173,-104.41"/>
</g>
<!-- Node4 -->
<g id="node4" class="node">
<title>Node4</title>
<g id="a_node4"><a xlink:href="classast_1_1_ast_oper.html" target="_top" xlink:title=" ">
<polygon fill="white" stroke="black" points="169,-181.5 169,-200.5 222,-200.5 222,-181.5 169,-181.5"/>
<text text-anchor="middle" x="195.5" y="-188.5" font-family="Helvetica,sans-Serif" font-size="10.00">AstOper</text>
</a>
</g>
</g>
<!-- Node4&#45;&gt;Node3 -->
<g id="edge3" class="edge">
<title>Node4&#45;&gt;Node3</title>
<path fill="none" stroke="midnightblue" d="M190.07,-171.41C186.44,-158.99 181.82,-143.22 179.02,-133.63"/>
<polygon fill="midnightblue" stroke="midnightblue" points="186.77,-172.62 192.94,-181.23 193.49,-170.65 186.77,-172.62"/>
</g>
<!-- Node5 -->
<g id="node5" class="node">
<title>Node5</title>
<g id="a_node5"><a xlink:href="classast_1_1_ast_node_branch.html" target="_top" xlink:title="タグなしの順アクセスの子供をもてる抽象構文木のノードのクラス。">
<polygon fill="white" stroke="red" points="89.5,-336.5 89.5,-355.5 175.5,-355.5 175.5,-336.5 89.5,-336.5"/>
<text text-anchor="middle" x="132.5" y="-343.5" font-family="Helvetica,sans-Serif" font-size="10.00">AstNodeBranch</text>
</a>
</g>
</g>
<!-- Node5&#45;&gt;Node4 -->
<g id="edge4" class="edge">
<title>Node5&#45;&gt;Node4</title>
<path fill="none" stroke="midnightblue" d="M139.92,-326.97C153.54,-293.91 182.01,-224.75 191.97,-200.57"/>
<polygon fill="midnightblue" stroke="midnightblue" points="136.64,-325.76 136.07,-336.34 143.11,-328.42 136.64,-325.76"/>
</g>
<!-- Node11 -->
<g id="node6" class="node">
<title>Node11</title>
<g id="a_node6"><a xlink:title=" ">
<polygon fill="white" stroke="#bfbfbf" points="0,-425.5 0,-444.5 29,-444.5 29,-425.5 0,-425.5"/>
<text text-anchor="middle" x="14.5" y="-432.5" font-family="Helvetica,sans-Serif" font-size="10.00">int</text>
</a>
</g>
</g>
<!-- Node11&#45;&gt;Node3 -->
<g id="edge10" class="edge">
<title>Node11&#45;&gt;Node3</title>
<path fill="none" stroke="#9a32cd" stroke-dasharray="5,2" d="M11.95,-415.39C10.72,-403.52 9.83,-387.81 11.5,-374 20.01,-303.58 10.21,-278.05 49.5,-219 77.15,-177.43 129.68,-147.46 157.73,-133.6"/>
<polygon fill="#9a32cd" stroke="#9a32cd" points="8.48,-415.92 13.16,-425.42 15.43,-415.07 8.48,-415.92"/>
<text text-anchor="middle" x="95" y="-310" font-family="Helvetica,sans-Serif" font-size="10.00"> PREF_ADD_TERM</text>
<text text-anchor="middle" x="95" y="-299" font-family="Helvetica,sans-Serif" font-size="10.00">PREF_AND_EXPR</text>
<text text-anchor="middle" x="95" y="-288" font-family="Helvetica,sans-Serif" font-size="10.00">PREF_BIN_OPER</text>
<text text-anchor="middle" x="95" y="-277" font-family="Helvetica,sans-Serif" font-size="10.00">PREF_BIN_REL</text>
<text text-anchor="middle" x="95" y="-266" font-family="Helvetica,sans-Serif" font-size="10.00">PREF_MUL_TERM</text>
<text text-anchor="middle" x="95" y="-255" font-family="Helvetica,sans-Serif" font-size="10.00">PREF_NOT_EXPR</text>
<text text-anchor="middle" x="95" y="-244" font-family="Helvetica,sans-Serif" font-size="10.00">PREF_NUM_SENT</text>
<text text-anchor="middle" x="95" y="-233" font-family="Helvetica,sans-Serif" font-size="10.00">PREF_OR_EXPR</text>
<text text-anchor="middle" x="95" y="-222" font-family="Helvetica,sans-Serif" font-size="10.00">PREF_PRE_TERM</text>
</g>
<!-- Node11&#45;&gt;Node5 -->
<g id="edge5" class="edge">
<title>Node11&#45;&gt;Node5</title>
<path fill="none" stroke="#9a32cd" stroke-dasharray="5,2" d="M13.71,-415.04C14.2,-401.87 17.1,-384.81 27.5,-374 43.42,-357.45 68.02,-350.55 89.4,-347.85"/>
<polygon fill="#9a32cd" stroke="#9a32cd" points="10.21,-415.38 13.76,-425.36 17.21,-415.34 10.21,-415.38"/>
<text text-anchor="middle" x="89" y="-399" font-family="Helvetica,sans-Serif" font-size="10.00"> BITMASK_PRINT_WIDTH</text>
<text text-anchor="middle" x="89" y="-388" font-family="Helvetica,sans-Serif" font-size="10.00">UNDEF</text>
<text text-anchor="middle" x="89" y="-377" font-family="Helvetica,sans-Serif" font-size="10.00">height</text>
</g>
<!-- Node17 -->
<g id="node7" class="node">
<title>Node17</title>
<g id="a_node7"><a xlink:title=" ">
<polygon fill="white" stroke="#bfbfbf" points="195.5,-425.5 195.5,-444.5 247.5,-444.5 247.5,-425.5 195.5,-425.5"/>
<text text-anchor="middle" x="221.5" y="-432.5" font-family="Helvetica,sans-Serif" font-size="10.00">Boolean</text>
</a>
</g>
</g>
<!-- Node17&#45;&gt;Node1 -->
<g id="edge12" class="edge">
<title>Node17&#45;&gt;Node1</title>
<path fill="none" stroke="#9a32cd" stroke-dasharray="5,2" d="M243.41,-418.83C247.24,-415.33 250.84,-411.34 253.5,-407 267.8,-383.65 267.5,-374.38 267.5,-347 267.5,-347 267.5,-347 267.5,-66 267.5,-49.58 267.5,-30.39 267.5,-19.57"/>
<polygon fill="#9a32cd" stroke="#9a32cd" points="241.01,-416.27 235.47,-425.3 245.43,-421.7 241.01,-416.27"/>
<text text-anchor="middle" x="285.5" y="-155" font-family="Helvetica,sans-Serif" font-size="10.00"> initEval</text>
</g>
<!-- Node17&#45;&gt;Node5 -->
<g id="edge6" class="edge">
<title>Node17&#45;&gt;Node5</title>
<path fill="none" stroke="#9a32cd" stroke-dasharray="5,2" d="M195.24,-420.33C189.07,-416.47 182.76,-411.96 177.5,-407 164.5,-394.73 165.27,-388.27 154.5,-374 149.84,-367.82 144.34,-361.07 140,-355.87"/>
<polygon fill="#9a32cd" stroke="#9a32cd" points="193.66,-423.46 204.06,-425.48 197.2,-417.42 193.66,-423.46"/>
<text text-anchor="middle" x="215.5" y="-388" font-family="Helvetica,sans-Serif" font-size="10.00"> DEBUG_CHILD</text>
</g>
<!-- Node19 -->
<g id="node8" class="node">
<title>Node19</title>
<g id="a_node8"><a xlink:href="interfacecmd_1_1_generatable_1_1_evaluatable.html" target="_top" xlink:title="評価して値を返すノードのインタフェース．必ずしもコードを生成しなくても良い．">
<polygon fill="white" stroke="black" points="296,-336.5 296,-355.5 419,-355.5 419,-336.5 296,-336.5"/>
<text text-anchor="middle" x="357.5" y="-343.5" font-family="Helvetica,sans-Serif" font-size="10.00">Generatable.Evaluatable</text>
</a>
</g>
</g>
<!-- Node19&#45;&gt;Node4 -->
<g id="edge7" class="edge">
<title>Node19&#45;&gt;Node4</title>
<path fill="none" stroke="midnightblue" d="M342.19,-329.18C318.45,-304.84 271.06,-257.06 228.5,-219 221.33,-212.58 212.93,-205.72 206.4,-200.52"/>
<polygon fill="midnightblue" stroke="midnightblue" points="339.81,-331.75 349.29,-336.48 344.83,-326.87 339.81,-331.75"/>
</g>
<!-- Node20 -->
<g id="node9" class="node">
<title>Node20</title>
<g id="a_node9"><a xlink:href="interfacecmd_1_1_generatable.html" target="_top" xlink:title="変換してコードを生成できるノードのインタフェース.">
<polygon fill="white" stroke="black" points="384,-425.5 384,-444.5 453,-444.5 453,-425.5 384,-425.5"/>
<text text-anchor="middle" x="418.5" y="-432.5" font-family="Helvetica,sans-Serif" font-size="10.00">Generatable</text>
</a>
</g>
</g>
<!-- Node20&#45;&gt;Node1 -->
<g id="edge11" class="edge">
<title>Node20&#45;&gt;Node1</title>
<path fill="none" stroke="midnightblue" d="M428.37,-415.81C436.77,-398.6 447.5,-371.79 447.5,-347 447.5,-347 447.5,-347 447.5,-66 447.5,-41.41 385.29,-26.72 334.01,-18.8"/>
<polygon fill="midnightblue" stroke="midnightblue" points="425.01,-414.69 423.55,-425.18 431.24,-417.89 425.01,-414.69"/>
</g>
<!-- Node20&#45;&gt;Node19 -->
<g id="edge8" class="edge">
<title>Node20&#45;&gt;Node19</title>
<path fill="none" stroke="midnightblue" d="M406.58,-416.99C393.65,-398.56 373.53,-369.87 363.55,-355.62"/>
<polygon fill="midnightblue" stroke="midnightblue" points="403.82,-419.16 412.43,-425.34 409.55,-415.14 403.82,-419.16"/>
</g>
<!-- Node8 -->
<g id="node10" class="node">
<title>Node8</title>
<g id="a_node10"><a xlink:title=" ">
<polygon fill="white" stroke="#bfbfbf" points="193.5,-336.5 193.5,-355.5 235.5,-355.5 235.5,-336.5 193.5,-336.5"/>
<text text-anchor="middle" x="214.5" y="-343.5" font-family="Helvetica,sans-Serif" font-size="10.00">String</text>
</a>
</g>
</g>
<!-- Node8&#45;&gt;Node4 -->
<g id="edge9" class="edge">
<title>Node8&#45;&gt;Node4</title>
<path fill="none" stroke="#9a32cd" stroke-dasharray="5,2" d="M212.15,-326.11C208.01,-292.72 199.54,-224.54 196.56,-200.57"/>
<polygon fill="#9a32cd" stroke="#9a32cd" points="208.72,-326.84 213.42,-336.34 215.66,-325.98 208.72,-326.84"/>
<text text-anchor="middle" x="217.5" y="-266" font-family="Helvetica,sans-Serif" font-size="10.00"> op</text>
</g>
</g>
</svg>
