<?xml version="1.0" encoding="UTF-8" standalone="no"?>
<!DOCTYPE svg PUBLIC "-//W3C//DTD SVG 1.1//EN"
 "http://www.w3.org/Graphics/SVG/1.1/DTD/svg11.dtd">
<!-- Generated by graphviz version 2.38.0 (20140413.2041)
 -->
<!-- Title: AstDataReader.ReaderResultBoolean Pages: 1 -->
<svg width="333pt" height="312pt"
 viewBox="0.00 0.00 332.88 312.00" xmlns="http://www.w3.org/2000/svg" xmlns:xlink="http://www.w3.org/1999/xlink">
<g id="graph0" class="graph" transform="scale(1 1) rotate(0) translate(4 308)">
<title>AstDataReader.ReaderResultBoolean</title>
<polygon fill="white" stroke="none" points="-4,4 -4,-308 328.879,-308 328.879,4 -4,4"/>
<!-- Node1 -->
<g id="node1" class="node"><title>Node1</title>
<g id="a_node1"><a xlink:title="返り値スタックのビットを読み出す参照オブジェクト">
<polygon fill="#bfbfbf" stroke="black" points="117.306,-0.5 117.306,-28.5 265.049,-28.5 265.049,-0.5 117.306,-0.5"/>
<text text-anchor="start" x="125.306" y="-16.5" font-family="Helvetica,sans-Serif" font-size="10.00">AstDataReader.ReaderResult</text>
<text text-anchor="middle" x="191.177" y="-6.5" font-family="Helvetica,sans-Serif" font-size="10.00">Boolean</text>
</a>
</g>
</g>
<!-- Node2 -->
<g id="node2" class="node"><title>Node2</title>
<g id="a_node2"><a xlink:href="classast_1_1_ast_data_reader.html" target="_top" xlink:title="値の読み出しオブジェクト．">
<polygon fill="white" stroke="black" points="94.9927,-65.5 94.9927,-83.5 179.362,-83.5 179.362,-65.5 94.9927,-65.5"/>
<text text-anchor="middle" x="137.177" y="-71.5" font-family="Helvetica,sans-Serif" font-size="10.00">AstDataReader</text>
</a>
</g>
</g>
<!-- Node2&#45;&gt;Node1 -->
<g id="edge1" class="edge"><title>Node2&#45;&gt;Node1</title>
<path fill="none" stroke="midnightblue" d="M151.727,-57.873C160.172,-48.8014 170.7,-37.4944 178.755,-28.8428"/>
<polygon fill="midnightblue" stroke="midnightblue" points="148.938,-55.7314 144.686,-65.4353 154.062,-60.5014 148.938,-55.7314"/>
</g>
<!-- Node3 -->
<g id="node3" class="node"><title>Node3</title>
<g id="a_node3"><a xlink:href="classast_1_1_ast_atom.html" target="_top" xlink:title="値型をもつ終端オブジェクトのクラス">
<polygon fill="white" stroke="black" points="52.2832,-120.5 52.2832,-138.5 106.071,-138.5 106.071,-120.5 52.2832,-120.5"/>
<text text-anchor="middle" x="79.1772" y="-126.5" font-family="Helvetica,sans-Serif" font-size="10.00">AstAtom</text>
</a>
</g>
</g>
<!-- Node3&#45;&gt;Node2 -->
<g id="edge2" class="edge"><title>Node3&#45;&gt;Node2</title>
<path fill="none" stroke="midnightblue" d="M95.7056,-113.397C106.335,-103.683 119.726,-91.4466 128.368,-83.5496"/>
<polygon fill="midnightblue" stroke="midnightblue" points="93.2609,-110.889 88.2397,-120.219 97.9829,-116.057 93.2609,-110.889"/>
</g>
<!-- Node4 -->
<g id="node4" class="node"><title>Node4</title>
<g id="a_node4"><a xlink:href="classast_1_1_ast_terminal.html" target="_top" xlink:title="値型をもたない終端オブジェクトのクラス">
<polygon fill="white" stroke="black" points="41.0591,-175.5 41.0591,-193.5 109.295,-193.5 109.295,-175.5 41.0591,-175.5"/>
<text text-anchor="middle" x="75.1772" y="-181.5" font-family="Helvetica,sans-Serif" font-size="10.00">AstTerminal</text>
</a>
</g>
</g>
<!-- Node4&#45;&gt;Node3 -->
<g id="edge3" class="edge"><title>Node4&#45;&gt;Node3</title>
<path fill="none" stroke="midnightblue" d="M76.5603,-165.175C77.2456,-156.094 78.038,-145.595 78.5697,-138.55"/>
<polygon fill="midnightblue" stroke="midnightblue" points="73.0648,-164.984 75.8022,-175.219 80.045,-165.511 73.0648,-164.984"/>
</g>
<!-- Node5 -->
<g id="node5" class="node"><title>Node5</title>
<g id="a_node5"><a xlink:href="classast_1_1_ast_node.html" target="_top" xlink:title=" ">
<polygon fill="white" stroke="black" points="0,-230.5 0,-248.5 54.3545,-248.5 54.3545,-230.5 0,-230.5"/>
<text text-anchor="middle" x="27.1772" y="-236.5" font-family="Helvetica,sans-Serif" font-size="10.00">AstNode</text>
</a>
</g>
</g>
<!-- Node5&#45;&gt;Node4 -->
<g id="edge4" class="edge"><title>Node5&#45;&gt;Node4</title>
<path fill="none" stroke="midnightblue" d="M41.6378,-222.533C50.3012,-212.967 60.9454,-201.214 67.8871,-193.55"/>
<polygon fill="midnightblue" stroke="midnightblue" points="38.7958,-220.457 34.6772,-230.219 43.9843,-225.156 38.7958,-220.457"/>
</g>
<!-- Node6 -->
<g id="node6" class="node"><title>Node6</title>
<g id="a_node6"><a xlink:href="interfaceformat_1_1_x_formattable.html" target="_top" xlink:title="入れ子フォーマット出力可能なオブジェクトのインタフェース。">
<polygon fill="white" stroke="black" points="102.165,-285.5 102.165,-303.5 178.189,-303.5 178.189,-285.5 102.165,-285.5"/>
<text text-anchor="middle" x="140.177" y="-291.5" font-family="Helvetica,sans-Serif" font-size="10.00">XFormattable</text>
</a>
</g>
</g>
<!-- Node6&#45;&gt;Node5 -->
<g id="edge5" class="edge"><title>Node6&#45;&gt;Node5</title>
<path fill="none" stroke="midnightblue" d="M113.842,-281.148C92.4821,-271.13 62.9836,-257.294 44.501,-248.625"/>
<polygon fill="midnightblue" stroke="midnightblue" points="112.475,-284.373 123.015,-285.45 115.448,-278.035 112.475,-284.373"/>
</g>
<!-- Node7 -->
<g id="node7" class="node"><title>Node7</title>
<g id="a_node7"><a xlink:href="interfaceformat_1_1_x_formattable_1_1_terminatable.html" target="_top" xlink:title="木構造の終端として清書可能なオブジェクトのクラス">
<polygon fill="white" stroke="black" points="72.1504,-230.5 72.1504,-248.5 208.204,-248.5 208.204,-230.5 72.1504,-230.5"/>
<text text-anchor="middle" x="140.177" y="-236.5" font-family="Helvetica,sans-Serif" font-size="10.00">XFormattable.Terminatable</text>
</a>
</g>
</g>
<!-- Node6&#45;&gt;Node7 -->
<g id="edge7" class="edge"><title>Node6&#45;&gt;Node7</title>
<path fill="none" stroke="midnightblue" d="M140.177,-275.175C140.177,-266.094 140.177,-255.595 140.177,-248.55"/>
<polygon fill="midnightblue" stroke="midnightblue" points="136.677,-275.219 140.177,-285.219 143.677,-275.219 136.677,-275.219"/>
</g>
<!-- Node8 -->
<g id="node8" class="node"><title>Node8</title>
<g id="a_node8"><a xlink:href="interfaceformat_1_1_x_formattable_1_1_typed_formattable.html" target="_top" xlink:title="ノードの型情報をもつ書式出力可能なオブジェクトのインタフェース．">
<polygon fill="white" stroke="black" points="165.476,-175.5 165.476,-193.5 324.879,-193.5 324.879,-175.5 165.476,-175.5"/>
<text text-anchor="middle" x="245.177" y="-181.5" font-family="Helvetica,sans-Serif" font-size="10.00">XFormattable.TypedFormattable</text>
</a>
</g>
</g>
<!-- Node6&#45;&gt;Node8 -->
<g id="edge10" class="edge"><title>Node6&#45;&gt;Node8</title>
<path fill="none" stroke="midnightblue" d="M171.146,-281.165C186.603,-273.741 204.628,-262.993 217.177,-249 231.978,-232.495 239.968,-206.912 243.291,-193.827"/>
<polygon fill="midnightblue" stroke="midnightblue" points="169.581,-278.032 161.927,-285.358 172.478,-284.404 169.581,-278.032"/>
</g>
<!-- Node7&#45;&gt;Node2 -->
<g id="edge8" class="edge"><title>Node7&#45;&gt;Node2</title>
<path fill="none" stroke="midnightblue" d="M139.834,-219.841C139.181,-184.362 137.784,-108.492 137.326,-83.5971"/>
<polygon fill="midnightblue" stroke="midnightblue" points="136.341,-220.259 140.024,-230.193 143.34,-220.13 136.341,-220.259"/>
</g>
<!-- Node7&#45;&gt;Node4 -->
<g id="edge6" class="edge"><title>Node7&#45;&gt;Node4</title>
<path fill="none" stroke="midnightblue" d="M122.303,-223.926C110.329,-214.162 95.0076,-201.669 85.1423,-193.625"/>
<polygon fill="midnightblue" stroke="midnightblue" points="120.343,-226.844 130.305,-230.45 124.767,-221.418 120.343,-226.844"/>
</g>
<!-- Node8&#45;&gt;Node2 -->
<g id="edge9" class="edge"><title>Node8&#45;&gt;Node2</title>
<path fill="none" stroke="midnightblue" d="M229.749,-168.071C206.522,-144.845 163.381,-101.704 145.389,-83.7118"/>
<polygon fill="midnightblue" stroke="midnightblue" points="227.514,-170.786 237.06,-175.382 232.463,-165.836 227.514,-170.786"/>
</g>
<!-- Node9 -->
<g id="node9" class="node"><title>Node9</title>
<g id="a_node9"><a xlink:href="class_evaluable_boolean.html" target="_top" xlink:title=" ">
<polygon fill="white" stroke="black" points="196.867,-65.5 196.867,-83.5 293.487,-83.5 293.487,-65.5 196.867,-65.5"/>
<text text-anchor="middle" x="245.177" y="-71.5" font-family="Helvetica,sans-Serif" font-size="10.00">EvaluableBoolean</text>
</a>
</g>
</g>
<!-- Node9&#45;&gt;Node1 -->
<g id="edge11" class="edge"><title>Node9&#45;&gt;Node1</title>
<path fill="none" stroke="midnightblue" d="M230.628,-57.873C222.182,-48.8014 211.655,-37.4944 203.6,-28.8428"/>
<polygon fill="midnightblue" stroke="midnightblue" points="228.293,-60.5014 237.669,-65.4353 233.416,-55.7314 228.293,-60.5014"/>
</g>
</g>
</svg>
