<?xml version="1.0" encoding="UTF-8" standalone="no"?>
<!DOCTYPE svg PUBLIC "-//W3C//DTD SVG 1.1//EN"
 "http://www.w3.org/Graphics/SVG/1.1/DTD/svg11.dtd">
<!-- Generated by graphviz version 2.47.0 (20210316.0004)
 -->
<!-- Title: createRootStep Pages: 1 -->
<svg width="274pt" height="66pt"
 viewBox="0.00 0.00 274.00 66.00" xmlns="http://www.w3.org/2000/svg" xmlns:xlink="http://www.w3.org/1999/xlink">
<g id="graph0" class="graph" transform="scale(1 1) rotate(0) translate(4 62)">
<title>createRootStep</title>
<polygon fill="white" stroke="transparent" points="-4,4 -4,-62 270,-62 270,4 -4,4"/>
<!-- Node1 -->
<g id="node1" class="node">
<title>Node1</title>
<g id="a_node1"><a xlink:title="与えられたブロックを子にもつ、走査の根ステップのクラスを返すファクトリ手続き。">
<polygon fill="#bfbfbf" stroke="black" points="0,-19.5 0,-38.5 85,-38.5 85,-19.5 0,-19.5"/>
<text text-anchor="middle" x="42.5" y="-26.5" font-family="Helvetica,sans-Serif" font-size="10.00">createRootStep</text>
</a>
</g>
</g>
<!-- Node2 -->
<g id="node2" class="node">
<title>Node2</title>
<g id="a_node2"><a xlink:href="classmachine_1_1_program.html#a5788cfd9f521da781e600b8a94bae589" target="_top" xlink:title="global container for RIDs">
<polygon fill="white" stroke="black" points="121,-38.5 121,-57.5 266,-57.5 266,-38.5 121,-38.5"/>
<text text-anchor="middle" x="193.5" y="-45.5" font-family="Helvetica,sans-Serif" font-size="10.00">machine.Program.getNewRid</text>
</a>
</g>
</g>
<!-- Node1&#45;&gt;Node2 -->
<g id="edge1" class="edge">
<title>Node1&#45;&gt;Node2</title>
<path fill="none" stroke="midnightblue" d="M85,-34.29C93.14,-35.33 101.93,-36.45 110.86,-37.59"/>
<polygon fill="midnightblue" stroke="midnightblue" points="110.61,-41.09 120.97,-38.88 111.49,-34.14 110.61,-41.09"/>
</g>
<!-- Node3 -->
<g id="node3" class="node">
<title>Node3</title>
<g id="a_node3"><a xlink:href="classast_1_1_step_rule.html#af73d34a3b985a0cac0734fa957fbd03a" target="_top" xlink:title="空なルールを生成する.">
<polygon fill="white" stroke="black" points="165,-0.5 165,-19.5 222,-19.5 222,-0.5 165,-0.5"/>
<text text-anchor="middle" x="193.5" y="-7.5" font-family="Helvetica,sans-Serif" font-size="10.00">StepRule</text>
</a>
</g>
</g>
<!-- Node1&#45;&gt;Node3 -->
<g id="edge2" class="edge">
<title>Node1&#45;&gt;Node3</title>
<path fill="none" stroke="midnightblue" d="M85,-23.71C106.91,-20.91 133.58,-17.51 154.88,-14.8"/>
<polygon fill="midnightblue" stroke="midnightblue" points="155.38,-18.26 164.86,-13.53 154.49,-11.32 155.38,-18.26"/>
</g>
</g>
</svg>
