<?xml version="1.0" encoding="UTF-8" standalone="no"?>
<!DOCTYPE svg PUBLIC "-//W3C//DTD SVG 1.1//EN"
 "http://www.w3.org/Graphics/SVG/1.1/DTD/svg11.dtd">
<!-- Generated by graphviz version 2.47.0 (20210316.0004)
 -->
<!-- Title: CommandBase Pages: 1 -->
<!--zoomable 956 -->
<svg id="main" version="1.1" xmlns="http://www.w3.org/2000/svg" xmlns:xlink="http://www.w3.org/1999/xlink" xml:space="preserve" onload="init(evt)">
<style type="text/css"><![CDATA[
.edge:hover path { stroke: red; }
.edge:hover polygon { stroke: red; fill: red; }
]]></style>
<script type="text/javascript"><![CDATA[
var edges = document.getElementsByTagName('g');
if (edges && edges.length) {
  for (var i=0;i<edges.length;i++) {
    if (edges[i].id.substr(0,4)=='edge') {
      edges[i].setAttribute('class','edge');
    }
  }
}
]]></script>
        <defs>
                <circle id="rim" cx="0" cy="0" r="7"/>
                <circle id="rim2" cx="0" cy="0" r="3.5"/>
                <g id="zoomPlus">
                        <use xlink:href="#rim" fill="#404040">
                                <set attributeName="fill" to="#808080" begin="zoomplus.mouseover" end="zoomplus.mouseout"/>
                        </use>
                        <path d="M-4,0h8M0,-4v8" fill="none" stroke="white" stroke-width="1.5" pointer-events="none"/>
                </g>
                <g id="zoomMin">
                        <use xlink:href="#rim" fill="#404040">
                                <set attributeName="fill" to="#808080" begin="zoomminus.mouseover" end="zoomminus.mouseout"/>
                        </use>
                        <path d="M-4,0h8" fill="none" stroke="white" stroke-width="1.5" pointer-events="none"/>
                </g>
                <g id="dirArrow">
                        <path fill="none" stroke="white" stroke-width="1.5" d="M0,-3.0v7 M-2.5,-0.5L0,-3.0L2.5,-0.5"/>
                </g>
               <g id="resetDef">
                       <use xlink:href="#rim2" fill="#404040">
                               <set attributeName="fill" to="#808080" begin="reset.mouseover" end="reset.mouseout"/>
                       </use>
               </g>
        </defs>

<script type="text/javascript">
var viewWidth = 1031;
var viewHeight = 956;
var sectionId = 'dynsection-0';
</script>
<script xlink:href="svgpan.js"/>
<svg id="graph" class="graph">
<g id="viewport">
<title>CommandBase</title>
<polygon fill="white" stroke="transparent" points="-4,4 -4,-951.5 1027,-951.5 1027,4 -4,4"/>
<!-- Node1 -->
<g id="node1" class="node">
<title>Node1</title>
<g id="a_node1"><a xlink:title="局所変数環境に値を書き込む式の抽象クラス.">
<polygon fill="#bfbfbf" stroke="black" points="311,-498 311,-517 395,-517 395,-498 311,-498"/>
<text text-anchor="middle" x="353" y="-505" font-family="Helvetica,sans-Serif" font-size="10.00">CommandBase</text>
</a>
</g>
</g>
<!-- Node5 -->
<g id="node5" class="node">
<title>Node5</title>
<g id="a_node5"><a xlink:href="classcmd_1_1_command_base_1_1_cmd_get_text.html" target="_top" xlink:title="テキスト読み出し命令: 終端ノードのテキスト値を返す．">
<polygon fill="white" stroke="black" points="449,-928 449,-947 592,-947 592,-928 449,-928"/>
<text text-anchor="middle" x="520.5" y="-935" font-family="Helvetica,sans-Serif" font-size="10.00">CommandBase.CmdGetText</text>
</a>
</g>
</g>
<!-- Node1&#45;&gt;Node5 -->
<g id="edge4" class="edge">
<title>Node1&#45;&gt;Node5</title>
<path fill="none" stroke="midnightblue" d="M354.9,-527.41C358.65,-601.75 375.59,-861.61 431,-918.5 436.04,-923.68 442.13,-927.61 448.73,-930.57"/>
<polygon fill="midnightblue" stroke="midnightblue" points="358.38,-526.96 354.4,-517.14 351.39,-527.29 358.38,-526.96"/>
</g>
<!-- Node6 -->
<g id="node6" class="node">
<title>Node6</title>
<g id="a_node6"><a xlink:href="classcmd_1_1_command_base_1_1_cmd_h_a_l_t.html" target="_top" xlink:title="停止のマーカーになる命令">
<polygon fill="white" stroke="black" points="453.5,-890 453.5,-909 587.5,-909 587.5,-890 453.5,-890"/>
<text text-anchor="middle" x="520.5" y="-897" font-family="Helvetica,sans-Serif" font-size="10.00">CommandBase.CmdHALT</text>
</a>
</g>
</g>
<!-- Node1&#45;&gt;Node6 -->
<g id="edge5" class="edge">
<title>Node1&#45;&gt;Node6</title>
<path fill="none" stroke="midnightblue" d="M355.3,-527.36C360.29,-597.14 380.49,-829.59 431,-880.5 437.2,-886.75 444.92,-891.17 453.2,-894.27"/>
<polygon fill="midnightblue" stroke="midnightblue" points="358.79,-527.01 354.61,-517.28 351.8,-527.5 358.79,-527.01"/>
</g>
<!-- Node7 -->
<g id="node7" class="node">
<title>Node7</title>
<g id="a_node7"><a xlink:href="classcmd_1_1_command_base_1_1_cmd_in_file_open.html" target="_top" xlink:title="入力ファイルを開き、そのファイル記述子をスタックへ積む。">
<polygon fill="white" stroke="black" points="443,-852 443,-871 598,-871 598,-852 443,-852"/>
<text text-anchor="middle" x="520.5" y="-859" font-family="Helvetica,sans-Serif" font-size="10.00">CommandBase.CmdInFileOpen</text>
</a>
</g>
</g>
<!-- Node1&#45;&gt;Node7 -->
<g id="edge6" class="edge">
<title>Node1&#45;&gt;Node7</title>
<path fill="none" stroke="midnightblue" d="M355.81,-527.41C362.14,-592.52 385.39,-797.55 431,-842.5 434.81,-846.25 439.16,-849.34 443.85,-851.88"/>
<polygon fill="midnightblue" stroke="midnightblue" points="359.28,-526.89 354.85,-517.26 352.31,-527.54 359.28,-526.89"/>
</g>
<!-- Node8 -->
<g id="node8" class="node">
<title>Node8</title>
<g id="a_node8"><a xlink:href="classcmd_1_1_command_base_1_1_cmd_inc_m_a_t_c_h.html" target="_top" xlink:title="何もしない命令．">
<polygon fill="white" stroke="black" points="442,-814 442,-833 599,-833 599,-814 442,-814"/>
<text text-anchor="middle" x="520.5" y="-821" font-family="Helvetica,sans-Serif" font-size="10.00">CommandBase.CmdIncMATCH</text>
</a>
</g>
</g>
<!-- Node1&#45;&gt;Node8 -->
<g id="edge7" class="edge">
<title>Node1&#45;&gt;Node8</title>
<path fill="none" stroke="midnightblue" d="M356.42,-526.99C364.22,-586.52 390.5,-764.29 431,-803.5 435.41,-807.77 440.54,-811.21 446.05,-813.96"/>
<polygon fill="midnightblue" stroke="midnightblue" points="359.89,-526.5 355.15,-517.02 352.95,-527.39 359.89,-526.5"/>
</g>
<!-- Node9 -->
<g id="node9" class="node">
<title>Node9</title>
<g id="a_node9"><a xlink:href="classcmd_1_1_command_base_1_1_cmd_int_in_stream_const.html" target="_top" xlink:title="ファイル記述子をスタックへ積む。">
<polygon fill="white" stroke="black" points="441,-764.5 441,-794.5 600,-794.5 600,-764.5 441,-764.5"/>
<text text-anchor="start" x="449" y="-782.5" font-family="Helvetica,sans-Serif" font-size="10.00">CommandBase.CmdIntInStream</text>
<text text-anchor="middle" x="520.5" y="-771.5" font-family="Helvetica,sans-Serif" font-size="10.00">Const</text>
</a>
</g>
</g>
<!-- Node1&#45;&gt;Node9 -->
<g id="edge8" class="edge">
<title>Node1&#45;&gt;Node9</title>
<path fill="none" stroke="midnightblue" d="M354.16,-527.46C355.64,-574.14 366.02,-691.24 431,-754.5 435,-758.4 439.57,-761.7 444.46,-764.49"/>
<polygon fill="midnightblue" stroke="midnightblue" points="357.65,-527.11 353.94,-517.19 350.65,-527.26 357.65,-527.11"/>
</g>
<!-- Node10 -->
<g id="node10" class="node">
<title>Node10</title>
<g id="a_node10"><a xlink:href="classcmd_1_1_command_base_1_1_cmd_l_a_b_e_l.html" target="_top" xlink:title="何もしない命令．">
<polygon fill="white" stroke="black" points="451,-726 451,-745 590,-745 590,-726 451,-726"/>
<text text-anchor="middle" x="520.5" y="-733" font-family="Helvetica,sans-Serif" font-size="10.00">CommandBase.CmdLABEL</text>
</a>
</g>
</g>
<!-- Node1&#45;&gt;Node10 -->
<g id="edge9" class="edge">
<title>Node1&#45;&gt;Node10</title>
<path fill="none" stroke="midnightblue" d="M355.17,-527.19C358.75,-568.88 373.21,-666.36 431,-716.5 436.82,-721.55 443.65,-725.36 450.89,-728.22"/>
<polygon fill="midnightblue" stroke="midnightblue" points="358.66,-526.92 354.43,-517.2 351.68,-527.43 358.66,-526.92"/>
</g>
<!-- Node11 -->
<g id="node11" class="node">
<title>Node11</title>
<g id="a_node11"><a xlink:href="classcmd_1_1_command_base_1_1_cmd_n_o_p.html" target="_top" xlink:title="何もしない命令．">
<polygon fill="white" stroke="black" points="455.5,-688 455.5,-707 585.5,-707 585.5,-688 455.5,-688"/>
<text text-anchor="middle" x="520.5" y="-695" font-family="Helvetica,sans-Serif" font-size="10.00">CommandBase.CmdNOP</text>
</a>
</g>
</g>
<!-- Node1&#45;&gt;Node11 -->
<g id="edge10" class="edge">
<title>Node1&#45;&gt;Node11</title>
<path fill="none" stroke="midnightblue" d="M356.99,-527.25C363.52,-563.23 382.55,-639.36 431,-678.5 438.09,-684.23 446.51,-688.34 455.29,-691.26"/>
<polygon fill="midnightblue" stroke="midnightblue" points="360.39,-526.36 355.28,-517.07 353.48,-527.51 360.39,-526.36"/>
</g>
<!-- Node13 -->
<g id="node13" class="node">
<title>Node13</title>
<g id="a_node13"><a xlink:href="classcmd_1_1_command_base_1_1_cmd_scan_loop.html" target="_top" xlink:title="スタックからファイル記述子をとり、その入力ストリームを走査する。">
<polygon fill="white" stroke="black" points="444.5,-650 444.5,-669 596.5,-669 596.5,-650 444.5,-650"/>
<text text-anchor="middle" x="520.5" y="-657" font-family="Helvetica,sans-Serif" font-size="10.00">CommandBase.CmdScanLoop</text>
</a>
</g>
</g>
<!-- Node1&#45;&gt;Node13 -->
<g id="edge12" class="edge">
<title>Node1&#45;&gt;Node13</title>
<path fill="none" stroke="midnightblue" d="M359.63,-526.93C369.21,-556.36 391.58,-611.84 431,-640.5 436.21,-644.29 442.02,-647.35 448.11,-649.82"/>
<polygon fill="midnightblue" stroke="midnightblue" points="362.87,-525.56 356.58,-517.04 356.18,-527.63 362.87,-525.56"/>
</g>
<!-- Node14 -->
<g id="node14" class="node">
<title>Node14</title>
<g id="a_node14"><a xlink:href="classcmd_1_1_command_base_1_1_command_jump_base.html" target="_top" xlink:title="無条件ジャンプの命令">
<polygon fill="white" stroke="black" points="431,-612 431,-631 610,-631 610,-612 431,-612"/>
<text text-anchor="middle" x="520.5" y="-619" font-family="Helvetica,sans-Serif" font-size="10.00">CommandBase.CommandJumpBase</text>
</a>
</g>
</g>
<!-- Node1&#45;&gt;Node14 -->
<g id="edge13" class="edge">
<title>Node1&#45;&gt;Node14</title>
<path fill="none" stroke="midnightblue" d="M363.82,-526.08C376.39,-547.93 400.25,-583.62 431,-602.5 437.29,-606.36 444.26,-609.45 451.44,-611.91"/>
<polygon fill="midnightblue" stroke="midnightblue" points="366.77,-524.17 358.86,-517.12 360.65,-527.57 366.77,-524.17"/>
</g>
<!-- Node20 -->
<g id="node20" class="node">
<title>Node20</title>
<g id="a_node20"><a xlink:href="classcmd_1_1_command_base_1_1_command_ref.html" target="_top" xlink:title=" ">
<polygon fill="white" stroke="black" points="446.5,-574 446.5,-593 594.5,-593 594.5,-574 446.5,-574"/>
<text text-anchor="middle" x="520.5" y="-581" font-family="Helvetica,sans-Serif" font-size="10.00">CommandBase.CommandRef</text>
</a>
</g>
</g>
<!-- Node1&#45;&gt;Node20 -->
<g id="edge19" class="edge">
<title>Node1&#45;&gt;Node20</title>
<path fill="none" stroke="midnightblue" d="M371.84,-524.19C386.6,-537.1 408.7,-554.42 431,-564.5 439.59,-568.38 449.02,-571.49 458.42,-573.97"/>
<polygon fill="midnightblue" stroke="midnightblue" points="373.82,-521.27 364.04,-517.19 369.14,-526.48 373.82,-521.27"/>
</g>
<!-- Node25 -->
<g id="node25" class="node">
<title>Node25</title>
<g id="a_node25"><a xlink:href="classcmd_1_1_command_boolean_1_1_cmd_bool_and.html" target="_top" xlink:title="論理積命令">
<polygon fill="white" stroke="black" points="441.5,-536 441.5,-555 599.5,-555 599.5,-536 441.5,-536"/>
<text text-anchor="middle" x="520.5" y="-543" font-family="Helvetica,sans-Serif" font-size="10.00">CommandBoolean.CmdBoolAnd</text>
</a>
</g>
</g>
<!-- Node1&#45;&gt;Node25 -->
<g id="edge24" class="edge">
<title>Node1&#45;&gt;Node25</title>
<path fill="none" stroke="midnightblue" d="M401.49,-519.46C411.24,-521.85 421.44,-524.29 431,-526.5 444.78,-529.68 459.81,-532.97 473.51,-535.9"/>
<polygon fill="midnightblue" stroke="midnightblue" points="402.09,-516 391.54,-517.01 400.41,-522.8 402.09,-516"/>
</g>
<!-- Node26 -->
<g id="node26" class="node">
<title>Node26</title>
<g id="a_node26"><a xlink:href="classcmd_1_1_command_boolean_1_1_cmd_bool_not.html" target="_top" xlink:title="論理否定命令">
<polygon fill="white" stroke="black" points="442.5,-498 442.5,-517 598.5,-517 598.5,-498 442.5,-498"/>
<text text-anchor="middle" x="520.5" y="-505" font-family="Helvetica,sans-Serif" font-size="10.00">CommandBoolean.CmdBoolNot</text>
</a>
</g>
</g>
<!-- Node1&#45;&gt;Node26 -->
<g id="edge25" class="edge">
<title>Node1&#45;&gt;Node26</title>
<path fill="none" stroke="midnightblue" d="M405.34,-507.5C417.05,-507.5 429.75,-507.5 442.27,-507.5"/>
<polygon fill="midnightblue" stroke="midnightblue" points="405.34,-504 395.34,-507.5 405.34,-511 405.34,-504"/>
</g>
<!-- Node27 -->
<g id="node27" class="node">
<title>Node27</title>
<g id="a_node27"><a xlink:href="classcmd_1_1_command_boolean_1_1_cmd_bool_opr.html" target="_top" xlink:title="論理二項演算命令">
<polygon fill="white" stroke="black" points="442.5,-460 442.5,-479 598.5,-479 598.5,-460 442.5,-460"/>
<text text-anchor="middle" x="520.5" y="-467" font-family="Helvetica,sans-Serif" font-size="10.00">CommandBoolean.CmdBoolOpr</text>
</a>
</g>
</g>
<!-- Node1&#45;&gt;Node27 -->
<g id="edge26" class="edge">
<title>Node1&#45;&gt;Node27</title>
<path fill="none" stroke="midnightblue" d="M401.49,-495.54C411.24,-493.15 421.44,-490.71 431,-488.5 444.78,-485.32 459.81,-482.03 473.51,-479.1"/>
<polygon fill="midnightblue" stroke="midnightblue" points="400.41,-492.2 391.54,-497.99 402.09,-499 400.41,-492.2"/>
</g>
<!-- Node28 -->
<g id="node28" class="node">
<title>Node28</title>
<g id="a_node28"><a xlink:href="classcmd_1_1_command_boolean_1_1_cmd_bool_or.html" target="_top" xlink:title="論理和命令">
<polygon fill="white" stroke="black" points="445,-422 445,-441 596,-441 596,-422 445,-422"/>
<text text-anchor="middle" x="520.5" y="-429" font-family="Helvetica,sans-Serif" font-size="10.00">CommandBoolean.CmdBoolOr</text>
</a>
</g>
</g>
<!-- Node1&#45;&gt;Node28 -->
<g id="edge27" class="edge">
<title>Node1&#45;&gt;Node28</title>
<path fill="none" stroke="midnightblue" d="M371.84,-490.81C386.6,-477.9 408.7,-460.58 431,-450.5 439.59,-446.62 449.02,-443.51 458.42,-441.03"/>
<polygon fill="midnightblue" stroke="midnightblue" points="369.14,-488.52 364.04,-497.81 373.82,-493.73 369.14,-488.52"/>
</g>
<!-- Node29 -->
<g id="node29" class="node">
<title>Node29</title>
<g id="a_node29"><a xlink:href="classcmd_1_1_command_string_1_1_cmd_o_stream_store.html" target="_top" xlink:title="文字列変数にスタックトップの文字列を代入する．">
<polygon fill="white" stroke="black" points="445.5,-372.5 445.5,-402.5 595.5,-402.5 595.5,-372.5 445.5,-372.5"/>
<text text-anchor="start" x="453.5" y="-390.5" font-family="Helvetica,sans-Serif" font-size="10.00">CommandString.CmdOStream</text>
<text text-anchor="middle" x="520.5" y="-379.5" font-family="Helvetica,sans-Serif" font-size="10.00">Store</text>
</a>
</g>
</g>
<!-- Node1&#45;&gt;Node29 -->
<g id="edge28" class="edge">
<title>Node1&#45;&gt;Node29</title>
<path fill="none" stroke="midnightblue" d="M364.23,-488.92C377.05,-467.36 401.02,-432.25 431,-412.5 436.87,-408.64 443.33,-405.36 450.01,-402.59"/>
<polygon fill="midnightblue" stroke="midnightblue" points="361.09,-487.35 359.14,-497.77 367.16,-490.84 361.09,-487.35"/>
</g>
<!-- Node30 -->
<g id="node30" class="node">
<title>Node30</title>
<g id="a_node30"><a xlink:href="classcmd_1_1_command_string_1_1_cmd_str_add.html" target="_top" xlink:title="文字列加算命令">
<polygon fill="white" stroke="black" points="450,-334 450,-353 591,-353 591,-334 450,-334"/>
<text text-anchor="middle" x="520.5" y="-341" font-family="Helvetica,sans-Serif" font-size="10.00">CommandString.CmdStrAdd</text>
</a>
</g>
</g>
<!-- Node1&#45;&gt;Node30 -->
<g id="edge29" class="edge">
<title>Node1&#45;&gt;Node30</title>
<path fill="none" stroke="midnightblue" d="M358.63,-488.11C367.21,-456.56 388.69,-394.47 431,-362.5 436.64,-358.24 443.04,-354.89 449.74,-352.26"/>
<polygon fill="midnightblue" stroke="midnightblue" points="355.21,-487.33 356.12,-497.89 361.99,-489.07 355.21,-487.33"/>
</g>
<!-- Node31 -->
<g id="node31" class="node">
<title>Node31</title>
<g id="a_node31"><a xlink:href="classcmd_1_1_command_string_1_1_cmd_str_regex_match.html" target="_top" xlink:title="正規表現照合命令">
<polygon fill="white" stroke="black" points="444.5,-284.5 444.5,-314.5 596.5,-314.5 596.5,-284.5 444.5,-284.5"/>
<text text-anchor="start" x="452.5" y="-302.5" font-family="Helvetica,sans-Serif" font-size="10.00">CommandString.CmdStrRegex</text>
<text text-anchor="middle" x="520.5" y="-291.5" font-family="Helvetica,sans-Serif" font-size="10.00">Match</text>
</a>
</g>
</g>
<!-- Node1&#45;&gt;Node31 -->
<g id="edge30" class="edge">
<title>Node1&#45;&gt;Node31</title>
<path fill="none" stroke="midnightblue" d="M356.64,-487.73C362.7,-450.23 381.15,-368.57 431,-324.5 435.31,-320.69 440.15,-317.46 445.3,-314.72"/>
<polygon fill="midnightblue" stroke="midnightblue" points="353.14,-487.46 355.13,-497.86 360.06,-488.48 353.14,-487.46"/>
</g>
<!-- Node32 -->
<g id="node32" class="node">
<title>Node32</title>
<g id="a_node32"><a xlink:href="classcmd_1_1_command_string_1_1_cmd_str_string_match.html" target="_top" xlink:title="部分文字列照合命令">
<polygon fill="white" stroke="black" points="446,-235.5 446,-265.5 595,-265.5 595,-235.5 446,-235.5"/>
<text text-anchor="start" x="454" y="-253.5" font-family="Helvetica,sans-Serif" font-size="10.00">CommandString.CmdStrString</text>
<text text-anchor="middle" x="520.5" y="-242.5" font-family="Helvetica,sans-Serif" font-size="10.00">Match</text>
</a>
</g>
</g>
<!-- Node1&#45;&gt;Node32 -->
<g id="edge31" class="edge">
<title>Node1&#45;&gt;Node32</title>
<path fill="none" stroke="midnightblue" d="M354.54,-487.71C356.87,-442.94 368.97,-333.25 431,-274.5 435.39,-270.34 440.43,-266.89 445.83,-264.02"/>
<polygon fill="midnightblue" stroke="midnightblue" points="351.04,-487.71 354.13,-497.84 358.03,-487.99 351.04,-487.71"/>
</g>
<!-- Node33 -->
<g id="node33" class="node">
<title>Node33</title>
<g id="a_node33"><a xlink:href="classcmd_1_1_command_string_1_1_cmd_str_sys_var_load.html" target="_top" xlink:title="スタックトップにシステム変数値を取り出す．">
<polygon fill="white" stroke="black" points="432.5,-197 432.5,-216 608.5,-216 608.5,-197 432.5,-197"/>
<text text-anchor="middle" x="520.5" y="-204" font-family="Helvetica,sans-Serif" font-size="10.00">CommandString.CmdStrSysVarLoad</text>
</a>
</g>
</g>
<!-- Node1&#45;&gt;Node33 -->
<g id="edge32" class="edge">
<title>Node1&#45;&gt;Node33</title>
<path fill="none" stroke="midnightblue" d="M356.7,-487.78C365.04,-429.91 392.12,-262.29 431,-225.5 434.99,-221.72 439.55,-218.62 444.44,-216.08"/>
<polygon fill="midnightblue" stroke="midnightblue" points="353.22,-487.43 355.29,-497.82 360.15,-488.41 353.22,-487.43"/>
</g>
<!-- Node34 -->
<g id="node34" class="node">
<title>Node34</title>
<g id="a_node34"><a xlink:href="classcmd_1_1_command_typed_1_1_cmd_conv.html" target="_top" xlink:title="OVMachine上のS型の値をT型の値に変換する命令．">
<polygon fill="white" stroke="black" points="441,-147.5 441,-177.5 600,-177.5 600,-147.5 441,-147.5"/>
<text text-anchor="start" x="449" y="-165.5" font-family="Helvetica,sans-Serif" font-size="10.00">CommandTyped&lt; T &gt;.CmdConv</text>
<text text-anchor="middle" x="520.5" y="-154.5" font-family="Helvetica,sans-Serif" font-size="10.00">&lt; S, T &gt;</text>
</a>
</g>
</g>
<!-- Node1&#45;&gt;Node34 -->
<g id="edge33" class="edge">
<title>Node1&#45;&gt;Node34</title>
<path fill="none" stroke="midnightblue" d="M356.15,-487.78C363.36,-425.03 388.68,-231.51 431,-187.5 434.65,-183.7 438.83,-180.47 443.35,-177.72"/>
<polygon fill="midnightblue" stroke="midnightblue" points="352.65,-487.58 355.01,-497.91 359.6,-488.36 352.65,-487.58"/>
</g>
<!-- Node35 -->
<g id="node35" class="node">
<title>Node35</title>
<g id="a_node35"><a xlink:href="classcmd_1_1_command_typed_1_1_cmd_str2_type.html" target="_top" xlink:title="OVMachine上の文字列値をInteger値に変換する命令．">
<polygon fill="white" stroke="black" points="443.5,-98.5 443.5,-128.5 597.5,-128.5 597.5,-98.5 443.5,-98.5"/>
<text text-anchor="start" x="451.5" y="-116.5" font-family="Helvetica,sans-Serif" font-size="10.00">CommandTyped&lt; T &gt;.CmdStr2</text>
<text text-anchor="middle" x="520.5" y="-105.5" font-family="Helvetica,sans-Serif" font-size="10.00">Type&lt; T &gt;</text>
</a>
</g>
</g>
<!-- Node1&#45;&gt;Node35 -->
<g id="edge34" class="edge">
<title>Node1&#45;&gt;Node35</title>
<path fill="none" stroke="midnightblue" d="M355.46,-487.46C360.9,-418.03 382.3,-189.19 431,-137.5 434.6,-133.68 438.75,-130.44 443.23,-127.7"/>
<polygon fill="midnightblue" stroke="midnightblue" points="351.94,-487.61 354.67,-497.85 358.92,-488.14 351.94,-487.61"/>
</g>
<!-- Node36 -->
<g id="node36" class="node">
<title>Node36</title>
<g id="a_node36"><a xlink:href="classcmd_1_1_command_typed_1_1_cmd_type_const.html" target="_top" xlink:title="スタックトップに整数定数値をおく命令">
<polygon fill="white" stroke="black" points="442,-49.5 442,-79.5 599,-79.5 599,-49.5 442,-49.5"/>
<text text-anchor="start" x="450" y="-67.5" font-family="Helvetica,sans-Serif" font-size="10.00">CommandTyped&lt; T &gt;.CmdType</text>
<text text-anchor="middle" x="520.5" y="-56.5" font-family="Helvetica,sans-Serif" font-size="10.00">Const&lt; T &gt;</text>
</a>
</g>
</g>
<!-- Node1&#45;&gt;Node36 -->
<g id="edge35" class="edge">
<title>Node1&#45;&gt;Node36</title>
<path fill="none" stroke="midnightblue" d="M354.93,-487.3C358.83,-411.87 376.21,-148.04 431,-88.5 434.23,-84.99 437.93,-81.97 441.92,-79.37"/>
<polygon fill="midnightblue" stroke="midnightblue" points="351.42,-487.56 354.42,-497.72 358.41,-487.91 351.42,-487.56"/>
</g>
<!-- Node37 -->
<g id="node37" class="node">
<title>Node37</title>
<g id="a_node37"><a xlink:href="classcmd_1_1_command_typed_1_1_cmd_type_opr.html" target="_top" xlink:title="二つの型Tの値をもらい、型Rの値を返す二項演算演算命令。">
<polygon fill="white" stroke="black" points="442,-0.5 442,-30.5 599,-30.5 599,-0.5 442,-0.5"/>
<text text-anchor="start" x="450" y="-18.5" font-family="Helvetica,sans-Serif" font-size="10.00">CommandTyped&lt; T &gt;.CmdType</text>
<text text-anchor="middle" x="520.5" y="-7.5" font-family="Helvetica,sans-Serif" font-size="10.00">Opr&lt; T, R &gt;</text>
</a>
</g>
</g>
<!-- Node1&#45;&gt;Node37 -->
<g id="edge36" class="edge">
<title>Node1&#45;&gt;Node37</title>
<path fill="none" stroke="midnightblue" d="M354.5,-487.57C356.93,-407.08 369.98,-107.07 431,-39.5 434.2,-35.96 437.87,-32.91 441.85,-30.3"/>
<polygon fill="midnightblue" stroke="midnightblue" points="351,-487.71 354.22,-497.8 357.99,-487.9 351,-487.71"/>
</g>
<!-- Node2 -->
<g id="node2" class="node">
<title>Node2</title>
<g id="a_node2"><a xlink:href="interfacemachine_1_1_cmd.html" target="_top" xlink:title="仮装命令のインタフェース.">
<polygon fill="white" stroke="black" points="174,-517 174,-536 212,-536 212,-517 174,-517"/>
<text text-anchor="middle" x="193" y="-524" font-family="Helvetica,sans-Serif" font-size="10.00">Cmd</text>
</a>
</g>
</g>
<!-- Node2&#45;&gt;Node1 -->
<g id="edge1" class="edge">
<title>Node2&#45;&gt;Node1</title>
<path fill="none" stroke="midnightblue" d="M222.25,-523.1C246.89,-520.14 282.95,-515.8 310.81,-512.45"/>
<polygon fill="midnightblue" stroke="midnightblue" points="221.64,-519.65 212.12,-524.32 222.47,-526.6 221.64,-519.65"/>
</g>
<!-- Node3 -->
<g id="node3" class="node">
<title>Node3</title>
<g id="a_node3"><a xlink:href="interfaceformat_1_1_x_formattable_1_1_custom_formattable.html" target="_top" xlink:title="カスタム清書出力器をもつオブジェクトのクラス．">
<polygon fill="white" stroke="black" points="111,-479 111,-498 275,-498 275,-479 111,-479"/>
<text text-anchor="middle" x="193" y="-486" font-family="Helvetica,sans-Serif" font-size="10.00">XFormattable.CustomFormattable</text>
</a>
</g>
</g>
<!-- Node3&#45;&gt;Node1 -->
<g id="edge2" class="edge">
<title>Node3&#45;&gt;Node1</title>
<path fill="none" stroke="midnightblue" d="M283.42,-499.25C292.93,-500.4 302.23,-501.52 310.76,-502.54"/>
<polygon fill="midnightblue" stroke="midnightblue" points="283.81,-495.77 273.46,-498.06 282.97,-502.72 283.81,-495.77"/>
</g>
<!-- Node4 -->
<g id="node4" class="node">
<title>Node4</title>
<g id="a_node4"><a xlink:href="interfaceformat_1_1_x_formattable.html" target="_top" xlink:title="入れ子フォーマット出力可能なオブジェクトのインタフェース。">
<polygon fill="white" stroke="black" points="0,-479 0,-498 75,-498 75,-479 0,-479"/>
<text text-anchor="middle" x="37.5" y="-486" font-family="Helvetica,sans-Serif" font-size="10.00">XFormattable</text>
</a>
</g>
</g>
<!-- Node4&#45;&gt;Node3 -->
<g id="edge3" class="edge">
<title>Node4&#45;&gt;Node3</title>
<path fill="none" stroke="midnightblue" d="M85.53,-488.5C93.59,-488.5 102.17,-488.5 110.83,-488.5"/>
<polygon fill="midnightblue" stroke="midnightblue" points="85.27,-485 75.27,-488.5 85.27,-492 85.27,-485"/>
</g>
<!-- Node12 -->
<g id="node12" class="node">
<title>Node12</title>
<g id="a_node12"><a xlink:href="classcmd_1_1_command_base_1_1_cmd_u_n_d_e_f.html" target="_top" xlink:title="何もしない命令．">
<polygon fill="white" stroke="black" points="663,-745 663,-764 806,-764 806,-745 663,-745"/>
<text text-anchor="middle" x="734.5" y="-752" font-family="Helvetica,sans-Serif" font-size="10.00">CommandBase.CmdUNDEF</text>
</a>
</g>
</g>
<!-- Node11&#45;&gt;Node12 -->
<g id="edge11" class="edge">
<title>Node11&#45;&gt;Node12</title>
<path fill="none" stroke="midnightblue" d="M587.22,-709.49C594.98,-711.53 602.73,-713.86 610,-716.5 627,-722.68 629,-729.3 646,-735.5 656.37,-739.28 667.72,-742.43 678.7,-745"/>
<polygon fill="midnightblue" stroke="midnightblue" points="587.94,-706.07 577.39,-707.07 586.26,-712.86 587.94,-706.07"/>
</g>
<!-- Node15 -->
<g id="node15" class="node">
<title>Node15</title>
<g id="a_node15"><a xlink:href="classcmd_1_1_command_base_1_1_cmd_jmp.html" target="_top" xlink:title="無条件ジャンプの命令">
<polygon fill="white" stroke="black" points="671,-707 671,-726 798,-726 798,-707 671,-707"/>
<text text-anchor="middle" x="734.5" y="-714" font-family="Helvetica,sans-Serif" font-size="10.00">CommandBase.CmdJmp</text>
</a>
</g>
</g>
<!-- Node14&#45;&gt;Node15 -->
<g id="edge14" class="edge">
<title>Node14&#45;&gt;Node15</title>
<path fill="none" stroke="midnightblue" d="M601.26,-635.25C604.3,-636.82 607.23,-638.57 610,-640.5 634.57,-657.65 621.45,-680.32 646,-697.5 653.39,-702.67 661.92,-706.47 670.7,-709.26"/>
<polygon fill="midnightblue" stroke="midnightblue" points="602.4,-631.93 591.84,-631.04 599.54,-638.32 602.4,-631.93"/>
</g>
<!-- Node16 -->
<g id="node16" class="node">
<title>Node16</title>
<g id="a_node16"><a xlink:href="classcmd_1_1_command_base_1_1_cmd_jmp_f_a_l_s_e.html" target="_top" xlink:title="偽ならばジャンプの命令">
<polygon fill="white" stroke="black" points="655.5,-669 655.5,-688 813.5,-688 813.5,-669 655.5,-669"/>
<text text-anchor="middle" x="734.5" y="-676" font-family="Helvetica,sans-Serif" font-size="10.00">CommandBase.CmdJmpFALSE</text>
</a>
</g>
</g>
<!-- Node14&#45;&gt;Node16 -->
<g id="edge15" class="edge">
<title>Node14&#45;&gt;Node16</title>
<path fill="none" stroke="midnightblue" d="M587.22,-633.49C594.98,-635.53 602.73,-637.86 610,-640.5 627,-646.68 629,-653.3 646,-659.5 656.37,-663.28 667.72,-666.43 678.7,-669"/>
<polygon fill="midnightblue" stroke="midnightblue" points="587.94,-630.07 577.39,-631.07 586.26,-636.86 587.94,-630.07"/>
</g>
<!-- Node17 -->
<g id="node17" class="node">
<title>Node17</title>
<g id="a_node17"><a xlink:href="classcmd_1_1_command_base_1_1_cmd_jmp_n_o_n_z_e_r_o.html" target="_top" xlink:title="スタックの値が非0ならばジャンプの命令">
<polygon fill="white" stroke="black" points="646,-631 646,-650 823,-650 823,-631 646,-631"/>
<text text-anchor="middle" x="734.5" y="-638" font-family="Helvetica,sans-Serif" font-size="10.00">CommandBase.CmdJmpNONZERO</text>
</a>
</g>
</g>
<!-- Node14&#45;&gt;Node17 -->
<g id="edge16" class="edge">
<title>Node14&#45;&gt;Node17</title>
<path fill="none" stroke="midnightblue" d="M620.19,-630.34C628.76,-631.11 637.39,-631.89 645.86,-632.65"/>
<polygon fill="midnightblue" stroke="midnightblue" points="620.45,-626.85 610.18,-629.45 619.83,-633.83 620.45,-626.85"/>
</g>
<!-- Node18 -->
<g id="node18" class="node">
<title>Node18</title>
<g id="a_node18"><a xlink:href="classcmd_1_1_command_base_1_1_cmd_jmp_t_r_u_e.html" target="_top" xlink:title="真ならばジャンプの命令">
<polygon fill="white" stroke="black" points="657,-593 657,-612 812,-612 812,-593 657,-593"/>
<text text-anchor="middle" x="734.5" y="-600" font-family="Helvetica,sans-Serif" font-size="10.00">CommandBase.CmdJmpTRUE</text>
</a>
</g>
</g>
<!-- Node14&#45;&gt;Node18 -->
<g id="edge17" class="edge">
<title>Node14&#45;&gt;Node18</title>
<path fill="none" stroke="midnightblue" d="M620.44,-612.63C632.71,-611.53 645.1,-610.42 656.96,-609.36"/>
<polygon fill="midnightblue" stroke="midnightblue" points="619.83,-609.17 610.18,-613.55 620.45,-616.15 619.83,-609.17"/>
</g>
<!-- Node19 -->
<g id="node19" class="node">
<title>Node19</title>
<g id="a_node19"><a xlink:href="classcmd_1_1_command_base_1_1_cmd_jmp_z_e_r_o.html" target="_top" xlink:title="スタックの値が0ならばジャンプの命令">
<polygon fill="white" stroke="black" points="657,-555 657,-574 812,-574 812,-555 657,-555"/>
<text text-anchor="middle" x="734.5" y="-562" font-family="Helvetica,sans-Serif" font-size="10.00">CommandBase.CmdJmpZERO</text>
</a>
</g>
</g>
<!-- Node14&#45;&gt;Node19 -->
<g id="edge18" class="edge">
<title>Node14&#45;&gt;Node19</title>
<path fill="none" stroke="midnightblue" d="M587.22,-609.51C594.98,-607.47 602.73,-605.14 610,-602.5 627,-596.32 629,-589.7 646,-583.5 656.37,-579.72 667.72,-576.57 678.7,-574"/>
<polygon fill="midnightblue" stroke="midnightblue" points="586.26,-606.14 577.39,-611.93 587.94,-612.93 586.26,-606.14"/>
</g>
<!-- Node21 -->
<g id="node21" class="node">
<title>Node21</title>
<g id="a_node21"><a xlink:href="classcmd_1_1_command_base_1_1_cmd_load.html" target="_top" xlink:title=" ">
<polygon fill="white" stroke="black" points="670,-517 670,-536 799,-536 799,-517 670,-517"/>
<text text-anchor="middle" x="734.5" y="-524" font-family="Helvetica,sans-Serif" font-size="10.00">CommandBase.CmdLoad</text>
</a>
</g>
</g>
<!-- Node20&#45;&gt;Node21 -->
<g id="edge20" class="edge">
<title>Node20&#45;&gt;Node21</title>
<path fill="none" stroke="midnightblue" d="M587.22,-571.51C594.98,-569.47 602.73,-567.14 610,-564.5 627,-558.32 629,-551.7 646,-545.5 656.37,-541.72 667.72,-538.57 678.7,-536"/>
<polygon fill="midnightblue" stroke="midnightblue" points="586.26,-568.14 577.39,-573.93 587.94,-574.93 586.26,-568.14"/>
</g>
<!-- Node23 -->
<g id="node23" class="node">
<title>Node23</title>
<g id="a_node23"><a xlink:href="classcmd_1_1_command_base_1_1_cmd_store.html" target="_top" xlink:title=" ">
<polygon fill="white" stroke="black" points="669,-479 669,-498 800,-498 800,-479 669,-479"/>
<text text-anchor="middle" x="734.5" y="-486" font-family="Helvetica,sans-Serif" font-size="10.00">CommandBase.CmdStore</text>
</a>
</g>
</g>
<!-- Node20&#45;&gt;Node23 -->
<g id="edge22" class="edge">
<title>Node20&#45;&gt;Node23</title>
<path fill="none" stroke="midnightblue" d="M601.26,-569.75C604.3,-568.18 607.23,-566.43 610,-564.5 634.57,-547.35 621.45,-524.68 646,-507.5 652.88,-502.69 660.75,-499.06 668.88,-496.33"/>
<polygon fill="midnightblue" stroke="midnightblue" points="599.54,-566.68 591.84,-573.96 602.4,-573.07 599.54,-566.68"/>
</g>
<!-- Node22 -->
<g id="node22" class="node">
<title>Node22</title>
<g id="a_node22"><a xlink:href="classcmd_1_1_command_base_1_1_cmd_get_elem_end.html" target="_top" xlink:title="テキスト読み出し命令の一つ:任意のノードの要素テキストを取得して，文字列型の変数に格納する．">
<polygon fill="white" stroke="black" points="859,-517 859,-536 1023,-536 1023,-517 859,-517"/>
<text text-anchor="middle" x="941" y="-524" font-family="Helvetica,sans-Serif" font-size="10.00">CommandBase.CmdGetElemEnd</text>
</a>
</g>
</g>
<!-- Node21&#45;&gt;Node22 -->
<g id="edge21" class="edge">
<title>Node21&#45;&gt;Node22</title>
<path fill="none" stroke="midnightblue" d="M809.44,-526.5C825.45,-526.5 842.46,-526.5 858.74,-526.5"/>
<polygon fill="midnightblue" stroke="midnightblue" points="809.08,-523 799.08,-526.5 809.08,-530 809.08,-523"/>
</g>
<!-- Node24 -->
<g id="node24" class="node">
<title>Node24</title>
<g id="a_node24"><a xlink:href="classcmd_1_1_command_base_1_1_cmd_set_elem_beg.html" target="_top" xlink:title="テキスト読み出し命令の一つ:任意のノードの要素テキストの開始位置を取得して，整数型の変数に格納する．">
<polygon fill="white" stroke="black" points="859.5,-479 859.5,-498 1022.5,-498 1022.5,-479 859.5,-479"/>
<text text-anchor="middle" x="941" y="-486" font-family="Helvetica,sans-Serif" font-size="10.00">CommandBase.CmdSetElemBeg</text>
</a>
</g>
</g>
<!-- Node23&#45;&gt;Node24 -->
<g id="edge23" class="edge">
<title>Node23&#45;&gt;Node24</title>
<path fill="none" stroke="midnightblue" d="M810.47,-488.5C826.32,-488.5 843.12,-488.5 859.18,-488.5"/>
<polygon fill="midnightblue" stroke="midnightblue" points="810.21,-485 800.21,-488.5 810.21,-492 810.21,-485"/>
</g>
</g>
</svg>
        <g id="navigator" transform="translate(0 0)" fill="#404254">
                <rect fill="#f2f5e9" fill-opacity="0.5" stroke="#606060" stroke-width=".5" x="0" y="0" width="60" height="60"/>
                <use id="zoomplus" xlink:href="#zoomPlus" x="17" y="9" onmousedown="handleZoom(evt,'in')"/>
                <use id="zoomminus" xlink:href="#zoomMin" x="42" y="9" onmousedown="handleZoom(evt,'out')"/>
                <use id="reset" xlink:href="#resetDef" x="30" y="36" onmousedown="handleReset()"/>
                <g id="arrowUp" xlink:href="#dirArrow" transform="translate(30 24)" onmousedown="handlePan(0,-1)">
                  <use xlink:href="#rim" fill="#404040">
                        <set attributeName="fill" to="#808080" begin="arrowUp.mouseover" end="arrowUp.mouseout"/>
                  </use>
                  <path fill="none" stroke="white" stroke-width="1.5" d="M0,-3.0v7 M-2.5,-0.5L0,-3.0L2.5,-0.5"/>
                </g>
                <g id="arrowRight" xlink:href="#dirArrow" transform="rotate(90) translate(36 -43)" onmousedown="handlePan(1,0)">
                  <use xlink:href="#rim" fill="#404040">
                        <set attributeName="fill" to="#808080" begin="arrowRight.mouseover" end="arrowRight.mouseout"/>
                  </use>
                  <path fill="none" stroke="white" stroke-width="1.5" d="M0,-3.0v7 M-2.5,-0.5L0,-3.0L2.5,-0.5"/>
                </g>
                <g id="arrowDown" xlink:href="#dirArrow" transform="rotate(180) translate(-30 -48)" onmousedown="handlePan(0,1)">
                  <use xlink:href="#rim" fill="#404040">
                        <set attributeName="fill" to="#808080" begin="arrowDown.mouseover" end="arrowDown.mouseout"/>
                  </use>
                  <path fill="none" stroke="white" stroke-width="1.5" d="M0,-3.0v7 M-2.5,-0.5L0,-3.0L2.5,-0.5"/>
                </g>
                <g id="arrowLeft" xlink:href="#dirArrow" transform="rotate(270) translate(-36 17)" onmousedown="handlePan(-1,0)">
                  <use xlink:href="#rim" fill="#404040">
                        <set attributeName="fill" to="#808080" begin="arrowLeft.mouseover" end="arrowLeft.mouseout"/>
                  </use>
                  <path fill="none" stroke="white" stroke-width="1.5" d="M0,-3.0v7 M-2.5,-0.5L0,-3.0L2.5,-0.5"/>
                </g>
        </g>
        <svg viewBox="0 0 15 15" width="100%" height="30px" preserveAspectRatio="xMaxYMin meet">
         <g id="arrow_out" transform="scale(0.3 0.3)">
          <a xlink:href="classcmd_1_1_command_base__inherit__graph_org.svg" target="_base">
           <rect id="button" ry="5" rx="5" y="6" x="6" height="38" width="38"
                fill="#f2f5e9" fill-opacity="0.5" stroke="#606060" stroke-width="1.0"/>
           <path id="arrow"
             d="M 11.500037,31.436501 C 11.940474,20.09759 22.043105,11.32322 32.158766,21.979434 L 37.068811,17.246167 C 37.068811,17.246167 37.088388,32 37.088388,32 L 22.160133,31.978069 C 22.160133,31.978069 26.997745,27.140456 26.997745,27.140456 C 18.528582,18.264221 13.291696,25.230495 11.500037,31.436501 z"
             style="fill:#404040;"/>
          </a>
         </g>
        </svg>
</svg>
