<?xml version="1.0" encoding="UTF-8" standalone="no"?>
<!DOCTYPE svg PUBLIC "-//W3C//DTD SVG 1.1//EN"
 "http://www.w3.org/Graphics/SVG/1.1/DTD/svg11.dtd">
<!-- Generated by graphviz version 2.38.0 (20140413.2041)
 -->
<!-- Title: toBinaryString Pages: 1 -->
<svg width="291pt" height="27pt"
 viewBox="0.00 0.00 291.40 27.00" xmlns="http://www.w3.org/2000/svg" xmlns:xlink="http://www.w3.org/1999/xlink">
<g id="graph0" class="graph" transform="scale(1 1) rotate(0) translate(4 23)">
<title>toBinaryString</title>
<polygon fill="white" stroke="none" points="-4,4 -4,-23 287.398,-23 287.398,4 -4,4"/>
<!-- Node1 -->
<g id="node1" class="node"><title>Node1</title>
<g id="a_node1"><a xlink:title="与えられた整数値{val}を表す幅{ncol}ビットの二進文字列として文字列値を返す.">
<polygon fill="#bfbfbf" stroke="black" points="0,-0.5 0,-18.5 78.8076,-18.5 78.8076,-0.5 0,-0.5"/>
<text text-anchor="middle" x="39.4038" y="-6.5" font-family="Helvetica,sans-Serif" font-size="10.00">toBinaryString</text>
</a>
</g>
</g>
<!-- Node2 -->
<g id="node2" class="node"><title>Node2</title>
<g id="a_node2"><a xlink:href="classutil_1_1_bits_buf.html#a4f27bcc2f6f2560532ad28a62ab07d1d" target="_top" xlink:title="与えられた整数値{val}の最小ビット幅を下回らない最小の2のべきを返す.">
<polygon fill="white" stroke="black" points="114.808,-0.5 114.808,-18.5 195.275,-18.5 195.275,-0.5 114.808,-0.5"/>
<text text-anchor="middle" x="155.042" y="-6.5" font-family="Helvetica,sans-Serif" font-size="10.00">bitWidthPower</text>
</a>
</g>
</g>
<!-- Node1&#45;&gt;Node2 -->
<g id="edge1" class="edge"><title>Node1&#45;&gt;Node2</title>
<path fill="none" stroke="midnightblue" d="M78.8763,-9.5C87.0246,-9.5 95.7367,-9.5 104.236,-9.5"/>
<polygon fill="midnightblue" stroke="midnightblue" points="104.446,-13.0001 114.446,-9.5 104.446,-6.0001 104.446,-13.0001"/>
</g>
<!-- Node3 -->
<g id="node3" class="node"><title>Node3</title>
<g id="a_node3"><a xlink:href="classutil_1_1_bits_buf.html#a63ddfb3e222166a31c85ca3471e2d12e" target="_top" xlink:title="与えられた整数値{val}の最小ビット幅を返す.">
<polygon fill="white" stroke="black" points="231.275,-0.5 231.275,-18.5 283.398,-18.5 283.398,-0.5 231.275,-0.5"/>
<text text-anchor="middle" x="257.337" y="-6.5" font-family="Helvetica,sans-Serif" font-size="10.00">bitWidth</text>
</a>
</g>
</g>
<!-- Node2&#45;&gt;Node3 -->
<g id="edge2" class="edge"><title>Node2&#45;&gt;Node3</title>
<path fill="none" stroke="midnightblue" d="M195.393,-9.5C203.882,-9.5 212.805,-9.5 221.124,-9.5"/>
<polygon fill="midnightblue" stroke="midnightblue" points="221.261,-13.0001 231.261,-9.5 221.261,-6.0001 221.261,-13.0001"/>
</g>
</g>
</svg>
