<?xml version="1.0" encoding="UTF-8" standalone="no"?>
<!DOCTYPE svg PUBLIC "-//W3C//DTD SVG 1.1//EN"
 "http://www.w3.org/Graphics/SVG/1.1/DTD/svg11.dtd">
<!-- Generated by graphviz version 2.47.1 (20210417.1919)
 -->
<!-- Title: CommandBase.CmdJmpFALSE Pages: 1 -->
<svg width="426pt" height="276pt"
 viewBox="0.00 0.00 426.00 276.00" xmlns="http://www.w3.org/2000/svg" xmlns:xlink="http://www.w3.org/1999/xlink">
<g id="graph0" class="graph" transform="scale(1 1) rotate(0) translate(4 272)">
<title>CommandBase.CmdJmpFALSE</title>
<polygon fill="white" stroke="transparent" points="-4,4 -4,-272 422,-272 422,4 -4,4"/>
<!-- Node1 -->
<g id="node1" class="node">
<title>Node1</title>
<g id="a_node1"><a xlink:title="偽ならばジャンプの命令">
<polygon fill="#bfbfbf" stroke="black" points="246,-0.5 246,-19.5 404,-19.5 404,-0.5 246,-0.5"/>
<text text-anchor="middle" x="325" y="-7.5" font-family="Helvetica,sans-Serif" font-size="10.00">CommandBase.CmdJmpFALSE</text>
</a>
</g>
</g>
<!-- Node2 -->
<g id="node2" class="node">
<title>Node2</title>
<g id="a_node2"><a xlink:href="classcmd_1_1_command_base_1_1_command_jump_base.html" target="_top" xlink:title="無条件ジャンプの命令">
<polygon fill="white" stroke="black" points="235.5,-57.5 235.5,-76.5 414.5,-76.5 414.5,-57.5 235.5,-57.5"/>
<text text-anchor="middle" x="325" y="-64.5" font-family="Helvetica,sans-Serif" font-size="10.00">CommandBase.CommandJumpBase</text>
</a>
</g>
</g>
<!-- Node2&#45;&gt;Node1 -->
<g id="edge1" class="edge">
<title>Node2&#45;&gt;Node1</title>
<path fill="none" stroke="midnightblue" d="M325,-47.12C325,-37.82 325,-27.06 325,-19.71"/>
<polygon fill="midnightblue" stroke="midnightblue" points="321.5,-47.41 325,-57.41 328.5,-47.41 321.5,-47.41"/>
</g>
<!-- Node3 -->
<g id="node3" class="node">
<title>Node3</title>
<g id="a_node3"><a xlink:href="classcmd_1_1_command_base.html" target="_top" xlink:title="局所変数環境に値を書き込む式の抽象クラス.">
<polygon fill="white" stroke="black" points="202,-124.5 202,-143.5 286,-143.5 286,-124.5 202,-124.5"/>
<text text-anchor="middle" x="244" y="-131.5" font-family="Helvetica,sans-Serif" font-size="10.00">CommandBase</text>
</a>
</g>
</g>
<!-- Node3&#45;&gt;Node2 -->
<g id="edge2" class="edge">
<title>Node3&#45;&gt;Node2</title>
<path fill="none" stroke="midnightblue" d="M263.05,-117.71C279.01,-104.91 301.21,-87.09 314.25,-76.63"/>
<polygon fill="midnightblue" stroke="midnightblue" points="260.53,-115.25 254.92,-124.23 264.91,-120.7 260.53,-115.25"/>
</g>
<!-- Node4 -->
<g id="node4" class="node">
<title>Node4</title>
<g id="a_node4"><a xlink:href="interfacemachine_1_1_cmd.html" target="_top" xlink:title="仮装命令のインタフェース.">
<polygon fill="white" stroke="black" points="0,-191.5 0,-210.5 38,-210.5 38,-191.5 0,-191.5"/>
<text text-anchor="middle" x="19" y="-198.5" font-family="Helvetica,sans-Serif" font-size="10.00">Cmd</text>
</a>
</g>
</g>
<!-- Node4&#45;&gt;Node3 -->
<g id="edge3" class="edge">
<title>Node4&#45;&gt;Node3</title>
<path fill="none" stroke="midnightblue" d="M48.09,-190.74C111.99,-171.48 175.84,-153.68 212.86,-143.5"/>
<polygon fill="midnightblue" stroke="midnightblue" points="46.81,-187.47 38.25,-193.72 48.84,-194.17 46.81,-187.47"/>
</g>
<!-- Node5 -->
<g id="node5" class="node">
<title>Node5</title>
<g id="a_node5"><a xlink:href="interfaceformat_1_1_x_formattable_1_1_custom_formattable.html" target="_top" xlink:title="カスタム清書出力器をもつオブジェクトのクラス．">
<polygon fill="white" stroke="black" points="56,-191.5 56,-210.5 220,-210.5 220,-191.5 56,-191.5"/>
<text text-anchor="middle" x="138" y="-198.5" font-family="Helvetica,sans-Serif" font-size="10.00">XFormattable.CustomFormattable</text>
</a>
</g>
</g>
<!-- Node5&#45;&gt;Node3 -->
<g id="edge4" class="edge">
<title>Node5&#45;&gt;Node3</title>
<path fill="none" stroke="midnightblue" d="M160.92,-185.94C181.92,-173.07 212.32,-154.43 229.93,-143.63"/>
<polygon fill="midnightblue" stroke="midnightblue" points="158.99,-183.02 152.3,-191.23 162.65,-188.99 158.99,-183.02"/>
</g>
<!-- Node6 -->
<g id="node6" class="node">
<title>Node6</title>
<g id="a_node6"><a xlink:href="interfaceformat_1_1_x_formattable.html" target="_top" xlink:title="入れ子フォーマット出力可能なオブジェクトのインタフェース。">
<polygon fill="white" stroke="black" points="100.5,-248.5 100.5,-267.5 175.5,-267.5 175.5,-248.5 100.5,-248.5"/>
<text text-anchor="middle" x="138" y="-255.5" font-family="Helvetica,sans-Serif" font-size="10.00">XFormattable</text>
</a>
</g>
</g>
<!-- Node6&#45;&gt;Node5 -->
<g id="edge5" class="edge">
<title>Node6&#45;&gt;Node5</title>
<path fill="none" stroke="midnightblue" d="M138,-238.12C138,-228.82 138,-218.06 138,-210.71"/>
<polygon fill="midnightblue" stroke="midnightblue" points="134.5,-238.41 138,-248.41 141.5,-238.41 134.5,-238.41"/>
</g>
<!-- Node7 -->
<g id="node7" class="node">
<title>Node7</title>
<g id="a_node7"><a xlink:title=" ">
<polygon fill="white" stroke="#bfbfbf" points="238.5,-191.5 238.5,-210.5 321.5,-210.5 321.5,-191.5 238.5,-191.5"/>
<text text-anchor="middle" x="280" y="-198.5" font-family="Helvetica,sans-Serif" font-size="10.00">static ReportKt</text>
</a>
</g>
</g>
<!-- Node7&#45;&gt;Node3 -->
<g id="edge6" class="edge">
<title>Node7&#45;&gt;Node3</title>
<path fill="none" stroke="#9a32cd" stroke-dasharray="5,2" d="M270.12,-182.16C263.18,-169.63 254.2,-153.41 248.78,-143.63"/>
<polygon fill="#9a32cd" stroke="#9a32cd" points="267.24,-184.18 275.14,-191.23 273.36,-180.79 267.24,-184.18"/>
<text text-anchor="middle" x="276" y="-165" font-family="Helvetica,sans-Serif" font-size="10.00"> repo</text>
</g>
<!-- Node8 -->
<g id="node8" class="node">
<title>Node8</title>
<g id="a_node8"><a xlink:title=" ">
<polygon fill="white" stroke="#bfbfbf" points="340,-191.5 340,-210.5 390,-210.5 390,-191.5 340,-191.5"/>
<text text-anchor="middle" x="365" y="-198.5" font-family="Helvetica,sans-Serif" font-size="10.00">boolean</text>
</a>
</g>
</g>
<!-- Node8&#45;&gt;Node3 -->
<g id="edge7" class="edge">
<title>Node8&#45;&gt;Node3</title>
<path fill="none" stroke="#9a32cd" stroke-dasharray="5,2" d="M339.79,-186.46C315.8,-173.57 280.44,-154.57 260.06,-143.63"/>
<polygon fill="#9a32cd" stroke="#9a32cd" points="338.22,-189.58 348.68,-191.23 341.53,-183.42 338.22,-189.58"/>
<text text-anchor="middle" x="345" y="-165" font-family="Helvetica,sans-Serif" font-size="10.00"> DEBUG_CMD</text>
</g>
<!-- Node9 -->
<g id="node9" class="node">
<title>Node9</title>
<g id="a_node9"><a xlink:title=" ">
<polygon fill="white" stroke="#bfbfbf" points="304,-124.5 304,-143.5 346,-143.5 346,-124.5 304,-124.5"/>
<text text-anchor="middle" x="325" y="-131.5" font-family="Helvetica,sans-Serif" font-size="10.00">String</text>
</a>
</g>
</g>
<!-- Node9&#45;&gt;Node2 -->
<g id="edge8" class="edge">
<title>Node9&#45;&gt;Node2</title>
<path fill="none" stroke="#9a32cd" stroke-dasharray="5,2" d="M325,-114.04C325,-101.67 325,-86.12 325,-76.63"/>
<polygon fill="#9a32cd" stroke="#9a32cd" points="321.5,-114.23 325,-124.23 328.5,-114.23 321.5,-114.23"/>
<text text-anchor="middle" x="351.5" y="-98" font-family="Helvetica,sans-Serif" font-size="10.00"> dstLabelStr</text>
</g>
<!-- Node10 -->
<g id="node10" class="node">
<title>Node10</title>
<g id="a_node10"><a xlink:title=" ">
<polygon fill="white" stroke="#bfbfbf" points="386.5,-124.5 386.5,-143.5 415.5,-143.5 415.5,-124.5 386.5,-124.5"/>
<text text-anchor="middle" x="401" y="-131.5" font-family="Helvetica,sans-Serif" font-size="10.00">int</text>
</a>
</g>
</g>
<!-- Node10&#45;&gt;Node2 -->
<g id="edge9" class="edge">
<title>Node10&#45;&gt;Node2</title>
<path fill="none" stroke="#9a32cd" stroke-dasharray="5,2" d="M393.27,-114.88C389.68,-108.03 384.89,-100.54 379,-95 370.53,-87.03 359.25,-80.89 349.19,-76.5"/>
<polygon fill="#9a32cd" stroke="#9a32cd" points="390.22,-116.63 397.65,-124.19 396.56,-113.65 390.22,-116.63"/>
<text text-anchor="middle" x="402.5" y="-98" font-family="Helvetica,sans-Serif" font-size="10.00"> dstIdx</text>
</g>
</g>
</svg>
