<?xml version="1.0" encoding="UTF-8" standalone="no"?>
<!DOCTYPE svg PUBLIC "-//W3C//DTD SVG 1.1//EN"
 "http://www.w3.org/Graphics/SVG/1.1/DTD/svg11.dtd">
<!-- Generated by graphviz version 2.47.0 (20210316.0004)
 -->
<!-- Title: AstMathOper.DoubleRel Pages: 1 -->
<svg width="889pt" height="423pt"
 viewBox="0.00 0.00 888.57 423.00" xmlns="http://www.w3.org/2000/svg" xmlns:xlink="http://www.w3.org/1999/xlink">
<g id="graph0" class="graph" transform="scale(1 1) rotate(0) translate(4 419)">
<title>AstMathOper.DoubleRel</title>
<polygon fill="white" stroke="transparent" points="-4,4 -4,-419 884.57,-419 884.57,4 -4,4"/>
<!-- Node1 -->
<g id="node1" class="node">
<title>Node1</title>
<g id="a_node1"><a xlink:title=" ">
<polygon fill="#bfbfbf" stroke="black" points="758.57,-0.5 758.57,-19.5 880.57,-19.5 880.57,-0.5 758.57,-0.5"/>
<text text-anchor="middle" x="819.57" y="-7.5" font-family="Helvetica,sans-Serif" font-size="10.00">AstMathOper.DoubleRel</text>
</a>
</g>
</g>
<!-- Node2 -->
<g id="node2" class="node">
<title>Node2</title>
<g id="a_node2"><a xlink:title=" ">
<polygon fill="white" stroke="#bfbfbf" points="747.57,-57.5 747.57,-76.5 815.57,-76.5 815.57,-57.5 747.57,-57.5"/>
<text text-anchor="middle" x="781.57" y="-64.5" font-family="Helvetica,sans-Serif" font-size="10.00">AstRelOper</text>
</a>
</g>
</g>
<!-- Node2&#45;&gt;Node1 -->
<g id="edge1" class="edge">
<title>Node2&#45;&gt;Node1</title>
<path fill="none" stroke="midnightblue" d="M793.36,-48.94C800.05,-39.25 808.15,-27.54 813.55,-19.71"/>
<polygon fill="midnightblue" stroke="midnightblue" points="790.32,-47.19 787.51,-57.41 796.07,-51.17 790.32,-47.19"/>
</g>
<!-- Node3 -->
<g id="node3" class="node">
<title>Node3</title>
<g id="a_node3"><a xlink:href="classast_1_1_ast_oper.html" target="_top" xlink:title=" ">
<polygon fill="white" stroke="black" points="681.07,-114.5 681.07,-133.5 734.07,-133.5 734.07,-114.5 681.07,-114.5"/>
<text text-anchor="middle" x="707.57" y="-121.5" font-family="Helvetica,sans-Serif" font-size="10.00">AstOper</text>
</a>
</g>
</g>
<!-- Node3&#45;&gt;Node2 -->
<g id="edge2" class="edge">
<title>Node3&#45;&gt;Node2</title>
<path fill="none" stroke="midnightblue" d="M727.37,-108.29C740.93,-98.21 758.45,-85.19 769.85,-76.71"/>
<polygon fill="midnightblue" stroke="midnightblue" points="725.07,-105.63 719.14,-114.41 729.25,-111.25 725.07,-105.63"/>
</g>
<!-- Node4 -->
<g id="node4" class="node">
<title>Node4</title>
<g id="a_node4"><a xlink:href="classast_1_1_ast_node_branch.html" target="_top" xlink:title="タグなしの順アクセスの子供をもてる抽象構文木のノードのクラス。">
<polygon fill="white" stroke="black" points="385.57,-171.5 385.57,-190.5 471.57,-190.5 471.57,-171.5 385.57,-171.5"/>
<text text-anchor="middle" x="428.57" y="-178.5" font-family="Helvetica,sans-Serif" font-size="10.00">AstNodeBranch</text>
</a>
</g>
</g>
<!-- Node4&#45;&gt;Node3 -->
<g id="edge3" class="edge">
<title>Node4&#45;&gt;Node3</title>
<path fill="none" stroke="midnightblue" d="M481.83,-169.5C541.37,-157.76 635.4,-139.23 681.01,-130.24"/>
<polygon fill="midnightblue" stroke="midnightblue" points="480.99,-166.1 471.86,-171.47 482.35,-172.97 480.99,-166.1"/>
</g>
<!-- Node5 -->
<g id="node5" class="node">
<title>Node5</title>
<g id="a_node5"><a xlink:href="classast_1_1_ast_node.html" target="_top" xlink:title=" ">
<polygon fill="white" stroke="red" points="595.07,-245 595.07,-264 650.07,-264 650.07,-245 595.07,-245"/>
<text text-anchor="middle" x="622.57" y="-252" font-family="Helvetica,sans-Serif" font-size="10.00">AstNode</text>
</a>
</g>
</g>
<!-- Node5&#45;&gt;Node4 -->
<g id="edge4" class="edge">
<title>Node5&#45;&gt;Node4</title>
<path fill="none" stroke="midnightblue" d="M608.95,-237.22C599.92,-227.51 587.24,-215.79 573.57,-209 541.69,-193.18 501.68,-186.58 471.77,-183.85"/>
<polygon fill="midnightblue" stroke="midnightblue" points="606.37,-239.58 615.62,-244.75 611.61,-234.94 606.37,-239.58"/>
</g>
<!-- Node7 -->
<g id="node6" class="node">
<title>Node7</title>
<g id="a_node6"><a xlink:title=" ">
<polygon fill="white" stroke="#bfbfbf" points="590.57,-395.5 590.57,-414.5 632.57,-414.5 632.57,-395.5 590.57,-395.5"/>
<text text-anchor="middle" x="611.57" y="-402.5" font-family="Helvetica,sans-Serif" font-size="10.00">String</text>
</a>
</g>
</g>
<!-- Node7&#45;&gt;Node3 -->
<g id="edge16" class="edge">
<title>Node7&#45;&gt;Node3</title>
<path fill="none" stroke="#9a32cd" stroke-dasharray="5,2" d="M642.2,-394.35C650.65,-390.27 659.01,-384.64 664.57,-377 719.14,-302.04 680.38,-262.12 697.57,-171 700.03,-157.99 703.38,-143.02 705.51,-133.79"/>
<polygon fill="#9a32cd" stroke="#9a32cd" points="640.63,-391.22 632.77,-398.32 643.34,-397.67 640.63,-391.22"/>
<text text-anchor="middle" x="700.57" y="-212" font-family="Helvetica,sans-Serif" font-size="10.00"> op</text>
</g>
<!-- Node7&#45;&gt;Node5 -->
<g id="edge5" class="edge">
<title>Node7&#45;&gt;Node5</title>
<path fill="none" stroke="#9a32cd" stroke-dasharray="5,2" d="M610.13,-385.24C608.74,-362.37 607.51,-322.61 612.57,-289 613.87,-280.36 616.88,-270.84 619.25,-264.16"/>
<polygon fill="#9a32cd" stroke="#9a32cd" points="606.64,-385.54 610.82,-395.28 613.63,-385.06 606.64,-385.54"/>
<text text-anchor="middle" x="638.57" y="-336" font-family="Helvetica,sans-Serif" font-size="10.00"> MOD_AST</text>
<text text-anchor="middle" x="638.57" y="-325" font-family="Helvetica,sans-Serif" font-size="10.00">mod_</text>
</g>
<!-- Node17 -->
<g id="node11" class="node">
<title>Node17</title>
<g id="a_node11"><a xlink:href="classformat_1_1_style.html" target="_top" xlink:title="ノードの表示スタイルに関するプロパティのクラス.">
<polygon fill="white" stroke="red" points="145.07,-245 145.07,-264 184.07,-264 184.07,-245 145.07,-245"/>
<text text-anchor="middle" x="164.57" y="-252" font-family="Helvetica,sans-Serif" font-size="10.00">Style</text>
</a>
</g>
</g>
<!-- Node7&#45;&gt;Node17 -->
<g id="edge12" class="edge">
<title>Node7&#45;&gt;Node17</title>
<path fill="none" stroke="#9a32cd" stroke-dasharray="5,2" d="M583.6,-391.22C574.04,-386.79 563.31,-381.74 553.57,-377 476.01,-339.24 463.4,-313.11 380.57,-289 300.4,-265.66 273.5,-295.15 193.57,-271 188.22,-269.38 182.71,-266.73 177.96,-264.08"/>
<polygon fill="#9a32cd" stroke="#9a32cd" points="582.14,-394.4 592.69,-395.41 585.07,-388.04 582.14,-394.4"/>
<text text-anchor="middle" x="579.57" y="-369" font-family="Helvetica,sans-Serif" font-size="10.00"> childLPAD</text>
<text text-anchor="middle" x="579.57" y="-358" font-family="Helvetica,sans-Serif" font-size="10.00">childRPAD</text>
<text text-anchor="middle" x="579.57" y="-347" font-family="Helvetica,sans-Serif" font-size="10.00">name</text>
<text text-anchor="middle" x="579.57" y="-336" font-family="Helvetica,sans-Serif" font-size="10.00">operSTR</text>
<text text-anchor="middle" x="579.57" y="-325" font-family="Helvetica,sans-Serif" font-size="10.00">parenLPAD</text>
<text text-anchor="middle" x="579.57" y="-314" font-family="Helvetica,sans-Serif" font-size="10.00">parenLPAR</text>
<text text-anchor="middle" x="579.57" y="-303" font-family="Helvetica,sans-Serif" font-size="10.00">parenRPAD</text>
<text text-anchor="middle" x="579.57" y="-292" font-family="Helvetica,sans-Serif" font-size="10.00">parenRPAR</text>
</g>
<!-- Node10 -->
<g id="node7" class="node">
<title>Node10</title>
<g id="a_node7"><a xlink:title=" ">
<polygon fill="white" stroke="#bfbfbf" points="150.07,-395.5 150.07,-414.5 179.07,-414.5 179.07,-395.5 150.07,-395.5"/>
<text text-anchor="middle" x="164.57" y="-402.5" font-family="Helvetica,sans-Serif" font-size="10.00">int</text>
</a>
</g>
</g>
<!-- Node10&#45;&gt;Node4 -->
<g id="edge9" class="edge">
<title>Node10&#45;&gt;Node4</title>
<path fill="none" stroke="#9a32cd" stroke-dasharray="5,2" d="M140.53,-393.05C85.79,-366.7 -39.49,-297.54 12.57,-238 36.89,-210.19 283.62,-191.31 385.22,-184.65"/>
<polygon fill="#9a32cd" stroke="#9a32cd" points="139.33,-396.35 149.87,-397.46 142.32,-390.02 139.33,-396.35"/>
<text text-anchor="middle" x="74.07" y="-263" font-family="Helvetica,sans-Serif" font-size="10.00"> BITMASK_PRINT_WIDTH</text>
<text text-anchor="middle" x="74.07" y="-252" font-family="Helvetica,sans-Serif" font-size="10.00">UNDEF</text>
<text text-anchor="middle" x="74.07" y="-241" font-family="Helvetica,sans-Serif" font-size="10.00">height</text>
</g>
<!-- Node10&#45;&gt;Node5 -->
<g id="edge6" class="edge">
<title>Node10&#45;&gt;Node5</title>
<path fill="none" stroke="#9a32cd" stroke-dasharray="5,2" d="M179.54,-387.64C182.59,-384.18 185.73,-380.51 188.57,-377 219.2,-339.23 210.77,-312.07 253.57,-289 318.61,-253.94 513.56,-287.52 585.57,-271 592.36,-269.44 599.49,-266.74 605.66,-264.02"/>
<polygon fill="#9a32cd" stroke="#9a32cd" points="176.85,-385.39 172.78,-395.18 182.06,-390.07 176.85,-385.39"/>
<text text-anchor="middle" x="315.07" y="-336" font-family="Helvetica,sans-Serif" font-size="10.00"> BITMASK_PRINT_WIDTH</text>
<text text-anchor="middle" x="315.07" y="-325" font-family="Helvetica,sans-Serif" font-size="10.00">UNDEF</text>
</g>
<!-- Node10&#45;&gt;Node17 -->
<g id="edge13" class="edge">
<title>Node10&#45;&gt;Node17</title>
<path fill="none" stroke="#9a32cd" stroke-dasharray="5,2" d="M164.57,-384.74C164.57,-352.16 164.57,-287.42 164.57,-264.11"/>
<polygon fill="#9a32cd" stroke="#9a32cd" points="161.07,-385.16 164.57,-395.16 168.07,-385.16 161.07,-385.16"/>
<text text-anchor="middle" x="174.57" y="-330.5" font-family="Helvetica,sans-Serif" font-size="10.00"> pref</text>
</g>
<!-- Node13 -->
<g id="node8" class="node">
<title>Node13</title>
<g id="a_node8"><a xlink:href="interfaceformat_1_1_x_formattable_1_1_navigatable.html" target="_top" xlink:title="木構造の分岐ノードとして清書可能なオブジェクトのクラス">
<polygon fill="white" stroke="red" points="202.57,-245 202.57,-264 332.57,-264 332.57,-245 202.57,-245"/>
<text text-anchor="middle" x="267.57" y="-252" font-family="Helvetica,sans-Serif" font-size="10.00">XFormattable.Navigatable</text>
</a>
</g>
</g>
<!-- Node13&#45;&gt;Node4 -->
<g id="edge7" class="edge">
<title>Node13&#45;&gt;Node4</title>
<path fill="none" stroke="midnightblue" d="M296.42,-240.69C328.96,-226.24 381,-203.13 409.08,-190.66"/>
<polygon fill="midnightblue" stroke="midnightblue" points="294.71,-237.62 286.99,-244.88 297.55,-244.02 294.71,-237.62"/>
</g>
<!-- Node15 -->
<g id="node9" class="node">
<title>Node15</title>
<g id="a_node9"><a xlink:href="interfaceformat_1_1_x_formattable_1_1_typed_formattable.html" target="_top" xlink:title="ノードの型情報をもつ書式出力可能なオブジェクトのインタフェース．">
<polygon fill="white" stroke="red" points="350.57,-245 350.57,-264 506.57,-264 506.57,-245 350.57,-245"/>
<text text-anchor="middle" x="428.57" y="-252" font-family="Helvetica,sans-Serif" font-size="10.00">XFormattable.TypedFormattable</text>
</a>
</g>
</g>
<!-- Node15&#45;&gt;Node4 -->
<g id="edge8" class="edge">
<title>Node15&#45;&gt;Node4</title>
<path fill="none" stroke="midnightblue" d="M428.57,-234.59C428.57,-220.43 428.57,-201.7 428.57,-190.84"/>
<polygon fill="midnightblue" stroke="midnightblue" points="425.07,-234.73 428.57,-244.73 432.07,-234.73 425.07,-234.73"/>
</g>
<!-- Node16 -->
<g id="node10" class="node">
<title>Node16</title>
<g id="a_node10"><a xlink:title=" ">
<polygon fill="white" stroke="#bfbfbf" points="524.57,-245 524.57,-264 576.57,-264 576.57,-245 524.57,-245"/>
<text text-anchor="middle" x="550.57" y="-252" font-family="Helvetica,sans-Serif" font-size="10.00">Boolean</text>
</a>
</g>
</g>
<!-- Node16&#45;&gt;Node4 -->
<g id="edge10" class="edge">
<title>Node16&#45;&gt;Node4</title>
<path fill="none" stroke="#9a32cd" stroke-dasharray="5,2" d="M526.83,-239.59C502.06,-225.07 464.01,-202.77 443.27,-190.62"/>
<polygon fill="#9a32cd" stroke="#9a32cd" points="525.22,-242.7 535.61,-244.73 528.76,-236.66 525.22,-242.7"/>
<text text-anchor="middle" x="531.57" y="-212" font-family="Helvetica,sans-Serif" font-size="10.00"> DEBUG_CHILD</text>
</g>
<!-- Node17&#45;&gt;Node4 -->
<g id="edge11" class="edge">
<title>Node17&#45;&gt;Node4</title>
<path fill="none" stroke="#9a32cd" stroke-dasharray="5,2" d="M188,-240.34C189.86,-239.49 191.73,-238.7 193.57,-238 258.48,-213.39 337.68,-197.2 385.57,-188.82"/>
<polygon fill="#9a32cd" stroke="#9a32cd" points="186.35,-237.25 178.98,-244.86 189.49,-243.5 186.35,-237.25"/>
<text text-anchor="middle" x="298.07" y="-212" font-family="Helvetica,sans-Serif" font-size="10.00"> sty</text>
</g>
<!-- Node18 -->
<g id="node12" class="node">
<title>Node18</title>
<g id="a_node12"><a xlink:href="interfacecmd_1_1_generatable_1_1_evaluatable.html" target="_top" xlink:title="評価して値を返すノードのインタフェース．必ずしもコードを生成しなくても良い．">
<polygon fill="white" stroke="black" points="707.07,-171.5 707.07,-190.5 830.07,-190.5 830.07,-171.5 707.07,-171.5"/>
<text text-anchor="middle" x="768.57" y="-178.5" font-family="Helvetica,sans-Serif" font-size="10.00">Generatable.Evaluatable</text>
</a>
</g>
</g>
<!-- Node18&#45;&gt;Node3 -->
<g id="edge14" class="edge">
<title>Node18&#45;&gt;Node3</title>
<path fill="none" stroke="midnightblue" d="M751.61,-164.71C740.53,-154.72 726.45,-142.02 717.24,-133.71"/>
<polygon fill="midnightblue" stroke="midnightblue" points="749.27,-167.31 759.04,-171.41 753.96,-162.11 749.27,-167.31"/>
</g>
<!-- Node19 -->
<g id="node13" class="node">
<title>Node19</title>
<g id="a_node13"><a xlink:href="interfacecmd_1_1_generatable.html" target="_top" xlink:title="変換してコードを生成できるノードのインタフェース.">
<polygon fill="white" stroke="black" points="796.07,-245 796.07,-264 865.07,-264 865.07,-245 796.07,-245"/>
<text text-anchor="middle" x="830.57" y="-252" font-family="Helvetica,sans-Serif" font-size="10.00">Generatable</text>
</a>
</g>
</g>
<!-- Node19&#45;&gt;Node1 -->
<g id="edge17" class="edge">
<title>Node19&#45;&gt;Node1</title>
<path fill="none" stroke="midnightblue" d="M841.83,-235.69C849.61,-221.66 858.57,-201.31 858.57,-182 858.57,-182 858.57,-182 858.57,-66 858.57,-46.8 842.57,-29.63 831.06,-19.77"/>
<polygon fill="midnightblue" stroke="midnightblue" points="838.58,-234.29 836.51,-244.68 844.61,-237.85 838.58,-234.29"/>
</g>
<!-- Node19&#45;&gt;Node18 -->
<g id="edge15" class="edge">
<title>Node19&#45;&gt;Node18</title>
<path fill="none" stroke="midnightblue" d="M816.32,-237.07C803.85,-222.69 786.22,-202.35 776.24,-190.84"/>
<polygon fill="midnightblue" stroke="midnightblue" points="813.77,-239.47 822.97,-244.73 819.06,-234.88 813.77,-239.47"/>
</g>
</g>
</svg>
