<?xml version="1.0" encoding="UTF-8" standalone="no"?>
<!DOCTYPE svg PUBLIC "-//W3C//DTD SVG 1.1//EN"
 "http://www.w3.org/Graphics/SVG/1.1/DTD/svg11.dtd">
<!-- Generated by graphviz version 2.47.0 (20210316.0004)
 -->
<!-- Title: AstMathOper.NumberOper Pages: 1 -->
<svg width="287pt" height="364pt"
 viewBox="0.00 0.00 286.50 364.00" xmlns="http://www.w3.org/2000/svg" xmlns:xlink="http://www.w3.org/1999/xlink">
<g id="graph0" class="graph" transform="scale(1 1) rotate(0) translate(4 360)">
<title>AstMathOper.NumberOper</title>
<polygon fill="white" stroke="transparent" points="-4,4 -4,-360 282.5,-360 282.5,4 -4,4"/>
<!-- Node1 -->
<g id="node1" class="node">
<title>Node1</title>
<g id="a_node1"><a xlink:title=" ">
<polygon fill="#bfbfbf" stroke="black" points="97.5,-0.5 97.5,-19.5 229.5,-19.5 229.5,-0.5 97.5,-0.5"/>
<text text-anchor="middle" x="163.5" y="-7.5" font-family="Helvetica,sans-Serif" font-size="10.00">AstMathOper.NumberOper</text>
</a>
</g>
</g>
<!-- Node2 -->
<g id="node2" class="node">
<title>Node2</title>
<g id="a_node2"><a xlink:href="classast_1_1_ast_math_oper_1_1_binary_oper.html" target="_top" xlink:title="end of class AstMathOper">
<polygon fill="white" stroke="black" points="101,-57.5 101,-76.5 226,-76.5 226,-57.5 101,-57.5"/>
<text text-anchor="middle" x="163.5" y="-64.5" font-family="Helvetica,sans-Serif" font-size="10.00">AstMathOper.BinaryOper</text>
</a>
</g>
</g>
<!-- Node2&#45;&gt;Node1 -->
<g id="edge1" class="edge">
<title>Node2&#45;&gt;Node1</title>
<path fill="none" stroke="midnightblue" d="M163.5,-47.12C163.5,-37.82 163.5,-27.06 163.5,-19.71"/>
<polygon fill="midnightblue" stroke="midnightblue" points="160,-47.41 163.5,-57.41 167,-47.41 160,-47.41"/>
</g>
<!-- Node3 -->
<g id="node3" class="node">
<title>Node3</title>
<g id="a_node3"><a xlink:href="classast_1_1_ast_math_oper.html" target="_top" xlink:title="値を返すことができるノードのクラス．一般に1個以上の子をもつ演算子である．">
<polygon fill="white" stroke="black" points="126.5,-114.5 126.5,-133.5 200.5,-133.5 200.5,-114.5 126.5,-114.5"/>
<text text-anchor="middle" x="163.5" y="-121.5" font-family="Helvetica,sans-Serif" font-size="10.00">AstMathOper</text>
</a>
</g>
</g>
<!-- Node3&#45;&gt;Node2 -->
<g id="edge2" class="edge">
<title>Node3&#45;&gt;Node2</title>
<path fill="none" stroke="midnightblue" d="M163.5,-104.12C163.5,-94.82 163.5,-84.06 163.5,-76.71"/>
<polygon fill="midnightblue" stroke="midnightblue" points="160,-104.41 163.5,-114.41 167,-104.41 160,-104.41"/>
</g>
<!-- Node4 -->
<g id="node4" class="node">
<title>Node4</title>
<g id="a_node4"><a xlink:href="classast_1_1_ast_oper.html" target="_top" xlink:title=" ">
<polygon fill="white" stroke="black" points="108,-269.5 108,-288.5 161,-288.5 161,-269.5 108,-269.5"/>
<text text-anchor="middle" x="134.5" y="-276.5" font-family="Helvetica,sans-Serif" font-size="10.00">AstOper</text>
</a>
</g>
</g>
<!-- Node4&#45;&gt;Node3 -->
<g id="edge3" class="edge">
<title>Node4&#45;&gt;Node3</title>
<path fill="none" stroke="midnightblue" d="M138.08,-259.11C144.41,-225.72 157.33,-157.54 161.88,-133.57"/>
<polygon fill="midnightblue" stroke="midnightblue" points="134.57,-258.86 136.14,-269.34 141.44,-260.16 134.57,-258.86"/>
</g>
<!-- Node5 -->
<g id="node5" class="node">
<title>Node5</title>
<g id="a_node5"><a xlink:href="classast_1_1_ast_node.html" target="_top" xlink:title="タグなしの順アクセスの子供をもてる抽象構文木のノードのクラス。">
<polygon fill="white" stroke="red" points="0,-336.5 0,-355.5 55,-355.5 55,-336.5 0,-336.5"/>
<text text-anchor="middle" x="27.5" y="-343.5" font-family="Helvetica,sans-Serif" font-size="10.00">AstNode</text>
</a>
</g>
</g>
<!-- Node5&#45;&gt;Node4 -->
<g id="edge4" class="edge">
<title>Node5&#45;&gt;Node4</title>
<path fill="none" stroke="midnightblue" d="M50.64,-330.94C71.83,-318.07 102.52,-299.43 120.3,-288.63"/>
<polygon fill="midnightblue" stroke="midnightblue" points="48.66,-328.05 41.93,-336.23 52.29,-334.03 48.66,-328.05"/>
</g>
<!-- Node20 -->
<g id="node6" class="node">
<title>Node20</title>
<g id="a_node6"><a xlink:href="interfacecmd_1_1_generatable_1_1_evaluatable.html" target="_top" xlink:title="評価して値を返すノードのインタフェース．必ずしもコードを生成しなくても良い．">
<polygon fill="white" stroke="red" points="73,-336.5 73,-355.5 196,-355.5 196,-336.5 73,-336.5"/>
<text text-anchor="middle" x="134.5" y="-343.5" font-family="Helvetica,sans-Serif" font-size="10.00">Generatable.Evaluatable</text>
</a>
</g>
</g>
<!-- Node20&#45;&gt;Node4 -->
<g id="edge5" class="edge">
<title>Node20&#45;&gt;Node4</title>
<path fill="none" stroke="midnightblue" d="M134.5,-326.04C134.5,-313.67 134.5,-298.12 134.5,-288.63"/>
<polygon fill="midnightblue" stroke="midnightblue" points="131,-326.23 134.5,-336.23 138,-326.23 131,-326.23"/>
</g>
<!-- Node7 -->
<g id="node7" class="node">
<title>Node7</title>
<g id="a_node7"><a xlink:title=" ">
<polygon fill="white" stroke="#bfbfbf" points="214.5,-336.5 214.5,-355.5 256.5,-355.5 256.5,-336.5 214.5,-336.5"/>
<text text-anchor="middle" x="235.5" y="-343.5" font-family="Helvetica,sans-Serif" font-size="10.00">String</text>
</a>
</g>
</g>
<!-- Node7&#45;&gt;Node4 -->
<g id="edge6" class="edge">
<title>Node7&#45;&gt;Node4</title>
<path fill="none" stroke="#9a32cd" stroke-dasharray="5,2" d="M213.39,-330.77C193.39,-317.9 164.61,-299.38 147.91,-288.63"/>
<polygon fill="#9a32cd" stroke="#9a32cd" points="211.58,-333.77 221.88,-336.23 215.36,-327.88 211.58,-333.77"/>
<text text-anchor="middle" x="197.5" y="-310" font-family="Helvetica,sans-Serif" font-size="10.00"> op</text>
</g>
<!-- Node10 -->
<g id="node8" class="node">
<title>Node10</title>
<g id="a_node8"><a xlink:title=" ">
<polygon fill="white" stroke="#bfbfbf" points="179,-269.5 179,-288.5 208,-288.5 208,-269.5 179,-269.5"/>
<text text-anchor="middle" x="193.5" y="-276.5" font-family="Helvetica,sans-Serif" font-size="10.00">int</text>
</a>
</g>
</g>
<!-- Node10&#45;&gt;Node3 -->
<g id="edge7" class="edge">
<title>Node10&#45;&gt;Node3</title>
<path fill="none" stroke="#9a32cd" stroke-dasharray="5,2" d="M189.8,-259.11C183.25,-225.72 169.88,-157.54 165.18,-133.57"/>
<polygon fill="#9a32cd" stroke="#9a32cd" points="186.44,-260.2 191.8,-269.34 193.31,-258.85 186.44,-260.2"/>
<text text-anchor="middle" x="233" y="-243" font-family="Helvetica,sans-Serif" font-size="10.00"> PREF_ADD_TERM</text>
<text text-anchor="middle" x="233" y="-232" font-family="Helvetica,sans-Serif" font-size="10.00">PREF_AND_EXPR</text>
<text text-anchor="middle" x="233" y="-221" font-family="Helvetica,sans-Serif" font-size="10.00">PREF_BIN_OPER</text>
<text text-anchor="middle" x="233" y="-210" font-family="Helvetica,sans-Serif" font-size="10.00">PREF_BIN_REL</text>
<text text-anchor="middle" x="233" y="-199" font-family="Helvetica,sans-Serif" font-size="10.00">PREF_MUL_TERM</text>
<text text-anchor="middle" x="233" y="-188" font-family="Helvetica,sans-Serif" font-size="10.00">PREF_NOT_EXPR</text>
<text text-anchor="middle" x="233" y="-177" font-family="Helvetica,sans-Serif" font-size="10.00">PREF_NUM_SENT</text>
<text text-anchor="middle" x="233" y="-166" font-family="Helvetica,sans-Serif" font-size="10.00">PREF_OR_EXPR</text>
<text text-anchor="middle" x="233" y="-155" font-family="Helvetica,sans-Serif" font-size="10.00">PREF_PRE_TERM</text>
</g>
</g>
</svg>
