<?xml version="1.0" encoding="UTF-8" standalone="no"?>
<!DOCTYPE svg PUBLIC "-//W3C//DTD SVG 1.1//EN"
 "http://www.w3.org/Graphics/SVG/1.1/DTD/svg11.dtd">
<!-- Generated by graphviz version 2.47.1 (20210417.1919)
 -->
<!-- Title: AstVarAssign Pages: 1 -->
<svg width="292pt" height="196pt"
 viewBox="0.00 0.00 291.50 196.00" xmlns="http://www.w3.org/2000/svg" xmlns:xlink="http://www.w3.org/1999/xlink">
<g id="graph0" class="graph" transform="scale(1 1) rotate(0) translate(4 192)">
<title>AstVarAssign</title>
<polygon fill="white" stroke="transparent" points="-4,4 -4,-192 287.5,-192 287.5,4 -4,4"/>
<!-- Node1 -->
<g id="node1" class="node">
<title>Node1</title>
<g id="a_node1"><a xlink:title="値の読み出しオブジェクト．">
<polygon fill="#bfbfbf" stroke="black" points="117.5,-0.5 117.5,-19.5 193.5,-19.5 193.5,-0.5 117.5,-0.5"/>
<text text-anchor="middle" x="155.5" y="-7.5" font-family="Helvetica,sans-Serif" font-size="10.00">AstVarAssign</text>
</a>
</g>
</g>
<!-- Node2 -->
<g id="node2" class="node">
<title>Node2</title>
<g id="a_node2"><a xlink:href="classast_1_1_ast_node.html" target="_top" xlink:title="タグなしの順アクセスの子供をもてる抽象構文木のノードのクラス。">
<polygon fill="white" stroke="black" points="88,-56.5 88,-75.5 143,-75.5 143,-56.5 88,-56.5"/>
<text text-anchor="middle" x="115.5" y="-63.5" font-family="Helvetica,sans-Serif" font-size="10.00">AstNode</text>
</a>
</g>
</g>
<!-- Node2&#45;&gt;Node1 -->
<g id="edge1" class="edge">
<title>Node2&#45;&gt;Node1</title>
<path fill="none" stroke="midnightblue" d="M128.2,-47.86C135.13,-38.5 143.41,-27.33 149.02,-19.75"/>
<polygon fill="midnightblue" stroke="midnightblue" points="125.25,-45.96 122.11,-56.08 130.87,-50.13 125.25,-45.96"/>
</g>
<!-- Node3 -->
<g id="node3" class="node">
<title>Node3</title>
<g id="a_node3"><a xlink:href="classast_1_1_ast_node_base.html" target="_top" xlink:title=" ">
<polygon fill="white" stroke="black" points="0,-112.5 0,-131.5 77,-131.5 77,-112.5 0,-112.5"/>
<text text-anchor="middle" x="38.5" y="-119.5" font-family="Helvetica,sans-Serif" font-size="10.00">AstNodeBase</text>
</a>
</g>
</g>
<!-- Node3&#45;&gt;Node2 -->
<g id="edge2" class="edge">
<title>Node3&#45;&gt;Node2</title>
<path fill="none" stroke="midnightblue" d="M59.4,-106.34C73.41,-96.52 91.38,-83.91 103.16,-75.65"/>
<polygon fill="midnightblue" stroke="midnightblue" points="57.05,-103.72 50.87,-112.32 61.07,-109.45 57.05,-103.72"/>
</g>
<!-- Node4 -->
<g id="node4" class="node">
<title>Node4</title>
<g id="a_node4"><a xlink:href="interfaceast_1_1_node.html" target="_top" xlink:title=" ">
<polygon fill="white" stroke="black" points="95.5,-112.5 95.5,-131.5 135.5,-131.5 135.5,-112.5 95.5,-112.5"/>
<text text-anchor="middle" x="115.5" y="-119.5" font-family="Helvetica,sans-Serif" font-size="10.00">Node</text>
</a>
</g>
</g>
<!-- Node4&#45;&gt;Node2 -->
<g id="edge3" class="edge">
<title>Node4&#45;&gt;Node2</title>
<path fill="none" stroke="midnightblue" d="M115.5,-101.8C115.5,-92.91 115.5,-82.78 115.5,-75.75"/>
<polygon fill="midnightblue" stroke="midnightblue" points="112,-102.08 115.5,-112.08 119,-102.08 112,-102.08"/>
</g>
<!-- Node5 -->
<g id="node5" class="node">
<title>Node5</title>
<g id="a_node5"><a xlink:href="interfaceformat_1_1_x_formattable.html" target="_top" xlink:title="入れ子フォーマット出力可能なオブジェクトのインタフェース。">
<polygon fill="white" stroke="black" points="129,-168.5 129,-187.5 204,-187.5 204,-168.5 129,-168.5"/>
<text text-anchor="middle" x="166.5" y="-175.5" font-family="Helvetica,sans-Serif" font-size="10.00">XFormattable</text>
</a>
</g>
</g>
<!-- Node5&#45;&gt;Node4 -->
<g id="edge4" class="edge">
<title>Node5&#45;&gt;Node4</title>
<path fill="none" stroke="midnightblue" d="M151.12,-160.72C142.13,-151.2 131.14,-139.56 123.76,-131.75"/>
<polygon fill="midnightblue" stroke="midnightblue" points="148.67,-163.22 158.08,-168.08 153.76,-158.41 148.67,-163.22"/>
</g>
<!-- Node6 -->
<g id="node6" class="node">
<title>Node6</title>
<g id="a_node6"><a xlink:href="interfaceformat_1_1_x_formattable_1_1_navigatable.html" target="_top" xlink:title="木構造の分岐ノードとして清書可能なオブジェクトのクラス">
<polygon fill="white" stroke="black" points="153.5,-112.5 153.5,-131.5 283.5,-131.5 283.5,-112.5 153.5,-112.5"/>
<text text-anchor="middle" x="218.5" y="-119.5" font-family="Helvetica,sans-Serif" font-size="10.00">XFormattable.Navigatable</text>
</a>
</g>
</g>
<!-- Node5&#45;&gt;Node6 -->
<g id="edge6" class="edge">
<title>Node5&#45;&gt;Node6</title>
<path fill="none" stroke="midnightblue" d="M182.18,-160.72C191.34,-151.2 202.55,-139.56 210.07,-131.75"/>
<polygon fill="midnightblue" stroke="midnightblue" points="179.5,-158.45 175.09,-168.08 184.54,-163.31 179.5,-158.45"/>
</g>
<!-- Node6&#45;&gt;Node2 -->
<g id="edge5" class="edge">
<title>Node6&#45;&gt;Node2</title>
<path fill="none" stroke="midnightblue" d="M192.92,-107.59C173.88,-97.61 148.44,-84.27 132.01,-75.65"/>
<polygon fill="midnightblue" stroke="midnightblue" points="191.47,-110.78 201.95,-112.32 194.72,-104.58 191.47,-110.78"/>
</g>
<!-- Node7 -->
<g id="node7" class="node">
<title>Node7</title>
<g id="a_node7"><a xlink:href="interfacecmd_1_1_generatable.html" target="_top" xlink:title="変換してコードを生成できるノードのインタフェース.">
<polygon fill="white" stroke="black" points="161,-56.5 161,-75.5 230,-75.5 230,-56.5 161,-56.5"/>
<text text-anchor="middle" x="195.5" y="-63.5" font-family="Helvetica,sans-Serif" font-size="10.00">Generatable</text>
</a>
</g>
</g>
<!-- Node7&#45;&gt;Node1 -->
<g id="edge7" class="edge">
<title>Node7&#45;&gt;Node1</title>
<path fill="none" stroke="midnightblue" d="M182.8,-47.86C175.87,-38.5 167.59,-27.33 161.98,-19.75"/>
<polygon fill="midnightblue" stroke="midnightblue" points="180.13,-50.13 188.89,-56.08 185.75,-45.96 180.13,-50.13"/>
</g>
</g>
</svg>
