<?xml version="1.0" encoding="UTF-8" standalone="no"?>
<!DOCTYPE svg PUBLIC "-//W3C//DTD SVG 1.1//EN"
 "http://www.w3.org/Graphics/SVG/1.1/DTD/svg11.dtd">
<!-- Generated by graphviz version 2.38.0 (20140413.2041)
 -->
<!-- Title: AstOper.AddTerm Pages: 1 -->
<svg width="222pt" height="302pt"
 viewBox="0.00 0.00 222.27 302.00" xmlns="http://www.w3.org/2000/svg" xmlns:xlink="http://www.w3.org/1999/xlink">
<g id="graph0" class="graph" transform="scale(1 1) rotate(0) translate(4 298)">
<title>AstOper.AddTerm</title>
<polygon fill="white" stroke="none" points="-4,4 -4,-298 218.271,-298 218.271,4 -4,4"/>
<!-- Node1 -->
<g id="node1" class="node"><title>Node1</title>
<g id="a_node1"><a xlink:title=" ">
<polygon fill="#bfbfbf" stroke="black" points="63.2808,-55.5 63.2808,-73.5 158.207,-73.5 158.207,-55.5 63.2808,-55.5"/>
<text text-anchor="middle" x="110.744" y="-61.5" font-family="Helvetica,sans-Serif" font-size="10.00">AstOper.AddTerm</text>
</a>
</g>
</g>
<!-- Node12 -->
<g id="node7" class="node"><title>Node12</title>
<g id="a_node7"><a xlink:href="classast_1_1_ast_oper_1_1_pre_term.html" target="_top" xlink:title=" ">
<polygon fill="white" stroke="black" points="64.3965,-0.5 64.3965,-18.5 157.091,-18.5 157.091,-0.5 64.3965,-0.5"/>
<text text-anchor="middle" x="110.744" y="-6.5" font-family="Helvetica,sans-Serif" font-size="10.00">AstOper.PreTerm</text>
</a>
</g>
</g>
<!-- Node1&#45;&gt;Node12 -->
<g id="edge6" class="edge"><title>Node1&#45;&gt;Node12</title>
<path fill="none" stroke="midnightblue" d="M110.744,-45.1746C110.744,-36.0945 110.744,-25.5949 110.744,-18.5496"/>
<polygon fill="midnightblue" stroke="midnightblue" points="107.244,-45.2187 110.744,-55.2188 114.244,-45.2188 107.244,-45.2187"/>
</g>
<!-- Node2 -->
<g id="node2" class="node"><title>Node2</title>
<g id="a_node2"><a xlink:href="classast_1_1_ast_oper_1_1_integer_oper.html" target="_top" xlink:title=" ">
<polygon fill="white" stroke="black" points="56.606,-110.5 56.606,-128.5 164.881,-128.5 164.881,-110.5 56.606,-110.5"/>
<text text-anchor="middle" x="110.744" y="-116.5" font-family="Helvetica,sans-Serif" font-size="10.00">AstOper.IntegerOper</text>
</a>
</g>
</g>
<!-- Node2&#45;&gt;Node1 -->
<g id="edge1" class="edge"><title>Node2&#45;&gt;Node1</title>
<path fill="none" stroke="midnightblue" d="M110.744,-100.175C110.744,-91.0945 110.744,-80.5949 110.744,-73.5496"/>
<polygon fill="midnightblue" stroke="midnightblue" points="107.244,-100.219 110.744,-110.219 114.244,-100.219 107.244,-100.219"/>
</g>
<!-- Node3 -->
<g id="node3" class="node"><title>Node3</title>
<g id="a_node3"><a xlink:href="classast_1_1_ast_oper_1_1_binary_oper.html" target="_top" xlink:title=" ">
<polygon fill="white" stroke="black" points="0,-165.5 0,-183.5 105.487,-183.5 105.487,-165.5 0,-165.5"/>
<text text-anchor="middle" x="52.7437" y="-171.5" font-family="Helvetica,sans-Serif" font-size="10.00">AstOper.BinaryOper</text>
</a>
</g>
</g>
<!-- Node3&#45;&gt;Node2 -->
<g id="edge2" class="edge"><title>Node3&#45;&gt;Node2</title>
<path fill="none" stroke="midnightblue" d="M69.272,-158.397C79.9015,-148.683 93.2927,-136.447 101.935,-128.55"/>
<polygon fill="midnightblue" stroke="midnightblue" points="66.8273,-155.889 61.8062,-165.219 71.5493,-161.057 66.8273,-155.889"/>
</g>
<!-- Node4 -->
<g id="node4" class="node"><title>Node4</title>
<g id="a_node4"><a xlink:href="classast_1_1_ast_oper.html" target="_top" xlink:title="演算子をもつノードのクラス">
<polygon fill="white" stroke="black" points="26.4038,-220.5 26.4038,-238.5 79.0835,-238.5 79.0835,-220.5 26.4038,-220.5"/>
<text text-anchor="middle" x="52.7437" y="-226.5" font-family="Helvetica,sans-Serif" font-size="10.00">AstOper</text>
</a>
</g>
</g>
<!-- Node4&#45;&gt;Node3 -->
<g id="edge3" class="edge"><title>Node4&#45;&gt;Node3</title>
<path fill="none" stroke="midnightblue" d="M52.7437,-210.175C52.7437,-201.094 52.7437,-190.595 52.7437,-183.55"/>
<polygon fill="midnightblue" stroke="midnightblue" points="49.2438,-210.219 52.7437,-220.219 56.2438,-210.219 49.2438,-210.219"/>
</g>
<!-- Node5 -->
<g id="node5" class="node"><title>Node5</title>
<g id="a_node5"><a xlink:href="classast_1_1_ast_node_branch.html" target="_top" xlink:title="抽象構文木のノードの基本実装クラス.">
<polygon fill="white" stroke="red" points="9.72412,-275.5 9.72412,-293.5 95.7632,-293.5 95.7632,-275.5 9.72412,-275.5"/>
<text text-anchor="middle" x="52.7437" y="-281.5" font-family="Helvetica,sans-Serif" font-size="10.00">AstNodeBranch</text>
</a>
</g>
</g>
<!-- Node5&#45;&gt;Node4 -->
<g id="edge4" class="edge"><title>Node5&#45;&gt;Node4</title>
<path fill="none" stroke="midnightblue" d="M52.7437,-265.175C52.7437,-256.094 52.7437,-245.595 52.7437,-238.55"/>
<polygon fill="midnightblue" stroke="midnightblue" points="49.2438,-265.219 52.7437,-275.219 56.2438,-265.219 49.2438,-265.219"/>
</g>
<!-- Node11 -->
<g id="node6" class="node"><title>Node11</title>
<g id="a_node6"><a xlink:href="class_evaluable_integer.html" target="_top" xlink:title=" ">
<polygon fill="white" stroke="black" points="123.217,-165.5 123.217,-183.5 214.271,-183.5 214.271,-165.5 123.217,-165.5"/>
<text text-anchor="middle" x="168.744" y="-171.5" font-family="Helvetica,sans-Serif" font-size="10.00">EvaluableInteger</text>
</a>
</g>
</g>
<!-- Node11&#45;&gt;Node2 -->
<g id="edge5" class="edge"><title>Node11&#45;&gt;Node2</title>
<path fill="none" stroke="midnightblue" d="M152.215,-158.397C141.586,-148.683 128.195,-136.447 119.553,-128.55"/>
<polygon fill="midnightblue" stroke="midnightblue" points="149.938,-161.057 159.681,-165.219 154.66,-155.889 149.938,-161.057"/>
</g>
</g>
</svg>
