<?xml version="1.0" encoding="UTF-8" standalone="no"?>
<!DOCTYPE svg PUBLIC "-//W3C//DTD SVG 1.1//EN"
 "http://www.w3.org/Graphics/SVG/1.1/DTD/svg11.dtd">
<!-- Generated by graphviz version 2.47.0 (20210316.0004)
 -->
<!-- Title: AstLet Pages: 1 -->
<svg width="422pt" height="252pt"
 viewBox="0.00 0.00 421.50 252.00" xmlns="http://www.w3.org/2000/svg" xmlns:xlink="http://www.w3.org/1999/xlink">
<g id="graph0" class="graph" transform="scale(1 1) rotate(0) translate(4 248)">
<title>AstLet</title>
<polygon fill="white" stroke="transparent" points="-4,4 -4,-248 417.5,-248 417.5,4 -4,4"/>
<!-- Node1 -->
<g id="node1" class="node">
<title>Node1</title>
<g id="a_node1"><a xlink:title="値の読み出しオブジェクト．">
<polygon fill="#bfbfbf" stroke="black" points="285,-0.5 285,-19.5 330,-19.5 330,-0.5 285,-0.5"/>
<text text-anchor="middle" x="307.5" y="-7.5" font-family="Helvetica,sans-Serif" font-size="10.00">AstLet</text>
</a>
</g>
</g>
<!-- Node2 -->
<g id="node2" class="node">
<title>Node2</title>
<g id="a_node2"><a xlink:href="classast_1_1_ast_oper_tagged.html" target="_top" xlink:title=" ">
<polygon fill="white" stroke="black" points="220.5,-56.5 220.5,-75.5 304.5,-75.5 304.5,-56.5 220.5,-56.5"/>
<text text-anchor="middle" x="262.5" y="-63.5" font-family="Helvetica,sans-Serif" font-size="10.00">AstOperTagged</text>
</a>
</g>
</g>
<!-- Node2&#45;&gt;Node1 -->
<g id="edge1" class="edge">
<title>Node2&#45;&gt;Node1</title>
<path fill="none" stroke="midnightblue" d="M276.55,-48.14C284.39,-38.74 293.83,-27.4 300.21,-19.75"/>
<polygon fill="midnightblue" stroke="midnightblue" points="273.64,-46.16 269.93,-56.08 279.02,-50.64 273.64,-46.16"/>
</g>
<!-- Node3 -->
<g id="node3" class="node">
<title>Node3</title>
<g id="a_node3"><a xlink:href="classast_1_1_ast_node_tagged_settable.html" target="_top" xlink:title="タグ付きの子をもつノードのクラス．利用者は自前で，追加する子のField名と，Getter，Setter，型を設定する．読み出しは子の添字でも行える．">
<polygon fill="white" stroke="black" points="60.5,-112.5 60.5,-131.5 182.5,-131.5 182.5,-112.5 60.5,-112.5"/>
<text text-anchor="middle" x="121.5" y="-119.5" font-family="Helvetica,sans-Serif" font-size="10.00">AstNodeTaggedSettable</text>
</a>
</g>
</g>
<!-- Node3&#45;&gt;Node2 -->
<g id="edge2" class="edge">
<title>Node3&#45;&gt;Node2</title>
<path fill="none" stroke="midnightblue" d="M153.43,-108.77C179.91,-98.63 216.89,-84.47 240.26,-75.52"/>
<polygon fill="midnightblue" stroke="midnightblue" points="151.93,-105.6 143.84,-112.44 154.43,-112.14 151.93,-105.6"/>
</g>
<!-- Node4 -->
<g id="node4" class="node">
<title>Node4</title>
<g id="a_node4"><a xlink:href="classast_1_1_ast_node.html" target="_top" xlink:title="タグなしの順アクセスの子供をもてる抽象構文木のノードのクラス。">
<polygon fill="white" stroke="black" points="169,-168.5 169,-187.5 224,-187.5 224,-168.5 169,-168.5"/>
<text text-anchor="middle" x="196.5" y="-175.5" font-family="Helvetica,sans-Serif" font-size="10.00">AstNode</text>
</a>
</g>
</g>
<!-- Node4&#45;&gt;Node3 -->
<g id="edge3" class="edge">
<title>Node4&#45;&gt;Node3</title>
<path fill="none" stroke="midnightblue" d="M176.19,-162.38C162.64,-152.62 145.26,-140.11 133.77,-131.83"/>
<polygon fill="midnightblue" stroke="midnightblue" points="174.29,-165.32 184.45,-168.32 178.38,-159.64 174.29,-165.32"/>
</g>
<!-- Node5 -->
<g id="node5" class="node">
<title>Node5</title>
<g id="a_node5"><a xlink:href="classast_1_1_ast_node_base.html" target="_top" xlink:title=" ">
<polygon fill="white" stroke="black" points="159,-224.5 159,-243.5 236,-243.5 236,-224.5 159,-224.5"/>
<text text-anchor="middle" x="197.5" y="-231.5" font-family="Helvetica,sans-Serif" font-size="10.00">AstNodeBase</text>
</a>
</g>
</g>
<!-- Node5&#45;&gt;Node4 -->
<g id="edge4" class="edge">
<title>Node5&#45;&gt;Node4</title>
<path fill="none" stroke="midnightblue" d="M197.14,-213.8C196.98,-204.91 196.79,-194.78 196.66,-187.75"/>
<polygon fill="midnightblue" stroke="midnightblue" points="193.65,-214.15 197.33,-224.08 200.65,-214.02 193.65,-214.15"/>
</g>
<!-- Node6 -->
<g id="node6" class="node">
<title>Node6</title>
<g id="a_node6"><a xlink:href="interfaceformat_1_1_x_formattable_1_1_navigatable.html" target="_top" xlink:title="木構造の分岐ノードとして清書可能なオブジェクトのクラス">
<polygon fill="white" stroke="red" points="10.5,-224.5 10.5,-243.5 140.5,-243.5 140.5,-224.5 10.5,-224.5"/>
<text text-anchor="middle" x="75.5" y="-231.5" font-family="Helvetica,sans-Serif" font-size="10.00">XFormattable.Navigatable</text>
</a>
</g>
</g>
<!-- Node6&#45;&gt;Node4 -->
<g id="edge5" class="edge">
<title>Node6&#45;&gt;Node4</title>
<path fill="none" stroke="midnightblue" d="M103.81,-220.37C126.47,-210.26 157.63,-196.35 177.42,-187.52"/>
<polygon fill="midnightblue" stroke="midnightblue" points="102.38,-217.17 94.67,-224.44 105.23,-223.56 102.38,-217.17"/>
</g>
<!-- Node9 -->
<g id="node8" class="node">
<title>Node9</title>
<g id="a_node8"><a xlink:href="interfaceformat_1_1_x_formattable_1_1_field_navigatable.html" target="_top" xlink:title="タグ付きノードに対応する清書対象のクラス。">
<polygon fill="white" stroke="black" points="0,-168.5 0,-187.5 151,-187.5 151,-168.5 0,-168.5"/>
<text text-anchor="middle" x="75.5" y="-175.5" font-family="Helvetica,sans-Serif" font-size="10.00">XFormattable.FieldNavigatable</text>
</a>
</g>
</g>
<!-- Node6&#45;&gt;Node9 -->
<g id="edge8" class="edge">
<title>Node6&#45;&gt;Node9</title>
<path fill="none" stroke="midnightblue" d="M75.5,-213.8C75.5,-204.91 75.5,-194.78 75.5,-187.75"/>
<polygon fill="midnightblue" stroke="midnightblue" points="72,-214.08 75.5,-224.08 79,-214.08 72,-214.08"/>
</g>
<!-- Node8 -->
<g id="node7" class="node">
<title>Node8</title>
<g id="a_node7"><a xlink:href="interfaceformat_1_1_x_formattable_1_1_typed_formattable.html" target="_top" xlink:title="ノードの型情報をもつ書式出力可能なオブジェクトのインタフェース．">
<polygon fill="white" stroke="red" points="257.5,-224.5 257.5,-243.5 413.5,-243.5 413.5,-224.5 257.5,-224.5"/>
<text text-anchor="middle" x="335.5" y="-231.5" font-family="Helvetica,sans-Serif" font-size="10.00">XFormattable.TypedFormattable</text>
</a>
</g>
</g>
<!-- Node8&#45;&gt;Node1 -->
<g id="edge11" class="edge">
<title>Node8&#45;&gt;Node1</title>
<path fill="none" stroke="midnightblue" d="M336.54,-214.34C337.57,-190.48 338.36,-147.96 333.5,-112 328.77,-77.01 316.16,-36.72 310.42,-19.51"/>
<polygon fill="midnightblue" stroke="midnightblue" points="333.04,-214.28 336.05,-224.44 340.03,-214.62 333.04,-214.28"/>
</g>
<!-- Node8&#45;&gt;Node4 -->
<g id="edge6" class="edge">
<title>Node8&#45;&gt;Node4</title>
<path fill="none" stroke="midnightblue" d="M304.02,-220.77C277.91,-210.63 241.46,-196.47 218.42,-187.52"/>
<polygon fill="midnightblue" stroke="midnightblue" points="302.89,-224.08 313.48,-224.44 305.42,-217.56 302.89,-224.08"/>
</g>
<!-- Node9&#45;&gt;Node3 -->
<g id="edge7" class="edge">
<title>Node9&#45;&gt;Node3</title>
<path fill="none" stroke="midnightblue" d="M89.61,-160.43C97.68,-150.97 107.46,-139.48 114.05,-131.75"/>
<polygon fill="midnightblue" stroke="midnightblue" points="86.92,-158.2 83.1,-168.08 92.25,-162.74 86.92,-158.2"/>
</g>
<!-- Node10 -->
<g id="node9" class="node">
<title>Node10</title>
<g id="a_node9"><a xlink:href="interfacecmd_1_1_generatable_1_1_evaluatable.html" target="_top" xlink:title="評価して値を返すノードのインタフェース．必ずしもコードを生成しなくても良い．">
<polygon fill="white" stroke="black" points="201,-112.5 201,-131.5 324,-131.5 324,-112.5 201,-112.5"/>
<text text-anchor="middle" x="262.5" y="-119.5" font-family="Helvetica,sans-Serif" font-size="10.00">Generatable.Evaluatable</text>
</a>
</g>
</g>
<!-- Node10&#45;&gt;Node2 -->
<g id="edge9" class="edge">
<title>Node10&#45;&gt;Node2</title>
<path fill="none" stroke="midnightblue" d="M262.5,-101.8C262.5,-92.91 262.5,-82.78 262.5,-75.75"/>
<polygon fill="midnightblue" stroke="midnightblue" points="259,-102.08 262.5,-112.08 266,-102.08 259,-102.08"/>
</g>
<!-- Node11 -->
<g id="node10" class="node">
<title>Node11</title>
<g id="a_node10"><a xlink:href="interfacecmd_1_1_generatable.html" target="_top" xlink:title="変換してコードを生成できるノードのインタフェース.">
<polygon fill="white" stroke="black" points="242,-168.5 242,-187.5 311,-187.5 311,-168.5 242,-168.5"/>
<text text-anchor="middle" x="276.5" y="-175.5" font-family="Helvetica,sans-Serif" font-size="10.00">Generatable</text>
</a>
</g>
</g>
<!-- Node11&#45;&gt;Node10 -->
<g id="edge10" class="edge">
<title>Node11&#45;&gt;Node10</title>
<path fill="none" stroke="midnightblue" d="M271.68,-158.4C269.33,-149.36 266.63,-138.94 264.77,-131.75"/>
<polygon fill="midnightblue" stroke="midnightblue" points="268.29,-159.28 274.19,-168.08 275.07,-157.52 268.29,-159.28"/>
</g>
</g>
</svg>
