<?xml version="1.0" encoding="UTF-8" standalone="no"?>
<!DOCTYPE svg PUBLIC "-//W3C//DTD SVG 1.1//EN"
 "http://www.w3.org/Graphics/SVG/1.1/DTD/svg11.dtd">
<!-- Generated by graphviz version 2.47.0 (20210316.0004)
 -->
<!-- Title: AstNodeBranch Pages: 1 -->
<svg width="1240pt" height="800pt"
 viewBox="0.00 0.00 1240.00 799.50" xmlns="http://www.w3.org/2000/svg" xmlns:xlink="http://www.w3.org/1999/xlink">
<g id="graph0" class="graph" transform="scale(1 1) rotate(0) translate(4 795.5)">
<title>AstNodeBranch</title>
<polygon fill="white" stroke="transparent" points="-4,4 -4,-795.5 1236,-795.5 1236,4 -4,4"/>
<!-- Node1 -->
<g id="node1" class="node">
<title>Node1</title>
<g id="a_node1"><a xlink:title="タグなしの順アクセスの子供をもてる抽象構文木のノードのクラス。">
<polygon fill="#bfbfbf" stroke="black" points="469,-370.5 469,-389.5 555,-389.5 555,-370.5 469,-370.5"/>
<text text-anchor="middle" x="512" y="-377.5" font-family="Helvetica,sans-Serif" font-size="10.00">AstNodeBranch</text>
</a>
</g>
</g>
<!-- Node7 -->
<g id="node7" class="node">
<title>Node7</title>
<g id="a_node7"><a xlink:href="classast_1_1_ast_assign.html" target="_top" xlink:title="値の読み出しオブジェクト．">
<polygon fill="white" stroke="black" points="621,-665.5 621,-684.5 683,-684.5 683,-665.5 621,-665.5"/>
<text text-anchor="middle" x="652" y="-672.5" font-family="Helvetica,sans-Serif" font-size="10.00">AstAssign</text>
</a>
</g>
</g>
<!-- Node1&#45;&gt;Node7 -->
<g id="edge8" class="edge">
<title>Node1&#45;&gt;Node7</title>
<path fill="none" stroke="midnightblue" d="M512.59,-399.75C512.67,-449.77 519.95,-582.69 591,-656 598.83,-664.08 610.08,-668.74 620.72,-671.41"/>
<polygon fill="midnightblue" stroke="midnightblue" points="516.1,-399.66 512.68,-389.64 509.1,-399.61 516.1,-399.66"/>
</g>
<!-- Node8 -->
<g id="node8" class="node">
<title>Node8</title>
<g id="a_node8"><a xlink:href="classast_1_1_ast_converter.html" target="_top" xlink:title="値の変換のクラス。AstConv&lt;S,T&gt;の単なるラッパー">
<polygon fill="white" stroke="black" points="615,-627.5 615,-646.5 689,-646.5 689,-627.5 615,-627.5"/>
<text text-anchor="middle" x="652" y="-634.5" font-family="Helvetica,sans-Serif" font-size="10.00">AstConverter</text>
</a>
</g>
</g>
<!-- Node1&#45;&gt;Node8 -->
<g id="edge9" class="edge">
<title>Node1&#45;&gt;Node8</title>
<path fill="none" stroke="midnightblue" d="M513.67,-400.03C516.29,-445.37 529.03,-556.65 591,-618 597.52,-624.46 606.22,-628.72 614.97,-631.54"/>
<polygon fill="midnightblue" stroke="midnightblue" points="517.15,-399.59 513.19,-389.77 510.16,-399.92 517.15,-399.59"/>
</g>
<!-- Node10 -->
<g id="node10" class="node">
<title>Node10</title>
<g id="a_node10"><a xlink:href="classast_1_1_ast_data_writer.html" target="_top" xlink:title="局所変数環境からの値を書き込むクラス">
<polygon fill="white" stroke="black" points="613,-589.5 613,-608.5 691,-608.5 691,-589.5 613,-589.5"/>
<text text-anchor="middle" x="652" y="-596.5" font-family="Helvetica,sans-Serif" font-size="10.00">AstDataWriter</text>
</a>
</g>
</g>
<!-- Node1&#45;&gt;Node10 -->
<g id="edge11" class="edge">
<title>Node1&#45;&gt;Node10</title>
<path fill="none" stroke="midnightblue" d="M524.56,-398.35C552.66,-442.94 623.79,-555.82 644.96,-589.42"/>
<polygon fill="midnightblue" stroke="midnightblue" points="527.4,-396.29 519.11,-389.69 521.48,-400.02 527.4,-396.29"/>
</g>
<!-- Node17 -->
<g id="node17" class="node">
<title>Node17</title>
<g id="a_node17"><a xlink:href="classast_1_1_ast_list.html" target="_top" xlink:title="リストのテンプレート.">
<polygon fill="white" stroke="black" points="628.5,-446.5 628.5,-465.5 675.5,-465.5 675.5,-446.5 628.5,-446.5"/>
<text text-anchor="middle" x="652" y="-453.5" font-family="Helvetica,sans-Serif" font-size="10.00">AstList</text>
</a>
</g>
</g>
<!-- Node1&#45;&gt;Node17 -->
<g id="edge18" class="edge">
<title>Node1&#45;&gt;Node17</title>
<path fill="none" stroke="midnightblue" d="M539.25,-394.46C566.97,-409.72 609.89,-433.36 633.66,-446.45"/>
<polygon fill="midnightblue" stroke="midnightblue" points="540.93,-391.38 530.48,-389.63 537.55,-397.52 540.93,-391.38"/>
</g>
<!-- Node21 -->
<g id="node21" class="node">
<title>Node21</title>
<g id="a_node21"><a xlink:href="classast_1_1_ast_node_branch_tagged.html" target="_top" xlink:title="子それぞれにタグと型アイテムをもつ順序ノードAstNodeBranchのサブクラス．利用者は自前で，追加する子のField名と型を設定する．読み出しは子の添字のみで行う．">
<polygon fill="white" stroke="black" points="593.5,-389.5 593.5,-408.5 710.5,-408.5 710.5,-389.5 593.5,-389.5"/>
<text text-anchor="middle" x="652" y="-396.5" font-family="Helvetica,sans-Serif" font-size="10.00">AstNodeBranchTagged</text>
</a>
</g>
</g>
<!-- Node1&#45;&gt;Node21 -->
<g id="edge22" class="edge">
<title>Node1&#45;&gt;Node21</title>
<path fill="none" stroke="midnightblue" d="M565.29,-387.2C574.46,-388.46 584.05,-389.78 593.35,-391.06"/>
<polygon fill="midnightblue" stroke="midnightblue" points="565.54,-383.7 555.15,-385.8 564.58,-390.64 565.54,-383.7"/>
</g>
<!-- Node22 -->
<g id="node22" class="node">
<title>Node22</title>
<g id="a_node22"><a xlink:href="classast_1_1_ast_node_tagged.html" target="_top" xlink:title="タグ付きの子をもつノードのクラス．利用者は自前で，追加する子のField名と，Getter，型を設定する．読み出しは子の添字でも行える．">
<polygon fill="white" stroke="black" points="609,-351.5 609,-370.5 695,-370.5 695,-351.5 609,-351.5"/>
<text text-anchor="middle" x="652" y="-358.5" font-family="Helvetica,sans-Serif" font-size="10.00">AstNodeTagged</text>
</a>
</g>
</g>
<!-- Node1&#45;&gt;Node22 -->
<g id="edge23" class="edge">
<title>Node1&#45;&gt;Node22</title>
<path fill="none" stroke="midnightblue" d="M565.35,-372.79C579.65,-370.82 594.96,-368.72 608.63,-366.83"/>
<polygon fill="midnightblue" stroke="midnightblue" points="564.58,-369.36 555.15,-374.2 565.54,-376.3 564.58,-369.36"/>
</g>
<!-- Node28 -->
<g id="node28" class="node">
<title>Node28</title>
<g id="a_node28"><a xlink:href="classast_1_1_ast_node_tagged_settable.html" target="_top" xlink:title="タグ付きの子をもつノードのクラス．利用者は自前で，追加する子のField名と，Getter，Setter，型を設定する．読み出しは子の添字でも行える．">
<polygon fill="white" stroke="black" points="591,-304.5 591,-323.5 713,-323.5 713,-304.5 591,-304.5"/>
<text text-anchor="middle" x="652" y="-311.5" font-family="Helvetica,sans-Serif" font-size="10.00">AstNodeTaggedSettable</text>
</a>
</g>
</g>
<!-- Node1&#45;&gt;Node28 -->
<g id="edge29" class="edge">
<title>Node1&#45;&gt;Node28</title>
<path fill="none" stroke="midnightblue" d="M541.62,-365.91C556.35,-358.7 574.6,-349.82 591,-342 604.07,-335.77 618.81,-328.89 630.41,-323.5"/>
<polygon fill="midnightblue" stroke="midnightblue" points="539.95,-362.84 532.51,-370.38 543.03,-369.12 539.95,-362.84"/>
</g>
<!-- Node33 -->
<g id="node33" class="node">
<title>Node33</title>
<g id="a_node33"><a xlink:href="classast_1_1_ast_oper.html" target="_top" xlink:title=" ">
<polygon fill="white" stroke="black" points="625.5,-171.5 625.5,-190.5 678.5,-190.5 678.5,-171.5 625.5,-171.5"/>
<text text-anchor="middle" x="652" y="-178.5" font-family="Helvetica,sans-Serif" font-size="10.00">AstOper</text>
</a>
</g>
</g>
<!-- Node1&#45;&gt;Node33 -->
<g id="edge34" class="edge">
<title>Node1&#45;&gt;Node33</title>
<path fill="none" stroke="midnightblue" d="M525.36,-362.18C553.74,-321.25 622.78,-221.69 644.41,-190.5"/>
<polygon fill="midnightblue" stroke="midnightblue" points="522.48,-360.19 519.66,-370.4 528.23,-364.18 522.48,-360.19"/>
</g>
<!-- Node58 -->
<g id="node51" class="node">
<title>Node58</title>
<g id="a_node51"><a xlink:href="classast_1_1_ast_source.html" target="_top" xlink:title="入力ストリームを表すノードのクラス">
<polygon fill="white" stroke="black" points="621,-76.5 621,-95.5 683,-95.5 683,-76.5 621,-76.5"/>
<text text-anchor="middle" x="652" y="-83.5" font-family="Helvetica,sans-Serif" font-size="10.00">AstSource</text>
</a>
</g>
</g>
<!-- Node1&#45;&gt;Node58 -->
<g id="edge52" class="edge">
<title>Node1&#45;&gt;Node58</title>
<path fill="none" stroke="midnightblue" d="M517.68,-360.56C527.59,-321.34 552.98,-230.63 591,-162 605.5,-135.83 628.84,-109.31 641.72,-95.58"/>
<polygon fill="midnightblue" stroke="midnightblue" points="514.25,-359.85 515.24,-370.4 521.04,-361.53 514.25,-359.85"/>
</g>
<!-- Node61 -->
<g id="node54" class="node">
<title>Node61</title>
<g id="a_node54"><a xlink:href="classast_1_1_ast_var_decl.html" target="_top" xlink:title="値の読み出しオブジェクト．">
<polygon fill="white" stroke="black" points="619,-38.5 619,-57.5 685,-57.5 685,-38.5 619,-38.5"/>
<text text-anchor="middle" x="652" y="-45.5" font-family="Helvetica,sans-Serif" font-size="10.00">AstVarDecl</text>
</a>
</g>
</g>
<!-- Node1&#45;&gt;Node61 -->
<g id="edge55" class="edge">
<title>Node1&#45;&gt;Node61</title>
<path fill="none" stroke="midnightblue" d="M515.38,-360.35C523.23,-298.69 550.12,-110.52 591,-67 598.26,-59.28 608.63,-54.68 618.71,-51.94"/>
<polygon fill="midnightblue" stroke="midnightblue" points="511.9,-359.97 514.14,-370.33 518.85,-360.84 511.9,-359.97"/>
</g>
<!-- Node2 -->
<g id="node2" class="node">
<title>Node2</title>
<g id="a_node2"><a xlink:href="classast_1_1_ast_node.html" target="_top" xlink:title=" ">
<polygon fill="white" stroke="black" points="340.5,-408.5 340.5,-427.5 395.5,-427.5 395.5,-408.5 340.5,-408.5"/>
<text text-anchor="middle" x="368" y="-415.5" font-family="Helvetica,sans-Serif" font-size="10.00">AstNode</text>
</a>
</g>
</g>
<!-- Node2&#45;&gt;Node1 -->
<g id="edge1" class="edge">
<title>Node2&#45;&gt;Node1</title>
<path fill="none" stroke="midnightblue" d="M405.44,-408.25C426.91,-402.5 453.96,-395.27 475.29,-389.56"/>
<polygon fill="midnightblue" stroke="midnightblue" points="404.46,-404.89 395.71,-410.85 406.27,-411.65 404.46,-404.89"/>
</g>
<!-- Node3 -->
<g id="node3" class="node">
<title>Node3</title>
<g id="a_node3"><a xlink:href="interfaceformat_1_1_x_formattable.html" target="_top" xlink:title="入れ子フォーマット出力可能なオブジェクトのインタフェース。">
<polygon fill="white" stroke="black" points="0,-370.5 0,-389.5 75,-389.5 75,-370.5 0,-370.5"/>
<text text-anchor="middle" x="37.5" y="-377.5" font-family="Helvetica,sans-Serif" font-size="10.00">XFormattable</text>
</a>
</g>
</g>
<!-- Node3&#45;&gt;Node2 -->
<g id="edge2" class="edge">
<title>Node3&#45;&gt;Node2</title>
<path fill="none" stroke="midnightblue" d="M79.82,-392.22C89.94,-394.82 100.8,-397.3 111,-399 193.86,-412.81 293.5,-416.59 340.27,-417.62"/>
<polygon fill="midnightblue" stroke="midnightblue" points="80.56,-388.79 69.99,-389.59 78.75,-395.55 80.56,-388.79"/>
</g>
<!-- Node5 -->
<g id="node5" class="node">
<title>Node5</title>
<g id="a_node5"><a xlink:href="interfaceformat_1_1_x_formattable_1_1_label_formattable.html" target="_top" xlink:title="カスタム清書出力器をもつオブジェクトのクラス．">
<polygon fill="white" stroke="black" points="112.5,-370.5 112.5,-389.5 265.5,-389.5 265.5,-370.5 112.5,-370.5"/>
<text text-anchor="middle" x="189" y="-377.5" font-family="Helvetica,sans-Serif" font-size="10.00">XFormattable.LabelFormattable</text>
</a>
</g>
</g>
<!-- Node3&#45;&gt;Node5 -->
<g id="edge5" class="edge">
<title>Node3&#45;&gt;Node5</title>
<path fill="none" stroke="midnightblue" d="M85.25,-380C93.87,-380 103.06,-380 112.28,-380"/>
<polygon fill="midnightblue" stroke="midnightblue" points="85.07,-376.5 75.07,-380 85.07,-383.5 85.07,-376.5"/>
</g>
<!-- Node6 -->
<g id="node6" class="node">
<title>Node6</title>
<g id="a_node6"><a xlink:href="interfaceformat_1_1_x_formattable_1_1_typed_formattable.html" target="_top" xlink:title="ノードの型情報をもつ書式出力可能なオブジェクトのインタフェース．">
<polygon fill="white" stroke="black" points="111,-332.5 111,-351.5 267,-351.5 267,-332.5 111,-332.5"/>
<text text-anchor="middle" x="189" y="-339.5" font-family="Helvetica,sans-Serif" font-size="10.00">XFormattable.TypedFormattable</text>
</a>
</g>
</g>
<!-- Node3&#45;&gt;Node6 -->
<g id="edge7" class="edge">
<title>Node3&#45;&gt;Node6</title>
<path fill="none" stroke="midnightblue" d="M84.38,-367.87C93.21,-365.57 102.39,-363.19 111,-361 123.28,-357.88 136.67,-354.54 148.8,-351.56"/>
<polygon fill="midnightblue" stroke="midnightblue" points="83.4,-364.51 74.61,-370.43 85.17,-371.28 83.4,-364.51"/>
</g>
<!-- Node4 -->
<g id="node4" class="node">
<title>Node4</title>
<g id="a_node4"><a xlink:href="interfaceformat_1_1_x_formattable_1_1_navigatable.html" target="_top" xlink:title="木構造の分岐ノードとして清書可能なオブジェクトのクラス">
<polygon fill="white" stroke="black" points="303,-370.5 303,-389.5 433,-389.5 433,-370.5 303,-370.5"/>
<text text-anchor="middle" x="368" y="-377.5" font-family="Helvetica,sans-Serif" font-size="10.00">XFormattable.Navigatable</text>
</a>
</g>
</g>
<!-- Node4&#45;&gt;Node1 -->
<g id="edge3" class="edge">
<title>Node4&#45;&gt;Node1</title>
<path fill="none" stroke="midnightblue" d="M443.54,-380C452.21,-380 460.81,-380 468.83,-380"/>
<polygon fill="midnightblue" stroke="midnightblue" points="443.35,-376.5 433.35,-380 443.35,-383.5 443.35,-376.5"/>
</g>
<!-- Node5&#45;&gt;Node4 -->
<g id="edge4" class="edge">
<title>Node5&#45;&gt;Node4</title>
<path fill="none" stroke="midnightblue" d="M275.81,-380C284.9,-380 294.04,-380 302.82,-380"/>
<polygon fill="midnightblue" stroke="midnightblue" points="275.58,-376.5 265.58,-380 275.58,-383.5 275.58,-376.5"/>
</g>
<!-- Node6&#45;&gt;Node1 -->
<g id="edge6" class="edge">
<title>Node6&#45;&gt;Node1</title>
<path fill="none" stroke="midnightblue" d="M277.29,-345.42C323.74,-348.1 381.71,-352.8 433,-361 447.59,-363.33 463.47,-366.99 477.07,-370.48"/>
<polygon fill="midnightblue" stroke="midnightblue" points="277.44,-341.92 267.26,-344.86 277.05,-348.91 277.44,-341.92"/>
</g>
<!-- Node9 -->
<g id="node9" class="node">
<title>Node9</title>
<g id="a_node9"><a xlink:href="classast_1_1_ast_converter_1_1_ast_conv.html" target="_top" xlink:title="S型の値をT型の値に変換するアダプタ">
<polygon fill="white" stroke="black" points="764,-761 764,-791 879,-791 879,-761 764,-761"/>
<text text-anchor="start" x="772" y="-779" font-family="Helvetica,sans-Serif" font-size="10.00">AstConverter.AstConv</text>
<text text-anchor="middle" x="821.5" y="-768" font-family="Helvetica,sans-Serif" font-size="10.00">&lt; S, T &gt;</text>
</a>
</g>
</g>
<!-- Node8&#45;&gt;Node9 -->
<g id="edge10" class="edge">
<title>Node8&#45;&gt;Node9</title>
<path fill="none" stroke="midnightblue" d="M698.75,-646.55C703.97,-649.01 708.88,-652.1 713,-656 745.8,-687.03 716.66,-719.49 749,-751 753.33,-755.22 758.42,-758.73 763.84,-761.65"/>
<polygon fill="midnightblue" stroke="midnightblue" points="699.73,-643.17 689.14,-642.77 697.17,-649.68 699.73,-643.17"/>
</g>
<!-- Node11 -->
<g id="node11" class="node">
<title>Node11</title>
<g id="a_node11"><a xlink:href="classast_1_1_ast_data_writer_1_1_writer_boolean.html" target="_top" xlink:title="ブール型の値をもつ局所変数">
<polygon fill="white" stroke="black" points="751,-722.5 751,-741.5 892,-741.5 892,-722.5 751,-722.5"/>
<text text-anchor="middle" x="821.5" y="-729.5" font-family="Helvetica,sans-Serif" font-size="10.00">AstDataWriter.WriterBoolean</text>
</a>
</g>
</g>
<!-- Node10&#45;&gt;Node11 -->
<g id="edge12" class="edge">
<title>Node10&#45;&gt;Node11</title>
<path fill="none" stroke="midnightblue" d="M700.24,-609.27C704.9,-611.61 709.28,-614.48 713,-618 745.8,-649.03 715.48,-682.75 749,-713 753.29,-716.87 758.28,-719.97 763.6,-722.45"/>
<polygon fill="midnightblue" stroke="midnightblue" points="701.59,-606.04 691.02,-605.4 698.88,-612.5 701.59,-606.04"/>
</g>
<!-- Node12 -->
<g id="node12" class="node">
<title>Node12</title>
<g id="a_node12"><a xlink:href="classast_1_1_ast_data_writer_1_1_writer_double.html" target="_top" xlink:title="Double型の値をもつ局所変数">
<polygon fill="white" stroke="black" points="753,-684.5 753,-703.5 890,-703.5 890,-684.5 753,-684.5"/>
<text text-anchor="middle" x="821.5" y="-691.5" font-family="Helvetica,sans-Serif" font-size="10.00">AstDataWriter.WriterDouble</text>
</a>
</g>
</g>
<!-- Node10&#45;&gt;Node12 -->
<g id="edge13" class="edge">
<title>Node10&#45;&gt;Node12</title>
<path fill="none" stroke="midnightblue" d="M700.48,-610.48C704.93,-612.58 709.2,-615.07 713,-618 736.72,-636.3 724.85,-657.26 749,-675 754.28,-678.88 760.29,-681.97 766.54,-684.42"/>
<polygon fill="midnightblue" stroke="midnightblue" points="701.73,-607.21 691.15,-606.67 699.08,-613.69 701.73,-607.21"/>
</g>
<!-- Node13 -->
<g id="node13" class="node">
<title>Node13</title>
<g id="a_node13"><a xlink:href="classast_1_1_ast_data_writer_1_1_writer_integer.html" target="_top" xlink:title="Integer型の値をもつ局所変数">
<polygon fill="white" stroke="black" points="753.5,-646.5 753.5,-665.5 889.5,-665.5 889.5,-646.5 753.5,-646.5"/>
<text text-anchor="middle" x="821.5" y="-653.5" font-family="Helvetica,sans-Serif" font-size="10.00">AstDataWriter.WriterInteger</text>
</a>
</g>
</g>
<!-- Node10&#45;&gt;Node13 -->
<g id="edge14" class="edge">
<title>Node10&#45;&gt;Node13</title>
<path fill="none" stroke="midnightblue" d="M696.22,-611.66C701.92,-613.63 707.64,-615.76 713,-618 729.69,-624.98 732.15,-630.41 749,-637 758.21,-640.6 768.35,-643.75 778.02,-646.4"/>
<polygon fill="midnightblue" stroke="midnightblue" points="697.3,-608.33 686.71,-608.51 695.1,-614.98 697.3,-608.33"/>
</g>
<!-- Node14 -->
<g id="node14" class="node">
<title>Node14</title>
<g id="a_node14"><a xlink:href="classast_1_1_ast_data_writer_1_1_writer_o_stream.html" target="_top" xlink:title="String型の値をもつ局所変数">
<polygon fill="white" stroke="black" points="749,-608.5 749,-627.5 894,-627.5 894,-608.5 749,-608.5"/>
<text text-anchor="middle" x="821.5" y="-615.5" font-family="Helvetica,sans-Serif" font-size="10.00">AstDataWriter.WriterOStream</text>
</a>
</g>
</g>
<!-- Node10&#45;&gt;Node14 -->
<g id="edge15" class="edge">
<title>Node10&#45;&gt;Node14</title>
<path fill="none" stroke="midnightblue" d="M700.97,-604.44C715.84,-606.13 732.56,-608.02 748.68,-609.85"/>
<polygon fill="midnightblue" stroke="midnightblue" points="701.34,-600.96 691.01,-603.31 700.55,-607.92 701.34,-600.96"/>
</g>
<!-- Node15 -->
<g id="node15" class="node">
<title>Node15</title>
<g id="a_node15"><a xlink:href="classast_1_1_ast_data_writer_1_1_writer_string.html" target="_top" xlink:title="String型の値をもつ局所変数">
<polygon fill="white" stroke="black" points="756,-570.5 756,-589.5 887,-589.5 887,-570.5 756,-570.5"/>
<text text-anchor="middle" x="821.5" y="-577.5" font-family="Helvetica,sans-Serif" font-size="10.00">AstDataWriter.WriterString</text>
</a>
</g>
</g>
<!-- Node10&#45;&gt;Node15 -->
<g id="edge16" class="edge">
<title>Node10&#45;&gt;Node15</title>
<path fill="none" stroke="midnightblue" d="M701.24,-593.53C718.21,-591.6 737.58,-589.41 755.69,-587.35"/>
<polygon fill="midnightblue" stroke="midnightblue" points="700.55,-590.08 691.01,-594.69 701.34,-597.04 700.55,-590.08"/>
</g>
<!-- Node16 -->
<g id="node16" class="node">
<title>Node16</title>
<g id="a_node16"><a xlink:href="classast_1_1_ast_data_writer_1_1_writer_void.html" target="_top" xlink:title="Void型の値をもつ局所変数">
<polygon fill="white" stroke="black" points="759,-532.5 759,-551.5 884,-551.5 884,-532.5 759,-532.5"/>
<text text-anchor="middle" x="821.5" y="-539.5" font-family="Helvetica,sans-Serif" font-size="10.00">AstDataWriter.WriterVoid</text>
</a>
</g>
</g>
<!-- Node10&#45;&gt;Node16 -->
<g id="edge17" class="edge">
<title>Node10&#45;&gt;Node16</title>
<path fill="none" stroke="midnightblue" d="M684.66,-585.38C703.21,-577.68 727.21,-568.18 749,-561 759.37,-557.58 770.73,-554.34 781.29,-551.53"/>
<polygon fill="midnightblue" stroke="midnightblue" points="683.1,-582.25 675.23,-589.34 685.8,-588.7 683.1,-582.25"/>
</g>
<!-- Node18 -->
<g id="node18" class="node">
<title>Node18</title>
<g id="a_node18"><a xlink:href="classast_1_1_ast_list_1_1_list_wrapper.html" target="_top" xlink:title="Javaの基本型データの清書用の包み込みアトム">
<polygon fill="white" stroke="black" points="758.5,-494.5 758.5,-513.5 884.5,-513.5 884.5,-494.5 758.5,-494.5"/>
<text text-anchor="middle" x="821.5" y="-501.5" font-family="Helvetica,sans-Serif" font-size="10.00">AstList.ListWrapper&lt; T &gt;</text>
</a>
</g>
</g>
<!-- Node17&#45;&gt;Node18 -->
<g id="edge19" class="edge">
<title>Node17&#45;&gt;Node18</title>
<path fill="none" stroke="midnightblue" d="M685.55,-466.13C704.1,-471.83 727.8,-478.98 749,-485 760.24,-488.19 772.53,-491.51 783.69,-494.47"/>
<polygon fill="midnightblue" stroke="midnightblue" points="686.41,-462.73 675.82,-463.13 684.35,-469.42 686.41,-462.73"/>
</g>
<!-- Node19 -->
<g id="node19" class="node">
<title>Node19</title>
<g id="a_node19"><a xlink:href="classast_1_1_ast_list_1_1_sent_list.html" target="_top" xlink:title="文Sentenceのリスト.">
<polygon fill="white" stroke="black" points="778.5,-456.5 778.5,-475.5 864.5,-475.5 864.5,-456.5 778.5,-456.5"/>
<text text-anchor="middle" x="821.5" y="-463.5" font-family="Helvetica,sans-Serif" font-size="10.00">AstList.SentList</text>
</a>
</g>
</g>
<!-- Node17&#45;&gt;Node19 -->
<g id="edge20" class="edge">
<title>Node17&#45;&gt;Node19</title>
<path fill="none" stroke="midnightblue" d="M685.85,-457.96C712.31,-459.54 749.68,-461.77 778.34,-463.48"/>
<polygon fill="midnightblue" stroke="midnightblue" points="685.78,-454.45 675.59,-457.35 685.36,-461.44 685.78,-454.45"/>
</g>
<!-- Node20 -->
<g id="node20" class="node">
<title>Node20</title>
<g id="a_node20"><a xlink:href="classast_1_1_ast_list_1_1_step_list.html" target="_top" xlink:title="ステップのリスト.">
<polygon fill="white" stroke="black" points="778.5,-418.5 778.5,-437.5 864.5,-437.5 864.5,-418.5 778.5,-418.5"/>
<text text-anchor="middle" x="821.5" y="-425.5" font-family="Helvetica,sans-Serif" font-size="10.00">AstList.StepList</text>
</a>
</g>
</g>
<!-- Node17&#45;&gt;Node20 -->
<g id="edge21" class="edge">
<title>Node17&#45;&gt;Node20</title>
<path fill="none" stroke="midnightblue" d="M685.5,-450.57C711.97,-446.14 749.55,-439.86 778.34,-435.05"/>
<polygon fill="midnightblue" stroke="midnightblue" points="684.88,-447.12 675.59,-452.22 686.03,-454.03 684.88,-447.12"/>
</g>
<!-- Node23 -->
<g id="node23" class="node">
<title>Node23</title>
<g id="a_node23"><a xlink:href="classast_1_1_block_base.html" target="_top" xlink:title="抽象構文木のステップ式のクラス.">
<polygon fill="white" stroke="black" points="789.5,-380.5 789.5,-399.5 853.5,-399.5 853.5,-380.5 789.5,-380.5"/>
<text text-anchor="middle" x="821.5" y="-387.5" font-family="Helvetica,sans-Serif" font-size="10.00">BlockBase</text>
</a>
</g>
</g>
<!-- Node22&#45;&gt;Node23 -->
<g id="edge24" class="edge">
<title>Node22&#45;&gt;Node23</title>
<path fill="none" stroke="midnightblue" d="M705.17,-370.03C732.77,-374.81 765.75,-380.52 789.35,-384.61"/>
<polygon fill="midnightblue" stroke="midnightblue" points="705.72,-366.58 695.27,-368.32 704.52,-373.47 705.72,-366.58"/>
</g>
<!-- Node27 -->
<g id="node27" class="node">
<title>Node27</title>
<g id="a_node27"><a xlink:href="classmachine_1_1_program.html" target="_top" xlink:title="ルールの集合からなるコンパイル済みのプログラム.">
<polygon fill="white" stroke="black" points="795,-342.5 795,-361.5 848,-361.5 848,-342.5 795,-342.5"/>
<text text-anchor="middle" x="821.5" y="-349.5" font-family="Helvetica,sans-Serif" font-size="10.00">Program</text>
</a>
</g>
</g>
<!-- Node22&#45;&gt;Node27 -->
<g id="edge28" class="edge">
<title>Node22&#45;&gt;Node27</title>
<path fill="none" stroke="midnightblue" d="M705.52,-358.18C735.32,-356.58 771.27,-354.65 794.95,-353.37"/>
<polygon fill="midnightblue" stroke="midnightblue" points="705.07,-354.7 695.27,-358.73 705.44,-361.69 705.07,-354.7"/>
</g>
<!-- Node24 -->
<g id="node24" class="node">
<title>Node24</title>
<g id="a_node24"><a xlink:href="classast_1_1_block.html" target="_top" xlink:title="抽象構文木のステップ式のクラス.">
<polygon fill="white" stroke="black" points="972.5,-408.5 972.5,-427.5 1013.5,-427.5 1013.5,-408.5 972.5,-408.5"/>
<text text-anchor="middle" x="993" y="-415.5" font-family="Helvetica,sans-Serif" font-size="10.00">Block</text>
</a>
</g>
</g>
<!-- Node23&#45;&gt;Node24 -->
<g id="edge25" class="edge">
<title>Node23&#45;&gt;Node24</title>
<path fill="none" stroke="midnightblue" d="M863.82,-396.83C898.25,-402.51 945.79,-410.37 972.23,-414.73"/>
<polygon fill="midnightblue" stroke="midnightblue" points="864.03,-393.31 853.59,-395.14 862.88,-400.22 864.03,-393.31"/>
</g>
<!-- Node25 -->
<g id="node25" class="node">
<title>Node25</title>
<g id="a_node25"><a xlink:href="classast_1_1_step.html" target="_top" xlink:title="抽象構文木のステップ式のクラス.">
<polygon fill="white" stroke="black" points="974.5,-370.5 974.5,-389.5 1011.5,-389.5 1011.5,-370.5 974.5,-370.5"/>
<text text-anchor="middle" x="993" y="-377.5" font-family="Helvetica,sans-Serif" font-size="10.00">Step</text>
</a>
</g>
</g>
<!-- Node23&#45;&gt;Node25 -->
<g id="edge26" class="edge">
<title>Node23&#45;&gt;Node25</title>
<path fill="none" stroke="midnightblue" d="M863.6,-387.58C898.88,-385.49 948.06,-382.59 974.13,-381.05"/>
<polygon fill="midnightblue" stroke="midnightblue" points="863.37,-384.08 853.59,-388.17 863.78,-391.07 863.37,-384.08"/>
</g>
<!-- Node26 -->
<g id="node26" class="node">
<title>Node26</title>
<g id="a_node26"><a xlink:href="classast_1_1_step_rule.html" target="_top" xlink:title="XMで実行可能（Steppaoble）な計算単位であるルールを表すオブジェクト.">
<polygon fill="white" stroke="black" points="1133.5,-370.5 1133.5,-389.5 1190.5,-389.5 1190.5,-370.5 1133.5,-370.5"/>
<text text-anchor="middle" x="1162" y="-377.5" font-family="Helvetica,sans-Serif" font-size="10.00">StepRule</text>
</a>
</g>
</g>
<!-- Node25&#45;&gt;Node26 -->
<g id="edge27" class="edge">
<title>Node25&#45;&gt;Node26</title>
<path fill="none" stroke="midnightblue" d="M1021.66,-380C1052.65,-380 1102.57,-380 1133.5,-380"/>
<polygon fill="midnightblue" stroke="midnightblue" points="1021.56,-376.5 1011.56,-380 1021.56,-383.5 1021.56,-376.5"/>
</g>
<!-- Node29 -->
<g id="node29" class="node">
<title>Node29</title>
<g id="a_node29"><a xlink:href="classast_1_1_ast_oper_tagged.html" target="_top" xlink:title=" ">
<polygon fill="white" stroke="black" points="779.5,-304.5 779.5,-323.5 863.5,-323.5 863.5,-304.5 779.5,-304.5"/>
<text text-anchor="middle" x="821.5" y="-311.5" font-family="Helvetica,sans-Serif" font-size="10.00">AstOperTagged</text>
</a>
</g>
</g>
<!-- Node28&#45;&gt;Node29 -->
<g id="edge30" class="edge">
<title>Node28&#45;&gt;Node29</title>
<path fill="none" stroke="midnightblue" d="M723.63,-314C742.68,-314 762.66,-314 779.5,-314"/>
<polygon fill="midnightblue" stroke="midnightblue" points="723.47,-310.5 713.47,-314 723.47,-317.5 723.47,-310.5"/>
</g>
<!-- Node32 -->
<g id="node32" class="node">
<title>Node32</title>
<g id="a_node32"><a xlink:href="classast_1_1_ast_scan_from.html" target="_top" xlink:title=" ">
<polygon fill="white" stroke="black" points="783,-266.5 783,-285.5 860,-285.5 860,-266.5 783,-266.5"/>
<text text-anchor="middle" x="821.5" y="-273.5" font-family="Helvetica,sans-Serif" font-size="10.00">AstScanFrom</text>
</a>
</g>
</g>
<!-- Node28&#45;&gt;Node32 -->
<g id="edge33" class="edge">
<title>Node28&#45;&gt;Node32</title>
<path fill="none" stroke="midnightblue" d="M705.03,-302.2C730.2,-296.49 759.86,-289.76 782.82,-284.55"/>
<polygon fill="midnightblue" stroke="midnightblue" points="704.25,-298.79 695.27,-304.41 705.79,-305.61 704.25,-298.79"/>
</g>
<!-- Node30 -->
<g id="node30" class="node">
<title>Node30</title>
<g id="a_node30"><a xlink:href="classast_1_1_ast_if.html" target="_top" xlink:title="抽象構文木のステップ式のクラス.">
<polygon fill="white" stroke="black" points="974,-323.5 974,-342.5 1012,-342.5 1012,-323.5 974,-323.5"/>
<text text-anchor="middle" x="993" y="-330.5" font-family="Helvetica,sans-Serif" font-size="10.00">AstIf</text>
</a>
</g>
</g>
<!-- Node29&#45;&gt;Node30 -->
<g id="edge31" class="edge">
<title>Node29&#45;&gt;Node30</title>
<path fill="none" stroke="midnightblue" d="M873.73,-319.74C907.56,-323.54 949.9,-328.28 973.64,-330.94"/>
<polygon fill="midnightblue" stroke="midnightblue" points="873.86,-316.24 863.53,-318.6 873.08,-323.19 873.86,-316.24"/>
</g>
<!-- Node31 -->
<g id="node31" class="node">
<title>Node31</title>
<g id="a_node31"><a xlink:href="classast_1_1_ast_let.html" target="_top" xlink:title="値の読み出しオブジェクト．">
<polygon fill="white" stroke="black" points="970.5,-285.5 970.5,-304.5 1015.5,-304.5 1015.5,-285.5 970.5,-285.5"/>
<text text-anchor="middle" x="993" y="-292.5" font-family="Helvetica,sans-Serif" font-size="10.00">AstLet</text>
</a>
</g>
</g>
<!-- Node29&#45;&gt;Node31 -->
<g id="edge32" class="edge">
<title>Node29&#45;&gt;Node31</title>
<path fill="none" stroke="midnightblue" d="M873.74,-308.26C906.11,-304.63 946.26,-300.13 970.47,-297.41"/>
<polygon fill="midnightblue" stroke="midnightblue" points="873.08,-304.81 863.53,-309.4 873.86,-311.76 873.08,-304.81"/>
</g>
<!-- Node34 -->
<g id="node34" class="node">
<title>Node34</title>
<g id="a_node34"><a xlink:href="classast_1_1_ast_func_call.html" target="_top" xlink:title=" ">
<polygon fill="white" stroke="black" points="786,-228.5 786,-247.5 857,-247.5 857,-228.5 786,-228.5"/>
<text text-anchor="middle" x="821.5" y="-235.5" font-family="Helvetica,sans-Serif" font-size="10.00">AstFuncCall</text>
</a>
</g>
</g>
<!-- Node33&#45;&gt;Node34 -->
<g id="edge35" class="edge">
<title>Node33&#45;&gt;Node34</title>
<path fill="none" stroke="midnightblue" d="M684.66,-194.62C703.21,-202.32 727.21,-211.82 749,-219 760.83,-222.9 773.96,-226.57 785.71,-229.63"/>
<polygon fill="midnightblue" stroke="midnightblue" points="685.8,-191.3 675.23,-190.66 683.1,-197.75 685.8,-191.3"/>
</g>
<!-- Node35 -->
<g id="node35" class="node">
<title>Node35</title>
<g id="a_node35"><a xlink:href="classast_1_1_ast_math_oper.html" target="_top" xlink:title="値を返すことができるノードのクラス．一般に1個以上の子をもつ演算子である．">
<polygon fill="white" stroke="black" points="784.5,-190.5 784.5,-209.5 858.5,-209.5 858.5,-190.5 784.5,-190.5"/>
<text text-anchor="middle" x="821.5" y="-197.5" font-family="Helvetica,sans-Serif" font-size="10.00">AstMathOper</text>
</a>
</g>
</g>
<!-- Node33&#45;&gt;Node35 -->
<g id="edge36" class="edge">
<title>Node33&#45;&gt;Node35</title>
<path fill="none" stroke="midnightblue" d="M689.03,-185.09C717.21,-188.28 756.21,-192.71 784.4,-195.91"/>
<polygon fill="midnightblue" stroke="midnightblue" points="689.14,-181.58 678.8,-183.93 688.35,-188.53 689.14,-181.58"/>
</g>
<!-- Node49 -->
<g id="node42" class="node">
<title>Node49</title>
<g id="a_node42"><a xlink:title=" ">
<polygon fill="white" stroke="#bfbfbf" points="787.5,-152.5 787.5,-171.5 855.5,-171.5 855.5,-152.5 787.5,-152.5"/>
<text text-anchor="middle" x="821.5" y="-159.5" font-family="Helvetica,sans-Serif" font-size="10.00">AstRelOper</text>
</a>
</g>
</g>
<!-- Node33&#45;&gt;Node49 -->
<g id="edge43" class="edge">
<title>Node33&#45;&gt;Node49</title>
<path fill="none" stroke="midnightblue" d="M689,-176.92C718.21,-173.6 759.07,-168.97 787.46,-165.75"/>
<polygon fill="midnightblue" stroke="midnightblue" points="688.35,-173.47 678.8,-178.07 689.14,-180.42 688.35,-173.47"/>
</g>
<!-- Node56 -->
<g id="node49" class="node">
<title>Node56</title>
<g id="a_node49"><a xlink:href="classast_1_1_ast_return.html" target="_top" xlink:title="リターン式のクラス．値を返すことができる．">
<polygon fill="white" stroke="black" points="791,-114.5 791,-133.5 852,-133.5 852,-114.5 791,-114.5"/>
<text text-anchor="middle" x="821.5" y="-121.5" font-family="Helvetica,sans-Serif" font-size="10.00">AstReturn</text>
</a>
</g>
</g>
<!-- Node33&#45;&gt;Node56 -->
<g id="edge50" class="edge">
<title>Node33&#45;&gt;Node56</title>
<path fill="none" stroke="midnightblue" d="M684.66,-167.38C703.21,-159.68 727.21,-150.18 749,-143 762.54,-138.54 777.78,-134.37 790.7,-131.09"/>
<polygon fill="midnightblue" stroke="midnightblue" points="683.1,-164.25 675.23,-171.34 685.8,-170.7 683.1,-164.25"/>
</g>
<!-- Node57 -->
<g id="node50" class="node">
<title>Node57</title>
<g id="a_node50"><a xlink:href="classast_1_1_ast_template.html" target="_top" xlink:title=" ">
<polygon fill="white" stroke="black" points="786,-76.5 786,-95.5 857,-95.5 857,-76.5 786,-76.5"/>
<text text-anchor="middle" x="821.5" y="-83.5" font-family="Helvetica,sans-Serif" font-size="10.00">AstTemplate</text>
</a>
</g>
</g>
<!-- Node33&#45;&gt;Node57 -->
<g id="edge51" class="edge">
<title>Node33&#45;&gt;Node57</title>
<path fill="none" stroke="midnightblue" d="M669.82,-164.08C687.89,-146.82 718.18,-120.45 749,-105 760.48,-99.24 773.9,-95.09 786,-92.16"/>
<polygon fill="midnightblue" stroke="midnightblue" points="667.13,-161.81 662.42,-171.3 672.02,-166.82 667.13,-161.81"/>
</g>
<!-- Node36 -->
<g id="node36" class="node">
<title>Node36</title>
<g id="a_node36"><a xlink:href="classast_1_1_ast_math_oper_1_1_binary_oper.html" target="_top" xlink:title="end of class AstMathOper">
<polygon fill="white" stroke="black" points="930.5,-228.5 930.5,-247.5 1055.5,-247.5 1055.5,-228.5 930.5,-228.5"/>
<text text-anchor="middle" x="993" y="-235.5" font-family="Helvetica,sans-Serif" font-size="10.00">AstMathOper.BinaryOper</text>
</a>
</g>
</g>
<!-- Node35&#45;&gt;Node36 -->
<g id="edge37" class="edge">
<title>Node35&#45;&gt;Node36</title>
<path fill="none" stroke="midnightblue" d="M868.9,-210.4C894.04,-216.04 924.89,-222.95 949.41,-228.45"/>
<polygon fill="midnightblue" stroke="midnightblue" points="869.39,-206.92 858.86,-208.15 867.85,-213.75 869.39,-206.92"/>
</g>
<!-- Node37 -->
<g id="node37" class="node">
<title>Node37</title>
<g id="a_node37"><a xlink:href="classast_1_1_ast_math_oper_1_1_boolean_oper.html" target="_top" xlink:title=" ">
<polygon fill="white" stroke="red" points="1095.5,-304.5 1095.5,-323.5 1228.5,-323.5 1228.5,-304.5 1095.5,-304.5"/>
<text text-anchor="middle" x="1162" y="-311.5" font-family="Helvetica,sans-Serif" font-size="10.00">AstMathOper.BooleanOper</text>
</a>
</g>
</g>
<!-- Node36&#45;&gt;Node37 -->
<g id="edge38" class="edge">
<title>Node36&#45;&gt;Node37</title>
<path fill="none" stroke="midnightblue" d="M1017.87,-252.84C1041.84,-267.57 1077.28,-288.81 1092,-295 1100.71,-298.66 1110.32,-301.82 1119.55,-304.45"/>
<polygon fill="midnightblue" stroke="midnightblue" points="1019.66,-249.83 1009.31,-247.56 1015.98,-255.79 1019.66,-249.83"/>
</g>
<!-- Node41 -->
<g id="node38" class="node">
<title>Node41</title>
<g id="a_node38"><a xlink:href="classast_1_1_ast_math_oper_1_1_double_oper.html" target="_top" xlink:title=" ">
<polygon fill="white" stroke="black" points="1098,-266.5 1098,-285.5 1226,-285.5 1226,-266.5 1098,-266.5"/>
<text text-anchor="middle" x="1162" y="-273.5" font-family="Helvetica,sans-Serif" font-size="10.00">AstMathOper.DoubleOper</text>
</a>
</g>
</g>
<!-- Node36&#45;&gt;Node41 -->
<g id="edge39" class="edge">
<title>Node36&#45;&gt;Node41</title>
<path fill="none" stroke="midnightblue" d="M1045.96,-249.82C1069.51,-255.18 1096.97,-261.43 1119.16,-266.48"/>
<polygon fill="midnightblue" stroke="midnightblue" points="1046.67,-246.4 1036.14,-247.59 1045.12,-253.22 1046.67,-246.4"/>
</g>
<!-- Node42 -->
<g id="node39" class="node">
<title>Node42</title>
<g id="a_node39"><a xlink:href="classast_1_1_ast_math_oper_1_1_integer_oper.html" target="_top" xlink:title=" ">
<polygon fill="white" stroke="red" points="1098,-228.5 1098,-247.5 1226,-247.5 1226,-228.5 1098,-228.5"/>
<text text-anchor="middle" x="1162" y="-235.5" font-family="Helvetica,sans-Serif" font-size="10.00">AstMathOper.IntegerOper</text>
</a>
</g>
</g>
<!-- Node36&#45;&gt;Node42 -->
<g id="edge40" class="edge">
<title>Node36&#45;&gt;Node42</title>
<path fill="none" stroke="midnightblue" d="M1065.83,-238C1076.49,-238 1087.4,-238 1097.87,-238"/>
<polygon fill="midnightblue" stroke="midnightblue" points="1065.71,-234.5 1055.71,-238 1065.71,-241.5 1065.71,-234.5"/>
</g>
<!-- Node46 -->
<g id="node40" class="node">
<title>Node46</title>
<g id="a_node40"><a xlink:href="classast_1_1_ast_math_oper_1_1_number_oper.html" target="_top" xlink:title=" ">
<polygon fill="white" stroke="red" points="1096,-190.5 1096,-209.5 1228,-209.5 1228,-190.5 1096,-190.5"/>
<text text-anchor="middle" x="1162" y="-197.5" font-family="Helvetica,sans-Serif" font-size="10.00">AstMathOper.NumberOper</text>
</a>
</g>
</g>
<!-- Node36&#45;&gt;Node46 -->
<g id="edge41" class="edge">
<title>Node36&#45;&gt;Node46</title>
<path fill="none" stroke="midnightblue" d="M1045.96,-226.18C1069.51,-220.82 1096.97,-214.57 1119.16,-209.52"/>
<polygon fill="midnightblue" stroke="midnightblue" points="1045.12,-222.78 1036.14,-228.41 1046.67,-229.6 1045.12,-222.78"/>
</g>
<!-- Node48 -->
<g id="node41" class="node">
<title>Node48</title>
<g id="a_node41"><a xlink:href="classast_1_1_ast_math_oper_1_1_string_add_oper.html" target="_top" xlink:title=" ">
<polygon fill="white" stroke="black" points="1092,-152.5 1092,-171.5 1232,-171.5 1232,-152.5 1092,-152.5"/>
<text text-anchor="middle" x="1162" y="-159.5" font-family="Helvetica,sans-Serif" font-size="10.00">AstMathOper.StringAddOper</text>
</a>
</g>
</g>
<!-- Node36&#45;&gt;Node48 -->
<g id="edge42" class="edge">
<title>Node36&#45;&gt;Node48</title>
<path fill="none" stroke="midnightblue" d="M1045.18,-224.69C1048.95,-223 1052.6,-221.11 1056,-219 1075.77,-206.74 1072.05,-192.97 1092,-181 1098.39,-177.16 1105.58,-174.08 1112.83,-171.61"/>
<polygon fill="midnightblue" stroke="midnightblue" points="1043.64,-221.53 1035.65,-228.49 1046.24,-228.03 1043.64,-221.53"/>
</g>
<!-- Node50 -->
<g id="node43" class="node">
<title>Node50</title>
<g id="a_node43"><a xlink:href="classast_1_1_ast_math_oper_1_1_double_rel.html" target="_top" xlink:title=" ">
<polygon fill="white" stroke="black" points="932,-190.5 932,-209.5 1054,-209.5 1054,-190.5 932,-190.5"/>
<text text-anchor="middle" x="993" y="-197.5" font-family="Helvetica,sans-Serif" font-size="10.00">AstMathOper.DoubleRel</text>
</a>
</g>
</g>
<!-- Node49&#45;&gt;Node50 -->
<g id="edge44" class="edge">
<title>Node49&#45;&gt;Node50</title>
<path fill="none" stroke="midnightblue" d="M865.43,-171.62C891.13,-177.39 923.69,-184.69 949.35,-190.44"/>
<polygon fill="midnightblue" stroke="midnightblue" points="866.11,-168.19 855.58,-169.42 864.58,-175.02 866.11,-168.19"/>
</g>
<!-- Node51 -->
<g id="node44" class="node">
<title>Node51</title>
<g id="a_node44"><a xlink:href="classast_1_1_ast_math_oper_1_1_integer_rel.html" target="_top" xlink:title=" ">
<polygon fill="white" stroke="black" points="932,-152.5 932,-171.5 1054,-171.5 1054,-152.5 932,-152.5"/>
<text text-anchor="middle" x="993" y="-159.5" font-family="Helvetica,sans-Serif" font-size="10.00">AstMathOper.IntegerRel</text>
</a>
</g>
</g>
<!-- Node49&#45;&gt;Node51 -->
<g id="edge45" class="edge">
<title>Node49&#45;&gt;Node51</title>
<path fill="none" stroke="midnightblue" d="M865.68,-162C885.79,-162 910.04,-162 931.9,-162"/>
<polygon fill="midnightblue" stroke="midnightblue" points="865.58,-158.5 855.58,-162 865.58,-165.5 865.58,-158.5"/>
</g>
<!-- Node52 -->
<g id="node45" class="node">
<title>Node52</title>
<g id="a_node45"><a xlink:href="classast_1_1_ast_math_oper_1_1_number_rel.html" target="_top" xlink:title=" ">
<polygon fill="white" stroke="black" points="930,-114.5 930,-133.5 1056,-133.5 1056,-114.5 930,-114.5"/>
<text text-anchor="middle" x="993" y="-121.5" font-family="Helvetica,sans-Serif" font-size="10.00">AstMathOper.NumberRel</text>
</a>
</g>
</g>
<!-- Node49&#45;&gt;Node52 -->
<g id="edge46" class="edge">
<title>Node49&#45;&gt;Node52</title>
<path fill="none" stroke="midnightblue" d="M865.43,-152.38C891.13,-146.61 923.69,-139.31 949.35,-133.56"/>
<polygon fill="midnightblue" stroke="midnightblue" points="864.58,-148.98 855.58,-154.58 866.11,-155.81 864.58,-148.98"/>
</g>
<!-- Node53 -->
<g id="node46" class="node">
<title>Node53</title>
<g id="a_node46"><a xlink:href="classast_1_1_string_rel.html" target="_top" xlink:title=" ">
<polygon fill="white" stroke="black" points="964.5,-76.5 964.5,-95.5 1021.5,-95.5 1021.5,-76.5 964.5,-76.5"/>
<text text-anchor="middle" x="993" y="-83.5" font-family="Helvetica,sans-Serif" font-size="10.00">StringRel</text>
</a>
</g>
</g>
<!-- Node49&#45;&gt;Node53 -->
<g id="edge47" class="edge">
<title>Node49&#45;&gt;Node53</title>
<path fill="none" stroke="midnightblue" d="M865.67,-154.63C875.4,-151.87 885.39,-148.11 894,-143 914,-131.12 910.23,-117.26 930,-105 940.43,-98.53 953.22,-94.13 964.47,-91.2"/>
<polygon fill="midnightblue" stroke="midnightblue" points="864.52,-151.31 855.68,-157.16 866.23,-158.1 864.52,-151.31"/>
</g>
<!-- Node54 -->
<g id="node47" class="node">
<title>Node54</title>
<g id="a_node47"><a xlink:href="classast_1_1_string_rel_1_1_regex_match_rel.html" target="_top" xlink:title=" ">
<polygon fill="white" stroke="black" points="1096.5,-95.5 1096.5,-114.5 1227.5,-114.5 1227.5,-95.5 1096.5,-95.5"/>
<text text-anchor="middle" x="1162" y="-102.5" font-family="Helvetica,sans-Serif" font-size="10.00">StringRel.RegexMatchRel</text>
</a>
</g>
</g>
<!-- Node53&#45;&gt;Node54 -->
<g id="edge48" class="edge">
<title>Node53&#45;&gt;Node54</title>
<path fill="none" stroke="midnightblue" d="M1031.64,-90.28C1050.69,-92.45 1074.35,-95.14 1096.21,-97.63"/>
<polygon fill="midnightblue" stroke="midnightblue" points="1031.91,-86.79 1021.58,-89.14 1031.12,-93.75 1031.91,-86.79"/>
</g>
<!-- Node55 -->
<g id="node48" class="node">
<title>Node55</title>
<g id="a_node48"><a xlink:href="classast_1_1_string_rel_1_1_string_match_rel.html" target="_top" xlink:title=" ">
<polygon fill="white" stroke="black" points="1098,-57.5 1098,-76.5 1226,-76.5 1226,-57.5 1098,-57.5"/>
<text text-anchor="middle" x="1162" y="-64.5" font-family="Helvetica,sans-Serif" font-size="10.00">StringRel.StringMatchRel</text>
</a>
</g>
</g>
<!-- Node53&#45;&gt;Node55 -->
<g id="edge49" class="edge">
<title>Node53&#45;&gt;Node55</title>
<path fill="none" stroke="midnightblue" d="M1031.61,-81.72C1051.18,-79.49 1075.63,-76.71 1097.98,-74.17"/>
<polygon fill="midnightblue" stroke="midnightblue" points="1031.12,-78.25 1021.58,-82.86 1031.91,-85.21 1031.12,-78.25"/>
</g>
<!-- Node59 -->
<g id="node52" class="node">
<title>Node59</title>
<g id="a_node52"><a xlink:href="classast_1_1_ast_source_1_1_ast_in_file_open.html" target="_top" xlink:title="入力ストリームを表すノードのクラス">
<polygon fill="white" stroke="black" points="757.5,-38.5 757.5,-57.5 885.5,-57.5 885.5,-38.5 757.5,-38.5"/>
<text text-anchor="middle" x="821.5" y="-45.5" font-family="Helvetica,sans-Serif" font-size="10.00">AstSource.AstInFileOpen</text>
</a>
</g>
</g>
<!-- Node58&#45;&gt;Node59 -->
<g id="edge53" class="edge">
<title>Node58&#45;&gt;Node59</title>
<path fill="none" stroke="midnightblue" d="M693.15,-76.89C718.91,-71.05 752.3,-63.47 778.42,-57.55"/>
<polygon fill="midnightblue" stroke="midnightblue" points="692.31,-73.49 683.33,-79.12 693.86,-80.32 692.31,-73.49"/>
</g>
<!-- Node60 -->
<g id="node53" class="node">
<title>Node60</title>
<g id="a_node53"><a xlink:href="classast_1_1_ast_source_1_1_ast_instream_const.html" target="_top" xlink:title="入力ストリームを表すノードのクラス">
<polygon fill="white" stroke="black" points="749,-0.5 749,-19.5 894,-19.5 894,-0.5 749,-0.5"/>
<text text-anchor="middle" x="821.5" y="-7.5" font-family="Helvetica,sans-Serif" font-size="10.00">AstSource.AstInstreamConst</text>
</a>
</g>
</g>
<!-- Node58&#45;&gt;Node60 -->
<g id="edge54" class="edge">
<title>Node58&#45;&gt;Node60</title>
<path fill="none" stroke="midnightblue" d="M693.25,-76.37C700.11,-73.87 706.96,-70.78 713,-67 732.72,-54.65 729,-40.88 749,-29 755.51,-25.13 762.82,-22.03 770.22,-19.56"/>
<polygon fill="midnightblue" stroke="midnightblue" points="691.71,-73.19 683.29,-79.63 693.88,-79.84 691.71,-73.19"/>
</g>
</g>
</svg>
