<?xml version="1.0" encoding="UTF-8" standalone="no"?>
<!DOCTYPE svg PUBLIC "-//W3C//DTD SVG 1.1//EN"
 "http://www.w3.org/Graphics/SVG/1.1/DTD/svg11.dtd">
<!-- Generated by graphviz version 2.47.1 (20210417.1919)
 -->
<!-- Title: run Pages: 1 -->
<svg width="106pt" height="46pt"
 viewBox="0.00 0.00 106.00 46.00" xmlns="http://www.w3.org/2000/svg" xmlns:xlink="http://www.w3.org/1999/xlink">
<g id="graph0" class="graph" transform="scale(1 1) rotate(0) translate(4 42)">
<title>run</title>
<polygon fill="white" stroke="transparent" points="-4,4 -4,-42 102,-42 102,4 -4,4"/>
<!-- Node1 -->
<g id="node1" class="node">
<title>Node1</title>
<g id="a_node1"><a xlink:title="入力ストリームから与えられた文字列を清書して、出力ストリームへ書き込む.">
<polygon fill="#bfbfbf" stroke="black" points="68,-0.5 68,-19.5 98,-19.5 98,-0.5 68,-0.5"/>
<text text-anchor="middle" x="83" y="-7.5" font-family="Helvetica,sans-Serif" font-size="10.00">run</text>
</a>
</g>
</g>
<!-- Node1&#45;&gt;Node1 -->
<g id="edge2" class="edge">
<title>Node1&#45;&gt;Node1</title>
<path fill="none" stroke="midnightblue" d="M95.15,-29.77C94.2,-34.5 90.15,-38 83,-38 71.27,-38 67.88,-28.57 72.83,-19.76"/>
<polygon fill="midnightblue" stroke="midnightblue" points="98.55,-28.89 93.17,-19.76 91.68,-30.25 98.55,-28.89"/>
</g>
<!-- Node2 -->
<g id="node2" class="node">
<title>Node2</title>
<g id="a_node2"><a xlink:href="classpretty_1_1_par_stream.html#a456995a9a16a70cd40d17dfd28d3e867" target="_top" xlink:title="与えられた文字列を清書した文字列を返す.">
<polygon fill="white" stroke="black" points="0,-0.5 0,-19.5 32,-19.5 32,-0.5 0,-0.5"/>
<text text-anchor="middle" x="16" y="-7.5" font-family="Helvetica,sans-Serif" font-size="10.00">fold</text>
</a>
</g>
</g>
<!-- Node1&#45;&gt;Node2 -->
<g id="edge1" class="edge">
<title>Node1&#45;&gt;Node2</title>
<path fill="none" stroke="midnightblue" d="M57.77,-10C49.29,-10 40.01,-10 32.44,-10"/>
<polygon fill="midnightblue" stroke="midnightblue" points="57.9,-13.5 67.9,-10 57.9,-6.5 57.9,-13.5"/>
</g>
</g>
</svg>
