<?xml version="1.0" encoding="UTF-8" standalone="no"?>
<!DOCTYPE svg PUBLIC "-//W3C//DTD SVG 1.1//EN"
 "http://www.w3.org/Graphics/SVG/1.1/DTD/svg11.dtd">
<!-- Generated by graphviz version 2.47.0 (20210316.0004)
 -->
<!-- Title: BlockRule Pages: 1 -->
<svg width="864pt" height="203pt"
 viewBox="0.00 0.00 864.00 202.63" xmlns="http://www.w3.org/2000/svg" xmlns:xlink="http://www.w3.org/1999/xlink">
<g id="graph0" class="graph" transform="scale(1 1) rotate(0) translate(4 198.63)">
<title>BlockRule</title>
<polygon fill="white" stroke="transparent" points="-4,4 -4,-198.63 860,-198.63 860,4 -4,4"/>
<!-- Node1 -->
<g id="node1" class="node">
<title>Node1</title>
<g id="a_node1"><a xlink:title="抽象構文木のステップ式のクラス.">
<polygon fill="#bfbfbf" stroke="black" points="794,-57.5 794,-76.5 856,-76.5 856,-57.5 794,-57.5"/>
<text text-anchor="middle" x="825" y="-64.5" font-family="Helvetica,sans-Serif" font-size="10.00">BlockRule</text>
</a>
</g>
</g>
<!-- Node2 -->
<g id="node2" class="node">
<title>Node2</title>
<g id="a_node2"><a xlink:href="classast_1_1_rule_base.html" target="_top" xlink:title="抽象構文木のステップ式のクラス.">
<polygon fill="white" stroke="black" points="694.5,-76.5 694.5,-95.5 753.5,-95.5 753.5,-76.5 694.5,-76.5"/>
<text text-anchor="middle" x="724" y="-83.5" font-family="Helvetica,sans-Serif" font-size="10.00">RuleBase</text>
</a>
</g>
</g>
<!-- Node2&#45;&gt;Node1 -->
<g id="edge1" class="edge">
<title>Node2&#45;&gt;Node1</title>
<path fill="none" stroke="midnightblue" d="M763.72,-78.57C773.67,-76.66 784.24,-74.63 793.7,-72.81"/>
<polygon fill="midnightblue" stroke="midnightblue" points="762.8,-75.18 753.63,-80.5 764.12,-82.06 762.8,-75.18"/>
</g>
<!-- Node3 -->
<g id="node3" class="node">
<title>Node3</title>
<g id="a_node3"><a xlink:href="classast_1_1_ast_node_tagged.html" target="_top" xlink:title="タグ付きの子をもつノードのクラス．利用者は自前で，追加する子のField名と，Getter，型を設定する．読み出しは子の添字でも行える．">
<polygon fill="white" stroke="black" points="568,-114.5 568,-133.5 654,-133.5 654,-114.5 568,-114.5"/>
<text text-anchor="middle" x="611" y="-121.5" font-family="Helvetica,sans-Serif" font-size="10.00">AstNodeTagged</text>
</a>
</g>
</g>
<!-- Node3&#45;&gt;Node2 -->
<g id="edge2" class="edge">
<title>Node3&#45;&gt;Node2</title>
<path fill="none" stroke="midnightblue" d="M649.89,-111.03C664.68,-105.97 681.33,-100.27 695,-95.59"/>
<polygon fill="midnightblue" stroke="midnightblue" points="648.34,-107.86 640.01,-114.41 650.6,-114.48 648.34,-107.86"/>
</g>
<!-- Node4 -->
<g id="node4" class="node">
<title>Node4</title>
<g id="a_node4"><a xlink:href="classast_1_1_ast_node_branch.html" target="_top" xlink:title="タグなしの順アクセスの子供をもてる抽象構文木のノードのクラス。">
<polygon fill="white" stroke="black" points="413.5,-114.5 413.5,-133.5 499.5,-133.5 499.5,-114.5 413.5,-114.5"/>
<text text-anchor="middle" x="456.5" y="-121.5" font-family="Helvetica,sans-Serif" font-size="10.00">AstNodeBranch</text>
</a>
</g>
</g>
<!-- Node4&#45;&gt;Node3 -->
<g id="edge3" class="edge">
<title>Node4&#45;&gt;Node3</title>
<path fill="none" stroke="midnightblue" d="M509.83,-124C528.75,-124 549.86,-124 567.8,-124"/>
<polygon fill="midnightblue" stroke="midnightblue" points="509.58,-120.5 499.57,-124 509.57,-127.5 509.58,-120.5"/>
</g>
<!-- Node5 -->
<g id="node5" class="node">
<title>Node5</title>
<g id="a_node5"><a xlink:href="classast_1_1_ast_node.html" target="_top" xlink:title=" ">
<polygon fill="white" stroke="red" points="239.5,-114.5 239.5,-133.5 294.5,-133.5 294.5,-114.5 239.5,-114.5"/>
<text text-anchor="middle" x="267" y="-121.5" font-family="Helvetica,sans-Serif" font-size="10.00">AstNode</text>
</a>
</g>
</g>
<!-- Node5&#45;&gt;Node4 -->
<g id="edge4" class="edge">
<title>Node5&#45;&gt;Node4</title>
<path fill="none" stroke="midnightblue" d="M304.9,-124C336.12,-124 380.86,-124 413.46,-124"/>
<polygon fill="midnightblue" stroke="midnightblue" points="304.86,-120.5 294.86,-124 304.86,-127.5 304.86,-120.5"/>
</g>
<!-- Node7 -->
<g id="node6" class="node">
<title>Node7</title>
<g id="a_node6"><a xlink:href="interfaceformat_1_1_x_formattable_1_1_navigatable.html" target="_top" xlink:title="木構造の分岐ノードとして清書可能なオブジェクトのクラス">
<polygon fill="white" stroke="black" points="202,-152.5 202,-171.5 332,-171.5 332,-152.5 202,-152.5"/>
<text text-anchor="middle" x="267" y="-159.5" font-family="Helvetica,sans-Serif" font-size="10.00">XFormattable.Navigatable</text>
</a>
</g>
</g>
<!-- Node7&#45;&gt;Node4 -->
<g id="edge5" class="edge">
<title>Node7&#45;&gt;Node4</title>
<path fill="none" stroke="midnightblue" d="M325.12,-150.42C353.54,-144.66 387.28,-137.83 413.32,-132.55"/>
<polygon fill="midnightblue" stroke="midnightblue" points="324.42,-146.99 315.31,-152.41 325.81,-153.85 324.42,-146.99"/>
</g>
<!-- Node10 -->
<g id="node9" class="node">
<title>Node10</title>
<g id="a_node9"><a xlink:href="interfaceformat_1_1_x_formattable_1_1_field_navigatable.html" target="_top" xlink:title="タグ付きノードに対応する清書対象のクラス。">
<polygon fill="white" stroke="black" points="381,-152.5 381,-171.5 532,-171.5 532,-152.5 381,-152.5"/>
<text text-anchor="middle" x="456.5" y="-159.5" font-family="Helvetica,sans-Serif" font-size="10.00">XFormattable.FieldNavigatable</text>
</a>
</g>
</g>
<!-- Node7&#45;&gt;Node10 -->
<g id="edge9" class="edge">
<title>Node7&#45;&gt;Node10</title>
<path fill="none" stroke="midnightblue" d="M342.09,-162C354.82,-162 368.05,-162 380.8,-162"/>
<polygon fill="midnightblue" stroke="midnightblue" points="342,-158.5 332,-162 342,-165.5 342,-158.5"/>
</g>
<!-- Node8 -->
<g id="node7" class="node">
<title>Node8</title>
<g id="a_node7"><a xlink:href="interfaceformat_1_1_x_formattable_1_1_label_formattable.html" target="_top" xlink:title="カスタム清書出力器をもつオブジェクトのクラス．">
<polygon fill="white" stroke="red" points="0,-171.5 0,-190.5 153,-190.5 153,-171.5 0,-171.5"/>
<text text-anchor="middle" x="76.5" y="-178.5" font-family="Helvetica,sans-Serif" font-size="10.00">XFormattable.LabelFormattable</text>
</a>
</g>
</g>
<!-- Node8&#45;&gt;Node2 -->
<g id="edge12" class="edge">
<title>Node8&#45;&gt;Node2</title>
<path fill="none" stroke="midnightblue" d="M163.29,-188.64C255.11,-195.05 404.74,-200.36 532,-181 588.15,-172.46 604.06,-170.04 654,-143 677.78,-130.13 701.11,-108.42 713.62,-95.84"/>
<polygon fill="midnightblue" stroke="midnightblue" points="163.44,-185.14 153.22,-187.92 162.94,-192.13 163.44,-185.14"/>
</g>
<!-- Node8&#45;&gt;Node7 -->
<g id="edge6" class="edge">
<title>Node8&#45;&gt;Node7</title>
<path fill="none" stroke="midnightblue" d="M163.41,-172.34C176.36,-171.04 189.53,-169.71 201.92,-168.46"/>
<polygon fill="midnightblue" stroke="midnightblue" points="162.68,-168.9 153.08,-173.38 163.38,-175.86 162.68,-168.9"/>
</g>
<!-- Node9 -->
<g id="node8" class="node">
<title>Node9</title>
<g id="a_node8"><a xlink:href="interfaceformat_1_1_x_formattable_1_1_typed_formattable.html" target="_top" xlink:title="ノードの型情報をもつ書式出力可能なオブジェクトのインタフェース．">
<polygon fill="white" stroke="red" points="189,-76.5 189,-95.5 345,-95.5 345,-76.5 189,-76.5"/>
<text text-anchor="middle" x="267" y="-83.5" font-family="Helvetica,sans-Serif" font-size="10.00">XFormattable.TypedFormattable</text>
</a>
</g>
</g>
<!-- Node9&#45;&gt;Node2 -->
<g id="edge13" class="edge">
<title>Node9&#45;&gt;Node2</title>
<path fill="none" stroke="midnightblue" d="M355.36,-86C459.43,-86 627.6,-86 694.36,-86"/>
<polygon fill="midnightblue" stroke="midnightblue" points="355.18,-82.5 345.18,-86 355.18,-89.5 355.18,-82.5"/>
</g>
<!-- Node9&#45;&gt;Node4 -->
<g id="edge7" class="edge">
<title>Node9&#45;&gt;Node4</title>
<path fill="none" stroke="midnightblue" d="M325.12,-97.58C353.54,-103.34 387.28,-110.17 413.32,-115.45"/>
<polygon fill="midnightblue" stroke="midnightblue" points="325.81,-94.15 315.31,-95.59 324.42,-101.01 325.81,-94.15"/>
</g>
<!-- Node10&#45;&gt;Node3 -->
<g id="edge8" class="edge">
<title>Node10&#45;&gt;Node3</title>
<path fill="none" stroke="midnightblue" d="M505.82,-149.96C527.12,-144.65 551.8,-138.5 571.79,-133.52"/>
<polygon fill="midnightblue" stroke="midnightblue" points="504.84,-146.6 495.98,-152.41 506.53,-153.39 504.84,-146.6"/>
</g>
<!-- Node11 -->
<g id="node10" class="node">
<title>Node11</title>
<g id="a_node10"><a xlink:href="interfacemachine_1_1_rule.html" target="_top" xlink:title="実行可能コードのインタフェース. ブロックとステップの二種がある。">
<polygon fill="white" stroke="black" points="592.5,-38.5 592.5,-57.5 629.5,-57.5 629.5,-38.5 592.5,-38.5"/>
<text text-anchor="middle" x="611" y="-45.5" font-family="Helvetica,sans-Serif" font-size="10.00">Rule</text>
</a>
</g>
</g>
<!-- Node11&#45;&gt;Node2 -->
<g id="edge10" class="edge">
<title>Node11&#45;&gt;Node2</title>
<path fill="none" stroke="midnightblue" d="M639.7,-57.48C656.66,-63.29 678.28,-70.69 695.24,-76.5"/>
<polygon fill="midnightblue" stroke="midnightblue" points="640.43,-54.03 629.83,-54.11 638.16,-60.66 640.43,-54.03"/>
</g>
<!-- Node12 -->
<g id="node11" class="node">
<title>Node12</title>
<g id="a_node11"><a xlink:href="interfacecmd_1_1_generatable.html" target="_top" xlink:title="変換してコードを生成できるノードのインタフェース.">
<polygon fill="white" stroke="black" points="576.5,-0.5 576.5,-19.5 645.5,-19.5 645.5,-0.5 576.5,-0.5"/>
<text text-anchor="middle" x="611" y="-7.5" font-family="Helvetica,sans-Serif" font-size="10.00">Generatable</text>
</a>
</g>
</g>
<!-- Node12&#45;&gt;Node2 -->
<g id="edge11" class="edge">
<title>Node12&#45;&gt;Node2</title>
<path fill="none" stroke="midnightblue" d="M646.42,-24.21C649.06,-25.7 651.62,-27.3 654,-29 672.95,-42.49 671.73,-52.6 690,-67 694.36,-70.44 699.41,-73.66 704.23,-76.45"/>
<polygon fill="midnightblue" stroke="midnightblue" points="647.8,-20.98 637.3,-19.53 644.6,-27.21 647.8,-20.98"/>
</g>
<!-- Node13 -->
<g id="node12" class="node">
<title>Node13</title>
<g id="a_node12"><a xlink:href="interfaceast_1_1_traversable.html" target="_top" xlink:title="巡回可能な木のインタフェース">
<polygon fill="white" stroke="black" points="690,-38.5 690,-57.5 758,-57.5 758,-38.5 690,-38.5"/>
<text text-anchor="middle" x="724" y="-45.5" font-family="Helvetica,sans-Serif" font-size="10.00">Traversable</text>
</a>
</g>
</g>
<!-- Node13&#45;&gt;Node1 -->
<g id="edge14" class="edge">
<title>Node13&#45;&gt;Node1</title>
<path fill="none" stroke="midnightblue" d="M768.16,-56.28C776.76,-57.93 785.62,-59.63 793.68,-61.18"/>
<polygon fill="midnightblue" stroke="midnightblue" points="768.72,-52.83 758.24,-54.38 767.4,-59.7 768.72,-52.83"/>
</g>
</g>
</svg>
