<?xml version="1.0" encoding="UTF-8" standalone="no"?>
<!DOCTYPE svg PUBLIC "-//W3C//DTD SVG 1.1//EN"
 "http://www.w3.org/Graphics/SVG/1.1/DTD/svg11.dtd">
<!-- Generated by graphviz version 2.47.0 (20210316.0004)
 -->
<!-- Title: DataReader Pages: 1 -->
<svg width="458pt" height="199pt"
 viewBox="0.00 0.00 458.00 199.00" xmlns="http://www.w3.org/2000/svg" xmlns:xlink="http://www.w3.org/1999/xlink">
<g id="graph0" class="graph" transform="scale(1 1) rotate(0) translate(4 195)">
<title>DataReader</title>
<polygon fill="white" stroke="transparent" points="-4,4 -4,-195 454,-195 454,4 -4,4"/>
<!-- Node1 -->
<g id="node1" class="node">
<title>Node1</title>
<g id="a_node1"><a xlink:title=" ">
<polygon fill="#bfbfbf" stroke="black" points="0,-114.5 0,-133.5 69,-133.5 69,-114.5 0,-114.5"/>
<text text-anchor="middle" x="34.5" y="-121.5" font-family="Helvetica,sans-Serif" font-size="10.00">DataReader</text>
</a>
</g>
</g>
<!-- Node2 -->
<g id="node2" class="node">
<title>Node2</title>
<g id="a_node2"><a xlink:href="classast_1_1_ast_data_reader_1_1_ast_get_text.html" target="_top" xlink:title=" ">
<polygon fill="white" stroke="black" points="115,-171.5 115,-190.5 251,-190.5 251,-171.5 115,-171.5"/>
<text text-anchor="middle" x="183" y="-178.5" font-family="Helvetica,sans-Serif" font-size="10.00">AstDataReader.AstGetText</text>
</a>
</g>
</g>
<!-- Node1&#45;&gt;Node2 -->
<g id="edge1" class="edge">
<title>Node1&#45;&gt;Node2</title>
<path fill="none" stroke="midnightblue" d="M59.23,-138.97C72.33,-146.72 89.12,-155.82 105,-162 114.5,-165.7 124.94,-168.84 134.98,-171.45"/>
<polygon fill="midnightblue" stroke="midnightblue" points="60.78,-135.82 50.41,-133.63 57.15,-141.81 60.78,-135.82"/>
</g>
<!-- Node3 -->
<g id="node3" class="node">
<title>Node3</title>
<g id="a_node3"><a xlink:href="classast_1_1_ast_data_reader_1_1_get_system_var.html" target="_top" xlink:title=" ">
<polygon fill="white" stroke="black" points="108,-133.5 108,-152.5 258,-152.5 258,-133.5 108,-133.5"/>
<text text-anchor="middle" x="183" y="-140.5" font-family="Helvetica,sans-Serif" font-size="10.00">AstDataReader.GetSystemVar</text>
</a>
</g>
</g>
<!-- Node1&#45;&gt;Node3 -->
<g id="edge2" class="edge">
<title>Node1&#45;&gt;Node3</title>
<path fill="none" stroke="midnightblue" d="M79.21,-129.67C88.48,-130.87 98.51,-132.17 108.55,-133.47"/>
<polygon fill="midnightblue" stroke="midnightblue" points="79.48,-126.17 69.11,-128.36 78.58,-133.12 79.48,-126.17"/>
</g>
<!-- Node4 -->
<g id="node4" class="node">
<title>Node4</title>
<g id="a_node4"><a xlink:href="classast_1_1_ast_data_reader_1_1_reader_get_elem.html" target="_top" xlink:title=" ">
<polygon fill="white" stroke="black" points="105,-95.5 105,-114.5 261,-114.5 261,-95.5 105,-95.5"/>
<text text-anchor="middle" x="183" y="-102.5" font-family="Helvetica,sans-Serif" font-size="10.00">AstDataReader.ReaderGetElem</text>
</a>
</g>
</g>
<!-- Node1&#45;&gt;Node4 -->
<g id="edge3" class="edge">
<title>Node1&#45;&gt;Node4</title>
<path fill="none" stroke="midnightblue" d="M79.21,-118.33C88.48,-117.13 98.51,-115.83 108.55,-114.53"/>
<polygon fill="midnightblue" stroke="midnightblue" points="78.58,-114.88 69.11,-119.64 79.48,-121.83 78.58,-114.88"/>
</g>
<!-- Node5 -->
<g id="node5" class="node">
<title>Node5</title>
<g id="a_node5"><a xlink:href="classast_1_1_ast_data_reader_1_1_reader_type.html" target="_top" xlink:title="フレームスタックから参照が示す値を読み出すクラス">
<polygon fill="white" stroke="black" points="113.5,-57.5 113.5,-76.5 252.5,-76.5 252.5,-57.5 113.5,-57.5"/>
<text text-anchor="middle" x="183" y="-64.5" font-family="Helvetica,sans-Serif" font-size="10.00">AstDataReader.ReaderType</text>
</a>
</g>
</g>
<!-- Node1&#45;&gt;Node5 -->
<g id="edge4" class="edge">
<title>Node1&#45;&gt;Node5</title>
<path fill="none" stroke="midnightblue" d="M59.23,-109.03C72.33,-101.28 89.12,-92.18 105,-86 114.5,-82.3 124.94,-79.16 134.98,-76.55"/>
<polygon fill="midnightblue" stroke="midnightblue" points="57.15,-106.19 50.41,-114.37 60.78,-112.18 57.15,-106.19"/>
</g>
<!-- Node6 -->
<g id="node6" class="node">
<title>Node6</title>
<g id="a_node6"><a xlink:href="classast_1_1_ast_data_reader_1_1_reader_boolean.html" target="_top" xlink:title="ブール型の値をもつ参照読み出し">
<polygon fill="white" stroke="black" points="297,-114.5 297,-133.5 450,-133.5 450,-114.5 297,-114.5"/>
<text text-anchor="middle" x="373.5" y="-121.5" font-family="Helvetica,sans-Serif" font-size="10.00">AstDataReader.ReaderBoolean</text>
</a>
</g>
</g>
<!-- Node5&#45;&gt;Node6 -->
<g id="edge5" class="edge">
<title>Node5&#45;&gt;Node6</title>
<path fill="none" stroke="midnightblue" d="M240.68,-79.3C247.6,-81.3 254.52,-83.53 261,-86 277.91,-92.44 280.11,-98.52 297,-105 306.59,-108.68 317.14,-111.85 327.24,-114.48"/>
<polygon fill="midnightblue" stroke="midnightblue" points="241.14,-75.8 230.57,-76.55 239.3,-82.56 241.14,-75.8"/>
</g>
<!-- Node7 -->
<g id="node7" class="node">
<title>Node7</title>
<g id="a_node7"><a xlink:href="classast_1_1_ast_data_reader_1_1_reader_double.html" target="_top" xlink:title="倍精度実数型の値をもつ参照読み出しの呼び出し">
<polygon fill="white" stroke="black" points="299,-76.5 299,-95.5 448,-95.5 448,-76.5 299,-76.5"/>
<text text-anchor="middle" x="373.5" y="-83.5" font-family="Helvetica,sans-Serif" font-size="10.00">AstDataReader.ReaderDouble</text>
</a>
</g>
</g>
<!-- Node5&#45;&gt;Node7 -->
<g id="edge6" class="edge">
<title>Node5&#45;&gt;Node7</title>
<path fill="none" stroke="midnightblue" d="M262.58,-74.92C274.6,-76.13 286.97,-77.38 298.88,-78.58"/>
<polygon fill="midnightblue" stroke="midnightblue" points="262.89,-71.43 252.59,-73.91 262.18,-78.4 262.89,-71.43"/>
</g>
<!-- Node8 -->
<g id="node8" class="node">
<title>Node8</title>
<g id="a_node8"><a xlink:href="classast_1_1_ast_data_reader_1_1_reader_integer.html" target="_top" xlink:title="整数型の値をもつ参照読み出しの呼び出し">
<polygon fill="white" stroke="black" points="299.5,-38.5 299.5,-57.5 447.5,-57.5 447.5,-38.5 299.5,-38.5"/>
<text text-anchor="middle" x="373.5" y="-45.5" font-family="Helvetica,sans-Serif" font-size="10.00">AstDataReader.ReaderInteger</text>
</a>
</g>
</g>
<!-- Node5&#45;&gt;Node8 -->
<g id="edge7" class="edge">
<title>Node5&#45;&gt;Node8</title>
<path fill="none" stroke="midnightblue" d="M262.65,-59.07C274.76,-57.85 287.22,-56.6 299.2,-55.39"/>
<polygon fill="midnightblue" stroke="midnightblue" points="262.18,-55.6 252.59,-60.09 262.89,-62.57 262.18,-55.6"/>
</g>
<!-- Node9 -->
<g id="node9" class="node">
<title>Node9</title>
<g id="a_node9"><a xlink:href="classast_1_1_ast_data_reader_1_1_reader_string.html" target="_top" xlink:title="文字列型の値をもつ参照読み出し">
<polygon fill="white" stroke="black" points="302,-0.5 302,-19.5 445,-19.5 445,-0.5 302,-0.5"/>
<text text-anchor="middle" x="373.5" y="-7.5" font-family="Helvetica,sans-Serif" font-size="10.00">AstDataReader.ReaderString</text>
</a>
</g>
</g>
<!-- Node5&#45;&gt;Node9 -->
<g id="edge8" class="edge">
<title>Node5&#45;&gt;Node9</title>
<path fill="none" stroke="midnightblue" d="M220.37,-53.97C242.41,-46.27 271.17,-36.58 297,-29 308.28,-25.69 320.62,-22.43 331.98,-19.58"/>
<polygon fill="midnightblue" stroke="midnightblue" points="219.03,-50.73 210.75,-57.35 221.35,-57.33 219.03,-50.73"/>
</g>
</g>
</svg>
