<?xml version="1.0" encoding="UTF-8" standalone="no"?>
<!DOCTYPE svg PUBLIC "-//W3C//DTD SVG 1.1//EN"
 "http://www.w3.org/Graphics/SVG/1.1/DTD/svg11.dtd">
<!-- Generated by graphviz version 2.47.0 (20210316.0004)
 -->
<!-- Title: AstScanFrom Pages: 1 -->
<svg width="388pt" height="308pt"
 viewBox="0.00 0.00 388.18 308.00" xmlns="http://www.w3.org/2000/svg" xmlns:xlink="http://www.w3.org/1999/xlink">
<g id="graph0" class="graph" transform="scale(1 1) rotate(0) translate(4 304)">
<title>AstScanFrom</title>
<polygon fill="white" stroke="transparent" points="-4,4 -4,-304 384.18,-304 384.18,4 -4,4"/>
<!-- Node1 -->
<g id="node1" class="node">
<title>Node1</title>
<g id="a_node1"><a xlink:title=" ">
<polygon fill="#bfbfbf" stroke="black" points="50.68,-0.5 50.68,-19.5 127.68,-19.5 127.68,-0.5 50.68,-0.5"/>
<text text-anchor="middle" x="89.18" y="-7.5" font-family="Helvetica,sans-Serif" font-size="10.00">AstScanFrom</text>
</a>
</g>
</g>
<!-- Node2 -->
<g id="node2" class="node">
<title>Node2</title>
<g id="a_node2"><a xlink:href="classast_1_1_ast_node_tagged_settable.html" target="_top" xlink:title="タグ付きの子をもつノードのクラス．利用者は自前で，追加する子のField名と，Getter，Setter，型を設定する．読み出しは子の添字でも行える．">
<polygon fill="white" stroke="black" points="28.18,-56.5 28.18,-75.5 150.18,-75.5 150.18,-56.5 28.18,-56.5"/>
<text text-anchor="middle" x="89.18" y="-63.5" font-family="Helvetica,sans-Serif" font-size="10.00">AstNodeTaggedSettable</text>
</a>
</g>
</g>
<!-- Node2&#45;&gt;Node1 -->
<g id="edge1" class="edge">
<title>Node2&#45;&gt;Node1</title>
<path fill="none" stroke="midnightblue" d="M89.18,-45.8C89.18,-36.91 89.18,-26.78 89.18,-19.75"/>
<polygon fill="midnightblue" stroke="midnightblue" points="85.68,-46.08 89.18,-56.08 92.68,-46.08 85.68,-46.08"/>
</g>
<!-- Node3 -->
<g id="node3" class="node">
<title>Node3</title>
<g id="a_node3"><a xlink:href="classast_1_1_ast_node_branch.html" target="_top" xlink:title="タグなしの順アクセスの子供をもてる抽象構文木のノードのクラス。">
<polygon fill="white" stroke="black" points="183.18,-112.5 183.18,-131.5 269.18,-131.5 269.18,-112.5 183.18,-112.5"/>
<text text-anchor="middle" x="226.18" y="-119.5" font-family="Helvetica,sans-Serif" font-size="10.00">AstNodeBranch</text>
</a>
</g>
</g>
<!-- Node3&#45;&gt;Node2 -->
<g id="edge2" class="edge">
<title>Node3&#45;&gt;Node2</title>
<path fill="none" stroke="midnightblue" d="M195.15,-108.77C169.42,-98.63 133.49,-84.47 110.78,-75.52"/>
<polygon fill="midnightblue" stroke="midnightblue" points="193.88,-112.03 204.47,-112.44 196.45,-105.52 193.88,-112.03"/>
</g>
<!-- Node4 -->
<g id="node4" class="node">
<title>Node4</title>
<g id="a_node4"><a xlink:href="classast_1_1_ast_node.html" target="_top" xlink:title=" ">
<polygon fill="white" stroke="black" points="175.68,-224.5 175.68,-243.5 230.68,-243.5 230.68,-224.5 175.68,-224.5"/>
<text text-anchor="middle" x="203.18" y="-231.5" font-family="Helvetica,sans-Serif" font-size="10.00">AstNode</text>
</a>
</g>
</g>
<!-- Node4&#45;&gt;Node3 -->
<g id="edge3" class="edge">
<title>Node4&#45;&gt;Node3</title>
<path fill="none" stroke="midnightblue" d="M206.37,-214.08C208.64,-201.08 211.86,-183.45 215.18,-168 217.91,-155.26 221.59,-140.62 223.92,-131.59"/>
<polygon fill="midnightblue" stroke="midnightblue" points="202.89,-213.69 204.65,-224.14 209.79,-214.87 202.89,-213.69"/>
</g>
<!-- Node5 -->
<g id="node5" class="node">
<title>Node5</title>
<g id="a_node5"><a xlink:href="interfaceformat_1_1_x_formattable.html" target="_top" xlink:title="入れ子フォーマット出力可能なオブジェクトのインタフェース。">
<polygon fill="white" stroke="black" points="165.68,-280.5 165.68,-299.5 240.68,-299.5 240.68,-280.5 165.68,-280.5"/>
<text text-anchor="middle" x="203.18" y="-287.5" font-family="Helvetica,sans-Serif" font-size="10.00">XFormattable</text>
</a>
</g>
</g>
<!-- Node5&#45;&gt;Node4 -->
<g id="edge4" class="edge">
<title>Node5&#45;&gt;Node4</title>
<path fill="none" stroke="midnightblue" d="M203.18,-269.8C203.18,-260.91 203.18,-250.78 203.18,-243.75"/>
<polygon fill="midnightblue" stroke="midnightblue" points="199.68,-270.08 203.18,-280.08 206.68,-270.08 199.68,-270.08"/>
</g>
<!-- Node7 -->
<g id="node7" class="node">
<title>Node7</title>
<g id="a_node7"><a xlink:href="interfaceformat_1_1_x_formattable_1_1_label_formattable.html" target="_top" xlink:title="カスタム清書出力器をもつオブジェクトのクラス．">
<polygon fill="white" stroke="black" points="4.68,-224.5 4.68,-243.5 157.68,-243.5 157.68,-224.5 4.68,-224.5"/>
<text text-anchor="middle" x="81.18" y="-231.5" font-family="Helvetica,sans-Serif" font-size="10.00">XFormattable.LabelFormattable</text>
</a>
</g>
</g>
<!-- Node5&#45;&gt;Node7 -->
<g id="edge7" class="edge">
<title>Node5&#45;&gt;Node7</title>
<path fill="none" stroke="midnightblue" d="M174.64,-276.37C151.79,-266.26 120.37,-252.35 100.42,-243.52"/>
<polygon fill="midnightblue" stroke="midnightblue" points="173.28,-279.6 183.84,-280.44 176.12,-273.2 173.28,-279.6"/>
</g>
<!-- Node8 -->
<g id="node8" class="node">
<title>Node8</title>
<g id="a_node8"><a xlink:href="interfaceformat_1_1_x_formattable_1_1_typed_formattable.html" target="_top" xlink:title="ノードの型情報をもつ書式出力可能なオブジェクトのインタフェース．">
<polygon fill="white" stroke="black" points="224.18,-168.5 224.18,-187.5 380.18,-187.5 380.18,-168.5 224.18,-168.5"/>
<text text-anchor="middle" x="302.18" y="-175.5" font-family="Helvetica,sans-Serif" font-size="10.00">XFormattable.TypedFormattable</text>
</a>
</g>
</g>
<!-- Node5&#45;&gt;Node8 -->
<g id="edge9" class="edge">
<title>Node5&#45;&gt;Node8</title>
<path fill="none" stroke="midnightblue" d="M217.67,-272.9C238.95,-249.25 277.92,-205.95 294.44,-187.59"/>
<polygon fill="midnightblue" stroke="midnightblue" points="215.03,-270.59 210.94,-280.37 220.23,-275.28 215.03,-270.59"/>
</g>
<!-- Node6 -->
<g id="node6" class="node">
<title>Node6</title>
<g id="a_node6"><a xlink:href="interfaceformat_1_1_x_formattable_1_1_navigatable.html" target="_top" xlink:title="木構造の分岐ノードとして清書可能なオブジェクトのクラス">
<polygon fill="white" stroke="black" points="24.18,-168.5 24.18,-187.5 154.18,-187.5 154.18,-168.5 24.18,-168.5"/>
<text text-anchor="middle" x="89.18" y="-175.5" font-family="Helvetica,sans-Serif" font-size="10.00">XFormattable.Navigatable</text>
</a>
</g>
</g>
<!-- Node6&#45;&gt;Node3 -->
<g id="edge5" class="edge">
<title>Node6&#45;&gt;Node3</title>
<path fill="none" stroke="midnightblue" d="M120.2,-164.77C145.93,-154.63 181.86,-140.47 204.57,-131.52"/>
<polygon fill="midnightblue" stroke="midnightblue" points="118.9,-161.52 110.88,-168.44 121.47,-168.03 118.9,-161.52"/>
</g>
<!-- Node9 -->
<g id="node9" class="node">
<title>Node9</title>
<g id="a_node9"><a xlink:href="interfaceformat_1_1_x_formattable_1_1_field_navigatable.html" target="_top" xlink:title="タグ付きノードに対応する清書対象のクラス。">
<polygon fill="white" stroke="black" points="13.68,-112.5 13.68,-131.5 164.68,-131.5 164.68,-112.5 13.68,-112.5"/>
<text text-anchor="middle" x="89.18" y="-119.5" font-family="Helvetica,sans-Serif" font-size="10.00">XFormattable.FieldNavigatable</text>
</a>
</g>
</g>
<!-- Node6&#45;&gt;Node9 -->
<g id="edge11" class="edge">
<title>Node6&#45;&gt;Node9</title>
<path fill="none" stroke="midnightblue" d="M89.18,-157.8C89.18,-148.91 89.18,-138.78 89.18,-131.75"/>
<polygon fill="midnightblue" stroke="midnightblue" points="85.68,-158.08 89.18,-168.08 92.68,-158.08 85.68,-158.08"/>
</g>
<!-- Node7&#45;&gt;Node1 -->
<g id="edge13" class="edge">
<title>Node7&#45;&gt;Node1</title>
<path fill="none" stroke="midnightblue" d="M52.11,-219.74C38.87,-212.25 24.17,-201.64 15.18,-188 -3.62,-159.51 -0.28,-145.84 4.18,-112 7.54,-86.45 3.98,-76.81 19.18,-56 31.53,-39.08 52.34,-26.89 68.07,-19.5"/>
<polygon fill="midnightblue" stroke="midnightblue" points="50.48,-222.84 60.96,-224.42 53.75,-216.65 50.48,-222.84"/>
</g>
<!-- Node7&#45;&gt;Node6 -->
<g id="edge6" class="edge">
<title>Node7&#45;&gt;Node6</title>
<path fill="none" stroke="midnightblue" d="M83.98,-214.1C85.3,-205.14 86.83,-194.86 87.88,-187.75"/>
<polygon fill="midnightblue" stroke="midnightblue" points="80.5,-213.68 82.5,-224.08 87.42,-214.7 80.5,-213.68"/>
</g>
<!-- Node8&#45;&gt;Node3 -->
<g id="edge8" class="edge">
<title>Node8&#45;&gt;Node3</title>
<path fill="none" stroke="midnightblue" d="M281.6,-162.38C267.86,-152.62 250.25,-140.11 238.61,-131.83"/>
<polygon fill="midnightblue" stroke="midnightblue" points="279.79,-165.38 289.96,-168.32 283.84,-159.68 279.79,-165.38"/>
</g>
<!-- Node9&#45;&gt;Node2 -->
<g id="edge10" class="edge">
<title>Node9&#45;&gt;Node2</title>
<path fill="none" stroke="midnightblue" d="M89.18,-101.8C89.18,-92.91 89.18,-82.78 89.18,-75.75"/>
<polygon fill="midnightblue" stroke="midnightblue" points="85.68,-102.08 89.18,-112.08 92.68,-102.08 85.68,-102.08"/>
</g>
<!-- Node10 -->
<g id="node10" class="node">
<title>Node10</title>
<g id="a_node10"><a xlink:href="interfacecmd_1_1_generatable.html" target="_top" xlink:title="変換してコードを生成できるノードのインタフェース.">
<polygon fill="white" stroke="black" points="168.68,-56.5 168.68,-75.5 237.68,-75.5 237.68,-56.5 168.68,-56.5"/>
<text text-anchor="middle" x="203.18" y="-63.5" font-family="Helvetica,sans-Serif" font-size="10.00">Generatable</text>
</a>
</g>
</g>
<!-- Node10&#45;&gt;Node1 -->
<g id="edge12" class="edge">
<title>Node10&#45;&gt;Node1</title>
<path fill="none" stroke="midnightblue" d="M175.93,-52.1C154.64,-42.01 125.63,-28.27 107.15,-19.52"/>
<polygon fill="midnightblue" stroke="midnightblue" points="174.58,-55.33 185.11,-56.44 177.57,-49 174.58,-55.33"/>
</g>
</g>
</svg>
