<?xml version="1.0" encoding="UTF-8" standalone="no"?>
<!DOCTYPE svg PUBLIC "-//W3C//DTD SVG 1.1//EN"
 "http://www.w3.org/Graphics/SVG/1.1/DTD/svg11.dtd">
<!-- Generated by graphviz version 2.47.0 (20210316.0004)
 -->
<!-- Title: AstLiteral Pages: 1 -->
<svg width="838pt" height="209pt"
 viewBox="0.00 0.00 838.00 209.00" xmlns="http://www.w3.org/2000/svg" xmlns:xlink="http://www.w3.org/1999/xlink">
<g id="graph0" class="graph" transform="scale(1 1) rotate(0) translate(4 205)">
<title>AstLiteral</title>
<polygon fill="white" stroke="transparent" points="-4,4 -4,-205 834,-205 834,4 -4,4"/>
<!-- Node1 -->
<g id="node1" class="node">
<title>Node1</title>
<g id="a_node1"><a xlink:title="値を返すことができる終端オブジェクトのクラス">
<polygon fill="#bfbfbf" stroke="black" points="462,-76.5 462,-95.5 520,-95.5 520,-76.5 462,-76.5"/>
<text text-anchor="middle" x="491" y="-83.5" font-family="Helvetica,sans-Serif" font-size="10.00">AstLiteral</text>
</a>
</g>
</g>
<!-- Node10 -->
<g id="node10" class="node">
<title>Node10</title>
<g id="a_node10"><a xlink:href="classast_1_1_ast_literal_1_1_boolean_literal.html" target="_top" xlink:title="ダミーの生成子．このクラス自身は直接生成されない．部分クラスからのみ生成される">
<polygon fill="white" stroke="black" points="556,-133.5 556,-152.5 678,-152.5 678,-133.5 556,-133.5"/>
<text text-anchor="middle" x="617" y="-140.5" font-family="Helvetica,sans-Serif" font-size="10.00">AstLiteral.BooleanLiteral</text>
</a>
</g>
</g>
<!-- Node1&#45;&gt;Node10 -->
<g id="edge11" class="edge">
<title>Node1&#45;&gt;Node10</title>
<path fill="none" stroke="midnightblue" d="M514.68,-101.2C526.62,-108.75 541.72,-117.6 556,-124 563.98,-127.57 572.83,-130.77 581.23,-133.47"/>
<polygon fill="midnightblue" stroke="midnightblue" points="516.53,-98.23 506.23,-95.74 512.73,-104.11 516.53,-98.23"/>
</g>
<!-- Node11 -->
<g id="node11" class="node">
<title>Node11</title>
<g id="a_node11"><a xlink:href="classast_1_1_ast_literal_1_1_double_literal.html" target="_top" xlink:title="Double値アトム">
<polygon fill="white" stroke="black" points="558,-95.5 558,-114.5 676,-114.5 676,-95.5 558,-95.5"/>
<text text-anchor="middle" x="617" y="-102.5" font-family="Helvetica,sans-Serif" font-size="10.00">AstLiteral.DoubleLiteral</text>
</a>
</g>
</g>
<!-- Node1&#45;&gt;Node11 -->
<g id="edge12" class="edge">
<title>Node1&#45;&gt;Node11</title>
<path fill="none" stroke="midnightblue" d="M530.06,-91.83C538.85,-93.18 548.4,-94.64 557.83,-96.09"/>
<polygon fill="midnightblue" stroke="midnightblue" points="530.55,-88.37 520.14,-90.31 529.49,-95.29 530.55,-88.37"/>
</g>
<!-- Node12 -->
<g id="node12" class="node">
<title>Node12</title>
<g id="a_node12"><a xlink:href="classast_1_1_ast_literal_1_1_integer_literal.html" target="_top" xlink:title="Integer値アトム">
<polygon fill="white" stroke="black" points="558.5,-57.5 558.5,-76.5 675.5,-76.5 675.5,-57.5 558.5,-57.5"/>
<text text-anchor="middle" x="617" y="-64.5" font-family="Helvetica,sans-Serif" font-size="10.00">AstLiteral.IntegerLiteral</text>
</a>
</g>
</g>
<!-- Node1&#45;&gt;Node12 -->
<g id="edge13" class="edge">
<title>Node1&#45;&gt;Node12</title>
<path fill="none" stroke="midnightblue" d="M530.19,-80.15C539.1,-78.78 548.78,-77.3 558.33,-75.84"/>
<polygon fill="midnightblue" stroke="midnightblue" points="529.49,-76.71 520.14,-81.69 530.55,-83.63 529.49,-76.71"/>
</g>
<!-- Node13 -->
<g id="node13" class="node">
<title>Node13</title>
<g id="a_node13"><a xlink:href="classast_1_1_ast_literal_1_1_string_expr.html" target="_top" xlink:title="String値アトム">
<polygon fill="white" stroke="black" points="563.5,-19.5 563.5,-38.5 670.5,-38.5 670.5,-19.5 563.5,-19.5"/>
<text text-anchor="middle" x="617" y="-26.5" font-family="Helvetica,sans-Serif" font-size="10.00">AstLiteral.StringExpr</text>
</a>
</g>
</g>
<!-- Node1&#45;&gt;Node13 -->
<g id="edge14" class="edge">
<title>Node1&#45;&gt;Node13</title>
<path fill="none" stroke="midnightblue" d="M514.68,-70.8C526.62,-63.25 541.72,-54.4 556,-48 563.98,-44.43 572.83,-41.23 581.23,-38.53"/>
<polygon fill="midnightblue" stroke="midnightblue" points="512.73,-67.89 506.23,-76.26 516.53,-73.77 512.73,-67.89"/>
</g>
<!-- Node2 -->
<g id="node2" class="node">
<title>Node2</title>
<g id="a_node2"><a xlink:href="classast_1_1_ast_node.html" target="_top" xlink:title="タグなしの順アクセスの子供をもてる抽象構文木のノードのクラス。">
<polygon fill="white" stroke="black" points="337,-105.5 337,-124.5 392,-124.5 392,-105.5 337,-105.5"/>
<text text-anchor="middle" x="364.5" y="-112.5" font-family="Helvetica,sans-Serif" font-size="10.00">AstNode</text>
</a>
</g>
</g>
<!-- Node2&#45;&gt;Node1 -->
<g id="edge1" class="edge">
<title>Node2&#45;&gt;Node1</title>
<path fill="none" stroke="midnightblue" d="M402.03,-106.49C421.04,-102.06 443.94,-96.73 461.6,-92.61"/>
<polygon fill="midnightblue" stroke="midnightblue" points="401.15,-103.1 392.21,-108.78 402.74,-109.92 401.15,-103.1"/>
</g>
<!-- Node3 -->
<g id="node3" class="node">
<title>Node3</title>
<g id="a_node3"><a xlink:href="classast_1_1_ast_node_base.html" target="_top" xlink:title=" ">
<polygon fill="white" stroke="black" points="150.5,-181.5 150.5,-200.5 227.5,-200.5 227.5,-181.5 150.5,-181.5"/>
<text text-anchor="middle" x="189" y="-188.5" font-family="Helvetica,sans-Serif" font-size="10.00">AstNodeBase</text>
</a>
</g>
</g>
<!-- Node3&#45;&gt;Node2 -->
<g id="edge2" class="edge">
<title>Node3&#45;&gt;Node2</title>
<path fill="none" stroke="midnightblue" d="M237.32,-181.63C247.29,-179.02 257.63,-175.83 267,-172 298.52,-159.13 332.04,-137.22 350.1,-124.64"/>
<polygon fill="midnightblue" stroke="midnightblue" points="236.38,-178.26 227.51,-184.05 238.06,-185.06 236.38,-178.26"/>
</g>
<!-- Node4 -->
<g id="node4" class="node">
<title>Node4</title>
<g id="a_node4"><a xlink:href="interfaceast_1_1_node.html" target="_top" xlink:title=" ">
<polygon fill="white" stroke="black" points="169,-143.5 169,-162.5 209,-162.5 209,-143.5 169,-143.5"/>
<text text-anchor="middle" x="189" y="-150.5" font-family="Helvetica,sans-Serif" font-size="10.00">Node</text>
</a>
</g>
</g>
<!-- Node4&#45;&gt;Node2 -->
<g id="edge3" class="edge">
<title>Node4&#45;&gt;Node2</title>
<path fill="none" stroke="midnightblue" d="M219.14,-146.62C252.01,-139.42 305,-127.81 336.82,-120.84"/>
<polygon fill="midnightblue" stroke="midnightblue" points="218.25,-143.23 209.23,-148.79 219.75,-150.07 218.25,-143.23"/>
</g>
<!-- Node5 -->
<g id="node5" class="node">
<title>Node5</title>
<g id="a_node5"><a xlink:href="interfaceformat_1_1_x_formattable.html" target="_top" xlink:title="入れ子フォーマット出力可能なオブジェクトのインタフェース。">
<polygon fill="white" stroke="black" points="0,-105.5 0,-124.5 75,-124.5 75,-105.5 0,-105.5"/>
<text text-anchor="middle" x="37.5" y="-112.5" font-family="Helvetica,sans-Serif" font-size="10.00">XFormattable</text>
</a>
</g>
</g>
<!-- Node5&#45;&gt;Node4 -->
<g id="edge4" class="edge">
<title>Node5&#45;&gt;Node4</title>
<path fill="none" stroke="midnightblue" d="M84.38,-127.13C93.21,-129.43 102.39,-131.81 111,-134 130.75,-139.02 153.4,-144.59 168.99,-148.39"/>
<polygon fill="midnightblue" stroke="midnightblue" points="85.17,-123.72 74.61,-124.57 83.4,-130.49 85.17,-123.72"/>
</g>
<!-- Node6 -->
<g id="node6" class="node">
<title>Node6</title>
<g id="a_node6"><a xlink:href="interfaceformat_1_1_x_formattable_1_1_navigatable.html" target="_top" xlink:title="木構造の分岐ノードとして清書可能なオブジェクトのクラス">
<polygon fill="white" stroke="black" points="124,-105.5 124,-124.5 254,-124.5 254,-105.5 124,-105.5"/>
<text text-anchor="middle" x="189" y="-112.5" font-family="Helvetica,sans-Serif" font-size="10.00">XFormattable.Navigatable</text>
</a>
</g>
</g>
<!-- Node5&#45;&gt;Node6 -->
<g id="edge6" class="edge">
<title>Node5&#45;&gt;Node6</title>
<path fill="none" stroke="midnightblue" d="M85.43,-115C97.61,-115 110.93,-115 123.82,-115"/>
<polygon fill="midnightblue" stroke="midnightblue" points="85.07,-111.5 75.07,-115 85.07,-118.5 85.07,-111.5"/>
</g>
<!-- Node7 -->
<g id="node7" class="node">
<title>Node7</title>
<g id="a_node7"><a xlink:href="interfaceformat_1_1_x_formattable_1_1_typed_formattable.html" target="_top" xlink:title="ノードの型情報をもつ書式出力可能なオブジェクトのインタフェース．">
<polygon fill="white" stroke="black" points="111,-67.5 111,-86.5 267,-86.5 267,-67.5 111,-67.5"/>
<text text-anchor="middle" x="189" y="-74.5" font-family="Helvetica,sans-Serif" font-size="10.00">XFormattable.TypedFormattable</text>
</a>
</g>
</g>
<!-- Node5&#45;&gt;Node7 -->
<g id="edge8" class="edge">
<title>Node5&#45;&gt;Node7</title>
<path fill="none" stroke="midnightblue" d="M84.38,-102.87C93.21,-100.57 102.39,-98.19 111,-96 123.28,-92.88 136.67,-89.54 148.8,-86.56"/>
<polygon fill="midnightblue" stroke="midnightblue" points="83.4,-99.51 74.61,-105.43 85.17,-106.28 83.4,-99.51"/>
</g>
<!-- Node6&#45;&gt;Node2 -->
<g id="edge5" class="edge">
<title>Node6&#45;&gt;Node2</title>
<path fill="none" stroke="midnightblue" d="M264.28,-115C290.07,-115 317.36,-115 336.78,-115"/>
<polygon fill="midnightblue" stroke="midnightblue" points="264.11,-111.5 254.11,-115 264.11,-118.5 264.11,-111.5"/>
</g>
<!-- Node7&#45;&gt;Node2 -->
<g id="edge7" class="edge">
<title>Node7&#45;&gt;Node2</title>
<path fill="none" stroke="midnightblue" d="M243.56,-88.73C274.48,-95.5 312.02,-103.73 336.78,-109.15"/>
<polygon fill="midnightblue" stroke="midnightblue" points="244.3,-85.31 233.78,-86.59 242.8,-92.15 244.3,-85.31"/>
</g>
<!-- Node8 -->
<g id="node8" class="node">
<title>Node8</title>
<g id="a_node8"><a xlink:href="interfacecmd_1_1_generatable_1_1_evaluatable.html" target="_top" xlink:title="評価して値を返すノードのインタフェース．必ずしもコードを生成しなくても良い．">
<polygon fill="white" stroke="black" points="303,-48.5 303,-67.5 426,-67.5 426,-48.5 303,-48.5"/>
<text text-anchor="middle" x="364.5" y="-55.5" font-family="Helvetica,sans-Serif" font-size="10.00">Generatable.Evaluatable</text>
</a>
</g>
</g>
<!-- Node8&#45;&gt;Node1 -->
<g id="edge9" class="edge">
<title>Node8&#45;&gt;Node1</title>
<path fill="none" stroke="midnightblue" d="M417.76,-69.75C432.85,-73.15 448.74,-76.72 461.77,-79.65"/>
<polygon fill="midnightblue" stroke="midnightblue" points="418.52,-66.34 408,-67.56 416.99,-73.17 418.52,-66.34"/>
</g>
<!-- Node9 -->
<g id="node9" class="node">
<title>Node9</title>
<g id="a_node9"><a xlink:href="interfacecmd_1_1_generatable.html" target="_top" xlink:title="変換してコードを生成できるノードのインタフェース.">
<polygon fill="white" stroke="black" points="154.5,-29.5 154.5,-48.5 223.5,-48.5 223.5,-29.5 154.5,-29.5"/>
<text text-anchor="middle" x="189" y="-36.5" font-family="Helvetica,sans-Serif" font-size="10.00">Generatable</text>
</a>
</g>
</g>
<!-- Node9&#45;&gt;Node8 -->
<g id="edge10" class="edge">
<title>Node9&#45;&gt;Node8</title>
<path fill="none" stroke="midnightblue" d="M234.01,-43.82C254.84,-46.1 280.06,-48.86 302.68,-51.34"/>
<polygon fill="midnightblue" stroke="midnightblue" points="234.19,-40.32 223.86,-42.71 233.42,-47.28 234.19,-40.32"/>
</g>
<!-- Node14 -->
<g id="node14" class="node">
<title>Node14</title>
<g id="a_node14"><a xlink:href="classast_1_1_ast_literal_1_1_regex_literal.html" target="_top" xlink:title=" ">
<polygon fill="white" stroke="black" points="714,-38.5 714,-57.5 830,-57.5 830,-38.5 714,-38.5"/>
<text text-anchor="middle" x="772" y="-45.5" font-family="Helvetica,sans-Serif" font-size="10.00">AstLiteral.RegexLiteral</text>
</a>
</g>
</g>
<!-- Node13&#45;&gt;Node14 -->
<g id="edge15" class="edge">
<title>Node13&#45;&gt;Node14</title>
<path fill="none" stroke="midnightblue" d="M680.6,-36.77C691.59,-38.14 702.97,-39.55 713.8,-40.9"/>
<polygon fill="midnightblue" stroke="midnightblue" points="681.01,-33.3 670.65,-35.54 680.15,-40.24 681.01,-33.3"/>
</g>
<!-- Node15 -->
<g id="node15" class="node">
<title>Node15</title>
<g id="a_node15"><a xlink:href="classast_1_1_ast_literal_1_1_string_literal.html" target="_top" xlink:title=" ">
<polygon fill="white" stroke="black" points="715.5,-0.5 715.5,-19.5 828.5,-19.5 828.5,-0.5 715.5,-0.5"/>
<text text-anchor="middle" x="772" y="-7.5" font-family="Helvetica,sans-Serif" font-size="10.00">AstLiteral.StringLiteral</text>
</a>
</g>
</g>
<!-- Node13&#45;&gt;Node15 -->
<g id="edge16" class="edge">
<title>Node13&#45;&gt;Node15</title>
<path fill="none" stroke="midnightblue" d="M680.63,-21.22C692.14,-19.79 704.09,-18.31 715.38,-16.91"/>
<polygon fill="midnightblue" stroke="midnightblue" points="680.15,-17.76 670.65,-22.46 681.01,-24.7 680.15,-17.76"/>
</g>
</g>
</svg>
