<?xml version="1.0" encoding="UTF-8" standalone="no"?>
<!DOCTYPE svg PUBLIC "-//W3C//DTD SVG 1.1//EN"
 "http://www.w3.org/Graphics/SVG/1.1/DTD/svg11.dtd">
<!-- Generated by graphviz version 2.47.1 (20210417.1919)
 -->
<!-- Title: capacity Pages: 1 -->
<svg width="532pt" height="28pt"
 viewBox="0.00 0.00 532.00 28.00" xmlns="http://www.w3.org/2000/svg" xmlns:xlink="http://www.w3.org/1999/xlink">
<g id="graph0" class="graph" transform="scale(1 1) rotate(0) translate(4 24)">
<title>capacity</title>
<polygon fill="white" stroke="transparent" points="-4,4 -4,-24 528,-24 528,4 -4,4"/>
<!-- Node1 -->
<g id="node1" class="node">
<title>Node1</title>
<g id="a_node1"><a xlink:title="スタックの現在の容量を、保持できる要素数で返す.">
<polygon fill="#bfbfbf" stroke="black" points="471,-0.5 471,-19.5 524,-19.5 524,-0.5 471,-0.5"/>
<text text-anchor="middle" x="497.5" y="-7.5" font-family="Helvetica,sans-Serif" font-size="10.00">capacity</text>
</a>
</g>
</g>
<!-- Node2 -->
<g id="node2" class="node">
<title>Node2</title>
<g id="a_node2"><a xlink:href="classutil_1_1_stack_base_1_1_stat.html#ad5fe06b1a42347fd1cb12382b5739f0e" target="_top" xlink:title="更新する.">
<polygon fill="white" stroke="black" points="301,-0.5 301,-19.5 435,-19.5 435,-0.5 301,-0.5"/>
<text text-anchor="middle" x="368" y="-7.5" font-family="Helvetica,sans-Serif" font-size="10.00">util.StackBase.Stat.update</text>
</a>
</g>
</g>
<!-- Node1&#45;&gt;Node2 -->
<g id="edge1" class="edge">
<title>Node1&#45;&gt;Node2</title>
<path fill="none" stroke="midnightblue" d="M460.65,-10C452.65,-10 443.91,-10 435.12,-10"/>
<polygon fill="midnightblue" stroke="midnightblue" points="460.7,-13.5 470.7,-10 460.7,-6.5 460.7,-13.5"/>
</g>
<!-- Node3 -->
<g id="node3" class="node">
<title>Node3</title>
<g id="a_node3"><a xlink:href="classutil_1_1_stack_base.html#afc83463b28590258e734220f6cafdbfb" target="_top" xlink:title="メモリ割り当てルーチン">
<polygon fill="white" stroke="black" points="180,-0.5 180,-19.5 265,-19.5 265,-0.5 180,-0.5"/>
<text text-anchor="middle" x="222.5" y="-7.5" font-family="Helvetica,sans-Serif" font-size="10.00">ensureCapacity</text>
</a>
</g>
</g>
<!-- Node2&#45;&gt;Node3 -->
<g id="edge2" class="edge">
<title>Node2&#45;&gt;Node3</title>
<path fill="none" stroke="midnightblue" d="M290.53,-10C281.87,-10 273.3,-10 265.33,-10"/>
<polygon fill="midnightblue" stroke="midnightblue" points="290.71,-13.5 300.71,-10 290.71,-6.5 290.71,-13.5"/>
</g>
<!-- Node4 -->
<g id="node4" class="node">
<title>Node4</title>
<g id="a_node4"><a xlink:href="classutil_1_1_stack_base.html#a43e79abd6dbad7bc60422a3043912493" target="_top" xlink:title="スタックにエントリをプッシュし、その番地を返す。">
<polygon fill="white" stroke="black" points="74,-0.5 74,-19.5 144,-19.5 144,-0.5 74,-0.5"/>
<text text-anchor="middle" x="109" y="-7.5" font-family="Helvetica,sans-Serif" font-size="10.00">_push_entry</text>
</a>
</g>
</g>
<!-- Node3&#45;&gt;Node4 -->
<g id="edge3" class="edge">
<title>Node3&#45;&gt;Node4</title>
<path fill="none" stroke="midnightblue" d="M169.89,-10C161.2,-10 152.37,-10 144.26,-10"/>
<polygon fill="midnightblue" stroke="midnightblue" points="169.98,-13.5 179.98,-10 169.98,-6.5 169.98,-13.5"/>
</g>
<!-- Node5 -->
<g id="node5" class="node">
<title>Node5</title>
<g id="a_node5"><a xlink:href="classutil_1_1_stack_base.html#a95cd624d209c6e05e342b8f5f85ed28a" target="_top" xlink:title="スタックに値 val をプッシュし、その番地を返す。 定数時間で実行可能である.">
<polygon fill="white" stroke="red" points="0,-0.5 0,-19.5 38,-19.5 38,-0.5 0,-0.5"/>
<text text-anchor="middle" x="19" y="-7.5" font-family="Helvetica,sans-Serif" font-size="10.00">push</text>
</a>
</g>
</g>
<!-- Node4&#45;&gt;Node5 -->
<g id="edge4" class="edge">
<title>Node4&#45;&gt;Node5</title>
<path fill="none" stroke="midnightblue" d="M63.82,-10C54.75,-10 45.7,-10 38.19,-10"/>
<polygon fill="midnightblue" stroke="midnightblue" points="63.98,-13.5 73.98,-10 63.98,-6.5 63.98,-13.5"/>
</g>
</g>
</svg>
