<?xml version="1.0" encoding="UTF-8" standalone="no"?>
<!DOCTYPE svg PUBLIC "-//W3C//DTD SVG 1.1//EN"
 "http://www.w3.org/Graphics/SVG/1.1/DTD/svg11.dtd">
<!-- Generated by graphviz version 2.47.1 (20210417.1919)
 -->
<!-- Title: scanFromSource Pages: 1 -->
<svg width="296pt" height="116pt"
 viewBox="0.00 0.00 296.00 115.50" xmlns="http://www.w3.org/2000/svg" xmlns:xlink="http://www.w3.org/1999/xlink">
<g id="graph0" class="graph" transform="scale(1 1) rotate(0) translate(4 111.5)">
<title>scanFromSource</title>
<polygon fill="white" stroke="transparent" points="-4,4 -4,-111.5 292,-111.5 292,4 -4,4"/>
<!-- Node1 -->
<g id="node1" class="node">
<title>Node1</title>
<g id="a_node1"><a xlink:title="根クエリrootIDのもとで、与えられた入力ストリームを走査する。">
<polygon fill="#bfbfbf" stroke="black" points="0,-38.5 0,-57.5 91,-57.5 91,-38.5 0,-38.5"/>
<text text-anchor="middle" x="45.5" y="-45.5" font-family="Helvetica,sans-Serif" font-size="10.00">scanFromSource</text>
</a>
</g>
</g>
<!-- Node2 -->
<g id="node2" class="node">
<title>Node2</title>
<g id="a_node2"><a xlink:href="interfacemachine_1_1_input_manageable.html#a60f45cbb5ec87bf072e44a7edbf88a26" target="_top" xlink:title="入力ストリームからイベントストリームを生成する。">
<polygon fill="white" stroke="black" points="127,-77 127,-107 288,-107 288,-77 127,-77"/>
<text text-anchor="start" x="135" y="-95" font-family="Helvetica,sans-Serif" font-size="10.00">machine.InputManageable.create</text>
<text text-anchor="middle" x="207.5" y="-84" font-family="Helvetica,sans-Serif" font-size="10.00">EventReadable</text>
</a>
</g>
</g>
<!-- Node1&#45;&gt;Node2 -->
<g id="edge1" class="edge">
<title>Node1&#45;&gt;Node2</title>
<path fill="none" stroke="midnightblue" d="M81.22,-57.55C98.99,-62.43 121.21,-68.55 141.98,-74.26"/>
<polygon fill="midnightblue" stroke="midnightblue" points="141.15,-77.66 151.72,-76.93 143,-70.91 141.15,-77.66"/>
</g>
<!-- Node3 -->
<g id="node3" class="node">
<title>Node3</title>
<g id="a_node3"><a xlink:href="interfacemachine_1_1_runnable.html#a9424838efab9e789bf3a32b11f44deac" target="_top" xlink:title="文字マスク索引オブジェクトを返す。">
<polygon fill="white" stroke="black" points="127,-38.5 127,-57.5 288,-57.5 288,-38.5 127,-38.5"/>
<text text-anchor="middle" x="207.5" y="-45.5" font-family="Helvetica,sans-Serif" font-size="10.00">machine.Runnable.getDispatcher</text>
</a>
</g>
</g>
<!-- Node1&#45;&gt;Node3 -->
<g id="edge2" class="edge">
<title>Node1&#45;&gt;Node3</title>
<path fill="none" stroke="midnightblue" d="M91.07,-48C99.2,-48 107.94,-48 116.84,-48"/>
<polygon fill="midnightblue" stroke="midnightblue" points="116.94,-51.5 126.94,-48 116.94,-44.5 116.94,-51.5"/>
</g>
<!-- Node4 -->
<g id="node4" class="node">
<title>Node4</title>
<g id="a_node4"><a xlink:href="interfaceevent_1_1_event.html#a924f80dc9f50bcdeea9e2d11afb8e04e" target="_top" xlink:title="イベントのタイプを返す。">
<polygon fill="white" stroke="black" points="162,-0.5 162,-19.5 253,-19.5 253,-0.5 162,-0.5"/>
<text text-anchor="middle" x="207.5" y="-7.5" font-family="Helvetica,sans-Serif" font-size="10.00">event.Event.type</text>
</a>
</g>
</g>
<!-- Node1&#45;&gt;Node4 -->
<g id="edge3" class="edge">
<title>Node1&#45;&gt;Node4</title>
<path fill="none" stroke="midnightblue" d="M86.87,-38.41C107.99,-33.4 134.03,-27.21 156.42,-21.89"/>
<polygon fill="midnightblue" stroke="midnightblue" points="157.49,-25.24 166.42,-19.52 155.88,-18.43 157.49,-25.24"/>
</g>
</g>
</svg>
