<?xml version="1.0" encoding="UTF-8" standalone="no"?>
<!DOCTYPE svg PUBLIC "-//W3C//DTD SVG 1.1//EN"
 "http://www.w3.org/Graphics/SVG/1.1/DTD/svg11.dtd">
<!-- Generated by graphviz version 2.47.0 (20210316.0004)
 -->
<!-- Title: Program Pages: 1 -->
<svg width="409pt" height="252pt"
 viewBox="0.00 0.00 408.50 252.00" xmlns="http://www.w3.org/2000/svg" xmlns:xlink="http://www.w3.org/1999/xlink">
<g id="graph0" class="graph" transform="scale(1 1) rotate(0) translate(4 248)">
<title>Program</title>
<polygon fill="white" stroke="transparent" points="-4,4 -4,-248 404.5,-248 404.5,4 -4,4"/>
<!-- Node1 -->
<g id="node1" class="node">
<title>Node1</title>
<g id="a_node1"><a xlink:title="ルールの集合からなるコンパイル済みのプログラム.">
<polygon fill="#bfbfbf" stroke="black" points="288,-0.5 288,-19.5 341,-19.5 341,-0.5 288,-0.5"/>
<text text-anchor="middle" x="314.5" y="-7.5" font-family="Helvetica,sans-Serif" font-size="10.00">Program</text>
</a>
</g>
</g>
<!-- Node2 -->
<g id="node2" class="node">
<title>Node2</title>
<g id="a_node2"><a xlink:href="classast_1_1_ast_node_tagged.html" target="_top" xlink:title="子それぞれにタグと型アイテムをもつ順序ノードAstNodeのサブクラス．利用者は自前で，追加する子のField名と型を設定する．読み出しは子の添字のみで行う．">
<polygon fill="white" stroke="black" points="200.5,-56.5 200.5,-75.5 286.5,-75.5 286.5,-56.5 200.5,-56.5"/>
<text text-anchor="middle" x="243.5" y="-63.5" font-family="Helvetica,sans-Serif" font-size="10.00">AstNodeTagged</text>
</a>
</g>
</g>
<!-- Node2&#45;&gt;Node1 -->
<g id="edge1" class="edge">
<title>Node2&#45;&gt;Node1</title>
<path fill="none" stroke="midnightblue" d="M263.09,-50.1C275.87,-40.38 292.11,-28.03 302.89,-19.83"/>
<polygon fill="midnightblue" stroke="midnightblue" points="260.75,-47.48 254.91,-56.32 264.99,-53.06 260.75,-47.48"/>
</g>
<!-- Node3 -->
<g id="node3" class="node">
<title>Node3</title>
<g id="a_node3"><a xlink:href="classast_1_1_ast_node.html" target="_top" xlink:title="タグなしの順アクセスの子供をもてる抽象構文木のノードのクラス。">
<polygon fill="white" stroke="black" points="166,-112.5 166,-131.5 221,-131.5 221,-112.5 166,-112.5"/>
<text text-anchor="middle" x="193.5" y="-119.5" font-family="Helvetica,sans-Serif" font-size="10.00">AstNode</text>
</a>
</g>
</g>
<!-- Node3&#45;&gt;Node2 -->
<g id="edge2" class="edge">
<title>Node3&#45;&gt;Node2</title>
<path fill="none" stroke="midnightblue" d="M202.8,-104.14C210.65,-94.74 221.54,-83.4 230.27,-75.75"/>
<polygon fill="midnightblue" stroke="midnightblue" points="199.99,-102.05 196.59,-112.08 205.51,-106.36 199.99,-102.05"/>
</g>
<!-- Node3&#45;&gt;Node2 -->
<g id="edge10" class="edge">
<title>Node3&#45;&gt;Node2</title>
<path fill="none" stroke="midnightblue" d="M214.28,-105.25C224.14,-95.67 234.8,-83.79 240.47,-75.83"/>
<polygon fill="midnightblue" stroke="midnightblue" points="211.6,-102.96 206.65,-112.32 216.36,-108.09 211.6,-102.96"/>
</g>
<!-- Node4 -->
<g id="node4" class="node">
<title>Node4</title>
<g id="a_node4"><a xlink:href="classast_1_1_ast_node_base.html" target="_top" xlink:title=" ">
<polygon fill="white" stroke="black" points="0,-168.5 0,-187.5 77,-187.5 77,-168.5 0,-168.5"/>
<text text-anchor="middle" x="38.5" y="-175.5" font-family="Helvetica,sans-Serif" font-size="10.00">AstNodeBase</text>
</a>
</g>
</g>
<!-- Node4&#45;&gt;Node3 -->
<g id="edge3" class="edge">
<title>Node4&#45;&gt;Node3</title>
<path fill="none" stroke="midnightblue" d="M72.83,-165.04C102,-154.88 143.14,-140.55 169.05,-131.52"/>
<polygon fill="midnightblue" stroke="midnightblue" points="71.35,-161.85 63.06,-168.44 73.66,-168.46 71.35,-161.85"/>
</g>
<!-- Node5 -->
<g id="node5" class="node">
<title>Node5</title>
<g id="a_node5"><a xlink:href="interfaceformat_1_1_x_formattable_1_1_navigatable.html" target="_top" xlink:title="木構造の分岐ノードとして清書可能なオブジェクトのクラス">
<polygon fill="white" stroke="black" points="269.5,-168.5 269.5,-187.5 399.5,-187.5 399.5,-168.5 269.5,-168.5"/>
<text text-anchor="middle" x="334.5" y="-175.5" font-family="Helvetica,sans-Serif" font-size="10.00">XFormattable.Navigatable</text>
</a>
</g>
</g>
<!-- Node5&#45;&gt;Node3 -->
<g id="edge4" class="edge">
<title>Node5&#45;&gt;Node3</title>
<path fill="none" stroke="midnightblue" d="M302.57,-164.77C276.09,-154.63 239.11,-140.47 215.74,-131.52"/>
<polygon fill="midnightblue" stroke="midnightblue" points="301.57,-168.14 312.16,-168.44 304.07,-161.6 301.57,-168.14"/>
</g>
<!-- Node8 -->
<g id="node8" class="node">
<title>Node8</title>
<g id="a_node8"><a xlink:href="interfaceformat_1_1_x_formattable_1_1_field_navigatable.html" target="_top" xlink:title="タグ付きノードに対応する清書対象のクラス。">
<polygon fill="white" stroke="black" points="239,-112.5 239,-131.5 390,-131.5 390,-112.5 239,-112.5"/>
<text text-anchor="middle" x="314.5" y="-119.5" font-family="Helvetica,sans-Serif" font-size="10.00">XFormattable.FieldNavigatable</text>
</a>
</g>
</g>
<!-- Node5&#45;&gt;Node8 -->
<g id="edge9" class="edge">
<title>Node5&#45;&gt;Node8</title>
<path fill="none" stroke="midnightblue" d="M327.72,-158.69C324.35,-149.59 320.43,-139.01 317.74,-131.75"/>
<polygon fill="midnightblue" stroke="midnightblue" points="324.44,-159.92 331.2,-168.08 331.01,-157.49 324.44,-159.92"/>
</g>
<!-- Node6 -->
<g id="node6" class="node">
<title>Node6</title>
<g id="a_node6"><a xlink:href="interfaceformat_1_1_x_formattable.html" target="_top" xlink:title="入れ子フォーマット出力可能なオブジェクトのインタフェース。">
<polygon fill="white" stroke="black" points="216,-224.5 216,-243.5 291,-243.5 291,-224.5 216,-224.5"/>
<text text-anchor="middle" x="253.5" y="-231.5" font-family="Helvetica,sans-Serif" font-size="10.00">XFormattable</text>
</a>
</g>
</g>
<!-- Node6&#45;&gt;Node5 -->
<g id="edge5" class="edge">
<title>Node6&#45;&gt;Node5</title>
<path fill="none" stroke="midnightblue" d="M275.07,-218.62C289.86,-208.76 309.01,-195.99 321.52,-187.65"/>
<polygon fill="midnightblue" stroke="midnightblue" points="272.89,-215.86 266.51,-224.32 276.78,-221.69 272.89,-215.86"/>
</g>
<!-- Node7 -->
<g id="node7" class="node">
<title>Node7</title>
<g id="a_node7"><a xlink:href="interfaceformat_1_1_x_formattable_1_1_typed_formattable.html" target="_top" xlink:title="ノードの型情報をもつ書式出力可能なオブジェクトのインタフェース．">
<polygon fill="white" stroke="black" points="95.5,-168.5 95.5,-187.5 251.5,-187.5 251.5,-168.5 95.5,-168.5"/>
<text text-anchor="middle" x="173.5" y="-175.5" font-family="Helvetica,sans-Serif" font-size="10.00">XFormattable.TypedFormattable</text>
</a>
</g>
</g>
<!-- Node6&#45;&gt;Node7 -->
<g id="edge7" class="edge">
<title>Node6&#45;&gt;Node7</title>
<path fill="none" stroke="midnightblue" d="M232.2,-218.62C217.58,-208.76 198.67,-195.99 186.32,-187.65"/>
<polygon fill="midnightblue" stroke="midnightblue" points="230.4,-221.63 240.65,-224.32 234.32,-215.83 230.4,-221.63"/>
</g>
<!-- Node7&#45;&gt;Node3 -->
<g id="edge6" class="edge">
<title>Node7&#45;&gt;Node3</title>
<path fill="none" stroke="midnightblue" d="M180.28,-158.69C183.65,-149.59 187.57,-139.01 190.26,-131.75"/>
<polygon fill="midnightblue" stroke="midnightblue" points="176.99,-157.49 176.8,-168.08 183.56,-159.92 176.99,-157.49"/>
</g>
<!-- Node8&#45;&gt;Node1 -->
<g id="edge13" class="edge">
<title>Node8&#45;&gt;Node1</title>
<path fill="none" stroke="midnightblue" d="M314.5,-102.35C314.5,-78.25 314.5,-37.31 314.5,-19.59"/>
<polygon fill="midnightblue" stroke="midnightblue" points="311,-102.37 314.5,-112.37 318,-102.37 311,-102.37"/>
</g>
<!-- Node8&#45;&gt;Node2 -->
<g id="edge8" class="edge">
<title>Node8&#45;&gt;Node2</title>
<path fill="none" stroke="midnightblue" d="M289.6,-106.66C275.54,-96.86 259.17,-84.18 249.97,-75.83"/>
<polygon fill="midnightblue" stroke="midnightblue" points="287.73,-109.62 297.98,-112.32 291.66,-103.82 287.73,-109.62"/>
</g>
<!-- Node8&#45;&gt;Node2 -->
<g id="edge11" class="edge">
<title>Node8&#45;&gt;Node2</title>
<path fill="none" stroke="midnightblue" d="M300.63,-105.78C288.89,-96.04 272.4,-83.76 259.99,-75.65"/>
<polygon fill="midnightblue" stroke="midnightblue" points="298.35,-108.44 308.21,-112.32 302.93,-103.14 298.35,-108.44"/>
</g>
<!-- Node9 -->
<g id="node9" class="node">
<title>Node9</title>
<g id="a_node9"><a xlink:href="interfacemachine_1_1_runnable.html" target="_top" xlink:title="実行可能なプログラムのインタフェース.">
<polygon fill="white" stroke="black" points="342.5,-56.5 342.5,-75.5 400.5,-75.5 400.5,-56.5 342.5,-56.5"/>
<text text-anchor="middle" x="371.5" y="-63.5" font-family="Helvetica,sans-Serif" font-size="10.00">Runnable</text>
</a>
</g>
</g>
<!-- Node9&#45;&gt;Node1 -->
<g id="edge12" class="edge">
<title>Node9&#45;&gt;Node1</title>
<path fill="none" stroke="midnightblue" d="M354.88,-49.25C344.77,-39.67 332.22,-27.79 323.82,-19.83"/>
<polygon fill="midnightblue" stroke="midnightblue" points="352.68,-51.99 362.34,-56.32 357.49,-46.91 352.68,-51.99"/>
</g>
</g>
</svg>
