<?xml version="1.0" encoding="UTF-8" standalone="no"?>
<!DOCTYPE svg PUBLIC "-//W3C//DTD SVG 1.1//EN"
 "http://www.w3.org/Graphics/SVG/1.1/DTD/svg11.dtd">
<!-- Generated by graphviz version 2.47.0 (20210316.0004)
 -->
<!-- Title: AstAtom.StringExpr Pages: 1 -->
<svg width="590pt" height="277pt"
 viewBox="0.00 0.00 589.50 277.00" xmlns="http://www.w3.org/2000/svg" xmlns:xlink="http://www.w3.org/1999/xlink">
<g id="graph0" class="graph" transform="scale(1 1) rotate(0) translate(4 273)">
<title>AstAtom.StringExpr</title>
<polygon fill="white" stroke="transparent" points="-4,4 -4,-273 585.5,-273 585.5,4 -4,4"/>
<!-- Node1 -->
<g id="node1" class="node">
<title>Node1</title>
<g id="a_node1"><a xlink:title="String値アトム">
<polygon fill="#bfbfbf" stroke="black" points="383,-0.5 383,-19.5 487,-19.5 487,-0.5 383,-0.5"/>
<text text-anchor="middle" x="435" y="-7.5" font-family="Helvetica,sans-Serif" font-size="10.00">AstAtom.StringExpr</text>
</a>
</g>
</g>
<!-- Node2 -->
<g id="node2" class="node">
<title>Node2</title>
<g id="a_node2"><a xlink:href="$classast_1_1_ast_atom.html" xlink:title="値を返すことができる終端オブジェクトのクラス">
<polygon fill="white" stroke="black" points="340.5,-57.5 340.5,-76.5 395.5,-76.5 395.5,-57.5 340.5,-57.5"/>
<text text-anchor="middle" x="368" y="-64.5" font-family="Helvetica,sans-Serif" font-size="10.00">AstAtom</text>
</a>
</g>
</g>
<!-- Node2&#45;&gt;Node1 -->
<g id="edge1" class="edge">
<title>Node2&#45;&gt;Node1</title>
<path fill="none" stroke="midnightblue" d="M386.27,-51C398.5,-40.96 414.16,-28.1 424.38,-19.71"/>
<polygon fill="midnightblue" stroke="midnightblue" points="383.98,-48.36 378.47,-57.41 388.42,-53.77 383.98,-48.36"/>
</g>
<!-- Node3 -->
<g id="node3" class="node">
<title>Node3</title>
<g id="a_node3"><a xlink:href="$classast_1_1_ast_terminal.html" xlink:title="値型をもたない終端オブジェクトのクラス">
<polygon fill="white" stroke="black" points="220,-114.5 220,-133.5 288,-133.5 288,-114.5 220,-114.5"/>
<text text-anchor="middle" x="254" y="-121.5" font-family="Helvetica,sans-Serif" font-size="10.00">AstTerminal</text>
</a>
</g>
</g>
<!-- Node3&#45;&gt;Node2 -->
<g id="edge2" class="edge">
<title>Node3&#45;&gt;Node2</title>
<path fill="none" stroke="midnightblue" d="M281.04,-109.96C302.46,-99.62 331.79,-85.47 350.31,-76.53"/>
<polygon fill="midnightblue" stroke="midnightblue" points="279.3,-106.91 271.81,-114.41 282.34,-113.21 279.3,-106.91"/>
</g>
<!-- Node4 -->
<g id="node4" class="node">
<title>Node4</title>
<g id="a_node4"><a xlink:href="$classast_1_1_ast_node.html" xlink:title=" ">
<polygon fill="white" stroke="black" points="197.5,-171.5 197.5,-190.5 252.5,-190.5 252.5,-171.5 197.5,-171.5"/>
<text text-anchor="middle" x="225" y="-178.5" font-family="Helvetica,sans-Serif" font-size="10.00">AstNode</text>
</a>
</g>
</g>
<!-- Node4&#45;&gt;Node3 -->
<g id="edge3" class="edge">
<title>Node4&#45;&gt;Node3</title>
<path fill="none" stroke="midnightblue" d="M234.31,-162.33C239.36,-152.77 245.36,-141.38 249.4,-133.71"/>
<polygon fill="midnightblue" stroke="midnightblue" points="231.1,-160.93 229.53,-171.41 237.29,-164.19 231.1,-160.93"/>
</g>
<!-- Node5 -->
<g id="node5" class="node">
<title>Node5</title>
<g id="a_node5"><a xlink:href="$interfaceformat_1_1_x_formattable.html" xlink:title="入れ子フォーマット出力可能なオブジェクトのインタフェース。">
<polygon fill="white" stroke="black" points="486.5,-249.5 486.5,-268.5 561.5,-268.5 561.5,-249.5 486.5,-249.5"/>
<text text-anchor="middle" x="524" y="-256.5" font-family="Helvetica,sans-Serif" font-size="10.00">XFormattable</text>
</a>
</g>
</g>
<!-- Node5&#45;&gt;Node4 -->
<g id="edge4" class="edge">
<title>Node5&#45;&gt;Node4</title>
<path fill="none" stroke="midnightblue" d="M517.75,-239.82C513.01,-228.96 505.35,-215.95 494,-209 449.9,-182 313.07,-199.14 262,-191 259,-190.52 255.88,-189.92 252.78,-189.27"/>
<polygon fill="midnightblue" stroke="midnightblue" points="514.56,-241.26 521.43,-249.32 521.08,-238.73 514.56,-241.26"/>
</g>
<!-- Node12 -->
<g id="node12" class="node">
<title>Node12</title>
<g id="a_node12"><a xlink:href="$interfaceformat_1_1_x_formattable_1_1_terminatable.html" xlink:title="木構造の終端として清書可能なオブジェクトのクラス">
<polygon fill="white" stroke="black" points="271,-171.5 271,-190.5 405,-190.5 405,-171.5 271,-171.5"/>
<text text-anchor="middle" x="338" y="-178.5" font-family="Helvetica,sans-Serif" font-size="10.00">XFormattable.Terminatable</text>
</a>
</g>
</g>
<!-- Node5&#45;&gt;Node12 -->
<g id="edge12" class="edge">
<title>Node5&#45;&gt;Node12</title>
<path fill="none" stroke="midnightblue" d="M528.97,-239.22C530.45,-229.09 530.11,-217.06 523,-209 520.95,-206.68 455.7,-197.54 403.26,-190.53"/>
<polygon fill="midnightblue" stroke="midnightblue" points="525.5,-238.67 526.88,-249.18 532.35,-240.11 525.5,-238.67"/>
</g>
<!-- Node6 -->
<g id="node6" class="node">
<title>Node6</title>
<g id="a_node6"><a xlink:title=" ">
<polygon fill="white" stroke="#bfbfbf" points="0,-249.5 0,-268.5 42,-268.5 42,-249.5 0,-249.5"/>
<text text-anchor="middle" x="21" y="-256.5" font-family="Helvetica,sans-Serif" font-size="10.00">String</text>
</a>
</g>
</g>
<!-- Node6&#45;&gt;Node1 -->
<g id="edge17" class="edge">
<title>Node6&#45;&gt;Node1</title>
<path fill="none" stroke="#9a32cd" stroke-dasharray="5,2" d="M21,-238.83C21,-223.46 21,-201.35 21,-182 21,-182 21,-182 21,-66 21,-29.88 271.79,-16.67 382.99,-12.59"/>
<polygon fill="#9a32cd" stroke="#9a32cd" points="17.5,-239.11 21,-249.11 24.5,-239.11 17.5,-239.11"/>
<text text-anchor="middle" x="32" y="-121.5" font-family="Helvetica,sans-Serif" font-size="10.00"> sval</text>
</g>
<!-- Node6&#45;&gt;Node4 -->
<g id="edge5" class="edge">
<title>Node6&#45;&gt;Node4</title>
<path fill="none" stroke="#9a32cd" stroke-dasharray="5,2" d="M34.03,-241.09C43.39,-230.17 56.97,-216.64 72,-209 112.28,-188.54 165.35,-183.29 197.23,-182.11"/>
<polygon fill="#9a32cd" stroke="#9a32cd" points="31.09,-239.16 27.48,-249.12 36.52,-243.58 31.09,-239.16"/>
<text text-anchor="middle" x="98" y="-223" font-family="Helvetica,sans-Serif" font-size="10.00"> MOD_AST</text>
<text text-anchor="middle" x="98" y="-212" font-family="Helvetica,sans-Serif" font-size="10.00">mod_</text>
</g>
<!-- Node7 -->
<g id="node7" class="node">
<title>Node7</title>
<g id="a_node7"><a xlink:title=" ">
<polygon fill="white" stroke="#bfbfbf" points="60.5,-249.5 60.5,-268.5 125.5,-268.5 125.5,-249.5 60.5,-249.5"/>
<text text-anchor="middle" x="93" y="-256.5" font-family="Helvetica,sans-Serif" font-size="10.00">TraceLevel</text>
</a>
</g>
</g>
<!-- Node7&#45;&gt;Node4 -->
<g id="edge6" class="edge">
<title>Node7&#45;&gt;Node4</title>
<path fill="none" stroke="#9a32cd" stroke-dasharray="5,2" d="M111.17,-242.56C123.97,-232.18 141.83,-218.68 159,-209 171.94,-201.7 187.25,-195.31 199.87,-190.59"/>
<polygon fill="#9a32cd" stroke="#9a32cd" points="108.66,-240.09 103.19,-249.16 113.12,-245.49 108.66,-240.09"/>
<text text-anchor="middle" x="171" y="-217.5" font-family="Helvetica,sans-Serif" font-size="10.00"> LOG</text>
</g>
<!-- Node8 -->
<g id="node8" class="node">
<title>Node8</title>
<g id="a_node8"><a xlink:title=" ">
<polygon fill="white" stroke="#bfbfbf" points="143.5,-249.5 143.5,-268.5 216.5,-268.5 216.5,-249.5 143.5,-249.5"/>
<text text-anchor="middle" x="180" y="-256.5" font-family="Helvetica,sans-Serif" font-size="10.00">static Report</text>
</a>
</g>
</g>
<!-- Node8&#45;&gt;Node4 -->
<g id="edge7" class="edge">
<title>Node8&#45;&gt;Node4</title>
<path fill="none" stroke="#9a32cd" stroke-dasharray="5,2" d="M184.13,-239.74C186.84,-230.11 191.01,-218.37 197,-209 201.51,-201.94 208.22,-195.39 213.94,-190.51"/>
<polygon fill="#9a32cd" stroke="#9a32cd" points="180.73,-238.94 181.68,-249.49 187.51,-240.65 180.73,-238.94"/>
<text text-anchor="middle" x="208" y="-217.5" font-family="Helvetica,sans-Serif" font-size="10.00"> repo</text>
</g>
<!-- Node9 -->
<g id="node9" class="node">
<title>Node9</title>
<g id="a_node9"><a xlink:title=" ">
<polygon fill="white" stroke="#bfbfbf" points="234.5,-249.5 234.5,-268.5 263.5,-268.5 263.5,-249.5 234.5,-249.5"/>
<text text-anchor="middle" x="249" y="-256.5" font-family="Helvetica,sans-Serif" font-size="10.00">int</text>
</a>
</g>
</g>
<!-- Node9&#45;&gt;Node4 -->
<g id="edge8" class="edge">
<title>Node9&#45;&gt;Node4</title>
<path fill="none" stroke="#9a32cd" stroke-dasharray="5,2" d="M231.93,-241.4C229.52,-238.19 227.39,-234.67 226,-231 220.92,-217.64 222.08,-200.71 223.47,-190.65"/>
<polygon fill="#9a32cd" stroke="#9a32cd" points="229.43,-243.86 238.64,-249.08 234.7,-239.25 229.43,-243.86"/>
<text text-anchor="middle" x="287.5" y="-223" font-family="Helvetica,sans-Serif" font-size="10.00"> BITMASK_PRINT_WIDTH</text>
<text text-anchor="middle" x="287.5" y="-212" font-family="Helvetica,sans-Serif" font-size="10.00">UNDEF</text>
</g>
<!-- Node10 -->
<g id="node10" class="node">
<title>Node10</title>
<g id="a_node10"><a xlink:href="$interfacetype_1_1_typable.html" xlink:title="抽象ノードがもつ関数型のインタフェース">
<polygon fill="white" stroke="black" points="338,-249.5 338,-268.5 388,-268.5 388,-249.5 338,-249.5"/>
<text text-anchor="middle" x="363" y="-256.5" font-family="Helvetica,sans-Serif" font-size="10.00">Typable</text>
</a>
</g>
</g>
<!-- Node10&#45;&gt;Node4 -->
<g id="edge9" class="edge">
<title>Node10&#45;&gt;Node4</title>
<path fill="none" stroke="#9a32cd" stroke-dasharray="5,2" d="M362.22,-239.23C360.79,-228.91 357.29,-216.69 349,-209 320.06,-182.14 300.52,-199.67 262,-191 259.03,-190.33 255.94,-189.61 252.86,-188.89"/>
<polygon fill="#9a32cd" stroke="#9a32cd" points="358.74,-239.7 363.08,-249.36 365.72,-239.1 358.74,-239.7"/>
<text text-anchor="middle" x="376" y="-217.5" font-family="Helvetica,sans-Serif" font-size="10.00"> typing</text>
</g>
<!-- Node11 -->
<g id="node11" class="node">
<title>Node11</title>
<g id="a_node11"><a xlink:title=" ">
<polygon fill="white" stroke="#bfbfbf" points="406,-249.5 406,-268.5 456,-268.5 456,-249.5 406,-249.5"/>
<text text-anchor="middle" x="431" y="-256.5" font-family="Helvetica,sans-Serif" font-size="10.00">boolean</text>
</a>
</g>
</g>
<!-- Node11&#45;&gt;Node4 -->
<g id="edge10" class="edge">
<title>Node11&#45;&gt;Node4</title>
<path fill="none" stroke="#9a32cd" stroke-dasharray="5,2" d="M422.65,-240.32C416.56,-229.46 407.23,-216.26 395,-209 343.71,-178.54 320.61,-202.06 262,-191 259.01,-190.44 255.9,-189.78 252.81,-189.09"/>
<polygon fill="#9a32cd" stroke="#9a32cd" points="419.64,-242.12 427.33,-249.41 425.87,-238.92 419.64,-242.12"/>
<text text-anchor="middle" x="453.5" y="-217.5" font-family="Helvetica,sans-Serif" font-size="10.00"> DEBUG_REPO</text>
</g>
<!-- Node12&#45;&gt;Node3 -->
<g id="edge11" class="edge">
<title>Node12&#45;&gt;Node3</title>
<path fill="none" stroke="midnightblue" d="M316.35,-165.82C300.74,-155.61 280.19,-142.15 267.03,-133.53"/>
<polygon fill="midnightblue" stroke="midnightblue" points="314.59,-168.86 324.88,-171.41 318.43,-163 314.59,-168.86"/>
</g>
<!-- Node13 -->
<g id="node13" class="node">
<title>Node13</title>
<g id="a_node13"><a xlink:href="$interfacecmd_1_1_generatable_1_1_evaluatable.html" xlink:title="評価して値を返すノードのインタフェース．必ずしもコードを生成しなくても良い．">
<polygon fill="white" stroke="black" points="306.5,-114.5 306.5,-133.5 429.5,-133.5 429.5,-114.5 306.5,-114.5"/>
<text text-anchor="middle" x="368" y="-121.5" font-family="Helvetica,sans-Serif" font-size="10.00">Generatable.Evaluatable</text>
</a>
</g>
</g>
<!-- Node13&#45;&gt;Node2 -->
<g id="edge13" class="edge">
<title>Node13&#45;&gt;Node2</title>
<path fill="none" stroke="midnightblue" d="M368,-104.12C368,-94.82 368,-84.06 368,-76.71"/>
<polygon fill="midnightblue" stroke="midnightblue" points="364.5,-104.41 368,-114.41 371.5,-104.41 364.5,-104.41"/>
</g>
<!-- Node14 -->
<g id="node14" class="node">
<title>Node14</title>
<g id="a_node14"><a xlink:href="$interfacecmd_1_1_generatable.html" xlink:title="変換してコードを生成できるノードのインタフェース.">
<polygon fill="white" stroke="black" points="423.5,-171.5 423.5,-190.5 492.5,-190.5 492.5,-171.5 423.5,-171.5"/>
<text text-anchor="middle" x="458" y="-178.5" font-family="Helvetica,sans-Serif" font-size="10.00">Generatable</text>
</a>
</g>
</g>
<!-- Node14&#45;&gt;Node1 -->
<g id="edge16" class="edge">
<title>Node14&#45;&gt;Node1</title>
<path fill="none" stroke="midnightblue" d="M455.44,-161.19C450.49,-124.82 439.78,-46.14 436.2,-19.8"/>
<polygon fill="midnightblue" stroke="midnightblue" points="452.01,-161.95 456.83,-171.39 458.95,-161.01 452.01,-161.95"/>
</g>
<!-- Node14&#45;&gt;Node13 -->
<g id="edge14" class="edge">
<title>Node14&#45;&gt;Node13</title>
<path fill="none" stroke="midnightblue" d="M435.27,-166.11C418.49,-155.86 396.19,-142.23 381.96,-133.53"/>
<polygon fill="midnightblue" stroke="midnightblue" points="433.58,-169.18 443.94,-171.41 437.23,-163.21 433.58,-169.18"/>
</g>
<!-- Node15 -->
<g id="node15" class="node">
<title>Node15</title>
<g id="a_node15"><a xlink:href="$class_typed_formattable.html" xlink:title=" ">
<polygon fill="white" stroke="black" points="486.5,-57.5 486.5,-76.5 581.5,-76.5 581.5,-57.5 486.5,-57.5"/>
<text text-anchor="middle" x="534" y="-64.5" font-family="Helvetica,sans-Serif" font-size="10.00">TypedFormattable</text>
</a>
</g>
</g>
<!-- Node15&#45;&gt;Node1 -->
<g id="edge15" class="edge">
<title>Node15&#45;&gt;Node1</title>
<path fill="none" stroke="midnightblue" d="M509.76,-52.54C491.23,-42.24 466.23,-28.35 450.36,-19.53"/>
<polygon fill="midnightblue" stroke="midnightblue" points="508.09,-55.61 518.53,-57.41 511.49,-49.49 508.09,-55.61"/>
</g>
</g>
</svg>
