<?xml version="1.0" encoding="UTF-8" standalone="no"?>
<!DOCTYPE svg PUBLIC "-//W3C//DTD SVG 1.1//EN"
 "http://www.w3.org/Graphics/SVG/1.1/DTD/svg11.dtd">
<!-- Generated by graphviz version 2.47.0 (20210316.0004)
 -->
<!-- Title: AstConverter Pages: 1 -->
<svg width="466pt" height="263pt"
 viewBox="0.00 0.00 465.50 263.00" xmlns="http://www.w3.org/2000/svg" xmlns:xlink="http://www.w3.org/1999/xlink">
<g id="graph0" class="graph" transform="scale(1 1) rotate(0) translate(4 259)">
<title>AstConverter</title>
<polygon fill="white" stroke="transparent" points="-4,4 -4,-259 461.5,-259 461.5,4 -4,4"/>
<!-- Node1 -->
<g id="node1" class="node">
<title>Node1</title>
<g id="a_node1"><a xlink:title="値の変換のクラス。AstConv&lt;S,T&gt;の単なるラッパー">
<polygon fill="#bfbfbf" stroke="black" points="129.5,-67.5 129.5,-86.5 203.5,-86.5 203.5,-67.5 129.5,-67.5"/>
<text text-anchor="middle" x="166.5" y="-74.5" font-family="Helvetica,sans-Serif" font-size="10.00">AstConverter</text>
</a>
</g>
</g>
<!-- Node8 -->
<g id="node8" class="node">
<title>Node8</title>
<g id="a_node8"><a xlink:href="classast_1_1_ast_converter_1_1_ast_conv.html" target="_top" xlink:title="S型の値をT型の値に変換するアダプタ">
<polygon fill="white" stroke="black" points="109,-0.5 109,-30.5 224,-30.5 224,-0.5 109,-0.5"/>
<text text-anchor="start" x="117" y="-18.5" font-family="Helvetica,sans-Serif" font-size="10.00">AstConverter.AstConv</text>
<text text-anchor="middle" x="166.5" y="-7.5" font-family="Helvetica,sans-Serif" font-size="10.00">&lt; S, T &gt;</text>
</a>
</g>
</g>
<!-- Node1&#45;&gt;Node8 -->
<g id="edge9" class="edge">
<title>Node1&#45;&gt;Node8</title>
<path fill="none" stroke="midnightblue" d="M166.5,-57.23C166.5,-48.59 166.5,-38.5 166.5,-30.52"/>
<polygon fill="midnightblue" stroke="midnightblue" points="163,-57.48 166.5,-67.48 170,-57.48 163,-57.48"/>
</g>
<!-- Node2 -->
<g id="node2" class="node">
<title>Node2</title>
<g id="a_node2"><a xlink:href="classast_1_1_ast_node.html" target="_top" xlink:title="タグなしの順アクセスの子供をもてる抽象構文木のノードのクラス。">
<polygon fill="white" stroke="black" points="139,-123.5 139,-142.5 194,-142.5 194,-123.5 139,-123.5"/>
<text text-anchor="middle" x="166.5" y="-130.5" font-family="Helvetica,sans-Serif" font-size="10.00">AstNode</text>
</a>
</g>
</g>
<!-- Node2&#45;&gt;Node1 -->
<g id="edge1" class="edge">
<title>Node2&#45;&gt;Node1</title>
<path fill="none" stroke="midnightblue" d="M166.5,-112.8C166.5,-103.91 166.5,-93.78 166.5,-86.75"/>
<polygon fill="midnightblue" stroke="midnightblue" points="163,-113.08 166.5,-123.08 170,-113.08 163,-113.08"/>
</g>
<!-- Node3 -->
<g id="node3" class="node">
<title>Node3</title>
<g id="a_node3"><a xlink:href="classast_1_1_ast_node_base.html" target="_top" xlink:title=" ">
<polygon fill="white" stroke="black" points="0,-179.5 0,-198.5 77,-198.5 77,-179.5 0,-179.5"/>
<text text-anchor="middle" x="38.5" y="-186.5" font-family="Helvetica,sans-Serif" font-size="10.00">AstNodeBase</text>
</a>
</g>
</g>
<!-- Node3&#45;&gt;Node2 -->
<g id="edge2" class="edge">
<title>Node3&#45;&gt;Node2</title>
<path fill="none" stroke="midnightblue" d="M68.12,-175.5C92.12,-165.38 125.28,-151.39 146.31,-142.52"/>
<polygon fill="midnightblue" stroke="midnightblue" points="66.64,-172.33 58.78,-179.44 69.36,-178.78 66.64,-172.33"/>
</g>
<!-- Node4 -->
<g id="node4" class="node">
<title>Node4</title>
<g id="a_node4"><a xlink:href="interfaceast_1_1_node.html" target="_top" xlink:title=" ">
<polygon fill="white" stroke="black" points="95.5,-179.5 95.5,-198.5 135.5,-198.5 135.5,-179.5 95.5,-179.5"/>
<text text-anchor="middle" x="115.5" y="-186.5" font-family="Helvetica,sans-Serif" font-size="10.00">Node</text>
</a>
</g>
</g>
<!-- Node4&#45;&gt;Node2 -->
<g id="edge3" class="edge">
<title>Node4&#45;&gt;Node2</title>
<path fill="none" stroke="midnightblue" d="M130.88,-171.72C139.87,-162.2 150.86,-150.56 158.24,-142.75"/>
<polygon fill="midnightblue" stroke="midnightblue" points="128.24,-169.41 123.92,-179.08 133.33,-174.22 128.24,-169.41"/>
</g>
<!-- Node5 -->
<g id="node5" class="node">
<title>Node5</title>
<g id="a_node5"><a xlink:href="interfaceformat_1_1_x_formattable.html" target="_top" xlink:title="入れ子フォーマット出力可能なオブジェクトのインタフェース。">
<polygon fill="white" stroke="black" points="181,-235.5 181,-254.5 256,-254.5 256,-235.5 181,-235.5"/>
<text text-anchor="middle" x="218.5" y="-242.5" font-family="Helvetica,sans-Serif" font-size="10.00">XFormattable</text>
</a>
</g>
</g>
<!-- Node5&#45;&gt;Node4 -->
<g id="edge4" class="edge">
<title>Node5&#45;&gt;Node4</title>
<path fill="none" stroke="midnightblue" d="M192.92,-230.59C173.88,-220.61 148.44,-207.27 132.01,-198.65"/>
<polygon fill="midnightblue" stroke="midnightblue" points="191.47,-233.78 201.95,-235.32 194.72,-227.58 191.47,-233.78"/>
</g>
<!-- Node6 -->
<g id="node6" class="node">
<title>Node6</title>
<g id="a_node6"><a xlink:href="interfaceformat_1_1_x_formattable_1_1_navigatable.html" target="_top" xlink:title="木構造の分岐ノードとして清書可能なオブジェクトのクラス">
<polygon fill="white" stroke="black" points="153.5,-179.5 153.5,-198.5 283.5,-198.5 283.5,-179.5 153.5,-179.5"/>
<text text-anchor="middle" x="218.5" y="-186.5" font-family="Helvetica,sans-Serif" font-size="10.00">XFormattable.Navigatable</text>
</a>
</g>
</g>
<!-- Node5&#45;&gt;Node6 -->
<g id="edge6" class="edge">
<title>Node5&#45;&gt;Node6</title>
<path fill="none" stroke="midnightblue" d="M218.5,-224.8C218.5,-215.91 218.5,-205.78 218.5,-198.75"/>
<polygon fill="midnightblue" stroke="midnightblue" points="215,-225.08 218.5,-235.08 222,-225.08 215,-225.08"/>
</g>
<!-- Node7 -->
<g id="node7" class="node">
<title>Node7</title>
<g id="a_node7"><a xlink:href="interfaceformat_1_1_x_formattable_1_1_typed_formattable.html" target="_top" xlink:title="ノードの型情報をもつ書式出力可能なオブジェクトのインタフェース．">
<polygon fill="white" stroke="black" points="301.5,-179.5 301.5,-198.5 457.5,-198.5 457.5,-179.5 301.5,-179.5"/>
<text text-anchor="middle" x="379.5" y="-186.5" font-family="Helvetica,sans-Serif" font-size="10.00">XFormattable.TypedFormattable</text>
</a>
</g>
</g>
<!-- Node5&#45;&gt;Node7 -->
<g id="edge8" class="edge">
<title>Node5&#45;&gt;Node7</title>
<path fill="none" stroke="midnightblue" d="M253.76,-232.17C284.08,-222 327.07,-207.59 354.11,-198.52"/>
<polygon fill="midnightblue" stroke="midnightblue" points="252.38,-228.95 244.01,-235.44 254.6,-235.58 252.38,-228.95"/>
</g>
<!-- Node6&#45;&gt;Node2 -->
<g id="edge5" class="edge">
<title>Node6&#45;&gt;Node2</title>
<path fill="none" stroke="midnightblue" d="M202.82,-171.72C193.66,-162.2 182.45,-150.56 174.93,-142.75"/>
<polygon fill="midnightblue" stroke="midnightblue" points="200.46,-174.31 209.91,-179.08 205.5,-169.45 200.46,-174.31"/>
</g>
<!-- Node7&#45;&gt;Node2 -->
<g id="edge7" class="edge">
<title>Node7&#45;&gt;Node2</title>
<path fill="none" stroke="midnightblue" d="M335.97,-176.97C293.56,-166.21 230.36,-150.19 194.32,-141.05"/>
<polygon fill="midnightblue" stroke="midnightblue" points="335.2,-180.38 345.75,-179.44 336.92,-173.59 335.2,-180.38"/>
</g>
</g>
</svg>
