<?xml version="1.0" encoding="UTF-8" standalone="no"?>
<!DOCTYPE svg PUBLIC "-//W3C//DTD SVG 1.1//EN"
 "http://www.w3.org/Graphics/SVG/1.1/DTD/svg11.dtd">
<!-- Generated by graphviz version 2.47.0 (20210316.0004)
 -->
<!-- Title: BlockBase Pages: 1 -->
<svg width="1002pt" height="815pt"
 viewBox="0.00 0.00 1002.00 815.02" xmlns="http://www.w3.org/2000/svg" xmlns:xlink="http://www.w3.org/1999/xlink">
<g id="graph0" class="graph" transform="scale(1 1) rotate(0) translate(4 811.02)">
<title>BlockBase</title>
<polygon fill="white" stroke="transparent" points="-4,4 -4,-811.02 998,-811.02 998,4 -4,4"/>
<!-- Node1 -->
<g id="node1" class="node">
<title>Node1</title>
<g id="a_node1"><a xlink:title="抽象構文木のステップ式のクラス.">
<polygon fill="#bfbfbf" stroke="black" points="930,-349.52 930,-368.52 994,-368.52 994,-349.52 930,-349.52"/>
<text text-anchor="middle" x="962" y="-356.52" font-family="Helvetica,sans-Serif" font-size="10.00">BlockBase</text>
</a>
</g>
</g>
<!-- Node2 -->
<g id="node2" class="node">
<title>Node2</title>
<g id="a_node2"><a xlink:href="classast_1_1_ast_node_tagged.html" target="_top" xlink:title="子それぞれにタグと型アイテムをもつ順序ノードAstNodeのサブクラス．利用者は自前で，追加する子のField名と型を設定する．読み出しは子の添字のみで行う．">
<polygon fill="white" stroke="black" points="762,-505.52 762,-524.52 848,-524.52 848,-505.52 762,-505.52"/>
<text text-anchor="middle" x="805" y="-512.52" font-family="Helvetica,sans-Serif" font-size="10.00">AstNodeTagged</text>
</a>
</g>
</g>
<!-- Node2&#45;&gt;Node1 -->
<g id="edge1" class="edge">
<title>Node2&#45;&gt;Node1</title>
<path fill="none" stroke="midnightblue" d="M827.87,-499.46C850.33,-482.91 885.63,-455.27 912,-427.02 929.68,-408.09 946.46,-382.61 955.05,-368.84"/>
<polygon fill="midnightblue" stroke="midnightblue" points="825.68,-496.73 819.66,-505.44 829.8,-502.39 825.68,-496.73"/>
</g>
<!-- Node3 -->
<g id="node3" class="node">
<title>Node3</title>
<g id="a_node3"><a xlink:href="classast_1_1_ast_node.html" target="_top" xlink:title="タグなしの順アクセスの子供をもてる抽象構文木のノードのクラス。">
<polygon fill="white" stroke="black" points="583.5,-628.52 583.5,-647.52 638.5,-647.52 638.5,-628.52 583.5,-628.52"/>
<text text-anchor="middle" x="611" y="-635.52" font-family="Helvetica,sans-Serif" font-size="10.00">AstNode</text>
</a>
</g>
</g>
<!-- Node3&#45;&gt;Node2 -->
<g id="edge2" class="edge">
<title>Node3&#45;&gt;Node2</title>
<path fill="none" stroke="midnightblue" d="M635.1,-624.86C651.62,-618.75 674.02,-611.31 692,-601.02 730.73,-578.87 768.85,-542.61 789.09,-524.76"/>
<polygon fill="midnightblue" stroke="midnightblue" points="633.73,-621.64 625.67,-628.51 636.26,-628.17 633.73,-621.64"/>
</g>
<!-- Node3&#45;&gt;Node2 -->
<g id="edge23" class="edge">
<title>Node3&#45;&gt;Node2</title>
<path fill="none" stroke="midnightblue" d="M648.5,-636.72C662.59,-632.83 678.53,-626.72 692,-619.02 738.48,-592.44 784.07,-545.55 798.95,-524.58"/>
<polygon fill="midnightblue" stroke="midnightblue" points="647.5,-633.36 638.63,-639.16 649.17,-640.16 647.5,-633.36"/>
</g>
<!-- Node24 -->
<g id="node24" class="node">
<title>Node24</title>
<g id="a_node24"><a xlink:href="classast_1_1_sent_list.html" target="_top" xlink:title="文Sentenceのリスト.">
<polygon fill="white" stroke="black" points="778.5,-425.52 778.5,-444.52 831.5,-444.52 831.5,-425.52 778.5,-425.52"/>
<text text-anchor="middle" x="805" y="-432.52" font-family="Helvetica,sans-Serif" font-size="10.00">SentList</text>
</a>
</g>
</g>
<!-- Node3&#45;&gt;Node24 -->
<g id="edge31" class="edge">
<title>Node3&#45;&gt;Node24</title>
<path fill="none" stroke="midnightblue" d="M648.77,-631.62C663.6,-627.5 680,-620.82 692,-610.02 705.89,-597.53 699.12,-587.22 710,-572.02 722.26,-554.9 732.14,-556.42 744,-539.02 755.67,-521.91 752.07,-514.21 762,-496.02 772.47,-476.84 787.56,-456.23 796.51,-444.56"/>
<polygon fill="midnightblue" stroke="midnightblue" points="647.69,-628.28 638.82,-634.08 649.37,-635.07 647.69,-628.28"/>
</g>
<!-- Node28 -->
<g id="node28" class="node">
<title>Node28</title>
<g id="a_node28"><a xlink:href="classmachine_1_1_var.html" target="_top" xlink:title="フレーム中の変数参照オブジェクトref = (XType type, int vid)">
<polygon fill="white" stroke="black" points="789.5,-691.52 789.5,-710.52 820.5,-710.52 820.5,-691.52 789.5,-691.52"/>
<text text-anchor="middle" x="805" y="-698.52" font-family="Helvetica,sans-Serif" font-size="10.00">Var</text>
</a>
</g>
</g>
<!-- Node3&#45;&gt;Node28 -->
<g id="edge38" class="edge">
<title>Node3&#45;&gt;Node28</title>
<path fill="none" stroke="midnightblue" d="M648.39,-644.54C690.91,-656.29 759.24,-679.25 789.16,-692.34"/>
<polygon fill="midnightblue" stroke="midnightblue" points="649.26,-641.15 638.7,-641.94 647.45,-647.91 649.26,-641.15"/>
</g>
<!-- Node3&#45;&gt;Node28 -->
<g id="edge40" class="edge">
<title>Node3&#45;&gt;Node28</title>
<path fill="none" stroke="midnightblue" d="M638.39,-651.51C679.43,-667.85 757.14,-693 789.4,-700.03"/>
<polygon fill="midnightblue" stroke="midnightblue" points="639.62,-648.23 629.04,-647.66 636.96,-654.7 639.62,-648.23"/>
</g>
<!-- Node4 -->
<g id="node4" class="node">
<title>Node4</title>
<g id="a_node4"><a xlink:href="classast_1_1_ast_node_base.html" target="_top" xlink:title=" ">
<polygon fill="white" stroke="black" points="301.5,-559.52 301.5,-578.52 378.5,-578.52 378.5,-559.52 301.5,-559.52"/>
<text text-anchor="middle" x="340" y="-566.52" font-family="Helvetica,sans-Serif" font-size="10.00">AstNodeBase</text>
</a>
</g>
</g>
<!-- Node4&#45;&gt;Node3 -->
<g id="edge3" class="edge">
<title>Node4&#45;&gt;Node3</title>
<path fill="none" stroke="midnightblue" d="M388.56,-580.7C398.3,-583.11 408.48,-585.64 418,-588.02 459.82,-598.52 470.27,-601.16 512,-612.02 536.19,-618.32 563.7,-625.63 583.4,-630.89"/>
<polygon fill="midnightblue" stroke="midnightblue" points="389.16,-577.24 378.61,-578.24 387.48,-584.04 389.16,-577.24"/>
</g>
<!-- Node5 -->
<g id="node5" class="node">
<title>Node5</title>
<g id="a_node5"><a xlink:title=" ">
<polygon fill="white" stroke="#bfbfbf" points="30.5,-526.52 30.5,-545.52 72.5,-545.52 72.5,-526.52 30.5,-526.52"/>
<text text-anchor="middle" x="51.5" y="-533.52" font-family="Helvetica,sans-Serif" font-size="10.00">String</text>
</a>
</g>
</g>
<!-- Node5&#45;&gt;Node4 -->
<g id="edge4" class="edge">
<title>Node5&#45;&gt;Node4</title>
<path fill="none" stroke="#9a32cd" stroke-dasharray="5,2" d="M67.64,-552.98C80.4,-565.92 99.91,-582.71 121,-590.02 172.65,-607.93 189.66,-595.96 244,-590.02 264.32,-587.81 286.65,-582.99 304.56,-578.53"/>
<polygon fill="#9a32cd" stroke="#9a32cd" points="70.02,-550.41 60.61,-545.55 64.93,-555.22 70.02,-550.41"/>
<text text-anchor="middle" x="182.5" y="-613.02" font-family="Helvetica,sans-Serif" font-size="10.00"> MOD_AST</text>
<text text-anchor="middle" x="182.5" y="-602.02" font-family="Helvetica,sans-Serif" font-size="10.00">mod_</text>
</g>
<!-- Node17 -->
<g id="node17" class="node">
<title>Node17</title>
<g id="a_node17"><a xlink:href="classformat_1_1_style.html" target="_top" xlink:title="ノードの表示スタイルに関するプロパティのクラス.">
<polygon fill="white" stroke="black" points="320.5,-429.52 320.5,-448.52 359.5,-448.52 359.5,-429.52 320.5,-429.52"/>
<text text-anchor="middle" x="340" y="-436.52" font-family="Helvetica,sans-Serif" font-size="10.00">Style</text>
</a>
</g>
</g>
<!-- Node5&#45;&gt;Node17 -->
<g id="edge19" class="edge">
<title>Node5&#45;&gt;Node17</title>
<path fill="none" stroke="#9a32cd" stroke-dasharray="5,2" d="M62.68,-517.5C74.14,-498.66 94.67,-470.38 121,-457.02 155.63,-439.46 274.04,-438.47 320.29,-438.78"/>
<polygon fill="#9a32cd" stroke="#9a32cd" points="59.52,-515.96 57.53,-526.37 65.58,-519.48 59.52,-515.96"/>
<text text-anchor="middle" x="182.5" y="-537.02" font-family="Helvetica,sans-Serif" font-size="10.00"> childLPAD</text>
<text text-anchor="middle" x="182.5" y="-526.02" font-family="Helvetica,sans-Serif" font-size="10.00">childRPAD</text>
<text text-anchor="middle" x="182.5" y="-515.02" font-family="Helvetica,sans-Serif" font-size="10.00">name</text>
<text text-anchor="middle" x="182.5" y="-504.02" font-family="Helvetica,sans-Serif" font-size="10.00">operSTR</text>
<text text-anchor="middle" x="182.5" y="-493.02" font-family="Helvetica,sans-Serif" font-size="10.00">parenLPAD</text>
<text text-anchor="middle" x="182.5" y="-482.02" font-family="Helvetica,sans-Serif" font-size="10.00">parenLPAR</text>
<text text-anchor="middle" x="182.5" y="-471.02" font-family="Helvetica,sans-Serif" font-size="10.00">parenRPAD</text>
<text text-anchor="middle" x="182.5" y="-460.02" font-family="Helvetica,sans-Serif" font-size="10.00">parenRPAR</text>
</g>
<!-- Node6 -->
<g id="node6" class="node">
<title>Node6</title>
<g id="a_node6"><a xlink:title=" ">
<polygon fill="white" stroke="#bfbfbf" points="19,-683.52 19,-702.52 84,-702.52 84,-683.52 19,-683.52"/>
<text text-anchor="middle" x="51.5" y="-690.52" font-family="Helvetica,sans-Serif" font-size="10.00">TraceLevel</text>
</a>
</g>
</g>
<!-- Node6&#45;&gt;Node4 -->
<g id="edge5" class="edge">
<title>Node6&#45;&gt;Node4</title>
<path fill="none" stroke="#9a32cd" stroke-dasharray="5,2" d="M94.14,-692.27C143.79,-690.48 222.75,-684.55 244,-665.02 269.88,-641.24 237.3,-613.03 262,-588.02 272.26,-577.64 287.22,-572.6 301.24,-570.25"/>
<polygon fill="#9a32cd" stroke="#9a32cd" points="93.91,-688.77 84.02,-692.59 94.13,-695.77 93.91,-688.77"/>
<text text-anchor="middle" x="182.5" y="-693.02" font-family="Helvetica,sans-Serif" font-size="10.00"> LOG</text>
</g>
<!-- Node7 -->
<g id="node7" class="node">
<title>Node7</title>
<g id="a_node7"><a xlink:title=" ">
<polygon fill="white" stroke="#bfbfbf" points="15,-309.52 15,-328.52 88,-328.52 88,-309.52 15,-309.52"/>
<text text-anchor="middle" x="51.5" y="-316.52" font-family="Helvetica,sans-Serif" font-size="10.00">static Report</text>
</a>
</g>
</g>
<!-- Node7&#45;&gt;Node4 -->
<g id="edge6" class="edge">
<title>Node7&#45;&gt;Node4</title>
<path fill="none" stroke="#9a32cd" stroke-dasharray="5,2" d="M72.33,-335.02C85.51,-345.03 103.53,-357.58 121,-366.02 172.51,-390.94 203.1,-364.02 244,-404.02 262.09,-421.71 250.68,-435.4 262,-458.02 282.26,-498.5 315.74,-541.04 330.99,-559.52"/>
<polygon fill="#9a32cd" stroke="#9a32cd" points="74.48,-332.25 64.43,-328.88 70.18,-337.78 74.48,-332.25"/>
<text text-anchor="middle" x="182.5" y="-407.02" font-family="Helvetica,sans-Serif" font-size="10.00"> repo</text>
</g>
<!-- Node30 -->
<g id="node30" class="node">
<title>Node30</title>
<g id="a_node30"><a xlink:href="classmachine_1_1_var_table.html" target="_top" xlink:title="@整数の表">
<polygon fill="white" stroke="black" points="313,-181.52 313,-200.52 367,-200.52 367,-181.52 313,-181.52"/>
<text text-anchor="middle" x="340" y="-188.52" font-family="Helvetica,sans-Serif" font-size="10.00">VarTable</text>
</a>
</g>
</g>
<!-- Node7&#45;&gt;Node30 -->
<g id="edge45" class="edge">
<title>Node7&#45;&gt;Node30</title>
<path fill="none" stroke="#9a32cd" stroke-dasharray="5,2" d="M63.9,-300.29C81.12,-272.26 112.66,-222.13 121,-217.02 181.64,-179.93 269.62,-183.08 312.93,-187.53"/>
<polygon fill="#9a32cd" stroke="#9a32cd" points="60.69,-298.82 58.46,-309.17 66.67,-302.47 60.69,-298.82"/>
<text text-anchor="middle" x="182.5" y="-220.02" font-family="Helvetica,sans-Serif" font-size="10.00"> repo</text>
</g>
<!-- Node8 -->
<g id="node8" class="node">
<title>Node8</title>
<g id="a_node8"><a xlink:title=" ">
<polygon fill="white" stroke="#bfbfbf" points="37,-412.52 37,-431.52 66,-431.52 66,-412.52 37,-412.52"/>
<text text-anchor="middle" x="51.5" y="-419.52" font-family="Helvetica,sans-Serif" font-size="10.00">int</text>
</a>
</g>
</g>
<!-- Node8&#45;&gt;Node1 -->
<g id="edge36" class="edge">
<title>Node8&#45;&gt;Node1</title>
<path fill="none" stroke="#9a32cd" stroke-dasharray="5,2" d="M61.33,-403.1C72.16,-382.32 92.63,-349.94 121,-335.02 206.94,-289.85 241.91,-321.02 339,-321.02 339,-321.02 339,-321.02 806,-321.02 853.66,-321.02 907.24,-338.18 937.28,-349.44"/>
<polygon fill="#9a32cd" stroke="#9a32cd" points="58.11,-401.73 56.8,-412.24 64.38,-404.84 58.11,-401.73"/>
<text text-anchor="middle" x="611" y="-324.02" font-family="Helvetica,sans-Serif" font-size="10.00"> funcid_</text>
</g>
<!-- Node8&#45;&gt;Node4 -->
<g id="edge7" class="edge">
<title>Node8&#45;&gt;Node4</title>
<path fill="none" stroke="#9a32cd" stroke-dasharray="5,2" d="M62.27,-440.61C80.01,-474.18 116.11,-541.78 121,-545.02 135.67,-554.77 242.98,-562.96 301.38,-566.76"/>
<polygon fill="#9a32cd" stroke="#9a32cd" points="65.37,-438.97 57.61,-431.76 59.18,-442.24 65.37,-438.97"/>
<text text-anchor="middle" x="182.5" y="-576.02" font-family="Helvetica,sans-Serif" font-size="10.00"> BITMASK_PRINT_WIDTH</text>
<text text-anchor="middle" x="182.5" y="-565.02" font-family="Helvetica,sans-Serif" font-size="10.00">UNDEF</text>
</g>
<!-- Node8&#45;&gt;Node17 -->
<g id="edge20" class="edge">
<title>Node8&#45;&gt;Node17</title>
<path fill="none" stroke="#9a32cd" stroke-dasharray="5,2" d="M76.05,-420.93C112.23,-419.52 183.66,-417.82 244,-423.02 270.66,-425.32 301.11,-431 320.19,-434.93"/>
<polygon fill="#9a32cd" stroke="#9a32cd" points="75.84,-417.43 66,-421.35 76.14,-424.43 75.84,-417.43"/>
<text text-anchor="middle" x="182.5" y="-426.02" font-family="Helvetica,sans-Serif" font-size="10.00"> pref</text>
</g>
<!-- Node8&#45;&gt;Node28 -->
<g id="edge42" class="edge">
<title>Node8&#45;&gt;Node28</title>
<path fill="none" stroke="#9a32cd" stroke-dasharray="5,2" d="M65.02,-440.27C76.99,-458.73 94.44,-488.54 103,-517.02 115.08,-557.22 89.94,-676.8 121,-705.02 172.06,-751.43 694.85,-710.15 789.39,-702.27"/>
<polygon fill="#9a32cd" stroke="#9a32cd" points="67.79,-438.11 59.34,-431.72 61.96,-441.98 67.79,-438.11"/>
<text text-anchor="middle" x="474" y="-727.02" font-family="Helvetica,sans-Serif" font-size="10.00"> UNDEF</text>
</g>
<!-- Node8&#45;&gt;Node30 -->
<g id="edge46" class="edge">
<title>Node8&#45;&gt;Node30</title>
<path fill="none" stroke="#9a32cd" stroke-dasharray="5,2" d="M64.52,-403.69C75.25,-386.95 91.07,-361.32 103,-338.02 112.25,-319.95 105.15,-308.72 121,-296.02 164.41,-261.25 193.89,-297.14 244,-273.02 281.5,-254.98 315.92,-218.22 330.99,-200.71"/>
<polygon fill="#9a32cd" stroke="#9a32cd" points="61.35,-402.15 58.85,-412.44 67.22,-405.95 61.35,-402.15"/>
<text text-anchor="middle" x="182.5" y="-299.02" font-family="Helvetica,sans-Serif" font-size="10.00"> UNDEF</text>
</g>
<!-- Node9 -->
<g id="node9" class="node">
<title>Node9</title>
<g id="a_node9"><a xlink:href="interfacetype_1_1_typable.html" target="_top" xlink:title="抽象ノードがもつ関数型のインタフェース">
<polygon fill="white" stroke="black" points="26.5,-645.52 26.5,-664.52 76.5,-664.52 76.5,-645.52 26.5,-645.52"/>
<text text-anchor="middle" x="51.5" y="-652.52" font-family="Helvetica,sans-Serif" font-size="10.00">Typable</text>
</a>
</g>
</g>
<!-- Node9&#45;&gt;Node4 -->
<g id="edge8" class="edge">
<title>Node9&#45;&gt;Node4</title>
<path fill="none" stroke="#9a32cd" stroke-dasharray="5,2" d="M86.83,-653.41C135.05,-650.53 219.67,-643.01 244,-625.02 258.7,-614.15 247.78,-599.52 262,-588.02 273.03,-579.11 287.65,-574.29 301.18,-571.72"/>
<polygon fill="#9a32cd" stroke="#9a32cd" points="86.63,-649.92 76.84,-653.98 87.02,-656.91 86.63,-649.92"/>
<text text-anchor="middle" x="182.5" y="-653.02" font-family="Helvetica,sans-Serif" font-size="10.00"> typing</text>
</g>
<!-- Node10 -->
<g id="node10" class="node">
<title>Node10</title>
<g id="a_node10"><a xlink:title=" ">
<polygon fill="white" stroke="#bfbfbf" points="26.5,-207.52 26.5,-226.52 76.5,-226.52 76.5,-207.52 26.5,-207.52"/>
<text text-anchor="middle" x="51.5" y="-214.52" font-family="Helvetica,sans-Serif" font-size="10.00">boolean</text>
</a>
</g>
</g>
<!-- Node10&#45;&gt;Node1 -->
<g id="edge49" class="edge">
<title>Node10&#45;&gt;Node1</title>
<path fill="none" stroke="#9a32cd" stroke-dasharray="5,2" d="M64.71,-198.95C76.96,-182.3 97.36,-158.22 121,-145.02 207.46,-96.76 239.98,-99.02 339,-99.02 339,-99.02 339,-99.02 806,-99.02 925.03,-99.02 954.77,-302.56 960.04,-349.46"/>
<polygon fill="#9a32cd" stroke="#9a32cd" points="61.7,-197.14 58.78,-207.33 67.42,-201.19 61.7,-197.14"/>
<text text-anchor="middle" x="611" y="-102.02" font-family="Helvetica,sans-Serif" font-size="10.00"> DEBUG_REPO</text>
</g>
<!-- Node10&#45;&gt;Node2 -->
<g id="edge27" class="edge">
<title>Node10&#45;&gt;Node2</title>
<path fill="none" stroke="#9a32cd" stroke-dasharray="5,2" d="M86.9,-215.29C125.83,-214.3 190.74,-215.59 244,-231.02 261.31,-236.04 513.49,-376.81 530,-384.02 599.81,-414.53 623.79,-406.11 692,-440.02 730.76,-459.3 771.99,-489.88 791.88,-505.37"/>
<polygon fill="#9a32cd" stroke="#9a32cd" points="86.53,-211.8 76.65,-215.62 86.75,-218.8 86.53,-211.8"/>
<text text-anchor="middle" x="474" y="-377.02" font-family="Helvetica,sans-Serif" font-size="10.00"> DEBUG_REPO</text>
</g>
<!-- Node10&#45;&gt;Node4 -->
<g id="edge9" class="edge">
<title>Node10&#45;&gt;Node4</title>
<path fill="none" stroke="#9a32cd" stroke-dasharray="5,2" d="M61.64,-235.77C72.85,-256.92 93.77,-290.96 121,-311.02 167.5,-345.29 206.53,-309.06 244,-353.02 274.71,-389.06 244.08,-414.2 262,-458.02 279.04,-499.71 313.83,-541.3 330.16,-559.5"/>
<polygon fill="#9a32cd" stroke="#9a32cd" points="64.73,-234.12 57.06,-226.81 58.49,-237.3 64.73,-234.12"/>
<text text-anchor="middle" x="182.5" y="-356.02" font-family="Helvetica,sans-Serif" font-size="10.00"> DEBUG_REPO</text>
</g>
<!-- Node10&#45;&gt;Node17 -->
<g id="edge21" class="edge">
<title>Node10&#45;&gt;Node17</title>
<path fill="none" stroke="#9a32cd" stroke-dasharray="5,2" d="M86.84,-222.72C141.09,-231.78 240.85,-248.68 244,-251.02 246.02,-252.53 315.04,-390.92 334.14,-429.27"/>
<polygon fill="#9a32cd" stroke="#9a32cd" points="87.07,-219.21 76.63,-221.02 85.92,-226.12 87.07,-219.21"/>
<text text-anchor="middle" x="182.5" y="-265.02" font-family="Helvetica,sans-Serif" font-size="10.00"> preoperSupress</text>
<text text-anchor="middle" x="182.5" y="-254.02" font-family="Helvetica,sans-Serif" font-size="10.00">toInline</text>
</g>
<!-- Node10&#45;&gt;Node30 -->
<g id="edge48" class="edge">
<title>Node10&#45;&gt;Node30</title>
<path fill="none" stroke="#9a32cd" stroke-dasharray="5,2" d="M66.54,-199.4C79.08,-185.18 98.86,-166.24 121,-158.02 190.44,-132.24 279.45,-164.29 318.78,-181.47"/>
<polygon fill="#9a32cd" stroke="#9a32cd" points="63.8,-197.21 60.02,-207.11 69.15,-201.73 63.8,-197.21"/>
<text text-anchor="middle" x="182.5" y="-161.02" font-family="Helvetica,sans-Serif" font-size="10.00"> DEBUG_REPO</text>
</g>
<!-- Node11 -->
<g id="node11" class="node">
<title>Node11</title>
<g id="a_node11"><a xlink:href="interfaceast_1_1_node.html" target="_top" xlink:title=" ">
<polygon fill="white" stroke="black" points="320,-749.52 320,-768.52 360,-768.52 360,-749.52 320,-749.52"/>
<text text-anchor="middle" x="340" y="-756.52" font-family="Helvetica,sans-Serif" font-size="10.00">Node</text>
</a>
</g>
</g>
<!-- Node11&#45;&gt;Node3 -->
<g id="edge10" class="edge">
<title>Node11&#45;&gt;Node3</title>
<path fill="none" stroke="midnightblue" d="M370.24,-760.62C405.66,-761.35 466.26,-758.66 512,-736.02 554.7,-714.89 589.97,-667.83 603.76,-647.58"/>
<polygon fill="midnightblue" stroke="midnightblue" points="370.21,-757.12 360.1,-760.31 369.99,-764.12 370.21,-757.12"/>
</g>
<!-- Node12 -->
<g id="node12" class="node">
<title>Node12</title>
<g id="a_node12"><a xlink:href="interfaceformat_1_1_x_formattable.html" target="_top" xlink:title="入れ子フォーマット出力可能なオブジェクトのインタフェース。">
<polygon fill="white" stroke="black" points="14,-757.52 14,-776.52 89,-776.52 89,-757.52 14,-757.52"/>
<text text-anchor="middle" x="51.5" y="-764.52" font-family="Helvetica,sans-Serif" font-size="10.00">XFormattable</text>
</a>
</g>
</g>
<!-- Node12&#45;&gt;Node11 -->
<g id="edge11" class="edge">
<title>Node12&#45;&gt;Node11</title>
<path fill="none" stroke="midnightblue" d="M99.3,-765.72C163.3,-763.93 275.27,-760.8 319.87,-759.56"/>
<polygon fill="midnightblue" stroke="midnightblue" points="98.97,-762.23 89.08,-766 99.17,-769.22 98.97,-762.23"/>
</g>
<!-- Node13 -->
<g id="node13" class="node">
<title>Node13</title>
<g id="a_node13"><a xlink:href="interfaceformat_1_1_x_formattable_1_1_navigatable.html" target="_top" xlink:title="木構造の分岐ノードとして清書可能なオブジェクトのクラス">
<polygon fill="white" stroke="black" points="275,-673.52 275,-692.52 405,-692.52 405,-673.52 275,-673.52"/>
<text text-anchor="middle" x="340" y="-680.52" font-family="Helvetica,sans-Serif" font-size="10.00">XFormattable.Navigatable</text>
</a>
</g>
</g>
<!-- Node12&#45;&gt;Node13 -->
<g id="edge13" class="edge">
<title>Node12&#45;&gt;Node13</title>
<path fill="none" stroke="midnightblue" d="M94.97,-754.57C152.64,-737.67 254.44,-707.82 306.44,-692.57"/>
<polygon fill="midnightblue" stroke="midnightblue" points="93.7,-751.3 85.09,-757.47 95.67,-758.02 93.7,-751.3"/>
</g>
<!-- Node14 -->
<g id="node14" class="node">
<title>Node14</title>
<g id="a_node14"><a xlink:href="interfaceformat_1_1_x_formattable_1_1_typed_formattable.html" target="_top" xlink:title="ノードの型情報をもつ書式出力可能なオブジェクトのインタフェース．">
<polygon fill="white" stroke="black" points="262,-787.52 262,-806.52 418,-806.52 418,-787.52 262,-787.52"/>
<text text-anchor="middle" x="340" y="-794.52" font-family="Helvetica,sans-Serif" font-size="10.00">XFormattable.TypedFormattable</text>
</a>
</g>
</g>
<!-- Node12&#45;&gt;Node14 -->
<g id="edge15" class="edge">
<title>Node12&#45;&gt;Node14</title>
<path fill="none" stroke="midnightblue" d="M99.2,-774.18C106.49,-775.2 113.94,-776.19 121,-777.02 167.7,-782.57 220.2,-787.43 261.97,-790.97"/>
<polygon fill="midnightblue" stroke="midnightblue" points="99.46,-770.68 89.07,-772.73 98.47,-777.61 99.46,-770.68"/>
</g>
<!-- Node13&#45;&gt;Node3 -->
<g id="edge12" class="edge">
<title>Node13&#45;&gt;Node3</title>
<path fill="none" stroke="midnightblue" d="M415.25,-672.41C445.33,-667.93 480.36,-662.49 512,-657.02 536.25,-652.83 563.75,-647.44 583.43,-643.48"/>
<polygon fill="midnightblue" stroke="midnightblue" points="414.63,-668.96 405.25,-673.89 415.65,-675.88 414.63,-668.96"/>
</g>
<!-- Node14&#45;&gt;Node3 -->
<g id="edge14" class="edge">
<title>Node14&#45;&gt;Node3</title>
<path fill="none" stroke="midnightblue" d="M428.29,-789.8C456.56,-784.5 487.04,-775.45 512,-760.02 518.1,-756.26 580.72,-675.82 602.55,-647.66"/>
<polygon fill="midnightblue" stroke="midnightblue" points="427.65,-786.36 418.4,-791.52 428.85,-793.25 427.65,-786.36"/>
</g>
<!-- Node15 -->
<g id="node15" class="node">
<title>Node15</title>
<g id="a_node15"><a xlink:title=" ">
<polygon fill="white" stroke="#bfbfbf" points="295,-635.52 295,-654.52 385,-654.52 385,-635.52 295,-635.52"/>
<text text-anchor="middle" x="340" y="-642.52" font-family="Helvetica,sans-Serif" font-size="10.00">List&lt; ast.Node &gt;</text>
</a>
</g>
</g>
<!-- Node15&#45;&gt;Node3 -->
<g id="edge16" class="edge">
<title>Node15&#45;&gt;Node3</title>
<path fill="none" stroke="#9a32cd" stroke-dasharray="5,2" d="M395.41,-643.61C452.51,-642.12 539.89,-639.85 583.43,-638.72"/>
<polygon fill="#9a32cd" stroke="#9a32cd" points="395.02,-640.12 385.12,-643.88 395.21,-647.11 395.02,-640.12"/>
<text text-anchor="middle" x="474" y="-645.02" font-family="Helvetica,sans-Serif" font-size="10.00"> children</text>
</g>
<!-- Node16 -->
<g id="node16" class="node">
<title>Node16</title>
<g id="a_node16"><a xlink:title=" ">
<polygon fill="white" stroke="#bfbfbf" points="314,-597.52 314,-616.52 366,-616.52 366,-597.52 314,-597.52"/>
<text text-anchor="middle" x="340" y="-604.52" font-family="Helvetica,sans-Serif" font-size="10.00">Boolean</text>
</a>
</g>
</g>
<!-- Node16&#45;&gt;Node3 -->
<g id="edge17" class="edge">
<title>Node16&#45;&gt;Node3</title>
<path fill="none" stroke="#9a32cd" stroke-dasharray="5,2" d="M376.31,-610.46C410.91,-613.89 465.12,-619.45 512,-625.02 536.2,-627.9 563.71,-631.59 583.4,-634.3"/>
<polygon fill="#9a32cd" stroke="#9a32cd" points="376.53,-606.96 366.23,-609.47 375.84,-613.93 376.53,-606.96"/>
<text text-anchor="middle" x="474" y="-628.02" font-family="Helvetica,sans-Serif" font-size="10.00"> DEBUG_CHILD</text>
</g>
<!-- Node17&#45;&gt;Node3 -->
<g id="edge18" class="edge">
<title>Node17&#45;&gt;Node3</title>
<path fill="none" stroke="#9a32cd" stroke-dasharray="5,2" d="M365.68,-454.38C401.39,-477.54 468.01,-524.33 512,-577.02 522.71,-589.85 517.27,-599.21 530,-610.02 545.14,-622.88 566.56,-629.97 583.43,-633.79"/>
<polygon fill="#9a32cd" stroke="#9a32cd" points="367.19,-451.2 356.88,-448.75 363.42,-457.09 367.19,-451.2"/>
<text text-anchor="middle" x="474" y="-580.02" font-family="Helvetica,sans-Serif" font-size="10.00"> sty</text>
</g>
<!-- Node18 -->
<g id="node18" class="node">
<title>Node18</title>
<g id="a_node18"><a xlink:title=" ">
<polygon fill="white" stroke="#bfbfbf" points="566.5,-487.52 566.5,-506.52 655.5,-506.52 655.5,-487.52 566.5,-487.52"/>
<text text-anchor="middle" x="611" y="-494.52" font-family="Helvetica,sans-Serif" font-size="10.00">FieldNavigatable</text>
</a>
</g>
</g>
<!-- Node18&#45;&gt;Node2 -->
<g id="edge22" class="edge">
<title>Node18&#45;&gt;Node2</title>
<path fill="none" stroke="midnightblue" d="M665.6,-502.05C696.04,-504.9 733.61,-508.43 761.92,-511.08"/>
<polygon fill="midnightblue" stroke="midnightblue" points="665.85,-498.56 655.57,-501.11 665.2,-505.53 665.85,-498.56"/>
</g>
<!-- Node19 -->
<g id="node19" class="node">
<title>Node19</title>
<g id="a_node19"><a xlink:title=" ">
<polygon fill="white" stroke="#bfbfbf" points="573,-449.52 573,-468.52 649,-468.52 649,-449.52 573,-449.52"/>
<text text-anchor="middle" x="611" y="-456.52" font-family="Helvetica,sans-Serif" font-size="10.00">List&lt; String &gt;</text>
</a>
</g>
</g>
<!-- Node19&#45;&gt;Node2 -->
<g id="edge24" class="edge">
<title>Node19&#45;&gt;Node2</title>
<path fill="none" stroke="#9a32cd" stroke-dasharray="5,2" d="M659.22,-468.67C684.6,-474.3 716.29,-482.07 744,-491.02 756.81,-495.17 770.79,-500.7 782.04,-505.41"/>
<polygon fill="#9a32cd" stroke="#9a32cd" points="659.63,-465.18 649.11,-466.46 658.14,-472.02 659.63,-465.18"/>
<text text-anchor="middle" x="727" y="-494.02" font-family="Helvetica,sans-Serif" font-size="10.00"> fields</text>
</g>
<!-- Node20 -->
<g id="node20" class="node">
<title>Node20</title>
<g id="a_node20"><a xlink:title=" ">
<polygon fill="white" stroke="#bfbfbf" points="562,-581.52 562,-600.52 660,-600.52 660,-581.52 562,-581.52"/>
<text text-anchor="middle" x="611" y="-588.52" font-family="Helvetica,sans-Serif" font-size="10.00">List&lt; XTypeItem &gt;</text>
</a>
</g>
</g>
<!-- Node20&#45;&gt;Node2 -->
<g id="edge25" class="edge">
<title>Node20&#45;&gt;Node2</title>
<path fill="none" stroke="#9a32cd" stroke-dasharray="5,2" d="M645.97,-577.7C672.65,-567.22 710.71,-552.24 744,-539.02 755.89,-534.31 769.09,-529.03 780.07,-524.63"/>
<polygon fill="#9a32cd" stroke="#9a32cd" points="644.37,-574.57 636.34,-581.48 646.93,-581.08 644.37,-574.57"/>
<text text-anchor="middle" x="727" y="-554.02" font-family="Helvetica,sans-Serif" font-size="10.00"> types</text>
</g>
<!-- Node21 -->
<g id="node21" class="node">
<title>Node21</title>
<g id="a_node21"><a xlink:title=" ">
<polygon fill="white" stroke="#bfbfbf" points="530,-525.52 530,-544.52 692,-544.52 692,-525.52 530,-525.52"/>
<text text-anchor="middle" x="611" y="-532.52" font-family="Helvetica,sans-Serif" font-size="10.00">List&lt; Supplier&lt; XFormattable &gt; &gt;</text>
</a>
</g>
</g>
<!-- Node21&#45;&gt;Node2 -->
<g id="edge26" class="edge">
<title>Node21&#45;&gt;Node2</title>
<path fill="none" stroke="#9a32cd" stroke-dasharray="5,2" d="M702.21,-525.63C723.04,-523.46 744.23,-521.25 761.85,-519.42"/>
<polygon fill="#9a32cd" stroke="#9a32cd" points="701.62,-522.17 692.03,-526.69 702.34,-529.13 701.62,-522.17"/>
<text text-anchor="middle" x="727" y="-527.02" font-family="Helvetica,sans-Serif" font-size="10.00"> getters</text>
</g>
<!-- Node22 -->
<g id="node22" class="node">
<title>Node22</title>
<g id="a_node22"><a xlink:href="interfacemachine_1_1_rule.html" target="_top" xlink:title="実行可能コードのインタフェース. ブロックとステップの二種がある。">
<polygon fill="white" stroke="black" points="786.5,-387.52 786.5,-406.52 823.5,-406.52 823.5,-387.52 786.5,-387.52"/>
<text text-anchor="middle" x="805" y="-394.52" font-family="Helvetica,sans-Serif" font-size="10.00">Rule</text>
</a>
</g>
</g>
<!-- Node22&#45;&gt;Node1 -->
<g id="edge28" class="edge">
<title>Node22&#45;&gt;Node1</title>
<path fill="none" stroke="midnightblue" d="M833.74,-391.19C855.19,-386.57 885.57,-379.79 912,-373.02 917.83,-371.53 924.02,-369.85 929.97,-368.17"/>
<polygon fill="midnightblue" stroke="midnightblue" points="832.75,-387.82 823.7,-393.33 834.21,-394.66 832.75,-387.82"/>
</g>
<!-- Node23 -->
<g id="node23" class="node">
<title>Node23</title>
<g id="a_node23"><a xlink:href="interfacecmd_1_1_generatable.html" target="_top" xlink:title="変換してコードを生成できるノードのインタフェース.">
<polygon fill="white" stroke="black" points="576.5,-355.52 576.5,-374.52 645.5,-374.52 645.5,-355.52 576.5,-355.52"/>
<text text-anchor="middle" x="611" y="-362.52" font-family="Helvetica,sans-Serif" font-size="10.00">Generatable</text>
</a>
</g>
</g>
<!-- Node23&#45;&gt;Node1 -->
<g id="edge29" class="edge">
<title>Node23&#45;&gt;Node1</title>
<path fill="none" stroke="midnightblue" d="M655.81,-364.27C727.31,-363.04 867.35,-360.63 929.73,-359.56"/>
<polygon fill="midnightblue" stroke="midnightblue" points="655.72,-360.77 645.78,-364.44 655.84,-367.77 655.72,-360.77"/>
</g>
<!-- Node23&#45;&gt;Node24 -->
<g id="edge32" class="edge">
<title>Node23&#45;&gt;Node24</title>
<path fill="none" stroke="midnightblue" d="M655.47,-369.88C682.33,-374.3 716.75,-382.6 744,-398.02 753.85,-403.6 752.7,-409.59 762,-416.02 767.13,-419.58 773.04,-422.73 778.77,-425.39"/>
<polygon fill="midnightblue" stroke="midnightblue" points="655.99,-366.42 645.57,-368.37 654.93,-373.34 655.99,-366.42"/>
</g>
<!-- Node24&#45;&gt;Node1 -->
<g id="edge30" class="edge">
<title>Node24&#45;&gt;Node1</title>
<path fill="none" stroke="#9a32cd" stroke-dasharray="5,2" d="M841.02,-422.91C862.08,-415.11 889.15,-404.19 912,-392.02 924.86,-385.18 938.53,-375.78 948.15,-368.76"/>
<polygon fill="#9a32cd" stroke="#9a32cd" points="839.71,-419.66 831.51,-426.37 842.1,-426.24 839.71,-419.66"/>
<text text-anchor="middle" x="889" y="-415.02" font-family="Helvetica,sans-Serif" font-size="10.00"> pre_sent_</text>
</g>
<!-- Node25 -->
<g id="node25" class="node">
<title>Node25</title>
<g id="a_node25"><a xlink:href="classcmd_1_1_cmd_list.html" target="_top" xlink:title="仮想命令のリスト．">
<polygon fill="white" stroke="black" points="313.5,-43.52 313.5,-62.52 366.5,-62.52 366.5,-43.52 313.5,-43.52"/>
<text text-anchor="middle" x="340" y="-50.52" font-family="Helvetica,sans-Serif" font-size="10.00">CmdList</text>
</a>
</g>
</g>
<!-- Node25&#45;&gt;Node1 -->
<g id="edge33" class="edge">
<title>Node25&#45;&gt;Node1</title>
<path fill="none" stroke="#9a32cd" stroke-dasharray="5,2" d="M376.57,-41.72C475.65,-12.66 757.6,53.04 912,-85.02 952.44,-121.18 959.63,-304.64 960.79,-349.24"/>
<polygon fill="#9a32cd" stroke="#9a32cd" points="375.33,-38.44 366.76,-44.65 377.34,-45.14 375.33,-38.44"/>
<text text-anchor="middle" x="727" y="-12.02" font-family="Helvetica,sans-Serif" font-size="10.00"> code_</text>
</g>
<!-- Node26 -->
<g id="node26" class="node">
<title>Node26</title>
<g id="a_node26"><a xlink:title=" ">
<polygon fill="white" stroke="#bfbfbf" points="0,-95.52 0,-114.52 103,-114.52 103,-95.52 0,-95.52"/>
<text text-anchor="middle" x="51.5" y="-102.52" font-family="Helvetica,sans-Serif" font-size="10.00">CustomFormattable</text>
</a>
</g>
</g>
<!-- Node26&#45;&gt;Node25 -->
<g id="edge34" class="edge">
<title>Node26&#45;&gt;Node25</title>
<path fill="none" stroke="midnightblue" d="M98.37,-93.08C105.91,-91.28 113.65,-89.52 121,-88.02 190.11,-73.93 272.49,-62.01 313.37,-56.43"/>
<polygon fill="midnightblue" stroke="midnightblue" points="97.52,-89.68 88.63,-95.45 99.18,-96.48 97.52,-89.68"/>
</g>
<!-- Node26&#45;&gt;Node30 -->
<g id="edge44" class="edge">
<title>Node26&#45;&gt;Node30</title>
<path fill="none" stroke="midnightblue" d="M113.34,-113.81C151.49,-120.28 201.36,-130.49 244,-145.02 272.62,-154.78 303.81,-171.07 322.37,-181.42"/>
<polygon fill="midnightblue" stroke="midnightblue" points="113.84,-110.35 103.4,-112.17 112.69,-117.26 113.84,-110.35"/>
</g>
<!-- Node27 -->
<g id="node27" class="node">
<title>Node27</title>
<g id="a_node27"><a xlink:title=" ">
<polygon fill="white" stroke="#bfbfbf" points="16,-38.52 16,-57.52 87,-57.52 87,-38.52 16,-38.52"/>
<text text-anchor="middle" x="51.5" y="-45.52" font-family="Helvetica,sans-Serif" font-size="10.00">List&lt; Cmd &gt;</text>
</a>
</g>
</g>
<!-- Node27&#45;&gt;Node25 -->
<g id="edge35" class="edge">
<title>Node27&#45;&gt;Node25</title>
<path fill="none" stroke="#9a32cd" stroke-dasharray="5,2" d="M97.53,-47.79C136.34,-47.7 193.87,-47.84 244,-49.02 267.43,-49.58 294.1,-50.75 313.2,-51.68"/>
<polygon fill="#9a32cd" stroke="#9a32cd" points="97.09,-44.29 87.1,-47.82 97.11,-51.29 97.09,-44.29"/>
<text text-anchor="middle" x="182.5" y="-52.02" font-family="Helvetica,sans-Serif" font-size="10.00"> list_</text>
</g>
<!-- Node28&#45;&gt;Node1 -->
<g id="edge37" class="edge">
<title>Node28&#45;&gt;Node1</title>
<path fill="none" stroke="#9a32cd" stroke-dasharray="5,2" d="M814.47,-682.34C843.06,-619.25 935.45,-415.4 956.64,-368.64"/>
<polygon fill="#9a32cd" stroke="#9a32cd" points="811.25,-680.97 810.31,-691.52 817.62,-683.86 811.25,-680.97"/>
<text text-anchor="middle" x="889" y="-563.02" font-family="Helvetica,sans-Serif" font-size="10.00"> retVar_</text>
</g>
<!-- Node29 -->
<g id="node29" class="node">
<title>Node29</title>
<g id="a_node29"><a xlink:href="interfacemachine_1_1_assignable.html" target="_top" xlink:title="変数（チャネルとコンテナの名前）の抽象化">
<polygon fill="white" stroke="black" points="578.5,-749.52 578.5,-768.52 643.5,-768.52 643.5,-749.52 578.5,-749.52"/>
<text text-anchor="middle" x="611" y="-756.52" font-family="Helvetica,sans-Serif" font-size="10.00">Assignable</text>
</a>
</g>
</g>
<!-- Node29&#45;&gt;Node28 -->
<g id="edge39" class="edge">
<title>Node29&#45;&gt;Node28</title>
<path fill="none" stroke="midnightblue" d="M649.86,-747.54C676.71,-742.5 713.29,-736.06 744,-725.02 760.33,-719.15 777.55,-709.25 789.33,-703.48"/>
<polygon fill="midnightblue" stroke="midnightblue" points="648.88,-744.17 639.72,-749.48 650.2,-751.04 648.88,-744.17"/>
</g>
<!-- Node29&#45;&gt;Node28 -->
<g id="edge41" class="edge">
<title>Node29&#45;&gt;Node28</title>
<path fill="none" stroke="midnightblue" d="M653.74,-762.28C680.16,-759.88 714.74,-753.54 744,-743.02 765.03,-735.47 787.53,-721.21 798,-710.61"/>
<polygon fill="midnightblue" stroke="midnightblue" points="653.39,-758.79 643.68,-763.02 653.91,-765.77 653.39,-758.79"/>
</g>
<!-- Node30&#45;&gt;Node1 -->
<g id="edge43" class="edge">
<title>Node30&#45;&gt;Node1</title>
<path fill="none" stroke="#9a32cd" stroke-dasharray="5,2" d="M377.25,-190.98C471.59,-192.36 730.07,-205.79 912,-307.02 930.64,-317.4 946.35,-337.31 954.66,-349.25"/>
<polygon fill="#9a32cd" stroke="#9a32cd" points="377.12,-187.48 367.09,-190.87 377.05,-194.48 377.12,-187.48"/>
<text text-anchor="middle" x="727" y="-243.02" font-family="Helvetica,sans-Serif" font-size="10.00"> vars_</text>
</g>
<!-- Node30&#45;&gt;Node30 -->
<g id="edge47" class="edge">
<title>Node30&#45;&gt;Node30</title>
<path fill="none" stroke="#9a32cd" stroke-dasharray="5,2" d="M315.07,-210.05C316.43,-215.15 324.74,-219.02 340,-219.02 363.82,-219.02 370.7,-209.59 360.65,-200.78"/>
<polygon fill="#9a32cd" stroke="#9a32cd" points="318.34,-211.33 319.35,-200.78 311.98,-208.4 318.34,-211.33"/>
<text text-anchor="middle" x="340" y="-222.02" font-family="Helvetica,sans-Serif" font-size="10.00"> parent</text>
</g>
</g>
</svg>
