<?xml version="1.0" encoding="UTF-8" standalone="no"?>
<!DOCTYPE svg PUBLIC "-//W3C//DTD SVG 1.1//EN"
 "http://www.w3.org/Graphics/SVG/1.1/DTD/svg11.dtd">
<!-- Generated by graphviz version 2.38.0 (20140413.2041)
 -->
<!-- Title: StepProgram Pages: 1 -->
<!--zoomable 177 -->
<svg id="main" version="1.1" xmlns="http://www.w3.org/2000/svg" xmlns:xlink="http://www.w3.org/1999/xlink" xml:space="preserve" onload="init(evt)">
<style type="text/css"><![CDATA[
.edge:hover path { stroke: red; }
.edge:hover polygon { stroke: red; fill: red; }
]]></style>
<script type="text/javascript"><![CDATA[
var edges = document.getElementsByTagName('g');
if (edges && edges.length) {
  for (var i=0;i<edges.length;i++) {
    if (edges[i].id.substr(0,4)=='edge') {
      edges[i].setAttribute('class','edge');
    }
  }
}
]]></script>
        <defs>
                <circle id="rim" cx="0" cy="0" r="7"/>
                <circle id="rim2" cx="0" cy="0" r="3.5"/>
                <g id="zoomPlus">
                        <use xlink:href="#rim" fill="#404040">
                                <set attributeName="fill" to="#808080" begin="zoomplus.mouseover" end="zoomplus.mouseout"/>
                        </use>
                        <path d="M-4,0h8M0,-4v8" fill="none" stroke="white" stroke-width="1.5" pointer-events="none"/>
                </g>
                <g id="zoomMin">
                        <use xlink:href="#rim" fill="#404040">
                                <set attributeName="fill" to="#808080" begin="zoomminus.mouseover" end="zoomminus.mouseout"/>
                        </use>
                        <path d="M-4,0h8" fill="none" stroke="white" stroke-width="1.5" pointer-events="none"/>
                </g>
                <g id="dirArrow">
                        <path fill="none" stroke="white" stroke-width="1.5" d="M0,-3.0v7 M-2.5,-0.5L0,-3.0L2.5,-0.5"/>
                </g>
               <g id="resetDef">
                       <use xlink:href="#rim2" fill="#404040">
                               <set attributeName="fill" to="#808080" begin="reset.mouseover" end="reset.mouseout"/>
                       </use>
               </g>
        </defs>

<script type="text/javascript">
var viewWidth = 703;
var viewHeight = 177;
var sectionId = 'dynsection-0';
</script>
<script xlink:href="svgpan.js"/>
<svg id="graph" class="graph">
<g id="viewport">
<title>StepProgram</title>
<polygon fill="white" stroke="none" points="-4,4 -4,-173 698.796,-173 698.796,4 -4,4"/>
<!-- Node1 -->
<g id="node1" class="node"><title>Node1</title>
<g id="a_node1"><a xlink:title="ルールの集合からなるコンパイル済みのプログラム.">
<polygon fill="#bfbfbf" stroke="black" points="619.88,-38.5 619.88,-56.5 694.796,-56.5 694.796,-38.5 619.88,-38.5"/>
<text text-anchor="middle" x="657.338" y="-44.5" font-family="Helvetica,sans-Serif" font-size="10.00">StepProgram</text>
</a>
</g>
</g>
<!-- Node2 -->
<g id="node2" class="node"><title>Node2</title>
<g id="a_node2"><a xlink:href="classast_1_1_ast_node_tagged.html" target="_top" xlink:title=" ">
<polygon fill="white" stroke="black" points="496.718,-76.5 496.718,-94.5 583.88,-94.5 583.88,-76.5 496.718,-76.5"/>
<text text-anchor="middle" x="540.299" y="-82.5" font-family="Helvetica,sans-Serif" font-size="10.00">AstNodeTagged</text>
</a>
</g>
</g>
<!-- Node2&#45;&gt;Node1 -->
<g id="edge1" class="edge"><title>Node2&#45;&gt;Node1</title>
<path fill="none" stroke="midnightblue" d="M578.392,-73.2472C594.802,-67.8266 613.761,-61.564 628.872,-56.5725"/>
<polygon fill="midnightblue" stroke="midnightblue" points="576.959,-70.0345 568.561,-76.4945 579.155,-76.6813 576.959,-70.0345"/>
</g>
<!-- Node3 -->
<g id="node3" class="node"><title>Node3</title>
<g id="a_node3"><a xlink:href="classast_1_1_ast_node_branch.html" target="_top" xlink:title="抽象構文木のノードの基本実装クラス.">
<polygon fill="white" stroke="black" points="341.053,-76.5 341.053,-94.5 427.092,-94.5 427.092,-76.5 341.053,-76.5"/>
<text text-anchor="middle" x="384.073" y="-82.5" font-family="Helvetica,sans-Serif" font-size="10.00">AstNodeBranch</text>
</a>
</g>
</g>
<!-- Node3&#45;&gt;Node2 -->
<g id="edge2" class="edge"><title>Node3&#45;&gt;Node2</title>
<path fill="none" stroke="midnightblue" d="M437.37,-85.5C456.682,-85.5 478.318,-85.5 496.671,-85.5"/>
<polygon fill="midnightblue" stroke="midnightblue" points="437.216,-82.0001 427.216,-85.5 437.216,-89.0001 437.216,-82.0001"/>
</g>
<!-- Node4 -->
<g id="node4" class="node"><title>Node4</title>
<g id="a_node4"><a xlink:href="classast_1_1_ast_node.html" target="_top" xlink:title=" ">
<polygon fill="white" stroke="black" points="164.549,-150.5 164.549,-168.5 218.903,-168.5 218.903,-150.5 164.549,-150.5"/>
<text text-anchor="middle" x="191.726" y="-156.5" font-family="Helvetica,sans-Serif" font-size="10.00">AstNode</text>
</a>
</g>
</g>
<!-- Node4&#45;&gt;Node3 -->
<g id="edge3" class="edge"><title>Node4&#45;&gt;Node3</title>
<path fill="none" stroke="midnightblue" d="M228.98,-153.11C242.508,-150.233 257.868,-146.371 271.428,-141.5 307.549,-128.524 347.092,-106.721 368.058,-94.5001"/>
<polygon fill="midnightblue" stroke="midnightblue" points="228.159,-149.705 219.052,-155.119 229.548,-156.566 228.159,-149.705"/>
</g>
<!-- Node5 -->
<g id="node5" class="node"><title>Node5</title>
<g id="a_node5"><a xlink:href="interfaceformat_1_1_x_formattable.html" target="_top" xlink:title="入れ子フォーマット出力可能なオブジェクトのインタフェース。">
<polygon fill="white" stroke="black" points="0,-94.5 0,-112.5 76.0244,-112.5 76.0244,-94.5 0,-94.5"/>
<text text-anchor="middle" x="38.0122" y="-100.5" font-family="Helvetica,sans-Serif" font-size="10.00">XFormattable</text>
</a>
</g>
</g>
<!-- Node5&#45;&gt;Node4 -->
<g id="edge4" class="edge"><title>Node5&#45;&gt;Node4</title>
<path fill="none" stroke="midnightblue" d="M62.5204,-117.696C76.4973,-125.632 94.807,-135.169 112.024,-141.5 128.995,-147.74 148.846,-152.262 164.366,-155.213"/>
<polygon fill="midnightblue" stroke="midnightblue" points="64.0082,-114.513 53.603,-112.517 60.4926,-120.566 64.0082,-114.513"/>
</g>
<!-- Node6 -->
<g id="node6" class="node"><title>Node6</title>
<g id="a_node6"><a xlink:href="interfaceformat_1_1_x_formattable_1_1_navigatable.html" target="_top" xlink:title="木構造の分岐ノードとして清書可能なオブジェクトのクラス">
<polygon fill="white" stroke="black" points="125.918,-39.5 125.918,-57.5 257.534,-57.5 257.534,-39.5 125.918,-39.5"/>
<text text-anchor="middle" x="191.726" y="-45.5" font-family="Helvetica,sans-Serif" font-size="10.00">XFormattable.Navigatable</text>
</a>
</g>
</g>
<!-- Node5&#45;&gt;Node6 -->
<g id="edge6" class="edge"><title>Node5&#45;&gt;Node6</title>
<path fill="none" stroke="midnightblue" d="M63.0998,-89.4125C77.0222,-81.7545 95.0859,-72.6245 112.024,-66.5 121.778,-62.9732 132.47,-59.9813 142.741,-57.5098"/>
<polygon fill="midnightblue" stroke="midnightblue" points="61.1885,-86.4718 54.1876,-94.424 64.6196,-92.5733 61.1885,-86.4718"/>
</g>
<!-- Node7 -->
<g id="node7" class="node"><title>Node7</title>
<g id="a_node7"><a xlink:href="interfaceformat_1_1_x_formattable_1_1_typed_formattable.html" target="_top" xlink:title="ノードの型情報をもつ書式出力可能なオブジェクトのインタフェース．">
<polygon fill="white" stroke="black" points="112.024,-113.5 112.024,-131.5 271.428,-131.5 271.428,-113.5 112.024,-113.5"/>
<text text-anchor="middle" x="191.726" y="-119.5" font-family="Helvetica,sans-Serif" font-size="10.00">XFormattable.TypedFormattable</text>
</a>
</g>
</g>
<!-- Node5&#45;&gt;Node7 -->
<g id="edge8" class="edge"><title>Node5&#45;&gt;Node7</title>
<path fill="none" stroke="midnightblue" d="M86.1451,-109.403C96.4776,-110.697 107.644,-112.095 118.702,-113.48"/>
<polygon fill="midnightblue" stroke="midnightblue" points="86.483,-105.918 76.1256,-108.148 85.6131,-112.864 86.483,-105.918"/>
</g>
<!-- Node8 -->
<g id="node8" class="node"><title>Node8</title>
<g id="a_node8"><a xlink:href="interfaceformat_1_1_x_formattable_1_1_hgt_formattable.html" target="_top" xlink:title="ノードの高さ情報をもつ書式出力可能なオブジェクトのインタフェース．">
<polygon fill="white" stroke="black" points="117.867,-76.5 117.867,-94.5 265.585,-94.5 265.585,-76.5 117.867,-76.5"/>
<text text-anchor="middle" x="191.726" y="-82.5" font-family="Helvetica,sans-Serif" font-size="10.00">XFormattable.HgtFormattable</text>
</a>
</g>
</g>
<!-- Node5&#45;&gt;Node8 -->
<g id="edge10" class="edge"><title>Node5&#45;&gt;Node8</title>
<path fill="none" stroke="midnightblue" d="M86.2506,-97.8954C96.2722,-96.7064 107.075,-95.4247 117.799,-94.1524"/>
<polygon fill="midnightblue" stroke="midnightblue" points="85.6436,-94.4428 76.1256,-99.0967 86.4683,-101.394 85.6436,-94.4428"/>
</g>
<!-- Node6&#45;&gt;Node3 -->
<g id="edge5" class="edge"><title>Node6&#45;&gt;Node3</title>
<path fill="none" stroke="midnightblue" d="M249.402,-59.5168C278.748,-65.2211 313.967,-72.0671 340.886,-77.2996"/>
<polygon fill="midnightblue" stroke="midnightblue" points="249.774,-56.0237 239.29,-57.5512 248.439,-62.8951 249.774,-56.0237"/>
</g>
<!-- Node9 -->
<g id="node9" class="node"><title>Node9</title>
<g id="a_node9"><a xlink:href="interfaceformat_1_1_x_formattable_1_1_field_navigatable.html" target="_top" xlink:title="タグ付きノードに対応する清書対象のクラス。">
<polygon fill="white" stroke="black" points="307.428,-39.5 307.428,-57.5 460.718,-57.5 460.718,-39.5 307.428,-39.5"/>
<text text-anchor="middle" x="384.073" y="-45.5" font-family="Helvetica,sans-Serif" font-size="10.00">XFormattable.FieldNavigatable</text>
</a>
</g>
</g>
<!-- Node6&#45;&gt;Node9 -->
<g id="edge12" class="edge"><title>Node6&#45;&gt;Node9</title>
<path fill="none" stroke="midnightblue" d="M267.936,-48.5C280.86,-48.5 294.299,-48.5 307.24,-48.5"/>
<polygon fill="midnightblue" stroke="midnightblue" points="267.7,-45.0001 257.7,-48.5 267.7,-52.0001 267.7,-45.0001"/>
</g>
<!-- Node7&#45;&gt;Node3 -->
<g id="edge7" class="edge"><title>Node7&#45;&gt;Node3</title>
<path fill="none" stroke="midnightblue" d="M249.402,-111.483C278.748,-105.779 313.967,-98.9329 340.886,-93.7004"/>
<polygon fill="midnightblue" stroke="midnightblue" points="248.439,-108.105 239.29,-113.449 249.774,-114.976 248.439,-108.105"/>
</g>
<!-- Node8&#45;&gt;Node3 -->
<g id="edge9" class="edge"><title>Node8&#45;&gt;Node3</title>
<path fill="none" stroke="midnightblue" d="M275.983,-85.5C298.378,-85.5 321.667,-85.5 340.784,-85.5"/>
<polygon fill="midnightblue" stroke="midnightblue" points="275.775,-82.0001 265.775,-85.5 275.775,-89.0001 275.775,-82.0001"/>
</g>
<!-- Node9&#45;&gt;Node1 -->
<g id="edge14" class="edge"><title>Node9&#45;&gt;Node1</title>
<path fill="none" stroke="midnightblue" d="M471.198,-48.1825C521.333,-47.9977 581.928,-47.7743 619.812,-47.6347"/>
<polygon fill="midnightblue" stroke="midnightblue" points="470.983,-44.6832 460.996,-48.2201 471.009,-51.6831 470.983,-44.6832"/>
</g>
<!-- Node9&#45;&gt;Node2 -->
<g id="edge11" class="edge"><title>Node9&#45;&gt;Node2</title>
<path fill="none" stroke="midnightblue" d="M432.979,-59.8718C442.187,-62.0653 451.752,-64.3495 460.718,-66.5 474.23,-69.7411 489.043,-73.3169 502.13,-76.4838"/>
<polygon fill="midnightblue" stroke="midnightblue" points="433.712,-56.4486 423.174,-57.5378 432.091,-63.2584 433.712,-56.4486"/>
</g>
<!-- Node10 -->
<g id="node10" class="node"><title>Node10</title>
<g id="a_node10"><a xlink:href="interfacemachine_1_1_runnable.html" target="_top" xlink:title="実行可能なプログラムのインタフェース.">
<polygon fill="white" stroke="black" points="510.893,-0.5 510.893,-18.5 569.705,-18.5 569.705,-0.5 510.893,-0.5"/>
<text text-anchor="middle" x="540.299" y="-6.5" font-family="Helvetica,sans-Serif" font-size="10.00">Runnable</text>
</a>
</g>
</g>
<!-- Node10&#45;&gt;Node1 -->
<g id="edge13" class="edge"><title>Node10&#45;&gt;Node1</title>
<path fill="none" stroke="midnightblue" d="M578.392,-21.7528C594.802,-27.1734 613.761,-33.436 628.872,-38.4275"/>
<polygon fill="midnightblue" stroke="midnightblue" points="579.155,-18.3187 568.561,-18.5055 576.959,-24.9655 579.155,-18.3187"/>
</g>
</g>
</svg>
        <g id="navigator" transform="translate(0 0)" fill="#404254">
                <rect fill="#f2f5e9" fill-opacity="0.5" stroke="#606060" stroke-width=".5" x="0" y="0" width="60" height="60"/>
                <use id="zoomplus" xlink:href="#zoomPlus" x="17" y="9" onmousedown="handleZoom(evt,'in')"/>
                <use id="zoomminus" xlink:href="#zoomMin" x="42" y="9" onmousedown="handleZoom(evt,'out')"/>
                <use id="reset" xlink:href="#resetDef" x="30" y="36" onmousedown="handleReset()"/>
                <g id="arrowUp" xlink:href="#dirArrow" transform="translate(30 24)" onmousedown="handlePan(0,-1)">
                  <use xlink:href="#rim" fill="#404040">
                        <set attributeName="fill" to="#808080" begin="arrowUp.mouseover" end="arrowUp.mouseout"/>
                  </use>
                  <path fill="none" stroke="white" stroke-width="1.5" d="M0,-3.0v7 M-2.5,-0.5L0,-3.0L2.5,-0.5"/>
                </g>
                <g id="arrowRight" xlink:href="#dirArrow" transform="rotate(90) translate(36 -43)" onmousedown="handlePan(1,0)">
                  <use xlink:href="#rim" fill="#404040">
                        <set attributeName="fill" to="#808080" begin="arrowRight.mouseover" end="arrowRight.mouseout"/>
                  </use>
                  <path fill="none" stroke="white" stroke-width="1.5" d="M0,-3.0v7 M-2.5,-0.5L0,-3.0L2.5,-0.5"/>
                </g>
                <g id="arrowDown" xlink:href="#dirArrow" transform="rotate(180) translate(-30 -48)" onmousedown="handlePan(0,1)">
                  <use xlink:href="#rim" fill="#404040">
                        <set attributeName="fill" to="#808080" begin="arrowDown.mouseover" end="arrowDown.mouseout"/>
                  </use>
                  <path fill="none" stroke="white" stroke-width="1.5" d="M0,-3.0v7 M-2.5,-0.5L0,-3.0L2.5,-0.5"/>
                </g>
                <g id="arrowLeft" xlink:href="#dirArrow" transform="rotate(270) translate(-36 17)" onmousedown="handlePan(-1,0)">
                  <use xlink:href="#rim" fill="#404040">
                        <set attributeName="fill" to="#808080" begin="arrowLeft.mouseover" end="arrowLeft.mouseout"/>
                  </use>
                  <path fill="none" stroke="white" stroke-width="1.5" d="M0,-3.0v7 M-2.5,-0.5L0,-3.0L2.5,-0.5"/>
                </g>
        </g>
        <svg viewBox="0 0 15 15" width="100%" height="30px" preserveAspectRatio="xMaxYMin meet">
         <g id="arrow_out" transform="scale(0.3 0.3)">
          <a xlink:href="classmachine_1_1_step_program__inherit__graph_org.svg" target="_base">
           <rect id="button" ry="5" rx="5" y="6" x="6" height="38" width="38"
                fill="#f2f5e9" fill-opacity="0.5" stroke="#606060" stroke-width="1.0"/>
           <path id="arrow"
             d="M 11.500037,31.436501 C 11.940474,20.09759 22.043105,11.32322 32.158766,21.979434 L 37.068811,17.246167 C 37.068811,17.246167 37.088388,32 37.088388,32 L 22.160133,31.978069 C 22.160133,31.978069 26.997745,27.140456 26.997745,27.140456 C 18.528582,18.264221 13.291696,25.230495 11.500037,31.436501 z"
             style="fill:#404040;"/>
          </a>
         </g>
        </svg>
</svg>
