<?xml version="1.0" encoding="UTF-8" standalone="no"?>
<!DOCTYPE svg PUBLIC "-//W3C//DTD SVG 1.1//EN"
 "http://www.w3.org/Graphics/SVG/1.1/DTD/svg11.dtd">
<!-- Generated by graphviz version 2.38.0 (20140413.2041)
 -->
<!-- Title: read Pages: 1 -->
<svg width="244pt" height="27pt"
 viewBox="0.00 0.00 243.62 27.00" xmlns="http://www.w3.org/2000/svg" xmlns:xlink="http://www.w3.org/1999/xlink">
<g id="graph0" class="graph" transform="scale(1 1) rotate(0) translate(4 23)">
<title>read</title>
<polygon fill="white" stroke="none" points="-4,4 -4,-23 239.62,-23 239.62,4 -4,4"/>
<!-- Node1 -->
<g id="node1" class="node"><title>Node1</title>
<g id="a_node1"><a xlink:title="Read a byte or letter from an PooledInputStream.">
<polygon fill="#bfbfbf" stroke="black" points="0,-0.5 0,-18.5 36.0146,-18.5 36.0146,-0.5 0,-0.5"/>
<text text-anchor="middle" x="18.0073" y="-6.5" font-family="Helvetica,sans-Serif" font-size="10.00">read</text>
</a>
</g>
</g>
<!-- Node2 -->
<g id="node2" class="node"><title>Node2</title>
<g id="a_node2"><a xlink:href="classio_1_1_pooled_input_stream.html#acb3856901477cbdc25853f51015dc8cb" target="_top" xlink:title="Reset the active cursor to the specified position.">
<polygon fill="white" stroke="black" points="72.0146,-0.5 72.0146,-18.5 140.251,-18.5 140.251,-0.5 72.0146,-0.5"/>
<text text-anchor="middle" x="106.133" y="-6.5" font-family="Helvetica,sans-Serif" font-size="10.00">resetCursor</text>
</a>
</g>
</g>
<!-- Node1&#45;&gt;Node2 -->
<g id="edge1" class="edge"><title>Node1&#45;&gt;Node2</title>
<path fill="none" stroke="midnightblue" d="M36.0229,-9.5C43.4315,-9.5 52.4876,-9.5 61.5732,-9.5"/>
<polygon fill="midnightblue" stroke="midnightblue" points="61.7574,-13.0001 71.7574,-9.5 61.7574,-6.0001 61.7574,-13.0001"/>
</g>
<!-- Node3 -->
<g id="node3" class="node"><title>Node3</title>
<g id="a_node3"><a xlink:href="classio_1_1_pooled_input_stream.html#ab5632d167a39d12d408470f6116d312b" target="_top" xlink:title="Check if the current input buffer contains the given position.">
<polygon fill="white" stroke="black" points="176.251,-0.5 176.251,-18.5 235.62,-18.5 235.62,-0.5 176.251,-0.5"/>
<text text-anchor="middle" x="205.936" y="-6.5" font-family="Helvetica,sans-Serif" font-size="10.00">contained</text>
</a>
</g>
</g>
<!-- Node2&#45;&gt;Node3 -->
<g id="edge2" class="edge"><title>Node2&#45;&gt;Node3</title>
<path fill="none" stroke="midnightblue" d="M140.517,-9.5C148.611,-9.5 157.336,-9.5 165.673,-9.5"/>
<polygon fill="midnightblue" stroke="midnightblue" points="165.947,-13.0001 175.947,-9.5 165.947,-6.0001 165.947,-13.0001"/>
</g>
</g>
</svg>
