<?xml version="1.0" encoding="UTF-8" standalone="no"?>
<!DOCTYPE svg PUBLIC "-//W3C//DTD SVG 1.1//EN"
 "http://www.w3.org/Graphics/SVG/1.1/DTD/svg11.dtd">
<!-- Generated by graphviz version 2.47.1 (20210417.1919)
 -->
<!-- Title: PNodePrinter Pages: 1 -->
<svg width="240pt" height="128pt"
 viewBox="0.00 0.00 240.00 128.00" xmlns="http://www.w3.org/2000/svg" xmlns:xlink="http://www.w3.org/1999/xlink">
<g id="graph0" class="graph" transform="scale(1 1) rotate(0) translate(4 124)">
<title>PNodePrinter</title>
<polygon fill="white" stroke="transparent" points="-4,4 -4,-124 236,-124 236,4 -4,4"/>
<!-- Node1 -->
<g id="node1" class="node">
<title>Node1</title>
<g id="a_node1"><a xlink:title=" ">
<polygon fill="#bfbfbf" stroke="black" points="74.5,-0.5 74.5,-19.5 149.5,-19.5 149.5,-0.5 74.5,-0.5"/>
<text text-anchor="middle" x="112" y="-7.5" font-family="Helvetica,sans-Serif" font-size="10.00">PNodePrinter</text>
</a>
</g>
</g>
<!-- Node2 -->
<g id="node2" class="node">
<title>Node2</title>
<g id="a_node2"><a xlink:title=" ">
<polygon fill="white" stroke="#bfbfbf" points="0,-100.5 0,-119.5 42,-119.5 42,-100.5 0,-100.5"/>
<text text-anchor="middle" x="21" y="-107.5" font-family="Helvetica,sans-Serif" font-size="10.00">String</text>
</a>
</g>
</g>
<!-- Node2&#45;&gt;Node1 -->
<g id="edge1" class="edge">
<title>Node2&#45;&gt;Node1</title>
<path fill="none" stroke="#9a32cd" stroke-dasharray="5,2" d="M30.8,-91.44C39.89,-76.16 54.48,-54.01 71,-38 78.47,-30.76 88.13,-24.29 96.2,-19.5"/>
<polygon fill="#9a32cd" stroke="#9a32cd" points="27.62,-89.94 25.65,-100.36 33.68,-93.44 27.62,-89.94"/>
<text text-anchor="middle" x="89.5" y="-74" font-family="Helvetica,sans-Serif" font-size="10.00"> LBODY</text>
<text text-anchor="middle" x="89.5" y="-63" font-family="Helvetica,sans-Serif" font-size="10.00">LHEAD</text>
<text text-anchor="middle" x="89.5" y="-52" font-family="Helvetica,sans-Serif" font-size="10.00">RBODY</text>
<text text-anchor="middle" x="89.5" y="-41" font-family="Helvetica,sans-Serif" font-size="10.00">RHEAD</text>
</g>
<!-- Node3 -->
<g id="node3" class="node">
<title>Node3</title>
<g id="a_node3"><a xlink:title=" ">
<polygon fill="white" stroke="#bfbfbf" points="60,-100.5 60,-119.5 164,-119.5 164,-100.5 60,-100.5"/>
<text text-anchor="middle" x="112" y="-107.5" font-family="Helvetica,sans-Serif" font-size="10.00">FoldableStringBufKt</text>
</a>
</g>
</g>
<!-- Node3&#45;&gt;Node1 -->
<g id="edge2" class="edge">
<title>Node3&#45;&gt;Node1</title>
<path fill="none" stroke="#9a32cd" stroke-dasharray="5,2" d="M112,-90.22C112,-68.95 112,-35.22 112,-19.54"/>
<polygon fill="#9a32cd" stroke="#9a32cd" points="108.5,-90.3 112,-100.3 115.5,-90.3 108.5,-90.3"/>
<text text-anchor="middle" x="120.5" y="-57.5" font-family="Helvetica,sans-Serif" font-size="10.00"> buf</text>
</g>
<!-- Node4 -->
<g id="node4" class="node">
<title>Node4</title>
<g id="a_node4"><a xlink:title=" ">
<polygon fill="white" stroke="#bfbfbf" points="182,-100.5 182,-119.5 232,-119.5 232,-100.5 182,-100.5"/>
<text text-anchor="middle" x="207" y="-107.5" font-family="Helvetica,sans-Serif" font-size="10.00">boolean</text>
</a>
</g>
</g>
<!-- Node4&#45;&gt;Node1 -->
<g id="edge3" class="edge">
<title>Node4&#45;&gt;Node1</title>
<path fill="none" stroke="#9a32cd" stroke-dasharray="5,2" d="M191.57,-93.08C171.23,-72.1 136.18,-35.94 120.28,-19.54"/>
<polygon fill="#9a32cd" stroke="#9a32cd" points="189.1,-95.56 198.57,-100.3 194.12,-90.69 189.1,-95.56"/>
<text text-anchor="middle" x="196.5" y="-57.5" font-family="Helvetica,sans-Serif" font-size="10.00"> hasEnd</text>
</g>
</g>
</svg>
