<?xml version="1.0" encoding="UTF-8" standalone="no"?>
<!DOCTYPE svg PUBLIC "-//W3C//DTD SVG 1.1//EN"
 "http://www.w3.org/Graphics/SVG/1.1/DTD/svg11.dtd">
<!-- Generated by graphviz version 2.38.0 (20140413.2041)
 -->
<!-- Title: get Pages: 1 -->
<svg width="178pt" height="64pt"
 viewBox="0.00 0.00 177.73 64.00" xmlns="http://www.w3.org/2000/svg" xmlns:xlink="http://www.w3.org/1999/xlink">
<g id="graph0" class="graph" transform="scale(1 1) rotate(0) translate(4 60)">
<title>get</title>
<polygon fill="white" stroke="none" points="-4,4 -4,-60 173.729,-60 173.729,4 -4,4"/>
<!-- Node1 -->
<g id="node1" class="node"><title>Node1</title>
<g id="a_node1"><a xlink:title="現在アクティブなビットベクタで、状態ID fid の状態が真である.">
<polygon fill="#bfbfbf" stroke="black" points="0,-18.5 0,-36.5 29.9014,-36.5 29.9014,-18.5 0,-18.5"/>
<text text-anchor="middle" x="14.9507" y="-24.5" font-family="Helvetica,sans-Serif" font-size="10.00">get</text>
</a>
</g>
</g>
<!-- Node2 -->
<g id="node2" class="node"><title>Node2</title>
<g id="a_node2"><a xlink:href="classutil_1_1_stack_base.html#a8807ac20df95e5ed0d4d5e4447d68f35" target="_top" xlink:title="オフセットi &gt;= 0に対して、スタックの頂上からi下の値を返す.">
<polygon fill="white" stroke="black" points="65.9014,-37.5 65.9014,-55.5 169.729,-55.5 169.729,-37.5 65.9014,-37.5"/>
<text text-anchor="middle" x="117.815" y="-43.5" font-family="Helvetica,sans-Serif" font-size="10.00">util.StackBase.peek</text>
</a>
</g>
</g>
<!-- Node1&#45;&gt;Node2 -->
<g id="edge1" class="edge"><title>Node1&#45;&gt;Node2</title>
<path fill="none" stroke="midnightblue" d="M29.9754,-30.1419C37.7668,-31.6095 48.0406,-33.5448 58.7853,-35.5688"/>
<polygon fill="midnightblue" stroke="midnightblue" points="58.2525,-39.03 68.7276,-37.4417 59.5484,-32.1509 58.2525,-39.03"/>
</g>
<!-- Node3 -->
<g id="node3" class="node"><title>Node3</title>
<g id="a_node3"><a xlink:href="classmachine_1_1_state_stack.html#a542ef5749e6f585eced800e9a156984c" target="_top" xlink:title="状態ビットベクタの第fid番目の状態が真かを返す．">
<polygon fill="white" stroke="black" points="78.4062,-0.5 78.4062,-18.5 157.224,-18.5 157.224,-0.5 78.4062,-0.5"/>
<text text-anchor="middle" x="117.815" y="-6.5" font-family="Helvetica,sans-Serif" font-size="10.00">theStateHolds</text>
</a>
</g>
</g>
<!-- Node1&#45;&gt;Node3 -->
<g id="edge2" class="edge"><title>Node1&#45;&gt;Node3</title>
<path fill="none" stroke="midnightblue" d="M29.9754,-24.9972C39.9938,-23.2093 54.1164,-20.689 68.067,-18.1994"/>
<polygon fill="midnightblue" stroke="midnightblue" points="68.9041,-21.6054 78.1337,-16.403 67.6743,-14.7143 68.9041,-21.6054"/>
</g>
</g>
</svg>
