<?xml version="1.0" encoding="UTF-8" standalone="no"?>
<!DOCTYPE svg PUBLIC "-//W3C//DTD SVG 1.1//EN"
 "http://www.w3.org/Graphics/SVG/1.1/DTD/svg11.dtd">
<!-- Generated by graphviz version 2.47.1 (20210417.1919)
 -->
<!-- Title: Entry Pages: 1 -->
<!--zoomable 633 -->
<svg id="main" version="1.1" xmlns="http://www.w3.org/2000/svg" xmlns:xlink="http://www.w3.org/1999/xlink" xml:space="preserve" onload="init(evt)">
<style type="text/css"><![CDATA[
.edge:hover path { stroke: red; }
.edge:hover polygon { stroke: red; fill: red; }
]]></style>
<script type="text/javascript"><![CDATA[
var edges = document.getElementsByTagName('g');
if (edges && edges.length) {
  for (var i=0;i<edges.length;i++) {
    if (edges[i].id.substr(0,4)=='edge') {
      edges[i].setAttribute('class','edge');
    }
  }
}
]]></script>
        <defs>
                <circle id="rim" cx="0" cy="0" r="7"/>
                <circle id="rim2" cx="0" cy="0" r="3.5"/>
                <g id="zoomPlus">
                        <use xlink:href="#rim" fill="#404040">
                                <set attributeName="fill" to="#808080" begin="zoomplus.mouseover" end="zoomplus.mouseout"/>
                        </use>
                        <path d="M-4,0h8M0,-4v8" fill="none" stroke="white" stroke-width="1.5" pointer-events="none"/>
                </g>
                <g id="zoomMin">
                        <use xlink:href="#rim" fill="#404040">
                                <set attributeName="fill" to="#808080" begin="zoomminus.mouseover" end="zoomminus.mouseout"/>
                        </use>
                        <path d="M-4,0h8" fill="none" stroke="white" stroke-width="1.5" pointer-events="none"/>
                </g>
                <g id="dirArrow">
                        <path fill="none" stroke="white" stroke-width="1.5" d="M0,-3.0v7 M-2.5,-0.5L0,-3.0L2.5,-0.5"/>
                </g>
               <g id="resetDef">
                       <use xlink:href="#rim2" fill="#404040">
                               <set attributeName="fill" to="#808080" begin="reset.mouseover" end="reset.mouseout"/>
                       </use>
               </g>
        </defs>

<script type="text/javascript">
var viewWidth = 860;
var viewHeight = 633;
var sectionId = 'dynsection-0';
</script>
<script xlink:href="svgpan.js"/>
<svg id="graph" class="graph">
<g id="viewport">
<title>Entry</title>
<polygon fill="white" stroke="transparent" points="-4,4 -4,-628.5 856,-628.5 856,4 -4,4"/>
<!-- Node1 -->
<g id="node1" class="node">
<title>Node1</title>
<g id="a_node1"><a xlink:title="フレームスタックのレコード（セル）．">
<polygon fill="#bfbfbf" stroke="black" points="812,-546.5 812,-565.5 852,-565.5 852,-546.5 812,-546.5"/>
<text text-anchor="middle" x="832" y="-553.5" font-family="Helvetica,sans-Serif" font-size="10.00">Entry</text>
</a>
</g>
</g>
<!-- Node2 -->
<g id="node2" class="node">
<title>Node2</title>
<g id="a_node2"><a xlink:title=" ">
<polygon fill="white" stroke="#bfbfbf" points="595.5,-594 595.5,-624 718.5,-624 718.5,-594 595.5,-594"/>
<text text-anchor="start" x="603.5" y="-612" font-family="Helvetica,sans-Serif" font-size="10.00">static Generator&lt; frame.</text>
<text text-anchor="middle" x="657" y="-601" font-family="Helvetica,sans-Serif" font-size="10.00">Entry &gt;</text>
</a>
</g>
</g>
<!-- Node2&#45;&gt;Node1 -->
<g id="edge1" class="edge">
<title>Node2&#45;&gt;Node1</title>
<path fill="none" stroke="#9a32cd" stroke-dasharray="5,2" d="M728.61,-598.16C750.07,-593.61 773.41,-587.38 794,-579 802.41,-575.58 811.06,-570.31 817.89,-565.68"/>
<polygon fill="#9a32cd" stroke="#9a32cd" points="727.68,-594.77 718.57,-600.19 729.07,-601.63 727.68,-594.77"/>
<text text-anchor="middle" x="772" y="-596" font-family="Helvetica,sans-Serif" font-size="10.00"> generator</text>
</g>
<!-- Node3 -->
<g id="node3" class="node">
<title>Node3</title>
<g id="a_node3"><a xlink:title=" ">
<polygon fill="white" stroke="#bfbfbf" points="27,-509.5 27,-528.5 56,-528.5 56,-509.5 27,-509.5"/>
<text text-anchor="middle" x="41.5" y="-516.5" font-family="Helvetica,sans-Serif" font-size="10.00">int</text>
</a>
</g>
</g>
<!-- Node3&#45;&gt;Node1 -->
<g id="edge2" class="edge">
<title>Node3&#45;&gt;Node1</title>
<path fill="none" stroke="#9a32cd" stroke-dasharray="5,2" d="M65.87,-525.81C111.95,-538.61 217.96,-565 309,-565 309,-565 309,-565 658,-565 713.94,-565 779.92,-560.25 811.82,-557.65"/>
<polygon fill="#9a32cd" stroke="#9a32cd" points="66.8,-522.43 56.23,-523.08 64.9,-529.17 66.8,-522.43"/>
<text text-anchor="middle" x="517.5" y="-579" font-family="Helvetica,sans-Serif" font-size="10.00"> UNDEF</text>
<text text-anchor="middle" x="517.5" y="-568" font-family="Helvetica,sans-Serif" font-size="10.00">val</text>
</g>
<!-- Node4 -->
<g id="node4" class="node">
<title>Node4</title>
<g id="a_node4"><a xlink:href="classmachine_1_1_var.html" target="_top" xlink:title="フレーム中の変数参照オブジェクトref = (XType type, int vid)">
<polygon fill="white" stroke="black" points="641.5,-513.5 641.5,-532.5 672.5,-532.5 672.5,-513.5 641.5,-513.5"/>
<text text-anchor="middle" x="657" y="-520.5" font-family="Helvetica,sans-Serif" font-size="10.00">Var</text>
</a>
</g>
</g>
<!-- Node3&#45;&gt;Node4 -->
<g id="edge23" class="edge">
<title>Node3&#45;&gt;Node4</title>
<path fill="none" stroke="#9a32cd" stroke-dasharray="5,2" d="M66.29,-519.16C167.52,-519.82 560.8,-522.38 641.49,-522.91"/>
<polygon fill="#9a32cd" stroke="#9a32cd" points="66.2,-515.65 56.17,-519.09 66.15,-522.65 66.2,-515.65"/>
<text text-anchor="middle" x="434" y="-524" font-family="Helvetica,sans-Serif" font-size="10.00"> UNDEF</text>
</g>
<!-- Node6 -->
<g id="node6" class="node">
<title>Node6</title>
<g id="a_node6"><a xlink:href="classast_1_1_ast_node_base.html" target="_top" xlink:title=" ">
<polygon fill="white" stroke="black" points="271.5,-251.5 271.5,-270.5 348.5,-270.5 348.5,-251.5 271.5,-251.5"/>
<text text-anchor="middle" x="310" y="-258.5" font-family="Helvetica,sans-Serif" font-size="10.00">AstNodeBase</text>
</a>
</g>
</g>
<!-- Node3&#45;&gt;Node6 -->
<g id="edge9" class="edge">
<title>Node3&#45;&gt;Node6</title>
<path fill="none" stroke="#9a32cd" stroke-dasharray="5,2" d="M55.89,-501.29C66.68,-488.24 82.98,-471.08 101,-461 150.1,-433.52 186.41,-472.87 224,-431 264.73,-385.63 206.75,-344.75 242,-295 250.07,-283.61 263.1,-275.8 275.53,-270.57"/>
<polygon fill="#9a32cd" stroke="#9a32cd" points="53.12,-499.14 49.63,-509.15 58.6,-503.5 53.12,-499.14"/>
<text text-anchor="middle" x="162.5" y="-497" font-family="Helvetica,sans-Serif" font-size="10.00"> BITMASK_PRINT_WIDTH</text>
<text text-anchor="middle" x="162.5" y="-486" font-family="Helvetica,sans-Serif" font-size="10.00">UNDEF</text>
<text text-anchor="middle" x="162.5" y="-475" font-family="Helvetica,sans-Serif" font-size="10.00">id_</text>
<text text-anchor="middle" x="162.5" y="-464" font-family="Helvetica,sans-Serif" font-size="10.00">numInstances</text>
</g>
<!-- Node4&#45;&gt;Node1 -->
<g id="edge3" class="edge">
<title>Node4&#45;&gt;Node1</title>
<path fill="none" stroke="#9a32cd" stroke-dasharray="5,2" d="M682.86,-523.99C710.44,-525.58 756.07,-529.65 794,-540 799.94,-541.62 806.17,-544.02 811.79,-546.47"/>
<polygon fill="#9a32cd" stroke="#9a32cd" points="682.72,-520.48 672.55,-523.47 682.36,-527.47 682.72,-520.48"/>
<text text-anchor="middle" x="772" y="-543" font-family="Helvetica,sans-Serif" font-size="10.00"> var</text>
</g>
<!-- Node5 -->
<g id="node5" class="node">
<title>Node5</title>
<g id="a_node5"><a xlink:href="classast_1_1_ast_node.html" target="_top" xlink:title="タグなしの順アクセスの子供をもてる抽象構文木のノードのクラス。">
<polygon fill="white" stroke="black" points="490,-175.5 490,-194.5 545,-194.5 545,-175.5 490,-175.5"/>
<text text-anchor="middle" x="517.5" y="-182.5" font-family="Helvetica,sans-Serif" font-size="10.00">AstNode</text>
</a>
</g>
</g>
<!-- Node5&#45;&gt;Node4 -->
<g id="edge4" class="edge">
<title>Node5&#45;&gt;Node4</title>
<path fill="none" stroke="midnightblue" d="M519.73,-204.66C524.04,-267.23 540.52,-460.18 582,-504 597.32,-520.18 624.4,-523.31 641.21,-523.54"/>
<polygon fill="midnightblue" stroke="midnightblue" points="523.22,-204.31 519.06,-194.56 516.23,-204.77 523.22,-204.31"/>
</g>
<!-- Node6&#45;&gt;Node5 -->
<g id="edge5" class="edge">
<title>Node6&#45;&gt;Node5</title>
<path fill="none" stroke="midnightblue" d="M358.54,-254.26C391.59,-248.3 436.01,-237.74 472,-220 485.22,-213.48 498.23,-202.59 506.73,-194.68"/>
<polygon fill="midnightblue" stroke="midnightblue" points="357.92,-250.81 348.66,-255.96 359.11,-257.71 357.92,-250.81"/>
</g>
<!-- Node7 -->
<g id="node7" class="node">
<title>Node7</title>
<g id="a_node7"><a xlink:title=" ">
<polygon fill="white" stroke="#bfbfbf" points="20.5,-371.5 20.5,-390.5 62.5,-390.5 62.5,-371.5 20.5,-371.5"/>
<text text-anchor="middle" x="41.5" y="-378.5" font-family="Helvetica,sans-Serif" font-size="10.00">String</text>
</a>
</g>
</g>
<!-- Node7&#45;&gt;Node6 -->
<g id="edge6" class="edge">
<title>Node7&#45;&gt;Node6</title>
<path fill="none" stroke="#9a32cd" stroke-dasharray="5,2" d="M70.85,-367.24C80.27,-363.12 90.92,-358.93 101,-356 154.19,-340.56 180.22,-369.92 224,-336 239.73,-323.81 228.33,-309.46 242,-295 252.4,-284.01 267.13,-275.99 280.13,-270.52"/>
<polygon fill="#9a32cd" stroke="#9a32cd" points="69.23,-364.14 61.57,-371.46 72.12,-370.51 69.23,-364.14"/>
<text text-anchor="middle" x="162.5" y="-370" font-family="Helvetica,sans-Serif" font-size="10.00"> MOD_AST</text>
<text text-anchor="middle" x="162.5" y="-359" font-family="Helvetica,sans-Serif" font-size="10.00">mod_</text>
</g>
<!-- Node19 -->
<g id="node19" class="node">
<title>Node19</title>
<g id="a_node19"><a xlink:href="classformat_1_1_style.html" target="_top" xlink:title="ノードの表示スタイルに関するプロパティのクラス.">
<polygon fill="white" stroke="black" points="290.5,-304.5 290.5,-323.5 329.5,-323.5 329.5,-304.5 290.5,-304.5"/>
<text text-anchor="middle" x="310" y="-311.5" font-family="Helvetica,sans-Serif" font-size="10.00">Style</text>
</a>
</g>
</g>
<!-- Node7&#45;&gt;Node19 -->
<g id="edge21" class="edge">
<title>Node7&#45;&gt;Node19</title>
<path fill="none" stroke="#9a32cd" stroke-dasharray="5,2" d="M72.65,-387.19C109.51,-393.42 173.26,-399.8 224,-382 257.35,-370.3 287.33,-339.41 301.07,-323.61"/>
<polygon fill="#9a32cd" stroke="#9a32cd" points="73.02,-383.7 62.56,-385.38 71.78,-390.59 73.02,-383.7"/>
<text text-anchor="middle" x="162.5" y="-419" font-family="Helvetica,sans-Serif" font-size="10.00"> operSTR</text>
<text text-anchor="middle" x="162.5" y="-408" font-family="Helvetica,sans-Serif" font-size="10.00">parenLPAR</text>
<text text-anchor="middle" x="162.5" y="-397" font-family="Helvetica,sans-Serif" font-size="10.00">parenRPAR</text>
</g>
<!-- Node8 -->
<g id="node8" class="node">
<title>Node8</title>
<g id="a_node8"><a xlink:title=" ">
<polygon fill="white" stroke="#bfbfbf" points="0,-240.5 0,-259.5 83,-259.5 83,-240.5 0,-240.5"/>
<text text-anchor="middle" x="41.5" y="-247.5" font-family="Helvetica,sans-Serif" font-size="10.00">static ReportKt</text>
</a>
</g>
</g>
<!-- Node8&#45;&gt;Node6 -->
<g id="edge7" class="edge">
<title>Node8&#45;&gt;Node6</title>
<path fill="none" stroke="#9a32cd" stroke-dasharray="5,2" d="M93.25,-247.24C95.87,-247.15 98.46,-247.06 101,-247 155.65,-245.6 169.52,-242.54 224,-247 239.5,-248.27 256.44,-250.82 271.08,-253.4"/>
<polygon fill="#9a32cd" stroke="#9a32cd" points="92.94,-243.75 83.09,-247.65 93.22,-250.74 92.94,-243.75"/>
<text text-anchor="middle" x="162.5" y="-250" font-family="Helvetica,sans-Serif" font-size="10.00"> repo</text>
</g>
<!-- Node9 -->
<g id="node9" class="node">
<title>Node9</title>
<g id="a_node9"><a xlink:title=" ">
<polygon fill="white" stroke="#bfbfbf" points="9,-202.5 9,-221.5 74,-221.5 74,-202.5 9,-202.5"/>
<text text-anchor="middle" x="41.5" y="-209.5" font-family="Helvetica,sans-Serif" font-size="10.00">TraceLevel</text>
</a>
</g>
</g>
<!-- Node9&#45;&gt;Node6 -->
<g id="edge8" class="edge">
<title>Node9&#45;&gt;Node6</title>
<path fill="none" stroke="#9a32cd" stroke-dasharray="5,2" d="M84.1,-210.48C121.72,-210.4 178.08,-213.58 224,-230 233.05,-233.24 233.27,-237.97 242,-242 251.22,-246.25 261.61,-249.76 271.4,-252.56"/>
<polygon fill="#9a32cd" stroke="#9a32cd" points="83.97,-206.98 74.01,-210.57 84.04,-213.98 83.97,-206.98"/>
<text text-anchor="middle" x="162.5" y="-233" font-family="Helvetica,sans-Serif" font-size="10.00"> LOG</text>
</g>
<!-- Node10 -->
<g id="node10" class="node">
<title>Node10</title>
<g id="a_node10"><a xlink:href="interfacetype_1_1_typable.html" target="_top" xlink:title="抽象ノードがもつ関数型のインタフェース">
<polygon fill="white" stroke="black" points="16.5,-164.5 16.5,-183.5 66.5,-183.5 66.5,-164.5 16.5,-164.5"/>
<text text-anchor="middle" x="41.5" y="-171.5" font-family="Helvetica,sans-Serif" font-size="10.00">Typable</text>
</a>
</g>
</g>
<!-- Node10&#45;&gt;Node6 -->
<g id="edge10" class="edge">
<title>Node10&#45;&gt;Node6</title>
<path fill="none" stroke="#9a32cd" stroke-dasharray="5,2" d="M76.51,-168.5C116.15,-164.08 181.62,-163.16 224,-196 241.35,-209.45 225.74,-227.24 242,-242 250.06,-249.31 260.73,-253.83 271.18,-256.62"/>
<polygon fill="#9a32cd" stroke="#9a32cd" points="76.03,-165.04 66.54,-169.75 76.9,-171.98 76.03,-165.04"/>
<text text-anchor="middle" x="162.5" y="-199" font-family="Helvetica,sans-Serif" font-size="10.00"> typing</text>
</g>
<!-- Node11 -->
<g id="node11" class="node">
<title>Node11</title>
<g id="a_node11"><a xlink:title=" ">
<polygon fill="white" stroke="#bfbfbf" points="16.5,-291.5 16.5,-310.5 66.5,-310.5 66.5,-291.5 16.5,-291.5"/>
<text text-anchor="middle" x="41.5" y="-298.5" font-family="Helvetica,sans-Serif" font-size="10.00">boolean</text>
</a>
</g>
</g>
<!-- Node11&#45;&gt;Node6 -->
<g id="edge11" class="edge">
<title>Node11&#45;&gt;Node6</title>
<path fill="none" stroke="#9a32cd" stroke-dasharray="5,2" d="M76.73,-294.28C84.69,-292.8 93.13,-291.29 101,-290 160.37,-280.29 229.62,-271.05 271.34,-265.71"/>
<polygon fill="#9a32cd" stroke="#9a32cd" points="75.82,-290.89 66.65,-296.19 77.12,-297.77 75.82,-290.89"/>
<text text-anchor="middle" x="162.5" y="-293" font-family="Helvetica,sans-Serif" font-size="10.00"> DEBUG_REPO</text>
</g>
<!-- Node11&#45;&gt;Node19 -->
<g id="edge22" class="edge">
<title>Node11&#45;&gt;Node19</title>
<path fill="none" stroke="#9a32cd" stroke-dasharray="5,2" d="M76.91,-302.68C133.87,-305.46 245.84,-310.92 290.23,-313.08"/>
<polygon fill="#9a32cd" stroke="#9a32cd" points="76.78,-299.17 66.62,-302.18 76.44,-306.16 76.78,-299.17"/>
<text text-anchor="middle" x="162.5" y="-324" font-family="Helvetica,sans-Serif" font-size="10.00"> preoperSupress</text>
<text text-anchor="middle" x="162.5" y="-313" font-family="Helvetica,sans-Serif" font-size="10.00">toInline</text>
</g>
<!-- Node12 -->
<g id="node12" class="node">
<title>Node12</title>
<g id="a_node12"><a xlink:href="interfaceast_1_1_node.html" target="_top" xlink:title=" ">
<polygon fill="white" stroke="black" points="290,-213.5 290,-232.5 330,-232.5 330,-213.5 290,-213.5"/>
<text text-anchor="middle" x="310" y="-220.5" font-family="Helvetica,sans-Serif" font-size="10.00">Node</text>
</a>
</g>
</g>
<!-- Node12&#45;&gt;Node5 -->
<g id="edge12" class="edge">
<title>Node12&#45;&gt;Node5</title>
<path fill="none" stroke="midnightblue" d="M340.16,-220.05C372.61,-216.44 426.47,-209.49 472,-199 477.84,-197.65 484.02,-195.92 489.86,-194.13"/>
<polygon fill="midnightblue" stroke="midnightblue" points="339.58,-216.59 330.02,-221.14 340.34,-223.55 339.58,-216.59"/>
</g>
<!-- Node13 -->
<g id="node13" class="node">
<title>Node13</title>
<g id="a_node13"><a xlink:href="interfaceformat_1_1_x_formattable.html" target="_top" xlink:title="入れ子フォーマット出力可能なオブジェクトのインタフェース。">
<polygon fill="white" stroke="black" points="4,-118.5 4,-137.5 79,-137.5 79,-118.5 4,-118.5"/>
<text text-anchor="middle" x="41.5" y="-125.5" font-family="Helvetica,sans-Serif" font-size="10.00">XFormattable</text>
</a>
</g>
</g>
<!-- Node13&#45;&gt;Node12 -->
<g id="edge13" class="edge">
<title>Node13&#45;&gt;Node12</title>
<path fill="none" stroke="midnightblue" d="M89.53,-132.11C136.21,-137.05 203.66,-146.76 224,-163 239.55,-175.42 227,-190.93 242,-204 255.31,-215.6 275.23,-220.15 289.89,-221.91"/>
<polygon fill="midnightblue" stroke="midnightblue" points="89.62,-128.6 79.32,-131.07 88.92,-135.57 89.62,-128.6"/>
</g>
<!-- Node14 -->
<g id="node14" class="node">
<title>Node14</title>
<g id="a_node14"><a xlink:href="interfaceformat_1_1_x_formattable_1_1_navigatable.html" target="_top" xlink:title="木構造の分岐ノードとして清書可能なオブジェクトのクラス">
<polygon fill="white" stroke="black" points="245,-175.5 245,-194.5 375,-194.5 375,-175.5 245,-175.5"/>
<text text-anchor="middle" x="310" y="-182.5" font-family="Helvetica,sans-Serif" font-size="10.00">XFormattable.Navigatable</text>
</a>
</g>
</g>
<!-- Node13&#45;&gt;Node14 -->
<g id="edge15" class="edge">
<title>Node13&#45;&gt;Node14</title>
<path fill="none" stroke="midnightblue" d="M89.14,-117.76C128.01,-111.84 183.39,-109.72 224,-134 237.67,-142.18 229.49,-155.14 242,-165 247.53,-169.36 253.99,-172.77 260.68,-175.44"/>
<polygon fill="midnightblue" stroke="midnightblue" points="88.43,-114.33 79.14,-119.42 89.57,-121.24 88.43,-114.33"/>
</g>
<!-- Node14&#45;&gt;Node5 -->
<g id="edge14" class="edge">
<title>Node14&#45;&gt;Node5</title>
<path fill="none" stroke="midnightblue" d="M385.31,-185C421.77,-185 463.42,-185 489.83,-185"/>
<polygon fill="midnightblue" stroke="midnightblue" points="385.18,-181.5 375.18,-185 385.18,-188.5 385.18,-181.5"/>
</g>
<!-- Node15 -->
<g id="node15" class="node">
<title>Node15</title>
<g id="a_node15"><a xlink:title=" ">
<polygon fill="white" stroke="#bfbfbf" points="246,-126 246,-156 374,-156 374,-126 246,-126"/>
<text text-anchor="start" x="254" y="-144" font-family="Helvetica,sans-Serif" font-size="10.00">java.util.function.Function</text>
<text text-anchor="middle" x="310" y="-133" font-family="Helvetica,sans-Serif" font-size="10.00">&lt; ast.Node, String &gt;</text>
</a>
</g>
</g>
<!-- Node15&#45;&gt;Node5 -->
<g id="edge16" class="edge">
<title>Node15&#45;&gt;Node5</title>
<path fill="none" stroke="#9a32cd" stroke-dasharray="5,2" d="M384.17,-151.85C411.88,-156.56 443.58,-162.69 472,-170 478,-171.54 484.36,-173.49 490.34,-175.47"/>
<polygon fill="#9a32cd" stroke="#9a32cd" points="384.6,-148.37 374.16,-150.17 383.45,-155.27 384.6,-148.37"/>
<text text-anchor="middle" x="434" y="-173" font-family="Helvetica,sans-Serif" font-size="10.00"> printerFunc</text>
</g>
<!-- Node16 -->
<g id="node16" class="node">
<title>Node16</title>
<g id="a_node16"><a xlink:title=" ">
<polygon fill="white" stroke="#bfbfbf" points="242,-77 242,-107 378,-107 378,-77 242,-77"/>
<text text-anchor="start" x="250" y="-95" font-family="Helvetica,sans-Serif" font-size="10.00">java.util.function.Consumer</text>
<text text-anchor="middle" x="310" y="-84" font-family="Helvetica,sans-Serif" font-size="10.00">&lt; ast.Node &gt;</text>
</a>
</g>
</g>
<!-- Node16&#45;&gt;Node5 -->
<g id="edge17" class="edge">
<title>Node16&#45;&gt;Node5</title>
<path fill="none" stroke="#9a32cd" stroke-dasharray="5,2" d="M388.38,-106.7C416.03,-114.06 446.61,-124.77 472,-140 487.45,-149.27 501.37,-165.13 509.38,-175.33"/>
<polygon fill="#9a32cd" stroke="#9a32cd" points="388.89,-103.22 378.34,-104.13 387.16,-110 388.89,-103.22"/>
<text text-anchor="middle" x="434" y="-143" font-family="Helvetica,sans-Serif" font-size="10.00"> typerFunc</text>
</g>
<!-- Node17 -->
<g id="node17" class="node">
<title>Node17</title>
<g id="a_node17"><a xlink:title=" ">
<polygon fill="white" stroke="#bfbfbf" points="265,-38.5 265,-57.5 355,-57.5 355,-38.5 265,-38.5"/>
<text text-anchor="middle" x="310" y="-45.5" font-family="Helvetica,sans-Serif" font-size="10.00">List&lt; ast.Node &gt;</text>
</a>
</g>
</g>
<!-- Node17&#45;&gt;Node5 -->
<g id="edge18" class="edge">
<title>Node17&#45;&gt;Node5</title>
<path fill="none" stroke="#9a32cd" stroke-dasharray="5,2" d="M365.41,-52.32C399.36,-57.52 442.12,-68.95 472,-94 498.14,-115.92 510.22,-156.88 514.53,-175.43"/>
<polygon fill="#9a32cd" stroke="#9a32cd" points="365.57,-48.8 355.18,-50.89 364.61,-55.74 365.57,-48.8"/>
<text text-anchor="middle" x="434" y="-97" font-family="Helvetica,sans-Serif" font-size="10.00"> children_</text>
</g>
<!-- Node18 -->
<g id="node18" class="node">
<title>Node18</title>
<g id="a_node18"><a xlink:title=" ">
<polygon fill="white" stroke="#bfbfbf" points="284,-0.5 284,-19.5 336,-19.5 336,-0.5 284,-0.5"/>
<text text-anchor="middle" x="310" y="-7.5" font-family="Helvetica,sans-Serif" font-size="10.00">Boolean</text>
</a>
</g>
</g>
<!-- Node18&#45;&gt;Node5 -->
<g id="edge19" class="edge">
<title>Node18&#45;&gt;Node5</title>
<path fill="none" stroke="#9a32cd" stroke-dasharray="5,2" d="M346.32,-8.07C382.36,-8.07 437.73,-13.8 472,-45 511.04,-80.54 516.04,-150.14 516.52,-175.48"/>
<polygon fill="#9a32cd" stroke="#9a32cd" points="346.19,-4.57 336.25,-8.22 346.3,-11.57 346.19,-4.57"/>
<text text-anchor="middle" x="434" y="-48" font-family="Helvetica,sans-Serif" font-size="10.00"> DEBUG_CHILD</text>
</g>
<!-- Node19&#45;&gt;Node5 -->
<g id="edge20" class="edge">
<title>Node19&#45;&gt;Node5</title>
<path fill="none" stroke="#9a32cd" stroke-dasharray="5,2" d="M339.43,-307.3C373.67,-298.14 431.61,-279.08 472,-247 490.47,-232.33 504.77,-208.09 511.77,-194.67"/>
<polygon fill="#9a32cd" stroke="#9a32cd" points="338.42,-303.94 329.61,-309.82 340.17,-310.72 338.42,-303.94"/>
<text text-anchor="middle" x="434" y="-292" font-family="Helvetica,sans-Serif" font-size="10.00"> sty</text>
</g>
<!-- Node20 -->
<g id="node20" class="node">
<title>Node20</title>
<g id="a_node20"><a xlink:title=" ">
<polygon fill="white" stroke="#bfbfbf" points="582,-475.5 582,-494.5 732,-494.5 732,-475.5 582,-475.5"/>
<text text-anchor="middle" x="657" y="-482.5" font-family="Helvetica,sans-Serif" font-size="10.00">static Resetter&lt; frame.Entry &gt;</text>
</a>
</g>
</g>
<!-- Node20&#45;&gt;Node1 -->
<g id="edge24" class="edge">
<title>Node20&#45;&gt;Node1</title>
<path fill="none" stroke="#9a32cd" stroke-dasharray="5,2" d="M742.17,-495.93C760.05,-500.47 778.26,-506.9 794,-516 806.94,-523.48 818,-536.96 824.57,-546.19"/>
<polygon fill="#9a32cd" stroke="#9a32cd" points="742.83,-492.49 732.3,-493.59 741.22,-499.3 742.83,-492.49"/>
<text text-anchor="middle" x="772" y="-519" font-family="Helvetica,sans-Serif" font-size="10.00"> resetter</text>
</g>
</g>
</svg>
        <g id="navigator" transform="translate(0 0)" fill="#404254">
                <rect fill="#f2f5e9" fill-opacity="0.5" stroke="#606060" stroke-width=".5" x="0" y="0" width="60" height="60"/>
                <use id="zoomplus" xlink:href="#zoomPlus" x="17" y="9" onmousedown="handleZoom(evt,'in')"/>
                <use id="zoomminus" xlink:href="#zoomMin" x="42" y="9" onmousedown="handleZoom(evt,'out')"/>
                <use id="reset" xlink:href="#resetDef" x="30" y="36" onmousedown="handleReset()"/>
                <g id="arrowUp" xlink:href="#dirArrow" transform="translate(30 24)" onmousedown="handlePan(0,-1)">
                  <use xlink:href="#rim" fill="#404040">
                        <set attributeName="fill" to="#808080" begin="arrowUp.mouseover" end="arrowUp.mouseout"/>
                  </use>
                  <path fill="none" stroke="white" stroke-width="1.5" d="M0,-3.0v7 M-2.5,-0.5L0,-3.0L2.5,-0.5"/>
                </g>
                <g id="arrowRight" xlink:href="#dirArrow" transform="rotate(90) translate(36 -43)" onmousedown="handlePan(1,0)">
                  <use xlink:href="#rim" fill="#404040">
                        <set attributeName="fill" to="#808080" begin="arrowRight.mouseover" end="arrowRight.mouseout"/>
                  </use>
                  <path fill="none" stroke="white" stroke-width="1.5" d="M0,-3.0v7 M-2.5,-0.5L0,-3.0L2.5,-0.5"/>
                </g>
                <g id="arrowDown" xlink:href="#dirArrow" transform="rotate(180) translate(-30 -48)" onmousedown="handlePan(0,1)">
                  <use xlink:href="#rim" fill="#404040">
                        <set attributeName="fill" to="#808080" begin="arrowDown.mouseover" end="arrowDown.mouseout"/>
                  </use>
                  <path fill="none" stroke="white" stroke-width="1.5" d="M0,-3.0v7 M-2.5,-0.5L0,-3.0L2.5,-0.5"/>
                </g>
                <g id="arrowLeft" xlink:href="#dirArrow" transform="rotate(270) translate(-36 17)" onmousedown="handlePan(-1,0)">
                  <use xlink:href="#rim" fill="#404040">
                        <set attributeName="fill" to="#808080" begin="arrowLeft.mouseover" end="arrowLeft.mouseout"/>
                  </use>
                  <path fill="none" stroke="white" stroke-width="1.5" d="M0,-3.0v7 M-2.5,-0.5L0,-3.0L2.5,-0.5"/>
                </g>
        </g>
        <svg viewBox="0 0 15 15" width="100%" height="30px" preserveAspectRatio="xMaxYMin meet">
         <g id="arrow_out" transform="scale(0.3 0.3)">
          <a xlink:href="classframe_1_1_entry__coll__graph_org.svg" target="_base">
           <rect id="button" ry="5" rx="5" y="6" x="6" height="38" width="38"
                fill="#f2f5e9" fill-opacity="0.5" stroke="#606060" stroke-width="1.0"/>
           <path id="arrow"
             d="M 11.500037,31.436501 C 11.940474,20.09759 22.043105,11.32322 32.158766,21.979434 L 37.068811,17.246167 C 37.068811,17.246167 37.088388,32 37.088388,32 L 22.160133,31.978069 C 22.160133,31.978069 26.997745,27.140456 26.997745,27.140456 C 18.528582,18.264221 13.291696,25.230495 11.500037,31.436501 z"
             style="fill:#404040;"/>
          </a>
         </g>
        </svg>
</svg>
