<?xml version="1.0" encoding="UTF-8" standalone="no"?>
<!DOCTYPE svg PUBLIC "-//W3C//DTD SVG 1.1//EN"
 "http://www.w3.org/Graphics/SVG/1.1/DTD/svg11.dtd">
<!-- Generated by graphviz version 2.47.0 (20210316.0004)
 -->
<!-- Title: register Pages: 1 -->
<svg width="702pt" height="28pt"
 viewBox="0.00 0.00 702.00 28.00" xmlns="http://www.w3.org/2000/svg" xmlns:xlink="http://www.w3.org/1999/xlink">
<g id="graph0" class="graph" transform="scale(1 1) rotate(0) translate(4 24)">
<title>register</title>
<polygon fill="white" stroke="transparent" points="-4,4 -4,-24 698,-24 698,4 -4,4"/>
<!-- Node1 -->
<g id="node1" class="node">
<title>Node1</title>
<g id="a_node1"><a xlink:title="型と名前から，変数の参照オブジェクトを取得し，登録する．">
<polygon fill="#bfbfbf" stroke="black" points="645,-0.5 645,-19.5 694,-19.5 694,-0.5 645,-0.5"/>
<text text-anchor="middle" x="669.5" y="-7.5" font-family="Helvetica,sans-Serif" font-size="10.00">register</text>
</a>
</g>
</g>
<!-- Node2 -->
<g id="node2" class="node">
<title>Node2</title>
<g id="a_node2"><a xlink:href="classcompile_1_1_x_c_push.html#a023b650dca158bd7f315a864324875ff" target="_top" xlink:title="文脈ステップparStepのもとで与えられたクエリを変換したクエリを返す．">
<polygon fill="white" stroke="black" points="480,-0.5 480,-19.5 609,-19.5 609,-0.5 480,-0.5"/>
<text text-anchor="middle" x="544.5" y="-7.5" font-family="Helvetica,sans-Serif" font-size="10.00">compile.XCPush.recPush</text>
</a>
</g>
</g>
<!-- Node1&#45;&gt;Node2 -->
<g id="edge1" class="edge">
<title>Node1&#45;&gt;Node2</title>
<path fill="none" stroke="midnightblue" d="M634.76,-10C626.73,-10 617.91,-10 609.03,-10"/>
<polygon fill="midnightblue" stroke="midnightblue" points="634.78,-13.5 644.78,-10 634.78,-6.5 634.78,-13.5"/>
</g>
<!-- Node3 -->
<g id="node3" class="node">
<title>Node3</title>
<g id="a_node3"><a xlink:href="classcompile_1_1_x_c_push.html#a7a8fbc2be97dd1cb7a0b02131e362d9c" target="_top" xlink:title="クエリのコード生成を行う．">
<polygon fill="white" stroke="black" points="317,-0.5 317,-19.5 444,-19.5 444,-0.5 317,-0.5"/>
<text text-anchor="middle" x="380.5" y="-7.5" font-family="Helvetica,sans-Serif" font-size="10.00">compile.XCPush.pushing</text>
</a>
</g>
</g>
<!-- Node2&#45;&gt;Node3 -->
<g id="edge2" class="edge">
<title>Node2&#45;&gt;Node3</title>
<path fill="none" stroke="midnightblue" d="M469.89,-10C461.27,-10 452.53,-10 444.08,-10"/>
<polygon fill="midnightblue" stroke="midnightblue" points="469.94,-13.5 479.94,-10 469.94,-6.5 469.94,-13.5"/>
</g>
<!-- Node4 -->
<g id="node4" class="node">
<title>Node4</title>
<g id="a_node4"><a xlink:href="classcompile_1_1_x_compiler.html#a9a5b5de067fc28642be5e1f787527c21" target="_top" xlink:title="入力ストリーム{is}から与えられたクエリをプログラムにコンパイルする.">
<polygon fill="white" stroke="black" points="146,-0.5 146,-19.5 281,-19.5 281,-0.5 146,-0.5"/>
<text text-anchor="middle" x="213.5" y="-7.5" font-family="Helvetica,sans-Serif" font-size="10.00">compile.XCompiler.compile</text>
</a>
</g>
</g>
<!-- Node3&#45;&gt;Node4 -->
<g id="edge3" class="edge">
<title>Node3&#45;&gt;Node4</title>
<path fill="none" stroke="midnightblue" d="M306.43,-10C297.97,-10 289.38,-10 281.02,-10"/>
<polygon fill="midnightblue" stroke="midnightblue" points="306.65,-13.5 316.65,-10 306.65,-6.5 306.65,-13.5"/>
</g>
<!-- Node5 -->
<g id="node5" class="node">
<title>Node5</title>
<g id="a_node5"><a xlink:href="classcompile_1_1_x_c_test.html#a8b260eecbaabcef8473fd87ada040682" target="_top" xlink:title="テスト用のサンプルプログラム。">
<polygon fill="white" stroke="black" points="0,-0.5 0,-19.5 110,-19.5 110,-0.5 0,-0.5"/>
<text text-anchor="middle" x="55" y="-7.5" font-family="Helvetica,sans-Serif" font-size="10.00">compile.XCTest.main</text>
</a>
</g>
</g>
<!-- Node4&#45;&gt;Node5 -->
<g id="edge4" class="edge">
<title>Node4&#45;&gt;Node5</title>
<path fill="none" stroke="midnightblue" d="M135.66,-10C127.1,-10 118.52,-10 110.33,-10"/>
<polygon fill="midnightblue" stroke="midnightblue" points="135.68,-13.5 145.68,-10 135.68,-6.5 135.68,-13.5"/>
</g>
</g>
</svg>
