<?xml version="1.0" encoding="UTF-8" standalone="no"?>
<!DOCTYPE svg PUBLIC "-//W3C//DTD SVG 1.1//EN"
 "http://www.w3.org/Graphics/SVG/1.1/DTD/svg11.dtd">
<!-- Generated by graphviz version 2.38.0 (20140413.2041)
 -->
<!-- Title: queryParser.ArithRelExpContext Pages: 1 -->
<svg width="316pt" height="148pt"
 viewBox="0.00 0.00 315.68 148.00" xmlns="http://www.w3.org/2000/svg" xmlns:xlink="http://www.w3.org/1999/xlink">
<g id="graph0" class="graph" transform="scale(1 1) rotate(0) translate(4 144)">
<title>queryParser.ArithRelExpContext</title>
<polygon fill="white" stroke="none" points="-4,4 -4,-144 311.679,-144 311.679,4 -4,4"/>
<!-- Node1 -->
<g id="node1" class="node"><title>Node1</title>
<g id="a_node1"><a xlink:title=" ">
<polygon fill="#bfbfbf" stroke="black" points="41.335,-0.5 41.335,-18.5 201.295,-18.5 201.295,-0.5 41.335,-0.5"/>
<text text-anchor="middle" x="121.315" y="-6.5" font-family="Helvetica,sans-Serif" font-size="10.00">queryParser.ArithRelExpContext</text>
</a>
</g>
</g>
<!-- Node2 -->
<g id="node2" class="node"><title>Node2</title>
<g id="a_node2"><a xlink:href="classparse_1_1query_parser_1_1_boolexpr_context.html" target="_top" xlink:title=" ">
<polygon fill="white" stroke="black" points="0,-65.5 0,-83.5 146.63,-83.5 146.63,-65.5 0,-65.5"/>
<text text-anchor="middle" x="73.3149" y="-71.5" font-family="Helvetica,sans-Serif" font-size="10.00">queryParser.BoolexprContext</text>
</a>
</g>
</g>
<!-- Node2&#45;&gt;Node1 -->
<g id="edge1" class="edge"><title>Node2&#45;&gt;Node1</title>
<path fill="none" stroke="midnightblue" d="M85.7994,-57.1142C95.2476,-44.7134 107.817,-28.2167 115.19,-18.539"/>
<polygon fill="midnightblue" stroke="midnightblue" points="82.8666,-55.1883 79.5901,-65.2639 88.4346,-59.4307 82.8666,-55.1883"/>
</g>
<!-- Node3 -->
<g id="node3" class="node"><title>Node3</title>
<g id="a_node3"><a xlink:title=" ">
<polygon fill="white" stroke="#bfbfbf" points="121.074,-121.5 121.074,-139.5 221.556,-139.5 221.556,-121.5 121.074,-121.5"/>
<text text-anchor="middle" x="171.315" y="-127.5" font-family="Helvetica,sans-Serif" font-size="10.00">ParserRuleContext</text>
</a>
</g>
</g>
<!-- Node3&#45;&gt;Node2 -->
<g id="edge2" class="edge"><title>Node3&#45;&gt;Node2</title>
<path fill="none" stroke="midnightblue" d="M147.667,-116.469C129.086,-106.231 103.795,-92.2949 88.018,-83.6017"/>
<polygon fill="midnightblue" stroke="midnightblue" points="145.983,-119.538 156.431,-121.299 149.362,-113.407 145.983,-119.538"/>
</g>
<!-- Node4 -->
<g id="node4" class="node"><title>Node4</title>
<g id="a_node4"><a xlink:href="classparse_1_1query_parser_1_1_arith_rel_context.html" target="_top" xlink:title=" ">
<polygon fill="white" stroke="black" points="164.951,-65.5 164.951,-83.5 307.679,-83.5 307.679,-65.5 164.951,-65.5"/>
<text text-anchor="middle" x="236.315" y="-71.5" font-family="Helvetica,sans-Serif" font-size="10.00">queryParser.ArithRelContext</text>
</a>
</g>
</g>
<!-- Node3&#45;&gt;Node4 -->
<g id="edge4" class="edge"><title>Node3&#45;&gt;Node4</title>
<path fill="none" stroke="midnightblue" d="M189.189,-114.651C201.163,-104.703 216.485,-91.9744 226.35,-83.7786"/>
<polygon fill="midnightblue" stroke="midnightblue" points="186.642,-112.216 181.187,-121.299 191.116,-117.601 186.642,-112.216"/>
</g>
<!-- Node4&#45;&gt;Node1 -->
<g id="edge3" class="edge"><title>Node4&#45;&gt;Node1</title>
<path fill="none" stroke="#9a32cd" stroke-dasharray="5,2" d="M212.461,-60.4323C189.429,-47.8145 155.284,-29.1093 135.989,-18.539"/>
<polygon fill="#9a32cd" stroke="#9a32cd" points="210.829,-63.5288 221.281,-65.2639 214.192,-57.3897 210.829,-63.5288"/>
<text text-anchor="middle" x="192.266" y="-39" font-family="Helvetica,sans-Serif" font-size="10.00"> a0</text>
</g>
</g>
</svg>
