<?xml version="1.0" encoding="UTF-8" standalone="no"?>
<!DOCTYPE svg PUBLIC "-//W3C//DTD SVG 1.1//EN"
 "http://www.w3.org/Graphics/SVG/1.1/DTD/svg11.dtd">
<!-- Generated by graphviz version 2.47.0 (20210316.0004)
 -->
<!-- Title: AstSource.AstInFileOpen Pages: 1 -->
<svg width="408pt" height="252pt"
 viewBox="0.00 0.00 407.50 252.00" xmlns="http://www.w3.org/2000/svg" xmlns:xlink="http://www.w3.org/1999/xlink">
<g id="graph0" class="graph" transform="scale(1 1) rotate(0) translate(4 248)">
<title>AstSource.AstInFileOpen</title>
<polygon fill="white" stroke="transparent" points="-4,4 -4,-248 403.5,-248 403.5,4 -4,4"/>
<!-- Node1 -->
<g id="node1" class="node">
<title>Node1</title>
<g id="a_node1"><a xlink:title="入力ストリームを表すノードのクラス">
<polygon fill="#bfbfbf" stroke="black" points="136.5,-0.5 136.5,-19.5 264.5,-19.5 264.5,-0.5 136.5,-0.5"/>
<text text-anchor="middle" x="200.5" y="-7.5" font-family="Helvetica,sans-Serif" font-size="10.00">AstSource.AstInFileOpen</text>
</a>
</g>
</g>
<!-- Node2 -->
<g id="node2" class="node">
<title>Node2</title>
<g id="a_node2"><a xlink:href="classast_1_1_ast_source.html" target="_top" xlink:title="入力ストリームを表すノードのクラス">
<polygon fill="white" stroke="black" points="169.5,-56.5 169.5,-75.5 231.5,-75.5 231.5,-56.5 169.5,-56.5"/>
<text text-anchor="middle" x="200.5" y="-63.5" font-family="Helvetica,sans-Serif" font-size="10.00">AstSource</text>
</a>
</g>
</g>
<!-- Node2&#45;&gt;Node1 -->
<g id="edge1" class="edge">
<title>Node2&#45;&gt;Node1</title>
<path fill="none" stroke="midnightblue" d="M200.5,-45.8C200.5,-36.91 200.5,-26.78 200.5,-19.75"/>
<polygon fill="midnightblue" stroke="midnightblue" points="197,-46.08 200.5,-56.08 204,-46.08 197,-46.08"/>
</g>
<!-- Node3 -->
<g id="node3" class="node">
<title>Node3</title>
<g id="a_node3"><a xlink:href="classast_1_1_ast_node.html" target="_top" xlink:title="タグなしの順アクセスの子供をもてる抽象構文木のノードのクラス。">
<polygon fill="white" stroke="black" points="133,-112.5 133,-131.5 188,-131.5 188,-112.5 133,-112.5"/>
<text text-anchor="middle" x="160.5" y="-119.5" font-family="Helvetica,sans-Serif" font-size="10.00">AstNode</text>
</a>
</g>
</g>
<!-- Node3&#45;&gt;Node2 -->
<g id="edge2" class="edge">
<title>Node3&#45;&gt;Node2</title>
<path fill="none" stroke="midnightblue" d="M173.2,-103.86C180.13,-94.5 188.41,-83.33 194.02,-75.75"/>
<polygon fill="midnightblue" stroke="midnightblue" points="170.25,-101.96 167.11,-112.08 175.87,-106.13 170.25,-101.96"/>
</g>
<!-- Node4 -->
<g id="node4" class="node">
<title>Node4</title>
<g id="a_node4"><a xlink:href="classast_1_1_ast_node_base.html" target="_top" xlink:title=" ">
<polygon fill="white" stroke="black" points="0,-168.5 0,-187.5 77,-187.5 77,-168.5 0,-168.5"/>
<text text-anchor="middle" x="38.5" y="-175.5" font-family="Helvetica,sans-Serif" font-size="10.00">AstNodeBase</text>
</a>
</g>
</g>
<!-- Node4&#45;&gt;Node3 -->
<g id="edge3" class="edge">
<title>Node4&#45;&gt;Node3</title>
<path fill="none" stroke="midnightblue" d="M67.04,-164.37C89.89,-154.26 121.31,-140.35 141.26,-131.52"/>
<polygon fill="midnightblue" stroke="midnightblue" points="65.56,-161.2 57.83,-168.44 68.39,-167.6 65.56,-161.2"/>
</g>
<!-- Node5 -->
<g id="node5" class="node">
<title>Node5</title>
<g id="a_node5"><a xlink:href="interfaceformat_1_1_x_formattable_1_1_navigatable.html" target="_top" xlink:title="木構造の分岐ノードとして清書可能なオブジェクトのクラス">
<polygon fill="white" stroke="black" points="95.5,-168.5 95.5,-187.5 225.5,-187.5 225.5,-168.5 95.5,-168.5"/>
<text text-anchor="middle" x="160.5" y="-175.5" font-family="Helvetica,sans-Serif" font-size="10.00">XFormattable.Navigatable</text>
</a>
</g>
</g>
<!-- Node5&#45;&gt;Node3 -->
<g id="edge4" class="edge">
<title>Node5&#45;&gt;Node3</title>
<path fill="none" stroke="midnightblue" d="M160.5,-157.8C160.5,-148.91 160.5,-138.78 160.5,-131.75"/>
<polygon fill="midnightblue" stroke="midnightblue" points="157,-158.08 160.5,-168.08 164,-158.08 157,-158.08"/>
</g>
<!-- Node6 -->
<g id="node6" class="node">
<title>Node6</title>
<g id="a_node6"><a xlink:href="interfaceformat_1_1_x_formattable.html" target="_top" xlink:title="入れ子フォーマット出力可能なオブジェクトのインタフェース。">
<polygon fill="white" stroke="black" points="203,-224.5 203,-243.5 278,-243.5 278,-224.5 203,-224.5"/>
<text text-anchor="middle" x="240.5" y="-231.5" font-family="Helvetica,sans-Serif" font-size="10.00">XFormattable</text>
</a>
</g>
</g>
<!-- Node6&#45;&gt;Node5 -->
<g id="edge5" class="edge">
<title>Node6&#45;&gt;Node5</title>
<path fill="none" stroke="midnightblue" d="M219.2,-218.62C204.58,-208.76 185.67,-195.99 173.32,-187.65"/>
<polygon fill="midnightblue" stroke="midnightblue" points="217.4,-221.63 227.65,-224.32 221.32,-215.83 217.4,-221.63"/>
</g>
<!-- Node7 -->
<g id="node7" class="node">
<title>Node7</title>
<g id="a_node7"><a xlink:href="interfaceformat_1_1_x_formattable_1_1_typed_formattable.html" target="_top" xlink:title="ノードの型情報をもつ書式出力可能なオブジェクトのインタフェース．">
<polygon fill="white" stroke="black" points="243.5,-168.5 243.5,-187.5 399.5,-187.5 399.5,-168.5 243.5,-168.5"/>
<text text-anchor="middle" x="321.5" y="-175.5" font-family="Helvetica,sans-Serif" font-size="10.00">XFormattable.TypedFormattable</text>
</a>
</g>
</g>
<!-- Node6&#45;&gt;Node7 -->
<g id="edge7" class="edge">
<title>Node6&#45;&gt;Node7</title>
<path fill="none" stroke="midnightblue" d="M262.07,-218.62C276.86,-208.76 296.01,-195.99 308.52,-187.65"/>
<polygon fill="midnightblue" stroke="midnightblue" points="259.89,-215.86 253.51,-224.32 263.78,-221.69 259.89,-215.86"/>
</g>
<!-- Node7&#45;&gt;Node3 -->
<g id="edge6" class="edge">
<title>Node7&#45;&gt;Node3</title>
<path fill="none" stroke="midnightblue" d="M286.24,-165.17C255.92,-155 212.93,-140.59 185.89,-131.52"/>
<polygon fill="midnightblue" stroke="midnightblue" points="285.4,-168.58 295.99,-168.44 287.62,-161.95 285.4,-168.58"/>
</g>
<!-- Node8 -->
<g id="node8" class="node">
<title>Node8</title>
<g id="a_node8"><a xlink:href="interfacecmd_1_1_generatable.html" target="_top" xlink:title="変換してコードを生成できるノードのインタフェース.">
<polygon fill="white" stroke="black" points="206,-112.5 206,-131.5 275,-131.5 275,-112.5 206,-112.5"/>
<text text-anchor="middle" x="240.5" y="-119.5" font-family="Helvetica,sans-Serif" font-size="10.00">Generatable</text>
</a>
</g>
</g>
<!-- Node8&#45;&gt;Node2 -->
<g id="edge8" class="edge">
<title>Node8&#45;&gt;Node2</title>
<path fill="none" stroke="midnightblue" d="M227.8,-103.86C220.87,-94.5 212.59,-83.33 206.98,-75.75"/>
<polygon fill="midnightblue" stroke="midnightblue" points="225.13,-106.13 233.89,-112.08 230.75,-101.96 225.13,-106.13"/>
</g>
</g>
</svg>
