<?xml version="1.0" encoding="UTF-8" standalone="no"?>
<!DOCTYPE svg PUBLIC "-//W3C//DTD SVG 1.1//EN"
 "http://www.w3.org/Graphics/SVG/1.1/DTD/svg11.dtd">
<!-- Generated by graphviz version 2.47.1 (20210417.1919)
 -->
<!-- Title: AstMathOper.NotExpr Pages: 1 -->
<svg width="291pt" height="364pt"
 viewBox="0.00 0.00 290.50 364.00" xmlns="http://www.w3.org/2000/svg" xmlns:xlink="http://www.w3.org/1999/xlink">
<g id="graph0" class="graph" transform="scale(1 1) rotate(0) translate(4 360)">
<title>AstMathOper.NotExpr</title>
<polygon fill="white" stroke="transparent" points="-4,4 -4,-360 286.5,-360 286.5,4 -4,4"/>
<!-- Node1 -->
<g id="node1" class="node">
<title>Node1</title>
<g id="a_node1"><a xlink:title=" ">
<polygon fill="#bfbfbf" stroke="black" points="121,-0.5 121,-19.5 234,-19.5 234,-0.5 121,-0.5"/>
<text text-anchor="middle" x="177.5" y="-7.5" font-family="Helvetica,sans-Serif" font-size="10.00">AstMathOper.NotExpr</text>
</a>
</g>
</g>
<!-- Node2 -->
<g id="node2" class="node">
<title>Node2</title>
<g id="a_node2"><a xlink:href="classast_1_1_ast_math_oper_1_1_boolean_oper.html" target="_top" xlink:title=" ">
<polygon fill="white" stroke="black" points="111,-57.5 111,-76.5 244,-76.5 244,-57.5 111,-57.5"/>
<text text-anchor="middle" x="177.5" y="-64.5" font-family="Helvetica,sans-Serif" font-size="10.00">AstMathOper.BooleanOper</text>
</a>
</g>
</g>
<!-- Node2&#45;&gt;Node1 -->
<g id="edge1" class="edge">
<title>Node2&#45;&gt;Node1</title>
<path fill="none" stroke="midnightblue" d="M177.5,-47.12C177.5,-37.82 177.5,-27.06 177.5,-19.71"/>
<polygon fill="midnightblue" stroke="midnightblue" points="174,-47.41 177.5,-57.41 181,-47.41 174,-47.41"/>
</g>
<!-- Node3 -->
<g id="node3" class="node">
<title>Node3</title>
<g id="a_node3"><a xlink:href="classast_1_1_ast_math_oper_1_1_binary_oper.html" target="_top" xlink:title="end of class AstMathOper">
<polygon fill="white" stroke="black" points="0,-124.5 0,-143.5 125,-143.5 125,-124.5 0,-124.5"/>
<text text-anchor="middle" x="62.5" y="-131.5" font-family="Helvetica,sans-Serif" font-size="10.00">AstMathOper.BinaryOper</text>
</a>
</g>
</g>
<!-- Node3&#45;&gt;Node2 -->
<g id="edge2" class="edge">
<title>Node3&#45;&gt;Node2</title>
<path fill="none" stroke="midnightblue" d="M86.76,-119.29C109.55,-106.4 142.96,-87.52 162.24,-76.63"/>
<polygon fill="midnightblue" stroke="midnightblue" points="84.99,-116.27 78.01,-124.23 88.44,-122.36 84.99,-116.27"/>
</g>
<!-- Node4 -->
<g id="node4" class="node">
<title>Node4</title>
<g id="a_node4"><a xlink:href="classast_1_1_ast_math_oper.html" target="_top" xlink:title="値を返すことができるノードのクラス．一般に1個以上の子をもつ演算子である．">
<polygon fill="white" stroke="black" points="25.5,-181.5 25.5,-200.5 99.5,-200.5 99.5,-181.5 25.5,-181.5"/>
<text text-anchor="middle" x="62.5" y="-188.5" font-family="Helvetica,sans-Serif" font-size="10.00">AstMathOper</text>
</a>
</g>
</g>
<!-- Node4&#45;&gt;Node3 -->
<g id="edge3" class="edge">
<title>Node4&#45;&gt;Node3</title>
<path fill="none" stroke="midnightblue" d="M62.5,-171.12C62.5,-161.82 62.5,-151.06 62.5,-143.71"/>
<polygon fill="midnightblue" stroke="midnightblue" points="59,-171.41 62.5,-181.41 66,-171.41 59,-171.41"/>
</g>
<!-- Node5 -->
<g id="node5" class="node">
<title>Node5</title>
<g id="a_node5"><a xlink:href="classast_1_1_ast_oper.html" target="_top" xlink:title=" ">
<polygon fill="white" stroke="red" points="7,-336.5 7,-355.5 60,-355.5 60,-336.5 7,-336.5"/>
<text text-anchor="middle" x="33.5" y="-343.5" font-family="Helvetica,sans-Serif" font-size="10.00">AstOper</text>
</a>
</g>
</g>
<!-- Node5&#45;&gt;Node4 -->
<g id="edge4" class="edge">
<title>Node5&#45;&gt;Node4</title>
<path fill="none" stroke="midnightblue" d="M37.08,-326.11C43.41,-292.72 56.33,-224.54 60.88,-200.57"/>
<polygon fill="midnightblue" stroke="midnightblue" points="33.57,-325.86 35.14,-336.34 40.44,-327.16 33.57,-325.86"/>
</g>
<!-- Node11 -->
<g id="node6" class="node">
<title>Node11</title>
<g id="a_node6"><a xlink:title=" ">
<polygon fill="white" stroke="#bfbfbf" points="78,-336.5 78,-355.5 107,-355.5 107,-336.5 78,-336.5"/>
<text text-anchor="middle" x="92.5" y="-343.5" font-family="Helvetica,sans-Serif" font-size="10.00">int</text>
</a>
</g>
</g>
<!-- Node11&#45;&gt;Node4 -->
<g id="edge5" class="edge">
<title>Node11&#45;&gt;Node4</title>
<path fill="none" stroke="#9a32cd" stroke-dasharray="5,2" d="M88.8,-326.11C82.25,-292.72 68.88,-224.54 64.18,-200.57"/>
<polygon fill="#9a32cd" stroke="#9a32cd" points="85.44,-327.2 90.8,-336.34 92.31,-325.85 85.44,-327.2"/>
<text text-anchor="middle" x="133" y="-310" font-family="Helvetica,sans-Serif" font-size="10.00"> PREF_ADD_TERM</text>
<text text-anchor="middle" x="133" y="-299" font-family="Helvetica,sans-Serif" font-size="10.00">PREF_AND_EXPR</text>
<text text-anchor="middle" x="133" y="-288" font-family="Helvetica,sans-Serif" font-size="10.00">PREF_BIN_OPER</text>
<text text-anchor="middle" x="133" y="-277" font-family="Helvetica,sans-Serif" font-size="10.00">PREF_BIN_REL</text>
<text text-anchor="middle" x="133" y="-266" font-family="Helvetica,sans-Serif" font-size="10.00">PREF_MUL_TERM</text>
<text text-anchor="middle" x="133" y="-255" font-family="Helvetica,sans-Serif" font-size="10.00">PREF_NOT_EXPR</text>
<text text-anchor="middle" x="133" y="-244" font-family="Helvetica,sans-Serif" font-size="10.00">PREF_NUM_SENT</text>
<text text-anchor="middle" x="133" y="-233" font-family="Helvetica,sans-Serif" font-size="10.00">PREF_OR_EXPR</text>
<text text-anchor="middle" x="133" y="-222" font-family="Helvetica,sans-Serif" font-size="10.00">PREF_PRE_TERM</text>
</g>
<!-- Node23 -->
<g id="node7" class="node">
<title>Node23</title>
<g id="a_node7"><a xlink:href="interfacecmd_1_1_generatable.html" target="_top" xlink:title="変換してコードを生成できるノードのインタフェース.">
<polygon fill="white" stroke="black" points="143,-124.5 143,-143.5 212,-143.5 212,-124.5 143,-124.5"/>
<text text-anchor="middle" x="177.5" y="-131.5" font-family="Helvetica,sans-Serif" font-size="10.00">Generatable</text>
</a>
</g>
</g>
<!-- Node23&#45;&gt;Node2 -->
<g id="edge6" class="edge">
<title>Node23&#45;&gt;Node2</title>
<path fill="none" stroke="midnightblue" d="M177.5,-114.04C177.5,-101.67 177.5,-86.12 177.5,-76.63"/>
<polygon fill="midnightblue" stroke="midnightblue" points="174,-114.23 177.5,-124.23 181,-114.23 174,-114.23"/>
</g>
<!-- Node20 -->
<g id="node8" class="node">
<title>Node20</title>
<g id="a_node8"><a xlink:title=" ">
<polygon fill="white" stroke="#bfbfbf" points="230.5,-124.5 230.5,-143.5 282.5,-143.5 282.5,-124.5 230.5,-124.5"/>
<text text-anchor="middle" x="256.5" y="-131.5" font-family="Helvetica,sans-Serif" font-size="10.00">Boolean</text>
</a>
</g>
</g>
<!-- Node20&#45;&gt;Node2 -->
<g id="edge7" class="edge">
<title>Node20&#45;&gt;Node2</title>
<path fill="none" stroke="#9a32cd" stroke-dasharray="5,2" d="M237.92,-117.71C222.36,-104.91 200.7,-87.09 187.99,-76.63"/>
<polygon fill="#9a32cd" stroke="#9a32cd" points="235.9,-120.58 245.85,-124.23 240.35,-115.18 235.9,-120.58"/>
<text text-anchor="middle" x="239.5" y="-98" font-family="Helvetica,sans-Serif" font-size="10.00"> initEval</text>
</g>
</g>
</svg>
