<?xml version="1.0" encoding="UTF-8" standalone="no"?>
<!DOCTYPE svg PUBLIC "-//W3C//DTD SVG 1.1//EN"
 "http://www.w3.org/Graphics/SVG/1.1/DTD/svg11.dtd">
<!-- Generated by graphviz version 2.47.0 (20210316.0004)
 -->
<!-- Title: AstNodeTaggedSettable Pages: 1 -->
<svg width="870pt" height="603pt"
 viewBox="0.00 0.00 870.00 603.00" xmlns="http://www.w3.org/2000/svg" xmlns:xlink="http://www.w3.org/1999/xlink">
<g id="graph0" class="graph" transform="scale(1 1) rotate(0) translate(4 599)">
<title>AstNodeTaggedSettable</title>
<polygon fill="white" stroke="transparent" points="-4,4 -4,-599 866,-599 866,4 -4,4"/>
<!-- Node1 -->
<g id="node1" class="node">
<title>Node1</title>
<g id="a_node1"><a xlink:title="タグ付きの子をもつノードのクラス．利用者は自前で，追加する子のField名と，Getter，Setter，型を設定する．読み出しは子の添字でも行える．">
<polygon fill="#bfbfbf" stroke="black" points="740,-95.5 740,-114.5 862,-114.5 862,-95.5 740,-95.5"/>
<text text-anchor="middle" x="801" y="-102.5" font-family="Helvetica,sans-Serif" font-size="10.00">AstNodeTaggedSettable</text>
</a>
</g>
</g>
<!-- Node2 -->
<g id="node2" class="node">
<title>Node2</title>
<g id="a_node2"><a xlink:href="classast_1_1_ast_node.html" target="_top" xlink:title="タグなしの順アクセスの子供をもてる抽象構文木のノードのクラス。">
<polygon fill="white" stroke="black" points="558.5,-391.5 558.5,-410.5 613.5,-410.5 613.5,-391.5 558.5,-391.5"/>
<text text-anchor="middle" x="586" y="-398.5" font-family="Helvetica,sans-Serif" font-size="10.00">AstNode</text>
</a>
</g>
</g>
<!-- Node2&#45;&gt;Node1 -->
<g id="edge1" class="edge">
<title>Node2&#45;&gt;Node1</title>
<path fill="none" stroke="midnightblue" d="M599.74,-383.29C639.84,-327.57 762.55,-157.04 793.07,-114.63"/>
<polygon fill="midnightblue" stroke="midnightblue" points="596.85,-381.33 593.85,-391.49 602.53,-385.41 596.85,-381.33"/>
</g>
<!-- Node3 -->
<g id="node3" class="node">
<title>Node3</title>
<g id="a_node3"><a xlink:href="classast_1_1_ast_node_base.html" target="_top" xlink:title=" ">
<polygon fill="white" stroke="black" points="273.5,-416.5 273.5,-435.5 350.5,-435.5 350.5,-416.5 273.5,-416.5"/>
<text text-anchor="middle" x="312" y="-423.5" font-family="Helvetica,sans-Serif" font-size="10.00">AstNodeBase</text>
</a>
</g>
</g>
<!-- Node3&#45;&gt;Node2 -->
<g id="edge2" class="edge">
<title>Node3&#45;&gt;Node2</title>
<path fill="none" stroke="midnightblue" d="M360.82,-421.61C418.29,-416.32 512.71,-407.64 558.48,-403.44"/>
<polygon fill="midnightblue" stroke="midnightblue" points="360.17,-418.15 350.53,-422.55 360.81,-425.12 360.17,-418.15"/>
</g>
<!-- Node4 -->
<g id="node4" class="node">
<title>Node4</title>
<g id="a_node4"><a xlink:title=" ">
<polygon fill="white" stroke="#bfbfbf" points="16.5,-361.5 16.5,-380.5 58.5,-380.5 58.5,-361.5 16.5,-361.5"/>
<text text-anchor="middle" x="37.5" y="-368.5" font-family="Helvetica,sans-Serif" font-size="10.00">String</text>
</a>
</g>
</g>
<!-- Node4&#45;&gt;Node3 -->
<g id="edge3" class="edge">
<title>Node4&#45;&gt;Node3</title>
<path fill="none" stroke="#9a32cd" stroke-dasharray="5,2" d="M58.95,-386.36C68.75,-392.92 80.95,-399.97 93,-404 125.47,-414.85 220.06,-421.32 273.35,-424.2"/>
<polygon fill="#9a32cd" stroke="#9a32cd" points="60.9,-383.46 50.7,-380.58 56.88,-389.19 60.9,-383.46"/>
<text text-anchor="middle" x="154.5" y="-434" font-family="Helvetica,sans-Serif" font-size="10.00"> MOD_AST</text>
<text text-anchor="middle" x="154.5" y="-423" font-family="Helvetica,sans-Serif" font-size="10.00">mod_</text>
</g>
<!-- Node14 -->
<g id="node14" class="node">
<title>Node14</title>
<g id="a_node14"><a xlink:href="classformat_1_1_style.html" target="_top" xlink:title="ノードの表示スタイルに関するプロパティのクラス.">
<polygon fill="white" stroke="black" points="292.5,-266.5 292.5,-285.5 331.5,-285.5 331.5,-266.5 292.5,-266.5"/>
<text text-anchor="middle" x="312" y="-273.5" font-family="Helvetica,sans-Serif" font-size="10.00">Style</text>
</a>
</g>
</g>
<!-- Node4&#45;&gt;Node14 -->
<g id="edge15" class="edge">
<title>Node4&#45;&gt;Node14</title>
<path fill="none" stroke="#9a32cd" stroke-dasharray="5,2" d="M50.36,-352.6C60.12,-339.08 75.2,-321.48 93,-312 141.83,-286.01 161.44,-302.09 216,-293 242.61,-288.56 273.32,-282.98 292.45,-279.45"/>
<polygon fill="#9a32cd" stroke="#9a32cd" points="47.26,-350.93 44.49,-361.15 53.04,-354.89 47.26,-350.93"/>
<text text-anchor="middle" x="154.5" y="-392" font-family="Helvetica,sans-Serif" font-size="10.00"> childLPAD</text>
<text text-anchor="middle" x="154.5" y="-381" font-family="Helvetica,sans-Serif" font-size="10.00">childRPAD</text>
<text text-anchor="middle" x="154.5" y="-370" font-family="Helvetica,sans-Serif" font-size="10.00">name</text>
<text text-anchor="middle" x="154.5" y="-359" font-family="Helvetica,sans-Serif" font-size="10.00">operSTR</text>
<text text-anchor="middle" x="154.5" y="-348" font-family="Helvetica,sans-Serif" font-size="10.00">parenLPAD</text>
<text text-anchor="middle" x="154.5" y="-337" font-family="Helvetica,sans-Serif" font-size="10.00">parenLPAR</text>
<text text-anchor="middle" x="154.5" y="-326" font-family="Helvetica,sans-Serif" font-size="10.00">parenRPAD</text>
<text text-anchor="middle" x="154.5" y="-315" font-family="Helvetica,sans-Serif" font-size="10.00">parenRPAR</text>
</g>
<!-- Node5 -->
<g id="node5" class="node">
<title>Node5</title>
<g id="a_node5"><a xlink:title=" ">
<polygon fill="white" stroke="#bfbfbf" points="5,-457.5 5,-476.5 70,-476.5 70,-457.5 5,-457.5"/>
<text text-anchor="middle" x="37.5" y="-464.5" font-family="Helvetica,sans-Serif" font-size="10.00">TraceLevel</text>
</a>
</g>
</g>
<!-- Node5&#45;&gt;Node3 -->
<g id="edge4" class="edge">
<title>Node5&#45;&gt;Node3</title>
<path fill="none" stroke="#9a32cd" stroke-dasharray="5,2" d="M80.26,-464.38C116.37,-461.73 169.87,-456.88 216,-449 221.81,-448.01 249.32,-441.31 273.25,-435.4"/>
<polygon fill="#9a32cd" stroke="#9a32cd" points="79.82,-460.9 70.1,-465.1 80.32,-467.89 79.82,-460.9"/>
<text text-anchor="middle" x="154.5" y="-466" font-family="Helvetica,sans-Serif" font-size="10.00"> LOG</text>
</g>
<!-- Node6 -->
<g id="node6" class="node">
<title>Node6</title>
<g id="a_node6"><a xlink:title=" ">
<polygon fill="white" stroke="#bfbfbf" points="1,-533.5 1,-552.5 74,-552.5 74,-533.5 1,-533.5"/>
<text text-anchor="middle" x="37.5" y="-540.5" font-family="Helvetica,sans-Serif" font-size="10.00">static Report</text>
</a>
</g>
</g>
<!-- Node6&#45;&gt;Node3 -->
<g id="edge5" class="edge">
<title>Node6&#45;&gt;Node3</title>
<path fill="none" stroke="#9a32cd" stroke-dasharray="5,2" d="M84.35,-538.66C133.66,-533.58 206.35,-524.75 216,-516 240.11,-494.13 210.91,-467.95 234,-445 244.35,-434.71 259.33,-429.69 273.34,-427.33"/>
<polygon fill="#9a32cd" stroke="#9a32cd" points="83.81,-535.2 74.21,-539.68 84.51,-542.16 83.81,-535.2"/>
<text text-anchor="middle" x="154.5" y="-540" font-family="Helvetica,sans-Serif" font-size="10.00"> repo</text>
</g>
<!-- Node7 -->
<g id="node7" class="node">
<title>Node7</title>
<g id="a_node7"><a xlink:title=" ">
<polygon fill="white" stroke="#bfbfbf" points="23,-243.5 23,-262.5 52,-262.5 52,-243.5 23,-243.5"/>
<text text-anchor="middle" x="37.5" y="-250.5" font-family="Helvetica,sans-Serif" font-size="10.00">int</text>
</a>
</g>
</g>
<!-- Node7&#45;&gt;Node3 -->
<g id="edge6" class="edge">
<title>Node7&#45;&gt;Node3</title>
<path fill="none" stroke="#9a32cd" stroke-dasharray="5,2" d="M62.34,-251.34C105.59,-248.89 194.53,-246.56 216,-267 261.44,-310.26 192.24,-360.18 234,-407 243.9,-418.1 259.15,-423.21 273.48,-425.42"/>
<polygon fill="#9a32cd" stroke="#9a32cd" points="61.92,-247.86 52.15,-251.97 62.35,-254.85 61.92,-247.86"/>
<text text-anchor="middle" x="154.5" y="-281" font-family="Helvetica,sans-Serif" font-size="10.00"> BITMASK_PRINT_WIDTH</text>
<text text-anchor="middle" x="154.5" y="-270" font-family="Helvetica,sans-Serif" font-size="10.00">UNDEF</text>
</g>
<!-- Node7&#45;&gt;Node14 -->
<g id="edge16" class="edge">
<title>Node7&#45;&gt;Node14</title>
<path fill="none" stroke="#9a32cd" stroke-dasharray="5,2" d="M61.72,-244.59C71.28,-241.56 82.53,-238.5 93,-237 147.11,-229.22 162.37,-226.42 216,-237 244.34,-242.59 274.85,-256.72 293.44,-266.35"/>
<polygon fill="#9a32cd" stroke="#9a32cd" points="60.51,-241.31 52.15,-247.81 62.74,-247.94 60.51,-241.31"/>
<text text-anchor="middle" x="154.5" y="-240" font-family="Helvetica,sans-Serif" font-size="10.00"> pref</text>
</g>
<!-- Node8 -->
<g id="node8" class="node">
<title>Node8</title>
<g id="a_node8"><a xlink:href="interfacetype_1_1_typable.html" target="_top" xlink:title="抽象ノードがもつ関数型のインタフェース">
<polygon fill="white" stroke="black" points="12.5,-495.5 12.5,-514.5 62.5,-514.5 62.5,-495.5 12.5,-495.5"/>
<text text-anchor="middle" x="37.5" y="-502.5" font-family="Helvetica,sans-Serif" font-size="10.00">Typable</text>
</a>
</g>
</g>
<!-- Node8&#45;&gt;Node3 -->
<g id="edge7" class="edge">
<title>Node8&#45;&gt;Node3</title>
<path fill="none" stroke="#9a32cd" stroke-dasharray="5,2" d="M72.81,-503.37C117.75,-500.63 193.49,-493.77 216,-478 229.68,-468.41 220.77,-455.2 234,-445 245.23,-436.34 259.89,-431.58 273.4,-428.97"/>
<polygon fill="#9a32cd" stroke="#9a32cd" points="72.42,-499.88 62.64,-503.95 72.82,-506.87 72.42,-499.88"/>
<text text-anchor="middle" x="154.5" y="-504" font-family="Helvetica,sans-Serif" font-size="10.00"> typing</text>
</g>
<!-- Node9 -->
<g id="node9" class="node">
<title>Node9</title>
<g id="a_node9"><a xlink:title=" ">
<polygon fill="white" stroke="#bfbfbf" points="12.5,-147.5 12.5,-166.5 62.5,-166.5 62.5,-147.5 12.5,-147.5"/>
<text text-anchor="middle" x="37.5" y="-154.5" font-family="Helvetica,sans-Serif" font-size="10.00">boolean</text>
</a>
</g>
</g>
<!-- Node9&#45;&gt;Node1 -->
<g id="edge23" class="edge">
<title>Node9&#45;&gt;Node1</title>
<path fill="none" stroke="#9a32cd" stroke-dasharray="5,2" d="M70.66,-144.06C77.9,-141.63 85.63,-139.42 93,-138 367.8,-85.16 442.58,-125.17 722,-110 727.83,-109.68 733.9,-109.33 739.96,-108.97"/>
<polygon fill="#9a32cd" stroke="#9a32cd" points="69.41,-140.79 61.16,-147.44 71.76,-147.38 69.41,-140.79"/>
<text text-anchor="middle" x="446" y="-114" font-family="Helvetica,sans-Serif" font-size="10.00"> DEBUG_REPO</text>
</g>
<!-- Node9&#45;&gt;Node3 -->
<g id="edge8" class="edge">
<title>Node9&#45;&gt;Node3</title>
<path fill="none" stroke="#9a32cd" stroke-dasharray="5,2" d="M68.92,-170.61C76.7,-173.88 85.1,-177.22 93,-180 146.62,-198.86 179.67,-171.29 216,-215 243.39,-247.95 206.03,-374.53 234,-407 243.71,-418.27 258.93,-423.41 273.28,-425.59"/>
<polygon fill="#9a32cd" stroke="#9a32cd" points="70.06,-167.29 59.49,-166.57 67.3,-173.72 70.06,-167.29"/>
<text text-anchor="middle" x="154.5" y="-218" font-family="Helvetica,sans-Serif" font-size="10.00"> DEBUG_REPO</text>
</g>
<!-- Node9&#45;&gt;Node14 -->
<g id="edge17" class="edge">
<title>Node9&#45;&gt;Node14</title>
<path fill="none" stroke="#9a32cd" stroke-dasharray="5,2" d="M72.49,-148.92C109.71,-141.88 170.2,-135.92 216,-158 264.33,-181.3 295.96,-242.4 306.82,-266.26"/>
<polygon fill="#9a32cd" stroke="#9a32cd" points="71.75,-145.49 62.64,-150.91 73.13,-152.36 71.75,-145.49"/>
<text text-anchor="middle" x="154.5" y="-172" font-family="Helvetica,sans-Serif" font-size="10.00"> preoperSupress</text>
<text text-anchor="middle" x="154.5" y="-161" font-family="Helvetica,sans-Serif" font-size="10.00">toInline</text>
</g>
<!-- Node10 -->
<g id="node10" class="node">
<title>Node10</title>
<g id="a_node10"><a xlink:href="interfaceformat_1_1_x_formattable_1_1_navigatable.html" target="_top" xlink:title="木構造の分岐ノードとして清書可能なオブジェクトのクラス">
<polygon fill="white" stroke="black" points="247,-454.5 247,-473.5 377,-473.5 377,-454.5 247,-454.5"/>
<text text-anchor="middle" x="312" y="-461.5" font-family="Helvetica,sans-Serif" font-size="10.00">XFormattable.Navigatable</text>
</a>
</g>
</g>
<!-- Node10&#45;&gt;Node2 -->
<g id="edge9" class="edge">
<title>Node10&#45;&gt;Node2</title>
<path fill="none" stroke="midnightblue" d="M365.32,-452.2C399.19,-444.52 444.22,-434.26 484,-425 509.28,-419.11 538.07,-412.26 558.43,-407.38"/>
<polygon fill="midnightblue" stroke="midnightblue" points="364.17,-448.87 355.19,-454.49 365.71,-455.7 364.17,-448.87"/>
</g>
<!-- Node15 -->
<g id="node15" class="node">
<title>Node15</title>
<g id="a_node15"><a xlink:href="interfaceformat_1_1_x_formattable_1_1_field_navigatable.html" target="_top" xlink:title="タグ付きノードに対応する清書対象のクラス。">
<polygon fill="white" stroke="black" points="510.5,-442.5 510.5,-461.5 661.5,-461.5 661.5,-442.5 510.5,-442.5"/>
<text text-anchor="middle" x="586" y="-449.5" font-family="Helvetica,sans-Serif" font-size="10.00">XFormattable.FieldNavigatable</text>
</a>
</g>
</g>
<!-- Node10&#45;&gt;Node15 -->
<g id="edge19" class="edge">
<title>Node10&#45;&gt;Node15</title>
<path fill="none" stroke="midnightblue" d="M387.16,-460.73C425.39,-459.04 471.91,-456.99 510.23,-455.3"/>
<polygon fill="midnightblue" stroke="midnightblue" points="386.95,-457.23 377.12,-461.17 387.26,-464.23 386.95,-457.23"/>
</g>
<!-- Node11 -->
<g id="node11" class="node">
<title>Node11</title>
<g id="a_node11"><a xlink:href="interfaceformat_1_1_x_formattable.html" target="_top" xlink:title="入れ子フォーマット出力可能なオブジェクトのインタフェース。">
<polygon fill="white" stroke="black" points="0,-575.5 0,-594.5 75,-594.5 75,-575.5 0,-575.5"/>
<text text-anchor="middle" x="37.5" y="-582.5" font-family="Helvetica,sans-Serif" font-size="10.00">XFormattable</text>
</a>
</g>
</g>
<!-- Node11&#45;&gt;Node10 -->
<g id="edge10" class="edge">
<title>Node11&#45;&gt;Node10</title>
<path fill="none" stroke="midnightblue" d="M85.26,-579.9C130.3,-574.32 194.64,-564.34 216,-551 227.31,-543.94 224.77,-536.63 234,-527 254.2,-505.93 281.29,-485.22 297.36,-473.58"/>
<polygon fill="midnightblue" stroke="midnightblue" points="84.63,-576.46 75.12,-581.13 85.46,-583.4 84.63,-576.46"/>
</g>
<!-- Node12 -->
<g id="node12" class="node">
<title>Node12</title>
<g id="a_node12"><a xlink:href="interfaceformat_1_1_x_formattable_1_1_typed_formattable.html" target="_top" xlink:title="ノードの型情報をもつ書式出力可能なオブジェクトのインタフェース．">
<polygon fill="white" stroke="black" points="234,-536.5 234,-555.5 390,-555.5 390,-536.5 234,-536.5"/>
<text text-anchor="middle" x="312" y="-543.5" font-family="Helvetica,sans-Serif" font-size="10.00">XFormattable.TypedFormattable</text>
</a>
</g>
</g>
<!-- Node11&#45;&gt;Node12 -->
<g id="edge12" class="edge">
<title>Node11&#45;&gt;Node12</title>
<path fill="none" stroke="midnightblue" d="M85.39,-585.86C121.39,-585.75 172.19,-583.89 216,-576 240.68,-571.55 267.88,-562.52 286.83,-555.52"/>
<polygon fill="midnightblue" stroke="midnightblue" points="85.19,-582.36 75.18,-585.85 85.18,-589.36 85.19,-582.36"/>
</g>
<!-- Node12&#45;&gt;Node2 -->
<g id="edge11" class="edge">
<title>Node12&#45;&gt;Node2</title>
<path fill="none" stroke="midnightblue" d="M340.44,-531.62C374.81,-513.27 435.11,-479.94 484,-447 492.4,-441.34 493.18,-437.99 502,-433 519.88,-422.89 541.59,-414.65 558.31,-409.06"/>
<polygon fill="midnightblue" stroke="midnightblue" points="338.66,-528.6 331.47,-536.38 341.94,-534.78 338.66,-528.6"/>
</g>
<!-- Node13 -->
<g id="node13" class="node">
<title>Node13</title>
<g id="a_node13"><a xlink:title=" ">
<polygon fill="white" stroke="#bfbfbf" points="286,-378.5 286,-397.5 338,-397.5 338,-378.5 286,-378.5"/>
<text text-anchor="middle" x="312" y="-385.5" font-family="Helvetica,sans-Serif" font-size="10.00">Boolean</text>
</a>
</g>
</g>
<!-- Node13&#45;&gt;Node2 -->
<g id="edge13" class="edge">
<title>Node13&#45;&gt;Node2</title>
<path fill="none" stroke="#9a32cd" stroke-dasharray="5,2" d="M348.32,-387.05C382.92,-386.39 437.14,-386.09 484,-389 509.38,-390.58 538.16,-394.18 558.49,-397.02"/>
<polygon fill="#9a32cd" stroke="#9a32cd" points="348.16,-383.55 338.24,-387.26 348.31,-390.55 348.16,-383.55"/>
<text text-anchor="middle" x="446" y="-392" font-family="Helvetica,sans-Serif" font-size="10.00"> DEBUG_CHILD</text>
</g>
<!-- Node14&#45;&gt;Node2 -->
<g id="edge14" class="edge">
<title>Node14&#45;&gt;Node2</title>
<path fill="none" stroke="#9a32cd" stroke-dasharray="5,2" d="M340.78,-288.77C395.34,-313.84 515.36,-369 563.95,-391.33"/>
<polygon fill="#9a32cd" stroke="#9a32cd" points="342.24,-285.59 331.7,-284.59 339.32,-291.95 342.24,-285.59"/>
<text text-anchor="middle" x="446" y="-356" font-family="Helvetica,sans-Serif" font-size="10.00"> sty</text>
</g>
<!-- Node15&#45;&gt;Node1 -->
<g id="edge18" class="edge">
<title>Node15&#45;&gt;Node1</title>
<path fill="none" stroke="midnightblue" d="M640.37,-438.77C651.15,-434.2 661.71,-428.1 670,-420 764.38,-327.81 792.98,-157.21 798.78,-114.76"/>
<polygon fill="midnightblue" stroke="midnightblue" points="638.96,-435.56 630.88,-442.42 641.47,-442.1 638.96,-435.56"/>
</g>
<!-- Node16 -->
<g id="node16" class="node">
<title>Node16</title>
<g id="a_node16"><a xlink:title=" ">
<polygon fill="white" stroke="#bfbfbf" points="548,-76.5 548,-95.5 624,-95.5 624,-76.5 548,-76.5"/>
<text text-anchor="middle" x="586" y="-83.5" font-family="Helvetica,sans-Serif" font-size="10.00">List&lt; String &gt;</text>
</a>
</g>
</g>
<!-- Node16&#45;&gt;Node1 -->
<g id="edge20" class="edge">
<title>Node16&#45;&gt;Node1</title>
<path fill="none" stroke="#9a32cd" stroke-dasharray="5,2" d="M634.27,-90.22C665.43,-93 706.52,-96.66 739.99,-99.65"/>
<polygon fill="#9a32cd" stroke="#9a32cd" points="634.37,-86.71 624.1,-89.31 633.75,-93.68 634.37,-86.71"/>
<text text-anchor="middle" x="705" y="-100" font-family="Helvetica,sans-Serif" font-size="10.00"> fields</text>
</g>
<!-- Node17 -->
<g id="node17" class="node">
<title>Node17</title>
<g id="a_node17"><a xlink:title=" ">
<polygon fill="white" stroke="#bfbfbf" points="502,-38.5 502,-57.5 670,-57.5 670,-38.5 502,-38.5"/>
<text text-anchor="middle" x="586" y="-45.5" font-family="Helvetica,sans-Serif" font-size="10.00">List&lt; Consumer&lt; ast.AstNode &gt; &gt;</text>
</a>
</g>
</g>
<!-- Node17&#45;&gt;Node1 -->
<g id="edge21" class="edge">
<title>Node17&#45;&gt;Node1</title>
<path fill="none" stroke="#9a32cd" stroke-dasharray="5,2" d="M641.56,-59.76C666.26,-65.39 695.74,-72.52 722,-80 738.55,-84.71 756.88,-90.56 771.61,-95.41"/>
<polygon fill="#9a32cd" stroke="#9a32cd" points="642.17,-56.31 631.65,-57.53 640.63,-63.14 642.17,-56.31"/>
<text text-anchor="middle" x="705" y="-83" font-family="Helvetica,sans-Serif" font-size="10.00"> setters</text>
</g>
<!-- Node18 -->
<g id="node18" class="node">
<title>Node18</title>
<g id="a_node18"><a xlink:title=" ">
<polygon fill="white" stroke="#bfbfbf" points="505,-0.5 505,-19.5 667,-19.5 667,-0.5 505,-0.5"/>
<text text-anchor="middle" x="586" y="-7.5" font-family="Helvetica,sans-Serif" font-size="10.00">List&lt; Supplier&lt; XFormattable &gt; &gt;</text>
</a>
</g>
</g>
<!-- Node18&#45;&gt;Node1 -->
<g id="edge22" class="edge">
<title>Node18&#45;&gt;Node1</title>
<path fill="none" stroke="#9a32cd" stroke-dasharray="5,2" d="M647.92,-22.07C655.44,-24.11 662.96,-26.41 670,-29 716.14,-45.94 764.62,-78.99 787.12,-95.35"/>
<polygon fill="#9a32cd" stroke="#9a32cd" points="648.63,-18.64 638.07,-19.54 646.89,-25.42 648.63,-18.64"/>
<text text-anchor="middle" x="705" y="-54" font-family="Helvetica,sans-Serif" font-size="10.00"> getters</text>
</g>
</g>
</svg>
