<?xml version="1.0" encoding="UTF-8" standalone="no"?>
<!DOCTYPE svg PUBLIC "-//W3C//DTD SVG 1.1//EN"
 "http://www.w3.org/Graphics/SVG/1.1/DTD/svg11.dtd">
<!-- Generated by graphviz version 2.47.1 (20210417.1919)
 -->
<!-- Title: XTyping.HomTyping Pages: 1 -->
<svg width="298pt" height="287pt"
 viewBox="0.00 0.00 297.50 287.00" xmlns="http://www.w3.org/2000/svg" xmlns:xlink="http://www.w3.org/1999/xlink">
<g id="graph0" class="graph" transform="scale(1 1) rotate(0) translate(4 283)">
<title>XTyping.HomTyping</title>
<polygon fill="white" stroke="transparent" points="-4,4 -4,-283 293.5,-283 293.5,4 -4,4"/>
<!-- Node1 -->
<g id="node1" class="node">
<title>Node1</title>
<g id="a_node1"><a xlink:title="親と子すべてが同値な関数型．">
<polygon fill="#bfbfbf" stroke="black" points="96,-0.5 96,-19.5 200,-19.5 200,-0.5 96,-0.5"/>
<text text-anchor="middle" x="148" y="-7.5" font-family="Helvetica,sans-Serif" font-size="10.00">XTyping.HomTyping</text>
</a>
</g>
</g>
<!-- Node2 -->
<g id="node2" class="node">
<title>Node2</title>
<g id="a_node2"><a xlink:href="classtype_1_1_x_typing_1_1_hom_child_typing.html" target="_top" xlink:title="すべての子が同値な関数型．親は異なる型を持値ち得る．">
<polygon fill="white" stroke="black" points="84.5,-57.5 84.5,-76.5 211.5,-76.5 211.5,-57.5 84.5,-57.5"/>
<text text-anchor="middle" x="148" y="-64.5" font-family="Helvetica,sans-Serif" font-size="10.00">XTyping.HomChildTyping</text>
</a>
</g>
</g>
<!-- Node2&#45;&gt;Node1 -->
<g id="edge1" class="edge">
<title>Node2&#45;&gt;Node1</title>
<path fill="none" stroke="midnightblue" d="M148,-47.12C148,-37.82 148,-27.06 148,-19.71"/>
<polygon fill="midnightblue" stroke="midnightblue" points="144.5,-47.41 148,-57.41 151.5,-47.41 144.5,-47.41"/>
</g>
<!-- Node3 -->
<g id="node3" class="node">
<title>Node3</title>
<g id="a_node3"><a xlink:href="classtype_1_1_x_typing_1_1_basic_typing.html" target="_top" xlink:title=" ">
<polygon fill="white" stroke="black" points="94,-114.5 94,-133.5 202,-133.5 202,-114.5 94,-114.5"/>
<text text-anchor="middle" x="148" y="-121.5" font-family="Helvetica,sans-Serif" font-size="10.00">XTyping.BasicTyping</text>
</a>
</g>
</g>
<!-- Node3&#45;&gt;Node2 -->
<g id="edge2" class="edge">
<title>Node3&#45;&gt;Node2</title>
<path fill="none" stroke="midnightblue" d="M148,-104.12C148,-94.82 148,-84.06 148,-76.71"/>
<polygon fill="midnightblue" stroke="midnightblue" points="144.5,-104.41 148,-114.41 151.5,-104.41 144.5,-104.41"/>
</g>
<!-- Node4 -->
<g id="node4" class="node">
<title>Node4</title>
<g id="a_node4"><a xlink:href="classtype_1_1_x_typing.html" target="_top" xlink:title="基本的な関数型のクラス">
<polygon fill="white" stroke="black" points="122,-181.5 122,-200.5 174,-200.5 174,-181.5 122,-181.5"/>
<text text-anchor="middle" x="148" y="-188.5" font-family="Helvetica,sans-Serif" font-size="10.00">XTyping</text>
</a>
</g>
</g>
<!-- Node4&#45;&gt;Node3 -->
<g id="edge3" class="edge">
<title>Node4&#45;&gt;Node3</title>
<path fill="none" stroke="midnightblue" d="M148,-171.04C148,-158.67 148,-143.12 148,-133.63"/>
<polygon fill="midnightblue" stroke="midnightblue" points="144.5,-171.23 148,-181.23 151.5,-171.23 144.5,-171.23"/>
</g>
<!-- Node5 -->
<g id="node5" class="node">
<title>Node5</title>
<g id="a_node5"><a xlink:href="interfacetype_1_1_typable.html" target="_top" xlink:title="抽象ノードがもつ関数型のインタフェース">
<polygon fill="white" stroke="black" points="62,-259.5 62,-278.5 112,-278.5 112,-259.5 62,-259.5"/>
<text text-anchor="middle" x="87" y="-266.5" font-family="Helvetica,sans-Serif" font-size="10.00">Typable</text>
</a>
</g>
</g>
<!-- Node5&#45;&gt;Node4 -->
<g id="edge4" class="edge">
<title>Node5&#45;&gt;Node4</title>
<path fill="none" stroke="midnightblue" d="M100.29,-251.44C112.85,-235.79 131.2,-212.93 141.08,-200.62"/>
<polygon fill="midnightblue" stroke="midnightblue" points="97.53,-249.29 94,-259.28 102.99,-253.67 97.53,-249.29"/>
</g>
<!-- Node6 -->
<g id="node6" class="node">
<title>Node6</title>
<g id="a_node6"><a xlink:title=" ">
<polygon fill="white" stroke="#bfbfbf" points="130,-259.5 130,-278.5 228,-278.5 228,-259.5 130,-259.5"/>
<text text-anchor="middle" x="179" y="-266.5" font-family="Helvetica,sans-Serif" font-size="10.00">List&lt; type.XItem &gt;</text>
</a>
</g>
</g>
<!-- Node6&#45;&gt;Node4 -->
<g id="edge5" class="edge">
<title>Node6&#45;&gt;Node4</title>
<path fill="none" stroke="#9a32cd" stroke-dasharray="5,2" d="M171.53,-249.67C165.18,-234.11 156.35,-212.47 151.51,-200.62"/>
<polygon fill="#9a32cd" stroke="#9a32cd" points="168.43,-251.34 175.44,-259.28 174.91,-248.7 168.43,-251.34"/>
<text text-anchor="middle" x="186.5" y="-227.5" font-family="Helvetica,sans-Serif" font-size="10.00"> children</text>
</g>
<!-- Node7 -->
<g id="node7" class="node">
<title>Node7</title>
<g id="a_node7"><a xlink:href="enumtype_1_1_x_type.html" target="_top" xlink:title="基本型を表す半順序をもつ列挙型のクラス。">
<polygon fill="white" stroke="black" points="0,-259.5 0,-278.5 44,-278.5 44,-259.5 0,-259.5"/>
<text text-anchor="middle" x="22" y="-266.5" font-family="Helvetica,sans-Serif" font-size="10.00">XType</text>
</a>
</g>
</g>
<!-- Node7&#45;&gt;Node2 -->
<g id="edge8" class="edge">
<title>Node7&#45;&gt;Node2</title>
<path fill="none" stroke="#9a32cd" stroke-dasharray="5,2" d="M25.78,-249.58C32.88,-218.68 50.68,-155.72 85,-114 98.16,-98 118.1,-84.69 132,-76.58"/>
<polygon fill="#9a32cd" stroke="#9a32cd" points="22.35,-248.89 23.64,-259.41 29.19,-250.38 22.35,-248.89"/>
<text text-anchor="middle" x="78.5" y="-155" font-family="Helvetica,sans-Serif" font-size="10.00"> child_xt</text>
</g>
<!-- Node7&#45;&gt;Node4 -->
<g id="edge6" class="edge">
<title>Node7&#45;&gt;Node4</title>
<path fill="none" stroke="#9a32cd" stroke-dasharray="5,2" d="M30.05,-250.23C35.65,-239.73 44.07,-226.97 55,-219 74.69,-204.63 101.91,-197.88 121.82,-194.72"/>
<polygon fill="#9a32cd" stroke="#9a32cd" points="26.82,-248.86 25.55,-259.38 33.1,-251.95 26.82,-248.86"/>
<text text-anchor="middle" x="81" y="-233" font-family="Helvetica,sans-Serif" font-size="10.00"> forcedType</text>
<text text-anchor="middle" x="81" y="-222" font-family="Helvetica,sans-Serif" font-size="10.00">nativeType</text>
</g>
<!-- Node8 -->
<g id="node8" class="node">
<title>Node8</title>
<g id="a_node8"><a xlink:href="classtype_1_1_x_item.html" target="_top" xlink:title="型変数のクラス">
<polygon fill="white" stroke="red" points="246.5,-259.5 246.5,-278.5 289.5,-278.5 289.5,-259.5 246.5,-259.5"/>
<text text-anchor="middle" x="268" y="-266.5" font-family="Helvetica,sans-Serif" font-size="10.00">XItem</text>
</a>
</g>
</g>
<!-- Node8&#45;&gt;Node2 -->
<g id="edge9" class="edge">
<title>Node8&#45;&gt;Node2</title>
<path fill="none" stroke="#9a32cd" stroke-dasharray="5,2" d="M264.9,-249.22C259,-218.27 243.73,-155.79 211,-114 198.31,-97.79 178.48,-84.62 164.46,-76.58"/>
<polygon fill="#9a32cd" stroke="#9a32cd" points="261.52,-250.2 266.72,-259.44 268.41,-248.98 261.52,-250.2"/>
<text text-anchor="middle" x="257.5" y="-155" font-family="Helvetica,sans-Serif" font-size="10.00"> hubItem</text>
</g>
<!-- Node8&#45;&gt;Node4 -->
<g id="edge7" class="edge">
<title>Node8&#45;&gt;Node4</title>
<path fill="none" stroke="#9a32cd" stroke-dasharray="5,2" d="M249.33,-252.81C244.64,-248.97 239.62,-244.85 235,-241 223.36,-231.32 221.83,-227.03 209,-219 197.22,-211.62 183.08,-205.23 171.38,-200.52"/>
<polygon fill="#9a32cd" stroke="#9a32cd" points="247.3,-255.68 257.26,-259.29 251.73,-250.25 247.3,-255.68"/>
<text text-anchor="middle" x="244.5" y="-227.5" font-family="Helvetica,sans-Serif" font-size="10.00"> self</text>
</g>
</g>
</svg>
