<?xml version="1.0" encoding="UTF-8" standalone="no"?>
<!DOCTYPE svg PUBLIC "-//W3C//DTD SVG 1.1//EN"
 "http://www.w3.org/Graphics/SVG/1.1/DTD/svg11.dtd">
<!-- Generated by graphviz version 2.47.1 (20210417.1919)
 -->
<!-- Title: XCTyping Pages: 1 -->
<!--zoomable 609 -->
<svg id="main" version="1.1" xmlns="http://www.w3.org/2000/svg" xmlns:xlink="http://www.w3.org/1999/xlink" xml:space="preserve" onload="init(evt)">
<style type="text/css"><![CDATA[
.edge:hover path { stroke: red; }
.edge:hover polygon { stroke: red; fill: red; }
]]></style>
<script type="text/javascript"><![CDATA[
var edges = document.getElementsByTagName('g');
if (edges && edges.length) {
  for (var i=0;i<edges.length;i++) {
    if (edges[i].id.substr(0,4)=='edge') {
      edges[i].setAttribute('class','edge');
    }
  }
}
]]></script>
        <defs>
                <circle id="rim" cx="0" cy="0" r="7"/>
                <circle id="rim2" cx="0" cy="0" r="3.5"/>
                <g id="zoomPlus">
                        <use xlink:href="#rim" fill="#404040">
                                <set attributeName="fill" to="#808080" begin="zoomplus.mouseover" end="zoomplus.mouseout"/>
                        </use>
                        <path d="M-4,0h8M0,-4v8" fill="none" stroke="white" stroke-width="1.5" pointer-events="none"/>
                </g>
                <g id="zoomMin">
                        <use xlink:href="#rim" fill="#404040">
                                <set attributeName="fill" to="#808080" begin="zoomminus.mouseover" end="zoomminus.mouseout"/>
                        </use>
                        <path d="M-4,0h8" fill="none" stroke="white" stroke-width="1.5" pointer-events="none"/>
                </g>
                <g id="dirArrow">
                        <path fill="none" stroke="white" stroke-width="1.5" d="M0,-3.0v7 M-2.5,-0.5L0,-3.0L2.5,-0.5"/>
                </g>
               <g id="resetDef">
                       <use xlink:href="#rim2" fill="#404040">
                               <set attributeName="fill" to="#808080" begin="reset.mouseover" end="reset.mouseout"/>
                       </use>
               </g>
        </defs>

<script type="text/javascript">
var viewWidth = 1273;
var viewHeight = 609;
var sectionId = 'dynsection-1';
</script>
<script xlink:href="svgpan.js"/>
<svg id="graph" class="graph">
<g id="viewport">
<title>XCTyping</title>
<polygon fill="white" stroke="transparent" points="-4,4 -4,-605 1269,-605 1269,4 -4,4"/>
<!-- Node1 -->
<g id="node1" class="node">
<title>Node1</title>
<g id="a_node1"><a xlink:title="型付けと記号表の前処理を行うクラス">
<polygon fill="#bfbfbf" stroke="black" points="1206,-105.5 1206,-124.5 1265,-124.5 1265,-105.5 1206,-105.5"/>
<text text-anchor="middle" x="1235.5" y="-112.5" font-family="Helvetica,sans-Serif" font-size="10.00">XCTyping</text>
</a>
</g>
</g>
<!-- Node2 -->
<g id="node2" class="node">
<title>Node2</title>
<g id="a_node2"><a xlink:href="classcompile_1_1_x_compiler.html" target="_top" xlink:title="クエリのコンパイル系モジュール。">
<polygon fill="white" stroke="black" points="1107,-428.5 1107,-447.5 1169,-447.5 1169,-428.5 1107,-428.5"/>
<text text-anchor="middle" x="1138" y="-435.5" font-family="Helvetica,sans-Serif" font-size="10.00">XCompiler</text>
</a>
</g>
</g>
<!-- Node2&#45;&gt;Node1 -->
<g id="edge1" class="edge">
<title>Node2&#45;&gt;Node1</title>
<path fill="none" stroke="midnightblue" d="M1144.8,-418.38C1162.98,-356.88 1218.44,-169.31 1231.65,-124.63"/>
<polygon fill="midnightblue" stroke="midnightblue" points="1141.34,-417.75 1141.86,-428.33 1148.05,-419.74 1141.34,-417.75"/>
</g>
<!-- Node3 -->
<g id="node3" class="node">
<title>Node3</title>
<g id="a_node3"><a xlink:title=" ">
<polygon fill="white" stroke="#bfbfbf" points="50.5,-299.5 50.5,-318.5 92.5,-318.5 92.5,-299.5 50.5,-299.5"/>
<text text-anchor="middle" x="71.5" y="-306.5" font-family="Helvetica,sans-Serif" font-size="10.00">String</text>
</a>
</g>
</g>
<!-- Node3&#45;&gt;Node2 -->
<g id="edge2" class="edge">
<title>Node3&#45;&gt;Node2</title>
<path fill="none" stroke="#9a32cd" stroke-dasharray="5,2" d="M77.99,-328.64C88.33,-361.73 113.98,-428.18 161,-461 217.44,-500.4 244.67,-488 313.5,-488 313.5,-488 313.5,-488 723.5,-488 886.73,-488 928.74,-482.99 1089,-452 1095.05,-450.83 1101.44,-449.23 1107.51,-447.53"/>
<polygon fill="#9a32cd" stroke="#9a32cd" points="81.27,-327.38 75.06,-318.8 74.56,-329.38 81.27,-327.38"/>
<text text-anchor="middle" x="722.5" y="-491" font-family="Helvetica,sans-Serif" font-size="10.00"> MOD_COMPILE</text>
</g>
<!-- Node6 -->
<g id="node6" class="node">
<title>Node6</title>
<g id="a_node6"><a xlink:href="classutil_1_1_trace_level.html" target="_top" xlink:title="ログ出力用のトレースレベルを扱うクラス。">
<polygon fill="white" stroke="black" points="282,-86.5 282,-105.5 347,-105.5 347,-86.5 282,-86.5"/>
<text text-anchor="middle" x="314.5" y="-93.5" font-family="Helvetica,sans-Serif" font-size="10.00">TraceLevel</text>
</a>
</g>
</g>
<!-- Node3&#45;&gt;Node6 -->
<g id="edge6" class="edge">
<title>Node3&#45;&gt;Node6</title>
<path fill="none" stroke="#9a32cd" stroke-dasharray="5,2" d="M82.01,-290.28C96.28,-263.62 125.38,-214.38 161,-182 200.47,-146.12 257.49,-119.01 289.45,-105.52"/>
<polygon fill="#9a32cd" stroke="#9a32cd" points="78.83,-288.82 77.29,-299.31 85.03,-292.07 78.83,-288.82"/>
<text text-anchor="middle" x="210.5" y="-229" font-family="Helvetica,sans-Serif" font-size="10.00"> DELIM_LEVELS</text>
<text text-anchor="middle" x="210.5" y="-218" font-family="Helvetica,sans-Serif" font-size="10.00">DELIM_NAMES</text>
<text text-anchor="middle" x="210.5" y="-207" font-family="Helvetica,sans-Serif" font-size="10.00">MOD_DEFAULT</text>
<text text-anchor="middle" x="210.5" y="-196" font-family="Helvetica,sans-Serif" font-size="10.00">OUT_DELIM_NAMES</text>
<text text-anchor="middle" x="210.5" y="-185" font-family="Helvetica,sans-Serif" font-size="10.00">USAGE_STR</text>
</g>
<!-- Node10 -->
<g id="node10" class="node">
<title>Node10</title>
<g id="a_node10"><a xlink:href="classutil_1_1_report.html" target="_top" xlink:title="標準出力への入れ子出力のためのレポートオブジェクトのクラス.">
<polygon fill="white" stroke="black" points="279,-530.5 279,-549.5 350,-549.5 350,-530.5 279,-530.5"/>
<text text-anchor="middle" x="314.5" y="-537.5" font-family="Helvetica,sans-Serif" font-size="10.00">Report&lt; S &gt;</text>
</a>
</g>
</g>
<!-- Node3&#45;&gt;Node10 -->
<g id="edge11" class="edge">
<title>Node3&#45;&gt;Node10</title>
<path fill="none" stroke="#9a32cd" stroke-dasharray="5,2" d="M75.95,-328.58C83.81,-367.21 106.73,-453.41 161,-499 170.08,-506.63 236.53,-522.67 278.67,-532.27"/>
<polygon fill="#9a32cd" stroke="#9a32cd" points="79.36,-327.79 74.05,-318.62 72.49,-329.1 79.36,-327.79"/>
<text text-anchor="middle" x="210.5" y="-530" font-family="Helvetica,sans-Serif" font-size="10.00"> STEMSTR</text>
</g>
<!-- Node14 -->
<g id="node14" class="node">
<title>Node14</title>
<g id="a_node14"><a xlink:href="classast_1_1_ast_node_base.html" target="_top" xlink:title=" ">
<polygon fill="white" stroke="red" points="549.5,-200.5 549.5,-219.5 626.5,-219.5 626.5,-200.5 549.5,-200.5"/>
<text text-anchor="middle" x="588" y="-207.5" font-family="Helvetica,sans-Serif" font-size="10.00">AstNodeBase</text>
</a>
</g>
</g>
<!-- Node3&#45;&gt;Node14 -->
<g id="edge17" class="edge">
<title>Node3&#45;&gt;Node14</title>
<path fill="none" stroke="#9a32cd" stroke-dasharray="5,2" d="M102.62,-298.55C119.62,-292.88 141.35,-286.02 161,-281 302.11,-244.93 474.35,-222.72 549.23,-214.1"/>
<polygon fill="#9a32cd" stroke="#9a32cd" points="101.05,-295.38 92.7,-301.89 103.29,-302.01 101.05,-295.38"/>
<text text-anchor="middle" x="314.5" y="-269" font-family="Helvetica,sans-Serif" font-size="10.00"> MOD_AST</text>
<text text-anchor="middle" x="314.5" y="-258" font-family="Helvetica,sans-Serif" font-size="10.00">mod_</text>
</g>
<!-- Node23 -->
<g id="node20" class="node">
<title>Node23</title>
<g id="a_node20"><a xlink:href="classformat_1_1_style.html" target="_top" xlink:title="ノードの表示スタイルに関するプロパティのクラス.">
<polygon fill="white" stroke="black" points="568.5,-352.5 568.5,-371.5 607.5,-371.5 607.5,-352.5 568.5,-352.5"/>
<text text-anchor="middle" x="588" y="-359.5" font-family="Helvetica,sans-Serif" font-size="10.00">Style</text>
</a>
</g>
</g>
<!-- Node3&#45;&gt;Node23 -->
<g id="edge27" class="edge">
<title>Node3&#45;&gt;Node23</title>
<path fill="none" stroke="#9a32cd" stroke-dasharray="5,2" d="M102.69,-302.32C174.31,-288.05 358.53,-260.7 492,-323 502.84,-328.06 499.74,-336.85 510,-343 528.07,-353.83 552.04,-358.5 568.41,-360.51"/>
<polygon fill="#9a32cd" stroke="#9a32cd" points="101.66,-298.96 92.57,-304.4 103.07,-305.82 101.66,-298.96"/>
<text text-anchor="middle" x="314.5" y="-367" font-family="Helvetica,sans-Serif" font-size="10.00"> childLPAD</text>
<text text-anchor="middle" x="314.5" y="-356" font-family="Helvetica,sans-Serif" font-size="10.00">childRPAD</text>
<text text-anchor="middle" x="314.5" y="-345" font-family="Helvetica,sans-Serif" font-size="10.00">name</text>
<text text-anchor="middle" x="314.5" y="-334" font-family="Helvetica,sans-Serif" font-size="10.00">operSTR</text>
<text text-anchor="middle" x="314.5" y="-323" font-family="Helvetica,sans-Serif" font-size="10.00">parenLPAD</text>
<text text-anchor="middle" x="314.5" y="-312" font-family="Helvetica,sans-Serif" font-size="10.00">parenLPAR</text>
<text text-anchor="middle" x="314.5" y="-301" font-family="Helvetica,sans-Serif" font-size="10.00">parenRPAD</text>
<text text-anchor="middle" x="314.5" y="-290" font-family="Helvetica,sans-Serif" font-size="10.00">parenRPAR</text>
</g>
<!-- Node4 -->
<g id="node4" class="node">
<title>Node4</title>
<g id="a_node4"><a xlink:href="interfaceparse_1_1_parsable.html" target="_top" xlink:title=" ">
<polygon fill="white" stroke="black" points="943.5,-542.5 943.5,-561.5 998.5,-561.5 998.5,-542.5 943.5,-542.5"/>
<text text-anchor="middle" x="971" y="-549.5" font-family="Helvetica,sans-Serif" font-size="10.00">Parsable</text>
</a>
</g>
</g>
<!-- Node4&#45;&gt;Node2 -->
<g id="edge3" class="edge">
<title>Node4&#45;&gt;Node2</title>
<path fill="none" stroke="#9a32cd" stroke-dasharray="5,2" d="M1008.87,-550.35C1033.69,-547.56 1065.97,-540.51 1089,-523 1114.91,-503.31 1128.95,-465.34 1134.36,-447.59"/>
<polygon fill="#9a32cd" stroke="#9a32cd" points="1008.37,-546.88 998.74,-551.3 1009.02,-553.85 1008.37,-546.88"/>
<text text-anchor="middle" x="1062" y="-548" font-family="Helvetica,sans-Serif" font-size="10.00"> AP</text>
</g>
<!-- Node5 -->
<g id="node5" class="node">
<title>Node5</title>
<g id="a_node5"><a xlink:href="interfaceformat_1_1_node_formattable.html" target="_top" xlink:title="XFormattableインタフェースをもつ構造オブジェクトの清書出力器．">
<polygon fill="white" stroke="black" points="925,-504.5 925,-523.5 1017,-523.5 1017,-504.5 925,-504.5"/>
<text text-anchor="middle" x="971" y="-511.5" font-family="Helvetica,sans-Serif" font-size="10.00">NodeFormattable</text>
</a>
</g>
</g>
<!-- Node5&#45;&gt;Node2 -->
<g id="edge4" class="edge">
<title>Node5&#45;&gt;Node2</title>
<path fill="none" stroke="#9a32cd" stroke-dasharray="5,2" d="M1027.19,-509.83C1047.6,-506.49 1070.31,-500.55 1089,-490 1107.4,-479.61 1122.74,-459.71 1130.83,-447.77"/>
<polygon fill="#9a32cd" stroke="#9a32cd" points="1026.46,-506.4 1017.07,-511.31 1027.47,-513.32 1026.46,-506.4"/>
<text text-anchor="middle" x="1062" y="-511" font-family="Helvetica,sans-Serif" font-size="10.00"> NF</text>
</g>
<!-- Node6&#45;&gt;Node2 -->
<g id="edge5" class="edge">
<title>Node6&#45;&gt;Node2</title>
<path fill="none" stroke="#9a32cd" stroke-dasharray="5,2" d="M357.48,-93.8C423.88,-91.3 556.81,-90.37 666,-115 881.72,-163.66 928.14,-225.25 1089,-377 1106.06,-393.09 1122.1,-415.49 1130.63,-428.19"/>
<polygon fill="#9a32cd" stroke="#9a32cd" points="357.25,-90.3 347.4,-94.2 357.54,-97.3 357.25,-90.3"/>
<text text-anchor="middle" x="833.5" y="-204" font-family="Helvetica,sans-Serif" font-size="10.00"> LOG</text>
</g>
<!-- Node6&#45;&gt;Node14 -->
<g id="edge18" class="edge">
<title>Node6&#45;&gt;Node14</title>
<path fill="none" stroke="#9a32cd" stroke-dasharray="5,2" d="M357.09,-104.63C361.11,-105.44 365.13,-106.24 369,-107 423.57,-117.71 450.72,-92.73 492,-130 512.98,-148.94 489.57,-171.47 510,-191 520.45,-200.99 535.28,-205.98 549.14,-208.39"/>
<polygon fill="#9a32cd" stroke="#9a32cd" points="357.66,-101.17 347.17,-102.61 356.27,-108.03 357.66,-101.17"/>
<text text-anchor="middle" x="430.5" y="-133" font-family="Helvetica,sans-Serif" font-size="10.00"> LOG</text>
</g>
<!-- Node7 -->
<g id="node7" class="node">
<title>Node7</title>
<g id="a_node7"><a xlink:title=" ">
<polygon fill="white" stroke="#bfbfbf" points="0,-18 0,-48 143,-48 143,-18 0,-18"/>
<text text-anchor="start" x="8" y="-36" font-family="Helvetica,sans-Serif" font-size="10.00">Map&lt; String, util.TraceLevel.</text>
<text text-anchor="middle" x="71.5" y="-25" font-family="Helvetica,sans-Serif" font-size="10.00">Level &gt;</text>
</a>
</g>
</g>
<!-- Node7&#45;&gt;Node6 -->
<g id="edge7" class="edge">
<title>Node7&#45;&gt;Node6</title>
<path fill="none" stroke="#9a32cd" stroke-dasharray="5,2" d="M148.24,-50.36C182.51,-58.53 223.44,-68.72 260,-79 268.07,-81.27 276.75,-83.93 284.73,-86.47"/>
<polygon fill="#9a32cd" stroke="#9a32cd" points="148.83,-46.9 138.3,-48 147.22,-53.71 148.83,-46.9"/>
<text text-anchor="middle" x="210.5" y="-82" font-family="Helvetica,sans-Serif" font-size="10.00"> mapLevel</text>
</g>
<!-- Node8 -->
<g id="node8" class="node">
<title>Node8</title>
<g id="a_node8"><a xlink:title=" ">
<polygon fill="white" stroke="#bfbfbf" points="46.5,-97.5 46.5,-116.5 96.5,-116.5 96.5,-97.5 46.5,-97.5"/>
<text text-anchor="middle" x="71.5" y="-104.5" font-family="Helvetica,sans-Serif" font-size="10.00">boolean</text>
</a>
</g>
</g>
<!-- Node8&#45;&gt;Node1 -->
<g id="edge32" class="edge">
<title>Node8&#45;&gt;Node1</title>
<path fill="none" stroke="#9a32cd" stroke-dasharray="5,2" d="M92.82,-90.92C132.68,-61.05 224.98,0 313.5,0 313.5,0 313.5,0 1139,0 1193.5,0 1222.85,-77.38 1231.64,-105.2"/>
<polygon fill="#9a32cd" stroke="#9a32cd" points="90.52,-88.27 84.7,-97.13 94.77,-93.84 90.52,-88.27"/>
<text text-anchor="middle" x="833.5" y="-14" font-family="Helvetica,sans-Serif" font-size="10.00"> DEBUG_REPO</text>
<text text-anchor="middle" x="833.5" y="-3" font-family="Helvetica,sans-Serif" font-size="10.00">DEBUG_TYPING</text>
</g>
<!-- Node8&#45;&gt;Node2 -->
<g id="edge31" class="edge">
<title>Node8&#45;&gt;Node2</title>
<path fill="none" stroke="#9a32cd" stroke-dasharray="5,2" d="M106.35,-96.65C207.98,-67.28 518.41,10.04 761,-61 940.32,-113.51 997.19,-161.26 1089,-324 1109.79,-360.85 1127.01,-408.49 1133.84,-428.5"/>
<polygon fill="#9a32cd" stroke="#9a32cd" points="105.24,-93.33 96.63,-99.5 107.21,-100.05 105.24,-93.33"/>
<text text-anchor="middle" x="722.5" y="-108" font-family="Helvetica,sans-Serif" font-size="10.00"> DEBUG_OPT_A</text>
<text text-anchor="middle" x="722.5" y="-97" font-family="Helvetica,sans-Serif" font-size="10.00">DEBUG_REPO</text>
<text text-anchor="middle" x="722.5" y="-86" font-family="Helvetica,sans-Serif" font-size="10.00">DEBUG_WORK</text>
<text text-anchor="middle" x="722.5" y="-75" font-family="Helvetica,sans-Serif" font-size="10.00">HAS_ARG</text>
<text text-anchor="middle" x="722.5" y="-64" font-family="Helvetica,sans-Serif" font-size="10.00">NO_ARG</text>
</g>
<!-- Node8&#45;&gt;Node6 -->
<g id="edge8" class="edge">
<title>Node8&#45;&gt;Node6</title>
<path fill="none" stroke="#9a32cd" stroke-dasharray="5,2" d="M107,-101.22C123.32,-98.77 143.11,-96.21 161,-95 204.9,-92.04 216,-94.59 260,-95 267.06,-95.07 274.64,-95.18 281.82,-95.31"/>
<polygon fill="#9a32cd" stroke="#9a32cd" points="106.17,-97.81 96.83,-102.8 107.25,-104.73 106.17,-97.81"/>
<text text-anchor="middle" x="210.5" y="-98" font-family="Helvetica,sans-Serif" font-size="10.00"> DEBUG_MOD</text>
</g>
<!-- Node8&#45;&gt;Node10 -->
<g id="edge13" class="edge">
<title>Node8&#45;&gt;Node10</title>
<path fill="none" stroke="#9a32cd" stroke-dasharray="5,2" d="M82.88,-125.64C124.35,-200.16 277.45,-475.22 308.13,-530.35"/>
<polygon fill="#9a32cd" stroke="#9a32cd" points="85.91,-123.89 77.99,-116.86 79.79,-127.3 85.91,-123.89"/>
<text text-anchor="middle" x="210.5" y="-449" font-family="Helvetica,sans-Serif" font-size="10.00"> DEBUG_POP</text>
<text text-anchor="middle" x="210.5" y="-438" font-family="Helvetica,sans-Serif" font-size="10.00">toPrint</text>
</g>
<!-- Node8&#45;&gt;Node14 -->
<g id="edge20" class="edge">
<title>Node8&#45;&gt;Node14</title>
<path fill="none" stroke="#9a32cd" stroke-dasharray="5,2" d="M106.52,-111.01C144.2,-115.66 206.67,-123.98 260,-134 315.78,-144.48 475.94,-183 549.38,-200.83"/>
<polygon fill="#9a32cd" stroke="#9a32cd" points="106.93,-107.54 96.58,-109.8 106.09,-114.49 106.93,-107.54"/>
<text text-anchor="middle" x="314.5" y="-157" font-family="Helvetica,sans-Serif" font-size="10.00"> DEBUG_REPO</text>
</g>
<!-- Node8&#45;&gt;Node23 -->
<g id="edge29" class="edge">
<title>Node8&#45;&gt;Node23</title>
<path fill="none" stroke="#9a32cd" stroke-dasharray="5,2" d="M82.19,-125.5C96.01,-149.7 123.88,-191.11 161,-209 237.14,-245.7 269.08,-196.21 351,-217 418.62,-234.17 446.48,-233.13 492,-286 509.33,-306.13 490.62,-324.82 510,-343 525.77,-357.79 551.16,-361.58 568.43,-362.31"/>
<polygon fill="#9a32cd" stroke="#9a32cd" points="85.17,-123.66 77.29,-116.58 79.04,-127.03 85.17,-123.66"/>
<text text-anchor="middle" x="314.5" y="-231" font-family="Helvetica,sans-Serif" font-size="10.00"> preoperSupress</text>
<text text-anchor="middle" x="314.5" y="-220" font-family="Helvetica,sans-Serif" font-size="10.00">toInline</text>
</g>
<!-- Node9 -->
<g id="node9" class="node">
<title>Node9</title>
<g id="a_node9"><a xlink:title=" ">
<polygon fill="white" stroke="#bfbfbf" points="300,-415.5 300,-434.5 329,-434.5 329,-415.5 300,-415.5"/>
<text text-anchor="middle" x="314.5" y="-422.5" font-family="Helvetica,sans-Serif" font-size="10.00">int</text>
</a>
</g>
</g>
<!-- Node9&#45;&gt;Node2 -->
<g id="edge9" class="edge">
<title>Node9&#45;&gt;Node2</title>
<path fill="none" stroke="#9a32cd" stroke-dasharray="5,2" d="M339.15,-426.9C386.28,-430.5 495.26,-438 587,-438 587,-438 587,-438 972,-438 1019.12,-438 1073.81,-438 1106.89,-438"/>
<polygon fill="#9a32cd" stroke="#9a32cd" points="339.29,-423.4 329.05,-426.11 338.75,-430.37 339.29,-423.4"/>
<text text-anchor="middle" x="833.5" y="-452" font-family="Helvetica,sans-Serif" font-size="10.00"> MASK_QUERY_PRINT</text>
<text text-anchor="middle" x="833.5" y="-441" font-family="Helvetica,sans-Serif" font-size="10.00">PRINT_STAGE</text>
</g>
<!-- Node12 -->
<g id="node12" class="node">
<title>Node12</title>
<g id="a_node12"><a xlink:href="classmachine_1_1_var.html" target="_top" xlink:title="フレーム中の変数参照オブジェクトref = (XType type, int vid)">
<polygon fill="white" stroke="black" points="955.5,-380.5 955.5,-399.5 986.5,-399.5 986.5,-380.5 955.5,-380.5"/>
<text text-anchor="middle" x="971" y="-387.5" font-family="Helvetica,sans-Serif" font-size="10.00">Var</text>
</a>
</g>
</g>
<!-- Node9&#45;&gt;Node12 -->
<g id="edge30" class="edge">
<title>Node9&#45;&gt;Node12</title>
<path fill="none" stroke="#9a32cd" stroke-dasharray="5,2" d="M339.45,-423.72C445.42,-418.05 870.6,-395.32 955.29,-390.79"/>
<polygon fill="#9a32cd" stroke="#9a32cd" points="338.97,-420.24 329.17,-424.27 339.34,-427.23 338.97,-420.24"/>
<text text-anchor="middle" x="722.5" y="-408" font-family="Helvetica,sans-Serif" font-size="10.00"> UNDEF</text>
</g>
<!-- Node9&#45;&gt;Node14 -->
<g id="edge19" class="edge">
<title>Node9&#45;&gt;Node14</title>
<path fill="none" stroke="#9a32cd" stroke-dasharray="5,2" d="M337.75,-413.35C342.67,-409.93 347.46,-405.79 351,-401 367.29,-378.95 353.53,-364.63 369,-342 408.29,-284.52 438.63,-289.7 492,-245 500.21,-238.13 500.53,-233.98 510,-229 522.06,-222.65 536.31,-218.37 549.25,-215.51"/>
<polygon fill="#9a32cd" stroke="#9a32cd" points="335.68,-410.52 329.01,-418.74 339.36,-416.48 335.68,-410.52"/>
<text text-anchor="middle" x="430.5" y="-356" font-family="Helvetica,sans-Serif" font-size="10.00"> BITMASK_PRINT_WIDTH</text>
<text text-anchor="middle" x="430.5" y="-345" font-family="Helvetica,sans-Serif" font-size="10.00">UNDEF</text>
</g>
<!-- Node9&#45;&gt;Node23 -->
<g id="edge28" class="edge">
<title>Node9&#45;&gt;Node23</title>
<path fill="none" stroke="#9a32cd" stroke-dasharray="5,2" d="M337.37,-410.37C341.89,-407.3 346.62,-404.06 351,-401 359.09,-395.35 359.81,-391.59 369,-388 405.31,-373.83 522.72,-365.71 568.49,-363.01"/>
<polygon fill="#9a32cd" stroke="#9a32cd" points="335.39,-407.49 329.05,-415.98 339.3,-413.29 335.39,-407.49"/>
<text text-anchor="middle" x="430.5" y="-391" font-family="Helvetica,sans-Serif" font-size="10.00"> pref</text>
</g>
<!-- Node10&#45;&gt;Node2 -->
<g id="edge10" class="edge">
<title>Node10&#45;&gt;Node2</title>
<path fill="none" stroke="#9a32cd" stroke-dasharray="5,2" d="M356.16,-552.28C408.88,-567.08 503.93,-590 587,-590 587,-590 587,-590 972,-590 1025.68,-590 1048.76,-595.54 1089,-560 1123.63,-529.41 1133.52,-470.62 1136.13,-447.59"/>
<polygon fill="#9a32cd" stroke="#9a32cd" points="357.09,-548.9 346.51,-549.52 355.17,-555.63 357.09,-548.9"/>
<text text-anchor="middle" x="833.5" y="-593" font-family="Helvetica,sans-Serif" font-size="10.00"> repo</text>
</g>
<!-- Node11 -->
<g id="node11" class="node">
<title>Node11</title>
<g id="a_node11"><a xlink:href="classutil_1_1_stack_base.html" target="_top" xlink:title=" ">
<polygon fill="white" stroke="black" points="17.5,-545.5 17.5,-564.5 125.5,-564.5 125.5,-545.5 17.5,-545.5"/>
<text text-anchor="middle" x="71.5" y="-552.5" font-family="Helvetica,sans-Serif" font-size="10.00">StackBase&lt; String &gt;</text>
</a>
</g>
</g>
<!-- Node11&#45;&gt;Node10 -->
<g id="edge12" class="edge">
<title>Node11&#45;&gt;Node10</title>
<path fill="none" stroke="#9a32cd" stroke-dasharray="5,2" d="M135.79,-551.06C181.46,-548.22 241.41,-544.49 278.69,-542.17"/>
<polygon fill="#9a32cd" stroke="#9a32cd" points="135.45,-547.58 125.69,-551.69 135.88,-554.56 135.45,-547.58"/>
<text text-anchor="middle" x="210.5" y="-552" font-family="Helvetica,sans-Serif" font-size="10.00"> NS</text>
</g>
<!-- Node12&#45;&gt;Node2 -->
<g id="edge14" class="edge">
<title>Node12&#45;&gt;Node2</title>
<path fill="none" stroke="#9a32cd" stroke-dasharray="5,2" d="M996.62,-385.04C1021.05,-381.28 1059.07,-378.64 1089,-391 1107.33,-398.57 1122.48,-416.81 1130.59,-428.21"/>
<polygon fill="#9a32cd" stroke="#9a32cd" points="996,-381.6 986.73,-386.74 997.18,-388.49 996,-381.6"/>
<text text-anchor="middle" x="1062" y="-416" font-family="Helvetica,sans-Serif" font-size="10.00"> VAR_FLEN</text>
<text text-anchor="middle" x="1062" y="-405" font-family="Helvetica,sans-Serif" font-size="10.00">VAR_FPAR</text>
<text text-anchor="middle" x="1062" y="-394" font-family="Helvetica,sans-Serif" font-size="10.00">VAR_FUNC</text>
</g>
<!-- Node13 -->
<g id="node13" class="node">
<title>Node13</title>
<g id="a_node13"><a xlink:href="classast_1_1_ast_node.html" target="_top" xlink:title="タグなしの順アクセスの子供をもてる抽象構文木のノードのクラス。">
<polygon fill="white" stroke="black" points="806,-257.5 806,-276.5 861,-276.5 861,-257.5 806,-257.5"/>
<text text-anchor="middle" x="833.5" y="-264.5" font-family="Helvetica,sans-Serif" font-size="10.00">AstNode</text>
</a>
</g>
</g>
<!-- Node13&#45;&gt;Node12 -->
<g id="edge15" class="edge">
<title>Node13&#45;&gt;Node12</title>
<path fill="none" stroke="midnightblue" d="M852.83,-283.64C881.59,-309.75 936.41,-359.51 959.42,-380.39"/>
<polygon fill="midnightblue" stroke="midnightblue" points="854.89,-280.78 845.13,-276.65 850.18,-285.96 854.89,-280.78"/>
</g>
<!-- Node14&#45;&gt;Node13 -->
<g id="edge16" class="edge">
<title>Node14&#45;&gt;Node13</title>
<path fill="none" stroke="midnightblue" d="M636.54,-221.13C687.08,-232.96 765.19,-251.24 805.85,-260.76"/>
<polygon fill="midnightblue" stroke="midnightblue" points="637.05,-217.65 626.51,-218.78 635.45,-224.47 637.05,-217.65"/>
</g>
<!-- Node17 -->
<g id="node15" class="node">
<title>Node17</title>
<g id="a_node15"><a xlink:href="interfaceast_1_1_node.html" target="_top" xlink:title=" ">
<polygon fill="white" stroke="red" points="568,-238.5 568,-257.5 608,-257.5 608,-238.5 568,-238.5"/>
<text text-anchor="middle" x="588" y="-245.5" font-family="Helvetica,sans-Serif" font-size="10.00">Node</text>
</a>
</g>
</g>
<!-- Node17&#45;&gt;Node13 -->
<g id="edge21" class="edge">
<title>Node17&#45;&gt;Node13</title>
<path fill="none" stroke="midnightblue" d="M618.09,-250.27C665.78,-253.99 759.88,-261.33 805.9,-264.92"/>
<polygon fill="midnightblue" stroke="midnightblue" points="618.35,-246.78 608.11,-249.49 617.8,-253.76 618.35,-246.78"/>
</g>
<!-- Node19 -->
<g id="node16" class="node">
<title>Node19</title>
<g id="a_node16"><a xlink:href="interfaceformat_1_1_x_formattable_1_1_navigatable.html" target="_top" xlink:title="木構造の分岐ノードとして清書可能なオブジェクトのクラス">
<polygon fill="white" stroke="red" points="523,-162.5 523,-181.5 653,-181.5 653,-162.5 523,-162.5"/>
<text text-anchor="middle" x="588" y="-169.5" font-family="Helvetica,sans-Serif" font-size="10.00">XFormattable.Navigatable</text>
</a>
</g>
</g>
<!-- Node19&#45;&gt;Node13 -->
<g id="edge22" class="edge">
<title>Node19&#45;&gt;Node13</title>
<path fill="none" stroke="midnightblue" d="M642.19,-184.03C650.22,-186.16 658.37,-188.51 666,-191 709.39,-205.17 719.58,-210.83 761,-230 779.77,-238.69 800.74,-249.7 815.08,-257.44"/>
<polygon fill="midnightblue" stroke="midnightblue" points="643.04,-180.64 632.49,-181.54 641.3,-187.42 643.04,-180.64"/>
</g>
<!-- Node20 -->
<g id="node17" class="node">
<title>Node20</title>
<g id="a_node17"><a xlink:href="interfaceformat_1_1_x_formattable_1_1_typed_formattable.html" target="_top" xlink:title="ノードの型情報をもつ書式出力可能なオブジェクトのインタフェース．">
<polygon fill="white" stroke="red" points="510,-124.5 510,-143.5 666,-143.5 666,-124.5 510,-124.5"/>
<text text-anchor="middle" x="588" y="-131.5" font-family="Helvetica,sans-Serif" font-size="10.00">XFormattable.TypedFormattable</text>
</a>
</g>
</g>
<!-- Node20&#45;&gt;Node13 -->
<g id="edge23" class="edge">
<title>Node20&#45;&gt;Node13</title>
<path fill="none" stroke="midnightblue" d="M647.13,-146.07C682.26,-155.27 726.71,-170.46 761,-194 787.91,-212.47 813.07,-242.1 825.1,-257.31"/>
<polygon fill="midnightblue" stroke="midnightblue" points="647.57,-142.57 637.02,-143.51 645.86,-149.35 647.57,-142.57"/>
</g>
<!-- Node21 -->
<g id="node18" class="node">
<title>Node21</title>
<g id="a_node18"><a xlink:title=" ">
<polygon fill="white" stroke="#bfbfbf" points="543,-314.5 543,-333.5 633,-333.5 633,-314.5 543,-314.5"/>
<text text-anchor="middle" x="588" y="-321.5" font-family="Helvetica,sans-Serif" font-size="10.00">List&lt; ast.Node &gt;</text>
</a>
</g>
</g>
<!-- Node21&#45;&gt;Node13 -->
<g id="edge24" class="edge">
<title>Node21&#45;&gt;Node13</title>
<path fill="none" stroke="#9a32cd" stroke-dasharray="5,2" d="M643.56,-317.16C677.67,-312.23 722.31,-304.58 761,-294 777.89,-289.38 796.38,-282.35 810.32,-276.62"/>
<polygon fill="#9a32cd" stroke="#9a32cd" points="642.75,-313.75 633.33,-318.61 643.72,-320.68 642.75,-313.75"/>
<text text-anchor="middle" x="722.5" y="-314" font-family="Helvetica,sans-Serif" font-size="10.00"> children</text>
</g>
<!-- Node22 -->
<g id="node19" class="node">
<title>Node22</title>
<g id="a_node19"><a xlink:title=" ">
<polygon fill="white" stroke="#bfbfbf" points="562,-276.5 562,-295.5 614,-295.5 614,-276.5 562,-276.5"/>
<text text-anchor="middle" x="588" y="-283.5" font-family="Helvetica,sans-Serif" font-size="10.00">Boolean</text>
</a>
</g>
</g>
<!-- Node22&#45;&gt;Node13 -->
<g id="edge25" class="edge">
<title>Node22&#45;&gt;Node13</title>
<path fill="none" stroke="#9a32cd" stroke-dasharray="5,2" d="M624.3,-283.25C673.47,-279.41 761.47,-272.54 805.65,-269.1"/>
<polygon fill="#9a32cd" stroke="#9a32cd" points="623.84,-279.77 614.14,-284.04 624.38,-286.75 623.84,-279.77"/>
<text text-anchor="middle" x="722.5" y="-282" font-family="Helvetica,sans-Serif" font-size="10.00"> DEBUG_CHILD</text>
</g>
<!-- Node23&#45;&gt;Node13 -->
<g id="edge26" class="edge">
<title>Node23&#45;&gt;Node13</title>
<path fill="none" stroke="#9a32cd" stroke-dasharray="5,2" d="M617.85,-360.2C653.16,-357.06 714.03,-348.58 761,-326 786.82,-313.59 811.3,-289.91 823.82,-276.64"/>
<polygon fill="#9a32cd" stroke="#9a32cd" points="617.44,-356.72 607.76,-361.01 618.01,-363.69 617.44,-356.72"/>
<text text-anchor="middle" x="722.5" y="-353" font-family="Helvetica,sans-Serif" font-size="10.00"> sty</text>
</g>
</g>
</svg>
        <g id="navigator" transform="translate(0 0)" fill="#404254">
                <rect fill="#f2f5e9" fill-opacity="0.5" stroke="#606060" stroke-width=".5" x="0" y="0" width="60" height="60"/>
                <use id="zoomplus" xlink:href="#zoomPlus" x="17" y="9" onmousedown="handleZoom(evt,'in')"/>
                <use id="zoomminus" xlink:href="#zoomMin" x="42" y="9" onmousedown="handleZoom(evt,'out')"/>
                <use id="reset" xlink:href="#resetDef" x="30" y="36" onmousedown="handleReset()"/>
                <g id="arrowUp" xlink:href="#dirArrow" transform="translate(30 24)" onmousedown="handlePan(0,-1)">
                  <use xlink:href="#rim" fill="#404040">
                        <set attributeName="fill" to="#808080" begin="arrowUp.mouseover" end="arrowUp.mouseout"/>
                  </use>
                  <path fill="none" stroke="white" stroke-width="1.5" d="M0,-3.0v7 M-2.5,-0.5L0,-3.0L2.5,-0.5"/>
                </g>
                <g id="arrowRight" xlink:href="#dirArrow" transform="rotate(90) translate(36 -43)" onmousedown="handlePan(1,0)">
                  <use xlink:href="#rim" fill="#404040">
                        <set attributeName="fill" to="#808080" begin="arrowRight.mouseover" end="arrowRight.mouseout"/>
                  </use>
                  <path fill="none" stroke="white" stroke-width="1.5" d="M0,-3.0v7 M-2.5,-0.5L0,-3.0L2.5,-0.5"/>
                </g>
                <g id="arrowDown" xlink:href="#dirArrow" transform="rotate(180) translate(-30 -48)" onmousedown="handlePan(0,1)">
                  <use xlink:href="#rim" fill="#404040">
                        <set attributeName="fill" to="#808080" begin="arrowDown.mouseover" end="arrowDown.mouseout"/>
                  </use>
                  <path fill="none" stroke="white" stroke-width="1.5" d="M0,-3.0v7 M-2.5,-0.5L0,-3.0L2.5,-0.5"/>
                </g>
                <g id="arrowLeft" xlink:href="#dirArrow" transform="rotate(270) translate(-36 17)" onmousedown="handlePan(-1,0)">
                  <use xlink:href="#rim" fill="#404040">
                        <set attributeName="fill" to="#808080" begin="arrowLeft.mouseover" end="arrowLeft.mouseout"/>
                  </use>
                  <path fill="none" stroke="white" stroke-width="1.5" d="M0,-3.0v7 M-2.5,-0.5L0,-3.0L2.5,-0.5"/>
                </g>
        </g>
        <svg viewBox="0 0 15 15" width="100%" height="30px" preserveAspectRatio="xMaxYMin meet">
         <g id="arrow_out" transform="scale(0.3 0.3)">
          <a xlink:href="classcompile_1_1_x_c_typing__coll__graph_org.svg" target="_base">
           <rect id="button" ry="5" rx="5" y="6" x="6" height="38" width="38"
                fill="#f2f5e9" fill-opacity="0.5" stroke="#606060" stroke-width="1.0"/>
           <path id="arrow"
             d="M 11.500037,31.436501 C 11.940474,20.09759 22.043105,11.32322 32.158766,21.979434 L 37.068811,17.246167 C 37.068811,17.246167 37.088388,32 37.088388,32 L 22.160133,31.978069 C 22.160133,31.978069 26.997745,27.140456 26.997745,27.140456 C 18.528582,18.264221 13.291696,25.230495 11.500037,31.436501 z"
             style="fill:#404040;"/>
          </a>
         </g>
        </svg>
</svg>
