<?xml version="1.0" encoding="UTF-8" standalone="no"?>
<!DOCTYPE svg PUBLIC "-//W3C//DTD SVG 1.1//EN"
 "http://www.w3.org/Graphics/SVG/1.1/DTD/svg11.dtd">
<!-- Generated by graphviz version 2.47.1 (20210417.1919)
 -->
<!-- Title: toString Pages: 1 -->
<!--zoomable 442 -->
<svg id="main" version="1.1" xmlns="http://www.w3.org/2000/svg" xmlns:xlink="http://www.w3.org/1999/xlink" xml:space="preserve" onload="init(evt)">
<style type="text/css"><![CDATA[
.edge:hover path { stroke: red; }
.edge:hover polygon { stroke: red; fill: red; }
]]></style>
<script type="text/javascript"><![CDATA[
var edges = document.getElementsByTagName('g');
if (edges && edges.length) {
  for (var i=0;i<edges.length;i++) {
    if (edges[i].id.substr(0,4)=='edge') {
      edges[i].setAttribute('class','edge');
    }
  }
}
]]></script>
        <defs>
                <circle id="rim" cx="0" cy="0" r="7"/>
                <circle id="rim2" cx="0" cy="0" r="3.5"/>
                <g id="zoomPlus">
                        <use xlink:href="#rim" fill="#404040">
                                <set attributeName="fill" to="#808080" begin="zoomplus.mouseover" end="zoomplus.mouseout"/>
                        </use>
                        <path d="M-4,0h8M0,-4v8" fill="none" stroke="white" stroke-width="1.5" pointer-events="none"/>
                </g>
                <g id="zoomMin">
                        <use xlink:href="#rim" fill="#404040">
                                <set attributeName="fill" to="#808080" begin="zoomminus.mouseover" end="zoomminus.mouseout"/>
                        </use>
                        <path d="M-4,0h8" fill="none" stroke="white" stroke-width="1.5" pointer-events="none"/>
                </g>
                <g id="dirArrow">
                        <path fill="none" stroke="white" stroke-width="1.5" d="M0,-3.0v7 M-2.5,-0.5L0,-3.0L2.5,-0.5"/>
                </g>
               <g id="resetDef">
                       <use xlink:href="#rim2" fill="#404040">
                               <set attributeName="fill" to="#808080" begin="reset.mouseover" end="reset.mouseout"/>
                       </use>
               </g>
        </defs>

<script type="text/javascript">
var viewWidth = 658;
var viewHeight = 442;
var sectionId = 'dynsection-2';
</script>
<script xlink:href="svgpan.js"/>
<svg id="graph" class="graph">
<g id="viewport">
<title>toString</title>
<polygon fill="white" stroke="transparent" points="-4,4 -4,-438 654,-438 654,4 -4,4"/>
<!-- Node1 -->
<g id="node1" class="node">
<title>Node1</title>
<g id="a_node1"><a xlink:title="リサイクラーオブジェクトを回収しつつ、その文字列表現を返す。">
<polygon fill="#bfbfbf" stroke="black" points="600,-196.5 600,-215.5 650,-215.5 650,-196.5 600,-196.5"/>
<text text-anchor="middle" x="625" y="-203.5" font-family="Helvetica,sans-Serif" font-size="10.00">toString</text>
</a>
</g>
</g>
<!-- Node2 -->
<g id="node2" class="node">
<title>Node2</title>
<g id="a_node2"><a xlink:href="classutil_1_1_util.html#a4581c93b5836ca546d74ed8e57228386" target="_top" xlink:title="要素の型パラメータTをもつ配列と、YamlBufの初期化関数と要素の変換関数を受け取り、清書文字列を返す。">
<polygon fill="white" stroke="black" points="434,-414.5 434,-433.5 542,-433.5 542,-414.5 434,-414.5"/>
<text text-anchor="middle" x="488" y="-421.5" font-family="Helvetica,sans-Serif" font-size="10.00">util.Util.arrayToString</text>
</a>
</g>
</g>
<!-- Node1&#45;&gt;Node2 -->
<g id="edge1" class="edge">
<title>Node1&#45;&gt;Node2</title>
<path fill="none" stroke="midnightblue" d="M624.08,-225.55C623.14,-265.34 615.14,-356.09 564,-405 557.88,-410.85 550.24,-414.97 542.18,-417.86"/>
<polygon fill="midnightblue" stroke="midnightblue" points="627.58,-225.59 624.19,-215.55 620.58,-225.51 627.58,-225.59"/>
</g>
<!-- Node3 -->
<g id="node3" class="node">
<title>Node3</title>
<g id="a_node3"><a xlink:href="classast_1_1_ast_scan_from.html#a3137357d0abb2bd75321d6e19024956a" target="_top" xlink:title="ノード名文字列を返す。">
<polygon fill="white" stroke="black" points="430.5,-376.5 430.5,-395.5 545.5,-395.5 545.5,-376.5 430.5,-376.5"/>
<text text-anchor="middle" x="488" y="-383.5" font-family="Helvetica,sans-Serif" font-size="10.00">ast.AstScanFrom.data</text>
</a>
</g>
</g>
<!-- Node1&#45;&gt;Node3 -->
<g id="edge2" class="edge">
<title>Node1&#45;&gt;Node3</title>
<path fill="none" stroke="midnightblue" d="M622.43,-225.75C618.63,-259.78 605.9,-329.42 564,-367 558.7,-371.75 552.38,-375.35 545.69,-378.07"/>
<polygon fill="midnightblue" stroke="midnightblue" points="625.92,-225.97 623.4,-215.68 618.95,-225.29 625.92,-225.97"/>
</g>
<!-- Node4 -->
<g id="node4" class="node">
<title>Node4</title>
<g id="a_node4"><a xlink:href="classframe_1_1_entry.html#a3137357d0abb2bd75321d6e19024956a" target="_top" xlink:title="メモリセルを表す文字列を返す。">
<polygon fill="white" stroke="black" points="444,-338.5 444,-357.5 532,-357.5 532,-338.5 444,-338.5"/>
<text text-anchor="middle" x="488" y="-345.5" font-family="Helvetica,sans-Serif" font-size="10.00">frame.Entry.data</text>
</a>
</g>
</g>
<!-- Node1&#45;&gt;Node4 -->
<g id="edge3" class="edge">
<title>Node1&#45;&gt;Node4</title>
<path fill="none" stroke="midnightblue" d="M619.87,-225.68C613.08,-253.05 596.89,-302.26 564,-329 554.93,-336.37 543.37,-340.93 532.05,-343.73"/>
<polygon fill="midnightblue" stroke="midnightblue" points="623.33,-226.25 622.16,-215.72 616.51,-224.68 623.33,-226.25"/>
</g>
<!-- Node6 -->
<g id="node6" class="node">
<title>Node6</title>
<g id="a_node6"><a xlink:href="classframe_1_1_frame_stack_uni.html#a2642133c8586f59378e1bc16c614af68" target="_top" xlink:title="フレームポインタfpからフレームの文字列表現を返す">
<polygon fill="white" stroke="black" points="418,-289 418,-319 558,-319 558,-289 418,-289"/>
<text text-anchor="start" x="426" y="-307" font-family="Helvetica,sans-Serif" font-size="10.00">frame.FrameStackUni.frame</text>
<text text-anchor="middle" x="488" y="-296" font-family="Helvetica,sans-Serif" font-size="10.00">ToString</text>
</a>
</g>
</g>
<!-- Node1&#45;&gt;Node6 -->
<g id="edge5" class="edge">
<title>Node1&#45;&gt;Node6</title>
<path fill="none" stroke="midnightblue" d="M613.33,-224.55C602.81,-241.31 585.23,-265.49 564,-280 559.03,-283.39 553.56,-286.33 547.9,-288.87"/>
<polygon fill="midnightblue" stroke="midnightblue" points="616.52,-226.05 618.69,-215.68 610.53,-222.43 616.52,-226.05"/>
</g>
<!-- Node7 -->
<g id="node7" class="node">
<title>Node7</title>
<g id="a_node7"><a xlink:href="classutil_1_1_multi_words_option.html#ab3af84bcf0992ccc8fa7e7a21618dc65" target="_top" xlink:title="オプション引数の可変長文字列を受け取る．">
<polygon fill="white" stroke="black" points="425,-240 425,-270 551,-270 551,-240 425,-240"/>
<text text-anchor="start" x="433" y="-258" font-family="Helvetica,sans-Serif" font-size="10.00">util.MultiWordsOption.get</text>
<text text-anchor="middle" x="488" y="-247" font-family="Helvetica,sans-Serif" font-size="10.00">OptionValue</text>
</a>
</g>
</g>
<!-- Node1&#45;&gt;Node7 -->
<g id="edge6" class="edge">
<title>Node1&#45;&gt;Node7</title>
<path fill="none" stroke="midnightblue" d="M593,-219.51C583.73,-223.38 573.51,-227.5 564,-231 555.66,-234.07 546.72,-237.12 538.02,-239.98"/>
<polygon fill="midnightblue" stroke="midnightblue" points="594.39,-222.72 602.23,-215.59 591.66,-216.27 594.39,-222.72"/>
</g>
<!-- Node8 -->
<g id="node8" class="node">
<title>Node8</title>
<g id="a_node8"><a xlink:href="classmachine_1_1_o_v_machine.html#afcb7bfddbaa58f232f8b97b5b1a6b74f" target="_top" xlink:title="文字列表現を返す">
<polygon fill="white" stroke="black" points="412,-191 412,-221 564,-221 564,-191 412,-191"/>
<text text-anchor="start" x="420" y="-209" font-family="Helvetica,sans-Serif" font-size="10.00">machine.OVMachine.opStacks</text>
<text text-anchor="middle" x="488" y="-198" font-family="Helvetica,sans-Serif" font-size="10.00">ToString</text>
</a>
</g>
</g>
<!-- Node1&#45;&gt;Node8 -->
<g id="edge7" class="edge">
<title>Node1&#45;&gt;Node8</title>
<path fill="none" stroke="midnightblue" d="M589.65,-206C581.75,-206 573.04,-206 564.15,-206"/>
<polygon fill="midnightblue" stroke="midnightblue" points="589.86,-209.5 599.86,-206 589.86,-202.5 589.86,-209.5"/>
</g>
<!-- Node11 -->
<g id="node11" class="node">
<title>Node11</title>
<g id="a_node11"><a xlink:href="classmachine_1_1_o_v_machine.html#ad146fa8579a5f8a876c4688cc5a68520" target="_top" xlink:title="文字列表現を返す">
<polygon fill="white" stroke="black" points="213,-155.5 213,-174.5 357,-174.5 357,-155.5 213,-155.5"/>
<text text-anchor="middle" x="285" y="-162.5" font-family="Helvetica,sans-Serif" font-size="10.00">machine.OVMachine.toString</text>
</a>
</g>
</g>
<!-- Node1&#45;&gt;Node11 -->
<g id="edge12" class="edge">
<title>Node1&#45;&gt;Node11</title>
<path fill="none" stroke="midnightblue" d="M595.53,-192.45C585.75,-188.39 574.59,-184.38 564,-182 494.88,-166.49 413.83,-163.16 357.14,-163.16"/>
<polygon fill="midnightblue" stroke="midnightblue" points="594.21,-195.7 604.78,-196.48 597.01,-189.28 594.21,-195.7"/>
</g>
<!-- Node12 -->
<g id="node12" class="node">
<title>Node12</title>
<g id="a_node12"><a xlink:href="classframe_1_1_frame_stack_uni.html#ad146fa8579a5f8a876c4688cc5a68520" target="_top" xlink:title="フレームスタックの文字列表現を返す.">
<polygon fill="white" stroke="black" points="4.5,-38.5 4.5,-57.5 153.5,-57.5 153.5,-38.5 4.5,-38.5"/>
<text text-anchor="middle" x="79" y="-45.5" font-family="Helvetica,sans-Serif" font-size="10.00">frame.FrameStackUni.toString</text>
</a>
</g>
</g>
<!-- Node1&#45;&gt;Node12 -->
<g id="edge11" class="edge">
<title>Node1&#45;&gt;Node12</title>
<path fill="none" stroke="midnightblue" d="M606.84,-189.63C595.5,-179.68 579.86,-167.48 564,-160 487.46,-123.9 243.83,-77.33 134.28,-57.56"/>
<polygon fill="midnightblue" stroke="midnightblue" points="604.52,-192.25 614.27,-196.39 609.23,-187.07 604.52,-192.25"/>
</g>
<!-- Node13 -->
<g id="node13" class="node">
<title>Node13</title>
<g id="a_node13"><a xlink:href="classutil_1_1_stack_base_1_1_stat.html#ad146fa8579a5f8a876c4688cc5a68520" target="_top" xlink:title="文字列表現を返す。">
<polygon fill="white" stroke="black" points="419,-76.5 419,-95.5 557,-95.5 557,-76.5 419,-76.5"/>
<text text-anchor="middle" x="488" y="-83.5" font-family="Helvetica,sans-Serif" font-size="10.00">util.StackBase.Stat.toString</text>
</a>
</g>
</g>
<!-- Node1&#45;&gt;Node13 -->
<g id="edge13" class="edge">
<title>Node1&#45;&gt;Node13</title>
<path fill="none" stroke="midnightblue" d="M616.78,-186.79C607.67,-165.1 590,-130.22 564,-110 555.91,-103.71 546.12,-99.04 536.32,-95.59"/>
<polygon fill="midnightblue" stroke="midnightblue" points="613.6,-188.27 620.56,-196.25 620.1,-185.67 613.6,-188.27"/>
</g>
<!-- Node14 -->
<g id="node14" class="node">
<title>Node14</title>
<g id="a_node14"><a xlink:href="classutil_1_1_stack_base.html#a1ff4d6db5a609d810cedf042860ce447" target="_top" xlink:title="スタックの文字列表現を返す。">
<polygon fill="white" stroke="black" points="429.5,-38.5 429.5,-57.5 546.5,-57.5 546.5,-38.5 429.5,-38.5"/>
<text text-anchor="middle" x="488" y="-45.5" font-family="Helvetica,sans-Serif" font-size="10.00">util.StackBase.toString</text>
</a>
</g>
</g>
<!-- Node1&#45;&gt;Node14 -->
<g id="edge14" class="edge">
<title>Node1&#45;&gt;Node14</title>
<path fill="none" stroke="midnightblue" d="M621.05,-185.98C615.49,-155.61 600.54,-98.14 564,-67 558.89,-62.64 552.91,-59.26 546.6,-56.65"/>
<polygon fill="midnightblue" stroke="midnightblue" points="617.65,-186.89 622.74,-196.18 624.56,-185.74 617.65,-186.89"/>
</g>
<!-- Node15 -->
<g id="node15" class="node">
<title>Node15</title>
<g id="a_node15"><a xlink:href="classutil_1_1_auto_stack.html#aed8f716239f4d48b8d22dc2a80c52263" target="_top" xlink:title="内部仕様のYamlBufの初期化器yamlInitializerと要素の清書器elemWriterをもつ清書出力文字列を返す実装手続き。">
<polygon fill="white" stroke="black" points="428,-0.5 428,-19.5 548,-19.5 548,-0.5 428,-0.5"/>
<text text-anchor="middle" x="488" y="-7.5" font-family="Helvetica,sans-Serif" font-size="10.00">util.AutoStack.toString_</text>
</a>
</g>
</g>
<!-- Node1&#45;&gt;Node15 -->
<g id="edge15" class="edge">
<title>Node1&#45;&gt;Node15</title>
<path fill="none" stroke="midnightblue" d="M623.17,-185.87C620.55,-149.13 609.58,-71.13 564,-29 559.36,-24.72 553.9,-21.36 548.07,-18.75"/>
<polygon fill="midnightblue" stroke="midnightblue" points="619.7,-186.47 623.77,-196.25 626.69,-186.07 619.7,-186.47"/>
</g>
<!-- Node5 -->
<g id="node5" class="node">
<title>Node5</title>
<g id="a_node5"><a xlink:href="classframe_1_1_entry.html#ad146fa8579a5f8a876c4688cc5a68520" target="_top" xlink:title="メモリセルの内容を表す文字列を返す。">
<polygon fill="white" stroke="black" points="233.5,-338.5 233.5,-357.5 336.5,-357.5 336.5,-338.5 233.5,-338.5"/>
<text text-anchor="middle" x="285" y="-345.5" font-family="Helvetica,sans-Serif" font-size="10.00">frame.Entry.toString</text>
</a>
</g>
</g>
<!-- Node4&#45;&gt;Node5 -->
<g id="edge4" class="edge">
<title>Node4&#45;&gt;Node5</title>
<path fill="none" stroke="midnightblue" d="M433.56,-348C403.47,-348 366.1,-348 336.5,-348"/>
<polygon fill="midnightblue" stroke="midnightblue" points="433.88,-351.5 443.88,-348 433.88,-344.5 433.88,-351.5"/>
</g>
<!-- Node9 -->
<g id="node9" class="node">
<title>Node9</title>
<g id="a_node9"><a xlink:href="classmachine_1_1_o_v_machine.html#a4171d94cd3db7876e92db22ba965dab7" target="_top" xlink:title="与えられた環境と呼び出し情報のもとで、仮想機械プログラムを実行する。">
<polygon fill="white" stroke="black" points="194,-196.5 194,-215.5 376,-215.5 376,-196.5 194,-196.5"/>
<text text-anchor="middle" x="285" y="-203.5" font-family="Helvetica,sans-Serif" font-size="10.00">machine.OVMachine.execCommands</text>
</a>
</g>
</g>
<!-- Node8&#45;&gt;Node9 -->
<g id="edge8" class="edge">
<title>Node8&#45;&gt;Node9</title>
<path fill="none" stroke="midnightblue" d="M401.71,-206C393.31,-206 384.76,-206 376.31,-206"/>
<polygon fill="midnightblue" stroke="midnightblue" points="401.87,-209.5 411.87,-206 401.87,-202.5 401.87,-209.5"/>
</g>
<!-- Node8&#45;&gt;Node11 -->
<g id="edge10" class="edge">
<title>Node8&#45;&gt;Node11</title>
<path fill="none" stroke="midnightblue" d="M403.42,-188.95C379.31,-184.03 353.86,-178.84 332.84,-174.55"/>
<polygon fill="midnightblue" stroke="midnightblue" points="402.8,-192.4 413.3,-190.97 404.2,-185.54 402.8,-192.4"/>
</g>
<!-- Node10 -->
<g id="node10" class="node">
<title>Node10</title>
<g id="a_node10"><a xlink:href="classmachine_1_1_x_machine.html#a9775fe1388ad800fb595915ddbee7f95" target="_top" xlink:title="終了イベントに対して、指定されたタグマップを用いて、実行系を動作させる。">
<polygon fill="white" stroke="black" points="0,-196.5 0,-215.5 158,-215.5 158,-196.5 0,-196.5"/>
<text text-anchor="middle" x="79" y="-203.5" font-family="Helvetica,sans-Serif" font-size="10.00">machine.XMachine.execBLOCK</text>
</a>
</g>
</g>
<!-- Node9&#45;&gt;Node10 -->
<g id="edge9" class="edge">
<title>Node9&#45;&gt;Node10</title>
<path fill="none" stroke="midnightblue" d="M183.8,-206C175.16,-206 166.5,-206 158.07,-206"/>
<polygon fill="midnightblue" stroke="midnightblue" points="183.93,-209.5 193.93,-206 183.93,-202.5 183.93,-209.5"/>
</g>
<!-- Node15&#45;&gt;Node12 -->
<g id="edge16" class="edge">
<title>Node15&#45;&gt;Node12</title>
<path fill="none" stroke="midnightblue" d="M427.81,-21.32C411.1,-24.19 392.88,-27.02 376,-29 300.56,-37.85 213.79,-42.81 153.79,-45.42"/>
<polygon fill="midnightblue" stroke="midnightblue" points="428.74,-24.71 437.98,-19.54 427.53,-17.82 428.74,-24.71"/>
</g>
<!-- Node16 -->
<g id="node16" class="node">
<title>Node16</title>
<g id="a_node16"><a xlink:href="classutil_1_1_auto_stack.html#ad146fa8579a5f8a876c4688cc5a68520" target="_top" xlink:title="清書出力文字列を返す．">
<polygon fill="white" stroke="black" points="227.5,-0.5 227.5,-19.5 342.5,-19.5 342.5,-0.5 227.5,-0.5"/>
<text text-anchor="middle" x="285" y="-7.5" font-family="Helvetica,sans-Serif" font-size="10.00">util.AutoStack.toString</text>
</a>
</g>
</g>
<!-- Node15&#45;&gt;Node16 -->
<g id="edge17" class="edge">
<title>Node15&#45;&gt;Node16</title>
<path fill="none" stroke="midnightblue" d="M417.5,-10C393.09,-10 365.97,-10 342.73,-10"/>
<polygon fill="midnightblue" stroke="midnightblue" points="417.78,-13.5 427.78,-10 417.78,-6.5 417.78,-13.5"/>
</g>
<!-- Node16&#45;&gt;Node12 -->
<g id="edge18" class="edge">
<title>Node16&#45;&gt;Node12</title>
<path fill="none" stroke="midnightblue" d="M222.7,-21.42C193.51,-26.86 159.01,-33.28 131.24,-38.46"/>
<polygon fill="midnightblue" stroke="midnightblue" points="223.6,-24.81 232.79,-19.54 222.31,-17.93 223.6,-24.81"/>
</g>
</g>
</svg>
        <g id="navigator" transform="translate(0 0)" fill="#404254">
                <rect fill="#f2f5e9" fill-opacity="0.5" stroke="#606060" stroke-width=".5" x="0" y="0" width="60" height="60"/>
                <use id="zoomplus" xlink:href="#zoomPlus" x="17" y="9" onmousedown="handleZoom(evt,'in')"/>
                <use id="zoomminus" xlink:href="#zoomMin" x="42" y="9" onmousedown="handleZoom(evt,'out')"/>
                <use id="reset" xlink:href="#resetDef" x="30" y="36" onmousedown="handleReset()"/>
                <g id="arrowUp" xlink:href="#dirArrow" transform="translate(30 24)" onmousedown="handlePan(0,-1)">
                  <use xlink:href="#rim" fill="#404040">
                        <set attributeName="fill" to="#808080" begin="arrowUp.mouseover" end="arrowUp.mouseout"/>
                  </use>
                  <path fill="none" stroke="white" stroke-width="1.5" d="M0,-3.0v7 M-2.5,-0.5L0,-3.0L2.5,-0.5"/>
                </g>
                <g id="arrowRight" xlink:href="#dirArrow" transform="rotate(90) translate(36 -43)" onmousedown="handlePan(1,0)">
                  <use xlink:href="#rim" fill="#404040">
                        <set attributeName="fill" to="#808080" begin="arrowRight.mouseover" end="arrowRight.mouseout"/>
                  </use>
                  <path fill="none" stroke="white" stroke-width="1.5" d="M0,-3.0v7 M-2.5,-0.5L0,-3.0L2.5,-0.5"/>
                </g>
                <g id="arrowDown" xlink:href="#dirArrow" transform="rotate(180) translate(-30 -48)" onmousedown="handlePan(0,1)">
                  <use xlink:href="#rim" fill="#404040">
                        <set attributeName="fill" to="#808080" begin="arrowDown.mouseover" end="arrowDown.mouseout"/>
                  </use>
                  <path fill="none" stroke="white" stroke-width="1.5" d="M0,-3.0v7 M-2.5,-0.5L0,-3.0L2.5,-0.5"/>
                </g>
                <g id="arrowLeft" xlink:href="#dirArrow" transform="rotate(270) translate(-36 17)" onmousedown="handlePan(-1,0)">
                  <use xlink:href="#rim" fill="#404040">
                        <set attributeName="fill" to="#808080" begin="arrowLeft.mouseover" end="arrowLeft.mouseout"/>
                  </use>
                  <path fill="none" stroke="white" stroke-width="1.5" d="M0,-3.0v7 M-2.5,-0.5L0,-3.0L2.5,-0.5"/>
                </g>
        </g>
        <svg viewBox="0 0 15 15" width="100%" height="30px" preserveAspectRatio="xMaxYMin meet">
         <g id="arrow_out" transform="scale(0.3 0.3)">
          <a xlink:href="classutil_1_1_bufs_a1527ff4e7fbe5000e2eab9f92f540d00_icgraph_org.svg" target="_base">
           <rect id="button" ry="5" rx="5" y="6" x="6" height="38" width="38"
                fill="#f2f5e9" fill-opacity="0.5" stroke="#606060" stroke-width="1.0"/>
           <path id="arrow"
             d="M 11.500037,31.436501 C 11.940474,20.09759 22.043105,11.32322 32.158766,21.979434 L 37.068811,17.246167 C 37.068811,17.246167 37.088388,32 37.088388,32 L 22.160133,31.978069 C 22.160133,31.978069 26.997745,27.140456 26.997745,27.140456 C 18.528582,18.264221 13.291696,25.230495 11.500037,31.436501 z"
             style="fill:#404040;"/>
          </a>
         </g>
        </svg>
</svg>
