<?xml version="1.0" encoding="UTF-8" standalone="no"?>
<!DOCTYPE svg PUBLIC "-//W3C//DTD SVG 1.1//EN"
 "http://www.w3.org/Graphics/SVG/1.1/DTD/svg11.dtd">
<!-- Generated by graphviz version 2.47.1 (20210417.1919)
 -->
<!-- Title: XCompiler Pages: 1 -->
<!--zoomable 623 -->
<svg id="main" version="1.1" xmlns="http://www.w3.org/2000/svg" xmlns:xlink="http://www.w3.org/1999/xlink" xml:space="preserve" onload="init(evt)">
<style type="text/css"><![CDATA[
.edge:hover path { stroke: red; }
.edge:hover polygon { stroke: red; fill: red; }
]]></style>
<script type="text/javascript"><![CDATA[
var edges = document.getElementsByTagName('g');
if (edges && edges.length) {
  for (var i=0;i<edges.length;i++) {
    if (edges[i].id.substr(0,4)=='edge') {
      edges[i].setAttribute('class','edge');
    }
  }
}
]]></script>
        <defs>
                <circle id="rim" cx="0" cy="0" r="7"/>
                <circle id="rim2" cx="0" cy="0" r="3.5"/>
                <g id="zoomPlus">
                        <use xlink:href="#rim" fill="#404040">
                                <set attributeName="fill" to="#808080" begin="zoomplus.mouseover" end="zoomplus.mouseout"/>
                        </use>
                        <path d="M-4,0h8M0,-4v8" fill="none" stroke="white" stroke-width="1.5" pointer-events="none"/>
                </g>
                <g id="zoomMin">
                        <use xlink:href="#rim" fill="#404040">
                                <set attributeName="fill" to="#808080" begin="zoomminus.mouseover" end="zoomminus.mouseout"/>
                        </use>
                        <path d="M-4,0h8" fill="none" stroke="white" stroke-width="1.5" pointer-events="none"/>
                </g>
                <g id="dirArrow">
                        <path fill="none" stroke="white" stroke-width="1.5" d="M0,-3.0v7 M-2.5,-0.5L0,-3.0L2.5,-0.5"/>
                </g>
               <g id="resetDef">
                       <use xlink:href="#rim2" fill="#404040">
                               <set attributeName="fill" to="#808080" begin="reset.mouseover" end="reset.mouseout"/>
                       </use>
               </g>
        </defs>

<script type="text/javascript">
var viewWidth = 1167;
var viewHeight = 623;
var sectionId = 'dynsection-1';
</script>
<script xlink:href="svgpan.js"/>
<svg id="graph" class="graph">
<g id="viewport">
<title>XCompiler</title>
<polygon fill="white" stroke="transparent" points="-4,4 -4,-619 1163,-619 1163,4 -4,4"/>
<!-- Node1 -->
<g id="node1" class="node">
<title>Node1</title>
<g id="a_node1"><a xlink:title="クエリのコンパイル系モジュール。">
<polygon fill="#bfbfbf" stroke="black" points="1097,-459.5 1097,-478.5 1159,-478.5 1159,-459.5 1097,-459.5"/>
<text text-anchor="middle" x="1128" y="-466.5" font-family="Helvetica,sans-Serif" font-size="10.00">XCompiler</text>
</a>
</g>
</g>
<!-- Node2 -->
<g id="node2" class="node">
<title>Node2</title>
<g id="a_node2"><a xlink:title=" ">
<polygon fill="white" stroke="#bfbfbf" points="50.5,-385.5 50.5,-404.5 92.5,-404.5 92.5,-385.5 50.5,-385.5"/>
<text text-anchor="middle" x="71.5" y="-392.5" font-family="Helvetica,sans-Serif" font-size="10.00">String</text>
</a>
</g>
</g>
<!-- Node2&#45;&gt;Node1 -->
<g id="edge1" class="edge">
<title>Node2&#45;&gt;Node1</title>
<path fill="none" stroke="#9a32cd" stroke-dasharray="5,2" d="M82.46,-413.5C111.48,-464.61 201.34,-604 318.5,-604 318.5,-604 318.5,-604 962,-604 1015.47,-604 1037.83,-610.12 1079,-576 1110.2,-550.15 1121.9,-499.83 1125.56,-478.71"/>
<polygon fill="#9a32cd" stroke="#9a32cd" points="85.39,-411.57 77.48,-404.52 79.27,-414.97 85.39,-411.57"/>
<text text-anchor="middle" x="712.5" y="-607" font-family="Helvetica,sans-Serif" font-size="10.00"> MOD_COMPILE</text>
</g>
<!-- Node6 -->
<g id="node6" class="node">
<title>Node6</title>
<g id="a_node6"><a xlink:href="classutil_1_1_trace_level.html" target="_top" xlink:title="ログ出力用のトレースレベルを扱うクラス。">
<polygon fill="white" stroke="black" points="287,-260.5 287,-279.5 352,-279.5 352,-260.5 287,-260.5"/>
<text text-anchor="middle" x="319.5" y="-267.5" font-family="Helvetica,sans-Serif" font-size="10.00">TraceLevel</text>
</a>
</g>
</g>
<!-- Node2&#45;&gt;Node6 -->
<g id="edge6" class="edge">
<title>Node2&#45;&gt;Node6</title>
<path fill="none" stroke="#9a32cd" stroke-dasharray="5,2" d="M102.02,-382.48C119.06,-375.55 141.01,-367.13 161,-361 204.19,-347.76 221.36,-361.39 260,-338 284.51,-323.16 304.01,-294.52 313.04,-279.59"/>
<polygon fill="#9a32cd" stroke="#9a32cd" points="100.52,-379.31 92.61,-386.36 103.19,-385.78 100.52,-379.31"/>
<text text-anchor="middle" x="210.5" y="-408" font-family="Helvetica,sans-Serif" font-size="10.00"> DELIM_LEVELS</text>
<text text-anchor="middle" x="210.5" y="-397" font-family="Helvetica,sans-Serif" font-size="10.00">DELIM_NAMES</text>
<text text-anchor="middle" x="210.5" y="-386" font-family="Helvetica,sans-Serif" font-size="10.00">MOD_DEFAULT</text>
<text text-anchor="middle" x="210.5" y="-375" font-family="Helvetica,sans-Serif" font-size="10.00">OUT_DELIM_NAMES</text>
<text text-anchor="middle" x="210.5" y="-364" font-family="Helvetica,sans-Serif" font-size="10.00">USAGE_STR</text>
</g>
<!-- Node12 -->
<g id="node12" class="node">
<title>Node12</title>
<g id="a_node12"><a xlink:href="classast_1_1_ast_node_base.html" target="_top" xlink:title=" ">
<polygon fill="white" stroke="black" points="549.5,-364.5 549.5,-383.5 626.5,-383.5 626.5,-364.5 549.5,-364.5"/>
<text text-anchor="middle" x="588" y="-371.5" font-family="Helvetica,sans-Serif" font-size="10.00">AstNodeBase</text>
</a>
</g>
</g>
<!-- Node2&#45;&gt;Node12 -->
<g id="edge13" class="edge">
<title>Node2&#45;&gt;Node12</title>
<path fill="none" stroke="#9a32cd" stroke-dasharray="5,2" d="M102.55,-403.97C119.53,-408.57 141.26,-413.69 161,-416 204.7,-421.11 216.75,-424.11 260,-416 268.44,-414.42 269.67,-411.06 278,-409 373.92,-385.34 490.61,-377.62 549.35,-375.14"/>
<polygon fill="#9a32cd" stroke="#9a32cd" points="103.22,-400.52 92.65,-401.2 101.33,-407.27 103.22,-400.52"/>
<text text-anchor="middle" x="319.5" y="-423" font-family="Helvetica,sans-Serif" font-size="10.00"> MOD_AST</text>
<text text-anchor="middle" x="319.5" y="-412" font-family="Helvetica,sans-Serif" font-size="10.00">mod_</text>
</g>
<!-- Node21 -->
<g id="node21" class="node">
<title>Node21</title>
<g id="a_node21"><a xlink:href="classformat_1_1_style.html" target="_top" xlink:title="ノードの表示スタイルに関するプロパティのクラス.">
<polygon fill="white" stroke="black" points="300,-188.5 300,-207.5 339,-207.5 339,-188.5 300,-188.5"/>
<text text-anchor="middle" x="319.5" y="-195.5" font-family="Helvetica,sans-Serif" font-size="10.00">Style</text>
</a>
</g>
</g>
<!-- Node2&#45;&gt;Node21 -->
<g id="edge28" class="edge">
<title>Node2&#45;&gt;Node21</title>
<path fill="none" stroke="#9a32cd" stroke-dasharray="5,2" d="M84.05,-377.09C99.04,-355.41 127.31,-319.52 161,-301 200.26,-279.42 223.46,-307.93 260,-282 272.99,-272.78 269.15,-264.24 278,-251 288.43,-235.4 301.88,-218.32 310.35,-207.88"/>
<polygon fill="#9a32cd" stroke="#9a32cd" points="81.13,-375.16 78.46,-385.42 86.94,-379.06 81.13,-375.16"/>
<text text-anchor="middle" x="210.5" y="-326" font-family="Helvetica,sans-Serif" font-size="10.00"> operSTR</text>
<text text-anchor="middle" x="210.5" y="-315" font-family="Helvetica,sans-Serif" font-size="10.00">parenLPAR</text>
<text text-anchor="middle" x="210.5" y="-304" font-family="Helvetica,sans-Serif" font-size="10.00">parenRPAR</text>
</g>
<!-- Node3 -->
<g id="node3" class="node">
<title>Node3</title>
<g id="a_node3"><a xlink:href="interfaceparse_1_1_parsable.html" target="_top" xlink:title=" ">
<polygon fill="white" stroke="black" points="933.5,-556.5 933.5,-575.5 988.5,-575.5 988.5,-556.5 933.5,-556.5"/>
<text text-anchor="middle" x="961" y="-563.5" font-family="Helvetica,sans-Serif" font-size="10.00">Parsable</text>
</a>
</g>
</g>
<!-- Node3&#45;&gt;Node1 -->
<g id="edge2" class="edge">
<title>Node3&#45;&gt;Node1</title>
<path fill="none" stroke="#9a32cd" stroke-dasharray="5,2" d="M998.9,-565.61C1023.46,-563.72 1055.42,-557.98 1079,-542 1102.48,-526.08 1117.27,-494.47 1123.54,-478.58"/>
<polygon fill="#9a32cd" stroke="#9a32cd" points="998.65,-562.12 988.87,-566.2 999.06,-569.11 998.65,-562.12"/>
<text text-anchor="middle" x="1052" y="-564" font-family="Helvetica,sans-Serif" font-size="10.00"> AP</text>
</g>
<!-- Node4 -->
<g id="node4" class="node">
<title>Node4</title>
<g id="a_node4"><a xlink:title=" ">
<polygon fill="white" stroke="#bfbfbf" points="278,-440.5 278,-459.5 361,-459.5 361,-440.5 278,-440.5"/>
<text text-anchor="middle" x="319.5" y="-447.5" font-family="Helvetica,sans-Serif" font-size="10.00">static ReportKt</text>
</a>
</g>
</g>
<!-- Node4&#45;&gt;Node1 -->
<g id="edge3" class="edge">
<title>Node4&#45;&gt;Node1</title>
<path fill="none" stroke="#9a32cd" stroke-dasharray="5,2" d="M371.07,-450C445.6,-450 589.29,-450 711.5,-450 711.5,-450 711.5,-450 962,-450 1009.29,-450 1063.71,-457.8 1096.71,-463.4"/>
<polygon fill="#9a32cd" stroke="#9a32cd" points="371.03,-446.5 361.03,-450 371.03,-453.5 371.03,-446.5"/>
<text text-anchor="middle" x="823.5" y="-453" font-family="Helvetica,sans-Serif" font-size="10.00"> repo</text>
</g>
<!-- Node4&#45;&gt;Node12 -->
<g id="edge14" class="edge">
<title>Node4&#45;&gt;Node12</title>
<path fill="none" stroke="#9a32cd" stroke-dasharray="5,2" d="M344.59,-435.12C354.87,-429.33 367.2,-423.12 379,-419 431.5,-400.66 447.71,-408.09 502,-396 518.66,-392.29 537.02,-387.62 552.39,-383.53"/>
<polygon fill="#9a32cd" stroke="#9a32cd" points="342.68,-432.18 335.8,-440.23 346.21,-438.23 342.68,-432.18"/>
<text text-anchor="middle" x="440.5" y="-422" font-family="Helvetica,sans-Serif" font-size="10.00"> repo</text>
</g>
<!-- Node5 -->
<g id="node5" class="node">
<title>Node5</title>
<g id="a_node5"><a xlink:href="interfaceformat_1_1_node_formattable.html" target="_top" xlink:title="XFormattableインタフェースをもつ構造オブジェクトの清書出力器．">
<polygon fill="white" stroke="black" points="915,-478.5 915,-497.5 1007,-497.5 1007,-478.5 915,-478.5"/>
<text text-anchor="middle" x="961" y="-485.5" font-family="Helvetica,sans-Serif" font-size="10.00">NodeFormattable</text>
</a>
</g>
</g>
<!-- Node5&#45;&gt;Node1 -->
<g id="edge4" class="edge">
<title>Node5&#45;&gt;Node1</title>
<path fill="none" stroke="#9a32cd" stroke-dasharray="5,2" d="M1017.05,-481.66C1043.65,-478.6 1074.56,-475.04 1096.82,-472.48"/>
<polygon fill="#9a32cd" stroke="#9a32cd" points="1016.62,-478.19 1007.09,-482.81 1017.42,-485.14 1016.62,-478.19"/>
<text text-anchor="middle" x="1052" y="-483" font-family="Helvetica,sans-Serif" font-size="10.00"> NF</text>
</g>
<!-- Node6&#45;&gt;Node1 -->
<g id="edge5" class="edge">
<title>Node6&#45;&gt;Node1</title>
<path fill="none" stroke="#9a32cd" stroke-dasharray="5,2" d="M362.29,-269.78C400.5,-271.13 457.65,-277.16 502,-299 511.87,-303.86 510,-311.41 520,-316 597.77,-351.71 625.93,-336 711.5,-336 711.5,-336 711.5,-336 962,-336 1018.9,-336 1036.48,-350.18 1079,-388 1102.08,-408.53 1117.25,-442.9 1123.6,-459.48"/>
<polygon fill="#9a32cd" stroke="#9a32cd" points="362.13,-266.27 352.04,-269.51 361.95,-273.27 362.13,-266.27"/>
<text text-anchor="middle" x="823.5" y="-339" font-family="Helvetica,sans-Serif" font-size="10.00"> LOG</text>
</g>
<!-- Node6&#45;&gt;Node12 -->
<g id="edge15" class="edge">
<title>Node6&#45;&gt;Node12</title>
<path fill="none" stroke="#9a32cd" stroke-dasharray="5,2" d="M343.96,-284.86C354.41,-291.05 367.03,-297.95 379,-303 431.48,-325.14 449.91,-315.95 502,-339 510.57,-342.79 511.54,-345.95 520,-350 531.48,-355.49 544.57,-360.45 556.11,-364.41"/>
<polygon fill="#9a32cd" stroke="#9a32cd" points="345.77,-281.87 335.41,-279.67 342.14,-287.86 345.77,-281.87"/>
<text text-anchor="middle" x="440.5" y="-342" font-family="Helvetica,sans-Serif" font-size="10.00"> LOG</text>
</g>
<!-- Node7 -->
<g id="node7" class="node">
<title>Node7</title>
<g id="a_node7"><a xlink:title=" ">
<polygon fill="white" stroke="#bfbfbf" points="0,-255 0,-285 143,-285 143,-255 0,-255"/>
<text text-anchor="start" x="8" y="-273" font-family="Helvetica,sans-Serif" font-size="10.00">Map&lt; String, util.TraceLevel.</text>
<text text-anchor="middle" x="71.5" y="-262" font-family="Helvetica,sans-Serif" font-size="10.00">Level &gt;</text>
</a>
</g>
</g>
<!-- Node7&#45;&gt;Node6 -->
<g id="edge7" class="edge">
<title>Node7&#45;&gt;Node6</title>
<path fill="none" stroke="#9a32cd" stroke-dasharray="5,2" d="M153.5,-270C199.06,-270 253.37,-270 286.89,-270"/>
<polygon fill="#9a32cd" stroke="#9a32cd" points="153.32,-266.5 143.32,-270 153.32,-273.5 153.32,-266.5"/>
<text text-anchor="middle" x="210.5" y="-273" font-family="Helvetica,sans-Serif" font-size="10.00"> mapLevel</text>
</g>
<!-- Node8 -->
<g id="node8" class="node">
<title>Node8</title>
<g id="a_node8"><a xlink:title=" ">
<polygon fill="white" stroke="#bfbfbf" points="46.5,-165.5 46.5,-184.5 96.5,-184.5 96.5,-165.5 46.5,-165.5"/>
<text text-anchor="middle" x="71.5" y="-172.5" font-family="Helvetica,sans-Serif" font-size="10.00">boolean</text>
</a>
</g>
</g>
<!-- Node8&#45;&gt;Node1 -->
<g id="edge31" class="edge">
<title>Node8&#45;&gt;Node1</title>
<path fill="none" stroke="#9a32cd" stroke-dasharray="5,2" d="M84.94,-157.16C117.62,-112.61 210.87,0 318.5,0 318.5,0 318.5,0 962,0 1062.99,0 1117.22,-391.85 1125.79,-459.2"/>
<polygon fill="#9a32cd" stroke="#9a32cd" points="82.05,-155.18 79.06,-165.34 87.74,-159.26 82.05,-155.18"/>
<text text-anchor="middle" x="712.5" y="-25" font-family="Helvetica,sans-Serif" font-size="10.00"> DEBUG_OPT_A</text>
<text text-anchor="middle" x="712.5" y="-14" font-family="Helvetica,sans-Serif" font-size="10.00">DEBUG_REPO</text>
<text text-anchor="middle" x="712.5" y="-3" font-family="Helvetica,sans-Serif" font-size="10.00">DEBUG_WORK</text>
</g>
<!-- Node8&#45;&gt;Node6 -->
<g id="edge8" class="edge">
<title>Node8&#45;&gt;Node6</title>
<path fill="none" stroke="#9a32cd" stroke-dasharray="5,2" d="M102.49,-188.87C119.52,-196.58 141.31,-206.17 161,-214 205.36,-231.63 257.75,-249.73 289.52,-260.41"/>
<polygon fill="#9a32cd" stroke="#9a32cd" points="103.61,-185.54 93.06,-184.57 100.71,-191.91 103.61,-185.54"/>
<text text-anchor="middle" x="210.5" y="-253" font-family="Helvetica,sans-Serif" font-size="10.00"> DEBUG_MOD</text>
</g>
<!-- Node8&#45;&gt;Node12 -->
<g id="edge18" class="edge">
<title>Node8&#45;&gt;Node12</title>
<path fill="none" stroke="#9a32cd" stroke-dasharray="5,2" d="M106.8,-165.87C162.4,-152.85 274.71,-134.06 361,-168 450.84,-203.34 448.16,-251.51 520,-316 539.23,-333.27 562.08,-352.85 575.51,-364.27"/>
<polygon fill="#9a32cd" stroke="#9a32cd" points="105.67,-162.54 96.77,-168.3 107.32,-169.34 105.67,-162.54"/>
<text text-anchor="middle" x="319.5" y="-171" font-family="Helvetica,sans-Serif" font-size="10.00"> DEBUG_REPO</text>
</g>
<!-- Node8&#45;&gt;Node21 -->
<g id="edge29" class="edge">
<title>Node8&#45;&gt;Node21</title>
<path fill="none" stroke="#9a32cd" stroke-dasharray="5,2" d="M107.19,-178.02C144.83,-181.33 206.7,-186.85 260,-192 273.31,-193.29 288.32,-194.83 299.8,-196.03"/>
<polygon fill="#9a32cd" stroke="#9a32cd" points="107.05,-174.5 96.78,-177.11 106.44,-181.47 107.05,-174.5"/>
<text text-anchor="middle" x="210.5" y="-206" font-family="Helvetica,sans-Serif" font-size="10.00"> preoperSupress</text>
<text text-anchor="middle" x="210.5" y="-195" font-family="Helvetica,sans-Serif" font-size="10.00">toInline</text>
</g>
<!-- Node9 -->
<g id="node9" class="node">
<title>Node9</title>
<g id="a_node9"><a xlink:title=" ">
<polygon fill="white" stroke="#bfbfbf" points="305,-526.5 305,-545.5 334,-545.5 334,-526.5 305,-526.5"/>
<text text-anchor="middle" x="319.5" y="-533.5" font-family="Helvetica,sans-Serif" font-size="10.00">int</text>
</a>
</g>
</g>
<!-- Node9&#45;&gt;Node1 -->
<g id="edge9" class="edge">
<title>Node9&#45;&gt;Node1</title>
<path fill="none" stroke="#9a32cd" stroke-dasharray="5,2" d="M344.56,-539.03C355.11,-540.21 367.65,-541.42 379,-542 433.6,-544.79 447.37,-543.89 502,-542 726.85,-534.22 783.56,-533.3 1007,-507 1039.22,-503.21 1048.32,-505.54 1079,-495 1090.83,-490.94 1103.22,-484.15 1112.45,-478.53"/>
<polygon fill="#9a32cd" stroke="#9a32cd" points="344.76,-535.53 334.42,-537.83 343.94,-542.48 344.76,-535.53"/>
<text text-anchor="middle" x="823.5" y="-544" font-family="Helvetica,sans-Serif" font-size="10.00"> MASK_QUERY_PRINT</text>
<text text-anchor="middle" x="823.5" y="-533" font-family="Helvetica,sans-Serif" font-size="10.00">PRINT_STAGE</text>
</g>
<!-- Node10 -->
<g id="node10" class="node">
<title>Node10</title>
<g id="a_node10"><a xlink:href="classmachine_1_1_var.html" target="_top" xlink:title="フレーム中の変数参照オブジェクトref = (XType type, int vid)">
<polygon fill="white" stroke="black" points="945.5,-392.5 945.5,-411.5 976.5,-411.5 976.5,-392.5 945.5,-392.5"/>
<text text-anchor="middle" x="961" y="-399.5" font-family="Helvetica,sans-Serif" font-size="10.00">Var</text>
</a>
</g>
</g>
<!-- Node9&#45;&gt;Node10 -->
<g id="edge30" class="edge">
<title>Node9&#45;&gt;Node10</title>
<path fill="none" stroke="#9a32cd" stroke-dasharray="5,2" d="M344.53,-536.13C379.54,-535.88 446.47,-533.7 502,-522 625.1,-496.05 646.71,-457.53 769,-428 833.74,-412.37 913.24,-405.33 945.44,-402.97"/>
<polygon fill="#9a32cd" stroke="#9a32cd" points="344.33,-532.63 334.33,-536.16 344.34,-539.63 344.33,-532.63"/>
<text text-anchor="middle" x="712.5" y="-462" font-family="Helvetica,sans-Serif" font-size="10.00"> UNDEF</text>
</g>
<!-- Node9&#45;&gt;Node12 -->
<g id="edge16" class="edge">
<title>Node9&#45;&gt;Node12</title>
<path fill="none" stroke="#9a32cd" stroke-dasharray="5,2" d="M334.52,-518.45C345.47,-505.72 361.7,-488.9 379,-478 428.12,-447.05 458.56,-472.52 502,-434 515.39,-422.13 506.62,-409.87 520,-398 528.23,-390.7 538.83,-385.58 549.17,-382"/>
<polygon fill="#9a32cd" stroke="#9a32cd" points="331.54,-516.56 327.83,-526.48 336.92,-521.04 331.54,-516.56"/>
<text text-anchor="middle" x="440.5" y="-514" font-family="Helvetica,sans-Serif" font-size="10.00"> BITMASK_PRINT_WIDTH</text>
<text text-anchor="middle" x="440.5" y="-503" font-family="Helvetica,sans-Serif" font-size="10.00">UNDEF</text>
<text text-anchor="middle" x="440.5" y="-492" font-family="Helvetica,sans-Serif" font-size="10.00">id_</text>
<text text-anchor="middle" x="440.5" y="-481" font-family="Helvetica,sans-Serif" font-size="10.00">numInstances</text>
</g>
<!-- Node10&#45;&gt;Node1 -->
<g id="edge10" class="edge">
<title>Node10&#45;&gt;Node1</title>
<path fill="none" stroke="#9a32cd" stroke-dasharray="5,2" d="M986.7,-396.07C1011.49,-391.47 1050.05,-388.1 1079,-403 1102.18,-414.93 1116.84,-443.81 1123.25,-459.11"/>
<polygon fill="#9a32cd" stroke="#9a32cd" points="985.76,-392.69 976.67,-398.13 987.17,-399.54 985.76,-392.69"/>
<text text-anchor="middle" x="1052" y="-428" font-family="Helvetica,sans-Serif" font-size="10.00"> VAR_FLEN</text>
<text text-anchor="middle" x="1052" y="-417" font-family="Helvetica,sans-Serif" font-size="10.00">VAR_FPAR</text>
<text text-anchor="middle" x="1052" y="-406" font-family="Helvetica,sans-Serif" font-size="10.00">VAR_FUNC</text>
</g>
<!-- Node11 -->
<g id="node11" class="node">
<title>Node11</title>
<g id="a_node11"><a xlink:href="classast_1_1_ast_node.html" target="_top" xlink:title="タグなしの順アクセスの子供をもてる抽象構文木のノードのクラス。">
<polygon fill="white" stroke="black" points="796,-188.5 796,-207.5 851,-207.5 851,-188.5 796,-188.5"/>
<text text-anchor="middle" x="823.5" y="-195.5" font-family="Helvetica,sans-Serif" font-size="10.00">AstNode</text>
</a>
</g>
</g>
<!-- Node11&#45;&gt;Node10 -->
<g id="edge11" class="edge">
<title>Node11&#45;&gt;Node10</title>
<path fill="none" stroke="midnightblue" d="M836.41,-215.93C864.12,-257.65 932.18,-360.12 953.5,-392.22"/>
<polygon fill="midnightblue" stroke="midnightblue" points="839.3,-213.96 830.85,-207.57 833.47,-217.83 839.3,-213.96"/>
</g>
<!-- Node12&#45;&gt;Node11 -->
<g id="edge12" class="edge">
<title>Node12&#45;&gt;Node11</title>
<path fill="none" stroke="midnightblue" d="M622.3,-360.24C656.74,-345.02 710.99,-318.2 751,-285 779.59,-261.28 805.13,-224.85 816.39,-207.64"/>
<polygon fill="midnightblue" stroke="midnightblue" points="620.49,-357.21 612.71,-364.41 623.28,-363.63 620.49,-357.21"/>
</g>
<!-- Node13 -->
<g id="node13" class="node">
<title>Node13</title>
<g id="a_node13"><a xlink:href="interfacetype_1_1_typable.html" target="_top" xlink:title="抽象ノードがもつ関数型のインタフェース">
<polygon fill="white" stroke="black" points="294.5,-344.5 294.5,-363.5 344.5,-363.5 344.5,-344.5 294.5,-344.5"/>
<text text-anchor="middle" x="319.5" y="-351.5" font-family="Helvetica,sans-Serif" font-size="10.00">Typable</text>
</a>
</g>
</g>
<!-- Node13&#45;&gt;Node12 -->
<g id="edge17" class="edge">
<title>Node13&#45;&gt;Node12</title>
<path fill="none" stroke="#9a32cd" stroke-dasharray="5,2" d="M354.76,-353.81C391.32,-353.91 450.88,-354.97 502,-360 517.63,-361.54 534.74,-364.17 549.48,-366.74"/>
<polygon fill="#9a32cd" stroke="#9a32cd" points="354.64,-350.31 344.64,-353.8 354.64,-357.31 354.64,-350.31"/>
<text text-anchor="middle" x="440.5" y="-363" font-family="Helvetica,sans-Serif" font-size="10.00"> typing</text>
</g>
<!-- Node14 -->
<g id="node14" class="node">
<title>Node14</title>
<g id="a_node14"><a xlink:href="interfaceast_1_1_node.html" target="_top" xlink:title=" ">
<polygon fill="white" stroke="black" points="568,-66.5 568,-85.5 608,-85.5 608,-66.5 568,-66.5"/>
<text text-anchor="middle" x="588" y="-73.5" font-family="Helvetica,sans-Serif" font-size="10.00">Node</text>
</a>
</g>
</g>
<!-- Node14&#45;&gt;Node11 -->
<g id="edge19" class="edge">
<title>Node14&#45;&gt;Node11</title>
<path fill="none" stroke="midnightblue" d="M618.27,-78.97C652.29,-83.5 709.11,-94.49 751,-120 780.65,-138.06 805.49,-171.97 816.46,-188.48"/>
<polygon fill="midnightblue" stroke="midnightblue" points="618.43,-75.46 608.07,-77.72 617.57,-82.41 618.43,-75.46"/>
</g>
<!-- Node15 -->
<g id="node15" class="node">
<title>Node15</title>
<g id="a_node15"><a xlink:href="interfaceformat_1_1_x_formattable.html" target="_top" xlink:title="入れ子フォーマット出力可能なオブジェクトのインタフェース。">
<polygon fill="white" stroke="black" points="282,-34.5 282,-53.5 357,-53.5 357,-34.5 282,-34.5"/>
<text text-anchor="middle" x="319.5" y="-41.5" font-family="Helvetica,sans-Serif" font-size="10.00">XFormattable</text>
</a>
</g>
</g>
<!-- Node15&#45;&gt;Node14 -->
<g id="edge20" class="edge">
<title>Node15&#45;&gt;Node14</title>
<path fill="none" stroke="midnightblue" d="M367.12,-54.03C371.13,-54.75 375.13,-55.42 379,-56 448.24,-66.4 531.3,-72.49 567.99,-74.85"/>
<polygon fill="midnightblue" stroke="midnightblue" points="367.69,-50.57 357.22,-52.15 366.39,-57.45 367.69,-50.57"/>
</g>
<!-- Node16 -->
<g id="node16" class="node">
<title>Node16</title>
<g id="a_node16"><a xlink:href="interfaceformat_1_1_x_formattable_1_1_navigatable.html" target="_top" xlink:title="木構造の分岐ノードとして清書可能なオブジェクトのクラス">
<polygon fill="white" stroke="black" points="523,-28.5 523,-47.5 653,-47.5 653,-28.5 523,-28.5"/>
<text text-anchor="middle" x="588" y="-35.5" font-family="Helvetica,sans-Serif" font-size="10.00">XFormattable.Navigatable</text>
</a>
</g>
</g>
<!-- Node15&#45;&gt;Node16 -->
<g id="edge22" class="edge">
<title>Node15&#45;&gt;Node16</title>
<path fill="none" stroke="midnightblue" d="M367.51,-42.94C410.7,-41.97 475.09,-40.52 522.97,-39.44"/>
<polygon fill="midnightblue" stroke="midnightblue" points="367.19,-39.45 357.28,-43.17 367.35,-46.45 367.19,-39.45"/>
</g>
<!-- Node16&#45;&gt;Node11 -->
<g id="edge21" class="edge">
<title>Node16&#45;&gt;Node11</title>
<path fill="none" stroke="midnightblue" d="M662.95,-48.23C692.56,-55.15 725.6,-66.72 751,-86 787.74,-113.9 810.72,-166.57 819.01,-188.27"/>
<polygon fill="midnightblue" stroke="midnightblue" points="663.57,-44.79 653.05,-46.06 662.07,-51.62 663.57,-44.79"/>
</g>
<!-- Node17 -->
<g id="node17" class="node">
<title>Node17</title>
<g id="a_node17"><a xlink:title=" ">
<polygon fill="white" stroke="#bfbfbf" points="524,-277 524,-307 652,-307 652,-277 524,-277"/>
<text text-anchor="start" x="532" y="-295" font-family="Helvetica,sans-Serif" font-size="10.00">java.util.function.Function</text>
<text text-anchor="middle" x="588" y="-284" font-family="Helvetica,sans-Serif" font-size="10.00">&lt; ast.Node, String &gt;</text>
</a>
</g>
</g>
<!-- Node17&#45;&gt;Node11 -->
<g id="edge23" class="edge">
<title>Node17&#45;&gt;Node11</title>
<path fill="none" stroke="#9a32cd" stroke-dasharray="5,2" d="M660.68,-274.09C689.37,-265.85 722.34,-254.99 751,-242 772.37,-232.31 795.14,-217.41 809.1,-207.68"/>
<polygon fill="#9a32cd" stroke="#9a32cd" points="659.41,-270.81 650.73,-276.9 661.31,-277.55 659.41,-270.81"/>
<text text-anchor="middle" x="712.5" y="-273" font-family="Helvetica,sans-Serif" font-size="10.00"> printerFunc</text>
</g>
<!-- Node18 -->
<g id="node18" class="node">
<title>Node18</title>
<g id="a_node18"><a xlink:title=" ">
<polygon fill="white" stroke="#bfbfbf" points="520,-228 520,-258 656,-258 656,-228 520,-228"/>
<text text-anchor="start" x="528" y="-246" font-family="Helvetica,sans-Serif" font-size="10.00">java.util.function.Consumer</text>
<text text-anchor="middle" x="588" y="-235" font-family="Helvetica,sans-Serif" font-size="10.00">&lt; ast.Node &gt;</text>
</a>
</g>
</g>
<!-- Node18&#45;&gt;Node11 -->
<g id="edge24" class="edge">
<title>Node18&#45;&gt;Node11</title>
<path fill="none" stroke="#9a32cd" stroke-dasharray="5,2" d="M666.12,-228.31C692.99,-223.18 723.33,-217.36 751,-212 765.78,-209.14 782.27,-205.91 795.68,-203.28"/>
<polygon fill="#9a32cd" stroke="#9a32cd" points="665.17,-224.93 656.01,-230.24 666.49,-231.81 665.17,-224.93"/>
<text text-anchor="middle" x="712.5" y="-230" font-family="Helvetica,sans-Serif" font-size="10.00"> typerFunc</text>
</g>
<!-- Node19 -->
<g id="node19" class="node">
<title>Node19</title>
<g id="a_node19"><a xlink:title=" ">
<polygon fill="white" stroke="#bfbfbf" points="543,-142.5 543,-161.5 633,-161.5 633,-142.5 543,-142.5"/>
<text text-anchor="middle" x="588" y="-149.5" font-family="Helvetica,sans-Serif" font-size="10.00">List&lt; ast.Node &gt;</text>
</a>
</g>
</g>
<!-- Node19&#45;&gt;Node11 -->
<g id="edge25" class="edge">
<title>Node19&#45;&gt;Node11</title>
<path fill="none" stroke="#9a32cd" stroke-dasharray="5,2" d="M643.07,-156.18C674.81,-159.33 715.52,-164.59 751,-173 767.38,-176.88 785.25,-183.13 799.03,-188.41"/>
<polygon fill="#9a32cd" stroke="#9a32cd" points="643.39,-152.69 633.11,-155.23 642.73,-159.66 643.39,-152.69"/>
<text text-anchor="middle" x="712.5" y="-176" font-family="Helvetica,sans-Serif" font-size="10.00"> children_</text>
</g>
<!-- Node20 -->
<g id="node20" class="node">
<title>Node20</title>
<g id="a_node20"><a xlink:title=" ">
<polygon fill="white" stroke="#bfbfbf" points="562,-104.5 562,-123.5 614,-123.5 614,-104.5 562,-104.5"/>
<text text-anchor="middle" x="588" y="-111.5" font-family="Helvetica,sans-Serif" font-size="10.00">Boolean</text>
</a>
</g>
</g>
<!-- Node20&#45;&gt;Node11 -->
<g id="edge26" class="edge">
<title>Node20&#45;&gt;Node11</title>
<path fill="none" stroke="#9a32cd" stroke-dasharray="5,2" d="M624.47,-116.22C658.22,-119.37 709.83,-126.94 751,-145 775.62,-155.8 799.8,-176.41 812.77,-188.5"/>
<polygon fill="#9a32cd" stroke="#9a32cd" points="624.43,-112.7 614.17,-115.34 623.84,-119.68 624.43,-112.7"/>
<text text-anchor="middle" x="712.5" y="-148" font-family="Helvetica,sans-Serif" font-size="10.00"> DEBUG_CHILD</text>
</g>
<!-- Node21&#45;&gt;Node11 -->
<g id="edge27" class="edge">
<title>Node21&#45;&gt;Node11</title>
<path fill="none" stroke="#9a32cd" stroke-dasharray="5,2" d="M349.48,-198C438.88,-198 709.57,-198 795.8,-198"/>
<polygon fill="#9a32cd" stroke="#9a32cd" points="349.26,-194.5 339.26,-198 349.26,-201.5 349.26,-194.5"/>
<text text-anchor="middle" x="588" y="-201" font-family="Helvetica,sans-Serif" font-size="10.00"> sty</text>
</g>
</g>
</svg>
        <g id="navigator" transform="translate(0 0)" fill="#404254">
                <rect fill="#f2f5e9" fill-opacity="0.5" stroke="#606060" stroke-width=".5" x="0" y="0" width="60" height="60"/>
                <use id="zoomplus" xlink:href="#zoomPlus" x="17" y="9" onmousedown="handleZoom(evt,'in')"/>
                <use id="zoomminus" xlink:href="#zoomMin" x="42" y="9" onmousedown="handleZoom(evt,'out')"/>
                <use id="reset" xlink:href="#resetDef" x="30" y="36" onmousedown="handleReset()"/>
                <g id="arrowUp" xlink:href="#dirArrow" transform="translate(30 24)" onmousedown="handlePan(0,-1)">
                  <use xlink:href="#rim" fill="#404040">
                        <set attributeName="fill" to="#808080" begin="arrowUp.mouseover" end="arrowUp.mouseout"/>
                  </use>
                  <path fill="none" stroke="white" stroke-width="1.5" d="M0,-3.0v7 M-2.5,-0.5L0,-3.0L2.5,-0.5"/>
                </g>
                <g id="arrowRight" xlink:href="#dirArrow" transform="rotate(90) translate(36 -43)" onmousedown="handlePan(1,0)">
                  <use xlink:href="#rim" fill="#404040">
                        <set attributeName="fill" to="#808080" begin="arrowRight.mouseover" end="arrowRight.mouseout"/>
                  </use>
                  <path fill="none" stroke="white" stroke-width="1.5" d="M0,-3.0v7 M-2.5,-0.5L0,-3.0L2.5,-0.5"/>
                </g>
                <g id="arrowDown" xlink:href="#dirArrow" transform="rotate(180) translate(-30 -48)" onmousedown="handlePan(0,1)">
                  <use xlink:href="#rim" fill="#404040">
                        <set attributeName="fill" to="#808080" begin="arrowDown.mouseover" end="arrowDown.mouseout"/>
                  </use>
                  <path fill="none" stroke="white" stroke-width="1.5" d="M0,-3.0v7 M-2.5,-0.5L0,-3.0L2.5,-0.5"/>
                </g>
                <g id="arrowLeft" xlink:href="#dirArrow" transform="rotate(270) translate(-36 17)" onmousedown="handlePan(-1,0)">
                  <use xlink:href="#rim" fill="#404040">
                        <set attributeName="fill" to="#808080" begin="arrowLeft.mouseover" end="arrowLeft.mouseout"/>
                  </use>
                  <path fill="none" stroke="white" stroke-width="1.5" d="M0,-3.0v7 M-2.5,-0.5L0,-3.0L2.5,-0.5"/>
                </g>
        </g>
        <svg viewBox="0 0 15 15" width="100%" height="30px" preserveAspectRatio="xMaxYMin meet">
         <g id="arrow_out" transform="scale(0.3 0.3)">
          <a xlink:href="classcompile_1_1_x_compiler__coll__graph_org.svg" target="_base">
           <rect id="button" ry="5" rx="5" y="6" x="6" height="38" width="38"
                fill="#f2f5e9" fill-opacity="0.5" stroke="#606060" stroke-width="1.0"/>
           <path id="arrow"
             d="M 11.500037,31.436501 C 11.940474,20.09759 22.043105,11.32322 32.158766,21.979434 L 37.068811,17.246167 C 37.068811,17.246167 37.088388,32 37.088388,32 L 22.160133,31.978069 C 22.160133,31.978069 26.997745,27.140456 26.997745,27.140456 C 18.528582,18.264221 13.291696,25.230495 11.500037,31.436501 z"
             style="fill:#404040;"/>
          </a>
         </g>
        </svg>
</svg>
