<?xml version="1.0" encoding="UTF-8" standalone="no"?>
<!DOCTYPE svg PUBLIC "-//W3C//DTD SVG 1.1//EN"
 "http://www.w3.org/Graphics/SVG/1.1/DTD/svg11.dtd">
<!-- Generated by graphviz version 2.38.0 (20140413.2041)
 -->
<!-- Title: AstNodeTagged Pages: 1 -->
<svg width="796pt" height="138pt"
 viewBox="0.00 0.00 795.93 138.00" xmlns="http://www.w3.org/2000/svg" xmlns:xlink="http://www.w3.org/1999/xlink">
<g id="graph0" class="graph" transform="scale(1 1) rotate(0) translate(4 134)">
<title>AstNodeTagged</title>
<polygon fill="white" stroke="none" points="-4,4 -4,-134 791.934,-134 791.934,4 -4,4"/>
<!-- Node1 -->
<g id="node1" class="node"><title>Node1</title>
<g id="a_node1"><a xlink:title=" ">
<polygon fill="#bfbfbf" stroke="black" points="496.718,-18.5 496.718,-36.5 583.88,-36.5 583.88,-18.5 496.718,-18.5"/>
<text text-anchor="middle" x="540.299" y="-24.5" font-family="Helvetica,sans-Serif" font-size="10.00">AstNodeTagged</text>
</a>
</g>
</g>
<!-- Node9 -->
<g id="node9" class="node"><title>Node9</title>
<g id="a_node9"><a xlink:href="classast_1_1_step.html" target="_top" xlink:title="抽象構文木のステップ式のクラス.">
<polygon fill="white" stroke="black" points="639.052,-37.5 639.052,-55.5 675.624,-55.5 675.624,-37.5 639.052,-37.5"/>
<text text-anchor="middle" x="657.338" y="-43.5" font-family="Helvetica,sans-Serif" font-size="10.00">Step</text>
</a>
</g>
</g>
<!-- Node1&#45;&gt;Node9 -->
<g id="edge12" class="edge"><title>Node1&#45;&gt;Node9</title>
<path fill="none" stroke="midnightblue" d="M594.108,-36.2221C610.304,-38.8971 627.002,-41.6548 639.018,-43.6394"/>
<polygon fill="midnightblue" stroke="midnightblue" points="594.572,-32.7513 584.135,-34.5749 593.431,-39.6577 594.572,-32.7513"/>
</g>
<!-- Node11 -->
<g id="node11" class="node"><title>Node11</title>
<g id="a_node11"><a xlink:href="classmachine_1_1_step_program.html" target="_top" xlink:title="ルールの集合からなるコンパイル済みのプログラム.">
<polygon fill="white" stroke="black" points="619.88,-0.5 619.88,-18.5 694.796,-18.5 694.796,-0.5 619.88,-0.5"/>
<text text-anchor="middle" x="657.338" y="-6.5" font-family="Helvetica,sans-Serif" font-size="10.00">StepProgram</text>
</a>
</g>
</g>
<!-- Node1&#45;&gt;Node11 -->
<g id="edge14" class="edge"><title>Node1&#45;&gt;Node11</title>
<path fill="none" stroke="midnightblue" d="M594.213,-19.2206C602.894,-17.8624 611.715,-16.4821 619.88,-15.2046"/>
<polygon fill="midnightblue" stroke="midnightblue" points="593.474,-15.7936 584.135,-20.7975 594.556,-22.7094 593.474,-15.7936"/>
</g>
<!-- Node2 -->
<g id="node2" class="node"><title>Node2</title>
<g id="a_node2"><a xlink:href="classast_1_1_ast_node_branch.html" target="_top" xlink:title="抽象構文木のノードの基本実装クラス.">
<polygon fill="white" stroke="black" points="341.053,-37.5 341.053,-55.5 427.092,-55.5 427.092,-37.5 341.053,-37.5"/>
<text text-anchor="middle" x="384.073" y="-43.5" font-family="Helvetica,sans-Serif" font-size="10.00">AstNodeBranch</text>
</a>
</g>
</g>
<!-- Node2&#45;&gt;Node1 -->
<g id="edge1" class="edge"><title>Node2&#45;&gt;Node1</title>
<path fill="none" stroke="midnightblue" d="M437.37,-40.0572C456.682,-37.6781 478.318,-35.0126 496.671,-32.7516"/>
<polygon fill="midnightblue" stroke="midnightblue" points="436.713,-36.6116 427.216,-41.3082 437.569,-43.5591 436.713,-36.6116"/>
</g>
<!-- Node3 -->
<g id="node3" class="node"><title>Node3</title>
<g id="a_node3"><a xlink:href="classast_1_1_ast_node.html" target="_top" xlink:title=" ">
<polygon fill="white" stroke="black" points="164.549,-111.5 164.549,-129.5 218.903,-129.5 218.903,-111.5 164.549,-111.5"/>
<text text-anchor="middle" x="191.726" y="-117.5" font-family="Helvetica,sans-Serif" font-size="10.00">AstNode</text>
</a>
</g>
</g>
<!-- Node3&#45;&gt;Node2 -->
<g id="edge2" class="edge"><title>Node3&#45;&gt;Node2</title>
<path fill="none" stroke="midnightblue" d="M228.98,-114.11C242.508,-111.233 257.868,-107.371 271.428,-102.5 307.549,-89.5238 347.092,-67.7209 368.058,-55.5001"/>
<polygon fill="midnightblue" stroke="midnightblue" points="228.159,-110.705 219.052,-116.119 229.548,-117.566 228.159,-110.705"/>
</g>
<!-- Node4 -->
<g id="node4" class="node"><title>Node4</title>
<g id="a_node4"><a xlink:href="interfaceformat_1_1_x_formattable.html" target="_top" xlink:title="入れ子フォーマット出力可能なオブジェクトのインタフェース。">
<polygon fill="white" stroke="black" points="0,-55.5 0,-73.5 76.0244,-73.5 76.0244,-55.5 0,-55.5"/>
<text text-anchor="middle" x="38.0122" y="-61.5" font-family="Helvetica,sans-Serif" font-size="10.00">XFormattable</text>
</a>
</g>
</g>
<!-- Node4&#45;&gt;Node3 -->
<g id="edge3" class="edge"><title>Node4&#45;&gt;Node3</title>
<path fill="none" stroke="midnightblue" d="M62.5204,-78.696C76.4973,-86.6318 94.807,-96.169 112.024,-102.5 128.995,-108.74 148.846,-113.262 164.366,-116.213"/>
<polygon fill="midnightblue" stroke="midnightblue" points="64.0082,-75.5127 53.603,-73.517 60.4926,-81.5658 64.0082,-75.5127"/>
</g>
<!-- Node5 -->
<g id="node5" class="node"><title>Node5</title>
<g id="a_node5"><a xlink:href="interfaceformat_1_1_x_formattable_1_1_navigatable.html" target="_top" xlink:title="木構造の分岐ノードとして清書可能なオブジェクトのクラス">
<polygon fill="white" stroke="black" points="125.918,-0.5 125.918,-18.5 257.534,-18.5 257.534,-0.5 125.918,-0.5"/>
<text text-anchor="middle" x="191.726" y="-6.5" font-family="Helvetica,sans-Serif" font-size="10.00">XFormattable.Navigatable</text>
</a>
</g>
</g>
<!-- Node4&#45;&gt;Node5 -->
<g id="edge5" class="edge"><title>Node4&#45;&gt;Node5</title>
<path fill="none" stroke="midnightblue" d="M63.0998,-50.4125C77.0222,-42.7545 95.0859,-33.6245 112.024,-27.5 121.778,-23.9732 132.47,-20.9813 142.741,-18.5098"/>
<polygon fill="midnightblue" stroke="midnightblue" points="61.1885,-47.4718 54.1876,-55.424 64.6196,-53.5733 61.1885,-47.4718"/>
</g>
<!-- Node6 -->
<g id="node6" class="node"><title>Node6</title>
<g id="a_node6"><a xlink:href="interfaceformat_1_1_x_formattable_1_1_typed_formattable.html" target="_top" xlink:title="ノードの型情報をもつ書式出力可能なオブジェクトのインタフェース．">
<polygon fill="white" stroke="black" points="112.024,-74.5 112.024,-92.5 271.428,-92.5 271.428,-74.5 112.024,-74.5"/>
<text text-anchor="middle" x="191.726" y="-80.5" font-family="Helvetica,sans-Serif" font-size="10.00">XFormattable.TypedFormattable</text>
</a>
</g>
</g>
<!-- Node4&#45;&gt;Node6 -->
<g id="edge7" class="edge"><title>Node4&#45;&gt;Node6</title>
<path fill="none" stroke="midnightblue" d="M86.1451,-70.4027C96.4776,-71.6967 107.644,-73.0952 118.702,-74.48"/>
<polygon fill="midnightblue" stroke="midnightblue" points="86.483,-66.9178 76.1256,-69.1479 85.6131,-73.8635 86.483,-66.9178"/>
</g>
<!-- Node7 -->
<g id="node7" class="node"><title>Node7</title>
<g id="a_node7"><a xlink:href="interfaceformat_1_1_x_formattable_1_1_hgt_formattable.html" target="_top" xlink:title="ノードの高さ情報をもつ書式出力可能なオブジェクトのインタフェース．">
<polygon fill="white" stroke="black" points="117.867,-37.5 117.867,-55.5 265.585,-55.5 265.585,-37.5 117.867,-37.5"/>
<text text-anchor="middle" x="191.726" y="-43.5" font-family="Helvetica,sans-Serif" font-size="10.00">XFormattable.HgtFormattable</text>
</a>
</g>
</g>
<!-- Node4&#45;&gt;Node7 -->
<g id="edge9" class="edge"><title>Node4&#45;&gt;Node7</title>
<path fill="none" stroke="midnightblue" d="M86.2506,-58.8954C96.2722,-57.7064 107.075,-56.4247 117.799,-55.1524"/>
<polygon fill="midnightblue" stroke="midnightblue" points="85.6436,-55.4428 76.1256,-60.0967 86.4683,-62.3941 85.6436,-55.4428"/>
</g>
<!-- Node5&#45;&gt;Node2 -->
<g id="edge4" class="edge"><title>Node5&#45;&gt;Node2</title>
<path fill="none" stroke="midnightblue" d="M249.402,-20.5168C278.748,-26.2211 313.967,-33.0671 340.886,-38.2996"/>
<polygon fill="midnightblue" stroke="midnightblue" points="249.774,-17.0237 239.29,-18.5512 248.439,-23.8951 249.774,-17.0237"/>
</g>
<!-- Node8 -->
<g id="node8" class="node"><title>Node8</title>
<g id="a_node8"><a xlink:href="interfaceformat_1_1_x_formattable_1_1_field_navigatable.html" target="_top" xlink:title="タグ付きノードに対応する清書対象のクラス。">
<polygon fill="white" stroke="black" points="307.428,-0.5 307.428,-18.5 460.718,-18.5 460.718,-0.5 307.428,-0.5"/>
<text text-anchor="middle" x="384.073" y="-6.5" font-family="Helvetica,sans-Serif" font-size="10.00">XFormattable.FieldNavigatable</text>
</a>
</g>
</g>
<!-- Node5&#45;&gt;Node8 -->
<g id="edge11" class="edge"><title>Node5&#45;&gt;Node8</title>
<path fill="none" stroke="midnightblue" d="M267.936,-9.5C280.86,-9.5 294.299,-9.5 307.24,-9.5"/>
<polygon fill="midnightblue" stroke="midnightblue" points="267.7,-6.0001 257.7,-9.5 267.7,-13.0001 267.7,-6.0001"/>
</g>
<!-- Node6&#45;&gt;Node2 -->
<g id="edge6" class="edge"><title>Node6&#45;&gt;Node2</title>
<path fill="none" stroke="midnightblue" d="M249.402,-72.4832C278.748,-66.7789 313.967,-59.9329 340.886,-54.7004"/>
<polygon fill="midnightblue" stroke="midnightblue" points="248.439,-69.1049 239.29,-74.4488 249.774,-75.9763 248.439,-69.1049"/>
</g>
<!-- Node7&#45;&gt;Node2 -->
<g id="edge8" class="edge"><title>Node7&#45;&gt;Node2</title>
<path fill="none" stroke="midnightblue" d="M275.983,-46.5C298.378,-46.5 321.667,-46.5 340.784,-46.5"/>
<polygon fill="midnightblue" stroke="midnightblue" points="275.775,-43.0001 265.775,-46.5 275.775,-50.0001 275.775,-43.0001"/>
</g>
<!-- Node8&#45;&gt;Node1 -->
<g id="edge10" class="edge"><title>Node8&#45;&gt;Node1</title>
<path fill="none" stroke="midnightblue" d="M470.814,-19.507C479.621,-20.5349 488.277,-21.5451 496.313,-22.483"/>
<polygon fill="midnightblue" stroke="midnightblue" points="471.169,-16.0247 460.83,-18.3418 470.357,-22.9775 471.169,-16.0247"/>
</g>
<!-- Node10 -->
<g id="node10" class="node"><title>Node10</title>
<g id="a_node10"><a xlink:href="classast_1_1_step_rule.html" target="_top" xlink:title="XMで実行可能（RunnableRule）な計算単位であるルールを表すオブジェクト.">
<polygon fill="white" stroke="black" points="730.796,-37.5 730.796,-55.5 787.934,-55.5 787.934,-37.5 730.796,-37.5"/>
<text text-anchor="middle" x="759.365" y="-43.5" font-family="Helvetica,sans-Serif" font-size="10.00">StepRule</text>
</a>
</g>
</g>
<!-- Node9&#45;&gt;Node10 -->
<g id="edge13" class="edge"><title>Node9&#45;&gt;Node10</title>
<path fill="none" stroke="midnightblue" d="M686.154,-46.5C700.012,-46.5 716.722,-46.5 730.576,-46.5"/>
<polygon fill="midnightblue" stroke="midnightblue" points="685.761,-43.0001 675.761,-46.5 685.761,-50.0001 685.761,-43.0001"/>
</g>
</g>
</svg>
