<?xml version="1.0" encoding="UTF-8" standalone="no"?>
<!DOCTYPE svg PUBLIC "-//W3C//DTD SVG 1.1//EN"
 "http://www.w3.org/Graphics/SVG/1.1/DTD/svg11.dtd">
<!-- Generated by graphviz version 2.38.0 (20140413.2041)
 -->
<!-- Title: CharSet Pages: 1 -->
<svg width="165pt" height="102pt"
 viewBox="0.00 0.00 165.42 102.00" xmlns="http://www.w3.org/2000/svg" xmlns:xlink="http://www.w3.org/1999/xlink">
<g id="graph0" class="graph" transform="scale(1 1) rotate(0) translate(4 98)">
<title>CharSet</title>
<polygon fill="white" stroke="none" points="-4,4 -4,-98 161.416,-98 161.416,4 -4,4"/>
<!-- Node1 -->
<g id="node1" class="node"><title>Node1</title>
<g id="a_node1"><a xlink:title="各種のビットマスクを用いて、文字種のテストを行うためのクラス.">
<polygon fill="#bfbfbf" stroke="black" points="28.1577,-0.5 28.1577,-18.5 80.8423,-18.5 80.8423,-0.5 28.1577,-0.5"/>
<text text-anchor="middle" x="54.5" y="-6.5" font-family="Helvetica,sans-Serif" font-size="10.00">CharSet</text>
</a>
</g>
</g>
<!-- Node2 -->
<g id="node2" class="node"><title>Node2</title>
<g id="a_node2"><a xlink:title=" ">
<polygon fill="white" stroke="#bfbfbf" points="0,-75.5 0,-93.5 29,-93.5 29,-75.5 0,-75.5"/>
<text text-anchor="middle" x="14.2808" y="-81.5" font-family="Helvetica,sans-Serif" font-size="10.00">int</text>
</a>
</g>
</g>
<!-- Node2&#45;&gt;Node1 -->
<g id="edge1" class="edge"><title>Node2&#45;&gt;Node1</title>
<path fill="none" stroke="#9a32cd" stroke-dasharray="5,2" d="M10.9441,-65.1816C10.115,-56.1865 10.5618,-45.4873 15.1553,-37 19.5456,-28.888 27.6252,-22.8018 35.3257,-18.5214"/>
<polygon fill="#9a32cd" stroke="#9a32cd" points="7.52628,-65.9936 12.4604,-75.3694 14.45,-64.9631 7.52628,-65.9936"/>
<text text-anchor="middle" x="44.6724" y="-44" font-family="Helvetica,sans-Serif" font-size="10.00"> MAX_CHAR</text>
</g>
<!-- Node3 -->
<g id="node3" class="node"><title>Node3</title>
<g id="a_node3"><a xlink:title=" ">
<polygon fill="white" stroke="#bfbfbf" points="69.7046,-75.5 69.7046,-93.5 121.295,-93.5 121.295,-75.5 69.7046,-75.5"/>
<text text-anchor="middle" x="95.5" y="-81.5" font-family="Helvetica,sans-Serif" font-size="10.00">boolean</text>
</a>
</g>
</g>
<!-- Node3&#45;&gt;Node1 -->
<g id="edge2" class="edge"><title>Node3&#45;&gt;Node1</title>
<path fill="none" stroke="#9a32cd" stroke-dasharray="5,2" d="M88.1468,-66.059C84.1744,-57.1656 78.97,-46.2937 73.5,-37 69.7097,-30.5601 64.7766,-23.7158 60.887,-18.5963"/>
<polygon fill="#9a32cd" stroke="#9a32cd" points="84.9976,-67.5944 92.1862,-75.3774 91.4202,-64.8103 84.9976,-67.5944"/>
<text text-anchor="middle" x="120.458" y="-49" font-family="Helvetica,sans-Serif" font-size="10.00"> FLAG_SET_BG</text>
<text text-anchor="middle" x="120.458" y="-39" font-family="Helvetica,sans-Serif" font-size="10.00">FLAG_SET_FG</text>
</g>
</g>
</svg>
