<?xml version="1.0" encoding="UTF-8" standalone="no"?>
<!DOCTYPE svg PUBLIC "-//W3C//DTD SVG 1.1//EN"
 "http://www.w3.org/Graphics/SVG/1.1/DTD/svg11.dtd">
<!-- Generated by graphviz version 2.47.0 (20210316.0004)
 -->
<!-- Title: AstMathOper.IntegerOper Pages: 1 -->
<svg width="342pt" height="420pt"
 viewBox="0.00 0.00 342.00 420.00" xmlns="http://www.w3.org/2000/svg" xmlns:xlink="http://www.w3.org/1999/xlink">
<g id="graph0" class="graph" transform="scale(1 1) rotate(0) translate(4 416)">
<title>AstMathOper.IntegerOper</title>
<polygon fill="white" stroke="transparent" points="-4,4 -4,-416 338,-416 338,4 -4,4"/>
<!-- Node1 -->
<g id="node1" class="node">
<title>Node1</title>
<g id="a_node1"><a xlink:title=" ">
<polygon fill="#bfbfbf" stroke="black" points="146,-112.5 146,-131.5 274,-131.5 274,-112.5 146,-112.5"/>
<text text-anchor="middle" x="210" y="-119.5" font-family="Helvetica,sans-Serif" font-size="10.00">AstMathOper.IntegerOper</text>
</a>
</g>
</g>
<!-- Node13 -->
<g id="node8" class="node">
<title>Node13</title>
<g id="a_node8"><a xlink:href="classast_1_1_ast_math_oper_1_1_add_term.html" target="_top" xlink:title=" ">
<polygon fill="white" stroke="black" points="86,-56.5 86,-75.5 202,-75.5 202,-56.5 86,-56.5"/>
<text text-anchor="middle" x="144" y="-63.5" font-family="Helvetica,sans-Serif" font-size="10.00">AstMathOper.AddTerm</text>
</a>
</g>
</g>
<!-- Node1&#45;&gt;Node13 -->
<g id="edge8" class="edge">
<title>Node1&#45;&gt;Node13</title>
<path fill="none" stroke="midnightblue" d="M191.45,-105.82C179.62,-96.15 164.71,-83.95 154.8,-75.83"/>
<polygon fill="midnightblue" stroke="midnightblue" points="189.44,-108.7 199.4,-112.32 193.87,-103.28 189.44,-108.7"/>
</g>
<!-- Node15 -->
<g id="node10" class="node">
<title>Node15</title>
<g id="a_node10"><a xlink:href="classast_1_1_ast_math_oper_1_1_mul_term.html" target="_top" xlink:title=" ">
<polygon fill="white" stroke="black" points="220,-56.5 220,-75.5 334,-75.5 334,-56.5 220,-56.5"/>
<text text-anchor="middle" x="277" y="-63.5" font-family="Helvetica,sans-Serif" font-size="10.00">AstMathOper.MulTerm</text>
</a>
</g>
</g>
<!-- Node1&#45;&gt;Node15 -->
<g id="edge10" class="edge">
<title>Node1&#45;&gt;Node15</title>
<path fill="none" stroke="midnightblue" d="M228.83,-105.82C240.84,-96.15 255.97,-83.95 266.04,-75.83"/>
<polygon fill="midnightblue" stroke="midnightblue" points="226.35,-103.32 220.76,-112.32 230.75,-108.77 226.35,-103.32"/>
</g>
<!-- Node2 -->
<g id="node2" class="node">
<title>Node2</title>
<g id="a_node2"><a xlink:href="classast_1_1_ast_math_oper_1_1_binary_oper.html" target="_top" xlink:title="end of class AstMathOper">
<polygon fill="white" stroke="black" points="102.5,-168.5 102.5,-187.5 227.5,-187.5 227.5,-168.5 102.5,-168.5"/>
<text text-anchor="middle" x="165" y="-175.5" font-family="Helvetica,sans-Serif" font-size="10.00">AstMathOper.BinaryOper</text>
</a>
</g>
</g>
<!-- Node2&#45;&gt;Node1 -->
<g id="edge1" class="edge">
<title>Node2&#45;&gt;Node1</title>
<path fill="none" stroke="midnightblue" d="M179.05,-160.14C186.89,-150.74 196.33,-139.4 202.71,-131.75"/>
<polygon fill="midnightblue" stroke="midnightblue" points="176.14,-158.16 172.43,-168.08 181.52,-162.64 176.14,-158.16"/>
</g>
<!-- Node3 -->
<g id="node3" class="node">
<title>Node3</title>
<g id="a_node3"><a xlink:href="classast_1_1_ast_math_oper.html" target="_top" xlink:title="値を返すことができるノードのクラス．一般に1個以上の子をもつ演算子である．">
<polygon fill="white" stroke="black" points="128,-224.5 128,-243.5 202,-243.5 202,-224.5 128,-224.5"/>
<text text-anchor="middle" x="165" y="-231.5" font-family="Helvetica,sans-Serif" font-size="10.00">AstMathOper</text>
</a>
</g>
</g>
<!-- Node3&#45;&gt;Node2 -->
<g id="edge2" class="edge">
<title>Node3&#45;&gt;Node2</title>
<path fill="none" stroke="midnightblue" d="M165,-213.8C165,-204.91 165,-194.78 165,-187.75"/>
<polygon fill="midnightblue" stroke="midnightblue" points="161.5,-214.08 165,-224.08 168.5,-214.08 161.5,-214.08"/>
</g>
<!-- Node4 -->
<g id="node4" class="node">
<title>Node4</title>
<g id="a_node4"><a xlink:href="classast_1_1_ast_oper.html" target="_top" xlink:title=" ">
<polygon fill="white" stroke="black" points="138.5,-280.5 138.5,-299.5 191.5,-299.5 191.5,-280.5 138.5,-280.5"/>
<text text-anchor="middle" x="165" y="-287.5" font-family="Helvetica,sans-Serif" font-size="10.00">AstOper</text>
</a>
</g>
</g>
<!-- Node4&#45;&gt;Node3 -->
<g id="edge3" class="edge">
<title>Node4&#45;&gt;Node3</title>
<path fill="none" stroke="midnightblue" d="M165,-269.8C165,-260.91 165,-250.78 165,-243.75"/>
<polygon fill="midnightblue" stroke="midnightblue" points="161.5,-270.08 165,-280.08 168.5,-270.08 161.5,-270.08"/>
</g>
<!-- Node5 -->
<g id="node5" class="node">
<title>Node5</title>
<g id="a_node5"><a xlink:href="classast_1_1_ast_node_branch.html" target="_top" xlink:title="タグなしの順アクセスの子供をもてる抽象構文木のノードのクラス。">
<polygon fill="white" stroke="red" points="0,-336.5 0,-355.5 86,-355.5 86,-336.5 0,-336.5"/>
<text text-anchor="middle" x="43" y="-343.5" font-family="Helvetica,sans-Serif" font-size="10.00">AstNodeBranch</text>
</a>
</g>
</g>
<!-- Node5&#45;&gt;Node4 -->
<g id="edge4" class="edge">
<title>Node5&#45;&gt;Node4</title>
<path fill="none" stroke="midnightblue" d="M71.54,-332.37C94.39,-322.26 125.81,-308.35 145.76,-299.52"/>
<polygon fill="midnightblue" stroke="midnightblue" points="70.06,-329.2 62.33,-336.44 72.89,-335.6 70.06,-329.2"/>
</g>
<!-- Node11 -->
<g id="node6" class="node">
<title>Node11</title>
<g id="a_node6"><a xlink:href="interfacecmd_1_1_generatable_1_1_evaluatable.html" target="_top" xlink:title="評価して値を返すノードのインタフェース．必ずしもコードを生成しなくても良い．">
<polygon fill="white" stroke="black" points="104.5,-336.5 104.5,-355.5 227.5,-355.5 227.5,-336.5 104.5,-336.5"/>
<text text-anchor="middle" x="166" y="-343.5" font-family="Helvetica,sans-Serif" font-size="10.00">Generatable.Evaluatable</text>
</a>
</g>
</g>
<!-- Node11&#45;&gt;Node4 -->
<g id="edge5" class="edge">
<title>Node11&#45;&gt;Node4</title>
<path fill="none" stroke="midnightblue" d="M165.64,-325.8C165.48,-316.91 165.29,-306.78 165.16,-299.75"/>
<polygon fill="midnightblue" stroke="midnightblue" points="162.15,-326.15 165.83,-336.08 169.15,-326.02 162.15,-326.15"/>
</g>
<!-- Node12 -->
<g id="node7" class="node">
<title>Node12</title>
<g id="a_node7"><a xlink:href="interfacecmd_1_1_generatable.html" target="_top" xlink:title="変換してコードを生成できるノードのインタフェース.">
<polygon fill="white" stroke="black" points="176.5,-392.5 176.5,-411.5 245.5,-411.5 245.5,-392.5 176.5,-392.5"/>
<text text-anchor="middle" x="211" y="-399.5" font-family="Helvetica,sans-Serif" font-size="10.00">Generatable</text>
</a>
</g>
</g>
<!-- Node12&#45;&gt;Node1 -->
<g id="edge7" class="edge">
<title>Node12&#45;&gt;Node1</title>
<path fill="none" stroke="midnightblue" d="M222.83,-383.96C236.16,-363.06 256,-326.07 256,-291 256,-291 256,-291 256,-233 256,-192.43 229.04,-149.5 216.4,-131.61"/>
<polygon fill="midnightblue" stroke="midnightblue" points="219.87,-382.1 217.26,-392.37 225.7,-385.97 219.87,-382.1"/>
</g>
<!-- Node12&#45;&gt;Node11 -->
<g id="edge6" class="edge">
<title>Node12&#45;&gt;Node11</title>
<path fill="none" stroke="midnightblue" d="M196.95,-384.14C189.11,-374.74 179.67,-363.4 173.29,-355.75"/>
<polygon fill="midnightblue" stroke="midnightblue" points="194.48,-386.64 203.57,-392.08 199.86,-382.16 194.48,-386.64"/>
</g>
<!-- Node14 -->
<g id="node9" class="node">
<title>Node14</title>
<g id="a_node9"><a xlink:href="classast_1_1_ast_math_oper_1_1_pre_term.html" target="_top" xlink:title=" ">
<polygon fill="white" stroke="black" points="87.5,-0.5 87.5,-19.5 200.5,-19.5 200.5,-0.5 87.5,-0.5"/>
<text text-anchor="middle" x="144" y="-7.5" font-family="Helvetica,sans-Serif" font-size="10.00">AstMathOper.PreTerm</text>
</a>
</g>
</g>
<!-- Node13&#45;&gt;Node14 -->
<g id="edge9" class="edge">
<title>Node13&#45;&gt;Node14</title>
<path fill="none" stroke="midnightblue" d="M144,-45.8C144,-36.91 144,-26.78 144,-19.75"/>
<polygon fill="midnightblue" stroke="midnightblue" points="140.5,-46.08 144,-56.08 147.5,-46.08 140.5,-46.08"/>
</g>
</g>
</svg>
