<?xml version="1.0" encoding="UTF-8" standalone="no"?>
<!DOCTYPE svg PUBLIC "-//W3C//DTD SVG 1.1//EN"
 "http://www.w3.org/Graphics/SVG/1.1/DTD/svg11.dtd">
<!-- Generated by graphviz version 2.38.0 (20140413.2041)
 -->
<!-- Title: add Pages: 1 -->
<svg width="436pt" height="82pt"
 viewBox="0.00 0.00 436.26 82.00" xmlns="http://www.w3.org/2000/svg" xmlns:xlink="http://www.w3.org/1999/xlink">
<g id="graph0" class="graph" transform="scale(1 1) rotate(0) translate(4 78)">
<title>add</title>
<polygon fill="white" stroke="none" points="-4,4 -4,-78 432.265,-78 432.265,4 -4,4"/>
<!-- Node1 -->
<g id="node1" class="node"><title>Node1</title>
<g id="a_node1"><a xlink:title="内容の末尾に与えられた文字列を追加し，自分自身を返す。">
<polygon fill="#bfbfbf" stroke="black" points="0,-18.5 0,-36.5 32.6846,-36.5 32.6846,-18.5 0,-18.5"/>
<text text-anchor="middle" x="16.3423" y="-24.5" font-family="Helvetica,sans-Serif" font-size="10.00">add</text>
</a>
</g>
</g>
<!-- Node2 -->
<g id="node2" class="node"><title>Node2</title>
<g id="a_node2"><a xlink:href="classutil_1_1_string_buf.html#a0c7945ff1d83a45aaee200c4bf428c53" target="_top" xlink:title="バッファの末尾に文字{c} を追加する.">
<polygon fill="white" stroke="black" points="68.6846,-37.5 68.6846,-55.5 160.842,-55.5 160.842,-37.5 68.6846,-37.5"/>
<text text-anchor="middle" x="114.763" y="-43.5" font-family="Helvetica,sans-Serif" font-size="10.00">util.StringBuf.add</text>
</a>
</g>
</g>
<!-- Node1&#45;&gt;Node2 -->
<g id="edge1" class="edge"><title>Node1&#45;&gt;Node2</title>
<path fill="none" stroke="midnightblue" d="M32.834,-30.5527C40.0248,-31.9696 49.0543,-33.7489 58.4518,-35.6007"/>
<polygon fill="midnightblue" stroke="midnightblue" points="57.8286,-39.0452 68.3166,-37.5446 59.182,-32.1772 57.8286,-39.0452"/>
</g>
<!-- Node5 -->
<g id="node5" class="node"><title>Node5</title>
<g id="a_node5"><a xlink:href="classutil_1_1_report.html#ae68320b8203db308b03de0834134ff8d" target="_top" xlink:title="現在の入れ子深さで段差げして，printlnを呼ぶ．">
<polygon fill="white" stroke="black" points="68.9678,-0.5 68.9678,-18.5 160.559,-18.5 160.559,-0.5 68.9678,-0.5"/>
<text text-anchor="middle" x="114.763" y="-6.5" font-family="Helvetica,sans-Serif" font-size="10.00">util.Report.println</text>
</a>
</g>
</g>
<!-- Node1&#45;&gt;Node5 -->
<g id="edge6" class="edge"><title>Node1&#45;&gt;Node5</title>
<path fill="none" stroke="midnightblue" d="M32.834,-24.608C40.1038,-23.2509 49.253,-21.5429 58.7618,-19.7677"/>
<polygon fill="midnightblue" stroke="midnightblue" points="59.5496,-23.1812 68.7374,-17.9055 58.2649,-16.3001 59.5496,-23.1812"/>
</g>
<!-- Node3 -->
<g id="node3" class="node"><title>Node3</title>
<g id="a_node3"><a xlink:href="classutil_1_1_string_buf.html#a2dc9e4579aee8516f9402d5ab3eac5eb" target="_top" xlink:title="バッファの末尾に文字列{str} を連結する.">
<polygon fill="white" stroke="black" points="196.842,-37.5 196.842,-55.5 305.684,-55.5 305.684,-37.5 196.842,-37.5"/>
<text text-anchor="middle" x="251.263" y="-43.5" font-family="Helvetica,sans-Serif" font-size="10.00">util.StringBuf.append</text>
</a>
</g>
</g>
<!-- Node2&#45;&gt;Node3 -->
<g id="edge2" class="edge"><title>Node2&#45;&gt;Node3</title>
<path fill="none" stroke="midnightblue" d="M160.924,-46.5C169.151,-46.5 177.876,-46.5 186.522,-46.5"/>
<polygon fill="midnightblue" stroke="midnightblue" points="186.602,-50.0001 196.602,-46.5 186.602,-43.0001 186.602,-50.0001"/>
</g>
<!-- Node3&#45;&gt;Node3 -->
<g id="edge3" class="edge"><title>Node3&#45;&gt;Node3</title>
<path fill="none" stroke="midnightblue" d="M231.594,-55.5134C220.73,-64.322 227.286,-74 251.263,-74 266.997,-74 275.23,-69.832 275.959,-64.477"/>
<polygon fill="midnightblue" stroke="midnightblue" points="278.876,-62.5224 270.931,-55.5134 272.771,-65.9473 278.876,-62.5224"/>
</g>
<!-- Node4 -->
<g id="node4" class="node"><title>Node4</title>
<g id="a_node4"><a xlink:href="classutil_1_1_string_buf.html#a9ea51ad122f068c0e30e6a7a17f57685" target="_top" xlink:title="バッファの末尾に文字列{val} を追加する. メソッド {append} に同じ.">
<polygon fill="white" stroke="black" points="341.684,-37.5 341.684,-55.5 428.265,-55.5 428.265,-37.5 341.684,-37.5"/>
<text text-anchor="middle" x="384.974" y="-43.5" font-family="Helvetica,sans-Serif" font-size="10.00">util.StringBuf.str</text>
</a>
</g>
</g>
<!-- Node3&#45;&gt;Node4 -->
<g id="edge4" class="edge"><title>Node3&#45;&gt;Node4</title>
<path fill="none" stroke="midnightblue" d="M305.835,-39.8555C314.24,-39.7096 322.922,-39.715 331.306,-39.8718"/>
<polygon fill="midnightblue" stroke="midnightblue" points="331.258,-43.3716 341.348,-40.138 331.444,-36.3741 331.258,-43.3716"/>
</g>
<!-- Node4&#45;&gt;Node3 -->
<g id="edge5" class="edge"><title>Node4&#45;&gt;Node3</title>
<path fill="none" stroke="midnightblue" d="M341.348,-52.862C333.211,-53.1449 324.533,-53.2731 315.905,-53.2466"/>
<polygon fill="midnightblue" stroke="midnightblue" points="315.87,-49.7462 305.835,-53.1445 315.799,-56.7458 315.87,-49.7462"/>
</g>
</g>
</svg>
