<?xml version="1.0" encoding="UTF-8" standalone="no"?>
<!DOCTYPE svg PUBLIC "-//W3C//DTD SVG 1.1//EN"
 "http://www.w3.org/Graphics/SVG/1.1/DTD/svg11.dtd">
<!-- Generated by graphviz version 2.47.0 (20210316.0004)
 -->
<!-- Title: CommandBase.CommandJumpBase Pages: 1 -->
<svg width="831pt" height="180pt"
 viewBox="0.00 0.00 831.00 180.00" xmlns="http://www.w3.org/2000/svg" xmlns:xlink="http://www.w3.org/1999/xlink">
<g id="graph0" class="graph" transform="scale(1 1) rotate(0) translate(4 176)">
<title>CommandBase.CommandJumpBase</title>
<polygon fill="white" stroke="transparent" points="-4,4 -4,-176 827,-176 827,4 -4,4"/>
<!-- Node1 -->
<g id="node1" class="node">
<title>Node1</title>
<g id="a_node1"><a xlink:title="無条件ジャンプの命令">
<polygon fill="#bfbfbf" stroke="black" points="431,-76.5 431,-95.5 610,-95.5 610,-76.5 431,-76.5"/>
<text text-anchor="middle" x="520.5" y="-83.5" font-family="Helvetica,sans-Serif" font-size="10.00">CommandBase.CommandJumpBase</text>
</a>
</g>
</g>
<!-- Node6 -->
<g id="node6" class="node">
<title>Node6</title>
<g id="a_node6"><a xlink:href="classcmd_1_1_command_base_1_1_cmd_jmp.html" target="_top" xlink:title="無条件ジャンプの命令">
<polygon fill="white" stroke="black" points="671,-152.5 671,-171.5 798,-171.5 798,-152.5 671,-152.5"/>
<text text-anchor="middle" x="734.5" y="-159.5" font-family="Helvetica,sans-Serif" font-size="10.00">CommandBase.CmdJmp</text>
</a>
</g>
</g>
<!-- Node1&#45;&gt;Node6 -->
<g id="edge5" class="edge">
<title>Node1&#45;&gt;Node6</title>
<path fill="none" stroke="midnightblue" d="M548.27,-100.3C573.03,-113.04 611.16,-131.39 646,-143 657.06,-146.68 669.15,-149.84 680.72,-152.46"/>
<polygon fill="midnightblue" stroke="midnightblue" points="549.64,-97.07 539.15,-95.56 546.41,-103.28 549.64,-97.07"/>
</g>
<!-- Node7 -->
<g id="node7" class="node">
<title>Node7</title>
<g id="a_node7"><a xlink:href="classcmd_1_1_command_base_1_1_cmd_jmp_f_a_l_s_e.html" target="_top" xlink:title="偽ならばジャンプの命令">
<polygon fill="white" stroke="black" points="655.5,-114.5 655.5,-133.5 813.5,-133.5 813.5,-114.5 655.5,-114.5"/>
<text text-anchor="middle" x="734.5" y="-121.5" font-family="Helvetica,sans-Serif" font-size="10.00">CommandBase.CmdJmpFALSE</text>
</a>
</g>
</g>
<!-- Node1&#45;&gt;Node7 -->
<g id="edge6" class="edge">
<title>Node1&#45;&gt;Node7</title>
<path fill="none" stroke="midnightblue" d="M584.8,-97.35C615.22,-102.8 651.27,-109.26 680.26,-114.46"/>
<polygon fill="midnightblue" stroke="midnightblue" points="585.18,-93.86 574.72,-95.54 583.95,-100.75 585.18,-93.86"/>
</g>
<!-- Node8 -->
<g id="node8" class="node">
<title>Node8</title>
<g id="a_node8"><a xlink:href="classcmd_1_1_command_base_1_1_cmd_jmp_n_o_n_z_e_r_o.html" target="_top" xlink:title="スタックの値が非0ならばジャンプの命令">
<polygon fill="white" stroke="black" points="646,-76.5 646,-95.5 823,-95.5 823,-76.5 646,-76.5"/>
<text text-anchor="middle" x="734.5" y="-83.5" font-family="Helvetica,sans-Serif" font-size="10.00">CommandBase.CmdJmpNONZERO</text>
</a>
</g>
</g>
<!-- Node1&#45;&gt;Node8 -->
<g id="edge7" class="edge">
<title>Node1&#45;&gt;Node8</title>
<path fill="none" stroke="midnightblue" d="M620.19,-86C628.76,-86 637.39,-86 645.86,-86"/>
<polygon fill="midnightblue" stroke="midnightblue" points="620.18,-82.5 610.18,-86 620.18,-89.5 620.18,-82.5"/>
</g>
<!-- Node9 -->
<g id="node9" class="node">
<title>Node9</title>
<g id="a_node9"><a xlink:href="classcmd_1_1_command_base_1_1_cmd_jmp_t_r_u_e.html" target="_top" xlink:title="真ならばジャンプの命令">
<polygon fill="white" stroke="black" points="657,-38.5 657,-57.5 812,-57.5 812,-38.5 657,-38.5"/>
<text text-anchor="middle" x="734.5" y="-45.5" font-family="Helvetica,sans-Serif" font-size="10.00">CommandBase.CmdJmpTRUE</text>
</a>
</g>
</g>
<!-- Node1&#45;&gt;Node9 -->
<g id="edge8" class="edge">
<title>Node1&#45;&gt;Node9</title>
<path fill="none" stroke="midnightblue" d="M584.8,-74.65C615.22,-69.2 651.27,-62.74 680.26,-57.54"/>
<polygon fill="midnightblue" stroke="midnightblue" points="583.95,-71.25 574.72,-76.46 585.18,-78.14 583.95,-71.25"/>
</g>
<!-- Node10 -->
<g id="node10" class="node">
<title>Node10</title>
<g id="a_node10"><a xlink:href="classcmd_1_1_command_base_1_1_cmd_jmp_z_e_r_o.html" target="_top" xlink:title="スタックの値が0ならばジャンプの命令">
<polygon fill="white" stroke="black" points="657,-0.5 657,-19.5 812,-19.5 812,-0.5 657,-0.5"/>
<text text-anchor="middle" x="734.5" y="-7.5" font-family="Helvetica,sans-Serif" font-size="10.00">CommandBase.CmdJmpZERO</text>
</a>
</g>
</g>
<!-- Node1&#45;&gt;Node10 -->
<g id="edge9" class="edge">
<title>Node1&#45;&gt;Node10</title>
<path fill="none" stroke="midnightblue" d="M548.27,-71.7C573.03,-58.96 611.16,-40.61 646,-29 657.06,-25.32 669.15,-22.16 680.72,-19.54"/>
<polygon fill="midnightblue" stroke="midnightblue" points="546.41,-68.72 539.15,-76.44 549.64,-74.93 546.41,-68.72"/>
</g>
<!-- Node2 -->
<g id="node2" class="node">
<title>Node2</title>
<g id="a_node2"><a xlink:href="classcmd_1_1_command_base.html" target="_top" xlink:title="局所変数環境に値を書き込む式の抽象クラス.">
<polygon fill="white" stroke="black" points="311,-76.5 311,-95.5 395,-95.5 395,-76.5 311,-76.5"/>
<text text-anchor="middle" x="353" y="-83.5" font-family="Helvetica,sans-Serif" font-size="10.00">CommandBase</text>
</a>
</g>
</g>
<!-- Node2&#45;&gt;Node1 -->
<g id="edge1" class="edge">
<title>Node2&#45;&gt;Node1</title>
<path fill="none" stroke="midnightblue" d="M405.37,-86C413.52,-86 422.14,-86 430.85,-86"/>
<polygon fill="midnightblue" stroke="midnightblue" points="405.34,-82.5 395.34,-86 405.34,-89.5 405.34,-82.5"/>
</g>
<!-- Node3 -->
<g id="node3" class="node">
<title>Node3</title>
<g id="a_node3"><a xlink:href="interfacemachine_1_1_cmd.html" target="_top" xlink:title="仮装命令のインタフェース.">
<polygon fill="white" stroke="black" points="174,-95.5 174,-114.5 212,-114.5 212,-95.5 174,-95.5"/>
<text text-anchor="middle" x="193" y="-102.5" font-family="Helvetica,sans-Serif" font-size="10.00">Cmd</text>
</a>
</g>
</g>
<!-- Node3&#45;&gt;Node2 -->
<g id="edge2" class="edge">
<title>Node3&#45;&gt;Node2</title>
<path fill="none" stroke="midnightblue" d="M222.25,-101.6C246.89,-98.64 282.95,-94.3 310.81,-90.95"/>
<polygon fill="midnightblue" stroke="midnightblue" points="221.64,-98.15 212.12,-102.82 222.47,-105.1 221.64,-98.15"/>
</g>
<!-- Node4 -->
<g id="node4" class="node">
<title>Node4</title>
<g id="a_node4"><a xlink:href="interfaceformat_1_1_x_formattable_1_1_custom_formattable.html" target="_top" xlink:title="カスタム清書出力器をもつオブジェクトのクラス．">
<polygon fill="white" stroke="black" points="111,-57.5 111,-76.5 275,-76.5 275,-57.5 111,-57.5"/>
<text text-anchor="middle" x="193" y="-64.5" font-family="Helvetica,sans-Serif" font-size="10.00">XFormattable.CustomFormattable</text>
</a>
</g>
</g>
<!-- Node4&#45;&gt;Node2 -->
<g id="edge3" class="edge">
<title>Node4&#45;&gt;Node2</title>
<path fill="none" stroke="midnightblue" d="M283.42,-77.75C292.93,-78.9 302.23,-80.02 310.76,-81.04"/>
<polygon fill="midnightblue" stroke="midnightblue" points="283.81,-74.27 273.46,-76.56 282.97,-81.22 283.81,-74.27"/>
</g>
<!-- Node5 -->
<g id="node5" class="node">
<title>Node5</title>
<g id="a_node5"><a xlink:href="interfaceformat_1_1_x_formattable.html" target="_top" xlink:title="入れ子フォーマット出力可能なオブジェクトのインタフェース。">
<polygon fill="white" stroke="black" points="0,-57.5 0,-76.5 75,-76.5 75,-57.5 0,-57.5"/>
<text text-anchor="middle" x="37.5" y="-64.5" font-family="Helvetica,sans-Serif" font-size="10.00">XFormattable</text>
</a>
</g>
</g>
<!-- Node5&#45;&gt;Node4 -->
<g id="edge4" class="edge">
<title>Node5&#45;&gt;Node4</title>
<path fill="none" stroke="midnightblue" d="M85.53,-67C93.59,-67 102.17,-67 110.83,-67"/>
<polygon fill="midnightblue" stroke="midnightblue" points="85.27,-63.5 75.27,-67 85.27,-70.5 85.27,-63.5"/>
</g>
</g>
</svg>
