<?xml version="1.0" encoding="UTF-8" standalone="no"?>
<!DOCTYPE svg PUBLIC "-//W3C//DTD SVG 1.1//EN"
 "http://www.w3.org/Graphics/SVG/1.1/DTD/svg11.dtd">
<!-- Generated by graphviz version 2.38.0 (20140413.2041)
 -->
<!-- Title: AstArrow Pages: 1 -->
<!--zoomable 511 -->
<svg id="main" version="1.1" xmlns="http://www.w3.org/2000/svg" xmlns:xlink="http://www.w3.org/1999/xlink" xml:space="preserve" onload="init(evt)">
<style type="text/css"><![CDATA[
.edge:hover path { stroke: red; }
.edge:hover polygon { stroke: red; fill: red; }
]]></style>
<script type="text/javascript"><![CDATA[
var edges = document.getElementsByTagName('g');
if (edges && edges.length) {
  for (var i=0;i<edges.length;i++) {
    if (edges[i].id.substr(0,4)=='edge') {
      edges[i].setAttribute('class','edge');
    }
  }
}
]]></script>
        <defs>
                <circle id="rim" cx="0" cy="0" r="7"/>
                <circle id="rim2" cx="0" cy="0" r="3.5"/>
                <g id="zoomPlus">
                        <use xlink:href="#rim" fill="#404040">
                                <set attributeName="fill" to="#808080" begin="zoomplus.mouseover" end="zoomplus.mouseout"/>
                        </use>
                        <path d="M-4,0h8M0,-4v8" fill="none" stroke="white" stroke-width="1.5" pointer-events="none"/>
                </g>
                <g id="zoomMin">
                        <use xlink:href="#rim" fill="#404040">
                                <set attributeName="fill" to="#808080" begin="zoomminus.mouseover" end="zoomminus.mouseout"/>
                        </use>
                        <path d="M-4,0h8" fill="none" stroke="white" stroke-width="1.5" pointer-events="none"/>
                </g>
                <g id="dirArrow">
                        <path fill="none" stroke="white" stroke-width="1.5" d="M0,-3.0v7 M-2.5,-0.5L0,-3.0L2.5,-0.5"/>
                </g>
               <g id="resetDef">
                       <use xlink:href="#rim2" fill="#404040">
                               <set attributeName="fill" to="#808080" begin="reset.mouseover" end="reset.mouseout"/>
                       </use>
               </g>
        </defs>

<script type="text/javascript">
var viewWidth = 664;
var viewHeight = 511;
var sectionId = 'dynsection-1';
</script>
<script xlink:href="svgpan.js"/>
<svg id="graph" class="graph">
<g id="viewport">
<title>AstArrow</title>
<polygon fill="white" stroke="none" points="-4,4 -4,-507 660.062,-507 660.062,4 -4,4"/>
<!-- Node1 -->
<g id="node1" class="node"><title>Node1</title>
<g id="a_node1"><a xlink:title="値の読み出しオブジェクト．">
<polygon fill="#bfbfbf" stroke="black" points="599.501,-367.5 599.501,-385.5 656.062,-385.5 656.062,-367.5 599.501,-367.5"/>
<text text-anchor="middle" x="627.782" y="-373.5" font-family="Helvetica,sans-Serif" font-size="10.00">AstArrow</text>
</a>
</g>
</g>
<!-- Node2 -->
<g id="node2" class="node"><title>Node2</title>
<g id="a_node2"><a xlink:href="classast_1_1_ast_node_branch.html" target="_top" xlink:title="抽象構文木のノードの基本実装クラス.">
<polygon fill="white" stroke="black" points="463.014,-367.5 463.014,-385.5 549.053,-385.5 549.053,-367.5 463.014,-367.5"/>
<text text-anchor="middle" x="506.033" y="-373.5" font-family="Helvetica,sans-Serif" font-size="10.00">AstNodeBranch</text>
</a>
</g>
</g>
<!-- Node2&#45;&gt;Node1 -->
<g id="edge1" class="edge"><title>Node2&#45;&gt;Node1</title>
<path fill="none" stroke="midnightblue" d="M559.543,-376.5C573.196,-376.5 587.368,-376.5 599.16,-376.5"/>
<polygon fill="midnightblue" stroke="midnightblue" points="559.252,-373 549.252,-376.5 559.252,-380 559.252,-373"/>
</g>
<!-- Node3 -->
<g id="node3" class="node"><title>Node3</title>
<g id="a_node3"><a xlink:href="classast_1_1_ast_node.html" target="_top" xlink:title=" ">
<polygon fill="white" stroke="black" points="282.337,-283.5 282.337,-301.5 336.691,-301.5 336.691,-283.5 282.337,-283.5"/>
<text text-anchor="middle" x="309.514" y="-289.5" font-family="Helvetica,sans-Serif" font-size="10.00">AstNode</text>
</a>
</g>
</g>
<!-- Node3&#45;&gt;Node2 -->
<g id="edge2" class="edge"><title>Node3&#45;&gt;Node2</title>
<path fill="none" stroke="midnightblue" d="M346.98,-295.852C375.888,-300.047 416.094,-309.456 445.014,-330.5 456.675,-338.986 452.018,-348.168 463.014,-357.5 467.653,-361.437 473.241,-364.711 478.806,-367.369"/>
<polygon fill="midnightblue" stroke="midnightblue" points="347.252,-292.358 336.882,-294.53 346.344,-299.299 347.252,-292.358"/>
</g>
<!-- Node4 -->
<g id="node4" class="node"><title>Node4</title>
<g id="a_node4"><a xlink:href="interfaceformat_1_1_x_formattable.html" target="_top" xlink:title="入れ子フォーマット出力可能なオブジェクトのインタフェース。">
<polygon fill="white" stroke="black" points="0,-427.5 0,-445.5 76.0244,-445.5 76.0244,-427.5 0,-427.5"/>
<text text-anchor="middle" x="38.0122" y="-433.5" font-family="Helvetica,sans-Serif" font-size="10.00">XFormattable</text>
</a>
</g>
</g>
<!-- Node4&#45;&gt;Node3 -->
<g id="edge3" class="edge"><title>Node4&#45;&gt;Node3</title>
<path fill="none" stroke="midnightblue" d="M62.585,-422.151C72.285,-416.301 83.6569,-409.512 94.0244,-403.5 145.935,-373.396 162.378,-371.519 211.812,-337.5 220.391,-331.596 220.825,-327.76 229.812,-322.5 246.219,-312.899 266.258,-305.313 282.009,-300.171"/>
<polygon fill="midnightblue" stroke="midnightblue" points="60.628,-419.244 53.8847,-427.416 64.2522,-425.233 60.628,-419.244"/>
</g>
<!-- Node9 -->
<g id="node9" class="node"><title>Node9</title>
<g id="a_node9"><a xlink:href="interfaceformat_1_1_x_formattable_1_1_navigatable.html" target="_top" xlink:title="木構造の分岐ノードとして清書可能なオブジェクトのクラス">
<polygon fill="white" stroke="black" points="243.707,-484.5 243.707,-502.5 375.322,-502.5 375.322,-484.5 243.707,-484.5"/>
<text text-anchor="middle" x="309.514" y="-490.5" font-family="Helvetica,sans-Serif" font-size="10.00">XFormattable.Navigatable</text>
</a>
</g>
</g>
<!-- Node4&#45;&gt;Node9 -->
<g id="edge9" class="edge"><title>Node4&#45;&gt;Node9</title>
<path fill="none" stroke="midnightblue" d="M66.6644,-449.576C75.2765,-453.234 84.9078,-456.912 94.0244,-459.5 143.17,-473.451 200.381,-482.159 243.35,-487.266"/>
<polygon fill="midnightblue" stroke="midnightblue" points="68.0179,-446.347 57.4559,-445.514 65.1927,-452.752 68.0179,-446.347"/>
</g>
<!-- Node10 -->
<g id="node10" class="node"><title>Node10</title>
<g id="a_node10"><a xlink:href="interfaceformat_1_1_x_formattable_1_1_typed_formattable.html" target="_top" xlink:title="ノードの型情報をもつ書式出力可能なオブジェクトのインタフェース．">
<polygon fill="white" stroke="black" points="229.812,-447.5 229.812,-465.5 389.216,-465.5 389.216,-447.5 229.812,-447.5"/>
<text text-anchor="middle" x="309.514" y="-453.5" font-family="Helvetica,sans-Serif" font-size="10.00">XFormattable.TypedFormattable</text>
</a>
</g>
</g>
<!-- Node4&#45;&gt;Node10 -->
<g id="edge11" class="edge"><title>Node4&#45;&gt;Node10</title>
<path fill="none" stroke="midnightblue" d="M86.3678,-440.014C125.943,-442.951 183.206,-447.201 229.681,-450.65"/>
<polygon fill="midnightblue" stroke="midnightblue" points="86.434,-436.51 76.2023,-439.26 85.9159,-443.49 86.434,-436.51"/>
</g>
<!-- Node11 -->
<g id="node11" class="node"><title>Node11</title>
<g id="a_node11"><a xlink:href="interfaceformat_1_1_x_formattable_1_1_hgt_formattable.html" target="_top" xlink:title="ノードの高さ情報をもつ書式出力可能なオブジェクトのインタフェース．">
<polygon fill="white" stroke="black" points="235.655,-373.5 235.655,-391.5 383.374,-391.5 383.374,-373.5 235.655,-373.5"/>
<text text-anchor="middle" x="309.514" y="-379.5" font-family="Helvetica,sans-Serif" font-size="10.00">XFormattable.HgtFormattable</text>
</a>
</g>
</g>
<!-- Node4&#45;&gt;Node11 -->
<g id="edge13" class="edge"><title>Node4&#45;&gt;Node11</title>
<path fill="none" stroke="midnightblue" d="M86.025,-427.852C120.81,-421.373 169.323,-412.169 211.812,-403.5 230.329,-399.722 250.787,-395.314 268.099,-391.514"/>
<polygon fill="midnightblue" stroke="midnightblue" points="85.3366,-424.42 76.1443,-429.688 86.6154,-431.302 85.3366,-424.42"/>
</g>
<!-- Node5 -->
<g id="node5" class="node"><title>Node5</title>
<g id="a_node5"><a xlink:title=" ">
<polygon fill="white" stroke="#bfbfbf" points="5.46143,-328.5 5.46143,-346.5 70.563,-346.5 70.563,-328.5 5.46143,-328.5"/>
<text text-anchor="middle" x="38.0122" y="-334.5" font-family="Helvetica,sans-Serif" font-size="10.00">TraceLevel</text>
</a>
</g>
</g>
<!-- Node5&#45;&gt;Node2 -->
<g id="edge14" class="edge"><title>Node5&#45;&gt;Node2</title>
<path fill="none" stroke="#9a32cd" stroke-dasharray="5,2" d="M81.4218,-337.386C147.459,-337.671 278.757,-340.086 389.216,-353.5 415.468,-356.688 444.671,-362.503 467.186,-367.489"/>
<polygon fill="#9a32cd" stroke="#9a32cd" points="81.0243,-333.885 71.0145,-337.357 81.0046,-340.885 81.0243,-333.885"/>
<text text-anchor="middle" x="309.514" y="-355.5" font-family="Helvetica,sans-Serif" font-size="10.00"> LOG</text>
</g>
<!-- Node5&#45;&gt;Node3 -->
<g id="edge4" class="edge"><title>Node5&#45;&gt;Node3</title>
<path fill="none" stroke="#9a32cd" stroke-dasharray="5,2" d="M80.4566,-326.456C85.0195,-325.389 89.6099,-324.378 94.0244,-323.5 161.37,-310.103 241.702,-300.053 282.279,-295.386"/>
<polygon fill="#9a32cd" stroke="#9a32cd" points="79.4802,-323.092 70.5904,-328.855 81.1342,-329.893 79.4802,-323.092"/>
<text text-anchor="middle" x="152.918" y="-325.5" font-family="Helvetica,sans-Serif" font-size="10.00"> LOG</text>
</g>
<!-- Node6 -->
<g id="node6" class="node"><title>Node6</title>
<g id="a_node6"><a xlink:title=" ">
<polygon fill="white" stroke="#bfbfbf" points="23.5122,-128.5 23.5122,-146.5 52.5122,-146.5 52.5122,-128.5 23.5122,-128.5"/>
<text text-anchor="middle" x="38.0122" y="-134.5" font-family="Helvetica,sans-Serif" font-size="10.00">int</text>
</a>
</g>
</g>
<!-- Node6&#45;&gt;Node2 -->
<g id="edge16" class="edge"><title>Node6&#45;&gt;Node2</title>
<path fill="none" stroke="#9a32cd" stroke-dasharray="5,2" d="M62.2769,-129.107C122.389,-109.01 285.421,-64.7753 389.216,-134.5 437.705,-167.073 427.477,-197.78 445.014,-253.5 459.096,-298.246 434.299,-320.406 463.014,-357.5 466.15,-361.552 470.345,-364.765 474.872,-367.306"/>
<polygon fill="#9a32cd" stroke="#9a32cd" points="60.9155,-125.874 52.5974,-132.436 63.1921,-132.493 60.9155,-125.874"/>
<text text-anchor="middle" x="309.514" y="-166.5" font-family="Helvetica,sans-Serif" font-size="10.00"> height</text>
<text text-anchor="middle" x="309.514" y="-156.5" font-family="Helvetica,sans-Serif" font-size="10.00">UNDEF</text>
<text text-anchor="start" x="269.785" y="-146.5" font-family="Helvetica,sans-Serif" font-size="10.00">BITMASK_PRINT</text>
<text text-anchor="middle" x="309.514" y="-136.5" font-family="Helvetica,sans-Serif" font-size="10.00">_WIDTH</text>
</g>
<!-- Node6&#45;&gt;Node3 -->
<g id="edge5" class="edge"><title>Node6&#45;&gt;Node3</title>
<path fill="none" stroke="#9a32cd" stroke-dasharray="5,2" d="M62.3965,-142.371C108.909,-152.095 208.841,-173.185 211.812,-175.5 225.924,-186.493 219.458,-196.913 229.812,-211.5 250.469,-240.599 281.533,-269.263 297.766,-283.403"/>
<polygon fill="#9a32cd" stroke="#9a32cd" points="63.075,-138.937 52.5707,-140.319 61.6444,-145.789 63.075,-138.937"/>
<text text-anchor="middle" x="152.918" y="-187.5" font-family="Helvetica,sans-Serif" font-size="10.00"> UNDEF</text>
<text text-anchor="middle" x="152.918" y="-177.5" font-family="Helvetica,sans-Serif" font-size="10.00">BITMASK_PRINT_WIDTH</text>
</g>
<!-- Node13 -->
<g id="node13" class="node"><title>Node13</title>
<g id="a_node13"><a xlink:href="classformat_1_1_style.html" target="_top" xlink:title="ノードの表示スタイルに関するプロパティのクラス.">
<polygon fill="white" stroke="black" points="290.398,-184.5 290.398,-202.5 328.63,-202.5 328.63,-184.5 290.398,-184.5"/>
<text text-anchor="middle" x="309.514" y="-190.5" font-family="Helvetica,sans-Serif" font-size="10.00">Style</text>
</a>
</g>
</g>
<!-- Node6&#45;&gt;Node13 -->
<g id="edge19" class="edge"><title>Node6&#45;&gt;Node13</title>
<path fill="none" stroke="#9a32cd" stroke-dasharray="5,2" d="M63.0577,-133.87C96.9132,-129.599 160.258,-124.705 211.812,-138.5 212.92,-138.796 265.651,-168.949 292.767,-184.477"/>
<polygon fill="#9a32cd" stroke="#9a32cd" points="62.2049,-130.453 52.7664,-135.266 63.1463,-137.39 62.2049,-130.453"/>
<text text-anchor="middle" x="152.918" y="-141.5" font-family="Helvetica,sans-Serif" font-size="10.00"> pref</text>
</g>
<!-- Node7 -->
<g id="node7" class="node"><title>Node7</title>
<g id="a_node7"><a xlink:href="classtype_1_1_x_typing.html" target="_top" xlink:title="ノードがもつ関数型self&lt;&#45;child*の型付け規則">
<polygon fill="white" stroke="black" points="11.9434,-280.5 11.9434,-298.5 64.0811,-298.5 64.0811,-280.5 11.9434,-280.5"/>
<text text-anchor="middle" x="38.0122" y="-286.5" font-family="Helvetica,sans-Serif" font-size="10.00">XTyping</text>
</a>
</g>
</g>
<!-- Node7&#45;&gt;Node3 -->
<g id="edge6" class="edge"><title>Node7&#45;&gt;Node3</title>
<path fill="none" stroke="#9a32cd" stroke-dasharray="5,2" d="M74.363,-289.551C109.29,-289.637 164.238,-289.87 211.812,-290.5 235.655,-290.816 262.8,-291.396 282.248,-291.851"/>
<polygon fill="#9a32cd" stroke="#9a32cd" points="74.2045,-286.05 64.1968,-289.528 74.189,-293.05 74.2045,-286.05"/>
<text text-anchor="middle" x="152.918" y="-292.5" font-family="Helvetica,sans-Serif" font-size="10.00"> typing</text>
</g>
<!-- Node8 -->
<g id="node8" class="node"><title>Node8</title>
<g id="a_node8"><a xlink:title=" ">
<polygon fill="white" stroke="#bfbfbf" points="12.2168,-223.5 12.2168,-241.5 63.8076,-241.5 63.8076,-223.5 12.2168,-223.5"/>
<text text-anchor="middle" x="38.0122" y="-229.5" font-family="Helvetica,sans-Serif" font-size="10.00">boolean</text>
</a>
</g>
</g>
<!-- Node8&#45;&gt;Node3 -->
<g id="edge7" class="edge"><title>Node8&#45;&gt;Node3</title>
<path fill="none" stroke="#9a32cd" stroke-dasharray="5,2" d="M73.7954,-240.244C128.438,-252.409 233.194,-275.731 282.121,-286.624"/>
<polygon fill="#9a32cd" stroke="#9a32cd" points="74.4049,-236.794 63.8832,-238.037 72.8836,-243.627 74.4049,-236.794"/>
<text text-anchor="middle" x="152.918" y="-272.5" font-family="Helvetica,sans-Serif" font-size="10.00"> DEBUG_EVAL</text>
</g>
<!-- Node8&#45;&gt;Node13 -->
<g id="edge20" class="edge"><title>Node8&#45;&gt;Node13</title>
<path fill="none" stroke="#9a32cd" stroke-dasharray="5,2" d="M72.6731,-220.202C79.6556,-218.016 87.0203,-215.97 94.0244,-214.5 165.612,-199.473 252.95,-195.15 290.233,-193.946"/>
<polygon fill="#9a32cd" stroke="#9a32cd" points="71.204,-217.001 62.8028,-223.456 73.3958,-223.649 71.204,-217.001"/>
<text text-anchor="middle" x="152.918" y="-226.5" font-family="Helvetica,sans-Serif" font-size="10.00"> preoperSupress</text>
<text text-anchor="middle" x="152.918" y="-216.5" font-family="Helvetica,sans-Serif" font-size="10.00">toInline</text>
</g>
<!-- Node9&#45;&gt;Node2 -->
<g id="edge8" class="edge"><title>Node9&#45;&gt;Node2</title>
<path fill="none" stroke="midnightblue" d="M369.862,-481.632C376.508,-479.583 383.086,-477.218 389.216,-474.5 437.132,-453.252 480.538,-405.82 497.491,-385.752"/>
<polygon fill="midnightblue" stroke="midnightblue" points="368.775,-478.302 360.12,-484.412 370.696,-485.033 368.775,-478.302"/>
</g>
<!-- Node10&#45;&gt;Node1 -->
<g id="edge21" class="edge"><title>Node10&#45;&gt;Node1</title>
<path fill="none" stroke="midnightblue" d="M396.681,-445.927C412.835,-443.313 429.512,-440.182 445.014,-436.5 503.211,-422.675 569.432,-398.629 603.621,-385.569"/>
<polygon fill="midnightblue" stroke="midnightblue" points="396.044,-442.484 386.705,-447.489 397.126,-449.4 396.044,-442.484"/>
</g>
<!-- Node10&#45;&gt;Node2 -->
<g id="edge10" class="edge"><title>Node10&#45;&gt;Node2</title>
<path fill="none" stroke="midnightblue" d="M364.079,-444.976C372.564,-442.748 381.185,-440.242 389.216,-437.5 414.932,-428.719 420.92,-425.067 445.014,-412.5 461.174,-404.071 479.002,-393.16 490.996,-385.57"/>
<polygon fill="midnightblue" stroke="midnightblue" points="363.065,-441.622 354.224,-447.462 364.777,-448.41 363.065,-441.622"/>
</g>
<!-- Node11&#45;&gt;Node2 -->
<g id="edge12" class="edge"><title>Node11&#45;&gt;Node2</title>
<path fill="none" stroke="midnightblue" d="M393.63,-379.936C417.475,-379.201 442.479,-378.429 462.743,-377.804"/>
<polygon fill="midnightblue" stroke="midnightblue" points="393.387,-376.442 383.499,-380.249 393.602,-383.439 393.387,-376.442"/>
</g>
<!-- Node12 -->
<g id="node12" class="node"><title>Node12</title>
<g id="a_node12"><a xlink:title=" ">
<polygon fill="white" stroke="#bfbfbf" points="257.879,-410.5 257.879,-428.5 361.149,-428.5 361.149,-410.5 257.879,-410.5"/>
<text text-anchor="middle" x="309.514" y="-416.5" font-family="Helvetica,sans-Serif" font-size="10.00">List&lt; ast.AstNode &gt;</text>
</a>
</g>
</g>
<!-- Node12&#45;&gt;Node2 -->
<g id="edge15" class="edge"><title>Node12&#45;&gt;Node2</title>
<path fill="none" stroke="#9a32cd" stroke-dasharray="5,2" d="M361.377,-408.256C393.47,-401.162 434.366,-392.122 464.309,-385.502"/>
<polygon fill="#9a32cd" stroke="#9a32cd" points="360.301,-404.91 351.292,-410.486 361.811,-411.745 360.301,-404.91"/>
<text text-anchor="middle" x="426.115" y="-400.5" font-family="Helvetica,sans-Serif" font-size="10.00"> children</text>
</g>
<!-- Node13&#45;&gt;Node2 -->
<g id="edge17" class="edge"><title>Node13&#45;&gt;Node2</title>
<path fill="none" stroke="#9a32cd" stroke-dasharray="5,2" d="M337.499,-207.536C367.984,-224.744 416.989,-256.713 445.014,-297.5 460.78,-320.446 444.681,-336.547 463.014,-357.5 466.599,-361.597 471.244,-364.858 476.133,-367.439"/>
<polygon fill="#9a32cd" stroke="#9a32cd" points="339.124,-204.435 328.676,-202.676 335.747,-210.567 339.124,-204.435"/>
<text text-anchor="middle" x="426.115" y="-299.5" font-family="Helvetica,sans-Serif" font-size="10.00"> sty</text>
</g>
<!-- Node14 -->
<g id="node14" class="node"><title>Node14</title>
<g id="a_node14"><a xlink:title=" ">
<polygon fill="white" stroke="#bfbfbf" points="16.9507,-0.5 16.9507,-18.5 59.0737,-18.5 59.0737,-0.5 16.9507,-0.5"/>
<text text-anchor="middle" x="38.0122" y="-6.5" font-family="Helvetica,sans-Serif" font-size="10.00">String</text>
</a>
</g>
</g>
<!-- Node14&#45;&gt;Node13 -->
<g id="edge18" class="edge"><title>Node14&#45;&gt;Node13</title>
<path fill="none" stroke="#9a32cd" stroke-dasharray="5,2" d="M69.3404,-6.42771C108.125,-4.32291 174.697,-7.16253 211.812,-45.5 244.136,-78.8881 203.107,-110.468 229.812,-148.5 244.375,-169.238 271.749,-181.69 290.06,-188.076"/>
<polygon fill="#9a32cd" stroke="#9a32cd" points="68.9215,-2.94818 59.1856,-7.1271 69.4025,-9.93164 68.9215,-2.94818"/>
<text text-anchor="middle" x="152.918" y="-117.5" font-family="Helvetica,sans-Serif" font-size="10.00"> parenLPAR</text>
<text text-anchor="middle" x="152.918" y="-107.5" font-family="Helvetica,sans-Serif" font-size="10.00">operSTR</text>
<text text-anchor="middle" x="152.918" y="-97.5" font-family="Helvetica,sans-Serif" font-size="10.00">parenLPAD</text>
<text text-anchor="middle" x="152.918" y="-87.5" font-family="Helvetica,sans-Serif" font-size="10.00">parenRPAR</text>
<text text-anchor="middle" x="152.918" y="-77.5" font-family="Helvetica,sans-Serif" font-size="10.00">childLPAD</text>
<text text-anchor="middle" x="152.918" y="-67.5" font-family="Helvetica,sans-Serif" font-size="10.00">parenRPAD</text>
<text text-anchor="middle" x="152.918" y="-57.5" font-family="Helvetica,sans-Serif" font-size="10.00">childRPAD</text>
<text text-anchor="middle" x="152.918" y="-47.5" font-family="Helvetica,sans-Serif" font-size="10.00">name</text>
</g>
<!-- Node15 -->
<g id="node15" class="node"><title>Node15</title>
<g id="a_node15"><a xlink:href="interfacemachine_1_1_assignable.html" target="_top" xlink:title="変数（チャネルとコンテナの名前）の抽象化">
<polygon fill="white" stroke="black" points="473.573,-330.5 473.573,-348.5 538.494,-348.5 538.494,-330.5 473.573,-330.5"/>
<text text-anchor="middle" x="506.033" y="-336.5" font-family="Helvetica,sans-Serif" font-size="10.00">Assignable</text>
</a>
</g>
</g>
<!-- Node15&#45;&gt;Node1 -->
<g id="edge22" class="edge"><title>Node15&#45;&gt;Node1</title>
<path fill="none" stroke="#9a32cd" stroke-dasharray="5,2" d="M546.214,-351.606C563.617,-356.983 583.681,-363.183 599.432,-368.05"/>
<polygon fill="#9a32cd" stroke="#9a32cd" points="546.915,-348.159 536.327,-348.551 544.848,-354.847 546.915,-348.159"/>
<text text-anchor="middle" x="574.277" y="-364.5" font-family="Helvetica,sans-Serif" font-size="10.00"> ref</text>
</g>
</g>
</svg>
        <g id="navigator" transform="translate(0 0)" fill="#404254">
                <rect fill="#f2f5e9" fill-opacity="0.5" stroke="#606060" stroke-width=".5" x="0" y="0" width="60" height="60"/>
                <use id="zoomplus" xlink:href="#zoomPlus" x="17" y="9" onmousedown="handleZoom(evt,'in')"/>
                <use id="zoomminus" xlink:href="#zoomMin" x="42" y="9" onmousedown="handleZoom(evt,'out')"/>
                <use id="reset" xlink:href="#resetDef" x="30" y="36" onmousedown="handleReset()"/>
                <g id="arrowUp" xlink:href="#dirArrow" transform="translate(30 24)" onmousedown="handlePan(0,-1)">
                  <use xlink:href="#rim" fill="#404040">
                        <set attributeName="fill" to="#808080" begin="arrowUp.mouseover" end="arrowUp.mouseout"/>
                  </use>
                  <path fill="none" stroke="white" stroke-width="1.5" d="M0,-3.0v7 M-2.5,-0.5L0,-3.0L2.5,-0.5"/>
                </g>
                <g id="arrowRight" xlink:href="#dirArrow" transform="rotate(90) translate(36 -43)" onmousedown="handlePan(1,0)">
                  <use xlink:href="#rim" fill="#404040">
                        <set attributeName="fill" to="#808080" begin="arrowRight.mouseover" end="arrowRight.mouseout"/>
                  </use>
                  <path fill="none" stroke="white" stroke-width="1.5" d="M0,-3.0v7 M-2.5,-0.5L0,-3.0L2.5,-0.5"/>
                </g>
                <g id="arrowDown" xlink:href="#dirArrow" transform="rotate(180) translate(-30 -48)" onmousedown="handlePan(0,1)">
                  <use xlink:href="#rim" fill="#404040">
                        <set attributeName="fill" to="#808080" begin="arrowDown.mouseover" end="arrowDown.mouseout"/>
                  </use>
                  <path fill="none" stroke="white" stroke-width="1.5" d="M0,-3.0v7 M-2.5,-0.5L0,-3.0L2.5,-0.5"/>
                </g>
                <g id="arrowLeft" xlink:href="#dirArrow" transform="rotate(270) translate(-36 17)" onmousedown="handlePan(-1,0)">
                  <use xlink:href="#rim" fill="#404040">
                        <set attributeName="fill" to="#808080" begin="arrowLeft.mouseover" end="arrowLeft.mouseout"/>
                  </use>
                  <path fill="none" stroke="white" stroke-width="1.5" d="M0,-3.0v7 M-2.5,-0.5L0,-3.0L2.5,-0.5"/>
                </g>
        </g>
        <svg viewBox="0 0 15 15" width="100%" height="30px" preserveAspectRatio="xMaxYMin meet">
         <g id="arrow_out" transform="scale(0.3 0.3)">
          <a xlink:href="classast_1_1_ast_arrow__coll__graph_org.svg" target="_base">
           <rect id="button" ry="5" rx="5" y="6" x="6" height="38" width="38"
                fill="#f2f5e9" fill-opacity="0.5" stroke="#606060" stroke-width="1.0"/>
           <path id="arrow"
             d="M 11.500037,31.436501 C 11.940474,20.09759 22.043105,11.32322 32.158766,21.979434 L 37.068811,17.246167 C 37.068811,17.246167 37.088388,32 37.088388,32 L 22.160133,31.978069 C 22.160133,31.978069 26.997745,27.140456 26.997745,27.140456 C 18.528582,18.264221 13.291696,25.230495 11.500037,31.436501 z"
             style="fill:#404040;"/>
          </a>
         </g>
        </svg>
</svg>
