<?xml version="1.0" encoding="UTF-8" standalone="no"?>
<!DOCTYPE svg PUBLIC "-//W3C//DTD SVG 1.1//EN"
 "http://www.w3.org/Graphics/SVG/1.1/DTD/svg11.dtd">
<!-- Generated by graphviz version 2.47.0 (20210316.0004)
 -->
<!-- Title: PooledOutputStream Pages: 1 -->
<svg width="366pt" height="139pt"
 viewBox="0.00 0.00 365.50 139.00" xmlns="http://www.w3.org/2000/svg" xmlns:xlink="http://www.w3.org/1999/xlink">
<g id="graph0" class="graph" transform="scale(1 1) rotate(0) translate(4 135)">
<title>PooledOutputStream</title>
<polygon fill="white" stroke="transparent" points="-4,4 -4,-135 361.5,-135 361.5,4 -4,4"/>
<!-- Node1 -->
<g id="node1" class="node">
<title>Node1</title>
<g id="a_node1"><a xlink:title="チェックポイントptrの設定と、ストリームのptrから末尾までの末尾部分のキャンセルが可能なし出力文字ストリーム.">
<polygon fill="#bfbfbf" stroke="black" points="135,-0.5 135,-19.5 242,-19.5 242,-0.5 135,-0.5"/>
<text text-anchor="middle" x="188.5" y="-7.5" font-family="Helvetica,sans-Serif" font-size="10.00">PooledOutputStream</text>
</a>
</g>
</g>
<!-- Node2 -->
<g id="node2" class="node">
<title>Node2</title>
<g id="a_node2"><a xlink:href="class_filter_output_stream.html" target="_top" xlink:title=" ">
<polygon fill="white" stroke="black" points="0,-111.5 0,-130.5 99,-130.5 99,-111.5 0,-111.5"/>
<text text-anchor="middle" x="49.5" y="-118.5" font-family="Helvetica,sans-Serif" font-size="10.00">FilterOutputStream</text>
</a>
</g>
</g>
<!-- Node2&#45;&gt;Node1 -->
<g id="edge1" class="edge">
<title>Node2&#45;&gt;Node1</title>
<path fill="none" stroke="midnightblue" d="M68.31,-105.25C97.81,-82.12 154.04,-38.02 177.64,-19.51"/>
<polygon fill="midnightblue" stroke="midnightblue" points="66.12,-102.52 60.41,-111.45 70.44,-108.03 66.12,-102.52"/>
</g>
<!-- Node3 -->
<g id="node3" class="node">
<title>Node3</title>
<g id="a_node3"><a xlink:title=" ">
<polygon fill="white" stroke="#bfbfbf" points="117,-111.5 117,-130.5 194,-130.5 194,-111.5 117,-111.5"/>
<text text-anchor="middle" x="155.5" y="-118.5" font-family="Helvetica,sans-Serif" font-size="10.00">OutputStream</text>
</a>
</g>
</g>
<!-- Node3&#45;&gt;Node1 -->
<g id="edge2" class="edge">
<title>Node3&#45;&gt;Node1</title>
<path fill="none" stroke="#9a32cd" stroke-dasharray="5,2" d="M161,-101.84C168.21,-78.01 180.58,-37.15 185.92,-19.51"/>
<polygon fill="#9a32cd" stroke="#9a32cd" points="157.64,-100.86 158.09,-111.45 164.34,-102.89 157.64,-100.86"/>
<text text-anchor="middle" x="188" y="-63" font-family="Helvetica,sans-Serif" font-size="10.00"> out</text>
</g>
<!-- Node4 -->
<g id="node4" class="node">
<title>Node4</title>
<g id="a_node4"><a xlink:title=" ">
<polygon fill="white" stroke="#bfbfbf" points="212,-111.5 212,-130.5 241,-130.5 241,-111.5 212,-111.5"/>
<text text-anchor="middle" x="226.5" y="-118.5" font-family="Helvetica,sans-Serif" font-size="10.00">int</text>
</a>
</g>
</g>
<!-- Node4&#45;&gt;Node1 -->
<g id="edge3" class="edge">
<title>Node4&#45;&gt;Node1</title>
<path fill="none" stroke="#9a32cd" stroke-dasharray="5,2" d="M221.31,-101.63C216.43,-84.88 208.67,-59.53 200.5,-38 198.17,-31.86 195.17,-25.11 192.75,-19.9"/>
<polygon fill="#9a32cd" stroke="#9a32cd" points="217.96,-102.63 224.08,-111.27 224.69,-100.7 217.96,-102.63"/>
<text text-anchor="middle" x="240" y="-85" font-family="Helvetica,sans-Serif" font-size="10.00"> EOF</text>
<text text-anchor="middle" x="240" y="-74" font-family="Helvetica,sans-Serif" font-size="10.00">MAXBUF</text>
<text text-anchor="middle" x="240" y="-63" font-family="Helvetica,sans-Serif" font-size="10.00">_pos</text>
<text text-anchor="middle" x="240" y="-52" font-family="Helvetica,sans-Serif" font-size="10.00">_tail</text>
<text text-anchor="middle" x="240" y="-41" font-family="Helvetica,sans-Serif" font-size="10.00">buf</text>
</g>
<!-- Node5 -->
<g id="node5" class="node">
<title>Node5</title>
<g id="a_node5"><a xlink:title=" ">
<polygon fill="white" stroke="#bfbfbf" points="263.5,-111.5 263.5,-130.5 313.5,-130.5 313.5,-111.5 263.5,-111.5"/>
<text text-anchor="middle" x="288.5" y="-118.5" font-family="Helvetica,sans-Serif" font-size="10.00">boolean</text>
</a>
</g>
</g>
<!-- Node5&#45;&gt;Node1 -->
<g id="edge4" class="edge">
<title>Node5&#45;&gt;Node1</title>
<path fill="none" stroke="#9a32cd" stroke-dasharray="5,2" d="M288.02,-100.99C286.56,-82.62 281.58,-55.15 265.5,-38 257.46,-29.43 246.53,-23.57 235.44,-19.58"/>
<polygon fill="#9a32cd" stroke="#9a32cd" points="284.53,-101.26 288.55,-111.07 291.52,-100.9 284.53,-101.26"/>
<text text-anchor="middle" x="322" y="-74" font-family="Helvetica,sans-Serif" font-size="10.00"> DEBUG</text>
<text text-anchor="middle" x="322" y="-63" font-family="Helvetica,sans-Serif" font-size="10.00">DEBUG_CHAR</text>
<text text-anchor="middle" x="322" y="-52" font-family="Helvetica,sans-Serif" font-size="10.00">DEBUG_POS</text>
</g>
</g>
</svg>
