<?xml version="1.0" encoding="UTF-8" standalone="no"?>
<!DOCTYPE svg PUBLIC "-//W3C//DTD SVG 1.1//EN"
 "http://www.w3.org/Graphics/SVG/1.1/DTD/svg11.dtd">
<!-- Generated by graphviz version 2.47.1 (20210417.1919)
 -->
<!-- Title: Block Pages: 1 -->
<!--zoomable 705 -->
<svg id="main" version="1.1" xmlns="http://www.w3.org/2000/svg" xmlns:xlink="http://www.w3.org/1999/xlink" xml:space="preserve" onload="init(evt)">
<style type="text/css"><![CDATA[
.edge:hover path { stroke: red; }
.edge:hover polygon { stroke: red; fill: red; }
]]></style>
<script type="text/javascript"><![CDATA[
var edges = document.getElementsByTagName('g');
if (edges && edges.length) {
  for (var i=0;i<edges.length;i++) {
    if (edges[i].id.substr(0,4)=='edge') {
      edges[i].setAttribute('class','edge');
    }
  }
}
]]></script>
        <defs>
                <circle id="rim" cx="0" cy="0" r="7"/>
                <circle id="rim2" cx="0" cy="0" r="3.5"/>
                <g id="zoomPlus">
                        <use xlink:href="#rim" fill="#404040">
                                <set attributeName="fill" to="#808080" begin="zoomplus.mouseover" end="zoomplus.mouseout"/>
                        </use>
                        <path d="M-4,0h8M0,-4v8" fill="none" stroke="white" stroke-width="1.5" pointer-events="none"/>
                </g>
                <g id="zoomMin">
                        <use xlink:href="#rim" fill="#404040">
                                <set attributeName="fill" to="#808080" begin="zoomminus.mouseover" end="zoomminus.mouseout"/>
                        </use>
                        <path d="M-4,0h8" fill="none" stroke="white" stroke-width="1.5" pointer-events="none"/>
                </g>
                <g id="dirArrow">
                        <path fill="none" stroke="white" stroke-width="1.5" d="M0,-3.0v7 M-2.5,-0.5L0,-3.0L2.5,-0.5"/>
                </g>
               <g id="resetDef">
                       <use xlink:href="#rim2" fill="#404040">
                               <set attributeName="fill" to="#808080" begin="reset.mouseover" end="reset.mouseout"/>
                       </use>
               </g>
        </defs>

<script type="text/javascript">
var viewWidth = 1218;
var viewHeight = 705;
var sectionId = 'dynsection-1';
</script>
<script xlink:href="svgpan.js"/>
<svg id="graph" class="graph">
<g id="viewport">
<title>Block</title>
<polygon fill="white" stroke="transparent" points="-4,4 -4,-701 1214,-701 1214,4 -4,4"/>
<!-- Node1 -->
<g id="node1" class="node">
<title>Node1</title>
<g id="a_node1"><a xlink:title="抽象構文木のステップ式のクラス.">
<polygon fill="#bfbfbf" stroke="black" points="1169,-150.5 1169,-169.5 1210,-169.5 1210,-150.5 1169,-150.5"/>
<text text-anchor="middle" x="1189.5" y="-157.5" font-family="Helvetica,sans-Serif" font-size="10.00">Block</text>
</a>
</g>
</g>
<!-- Node2 -->
<g id="node2" class="node">
<title>Node2</title>
<g id="a_node2"><a xlink:href="classast_1_1_block_base.html" target="_top" xlink:title="抽象構文木のステップ式のクラス.">
<polygon fill="white" stroke="black" points="1068,-150.5 1068,-169.5 1132,-169.5 1132,-150.5 1068,-150.5"/>
<text text-anchor="middle" x="1100" y="-157.5" font-family="Helvetica,sans-Serif" font-size="10.00">BlockBase</text>
</a>
</g>
</g>
<!-- Node2&#45;&gt;Node1 -->
<g id="edge1" class="edge">
<title>Node2&#45;&gt;Node1</title>
<path fill="none" stroke="midnightblue" d="M1142.11,-160C1151.47,-160 1160.99,-160 1168.95,-160"/>
<polygon fill="midnightblue" stroke="midnightblue" points="1142.1,-156.5 1132.1,-160 1142.1,-163.5 1142.1,-156.5"/>
</g>
<!-- Node3 -->
<g id="node3" class="node">
<title>Node3</title>
<g id="a_node3"><a xlink:href="classast_1_1_ast_node_tagged.html" target="_top" xlink:title="タグ付きの子をもつノードのクラス．利用者は自前で，追加する子のField名と，Getter，型を設定する．読み出しは子の添字でも行える．">
<polygon fill="white" stroke="black" points="788,-420.5 788,-439.5 874,-439.5 874,-420.5 788,-420.5"/>
<text text-anchor="middle" x="831" y="-427.5" font-family="Helvetica,sans-Serif" font-size="10.00">AstNodeTagged</text>
</a>
</g>
</g>
<!-- Node3&#45;&gt;Node2 -->
<g id="edge2" class="edge">
<title>Node3&#45;&gt;Node2</title>
<path fill="none" stroke="midnightblue" d="M855.81,-414.86C898.82,-386.6 990.51,-322.14 1050,-250 1071.51,-223.92 1088.08,-186.98 1095.2,-169.66"/>
<polygon fill="midnightblue" stroke="midnightblue" points="853.64,-412.09 847.16,-420.48 857.46,-417.96 853.64,-412.09"/>
</g>
<!-- Node4 -->
<g id="node4" class="node">
<title>Node4</title>
<g id="a_node4"><a xlink:href="classast_1_1_ast_node.html" target="_top" xlink:title="タグなしの順アクセスの子供をもてる抽象構文木のノードのクラス。">
<polygon fill="white" stroke="black" points="571,-420.5 571,-439.5 626,-439.5 626,-420.5 571,-420.5"/>
<text text-anchor="middle" x="598.5" y="-427.5" font-family="Helvetica,sans-Serif" font-size="10.00">AstNode</text>
</a>
</g>
</g>
<!-- Node4&#45;&gt;Node3 -->
<g id="edge3" class="edge">
<title>Node4&#45;&gt;Node3</title>
<path fill="none" stroke="midnightblue" d="M636.56,-430C677.82,-430 744.39,-430 787.67,-430"/>
<polygon fill="midnightblue" stroke="midnightblue" points="636.39,-426.5 626.39,-430 636.39,-433.5 636.39,-426.5"/>
</g>
<!-- Node27 -->
<g id="node25" class="node">
<title>Node27</title>
<g id="a_node25"><a xlink:href="classast_1_1_ast_node_new.html" target="_top" xlink:title="実装置き換え用のノードのクラス。">
<polygon fill="white" stroke="black" points="793.5,-112.5 793.5,-131.5 868.5,-131.5 868.5,-112.5 793.5,-112.5"/>
<text text-anchor="middle" x="831" y="-119.5" font-family="Helvetica,sans-Serif" font-size="10.00">AstNodeNew</text>
</a>
</g>
</g>
<!-- Node4&#45;&gt;Node27 -->
<g id="edge30" class="edge">
<title>Node4&#45;&gt;Node27</title>
<path fill="none" stroke="midnightblue" d="M636.59,-428.36C651.23,-426 667.32,-421.06 679,-411 777.07,-326.56 698.39,-234.37 788,-141 791.66,-137.19 796.22,-134.08 800.98,-131.56"/>
<polygon fill="midnightblue" stroke="midnightblue" points="635.75,-424.94 626.26,-429.66 636.62,-431.88 635.75,-424.94"/>
</g>
<!-- Node5 -->
<g id="node5" class="node">
<title>Node5</title>
<g id="a_node5"><a xlink:href="classast_1_1_ast_node_base.html" target="_top" xlink:title=" ">
<polygon fill="white" stroke="red" points="285.5,-576.5 285.5,-595.5 362.5,-595.5 362.5,-576.5 285.5,-576.5"/>
<text text-anchor="middle" x="324" y="-583.5" font-family="Helvetica,sans-Serif" font-size="10.00">AstNodeBase</text>
</a>
</g>
</g>
<!-- Node5&#45;&gt;Node4 -->
<g id="edge4" class="edge">
<title>Node5&#45;&gt;Node4</title>
<path fill="none" stroke="midnightblue" d="M372.81,-577.13C409.86,-568.61 461.23,-553.11 500,-527 538.42,-501.13 574.6,-458.76 589.87,-439.76"/>
<polygon fill="midnightblue" stroke="midnightblue" points="371.78,-573.77 362.77,-579.34 373.29,-580.61 371.78,-573.77"/>
</g>
<!-- Node6 -->
<g id="node6" class="node">
<title>Node6</title>
<g id="a_node6"><a xlink:title=" ">
<polygon fill="white" stroke="#bfbfbf" points="20.5,-535.5 20.5,-554.5 62.5,-554.5 62.5,-535.5 20.5,-535.5"/>
<text text-anchor="middle" x="41.5" y="-542.5" font-family="Helvetica,sans-Serif" font-size="10.00">String</text>
</a>
</g>
</g>
<!-- Node6&#45;&gt;Node5 -->
<g id="edge5" class="edge">
<title>Node6&#45;&gt;Node5</title>
<path fill="none" stroke="#9a32cd" stroke-dasharray="5,2" d="M73,-537.78C110.47,-530.52 175.08,-523.34 224,-546 235.15,-551.17 231.5,-560.61 242,-567 254.96,-574.88 270.91,-579.49 285.23,-582.19"/>
<polygon fill="#9a32cd" stroke="#9a32cd" points="71.82,-534.45 62.74,-539.9 73.24,-541.3 71.82,-534.45"/>
<text text-anchor="middle" x="162.5" y="-560" font-family="Helvetica,sans-Serif" font-size="10.00"> MOD_AST</text>
<text text-anchor="middle" x="162.5" y="-549" font-family="Helvetica,sans-Serif" font-size="10.00">mod_</text>
</g>
<!-- Node19 -->
<g id="node17" class="node">
<title>Node19</title>
<g id="a_node17"><a xlink:href="classformat_1_1_style.html" target="_top" xlink:title="ノードの表示スタイルに関するプロパティのクラス.">
<polygon fill="white" stroke="black" points="304.5,-363.5 304.5,-382.5 343.5,-382.5 343.5,-363.5 304.5,-363.5"/>
<text text-anchor="middle" x="324" y="-370.5" font-family="Helvetica,sans-Serif" font-size="10.00">Style</text>
</a>
</g>
</g>
<!-- Node6&#45;&gt;Node19 -->
<g id="edge18" class="edge">
<title>Node6&#45;&gt;Node19</title>
<path fill="none" stroke="#9a32cd" stroke-dasharray="5,2" d="M60.09,-528.19C68.17,-519.57 77.22,-508.48 83,-497 98.62,-466 76.22,-445.3 101,-421 101.92,-420.09 250.72,-388.37 304.16,-377"/>
<polygon fill="#9a32cd" stroke="#9a32cd" points="57.57,-525.76 53.07,-535.35 62.57,-530.66 57.57,-525.76"/>
<text text-anchor="middle" x="162.5" y="-446" font-family="Helvetica,sans-Serif" font-size="10.00"> operSTR</text>
<text text-anchor="middle" x="162.5" y="-435" font-family="Helvetica,sans-Serif" font-size="10.00">parenLPAR</text>
<text text-anchor="middle" x="162.5" y="-424" font-family="Helvetica,sans-Serif" font-size="10.00">parenRPAR</text>
</g>
<!-- Node22 -->
<g id="node20" class="node">
<title>Node22</title>
<g id="a_node20"><a xlink:href="enumtype_1_1_x_type.html" target="_top" xlink:title="式がもつ値の型のクラス．Kotlin言語の型システムを参考にしている． 次の型をもつ．">
<polygon fill="white" stroke="black" points="302,-614.5 302,-633.5 346,-633.5 346,-614.5 302,-614.5"/>
<text text-anchor="middle" x="324" y="-621.5" font-family="Helvetica,sans-Serif" font-size="10.00">XType</text>
</a>
</g>
</g>
<!-- Node6&#45;&gt;Node22 -->
<g id="edge23" class="edge">
<title>Node6&#45;&gt;Node22</title>
<path fill="none" stroke="#9a32cd" stroke-dasharray="5,2" d="M55.22,-562.69C65.84,-575.95 82.23,-593.26 101,-602 136.38,-618.46 253.6,-622.64 301.91,-623.67"/>
<polygon fill="#9a32cd" stroke="#9a32cd" points="57.96,-560.51 49.11,-554.68 52.4,-564.76 57.96,-560.51"/>
<text text-anchor="middle" x="162.5" y="-645" font-family="Helvetica,sans-Serif" font-size="10.00"> name</text>
<text text-anchor="middle" x="162.5" y="-634" font-family="Helvetica,sans-Serif" font-size="10.00">nickname</text>
<text text-anchor="middle" x="162.5" y="-623" font-family="Helvetica,sans-Serif" font-size="10.00">prefix</text>
</g>
<!-- Node7 -->
<g id="node7" class="node">
<title>Node7</title>
<g id="a_node7"><a xlink:title=" ">
<polygon fill="white" stroke="#bfbfbf" points="0,-311.5 0,-330.5 83,-330.5 83,-311.5 0,-311.5"/>
<text text-anchor="middle" x="41.5" y="-318.5" font-family="Helvetica,sans-Serif" font-size="10.00">static ReportKt</text>
</a>
</g>
</g>
<!-- Node7&#45;&gt;Node5 -->
<g id="edge6" class="edge">
<title>Node7&#45;&gt;Node5</title>
<path fill="none" stroke="#9a32cd" stroke-dasharray="5,2" d="M93.25,-331.02C140.96,-341.53 207.45,-359.37 224,-380 250.13,-412.56 214.53,-535.56 242,-567 252.74,-579.29 269.78,-584.43 285.47,-586.34"/>
<polygon fill="#9a32cd" stroke="#9a32cd" points="93.89,-327.57 83.38,-328.89 92.41,-334.42 93.89,-327.57"/>
<text text-anchor="middle" x="162.5" y="-383" font-family="Helvetica,sans-Serif" font-size="10.00"> repo</text>
</g>
<!-- Node31 -->
<g id="node29" class="node">
<title>Node31</title>
<g id="a_node29"><a xlink:href="classmachine_1_1_var_table.html" target="_top" xlink:title="@整数の表">
<polygon fill="white" stroke="black" points="571.5,-226.5 571.5,-245.5 625.5,-245.5 625.5,-226.5 571.5,-226.5"/>
<text text-anchor="middle" x="598.5" y="-233.5" font-family="Helvetica,sans-Serif" font-size="10.00">VarTable</text>
</a>
</g>
</g>
<!-- Node7&#45;&gt;Node31 -->
<g id="edge39" class="edge">
<title>Node7&#45;&gt;Node31</title>
<path fill="none" stroke="#9a32cd" stroke-dasharray="5,2" d="M76.61,-308.06C84.53,-305.42 92.99,-302.87 101,-301 124.2,-295.57 471.84,-251.76 571.18,-239.3"/>
<polygon fill="#9a32cd" stroke="#9a32cd" points="75.24,-304.84 66.95,-311.43 77.54,-311.45 75.24,-304.84"/>
<text text-anchor="middle" x="324" y="-283" font-family="Helvetica,sans-Serif" font-size="10.00"> repo</text>
</g>
<!-- Node9 -->
<g id="node8" class="node">
<title>Node9</title>
<g id="a_node8"><a xlink:title=" ">
<polygon fill="white" stroke="#bfbfbf" points="27,-468.5 27,-487.5 56,-487.5 56,-468.5 27,-468.5"/>
<text text-anchor="middle" x="41.5" y="-475.5" font-family="Helvetica,sans-Serif" font-size="10.00">int</text>
</a>
</g>
</g>
<!-- Node9&#45;&gt;Node5 -->
<g id="edge7" class="edge">
<title>Node9&#45;&gt;Node5</title>
<path fill="none" stroke="#9a32cd" stroke-dasharray="5,2" d="M65.94,-470.26C103.86,-459.36 178.97,-444.68 224,-482 253.73,-506.64 214.99,-539.4 242,-567 253.21,-578.46 269.93,-583.55 285.27,-585.65"/>
<polygon fill="#9a32cd" stroke="#9a32cd" points="64.84,-466.94 56.28,-473.19 66.87,-473.64 64.84,-466.94"/>
<text text-anchor="middle" x="162.5" y="-518" font-family="Helvetica,sans-Serif" font-size="10.00"> BITMASK_PRINT_WIDTH</text>
<text text-anchor="middle" x="162.5" y="-507" font-family="Helvetica,sans-Serif" font-size="10.00">UNDEF</text>
<text text-anchor="middle" x="162.5" y="-496" font-family="Helvetica,sans-Serif" font-size="10.00">id_</text>
<text text-anchor="middle" x="162.5" y="-485" font-family="Helvetica,sans-Serif" font-size="10.00">numInstances</text>
</g>
<!-- Node9&#45;&gt;Node22 -->
<g id="edge24" class="edge">
<title>Node9&#45;&gt;Node22</title>
<path fill="none" stroke="#9a32cd" stroke-dasharray="5,2" d="M58.94,-494.94C66.89,-503.73 76.16,-514.92 83,-526 93.66,-543.28 85.05,-555.43 101,-568 144.55,-602.33 174.01,-564.98 224,-589 233.65,-593.64 232.5,-600.07 242,-605 260.85,-614.78 284.76,-619.59 301.7,-621.92"/>
<polygon fill="#9a32cd" stroke="#9a32cd" points="61.5,-492.56 52.12,-487.62 56.38,-497.33 61.5,-492.56"/>
<text text-anchor="middle" x="162.5" y="-592" font-family="Helvetica,sans-Serif" font-size="10.00"> FLAG_WIDTH</text>
</g>
<!-- Node9&#45;&gt;Node31 -->
<g id="edge40" class="edge">
<title>Node9&#45;&gt;Node31</title>
<path fill="none" stroke="#9a32cd" stroke-dasharray="5,2" d="M50.59,-459.12C59.88,-439.73 77.02,-410.17 101,-394 147.49,-362.66 176.66,-396.03 224,-366 234.96,-359.05 231.26,-350.28 242,-343 304.86,-300.38 333.26,-316.85 406,-295 465.14,-277.24 534.33,-255.74 571.21,-244.23"/>
<polygon fill="#9a32cd" stroke="#9a32cd" points="47.29,-457.9 46.34,-468.45 53.67,-460.8 47.29,-457.9"/>
<text text-anchor="middle" x="324" y="-346" font-family="Helvetica,sans-Serif" font-size="10.00"> UNDEF</text>
</g>
<!-- Node11 -->
<g id="node9" class="node">
<title>Node11</title>
<g id="a_node9"><a xlink:title=" ">
<polygon fill="white" stroke="#bfbfbf" points="16.5,-116.5 16.5,-135.5 66.5,-135.5 66.5,-116.5 16.5,-116.5"/>
<text text-anchor="middle" x="41.5" y="-123.5" font-family="Helvetica,sans-Serif" font-size="10.00">boolean</text>
</a>
</g>
</g>
<!-- Node11&#45;&gt;Node2 -->
<g id="edge43" class="edge">
<title>Node11&#45;&gt;Node2</title>
<path fill="none" stroke="#9a32cd" stroke-dasharray="5,2" d="M62.36,-109.94C106.41,-75.99 216.87,0 323,0 323,0 323,0 970.5,0 1048.17,0 1086.74,-116.03 1096.48,-150.47"/>
<polygon fill="#9a32cd" stroke="#9a32cd" points="59.93,-107.4 54.22,-116.32 64.25,-112.91 59.93,-107.4"/>
<text text-anchor="middle" x="733.5" y="-3" font-family="Helvetica,sans-Serif" font-size="10.00"> DEBUG_REPO</text>
</g>
<!-- Node11&#45;&gt;Node5 -->
<g id="edge8" class="edge">
<title>Node11&#45;&gt;Node5</title>
<path fill="none" stroke="#9a32cd" stroke-dasharray="5,2" d="M61.12,-142.77C69.15,-151.06 77.86,-161.71 83,-173 106.25,-224.09 61.83,-257.8 101,-298 139.7,-337.72 186.73,-277.94 224,-319 261.14,-359.91 206.13,-524.97 242,-567 252.59,-579.42 269.62,-584.57 285.33,-586.46"/>
<polygon fill="#9a32cd" stroke="#9a32cd" points="63.36,-140.07 53.76,-135.59 58.47,-145.08 63.36,-140.07"/>
<text text-anchor="middle" x="162.5" y="-322" font-family="Helvetica,sans-Serif" font-size="10.00"> DEBUG_REPO</text>
</g>
<!-- Node11&#45;&gt;Node19 -->
<g id="edge19" class="edge">
<title>Node11&#45;&gt;Node19</title>
<path fill="none" stroke="#9a32cd" stroke-dasharray="5,2" d="M69.36,-140.6C109.45,-163.81 184.44,-213.03 224,-276 241.78,-304.3 218.92,-324.83 242,-349 258.21,-365.97 285.79,-371.1 304.21,-372.57"/>
<polygon fill="#9a32cd" stroke="#9a32cd" points="70.85,-137.42 60.43,-135.52 67.4,-143.5 70.85,-137.42"/>
<text text-anchor="middle" x="162.5" y="-290" font-family="Helvetica,sans-Serif" font-size="10.00"> preoperSupress</text>
<text text-anchor="middle" x="162.5" y="-279" font-family="Helvetica,sans-Serif" font-size="10.00">toInline</text>
</g>
<!-- Node26 -->
<g id="node24" class="node">
<title>Node26</title>
<g id="a_node24"><a xlink:href="classast_1_1_sent_list.html" target="_top" xlink:title="文Sentenceのリスト.">
<polygon fill="white" stroke="black" points="943,-106.5 943,-125.5 996,-125.5 996,-106.5 943,-106.5"/>
<text text-anchor="middle" x="969.5" y="-113.5" font-family="Helvetica,sans-Serif" font-size="10.00">SentList</text>
</a>
</g>
</g>
<!-- Node11&#45;&gt;Node26 -->
<g id="edge32" class="edge">
<title>Node11&#45;&gt;Node26</title>
<path fill="none" stroke="#9a32cd" stroke-dasharray="5,2" d="M76.42,-115.14C84.4,-113.03 92.93,-111.12 101,-110 403.42,-67.82 482.65,-104.56 788,-103 826.22,-102.81 835.87,-100.39 874,-103 897.46,-104.61 923.97,-108.43 942.93,-111.52"/>
<polygon fill="#9a32cd" stroke="#9a32cd" points="75.36,-111.8 66.69,-117.88 77.26,-118.54 75.36,-111.8"/>
<text text-anchor="middle" x="598.5" y="-104" font-family="Helvetica,sans-Serif" font-size="10.00"> DEBUG_CHILD</text>
</g>
<!-- Node11&#45;&gt;Node31 -->
<g id="edge42" class="edge">
<title>Node11&#45;&gt;Node31</title>
<path fill="none" stroke="#9a32cd" stroke-dasharray="5,2" d="M76.97,-121.85C142.34,-115.07 288.34,-105.15 406,-135 478.87,-153.48 554.76,-204.73 584.48,-226.27"/>
<polygon fill="#9a32cd" stroke="#9a32cd" points="76.38,-118.39 66.82,-122.95 77.14,-125.35 76.38,-118.39"/>
<text text-anchor="middle" x="324" y="-138" font-family="Helvetica,sans-Serif" font-size="10.00"> DEBUG_REPO</text>
</g>
<!-- Node12 -->
<g id="node10" class="node">
<title>Node12</title>
<g id="a_node10"><a xlink:href="interfaceast_1_1_node.html" target="_top" xlink:title=" ">
<polygon fill="white" stroke="black" points="304,-193.5 304,-212.5 344,-212.5 344,-193.5 304,-193.5"/>
<text text-anchor="middle" x="324" y="-200.5" font-family="Helvetica,sans-Serif" font-size="10.00">Node</text>
</a>
</g>
</g>
<!-- Node12&#45;&gt;Node4 -->
<g id="edge9" class="edge">
<title>Node12&#45;&gt;Node4</title>
<path fill="none" stroke="midnightblue" d="M354.34,-205.44C395,-210.57 467.15,-226.41 500,-275 534.15,-325.51 477.16,-365.72 518,-411 531.12,-425.54 553.19,-429.93 570.76,-430.88"/>
<polygon fill="midnightblue" stroke="midnightblue" points="354.58,-201.94 344.25,-204.3 353.8,-208.9 354.58,-201.94"/>
</g>
<!-- Node13 -->
<g id="node11" class="node">
<title>Node13</title>
<g id="a_node11"><a xlink:href="interfaceformat_1_1_x_formattable.html" target="_top" xlink:title="入れ子フォーマット出力可能なオブジェクトのインタフェース。">
<polygon fill="white" stroke="black" points="4,-182.5 4,-201.5 79,-201.5 79,-182.5 4,-182.5"/>
<text text-anchor="middle" x="41.5" y="-189.5" font-family="Helvetica,sans-Serif" font-size="10.00">XFormattable</text>
</a>
</g>
</g>
<!-- Node13&#45;&gt;Node12 -->
<g id="edge10" class="edge">
<title>Node13&#45;&gt;Node12</title>
<path fill="none" stroke="midnightblue" d="M89.17,-193.83C151.71,-196.28 259.9,-200.53 303.73,-202.24"/>
<polygon fill="midnightblue" stroke="midnightblue" points="89.3,-190.33 79.17,-193.44 89.03,-197.33 89.3,-190.33"/>
</g>
<!-- Node14 -->
<g id="node12" class="node">
<title>Node14</title>
<g id="a_node12"><a xlink:href="interfaceformat_1_1_x_formattable_1_1_navigatable.html" target="_top" xlink:title="木構造の分岐ノードとして清書可能なオブジェクトのクラス">
<polygon fill="white" stroke="black" points="259,-231.5 259,-250.5 389,-250.5 389,-231.5 259,-231.5"/>
<text text-anchor="middle" x="324" y="-238.5" font-family="Helvetica,sans-Serif" font-size="10.00">XFormattable.Navigatable</text>
</a>
</g>
</g>
<!-- Node13&#45;&gt;Node14 -->
<g id="edge12" class="edge">
<title>Node13&#45;&gt;Node14</title>
<path fill="none" stroke="midnightblue" d="M89.19,-200.85C93.18,-201.59 97.16,-202.31 101,-203 157,-213.06 221.06,-223.96 265.92,-231.49"/>
<polygon fill="midnightblue" stroke="midnightblue" points="89.78,-197.4 79.31,-199.02 88.5,-204.28 89.78,-197.4"/>
</g>
<!-- Node29 -->
<g id="node27" class="node">
<title>Node29</title>
<g id="a_node27"><a xlink:href="interfaceformat_1_1_x_formattable_1_1_custom_formattable.html" target="_top" xlink:title="カスタム清書出力器をもつオブジェクトのクラス．">
<polygon fill="white" stroke="black" points="242,-155.5 242,-174.5 406,-174.5 406,-155.5 242,-155.5"/>
<text text-anchor="middle" x="324" y="-162.5" font-family="Helvetica,sans-Serif" font-size="10.00">XFormattable.CustomFormattable</text>
</a>
</g>
</g>
<!-- Node13&#45;&gt;Node29 -->
<g id="edge35" class="edge">
<title>Node13&#45;&gt;Node29</title>
<path fill="none" stroke="midnightblue" d="M89.26,-187.5C130.74,-183.51 192.25,-177.59 241.76,-172.82"/>
<polygon fill="midnightblue" stroke="midnightblue" points="88.79,-184.03 79.17,-188.47 89.46,-191 88.79,-184.03"/>
</g>
<!-- Node14&#45;&gt;Node4 -->
<g id="edge11" class="edge">
<title>Node14&#45;&gt;Node4</title>
<path fill="none" stroke="midnightblue" d="M384.08,-253.93C391.78,-256.91 399.31,-260.55 406,-265 460.97,-301.55 462.42,-325.73 500,-380 509.07,-393.1 505.22,-401.49 518,-411 533.26,-422.35 554.32,-427.02 570.94,-428.9"/>
<polygon fill="midnightblue" stroke="midnightblue" points="385.23,-250.63 374.63,-250.62 382.91,-257.23 385.23,-250.63"/>
</g>
<!-- Node15 -->
<g id="node13" class="node">
<title>Node15</title>
<g id="a_node13"><a xlink:title=" ">
<polygon fill="white" stroke="#bfbfbf" points="260,-527 260,-557 388,-557 388,-527 260,-527"/>
<text text-anchor="start" x="268" y="-545" font-family="Helvetica,sans-Serif" font-size="10.00">java.util.function.Function</text>
<text text-anchor="middle" x="324" y="-534" font-family="Helvetica,sans-Serif" font-size="10.00">&lt; ast.Node, String &gt;</text>
</a>
</g>
</g>
<!-- Node15&#45;&gt;Node4 -->
<g id="edge13" class="edge">
<title>Node15&#45;&gt;Node4</title>
<path fill="none" stroke="#9a32cd" stroke-dasharray="5,2" d="M386.23,-524.07C392.91,-522.05 399.6,-520 406,-518 447.98,-504.86 459.9,-505.09 500,-487 530.92,-473.05 564.58,-451.92 583.15,-439.69"/>
<polygon fill="#9a32cd" stroke="#9a32cd" points="385.06,-520.77 376.49,-527 387.08,-527.47 385.06,-520.77"/>
<text text-anchor="middle" x="462" y="-515" font-family="Helvetica,sans-Serif" font-size="10.00"> printerFunc</text>
</g>
<!-- Node16 -->
<g id="node14" class="node">
<title>Node16</title>
<g id="a_node14"><a xlink:title=" ">
<polygon fill="white" stroke="#bfbfbf" points="256,-478 256,-508 392,-508 392,-478 256,-478"/>
<text text-anchor="start" x="264" y="-496" font-family="Helvetica,sans-Serif" font-size="10.00">java.util.function.Consumer</text>
<text text-anchor="middle" x="324" y="-485" font-family="Helvetica,sans-Serif" font-size="10.00">&lt; ast.Node &gt;</text>
</a>
</g>
</g>
<!-- Node16&#45;&gt;Node4 -->
<g id="edge14" class="edge">
<title>Node16&#45;&gt;Node4</title>
<path fill="none" stroke="#9a32cd" stroke-dasharray="5,2" d="M402.24,-477.58C432.77,-471.24 468.11,-463.62 500,-456 524.03,-450.26 551.16,-442.96 570.7,-437.55"/>
<polygon fill="#9a32cd" stroke="#9a32cd" points="401.17,-474.22 392.08,-479.67 402.58,-481.08 401.17,-474.22"/>
<text text-anchor="middle" x="462" y="-475" font-family="Helvetica,sans-Serif" font-size="10.00"> typerFunc</text>
</g>
<!-- Node17 -->
<g id="node15" class="node">
<title>Node17</title>
<g id="a_node15"><a xlink:title=" ">
<polygon fill="white" stroke="#bfbfbf" points="279,-439.5 279,-458.5 369,-458.5 369,-439.5 279,-439.5"/>
<text text-anchor="middle" x="324" y="-446.5" font-family="Helvetica,sans-Serif" font-size="10.00">List&lt; ast.Node &gt;</text>
</a>
</g>
</g>
<!-- Node17&#45;&gt;Node4 -->
<g id="edge15" class="edge">
<title>Node17&#45;&gt;Node4</title>
<path fill="none" stroke="#9a32cd" stroke-dasharray="5,2" d="M379.16,-445.22C437.08,-441.19 526.56,-434.95 570.83,-431.86"/>
<polygon fill="#9a32cd" stroke="#9a32cd" points="378.82,-441.74 369.08,-445.93 379.3,-448.72 378.82,-441.74"/>
<text text-anchor="middle" x="462" y="-444" font-family="Helvetica,sans-Serif" font-size="10.00"> children_</text>
</g>
<!-- Node18 -->
<g id="node16" class="node">
<title>Node18</title>
<g id="a_node16"><a xlink:title=" ">
<polygon fill="white" stroke="#bfbfbf" points="298,-401.5 298,-420.5 350,-420.5 350,-401.5 298,-401.5"/>
<text text-anchor="middle" x="324" y="-408.5" font-family="Helvetica,sans-Serif" font-size="10.00">Boolean</text>
</a>
</g>
</g>
<!-- Node18&#45;&gt;Node4 -->
<g id="edge16" class="edge">
<title>Node18&#45;&gt;Node4</title>
<path fill="none" stroke="#9a32cd" stroke-dasharray="5,2" d="M360.51,-413.03C395.88,-415.1 451.71,-418.5 500,-422 523.88,-423.73 551.04,-425.98 570.61,-427.65"/>
<polygon fill="#9a32cd" stroke="#9a32cd" points="360.41,-409.52 350.22,-412.43 360,-416.51 360.41,-409.52"/>
<text text-anchor="middle" x="462" y="-425" font-family="Helvetica,sans-Serif" font-size="10.00"> DEBUG_CHILD</text>
</g>
<!-- Node19&#45;&gt;Node4 -->
<g id="edge17" class="edge">
<title>Node19&#45;&gt;Node4</title>
<path fill="none" stroke="#9a32cd" stroke-dasharray="5,2" d="M353.61,-375.1C388.78,-378.28 449.96,-385.75 500,-402 508.51,-404.76 509.6,-407.94 518,-411 535.2,-417.26 555.25,-422.04 570.92,-425.23"/>
<polygon fill="#9a32cd" stroke="#9a32cd" points="353.83,-371.61 343.57,-374.25 353.24,-378.58 353.83,-371.61"/>
<text text-anchor="middle" x="462" y="-405" font-family="Helvetica,sans-Serif" font-size="10.00"> sty</text>
</g>
<!-- Node20 -->
<g id="node18" class="node">
<title>Node20</title>
<g id="a_node18"><a xlink:href="classast_1_1_named_children.html" target="_top" xlink:title=" ">
<polygon fill="white" stroke="black" points="527.5,-382.5 527.5,-401.5 669.5,-401.5 669.5,-382.5 527.5,-382.5"/>
<text text-anchor="middle" x="598.5" y="-389.5" font-family="Helvetica,sans-Serif" font-size="10.00">NamedChildren&lt; ast.Node &gt;</text>
</a>
</g>
</g>
<!-- Node20&#45;&gt;Node3 -->
<g id="edge20" class="edge">
<title>Node20&#45;&gt;Node3</title>
<path fill="none" stroke="#9a32cd" stroke-dasharray="5,2" d="M679.82,-400.97C708.4,-404.66 740.74,-409.39 770,-415 778.01,-416.54 786.56,-418.48 794.61,-420.46"/>
<polygon fill="#9a32cd" stroke="#9a32cd" points="680.24,-397.5 669.88,-399.71 679.36,-404.44 680.24,-397.5"/>
<text text-anchor="middle" x="733.5" y="-418" font-family="Helvetica,sans-Serif" font-size="10.00"> astChildren</text>
</g>
<!-- Node21 -->
<g id="node19" class="node">
<title>Node21</title>
<g id="a_node19"><a xlink:href="classast_1_1_named_children.html" target="_top" xlink:title=" ">
<polygon fill="white" stroke="black" points="518,-614.5 518,-633.5 679,-633.5 679,-614.5 518,-614.5"/>
<text text-anchor="middle" x="598.5" y="-621.5" font-family="Helvetica,sans-Serif" font-size="10.00">NamedChildren&lt; XFormattable &gt;</text>
</a>
</g>
</g>
<!-- Node21&#45;&gt;Node3 -->
<g id="edge21" class="edge">
<title>Node21&#45;&gt;Node3</title>
<path fill="none" stroke="#9a32cd" stroke-dasharray="5,2" d="M689.11,-628.37C717.63,-625.48 747.56,-617.43 770,-599 821.01,-557.11 828.68,-468.7 829.81,-439.55"/>
<polygon fill="#9a32cd" stroke="#9a32cd" points="688.78,-624.88 679.1,-629.18 689.35,-631.86 688.78,-624.88"/>
<text text-anchor="middle" x="733.5" y="-630" font-family="Helvetica,sans-Serif" font-size="10.00"> navChildren</text>
</g>
<!-- Node22&#45;&gt;Node3 -->
<g id="edge22" class="edge">
<title>Node22&#45;&gt;Node3</title>
<path fill="none" stroke="#9a32cd" stroke-dasharray="5,2" d="M356.16,-617.92C371.35,-614.64 389.8,-610.21 406,-605 565.97,-553.59 750.28,-468.04 810.13,-439.56"/>
<polygon fill="#9a32cd" stroke="#9a32cd" points="355.3,-614.52 346.23,-620 356.74,-621.37 355.3,-614.52"/>
<text text-anchor="middle" x="598.5" y="-568" font-family="Helvetica,sans-Serif" font-size="10.00"> xtSelf</text>
</g>
<!-- Node23 -->
<g id="node21" class="node">
<title>Node23</title>
<g id="a_node21"><a xlink:title=" ">
<polygon fill="white" stroke="#bfbfbf" points="24,-670.5 24,-689.5 59,-689.5 59,-670.5 24,-670.5"/>
<text text-anchor="middle" x="41.5" y="-677.5" font-family="Helvetica,sans-Serif" font-size="10.00">long</text>
</a>
</g>
</g>
<!-- Node23&#45;&gt;Node22 -->
<g id="edge25" class="edge">
<title>Node23&#45;&gt;Node22</title>
<path fill="none" stroke="#9a32cd" stroke-dasharray="5,2" d="M69.31,-678.52C105,-676.14 169.89,-670.43 224,-658 251.45,-651.7 281.96,-640.56 301.75,-632.76"/>
<polygon fill="#9a32cd" stroke="#9a32cd" points="68.98,-675.03 59.22,-679.15 69.42,-682.02 68.98,-675.03"/>
<text text-anchor="middle" x="162.5" y="-689" font-family="Helvetica,sans-Serif" font-size="10.00"> FLAG_RETURN_TYPE</text>
<text text-anchor="middle" x="162.5" y="-678" font-family="Helvetica,sans-Serif" font-size="10.00">flag</text>
</g>
<!-- Node24 -->
<g id="node22" class="node">
<title>Node24</title>
<g id="a_node22"><a xlink:href="interfacemachine_1_1_blockable.html" target="_top" xlink:title="局所変数をもつ実行可能コードのインタフェース.">
<polygon fill="white" stroke="black" points="940,-188.5 940,-207.5 999,-207.5 999,-188.5 940,-188.5"/>
<text text-anchor="middle" x="969.5" y="-195.5" font-family="Helvetica,sans-Serif" font-size="10.00">Blockable</text>
</a>
</g>
</g>
<!-- Node24&#45;&gt;Node2 -->
<g id="edge26" class="edge">
<title>Node24&#45;&gt;Node2</title>
<path fill="none" stroke="midnightblue" d="M1008.79,-186.68C1027.64,-181.1 1050.08,-174.47 1067.86,-169.21"/>
<polygon fill="midnightblue" stroke="midnightblue" points="1007.62,-183.37 999.02,-189.57 1009.6,-190.09 1007.62,-183.37"/>
</g>
<!-- Node25 -->
<g id="node23" class="node">
<title>Node25</title>
<g id="a_node23"><a xlink:href="interfacecmd_1_1_generatable.html" target="_top" xlink:title="変換してコードを生成できるノードのインタフェース.">
<polygon fill="white" stroke="black" points="796.5,-150.5 796.5,-169.5 865.5,-169.5 865.5,-150.5 796.5,-150.5"/>
<text text-anchor="middle" x="831" y="-157.5" font-family="Helvetica,sans-Serif" font-size="10.00">Generatable</text>
</a>
</g>
</g>
<!-- Node25&#45;&gt;Node2 -->
<g id="edge27" class="edge">
<title>Node25&#45;&gt;Node2</title>
<path fill="none" stroke="midnightblue" d="M875.85,-160C929.91,-160 1020.44,-160 1067.87,-160"/>
<polygon fill="midnightblue" stroke="midnightblue" points="875.55,-156.5 865.55,-160 875.55,-163.5 875.55,-156.5"/>
</g>
<!-- Node25&#45;&gt;Node26 -->
<g id="edge31" class="edge">
<title>Node25&#45;&gt;Node26</title>
<path fill="none" stroke="midnightblue" d="M871.39,-147.3C894.3,-139.92 922.52,-130.82 942.62,-124.34"/>
<polygon fill="midnightblue" stroke="midnightblue" points="870.06,-144.05 861.62,-150.45 872.21,-150.72 870.06,-144.05"/>
</g>
<!-- Node26&#45;&gt;Node2 -->
<g id="edge28" class="edge">
<title>Node26&#45;&gt;Node2</title>
<path fill="none" stroke="#9a32cd" stroke-dasharray="5,2" d="M1006.18,-122.64C1020.08,-125.71 1035.99,-129.84 1050,-135 1061.29,-139.16 1073.34,-145.28 1082.66,-150.43"/>
<polygon fill="#9a32cd" stroke="#9a32cd" points="1006.52,-119.13 996.02,-120.49 1005.08,-125.98 1006.52,-119.13"/>
<text text-anchor="middle" x="1033.5" y="-138" font-family="Helvetica,sans-Serif" font-size="10.00"> sents_</text>
</g>
<!-- Node27&#45;&gt;Node26 -->
<g id="edge29" class="edge">
<title>Node27&#45;&gt;Node26</title>
<path fill="none" stroke="midnightblue" d="M878.78,-119.94C900.15,-119 924.64,-117.93 942.63,-117.14"/>
<polygon fill="midnightblue" stroke="midnightblue" points="878.42,-116.46 868.58,-120.39 878.72,-123.45 878.42,-116.46"/>
</g>
<!-- Node28 -->
<g id="node26" class="node">
<title>Node28</title>
<g id="a_node26"><a xlink:href="classcmd_1_1_cmd_list.html" target="_top" xlink:title="仮想命令のリスト．">
<polygon fill="white" stroke="black" points="572,-28.5 572,-47.5 625,-47.5 625,-28.5 572,-28.5"/>
<text text-anchor="middle" x="598.5" y="-35.5" font-family="Helvetica,sans-Serif" font-size="10.00">CmdList</text>
</a>
</g>
</g>
<!-- Node28&#45;&gt;Node2 -->
<g id="edge33" class="edge">
<title>Node28&#45;&gt;Node2</title>
<path fill="none" stroke="#9a32cd" stroke-dasharray="5,2" d="M635.25,-35.91C695.52,-33.36 820.67,-32.26 922,-59 983.12,-75.13 996.5,-87.33 1050,-121 1063.99,-129.8 1078.64,-141.9 1088.24,-150.28"/>
<polygon fill="#9a32cd" stroke="#9a32cd" points="634.95,-32.42 625.12,-36.38 635.27,-39.41 634.95,-32.42"/>
<text text-anchor="middle" x="907" y="-62" font-family="Helvetica,sans-Serif" font-size="10.00"> code_</text>
</g>
<!-- Node29&#45;&gt;Node28 -->
<g id="edge34" class="edge">
<title>Node29&#45;&gt;Node28</title>
<path fill="none" stroke="midnightblue" d="M376.62,-152.46C386.59,-149.27 396.79,-145.46 406,-141 460.82,-114.44 463.25,-88.7 518,-62 535.11,-53.66 555.71,-47.54 571.65,-43.57"/>
<polygon fill="midnightblue" stroke="midnightblue" points="375.33,-149.19 366.77,-155.43 377.35,-155.89 375.33,-149.19"/>
</g>
<!-- Node29&#45;&gt;Node31 -->
<g id="edge38" class="edge">
<title>Node29&#45;&gt;Node31</title>
<path fill="none" stroke="midnightblue" d="M381.56,-176.68C415.98,-184.1 460.73,-194.29 500,-205 524.33,-211.64 551.67,-220.45 571.19,-226.98"/>
<polygon fill="midnightblue" stroke="midnightblue" points="382.2,-173.24 371.69,-174.57 380.73,-180.08 382.2,-173.24"/>
</g>
<!-- Node30 -->
<g id="node28" class="node">
<title>Node30</title>
<g id="a_node28"><a xlink:title=" ">
<polygon fill="white" stroke="#bfbfbf" points="288.5,-28.5 288.5,-47.5 359.5,-47.5 359.5,-28.5 288.5,-28.5"/>
<text text-anchor="middle" x="324" y="-35.5" font-family="Helvetica,sans-Serif" font-size="10.00">List&lt; Cmd &gt;</text>
</a>
</g>
</g>
<!-- Node30&#45;&gt;Node28 -->
<g id="edge36" class="edge">
<title>Node30&#45;&gt;Node28</title>
<path fill="none" stroke="#9a32cd" stroke-dasharray="5,2" d="M369.77,-38C427.35,-38 525.43,-38 571.78,-38"/>
<polygon fill="#9a32cd" stroke="#9a32cd" points="369.51,-34.5 359.51,-38 369.51,-41.5 369.51,-34.5"/>
<text text-anchor="middle" x="462" y="-41" font-family="Helvetica,sans-Serif" font-size="10.00"> list_</text>
</g>
<!-- Node31&#45;&gt;Node2 -->
<g id="edge37" class="edge">
<title>Node31&#45;&gt;Node2</title>
<path fill="none" stroke="#9a32cd" stroke-dasharray="5,2" d="M635.92,-238.95C706.98,-243.68 868.57,-249.43 999,-217 1034.1,-208.27 1069.56,-183.39 1087.32,-169.56"/>
<polygon fill="#9a32cd" stroke="#9a32cd" points="635.93,-235.44 625.71,-238.23 635.44,-242.42 635.93,-235.44"/>
<text text-anchor="middle" x="907" y="-237" font-family="Helvetica,sans-Serif" font-size="10.00"> vars_</text>
</g>
<!-- Node31&#45;&gt;Node31 -->
<g id="edge41" class="edge">
<title>Node31&#45;&gt;Node31</title>
<path fill="none" stroke="#9a32cd" stroke-dasharray="5,2" d="M573.57,-255.03C574.93,-260.13 583.24,-264 598.5,-264 622.32,-264 629.2,-254.57 619.15,-245.76"/>
<polygon fill="#9a32cd" stroke="#9a32cd" points="576.84,-256.3 577.85,-245.76 570.48,-253.37 576.84,-256.3"/>
<text text-anchor="middle" x="598.5" y="-267" font-family="Helvetica,sans-Serif" font-size="10.00"> parent</text>
</g>
</g>
</svg>
        <g id="navigator" transform="translate(0 0)" fill="#404254">
                <rect fill="#f2f5e9" fill-opacity="0.5" stroke="#606060" stroke-width=".5" x="0" y="0" width="60" height="60"/>
                <use id="zoomplus" xlink:href="#zoomPlus" x="17" y="9" onmousedown="handleZoom(evt,'in')"/>
                <use id="zoomminus" xlink:href="#zoomMin" x="42" y="9" onmousedown="handleZoom(evt,'out')"/>
                <use id="reset" xlink:href="#resetDef" x="30" y="36" onmousedown="handleReset()"/>
                <g id="arrowUp" xlink:href="#dirArrow" transform="translate(30 24)" onmousedown="handlePan(0,-1)">
                  <use xlink:href="#rim" fill="#404040">
                        <set attributeName="fill" to="#808080" begin="arrowUp.mouseover" end="arrowUp.mouseout"/>
                  </use>
                  <path fill="none" stroke="white" stroke-width="1.5" d="M0,-3.0v7 M-2.5,-0.5L0,-3.0L2.5,-0.5"/>
                </g>
                <g id="arrowRight" xlink:href="#dirArrow" transform="rotate(90) translate(36 -43)" onmousedown="handlePan(1,0)">
                  <use xlink:href="#rim" fill="#404040">
                        <set attributeName="fill" to="#808080" begin="arrowRight.mouseover" end="arrowRight.mouseout"/>
                  </use>
                  <path fill="none" stroke="white" stroke-width="1.5" d="M0,-3.0v7 M-2.5,-0.5L0,-3.0L2.5,-0.5"/>
                </g>
                <g id="arrowDown" xlink:href="#dirArrow" transform="rotate(180) translate(-30 -48)" onmousedown="handlePan(0,1)">
                  <use xlink:href="#rim" fill="#404040">
                        <set attributeName="fill" to="#808080" begin="arrowDown.mouseover" end="arrowDown.mouseout"/>
                  </use>
                  <path fill="none" stroke="white" stroke-width="1.5" d="M0,-3.0v7 M-2.5,-0.5L0,-3.0L2.5,-0.5"/>
                </g>
                <g id="arrowLeft" xlink:href="#dirArrow" transform="rotate(270) translate(-36 17)" onmousedown="handlePan(-1,0)">
                  <use xlink:href="#rim" fill="#404040">
                        <set attributeName="fill" to="#808080" begin="arrowLeft.mouseover" end="arrowLeft.mouseout"/>
                  </use>
                  <path fill="none" stroke="white" stroke-width="1.5" d="M0,-3.0v7 M-2.5,-0.5L0,-3.0L2.5,-0.5"/>
                </g>
        </g>
        <svg viewBox="0 0 15 15" width="100%" height="30px" preserveAspectRatio="xMaxYMin meet">
         <g id="arrow_out" transform="scale(0.3 0.3)">
          <a xlink:href="classast_1_1_block__coll__graph_org.svg" target="_base">
           <rect id="button" ry="5" rx="5" y="6" x="6" height="38" width="38"
                fill="#f2f5e9" fill-opacity="0.5" stroke="#606060" stroke-width="1.0"/>
           <path id="arrow"
             d="M 11.500037,31.436501 C 11.940474,20.09759 22.043105,11.32322 32.158766,21.979434 L 37.068811,17.246167 C 37.068811,17.246167 37.088388,32 37.088388,32 L 22.160133,31.978069 C 22.160133,31.978069 26.997745,27.140456 26.997745,27.140456 C 18.528582,18.264221 13.291696,25.230495 11.500037,31.436501 z"
             style="fill:#404040;"/>
          </a>
         </g>
        </svg>
</svg>
