<?xml version="1.0" encoding="UTF-8" standalone="no"?>
<!DOCTYPE svg PUBLIC "-//W3C//DTD SVG 1.1//EN"
 "http://www.w3.org/Graphics/SVG/1.1/DTD/svg11.dtd">
<!-- Generated by graphviz version 2.47.0 (20210316.0004)
 -->
<!-- Title: createRef Pages: 1 -->
<svg width="384pt" height="28pt"
 viewBox="0.00 0.00 384.00 28.00" xmlns="http://www.w3.org/2000/svg" xmlns:xlink="http://www.w3.org/1999/xlink">
<g id="graph0" class="graph" transform="scale(1 1) rotate(0) translate(4 24)">
<title>createRef</title>
<polygon fill="white" stroke="transparent" points="-4,4 -4,-24 380,-24 380,4 -4,4"/>
<!-- Node1 -->
<g id="node1" class="node">
<title>Node1</title>
<g id="a_node1"><a xlink:title="与えられた型と名前をもつ変数参照を生成する．">
<polygon fill="#bfbfbf" stroke="black" points="317,-0.5 317,-19.5 376,-19.5 376,-0.5 317,-0.5"/>
<text text-anchor="middle" x="346.5" y="-7.5" font-family="Helvetica,sans-Serif" font-size="10.00">createRef</text>
</a>
</g>
</g>
<!-- Node2 -->
<g id="node2" class="node">
<title>Node2</title>
<g id="a_node2"><a xlink:href="classcompile_1_1_x_compiler.html#a9a5b5de067fc28642be5e1f787527c21" target="_top" xlink:title="入力ストリーム{is}から与えられたクエリをプログラムにコンパイルする.">
<polygon fill="white" stroke="black" points="146,-0.5 146,-19.5 281,-19.5 281,-0.5 146,-0.5"/>
<text text-anchor="middle" x="213.5" y="-7.5" font-family="Helvetica,sans-Serif" font-size="10.00">compile.XCompiler.compile</text>
</a>
</g>
</g>
<!-- Node1&#45;&gt;Node2 -->
<g id="edge1" class="edge">
<title>Node1&#45;&gt;Node2</title>
<path fill="none" stroke="midnightblue" d="M306.57,-10C298.49,-10 289.77,-10 281.03,-10"/>
<polygon fill="midnightblue" stroke="midnightblue" points="306.75,-13.5 316.75,-10 306.75,-6.5 306.75,-13.5"/>
</g>
<!-- Node3 -->
<g id="node3" class="node">
<title>Node3</title>
<g id="a_node3"><a xlink:href="classcompile_1_1_x_c_test.html#a8b260eecbaabcef8473fd87ada040682" target="_top" xlink:title="テスト用のサンプルプログラム。">
<polygon fill="white" stroke="black" points="0,-0.5 0,-19.5 110,-19.5 110,-0.5 0,-0.5"/>
<text text-anchor="middle" x="55" y="-7.5" font-family="Helvetica,sans-Serif" font-size="10.00">compile.XCTest.main</text>
</a>
</g>
</g>
<!-- Node2&#45;&gt;Node3 -->
<g id="edge2" class="edge">
<title>Node2&#45;&gt;Node3</title>
<path fill="none" stroke="midnightblue" d="M135.66,-10C127.1,-10 118.52,-10 110.33,-10"/>
<polygon fill="midnightblue" stroke="midnightblue" points="135.68,-13.5 145.68,-10 135.68,-6.5 135.68,-13.5"/>
</g>
</g>
</svg>
