<?xml version="1.0" encoding="UTF-8" standalone="no"?>
<!DOCTYPE svg PUBLIC "-//W3C//DTD SVG 1.1//EN"
 "http://www.w3.org/Graphics/SVG/1.1/DTD/svg11.dtd">
<!-- Generated by graphviz version 2.47.1 (20210417.1919)
 -->
<!-- Title: getNextEvent Pages: 1 -->
<svg width="264pt" height="214pt"
 viewBox="0.00 0.00 264.00 214.00" xmlns="http://www.w3.org/2000/svg" xmlns:xlink="http://www.w3.org/1999/xlink">
<g id="graph0" class="graph" transform="scale(1 1) rotate(0) translate(4 210)">
<title>getNextEvent</title>
<polygon fill="white" stroke="transparent" points="-4,4 -4,-210 260,-210 260,4 -4,4"/>
<!-- Node1 -->
<g id="node1" class="node">
<title>Node1</title>
<g id="a_node1"><a xlink:title="次のイベントを返す.">
<polygon fill="#bfbfbf" stroke="black" points="0,-93.5 0,-112.5 77,-112.5 77,-93.5 0,-93.5"/>
<text text-anchor="middle" x="38.5" y="-100.5" font-family="Helvetica,sans-Serif" font-size="10.00">getNextEvent</text>
</a>
</g>
</g>
<!-- Node2 -->
<g id="node2" class="node">
<title>Node2</title>
<g id="a_node2"><a xlink:href="classevent_1_1_event_base.html#a78ee178b6a73658d65ca60da4d1e6683" target="_top" xlink:title="保持するイベント名の文字列を返す。">
<polygon fill="white" stroke="black" points="117.5,-186.5 117.5,-205.5 251.5,-205.5 251.5,-186.5 117.5,-186.5"/>
<text text-anchor="middle" x="184.5" y="-193.5" font-family="Helvetica,sans-Serif" font-size="10.00">event.EventBase.getName</text>
</a>
</g>
</g>
<!-- Node1&#45;&gt;Node2 -->
<g id="edge1" class="edge">
<title>Node1&#45;&gt;Node2</title>
<path fill="none" stroke="midnightblue" d="M46.26,-112.52C58,-128.35 83.72,-160 113,-177 116.87,-179.24 121,-181.23 125.27,-182.99"/>
<polygon fill="midnightblue" stroke="midnightblue" points="124.15,-186.31 134.74,-186.48 126.57,-179.74 124.15,-186.31"/>
</g>
<!-- Node3 -->
<g id="node3" class="node">
<title>Node3</title>
<g id="a_node3"><a xlink:href="classevent_1_1_event_manager.html#a314dd65176b0debdc3318b7e9c655e0e" target="_top" xlink:title="新しいイベントを返す。">
<polygon fill="white" stroke="black" points="113,-137 113,-167 256,-167 256,-137 113,-137"/>
<text text-anchor="start" x="121" y="-155" font-family="Helvetica,sans-Serif" font-size="10.00">event.EventManager.getNew</text>
<text text-anchor="middle" x="184.5" y="-144" font-family="Helvetica,sans-Serif" font-size="10.00">Event</text>
</a>
</g>
</g>
<!-- Node1&#45;&gt;Node3 -->
<g id="edge2" class="edge">
<title>Node1&#45;&gt;Node3</title>
<path fill="none" stroke="midnightblue" d="M67.61,-112.56C85.28,-118.58 108.66,-126.53 129.79,-133.72"/>
<polygon fill="midnightblue" stroke="midnightblue" points="128.72,-137.06 139.31,-136.96 130.97,-130.43 128.72,-137.06"/>
</g>
<!-- Node4 -->
<g id="node4" class="node">
<title>Node4</title>
<g id="a_node4"><a xlink:href="classevent_1_1_event_manager.html#a5d13ae0877f01d2825d2580623011840" target="_top" xlink:title="新しいEDOCイベントを返す。">
<polygon fill="white" stroke="black" points="113,-88 113,-118 256,-118 256,-88 113,-88"/>
<text text-anchor="start" x="121" y="-106" font-family="Helvetica,sans-Serif" font-size="10.00">event.EventManager.getNew</text>
<text text-anchor="middle" x="184.5" y="-95" font-family="Helvetica,sans-Serif" font-size="10.00">EventEDOC</text>
</a>
</g>
</g>
<!-- Node1&#45;&gt;Node4 -->
<g id="edge3" class="edge">
<title>Node1&#45;&gt;Node4</title>
<path fill="none" stroke="midnightblue" d="M77.33,-103C85.27,-103 93.92,-103 102.75,-103"/>
<polygon fill="midnightblue" stroke="midnightblue" points="102.76,-106.5 112.76,-103 102.76,-99.5 102.76,-106.5"/>
</g>
<!-- Node5 -->
<g id="node5" class="node">
<title>Node5</title>
<g id="a_node5"><a xlink:href="classevent_1_1_event_manager.html#af5a47841b4e82cb106288408bc364b13" target="_top" xlink:title="新しいSDOCイベントを返す。">
<polygon fill="white" stroke="black" points="113,-39 113,-69 256,-69 256,-39 113,-39"/>
<text text-anchor="start" x="121" y="-57" font-family="Helvetica,sans-Serif" font-size="10.00">event.EventManager.getNew</text>
<text text-anchor="middle" x="184.5" y="-46" font-family="Helvetica,sans-Serif" font-size="10.00">EventSDOC</text>
</a>
</g>
</g>
<!-- Node1&#45;&gt;Node5 -->
<g id="edge4" class="edge">
<title>Node1&#45;&gt;Node5</title>
<path fill="none" stroke="midnightblue" d="M67.61,-93.44C85.28,-87.42 108.66,-79.47 129.79,-72.28"/>
<polygon fill="midnightblue" stroke="midnightblue" points="130.97,-75.57 139.31,-69.04 128.72,-68.94 130.97,-75.57"/>
</g>
<!-- Node6 -->
<g id="node6" class="node">
<title>Node6</title>
<g id="a_node6"><a xlink:href="classevent_1_1_event_base.html#ad146fa8579a5f8a876c4688cc5a68520" target="_top" xlink:title="文字列表現を返す。">
<polygon fill="white" stroke="black" points="120.5,-0.5 120.5,-19.5 248.5,-19.5 248.5,-0.5 120.5,-0.5"/>
<text text-anchor="middle" x="184.5" y="-7.5" font-family="Helvetica,sans-Serif" font-size="10.00">event.EventBase.toString</text>
</a>
</g>
</g>
<!-- Node1&#45;&gt;Node6 -->
<g id="edge5" class="edge">
<title>Node1&#45;&gt;Node6</title>
<path fill="none" stroke="midnightblue" d="M46.5,-93.4C58.41,-77.77 84.12,-46.89 113,-30 117.48,-27.38 122.33,-25.08 127.31,-23.08"/>
<polygon fill="midnightblue" stroke="midnightblue" points="128.78,-26.27 136.99,-19.57 126.4,-19.69 128.78,-26.27"/>
</g>
</g>
</svg>
