<?xml version="1.0" encoding="UTF-8" standalone="no"?>
<!DOCTYPE svg PUBLIC "-//W3C//DTD SVG 1.1//EN"
 "http://www.w3.org/Graphics/SVG/1.1/DTD/svg11.dtd">
<!-- Generated by graphviz version 2.47.1 (20210417.1919)
 -->
<!-- Title: queryParser.WhereBlockContext Pages: 1 -->
<svg width="246pt" height="152pt"
 viewBox="0.00 0.00 245.50 152.00" xmlns="http://www.w3.org/2000/svg" xmlns:xlink="http://www.w3.org/1999/xlink">
<g id="graph0" class="graph" transform="scale(1 1) rotate(0) translate(4 148)">
<title>queryParser.WhereBlockContext</title>
<polygon fill="white" stroke="transparent" points="-4,4 -4,-148 241.5,-148 241.5,4 -4,4"/>
<!-- Node1 -->
<g id="node1" class="node">
<title>Node1</title>
<g id="a_node1"><a xlink:title=" ">
<polygon fill="#bfbfbf" stroke="black" points="0,-0.5 0,-19.5 159,-19.5 159,-0.5 0,-0.5"/>
<text text-anchor="middle" x="79.5" y="-7.5" font-family="Helvetica,sans-Serif" font-size="10.00">queryParser.WhereBlockContext</text>
</a>
</g>
</g>
<!-- Node2 -->
<g id="node2" class="node">
<title>Node2</title>
<g id="a_node2"><a xlink:title=" ">
<polygon fill="white" stroke="#bfbfbf" points="25.5,-124.5 25.5,-143.5 125.5,-143.5 125.5,-124.5 25.5,-124.5"/>
<text text-anchor="middle" x="75.5" y="-131.5" font-family="Helvetica,sans-Serif" font-size="10.00">ParserRuleContext</text>
</a>
</g>
</g>
<!-- Node2&#45;&gt;Node1 -->
<g id="edge1" class="edge">
<title>Node2&#45;&gt;Node1</title>
<path fill="none" stroke="midnightblue" d="M76.12,-114.19C77,-87.4 78.57,-39.31 79.21,-19.69"/>
<polygon fill="midnightblue" stroke="midnightblue" points="72.62,-114.12 75.79,-124.23 79.61,-114.35 72.62,-114.12"/>
</g>
<!-- Node3 -->
<g id="node3" class="node">
<title>Node3</title>
<g id="a_node3"><a xlink:href="classparse_1_1query_parser_1_1_bool_expr_context.html" target="_top" xlink:title=" ">
<polygon fill="white" stroke="black" points="91.5,-67.5 91.5,-86.5 237.5,-86.5 237.5,-67.5 91.5,-67.5"/>
<text text-anchor="middle" x="164.5" y="-74.5" font-family="Helvetica,sans-Serif" font-size="10.00">queryParser.BoolExprContext</text>
</a>
</g>
</g>
<!-- Node2&#45;&gt;Node3 -->
<g id="edge3" class="edge">
<title>Node2&#45;&gt;Node3</title>
<path fill="none" stroke="midnightblue" d="M97.98,-119.11C114.57,-108.86 136.62,-95.23 150.69,-86.53"/>
<polygon fill="midnightblue" stroke="midnightblue" points="96.07,-116.17 89.41,-124.41 99.75,-122.13 96.07,-116.17"/>
</g>
<!-- Node3&#45;&gt;Node1 -->
<g id="edge2" class="edge">
<title>Node3&#45;&gt;Node1</title>
<path fill="none" stroke="#9a32cd" stroke-dasharray="5,2" d="M144.97,-61.07C128.2,-48.24 104.59,-30.19 90.78,-19.63"/>
<polygon fill="#9a32cd" stroke="#9a32cd" points="142.97,-63.94 153.04,-67.23 147.22,-58.38 142.97,-63.94"/>
<text text-anchor="middle" x="133.5" y="-41" font-family="Helvetica,sans-Serif" font-size="10.00"> a0</text>
</g>
</g>
</svg>
