<?xml version="1.0" encoding="UTF-8" standalone="no"?>
<!DOCTYPE svg PUBLIC "-//W3C//DTD SVG 1.1//EN"
 "http://www.w3.org/Graphics/SVG/1.1/DTD/svg11.dtd">
<!-- Generated by graphviz version 2.47.0 (20210316.0004)
 -->
<!-- Title: AstTemplate Pages: 1 -->
<svg width="1107pt" height="630pt"
 viewBox="0.00 0.00 1107.00 630.23" xmlns="http://www.w3.org/2000/svg" xmlns:xlink="http://www.w3.org/1999/xlink">
<g id="graph0" class="graph" transform="scale(1 1) rotate(0) translate(4 626.23)">
<title>AstTemplate</title>
<polygon fill="white" stroke="transparent" points="-4,4 -4,-626.23 1103,-626.23 1103,4 -4,4"/>
<!-- Node1 -->
<g id="node1" class="node">
<title>Node1</title>
<g id="a_node1"><a xlink:title=" ">
<polygon fill="#bfbfbf" stroke="black" points="1028,-219.73 1028,-238.73 1099,-238.73 1099,-219.73 1028,-219.73"/>
<text text-anchor="middle" x="1063.5" y="-226.73" font-family="Helvetica,sans-Serif" font-size="10.00">AstTemplate</text>
</a>
</g>
</g>
<!-- Node2 -->
<g id="node2" class="node">
<title>Node2</title>
<g id="a_node2"><a xlink:href="classast_1_1_ast_oper.html" target="_top" xlink:title=" ">
<polygon fill="white" stroke="black" points="885,-257.73 885,-276.73 938,-276.73 938,-257.73 885,-257.73"/>
<text text-anchor="middle" x="911.5" y="-264.73" font-family="Helvetica,sans-Serif" font-size="10.00">AstOper</text>
</a>
</g>
</g>
<!-- Node2&#45;&gt;Node1 -->
<g id="edge1" class="edge">
<title>Node2&#45;&gt;Node1</title>
<path fill="none" stroke="midnightblue" d="M948.03,-259.27C966.55,-255.01 989.55,-249.56 1010,-244.23 1016.51,-242.53 1023.45,-240.62 1030.08,-238.75"/>
<polygon fill="midnightblue" stroke="midnightblue" points="947.21,-255.87 938.24,-261.5 948.77,-262.69 947.21,-255.87"/>
</g>
<!-- Node3 -->
<g id="node3" class="node">
<title>Node3</title>
<g id="a_node3"><a xlink:href="classast_1_1_ast_node_branch.html" target="_top" xlink:title="タグなしの順アクセスの子供をもてる抽象構文木のノードのクラス。">
<polygon fill="white" stroke="black" points="717.5,-418.73 717.5,-437.73 803.5,-437.73 803.5,-418.73 717.5,-418.73"/>
<text text-anchor="middle" x="760.5" y="-425.73" font-family="Helvetica,sans-Serif" font-size="10.00">AstNodeBranch</text>
</a>
</g>
</g>
<!-- Node3&#45;&gt;Node2 -->
<g id="edge2" class="edge">
<title>Node3&#45;&gt;Node2</title>
<path fill="none" stroke="midnightblue" d="M777.47,-410.98C808.69,-377.24 876.94,-303.49 901.48,-276.97"/>
<polygon fill="midnightblue" stroke="midnightblue" points="774.6,-408.93 770.37,-418.64 779.74,-413.68 774.6,-408.93"/>
</g>
<!-- Node4 -->
<g id="node4" class="node">
<title>Node4</title>
<g id="a_node4"><a xlink:href="classast_1_1_ast_node.html" target="_top" xlink:title=" ">
<polygon fill="white" stroke="black" points="494.5,-157.73 494.5,-176.73 549.5,-176.73 549.5,-157.73 494.5,-157.73"/>
<text text-anchor="middle" x="522" y="-164.73" font-family="Helvetica,sans-Serif" font-size="10.00">AstNode</text>
</a>
</g>
</g>
<!-- Node4&#45;&gt;Node3 -->
<g id="edge3" class="edge">
<title>Node4&#45;&gt;Node3</title>
<path fill="none" stroke="midnightblue" d="M538.43,-184.26C583.74,-234.27 715.45,-379.62 750.72,-418.54"/>
<polygon fill="midnightblue" stroke="midnightblue" points="541.01,-181.89 531.7,-176.83 535.82,-186.59 541.01,-181.89"/>
</g>
<!-- Node5 -->
<g id="node5" class="node">
<title>Node5</title>
<g id="a_node5"><a xlink:href="interfaceformat_1_1_x_formattable.html" target="_top" xlink:title="入れ子フォーマット出力可能なオブジェクトのインタフェース。">
<polygon fill="white" stroke="black" points="0,-476.73 0,-495.73 75,-495.73 75,-476.73 0,-476.73"/>
<text text-anchor="middle" x="37.5" y="-483.73" font-family="Helvetica,sans-Serif" font-size="10.00">XFormattable</text>
</a>
</g>
</g>
<!-- Node5&#45;&gt;Node4 -->
<g id="edge4" class="edge">
<title>Node5&#45;&gt;Node4</title>
<path fill="none" stroke="midnightblue" d="M38.95,-466.28C41.08,-391.88 52.73,-132.2 112,-81.23 139.55,-57.54 410.36,-53.87 439,-76.23 465,-96.53 434.19,-124.4 457,-148.23 466.7,-158.36 481.53,-163.16 494.47,-165.4"/>
<polygon fill="midnightblue" stroke="midnightblue" points="35.44,-466.49 38.68,-476.57 42.44,-466.67 35.44,-466.49"/>
</g>
<!-- Node13 -->
<g id="node13" class="node">
<title>Node13</title>
<g id="a_node13"><a xlink:href="interfaceformat_1_1_x_formattable_1_1_label_formattable.html" target="_top" xlink:title="カスタム清書出力器をもつオブジェクトのクラス．">
<polygon fill="white" stroke="black" points="112,-476.73 112,-495.73 265,-495.73 265,-476.73 112,-476.73"/>
<text text-anchor="middle" x="188.5" y="-483.73" font-family="Helvetica,sans-Serif" font-size="10.00">XFormattable.LabelFormattable</text>
</a>
</g>
</g>
<!-- Node5&#45;&gt;Node13 -->
<g id="edge13" class="edge">
<title>Node5&#45;&gt;Node13</title>
<path fill="none" stroke="midnightblue" d="M85.6,-486.23C93.96,-486.23 102.85,-486.23 111.77,-486.23"/>
<polygon fill="midnightblue" stroke="midnightblue" points="85.33,-482.73 75.33,-486.23 85.33,-489.73 85.33,-482.73"/>
</g>
<!-- Node14 -->
<g id="node14" class="node">
<title>Node14</title>
<g id="a_node14"><a xlink:href="interfaceformat_1_1_x_formattable_1_1_typed_formattable.html" target="_top" xlink:title="ノードの型情報をもつ書式出力可能なオブジェクトのインタフェース．">
<polygon fill="white" stroke="black" points="283,-560.73 283,-579.73 439,-579.73 439,-560.73 283,-560.73"/>
<text text-anchor="middle" x="361" y="-567.73" font-family="Helvetica,sans-Serif" font-size="10.00">XFormattable.TypedFormattable</text>
</a>
</g>
</g>
<!-- Node5&#45;&gt;Node14 -->
<g id="edge15" class="edge">
<title>Node5&#45;&gt;Node14</title>
<path fill="none" stroke="midnightblue" d="M54.65,-503.11C68.51,-516.43 89.72,-534.23 112,-543.23 166.31,-565.18 232.46,-571.47 282.77,-572.52"/>
<polygon fill="midnightblue" stroke="midnightblue" points="56.95,-500.46 47.39,-495.88 52.01,-505.42 56.95,-500.46"/>
</g>
<!-- Node6 -->
<g id="node6" class="node">
<title>Node6</title>
<g id="a_node6"><a xlink:title=" ">
<polygon fill="white" stroke="#bfbfbf" points="167.5,-195.73 167.5,-214.73 209.5,-214.73 209.5,-195.73 167.5,-195.73"/>
<text text-anchor="middle" x="188.5" y="-202.73" font-family="Helvetica,sans-Serif" font-size="10.00">String</text>
</a>
</g>
</g>
<!-- Node6&#45;&gt;Node2 -->
<g id="edge24" class="edge">
<title>Node6&#45;&gt;Node2</title>
<path fill="none" stroke="#9a32cd" stroke-dasharray="5,2" d="M219.67,-206.48C266.61,-208.53 359.96,-212.99 439,-219.23 609.61,-232.69 814.24,-255.97 884.98,-264.22"/>
<polygon fill="#9a32cd" stroke="#9a32cd" points="219.71,-202.98 209.57,-206.05 219.41,-209.97 219.71,-202.98"/>
<text text-anchor="middle" x="643" y="-244.23" font-family="Helvetica,sans-Serif" font-size="10.00"> op</text>
</g>
<!-- Node6&#45;&gt;Node4 -->
<g id="edge5" class="edge">
<title>Node6&#45;&gt;Node4</title>
<path fill="none" stroke="#9a32cd" stroke-dasharray="5,2" d="M217.64,-191.34C235.81,-183.15 260.22,-173.56 283,-169.23 358.5,-154.87 449.93,-160.32 494.28,-164.38"/>
<polygon fill="#9a32cd" stroke="#9a32cd" points="215.84,-188.31 208.25,-195.7 218.79,-194.66 215.84,-188.31"/>
<text text-anchor="middle" x="361" y="-183.23" font-family="Helvetica,sans-Serif" font-size="10.00"> MOD_AST</text>
<text text-anchor="middle" x="361" y="-172.23" font-family="Helvetica,sans-Serif" font-size="10.00">mod_</text>
</g>
<!-- Node16 -->
<g id="node16" class="node">
<title>Node16</title>
<g id="a_node16"><a xlink:href="classformat_1_1_style.html" target="_top" xlink:title="ノードの表示スタイルに関するプロパティのクラス.">
<polygon fill="white" stroke="black" points="502.5,-418.73 502.5,-437.73 541.5,-437.73 541.5,-418.73 502.5,-418.73"/>
<text text-anchor="middle" x="522" y="-425.73" font-family="Helvetica,sans-Serif" font-size="10.00">Style</text>
</a>
</g>
</g>
<!-- Node6&#45;&gt;Node16 -->
<g id="edge19" class="edge">
<title>Node6&#45;&gt;Node16</title>
<path fill="none" stroke="#9a32cd" stroke-dasharray="5,2" d="M202.18,-223.08C218.31,-244.24 248.28,-278.73 283,-295.23 314.54,-310.22 413.5,-290.37 439,-314.23 470.37,-343.6 428.19,-377.34 457,-409.23 468.42,-421.87 487.83,-426.26 502.28,-427.71"/>
<polygon fill="#9a32cd" stroke="#9a32cd" points="204.9,-220.87 196.14,-214.91 199.27,-225.03 204.9,-220.87"/>
<text text-anchor="middle" x="361" y="-394.23" font-family="Helvetica,sans-Serif" font-size="10.00"> childLPAD</text>
<text text-anchor="middle" x="361" y="-383.23" font-family="Helvetica,sans-Serif" font-size="10.00">childRPAD</text>
<text text-anchor="middle" x="361" y="-372.23" font-family="Helvetica,sans-Serif" font-size="10.00">name</text>
<text text-anchor="middle" x="361" y="-361.23" font-family="Helvetica,sans-Serif" font-size="10.00">operSTR</text>
<text text-anchor="middle" x="361" y="-350.23" font-family="Helvetica,sans-Serif" font-size="10.00">parenLPAD</text>
<text text-anchor="middle" x="361" y="-339.23" font-family="Helvetica,sans-Serif" font-size="10.00">parenLPAR</text>
<text text-anchor="middle" x="361" y="-328.23" font-family="Helvetica,sans-Serif" font-size="10.00">parenRPAD</text>
<text text-anchor="middle" x="361" y="-317.23" font-family="Helvetica,sans-Serif" font-size="10.00">parenRPAR</text>
</g>
<!-- Node7 -->
<g id="node7" class="node">
<title>Node7</title>
<g id="a_node7"><a xlink:title=" ">
<polygon fill="white" stroke="#bfbfbf" points="156,-14.73 156,-33.73 221,-33.73 221,-14.73 156,-14.73"/>
<text text-anchor="middle" x="188.5" y="-21.73" font-family="Helvetica,sans-Serif" font-size="10.00">TraceLevel</text>
</a>
</g>
</g>
<!-- Node7&#45;&gt;Node4 -->
<g id="edge6" class="edge">
<title>Node7&#45;&gt;Node4</title>
<path fill="none" stroke="#9a32cd" stroke-dasharray="5,2" d="M231.12,-12.22C286.02,0.83 382.31,13.61 439,-37.23 476.21,-70.6 423.99,-110.71 457,-148.23 466.34,-158.85 481.31,-163.66 494.43,-165.79"/>
<polygon fill="#9a32cd" stroke="#9a32cd" points="230.23,-8.83 221.37,-14.64 231.92,-15.63 230.23,-8.83"/>
<text text-anchor="middle" x="361" y="-40.23" font-family="Helvetica,sans-Serif" font-size="10.00"> LOG</text>
</g>
<!-- Node8 -->
<g id="node8" class="node">
<title>Node8</title>
<g id="a_node8"><a xlink:title=" ">
<polygon fill="white" stroke="#bfbfbf" points="152,-128.73 152,-147.73 225,-147.73 225,-128.73 152,-128.73"/>
<text text-anchor="middle" x="188.5" y="-135.73" font-family="Helvetica,sans-Serif" font-size="10.00">static Report</text>
</a>
</g>
</g>
<!-- Node8&#45;&gt;Node4 -->
<g id="edge7" class="edge">
<title>Node8&#45;&gt;Node4</title>
<path fill="none" stroke="#9a32cd" stroke-dasharray="5,2" d="M235.34,-129.11C286.4,-120.9 370.75,-113.16 439,-135.23 448.39,-138.27 448.14,-143.88 457,-148.23 468.75,-154.01 482.6,-158.39 494.4,-161.48"/>
<polygon fill="#9a32cd" stroke="#9a32cd" points="234.55,-125.7 225.27,-130.81 235.72,-132.6 234.55,-125.7"/>
<text text-anchor="middle" x="361" y="-138.23" font-family="Helvetica,sans-Serif" font-size="10.00"> repo</text>
</g>
<!-- Node9 -->
<g id="node9" class="node">
<title>Node9</title>
<g id="a_node9"><a xlink:title=" ">
<polygon fill="white" stroke="#bfbfbf" points="174,-514.73 174,-533.73 203,-533.73 203,-514.73 174,-514.73"/>
<text text-anchor="middle" x="188.5" y="-521.73" font-family="Helvetica,sans-Serif" font-size="10.00">int</text>
</a>
</g>
</g>
<!-- Node9&#45;&gt;Node1 -->
<g id="edge28" class="edge">
<title>Node9&#45;&gt;Node1</title>
<path fill="none" stroke="#9a32cd" stroke-dasharray="5,2" d="M207.17,-540.77C224.87,-556.24 253.63,-578.52 283,-589.23 382.79,-625.64 414.77,-611.23 521,-611.23 521,-611.23 521,-611.23 912.5,-611.23 994.97,-611.23 1050.95,-298.85 1060.91,-239.06"/>
<polygon fill="#9a32cd" stroke="#9a32cd" points="209.2,-537.88 199.42,-533.8 204.52,-543.09 209.2,-537.88"/>
<text text-anchor="middle" x="760.5" y="-614.23" font-family="Helvetica,sans-Serif" font-size="10.00"> num</text>
</g>
<!-- Node9&#45;&gt;Node3 -->
<g id="edge16" class="edge">
<title>Node9&#45;&gt;Node3</title>
<path fill="none" stroke="#9a32cd" stroke-dasharray="5,2" d="M213.57,-524.52C286.21,-524.69 508.83,-520.12 681,-462.23 701.55,-455.32 724.2,-445.23 739.86,-437.84"/>
<polygon fill="#9a32cd" stroke="#9a32cd" points="213.25,-521.02 203.23,-524.46 213.21,-528.02 213.25,-521.02"/>
<text text-anchor="middle" x="522" y="-534.23" font-family="Helvetica,sans-Serif" font-size="10.00"> BITMASK_PRINT_WIDTH</text>
<text text-anchor="middle" x="522" y="-523.23" font-family="Helvetica,sans-Serif" font-size="10.00">UNDEF</text>
<text text-anchor="middle" x="522" y="-512.23" font-family="Helvetica,sans-Serif" font-size="10.00">height</text>
</g>
<!-- Node9&#45;&gt;Node4 -->
<g id="edge8" class="edge">
<title>Node9&#45;&gt;Node4</title>
<path fill="none" stroke="#9a32cd" stroke-dasharray="5,2" d="M213.46,-525.03C230.53,-524.19 252.57,-519.98 265,-505.23 298.89,-465.01 246.66,-307.25 283,-269.23 307.13,-243.99 407.65,-265.62 439,-250.23 473.91,-233.09 502.58,-194.97 514.73,-176.99"/>
<polygon fill="#9a32cd" stroke="#9a32cd" points="213.06,-521.53 203.11,-525.17 213.16,-528.53 213.06,-521.53"/>
<text text-anchor="middle" x="361" y="-283.23" font-family="Helvetica,sans-Serif" font-size="10.00"> BITMASK_PRINT_WIDTH</text>
<text text-anchor="middle" x="361" y="-272.23" font-family="Helvetica,sans-Serif" font-size="10.00">UNDEF</text>
</g>
<!-- Node9&#45;&gt;Node16 -->
<g id="edge20" class="edge">
<title>Node9&#45;&gt;Node16</title>
<path fill="none" stroke="#9a32cd" stroke-dasharray="5,2" d="M213.17,-518.76C228.11,-515.18 247.77,-510.26 265,-505.23 273.09,-502.87 274.96,-501.77 283,-499.23 359.96,-474.91 379.65,-470.27 457,-447.23 472.22,-442.7 489.48,-437.58 502.23,-433.79"/>
<polygon fill="#9a32cd" stroke="#9a32cd" points="212.15,-515.4 203.22,-521.11 213.76,-522.21 212.15,-515.4"/>
<text text-anchor="middle" x="361" y="-502.23" font-family="Helvetica,sans-Serif" font-size="10.00"> pref</text>
</g>
<!-- Node10 -->
<g id="node10" class="node">
<title>Node10</title>
<g id="a_node10"><a xlink:href="interfacetype_1_1_typable.html" target="_top" xlink:title="抽象ノードがもつ関数型のインタフェース">
<polygon fill="white" stroke="black" points="163.5,-90.73 163.5,-109.73 213.5,-109.73 213.5,-90.73 163.5,-90.73"/>
<text text-anchor="middle" x="188.5" y="-97.73" font-family="Helvetica,sans-Serif" font-size="10.00">Typable</text>
</a>
</g>
</g>
<!-- Node10&#45;&gt;Node4 -->
<g id="edge9" class="edge">
<title>Node10&#45;&gt;Node4</title>
<path fill="none" stroke="#9a32cd" stroke-dasharray="5,2" d="M223.65,-90.36C275.18,-77.64 373.71,-62.04 439,-106.23 455.82,-117.61 441.83,-134.73 457,-148.23 467.3,-157.4 481.86,-162.15 494.48,-164.61"/>
<polygon fill="#9a32cd" stroke="#9a32cd" points="222.5,-87.04 213.7,-92.93 224.25,-93.82 222.5,-87.04"/>
<text text-anchor="middle" x="361" y="-109.23" font-family="Helvetica,sans-Serif" font-size="10.00"> typing</text>
</g>
<!-- Node11 -->
<g id="node11" class="node">
<title>Node11</title>
<g id="a_node11"><a xlink:title=" ">
<polygon fill="white" stroke="#bfbfbf" points="163.5,-326.73 163.5,-345.73 213.5,-345.73 213.5,-326.73 163.5,-326.73"/>
<text text-anchor="middle" x="188.5" y="-333.73" font-family="Helvetica,sans-Serif" font-size="10.00">boolean</text>
</a>
</g>
</g>
<!-- Node11&#45;&gt;Node4 -->
<g id="edge10" class="edge">
<title>Node11&#45;&gt;Node4</title>
<path fill="none" stroke="#9a32cd" stroke-dasharray="5,2" d="M202.09,-318.24C218.32,-296.36 248.58,-259.83 283,-239.23 344.81,-202.23 370.22,-216.66 439,-195.23 457.53,-189.46 478.2,-182.39 494.16,-176.81"/>
<polygon fill="#9a32cd" stroke="#9a32cd" points="199.04,-316.47 196.02,-326.62 204.72,-320.57 199.04,-316.47"/>
<text text-anchor="middle" x="361" y="-242.23" font-family="Helvetica,sans-Serif" font-size="10.00"> DEBUG_REPO</text>
</g>
<!-- Node11&#45;&gt;Node16 -->
<g id="edge21" class="edge">
<title>Node11&#45;&gt;Node16</title>
<path fill="none" stroke="#9a32cd" stroke-dasharray="5,2" d="M206.08,-353.24C223.51,-369.93 252.59,-394.53 283,-406.23 322.98,-421.62 453.32,-426.5 502.23,-427.81"/>
<polygon fill="#9a32cd" stroke="#9a32cd" points="208.08,-350.3 198.5,-345.78 203.17,-355.29 208.08,-350.3"/>
<text text-anchor="middle" x="361" y="-438.23" font-family="Helvetica,sans-Serif" font-size="10.00"> preoperSupress</text>
<text text-anchor="middle" x="361" y="-427.23" font-family="Helvetica,sans-Serif" font-size="10.00">toInline</text>
</g>
<!-- Node12 -->
<g id="node12" class="node">
<title>Node12</title>
<g id="a_node12"><a xlink:href="interfaceformat_1_1_x_formattable_1_1_navigatable.html" target="_top" xlink:title="木構造の分岐ノードとして清書可能なオブジェクトのクラス">
<polygon fill="white" stroke="black" points="457,-456.73 457,-475.73 587,-475.73 587,-456.73 457,-456.73"/>
<text text-anchor="middle" x="522" y="-463.73" font-family="Helvetica,sans-Serif" font-size="10.00">XFormattable.Navigatable</text>
</a>
</g>
</g>
<!-- Node12&#45;&gt;Node3 -->
<g id="edge11" class="edge">
<title>Node12&#45;&gt;Node3</title>
<path fill="none" stroke="midnightblue" d="M597.25,-456.11C623.72,-452.32 653.73,-447.82 681,-443.23 692.77,-441.25 705.49,-438.91 717.19,-436.67"/>
<polygon fill="midnightblue" stroke="midnightblue" points="596.7,-452.66 587.29,-457.53 597.68,-459.59 596.7,-452.66"/>
</g>
<!-- Node13&#45;&gt;Node12 -->
<g id="edge12" class="edge">
<title>Node13&#45;&gt;Node12</title>
<path fill="none" stroke="midnightblue" d="M275.19,-490.6C323.46,-491.88 384.77,-491.54 439,-485.23 455.11,-483.36 472.67,-479.53 487.39,-475.81"/>
<polygon fill="midnightblue" stroke="midnightblue" points="275.2,-487.1 265.1,-490.3 274.99,-494.09 275.2,-487.1"/>
</g>
<!-- Node14&#45;&gt;Node3 -->
<g id="edge14" class="edge">
<title>Node14&#45;&gt;Node3</title>
<path fill="none" stroke="midnightblue" d="M449.62,-577.14C517.79,-578.29 612.07,-570.19 681,-526.23 717.21,-503.14 744.18,-457.55 754.68,-437.77"/>
<polygon fill="midnightblue" stroke="midnightblue" points="449.41,-573.64 439.33,-576.9 449.25,-580.64 449.41,-573.64"/>
</g>
<!-- Node15 -->
<g id="node15" class="node">
<title>Node15</title>
<g id="a_node15"><a xlink:title=" ">
<polygon fill="white" stroke="#bfbfbf" points="496,-380.73 496,-399.73 548,-399.73 548,-380.73 496,-380.73"/>
<text text-anchor="middle" x="522" y="-387.73" font-family="Helvetica,sans-Serif" font-size="10.00">Boolean</text>
</a>
</g>
</g>
<!-- Node15&#45;&gt;Node3 -->
<g id="edge17" class="edge">
<title>Node15&#45;&gt;Node3</title>
<path fill="none" stroke="#9a32cd" stroke-dasharray="5,2" d="M558.44,-394.93C590.51,-399.3 639,-406.17 681,-413.23 692.77,-415.21 705.49,-417.55 717.19,-419.79"/>
<polygon fill="#9a32cd" stroke="#9a32cd" points="558.61,-391.42 548.23,-393.55 557.67,-398.36 558.61,-391.42"/>
<text text-anchor="middle" x="643" y="-416.23" font-family="Helvetica,sans-Serif" font-size="10.00"> DEBUG_CHILD</text>
</g>
<!-- Node16&#45;&gt;Node3 -->
<g id="edge18" class="edge">
<title>Node16&#45;&gt;Node3</title>
<path fill="none" stroke="#9a32cd" stroke-dasharray="5,2" d="M551.73,-428.23C592.99,-428.23 669.29,-428.23 717.06,-428.23"/>
<polygon fill="#9a32cd" stroke="#9a32cd" points="551.56,-424.73 541.56,-428.23 551.56,-431.73 551.56,-424.73"/>
<text text-anchor="middle" x="643" y="-431.23" font-family="Helvetica,sans-Serif" font-size="10.00"> sty</text>
</g>
<!-- Node17 -->
<g id="node17" class="node">
<title>Node17</title>
<g id="a_node17"><a xlink:href="interfacecmd_1_1_generatable_1_1_evaluatable.html" target="_top" xlink:title="評価して値を返すノードのインタフェース．必ずしもコードを生成しなくても良い．">
<polygon fill="white" stroke="black" points="699,-138.73 699,-157.73 822,-157.73 822,-138.73 699,-138.73"/>
<text text-anchor="middle" x="760.5" y="-145.73" font-family="Helvetica,sans-Serif" font-size="10.00">Generatable.Evaluatable</text>
</a>
</g>
</g>
<!-- Node17&#45;&gt;Node2 -->
<g id="edge22" class="edge">
<title>Node17&#45;&gt;Node2</title>
<path fill="none" stroke="midnightblue" d="M800.22,-161.89C814.77,-168.72 830.34,-178.33 841,-191.23 857.92,-211.71 840.67,-229 859,-248.23 865.84,-255.4 875.62,-259.88 884.83,-262.68"/>
<polygon fill="midnightblue" stroke="midnightblue" points="801.44,-158.6 790.88,-157.8 798.63,-165.01 801.44,-158.6"/>
</g>
<!-- Node18 -->
<g id="node18" class="node">
<title>Node18</title>
<g id="a_node18"><a xlink:href="interfacecmd_1_1_generatable.html" target="_top" xlink:title="変換してコードを生成できるノードのインタフェース.">
<polygon fill="white" stroke="black" points="487.5,-119.73 487.5,-138.73 556.5,-138.73 556.5,-119.73 487.5,-119.73"/>
<text text-anchor="middle" x="522" y="-126.73" font-family="Helvetica,sans-Serif" font-size="10.00">Generatable</text>
</a>
</g>
</g>
<!-- Node18&#45;&gt;Node17 -->
<g id="edge23" class="edge">
<title>Node18&#45;&gt;Node17</title>
<path fill="none" stroke="midnightblue" d="M566.62,-132.74C603.67,-135.71 657.25,-140.02 698.55,-143.33"/>
<polygon fill="midnightblue" stroke="midnightblue" points="566.88,-129.24 556.63,-131.93 566.32,-136.22 566.88,-129.24"/>
</g>
<!-- Node19 -->
<g id="node19" class="node">
<title>Node19</title>
<g id="a_node19"><a xlink:title=" ">
<polygon fill="white" stroke="#bfbfbf" points="873.5,-219.73 873.5,-238.73 949.5,-238.73 949.5,-219.73 873.5,-219.73"/>
<text text-anchor="middle" x="911.5" y="-226.73" font-family="Helvetica,sans-Serif" font-size="10.00">List&lt; String &gt;</text>
</a>
</g>
</g>
<!-- Node19&#45;&gt;Node1 -->
<g id="edge25" class="edge">
<title>Node19&#45;&gt;Node1</title>
<path fill="none" stroke="#9a32cd" stroke-dasharray="5,2" d="M959.76,-229.23C981.84,-229.23 1007.67,-229.23 1027.9,-229.23"/>
<polygon fill="#9a32cd" stroke="#9a32cd" points="959.58,-225.73 949.58,-229.23 959.58,-232.73 959.58,-225.73"/>
<text text-anchor="middle" x="996" y="-232.23" font-family="Helvetica,sans-Serif" font-size="10.00"> texts</text>
</g>
<!-- Node20 -->
<g id="node20" class="node">
<title>Node20</title>
<g id="a_node20"><a xlink:title=" ">
<polygon fill="white" stroke="#bfbfbf" points="859,-181.73 859,-200.73 964,-200.73 964,-181.73 859,-181.73"/>
<text text-anchor="middle" x="911.5" y="-188.73" font-family="Helvetica,sans-Serif" font-size="10.00">List&lt; ast.AstNode &gt;</text>
</a>
</g>
</g>
<!-- Node20&#45;&gt;Node1 -->
<g id="edge26" class="edge">
<title>Node20&#45;&gt;Node1</title>
<path fill="none" stroke="#9a32cd" stroke-dasharray="5,2" d="M964.76,-203.09C979.43,-206.54 995.37,-210.42 1010,-214.23 1016.51,-215.93 1023.45,-217.84 1030.08,-219.71"/>
<polygon fill="#9a32cd" stroke="#9a32cd" points="965.37,-199.63 954.84,-200.77 963.78,-206.45 965.37,-199.63"/>
<text text-anchor="middle" x="996" y="-217.23" font-family="Helvetica,sans-Serif" font-size="10.00"> steps</text>
</g>
<!-- Node21 -->
<g id="node21" class="node">
<title>Node21</title>
<g id="a_node21"><a xlink:title=" ">
<polygon fill="white" stroke="#bfbfbf" points="894,-138.73 894,-157.73 929,-157.73 929,-138.73 894,-138.73"/>
<text text-anchor="middle" x="911.5" y="-145.73" font-family="Helvetica,sans-Serif" font-size="10.00">char</text>
</a>
</g>
</g>
<!-- Node21&#45;&gt;Node1 -->
<g id="edge27" class="edge">
<title>Node21&#45;&gt;Node1</title>
<path fill="none" stroke="#9a32cd" stroke-dasharray="5,2" d="M939.07,-154.44C959.4,-159.9 987.65,-169.05 1010,-182.23 1027.49,-192.55 1044.37,-209.25 1054.08,-219.71"/>
<polygon fill="#9a32cd" stroke="#9a32cd" points="939.79,-151.01 929.23,-151.92 938.05,-157.8 939.79,-151.01"/>
<text text-anchor="middle" x="996" y="-196.23" font-family="Helvetica,sans-Serif" font-size="10.00"> DQ</text>
<text text-anchor="middle" x="996" y="-185.23" font-family="Helvetica,sans-Serif" font-size="10.00">SQ</text>
</g>
</g>
</svg>
