<?xml version="1.0" encoding="UTF-8" standalone="no"?>
<!DOCTYPE svg PUBLIC "-//W3C//DTD SVG 1.1//EN"
 "http://www.w3.org/Graphics/SVG/1.1/DTD/svg11.dtd">
<!-- Generated by graphviz version 2.47.0 (20210316.0004)
 -->
<!-- Title: AstDataReader.ReaderType Pages: 1 -->
<svg width="944pt" height="629pt"
 viewBox="0.00 0.00 944.00 629.00" xmlns="http://www.w3.org/2000/svg" xmlns:xlink="http://www.w3.org/1999/xlink">
<g id="graph0" class="graph" transform="scale(1 1) rotate(0) translate(4 625)">
<title>AstDataReader.ReaderType</title>
<polygon fill="white" stroke="transparent" points="-4,4 -4,-625 940,-625 940,4 -4,4"/>
<!-- Node1 -->
<g id="node1" class="node">
<title>Node1</title>
<g id="a_node1"><a xlink:title="フレームスタックから参照が示す値を読み出すクラス">
<polygon fill="#bfbfbf" stroke="black" points="797,-127.5 797,-146.5 936,-146.5 936,-127.5 797,-127.5"/>
<text text-anchor="middle" x="866.5" y="-134.5" font-family="Helvetica,sans-Serif" font-size="10.00">AstDataReader.ReaderType</text>
</a>
</g>
</g>
<!-- Node2 -->
<g id="node2" class="node">
<title>Node2</title>
<g id="a_node2"><a xlink:href="classast_1_1_ast_data_reader.html" target="_top" xlink:title="値の読み出しオブジェクト．">
<polygon fill="white" stroke="black" points="662,-427.5 662,-446.5 746,-446.5 746,-427.5 662,-427.5"/>
<text text-anchor="middle" x="704" y="-434.5" font-family="Helvetica,sans-Serif" font-size="10.00">AstDataReader</text>
</a>
</g>
</g>
<!-- Node2&#45;&gt;Node1 -->
<g id="edge1" class="edge">
<title>Node2&#45;&gt;Node1</title>
<path fill="none" stroke="midnightblue" d="M714.98,-418.35C745.58,-361.16 837.38,-189.56 860.28,-146.76"/>
<polygon fill="midnightblue" stroke="midnightblue" points="711.79,-416.89 710.16,-427.36 717.96,-420.19 711.79,-416.89"/>
</g>
<!-- Node3 -->
<g id="node3" class="node">
<title>Node3</title>
<g id="a_node3"><a xlink:href="classast_1_1_ast_node.html" target="_top" xlink:title="タグなしの順アクセスの子供をもてる抽象構文木のノードのクラス。">
<polygon fill="white" stroke="black" points="536,-360.5 536,-379.5 591,-379.5 591,-360.5 536,-360.5"/>
<text text-anchor="middle" x="563.5" y="-367.5" font-family="Helvetica,sans-Serif" font-size="10.00">AstNode</text>
</a>
</g>
</g>
<!-- Node3&#45;&gt;Node2 -->
<g id="edge2" class="edge">
<title>Node3&#45;&gt;Node2</title>
<path fill="none" stroke="midnightblue" d="M593.64,-384.1C620.54,-397.11 659.76,-416.08 683.19,-427.42"/>
<polygon fill="midnightblue" stroke="midnightblue" points="594.87,-380.8 584.34,-379.6 591.82,-387.1 594.87,-380.8"/>
</g>
<!-- Node21 -->
<g id="node21" class="node">
<title>Node21</title>
<g id="a_node21"><a xlink:href="classmachine_1_1_ref.html" target="_top" xlink:title="フレーム中の変数参照オブジェクトref = (XType type, int vid)">
<polygon fill="white" stroke="black" points="688,-127.5 688,-146.5 720,-146.5 720,-127.5 688,-127.5"/>
<text text-anchor="middle" x="704" y="-134.5" font-family="Helvetica,sans-Serif" font-size="10.00">Ref</text>
</a>
</g>
</g>
<!-- Node3&#45;&gt;Node21 -->
<g id="edge27" class="edge">
<title>Node3&#45;&gt;Node21</title>
<path fill="none" stroke="midnightblue" d="M573.49,-351.33C598.98,-304.09 671.44,-182.28 695.29,-146.66"/>
<polygon fill="midnightblue" stroke="midnightblue" points="570.37,-349.75 568.8,-360.22 576.56,-353.01 570.37,-349.75"/>
</g>
<!-- Node3&#45;&gt;Node21 -->
<g id="edge29" class="edge">
<title>Node3&#45;&gt;Node21</title>
<path fill="none" stroke="midnightblue" d="M577.75,-351.89C607.94,-305.01 680.66,-182.12 698.83,-146.53"/>
<polygon fill="midnightblue" stroke="midnightblue" points="574.7,-350.16 572.14,-360.44 580.55,-354 574.7,-350.16"/>
</g>
<!-- Node4 -->
<g id="node4" class="node">
<title>Node4</title>
<g id="a_node4"><a xlink:href="classast_1_1_ast_node_base.html" target="_top" xlink:title=" ">
<polygon fill="white" stroke="black" points="273.5,-340.5 273.5,-359.5 350.5,-359.5 350.5,-340.5 273.5,-340.5"/>
<text text-anchor="middle" x="312" y="-347.5" font-family="Helvetica,sans-Serif" font-size="10.00">AstNodeBase</text>
</a>
</g>
</g>
<!-- Node4&#45;&gt;Node3 -->
<g id="edge3" class="edge">
<title>Node4&#45;&gt;Node3</title>
<path fill="none" stroke="midnightblue" d="M360.6,-353.82C412.56,-357.98 493.91,-364.5 535.72,-367.85"/>
<polygon fill="midnightblue" stroke="midnightblue" points="360.87,-350.33 350.62,-353.02 360.31,-357.3 360.87,-350.33"/>
</g>
<!-- Node5 -->
<g id="node5" class="node">
<title>Node5</title>
<g id="a_node5"><a xlink:title=" ">
<polygon fill="white" stroke="#bfbfbf" points="16.5,-206.5 16.5,-225.5 58.5,-225.5 58.5,-206.5 16.5,-206.5"/>
<text text-anchor="middle" x="37.5" y="-213.5" font-family="Helvetica,sans-Serif" font-size="10.00">String</text>
</a>
</g>
</g>
<!-- Node5&#45;&gt;Node4 -->
<g id="edge4" class="edge">
<title>Node5&#45;&gt;Node4</title>
<path fill="none" stroke="#9a32cd" stroke-dasharray="5,2" d="M60.95,-231.04C70.57,-237.1 82.08,-243.85 93,-249 145.39,-273.69 173.13,-253.06 216,-292 230.13,-304.84 219.28,-318.85 234,-331 245.04,-340.12 259.82,-344.96 273.48,-347.5"/>
<polygon fill="#9a32cd" stroke="#9a32cd" points="62.69,-228 52.39,-225.52 58.9,-233.88 62.69,-228"/>
<text text-anchor="middle" x="154.5" y="-306" font-family="Helvetica,sans-Serif" font-size="10.00"> MOD_AST</text>
<text text-anchor="middle" x="154.5" y="-295" font-family="Helvetica,sans-Serif" font-size="10.00">mod_</text>
</g>
<!-- Node17 -->
<g id="node17" class="node">
<title>Node17</title>
<g id="a_node17"><a xlink:href="classformat_1_1_style.html" target="_top" xlink:title="ノードの表示スタイルに関するプロパティのクラス.">
<polygon fill="white" stroke="black" points="292.5,-207.5 292.5,-226.5 331.5,-226.5 331.5,-207.5 292.5,-207.5"/>
<text text-anchor="middle" x="312" y="-214.5" font-family="Helvetica,sans-Serif" font-size="10.00">Style</text>
</a>
</g>
</g>
<!-- Node5&#45;&gt;Node17 -->
<g id="edge19" class="edge">
<title>Node5&#45;&gt;Node17</title>
<path fill="none" stroke="#9a32cd" stroke-dasharray="5,2" d="M50.28,-198.08C59.99,-185.06 75.06,-168.48 93,-161 143.46,-139.96 163.26,-146.61 216,-161 249.06,-170.02 282.33,-193.8 299.36,-207.3"/>
<polygon fill="#9a32cd" stroke="#9a32cd" points="47.34,-196.17 44.44,-206.36 53.07,-200.2 47.34,-196.17"/>
<text text-anchor="middle" x="154.5" y="-241" font-family="Helvetica,sans-Serif" font-size="10.00"> childLPAD</text>
<text text-anchor="middle" x="154.5" y="-230" font-family="Helvetica,sans-Serif" font-size="10.00">childRPAD</text>
<text text-anchor="middle" x="154.5" y="-219" font-family="Helvetica,sans-Serif" font-size="10.00">name</text>
<text text-anchor="middle" x="154.5" y="-208" font-family="Helvetica,sans-Serif" font-size="10.00">operSTR</text>
<text text-anchor="middle" x="154.5" y="-197" font-family="Helvetica,sans-Serif" font-size="10.00">parenLPAD</text>
<text text-anchor="middle" x="154.5" y="-186" font-family="Helvetica,sans-Serif" font-size="10.00">parenLPAR</text>
<text text-anchor="middle" x="154.5" y="-175" font-family="Helvetica,sans-Serif" font-size="10.00">parenRPAD</text>
<text text-anchor="middle" x="154.5" y="-164" font-family="Helvetica,sans-Serif" font-size="10.00">parenRPAR</text>
</g>
<!-- Node6 -->
<g id="node6" class="node">
<title>Node6</title>
<g id="a_node6"><a xlink:title=" ">
<polygon fill="white" stroke="#bfbfbf" points="5,-378.5 5,-397.5 70,-397.5 70,-378.5 5,-378.5"/>
<text text-anchor="middle" x="37.5" y="-385.5" font-family="Helvetica,sans-Serif" font-size="10.00">TraceLevel</text>
</a>
</g>
</g>
<!-- Node6&#45;&gt;Node4 -->
<g id="edge5" class="edge">
<title>Node6&#45;&gt;Node4</title>
<path fill="none" stroke="#9a32cd" stroke-dasharray="5,2" d="M80.02,-382.21C132.62,-374.88 222.49,-362.34 273.23,-355.27"/>
<polygon fill="#9a32cd" stroke="#9a32cd" points="79.45,-378.76 70.03,-383.6 80.41,-385.69 79.45,-378.76"/>
<text text-anchor="middle" x="154.5" y="-382" font-family="Helvetica,sans-Serif" font-size="10.00"> LOG</text>
</g>
<!-- Node7 -->
<g id="node7" class="node">
<title>Node7</title>
<g id="a_node7"><a xlink:title=" ">
<polygon fill="white" stroke="#bfbfbf" points="1,-340.5 1,-359.5 74,-359.5 74,-340.5 1,-340.5"/>
<text text-anchor="middle" x="37.5" y="-347.5" font-family="Helvetica,sans-Serif" font-size="10.00">static Report</text>
</a>
</g>
</g>
<!-- Node7&#45;&gt;Node4 -->
<g id="edge6" class="edge">
<title>Node7&#45;&gt;Node4</title>
<path fill="none" stroke="#9a32cd" stroke-dasharray="5,2" d="M84.27,-350C137.32,-350 223.77,-350 273.18,-350"/>
<polygon fill="#9a32cd" stroke="#9a32cd" points="84.12,-346.5 74.12,-350 84.12,-353.5 84.12,-346.5"/>
<text text-anchor="middle" x="154.5" y="-353" font-family="Helvetica,sans-Serif" font-size="10.00"> repo</text>
</g>
<!-- Node8 -->
<g id="node8" class="node">
<title>Node8</title>
<g id="a_node8"><a xlink:title=" ">
<polygon fill="white" stroke="#bfbfbf" points="23,-71.5 23,-90.5 52,-90.5 52,-71.5 23,-71.5"/>
<text text-anchor="middle" x="37.5" y="-78.5" font-family="Helvetica,sans-Serif" font-size="10.00">int</text>
</a>
</g>
</g>
<!-- Node8&#45;&gt;Node4 -->
<g id="edge7" class="edge">
<title>Node8&#45;&gt;Node4</title>
<path fill="none" stroke="#9a32cd" stroke-dasharray="5,2" d="M61.93,-86.19C110,-96.84 215.36,-120.27 216,-121 246.79,-156.3 203.57,-295.39 234,-331 243.66,-342.3 258.88,-347.45 273.24,-349.63"/>
<polygon fill="#9a32cd" stroke="#9a32cd" points="62.59,-82.75 52.07,-84 61.08,-89.58 62.59,-82.75"/>
<text text-anchor="middle" x="154.5" y="-135" font-family="Helvetica,sans-Serif" font-size="10.00"> BITMASK_PRINT_WIDTH</text>
<text text-anchor="middle" x="154.5" y="-124" font-family="Helvetica,sans-Serif" font-size="10.00">UNDEF</text>
</g>
<!-- Node8&#45;&gt;Node17 -->
<g id="edge20" class="edge">
<title>Node8&#45;&gt;Node17</title>
<path fill="none" stroke="#9a32cd" stroke-dasharray="5,2" d="M62.4,-74.59C98.12,-66.39 166.5,-56.13 216,-82 268.83,-109.61 298.53,-181.48 307.8,-207.45"/>
<polygon fill="#9a32cd" stroke="#9a32cd" points="61.31,-71.25 52.42,-77.02 62.97,-78.05 61.31,-71.25"/>
<text text-anchor="middle" x="154.5" y="-85" font-family="Helvetica,sans-Serif" font-size="10.00"> pref</text>
</g>
<!-- Node8&#45;&gt;Node21 -->
<g id="edge31" class="edge">
<title>Node8&#45;&gt;Node21</title>
<path fill="none" stroke="#9a32cd" stroke-dasharray="5,2" d="M61.59,-71.02C71.13,-67.42 82.41,-63.79 93,-62 146.9,-52.87 161.49,-57.83 216,-62 403.65,-76.36 628.44,-121.43 687.95,-133.82"/>
<polygon fill="#9a32cd" stroke="#9a32cd" points="60.03,-67.88 52.05,-74.84 62.63,-74.38 60.03,-67.88"/>
<text text-anchor="middle" x="446" y="-99" font-family="Helvetica,sans-Serif" font-size="10.00"> UNDEF</text>
</g>
<!-- Node9 -->
<g id="node9" class="node">
<title>Node9</title>
<g id="a_node9"><a xlink:href="interfacetype_1_1_typable.html" target="_top" xlink:title="抽象ノードがもつ関数型のインタフェース">
<polygon fill="white" stroke="black" points="12.5,-302.5 12.5,-321.5 62.5,-321.5 62.5,-302.5 12.5,-302.5"/>
<text text-anchor="middle" x="37.5" y="-309.5" font-family="Helvetica,sans-Serif" font-size="10.00">Typable</text>
</a>
</g>
</g>
<!-- Node9&#45;&gt;Node4 -->
<g id="edge8" class="edge">
<title>Node9&#45;&gt;Node4</title>
<path fill="none" stroke="#9a32cd" stroke-dasharray="5,2" d="M73.02,-316.19C108.82,-320.59 166.38,-327.87 216,-335 234.84,-337.71 255.74,-340.98 273.13,-343.77"/>
<polygon fill="#9a32cd" stroke="#9a32cd" points="73,-312.66 62.65,-314.91 72.15,-319.6 73,-312.66"/>
<text text-anchor="middle" x="154.5" y="-338" font-family="Helvetica,sans-Serif" font-size="10.00"> typing</text>
</g>
<!-- Node10 -->
<g id="node10" class="node">
<title>Node10</title>
<g id="a_node10"><a xlink:title=" ">
<polygon fill="white" stroke="#bfbfbf" points="12.5,-453.5 12.5,-472.5 62.5,-472.5 62.5,-453.5 12.5,-453.5"/>
<text text-anchor="middle" x="37.5" y="-460.5" font-family="Helvetica,sans-Serif" font-size="10.00">boolean</text>
</a>
</g>
</g>
<!-- Node10&#45;&gt;Node2 -->
<g id="edge24" class="edge">
<title>Node10&#45;&gt;Node2</title>
<path fill="none" stroke="#9a32cd" stroke-dasharray="5,2" d="M72.84,-471.74C79.48,-473.1 86.43,-474.28 93,-475 147.35,-480.91 161.37,-477.13 216,-475 381.46,-468.55 577.82,-449.84 661.69,-441.32"/>
<polygon fill="#9a32cd" stroke="#9a32cd" points="73.25,-468.25 62.73,-469.52 71.74,-475.08 73.25,-468.25"/>
<text text-anchor="middle" x="446" y="-466" font-family="Helvetica,sans-Serif" font-size="10.00"> DEBUG_TYPE</text>
</g>
<!-- Node10&#45;&gt;Node4 -->
<g id="edge9" class="edge">
<title>Node10&#45;&gt;Node4</title>
<path fill="none" stroke="#9a32cd" stroke-dasharray="5,2" d="M72.75,-463.21C118.28,-462.77 195.4,-459.23 216,-441 240.7,-419.14 210.64,-392.29 234,-369 244.34,-358.7 259.31,-353.67 273.32,-351.31"/>
<polygon fill="#9a32cd" stroke="#9a32cd" points="72.7,-459.71 62.72,-463.27 72.74,-466.71 72.7,-459.71"/>
<text text-anchor="middle" x="154.5" y="-465" font-family="Helvetica,sans-Serif" font-size="10.00"> DEBUG_REPO</text>
</g>
<!-- Node10&#45;&gt;Node17 -->
<g id="edge21" class="edge">
<title>Node10&#45;&gt;Node17</title>
<path fill="none" stroke="#9a32cd" stroke-dasharray="5,2" d="M53.48,-445.62C63.56,-435.07 77.77,-422.27 93,-415 143.04,-391.1 176.64,-433.07 216,-394 248.36,-361.88 212.78,-333.36 234,-293 249.12,-264.24 278.97,-239.64 296.74,-226.72"/>
<polygon fill="#9a32cd" stroke="#9a32cd" points="50.78,-443.38 46.62,-453.12 55.95,-448.1 50.78,-443.38"/>
<text text-anchor="middle" x="154.5" y="-429" font-family="Helvetica,sans-Serif" font-size="10.00"> preoperSupress</text>
<text text-anchor="middle" x="154.5" y="-418" font-family="Helvetica,sans-Serif" font-size="10.00">toInline</text>
</g>
<!-- Node11 -->
<g id="node11" class="node">
<title>Node11</title>
<g id="a_node11"><a xlink:href="interfaceast_1_1_node.html" target="_top" xlink:title=" ">
<polygon fill="white" stroke="black" points="292,-563.5 292,-582.5 332,-582.5 332,-563.5 292,-563.5"/>
<text text-anchor="middle" x="312" y="-570.5" font-family="Helvetica,sans-Serif" font-size="10.00">Node</text>
</a>
</g>
</g>
<!-- Node11&#45;&gt;Node3 -->
<g id="edge10" class="edge">
<title>Node11&#45;&gt;Node3</title>
<path fill="none" stroke="midnightblue" d="M342.12,-572.36C379.1,-570.09 443.01,-561.07 484,-527 532.98,-486.29 554.31,-407.41 560.49,-379.82"/>
<polygon fill="midnightblue" stroke="midnightblue" points="341.83,-568.88 332.01,-572.86 342.17,-575.87 341.83,-568.88"/>
</g>
<!-- Node12 -->
<g id="node12" class="node">
<title>Node12</title>
<g id="a_node12"><a xlink:href="interfaceformat_1_1_x_formattable.html" target="_top" xlink:title="入れ子フォーマット出力可能なオブジェクトのインタフェース。">
<polygon fill="white" stroke="black" points="0,-529.5 0,-548.5 75,-548.5 75,-529.5 0,-529.5"/>
<text text-anchor="middle" x="37.5" y="-536.5" font-family="Helvetica,sans-Serif" font-size="10.00">XFormattable</text>
</a>
</g>
</g>
<!-- Node12&#45;&gt;Node11 -->
<g id="edge11" class="edge">
<title>Node12&#45;&gt;Node11</title>
<path fill="none" stroke="midnightblue" d="M84.92,-549.6C87.65,-550.11 90.36,-550.58 93,-551 166.06,-562.69 253.94,-569.32 291.95,-571.82"/>
<polygon fill="midnightblue" stroke="midnightblue" points="85.52,-546.15 75.03,-547.66 84.17,-553.02 85.52,-546.15"/>
</g>
<!-- Node13 -->
<g id="node13" class="node">
<title>Node13</title>
<g id="a_node13"><a xlink:href="interfaceformat_1_1_x_formattable_1_1_navigatable.html" target="_top" xlink:title="木構造の分岐ノードとして清書可能なオブジェクトのクラス">
<polygon fill="white" stroke="black" points="247,-525.5 247,-544.5 377,-544.5 377,-525.5 247,-525.5"/>
<text text-anchor="middle" x="312" y="-532.5" font-family="Helvetica,sans-Serif" font-size="10.00">XFormattable.Navigatable</text>
</a>
</g>
</g>
<!-- Node12&#45;&gt;Node13 -->
<g id="edge13" class="edge">
<title>Node12&#45;&gt;Node13</title>
<path fill="none" stroke="midnightblue" d="M85.52,-538.31C130.11,-537.66 197.47,-536.67 246.96,-535.94"/>
<polygon fill="midnightblue" stroke="midnightblue" points="85.2,-534.81 75.25,-538.46 85.3,-541.81 85.2,-534.81"/>
</g>
<!-- Node14 -->
<g id="node14" class="node">
<title>Node14</title>
<g id="a_node14"><a xlink:href="interfaceformat_1_1_x_formattable_1_1_typed_formattable.html" target="_top" xlink:title="ノードの型情報をもつ書式出力可能なオブジェクトのインタフェース．">
<polygon fill="white" stroke="black" points="234,-487.5 234,-506.5 390,-506.5 390,-487.5 234,-487.5"/>
<text text-anchor="middle" x="312" y="-494.5" font-family="Helvetica,sans-Serif" font-size="10.00">XFormattable.TypedFormattable</text>
</a>
</g>
</g>
<!-- Node12&#45;&gt;Node14 -->
<g id="edge15" class="edge">
<title>Node12&#45;&gt;Node14</title>
<path fill="none" stroke="midnightblue" d="M85.39,-531.77C130.7,-524.79 199.6,-514.17 249.33,-506.5"/>
<polygon fill="midnightblue" stroke="midnightblue" points="84.6,-528.35 75.25,-533.34 85.67,-535.27 84.6,-528.35"/>
</g>
<!-- Node13&#45;&gt;Node3 -->
<g id="edge12" class="edge">
<title>Node13&#45;&gt;Node3</title>
<path fill="none" stroke="midnightblue" d="M387.44,-532.36C419.55,-528.1 456.07,-518.77 484,-499 527.87,-467.96 551.82,-403.91 559.62,-379.62"/>
<polygon fill="midnightblue" stroke="midnightblue" points="386.71,-528.93 377.19,-533.58 387.53,-535.88 386.71,-528.93"/>
</g>
<!-- Node14&#45;&gt;Node3 -->
<g id="edge14" class="edge">
<title>Node14&#45;&gt;Node3</title>
<path fill="none" stroke="midnightblue" d="M400.64,-498.3C428.8,-495.4 459.13,-488.54 484,-474 522.86,-451.28 548.74,-401.04 558.34,-379.79"/>
<polygon fill="midnightblue" stroke="midnightblue" points="400.03,-494.84 390.37,-499.2 400.64,-501.81 400.03,-494.84"/>
</g>
<!-- Node15 -->
<g id="node15" class="node">
<title>Node15</title>
<g id="a_node15"><a xlink:title=" ">
<polygon fill="white" stroke="#bfbfbf" points="267,-378.5 267,-397.5 357,-397.5 357,-378.5 267,-378.5"/>
<text text-anchor="middle" x="312" y="-385.5" font-family="Helvetica,sans-Serif" font-size="10.00">List&lt; ast.Node &gt;</text>
</a>
</g>
</g>
<!-- Node15&#45;&gt;Node3 -->
<g id="edge16" class="edge">
<title>Node15&#45;&gt;Node3</title>
<path fill="none" stroke="#9a32cd" stroke-dasharray="5,2" d="M367.1,-384.1C419.16,-380.34 495.72,-374.82 535.8,-371.93"/>
<polygon fill="#9a32cd" stroke="#9a32cd" points="366.75,-380.61 357.03,-384.82 367.26,-387.59 366.75,-380.61"/>
<text text-anchor="middle" x="446" y="-384" font-family="Helvetica,sans-Serif" font-size="10.00"> children</text>
</g>
<!-- Node16 -->
<g id="node16" class="node">
<title>Node16</title>
<g id="a_node16"><a xlink:title=" ">
<polygon fill="white" stroke="#bfbfbf" points="286,-302.5 286,-321.5 338,-321.5 338,-302.5 286,-302.5"/>
<text text-anchor="middle" x="312" y="-309.5" font-family="Helvetica,sans-Serif" font-size="10.00">Boolean</text>
</a>
</g>
</g>
<!-- Node16&#45;&gt;Node3 -->
<g id="edge17" class="edge">
<title>Node16&#45;&gt;Node3</title>
<path fill="none" stroke="#9a32cd" stroke-dasharray="5,2" d="M348.36,-316.42C383.2,-321.2 437.78,-329.8 484,-342 502.89,-346.99 523.68,-354.5 539.12,-360.49"/>
<polygon fill="#9a32cd" stroke="#9a32cd" points="348.58,-312.92 338.21,-315.07 347.65,-319.86 348.58,-312.92"/>
<text text-anchor="middle" x="446" y="-345" font-family="Helvetica,sans-Serif" font-size="10.00"> DEBUG_CHILD</text>
</g>
<!-- Node17&#45;&gt;Node3 -->
<g id="edge18" class="edge">
<title>Node17&#45;&gt;Node3</title>
<path fill="none" stroke="#9a32cd" stroke-dasharray="5,2" d="M340.71,-230.69C375.12,-248.04 435.23,-279.49 484,-311 508.77,-327 535.91,-348.32 550.91,-360.46"/>
<polygon fill="#9a32cd" stroke="#9a32cd" points="342.23,-227.54 331.72,-226.19 339.09,-233.8 342.23,-227.54"/>
<text text-anchor="middle" x="446" y="-314" font-family="Helvetica,sans-Serif" font-size="10.00"> sty</text>
</g>
<!-- Node18 -->
<g id="node18" class="node">
<title>Node18</title>
<g id="a_node18"><a xlink:href="interfacecmd_1_1_generatable_1_1_evaluatable.html" target="_top" xlink:title="評価して値を返すノードのインタフェース．必ずしもコードを生成しなくても良い．">
<polygon fill="white" stroke="black" points="502,-544.5 502,-563.5 625,-563.5 625,-544.5 502,-544.5"/>
<text text-anchor="middle" x="563.5" y="-551.5" font-family="Helvetica,sans-Serif" font-size="10.00">Generatable.Evaluatable</text>
</a>
</g>
</g>
<!-- Node18&#45;&gt;Node2 -->
<g id="edge22" class="edge">
<title>Node18&#45;&gt;Node2</title>
<path fill="none" stroke="midnightblue" d="M583.69,-537.79C612.93,-513.09 667.73,-466.79 691.51,-446.71"/>
<polygon fill="midnightblue" stroke="midnightblue" points="581.21,-535.3 575.83,-544.43 585.73,-540.65 581.21,-535.3"/>
</g>
<!-- Node19 -->
<g id="node19" class="node">
<title>Node19</title>
<g id="a_node19"><a xlink:href="interfacecmd_1_1_generatable.html" target="_top" xlink:title="変換してコードを生成できるノードのインタフェース.">
<polygon fill="white" stroke="black" points="277.5,-601.5 277.5,-620.5 346.5,-620.5 346.5,-601.5 277.5,-601.5"/>
<text text-anchor="middle" x="312" y="-608.5" font-family="Helvetica,sans-Serif" font-size="10.00">Generatable</text>
</a>
</g>
</g>
<!-- Node19&#45;&gt;Node18 -->
<g id="edge23" class="edge">
<title>Node19&#45;&gt;Node18</title>
<path fill="none" stroke="midnightblue" d="M357.09,-605.68C391.89,-600.96 441.49,-593.1 484,-582 502.9,-577.07 523.7,-569.55 539.13,-563.55"/>
<polygon fill="midnightblue" stroke="midnightblue" points="356.24,-602.26 346.79,-607.04 357.16,-609.2 356.24,-602.26"/>
</g>
<!-- Node20 -->
<g id="node20" class="node">
<title>Node20</title>
<g id="a_node20"><a xlink:href="class_data_reader.html" target="_top" xlink:title=" ">
<polygon fill="white" stroke="black" points="669.5,-89.5 669.5,-108.5 738.5,-108.5 738.5,-89.5 669.5,-89.5"/>
<text text-anchor="middle" x="704" y="-96.5" font-family="Helvetica,sans-Serif" font-size="10.00">DataReader</text>
</a>
</g>
</g>
<!-- Node20&#45;&gt;Node1 -->
<g id="edge25" class="edge">
<title>Node20&#45;&gt;Node1</title>
<path fill="none" stroke="midnightblue" d="M748.53,-109.31C772.48,-114.98 801.98,-121.96 825.37,-127.5"/>
<polygon fill="midnightblue" stroke="midnightblue" points="749.18,-105.86 738.65,-106.97 747.57,-112.68 749.18,-105.86"/>
</g>
<!-- Node21&#45;&gt;Node1 -->
<g id="edge26" class="edge">
<title>Node21&#45;&gt;Node1</title>
<path fill="none" stroke="#9a32cd" stroke-dasharray="5,2" d="M730.3,-137C748.27,-137 773.31,-137 796.97,-137"/>
<polygon fill="#9a32cd" stroke="#9a32cd" points="730.1,-133.5 720.1,-137 730.1,-140.5 730.1,-133.5"/>
<text text-anchor="middle" x="771.5" y="-140" font-family="Helvetica,sans-Serif" font-size="10.00"> ref</text>
</g>
<!-- Node22 -->
<g id="node22" class="node">
<title>Node22</title>
<g id="a_node22"><a xlink:href="interfacemachine_1_1_assignable.html" target="_top" xlink:title="変数（チャネルとコンテナの名前）の抽象化">
<polygon fill="white" stroke="black" points="531,-0.5 531,-19.5 596,-19.5 596,-0.5 531,-0.5"/>
<text text-anchor="middle" x="563.5" y="-7.5" font-family="Helvetica,sans-Serif" font-size="10.00">Assignable</text>
</a>
</g>
</g>
<!-- Node22&#45;&gt;Node21 -->
<g id="edge28" class="edge">
<title>Node22&#45;&gt;Node21</title>
<path fill="none" stroke="midnightblue" d="M605.98,-6.12C619.81,-9.09 634.19,-15.25 644,-26 669.45,-53.88 638.41,-79.54 662,-109 669.36,-118.19 682.17,-123.13 691.52,-127.46"/>
<polygon fill="midnightblue" stroke="midnightblue" points="606.5,-2.66 596.07,-4.49 605.37,-9.56 606.5,-2.66"/>
</g>
<!-- Node22&#45;&gt;Node21 -->
<g id="edge30" class="edge">
<title>Node22&#45;&gt;Node21</title>
<path fill="none" stroke="midnightblue" d="M602.57,-22.06C617.41,-26.11 633.38,-32.37 644,-44 669.45,-71.88 638.41,-97.54 662,-127 668.37,-134.96 678.85,-139.74 687.61,-141.33"/>
<polygon fill="midnightblue" stroke="midnightblue" points="603.1,-18.59 592.55,-19.57 601.41,-25.38 603.1,-18.59"/>
</g>
</g>
</svg>
