<?xml version="1.0" encoding="UTF-8" standalone="no"?>
<!DOCTYPE svg PUBLIC "-//W3C//DTD SVG 1.1//EN"
 "http://www.w3.org/Graphics/SVG/1.1/DTD/svg11.dtd">
<!-- Generated by graphviz version 2.47.1 (20210417.1919)
 -->
<!-- Title: emitEventEOF Pages: 1 -->
<svg width="473pt" height="39pt"
 viewBox="0.00 0.00 473.00 39.00" xmlns="http://www.w3.org/2000/svg" xmlns:xlink="http://www.w3.org/1999/xlink">
<g id="graph0" class="graph" transform="scale(1 1) rotate(0) translate(4 35)">
<title>emitEventEOF</title>
<polygon fill="white" stroke="transparent" points="-4,4 -4,-35 469,-35 469,4 -4,4"/>
<!-- Node1 -->
<g id="node1" class="node">
<title>Node1</title>
<g id="a_node1"><a xlink:title="EOFイベントを送出する．">
<polygon fill="#bfbfbf" stroke="black" points="384,-6 384,-25 465,-25 465,-6 384,-6"/>
<text text-anchor="middle" x="424.5" y="-13" font-family="Helvetica,sans-Serif" font-size="10.00">emitEventEOF</text>
</a>
</g>
</g>
<!-- Node2 -->
<g id="node2" class="node">
<title>Node2</title>
<g id="a_node2"><a xlink:href="classevent_1_1asax_1_1_asax_event_reader.html#a1c3e36047f9c1f923a67d3c0b5483d0f" target="_top" xlink:title="次のAsaxイベントを返す．">
<polygon fill="white" stroke="black" points="185,-0.5 185,-30.5 348,-30.5 348,-0.5 185,-0.5"/>
<text text-anchor="start" x="193" y="-18.5" font-family="Helvetica,sans-Serif" font-size="10.00">event.asax.AsaxEventReader.get</text>
<text text-anchor="middle" x="266.5" y="-7.5" font-family="Helvetica,sans-Serif" font-size="10.00">NextEvent</text>
</a>
</g>
</g>
<!-- Node1&#45;&gt;Node2 -->
<g id="edge1" class="edge">
<title>Node1&#45;&gt;Node2</title>
<path fill="none" stroke="midnightblue" d="M373.68,-15.5C365.53,-15.5 356.89,-15.5 348.21,-15.5"/>
<polygon fill="midnightblue" stroke="midnightblue" points="373.73,-19 383.73,-15.5 373.73,-12 373.73,-19"/>
</g>
<!-- Node3 -->
<g id="node3" class="node">
<title>Node3</title>
<g id="a_node3"><a xlink:href="classevent_1_1asax_1_1_asax_event_reader_1_1_asax_event_iterator.html#aface30febb89dafb3fe3ea57f1ca1e3b" target="_top" xlink:title="次の要素であるイベントを返す．終端に達したときはEOS型のイベントを返す．">
<polygon fill="white" stroke="black" points="0,-0.5 0,-30.5 149,-30.5 149,-0.5 0,-0.5"/>
<text text-anchor="start" x="8" y="-18.5" font-family="Helvetica,sans-Serif" font-size="10.00">event.asax.AsaxEventReader.</text>
<text text-anchor="middle" x="74.5" y="-7.5" font-family="Helvetica,sans-Serif" font-size="10.00">AsaxEventIterator.next</text>
</a>
</g>
</g>
<!-- Node2&#45;&gt;Node3 -->
<g id="edge2" class="edge">
<title>Node2&#45;&gt;Node3</title>
<path fill="none" stroke="midnightblue" d="M174.88,-15.5C166.3,-15.5 157.66,-15.5 149.26,-15.5"/>
<polygon fill="midnightblue" stroke="midnightblue" points="174.92,-19 184.92,-15.5 174.92,-12 174.92,-19"/>
</g>
</g>
</svg>
