<?xml version="1.0" encoding="UTF-8" standalone="no"?>
<!DOCTYPE svg PUBLIC "-//W3C//DTD SVG 1.1//EN"
 "http://www.w3.org/Graphics/SVG/1.1/DTD/svg11.dtd">
<!-- Generated by graphviz version 2.47.0 (20210316.0004)
 -->
<!-- Title: CommandBase.CommandRef Pages: 1 -->
<svg width="950pt" height="674pt"
 viewBox="0.00 0.00 950.00 674.06" xmlns="http://www.w3.org/2000/svg" xmlns:xlink="http://www.w3.org/1999/xlink">
<g id="graph0" class="graph" transform="scale(1 1) rotate(0) translate(4 670.06)">
<title>CommandBase.CommandRef</title>
<polygon fill="white" stroke="transparent" points="-4,4 -4,-670.06 946,-670.06 946,4 -4,4"/>
<!-- Node1 -->
<g id="node1" class="node">
<title>Node1</title>
<g id="a_node1"><a xlink:title=" ">
<polygon fill="#bfbfbf" stroke="black" points="794,-321.56 794,-340.56 942,-340.56 942,-321.56 794,-321.56"/>
<text text-anchor="middle" x="868" y="-328.56" font-family="Helvetica,sans-Serif" font-size="10.00">CommandBase.CommandRef</text>
</a>
</g>
</g>
<!-- Node2 -->
<g id="node2" class="node">
<title>Node2</title>
<g id="a_node2"><a xlink:href="classcmd_1_1_command_base.html" target="_top" xlink:title="局所変数環境に値を書き込む式の抽象クラス.">
<polygon fill="white" stroke="black" points="543,-186.56 543,-205.56 627,-205.56 627,-186.56 543,-186.56"/>
<text text-anchor="middle" x="585" y="-193.56" font-family="Helvetica,sans-Serif" font-size="10.00">CommandBase</text>
</a>
</g>
</g>
<!-- Node2&#45;&gt;Node1 -->
<g id="edge1" class="edge">
<title>Node2&#45;&gt;Node1</title>
<path fill="none" stroke="midnightblue" d="M592.75,-215.11C603.34,-241.88 626.61,-289.84 664,-312.06 702.65,-335.02 752.91,-339.87 793.75,-338.94"/>
<polygon fill="midnightblue" stroke="midnightblue" points="596,-213.8 589.2,-205.68 589.45,-216.27 596,-213.8"/>
</g>
<!-- Node3 -->
<g id="node3" class="node">
<title>Node3</title>
<g id="a_node3"><a xlink:href="interfacemachine_1_1_cmd.html" target="_top" xlink:title="仮装命令のインタフェース.">
<polygon fill="white" stroke="black" points="330,-72.56 330,-91.56 368,-91.56 368,-72.56 330,-72.56"/>
<text text-anchor="middle" x="349" y="-79.56" font-family="Helvetica,sans-Serif" font-size="10.00">Cmd</text>
</a>
</g>
</g>
<!-- Node3&#45;&gt;Node2 -->
<g id="edge2" class="edge">
<title>Node3&#45;&gt;Node2</title>
<path fill="none" stroke="midnightblue" d="M378.46,-84.17C414.97,-88.03 479.04,-98.73 525,-128.06 548.98,-143.36 568.68,-171.27 578.07,-186.13"/>
<polygon fill="midnightblue" stroke="midnightblue" points="378.36,-80.65 368.07,-83.18 377.69,-87.62 378.36,-80.65"/>
</g>
<!-- Node4 -->
<g id="node4" class="node">
<title>Node4</title>
<g id="a_node4"><a xlink:href="interfaceformat_1_1_x_formattable_1_1_custom_formattable.html" target="_top" xlink:title="カスタム清書出力器をもつオブジェクトのクラス．">
<polygon fill="white" stroke="black" points="267,-7.56 267,-26.56 431,-26.56 431,-7.56 267,-7.56"/>
<text text-anchor="middle" x="349" y="-14.56" font-family="Helvetica,sans-Serif" font-size="10.00">XFormattable.CustomFormattable</text>
</a>
</g>
</g>
<!-- Node4&#45;&gt;Node2 -->
<g id="edge3" class="edge">
<title>Node4&#45;&gt;Node2</title>
<path fill="none" stroke="midnightblue" d="M398.85,-29.48C436.76,-41.11 488.8,-61.63 525,-94.06 554.87,-120.81 573.58,-166.39 580.72,-186.28"/>
<polygon fill="midnightblue" stroke="midnightblue" points="399.62,-26.06 389.04,-26.58 397.63,-32.77 399.62,-26.06"/>
</g>
<!-- Node5 -->
<g id="node5" class="node">
<title>Node5</title>
<g id="a_node5"><a xlink:href="interfaceformat_1_1_x_formattable.html" target="_top" xlink:title="入れ子フォーマット出力可能なオブジェクトのインタフェース。">
<polygon fill="white" stroke="black" points="16.5,-4.56 16.5,-23.56 91.5,-23.56 91.5,-4.56 16.5,-4.56"/>
<text text-anchor="middle" x="54" y="-11.56" font-family="Helvetica,sans-Serif" font-size="10.00">XFormattable</text>
</a>
</g>
</g>
<!-- Node5&#45;&gt;Node4 -->
<g id="edge4" class="edge">
<title>Node5&#45;&gt;Node4</title>
<path fill="none" stroke="midnightblue" d="M101.75,-5.77C109.81,-4.64 118.13,-3.66 126,-3.06 180.51,1.14 194.47,0.78 249,-3.06 262.51,-4.01 276.97,-5.68 290.56,-7.54"/>
<polygon fill="midnightblue" stroke="midnightblue" points="101.1,-2.33 91.73,-7.27 102.13,-9.25 101.1,-2.33"/>
</g>
<!-- Node18 -->
<g id="node18" class="node">
<title>Node18</title>
<g id="a_node18"><a xlink:href="interfaceformat_1_1_x_formattable_1_1_navigatable.html" target="_top" xlink:title="木構造の分岐ノードとして清書可能なオブジェクトのクラス">
<polygon fill="white" stroke="black" points="284,-110.56 284,-129.56 414,-129.56 414,-110.56 284,-110.56"/>
<text text-anchor="middle" x="349" y="-117.56" font-family="Helvetica,sans-Serif" font-size="10.00">XFormattable.Navigatable</text>
</a>
</g>
</g>
<!-- Node5&#45;&gt;Node18 -->
<g id="edge21" class="edge">
<title>Node5&#45;&gt;Node18</title>
<path fill="none" stroke="midnightblue" d="M101.65,-11.35C151.88,-9.46 227.51,-9.93 249,-28.06 274.55,-49.6 243.24,-77.56 267,-101.06 271.83,-105.83 277.61,-109.49 283.84,-112.29"/>
<polygon fill="midnightblue" stroke="midnightblue" points="101.5,-7.85 91.66,-11.77 101.79,-14.85 101.5,-7.85"/>
</g>
<!-- Node19 -->
<g id="node19" class="node">
<title>Node19</title>
<g id="a_node19"><a xlink:href="interfaceformat_1_1_x_formattable_1_1_typed_formattable.html" target="_top" xlink:title="ノードの型情報をもつ書式出力可能なオブジェクトのインタフェース．">
<polygon fill="white" stroke="black" points="271,-148.56 271,-167.56 427,-167.56 427,-148.56 271,-148.56"/>
<text text-anchor="middle" x="349" y="-155.56" font-family="Helvetica,sans-Serif" font-size="10.00">XFormattable.TypedFormattable</text>
</a>
</g>
</g>
<!-- Node5&#45;&gt;Node19 -->
<g id="edge23" class="edge">
<title>Node5&#45;&gt;Node19</title>
<path fill="none" stroke="midnightblue" d="M101.98,-22.01C156,-31.57 238.61,-47.63 249,-58.06 275.02,-84.19 241.08,-112.83 267,-139.06 270.76,-142.86 275.12,-145.96 279.83,-148.48"/>
<polygon fill="midnightblue" stroke="midnightblue" points="102.37,-18.53 91.92,-20.25 101.16,-25.42 102.37,-18.53"/>
</g>
<!-- Node6 -->
<g id="node6" class="node">
<title>Node6</title>
<g id="a_node6"><a xlink:href="classutil_1_1_report.html" target="_top" xlink:title="標準出力への入れ子出力のためのレポートオブジェクトのクラス.">
<polygon fill="white" stroke="black" points="313.5,-186.56 313.5,-205.56 384.5,-205.56 384.5,-186.56 313.5,-186.56"/>
<text text-anchor="middle" x="349" y="-193.56" font-family="Helvetica,sans-Serif" font-size="10.00">Report&lt; S &gt;</text>
</a>
</g>
</g>
<!-- Node6&#45;&gt;Node2 -->
<g id="edge5" class="edge">
<title>Node6&#45;&gt;Node2</title>
<path fill="none" stroke="#9a32cd" stroke-dasharray="5,2" d="M394.62,-196.06C437.28,-196.06 501.07,-196.06 542.62,-196.06"/>
<polygon fill="#9a32cd" stroke="#9a32cd" points="394.53,-192.56 384.53,-196.06 394.53,-199.56 394.53,-192.56"/>
<text text-anchor="middle" x="487" y="-199.06" font-family="Helvetica,sans-Serif" font-size="10.00"> repo</text>
</g>
<!-- Node7 -->
<g id="node7" class="node">
<title>Node7</title>
<g id="a_node7"><a xlink:title=" ">
<polygon fill="white" stroke="#bfbfbf" points="33,-130.56 33,-149.56 75,-149.56 75,-130.56 33,-130.56"/>
<text text-anchor="middle" x="54" y="-137.56" font-family="Helvetica,sans-Serif" font-size="10.00">String</text>
</a>
</g>
</g>
<!-- Node7&#45;&gt;Node6 -->
<g id="edge6" class="edge">
<title>Node7&#45;&gt;Node6</title>
<path fill="none" stroke="#9a32cd" stroke-dasharray="5,2" d="M78.97,-125.46C118.66,-103.39 198.63,-68.01 249,-107.06 274.39,-126.74 244.04,-154.59 267,-177.06 279.18,-188.98 297.34,-193.95 313.38,-195.84"/>
<polygon fill="#9a32cd" stroke="#9a32cd" points="77.17,-122.46 70.24,-130.47 80.65,-128.53 77.17,-122.46"/>
<text text-anchor="middle" x="187.5" y="-110.06" font-family="Helvetica,sans-Serif" font-size="10.00"> STEMSTR</text>
</g>
<!-- Node13 -->
<g id="node13" class="node">
<title>Node13</title>
<g id="a_node13"><a xlink:href="classast_1_1_ast_node_base.html" target="_top" xlink:title=" ">
<polygon fill="white" stroke="black" points="310.5,-469.56 310.5,-488.56 387.5,-488.56 387.5,-469.56 310.5,-469.56"/>
<text text-anchor="middle" x="349" y="-476.56" font-family="Helvetica,sans-Serif" font-size="10.00">AstNodeBase</text>
</a>
</g>
</g>
<!-- Node7&#45;&gt;Node13 -->
<g id="edge14" class="edge">
<title>Node7&#45;&gt;Node13</title>
<path fill="none" stroke="#9a32cd" stroke-dasharray="5,2" d="M60.77,-159.49C70.14,-188.06 91.22,-241.52 126,-274.06 169.73,-314.96 212.63,-281.49 249,-329.06 280.42,-370.15 235.32,-403.16 267,-444.06 277.6,-457.74 294.63,-466.17 310.34,-471.31"/>
<polygon fill="#9a32cd" stroke="#9a32cd" points="64.08,-158.35 57.74,-149.86 57.4,-160.45 64.08,-158.35"/>
<text text-anchor="middle" x="187.5" y="-343.06" font-family="Helvetica,sans-Serif" font-size="10.00"> MOD_AST</text>
<text text-anchor="middle" x="187.5" y="-332.06" font-family="Helvetica,sans-Serif" font-size="10.00">mod_</text>
</g>
<!-- Node21 -->
<g id="node21" class="node">
<title>Node21</title>
<g id="a_node21"><a xlink:href="classformat_1_1_style.html" target="_top" xlink:title="ノードの表示スタイルに関するプロパティのクラス.">
<polygon fill="white" stroke="black" points="329.5,-369.56 329.5,-388.56 368.5,-388.56 368.5,-369.56 329.5,-369.56"/>
<text text-anchor="middle" x="349" y="-376.56" font-family="Helvetica,sans-Serif" font-size="10.00">Style</text>
</a>
</g>
</g>
<!-- Node7&#45;&gt;Node21 -->
<g id="edge26" class="edge">
<title>Node7&#45;&gt;Node21</title>
<path fill="none" stroke="#9a32cd" stroke-dasharray="5,2" d="M85.15,-134.8C133.65,-127.09 225.89,-115.83 249,-137.06 283.66,-168.89 238.7,-310.46 267,-348.06 281.67,-367.55 310.21,-374.78 329.19,-377.47"/>
<polygon fill="#9a32cd" stroke="#9a32cd" points="84.53,-131.35 75.23,-136.42 85.66,-138.26 84.53,-131.35"/>
<text text-anchor="middle" x="187.5" y="-217.06" font-family="Helvetica,sans-Serif" font-size="10.00"> childLPAD</text>
<text text-anchor="middle" x="187.5" y="-206.06" font-family="Helvetica,sans-Serif" font-size="10.00">childRPAD</text>
<text text-anchor="middle" x="187.5" y="-195.06" font-family="Helvetica,sans-Serif" font-size="10.00">name</text>
<text text-anchor="middle" x="187.5" y="-184.06" font-family="Helvetica,sans-Serif" font-size="10.00">operSTR</text>
<text text-anchor="middle" x="187.5" y="-173.06" font-family="Helvetica,sans-Serif" font-size="10.00">parenLPAD</text>
<text text-anchor="middle" x="187.5" y="-162.06" font-family="Helvetica,sans-Serif" font-size="10.00">parenLPAR</text>
<text text-anchor="middle" x="187.5" y="-151.06" font-family="Helvetica,sans-Serif" font-size="10.00">parenRPAD</text>
<text text-anchor="middle" x="187.5" y="-140.06" font-family="Helvetica,sans-Serif" font-size="10.00">parenRPAR</text>
</g>
<!-- Node8 -->
<g id="node8" class="node">
<title>Node8</title>
<g id="a_node8"><a xlink:href="classutil_1_1_stack_base.html" target="_top" xlink:title=" ">
<polygon fill="white" stroke="black" points="0,-62.56 0,-81.56 108,-81.56 108,-62.56 0,-62.56"/>
<text text-anchor="middle" x="54" y="-69.56" font-family="Helvetica,sans-Serif" font-size="10.00">StackBase&lt; String &gt;</text>
</a>
</g>
</g>
<!-- Node8&#45;&gt;Node6 -->
<g id="edge7" class="edge">
<title>Node8&#45;&gt;Node6</title>
<path fill="none" stroke="#9a32cd" stroke-dasharray="5,2" d="M118.42,-64.65C167.39,-60.43 229.91,-58.79 249,-75.06 284.04,-104.92 235.37,-143.61 267,-177.06 278.81,-189.55 297.14,-194.53 313.38,-196.29"/>
<polygon fill="#9a32cd" stroke="#9a32cd" points="117.84,-61.19 108.2,-65.59 118.48,-68.16 117.84,-61.19"/>
<text text-anchor="middle" x="187.5" y="-78.06" font-family="Helvetica,sans-Serif" font-size="10.00"> NS</text>
</g>
<!-- Node9 -->
<g id="node9" class="node">
<title>Node9</title>
<g id="a_node9"><a xlink:title=" ">
<polygon fill="white" stroke="#bfbfbf" points="29,-340.56 29,-359.56 79,-359.56 79,-340.56 29,-340.56"/>
<text text-anchor="middle" x="54" y="-347.56" font-family="Helvetica,sans-Serif" font-size="10.00">boolean</text>
</a>
</g>
</g>
<!-- Node9&#45;&gt;Node2 -->
<g id="edge9" class="edge">
<title>Node9&#45;&gt;Node2</title>
<path fill="none" stroke="#9a32cd" stroke-dasharray="5,2" d="M89.26,-346.61C128.34,-342.22 193.98,-333.41 249,-319.06 370.7,-287.31 510.04,-228.57 562.52,-205.61"/>
<polygon fill="#9a32cd" stroke="#9a32cd" points="88.76,-343.15 79.2,-347.71 89.52,-350.1 88.76,-343.15"/>
<text text-anchor="middle" x="349" y="-316.06" font-family="Helvetica,sans-Serif" font-size="10.00"> DEBUG_CMD</text>
</g>
<!-- Node9&#45;&gt;Node6 -->
<g id="edge8" class="edge">
<title>Node9&#45;&gt;Node6</title>
<path fill="none" stroke="#9a32cd" stroke-dasharray="5,2" d="M63.28,-331.11C74.2,-308.47 95.67,-271.26 126,-252.06 172.99,-222.31 195.16,-242.99 249,-229.06 274.43,-222.47 302.81,-212.76 322.65,-205.58"/>
<polygon fill="#9a32cd" stroke="#9a32cd" points="60.02,-329.82 59,-340.37 66.37,-332.76 60.02,-329.82"/>
<text text-anchor="middle" x="187.5" y="-266.06" font-family="Helvetica,sans-Serif" font-size="10.00"> DEBUG_POP</text>
<text text-anchor="middle" x="187.5" y="-255.06" font-family="Helvetica,sans-Serif" font-size="10.00">toPrint</text>
</g>
<!-- Node9&#45;&gt;Node13 -->
<g id="edge19" class="edge">
<title>Node9&#45;&gt;Node13</title>
<path fill="none" stroke="#9a32cd" stroke-dasharray="5,2" d="M67.87,-368.16C80.72,-384.89 101.97,-409.19 126,-423.06 157.25,-441.08 255.78,-461.7 310.48,-472.17"/>
<polygon fill="#9a32cd" stroke="#9a32cd" points="70.4,-365.71 61.63,-359.76 64.78,-369.88 70.4,-365.71"/>
<text text-anchor="middle" x="187.5" y="-462.06" font-family="Helvetica,sans-Serif" font-size="10.00"> DEBUG_REPO</text>
</g>
<!-- Node9&#45;&gt;Node21 -->
<g id="edge28" class="edge">
<title>Node9&#45;&gt;Node21</title>
<path fill="none" stroke="#9a32cd" stroke-dasharray="5,2" d="M89.44,-352.73C128.26,-355.82 193.21,-361.23 249,-367.06 277.07,-369.99 309.53,-374.05 329.41,-376.62"/>
<polygon fill="#9a32cd" stroke="#9a32cd" points="89.47,-349.22 79.22,-351.92 88.91,-356.2 89.47,-349.22"/>
<text text-anchor="middle" x="187.5" y="-381.06" font-family="Helvetica,sans-Serif" font-size="10.00"> preoperSupress</text>
<text text-anchor="middle" x="187.5" y="-370.06" font-family="Helvetica,sans-Serif" font-size="10.00">toInline</text>
</g>
<!-- Node10 -->
<g id="node10" class="node">
<title>Node10</title>
<g id="a_node10"><a xlink:href="interfacemachine_1_1_data_accessor.html" target="_top" xlink:title="参照をもつデータ読み書きオブジェクトのインタフェース.">
<polygon fill="white" stroke="black" points="664,-283.56 664,-302.56 743,-302.56 743,-283.56 664,-283.56"/>
<text text-anchor="middle" x="703.5" y="-290.56" font-family="Helvetica,sans-Serif" font-size="10.00">DataAccessor</text>
</a>
</g>
</g>
<!-- Node10&#45;&gt;Node1 -->
<g id="edge10" class="edge">
<title>Node10&#45;&gt;Node1</title>
<path fill="none" stroke="midnightblue" d="M753.05,-304.41C776.37,-309.86 804,-316.33 826.21,-321.52"/>
<polygon fill="midnightblue" stroke="midnightblue" points="753.54,-300.93 743.01,-302.06 751.95,-307.75 753.54,-300.93"/>
</g>
<!-- Node11 -->
<g id="node11" class="node">
<title>Node11</title>
<g id="a_node11"><a xlink:href="classmachine_1_1_ref.html" target="_top" xlink:title="フレーム中の変数参照オブジェクトref = (XType type, int vid)">
<polygon fill="white" stroke="black" points="687.5,-556.56 687.5,-575.56 719.5,-575.56 719.5,-556.56 687.5,-556.56"/>
<text text-anchor="middle" x="703.5" y="-563.56" font-family="Helvetica,sans-Serif" font-size="10.00">Ref</text>
</a>
</g>
</g>
<!-- Node11&#45;&gt;Node1 -->
<g id="edge11" class="edge">
<title>Node11&#45;&gt;Node1</title>
<path fill="none" stroke="#9a32cd" stroke-dasharray="5,2" d="M716.77,-548.31C749.08,-501.59 835.66,-376.38 860.35,-340.68"/>
<polygon fill="#9a32cd" stroke="#9a32cd" points="713.88,-546.34 711.07,-556.55 719.64,-550.32 713.88,-546.34"/>
<text text-anchor="middle" x="768.5" y="-486.06" font-family="Helvetica,sans-Serif" font-size="10.00"> ref</text>
</g>
<!-- Node12 -->
<g id="node12" class="node">
<title>Node12</title>
<g id="a_node12"><a xlink:href="classast_1_1_ast_node.html" target="_top" xlink:title="タグなしの順アクセスの子供をもてる抽象構文木のノードのクラス。">
<polygon fill="white" stroke="black" points="557.5,-398.56 557.5,-417.56 612.5,-417.56 612.5,-398.56 557.5,-398.56"/>
<text text-anchor="middle" x="585" y="-405.56" font-family="Helvetica,sans-Serif" font-size="10.00">AstNode</text>
</a>
</g>
</g>
<!-- Node12&#45;&gt;Node11 -->
<g id="edge12" class="edge">
<title>Node12&#45;&gt;Node11</title>
<path fill="none" stroke="midnightblue" d="M599.5,-426.37C624.25,-459.93 676.09,-530.25 695.22,-556.18"/>
<polygon fill="midnightblue" stroke="midnightblue" points="602.04,-423.91 593.29,-417.94 596.41,-428.07 602.04,-423.91"/>
</g>
<!-- Node13&#45;&gt;Node12 -->
<g id="edge13" class="edge">
<title>Node13&#45;&gt;Node12</title>
<path fill="none" stroke="midnightblue" d="M397.68,-467.95C433.14,-459.28 482.53,-446.34 525,-432.06 537.58,-427.83 551.33,-422.29 562.39,-417.6"/>
<polygon fill="midnightblue" stroke="midnightblue" points="396.51,-464.63 387.61,-470.39 398.15,-471.44 396.51,-464.63"/>
</g>
<!-- Node14 -->
<g id="node14" class="node">
<title>Node14</title>
<g id="a_node14"><a xlink:title=" ">
<polygon fill="white" stroke="#bfbfbf" points="21.5,-503.56 21.5,-522.56 86.5,-522.56 86.5,-503.56 21.5,-503.56"/>
<text text-anchor="middle" x="54" y="-510.56" font-family="Helvetica,sans-Serif" font-size="10.00">TraceLevel</text>
</a>
</g>
</g>
<!-- Node14&#45;&gt;Node13 -->
<g id="edge15" class="edge">
<title>Node14&#45;&gt;Node13</title>
<path fill="none" stroke="#9a32cd" stroke-dasharray="5,2" d="M96.6,-508.43C135.89,-504.05 196.46,-497.22 249,-491.06 269.29,-488.68 291.91,-485.94 310.4,-483.68"/>
<polygon fill="#9a32cd" stroke="#9a32cd" points="96.14,-504.96 86.59,-509.55 96.92,-511.92 96.14,-504.96"/>
<text text-anchor="middle" x="187.5" y="-507.06" font-family="Helvetica,sans-Serif" font-size="10.00"> LOG</text>
</g>
<!-- Node15 -->
<g id="node15" class="node">
<title>Node15</title>
<g id="a_node15"><a xlink:title=" ">
<polygon fill="white" stroke="#bfbfbf" points="17.5,-465.56 17.5,-484.56 90.5,-484.56 90.5,-465.56 17.5,-465.56"/>
<text text-anchor="middle" x="54" y="-472.56" font-family="Helvetica,sans-Serif" font-size="10.00">static Report</text>
</a>
</g>
</g>
<!-- Node15&#45;&gt;Node13 -->
<g id="edge16" class="edge">
<title>Node15&#45;&gt;Node13</title>
<path fill="none" stroke="#9a32cd" stroke-dasharray="5,2" d="M100.93,-475.68C158.68,-476.47 256.73,-477.81 310.3,-478.54"/>
<polygon fill="#9a32cd" stroke="#9a32cd" points="100.68,-472.18 90.63,-475.54 100.59,-479.18 100.68,-472.18"/>
<text text-anchor="middle" x="187.5" y="-480.06" font-family="Helvetica,sans-Serif" font-size="10.00"> repo</text>
</g>
<!-- Node16 -->
<g id="node16" class="node">
<title>Node16</title>
<g id="a_node16"><a xlink:title=" ">
<polygon fill="white" stroke="#bfbfbf" points="39.5,-579.56 39.5,-598.56 68.5,-598.56 68.5,-579.56 39.5,-579.56"/>
<text text-anchor="middle" x="54" y="-586.56" font-family="Helvetica,sans-Serif" font-size="10.00">int</text>
</a>
</g>
</g>
<!-- Node16&#45;&gt;Node11 -->
<g id="edge30" class="edge">
<title>Node16&#45;&gt;Node11</title>
<path fill="none" stroke="#9a32cd" stroke-dasharray="5,2" d="M78.78,-595.38C92.48,-598.69 110.08,-602.39 126,-604.06 180.37,-609.74 194.38,-606.34 249,-604.06 421.48,-596.84 629.9,-574.26 687.26,-567.8"/>
<polygon fill="#9a32cd" stroke="#9a32cd" points="79.29,-591.9 68.74,-592.85 77.59,-598.68 79.29,-591.9"/>
<text text-anchor="middle" x="487" y="-593.06" font-family="Helvetica,sans-Serif" font-size="10.00"> UNDEF</text>
</g>
<!-- Node16&#45;&gt;Node13 -->
<g id="edge17" class="edge">
<title>Node16&#45;&gt;Node13</title>
<path fill="none" stroke="#9a32cd" stroke-dasharray="5,2" d="M78.61,-586.65C123.37,-581.85 218.78,-570.39 249,-557.06 287.04,-540.28 323.15,-505.44 339.24,-488.59"/>
<polygon fill="#9a32cd" stroke="#9a32cd" points="78.22,-583.18 68.64,-587.7 78.95,-590.14 78.22,-583.18"/>
<text text-anchor="middle" x="187.5" y="-594.06" font-family="Helvetica,sans-Serif" font-size="10.00"> BITMASK_PRINT_WIDTH</text>
<text text-anchor="middle" x="187.5" y="-583.06" font-family="Helvetica,sans-Serif" font-size="10.00">UNDEF</text>
</g>
<!-- Node16&#45;&gt;Node21 -->
<g id="edge27" class="edge">
<title>Node16&#45;&gt;Node21</title>
<path fill="none" stroke="#9a32cd" stroke-dasharray="5,2" d="M78.63,-586.27C89.22,-583.77 100.9,-579.03 108,-570.06 152.4,-513.94 76.08,-461.33 126,-410.06 133.11,-402.76 277.26,-386.64 329.39,-381.03"/>
<polygon fill="#9a32cd" stroke="#9a32cd" points="77.82,-582.86 68.61,-588.1 79.08,-589.75 77.82,-582.86"/>
<text text-anchor="middle" x="187.5" y="-413.06" font-family="Helvetica,sans-Serif" font-size="10.00"> pref</text>
</g>
<!-- Node17 -->
<g id="node17" class="node">
<title>Node17</title>
<g id="a_node17"><a xlink:href="interfacetype_1_1_typable.html" target="_top" xlink:title="抽象ノードがもつ関数型のインタフェース">
<polygon fill="white" stroke="black" points="29,-541.56 29,-560.56 79,-560.56 79,-541.56 29,-541.56"/>
<text text-anchor="middle" x="54" y="-548.56" font-family="Helvetica,sans-Serif" font-size="10.00">Typable</text>
</a>
</g>
</g>
<!-- Node17&#45;&gt;Node13 -->
<g id="edge18" class="edge">
<title>Node17&#45;&gt;Node13</title>
<path fill="none" stroke="#9a32cd" stroke-dasharray="5,2" d="M89.34,-547.71C128.51,-543.36 194.21,-534.44 249,-519.06 277.2,-511.14 308.3,-497.76 327.98,-488.67"/>
<polygon fill="#9a32cd" stroke="#9a32cd" points="88.83,-544.24 79.27,-548.79 89.58,-551.2 88.83,-544.24"/>
<text text-anchor="middle" x="187.5" y="-545.06" font-family="Helvetica,sans-Serif" font-size="10.00"> typing</text>
</g>
<!-- Node18&#45;&gt;Node12 -->
<g id="edge20" class="edge">
<title>Node18&#45;&gt;Node12</title>
<path fill="none" stroke="midnightblue" d="M421.75,-132.15C458.21,-142.07 499.99,-159.96 525,-192.06 576.38,-257.98 583.07,-365.53 583.9,-398.28"/>
<polygon fill="midnightblue" stroke="midnightblue" points="422.19,-128.65 411.63,-129.56 420.45,-135.43 422.19,-128.65"/>
</g>
<!-- Node19&#45;&gt;Node12 -->
<g id="edge22" class="edge">
<title>Node19&#45;&gt;Node12</title>
<path fill="none" stroke="midnightblue" d="M423.53,-172.09C426.14,-173.59 428.64,-175.24 431,-177.06 444.54,-187.5 440.15,-196.43 449,-211.06 494.05,-285.57 556.03,-370.4 576.85,-398.48"/>
<polygon fill="midnightblue" stroke="midnightblue" points="424.81,-168.83 414.29,-167.58 421.74,-175.12 424.81,-168.83"/>
</g>
<!-- Node20 -->
<g id="node20" class="node">
<title>Node20</title>
<g id="a_node20"><a xlink:title=" ">
<polygon fill="white" stroke="#bfbfbf" points="323,-415.56 323,-434.56 375,-434.56 375,-415.56 323,-415.56"/>
<text text-anchor="middle" x="349" y="-422.56" font-family="Helvetica,sans-Serif" font-size="10.00">Boolean</text>
</a>
</g>
</g>
<!-- Node20&#45;&gt;Node12 -->
<g id="edge24" class="edge">
<title>Node20&#45;&gt;Node12</title>
<path fill="none" stroke="#9a32cd" stroke-dasharray="5,2" d="M385.09,-422.51C432.24,-419.08 514.98,-413.07 557.35,-409.99"/>
<polygon fill="#9a32cd" stroke="#9a32cd" points="384.76,-419.02 375.04,-423.24 385.27,-426 384.76,-419.02"/>
<text text-anchor="middle" x="487" y="-420.06" font-family="Helvetica,sans-Serif" font-size="10.00"> DEBUG_CHILD</text>
</g>
<!-- Node21&#45;&gt;Node12 -->
<g id="edge25" class="edge">
<title>Node21&#45;&gt;Node12</title>
<path fill="none" stroke="#9a32cd" stroke-dasharray="5,2" d="M379.08,-381.32C413.88,-384.19 473.86,-389.67 525,-397.06 535.62,-398.59 547.25,-400.67 557.35,-402.61"/>
<polygon fill="#9a32cd" stroke="#9a32cd" points="378.96,-377.79 368.71,-380.48 378.39,-384.77 378.96,-377.79"/>
<text text-anchor="middle" x="487" y="-400.06" font-family="Helvetica,sans-Serif" font-size="10.00"> sty</text>
</g>
<!-- Node22 -->
<g id="node22" class="node">
<title>Node22</title>
<g id="a_node22"><a xlink:href="interfacemachine_1_1_assignable.html" target="_top" xlink:title="変数（チャネルとコンテナの名前）の抽象化">
<polygon fill="white" stroke="black" points="552.5,-646.56 552.5,-665.56 617.5,-665.56 617.5,-646.56 552.5,-646.56"/>
<text text-anchor="middle" x="585" y="-653.56" font-family="Helvetica,sans-Serif" font-size="10.00">Assignable</text>
</a>
</g>
</g>
<!-- Node22&#45;&gt;Node11 -->
<g id="edge29" class="edge">
<title>Node22&#45;&gt;Node11</title>
<path fill="none" stroke="midnightblue" d="M627.25,-642.65C633.81,-639.66 640.3,-636.14 646,-632.06 668.07,-616.25 687.04,-590.04 696.35,-575.87"/>
<polygon fill="midnightblue" stroke="midnightblue" points="625.56,-639.56 617.68,-646.65 628.26,-646.02 625.56,-639.56"/>
</g>
</g>
</svg>
