<?xml version="1.0" encoding="UTF-8" standalone="no"?>
<!DOCTYPE svg PUBLIC "-//W3C//DTD SVG 1.1//EN"
 "http://www.w3.org/Graphics/SVG/1.1/DTD/svg11.dtd">
<!-- Generated by graphviz version 2.38.0 (20140413.2041)
 -->
<!-- Title: BasicCharMask Pages: 1 -->
<svg width="241pt" height="102pt"
 viewBox="0.00 0.00 241.07 102.00" xmlns="http://www.w3.org/2000/svg" xmlns:xlink="http://www.w3.org/1999/xlink">
<g id="graph0" class="graph" transform="scale(1 1) rotate(0) translate(4 98)">
<title>BasicCharMask</title>
<polygon fill="white" stroke="none" points="-4,4 -4,-98 237.068,-98 237.068,4 -4,4"/>
<!-- Node1 -->
<g id="node1" class="node"><title>Node1</title>
<g id="a_node1"><a xlink:title="intを値に持つ文字のカテゴリーマスクを作成するための基礎クラス．">
<polygon fill="#bfbfbf" stroke="black" points="64.4507,-0.5 64.4507,-18.5 150.47,-18.5 150.47,-0.5 64.4507,-0.5"/>
<text text-anchor="middle" x="107.46" y="-6.5" font-family="Helvetica,sans-Serif" font-size="10.00">BasicCharMask</text>
</a>
</g>
</g>
<!-- Node2 -->
<g id="node2" class="node"><title>Node2</title>
<g id="a_node2"><a xlink:href="interfaceio_1_1_char_testable.html" target="_top" xlink:title=" ">
<polygon fill="white" stroke="black" points="0,-75.5 0,-93.5 74.9209,-93.5 74.9209,-75.5 0,-75.5"/>
<text text-anchor="middle" x="37.4604" y="-81.5" font-family="Helvetica,sans-Serif" font-size="10.00">CharTestable</text>
</a>
</g>
</g>
<!-- Node2&#45;&gt;Node1 -->
<g id="edge1" class="edge"><title>Node2&#45;&gt;Node1</title>
<path fill="none" stroke="midnightblue" d="M52.4063,-67.9137C66.7971,-52.906 88.0147,-30.7792 99.4519,-18.8518"/>
<polygon fill="midnightblue" stroke="midnightblue" points="49.6141,-65.7685 45.2191,-75.4088 54.6666,-70.6134 49.6141,-65.7685"/>
</g>
<!-- Node3 -->
<g id="node3" class="node"><title>Node3</title>
<g id="a_node3"><a xlink:title=" ">
<polygon fill="white" stroke="#bfbfbf" points="92.9604,-75.5 92.9604,-93.5 121.96,-93.5 121.96,-75.5 92.9604,-75.5"/>
<text text-anchor="middle" x="107.241" y="-81.5" font-family="Helvetica,sans-Serif" font-size="10.00">int</text>
</a>
</g>
</g>
<!-- Node3&#45;&gt;Node1 -->
<g id="edge2" class="edge"><title>Node3&#45;&gt;Node1</title>
<path fill="none" stroke="#9a32cd" stroke-dasharray="5,2" d="M107.46,-65.3494C107.46,-50.479 107.46,-30.1165 107.46,-18.8518"/>
<polygon fill="#9a32cd" stroke="#9a32cd" points="103.961,-65.4088 107.46,-75.4088 110.961,-65.4088 103.961,-65.4088"/>
<text text-anchor="middle" x="136.633" y="-44" font-family="Helvetica,sans-Serif" font-size="10.00"> MAX_CHAR</text>
</g>
<!-- Node4 -->
<g id="node4" class="node"><title>Node4</title>
<g id="a_node4"><a xlink:title=" ">
<polygon fill="white" stroke="#bfbfbf" points="162.665,-75.5 162.665,-93.5 214.256,-93.5 214.256,-75.5 162.665,-75.5"/>
<text text-anchor="middle" x="188.46" y="-81.5" font-family="Helvetica,sans-Serif" font-size="10.00">boolean</text>
</a>
</g>
</g>
<!-- Node4&#45;&gt;Node1 -->
<g id="edge3" class="edge"><title>Node4&#45;&gt;Node1</title>
<path fill="none" stroke="#9a32cd" stroke-dasharray="5,2" d="M183.333,-65.5652C179.861,-56.0795 174.43,-44.8135 166.46,-37 157.961,-28.6672 146.385,-22.6916 135.737,-18.5499"/>
<polygon fill="#9a32cd" stroke="#9a32cd" points="180.053,-66.7957 186.452,-75.2396 186.715,-64.6481 180.053,-66.7957"/>
<text text-anchor="middle" x="206.764" y="-49" font-family="Helvetica,sans-Serif" font-size="10.00"> NEGATIVE</text>
<text text-anchor="middle" x="206.764" y="-39" font-family="Helvetica,sans-Serif" font-size="10.00">POSITIVE</text>
</g>
</g>
</svg>
