<?xml version="1.0" encoding="UTF-8" standalone="no"?>
<!DOCTYPE svg PUBLIC "-//W3C//DTD SVG 1.1//EN"
 "http://www.w3.org/Graphics/SVG/1.1/DTD/svg11.dtd">
<!-- Generated by graphviz version 2.47.1 (20210417.1919)
 -->
<!-- Title: ParseTable Pages: 1 -->
<svg width="209pt" height="95pt"
 viewBox="0.00 0.00 208.50 95.00" xmlns="http://www.w3.org/2000/svg" xmlns:xlink="http://www.w3.org/1999/xlink">
<g id="graph0" class="graph" transform="scale(1 1) rotate(0) translate(4 91)">
<title>ParseTable</title>
<polygon fill="white" stroke="transparent" points="-4,4 -4,-91 204.5,-91 204.5,4 -4,4"/>
<!-- Node1 -->
<g id="node1" class="node">
<title>Node1</title>
<g id="a_node1"><a xlink:title="ノードの型のクラスオブジェクトをキーとし，ノードの再帰の型を値とする表．">
<polygon fill="#bfbfbf" stroke="black" points="74,-0.5 74,-19.5 139,-19.5 139,-0.5 74,-0.5"/>
<text text-anchor="middle" x="106.5" y="-7.5" font-family="Helvetica,sans-Serif" font-size="10.00">ParseTable</text>
</a>
</g>
</g>
<!-- Node2 -->
<g id="node2" class="node">
<title>Node2</title>
<g id="a_node2"><a xlink:title=" ">
<polygon fill="white" stroke="#bfbfbf" points="0,-67.5 0,-86.5 113,-86.5 113,-67.5 0,-67.5"/>
<text text-anchor="middle" x="56.5" y="-74.5" font-family="Helvetica,sans-Serif" font-size="10.00">Map&lt; String, PType &gt;</text>
</a>
</g>
</g>
<!-- Node2&#45;&gt;Node1 -->
<g id="edge1" class="edge">
<title>Node2&#45;&gt;Node1</title>
<path fill="none" stroke="#9a32cd" stroke-dasharray="5,2" d="M69.37,-59.27C79.12,-46.6 92.11,-29.7 99.86,-19.63"/>
<polygon fill="#9a32cd" stroke="#9a32cd" points="66.57,-57.17 63.24,-67.23 72.11,-61.44 66.57,-57.17"/>
<text text-anchor="middle" x="94" y="-41" font-family="Helvetica,sans-Serif" font-size="10.00"> PM</text>
</g>
<!-- Node3 -->
<g id="node3" class="node">
<title>Node3</title>
<g id="a_node3"><a xlink:title=" ">
<polygon fill="white" stroke="#bfbfbf" points="131.5,-67.5 131.5,-86.5 181.5,-86.5 181.5,-67.5 131.5,-67.5"/>
<text text-anchor="middle" x="156.5" y="-74.5" font-family="Helvetica,sans-Serif" font-size="10.00">boolean</text>
</a>
</g>
</g>
<!-- Node3&#45;&gt;Node1 -->
<g id="edge2" class="edge">
<title>Node3&#45;&gt;Node1</title>
<path fill="none" stroke="#9a32cd" stroke-dasharray="5,2" d="M143.63,-59.27C133.88,-46.6 120.89,-29.7 113.14,-19.63"/>
<polygon fill="#9a32cd" stroke="#9a32cd" points="140.89,-61.44 149.76,-67.23 146.43,-57.17 140.89,-61.44"/>
<text text-anchor="middle" x="167" y="-41" font-family="Helvetica,sans-Serif" font-size="10.00"> DEBUG_REG</text>
</g>
</g>
</svg>
