<?xml version="1.0" encoding="UTF-8" standalone="no"?>
<!DOCTYPE svg PUBLIC "-//W3C//DTD SVG 1.1//EN"
 "http://www.w3.org/Graphics/SVG/1.1/DTD/svg11.dtd">
<!-- Generated by graphviz version 2.47.0 (20210316.0004)
 -->
<!-- Title: topIndexOf Pages: 1 -->
<svg width="287pt" height="28pt"
 viewBox="0.00 0.00 287.00 28.00" xmlns="http://www.w3.org/2000/svg" xmlns:xlink="http://www.w3.org/1999/xlink">
<g id="graph0" class="graph" transform="scale(1 1) rotate(0) translate(4 24)">
<title>topIndexOf</title>
<polygon fill="white" stroke="transparent" points="-4,4 -4,-24 283,-24 283,4 -4,4"/>
<!-- Node1 -->
<g id="node1" class="node">
<title>Node1</title>
<g id="a_node1"><a xlink:title="スタックのトップの添え字を返す.">
<polygon fill="#bfbfbf" stroke="black" points="214,-0.5 214,-19.5 279,-19.5 279,-0.5 214,-0.5"/>
<text text-anchor="middle" x="246.5" y="-7.5" font-family="Helvetica,sans-Serif" font-size="10.00">topIndexOf</text>
</a>
</g>
</g>
<!-- Node2 -->
<g id="node2" class="node">
<title>Node2</title>
<g id="a_node2"><a xlink:href="classutil_1_1_stack_base.html#ad9a3b7688dc740b5a9199ca66db2d1a3" target="_top" xlink:title="スタックのトップに値をセットする.">
<polygon fill="white" stroke="black" points="122,-0.5 122,-19.5 178,-19.5 178,-0.5 122,-0.5"/>
<text text-anchor="middle" x="150" y="-7.5" font-family="Helvetica,sans-Serif" font-size="10.00">setToTop</text>
</a>
</g>
</g>
<!-- Node1&#45;&gt;Node2 -->
<g id="edge1" class="edge">
<title>Node1&#45;&gt;Node2</title>
<path fill="none" stroke="midnightblue" d="M203.74,-10C195.03,-10 186.07,-10 178.07,-10"/>
<polygon fill="midnightblue" stroke="midnightblue" points="203.77,-13.5 213.77,-10 203.77,-6.5 203.77,-13.5"/>
</g>
<!-- Node3 -->
<g id="node3" class="node">
<title>Node3</title>
<g id="a_node3"><a xlink:href="classutil_1_1_report.html#af99c57037baac94c5837a696ba33f50b" target="_top" xlink:title="現在の入れ子深さで段差げして，関数名nameの呼び出しと文字列msgを出力する。">
<polygon fill="white" stroke="black" points="0,-0.5 0,-19.5 86,-19.5 86,-0.5 0,-0.5"/>
<text text-anchor="middle" x="43" y="-7.5" font-family="Helvetica,sans-Serif" font-size="10.00">util.Report.enter</text>
</a>
</g>
</g>
<!-- Node2&#45;&gt;Node3 -->
<g id="edge2" class="edge">
<title>Node2&#45;&gt;Node3</title>
<path fill="none" stroke="midnightblue" d="M111.78,-10C103.44,-10 94.55,-10 86.03,-10"/>
<polygon fill="midnightblue" stroke="midnightblue" points="111.96,-13.5 121.96,-10 111.96,-6.5 111.96,-13.5"/>
</g>
</g>
</svg>
