<?xml version="1.0" encoding="UTF-8" standalone="no"?>
<!DOCTYPE svg PUBLIC "-//W3C//DTD SVG 1.1//EN"
 "http://www.w3.org/Graphics/SVG/1.1/DTD/svg11.dtd">
<!-- Generated by graphviz version 2.47.0 (20210316.0004)
 -->
<!-- Title: AstLiteral.StringExpr Pages: 1 -->
<!--zoomable 579 -->
<svg id="main" version="1.1" xmlns="http://www.w3.org/2000/svg" xmlns:xlink="http://www.w3.org/1999/xlink" xml:space="preserve" onload="init(evt)">
<style type="text/css"><![CDATA[
.edge:hover path { stroke: red; }
.edge:hover polygon { stroke: red; fill: red; }
]]></style>
<script type="text/javascript"><![CDATA[
var edges = document.getElementsByTagName('g');
if (edges && edges.length) {
  for (var i=0;i<edges.length;i++) {
    if (edges[i].id.substr(0,4)=='edge') {
      edges[i].setAttribute('class','edge');
    }
  }
}
]]></script>
        <defs>
                <circle id="rim" cx="0" cy="0" r="7"/>
                <circle id="rim2" cx="0" cy="0" r="3.5"/>
                <g id="zoomPlus">
                        <use xlink:href="#rim" fill="#404040">
                                <set attributeName="fill" to="#808080" begin="zoomplus.mouseover" end="zoomplus.mouseout"/>
                        </use>
                        <path d="M-4,0h8M0,-4v8" fill="none" stroke="white" stroke-width="1.5" pointer-events="none"/>
                </g>
                <g id="zoomMin">
                        <use xlink:href="#rim" fill="#404040">
                                <set attributeName="fill" to="#808080" begin="zoomminus.mouseover" end="zoomminus.mouseout"/>
                        </use>
                        <path d="M-4,0h8" fill="none" stroke="white" stroke-width="1.5" pointer-events="none"/>
                </g>
                <g id="dirArrow">
                        <path fill="none" stroke="white" stroke-width="1.5" d="M0,-3.0v7 M-2.5,-0.5L0,-3.0L2.5,-0.5"/>
                </g>
               <g id="resetDef">
                       <use xlink:href="#rim2" fill="#404040">
                               <set attributeName="fill" to="#808080" begin="reset.mouseover" end="reset.mouseout"/>
                       </use>
               </g>
        </defs>

<script type="text/javascript">
var viewWidth = 872;
var viewHeight = 579;
var sectionId = 'dynsection-1';
</script>
<script xlink:href="svgpan.js"/>
<svg id="graph" class="graph">
<g id="viewport">
<title>AstLiteral.StringExpr</title>
<polygon fill="white" stroke="transparent" points="-4,4 -4,-574.8 868,-574.8 868,4 -4,4"/>
<!-- Node1 -->
<g id="node1" class="node">
<title>Node1</title>
<g id="a_node1"><a xlink:title="String値アトム">
<polygon fill="#bfbfbf" stroke="black" points="757,-350.5 757,-369.5 864,-369.5 864,-350.5 757,-350.5"/>
<text text-anchor="middle" x="810.5" y="-357.5" font-family="Helvetica,sans-Serif" font-size="10.00">AstLiteral.StringExpr</text>
</a>
</g>
</g>
<!-- Node2 -->
<g id="node2" class="node">
<title>Node2</title>
<g id="a_node2"><a xlink:href="classast_1_1_ast_literal.html" target="_top" xlink:title="値を返すことができる終端オブジェクトのクラス">
<polygon fill="white" stroke="black" points="662,-134.5 662,-153.5 720,-153.5 720,-134.5 662,-134.5"/>
<text text-anchor="middle" x="691" y="-141.5" font-family="Helvetica,sans-Serif" font-size="10.00">AstLiteral</text>
</a>
</g>
</g>
<!-- Node2&#45;&gt;Node1 -->
<g id="edge1" class="edge">
<title>Node2&#45;&gt;Node1</title>
<path fill="none" stroke="midnightblue" d="M702.12,-162.61C726.12,-206.71 785.81,-316.45 804.09,-350.06"/>
<polygon fill="midnightblue" stroke="midnightblue" points="705.05,-160.67 697.2,-153.56 698.9,-164.02 705.05,-160.67"/>
</g>
<!-- Node3 -->
<g id="node3" class="node">
<title>Node3</title>
<g id="a_node3"><a xlink:href="classast_1_1_ast_node.html" target="_top" xlink:title="タグなしの順アクセスの子供をもてる抽象構文木のノードのクラス。">
<polygon fill="white" stroke="black" points="536,-134.5 536,-153.5 591,-153.5 591,-134.5 536,-134.5"/>
<text text-anchor="middle" x="563.5" y="-141.5" font-family="Helvetica,sans-Serif" font-size="10.00">AstNode</text>
</a>
</g>
</g>
<!-- Node3&#45;&gt;Node2 -->
<g id="edge2" class="edge">
<title>Node3&#45;&gt;Node2</title>
<path fill="none" stroke="midnightblue" d="M601.35,-144C620.62,-144 643.84,-144 661.68,-144"/>
<polygon fill="midnightblue" stroke="midnightblue" points="601.12,-140.5 591.12,-144 601.12,-147.5 601.12,-140.5"/>
</g>
<!-- Node4 -->
<g id="node4" class="node">
<title>Node4</title>
<g id="a_node4"><a xlink:href="classast_1_1_ast_node_base.html" target="_top" xlink:title=" ">
<polygon fill="white" stroke="black" points="273.5,-208.5 273.5,-227.5 350.5,-227.5 350.5,-208.5 273.5,-208.5"/>
<text text-anchor="middle" x="312" y="-215.5" font-family="Helvetica,sans-Serif" font-size="10.00">AstNodeBase</text>
</a>
</g>
</g>
<!-- Node4&#45;&gt;Node3 -->
<g id="edge3" class="edge">
<title>Node4&#45;&gt;Node3</title>
<path fill="none" stroke="midnightblue" d="M354.94,-205.56C406.51,-190.26 492.53,-164.75 535.85,-151.91"/>
<polygon fill="midnightblue" stroke="midnightblue" points="353.7,-202.28 345.11,-208.48 355.69,-208.99 353.7,-202.28"/>
</g>
<!-- Node5 -->
<g id="node5" class="node">
<title>Node5</title>
<g id="a_node5"><a xlink:title=" ">
<polygon fill="white" stroke="#bfbfbf" points="16.5,-445.5 16.5,-464.5 58.5,-464.5 58.5,-445.5 16.5,-445.5"/>
<text text-anchor="middle" x="37.5" y="-452.5" font-family="Helvetica,sans-Serif" font-size="10.00">String</text>
</a>
</g>
</g>
<!-- Node5&#45;&gt;Node1 -->
<g id="edge23" class="edge">
<title>Node5&#45;&gt;Node1</title>
<path fill="none" stroke="#9a32cd" stroke-dasharray="5,2" d="M44.31,-474.19C51.83,-495.33 67.12,-528.39 93,-544 176.14,-594.14 213.91,-558 311,-558 311,-558 311,-558 692,-558 780.74,-558 803.93,-409.1 808.53,-369.55"/>
<polygon fill="#9a32cd" stroke="#9a32cd" points="47.62,-473.04 41.16,-464.64 40.97,-475.24 47.62,-473.04"/>
<text text-anchor="middle" x="563.5" y="-561" font-family="Helvetica,sans-Serif" font-size="10.00"> sval</text>
</g>
<!-- Node5&#45;&gt;Node4 -->
<g id="edge4" class="edge">
<title>Node5&#45;&gt;Node4</title>
<path fill="none" stroke="#9a32cd" stroke-dasharray="5,2" d="M53.74,-438.13C63.93,-427.79 78.15,-415.03 93,-407 142.89,-380.01 175.55,-412.76 216,-373 236.16,-353.19 220.78,-336.99 234,-312 252.25,-277.5 284.34,-243.78 300.73,-227.72"/>
<polygon fill="#9a32cd" stroke="#9a32cd" points="51.13,-435.79 46.79,-445.46 56.21,-440.61 51.13,-435.79"/>
<text text-anchor="middle" x="154.5" y="-421" font-family="Helvetica,sans-Serif" font-size="10.00"> MOD_AST</text>
<text text-anchor="middle" x="154.5" y="-410" font-family="Helvetica,sans-Serif" font-size="10.00">mod_</text>
</g>
<!-- Node16 -->
<g id="node16" class="node">
<title>Node16</title>
<g id="a_node16"><a xlink:href="classformat_1_1_style.html" target="_top" xlink:title="ノードの表示スタイルに関するプロパティのクラス.">
<polygon fill="white" stroke="black" points="292.5,-321.5 292.5,-340.5 331.5,-340.5 331.5,-321.5 292.5,-321.5"/>
<text text-anchor="middle" x="312" y="-328.5" font-family="Helvetica,sans-Serif" font-size="10.00">Style</text>
</a>
</g>
</g>
<!-- Node5&#45;&gt;Node16 -->
<g id="edge18" class="edge">
<title>Node5&#45;&gt;Node16</title>
<path fill="none" stroke="#9a32cd" stroke-dasharray="5,2" d="M68.78,-453.73C112.54,-451.49 190.96,-445.78 216,-433 258.89,-411.1 292.5,-361.61 305.35,-340.66"/>
<polygon fill="#9a32cd" stroke="#9a32cd" points="68.53,-450.24 58.71,-454.22 68.87,-457.23 68.53,-450.24"/>
<text text-anchor="middle" x="154.5" y="-532" font-family="Helvetica,sans-Serif" font-size="10.00"> childLPAD</text>
<text text-anchor="middle" x="154.5" y="-521" font-family="Helvetica,sans-Serif" font-size="10.00">childRPAD</text>
<text text-anchor="middle" x="154.5" y="-510" font-family="Helvetica,sans-Serif" font-size="10.00">name</text>
<text text-anchor="middle" x="154.5" y="-499" font-family="Helvetica,sans-Serif" font-size="10.00">operSTR</text>
<text text-anchor="middle" x="154.5" y="-488" font-family="Helvetica,sans-Serif" font-size="10.00">parenLPAD</text>
<text text-anchor="middle" x="154.5" y="-477" font-family="Helvetica,sans-Serif" font-size="10.00">parenLPAR</text>
<text text-anchor="middle" x="154.5" y="-466" font-family="Helvetica,sans-Serif" font-size="10.00">parenRPAD</text>
<text text-anchor="middle" x="154.5" y="-455" font-family="Helvetica,sans-Serif" font-size="10.00">parenRPAR</text>
</g>
<!-- Node6 -->
<g id="node6" class="node">
<title>Node6</title>
<g id="a_node6"><a xlink:title=" ">
<polygon fill="white" stroke="#bfbfbf" points="5,-212.5 5,-231.5 70,-231.5 70,-212.5 5,-212.5"/>
<text text-anchor="middle" x="37.5" y="-219.5" font-family="Helvetica,sans-Serif" font-size="10.00">TraceLevel</text>
</a>
</g>
</g>
<!-- Node6&#45;&gt;Node4 -->
<g id="edge5" class="edge">
<title>Node6&#45;&gt;Node4</title>
<path fill="none" stroke="#9a32cd" stroke-dasharray="5,2" d="M80.19,-219.49C84.51,-219.29 88.84,-219.12 93,-219 156.18,-217.12 229.7,-217.27 273.18,-217.6"/>
<polygon fill="#9a32cd" stroke="#9a32cd" points="80,-215.99 70.19,-219.99 80.35,-222.99 80,-215.99"/>
<text text-anchor="middle" x="154.5" y="-222" font-family="Helvetica,sans-Serif" font-size="10.00"> LOG</text>
</g>
<!-- Node7 -->
<g id="node7" class="node">
<title>Node7</title>
<g id="a_node7"><a xlink:title=" ">
<polygon fill="white" stroke="#bfbfbf" points="1,-174.5 1,-193.5 74,-193.5 74,-174.5 1,-174.5"/>
<text text-anchor="middle" x="37.5" y="-181.5" font-family="Helvetica,sans-Serif" font-size="10.00">static Report</text>
</a>
</g>
</g>
<!-- Node7&#45;&gt;Node4 -->
<g id="edge6" class="edge">
<title>Node7&#45;&gt;Node4</title>
<path fill="none" stroke="#9a32cd" stroke-dasharray="5,2" d="M84.44,-187.82C120.34,-191.01 171.44,-195.99 216,-202 234.9,-204.55 255.8,-208 273.18,-211.04"/>
<polygon fill="#9a32cd" stroke="#9a32cd" points="84.55,-184.32 74.28,-186.93 83.94,-191.29 84.55,-184.32"/>
<text text-anchor="middle" x="154.5" y="-205" font-family="Helvetica,sans-Serif" font-size="10.00"> repo</text>
</g>
<!-- Node8 -->
<g id="node8" class="node">
<title>Node8</title>
<g id="a_node8"><a xlink:title=" ">
<polygon fill="white" stroke="#bfbfbf" points="23,-344.5 23,-363.5 52,-363.5 52,-344.5 23,-344.5"/>
<text text-anchor="middle" x="37.5" y="-351.5" font-family="Helvetica,sans-Serif" font-size="10.00">int</text>
</a>
</g>
</g>
<!-- Node8&#45;&gt;Node4 -->
<g id="edge7" class="edge">
<title>Node8&#45;&gt;Node4</title>
<path fill="none" stroke="#9a32cd" stroke-dasharray="5,2" d="M61.24,-341.32C70.79,-336.49 82.18,-331.34 93,-328 145.86,-311.7 166.4,-333.49 216,-309 255.93,-289.29 290.15,-246.81 304.19,-227.68"/>
<polygon fill="#9a32cd" stroke="#9a32cd" points="59.61,-338.23 52.38,-345.98 62.86,-344.42 59.61,-338.23"/>
<text text-anchor="middle" x="154.5" y="-342" font-family="Helvetica,sans-Serif" font-size="10.00"> BITMASK_PRINT_WIDTH</text>
<text text-anchor="middle" x="154.5" y="-331" font-family="Helvetica,sans-Serif" font-size="10.00">UNDEF</text>
</g>
<!-- Node8&#45;&gt;Node16 -->
<g id="edge19" class="edge">
<title>Node8&#45;&gt;Node16</title>
<path fill="none" stroke="#9a32cd" stroke-dasharray="5,2" d="M62.79,-355.81C97.08,-357.96 161.57,-360.5 216,-354 242.96,-350.78 273.33,-342.6 292.32,-336.92"/>
<polygon fill="#9a32cd" stroke="#9a32cd" points="62.59,-352.29 52.38,-355.11 62.12,-359.28 62.59,-352.29"/>
<text text-anchor="middle" x="154.5" y="-361" font-family="Helvetica,sans-Serif" font-size="10.00"> pref</text>
</g>
<!-- Node9 -->
<g id="node9" class="node">
<title>Node9</title>
<g id="a_node9"><a xlink:href="interfacetype_1_1_typable.html" target="_top" xlink:title="抽象ノードがもつ関数型のインタフェース">
<polygon fill="white" stroke="black" points="12.5,-136.5 12.5,-155.5 62.5,-155.5 62.5,-136.5 12.5,-136.5"/>
<text text-anchor="middle" x="37.5" y="-143.5" font-family="Helvetica,sans-Serif" font-size="10.00">Typable</text>
</a>
</g>
</g>
<!-- Node9&#45;&gt;Node4 -->
<g id="edge8" class="edge">
<title>Node9&#45;&gt;Node4</title>
<path fill="none" stroke="#9a32cd" stroke-dasharray="5,2" d="M72.57,-148.22C108.8,-151.27 167.44,-158.15 216,-173 219.88,-174.19 264.29,-195.48 291,-208.34"/>
<polygon fill="#9a32cd" stroke="#9a32cd" points="72.78,-144.73 62.53,-147.43 72.23,-151.71 72.78,-144.73"/>
<text text-anchor="middle" x="154.5" y="-176" font-family="Helvetica,sans-Serif" font-size="10.00"> typing</text>
</g>
<!-- Node10 -->
<g id="node10" class="node">
<title>Node10</title>
<g id="a_node10"><a xlink:title=" ">
<polygon fill="white" stroke="#bfbfbf" points="12.5,-263.5 12.5,-282.5 62.5,-282.5 62.5,-263.5 12.5,-263.5"/>
<text text-anchor="middle" x="37.5" y="-270.5" font-family="Helvetica,sans-Serif" font-size="10.00">boolean</text>
</a>
</g>
</g>
<!-- Node10&#45;&gt;Node4 -->
<g id="edge9" class="edge">
<title>Node10&#45;&gt;Node4</title>
<path fill="none" stroke="#9a32cd" stroke-dasharray="5,2" d="M70.96,-259.93C78.13,-257.37 85.76,-254.89 93,-253 126.29,-244.31 220.07,-230.6 273.15,-223.18"/>
<polygon fill="#9a32cd" stroke="#9a32cd" points="69.68,-256.67 61.52,-263.43 72.12,-263.23 69.68,-256.67"/>
<text text-anchor="middle" x="154.5" y="-256" font-family="Helvetica,sans-Serif" font-size="10.00"> DEBUG_REPO</text>
</g>
<!-- Node10&#45;&gt;Node16 -->
<g id="edge20" class="edge">
<title>Node10&#45;&gt;Node16</title>
<path fill="none" stroke="#9a32cd" stroke-dasharray="5,2" d="M72.82,-272.14C109.01,-272.06 167.42,-274.27 216,-287 245.19,-294.65 276.47,-310.88 294.85,-321.34"/>
<polygon fill="#9a32cd" stroke="#9a32cd" points="72.75,-268.64 62.78,-272.23 72.81,-275.64 72.75,-268.64"/>
<text text-anchor="middle" x="154.5" y="-301" font-family="Helvetica,sans-Serif" font-size="10.00"> preoperSupress</text>
<text text-anchor="middle" x="154.5" y="-290" font-family="Helvetica,sans-Serif" font-size="10.00">toInline</text>
</g>
<!-- Node11 -->
<g id="node11" class="node">
<title>Node11</title>
<g id="a_node11"><a xlink:href="interfaceast_1_1_node.html" target="_top" xlink:title=" ">
<polygon fill="white" stroke="black" points="292,-76.5 292,-95.5 332,-95.5 332,-76.5 292,-76.5"/>
<text text-anchor="middle" x="312" y="-83.5" font-family="Helvetica,sans-Serif" font-size="10.00">Node</text>
</a>
</g>
</g>
<!-- Node11&#45;&gt;Node3 -->
<g id="edge10" class="edge">
<title>Node11&#45;&gt;Node3</title>
<path fill="none" stroke="midnightblue" d="M342.09,-92.76C390.95,-104.12 488.78,-126.86 535.91,-137.82"/>
<polygon fill="midnightblue" stroke="midnightblue" points="342.7,-89.31 332.16,-90.45 341.11,-96.13 342.7,-89.31"/>
</g>
<!-- Node12 -->
<g id="node12" class="node">
<title>Node12</title>
<g id="a_node12"><a xlink:href="interfaceformat_1_1_x_formattable.html" target="_top" xlink:title="入れ子フォーマット出力可能なオブジェクトのインタフェース。">
<polygon fill="white" stroke="black" points="0,-82.5 0,-101.5 75,-101.5 75,-82.5 0,-82.5"/>
<text text-anchor="middle" x="37.5" y="-89.5" font-family="Helvetica,sans-Serif" font-size="10.00">XFormattable</text>
</a>
</g>
</g>
<!-- Node12&#45;&gt;Node11 -->
<g id="edge11" class="edge">
<title>Node12&#45;&gt;Node11</title>
<path fill="none" stroke="midnightblue" d="M85.31,-81.93C87.9,-81.57 90.48,-81.25 93,-81 166.27,-73.68 254.04,-80.37 291.99,-84.01"/>
<polygon fill="midnightblue" stroke="midnightblue" points="84.61,-78.5 75.29,-83.54 85.72,-85.41 84.61,-78.5"/>
</g>
<!-- Node13 -->
<g id="node13" class="node">
<title>Node13</title>
<g id="a_node13"><a xlink:href="interfaceformat_1_1_x_formattable_1_1_navigatable.html" target="_top" xlink:title="木構造の分岐ノードとして清書可能なオブジェクトのクラス">
<polygon fill="white" stroke="black" points="247,-152.5 247,-171.5 377,-171.5 377,-152.5 247,-152.5"/>
<text text-anchor="middle" x="312" y="-159.5" font-family="Helvetica,sans-Serif" font-size="10.00">XFormattable.Navigatable</text>
</a>
</g>
</g>
<!-- Node12&#45;&gt;Node13 -->
<g id="edge13" class="edge">
<title>Node12&#45;&gt;Node13</title>
<path fill="none" stroke="midnightblue" d="M85.33,-101.84C135.84,-112.52 209.92,-128.42 216,-131 224.85,-134.76 225.2,-139.12 234,-143 242.57,-146.77 252.02,-149.88 261.28,-152.42"/>
<polygon fill="midnightblue" stroke="midnightblue" points="85.76,-98.35 75.25,-99.71 84.31,-105.2 85.76,-98.35"/>
</g>
<!-- Node14 -->
<g id="node14" class="node">
<title>Node14</title>
<g id="a_node14"><a xlink:href="interfaceformat_1_1_x_formattable_1_1_typed_formattable.html" target="_top" xlink:title="ノードの型情報をもつ書式出力可能なオブジェクトのインタフェース．">
<polygon fill="white" stroke="black" points="234,-114.5 234,-133.5 390,-133.5 390,-114.5 234,-114.5"/>
<text text-anchor="middle" x="312" y="-121.5" font-family="Helvetica,sans-Serif" font-size="10.00">XFormattable.TypedFormattable</text>
</a>
</g>
</g>
<!-- Node12&#45;&gt;Node14 -->
<g id="edge15" class="edge">
<title>Node12&#45;&gt;Node14</title>
<path fill="none" stroke="midnightblue" d="M85.51,-94.31C121.37,-96.42 171.94,-100.11 216,-106 232.47,-108.2 250.41,-111.39 266.22,-114.48"/>
<polygon fill="midnightblue" stroke="midnightblue" points="85.52,-90.81 75.34,-93.74 85.12,-97.8 85.52,-90.81"/>
</g>
<!-- Node13&#45;&gt;Node3 -->
<g id="edge12" class="edge">
<title>Node13&#45;&gt;Node3</title>
<path fill="none" stroke="midnightblue" d="M387.4,-156.63C437.48,-153.02 500.56,-148.47 535.7,-145.93"/>
<polygon fill="midnightblue" stroke="midnightblue" points="386.97,-153.15 377.25,-157.36 387.48,-160.14 386.97,-153.15"/>
</g>
<!-- Node14&#45;&gt;Node3 -->
<g id="edge14" class="edge">
<title>Node14&#45;&gt;Node3</title>
<path fill="none" stroke="midnightblue" d="M400.27,-131C447.94,-134.82 503.66,-139.28 535.83,-141.86"/>
<polygon fill="midnightblue" stroke="midnightblue" points="400.48,-127.5 390.23,-130.19 399.92,-134.48 400.48,-127.5"/>
</g>
<!-- Node15 -->
<g id="node15" class="node">
<title>Node15</title>
<g id="a_node15"><a xlink:title=" ">
<polygon fill="white" stroke="#bfbfbf" points="286,-38.5 286,-57.5 338,-57.5 338,-38.5 286,-38.5"/>
<text text-anchor="middle" x="312" y="-45.5" font-family="Helvetica,sans-Serif" font-size="10.00">Boolean</text>
</a>
</g>
</g>
<!-- Node15&#45;&gt;Node3 -->
<g id="edge16" class="edge">
<title>Node15&#45;&gt;Node3</title>
<path fill="none" stroke="#9a32cd" stroke-dasharray="5,2" d="M348.09,-53.71C383.48,-60.27 439.16,-72.81 484,-93 509.19,-104.34 535.54,-123.11 550.4,-134.44"/>
<polygon fill="#9a32cd" stroke="#9a32cd" points="348.69,-50.26 338.23,-51.94 347.45,-57.15 348.69,-50.26"/>
<text text-anchor="middle" x="446" y="-96" font-family="Helvetica,sans-Serif" font-size="10.00"> DEBUG_CHILD</text>
</g>
<!-- Node16&#45;&gt;Node3 -->
<g id="edge17" class="edge">
<title>Node16&#45;&gt;Node3</title>
<path fill="none" stroke="#9a32cd" stroke-dasharray="5,2" d="M333.87,-315.35C383.9,-277.86 509.47,-183.75 549.81,-153.51"/>
<polygon fill="#9a32cd" stroke="#9a32cd" points="331.62,-312.67 325.72,-321.47 335.82,-318.27 331.62,-312.67"/>
<text text-anchor="middle" x="446" y="-262" font-family="Helvetica,sans-Serif" font-size="10.00"> sty</text>
</g>
<!-- Node17 -->
<g id="node17" class="node">
<title>Node17</title>
<g id="a_node17"><a xlink:href="interfacecmd_1_1_generatable_1_1_evaluatable.html" target="_top" xlink:title="評価して値を返すノードのインタフェース．必ずしもコードを生成しなくても良い．">
<polygon fill="white" stroke="black" points="502,-39.5 502,-58.5 625,-58.5 625,-39.5 502,-39.5"/>
<text text-anchor="middle" x="563.5" y="-46.5" font-family="Helvetica,sans-Serif" font-size="10.00">Generatable.Evaluatable</text>
</a>
</g>
</g>
<!-- Node17&#45;&gt;Node2 -->
<g id="edge21" class="edge">
<title>Node17&#45;&gt;Node2</title>
<path fill="none" stroke="midnightblue" d="M585.62,-64.99C611.85,-84.84 655.76,-118.08 677.3,-134.39"/>
<polygon fill="midnightblue" stroke="midnightblue" points="587.54,-62.05 577.46,-58.81 583.32,-67.64 587.54,-62.05"/>
</g>
<!-- Node18 -->
<g id="node18" class="node">
<title>Node18</title>
<g id="a_node18"><a xlink:href="interfacecmd_1_1_generatable.html" target="_top" xlink:title="変換してコードを生成できるノードのインタフェース.">
<polygon fill="white" stroke="black" points="277.5,-0.5 277.5,-19.5 346.5,-19.5 346.5,-0.5 277.5,-0.5"/>
<text text-anchor="middle" x="312" y="-7.5" font-family="Helvetica,sans-Serif" font-size="10.00">Generatable</text>
</a>
</g>
</g>
<!-- Node18&#45;&gt;Node17 -->
<g id="edge22" class="edge">
<title>Node18&#45;&gt;Node17</title>
<path fill="none" stroke="midnightblue" d="M356.97,-11.79C391.7,-13.77 441.27,-17.82 484,-26 501.16,-29.28 519.95,-34.72 534.84,-39.49"/>
<polygon fill="midnightblue" stroke="midnightblue" points="356.86,-8.28 346.69,-11.25 356.49,-15.27 356.86,-8.28"/>
</g>
</g>
</svg>
        <g id="navigator" transform="translate(0 0)" fill="#404254">
                <rect fill="#f2f5e9" fill-opacity="0.5" stroke="#606060" stroke-width=".5" x="0" y="0" width="60" height="60"/>
                <use id="zoomplus" xlink:href="#zoomPlus" x="17" y="9" onmousedown="handleZoom(evt,'in')"/>
                <use id="zoomminus" xlink:href="#zoomMin" x="42" y="9" onmousedown="handleZoom(evt,'out')"/>
                <use id="reset" xlink:href="#resetDef" x="30" y="36" onmousedown="handleReset()"/>
                <g id="arrowUp" xlink:href="#dirArrow" transform="translate(30 24)" onmousedown="handlePan(0,-1)">
                  <use xlink:href="#rim" fill="#404040">
                        <set attributeName="fill" to="#808080" begin="arrowUp.mouseover" end="arrowUp.mouseout"/>
                  </use>
                  <path fill="none" stroke="white" stroke-width="1.5" d="M0,-3.0v7 M-2.5,-0.5L0,-3.0L2.5,-0.5"/>
                </g>
                <g id="arrowRight" xlink:href="#dirArrow" transform="rotate(90) translate(36 -43)" onmousedown="handlePan(1,0)">
                  <use xlink:href="#rim" fill="#404040">
                        <set attributeName="fill" to="#808080" begin="arrowRight.mouseover" end="arrowRight.mouseout"/>
                  </use>
                  <path fill="none" stroke="white" stroke-width="1.5" d="M0,-3.0v7 M-2.5,-0.5L0,-3.0L2.5,-0.5"/>
                </g>
                <g id="arrowDown" xlink:href="#dirArrow" transform="rotate(180) translate(-30 -48)" onmousedown="handlePan(0,1)">
                  <use xlink:href="#rim" fill="#404040">
                        <set attributeName="fill" to="#808080" begin="arrowDown.mouseover" end="arrowDown.mouseout"/>
                  </use>
                  <path fill="none" stroke="white" stroke-width="1.5" d="M0,-3.0v7 M-2.5,-0.5L0,-3.0L2.5,-0.5"/>
                </g>
                <g id="arrowLeft" xlink:href="#dirArrow" transform="rotate(270) translate(-36 17)" onmousedown="handlePan(-1,0)">
                  <use xlink:href="#rim" fill="#404040">
                        <set attributeName="fill" to="#808080" begin="arrowLeft.mouseover" end="arrowLeft.mouseout"/>
                  </use>
                  <path fill="none" stroke="white" stroke-width="1.5" d="M0,-3.0v7 M-2.5,-0.5L0,-3.0L2.5,-0.5"/>
                </g>
        </g>
        <svg viewBox="0 0 15 15" width="100%" height="30px" preserveAspectRatio="xMaxYMin meet">
         <g id="arrow_out" transform="scale(0.3 0.3)">
          <a xlink:href="classast_1_1_ast_literal_1_1_string_expr__coll__graph_org.svg" target="_base">
           <rect id="button" ry="5" rx="5" y="6" x="6" height="38" width="38"
                fill="#f2f5e9" fill-opacity="0.5" stroke="#606060" stroke-width="1.0"/>
           <path id="arrow"
             d="M 11.500037,31.436501 C 11.940474,20.09759 22.043105,11.32322 32.158766,21.979434 L 37.068811,17.246167 C 37.068811,17.246167 37.088388,32 37.088388,32 L 22.160133,31.978069 C 22.160133,31.978069 26.997745,27.140456 26.997745,27.140456 C 18.528582,18.264221 13.291696,25.230495 11.500037,31.436501 z"
             style="fill:#404040;"/>
          </a>
         </g>
        </svg>
</svg>
