<?xml version="1.0" encoding="UTF-8" standalone="no"?>
<!DOCTYPE svg PUBLIC "-//W3C//DTD SVG 1.1//EN"
 "http://www.w3.org/Graphics/SVG/1.1/DTD/svg11.dtd">
<!-- Generated by graphviz version 2.47.0 (20210316.0004)
 -->
<!-- Title: AstLiteral.BooleanLiteral Pages: 1 -->
<svg width="907pt" height="363pt"
 viewBox="0.00 0.00 907.00 363.00" xmlns="http://www.w3.org/2000/svg" xmlns:xlink="http://www.w3.org/1999/xlink">
<g id="graph0" class="graph" transform="scale(1 1) rotate(0) translate(4 359)">
<title>AstLiteral.BooleanLiteral</title>
<polygon fill="white" stroke="transparent" points="-4,4 -4,-359 903,-359 903,4 -4,4"/>
<!-- Node1 -->
<g id="node1" class="node">
<title>Node1</title>
<g id="a_node1"><a xlink:title="ダミーの生成子．このクラス自身は直接生成されない．部分クラスからのみ生成される">
<polygon fill="#bfbfbf" stroke="black" points="495,-0.5 495,-19.5 617,-19.5 617,-0.5 495,-0.5"/>
<text text-anchor="middle" x="556" y="-7.5" font-family="Helvetica,sans-Serif" font-size="10.00">AstLiteral.BooleanLiteral</text>
</a>
</g>
</g>
<!-- Node2 -->
<g id="node2" class="node">
<title>Node2</title>
<g id="a_node2"><a xlink:href="classast_1_1_ast_literal.html" target="_top" xlink:title="値を返すことができる終端オブジェクトのクラス">
<polygon fill="white" stroke="black" points="460,-57.5 460,-76.5 518,-76.5 518,-57.5 460,-57.5"/>
<text text-anchor="middle" x="489" y="-64.5" font-family="Helvetica,sans-Serif" font-size="10.00">AstLiteral</text>
</a>
</g>
</g>
<!-- Node2&#45;&gt;Node1 -->
<g id="edge1" class="edge">
<title>Node2&#45;&gt;Node1</title>
<path fill="none" stroke="midnightblue" d="M507.27,-51C519.5,-40.96 535.16,-28.1 545.38,-19.71"/>
<polygon fill="midnightblue" stroke="midnightblue" points="504.98,-48.36 499.47,-57.41 509.42,-53.77 504.98,-48.36"/>
</g>
<!-- Node3 -->
<g id="node3" class="node">
<title>Node3</title>
<g id="a_node3"><a xlink:href="classast_1_1_ast_node.html" target="_top" xlink:title="タグなしの順アクセスの子供をもてる抽象構文木のノードのクラス。">
<polygon fill="white" stroke="black" points="305.5,-124.5 305.5,-143.5 360.5,-143.5 360.5,-124.5 305.5,-124.5"/>
<text text-anchor="middle" x="333" y="-131.5" font-family="Helvetica,sans-Serif" font-size="10.00">AstNode</text>
</a>
</g>
</g>
<!-- Node3&#45;&gt;Node2 -->
<g id="edge2" class="edge">
<title>Node3&#45;&gt;Node2</title>
<path fill="none" stroke="midnightblue" d="M363.12,-120.45C394.01,-107.58 441.23,-87.9 468.2,-76.67"/>
<polygon fill="midnightblue" stroke="midnightblue" points="361.6,-117.29 353.72,-124.37 364.29,-123.75 361.6,-117.29"/>
</g>
<!-- Node4 -->
<g id="node4" class="node">
<title>Node4</title>
<g id="a_node4"><a xlink:href="classast_1_1_ast_node_base.html" target="_top" xlink:title=" ">
<polygon fill="white" stroke="black" points="392.5,-191.5 392.5,-210.5 469.5,-210.5 469.5,-191.5 392.5,-191.5"/>
<text text-anchor="middle" x="431" y="-198.5" font-family="Helvetica,sans-Serif" font-size="10.00">AstNodeBase</text>
</a>
</g>
</g>
<!-- Node4&#45;&gt;Node3 -->
<g id="edge3" class="edge">
<title>Node4&#45;&gt;Node3</title>
<path fill="none" stroke="midnightblue" d="M409.28,-185.59C389.89,-172.74 362.14,-154.33 346.01,-143.63"/>
<polygon fill="midnightblue" stroke="midnightblue" points="407.52,-188.62 417.78,-191.23 411.38,-182.79 407.52,-188.62"/>
</g>
<!-- Node5 -->
<g id="node5" class="node">
<title>Node5</title>
<g id="a_node5"><a xlink:title=" ">
<polygon fill="white" stroke="#bfbfbf" points="516,-335.5 516,-354.5 558,-354.5 558,-335.5 516,-335.5"/>
<text text-anchor="middle" x="537" y="-342.5" font-family="Helvetica,sans-Serif" font-size="10.00">String</text>
</a>
</g>
</g>
<!-- Node5&#45;&gt;Node4 -->
<g id="edge4" class="edge">
<title>Node5&#45;&gt;Node4</title>
<path fill="none" stroke="#9a32cd" stroke-dasharray="5,2" d="M505.7,-342.42C468.97,-339.82 411.38,-333.23 398,-317 373.12,-286.82 381.25,-264.34 398,-229 401.61,-221.37 408.55,-215.19 415.14,-210.67"/>
<polygon fill="#9a32cd" stroke="#9a32cd" points="505.7,-345.92 515.9,-343.07 506.14,-338.94 505.7,-345.92"/>
<text text-anchor="middle" x="424" y="-276" font-family="Helvetica,sans-Serif" font-size="10.00"> MOD_AST</text>
<text text-anchor="middle" x="424" y="-265" font-family="Helvetica,sans-Serif" font-size="10.00">mod_</text>
</g>
<!-- Node15 -->
<g id="node15" class="node">
<title>Node15</title>
<g id="a_node15"><a xlink:href="classformat_1_1_style.html" target="_top" xlink:title="ノードの表示スタイルに関するプロパティのクラス.">
<polygon fill="white" stroke="black" points="543.5,-191.5 543.5,-210.5 582.5,-210.5 582.5,-191.5 543.5,-191.5"/>
<text text-anchor="middle" x="563" y="-198.5" font-family="Helvetica,sans-Serif" font-size="10.00">Style</text>
</a>
</g>
</g>
<!-- Node5&#45;&gt;Node15 -->
<g id="edge16" class="edge">
<title>Node5&#45;&gt;Node15</title>
<path fill="none" stroke="#9a32cd" stroke-dasharray="5,2" d="M567.97,-337.19C578.72,-333.18 589.66,-326.87 596,-317 617.13,-284.09 612.75,-264.34 596,-229 592.39,-221.37 585.45,-215.19 578.86,-210.67"/>
<polygon fill="#9a32cd" stroke="#9a32cd" points="566.75,-333.9 558.28,-340.26 568.87,-340.57 566.75,-333.9"/>
<text text-anchor="middle" x="636" y="-309" font-family="Helvetica,sans-Serif" font-size="10.00"> childLPAD</text>
<text text-anchor="middle" x="636" y="-298" font-family="Helvetica,sans-Serif" font-size="10.00">childRPAD</text>
<text text-anchor="middle" x="636" y="-287" font-family="Helvetica,sans-Serif" font-size="10.00">name</text>
<text text-anchor="middle" x="636" y="-276" font-family="Helvetica,sans-Serif" font-size="10.00">operSTR</text>
<text text-anchor="middle" x="636" y="-265" font-family="Helvetica,sans-Serif" font-size="10.00">parenLPAD</text>
<text text-anchor="middle" x="636" y="-254" font-family="Helvetica,sans-Serif" font-size="10.00">parenLPAR</text>
<text text-anchor="middle" x="636" y="-243" font-family="Helvetica,sans-Serif" font-size="10.00">parenRPAD</text>
<text text-anchor="middle" x="636" y="-232" font-family="Helvetica,sans-Serif" font-size="10.00">parenRPAR</text>
</g>
<!-- Node6 -->
<g id="node6" class="node">
<title>Node6</title>
<g id="a_node6"><a xlink:title=" ">
<polygon fill="white" stroke="#bfbfbf" points="190.5,-335.5 190.5,-354.5 255.5,-354.5 255.5,-335.5 190.5,-335.5"/>
<text text-anchor="middle" x="223" y="-342.5" font-family="Helvetica,sans-Serif" font-size="10.00">TraceLevel</text>
</a>
</g>
</g>
<!-- Node6&#45;&gt;Node4 -->
<g id="edge5" class="edge">
<title>Node6&#45;&gt;Node4</title>
<path fill="none" stroke="#9a32cd" stroke-dasharray="5,2" d="M223.44,-325.44C225.12,-299.57 232.26,-253.16 261,-229 281.98,-211.36 355.97,-215.53 383,-211 386.01,-210.5 389.12,-209.96 392.25,-209.4"/>
<polygon fill="#9a32cd" stroke="#9a32cd" points="219.94,-325.28 223,-335.43 226.93,-325.59 219.94,-325.28"/>
<text text-anchor="middle" x="273" y="-270.5" font-family="Helvetica,sans-Serif" font-size="10.00"> LOG</text>
</g>
<!-- Node7 -->
<g id="node7" class="node">
<title>Node7</title>
<g id="a_node7"><a xlink:title=" ">
<polygon fill="white" stroke="#bfbfbf" points="342.5,-335.5 342.5,-354.5 415.5,-354.5 415.5,-335.5 342.5,-335.5"/>
<text text-anchor="middle" x="379" y="-342.5" font-family="Helvetica,sans-Serif" font-size="10.00">static Report</text>
</a>
</g>
</g>
<!-- Node7&#45;&gt;Node4 -->
<g id="edge6" class="edge">
<title>Node7&#45;&gt;Node4</title>
<path fill="none" stroke="#9a32cd" stroke-dasharray="5,2" d="M360.14,-328.27C357.23,-324.88 354.64,-321.07 353,-317 338.37,-280.73 330.31,-260.86 353,-229 358.07,-221.88 376.02,-215.41 393.43,-210.6"/>
<polygon fill="#9a32cd" stroke="#9a32cd" points="357.7,-330.78 367.26,-335.37 362.65,-325.83 357.7,-330.78"/>
<text text-anchor="middle" x="364" y="-270.5" font-family="Helvetica,sans-Serif" font-size="10.00"> repo</text>
</g>
<!-- Node8 -->
<g id="node8" class="node">
<title>Node8</title>
<g id="a_node8"><a xlink:title=" ">
<polygon fill="white" stroke="#bfbfbf" points="649.5,-335.5 649.5,-354.5 678.5,-354.5 678.5,-335.5 649.5,-335.5"/>
<text text-anchor="middle" x="664" y="-342.5" font-family="Helvetica,sans-Serif" font-size="10.00">int</text>
</a>
</g>
</g>
<!-- Node8&#45;&gt;Node4 -->
<g id="edge7" class="edge">
<title>Node8&#45;&gt;Node4</title>
<path fill="none" stroke="#9a32cd" stroke-dasharray="5,2" d="M639.08,-341.31C587.9,-335.69 475.19,-322.74 469,-317 439.67,-289.79 466.06,-265.65 450,-229 447.15,-222.49 442.6,-215.95 438.67,-210.94"/>
<polygon fill="#9a32cd" stroke="#9a32cd" points="638.97,-344.82 649.29,-342.43 639.73,-337.86 638.97,-344.82"/>
<text text-anchor="middle" x="530.5" y="-276" font-family="Helvetica,sans-Serif" font-size="10.00"> BITMASK_PRINT_WIDTH</text>
<text text-anchor="middle" x="530.5" y="-265" font-family="Helvetica,sans-Serif" font-size="10.00">UNDEF</text>
</g>
<!-- Node8&#45;&gt;Node15 -->
<g id="edge17" class="edge">
<title>Node8&#45;&gt;Node15</title>
<path fill="none" stroke="#9a32cd" stroke-dasharray="5,2" d="M670.72,-325.77C678.54,-301.04 687.82,-256.76 666,-229 645.08,-202.39 624.62,-220.02 592,-211 588.95,-210.16 585.74,-209.21 582.61,-208.27"/>
<polygon fill="#9a32cd" stroke="#9a32cd" points="667.36,-324.76 667.44,-335.35 673.99,-327.02 667.36,-324.76"/>
<text text-anchor="middle" x="689" y="-270.5" font-family="Helvetica,sans-Serif" font-size="10.00"> pref</text>
</g>
<!-- Node9 -->
<g id="node9" class="node">
<title>Node9</title>
<g id="a_node9"><a xlink:href="interfacetype_1_1_typable.html" target="_top" xlink:title="抽象ノードがもつ関数型のインタフェース">
<polygon fill="white" stroke="black" points="274,-335.5 274,-354.5 324,-354.5 324,-335.5 274,-335.5"/>
<text text-anchor="middle" x="299" y="-342.5" font-family="Helvetica,sans-Serif" font-size="10.00">Typable</text>
</a>
</g>
</g>
<!-- Node9&#45;&gt;Node4 -->
<g id="edge8" class="edge">
<title>Node9&#45;&gt;Node4</title>
<path fill="none" stroke="#9a32cd" stroke-dasharray="5,2" d="M293.79,-325.53C287.95,-300.51 282.07,-255.9 305,-229 306.46,-227.29 355.92,-217.05 392.43,-209.69"/>
<polygon fill="#9a32cd" stroke="#9a32cd" points="290.4,-326.41 296.28,-335.23 297.18,-324.67 290.4,-326.41"/>
<text text-anchor="middle" x="320" y="-270.5" font-family="Helvetica,sans-Serif" font-size="10.00"> typing</text>
</g>
<!-- Node10 -->
<g id="node10" class="node">
<title>Node10</title>
<g id="a_node10"><a xlink:title=" ">
<polygon fill="white" stroke="#bfbfbf" points="740,-335.5 740,-354.5 790,-354.5 790,-335.5 740,-335.5"/>
<text text-anchor="middle" x="765" y="-342.5" font-family="Helvetica,sans-Serif" font-size="10.00">boolean</text>
</a>
</g>
</g>
<!-- Node10&#45;&gt;Node4 -->
<g id="edge9" class="edge">
<title>Node10&#45;&gt;Node4</title>
<path fill="none" stroke="#9a32cd" stroke-dasharray="5,2" d="M743.62,-328.79C739.7,-325.26 735.92,-321.28 733,-317 709.69,-282.88 735.37,-254.68 703,-229 700.73,-227.2 544.1,-212.48 469.59,-205.56"/>
<polygon fill="#9a32cd" stroke="#9a32cd" points="741.7,-331.74 751.67,-335.33 746.12,-326.31 741.7,-331.74"/>
<text text-anchor="middle" x="769.5" y="-270.5" font-family="Helvetica,sans-Serif" font-size="10.00"> DEBUG_REPO</text>
</g>
<!-- Node10&#45;&gt;Node15 -->
<g id="edge18" class="edge">
<title>Node10&#45;&gt;Node15</title>
<path fill="none" stroke="#9a32cd" stroke-dasharray="5,2" d="M797.53,-330.21C802.53,-326.64 807.01,-322.28 810,-317 829.27,-282.97 836.49,-257.77 810,-229 793.54,-211.12 615.86,-215.63 592,-211 588.89,-210.4 585.65,-209.58 582.51,-208.69"/>
<polygon fill="#9a32cd" stroke="#9a32cd" points="795.57,-327.3 788.82,-335.47 799.19,-333.3 795.57,-327.3"/>
<text text-anchor="middle" x="863" y="-276" font-family="Helvetica,sans-Serif" font-size="10.00"> preoperSupress</text>
<text text-anchor="middle" x="863" y="-265" font-family="Helvetica,sans-Serif" font-size="10.00">toInline</text>
</g>
<!-- Node11 -->
<g id="node11" class="node">
<title>Node11</title>
<g id="a_node11"><a xlink:href="interfaceformat_1_1_x_formattable_1_1_navigatable.html" target="_top" xlink:title="木構造の分岐ノードとして清書可能なオブジェクトのクラス">
<polygon fill="white" stroke="black" points="70,-191.5 70,-210.5 200,-210.5 200,-191.5 70,-191.5"/>
<text text-anchor="middle" x="135" y="-198.5" font-family="Helvetica,sans-Serif" font-size="10.00">XFormattable.Navigatable</text>
</a>
</g>
</g>
<!-- Node11&#45;&gt;Node3 -->
<g id="edge10" class="edge">
<title>Node11&#45;&gt;Node3</title>
<path fill="none" stroke="midnightblue" d="M183,-189.12C201.03,-184.65 221.61,-179.09 240,-173 266.16,-164.34 295.45,-151.89 314.05,-143.63"/>
<polygon fill="midnightblue" stroke="midnightblue" points="182.16,-185.72 173.27,-191.49 183.81,-192.52 182.16,-185.72"/>
</g>
<!-- Node12 -->
<g id="node12" class="node">
<title>Node12</title>
<g id="a_node12"><a xlink:href="interfaceformat_1_1_x_formattable.html" target="_top" xlink:title="入れ子フォーマット出力可能なオブジェクトのインタフェース。">
<polygon fill="white" stroke="black" points="97.5,-335.5 97.5,-354.5 172.5,-354.5 172.5,-335.5 97.5,-335.5"/>
<text text-anchor="middle" x="135" y="-342.5" font-family="Helvetica,sans-Serif" font-size="10.00">XFormattable</text>
</a>
</g>
</g>
<!-- Node12&#45;&gt;Node11 -->
<g id="edge11" class="edge">
<title>Node12&#45;&gt;Node11</title>
<path fill="none" stroke="midnightblue" d="M135,-325.11C135,-293.93 135,-232.93 135,-210.52"/>
<polygon fill="midnightblue" stroke="midnightblue" points="131.5,-325.12 135,-335.12 138.5,-325.12 131.5,-325.12"/>
</g>
<!-- Node13 -->
<g id="node13" class="node">
<title>Node13</title>
<g id="a_node13"><a xlink:href="interfaceformat_1_1_x_formattable_1_1_typed_formattable.html" target="_top" xlink:title="ノードの型情報をもつ書式出力可能なオブジェクトのインタフェース．">
<polygon fill="white" stroke="black" points="218,-191.5 218,-210.5 374,-210.5 374,-191.5 218,-191.5"/>
<text text-anchor="middle" x="296" y="-198.5" font-family="Helvetica,sans-Serif" font-size="10.00">XFormattable.TypedFormattable</text>
</a>
</g>
</g>
<!-- Node12&#45;&gt;Node13 -->
<g id="edge13" class="edge">
<title>Node12&#45;&gt;Node13</title>
<path fill="none" stroke="midnightblue" d="M144.29,-326.15C160.35,-295.55 192.4,-235.72 201,-229 211.94,-220.45 225.47,-214.6 238.86,-210.61"/>
<polygon fill="midnightblue" stroke="midnightblue" points="141.04,-324.8 139.51,-335.28 147.25,-328.04 141.04,-324.8"/>
</g>
<!-- Node13&#45;&gt;Node3 -->
<g id="edge12" class="edge">
<title>Node13&#45;&gt;Node3</title>
<path fill="none" stroke="midnightblue" d="M305.94,-182.53C313.11,-169.95 322.47,-153.51 328.09,-143.63"/>
<polygon fill="midnightblue" stroke="midnightblue" points="302.9,-180.81 300.99,-191.23 308.98,-184.27 302.9,-180.81"/>
</g>
<!-- Node14 -->
<g id="node14" class="node">
<title>Node14</title>
<g id="a_node14"><a xlink:title=" ">
<polygon fill="white" stroke="#bfbfbf" points="0,-191.5 0,-210.5 52,-210.5 52,-191.5 0,-191.5"/>
<text text-anchor="middle" x="26" y="-198.5" font-family="Helvetica,sans-Serif" font-size="10.00">Boolean</text>
</a>
</g>
</g>
<!-- Node14&#45;&gt;Node1 -->
<g id="edge23" class="edge">
<title>Node14&#45;&gt;Node1</title>
<path fill="none" stroke="#9a32cd" stroke-dasharray="5,2" d="M54.32,-187.45C71.94,-179.79 95.15,-169.97 116,-162 270.65,-102.89 459.77,-41.62 528.98,-19.55"/>
<polygon fill="#9a32cd" stroke="#9a32cd" points="52.92,-184.25 45.16,-191.46 55.72,-190.66 52.92,-184.25"/>
<text text-anchor="middle" x="312" y="-98" font-family="Helvetica,sans-Serif" font-size="10.00"> bval</text>
</g>
<!-- Node14&#45;&gt;Node3 -->
<g id="edge14" class="edge">
<title>Node14&#45;&gt;Node3</title>
<path fill="none" stroke="#9a32cd" stroke-dasharray="5,2" d="M62.17,-188.45C88.96,-180.21 126.49,-169.34 160,-162 210.78,-150.88 270.91,-142.57 305.24,-138.28"/>
<polygon fill="#9a32cd" stroke="#9a32cd" points="60.97,-185.16 52.45,-191.47 63.04,-191.85 60.97,-185.16"/>
<text text-anchor="middle" x="198" y="-165" font-family="Helvetica,sans-Serif" font-size="10.00"> DEBUG_CHILD</text>
</g>
<!-- Node15&#45;&gt;Node3 -->
<g id="edge15" class="edge">
<title>Node15&#45;&gt;Node3</title>
<path fill="none" stroke="#9a32cd" stroke-dasharray="5,2" d="M533.71,-191.72C489,-179.09 404.32,-155.16 360.63,-142.81"/>
<polygon fill="#9a32cd" stroke="#9a32cd" points="532.82,-195.11 543.39,-194.46 534.72,-188.37 532.82,-195.11"/>
<text text-anchor="middle" x="470.5" y="-165" font-family="Helvetica,sans-Serif" font-size="10.00"> sty</text>
</g>
<!-- Node16 -->
<g id="node16" class="node">
<title>Node16</title>
<g id="a_node16"><a xlink:href="interfacecmd_1_1_generatable_1_1_evaluatable.html" target="_top" xlink:title="評価して値を返すノードのインタフェース．必ずしもコードを生成しなくても良い．">
<polygon fill="white" stroke="black" points="427.5,-124.5 427.5,-143.5 550.5,-143.5 550.5,-124.5 427.5,-124.5"/>
<text text-anchor="middle" x="489" y="-131.5" font-family="Helvetica,sans-Serif" font-size="10.00">Generatable.Evaluatable</text>
</a>
</g>
</g>
<!-- Node16&#45;&gt;Node2 -->
<g id="edge19" class="edge">
<title>Node16&#45;&gt;Node2</title>
<path fill="none" stroke="midnightblue" d="M489,-114.04C489,-101.67 489,-86.12 489,-76.63"/>
<polygon fill="midnightblue" stroke="midnightblue" points="485.5,-114.23 489,-124.23 492.5,-114.23 485.5,-114.23"/>
</g>
<!-- Node17 -->
<g id="node17" class="node">
<title>Node17</title>
<g id="a_node17"><a xlink:href="interfacecmd_1_1_generatable.html" target="_top" xlink:title="変換してコードを生成できるノードのインタフェース.">
<polygon fill="white" stroke="black" points="600.5,-191.5 600.5,-210.5 669.5,-210.5 669.5,-191.5 600.5,-191.5"/>
<text text-anchor="middle" x="635" y="-198.5" font-family="Helvetica,sans-Serif" font-size="10.00">Generatable</text>
</a>
</g>
</g>
<!-- Node17&#45;&gt;Node1 -->
<g id="edge22" class="edge">
<title>Node17&#45;&gt;Node1</title>
<path fill="none" stroke="midnightblue" d="M627.44,-181.91C610.84,-142.19 571.71,-48.58 559.62,-19.66"/>
<polygon fill="midnightblue" stroke="midnightblue" points="624.31,-183.51 631.4,-191.39 630.77,-180.81 624.31,-183.51"/>
</g>
<!-- Node17&#45;&gt;Node16 -->
<g id="edge20" class="edge">
<title>Node17&#45;&gt;Node16</title>
<path fill="none" stroke="midnightblue" d="M601.7,-187.9C590,-183.45 576.82,-178.22 565,-173 543.95,-163.7 520.33,-151.63 505.09,-143.61"/>
<polygon fill="midnightblue" stroke="midnightblue" points="600.52,-191.2 611.12,-191.43 602.98,-184.64 600.52,-191.2"/>
</g>
<!-- Node18 -->
<g id="node18" class="node">
<title>Node18</title>
<g id="a_node18"><a xlink:href="class_typed_formattable.html" target="_top" xlink:title=" ">
<polygon fill="white" stroke="black" points="607.5,-57.5 607.5,-76.5 702.5,-76.5 702.5,-57.5 607.5,-57.5"/>
<text text-anchor="middle" x="655" y="-64.5" font-family="Helvetica,sans-Serif" font-size="10.00">TypedFormattable</text>
</a>
</g>
</g>
<!-- Node18&#45;&gt;Node1 -->
<g id="edge21" class="edge">
<title>Node18&#45;&gt;Node1</title>
<path fill="none" stroke="midnightblue" d="M630.76,-52.54C612.23,-42.24 587.23,-28.35 571.36,-19.53"/>
<polygon fill="midnightblue" stroke="midnightblue" points="629.09,-55.61 639.53,-57.41 632.49,-49.49 629.09,-55.61"/>
</g>
</g>
</svg>
