<?xml version="1.0" encoding="UTF-8" standalone="no"?>
<!DOCTYPE svg PUBLIC "-//W3C//DTD SVG 1.1//EN"
 "http://www.w3.org/Graphics/SVG/1.1/DTD/svg11.dtd">
<!-- Generated by graphviz version 2.47.0 (20210316.0004)
 -->
<!-- Title: StepRule Pages: 1 -->
<svg width="1404pt" height="1000pt"
 viewBox="0.00 0.00 1404.00 1000.48" xmlns="http://www.w3.org/2000/svg" xmlns:xlink="http://www.w3.org/1999/xlink">
<g id="graph0" class="graph" transform="scale(1 1) rotate(0) translate(4 996.48)">
<title>StepRule</title>
<polygon fill="white" stroke="transparent" points="-4,4 -4,-996.48 1400,-996.48 1400,4 -4,4"/>
<!-- Node1 -->
<g id="node1" class="node">
<title>Node1</title>
<g id="a_node1"><a xlink:title="XMで実行可能（Steppaoble）な計算単位であるルールを表すオブジェクト.">
<polygon fill="#bfbfbf" stroke="black" points="1339,-76.98 1339,-95.98 1396,-95.98 1396,-76.98 1339,-76.98"/>
<text text-anchor="middle" x="1367.5" y="-83.98" font-family="Helvetica,sans-Serif" font-size="10.00">StepRule</text>
</a>
</g>
</g>
<!-- Node2 -->
<g id="node2" class="node">
<title>Node2</title>
<g id="a_node2"><a xlink:href="classast_1_1_step.html" target="_top" xlink:title="抽象構文木のステップ式のクラス.">
<polygon fill="white" stroke="black" points="1265,-352.98 1265,-371.98 1302,-371.98 1302,-352.98 1265,-352.98"/>
<text text-anchor="middle" x="1283.5" y="-359.98" font-family="Helvetica,sans-Serif" font-size="10.00">Step</text>
</a>
</g>
</g>
<!-- Node2&#45;&gt;Node1 -->
<g id="edge1" class="edge">
<title>Node2&#45;&gt;Node1</title>
<path fill="none" stroke="midnightblue" d="M1290.21,-343.25C1306.32,-289.03 1351.69,-136.33 1363.6,-96.23"/>
<polygon fill="midnightblue" stroke="midnightblue" points="1286.82,-342.4 1287.32,-352.98 1293.53,-344.39 1286.82,-342.4"/>
</g>
<!-- Node3 -->
<g id="node3" class="node">
<title>Node3</title>
<g id="a_node3"><a xlink:href="classast_1_1_block_base.html" target="_top" xlink:title="抽象構文木のステップ式のクラス.">
<polygon fill="white" stroke="black" points="1083.5,-352.98 1083.5,-371.98 1147.5,-371.98 1147.5,-352.98 1083.5,-352.98"/>
<text text-anchor="middle" x="1115.5" y="-359.98" font-family="Helvetica,sans-Serif" font-size="10.00">BlockBase</text>
</a>
</g>
</g>
<!-- Node3&#45;&gt;Node2 -->
<g id="edge2" class="edge">
<title>Node3&#45;&gt;Node2</title>
<path fill="none" stroke="midnightblue" d="M1157.93,-362.48C1192.27,-362.48 1239.41,-362.48 1264.72,-362.48"/>
<polygon fill="midnightblue" stroke="midnightblue" points="1157.72,-358.98 1147.72,-362.48 1157.72,-365.98 1157.72,-358.98"/>
</g>
<!-- Node4 -->
<g id="node4" class="node">
<title>Node4</title>
<g id="a_node4"><a xlink:href="classast_1_1_ast_node_tagged.html" target="_top" xlink:title="タグ付きの子をもつノードのクラス．利用者は自前で，追加する子のField名と，Getter，型を設定する．読み出しは子の添字でも行える．">
<polygon fill="white" stroke="black" points="886,-268.98 886,-287.98 972,-287.98 972,-268.98 886,-268.98"/>
<text text-anchor="middle" x="929" y="-275.98" font-family="Helvetica,sans-Serif" font-size="10.00">AstNodeTagged</text>
</a>
</g>
</g>
<!-- Node4&#45;&gt;Node3 -->
<g id="edge3" class="edge">
<title>Node4&#45;&gt;Node3</title>
<path fill="none" stroke="midnightblue" d="M982.1,-289.49C994.76,-292.94 1008.08,-297.25 1020,-302.48 1051.5,-316.29 1084.62,-339.69 1102.06,-352.81"/>
<polygon fill="midnightblue" stroke="midnightblue" points="982.68,-286.02 972.12,-286.9 980.92,-292.8 982.68,-286.02"/>
</g>
<!-- Node5 -->
<g id="node5" class="node">
<title>Node5</title>
<g id="a_node5"><a xlink:href="classast_1_1_ast_node_branch.html" target="_top" xlink:title="タグなしの順アクセスの子供をもてる抽象構文木のノードのクラス。">
<polygon fill="white" stroke="red" points="635,-478.98 635,-497.98 721,-497.98 721,-478.98 635,-478.98"/>
<text text-anchor="middle" x="678" y="-485.98" font-family="Helvetica,sans-Serif" font-size="10.00">AstNodeBranch</text>
</a>
</g>
</g>
<!-- Node5&#45;&gt;Node4 -->
<g id="edge4" class="edge">
<title>Node5&#45;&gt;Node4</title>
<path fill="none" stroke="midnightblue" d="M702.67,-473.23C739.74,-448.84 812.95,-398.56 868,-347.48 888.71,-328.26 909.63,-302.41 920.45,-288.44"/>
<polygon fill="midnightblue" stroke="midnightblue" points="700.51,-470.46 694.06,-478.86 704.34,-476.32 700.51,-470.46"/>
</g>
<!-- Node32 -->
<g id="node27" class="node">
<title>Node32</title>
<g id="a_node27"><a xlink:href="classast_1_1_ast_list.html" target="_top" xlink:title="リストのテンプレート.">
<polygon fill="white" stroke="black" points="905.5,-478.98 905.5,-497.98 952.5,-497.98 952.5,-478.98 905.5,-478.98"/>
<text text-anchor="middle" x="929" y="-485.98" font-family="Helvetica,sans-Serif" font-size="10.00">AstList</text>
</a>
</g>
</g>
<!-- Node5&#45;&gt;Node32 -->
<g id="edge43" class="edge">
<title>Node5&#45;&gt;Node32</title>
<path fill="none" stroke="midnightblue" d="M731.27,-488.48C785.02,-488.48 866.24,-488.48 905.36,-488.48"/>
<polygon fill="midnightblue" stroke="midnightblue" points="731.24,-484.98 721.24,-488.48 731.24,-491.98 731.24,-484.98"/>
</g>
<!-- Node6 -->
<g id="node6" class="node">
<title>Node6</title>
<g id="a_node6"><a xlink:href="classast_1_1_ast_node.html" target="_top" xlink:title=" ">
<polygon fill="white" stroke="red" points="379.5,-215.98 379.5,-234.98 434.5,-234.98 434.5,-215.98 379.5,-215.98"/>
<text text-anchor="middle" x="407" y="-222.98" font-family="Helvetica,sans-Serif" font-size="10.00">AstNode</text>
</a>
</g>
</g>
<!-- Node6&#45;&gt;Node2 -->
<g id="edge41" class="edge">
<title>Node6&#45;&gt;Node2</title>
<path fill="none" stroke="#9a32cd" stroke-dasharray="5,2" d="M444.78,-223.42C479.41,-221.45 532.74,-218.37 579,-215.48 659.02,-210.47 679.76,-215.7 759,-203.48 816.42,-194.63 828.31,-179.42 886,-172.48 923.95,-167.92 935.21,-162.12 972,-172.48 1103.7,-209.58 1234.72,-319.82 1272.01,-352.95"/>
<polygon fill="#9a32cd" stroke="#9a32cd" points="444.45,-219.93 434.66,-223.99 444.84,-226.92 444.45,-219.93"/>
<text text-anchor="middle" x="929" y="-175.48" font-family="Helvetica,sans-Serif" font-size="10.00"> where_</text>
</g>
<!-- Node6&#45;&gt;Node5 -->
<g id="edge5" class="edge">
<title>Node6&#45;&gt;Node5</title>
<path fill="none" stroke="midnightblue" d="M444.96,-228.01C458.73,-230.54 473.74,-235.37 485,-244.48 499.22,-255.98 493.05,-266.14 503,-281.48 538.37,-336 555.18,-343.74 597,-393.48 623.22,-424.67 654.33,-461.59 668.82,-478.77"/>
<polygon fill="midnightblue" stroke="midnightblue" points="445.15,-224.5 434.75,-226.49 444.12,-231.43 445.15,-224.5"/>
</g>
<!-- Node29 -->
<g id="node24" class="node">
<title>Node29</title>
<g id="a_node24"><a xlink:href="classmachine_1_1_ref.html" target="_top" xlink:title="フレーム中の変数参照オブジェクトref = (XType type, int vid)">
<polygon fill="white" stroke="black" points="662,-326.98 662,-345.98 694,-345.98 694,-326.98 662,-326.98"/>
<text text-anchor="middle" x="678" y="-333.98" font-family="Helvetica,sans-Serif" font-size="10.00">Ref</text>
</a>
</g>
</g>
<!-- Node6&#45;&gt;Node29 -->
<g id="edge36" class="edge">
<title>Node6&#45;&gt;Node29</title>
<path fill="none" stroke="midnightblue" d="M444.72,-232.92C457.62,-235.96 472.11,-239.86 485,-244.48 553.19,-268.94 629.51,-309.87 661.54,-327.72"/>
<polygon fill="midnightblue" stroke="midnightblue" points="445.29,-229.46 434.77,-230.67 443.75,-236.29 445.29,-229.46"/>
</g>
<!-- Node41 -->
<g id="node36" class="node">
<title>Node41</title>
<g id="a_node36"><a xlink:href="classast_1_1_ast_terminal.html" target="_top" xlink:title="値型をもたない終端オブジェクトのクラス">
<polygon fill="white" stroke="black" points="644,-174.98 644,-193.98 712,-193.98 712,-174.98 644,-174.98"/>
<text text-anchor="middle" x="678" y="-181.98" font-family="Helvetica,sans-Serif" font-size="10.00">AstTerminal</text>
</a>
</g>
</g>
<!-- Node6&#45;&gt;Node41 -->
<g id="edge63" class="edge">
<title>Node6&#45;&gt;Node41</title>
<path fill="none" stroke="midnightblue" d="M444.68,-219.89C497.19,-211.89 593.05,-197.27 643.66,-189.56"/>
<polygon fill="midnightblue" stroke="midnightblue" points="444.13,-216.43 434.78,-221.4 445.19,-223.35 444.13,-216.43"/>
</g>
<!-- Node10 -->
<g id="node7" class="node">
<title>Node10</title>
<g id="a_node7"><a xlink:title=" ">
<polygon fill="white" stroke="#bfbfbf" points="45.5,-291.98 45.5,-310.98 118.5,-310.98 118.5,-291.98 45.5,-291.98"/>
<text text-anchor="middle" x="82" y="-298.98" font-family="Helvetica,sans-Serif" font-size="10.00">static Report</text>
</a>
</g>
</g>
<!-- Node10&#45;&gt;Node6 -->
<g id="edge6" class="edge">
<title>Node10&#45;&gt;Node6</title>
<path fill="none" stroke="#9a32cd" stroke-dasharray="5,2" d="M128.79,-292.97C145.52,-289.91 164.61,-286.48 182,-283.48 239.24,-273.62 259.3,-288.96 311,-262.48 321.07,-257.32 319.15,-250.04 329,-244.48 344.47,-235.75 363.9,-231 379.37,-228.42"/>
<polygon fill="#9a32cd" stroke="#9a32cd" points="127.92,-289.57 118.71,-294.82 129.18,-296.46 127.92,-289.57"/>
<text text-anchor="middle" x="246.5" y="-286.48" font-family="Helvetica,sans-Serif" font-size="10.00"> repo</text>
</g>
<!-- Node28 -->
<g id="node23" class="node">
<title>Node28</title>
<g id="a_node23"><a xlink:href="classmachine_1_1_ref_list.html" target="_top" xlink:title="@整数の表">
<polygon fill="white" stroke="black" points="383,-253.98 383,-272.98 431,-272.98 431,-253.98 383,-253.98"/>
<text text-anchor="middle" x="407" y="-260.98" font-family="Helvetica,sans-Serif" font-size="10.00">RefList</text>
</a>
</g>
</g>
<!-- Node10&#45;&gt;Node28 -->
<g id="edge31" class="edge">
<title>Node10&#45;&gt;Node28</title>
<path fill="none" stroke="#9a32cd" stroke-dasharray="5,2" d="M128.92,-304.64C175.26,-306.85 248.69,-307.7 311,-296.48 337.12,-291.78 365.71,-281.03 384.63,-273.07"/>
<polygon fill="#9a32cd" stroke="#9a32cd" points="129.05,-301.14 118.89,-304.12 128.69,-308.13 129.05,-301.14"/>
<text text-anchor="middle" x="246.5" y="-308.48" font-family="Helvetica,sans-Serif" font-size="10.00"> repo</text>
</g>
<!-- Node11 -->
<g id="node8" class="node">
<title>Node11</title>
<g id="a_node8"><a xlink:title=" ">
<polygon fill="white" stroke="#bfbfbf" points="67.5,-561.98 67.5,-580.98 96.5,-580.98 96.5,-561.98 67.5,-561.98"/>
<text text-anchor="middle" x="82" y="-568.98" font-family="Helvetica,sans-Serif" font-size="10.00">int</text>
</a>
</g>
</g>
<!-- Node11&#45;&gt;Node2 -->
<g id="edge56" class="edge">
<title>Node11&#45;&gt;Node2</title>
<path fill="none" stroke="#9a32cd" stroke-dasharray="5,2" d="M106.13,-580.07C126.07,-587.32 155.73,-597.73 182,-605.48 238.66,-622.2 259.57,-608.42 311,-637.48 320.85,-643.04 319.03,-650.13 329,-655.48 498.94,-746.59 1011.34,-800.12 1193,-735.48 1222.17,-725.1 1232.23,-718.69 1247,-691.48 1278.11,-634.17 1281.96,-419.81 1282.43,-371.98"/>
<polygon fill="#9a32cd" stroke="#9a32cd" points="107.24,-576.75 96.65,-576.59 104.84,-583.32 107.24,-576.75"/>
<text text-anchor="middle" x="822.5" y="-764.48" font-family="Helvetica,sans-Serif" font-size="10.00"> dynamic_ref_count_</text>
</g>
<!-- Node11&#45;&gt;Node3 -->
<g id="edge27" class="edge">
<title>Node11&#45;&gt;Node3</title>
<path fill="none" stroke="#9a32cd" stroke-dasharray="5,2" d="M106.86,-575.27C203.53,-589.83 574.82,-638.04 868,-570.48 943.01,-553.19 984.65,-555.86 1020,-487.48 1039.53,-449.69 1011.01,-426.35 1038,-393.48 1049.28,-379.75 1067.58,-372.04 1083.45,-367.75"/>
<polygon fill="#9a32cd" stroke="#9a32cd" points="107.11,-571.77 96.7,-573.71 106.05,-578.68 107.11,-571.77"/>
<text text-anchor="middle" x="678" y="-606.48" font-family="Helvetica,sans-Serif" font-size="10.00"> rid_</text>
</g>
<!-- Node11&#45;&gt;Node5 -->
<g id="edge12" class="edge">
<title>Node11&#45;&gt;Node5</title>
<path fill="none" stroke="#9a32cd" stroke-dasharray="5,2" d="M106.27,-563.91C149.57,-550.18 245.69,-521.42 329,-508.48 438.43,-491.49 569.24,-488.57 634.94,-488.29"/>
<polygon fill="#9a32cd" stroke="#9a32cd" points="105.13,-560.6 96.68,-566.98 107.27,-567.26 105.13,-560.6"/>
<text text-anchor="middle" x="407" y="-533.48" font-family="Helvetica,sans-Serif" font-size="10.00"> BITMASK_PRINT_WIDTH</text>
<text text-anchor="middle" x="407" y="-522.48" font-family="Helvetica,sans-Serif" font-size="10.00">UNDEF</text>
<text text-anchor="middle" x="407" y="-511.48" font-family="Helvetica,sans-Serif" font-size="10.00">height</text>
</g>
<!-- Node11&#45;&gt;Node6 -->
<g id="edge7" class="edge">
<title>Node11&#45;&gt;Node6</title>
<path fill="none" stroke="#9a32cd" stroke-dasharray="5,2" d="M105.14,-558.18C124.06,-545.56 150.3,-524.79 164,-499.48 189.87,-451.66 149.18,-421.83 182,-378.48 219.94,-328.36 270.97,-368.95 311,-320.48 333.11,-293.72 304.57,-269.14 329,-244.48 342.08,-231.27 362.78,-226.71 379.42,-225.35"/>
<polygon fill="#9a32cd" stroke="#9a32cd" points="103.06,-555.36 96.54,-563.7 106.84,-561.25 103.06,-555.36"/>
<text text-anchor="middle" x="246.5" y="-392.48" font-family="Helvetica,sans-Serif" font-size="10.00"> BITMASK_PRINT_WIDTH</text>
<text text-anchor="middle" x="246.5" y="-381.48" font-family="Helvetica,sans-Serif" font-size="10.00">UNDEF</text>
</g>
<!-- Node11&#45;&gt;Node28 -->
<g id="edge32" class="edge">
<title>Node11&#45;&gt;Node28</title>
<path fill="none" stroke="#9a32cd" stroke-dasharray="5,2" d="M104.89,-556.79C122.96,-543.66 148.14,-522.92 164,-499.48 177.24,-479.92 165.22,-466.1 182,-449.48 225.15,-406.76 271.27,-450.4 311,-404.48 338.54,-372.64 305.15,-346.17 329,-311.48 342.03,-292.53 365.24,-279.58 382.78,-271.95"/>
<polygon fill="#9a32cd" stroke="#9a32cd" points="102.8,-553.98 96.65,-562.61 106.84,-559.7 102.8,-553.98"/>
<text text-anchor="middle" x="246.5" y="-452.48" font-family="Helvetica,sans-Serif" font-size="10.00"> UNDEF</text>
</g>
<!-- Node11&#45;&gt;Node29 -->
<g id="edge38" class="edge">
<title>Node11&#45;&gt;Node29</title>
<path fill="none" stroke="#9a32cd" stroke-dasharray="5,2" d="M104.05,-555.88C123.55,-541.92 153.72,-521.55 182,-507.48 236.63,-480.3 265.68,-501.34 311,-460.48 324.58,-448.23 314.82,-435.02 329,-423.48 424.3,-345.9 477.66,-384.79 597,-355.48 619.6,-349.93 645.85,-343.74 661.94,-339.98"/>
<polygon fill="#9a32cd" stroke="#9a32cd" points="101.93,-553.09 95.89,-561.8 106.04,-558.76 101.93,-553.09"/>
<text text-anchor="middle" x="407" y="-426.48" font-family="Helvetica,sans-Serif" font-size="10.00"> UNDEF</text>
</g>
<!-- Node33 -->
<g id="node28" class="node">
<title>Node33</title>
<g id="a_node28"><a xlink:href="classmachine_1_1_call_list.html" target="_top" xlink:title=" ">
<polygon fill="white" stroke="black" points="653,-825.98 653,-844.98 703,-844.98 703,-825.98 653,-825.98"/>
<text text-anchor="middle" x="678" y="-832.98" font-family="Helvetica,sans-Serif" font-size="10.00">CallList</text>
</a>
</g>
</g>
<!-- Node11&#45;&gt;Node33 -->
<g id="edge47" class="edge">
<title>Node11&#45;&gt;Node33</title>
<path fill="none" stroke="#9a32cd" stroke-dasharray="5,2" d="M104.06,-586.86C123.57,-600.61 153.75,-620.67 182,-634.48 236.69,-661.21 267.31,-638.1 311,-680.48 326.76,-695.77 312.95,-711.5 329,-726.48 377.78,-771.99 582.09,-816.44 652.8,-830.73"/>
<polygon fill="#9a32cd" stroke="#9a32cd" points="106.07,-583.99 95.9,-581.03 102,-589.69 106.07,-583.99"/>
<text text-anchor="middle" x="407" y="-792.48" font-family="Helvetica,sans-Serif" font-size="10.00"> UNDEF</text>
</g>
<!-- Node34 -->
<g id="node29" class="node">
<title>Node34</title>
<g id="a_node29"><a xlink:href="classmachine_1_1_id_mask.html" target="_top" xlink:title="@IDのマスク">
<polygon fill="white" stroke="black" points="382.5,-825.98 382.5,-844.98 431.5,-844.98 431.5,-825.98 382.5,-825.98"/>
<text text-anchor="middle" x="407" y="-832.98" font-family="Helvetica,sans-Serif" font-size="10.00">IdMask</text>
</a>
</g>
</g>
<!-- Node11&#45;&gt;Node34 -->
<g id="edge51" class="edge">
<title>Node11&#45;&gt;Node34</title>
<path fill="none" stroke="#9a32cd" stroke-dasharray="5,2" d="M96.24,-589.28C114.14,-612.68 147.79,-654.34 182,-684.48 252.38,-746.49 349.51,-803.77 388.64,-825.87"/>
<polygon fill="#9a32cd" stroke="#9a32cd" points="98.8,-586.86 89.98,-581 93.21,-591.08 98.8,-586.86"/>
<text text-anchor="middle" x="246.5" y="-800.48" font-family="Helvetica,sans-Serif" font-size="10.00"> OUTPUT_MIN_BIT_WIDTH</text>
<text text-anchor="middle" x="246.5" y="-789.48" font-family="Helvetica,sans-Serif" font-size="10.00">maxState</text>
<text text-anchor="middle" x="246.5" y="-778.48" font-family="Helvetica,sans-Serif" font-size="10.00">numStates</text>
</g>
<!-- Node13 -->
<g id="node9" class="node">
<title>Node13</title>
<g id="a_node9"><a xlink:title=" ">
<polygon fill="white" stroke="#bfbfbf" points="57,-116.98 57,-135.98 107,-135.98 107,-116.98 57,-116.98"/>
<text text-anchor="middle" x="82" y="-123.98" font-family="Helvetica,sans-Serif" font-size="10.00">boolean</text>
</a>
</g>
</g>
<!-- Node13&#45;&gt;Node2 -->
<g id="edge58" class="edge">
<title>Node13&#45;&gt;Node2</title>
<path fill="none" stroke="#9a32cd" stroke-dasharray="5,2" d="M116.94,-118.23C234.98,-90.55 638.6,-4.61 972,-37.48 1096.98,-49.8 1169.23,-3.87 1247,-102.48 1278.53,-142.45 1282.06,-310.8 1282.45,-352.91"/>
<polygon fill="#9a32cd" stroke="#9a32cd" points="115.97,-114.86 107.04,-120.57 117.58,-121.67 115.97,-114.86"/>
<text text-anchor="middle" x="822.5" y="-33.48" font-family="Helvetica,sans-Serif" font-size="10.00"> DEBUG_REPO</text>
</g>
<!-- Node13&#45;&gt;Node3 -->
<g id="edge28" class="edge">
<title>Node13&#45;&gt;Node3</title>
<path fill="none" stroke="#9a32cd" stroke-dasharray="5,2" d="M117.42,-123.7C261.32,-112.42 809.92,-72.92 868,-121.48 902.65,-150.45 858.08,-185.98 886,-221.48 911.83,-254.33 934.78,-240.48 972,-259.48 994,-270.71 999.61,-273.55 1020,-287.48 1051.65,-309.11 1086.34,-338.14 1103.55,-352.94"/>
<polygon fill="#9a32cd" stroke="#9a32cd" points="117.09,-120.22 107.39,-124.49 117.64,-127.19 117.09,-120.22"/>
<text text-anchor="middle" x="678" y="-102.48" font-family="Helvetica,sans-Serif" font-size="10.00"> DEBUG_REPO</text>
</g>
<!-- Node13&#45;&gt;Node4 -->
<g id="edge18" class="edge">
<title>Node13&#45;&gt;Node4</title>
<path fill="none" stroke="#9a32cd" stroke-dasharray="5,2" d="M117.42,-125.89C237.81,-124.23 639.22,-122.14 759,-165.48 823.81,-188.93 827.79,-217.56 886,-254.48 893.8,-259.43 902.65,-264.55 910.21,-268.79"/>
<polygon fill="#9a32cd" stroke="#9a32cd" points="117.25,-122.39 107.3,-126.04 117.35,-129.39 117.25,-122.39"/>
<text text-anchor="middle" x="541" y="-138.48" font-family="Helvetica,sans-Serif" font-size="10.00"> DEBUG_REPO</text>
</g>
<!-- Node13&#45;&gt;Node6 -->
<g id="edge8" class="edge">
<title>Node13&#45;&gt;Node6</title>
<path fill="none" stroke="#9a32cd" stroke-dasharray="5,2" d="M117.06,-138.16C136.11,-144.61 160.31,-152.67 182,-159.48 252.98,-181.76 337.29,-206.01 379.36,-217.96"/>
<polygon fill="#9a32cd" stroke="#9a32cd" points="117.93,-134.76 107.33,-134.86 115.68,-141.39 117.93,-134.76"/>
<text text-anchor="middle" x="246.5" y="-200.48" font-family="Helvetica,sans-Serif" font-size="10.00"> DEBUG_REPO</text>
</g>
<!-- Node13&#45;&gt;Node28 -->
<g id="edge33" class="edge">
<title>Node13&#45;&gt;Node28</title>
<path fill="none" stroke="#9a32cd" stroke-dasharray="5,2" d="M97.96,-143.84C115.91,-163.54 147.89,-195.17 182,-212.48 217.39,-230.44 333.11,-251.29 382.89,-259.69"/>
<polygon fill="#9a32cd" stroke="#9a32cd" points="100.42,-141.35 91.16,-136.21 95.2,-146 100.42,-141.35"/>
<text text-anchor="middle" x="246.5" y="-247.48" font-family="Helvetica,sans-Serif" font-size="10.00"> DEBUG_REPO</text>
</g>
<!-- Node40 -->
<g id="node35" class="node">
<title>Node40</title>
<g id="a_node35"><a xlink:href="classast_1_1_ast_tag.html" target="_top" xlink:title=" ">
<polygon fill="white" stroke="black" points="905.5,-46.98 905.5,-65.98 952.5,-65.98 952.5,-46.98 905.5,-46.98"/>
<text text-anchor="middle" x="929" y="-53.98" font-family="Helvetica,sans-Serif" font-size="10.00">AstTag</text>
</a>
</g>
</g>
<!-- Node13&#45;&gt;Node40 -->
<g id="edge67" class="edge">
<title>Node13&#45;&gt;Node40</title>
<path fill="none" stroke="#9a32cd" stroke-dasharray="5,2" d="M97.72,-109.29C115.44,-90.04 147.21,-59.9 182,-47.48 451.9,48.84 812.49,-28.05 905.41,-50.7"/>
<polygon fill="#9a32cd" stroke="#9a32cd" points="95.07,-107.01 91.01,-116.8 100.29,-111.67 95.07,-107.01"/>
<text text-anchor="middle" x="541" y="-16.48" font-family="Helvetica,sans-Serif" font-size="10.00"> isDesc_</text>
<text text-anchor="middle" x="541" y="-5.48" font-family="Helvetica,sans-Serif" font-size="10.00">isWildCard_</text>
</g>
<!-- Node14 -->
<g id="node10" class="node">
<title>Node14</title>
<g id="a_node10"><a xlink:href="interfaceformat_1_1_x_formattable_1_1_navigatable.html" target="_top" xlink:title="木構造の分岐ノードとして清書可能なオブジェクトのクラス">
<polygon fill="white" stroke="black" points="342,-443.98 342,-462.98 472,-462.98 472,-443.98 342,-443.98"/>
<text text-anchor="middle" x="407" y="-450.98" font-family="Helvetica,sans-Serif" font-size="10.00">XFormattable.Navigatable</text>
</a>
</g>
</g>
<!-- Node14&#45;&gt;Node5 -->
<g id="edge9" class="edge">
<title>Node14&#45;&gt;Node5</title>
<path fill="none" stroke="midnightblue" d="M482.04,-463.11C531.19,-469.51 593.94,-477.67 634.77,-482.99"/>
<polygon fill="midnightblue" stroke="midnightblue" points="482.46,-459.64 472.09,-461.82 481.56,-466.58 482.46,-459.64"/>
</g>
<!-- Node19 -->
<g id="node14" class="node">
<title>Node19</title>
<g id="a_node14"><a xlink:href="interfaceformat_1_1_x_formattable_1_1_field_navigatable.html" target="_top" xlink:title="タグ付きノードに対応する清書対象のクラス。">
<polygon fill="white" stroke="black" points="602.5,-364.98 602.5,-383.98 753.5,-383.98 753.5,-364.98 602.5,-364.98"/>
<text text-anchor="middle" x="678" y="-371.98" font-family="Helvetica,sans-Serif" font-size="10.00">XFormattable.FieldNavigatable</text>
</a>
</g>
</g>
<!-- Node14&#45;&gt;Node19 -->
<g id="edge15" class="edge">
<title>Node14&#45;&gt;Node19</title>
<path fill="none" stroke="midnightblue" d="M450.35,-441.04C504.14,-425.24 595.8,-398.33 644.44,-384.04"/>
<polygon fill="midnightblue" stroke="midnightblue" points="449.06,-437.77 440.45,-443.95 451.03,-444.49 449.06,-437.77"/>
</g>
<!-- Node14&#45;&gt;Node32 -->
<g id="edge44" class="edge">
<title>Node14&#45;&gt;Node32</title>
<path fill="none" stroke="midnightblue" d="M482.33,-455.44C553.44,-457.65 663.65,-461.96 759,-469.48 811.54,-473.63 872.98,-481.23 905.36,-485.45"/>
<polygon fill="midnightblue" stroke="midnightblue" points="482.23,-451.93 472.13,-455.13 482.02,-458.93 482.23,-451.93"/>
</g>
<!-- Node15 -->
<g id="node11" class="node">
<title>Node15</title>
<g id="a_node11"><a xlink:href="interfaceformat_1_1_x_formattable_1_1_label_formattable.html" target="_top" xlink:title="カスタム清書出力器をもつオブジェクトのクラス．">
<polygon fill="white" stroke="red" points="5.5,-370.98 5.5,-389.98 158.5,-389.98 158.5,-370.98 5.5,-370.98"/>
<text text-anchor="middle" x="82" y="-377.98" font-family="Helvetica,sans-Serif" font-size="10.00">XFormattable.LabelFormattable</text>
</a>
</g>
</g>
<!-- Node15&#45;&gt;Node3 -->
<g id="edge21" class="edge">
<title>Node15&#45;&gt;Node3</title>
<path fill="none" stroke="midnightblue" d="M128.92,-368.65C145.52,-364.93 164.49,-361.32 182,-359.48 239.02,-353.5 253.77,-356.09 311,-359.48 438.78,-367.05 469.22,-385.91 597,-393.48 668.87,-397.74 687.07,-396.61 759,-393.48 879.08,-388.25 1021.32,-373.15 1083.17,-366.13"/>
<polygon fill="midnightblue" stroke="midnightblue" points="127.87,-365.3 118.92,-370.97 129.45,-372.12 127.87,-365.3"/>
</g>
<!-- Node15&#45;&gt;Node14 -->
<g id="edge10" class="edge">
<title>Node15&#45;&gt;Node14</title>
<path fill="none" stroke="midnightblue" d="M137.71,-392.13C199.69,-405.35 294.29,-425.57 311,-429.48 330.38,-434.01 351.89,-439.41 369.53,-443.94"/>
<polygon fill="midnightblue" stroke="midnightblue" points="138.19,-388.65 127.68,-389.99 136.73,-395.5 138.19,-388.65"/>
</g>
<!-- Node16 -->
<g id="node12" class="node">
<title>Node16</title>
<g id="a_node12"><a xlink:href="interfaceformat_1_1_x_formattable_1_1_typed_formattable.html" target="_top" xlink:title="ノードの型情報をもつ書式出力可能なオブジェクトのインタフェース．">
<polygon fill="white" stroke="red" points="329,-550.98 329,-569.98 485,-569.98 485,-550.98 329,-550.98"/>
<text text-anchor="middle" x="407" y="-557.98" font-family="Helvetica,sans-Serif" font-size="10.00">XFormattable.TypedFormattable</text>
</a>
</g>
</g>
<!-- Node16&#45;&gt;Node3 -->
<g id="edge22" class="edge">
<title>Node16&#45;&gt;Node3</title>
<path fill="none" stroke="midnightblue" d="M488.7,-571.03C603.15,-582.13 816.02,-588.27 972,-507.48 1001.11,-492.4 1004.15,-480.17 1020,-451.48 1033.05,-427.86 1019.73,-413.35 1038,-393.48 1049.83,-380.61 1067.76,-372.96 1083.29,-368.49"/>
<polygon fill="midnightblue" stroke="midnightblue" points="488.91,-567.53 478.61,-570.01 488.21,-574.5 488.91,-567.53"/>
</g>
<!-- Node16&#45;&gt;Node5 -->
<g id="edge11" class="edge">
<title>Node16&#45;&gt;Node5</title>
<path fill="none" stroke="midnightblue" d="M453.52,-548.3C506.45,-534.13 592.72,-511.04 641.13,-498.08"/>
<polygon fill="midnightblue" stroke="midnightblue" points="452.48,-544.95 443.72,-550.92 454.29,-551.71 452.48,-544.95"/>
</g>
<!-- Node17 -->
<g id="node13" class="node">
<title>Node17</title>
<g id="a_node13"><a xlink:title=" ">
<polygon fill="white" stroke="#bfbfbf" points="381,-626.98 381,-645.98 433,-645.98 433,-626.98 381,-626.98"/>
<text text-anchor="middle" x="407" y="-633.98" font-family="Helvetica,sans-Serif" font-size="10.00">Boolean</text>
</a>
</g>
</g>
<!-- Node17&#45;&gt;Node2 -->
<g id="edge57" class="edge">
<title>Node17&#45;&gt;Node2</title>
<path fill="none" stroke="#9a32cd" stroke-dasharray="5,2" d="M443.54,-636.8C507.16,-636.89 644.53,-634.93 759,-618.48 808.3,-611.4 819.57,-604.08 868,-592.48 914.23,-581.41 927.09,-583.07 972,-567.48 1074.2,-532 1106.48,-530.42 1193,-465.48 1230.13,-437.61 1262.87,-392.04 1276.17,-372.21"/>
<polygon fill="#9a32cd" stroke="#9a32cd" points="443.28,-633.29 433.26,-636.76 443.25,-640.29 443.28,-633.29"/>
<text text-anchor="middle" x="929" y="-601.48" font-family="Helvetica,sans-Serif" font-size="10.00"> dynamic_</text>
<text text-anchor="middle" x="929" y="-590.48" font-family="Helvetica,sans-Serif" font-size="10.00">target_</text>
</g>
<!-- Node17&#45;&gt;Node5 -->
<g id="edge13" class="edge">
<title>Node17&#45;&gt;Node5</title>
<path fill="none" stroke="#9a32cd" stroke-dasharray="5,2" d="M440.93,-622.95C477.57,-606.75 537.12,-576.93 579,-538.48 589.35,-528.97 585.63,-520.74 597,-512.48 608.03,-504.47 621.74,-499.1 634.68,-495.52"/>
<polygon fill="#9a32cd" stroke="#9a32cd" points="439.47,-619.77 431.69,-626.96 442.25,-626.19 439.47,-619.77"/>
<text text-anchor="middle" x="541" y="-593.48" font-family="Helvetica,sans-Serif" font-size="10.00"> DEBUG_CHILD</text>
</g>
<!-- Node19&#45;&gt;Node4 -->
<g id="edge14" class="edge">
<title>Node19&#45;&gt;Node4</title>
<path fill="none" stroke="midnightblue" d="M735.64,-362.52C774.16,-353.17 825.63,-338.26 868,-317.48 885.18,-309.06 903.4,-296.65 915.2,-288.11"/>
<polygon fill="midnightblue" stroke="midnightblue" points="734.56,-359.18 725.64,-364.9 736.17,-365.99 734.56,-359.18"/>
</g>
<!-- Node20 -->
<g id="node15" class="node">
<title>Node20</title>
<g id="a_node15"><a xlink:title=" ">
<polygon fill="white" stroke="#bfbfbf" points="640,-51.98 640,-70.98 716,-70.98 716,-51.98 640,-51.98"/>
<text text-anchor="middle" x="678" y="-58.98" font-family="Helvetica,sans-Serif" font-size="10.00">List&lt; String &gt;</text>
</a>
</g>
</g>
<!-- Node20&#45;&gt;Node4 -->
<g id="edge16" class="edge">
<title>Node20&#45;&gt;Node4</title>
<path fill="none" stroke="#9a32cd" stroke-dasharray="5,2" d="M725.97,-68.15C769.85,-77 833.6,-97.04 868,-141.48 890.31,-170.3 870.87,-188.33 886,-221.48 894.37,-239.82 909.25,-258.05 918.87,-268.79"/>
<polygon fill="#9a32cd" stroke="#9a32cd" points="726.58,-64.7 716.1,-66.28 725.28,-71.58 726.58,-64.7"/>
<text text-anchor="middle" x="822.5" y="-144.48" font-family="Helvetica,sans-Serif" font-size="10.00"> fields</text>
</g>
<!-- Node20&#45;&gt;Node40 -->
<g id="edge66" class="edge">
<title>Node20&#45;&gt;Node40</title>
<path fill="none" stroke="#9a32cd" stroke-dasharray="5,2" d="M726.44,-59.22C742.49,-58.54 760.52,-57.87 777,-57.48 822.6,-56.4 875.97,-56.33 905.48,-56.39"/>
<polygon fill="#9a32cd" stroke="#9a32cd" points="726.06,-55.73 716.22,-59.66 726.36,-62.72 726.06,-55.73"/>
<text text-anchor="middle" x="822.5" y="-60.48" font-family="Helvetica,sans-Serif" font-size="10.00"> list</text>
</g>
<!-- Node21 -->
<g id="node16" class="node">
<title>Node21</title>
<g id="a_node16"><a xlink:title=" ">
<polygon fill="white" stroke="#bfbfbf" points="597,-250.98 597,-269.98 759,-269.98 759,-250.98 597,-250.98"/>
<text text-anchor="middle" x="678" y="-257.98" font-family="Helvetica,sans-Serif" font-size="10.00">List&lt; Supplier&lt; XFormattable &gt; &gt;</text>
</a>
</g>
</g>
<!-- Node21&#45;&gt;Node4 -->
<g id="edge17" class="edge">
<title>Node21&#45;&gt;Node4</title>
<path fill="none" stroke="#9a32cd" stroke-dasharray="5,2" d="M769.16,-262.91C800.5,-264.25 835.85,-266.31 868,-269.48 873.77,-270.05 879.82,-270.79 885.78,-271.6"/>
<polygon fill="#9a32cd" stroke="#9a32cd" points="769.27,-259.41 759.14,-262.5 768.99,-266.41 769.27,-259.41"/>
<text text-anchor="middle" x="822.5" y="-272.48" font-family="Helvetica,sans-Serif" font-size="10.00"> getters</text>
</g>
<!-- Node22 -->
<g id="node17" class="node">
<title>Node22</title>
<g id="a_node17"><a xlink:href="interfacemachine_1_1_rule.html" target="_top" xlink:title="実行可能コードのインタフェース. ブロックとステップの二種がある。">
<polygon fill="white" stroke="black" points="910.5,-102.98 910.5,-121.98 947.5,-121.98 947.5,-102.98 910.5,-102.98"/>
<text text-anchor="middle" x="929" y="-109.98" font-family="Helvetica,sans-Serif" font-size="10.00">Rule</text>
</a>
</g>
</g>
<!-- Node22&#45;&gt;Node3 -->
<g id="edge19" class="edge">
<title>Node22&#45;&gt;Node3</title>
<path fill="none" stroke="midnightblue" d="M954.93,-127.64C960.83,-131.77 966.89,-136.49 972,-141.48 1042.25,-210.03 1095.01,-319.32 1110.11,-352.56"/>
<polygon fill="midnightblue" stroke="midnightblue" points="956.79,-124.67 946.52,-122.05 952.91,-130.5 956.79,-124.67"/>
</g>
<!-- Node31 -->
<g id="node26" class="node">
<title>Node31</title>
<g id="a_node26"><a xlink:href="interfacemachine_1_1_steppable.html" target="_top" xlink:title="実行可能ルールのインタフェース.">
<polygon fill="white" stroke="black" points="1085.5,-90.98 1085.5,-109.98 1145.5,-109.98 1145.5,-90.98 1085.5,-90.98"/>
<text text-anchor="middle" x="1115.5" y="-97.98" font-family="Helvetica,sans-Serif" font-size="10.00">Steppable</text>
</a>
</g>
</g>
<!-- Node22&#45;&gt;Node31 -->
<g id="edge40" class="edge">
<title>Node22&#45;&gt;Node31</title>
<path fill="none" stroke="midnightblue" d="M957.97,-110.66C992.39,-108.42 1050.54,-104.64 1085.44,-102.37"/>
<polygon fill="midnightblue" stroke="midnightblue" points="957.44,-107.19 947.69,-111.33 957.9,-114.17 957.44,-107.19"/>
</g>
<!-- Node23 -->
<g id="node18" class="node">
<title>Node23</title>
<g id="a_node18"><a xlink:href="interfacecmd_1_1_generatable.html" target="_top" xlink:title="変換してコードを生成できるノードのインタフェース.">
<polygon fill="white" stroke="black" points="894.5,-192.98 894.5,-211.98 963.5,-211.98 963.5,-192.98 894.5,-192.98"/>
<text text-anchor="middle" x="929" y="-199.98" font-family="Helvetica,sans-Serif" font-size="10.00">Generatable</text>
</a>
</g>
</g>
<!-- Node23&#45;&gt;Node3 -->
<g id="edge20" class="edge">
<title>Node23&#45;&gt;Node3</title>
<path fill="none" stroke="midnightblue" d="M973.62,-207.74C989.29,-211.21 1006.43,-216.95 1020,-226.48 1068.48,-260.51 1100.13,-327.84 1110.64,-352.84"/>
<polygon fill="midnightblue" stroke="midnightblue" points="974.07,-204.26 963.59,-205.78 972.73,-211.13 974.07,-204.26"/>
</g>
<!-- Node24 -->
<g id="node19" class="node">
<title>Node24</title>
<g id="a_node19"><a xlink:href="classcmd_1_1_cmd_list.html" target="_top" xlink:title="仮想命令のリスト．">
<polygon fill="white" stroke="black" points="902.5,-696.98 902.5,-715.98 955.5,-715.98 955.5,-696.98 902.5,-696.98"/>
<text text-anchor="middle" x="929" y="-703.98" font-family="Helvetica,sans-Serif" font-size="10.00">CmdList</text>
</a>
</g>
</g>
<!-- Node24&#45;&gt;Node2 -->
<g id="edge55" class="edge">
<title>Node24&#45;&gt;Node2</title>
<path fill="none" stroke="#9a32cd" stroke-dasharray="5,2" d="M965.76,-714.33C1031.62,-726.48 1172.21,-741.17 1247,-665.48 1268.17,-644.05 1279.75,-421.42 1282.07,-372.11"/>
<polygon fill="#9a32cd" stroke="#9a32cd" points="966.33,-710.88 955.85,-712.42 965,-717.75 966.33,-710.88"/>
<text text-anchor="middle" x="1115.5" y="-726.48" font-family="Helvetica,sans-Serif" font-size="10.00"> pre_code_</text>
</g>
<!-- Node24&#45;&gt;Node3 -->
<g id="edge23" class="edge">
<title>Node24&#45;&gt;Node3</title>
<path fill="none" stroke="#9a32cd" stroke-dasharray="5,2" d="M954.99,-691.19C976.79,-676.23 1006.93,-651.25 1020,-620.48 1047.98,-554.62 1010.96,-526.74 1038,-460.48 1053.17,-423.31 1086.68,-388.42 1103.87,-372.12"/>
<polygon fill="#9a32cd" stroke="#9a32cd" points="952.93,-688.36 946.52,-696.79 956.79,-694.2 952.93,-688.36"/>
<text text-anchor="middle" x="1005" y="-664.48" font-family="Helvetica,sans-Serif" font-size="10.00"> code_</text>
</g>
<!-- Node25 -->
<g id="node20" class="node">
<title>Node25</title>
<g id="a_node20"><a xlink:href="interfaceformat_1_1_x_formattable_1_1_custom_formattable.html" target="_top" xlink:title="カスタム清書出力器をもつオブジェクトのクラス．">
<polygon fill="white" stroke="red" points="0,-794.98 0,-813.98 164,-813.98 164,-794.98 0,-794.98"/>
<text text-anchor="middle" x="82" y="-801.98" font-family="Helvetica,sans-Serif" font-size="10.00">XFormattable.CustomFormattable</text>
</a>
</g>
</g>
<!-- Node25&#45;&gt;Node24 -->
<g id="edge24" class="edge">
<title>Node25&#45;&gt;Node24</title>
<path fill="none" stroke="midnightblue" d="M174.35,-803.02C256.01,-800.93 378.82,-795.84 485,-783.48 616.01,-768.23 646.97,-752.61 777,-730.48 820.96,-723 872.25,-715 902.32,-710.39"/>
<polygon fill="midnightblue" stroke="midnightblue" points="174.01,-799.53 164.1,-803.27 174.19,-806.52 174.01,-799.53"/>
</g>
<!-- Node25&#45;&gt;Node28 -->
<g id="edge30" class="edge">
<title>Node25&#45;&gt;Node28</title>
<path fill="none" stroke="midnightblue" d="M116.13,-791.16C135.19,-783.82 159.71,-774.92 182,-768.48 238.36,-752.2 273.23,-785.37 311,-740.48 341.72,-703.97 304.98,-352.7 329,-311.48 340.74,-291.34 364.64,-278.44 382.72,-271.15"/>
<polygon fill="midnightblue" stroke="midnightblue" points="114.75,-787.94 106.71,-794.83 117.3,-794.46 114.75,-787.94"/>
</g>
<!-- Node25&#45;&gt;Node33 -->
<g id="edge46" class="edge">
<title>Node25&#45;&gt;Node33</title>
<path fill="none" stroke="midnightblue" d="M111.6,-818.38C156.58,-839.39 247.18,-878.29 329,-892.48 397.31,-904.33 415.94,-898.67 485,-892.48 527.29,-888.69 538.24,-887.34 579,-875.48 606.88,-867.37 637.67,-854.03 657.17,-845.01"/>
<polygon fill="midnightblue" stroke="midnightblue" points="112.99,-815.17 102.46,-814.06 110,-821.5 112.99,-815.17"/>
</g>
<!-- Node25&#45;&gt;Node34 -->
<g id="edge50" class="edge">
<title>Node25&#45;&gt;Node34</title>
<path fill="none" stroke="midnightblue" d="M155.7,-815.31C164.55,-816.46 173.47,-817.55 182,-818.48 254.89,-826.39 341.53,-831.85 382.41,-834.19"/>
<polygon fill="midnightblue" stroke="midnightblue" points="156.15,-811.84 145.77,-813.98 155.22,-818.77 156.15,-811.84"/>
</g>
<!-- Node25&#45;&gt;Node40 -->
<g id="edge65" class="edge">
<title>Node25&#45;&gt;Node40</title>
<path fill="none" stroke="midnightblue" d="M170.81,-793.57C230.19,-785.5 299.78,-774.4 311,-765.48 327.21,-752.58 314.42,-737.2 329,-722.48 382.11,-668.88 416.96,-688.11 485,-655.48 527.67,-635.01 540.57,-633.08 579,-605.48 587.94,-599.06 587.98,-594.79 597,-588.48 662.97,-542.35 698.84,-560.96 759,-507.48 824.96,-448.84 839.67,-425.07 868,-341.48 885.73,-289.15 861.44,-142.98 886,-93.48 891.7,-81.99 902.69,-72.51 912,-66.02"/>
<polygon fill="midnightblue" stroke="midnightblue" points="170.06,-790.14 160.62,-794.94 170.99,-797.08 170.06,-790.14"/>
</g>
<!-- Node26 -->
<g id="node21" class="node">
<title>Node26</title>
<g id="a_node21"><a xlink:title=" ">
<polygon fill="white" stroke="#bfbfbf" points="642.5,-680.98 642.5,-699.98 713.5,-699.98 713.5,-680.98 642.5,-680.98"/>
<text text-anchor="middle" x="678" y="-687.98" font-family="Helvetica,sans-Serif" font-size="10.00">List&lt; Cmd &gt;</text>
</a>
</g>
</g>
<!-- Node26&#45;&gt;Node24 -->
<g id="edge25" class="edge">
<title>Node26&#45;&gt;Node24</title>
<path fill="none" stroke="#9a32cd" stroke-dasharray="5,2" d="M723.98,-687.7C762.4,-686.05 819.05,-685.32 868,-691.48 879.4,-692.91 891.75,-695.77 902.27,-698.61"/>
<polygon fill="#9a32cd" stroke="#9a32cd" points="723.47,-684.22 713.65,-688.19 723.8,-691.22 723.47,-684.22"/>
<text text-anchor="middle" x="822.5" y="-694.48" font-family="Helvetica,sans-Serif" font-size="10.00"> list_</text>
</g>
<!-- Node27 -->
<g id="node22" class="node">
<title>Node27</title>
<g id="a_node22"><a xlink:title=" ">
<polygon fill="white" stroke="#bfbfbf" points="902.5,-440.98 902.5,-459.98 955.5,-459.98 955.5,-440.98 902.5,-440.98"/>
<text text-anchor="middle" x="929" y="-447.98" font-family="Helvetica,sans-Serif" font-size="10.00">StepList</text>
</a>
</g>
</g>
<!-- Node27&#45;&gt;Node3 -->
<g id="edge26" class="edge">
<title>Node27&#45;&gt;Node3</title>
<path fill="none" stroke="#9a32cd" stroke-dasharray="5,2" d="M965.66,-443.86C982.59,-440 1002.82,-434.32 1020,-426.48 1052.45,-411.68 1085.99,-386.05 1103.04,-372.14"/>
<polygon fill="#9a32cd" stroke="#9a32cd" points="964.64,-440.5 955.61,-446.03 966.12,-447.34 964.64,-440.5"/>
<text text-anchor="middle" x="1005" y="-439.48" font-family="Helvetica,sans-Serif" font-size="10.00"> sub_</text>
</g>
<!-- Node28&#45;&gt;Node3 -->
<g id="edge29" class="edge">
<title>Node28&#45;&gt;Node3</title>
<path fill="none" stroke="#9a32cd" stroke-dasharray="5,2" d="M441.39,-267.95C517.23,-278.12 708.31,-303.88 868,-326.48 945.51,-337.45 1036.64,-350.9 1083.38,-357.84"/>
<polygon fill="#9a32cd" stroke="#9a32cd" points="441.84,-264.48 431.47,-266.62 440.91,-271.42 441.84,-264.48"/>
<text text-anchor="middle" x="822.5" y="-329.48" font-family="Helvetica,sans-Serif" font-size="10.00"> refs_</text>
</g>
<!-- Node28&#45;&gt;Node28 -->
<g id="edge34" class="edge">
<title>Node28&#45;&gt;Node28</title>
<path fill="none" stroke="#9a32cd" stroke-dasharray="5,2" d="M382.07,-282.51C383.43,-287.61 391.74,-291.48 407,-291.48 430.82,-291.48 437.7,-282.04 427.65,-273.24"/>
<polygon fill="#9a32cd" stroke="#9a32cd" points="385.34,-283.78 386.35,-273.24 378.98,-280.85 385.34,-283.78"/>
<text text-anchor="middle" x="407" y="-294.48" font-family="Helvetica,sans-Serif" font-size="10.00"> parent</text>
</g>
<!-- Node29&#45;&gt;Node3 -->
<g id="edge35" class="edge">
<title>Node29&#45;&gt;Node3</title>
<path fill="none" stroke="#9a32cd" stroke-dasharray="5,2" d="M704.68,-338.01C780.15,-342.52 1001.1,-355.71 1083.26,-360.61"/>
<polygon fill="#9a32cd" stroke="#9a32cd" points="704.44,-334.49 694.24,-337.39 704.02,-341.48 704.44,-334.49"/>
<text text-anchor="middle" x="929" y="-356.48" font-family="Helvetica,sans-Serif" font-size="10.00"> retRef_</text>
</g>
<!-- Node30 -->
<g id="node25" class="node">
<title>Node30</title>
<g id="a_node25"><a xlink:href="interfacemachine_1_1_assignable.html" target="_top" xlink:title="変数（チャネルとコンテナの名前）の抽象化">
<polygon fill="white" stroke="black" points="374.5,-320.98 374.5,-339.98 439.5,-339.98 439.5,-320.98 374.5,-320.98"/>
<text text-anchor="middle" x="407" y="-327.98" font-family="Helvetica,sans-Serif" font-size="10.00">Assignable</text>
</a>
</g>
</g>
<!-- Node30&#45;&gt;Node29 -->
<g id="edge37" class="edge">
<title>Node30&#45;&gt;Node29</title>
<path fill="none" stroke="midnightblue" d="M449.72,-331.41C510.75,-332.77 621.5,-335.24 661.81,-336.14"/>
<polygon fill="midnightblue" stroke="midnightblue" points="449.72,-327.91 439.65,-331.19 449.57,-334.91 449.72,-327.91"/>
</g>
<!-- Node31&#45;&gt;Node1 -->
<g id="edge60" class="edge">
<title>Node31&#45;&gt;Node1</title>
<path fill="none" stroke="midnightblue" d="M1155.95,-98.27C1206.86,-95.42 1294.17,-90.53 1338.67,-88.04"/>
<polygon fill="midnightblue" stroke="midnightblue" points="1155.46,-94.79 1145.67,-98.85 1155.85,-101.78 1155.46,-94.79"/>
</g>
<!-- Node31&#45;&gt;Node2 -->
<g id="edge39" class="edge">
<title>Node31&#45;&gt;Node2</title>
<path fill="none" stroke="midnightblue" d="M1156.03,-98.25C1185.35,-98.88 1224.06,-104.94 1247,-129.48 1277.94,-162.59 1281.92,-312.83 1282.43,-352.73"/>
<polygon fill="midnightblue" stroke="midnightblue" points="1155.71,-94.74 1145.7,-98.23 1155.7,-101.74 1155.71,-94.74"/>
</g>
<!-- Node32&#45;&gt;Node2 -->
<g id="edge42" class="edge">
<title>Node32&#45;&gt;Node2</title>
<path fill="none" stroke="#9a32cd" stroke-dasharray="5,2" d="M962.41,-477.46C1019.94,-457.8 1143.58,-415.13 1247,-376.48 1252.83,-374.3 1259.17,-371.83 1264.85,-369.58"/>
<polygon fill="#9a32cd" stroke="#9a32cd" points="961.11,-474.2 952.78,-480.75 963.37,-480.83 961.11,-474.2"/>
<text text-anchor="middle" x="1115.5" y="-453.48" font-family="Helvetica,sans-Serif" font-size="10.00"> sents_</text>
</g>
<!-- Node33&#45;&gt;Node2 -->
<g id="edge45" class="edge">
<title>Node33&#45;&gt;Node2</title>
<path fill="none" stroke="#9a32cd" stroke-dasharray="5,2" d="M712.97,-843.81C811.91,-865.83 1102,-914.06 1247,-763.48 1275.06,-734.34 1281.4,-429.98 1282.36,-371.99"/>
<polygon fill="#9a32cd" stroke="#9a32cd" points="713.73,-840.39 703.2,-841.58 712.17,-847.22 713.73,-840.39"/>
<text text-anchor="middle" x="1005" y="-868.48" font-family="Helvetica,sans-Serif" font-size="10.00"> calls_</text>
</g>
<!-- Node34&#45;&gt;Node33 -->
<g id="edge48" class="edge">
<title>Node34&#45;&gt;Node33</title>
<path fill="none" stroke="#9a32cd" stroke-dasharray="5,2" d="M442.18,-835.48C497.38,-835.48 604.78,-835.48 652.79,-835.48"/>
<polygon fill="#9a32cd" stroke="#9a32cd" points="441.87,-831.98 431.87,-835.48 441.87,-838.98 441.87,-831.98"/>
<text text-anchor="middle" x="541" y="-838.48" font-family="Helvetica,sans-Serif" font-size="10.00"> callbits_</text>
</g>
<!-- Node35 -->
<g id="node30" class="node">
<title>Node35</title>
<g id="a_node30"><a xlink:href="interfaceformat_1_1_x_formattable_1_1_terminatable.html" target="_top" xlink:title="木構造の終端として清書可能なオブジェクトのクラス">
<polygon fill="white" stroke="red" points="15,-470.98 15,-489.98 149,-489.98 149,-470.98 15,-470.98"/>
<text text-anchor="middle" x="82" y="-477.98" font-family="Helvetica,sans-Serif" font-size="10.00">XFormattable.Terminatable</text>
</a>
</g>
</g>
<!-- Node35&#45;&gt;Node34 -->
<g id="edge49" class="edge">
<title>Node35&#45;&gt;Node34</title>
<path fill="none" stroke="midnightblue" d="M101.87,-497.1C118.34,-511.64 142.84,-533.36 164,-552.48 229.82,-611.95 267.15,-610.37 311,-687.48 330.31,-721.42 308.6,-740.18 329,-773.48 343.43,-797.04 370.17,-815.49 388.02,-825.94"/>
<polygon fill="midnightblue" stroke="midnightblue" points="103.87,-494.2 94.06,-490.21 99.24,-499.45 103.87,-494.2"/>
</g>
<!-- Node35&#45;&gt;Node41 -->
<g id="edge64" class="edge">
<title>Node35&#45;&gt;Node41</title>
<path fill="none" stroke="midnightblue" d="M106,-464.73C125.13,-450.21 151.22,-426.82 164,-399.48 183.08,-358.65 149.15,-228.33 182,-197.48 248.34,-135.17 543.6,-167.04 643.69,-179.93"/>
<polygon fill="midnightblue" stroke="midnightblue" points="103.77,-462.02 97.77,-470.75 107.91,-467.67 103.77,-462.02"/>
</g>
<!-- Node36 -->
<g id="node31" class="node">
<title>Node36</title>
<g id="a_node31"><a xlink:title=" ">
<polygon fill="white" stroke="#bfbfbf" points="42,-934.98 42,-953.98 122,-953.98 122,-934.98 42,-934.98"/>
<text text-anchor="middle" x="82" y="-941.98" font-family="Helvetica,sans-Serif" font-size="10.00">List&lt; Integer &gt;</text>
</a>
</g>
</g>
<!-- Node36&#45;&gt;Node34 -->
<g id="edge52" class="edge">
<title>Node36&#45;&gt;Node34</title>
<path fill="none" stroke="#9a32cd" stroke-dasharray="5,2" d="M115.78,-931.19C162.58,-912.52 251.44,-878.16 329,-854.48 346.65,-849.09 366.92,-844.14 382.23,-840.64"/>
<polygon fill="#9a32cd" stroke="#9a32cd" points="114.44,-927.96 106.46,-934.93 117.04,-934.46 114.44,-927.96"/>
<text text-anchor="middle" x="246.5" y="-905.48" font-family="Helvetica,sans-Serif" font-size="10.00"> idlist</text>
</g>
<!-- Node37 -->
<g id="node32" class="node">
<title>Node37</title>
<g id="a_node32"><a xlink:title=" ">
<polygon fill="white" stroke="#bfbfbf" points="64.5,-972.98 64.5,-991.98 99.5,-991.98 99.5,-972.98 64.5,-972.98"/>
<text text-anchor="middle" x="82" y="-979.98" font-family="Helvetica,sans-Serif" font-size="10.00">long</text>
</a>
</g>
</g>
<!-- Node37&#45;&gt;Node34 -->
<g id="edge53" class="edge">
<title>Node37&#45;&gt;Node34</title>
<path fill="none" stroke="#9a32cd" stroke-dasharray="5,2" d="M109.69,-976.73C125.54,-973.19 146,-968.4 164,-963.48 230.03,-945.43 263.2,-966.49 311,-917.48 331.33,-896.63 308.04,-874.69 329,-854.48 343.07,-840.91 365.23,-836.55 382.16,-835.35"/>
<polygon fill="#9a32cd" stroke="#9a32cd" points="108.55,-973.4 99.53,-978.97 110.05,-980.24 108.55,-973.4"/>
<text text-anchor="middle" x="246.5" y="-961.48" font-family="Helvetica,sans-Serif" font-size="10.00"> MASK_STATE</text>
</g>
<!-- Node38 -->
<g id="node33" class="node">
<title>Node38</title>
<g id="a_node33"><a xlink:title=" ">
<polygon fill="white" stroke="#bfbfbf" points="353.5,-863.98 353.5,-882.98 460.5,-882.98 460.5,-863.98 353.5,-863.98"/>
<text text-anchor="middle" x="407" y="-870.98" font-family="Helvetica,sans-Serif" font-size="10.00">List&lt; machine.Call &gt;</text>
</a>
</g>
</g>
<!-- Node38&#45;&gt;Node33 -->
<g id="edge54" class="edge">
<title>Node38&#45;&gt;Node33</title>
<path fill="none" stroke="#9a32cd" stroke-dasharray="5,2" d="M471.01,-865.28C503.32,-861.01 543.28,-855.61 579,-850.48 604.21,-846.85 633.03,-842.41 652.85,-839.3"/>
<polygon fill="#9a32cd" stroke="#9a32cd" points="470.26,-861.85 460.8,-866.63 471.17,-868.79 470.26,-861.85"/>
<text text-anchor="middle" x="541" y="-863.48" font-family="Helvetica,sans-Serif" font-size="10.00"> list_</text>
</g>
<!-- Node39 -->
<g id="node34" class="node">
<title>Node39</title>
<g id="a_node34"><a xlink:title=" ">
<polygon fill="white" stroke="#bfbfbf" points="1038,-128.98 1038,-147.98 1193,-147.98 1193,-128.98 1038,-128.98"/>
<text text-anchor="middle" x="1115.5" y="-135.98" font-family="Helvetica,sans-Serif" font-size="10.00">Generator&lt; ast.AstDataWriter &gt;</text>
</a>
</g>
</g>
<!-- Node39&#45;&gt;Node2 -->
<g id="edge59" class="edge">
<title>Node39&#45;&gt;Node2</title>
<path fill="none" stroke="#9a32cd" stroke-dasharray="5,2" d="M1203.25,-131.62C1219.44,-134.35 1235.02,-140.28 1247,-151.48 1276.85,-179.38 1281.61,-315.16 1282.36,-352.79"/>
<polygon fill="#9a32cd" stroke="#9a32cd" points="1203.47,-128.12 1193.11,-130.31 1202.58,-135.06 1203.47,-128.12"/>
<text text-anchor="middle" x="1229" y="-154.48" font-family="Helvetica,sans-Serif" font-size="10.00"> wFact_</text>
</g>
<!-- Node40&#45;&gt;Node1 -->
<g id="edge61" class="edge">
<title>Node40&#45;&gt;Node1</title>
<path fill="none" stroke="#9a32cd" stroke-dasharray="5,2" d="M962.99,-58.57C1020.62,-62.23 1143.37,-70.14 1247,-77.48 1278.55,-79.71 1314.76,-82.47 1338.98,-84.34"/>
<polygon fill="#9a32cd" stroke="#9a32cd" points="962.89,-55.05 952.68,-57.91 962.44,-62.04 962.89,-55.05"/>
<text text-anchor="middle" x="1229" y="-80.48" font-family="Helvetica,sans-Serif" font-size="10.00"> tag</text>
</g>
<!-- Node41&#45;&gt;Node40 -->
<g id="edge62" class="edge">
<title>Node41&#45;&gt;Node40</title>
<path fill="none" stroke="midnightblue" d="M699.55,-168.83C718.86,-154.57 748.92,-133.5 777,-118.48 820.73,-95.09 875.24,-74.71 905.35,-64.15"/>
<polygon fill="midnightblue" stroke="midnightblue" points="697.4,-166.07 691.48,-174.86 701.58,-171.68 697.4,-166.07"/>
</g>
</g>
</svg>
