<?xml version="1.0" encoding="UTF-8" standalone="no"?>
<!DOCTYPE svg PUBLIC "-//W3C//DTD SVG 1.1//EN"
 "http://www.w3.org/Graphics/SVG/1.1/DTD/svg11.dtd">
<!-- Generated by graphviz version 2.47.1 (20210417.1919)
 -->
<!-- Title: AstMathOper.IntegerRel Pages: 1 -->
<!--zoomable 360 -->
<svg id="main" version="1.1" xmlns="http://www.w3.org/2000/svg" xmlns:xlink="http://www.w3.org/1999/xlink" xml:space="preserve" onload="init(evt)">
<style type="text/css"><![CDATA[
.edge:hover path { stroke: red; }
.edge:hover polygon { stroke: red; fill: red; }
]]></style>
<script type="text/javascript"><![CDATA[
var edges = document.getElementsByTagName('g');
if (edges && edges.length) {
  for (var i=0;i<edges.length;i++) {
    if (edges[i].id.substr(0,4)=='edge') {
      edges[i].setAttribute('class','edge');
    }
  }
}
]]></script>
        <defs>
                <circle id="rim" cx="0" cy="0" r="7"/>
                <circle id="rim2" cx="0" cy="0" r="3.5"/>
                <g id="zoomPlus">
                        <use xlink:href="#rim" fill="#404040">
                                <set attributeName="fill" to="#808080" begin="zoomplus.mouseover" end="zoomplus.mouseout"/>
                        </use>
                        <path d="M-4,0h8M0,-4v8" fill="none" stroke="white" stroke-width="1.5" pointer-events="none"/>
                </g>
                <g id="zoomMin">
                        <use xlink:href="#rim" fill="#404040">
                                <set attributeName="fill" to="#808080" begin="zoomminus.mouseover" end="zoomminus.mouseout"/>
                        </use>
                        <path d="M-4,0h8" fill="none" stroke="white" stroke-width="1.5" pointer-events="none"/>
                </g>
                <g id="dirArrow">
                        <path fill="none" stroke="white" stroke-width="1.5" d="M0,-3.0v7 M-2.5,-0.5L0,-3.0L2.5,-0.5"/>
                </g>
               <g id="resetDef">
                       <use xlink:href="#rim2" fill="#404040">
                               <set attributeName="fill" to="#808080" begin="reset.mouseover" end="reset.mouseout"/>
                       </use>
               </g>
        </defs>

<script type="text/javascript">
var viewWidth = 883;
var viewHeight = 360;
var sectionId = 'dynsection-1';
</script>
<script xlink:href="svgpan.js"/>
<svg id="graph" class="graph">
<g id="viewport">
<title>AstMathOper.IntegerRel</title>
<polygon fill="white" stroke="transparent" points="-4,4 -4,-356 879,-356 879,4 -4,4"/>
<!-- Node1 -->
<g id="node1" class="node">
<title>Node1</title>
<g id="a_node1"><a xlink:title=" ">
<polygon fill="#bfbfbf" stroke="black" points="753,-7.5 753,-26.5 875,-26.5 875,-7.5 753,-7.5"/>
<text text-anchor="middle" x="814" y="-14.5" font-family="Helvetica,sans-Serif" font-size="10.00">AstMathOper.IntegerRel</text>
</a>
</g>
</g>
<!-- Node2 -->
<g id="node2" class="node">
<title>Node2</title>
<g id="a_node2"><a xlink:title=" ">
<polygon fill="white" stroke="#bfbfbf" points="648,-33.5 648,-52.5 716,-52.5 716,-33.5 648,-33.5"/>
<text text-anchor="middle" x="682" y="-40.5" font-family="Helvetica,sans-Serif" font-size="10.00">AstRelOper</text>
</a>
</g>
</g>
<!-- Node2&#45;&gt;Node1 -->
<g id="edge1" class="edge">
<title>Node2&#45;&gt;Node1</title>
<path fill="none" stroke="midnightblue" d="M726.29,-34.34C738.77,-31.85 752.46,-29.11 765.2,-26.56"/>
<polygon fill="midnightblue" stroke="midnightblue" points="725.26,-30.98 716.14,-36.37 726.63,-37.84 725.26,-30.98"/>
</g>
<!-- Node3 -->
<g id="node3" class="node">
<title>Node3</title>
<g id="a_node3"><a xlink:href="classast_1_1_ast_oper.html" target="_top" xlink:title=" ">
<polygon fill="white" stroke="black" points="558,-47.5 558,-66.5 611,-66.5 611,-47.5 558,-47.5"/>
<text text-anchor="middle" x="584.5" y="-54.5" font-family="Helvetica,sans-Serif" font-size="10.00">AstOper</text>
</a>
</g>
</g>
<!-- Node3&#45;&gt;Node2 -->
<g id="edge2" class="edge">
<title>Node3&#45;&gt;Node2</title>
<path fill="none" stroke="midnightblue" d="M621.03,-51.79C629.79,-50.51 639.13,-49.14 647.78,-47.87"/>
<polygon fill="midnightblue" stroke="midnightblue" points="620.48,-48.33 611.09,-53.25 621.49,-55.26 620.48,-48.33"/>
</g>
<!-- Node4 -->
<g id="node4" class="node">
<title>Node4</title>
<g id="a_node4"><a xlink:href="classast_1_1_ast_node.html" target="_top" xlink:title="タグなしの順アクセスの子供をもてる抽象構文木のノードのクラス。">
<polygon fill="white" stroke="black" points="432,-199.5 432,-218.5 487,-218.5 487,-199.5 432,-199.5"/>
<text text-anchor="middle" x="459.5" y="-206.5" font-family="Helvetica,sans-Serif" font-size="10.00">AstNode</text>
</a>
</g>
</g>
<!-- Node4&#45;&gt;Node3 -->
<g id="edge3" class="edge">
<title>Node4&#45;&gt;Node3</title>
<path fill="none" stroke="midnightblue" d="M474.75,-191.39C500.88,-159.1 555.62,-91.45 575.81,-66.5"/>
<polygon fill="midnightblue" stroke="midnightblue" points="471.76,-189.52 468.19,-199.49 477.21,-193.92 471.76,-189.52"/>
</g>
<!-- Node5 -->
<g id="node5" class="node">
<title>Node5</title>
<g id="a_node5"><a xlink:href="classast_1_1_ast_node_base.html" target="_top" xlink:title=" ">
<polygon fill="white" stroke="red" points="169.5,-332.5 169.5,-351.5 246.5,-351.5 246.5,-332.5 169.5,-332.5"/>
<text text-anchor="middle" x="208" y="-339.5" font-family="Helvetica,sans-Serif" font-size="10.00">AstNodeBase</text>
</a>
</g>
</g>
<!-- Node5&#45;&gt;Node4 -->
<g id="edge4" class="edge">
<title>Node5&#45;&gt;Node4</title>
<path fill="none" stroke="midnightblue" d="M256.34,-331.8C266.24,-329.26 276.54,-326.3 286,-323 329.38,-307.88 341.63,-305.26 380,-280 407.94,-261.61 435.83,-233.48 449.62,-218.76"/>
<polygon fill="midnightblue" stroke="midnightblue" points="255.49,-328.41 246.62,-334.2 257.17,-335.2 255.49,-328.41"/>
</g>
<!-- Node6 -->
<g id="node6" class="node">
<title>Node6</title>
<g id="a_node6"><a xlink:title=" ">
<polygon fill="white" stroke="#bfbfbf" points="0,-104.5 0,-123.5 42,-123.5 42,-104.5 0,-104.5"/>
<text text-anchor="middle" x="21" y="-111.5" font-family="Helvetica,sans-Serif" font-size="10.00">String</text>
</a>
</g>
</g>
<!-- Node6&#45;&gt;Node3 -->
<g id="edge15" class="edge">
<title>Node6&#45;&gt;Node3</title>
<path fill="none" stroke="#9a32cd" stroke-dasharray="5,2" d="M52.11,-107.92C73.71,-103.75 103.55,-98.38 130,-95 311.33,-71.8 358.05,-79.77 540,-62 545.75,-61.44 551.92,-60.77 557.75,-60.11"/>
<polygon fill="#9a32cd" stroke="#9a32cd" points="51.36,-104.5 42.22,-109.86 52.7,-111.37 51.36,-104.5"/>
<text text-anchor="middle" x="342" y="-81" font-family="Helvetica,sans-Serif" font-size="10.00"> op</text>
</g>
<!-- Node6&#45;&gt;Node5 -->
<g id="edge5" class="edge">
<title>Node6&#45;&gt;Node5</title>
<path fill="none" stroke="#9a32cd" stroke-dasharray="5,2" d="M26.06,-133.74C35.85,-175.91 64.89,-274.85 130,-323 141.29,-331.35 155.81,-336.06 169.19,-338.71"/>
<polygon fill="#9a32cd" stroke="#9a32cd" points="29.46,-132.88 23.89,-123.87 22.62,-134.39 29.46,-132.88"/>
<text text-anchor="middle" x="86" y="-320" font-family="Helvetica,sans-Serif" font-size="10.00"> MOD_AST</text>
<text text-anchor="middle" x="86" y="-309" font-family="Helvetica,sans-Serif" font-size="10.00">mod_</text>
</g>
<!-- Node18 -->
<g id="node12" class="node">
<title>Node18</title>
<g id="a_node12"><a xlink:href="classformat_1_1_style.html" target="_top" xlink:title="ノードの表示スタイルに関するプロパティのクラス.">
<polygon fill="white" stroke="red" points="188.5,-104.5 188.5,-123.5 227.5,-123.5 227.5,-104.5 188.5,-104.5"/>
<text text-anchor="middle" x="208" y="-111.5" font-family="Helvetica,sans-Serif" font-size="10.00">Style</text>
</a>
</g>
</g>
<!-- Node6&#45;&gt;Node18 -->
<g id="edge12" class="edge">
<title>Node6&#45;&gt;Node18</title>
<path fill="none" stroke="#9a32cd" stroke-dasharray="5,2" d="M52.26,-114C90.81,-114 156.26,-114 188.26,-114"/>
<polygon fill="#9a32cd" stroke="#9a32cd" points="52.15,-110.5 42.15,-114 52.15,-117.5 52.15,-110.5"/>
<text text-anchor="middle" x="86" y="-194" font-family="Helvetica,sans-Serif" font-size="10.00"> childLPAD</text>
<text text-anchor="middle" x="86" y="-183" font-family="Helvetica,sans-Serif" font-size="10.00">childRPAD</text>
<text text-anchor="middle" x="86" y="-172" font-family="Helvetica,sans-Serif" font-size="10.00">name</text>
<text text-anchor="middle" x="86" y="-161" font-family="Helvetica,sans-Serif" font-size="10.00">operSTR</text>
<text text-anchor="middle" x="86" y="-150" font-family="Helvetica,sans-Serif" font-size="10.00">parenLPAD</text>
<text text-anchor="middle" x="86" y="-139" font-family="Helvetica,sans-Serif" font-size="10.00">parenLPAR</text>
<text text-anchor="middle" x="86" y="-128" font-family="Helvetica,sans-Serif" font-size="10.00">parenRPAD</text>
<text text-anchor="middle" x="86" y="-117" font-family="Helvetica,sans-Serif" font-size="10.00">parenRPAR</text>
</g>
<!-- Node12 -->
<g id="node7" class="node">
<title>Node12</title>
<g id="a_node7"><a xlink:href="interfaceast_1_1_node.html" target="_top" xlink:title=" ">
<polygon fill="white" stroke="red" points="188,-294.5 188,-313.5 228,-313.5 228,-294.5 188,-294.5"/>
<text text-anchor="middle" x="208" y="-301.5" font-family="Helvetica,sans-Serif" font-size="10.00">Node</text>
</a>
</g>
</g>
<!-- Node12&#45;&gt;Node4 -->
<g id="edge6" class="edge">
<title>Node12&#45;&gt;Node4</title>
<path fill="none" stroke="midnightblue" d="M238.01,-297.47C252.5,-294.04 270.26,-289.61 286,-285 328.35,-272.59 339.69,-270.98 380,-253 402.83,-242.82 427.79,-228.18 443.29,-218.63"/>
<polygon fill="midnightblue" stroke="midnightblue" points="237.06,-294.09 228.11,-299.77 238.64,-300.91 237.06,-294.09"/>
</g>
<!-- Node14 -->
<g id="node8" class="node">
<title>Node14</title>
<g id="a_node8"><a xlink:href="interfaceformat_1_1_x_formattable_1_1_navigatable.html" target="_top" xlink:title="木構造の分岐ノードとして清書可能なオブジェクトのクラス">
<polygon fill="white" stroke="red" points="143,-256.5 143,-275.5 273,-275.5 273,-256.5 143,-256.5"/>
<text text-anchor="middle" x="208" y="-263.5" font-family="Helvetica,sans-Serif" font-size="10.00">XFormattable.Navigatable</text>
</a>
</g>
</g>
<!-- Node14&#45;&gt;Node4 -->
<g id="edge7" class="edge">
<title>Node14&#45;&gt;Node4</title>
<path fill="none" stroke="midnightblue" d="M270.34,-254.55C303.02,-248.17 343.83,-239.76 380,-231 397.33,-226.8 416.62,-221.41 431.74,-217.01"/>
<polygon fill="midnightblue" stroke="midnightblue" points="269.62,-251.12 260.47,-256.46 270.95,-257.99 269.62,-251.12"/>
</g>
<!-- Node15 -->
<g id="node9" class="node">
<title>Node15</title>
<g id="a_node9"><a xlink:href="interfaceformat_1_1_x_formattable_1_1_typed_formattable.html" target="_top" xlink:title="ノードの型情報をもつ書式出力可能なオブジェクトのインタフェース．">
<polygon fill="white" stroke="red" points="130,-218.5 130,-237.5 286,-237.5 286,-218.5 130,-218.5"/>
<text text-anchor="middle" x="208" y="-225.5" font-family="Helvetica,sans-Serif" font-size="10.00">XFormattable.TypedFormattable</text>
</a>
</g>
</g>
<!-- Node15&#45;&gt;Node4 -->
<g id="edge8" class="edge">
<title>Node15&#45;&gt;Node4</title>
<path fill="none" stroke="midnightblue" d="M296.27,-221.35C343.94,-217.72 399.66,-213.48 431.83,-211.03"/>
<polygon fill="midnightblue" stroke="midnightblue" points="295.94,-217.87 286.23,-222.12 296.47,-224.85 295.94,-217.87"/>
</g>
<!-- Node16 -->
<g id="node10" class="node">
<title>Node16</title>
<g id="a_node10"><a xlink:title=" ">
<polygon fill="white" stroke="#bfbfbf" points="163,-180.5 163,-199.5 253,-199.5 253,-180.5 163,-180.5"/>
<text text-anchor="middle" x="208" y="-187.5" font-family="Helvetica,sans-Serif" font-size="10.00">List&lt; ast.Node &gt;</text>
</a>
</g>
</g>
<!-- Node16&#45;&gt;Node4 -->
<g id="edge9" class="edge">
<title>Node16&#45;&gt;Node4</title>
<path fill="none" stroke="#9a32cd" stroke-dasharray="5,2" d="M263.42,-192.41C297.05,-194.09 341.07,-196.63 380,-200 397.22,-201.49 416.51,-203.69 431.65,-205.55"/>
<polygon fill="#9a32cd" stroke="#9a32cd" points="263.5,-188.91 253.34,-191.91 263.15,-195.9 263.5,-188.91"/>
<text text-anchor="middle" x="342" y="-203" font-family="Helvetica,sans-Serif" font-size="10.00"> children</text>
</g>
<!-- Node17 -->
<g id="node11" class="node">
<title>Node17</title>
<g id="a_node11"><a xlink:title=" ">
<polygon fill="white" stroke="#bfbfbf" points="182,-142.5 182,-161.5 234,-161.5 234,-142.5 182,-142.5"/>
<text text-anchor="middle" x="208" y="-149.5" font-family="Helvetica,sans-Serif" font-size="10.00">Boolean</text>
</a>
</g>
</g>
<!-- Node17&#45;&gt;Node4 -->
<g id="edge10" class="edge">
<title>Node17&#45;&gt;Node4</title>
<path fill="none" stroke="#9a32cd" stroke-dasharray="5,2" d="M244.43,-155.41C279.33,-159.28 333.95,-166.71 380,-179 399.88,-184.3 421.67,-192.87 437.24,-199.49"/>
<polygon fill="#9a32cd" stroke="#9a32cd" points="244.58,-151.91 234.26,-154.33 243.83,-158.87 244.58,-151.91"/>
<text text-anchor="middle" x="342" y="-182" font-family="Helvetica,sans-Serif" font-size="10.00"> DEBUG_CHILD</text>
</g>
<!-- Node18&#45;&gt;Node4 -->
<g id="edge11" class="edge">
<title>Node18&#45;&gt;Node4</title>
<path fill="none" stroke="#9a32cd" stroke-dasharray="5,2" d="M237.57,-115.65C272.56,-118.57 332.97,-126.52 380,-148 408.26,-160.91 435.59,-185.82 449.32,-199.48"/>
<polygon fill="#9a32cd" stroke="#9a32cd" points="237.81,-112.16 227.57,-114.9 237.28,-119.14 237.81,-112.16"/>
<text text-anchor="middle" x="342" y="-151" font-family="Helvetica,sans-Serif" font-size="10.00"> sty</text>
</g>
<!-- Node19 -->
<g id="node13" class="node">
<title>Node19</title>
<g id="a_node13"><a xlink:href="interfacecmd_1_1_generatable_1_1_evaluatable.html" target="_top" xlink:title="評価して値を返すノードのインタフェース．必ずしもコードを生成しなくても良い．">
<polygon fill="white" stroke="black" points="398,-28.5 398,-47.5 521,-47.5 521,-28.5 398,-28.5"/>
<text text-anchor="middle" x="459.5" y="-35.5" font-family="Helvetica,sans-Serif" font-size="10.00">Generatable.Evaluatable</text>
</a>
</g>
</g>
<!-- Node19&#45;&gt;Node3 -->
<g id="edge13" class="edge">
<title>Node19&#45;&gt;Node3</title>
<path fill="none" stroke="midnightblue" d="M531.27,-48.93C540.78,-50.4 549.99,-51.82 557.97,-53.06"/>
<polygon fill="midnightblue" stroke="midnightblue" points="531.7,-45.46 521.28,-47.39 530.63,-52.37 531.7,-45.46"/>
</g>
<!-- Node20 -->
<g id="node14" class="node">
<title>Node20</title>
<g id="a_node14"><a xlink:href="interfacecmd_1_1_generatable.html" target="_top" xlink:title="変換してコードを生成できるノードのインタフェース.">
<polygon fill="white" stroke="black" points="173.5,-6.5 173.5,-25.5 242.5,-25.5 242.5,-6.5 173.5,-6.5"/>
<text text-anchor="middle" x="208" y="-13.5" font-family="Helvetica,sans-Serif" font-size="10.00">Generatable</text>
</a>
</g>
</g>
<!-- Node20&#45;&gt;Node1 -->
<g id="edge16" class="edge">
<title>Node20&#45;&gt;Node1</title>
<path fill="none" stroke="midnightblue" d="M252.95,-11.47C302.75,-6.74 386.37,0 458.5,0 458.5,0 458.5,0 683,0 709.74,0 739.33,-3.58 763.5,-7.46"/>
<polygon fill="midnightblue" stroke="midnightblue" points="252.47,-8 242.85,-12.45 253.15,-14.97 252.47,-8"/>
</g>
<!-- Node20&#45;&gt;Node19 -->
<g id="edge14" class="edge">
<title>Node20&#45;&gt;Node19</title>
<path fill="none" stroke="midnightblue" d="M252.67,-19.85C292.84,-23.39 352.81,-28.68 397.67,-32.64"/>
<polygon fill="midnightblue" stroke="midnightblue" points="252.92,-16.36 242.65,-18.97 252.3,-23.33 252.92,-16.36"/>
</g>
</g>
</svg>
        <g id="navigator" transform="translate(0 0)" fill="#404254">
                <rect fill="#f2f5e9" fill-opacity="0.5" stroke="#606060" stroke-width=".5" x="0" y="0" width="60" height="60"/>
                <use id="zoomplus" xlink:href="#zoomPlus" x="17" y="9" onmousedown="handleZoom(evt,'in')"/>
                <use id="zoomminus" xlink:href="#zoomMin" x="42" y="9" onmousedown="handleZoom(evt,'out')"/>
                <use id="reset" xlink:href="#resetDef" x="30" y="36" onmousedown="handleReset()"/>
                <g id="arrowUp" xlink:href="#dirArrow" transform="translate(30 24)" onmousedown="handlePan(0,-1)">
                  <use xlink:href="#rim" fill="#404040">
                        <set attributeName="fill" to="#808080" begin="arrowUp.mouseover" end="arrowUp.mouseout"/>
                  </use>
                  <path fill="none" stroke="white" stroke-width="1.5" d="M0,-3.0v7 M-2.5,-0.5L0,-3.0L2.5,-0.5"/>
                </g>
                <g id="arrowRight" xlink:href="#dirArrow" transform="rotate(90) translate(36 -43)" onmousedown="handlePan(1,0)">
                  <use xlink:href="#rim" fill="#404040">
                        <set attributeName="fill" to="#808080" begin="arrowRight.mouseover" end="arrowRight.mouseout"/>
                  </use>
                  <path fill="none" stroke="white" stroke-width="1.5" d="M0,-3.0v7 M-2.5,-0.5L0,-3.0L2.5,-0.5"/>
                </g>
                <g id="arrowDown" xlink:href="#dirArrow" transform="rotate(180) translate(-30 -48)" onmousedown="handlePan(0,1)">
                  <use xlink:href="#rim" fill="#404040">
                        <set attributeName="fill" to="#808080" begin="arrowDown.mouseover" end="arrowDown.mouseout"/>
                  </use>
                  <path fill="none" stroke="white" stroke-width="1.5" d="M0,-3.0v7 M-2.5,-0.5L0,-3.0L2.5,-0.5"/>
                </g>
                <g id="arrowLeft" xlink:href="#dirArrow" transform="rotate(270) translate(-36 17)" onmousedown="handlePan(-1,0)">
                  <use xlink:href="#rim" fill="#404040">
                        <set attributeName="fill" to="#808080" begin="arrowLeft.mouseover" end="arrowLeft.mouseout"/>
                  </use>
                  <path fill="none" stroke="white" stroke-width="1.5" d="M0,-3.0v7 M-2.5,-0.5L0,-3.0L2.5,-0.5"/>
                </g>
        </g>
        <svg viewBox="0 0 15 15" width="100%" height="30px" preserveAspectRatio="xMaxYMin meet">
         <g id="arrow_out" transform="scale(0.3 0.3)">
          <a xlink:href="classast_1_1_ast_math_oper_1_1_integer_rel__coll__graph_org.svg" target="_base">
           <rect id="button" ry="5" rx="5" y="6" x="6" height="38" width="38"
                fill="#f2f5e9" fill-opacity="0.5" stroke="#606060" stroke-width="1.0"/>
           <path id="arrow"
             d="M 11.500037,31.436501 C 11.940474,20.09759 22.043105,11.32322 32.158766,21.979434 L 37.068811,17.246167 C 37.068811,17.246167 37.088388,32 37.088388,32 L 22.160133,31.978069 C 22.160133,31.978069 26.997745,27.140456 26.997745,27.140456 C 18.528582,18.264221 13.291696,25.230495 11.500037,31.436501 z"
             style="fill:#404040;"/>
          </a>
         </g>
        </svg>
</svg>
