<?xml version="1.0" encoding="UTF-8" standalone="no"?>
<!DOCTYPE svg PUBLIC "-//W3C//DTD SVG 1.1//EN"
 "http://www.w3.org/Graphics/SVG/1.1/DTD/svg11.dtd">
<!-- Generated by graphviz version 2.47.1 (20210417.1919)
 -->
<!-- Title: CommandBase.CmdHALT Pages: 1 -->
<svg width="398pt" height="209pt"
 viewBox="0.00 0.00 398.00 209.00" xmlns="http://www.w3.org/2000/svg" xmlns:xlink="http://www.w3.org/1999/xlink">
<g id="graph0" class="graph" transform="scale(1 1) rotate(0) translate(4 205)">
<title>CommandBase.CmdHALT</title>
<polygon fill="white" stroke="transparent" points="-4,4 -4,-205 394,-205 394,4 -4,4"/>
<!-- Node1 -->
<g id="node1" class="node">
<title>Node1</title>
<g id="a_node1"><a xlink:title="停止のマーカーになる命令">
<polygon fill="#bfbfbf" stroke="black" points="177,-0.5 177,-19.5 311,-19.5 311,-0.5 177,-0.5"/>
<text text-anchor="middle" x="244" y="-7.5" font-family="Helvetica,sans-Serif" font-size="10.00">CommandBase.CmdHALT</text>
</a>
</g>
</g>
<!-- Node2 -->
<g id="node2" class="node">
<title>Node2</title>
<g id="a_node2"><a xlink:href="classcmd_1_1_command_base.html" target="_top" xlink:title="局所変数環境に値を書き込む式の抽象クラス.">
<polygon fill="white" stroke="black" points="202,-57.5 202,-76.5 286,-76.5 286,-57.5 202,-57.5"/>
<text text-anchor="middle" x="244" y="-64.5" font-family="Helvetica,sans-Serif" font-size="10.00">CommandBase</text>
</a>
</g>
</g>
<!-- Node2&#45;&gt;Node1 -->
<g id="edge1" class="edge">
<title>Node2&#45;&gt;Node1</title>
<path fill="none" stroke="midnightblue" d="M244,-47.12C244,-37.82 244,-27.06 244,-19.71"/>
<polygon fill="midnightblue" stroke="midnightblue" points="240.5,-47.41 244,-57.41 247.5,-47.41 240.5,-47.41"/>
</g>
<!-- Node3 -->
<g id="node3" class="node">
<title>Node3</title>
<g id="a_node3"><a xlink:href="interfacemachine_1_1_cmd.html" target="_top" xlink:title="仮装命令のインタフェース.">
<polygon fill="white" stroke="black" points="0,-124.5 0,-143.5 38,-143.5 38,-124.5 0,-124.5"/>
<text text-anchor="middle" x="19" y="-131.5" font-family="Helvetica,sans-Serif" font-size="10.00">Cmd</text>
</a>
</g>
</g>
<!-- Node3&#45;&gt;Node2 -->
<g id="edge2" class="edge">
<title>Node3&#45;&gt;Node2</title>
<path fill="none" stroke="midnightblue" d="M48.09,-123.74C111.99,-104.48 175.84,-86.68 212.86,-76.5"/>
<polygon fill="midnightblue" stroke="midnightblue" points="46.81,-120.47 38.25,-126.72 48.84,-127.17 46.81,-120.47"/>
</g>
<!-- Node4 -->
<g id="node4" class="node">
<title>Node4</title>
<g id="a_node4"><a xlink:href="interfaceformat_1_1_x_formattable_1_1_custom_formattable.html" target="_top" xlink:title="カスタム清書出力器をもつオブジェクトのクラス．">
<polygon fill="white" stroke="black" points="56,-124.5 56,-143.5 220,-143.5 220,-124.5 56,-124.5"/>
<text text-anchor="middle" x="138" y="-131.5" font-family="Helvetica,sans-Serif" font-size="10.00">XFormattable.CustomFormattable</text>
</a>
</g>
</g>
<!-- Node4&#45;&gt;Node2 -->
<g id="edge3" class="edge">
<title>Node4&#45;&gt;Node2</title>
<path fill="none" stroke="midnightblue" d="M160.92,-118.94C181.92,-106.07 212.32,-87.43 229.93,-76.63"/>
<polygon fill="midnightblue" stroke="midnightblue" points="158.99,-116.02 152.3,-124.23 162.65,-121.99 158.99,-116.02"/>
</g>
<!-- Node5 -->
<g id="node5" class="node">
<title>Node5</title>
<g id="a_node5"><a xlink:href="interfaceformat_1_1_x_formattable.html" target="_top" xlink:title="入れ子フォーマット出力可能なオブジェクトのインタフェース。">
<polygon fill="white" stroke="black" points="100.5,-181.5 100.5,-200.5 175.5,-200.5 175.5,-181.5 100.5,-181.5"/>
<text text-anchor="middle" x="138" y="-188.5" font-family="Helvetica,sans-Serif" font-size="10.00">XFormattable</text>
</a>
</g>
</g>
<!-- Node5&#45;&gt;Node4 -->
<g id="edge4" class="edge">
<title>Node5&#45;&gt;Node4</title>
<path fill="none" stroke="midnightblue" d="M138,-171.12C138,-161.82 138,-151.06 138,-143.71"/>
<polygon fill="midnightblue" stroke="midnightblue" points="134.5,-171.41 138,-181.41 141.5,-171.41 134.5,-171.41"/>
</g>
<!-- Node6 -->
<g id="node6" class="node">
<title>Node6</title>
<g id="a_node6"><a xlink:title=" ">
<polygon fill="white" stroke="#bfbfbf" points="238.5,-124.5 238.5,-143.5 321.5,-143.5 321.5,-124.5 238.5,-124.5"/>
<text text-anchor="middle" x="280" y="-131.5" font-family="Helvetica,sans-Serif" font-size="10.00">static ReportKt</text>
</a>
</g>
</g>
<!-- Node6&#45;&gt;Node2 -->
<g id="edge5" class="edge">
<title>Node6&#45;&gt;Node2</title>
<path fill="none" stroke="#9a32cd" stroke-dasharray="5,2" d="M270.12,-115.16C263.18,-102.63 254.2,-86.41 248.78,-76.63"/>
<polygon fill="#9a32cd" stroke="#9a32cd" points="267.24,-117.18 275.14,-124.23 273.36,-113.79 267.24,-117.18"/>
<text text-anchor="middle" x="276" y="-98" font-family="Helvetica,sans-Serif" font-size="10.00"> repo</text>
</g>
<!-- Node7 -->
<g id="node7" class="node">
<title>Node7</title>
<g id="a_node7"><a xlink:title=" ">
<polygon fill="white" stroke="#bfbfbf" points="340,-124.5 340,-143.5 390,-143.5 390,-124.5 340,-124.5"/>
<text text-anchor="middle" x="365" y="-131.5" font-family="Helvetica,sans-Serif" font-size="10.00">boolean</text>
</a>
</g>
</g>
<!-- Node7&#45;&gt;Node2 -->
<g id="edge6" class="edge">
<title>Node7&#45;&gt;Node2</title>
<path fill="none" stroke="#9a32cd" stroke-dasharray="5,2" d="M339.79,-119.46C315.8,-106.57 280.44,-87.57 260.06,-76.63"/>
<polygon fill="#9a32cd" stroke="#9a32cd" points="338.22,-122.58 348.68,-124.23 341.53,-116.42 338.22,-122.58"/>
<text text-anchor="middle" x="345" y="-98" font-family="Helvetica,sans-Serif" font-size="10.00"> DEBUG_CMD</text>
</g>
</g>
</svg>
