<?xml version="1.0" encoding="UTF-8" standalone="no"?>
<!DOCTYPE svg PUBLIC "-//W3C//DTD SVG 1.1//EN"
 "http://www.w3.org/Graphics/SVG/1.1/DTD/svg11.dtd">
<!-- Generated by graphviz version 2.47.0 (20210316.0004)
 -->
<!-- Title: IdMask Pages: 1 -->
<svg width="595pt" height="174pt"
 viewBox="0.00 0.00 595.00 174.00" xmlns="http://www.w3.org/2000/svg" xmlns:xlink="http://www.w3.org/1999/xlink">
<g id="graph0" class="graph" transform="scale(1 1) rotate(0) translate(4 170)">
<title>IdMask</title>
<polygon fill="white" stroke="transparent" points="-4,4 -4,-170 591,-170 591,4 -4,4"/>
<!-- Node1 -->
<g id="node1" class="node">
<title>Node1</title>
<g id="a_node1"><a xlink:title="@IDのマスク">
<polygon fill="#bfbfbf" stroke="black" points="284.5,-0.5 284.5,-19.5 333.5,-19.5 333.5,-0.5 284.5,-0.5"/>
<text text-anchor="middle" x="309" y="-7.5" font-family="Helvetica,sans-Serif" font-size="10.00">IdMask</text>
</a>
</g>
</g>
<!-- Node2 -->
<g id="node2" class="node">
<title>Node2</title>
<g id="a_node2"><a xlink:href="interfaceformat_1_1_x_formattable_1_1_terminatable.html" target="_top" xlink:title="木構造の終端として清書可能なオブジェクトのクラス">
<polygon fill="white" stroke="black" points="0,-89.5 0,-108.5 134,-108.5 134,-89.5 0,-89.5"/>
<text text-anchor="middle" x="67" y="-96.5" font-family="Helvetica,sans-Serif" font-size="10.00">XFormattable.Terminatable</text>
</a>
</g>
</g>
<!-- Node2&#45;&gt;Node1 -->
<g id="edge1" class="edge">
<title>Node2&#45;&gt;Node1</title>
<path fill="none" stroke="midnightblue" d="M100.26,-86.04C149.83,-68.22 241.9,-35.12 285.26,-19.53"/>
<polygon fill="midnightblue" stroke="midnightblue" points="98.87,-82.82 90.64,-89.5 101.24,-89.41 98.87,-82.82"/>
</g>
<!-- Node3 -->
<g id="node3" class="node">
<title>Node3</title>
<g id="a_node3"><a xlink:href="interfaceformat_1_1_x_formattable.html" target="_top" xlink:title="入れ子フォーマット出力可能なオブジェクトのインタフェース。">
<polygon fill="white" stroke="black" points="112.5,-146.5 112.5,-165.5 187.5,-165.5 187.5,-146.5 112.5,-146.5"/>
<text text-anchor="middle" x="150" y="-153.5" font-family="Helvetica,sans-Serif" font-size="10.00">XFormattable</text>
</a>
</g>
</g>
<!-- Node3&#45;&gt;Node2 -->
<g id="edge2" class="edge">
<title>Node3&#45;&gt;Node2</title>
<path fill="none" stroke="midnightblue" d="M128.61,-140.82C113.19,-130.61 92.88,-117.15 79.88,-108.53"/>
<polygon fill="midnightblue" stroke="midnightblue" points="126.76,-143.8 137.03,-146.41 130.63,-137.96 126.76,-143.8"/>
</g>
<!-- Node4 -->
<g id="node4" class="node">
<title>Node4</title>
<g id="a_node4"><a xlink:href="interfaceformat_1_1_x_formattable_1_1_custom_formattable.html" target="_top" xlink:title="カスタム清書出力器をもつオブジェクトのクラス．">
<polygon fill="white" stroke="black" points="152,-89.5 152,-108.5 316,-108.5 316,-89.5 152,-89.5"/>
<text text-anchor="middle" x="234" y="-96.5" font-family="Helvetica,sans-Serif" font-size="10.00">XFormattable.CustomFormattable</text>
</a>
</g>
</g>
<!-- Node3&#45;&gt;Node4 -->
<g id="edge4" class="edge">
<title>Node3&#45;&gt;Node4</title>
<path fill="none" stroke="midnightblue" d="M171.65,-140.82C187.26,-130.61 207.81,-117.15 220.97,-108.53"/>
<polygon fill="midnightblue" stroke="midnightblue" points="169.57,-138 163.12,-146.41 173.41,-143.86 169.57,-138"/>
</g>
<!-- Node4&#45;&gt;Node1 -->
<g id="edge3" class="edge">
<title>Node4&#45;&gt;Node1</title>
<path fill="none" stroke="midnightblue" d="M248.01,-81.74C263.87,-63.35 289.12,-34.06 301.56,-19.62"/>
<polygon fill="midnightblue" stroke="midnightblue" points="245.34,-79.48 241.47,-89.34 250.65,-84.05 245.34,-79.48"/>
</g>
<!-- Node5 -->
<g id="node5" class="node">
<title>Node5</title>
<g id="a_node5"><a xlink:title=" ">
<polygon fill="white" stroke="#bfbfbf" points="334.5,-89.5 334.5,-108.5 363.5,-108.5 363.5,-89.5 334.5,-89.5"/>
<text text-anchor="middle" x="349" y="-96.5" font-family="Helvetica,sans-Serif" font-size="10.00">int</text>
</a>
</g>
</g>
<!-- Node5&#45;&gt;Node1 -->
<g id="edge5" class="edge">
<title>Node5&#45;&gt;Node1</title>
<path fill="none" stroke="#9a32cd" stroke-dasharray="5,2" d="M325.49,-86.91C319.36,-82.82 313.5,-77.54 310,-71 301.26,-54.65 304.19,-32.03 306.79,-19.76"/>
<polygon fill="#9a32cd" stroke="#9a32cd" points="324.01,-90.1 334.41,-92.08 327.51,-84.04 324.01,-90.1"/>
<text text-anchor="middle" x="374.5" y="-63" font-family="Helvetica,sans-Serif" font-size="10.00"> OUTPUT_MIN_BIT_WIDTH</text>
<text text-anchor="middle" x="374.5" y="-52" font-family="Helvetica,sans-Serif" font-size="10.00">maxState</text>
<text text-anchor="middle" x="374.5" y="-41" font-family="Helvetica,sans-Serif" font-size="10.00">numStates</text>
</g>
<!-- Node6 -->
<g id="node6" class="node">
<title>Node6</title>
<g id="a_node6"><a xlink:title=" ">
<polygon fill="white" stroke="#bfbfbf" points="421,-89.5 421,-108.5 501,-108.5 501,-89.5 421,-89.5"/>
<text text-anchor="middle" x="461" y="-96.5" font-family="Helvetica,sans-Serif" font-size="10.00">List&lt; Integer &gt;</text>
</a>
</g>
</g>
<!-- Node6&#45;&gt;Node1 -->
<g id="edge6" class="edge">
<title>Node6&#45;&gt;Node1</title>
<path fill="none" stroke="#9a32cd" stroke-dasharray="5,2" d="M458.9,-79.08C456.41,-65.67 450.94,-48.31 439,-38 423.47,-24.6 366.69,-16.78 333.53,-13.26"/>
<polygon fill="#9a32cd" stroke="#9a32cd" points="455.47,-79.78 460.38,-89.17 462.39,-78.76 455.47,-79.78"/>
<text text-anchor="middle" x="468" y="-52" font-family="Helvetica,sans-Serif" font-size="10.00"> idlist</text>
</g>
<!-- Node7 -->
<g id="node7" class="node">
<title>Node7</title>
<g id="a_node7"><a xlink:title=" ">
<polygon fill="white" stroke="#bfbfbf" points="519.5,-89.5 519.5,-108.5 554.5,-108.5 554.5,-89.5 519.5,-89.5"/>
<text text-anchor="middle" x="537" y="-96.5" font-family="Helvetica,sans-Serif" font-size="10.00">long</text>
</a>
</g>
</g>
<!-- Node7&#45;&gt;Node1 -->
<g id="edge7" class="edge">
<title>Node7&#45;&gt;Node1</title>
<path fill="none" stroke="#9a32cd" stroke-dasharray="5,2" d="M526.58,-80.66C517.25,-66.75 502.23,-47.96 484,-38 458.58,-24.1 375.71,-16.03 333.78,-12.74"/>
<polygon fill="#9a32cd" stroke="#9a32cd" points="523.78,-82.79 532.11,-89.34 529.69,-79.03 523.78,-82.79"/>
<text text-anchor="middle" x="552.5" y="-52" font-family="Helvetica,sans-Serif" font-size="10.00"> MASK_STATE</text>
</g>
</g>
</svg>
