<?xml version="1.0" encoding="UTF-8" standalone="no"?>
<!DOCTYPE svg PUBLIC "-//W3C//DTD SVG 1.1//EN"
 "http://www.w3.org/Graphics/SVG/1.1/DTD/svg11.dtd">
<!-- Generated by graphviz version 2.47.0 (20210316.0004)
 -->
<!-- Title: AstMathOper.IntegerRel Pages: 1 -->
<svg width="783pt" height="410pt"
 viewBox="0.00 0.00 783.00 410.00" xmlns="http://www.w3.org/2000/svg" xmlns:xlink="http://www.w3.org/1999/xlink">
<g id="graph0" class="graph" transform="scale(1 1) rotate(0) translate(4 406)">
<title>AstMathOper.IntegerRel</title>
<polygon fill="white" stroke="transparent" points="-4,4 -4,-406 779,-406 779,4 -4,4"/>
<!-- Node1 -->
<g id="node1" class="node">
<title>Node1</title>
<g id="a_node1"><a xlink:title=" ">
<polygon fill="#bfbfbf" stroke="black" points="653,-0.5 653,-19.5 775,-19.5 775,-0.5 653,-0.5"/>
<text text-anchor="middle" x="714" y="-7.5" font-family="Helvetica,sans-Serif" font-size="10.00">AstMathOper.IntegerRel</text>
</a>
</g>
</g>
<!-- Node2 -->
<g id="node2" class="node">
<title>Node2</title>
<g id="a_node2"><a xlink:title=" ">
<polygon fill="white" stroke="#bfbfbf" points="642,-57.5 642,-76.5 710,-76.5 710,-57.5 642,-57.5"/>
<text text-anchor="middle" x="676" y="-64.5" font-family="Helvetica,sans-Serif" font-size="10.00">AstRelOper</text>
</a>
</g>
</g>
<!-- Node2&#45;&gt;Node1 -->
<g id="edge1" class="edge">
<title>Node2&#45;&gt;Node1</title>
<path fill="none" stroke="midnightblue" d="M687.79,-48.94C694.48,-39.25 702.57,-27.54 707.98,-19.71"/>
<polygon fill="midnightblue" stroke="midnightblue" points="684.74,-47.19 681.94,-57.41 690.5,-51.17 684.74,-47.19"/>
</g>
<!-- Node3 -->
<g id="node3" class="node">
<title>Node3</title>
<g id="a_node3"><a xlink:href="classast_1_1_ast_oper.html" target="_top" xlink:title=" ">
<polygon fill="white" stroke="black" points="575.5,-114.5 575.5,-133.5 628.5,-133.5 628.5,-114.5 575.5,-114.5"/>
<text text-anchor="middle" x="602" y="-121.5" font-family="Helvetica,sans-Serif" font-size="10.00">AstOper</text>
</a>
</g>
</g>
<!-- Node3&#45;&gt;Node2 -->
<g id="edge2" class="edge">
<title>Node3&#45;&gt;Node2</title>
<path fill="none" stroke="midnightblue" d="M621.8,-108.29C635.35,-98.21 652.88,-85.19 664.27,-76.71"/>
<polygon fill="midnightblue" stroke="midnightblue" points="619.5,-105.63 613.56,-114.41 623.68,-111.25 619.5,-105.63"/>
</g>
<!-- Node4 -->
<g id="node4" class="node">
<title>Node4</title>
<g id="a_node4"><a xlink:href="classast_1_1_ast_node.html" target="_top" xlink:title="タグなしの順アクセスの子供をもてる抽象構文木のノードのクラス。">
<polygon fill="white" stroke="black" points="366.5,-171.5 366.5,-190.5 421.5,-190.5 421.5,-171.5 366.5,-171.5"/>
<text text-anchor="middle" x="394" y="-178.5" font-family="Helvetica,sans-Serif" font-size="10.00">AstNode</text>
</a>
</g>
</g>
<!-- Node4&#45;&gt;Node3 -->
<g id="edge3" class="edge">
<title>Node4&#45;&gt;Node3</title>
<path fill="none" stroke="midnightblue" d="M431.35,-170.12C472.79,-159.16 538.66,-141.75 575.25,-132.07"/>
<polygon fill="midnightblue" stroke="midnightblue" points="430.39,-166.76 421.62,-172.7 432.18,-173.52 430.39,-166.76"/>
</g>
<!-- Node5 -->
<g id="node5" class="node">
<title>Node5</title>
<g id="a_node5"><a xlink:href="classast_1_1_ast_node_base.html" target="_top" xlink:title=" ">
<polygon fill="white" stroke="red" points="392.5,-238.5 392.5,-257.5 469.5,-257.5 469.5,-238.5 392.5,-238.5"/>
<text text-anchor="middle" x="431" y="-245.5" font-family="Helvetica,sans-Serif" font-size="10.00">AstNodeBase</text>
</a>
</g>
</g>
<!-- Node5&#45;&gt;Node4 -->
<g id="edge4" class="edge">
<title>Node5&#45;&gt;Node4</title>
<path fill="none" stroke="midnightblue" d="M430.57,-227.89C429.77,-221.57 428.15,-214.7 425,-209 420.92,-201.63 414.02,-195.32 407.76,-190.65"/>
<polygon fill="midnightblue" stroke="midnightblue" points="427.11,-228.57 431.28,-238.31 434.1,-228.09 427.11,-228.57"/>
</g>
<!-- Node6 -->
<g id="node6" class="node">
<title>Node6</title>
<g id="a_node6"><a xlink:title=" ">
<polygon fill="white" stroke="#bfbfbf" points="485,-382.5 485,-401.5 527,-401.5 527,-382.5 485,-382.5"/>
<text text-anchor="middle" x="506" y="-389.5" font-family="Helvetica,sans-Serif" font-size="10.00">String</text>
</a>
</g>
</g>
<!-- Node6&#45;&gt;Node3 -->
<g id="edge13" class="edge">
<title>Node6&#45;&gt;Node3</title>
<path fill="none" stroke="#9a32cd" stroke-dasharray="5,2" d="M536.58,-381.31C545.02,-377.23 553.4,-371.61 559,-364 610.58,-293.91 575.42,-256.43 592,-171 594.52,-158 597.86,-143.03 599.97,-133.79"/>
<polygon fill="#9a32cd" stroke="#9a32cd" points="535.01,-378.18 527.15,-385.29 537.73,-384.63 535.01,-378.18"/>
<text text-anchor="middle" x="595" y="-212" font-family="Helvetica,sans-Serif" font-size="10.00"> op</text>
</g>
<!-- Node6&#45;&gt;Node5 -->
<g id="edge5" class="edge">
<title>Node6&#45;&gt;Node5</title>
<path fill="none" stroke="#9a32cd" stroke-dasharray="5,2" d="M475.51,-382.08C466.34,-377.98 457.11,-372.15 451,-364 426.32,-331.09 428.21,-278.06 430.04,-257.51"/>
<polygon fill="#9a32cd" stroke="#9a32cd" points="474.31,-385.38 484.9,-385.76 476.87,-378.86 474.31,-385.38"/>
<text text-anchor="middle" x="477" y="-323" font-family="Helvetica,sans-Serif" font-size="10.00"> MOD_AST</text>
<text text-anchor="middle" x="477" y="-312" font-family="Helvetica,sans-Serif" font-size="10.00">mod_</text>
</g>
<!-- Node16 -->
<g id="node10" class="node">
<title>Node16</title>
<g id="a_node10"><a xlink:href="classformat_1_1_style.html" target="_top" xlink:title="ノードの表示スタイルに関するプロパティのクラス.">
<polygon fill="white" stroke="red" points="487.5,-238.5 487.5,-257.5 526.5,-257.5 526.5,-238.5 487.5,-238.5"/>
<text text-anchor="middle" x="507" y="-245.5" font-family="Helvetica,sans-Serif" font-size="10.00">Style</text>
</a>
</g>
</g>
<!-- Node6&#45;&gt;Node16 -->
<g id="edge10" class="edge">
<title>Node6&#45;&gt;Node16</title>
<path fill="none" stroke="#9a32cd" stroke-dasharray="5,2" d="M506.13,-372.11C506.35,-340.93 506.78,-279.93 506.94,-257.52"/>
<polygon fill="#9a32cd" stroke="#9a32cd" points="502.63,-372.09 506.06,-382.12 509.63,-372.14 502.63,-372.09"/>
<text text-anchor="middle" x="533" y="-356" font-family="Helvetica,sans-Serif" font-size="10.00"> childLPAD</text>
<text text-anchor="middle" x="533" y="-345" font-family="Helvetica,sans-Serif" font-size="10.00">childRPAD</text>
<text text-anchor="middle" x="533" y="-334" font-family="Helvetica,sans-Serif" font-size="10.00">name</text>
<text text-anchor="middle" x="533" y="-323" font-family="Helvetica,sans-Serif" font-size="10.00">operSTR</text>
<text text-anchor="middle" x="533" y="-312" font-family="Helvetica,sans-Serif" font-size="10.00">parenLPAD</text>
<text text-anchor="middle" x="533" y="-301" font-family="Helvetica,sans-Serif" font-size="10.00">parenLPAR</text>
<text text-anchor="middle" x="533" y="-290" font-family="Helvetica,sans-Serif" font-size="10.00">parenRPAD</text>
<text text-anchor="middle" x="533" y="-279" font-family="Helvetica,sans-Serif" font-size="10.00">parenRPAR</text>
</g>
<!-- Node12 -->
<g id="node7" class="node">
<title>Node12</title>
<g id="a_node7"><a xlink:href="interfaceformat_1_1_x_formattable_1_1_navigatable.html" target="_top" xlink:title="木構造の分岐ノードとして清書可能なオブジェクトのクラス">
<polygon fill="white" stroke="red" points="0,-238.5 0,-257.5 130,-257.5 130,-238.5 0,-238.5"/>
<text text-anchor="middle" x="65" y="-245.5" font-family="Helvetica,sans-Serif" font-size="10.00">XFormattable.Navigatable</text>
</a>
</g>
</g>
<!-- Node12&#45;&gt;Node4 -->
<g id="edge6" class="edge">
<title>Node12&#45;&gt;Node4</title>
<path fill="none" stroke="midnightblue" d="M118.42,-236.45C189.32,-222.44 311.88,-198.22 366.43,-187.45"/>
<polygon fill="midnightblue" stroke="midnightblue" points="117.48,-233.06 108.35,-238.44 118.84,-239.93 117.48,-233.06"/>
</g>
<!-- Node14 -->
<g id="node8" class="node">
<title>Node14</title>
<g id="a_node8"><a xlink:href="interfaceformat_1_1_x_formattable_1_1_typed_formattable.html" target="_top" xlink:title="ノードの型情報をもつ書式出力可能なオブジェクトのインタフェース．">
<polygon fill="white" stroke="red" points="148,-238.5 148,-257.5 304,-257.5 304,-238.5 148,-238.5"/>
<text text-anchor="middle" x="226" y="-245.5" font-family="Helvetica,sans-Serif" font-size="10.00">XFormattable.TypedFormattable</text>
</a>
</g>
</g>
<!-- Node14&#45;&gt;Node4 -->
<g id="edge7" class="edge">
<title>Node14&#45;&gt;Node4</title>
<path fill="none" stroke="midnightblue" d="M258.04,-234.6C291.39,-221.7 342.75,-201.83 371.87,-190.56"/>
<polygon fill="midnightblue" stroke="midnightblue" points="256.37,-231.5 248.31,-238.37 258.9,-238.02 256.37,-231.5"/>
</g>
<!-- Node15 -->
<g id="node9" class="node">
<title>Node15</title>
<g id="a_node9"><a xlink:title=" ">
<polygon fill="white" stroke="#bfbfbf" points="322,-238.5 322,-257.5 374,-257.5 374,-238.5 322,-238.5"/>
<text text-anchor="middle" x="348" y="-245.5" font-family="Helvetica,sans-Serif" font-size="10.00">Boolean</text>
</a>
</g>
</g>
<!-- Node15&#45;&gt;Node4 -->
<g id="edge8" class="edge">
<title>Node15&#45;&gt;Node4</title>
<path fill="none" stroke="#9a32cd" stroke-dasharray="5,2" d="M342.26,-228.2C341.36,-221.73 341.64,-214.69 345,-209 349.94,-200.64 358.5,-194.69 367.09,-190.54"/>
<polygon fill="#9a32cd" stroke="#9a32cd" points="338.91,-229.25 344.58,-238.2 345.73,-227.67 338.91,-229.25"/>
<text text-anchor="middle" x="383" y="-212" font-family="Helvetica,sans-Serif" font-size="10.00"> DEBUG_CHILD</text>
</g>
<!-- Node16&#45;&gt;Node4 -->
<g id="edge9" class="edge">
<title>Node16&#45;&gt;Node4</title>
<path fill="none" stroke="#9a32cd" stroke-dasharray="5,2" d="M483.81,-233.31C471.43,-226.04 455.92,-216.98 442,-209 431.22,-202.82 419.01,-195.95 409.6,-190.69"/>
<polygon fill="#9a32cd" stroke="#9a32cd" points="482.19,-236.42 492.58,-238.48 485.74,-230.39 482.19,-236.42"/>
<text text-anchor="middle" x="468.5" y="-212" font-family="Helvetica,sans-Serif" font-size="10.00"> sty</text>
</g>
<!-- Node17 -->
<g id="node11" class="node">
<title>Node17</title>
<g id="a_node11"><a xlink:href="interfacecmd_1_1_generatable_1_1_evaluatable.html" target="_top" xlink:title="評価して値を返すノードのインタフェース．必ずしもコードを生成しなくても良い．">
<polygon fill="white" stroke="black" points="601.5,-171.5 601.5,-190.5 724.5,-190.5 724.5,-171.5 601.5,-171.5"/>
<text text-anchor="middle" x="663" y="-178.5" font-family="Helvetica,sans-Serif" font-size="10.00">Generatable.Evaluatable</text>
</a>
</g>
</g>
<!-- Node17&#45;&gt;Node3 -->
<g id="edge11" class="edge">
<title>Node17&#45;&gt;Node3</title>
<path fill="none" stroke="midnightblue" d="M646.04,-164.71C634.96,-154.72 620.88,-142.02 611.67,-133.71"/>
<polygon fill="midnightblue" stroke="midnightblue" points="643.7,-167.31 653.47,-171.41 648.39,-162.11 643.7,-167.31"/>
</g>
<!-- Node18 -->
<g id="node12" class="node">
<title>Node18</title>
<g id="a_node12"><a xlink:href="interfacecmd_1_1_generatable.html" target="_top" xlink:title="変換してコードを生成できるノードのインタフェース.">
<polygon fill="white" stroke="black" points="690.5,-238.5 690.5,-257.5 759.5,-257.5 759.5,-238.5 690.5,-238.5"/>
<text text-anchor="middle" x="725" y="-245.5" font-family="Helvetica,sans-Serif" font-size="10.00">Generatable</text>
</a>
</g>
</g>
<!-- Node18&#45;&gt;Node1 -->
<g id="edge14" class="edge">
<title>Node18&#45;&gt;Node1</title>
<path fill="none" stroke="midnightblue" d="M737,-229.72C744.6,-217.09 753,-199.23 753,-182 753,-182 753,-182 753,-66 753,-46.8 736.99,-29.63 725.49,-19.77"/>
<polygon fill="midnightblue" stroke="midnightblue" points="733.97,-227.96 731.49,-238.26 739.85,-231.75 733.97,-227.96"/>
</g>
<!-- Node18&#45;&gt;Node17 -->
<g id="edge12" class="edge">
<title>Node18&#45;&gt;Node17</title>
<path fill="none" stroke="midnightblue" d="M709.74,-231C697.58,-218.25 681.02,-200.89 671.23,-190.63"/>
<polygon fill="midnightblue" stroke="midnightblue" points="707.2,-233.41 716.64,-238.23 712.27,-228.58 707.2,-233.41"/>
</g>
</g>
</svg>
