<?xml version="1.0" encoding="UTF-8" standalone="no"?>
<!DOCTYPE svg PUBLIC "-//W3C//DTD SVG 1.1//EN"
 "http://www.w3.org/Graphics/SVG/1.1/DTD/svg11.dtd">
<!-- Generated by graphviz version 2.47.1 (20210417.1919)
 -->
<!-- Title: Block Pages: 1 -->
<svg width="1080pt" height="581pt"
 viewBox="0.00 0.00 1080.00 581.24" xmlns="http://www.w3.org/2000/svg" xmlns:xlink="http://www.w3.org/1999/xlink">
<g id="graph0" class="graph" transform="scale(1 1) rotate(0) translate(4 577.24)">
<title>Block</title>
<polygon fill="white" stroke="transparent" points="-4,4 -4,-577.24 1076,-577.24 1076,4 -4,4"/>
<!-- Node1 -->
<g id="node1" class="node">
<title>Node1</title>
<g id="a_node1"><a xlink:title="抽象構文木のステップ式のクラス.">
<polygon fill="#bfbfbf" stroke="black" points="1031,-307.74 1031,-326.74 1072,-326.74 1072,-307.74 1031,-307.74"/>
<text text-anchor="middle" x="1051.5" y="-314.74" font-family="Helvetica,sans-Serif" font-size="10.00">Block</text>
</a>
</g>
</g>
<!-- Node2 -->
<g id="node2" class="node">
<title>Node2</title>
<g id="a_node2"><a xlink:href="classast_1_1_block_base.html" target="_top" xlink:title="抽象構文木のステップ式のクラス.">
<polygon fill="white" stroke="black" points="930,-284.74 930,-303.74 994,-303.74 994,-284.74 930,-284.74"/>
<text text-anchor="middle" x="962" y="-291.74" font-family="Helvetica,sans-Serif" font-size="10.00">BlockBase</text>
</a>
</g>
</g>
<!-- Node2&#45;&gt;Node1 -->
<g id="edge1" class="edge">
<title>Node2&#45;&gt;Node1</title>
<path fill="none" stroke="midnightblue" d="M1003.81,-304.97C1013.27,-307.46 1022.91,-309.99 1030.95,-312.11"/>
<polygon fill="midnightblue" stroke="midnightblue" points="1004.66,-301.57 994.1,-302.42 1002.88,-308.34 1004.66,-301.57"/>
</g>
<!-- Node3 -->
<g id="node3" class="node">
<title>Node3</title>
<g id="a_node3"><a xlink:href="classast_1_1_ast_node_tagged.html" target="_top" xlink:title="子それぞれにタグと型アイテムをもつ順序ノードAstNodeのサブクラス．利用者は自前で，追加する子のField名と型を設定する．読み出しは子の添字のみで行う．">
<polygon fill="white" stroke="black" points="762,-178.74 762,-197.74 848,-197.74 848,-178.74 762,-178.74"/>
<text text-anchor="middle" x="805" y="-185.74" font-family="Helvetica,sans-Serif" font-size="10.00">AstNodeTagged</text>
</a>
</g>
</g>
<!-- Node3&#45;&gt;Node2 -->
<g id="edge2" class="edge">
<title>Node3&#45;&gt;Node2</title>
<path fill="none" stroke="midnightblue" d="M828.4,-203.56C860.74,-225.68 919.59,-265.92 946.67,-284.44"/>
<polygon fill="midnightblue" stroke="midnightblue" points="830.26,-200.59 820.03,-197.84 826.31,-206.37 830.26,-200.59"/>
</g>
<!-- Node4 -->
<g id="node4" class="node">
<title>Node4</title>
<g id="a_node4"><a xlink:href="classast_1_1_ast_node.html" target="_top" xlink:title="タグなしの順アクセスの子供をもてる抽象構文木のノードのクラス。">
<polygon fill="white" stroke="black" points="583.5,-202.74 583.5,-221.74 638.5,-221.74 638.5,-202.74 583.5,-202.74"/>
<text text-anchor="middle" x="611" y="-209.74" font-family="Helvetica,sans-Serif" font-size="10.00">AstNode</text>
</a>
</g>
</g>
<!-- Node4&#45;&gt;Node3 -->
<g id="edge3" class="edge">
<title>Node4&#45;&gt;Node3</title>
<path fill="none" stroke="midnightblue" d="M648.61,-202.23C680.85,-196.54 727.82,-190.58 761.66,-187.83"/>
<polygon fill="midnightblue" stroke="midnightblue" points="647.89,-198.8 638.7,-204.06 649.17,-205.69 647.89,-198.8"/>
</g>
<!-- Node4&#45;&gt;Node3 -->
<g id="edge17" class="edge">
<title>Node4&#45;&gt;Node3</title>
<path fill="none" stroke="midnightblue" d="M648.97,-213.08C683.99,-210.48 736.13,-203.91 770.1,-197.77"/>
<polygon fill="midnightblue" stroke="midnightblue" points="648.45,-209.6 638.7,-213.75 648.9,-216.59 648.45,-209.6"/>
</g>
<!-- Node25 -->
<g id="node21" class="node">
<title>Node25</title>
<g id="a_node21"><a xlink:href="classast_1_1_sent_list.html" target="_top" xlink:title="文Sentenceのリスト.">
<polygon fill="white" stroke="black" points="778.5,-309.74 778.5,-328.74 831.5,-328.74 831.5,-309.74 778.5,-309.74"/>
<text text-anchor="middle" x="805" y="-316.74" font-family="Helvetica,sans-Serif" font-size="10.00">SentList</text>
</a>
</g>
</g>
<!-- Node4&#45;&gt;Node25 -->
<g id="edge25" class="edge">
<title>Node4&#45;&gt;Node25</title>
<path fill="none" stroke="midnightblue" d="M648.83,-211.71C676.89,-212.93 715.43,-218.24 744,-236.24 772.88,-254.45 792.19,-292.03 800.04,-309.69"/>
<polygon fill="midnightblue" stroke="midnightblue" points="648.72,-208.21 638.63,-211.43 648.53,-215.2 648.72,-208.21"/>
</g>
<!-- Node5 -->
<g id="node5" class="node">
<title>Node5</title>
<g id="a_node5"><a xlink:href="classast_1_1_ast_node_base.html" target="_top" xlink:title=" ">
<polygon fill="white" stroke="red" points="301.5,-83.74 301.5,-102.74 378.5,-102.74 378.5,-83.74 301.5,-83.74"/>
<text text-anchor="middle" x="340" y="-90.74" font-family="Helvetica,sans-Serif" font-size="10.00">AstNodeBase</text>
</a>
</g>
</g>
<!-- Node5&#45;&gt;Node4 -->
<g id="edge4" class="edge">
<title>Node5&#45;&gt;Node4</title>
<path fill="none" stroke="midnightblue" d="M388.85,-91.96C424.53,-92.85 473.54,-98.07 512,-117.24 522.13,-122.29 521.92,-127.32 530,-135.24 554.91,-159.68 584.59,-188.05 599.84,-202.58"/>
<polygon fill="midnightblue" stroke="midnightblue" points="388.75,-88.46 378.7,-91.81 388.65,-95.46 388.75,-88.46"/>
</g>
<!-- Node8 -->
<g id="node6" class="node">
<title>Node8</title>
<g id="a_node6"><a xlink:title=" ">
<polygon fill="white" stroke="#bfbfbf" points="15,-137.74 15,-156.74 88,-156.74 88,-137.74 15,-137.74"/>
<text text-anchor="middle" x="51.5" y="-144.74" font-family="Helvetica,sans-Serif" font-size="10.00">static Report</text>
</a>
</g>
</g>
<!-- Node8&#45;&gt;Node5 -->
<g id="edge5" class="edge">
<title>Node8&#45;&gt;Node5</title>
<path fill="none" stroke="#9a32cd" stroke-dasharray="5,2" d="M77.19,-132.73C89.86,-125.97 105.8,-118.49 121,-114.24 182.52,-97.05 257.18,-93.38 301.24,-92.89"/>
<polygon fill="#9a32cd" stroke="#9a32cd" points="75.26,-129.8 68.2,-137.7 78.64,-135.92 75.26,-129.8"/>
<text text-anchor="middle" x="182.5" y="-117.24" font-family="Helvetica,sans-Serif" font-size="10.00"> repo</text>
</g>
<!-- Node29 -->
<g id="node25" class="node">
<title>Node29</title>
<g id="a_node25"><a xlink:href="classmachine_1_1_var_table.html" target="_top" xlink:title="@整数の表">
<polygon fill="white" stroke="black" points="313,-387.74 313,-406.74 367,-406.74 367,-387.74 313,-387.74"/>
<text text-anchor="middle" x="340" y="-394.74" font-family="Helvetica,sans-Serif" font-size="10.00">VarTable</text>
</a>
</g>
</g>
<!-- Node8&#45;&gt;Node29 -->
<g id="edge33" class="edge">
<title>Node8&#45;&gt;Node29</title>
<path fill="none" stroke="#9a32cd" stroke-dasharray="5,2" d="M97.97,-155.24C105.66,-156.58 113.56,-157.96 121,-159.24 148.32,-163.97 225.18,-159.88 244,-180.24 273.99,-212.69 233.21,-344.73 262,-378.24 274.38,-392.66 295.79,-397.05 312.89,-398.04"/>
<polygon fill="#9a32cd" stroke="#9a32cd" points="98.5,-151.78 88.05,-153.5 97.29,-158.67 98.5,-151.78"/>
<text text-anchor="middle" x="182.5" y="-183.24" font-family="Helvetica,sans-Serif" font-size="10.00"> repo</text>
</g>
<!-- Node9 -->
<g id="node7" class="node">
<title>Node9</title>
<g id="a_node7"><a xlink:title=" ">
<polygon fill="white" stroke="#bfbfbf" points="37,-47.74 37,-66.74 66,-66.74 66,-47.74 37,-47.74"/>
<text text-anchor="middle" x="51.5" y="-54.74" font-family="Helvetica,sans-Serif" font-size="10.00">int</text>
</a>
</g>
</g>
<!-- Node9&#45;&gt;Node2 -->
<g id="edge30" class="edge">
<title>Node9&#45;&gt;Node2</title>
<path fill="none" stroke="#9a32cd" stroke-dasharray="5,2" d="M74.77,-43.63C87.78,-36.34 104.78,-27.92 121,-23.24 214.57,3.73 241.62,-1.24 339,-1.24 339,-1.24 339,-1.24 806,-1.24 937.21,-1.24 957.65,-233.65 960.55,-284.49"/>
<polygon fill="#9a32cd" stroke="#9a32cd" points="72.97,-40.62 66.07,-48.66 76.48,-46.68 72.97,-40.62"/>
<text text-anchor="middle" x="611" y="-4.24" font-family="Helvetica,sans-Serif" font-size="10.00"> funid_</text>
</g>
<!-- Node9&#45;&gt;Node5 -->
<g id="edge6" class="edge">
<title>Node9&#45;&gt;Node5</title>
<path fill="none" stroke="#9a32cd" stroke-dasharray="5,2" d="M75.69,-47.81C88.76,-43 105.52,-37.67 121,-35.24 175.01,-26.78 191.37,-20.45 244,-35.24 277.67,-44.71 311.22,-69.78 327.99,-83.66"/>
<polygon fill="#9a32cd" stroke="#9a32cd" points="74.18,-44.64 66.1,-51.48 76.69,-51.17 74.18,-44.64"/>
<text text-anchor="middle" x="182.5" y="-49.24" font-family="Helvetica,sans-Serif" font-size="10.00"> BITMASK_PRINT_WIDTH</text>
<text text-anchor="middle" x="182.5" y="-38.24" font-family="Helvetica,sans-Serif" font-size="10.00">UNDEF</text>
</g>
<!-- Node18 -->
<g id="node14" class="node">
<title>Node18</title>
<g id="a_node14"><a xlink:href="classformat_1_1_style.html" target="_top" xlink:title="ノードの表示スタイルに関するプロパティのクラス.">
<polygon fill="white" stroke="red" points="320.5,-273.74 320.5,-292.74 359.5,-292.74 359.5,-273.74 320.5,-273.74"/>
<text text-anchor="middle" x="340" y="-280.74" font-family="Helvetica,sans-Serif" font-size="10.00">Style</text>
</a>
</g>
</g>
<!-- Node9&#45;&gt;Node18 -->
<g id="edge14" class="edge">
<title>Node9&#45;&gt;Node18</title>
<path fill="none" stroke="#9a32cd" stroke-dasharray="5,2" d="M76.38,-58.46C125.13,-61.18 232.46,-68.45 244,-80.24 272.73,-109.61 235.12,-233.17 262,-264.24 276.32,-280.8 302.56,-284.12 320.38,-284.26"/>
<polygon fill="#9a32cd" stroke="#9a32cd" points="76.31,-54.95 66.13,-57.91 75.93,-61.94 76.31,-54.95"/>
<text text-anchor="middle" x="182.5" y="-83.24" font-family="Helvetica,sans-Serif" font-size="10.00"> pref</text>
</g>
<!-- Node9&#45;&gt;Node29 -->
<g id="edge34" class="edge">
<title>Node9&#45;&gt;Node29</title>
<path fill="none" stroke="#9a32cd" stroke-dasharray="5,2" d="M65.23,-75.02C77.6,-90.86 97.87,-113.34 121,-125.24 170.31,-150.63 206.62,-105.27 244,-146.24 278.85,-184.44 228.56,-338.8 262,-378.24 274.29,-392.74 295.7,-397.13 312.83,-398.09"/>
<polygon fill="#9a32cd" stroke="#9a32cd" points="68.01,-72.89 59.2,-67.01 62.42,-77.1 68.01,-72.89"/>
<text text-anchor="middle" x="182.5" y="-149.24" font-family="Helvetica,sans-Serif" font-size="10.00"> UNDEF</text>
</g>
<!-- Node11 -->
<g id="node8" class="node">
<title>Node11</title>
<g id="a_node8"><a xlink:title=" ">
<polygon fill="white" stroke="#bfbfbf" points="26.5,-273.74 26.5,-292.74 76.5,-292.74 76.5,-273.74 26.5,-273.74"/>
<text text-anchor="middle" x="51.5" y="-280.74" font-family="Helvetica,sans-Serif" font-size="10.00">boolean</text>
</a>
</g>
</g>
<!-- Node11&#45;&gt;Node2 -->
<g id="edge37" class="edge">
<title>Node11&#45;&gt;Node2</title>
<path fill="none" stroke="#9a32cd" stroke-dasharray="5,2" d="M61.11,-302.02C72.16,-324.28 93.26,-361.28 121,-384.24 200.49,-450.06 235.79,-464.24 339,-464.24 339,-464.24 339,-464.24 806,-464.24 877.49,-464.24 867.51,-399.21 912,-343.24 920.52,-332.53 920.49,-328.09 930,-318.24 935.01,-313.05 941.19,-308.05 946.71,-303.96"/>
<polygon fill="#9a32cd" stroke="#9a32cd" points="64.23,-300.43 56.75,-292.92 57.92,-303.45 64.23,-300.43"/>
<text text-anchor="middle" x="611" y="-467.24" font-family="Helvetica,sans-Serif" font-size="10.00"> DEBUG_REPO</text>
</g>
<!-- Node11&#45;&gt;Node3 -->
<g id="edge21" class="edge">
<title>Node11&#45;&gt;Node3</title>
<path fill="none" stroke="#9a32cd" stroke-dasharray="5,2" d="M86.84,-277.46C135.89,-268.52 222.48,-249.98 244,-227.24 268.16,-201.72 234.47,-172.08 262,-150.24 339.23,-88.99 651.61,-153.08 763.71,-178.68"/>
<polygon fill="#9a32cd" stroke="#9a32cd" points="85.92,-274.07 76.69,-279.27 87.15,-280.96 85.92,-274.07"/>
<text text-anchor="middle" x="474" y="-135.24" font-family="Helvetica,sans-Serif" font-size="10.00"> DEBUG_REPO</text>
</g>
<!-- Node11&#45;&gt;Node5 -->
<g id="edge7" class="edge">
<title>Node11&#45;&gt;Node5</title>
<path fill="none" stroke="#9a32cd" stroke-dasharray="5,2" d="M65.68,-265.38C78.15,-249.86 98.3,-228.05 121,-216.24 170.34,-190.58 203.75,-231.62 244,-193.24 269.12,-169.29 238.32,-142.63 262,-117.24 272.22,-106.29 287.35,-100.3 301.5,-97.04"/>
<polygon fill="#9a32cd" stroke="#9a32cd" points="62.61,-263.63 59.26,-273.68 68.15,-267.91 62.61,-263.63"/>
<text text-anchor="middle" x="182.5" y="-219.24" font-family="Helvetica,sans-Serif" font-size="10.00"> DEBUG_REPO</text>
</g>
<!-- Node11&#45;&gt;Node18 -->
<g id="edge15" class="edge">
<title>Node11&#45;&gt;Node18</title>
<path fill="none" stroke="#9a32cd" stroke-dasharray="5,2" d="M87.22,-283.24C148.36,-283.24 273.22,-283.24 320.39,-283.24"/>
<polygon fill="#9a32cd" stroke="#9a32cd" points="86.93,-279.74 76.93,-283.24 86.93,-286.74 86.93,-279.74"/>
<text text-anchor="middle" x="182.5" y="-297.24" font-family="Helvetica,sans-Serif" font-size="10.00"> preoperSupress</text>
<text text-anchor="middle" x="182.5" y="-286.24" font-family="Helvetica,sans-Serif" font-size="10.00">toInline</text>
</g>
<!-- Node11&#45;&gt;Node29 -->
<g id="edge36" class="edge">
<title>Node11&#45;&gt;Node29</title>
<path fill="none" stroke="#9a32cd" stroke-dasharray="5,2" d="M79.73,-297.55C119.08,-317.77 194.52,-354.84 262,-378.24 278.65,-384.02 297.9,-388.77 312.99,-392.07"/>
<polygon fill="#9a32cd" stroke="#9a32cd" points="81.02,-294.28 70.53,-292.79 77.81,-300.5 81.02,-294.28"/>
<text text-anchor="middle" x="182.5" y="-372.24" font-family="Helvetica,sans-Serif" font-size="10.00"> DEBUG_REPO</text>
</g>
<!-- Node12 -->
<g id="node9" class="node">
<title>Node12</title>
<g id="a_node9"><a xlink:href="interfaceast_1_1_node.html" target="_top" xlink:title=" ">
<polygon fill="white" stroke="red" points="320,-197.74 320,-216.74 360,-216.74 360,-197.74 320,-197.74"/>
<text text-anchor="middle" x="340" y="-204.74" font-family="Helvetica,sans-Serif" font-size="10.00">Node</text>
</a>
</g>
</g>
<!-- Node12&#45;&gt;Node4 -->
<g id="edge8" class="edge">
<title>Node12&#45;&gt;Node4</title>
<path fill="none" stroke="midnightblue" d="M370.39,-207.79C423.1,-208.77 532.93,-210.81 583.48,-211.75"/>
<polygon fill="midnightblue" stroke="midnightblue" points="370.41,-204.29 360.35,-207.6 370.28,-211.29 370.41,-204.29"/>
</g>
<!-- Node14 -->
<g id="node10" class="node">
<title>Node14</title>
<g id="a_node10"><a xlink:href="interfaceformat_1_1_x_formattable_1_1_navigatable.html" target="_top" xlink:title="木構造の分岐ノードとして清書可能なオブジェクトのクラス">
<polygon fill="white" stroke="red" points="275,-159.74 275,-178.74 405,-178.74 405,-159.74 275,-159.74"/>
<text text-anchor="middle" x="340" y="-166.74" font-family="Helvetica,sans-Serif" font-size="10.00">XFormattable.Navigatable</text>
</a>
</g>
</g>
<!-- Node14&#45;&gt;Node4 -->
<g id="edge9" class="edge">
<title>Node14&#45;&gt;Node4</title>
<path fill="none" stroke="midnightblue" d="M410.62,-180.37C466.95,-189.38 543.26,-201.57 583.16,-207.95"/>
<polygon fill="midnightblue" stroke="midnightblue" points="411.13,-176.91 400.7,-178.79 410.02,-183.82 411.13,-176.91"/>
</g>
<!-- Node15 -->
<g id="node11" class="node">
<title>Node15</title>
<g id="a_node11"><a xlink:href="interfaceformat_1_1_x_formattable_1_1_typed_formattable.html" target="_top" xlink:title="ノードの型情報をもつ書式出力可能なオブジェクトのインタフェース．">
<polygon fill="white" stroke="red" points="262,-235.74 262,-254.74 418,-254.74 418,-235.74 262,-235.74"/>
<text text-anchor="middle" x="340" y="-242.74" font-family="Helvetica,sans-Serif" font-size="10.00">XFormattable.TypedFormattable</text>
</a>
</g>
</g>
<!-- Node15&#45;&gt;Node4 -->
<g id="edge10" class="edge">
<title>Node15&#45;&gt;Node4</title>
<path fill="none" stroke="midnightblue" d="M428.01,-234.57C481.95,-227.95 547.58,-219.9 583.44,-215.5"/>
<polygon fill="midnightblue" stroke="midnightblue" points="427.58,-231.1 418.08,-235.79 428.44,-238.04 427.58,-231.1"/>
</g>
<!-- Node16 -->
<g id="node12" class="node">
<title>Node16</title>
<g id="a_node12"><a xlink:title=" ">
<polygon fill="white" stroke="#bfbfbf" points="295,-349.74 295,-368.74 385,-368.74 385,-349.74 295,-349.74"/>
<text text-anchor="middle" x="340" y="-356.74" font-family="Helvetica,sans-Serif" font-size="10.00">List&lt; ast.Node &gt;</text>
</a>
</g>
</g>
<!-- Node16&#45;&gt;Node4 -->
<g id="edge11" class="edge">
<title>Node16&#45;&gt;Node4</title>
<path fill="none" stroke="#9a32cd" stroke-dasharray="5,2" d="M395.62,-358.73C433.45,-355.38 482.18,-344.6 512,-313.24 536.22,-287.78 505.93,-261.85 530,-236.24 543.71,-221.66 565.88,-215.83 583.41,-213.55"/>
<polygon fill="#9a32cd" stroke="#9a32cd" points="394.98,-355.27 385.27,-359.49 395.5,-362.25 394.98,-355.27"/>
<text text-anchor="middle" x="474" y="-354.24" font-family="Helvetica,sans-Serif" font-size="10.00"> children</text>
</g>
<!-- Node17 -->
<g id="node13" class="node">
<title>Node17</title>
<g id="a_node13"><a xlink:title=" ">
<polygon fill="white" stroke="#bfbfbf" points="314,-311.74 314,-330.74 366,-330.74 366,-311.74 314,-311.74"/>
<text text-anchor="middle" x="340" y="-318.74" font-family="Helvetica,sans-Serif" font-size="10.00">Boolean</text>
</a>
</g>
</g>
<!-- Node17&#45;&gt;Node4 -->
<g id="edge12" class="edge">
<title>Node17&#45;&gt;Node4</title>
<path fill="none" stroke="#9a32cd" stroke-dasharray="5,2" d="M376.1,-312.8C389.26,-309.58 404.34,-305.82 418,-302.24 459.94,-291.27 479.1,-304.46 512,-276.24 526.8,-263.55 515.34,-249.09 530,-236.24 544.72,-223.34 566.16,-217.37 583.14,-214.61"/>
<polygon fill="#9a32cd" stroke="#9a32cd" points="374.9,-309.49 366.01,-315.26 376.56,-316.29 374.9,-309.49"/>
<text text-anchor="middle" x="474" y="-301.24" font-family="Helvetica,sans-Serif" font-size="10.00"> DEBUG_CHILD</text>
</g>
<!-- Node18&#45;&gt;Node4 -->
<g id="edge13" class="edge">
<title>Node18&#45;&gt;Node4</title>
<path fill="none" stroke="#9a32cd" stroke-dasharray="5,2" d="M369.8,-277.14C403.94,-269.71 462.47,-256.41 512,-242.24 520.11,-239.92 521.96,-238.79 530,-236.24 547.69,-230.64 567.69,-224.64 583.27,-220.04"/>
<polygon fill="#9a32cd" stroke="#9a32cd" points="368.65,-273.8 359.61,-279.33 370.12,-280.65 368.65,-273.8"/>
<text text-anchor="middle" x="474" y="-264.24" font-family="Helvetica,sans-Serif" font-size="10.00"> sty</text>
</g>
<!-- Node19 -->
<g id="node15" class="node">
<title>Node19</title>
<g id="a_node15"><a xlink:title=" ">
<polygon fill="white" stroke="#bfbfbf" points="566.5,-30.74 566.5,-49.74 655.5,-49.74 655.5,-30.74 566.5,-30.74"/>
<text text-anchor="middle" x="611" y="-37.74" font-family="Helvetica,sans-Serif" font-size="10.00">FieldNavigatable</text>
</a>
</g>
</g>
<!-- Node19&#45;&gt;Node3 -->
<g id="edge16" class="edge">
<title>Node19&#45;&gt;Node3</title>
<path fill="none" stroke="midnightblue" d="M665.96,-42.24C693.36,-46.21 724.82,-55.83 744,-78.24 770.81,-109.57 736.38,-136.94 762,-169.24 764.98,-173.01 768.88,-176.05 773.09,-178.5"/>
<polygon fill="midnightblue" stroke="midnightblue" points="666.04,-38.73 655.69,-40.99 665.19,-45.68 666.04,-38.73"/>
</g>
<!-- Node20 -->
<g id="node16" class="node">
<title>Node20</title>
<g id="a_node16"><a xlink:title=" ">
<polygon fill="white" stroke="#bfbfbf" points="572.5,-68.74 572.5,-87.74 649.5,-87.74 649.5,-68.74 572.5,-68.74"/>
<text text-anchor="middle" x="611" y="-75.74" font-family="Helvetica,sans-Serif" font-size="10.00">List&lt; XItem &gt;</text>
</a>
</g>
</g>
<!-- Node20&#45;&gt;Node3 -->
<g id="edge18" class="edge">
<title>Node20&#45;&gt;Node3</title>
<path fill="none" stroke="#9a32cd" stroke-dasharray="5,2" d="M660.03,-74.18C687.83,-74.49 721.64,-79.81 744,-100.24 767.4,-121.62 741.57,-145.01 762,-169.24 765.2,-173.04 769.31,-176.11 773.71,-178.58"/>
<polygon fill="#9a32cd" stroke="#9a32cd" points="659.66,-70.68 649.7,-74.28 659.74,-77.68 659.66,-70.68"/>
<text text-anchor="middle" x="727" y="-103.24" font-family="Helvetica,sans-Serif" font-size="10.00"> types</text>
</g>
<!-- Node21 -->
<g id="node17" class="node">
<title>Node21</title>
<g id="a_node17"><a xlink:title=" ">
<polygon fill="white" stroke="#bfbfbf" points="573,-245.74 573,-264.74 649,-264.74 649,-245.74 573,-245.74"/>
<text text-anchor="middle" x="611" y="-252.74" font-family="Helvetica,sans-Serif" font-size="10.00">List&lt; String &gt;</text>
</a>
</g>
</g>
<!-- Node21&#45;&gt;Node3 -->
<g id="edge19" class="edge">
<title>Node21&#45;&gt;Node3</title>
<path fill="none" stroke="#9a32cd" stroke-dasharray="5,2" d="M658.98,-245.57C684.57,-239.61 716.53,-231.04 744,-220.24 759.71,-214.07 776.59,-204.81 788.43,-197.83"/>
<polygon fill="#9a32cd" stroke="#9a32cd" points="658.12,-242.18 649.15,-247.8 659.67,-249 658.12,-242.18"/>
<text text-anchor="middle" x="727" y="-234.24" font-family="Helvetica,sans-Serif" font-size="10.00"> fields</text>
</g>
<!-- Node22 -->
<g id="node18" class="node">
<title>Node22</title>
<g id="a_node18"><a xlink:title=" ">
<polygon fill="white" stroke="#bfbfbf" points="530,-106.74 530,-125.74 692,-125.74 692,-106.74 530,-106.74"/>
<text text-anchor="middle" x="611" y="-113.74" font-family="Helvetica,sans-Serif" font-size="10.00">List&lt; Supplier&lt; XFormattable &gt; &gt;</text>
</a>
</g>
</g>
<!-- Node22&#45;&gt;Node3 -->
<g id="edge20" class="edge">
<title>Node22&#45;&gt;Node3</title>
<path fill="none" stroke="#9a32cd" stroke-dasharray="5,2" d="M702.06,-112.49C717.07,-115.27 731.73,-120.43 744,-129.24 759.83,-140.62 748.23,-155.44 762,-169.24 765.73,-172.98 770.33,-176.06 775.1,-178.56"/>
<polygon fill="#9a32cd" stroke="#9a32cd" points="702.58,-109.03 692.17,-110.99 701.53,-115.95 702.58,-109.03"/>
<text text-anchor="middle" x="727" y="-132.24" font-family="Helvetica,sans-Serif" font-size="10.00"> getters</text>
</g>
<!-- Node23 -->
<g id="node19" class="node">
<title>Node23</title>
<g id="a_node19"><a xlink:href="interfacemachine_1_1_var_holdable.html" target="_top" xlink:title="実行可能コードのインタフェース. ブロックとステップの二種がある。">
<polygon fill="white" stroke="black" points="770.5,-140.74 770.5,-159.74 839.5,-159.74 839.5,-140.74 770.5,-140.74"/>
<text text-anchor="middle" x="805" y="-147.74" font-family="Helvetica,sans-Serif" font-size="10.00">VarHoldable</text>
</a>
</g>
</g>
<!-- Node23&#45;&gt;Node2 -->
<g id="edge22" class="edge">
<title>Node23&#45;&gt;Node2</title>
<path fill="none" stroke="midnightblue" d="M839.8,-164.39C842.64,-165.92 845.41,-167.54 848,-169.24 880.1,-190.3 886.32,-198.71 912,-227.24 929.16,-246.31 946.15,-271.25 954.91,-284.68"/>
<polygon fill="midnightblue" stroke="midnightblue" points="841.18,-161.17 830.67,-159.86 838.07,-167.44 841.18,-161.17"/>
</g>
<!-- Node24 -->
<g id="node20" class="node">
<title>Node24</title>
<g id="a_node20"><a xlink:href="interfacecmd_1_1_generatable.html" target="_top" xlink:title="変換してコードを生成できるノードのインタフェース.">
<polygon fill="white" stroke="black" points="576.5,-290.74 576.5,-309.74 645.5,-309.74 645.5,-290.74 576.5,-290.74"/>
<text text-anchor="middle" x="611" y="-297.74" font-family="Helvetica,sans-Serif" font-size="10.00">Generatable</text>
</a>
</g>
</g>
<!-- Node24&#45;&gt;Node2 -->
<g id="edge23" class="edge">
<title>Node24&#45;&gt;Node2</title>
<path fill="none" stroke="midnightblue" d="M655.81,-299.49C727.31,-298.26 867.35,-295.85 929.73,-294.78"/>
<polygon fill="midnightblue" stroke="midnightblue" points="655.72,-295.99 645.78,-299.66 655.84,-302.99 655.72,-295.99"/>
</g>
<!-- Node24&#45;&gt;Node25 -->
<g id="edge26" class="edge">
<title>Node24&#45;&gt;Node25</title>
<path fill="none" stroke="midnightblue" d="M656.12,-304.61C693.99,-308.36 747.24,-313.63 778.43,-316.71"/>
<polygon fill="midnightblue" stroke="midnightblue" points="656.18,-301.1 645.88,-303.6 655.49,-308.06 656.18,-301.1"/>
</g>
<!-- Node25&#45;&gt;Node1 -->
<g id="edge38" class="edge">
<title>Node25&#45;&gt;Node1</title>
<path fill="none" stroke="#9a32cd" stroke-dasharray="5,2" d="M841.8,-322.02C849.76,-322.53 858.16,-322.98 866,-323.24 931.3,-325.42 947.79,-325.36 1013,-321.24 1018.75,-320.88 1024.98,-320.29 1030.68,-319.68"/>
<polygon fill="#9a32cd" stroke="#9a32cd" points="841.89,-318.52 831.68,-321.33 841.41,-325.5 841.89,-318.52"/>
<text text-anchor="middle" x="962" y="-327.24" font-family="Helvetica,sans-Serif" font-size="10.00"> sents_</text>
</g>
<!-- Node25&#45;&gt;Node2 -->
<g id="edge24" class="edge">
<title>Node25&#45;&gt;Node2</title>
<path fill="none" stroke="#9a32cd" stroke-dasharray="5,2" d="M841.65,-313.49C868.25,-309.2 904.26,-303.39 929.75,-299.28"/>
<polygon fill="#9a32cd" stroke="#9a32cd" points="840.91,-310.07 831.6,-315.11 842.02,-316.98 840.91,-310.07"/>
<text text-anchor="middle" x="889" y="-311.24" font-family="Helvetica,sans-Serif" font-size="10.00"> pre_sent_</text>
</g>
<!-- Node26 -->
<g id="node22" class="node">
<title>Node26</title>
<g id="a_node22"><a xlink:href="classcmd_1_1_cmd_list.html" target="_top" xlink:title="仮想命令のリスト．">
<polygon fill="white" stroke="black" points="313.5,-504.74 313.5,-523.74 366.5,-523.74 366.5,-504.74 313.5,-504.74"/>
<text text-anchor="middle" x="340" y="-511.74" font-family="Helvetica,sans-Serif" font-size="10.00">CmdList</text>
</a>
</g>
</g>
<!-- Node26&#45;&gt;Node2 -->
<g id="edge27" class="edge">
<title>Node26&#45;&gt;Node2</title>
<path fill="none" stroke="#9a32cd" stroke-dasharray="5,2" d="M376.37,-525.49C476.02,-554.76 761.6,-621.44 912,-478.24 937.91,-453.57 912.47,-349.43 930,-318.24 933.2,-312.55 938.36,-307.75 943.56,-303.97"/>
<polygon fill="#9a32cd" stroke="#9a32cd" points="377.36,-522.14 366.77,-522.62 375.35,-528.84 377.36,-522.14"/>
<text text-anchor="middle" x="727" y="-565.24" font-family="Helvetica,sans-Serif" font-size="10.00"> code_</text>
</g>
<!-- Node27 -->
<g id="node23" class="node">
<title>Node27</title>
<g id="a_node23"><a xlink:title=" ">
<polygon fill="white" stroke="#bfbfbf" points="0,-489.74 0,-508.74 103,-508.74 103,-489.74 0,-489.74"/>
<text text-anchor="middle" x="51.5" y="-496.74" font-family="Helvetica,sans-Serif" font-size="10.00">CustomFormattable</text>
</a>
</g>
</g>
<!-- Node27&#45;&gt;Node26 -->
<g id="edge28" class="edge">
<title>Node27&#45;&gt;Node26</title>
<path fill="none" stroke="midnightblue" d="M113.11,-502.42C175.14,-505.66 268.58,-510.56 313.33,-512.9"/>
<polygon fill="midnightblue" stroke="midnightblue" points="113.23,-498.92 103.06,-501.89 112.86,-505.91 113.23,-498.92"/>
</g>
<!-- Node27&#45;&gt;Node29 -->
<g id="edge32" class="edge">
<title>Node27&#45;&gt;Node29</title>
<path fill="none" stroke="midnightblue" d="M88.78,-486.33C147.32,-465.49 261.25,-424.92 312.68,-406.61"/>
<polygon fill="midnightblue" stroke="midnightblue" points="87.44,-483.09 79.2,-489.74 89.79,-489.68 87.44,-483.09"/>
</g>
<!-- Node28 -->
<g id="node24" class="node">
<title>Node28</title>
<g id="a_node24"><a xlink:title=" ">
<polygon fill="white" stroke="#bfbfbf" points="16,-537.74 16,-556.74 87,-556.74 87,-537.74 16,-537.74"/>
<text text-anchor="middle" x="51.5" y="-544.74" font-family="Helvetica,sans-Serif" font-size="10.00">List&lt; Cmd &gt;</text>
</a>
</g>
</g>
<!-- Node28&#45;&gt;Node26 -->
<g id="edge29" class="edge">
<title>Node28&#45;&gt;Node26</title>
<path fill="none" stroke="#9a32cd" stroke-dasharray="5,2" d="M97.11,-542.11C157.77,-535.12 264.32,-522.84 313.19,-517.22"/>
<polygon fill="#9a32cd" stroke="#9a32cd" points="96.59,-538.64 87.06,-543.26 97.39,-545.6 96.59,-538.64"/>
<text text-anchor="middle" x="182.5" y="-542.24" font-family="Helvetica,sans-Serif" font-size="10.00"> list_</text>
</g>
<!-- Node29&#45;&gt;Node2 -->
<g id="edge31" class="edge">
<title>Node29&#45;&gt;Node2</title>
<path fill="none" stroke="#9a32cd" stroke-dasharray="5,2" d="M377.22,-394.46C460.69,-387.74 672.8,-368.86 848,-338.24 876.78,-333.21 884.89,-334.14 912,-323.24 924.66,-318.15 937.91,-310.12 947.43,-303.8"/>
<polygon fill="#9a32cd" stroke="#9a32cd" points="376.7,-390.99 367,-395.27 377.25,-397.97 376.7,-390.99"/>
<text text-anchor="middle" x="727" y="-361.24" font-family="Helvetica,sans-Serif" font-size="10.00"> vars_</text>
</g>
<!-- Node29&#45;&gt;Node29 -->
<g id="edge35" class="edge">
<title>Node29&#45;&gt;Node29</title>
<path fill="none" stroke="#9a32cd" stroke-dasharray="5,2" d="M315.07,-416.27C316.43,-421.37 324.74,-425.24 340,-425.24 363.82,-425.24 370.7,-415.81 360.65,-407"/>
<polygon fill="#9a32cd" stroke="#9a32cd" points="318.34,-417.55 319.35,-407 311.98,-414.62 318.34,-417.55"/>
<text text-anchor="middle" x="340" y="-428.24" font-family="Helvetica,sans-Serif" font-size="10.00"> parent</text>
</g>
</g>
</svg>
