<?xml version="1.0" encoding="UTF-8" standalone="no"?>
<!DOCTYPE svg PUBLIC "-//W3C//DTD SVG 1.1//EN"
 "http://www.w3.org/Graphics/SVG/1.1/DTD/svg11.dtd">
<!-- Generated by graphviz version 2.47.1 (20210417.1919)
 -->
<!-- Title: addString Pages: 1 -->
<!--zoomable 117 -->
<svg id="main" version="1.1" xmlns="http://www.w3.org/2000/svg" xmlns:xlink="http://www.w3.org/1999/xlink" xml:space="preserve" onload="init(evt)">
<style type="text/css"><![CDATA[
.edge:hover path { stroke: red; }
.edge:hover polygon { stroke: red; fill: red; }
]]></style>
<script type="text/javascript"><![CDATA[
var edges = document.getElementsByTagName('g');
if (edges && edges.length) {
  for (var i=0;i<edges.length;i++) {
    if (edges[i].id.substr(0,4)=='edge') {
      edges[i].setAttribute('class','edge');
    }
  }
}
]]></script>
        <defs>
                <circle id="rim" cx="0" cy="0" r="7"/>
                <circle id="rim2" cx="0" cy="0" r="3.5"/>
                <g id="zoomPlus">
                        <use xlink:href="#rim" fill="#404040">
                                <set attributeName="fill" to="#808080" begin="zoomplus.mouseover" end="zoomplus.mouseout"/>
                        </use>
                        <path d="M-4,0h8M0,-4v8" fill="none" stroke="white" stroke-width="1.5" pointer-events="none"/>
                </g>
                <g id="zoomMin">
                        <use xlink:href="#rim" fill="#404040">
                                <set attributeName="fill" to="#808080" begin="zoomminus.mouseover" end="zoomminus.mouseout"/>
                        </use>
                        <path d="M-4,0h8" fill="none" stroke="white" stroke-width="1.5" pointer-events="none"/>
                </g>
                <g id="dirArrow">
                        <path fill="none" stroke="white" stroke-width="1.5" d="M0,-3.0v7 M-2.5,-0.5L0,-3.0L2.5,-0.5"/>
                </g>
               <g id="resetDef">
                       <use xlink:href="#rim2" fill="#404040">
                               <set attributeName="fill" to="#808080" begin="reset.mouseover" end="reset.mouseout"/>
                       </use>
               </g>
        </defs>

<script type="text/javascript">
var viewWidth = 734;
var viewHeight = 117;
var sectionId = 'dynsection-6';
</script>
<script xlink:href="svgpan.js"/>
<svg id="graph" class="graph">
<g id="viewport">
<title>addString</title>
<polygon fill="white" stroke="transparent" points="-4,4 -4,-112.76 730,-112.76 730,4 -4,4"/>
<!-- Node1 -->
<g id="node1" class="node">
<title>Node1</title>
<g id="a_node1"><a xlink:title="配列モードで、文字列valueを正しい段下げで，区切り記号を挿入しながら，バッファに追加する。">
<polygon fill="#bfbfbf" stroke="black" points="0,-41.5 0,-60.5 58,-60.5 58,-41.5 0,-41.5"/>
<text text-anchor="middle" x="29" y="-48.5" font-family="Helvetica,sans-Serif" font-size="10.00">addString</text>
</a>
</g>
</g>
<!-- Node2 -->
<g id="node2" class="node">
<title>Node2</title>
<g id="a_node2"><a xlink:href="classutil_1_1_foldable_string_buf.html#af6ee3a021ca300a156d8347b5bf0f71f" target="_top" xlink:title="入れ子文字列を、正しく段下げしながら読み込む。">
<polygon fill="white" stroke="black" points="94,-36 94,-66 237,-66 237,-36 94,-36"/>
<text text-anchor="start" x="102" y="-54" font-family="Helvetica,sans-Serif" font-size="10.00">util.FoldableStringBuf.include</text>
<text text-anchor="middle" x="165.5" y="-43" font-family="Helvetica,sans-Serif" font-size="10.00">StrIndent</text>
</a>
</g>
</g>
<!-- Node1&#45;&gt;Node2 -->
<g id="edge1" class="edge">
<title>Node1&#45;&gt;Node2</title>
<path fill="none" stroke="midnightblue" d="M58.2,-51C65.95,-51 74.75,-51 83.91,-51"/>
<polygon fill="midnightblue" stroke="midnightblue" points="83.94,-54.5 93.94,-51 83.94,-47.5 83.94,-54.5"/>
</g>
<!-- Node4 -->
<g id="node4" class="node">
<title>Node4</title>
<g id="a_node4"><a xlink:href="classutil_1_1_foldable_string_buf.html#a2b018a5847ca3b5c67456ad721e23ba4" target="_top" xlink:title="文字列を出力する">
<polygon fill="white" stroke="black" points="444.5,-0.5 444.5,-19.5 568.5,-19.5 568.5,-0.5 444.5,-0.5"/>
<text text-anchor="middle" x="506.5" y="-7.5" font-family="Helvetica,sans-Serif" font-size="10.00">util.FoldableStringBuf.str</text>
</a>
</g>
</g>
<!-- Node1&#45;&gt;Node4 -->
<g id="edge14" class="edge">
<title>Node1&#45;&gt;Node4</title>
<path fill="none" stroke="midnightblue" d="M49.37,-41.48C61.8,-35.86 78.47,-29.24 94,-26 211.41,-1.51 351.64,-2.25 434.37,-5.66"/>
<polygon fill="midnightblue" stroke="midnightblue" points="434.27,-9.16 444.42,-6.1 434.58,-2.17 434.27,-9.16"/>
</g>
<!-- Node9 -->
<g id="node7" class="node">
<title>Node9</title>
<g id="a_node7"><a xlink:href="classutil_1_1_foldable_string_buf.html#ab3d4d59d8a1bb8f1cffeef544c66c052" target="_top" xlink:title="改行を出力する.">
<polygon fill="white" stroke="black" points="277,-76.5 277,-95.5 397,-95.5 397,-76.5 277,-76.5"/>
<text text-anchor="middle" x="337" y="-83.5" font-family="Helvetica,sans-Serif" font-size="10.00">util.FoldableStringBuf.nl</text>
</a>
</g>
</g>
<!-- Node1&#45;&gt;Node9 -->
<g id="edge13" class="edge">
<title>Node1&#45;&gt;Node9</title>
<path fill="none" stroke="midnightblue" d="M50.55,-60.59C62.87,-65.86 79,-71.93 94,-75 151.31,-86.74 217.79,-88.97 266.56,-88.56"/>
<polygon fill="midnightblue" stroke="midnightblue" points="266.73,-92.06 276.68,-88.43 266.64,-85.06 266.73,-92.06"/>
</g>
<!-- Node3 -->
<g id="node3" class="node">
<title>Node3</title>
<g id="a_node3"><a xlink:href="classutil_1_1_foldable_string_buf.html#aaa1e91437222f9467827a35ccfecbdb7" target="_top" xlink:title="バッファの末尾に文字c を追加する.">
<polygon fill="white" stroke="black" points="273,-37.5 273,-56.5 401,-56.5 401,-37.5 273,-37.5"/>
<text text-anchor="middle" x="337" y="-44.5" font-family="Helvetica,sans-Serif" font-size="10.00">util.FoldableStringBuf.add</text>
</a>
</g>
</g>
<!-- Node2&#45;&gt;Node3 -->
<g id="edge2" class="edge">
<title>Node2&#45;&gt;Node3</title>
<path fill="none" stroke="midnightblue" d="M237.4,-49.33C245.79,-49.13 254.36,-48.93 262.77,-48.73"/>
<polygon fill="midnightblue" stroke="midnightblue" points="263.02,-52.22 272.94,-48.49 262.86,-45.23 263.02,-52.22"/>
</g>
<!-- Node2&#45;&gt;Node9 -->
<g id="edge7" class="edge">
<title>Node2&#45;&gt;Node9</title>
<path fill="none" stroke="midnightblue" d="M237.4,-65.64C251.43,-68.54 265.97,-71.54 279.44,-74.32"/>
<polygon fill="midnightblue" stroke="midnightblue" points="279.01,-77.81 289.51,-76.4 280.42,-70.95 279.01,-77.81"/>
</g>
<!-- Node3&#45;&gt;Node4 -->
<g id="edge3" class="edge">
<title>Node3&#45;&gt;Node4</title>
<path fill="none" stroke="midnightblue" d="M381.14,-37.47C402.84,-32.68 429.34,-26.82 452.29,-21.75"/>
<polygon fill="midnightblue" stroke="midnightblue" points="453.21,-25.14 462.22,-19.56 451.7,-18.3 453.21,-25.14"/>
</g>
<!-- Node5 -->
<g id="node5" class="node">
<title>Node5</title>
<g id="a_node5"><a xlink:href="classutil_1_1_string_buf.html#a2dc9e4579aee8516f9402d5ab3eac5eb" target="_top" xlink:title="バッファの末尾に文字列{str} を連結する.">
<polygon fill="white" stroke="red" points="615.5,-29.5 615.5,-48.5 722.5,-48.5 722.5,-29.5 615.5,-29.5"/>
<text text-anchor="middle" x="669" y="-36.5" font-family="Helvetica,sans-Serif" font-size="10.00">util.StringBuf.append</text>
</a>
</g>
</g>
<!-- Node4&#45;&gt;Node5 -->
<g id="edge4" class="edge">
<title>Node4&#45;&gt;Node5</title>
<path fill="none" stroke="midnightblue" d="M560.5,-19.58C574.82,-22.16 590.45,-24.99 605.25,-27.66"/>
<polygon fill="midnightblue" stroke="midnightblue" points="604.87,-31.15 615.33,-29.48 606.11,-24.26 604.87,-31.15"/>
</g>
<!-- Node7 -->
<g id="node6" class="node">
<title>Node7</title>
<g id="a_node6"><a xlink:href="classutil_1_1_trace_level.html#a163bdc94e3e530c147c8fcd59f9f01f4" target="_top" xlink:title="モジュールnameの現在のトレースレベルが{level}以上かを返す。モジュールのレベルが登録されていなければ、全体のトレースレベルを返す。">
<polygon fill="white" stroke="red" points="612,-85.5 612,-104.5 726,-104.5 726,-85.5 612,-85.5"/>
<text text-anchor="middle" x="669" y="-92.5" font-family="Helvetica,sans-Serif" font-size="10.00">util.TraceLevel.LEVEL</text>
</a>
</g>
</g>
<!-- Node4&#45;&gt;Node7 -->
<g id="edge6" class="edge">
<title>Node4&#45;&gt;Node7</title>
<path fill="none" stroke="midnightblue" d="M520.44,-19.6C539.64,-33.49 577.14,-59.37 612,-76 616.4,-78.1 621.1,-80.07 625.83,-81.9"/>
<polygon fill="midnightblue" stroke="midnightblue" points="624.91,-85.29 635.5,-85.42 627.3,-78.71 624.91,-85.29"/>
</g>
<!-- Node5&#45;&gt;Node5 -->
<g id="edge5" class="edge">
<title>Node5&#45;&gt;Node5</title>
<path fill="none" stroke="midnightblue" d="M644.03,-48.76C631.88,-57.57 640.21,-67 669,-67 688.35,-67 698.45,-62.74 699.31,-57.27"/>
<polygon fill="midnightblue" stroke="midnightblue" points="702.25,-55.37 693.97,-48.76 696.32,-59.09 702.25,-55.37"/>
</g>
<!-- Node9&#45;&gt;Node5 -->
<g id="edge8" class="edge">
<title>Node9&#45;&gt;Node5</title>
<path fill="none" stroke="midnightblue" d="M384.22,-76.44C400.82,-73.19 419.71,-69.7 437,-67 493.59,-58.15 558.35,-50.52 604.87,-45.46"/>
<polygon fill="midnightblue" stroke="midnightblue" points="605.54,-48.91 615.1,-44.36 604.79,-41.95 605.54,-48.91"/>
</g>
<!-- Node9&#45;&gt;Node7 -->
<g id="edge9" class="edge">
<title>Node9&#45;&gt;Node7</title>
<path fill="none" stroke="midnightblue" d="M378.21,-95.51C396.1,-99.28 417.49,-103.14 437,-105 498.5,-110.85 514.31,-108.34 576,-105 584.3,-104.55 593.01,-103.87 601.61,-103.08"/>
<polygon fill="midnightblue" stroke="midnightblue" points="602.03,-106.56 611.64,-102.1 601.35,-99.59 602.03,-106.56"/>
</g>
<!-- Node10 -->
<g id="node8" class="node">
<title>Node10</title>
<g id="a_node8"><a xlink:href="classutil_1_1_foldable_string_buf.html#a186579e7cd763dada34bcdc6c8f8f209" target="_top" xlink:title="空白を出力する.">
<polygon fill="white" stroke="black" points="437,-76.5 437,-95.5 576,-95.5 576,-76.5 437,-76.5"/>
<text text-anchor="middle" x="506.5" y="-83.5" font-family="Helvetica,sans-Serif" font-size="10.00">util.FoldableStringBuf.space</text>
</a>
</g>
</g>
<!-- Node9&#45;&gt;Node10 -->
<g id="edge10" class="edge">
<title>Node9&#45;&gt;Node10</title>
<path fill="none" stroke="midnightblue" d="M397.05,-86C406.73,-86 416.89,-86 426.95,-86"/>
<polygon fill="midnightblue" stroke="midnightblue" points="426.96,-89.5 436.96,-86 426.96,-82.5 426.96,-89.5"/>
</g>
<!-- Node10&#45;&gt;Node5 -->
<g id="edge11" class="edge">
<title>Node10&#45;&gt;Node5</title>
<path fill="none" stroke="midnightblue" d="M539.98,-76.49C564.59,-69.28 598.62,-59.32 625.42,-51.47"/>
<polygon fill="midnightblue" stroke="midnightblue" points="626.68,-54.75 635.29,-48.58 624.71,-48.03 626.68,-54.75"/>
</g>
<!-- Node10&#45;&gt;Node7 -->
<g id="edge12" class="edge">
<title>Node10&#45;&gt;Node7</title>
<path fill="none" stroke="midnightblue" d="M576.03,-89.84C584.51,-90.32 593.17,-90.8 601.62,-91.28"/>
<polygon fill="midnightblue" stroke="midnightblue" points="601.61,-94.78 611.79,-91.85 602,-87.79 601.61,-94.78"/>
</g>
</g>
</svg>
        <g id="navigator" transform="translate(0 0)" fill="#404254">
                <rect fill="#f2f5e9" fill-opacity="0.5" stroke="#606060" stroke-width=".5" x="0" y="0" width="60" height="60"/>
                <use id="zoomplus" xlink:href="#zoomPlus" x="17" y="9" onmousedown="handleZoom(evt,'in')"/>
                <use id="zoomminus" xlink:href="#zoomMin" x="42" y="9" onmousedown="handleZoom(evt,'out')"/>
                <use id="reset" xlink:href="#resetDef" x="30" y="36" onmousedown="handleReset()"/>
                <g id="arrowUp" xlink:href="#dirArrow" transform="translate(30 24)" onmousedown="handlePan(0,-1)">
                  <use xlink:href="#rim" fill="#404040">
                        <set attributeName="fill" to="#808080" begin="arrowUp.mouseover" end="arrowUp.mouseout"/>
                  </use>
                  <path fill="none" stroke="white" stroke-width="1.5" d="M0,-3.0v7 M-2.5,-0.5L0,-3.0L2.5,-0.5"/>
                </g>
                <g id="arrowRight" xlink:href="#dirArrow" transform="rotate(90) translate(36 -43)" onmousedown="handlePan(1,0)">
                  <use xlink:href="#rim" fill="#404040">
                        <set attributeName="fill" to="#808080" begin="arrowRight.mouseover" end="arrowRight.mouseout"/>
                  </use>
                  <path fill="none" stroke="white" stroke-width="1.5" d="M0,-3.0v7 M-2.5,-0.5L0,-3.0L2.5,-0.5"/>
                </g>
                <g id="arrowDown" xlink:href="#dirArrow" transform="rotate(180) translate(-30 -48)" onmousedown="handlePan(0,1)">
                  <use xlink:href="#rim" fill="#404040">
                        <set attributeName="fill" to="#808080" begin="arrowDown.mouseover" end="arrowDown.mouseout"/>
                  </use>
                  <path fill="none" stroke="white" stroke-width="1.5" d="M0,-3.0v7 M-2.5,-0.5L0,-3.0L2.5,-0.5"/>
                </g>
                <g id="arrowLeft" xlink:href="#dirArrow" transform="rotate(270) translate(-36 17)" onmousedown="handlePan(-1,0)">
                  <use xlink:href="#rim" fill="#404040">
                        <set attributeName="fill" to="#808080" begin="arrowLeft.mouseover" end="arrowLeft.mouseout"/>
                  </use>
                  <path fill="none" stroke="white" stroke-width="1.5" d="M0,-3.0v7 M-2.5,-0.5L0,-3.0L2.5,-0.5"/>
                </g>
        </g>
        <svg viewBox="0 0 15 15" width="100%" height="30px" preserveAspectRatio="xMaxYMin meet">
         <g id="arrow_out" transform="scale(0.3 0.3)">
          <a xlink:href="classutil_1_1_yaml_buf_a5b7c2018c9764851bb89cd76b4e1a7b1_cgraph_org.svg" target="_base">
           <rect id="button" ry="5" rx="5" y="6" x="6" height="38" width="38"
                fill="#f2f5e9" fill-opacity="0.5" stroke="#606060" stroke-width="1.0"/>
           <path id="arrow"
             d="M 11.500037,31.436501 C 11.940474,20.09759 22.043105,11.32322 32.158766,21.979434 L 37.068811,17.246167 C 37.068811,17.246167 37.088388,32 37.088388,32 L 22.160133,31.978069 C 22.160133,31.978069 26.997745,27.140456 26.997745,27.140456 C 18.528582,18.264221 13.291696,25.230495 11.500037,31.436501 z"
             style="fill:#404040;"/>
          </a>
         </g>
        </svg>
</svg>
