<?xml version="1.0" encoding="UTF-8" standalone="no"?>
<!DOCTYPE svg PUBLIC "-//W3C//DTD SVG 1.1//EN"
 "http://www.w3.org/Graphics/SVG/1.1/DTD/svg11.dtd">
<!-- Generated by graphviz version 2.47.0 (20210316.0004)
 -->
<!-- Title: AstDataReader.ReaderDouble Pages: 1 -->
<!--zoomable 268 -->
<svg id="main" version="1.1" xmlns="http://www.w3.org/2000/svg" xmlns:xlink="http://www.w3.org/1999/xlink" xml:space="preserve" onload="init(evt)">
<style type="text/css"><![CDATA[
.edge:hover path { stroke: red; }
.edge:hover polygon { stroke: red; fill: red; }
]]></style>
<script type="text/javascript"><![CDATA[
var edges = document.getElementsByTagName('g');
if (edges && edges.length) {
  for (var i=0;i<edges.length;i++) {
    if (edges[i].id.substr(0,4)=='edge') {
      edges[i].setAttribute('class','edge');
    }
  }
}
]]></script>
        <defs>
                <circle id="rim" cx="0" cy="0" r="7"/>
                <circle id="rim2" cx="0" cy="0" r="3.5"/>
                <g id="zoomPlus">
                        <use xlink:href="#rim" fill="#404040">
                                <set attributeName="fill" to="#808080" begin="zoomplus.mouseover" end="zoomplus.mouseout"/>
                        </use>
                        <path d="M-4,0h8M0,-4v8" fill="none" stroke="white" stroke-width="1.5" pointer-events="none"/>
                </g>
                <g id="zoomMin">
                        <use xlink:href="#rim" fill="#404040">
                                <set attributeName="fill" to="#808080" begin="zoomminus.mouseover" end="zoomminus.mouseout"/>
                        </use>
                        <path d="M-4,0h8" fill="none" stroke="white" stroke-width="1.5" pointer-events="none"/>
                </g>
                <g id="dirArrow">
                        <path fill="none" stroke="white" stroke-width="1.5" d="M0,-3.0v7 M-2.5,-0.5L0,-3.0L2.5,-0.5"/>
                </g>
               <g id="resetDef">
                       <use xlink:href="#rim2" fill="#404040">
                               <set attributeName="fill" to="#808080" begin="reset.mouseover" end="reset.mouseout"/>
                       </use>
               </g>
        </defs>

<script type="text/javascript">
var viewWidth = 1084;
var viewHeight = 268;
var sectionId = 'dynsection-1';
</script>
<script xlink:href="svgpan.js"/>
<svg id="graph" class="graph">
<g id="viewport">
<title>AstDataReader.ReaderDouble</title>
<polygon fill="white" stroke="transparent" points="-4,4 -4,-264.06 1080,-264.06 1080,4 -4,4"/>
<!-- Node1 -->
<g id="node1" class="node">
<title>Node1</title>
<g id="a_node1"><a xlink:title="倍精度実数型の値をもつ参照読み出しの呼び出し">
<polygon fill="#bfbfbf" stroke="black" points="927,-121.56 927,-140.56 1076,-140.56 1076,-121.56 927,-121.56"/>
<text text-anchor="middle" x="1001.5" y="-128.56" font-family="Helvetica,sans-Serif" font-size="10.00">AstDataReader.ReaderDouble</text>
</a>
</g>
</g>
<!-- Node2 -->
<g id="node2" class="node">
<title>Node2</title>
<g id="a_node2"><a xlink:href="classast_1_1_ast_data_reader_1_1_get_ref.html" target="_top" xlink:title="フレームスタックから参照が示す値を読み出すクラス">
<polygon fill="white" stroke="black" points="772,-121.56 772,-140.56 890,-140.56 890,-121.56 772,-121.56"/>
<text text-anchor="middle" x="831" y="-128.56" font-family="Helvetica,sans-Serif" font-size="10.00">AstDataReader.GetRef</text>
</a>
</g>
</g>
<!-- Node2&#45;&gt;Node1 -->
<g id="edge1" class="edge">
<title>Node2&#45;&gt;Node1</title>
<path fill="none" stroke="midnightblue" d="M900.48,-131.06C909.12,-131.06 917.99,-131.06 926.71,-131.06"/>
<polygon fill="midnightblue" stroke="midnightblue" points="900.46,-127.56 890.46,-131.06 900.46,-134.56 900.46,-127.56"/>
</g>
<!-- Node3 -->
<g id="node3" class="node">
<title>Node3</title>
<g id="a_node3"><a xlink:href="classast_1_1_ast_data_reader.html" target="_top" xlink:title="値の読み出しオブジェクト．">
<polygon fill="white" stroke="black" points="637,-70.56 637,-89.56 721,-89.56 721,-70.56 637,-70.56"/>
<text text-anchor="middle" x="679" y="-77.56" font-family="Helvetica,sans-Serif" font-size="10.00">AstDataReader</text>
</a>
</g>
</g>
<!-- Node3&#45;&gt;Node2 -->
<g id="edge2" class="edge">
<title>Node3&#45;&gt;Node2</title>
<path fill="none" stroke="midnightblue" d="M717.8,-92.91C743.95,-101.8 778.17,-113.44 801.91,-121.51"/>
<polygon fill="midnightblue" stroke="midnightblue" points="718.81,-89.56 708.21,-89.65 716.55,-96.19 718.81,-89.56"/>
</g>
<!-- Node4 -->
<g id="node4" class="node">
<title>Node4</title>
<g id="a_node4"><a xlink:href="classast_1_1_ast_node.html" target="_top" xlink:title="タグなしの順アクセスの子供をもてる抽象構文木のノードのクラス。">
<polygon fill="white" stroke="black" points="511,-127.56 511,-146.56 566,-146.56 566,-127.56 511,-127.56"/>
<text text-anchor="middle" x="538.5" y="-134.56" font-family="Helvetica,sans-Serif" font-size="10.00">AstNode</text>
</a>
</g>
</g>
<!-- Node4&#45;&gt;Node3 -->
<g id="edge3" class="edge">
<title>Node4&#45;&gt;Node3</title>
<path fill="none" stroke="midnightblue" d="M572.25,-123.58C597.62,-113.14 632.15,-98.93 654.74,-89.63"/>
<polygon fill="midnightblue" stroke="midnightblue" points="570.6,-120.48 562.68,-127.52 573.26,-126.95 570.6,-120.48"/>
</g>
<!-- Node20 -->
<g id="node15" class="node">
<title>Node20</title>
<g id="a_node15"><a xlink:href="classmachine_1_1_ref.html" target="_top" xlink:title="フレーム中の変数参照オブジェクトref = (XType type, int vid)">
<polygon fill="white" stroke="black" points="663,-165.56 663,-184.56 695,-184.56 695,-165.56 663,-165.56"/>
<text text-anchor="middle" x="679" y="-172.56" font-family="Helvetica,sans-Serif" font-size="10.00">Ref</text>
</a>
</g>
</g>
<!-- Node4&#45;&gt;Node20 -->
<g id="edge18" class="edge">
<title>Node4&#45;&gt;Node20</title>
<path fill="none" stroke="midnightblue" d="M576.17,-147.12C604.51,-154.9 642.28,-165.26 662.93,-170.93"/>
<polygon fill="midnightblue" stroke="midnightblue" points="576.77,-143.66 566.2,-144.39 574.92,-150.41 576.77,-143.66"/>
</g>
<!-- Node5 -->
<g id="node5" class="node">
<title>Node5</title>
<g id="a_node5"><a xlink:href="classast_1_1_ast_node_base.html" target="_top" xlink:title=" ">
<polygon fill="white" stroke="red" points="248.5,-185.56 248.5,-204.56 325.5,-204.56 325.5,-185.56 248.5,-185.56"/>
<text text-anchor="middle" x="287" y="-192.56" font-family="Helvetica,sans-Serif" font-size="10.00">AstNodeBase</text>
</a>
</g>
</g>
<!-- Node5&#45;&gt;Node4 -->
<g id="edge4" class="edge">
<title>Node5&#45;&gt;Node4</title>
<path fill="none" stroke="midnightblue" d="M335.96,-189.49C370.65,-184.71 418.37,-176.58 459,-164.06 467.37,-161.48 468.81,-159.16 477,-156.06 487.92,-151.94 500.17,-147.97 510.77,-144.74"/>
<polygon fill="midnightblue" stroke="midnightblue" points="335.09,-186.07 325.64,-190.86 336.01,-193.01 335.09,-186.07"/>
</g>
<!-- Node9 -->
<g id="node6" class="node">
<title>Node9</title>
<g id="a_node6"><a xlink:title=" ">
<polygon fill="white" stroke="#bfbfbf" points="10.5,-217.56 10.5,-236.56 39.5,-236.56 39.5,-217.56 10.5,-217.56"/>
<text text-anchor="middle" x="25" y="-224.56" font-family="Helvetica,sans-Serif" font-size="10.00">int</text>
</a>
</g>
</g>
<!-- Node9&#45;&gt;Node5 -->
<g id="edge5" class="edge">
<title>Node9&#45;&gt;Node5</title>
<path fill="none" stroke="#9a32cd" stroke-dasharray="5,2" d="M49.63,-224.15C94.77,-218.6 193.62,-206.43 248.1,-199.73"/>
<polygon fill="#9a32cd" stroke="#9a32cd" points="49.11,-220.69 39.61,-225.39 49.97,-227.64 49.11,-220.69"/>
<text text-anchor="middle" x="129.5" y="-235.06" font-family="Helvetica,sans-Serif" font-size="10.00"> BITMASK_PRINT_WIDTH</text>
<text text-anchor="middle" x="129.5" y="-224.06" font-family="Helvetica,sans-Serif" font-size="10.00">UNDEF</text>
</g>
<!-- Node16 -->
<g id="node11" class="node">
<title>Node16</title>
<g id="a_node11"><a xlink:href="classformat_1_1_style.html" target="_top" xlink:title="ノードの表示スタイルに関するプロパティのクラス.">
<polygon fill="white" stroke="red" points="267.5,-147.56 267.5,-166.56 306.5,-166.56 306.5,-147.56 267.5,-147.56"/>
<text text-anchor="middle" x="287" y="-154.56" font-family="Helvetica,sans-Serif" font-size="10.00">Style</text>
</a>
</g>
</g>
<!-- Node9&#45;&gt;Node16 -->
<g id="edge11" class="edge">
<title>Node9&#45;&gt;Node16</title>
<path fill="none" stroke="#9a32cd" stroke-dasharray="5,2" d="M32.29,-207.6C38.58,-191.69 49.94,-170.22 68,-160.06 133.16,-123.42 227.53,-141.53 267.26,-151.72"/>
<polygon fill="#9a32cd" stroke="#9a32cd" points="28.97,-206.49 28.87,-217.08 35.56,-208.86 28.97,-206.49"/>
<text text-anchor="middle" x="129.5" y="-163.06" font-family="Helvetica,sans-Serif" font-size="10.00"> pref</text>
</g>
<!-- Node9&#45;&gt;Node20 -->
<g id="edge20" class="edge">
<title>Node9&#45;&gt;Node20</title>
<path fill="none" stroke="#9a32cd" stroke-dasharray="5,2" d="M48.77,-239.97C54.84,-242.83 61.51,-245.47 68,-247.06 128.91,-261.96 146.3,-250.95 209,-252.06 278.32,-253.29 296.17,-260.4 365,-252.06 481.94,-237.89 618.19,-194.96 662.93,-180.15"/>
<polygon fill="#9a32cd" stroke="#9a32cd" points="50.34,-236.84 39.85,-235.42 47.17,-243.08 50.34,-236.84"/>
<text text-anchor="middle" x="421" y="-252.06" font-family="Helvetica,sans-Serif" font-size="10.00"> UNDEF</text>
</g>
<!-- Node11 -->
<g id="node7" class="node">
<title>Node11</title>
<g id="a_node7"><a xlink:title=" ">
<polygon fill="white" stroke="#bfbfbf" points="0,-104.56 0,-123.56 50,-123.56 50,-104.56 0,-104.56"/>
<text text-anchor="middle" x="25" y="-111.56" font-family="Helvetica,sans-Serif" font-size="10.00">boolean</text>
</a>
</g>
</g>
<!-- Node11&#45;&gt;Node3 -->
<g id="edge15" class="edge">
<title>Node11&#45;&gt;Node3</title>
<path fill="none" stroke="#9a32cd" stroke-dasharray="5,2" d="M48.36,-98.82C81.62,-77.16 146.9,-38.5 209,-24.06 378.44,15.35 432.11,3.48 600,-42.06 623.12,-48.33 647.61,-61.47 662.85,-70.53"/>
<polygon fill="#9a32cd" stroke="#9a32cd" points="46.27,-96.01 39.85,-104.44 50.13,-101.84 46.27,-96.01"/>
<text text-anchor="middle" x="421" y="-11.06" font-family="Helvetica,sans-Serif" font-size="10.00"> DEBUG_TYPE</text>
</g>
<!-- Node11&#45;&gt;Node5 -->
<g id="edge6" class="edge">
<title>Node11&#45;&gt;Node5</title>
<path fill="none" stroke="#9a32cd" stroke-dasharray="5,2" d="M34.59,-132.76C41.63,-145.8 52.89,-162.36 68,-171.06 83.22,-179.83 189.73,-188.42 248.04,-192.54"/>
<polygon fill="#9a32cd" stroke="#9a32cd" points="37.65,-131.04 30.04,-123.67 31.39,-134.18 37.65,-131.04"/>
<text text-anchor="middle" x="129.5" y="-190.06" font-family="Helvetica,sans-Serif" font-size="10.00"> DEBUG_REPO</text>
</g>
<!-- Node11&#45;&gt;Node16 -->
<g id="edge12" class="edge">
<title>Node11&#45;&gt;Node16</title>
<path fill="none" stroke="#9a32cd" stroke-dasharray="5,2" d="M60.29,-105.96C95.11,-99.57 149.64,-94.75 191,-115.06 202.65,-120.78 198.1,-131.01 209,-138.06 226.69,-149.51 250.74,-154.06 267.23,-155.87"/>
<polygon fill="#9a32cd" stroke="#9a32cd" points="59.28,-102.59 50.15,-107.96 60.64,-109.46 59.28,-102.59"/>
<text text-anchor="middle" x="129.5" y="-129.06" font-family="Helvetica,sans-Serif" font-size="10.00"> preoperSupress</text>
<text text-anchor="middle" x="129.5" y="-118.06" font-family="Helvetica,sans-Serif" font-size="10.00">toInline</text>
</g>
<!-- Node12 -->
<g id="node8" class="node">
<title>Node12</title>
<g id="a_node8"><a xlink:href="interfaceformat_1_1_x_formattable_1_1_navigatable.html" target="_top" xlink:title="木構造の分岐ノードとして清書可能なオブジェクトのクラス">
<polygon fill="white" stroke="red" points="222,-109.56 222,-128.56 352,-128.56 352,-109.56 222,-109.56"/>
<text text-anchor="middle" x="287" y="-116.56" font-family="Helvetica,sans-Serif" font-size="10.00">XFormattable.Navigatable</text>
</a>
</g>
</g>
<!-- Node12&#45;&gt;Node4 -->
<g id="edge7" class="edge">
<title>Node12&#45;&gt;Node4</title>
<path fill="none" stroke="midnightblue" d="M362.4,-124.43C412.48,-128.04 475.56,-132.59 510.7,-135.13"/>
<polygon fill="midnightblue" stroke="midnightblue" points="362.48,-120.93 352.25,-123.7 361.97,-127.91 362.48,-120.93"/>
</g>
<!-- Node14 -->
<g id="node9" class="node">
<title>Node14</title>
<g id="a_node9"><a xlink:href="interfaceformat_1_1_x_formattable_1_1_typed_formattable.html" target="_top" xlink:title="ノードの型情報をもつ書式出力可能なオブジェクトのインタフェース．">
<polygon fill="white" stroke="red" points="209,-71.56 209,-90.56 365,-90.56 365,-71.56 209,-71.56"/>
<text text-anchor="middle" x="287" y="-78.56" font-family="Helvetica,sans-Serif" font-size="10.00">XFormattable.TypedFormattable</text>
</a>
</g>
</g>
<!-- Node14&#45;&gt;Node4 -->
<g id="edge8" class="edge">
<title>Node14&#45;&gt;Node4</title>
<path fill="none" stroke="midnightblue" d="M340.67,-92.88C392.76,-104.57 470.37,-121.99 510.82,-131.07"/>
<polygon fill="midnightblue" stroke="midnightblue" points="341.13,-89.4 330.61,-90.62 339.6,-96.23 341.13,-89.4"/>
</g>
<!-- Node15 -->
<g id="node10" class="node">
<title>Node15</title>
<g id="a_node10"><a xlink:title=" ">
<polygon fill="white" stroke="#bfbfbf" points="261,-223.56 261,-242.56 313,-242.56 313,-223.56 261,-223.56"/>
<text text-anchor="middle" x="287" y="-230.56" font-family="Helvetica,sans-Serif" font-size="10.00">Boolean</text>
</a>
</g>
</g>
<!-- Node15&#45;&gt;Node4 -->
<g id="edge9" class="edge">
<title>Node15&#45;&gt;Node4</title>
<path fill="none" stroke="#9a32cd" stroke-dasharray="5,2" d="M323.13,-224.76C336.3,-221.56 351.37,-217.77 365,-214.06 407.06,-202.61 424.56,-212.79 459,-186.06 471.28,-176.53 464.79,-165.68 477,-156.06 486.69,-148.43 499.48,-143.84 510.8,-141.09"/>
<polygon fill="#9a32cd" stroke="#9a32cd" points="321.95,-221.45 313.05,-227.2 323.59,-228.26 321.95,-221.45"/>
<text text-anchor="middle" x="421" y="-212.06" font-family="Helvetica,sans-Serif" font-size="10.00"> DEBUG_CHILD</text>
</g>
<!-- Node16&#45;&gt;Node4 -->
<g id="edge10" class="edge">
<title>Node16&#45;&gt;Node4</title>
<path fill="none" stroke="#9a32cd" stroke-dasharray="5,2" d="M316.93,-154.74C365.7,-150.83 463.57,-142.99 510.8,-139.2"/>
<polygon fill="#9a32cd" stroke="#9a32cd" points="316.44,-151.27 306.75,-155.56 317,-158.25 316.44,-151.27"/>
<text text-anchor="middle" x="421" y="-152.06" font-family="Helvetica,sans-Serif" font-size="10.00"> sty</text>
</g>
<!-- Node17 -->
<g id="node12" class="node">
<title>Node17</title>
<g id="a_node12"><a xlink:href="interfacecmd_1_1_generatable_1_1_evaluatable.html" target="_top" xlink:title="評価して値を返すノードのインタフェース．必ずしもコードを生成しなくても良い．">
<polygon fill="white" stroke="black" points="477,-51.56 477,-70.56 600,-70.56 600,-51.56 477,-51.56"/>
<text text-anchor="middle" x="538.5" y="-58.56" font-family="Helvetica,sans-Serif" font-size="10.00">Generatable.Evaluatable</text>
</a>
</g>
</g>
<!-- Node17&#45;&gt;Node3 -->
<g id="edge13" class="edge">
<title>Node17&#45;&gt;Node3</title>
<path fill="none" stroke="midnightblue" d="M610.43,-70.79C619.47,-72.03 628.47,-73.27 636.81,-74.41"/>
<polygon fill="midnightblue" stroke="midnightblue" points="610.63,-67.29 600.25,-69.39 609.68,-74.22 610.63,-67.29"/>
</g>
<!-- Node18 -->
<g id="node13" class="node">
<title>Node18</title>
<g id="a_node13"><a xlink:href="interfacecmd_1_1_generatable.html" target="_top" xlink:title="変換してコードを生成できるノードのインタフェース.">
<polygon fill="white" stroke="black" points="252.5,-33.56 252.5,-52.56 321.5,-52.56 321.5,-33.56 252.5,-33.56"/>
<text text-anchor="middle" x="287" y="-40.56" font-family="Helvetica,sans-Serif" font-size="10.00">Generatable</text>
</a>
</g>
</g>
<!-- Node18&#45;&gt;Node17 -->
<g id="edge14" class="edge">
<title>Node18&#45;&gt;Node17</title>
<path fill="none" stroke="midnightblue" d="M331.67,-46.21C371.84,-49.11 431.81,-53.44 476.67,-56.67"/>
<polygon fill="midnightblue" stroke="midnightblue" points="331.87,-42.72 321.65,-45.49 331.37,-49.7 331.87,-42.72"/>
</g>
<!-- Node19 -->
<g id="node14" class="node">
<title>Node19</title>
<g id="a_node14"><a xlink:href="interfacemachine_1_1_data_accessor.html" target="_top" xlink:title="参照をもつデータ読み書きオブジェクトのインタフェース.">
<polygon fill="white" stroke="black" points="639.5,-121.56 639.5,-140.56 718.5,-140.56 718.5,-121.56 639.5,-121.56"/>
<text text-anchor="middle" x="679" y="-128.56" font-family="Helvetica,sans-Serif" font-size="10.00">DataAccessor</text>
</a>
</g>
</g>
<!-- Node19&#45;&gt;Node2 -->
<g id="edge16" class="edge">
<title>Node19&#45;&gt;Node2</title>
<path fill="none" stroke="midnightblue" d="M728.86,-131.06C742.62,-131.06 757.72,-131.06 771.97,-131.06"/>
<polygon fill="midnightblue" stroke="midnightblue" points="728.63,-127.56 718.63,-131.06 728.63,-134.56 728.63,-127.56"/>
</g>
<!-- Node20&#45;&gt;Node2 -->
<g id="edge17" class="edge">
<title>Node20&#45;&gt;Node2</title>
<path fill="none" stroke="#9a32cd" stroke-dasharray="5,2" d="M704.81,-167.79C730.13,-160.36 769.57,-148.79 797.41,-140.62"/>
<polygon fill="#9a32cd" stroke="#9a32cd" points="703.82,-164.43 695.21,-170.6 705.79,-171.14 703.82,-164.43"/>
<text text-anchor="middle" x="746.5" y="-159.06" font-family="Helvetica,sans-Serif" font-size="10.00"> ref</text>
</g>
<!-- Node21 -->
<g id="node16" class="node">
<title>Node21</title>
<g id="a_node16"><a xlink:href="interfacemachine_1_1_assignable.html" target="_top" xlink:title="変数（チャネルとコンテナの名前）の抽象化">
<polygon fill="white" stroke="black" points="506,-165.56 506,-184.56 571,-184.56 571,-165.56 506,-165.56"/>
<text text-anchor="middle" x="538.5" y="-172.56" font-family="Helvetica,sans-Serif" font-size="10.00">Assignable</text>
</a>
</g>
</g>
<!-- Node21&#45;&gt;Node20 -->
<g id="edge19" class="edge">
<title>Node21&#45;&gt;Node20</title>
<path fill="none" stroke="midnightblue" d="M581.47,-175.06C609.09,-175.06 643.59,-175.06 662.97,-175.06"/>
<polygon fill="midnightblue" stroke="midnightblue" points="581.27,-171.56 571.27,-175.06 581.27,-178.56 581.27,-171.56"/>
</g>
</g>
</svg>
        <g id="navigator" transform="translate(0 0)" fill="#404254">
                <rect fill="#f2f5e9" fill-opacity="0.5" stroke="#606060" stroke-width=".5" x="0" y="0" width="60" height="60"/>
                <use id="zoomplus" xlink:href="#zoomPlus" x="17" y="9" onmousedown="handleZoom(evt,'in')"/>
                <use id="zoomminus" xlink:href="#zoomMin" x="42" y="9" onmousedown="handleZoom(evt,'out')"/>
                <use id="reset" xlink:href="#resetDef" x="30" y="36" onmousedown="handleReset()"/>
                <g id="arrowUp" xlink:href="#dirArrow" transform="translate(30 24)" onmousedown="handlePan(0,-1)">
                  <use xlink:href="#rim" fill="#404040">
                        <set attributeName="fill" to="#808080" begin="arrowUp.mouseover" end="arrowUp.mouseout"/>
                  </use>
                  <path fill="none" stroke="white" stroke-width="1.5" d="M0,-3.0v7 M-2.5,-0.5L0,-3.0L2.5,-0.5"/>
                </g>
                <g id="arrowRight" xlink:href="#dirArrow" transform="rotate(90) translate(36 -43)" onmousedown="handlePan(1,0)">
                  <use xlink:href="#rim" fill="#404040">
                        <set attributeName="fill" to="#808080" begin="arrowRight.mouseover" end="arrowRight.mouseout"/>
                  </use>
                  <path fill="none" stroke="white" stroke-width="1.5" d="M0,-3.0v7 M-2.5,-0.5L0,-3.0L2.5,-0.5"/>
                </g>
                <g id="arrowDown" xlink:href="#dirArrow" transform="rotate(180) translate(-30 -48)" onmousedown="handlePan(0,1)">
                  <use xlink:href="#rim" fill="#404040">
                        <set attributeName="fill" to="#808080" begin="arrowDown.mouseover" end="arrowDown.mouseout"/>
                  </use>
                  <path fill="none" stroke="white" stroke-width="1.5" d="M0,-3.0v7 M-2.5,-0.5L0,-3.0L2.5,-0.5"/>
                </g>
                <g id="arrowLeft" xlink:href="#dirArrow" transform="rotate(270) translate(-36 17)" onmousedown="handlePan(-1,0)">
                  <use xlink:href="#rim" fill="#404040">
                        <set attributeName="fill" to="#808080" begin="arrowLeft.mouseover" end="arrowLeft.mouseout"/>
                  </use>
                  <path fill="none" stroke="white" stroke-width="1.5" d="M0,-3.0v7 M-2.5,-0.5L0,-3.0L2.5,-0.5"/>
                </g>
        </g>
        <svg viewBox="0 0 15 15" width="100%" height="30px" preserveAspectRatio="xMaxYMin meet">
         <g id="arrow_out" transform="scale(0.3 0.3)">
          <a xlink:href="classast_1_1_ast_data_reader_1_1_reader_double__coll__graph_org.svg" target="_base">
           <rect id="button" ry="5" rx="5" y="6" x="6" height="38" width="38"
                fill="#f2f5e9" fill-opacity="0.5" stroke="#606060" stroke-width="1.0"/>
           <path id="arrow"
             d="M 11.500037,31.436501 C 11.940474,20.09759 22.043105,11.32322 32.158766,21.979434 L 37.068811,17.246167 C 37.068811,17.246167 37.088388,32 37.088388,32 L 22.160133,31.978069 C 22.160133,31.978069 26.997745,27.140456 26.997745,27.140456 C 18.528582,18.264221 13.291696,25.230495 11.500037,31.436501 z"
             style="fill:#404040;"/>
          </a>
         </g>
        </svg>
</svg>
