<?xml version="1.0" encoding="UTF-8" standalone="no"?>
<!DOCTYPE svg PUBLIC "-//W3C//DTD SVG 1.1//EN"
 "http://www.w3.org/Graphics/SVG/1.1/DTD/svg11.dtd">
<!-- Generated by graphviz version 2.47.0 (20210316.0004)
 -->
<!-- Title: AstMathOper.StringAddOper Pages: 1 -->
<svg width="257pt" height="308pt"
 viewBox="0.00 0.00 256.50 308.00" xmlns="http://www.w3.org/2000/svg" xmlns:xlink="http://www.w3.org/1999/xlink">
<g id="graph0" class="graph" transform="scale(1 1) rotate(0) translate(4 304)">
<title>AstMathOper.StringAddOper</title>
<polygon fill="white" stroke="transparent" points="-4,4 -4,-304 252.5,-304 252.5,4 -4,4"/>
<!-- Node1 -->
<g id="node1" class="node">
<title>Node1</title>
<g id="a_node1"><a xlink:title=" ">
<polygon fill="#bfbfbf" stroke="black" points="108.5,-0.5 108.5,-19.5 248.5,-19.5 248.5,-0.5 108.5,-0.5"/>
<text text-anchor="middle" x="178.5" y="-7.5" font-family="Helvetica,sans-Serif" font-size="10.00">AstMathOper.StringAddOper</text>
</a>
</g>
</g>
<!-- Node2 -->
<g id="node2" class="node">
<title>Node2</title>
<g id="a_node2"><a xlink:href="classast_1_1_ast_math_oper_1_1_binary_oper.html" target="_top" xlink:title="end of class AstMathOper">
<polygon fill="white" stroke="black" points="71,-56.5 71,-75.5 196,-75.5 196,-56.5 71,-56.5"/>
<text text-anchor="middle" x="133.5" y="-63.5" font-family="Helvetica,sans-Serif" font-size="10.00">AstMathOper.BinaryOper</text>
</a>
</g>
</g>
<!-- Node2&#45;&gt;Node1 -->
<g id="edge1" class="edge">
<title>Node2&#45;&gt;Node1</title>
<path fill="none" stroke="midnightblue" d="M147.55,-48.14C155.39,-38.74 164.83,-27.4 171.21,-19.75"/>
<polygon fill="midnightblue" stroke="midnightblue" points="144.64,-46.16 140.93,-56.08 150.02,-50.64 144.64,-46.16"/>
</g>
<!-- Node3 -->
<g id="node3" class="node">
<title>Node3</title>
<g id="a_node3"><a xlink:href="classast_1_1_ast_math_oper.html" target="_top" xlink:title="値を返すことができるノードのクラス．一般に1個以上の子をもつ演算子である．">
<polygon fill="white" stroke="black" points="96.5,-112.5 96.5,-131.5 170.5,-131.5 170.5,-112.5 96.5,-112.5"/>
<text text-anchor="middle" x="133.5" y="-119.5" font-family="Helvetica,sans-Serif" font-size="10.00">AstMathOper</text>
</a>
</g>
</g>
<!-- Node3&#45;&gt;Node2 -->
<g id="edge2" class="edge">
<title>Node3&#45;&gt;Node2</title>
<path fill="none" stroke="midnightblue" d="M133.5,-101.8C133.5,-92.91 133.5,-82.78 133.5,-75.75"/>
<polygon fill="midnightblue" stroke="midnightblue" points="130,-102.08 133.5,-112.08 137,-102.08 130,-102.08"/>
</g>
<!-- Node4 -->
<g id="node4" class="node">
<title>Node4</title>
<g id="a_node4"><a xlink:href="classast_1_1_ast_oper.html" target="_top" xlink:title=" ">
<polygon fill="white" stroke="black" points="107,-168.5 107,-187.5 160,-187.5 160,-168.5 107,-168.5"/>
<text text-anchor="middle" x="133.5" y="-175.5" font-family="Helvetica,sans-Serif" font-size="10.00">AstOper</text>
</a>
</g>
</g>
<!-- Node4&#45;&gt;Node3 -->
<g id="edge3" class="edge">
<title>Node4&#45;&gt;Node3</title>
<path fill="none" stroke="midnightblue" d="M133.5,-157.8C133.5,-148.91 133.5,-138.78 133.5,-131.75"/>
<polygon fill="midnightblue" stroke="midnightblue" points="130,-158.08 133.5,-168.08 137,-158.08 130,-158.08"/>
</g>
<!-- Node5 -->
<g id="node5" class="node">
<title>Node5</title>
<g id="a_node5"><a xlink:href="classast_1_1_ast_node.html" target="_top" xlink:title="タグなしの順アクセスの子供をもてる抽象構文木のノードのクラス。">
<polygon fill="white" stroke="red" points="0,-224.5 0,-243.5 55,-243.5 55,-224.5 0,-224.5"/>
<text text-anchor="middle" x="27.5" y="-231.5" font-family="Helvetica,sans-Serif" font-size="10.00">AstNode</text>
</a>
</g>
</g>
<!-- Node5&#45;&gt;Node4 -->
<g id="edge4" class="edge">
<title>Node5&#45;&gt;Node4</title>
<path fill="none" stroke="midnightblue" d="M53.56,-219.73C73.18,-209.73 99.53,-196.31 116.51,-187.65"/>
<polygon fill="midnightblue" stroke="midnightblue" points="51.85,-216.67 44.53,-224.32 55.03,-222.9 51.85,-216.67"/>
</g>
<!-- Node11 -->
<g id="node6" class="node">
<title>Node11</title>
<g id="a_node6"><a xlink:href="interfacecmd_1_1_generatable_1_1_evaluatable.html" target="_top" xlink:title="評価して値を返すノードのインタフェース．必ずしもコードを生成しなくても良い．">
<polygon fill="white" stroke="black" points="73,-224.5 73,-243.5 196,-243.5 196,-224.5 73,-224.5"/>
<text text-anchor="middle" x="134.5" y="-231.5" font-family="Helvetica,sans-Serif" font-size="10.00">Generatable.Evaluatable</text>
</a>
</g>
</g>
<!-- Node11&#45;&gt;Node4 -->
<g id="edge5" class="edge">
<title>Node11&#45;&gt;Node4</title>
<path fill="none" stroke="midnightblue" d="M134.14,-213.8C133.98,-204.91 133.79,-194.78 133.66,-187.75"/>
<polygon fill="midnightblue" stroke="midnightblue" points="130.65,-214.15 134.33,-224.08 137.65,-214.02 130.65,-214.15"/>
</g>
<!-- Node12 -->
<g id="node7" class="node">
<title>Node12</title>
<g id="a_node7"><a xlink:href="interfacecmd_1_1_generatable.html" target="_top" xlink:title="変換してコードを生成できるノードのインタフェース.">
<polygon fill="white" stroke="black" points="145,-280.5 145,-299.5 214,-299.5 214,-280.5 145,-280.5"/>
<text text-anchor="middle" x="179.5" y="-287.5" font-family="Helvetica,sans-Serif" font-size="10.00">Generatable</text>
</a>
</g>
</g>
<!-- Node12&#45;&gt;Node1 -->
<g id="edge7" class="edge">
<title>Node12&#45;&gt;Node1</title>
<path fill="none" stroke="midnightblue" d="M191.33,-271.96C204.66,-251.06 224.5,-214.07 224.5,-179 224.5,-179 224.5,-179 224.5,-121 224.5,-80.43 197.54,-37.5 184.9,-19.61"/>
<polygon fill="midnightblue" stroke="midnightblue" points="188.37,-270.1 185.76,-280.37 194.2,-273.97 188.37,-270.1"/>
</g>
<!-- Node12&#45;&gt;Node11 -->
<g id="edge6" class="edge">
<title>Node12&#45;&gt;Node11</title>
<path fill="none" stroke="midnightblue" d="M165.45,-272.14C157.61,-262.74 148.17,-251.4 141.79,-243.75"/>
<polygon fill="midnightblue" stroke="midnightblue" points="162.98,-274.64 172.07,-280.08 168.36,-270.16 162.98,-274.64"/>
</g>
</g>
</svg>
