<?xml version="1.0" encoding="UTF-8" standalone="no"?>
<!DOCTYPE svg PUBLIC "-//W3C//DTD SVG 1.1//EN"
 "http://www.w3.org/Graphics/SVG/1.1/DTD/svg11.dtd">
<!-- Generated by graphviz version 2.47.0 (20210316.0004)
 -->
<!-- Title: Block Pages: 1 -->
<svg width="1109pt" height="684pt"
 viewBox="0.00 0.00 1109.00 684.00" xmlns="http://www.w3.org/2000/svg" xmlns:xlink="http://www.w3.org/1999/xlink">
<g id="graph0" class="graph" transform="scale(1 1) rotate(0) translate(4 680)">
<title>Block</title>
<polygon fill="white" stroke="transparent" points="-4,4 -4,-680 1105,-680 1105,4 -4,4"/>
<!-- Node1 -->
<g id="node1" class="node">
<title>Node1</title>
<g id="a_node1"><a xlink:title="抽象構文木のステップ式のクラス.">
<polygon fill="#bfbfbf" stroke="black" points="1060,-317.5 1060,-336.5 1101,-336.5 1101,-317.5 1060,-317.5"/>
<text text-anchor="middle" x="1080.5" y="-324.5" font-family="Helvetica,sans-Serif" font-size="10.00">Block</text>
</a>
</g>
</g>
<!-- Node2 -->
<g id="node2" class="node">
<title>Node2</title>
<g id="a_node2"><a xlink:href="classast_1_1_block_base.html" target="_top" xlink:title="抽象構文木のステップ式のクラス.">
<polygon fill="white" stroke="black" points="959,-317.5 959,-336.5 1023,-336.5 1023,-317.5 959,-317.5"/>
<text text-anchor="middle" x="991" y="-324.5" font-family="Helvetica,sans-Serif" font-size="10.00">BlockBase</text>
</a>
</g>
</g>
<!-- Node2&#45;&gt;Node1 -->
<g id="edge1" class="edge">
<title>Node2&#45;&gt;Node1</title>
<path fill="none" stroke="midnightblue" d="M1033.11,-327C1042.47,-327 1051.99,-327 1059.95,-327"/>
<polygon fill="midnightblue" stroke="midnightblue" points="1033.1,-323.5 1023.1,-327 1033.1,-330.5 1033.1,-323.5"/>
</g>
<!-- Node3 -->
<g id="node3" class="node">
<title>Node3</title>
<g id="a_node3"><a xlink:href="classast_1_1_ast_node_tagged.html" target="_top" xlink:title="子それぞれにタグと型アイテムをもつ順序ノードAstNodeのサブクラス．利用者は自前で，追加する子のField名と型を設定する．読み出しは子の添字のみで行う．">
<polygon fill="white" stroke="black" points="791,-515.5 791,-534.5 877,-534.5 877,-515.5 791,-515.5"/>
<text text-anchor="middle" x="834" y="-522.5" font-family="Helvetica,sans-Serif" font-size="10.00">AstNodeTagged</text>
</a>
</g>
</g>
<!-- Node3&#45;&gt;Node2 -->
<g id="edge2" class="edge">
<title>Node3&#45;&gt;Node2</title>
<path fill="none" stroke="midnightblue" d="M866.63,-510.78C890.01,-498.86 921.1,-479.79 941,-455 971.09,-417.52 984.2,-359.49 988.4,-336.68"/>
<polygon fill="midnightblue" stroke="midnightblue" points="864.88,-507.74 857.46,-515.3 867.98,-514.02 864.88,-507.74"/>
</g>
<!-- Node4 -->
<g id="node4" class="node">
<title>Node4</title>
<g id="a_node4"><a xlink:href="classast_1_1_ast_node.html" target="_top" xlink:title="タグなしの順アクセスの子供をもてる抽象構文木のノードのクラス。">
<polygon fill="white" stroke="black" points="583.5,-409.5 583.5,-428.5 638.5,-428.5 638.5,-409.5 583.5,-409.5"/>
<text text-anchor="middle" x="611" y="-416.5" font-family="Helvetica,sans-Serif" font-size="10.00">AstNode</text>
</a>
</g>
</g>
<!-- Node4&#45;&gt;Node3 -->
<g id="edge3" class="edge">
<title>Node4&#45;&gt;Node3</title>
<path fill="none" stroke="midnightblue" d="M648.97,-419.71C662.73,-423.03 678.32,-428.07 692,-434 745.78,-457.32 804.78,-496.54 825.39,-515.46"/>
<polygon fill="midnightblue" stroke="midnightblue" points="649.37,-416.22 638.86,-417.52 647.89,-423.06 649.37,-416.22"/>
</g>
<!-- Node4&#45;&gt;Node3 -->
<g id="edge16" class="edge">
<title>Node4&#45;&gt;Node3</title>
<path fill="none" stroke="midnightblue" d="M635.69,-432.14C651.89,-437.71 673.67,-444.05 692,-452 735.39,-470.81 782.17,-499.98 809.46,-515.48"/>
<polygon fill="midnightblue" stroke="midnightblue" points="636.53,-428.72 625.94,-428.58 634.13,-435.29 636.53,-428.72"/>
</g>
<!-- Node24 -->
<g id="node20" class="node">
<title>Node24</title>
<g id="a_node20"><a xlink:href="classast_1_1_sent_list.html" target="_top" xlink:title="文Sentenceのリスト.">
<polygon fill="white" stroke="black" points="807.5,-393.5 807.5,-412.5 860.5,-412.5 860.5,-393.5 807.5,-393.5"/>
<text text-anchor="middle" x="834" y="-400.5" font-family="Helvetica,sans-Serif" font-size="10.00">SentList</text>
</a>
</g>
</g>
<!-- Node4&#45;&gt;Node24 -->
<g id="edge24" class="edge">
<title>Node4&#45;&gt;Node24</title>
<path fill="none" stroke="midnightblue" d="M648.83,-416.33C693.66,-413.09 768.19,-407.69 807.27,-404.86"/>
<polygon fill="midnightblue" stroke="midnightblue" points="648.38,-412.86 638.66,-417.07 648.88,-419.84 648.38,-412.86"/>
</g>
<!-- Node29 -->
<g id="node25" class="node">
<title>Node29</title>
<g id="a_node25"><a xlink:href="classmachine_1_1_ref.html" target="_top" xlink:title="フレーム中の変数参照オブジェクトref = (XType type, int vid)">
<polygon fill="white" stroke="black" points="818,-195.5 818,-214.5 850,-214.5 850,-195.5 818,-195.5"/>
<text text-anchor="middle" x="834" y="-202.5" font-family="Helvetica,sans-Serif" font-size="10.00">Ref</text>
</a>
</g>
</g>
<!-- Node4&#45;&gt;Node29 -->
<g id="edge38" class="edge">
<title>Node4&#45;&gt;Node29</title>
<path fill="none" stroke="midnightblue" d="M648.83,-415.29C664.47,-411.77 681.49,-405 692,-392 735.89,-337.73 664.01,-288.5 710,-236 724.15,-219.85 788.11,-210.32 817.79,-206.69"/>
<polygon fill="midnightblue" stroke="midnightblue" points="648.01,-411.88 638.83,-417.16 649.3,-418.76 648.01,-411.88"/>
</g>
<!-- Node5 -->
<g id="node5" class="node">
<title>Node5</title>
<g id="a_node5"><a xlink:href="classast_1_1_ast_node_base.html" target="_top" xlink:title=" ">
<polygon fill="white" stroke="red" points="301.5,-371.5 301.5,-390.5 378.5,-390.5 378.5,-371.5 301.5,-371.5"/>
<text text-anchor="middle" x="340" y="-378.5" font-family="Helvetica,sans-Serif" font-size="10.00">AstNodeBase</text>
</a>
</g>
</g>
<!-- Node5&#45;&gt;Node4 -->
<g id="edge4" class="edge">
<title>Node5&#45;&gt;Node4</title>
<path fill="none" stroke="midnightblue" d="M388.83,-387.76C445.45,-395.76 537.79,-408.8 583.14,-415.21"/>
<polygon fill="midnightblue" stroke="midnightblue" points="389.08,-384.26 378.69,-386.32 388.1,-391.19 389.08,-384.26"/>
</g>
<!-- Node8 -->
<g id="node6" class="node">
<title>Node8</title>
<g id="a_node6"><a xlink:title=" ">
<polygon fill="white" stroke="#bfbfbf" points="15,-383.5 15,-402.5 88,-402.5 88,-383.5 15,-383.5"/>
<text text-anchor="middle" x="51.5" y="-390.5" font-family="Helvetica,sans-Serif" font-size="10.00">static Report</text>
</a>
</g>
</g>
<!-- Node8&#45;&gt;Node5 -->
<g id="edge5" class="edge">
<title>Node8&#45;&gt;Node5</title>
<path fill="none" stroke="#9a32cd" stroke-dasharray="5,2" d="M63.84,-411.39C75.68,-428.66 95.99,-453.38 121,-464 171.32,-485.37 200.43,-497.01 244,-464 267.55,-446.16 240.77,-420.55 262,-400 272.49,-389.85 287.49,-384.84 301.47,-382.47"/>
<polygon fill="#9a32cd" stroke="#9a32cd" points="66.56,-409.16 58.16,-402.7 60.7,-412.99 66.56,-409.16"/>
<text text-anchor="middle" x="182.5" y="-487" font-family="Helvetica,sans-Serif" font-size="10.00"> repo</text>
</g>
<!-- Node28 -->
<g id="node24" class="node">
<title>Node28</title>
<g id="a_node24"><a xlink:href="classmachine_1_1_ref_list.html" target="_top" xlink:title="@整数の表">
<polygon fill="white" stroke="black" points="316,-228.5 316,-247.5 364,-247.5 364,-228.5 316,-228.5"/>
<text text-anchor="middle" x="340" y="-235.5" font-family="Helvetica,sans-Serif" font-size="10.00">RefList</text>
</a>
</g>
</g>
<!-- Node8&#45;&gt;Node28 -->
<g id="edge33" class="edge">
<title>Node8&#45;&gt;Node28</title>
<path fill="none" stroke="#9a32cd" stroke-dasharray="5,2" d="M60.12,-373.92C70.4,-350.68 90.96,-311.95 121,-291 152.71,-268.89 266.31,-249.2 315.75,-241.47"/>
<polygon fill="#9a32cd" stroke="#9a32cd" points="56.79,-372.81 56.12,-383.39 63.24,-375.54 56.79,-372.81"/>
<text text-anchor="middle" x="182.5" y="-294" font-family="Helvetica,sans-Serif" font-size="10.00"> repo</text>
</g>
<!-- Node9 -->
<g id="node7" class="node">
<title>Node9</title>
<g id="a_node7"><a xlink:title=" ">
<polygon fill="white" stroke="#bfbfbf" points="37,-255.5 37,-274.5 66,-274.5 66,-255.5 37,-255.5"/>
<text text-anchor="middle" x="51.5" y="-262.5" font-family="Helvetica,sans-Serif" font-size="10.00">int</text>
</a>
</g>
</g>
<!-- Node9&#45;&gt;Node1 -->
<g id="edge42" class="edge">
<title>Node9&#45;&gt;Node1</title>
<path fill="none" stroke="#9a32cd" stroke-dasharray="5,2" d="M66.81,-247.63C105.55,-202.67 217.78,-86 339,-86 339,-86 339,-86 992,-86 1042.08,-86 1071.72,-272.17 1078.16,-317.25"/>
<polygon fill="#9a32cd" stroke="#9a32cd" points="64.04,-245.48 60.25,-255.38 69.38,-250 64.04,-245.48"/>
<text text-anchor="middle" x="741.5" y="-89" font-family="Helvetica,sans-Serif" font-size="10.00"> idxTypeSents</text>
</g>
<!-- Node9&#45;&gt;Node2 -->
<g id="edge29" class="edge">
<title>Node9&#45;&gt;Node2</title>
<path fill="none" stroke="#9a32cd" stroke-dasharray="5,2" d="M75.69,-271.49C88.87,-274.91 105.74,-278.83 121,-281 445.95,-327.18 845.21,-328.11 958.63,-327.33"/>
<polygon fill="#9a32cd" stroke="#9a32cd" points="76.58,-268.11 66.01,-268.9 74.77,-274.87 76.58,-268.11"/>
<text text-anchor="middle" x="611" y="-327" font-family="Helvetica,sans-Serif" font-size="10.00"> rid_</text>
</g>
<!-- Node9&#45;&gt;Node5 -->
<g id="edge6" class="edge">
<title>Node9&#45;&gt;Node5</title>
<path fill="none" stroke="#9a32cd" stroke-dasharray="5,2" d="M58.28,-284.22C67.13,-309.87 86.74,-354.34 121,-374 150.72,-391.05 247.39,-387.49 301.48,-383.94"/>
<polygon fill="#9a32cd" stroke="#9a32cd" points="61.54,-282.94 55.13,-274.5 54.88,-285.1 61.54,-282.94"/>
<text text-anchor="middle" x="182.5" y="-400" font-family="Helvetica,sans-Serif" font-size="10.00"> BITMASK_PRINT_WIDTH</text>
<text text-anchor="middle" x="182.5" y="-389" font-family="Helvetica,sans-Serif" font-size="10.00">UNDEF</text>
</g>
<!-- Node17 -->
<g id="node13" class="node">
<title>Node17</title>
<g id="a_node13"><a xlink:href="classformat_1_1_style.html" target="_top" xlink:title="ノードの表示スタイルに関するプロパティのクラス.">
<polygon fill="white" stroke="red" points="320.5,-333.5 320.5,-352.5 359.5,-352.5 359.5,-333.5 320.5,-333.5"/>
<text text-anchor="middle" x="340" y="-340.5" font-family="Helvetica,sans-Serif" font-size="10.00">Style</text>
</a>
</g>
</g>
<!-- Node9&#45;&gt;Node17 -->
<g id="edge13" class="edge">
<title>Node9&#45;&gt;Node17</title>
<path fill="none" stroke="#9a32cd" stroke-dasharray="5,2" d="M73.66,-280.48C86.7,-289.28 104.1,-299.76 121,-306 139.64,-312.88 270.67,-332.83 320.15,-340.21"/>
<polygon fill="#9a32cd" stroke="#9a32cd" points="75.61,-277.57 65.4,-274.73 71.61,-283.32 75.61,-277.57"/>
<text text-anchor="middle" x="182.5" y="-330" font-family="Helvetica,sans-Serif" font-size="10.00"> pref</text>
</g>
<!-- Node9&#45;&gt;Node28 -->
<g id="edge34" class="edge">
<title>Node9&#45;&gt;Node28</title>
<path fill="none" stroke="#9a32cd" stroke-dasharray="5,2" d="M75.24,-252.65C88.24,-246.3 105.07,-239.23 121,-236 190.73,-221.85 275.62,-229.56 315.79,-234.66"/>
<polygon fill="#9a32cd" stroke="#9a32cd" points="73.46,-249.63 66.14,-257.29 76.64,-255.87 73.46,-249.63"/>
<text text-anchor="middle" x="182.5" y="-239" font-family="Helvetica,sans-Serif" font-size="10.00"> UNDEF</text>
</g>
<!-- Node9&#45;&gt;Node29 -->
<g id="edge40" class="edge">
<title>Node9&#45;&gt;Node29</title>
<path fill="none" stroke="#9a32cd" stroke-dasharray="5,2" d="M72.36,-248.95C85.36,-239.46 103.18,-228.3 121,-223 181.09,-205.12 199.33,-220.66 262,-219 482.56,-213.17 751.06,-206.9 817.56,-205.36"/>
<polygon fill="#9a32cd" stroke="#9a32cd" points="70.03,-246.32 64.19,-255.15 74.27,-251.89 70.03,-246.32"/>
<text text-anchor="middle" x="474" y="-217" font-family="Helvetica,sans-Serif" font-size="10.00"> UNDEF</text>
</g>
<!-- Node11 -->
<g id="node8" class="node">
<title>Node11</title>
<g id="a_node8"><a xlink:title=" ">
<polygon fill="white" stroke="#bfbfbf" points="26.5,-510.5 26.5,-529.5 76.5,-529.5 76.5,-510.5 26.5,-510.5"/>
<text text-anchor="middle" x="51.5" y="-517.5" font-family="Helvetica,sans-Serif" font-size="10.00">boolean</text>
</a>
</g>
</g>
<!-- Node11&#45;&gt;Node2 -->
<g id="edge30" class="edge">
<title>Node11&#45;&gt;Node2</title>
<path fill="none" stroke="#9a32cd" stroke-dasharray="5,2" d="M82.07,-533.6C93.92,-538.41 107.86,-543.3 121,-546 250.33,-572.57 289.25,-581.23 418,-552 463.17,-541.75 478.39,-538.87 512,-507 524.12,-495.5 516.31,-483.57 530,-474 605.76,-421.04 869.12,-468.11 941,-410 957.11,-396.98 948.56,-384.9 959,-367 965.46,-355.92 974.64,-344.47 981.33,-336.67"/>
<polygon fill="#9a32cd" stroke="#9a32cd" points="83.24,-530.29 72.67,-529.62 80.51,-536.74 83.24,-530.29"/>
<text text-anchor="middle" x="611" y="-477" font-family="Helvetica,sans-Serif" font-size="10.00"> DEBUG_REPO</text>
</g>
<!-- Node11&#45;&gt;Node3 -->
<g id="edge20" class="edge">
<title>Node11&#45;&gt;Node3</title>
<path fill="none" stroke="#9a32cd" stroke-dasharray="5,2" d="M66.05,-538.14C78.52,-553.37 98.46,-574.31 121,-585 351.25,-694.19 439.41,-670.69 692,-637 728.98,-632.07 742.73,-636.8 773,-615 802.57,-593.71 821.78,-553 829.35,-534.53"/>
<polygon fill="#9a32cd" stroke="#9a32cd" points="68.54,-535.64 59.6,-529.95 63.04,-539.97 68.54,-535.64"/>
<text text-anchor="middle" x="474" y="-668" font-family="Helvetica,sans-Serif" font-size="10.00"> DEBUG_REPO</text>
</g>
<!-- Node11&#45;&gt;Node5 -->
<g id="edge7" class="edge">
<title>Node11&#45;&gt;Node5</title>
<path fill="none" stroke="#9a32cd" stroke-dasharray="5,2" d="M86.68,-527.06C129.33,-533.7 201.77,-537.48 244,-498 276.35,-467.76 231.64,-432.24 262,-400 272.1,-389.27 287.21,-384.19 301.37,-381.92"/>
<polygon fill="#9a32cd" stroke="#9a32cd" points="87.22,-523.6 76.77,-525.38 86.05,-530.5 87.22,-523.6"/>
<text text-anchor="middle" x="182.5" y="-534" font-family="Helvetica,sans-Serif" font-size="10.00"> DEBUG_REPO</text>
</g>
<!-- Node11&#45;&gt;Node17 -->
<g id="edge14" class="edge">
<title>Node11&#45;&gt;Node17</title>
<path fill="none" stroke="#9a32cd" stroke-dasharray="5,2" d="M62.71,-501.71C74.3,-482.71 95.03,-453.62 121,-438 168.88,-409.2 201.87,-448.71 244,-412 261.81,-396.48 244.46,-377.81 262,-362 277.95,-347.62 303.06,-343.71 320.23,-342.85"/>
<polygon fill="#9a32cd" stroke="#9a32cd" points="59.68,-499.96 57.63,-510.36 65.71,-503.5 59.68,-499.96"/>
<text text-anchor="middle" x="182.5" y="-452" font-family="Helvetica,sans-Serif" font-size="10.00"> preoperSupress</text>
<text text-anchor="middle" x="182.5" y="-441" font-family="Helvetica,sans-Serif" font-size="10.00">toInline</text>
</g>
<!-- Node11&#45;&gt;Node28 -->
<g id="edge35" class="edge">
<title>Node11&#45;&gt;Node28</title>
<path fill="none" stroke="#9a32cd" stroke-dasharray="5,2" d="M61.89,-501.37C72.49,-480.04 89.94,-443.92 103,-412 112.1,-389.75 102.62,-376.49 121,-361 163.41,-325.26 195.2,-366.34 244,-340 254.91,-334.11 309.27,-272.25 330.49,-247.83"/>
<polygon fill="#9a32cd" stroke="#9a32cd" points="58.76,-499.81 57.42,-510.31 65.02,-502.94 58.76,-499.81"/>
<text text-anchor="middle" x="182.5" y="-364" font-family="Helvetica,sans-Serif" font-size="10.00"> DEBUG_REPO</text>
</g>
<!-- Node12 -->
<g id="node9" class="node">
<title>Node12</title>
<g id="a_node9"><a xlink:href="interfaceast_1_1_node.html" target="_top" xlink:title=" ">
<polygon fill="white" stroke="red" points="320,-523.5 320,-542.5 360,-542.5 360,-523.5 320,-523.5"/>
<text text-anchor="middle" x="340" y="-530.5" font-family="Helvetica,sans-Serif" font-size="10.00">Node</text>
</a>
</g>
</g>
<!-- Node12&#45;&gt;Node4 -->
<g id="edge8" class="edge">
<title>Node12&#45;&gt;Node4</title>
<path fill="none" stroke="midnightblue" d="M370.09,-526.72C384.6,-523.36 402.35,-518.91 418,-514 460.69,-500.62 478.69,-507.86 512,-478 525.03,-466.33 516.55,-454.18 530,-443 545.05,-430.48 566.48,-424.5 583.37,-421.63"/>
<polygon fill="midnightblue" stroke="midnightblue" points="369.15,-523.34 360.17,-528.96 370.69,-530.17 369.15,-523.34"/>
</g>
<!-- Node14 -->
<g id="node10" class="node">
<title>Node14</title>
<g id="a_node10"><a xlink:href="interfaceformat_1_1_x_formattable_1_1_navigatable.html" target="_top" xlink:title="木構造の分岐ノードとして清書可能なオブジェクトのクラス">
<polygon fill="white" stroke="red" points="275,-485.5 275,-504.5 405,-504.5 405,-485.5 275,-485.5"/>
<text text-anchor="middle" x="340" y="-492.5" font-family="Helvetica,sans-Serif" font-size="10.00">XFormattable.Navigatable</text>
</a>
</g>
</g>
<!-- Node14&#45;&gt;Node4 -->
<g id="edge9" class="edge">
<title>Node14&#45;&gt;Node4</title>
<path fill="none" stroke="midnightblue" d="M405.53,-483.39C438.09,-476.48 477.83,-466.41 512,-453 520.52,-449.66 521.57,-446.56 530,-443 547.23,-435.73 567.41,-429.69 583.19,-425.49"/>
<polygon fill="midnightblue" stroke="midnightblue" points="404.75,-479.98 395.67,-485.44 406.17,-486.84 404.75,-479.98"/>
</g>
<!-- Node15 -->
<g id="node11" class="node">
<title>Node15</title>
<g id="a_node11"><a xlink:href="interfaceformat_1_1_x_formattable_1_1_typed_formattable.html" target="_top" xlink:title="ノードの型情報をもつ書式出力可能なオブジェクトのインタフェース．">
<polygon fill="white" stroke="red" points="262,-447.5 262,-466.5 418,-466.5 418,-447.5 262,-447.5"/>
<text text-anchor="middle" x="340" y="-454.5" font-family="Helvetica,sans-Serif" font-size="10.00">XFormattable.TypedFormattable</text>
</a>
</g>
</g>
<!-- Node15&#45;&gt;Node4 -->
<g id="edge10" class="edge">
<title>Node15&#45;&gt;Node4</title>
<path fill="none" stroke="midnightblue" d="M423.99,-446.15C451.96,-442.41 483.35,-438.12 512,-434 536.19,-430.52 563.7,-426.29 583.4,-423.21"/>
<polygon fill="midnightblue" stroke="midnightblue" points="423.3,-442.71 413.85,-447.5 424.22,-449.65 423.3,-442.71"/>
</g>
<!-- Node16 -->
<g id="node12" class="node">
<title>Node16</title>
<g id="a_node12"><a xlink:title=" ">
<polygon fill="white" stroke="#bfbfbf" points="314,-409.5 314,-428.5 366,-428.5 366,-409.5 314,-409.5"/>
<text text-anchor="middle" x="340" y="-416.5" font-family="Helvetica,sans-Serif" font-size="10.00">Boolean</text>
</a>
</g>
</g>
<!-- Node16&#45;&gt;Node4 -->
<g id="edge11" class="edge">
<title>Node16&#45;&gt;Node4</title>
<path fill="none" stroke="#9a32cd" stroke-dasharray="5,2" d="M376.56,-419C431.22,-419 534.67,-419 583.37,-419"/>
<polygon fill="#9a32cd" stroke="#9a32cd" points="376.31,-415.5 366.31,-419 376.31,-422.5 376.31,-415.5"/>
<text text-anchor="middle" x="474" y="-422" font-family="Helvetica,sans-Serif" font-size="10.00"> DEBUG_CHILD</text>
</g>
<!-- Node17&#45;&gt;Node4 -->
<g id="edge12" class="edge">
<title>Node17&#45;&gt;Node4</title>
<path fill="none" stroke="#9a32cd" stroke-dasharray="5,2" d="M369.6,-345.88C404.38,-350.11 464.35,-359.82 512,-380 520.85,-383.75 521.37,-387.76 530,-392 547.1,-400.4 567.47,-407.24 583.37,-411.92"/>
<polygon fill="#9a32cd" stroke="#9a32cd" points="369.99,-342.4 359.66,-344.73 369.19,-349.35 369.99,-342.4"/>
<text text-anchor="middle" x="474" y="-383" font-family="Helvetica,sans-Serif" font-size="10.00"> sty</text>
</g>
<!-- Node18 -->
<g id="node14" class="node">
<title>Node18</title>
<g id="a_node14"><a xlink:title=" ">
<polygon fill="white" stroke="#bfbfbf" points="566.5,-494.5 566.5,-513.5 655.5,-513.5 655.5,-494.5 566.5,-494.5"/>
<text text-anchor="middle" x="611" y="-501.5" font-family="Helvetica,sans-Serif" font-size="10.00">FieldNavigatable</text>
</a>
</g>
</g>
<!-- Node18&#45;&gt;Node3 -->
<g id="edge15" class="edge">
<title>Node18&#45;&gt;Node3</title>
<path fill="none" stroke="midnightblue" d="M665.66,-509.1C704.18,-512.76 755.36,-517.62 790.93,-521"/>
<polygon fill="midnightblue" stroke="midnightblue" points="665.95,-505.61 655.66,-508.15 665.29,-512.58 665.95,-505.61"/>
</g>
<!-- Node19 -->
<g id="node15" class="node">
<title>Node19</title>
<g id="a_node15"><a xlink:title=" ">
<polygon fill="white" stroke="#bfbfbf" points="573,-608.5 573,-627.5 649,-627.5 649,-608.5 573,-608.5"/>
<text text-anchor="middle" x="611" y="-615.5" font-family="Helvetica,sans-Serif" font-size="10.00">List&lt; String &gt;</text>
</a>
</g>
</g>
<!-- Node19&#45;&gt;Node3 -->
<g id="edge17" class="edge">
<title>Node19&#45;&gt;Node3</title>
<path fill="none" stroke="#9a32cd" stroke-dasharray="5,2" d="M658.95,-612.52C692.28,-607.18 737.28,-596.99 773,-578 794.11,-566.78 813.94,-546.71 824.68,-534.75"/>
<polygon fill="#9a32cd" stroke="#9a32cd" points="658.36,-609.06 649,-614.02 659.41,-615.99 658.36,-609.06"/>
<text text-anchor="middle" x="741.5" y="-603" font-family="Helvetica,sans-Serif" font-size="10.00"> fields</text>
</g>
<!-- Node20 -->
<g id="node16" class="node">
<title>Node20</title>
<g id="a_node16"><a xlink:title=" ">
<polygon fill="white" stroke="#bfbfbf" points="562,-570.5 562,-589.5 660,-589.5 660,-570.5 562,-570.5"/>
<text text-anchor="middle" x="611" y="-577.5" font-family="Helvetica,sans-Serif" font-size="10.00">List&lt; XTypeItem &gt;</text>
</a>
</g>
</g>
<!-- Node20&#45;&gt;Node3 -->
<g id="edge18" class="edge">
<title>Node20&#45;&gt;Node3</title>
<path fill="none" stroke="#9a32cd" stroke-dasharray="5,2" d="M670.28,-571.53C701.15,-566.35 739.5,-558.83 773,-549 786.24,-545.12 800.61,-539.42 811.97,-534.56"/>
<polygon fill="#9a32cd" stroke="#9a32cd" points="669.42,-568.12 660.12,-573.19 670.56,-575.03 669.42,-568.12"/>
<text text-anchor="middle" x="741.5" y="-566" font-family="Helvetica,sans-Serif" font-size="10.00"> types</text>
</g>
<!-- Node21 -->
<g id="node17" class="node">
<title>Node21</title>
<g id="a_node17"><a xlink:title=" ">
<polygon fill="white" stroke="#bfbfbf" points="530,-532.5 530,-551.5 692,-551.5 692,-532.5 530,-532.5"/>
<text text-anchor="middle" x="611" y="-539.5" font-family="Helvetica,sans-Serif" font-size="10.00">List&lt; Supplier&lt; XFormattable &gt; &gt;</text>
</a>
</g>
</g>
<!-- Node21&#45;&gt;Node3 -->
<g id="edge19" class="edge">
<title>Node21&#45;&gt;Node3</title>
<path fill="none" stroke="#9a32cd" stroke-dasharray="5,2" d="M702.41,-535.05C733.1,-532.68 765.92,-530.16 790.99,-528.23"/>
<polygon fill="#9a32cd" stroke="#9a32cd" points="701.8,-531.58 692.1,-535.84 702.34,-538.56 701.8,-531.58"/>
<text text-anchor="middle" x="741.5" y="-537" font-family="Helvetica,sans-Serif" font-size="10.00"> getters</text>
</g>
<!-- Node22 -->
<g id="node18" class="node">
<title>Node22</title>
<g id="a_node18"><a xlink:href="interfacemachine_1_1_rule.html" target="_top" xlink:title="実行可能コードのインタフェース. ブロックとステップの二種がある。">
<polygon fill="white" stroke="black" points="815.5,-279.5 815.5,-298.5 852.5,-298.5 852.5,-279.5 815.5,-279.5"/>
<text text-anchor="middle" x="834" y="-286.5" font-family="Helvetica,sans-Serif" font-size="10.00">Rule</text>
</a>
</g>
</g>
<!-- Node22&#45;&gt;Node2 -->
<g id="edge21" class="edge">
<title>Node22&#45;&gt;Node2</title>
<path fill="none" stroke="midnightblue" d="M862.74,-294.84C884.19,-299.46 914.57,-306.24 941,-313 946.83,-314.49 953.02,-316.18 958.97,-317.85"/>
<polygon fill="midnightblue" stroke="midnightblue" points="863.21,-291.36 852.7,-292.69 861.75,-298.21 863.21,-291.36"/>
</g>
<!-- Node23 -->
<g id="node19" class="node">
<title>Node23</title>
<g id="a_node19"><a xlink:href="interfacecmd_1_1_generatable.html" target="_top" xlink:title="変換してコードを生成できるノードのインタフェース.">
<polygon fill="white" stroke="black" points="576.5,-363.5 576.5,-382.5 645.5,-382.5 645.5,-363.5 576.5,-363.5"/>
<text text-anchor="middle" x="611" y="-370.5" font-family="Helvetica,sans-Serif" font-size="10.00">Generatable</text>
</a>
</g>
</g>
<!-- Node23&#45;&gt;Node2 -->
<g id="edge22" class="edge">
<title>Node23&#45;&gt;Node2</title>
<path fill="none" stroke="midnightblue" d="M655.96,-371.26C719.39,-368.17 840.06,-360.16 941,-341 947.17,-339.83 953.69,-338.23 959.89,-336.53"/>
<polygon fill="midnightblue" stroke="midnightblue" points="655.74,-367.77 645.91,-371.73 656.07,-374.76 655.74,-367.77"/>
</g>
<!-- Node23&#45;&gt;Node24 -->
<g id="edge25" class="edge">
<title>Node23&#45;&gt;Node24</title>
<path fill="none" stroke="midnightblue" d="M655.69,-378.93C700.99,-385.08 770.28,-394.49 807.41,-399.53"/>
<polygon fill="midnightblue" stroke="midnightblue" points="655.95,-375.43 645.57,-377.56 655,-382.37 655.95,-375.43"/>
</g>
<!-- Node24&#45;&gt;Node1 -->
<g id="edge41" class="edge">
<title>Node24&#45;&gt;Node1</title>
<path fill="none" stroke="#9a32cd" stroke-dasharray="5,2" d="M870.78,-411.2C891.62,-414.54 918.19,-416.31 941,-410 993.41,-395.5 1045.93,-355.31 1068.29,-336.69"/>
<polygon fill="#9a32cd" stroke="#9a32cd" points="871.22,-407.72 860.76,-409.4 869.98,-414.61 871.22,-407.72"/>
<text text-anchor="middle" x="991" y="-406" font-family="Helvetica,sans-Serif" font-size="10.00"> sents_</text>
</g>
<!-- Node24&#45;&gt;Node2 -->
<g id="edge23" class="edge">
<title>Node24&#45;&gt;Node2</title>
<path fill="none" stroke="#9a32cd" stroke-dasharray="5,2" d="M870.97,-400.16C892.44,-397.22 919.6,-391.22 941,-379 959.53,-368.42 975.28,-348.58 983.62,-336.7"/>
<polygon fill="#9a32cd" stroke="#9a32cd" points="870.44,-396.7 860.94,-401.38 871.29,-403.65 870.44,-396.7"/>
<text text-anchor="middle" x="918" y="-398" font-family="Helvetica,sans-Serif" font-size="10.00"> pre_sent_</text>
</g>
<!-- Node25 -->
<g id="node21" class="node">
<title>Node25</title>
<g id="a_node21"><a xlink:href="classcmd_1_1_cmd_list.html" target="_top" xlink:title="仮想命令のリスト．">
<polygon fill="white" stroke="black" points="313.5,-26.5 313.5,-45.5 366.5,-45.5 366.5,-26.5 313.5,-26.5"/>
<text text-anchor="middle" x="340" y="-33.5" font-family="Helvetica,sans-Serif" font-size="10.00">CmdList</text>
</a>
</g>
</g>
<!-- Node25&#45;&gt;Node2 -->
<g id="edge26" class="edge">
<title>Node25&#45;&gt;Node2</title>
<path fill="none" stroke="#9a32cd" stroke-dasharray="5,2" d="M376.71,-41.67C492.48,-60.7 854.94,-125.42 941,-203 975.9,-234.46 986.26,-294 989.06,-317.3"/>
<polygon fill="#9a32cd" stroke="#9a32cd" points="377.04,-38.18 366.6,-40.03 375.91,-45.09 377.04,-38.18"/>
<text text-anchor="middle" x="741.5" y="-131" font-family="Helvetica,sans-Serif" font-size="10.00"> code_</text>
</g>
<!-- Node26 -->
<g id="node22" class="node">
<title>Node26</title>
<g id="a_node22"><a xlink:title=" ">
<polygon fill="white" stroke="#bfbfbf" points="0,-45.5 0,-64.5 103,-64.5 103,-45.5 0,-45.5"/>
<text text-anchor="middle" x="51.5" y="-52.5" font-family="Helvetica,sans-Serif" font-size="10.00">CustomFormattable</text>
</a>
</g>
</g>
<!-- Node26&#45;&gt;Node25 -->
<g id="edge27" class="edge">
<title>Node26&#45;&gt;Node25</title>
<path fill="none" stroke="midnightblue" d="M113.38,-50.53C115.95,-50.35 118.5,-50.17 121,-50 190.62,-45.22 272.78,-40.08 313.49,-37.57"/>
<polygon fill="midnightblue" stroke="midnightblue" points="113.1,-47.04 103.37,-51.24 113.59,-54.02 113.1,-47.04"/>
</g>
<!-- Node26&#45;&gt;Node28 -->
<g id="edge32" class="edge">
<title>Node26&#45;&gt;Node28</title>
<path fill="none" stroke="midnightblue" d="M76.18,-70.13C133.18,-106.53 276.74,-198.23 323.8,-228.29"/>
<polygon fill="midnightblue" stroke="midnightblue" points="77.81,-67.01 67.5,-64.58 74.04,-72.91 77.81,-67.01"/>
</g>
<!-- Node27 -->
<g id="node23" class="node">
<title>Node27</title>
<g id="a_node23"><a xlink:title=" ">
<polygon fill="white" stroke="#bfbfbf" points="16,-0.5 16,-19.5 87,-19.5 87,-0.5 16,-0.5"/>
<text text-anchor="middle" x="51.5" y="-7.5" font-family="Helvetica,sans-Serif" font-size="10.00">List&lt; Cmd &gt;</text>
</a>
</g>
</g>
<!-- Node27&#45;&gt;Node25 -->
<g id="edge28" class="edge">
<title>Node27&#45;&gt;Node25</title>
<path fill="none" stroke="#9a32cd" stroke-dasharray="5,2" d="M97.11,-14.05C157.77,-19.55 264.32,-29.22 313.19,-33.66"/>
<polygon fill="#9a32cd" stroke="#9a32cd" points="97.33,-10.55 87.06,-13.14 96.7,-17.53 97.33,-10.55"/>
<text text-anchor="middle" x="182.5" y="-30" font-family="Helvetica,sans-Serif" font-size="10.00"> list_</text>
</g>
<!-- Node28&#45;&gt;Node2 -->
<g id="edge31" class="edge">
<title>Node28&#45;&gt;Node2</title>
<path fill="none" stroke="#9a32cd" stroke-dasharray="5,2" d="M374.24,-235.98C459.3,-231.67 691.21,-225.32 877,-270 915.45,-279.25 955.7,-303.67 976.2,-317.36"/>
<polygon fill="#9a32cd" stroke="#9a32cd" points="373.95,-232.49 364.15,-236.52 374.32,-239.48 373.95,-232.49"/>
<text text-anchor="middle" x="741.5" y="-253" font-family="Helvetica,sans-Serif" font-size="10.00"> vars_</text>
</g>
<!-- Node28&#45;&gt;Node28 -->
<g id="edge36" class="edge">
<title>Node28&#45;&gt;Node28</title>
<path fill="none" stroke="#9a32cd" stroke-dasharray="5,2" d="M315.07,-257.03C316.43,-262.13 324.74,-266 340,-266 363.82,-266 370.7,-256.57 360.65,-247.76"/>
<polygon fill="#9a32cd" stroke="#9a32cd" points="318.34,-258.3 319.35,-247.76 311.98,-255.37 318.34,-258.3"/>
<text text-anchor="middle" x="340" y="-269" font-family="Helvetica,sans-Serif" font-size="10.00"> parent</text>
</g>
<!-- Node29&#45;&gt;Node2 -->
<g id="edge37" class="edge">
<title>Node29&#45;&gt;Node2</title>
<path fill="none" stroke="#9a32cd" stroke-dasharray="5,2" d="M860.17,-203.92C883.43,-204.22 917.79,-208.09 941,-226 971.55,-249.58 984.15,-297.1 988.3,-317.43"/>
<polygon fill="#9a32cd" stroke="#9a32cd" points="860.01,-200.42 850.04,-204.01 860.07,-207.42 860.01,-200.42"/>
<text text-anchor="middle" x="918" y="-229" font-family="Helvetica,sans-Serif" font-size="10.00"> retRef_</text>
</g>
<!-- Node30 -->
<g id="node26" class="node">
<title>Node30</title>
<g id="a_node26"><a xlink:href="interfacemachine_1_1_assignable.html" target="_top" xlink:title="変数（チャネルとコンテナの名前）の抽象化">
<polygon fill="white" stroke="black" points="578.5,-152.5 578.5,-171.5 643.5,-171.5 643.5,-152.5 578.5,-152.5"/>
<text text-anchor="middle" x="611" y="-159.5" font-family="Helvetica,sans-Serif" font-size="10.00">Assignable</text>
</a>
</g>
</g>
<!-- Node30&#45;&gt;Node29 -->
<g id="edge39" class="edge">
<title>Node30&#45;&gt;Node29</title>
<path fill="none" stroke="midnightblue" d="M653.68,-164.88C686.46,-167.76 733.1,-173.21 773,-183 788.52,-186.81 805.56,-193.29 817.51,-198.24"/>
<polygon fill="midnightblue" stroke="midnightblue" points="653.8,-161.38 643.55,-164.04 653.22,-168.36 653.8,-161.38"/>
</g>
</g>
</svg>
