<?xml version="1.0" encoding="UTF-8" standalone="no"?>
<!DOCTYPE svg PUBLIC "-//W3C//DTD SVG 1.1//EN"
 "http://www.w3.org/Graphics/SVG/1.1/DTD/svg11.dtd">
<!-- Generated by graphviz version 2.38.0 (20140413.2041)
 -->
<!-- Title: queryParser.ArithTermNumberContext Pages: 1 -->
<svg width="318pt" height="158pt"
 viewBox="0.00 0.00 318.34 158.00" xmlns="http://www.w3.org/2000/svg" xmlns:xlink="http://www.w3.org/1999/xlink">
<g id="graph0" class="graph" transform="scale(1 1) rotate(0) translate(4 154)">
<title>queryParser.ArithTermNumberContext</title>
<polygon fill="white" stroke="none" points="-4,4 -4,-154 314.337,-154 314.337,4 -4,4"/>
<!-- Node1 -->
<g id="node1" class="node"><title>Node1</title>
<g id="a_node1"><a xlink:title=" ">
<polygon fill="#bfbfbf" stroke="black" points="48.4482,-0.5 48.4482,-28.5 199.497,-28.5 199.497,-0.5 48.4482,-0.5"/>
<text text-anchor="start" x="56.4482" y="-16.5" font-family="Helvetica,sans-Serif" font-size="10.00">queryParser.ArithTermNumber</text>
<text text-anchor="middle" x="123.973" y="-6.5" font-family="Helvetica,sans-Serif" font-size="10.00">Context</text>
</a>
</g>
</g>
<!-- Node2 -->
<g id="node2" class="node"><title>Node2</title>
<g id="a_node2"><a xlink:href="classparse_1_1query_parser_1_1_arith_term_context.html" target="_top" xlink:title=" ">
<polygon fill="white" stroke="black" points="0,-75.5 0,-93.5 149.945,-93.5 149.945,-75.5 0,-75.5"/>
<text text-anchor="middle" x="74.9727" y="-81.5" font-family="Helvetica,sans-Serif" font-size="10.00">queryParser.ArithTermContext</text>
</a>
</g>
</g>
<!-- Node2&#45;&gt;Node1 -->
<g id="edge1" class="edge"><title>Node2&#45;&gt;Node1</title>
<path fill="none" stroke="midnightblue" d="M86.8746,-66.983C95.3514,-55.2193 106.592,-39.6196 114.47,-28.6867"/>
<polygon fill="midnightblue" stroke="midnightblue" points="83.7927,-65.2732 80.786,-75.4325 89.4718,-69.3656 83.7927,-65.2732"/>
</g>
<!-- Node3 -->
<g id="node3" class="node"><title>Node3</title>
<g id="a_node3"><a xlink:title=" ">
<polygon fill="white" stroke="#bfbfbf" points="123.731,-131.5 123.731,-149.5 224.214,-149.5 224.214,-131.5 123.731,-131.5"/>
<text text-anchor="middle" x="173.973" y="-137.5" font-family="Helvetica,sans-Serif" font-size="10.00">ParserRuleContext</text>
</a>
</g>
</g>
<!-- Node3&#45;&gt;Node2 -->
<g id="edge2" class="edge"><title>Node3&#45;&gt;Node2</title>
<path fill="none" stroke="midnightblue" d="M150.083,-126.469C131.313,-116.231 105.763,-102.295 89.8257,-93.6017"/>
<polygon fill="midnightblue" stroke="midnightblue" points="148.482,-129.583 158.937,-131.299 151.834,-123.437 148.482,-129.583"/>
</g>
<!-- Node4 -->
<g id="node4" class="node"><title>Node4</title>
<g id="a_node4"><a xlink:href="classparse_1_1query_parser_1_1_number_context.html" target="_top" xlink:title=" ">
<polygon fill="white" stroke="black" points="167.608,-75.5 167.608,-93.5 310.337,-93.5 310.337,-75.5 167.608,-75.5"/>
<text text-anchor="middle" x="238.973" y="-81.5" font-family="Helvetica,sans-Serif" font-size="10.00">queryParser.NumberContext</text>
</a>
</g>
</g>
<!-- Node3&#45;&gt;Node4 -->
<g id="edge4" class="edge"><title>Node3&#45;&gt;Node4</title>
<path fill="none" stroke="midnightblue" d="M191.847,-124.651C203.821,-114.703 219.142,-101.974 229.008,-93.7786"/>
<polygon fill="midnightblue" stroke="midnightblue" points="189.3,-122.216 183.845,-131.299 193.773,-127.601 189.3,-122.216"/>
</g>
<!-- Node4&#45;&gt;Node1 -->
<g id="edge3" class="edge"><title>Node4&#45;&gt;Node1</title>
<path fill="none" stroke="#9a32cd" stroke-dasharray="5,2" d="M216.469,-70.1936C196.178,-58.1952 166.502,-40.648 146.274,-28.6867"/>
<polygon fill="#9a32cd" stroke="#9a32cd" points="214.94,-73.3553 225.329,-75.4325 218.503,-67.3299 214.94,-73.3553"/>
<text text-anchor="middle" x="197.923" y="-49" font-family="Helvetica,sans-Serif" font-size="10.00"> a0</text>
</g>
</g>
</svg>
