<?xml version="1.0" encoding="UTF-8" standalone="no"?>
<!DOCTYPE svg PUBLIC "-//W3C//DTD SVG 1.1//EN"
 "http://www.w3.org/Graphics/SVG/1.1/DTD/svg11.dtd">
<!-- Generated by graphviz version 2.38.0 (20140413.2041)
 -->
<!-- Title: openArray Pages: 1 -->
<!--zoomable 254 -->
<svg id="main" version="1.1" xmlns="http://www.w3.org/2000/svg" xmlns:xlink="http://www.w3.org/1999/xlink" xml:space="preserve" onload="init(evt)">
<style type="text/css"><![CDATA[
.edge:hover path { stroke: red; }
.edge:hover polygon { stroke: red; fill: red; }
]]></style>
<script type="text/javascript"><![CDATA[
var edges = document.getElementsByTagName('g');
if (edges && edges.length) {
  for (var i=0;i<edges.length;i++) {
    if (edges[i].id.substr(0,4)=='edge') {
      edges[i].setAttribute('class','edge');
    }
  }
}
]]></script>
        <defs>
                <circle id="rim" cx="0" cy="0" r="7"/>
                <circle id="rim2" cx="0" cy="0" r="3.5"/>
                <g id="zoomPlus">
                        <use xlink:href="#rim" fill="#404040">
                                <set attributeName="fill" to="#808080" begin="zoomplus.mouseover" end="zoomplus.mouseout"/>
                        </use>
                        <path d="M-4,0h8M0,-4v8" fill="none" stroke="white" stroke-width="1.5" pointer-events="none"/>
                </g>
                <g id="zoomMin">
                        <use xlink:href="#rim" fill="#404040">
                                <set attributeName="fill" to="#808080" begin="zoomminus.mouseover" end="zoomminus.mouseout"/>
                        </use>
                        <path d="M-4,0h8" fill="none" stroke="white" stroke-width="1.5" pointer-events="none"/>
                </g>
                <g id="dirArrow">
                        <path fill="none" stroke="white" stroke-width="1.5" d="M0,-3.0v7 M-2.5,-0.5L0,-3.0L2.5,-0.5"/>
                </g>
               <g id="resetDef">
                       <use xlink:href="#rim2" fill="#404040">
                               <set attributeName="fill" to="#808080" begin="reset.mouseover" end="reset.mouseout"/>
                       </use>
               </g>
        </defs>

<script type="text/javascript">
var viewWidth = 686;
var viewHeight = 254;
var sectionId = 'dynsection-6';
</script>
<script xlink:href="svgpan.js"/>
<svg id="graph" class="graph">
<g id="viewport">
<title>openArray</title>
<polygon fill="white" stroke="none" points="-4,4 -4,-250 682.326,-250 682.326,4 -4,4"/>
<!-- Node1 -->
<g id="node1" class="node"><title>Node1</title>
<g id="a_node1"><a xlink:title="配列のモードを開始する.">
<polygon fill="#bfbfbf" stroke="black" points="0,-57.5 0,-75.5 62.1377,-75.5 62.1377,-57.5 0,-57.5"/>
<text text-anchor="middle" x="31.0688" y="-63.5" font-family="Helvetica,sans-Serif" font-size="10.00">openArray</text>
</a>
</g>
</g>
<!-- Node2 -->
<g id="node2" class="node"><title>Node2</title>
<g id="a_node2"><a xlink:href="classutil_1_1_foldable_string_buf.html#ab3d4d59d8a1bb8f1cffeef544c66c052" target="_top" xlink:title="改行を出力する.">
<polygon fill="white" stroke="black" points="102.588,-151.5 102.588,-169.5 224.204,-169.5 224.204,-151.5 102.588,-151.5"/>
<text text-anchor="middle" x="163.396" y="-157.5" font-family="Helvetica,sans-Serif" font-size="10.00">util.FoldableStringBuf.nl</text>
</a>
</g>
</g>
<!-- Node1&#45;&gt;Node2 -->
<g id="edge1" class="edge"><title>Node1&#45;&gt;Node2</title>
<path fill="none" stroke="midnightblue" d="M44.5652,-75.5131C66.9858,-91.6843 114.252,-125.775 141.617,-145.513"/>
<polygon fill="midnightblue" stroke="midnightblue" points="139.588,-148.365 149.746,-151.376 143.683,-142.688 139.588,-148.365"/>
</g>
<!-- Node8 -->
<g id="node8" class="node"><title>Node8</title>
<g id="a_node8"><a xlink:href="classutil_1_1_foldable_string_buf.html#a3305d7ab7b9045776ab7ab1a93d62a54" target="_top" xlink:title="何もしない演算 (&quot;no operation&quot;).">
<polygon fill="white" stroke="black" points="98.1377,-0.5 98.1377,-18.5 228.654,-18.5 228.654,-0.5 98.1377,-0.5"/>
<text text-anchor="middle" x="163.396" y="-6.5" font-family="Helvetica,sans-Serif" font-size="10.00">util.FoldableStringBuf.nop</text>
</a>
</g>
</g>
<!-- Node1&#45;&gt;Node8 -->
<g id="edge11" class="edge"><title>Node1&#45;&gt;Node8</title>
<path fill="none" stroke="midnightblue" d="M48.9457,-57.4507C62.1581,-50.5183 81.0899,-40.9164 98.1377,-33.5 107.296,-29.5158 117.35,-25.5663 126.731,-22.0563"/>
<polygon fill="midnightblue" stroke="midnightblue" points="128.019,-25.3117 136.196,-18.5747 125.602,-18.7421 128.019,-25.3117"/>
</g>
<!-- Node9 -->
<g id="node9" class="node"><title>Node9</title>
<g id="a_node9"><a xlink:href="classutil_1_1_foldable_string_buf.html#ae70478f6fbbf175cbe83813df439532c" target="_top" xlink:title="入れ子を一つ深く、プッシュする">
<polygon fill="white" stroke="black" points="267.154,-75.5 267.154,-93.5 402.671,-93.5 402.671,-75.5 267.154,-75.5"/>
<text text-anchor="middle" x="334.913" y="-81.5" font-family="Helvetica,sans-Serif" font-size="10.00">util.FoldableStringBuf.push</text>
</a>
</g>
</g>
<!-- Node1&#45;&gt;Node9 -->
<g id="edge12" class="edge"><title>Node1&#45;&gt;Node9</title>
<path fill="none" stroke="midnightblue" d="M62.3928,-68.3083C107.426,-70.9938 193.455,-76.124 256.652,-79.8927"/>
<polygon fill="midnightblue" stroke="midnightblue" points="256.793,-83.4072 266.984,-80.5088 257.21,-76.4196 256.793,-83.4072"/>
</g>
<!-- Node10 -->
<g id="node10" class="node"><title>Node10</title>
<g id="a_node10"><a xlink:href="classutil_1_1_foldable_string_buf.html#a2b018a5847ca3b5c67456ad721e23ba4" target="_top" xlink:title="文字列を出力する">
<polygon fill="white" stroke="black" points="272.442,-38.5 272.442,-56.5 397.383,-56.5 397.383,-38.5 272.442,-38.5"/>
<text text-anchor="middle" x="334.913" y="-44.5" font-family="Helvetica,sans-Serif" font-size="10.00">util.FoldableStringBuf.str</text>
</a>
</g>
</g>
<!-- Node1&#45;&gt;Node10 -->
<g id="edge15" class="edge"><title>Node1&#45;&gt;Node10</title>
<path fill="none" stroke="midnightblue" d="M62.3928,-64.5912C108.701,-61.6763 198.357,-56.0327 261.962,-52.029"/>
<polygon fill="midnightblue" stroke="midnightblue" points="262.57,-55.4978 272.33,-51.3764 262.13,-48.5116 262.57,-55.4978"/>
</g>
<!-- Node3 -->
<g id="node3" class="node"><title>Node3</title>
<g id="a_node3"><a xlink:href="classutil_1_1_string_buf.html#a2dc9e4579aee8516f9402d5ab3eac5eb" target="_top" xlink:title="バッファの末尾に文字列{str} を連結する.">
<polygon fill="white" stroke="black" points="444.037,-141.5 444.037,-159.5 552.879,-159.5 552.879,-141.5 444.037,-141.5"/>
<text text-anchor="middle" x="498.458" y="-147.5" font-family="Helvetica,sans-Serif" font-size="10.00">util.StringBuf.append</text>
</a>
</g>
</g>
<!-- Node2&#45;&gt;Node3 -->
<g id="edge2" class="edge"><title>Node2&#45;&gt;Node3</title>
<path fill="none" stroke="midnightblue" d="M202.719,-169.507C221.303,-173.427 244.018,-177.562 264.654,-179.5 326.832,-185.34 343.441,-188.971 405.171,-179.5 425.709,-176.349 447.95,-169.471 465.451,-163.203"/>
<polygon fill="midnightblue" stroke="midnightblue" points="466.992,-166.365 475.159,-159.617 464.566,-159.799 466.992,-166.365"/>
</g>
<!-- Node5 -->
<g id="node5" class="node"><title>Node5</title>
<g id="a_node5"><a xlink:href="classutil_1_1_trace_level.html#a62205b80cb936cb8f13f6a31afd2c9e0" target="_top" xlink:title="現在のトレースレベルが{level}以上ならば真になる.">
<polygon fill="white" stroke="black" points="441.171,-85.5 441.171,-103.5 555.745,-103.5 555.745,-85.5 441.171,-85.5"/>
<text text-anchor="middle" x="498.458" y="-91.5" font-family="Helvetica,sans-Serif" font-size="10.00">util.TraceLevel.LEVEL</text>
</a>
</g>
</g>
<!-- Node2&#45;&gt;Node5 -->
<g id="edge6" class="edge"><title>Node2&#45;&gt;Node5</title>
<path fill="none" stroke="midnightblue" d="M210.008,-151.461C270.381,-139.498 376.757,-118.418 441.793,-105.531"/>
<polygon fill="midnightblue" stroke="midnightblue" points="442.734,-108.912 451.863,-103.535 441.374,-102.046 442.734,-108.912"/>
</g>
<!-- Node6 -->
<g id="node6" class="node"><title>Node6</title>
<g id="a_node6"><a xlink:href="classutil_1_1_string_buf.html#af4b57d21919c42d55af03391f91a1c08" target="_top" xlink:title="バッファの長さを返す。 java.lang.StringBuilderのint length()に相当するメソッド。">
<polygon fill="white" stroke="black" points="288.285,-227.5 288.285,-245.5 381.541,-245.5 381.541,-227.5 288.285,-227.5"/>
<text text-anchor="middle" x="334.913" y="-233.5" font-family="Helvetica,sans-Serif" font-size="10.00">util.StringBuf.size</text>
</a>
</g>
</g>
<!-- Node2&#45;&gt;Node6 -->
<g id="edge7" class="edge"><title>Node2&#45;&gt;Node6</title>
<path fill="none" stroke="midnightblue" d="M180.027,-169.511C199.465,-180.505 233.851,-199.257 264.654,-212.5 274.387,-216.684 285.114,-220.685 295.159,-224.179"/>
<polygon fill="midnightblue" stroke="midnightblue" points="294.32,-227.591 304.915,-227.493 296.572,-220.963 294.32,-227.591"/>
</g>
<!-- Node7 -->
<g id="node7" class="node"><title>Node7</title>
<g id="a_node7"><a xlink:href="classutil_1_1_foldable_string_buf.html#a186579e7cd763dada34bcdc6c8f8f209" target="_top" xlink:title="空白を出力する.">
<polygon fill="white" stroke="black" points="264.654,-151.5 264.654,-169.5 405.171,-169.5 405.171,-151.5 264.654,-151.5"/>
<text text-anchor="middle" x="334.913" y="-157.5" font-family="Helvetica,sans-Serif" font-size="10.00">util.FoldableStringBuf.space</text>
</a>
</g>
</g>
<!-- Node2&#45;&gt;Node7 -->
<g id="edge8" class="edge"><title>Node2&#45;&gt;Node7</title>
<path fill="none" stroke="midnightblue" d="M224.639,-160.5C234.345,-160.5 244.521,-160.5 254.595,-160.5"/>
<polygon fill="midnightblue" stroke="midnightblue" points="254.612,-164 264.612,-160.5 254.612,-157 254.612,-164"/>
</g>
<!-- Node3&#45;&gt;Node3 -->
<g id="edge3" class="edge"><title>Node3&#45;&gt;Node3</title>
<path fill="none" stroke="midnightblue" d="M478.194,-159.513C467,-168.322 473.755,-178 498.458,-178 515.055,-178 523.551,-173.631 523.944,-168.093"/>
<polygon fill="midnightblue" stroke="midnightblue" points="526.911,-166.236 518.722,-159.513 520.932,-169.875 526.911,-166.236"/>
</g>
<!-- Node4 -->
<g id="node4" class="node"><title>Node4</title>
<g id="a_node4"><a xlink:href="classutil_1_1_string_buf.html#a9ea51ad122f068c0e30e6a7a17f57685" target="_top" xlink:title="バッファの末尾に文字列{val} を追加する. メソッド {append} に同じ.">
<polygon fill="white" stroke="black" points="591.745,-141.5 591.745,-159.5 678.326,-159.5 678.326,-141.5 591.745,-141.5"/>
<text text-anchor="middle" x="635.036" y="-147.5" font-family="Helvetica,sans-Serif" font-size="10.00">util.StringBuf.str</text>
</a>
</g>
</g>
<!-- Node3&#45;&gt;Node4 -->
<g id="edge4" class="edge"><title>Node3&#45;&gt;Node4</title>
<path fill="none" stroke="midnightblue" d="M553.033,-143.876C562.3,-143.703 571.929,-143.708 581.177,-143.89"/>
<polygon fill="midnightblue" stroke="midnightblue" points="581.323,-147.395 591.415,-144.17 581.515,-140.398 581.323,-147.395"/>
</g>
<!-- Node4&#45;&gt;Node3 -->
<g id="edge5" class="edge"><title>Node4&#45;&gt;Node3</title>
<path fill="none" stroke="midnightblue" d="M591.415,-156.83C582.465,-157.148 572.839,-157.286 563.306,-157.242"/>
<polygon fill="midnightblue" stroke="midnightblue" points="563.073,-153.739 553.033,-157.124 562.992,-160.739 563.073,-153.739"/>
</g>
<!-- Node7&#45;&gt;Node3 -->
<g id="edge9" class="edge"><title>Node7&#45;&gt;Node3</title>
<path fill="none" stroke="midnightblue" d="M405.36,-156.201C414.68,-155.624 424.205,-155.035 433.426,-154.464"/>
<polygon fill="midnightblue" stroke="midnightblue" points="433.915,-157.94 443.68,-153.829 433.483,-150.954 433.915,-157.94"/>
</g>
<!-- Node7&#45;&gt;Node5 -->
<g id="edge10" class="edge"><title>Node7&#45;&gt;Node5</title>
<path fill="none" stroke="midnightblue" d="M364.102,-151.397C376.76,-147.14 391.819,-141.838 405.171,-136.5 427.099,-127.733 451.389,-116.62 469.543,-108.028"/>
<polygon fill="midnightblue" stroke="midnightblue" points="471.424,-111.009 478.944,-103.545 468.411,-104.691 471.424,-111.009"/>
</g>
<!-- Node9&#45;&gt;Node3 -->
<g id="edge13" class="edge"><title>Node9&#45;&gt;Node3</title>
<path fill="none" stroke="midnightblue" d="M358.036,-93.5386C385.993,-104.961 434.289,-124.692 466.056,-137.67"/>
<polygon fill="midnightblue" stroke="midnightblue" points="464.762,-140.923 475.343,-141.465 467.41,-134.443 464.762,-140.923"/>
</g>
<!-- Node9&#45;&gt;Node5 -->
<g id="edge14" class="edge"><title>Node9&#45;&gt;Node5</title>
<path fill="none" stroke="midnightblue" d="M403.019,-88.654C412.215,-89.2233 421.654,-89.8076 430.841,-90.3763"/>
<polygon fill="midnightblue" stroke="midnightblue" points="430.882,-93.8854 441.08,-91.0101 431.315,-86.8988 430.882,-93.8854"/>
</g>
<!-- Node10&#45;&gt;Node3 -->
<g id="edge16" class="edge"><title>Node10&#45;&gt;Node3</title>
<path fill="none" stroke="midnightblue" d="M386.784,-56.5082C393.267,-58.8466 399.58,-61.7915 405.171,-65.5 427.098,-80.0454 422.017,-94.4589 441.171,-112.5 450.597,-121.379 462.295,-129.633 472.581,-136.165"/>
<polygon fill="midnightblue" stroke="midnightblue" points="470.81,-139.185 481.164,-141.434 474.473,-133.219 470.81,-139.185"/>
</g>
<!-- Node10&#45;&gt;Node5 -->
<g id="edge17" class="edge"><title>Node10&#45;&gt;Node5</title>
<path fill="none" stroke="midnightblue" d="M371.952,-56.5009C382.673,-59.2768 394.423,-62.4168 405.171,-65.5 423.219,-70.6774 443.104,-76.8634 459.779,-82.1898"/>
<polygon fill="midnightblue" stroke="midnightblue" points="459.111,-85.6512 469.702,-85.3784 461.252,-78.9869 459.111,-85.6512"/>
</g>
</g>
</svg>
        <g id="navigator" transform="translate(0 0)" fill="#404254">
                <rect fill="#f2f5e9" fill-opacity="0.5" stroke="#606060" stroke-width=".5" x="0" y="0" width="60" height="60"/>
                <use id="zoomplus" xlink:href="#zoomPlus" x="17" y="9" onmousedown="handleZoom(evt,'in')"/>
                <use id="zoomminus" xlink:href="#zoomMin" x="42" y="9" onmousedown="handleZoom(evt,'out')"/>
                <use id="reset" xlink:href="#resetDef" x="30" y="36" onmousedown="handleReset()"/>
                <g id="arrowUp" xlink:href="#dirArrow" transform="translate(30 24)" onmousedown="handlePan(0,-1)">
                  <use xlink:href="#rim" fill="#404040">
                        <set attributeName="fill" to="#808080" begin="arrowUp.mouseover" end="arrowUp.mouseout"/>
                  </use>
                  <path fill="none" stroke="white" stroke-width="1.5" d="M0,-3.0v7 M-2.5,-0.5L0,-3.0L2.5,-0.5"/>
                </g>
                <g id="arrowRight" xlink:href="#dirArrow" transform="rotate(90) translate(36 -43)" onmousedown="handlePan(1,0)">
                  <use xlink:href="#rim" fill="#404040">
                        <set attributeName="fill" to="#808080" begin="arrowRight.mouseover" end="arrowRight.mouseout"/>
                  </use>
                  <path fill="none" stroke="white" stroke-width="1.5" d="M0,-3.0v7 M-2.5,-0.5L0,-3.0L2.5,-0.5"/>
                </g>
                <g id="arrowDown" xlink:href="#dirArrow" transform="rotate(180) translate(-30 -48)" onmousedown="handlePan(0,1)">
                  <use xlink:href="#rim" fill="#404040">
                        <set attributeName="fill" to="#808080" begin="arrowDown.mouseover" end="arrowDown.mouseout"/>
                  </use>
                  <path fill="none" stroke="white" stroke-width="1.5" d="M0,-3.0v7 M-2.5,-0.5L0,-3.0L2.5,-0.5"/>
                </g>
                <g id="arrowLeft" xlink:href="#dirArrow" transform="rotate(270) translate(-36 17)" onmousedown="handlePan(-1,0)">
                  <use xlink:href="#rim" fill="#404040">
                        <set attributeName="fill" to="#808080" begin="arrowLeft.mouseover" end="arrowLeft.mouseout"/>
                  </use>
                  <path fill="none" stroke="white" stroke-width="1.5" d="M0,-3.0v7 M-2.5,-0.5L0,-3.0L2.5,-0.5"/>
                </g>
        </g>
        <svg viewBox="0 0 15 15" width="100%" height="30px" preserveAspectRatio="xMaxYMin meet">
         <g id="arrow_out" transform="scale(0.3 0.3)">
          <a xlink:href="classutil_1_1_yaml_buf_a0cdc3f00b2d8dc03acf755b2e205bd55_cgraph_org.svg" target="_base">
           <rect id="button" ry="5" rx="5" y="6" x="6" height="38" width="38"
                fill="#f2f5e9" fill-opacity="0.5" stroke="#606060" stroke-width="1.0"/>
           <path id="arrow"
             d="M 11.500037,31.436501 C 11.940474,20.09759 22.043105,11.32322 32.158766,21.979434 L 37.068811,17.246167 C 37.068811,17.246167 37.088388,32 37.088388,32 L 22.160133,31.978069 C 22.160133,31.978069 26.997745,27.140456 26.997745,27.140456 C 18.528582,18.264221 13.291696,25.230495 11.500037,31.436501 z"
             style="fill:#404040;"/>
          </a>
         </g>
        </svg>
</svg>
