<?xml version="1.0" encoding="UTF-8" standalone="no"?>
<!DOCTYPE svg PUBLIC "-//W3C//DTD SVG 1.1//EN"
 "http://www.w3.org/Graphics/SVG/1.1/DTD/svg11.dtd">
<!-- Generated by graphviz version 2.47.0 (20210316.0004)
 -->
<!-- Title: CommandBase.CmdSetElemBeg Pages: 1 -->
<!--zoomable 354 -->
<svg id="main" version="1.1" xmlns="http://www.w3.org/2000/svg" xmlns:xlink="http://www.w3.org/1999/xlink" xml:space="preserve" onload="init(evt)">
<style type="text/css"><![CDATA[
.edge:hover path { stroke: red; }
.edge:hover polygon { stroke: red; fill: red; }
]]></style>
<script type="text/javascript"><![CDATA[
var edges = document.getElementsByTagName('g');
if (edges && edges.length) {
  for (var i=0;i<edges.length;i++) {
    if (edges[i].id.substr(0,4)=='edge') {
      edges[i].setAttribute('class','edge');
    }
  }
}
]]></script>
        <defs>
                <circle id="rim" cx="0" cy="0" r="7"/>
                <circle id="rim2" cx="0" cy="0" r="3.5"/>
                <g id="zoomPlus">
                        <use xlink:href="#rim" fill="#404040">
                                <set attributeName="fill" to="#808080" begin="zoomplus.mouseover" end="zoomplus.mouseout"/>
                        </use>
                        <path d="M-4,0h8M0,-4v8" fill="none" stroke="white" stroke-width="1.5" pointer-events="none"/>
                </g>
                <g id="zoomMin">
                        <use xlink:href="#rim" fill="#404040">
                                <set attributeName="fill" to="#808080" begin="zoomminus.mouseover" end="zoomminus.mouseout"/>
                        </use>
                        <path d="M-4,0h8" fill="none" stroke="white" stroke-width="1.5" pointer-events="none"/>
                </g>
                <g id="dirArrow">
                        <path fill="none" stroke="white" stroke-width="1.5" d="M0,-3.0v7 M-2.5,-0.5L0,-3.0L2.5,-0.5"/>
                </g>
               <g id="resetDef">
                       <use xlink:href="#rim2" fill="#404040">
                               <set attributeName="fill" to="#808080" begin="reset.mouseover" end="reset.mouseout"/>
                       </use>
               </g>
        </defs>

<script type="text/javascript">
var viewWidth = 625;
var viewHeight = 354;
var sectionId = 'dynsection-1';
</script>
<script xlink:href="svgpan.js"/>
<svg id="graph" class="graph">
<g id="viewport">
<title>CommandBase.CmdSetElemBeg</title>
<polygon fill="white" stroke="transparent" points="-4,4 -4,-350 620.5,-350 620.5,4 -4,4"/>
<!-- Node1 -->
<g id="node1" class="node">
<title>Node1</title>
<g id="a_node1"><a xlink:title="テキスト読み出し命令の一つ:任意のノードの要素テキストの開始位置を取得して，整数型の変数に格納する．">
<polygon fill="#bfbfbf" stroke="black" points="327.5,-0.5 327.5,-19.5 490.5,-19.5 490.5,-0.5 327.5,-0.5"/>
<text text-anchor="middle" x="409" y="-7.5" font-family="Helvetica,sans-Serif" font-size="10.00">CommandBase.CmdSetElemBeg</text>
</a>
</g>
</g>
<!-- Node2 -->
<g id="node2" class="node">
<title>Node2</title>
<g id="a_node2"><a xlink:href="classcmd_1_1_command_base_1_1_cmd_store.html" target="_top" xlink:title=" ">
<polygon fill="white" stroke="black" points="343.5,-57.5 343.5,-76.5 474.5,-76.5 474.5,-57.5 343.5,-57.5"/>
<text text-anchor="middle" x="409" y="-64.5" font-family="Helvetica,sans-Serif" font-size="10.00">CommandBase.CmdStore</text>
</a>
</g>
</g>
<!-- Node2&#45;&gt;Node1 -->
<g id="edge1" class="edge">
<title>Node2&#45;&gt;Node1</title>
<path fill="none" stroke="midnightblue" d="M409,-47.12C409,-37.82 409,-27.06 409,-19.71"/>
<polygon fill="midnightblue" stroke="midnightblue" points="405.5,-47.41 409,-57.41 412.5,-47.41 405.5,-47.41"/>
</g>
<!-- Node3 -->
<g id="node3" class="node">
<title>Node3</title>
<g id="a_node3"><a xlink:href="classcmd_1_1_command_base_1_1_command_ref.html" target="_top" xlink:title=" ">
<polygon fill="white" stroke="black" points="335,-114.5 335,-133.5 483,-133.5 483,-114.5 335,-114.5"/>
<text text-anchor="middle" x="409" y="-121.5" font-family="Helvetica,sans-Serif" font-size="10.00">CommandBase.CommandRef</text>
</a>
</g>
</g>
<!-- Node3&#45;&gt;Node2 -->
<g id="edge2" class="edge">
<title>Node3&#45;&gt;Node2</title>
<path fill="none" stroke="midnightblue" d="M409,-104.12C409,-94.82 409,-84.06 409,-76.71"/>
<polygon fill="midnightblue" stroke="midnightblue" points="405.5,-104.41 409,-114.41 412.5,-104.41 405.5,-104.41"/>
</g>
<!-- Node4 -->
<g id="node4" class="node">
<title>Node4</title>
<g id="a_node4"><a xlink:href="classcmd_1_1_command_base.html" target="_top" xlink:title="局所変数環境に値を書き込む式の抽象クラス.">
<polygon fill="white" stroke="black" points="214,-181.5 214,-200.5 298,-200.5 298,-181.5 214,-181.5"/>
<text text-anchor="middle" x="256" y="-188.5" font-family="Helvetica,sans-Serif" font-size="10.00">CommandBase</text>
</a>
</g>
</g>
<!-- Node4&#45;&gt;Node3 -->
<g id="edge3" class="edge">
<title>Node4&#45;&gt;Node3</title>
<path fill="none" stroke="midnightblue" d="M285.54,-177.45C315.84,-164.58 362.15,-144.9 388.6,-133.67"/>
<polygon fill="midnightblue" stroke="midnightblue" points="284.15,-174.24 276.32,-181.37 286.89,-180.68 284.15,-174.24"/>
</g>
<!-- Node5 -->
<g id="node5" class="node">
<title>Node5</title>
<g id="a_node5"><a xlink:href="interfacemachine_1_1_cmd.html" target="_top" xlink:title="仮装命令のインタフェース.">
<polygon fill="white" stroke="black" points="0,-248.5 0,-267.5 38,-267.5 38,-248.5 0,-248.5"/>
<text text-anchor="middle" x="19" y="-255.5" font-family="Helvetica,sans-Serif" font-size="10.00">Cmd</text>
</a>
</g>
</g>
<!-- Node5&#45;&gt;Node4 -->
<g id="edge4" class="edge">
<title>Node5&#45;&gt;Node4</title>
<path fill="none" stroke="midnightblue" d="M48.12,-247.77C115.15,-228.16 182.69,-210.58 222.19,-200.51"/>
<polygon fill="midnightblue" stroke="midnightblue" points="46.85,-244.5 38.24,-250.68 48.82,-251.21 46.85,-244.5"/>
</g>
<!-- Node6 -->
<g id="node6" class="node">
<title>Node6</title>
<g id="a_node6"><a xlink:href="interfaceformat_1_1_x_formattable_1_1_custom_formattable.html" target="_top" xlink:title="カスタム清書出力器をもつオブジェクトのクラス．">
<polygon fill="white" stroke="red" points="56,-248.5 56,-267.5 220,-267.5 220,-248.5 56,-248.5"/>
<text text-anchor="middle" x="138" y="-255.5" font-family="Helvetica,sans-Serif" font-size="10.00">XFormattable.CustomFormattable</text>
</a>
</g>
</g>
<!-- Node6&#45;&gt;Node4 -->
<g id="edge5" class="edge">
<title>Node6&#45;&gt;Node4</title>
<path fill="none" stroke="midnightblue" d="M162.89,-243.29C186.28,-230.4 220.56,-211.52 240.34,-200.63"/>
<polygon fill="midnightblue" stroke="midnightblue" points="160.98,-240.34 153.91,-248.23 164.36,-246.47 160.98,-240.34"/>
</g>
<!-- Node8 -->
<g id="node7" class="node">
<title>Node8</title>
<g id="a_node7"><a xlink:href="classutil_1_1_report.html" target="_top" xlink:title="標準出力への入れ子出力のためのレポートオブジェクトのクラス.">
<polygon fill="white" stroke="red" points="342.5,-248.5 342.5,-267.5 413.5,-267.5 413.5,-248.5 342.5,-248.5"/>
<text text-anchor="middle" x="378" y="-255.5" font-family="Helvetica,sans-Serif" font-size="10.00">Report&lt; S &gt;</text>
</a>
</g>
</g>
<!-- Node8&#45;&gt;Node4 -->
<g id="edge6" class="edge">
<title>Node8&#45;&gt;Node4</title>
<path fill="none" stroke="#9a32cd" stroke-dasharray="5,2" d="M352.86,-243.6C328.69,-230.73 292.9,-211.66 272.27,-200.67"/>
<polygon fill="#9a32cd" stroke="#9a32cd" points="351.33,-246.76 361.8,-248.37 354.62,-240.58 351.33,-246.76"/>
<text text-anchor="middle" x="336" y="-222" font-family="Helvetica,sans-Serif" font-size="10.00"> repo</text>
</g>
<!-- Node11 -->
<g id="node8" class="node">
<title>Node11</title>
<g id="a_node8"><a xlink:title=" ">
<polygon fill="white" stroke="#bfbfbf" points="247,-326.5 247,-345.5 297,-345.5 297,-326.5 247,-326.5"/>
<text text-anchor="middle" x="272" y="-333.5" font-family="Helvetica,sans-Serif" font-size="10.00">boolean</text>
</a>
</g>
</g>
<!-- Node11&#45;&gt;Node4 -->
<g id="edge8" class="edge">
<title>Node11&#45;&gt;Node4</title>
<path fill="none" stroke="#9a32cd" stroke-dasharray="5,2" d="M269.93,-316.51C266.44,-285.31 259.51,-223.41 256.97,-200.65"/>
<polygon fill="#9a32cd" stroke="#9a32cd" points="266.46,-316.93 271.05,-326.48 273.41,-316.16 266.46,-316.93"/>
<text text-anchor="middle" x="299" y="-255.5" font-family="Helvetica,sans-Serif" font-size="10.00"> DEBUG_CMD</text>
</g>
<!-- Node11&#45;&gt;Node8 -->
<g id="edge7" class="edge">
<title>Node11&#45;&gt;Node8</title>
<path fill="none" stroke="#9a32cd" stroke-dasharray="5,2" d="M292.42,-320.36C314.24,-304.72 348.1,-280.44 365.98,-267.62"/>
<polygon fill="#9a32cd" stroke="#9a32cd" points="290.25,-317.61 284.16,-326.28 294.33,-323.3 290.25,-317.61"/>
<text text-anchor="middle" x="371" y="-300" font-family="Helvetica,sans-Serif" font-size="10.00"> DEBUG_POP</text>
<text text-anchor="middle" x="371" y="-289" font-family="Helvetica,sans-Serif" font-size="10.00">toPrint</text>
</g>
<!-- Node12 -->
<g id="node9" class="node">
<title>Node12</title>
<g id="a_node9"><a xlink:href="interfacemachine_1_1_data_accessor.html" target="_top" xlink:title="参照をもつデータ読み書きオブジェクトのインタフェース.">
<polygon fill="white" stroke="black" points="369.5,-181.5 369.5,-200.5 448.5,-200.5 448.5,-181.5 369.5,-181.5"/>
<text text-anchor="middle" x="409" y="-188.5" font-family="Helvetica,sans-Serif" font-size="10.00">DataAccessor</text>
</a>
</g>
</g>
<!-- Node12&#45;&gt;Node3 -->
<g id="edge9" class="edge">
<title>Node12&#45;&gt;Node3</title>
<path fill="none" stroke="midnightblue" d="M409,-171.04C409,-158.67 409,-143.12 409,-133.63"/>
<polygon fill="midnightblue" stroke="midnightblue" points="405.5,-171.23 409,-181.23 412.5,-171.23 405.5,-171.23"/>
</g>
<!-- Node13 -->
<g id="node10" class="node">
<title>Node13</title>
<g id="a_node10"><a xlink:href="classmachine_1_1_ref.html" target="_top" xlink:title="フレーム中の変数参照オブジェクトref = (XType type, int vid)">
<polygon fill="white" stroke="black" points="497,-181.5 497,-200.5 529,-200.5 529,-181.5 497,-181.5"/>
<text text-anchor="middle" x="513" y="-188.5" font-family="Helvetica,sans-Serif" font-size="10.00">Ref</text>
</a>
</g>
</g>
<!-- Node13&#45;&gt;Node3 -->
<g id="edge10" class="edge">
<title>Node13&#45;&gt;Node3</title>
<path fill="none" stroke="#9a32cd" stroke-dasharray="5,2" d="M490.23,-175.77C469.64,-162.9 440.01,-144.38 422.8,-133.63"/>
<polygon fill="#9a32cd" stroke="#9a32cd" points="488.64,-178.9 498.97,-181.23 492.35,-172.97 488.64,-178.9"/>
<text text-anchor="middle" x="475.5" y="-155" font-family="Helvetica,sans-Serif" font-size="10.00"> ref</text>
</g>
<!-- Node14 -->
<g id="node11" class="node">
<title>Node14</title>
<g id="a_node11"><a xlink:href="classast_1_1_ast_node.html" target="_top" xlink:title="タグなしの順アクセスの子供をもてる抽象構文木のノードのクラス。">
<polygon fill="white" stroke="red" points="431.5,-248.5 431.5,-267.5 486.5,-267.5 486.5,-248.5 431.5,-248.5"/>
<text text-anchor="middle" x="459" y="-255.5" font-family="Helvetica,sans-Serif" font-size="10.00">AstNode</text>
</a>
</g>
</g>
<!-- Node14&#45;&gt;Node13 -->
<g id="edge11" class="edge">
<title>Node14&#45;&gt;Node13</title>
<path fill="none" stroke="midnightblue" d="M472.9,-240.27C483.43,-227.6 497.46,-210.7 505.83,-200.63"/>
<polygon fill="midnightblue" stroke="midnightblue" points="469.98,-238.31 466.28,-248.23 475.37,-242.78 469.98,-238.31"/>
</g>
<!-- Node24 -->
<g id="node12" class="node">
<title>Node24</title>
<g id="a_node12"><a xlink:href="interfacemachine_1_1_assignable.html" target="_top" xlink:title="変数（チャネルとコンテナの名前）の抽象化">
<polygon fill="white" stroke="black" points="504.5,-248.5 504.5,-267.5 569.5,-267.5 569.5,-248.5 504.5,-248.5"/>
<text text-anchor="middle" x="537" y="-255.5" font-family="Helvetica,sans-Serif" font-size="10.00">Assignable</text>
</a>
</g>
</g>
<!-- Node24&#45;&gt;Node13 -->
<g id="edge12" class="edge">
<title>Node24&#45;&gt;Node13</title>
<path fill="none" stroke="midnightblue" d="M530.28,-238.79C525.67,-226.31 519.76,-210.31 516.19,-200.63"/>
<polygon fill="midnightblue" stroke="midnightblue" points="527.02,-240.07 533.76,-248.23 533.58,-237.64 527.02,-240.07"/>
</g>
<!-- Node18 -->
<g id="node13" class="node">
<title>Node18</title>
<g id="a_node13"><a xlink:title=" ">
<polygon fill="white" stroke="#bfbfbf" points="587.5,-248.5 587.5,-267.5 616.5,-267.5 616.5,-248.5 587.5,-248.5"/>
<text text-anchor="middle" x="602" y="-255.5" font-family="Helvetica,sans-Serif" font-size="10.00">int</text>
</a>
</g>
</g>
<!-- Node18&#45;&gt;Node13 -->
<g id="edge13" class="edge">
<title>Node18&#45;&gt;Node13</title>
<path fill="none" stroke="#9a32cd" stroke-dasharray="5,2" d="M581.55,-242.07C563.99,-229.24 539.27,-211.19 524.81,-200.63"/>
<polygon fill="#9a32cd" stroke="#9a32cd" points="579.86,-245.16 590,-248.23 583.99,-239.51 579.86,-245.16"/>
<text text-anchor="middle" x="582.5" y="-222" font-family="Helvetica,sans-Serif" font-size="10.00"> UNDEF</text>
</g>
</g>
</svg>
        <g id="navigator" transform="translate(0 0)" fill="#404254">
                <rect fill="#f2f5e9" fill-opacity="0.5" stroke="#606060" stroke-width=".5" x="0" y="0" width="60" height="60"/>
                <use id="zoomplus" xlink:href="#zoomPlus" x="17" y="9" onmousedown="handleZoom(evt,'in')"/>
                <use id="zoomminus" xlink:href="#zoomMin" x="42" y="9" onmousedown="handleZoom(evt,'out')"/>
                <use id="reset" xlink:href="#resetDef" x="30" y="36" onmousedown="handleReset()"/>
                <g id="arrowUp" xlink:href="#dirArrow" transform="translate(30 24)" onmousedown="handlePan(0,-1)">
                  <use xlink:href="#rim" fill="#404040">
                        <set attributeName="fill" to="#808080" begin="arrowUp.mouseover" end="arrowUp.mouseout"/>
                  </use>
                  <path fill="none" stroke="white" stroke-width="1.5" d="M0,-3.0v7 M-2.5,-0.5L0,-3.0L2.5,-0.5"/>
                </g>
                <g id="arrowRight" xlink:href="#dirArrow" transform="rotate(90) translate(36 -43)" onmousedown="handlePan(1,0)">
                  <use xlink:href="#rim" fill="#404040">
                        <set attributeName="fill" to="#808080" begin="arrowRight.mouseover" end="arrowRight.mouseout"/>
                  </use>
                  <path fill="none" stroke="white" stroke-width="1.5" d="M0,-3.0v7 M-2.5,-0.5L0,-3.0L2.5,-0.5"/>
                </g>
                <g id="arrowDown" xlink:href="#dirArrow" transform="rotate(180) translate(-30 -48)" onmousedown="handlePan(0,1)">
                  <use xlink:href="#rim" fill="#404040">
                        <set attributeName="fill" to="#808080" begin="arrowDown.mouseover" end="arrowDown.mouseout"/>
                  </use>
                  <path fill="none" stroke="white" stroke-width="1.5" d="M0,-3.0v7 M-2.5,-0.5L0,-3.0L2.5,-0.5"/>
                </g>
                <g id="arrowLeft" xlink:href="#dirArrow" transform="rotate(270) translate(-36 17)" onmousedown="handlePan(-1,0)">
                  <use xlink:href="#rim" fill="#404040">
                        <set attributeName="fill" to="#808080" begin="arrowLeft.mouseover" end="arrowLeft.mouseout"/>
                  </use>
                  <path fill="none" stroke="white" stroke-width="1.5" d="M0,-3.0v7 M-2.5,-0.5L0,-3.0L2.5,-0.5"/>
                </g>
        </g>
        <svg viewBox="0 0 15 15" width="100%" height="30px" preserveAspectRatio="xMaxYMin meet">
         <g id="arrow_out" transform="scale(0.3 0.3)">
          <a xlink:href="classcmd_1_1_command_base_1_1_cmd_set_elem_beg__coll__graph_org.svg" target="_base">
           <rect id="button" ry="5" rx="5" y="6" x="6" height="38" width="38"
                fill="#f2f5e9" fill-opacity="0.5" stroke="#606060" stroke-width="1.0"/>
           <path id="arrow"
             d="M 11.500037,31.436501 C 11.940474,20.09759 22.043105,11.32322 32.158766,21.979434 L 37.068811,17.246167 C 37.068811,17.246167 37.088388,32 37.088388,32 L 22.160133,31.978069 C 22.160133,31.978069 26.997745,27.140456 26.997745,27.140456 C 18.528582,18.264221 13.291696,25.230495 11.500037,31.436501 z"
             style="fill:#404040;"/>
          </a>
         </g>
        </svg>
</svg>
