<?xml version="1.0" encoding="UTF-8" standalone="no"?>
<!DOCTYPE svg PUBLIC "-//W3C//DTD SVG 1.1//EN"
 "http://www.w3.org/Graphics/SVG/1.1/DTD/svg11.dtd">
<!-- Generated by graphviz version 2.38.0 (20140413.2041)
 -->
<!-- Title: AstAtom.Tag Pages: 1 -->
<svg width="327pt" height="247pt"
 viewBox="0.00 0.00 327.48 247.00" xmlns="http://www.w3.org/2000/svg" xmlns:xlink="http://www.w3.org/1999/xlink">
<g id="graph0" class="graph" transform="scale(1 1) rotate(0) translate(4 243)">
<title>AstAtom.Tag</title>
<polygon fill="white" stroke="none" points="-4,4 -4,-243 323.482,-243 323.482,4 -4,4"/>
<!-- Node1 -->
<g id="node1" class="node"><title>Node1</title>
<g id="a_node1"><a xlink:title=" ">
<polygon fill="#bfbfbf" stroke="black" points="111.833,-0.5 111.833,-18.5 184.522,-18.5 184.522,-0.5 111.833,-0.5"/>
<text text-anchor="middle" x="148.177" y="-6.5" font-family="Helvetica,sans-Serif" font-size="10.00">AstAtom.Tag</text>
</a>
</g>
</g>
<!-- Node2 -->
<g id="node2" class="node"><title>Node2</title>
<g id="a_node2"><a xlink:href="classast_1_1_ast_atom.html" target="_top" xlink:title="値型をもつ終端オブジェクトのクラス">
<polygon fill="white" stroke="black" points="94.2832,-55.5 94.2832,-73.5 148.071,-73.5 148.071,-55.5 94.2832,-55.5"/>
<text text-anchor="middle" x="121.177" y="-61.5" font-family="Helvetica,sans-Serif" font-size="10.00">AstAtom</text>
</a>
</g>
</g>
<!-- Node2&#45;&gt;Node1 -->
<g id="edge1" class="edge"><title>Node2&#45;&gt;Node1</title>
<path fill="none" stroke="midnightblue" d="M130.058,-46.0678C134.784,-36.7905 140.369,-25.8272 144.077,-18.5496"/>
<polygon fill="midnightblue" stroke="midnightblue" points="126.817,-44.7196 125.396,-55.2188 133.054,-47.8971 126.817,-44.7196"/>
</g>
<!-- Node3 -->
<g id="node3" class="node"><title>Node3</title>
<g id="a_node3"><a xlink:href="classast_1_1_ast_terminal.html" target="_top" xlink:title="値型をもたない終端オブジェクトのクラス">
<polygon fill="white" stroke="black" points="67.0591,-110.5 67.0591,-128.5 135.295,-128.5 135.295,-110.5 67.0591,-110.5"/>
<text text-anchor="middle" x="101.177" y="-116.5" font-family="Helvetica,sans-Serif" font-size="10.00">AstTerminal</text>
</a>
</g>
</g>
<!-- Node3&#45;&gt;Node2 -->
<g id="edge2" class="edge"><title>Node3&#45;&gt;Node2</title>
<path fill="none" stroke="midnightblue" d="M107.867,-100.771C111.344,-91.5577 115.423,-80.7498 118.14,-73.5496"/>
<polygon fill="midnightblue" stroke="midnightblue" points="104.558,-99.627 104.302,-110.219 111.107,-102.098 104.558,-99.627"/>
</g>
<!-- Node4 -->
<g id="node4" class="node"><title>Node4</title>
<g id="a_node4"><a xlink:href="classast_1_1_ast_node.html" target="_top" xlink:title=" ">
<polygon fill="white" stroke="black" points="0,-165.5 0,-183.5 54.3545,-183.5 54.3545,-165.5 0,-165.5"/>
<text text-anchor="middle" x="27.1772" y="-171.5" font-family="Helvetica,sans-Serif" font-size="10.00">AstNode</text>
</a>
</g>
</g>
<!-- Node4&#45;&gt;Node3 -->
<g id="edge3" class="edge"><title>Node4&#45;&gt;Node3</title>
<path fill="none" stroke="midnightblue" d="M46.7362,-159.492C60.4785,-149.649 78.3831,-136.826 89.8325,-128.625"/>
<polygon fill="midnightblue" stroke="midnightblue" points="44.5082,-156.782 38.4163,-165.45 48.5842,-162.473 44.5082,-156.782"/>
</g>
<!-- Node5 -->
<g id="node5" class="node"><title>Node5</title>
<g id="a_node5"><a xlink:href="interfaceformat_1_1_x_formattable.html" target="_top" xlink:title="入れ子フォーマット出力可能なオブジェクトのインタフェース。">
<polygon fill="white" stroke="black" points="102.165,-220.5 102.165,-238.5 178.189,-238.5 178.189,-220.5 102.165,-220.5"/>
<text text-anchor="middle" x="140.177" y="-226.5" font-family="Helvetica,sans-Serif" font-size="10.00">XFormattable</text>
</a>
</g>
</g>
<!-- Node5&#45;&gt;Node4 -->
<g id="edge4" class="edge"><title>Node5&#45;&gt;Node4</title>
<path fill="none" stroke="midnightblue" d="M113.842,-216.148C92.4821,-206.13 62.9836,-192.294 44.501,-183.625"/>
<polygon fill="midnightblue" stroke="midnightblue" points="112.475,-219.373 123.015,-220.45 115.448,-213.035 112.475,-219.373"/>
</g>
<!-- Node6 -->
<g id="node6" class="node"><title>Node6</title>
<g id="a_node6"><a xlink:href="interfaceformat_1_1_x_formattable_1_1_terminatable.html" target="_top" xlink:title="木構造の終端として清書可能なオブジェクトのクラス">
<polygon fill="white" stroke="black" points="72.1504,-165.5 72.1504,-183.5 208.204,-183.5 208.204,-165.5 72.1504,-165.5"/>
<text text-anchor="middle" x="140.177" y="-171.5" font-family="Helvetica,sans-Serif" font-size="10.00">XFormattable.Terminatable</text>
</a>
</g>
</g>
<!-- Node5&#45;&gt;Node6 -->
<g id="edge6" class="edge"><title>Node5&#45;&gt;Node6</title>
<path fill="none" stroke="midnightblue" d="M140.177,-210.175C140.177,-201.094 140.177,-190.595 140.177,-183.55"/>
<polygon fill="midnightblue" stroke="midnightblue" points="136.677,-210.219 140.177,-220.219 143.677,-210.219 136.677,-210.219"/>
</g>
<!-- Node7 -->
<g id="node7" class="node"><title>Node7</title>
<g id="a_node7"><a xlink:href="interfaceformat_1_1_x_formattable_1_1_custom_formattable.html" target="_top" xlink:title="カスタム清書出力器をもつオブジェクトのクラス．">
<polygon fill="white" stroke="black" points="152.872,-110.5 152.872,-128.5 319.482,-128.5 319.482,-110.5 152.872,-110.5"/>
<text text-anchor="middle" x="236.177" y="-116.5" font-family="Helvetica,sans-Serif" font-size="10.00">XFormattable.CustomFormattable</text>
</a>
</g>
</g>
<!-- Node5&#45;&gt;Node7 -->
<g id="edge8" class="edge"><title>Node5&#45;&gt;Node7</title>
<path fill="none" stroke="midnightblue" d="M172.847,-216.339C188.273,-209.09 205.762,-198.446 217.177,-184 230.305,-167.388 234.377,-141.851 235.629,-128.801"/>
<polygon fill="midnightblue" stroke="midnightblue" points="171.323,-213.185 163.581,-220.417 174.143,-219.592 171.323,-213.185"/>
</g>
<!-- Node6&#45;&gt;Node3 -->
<g id="edge5" class="edge"><title>Node6&#45;&gt;Node3</title>
<path fill="none" stroke="midnightblue" d="M127.999,-156.951C121.041,-147.494 112.627,-136.059 107.101,-128.55"/>
<polygon fill="midnightblue" stroke="midnightblue" points="125.338,-159.239 134.083,-165.219 130.976,-155.09 125.338,-159.239"/>
</g>
<!-- Node7&#45;&gt;Node1 -->
<g id="edge7" class="edge"><title>Node7&#45;&gt;Node1</title>
<path fill="none" stroke="midnightblue" d="M223.106,-102.458C204.068,-79.0933 169.4,-36.5466 154.868,-18.7118"/>
<polygon fill="midnightblue" stroke="midnightblue" points="220.533,-104.841 229.563,-110.382 225.96,-100.419 220.533,-104.841"/>
</g>
</g>
</svg>
