<?xml version="1.0" encoding="UTF-8" standalone="no"?>
<!DOCTYPE svg PUBLIC "-//W3C//DTD SVG 1.1//EN"
 "http://www.w3.org/Graphics/SVG/1.1/DTD/svg11.dtd">
<!-- Generated by graphviz version 2.38.0 (20140413.2041)
 -->
<!-- Title: AstDataReader.RefReader Pages: 1 -->
<!--zoomable 175 -->
<svg id="main" version="1.1" xmlns="http://www.w3.org/2000/svg" xmlns:xlink="http://www.w3.org/1999/xlink" xml:space="preserve" onload="init(evt)">
<style type="text/css"><![CDATA[
.edge:hover path { stroke: red; }
.edge:hover polygon { stroke: red; fill: red; }
]]></style>
<script type="text/javascript"><![CDATA[
var edges = document.getElementsByTagName('g');
if (edges && edges.length) {
  for (var i=0;i<edges.length;i++) {
    if (edges[i].id.substr(0,4)=='edge') {
      edges[i].setAttribute('class','edge');
    }
  }
}
]]></script>
        <defs>
                <circle id="rim" cx="0" cy="0" r="7"/>
                <circle id="rim2" cx="0" cy="0" r="3.5"/>
                <g id="zoomPlus">
                        <use xlink:href="#rim" fill="#404040">
                                <set attributeName="fill" to="#808080" begin="zoomplus.mouseover" end="zoomplus.mouseout"/>
                        </use>
                        <path d="M-4,0h8M0,-4v8" fill="none" stroke="white" stroke-width="1.5" pointer-events="none"/>
                </g>
                <g id="zoomMin">
                        <use xlink:href="#rim" fill="#404040">
                                <set attributeName="fill" to="#808080" begin="zoomminus.mouseover" end="zoomminus.mouseout"/>
                        </use>
                        <path d="M-4,0h8" fill="none" stroke="white" stroke-width="1.5" pointer-events="none"/>
                </g>
                <g id="dirArrow">
                        <path fill="none" stroke="white" stroke-width="1.5" d="M0,-3.0v7 M-2.5,-0.5L0,-3.0L2.5,-0.5"/>
                </g>
               <g id="resetDef">
                       <use xlink:href="#rim2" fill="#404040">
                               <set attributeName="fill" to="#808080" begin="reset.mouseover" end="reset.mouseout"/>
                       </use>
               </g>
        </defs>

<script type="text/javascript">
var viewWidth = 1027;
var viewHeight = 175;
var sectionId = 'dynsection-0';
</script>
<script xlink:href="svgpan.js"/>
<svg id="graph" class="graph">
<g id="viewport">
<title>AstDataReader.RefReader</title>
<polygon fill="white" stroke="none" points="-4,4 -4,-171 1022.9,-171 1022.9,4 -4,4"/>
<!-- Node1 -->
<g id="node1" class="node"><title>Node1</title>
<g id="a_node1"><a xlink:title="フレームスタックから参照が示す値を読み出すクラス">
<polygon fill="#bfbfbf" stroke="black" points="689.639,-74.5 689.639,-92.5 824.599,-92.5 824.599,-74.5 689.639,-74.5"/>
<text text-anchor="middle" x="757.119" y="-80.5" font-family="Helvetica,sans-Serif" font-size="10.00">AstDataReader.RefReader</text>
</a>
</g>
</g>
<!-- Node10 -->
<g id="node10" class="node"><title>Node10</title>
<g id="a_node10"><a xlink:href="classast_1_1_ast_data_reader_1_1_reader_boolean.html" target="_top" xlink:title="ブール型の値をもつ参照読み出し">
<polygon fill="white" stroke="black" points="861.7,-148.5 861.7,-166.5 1017.8,-166.5 1017.8,-148.5 861.7,-148.5"/>
<text text-anchor="middle" x="939.749" y="-154.5" font-family="Helvetica,sans-Serif" font-size="10.00">AstDataReader.ReaderBoolean</text>
</a>
</g>
</g>
<!-- Node1&#45;&gt;Node10 -->
<g id="edge12" class="edge"><title>Node1&#45;&gt;Node10</title>
<path fill="none" stroke="midnightblue" d="M780.949,-97.9396C801.206,-110.211 831.946,-127.534 860.599,-138.5 870.901,-142.443 882.287,-145.762 893.106,-148.466"/>
<polygon fill="midnightblue" stroke="midnightblue" points="782.515,-94.7936 772.164,-92.5348 778.847,-100.756 782.515,-94.7936"/>
</g>
<!-- Node11 -->
<g id="node11" class="node"><title>Node11</title>
<g id="a_node11"><a xlink:href="classast_1_1_ast_data_reader_1_1_reader_double.html" target="_top" xlink:title="倍精度実数型の値をもつ参照読み出しの呼び出し">
<polygon fill="white" stroke="black" points="864.205,-111.5 864.205,-129.5 1015.29,-129.5 1015.29,-111.5 864.205,-111.5"/>
<text text-anchor="middle" x="939.749" y="-117.5" font-family="Helvetica,sans-Serif" font-size="10.00">AstDataReader.ReaderDouble</text>
</a>
</g>
</g>
<!-- Node1&#45;&gt;Node11 -->
<g id="edge13" class="edge"><title>Node1&#45;&gt;Node11</title>
<path fill="none" stroke="midnightblue" d="M812.143,-94.5664C838.506,-99.9665 869.817,-106.38 894.705,-111.478"/>
<polygon fill="midnightblue" stroke="midnightblue" points="812.805,-91.1292 802.306,-92.5512 811.4,-97.9868 812.805,-91.1292"/>
</g>
<!-- Node12 -->
<g id="node12" class="node"><title>Node12</title>
<g id="a_node12"><a xlink:href="classast_1_1_ast_data_reader_1_1_reader_get_elem.html" target="_top" xlink:title=" ">
<polygon fill="white" stroke="black" points="860.599,-74.5 860.599,-92.5 1018.9,-92.5 1018.9,-74.5 860.599,-74.5"/>
<text text-anchor="middle" x="939.749" y="-80.5" font-family="Helvetica,sans-Serif" font-size="10.00">AstDataReader.ReaderGetElem</text>
</a>
</g>
</g>
<!-- Node1&#45;&gt;Node12 -->
<g id="edge14" class="edge"><title>Node1&#45;&gt;Node12</title>
<path fill="none" stroke="midnightblue" d="M834.851,-83.5C843.33,-83.5 851.973,-83.5 860.472,-83.5"/>
<polygon fill="midnightblue" stroke="midnightblue" points="834.609,-80.0001 824.609,-83.5 834.609,-87.0001 834.609,-80.0001"/>
</g>
<!-- Node13 -->
<g id="node13" class="node"><title>Node13</title>
<g id="a_node13"><a xlink:href="classast_1_1_ast_data_reader_1_1_reader_integer.html" target="_top" xlink:title="整数型の値をもつ参照読み出しの呼び出し">
<polygon fill="white" stroke="black" points="864.483,-37.5 864.483,-55.5 1015.01,-55.5 1015.01,-37.5 864.483,-37.5"/>
<text text-anchor="middle" x="939.749" y="-43.5" font-family="Helvetica,sans-Serif" font-size="10.00">AstDataReader.ReaderInteger</text>
</a>
</g>
</g>
<!-- Node1&#45;&gt;Node13 -->
<g id="edge15" class="edge"><title>Node1&#45;&gt;Node13</title>
<path fill="none" stroke="midnightblue" d="M812.143,-72.4336C838.506,-67.0335 869.817,-60.6199 894.705,-55.5218"/>
<polygon fill="midnightblue" stroke="midnightblue" points="811.4,-69.0132 802.306,-74.4488 812.805,-75.8708 811.4,-69.0132"/>
</g>
<!-- Node14 -->
<g id="node14" class="node"><title>Node14</title>
<g id="a_node14"><a xlink:href="classast_1_1_ast_data_reader_1_1_reader_string.html" target="_top" xlink:title="文字列型の値をもつ参照読み出し">
<polygon fill="white" stroke="black" points="866.988,-0.5 866.988,-18.5 1012.51,-18.5 1012.51,-0.5 866.988,-0.5"/>
<text text-anchor="middle" x="939.749" y="-6.5" font-family="Helvetica,sans-Serif" font-size="10.00">AstDataReader.ReaderString</text>
</a>
</g>
</g>
<!-- Node1&#45;&gt;Node14 -->
<g id="edge16" class="edge"><title>Node1&#45;&gt;Node14</title>
<path fill="none" stroke="midnightblue" d="M780.261,-69.0727C800.462,-56.4869 831.509,-38.5573 860.599,-27.5 869.969,-23.9382 880.25,-20.9561 890.189,-18.5093"/>
<polygon fill="midnightblue" stroke="midnightblue" points="778.367,-66.1296 771.79,-74.4355 782.111,-72.0442 778.367,-66.1296"/>
</g>
<!-- Node2 -->
<g id="node2" class="node"><title>Node2</title>
<g id="a_node2"><a xlink:href="classast_1_1_ast_data_reader.html" target="_top" xlink:title="値の読み出しオブジェクト．">
<polygon fill="white" stroke="black" points="569.27,-93.5 569.27,-111.5 653.639,-111.5 653.639,-93.5 569.27,-93.5"/>
<text text-anchor="middle" x="611.454" y="-99.5" font-family="Helvetica,sans-Serif" font-size="10.00">AstDataReader</text>
</a>
</g>
</g>
<!-- Node2&#45;&gt;Node1 -->
<g id="edge1" class="edge"><title>Node2&#45;&gt;Node1</title>
<path fill="none" stroke="midnightblue" d="M664.174,-95.6599C672.39,-94.5733 680.988,-93.4363 689.488,-92.3121"/>
<polygon fill="midnightblue" stroke="midnightblue" points="663.463,-92.2234 654.008,-97.0044 664.38,-99.163 663.463,-92.2234"/>
</g>
<!-- Node3 -->
<g id="node3" class="node"><title>Node3</title>
<g id="a_node3"><a xlink:href="classast_1_1_ast_atom.html" target="_top" xlink:title="値型をもつ終端オブジェクトのクラス">
<polygon fill="white" stroke="black" points="479.481,-131.5 479.481,-149.5 533.27,-149.5 533.27,-131.5 479.481,-131.5"/>
<text text-anchor="middle" x="506.375" y="-137.5" font-family="Helvetica,sans-Serif" font-size="10.00">AstAtom</text>
</a>
</g>
</g>
<!-- Node3&#45;&gt;Node2 -->
<g id="edge2" class="edge"><title>Node3&#45;&gt;Node2</title>
<path fill="none" stroke="midnightblue" d="M541.447,-127.939C555.956,-122.591 572.56,-116.47 585.844,-111.573"/>
<polygon fill="midnightblue" stroke="midnightblue" points="539.976,-124.752 531.804,-131.495 542.397,-131.319 539.976,-124.752"/>
</g>
<!-- Node4 -->
<g id="node4" class="node"><title>Node4</title>
<g id="a_node4"><a xlink:href="classast_1_1_ast_terminal.html" target="_top" xlink:title="値型をもたない終端オブジェクトのクラス">
<polygon fill="white" stroke="black" points="329.662,-131.5 329.662,-149.5 397.898,-149.5 397.898,-131.5 329.662,-131.5"/>
<text text-anchor="middle" x="363.78" y="-137.5" font-family="Helvetica,sans-Serif" font-size="10.00">AstTerminal</text>
</a>
</g>
</g>
<!-- Node4&#45;&gt;Node3 -->
<g id="edge3" class="edge"><title>Node4&#45;&gt;Node3</title>
<path fill="none" stroke="midnightblue" d="M408.411,-140.5C431.65,-140.5 459.455,-140.5 479.319,-140.5"/>
<polygon fill="midnightblue" stroke="midnightblue" points="408.099,-137 398.099,-140.5 408.099,-144 408.099,-137"/>
</g>
<!-- Node5 -->
<g id="node5" class="node"><title>Node5</title>
<g id="a_node5"><a xlink:href="classast_1_1_ast_node.html" target="_top" xlink:title=" ">
<polygon fill="white" stroke="black" points="152.874,-130.5 152.874,-148.5 207.229,-148.5 207.229,-130.5 152.874,-130.5"/>
<text text-anchor="middle" x="180.051" y="-136.5" font-family="Helvetica,sans-Serif" font-size="10.00">AstNode</text>
</a>
</g>
</g>
<!-- Node5&#45;&gt;Node4 -->
<g id="edge4" class="edge"><title>Node5&#45;&gt;Node4</title>
<path fill="none" stroke="midnightblue" d="M217.537,-139.701C250.253,-139.881 297.849,-140.143 329.534,-140.317"/>
<polygon fill="midnightblue" stroke="midnightblue" points="217.495,-136.201 207.476,-139.645 217.457,-143.2 217.495,-136.201"/>
</g>
<!-- Node6 -->
<g id="node6" class="node"><title>Node6</title>
<g id="a_node6"><a xlink:href="interfaceformat_1_1_x_formattable.html" target="_top" xlink:title="入れ子フォーマット出力可能なオブジェクトのインタフェース。">
<polygon fill="white" stroke="black" points="0,-93.5 0,-111.5 76.0244,-111.5 76.0244,-93.5 0,-93.5"/>
<text text-anchor="middle" x="38.0122" y="-99.5" font-family="Helvetica,sans-Serif" font-size="10.00">XFormattable</text>
</a>
</g>
</g>
<!-- Node6&#45;&gt;Node5 -->
<g id="edge5" class="edge"><title>Node6&#45;&gt;Node5</title>
<path fill="none" stroke="midnightblue" d="M83.0847,-114.144C105.914,-120.176 133.029,-127.34 152.604,-132.512"/>
<polygon fill="midnightblue" stroke="midnightblue" points="83.8319,-110.722 73.2696,-111.551 82.0438,-117.49 83.8319,-110.722"/>
</g>
<!-- Node7 -->
<g id="node7" class="node"><title>Node7</title>
<g id="a_node7"><a xlink:href="interfaceformat_1_1_x_formattable_1_1_terminatable.html" target="_top" xlink:title="木構造の終端として清書可能なオブジェクトのクラス">
<polygon fill="white" stroke="black" points="112.024,-93.5 112.024,-111.5 248.078,-111.5 248.078,-93.5 112.024,-93.5"/>
<text text-anchor="middle" x="180.051" y="-99.5" font-family="Helvetica,sans-Serif" font-size="10.00">XFormattable.Terminatable</text>
</a>
</g>
</g>
<!-- Node6&#45;&gt;Node7 -->
<g id="edge7" class="edge"><title>Node6&#45;&gt;Node7</title>
<path fill="none" stroke="midnightblue" d="M86.3186,-102.5C94.559,-102.5 103.27,-102.5 111.922,-102.5"/>
<polygon fill="midnightblue" stroke="midnightblue" points="86.1725,-99.0001 76.1724,-102.5 86.1724,-106 86.1725,-99.0001"/>
</g>
<!-- Node8 -->
<g id="node8" class="node"><title>Node8</title>
<g id="a_node8"><a xlink:href="interfaceformat_1_1_x_formattable_1_1_typed_formattable.html" target="_top" xlink:title="ノードの型情報をもつ書式出力可能なオブジェクトのインタフェース．">
<polygon fill="white" stroke="black" points="284.078,-55.5 284.078,-73.5 443.481,-73.5 443.481,-55.5 284.078,-55.5"/>
<text text-anchor="middle" x="363.78" y="-61.5" font-family="Helvetica,sans-Serif" font-size="10.00">XFormattable.TypedFormattable</text>
</a>
</g>
</g>
<!-- Node6&#45;&gt;Node8 -->
<g id="edge10" class="edge"><title>Node6&#45;&gt;Node8</title>
<path fill="none" stroke="midnightblue" d="M78.8585,-90.755C89.5479,-87.983 101.157,-85.3108 112.024,-83.5 169.086,-73.9924 234.254,-69.2368 283.851,-66.8611"/>
<polygon fill="midnightblue" stroke="midnightblue" points="77.6951,-87.4433 68.9458,-93.4183 79.5115,-94.2036 77.6951,-87.4433"/>
</g>
<!-- Node7&#45;&gt;Node2 -->
<g id="edge8" class="edge"><title>Node7&#45;&gt;Node2</title>
<path fill="none" stroke="midnightblue" d="M258.419,-102.5C349.535,-102.5 497.518,-102.5 569.086,-102.5"/>
<polygon fill="midnightblue" stroke="midnightblue" points="258.145,-99.0001 248.145,-102.5 258.145,-106 258.145,-99.0001"/>
</g>
<!-- Node7&#45;&gt;Node4 -->
<g id="edge6" class="edge"><title>Node7&#45;&gt;Node4</title>
<path fill="none" stroke="midnightblue" d="M234.257,-113.625C265.021,-120.058 302.783,-127.954 329.39,-133.518"/>
<polygon fill="midnightblue" stroke="midnightblue" points="234.623,-110.126 224.118,-111.505 233.19,-116.978 234.623,-110.126"/>
</g>
<!-- Node8&#45;&gt;Node2 -->
<g id="edge9" class="edge"><title>Node8&#45;&gt;Node2</title>
<path fill="none" stroke="midnightblue" d="M442.439,-74.9341C471.03,-78.9408 503.656,-83.707 533.27,-88.5 544.966,-90.393 557.626,-92.6163 569.245,-94.7267"/>
<polygon fill="midnightblue" stroke="midnightblue" points="442.893,-71.4636 432.506,-73.5497 441.927,-78.3966 442.893,-71.4636"/>
</g>
<!-- Node9 -->
<g id="node9" class="node"><title>Node9</title>
<g id="a_node9"><a xlink:href="interfacemachine_1_1_data_accessor.html" target="_top" xlink:title="参照をもつデータ読み書きオブジェクトのインタフェース.">
<polygon fill="white" stroke="black" points="572.331,-56.5 572.331,-74.5 650.577,-74.5 650.577,-56.5 572.331,-56.5"/>
<text text-anchor="middle" x="611.454" y="-62.5" font-family="Helvetica,sans-Serif" font-size="10.00">DataAccessor</text>
</a>
</g>
</g>
<!-- Node9&#45;&gt;Node1 -->
<g id="edge11" class="edge"><title>Node9&#45;&gt;Node1</title>
<path fill="none" stroke="midnightblue" d="M661.017,-71.5846C670.177,-72.7322 679.902,-73.9507 689.502,-75.1535"/>
<polygon fill="midnightblue" stroke="midnightblue" points="661.311,-68.0941 650.954,-70.3237 660.441,-75.0398 661.311,-68.0941"/>
</g>
</g>
</svg>
        <g id="navigator" transform="translate(0 0)" fill="#404254">
                <rect fill="#f2f5e9" fill-opacity="0.5" stroke="#606060" stroke-width=".5" x="0" y="0" width="60" height="60"/>
                <use id="zoomplus" xlink:href="#zoomPlus" x="17" y="9" onmousedown="handleZoom(evt,'in')"/>
                <use id="zoomminus" xlink:href="#zoomMin" x="42" y="9" onmousedown="handleZoom(evt,'out')"/>
                <use id="reset" xlink:href="#resetDef" x="30" y="36" onmousedown="handleReset()"/>
                <g id="arrowUp" xlink:href="#dirArrow" transform="translate(30 24)" onmousedown="handlePan(0,-1)">
                  <use xlink:href="#rim" fill="#404040">
                        <set attributeName="fill" to="#808080" begin="arrowUp.mouseover" end="arrowUp.mouseout"/>
                  </use>
                  <path fill="none" stroke="white" stroke-width="1.5" d="M0,-3.0v7 M-2.5,-0.5L0,-3.0L2.5,-0.5"/>
                </g>
                <g id="arrowRight" xlink:href="#dirArrow" transform="rotate(90) translate(36 -43)" onmousedown="handlePan(1,0)">
                  <use xlink:href="#rim" fill="#404040">
                        <set attributeName="fill" to="#808080" begin="arrowRight.mouseover" end="arrowRight.mouseout"/>
                  </use>
                  <path fill="none" stroke="white" stroke-width="1.5" d="M0,-3.0v7 M-2.5,-0.5L0,-3.0L2.5,-0.5"/>
                </g>
                <g id="arrowDown" xlink:href="#dirArrow" transform="rotate(180) translate(-30 -48)" onmousedown="handlePan(0,1)">
                  <use xlink:href="#rim" fill="#404040">
                        <set attributeName="fill" to="#808080" begin="arrowDown.mouseover" end="arrowDown.mouseout"/>
                  </use>
                  <path fill="none" stroke="white" stroke-width="1.5" d="M0,-3.0v7 M-2.5,-0.5L0,-3.0L2.5,-0.5"/>
                </g>
                <g id="arrowLeft" xlink:href="#dirArrow" transform="rotate(270) translate(-36 17)" onmousedown="handlePan(-1,0)">
                  <use xlink:href="#rim" fill="#404040">
                        <set attributeName="fill" to="#808080" begin="arrowLeft.mouseover" end="arrowLeft.mouseout"/>
                  </use>
                  <path fill="none" stroke="white" stroke-width="1.5" d="M0,-3.0v7 M-2.5,-0.5L0,-3.0L2.5,-0.5"/>
                </g>
        </g>
        <svg viewBox="0 0 15 15" width="100%" height="30px" preserveAspectRatio="xMaxYMin meet">
         <g id="arrow_out" transform="scale(0.3 0.3)">
          <a xlink:href="classast_1_1_ast_data_reader_1_1_ref_reader__inherit__graph_org.svg" target="_base">
           <rect id="button" ry="5" rx="5" y="6" x="6" height="38" width="38"
                fill="#f2f5e9" fill-opacity="0.5" stroke="#606060" stroke-width="1.0"/>
           <path id="arrow"
             d="M 11.500037,31.436501 C 11.940474,20.09759 22.043105,11.32322 32.158766,21.979434 L 37.068811,17.246167 C 37.068811,17.246167 37.088388,32 37.088388,32 L 22.160133,31.978069 C 22.160133,31.978069 26.997745,27.140456 26.997745,27.140456 C 18.528582,18.264221 13.291696,25.230495 11.500037,31.436501 z"
             style="fill:#404040;"/>
          </a>
         </g>
        </svg>
</svg>
