<?xml version="1.0" encoding="UTF-8" standalone="no"?>
<!DOCTYPE svg PUBLIC "-//W3C//DTD SVG 1.1//EN"
 "http://www.w3.org/Graphics/SVG/1.1/DTD/svg11.dtd">
<!-- Generated by graphviz version 2.47.1 (20210417.1919)
 -->
<!-- Title: AstLiteral.StringExpr Pages: 1 -->
<!--zoomable 308 -->
<svg id="main" version="1.1" xmlns="http://www.w3.org/2000/svg" xmlns:xlink="http://www.w3.org/1999/xlink" xml:space="preserve" onload="init(evt)">
<style type="text/css"><![CDATA[
.edge:hover path { stroke: red; }
.edge:hover polygon { stroke: red; fill: red; }
]]></style>
<script type="text/javascript"><![CDATA[
var edges = document.getElementsByTagName('g');
if (edges && edges.length) {
  for (var i=0;i<edges.length;i++) {
    if (edges[i].id.substr(0,4)=='edge') {
      edges[i].setAttribute('class','edge');
    }
  }
}
]]></script>
        <defs>
                <circle id="rim" cx="0" cy="0" r="7"/>
                <circle id="rim2" cx="0" cy="0" r="3.5"/>
                <g id="zoomPlus">
                        <use xlink:href="#rim" fill="#404040">
                                <set attributeName="fill" to="#808080" begin="zoomplus.mouseover" end="zoomplus.mouseout"/>
                        </use>
                        <path d="M-4,0h8M0,-4v8" fill="none" stroke="white" stroke-width="1.5" pointer-events="none"/>
                </g>
                <g id="zoomMin">
                        <use xlink:href="#rim" fill="#404040">
                                <set attributeName="fill" to="#808080" begin="zoomminus.mouseover" end="zoomminus.mouseout"/>
                        </use>
                        <path d="M-4,0h8" fill="none" stroke="white" stroke-width="1.5" pointer-events="none"/>
                </g>
                <g id="dirArrow">
                        <path fill="none" stroke="white" stroke-width="1.5" d="M0,-3.0v7 M-2.5,-0.5L0,-3.0L2.5,-0.5"/>
                </g>
               <g id="resetDef">
                       <use xlink:href="#rim2" fill="#404040">
                               <set attributeName="fill" to="#808080" begin="reset.mouseover" end="reset.mouseout"/>
                       </use>
               </g>
        </defs>

<script type="text/javascript">
var viewWidth = 553;
var viewHeight = 308;
var sectionId = 'dynsection-0';
</script>
<script xlink:href="svgpan.js"/>
<svg id="graph" class="graph">
<g id="viewport">
<title>AstLiteral.StringExpr</title>
<polygon fill="white" stroke="transparent" points="-4,4 -4,-304 549,-304 549,4 -4,4"/>
<!-- Node1 -->
<g id="node1" class="node">
<title>Node1</title>
<g id="a_node1"><a xlink:title="String値アトム">
<polygon fill="#bfbfbf" stroke="black" points="218,-56.5 218,-75.5 325,-75.5 325,-56.5 218,-56.5"/>
<text text-anchor="middle" x="271.5" y="-63.5" font-family="Helvetica,sans-Serif" font-size="10.00">AstLiteral.StringExpr</text>
</a>
</g>
</g>
<!-- Node11 -->
<g id="node11" class="node">
<title>Node11</title>
<g id="a_node11"><a xlink:href="classast_1_1_ast_literal_1_1_regex_literal.html" target="_top" xlink:title=" ">
<polygon fill="white" stroke="black" points="147.5,-0.5 147.5,-19.5 263.5,-19.5 263.5,-0.5 147.5,-0.5"/>
<text text-anchor="middle" x="205.5" y="-7.5" font-family="Helvetica,sans-Serif" font-size="10.00">AstLiteral.RegexLiteral</text>
</a>
</g>
</g>
<!-- Node1&#45;&gt;Node11 -->
<g id="edge12" class="edge">
<title>Node1&#45;&gt;Node11</title>
<path fill="none" stroke="midnightblue" d="M252.95,-49.82C241.12,-40.15 226.21,-27.95 216.3,-19.83"/>
<polygon fill="midnightblue" stroke="midnightblue" points="250.94,-52.7 260.9,-56.32 255.37,-47.28 250.94,-52.7"/>
</g>
<!-- Node12 -->
<g id="node12" class="node">
<title>Node12</title>
<g id="a_node12"><a xlink:href="classast_1_1_ast_literal_1_1_string_literal.html" target="_top" xlink:title=" ">
<polygon fill="white" stroke="black" points="282,-0.5 282,-19.5 395,-19.5 395,-0.5 282,-0.5"/>
<text text-anchor="middle" x="338.5" y="-7.5" font-family="Helvetica,sans-Serif" font-size="10.00">AstLiteral.StringLiteral</text>
</a>
</g>
</g>
<!-- Node1&#45;&gt;Node12 -->
<g id="edge13" class="edge">
<title>Node1&#45;&gt;Node12</title>
<path fill="none" stroke="midnightblue" d="M290.33,-49.82C302.34,-40.15 317.47,-27.95 327.54,-19.83"/>
<polygon fill="midnightblue" stroke="midnightblue" points="287.85,-47.32 282.26,-56.32 292.25,-52.77 287.85,-47.32"/>
</g>
<!-- Node2 -->
<g id="node2" class="node">
<title>Node2</title>
<g id="a_node2"><a xlink:href="classast_1_1_ast_literal.html" target="_top" xlink:title="値を返すことができる終端オブジェクトのクラス">
<polygon fill="white" stroke="black" points="242.5,-112.5 242.5,-131.5 300.5,-131.5 300.5,-112.5 242.5,-112.5"/>
<text text-anchor="middle" x="271.5" y="-119.5" font-family="Helvetica,sans-Serif" font-size="10.00">AstLiteral</text>
</a>
</g>
</g>
<!-- Node2&#45;&gt;Node1 -->
<g id="edge1" class="edge">
<title>Node2&#45;&gt;Node1</title>
<path fill="none" stroke="midnightblue" d="M271.5,-101.8C271.5,-92.91 271.5,-82.78 271.5,-75.75"/>
<polygon fill="midnightblue" stroke="midnightblue" points="268,-102.08 271.5,-112.08 275,-102.08 268,-102.08"/>
</g>
<!-- Node3 -->
<g id="node3" class="node">
<title>Node3</title>
<g id="a_node3"><a xlink:href="classast_1_1_ast_node.html" target="_top" xlink:title="タグなしの順アクセスの子供をもてる抽象構文木のノードのクラス。">
<polygon fill="white" stroke="black" points="191,-168.5 191,-187.5 246,-187.5 246,-168.5 191,-168.5"/>
<text text-anchor="middle" x="218.5" y="-175.5" font-family="Helvetica,sans-Serif" font-size="10.00">AstNode</text>
</a>
</g>
</g>
<!-- Node3&#45;&gt;Node2 -->
<g id="edge2" class="edge">
<title>Node3&#45;&gt;Node2</title>
<path fill="none" stroke="midnightblue" d="M234.48,-160.72C243.82,-151.2 255.25,-139.56 262.91,-131.75"/>
<polygon fill="midnightblue" stroke="midnightblue" points="231.76,-158.49 227.25,-168.08 236.75,-163.4 231.76,-158.49"/>
</g>
<!-- Node4 -->
<g id="node4" class="node">
<title>Node4</title>
<g id="a_node4"><a xlink:href="classast_1_1_ast_node_base.html" target="_top" xlink:title=" ">
<polygon fill="white" stroke="black" points="0,-224.5 0,-243.5 77,-243.5 77,-224.5 0,-224.5"/>
<text text-anchor="middle" x="38.5" y="-231.5" font-family="Helvetica,sans-Serif" font-size="10.00">AstNodeBase</text>
</a>
</g>
</g>
<!-- Node4&#45;&gt;Node3 -->
<g id="edge3" class="edge">
<title>Node4&#45;&gt;Node3</title>
<path fill="none" stroke="midnightblue" d="M76.7,-221.54C110.98,-211.26 160.46,-196.41 191,-187.25"/>
<polygon fill="midnightblue" stroke="midnightblue" points="75.59,-218.22 67.02,-224.44 77.61,-224.92 75.59,-218.22"/>
</g>
<!-- Node5 -->
<g id="node5" class="node">
<title>Node5</title>
<g id="a_node5"><a xlink:href="interfaceast_1_1_node.html" target="_top" xlink:title=" ">
<polygon fill="white" stroke="black" points="95.5,-224.5 95.5,-243.5 135.5,-243.5 135.5,-224.5 95.5,-224.5"/>
<text text-anchor="middle" x="115.5" y="-231.5" font-family="Helvetica,sans-Serif" font-size="10.00">Node</text>
</a>
</g>
</g>
<!-- Node5&#45;&gt;Node3 -->
<g id="edge4" class="edge">
<title>Node5&#45;&gt;Node3</title>
<path fill="none" stroke="midnightblue" d="M141.08,-219.59C160.12,-209.61 185.56,-196.27 201.99,-187.65"/>
<polygon fill="midnightblue" stroke="midnightblue" points="139.28,-216.58 132.05,-224.32 142.53,-222.78 139.28,-216.58"/>
</g>
<!-- Node6 -->
<g id="node6" class="node">
<title>Node6</title>
<g id="a_node6"><a xlink:href="interfaceformat_1_1_x_formattable.html" target="_top" xlink:title="入れ子フォーマット出力可能なオブジェクトのインタフェース。">
<polygon fill="white" stroke="black" points="181,-280.5 181,-299.5 256,-299.5 256,-280.5 181,-280.5"/>
<text text-anchor="middle" x="218.5" y="-287.5" font-family="Helvetica,sans-Serif" font-size="10.00">XFormattable</text>
</a>
</g>
</g>
<!-- Node6&#45;&gt;Node5 -->
<g id="edge5" class="edge">
<title>Node6&#45;&gt;Node5</title>
<path fill="none" stroke="midnightblue" d="M192.92,-275.59C173.88,-265.61 148.44,-252.27 132.01,-243.65"/>
<polygon fill="midnightblue" stroke="midnightblue" points="191.47,-278.78 201.95,-280.32 194.72,-272.58 191.47,-278.78"/>
</g>
<!-- Node7 -->
<g id="node7" class="node">
<title>Node7</title>
<g id="a_node7"><a xlink:href="interfaceformat_1_1_x_formattable_1_1_navigatable.html" target="_top" xlink:title="木構造の分岐ノードとして清書可能なオブジェクトのクラス">
<polygon fill="white" stroke="black" points="153.5,-224.5 153.5,-243.5 283.5,-243.5 283.5,-224.5 153.5,-224.5"/>
<text text-anchor="middle" x="218.5" y="-231.5" font-family="Helvetica,sans-Serif" font-size="10.00">XFormattable.Navigatable</text>
</a>
</g>
</g>
<!-- Node6&#45;&gt;Node7 -->
<g id="edge7" class="edge">
<title>Node6&#45;&gt;Node7</title>
<path fill="none" stroke="midnightblue" d="M218.5,-269.8C218.5,-260.91 218.5,-250.78 218.5,-243.75"/>
<polygon fill="midnightblue" stroke="midnightblue" points="215,-270.08 218.5,-280.08 222,-270.08 215,-270.08"/>
</g>
<!-- Node8 -->
<g id="node8" class="node">
<title>Node8</title>
<g id="a_node8"><a xlink:href="interfaceformat_1_1_x_formattable_1_1_typed_formattable.html" target="_top" xlink:title="ノードの型情報をもつ書式出力可能なオブジェクトのインタフェース．">
<polygon fill="white" stroke="black" points="301.5,-224.5 301.5,-243.5 457.5,-243.5 457.5,-224.5 301.5,-224.5"/>
<text text-anchor="middle" x="379.5" y="-231.5" font-family="Helvetica,sans-Serif" font-size="10.00">XFormattable.TypedFormattable</text>
</a>
</g>
</g>
<!-- Node6&#45;&gt;Node8 -->
<g id="edge9" class="edge">
<title>Node6&#45;&gt;Node8</title>
<path fill="none" stroke="midnightblue" d="M253.76,-277.17C284.08,-267 327.07,-252.59 354.11,-243.52"/>
<polygon fill="midnightblue" stroke="midnightblue" points="252.38,-273.95 244.01,-280.44 254.6,-280.58 252.38,-273.95"/>
</g>
<!-- Node7&#45;&gt;Node3 -->
<g id="edge6" class="edge">
<title>Node7&#45;&gt;Node3</title>
<path fill="none" stroke="midnightblue" d="M218.5,-213.8C218.5,-204.91 218.5,-194.78 218.5,-187.75"/>
<polygon fill="midnightblue" stroke="midnightblue" points="215,-214.08 218.5,-224.08 222,-214.08 215,-214.08"/>
</g>
<!-- Node8&#45;&gt;Node3 -->
<g id="edge8" class="edge">
<title>Node8&#45;&gt;Node3</title>
<path fill="none" stroke="midnightblue" d="M344.24,-221.17C313.92,-211 270.93,-196.59 243.89,-187.52"/>
<polygon fill="midnightblue" stroke="midnightblue" points="343.4,-224.58 353.99,-224.44 345.62,-217.95 343.4,-224.58"/>
</g>
<!-- Node9 -->
<g id="node9" class="node">
<title>Node9</title>
<g id="a_node9"><a xlink:href="interfacecmd_1_1_generatable_1_1_evaluatable.html" target="_top" xlink:title="評価して値を返すノードのインタフェース．必ずしもコードを生成しなくても良い．">
<polygon fill="white" stroke="black" points="356,-168.5 356,-187.5 479,-187.5 479,-168.5 356,-168.5"/>
<text text-anchor="middle" x="417.5" y="-175.5" font-family="Helvetica,sans-Serif" font-size="10.00">Generatable.Evaluatable</text>
</a>
</g>
</g>
<!-- Node9&#45;&gt;Node2 -->
<g id="edge10" class="edge">
<title>Node9&#45;&gt;Node2</title>
<path fill="none" stroke="midnightblue" d="M384.8,-164.91C357.35,-154.75 318.83,-140.51 294.53,-131.52"/>
<polygon fill="midnightblue" stroke="midnightblue" points="383.77,-168.26 394.37,-168.44 386.2,-161.69 383.77,-168.26"/>
</g>
<!-- Node10 -->
<g id="node10" class="node">
<title>Node10</title>
<g id="a_node10"><a xlink:href="interfacecmd_1_1_generatable.html" target="_top" xlink:title="変換してコードを生成できるノードのインタフェース.">
<polygon fill="white" stroke="black" points="476,-224.5 476,-243.5 545,-243.5 545,-224.5 476,-224.5"/>
<text text-anchor="middle" x="510.5" y="-231.5" font-family="Helvetica,sans-Serif" font-size="10.00">Generatable</text>
</a>
</g>
</g>
<!-- Node10&#45;&gt;Node9 -->
<g id="edge11" class="edge">
<title>Node10&#45;&gt;Node9</title>
<path fill="none" stroke="midnightblue" d="M486.69,-219.18C469.58,-209.24 447.03,-196.15 432.4,-187.65"/>
<polygon fill="midnightblue" stroke="midnightblue" points="485.15,-222.33 495.56,-224.32 488.67,-216.28 485.15,-222.33"/>
</g>
</g>
</svg>
        <g id="navigator" transform="translate(0 0)" fill="#404254">
                <rect fill="#f2f5e9" fill-opacity="0.5" stroke="#606060" stroke-width=".5" x="0" y="0" width="60" height="60"/>
                <use id="zoomplus" xlink:href="#zoomPlus" x="17" y="9" onmousedown="handleZoom(evt,'in')"/>
                <use id="zoomminus" xlink:href="#zoomMin" x="42" y="9" onmousedown="handleZoom(evt,'out')"/>
                <use id="reset" xlink:href="#resetDef" x="30" y="36" onmousedown="handleReset()"/>
                <g id="arrowUp" xlink:href="#dirArrow" transform="translate(30 24)" onmousedown="handlePan(0,-1)">
                  <use xlink:href="#rim" fill="#404040">
                        <set attributeName="fill" to="#808080" begin="arrowUp.mouseover" end="arrowUp.mouseout"/>
                  </use>
                  <path fill="none" stroke="white" stroke-width="1.5" d="M0,-3.0v7 M-2.5,-0.5L0,-3.0L2.5,-0.5"/>
                </g>
                <g id="arrowRight" xlink:href="#dirArrow" transform="rotate(90) translate(36 -43)" onmousedown="handlePan(1,0)">
                  <use xlink:href="#rim" fill="#404040">
                        <set attributeName="fill" to="#808080" begin="arrowRight.mouseover" end="arrowRight.mouseout"/>
                  </use>
                  <path fill="none" stroke="white" stroke-width="1.5" d="M0,-3.0v7 M-2.5,-0.5L0,-3.0L2.5,-0.5"/>
                </g>
                <g id="arrowDown" xlink:href="#dirArrow" transform="rotate(180) translate(-30 -48)" onmousedown="handlePan(0,1)">
                  <use xlink:href="#rim" fill="#404040">
                        <set attributeName="fill" to="#808080" begin="arrowDown.mouseover" end="arrowDown.mouseout"/>
                  </use>
                  <path fill="none" stroke="white" stroke-width="1.5" d="M0,-3.0v7 M-2.5,-0.5L0,-3.0L2.5,-0.5"/>
                </g>
                <g id="arrowLeft" xlink:href="#dirArrow" transform="rotate(270) translate(-36 17)" onmousedown="handlePan(-1,0)">
                  <use xlink:href="#rim" fill="#404040">
                        <set attributeName="fill" to="#808080" begin="arrowLeft.mouseover" end="arrowLeft.mouseout"/>
                  </use>
                  <path fill="none" stroke="white" stroke-width="1.5" d="M0,-3.0v7 M-2.5,-0.5L0,-3.0L2.5,-0.5"/>
                </g>
        </g>
        <svg viewBox="0 0 15 15" width="100%" height="30px" preserveAspectRatio="xMaxYMin meet">
         <g id="arrow_out" transform="scale(0.3 0.3)">
          <a xlink:href="classast_1_1_ast_literal_1_1_string_expr__inherit__graph_org.svg" target="_base">
           <rect id="button" ry="5" rx="5" y="6" x="6" height="38" width="38"
                fill="#f2f5e9" fill-opacity="0.5" stroke="#606060" stroke-width="1.0"/>
           <path id="arrow"
             d="M 11.500037,31.436501 C 11.940474,20.09759 22.043105,11.32322 32.158766,21.979434 L 37.068811,17.246167 C 37.068811,17.246167 37.088388,32 37.088388,32 L 22.160133,31.978069 C 22.160133,31.978069 26.997745,27.140456 26.997745,27.140456 C 18.528582,18.264221 13.291696,25.230495 11.500037,31.436501 z"
             style="fill:#404040;"/>
          </a>
         </g>
        </svg>
</svg>
