<?xml version="1.0" encoding="UTF-8" standalone="no"?>
<!DOCTYPE svg PUBLIC "-//W3C//DTD SVG 1.1//EN"
 "http://www.w3.org/Graphics/SVG/1.1/DTD/svg11.dtd">
<!-- Generated by graphviz version 2.47.0 (20210316.0004)
 -->
<!-- Title: AstVarDecl Pages: 1 -->
<svg width="963pt" height="296pt"
 viewBox="0.00 0.00 963.03 296.00" xmlns="http://www.w3.org/2000/svg" xmlns:xlink="http://www.w3.org/1999/xlink">
<g id="graph0" class="graph" transform="scale(1 1) rotate(0) translate(4 292)">
<title>AstVarDecl</title>
<polygon fill="white" stroke="transparent" points="-4,4 -4,-292 959.03,-292 959.03,4 -4,4"/>
<!-- Node1 -->
<g id="node1" class="node">
<title>Node1</title>
<g id="a_node1"><a xlink:title="値の読み出しオブジェクト．">
<polygon fill="#bfbfbf" stroke="black" points="568.03,-0.5 568.03,-19.5 634.03,-19.5 634.03,-0.5 568.03,-0.5"/>
<text text-anchor="middle" x="601.03" y="-7.5" font-family="Helvetica,sans-Serif" font-size="10.00">AstVarDecl</text>
</a>
</g>
</g>
<!-- Node2 -->
<g id="node2" class="node">
<title>Node2</title>
<g id="a_node2"><a xlink:href="classast_1_1_ast_node.html" target="_top" xlink:title="タグなしの順アクセスの子供をもてる抽象構文木のノードのクラス。">
<polygon fill="white" stroke="black" points="573.53,-57.5 573.53,-76.5 628.53,-76.5 628.53,-57.5 573.53,-57.5"/>
<text text-anchor="middle" x="601.03" y="-64.5" font-family="Helvetica,sans-Serif" font-size="10.00">AstNode</text>
</a>
</g>
</g>
<!-- Node2&#45;&gt;Node1 -->
<g id="edge1" class="edge">
<title>Node2&#45;&gt;Node1</title>
<path fill="none" stroke="midnightblue" d="M601.03,-47.12C601.03,-37.82 601.03,-27.06 601.03,-19.71"/>
<polygon fill="midnightblue" stroke="midnightblue" points="597.53,-47.41 601.03,-57.41 604.53,-47.41 597.53,-47.41"/>
</g>
<!-- Node3 -->
<g id="node3" class="node">
<title>Node3</title>
<g id="a_node3"><a xlink:href="classast_1_1_ast_node_base.html" target="_top" xlink:title=" ">
<polygon fill="white" stroke="black" points="427.53,-124.5 427.53,-143.5 504.53,-143.5 504.53,-124.5 427.53,-124.5"/>
<text text-anchor="middle" x="466.03" y="-131.5" font-family="Helvetica,sans-Serif" font-size="10.00">AstNodeBase</text>
</a>
</g>
</g>
<!-- Node3&#45;&gt;Node2 -->
<g id="edge2" class="edge">
<title>Node3&#45;&gt;Node2</title>
<path fill="none" stroke="midnightblue" d="M493.14,-119.94C519.88,-107.07 559.99,-87.76 583.03,-76.67"/>
<polygon fill="midnightblue" stroke="midnightblue" points="491.44,-116.88 483.95,-124.37 494.48,-123.18 491.44,-116.88"/>
</g>
<!-- Node4 -->
<g id="node4" class="node">
<title>Node4</title>
<g id="a_node4"><a xlink:title=" ">
<polygon fill="white" stroke="#bfbfbf" points="11.03,-268.5 11.03,-287.5 53.03,-287.5 53.03,-268.5 11.03,-268.5"/>
<text text-anchor="middle" x="32.03" y="-275.5" font-family="Helvetica,sans-Serif" font-size="10.00">String</text>
</a>
</g>
</g>
<!-- Node4&#45;&gt;Node1 -->
<g id="edge21" class="edge">
<title>Node4&#45;&gt;Node1</title>
<path fill="none" stroke="#9a32cd" stroke-dasharray="5,2" d="M18.43,-259.74C16.62,-256.65 15.04,-253.34 14.03,-250 2.69,-212.57 -9.94,-192.91 14.03,-162 83.74,-72.08 454.54,-26.33 568.01,-14.29"/>
<polygon fill="#9a32cd" stroke="#9a32cd" points="15.68,-261.93 24.22,-268.2 21.46,-257.97 15.68,-261.93"/>
<text text-anchor="middle" x="147.03" y="-98" font-family="Helvetica,sans-Serif" font-size="10.00"> name</text>
</g>
<!-- Node4&#45;&gt;Node3 -->
<g id="edge3" class="edge">
<title>Node4&#45;&gt;Node3</title>
<path fill="none" stroke="#9a32cd" stroke-dasharray="5,2" d="M62.28,-266.54C70.56,-262.46 78.93,-257.03 85.03,-250 112.09,-218.77 82.37,-187.32 115.03,-162 127.22,-152.54 338.71,-141.2 427.39,-136.84"/>
<polygon fill="#9a32cd" stroke="#9a32cd" points="60.82,-263.35 53.08,-270.59 63.64,-269.76 60.82,-263.35"/>
<text text-anchor="middle" x="141.03" y="-209" font-family="Helvetica,sans-Serif" font-size="10.00"> MOD_AST</text>
<text text-anchor="middle" x="141.03" y="-198" font-family="Helvetica,sans-Serif" font-size="10.00">mod_</text>
</g>
<!-- Node15 -->
<g id="node15" class="node">
<title>Node15</title>
<g id="a_node15"><a xlink:href="classformat_1_1_style.html" target="_top" xlink:title="ノードの表示スタイルに関するプロパティのクラス.">
<polygon fill="white" stroke="black" points="225.53,-124.5 225.53,-143.5 264.53,-143.5 264.53,-124.5 225.53,-124.5"/>
<text text-anchor="middle" x="245.03" y="-131.5" font-family="Helvetica,sans-Serif" font-size="10.00">Style</text>
</a>
</g>
</g>
<!-- Node4&#45;&gt;Node15 -->
<g id="edge17" class="edge">
<title>Node4&#45;&gt;Node15</title>
<path fill="none" stroke="#9a32cd" stroke-dasharray="5,2" d="M25.64,-258.75C18.13,-233.64 9.46,-188.52 33.03,-162 58.16,-133.71 177.86,-133.36 225.45,-134.39"/>
<polygon fill="#9a32cd" stroke="#9a32cd" points="22.37,-260.03 28.78,-268.46 29.03,-257.87 22.37,-260.03"/>
<text text-anchor="middle" x="59.03" y="-242" font-family="Helvetica,sans-Serif" font-size="10.00"> childLPAD</text>
<text text-anchor="middle" x="59.03" y="-231" font-family="Helvetica,sans-Serif" font-size="10.00">childRPAD</text>
<text text-anchor="middle" x="59.03" y="-220" font-family="Helvetica,sans-Serif" font-size="10.00">name</text>
<text text-anchor="middle" x="59.03" y="-209" font-family="Helvetica,sans-Serif" font-size="10.00">operSTR</text>
<text text-anchor="middle" x="59.03" y="-198" font-family="Helvetica,sans-Serif" font-size="10.00">parenLPAD</text>
<text text-anchor="middle" x="59.03" y="-187" font-family="Helvetica,sans-Serif" font-size="10.00">parenLPAR</text>
<text text-anchor="middle" x="59.03" y="-176" font-family="Helvetica,sans-Serif" font-size="10.00">parenRPAD</text>
<text text-anchor="middle" x="59.03" y="-165" font-family="Helvetica,sans-Serif" font-size="10.00">parenRPAR</text>
</g>
<!-- Node5 -->
<g id="node5" class="node">
<title>Node5</title>
<g id="a_node5"><a xlink:title=" ">
<polygon fill="white" stroke="#bfbfbf" points="489.53,-268.5 489.53,-287.5 554.53,-287.5 554.53,-268.5 489.53,-268.5"/>
<text text-anchor="middle" x="522.03" y="-275.5" font-family="Helvetica,sans-Serif" font-size="10.00">TraceLevel</text>
</a>
</g>
</g>
<!-- Node5&#45;&gt;Node3 -->
<g id="edge4" class="edge">
<title>Node5&#45;&gt;Node3</title>
<path fill="none" stroke="#9a32cd" stroke-dasharray="5,2" d="M535.63,-259.74C537.44,-256.65 539.01,-253.34 540.03,-250 551.36,-212.57 562.45,-194.05 540.03,-162 535.17,-155.05 517.65,-148.5 500.88,-143.59"/>
<polygon fill="#9a32cd" stroke="#9a32cd" points="532.6,-257.97 529.83,-268.2 538.37,-261.93 532.6,-257.97"/>
<text text-anchor="middle" x="565.03" y="-203.5" font-family="Helvetica,sans-Serif" font-size="10.00"> LOG</text>
</g>
<!-- Node6 -->
<g id="node6" class="node">
<title>Node6</title>
<g id="a_node6"><a xlink:title=" ">
<polygon fill="white" stroke="#bfbfbf" points="572.53,-268.5 572.53,-287.5 645.53,-287.5 645.53,-268.5 572.53,-268.5"/>
<text text-anchor="middle" x="609.03" y="-275.5" font-family="Helvetica,sans-Serif" font-size="10.00">static Report</text>
</a>
</g>
</g>
<!-- Node6&#45;&gt;Node3 -->
<g id="edge5" class="edge">
<title>Node6&#45;&gt;Node3</title>
<path fill="none" stroke="#9a32cd" stroke-dasharray="5,2" d="M610.05,-258.18C610.35,-232.73 606.84,-187.6 581.03,-162 578.21,-159.21 536.91,-149.95 504.6,-143.05"/>
<polygon fill="#9a32cd" stroke="#9a32cd" points="606.55,-258.24 609.71,-268.35 613.54,-258.47 606.55,-258.24"/>
<text text-anchor="middle" x="621.03" y="-203.5" font-family="Helvetica,sans-Serif" font-size="10.00"> repo</text>
</g>
<!-- Node7 -->
<g id="node7" class="node">
<title>Node7</title>
<g id="a_node7"><a xlink:title=" ">
<polygon fill="white" stroke="#bfbfbf" points="188.53,-268.5 188.53,-287.5 217.53,-287.5 217.53,-268.5 188.53,-268.5"/>
<text text-anchor="middle" x="203.03" y="-275.5" font-family="Helvetica,sans-Serif" font-size="10.00">int</text>
</a>
</g>
</g>
<!-- Node7&#45;&gt;Node3 -->
<g id="edge6" class="edge">
<title>Node7&#45;&gt;Node3</title>
<path fill="none" stroke="#9a32cd" stroke-dasharray="5,2" d="M203.47,-258.11C204.59,-228.91 208.48,-174.84 222.03,-162 236.62,-148.16 362.34,-140.05 427.38,-136.75"/>
<polygon fill="#9a32cd" stroke="#9a32cd" points="199.97,-258.16 203.16,-268.27 206.97,-258.38 199.97,-258.16"/>
<text text-anchor="middle" x="283.53" y="-209" font-family="Helvetica,sans-Serif" font-size="10.00"> BITMASK_PRINT_WIDTH</text>
<text text-anchor="middle" x="283.53" y="-198" font-family="Helvetica,sans-Serif" font-size="10.00">UNDEF</text>
</g>
<!-- Node7&#45;&gt;Node15 -->
<g id="edge18" class="edge">
<title>Node7&#45;&gt;Node15</title>
<path fill="none" stroke="#9a32cd" stroke-dasharray="5,2" d="M188.12,-260.19C186.03,-257 184.2,-253.54 183.03,-250 170.77,-212.86 161.59,-194.71 183.03,-162 192.36,-147.76 211.01,-140.99 225.43,-137.8"/>
<polygon fill="#9a32cd" stroke="#9a32cd" points="185.51,-262.54 194.37,-268.35 191.06,-258.28 185.51,-262.54"/>
<text text-anchor="middle" x="193.03" y="-203.5" font-family="Helvetica,sans-Serif" font-size="10.00"> pref</text>
</g>
<!-- Node8 -->
<g id="node8" class="node">
<title>Node8</title>
<g id="a_node8"><a xlink:href="interfacetype_1_1_typable.html" target="_top" xlink:title="抽象ノードがもつ関数型のインタフェース">
<polygon fill="white" stroke="black" points="664.03,-268.5 664.03,-287.5 714.03,-287.5 714.03,-268.5 664.03,-268.5"/>
<text text-anchor="middle" x="689.03" y="-275.5" font-family="Helvetica,sans-Serif" font-size="10.00">Typable</text>
</a>
</g>
</g>
<!-- Node8&#45;&gt;Node3 -->
<g id="edge7" class="edge">
<title>Node8&#45;&gt;Node3</title>
<path fill="none" stroke="#9a32cd" stroke-dasharray="5,2" d="M686.04,-258.26C680.82,-232.19 667.45,-185.53 636.03,-162 614.09,-145.57 541.05,-148.53 514.03,-144 511.02,-143.5 507.9,-142.96 504.78,-142.4"/>
<polygon fill="#9a32cd" stroke="#9a32cd" points="682.64,-259.12 687.85,-268.34 689.53,-257.88 682.64,-259.12"/>
<text text-anchor="middle" x="698.03" y="-203.5" font-family="Helvetica,sans-Serif" font-size="10.00"> typing</text>
</g>
<!-- Node9 -->
<g id="node9" class="node">
<title>Node9</title>
<g id="a_node9"><a xlink:title=" ">
<polygon fill="white" stroke="#bfbfbf" points="383.03,-268.5 383.03,-287.5 433.03,-287.5 433.03,-268.5 383.03,-268.5"/>
<text text-anchor="middle" x="408.03" y="-275.5" font-family="Helvetica,sans-Serif" font-size="10.00">boolean</text>
</a>
</g>
</g>
<!-- Node9&#45;&gt;Node3 -->
<g id="edge8" class="edge">
<title>Node9&#45;&gt;Node3</title>
<path fill="none" stroke="#9a32cd" stroke-dasharray="5,2" d="M432.93,-262.22C437.19,-258.7 441.15,-254.6 444.03,-250 449.71,-240.9 460.97,-168.68 464.75,-143.57"/>
<polygon fill="#9a32cd" stroke="#9a32cd" points="430.64,-259.56 424.61,-268.27 434.76,-265.22 430.64,-259.56"/>
<text text-anchor="middle" x="498.53" y="-203.5" font-family="Helvetica,sans-Serif" font-size="10.00"> DEBUG_REPO</text>
</g>
<!-- Node9&#45;&gt;Node15 -->
<g id="edge19" class="edge">
<title>Node9&#45;&gt;Node15</title>
<path fill="none" stroke="#9a32cd" stroke-dasharray="5,2" d="M380.57,-262.64C375.79,-259.08 371.31,-254.86 368.03,-250 345.6,-216.86 376.73,-190.87 349.03,-162 327.07,-139.12 288.41,-134.72 264.92,-134.35"/>
<polygon fill="#9a32cd" stroke="#9a32cd" points="379,-265.81 389.29,-268.36 382.84,-259.95 379,-265.81"/>
<text text-anchor="middle" x="404.03" y="-209" font-family="Helvetica,sans-Serif" font-size="10.00"> preoperSupress</text>
<text text-anchor="middle" x="404.03" y="-198" font-family="Helvetica,sans-Serif" font-size="10.00">toInline</text>
</g>
<!-- Node10 -->
<g id="node10" class="node">
<title>Node10</title>
<g id="a_node10"><a xlink:href="interfaceast_1_1_node.html" target="_top" xlink:title=" ">
<polygon fill="white" stroke="black" points="697.03,-124.5 697.03,-143.5 737.03,-143.5 737.03,-124.5 697.03,-124.5"/>
<text text-anchor="middle" x="717.03" y="-131.5" font-family="Helvetica,sans-Serif" font-size="10.00">Node</text>
</a>
</g>
</g>
<!-- Node10&#45;&gt;Node2 -->
<g id="edge9" class="edge">
<title>Node10&#45;&gt;Node2</title>
<path fill="none" stroke="midnightblue" d="M692.55,-119.29C669.56,-106.4 635.87,-87.52 616.42,-76.63"/>
<polygon fill="midnightblue" stroke="midnightblue" points="690.95,-122.4 701.38,-124.23 694.37,-116.29 690.95,-122.4"/>
</g>
<!-- Node11 -->
<g id="node11" class="node">
<title>Node11</title>
<g id="a_node11"><a xlink:href="interfaceformat_1_1_x_formattable.html" target="_top" xlink:title="入れ子フォーマット出力可能なオブジェクトのインタフェース。">
<polygon fill="white" stroke="black" points="732.53,-268.5 732.53,-287.5 807.53,-287.5 807.53,-268.5 732.53,-268.5"/>
<text text-anchor="middle" x="770.03" y="-275.5" font-family="Helvetica,sans-Serif" font-size="10.00">XFormattable</text>
</a>
</g>
</g>
<!-- Node11&#45;&gt;Node10 -->
<g id="edge10" class="edge">
<title>Node11&#45;&gt;Node10</title>
<path fill="none" stroke="midnightblue" d="M770.93,-257.98C771.2,-233.96 768.75,-192.13 751.03,-162 746.59,-154.46 739.2,-148.21 732.43,-143.63"/>
<polygon fill="midnightblue" stroke="midnightblue" points="767.42,-258.11 770.63,-268.21 774.42,-258.32 767.42,-258.11"/>
</g>
<!-- Node12 -->
<g id="node12" class="node">
<title>Node12</title>
<g id="a_node12"><a xlink:href="interfaceformat_1_1_x_formattable_1_1_navigatable.html" target="_top" xlink:title="木構造の分岐ノードとして清書可能なオブジェクトのクラス">
<polygon fill="white" stroke="black" points="755.03,-124.5 755.03,-143.5 885.03,-143.5 885.03,-124.5 755.03,-124.5"/>
<text text-anchor="middle" x="820.03" y="-131.5" font-family="Helvetica,sans-Serif" font-size="10.00">XFormattable.Navigatable</text>
</a>
</g>
</g>
<!-- Node11&#45;&gt;Node12 -->
<g id="edge12" class="edge">
<title>Node11&#45;&gt;Node12</title>
<path fill="none" stroke="midnightblue" d="M776.53,-258.52C787.47,-227.47 809.1,-166.02 817.03,-143.52"/>
<polygon fill="midnightblue" stroke="midnightblue" points="773.17,-257.52 773.15,-268.12 779.78,-259.85 773.17,-257.52"/>
</g>
<!-- Node13 -->
<g id="node13" class="node">
<title>Node13</title>
<g id="a_node13"><a xlink:href="interfaceformat_1_1_x_formattable_1_1_typed_formattable.html" target="_top" xlink:title="ノードの型情報をもつ書式出力可能なオブジェクトのインタフェース．">
<polygon fill="white" stroke="black" points="523.03,-124.5 523.03,-143.5 679.03,-143.5 679.03,-124.5 523.03,-124.5"/>
<text text-anchor="middle" x="601.03" y="-131.5" font-family="Helvetica,sans-Serif" font-size="10.00">XFormattable.TypedFormattable</text>
</a>
</g>
</g>
<!-- Node11&#45;&gt;Node13 -->
<g id="edge14" class="edge">
<title>Node11&#45;&gt;Node13</title>
<path fill="none" stroke="midnightblue" d="M756.94,-260.06C754.79,-256.82 752.71,-253.39 751.03,-250 732.78,-213.23 753.33,-189.68 723.03,-162 714.26,-153.99 690.67,-147.89 666.54,-143.54"/>
<polygon fill="midnightblue" stroke="midnightblue" points="754.29,-262.36 762.97,-268.43 759.97,-258.27 754.29,-262.36"/>
</g>
<!-- Node12&#45;&gt;Node2 -->
<g id="edge11" class="edge">
<title>Node12&#45;&gt;Node2</title>
<path fill="none" stroke="midnightblue" d="M781.23,-121.49C737.49,-108.5 667.46,-87.72 628.84,-76.26"/>
<polygon fill="midnightblue" stroke="midnightblue" points="780.36,-124.88 790.94,-124.37 782.35,-118.17 780.36,-124.88"/>
</g>
<!-- Node13&#45;&gt;Node2 -->
<g id="edge13" class="edge">
<title>Node13&#45;&gt;Node2</title>
<path fill="none" stroke="midnightblue" d="M601.03,-114.04C601.03,-101.67 601.03,-86.12 601.03,-76.63"/>
<polygon fill="midnightblue" stroke="midnightblue" points="597.53,-114.23 601.03,-124.23 604.53,-114.23 597.53,-114.23"/>
</g>
<!-- Node14 -->
<g id="node14" class="node">
<title>Node14</title>
<g id="a_node14"><a xlink:title=" ">
<polygon fill="white" stroke="#bfbfbf" points="903.03,-124.5 903.03,-143.5 955.03,-143.5 955.03,-124.5 903.03,-124.5"/>
<text text-anchor="middle" x="929.03" y="-131.5" font-family="Helvetica,sans-Serif" font-size="10.00">Boolean</text>
</a>
</g>
</g>
<!-- Node14&#45;&gt;Node2 -->
<g id="edge15" class="edge">
<title>Node14&#45;&gt;Node2</title>
<path fill="none" stroke="#9a32cd" stroke-dasharray="5,2" d="M892.92,-123.88C779.35,-99.23 748.07,-100.47 638.03,-77 635.05,-76.37 631.95,-75.67 628.87,-74.95"/>
<polygon fill="#9a32cd" stroke="#9a32cd" points="892.18,-127.3 902.7,-126.02 893.68,-120.46 892.18,-127.3"/>
<text text-anchor="middle" x="839.03" y="-98" font-family="Helvetica,sans-Serif" font-size="10.00"> DEBUG_CHILD</text>
</g>
<!-- Node15&#45;&gt;Node2 -->
<g id="edge16" class="edge">
<title>Node15&#45;&gt;Node2</title>
<path fill="none" stroke="#9a32cd" stroke-dasharray="5,2" d="M274.68,-127.59C342.41,-115.22 507.69,-85.04 573.41,-73.04"/>
<polygon fill="#9a32cd" stroke="#9a32cd" points="273.88,-124.17 264.67,-129.41 275.14,-131.06 273.88,-124.17"/>
<text text-anchor="middle" x="453.53" y="-98" font-family="Helvetica,sans-Serif" font-size="10.00"> sty</text>
</g>
<!-- Node16 -->
<g id="node16" class="node">
<title>Node16</title>
<g id="a_node16"><a xlink:href="interfacecmd_1_1_generatable.html" target="_top" xlink:title="変換してコードを生成できるノードのインタフェース.">
<polygon fill="white" stroke="black" points="646.53,-57.5 646.53,-76.5 715.53,-76.5 715.53,-57.5 646.53,-57.5"/>
<text text-anchor="middle" x="681.03" y="-64.5" font-family="Helvetica,sans-Serif" font-size="10.00">Generatable</text>
</a>
</g>
</g>
<!-- Node16&#45;&gt;Node1 -->
<g id="edge20" class="edge">
<title>Node16&#45;&gt;Node1</title>
<path fill="none" stroke="midnightblue" d="M659.99,-51.54C645.18,-41.35 625.85,-28.07 613.44,-19.53"/>
<polygon fill="midnightblue" stroke="midnightblue" points="658.3,-54.63 668.53,-57.41 662.27,-48.86 658.3,-54.63"/>
</g>
</g>
</svg>
