<?xml version="1.0" encoding="UTF-8" standalone="no"?>
<!DOCTYPE svg PUBLIC "-//W3C//DTD SVG 1.1//EN"
 "http://www.w3.org/Graphics/SVG/1.1/DTD/svg11.dtd">
<!-- Generated by graphviz version 2.47.0 (20210316.0004)
 -->
<!-- Title: AstLiteral.BooleanLiteral Pages: 1 -->
<svg width="911pt" height="363pt"
 viewBox="0.00 0.00 910.91 363.00" xmlns="http://www.w3.org/2000/svg" xmlns:xlink="http://www.w3.org/1999/xlink">
<g id="graph0" class="graph" transform="scale(1 1) rotate(0) translate(4 359)">
<title>AstLiteral.BooleanLiteral</title>
<polygon fill="white" stroke="transparent" points="-4,4 -4,-359 906.91,-359 906.91,4 -4,4"/>
<!-- Node1 -->
<g id="node1" class="node">
<title>Node1</title>
<g id="a_node1"><a xlink:title="ダミーの生成子．このクラス自身は直接生成されない．部分クラスからのみ生成される">
<polygon fill="#bfbfbf" stroke="black" points="724.91,-0.5 724.91,-19.5 846.91,-19.5 846.91,-0.5 724.91,-0.5"/>
<text text-anchor="middle" x="785.91" y="-7.5" font-family="Helvetica,sans-Serif" font-size="10.00">AstLiteral.BooleanLiteral</text>
</a>
</g>
</g>
<!-- Node2 -->
<g id="node2" class="node">
<title>Node2</title>
<g id="a_node2"><a xlink:href="classast_1_1_ast_literal.html" target="_top" xlink:title="値を返すことができる終端オブジェクトのクラス">
<polygon fill="white" stroke="black" points="577.91,-57.5 577.91,-76.5 635.91,-76.5 635.91,-57.5 577.91,-57.5"/>
<text text-anchor="middle" x="606.91" y="-64.5" font-family="Helvetica,sans-Serif" font-size="10.00">AstLiteral</text>
</a>
</g>
</g>
<!-- Node2&#45;&gt;Node1 -->
<g id="edge1" class="edge">
<title>Node2&#45;&gt;Node1</title>
<path fill="none" stroke="midnightblue" d="M644.45,-54.46C678.4,-44.03 727.61,-28.91 758.13,-19.53"/>
<polygon fill="midnightblue" stroke="midnightblue" points="643.41,-51.12 634.88,-57.41 645.46,-57.81 643.41,-51.12"/>
</g>
<!-- Node3 -->
<g id="node3" class="node">
<title>Node3</title>
<g id="a_node3"><a xlink:href="classast_1_1_ast_node.html" target="_top" xlink:title="タグなしの順アクセスの子供をもてる抽象構文木のノードのクラス。">
<polygon fill="white" stroke="black" points="579.41,-124.5 579.41,-143.5 634.41,-143.5 634.41,-124.5 579.41,-124.5"/>
<text text-anchor="middle" x="606.91" y="-131.5" font-family="Helvetica,sans-Serif" font-size="10.00">AstNode</text>
</a>
</g>
</g>
<!-- Node3&#45;&gt;Node2 -->
<g id="edge2" class="edge">
<title>Node3&#45;&gt;Node2</title>
<path fill="none" stroke="midnightblue" d="M606.91,-114.04C606.91,-101.67 606.91,-86.12 606.91,-76.63"/>
<polygon fill="midnightblue" stroke="midnightblue" points="603.41,-114.23 606.91,-124.23 610.41,-114.23 603.41,-114.23"/>
</g>
<!-- Node4 -->
<g id="node4" class="node">
<title>Node4</title>
<g id="a_node4"><a xlink:href="classast_1_1_ast_node_base.html" target="_top" xlink:title=" ">
<polygon fill="white" stroke="black" points="433.41,-191.5 433.41,-210.5 510.41,-210.5 510.41,-191.5 433.41,-191.5"/>
<text text-anchor="middle" x="471.91" y="-198.5" font-family="Helvetica,sans-Serif" font-size="10.00">AstNodeBase</text>
</a>
</g>
</g>
<!-- Node4&#45;&gt;Node3 -->
<g id="edge3" class="edge">
<title>Node4&#45;&gt;Node3</title>
<path fill="none" stroke="midnightblue" d="M499.02,-186.94C525.76,-174.07 565.87,-154.76 588.91,-143.67"/>
<polygon fill="midnightblue" stroke="midnightblue" points="497.33,-183.88 489.83,-191.37 500.36,-190.18 497.33,-183.88"/>
</g>
<!-- Node5 -->
<g id="node5" class="node">
<title>Node5</title>
<g id="a_node5"><a xlink:title=" ">
<polygon fill="white" stroke="#bfbfbf" points="496.91,-335.5 496.91,-354.5 538.91,-354.5 538.91,-335.5 496.91,-335.5"/>
<text text-anchor="middle" x="517.91" y="-342.5" font-family="Helvetica,sans-Serif" font-size="10.00">String</text>
</a>
</g>
</g>
<!-- Node5&#45;&gt;Node4 -->
<g id="edge4" class="edge">
<title>Node5&#45;&gt;Node4</title>
<path fill="none" stroke="#9a32cd" stroke-dasharray="5,2" d="M517.06,-325.46C515.36,-301.94 510.25,-260.65 494.91,-229 491.58,-222.13 486.08,-215.58 481.29,-210.65"/>
<polygon fill="#9a32cd" stroke="#9a32cd" points="513.57,-325.68 517.65,-335.46 520.55,-325.27 513.57,-325.68"/>
<text text-anchor="middle" x="541.91" y="-276" font-family="Helvetica,sans-Serif" font-size="10.00"> MOD_AST</text>
<text text-anchor="middle" x="541.91" y="-265" font-family="Helvetica,sans-Serif" font-size="10.00">mod_</text>
</g>
<!-- Node15 -->
<g id="node15" class="node">
<title>Node15</title>
<g id="a_node15"><a xlink:href="classformat_1_1_style.html" target="_top" xlink:title="ノードの表示スタイルに関するプロパティのクラス.">
<polygon fill="white" stroke="black" points="376.41,-191.5 376.41,-210.5 415.41,-210.5 415.41,-191.5 376.41,-191.5"/>
<text text-anchor="middle" x="395.91" y="-198.5" font-family="Helvetica,sans-Serif" font-size="10.00">Style</text>
</a>
</g>
</g>
<!-- Node5&#45;&gt;Node15 -->
<g id="edge16" class="edge">
<title>Node5&#45;&gt;Node15</title>
<path fill="none" stroke="#9a32cd" stroke-dasharray="5,2" d="M486.74,-335.28C443.09,-328.01 419.16,-347.54 393.91,-317 368.08,-285.76 384.47,-231.75 392.36,-210.73"/>
<polygon fill="#9a32cd" stroke="#9a32cd" points="486.17,-338.73 496.68,-337.34 487.6,-331.88 486.17,-338.73"/>
<text text-anchor="middle" x="419.91" y="-309" font-family="Helvetica,sans-Serif" font-size="10.00"> childLPAD</text>
<text text-anchor="middle" x="419.91" y="-298" font-family="Helvetica,sans-Serif" font-size="10.00">childRPAD</text>
<text text-anchor="middle" x="419.91" y="-287" font-family="Helvetica,sans-Serif" font-size="10.00">name</text>
<text text-anchor="middle" x="419.91" y="-276" font-family="Helvetica,sans-Serif" font-size="10.00">operSTR</text>
<text text-anchor="middle" x="419.91" y="-265" font-family="Helvetica,sans-Serif" font-size="10.00">parenLPAD</text>
<text text-anchor="middle" x="419.91" y="-254" font-family="Helvetica,sans-Serif" font-size="10.00">parenLPAR</text>
<text text-anchor="middle" x="419.91" y="-243" font-family="Helvetica,sans-Serif" font-size="10.00">parenRPAD</text>
<text text-anchor="middle" x="419.91" y="-232" font-family="Helvetica,sans-Serif" font-size="10.00">parenRPAR</text>
</g>
<!-- Node6 -->
<g id="node6" class="node">
<title>Node6</title>
<g id="a_node6"><a xlink:title=" ">
<polygon fill="white" stroke="#bfbfbf" points="413.41,-335.5 413.41,-354.5 478.41,-354.5 478.41,-335.5 413.41,-335.5"/>
<text text-anchor="middle" x="445.91" y="-342.5" font-family="Helvetica,sans-Serif" font-size="10.00">TraceLevel</text>
</a>
</g>
</g>
<!-- Node6&#45;&gt;Node4 -->
<g id="edge5" class="edge">
<title>Node6&#45;&gt;Node4</title>
<path fill="none" stroke="#9a32cd" stroke-dasharray="5,2" d="M449.37,-325.11C455.08,-293.93 466.24,-232.93 470.35,-210.52"/>
<polygon fill="#9a32cd" stroke="#9a32cd" points="445.89,-324.65 447.53,-335.12 452.78,-325.91 445.89,-324.65"/>
<text text-anchor="middle" x="478.91" y="-270.5" font-family="Helvetica,sans-Serif" font-size="10.00"> LOG</text>
</g>
<!-- Node7 -->
<g id="node7" class="node">
<title>Node7</title>
<g id="a_node7"><a xlink:title=" ">
<polygon fill="white" stroke="#bfbfbf" points="557.41,-335.5 557.41,-354.5 630.41,-354.5 630.41,-335.5 557.41,-335.5"/>
<text text-anchor="middle" x="593.91" y="-342.5" font-family="Helvetica,sans-Serif" font-size="10.00">static Report</text>
</a>
</g>
</g>
<!-- Node7&#45;&gt;Node4 -->
<g id="edge6" class="edge">
<title>Node7&#45;&gt;Node4</title>
<path fill="none" stroke="#9a32cd" stroke-dasharray="5,2" d="M595.91,-325.4C597.53,-300.2 596.37,-255.36 571.91,-229 567.53,-224.29 536.84,-216.42 510.6,-210.38"/>
<polygon fill="#9a32cd" stroke="#9a32cd" points="592.41,-325.19 595.04,-335.46 599.39,-325.79 592.41,-325.19"/>
<text text-anchor="middle" x="606.91" y="-270.5" font-family="Helvetica,sans-Serif" font-size="10.00"> repo</text>
</g>
<!-- Node8 -->
<g id="node8" class="node">
<title>Node8</title>
<g id="a_node8"><a xlink:title=" ">
<polygon fill="white" stroke="#bfbfbf" points="214.41,-335.5 214.41,-354.5 243.41,-354.5 243.41,-335.5 214.41,-335.5"/>
<text text-anchor="middle" x="228.91" y="-342.5" font-family="Helvetica,sans-Serif" font-size="10.00">int</text>
</a>
</g>
</g>
<!-- Node8&#45;&gt;Node4 -->
<g id="edge7" class="edge">
<title>Node8&#45;&gt;Node4</title>
<path fill="none" stroke="#9a32cd" stroke-dasharray="5,2" d="M230.21,-325.05C232.64,-295.78 238.94,-241.61 252.91,-229 281.43,-203.24 386.89,-216.62 424.91,-211 427.62,-210.6 430.41,-210.15 433.22,-209.68"/>
<polygon fill="#9a32cd" stroke="#9a32cd" points="226.7,-325 229.44,-335.24 233.68,-325.53 226.7,-325"/>
<text text-anchor="middle" x="314.41" y="-276" font-family="Helvetica,sans-Serif" font-size="10.00"> BITMASK_PRINT_WIDTH</text>
<text text-anchor="middle" x="314.41" y="-265" font-family="Helvetica,sans-Serif" font-size="10.00">UNDEF</text>
</g>
<!-- Node8&#45;&gt;Node15 -->
<g id="edge17" class="edge">
<title>Node8&#45;&gt;Node15</title>
<path fill="none" stroke="#9a32cd" stroke-dasharray="5,2" d="M214,-327.19C211.91,-324 210.08,-320.54 208.91,-317 196.65,-279.86 182.85,-258.17 208.91,-229 232.59,-202.48 333.14,-218.48 367.91,-211 370.6,-210.42 373.41,-209.68 376.15,-208.88"/>
<polygon fill="#9a32cd" stroke="#9a32cd" points="211.39,-329.54 220.25,-335.35 216.94,-325.28 211.39,-329.54"/>
<text text-anchor="middle" x="218.91" y="-270.5" font-family="Helvetica,sans-Serif" font-size="10.00"> pref</text>
</g>
<!-- Node9 -->
<g id="node9" class="node">
<title>Node9</title>
<g id="a_node9"><a xlink:href="interfacetype_1_1_typable.html" target="_top" xlink:title="抽象ノードがもつ関数型のインタフェース">
<polygon fill="white" stroke="black" points="648.91,-335.5 648.91,-354.5 698.91,-354.5 698.91,-335.5 648.91,-335.5"/>
<text text-anchor="middle" x="673.91" y="-342.5" font-family="Helvetica,sans-Serif" font-size="10.00">Typable</text>
</a>
</g>
</g>
<!-- Node9&#45;&gt;Node4 -->
<g id="edge8" class="edge">
<title>Node9&#45;&gt;Node4</title>
<path fill="none" stroke="#9a32cd" stroke-dasharray="5,2" d="M670.99,-325.39C665.9,-299.48 652.81,-253 621.91,-229 585.55,-200.76 565.2,-219.24 519.91,-211 516.82,-210.44 513.62,-209.85 510.41,-209.26"/>
<polygon fill="#9a32cd" stroke="#9a32cd" points="667.58,-326.17 672.76,-335.41 674.47,-324.95 667.58,-326.17"/>
<text text-anchor="middle" x="683.91" y="-270.5" font-family="Helvetica,sans-Serif" font-size="10.00"> typing</text>
</g>
<!-- Node10 -->
<g id="node10" class="node">
<title>Node10</title>
<g id="a_node10"><a xlink:title=" ">
<polygon fill="white" stroke="#bfbfbf" points="39.91,-335.5 39.91,-354.5 89.91,-354.5 89.91,-335.5 39.91,-335.5"/>
<text text-anchor="middle" x="64.91" y="-342.5" font-family="Helvetica,sans-Serif" font-size="10.00">boolean</text>
</a>
</g>
</g>
<!-- Node10&#45;&gt;Node4 -->
<g id="edge9" class="edge">
<title>Node10&#45;&gt;Node4</title>
<path fill="none" stroke="#9a32cd" stroke-dasharray="5,2" d="M81.79,-328.03C84.79,-324.61 87.66,-320.85 89.91,-317 110.57,-281.54 85.5,-254.19 117.91,-229 144.89,-208.03 391,-215.22 424.91,-211 427.63,-210.66 430.43,-210.26 433.24,-209.82"/>
<polygon fill="#9a32cd" stroke="#9a32cd" points="79.2,-325.68 74.81,-335.33 84.25,-330.52 79.2,-325.68"/>
<text text-anchor="middle" x="154.41" y="-270.5" font-family="Helvetica,sans-Serif" font-size="10.00"> DEBUG_REPO</text>
</g>
<!-- Node10&#45;&gt;Node15 -->
<g id="edge18" class="edge">
<title>Node10&#45;&gt;Node15</title>
<path fill="none" stroke="#9a32cd" stroke-dasharray="5,2" d="M30.66,-330.23C25.56,-326.69 20.99,-322.32 17.91,-317 -1.69,-283.15 -9.03,-257.36 17.91,-229 44.73,-200.77 329.6,-218.02 367.91,-211 370.62,-210.5 373.43,-209.82 376.18,-209.04"/>
<polygon fill="#9a32cd" stroke="#9a32cd" points="29.17,-333.42 39.57,-335.46 32.71,-327.38 29.17,-333.42"/>
<text text-anchor="middle" x="53.91" y="-276" font-family="Helvetica,sans-Serif" font-size="10.00"> preoperSupress</text>
<text text-anchor="middle" x="53.91" y="-265" font-family="Helvetica,sans-Serif" font-size="10.00">toInline</text>
</g>
<!-- Node11 -->
<g id="node11" class="node">
<title>Node11</title>
<g id="a_node11"><a xlink:href="interfaceformat_1_1_x_formattable_1_1_navigatable.html" target="_top" xlink:title="木構造の分岐ノードとして清書可能なオブジェクトのクラス">
<polygon fill="white" stroke="black" points="702.91,-191.5 702.91,-210.5 832.91,-210.5 832.91,-191.5 702.91,-191.5"/>
<text text-anchor="middle" x="767.91" y="-198.5" font-family="Helvetica,sans-Serif" font-size="10.00">XFormattable.Navigatable</text>
</a>
</g>
</g>
<!-- Node11&#45;&gt;Node3 -->
<g id="edge10" class="edge">
<title>Node11&#45;&gt;Node3</title>
<path fill="none" stroke="midnightblue" d="M737.2,-187.6C705.24,-174.7 656.02,-154.83 628.12,-143.56"/>
<polygon fill="midnightblue" stroke="midnightblue" points="735.94,-190.87 746.53,-191.37 738.57,-184.38 735.94,-190.87"/>
</g>
<!-- Node12 -->
<g id="node12" class="node">
<title>Node12</title>
<g id="a_node12"><a xlink:href="interfaceformat_1_1_x_formattable.html" target="_top" xlink:title="入れ子フォーマット出力可能なオブジェクトのインタフェース。">
<polygon fill="white" stroke="black" points="721.41,-335.5 721.41,-354.5 796.41,-354.5 796.41,-335.5 721.41,-335.5"/>
<text text-anchor="middle" x="758.91" y="-342.5" font-family="Helvetica,sans-Serif" font-size="10.00">XFormattable</text>
</a>
</g>
</g>
<!-- Node12&#45;&gt;Node11 -->
<g id="edge11" class="edge">
<title>Node12&#45;&gt;Node11</title>
<path fill="none" stroke="midnightblue" d="M760.1,-325.11C762.08,-293.93 765.95,-232.93 767.37,-210.52"/>
<polygon fill="midnightblue" stroke="midnightblue" points="756.61,-324.92 759.47,-335.12 763.6,-325.36 756.61,-324.92"/>
</g>
<!-- Node13 -->
<g id="node13" class="node">
<title>Node13</title>
<g id="a_node13"><a xlink:href="interfaceformat_1_1_x_formattable_1_1_typed_formattable.html" target="_top" xlink:title="ノードの型情報をもつ書式出力可能なオブジェクトのインタフェース．">
<polygon fill="white" stroke="black" points="528.91,-191.5 528.91,-210.5 684.91,-210.5 684.91,-191.5 528.91,-191.5"/>
<text text-anchor="middle" x="606.91" y="-198.5" font-family="Helvetica,sans-Serif" font-size="10.00">XFormattable.TypedFormattable</text>
</a>
</g>
</g>
<!-- Node12&#45;&gt;Node13 -->
<g id="edge13" class="edge">
<title>Node12&#45;&gt;Node13</title>
<path fill="none" stroke="midnightblue" d="M755.79,-325.39C750.53,-299.84 737.41,-254.22 707.91,-229 697.9,-220.45 685.47,-214.58 672.78,-210.55"/>
<polygon fill="midnightblue" stroke="midnightblue" points="752.36,-326.09 757.64,-335.28 759.24,-324.8 752.36,-326.09"/>
</g>
<!-- Node13&#45;&gt;Node3 -->
<g id="edge12" class="edge">
<title>Node13&#45;&gt;Node3</title>
<path fill="none" stroke="midnightblue" d="M606.91,-181.04C606.91,-168.67 606.91,-153.12 606.91,-143.63"/>
<polygon fill="midnightblue" stroke="midnightblue" points="603.41,-181.23 606.91,-191.23 610.41,-181.23 603.41,-181.23"/>
</g>
<!-- Node14 -->
<g id="node14" class="node">
<title>Node14</title>
<g id="a_node14"><a xlink:title=" ">
<polygon fill="white" stroke="#bfbfbf" points="850.91,-191.5 850.91,-210.5 902.91,-210.5 902.91,-191.5 850.91,-191.5"/>
<text text-anchor="middle" x="876.91" y="-198.5" font-family="Helvetica,sans-Serif" font-size="10.00">Boolean</text>
</a>
</g>
</g>
<!-- Node14&#45;&gt;Node1 -->
<g id="edge21" class="edge">
<title>Node14&#45;&gt;Node1</title>
<path fill="none" stroke="#9a32cd" stroke-dasharray="5,2" d="M868.32,-182.17C849.27,-142.59 804.03,-48.64 790.08,-19.66"/>
<polygon fill="#9a32cd" stroke="#9a32cd" points="865.27,-183.9 872.76,-191.39 871.58,-180.86 865.27,-183.9"/>
<text text-anchor="middle" x="841.91" y="-98" font-family="Helvetica,sans-Serif" font-size="10.00"> bval</text>
</g>
<!-- Node14&#45;&gt;Node3 -->
<g id="edge14" class="edge">
<title>Node14&#45;&gt;Node3</title>
<path fill="none" stroke="#9a32cd" stroke-dasharray="5,2" d="M840.74,-190.74C760.14,-170.84 676.65,-151.23 634.44,-141.39"/>
<polygon fill="#9a32cd" stroke="#9a32cd" points="840,-194.16 850.55,-193.17 841.68,-187.37 840,-194.16"/>
<text text-anchor="middle" x="801.91" y="-165" font-family="Helvetica,sans-Serif" font-size="10.00"> DEBUG_CHILD</text>
</g>
<!-- Node15&#45;&gt;Node3 -->
<g id="edge15" class="edge">
<title>Node15&#45;&gt;Node3</title>
<path fill="none" stroke="#9a32cd" stroke-dasharray="5,2" d="M425.08,-189.83C448.03,-181.93 480.88,-170.87 509.91,-162 533.14,-154.9 559.74,-147.55 579.2,-142.31"/>
<polygon fill="#9a32cd" stroke="#9a32cd" points="423.89,-186.53 415.58,-193.11 426.18,-193.15 423.89,-186.53"/>
<text text-anchor="middle" x="518.41" y="-165" font-family="Helvetica,sans-Serif" font-size="10.00"> sty</text>
</g>
<!-- Node16 -->
<g id="node16" class="node">
<title>Node16</title>
<g id="a_node16"><a xlink:href="interfacecmd_1_1_generatable_1_1_evaluatable.html" target="_top" xlink:title="評価して値を返すノードのインタフェース．必ずしもコードを生成しなくても良い．">
<polygon fill="white" stroke="black" points="350.41,-124.5 350.41,-143.5 473.41,-143.5 473.41,-124.5 350.41,-124.5"/>
<text text-anchor="middle" x="411.91" y="-131.5" font-family="Helvetica,sans-Serif" font-size="10.00">Generatable.Evaluatable</text>
</a>
</g>
</g>
<!-- Node16&#45;&gt;Node2 -->
<g id="edge19" class="edge">
<title>Node16&#45;&gt;Node2</title>
<path fill="none" stroke="midnightblue" d="M447.6,-121.1C486.27,-108.21 546.99,-87.97 581.22,-76.56"/>
<polygon fill="midnightblue" stroke="midnightblue" points="446.18,-117.89 437.8,-124.37 448.4,-124.53 446.18,-117.89"/>
</g>
<!-- Node17 -->
<g id="node17" class="node">
<title>Node17</title>
<g id="a_node17"><a xlink:href="interfacecmd_1_1_generatable.html" target="_top" xlink:title="変換してコードを生成できるノードのインタフェース.">
<polygon fill="white" stroke="black" points="289.41,-191.5 289.41,-210.5 358.41,-210.5 358.41,-191.5 289.41,-191.5"/>
<text text-anchor="middle" x="323.91" y="-198.5" font-family="Helvetica,sans-Serif" font-size="10.00">Generatable</text>
</a>
</g>
</g>
<!-- Node17&#45;&gt;Node16 -->
<g id="edge20" class="edge">
<title>Node17&#45;&gt;Node16</title>
<path fill="none" stroke="midnightblue" d="M344.12,-185.07C361.49,-172.24 385.93,-154.19 400.23,-143.63"/>
<polygon fill="midnightblue" stroke="midnightblue" points="341.74,-182.48 335.78,-191.23 345.9,-188.11 341.74,-182.48"/>
</g>
</g>
</svg>
