<?xml version="1.0" encoding="UTF-8" standalone="no"?>
<!DOCTYPE svg PUBLIC "-//W3C//DTD SVG 1.1//EN"
 "http://www.w3.org/Graphics/SVG/1.1/DTD/svg11.dtd">
<!-- Generated by graphviz version 2.47.1 (20210417.1919)
 -->
<!-- Title: setBLKSIZE Pages: 1 -->
<svg width="445pt" height="39pt"
 viewBox="0.00 0.00 445.00 39.00" xmlns="http://www.w3.org/2000/svg" xmlns:xlink="http://www.w3.org/1999/xlink">
<g id="graph0" class="graph" transform="scale(1 1) rotate(0) translate(4 35)">
<title>setBLKSIZE</title>
<polygon fill="white" stroke="transparent" points="-4,4 -4,-35 441,-35 441,4 -4,4"/>
<!-- Node1 -->
<g id="node1" class="node">
<title>Node1</title>
<g id="a_node1"><a xlink:title="入力ストリームのブロックサイズをBLKSIZEに設定する.">
<polygon fill="#bfbfbf" stroke="black" points="366,-6 366,-25 437,-25 437,-6 366,-6"/>
<text text-anchor="middle" x="401.5" y="-13" font-family="Helvetica,sans-Serif" font-size="10.00">setBLKSIZE</text>
</a>
</g>
</g>
<!-- Node2 -->
<g id="node2" class="node">
<title>Node2</title>
<g id="a_node2"><a xlink:href="classevent_1_1asax_1_1_asax_event_reader_factory.html#ab9a998cf3d39d12685fd6d90da8b091a" target="_top" xlink:title="新しいパーザーを生成する">
<polygon fill="white" stroke="black" points="183,-0.5 183,-30.5 330,-30.5 330,-0.5 183,-0.5"/>
<text text-anchor="start" x="191" y="-18.5" font-family="Helvetica,sans-Serif" font-size="10.00">event.asax.AsaxEventReader</text>
<text text-anchor="middle" x="256.5" y="-7.5" font-family="Helvetica,sans-Serif" font-size="10.00">Factory.newInstance</text>
</a>
</g>
</g>
<!-- Node1&#45;&gt;Node2 -->
<g id="edge1" class="edge">
<title>Node1&#45;&gt;Node2</title>
<path fill="none" stroke="midnightblue" d="M355.87,-15.5C347.7,-15.5 338.98,-15.5 330.24,-15.5"/>
<polygon fill="midnightblue" stroke="midnightblue" points="355.88,-19 365.88,-15.5 355.88,-12 355.88,-19"/>
</g>
<!-- Node3 -->
<g id="node3" class="node">
<title>Node3</title>
<g id="a_node3"><a xlink:href="classevent_1_1asax_1_1_asax_event_reader_factory.html#a6513db3c8794043acafbb292b085f7c2" target="_top" xlink:title="新しいパーザーを生成する">
<polygon fill="white" stroke="black" points="0,-0.5 0,-30.5 147,-30.5 147,-0.5 0,-0.5"/>
<text text-anchor="start" x="8" y="-18.5" font-family="Helvetica,sans-Serif" font-size="10.00">event.asax.AsaxEventReader</text>
<text text-anchor="middle" x="73.5" y="-7.5" font-family="Helvetica,sans-Serif" font-size="10.00">Factory.newInstance</text>
</a>
</g>
</g>
<!-- Node2&#45;&gt;Node3 -->
<g id="edge2" class="edge">
<title>Node2&#45;&gt;Node3</title>
<path fill="none" stroke="midnightblue" d="M172.88,-15.5C164.28,-15.5 155.58,-15.5 147.09,-15.5"/>
<polygon fill="midnightblue" stroke="midnightblue" points="172.92,-19 182.92,-15.5 172.92,-12 172.92,-19"/>
</g>
</g>
</svg>
