<?xml version="1.0" encoding="UTF-8" standalone="no"?>
<!DOCTYPE svg PUBLIC "-//W3C//DTD SVG 1.1//EN"
 "http://www.w3.org/Graphics/SVG/1.1/DTD/svg11.dtd">
<!-- Generated by graphviz version 2.38.0 (20140413.2041)
 -->
<!-- Title: AstNodeIndexed Pages: 1 -->
<svg width="556pt" height="192pt"
 viewBox="0.00 0.00 555.98 192.00" xmlns="http://www.w3.org/2000/svg" xmlns:xlink="http://www.w3.org/1999/xlink">
<g id="graph0" class="graph" transform="scale(1 1) rotate(0) translate(4 188)">
<title>AstNodeIndexed</title>
<polygon fill="white" stroke="none" points="-4,4 -4,-188 551.985,-188 551.985,4 -4,4"/>
<!-- Node1 -->
<g id="node1" class="node"><title>Node1</title>
<g id="a_node1"><a xlink:title=" ">
<polygon fill="#bfbfbf" stroke="black" points="336.207,-0.5 336.207,-18.5 426.147,-18.5 426.147,-0.5 336.207,-0.5"/>
<text text-anchor="middle" x="381.177" y="-6.5" font-family="Helvetica,sans-Serif" font-size="10.00">AstNodeIndexed</text>
</a>
</g>
</g>
<!-- Node2 -->
<g id="node2" class="node"><title>Node2</title>
<g id="a_node2"><a xlink:href="classast_1_1_ast_node_branch.html" target="_top" xlink:title="抽象構文木のノードの基本実装クラス.">
<polygon fill="white" stroke="black" points="281.158,-55.5 281.158,-73.5 367.197,-73.5 367.197,-55.5 281.158,-55.5"/>
<text text-anchor="middle" x="324.177" y="-61.5" font-family="Helvetica,sans-Serif" font-size="10.00">AstNodeBranch</text>
</a>
</g>
</g>
<!-- Node2&#45;&gt;Node1 -->
<g id="edge1" class="edge"><title>Node2&#45;&gt;Node1</title>
<path fill="none" stroke="midnightblue" d="M340.421,-48.3965C350.867,-38.6833 364.027,-26.4466 372.52,-18.5496"/>
<polygon fill="midnightblue" stroke="midnightblue" points="338.024,-45.8461 333.083,-55.2188 342.79,-50.9725 338.024,-45.8461"/>
</g>
<!-- Node3 -->
<g id="node3" class="node"><title>Node3</title>
<g id="a_node3"><a xlink:href="classast_1_1_ast_node.html" target="_top" xlink:title=" ">
<polygon fill="white" stroke="black" points="0,-110.5 0,-128.5 54.3545,-128.5 54.3545,-110.5 0,-110.5"/>
<text text-anchor="middle" x="27.1772" y="-116.5" font-family="Helvetica,sans-Serif" font-size="10.00">AstNode</text>
</a>
</g>
</g>
<!-- Node3&#45;&gt;Node2 -->
<g id="edge2" class="edge"><title>Node3&#45;&gt;Node2</title>
<path fill="none" stroke="midnightblue" d="M64.6212,-109.806C146.479,-93.3714 231.222,-79.6992 281.071,-71.997"/>
<polygon fill="midnightblue" stroke="midnightblue" points="63.7619,-106.409 54.6554,-111.824 65.151,-113.27 63.7619,-106.409"/>
</g>
<!-- Node4 -->
<g id="node4" class="node"><title>Node4</title>
<g id="a_node4"><a xlink:href="interfaceformat_1_1_x_formattable.html" target="_top" xlink:title="入れ子フォーマット出力可能なオブジェクトのインタフェース。">
<polygon fill="white" stroke="black" points="200.165,-165.5 200.165,-183.5 276.189,-183.5 276.189,-165.5 200.165,-165.5"/>
<text text-anchor="middle" x="238.177" y="-171.5" font-family="Helvetica,sans-Serif" font-size="10.00">XFormattable</text>
</a>
</g>
</g>
<!-- Node4&#45;&gt;Node3 -->
<g id="edge3" class="edge"><title>Node4&#45;&gt;Node3</title>
<path fill="none" stroke="midnightblue" d="M196.18,-162.951C154.065,-152.372 90.4484,-136.393 54.4797,-127.358"/>
<polygon fill="midnightblue" stroke="midnightblue" points="195.579,-166.409 206.131,-165.45 197.285,-159.62 195.579,-166.409"/>
</g>
<!-- Node5 -->
<g id="node5" class="node"><title>Node5</title>
<g id="a_node5"><a xlink:href="interfaceformat_1_1_x_formattable_1_1_navigatable.html" target="_top" xlink:title="木構造の分岐ノードとして清書可能なオブジェクトのクラス">
<polygon fill="white" stroke="black" points="416.37,-110.5 416.37,-128.5 547.985,-128.5 547.985,-110.5 416.37,-110.5"/>
<text text-anchor="middle" x="482.177" y="-116.5" font-family="Helvetica,sans-Serif" font-size="10.00">XFormattable.Navigatable</text>
</a>
</g>
</g>
<!-- Node4&#45;&gt;Node5 -->
<g id="edge5" class="edge"><title>Node4&#45;&gt;Node5</title>
<path fill="none" stroke="midnightblue" d="M285.096,-163.309C331.74,-153.177 402.343,-137.841 445.171,-128.538"/>
<polygon fill="midnightblue" stroke="midnightblue" points="284.265,-159.907 275.236,-165.45 285.751,-166.748 284.265,-159.907"/>
</g>
<!-- Node6 -->
<g id="node6" class="node"><title>Node6</title>
<g id="a_node6"><a xlink:href="interfaceformat_1_1_x_formattable_1_1_typed_formattable.html" target="_top" xlink:title="ノードの型情報をもつ書式出力可能なオブジェクトのインタフェース．">
<polygon fill="white" stroke="black" points="72.4756,-110.5 72.4756,-128.5 231.879,-128.5 231.879,-110.5 72.4756,-110.5"/>
<text text-anchor="middle" x="152.177" y="-116.5" font-family="Helvetica,sans-Serif" font-size="10.00">XFormattable.TypedFormattable</text>
</a>
</g>
</g>
<!-- Node4&#45;&gt;Node6 -->
<g id="edge7" class="edge"><title>Node4&#45;&gt;Node6</title>
<path fill="none" stroke="midnightblue" d="M216.354,-160.051C200.271,-150.139 178.921,-136.982 165.362,-128.625"/>
<polygon fill="midnightblue" stroke="midnightblue" points="214.766,-163.184 225.116,-165.45 218.439,-157.224 214.766,-163.184"/>
</g>
<!-- Node7 -->
<g id="node7" class="node"><title>Node7</title>
<g id="a_node7"><a xlink:href="interfaceformat_1_1_x_formattable_1_1_hgt_formattable.html" target="_top" xlink:title="ノードの高さ情報をもつ書式出力可能なオブジェクトのインタフェース．">
<polygon fill="white" stroke="black" points="250.318,-110.5 250.318,-128.5 398.037,-128.5 398.037,-110.5 250.318,-110.5"/>
<text text-anchor="middle" x="324.177" y="-116.5" font-family="Helvetica,sans-Serif" font-size="10.00">XFormattable.HgtFormattable</text>
</a>
</g>
</g>
<!-- Node4&#45;&gt;Node7 -->
<g id="edge9" class="edge"><title>Node4&#45;&gt;Node7</title>
<path fill="none" stroke="midnightblue" d="M260.001,-160.051C276.083,-150.139 297.433,-136.982 310.993,-128.625"/>
<polygon fill="midnightblue" stroke="midnightblue" points="257.916,-157.224 251.239,-165.45 261.588,-163.184 257.916,-157.224"/>
</g>
<!-- Node5&#45;&gt;Node1 -->
<g id="edge10" class="edge"><title>Node5&#45;&gt;Node1</title>
<path fill="none" stroke="midnightblue" d="M467.749,-103.071C446.028,-79.845 405.683,-36.7038 388.857,-18.7118"/>
<polygon fill="midnightblue" stroke="midnightblue" points="465.199,-105.469 474.586,-110.382 470.312,-100.688 465.199,-105.469"/>
</g>
<!-- Node5&#45;&gt;Node2 -->
<g id="edge4" class="edge"><title>Node5&#45;&gt;Node2</title>
<path fill="none" stroke="midnightblue" d="M448.509,-107.206C418.355,-97.0914 374.885,-82.5095 348.141,-73.5383"/>
<polygon fill="midnightblue" stroke="midnightblue" points="447.587,-110.588 458.18,-110.45 449.813,-103.952 447.587,-110.588"/>
</g>
<!-- Node6&#45;&gt;Node2 -->
<g id="edge6" class="edge"><title>Node6&#45;&gt;Node2</title>
<path fill="none" stroke="midnightblue" d="M187.976,-107.469C220.83,-97.3454 268.723,-82.5875 298.091,-73.5383"/>
<polygon fill="midnightblue" stroke="midnightblue" points="186.826,-104.161 178.3,-110.45 188.888,-110.85 186.826,-104.161"/>
</g>
<!-- Node7&#45;&gt;Node2 -->
<g id="edge8" class="edge"><title>Node7&#45;&gt;Node2</title>
<path fill="none" stroke="midnightblue" d="M324.177,-100.175C324.177,-91.0945 324.177,-80.5949 324.177,-73.5496"/>
<polygon fill="midnightblue" stroke="midnightblue" points="320.677,-100.219 324.177,-110.219 327.677,-100.219 320.677,-100.219"/>
</g>
</g>
</svg>
