<?xml version="1.0" encoding="UTF-8" standalone="no"?>
<!DOCTYPE svg PUBLIC "-//W3C//DTD SVG 1.1//EN"
 "http://www.w3.org/Graphics/SVG/1.1/DTD/svg11.dtd">
<!-- Generated by graphviz version 2.47.1 (20210417.1919)
 -->
<!-- Title: ty Pages: 1 -->
<!--zoomable 1016 -->
<svg id="main" version="1.1" xmlns="http://www.w3.org/2000/svg" xmlns:xlink="http://www.w3.org/1999/xlink" xml:space="preserve" onload="init(evt)">
<style type="text/css"><![CDATA[
.edge:hover path { stroke: red; }
.edge:hover polygon { stroke: red; fill: red; }
]]></style>
<script type="text/javascript"><![CDATA[
var edges = document.getElementsByTagName('g');
if (edges && edges.length) {
  for (var i=0;i<edges.length;i++) {
    if (edges[i].id.substr(0,4)=='edge') {
      edges[i].setAttribute('class','edge');
    }
  }
}
]]></script>
        <defs>
                <circle id="rim" cx="0" cy="0" r="7"/>
                <circle id="rim2" cx="0" cy="0" r="3.5"/>
                <g id="zoomPlus">
                        <use xlink:href="#rim" fill="#404040">
                                <set attributeName="fill" to="#808080" begin="zoomplus.mouseover" end="zoomplus.mouseout"/>
                        </use>
                        <path d="M-4,0h8M0,-4v8" fill="none" stroke="white" stroke-width="1.5" pointer-events="none"/>
                </g>
                <g id="zoomMin">
                        <use xlink:href="#rim" fill="#404040">
                                <set attributeName="fill" to="#808080" begin="zoomminus.mouseover" end="zoomminus.mouseout"/>
                        </use>
                        <path d="M-4,0h8" fill="none" stroke="white" stroke-width="1.5" pointer-events="none"/>
                </g>
                <g id="dirArrow">
                        <path fill="none" stroke="white" stroke-width="1.5" d="M0,-3.0v7 M-2.5,-0.5L0,-3.0L2.5,-0.5"/>
                </g>
               <g id="resetDef">
                       <use xlink:href="#rim2" fill="#404040">
                               <set attributeName="fill" to="#808080" begin="reset.mouseover" end="reset.mouseout"/>
                       </use>
               </g>
        </defs>

<script type="text/javascript">
var viewWidth = 803;
var viewHeight = 1016;
var sectionId = 'dynsection-2';
</script>
<script xlink:href="svgpan.js"/>
<svg id="graph" class="graph">
<g id="viewport">
<title>ty</title>
<polygon fill="white" stroke="transparent" points="-4,4 -4,-1012 799,-1012 799,4 -4,4"/>
<!-- Node1 -->
<g id="node1" class="node">
<title>Node1</title>
<g id="a_node1"><a xlink:title="この型変数thisがもつ値型を返す。">
<polygon fill="#bfbfbf" stroke="black" points="766,-585.5 766,-604.5 795,-604.5 795,-585.5 766,-585.5"/>
<text text-anchor="middle" x="780.5" y="-592.5" font-family="Helvetica,sans-Serif" font-size="10.00">ty</text>
</a>
</g>
</g>
<!-- Node2 -->
<g id="node2" class="node">
<title>Node2</title>
<g id="a_node2"><a xlink:href="classtype_1_1_basic_typing.html#ac773e3c20a29c208fea84c33d8b35cd2" target="_top" xlink:title="子型の文字列表現を返す。">
<polygon fill="white" stroke="black" points="584.5,-988.5 584.5,-1007.5 720.5,-1007.5 720.5,-988.5 584.5,-988.5"/>
<text text-anchor="middle" x="652.5" y="-995.5" font-family="Helvetica,sans-Serif" font-size="10.00">type.BasicTyping.childData</text>
</a>
</g>
</g>
<!-- Node1&#45;&gt;Node2 -->
<g id="edge1" class="edge">
<title>Node1&#45;&gt;Node2</title>
<path fill="none" stroke="midnightblue" d="M779.63,-614.94C779.67,-685.04 776.27,-918.88 730,-974 724.72,-980.29 717.81,-984.96 710.3,-988.41"/>
<polygon fill="midnightblue" stroke="midnightblue" points="783.13,-614.81 779.59,-604.82 776.13,-614.83 783.13,-614.81"/>
</g>
<!-- Node6 -->
<g id="node6" class="node">
<title>Node6</title>
<g id="a_node6"><a xlink:href="classast_1_1_ast_assign.html#ae1ba45bad2d2854e7378d5322c0c2c57" target="_top" xlink:title="コードを生成する．">
<polygon fill="white" stroke="black" points="196,-696.5 196,-715.5 314,-715.5 314,-696.5 196,-696.5"/>
<text text-anchor="middle" x="255" y="-703.5" font-family="Helvetica,sans-Serif" font-size="10.00">ast.AstAssign.gencode</text>
</a>
</g>
</g>
<!-- Node1&#45;&gt;Node6 -->
<g id="edge6" class="edge">
<title>Node1&#45;&gt;Node6</title>
<path fill="none" stroke="midnightblue" d="M778.57,-614.73C775.98,-651.75 766.27,-732.93 730,-789 671.07,-880.09 641.42,-905.22 539,-941 461.8,-967.97 423.13,-986.23 355,-941 274.04,-887.26 259.13,-752.91 256.53,-715.69"/>
<polygon fill="midnightblue" stroke="midnightblue" points="782.06,-614.93 779.16,-604.74 775.07,-614.51 782.06,-614.93"/>
</g>
<!-- Node7 -->
<g id="node7" class="node">
<title>Node7</title>
<g id="a_node7"><a xlink:href="classast_1_1_ast_oper.html#aade0b6f6dbcac3769520224b8b04130c" target="_top" xlink:title="二つの非演算子である子供のコードを生成す">
<polygon fill="white" stroke="black" points="575,-760.5 575,-779.5 730,-779.5 730,-760.5 575,-760.5"/>
<text text-anchor="middle" x="652.5" y="-767.5" font-family="Helvetica,sans-Serif" font-size="10.00">ast.AstOper.generateChildCode</text>
</a>
</g>
</g>
<!-- Node1&#45;&gt;Node7 -->
<g id="edge7" class="edge">
<title>Node1&#45;&gt;Node7</title>
<path fill="none" stroke="midnightblue" d="M766.6,-612.92C740.25,-649.51 681.02,-731.78 660.59,-760.16"/>
<polygon fill="midnightblue" stroke="midnightblue" points="769.54,-614.82 772.55,-604.66 763.86,-610.73 769.54,-614.82"/>
</g>
<!-- Node16 -->
<g id="node16" class="node">
<title>Node16</title>
<g id="a_node16"><a xlink:href="classtype_1_1_x_type_item.html#a8f3ab9d29a49a3c79ee1d258d2d0b613" target="_top" xlink:title="この型変数thisの値型を指定された上限の値型に制約する（上限で置き換える）。成功すればtrueを返し、そうでなければfalseを返す。">
<polygon fill="white" stroke="black" points="432.5,-585.5 432.5,-604.5 461.5,-604.5 461.5,-585.5 432.5,-585.5"/>
<text text-anchor="middle" x="447" y="-592.5" font-family="Helvetica,sans-Serif" font-size="10.00">lift</text>
</a>
</g>
</g>
<!-- Node1&#45;&gt;Node16 -->
<g id="edge16" class="edge">
<title>Node1&#45;&gt;Node16</title>
<path fill="none" stroke="midnightblue" d="M755.58,-595C690.56,-595 512.08,-595 461.51,-595"/>
<polygon fill="midnightblue" stroke="midnightblue" points="755.68,-598.5 765.68,-595 755.68,-591.5 755.68,-598.5"/>
</g>
<!-- Node17 -->
<g id="node17" class="node">
<title>Node17</title>
<g id="a_node17"><a xlink:href="classtype_1_1_x_type_item.html#a14d03fd612a033d16306576e10febe7a" target="_top" xlink:title="この型変数thisの値型が指定された値型に制約可能ならばtrueを返し、そうでなければfalseを返す。">
<polygon fill="white" stroke="black" points="630,-566.5 630,-585.5 675,-585.5 675,-566.5 630,-566.5"/>
<text text-anchor="middle" x="652.5" y="-573.5" font-family="Helvetica,sans-Serif" font-size="10.00">liftable</text>
</a>
</g>
</g>
<!-- Node1&#45;&gt;Node17 -->
<g id="edge17" class="edge">
<title>Node1&#45;&gt;Node17</title>
<path fill="none" stroke="midnightblue" d="M755.48,-591.38C732.28,-587.88 697.46,-582.63 675.1,-579.26"/>
<polygon fill="midnightblue" stroke="midnightblue" points="755.12,-594.86 765.53,-592.89 756.17,-587.94 755.12,-594.86"/>
</g>
<!-- Node18 -->
<g id="node18" class="node">
<title>Node18</title>
<g id="a_node18"><a xlink:href="classmachine_1_1_var.html#a8823a0c472dfe4cda24d22d9c15fed96" target="_top" xlink:title="データ型を返す．">
<polygon fill="white" stroke="black" points="609.5,-380.5 609.5,-399.5 695.5,-399.5 695.5,-380.5 609.5,-380.5"/>
<text text-anchor="middle" x="652.5" y="-387.5" font-family="Helvetica,sans-Serif" font-size="10.00">machine.Var.typ</text>
</a>
</g>
</g>
<!-- Node1&#45;&gt;Node18 -->
<g id="edge19" class="edge">
<title>Node1&#45;&gt;Node18</title>
<path fill="none" stroke="midnightblue" d="M768.26,-576.71C742.39,-534.62 679.33,-432.02 659.54,-399.83"/>
<polygon fill="midnightblue" stroke="midnightblue" points="765.37,-578.7 773.59,-585.39 771.34,-575.04 765.37,-578.7"/>
</g>
<!-- Node30 -->
<g id="node30" class="node">
<title>Node30</title>
<g id="a_node30"><a xlink:href="classtype_1_1_x_type_item.html#a873823a56369ff4fac9157d8e6f7ec61" target="_top" xlink:title="この型変数thisと指定された型変数が単一化可能ならばtrueを返し、そうでなければfalseを返す。">
<polygon fill="white" stroke="black" points="626,-342.5 626,-361.5 679,-361.5 679,-342.5 626,-342.5"/>
<text text-anchor="middle" x="652.5" y="-349.5" font-family="Helvetica,sans-Serif" font-size="10.00">unifiable</text>
</a>
</g>
</g>
<!-- Node1&#45;&gt;Node30 -->
<g id="edge32" class="edge">
<title>Node1&#45;&gt;Node30</title>
<path fill="none" stroke="midnightblue" d="M777.78,-575.37C773.1,-526.33 758.49,-400.24 730,-371 716.92,-357.57 695.93,-353.07 679.24,-351.8"/>
<polygon fill="midnightblue" stroke="midnightblue" points="774.3,-575.71 778.7,-585.35 781.27,-575.07 774.3,-575.71"/>
</g>
<!-- Node31 -->
<g id="node31" class="node">
<title>Node31</title>
<g id="a_node31"><a xlink:href="classtype_1_1_x_type_item.html#a3057d3707a7f0e95cbc88e49f41e8a4c" target="_top" xlink:title="この型変数thisと指定された型変数を単一化する（同じ同値類にする）。成功すればtrueを返し、そうでなければfalseを返す。">
<polygon fill="white" stroke="black" points="633.5,-66.5 633.5,-85.5 671.5,-85.5 671.5,-66.5 633.5,-66.5"/>
<text text-anchor="middle" x="652.5" y="-73.5" font-family="Helvetica,sans-Serif" font-size="10.00">unify</text>
</a>
</g>
</g>
<!-- Node1&#45;&gt;Node31 -->
<g id="edge33" class="edge">
<title>Node1&#45;&gt;Node31</title>
<path fill="none" stroke="midnightblue" d="M776.48,-575.26C769.62,-531.4 751.74,-422.61 730,-333 706.29,-235.28 668.13,-119.5 656.78,-85.71"/>
<polygon fill="midnightblue" stroke="midnightblue" points="773.06,-576.06 778.05,-585.41 779.98,-574.99 773.06,-576.06"/>
</g>
<!-- Node3 -->
<g id="node3" class="node">
<title>Node3</title>
<g id="a_node3"><a xlink:href="classtype_1_1_basic_typing.html#a3137357d0abb2bd75321d6e19024956a" target="_top" xlink:title="演算子型の文字列表現を返す。">
<polygon fill="white" stroke="black" points="390.5,-988.5 390.5,-1007.5 503.5,-1007.5 503.5,-988.5 390.5,-988.5"/>
<text text-anchor="middle" x="447" y="-995.5" font-family="Helvetica,sans-Serif" font-size="10.00">type.BasicTyping.data</text>
</a>
</g>
</g>
<!-- Node2&#45;&gt;Node3 -->
<g id="edge2" class="edge">
<title>Node2&#45;&gt;Node3</title>
<path fill="none" stroke="midnightblue" d="M574.03,-998C550.58,-998 525.3,-998 503.58,-998"/>
<polygon fill="midnightblue" stroke="midnightblue" points="574.3,-1001.5 584.3,-998 574.3,-994.5 574.3,-1001.5"/>
</g>
<!-- Node4 -->
<g id="node4" class="node">
<title>Node4</title>
<g id="a_node4"><a xlink:href="classtype_1_1_basic_typing.html#ad146fa8579a5f8a876c4688cc5a68520" target="_top" xlink:title="演算子型の文字列表現を返す。">
<polygon fill="white" stroke="black" points="191,-988.5 191,-1007.5 319,-1007.5 319,-988.5 191,-988.5"/>
<text text-anchor="middle" x="255" y="-995.5" font-family="Helvetica,sans-Serif" font-size="10.00">type.BasicTyping.toString</text>
</a>
</g>
</g>
<!-- Node3&#45;&gt;Node4 -->
<g id="edge3" class="edge">
<title>Node3&#45;&gt;Node4</title>
<path fill="none" stroke="midnightblue" d="M380.12,-991.54C360.33,-991.13 338.67,-991.15 319.06,-991.6"/>
<polygon fill="midnightblue" stroke="midnightblue" points="380.19,-995.04 390.28,-991.79 380.37,-988.05 380.19,-995.04"/>
</g>
<!-- Node4&#45;&gt;Node3 -->
<g id="edge5" class="edge">
<title>Node4&#45;&gt;Node3</title>
<path fill="none" stroke="midnightblue" d="M329.2,-1004.59C349.49,-1004.89 371.17,-1004.77 390.28,-1004.21"/>
<polygon fill="midnightblue" stroke="midnightblue" points="329.13,-1001.09 319.06,-1004.4 329,-1008.09 329.13,-1001.09"/>
</g>
<!-- Node5 -->
<g id="node5" class="node">
<title>Node5</title>
<g id="a_node5"><a xlink:href="classtype_1_1_child_hom_typing.html#ac773e3c20a29c208fea84c33d8b35cd2" target="_top" xlink:title="子型の文字列表現を返す。">
<polygon fill="white" stroke="black" points="0,-988.5 0,-1007.5 155,-1007.5 155,-988.5 0,-988.5"/>
<text text-anchor="middle" x="77.5" y="-995.5" font-family="Helvetica,sans-Serif" font-size="10.00">type.ChildHomTyping.childData</text>
</a>
</g>
</g>
<!-- Node4&#45;&gt;Node5 -->
<g id="edge4" class="edge">
<title>Node4&#45;&gt;Node5</title>
<path fill="none" stroke="midnightblue" d="M180.55,-998C172.18,-998 163.64,-998 155.24,-998"/>
<polygon fill="midnightblue" stroke="midnightblue" points="180.64,-1001.5 190.64,-998 180.64,-994.5 180.64,-1001.5"/>
</g>
<!-- Node8 -->
<g id="node8" class="node">
<title>Node8</title>
<g id="a_node8"><a xlink:href="classast_1_1_ast_math_oper_1_1_integer_oper.html#ae1ba45bad2d2854e7378d5322c0c2c57" target="_top" xlink:title="コードを生成する．">
<polygon fill="white" stroke="black" points="355.5,-912.5 355.5,-931.5 538.5,-931.5 538.5,-912.5 355.5,-912.5"/>
<text text-anchor="middle" x="447" y="-919.5" font-family="Helvetica,sans-Serif" font-size="10.00">ast.AstMathOper.IntegerOper.gencode</text>
</a>
</g>
</g>
<!-- Node7&#45;&gt;Node8 -->
<g id="edge8" class="edge">
<title>Node7&#45;&gt;Node8</title>
<path fill="none" stroke="midnightblue" d="M641.45,-788.37C624.44,-817.61 587.09,-874.35 539,-903 532.48,-906.88 525.29,-909.98 517.89,-912.45"/>
<polygon fill="midnightblue" stroke="midnightblue" points="644.54,-790.02 646.43,-779.59 638.45,-786.57 644.54,-790.02"/>
</g>
<!-- Node9 -->
<g id="node9" class="node">
<title>Node9</title>
<g id="a_node9"><a xlink:href="classast_1_1_ast_math_oper_1_1_integer_rel.html#ae1ba45bad2d2854e7378d5322c0c2c57" target="_top" xlink:title="コードを生成する．">
<polygon fill="white" stroke="black" points="358,-874.5 358,-893.5 536,-893.5 536,-874.5 358,-874.5"/>
<text text-anchor="middle" x="447" y="-881.5" font-family="Helvetica,sans-Serif" font-size="10.00">ast.AstMathOper.IntegerRel.gencode</text>
</a>
</g>
</g>
<!-- Node7&#45;&gt;Node9 -->
<g id="edge9" class="edge">
<title>Node7&#45;&gt;Node9</title>
<path fill="none" stroke="midnightblue" d="M636.5,-787.07C616.5,-808.71 578.94,-845.53 539,-865 531.02,-868.89 522.27,-871.98 513.45,-874.45"/>
<polygon fill="midnightblue" stroke="midnightblue" points="639.16,-789.35 643.28,-779.59 633.97,-784.65 639.16,-789.35"/>
</g>
<!-- Node10 -->
<g id="node10" class="node">
<title>Node10</title>
<g id="a_node10"><a xlink:href="classast_1_1_ast_math_oper_1_1_double_oper.html#ae1ba45bad2d2854e7378d5322c0c2c57" target="_top" xlink:title="コードを生成する．">
<polygon fill="white" stroke="black" points="355,-836.5 355,-855.5 539,-855.5 539,-836.5 355,-836.5"/>
<text text-anchor="middle" x="447" y="-843.5" font-family="Helvetica,sans-Serif" font-size="10.00">ast.AstMathOper.DoubleOper.gencode</text>
</a>
</g>
</g>
<!-- Node7&#45;&gt;Node10 -->
<g id="edge10" class="edge">
<title>Node7&#45;&gt;Node10</title>
<path fill="none" stroke="midnightblue" d="M626.93,-784.84C604.68,-797.69 570.64,-815.9 539,-827 528.34,-830.74 516.71,-833.86 505.43,-836.41"/>
<polygon fill="midnightblue" stroke="midnightblue" points="628.84,-787.77 635.7,-779.7 625.3,-781.74 628.84,-787.77"/>
</g>
<!-- Node11 -->
<g id="node11" class="node">
<title>Node11</title>
<g id="a_node11"><a xlink:href="classast_1_1_ast_math_oper_1_1_double_rel.html#ae1ba45bad2d2854e7378d5322c0c2c57" target="_top" xlink:title="コードを生成する．">
<polygon fill="white" stroke="black" points="357.5,-798.5 357.5,-817.5 536.5,-817.5 536.5,-798.5 357.5,-798.5"/>
<text text-anchor="middle" x="447" y="-805.5" font-family="Helvetica,sans-Serif" font-size="10.00">ast.AstMathOper.DoubleRel.gencode</text>
</a>
</g>
</g>
<!-- Node7&#45;&gt;Node11 -->
<g id="edge11" class="edge">
<title>Node7&#45;&gt;Node11</title>
<path fill="none" stroke="midnightblue" d="M590.35,-781.42C561.24,-786.86 526.81,-793.28 499.11,-798.46"/>
<polygon fill="midnightblue" stroke="midnightblue" points="591.22,-784.82 600.41,-779.54 589.94,-777.94 591.22,-784.82"/>
</g>
<!-- Node12 -->
<g id="node12" class="node">
<title>Node12</title>
<g id="a_node12"><a xlink:href="classast_1_1_ast_math_oper_1_1_pre_term.html#ae1ba45bad2d2854e7378d5322c0c2c57" target="_top" xlink:title="コードを生成する．">
<polygon fill="white" stroke="black" points="362,-760.5 362,-779.5 532,-779.5 532,-760.5 362,-760.5"/>
<text text-anchor="middle" x="447" y="-767.5" font-family="Helvetica,sans-Serif" font-size="10.00">ast.AstMathOper.PreTerm.gencode</text>
</a>
</g>
</g>
<!-- Node7&#45;&gt;Node12 -->
<g id="edge12" class="edge">
<title>Node7&#45;&gt;Node12</title>
<path fill="none" stroke="midnightblue" d="M564.6,-770C553.82,-770 542.81,-770 532.07,-770"/>
<polygon fill="midnightblue" stroke="midnightblue" points="564.86,-773.5 574.86,-770 564.86,-766.5 564.86,-773.5"/>
</g>
<!-- Node13 -->
<g id="node13" class="node">
<title>Node13</title>
<g id="a_node13"><a xlink:href="classast_1_1_string_rel_1_1_string_match_rel.html#ae1ba45bad2d2854e7378d5322c0c2c57" target="_top" xlink:title="コードを生成する．">
<polygon fill="white" stroke="black" points="382.5,-711 382.5,-741 511.5,-741 511.5,-711 382.5,-711"/>
<text text-anchor="start" x="390.5" y="-729" font-family="Helvetica,sans-Serif" font-size="10.00">ast.StringRel.StringMatch</text>
<text text-anchor="middle" x="447" y="-718" font-family="Helvetica,sans-Serif" font-size="10.00">Rel.gencode</text>
</a>
</g>
</g>
<!-- Node7&#45;&gt;Node13 -->
<g id="edge13" class="edge">
<title>Node7&#45;&gt;Node13</title>
<path fill="none" stroke="midnightblue" d="M597.54,-758.33C571.19,-752.64 539.31,-745.74 511.77,-739.79"/>
<polygon fill="midnightblue" stroke="midnightblue" points="596.83,-761.76 607.34,-760.45 598.31,-754.92 596.83,-761.76"/>
</g>
<!-- Node14 -->
<g id="node14" class="node">
<title>Node14</title>
<g id="a_node14"><a xlink:href="classast_1_1_string_rel_1_1_regex_match_rel.html#ae1ba45bad2d2854e7378d5322c0c2c57" target="_top" xlink:title="コードを生成する．">
<polygon fill="white" stroke="black" points="381,-662 381,-692 513,-692 513,-662 381,-662"/>
<text text-anchor="start" x="389" y="-680" font-family="Helvetica,sans-Serif" font-size="10.00">ast.StringRel.RegexMatch</text>
<text text-anchor="middle" x="447" y="-669" font-family="Helvetica,sans-Serif" font-size="10.00">Rel.gencode</text>
</a>
</g>
</g>
<!-- Node7&#45;&gt;Node14 -->
<g id="edge14" class="edge">
<title>Node7&#45;&gt;Node14</title>
<path fill="none" stroke="midnightblue" d="M630.04,-754.56C608.09,-739.36 572.54,-716.41 539,-702 530.42,-698.31 521.15,-695.03 511.92,-692.15"/>
<polygon fill="midnightblue" stroke="midnightblue" points="628.1,-757.47 638.3,-760.35 632.12,-751.74 628.1,-757.47"/>
</g>
<!-- Node15 -->
<g id="node15" class="node">
<title>Node15</title>
<g id="a_node15"><a xlink:href="classast_1_1_ast_func_call.html#a383612fb2c1d291f6f3f9c352a5cb262" target="_top" xlink:title="コードを生成する．">
<polygon fill="white" stroke="black" points="383.5,-623.5 383.5,-642.5 510.5,-642.5 510.5,-623.5 383.5,-623.5"/>
<text text-anchor="middle" x="447" y="-630.5" font-family="Helvetica,sans-Serif" font-size="10.00">ast.AstFuncCall.gencode</text>
</a>
</g>
</g>
<!-- Node7&#45;&gt;Node15 -->
<g id="edge15" class="edge">
<title>Node7&#45;&gt;Node15</title>
<path fill="none" stroke="midnightblue" d="M639.55,-752.04C621.18,-725.93 583.42,-677.89 539,-653 530.39,-648.18 520.72,-644.52 510.98,-641.74"/>
<polygon fill="midnightblue" stroke="midnightblue" points="636.67,-754.03 645.22,-760.29 642.44,-750.07 636.67,-754.03"/>
</g>
<!-- Node17&#45;&gt;Node16 -->
<g id="edge18" class="edge">
<title>Node17&#45;&gt;Node16</title>
<path fill="none" stroke="midnightblue" d="M619.57,-578.98C574.3,-583.21 493.44,-590.76 461.5,-593.74"/>
<polygon fill="midnightblue" stroke="midnightblue" points="620.09,-582.45 629.72,-578.03 619.44,-575.48 620.09,-582.45"/>
</g>
<!-- Node19 -->
<g id="node19" class="node">
<title>Node19</title>
<g id="a_node19"><a xlink:href="classframe_1_1_frame_stack_uni.html#aaa5606ad3baa7526b404ad5609a65d7f" target="_top" xlink:title="フレームfpに、指定された内容と対応する値型の新しいメモリセルを追加する。型ごとに定められた初期値が代入される。">
<polygon fill="white" stroke="black" points="379,-536 379,-566 515,-566 515,-536 379,-536"/>
<text text-anchor="start" x="387" y="-554" font-family="Helvetica,sans-Serif" font-size="10.00">frame.FrameStackUni.alloc</text>
<text text-anchor="middle" x="447" y="-543" font-family="Helvetica,sans-Serif" font-size="10.00">VariableEntry</text>
</a>
</g>
</g>
<!-- Node18&#45;&gt;Node19 -->
<g id="edge20" class="edge">
<title>Node18&#45;&gt;Node19</title>
<path fill="none" stroke="midnightblue" d="M641.42,-408.63C624.36,-438.35 586.94,-496.23 539,-527 531.71,-531.68 523.54,-535.45 515.17,-538.48"/>
<polygon fill="midnightblue" stroke="midnightblue" points="644.58,-410.15 646.41,-399.72 638.47,-406.74 644.58,-410.15"/>
</g>
<!-- Node20 -->
<g id="node20" class="node">
<title>Node20</title>
<g id="a_node20"><a xlink:href="classcmd_1_1_command_factory.html#a86f892ccd0ac694da35dd13dd56f8cbd" target="_top" xlink:title="値型xtに応じて，変数からの値の読み出し命令CmdLoadを返すファクトリ手続き．">
<polygon fill="white" stroke="black" points="374.5,-487 374.5,-517 519.5,-517 519.5,-487 374.5,-487"/>
<text text-anchor="start" x="382.5" y="-505" font-family="Helvetica,sans-Serif" font-size="10.00">cmd.CommandFactory.create</text>
<text text-anchor="middle" x="447" y="-494" font-family="Helvetica,sans-Serif" font-size="10.00">CmdLoad</text>
</a>
</g>
</g>
<!-- Node18&#45;&gt;Node20 -->
<g id="edge21" class="edge">
<title>Node18&#45;&gt;Node20</title>
<path fill="none" stroke="midnightblue" d="M634.54,-406.95C613.76,-426.79 576.65,-459.31 539,-478 532.12,-481.41 524.7,-484.38 517.17,-486.96"/>
<polygon fill="midnightblue" stroke="midnightblue" points="637.19,-409.26 641.92,-399.78 632.31,-404.24 637.19,-409.26"/>
</g>
<!-- Node21 -->
<g id="node21" class="node">
<title>Node21</title>
<g id="a_node21"><a xlink:href="classcmd_1_1_command_factory.html#af7c39735d3fc1647c72061c97e8debfd" target="_top" xlink:title="値型xtに応じて，値の変数への書き込み命令CmdStore命令を返すファクトリ手続き．">
<polygon fill="white" stroke="black" points="374.5,-438 374.5,-468 519.5,-468 519.5,-438 374.5,-438"/>
<text text-anchor="start" x="382.5" y="-456" font-family="Helvetica,sans-Serif" font-size="10.00">cmd.CommandFactory.create</text>
<text text-anchor="middle" x="447" y="-445" font-family="Helvetica,sans-Serif" font-size="10.00">CmdStore</text>
</a>
</g>
</g>
<!-- Node18&#45;&gt;Node21 -->
<g id="edge22" class="edge">
<title>Node18&#45;&gt;Node21</title>
<path fill="none" stroke="midnightblue" d="M614.79,-403C592.89,-410.6 564.47,-420.21 539,-428 528.03,-431.36 516.26,-434.75 504.94,-437.9"/>
<polygon fill="midnightblue" stroke="midnightblue" points="616.07,-406.26 624.36,-399.66 613.77,-399.65 616.07,-406.26"/>
</g>
<!-- Node22 -->
<g id="node22" class="node">
<title>Node22</title>
<g id="a_node22"><a xlink:href="classframe_1_1_entry.html#a3137357d0abb2bd75321d6e19024956a" target="_top" xlink:title="メモリセルを表す文字列を返す。">
<polygon fill="white" stroke="black" points="403,-399.5 403,-418.5 491,-418.5 491,-399.5 403,-399.5"/>
<text text-anchor="middle" x="447" y="-406.5" font-family="Helvetica,sans-Serif" font-size="10.00">frame.Entry.data</text>
</a>
</g>
</g>
<!-- Node18&#45;&gt;Node22 -->
<g id="edge24" class="edge">
<title>Node18&#45;&gt;Node22</title>
<path fill="none" stroke="midnightblue" d="M599.26,-394.88C565.74,-398.01 522.74,-402.02 491.16,-404.97"/>
<polygon fill="midnightblue" stroke="midnightblue" points="599.7,-398.35 609.33,-393.94 599.05,-391.38 599.7,-398.35"/>
</g>
<!-- Node24 -->
<g id="node24" class="node">
<title>Node24</title>
<g id="a_node24"><a xlink:href="classmachine_1_1_var.html#a3137357d0abb2bd75321d6e19024956a" target="_top" xlink:title="ノードが保持するデータの文字列表現を返す. interface XFormattableで必要。">
<polygon fill="white" stroke="black" points="401,-361.5 401,-380.5 493,-380.5 493,-361.5 401,-361.5"/>
<text text-anchor="middle" x="447" y="-368.5" font-family="Helvetica,sans-Serif" font-size="10.00">machine.Var.data</text>
</a>
</g>
</g>
<!-- Node18&#45;&gt;Node24 -->
<g id="edge26" class="edge">
<title>Node18&#45;&gt;Node24</title>
<path fill="none" stroke="midnightblue" d="M599.04,-385.1C566.3,-382.05 524.59,-378.15 493.29,-375.23"/>
<polygon fill="midnightblue" stroke="midnightblue" points="599.05,-388.62 609.33,-386.06 599.7,-381.65 599.05,-388.62"/>
</g>
<!-- Node25 -->
<g id="node25" class="node">
<title>Node25</title>
<g id="a_node25"><a xlink:href="classframe_1_1_frame_stack_uni.html#ad115983756ebf37cb4541323bb500f58" target="_top" xlink:title="フレームfpで変数IDがさすBooleanHolder型のコンテナを取得する. exp.">
<polygon fill="white" stroke="black" points="378.5,-312 378.5,-342 515.5,-342 515.5,-312 378.5,-312"/>
<text text-anchor="start" x="386.5" y="-330" font-family="Helvetica,sans-Serif" font-size="10.00">frame.FrameStackUni.fetch</text>
<text text-anchor="middle" x="447" y="-319" font-family="Helvetica,sans-Serif" font-size="10.00">BooleanHolder</text>
</a>
</g>
</g>
<!-- Node18&#45;&gt;Node25 -->
<g id="edge27" class="edge">
<title>Node18&#45;&gt;Node25</title>
<path fill="none" stroke="midnightblue" d="M599.3,-378.84C591.07,-376.56 582.73,-373.95 575,-371 558.1,-364.55 555.82,-358.66 539,-352 529.71,-348.32 519.68,-344.98 509.79,-342.02"/>
<polygon fill="midnightblue" stroke="midnightblue" points="598.69,-382.29 609.25,-381.44 600.46,-375.52 598.69,-382.29"/>
</g>
<!-- Node26 -->
<g id="node26" class="node">
<title>Node26</title>
<g id="a_node26"><a xlink:href="classframe_1_1_frame_stack_uni.html#a044e14a4aace8751c934473c9f3f3c0b" target="_top" xlink:title="フレームfpで変数IDがさすDoubleHolder型のコンテナを取得する. exp.">
<polygon fill="white" stroke="black" points="378.5,-263 378.5,-293 515.5,-293 515.5,-263 378.5,-263"/>
<text text-anchor="start" x="386.5" y="-281" font-family="Helvetica,sans-Serif" font-size="10.00">frame.FrameStackUni.fetch</text>
<text text-anchor="middle" x="447" y="-270" font-family="Helvetica,sans-Serif" font-size="10.00">DoubleHolder</text>
</a>
</g>
</g>
<!-- Node18&#45;&gt;Node26 -->
<g id="edge28" class="edge">
<title>Node18&#45;&gt;Node26</title>
<path fill="none" stroke="midnightblue" d="M599.44,-383.35C590.68,-380.54 582.13,-376.57 575,-371 548.06,-349.93 565.68,-324.4 539,-303 532.1,-297.46 524.06,-293.15 515.67,-289.79"/>
<polygon fill="midnightblue" stroke="midnightblue" points="598.78,-386.8 609.35,-386.06 600.63,-380.04 598.78,-386.8"/>
</g>
<!-- Node27 -->
<g id="node27" class="node">
<title>Node27</title>
<g id="a_node27"><a xlink:href="classframe_1_1_frame_stack_uni.html#a0d179bee2c2a63bd7f49f8f2494f9c97" target="_top" xlink:title="フレームfpで変数IDがさすIntegerHolder型のコンテナを取得する.">
<polygon fill="white" stroke="black" points="378.5,-214 378.5,-244 515.5,-244 515.5,-214 378.5,-214"/>
<text text-anchor="start" x="386.5" y="-232" font-family="Helvetica,sans-Serif" font-size="10.00">frame.FrameStackUni.fetch</text>
<text text-anchor="middle" x="447" y="-221" font-family="Helvetica,sans-Serif" font-size="10.00">IntegerHolder</text>
</a>
</g>
</g>
<!-- Node18&#45;&gt;Node27 -->
<g id="edge29" class="edge">
<title>Node18&#45;&gt;Node27</title>
<path fill="none" stroke="midnightblue" d="M599.38,-384.7C590.4,-381.77 581.79,-377.42 575,-371 535.48,-333.6 578.05,-291.88 539,-254 532.41,-247.61 524.36,-242.82 515.78,-239.24"/>
<polygon fill="midnightblue" stroke="midnightblue" points="598.63,-388.12 609.19,-387.34 600.45,-381.36 598.63,-388.12"/>
</g>
<!-- Node28 -->
<g id="node28" class="node">
<title>Node28</title>
<g id="a_node28"><a xlink:href="classframe_1_1_frame_stack_uni.html#a23824a7fbc3f712377edcf8c3ab252c1" target="_top" xlink:title="フレームfpで変数IDがさすStringHolder型のコンテナを取得する.">
<polygon fill="white" stroke="black" points="378.5,-165 378.5,-195 515.5,-195 515.5,-165 378.5,-165"/>
<text text-anchor="start" x="386.5" y="-183" font-family="Helvetica,sans-Serif" font-size="10.00">frame.FrameStackUni.fetch</text>
<text text-anchor="middle" x="447" y="-172" font-family="Helvetica,sans-Serif" font-size="10.00">StringHolder</text>
</a>
</g>
</g>
<!-- Node18&#45;&gt;Node28 -->
<g id="edge30" class="edge">
<title>Node18&#45;&gt;Node28</title>
<path fill="none" stroke="midnightblue" d="M599.22,-385.25C590.17,-382.28 581.58,-377.78 575,-371 522.42,-316.83 590.91,-259.82 539,-205 532.58,-198.22 524.51,-193.22 515.83,-189.54"/>
<polygon fill="midnightblue" stroke="midnightblue" points="598.57,-388.7 609.13,-387.89 600.37,-381.93 598.57,-388.7"/>
</g>
<!-- Node29 -->
<g id="node29" class="node">
<title>Node29</title>
<g id="a_node29"><a xlink:href="classmachine_1_1_var_table.html#a48c387cd3361c4f21e65cb65029ec21a" target="_top" xlink:title="与えられた名前をもつ変数を記号表で見つけて返し， もし見つからなければ，Universe.createVariable(name)で， 最汎型をもつ新しい変数を生成して返す．">
<polygon fill="white" stroke="black" points="367,-126.5 367,-145.5 527,-145.5 527,-126.5 367,-126.5"/>
<text text-anchor="middle" x="447" y="-133.5" font-family="Helvetica,sans-Serif" font-size="10.00">machine.VarTable.lookupVariable</text>
</a>
</g>
</g>
<!-- Node18&#45;&gt;Node29 -->
<g id="edge31" class="edge">
<title>Node18&#45;&gt;Node29</title>
<path fill="none" stroke="midnightblue" d="M599.53,-385.68C590.3,-382.7 581.55,-378.08 575,-371 509.2,-299.89 605.76,-226.21 539,-156 534.99,-151.78 530.3,-148.35 525.22,-145.57"/>
<polygon fill="midnightblue" stroke="midnightblue" points="598.7,-389.08 609.26,-388.23 600.47,-382.31 598.7,-389.08"/>
</g>
<!-- Node21&#45;&gt;Node6 -->
<g id="edge23" class="edge">
<title>Node21&#45;&gt;Node6</title>
<path fill="none" stroke="midnightblue" d="M365.36,-470.55C361.69,-472.75 358.2,-475.22 355,-478 283.94,-539.65 262.11,-661.64 257.2,-696.5"/>
<polygon fill="midnightblue" stroke="midnightblue" points="367.01,-473.64 374.25,-465.9 363.77,-467.44 367.01,-473.64"/>
</g>
<!-- Node23 -->
<g id="node23" class="node">
<title>Node23</title>
<g id="a_node23"><a xlink:href="classframe_1_1_entry.html#ad146fa8579a5f8a876c4688cc5a68520" target="_top" xlink:title="メモリセルの内容を表す文字列を返す。">
<polygon fill="white" stroke="black" points="203.5,-399.5 203.5,-418.5 306.5,-418.5 306.5,-399.5 203.5,-399.5"/>
<text text-anchor="middle" x="255" y="-406.5" font-family="Helvetica,sans-Serif" font-size="10.00">frame.Entry.toString</text>
</a>
</g>
</g>
<!-- Node22&#45;&gt;Node23 -->
<g id="edge25" class="edge">
<title>Node22&#45;&gt;Node23</title>
<path fill="none" stroke="midnightblue" d="M392.85,-409C365.89,-409 333.3,-409 306.69,-409"/>
<polygon fill="midnightblue" stroke="midnightblue" points="392.89,-412.5 402.89,-409 392.89,-405.5 392.89,-412.5"/>
</g>
<!-- Node32 -->
<g id="node32" class="node">
<title>Node32</title>
<g id="a_node32"><a xlink:href="classtype_1_1_child_hom_typing.html#a63c4b84e072ab3ea55255ba2d1259643" target="_top" xlink:title="子として，型をもつ型項を追加する．">
<polygon fill="white" stroke="black" points="371,-88.5 371,-107.5 523,-107.5 523,-88.5 371,-88.5"/>
<text text-anchor="middle" x="447" y="-95.5" font-family="Helvetica,sans-Serif" font-size="10.00">type.ChildHomTyping.addChild</text>
</a>
</g>
</g>
<!-- Node31&#45;&gt;Node32 -->
<g id="edge34" class="edge">
<title>Node31&#45;&gt;Node32</title>
<path fill="none" stroke="midnightblue" d="M623.28,-79.05C597.53,-81.83 558.29,-86.08 523.46,-89.84"/>
<polygon fill="midnightblue" stroke="midnightblue" points="623.87,-82.51 633.44,-77.95 623.12,-75.55 623.87,-82.51"/>
</g>
<!-- Node33 -->
<g id="node33" class="node">
<title>Node33</title>
<g id="a_node33"><a xlink:href="classast_1_1_ast_data_reader_1_1_reader_type.html#ac0ca6c71c4f94d5ff0234b32be2bb88b" target="_top" xlink:title="局所変数を設定する.">
<polygon fill="white" stroke="black" points="380,-39 380,-69 514,-69 514,-39 380,-39"/>
<text text-anchor="start" x="388" y="-57" font-family="Helvetica,sans-Serif" font-size="10.00">ast.AstDataReader.Reader</text>
<text text-anchor="middle" x="447" y="-46" font-family="Helvetica,sans-Serif" font-size="10.00">Type.setVar</text>
</a>
</g>
</g>
<!-- Node31&#45;&gt;Node33 -->
<g id="edge35" class="edge">
<title>Node31&#45;&gt;Node33</title>
<path fill="none" stroke="midnightblue" d="M623.15,-72.94C595.07,-69.9 551.03,-65.14 514.14,-61.15"/>
<polygon fill="midnightblue" stroke="midnightblue" points="623.12,-76.45 633.44,-74.05 623.87,-69.49 623.12,-76.45"/>
</g>
<!-- Node34 -->
<g id="node34" class="node">
<title>Node34</title>
<g id="a_node34"><a xlink:href="classast_1_1_ast_var_decl.html#aac5a6aca6e9901b9d87d6e19dda5e2ee" target="_top" xlink:title="@breif">
<polygon fill="white" stroke="black" points="390.5,-0.5 390.5,-19.5 503.5,-19.5 503.5,-0.5 390.5,-0.5"/>
<text text-anchor="middle" x="447" y="-7.5" font-family="Helvetica,sans-Serif" font-size="10.00">ast.AstVarDecl.setVar</text>
</a>
</g>
</g>
<!-- Node31&#45;&gt;Node34 -->
<g id="edge36" class="edge">
<title>Node31&#45;&gt;Node34</title>
<path fill="none" stroke="midnightblue" d="M623.94,-62.75C601.5,-52.39 568.76,-38.23 539,-29 527.28,-25.37 514.51,-22.22 502.33,-19.58"/>
<polygon fill="midnightblue" stroke="midnightblue" points="622.65,-66.01 633.19,-67.08 625.61,-59.67 622.65,-66.01"/>
</g>
</g>
</svg>
        <g id="navigator" transform="translate(0 0)" fill="#404254">
                <rect fill="#f2f5e9" fill-opacity="0.5" stroke="#606060" stroke-width=".5" x="0" y="0" width="60" height="60"/>
                <use id="zoomplus" xlink:href="#zoomPlus" x="17" y="9" onmousedown="handleZoom(evt,'in')"/>
                <use id="zoomminus" xlink:href="#zoomMin" x="42" y="9" onmousedown="handleZoom(evt,'out')"/>
                <use id="reset" xlink:href="#resetDef" x="30" y="36" onmousedown="handleReset()"/>
                <g id="arrowUp" xlink:href="#dirArrow" transform="translate(30 24)" onmousedown="handlePan(0,-1)">
                  <use xlink:href="#rim" fill="#404040">
                        <set attributeName="fill" to="#808080" begin="arrowUp.mouseover" end="arrowUp.mouseout"/>
                  </use>
                  <path fill="none" stroke="white" stroke-width="1.5" d="M0,-3.0v7 M-2.5,-0.5L0,-3.0L2.5,-0.5"/>
                </g>
                <g id="arrowRight" xlink:href="#dirArrow" transform="rotate(90) translate(36 -43)" onmousedown="handlePan(1,0)">
                  <use xlink:href="#rim" fill="#404040">
                        <set attributeName="fill" to="#808080" begin="arrowRight.mouseover" end="arrowRight.mouseout"/>
                  </use>
                  <path fill="none" stroke="white" stroke-width="1.5" d="M0,-3.0v7 M-2.5,-0.5L0,-3.0L2.5,-0.5"/>
                </g>
                <g id="arrowDown" xlink:href="#dirArrow" transform="rotate(180) translate(-30 -48)" onmousedown="handlePan(0,1)">
                  <use xlink:href="#rim" fill="#404040">
                        <set attributeName="fill" to="#808080" begin="arrowDown.mouseover" end="arrowDown.mouseout"/>
                  </use>
                  <path fill="none" stroke="white" stroke-width="1.5" d="M0,-3.0v7 M-2.5,-0.5L0,-3.0L2.5,-0.5"/>
                </g>
                <g id="arrowLeft" xlink:href="#dirArrow" transform="rotate(270) translate(-36 17)" onmousedown="handlePan(-1,0)">
                  <use xlink:href="#rim" fill="#404040">
                        <set attributeName="fill" to="#808080" begin="arrowLeft.mouseover" end="arrowLeft.mouseout"/>
                  </use>
                  <path fill="none" stroke="white" stroke-width="1.5" d="M0,-3.0v7 M-2.5,-0.5L0,-3.0L2.5,-0.5"/>
                </g>
        </g>
        <svg viewBox="0 0 15 15" width="100%" height="30px" preserveAspectRatio="xMaxYMin meet">
         <g id="arrow_out" transform="scale(0.3 0.3)">
          <a xlink:href="classtype_1_1_x_type_item_a376d814d15cc5ae21afd6425d0780ad9_icgraph_org.svg" target="_base">
           <rect id="button" ry="5" rx="5" y="6" x="6" height="38" width="38"
                fill="#f2f5e9" fill-opacity="0.5" stroke="#606060" stroke-width="1.0"/>
           <path id="arrow"
             d="M 11.500037,31.436501 C 11.940474,20.09759 22.043105,11.32322 32.158766,21.979434 L 37.068811,17.246167 C 37.068811,17.246167 37.088388,32 37.088388,32 L 22.160133,31.978069 C 22.160133,31.978069 26.997745,27.140456 26.997745,27.140456 C 18.528582,18.264221 13.291696,25.230495 11.500037,31.436501 z"
             style="fill:#404040;"/>
          </a>
         </g>
        </svg>
</svg>
