<?xml version="1.0" encoding="UTF-8" standalone="no"?>
<!DOCTYPE svg PUBLIC "-//W3C//DTD SVG 1.1//EN"
 "http://www.w3.org/Graphics/SVG/1.1/DTD/svg11.dtd">
<!-- Generated by graphviz version 2.47.1 (20210417.1919)
 -->
<!-- Title: ArrowType Pages: 1 -->
<svg width="354pt" height="253pt"
 viewBox="0.00 0.00 353.50 253.00" xmlns="http://www.w3.org/2000/svg" xmlns:xlink="http://www.w3.org/1999/xlink">
<g id="graph0" class="graph" transform="scale(1 1) rotate(0) translate(4 249)">
<title>ArrowType</title>
<polygon fill="white" stroke="transparent" points="-4,4 -4,-249 349.5,-249 349.5,4 -4,4"/>
<!-- Node1 -->
<g id="node1" class="node">
<title>Node1</title>
<g id="a_node1"><a xlink:title="基本的な関数型のクラス">
<polygon fill="#bfbfbf" stroke="black" points="88.5,-0.5 88.5,-19.5 151.5,-19.5 151.5,-0.5 88.5,-0.5"/>
<text text-anchor="middle" x="120" y="-7.5" font-family="Helvetica,sans-Serif" font-size="10.00">ArrowType</text>
</a>
</g>
</g>
<!-- Node2 -->
<g id="node2" class="node">
<title>Node2</title>
<g id="a_node2"><a xlink:href="interfacetype_1_1_typable.html" target="_top" xlink:title="抽象ノードがもつ関数型のインタフェース">
<polygon fill="white" stroke="black" points="1,-68.5 1,-87.5 51,-87.5 51,-68.5 1,-68.5"/>
<text text-anchor="middle" x="26" y="-75.5" font-family="Helvetica,sans-Serif" font-size="10.00">Typable</text>
</a>
</g>
</g>
<!-- Node2&#45;&gt;Node1 -->
<g id="edge1" class="edge">
<title>Node2&#45;&gt;Node1</title>
<path fill="none" stroke="midnightblue" d="M42.91,-61.77C51.62,-54.24 62.57,-45.24 73,-38 82.74,-31.24 94.28,-24.59 103.48,-19.58"/>
<polygon fill="midnightblue" stroke="midnightblue" points="40.53,-59.2 35.34,-68.43 45.16,-64.45 40.53,-59.2"/>
</g>
<!-- Node3 -->
<g id="node3" class="node">
<title>Node3</title>
<g id="a_node3"><a xlink:href="classtype_1_1_type_item.html" target="_top" xlink:title="XTypeの値型をもち単一化を行う型アイテムのクラス．">
<polygon fill="white" stroke="black" points="157.5,-68.5 157.5,-87.5 214.5,-87.5 214.5,-68.5 157.5,-68.5"/>
<text text-anchor="middle" x="186" y="-75.5" font-family="Helvetica,sans-Serif" font-size="10.00">TypeItem</text>
</a>
</g>
</g>
<!-- Node3&#45;&gt;Node1 -->
<g id="edge2" class="edge">
<title>Node3&#45;&gt;Node1</title>
<path fill="none" stroke="#9a32cd" stroke-dasharray="5,2" d="M170.05,-61.05C157.11,-48.11 139.36,-30.36 128.84,-19.84"/>
<polygon fill="#9a32cd" stroke="#9a32cd" points="167.83,-63.78 177.37,-68.37 172.78,-58.83 167.83,-63.78"/>
<text text-anchor="middle" x="166.5" y="-41" font-family="Helvetica,sans-Serif" font-size="10.00"> self</text>
</g>
<!-- Node4 -->
<g id="node4" class="node">
<title>Node4</title>
<g id="a_node4"><a xlink:href="enumtype_1_1_x_type.html" target="_top" xlink:title="式がもつ値の型のクラス．Kotlin言語の型システムを参考にしている． 次の型をもつ．">
<polygon fill="white" stroke="black" points="65,-136.5 65,-155.5 109,-155.5 109,-136.5 65,-136.5"/>
<text text-anchor="middle" x="87" y="-143.5" font-family="Helvetica,sans-Serif" font-size="10.00">XType</text>
</a>
</g>
</g>
<!-- Node4&#45;&gt;Node1 -->
<g id="edge9" class="edge">
<title>Node4&#45;&gt;Node1</title>
<path fill="none" stroke="#9a32cd" stroke-dasharray="5,2" d="M87.65,-126.01C88.57,-110.04 90.76,-86.72 96,-67 100.62,-49.62 109.69,-30.63 115.26,-19.83"/>
<polygon fill="#9a32cd" stroke="#9a32cd" points="84.15,-126.04 87.19,-136.19 91.14,-126.36 84.15,-126.04"/>
<text text-anchor="middle" x="122" y="-81" font-family="Helvetica,sans-Serif" font-size="10.00"> forcedType</text>
<text text-anchor="middle" x="122" y="-70" font-family="Helvetica,sans-Serif" font-size="10.00">nativeType</text>
</g>
<!-- Node4&#45;&gt;Node3 -->
<g id="edge3" class="edge">
<title>Node4&#45;&gt;Node3</title>
<path fill="none" stroke="#9a32cd" stroke-dasharray="5,2" d="M103.6,-129.44C111.8,-122.16 122.06,-113.65 132,-107 143.06,-99.6 156.31,-92.7 166.92,-87.6"/>
<polygon fill="#9a32cd" stroke="#9a32cd" points="101.21,-126.88 96.17,-136.2 105.92,-132.06 101.21,-126.88"/>
<text text-anchor="middle" x="160" y="-110" font-family="Helvetica,sans-Serif" font-size="10.00"> typeConflict</text>
</g>
<!-- Node5 -->
<g id="node5" class="node">
<title>Node5</title>
<g id="a_node5"><a xlink:title=" ">
<polygon fill="white" stroke="#bfbfbf" points="0,-225.5 0,-244.5 42,-244.5 42,-225.5 0,-225.5"/>
<text text-anchor="middle" x="21" y="-232.5" font-family="Helvetica,sans-Serif" font-size="10.00">String</text>
</a>
</g>
</g>
<!-- Node5&#45;&gt;Node4 -->
<g id="edge4" class="edge">
<title>Node5&#45;&gt;Node4</title>
<path fill="none" stroke="#9a32cd" stroke-dasharray="5,2" d="M23.3,-215.33C25.68,-202.55 30.46,-185.85 40,-174 46.49,-165.94 56.08,-159.82 64.91,-155.46"/>
<polygon fill="#9a32cd" stroke="#9a32cd" points="19.82,-214.91 21.77,-225.33 26.74,-215.97 19.82,-214.91"/>
<text text-anchor="middle" x="61.5" y="-199" font-family="Helvetica,sans-Serif" font-size="10.00"> name</text>
<text text-anchor="middle" x="61.5" y="-188" font-family="Helvetica,sans-Serif" font-size="10.00">nickname</text>
<text text-anchor="middle" x="61.5" y="-177" font-family="Helvetica,sans-Serif" font-size="10.00">prefix</text>
</g>
<!-- Node6 -->
<g id="node6" class="node">
<title>Node6</title>
<g id="a_node6"><a xlink:title=" ">
<polygon fill="white" stroke="#bfbfbf" points="72.5,-225.5 72.5,-244.5 101.5,-244.5 101.5,-225.5 72.5,-225.5"/>
<text text-anchor="middle" x="87" y="-232.5" font-family="Helvetica,sans-Serif" font-size="10.00">int</text>
</a>
</g>
</g>
<!-- Node6&#45;&gt;Node4 -->
<g id="edge5" class="edge">
<title>Node6&#45;&gt;Node4</title>
<path fill="none" stroke="#9a32cd" stroke-dasharray="5,2" d="M87,-215.19C87,-196.74 87,-169.41 87,-155.62"/>
<polygon fill="#9a32cd" stroke="#9a32cd" points="83.5,-215.34 87,-225.34 90.5,-215.34 83.5,-215.34"/>
<text text-anchor="middle" x="121" y="-188" font-family="Helvetica,sans-Serif" font-size="10.00"> FLAG_WIDTH</text>
</g>
<!-- Node7 -->
<g id="node7" class="node">
<title>Node7</title>
<g id="a_node7"><a xlink:title=" ">
<polygon fill="white" stroke="#bfbfbf" points="160.5,-225.5 160.5,-244.5 195.5,-244.5 195.5,-225.5 160.5,-225.5"/>
<text text-anchor="middle" x="178" y="-232.5" font-family="Helvetica,sans-Serif" font-size="10.00">long</text>
</a>
</g>
</g>
<!-- Node7&#45;&gt;Node4 -->
<g id="edge6" class="edge">
<title>Node7&#45;&gt;Node4</title>
<path fill="none" stroke="#9a32cd" stroke-dasharray="5,2" d="M175.28,-215.26C172.49,-202.19 166.92,-185.16 156,-174 149.25,-167.1 126.72,-159.02 109.22,-153.51"/>
<polygon fill="#9a32cd" stroke="#9a32cd" points="171.9,-216.24 177.09,-225.48 178.79,-215.02 171.9,-216.24"/>
<text text-anchor="middle" x="227.5" y="-193.5" font-family="Helvetica,sans-Serif" font-size="10.00"> FLAG_RETURN_TYPE</text>
<text text-anchor="middle" x="227.5" y="-182.5" font-family="Helvetica,sans-Serif" font-size="10.00">flag</text>
</g>
<!-- Node8 -->
<g id="node8" class="node">
<title>Node8</title>
<g id="a_node8"><a xlink:href="classtype_1_1_union_find_item.html" target="_top" xlink:title=" ">
<polygon fill="white" stroke="black" points="127,-136.5 127,-155.5 275,-155.5 275,-136.5 127,-136.5"/>
<text text-anchor="middle" x="201" y="-143.5" font-family="Helvetica,sans-Serif" font-size="10.00">UnionFindItem&lt; type.XType &gt;</text>
</a>
</g>
</g>
<!-- Node8&#45;&gt;Node3 -->
<g id="edge7" class="edge">
<title>Node8&#45;&gt;Node3</title>
<path fill="none" stroke="#9a32cd" stroke-dasharray="5,2" d="M196.78,-126.42C193.91,-113.8 190.24,-97.66 188.01,-87.84"/>
<polygon fill="#9a32cd" stroke="#9a32cd" points="193.41,-127.4 199.04,-136.37 200.24,-125.84 193.41,-127.4"/>
<text text-anchor="middle" x="209.5" y="-110" font-family="Helvetica,sans-Serif" font-size="10.00"> ufitem</text>
</g>
<!-- Node9 -->
<g id="node9" class="node">
<title>Node9</title>
<g id="a_node9"><a xlink:title=" ">
<polygon fill="white" stroke="#bfbfbf" points="232.5,-68.5 232.5,-87.5 345.5,-87.5 345.5,-68.5 232.5,-68.5"/>
<text text-anchor="middle" x="289" y="-75.5" font-family="Helvetica,sans-Serif" font-size="10.00">List&lt; type.TypeItem &gt;</text>
</a>
</g>
</g>
<!-- Node9&#45;&gt;Node1 -->
<g id="edge8" class="edge">
<title>Node9&#45;&gt;Node1</title>
<path fill="none" stroke="#9a32cd" stroke-dasharray="5,2" d="M257.52,-64.71C223.82,-51.55 171.25,-31.02 141.83,-19.53"/>
<polygon fill="#9a32cd" stroke="#9a32cd" points="256.32,-67.99 266.91,-68.37 258.86,-61.47 256.32,-67.99"/>
<text text-anchor="middle" x="235.5" y="-41" font-family="Helvetica,sans-Serif" font-size="10.00"> children_</text>
</g>
</g>
</svg>
