<?xml version="1.0" encoding="UTF-8" standalone="no"?>
<!DOCTYPE svg PUBLIC "-//W3C//DTD SVG 1.1//EN"
 "http://www.w3.org/Graphics/SVG/1.1/DTD/svg11.dtd">
<!-- Generated by graphviz version 2.38.0 (20140413.2041)
 -->
<!-- Title: Command Pages: 1 -->
<svg width="760pt" height="783pt"
 viewBox="0.00 0.00 760.34 783.00" xmlns="http://www.w3.org/2000/svg" xmlns:xlink="http://www.w3.org/1999/xlink">
<g id="graph0" class="graph" transform="scale(1 1) rotate(0) translate(4 779)">
<title>Command</title>
<polygon fill="white" stroke="none" points="-4,4 -4,-779 756.345,-779 756.345,4 -4,4"/>
<!-- Node1 -->
<g id="node1" class="node"><title>Node1</title>
<g id="a_node1"><a xlink:title="局所変数環境に値を書き込む式の抽象クラス.">
<polygon fill="#bfbfbf" stroke="black" points="314.635,-413.5 314.635,-431.5 376.763,-431.5 376.763,-413.5 314.635,-413.5"/>
<text text-anchor="middle" x="345.699" y="-419.5" font-family="Helvetica,sans-Serif" font-size="10.00">Command</text>
</a>
</g>
</g>
<!-- Node5 -->
<g id="node5" class="node"><title>Node5</title>
<g id="a_node5"><a xlink:href="classmachine_1_1_command_1_1_cmd_get_text.html" target="_top" xlink:title="テキスト読み出し命令: 終端ノードのテキスト値を返す．">
<polygon fill="white" stroke="black" points="441.854,-756.5 441.854,-774.5 562.332,-774.5 562.332,-756.5 441.854,-756.5"/>
<text text-anchor="middle" x="502.093" y="-762.5" font-family="Helvetica,sans-Serif" font-size="10.00">Command.CmdGetText</text>
</a>
</g>
</g>
<!-- Node1&#45;&gt;Node5 -->
<g id="edge4" class="edge"><title>Node1&#45;&gt;Node5</title>
<path fill="none" stroke="midnightblue" d="M347.922,-441.709C352.32,-504.582 369.432,-702.702 412.763,-746.5 420.595,-754.417 430.878,-759.404 441.648,-762.478"/>
<polygon fill="midnightblue" stroke="midnightblue" points="351.406,-441.354 347.245,-431.61 344.422,-441.822 351.406,-441.354"/>
</g>
<!-- Node6 -->
<g id="node6" class="node"><title>Node6</title>
<g id="a_node6"><a xlink:href="classmachine_1_1_command_1_1_cmd_n_o_p.html" target="_top" xlink:title="何もしない命令．">
<polygon fill="white" stroke="black" points="448.249,-719.5 448.249,-737.5 555.938,-737.5 555.938,-719.5 448.249,-719.5"/>
<text text-anchor="middle" x="502.093" y="-725.5" font-family="Helvetica,sans-Serif" font-size="10.00">Command.CmdNOP</text>
</a>
</g>
</g>
<!-- Node1&#45;&gt;Node6 -->
<g id="edge5" class="edge"><title>Node1&#45;&gt;Node6</title>
<path fill="none" stroke="midnightblue" d="M348.472,-441.751C354.212,-499.802 374.188,-671.476 412.763,-709.5 422.258,-718.86 435.186,-724.099 448.22,-726.922"/>
<polygon fill="midnightblue" stroke="midnightblue" points="351.95,-441.35 347.513,-431.729 344.982,-442.017 351.95,-441.35"/>
</g>
<!-- Node8 -->
<g id="node8" class="node"><title>Node8</title>
<g id="a_node8"><a xlink:href="classmachine_1_1_command_1_1_command_storage.html" target="_top" xlink:title=" ">
<polygon fill="white" stroke="black" points="429.064,-682.5 429.064,-700.5 575.123,-700.5 575.123,-682.5 429.064,-682.5"/>
<text text-anchor="middle" x="502.093" y="-688.5" font-family="Helvetica,sans-Serif" font-size="10.00">Command.CommandStorage</text>
</a>
</g>
</g>
<!-- Node1&#45;&gt;Node8 -->
<g id="edge7" class="edge"><title>Node1&#45;&gt;Node8</title>
<path fill="none" stroke="midnightblue" d="M349.162,-441.647C356.337,-494.413 378.879,-640.156 412.763,-672.5 417.415,-676.941 422.842,-680.446 428.678,-683.202"/>
<polygon fill="midnightblue" stroke="midnightblue" points="352.616,-441.068 347.833,-431.615 345.677,-441.988 352.616,-441.068"/>
</g>
<!-- Node11 -->
<g id="node11" class="node"><title>Node11</title>
<g id="a_node11"><a xlink:href="classmachine_1_1_command_boolean_1_1_cmd_bool_and.html" target="_top" xlink:title="論理積命令">
<polygon fill="white" stroke="black" points="421.83,-645.5 421.83,-663.5 582.356,-663.5 582.356,-645.5 421.83,-645.5"/>
<text text-anchor="middle" x="502.093" y="-651.5" font-family="Helvetica,sans-Serif" font-size="10.00">CommandBoolean.CmdBoolAnd</text>
</a>
</g>
</g>
<!-- Node1&#45;&gt;Node11 -->
<g id="edge10" class="edge"><title>Node1&#45;&gt;Node11</title>
<path fill="none" stroke="midnightblue" d="M346.614,-441.884C347.547,-483.858 355.98,-583.552 412.763,-635.5 417.161,-639.523 422.199,-642.771 427.591,-645.384"/>
<polygon fill="midnightblue" stroke="midnightblue" points="350.114,-441.84 346.515,-431.876 343.114,-441.91 350.114,-441.84"/>
</g>
<!-- Node12 -->
<g id="node12" class="node"><title>Node12</title>
<g id="a_node12"><a xlink:href="classmachine_1_1_command_boolean_1_1_cmd_bool_not.html" target="_top" xlink:title="論理否定命令">
<polygon fill="white" stroke="black" points="422.946,-608.5 422.946,-626.5 581.241,-626.5 581.241,-608.5 422.946,-608.5"/>
<text text-anchor="middle" x="502.093" y="-614.5" font-family="Helvetica,sans-Serif" font-size="10.00">CommandBoolean.CmdBoolNot</text>
</a>
</g>
</g>
<!-- Node1&#45;&gt;Node12 -->
<g id="edge11" class="edge"><title>Node1&#45;&gt;Node12</title>
<path fill="none" stroke="midnightblue" d="M348.113,-442.211C351.85,-478.871 365.265,-557.526 412.763,-598.5 417.514,-602.598 422.936,-605.88 428.705,-608.5"/>
<polygon fill="midnightblue" stroke="midnightblue" points="351.568,-441.542 347.209,-431.885 344.595,-442.152 351.568,-441.542"/>
</g>
<!-- Node13 -->
<g id="node13" class="node"><title>Node13</title>
<g id="a_node13"><a xlink:href="classmachine_1_1_command_boolean_1_1_cmd_bool_opr.html" target="_top" xlink:title="論理二項演算命令">
<polygon fill="white" stroke="black" points="422.392,-571.5 422.392,-589.5 581.795,-589.5 581.795,-571.5 422.392,-571.5"/>
<text text-anchor="middle" x="502.093" y="-577.5" font-family="Helvetica,sans-Serif" font-size="10.00">CommandBoolean.CmdBoolOpr</text>
</a>
</g>
</g>
<!-- Node1&#45;&gt;Node13 -->
<g id="edge12" class="edge"><title>Node1&#45;&gt;Node13</title>
<path fill="none" stroke="midnightblue" d="M350.241,-441.844C356.867,-472.252 374.121,-530.918 412.763,-561.5 417.929,-565.589 423.777,-568.847 429.945,-571.437"/>
<polygon fill="midnightblue" stroke="midnightblue" points="353.602,-440.804 348.199,-431.69 346.739,-442.184 353.602,-440.804"/>
</g>
<!-- Node14 -->
<g id="node14" class="node"><title>Node14</title>
<g id="a_node14"><a xlink:href="classmachine_1_1_command_boolean_1_1_cmd_bool_or.html" target="_top" xlink:title="論理和命令">
<polygon fill="white" stroke="black" points="425.172,-534.5 425.172,-552.5 579.014,-552.5 579.014,-534.5 425.172,-534.5"/>
<text text-anchor="middle" x="502.093" y="-540.5" font-family="Helvetica,sans-Serif" font-size="10.00">CommandBoolean.CmdBoolOr</text>
</a>
</g>
</g>
<!-- Node1&#45;&gt;Node14 -->
<g id="edge13" class="edge"><title>Node1&#45;&gt;Node14</title>
<path fill="none" stroke="midnightblue" d="M353.483,-441C363.013,-464.279 382.644,-503.719 412.763,-524.5 418.702,-528.598 425.358,-531.836 432.283,-534.392"/>
<polygon fill="midnightblue" stroke="midnightblue" points="356.701,-439.618 349.814,-431.567 350.177,-442.156 356.701,-439.618"/>
</g>
<!-- Node15 -->
<g id="node15" class="node"><title>Node15</title>
<g id="a_node15"><a xlink:href="classmachine_1_1_command_boolean_1_1_cmd_res_load.html" target="_top" xlink:title="状態ビット値を取り出す．">
<polygon fill="white" stroke="black" points="420.719,-497.5 420.719,-515.5 583.467,-515.5 583.467,-497.5 420.719,-497.5"/>
<text text-anchor="middle" x="502.093" y="-503.5" font-family="Helvetica,sans-Serif" font-size="10.00">CommandBoolean.CmdResLoad</text>
</a>
</g>
</g>
<!-- Node1&#45;&gt;Node15 -->
<g id="edge14" class="edge"><title>Node1&#45;&gt;Node15</title>
<path fill="none" stroke="midnightblue" d="M359.462,-439.687C371.524,-454.657 390.98,-475.753 412.763,-487.5 420.494,-491.669 429.07,-494.924 437.751,-497.464"/>
<polygon fill="midnightblue" stroke="midnightblue" points="362.153,-437.446 353.253,-431.698 356.626,-441.741 362.153,-437.446"/>
</g>
<!-- Node16 -->
<g id="node16" class="node"><title>Node16</title>
<g id="a_node16"><a xlink:href="classmachine_1_1_command_string_1_1_cmd_o_stream_store.html" target="_top" xlink:title="文字列変数にスタックトップの文字列を代入する．">
<polygon fill="white" stroke="black" points="426.017,-450.5 426.017,-478.5 578.169,-478.5 578.169,-450.5 426.017,-450.5"/>
<text text-anchor="start" x="434.017" y="-466.5" font-family="Helvetica,sans-Serif" font-size="10.00">CommandString.CmdOStream</text>
<text text-anchor="middle" x="502.093" y="-456.5" font-family="Helvetica,sans-Serif" font-size="10.00">Store</text>
</a>
</g>
</g>
<!-- Node1&#45;&gt;Node16 -->
<g id="edge15" class="edge"><title>Node1&#45;&gt;Node16</title>
<path fill="none" stroke="midnightblue" d="M386.764,-433.421C395.342,-435.758 404.353,-438.212 412.763,-440.5 424.57,-443.712 437.265,-447.164 449.247,-450.419"/>
<polygon fill="midnightblue" stroke="midnightblue" points="387.523,-430.001 376.955,-430.748 385.683,-436.754 387.523,-430.001"/>
</g>
<!-- Node17 -->
<g id="node17" class="node"><title>Node17</title>
<g id="a_node17"><a xlink:href="classmachine_1_1_command_string_1_1_cmd_str_add.html" target="_top" xlink:title="文字列加算命令">
<polygon fill="white" stroke="black" points="430.736,-413.5 430.736,-431.5 573.45,-431.5 573.45,-413.5 430.736,-413.5"/>
<text text-anchor="middle" x="502.093" y="-419.5" font-family="Helvetica,sans-Serif" font-size="10.00">CommandString.CmdStrAdd</text>
</a>
</g>
</g>
<!-- Node1&#45;&gt;Node17 -->
<g id="edge16" class="edge"><title>Node1&#45;&gt;Node17</title>
<path fill="none" stroke="midnightblue" d="M387.046,-422.5C400.342,-422.5 415.544,-422.5 430.42,-422.5"/>
<polygon fill="midnightblue" stroke="midnightblue" points="386.834,-419 376.834,-422.5 386.834,-426 386.834,-419"/>
</g>
<!-- Node18 -->
<g id="node18" class="node"><title>Node18</title>
<g id="a_node18"><a xlink:href="classmachine_1_1_command_string_1_1_cmd_str_regex_match.html" target="_top" xlink:title="正規表現照合命令">
<polygon fill="white" stroke="black" points="425.18,-366.5 425.18,-394.5 579.007,-394.5 579.007,-366.5 425.18,-366.5"/>
<text text-anchor="start" x="433.18" y="-382.5" font-family="Helvetica,sans-Serif" font-size="10.00">CommandString.CmdStrRegex</text>
<text text-anchor="middle" x="502.093" y="-372.5" font-family="Helvetica,sans-Serif" font-size="10.00">Match</text>
</a>
</g>
</g>
<!-- Node1&#45;&gt;Node18 -->
<g id="edge17" class="edge"><title>Node1&#45;&gt;Node18</title>
<path fill="none" stroke="midnightblue" d="M386.72,-410.814C395.301,-408.358 404.324,-405.812 412.763,-403.5 423.614,-400.527 435.24,-397.434 446.378,-394.517"/>
<polygon fill="midnightblue" stroke="midnightblue" points="385.553,-407.508 376.911,-413.637 387.489,-414.235 385.553,-407.508"/>
</g>
<!-- Node19 -->
<g id="node19" class="node"><title>Node19</title>
<g id="a_node19"><a xlink:href="classmachine_1_1_command_string_1_1_cmd_str_string_match.html" target="_top" xlink:title="部分文字列照合命令">
<polygon fill="white" stroke="black" points="426.571,-319.5 426.571,-347.5 577.615,-347.5 577.615,-319.5 426.571,-319.5"/>
<text text-anchor="start" x="434.571" y="-335.5" font-family="Helvetica,sans-Serif" font-size="10.00">CommandString.CmdStrString</text>
<text text-anchor="middle" x="502.093" y="-325.5" font-family="Helvetica,sans-Serif" font-size="10.00">Match</text>
</a>
</g>
</g>
<!-- Node1&#45;&gt;Node19 -->
<g id="edge18" class="edge"><title>Node1&#45;&gt;Node19</title>
<path fill="none" stroke="midnightblue" d="M359.529,-405.268C371.636,-390.215 391.12,-368.887 412.763,-356.5 418.814,-353.037 425.395,-350.084 432.144,-347.57"/>
<polygon fill="midnightblue" stroke="midnightblue" points="356.666,-403.247 353.293,-413.291 362.193,-407.543 356.666,-403.247"/>
</g>
<!-- Node20 -->
<g id="node20" class="node"><title>Node20</title>
<g id="a_node20"><a xlink:href="classmachine_1_1_command_string_1_1_cmd_str_sys_var_load.html" target="_top" xlink:title="スタックトップにシステム変数値を取り出す．">
<polygon fill="white" stroke="black" points="412.763,-282.5 412.763,-300.5 591.424,-300.5 591.424,-282.5 412.763,-282.5"/>
<text text-anchor="middle" x="502.093" y="-288.5" font-family="Helvetica,sans-Serif" font-size="10.00">CommandString.CmdStrSysVarLoad</text>
</a>
</g>
</g>
<!-- Node1&#45;&gt;Node20 -->
<g id="edge19" class="edge"><title>Node1&#45;&gt;Node20</title>
<path fill="none" stroke="midnightblue" d="M352.255,-403.819C360.862,-378.29 379.943,-332.999 412.763,-309.5 417.853,-305.856 423.508,-302.911 429.429,-300.535"/>
<polygon fill="midnightblue" stroke="midnightblue" points="348.894,-402.838 349.198,-413.429 355.565,-404.96 348.894,-402.838"/>
</g>
<!-- Node21 -->
<g id="node21" class="node"><title>Node21</title>
<g id="a_node21"><a xlink:href="classmachine_1_1_command_typed_1_1_cmd_str2_type.html" target="_top" xlink:title="OVMachine上の文字列値をInteger値に変換する命令．">
<polygon fill="white" stroke="black" points="424.794,-235.5 424.794,-263.5 579.393,-263.5 579.393,-235.5 424.794,-235.5"/>
<text text-anchor="start" x="432.794" y="-251.5" font-family="Helvetica,sans-Serif" font-size="10.00">CommandTyped&lt; T &gt;.CmdStr2</text>
<text text-anchor="middle" x="502.093" y="-241.5" font-family="Helvetica,sans-Serif" font-size="10.00">Type&lt; T &gt;</text>
</a>
</g>
</g>
<!-- Node1&#45;&gt;Node21 -->
<g id="edge20" class="edge"><title>Node1&#45;&gt;Node21</title>
<path fill="none" stroke="midnightblue" d="M349.677,-403.217C355.666,-371.155 372.241,-307.002 412.763,-272.5 416.865,-269.007 421.436,-266.036 426.278,-263.511"/>
<polygon fill="midnightblue" stroke="midnightblue" points="346.16,-403.017 347.924,-413.463 353.06,-404.197 346.16,-403.017"/>
</g>
<!-- Node22 -->
<g id="node22" class="node"><title>Node22</title>
<g id="a_node22"><a xlink:href="classmachine_1_1_command_typed_1_1_cmd_type_alloc_container.html" target="_top" xlink:title="Integer変数を割り当てる">
<polygon fill="white" stroke="black" points="423.122,-188.5 423.122,-216.5 581.065,-216.5 581.065,-188.5 423.122,-188.5"/>
<text text-anchor="start" x="431.122" y="-204.5" font-family="Helvetica,sans-Serif" font-size="10.00">CommandTyped&lt; T &gt;.CmdType</text>
<text text-anchor="middle" x="502.093" y="-194.5" font-family="Helvetica,sans-Serif" font-size="10.00">AllocContainer&lt; T &gt;</text>
</a>
</g>
</g>
<!-- Node1&#45;&gt;Node22 -->
<g id="edge21" class="edge"><title>Node1&#45;&gt;Node22</title>
<path fill="none" stroke="midnightblue" d="M347.345,-403.416C349.742,-364.137 360.92,-273.891 412.763,-225.5 416.47,-222.04 420.63,-219.085 425.072,-216.564"/>
<polygon fill="midnightblue" stroke="midnightblue" points="343.846,-403.312 346.862,-413.468 350.838,-403.648 343.846,-403.312"/>
</g>
<!-- Node23 -->
<g id="node23" class="node"><title>Node23</title>
<g id="a_node23"><a xlink:href="classmachine_1_1_command_typed_1_1_cmd_type_alloc_header.html" target="_top" xlink:title="整数変数のフレームを割り当てる">
<polygon fill="white" stroke="black" points="423.122,-141.5 423.122,-169.5 581.065,-169.5 581.065,-141.5 423.122,-141.5"/>
<text text-anchor="start" x="431.122" y="-157.5" font-family="Helvetica,sans-Serif" font-size="10.00">CommandTyped&lt; T &gt;.CmdType</text>
<text text-anchor="middle" x="502.093" y="-147.5" font-family="Helvetica,sans-Serif" font-size="10.00">AllocHeader&lt; T &gt;</text>
</a>
</g>
</g>
<!-- Node1&#45;&gt;Node23 -->
<g id="edge22" class="edge"><title>Node1&#45;&gt;Node23</title>
<path fill="none" stroke="midnightblue" d="M345.879,-403.39C345.02,-357.669 349.521,-241.132 412.763,-178.5 416.253,-175.043 420.193,-172.086 424.423,-169.559"/>
<polygon fill="midnightblue" stroke="midnightblue" points="342.382,-403.522 346.181,-413.412 349.378,-403.311 342.382,-403.522"/>
</g>
<!-- Node24 -->
<g id="node24" class="node"><title>Node24</title>
<g id="a_node24"><a xlink:href="classmachine_1_1_command_typed_1_1_cmd_type_const.html" target="_top" xlink:title="スタックトップに整数定数値をおく命令">
<polygon fill="white" stroke="black" points="423.122,-94.5 423.122,-122.5 581.065,-122.5 581.065,-94.5 423.122,-94.5"/>
<text text-anchor="start" x="431.122" y="-110.5" font-family="Helvetica,sans-Serif" font-size="10.00">CommandTyped&lt; T &gt;.CmdType</text>
<text text-anchor="middle" x="502.093" y="-100.5" font-family="Helvetica,sans-Serif" font-size="10.00">Const&lt; T &gt;</text>
</a>
</g>
</g>
<!-- Node1&#45;&gt;Node24 -->
<g id="edge23" class="edge"><title>Node1&#45;&gt;Node24</title>
<path fill="none" stroke="midnightblue" d="M348.468,-403.445C354.255,-345.185 374.486,-171.001 412.763,-131.5 416.071,-128.086 419.817,-125.156 423.852,-122.644"/>
<polygon fill="midnightblue" stroke="midnightblue" points="344.976,-403.187 347.502,-413.477 351.944,-403.858 344.976,-403.187"/>
</g>
<!-- Node25 -->
<g id="node25" class="node"><title>Node25</title>
<g id="a_node25"><a xlink:href="classmachine_1_1_command_typed_1_1_cmd_type_opr.html" target="_top" xlink:title="二つの型Tの値をもらい、型Rの値を返す二項演算演算命令。">
<polygon fill="white" stroke="black" points="423.122,-47.5 423.122,-75.5 581.065,-75.5 581.065,-47.5 423.122,-47.5"/>
<text text-anchor="start" x="431.122" y="-63.5" font-family="Helvetica,sans-Serif" font-size="10.00">CommandTyped&lt; T &gt;.CmdType</text>
<text text-anchor="middle" x="502.093" y="-53.5" font-family="Helvetica,sans-Serif" font-size="10.00">Opr&lt; T, R &gt;</text>
</a>
</g>
</g>
<!-- Node1&#45;&gt;Node25 -->
<g id="edge24" class="edge"><title>Node1&#45;&gt;Node25</title>
<path fill="none" stroke="midnightblue" d="M347.819,-403.374C351.977,-338.977 368.623,-131.451 412.763,-84.5 416.019,-81.0363 419.725,-78.0686 423.731,-75.5282"/>
<polygon fill="midnightblue" stroke="midnightblue" points="344.326,-403.163 347.202,-413.36 351.312,-403.595 344.326,-403.163"/>
</g>
<!-- Node26 -->
<g id="node26" class="node"><title>Node26</title>
<g id="a_node26"><a xlink:href="classmachine_1_1_command_typed_1_1_cmd_type_to_type.html" target="_top" xlink:title="OVMachine上のS型の値をT型の値に変換する命令．">
<polygon fill="white" stroke="black" points="423.122,-0.5 423.122,-28.5 581.065,-28.5 581.065,-0.5 423.122,-0.5"/>
<text text-anchor="start" x="431.122" y="-16.5" font-family="Helvetica,sans-Serif" font-size="10.00">CommandTyped&lt; T &gt;.CmdType</text>
<text text-anchor="middle" x="502.093" y="-6.5" font-family="Helvetica,sans-Serif" font-size="10.00">ToType&lt; S, T &gt;</text>
</a>
</g>
</g>
<!-- Node1&#45;&gt;Node26 -->
<g id="edge25" class="edge"><title>Node1&#45;&gt;Node26</title>
<path fill="none" stroke="midnightblue" d="M347.333,-403.043C350.025,-332.563 362.785,-91.906 412.763,-37.5 415.872,-34.1157 419.41,-31.203 423.24,-28.6985"/>
<polygon fill="midnightblue" stroke="midnightblue" points="343.83,-403.052 346.972,-413.17 350.826,-403.301 343.83,-403.052"/>
</g>
<!-- Node2 -->
<g id="node2" class="node"><title>Node2</title>
<g id="a_node2"><a xlink:href="interfacemachine_1_1_executable.html" target="_top" xlink:title="仮装命令のインタフェース.">
<polygon fill="white" stroke="black" points="162.591,-432.5 162.591,-450.5 228.068,-450.5 228.068,-432.5 162.591,-432.5"/>
<text text-anchor="middle" x="195.33" y="-438.5" font-family="Helvetica,sans-Serif" font-size="10.00">Executable</text>
</a>
</g>
</g>
<!-- Node2&#45;&gt;Node1 -->
<g id="edge1" class="edge"><title>Node2&#45;&gt;Node1</title>
<path fill="none" stroke="midnightblue" d="M238.17,-436.142C262.444,-433.033 292.463,-429.189 314.442,-426.375"/>
<polygon fill="midnightblue" stroke="midnightblue" points="237.633,-432.682 228.158,-437.424 238.522,-439.625 237.633,-432.682"/>
</g>
<!-- Node3 -->
<g id="node3" class="node"><title>Node3</title>
<g id="a_node3"><a xlink:href="interfaceformat_1_1_x_formattable_1_1_custom_formattable.html" target="_top" xlink:title="カスタム清書出力器をもつオブジェクトのクラス．">
<polygon fill="white" stroke="black" points="112.024,-395.5 112.024,-413.5 278.635,-413.5 278.635,-395.5 112.024,-395.5"/>
<text text-anchor="middle" x="195.33" y="-401.5" font-family="Helvetica,sans-Serif" font-size="10.00">XFormattable.CustomFormattable</text>
</a>
</g>
</g>
<!-- Node3&#45;&gt;Node1 -->
<g id="edge2" class="edge"><title>Node3&#45;&gt;Node1</title>
<path fill="none" stroke="midnightblue" d="M281.051,-414.778C293.007,-416.229 304.59,-417.634 314.525,-418.839"/>
<polygon fill="midnightblue" stroke="midnightblue" points="281.298,-411.283 270.949,-413.553 280.454,-418.232 281.298,-411.283"/>
</g>
<!-- Node4 -->
<g id="node4" class="node"><title>Node4</title>
<g id="a_node4"><a xlink:href="interfaceformat_1_1_x_formattable.html" target="_top" xlink:title="入れ子フォーマット出力可能なオブジェクトのインタフェース。">
<polygon fill="white" stroke="black" points="0,-395.5 0,-413.5 76.0244,-413.5 76.0244,-395.5 0,-395.5"/>
<text text-anchor="middle" x="38.0122" y="-401.5" font-family="Helvetica,sans-Serif" font-size="10.00">XFormattable</text>
</a>
</g>
</g>
<!-- Node4&#45;&gt;Node3 -->
<g id="edge3" class="edge"><title>Node4&#45;&gt;Node3</title>
<path fill="none" stroke="midnightblue" d="M86.2391,-404.5C94.4053,-404.5 103.105,-404.5 111.886,-404.5"/>
<polygon fill="midnightblue" stroke="midnightblue" points="86.2146,-401 76.2146,-404.5 86.2146,-408 86.2146,-401"/>
</g>
<!-- Node7 -->
<g id="node7" class="node"><title>Node7</title>
<g id="a_node7"><a xlink:href="classmachine_1_1_command_1_1_cmd_u_n_d_e_f.html" target="_top" xlink:title="何もしない命令．">
<polygon fill="white" stroke="black" points="629.653,-719.5 629.653,-737.5 750.116,-737.5 750.116,-719.5 629.653,-719.5"/>
<text text-anchor="middle" x="689.884" y="-725.5" font-family="Helvetica,sans-Serif" font-size="10.00">Command.CmdUNDEF</text>
</a>
</g>
</g>
<!-- Node6&#45;&gt;Node7 -->
<g id="edge6" class="edge"><title>Node6&#45;&gt;Node7</title>
<path fill="none" stroke="midnightblue" d="M566.462,-728.5C586.845,-728.5 609.344,-728.5 629.435,-728.5"/>
<polygon fill="midnightblue" stroke="midnightblue" points="566.334,-725 556.334,-728.5 566.333,-732 566.334,-725"/>
</g>
<!-- Node9 -->
<g id="node9" class="node"><title>Node9</title>
<g id="a_node9"><a xlink:href="classmachine_1_1_command_1_1_cmd_get_elem.html" target="_top" xlink:title="テキスト読み出し命令の一つ:任意のノードの要素テキストを取得して，文字列型の変数に格納する．">
<polygon fill="white" stroke="black" points="627.424,-682.5 627.424,-700.5 752.345,-700.5 752.345,-682.5 627.424,-682.5"/>
<text text-anchor="middle" x="689.884" y="-688.5" font-family="Helvetica,sans-Serif" font-size="10.00">Command.CmdGetElem</text>
</a>
</g>
</g>
<!-- Node8&#45;&gt;Node9 -->
<g id="edge8" class="edge"><title>Node8&#45;&gt;Node9</title>
<path fill="none" stroke="midnightblue" d="M585.388,-691.5C599.498,-691.5 613.938,-691.5 627.384,-691.5"/>
<polygon fill="midnightblue" stroke="midnightblue" points="585.191,-688 575.191,-691.5 585.191,-695 585.191,-688"/>
</g>
<!-- Node10 -->
<g id="node10" class="node"><title>Node10</title>
<g id="a_node10"><a xlink:href="classmachine_1_1_command_1_1_cmd_set_elem.html" target="_top" xlink:title="テキスト読み出し命令の一つ:任意のノードの要素テキストの開始位置を取得して，整数型の変数に格納する．">
<polygon fill="white" stroke="black" points="627.978,-645.5 627.978,-663.5 751.791,-663.5 751.791,-645.5 627.978,-645.5"/>
<text text-anchor="middle" x="689.884" y="-651.5" font-family="Helvetica,sans-Serif" font-size="10.00">Command.CmdSetElem</text>
</a>
</g>
</g>
<!-- Node8&#45;&gt;Node10 -->
<g id="edge9" class="edge"><title>Node8&#45;&gt;Node10</title>
<path fill="none" stroke="midnightblue" d="M558.662,-680.434C585.778,-675.034 617.983,-668.62 643.582,-663.522"/>
<polygon fill="midnightblue" stroke="midnightblue" points="557.667,-677.063 548.543,-682.449 559.034,-683.928 557.667,-677.063"/>
</g>
</g>
</svg>
