<?xml version="1.0" encoding="UTF-8" standalone="no"?>
<!DOCTYPE svg PUBLIC "-//W3C//DTD SVG 1.1//EN"
 "http://www.w3.org/Graphics/SVG/1.1/DTD/svg11.dtd">
<!-- Generated by graphviz version 2.38.0 (20140413.2041)
 -->
<!-- Title: AutoStackUni&lt; S extends Container &gt; Pages: 1 -->
<svg width="174pt" height="92pt"
 viewBox="0.00 0.00 173.81 92.00" xmlns="http://www.w3.org/2000/svg" xmlns:xlink="http://www.w3.org/1999/xlink">
<g id="graph0" class="graph" transform="scale(1 1) rotate(0) translate(4 88)">
<title>AutoStackUni&lt; S extends Container &gt;</title>
<polygon fill="white" stroke="none" points="-4,4 -4,-88 169.812,-88 169.812,4 -4,4"/>
<!-- Node1 -->
<g id="node1" class="node"><title>Node1</title>
<g id="a_node1"><a xlink:title="セルのオブジェクトを再利用可能なスタックの実装.">
<polygon fill="#bfbfbf" stroke="black" points="25.0161,-0.5 25.0161,-28.5 154.693,-28.5 154.693,-0.5 25.0161,-0.5"/>
<text text-anchor="start" x="33.0161" y="-16.5" font-family="Helvetica,sans-Serif" font-size="10.00">AutoStackUni&lt; S extends</text>
<text text-anchor="middle" x="89.8545" y="-6.5" font-family="Helvetica,sans-Serif" font-size="10.00"> Container &gt;</text>
</a>
</g>
</g>
<!-- Node2 -->
<g id="node2" class="node"><title>Node2</title>
<g id="a_node2"><a xlink:href="classutil_1_1_stack_base.html" target="_top" xlink:title=" ">
<polygon fill="white" stroke="black" points="0,-65.5 0,-83.5 87.709,-83.5 87.709,-65.5 0,-65.5"/>
<text text-anchor="middle" x="43.8545" y="-71.5" font-family="Helvetica,sans-Serif" font-size="10.00">StackBase&lt; S &gt;</text>
</a>
</g>
</g>
<!-- Node2&#45;&gt;Node1 -->
<g id="edge1" class="edge"><title>Node2&#45;&gt;Node1</title>
<path fill="none" stroke="midnightblue" d="M56.4691,-57.5946C63.6258,-48.5709 72.4806,-37.4062 79.2723,-28.8428"/>
<polygon fill="midnightblue" stroke="midnightblue" points="53.7223,-55.4255 50.2506,-65.4353 59.2068,-59.7752 53.7223,-55.4255"/>
</g>
<!-- Node3 -->
<g id="node3" class="node"><title>Node3</title>
<g id="a_node3"><a xlink:href="interfaceframe_1_1_stackable.html" target="_top" xlink:title="レベル付きスタックを実装するための最小限のインタフェース">
<polygon fill="white" stroke="black" points="105.896,-65.5 105.896,-83.5 165.812,-83.5 165.812,-65.5 105.896,-65.5"/>
<text text-anchor="middle" x="135.854" y="-71.5" font-family="Helvetica,sans-Serif" font-size="10.00">Stackable</text>
</a>
</g>
</g>
<!-- Node3&#45;&gt;Node1 -->
<g id="edge2" class="edge"><title>Node3&#45;&gt;Node1</title>
<path fill="none" stroke="midnightblue" d="M123.24,-57.5946C116.083,-48.5709 107.228,-37.4062 100.437,-28.8428"/>
<polygon fill="midnightblue" stroke="midnightblue" points="120.502,-59.7752 129.458,-65.4353 125.987,-55.4255 120.502,-59.7752"/>
</g>
</g>
</svg>
