<?xml version="1.0" encoding="UTF-8" standalone="no"?>
<!DOCTYPE svg PUBLIC "-//W3C//DTD SVG 1.1//EN"
 "http://www.w3.org/Graphics/SVG/1.1/DTD/svg11.dtd">
<!-- Generated by graphviz version 2.38.0 (20140413.2041)
 -->
<!-- Title: queryParser.DescTagExprTopContext Pages: 1 -->
<svg width="168pt" height="147pt"
 viewBox="0.00 0.00 167.97 147.00" xmlns="http://www.w3.org/2000/svg" xmlns:xlink="http://www.w3.org/1999/xlink">
<g id="graph0" class="graph" transform="scale(1 1) rotate(0) translate(4 143)">
<title>queryParser.DescTagExprTopContext</title>
<polygon fill="white" stroke="none" points="-4,4 -4,-143 163.97,-143 163.97,4 -4,4"/>
<!-- Node1 -->
<g id="node1" class="node"><title>Node1</title>
<g id="a_node1"><a xlink:title=" ">
<polygon fill="#bfbfbf" stroke="black" points="5.83984,-0.5 5.83984,-28.5 154.13,-28.5 154.13,-0.5 5.83984,-0.5"/>
<text text-anchor="start" x="13.8398" y="-16.5" font-family="Helvetica,sans-Serif" font-size="10.00">queryParser.DescTagExprTop</text>
<text text-anchor="middle" x="79.9849" y="-6.5" font-family="Helvetica,sans-Serif" font-size="10.00">Context</text>
</a>
</g>
</g>
<!-- Node2 -->
<g id="node2" class="node"><title>Node2</title>
<g id="a_node2"><a xlink:href="classparse_1_1query_parser_1_1_tag_expr_top_context.html" target="_top" xlink:title=" ">
<polygon fill="white" stroke="black" points="0,-65.5 0,-83.5 159.97,-83.5 159.97,-65.5 0,-65.5"/>
<text text-anchor="middle" x="79.9849" y="-71.5" font-family="Helvetica,sans-Serif" font-size="10.00">queryParser.TagExprTopContext</text>
</a>
</g>
</g>
<!-- Node2&#45;&gt;Node1 -->
<g id="edge1" class="edge"><title>Node2&#45;&gt;Node1</title>
<path fill="none" stroke="midnightblue" d="M79.9849,-55.3209C79.9849,-46.747 79.9849,-36.6999 79.9849,-28.8428"/>
<polygon fill="midnightblue" stroke="midnightblue" points="76.485,-55.4353 79.9849,-65.4353 83.485,-55.4354 76.485,-55.4353"/>
</g>
<!-- Node3 -->
<g id="node3" class="node"><title>Node3</title>
<g id="a_node3"><a xlink:title=" ">
<polygon fill="white" stroke="#bfbfbf" points="29.7437,-120.5 29.7437,-138.5 130.226,-138.5 130.226,-120.5 29.7437,-120.5"/>
<text text-anchor="middle" x="79.9849" y="-126.5" font-family="Helvetica,sans-Serif" font-size="10.00">ParserRuleContext</text>
</a>
</g>
</g>
<!-- Node3&#45;&gt;Node2 -->
<g id="edge2" class="edge"><title>Node3&#45;&gt;Node2</title>
<path fill="none" stroke="midnightblue" d="M79.9849,-110.175C79.9849,-101.094 79.9849,-90.5949 79.9849,-83.5496"/>
<polygon fill="midnightblue" stroke="midnightblue" points="76.485,-110.219 79.9849,-120.219 83.485,-110.219 76.485,-110.219"/>
</g>
</g>
</svg>
