<?xml version="1.0" encoding="UTF-8" standalone="no"?>
<!DOCTYPE svg PUBLIC "-//W3C//DTD SVG 1.1//EN"
 "http://www.w3.org/Graphics/SVG/1.1/DTD/svg11.dtd">
<!-- Generated by graphviz version 2.47.0 (20210316.0004)
 -->
<!-- Title: Ref Pages: 1 -->
<svg width="408pt" height="196pt"
 viewBox="0.00 0.00 407.50 196.00" xmlns="http://www.w3.org/2000/svg" xmlns:xlink="http://www.w3.org/1999/xlink">
<g id="graph0" class="graph" transform="scale(1 1) rotate(0) translate(4 192)">
<title>Ref</title>
<polygon fill="white" stroke="transparent" points="-4,4 -4,-192 403.5,-192 403.5,4 -4,4"/>
<!-- Node1 -->
<g id="node1" class="node">
<title>Node1</title>
<g id="a_node1"><a xlink:title="フレーム中の変数参照オブジェクトref = (XType type, int vid)">
<polygon fill="#bfbfbf" stroke="black" points="183.5,-0.5 183.5,-19.5 215.5,-19.5 215.5,-0.5 183.5,-0.5"/>
<text text-anchor="middle" x="199.5" y="-7.5" font-family="Helvetica,sans-Serif" font-size="10.00">Ref</text>
</a>
</g>
</g>
<!-- Node2 -->
<g id="node2" class="node">
<title>Node2</title>
<g id="a_node2"><a xlink:href="classast_1_1_ast_node.html" target="_top" xlink:title="タグなしの順アクセスの子供をもてる抽象構文木のノードのクラス。">
<polygon fill="white" stroke="black" points="133,-56.5 133,-75.5 188,-75.5 188,-56.5 133,-56.5"/>
<text text-anchor="middle" x="160.5" y="-63.5" font-family="Helvetica,sans-Serif" font-size="10.00">AstNode</text>
</a>
</g>
</g>
<!-- Node2&#45;&gt;Node1 -->
<g id="edge1" class="edge">
<title>Node2&#45;&gt;Node1</title>
<path fill="none" stroke="midnightblue" d="M172.88,-47.86C179.64,-38.5 187.71,-27.33 193.18,-19.75"/>
<polygon fill="midnightblue" stroke="midnightblue" points="169.96,-45.93 166.94,-56.08 175.63,-50.03 169.96,-45.93"/>
</g>
<!-- Node3 -->
<g id="node3" class="node">
<title>Node3</title>
<g id="a_node3"><a xlink:href="classast_1_1_ast_node_base.html" target="_top" xlink:title=" ">
<polygon fill="white" stroke="black" points="0,-112.5 0,-131.5 77,-131.5 77,-112.5 0,-112.5"/>
<text text-anchor="middle" x="38.5" y="-119.5" font-family="Helvetica,sans-Serif" font-size="10.00">AstNodeBase</text>
</a>
</g>
</g>
<!-- Node3&#45;&gt;Node2 -->
<g id="edge2" class="edge">
<title>Node3&#45;&gt;Node2</title>
<path fill="none" stroke="midnightblue" d="M67.04,-108.37C89.89,-98.26 121.31,-84.35 141.26,-75.52"/>
<polygon fill="midnightblue" stroke="midnightblue" points="65.56,-105.2 57.83,-112.44 68.39,-111.6 65.56,-105.2"/>
</g>
<!-- Node4 -->
<g id="node4" class="node">
<title>Node4</title>
<g id="a_node4"><a xlink:href="interfaceformat_1_1_x_formattable_1_1_navigatable.html" target="_top" xlink:title="木構造の分岐ノードとして清書可能なオブジェクトのクラス">
<polygon fill="white" stroke="black" points="95.5,-112.5 95.5,-131.5 225.5,-131.5 225.5,-112.5 95.5,-112.5"/>
<text text-anchor="middle" x="160.5" y="-119.5" font-family="Helvetica,sans-Serif" font-size="10.00">XFormattable.Navigatable</text>
</a>
</g>
</g>
<!-- Node4&#45;&gt;Node2 -->
<g id="edge3" class="edge">
<title>Node4&#45;&gt;Node2</title>
<path fill="none" stroke="midnightblue" d="M160.5,-101.8C160.5,-92.91 160.5,-82.78 160.5,-75.75"/>
<polygon fill="midnightblue" stroke="midnightblue" points="157,-102.08 160.5,-112.08 164,-102.08 157,-102.08"/>
</g>
<!-- Node5 -->
<g id="node5" class="node">
<title>Node5</title>
<g id="a_node5"><a xlink:href="interfaceformat_1_1_x_formattable.html" target="_top" xlink:title="入れ子フォーマット出力可能なオブジェクトのインタフェース。">
<polygon fill="white" stroke="black" points="203,-168.5 203,-187.5 278,-187.5 278,-168.5 203,-168.5"/>
<text text-anchor="middle" x="240.5" y="-175.5" font-family="Helvetica,sans-Serif" font-size="10.00">XFormattable</text>
</a>
</g>
</g>
<!-- Node5&#45;&gt;Node4 -->
<g id="edge4" class="edge">
<title>Node5&#45;&gt;Node4</title>
<path fill="none" stroke="midnightblue" d="M219.2,-162.62C204.58,-152.76 185.67,-139.99 173.32,-131.65"/>
<polygon fill="midnightblue" stroke="midnightblue" points="217.4,-165.63 227.65,-168.32 221.32,-159.83 217.4,-165.63"/>
</g>
<!-- Node6 -->
<g id="node6" class="node">
<title>Node6</title>
<g id="a_node6"><a xlink:href="interfaceformat_1_1_x_formattable_1_1_typed_formattable.html" target="_top" xlink:title="ノードの型情報をもつ書式出力可能なオブジェクトのインタフェース．">
<polygon fill="white" stroke="black" points="243.5,-112.5 243.5,-131.5 399.5,-131.5 399.5,-112.5 243.5,-112.5"/>
<text text-anchor="middle" x="321.5" y="-119.5" font-family="Helvetica,sans-Serif" font-size="10.00">XFormattable.TypedFormattable</text>
</a>
</g>
</g>
<!-- Node5&#45;&gt;Node6 -->
<g id="edge6" class="edge">
<title>Node5&#45;&gt;Node6</title>
<path fill="none" stroke="midnightblue" d="M262.07,-162.62C276.86,-152.76 296.01,-139.99 308.52,-131.65"/>
<polygon fill="midnightblue" stroke="midnightblue" points="259.89,-159.86 253.51,-168.32 263.78,-165.69 259.89,-159.86"/>
</g>
<!-- Node6&#45;&gt;Node2 -->
<g id="edge5" class="edge">
<title>Node6&#45;&gt;Node2</title>
<path fill="none" stroke="midnightblue" d="M286.24,-109.17C255.92,-99 212.93,-84.59 185.89,-75.52"/>
<polygon fill="midnightblue" stroke="midnightblue" points="285.4,-112.58 295.99,-112.44 287.62,-105.95 285.4,-112.58"/>
</g>
<!-- Node7 -->
<g id="node7" class="node">
<title>Node7</title>
<g id="a_node7"><a xlink:href="interfacemachine_1_1_assignable.html" target="_top" xlink:title="変数（チャネルとコンテナの名前）の抽象化">
<polygon fill="white" stroke="black" points="206,-56.5 206,-75.5 271,-75.5 271,-56.5 206,-56.5"/>
<text text-anchor="middle" x="238.5" y="-63.5" font-family="Helvetica,sans-Serif" font-size="10.00">Assignable</text>
</a>
</g>
</g>
<!-- Node7&#45;&gt;Node1 -->
<g id="edge7" class="edge">
<title>Node7&#45;&gt;Node1</title>
<path fill="none" stroke="midnightblue" d="M226.12,-47.86C219.36,-38.5 211.29,-27.33 205.82,-19.75"/>
<polygon fill="midnightblue" stroke="midnightblue" points="223.37,-50.03 232.06,-56.08 229.04,-45.93 223.37,-50.03"/>
</g>
</g>
</svg>
