<?xml version="1.0" encoding="UTF-8" standalone="no"?>
<!DOCTYPE svg PUBLIC "-//W3C//DTD SVG 1.1//EN"
 "http://www.w3.org/Graphics/SVG/1.1/DTD/svg11.dtd">
<!-- Generated by graphviz version 2.38.0 (20140413.2041)
 -->
<!-- Title: Command.CmdSetElem Pages: 1 -->
<svg width="474pt" height="289pt"
 viewBox="0.00 0.00 473.96 289.00" xmlns="http://www.w3.org/2000/svg" xmlns:xlink="http://www.w3.org/1999/xlink">
<g id="graph0" class="graph" transform="scale(1 1) rotate(0) translate(4 285)">
<title>Command.CmdSetElem</title>
<polygon fill="white" stroke="none" points="-4,4 -4,-285 469.96,-285 469.96,4 -4,4"/>
<!-- Node1 -->
<g id="node1" class="node"><title>Node1</title>
<g id="a_node1"><a xlink:title="テキスト読み出し命令の一つ:任意のノードの要素テキストの開始位置を取得して，整数型の変数に格納する．">
<polygon fill="#bfbfbf" stroke="black" points="228.833,-0.5 228.833,-18.5 352.645,-18.5 352.645,-0.5 228.833,-0.5"/>
<text text-anchor="middle" x="290.739" y="-6.5" font-family="Helvetica,sans-Serif" font-size="10.00">Command.CmdSetElem</text>
</a>
</g>
</g>
<!-- Node2 -->
<g id="node2" class="node"><title>Node2</title>
<g id="a_node2"><a xlink:href="classmachine_1_1_command_1_1_command_storage.html" target="_top" xlink:title=" ">
<polygon fill="white" stroke="black" points="217.709,-56.5 217.709,-74.5 363.768,-74.5 363.768,-56.5 217.709,-56.5"/>
<text text-anchor="middle" x="290.739" y="-62.5" font-family="Helvetica,sans-Serif" font-size="10.00">Command.CommandStorage</text>
</a>
</g>
</g>
<!-- Node2&#45;&gt;Node1 -->
<g id="edge1" class="edge"><title>Node2&#45;&gt;Node1</title>
<path fill="none" stroke="midnightblue" d="M290.739,-45.8288C290.739,-36.5774 290.739,-25.8798 290.739,-18.7014"/>
<polygon fill="midnightblue" stroke="midnightblue" points="287.239,-46.0625 290.739,-56.0625 294.239,-46.0625 287.239,-46.0625"/>
</g>
<!-- Node3 -->
<g id="node3" class="node"><title>Node3</title>
<g id="a_node3"><a xlink:href="classmachine_1_1_command.html" target="_top" xlink:title="局所変数環境に値を書き込む式の抽象クラス.">
<polygon fill="white" stroke="black" points="158.675,-121.5 158.675,-139.5 220.803,-139.5 220.803,-121.5 158.675,-121.5"/>
<text text-anchor="middle" x="189.739" y="-127.5" font-family="Helvetica,sans-Serif" font-size="10.00">Command</text>
</a>
</g>
</g>
<!-- Node3&#45;&gt;Node2 -->
<g id="edge2" class="edge"><title>Node3&#45;&gt;Node2</title>
<path fill="none" stroke="midnightblue" d="M211.503,-115.924C231.714,-103.317 261.131,-84.9684 277.851,-74.539"/>
<polygon fill="midnightblue" stroke="midnightblue" points="209.575,-113.002 202.943,-121.264 213.28,-118.941 209.575,-113.002"/>
</g>
<!-- Node4 -->
<g id="node4" class="node"><title>Node4</title>
<g id="a_node4"><a xlink:href="interfacemachine_1_1_executable.html" target="_top" xlink:title="仮装命令のインタフェース.">
<polygon fill="white" stroke="black" points="0,-206.5 0,-224.5 65.4775,-224.5 65.4775,-206.5 0,-206.5"/>
<text text-anchor="middle" x="32.7388" y="-212.5" font-family="Helvetica,sans-Serif" font-size="10.00">Executable</text>
</a>
</g>
</g>
<!-- Node4&#45;&gt;Node3 -->
<g id="edge3" class="edge"><title>Node4&#45;&gt;Node3</title>
<path fill="none" stroke="midnightblue" d="M57.0166,-201.665C89.8147,-184.326 147.304,-153.934 174.568,-139.52"/>
<polygon fill="midnightblue" stroke="midnightblue" points="55.2833,-198.623 48.0784,-206.39 58.5549,-204.811 55.2833,-198.623"/>
</g>
<!-- Node5 -->
<g id="node5" class="node"><title>Node5</title>
<g id="a_node5"><a xlink:href="interfaceformat_1_1_x_formattable_1_1_custom_formattable.html" target="_top" xlink:title="カスタム清書出力器をもつオブジェクトのクラス．">
<polygon fill="white" stroke="black" points="83.4336,-206.5 83.4336,-224.5 250.044,-224.5 250.044,-206.5 83.4336,-206.5"/>
<text text-anchor="middle" x="166.739" y="-212.5" font-family="Helvetica,sans-Serif" font-size="10.00">XFormattable.CustomFormattable</text>
</a>
</g>
</g>
<!-- Node5&#45;&gt;Node3 -->
<g id="edge4" class="edge"><title>Node5&#45;&gt;Node3</title>
<path fill="none" stroke="midnightblue" d="M171.71,-196.559C176.59,-178.951 183.814,-152.882 187.459,-139.728"/>
<polygon fill="midnightblue" stroke="midnightblue" points="168.326,-195.667 169.028,-206.238 175.072,-197.536 168.326,-195.667"/>
</g>
<!-- Node6 -->
<g id="node6" class="node"><title>Node6</title>
<g id="a_node6"><a xlink:href="interfaceformat_1_1_x_formattable.html" target="_top" xlink:title="入れ子フォーマット出力可能なオブジェクトのインタフェース。">
<polygon fill="white" stroke="black" points="128.727,-262.5 128.727,-280.5 204.751,-280.5 204.751,-262.5 128.727,-262.5"/>
<text text-anchor="middle" x="166.739" y="-268.5" font-family="Helvetica,sans-Serif" font-size="10.00">XFormattable</text>
</a>
</g>
</g>
<!-- Node6&#45;&gt;Node5 -->
<g id="edge5" class="edge"><title>Node6&#45;&gt;Node5</title>
<path fill="none" stroke="midnightblue" d="M166.739,-251.829C166.739,-242.577 166.739,-231.88 166.739,-224.701"/>
<polygon fill="midnightblue" stroke="midnightblue" points="163.239,-252.062 166.739,-262.062 170.239,-252.063 163.239,-252.062"/>
</g>
<!-- Node7 -->
<g id="node7" class="node"><title>Node7</title>
<g id="a_node7"><a xlink:title=" ">
<polygon fill="white" stroke="#bfbfbf" points="267.943,-206.5 267.943,-224.5 319.534,-224.5 319.534,-206.5 267.943,-206.5"/>
<text text-anchor="middle" x="293.739" y="-212.5" font-family="Helvetica,sans-Serif" font-size="10.00">boolean</text>
</a>
</g>
</g>
<!-- Node7&#45;&gt;Node3 -->
<g id="edge6" class="edge"><title>Node7&#45;&gt;Node3</title>
<path fill="none" stroke="#9a32cd" stroke-dasharray="5,2" d="M275.483,-199.931C253.58,-182.451 217.618,-153.75 200.049,-139.728"/>
<polygon fill="#9a32cd" stroke="#9a32cd" points="273.387,-202.736 283.387,-206.238 277.754,-197.265 273.387,-202.736"/>
<text text-anchor="middle" x="306.303" y="-180" font-family="Helvetica,sans-Serif" font-size="10.00"> DEBUG_EVAL</text>
<text text-anchor="middle" x="306.303" y="-170" font-family="Helvetica,sans-Serif" font-size="10.00">DEBUG_CMDELEM</text>
<text text-anchor="middle" x="306.303" y="-160" font-family="Helvetica,sans-Serif" font-size="10.00">DEBUG_CMD</text>
</g>
<!-- Node8 -->
<g id="node8" class="node"><title>Node8</title>
<g id="a_node8"><a xlink:href="interfacemachine_1_1_data_accessor.html" target="_top" xlink:title="参照をもつデータ読み書きオブジェクトのインタフェース.">
<polygon fill="white" stroke="black" points="251.616,-121.5 251.616,-139.5 329.862,-139.5 329.862,-121.5 251.616,-121.5"/>
<text text-anchor="middle" x="290.739" y="-127.5" font-family="Helvetica,sans-Serif" font-size="10.00">DataAccessor</text>
</a>
</g>
</g>
<!-- Node8&#45;&gt;Node2 -->
<g id="edge7" class="edge"><title>Node8&#45;&gt;Node2</title>
<path fill="none" stroke="midnightblue" d="M290.739,-110.907C290.739,-98.8146 290.739,-83.6529 290.739,-74.539"/>
<polygon fill="midnightblue" stroke="midnightblue" points="287.239,-111.264 290.739,-121.264 294.239,-111.264 287.239,-111.264"/>
</g>
<!-- Node9 -->
<g id="node9" class="node"><title>Node9</title>
<g id="a_node9"><a xlink:href="interfacemachine_1_1_ref.html" target="_top" xlink:title="フレームスタック中のコンテナ型の要素を指す参照オブジェクト.">
<polygon fill="white" stroke="black" points="368.958,-121.5 368.958,-139.5 400.52,-139.5 400.52,-121.5 368.958,-121.5"/>
<text text-anchor="middle" x="384.739" y="-127.5" font-family="Helvetica,sans-Serif" font-size="10.00">Ref</text>
</a>
</g>
</g>
<!-- Node9&#45;&gt;Node2 -->
<g id="edge8" class="edge"><title>Node9&#45;&gt;Node2</title>
<path fill="none" stroke="#9a32cd" stroke-dasharray="5,2" d="M363.973,-115.582C345.18,-102.987 318.155,-84.8744 302.733,-74.539"/>
<polygon fill="#9a32cd" stroke="#9a32cd" points="362.194,-118.604 372.45,-121.264 366.092,-112.789 362.194,-118.604"/>
<text text-anchor="middle" x="352.074" y="-95" font-family="Helvetica,sans-Serif" font-size="10.00"> var</text>
</g>
<!-- Node10 -->
<g id="node10" class="node"><title>Node10</title>
<g id="a_node10"><a xlink:href="interfacemachine_1_1_assignable.html" target="_top" xlink:title="変数（チャネルとコンテナの名前）の抽象化">
<polygon fill="white" stroke="black" points="352.278,-206.5 352.278,-224.5 417.199,-224.5 417.199,-206.5 352.278,-206.5"/>
<text text-anchor="middle" x="384.739" y="-212.5" font-family="Helvetica,sans-Serif" font-size="10.00">Assignable</text>
</a>
</g>
</g>
<!-- Node10&#45;&gt;Node9 -->
<g id="edge9" class="edge"><title>Node10&#45;&gt;Node9</title>
<path fill="none" stroke="midnightblue" d="M384.739,-196.059C384.739,-178.46 384.739,-152.757 384.739,-139.728"/>
<polygon fill="midnightblue" stroke="midnightblue" points="381.239,-196.238 384.739,-206.238 388.239,-196.238 381.239,-196.238"/>
</g>
<!-- Node11 -->
<g id="node11" class="node"><title>Node11</title>
<g id="a_node11"><a xlink:title=" ">
<polygon fill="white" stroke="#bfbfbf" points="435.239,-206.5 435.239,-224.5 464.239,-224.5 464.239,-206.5 435.239,-206.5"/>
<text text-anchor="middle" x="449.52" y="-212.5" font-family="Helvetica,sans-Serif" font-size="10.00">int</text>
</a>
</g>
</g>
<!-- Node11&#45;&gt;Node9 -->
<g id="edge10" class="edge"><title>Node11&#45;&gt;Node9</title>
<path fill="none" stroke="#9a32cd" stroke-dasharray="5,2" d="M436.843,-198.033C423.063,-180.437 401.775,-153.254 391.183,-139.728"/>
<polygon fill="#9a32cd" stroke="#9a32cd" points="434.347,-200.523 443.269,-206.238 439.859,-196.207 434.347,-200.523"/>
<text text-anchor="middle" x="447.35" y="-170" font-family="Helvetica,sans-Serif" font-size="10.00"> UNDEF</text>
</g>
</g>
</svg>
