<?xml version="1.0" encoding="UTF-8" standalone="no"?>
<!DOCTYPE svg PUBLIC "-//W3C//DTD SVG 1.1//EN"
 "http://www.w3.org/Graphics/SVG/1.1/DTD/svg11.dtd">
<!-- Generated by graphviz version 2.47.1 (20210417.1919)
 -->
<!-- Title: maskToIntList Pages: 1 -->
<svg width="471pt" height="28pt"
 viewBox="0.00 0.00 471.00 28.00" xmlns="http://www.w3.org/2000/svg" xmlns:xlink="http://www.w3.org/1999/xlink">
<g id="graph0" class="graph" transform="scale(1 1) rotate(0) translate(4 24)">
<title>maskToIntList</title>
<polygon fill="white" stroke="transparent" points="-4,4 -4,-24 467,-24 467,4 -4,4"/>
<!-- Node1 -->
<g id="node1" class="node">
<title>Node1</title>
<g id="a_node1"><a xlink:title="ビットマスクを昇順で整列したLongのリストに変換する。">
<polygon fill="#bfbfbf" stroke="black" points="385,-0.5 385,-19.5 463,-19.5 463,-0.5 385,-0.5"/>
<text text-anchor="middle" x="424" y="-7.5" font-family="Helvetica,sans-Serif" font-size="10.00">maskToIntList</text>
</a>
</g>
</g>
<!-- Node2 -->
<g id="node2" class="node">
<title>Node2</title>
<g id="a_node2"><a xlink:href="classmachine_1_1_tag_mask_map.html#a5efb5de495a54b45be5fd17f9add9c0f" target="_top" xlink:title="タグ名をキーとして受け取り、対応する値集合をList&lt;Integer&gt;として返す。">
<polygon fill="white" stroke="black" points="188,-0.5 188,-19.5 349,-19.5 349,-0.5 188,-0.5"/>
<text text-anchor="middle" x="268.5" y="-7.5" font-family="Helvetica,sans-Serif" font-size="10.00">machine.TagMaskMap.getValues</text>
</a>
</g>
</g>
<!-- Node1&#45;&gt;Node2 -->
<g id="edge1" class="edge">
<title>Node1&#45;&gt;Node2</title>
<path fill="none" stroke="midnightblue" d="M374.6,-10C366.42,-10 357.73,-10 349,-10"/>
<polygon fill="midnightblue" stroke="midnightblue" points="374.66,-13.5 384.66,-10 374.66,-6.5 374.66,-13.5"/>
</g>
<!-- Node3 -->
<g id="node3" class="node">
<title>Node3</title>
<g id="a_node3"><a xlink:href="classmachine_1_1_tag_mask_map.html#ad146fa8579a5f8a876c4688cc5a68520" target="_top" xlink:title="文字列表現を返す">
<polygon fill="white" stroke="black" points="0,-0.5 0,-19.5 152,-19.5 152,-0.5 0,-0.5"/>
<text text-anchor="middle" x="76" y="-7.5" font-family="Helvetica,sans-Serif" font-size="10.00">machine.TagMaskMap.toString</text>
</a>
</g>
</g>
<!-- Node2&#45;&gt;Node3 -->
<g id="edge2" class="edge">
<title>Node2&#45;&gt;Node3</title>
<path fill="none" stroke="midnightblue" d="M177.77,-10C169.18,-10 160.53,-10 152.1,-10"/>
<polygon fill="midnightblue" stroke="midnightblue" points="177.81,-13.5 187.81,-10 177.81,-6.5 177.81,-13.5"/>
</g>
</g>
</svg>
