<?xml version="1.0" encoding="UTF-8" standalone="no"?>
<!DOCTYPE svg PUBLIC "-//W3C//DTD SVG 1.1//EN"
 "http://www.w3.org/Graphics/SVG/1.1/DTD/svg11.dtd">
<!-- Generated by graphviz version 2.47.1 (20210417.1919)
 -->
<!-- Title: VarTable Pages: 1 -->
<svg width="417pt" height="152pt"
 viewBox="0.00 0.00 417.00 152.00" xmlns="http://www.w3.org/2000/svg" xmlns:xlink="http://www.w3.org/1999/xlink">
<g id="graph0" class="graph" transform="scale(1 1) rotate(0) translate(4 148)">
<title>VarTable</title>
<polygon fill="white" stroke="transparent" points="-4,4 -4,-148 413,-148 413,4 -4,4"/>
<!-- Node1 -->
<g id="node1" class="node">
<title>Node1</title>
<g id="a_node1"><a xlink:title="@整数の表">
<polygon fill="#bfbfbf" stroke="black" points="233,-0.5 233,-19.5 287,-19.5 287,-0.5 233,-0.5"/>
<text text-anchor="middle" x="260" y="-7.5" font-family="Helvetica,sans-Serif" font-size="10.00">VarTable</text>
</a>
</g>
</g>
<!-- Node1&#45;&gt;Node1 -->
<g id="edge5" class="edge">
<title>Node1&#45;&gt;Node1</title>
<path fill="none" stroke="#9a32cd" stroke-dasharray="5,2" d="M297.51,-15.17C302.04,-14.24 305,-12.51 305,-10 305,-5.88 297.02,-3.88 287.24,-4.01"/>
<polygon fill="#9a32cd" stroke="#9a32cd" points="296.93,-11.71 287.24,-15.99 297.49,-18.68 296.93,-11.71"/>
<text text-anchor="middle" x="320.5" y="-7.5" font-family="Helvetica,sans-Serif" font-size="10.00"> parent</text>
</g>
<!-- Node2 -->
<g id="node2" class="node">
<title>Node2</title>
<g id="a_node2"><a xlink:href="interfaceformat_1_1_x_formattable_1_1_custom_formattable.html" target="_top" xlink:title="カスタム清書出力器をもつオブジェクトのクラス．">
<polygon fill="white" stroke="black" points="0,-67.5 0,-86.5 164,-86.5 164,-67.5 0,-67.5"/>
<text text-anchor="middle" x="82" y="-74.5" font-family="Helvetica,sans-Serif" font-size="10.00">XFormattable.CustomFormattable</text>
</a>
</g>
</g>
<!-- Node2&#45;&gt;Node1 -->
<g id="edge1" class="edge">
<title>Node2&#45;&gt;Node1</title>
<path fill="none" stroke="midnightblue" d="M115.04,-63.94C150.35,-51.04 205.44,-30.92 236.55,-19.56"/>
<polygon fill="midnightblue" stroke="midnightblue" points="113.83,-60.65 105.64,-67.37 116.23,-67.23 113.83,-60.65"/>
</g>
<!-- Node3 -->
<g id="node3" class="node">
<title>Node3</title>
<g id="a_node3"><a xlink:href="interfaceformat_1_1_x_formattable.html" target="_top" xlink:title="入れ子フォーマット出力可能なオブジェクトのインタフェース。">
<polygon fill="white" stroke="black" points="44.5,-124.5 44.5,-143.5 119.5,-143.5 119.5,-124.5 44.5,-124.5"/>
<text text-anchor="middle" x="82" y="-131.5" font-family="Helvetica,sans-Serif" font-size="10.00">XFormattable</text>
</a>
</g>
</g>
<!-- Node3&#45;&gt;Node2 -->
<g id="edge2" class="edge">
<title>Node3&#45;&gt;Node2</title>
<path fill="none" stroke="midnightblue" d="M82,-114.12C82,-104.82 82,-94.06 82,-86.71"/>
<polygon fill="midnightblue" stroke="midnightblue" points="78.5,-114.41 82,-124.41 85.5,-114.41 78.5,-114.41"/>
</g>
<!-- Node4 -->
<g id="node4" class="node">
<title>Node4</title>
<g id="a_node4"><a xlink:title=" ">
<polygon fill="white" stroke="#bfbfbf" points="182.5,-67.5 182.5,-86.5 265.5,-86.5 265.5,-67.5 182.5,-67.5"/>
<text text-anchor="middle" x="224" y="-74.5" font-family="Helvetica,sans-Serif" font-size="10.00">static ReportKt</text>
</a>
</g>
</g>
<!-- Node4&#45;&gt;Node1 -->
<g id="edge3" class="edge">
<title>Node4&#45;&gt;Node1</title>
<path fill="none" stroke="#9a32cd" stroke-dasharray="5,2" d="M233.88,-58.16C240.82,-45.63 249.8,-29.41 255.22,-19.63"/>
<polygon fill="#9a32cd" stroke="#9a32cd" points="230.64,-56.79 228.86,-67.23 236.76,-60.18 230.64,-56.79"/>
<text text-anchor="middle" x="255" y="-41" font-family="Helvetica,sans-Serif" font-size="10.00"> repo</text>
</g>
<!-- Node5 -->
<g id="node5" class="node">
<title>Node5</title>
<g id="a_node5"><a xlink:title=" ">
<polygon fill="white" stroke="#bfbfbf" points="283.5,-67.5 283.5,-86.5 312.5,-86.5 312.5,-67.5 283.5,-67.5"/>
<text text-anchor="middle" x="298" y="-74.5" font-family="Helvetica,sans-Serif" font-size="10.00">int</text>
</a>
</g>
</g>
<!-- Node5&#45;&gt;Node1 -->
<g id="edge4" class="edge">
<title>Node5&#45;&gt;Node1</title>
<path fill="none" stroke="#9a32cd" stroke-dasharray="5,2" d="M287.79,-58.53C280.43,-45.95 270.82,-29.51 265.04,-19.63"/>
<polygon fill="#9a32cd" stroke="#9a32cd" points="284.81,-60.37 292.88,-67.23 290.85,-56.83 284.81,-60.37"/>
<text text-anchor="middle" x="300.5" y="-41" font-family="Helvetica,sans-Serif" font-size="10.00"> UNDEF</text>
</g>
<!-- Node6 -->
<g id="node6" class="node">
<title>Node6</title>
<g id="a_node6"><a xlink:title=" ">
<polygon fill="white" stroke="#bfbfbf" points="333,-67.5 333,-86.5 383,-86.5 383,-67.5 333,-67.5"/>
<text text-anchor="middle" x="358" y="-74.5" font-family="Helvetica,sans-Serif" font-size="10.00">boolean</text>
</a>
</g>
</g>
<!-- Node6&#45;&gt;Node1 -->
<g id="edge6" class="edge">
<title>Node6&#45;&gt;Node1</title>
<path fill="none" stroke="#9a32cd" stroke-dasharray="5,2" d="M345.96,-59.5C339.99,-52.18 332.29,-43.92 324,-38 312.91,-30.08 299.14,-23.89 287.22,-19.45"/>
<polygon fill="#9a32cd" stroke="#9a32cd" points="343.22,-61.68 352.11,-67.45 348.76,-57.4 343.22,-61.68"/>
<text text-anchor="middle" x="372.5" y="-41" font-family="Helvetica,sans-Serif" font-size="10.00"> DEBUG_REPO</text>
</g>
</g>
</svg>
