<?xml version="1.0" encoding="UTF-8" standalone="no"?>
<!DOCTYPE svg PUBLIC "-//W3C//DTD SVG 1.1//EN"
 "http://www.w3.org/Graphics/SVG/1.1/DTD/svg11.dtd">
<!-- Generated by graphviz version 2.38.0 (20140413.2041)
 -->
<!-- Title: AstNodeIndexed Pages: 1 -->
<!--zoomable 514 -->
<svg id="main" version="1.1" xmlns="http://www.w3.org/2000/svg" xmlns:xlink="http://www.w3.org/1999/xlink" xml:space="preserve" onload="init(evt)">
<style type="text/css"><![CDATA[
.edge:hover path { stroke: red; }
.edge:hover polygon { stroke: red; fill: red; }
]]></style>
<script type="text/javascript"><![CDATA[
var edges = document.getElementsByTagName('g');
if (edges && edges.length) {
  for (var i=0;i<edges.length;i++) {
    if (edges[i].id.substr(0,4)=='edge') {
      edges[i].setAttribute('class','edge');
    }
  }
}
]]></script>
        <defs>
                <circle id="rim" cx="0" cy="0" r="7"/>
                <circle id="rim2" cx="0" cy="0" r="3.5"/>
                <g id="zoomPlus">
                        <use xlink:href="#rim" fill="#404040">
                                <set attributeName="fill" to="#808080" begin="zoomplus.mouseover" end="zoomplus.mouseout"/>
                        </use>
                        <path d="M-4,0h8M0,-4v8" fill="none" stroke="white" stroke-width="1.5" pointer-events="none"/>
                </g>
                <g id="zoomMin">
                        <use xlink:href="#rim" fill="#404040">
                                <set attributeName="fill" to="#808080" begin="zoomminus.mouseover" end="zoomminus.mouseout"/>
                        </use>
                        <path d="M-4,0h8" fill="none" stroke="white" stroke-width="1.5" pointer-events="none"/>
                </g>
                <g id="dirArrow">
                        <path fill="none" stroke="white" stroke-width="1.5" d="M0,-3.0v7 M-2.5,-0.5L0,-3.0L2.5,-0.5"/>
                </g>
               <g id="resetDef">
                       <use xlink:href="#rim2" fill="#404040">
                               <set attributeName="fill" to="#808080" begin="reset.mouseover" end="reset.mouseout"/>
                       </use>
               </g>
        </defs>

<script type="text/javascript">
var viewWidth = 793;
var viewHeight = 514;
var sectionId = 'dynsection-1';
</script>
<script xlink:href="svgpan.js"/>
<svg id="graph" class="graph">
<g id="viewport">
<title>AstNodeIndexed</title>
<polygon fill="white" stroke="none" points="-4,4 -4,-510 789.052,-510 789.052,4 -4,4"/>
<!-- Node1 -->
<g id="node1" class="node"><title>Node1</title>
<g id="a_node1"><a xlink:title=" ">
<polygon fill="#bfbfbf" stroke="black" points="695.111,-376.5 695.111,-394.5 785.052,-394.5 785.052,-376.5 695.111,-376.5"/>
<text text-anchor="middle" x="740.082" y="-382.5" font-family="Helvetica,sans-Serif" font-size="10.00">AstNodeIndexed</text>
</a>
</g>
</g>
<!-- Node2 -->
<g id="node2" class="node"><title>Node2</title>
<g id="a_node2"><a xlink:href="classast_1_1_ast_node_branch.html" target="_top" xlink:title="抽象構文木のノードの基本実装クラス.">
<polygon fill="white" stroke="black" points="501.368,-376.5 501.368,-394.5 587.407,-394.5 587.407,-376.5 501.368,-376.5"/>
<text text-anchor="middle" x="544.388" y="-382.5" font-family="Helvetica,sans-Serif" font-size="10.00">AstNodeBranch</text>
</a>
</g>
</g>
<!-- Node2&#45;&gt;Node1 -->
<g id="edge1" class="edge"><title>Node2&#45;&gt;Node1</title>
<path fill="none" stroke="midnightblue" d="M597.813,-385.5C628.157,-385.5 665.929,-385.5 694.779,-385.5"/>
<polygon fill="midnightblue" stroke="midnightblue" points="597.416,-382 587.416,-385.5 597.416,-389 597.416,-382"/>
</g>
<!-- Node3 -->
<g id="node3" class="node"><title>Node3</title>
<g id="a_node3"><a xlink:href="classast_1_1_ast_node.html" target="_top" xlink:title=" ">
<polygon fill="white" stroke="black" points="282.337,-286.5 282.337,-304.5 336.691,-304.5 336.691,-286.5 282.337,-286.5"/>
<text text-anchor="middle" x="309.514" y="-292.5" font-family="Helvetica,sans-Serif" font-size="10.00">AstNode</text>
</a>
</g>
</g>
<!-- Node3&#45;&gt;Node2 -->
<g id="edge2" class="edge"><title>Node3&#45;&gt;Node2</title>
<path fill="none" stroke="midnightblue" d="M346.971,-298.103C376.216,-301.867 416.886,-311.06 445.014,-333.5 458.073,-343.919 449.732,-356.366 463.014,-366.5 473.957,-374.85 487.995,-379.609 501.268,-382.297"/>
<polygon fill="midnightblue" stroke="midnightblue" points="347.088,-294.594 336.757,-296.947 346.301,-301.549 347.088,-294.594"/>
</g>
<!-- Node4 -->
<g id="node4" class="node"><title>Node4</title>
<g id="a_node4"><a xlink:href="interfaceformat_1_1_x_formattable.html" target="_top" xlink:title="入れ子フォーマット出力可能なオブジェクトのインタフェース。">
<polygon fill="white" stroke="black" points="0,-400.5 0,-418.5 76.0244,-418.5 76.0244,-400.5 0,-400.5"/>
<text text-anchor="middle" x="38.0122" y="-406.5" font-family="Helvetica,sans-Serif" font-size="10.00">XFormattable</text>
</a>
</g>
</g>
<!-- Node4&#45;&gt;Node3 -->
<g id="edge3" class="edge"><title>Node4&#45;&gt;Node3</title>
<path fill="none" stroke="midnightblue" d="M74.3716,-397.061C109.954,-384.017 165.977,-362.031 211.812,-337.5 220.29,-332.963 221.267,-329.907 229.812,-325.5 246.578,-316.855 266.431,-309.305 282.003,-303.941"/>
<polygon fill="midnightblue" stroke="midnightblue" points="73.1088,-393.795 64.9029,-400.497 75.497,-400.375 73.1088,-393.795"/>
</g>
<!-- Node9 -->
<g id="node9" class="node"><title>Node9</title>
<g id="a_node9"><a xlink:href="interfaceformat_1_1_x_formattable_1_1_navigatable.html" target="_top" xlink:title="木構造の分岐ノードとして清書可能なオブジェクトのクラス">
<polygon fill="white" stroke="black" points="243.707,-487.5 243.707,-505.5 375.322,-505.5 375.322,-487.5 243.707,-487.5"/>
<text text-anchor="middle" x="309.514" y="-493.5" font-family="Helvetica,sans-Serif" font-size="10.00">XFormattable.Navigatable</text>
</a>
</g>
</g>
<!-- Node4&#45;&gt;Node9 -->
<g id="edge9" class="edge"><title>Node4&#45;&gt;Node9</title>
<path fill="none" stroke="midnightblue" d="M73.3663,-422.043C80.2062,-424.525 87.3401,-427.104 94.0244,-429.5 154.279,-451.102 168.445,-459.298 229.812,-477.5 241.941,-481.097 255.268,-484.513 267.453,-487.431"/>
<polygon fill="midnightblue" stroke="midnightblue" points="74.2358,-418.635 63.6418,-418.507 71.8438,-425.214 74.2358,-418.635"/>
</g>
<!-- Node10 -->
<g id="node10" class="node"><title>Node10</title>
<g id="a_node10"><a xlink:href="interfaceformat_1_1_x_formattable_1_1_typed_formattable.html" target="_top" xlink:title="ノードの型情報をもつ書式出力可能なオブジェクトのインタフェース．">
<polygon fill="white" stroke="black" points="229.812,-413.5 229.812,-431.5 389.216,-431.5 389.216,-413.5 229.812,-413.5"/>
<text text-anchor="middle" x="309.514" y="-419.5" font-family="Helvetica,sans-Serif" font-size="10.00">XFormattable.TypedFormattable</text>
</a>
</g>
</g>
<!-- Node4&#45;&gt;Node10 -->
<g id="edge11" class="edge"><title>Node4&#45;&gt;Node10</title>
<path fill="none" stroke="midnightblue" d="M86.3678,-411.784C125.943,-413.693 183.206,-416.455 229.681,-418.697"/>
<polygon fill="midnightblue" stroke="midnightblue" points="86.3594,-408.28 76.2023,-411.294 86.0221,-415.272 86.3594,-408.28"/>
</g>
<!-- Node11 -->
<g id="node11" class="node"><title>Node11</title>
<g id="a_node11"><a xlink:href="interfaceformat_1_1_x_formattable_1_1_hgt_formattable.html" target="_top" xlink:title="ノードの高さ情報をもつ書式出力可能なオブジェクトのインタフェース．">
<polygon fill="white" stroke="black" points="235.655,-376.5 235.655,-394.5 383.374,-394.5 383.374,-376.5 235.655,-376.5"/>
<text text-anchor="middle" x="309.514" y="-382.5" font-family="Helvetica,sans-Serif" font-size="10.00">XFormattable.HgtFormattable</text>
</a>
</g>
</g>
<!-- Node4&#45;&gt;Node11 -->
<g id="edge13" class="edge"><title>Node4&#45;&gt;Node11</title>
<path fill="none" stroke="midnightblue" d="M86.2513,-405.293C127.487,-401.621 187.99,-396.233 235.463,-392.005"/>
<polygon fill="midnightblue" stroke="midnightblue" points="85.8524,-401.815 76.2023,-406.188 86.4734,-408.787 85.8524,-401.815"/>
</g>
<!-- Node5 -->
<g id="node5" class="node"><title>Node5</title>
<g id="a_node5"><a xlink:title=" ">
<polygon fill="white" stroke="#bfbfbf" points="5.46143,-328.5 5.46143,-346.5 70.563,-346.5 70.563,-328.5 5.46143,-328.5"/>
<text text-anchor="middle" x="38.0122" y="-334.5" font-family="Helvetica,sans-Serif" font-size="10.00">TraceLevel</text>
</a>
</g>
</g>
<!-- Node5&#45;&gt;Node2 -->
<g id="edge14" class="edge"><title>Node5&#45;&gt;Node2</title>
<path fill="none" stroke="#9a32cd" stroke-dasharray="5,2" d="M81.4076,-338.002C147.426,-339.187 278.699,-343.167 389.216,-356.5 428.288,-361.214 472.371,-369.846 503.36,-376.471"/>
<polygon fill="#9a32cd" stroke="#9a32cd" points="81.0603,-334.495 71.0034,-337.828 80.9437,-341.494 81.0603,-334.495"/>
<text text-anchor="middle" x="309.514" y="-358.5" font-family="Helvetica,sans-Serif" font-size="10.00"> LOG</text>
</g>
<!-- Node5&#45;&gt;Node3 -->
<g id="edge4" class="edge"><title>Node5&#45;&gt;Node3</title>
<path fill="none" stroke="#9a32cd" stroke-dasharray="5,2" d="M80.4446,-326.395C85.0098,-325.339 89.604,-324.348 94.0244,-323.5 161.333,-310.59 241.681,-301.857 282.27,-297.906"/>
<polygon fill="#9a32cd" stroke="#9a32cd" points="79.4735,-323.029 70.5757,-328.78 81.1181,-329.833 79.4735,-323.029"/>
<text text-anchor="middle" x="152.918" y="-325.5" font-family="Helvetica,sans-Serif" font-size="10.00"> LOG</text>
</g>
<!-- Node6 -->
<g id="node6" class="node"><title>Node6</title>
<g id="a_node6"><a xlink:title=" ">
<polygon fill="white" stroke="#bfbfbf" points="23.5122,-128.5 23.5122,-146.5 52.5122,-146.5 52.5122,-128.5 23.5122,-128.5"/>
<text text-anchor="middle" x="38.0122" y="-134.5" font-family="Helvetica,sans-Serif" font-size="10.00">int</text>
</a>
</g>
</g>
<!-- Node6&#45;&gt;Node2 -->
<g id="edge16" class="edge"><title>Node6&#45;&gt;Node2</title>
<path fill="none" stroke="#9a32cd" stroke-dasharray="5,2" d="M62.2899,-129.088C122.433,-108.945 285.533,-64.6089 389.216,-134.5 437.987,-167.376 427.784,-198.263 445.014,-254.5 459.783,-302.705 428.684,-329.577 463.014,-366.5 472.777,-377.001 487.177,-382.197 501.101,-384.631"/>
<polygon fill="#9a32cd" stroke="#9a32cd" points="60.9198,-125.858 52.6052,-132.424 63.1999,-132.476 60.9198,-125.858"/>
<text text-anchor="middle" x="309.514" y="-166.5" font-family="Helvetica,sans-Serif" font-size="10.00"> height</text>
<text text-anchor="middle" x="309.514" y="-156.5" font-family="Helvetica,sans-Serif" font-size="10.00">UNDEF</text>
<text text-anchor="start" x="269.785" y="-146.5" font-family="Helvetica,sans-Serif" font-size="10.00">BITMASK_PRINT</text>
<text text-anchor="middle" x="309.514" y="-136.5" font-family="Helvetica,sans-Serif" font-size="10.00">_WIDTH</text>
</g>
<!-- Node6&#45;&gt;Node3 -->
<g id="edge5" class="edge"><title>Node6&#45;&gt;Node3</title>
<path fill="none" stroke="#9a32cd" stroke-dasharray="5,2" d="M62.3965,-142.371C108.909,-152.095 208.841,-173.185 211.812,-175.5 225.924,-186.493 219.59,-196.82 229.812,-211.5 250.824,-241.676 282.289,-271.869 298.326,-286.465"/>
<polygon fill="#9a32cd" stroke="#9a32cd" points="63.075,-138.937 52.5707,-140.319 61.6444,-145.789 63.075,-138.937"/>
<text text-anchor="middle" x="152.918" y="-187.5" font-family="Helvetica,sans-Serif" font-size="10.00"> UNDEF</text>
<text text-anchor="middle" x="152.918" y="-177.5" font-family="Helvetica,sans-Serif" font-size="10.00">BITMASK_PRINT_WIDTH</text>
</g>
<!-- Node13 -->
<g id="node13" class="node"><title>Node13</title>
<g id="a_node13"><a xlink:href="classformat_1_1_style.html" target="_top" xlink:title="ノードの表示スタイルに関するプロパティのクラス.">
<polygon fill="white" stroke="black" points="290.398,-184.5 290.398,-202.5 328.63,-202.5 328.63,-184.5 290.398,-184.5"/>
<text text-anchor="middle" x="309.514" y="-190.5" font-family="Helvetica,sans-Serif" font-size="10.00">Style</text>
</a>
</g>
</g>
<!-- Node6&#45;&gt;Node13 -->
<g id="edge19" class="edge"><title>Node6&#45;&gt;Node13</title>
<path fill="none" stroke="#9a32cd" stroke-dasharray="5,2" d="M63.0577,-133.87C96.9132,-129.599 160.258,-124.705 211.812,-138.5 212.92,-138.796 265.651,-168.949 292.767,-184.477"/>
<polygon fill="#9a32cd" stroke="#9a32cd" points="62.2049,-130.453 52.7664,-135.266 63.1463,-137.39 62.2049,-130.453"/>
<text text-anchor="middle" x="152.918" y="-141.5" font-family="Helvetica,sans-Serif" font-size="10.00"> pref</text>
</g>
<!-- Node7 -->
<g id="node7" class="node"><title>Node7</title>
<g id="a_node7"><a xlink:href="classtype_1_1_x_typing.html" target="_top" xlink:title="ノードがもつ関数型self&lt;&#45;child*の型付け規則">
<polygon fill="white" stroke="black" points="11.9434,-280.5 11.9434,-298.5 64.0811,-298.5 64.0811,-280.5 11.9434,-280.5"/>
<text text-anchor="middle" x="38.0122" y="-286.5" font-family="Helvetica,sans-Serif" font-size="10.00">XTyping</text>
</a>
</g>
</g>
<!-- Node7&#45;&gt;Node3 -->
<g id="edge6" class="edge"><title>Node7&#45;&gt;Node3</title>
<path fill="none" stroke="#9a32cd" stroke-dasharray="5,2" d="M74.3698,-289.231C109.302,-289.076 164.253,-289.134 211.812,-290.5 235.674,-291.186 262.817,-292.649 282.26,-293.816"/>
<polygon fill="#9a32cd" stroke="#9a32cd" points="74.1833,-285.732 64.2019,-289.284 74.2202,-292.731 74.1833,-285.732"/>
<text text-anchor="middle" x="152.918" y="-292.5" font-family="Helvetica,sans-Serif" font-size="10.00"> typing</text>
</g>
<!-- Node8 -->
<g id="node8" class="node"><title>Node8</title>
<g id="a_node8"><a xlink:title=" ">
<polygon fill="white" stroke="#bfbfbf" points="12.2168,-223.5 12.2168,-241.5 63.8076,-241.5 63.8076,-223.5 12.2168,-223.5"/>
<text text-anchor="middle" x="38.0122" y="-229.5" font-family="Helvetica,sans-Serif" font-size="10.00">boolean</text>
</a>
</g>
</g>
<!-- Node8&#45;&gt;Node3 -->
<g id="edge7" class="edge"><title>Node8&#45;&gt;Node3</title>
<path fill="none" stroke="#9a32cd" stroke-dasharray="5,2" d="M73.7954,-240.631C128.438,-253.405 233.194,-277.893 282.121,-289.33"/>
<polygon fill="#9a32cd" stroke="#9a32cd" points="74.4174,-237.182 63.8832,-238.314 72.824,-243.998 74.4174,-237.182"/>
<text text-anchor="middle" x="152.918" y="-273.5" font-family="Helvetica,sans-Serif" font-size="10.00"> DEBUG_EVAL</text>
</g>
<!-- Node8&#45;&gt;Node13 -->
<g id="edge20" class="edge"><title>Node8&#45;&gt;Node13</title>
<path fill="none" stroke="#9a32cd" stroke-dasharray="5,2" d="M72.6731,-220.202C79.6556,-218.016 87.0203,-215.97 94.0244,-214.5 165.612,-199.473 252.95,-195.15 290.233,-193.946"/>
<polygon fill="#9a32cd" stroke="#9a32cd" points="71.204,-217.001 62.8028,-223.456 73.3958,-223.649 71.204,-217.001"/>
<text text-anchor="middle" x="152.918" y="-226.5" font-family="Helvetica,sans-Serif" font-size="10.00"> preoperSupress</text>
<text text-anchor="middle" x="152.918" y="-216.5" font-family="Helvetica,sans-Serif" font-size="10.00">toInline</text>
</g>
<!-- Node9&#45;&gt;Node1 -->
<g id="edge21" class="edge"><title>Node9&#45;&gt;Node1</title>
<path fill="none" stroke="midnightblue" d="M385.538,-486.023C405.006,-482.815 425.877,-478.941 445.014,-474.5 545.816,-451.109 662.717,-412.059 713.428,-394.516"/>
<polygon fill="midnightblue" stroke="midnightblue" points="384.818,-482.594 375.502,-487.64 385.932,-489.505 384.818,-482.594"/>
</g>
<!-- Node9&#45;&gt;Node2 -->
<g id="edge8" class="edge"><title>Node9&#45;&gt;Node2</title>
<path fill="none" stroke="midnightblue" d="M365.962,-484.91C373.86,-482.742 381.811,-480.271 389.216,-477.5 446.432,-456.088 506.409,-413.534 531.38,-394.764"/>
<polygon fill="midnightblue" stroke="midnightblue" points="364.825,-481.589 356.029,-487.495 366.588,-488.364 364.825,-481.589"/>
</g>
<!-- Node10&#45;&gt;Node2 -->
<g id="edge10" class="edge"><title>Node10&#45;&gt;Node2</title>
<path fill="none" stroke="midnightblue" d="M377.108,-411.919C417.02,-405.578 466.563,-397.706 501.143,-392.212"/>
<polygon fill="midnightblue" stroke="midnightblue" points="376.511,-408.47 367.184,-413.496 377.609,-415.383 376.511,-408.47"/>
</g>
<!-- Node11&#45;&gt;Node2 -->
<g id="edge12" class="edge"><title>Node11&#45;&gt;Node2</title>
<path fill="none" stroke="midnightblue" d="M393.683,-385.5C430.071,-385.5 471.192,-385.5 501.117,-385.5"/>
<polygon fill="midnightblue" stroke="midnightblue" points="393.558,-382 383.558,-385.5 393.558,-389 393.558,-382"/>
</g>
<!-- Node12 -->
<g id="node12" class="node"><title>Node12</title>
<g id="a_node12"><a xlink:title=" ">
<polygon fill="white" stroke="#bfbfbf" points="257.879,-450.5 257.879,-468.5 361.149,-468.5 361.149,-450.5 257.879,-450.5"/>
<text text-anchor="middle" x="309.514" y="-456.5" font-family="Helvetica,sans-Serif" font-size="10.00">List&lt; ast.AstNode &gt;</text>
</a>
</g>
</g>
<!-- Node12&#45;&gt;Node2 -->
<g id="edge15" class="edge"><title>Node12&#45;&gt;Node2</title>
<path fill="none" stroke="#9a32cd" stroke-dasharray="5,2" d="M361.489,-448.028C370.761,-445.705 380.313,-443.155 389.216,-440.5 436.466,-426.411 490.485,-406.157 520.394,-394.565"/>
<polygon fill="#9a32cd" stroke="#9a32cd" points="360.462,-444.676 351.582,-450.453 362.127,-451.475 360.462,-444.676"/>
<text text-anchor="middle" x="426.115" y="-436.5" font-family="Helvetica,sans-Serif" font-size="10.00"> children</text>
</g>
<!-- Node13&#45;&gt;Node2 -->
<g id="edge17" class="edge"><title>Node13&#45;&gt;Node2</title>
<path fill="none" stroke="#9a32cd" stroke-dasharray="5,2" d="M337.213,-207.508C367.857,-224.963 417.428,-257.661 445.014,-299.5 461.986,-325.242 440.883,-345.03 463.014,-366.5 473.202,-376.384 487.53,-381.465 501.273,-383.979"/>
<polygon fill="#9a32cd" stroke="#9a32cd" points="338.797,-204.384 328.356,-202.586 335.397,-210.503 338.797,-204.384"/>
<text text-anchor="middle" x="426.115" y="-301.5" font-family="Helvetica,sans-Serif" font-size="10.00"> sty</text>
</g>
<!-- Node14 -->
<g id="node14" class="node"><title>Node14</title>
<g id="a_node14"><a xlink:title=" ">
<polygon fill="white" stroke="#bfbfbf" points="16.9507,-0.5 16.9507,-18.5 59.0737,-18.5 59.0737,-0.5 16.9507,-0.5"/>
<text text-anchor="middle" x="38.0122" y="-6.5" font-family="Helvetica,sans-Serif" font-size="10.00">String</text>
</a>
</g>
</g>
<!-- Node14&#45;&gt;Node13 -->
<g id="edge18" class="edge"><title>Node14&#45;&gt;Node13</title>
<path fill="none" stroke="#9a32cd" stroke-dasharray="5,2" d="M69.3404,-6.42771C108.125,-4.32291 174.697,-7.16253 211.812,-45.5 244.136,-78.8881 203.107,-110.468 229.812,-148.5 244.375,-169.238 271.749,-181.69 290.06,-188.076"/>
<polygon fill="#9a32cd" stroke="#9a32cd" points="68.9215,-2.94818 59.1856,-7.1271 69.4025,-9.93164 68.9215,-2.94818"/>
<text text-anchor="middle" x="152.918" y="-117.5" font-family="Helvetica,sans-Serif" font-size="10.00"> parenLPAR</text>
<text text-anchor="middle" x="152.918" y="-107.5" font-family="Helvetica,sans-Serif" font-size="10.00">operSTR</text>
<text text-anchor="middle" x="152.918" y="-97.5" font-family="Helvetica,sans-Serif" font-size="10.00">parenLPAD</text>
<text text-anchor="middle" x="152.918" y="-87.5" font-family="Helvetica,sans-Serif" font-size="10.00">parenRPAR</text>
<text text-anchor="middle" x="152.918" y="-77.5" font-family="Helvetica,sans-Serif" font-size="10.00">childLPAD</text>
<text text-anchor="middle" x="152.918" y="-67.5" font-family="Helvetica,sans-Serif" font-size="10.00">parenRPAD</text>
<text text-anchor="middle" x="152.918" y="-57.5" font-family="Helvetica,sans-Serif" font-size="10.00">childRPAD</text>
<text text-anchor="middle" x="152.918" y="-47.5" font-family="Helvetica,sans-Serif" font-size="10.00">name</text>
</g>
<!-- Node15 -->
<g id="node15" class="node"><title>Node15</title>
<g id="a_node15"><a xlink:title=" ">
<polygon fill="white" stroke="#bfbfbf" points="463.014,-339.5 463.014,-357.5 625.762,-357.5 625.762,-339.5 463.014,-339.5"/>
<text text-anchor="middle" x="544.388" y="-345.5" font-family="Helvetica,sans-Serif" font-size="10.00">List&lt; Supplier&lt; XFormattable &gt; &gt;</text>
</a>
</g>
</g>
<!-- Node15&#45;&gt;Node1 -->
<g id="edge22" class="edge"><title>Node15&#45;&gt;Node1</title>
<path fill="none" stroke="#9a32cd" stroke-dasharray="5,2" d="M610.522,-359.218C631.791,-362.892 655.495,-367.174 677.111,-371.5 684.682,-373.015 692.746,-374.748 700.467,-376.467"/>
<polygon fill="#9a32cd" stroke="#9a32cd" points="611.065,-355.76 600.618,-357.52 609.883,-362.659 611.065,-355.76"/>
<text text-anchor="middle" x="660.437" y="-373.5" font-family="Helvetica,sans-Serif" font-size="10.00"> getters</text>
</g>
</g>
</svg>
        <g id="navigator" transform="translate(0 0)" fill="#404254">
                <rect fill="#f2f5e9" fill-opacity="0.5" stroke="#606060" stroke-width=".5" x="0" y="0" width="60" height="60"/>
                <use id="zoomplus" xlink:href="#zoomPlus" x="17" y="9" onmousedown="handleZoom(evt,'in')"/>
                <use id="zoomminus" xlink:href="#zoomMin" x="42" y="9" onmousedown="handleZoom(evt,'out')"/>
                <use id="reset" xlink:href="#resetDef" x="30" y="36" onmousedown="handleReset()"/>
                <g id="arrowUp" xlink:href="#dirArrow" transform="translate(30 24)" onmousedown="handlePan(0,-1)">
                  <use xlink:href="#rim" fill="#404040">
                        <set attributeName="fill" to="#808080" begin="arrowUp.mouseover" end="arrowUp.mouseout"/>
                  </use>
                  <path fill="none" stroke="white" stroke-width="1.5" d="M0,-3.0v7 M-2.5,-0.5L0,-3.0L2.5,-0.5"/>
                </g>
                <g id="arrowRight" xlink:href="#dirArrow" transform="rotate(90) translate(36 -43)" onmousedown="handlePan(1,0)">
                  <use xlink:href="#rim" fill="#404040">
                        <set attributeName="fill" to="#808080" begin="arrowRight.mouseover" end="arrowRight.mouseout"/>
                  </use>
                  <path fill="none" stroke="white" stroke-width="1.5" d="M0,-3.0v7 M-2.5,-0.5L0,-3.0L2.5,-0.5"/>
                </g>
                <g id="arrowDown" xlink:href="#dirArrow" transform="rotate(180) translate(-30 -48)" onmousedown="handlePan(0,1)">
                  <use xlink:href="#rim" fill="#404040">
                        <set attributeName="fill" to="#808080" begin="arrowDown.mouseover" end="arrowDown.mouseout"/>
                  </use>
                  <path fill="none" stroke="white" stroke-width="1.5" d="M0,-3.0v7 M-2.5,-0.5L0,-3.0L2.5,-0.5"/>
                </g>
                <g id="arrowLeft" xlink:href="#dirArrow" transform="rotate(270) translate(-36 17)" onmousedown="handlePan(-1,0)">
                  <use xlink:href="#rim" fill="#404040">
                        <set attributeName="fill" to="#808080" begin="arrowLeft.mouseover" end="arrowLeft.mouseout"/>
                  </use>
                  <path fill="none" stroke="white" stroke-width="1.5" d="M0,-3.0v7 M-2.5,-0.5L0,-3.0L2.5,-0.5"/>
                </g>
        </g>
        <svg viewBox="0 0 15 15" width="100%" height="30px" preserveAspectRatio="xMaxYMin meet">
         <g id="arrow_out" transform="scale(0.3 0.3)">
          <a xlink:href="classast_1_1_ast_node_indexed__coll__graph_org.svg" target="_base">
           <rect id="button" ry="5" rx="5" y="6" x="6" height="38" width="38"
                fill="#f2f5e9" fill-opacity="0.5" stroke="#606060" stroke-width="1.0"/>
           <path id="arrow"
             d="M 11.500037,31.436501 C 11.940474,20.09759 22.043105,11.32322 32.158766,21.979434 L 37.068811,17.246167 C 37.068811,17.246167 37.088388,32 37.088388,32 L 22.160133,31.978069 C 22.160133,31.978069 26.997745,27.140456 26.997745,27.140456 C 18.528582,18.264221 13.291696,25.230495 11.500037,31.436501 z"
             style="fill:#404040;"/>
          </a>
         </g>
        </svg>
</svg>
