<?xml version="1.0" encoding="UTF-8" standalone="no"?>
<!DOCTYPE svg PUBLIC "-//W3C//DTD SVG 1.1//EN"
 "http://www.w3.org/Graphics/SVG/1.1/DTD/svg11.dtd">
<!-- Generated by graphviz version 2.47.0 (20210316.0004)
 -->
<!-- Title: AstDataWriter Pages: 1 -->
<svg width="1071pt" height="363pt"
 viewBox="0.00 0.00 1071.22 363.00" xmlns="http://www.w3.org/2000/svg" xmlns:xlink="http://www.w3.org/1999/xlink">
<g id="graph0" class="graph" transform="scale(1 1) rotate(0) translate(4 359)">
<title>AstDataWriter</title>
<polygon fill="white" stroke="transparent" points="-4,4 -4,-359 1067.22,-359 1067.22,4 -4,4"/>
<!-- Node1 -->
<g id="node1" class="node">
<title>Node1</title>
<g id="a_node1"><a xlink:title="局所変数環境からの値を書き込むクラス">
<polygon fill="#bfbfbf" stroke="black" points="720.22,-0.5 720.22,-19.5 798.22,-19.5 798.22,-0.5 720.22,-0.5"/>
<text text-anchor="middle" x="759.22" y="-7.5" font-family="Helvetica,sans-Serif" font-size="10.00">AstDataWriter</text>
</a>
</g>
</g>
<!-- Node2 -->
<g id="node2" class="node">
<title>Node2</title>
<g id="a_node2"><a xlink:href="classast_1_1_ast_node_unary.html" target="_top" xlink:title="ただ一つの子をもつノードのクラス。">
<polygon fill="white" stroke="black" points="787.72,-67.5 787.72,-86.5 868.72,-86.5 868.72,-67.5 787.72,-67.5"/>
<text text-anchor="middle" x="828.22" y="-74.5" font-family="Helvetica,sans-Serif" font-size="10.00">AstNodeUnary</text>
</a>
</g>
</g>
<!-- Node2&#45;&gt;Node1 -->
<g id="edge1" class="edge">
<title>Node2&#45;&gt;Node1</title>
<path fill="none" stroke="midnightblue" d="M811.61,-60.36C798.05,-47.58 779.38,-29.99 768.38,-19.63"/>
<polygon fill="midnightblue" stroke="midnightblue" points="809.23,-62.92 818.91,-67.23 814.03,-57.83 809.23,-62.92"/>
</g>
<!-- Node3 -->
<g id="node3" class="node">
<title>Node3</title>
<g id="a_node3"><a xlink:href="classast_1_1_ast_node.html" target="_top" xlink:title="タグなしの順アクセスの子供をもてる抽象構文木のノードのクラス。">
<polygon fill="white" stroke="black" points="707.72,-124.5 707.72,-143.5 762.72,-143.5 762.72,-124.5 707.72,-124.5"/>
<text text-anchor="middle" x="735.22" y="-131.5" font-family="Helvetica,sans-Serif" font-size="10.00">AstNode</text>
</a>
</g>
</g>
<!-- Node3&#45;&gt;Node2 -->
<g id="edge2" class="edge">
<title>Node3&#45;&gt;Node2</title>
<path fill="none" stroke="midnightblue" d="M758.7,-119.11C776.04,-108.86 799.09,-95.23 813.79,-86.53"/>
<polygon fill="midnightblue" stroke="midnightblue" points="756.57,-116.3 749.75,-124.41 760.14,-122.33 756.57,-116.3"/>
</g>
<!-- Node20 -->
<g id="node20" class="node">
<title>Node20</title>
<g id="a_node20"><a xlink:href="classmachine_1_1_var.html" target="_top" xlink:title="フレーム中の変数参照オブジェクトref = (XType type, int vid)">
<polygon fill="white" stroke="black" points="663.72,-67.5 663.72,-86.5 694.72,-86.5 694.72,-67.5 663.72,-67.5"/>
<text text-anchor="middle" x="679.22" y="-74.5" font-family="Helvetica,sans-Serif" font-size="10.00">Var</text>
</a>
</g>
</g>
<!-- Node3&#45;&gt;Node20 -->
<g id="edge28" class="edge">
<title>Node3&#45;&gt;Node20</title>
<path fill="none" stroke="midnightblue" d="M713.53,-117.71C702.25,-107.72 689.67,-95.02 683,-86.71"/>
<polygon fill="midnightblue" stroke="midnightblue" points="711.52,-120.59 721.41,-124.41 716.05,-115.26 711.52,-120.59"/>
</g>
<!-- Node3&#45;&gt;Node20 -->
<g id="edge30" class="edge">
<title>Node3&#45;&gt;Node20</title>
<path fill="none" stroke="midnightblue" d="M724.96,-116.83C715.92,-106.98 703.13,-94.78 693.18,-86.71"/>
<polygon fill="midnightblue" stroke="midnightblue" points="722.34,-119.14 731.53,-124.41 727.63,-114.56 722.34,-119.14"/>
</g>
<!-- Node4 -->
<g id="node4" class="node">
<title>Node4</title>
<g id="a_node4"><a xlink:href="classast_1_1_ast_node_base.html" target="_top" xlink:title=" ">
<polygon fill="white" stroke="black" points="427.72,-191.5 427.72,-210.5 504.72,-210.5 504.72,-191.5 427.72,-191.5"/>
<text text-anchor="middle" x="466.22" y="-198.5" font-family="Helvetica,sans-Serif" font-size="10.00">AstNodeBase</text>
</a>
</g>
</g>
<!-- Node4&#45;&gt;Node3 -->
<g id="edge3" class="edge">
<title>Node4&#45;&gt;Node3</title>
<path fill="none" stroke="midnightblue" d="M511.42,-189.11C558.18,-177.85 633.31,-159.73 698.22,-144 701.17,-143.28 704.26,-142.53 707.34,-141.79"/>
<polygon fill="midnightblue" stroke="midnightblue" points="510.5,-185.74 501.6,-191.48 512.14,-192.54 510.5,-185.74"/>
</g>
<!-- Node5 -->
<g id="node5" class="node">
<title>Node5</title>
<g id="a_node5"><a xlink:title=" ">
<polygon fill="white" stroke="#bfbfbf" points="237.22,-335.5 237.22,-354.5 279.22,-354.5 279.22,-335.5 237.22,-335.5"/>
<text text-anchor="middle" x="258.22" y="-342.5" font-family="Helvetica,sans-Serif" font-size="10.00">String</text>
</a>
</g>
</g>
<!-- Node5&#45;&gt;Node4 -->
<g id="edge4" class="edge">
<title>Node5&#45;&gt;Node4</title>
<path fill="none" stroke="#9a32cd" stroke-dasharray="5,2" d="M269.57,-326.7C271.31,-323.56 272.94,-320.25 274.22,-317 288.83,-279.75 264.12,-256.46 293.22,-229 312.06,-211.21 382.55,-205.14 427.52,-203.07"/>
<polygon fill="#9a32cd" stroke="#9a32cd" points="266.5,-325 264.31,-335.37 272.49,-328.64 266.5,-325"/>
<text text-anchor="middle" x="319.22" y="-276" font-family="Helvetica,sans-Serif" font-size="10.00"> MOD_AST</text>
<text text-anchor="middle" x="319.22" y="-265" font-family="Helvetica,sans-Serif" font-size="10.00">mod_</text>
</g>
<!-- Node17 -->
<g id="node17" class="node">
<title>Node17</title>
<g id="a_node17"><a xlink:href="classformat_1_1_style.html" target="_top" xlink:title="ノードの表示スタイルに関するプロパティのクラス.">
<polygon fill="white" stroke="black" points="276.72,-191.5 276.72,-210.5 315.72,-210.5 315.72,-191.5 276.72,-191.5"/>
<text text-anchor="middle" x="296.22" y="-198.5" font-family="Helvetica,sans-Serif" font-size="10.00">Style</text>
</a>
</g>
</g>
<!-- Node5&#45;&gt;Node17 -->
<g id="edge19" class="edge">
<title>Node5&#45;&gt;Node17</title>
<path fill="none" stroke="#9a32cd" stroke-dasharray="5,2" d="M232.38,-329.43C228.27,-325.91 224.6,-321.77 222.22,-317 204.73,-282.02 199.8,-261.05 222.22,-229 234.37,-211.63 258.93,-205.4 276.43,-203.18"/>
<polygon fill="#9a32cd" stroke="#9a32cd" points="230.43,-332.34 240.57,-335.41 234.56,-326.69 230.43,-332.34"/>
<text text-anchor="middle" x="248.22" y="-309" font-family="Helvetica,sans-Serif" font-size="10.00"> childLPAD</text>
<text text-anchor="middle" x="248.22" y="-298" font-family="Helvetica,sans-Serif" font-size="10.00">childRPAD</text>
<text text-anchor="middle" x="248.22" y="-287" font-family="Helvetica,sans-Serif" font-size="10.00">name</text>
<text text-anchor="middle" x="248.22" y="-276" font-family="Helvetica,sans-Serif" font-size="10.00">operSTR</text>
<text text-anchor="middle" x="248.22" y="-265" font-family="Helvetica,sans-Serif" font-size="10.00">parenLPAD</text>
<text text-anchor="middle" x="248.22" y="-254" font-family="Helvetica,sans-Serif" font-size="10.00">parenLPAR</text>
<text text-anchor="middle" x="248.22" y="-243" font-family="Helvetica,sans-Serif" font-size="10.00">parenRPAD</text>
<text text-anchor="middle" x="248.22" y="-232" font-family="Helvetica,sans-Serif" font-size="10.00">parenRPAR</text>
</g>
<!-- Node6 -->
<g id="node6" class="node">
<title>Node6</title>
<g id="a_node6"><a xlink:title=" ">
<polygon fill="white" stroke="#bfbfbf" points="489.72,-335.5 489.72,-354.5 554.72,-354.5 554.72,-335.5 489.72,-335.5"/>
<text text-anchor="middle" x="522.22" y="-342.5" font-family="Helvetica,sans-Serif" font-size="10.00">TraceLevel</text>
</a>
</g>
</g>
<!-- Node6&#45;&gt;Node4 -->
<g id="edge5" class="edge">
<title>Node6&#45;&gt;Node4</title>
<path fill="none" stroke="#9a32cd" stroke-dasharray="5,2" d="M535.82,-326.74C537.63,-323.65 539.21,-320.34 540.22,-317 551.55,-279.57 562.64,-261.05 540.22,-229 535.36,-222.05 517.84,-215.5 501.07,-210.59"/>
<polygon fill="#9a32cd" stroke="#9a32cd" points="532.79,-324.97 530.02,-335.2 538.56,-328.93 532.79,-324.97"/>
<text text-anchor="middle" x="565.22" y="-270.5" font-family="Helvetica,sans-Serif" font-size="10.00"> LOG</text>
</g>
<!-- Node7 -->
<g id="node7" class="node">
<title>Node7</title>
<g id="a_node7"><a xlink:title=" ">
<polygon fill="white" stroke="#bfbfbf" points="572.72,-335.5 572.72,-354.5 645.72,-354.5 645.72,-335.5 572.72,-335.5"/>
<text text-anchor="middle" x="609.22" y="-342.5" font-family="Helvetica,sans-Serif" font-size="10.00">static Report</text>
</a>
</g>
</g>
<!-- Node7&#45;&gt;Node4 -->
<g id="edge6" class="edge">
<title>Node7&#45;&gt;Node4</title>
<path fill="none" stroke="#9a32cd" stroke-dasharray="5,2" d="M610.24,-325.18C610.54,-299.73 607.03,-254.6 581.22,-229 578.41,-226.21 537.1,-216.95 504.79,-210.05"/>
<polygon fill="#9a32cd" stroke="#9a32cd" points="606.74,-325.24 609.91,-335.35 613.73,-325.47 606.74,-325.24"/>
<text text-anchor="middle" x="621.22" y="-270.5" font-family="Helvetica,sans-Serif" font-size="10.00"> repo</text>
</g>
<!-- Node8 -->
<g id="node8" class="node">
<title>Node8</title>
<g id="a_node8"><a xlink:title=" ">
<polygon fill="white" stroke="#bfbfbf" points="17.72,-335.5 17.72,-354.5 46.72,-354.5 46.72,-335.5 17.72,-335.5"/>
<text text-anchor="middle" x="32.22" y="-342.5" font-family="Helvetica,sans-Serif" font-size="10.00">int</text>
</a>
</g>
</g>
<!-- Node8&#45;&gt;Node4 -->
<g id="edge7" class="edge">
<title>Node8&#45;&gt;Node4</title>
<path fill="none" stroke="#9a32cd" stroke-dasharray="5,2" d="M46.78,-327.19C49.15,-323.94 51.41,-320.47 53.22,-317 72.09,-280.7 48.19,-254.45 80.22,-229 83.6,-226.32 330.28,-210.54 427.48,-204.42"/>
<polygon fill="#9a32cd" stroke="#9a32cd" points="43.99,-325.07 40.5,-335.08 49.46,-329.43 43.99,-325.07"/>
<text text-anchor="middle" x="141.72" y="-276" font-family="Helvetica,sans-Serif" font-size="10.00"> BITMASK_PRINT_WIDTH</text>
<text text-anchor="middle" x="141.72" y="-265" font-family="Helvetica,sans-Serif" font-size="10.00">UNDEF</text>
</g>
<!-- Node8&#45;&gt;Node17 -->
<g id="edge20" class="edge">
<title>Node8&#45;&gt;Node17</title>
<path fill="none" stroke="#9a32cd" stroke-dasharray="5,2" d="M25.74,-325.67C18.12,-300.46 9.33,-255.23 33.22,-229 49.56,-211.05 218.41,-204.33 276.62,-202.54"/>
<polygon fill="#9a32cd" stroke="#9a32cd" points="22.49,-327.01 28.93,-335.42 29.14,-324.83 22.49,-327.01"/>
<text text-anchor="middle" x="43.22" y="-270.5" font-family="Helvetica,sans-Serif" font-size="10.00"> pref</text>
</g>
<!-- Node8&#45;&gt;Node20 -->
<g id="edge32" class="edge">
<title>Node8&#45;&gt;Node20</title>
<path fill="none" stroke="#9a32cd" stroke-dasharray="5,2" d="M18.62,-326.74C16.81,-323.65 15.23,-320.34 14.22,-317 2.88,-279.57 -10.18,-259.56 14.22,-229 99.44,-122.26 571.32,-85.26 663.57,-79"/>
<polygon fill="#9a32cd" stroke="#9a32cd" points="15.87,-328.93 24.41,-335.2 21.65,-324.97 15.87,-328.93"/>
<text text-anchor="middle" x="150.72" y="-165" font-family="Helvetica,sans-Serif" font-size="10.00"> UNDEF</text>
</g>
<!-- Node9 -->
<g id="node9" class="node">
<title>Node9</title>
<g id="a_node9"><a xlink:href="interfacetype_1_1_typable.html" target="_top" xlink:title="抽象ノードがもつ関数型のインタフェース">
<polygon fill="white" stroke="black" points="664.22,-335.5 664.22,-354.5 714.22,-354.5 714.22,-335.5 664.22,-335.5"/>
<text text-anchor="middle" x="689.22" y="-342.5" font-family="Helvetica,sans-Serif" font-size="10.00">Typable</text>
</a>
</g>
</g>
<!-- Node9&#45;&gt;Node4 -->
<g id="edge8" class="edge">
<title>Node9&#45;&gt;Node4</title>
<path fill="none" stroke="#9a32cd" stroke-dasharray="5,2" d="M686.23,-325.26C681.01,-299.19 667.64,-252.53 636.22,-229 614.28,-212.57 541.25,-215.53 514.22,-211 511.21,-210.5 508.09,-209.96 504.97,-209.4"/>
<polygon fill="#9a32cd" stroke="#9a32cd" points="682.83,-326.12 688.04,-335.34 689.72,-324.88 682.83,-326.12"/>
<text text-anchor="middle" x="699.22" y="-270.5" font-family="Helvetica,sans-Serif" font-size="10.00"> typing</text>
</g>
<!-- Node10 -->
<g id="node10" class="node">
<title>Node10</title>
<g id="a_node10"><a xlink:title=" ">
<polygon fill="white" stroke="#bfbfbf" points="383.22,-335.5 383.22,-354.5 433.22,-354.5 433.22,-335.5 383.22,-335.5"/>
<text text-anchor="middle" x="408.22" y="-342.5" font-family="Helvetica,sans-Serif" font-size="10.00">boolean</text>
</a>
</g>
</g>
<!-- Node10&#45;&gt;Node4 -->
<g id="edge9" class="edge">
<title>Node10&#45;&gt;Node4</title>
<path fill="none" stroke="#9a32cd" stroke-dasharray="5,2" d="M433.13,-329.22C437.38,-325.7 441.34,-321.6 444.22,-317 449.9,-307.9 461.16,-235.68 464.94,-210.57"/>
<polygon fill="#9a32cd" stroke="#9a32cd" points="430.84,-326.56 424.81,-335.27 434.95,-332.22 430.84,-326.56"/>
<text text-anchor="middle" x="498.72" y="-270.5" font-family="Helvetica,sans-Serif" font-size="10.00"> DEBUG_REPO</text>
</g>
<!-- Node10&#45;&gt;Node17 -->
<g id="edge21" class="edge">
<title>Node10&#45;&gt;Node17</title>
<path fill="none" stroke="#9a32cd" stroke-dasharray="5,2" d="M380.76,-329.64C375.98,-326.08 371.5,-321.86 368.22,-317 345.8,-283.86 373.63,-260.7 349.22,-229 340.97,-218.28 327.28,-211.46 315.88,-207.36"/>
<polygon fill="#9a32cd" stroke="#9a32cd" points="379.2,-332.81 389.48,-335.36 383.03,-326.95 379.2,-332.81"/>
<text text-anchor="middle" x="404.22" y="-276" font-family="Helvetica,sans-Serif" font-size="10.00"> preoperSupress</text>
<text text-anchor="middle" x="404.22" y="-265" font-family="Helvetica,sans-Serif" font-size="10.00">toInline</text>
</g>
<!-- Node11 -->
<g id="node11" class="node">
<title>Node11</title>
<g id="a_node11"><a xlink:href="interfaceast_1_1_node.html" target="_top" xlink:title=" ">
<polygon fill="white" stroke="black" points="845.22,-191.5 845.22,-210.5 885.22,-210.5 885.22,-191.5 845.22,-191.5"/>
<text text-anchor="middle" x="865.22" y="-198.5" font-family="Helvetica,sans-Serif" font-size="10.00">Node</text>
</a>
</g>
</g>
<!-- Node11&#45;&gt;Node3 -->
<g id="edge10" class="edge">
<title>Node11&#45;&gt;Node3</title>
<path fill="none" stroke="midnightblue" d="M838.77,-186.77C813.02,-173.9 774.64,-154.71 752.55,-143.67"/>
<polygon fill="midnightblue" stroke="midnightblue" points="837.45,-190.03 847.95,-191.37 840.58,-183.77 837.45,-190.03"/>
</g>
<!-- Node18 -->
<g id="node18" class="node">
<title>Node18</title>
<g id="a_node18"><a xlink:href="interfaceast_1_1_node_1_1_node_unary.html" target="_top" xlink:title="子供を一つだけもつノードのインタフェース">
<polygon fill="white" stroke="black" points="782.22,-124.5 782.22,-143.5 874.22,-143.5 874.22,-124.5 782.22,-124.5"/>
<text text-anchor="middle" x="828.22" y="-131.5" font-family="Helvetica,sans-Serif" font-size="10.00">Node.NodeUnary</text>
</a>
</g>
</g>
<!-- Node11&#45;&gt;Node18 -->
<g id="edge23" class="edge">
<title>Node11&#45;&gt;Node18</title>
<path fill="none" stroke="midnightblue" d="M855.28,-182.53C848.11,-169.95 838.75,-153.51 833.13,-143.63"/>
<polygon fill="midnightblue" stroke="midnightblue" points="852.24,-184.27 860.23,-191.23 858.32,-180.81 852.24,-184.27"/>
</g>
<!-- Node12 -->
<g id="node12" class="node">
<title>Node12</title>
<g id="a_node12"><a xlink:href="interfaceformat_1_1_x_formattable.html" target="_top" xlink:title="入れ子フォーマット出力可能なオブジェクトのインタフェース。">
<polygon fill="white" stroke="black" points="732.72,-335.5 732.72,-354.5 807.72,-354.5 807.72,-335.5 732.72,-335.5"/>
<text text-anchor="middle" x="770.22" y="-342.5" font-family="Helvetica,sans-Serif" font-size="10.00">XFormattable</text>
</a>
</g>
</g>
<!-- Node12&#45;&gt;Node11 -->
<g id="edge11" class="edge">
<title>Node12&#45;&gt;Node11</title>
<path fill="none" stroke="midnightblue" d="M781.78,-326.72C802.28,-296.08 844.26,-233.32 859.52,-210.52"/>
<polygon fill="midnightblue" stroke="midnightblue" points="778.81,-324.86 776.16,-335.12 784.63,-328.75 778.81,-324.86"/>
</g>
<!-- Node13 -->
<g id="node13" class="node">
<title>Node13</title>
<g id="a_node13"><a xlink:href="interfaceformat_1_1_x_formattable_1_1_navigatable.html" target="_top" xlink:title="木構造の分岐ノードとして清書可能なオブジェクトのクラス">
<polygon fill="white" stroke="black" points="523.22,-191.5 523.22,-210.5 653.22,-210.5 653.22,-191.5 523.22,-191.5"/>
<text text-anchor="middle" x="588.22" y="-198.5" font-family="Helvetica,sans-Serif" font-size="10.00">XFormattable.Navigatable</text>
</a>
</g>
</g>
<!-- Node12&#45;&gt;Node13 -->
<g id="edge13" class="edge">
<title>Node12&#45;&gt;Node13</title>
<path fill="none" stroke="midnightblue" d="M757.13,-327.06C754.98,-323.82 752.9,-320.39 751.22,-317 732.97,-280.23 753.8,-256.37 723.22,-229 717.12,-223.54 678.88,-216.19 644.66,-210.54"/>
<polygon fill="midnightblue" stroke="midnightblue" points="754.48,-329.36 763.16,-335.43 760.16,-325.27 754.48,-329.36"/>
</g>
<!-- Node14 -->
<g id="node14" class="node">
<title>Node14</title>
<g id="a_node14"><a xlink:href="interfaceformat_1_1_x_formattable_1_1_typed_formattable.html" target="_top" xlink:title="ノードの型情報をもつ書式出力可能なオブジェクトのインタフェース．">
<polygon fill="white" stroke="black" points="671.22,-191.5 671.22,-210.5 827.22,-210.5 827.22,-191.5 671.22,-191.5"/>
<text text-anchor="middle" x="749.22" y="-198.5" font-family="Helvetica,sans-Serif" font-size="10.00">XFormattable.TypedFormattable</text>
</a>
</g>
</g>
<!-- Node12&#45;&gt;Node14 -->
<g id="edge15" class="edge">
<title>Node12&#45;&gt;Node14</title>
<path fill="none" stroke="midnightblue" d="M767.42,-325.11C762.81,-293.93 753.79,-232.93 750.48,-210.52"/>
<polygon fill="midnightblue" stroke="midnightblue" points="763.98,-325.74 768.9,-335.12 770.9,-324.71 763.98,-325.74"/>
</g>
<!-- Node13&#45;&gt;Node1 -->
<g id="edge24" class="edge">
<title>Node13&#45;&gt;Node1</title>
<path fill="none" stroke="midnightblue" d="M592.61,-181.69C600.32,-153.28 618.96,-98.58 654.22,-67 678.69,-45.09 713.27,-28.79 735.96,-19.59"/>
<polygon fill="midnightblue" stroke="midnightblue" points="589.18,-180.94 590.1,-191.5 595.97,-182.68 589.18,-180.94"/>
</g>
<!-- Node13&#45;&gt;Node3 -->
<g id="edge12" class="edge">
<title>Node13&#45;&gt;Node3</title>
<path fill="none" stroke="midnightblue" d="M616.98,-187.28C646.09,-174.41 690.32,-154.85 715.62,-143.67"/>
<polygon fill="midnightblue" stroke="midnightblue" points="615.47,-184.12 607.74,-191.37 618.3,-190.53 615.47,-184.12"/>
</g>
<!-- Node14&#45;&gt;Node3 -->
<g id="edge14" class="edge">
<title>Node14&#45;&gt;Node3</title>
<path fill="none" stroke="midnightblue" d="M745.21,-181.41C742.54,-168.99 739.14,-153.22 737.08,-143.63"/>
<polygon fill="midnightblue" stroke="midnightblue" points="741.8,-182.19 747.33,-191.23 748.65,-180.72 741.8,-182.19"/>
</g>
<!-- Node15 -->
<g id="node15" class="node">
<title>Node15</title>
<g id="a_node15"><a xlink:title=" ">
<polygon fill="white" stroke="#bfbfbf" points="903.22,-191.5 903.22,-210.5 993.22,-210.5 993.22,-191.5 903.22,-191.5"/>
<text text-anchor="middle" x="948.22" y="-198.5" font-family="Helvetica,sans-Serif" font-size="10.00">List&lt; ast.Node &gt;</text>
</a>
</g>
</g>
<!-- Node15&#45;&gt;Node3 -->
<g id="edge16" class="edge">
<title>Node15&#45;&gt;Node3</title>
<path fill="none" stroke="#9a32cd" stroke-dasharray="5,2" d="M910.27,-188.42C867.97,-175.51 800.58,-154.94 762.94,-143.46"/>
<polygon fill="#9a32cd" stroke="#9a32cd" points="909.35,-191.8 919.93,-191.37 911.39,-185.1 909.35,-191.8"/>
<text text-anchor="middle" x="872.72" y="-165" font-family="Helvetica,sans-Serif" font-size="10.00"> children</text>
</g>
<!-- Node16 -->
<g id="node16" class="node">
<title>Node16</title>
<g id="a_node16"><a xlink:title=" ">
<polygon fill="white" stroke="#bfbfbf" points="1011.22,-191.5 1011.22,-210.5 1063.22,-210.5 1063.22,-191.5 1011.22,-191.5"/>
<text text-anchor="middle" x="1037.22" y="-198.5" font-family="Helvetica,sans-Serif" font-size="10.00">Boolean</text>
</a>
</g>
</g>
<!-- Node16&#45;&gt;Node3 -->
<g id="edge17" class="edge">
<title>Node16&#45;&gt;Node3</title>
<path fill="none" stroke="#9a32cd" stroke-dasharray="5,2" d="M1001.08,-189.1C972.55,-180.79 931.61,-169.53 895.22,-162 841.54,-150.9 827.05,-154.33 773.22,-144 769.89,-143.36 766.41,-142.63 762.97,-141.86"/>
<polygon fill="#9a32cd" stroke="#9a32cd" points="1000.42,-192.55 1011,-192.01 1002.39,-185.83 1000.42,-192.55"/>
<text text-anchor="middle" x="976.22" y="-165" font-family="Helvetica,sans-Serif" font-size="10.00"> DEBUG_CHILD</text>
</g>
<!-- Node17&#45;&gt;Node3 -->
<g id="edge18" class="edge">
<title>Node17&#45;&gt;Node3</title>
<path fill="none" stroke="#9a32cd" stroke-dasharray="5,2" d="M325.95,-195.68C375.24,-188.54 477.01,-173.88 563.22,-162 623.18,-153.74 638.73,-155.17 698.22,-144 701.21,-143.44 704.32,-142.79 707.41,-142.1"/>
<polygon fill="#9a32cd" stroke="#9a32cd" points="325.37,-192.23 315.97,-197.13 326.37,-199.16 325.37,-192.23"/>
<text text-anchor="middle" x="571.72" y="-165" font-family="Helvetica,sans-Serif" font-size="10.00"> sty</text>
</g>
<!-- Node18&#45;&gt;Node1 -->
<g id="edge25" class="edge">
<title>Node18&#45;&gt;Node1</title>
<path fill="none" stroke="midnightblue" d="M807.08,-118.21C796.94,-110.09 785.47,-99.2 778.22,-87 765.16,-65.02 761.03,-34.33 759.76,-19.59"/>
<polygon fill="midnightblue" stroke="midnightblue" points="805.07,-121.08 815.15,-124.35 809.31,-115.51 805.07,-121.08"/>
</g>
<!-- Node18&#45;&gt;Node2 -->
<g id="edge22" class="edge">
<title>Node18&#45;&gt;Node2</title>
<path fill="none" stroke="midnightblue" d="M828.22,-114.12C828.22,-104.82 828.22,-94.06 828.22,-86.71"/>
<polygon fill="midnightblue" stroke="midnightblue" points="824.72,-114.41 828.22,-124.41 831.72,-114.41 824.72,-114.41"/>
</g>
<!-- Node19 -->
<g id="node19" class="node">
<title>Node19</title>
<g id="a_node19"><a xlink:href="interfacemachine_1_1_data_accessor.html" target="_top" xlink:title="参照をもつデータ読み書きオブジェクトのインタフェース.">
<polygon fill="white" stroke="black" points="886.72,-67.5 886.72,-86.5 965.72,-86.5 965.72,-67.5 886.72,-67.5"/>
<text text-anchor="middle" x="926.22" y="-74.5" font-family="Helvetica,sans-Serif" font-size="10.00">DataAccessor</text>
</a>
</g>
</g>
<!-- Node19&#45;&gt;Node1 -->
<g id="edge26" class="edge">
<title>Node19&#45;&gt;Node1</title>
<path fill="none" stroke="midnightblue" d="M894.37,-63.6C861.21,-50.7 810.16,-30.83 781.22,-19.56"/>
<polygon fill="midnightblue" stroke="midnightblue" points="893.45,-67 904.04,-67.37 895.99,-60.48 893.45,-67"/>
</g>
<!-- Node20&#45;&gt;Node1 -->
<g id="edge27" class="edge">
<title>Node20&#45;&gt;Node1</title>
<path fill="none" stroke="#9a32cd" stroke-dasharray="5,2" d="M698.03,-60.71C713.79,-47.91 735.72,-30.09 748.6,-19.63"/>
<polygon fill="#9a32cd" stroke="#9a32cd" points="695.56,-58.21 690.01,-67.23 699.98,-63.64 695.56,-58.21"/>
<text text-anchor="middle" x="731.72" y="-41" font-family="Helvetica,sans-Serif" font-size="10.00"> ref</text>
</g>
<!-- Node21 -->
<g id="node21" class="node">
<title>Node21</title>
<g id="a_node21"><a xlink:href="interfacemachine_1_1_assignable.html" target="_top" xlink:title="変数（チャネルとコンテナの名前）の抽象化">
<polygon fill="white" stroke="black" points="624.72,-124.5 624.72,-143.5 689.72,-143.5 689.72,-124.5 624.72,-124.5"/>
<text text-anchor="middle" x="657.22" y="-131.5" font-family="Helvetica,sans-Serif" font-size="10.00">Assignable</text>
</a>
</g>
</g>
<!-- Node21&#45;&gt;Node20 -->
<g id="edge29" class="edge">
<title>Node21&#45;&gt;Node20</title>
<path fill="none" stroke="midnightblue" d="M658.13,-114.73C661.16,-105.29 666.03,-94.22 670.64,-86.71"/>
<polygon fill="midnightblue" stroke="midnightblue" points="654.74,-113.85 655.59,-124.41 661.51,-115.62 654.74,-113.85"/>
</g>
<!-- Node21&#45;&gt;Node20 -->
<g id="edge31" class="edge">
<title>Node21&#45;&gt;Node20</title>
<path fill="none" stroke="midnightblue" d="M670.64,-115.33C675.27,-105.77 679.41,-94.38 680.82,-86.71"/>
<polygon fill="midnightblue" stroke="midnightblue" points="667.41,-113.95 665.72,-124.41 673.56,-117.28 667.41,-113.95"/>
</g>
</g>
</svg>
