<?xml version="1.0" encoding="UTF-8" standalone="no"?>
<!DOCTYPE svg PUBLIC "-//W3C//DTD SVG 1.1//EN"
 "http://www.w3.org/Graphics/SVG/1.1/DTD/svg11.dtd">
<!-- Generated by graphviz version 2.47.0 (20210316.0004)
 -->
<!-- Title: AstList.ListWrapper&lt; T &gt; Pages: 1 -->
<svg width="533pt" height="308pt"
 viewBox="0.00 0.00 533.00 308.00" xmlns="http://www.w3.org/2000/svg" xmlns:xlink="http://www.w3.org/1999/xlink">
<g id="graph0" class="graph" transform="scale(1 1) rotate(0) translate(4 304)">
<title>AstList.ListWrapper&lt; T &gt;</title>
<polygon fill="white" stroke="transparent" points="-4,4 -4,-304 529,-304 529,4 -4,4"/>
<!-- Node1 -->
<g id="node1" class="node">
<title>Node1</title>
<g id="a_node1"><a xlink:title="Javaの基本型データの清書用の包み込みアトム">
<polygon fill="#bfbfbf" stroke="black" points="241,-0.5 241,-19.5 367,-19.5 367,-0.5 241,-0.5"/>
<text text-anchor="middle" x="304" y="-7.5" font-family="Helvetica,sans-Serif" font-size="10.00">AstList.ListWrapper&lt; T &gt;</text>
</a>
</g>
</g>
<!-- Node2 -->
<g id="node2" class="node">
<title>Node2</title>
<g id="a_node2"><a xlink:href="classast_1_1_ast_list.html" target="_top" xlink:title="リストのテンプレート.">
<polygon fill="white" stroke="black" points="254.5,-56.5 254.5,-75.5 301.5,-75.5 301.5,-56.5 254.5,-56.5"/>
<text text-anchor="middle" x="278" y="-63.5" font-family="Helvetica,sans-Serif" font-size="10.00">AstList</text>
</a>
</g>
</g>
<!-- Node2&#45;&gt;Node1 -->
<g id="edge1" class="edge">
<title>Node2&#45;&gt;Node1</title>
<path fill="none" stroke="midnightblue" d="M286.67,-46.98C291.09,-37.82 296.25,-27.09 299.79,-19.75"/>
<polygon fill="midnightblue" stroke="midnightblue" points="283.48,-45.55 282.29,-56.08 289.79,-48.59 283.48,-45.55"/>
</g>
<!-- Node3 -->
<g id="node3" class="node">
<title>Node3</title>
<g id="a_node3"><a xlink:href="classast_1_1_ast_node_branch.html" target="_top" xlink:title="タグなしの順アクセスの子供をもてる抽象構文木のノードのクラス。">
<polygon fill="white" stroke="black" points="144,-112.5 144,-131.5 230,-131.5 230,-112.5 144,-112.5"/>
<text text-anchor="middle" x="187" y="-119.5" font-family="Helvetica,sans-Serif" font-size="10.00">AstNodeBranch</text>
</a>
</g>
</g>
<!-- Node3&#45;&gt;Node2 -->
<g id="edge2" class="edge">
<title>Node3&#45;&gt;Node2</title>
<path fill="none" stroke="midnightblue" d="M210.29,-107.18C227.04,-97.24 249.1,-84.15 263.42,-75.65"/>
<polygon fill="midnightblue" stroke="midnightblue" points="208.43,-104.21 201.62,-112.32 212.01,-110.23 208.43,-104.21"/>
</g>
<!-- Node4 -->
<g id="node4" class="node">
<title>Node4</title>
<g id="a_node4"><a xlink:href="classast_1_1_ast_node.html" target="_top" xlink:title=" ">
<polygon fill="white" stroke="black" points="139.5,-168.5 139.5,-187.5 194.5,-187.5 194.5,-168.5 139.5,-168.5"/>
<text text-anchor="middle" x="167" y="-175.5" font-family="Helvetica,sans-Serif" font-size="10.00">AstNode</text>
</a>
</g>
</g>
<!-- Node4&#45;&gt;Node3 -->
<g id="edge3" class="edge">
<title>Node4&#45;&gt;Node3</title>
<path fill="none" stroke="midnightblue" d="M173.78,-158.69C177.15,-149.59 181.07,-139.01 183.76,-131.75"/>
<polygon fill="midnightblue" stroke="midnightblue" points="170.49,-157.49 170.3,-168.08 177.06,-159.92 170.49,-157.49"/>
</g>
<!-- Node5 -->
<g id="node5" class="node">
<title>Node5</title>
<g id="a_node5"><a xlink:href="interfaceformat_1_1_x_formattable.html" target="_top" xlink:title="入れ子フォーマット出力可能なオブジェクトのインタフェース。">
<polygon fill="white" stroke="black" points="198.5,-280.5 198.5,-299.5 273.5,-299.5 273.5,-280.5 198.5,-280.5"/>
<text text-anchor="middle" x="236" y="-287.5" font-family="Helvetica,sans-Serif" font-size="10.00">XFormattable</text>
</a>
</g>
</g>
<!-- Node5&#45;&gt;Node4 -->
<g id="edge4" class="edge">
<title>Node5&#45;&gt;Node4</title>
<path fill="none" stroke="midnightblue" d="M222.86,-272.16C216.59,-263.85 209.14,-253.59 203,-244 190.48,-224.44 177.77,-200.25 171.33,-187.61"/>
<polygon fill="midnightblue" stroke="midnightblue" points="220.22,-274.46 229.08,-280.27 225.78,-270.2 220.22,-274.46"/>
</g>
<!-- Node7 -->
<g id="node7" class="node">
<title>Node7</title>
<g id="a_node7"><a xlink:href="interfaceformat_1_1_x_formattable_1_1_label_formattable.html" target="_top" xlink:title="カスタム清書出力器をもつオブジェクトのクラス．">
<polygon fill="white" stroke="black" points="212.5,-224.5 212.5,-243.5 365.5,-243.5 365.5,-224.5 212.5,-224.5"/>
<text text-anchor="middle" x="289" y="-231.5" font-family="Helvetica,sans-Serif" font-size="10.00">XFormattable.LabelFormattable</text>
</a>
</g>
</g>
<!-- Node5&#45;&gt;Node7 -->
<g id="edge7" class="edge">
<title>Node5&#45;&gt;Node7</title>
<path fill="none" stroke="midnightblue" d="M251.98,-272.72C261.32,-263.2 272.75,-251.56 280.41,-243.75"/>
<polygon fill="midnightblue" stroke="midnightblue" points="249.26,-270.49 244.75,-280.08 254.25,-275.4 249.26,-270.49"/>
</g>
<!-- Node8 -->
<g id="node8" class="node">
<title>Node8</title>
<g id="a_node8"><a xlink:href="interfaceformat_1_1_x_formattable_1_1_typed_formattable.html" target="_top" xlink:title="ノードの型情報をもつ書式出力可能なオブジェクトのインタフェース．">
<polygon fill="white" stroke="black" points="0,-224.5 0,-243.5 156,-243.5 156,-224.5 0,-224.5"/>
<text text-anchor="middle" x="78" y="-231.5" font-family="Helvetica,sans-Serif" font-size="10.00">XFormattable.TypedFormattable</text>
</a>
</g>
</g>
<!-- Node5&#45;&gt;Node8 -->
<g id="edge9" class="edge">
<title>Node5&#45;&gt;Node8</title>
<path fill="none" stroke="midnightblue" d="M201.39,-277.17C171.64,-267 129.45,-252.59 102.92,-243.52"/>
<polygon fill="midnightblue" stroke="midnightblue" points="200.37,-280.52 210.96,-280.44 202.63,-273.9 200.37,-280.52"/>
</g>
<!-- Node9 -->
<g id="node9" class="node">
<title>Node9</title>
<g id="a_node9"><a xlink:href="interfaceformat_1_1_x_formattable_1_1_custom_formattable.html" target="_top" xlink:title="カスタム清書出力器をもつオブジェクトのクラス．">
<polygon fill="white" stroke="black" points="361,-168.5 361,-187.5 525,-187.5 525,-168.5 361,-168.5"/>
<text text-anchor="middle" x="443" y="-175.5" font-family="Helvetica,sans-Serif" font-size="10.00">XFormattable.CustomFormattable</text>
</a>
</g>
</g>
<!-- Node5&#45;&gt;Node9 -->
<g id="edge12" class="edge">
<title>Node5&#45;&gt;Node9</title>
<path fill="none" stroke="midnightblue" d="M283.56,-279.24C311.51,-272.16 346.77,-260.84 375,-244 400.81,-228.6 424.64,-201.76 436.01,-187.88"/>
<polygon fill="midnightblue" stroke="midnightblue" points="282.51,-275.89 273.62,-281.66 284.17,-282.69 282.51,-275.89"/>
</g>
<!-- Node6 -->
<g id="node6" class="node">
<title>Node6</title>
<g id="a_node6"><a xlink:href="interfaceformat_1_1_x_formattable_1_1_navigatable.html" target="_top" xlink:title="木構造の分岐ノードとして清書可能なオブジェクトのクラス">
<polygon fill="white" stroke="black" points="213,-168.5 213,-187.5 343,-187.5 343,-168.5 213,-168.5"/>
<text text-anchor="middle" x="278" y="-175.5" font-family="Helvetica,sans-Serif" font-size="10.00">XFormattable.Navigatable</text>
</a>
</g>
</g>
<!-- Node6&#45;&gt;Node2 -->
<g id="edge10" class="edge">
<title>Node6&#45;&gt;Node2</title>
<path fill="none" stroke="midnightblue" d="M278,-158.35C278,-134.25 278,-93.31 278,-75.59"/>
<polygon fill="midnightblue" stroke="midnightblue" points="274.5,-158.37 278,-168.37 281.5,-158.37 274.5,-158.37"/>
</g>
<!-- Node6&#45;&gt;Node3 -->
<g id="edge5" class="edge">
<title>Node6&#45;&gt;Node3</title>
<path fill="none" stroke="midnightblue" d="M254.71,-163.18C237.96,-153.24 215.9,-140.15 201.58,-131.65"/>
<polygon fill="midnightblue" stroke="midnightblue" points="252.99,-166.23 263.38,-168.32 256.57,-160.21 252.99,-166.23"/>
</g>
<!-- Node7&#45;&gt;Node6 -->
<g id="edge6" class="edge">
<title>Node7&#45;&gt;Node6</title>
<path fill="none" stroke="midnightblue" d="M285.15,-214.1C283.32,-205.14 281.23,-194.86 279.78,-187.75"/>
<polygon fill="midnightblue" stroke="midnightblue" points="281.76,-214.98 287.18,-224.08 288.62,-213.59 281.76,-214.98"/>
</g>
<!-- Node8&#45;&gt;Node3 -->
<g id="edge8" class="edge">
<title>Node8&#45;&gt;Node3</title>
<path fill="none" stroke="midnightblue" d="M89.88,-216.07C99.84,-202.41 114.84,-183.06 130,-168 144.13,-153.96 162.53,-140.11 174.55,-131.56"/>
<polygon fill="midnightblue" stroke="midnightblue" points="86.82,-214.33 83.85,-224.49 92.51,-218.4 86.82,-214.33"/>
</g>
<!-- Node9&#45;&gt;Node1 -->
<g id="edge11" class="edge">
<title>Node9&#45;&gt;Node1</title>
<path fill="none" stroke="midnightblue" d="M428.94,-160.21C399.68,-125.26 333.13,-45.79 311.17,-19.57"/>
<polygon fill="midnightblue" stroke="midnightblue" points="426.42,-162.66 435.53,-168.08 431.79,-158.16 426.42,-162.66"/>
</g>
</g>
</svg>
