<?xml version="1.0" encoding="UTF-8" standalone="no"?>
<!DOCTYPE svg PUBLIC "-//W3C//DTD SVG 1.1//EN"
 "http://www.w3.org/Graphics/SVG/1.1/DTD/svg11.dtd">
<!-- Generated by graphviz version 2.47.0 (20210316.0004)
 -->
<!-- Title: IdMask Pages: 1 -->
<svg width="482pt" height="174pt"
 viewBox="0.00 0.00 482.00 174.00" xmlns="http://www.w3.org/2000/svg" xmlns:xlink="http://www.w3.org/1999/xlink">
<g id="graph0" class="graph" transform="scale(1 1) rotate(0) translate(4 170)">
<title>IdMask</title>
<polygon fill="white" stroke="transparent" points="-4,4 -4,-170 478,-170 478,4 -4,4"/>
<!-- Node1 -->
<g id="node1" class="node">
<title>Node1</title>
<g id="a_node1"><a xlink:title="@IDのマスク">
<polygon fill="#bfbfbf" stroke="black" points="248.5,-0.5 248.5,-19.5 297.5,-19.5 297.5,-0.5 248.5,-0.5"/>
<text text-anchor="middle" x="273" y="-7.5" font-family="Helvetica,sans-Serif" font-size="10.00">IdMask</text>
</a>
</g>
</g>
<!-- Node2 -->
<g id="node2" class="node">
<title>Node2</title>
<g id="a_node2"><a xlink:href="interfaceformat_1_1_x_formattable_1_1_custom_formattable.html" target="_top" xlink:title="カスタム清書出力器をもつオブジェクトのクラス．">
<polygon fill="white" stroke="black" points="0,-89.5 0,-108.5 164,-108.5 164,-89.5 0,-89.5"/>
<text text-anchor="middle" x="82" y="-96.5" font-family="Helvetica,sans-Serif" font-size="10.00">XFormattable.CustomFormattable</text>
</a>
</g>
</g>
<!-- Node2&#45;&gt;Node1 -->
<g id="edge1" class="edge">
<title>Node2&#45;&gt;Node1</title>
<path fill="none" stroke="midnightblue" d="M103.43,-83.93C124.16,-70.76 156.8,-51.19 187,-38 207.08,-29.23 230.92,-21.98 248.4,-17.21"/>
<polygon fill="midnightblue" stroke="midnightblue" points="101.31,-81.13 94.79,-89.48 105.09,-87.02 101.31,-81.13"/>
</g>
<!-- Node3 -->
<g id="node3" class="node">
<title>Node3</title>
<g id="a_node3"><a xlink:href="interfaceformat_1_1_x_formattable.html" target="_top" xlink:title="入れ子フォーマット出力可能なオブジェクトのインタフェース。">
<polygon fill="white" stroke="black" points="44.5,-146.5 44.5,-165.5 119.5,-165.5 119.5,-146.5 44.5,-146.5"/>
<text text-anchor="middle" x="82" y="-153.5" font-family="Helvetica,sans-Serif" font-size="10.00">XFormattable</text>
</a>
</g>
</g>
<!-- Node3&#45;&gt;Node2 -->
<g id="edge2" class="edge">
<title>Node3&#45;&gt;Node2</title>
<path fill="none" stroke="midnightblue" d="M82,-136.12C82,-126.82 82,-116.06 82,-108.71"/>
<polygon fill="midnightblue" stroke="midnightblue" points="78.5,-136.41 82,-146.41 85.5,-136.41 78.5,-136.41"/>
</g>
<!-- Node4 -->
<g id="node4" class="node">
<title>Node4</title>
<g id="a_node4"><a xlink:title=" ">
<polygon fill="white" stroke="#bfbfbf" points="182.5,-89.5 182.5,-108.5 211.5,-108.5 211.5,-89.5 182.5,-89.5"/>
<text text-anchor="middle" x="197" y="-96.5" font-family="Helvetica,sans-Serif" font-size="10.00">int</text>
</a>
</g>
</g>
<!-- Node4&#45;&gt;Node1 -->
<g id="edge3" class="edge">
<title>Node4&#45;&gt;Node1</title>
<path fill="none" stroke="#9a32cd" stroke-dasharray="5,2" d="M192.17,-79.3C190.01,-66.51 189.56,-49.8 198,-38 209.43,-22.02 231.26,-15.46 248.43,-12.79"/>
<polygon fill="#9a32cd" stroke="#9a32cd" points="188.8,-80.27 194.33,-89.31 195.64,-78.79 188.8,-80.27"/>
<text text-anchor="middle" x="262.5" y="-63" font-family="Helvetica,sans-Serif" font-size="10.00"> OUTPUT_MIN_BIT_WIDTH</text>
<text text-anchor="middle" x="262.5" y="-52" font-family="Helvetica,sans-Serif" font-size="10.00">maxState</text>
<text text-anchor="middle" x="262.5" y="-41" font-family="Helvetica,sans-Serif" font-size="10.00">numStates</text>
</g>
<!-- Node5 -->
<g id="node5" class="node">
<title>Node5</title>
<g id="a_node5"><a xlink:title=" ">
<polygon fill="white" stroke="#bfbfbf" points="309,-89.5 309,-108.5 389,-108.5 389,-89.5 309,-89.5"/>
<text text-anchor="middle" x="349" y="-96.5" font-family="Helvetica,sans-Serif" font-size="10.00">List&lt; Integer &gt;</text>
</a>
</g>
</g>
<!-- Node5&#45;&gt;Node1 -->
<g id="edge4" class="edge">
<title>Node5&#45;&gt;Node1</title>
<path fill="none" stroke="#9a32cd" stroke-dasharray="5,2" d="M345.87,-79.12C342.9,-66.25 337.29,-49.52 327,-38 319.18,-29.25 307.86,-22.98 297.61,-18.71"/>
<polygon fill="#9a32cd" stroke="#9a32cd" points="342.49,-80.08 347.85,-89.21 349.36,-78.73 342.49,-80.08"/>
<text text-anchor="middle" x="355" y="-52" font-family="Helvetica,sans-Serif" font-size="10.00"> idlist</text>
</g>
<!-- Node6 -->
<g id="node6" class="node">
<title>Node6</title>
<g id="a_node6"><a xlink:title=" ">
<polygon fill="white" stroke="#bfbfbf" points="407.5,-89.5 407.5,-108.5 442.5,-108.5 442.5,-89.5 407.5,-89.5"/>
<text text-anchor="middle" x="425" y="-96.5" font-family="Helvetica,sans-Serif" font-size="10.00">long</text>
</a>
</g>
</g>
<!-- Node6&#45;&gt;Node1 -->
<g id="edge5" class="edge">
<title>Node6&#45;&gt;Node1</title>
<path fill="none" stroke="#9a32cd" stroke-dasharray="5,2" d="M413.67,-80.76C403.91,-67.22 388.63,-48.89 371,-38 348.48,-24.09 318.7,-17.21 297.91,-13.9"/>
<polygon fill="#9a32cd" stroke="#9a32cd" points="410.95,-82.98 419.51,-89.22 416.71,-79 410.95,-82.98"/>
<text text-anchor="middle" x="439.5" y="-52" font-family="Helvetica,sans-Serif" font-size="10.00"> MASK_STATE</text>
</g>
</g>
</svg>
