<?xml version="1.0" encoding="UTF-8" standalone="no"?>
<!DOCTYPE svg PUBLIC "-//W3C//DTD SVG 1.1//EN"
 "http://www.w3.org/Graphics/SVG/1.1/DTD/svg11.dtd">
<!-- Generated by graphviz version 2.47.0 (20210316.0004)
 -->
<!-- Title: includeStrIndentObj Pages: 1 -->
<!--zoomable 117 -->
<svg id="main" version="1.1" xmlns="http://www.w3.org/2000/svg" xmlns:xlink="http://www.w3.org/1999/xlink" xml:space="preserve" onload="init(evt)">
<style type="text/css"><![CDATA[
.edge:hover path { stroke: red; }
.edge:hover polygon { stroke: red; fill: red; }
]]></style>
<script type="text/javascript"><![CDATA[
var edges = document.getElementsByTagName('g');
if (edges && edges.length) {
  for (var i=0;i<edges.length;i++) {
    if (edges[i].id.substr(0,4)=='edge') {
      edges[i].setAttribute('class','edge');
    }
  }
}
]]></script>
        <defs>
                <circle id="rim" cx="0" cy="0" r="7"/>
                <circle id="rim2" cx="0" cy="0" r="3.5"/>
                <g id="zoomPlus">
                        <use xlink:href="#rim" fill="#404040">
                                <set attributeName="fill" to="#808080" begin="zoomplus.mouseover" end="zoomplus.mouseout"/>
                        </use>
                        <path d="M-4,0h8M0,-4v8" fill="none" stroke="white" stroke-width="1.5" pointer-events="none"/>
                </g>
                <g id="zoomMin">
                        <use xlink:href="#rim" fill="#404040">
                                <set attributeName="fill" to="#808080" begin="zoomminus.mouseover" end="zoomminus.mouseout"/>
                        </use>
                        <path d="M-4,0h8" fill="none" stroke="white" stroke-width="1.5" pointer-events="none"/>
                </g>
                <g id="dirArrow">
                        <path fill="none" stroke="white" stroke-width="1.5" d="M0,-3.0v7 M-2.5,-0.5L0,-3.0L2.5,-0.5"/>
                </g>
               <g id="resetDef">
                       <use xlink:href="#rim2" fill="#404040">
                               <set attributeName="fill" to="#808080" begin="reset.mouseover" end="reset.mouseout"/>
                       </use>
               </g>
        </defs>

<script type="text/javascript">
var viewWidth = 722;
var viewHeight = 117;
var sectionId = 'dynsection-7';
</script>
<script xlink:href="svgpan.js"/>
<svg id="graph" class="graph">
<g id="viewport">
<title>includeStrIndentObj</title>
<polygon fill="white" stroke="transparent" points="-4,4 -4,-112.76 718,-112.76 718,4 -4,4"/>
<!-- Node1 -->
<g id="node1" class="node">
<title>Node1</title>
<g id="a_node1"><a xlink:title="配列モードで、文字列valueを正しい段下げで，区切り記号を挿入しながら，バッファに追加する。">
<polygon fill="#bfbfbf" stroke="black" points="0,-38.5 0,-57.5 102,-57.5 102,-38.5 0,-38.5"/>
<text text-anchor="middle" x="51" y="-45.5" font-family="Helvetica,sans-Serif" font-size="10.00">includeStrIndentObj</text>
</a>
</g>
</g>
<!-- Node2 -->
<g id="node2" class="node">
<title>Node2</title>
<g id="a_node2"><a xlink:href="classutil_1_1_yaml_buf.html#af9b731bd7e5760374c78d4aef4140df0" target="_top" xlink:title="YamlBufで作成済みの入れ子文字列を、正しく段下げしながらバッファに追加する基本手続き．文字列を段下げしながらそのまま挿入し，区切り記号は挿入しない．">
<polygon fill="white" stroke="black" points="138,-38.5 138,-57.5 225,-57.5 225,-38.5 138,-38.5"/>
<text text-anchor="middle" x="181.5" y="-45.5" font-family="Helvetica,sans-Serif" font-size="10.00">includeStrIndent</text>
</a>
</g>
</g>
<!-- Node1&#45;&gt;Node2 -->
<g id="edge1" class="edge">
<title>Node1&#45;&gt;Node2</title>
<path fill="none" stroke="midnightblue" d="M102.05,-48C110.47,-48 119.23,-48 127.71,-48"/>
<polygon fill="midnightblue" stroke="midnightblue" points="127.88,-51.5 137.88,-48 127.88,-44.5 127.88,-51.5"/>
</g>
<!-- Node4 -->
<g id="node4" class="node">
<title>Node4</title>
<g id="a_node4"><a xlink:href="classutil_1_1_foldable_string_buf.html#a2b018a5847ca3b5c67456ad721e23ba4" target="_top" xlink:title="文字列を出力する">
<polygon fill="white" stroke="black" points="432.5,-0.5 432.5,-19.5 556.5,-19.5 556.5,-0.5 432.5,-0.5"/>
<text text-anchor="middle" x="494.5" y="-7.5" font-family="Helvetica,sans-Serif" font-size="10.00">util.FoldableStringBuf.str</text>
</a>
</g>
</g>
<!-- Node1&#45;&gt;Node4 -->
<g id="edge14" class="edge">
<title>Node1&#45;&gt;Node4</title>
<path fill="none" stroke="midnightblue" d="M89.01,-38.43C104.11,-34.89 121.79,-31.21 138,-29 235.77,-15.68 349.85,-11.58 421.88,-10.39"/>
<polygon fill="midnightblue" stroke="midnightblue" points="422.25,-13.88 432.19,-10.23 422.14,-6.88 422.25,-13.88"/>
</g>
<!-- Node9 -->
<g id="node7" class="node">
<title>Node9</title>
<g id="a_node7"><a xlink:href="classutil_1_1_foldable_string_buf.html#ab3d4d59d8a1bb8f1cffeef544c66c052" target="_top" xlink:title="改行を出力する.">
<polygon fill="white" stroke="black" points="265,-76.5 265,-95.5 385,-95.5 385,-76.5 265,-76.5"/>
<text text-anchor="middle" x="325" y="-83.5" font-family="Helvetica,sans-Serif" font-size="10.00">util.FoldableStringBuf.nl</text>
</a>
</g>
</g>
<!-- Node1&#45;&gt;Node9 -->
<g id="edge13" class="edge">
<title>Node1&#45;&gt;Node9</title>
<path fill="none" stroke="midnightblue" d="M90.78,-57.57C105.49,-60.93 122.45,-64.5 138,-67 176.36,-73.17 219.5,-77.73 254.58,-80.83"/>
<polygon fill="midnightblue" stroke="midnightblue" points="254.45,-84.33 264.72,-81.7 255.05,-77.36 254.45,-84.33"/>
</g>
<!-- Node3 -->
<g id="node3" class="node">
<title>Node3</title>
<g id="a_node3"><a xlink:href="classutil_1_1_foldable_string_buf.html#aaa1e91437222f9467827a35ccfecbdb7" target="_top" xlink:title="バッファの末尾に文字c を追加する.">
<polygon fill="white" stroke="black" points="261,-38.5 261,-57.5 389,-57.5 389,-38.5 261,-38.5"/>
<text text-anchor="middle" x="325" y="-45.5" font-family="Helvetica,sans-Serif" font-size="10.00">util.FoldableStringBuf.add</text>
</a>
</g>
</g>
<!-- Node2&#45;&gt;Node3 -->
<g id="edge2" class="edge">
<title>Node2&#45;&gt;Node3</title>
<path fill="none" stroke="midnightblue" d="M225.34,-48C233.41,-48 242.05,-48 250.75,-48"/>
<polygon fill="midnightblue" stroke="midnightblue" points="250.95,-51.5 260.95,-48 250.95,-44.5 250.95,-51.5"/>
</g>
<!-- Node2&#45;&gt;Node9 -->
<g id="edge7" class="edge">
<title>Node2&#45;&gt;Node9</title>
<path fill="none" stroke="midnightblue" d="M218.21,-57.59C236.47,-62.49 258.91,-68.52 278.41,-73.76"/>
<polygon fill="midnightblue" stroke="midnightblue" points="277.74,-77.2 288.3,-76.41 279.55,-70.44 277.74,-77.2"/>
</g>
<!-- Node3&#45;&gt;Node4 -->
<g id="edge3" class="edge">
<title>Node3&#45;&gt;Node4</title>
<path fill="none" stroke="midnightblue" d="M368.27,-38.41C390.57,-33.35 418.12,-27.1 441.7,-21.75"/>
<polygon fill="midnightblue" stroke="midnightblue" points="442.56,-25.15 451.54,-19.52 441.01,-18.32 442.56,-25.15"/>
</g>
<!-- Node5 -->
<g id="node5" class="node">
<title>Node5</title>
<g id="a_node5"><a xlink:href="classutil_1_1_string_buf.html#a2dc9e4579aee8516f9402d5ab3eac5eb" target="_top" xlink:title="バッファの末尾に文字列{str} を連結する.">
<polygon fill="white" stroke="red" points="603.5,-29.5 603.5,-48.5 710.5,-48.5 710.5,-29.5 603.5,-29.5"/>
<text text-anchor="middle" x="657" y="-36.5" font-family="Helvetica,sans-Serif" font-size="10.00">util.StringBuf.append</text>
</a>
</g>
</g>
<!-- Node4&#45;&gt;Node5 -->
<g id="edge4" class="edge">
<title>Node4&#45;&gt;Node5</title>
<path fill="none" stroke="midnightblue" d="M548.5,-19.58C562.82,-22.16 578.45,-24.99 593.25,-27.66"/>
<polygon fill="midnightblue" stroke="midnightblue" points="592.87,-31.15 603.33,-29.48 594.11,-24.26 592.87,-31.15"/>
</g>
<!-- Node7 -->
<g id="node6" class="node">
<title>Node7</title>
<g id="a_node6"><a xlink:href="classutil_1_1_trace_level.html#a163bdc94e3e530c147c8fcd59f9f01f4" target="_top" xlink:title="モジュールnameの現在のトレースレベルが{level}以上かを返す。モジュールのレベルが登録されていなければ、全体のトレースレベルを返す。">
<polygon fill="white" stroke="red" points="600,-85.5 600,-104.5 714,-104.5 714,-85.5 600,-85.5"/>
<text text-anchor="middle" x="657" y="-92.5" font-family="Helvetica,sans-Serif" font-size="10.00">util.TraceLevel.LEVEL</text>
</a>
</g>
</g>
<!-- Node4&#45;&gt;Node7 -->
<g id="edge6" class="edge">
<title>Node4&#45;&gt;Node7</title>
<path fill="none" stroke="midnightblue" d="M508.44,-19.6C527.64,-33.49 565.14,-59.37 600,-76 604.4,-78.1 609.1,-80.07 613.83,-81.9"/>
<polygon fill="midnightblue" stroke="midnightblue" points="612.91,-85.29 623.5,-85.42 615.3,-78.71 612.91,-85.29"/>
</g>
<!-- Node5&#45;&gt;Node5 -->
<g id="edge5" class="edge">
<title>Node5&#45;&gt;Node5</title>
<path fill="none" stroke="midnightblue" d="M632.03,-48.76C619.88,-57.57 628.21,-67 657,-67 676.35,-67 686.45,-62.74 687.31,-57.27"/>
<polygon fill="midnightblue" stroke="midnightblue" points="690.25,-55.37 681.97,-48.76 684.32,-59.09 690.25,-55.37"/>
</g>
<!-- Node9&#45;&gt;Node5 -->
<g id="edge8" class="edge">
<title>Node9&#45;&gt;Node5</title>
<path fill="none" stroke="midnightblue" d="M372.22,-76.44C388.82,-73.19 407.71,-69.7 425,-67 481.59,-58.15 546.35,-50.52 592.87,-45.46"/>
<polygon fill="midnightblue" stroke="midnightblue" points="593.54,-48.91 603.1,-44.36 592.79,-41.95 593.54,-48.91"/>
</g>
<!-- Node9&#45;&gt;Node7 -->
<g id="edge9" class="edge">
<title>Node9&#45;&gt;Node7</title>
<path fill="none" stroke="midnightblue" d="M366.21,-95.51C384.1,-99.28 405.49,-103.14 425,-105 486.5,-110.85 502.31,-108.34 564,-105 572.3,-104.55 581.01,-103.87 589.61,-103.08"/>
<polygon fill="midnightblue" stroke="midnightblue" points="590.03,-106.56 599.64,-102.1 589.35,-99.59 590.03,-106.56"/>
</g>
<!-- Node10 -->
<g id="node8" class="node">
<title>Node10</title>
<g id="a_node8"><a xlink:href="classutil_1_1_foldable_string_buf.html#a186579e7cd763dada34bcdc6c8f8f209" target="_top" xlink:title="空白を出力する.">
<polygon fill="white" stroke="black" points="425,-76.5 425,-95.5 564,-95.5 564,-76.5 425,-76.5"/>
<text text-anchor="middle" x="494.5" y="-83.5" font-family="Helvetica,sans-Serif" font-size="10.00">util.FoldableStringBuf.space</text>
</a>
</g>
</g>
<!-- Node9&#45;&gt;Node10 -->
<g id="edge10" class="edge">
<title>Node9&#45;&gt;Node10</title>
<path fill="none" stroke="midnightblue" d="M385.05,-86C394.73,-86 404.89,-86 414.95,-86"/>
<polygon fill="midnightblue" stroke="midnightblue" points="414.96,-89.5 424.96,-86 414.96,-82.5 414.96,-89.5"/>
</g>
<!-- Node10&#45;&gt;Node5 -->
<g id="edge11" class="edge">
<title>Node10&#45;&gt;Node5</title>
<path fill="none" stroke="midnightblue" d="M527.98,-76.49C552.59,-69.28 586.62,-59.32 613.42,-51.47"/>
<polygon fill="midnightblue" stroke="midnightblue" points="614.68,-54.75 623.29,-48.58 612.71,-48.03 614.68,-54.75"/>
</g>
<!-- Node10&#45;&gt;Node7 -->
<g id="edge12" class="edge">
<title>Node10&#45;&gt;Node7</title>
<path fill="none" stroke="midnightblue" d="M564.03,-89.84C572.51,-90.32 581.17,-90.8 589.62,-91.28"/>
<polygon fill="midnightblue" stroke="midnightblue" points="589.61,-94.78 599.79,-91.85 590,-87.79 589.61,-94.78"/>
</g>
</g>
</svg>
        <g id="navigator" transform="translate(0 0)" fill="#404254">
                <rect fill="#f2f5e9" fill-opacity="0.5" stroke="#606060" stroke-width=".5" x="0" y="0" width="60" height="60"/>
                <use id="zoomplus" xlink:href="#zoomPlus" x="17" y="9" onmousedown="handleZoom(evt,'in')"/>
                <use id="zoomminus" xlink:href="#zoomMin" x="42" y="9" onmousedown="handleZoom(evt,'out')"/>
                <use id="reset" xlink:href="#resetDef" x="30" y="36" onmousedown="handleReset()"/>
                <g id="arrowUp" xlink:href="#dirArrow" transform="translate(30 24)" onmousedown="handlePan(0,-1)">
                  <use xlink:href="#rim" fill="#404040">
                        <set attributeName="fill" to="#808080" begin="arrowUp.mouseover" end="arrowUp.mouseout"/>
                  </use>
                  <path fill="none" stroke="white" stroke-width="1.5" d="M0,-3.0v7 M-2.5,-0.5L0,-3.0L2.5,-0.5"/>
                </g>
                <g id="arrowRight" xlink:href="#dirArrow" transform="rotate(90) translate(36 -43)" onmousedown="handlePan(1,0)">
                  <use xlink:href="#rim" fill="#404040">
                        <set attributeName="fill" to="#808080" begin="arrowRight.mouseover" end="arrowRight.mouseout"/>
                  </use>
                  <path fill="none" stroke="white" stroke-width="1.5" d="M0,-3.0v7 M-2.5,-0.5L0,-3.0L2.5,-0.5"/>
                </g>
                <g id="arrowDown" xlink:href="#dirArrow" transform="rotate(180) translate(-30 -48)" onmousedown="handlePan(0,1)">
                  <use xlink:href="#rim" fill="#404040">
                        <set attributeName="fill" to="#808080" begin="arrowDown.mouseover" end="arrowDown.mouseout"/>
                  </use>
                  <path fill="none" stroke="white" stroke-width="1.5" d="M0,-3.0v7 M-2.5,-0.5L0,-3.0L2.5,-0.5"/>
                </g>
                <g id="arrowLeft" xlink:href="#dirArrow" transform="rotate(270) translate(-36 17)" onmousedown="handlePan(-1,0)">
                  <use xlink:href="#rim" fill="#404040">
                        <set attributeName="fill" to="#808080" begin="arrowLeft.mouseover" end="arrowLeft.mouseout"/>
                  </use>
                  <path fill="none" stroke="white" stroke-width="1.5" d="M0,-3.0v7 M-2.5,-0.5L0,-3.0L2.5,-0.5"/>
                </g>
        </g>
        <svg viewBox="0 0 15 15" width="100%" height="30px" preserveAspectRatio="xMaxYMin meet">
         <g id="arrow_out" transform="scale(0.3 0.3)">
          <a xlink:href="classutil_1_1_yaml_buf_a909471b62c0b5944feb3af85e40ca9f5_cgraph_org.svg" target="_base">
           <rect id="button" ry="5" rx="5" y="6" x="6" height="38" width="38"
                fill="#f2f5e9" fill-opacity="0.5" stroke="#606060" stroke-width="1.0"/>
           <path id="arrow"
             d="M 11.500037,31.436501 C 11.940474,20.09759 22.043105,11.32322 32.158766,21.979434 L 37.068811,17.246167 C 37.068811,17.246167 37.088388,32 37.088388,32 L 22.160133,31.978069 C 22.160133,31.978069 26.997745,27.140456 26.997745,27.140456 C 18.528582,18.264221 13.291696,25.230495 11.500037,31.436501 z"
             style="fill:#404040;"/>
          </a>
         </g>
        </svg>
</svg>
