<?xml version="1.0" encoding="UTF-8" standalone="no"?>
<!DOCTYPE svg PUBLIC "-//W3C//DTD SVG 1.1//EN"
 "http://www.w3.org/Graphics/SVG/1.1/DTD/svg11.dtd">
<!-- Generated by graphviz version 2.47.0 (20210316.0004)
 -->
<!-- Title: BasicCharMask Pages: 1 -->
<svg width="243pt" height="106pt"
 viewBox="0.00 0.00 243.00 106.00" xmlns="http://www.w3.org/2000/svg" xmlns:xlink="http://www.w3.org/1999/xlink">
<g id="graph0" class="graph" transform="scale(1 1) rotate(0) translate(4 102)">
<title>BasicCharMask</title>
<polygon fill="white" stroke="transparent" points="-4,4 -4,-102 239,-102 239,4 -4,4"/>
<!-- Node1 -->
<g id="node1" class="node">
<title>Node1</title>
<g id="a_node1"><a xlink:title="intを値に持つ文字のカテゴリーマスクを作成するための基礎クラス．">
<polygon fill="#bfbfbf" stroke="black" points="64,-0.5 64,-19.5 150,-19.5 150,-0.5 64,-0.5"/>
<text text-anchor="middle" x="107" y="-7.5" font-family="Helvetica,sans-Serif" font-size="10.00">BasicCharMask</text>
</a>
</g>
</g>
<!-- Node2 -->
<g id="node2" class="node">
<title>Node2</title>
<g id="a_node2"><a xlink:href="interfaceio_1_1_char_testable.html" target="_top" xlink:title=" ">
<polygon fill="white" stroke="black" points="0,-78.5 0,-97.5 74,-97.5 74,-78.5 0,-78.5"/>
<text text-anchor="middle" x="37" y="-85.5" font-family="Helvetica,sans-Serif" font-size="10.00">CharTestable</text>
</a>
</g>
</g>
<!-- Node2&#45;&gt;Node1 -->
<g id="edge1" class="edge">
<title>Node2&#45;&gt;Node1</title>
<path fill="none" stroke="midnightblue" d="M51.85,-70.88C66.27,-55.22 87.62,-32.04 99.06,-19.62"/>
<polygon fill="midnightblue" stroke="midnightblue" points="49.23,-68.56 45.03,-78.28 54.38,-73.3 49.23,-68.56"/>
</g>
<!-- Node3 -->
<g id="node3" class="node">
<title>Node3</title>
<g id="a_node3"><a xlink:title=" ">
<polygon fill="white" stroke="#bfbfbf" points="92.5,-78.5 92.5,-97.5 121.5,-97.5 121.5,-78.5 92.5,-78.5"/>
<text text-anchor="middle" x="107" y="-85.5" font-family="Helvetica,sans-Serif" font-size="10.00">int</text>
</a>
</g>
</g>
<!-- Node3&#45;&gt;Node1 -->
<g id="edge2" class="edge">
<title>Node3&#45;&gt;Node1</title>
<path fill="none" stroke="#9a32cd" stroke-dasharray="5,2" d="M107,-68.22C107,-52.7 107,-31.36 107,-19.62"/>
<polygon fill="#9a32cd" stroke="#9a32cd" points="103.5,-68.28 107,-78.28 110.5,-68.28 103.5,-68.28"/>
<text text-anchor="middle" x="137" y="-46.5" font-family="Helvetica,sans-Serif" font-size="10.00"> MAX_CHAR</text>
</g>
<!-- Node4 -->
<g id="node4" class="node">
<title>Node4</title>
<g id="a_node4"><a xlink:title=" ">
<polygon fill="white" stroke="#bfbfbf" points="165,-78.5 165,-97.5 215,-97.5 215,-78.5 165,-78.5"/>
<text text-anchor="middle" x="190" y="-85.5" font-family="Helvetica,sans-Serif" font-size="10.00">boolean</text>
</a>
</g>
</g>
<!-- Node4&#45;&gt;Node1 -->
<g id="edge3" class="edge">
<title>Node4&#45;&gt;Node1</title>
<path fill="none" stroke="#9a32cd" stroke-dasharray="5,2" d="M185.21,-68.41C181.82,-58.35 176.35,-46.31 168,-38 159.62,-29.67 148.24,-23.69 137.57,-19.51"/>
<polygon fill="#9a32cd" stroke="#9a32cd" points="181.94,-69.69 188.12,-78.29 188.65,-67.71 181.94,-69.69"/>
<text text-anchor="middle" x="208" y="-52" font-family="Helvetica,sans-Serif" font-size="10.00"> NEGATIVE</text>
<text text-anchor="middle" x="208" y="-41" font-family="Helvetica,sans-Serif" font-size="10.00">POSITIVE</text>
</g>
</g>
</svg>
