<?xml version="1.0" encoding="UTF-8" standalone="no"?>
<!DOCTYPE svg PUBLIC "-//W3C//DTD SVG 1.1//EN"
 "http://www.w3.org/Graphics/SVG/1.1/DTD/svg11.dtd">
<!-- Generated by graphviz version 2.38.0 (20140413.2041)
 -->
<!-- Title: SystemScope Pages: 1 -->
<svg width="573pt" height="766pt"
 viewBox="0.00 0.00 572.88 765.66" xmlns="http://www.w3.org/2000/svg" xmlns:xlink="http://www.w3.org/1999/xlink">
<g id="graph0" class="graph" transform="scale(1 1) rotate(0) translate(4 761.659)">
<title>SystemScope</title>
<polygon fill="white" stroke="none" points="-4,4 -4,-761.659 568.878,-761.659 568.878,4 -4,4"/>
<!-- Node1 -->
<g id="node1" class="node"><title>Node1</title>
<g id="a_node1"><a xlink:title="システム変数にアクセスするための読み出し専用スコープ．">
<polygon fill="#bfbfbf" stroke="black" points="271.031,-13.2849 271.031,-31.2849 348.725,-31.2849 348.725,-13.2849 271.031,-13.2849"/>
<text text-anchor="middle" x="309.878" y="-19.2849" font-family="Helvetica,sans-Serif" font-size="10.00">SystemScope</text>
</a>
</g>
</g>
<!-- Node3 -->
<g id="node3" class="node"><title>Node3</title>
<g id="a_node3"><a xlink:href="classmachine_1_1_x_machine.html" target="_top" xlink:title="クエリの実行系モジュールのクラス。">
<polygon fill="white" stroke="black" points="504.41,-369.285 504.41,-387.285 564.878,-387.285 564.878,-369.285 504.41,-369.285"/>
<text text-anchor="middle" x="534.644" y="-375.285" font-family="Helvetica,sans-Serif" font-size="10.00">XMachine</text>
</a>
</g>
</g>
<!-- Node1&#45;&gt;Node3 -->
<g id="edge28" class="edge"><title>Node1&#45;&gt;Node3</title>
<path fill="none" stroke="#9a32cd" stroke-dasharray="5,2" d="M358.906,-26.5909C404.758,-31.7372 469.322,-42.0344 486.41,-60.2849 529.804,-106.629 533.374,-321.74 533.632,-369.062"/>
<polygon fill="#9a32cd" stroke="#9a32cd" points="359.17,-23.0992 348.853,-25.5105 358.421,-30.0591 359.17,-23.0992"/>
<text text-anchor="middle" x="450.846" y="-62.2849" font-family="Helvetica,sans-Serif" font-size="10.00"> SE</text>
</g>
<!-- Node2 -->
<g id="node2" class="node"><title>Node2</title>
<g id="a_node2"><a xlink:href="interfacemachine_1_1_inspectable.html" target="_top" xlink:title=" ">
<polygon fill="white" stroke="black" points="6.53564,-8.28495 6.53564,-36.2849 111.203,-36.2849 111.203,-8.28495 6.53564,-8.28495"/>
<text text-anchor="start" x="14.5356" y="-24.2849" font-family="Helvetica,sans-Serif" font-size="10.00">Inspectable&lt; String,</text>
<text text-anchor="middle" x="58.8691" y="-14.2849" font-family="Helvetica,sans-Serif" font-size="10.00"> String &gt;</text>
</a>
</g>
</g>
<!-- Node2&#45;&gt;Node1 -->
<g id="edge1" class="edge"><title>Node2&#45;&gt;Node1</title>
<path fill="none" stroke="midnightblue" d="M121.482,-22.2849C168.243,-22.2849 231.054,-22.2849 270.756,-22.2849"/>
<polygon fill="midnightblue" stroke="midnightblue" points="121.464,-18.785 111.464,-22.2849 121.464,-25.785 121.464,-18.785"/>
</g>
<!-- Node3&#45;&gt;Node1 -->
<g id="edge2" class="edge"><title>Node3&#45;&gt;Node1</title>
<path fill="none" stroke="#9a32cd" stroke-dasharray="5,2" d="M532.532,-358.958C528.263,-288.13 511.878,-45.7176 486.41,-23.2849 444.903,13.2744 374.019,-1.50359 336.277,-13.2011"/>
<polygon fill="#9a32cd" stroke="#9a32cd" points="529.049,-359.348 533.132,-369.125 536.037,-358.936 529.049,-359.348"/>
<text text-anchor="middle" x="450.846" y="-25.2849" font-family="Helvetica,sans-Serif" font-size="10.00"> sys</text>
</g>
<!-- Node4 -->
<g id="node4" class="node"><title>Node4</title>
<g id="a_node4"><a xlink:href="interfacemachine_1_1_context.html" target="_top" xlink:title="実行系の記憶機構（環境）を抽象化したインタフェース.">
<polygon fill="white" stroke="black" points="284.646,-735.285 284.646,-753.285 335.109,-753.285 335.109,-735.285 284.646,-735.285"/>
<text text-anchor="middle" x="309.878" y="-741.285" font-family="Helvetica,sans-Serif" font-size="10.00">Context</text>
</a>
</g>
</g>
<!-- Node4&#45;&gt;Node3 -->
<g id="edge3" class="edge"><title>Node4&#45;&gt;Node3</title>
<path fill="none" stroke="midnightblue" d="M345.365,-752.461C384.947,-759.598 449.182,-763.937 486.41,-728.285 537.115,-679.727 534.902,-437.977 533.871,-387.523"/>
<polygon fill="midnightblue" stroke="midnightblue" points="345.867,-748.993 335.381,-750.507 344.523,-755.862 345.867,-748.993"/>
</g>
<!-- Node5 -->
<g id="node5" class="node"><title>Node5</title>
<g id="a_node5"><a xlink:title=" ">
<polygon fill="white" stroke="#bfbfbf" points="272.979,-698.285 272.979,-716.285 346.777,-716.285 346.777,-698.285 272.979,-698.285"/>
<text text-anchor="middle" x="309.878" y="-704.285" font-family="Helvetica,sans-Serif" font-size="10.00">static BitsBuf</text>
</a>
</g>
</g>
<!-- Node5&#45;&gt;Node3 -->
<g id="edge4" class="edge"><title>Node5&#45;&gt;Node3</title>
<path fill="none" stroke="#9a32cd" stroke-dasharray="5,2" d="M356.768,-715.362C396.48,-719.507 452.685,-718.08 486.41,-685.285 530.29,-642.616 533.49,-434.233 533.652,-387.569"/>
<polygon fill="#9a32cd" stroke="#9a32cd" points="357.142,-711.882 346.798,-714.17 356.311,-718.833 357.142,-711.882"/>
<text text-anchor="middle" x="450.846" y="-716.285" font-family="Helvetica,sans-Serif" font-size="10.00"> bitsbuf</text>
</g>
<!-- Node6 -->
<g id="node6" class="node"><title>Node6</title>
<g id="a_node6"><a xlink:title=" ">
<polygon fill="white" stroke="#bfbfbf" points="277.327,-661.285 277.327,-679.285 342.429,-679.285 342.429,-661.285 277.327,-661.285"/>
<text text-anchor="middle" x="309.878" y="-667.285" font-family="Helvetica,sans-Serif" font-size="10.00">TraceLevel</text>
</a>
</g>
</g>
<!-- Node6&#45;&gt;Node3 -->
<g id="edge5" class="edge"><title>Node6&#45;&gt;Node3</title>
<path fill="none" stroke="#9a32cd" stroke-dasharray="5,2" d="M352.835,-675.561C392.721,-678.052 451.636,-674.744 486.41,-640.285 523.262,-603.767 531.804,-429.808 533.348,-387.55"/>
<polygon fill="#9a32cd" stroke="#9a32cd" points="352.869,-672.054 342.629,-674.773 352.33,-679.033 352.869,-672.054"/>
<text text-anchor="middle" x="450.846" y="-673.285" font-family="Helvetica,sans-Serif" font-size="10.00"> LOG</text>
</g>
<!-- Node7 -->
<g id="node7" class="node"><title>Node7</title>
<g id="a_node7"><a xlink:title=" ">
<polygon fill="white" stroke="#bfbfbf" points="238.65,-614.285 238.65,-642.285 381.105,-642.285 381.105,-614.285 238.65,-614.285"/>
<text text-anchor="start" x="246.65" y="-630.285" font-family="Helvetica,sans-Serif" font-size="10.00">AutoStack&lt; machine.Multi</text>
<text text-anchor="middle" x="309.878" y="-620.285" font-family="Helvetica,sans-Serif" font-size="10.00">HashMap&lt; machine.Call &gt; &gt;</text>
</a>
</g>
</g>
<!-- Node7&#45;&gt;Node3 -->
<g id="edge6" class="edge"><title>Node7&#45;&gt;Node3</title>
<path fill="none" stroke="#9a32cd" stroke-dasharray="5,2" d="M391.472,-631.161C424.878,-628.102 461.552,-618.555 486.41,-594.285 516.829,-564.586 529.97,-424.576 532.959,-387.378"/>
<polygon fill="#9a32cd" stroke="#9a32cd" points="390.944,-627.69 381.226,-631.911 391.455,-634.672 390.944,-627.69"/>
<text text-anchor="middle" x="450.846" y="-628.285" font-family="Helvetica,sans-Serif" font-size="10.00"> CS</text>
</g>
<!-- Node8 -->
<g id="node8" class="node"><title>Node8</title>
<g id="a_node8"><a xlink:href="interfacemachine_1_1_runnable.html" target="_top" xlink:title="実行可能なプログラムのインタフェース.">
<polygon fill="white" stroke="black" points="280.472,-577.285 280.472,-595.285 339.284,-595.285 339.284,-577.285 280.472,-577.285"/>
<text text-anchor="middle" x="309.878" y="-583.285" font-family="Helvetica,sans-Serif" font-size="10.00">Runnable</text>
</a>
</g>
</g>
<!-- Node8&#45;&gt;Node3 -->
<g id="edge7" class="edge"><title>Node8&#45;&gt;Node3</title>
<path fill="none" stroke="#9a32cd" stroke-dasharray="5,2" d="M349.387,-588.534C388.962,-588.655 449.814,-582.406 486.41,-547.285 533.008,-502.565 534.821,-416.014 534.067,-387.583"/>
<polygon fill="#9a32cd" stroke="#9a32cd" points="349.377,-585.034 339.319,-588.366 349.259,-592.033 349.377,-585.034"/>
<text text-anchor="middle" x="450.846" y="-582.285" font-family="Helvetica,sans-Serif" font-size="10.00"> prog</text>
</g>
<!-- Node9 -->
<g id="node9" class="node"><title>Node9</title>
<g id="a_node9"><a xlink:href="interfacemachine_1_1_frame_stackable.html" target="_top" xlink:title=" ">
<polygon fill="white" stroke="black" points="265.474,-540.285 265.474,-558.285 354.282,-558.285 354.282,-540.285 265.474,-540.285"/>
<text text-anchor="middle" x="309.878" y="-546.285" font-family="Helvetica,sans-Serif" font-size="10.00">FrameStackable</text>
</a>
</g>
</g>
<!-- Node9&#45;&gt;Node3 -->
<g id="edge8" class="edge"><title>Node9&#45;&gt;Node3</title>
<path fill="none" stroke="#9a32cd" stroke-dasharray="5,2" d="M364.652,-545.827C403.363,-540.552 454.231,-527.47 486.41,-495.285 517.696,-463.994 529.018,-409.237 532.402,-387.529"/>
<polygon fill="#9a32cd" stroke="#9a32cd" points="364.087,-542.37 354.588,-547.063 364.94,-549.318 364.087,-542.37"/>
<text text-anchor="middle" x="450.846" y="-535.285" font-family="Helvetica,sans-Serif" font-size="10.00"> FRS</text>
</g>
<!-- Node10 -->
<g id="node10" class="node"><title>Node10</title>
<g id="a_node10"><a xlink:title=" ">
<polygon fill="white" stroke="#bfbfbf" points="273.812,-503.285 273.812,-521.285 345.944,-521.285 345.944,-503.285 273.812,-503.285"/>
<text text-anchor="middle" x="309.878" y="-509.285" font-family="Helvetica,sans-Serif" font-size="10.00">static Report</text>
</a>
</g>
</g>
<!-- Node10&#45;&gt;Node3 -->
<g id="edge9" class="edge"><title>Node10&#45;&gt;Node3</title>
<path fill="none" stroke="#9a32cd" stroke-dasharray="5,2" d="M356.037,-501.938C369.531,-498.263 384.207,-493.676 397.282,-488.285 439.273,-470.971 451.893,-467.807 486.41,-438.285 504.343,-422.947 520.174,-399.931 528.156,-387.329"/>
<polygon fill="#9a32cd" stroke="#9a32cd" points="354.781,-498.649 345.994,-504.569 356.555,-505.421 354.781,-498.649"/>
<text text-anchor="middle" x="450.846" y="-483.285" font-family="Helvetica,sans-Serif" font-size="10.00"> repo</text>
</g>
<!-- Node11 -->
<g id="node11" class="node"><title>Node11</title>
<g id="a_node11"><a xlink:title=" ">
<polygon fill="white" stroke="#bfbfbf" points="44.3691,-486.285 44.3691,-504.285 73.3691,-504.285 73.3691,-486.285 44.3691,-486.285"/>
<text text-anchor="middle" x="58.8691" y="-492.285" font-family="Helvetica,sans-Serif" font-size="10.00">int</text>
</a>
</g>
</g>
<!-- Node11&#45;&gt;Node3 -->
<g id="edge10" class="edge"><title>Node11&#45;&gt;Node3</title>
<path fill="none" stroke="#9a32cd" stroke-dasharray="5,2" d="M83.4584,-501.598C114.56,-508.408 169.431,-515.005 204.474,-488.285 224.927,-472.69 202.873,-449.939 222.474,-433.285 267.706,-394.851 428.499,-405.304 486.41,-392.285 492.585,-390.897 499.137,-389.141 505.332,-387.347"/>
<polygon fill="#9a32cd" stroke="#9a32cd" points="84.0585,-498.143 73.52,-499.234 82.4388,-504.953 84.0585,-498.143"/>
<text text-anchor="middle" x="309.878" y="-485.285" font-family="Helvetica,sans-Serif" font-size="10.00"> numSkipped</text>
<text text-anchor="middle" x="309.878" y="-475.285" font-family="Helvetica,sans-Serif" font-size="10.00">numPreMatches</text>
<text text-anchor="middle" x="309.878" y="-465.285" font-family="Helvetica,sans-Serif" font-size="10.00">numMatches</text>
<text text-anchor="middle" x="309.878" y="-455.285" font-family="Helvetica,sans-Serif" font-size="10.00">UNDEF</text>
<text text-anchor="middle" x="309.878" y="-445.285" font-family="Helvetica,sans-Serif" font-size="10.00">numEventRead</text>
<text text-anchor="middle" x="309.878" y="-435.285" font-family="Helvetica,sans-Serif" font-size="10.00">INIT_CAPACITY</text>
</g>
<!-- Node17 -->
<g id="node17" class="node"><title>Node17</title>
<g id="a_node17"><a xlink:href="classmachine_1_1_o_v_machine.html" target="_top" xlink:title="仮想機械のクラス">
<polygon fill="white" stroke="black" points="275.755,-369.285 275.755,-387.285 344.001,-387.285 344.001,-369.285 275.755,-369.285"/>
<text text-anchor="middle" x="309.878" y="-375.285" font-family="Helvetica,sans-Serif" font-size="10.00">OVMachine</text>
</a>
</g>
</g>
<!-- Node11&#45;&gt;Node17 -->
<g id="edge20" class="edge"><title>Node11&#45;&gt;Node17</title>
<path fill="none" stroke="#9a32cd" stroke-dasharray="5,2" d="M83.5542,-490.01C122.242,-481.206 195.601,-463.661 204.474,-455.285 222.563,-438.207 204.393,-419.372 222.474,-402.285 236.731,-388.811 257.885,-382.787 275.693,-380.143"/>
<polygon fill="#9a32cd" stroke="#9a32cd" points="82.6282,-486.631 73.6439,-492.246 84.1691,-493.459 82.6282,-486.631"/>
<text text-anchor="middle" x="170.106" y="-480.285" font-family="Helvetica,sans-Serif" font-size="10.00"> initCapacity</text>
</g>
<!-- Node12 -->
<g id="node12" class="node"><title>Node12</title>
<g id="a_node12"><a xlink:href="interfaceevent_1_1_event_readable.html" target="_top" xlink:title="構造文書走査器が備えるべき機能を記述するインタフェース.">
<polygon fill="white" stroke="black" points="267.686,-235.285 267.686,-253.285 352.07,-253.285 352.07,-235.285 267.686,-235.285"/>
<text text-anchor="middle" x="309.878" y="-241.285" font-family="Helvetica,sans-Serif" font-size="10.00">EventReadable</text>
</a>
</g>
</g>
<!-- Node12&#45;&gt;Node3 -->
<g id="edge11" class="edge"><title>Node12&#45;&gt;Node3</title>
<path fill="none" stroke="#9a32cd" stroke-dasharray="5,2" d="M362.419,-237.881C400.371,-235.985 451.274,-239.675 486.41,-266.285 520.56,-292.149 530.251,-347.42 532.8,-369.197"/>
<polygon fill="#9a32cd" stroke="#9a32cd" points="361.835,-234.411 352.082,-238.549 362.287,-241.397 361.835,-234.411"/>
<text text-anchor="middle" x="450.846" y="-268.285" font-family="Helvetica,sans-Serif" font-size="10.00"> eis</text>
</g>
<!-- Node13 -->
<g id="node13" class="node"><title>Node13</title>
<g id="a_node13"><a xlink:href="class_iterable.html" target="_top" xlink:title=" ">
<polygon fill="white" stroke="black" points="12.7881,-254.285 12.7881,-272.285 104.95,-272.285 104.95,-254.285 12.7881,-254.285"/>
<text text-anchor="middle" x="58.8691" y="-260.285" font-family="Helvetica,sans-Serif" font-size="10.00">Iterable&lt; Event &gt;</text>
</a>
</g>
</g>
<!-- Node13&#45;&gt;Node12 -->
<g id="edge12" class="edge"><title>Node13&#45;&gt;Node12</title>
<path fill="none" stroke="midnightblue" d="M115.073,-259.073C161.114,-255.56 225.709,-250.631 267.429,-247.448"/>
<polygon fill="midnightblue" stroke="midnightblue" points="114.667,-255.593 104.963,-259.844 115.2,-262.573 114.667,-255.593"/>
</g>
<!-- Node14 -->
<g id="node14" class="node"><title>Node14</title>
<g id="a_node14"><a xlink:title=" ">
<polygon fill="white" stroke="#bfbfbf" points="37.8076,-217.285 37.8076,-235.285 79.9307,-235.285 79.9307,-217.285 37.8076,-217.285"/>
<text text-anchor="middle" x="58.8691" y="-223.285" font-family="Helvetica,sans-Serif" font-size="10.00">String</text>
</a>
</g>
</g>
<!-- Node14&#45;&gt;Node12 -->
<g id="edge13" class="edge"><title>Node14&#45;&gt;Node12</title>
<path fill="none" stroke="#9a32cd" stroke-dasharray="5,2" d="M90.0294,-226.193C119.317,-226.323 165.011,-227.102 204.474,-230.285 225.346,-231.968 248.433,-234.946 267.578,-237.724"/>
<polygon fill="#9a32cd" stroke="#9a32cd" points="90.031,-222.693 80.0235,-226.172 90.016,-229.693 90.031,-222.693"/>
<text text-anchor="middle" x="170.106" y="-232.285" font-family="Helvetica,sans-Serif" font-size="10.00"> ROOT_TAG</text>
</g>
<!-- Node15 -->
<g id="node15" class="node"><title>Node15</title>
<g id="a_node15"><a xlink:title=" ">
<polygon fill="white" stroke="#bfbfbf" points="7.22656,-174.285 7.22656,-192.285 110.512,-192.285 110.512,-174.285 7.22656,-174.285"/>
<text text-anchor="middle" x="58.8691" y="-180.285" font-family="Helvetica,sans-Serif" font-size="10.00">StackBase&lt; Long &gt;</text>
</a>
</g>
</g>
<!-- Node15&#45;&gt;Node3 -->
<g id="edge14" class="edge"><title>Node15&#45;&gt;Node3</title>
<path fill="none" stroke="#9a32cd" stroke-dasharray="5,2" d="M120.854,-182.356C188.935,-182.449 302.061,-185.991 397.282,-205.285 438.387,-213.614 456.956,-206.428 486.41,-236.285 524.361,-274.756 531.824,-344.454 533.288,-369.238"/>
<polygon fill="#9a32cd" stroke="#9a32cd" points="120.73,-178.856 110.734,-182.367 120.738,-185.856 120.73,-178.856"/>
<text text-anchor="middle" x="309.878" y="-217.285" font-family="Helvetica,sans-Serif" font-size="10.00"> SS</text>
<text text-anchor="middle" x="309.878" y="-207.285" font-family="Helvetica,sans-Serif" font-size="10.00">RS</text>
</g>
<!-- Node24 -->
<g id="node24" class="node"><title>Node24</title>
<g id="a_node24"><a xlink:title=" ">
<polygon fill="white" stroke="#bfbfbf" points="222.474,-141.285 222.474,-159.285 397.282,-159.285 397.282,-141.285 222.474,-141.285"/>
<text text-anchor="middle" x="309.878" y="-147.285" font-family="Helvetica,sans-Serif" font-size="10.00">XMachine.WrapperInspectableLong</text>
</a>
</g>
</g>
<!-- Node15&#45;&gt;Node24 -->
<g id="edge27" class="edge"><title>Node15&#45;&gt;Node24</title>
<path fill="none" stroke="#9a32cd" stroke-dasharray="5,2" d="M121.05,-174.32C126.018,-173.621 130.962,-172.935 135.738,-172.285 168.465,-167.834 204.711,-163.185 235.547,-159.313"/>
<polygon fill="#9a32cd" stroke="#9a32cd" points="120.274,-170.895 110.865,-175.766 121.258,-177.825 120.274,-170.895"/>
<text text-anchor="middle" x="170.106" y="-174.285" font-family="Helvetica,sans-Serif" font-size="10.00"> S</text>
</g>
<!-- Node16 -->
<g id="node16" class="node"><title>Node16</title>
<g id="a_node16"><a xlink:title=" ">
<polygon fill="white" stroke="#bfbfbf" points="292.425,-104.285 292.425,-122.285 327.331,-122.285 327.331,-104.285 292.425,-104.285"/>
<text text-anchor="middle" x="309.878" y="-110.285" font-family="Helvetica,sans-Serif" font-size="10.00">long</text>
</a>
</g>
</g>
<!-- Node16&#45;&gt;Node3 -->
<g id="edge15" class="edge"><title>Node16&#45;&gt;Node3</title>
<path fill="none" stroke="#9a32cd" stroke-dasharray="5,2" d="M337.294,-107.078C375.401,-99.8321 445.681,-93.1276 486.41,-130.285 522.675,-163.369 531.64,-328.431 533.314,-369.18"/>
<polygon fill="#9a32cd" stroke="#9a32cd" points="336.542,-103.659 327.451,-109.1 337.95,-110.516 336.542,-103.659"/>
<text text-anchor="middle" x="450.846" y="-132.285" font-family="Helvetica,sans-Serif" font-size="10.00"> EMPTY_MASK</text>
</g>
<!-- Node17&#45;&gt;Node3 -->
<g id="edge16" class="edge"><title>Node17&#45;&gt;Node3</title>
<path fill="none" stroke="#9a32cd" stroke-dasharray="5,2" d="M354.403,-378.285C398.67,-378.285 466.044,-378.285 504.337,-378.285"/>
<polygon fill="#9a32cd" stroke="#9a32cd" points="354.228,-374.785 344.228,-378.285 354.228,-381.785 354.228,-374.785"/>
<text text-anchor="middle" x="450.846" y="-380.285" font-family="Helvetica,sans-Serif" font-size="10.00"> OVM</text>
</g>
<!-- Node18 -->
<g id="node18" class="node"><title>Node18</title>
<g id="a_node18"><a xlink:href="classutil_1_1_stack_base.html" target="_top" xlink:title=" ">
<polygon fill="white" stroke="black" points="0,-443.285 0,-461.285 117.738,-461.285 117.738,-443.285 0,-443.285"/>
<text text-anchor="middle" x="58.8691" y="-449.285" font-family="Helvetica,sans-Serif" font-size="10.00">StackBase&lt; Boolean &gt;</text>
</a>
</g>
</g>
<!-- Node18&#45;&gt;Node17 -->
<g id="edge17" class="edge"><title>Node18&#45;&gt;Node17</title>
<path fill="none" stroke="#9a32cd" stroke-dasharray="5,2" d="M127.609,-443.524C152.727,-438.461 180.831,-430.557 204.474,-418.285 213.974,-413.354 213.074,-407.405 222.474,-402.285 238.88,-393.348 258.891,-387.516 275.522,-383.842"/>
<polygon fill="#9a32cd" stroke="#9a32cd" points="126.952,-440.086 117.782,-445.394 128.26,-446.963 126.952,-440.086"/>
<text text-anchor="middle" x="170.106" y="-444.285" font-family="Helvetica,sans-Serif" font-size="10.00"> boolStack</text>
</g>
<!-- Node19 -->
<g id="node19" class="node"><title>Node19</title>
<g id="a_node19"><a xlink:href="classutil_1_1_stack_base.html" target="_top" xlink:title=" ">
<polygon fill="white" stroke="black" points="2.7832,-406.285 2.7832,-424.285 114.955,-424.285 114.955,-406.285 2.7832,-406.285"/>
<text text-anchor="middle" x="58.8691" y="-412.285" font-family="Helvetica,sans-Serif" font-size="10.00">StackBase&lt; Integer &gt;</text>
</a>
</g>
</g>
<!-- Node19&#45;&gt;Node17 -->
<g id="edge18" class="edge"><title>Node19&#45;&gt;Node17</title>
<path fill="none" stroke="#9a32cd" stroke-dasharray="5,2" d="M125.187,-405.579C173.479,-398.404 237.252,-388.928 275.55,-383.237"/>
<polygon fill="#9a32cd" stroke="#9a32cd" points="124.509,-402.142 115.132,-407.073 125.538,-409.066 124.509,-402.142"/>
<text text-anchor="middle" x="170.106" y="-406.285" font-family="Helvetica,sans-Serif" font-size="10.00"> intStack</text>
</g>
<!-- Node20 -->
<g id="node20" class="node"><title>Node20</title>
<g id="a_node20"><a xlink:href="classutil_1_1_stack_base.html" target="_top" xlink:title=" ">
<polygon fill="white" stroke="black" points="5.28809,-369.285 5.28809,-387.285 112.45,-387.285 112.45,-369.285 5.28809,-369.285"/>
<text text-anchor="middle" x="58.8691" y="-375.285" font-family="Helvetica,sans-Serif" font-size="10.00">StackBase&lt; String &gt;</text>
</a>
</g>
</g>
<!-- Node20&#45;&gt;Node17 -->
<g id="edge19" class="edge"><title>Node20&#45;&gt;Node17</title>
<path fill="none" stroke="#9a32cd" stroke-dasharray="5,2" d="M122.775,-378.285C171.354,-378.285 236.66,-378.285 275.594,-378.285"/>
<polygon fill="#9a32cd" stroke="#9a32cd" points="122.678,-374.785 112.678,-378.285 122.677,-381.785 122.678,-374.785"/>
<text text-anchor="middle" x="170.106" y="-380.285" font-family="Helvetica,sans-Serif" font-size="10.00"> strStack</text>
</g>
<!-- Node21 -->
<g id="node21" class="node"><title>Node21</title>
<g id="a_node21"><a xlink:href="classutil_1_1_stack_base.html" target="_top" xlink:title=" ">
<polygon fill="white" stroke="black" points="2.50488,-332.285 2.50488,-350.285 115.233,-350.285 115.233,-332.285 2.50488,-332.285"/>
<text text-anchor="middle" x="58.8691" y="-338.285" font-family="Helvetica,sans-Serif" font-size="10.00">StackBase&lt; Double &gt;</text>
</a>
</g>
</g>
<!-- Node21&#45;&gt;Node17 -->
<g id="edge21" class="edge"><title>Node21&#45;&gt;Node17</title>
<path fill="none" stroke="#9a32cd" stroke-dasharray="5,2" d="M125.499,-351.037C173.788,-358.212 237.429,-367.668 275.635,-373.345"/>
<polygon fill="#9a32cd" stroke="#9a32cd" points="125.847,-347.55 115.442,-349.542 124.819,-354.474 125.847,-347.55"/>
<text text-anchor="middle" x="170.106" y="-364.285" font-family="Helvetica,sans-Serif" font-size="10.00"> dblStack</text>
</g>
<!-- Node22 -->
<g id="node22" class="node"><title>Node22</title>
<g id="a_node22"><a xlink:title=" ">
<polygon fill="white" stroke="#bfbfbf" points="33.0737,-295.285 33.0737,-313.285 84.6646,-313.285 84.6646,-295.285 33.0737,-295.285"/>
<text text-anchor="middle" x="58.8691" y="-301.285" font-family="Helvetica,sans-Serif" font-size="10.00">boolean</text>
</a>
</g>
</g>
<!-- Node22&#45;&gt;Node3 -->
<g id="edge24" class="edge"><title>Node22&#45;&gt;Node3</title>
<path fill="none" stroke="#9a32cd" stroke-dasharray="5,2" d="M95.0716,-297.542C157.312,-286.979 290.315,-270.538 397.282,-299.285 448.542,-313.061 500.421,-351.326 522.543,-369.052"/>
<polygon fill="#9a32cd" stroke="#9a32cd" points="94.2448,-294.133 84.9987,-299.306 95.4526,-301.028 94.2448,-294.133"/>
<text text-anchor="middle" x="309.878" y="-351.285" font-family="Helvetica,sans-Serif" font-size="10.00"> toPrint</text>
<text text-anchor="middle" x="309.878" y="-341.285" font-family="Helvetica,sans-Serif" font-size="10.00">DEBUG_CODEGEN</text>
<text text-anchor="middle" x="309.878" y="-331.285" font-family="Helvetica,sans-Serif" font-size="10.00">DEBUG_DEBUG</text>
<text text-anchor="start" x="254.854" y="-321.285" font-family="Helvetica,sans-Serif" font-size="10.00">FLAG_RELATIVE_PATH</text>
<text text-anchor="middle" x="309.878" y="-311.285" font-family="Helvetica,sans-Serif" font-size="10.00">_MATCH</text>
<text text-anchor="middle" x="309.878" y="-301.285" font-family="Helvetica,sans-Serif" font-size="10.00">DEBUG_REPO</text>
</g>
<!-- Node22&#45;&gt;Node17 -->
<g id="edge22" class="edge"><title>Node22&#45;&gt;Node17</title>
<path fill="none" stroke="#9a32cd" stroke-dasharray="5,2" d="M94.935,-308.218C125.218,-312.655 169.487,-321.684 204.474,-339.285 213.776,-343.965 213.25,-349.45 222.474,-354.285 239.02,-362.959 259.04,-368.775 275.641,-372.506"/>
<polygon fill="#9a32cd" stroke="#9a32cd" points="95.2278,-304.725 84.8449,-306.833 94.2762,-311.66 95.2278,-304.725"/>
<text text-anchor="middle" x="170.106" y="-341.285" font-family="Helvetica,sans-Serif" font-size="10.00"> DEBUG_EVAL</text>
</g>
<!-- Node23 -->
<g id="node23" class="node"><title>Node23</title>
<g id="a_node23"><a xlink:title=" ">
<polygon fill="white" stroke="#bfbfbf" points="266.031,-67.2849 266.031,-85.2849 353.725,-85.2849 353.725,-67.2849 266.031,-67.2849"/>
<text text-anchor="middle" x="309.878" y="-73.2849" font-family="Helvetica,sans-Serif" font-size="10.00">static PrintMode</text>
</a>
</g>
</g>
<!-- Node23&#45;&gt;Node3 -->
<g id="edge23" class="edge"><title>Node23&#45;&gt;Node3</title>
<path fill="none" stroke="#9a32cd" stroke-dasharray="5,2" d="M364.002,-73.2645C409.057,-71.9187 469.055,-73.3953 486.41,-89.2849 528.875,-128.165 533.172,-324.478 533.599,-369.205"/>
<polygon fill="#9a32cd" stroke="#9a32cd" points="363.643,-69.7748 353.773,-73.6248 363.89,-76.7705 363.643,-69.7748"/>
<text text-anchor="middle" x="450.846" y="-91.2849" font-family="Helvetica,sans-Serif" font-size="10.00"> pmode</text>
</g>
<!-- Node24&#45;&gt;Node3 -->
<g id="edge25" class="edge"><title>Node24&#45;&gt;Node3</title>
<path fill="none" stroke="#9a32cd" stroke-dasharray="5,2" d="M407.539,-142.348C435.965,-144.906 465.113,-153.032 486.41,-172.285 516.35,-199.352 529.714,-332.034 532.881,-368.815"/>
<polygon fill="#9a32cd" stroke="#9a32cd" points="407.743,-138.854 397.528,-141.666 407.267,-145.838 407.743,-138.854"/>
<text text-anchor="middle" x="450.846" y="-174.285" font-family="Helvetica,sans-Serif" font-size="10.00"> RSWrapper</text>
</g>
<!-- Node25 -->
<g id="node25" class="node"><title>Node25</title>
<g id="a_node25"><a xlink:href="interfacemachine_1_1_inspectable.html" target="_top" xlink:title=" ">
<polygon fill="white" stroke="black" points="4.3042,-124.285 4.3042,-152.285 113.434,-152.285 113.434,-124.285 4.3042,-124.285"/>
<text text-anchor="start" x="12.3042" y="-140.285" font-family="Helvetica,sans-Serif" font-size="10.00">Inspectable&lt; Integer,</text>
<text text-anchor="middle" x="58.8691" y="-130.285" font-family="Helvetica,sans-Serif" font-size="10.00"> Boolean &gt;</text>
</a>
</g>
</g>
<!-- Node25&#45;&gt;Node24 -->
<g id="edge26" class="edge"><title>Node25&#45;&gt;Node24</title>
<path fill="none" stroke="midnightblue" d="M123.927,-141.372C153.914,-142.817 190.079,-144.56 222.446,-146.12"/>
<polygon fill="midnightblue" stroke="midnightblue" points="123.751,-137.859 113.594,-140.874 123.414,-144.851 123.751,-137.859"/>
</g>
</g>
</svg>
