<?xml version="1.0" encoding="UTF-8" standalone="no"?>
<!DOCTYPE svg PUBLIC "-//W3C//DTD SVG 1.1//EN"
 "http://www.w3.org/Graphics/SVG/1.1/DTD/svg11.dtd">
<!-- Generated by graphviz version 2.47.0 (20210316.0004)
 -->
<!-- Title: AstSource.AstInstreamConst Pages: 1 -->
<!--zoomable 353 -->
<svg id="main" version="1.1" xmlns="http://www.w3.org/2000/svg" xmlns:xlink="http://www.w3.org/1999/xlink" xml:space="preserve" onload="init(evt)">
<style type="text/css"><![CDATA[
.edge:hover path { stroke: red; }
.edge:hover polygon { stroke: red; fill: red; }
]]></style>
<script type="text/javascript"><![CDATA[
var edges = document.getElementsByTagName('g');
if (edges && edges.length) {
  for (var i=0;i<edges.length;i++) {
    if (edges[i].id.substr(0,4)=='edge') {
      edges[i].setAttribute('class','edge');
    }
  }
}
]]></script>
        <defs>
                <circle id="rim" cx="0" cy="0" r="7"/>
                <circle id="rim2" cx="0" cy="0" r="3.5"/>
                <g id="zoomPlus">
                        <use xlink:href="#rim" fill="#404040">
                                <set attributeName="fill" to="#808080" begin="zoomplus.mouseover" end="zoomplus.mouseout"/>
                        </use>
                        <path d="M-4,0h8M0,-4v8" fill="none" stroke="white" stroke-width="1.5" pointer-events="none"/>
                </g>
                <g id="zoomMin">
                        <use xlink:href="#rim" fill="#404040">
                                <set attributeName="fill" to="#808080" begin="zoomminus.mouseover" end="zoomminus.mouseout"/>
                        </use>
                        <path d="M-4,0h8" fill="none" stroke="white" stroke-width="1.5" pointer-events="none"/>
                </g>
                <g id="dirArrow">
                        <path fill="none" stroke="white" stroke-width="1.5" d="M0,-3.0v7 M-2.5,-0.5L0,-3.0L2.5,-0.5"/>
                </g>
               <g id="resetDef">
                       <use xlink:href="#rim2" fill="#404040">
                               <set attributeName="fill" to="#808080" begin="reset.mouseover" end="reset.mouseout"/>
                       </use>
               </g>
        </defs>

<script type="text/javascript">
var viewWidth = 972;
var viewHeight = 353;
var sectionId = 'dynsection-1';
</script>
<script xlink:href="svgpan.js"/>
<svg id="graph" class="graph">
<g id="viewport">
<title>AstSource.AstInstreamConst</title>
<polygon fill="white" stroke="transparent" points="-4,4 -4,-349 968.03,-349 968.03,4 -4,4"/>
<!-- Node1 -->
<g id="node1" class="node">
<title>Node1</title>
<g id="a_node1"><a xlink:title="入力ストリームを表すノードのクラス">
<polygon fill="#bfbfbf" stroke="black" points="201.53,-0.5 201.53,-19.5 346.53,-19.5 346.53,-0.5 201.53,-0.5"/>
<text text-anchor="middle" x="274.03" y="-7.5" font-family="Helvetica,sans-Serif" font-size="10.00">AstSource.AstInstreamConst</text>
</a>
</g>
</g>
<!-- Node2 -->
<g id="node2" class="node">
<title>Node2</title>
<g id="a_node2"><a xlink:href="classast_1_1_ast_source.html" target="_top" xlink:title="入力ストリームを表すノードのクラス">
<polygon fill="white" stroke="black" points="566.03,-57.5 566.03,-76.5 628.03,-76.5 628.03,-57.5 566.03,-57.5"/>
<text text-anchor="middle" x="597.03" y="-64.5" font-family="Helvetica,sans-Serif" font-size="10.00">AstSource</text>
</a>
</g>
</g>
<!-- Node2&#45;&gt;Node1 -->
<g id="edge1" class="edge">
<title>Node2&#45;&gt;Node1</title>
<path fill="none" stroke="midnightblue" d="M555.67,-58.96C496.52,-48.88 387.89,-30.39 324.22,-19.55"/>
<polygon fill="midnightblue" stroke="midnightblue" points="555.32,-62.45 565.77,-60.68 556.5,-55.55 555.32,-62.45"/>
</g>
<!-- Node3 -->
<g id="node3" class="node">
<title>Node3</title>
<g id="a_node3"><a xlink:href="classast_1_1_ast_node.html" target="_top" xlink:title="タグなしの順アクセスの子供をもてる抽象構文木のノードのクラス。">
<polygon fill="white" stroke="black" points="569.53,-114.5 569.53,-133.5 624.53,-133.5 624.53,-114.5 569.53,-114.5"/>
<text text-anchor="middle" x="597.03" y="-121.5" font-family="Helvetica,sans-Serif" font-size="10.00">AstNode</text>
</a>
</g>
</g>
<!-- Node3&#45;&gt;Node2 -->
<g id="edge2" class="edge">
<title>Node3&#45;&gt;Node2</title>
<path fill="none" stroke="midnightblue" d="M597.03,-104.12C597.03,-94.82 597.03,-84.06 597.03,-76.71"/>
<polygon fill="midnightblue" stroke="midnightblue" points="593.53,-104.41 597.03,-114.41 600.53,-104.41 593.53,-104.41"/>
</g>
<!-- Node4 -->
<g id="node4" class="node">
<title>Node4</title>
<g id="a_node4"><a xlink:href="classast_1_1_ast_node_base.html" target="_top" xlink:title=" ">
<polygon fill="white" stroke="black" points="436.53,-181.5 436.53,-200.5 513.53,-200.5 513.53,-181.5 436.53,-181.5"/>
<text text-anchor="middle" x="475.03" y="-188.5" font-family="Helvetica,sans-Serif" font-size="10.00">AstNodeBase</text>
</a>
</g>
</g>
<!-- Node4&#45;&gt;Node3 -->
<g id="edge3" class="edge">
<title>Node4&#45;&gt;Node3</title>
<path fill="none" stroke="midnightblue" d="M500.18,-176.6C524.34,-163.73 560.13,-144.66 580.77,-133.67"/>
<polygon fill="midnightblue" stroke="midnightblue" points="498.41,-173.58 491.23,-181.37 501.7,-179.76 498.41,-173.58"/>
</g>
<!-- Node5 -->
<g id="node5" class="node">
<title>Node5</title>
<g id="a_node5"><a xlink:title=" ">
<polygon fill="white" stroke="#bfbfbf" points="33.03,-325.5 33.03,-344.5 75.03,-344.5 75.03,-325.5 33.03,-325.5"/>
<text text-anchor="middle" x="54.03" y="-332.5" font-family="Helvetica,sans-Serif" font-size="10.00">String</text>
</a>
</g>
</g>
<!-- Node5&#45;&gt;Node4 -->
<g id="edge4" class="edge">
<title>Node5&#45;&gt;Node4</title>
<path fill="none" stroke="#9a32cd" stroke-dasharray="5,2" d="M63.97,-316.24C81.68,-284.7 117.32,-221.93 122.03,-219 128.65,-214.89 346.2,-200.35 436.43,-194.48"/>
<polygon fill="#9a32cd" stroke="#9a32cd" points="60.74,-314.83 58.91,-325.26 66.85,-318.25 60.74,-314.83"/>
<text text-anchor="middle" x="148.03" y="-266" font-family="Helvetica,sans-Serif" font-size="10.00"> MOD_AST</text>
<text text-anchor="middle" x="148.03" y="-255" font-family="Helvetica,sans-Serif" font-size="10.00">mod_</text>
</g>
<!-- Node16 -->
<g id="node16" class="node">
<title>Node16</title>
<g id="a_node16"><a xlink:href="classformat_1_1_style.html" target="_top" xlink:title="ノードの表示スタイルに関するプロパティのクラス.">
<polygon fill="white" stroke="black" points="273.53,-181.5 273.53,-200.5 312.53,-200.5 312.53,-181.5 273.53,-181.5"/>
<text text-anchor="middle" x="293.03" y="-188.5" font-family="Helvetica,sans-Serif" font-size="10.00">Style</text>
</a>
</g>
</g>
<!-- Node5&#45;&gt;Node16 -->
<g id="edge18" class="edge">
<title>Node5&#45;&gt;Node16</title>
<path fill="none" stroke="#9a32cd" stroke-dasharray="5,2" d="M27.26,-319.35C23.13,-315.87 19.45,-311.75 17.03,-307 -0.69,-272.13 -9.24,-247.97 17.03,-219 34.22,-200.05 213.04,-193.96 273.32,-192.43"/>
<polygon fill="#9a32cd" stroke="#9a32cd" points="25.36,-322.29 35.52,-325.28 29.44,-316.61 25.36,-322.29"/>
<text text-anchor="middle" x="43.03" y="-299" font-family="Helvetica,sans-Serif" font-size="10.00"> childLPAD</text>
<text text-anchor="middle" x="43.03" y="-288" font-family="Helvetica,sans-Serif" font-size="10.00">childRPAD</text>
<text text-anchor="middle" x="43.03" y="-277" font-family="Helvetica,sans-Serif" font-size="10.00">name</text>
<text text-anchor="middle" x="43.03" y="-266" font-family="Helvetica,sans-Serif" font-size="10.00">operSTR</text>
<text text-anchor="middle" x="43.03" y="-255" font-family="Helvetica,sans-Serif" font-size="10.00">parenLPAD</text>
<text text-anchor="middle" x="43.03" y="-244" font-family="Helvetica,sans-Serif" font-size="10.00">parenLPAR</text>
<text text-anchor="middle" x="43.03" y="-233" font-family="Helvetica,sans-Serif" font-size="10.00">parenRPAD</text>
<text text-anchor="middle" x="43.03" y="-222" font-family="Helvetica,sans-Serif" font-size="10.00">parenRPAR</text>
</g>
<!-- Node6 -->
<g id="node6" class="node">
<title>Node6</title>
<g id="a_node6"><a xlink:title=" ">
<polygon fill="white" stroke="#bfbfbf" points="498.53,-325.5 498.53,-344.5 563.53,-344.5 563.53,-325.5 498.53,-325.5"/>
<text text-anchor="middle" x="531.03" y="-332.5" font-family="Helvetica,sans-Serif" font-size="10.00">TraceLevel</text>
</a>
</g>
</g>
<!-- Node6&#45;&gt;Node4 -->
<g id="edge5" class="edge">
<title>Node6&#45;&gt;Node4</title>
<path fill="none" stroke="#9a32cd" stroke-dasharray="5,2" d="M544.63,-316.74C546.44,-313.65 548.02,-310.34 549.03,-307 560.37,-269.57 571.45,-251.05 549.03,-219 544.17,-212.05 526.66,-205.5 509.89,-200.59"/>
<polygon fill="#9a32cd" stroke="#9a32cd" points="541.6,-314.97 538.84,-325.2 547.38,-318.93 541.6,-314.97"/>
<text text-anchor="middle" x="574.03" y="-260.5" font-family="Helvetica,sans-Serif" font-size="10.00"> LOG</text>
</g>
<!-- Node7 -->
<g id="node7" class="node">
<title>Node7</title>
<g id="a_node7"><a xlink:title=" ">
<polygon fill="white" stroke="#bfbfbf" points="581.53,-325.5 581.53,-344.5 654.53,-344.5 654.53,-325.5 581.53,-325.5"/>
<text text-anchor="middle" x="618.03" y="-332.5" font-family="Helvetica,sans-Serif" font-size="10.00">static Report</text>
</a>
</g>
</g>
<!-- Node7&#45;&gt;Node4 -->
<g id="edge6" class="edge">
<title>Node7&#45;&gt;Node4</title>
<path fill="none" stroke="#9a32cd" stroke-dasharray="5,2" d="M619.06,-315.18C619.35,-289.73 615.84,-244.6 590.03,-219 587.22,-216.21 545.92,-206.95 513.61,-200.05"/>
<polygon fill="#9a32cd" stroke="#9a32cd" points="615.55,-315.24 618.72,-325.35 622.55,-315.47 615.55,-315.24"/>
<text text-anchor="middle" x="630.03" y="-260.5" font-family="Helvetica,sans-Serif" font-size="10.00"> repo</text>
</g>
<!-- Node8 -->
<g id="node8" class="node">
<title>Node8</title>
<g id="a_node8"><a xlink:title=" ">
<polygon fill="white" stroke="#bfbfbf" points="176.53,-325.5 176.53,-344.5 205.53,-344.5 205.53,-325.5 176.53,-325.5"/>
<text text-anchor="middle" x="191.03" y="-332.5" font-family="Helvetica,sans-Serif" font-size="10.00">int</text>
</a>
</g>
</g>
<!-- Node8&#45;&gt;Node1 -->
<g id="edge22" class="edge">
<title>Node8&#45;&gt;Node1</title>
<path fill="none" stroke="#9a32cd" stroke-dasharray="5,2" d="M178.74,-316.84C176.92,-313.68 175.25,-310.33 174.03,-307 156.33,-258.53 158.03,-243.6 158.03,-192 158.03,-192 158.03,-192 158.03,-66 158.03,-40.59 181.04,-26.91 206.56,-19.54"/>
<polygon fill="#9a32cd" stroke="#9a32cd" points="175.98,-319.01 184.36,-325.5 181.85,-315.2 175.98,-319.01"/>
<text text-anchor="middle" x="163.53" y="-121.5" font-family="Helvetica,sans-Serif" font-size="10.00"> id</text>
</g>
<!-- Node8&#45;&gt;Node4 -->
<g id="edge7" class="edge">
<title>Node8&#45;&gt;Node4</title>
<path fill="none" stroke="#9a32cd" stroke-dasharray="5,2" d="M205.84,-317.31C208.18,-314.05 210.38,-310.54 212.03,-307 228.96,-270.75 201.33,-245.81 231.03,-219 245.96,-205.53 371.52,-197.24 436.46,-193.82"/>
<polygon fill="#9a32cd" stroke="#9a32cd" points="203.05,-315.19 199.54,-325.19 208.52,-319.56 203.05,-315.19"/>
<text text-anchor="middle" x="292.53" y="-266" font-family="Helvetica,sans-Serif" font-size="10.00"> BITMASK_PRINT_WIDTH</text>
<text text-anchor="middle" x="292.53" y="-255" font-family="Helvetica,sans-Serif" font-size="10.00">UNDEF</text>
</g>
<!-- Node8&#45;&gt;Node16 -->
<g id="edge19" class="edge">
<title>Node8&#45;&gt;Node16</title>
<path fill="none" stroke="#9a32cd" stroke-dasharray="5,2" d="M184.96,-315.48C178.11,-290.74 170.51,-246.79 192.03,-219 201.93,-206.23 246.89,-198.16 273.37,-194.44"/>
<polygon fill="#9a32cd" stroke="#9a32cd" points="181.71,-316.81 187.95,-325.37 188.41,-314.79 181.71,-316.81"/>
<text text-anchor="middle" x="202.03" y="-260.5" font-family="Helvetica,sans-Serif" font-size="10.00"> pref</text>
</g>
<!-- Node9 -->
<g id="node9" class="node">
<title>Node9</title>
<g id="a_node9"><a xlink:href="interfacetype_1_1_typable.html" target="_top" xlink:title="抽象ノードがもつ関数型のインタフェース">
<polygon fill="white" stroke="black" points="673.03,-325.5 673.03,-344.5 723.03,-344.5 723.03,-325.5 673.03,-325.5"/>
<text text-anchor="middle" x="698.03" y="-332.5" font-family="Helvetica,sans-Serif" font-size="10.00">Typable</text>
</a>
</g>
</g>
<!-- Node9&#45;&gt;Node4 -->
<g id="edge8" class="edge">
<title>Node9&#45;&gt;Node4</title>
<path fill="none" stroke="#9a32cd" stroke-dasharray="5,2" d="M695.04,-315.26C689.83,-289.19 676.46,-242.53 645.03,-219 623.1,-202.57 550.06,-205.53 523.03,-201 520.02,-200.5 516.91,-199.96 513.78,-199.4"/>
<polygon fill="#9a32cd" stroke="#9a32cd" points="691.64,-316.12 696.86,-325.34 698.53,-314.88 691.64,-316.12"/>
<text text-anchor="middle" x="707.03" y="-260.5" font-family="Helvetica,sans-Serif" font-size="10.00"> typing</text>
</g>
<!-- Node10 -->
<g id="node10" class="node">
<title>Node10</title>
<g id="a_node10"><a xlink:title=" ">
<polygon fill="white" stroke="#bfbfbf" points="392.03,-325.5 392.03,-344.5 442.03,-344.5 442.03,-325.5 392.03,-325.5"/>
<text text-anchor="middle" x="417.03" y="-332.5" font-family="Helvetica,sans-Serif" font-size="10.00">boolean</text>
</a>
</g>
</g>
<!-- Node10&#45;&gt;Node4 -->
<g id="edge9" class="edge">
<title>Node10&#45;&gt;Node4</title>
<path fill="none" stroke="#9a32cd" stroke-dasharray="5,2" d="M441.94,-319.22C446.19,-315.7 450.16,-311.6 453.03,-307 458.71,-297.9 469.97,-225.68 473.76,-200.57"/>
<polygon fill="#9a32cd" stroke="#9a32cd" points="439.65,-316.56 433.62,-325.27 443.77,-322.22 439.65,-316.56"/>
<text text-anchor="middle" x="507.53" y="-260.5" font-family="Helvetica,sans-Serif" font-size="10.00"> DEBUG_REPO</text>
</g>
<!-- Node10&#45;&gt;Node16 -->
<g id="edge20" class="edge">
<title>Node10&#45;&gt;Node16</title>
<path fill="none" stroke="#9a32cd" stroke-dasharray="5,2" d="M389.57,-319.64C384.8,-316.08 380.32,-311.86 377.03,-307 354.61,-273.86 383.65,-249.73 358.03,-219 346.69,-205.39 327.34,-198.54 312.7,-195.15"/>
<polygon fill="#9a32cd" stroke="#9a32cd" points="388.01,-322.81 398.29,-325.36 391.85,-316.95 388.01,-322.81"/>
<text text-anchor="middle" x="413.03" y="-266" font-family="Helvetica,sans-Serif" font-size="10.00"> preoperSupress</text>
<text text-anchor="middle" x="413.03" y="-255" font-family="Helvetica,sans-Serif" font-size="10.00">toInline</text>
</g>
<!-- Node11 -->
<g id="node11" class="node">
<title>Node11</title>
<g id="a_node11"><a xlink:href="interfaceast_1_1_node.html" target="_top" xlink:title=" ">
<polygon fill="white" stroke="black" points="854.03,-181.5 854.03,-200.5 894.03,-200.5 894.03,-181.5 854.03,-181.5"/>
<text text-anchor="middle" x="874.03" y="-188.5" font-family="Helvetica,sans-Serif" font-size="10.00">Node</text>
</a>
</g>
</g>
<!-- Node11&#45;&gt;Node3 -->
<g id="edge10" class="edge">
<title>Node11&#45;&gt;Node3</title>
<path fill="none" stroke="midnightblue" d="M843.9,-180.86C750.03,-156.2 723.85,-155.41 633.03,-134 630.4,-133.38 627.66,-132.72 624.92,-132.05"/>
<polygon fill="midnightblue" stroke="midnightblue" points="843.25,-184.31 853.81,-183.49 845.04,-177.55 843.25,-184.31"/>
</g>
<!-- Node12 -->
<g id="node12" class="node">
<title>Node12</title>
<g id="a_node12"><a xlink:href="interfaceformat_1_1_x_formattable.html" target="_top" xlink:title="入れ子フォーマット出力可能なオブジェクトのインタフェース。">
<polygon fill="white" stroke="black" points="741.53,-325.5 741.53,-344.5 816.53,-344.5 816.53,-325.5 741.53,-325.5"/>
<text text-anchor="middle" x="779.03" y="-332.5" font-family="Helvetica,sans-Serif" font-size="10.00">XFormattable</text>
</a>
</g>
</g>
<!-- Node12&#45;&gt;Node11 -->
<g id="edge11" class="edge">
<title>Node12&#45;&gt;Node11</title>
<path fill="none" stroke="midnightblue" d="M790.59,-316.72C811.09,-286.08 853.08,-223.32 868.33,-200.52"/>
<polygon fill="midnightblue" stroke="midnightblue" points="787.63,-314.86 784.98,-325.12 793.44,-318.75 787.63,-314.86"/>
</g>
<!-- Node13 -->
<g id="node13" class="node">
<title>Node13</title>
<g id="a_node13"><a xlink:href="interfaceformat_1_1_x_formattable_1_1_navigatable.html" target="_top" xlink:title="木構造の分岐ノードとして清書可能なオブジェクトのクラス">
<polygon fill="white" stroke="black" points="532.03,-181.5 532.03,-200.5 662.03,-200.5 662.03,-181.5 532.03,-181.5"/>
<text text-anchor="middle" x="597.03" y="-188.5" font-family="Helvetica,sans-Serif" font-size="10.00">XFormattable.Navigatable</text>
</a>
</g>
</g>
<!-- Node12&#45;&gt;Node13 -->
<g id="edge13" class="edge">
<title>Node12&#45;&gt;Node13</title>
<path fill="none" stroke="midnightblue" d="M765.95,-317.06C763.79,-313.82 761.71,-310.39 760.03,-307 741.79,-270.23 762.62,-246.37 732.03,-219 725.93,-213.54 687.7,-206.19 653.47,-200.54"/>
<polygon fill="midnightblue" stroke="midnightblue" points="763.29,-319.36 771.98,-325.43 768.97,-315.27 763.29,-319.36"/>
</g>
<!-- Node14 -->
<g id="node14" class="node">
<title>Node14</title>
<g id="a_node14"><a xlink:href="interfaceformat_1_1_x_formattable_1_1_typed_formattable.html" target="_top" xlink:title="ノードの型情報をもつ書式出力可能なオブジェクトのインタフェース．">
<polygon fill="white" stroke="black" points="680.03,-181.5 680.03,-200.5 836.03,-200.5 836.03,-181.5 680.03,-181.5"/>
<text text-anchor="middle" x="758.03" y="-188.5" font-family="Helvetica,sans-Serif" font-size="10.00">XFormattable.TypedFormattable</text>
</a>
</g>
</g>
<!-- Node12&#45;&gt;Node14 -->
<g id="edge15" class="edge">
<title>Node12&#45;&gt;Node14</title>
<path fill="none" stroke="midnightblue" d="M776.24,-315.11C771.63,-283.93 762.61,-222.93 759.29,-200.52"/>
<polygon fill="midnightblue" stroke="midnightblue" points="772.79,-315.74 777.72,-325.12 779.72,-314.71 772.79,-315.74"/>
</g>
<!-- Node13&#45;&gt;Node3 -->
<g id="edge12" class="edge">
<title>Node13&#45;&gt;Node3</title>
<path fill="none" stroke="midnightblue" d="M597.03,-171.04C597.03,-158.67 597.03,-143.12 597.03,-133.63"/>
<polygon fill="midnightblue" stroke="midnightblue" points="593.53,-171.23 597.03,-181.23 600.53,-171.23 593.53,-171.23"/>
</g>
<!-- Node14&#45;&gt;Node3 -->
<g id="edge14" class="edge">
<title>Node14&#45;&gt;Node3</title>
<path fill="none" stroke="midnightblue" d="M727.33,-177.6C695.36,-164.7 646.14,-144.83 618.24,-133.56"/>
<polygon fill="midnightblue" stroke="midnightblue" points="726.07,-180.87 736.65,-181.37 728.69,-174.38 726.07,-180.87"/>
</g>
<!-- Node15 -->
<g id="node15" class="node">
<title>Node15</title>
<g id="a_node15"><a xlink:title=" ">
<polygon fill="white" stroke="#bfbfbf" points="912.03,-181.5 912.03,-200.5 964.03,-200.5 964.03,-181.5 912.03,-181.5"/>
<text text-anchor="middle" x="938.03" y="-188.5" font-family="Helvetica,sans-Serif" font-size="10.00">Boolean</text>
</a>
</g>
</g>
<!-- Node15&#45;&gt;Node3 -->
<g id="edge16" class="edge">
<title>Node15&#45;&gt;Node3</title>
<path fill="none" stroke="#9a32cd" stroke-dasharray="5,2" d="M901.71,-180.78C836.44,-165.96 818.59,-162.74 756.03,-152 701.58,-142.65 687.23,-144.71 633.03,-134 630.38,-133.48 627.63,-132.88 624.88,-132.25"/>
<polygon fill="#9a32cd" stroke="#9a32cd" points="901.17,-184.25 911.7,-183.06 902.73,-177.42 901.17,-184.25"/>
<text text-anchor="middle" x="855.03" y="-155" font-family="Helvetica,sans-Serif" font-size="10.00"> DEBUG_CHILD</text>
</g>
<!-- Node16&#45;&gt;Node3 -->
<g id="edge17" class="edge">
<title>Node16&#45;&gt;Node3</title>
<path fill="none" stroke="#9a32cd" stroke-dasharray="5,2" d="M322.77,-183.64C381.63,-171.06 512.18,-143.14 569.33,-130.92"/>
<polygon fill="#9a32cd" stroke="#9a32cd" points="322.03,-180.22 312.98,-185.74 323.49,-187.07 322.03,-180.22"/>
<text text-anchor="middle" x="472.53" y="-155" font-family="Helvetica,sans-Serif" font-size="10.00"> sty</text>
</g>
<!-- Node17 -->
<g id="node17" class="node">
<title>Node17</title>
<g id="a_node17"><a xlink:href="interfacecmd_1_1_generatable.html" target="_top" xlink:title="変換してコードを生成できるノードのインタフェース.">
<polygon fill="white" stroke="black" points="642.53,-114.5 642.53,-133.5 711.53,-133.5 711.53,-114.5 642.53,-114.5"/>
<text text-anchor="middle" x="677.03" y="-121.5" font-family="Helvetica,sans-Serif" font-size="10.00">Generatable</text>
</a>
</g>
</g>
<!-- Node17&#45;&gt;Node2 -->
<g id="edge21" class="edge">
<title>Node17&#45;&gt;Node2</title>
<path fill="none" stroke="midnightblue" d="M656,-108.54C641.18,-98.35 621.86,-85.07 609.44,-76.53"/>
<polygon fill="midnightblue" stroke="midnightblue" points="654.31,-111.63 664.53,-114.41 658.28,-105.86 654.31,-111.63"/>
</g>
</g>
</svg>
        <g id="navigator" transform="translate(0 0)" fill="#404254">
                <rect fill="#f2f5e9" fill-opacity="0.5" stroke="#606060" stroke-width=".5" x="0" y="0" width="60" height="60"/>
                <use id="zoomplus" xlink:href="#zoomPlus" x="17" y="9" onmousedown="handleZoom(evt,'in')"/>
                <use id="zoomminus" xlink:href="#zoomMin" x="42" y="9" onmousedown="handleZoom(evt,'out')"/>
                <use id="reset" xlink:href="#resetDef" x="30" y="36" onmousedown="handleReset()"/>
                <g id="arrowUp" xlink:href="#dirArrow" transform="translate(30 24)" onmousedown="handlePan(0,-1)">
                  <use xlink:href="#rim" fill="#404040">
                        <set attributeName="fill" to="#808080" begin="arrowUp.mouseover" end="arrowUp.mouseout"/>
                  </use>
                  <path fill="none" stroke="white" stroke-width="1.5" d="M0,-3.0v7 M-2.5,-0.5L0,-3.0L2.5,-0.5"/>
                </g>
                <g id="arrowRight" xlink:href="#dirArrow" transform="rotate(90) translate(36 -43)" onmousedown="handlePan(1,0)">
                  <use xlink:href="#rim" fill="#404040">
                        <set attributeName="fill" to="#808080" begin="arrowRight.mouseover" end="arrowRight.mouseout"/>
                  </use>
                  <path fill="none" stroke="white" stroke-width="1.5" d="M0,-3.0v7 M-2.5,-0.5L0,-3.0L2.5,-0.5"/>
                </g>
                <g id="arrowDown" xlink:href="#dirArrow" transform="rotate(180) translate(-30 -48)" onmousedown="handlePan(0,1)">
                  <use xlink:href="#rim" fill="#404040">
                        <set attributeName="fill" to="#808080" begin="arrowDown.mouseover" end="arrowDown.mouseout"/>
                  </use>
                  <path fill="none" stroke="white" stroke-width="1.5" d="M0,-3.0v7 M-2.5,-0.5L0,-3.0L2.5,-0.5"/>
                </g>
                <g id="arrowLeft" xlink:href="#dirArrow" transform="rotate(270) translate(-36 17)" onmousedown="handlePan(-1,0)">
                  <use xlink:href="#rim" fill="#404040">
                        <set attributeName="fill" to="#808080" begin="arrowLeft.mouseover" end="arrowLeft.mouseout"/>
                  </use>
                  <path fill="none" stroke="white" stroke-width="1.5" d="M0,-3.0v7 M-2.5,-0.5L0,-3.0L2.5,-0.5"/>
                </g>
        </g>
        <svg viewBox="0 0 15 15" width="100%" height="30px" preserveAspectRatio="xMaxYMin meet">
         <g id="arrow_out" transform="scale(0.3 0.3)">
          <a xlink:href="classast_1_1_ast_source_1_1_ast_instream_const__coll__graph_org.svg" target="_base">
           <rect id="button" ry="5" rx="5" y="6" x="6" height="38" width="38"
                fill="#f2f5e9" fill-opacity="0.5" stroke="#606060" stroke-width="1.0"/>
           <path id="arrow"
             d="M 11.500037,31.436501 C 11.940474,20.09759 22.043105,11.32322 32.158766,21.979434 L 37.068811,17.246167 C 37.068811,17.246167 37.088388,32 37.088388,32 L 22.160133,31.978069 C 22.160133,31.978069 26.997745,27.140456 26.997745,27.140456 C 18.528582,18.264221 13.291696,25.230495 11.500037,31.436501 z"
             style="fill:#404040;"/>
          </a>
         </g>
        </svg>
</svg>
