<?xml version="1.0" encoding="UTF-8" standalone="no"?>
<!DOCTYPE svg PUBLIC "-//W3C//DTD SVG 1.1//EN"
 "http://www.w3.org/Graphics/SVG/1.1/DTD/svg11.dtd">
<!-- Generated by graphviz version 2.47.0 (20210316.0004)
 -->
<!-- Title: AstDataReader.GetText Pages: 1 -->
<svg width="524pt" height="342pt"
 viewBox="0.00 0.00 524.00 342.00" xmlns="http://www.w3.org/2000/svg" xmlns:xlink="http://www.w3.org/1999/xlink">
<g id="graph0" class="graph" transform="scale(1 1) rotate(0) translate(4 338)">
<title>AstDataReader.GetText</title>
<polygon fill="white" stroke="transparent" points="-4,4 -4,-338 520,-338 520,4 -4,4"/>
<!-- Node1 -->
<g id="node1" class="node">
<title>Node1</title>
<g id="a_node1"><a xlink:title=" ">
<polygon fill="#bfbfbf" stroke="black" points="141.5,-0.5 141.5,-19.5 262.5,-19.5 262.5,-0.5 141.5,-0.5"/>
<text text-anchor="middle" x="202" y="-7.5" font-family="Helvetica,sans-Serif" font-size="10.00">AstDataReader.GetText</text>
</a>
</g>
</g>
<!-- Node2 -->
<g id="node2" class="node">
<title>Node2</title>
<g id="a_node2"><a xlink:href="classast_1_1_ast_data_reader.html" target="_top" xlink:title="値の読み出しオブジェクト．">
<polygon fill="white" stroke="black" points="160,-57.5 160,-76.5 244,-76.5 244,-57.5 160,-57.5"/>
<text text-anchor="middle" x="202" y="-64.5" font-family="Helvetica,sans-Serif" font-size="10.00">AstDataReader</text>
</a>
</g>
</g>
<!-- Node2&#45;&gt;Node1 -->
<g id="edge1" class="edge">
<title>Node2&#45;&gt;Node1</title>
<path fill="none" stroke="midnightblue" d="M202,-47.12C202,-37.82 202,-27.06 202,-19.71"/>
<polygon fill="midnightblue" stroke="midnightblue" points="198.5,-47.41 202,-57.41 205.5,-47.41 198.5,-47.41"/>
</g>
<!-- Node3 -->
<g id="node3" class="node">
<title>Node3</title>
<g id="a_node3"><a xlink:href="classast_1_1_ast_atom.html" target="_top" xlink:title="値を返すことができる終端オブジェクトのクラス">
<polygon fill="white" stroke="black" points="205.5,-114.5 205.5,-133.5 260.5,-133.5 260.5,-114.5 205.5,-114.5"/>
<text text-anchor="middle" x="233" y="-121.5" font-family="Helvetica,sans-Serif" font-size="10.00">AstAtom</text>
</a>
</g>
</g>
<!-- Node3&#45;&gt;Node2 -->
<g id="edge2" class="edge">
<title>Node3&#45;&gt;Node2</title>
<path fill="none" stroke="midnightblue" d="M223.21,-105.64C217.79,-96.01 211.28,-84.46 206.91,-76.71"/>
<polygon fill="midnightblue" stroke="midnightblue" points="220.2,-107.41 228.16,-114.41 226.3,-103.98 220.2,-107.41"/>
</g>
<!-- Node4 -->
<g id="node4" class="node">
<title>Node4</title>
<g id="a_node4"><a xlink:href="classast_1_1_ast_terminal.html" target="_top" xlink:title="値型をもたない終端オブジェクトのクラス">
<polygon fill="white" stroke="black" points="199,-171.5 199,-190.5 267,-190.5 267,-171.5 199,-171.5"/>
<text text-anchor="middle" x="233" y="-178.5" font-family="Helvetica,sans-Serif" font-size="10.00">AstTerminal</text>
</a>
</g>
</g>
<!-- Node4&#45;&gt;Node3 -->
<g id="edge3" class="edge">
<title>Node4&#45;&gt;Node3</title>
<path fill="none" stroke="midnightblue" d="M233,-161.12C233,-151.82 233,-141.06 233,-133.71"/>
<polygon fill="midnightblue" stroke="midnightblue" points="229.5,-161.41 233,-171.41 236.5,-161.41 229.5,-161.41"/>
</g>
<!-- Node5 -->
<g id="node5" class="node">
<title>Node5</title>
<g id="a_node5"><a xlink:href="classast_1_1_ast_node.html" target="_top" xlink:title=" ">
<polygon fill="white" stroke="red" points="257.5,-247.5 257.5,-266.5 312.5,-266.5 312.5,-247.5 257.5,-247.5"/>
<text text-anchor="middle" x="285" y="-254.5" font-family="Helvetica,sans-Serif" font-size="10.00">AstNode</text>
</a>
</g>
</g>
<!-- Node5&#45;&gt;Node4 -->
<g id="edge4" class="edge">
<title>Node5&#45;&gt;Node4</title>
<path fill="none" stroke="midnightblue" d="M272.91,-238.8C262.35,-223.77 247.44,-202.56 239.16,-190.77"/>
<polygon fill="midnightblue" stroke="midnightblue" points="270.22,-241.05 278.83,-247.22 275.94,-237.03 270.22,-241.05"/>
</g>
<!-- Node6 -->
<g id="node6" class="node">
<title>Node6</title>
<g id="a_node6"><a xlink:href="interfaceformat_1_1_x_formattable.html" target="_top" xlink:title="入れ子フォーマット出力可能なオブジェクトのインタフェース。">
<polygon fill="white" stroke="black" points="134.5,-314.5 134.5,-333.5 209.5,-333.5 209.5,-314.5 134.5,-314.5"/>
<text text-anchor="middle" x="172" y="-321.5" font-family="Helvetica,sans-Serif" font-size="10.00">XFormattable</text>
</a>
</g>
</g>
<!-- Node6&#45;&gt;Node5 -->
<g id="edge5" class="edge">
<title>Node6&#45;&gt;Node5</title>
<path fill="none" stroke="midnightblue" d="M196.14,-309.12C218.53,-296.24 251.14,-277.48 270,-266.63"/>
<polygon fill="midnightblue" stroke="midnightblue" points="194.16,-306.21 187.24,-314.23 197.65,-312.28 194.16,-306.21"/>
</g>
<!-- Node13 -->
<g id="node8" class="node">
<title>Node13</title>
<g id="a_node8"><a xlink:href="interfaceformat_1_1_x_formattable_1_1_terminatable.html" target="_top" xlink:title="木構造の終端として清書可能なオブジェクトのクラス">
<polygon fill="white" stroke="black" points="105,-247.5 105,-266.5 239,-266.5 239,-247.5 105,-247.5"/>
<text text-anchor="middle" x="172" y="-254.5" font-family="Helvetica,sans-Serif" font-size="10.00">XFormattable.Terminatable</text>
</a>
</g>
</g>
<!-- Node6&#45;&gt;Node13 -->
<g id="edge8" class="edge">
<title>Node6&#45;&gt;Node13</title>
<path fill="none" stroke="midnightblue" d="M172,-304.04C172,-291.67 172,-276.12 172,-266.63"/>
<polygon fill="midnightblue" stroke="midnightblue" points="168.5,-304.23 172,-314.23 175.5,-304.23 168.5,-304.23"/>
</g>
<!-- Node16 -->
<g id="node11" class="node">
<title>Node16</title>
<g id="a_node11"><a xlink:href="interfaceformat_1_1_x_formattable_1_1_typed_formattable.html" target="_top" xlink:title="ノードの型情報をもつ書式出力可能なオブジェクトのインタフェース．">
<polygon fill="white" stroke="black" points="0,-209.5 0,-228.5 156,-228.5 156,-209.5 0,-209.5"/>
<text text-anchor="middle" x="78" y="-216.5" font-family="Helvetica,sans-Serif" font-size="10.00">XFormattable.TypedFormattable</text>
</a>
</g>
</g>
<!-- Node6&#45;&gt;Node16 -->
<g id="edge13" class="edge">
<title>Node6&#45;&gt;Node16</title>
<path fill="none" stroke="midnightblue" d="M146.25,-309.19C129.93,-299.31 109.45,-284.66 96,-267 87.11,-255.32 82.13,-238.73 79.77,-228.7"/>
<polygon fill="midnightblue" stroke="midnightblue" points="144.89,-312.44 155.29,-314.44 148.4,-306.39 144.89,-312.44"/>
</g>
<!-- Node12 -->
<g id="node7" class="node">
<title>Node12</title>
<g id="a_node7"><a xlink:title=" ">
<polygon fill="white" stroke="#bfbfbf" points="355,-314.5 355,-333.5 405,-333.5 405,-314.5 355,-314.5"/>
<text text-anchor="middle" x="380" y="-321.5" font-family="Helvetica,sans-Serif" font-size="10.00">boolean</text>
</a>
</g>
</g>
<!-- Node12&#45;&gt;Node2 -->
<g id="edge14" class="edge">
<title>Node12&#45;&gt;Node2</title>
<path fill="none" stroke="#9a32cd" stroke-dasharray="5,2" d="M407.43,-309.14C425.18,-298.02 445,-280.56 445,-258 445,-258 445,-258 445,-123 445,-82.29 313.6,-71.71 244.05,-68.96"/>
<polygon fill="#9a32cd" stroke="#9a32cd" points="405.33,-306.31 398.45,-314.37 408.86,-312.36 405.33,-306.31"/>
<text text-anchor="middle" x="480.5" y="-178.5" font-family="Helvetica,sans-Serif" font-size="10.00"> DEBUG_TYPE</text>
</g>
<!-- Node12&#45;&gt;Node5 -->
<g id="edge6" class="edge">
<title>Node12&#45;&gt;Node5</title>
<path fill="none" stroke="#9a32cd" stroke-dasharray="5,2" d="M358.69,-308.42C339.91,-295.57 313.18,-277.28 297.61,-266.63"/>
<polygon fill="#9a32cd" stroke="#9a32cd" points="356.96,-311.48 367.19,-314.23 360.91,-305.7 356.96,-311.48"/>
<text text-anchor="middle" x="375.5" y="-288" font-family="Helvetica,sans-Serif" font-size="10.00"> DEBUG_REPO</text>
</g>
<!-- Node13&#45;&gt;Node2 -->
<g id="edge11" class="edge">
<title>Node13&#45;&gt;Node2</title>
<path fill="none" stroke="midnightblue" d="M174.95,-237.5C181.3,-197.71 196.05,-105.26 200.62,-76.62"/>
<polygon fill="midnightblue" stroke="midnightblue" points="171.49,-237.01 173.37,-247.43 178.4,-238.11 171.49,-237.01"/>
</g>
<!-- Node13&#45;&gt;Node4 -->
<g id="edge7" class="edge">
<title>Node13&#45;&gt;Node4</title>
<path fill="none" stroke="midnightblue" d="M185.83,-239.22C198.24,-224.17 215.96,-202.67 225.77,-190.77"/>
<polygon fill="midnightblue" stroke="midnightblue" points="182.9,-237.28 179.24,-247.22 188.3,-241.73 182.9,-237.28"/>
</g>
<!-- Node14 -->
<g id="node9" class="node">
<title>Node14</title>
<g id="a_node9"><a xlink:href="interfacecmd_1_1_generatable_1_1_evaluatable.html" target="_top" xlink:title="評価して値を返すノードのインタフェース．必ずしもコードを生成しなくても良い．">
<polygon fill="white" stroke="black" points="285.5,-171.5 285.5,-190.5 408.5,-190.5 408.5,-171.5 285.5,-171.5"/>
<text text-anchor="middle" x="347" y="-178.5" font-family="Helvetica,sans-Serif" font-size="10.00">Generatable.Evaluatable</text>
</a>
</g>
</g>
<!-- Node14&#45;&gt;Node3 -->
<g id="edge9" class="edge">
<title>Node14&#45;&gt;Node3</title>
<path fill="none" stroke="midnightblue" d="M319.96,-166.96C298.54,-156.62 269.21,-142.47 250.69,-133.53"/>
<polygon fill="midnightblue" stroke="midnightblue" points="318.66,-170.21 329.19,-171.41 321.7,-163.91 318.66,-170.21"/>
</g>
<!-- Node15 -->
<g id="node10" class="node">
<title>Node15</title>
<g id="a_node10"><a xlink:href="interfacecmd_1_1_generatable.html" target="_top" xlink:title="変換してコードを生成できるノードのインタフェース.">
<polygon fill="white" stroke="black" points="330.5,-247.5 330.5,-266.5 399.5,-266.5 399.5,-247.5 330.5,-247.5"/>
<text text-anchor="middle" x="365" y="-254.5" font-family="Helvetica,sans-Serif" font-size="10.00">Generatable</text>
</a>
</g>
</g>
<!-- Node15&#45;&gt;Node14 -->
<g id="edge10" class="edge">
<title>Node15&#45;&gt;Node14</title>
<path fill="none" stroke="midnightblue" d="M360.4,-237.07C356.77,-222.18 351.89,-202.11 349.13,-190.77"/>
<polygon fill="midnightblue" stroke="midnightblue" points="357.1,-238.33 362.86,-247.22 363.9,-236.68 357.1,-238.33"/>
</g>
<!-- Node16&#45;&gt;Node2 -->
<g id="edge12" class="edge">
<title>Node16&#45;&gt;Node2</title>
<path fill="none" stroke="midnightblue" d="M86.23,-200.02C98.67,-174.32 124.34,-126.68 157,-95 164.72,-87.51 174.88,-81.19 183.6,-76.55"/>
<polygon fill="midnightblue" stroke="midnightblue" points="82.95,-198.76 81.85,-209.3 89.29,-201.75 82.95,-198.76"/>
</g>
</g>
</svg>
