<?xml version="1.0" encoding="UTF-8" standalone="no"?>
<!DOCTYPE svg PUBLIC "-//W3C//DTD SVG 1.1//EN"
 "http://www.w3.org/Graphics/SVG/1.1/DTD/svg11.dtd">
<!-- Generated by graphviz version 2.47.0 (20210316.0004)
 -->
<!-- Title: StringHolder Pages: 1 -->
<svg width="286pt" height="28pt"
 viewBox="0.00 0.00 286.00 28.00" xmlns="http://www.w3.org/2000/svg" xmlns:xlink="http://www.w3.org/1999/xlink">
<g id="graph0" class="graph" transform="scale(1 1) rotate(0) translate(4 24)">
<title>StringHolder</title>
<polygon fill="white" stroke="transparent" points="-4,4 -4,-24 282,-24 282,4 -4,4"/>
<!-- Node1 -->
<g id="node1" class="node">
<title>Node1</title>
<g id="a_node1"><a xlink:title="空のStringBufをもつホルダを生成する。">
<polygon fill="#bfbfbf" stroke="black" points="0,-0.5 0,-19.5 71,-19.5 71,-0.5 0,-0.5"/>
<text text-anchor="middle" x="35.5" y="-7.5" font-family="Helvetica,sans-Serif" font-size="10.00">StringHolder</text>
</a>
</g>
</g>
<!-- Node2 -->
<g id="node2" class="node">
<title>Node2</title>
<g id="a_node2"><a xlink:href="classframe_1_1_string_holder.html#a392d8a8f0531b475c29f5a52d780f2b2" target="_top" xlink:title="StringBufを空に初期化する。">
<polygon fill="white" stroke="black" points="107,-0.5 107,-19.5 145,-19.5 145,-0.5 107,-0.5"/>
<text text-anchor="middle" x="126" y="-7.5" font-family="Helvetica,sans-Serif" font-size="10.00">clear</text>
</a>
</g>
</g>
<!-- Node1&#45;&gt;Node2 -->
<g id="edge1" class="edge">
<title>Node1&#45;&gt;Node2</title>
<path fill="none" stroke="midnightblue" d="M71.22,-10C79.71,-10 88.68,-10 96.82,-10"/>
<polygon fill="midnightblue" stroke="midnightblue" points="96.92,-13.5 106.92,-10 96.92,-6.5 96.92,-13.5"/>
</g>
<!-- Node3 -->
<g id="node3" class="node">
<title>Node3</title>
<g id="a_node3"><a xlink:href="classutil_1_1_string_buf.html#a754e8e0b737041f9fe2a65102bc3d4eb" target="_top" xlink:title="バッファの内容を空文字列に初期化する.">
<polygon fill="white" stroke="black" points="181,-0.5 181,-19.5 278,-19.5 278,-0.5 181,-0.5"/>
<text text-anchor="middle" x="229.5" y="-7.5" font-family="Helvetica,sans-Serif" font-size="10.00">util.StringBuf.clear</text>
</a>
</g>
</g>
<!-- Node2&#45;&gt;Node3 -->
<g id="edge2" class="edge">
<title>Node2&#45;&gt;Node3</title>
<path fill="none" stroke="midnightblue" d="M145.15,-10C152.52,-10 161.48,-10 170.76,-10"/>
<polygon fill="midnightblue" stroke="midnightblue" points="170.89,-13.5 180.89,-10 170.89,-6.5 170.89,-13.5"/>
</g>
</g>
</svg>
