<?xml version="1.0" encoding="UTF-8" standalone="no"?>
<!DOCTYPE svg PUBLIC "-//W3C//DTD SVG 1.1//EN"
 "http://www.w3.org/Graphics/SVG/1.1/DTD/svg11.dtd">
<!-- Generated by graphviz version 2.47.0 (20210316.0004)
 -->
<!-- Title: XCAdapt Pages: 1 -->
<!--zoomable 478 -->
<svg id="main" version="1.1" xmlns="http://www.w3.org/2000/svg" xmlns:xlink="http://www.w3.org/1999/xlink" xml:space="preserve" onload="init(evt)">
<style type="text/css"><![CDATA[
.edge:hover path { stroke: red; }
.edge:hover polygon { stroke: red; fill: red; }
]]></style>
<script type="text/javascript"><![CDATA[
var edges = document.getElementsByTagName('g');
if (edges && edges.length) {
  for (var i=0;i<edges.length;i++) {
    if (edges[i].id.substr(0,4)=='edge') {
      edges[i].setAttribute('class','edge');
    }
  }
}
]]></script>
        <defs>
                <circle id="rim" cx="0" cy="0" r="7"/>
                <circle id="rim2" cx="0" cy="0" r="3.5"/>
                <g id="zoomPlus">
                        <use xlink:href="#rim" fill="#404040">
                                <set attributeName="fill" to="#808080" begin="zoomplus.mouseover" end="zoomplus.mouseout"/>
                        </use>
                        <path d="M-4,0h8M0,-4v8" fill="none" stroke="white" stroke-width="1.5" pointer-events="none"/>
                </g>
                <g id="zoomMin">
                        <use xlink:href="#rim" fill="#404040">
                                <set attributeName="fill" to="#808080" begin="zoomminus.mouseover" end="zoomminus.mouseout"/>
                        </use>
                        <path d="M-4,0h8" fill="none" stroke="white" stroke-width="1.5" pointer-events="none"/>
                </g>
                <g id="dirArrow">
                        <path fill="none" stroke="white" stroke-width="1.5" d="M0,-3.0v7 M-2.5,-0.5L0,-3.0L2.5,-0.5"/>
                </g>
               <g id="resetDef">
                       <use xlink:href="#rim2" fill="#404040">
                               <set attributeName="fill" to="#808080" begin="reset.mouseover" end="reset.mouseout"/>
                       </use>
               </g>
        </defs>

<script type="text/javascript">
var viewWidth = 970;
var viewHeight = 478;
var sectionId = 'dynsection-1';
</script>
<script xlink:href="svgpan.js"/>
<svg id="graph" class="graph">
<g id="viewport">
<title>XCAdapt</title>
<polygon fill="white" stroke="transparent" points="-4,4 -4,-474 966,-474 966,4 -4,4"/>
<!-- Node1 -->
<g id="node1" class="node">
<title>Node1</title>
<g id="a_node1"><a xlink:title=" ">
<polygon fill="#bfbfbf" stroke="black" points="60,-0.5 60,-19.5 116,-19.5 116,-0.5 60,-0.5"/>
<text text-anchor="middle" x="88" y="-7.5" font-family="Helvetica,sans-Serif" font-size="10.00">XCAdapt</text>
</a>
</g>
</g>
<!-- Node2 -->
<g id="node2" class="node">
<title>Node2</title>
<g id="a_node2"><a xlink:href="classcompile_1_1_x_compiler.html" target="_top" xlink:title="クエリのコンパイル系モジュール。">
<polygon fill="white" stroke="black" points="463,-57.5 463,-76.5 525,-76.5 525,-57.5 463,-57.5"/>
<text text-anchor="middle" x="494" y="-64.5" font-family="Helvetica,sans-Serif" font-size="10.00">XCompiler</text>
</a>
</g>
</g>
<!-- Node2&#45;&gt;Node1 -->
<g id="edge1" class="edge">
<title>Node2&#45;&gt;Node1</title>
<path fill="none" stroke="midnightblue" d="M452.79,-60.42C370.19,-49.23 186.27,-24.31 116.02,-14.8"/>
<polygon fill="midnightblue" stroke="midnightblue" points="452.44,-63.9 462.82,-61.78 453.38,-56.96 452.44,-63.9"/>
</g>
<!-- Node3 -->
<g id="node3" class="node">
<title>Node3</title>
<g id="a_node3"><a xlink:href="classutil_1_1_inc_counter.html" target="_top" xlink:title="非負整数値を保持するカウンタ.">
<polygon fill="white" stroke="black" points="116.5,-231 116.5,-250 181.5,-250 181.5,-231 116.5,-231"/>
<text text-anchor="middle" x="149" y="-238" font-family="Helvetica,sans-Serif" font-size="10.00">IncCounter</text>
</a>
</g>
</g>
<!-- Node3&#45;&gt;Node2 -->
<g id="edge2" class="edge">
<title>Node3&#45;&gt;Node2</title>
<path fill="none" stroke="#9a32cd" stroke-dasharray="5,2" d="M150.38,-220.83C152.79,-198.69 159.33,-161.48 177,-135 193.18,-110.75 201.91,-105.78 229,-95 270.79,-78.38 402.05,-71.43 462.7,-69.05"/>
<polygon fill="#9a32cd" stroke="#9a32cd" points="146.88,-220.61 149.46,-230.89 153.86,-221.25 146.88,-220.61"/>
<text text-anchor="middle" x="203" y="-142.5" font-family="Helvetica,sans-Serif" font-size="10.00"> ridManager</text>
</g>
<!-- Node4 -->
<g id="node4" class="node">
<title>Node4</title>
<g id="a_node4"><a xlink:title=" ">
<polygon fill="white" stroke="#bfbfbf" points="170.5,-327.5 170.5,-346.5 199.5,-346.5 199.5,-327.5 170.5,-327.5"/>
<text text-anchor="middle" x="185" y="-334.5" font-family="Helvetica,sans-Serif" font-size="10.00">int</text>
</a>
</g>
</g>
<!-- Node4&#45;&gt;Node1 -->
<g id="edge29" class="edge">
<title>Node4&#45;&gt;Node1</title>
<path fill="none" stroke="#9a32cd" stroke-dasharray="5,2" d="M164.16,-321.36C135.66,-300.54 88,-262.59 88,-241.5 88,-241.5 88,-241.5 88,-66 88,-49.58 88,-30.39 88,-19.57"/>
<polygon fill="#9a32cd" stroke="#9a32cd" points="162.16,-324.23 172.32,-327.23 166.25,-318.55 162.16,-324.23"/>
<text text-anchor="middle" x="107.5" y="-142.5" font-family="Helvetica,sans-Serif" font-size="10.00"> UNDEF</text>
</g>
<!-- Node4&#45;&gt;Node2 -->
<g id="edge12" class="edge">
<title>Node4&#45;&gt;Node2</title>
<path fill="none" stroke="#9a32cd" stroke-dasharray="5,2" d="M186.6,-317C190.13,-276.56 198.95,-184.69 207,-173 217.26,-158.09 332.95,-101.08 350,-95 387.62,-81.59 433.25,-74.48 462.93,-70.98"/>
<polygon fill="#9a32cd" stroke="#9a32cd" points="183.09,-316.88 185.73,-327.14 190.07,-317.47 183.09,-316.88"/>
<text text-anchor="middle" x="261.5" y="-187" font-family="Helvetica,sans-Serif" font-size="10.00"> MASK_QUERY_PRINT</text>
<text text-anchor="middle" x="261.5" y="-176" font-family="Helvetica,sans-Serif" font-size="10.00">PRINT_STAGE</text>
</g>
<!-- Node4&#45;&gt;Node3 -->
<g id="edge3" class="edge">
<title>Node4&#45;&gt;Node3</title>
<path fill="none" stroke="#9a32cd" stroke-dasharray="5,2" d="M173.65,-318.93C171.59,-315.41 169.6,-311.65 168,-308 159.35,-288.2 153.47,-263.36 150.74,-250.37"/>
<polygon fill="#9a32cd" stroke="#9a32cd" points="170.74,-320.88 179.01,-327.5 176.68,-317.16 170.74,-320.88"/>
<text text-anchor="middle" x="176.5" y="-294.5" font-family="Helvetica,sans-Serif" font-size="10.00"> cnt</text>
</g>
<!-- Node13 -->
<g id="node13" class="node">
<title>Node13</title>
<g id="a_node13"><a xlink:href="classmachine_1_1_ref.html" target="_top" xlink:title="フレーム中の変数参照オブジェクトref = (XType type, int vid)">
<polygon fill="white" stroke="black" points="346,-135.5 346,-154.5 378,-154.5 378,-135.5 346,-135.5"/>
<text text-anchor="middle" x="362" y="-142.5" font-family="Helvetica,sans-Serif" font-size="10.00">Ref</text>
</a>
</g>
</g>
<!-- Node4&#45;&gt;Node13 -->
<g id="edge28" class="edge">
<title>Node4&#45;&gt;Node13</title>
<path fill="none" stroke="#9a32cd" stroke-dasharray="5,2" d="M201.06,-319.81C226.66,-293.88 278.11,-241.23 320,-195 332.49,-181.22 346.44,-164.71 354.71,-154.8"/>
<polygon fill="#9a32cd" stroke="#9a32cd" points="198.25,-317.68 193.7,-327.25 203.22,-322.6 198.25,-317.68"/>
<text text-anchor="middle" x="322.5" y="-238" font-family="Helvetica,sans-Serif" font-size="10.00"> UNDEF</text>
</g>
<!-- Node14 -->
<g id="node14" class="node">
<title>Node14</title>
<g id="a_node14"><a xlink:href="classast_1_1_ast_node.html" target="_top" xlink:title=" ">
<polygon fill="white" stroke="black" points="392.5,-231 392.5,-250 447.5,-250 447.5,-231 392.5,-231"/>
<text text-anchor="middle" x="420" y="-238" font-family="Helvetica,sans-Serif" font-size="10.00">AstNode</text>
</a>
</g>
</g>
<!-- Node4&#45;&gt;Node14 -->
<g id="edge24" class="edge">
<title>Node4&#45;&gt;Node14</title>
<path fill="none" stroke="#9a32cd" stroke-dasharray="5,2" d="M208.73,-324.31C217.3,-319.67 226.86,-314.02 235,-308 246.37,-299.59 245.48,-292.59 258,-286 292.55,-267.8 306.37,-278.45 344,-268 362.45,-262.88 382.91,-255.65 397.96,-250.03"/>
<polygon fill="#9a32cd" stroke="#9a32cd" points="206.85,-321.34 199.6,-329.06 210.08,-327.55 206.85,-321.34"/>
<text text-anchor="middle" x="319.5" y="-300" font-family="Helvetica,sans-Serif" font-size="10.00"> BITMASK_PRINT_WIDTH</text>
<text text-anchor="middle" x="319.5" y="-289" font-family="Helvetica,sans-Serif" font-size="10.00">UNDEF</text>
</g>
<!-- Node5 -->
<g id="node5" class="node">
<title>Node5</title>
<g id="a_node5"><a xlink:title=" ">
<polygon fill="white" stroke="#bfbfbf" points="283,-445 283,-464 333,-464 333,-445 283,-445"/>
<text text-anchor="middle" x="308" y="-452" font-family="Helvetica,sans-Serif" font-size="10.00">boolean</text>
</a>
</g>
</g>
<!-- Node5&#45;&gt;Node1 -->
<g id="edge30" class="edge">
<title>Node5&#45;&gt;Node1</title>
<path fill="none" stroke="#9a32cd" stroke-dasharray="5,2" d="M272.79,-451.1C236.07,-447.68 177.37,-439.61 130,-421 66.2,-395.93 0,-406.55 0,-338 0,-338 0,-338 0,-66 0,-37.35 33.95,-23.08 59.67,-16.37"/>
<polygon fill="#9a32cd" stroke="#9a32cd" points="272.73,-454.61 282.99,-451.98 273.33,-447.63 272.73,-454.61"/>
<text text-anchor="middle" x="36.5" y="-187" font-family="Helvetica,sans-Serif" font-size="10.00"> DEBUG_REPO</text>
<text text-anchor="middle" x="36.5" y="-176" font-family="Helvetica,sans-Serif" font-size="10.00">DEBUG_TYPE</text>
</g>
<!-- Node5&#45;&gt;Node2 -->
<g id="edge17" class="edge">
<title>Node5&#45;&gt;Node2</title>
<path fill="none" stroke="#9a32cd" stroke-dasharray="5,2" d="M318.93,-436.43C333.2,-415.79 360.26,-381.83 393,-366 428.79,-348.69 539.45,-372.19 571,-348 589.86,-333.53 590,-321.77 590,-298 590,-298 590,-298 590,-144 590,-108.82 549.88,-87.36 521.51,-76.59"/>
<polygon fill="#9a32cd" stroke="#9a32cd" points="315.94,-434.61 313.3,-444.87 321.76,-438.5 315.94,-434.61"/>
<text text-anchor="middle" x="628.5" y="-260" font-family="Helvetica,sans-Serif" font-size="10.00"> DEBUG_OPT_A</text>
<text text-anchor="middle" x="628.5" y="-249" font-family="Helvetica,sans-Serif" font-size="10.00">DEBUG_REPO</text>
<text text-anchor="middle" x="628.5" y="-238" font-family="Helvetica,sans-Serif" font-size="10.00">DEBUG_WORK</text>
<text text-anchor="middle" x="628.5" y="-227" font-family="Helvetica,sans-Serif" font-size="10.00">HAS_ARG</text>
<text text-anchor="middle" x="628.5" y="-216" font-family="Helvetica,sans-Serif" font-size="10.00">NO_ARG</text>
</g>
<!-- Node5&#45;&gt;Node3 -->
<g id="edge4" class="edge">
<title>Node5&#45;&gt;Node3</title>
<path fill="none" stroke="#9a32cd" stroke-dasharray="5,2" d="M272.96,-445.68C228.02,-433.51 152.17,-405.25 121,-348 102.81,-314.59 129.82,-268.77 142.75,-250.02"/>
<polygon fill="#9a32cd" stroke="#9a32cd" points="272.3,-449.12 282.86,-448.23 274.05,-442.35 272.3,-449.12"/>
<text text-anchor="middle" x="141" y="-334.5" font-family="Helvetica,sans-Serif" font-size="10.00"> DEBUG</text>
</g>
<!-- Node9 -->
<g id="node9" class="node">
<title>Node9</title>
<g id="a_node9"><a xlink:href="classutil_1_1_trace_level.html" target="_top" xlink:title="ログ出力用のトレースレベルを扱うクラス。">
<polygon fill="white" stroke="black" points="618.5,-327.5 618.5,-346.5 683.5,-346.5 683.5,-327.5 618.5,-327.5"/>
<text text-anchor="middle" x="651" y="-334.5" font-family="Helvetica,sans-Serif" font-size="10.00">TraceLevel</text>
</a>
</g>
</g>
<!-- Node5&#45;&gt;Node9 -->
<g id="edge11" class="edge">
<title>Node5&#45;&gt;Node9</title>
<path fill="none" stroke="#9a32cd" stroke-dasharray="5,2" d="M343.29,-445.38C358.97,-440.39 376.83,-432.65 390,-421 410.85,-402.55 396.78,-381.36 420,-366 454.26,-343.33 563.4,-354.28 604,-348 608.7,-347.27 613.64,-346.37 618.47,-345.41"/>
<polygon fill="#9a32cd" stroke="#9a32cd" points="341.98,-442.12 333.36,-448.28 343.94,-448.84 341.98,-442.12"/>
<text text-anchor="middle" x="454" y="-391" font-family="Helvetica,sans-Serif" font-size="10.00"> DEBUG_MOD</text>
</g>
<!-- Node11 -->
<g id="node11" class="node">
<title>Node11</title>
<g id="a_node11"><a xlink:href="classutil_1_1_report.html" target="_top" xlink:title="標準出力への入れ子出力のためのレポートオブジェクトのクラス.">
<polygon fill="white" stroke="black" points="848.5,-327.5 848.5,-346.5 919.5,-346.5 919.5,-327.5 848.5,-327.5"/>
<text text-anchor="middle" x="884" y="-334.5" font-family="Helvetica,sans-Serif" font-size="10.00">Report&lt; S &gt;</text>
</a>
</g>
</g>
<!-- Node5&#45;&gt;Node11 -->
<g id="edge16" class="edge">
<title>Node5&#45;&gt;Node11</title>
<path fill="none" stroke="#9a32cd" stroke-dasharray="5,2" d="M343.22,-448.98C409.85,-440.41 547.91,-422.5 550,-421 572.1,-405.09 554.56,-381.43 577,-366 613.59,-340.84 731.78,-352.05 776,-348 800.19,-345.79 827.42,-343.26 848.49,-341.31"/>
<polygon fill="#9a32cd" stroke="#9a32cd" points="342.65,-445.53 333.17,-450.28 343.54,-452.47 342.65,-445.53"/>
<text text-anchor="middle" x="610" y="-396.5" font-family="Helvetica,sans-Serif" font-size="10.00"> DEBUG_POP</text>
<text text-anchor="middle" x="610" y="-385.5" font-family="Helvetica,sans-Serif" font-size="10.00">toPrint</text>
</g>
<!-- Node5&#45;&gt;Node14 -->
<g id="edge26" class="edge">
<title>Node5&#45;&gt;Node14</title>
<path fill="none" stroke="#9a32cd" stroke-dasharray="5,2" d="M289.92,-438.1C262,-412.52 214.64,-360.65 245,-326 285.19,-280.15 330.2,-341.72 381,-308 401.96,-294.08 413.17,-264.74 417.64,-250.14"/>
<polygon fill="#9a32cd" stroke="#9a32cd" points="287.73,-440.84 297.52,-444.87 292.38,-435.61 287.73,-440.84"/>
<text text-anchor="middle" x="281.5" y="-334.5" font-family="Helvetica,sans-Serif" font-size="10.00"> DEBUG_REPO</text>
</g>
<!-- Node6 -->
<g id="node6" class="node">
<title>Node6</title>
<g id="a_node6"><a xlink:title=" ">
<polygon fill="white" stroke="#bfbfbf" points="767,-445 767,-464 809,-464 809,-445 767,-445"/>
<text text-anchor="middle" x="788" y="-452" font-family="Helvetica,sans-Serif" font-size="10.00">String</text>
</a>
</g>
</g>
<!-- Node6&#45;&gt;Node2 -->
<g id="edge5" class="edge">
<title>Node6&#45;&gt;Node2</title>
<path fill="none" stroke="#9a32cd" stroke-dasharray="5,2" d="M791.14,-434.85C794.69,-412.07 800,-372.32 800,-338 800,-338 800,-338 800,-144 800,-87.76 602.82,-72.84 525.02,-69.14"/>
<polygon fill="#9a32cd" stroke="#9a32cd" points="787.66,-434.41 789.52,-444.84 794.57,-435.53 787.66,-434.41"/>
<text text-anchor="middle" x="838.5" y="-238" font-family="Helvetica,sans-Serif" font-size="10.00"> MOD_COMPILE</text>
</g>
<!-- Node6&#45;&gt;Node9 -->
<g id="edge9" class="edge">
<title>Node6&#45;&gt;Node9</title>
<path fill="none" stroke="#9a32cd" stroke-dasharray="5,2" d="M756.86,-449.48C723.74,-444.54 674.44,-435.04 662,-421 643.3,-399.89 646.62,-363.11 649.33,-346.53"/>
<polygon fill="#9a32cd" stroke="#9a32cd" points="756.58,-452.98 766.98,-450.93 757.57,-446.05 756.58,-452.98"/>
<text text-anchor="middle" x="711.5" y="-413" font-family="Helvetica,sans-Serif" font-size="10.00"> DELIM_LEVELS</text>
<text text-anchor="middle" x="711.5" y="-402" font-family="Helvetica,sans-Serif" font-size="10.00">DELIM_NAMES</text>
<text text-anchor="middle" x="711.5" y="-391" font-family="Helvetica,sans-Serif" font-size="10.00">MOD_DEFAULT</text>
<text text-anchor="middle" x="711.5" y="-380" font-family="Helvetica,sans-Serif" font-size="10.00">OUT_DELIM_NAMES</text>
<text text-anchor="middle" x="711.5" y="-369" font-family="Helvetica,sans-Serif" font-size="10.00">USAGE_STR</text>
</g>
<!-- Node6&#45;&gt;Node11 -->
<g id="edge14" class="edge">
<title>Node6&#45;&gt;Node11</title>
<path fill="none" stroke="#9a32cd" stroke-dasharray="5,2" d="M800.97,-436.67C804.45,-431.76 808.07,-426.29 811,-421 823.84,-397.82 816.37,-385.78 834,-366 841.48,-357.61 852.1,-351.17 861.63,-346.59"/>
<polygon fill="#9a32cd" stroke="#9a32cd" points="798.13,-434.62 795,-444.74 803.76,-438.78 798.13,-434.62"/>
<text text-anchor="middle" x="860" y="-391" font-family="Helvetica,sans-Serif" font-size="10.00"> STEMSTR</text>
</g>
<!-- Node6&#45;&gt;Node14 -->
<g id="edge21" class="edge">
<title>Node6&#45;&gt;Node14</title>
<path fill="none" stroke="#9a32cd" stroke-dasharray="5,2" d="M786.19,-434.73C783.5,-415.66 776.92,-386.13 761,-366 755.56,-359.12 700.69,-330.2 693,-326 658.47,-307.12 651.7,-297.31 614,-286 546.73,-265.82 522.54,-293.26 457,-268 446.53,-263.97 436.29,-256.25 429.25,-250.18"/>
<polygon fill="#9a32cd" stroke="#9a32cd" points="782.73,-435.33 787.38,-444.85 789.68,-434.5 782.73,-435.33"/>
<text text-anchor="middle" x="758" y="-340" font-family="Helvetica,sans-Serif" font-size="10.00"> MOD_AST</text>
<text text-anchor="middle" x="758" y="-329" font-family="Helvetica,sans-Serif" font-size="10.00">mod_</text>
</g>
<!-- Node7 -->
<g id="node7" class="node">
<title>Node7</title>
<g id="a_node7"><a xlink:href="interfaceparse_1_1_parsable.html" target="_top" xlink:title=" ">
<polygon fill="white" stroke="black" points="396.5,-135.5 396.5,-154.5 451.5,-154.5 451.5,-135.5 396.5,-135.5"/>
<text text-anchor="middle" x="424" y="-142.5" font-family="Helvetica,sans-Serif" font-size="10.00">Parsable</text>
</a>
</g>
</g>
<!-- Node7&#45;&gt;Node2 -->
<g id="edge6" class="edge">
<title>Node7&#45;&gt;Node2</title>
<path fill="none" stroke="#9a32cd" stroke-dasharray="5,2" d="M440.45,-127.89C443.98,-124.35 447.65,-120.58 451,-117 463.85,-103.29 478.11,-86.76 486.56,-76.83"/>
<polygon fill="#9a32cd" stroke="#9a32cd" points="437.78,-125.61 433.15,-135.14 442.71,-130.58 437.78,-125.61"/>
<text text-anchor="middle" x="478" y="-103.5" font-family="Helvetica,sans-Serif" font-size="10.00"> AP</text>
</g>
<!-- Node8 -->
<g id="node8" class="node">
<title>Node8</title>
<g id="a_node8"><a xlink:href="interfaceformat_1_1_node_formattable.html" target="_top" xlink:title="XFormattableインタフェースをもつ構造オブジェクトの清書出力器．">
<polygon fill="white" stroke="black" points="470,-135.5 470,-154.5 562,-154.5 562,-135.5 470,-135.5"/>
<text text-anchor="middle" x="516" y="-142.5" font-family="Helvetica,sans-Serif" font-size="10.00">NodeFormattable</text>
</a>
</g>
</g>
<!-- Node8&#45;&gt;Node2 -->
<g id="edge7" class="edge">
<title>Node8&#45;&gt;Node2</title>
<path fill="none" stroke="#9a32cd" stroke-dasharray="5,2" d="M510.7,-125.67C506.19,-110.11 499.93,-88.47 496.49,-76.62"/>
<polygon fill="#9a32cd" stroke="#9a32cd" points="507.33,-126.65 513.48,-135.28 514.06,-124.7 507.33,-126.65"/>
<text text-anchor="middle" x="515.5" y="-103.5" font-family="Helvetica,sans-Serif" font-size="10.00"> NF</text>
</g>
<!-- Node9&#45;&gt;Node2 -->
<g id="edge8" class="edge">
<title>Node9&#45;&gt;Node2</title>
<path fill="none" stroke="#9a32cd" stroke-dasharray="5,2" d="M658.63,-317.88C667.76,-293.69 680.67,-249.62 671,-213 655.6,-154.69 652.1,-131.38 604,-95 581.26,-77.8 548.99,-71.42 525.28,-69.13"/>
<polygon fill="#9a32cd" stroke="#9a32cd" points="655.36,-316.64 654.91,-327.23 661.86,-319.23 655.36,-316.64"/>
<text text-anchor="middle" x="678" y="-181.5" font-family="Helvetica,sans-Serif" font-size="10.00"> LOG</text>
</g>
<!-- Node9&#45;&gt;Node14 -->
<g id="edge22" class="edge">
<title>Node9&#45;&gt;Node14</title>
<path fill="none" stroke="#9a32cd" stroke-dasharray="5,2" d="M622.92,-323.14C598.47,-312.27 561.88,-296.79 529,-286 497.66,-275.72 486.94,-281.85 457,-268 446.96,-263.36 436.84,-255.87 429.72,-250.03"/>
<polygon fill="#9a32cd" stroke="#9a32cd" points="621.74,-326.45 632.3,-327.35 624.61,-320.06 621.74,-326.45"/>
<text text-anchor="middle" x="598" y="-294.5" font-family="Helvetica,sans-Serif" font-size="10.00"> LOG</text>
</g>
<!-- Node10 -->
<g id="node10" class="node">
<title>Node10</title>
<g id="a_node10"><a xlink:title=" ">
<polygon fill="white" stroke="#bfbfbf" points="431.5,-439.5 431.5,-469.5 574.5,-469.5 574.5,-439.5 431.5,-439.5"/>
<text text-anchor="start" x="439.5" y="-457.5" font-family="Helvetica,sans-Serif" font-size="10.00">Map&lt; String, util.TraceLevel.</text>
<text text-anchor="middle" x="503" y="-446.5" font-family="Helvetica,sans-Serif" font-size="10.00">Level &gt;</text>
</a>
</g>
</g>
<!-- Node10&#45;&gt;Node9 -->
<g id="edge10" class="edge">
<title>Node10&#45;&gt;Node9</title>
<path fill="none" stroke="#9a32cd" stroke-dasharray="5,2" d="M495.67,-429.28C491.43,-409.91 489.43,-383.22 504,-366 518.58,-348.76 581.84,-352.35 604,-348 608.67,-347.08 613.58,-346.08 618.41,-345.07"/>
<polygon fill="#9a32cd" stroke="#9a32cd" points="492.33,-430.35 498.17,-439.19 499.12,-428.63 492.33,-430.35"/>
<text text-anchor="middle" x="527" y="-391" font-family="Helvetica,sans-Serif" font-size="10.00"> mapLevel</text>
</g>
<!-- Node11&#45;&gt;Node2 -->
<g id="edge13" class="edge">
<title>Node11&#45;&gt;Node2</title>
<path fill="none" stroke="#9a32cd" stroke-dasharray="5,2" d="M886.31,-317.41C888.74,-292.96 890.95,-248.9 881,-213 864.89,-154.88 864.8,-127.51 814,-95 790.02,-79.65 600.6,-71.61 525,-68.98"/>
<polygon fill="#9a32cd" stroke="#9a32cd" points="882.83,-317.11 885.19,-327.44 889.78,-317.89 882.83,-317.11"/>
<text text-anchor="middle" x="886" y="-181.5" font-family="Helvetica,sans-Serif" font-size="10.00"> repo</text>
</g>
<!-- Node12 -->
<g id="node12" class="node">
<title>Node12</title>
<g id="a_node12"><a xlink:href="classutil_1_1_stack_base.html" target="_top" xlink:title=" ">
<polygon fill="white" stroke="black" points="854,-445 854,-464 962,-464 962,-445 854,-445"/>
<text text-anchor="middle" x="908" y="-452" font-family="Helvetica,sans-Serif" font-size="10.00">StackBase&lt; String &gt;</text>
</a>
</g>
</g>
<!-- Node12&#45;&gt;Node11 -->
<g id="edge15" class="edge">
<title>Node12&#45;&gt;Node11</title>
<path fill="none" stroke="#9a32cd" stroke-dasharray="5,2" d="M904.16,-435C898.91,-409.76 889.72,-365.52 885.82,-346.78"/>
<polygon fill="#9a32cd" stroke="#9a32cd" points="900.73,-435.74 906.2,-444.82 907.59,-434.32 900.73,-435.74"/>
<text text-anchor="middle" x="909" y="-391" font-family="Helvetica,sans-Serif" font-size="10.00"> NS</text>
</g>
<!-- Node13&#45;&gt;Node2 -->
<g id="edge18" class="edge">
<title>Node13&#45;&gt;Node2</title>
<path fill="none" stroke="#9a32cd" stroke-dasharray="5,2" d="M355.22,-125.43C352.82,-115.36 352.17,-103.33 359,-95 371.88,-79.29 427.19,-72.54 462.89,-69.77"/>
<polygon fill="#9a32cd" stroke="#9a32cd" points="351.96,-126.76 358.24,-135.3 358.66,-124.71 351.96,-126.76"/>
<text text-anchor="middle" x="403" y="-109" font-family="Helvetica,sans-Serif" font-size="10.00"> REF_HEAD_LAST</text>
<text text-anchor="middle" x="403" y="-98" font-family="Helvetica,sans-Serif" font-size="10.00">REF_HEAD_LEN</text>
</g>
<!-- Node14&#45;&gt;Node13 -->
<g id="edge19" class="edge">
<title>Node14&#45;&gt;Node13</title>
<path fill="none" stroke="midnightblue" d="M409.22,-222.13C396.79,-202.08 376.83,-169.9 367.34,-154.61"/>
<polygon fill="midnightblue" stroke="midnightblue" points="406.4,-224.22 414.65,-230.87 412.35,-220.53 406.4,-224.22"/>
</g>
<!-- Node15 -->
<g id="node15" class="node">
<title>Node15</title>
<g id="a_node15"><a xlink:href="interfaceformat_1_1_x_formattable.html" target="_top" xlink:title="入れ子フォーマット出力可能なオブジェクトのインタフェース。">
<polygon fill="white" stroke="black" points="327.5,-327.5 327.5,-346.5 402.5,-346.5 402.5,-327.5 327.5,-327.5"/>
<text text-anchor="middle" x="365" y="-334.5" font-family="Helvetica,sans-Serif" font-size="10.00">XFormattable</text>
</a>
</g>
</g>
<!-- Node15&#45;&gt;Node14 -->
<g id="edge20" class="edge">
<title>Node15&#45;&gt;Node14</title>
<path fill="none" stroke="midnightblue" d="M391.88,-322.03C397.25,-318.14 402.35,-313.45 406,-308 418.07,-289.96 420.02,-263.5 420.16,-250.04"/>
<polygon fill="midnightblue" stroke="midnightblue" points="389.9,-319.14 383.39,-327.49 393.69,-325.03 389.9,-319.14"/>
</g>
<!-- Node16 -->
<g id="node16" class="node">
<title>Node16</title>
<g id="a_node16"><a xlink:title=" ">
<polygon fill="white" stroke="#bfbfbf" points="420.5,-327.5 420.5,-346.5 493.5,-346.5 493.5,-327.5 420.5,-327.5"/>
<text text-anchor="middle" x="457" y="-334.5" font-family="Helvetica,sans-Serif" font-size="10.00">static Report</text>
</a>
</g>
</g>
<!-- Node16&#45;&gt;Node14 -->
<g id="edge23" class="edge">
<title>Node16&#45;&gt;Node14</title>
<path fill="none" stroke="#9a32cd" stroke-dasharray="5,2" d="M449.91,-317.89C441.96,-297.59 429.4,-265.51 423.41,-250.2"/>
<polygon fill="#9a32cd" stroke="#9a32cd" points="446.68,-319.24 453.59,-327.28 453.2,-316.69 446.68,-319.24"/>
<text text-anchor="middle" x="456" y="-294.5" font-family="Helvetica,sans-Serif" font-size="10.00"> repo</text>
</g>
<!-- Node17 -->
<g id="node17" class="node">
<title>Node17</title>
<g id="a_node17"><a xlink:href="interfacetype_1_1_typable.html" target="_top" xlink:title="抽象ノードがもつ関数型のインタフェース">
<polygon fill="white" stroke="black" points="512,-327.5 512,-346.5 562,-346.5 562,-327.5 512,-327.5"/>
<text text-anchor="middle" x="537" y="-334.5" font-family="Helvetica,sans-Serif" font-size="10.00">Typable</text>
</a>
</g>
</g>
<!-- Node17&#45;&gt;Node14 -->
<g id="edge25" class="edge">
<title>Node17&#45;&gt;Node14</title>
<path fill="none" stroke="#9a32cd" stroke-dasharray="5,2" d="M516.43,-321.22C510.73,-317.02 504.58,-312.39 499,-308 473.65,-288.03 444.89,-263.26 430.05,-250.32"/>
<polygon fill="#9a32cd" stroke="#9a32cd" points="514.73,-324.31 524.87,-327.37 518.85,-318.65 514.73,-324.31"/>
<text text-anchor="middle" x="514" y="-294.5" font-family="Helvetica,sans-Serif" font-size="10.00"> typing</text>
</g>
<!-- Node18 -->
<g id="node18" class="node">
<title>Node18</title>
<g id="a_node18"><a xlink:href="interfacemachine_1_1_assignable.html" target="_top" xlink:title="変数（チャネルとコンテナの名前）の抽象化">
<polygon fill="white" stroke="black" points="465.5,-231 465.5,-250 530.5,-250 530.5,-231 465.5,-231"/>
<text text-anchor="middle" x="498" y="-238" font-family="Helvetica,sans-Serif" font-size="10.00">Assignable</text>
</a>
</g>
</g>
<!-- Node18&#45;&gt;Node13 -->
<g id="edge27" class="edge">
<title>Node18&#45;&gt;Node13</title>
<path fill="none" stroke="midnightblue" d="M476.97,-225.04C448.31,-205.34 397.88,-170.66 374.52,-154.61"/>
<polygon fill="midnightblue" stroke="midnightblue" points="475.23,-228.09 485.45,-230.87 479.19,-222.32 475.23,-228.09"/>
</g>
</g>
</svg>
        <g id="navigator" transform="translate(0 0)" fill="#404254">
                <rect fill="#f2f5e9" fill-opacity="0.5" stroke="#606060" stroke-width=".5" x="0" y="0" width="60" height="60"/>
                <use id="zoomplus" xlink:href="#zoomPlus" x="17" y="9" onmousedown="handleZoom(evt,'in')"/>
                <use id="zoomminus" xlink:href="#zoomMin" x="42" y="9" onmousedown="handleZoom(evt,'out')"/>
                <use id="reset" xlink:href="#resetDef" x="30" y="36" onmousedown="handleReset()"/>
                <g id="arrowUp" xlink:href="#dirArrow" transform="translate(30 24)" onmousedown="handlePan(0,-1)">
                  <use xlink:href="#rim" fill="#404040">
                        <set attributeName="fill" to="#808080" begin="arrowUp.mouseover" end="arrowUp.mouseout"/>
                  </use>
                  <path fill="none" stroke="white" stroke-width="1.5" d="M0,-3.0v7 M-2.5,-0.5L0,-3.0L2.5,-0.5"/>
                </g>
                <g id="arrowRight" xlink:href="#dirArrow" transform="rotate(90) translate(36 -43)" onmousedown="handlePan(1,0)">
                  <use xlink:href="#rim" fill="#404040">
                        <set attributeName="fill" to="#808080" begin="arrowRight.mouseover" end="arrowRight.mouseout"/>
                  </use>
                  <path fill="none" stroke="white" stroke-width="1.5" d="M0,-3.0v7 M-2.5,-0.5L0,-3.0L2.5,-0.5"/>
                </g>
                <g id="arrowDown" xlink:href="#dirArrow" transform="rotate(180) translate(-30 -48)" onmousedown="handlePan(0,1)">
                  <use xlink:href="#rim" fill="#404040">
                        <set attributeName="fill" to="#808080" begin="arrowDown.mouseover" end="arrowDown.mouseout"/>
                  </use>
                  <path fill="none" stroke="white" stroke-width="1.5" d="M0,-3.0v7 M-2.5,-0.5L0,-3.0L2.5,-0.5"/>
                </g>
                <g id="arrowLeft" xlink:href="#dirArrow" transform="rotate(270) translate(-36 17)" onmousedown="handlePan(-1,0)">
                  <use xlink:href="#rim" fill="#404040">
                        <set attributeName="fill" to="#808080" begin="arrowLeft.mouseover" end="arrowLeft.mouseout"/>
                  </use>
                  <path fill="none" stroke="white" stroke-width="1.5" d="M0,-3.0v7 M-2.5,-0.5L0,-3.0L2.5,-0.5"/>
                </g>
        </g>
        <svg viewBox="0 0 15 15" width="100%" height="30px" preserveAspectRatio="xMaxYMin meet">
         <g id="arrow_out" transform="scale(0.3 0.3)">
          <a xlink:href="classcompile_1_1_x_c_adapt__coll__graph_org.svg" target="_base">
           <rect id="button" ry="5" rx="5" y="6" x="6" height="38" width="38"
                fill="#f2f5e9" fill-opacity="0.5" stroke="#606060" stroke-width="1.0"/>
           <path id="arrow"
             d="M 11.500037,31.436501 C 11.940474,20.09759 22.043105,11.32322 32.158766,21.979434 L 37.068811,17.246167 C 37.068811,17.246167 37.088388,32 37.088388,32 L 22.160133,31.978069 C 22.160133,31.978069 26.997745,27.140456 26.997745,27.140456 C 18.528582,18.264221 13.291696,25.230495 11.500037,31.436501 z"
             style="fill:#404040;"/>
          </a>
         </g>
        </svg>
</svg>
