<?xml version="1.0" encoding="UTF-8" standalone="no"?>
<!DOCTYPE svg PUBLIC "-//W3C//DTD SVG 1.1//EN"
 "http://www.w3.org/Graphics/SVG/1.1/DTD/svg11.dtd">
<!-- Generated by graphviz version 2.47.0 (20210316.0004)
 -->
<!-- Title: AstList Pages: 1 -->
<!--zoomable 296 -->
<svg id="main" version="1.1" xmlns="http://www.w3.org/2000/svg" xmlns:xlink="http://www.w3.org/1999/xlink" xml:space="preserve" onload="init(evt)">
<style type="text/css"><![CDATA[
.edge:hover path { stroke: red; }
.edge:hover polygon { stroke: red; fill: red; }
]]></style>
<script type="text/javascript"><![CDATA[
var edges = document.getElementsByTagName('g');
if (edges && edges.length) {
  for (var i=0;i<edges.length;i++) {
    if (edges[i].id.substr(0,4)=='edge') {
      edges[i].setAttribute('class','edge');
    }
  }
}
]]></script>
        <defs>
                <circle id="rim" cx="0" cy="0" r="7"/>
                <circle id="rim2" cx="0" cy="0" r="3.5"/>
                <g id="zoomPlus">
                        <use xlink:href="#rim" fill="#404040">
                                <set attributeName="fill" to="#808080" begin="zoomplus.mouseover" end="zoomplus.mouseout"/>
                        </use>
                        <path d="M-4,0h8M0,-4v8" fill="none" stroke="white" stroke-width="1.5" pointer-events="none"/>
                </g>
                <g id="zoomMin">
                        <use xlink:href="#rim" fill="#404040">
                                <set attributeName="fill" to="#808080" begin="zoomminus.mouseover" end="zoomminus.mouseout"/>
                        </use>
                        <path d="M-4,0h8" fill="none" stroke="white" stroke-width="1.5" pointer-events="none"/>
                </g>
                <g id="dirArrow">
                        <path fill="none" stroke="white" stroke-width="1.5" d="M0,-3.0v7 M-2.5,-0.5L0,-3.0L2.5,-0.5"/>
                </g>
               <g id="resetDef">
                       <use xlink:href="#rim2" fill="#404040">
                               <set attributeName="fill" to="#808080" begin="reset.mouseover" end="reset.mouseout"/>
                       </use>
               </g>
        </defs>

<script type="text/javascript">
var viewWidth = 977;
var viewHeight = 296;
var sectionId = 'dynsection-1';
</script>
<script xlink:href="svgpan.js"/>
<svg id="graph" class="graph">
<g id="viewport">
<title>AstList</title>
<polygon fill="white" stroke="transparent" points="-4,4 -4,-292 972.5,-292 972.5,4 -4,4"/>
<!-- Node1 -->
<g id="node1" class="node">
<title>Node1</title>
<g id="a_node1"><a xlink:title="リストのテンプレート.">
<polygon fill="#bfbfbf" stroke="black" points="764,-0.5 764,-19.5 811,-19.5 811,-0.5 764,-0.5"/>
<text text-anchor="middle" x="787.5" y="-7.5" font-family="Helvetica,sans-Serif" font-size="10.00">AstList</text>
</a>
</g>
</g>
<!-- Node2 -->
<g id="node2" class="node">
<title>Node2</title>
<g id="a_node2"><a xlink:href="classast_1_1_ast_node.html" target="_top" xlink:title="タグなしの順アクセスの子供をもてる抽象構文木のノードのクラス。">
<polygon fill="white" stroke="black" points="645,-57.5 645,-76.5 700,-76.5 700,-57.5 645,-57.5"/>
<text text-anchor="middle" x="672.5" y="-64.5" font-family="Helvetica,sans-Serif" font-size="10.00">AstNode</text>
</a>
</g>
</g>
<!-- Node2&#45;&gt;Node1 -->
<g id="edge1" class="edge">
<title>Node2&#45;&gt;Node1</title>
<path fill="none" stroke="midnightblue" d="M699.77,-52.96C721.39,-42.62 750.97,-28.47 769.66,-19.53"/>
<polygon fill="midnightblue" stroke="midnightblue" points="697.98,-49.93 690.47,-57.41 701,-56.25 697.98,-49.93"/>
</g>
<!-- Node3 -->
<g id="node3" class="node">
<title>Node3</title>
<g id="a_node3"><a xlink:href="classast_1_1_ast_node_base.html" target="_top" xlink:title=" ">
<polygon fill="white" stroke="black" points="196,-124.5 196,-143.5 273,-143.5 273,-124.5 196,-124.5"/>
<text text-anchor="middle" x="234.5" y="-131.5" font-family="Helvetica,sans-Serif" font-size="10.00">AstNodeBase</text>
</a>
</g>
</g>
<!-- Node3&#45;&gt;Node2 -->
<g id="edge2" class="edge">
<title>Node3&#45;&gt;Node2</title>
<path fill="none" stroke="midnightblue" d="M283.28,-125.76C375.4,-112.09 572.24,-82.88 644.85,-72.1"/>
<polygon fill="midnightblue" stroke="midnightblue" points="282.75,-122.3 273.37,-127.23 283.78,-129.23 282.75,-122.3"/>
</g>
<!-- Node4 -->
<g id="node4" class="node">
<title>Node4</title>
<g id="a_node4"><a xlink:title=" ">
<polygon fill="white" stroke="#bfbfbf" points="431.5,-268.5 431.5,-287.5 473.5,-287.5 473.5,-268.5 431.5,-268.5"/>
<text text-anchor="middle" x="452.5" y="-275.5" font-family="Helvetica,sans-Serif" font-size="10.00">String</text>
</a>
</g>
</g>
<!-- Node4&#45;&gt;Node3 -->
<g id="edge3" class="edge">
<title>Node4&#45;&gt;Node3</title>
<path fill="none" stroke="#9a32cd" stroke-dasharray="5,2" d="M430.53,-261.87C426.71,-258.36 423.12,-254.36 420.5,-250 399.88,-215.71 430.52,-189.54 401.5,-162 383.5,-144.92 316.48,-138.62 273.02,-136.32"/>
<polygon fill="#9a32cd" stroke="#9a32cd" points="428.51,-264.74 438.48,-268.33 432.93,-259.31 428.51,-264.74"/>
<text text-anchor="middle" x="446.5" y="-209" font-family="Helvetica,sans-Serif" font-size="10.00"> MOD_AST</text>
<text text-anchor="middle" x="446.5" y="-198" font-family="Helvetica,sans-Serif" font-size="10.00">mod_</text>
</g>
<!-- Node15 -->
<g id="node15" class="node">
<title>Node15</title>
<g id="a_node15"><a xlink:href="classformat_1_1_style.html" target="_top" xlink:title="ノードの表示スタイルに関するプロパティのクラス.">
<polygon fill="white" stroke="black" points="479,-124.5 479,-143.5 518,-143.5 518,-124.5 479,-124.5"/>
<text text-anchor="middle" x="498.5" y="-131.5" font-family="Helvetica,sans-Serif" font-size="10.00">Style</text>
</a>
</g>
</g>
<!-- Node4&#45;&gt;Node15 -->
<g id="edge17" class="edge">
<title>Node4&#45;&gt;Node15</title>
<path fill="none" stroke="#9a32cd" stroke-dasharray="5,2" d="M469.29,-260.86C472.05,-257.5 474.62,-253.81 476.5,-250 494.56,-213.35 497.82,-163.36 498.39,-143.57"/>
<polygon fill="#9a32cd" stroke="#9a32cd" points="466.52,-258.71 462.32,-268.43 471.67,-263.45 466.52,-258.71"/>
<text text-anchor="middle" x="523.5" y="-242" font-family="Helvetica,sans-Serif" font-size="10.00"> childLPAD</text>
<text text-anchor="middle" x="523.5" y="-231" font-family="Helvetica,sans-Serif" font-size="10.00">childRPAD</text>
<text text-anchor="middle" x="523.5" y="-220" font-family="Helvetica,sans-Serif" font-size="10.00">name</text>
<text text-anchor="middle" x="523.5" y="-209" font-family="Helvetica,sans-Serif" font-size="10.00">operSTR</text>
<text text-anchor="middle" x="523.5" y="-198" font-family="Helvetica,sans-Serif" font-size="10.00">parenLPAD</text>
<text text-anchor="middle" x="523.5" y="-187" font-family="Helvetica,sans-Serif" font-size="10.00">parenLPAR</text>
<text text-anchor="middle" x="523.5" y="-176" font-family="Helvetica,sans-Serif" font-size="10.00">parenRPAD</text>
<text text-anchor="middle" x="523.5" y="-165" font-family="Helvetica,sans-Serif" font-size="10.00">parenRPAR</text>
</g>
<!-- Node5 -->
<g id="node5" class="node">
<title>Node5</title>
<g id="a_node5"><a xlink:title=" ">
<polygon fill="white" stroke="#bfbfbf" points="0,-268.5 0,-287.5 65,-287.5 65,-268.5 0,-268.5"/>
<text text-anchor="middle" x="32.5" y="-275.5" font-family="Helvetica,sans-Serif" font-size="10.00">TraceLevel</text>
</a>
</g>
</g>
<!-- Node5&#45;&gt;Node3 -->
<g id="edge4" class="edge">
<title>Node5&#45;&gt;Node3</title>
<path fill="none" stroke="#9a32cd" stroke-dasharray="5,2" d="M36.45,-258.39C42.97,-232.47 58.58,-185.99 90.5,-162 106.77,-149.77 158.95,-142.28 195.8,-138.39"/>
<polygon fill="#9a32cd" stroke="#9a32cd" points="32.97,-257.87 34.13,-268.41 39.79,-259.45 32.97,-257.87"/>
<text text-anchor="middle" x="102.5" y="-203.5" font-family="Helvetica,sans-Serif" font-size="10.00"> LOG</text>
</g>
<!-- Node6 -->
<g id="node6" class="node">
<title>Node6</title>
<g id="a_node6"><a xlink:title=" ">
<polygon fill="white" stroke="#bfbfbf" points="83,-268.5 83,-287.5 156,-287.5 156,-268.5 83,-268.5"/>
<text text-anchor="middle" x="119.5" y="-275.5" font-family="Helvetica,sans-Serif" font-size="10.00">static Report</text>
</a>
</g>
</g>
<!-- Node6&#45;&gt;Node3 -->
<g id="edge5" class="edge">
<title>Node6&#45;&gt;Node3</title>
<path fill="none" stroke="#9a32cd" stroke-dasharray="5,2" d="M118.35,-258.44C117.84,-233.3 120.84,-188.51 145.5,-162 158.37,-148.17 178.06,-141.34 195.66,-138"/>
<polygon fill="#9a32cd" stroke="#9a32cd" points="114.85,-258.63 118.76,-268.48 121.85,-258.34 114.85,-258.63"/>
<text text-anchor="middle" x="156.5" y="-203.5" font-family="Helvetica,sans-Serif" font-size="10.00"> repo</text>
</g>
<!-- Node7 -->
<g id="node7" class="node">
<title>Node7</title>
<g id="a_node7"><a xlink:title=" ">
<polygon fill="white" stroke="#bfbfbf" points="337,-268.5 337,-287.5 366,-287.5 366,-268.5 337,-268.5"/>
<text text-anchor="middle" x="351.5" y="-275.5" font-family="Helvetica,sans-Serif" font-size="10.00">int</text>
</a>
</g>
</g>
<!-- Node7&#45;&gt;Node3 -->
<g id="edge6" class="edge">
<title>Node7&#45;&gt;Node3</title>
<path fill="none" stroke="#9a32cd" stroke-dasharray="5,2" d="M326.64,-274.76C296.03,-271.43 246.72,-264 235.5,-250 210.16,-218.37 224.38,-164.59 231.35,-143.68"/>
<polygon fill="#9a32cd" stroke="#9a32cd" points="326.29,-278.24 336.59,-275.77 327,-271.28 326.29,-278.24"/>
<text text-anchor="middle" x="297" y="-209" font-family="Helvetica,sans-Serif" font-size="10.00"> BITMASK_PRINT_WIDTH</text>
<text text-anchor="middle" x="297" y="-198" font-family="Helvetica,sans-Serif" font-size="10.00">UNDEF</text>
</g>
<!-- Node7&#45;&gt;Node15 -->
<g id="edge18" class="edge">
<title>Node7&#45;&gt;Node15</title>
<path fill="none" stroke="#9a32cd" stroke-dasharray="5,2" d="M356.34,-258.33C364.77,-225.81 381.28,-162.21 381.5,-162 395.18,-148.71 449.09,-140.62 478.72,-137.09"/>
<polygon fill="#9a32cd" stroke="#9a32cd" points="352.86,-257.82 353.73,-268.38 359.63,-259.57 352.86,-257.82"/>
<text text-anchor="middle" x="391.5" y="-203.5" font-family="Helvetica,sans-Serif" font-size="10.00"> pref</text>
</g>
<!-- Node8 -->
<g id="node8" class="node">
<title>Node8</title>
<g id="a_node8"><a xlink:href="interfacetype_1_1_typable.html" target="_top" xlink:title="抽象ノードがもつ関数型のインタフェース">
<polygon fill="white" stroke="black" points="174.5,-268.5 174.5,-287.5 224.5,-287.5 224.5,-268.5 174.5,-268.5"/>
<text text-anchor="middle" x="199.5" y="-275.5" font-family="Helvetica,sans-Serif" font-size="10.00">Typable</text>
</a>
</g>
</g>
<!-- Node8&#45;&gt;Node3 -->
<g id="edge7" class="edge">
<title>Node8&#45;&gt;Node3</title>
<path fill="none" stroke="#9a32cd" stroke-dasharray="5,2" d="M186.65,-259.67C184.94,-256.58 183.45,-253.3 182.5,-250 171.66,-212.42 162.19,-195.43 182.5,-162 187.62,-153.57 196.33,-147.65 205.17,-143.55"/>
<polygon fill="#9a32cd" stroke="#9a32cd" points="183.75,-261.63 192.12,-268.13 189.63,-257.83 183.75,-261.63"/>
<text text-anchor="middle" x="197.5" y="-203.5" font-family="Helvetica,sans-Serif" font-size="10.00"> typing</text>
</g>
<!-- Node9 -->
<g id="node9" class="node">
<title>Node9</title>
<g id="a_node9"><a xlink:title=" ">
<polygon fill="white" stroke="#bfbfbf" points="596.5,-268.5 596.5,-287.5 646.5,-287.5 646.5,-268.5 596.5,-268.5"/>
<text text-anchor="middle" x="621.5" y="-275.5" font-family="Helvetica,sans-Serif" font-size="10.00">boolean</text>
</a>
</g>
</g>
<!-- Node9&#45;&gt;Node3 -->
<g id="edge8" class="edge">
<title>Node9&#45;&gt;Node3</title>
<path fill="none" stroke="#9a32cd" stroke-dasharray="5,2" d="M587.05,-264.1C580.78,-260.39 574.85,-255.74 570.5,-250 546.34,-218.11 581.54,-188.43 551.5,-162 531,-143.96 353.02,-137.68 273.08,-135.76"/>
<polygon fill="#9a32cd" stroke="#9a32cd" points="585.87,-267.42 596.36,-268.89 589.07,-261.2 585.87,-267.42"/>
<text text-anchor="middle" x="607" y="-203.5" font-family="Helvetica,sans-Serif" font-size="10.00"> DEBUG_REPO</text>
</g>
<!-- Node9&#45;&gt;Node15 -->
<g id="edge19" class="edge">
<title>Node9&#45;&gt;Node15</title>
<path fill="none" stroke="#9a32cd" stroke-dasharray="5,2" d="M640.36,-261.27C643.27,-257.88 645.86,-254.07 647.5,-250 662.13,-213.73 673.02,-191.64 647.5,-162 629.9,-141.57 553.79,-150.01 527.5,-144 524.42,-143.29 521.19,-142.43 518.05,-141.51"/>
<polygon fill="#9a32cd" stroke="#9a32cd" points="637.85,-258.83 633.24,-268.37 642.8,-263.78 637.85,-258.83"/>
<text text-anchor="middle" x="699.5" y="-209" font-family="Helvetica,sans-Serif" font-size="10.00"> preoperSupress</text>
<text text-anchor="middle" x="699.5" y="-198" font-family="Helvetica,sans-Serif" font-size="10.00">toInline</text>
</g>
<!-- Node10 -->
<g id="node10" class="node">
<title>Node10</title>
<g id="a_node10"><a xlink:href="interfaceast_1_1_node.html" target="_top" xlink:title=" ">
<polygon fill="white" stroke="black" points="536.5,-124.5 536.5,-143.5 576.5,-143.5 576.5,-124.5 536.5,-124.5"/>
<text text-anchor="middle" x="556.5" y="-131.5" font-family="Helvetica,sans-Serif" font-size="10.00">Node</text>
</a>
</g>
</g>
<!-- Node10&#45;&gt;Node2 -->
<g id="edge9" class="edge">
<title>Node10&#45;&gt;Node2</title>
<path fill="none" stroke="midnightblue" d="M580.97,-119.29C603.96,-106.4 637.66,-87.52 657.1,-76.63"/>
<polygon fill="midnightblue" stroke="midnightblue" points="579.16,-116.29 572.14,-124.23 582.58,-122.4 579.16,-116.29"/>
</g>
<!-- Node11 -->
<g id="node11" class="node">
<title>Node11</title>
<g id="a_node11"><a xlink:href="interfaceformat_1_1_x_formattable.html" target="_top" xlink:title="入れ子フォーマット出力可能なオブジェクトのインタフェース。">
<polygon fill="white" stroke="black" points="744,-268.5 744,-287.5 819,-287.5 819,-268.5 744,-268.5"/>
<text text-anchor="middle" x="781.5" y="-275.5" font-family="Helvetica,sans-Serif" font-size="10.00">XFormattable</text>
</a>
</g>
</g>
<!-- Node11&#45;&gt;Node10 -->
<g id="edge10" class="edge">
<title>Node11&#45;&gt;Node10</title>
<path fill="none" stroke="midnightblue" d="M773.92,-258.75C772.75,-255.83 771.58,-252.84 770.5,-250 755.78,-211.23 771.89,-187.89 739.5,-162 712.58,-140.49 619.21,-151.14 585.5,-144 582.61,-143.39 579.6,-142.61 576.66,-141.78"/>
<polygon fill="midnightblue" stroke="midnightblue" points="770.7,-260.11 777.72,-268.04 777.18,-257.46 770.7,-260.11"/>
</g>
<!-- Node12 -->
<g id="node12" class="node">
<title>Node12</title>
<g id="a_node12"><a xlink:href="interfaceformat_1_1_x_formattable_1_1_navigatable.html" target="_top" xlink:title="木構造の分岐ノードとして清書可能なオブジェクトのクラス">
<polygon fill="white" stroke="black" points="838.5,-124.5 838.5,-143.5 968.5,-143.5 968.5,-124.5 838.5,-124.5"/>
<text text-anchor="middle" x="903.5" y="-131.5" font-family="Helvetica,sans-Serif" font-size="10.00">XFormattable.Navigatable</text>
</a>
</g>
</g>
<!-- Node11&#45;&gt;Node12 -->
<g id="edge12" class="edge">
<title>Node11&#45;&gt;Node12</title>
<path fill="none" stroke="midnightblue" d="M795.67,-260.51C821.74,-230.17 876.42,-166.52 896.18,-143.52"/>
<polygon fill="midnightblue" stroke="midnightblue" points="792.99,-258.25 789.13,-268.12 798.3,-262.81 792.99,-258.25"/>
</g>
<!-- Node13 -->
<g id="node13" class="node">
<title>Node13</title>
<g id="a_node13"><a xlink:href="interfaceformat_1_1_x_formattable_1_1_typed_formattable.html" target="_top" xlink:title="ノードの型情報をもつ書式出力可能なオブジェクトのインタフェース．">
<polygon fill="white" stroke="black" points="594.5,-124.5 594.5,-143.5 750.5,-143.5 750.5,-124.5 594.5,-124.5"/>
<text text-anchor="middle" x="672.5" y="-131.5" font-family="Helvetica,sans-Serif" font-size="10.00">XFormattable.TypedFormattable</text>
</a>
</g>
</g>
<!-- Node11&#45;&gt;Node13 -->
<g id="edge14" class="edge">
<title>Node11&#45;&gt;Node13</title>
<path fill="none" stroke="midnightblue" d="M784.99,-258.23C788.5,-233.19 790.51,-188.91 767.5,-162 760.26,-153.53 750.57,-147.62 740.14,-143.52"/>
<polygon fill="midnightblue" stroke="midnightblue" points="781.51,-257.81 783.36,-268.24 788.42,-258.94 781.51,-257.81"/>
</g>
<!-- Node12&#45;&gt;Node1 -->
<g id="edge20" class="edge">
<title>Node12&#45;&gt;Node1</title>
<path fill="none" stroke="midnightblue" d="M888.27,-116.98C863.44,-90.87 815.09,-40.01 795.77,-19.69"/>
<polygon fill="midnightblue" stroke="midnightblue" points="885.73,-119.39 895.16,-124.23 890.8,-114.57 885.73,-119.39"/>
</g>
<!-- Node12&#45;&gt;Node2 -->
<g id="edge11" class="edge">
<title>Node12&#45;&gt;Node2</title>
<path fill="none" stroke="midnightblue" d="M878.47,-119.56C862.33,-111.39 840.66,-101.34 820.5,-95 779.64,-82.14 730.39,-74.68 700.27,-70.97"/>
<polygon fill="midnightblue" stroke="midnightblue" points="877.26,-122.87 887.75,-124.35 880.47,-116.65 877.26,-122.87"/>
</g>
<!-- Node13&#45;&gt;Node2 -->
<g id="edge13" class="edge">
<title>Node13&#45;&gt;Node2</title>
<path fill="none" stroke="midnightblue" d="M672.5,-114.04C672.5,-101.67 672.5,-86.12 672.5,-76.63"/>
<polygon fill="midnightblue" stroke="midnightblue" points="669,-114.23 672.5,-124.23 676,-114.23 669,-114.23"/>
</g>
<!-- Node14 -->
<g id="node14" class="node">
<title>Node14</title>
<g id="a_node14"><a xlink:title=" ">
<polygon fill="white" stroke="#bfbfbf" points="768.5,-124.5 768.5,-143.5 820.5,-143.5 820.5,-124.5 768.5,-124.5"/>
<text text-anchor="middle" x="794.5" y="-131.5" font-family="Helvetica,sans-Serif" font-size="10.00">Boolean</text>
</a>
</g>
</g>
<!-- Node14&#45;&gt;Node2 -->
<g id="edge15" class="edge">
<title>Node14&#45;&gt;Node2</title>
<path fill="none" stroke="#9a32cd" stroke-dasharray="5,2" d="M769.36,-119.6C745.19,-106.73 709.4,-87.66 688.77,-76.67"/>
<polygon fill="#9a32cd" stroke="#9a32cd" points="767.83,-122.76 778.3,-124.37 771.12,-116.58 767.83,-122.76"/>
<text text-anchor="middle" x="778.5" y="-98" font-family="Helvetica,sans-Serif" font-size="10.00"> DEBUG_CHILD</text>
</g>
<!-- Node15&#45;&gt;Node2 -->
<g id="edge16" class="edge">
<title>Node15&#45;&gt;Node2</title>
<path fill="none" stroke="#9a32cd" stroke-dasharray="5,2" d="M526.58,-120.19C543.96,-112.47 566.83,-102.68 587.5,-95 606.37,-87.99 627.99,-81.14 644.71,-76.09"/>
<polygon fill="#9a32cd" stroke="#9a32cd" points="524.74,-117.18 517.04,-124.47 527.6,-123.57 524.74,-117.18"/>
<text text-anchor="middle" x="596" y="-98" font-family="Helvetica,sans-Serif" font-size="10.00"> sty</text>
</g>
</g>
</svg>
        <g id="navigator" transform="translate(0 0)" fill="#404254">
                <rect fill="#f2f5e9" fill-opacity="0.5" stroke="#606060" stroke-width=".5" x="0" y="0" width="60" height="60"/>
                <use id="zoomplus" xlink:href="#zoomPlus" x="17" y="9" onmousedown="handleZoom(evt,'in')"/>
                <use id="zoomminus" xlink:href="#zoomMin" x="42" y="9" onmousedown="handleZoom(evt,'out')"/>
                <use id="reset" xlink:href="#resetDef" x="30" y="36" onmousedown="handleReset()"/>
                <g id="arrowUp" xlink:href="#dirArrow" transform="translate(30 24)" onmousedown="handlePan(0,-1)">
                  <use xlink:href="#rim" fill="#404040">
                        <set attributeName="fill" to="#808080" begin="arrowUp.mouseover" end="arrowUp.mouseout"/>
                  </use>
                  <path fill="none" stroke="white" stroke-width="1.5" d="M0,-3.0v7 M-2.5,-0.5L0,-3.0L2.5,-0.5"/>
                </g>
                <g id="arrowRight" xlink:href="#dirArrow" transform="rotate(90) translate(36 -43)" onmousedown="handlePan(1,0)">
                  <use xlink:href="#rim" fill="#404040">
                        <set attributeName="fill" to="#808080" begin="arrowRight.mouseover" end="arrowRight.mouseout"/>
                  </use>
                  <path fill="none" stroke="white" stroke-width="1.5" d="M0,-3.0v7 M-2.5,-0.5L0,-3.0L2.5,-0.5"/>
                </g>
                <g id="arrowDown" xlink:href="#dirArrow" transform="rotate(180) translate(-30 -48)" onmousedown="handlePan(0,1)">
                  <use xlink:href="#rim" fill="#404040">
                        <set attributeName="fill" to="#808080" begin="arrowDown.mouseover" end="arrowDown.mouseout"/>
                  </use>
                  <path fill="none" stroke="white" stroke-width="1.5" d="M0,-3.0v7 M-2.5,-0.5L0,-3.0L2.5,-0.5"/>
                </g>
                <g id="arrowLeft" xlink:href="#dirArrow" transform="rotate(270) translate(-36 17)" onmousedown="handlePan(-1,0)">
                  <use xlink:href="#rim" fill="#404040">
                        <set attributeName="fill" to="#808080" begin="arrowLeft.mouseover" end="arrowLeft.mouseout"/>
                  </use>
                  <path fill="none" stroke="white" stroke-width="1.5" d="M0,-3.0v7 M-2.5,-0.5L0,-3.0L2.5,-0.5"/>
                </g>
        </g>
        <svg viewBox="0 0 15 15" width="100%" height="30px" preserveAspectRatio="xMaxYMin meet">
         <g id="arrow_out" transform="scale(0.3 0.3)">
          <a xlink:href="classast_1_1_ast_list__coll__graph_org.svg" target="_base">
           <rect id="button" ry="5" rx="5" y="6" x="6" height="38" width="38"
                fill="#f2f5e9" fill-opacity="0.5" stroke="#606060" stroke-width="1.0"/>
           <path id="arrow"
             d="M 11.500037,31.436501 C 11.940474,20.09759 22.043105,11.32322 32.158766,21.979434 L 37.068811,17.246167 C 37.068811,17.246167 37.088388,32 37.088388,32 L 22.160133,31.978069 C 22.160133,31.978069 26.997745,27.140456 26.997745,27.140456 C 18.528582,18.264221 13.291696,25.230495 11.500037,31.436501 z"
             style="fill:#404040;"/>
          </a>
         </g>
        </svg>
</svg>
