<?xml version="1.0" encoding="UTF-8" standalone="no"?>
<!DOCTYPE svg PUBLIC "-//W3C//DTD SVG 1.1//EN"
 "http://www.w3.org/Graphics/SVG/1.1/DTD/svg11.dtd">
<!-- Generated by graphviz version 2.47.1 (20210417.1919)
 -->
<!-- Title: XCAdapt Pages: 1 -->
<svg width="1308pt" height="671pt"
 viewBox="0.00 0.00 1308.00 671.00" xmlns="http://www.w3.org/2000/svg" xmlns:xlink="http://www.w3.org/1999/xlink">
<g id="graph0" class="graph" transform="scale(1 1) rotate(0) translate(4 667)">
<title>XCAdapt</title>
<polygon fill="white" stroke="transparent" points="-4,4 -4,-667 1304,-667 1304,4 -4,4"/>
<!-- Node1 -->
<g id="node1" class="node">
<title>Node1</title>
<g id="a_node1"><a xlink:title=" ">
<polygon fill="#bfbfbf" stroke="black" points="1244,-40.5 1244,-59.5 1300,-59.5 1300,-40.5 1244,-40.5"/>
<text text-anchor="middle" x="1272" y="-47.5" font-family="Helvetica,sans-Serif" font-size="10.00">XCAdapt</text>
</a>
</g>
</g>
<!-- Node2 -->
<g id="node2" class="node">
<title>Node2</title>
<g id="a_node2"><a xlink:href="classcompile_1_1_x_compiler.html" target="_top" xlink:title="クエリのコンパイル系モジュール。">
<polygon fill="white" stroke="black" points="1145,-380.5 1145,-399.5 1207,-399.5 1207,-380.5 1145,-380.5"/>
<text text-anchor="middle" x="1176" y="-387.5" font-family="Helvetica,sans-Serif" font-size="10.00">XCompiler</text>
</a>
</g>
</g>
<!-- Node2&#45;&gt;Node1 -->
<g id="edge1" class="edge">
<title>Node2&#45;&gt;Node1</title>
<path fill="none" stroke="midnightblue" d="M1182.48,-370.17C1200.22,-306.03 1255.62,-105.63 1268.37,-59.52"/>
<polygon fill="midnightblue" stroke="midnightblue" points="1179,-369.62 1179.71,-380.19 1185.75,-371.49 1179,-369.62"/>
</g>
<!-- Node3 -->
<g id="node3" class="node">
<title>Node3</title>
<g id="a_node3"><a xlink:title=" ">
<polygon fill="white" stroke="#bfbfbf" points="50.5,-460.5 50.5,-479.5 92.5,-479.5 92.5,-460.5 50.5,-460.5"/>
<text text-anchor="middle" x="71.5" y="-467.5" font-family="Helvetica,sans-Serif" font-size="10.00">String</text>
</a>
</g>
</g>
<!-- Node3&#45;&gt;Node2 -->
<g id="edge2" class="edge">
<title>Node3&#45;&gt;Node2</title>
<path fill="none" stroke="#9a32cd" stroke-dasharray="5,2" d="M85.78,-487.8C101.43,-507.33 129.34,-537.9 161,-553 222.75,-582.46 245.08,-574 313.5,-574 313.5,-574 313.5,-574 1010,-574 1064.81,-574 1088.28,-573.8 1127,-535 1165.77,-496.15 1173.23,-425.32 1174.66,-399.63"/>
<polygon fill="#9a32cd" stroke="#9a32cd" points="88.38,-485.45 79.48,-479.7 82.86,-489.75 88.38,-485.45"/>
<text text-anchor="middle" x="722.5" y="-577" font-family="Helvetica,sans-Serif" font-size="10.00"> MOD_COMPILE</text>
</g>
<!-- Node6 -->
<g id="node6" class="node">
<title>Node6</title>
<g id="a_node6"><a xlink:href="classutil_1_1_trace_level.html" target="_top" xlink:title="ログ出力用のトレースレベルを扱うクラス。">
<polygon fill="white" stroke="black" points="282,-459.5 282,-478.5 347,-478.5 347,-459.5 282,-459.5"/>
<text text-anchor="middle" x="314.5" y="-466.5" font-family="Helvetica,sans-Serif" font-size="10.00">TraceLevel</text>
</a>
</g>
</g>
<!-- Node3&#45;&gt;Node6 -->
<g id="edge6" class="edge">
<title>Node3&#45;&gt;Node6</title>
<path fill="none" stroke="#9a32cd" stroke-dasharray="5,2" d="M102.82,-469.87C148.59,-469.68 234.94,-469.33 281.62,-469.13"/>
<polygon fill="#9a32cd" stroke="#9a32cd" points="102.62,-466.37 92.63,-469.92 102.65,-473.37 102.62,-466.37"/>
<text text-anchor="middle" x="210.5" y="-516" font-family="Helvetica,sans-Serif" font-size="10.00"> DELIM_LEVELS</text>
<text text-anchor="middle" x="210.5" y="-505" font-family="Helvetica,sans-Serif" font-size="10.00">DELIM_NAMES</text>
<text text-anchor="middle" x="210.5" y="-494" font-family="Helvetica,sans-Serif" font-size="10.00">MOD_DEFAULT</text>
<text text-anchor="middle" x="210.5" y="-483" font-family="Helvetica,sans-Serif" font-size="10.00">OUT_DELIM_NAMES</text>
<text text-anchor="middle" x="210.5" y="-472" font-family="Helvetica,sans-Serif" font-size="10.00">USAGE_STR</text>
</g>
<!-- Node10 -->
<g id="node10" class="node">
<title>Node10</title>
<g id="a_node10"><a xlink:href="classutil_1_1_report.html" target="_top" xlink:title="標準出力への入れ子出力のためのレポートオブジェクトのクラス.">
<polygon fill="white" stroke="black" points="279,-526.5 279,-545.5 350,-545.5 350,-526.5 279,-526.5"/>
<text text-anchor="middle" x="314.5" y="-533.5" font-family="Helvetica,sans-Serif" font-size="10.00">Report&lt; S &gt;</text>
</a>
</g>
</g>
<!-- Node3&#45;&gt;Node10 -->
<g id="edge11" class="edge">
<title>Node3&#45;&gt;Node10</title>
<path fill="none" stroke="#9a32cd" stroke-dasharray="5,2" d="M91.58,-486.09C108.59,-499.41 134.79,-517.47 161,-526 199.98,-538.69 247.45,-539.71 278.97,-538.52"/>
<polygon fill="#9a32cd" stroke="#9a32cd" points="93.55,-483.19 83.57,-479.64 89.16,-488.64 93.55,-483.19"/>
<text text-anchor="middle" x="210.5" y="-541" font-family="Helvetica,sans-Serif" font-size="10.00"> STEMSTR</text>
</g>
<!-- Node14 -->
<g id="node14" class="node">
<title>Node14</title>
<g id="a_node14"><a xlink:href="classast_1_1_ast_node_base.html" target="_top" xlink:title=" ">
<polygon fill="white" stroke="red" points="549.5,-410.5 549.5,-429.5 626.5,-429.5 626.5,-410.5 549.5,-410.5"/>
<text text-anchor="middle" x="588" y="-417.5" font-family="Helvetica,sans-Serif" font-size="10.00">AstNodeBase</text>
</a>
</g>
</g>
<!-- Node3&#45;&gt;Node14 -->
<g id="edge17" class="edge">
<title>Node3&#45;&gt;Node14</title>
<path fill="none" stroke="#9a32cd" stroke-dasharray="5,2" d="M82.49,-451.63C96.48,-428.06 124.36,-388.28 161,-372 201.21,-354.13 216.57,-364.95 260,-372 268.32,-373.35 269.79,-376.09 278,-378 374.5,-400.43 490.94,-412.26 549.49,-417.17"/>
<polygon fill="#9a32cd" stroke="#9a32cd" points="79.43,-449.92 77.51,-460.34 85.51,-453.4 79.43,-449.92"/>
<text text-anchor="middle" x="314.5" y="-406" font-family="Helvetica,sans-Serif" font-size="10.00"> MOD_AST</text>
<text text-anchor="middle" x="314.5" y="-395" font-family="Helvetica,sans-Serif" font-size="10.00">mod_</text>
</g>
<!-- Node23 -->
<g id="node20" class="node">
<title>Node23</title>
<g id="a_node20"><a xlink:href="classformat_1_1_style.html" target="_top" xlink:title="ノードの表示スタイルに関するプロパティのクラス.">
<polygon fill="white" stroke="black" points="568.5,-106.5 568.5,-125.5 607.5,-125.5 607.5,-106.5 568.5,-106.5"/>
<text text-anchor="middle" x="588" y="-113.5" font-family="Helvetica,sans-Serif" font-size="10.00">Style</text>
</a>
</g>
</g>
<!-- Node3&#45;&gt;Node23 -->
<g id="edge27" class="edge">
<title>Node3&#45;&gt;Node23</title>
<path fill="none" stroke="#9a32cd" stroke-dasharray="5,2" d="M81.65,-451.19C105.82,-404.03 176.54,-281.53 278,-239 307.92,-226.46 325.79,-218.57 351,-239 381,-263.31 339,-299.69 369,-324 411.47,-358.42 451.55,-360.78 492,-324 523.22,-295.62 482.44,-166.94 510,-135 524.3,-118.42 550.54,-115.11 568.37,-114.98"/>
<polygon fill="#9a32cd" stroke="#9a32cd" points="78.44,-449.78 77.09,-460.29 84.7,-452.92 78.44,-449.78"/>
<text text-anchor="middle" x="314.5" y="-319" font-family="Helvetica,sans-Serif" font-size="10.00"> childLPAD</text>
<text text-anchor="middle" x="314.5" y="-308" font-family="Helvetica,sans-Serif" font-size="10.00">childRPAD</text>
<text text-anchor="middle" x="314.5" y="-297" font-family="Helvetica,sans-Serif" font-size="10.00">name</text>
<text text-anchor="middle" x="314.5" y="-286" font-family="Helvetica,sans-Serif" font-size="10.00">operSTR</text>
<text text-anchor="middle" x="314.5" y="-275" font-family="Helvetica,sans-Serif" font-size="10.00">parenLPAD</text>
<text text-anchor="middle" x="314.5" y="-264" font-family="Helvetica,sans-Serif" font-size="10.00">parenLPAR</text>
<text text-anchor="middle" x="314.5" y="-253" font-family="Helvetica,sans-Serif" font-size="10.00">parenRPAD</text>
<text text-anchor="middle" x="314.5" y="-242" font-family="Helvetica,sans-Serif" font-size="10.00">parenRPAR</text>
</g>
<!-- Node4 -->
<g id="node4" class="node">
<title>Node4</title>
<g id="a_node4"><a xlink:href="interfaceparse_1_1_parsable.html" target="_top" xlink:title=" ">
<polygon fill="white" stroke="black" points="981.5,-295.5 981.5,-314.5 1036.5,-314.5 1036.5,-295.5 981.5,-295.5"/>
<text text-anchor="middle" x="1009" y="-302.5" font-family="Helvetica,sans-Serif" font-size="10.00">Parsable</text>
</a>
</g>
</g>
<!-- Node4&#45;&gt;Node2 -->
<g id="edge3" class="edge">
<title>Node4&#45;&gt;Node2</title>
<path fill="none" stroke="#9a32cd" stroke-dasharray="5,2" d="M1046.95,-302.23C1071.35,-302.11 1103.1,-305.39 1127,-320 1150.39,-334.29 1165.13,-364.77 1171.44,-380.37"/>
<polygon fill="#9a32cd" stroke="#9a32cd" points="1046.56,-298.73 1036.65,-302.47 1046.73,-305.73 1046.56,-298.73"/>
<text text-anchor="middle" x="1100" y="-323" font-family="Helvetica,sans-Serif" font-size="10.00"> AP</text>
</g>
<!-- Node5 -->
<g id="node5" class="node">
<title>Node5</title>
<g id="a_node5"><a xlink:href="interfaceformat_1_1_node_formattable.html" target="_top" xlink:title="XFormattableインタフェースをもつ構造オブジェクトの清書出力器．">
<polygon fill="white" stroke="black" points="963,-487.5 963,-506.5 1055,-506.5 1055,-487.5 963,-487.5"/>
<text text-anchor="middle" x="1009" y="-494.5" font-family="Helvetica,sans-Serif" font-size="10.00">NodeFormattable</text>
</a>
</g>
</g>
<!-- Node5&#45;&gt;Node2 -->
<g id="edge4" class="edge">
<title>Node5&#45;&gt;Node2</title>
<path fill="none" stroke="#9a32cd" stroke-dasharray="5,2" d="M1065.24,-495.15C1086.17,-492.14 1109.22,-485.81 1127,-473 1152.79,-454.41 1166.82,-417.36 1172.28,-399.74"/>
<polygon fill="#9a32cd" stroke="#9a32cd" points="1064.68,-491.69 1055.17,-496.37 1065.52,-498.64 1064.68,-491.69"/>
<text text-anchor="middle" x="1100" y="-496" font-family="Helvetica,sans-Serif" font-size="10.00"> NF</text>
</g>
<!-- Node6&#45;&gt;Node2 -->
<g id="edge5" class="edge">
<title>Node6&#45;&gt;Node2</title>
<path fill="none" stroke="#9a32cd" stroke-dasharray="5,2" d="M357.13,-465.71C392.9,-462.88 445.84,-458.68 492,-455 774.23,-432.47 848.54,-455.24 1127,-404 1133.15,-402.87 1139.63,-401.27 1145.78,-399.55"/>
<polygon fill="#9a32cd" stroke="#9a32cd" points="356.76,-462.23 347.07,-466.51 357.31,-469.21 356.76,-462.23"/>
<text text-anchor="middle" x="833.5" y="-444" font-family="Helvetica,sans-Serif" font-size="10.00"> LOG</text>
</g>
<!-- Node6&#45;&gt;Node14 -->
<g id="edge18" class="edge">
<title>Node6&#45;&gt;Node14</title>
<path fill="none" stroke="#9a32cd" stroke-dasharray="5,2" d="M341.39,-454.82C349.95,-450.7 359.68,-446.61 369,-444 430.59,-426.73 505.23,-421.79 549.26,-420.44"/>
<polygon fill="#9a32cd" stroke="#9a32cd" points="339.65,-451.78 332.3,-459.41 342.8,-458.03 339.65,-451.78"/>
<text text-anchor="middle" x="430.5" y="-447" font-family="Helvetica,sans-Serif" font-size="10.00"> LOG</text>
</g>
<!-- Node7 -->
<g id="node7" class="node">
<title>Node7</title>
<g id="a_node7"><a xlink:title=" ">
<polygon fill="white" stroke="#bfbfbf" points="0,-592 0,-622 143,-622 143,-592 0,-592"/>
<text text-anchor="start" x="8" y="-610" font-family="Helvetica,sans-Serif" font-size="10.00">Map&lt; String, util.TraceLevel.</text>
<text text-anchor="middle" x="71.5" y="-599" font-family="Helvetica,sans-Serif" font-size="10.00">Level &gt;</text>
</a>
</g>
</g>
<!-- Node7&#45;&gt;Node6 -->
<g id="edge7" class="edge">
<title>Node7&#45;&gt;Node6</title>
<path fill="none" stroke="#9a32cd" stroke-dasharray="5,2" d="M153.06,-598.6C189.05,-591.38 230,-577.95 260,-553 273.75,-541.56 268.65,-532.25 278,-517 286.56,-503.04 298.08,-488.03 305.64,-478.58"/>
<polygon fill="#9a32cd" stroke="#9a32cd" points="152.24,-595.2 143.06,-600.48 153.53,-602.08 152.24,-595.2"/>
<text text-anchor="middle" x="210.5" y="-598" font-family="Helvetica,sans-Serif" font-size="10.00"> mapLevel</text>
</g>
<!-- Node8 -->
<g id="node8" class="node">
<title>Node8</title>
<g id="a_node8"><a xlink:title=" ">
<polygon fill="white" stroke="#bfbfbf" points="46.5,-180.5 46.5,-199.5 96.5,-199.5 96.5,-180.5 46.5,-180.5"/>
<text text-anchor="middle" x="71.5" y="-187.5" font-family="Helvetica,sans-Serif" font-size="10.00">boolean</text>
</a>
</g>
</g>
<!-- Node8&#45;&gt;Node1 -->
<g id="edge33" class="edge">
<title>Node8&#45;&gt;Node1</title>
<path fill="none" stroke="#9a32cd" stroke-dasharray="5,2" d="M83.59,-171.61C113.92,-123.93 203.34,0 313.5,0 313.5,0 313.5,0 1177,0 1211.01,0 1244.69,-25.83 1260.95,-40.36"/>
<polygon fill="#9a32cd" stroke="#9a32cd" points="80.49,-169.98 78.18,-180.32 86.43,-173.67 80.49,-169.98"/>
<text text-anchor="middle" x="833.5" y="-14" font-family="Helvetica,sans-Serif" font-size="10.00"> DEBUG_REPO</text>
<text text-anchor="middle" x="833.5" y="-3" font-family="Helvetica,sans-Serif" font-size="10.00">DEBUG_TYPE</text>
</g>
<!-- Node8&#45;&gt;Node2 -->
<g id="edge31" class="edge">
<title>Node8&#45;&gt;Node2</title>
<path fill="none" stroke="#9a32cd" stroke-dasharray="5,2" d="M100,-175.64C117.12,-167.27 139.85,-157.18 161,-151 418.2,-75.84 501.94,-23.53 761,-92 941.89,-139.81 996.49,-165.94 1127,-300 1150.59,-324.24 1165.7,-362.41 1171.85,-380.23"/>
<polygon fill="#9a32cd" stroke="#9a32cd" points="98,-172.73 90.62,-180.33 101.13,-178.99 98,-172.73"/>
<text text-anchor="middle" x="722.5" y="-117" font-family="Helvetica,sans-Serif" font-size="10.00"> DEBUG_OPT_A</text>
<text text-anchor="middle" x="722.5" y="-106" font-family="Helvetica,sans-Serif" font-size="10.00">DEBUG_REPO</text>
<text text-anchor="middle" x="722.5" y="-95" font-family="Helvetica,sans-Serif" font-size="10.00">DEBUG_WORK</text>
</g>
<!-- Node8&#45;&gt;Node6 -->
<g id="edge8" class="edge">
<title>Node8&#45;&gt;Node6</title>
<path fill="none" stroke="#9a32cd" stroke-dasharray="5,2" d="M89.65,-206.86C130.84,-247.59 233.81,-350.98 260,-392 271.37,-409.81 265.98,-418.62 278,-436 284.22,-445 293.28,-453.37 300.69,-459.43"/>
<polygon fill="#9a32cd" stroke="#9a32cd" points="91.86,-204.12 82.28,-199.59 86.94,-209.1 91.86,-204.12"/>
<text text-anchor="middle" x="210.5" y="-395" font-family="Helvetica,sans-Serif" font-size="10.00"> DEBUG_MOD</text>
</g>
<!-- Node8&#45;&gt;Node10 -->
<g id="edge13" class="edge">
<title>Node8&#45;&gt;Node10</title>
<path fill="none" stroke="#9a32cd" stroke-dasharray="5,2" d="M75.46,-209.61C82.66,-250.85 104.82,-347.37 161,-403 194.72,-436.39 226.5,-409.39 260,-443 275.21,-458.26 267.51,-469.19 278,-488 285.87,-502.12 297.33,-516.86 305.09,-526.21"/>
<polygon fill="#9a32cd" stroke="#9a32cd" points="78.87,-208.82 73.81,-199.52 71.97,-209.95 78.87,-208.82"/>
<text text-anchor="middle" x="210.5" y="-457" font-family="Helvetica,sans-Serif" font-size="10.00"> DEBUG_POP</text>
<text text-anchor="middle" x="210.5" y="-446" font-family="Helvetica,sans-Serif" font-size="10.00">toPrint</text>
</g>
<!-- Node8&#45;&gt;Node14 -->
<g id="edge20" class="edge">
<title>Node8&#45;&gt;Node14</title>
<path fill="none" stroke="#9a32cd" stroke-dasharray="5,2" d="M91.64,-206.38C126.48,-235.44 203.57,-296.2 278,-331 367.48,-372.84 397.2,-363.24 492,-391 513.51,-397.3 537.68,-404.68 556.25,-410.42"/>
<polygon fill="#9a32cd" stroke="#9a32cd" points="93.62,-203.48 83.72,-199.71 89.11,-208.83 93.62,-203.48"/>
<text text-anchor="middle" x="314.5" y="-361" font-family="Helvetica,sans-Serif" font-size="10.00"> DEBUG_REPO</text>
</g>
<!-- Node8&#45;&gt;Node23 -->
<g id="edge29" class="edge">
<title>Node8&#45;&gt;Node23</title>
<path fill="none" stroke="#9a32cd" stroke-dasharray="5,2" d="M106.7,-182.95C147.39,-174.73 217.44,-161.12 278,-152 387.75,-135.48 520.41,-122.28 568.48,-117.72"/>
<polygon fill="#9a32cd" stroke="#9a32cd" points="105.87,-179.55 96.77,-184.97 107.27,-186.41 105.87,-179.55"/>
<text text-anchor="middle" x="314.5" y="-166" font-family="Helvetica,sans-Serif" font-size="10.00"> preoperSupress</text>
<text text-anchor="middle" x="314.5" y="-155" font-family="Helvetica,sans-Serif" font-size="10.00">toInline</text>
</g>
<!-- Node9 -->
<g id="node9" class="node">
<title>Node9</title>
<g id="a_node9"><a xlink:title=" ">
<polygon fill="white" stroke="#bfbfbf" points="300,-183.5 300,-202.5 329,-202.5 329,-183.5 300,-183.5"/>
<text text-anchor="middle" x="314.5" y="-190.5" font-family="Helvetica,sans-Serif" font-size="10.00">int</text>
</a>
</g>
</g>
<!-- Node9&#45;&gt;Node1 -->
<g id="edge32" class="edge">
<title>Node9&#45;&gt;Node1</title>
<path fill="none" stroke="#9a32cd" stroke-dasharray="5,2" d="M338.85,-186.06C343.25,-183.98 347.55,-181.34 351,-178 364.72,-164.72 354.57,-151.5 369,-139 527.54,-1.64 622.74,-50 832.5,-50 832.5,-50 832.5,-50 1177,-50 1199.52,-50 1225.08,-50 1243.85,-50"/>
<polygon fill="#9a32cd" stroke="#9a32cd" points="337.38,-182.87 329.33,-189.75 339.92,-189.4 337.38,-182.87"/>
<text text-anchor="middle" x="925.5" y="-53" font-family="Helvetica,sans-Serif" font-size="10.00"> UNDEF</text>
</g>
<!-- Node9&#45;&gt;Node2 -->
<g id="edge9" class="edge">
<title>Node9&#45;&gt;Node2</title>
<path fill="none" stroke="#9a32cd" stroke-dasharray="5,2" d="M335.45,-209.04C340.64,-213.43 346.13,-218.28 351,-223 359.59,-231.32 358.95,-236.52 369,-243 417.2,-274.07 452.44,-240.48 492,-282 513.57,-304.63 485.9,-330.09 510,-350 607.98,-430.94 1027.75,-402.4 1144.67,-392.69"/>
<polygon fill="#9a32cd" stroke="#9a32cd" points="337.62,-206.29 327.69,-202.61 333.15,-211.68 337.62,-206.29"/>
<text text-anchor="middle" x="833.5" y="-419" font-family="Helvetica,sans-Serif" font-size="10.00"> MASK_QUERY_PRINT</text>
<text text-anchor="middle" x="833.5" y="-408" font-family="Helvetica,sans-Serif" font-size="10.00">PRINT_STAGE</text>
</g>
<!-- Node12 -->
<g id="node12" class="node">
<title>Node12</title>
<g id="a_node12"><a xlink:href="classmachine_1_1_var.html" target="_top" xlink:title="フレーム中の変数参照オブジェクトref = (XType type, int vid)">
<polygon fill="white" stroke="black" points="993.5,-333.5 993.5,-352.5 1024.5,-352.5 1024.5,-333.5 993.5,-333.5"/>
<text text-anchor="middle" x="1009" y="-340.5" font-family="Helvetica,sans-Serif" font-size="10.00">Var</text>
</a>
</g>
</g>
<!-- Node9&#45;&gt;Node12 -->
<g id="edge30" class="edge">
<title>Node9&#45;&gt;Node12</title>
<path fill="none" stroke="#9a32cd" stroke-dasharray="5,2" d="M339.45,-194.79C377.44,-198.93 451.35,-212.56 492,-257 513.1,-280.07 485.57,-305.49 510,-325 548.61,-355.85 915.05,-345.97 993.33,-343.49"/>
<polygon fill="#9a32cd" stroke="#9a32cd" points="339.61,-191.29 329.32,-193.82 338.94,-198.25 339.61,-191.29"/>
<text text-anchor="middle" x="722.5" y="-350" font-family="Helvetica,sans-Serif" font-size="10.00"> UNDEF</text>
</g>
<!-- Node9&#45;&gt;Node14 -->
<g id="edge19" class="edge">
<title>Node9&#45;&gt;Node14</title>
<path fill="none" stroke="#9a32cd" stroke-dasharray="5,2" d="M337.8,-204.61C342.72,-208.04 347.5,-212.19 351,-217 367.89,-240.19 349.64,-257.82 369,-279 408.6,-322.31 453,-283.15 492,-327 513.06,-350.68 488.12,-373.07 510,-396 520.25,-406.74 535.21,-412.7 549.22,-416"/>
<polygon fill="#9a32cd" stroke="#9a32cd" points="339.4,-201.49 329.05,-199.23 335.73,-207.45 339.4,-201.49"/>
<text text-anchor="middle" x="430.5" y="-341" font-family="Helvetica,sans-Serif" font-size="10.00"> BITMASK_PRINT_WIDTH</text>
<text text-anchor="middle" x="430.5" y="-330" font-family="Helvetica,sans-Serif" font-size="10.00">UNDEF</text>
</g>
<!-- Node9&#45;&gt;Node23 -->
<g id="edge28" class="edge">
<title>Node9&#45;&gt;Node23</title>
<path fill="none" stroke="#9a32cd" stroke-dasharray="5,2" d="M339.44,-187.37C373.7,-179.05 438.49,-162.36 492,-143 500.23,-140.02 501.72,-137.84 510,-135 529.54,-128.31 552.62,-122.93 568.38,-119.63"/>
<polygon fill="#9a32cd" stroke="#9a32cd" points="338.35,-184.03 329.44,-189.77 339.98,-190.84 338.35,-184.03"/>
<text text-anchor="middle" x="430.5" y="-183" font-family="Helvetica,sans-Serif" font-size="10.00"> pref</text>
</g>
<!-- Node10&#45;&gt;Node2 -->
<g id="edge10" class="edge">
<title>Node10&#45;&gt;Node2</title>
<path fill="none" stroke="#9a32cd" stroke-dasharray="5,2" d="M360.45,-535.73C414.29,-535.44 507.24,-535 587,-535 587,-535 587,-535 1010,-535 1063.37,-535 1086.38,-542.61 1127,-508 1161.01,-479.03 1171.23,-422.31 1174.03,-399.67"/>
<polygon fill="#9a32cd" stroke="#9a32cd" points="360.2,-532.23 350.21,-535.79 360.23,-539.23 360.2,-532.23"/>
<text text-anchor="middle" x="833.5" y="-538" font-family="Helvetica,sans-Serif" font-size="10.00"> repo</text>
</g>
<!-- Node11 -->
<g id="node11" class="node">
<title>Node11</title>
<g id="a_node11"><a xlink:href="classutil_1_1_stack_base.html" target="_top" xlink:title=" ">
<polygon fill="white" stroke="black" points="17.5,-641.5 17.5,-660.5 125.5,-660.5 125.5,-641.5 17.5,-641.5"/>
<text text-anchor="middle" x="71.5" y="-648.5" font-family="Helvetica,sans-Serif" font-size="10.00">StackBase&lt; String &gt;</text>
</a>
</g>
</g>
<!-- Node11&#45;&gt;Node10 -->
<g id="edge12" class="edge">
<title>Node11&#45;&gt;Node10</title>
<path fill="none" stroke="#9a32cd" stroke-dasharray="5,2" d="M135.76,-654.07C174.53,-653 223.55,-646.09 260,-622 288.31,-603.29 304.34,-563.91 310.52,-545.66"/>
<polygon fill="#9a32cd" stroke="#9a32cd" points="135.57,-650.57 125.62,-654.22 135.68,-657.57 135.57,-650.57"/>
<text text-anchor="middle" x="210.5" y="-655" font-family="Helvetica,sans-Serif" font-size="10.00"> NS</text>
</g>
<!-- Node12&#45;&gt;Node2 -->
<g id="edge14" class="edge">
<title>Node12&#45;&gt;Node2</title>
<path fill="none" stroke="#9a32cd" stroke-dasharray="5,2" d="M1034.6,-337.78C1059.01,-333.77 1097.02,-330.77 1127,-343 1145.36,-350.49 1160.5,-368.76 1168.6,-380.19"/>
<polygon fill="#9a32cd" stroke="#9a32cd" points="1033.93,-334.34 1024.72,-339.57 1035.19,-341.23 1033.93,-334.34"/>
<text text-anchor="middle" x="1100" y="-368" font-family="Helvetica,sans-Serif" font-size="10.00"> VAR_FLEN</text>
<text text-anchor="middle" x="1100" y="-357" font-family="Helvetica,sans-Serif" font-size="10.00">VAR_FPAR</text>
<text text-anchor="middle" x="1100" y="-346" font-family="Helvetica,sans-Serif" font-size="10.00">VAR_FUNC</text>
</g>
<!-- Node13 -->
<g id="node13" class="node">
<title>Node13</title>
<g id="a_node13"><a xlink:href="classast_1_1_ast_node.html" target="_top" xlink:title="タグなしの順アクセスの子供をもてる抽象構文木のノードのクラス。">
<polygon fill="white" stroke="black" points="806,-236.5 806,-255.5 861,-255.5 861,-236.5 806,-236.5"/>
<text text-anchor="middle" x="833.5" y="-243.5" font-family="Helvetica,sans-Serif" font-size="10.00">AstNode</text>
</a>
</g>
</g>
<!-- Node13&#45;&gt;Node12 -->
<g id="edge15" class="edge">
<title>Node13&#45;&gt;Node12</title>
<path fill="none" stroke="midnightblue" d="M857.24,-261.2C882.48,-277.74 924.71,-304.43 963,-324 972.82,-329.02 984.27,-333.84 993.16,-337.37"/>
<polygon fill="midnightblue" stroke="midnightblue" points="859.02,-258.19 848.75,-255.6 855.17,-264.03 859.02,-258.19"/>
</g>
<!-- Node14&#45;&gt;Node13 -->
<g id="edge16" class="edge">
<title>Node14&#45;&gt;Node13</title>
<path fill="none" stroke="midnightblue" d="M602.88,-402.41C620.06,-381.61 651.09,-347.02 684,-325 714.8,-304.39 728.26,-310.37 761,-293 782.39,-281.65 805.53,-265.7 819.52,-255.61"/>
<polygon fill="midnightblue" stroke="midnightblue" points="599.97,-400.44 596.4,-410.41 605.41,-404.84 599.97,-400.44"/>
</g>
<!-- Node17 -->
<g id="node15" class="node">
<title>Node17</title>
<g id="a_node15"><a xlink:href="interfaceast_1_1_node.html" target="_top" xlink:title=" ">
<polygon fill="white" stroke="red" points="568,-144.5 568,-163.5 608,-163.5 608,-144.5 568,-144.5"/>
<text text-anchor="middle" x="588" y="-151.5" font-family="Helvetica,sans-Serif" font-size="10.00">Node</text>
</a>
</g>
</g>
<!-- Node17&#45;&gt;Node13 -->
<g id="edge21" class="edge">
<title>Node17&#45;&gt;Node13</title>
<path fill="none" stroke="midnightblue" d="M618.07,-158.27C653.12,-164.12 713.27,-176.44 761,-198 783.62,-208.22 806.97,-225.37 820.59,-236.16"/>
<polygon fill="midnightblue" stroke="midnightblue" points="618.47,-154.78 608.04,-156.65 617.36,-161.7 618.47,-154.78"/>
</g>
<!-- Node19 -->
<g id="node16" class="node">
<title>Node19</title>
<g id="a_node16"><a xlink:href="interfaceformat_1_1_x_formattable_1_1_navigatable.html" target="_top" xlink:title="木構造の分岐ノードとして清書可能なオブジェクトのクラス">
<polygon fill="white" stroke="red" points="523,-296.5 523,-315.5 653,-315.5 653,-296.5 523,-296.5"/>
<text text-anchor="middle" x="588" y="-303.5" font-family="Helvetica,sans-Serif" font-size="10.00">XFormattable.Navigatable</text>
</a>
</g>
</g>
<!-- Node19&#45;&gt;Node13 -->
<g id="edge22" class="edge">
<title>Node19&#45;&gt;Node13</title>
<path fill="none" stroke="midnightblue" d="M652.34,-294.59C685.01,-288.24 725.38,-279.67 761,-270 776.29,-265.85 793.1,-260.26 806.58,-255.52"/>
<polygon fill="midnightblue" stroke="midnightblue" points="651.62,-291.17 642.46,-296.49 652.94,-298.04 651.62,-291.17"/>
</g>
<!-- Node20 -->
<g id="node17" class="node">
<title>Node20</title>
<g id="a_node17"><a xlink:href="interfaceformat_1_1_x_formattable_1_1_typed_formattable.html" target="_top" xlink:title="ノードの型情報をもつ書式出力可能なオブジェクトのインタフェース．">
<polygon fill="white" stroke="red" points="510,-258.5 510,-277.5 666,-277.5 666,-258.5 510,-258.5"/>
<text text-anchor="middle" x="588" y="-265.5" font-family="Helvetica,sans-Serif" font-size="10.00">XFormattable.TypedFormattable</text>
</a>
</g>
</g>
<!-- Node20&#45;&gt;Node13 -->
<g id="edge23" class="edge">
<title>Node20&#45;&gt;Node13</title>
<path fill="none" stroke="midnightblue" d="M676.01,-260.14C721.88,-255.99 774.92,-251.2 805.98,-248.4"/>
<polygon fill="midnightblue" stroke="midnightblue" points="675.69,-256.65 666.04,-261.04 676.32,-263.62 675.69,-256.65"/>
</g>
<!-- Node21 -->
<g id="node18" class="node">
<title>Node21</title>
<g id="a_node18"><a xlink:title=" ">
<polygon fill="white" stroke="#bfbfbf" points="543,-220.5 543,-239.5 633,-239.5 633,-220.5 543,-220.5"/>
<text text-anchor="middle" x="588" y="-227.5" font-family="Helvetica,sans-Serif" font-size="10.00">List&lt; ast.Node &gt;</text>
</a>
</g>
</g>
<!-- Node21&#45;&gt;Node13 -->
<g id="edge24" class="edge">
<title>Node21&#45;&gt;Node13</title>
<path fill="none" stroke="#9a32cd" stroke-dasharray="5,2" d="M643.42,-230.45C677.3,-231.09 721.75,-232.58 761,-236 775.86,-237.29 792.35,-239.55 805.75,-241.59"/>
<polygon fill="#9a32cd" stroke="#9a32cd" points="643.32,-226.95 633.27,-230.28 643.2,-233.95 643.32,-226.95"/>
<text text-anchor="middle" x="722.5" y="-239" font-family="Helvetica,sans-Serif" font-size="10.00"> children</text>
</g>
<!-- Node22 -->
<g id="node19" class="node">
<title>Node22</title>
<g id="a_node19"><a xlink:title=" ">
<polygon fill="white" stroke="#bfbfbf" points="562,-182.5 562,-201.5 614,-201.5 614,-182.5 562,-182.5"/>
<text text-anchor="middle" x="588" y="-189.5" font-family="Helvetica,sans-Serif" font-size="10.00">Boolean</text>
</a>
</g>
</g>
<!-- Node22&#45;&gt;Node13 -->
<g id="edge25" class="edge">
<title>Node22&#45;&gt;Node13</title>
<path fill="none" stroke="#9a32cd" stroke-dasharray="5,2" d="M624.39,-194.64C659.53,-197.84 714.68,-204.44 761,-217 778.97,-221.87 798.51,-230 812.61,-236.42"/>
<polygon fill="#9a32cd" stroke="#9a32cd" points="624.43,-191.13 614.16,-193.75 623.83,-198.1 624.43,-191.13"/>
<text text-anchor="middle" x="722.5" y="-220" font-family="Helvetica,sans-Serif" font-size="10.00"> DEBUG_CHILD</text>
</g>
<!-- Node23&#45;&gt;Node13 -->
<g id="edge26" class="edge">
<title>Node23&#45;&gt;Node13</title>
<path fill="none" stroke="#9a32cd" stroke-dasharray="5,2" d="M617.85,-117.46C653.9,-120.47 716.27,-129.71 761,-158 793.11,-178.31 817.44,-218.01 827.47,-236.32"/>
<polygon fill="#9a32cd" stroke="#9a32cd" points="617.79,-113.95 607.56,-116.71 617.28,-120.93 617.79,-113.95"/>
<text text-anchor="middle" x="722.5" y="-161" font-family="Helvetica,sans-Serif" font-size="10.00"> sty</text>
</g>
</g>
</svg>
