<?xml version="1.0" encoding="UTF-8" standalone="no"?>
<!DOCTYPE svg PUBLIC "-//W3C//DTD SVG 1.1//EN"
 "http://www.w3.org/Graphics/SVG/1.1/DTD/svg11.dtd">
<!-- Generated by graphviz version 2.38.0 (20140413.2041)
 -->
<!-- Title: queryParser.StepContext Pages: 1 -->
<svg width="1579pt" height="518pt"
 viewBox="0.00 0.00 1578.52 518.00" xmlns="http://www.w3.org/2000/svg" xmlns:xlink="http://www.w3.org/1999/xlink">
<g id="graph0" class="graph" transform="scale(1 1) rotate(0) translate(4 514)">
<title>queryParser.StepContext</title>
<polygon fill="white" stroke="none" points="-4,4 -4,-514 1574.52,-514 1574.52,4 -4,4"/>
<!-- Node1 -->
<g id="node1" class="node"><title>Node1</title>
<g id="a_node1"><a xlink:title=" ">
<polygon fill="#bfbfbf" stroke="black" points="1051.4,-387 1051.4,-405 1179.13,-405 1179.13,-387 1051.4,-387"/>
<text text-anchor="middle" x="1115.27" y="-393" font-family="Helvetica,sans-Serif" font-size="10.00">queryParser.StepContext</text>
</a>
</g>
</g>
<!-- Node6 -->
<g id="node6" class="node"><title>Node6</title>
<g id="a_node6"><a xlink:href="classparse_1_1query_parser_1_1_step_list_context.html" target="_top" xlink:title=" ">
<polygon fill="white" stroke="black" points="1229.04,-425 1229.04,-443 1372.33,-443 1372.33,-425 1229.04,-425"/>
<text text-anchor="middle" x="1300.68" y="-431" font-family="Helvetica,sans-Serif" font-size="10.00">queryParser.StepListContext</text>
</a>
</g>
</g>
<!-- Node1&#45;&gt;Node6 -->
<g id="edge9" class="edge"><title>Node1&#45;&gt;Node6</title>
<path fill="none" stroke="#9a32cd" stroke-dasharray="5,2" d="M1169.6,-407.048C1197.12,-412.75 1230.26,-419.618 1256.21,-424.993"/>
<polygon fill="#9a32cd" stroke="#9a32cd" points="1170.24,-403.607 1159.73,-405.005 1168.82,-410.461 1170.24,-403.607"/>
<text text-anchor="middle" x="1204.08" y="-417" font-family="Helvetica,sans-Serif" font-size="10.00"> a0</text>
</g>
<!-- Node2 -->
<g id="node2" class="node"><title>Node2</title>
<g id="a_node2"><a xlink:title=" ">
<polygon fill="white" stroke="#bfbfbf" points="0,-330 0,-348 100.482,-348 100.482,-330 0,-330"/>
<text text-anchor="middle" x="50.2412" y="-336" font-family="Helvetica,sans-Serif" font-size="10.00">ParserRuleContext</text>
</a>
</g>
</g>
<!-- Node2&#45;&gt;Node1 -->
<g id="edge1" class="edge"><title>Node2&#45;&gt;Node1</title>
<path fill="none" stroke="midnightblue" d="M66.8789,-355.373C94.6037,-382.546 155.399,-434 218.243,-434 218.243,-434 218.243,-434 921.965,-434 981.52,-434 1049.51,-416.243 1086.58,-405.005"/>
<polygon fill="midnightblue" stroke="midnightblue" points="69.195,-352.739 59.6651,-348.109 64.228,-357.671 69.195,-352.739"/>
</g>
<!-- Node3 -->
<g id="node3" class="node"><title>Node3</title>
<g id="a_node3"><a xlink:href="classparse_1_1query_parser_1_1_path_context.html" target="_top" xlink:title=" ">
<polygon fill="white" stroke="black" points="308.886,-387 308.886,-405 436.619,-405 436.619,-387 308.886,-387"/>
<text text-anchor="middle" x="372.752" y="-393" font-family="Helvetica,sans-Serif" font-size="10.00">queryParser.PathContext</text>
</a>
</g>
</g>
<!-- Node2&#45;&gt;Node3 -->
<g id="edge3" class="edge"><title>Node2&#45;&gt;Node3</title>
<path fill="none" stroke="midnightblue" d="M74.6992,-353.127C87.2489,-359.999 103.225,-367.689 118.482,-372 181.6,-389.833 256.715,-395.053 308.669,-396.292"/>
<polygon fill="midnightblue" stroke="midnightblue" points="76.2638,-349.991 65.839,-348.1 72.8097,-356.079 76.2638,-349.991"/>
</g>
<!-- Node4 -->
<g id="node4" class="node"><title>Node4</title>
<g id="a_node4"><a xlink:href="classparse_1_1query_parser_1_1_ord_block_context.html" target="_top" xlink:title=" ">
<polygon fill="white" stroke="black" points="1422.23,-405 1422.23,-423 1570.52,-423 1570.52,-405 1422.23,-405"/>
<text text-anchor="middle" x="1496.37" y="-411" font-family="Helvetica,sans-Serif" font-size="10.00">queryParser.OrdBlockContext</text>
</a>
</g>
</g>
<!-- Node2&#45;&gt;Node4 -->
<g id="edge5" class="edge"><title>Node2&#45;&gt;Node4</title>
<path fill="none" stroke="midnightblue" d="M58.7278,-357.513C77.9845,-401.762 133.726,-510 218.243,-510 218.243,-510 218.243,-510 1301.68,-510 1379.37,-510 1458.06,-447.233 1485.34,-423.205"/>
<polygon fill="midnightblue" stroke="midnightblue" points="61.9102,-356.052 54.8039,-348.194 55.4587,-358.768 61.9102,-356.052"/>
</g>
<!-- Node2&#45;&gt;Node6 -->
<g id="edge8" class="edge"><title>Node2&#45;&gt;Node6</title>
<path fill="none" stroke="midnightblue" d="M61.9988,-356.737C85.4724,-392.95 145.091,-472 218.243,-472 218.243,-472 218.243,-472 1116.27,-472 1173.18,-472 1237.99,-454.243 1273.31,-443.005"/>
<polygon fill="midnightblue" stroke="midnightblue" points="64.8775,-354.74 56.5879,-348.142 58.9536,-358.469 64.8775,-354.74"/>
</g>
<!-- Node7 -->
<g id="node7" class="node"><title>Node7</title>
<g id="a_node7"><a xlink:href="classparse_1_1query_parser_1_1_ret_block_context.html" target="_top" xlink:title=" ">
<polygon fill="white" stroke="black" points="454.619,-251 454.619,-269 601.796,-269 601.796,-251 454.619,-251"/>
<text text-anchor="middle" x="528.208" y="-257" font-family="Helvetica,sans-Serif" font-size="10.00">queryParser.RetBlockContext</text>
</a>
</g>
</g>
<!-- Node2&#45;&gt;Node7 -->
<g id="edge11" class="edge"><title>Node2&#45;&gt;Node7</title>
<path fill="none" stroke="midnightblue" d="M74.7309,-324.983C87.2892,-318.141 103.264,-310.445 118.482,-306 149.884,-296.829 345.76,-277.217 454.552,-266.811"/>
<polygon fill="midnightblue" stroke="midnightblue" points="72.8558,-322.022 65.8624,-329.981 76.2926,-328.121 72.8558,-322.022"/>
</g>
<!-- Node8 -->
<g id="node8" class="node"><title>Node8</title>
<g id="a_node8"><a xlink:href="classparse_1_1query_parser_1_1_str_expr_context.html" target="_top" xlink:title=" ">
<polygon fill="white" stroke="black" points="148.992,-235 148.992,-253 289.494,-253 289.494,-235 148.992,-235"/>
<text text-anchor="middle" x="219.243" y="-241" font-family="Helvetica,sans-Serif" font-size="10.00">queryParser.StrExprContext</text>
</a>
</g>
</g>
<!-- Node2&#45;&gt;Node8 -->
<g id="edge13" class="edge"><title>Node2&#45;&gt;Node8</title>
<path fill="none" stroke="midnightblue" d="M63.2941,-321.325C75.3624,-305.006 95.4185,-281.339 118.482,-268 129.971,-261.356 143.221,-256.546 156.235,-253.066"/>
<polygon fill="midnightblue" stroke="midnightblue" points="60.4035,-319.351 57.4429,-329.523 66.1012,-323.417 60.4035,-319.351"/>
</g>
<!-- Node9 -->
<g id="node9" class="node"><title>Node9</title>
<g id="a_node9"><a xlink:href="classparse_1_1query_parser_1_1_where_block_context.html" target="_top" xlink:title=" ">
<polygon fill="white" stroke="black" points="840.431,-341 840.431,-359 1001.5,-359 1001.5,-341 840.431,-341"/>
<text text-anchor="middle" x="920.965" y="-347" font-family="Helvetica,sans-Serif" font-size="10.00">queryParser.WhereBlockContext</text>
</a>
</g>
</g>
<!-- Node2&#45;&gt;Node9 -->
<g id="edge16" class="edge"><title>Node2&#45;&gt;Node9</title>
<path fill="none" stroke="midnightblue" d="M110.832,-343.643C113.416,-343.777 115.975,-343.898 118.482,-344 382.647,-354.798 696.183,-352.873 840.291,-351.162"/>
<polygon fill="midnightblue" stroke="midnightblue" points="110.979,-340.145 100.794,-343.061 110.574,-347.134 110.979,-340.145"/>
</g>
<!-- Node10 -->
<g id="node10" class="node"><title>Node10</title>
<g id="a_node10"><a xlink:href="classparse_1_1query_parser_1_1_or_expr_context.html" target="_top" xlink:title=" ">
<polygon fill="white" stroke="black" points="651.697,-193 651.697,-211 790.529,-211 790.529,-193 651.697,-193"/>
<text text-anchor="middle" x="721.113" y="-199" font-family="Helvetica,sans-Serif" font-size="10.00">queryParser.OrExprContext</text>
</a>
</g>
</g>
<!-- Node2&#45;&gt;Node10 -->
<g id="edge18" class="edge"><title>Node2&#45;&gt;Node10</title>
<path fill="none" stroke="midnightblue" d="M111.002,-341.159C214.253,-342.99 431.353,-338.419 601.796,-278 645.747,-262.42 689.977,-227.783 709.604,-211.198"/>
<polygon fill="midnightblue" stroke="midnightblue" points="110.843,-337.655 100.773,-340.95 110.699,-344.654 110.843,-337.655"/>
</g>
<!-- Node11 -->
<g id="node11" class="node"><title>Node11</title>
<g id="a_node11"><a xlink:href="classparse_1_1query_parser_1_1_and_expr_context.html" target="_top" xlink:title=" ">
<polygon fill="white" stroke="black" points="455.449,-170 455.449,-188 600.966,-188 600.966,-170 455.449,-170"/>
<text text-anchor="middle" x="528.208" y="-176" font-family="Helvetica,sans-Serif" font-size="10.00">queryParser.AndExprContext</text>
</a>
</g>
</g>
<!-- Node2&#45;&gt;Node11 -->
<g id="edge21" class="edge"><title>Node2&#45;&gt;Node11</title>
<path fill="none" stroke="midnightblue" d="M60.5857,-321.032C75.239,-294.902 106.274,-247.126 147.601,-225 261.672,-163.928 308.169,-205.576 436.619,-190 442.596,-189.275 448.794,-188.523 455.016,-187.768"/>
<polygon fill="midnightblue" stroke="midnightblue" points="57.4736,-319.429 55.7844,-329.889 63.6274,-322.766 57.4736,-319.429"/>
</g>
<!-- Node12 -->
<g id="node12" class="node"><title>Node12</title>
<g id="a_node12"><a xlink:href="classparse_1_1query_parser_1_1_not_expr_context.html" target="_top" xlink:title=" ">
<polygon fill="white" stroke="red" points="147.601,-159 147.601,-177 290.886,-177 290.886,-159 147.601,-159"/>
<text text-anchor="middle" x="219.243" y="-165" font-family="Helvetica,sans-Serif" font-size="10.00">queryParser.NotExprContext</text>
</a>
</g>
</g>
<!-- Node2&#45;&gt;Node12 -->
<g id="edge23" class="edge"><title>Node2&#45;&gt;Node12</title>
<path fill="none" stroke="midnightblue" d="M55.242,-319.915C62.534,-289.837 80.8384,-231.498 118.482,-199 130.563,-188.571 146.127,-181.648 161.351,-177.054"/>
<polygon fill="midnightblue" stroke="midnightblue" points="51.7656,-319.419 52.9691,-329.945 58.5925,-320.966 51.7656,-319.419"/>
</g>
<!-- Node3&#45;&gt;Node1 -->
<g id="edge2" class="edge"><title>Node3&#45;&gt;Node1</title>
<path fill="none" stroke="#9a32cd" stroke-dasharray="5,2" d="M446.796,-396C497.102,-396 565.478,-396 625.747,-396 625.747,-396 625.747,-396 921.965,-396 965.033,-396 1013.53,-396 1051.04,-396"/>
<polygon fill="#9a32cd" stroke="#9a32cd" points="446.665,-392.5 436.665,-396 446.665,-399.5 446.665,-392.5"/>
<text text-anchor="middle" x="721.113" y="-398" font-family="Helvetica,sans-Serif" font-size="10.00"> a0</text>
</g>
<!-- Node4&#45;&gt;Node1 -->
<g id="edge4" class="edge"><title>Node4&#45;&gt;Node1</title>
<path fill="none" stroke="#9a32cd" stroke-dasharray="5,2" d="M1412.11,-407.48C1398.81,-406.563 1385.2,-405.696 1372.33,-405 1306.48,-401.436 1231.03,-398.981 1179.17,-397.547"/>
<polygon fill="#9a32cd" stroke="#9a32cd" points="1411.99,-410.98 1422.21,-408.19 1412.48,-403.997 1411.99,-410.98"/>
<text text-anchor="middle" x="1300.68" y="-407" font-family="Helvetica,sans-Serif" font-size="10.00"> a5</text>
</g>
<!-- Node5 -->
<g id="node5" class="node"><title>Node5</title>
<g id="a_node5"><a xlink:title=" ">
<polygon fill="white" stroke="#bfbfbf" points="28.8989,-75 28.8989,-93 71.5835,-93 71.5835,-75 28.8989,-75"/>
<text text-anchor="middle" x="50.2412" y="-81" font-family="Helvetica,sans-Serif" font-size="10.00">Token</text>
</a>
</g>
</g>
<!-- Node5&#45;&gt;Node4 -->
<g id="edge6" class="edge"><title>Node5&#45;&gt;Node4</title>
<path fill="none" stroke="#9a32cd" stroke-dasharray="5,2" d="M68.91,-68.1061C97.8813,-43.7546 158.28,-0 218.243,-0 218.243,-0 218.243,-0 1301.68,-0 1486.97,-0 1495.39,-344.425 1495.44,-404.968"/>
<polygon fill="#9a32cd" stroke="#9a32cd" points="66.5647,-65.5069 61.2799,-74.6896 71.1376,-70.8068 66.5647,-65.5069"/>
<text text-anchor="middle" x="815.48" y="-2" font-family="Helvetica,sans-Serif" font-size="10.00"> t0</text>
</g>
<!-- Node5&#45;&gt;Node7 -->
<g id="edge14" class="edge"><title>Node5&#45;&gt;Node7</title>
<path fill="none" stroke="#9a32cd" stroke-dasharray="5,2" d="M81.5582,-89.2057C167.31,-104.124 407.29,-147.284 436.619,-168 449.01,-176.752 444.78,-185.454 454.619,-197 473.126,-218.718 499.297,-239.532 514.635,-250.959"/>
<polygon fill="#9a32cd" stroke="#9a32cd" points="82.1106,-85.7493 71.6597,-87.4901 80.9151,-92.6465 82.1106,-85.7493"/>
<text text-anchor="middle" x="219.243" y="-131" font-family="Helvetica,sans-Serif" font-size="10.00"> t0</text>
</g>
<!-- Node5&#45;&gt;Node10 -->
<g id="edge19" class="edge"><title>Node5&#45;&gt;Node10</title>
<path fill="none" stroke="#9a32cd" stroke-dasharray="5,2" d="M81.7041,-78.0735C147.445,-66.3621 307.146,-43.7295 436.619,-72 547.179,-96.1408 666.17,-167.512 706.135,-192.904"/>
<polygon fill="#9a32cd" stroke="#9a32cd" points="80.8272,-74.6757 71.6198,-79.9172 82.0862,-81.5616 80.8272,-74.6757"/>
<text text-anchor="middle" x="372.752" y="-74" font-family="Helvetica,sans-Serif" font-size="10.00"> t0</text>
</g>
<!-- Node5&#45;&gt;Node11 -->
<g id="edge25" class="edge"><title>Node5&#45;&gt;Node11</title>
<path fill="none" stroke="#9a32cd" stroke-dasharray="5,2" d="M82.0434,-80.9092C149.081,-75.3728 312.176,-68.4078 436.619,-116 469.542,-128.591 501.936,-155.628 517.554,-169.841"/>
<polygon fill="#9a32cd" stroke="#9a32cd" points="81.4196,-77.4504 71.7638,-81.8109 82.0314,-84.4236 81.4196,-77.4504"/>
<text text-anchor="middle" x="219.243" y="-85" font-family="Helvetica,sans-Serif" font-size="10.00"> t0</text>
</g>
<!-- Node5&#45;&gt;Node12 -->
<g id="edge24" class="edge"><title>Node5&#45;&gt;Node12</title>
<path fill="none" stroke="#9a32cd" stroke-dasharray="5,2" d="M67.9756,-100.515C80.8439,-112.407 99.5701,-128.049 118.482,-138 136.088,-147.264 156.983,-154.105 175.09,-158.896"/>
<polygon fill="#9a32cd" stroke="#9a32cd" points="70.0825,-97.6885 60.4221,-93.338 65.261,-102.763 70.0825,-97.6885"/>
<text text-anchor="middle" x="124.042" y="-145" font-family="Helvetica,sans-Serif" font-size="10.00"> t0</text>
</g>
<!-- Node6&#45;&gt;Node4 -->
<g id="edge7" class="edge"><title>Node6&#45;&gt;Node4</title>
<path fill="none" stroke="#9a32cd" stroke-dasharray="5,2" d="M1382.42,-425.663C1395.62,-424.301 1409.22,-422.896 1422.22,-421.554"/>
<polygon fill="#9a32cd" stroke="#9a32cd" points="1382.02,-422.186 1372.43,-426.695 1382.74,-429.149 1382.02,-422.186"/>
<text text-anchor="middle" x="1397.28" y="-427" font-family="Helvetica,sans-Serif" font-size="10.00"> a0</text>
</g>
<!-- Node7&#45;&gt;Node1 -->
<g id="edge10" class="edge"><title>Node7&#45;&gt;Node1</title>
<path fill="none" stroke="#9a32cd" stroke-dasharray="5,2" d="M612.26,-263.154C708.381,-268.911 870.272,-285.162 1001.5,-331 1040.97,-344.786 1082.28,-372.592 1102.16,-386.955"/>
<polygon fill="#9a32cd" stroke="#9a32cd" points="612.204,-259.645 602.02,-262.566 611.803,-266.634 612.204,-259.645"/>
<text text-anchor="middle" x="815.48" y="-289" font-family="Helvetica,sans-Serif" font-size="10.00"> a6</text>
</g>
<!-- Node8&#45;&gt;Node7 -->
<g id="edge12" class="edge"><title>Node8&#45;&gt;Node7</title>
<path fill="none" stroke="#9a32cd" stroke-dasharray="5,2" d="M299.519,-248.132C347.348,-250.625 407.839,-253.778 454.448,-256.208"/>
<polygon fill="#9a32cd" stroke="#9a32cd" points="299.683,-244.636 289.515,-247.611 299.319,-251.627 299.683,-244.636"/>
<text text-anchor="middle" x="372.752" y="-258" font-family="Helvetica,sans-Serif" font-size="10.00"> a0</text>
</g>
<!-- Node9&#45;&gt;Node1 -->
<g id="edge15" class="edge"><title>Node9&#45;&gt;Node1</title>
<path fill="none" stroke="#9a32cd" stroke-dasharray="5,2" d="M982.987,-360.977C999.422,-364.225 1017.15,-367.993 1033.4,-372 1051.03,-376.347 1070.56,-382.113 1086,-386.905"/>
<polygon fill="#9a32cd" stroke="#9a32cd" points="983.429,-357.498 972.945,-359.025 982.093,-364.369 983.429,-357.498"/>
<text text-anchor="middle" x="1026.45" y="-374" font-family="Helvetica,sans-Serif" font-size="10.00"> a3</text>
</g>
<!-- Node10&#45;&gt;Node9 -->
<g id="edge17" class="edge"><title>Node10&#45;&gt;Node9</title>
<path fill="none" stroke="#9a32cd" stroke-dasharray="5,2" d="M762.474,-214.388C781.639,-221.364 804.266,-231.258 822.431,-244 863.171,-272.58 899.509,-320.779 913.671,-340.826"/>
<polygon fill="#9a32cd" stroke="#9a32cd" points="763.405,-211.005 752.81,-211.006 761.093,-217.613 763.405,-211.005"/>
<text text-anchor="middle" x="815.48" y="-246" font-family="Helvetica,sans-Serif" font-size="10.00"> a0</text>
</g>
<!-- Node11&#45;&gt;Node10 -->
<g id="edge20" class="edge"><title>Node11&#45;&gt;Node10</title>
<path fill="none" stroke="#9a32cd" stroke-dasharray="5,2" d="M611.262,-188.886C624.655,-190.499 638.407,-192.156 651.434,-193.726"/>
<polygon fill="#9a32cd" stroke="#9a32cd" points="611.456,-185.384 601.109,-187.663 610.618,-192.334 611.456,-185.384"/>
<text text-anchor="middle" x="626.747" y="-194" font-family="Helvetica,sans-Serif" font-size="10.00"> a0</text>
</g>
<!-- Node12&#45;&gt;Node11 -->
<g id="edge22" class="edge"><title>Node12&#45;&gt;Node11</title>
<path fill="none" stroke="#9a32cd" stroke-dasharray="5,2" d="M301.081,-170.897C348.997,-172.614 409.191,-174.771 455.425,-176.428"/>
<polygon fill="#9a32cd" stroke="#9a32cd" points="301.171,-167.398 291.052,-170.537 300.921,-174.393 301.171,-167.398"/>
<text text-anchor="middle" x="372.752" y="-178" font-family="Helvetica,sans-Serif" font-size="10.00"> a0</text>
</g>
</g>
</svg>
