<?xml version="1.0" encoding="UTF-8" standalone="no"?>
<!DOCTYPE svg PUBLIC "-//W3C//DTD SVG 1.1//EN"
 "http://www.w3.org/Graphics/SVG/1.1/DTD/svg11.dtd">
<!-- Generated by graphviz version 2.47.0 (20210316.0004)
 -->
<!-- Title: ty Pages: 1 -->
<svg width="1010pt" height="739pt"
 viewBox="0.00 0.00 1010.00 739.00" xmlns="http://www.w3.org/2000/svg" xmlns:xlink="http://www.w3.org/1999/xlink">
<g id="graph0" class="graph" transform="scale(1 1) rotate(0) translate(4 735)">
<title>ty</title>
<polygon fill="white" stroke="transparent" points="-4,4 -4,-735 1006,-735 1006,4 -4,4"/>
<!-- Node1 -->
<g id="node1" class="node">
<title>Node1</title>
<g id="a_node1"><a xlink:title="この型変数thisがもつ値型を返す。">
<polygon fill="#bfbfbf" stroke="black" points="973,-219.5 973,-238.5 1002,-238.5 1002,-219.5 973,-219.5"/>
<text text-anchor="middle" x="987.5" y="-226.5" font-family="Helvetica,sans-Serif" font-size="10.00">ty</text>
</a>
</g>
</g>
<!-- Node2 -->
<g id="node2" class="node">
<title>Node2</title>
<g id="a_node2"><a xlink:href="classast_1_1_block_base_1_1_ret_list.html#adc55e2a1393e1ab76828f66894e0ac51" target="_top" xlink:title="リターン節を加えて、保持する全てのリターン型の返り型の最小上界を更新する。新しい返り型が単一化可能でなければエラーを返す。">
<polygon fill="white" stroke="black" points="598.5,-518 598.5,-548 732.5,-548 732.5,-518 598.5,-518"/>
<text text-anchor="start" x="606.5" y="-536" font-family="Helvetica,sans-Serif" font-size="10.00">ast.BlockBase.RetList.add</text>
<text text-anchor="middle" x="665.5" y="-525" font-family="Helvetica,sans-Serif" font-size="10.00">Return</text>
</a>
</g>
</g>
<!-- Node1&#45;&gt;Node2 -->
<g id="edge1" class="edge">
<title>Node1&#45;&gt;Node2</title>
<path fill="none" stroke="midnightblue" d="M986.04,-248.85C984.25,-307.11 975.75,-475.69 937,-511 882.33,-560.83 792.98,-557.81 732.04,-548.03"/>
<polygon fill="midnightblue" stroke="midnightblue" points="989.54,-248.84 986.32,-238.75 982.54,-248.65 989.54,-248.84"/>
</g>
<!-- Node3 -->
<g id="node3" class="node">
<title>Node3</title>
<g id="a_node3"><a xlink:href="classtype_1_1_basic_typing.html#a3137357d0abb2bd75321d6e19024956a" target="_top" xlink:title="演算子型の文字列表現を返す。">
<polygon fill="white" stroke="black" points="804.5,-200.5 804.5,-219.5 917.5,-219.5 917.5,-200.5 804.5,-200.5"/>
<text text-anchor="middle" x="861" y="-207.5" font-family="Helvetica,sans-Serif" font-size="10.00">type.BasicTyping.data</text>
</a>
</g>
</g>
<!-- Node1&#45;&gt;Node3 -->
<g id="edge2" class="edge">
<title>Node1&#45;&gt;Node3</title>
<path fill="none" stroke="midnightblue" d="M962.47,-225.33C949.68,-223.38 933.38,-220.89 917.66,-218.49"/>
<polygon fill="midnightblue" stroke="midnightblue" points="962.29,-228.85 972.7,-226.89 963.34,-221.93 962.29,-228.85"/>
</g>
<!-- Node5 -->
<g id="node5" class="node">
<title>Node5</title>
<g id="a_node5"><a xlink:href="classtype_1_1_x_typing.html#a3137357d0abb2bd75321d6e19024956a" target="_top" xlink:title="演算子型の文字列表現を返す。">
<polygon fill="white" stroke="black" points="813.5,-162.5 813.5,-181.5 908.5,-181.5 908.5,-162.5 813.5,-162.5"/>
<text text-anchor="middle" x="861" y="-169.5" font-family="Helvetica,sans-Serif" font-size="10.00">type.XTyping.data</text>
</a>
</g>
</g>
<!-- Node1&#45;&gt;Node5 -->
<g id="edge5" class="edge">
<title>Node1&#45;&gt;Node5</title>
<path fill="none" stroke="midnightblue" d="M968.59,-212.39C959.67,-204.9 948.38,-196.52 937,-191 928.18,-186.72 918.29,-183.34 908.66,-180.69"/>
<polygon fill="midnightblue" stroke="midnightblue" points="966.51,-215.22 976.34,-219.18 971.12,-209.96 966.51,-215.22"/>
</g>
<!-- Node7 -->
<g id="node7" class="node">
<title>Node7</title>
<g id="a_node7"><a xlink:href="classast_1_1_block_base_1_1_ret_list.html#a5e986028a0761fd19362bc5aff252abb" target="_top" xlink:title="保持する全てのリターン節の返り型の最小上界を返す。">
<polygon fill="white" stroke="black" points="785,-124.5 785,-143.5 937,-143.5 937,-124.5 785,-124.5"/>
<text text-anchor="middle" x="861" y="-131.5" font-family="Helvetica,sans-Serif" font-size="10.00">ast.BlockBase.RetList.getType</text>
</a>
</g>
</g>
<!-- Node1&#45;&gt;Node7 -->
<g id="edge7" class="edge">
<title>Node1&#45;&gt;Node7</title>
<path fill="none" stroke="midnightblue" d="M979.06,-210.2C971.2,-192.76 957.13,-167.39 937,-153 931.54,-149.09 925.35,-145.99 918.92,-143.52"/>
<polygon fill="midnightblue" stroke="midnightblue" points="975.84,-211.57 982.97,-219.41 982.29,-208.83 975.84,-211.57"/>
</g>
<!-- Node8 -->
<g id="node8" class="node">
<title>Node8</title>
<g id="a_node8"><a xlink:href="classtype_1_1_x_type_item.html#a8f3ab9d29a49a3c79ee1d258d2d0b613" target="_top" xlink:title="この型変数thisの値型を指定された上限の値型に制約する（上限で置き換える）。成功すればtrueを返し、そうでなければfalseを返す。">
<polygon fill="white" stroke="black" points="651,-37.5 651,-56.5 680,-56.5 680,-37.5 651,-37.5"/>
<text text-anchor="middle" x="665.5" y="-44.5" font-family="Helvetica,sans-Serif" font-size="10.00">lift</text>
</a>
</g>
</g>
<!-- Node1&#45;&gt;Node8 -->
<g id="edge8" class="edge">
<title>Node1&#45;&gt;Node8</title>
<path fill="none" stroke="midnightblue" d="M983.39,-209.4C978.3,-183.86 965.7,-139.57 937,-115 916.82,-97.72 732.38,-60.08 680.2,-49.7"/>
<polygon fill="midnightblue" stroke="midnightblue" points="979.97,-210.16 985.19,-219.38 986.86,-208.92 979.97,-210.16"/>
</g>
<!-- Node9 -->
<g id="node9" class="node">
<title>Node9</title>
<g id="a_node9"><a xlink:href="classtype_1_1_x_type_item.html#a14d03fd612a033d16306576e10febe7a" target="_top" xlink:title="この型変数thisの値型が指定された値型に制約可能ならばtrueを返し、そうでなければfalseを返す。">
<polygon fill="white" stroke="black" points="838.5,-39.5 838.5,-58.5 883.5,-58.5 883.5,-39.5 838.5,-39.5"/>
<text text-anchor="middle" x="861" y="-46.5" font-family="Helvetica,sans-Serif" font-size="10.00">liftable</text>
</a>
</g>
</g>
<!-- Node1&#45;&gt;Node9 -->
<g id="edge9" class="edge">
<title>Node1&#45;&gt;Node9</title>
<path fill="none" stroke="midnightblue" d="M985.18,-208.99C982.05,-177.41 971.63,-115.84 937,-79 922.88,-63.98 900.25,-56.32 883.53,-52.52"/>
<polygon fill="midnightblue" stroke="midnightblue" points="981.71,-209.49 986.03,-219.16 988.68,-208.91 981.71,-209.49"/>
</g>
<!-- Node10 -->
<g id="node10" class="node">
<title>Node10</title>
<g id="a_node10"><a xlink:href="classast_1_1_ast_node.html#aac66012db63fd274931e6690afa76212" target="_top" xlink:title="ノードのもつ値型を返す。">
<polygon fill="white" stroke="black" points="619,-365.5 619,-384.5 712,-384.5 712,-365.5 619,-365.5"/>
<text text-anchor="middle" x="665.5" y="-372.5" font-family="Helvetica,sans-Serif" font-size="10.00">ast.AstNode.type</text>
</a>
</g>
</g>
<!-- Node1&#45;&gt;Node10 -->
<g id="edge11" class="edge">
<title>Node1&#45;&gt;Node10</title>
<path fill="none" stroke="midnightblue" d="M968.31,-245.42C959.33,-252.97 948.07,-261.63 937,-268 856.23,-314.46 751.38,-349.53 699.11,-365.49"/>
<polygon fill="midnightblue" stroke="midnightblue" points="970.87,-247.83 976.14,-238.64 966.29,-242.54 970.87,-247.83"/>
</g>
<!-- Node27 -->
<g id="node26" class="node">
<title>Node27</title>
<g id="a_node26"><a xlink:href="classmachine_1_1_ref.html#aac66012db63fd274931e6690afa76212" target="_top" xlink:title="データ型を返す.">
<polygon fill="white" stroke="black" points="814,-239.5 814,-258.5 908,-258.5 908,-239.5 814,-239.5"/>
<text text-anchor="middle" x="861" y="-246.5" font-family="Helvetica,sans-Serif" font-size="10.00">machine.Ref.type</text>
</a>
</g>
</g>
<!-- Node1&#45;&gt;Node27 -->
<g id="edge28" class="edge">
<title>Node1&#45;&gt;Node27</title>
<path fill="none" stroke="midnightblue" d="M962.51,-232.85C947.15,-235.32 926.7,-238.61 908.26,-241.57"/>
<polygon fill="midnightblue" stroke="midnightblue" points="963.38,-236.26 972.7,-231.22 962.27,-229.35 963.38,-236.26"/>
</g>
<!-- Node43 -->
<g id="node42" class="node">
<title>Node43</title>
<g id="a_node42"><a xlink:href="classtype_1_1_x_type_item.html#a873823a56369ff4fac9157d8e6f7ec61" target="_top" xlink:title="この型変数thisと指定された型変数が単一化可能ならばtrueを返し、そうでなければfalseを返す。">
<polygon fill="white" stroke="black" points="834.5,-482.5 834.5,-501.5 887.5,-501.5 887.5,-482.5 834.5,-482.5"/>
<text text-anchor="middle" x="861" y="-489.5" font-family="Helvetica,sans-Serif" font-size="10.00">unifiable</text>
</a>
</g>
</g>
<!-- Node1&#45;&gt;Node43 -->
<g id="edge48" class="edge">
<title>Node1&#45;&gt;Node43</title>
<path fill="none" stroke="midnightblue" d="M985.04,-248.64C980.81,-300.17 966.92,-437.5 937,-470 924.5,-483.58 904.12,-488.94 887.75,-490.98"/>
<polygon fill="midnightblue" stroke="midnightblue" points="988.54,-248.75 985.83,-238.5 981.56,-248.2 988.54,-248.75"/>
</g>
<!-- Node44 -->
<g id="node43" class="node">
<title>Node44</title>
<g id="a_node43"><a xlink:href="classtype_1_1_x_type_item.html#a3057d3707a7f0e95cbc88e49f41e8a4c" target="_top" xlink:title="この型変数thisと指定された型変数を単一化する（同じ同値類にする）。成功すればtrueを返し、そうでなければfalseを返す。">
<polygon fill="white" stroke="black" points="842,-441.5 842,-460.5 880,-460.5 880,-441.5 842,-441.5"/>
<text text-anchor="middle" x="861" y="-448.5" font-family="Helvetica,sans-Serif" font-size="10.00">unify</text>
</a>
</g>
</g>
<!-- Node1&#45;&gt;Node44 -->
<g id="edge50" class="edge">
<title>Node1&#45;&gt;Node44</title>
<path fill="none" stroke="midnightblue" d="M979.77,-248.13C971.18,-271.62 955.25,-312.35 937,-345 916,-382.59 884.59,-423.09 869.99,-441.24"/>
<polygon fill="midnightblue" stroke="midnightblue" points="983.09,-249.24 983.18,-238.64 976.5,-246.87 983.09,-249.24"/>
</g>
<!-- Node4 -->
<g id="node4" class="node">
<title>Node4</title>
<g id="a_node4"><a xlink:href="classtype_1_1_basic_typing.html#ad146fa8579a5f8a876c4688cc5a68520" target="_top" xlink:title="演算子型の文字列表現を返す。">
<polygon fill="white" stroke="black" points="601.5,-113.5 601.5,-132.5 729.5,-132.5 729.5,-113.5 601.5,-113.5"/>
<text text-anchor="middle" x="665.5" y="-120.5" font-family="Helvetica,sans-Serif" font-size="10.00">type.BasicTyping.toString</text>
</a>
</g>
</g>
<!-- Node3&#45;&gt;Node4 -->
<g id="edge3" class="edge">
<title>Node3&#45;&gt;Node4</title>
<path fill="none" stroke="midnightblue" d="M825.99,-198.13C812.37,-194.78 797.07,-190.13 785,-182 762.58,-166.91 771.58,-147.85 749,-133 743.11,-129.12 736.52,-126.03 729.71,-123.63"/>
<polygon fill="midnightblue" stroke="midnightblue" points="825.47,-201.6 836,-200.46 827.06,-194.78 825.47,-201.6"/>
</g>
<!-- Node4&#45;&gt;Node3 -->
<g id="edge4" class="edge">
<title>Node4&#45;&gt;Node3</title>
<path fill="none" stroke="midnightblue" d="M705.37,-134.58C719.97,-137.82 736.13,-142.53 749,-151 771.58,-165.85 762.58,-184.91 785,-200 790.91,-203.98 797.58,-207.12 804.45,-209.53"/>
<polygon fill="midnightblue" stroke="midnightblue" points="706.07,-131.15 695.57,-132.54 704.65,-138 706.07,-131.15"/>
</g>
<!-- Node6 -->
<g id="node6" class="node">
<title>Node6</title>
<g id="a_node6"><a xlink:href="classtype_1_1_x_typing.html#ad146fa8579a5f8a876c4688cc5a68520" target="_top" xlink:title="演算子型の文字列表現を返す。">
<polygon fill="white" stroke="black" points="610.5,-75.5 610.5,-94.5 720.5,-94.5 720.5,-75.5 610.5,-75.5"/>
<text text-anchor="middle" x="665.5" y="-82.5" font-family="Helvetica,sans-Serif" font-size="10.00">type.XTyping.toString</text>
</a>
</g>
</g>
<!-- Node5&#45;&gt;Node6 -->
<g id="edge6" class="edge">
<title>Node5&#45;&gt;Node6</title>
<path fill="none" stroke="midnightblue" d="M803.7,-162.33C797.09,-159.89 790.69,-156.83 785,-153 762.58,-137.91 771.58,-118.85 749,-104 740.53,-98.43 730.63,-94.48 720.69,-91.68"/>
<polygon fill="midnightblue" stroke="midnightblue" points="802.87,-165.74 813.46,-165.49 805.02,-159.08 802.87,-165.74"/>
</g>
<!-- Node9&#45;&gt;Node8 -->
<g id="edge10" class="edge">
<title>Node9&#45;&gt;Node8</title>
<path fill="none" stroke="midnightblue" d="M828.01,-48.67C785.17,-48.23 711.01,-47.46 680.37,-47.14"/>
<polygon fill="midnightblue" stroke="midnightblue" points="828.14,-52.17 838.18,-48.77 828.22,-45.17 828.14,-52.17"/>
</g>
<!-- Node11 -->
<g id="node11" class="node">
<title>Node11</title>
<g id="a_node11"><a xlink:href="classast_1_1_ast_assign.html#ae1ba45bad2d2854e7378d5322c0c2c57" target="_top" xlink:title="コードを生成する．">
<polygon fill="white" stroke="black" points="409.5,-308.5 409.5,-327.5 527.5,-327.5 527.5,-308.5 409.5,-308.5"/>
<text text-anchor="middle" x="468.5" y="-315.5" font-family="Helvetica,sans-Serif" font-size="10.00">ast.AstAssign.gencode</text>
</a>
</g>
</g>
<!-- Node10&#45;&gt;Node11 -->
<g id="edge12" class="edge">
<title>Node10&#45;&gt;Node11</title>
<path fill="none" stroke="midnightblue" d="M619.05,-362.55C606.94,-359.03 593.92,-355.04 582,-351 565.74,-345.49 562.36,-342.19 546,-337 535.17,-333.57 523.33,-330.36 512.26,-327.6"/>
<polygon fill="midnightblue" stroke="midnightblue" points="618.38,-366 628.96,-365.4 620.31,-359.27 618.38,-366"/>
</g>
<!-- Node12 -->
<g id="node12" class="node">
<title>Node12</title>
<g id="a_node12"><a xlink:href="classast_1_1_ast_oper.html#a32bccadf4b650391376fe92303e9b41c" target="_top" xlink:title="二つの非演算子である子供のコードを生成す">
<polygon fill="white" stroke="black" points="391,-559.5 391,-578.5 546,-578.5 546,-559.5 391,-559.5"/>
<text text-anchor="middle" x="468.5" y="-566.5" font-family="Helvetica,sans-Serif" font-size="10.00">ast.AstOper.generateChildCode</text>
</a>
</g>
</g>
<!-- Node10&#45;&gt;Node12 -->
<g id="edge13" class="edge">
<title>Node10&#45;&gt;Node12</title>
<path fill="none" stroke="midnightblue" d="M608.76,-381.63C599.28,-384.45 589.94,-388.42 582,-394 519.37,-438.05 483.32,-529.15 472.78,-559.17"/>
<polygon fill="midnightblue" stroke="midnightblue" points="609.82,-384.97 618.64,-379.1 608.09,-378.19 609.82,-384.97"/>
</g>
<!-- Node21 -->
<g id="node21" class="node">
<title>Node21</title>
<g id="a_node21"><a xlink:href="classcompile_1_1_x_c_adapt.html#aa83094ca51b30625f57724d7ab4ab432" target="_top" xlink:title="文脈ステップparStepのもとで与えられたクエリを変換したクエリを返す．">
<polygon fill="white" stroke="black" points="401,-384.5 401,-403.5 536,-403.5 536,-384.5 401,-384.5"/>
<text text-anchor="middle" x="468.5" y="-391.5" font-family="Helvetica,sans-Serif" font-size="10.00">compile.XCAdapt.recAdapt</text>
</a>
</g>
</g>
<!-- Node10&#45;&gt;Node21 -->
<g id="edge22" class="edge">
<title>Node10&#45;&gt;Node21</title>
<path fill="none" stroke="midnightblue" d="M608.7,-380.44C586.15,-382.63 559.93,-385.19 536.36,-387.49"/>
<polygon fill="midnightblue" stroke="midnightblue" points="609.17,-383.91 618.78,-379.45 608.49,-376.94 609.17,-383.91"/>
</g>
<!-- Node25 -->
<g id="node24" class="node">
<title>Node25</title>
<g id="a_node24"><a xlink:href="classcompile_1_1_x_c_push.html#a2e0014478d7dd7a061888b3ab04e1df4" target="_top" xlink:title="文脈ステップparStepのもとで与えられたクエリを変換したクエリを返す．">
<polygon fill="white" stroke="black" points="404,-346.5 404,-365.5 533,-365.5 533,-346.5 404,-346.5"/>
<text text-anchor="middle" x="468.5" y="-353.5" font-family="Helvetica,sans-Serif" font-size="10.00">compile.XCPush.recPush</text>
</a>
</g>
</g>
<!-- Node10&#45;&gt;Node25 -->
<g id="edge25" class="edge">
<title>Node10&#45;&gt;Node25</title>
<path fill="none" stroke="midnightblue" d="M608.59,-369.55C584.99,-367.25 557.38,-364.56 533.02,-362.19"/>
<polygon fill="midnightblue" stroke="midnightblue" points="608.49,-373.06 618.78,-370.55 609.17,-366.09 608.49,-373.06"/>
</g>
<!-- Node13 -->
<g id="node13" class="node">
<title>Node13</title>
<g id="a_node13"><a xlink:href="classast_1_1_ast_math_oper_1_1_integer_oper.html#ae1ba45bad2d2854e7378d5322c0c2c57" target="_top" xlink:title="コードを生成する．">
<polygon fill="white" stroke="black" points="171.5,-711.5 171.5,-730.5 354.5,-730.5 354.5,-711.5 171.5,-711.5"/>
<text text-anchor="middle" x="263" y="-718.5" font-family="Helvetica,sans-Serif" font-size="10.00">ast.AstMathOper.IntegerOper.gencode</text>
</a>
</g>
</g>
<!-- Node12&#45;&gt;Node13 -->
<g id="edge14" class="edge">
<title>Node12&#45;&gt;Node13</title>
<path fill="none" stroke="midnightblue" d="M457.45,-587.37C440.44,-616.61 403.09,-673.35 355,-702 348.48,-705.88 341.29,-708.98 333.89,-711.45"/>
<polygon fill="midnightblue" stroke="midnightblue" points="460.54,-589.02 462.43,-578.59 454.45,-585.57 460.54,-589.02"/>
</g>
<!-- Node14 -->
<g id="node14" class="node">
<title>Node14</title>
<g id="a_node14"><a xlink:href="classast_1_1_ast_math_oper_1_1_integer_rel.html#ae1ba45bad2d2854e7378d5322c0c2c57" target="_top" xlink:title="コードを生成する．">
<polygon fill="white" stroke="black" points="174,-673.5 174,-692.5 352,-692.5 352,-673.5 174,-673.5"/>
<text text-anchor="middle" x="263" y="-680.5" font-family="Helvetica,sans-Serif" font-size="10.00">ast.AstMathOper.IntegerRel.gencode</text>
</a>
</g>
</g>
<!-- Node12&#45;&gt;Node14 -->
<g id="edge15" class="edge">
<title>Node12&#45;&gt;Node14</title>
<path fill="none" stroke="midnightblue" d="M452.5,-586.07C432.5,-607.71 394.94,-644.53 355,-664 347.02,-667.89 338.27,-670.98 329.45,-673.45"/>
<polygon fill="midnightblue" stroke="midnightblue" points="455.16,-588.35 459.28,-578.59 449.97,-583.65 455.16,-588.35"/>
</g>
<!-- Node15 -->
<g id="node15" class="node">
<title>Node15</title>
<g id="a_node15"><a xlink:href="classast_1_1_ast_math_oper_1_1_double_oper.html#ae1ba45bad2d2854e7378d5322c0c2c57" target="_top" xlink:title="コードを生成する．">
<polygon fill="white" stroke="black" points="171,-635.5 171,-654.5 355,-654.5 355,-635.5 171,-635.5"/>
<text text-anchor="middle" x="263" y="-642.5" font-family="Helvetica,sans-Serif" font-size="10.00">ast.AstMathOper.DoubleOper.gencode</text>
</a>
</g>
</g>
<!-- Node12&#45;&gt;Node15 -->
<g id="edge16" class="edge">
<title>Node12&#45;&gt;Node15</title>
<path fill="none" stroke="midnightblue" d="M442.93,-583.84C420.68,-596.69 386.64,-614.9 355,-626 344.34,-629.74 332.71,-632.86 321.43,-635.41"/>
<polygon fill="midnightblue" stroke="midnightblue" points="444.84,-586.77 451.7,-578.7 441.3,-580.74 444.84,-586.77"/>
</g>
<!-- Node16 -->
<g id="node16" class="node">
<title>Node16</title>
<g id="a_node16"><a xlink:href="classast_1_1_ast_math_oper_1_1_double_rel.html#ae1ba45bad2d2854e7378d5322c0c2c57" target="_top" xlink:title="コードを生成する．">
<polygon fill="white" stroke="black" points="173.5,-597.5 173.5,-616.5 352.5,-616.5 352.5,-597.5 173.5,-597.5"/>
<text text-anchor="middle" x="263" y="-604.5" font-family="Helvetica,sans-Serif" font-size="10.00">ast.AstMathOper.DoubleRel.gencode</text>
</a>
</g>
</g>
<!-- Node12&#45;&gt;Node16 -->
<g id="edge17" class="edge">
<title>Node12&#45;&gt;Node16</title>
<path fill="none" stroke="midnightblue" d="M406.35,-580.42C377.24,-585.86 342.81,-592.28 315.11,-597.46"/>
<polygon fill="midnightblue" stroke="midnightblue" points="407.22,-583.82 416.41,-578.54 405.94,-576.94 407.22,-583.82"/>
</g>
<!-- Node17 -->
<g id="node17" class="node">
<title>Node17</title>
<g id="a_node17"><a xlink:href="classast_1_1_ast_math_oper_1_1_pre_term.html#ae1ba45bad2d2854e7378d5322c0c2c57" target="_top" xlink:title="コードを生成する．">
<polygon fill="white" stroke="black" points="178,-559.5 178,-578.5 348,-578.5 348,-559.5 178,-559.5"/>
<text text-anchor="middle" x="263" y="-566.5" font-family="Helvetica,sans-Serif" font-size="10.00">ast.AstMathOper.PreTerm.gencode</text>
</a>
</g>
</g>
<!-- Node12&#45;&gt;Node17 -->
<g id="edge18" class="edge">
<title>Node12&#45;&gt;Node17</title>
<path fill="none" stroke="midnightblue" d="M380.6,-569C369.82,-569 358.81,-569 348.07,-569"/>
<polygon fill="midnightblue" stroke="midnightblue" points="380.86,-572.5 390.86,-569 380.86,-565.5 380.86,-572.5"/>
</g>
<!-- Node18 -->
<g id="node18" class="node">
<title>Node18</title>
<g id="a_node18"><a xlink:href="classast_1_1_string_rel_1_1_string_match_rel.html#ae1ba45bad2d2854e7378d5322c0c2c57" target="_top" xlink:title="コードを生成する．">
<polygon fill="white" stroke="black" points="198.5,-510 198.5,-540 327.5,-540 327.5,-510 198.5,-510"/>
<text text-anchor="start" x="206.5" y="-528" font-family="Helvetica,sans-Serif" font-size="10.00">ast.StringRel.StringMatch</text>
<text text-anchor="middle" x="263" y="-517" font-family="Helvetica,sans-Serif" font-size="10.00">Rel.gencode</text>
</a>
</g>
</g>
<!-- Node12&#45;&gt;Node18 -->
<g id="edge19" class="edge">
<title>Node12&#45;&gt;Node18</title>
<path fill="none" stroke="midnightblue" d="M413.54,-557.33C387.19,-551.64 355.31,-544.74 327.77,-538.79"/>
<polygon fill="midnightblue" stroke="midnightblue" points="412.83,-560.76 423.34,-559.45 414.31,-553.92 412.83,-560.76"/>
</g>
<!-- Node19 -->
<g id="node19" class="node">
<title>Node19</title>
<g id="a_node19"><a xlink:href="classast_1_1_string_rel_1_1_regex_match_rel.html#ae1ba45bad2d2854e7378d5322c0c2c57" target="_top" xlink:title="コードを生成する．">
<polygon fill="white" stroke="black" points="197,-461 197,-491 329,-491 329,-461 197,-461"/>
<text text-anchor="start" x="205" y="-479" font-family="Helvetica,sans-Serif" font-size="10.00">ast.StringRel.RegexMatch</text>
<text text-anchor="middle" x="263" y="-468" font-family="Helvetica,sans-Serif" font-size="10.00">Rel.gencode</text>
</a>
</g>
</g>
<!-- Node12&#45;&gt;Node19 -->
<g id="edge20" class="edge">
<title>Node12&#45;&gt;Node19</title>
<path fill="none" stroke="midnightblue" d="M446.04,-553.56C424.09,-538.36 388.54,-515.41 355,-501 346.42,-497.31 337.15,-494.03 327.92,-491.15"/>
<polygon fill="midnightblue" stroke="midnightblue" points="444.1,-556.47 454.3,-559.35 448.12,-550.74 444.1,-556.47"/>
</g>
<!-- Node20 -->
<g id="node20" class="node">
<title>Node20</title>
<g id="a_node20"><a xlink:href="classast_1_1_ast_func_call.html#a383612fb2c1d291f6f3f9c352a5cb262" target="_top" xlink:title="コードを生成する．">
<polygon fill="white" stroke="black" points="199.5,-422.5 199.5,-441.5 326.5,-441.5 326.5,-422.5 199.5,-422.5"/>
<text text-anchor="middle" x="263" y="-429.5" font-family="Helvetica,sans-Serif" font-size="10.00">ast.AstFuncCall.gencode</text>
</a>
</g>
</g>
<!-- Node12&#45;&gt;Node20 -->
<g id="edge21" class="edge">
<title>Node12&#45;&gt;Node20</title>
<path fill="none" stroke="midnightblue" d="M455.55,-551.04C437.18,-524.93 399.42,-476.89 355,-452 346.39,-447.18 336.72,-443.52 326.98,-440.74"/>
<polygon fill="midnightblue" stroke="midnightblue" points="452.67,-553.03 461.22,-559.29 458.44,-549.07 452.67,-553.03"/>
</g>
<!-- Node22 -->
<g id="node22" class="node">
<title>Node22</title>
<g id="a_node22"><a xlink:href="classcompile_1_1_x_c_adapt.html#a4f98b016198110f82cbd0767bad22612" target="_top" xlink:title="クエリのコード生成を行う．">
<polygon fill="white" stroke="black" points="196.5,-384.5 196.5,-403.5 329.5,-403.5 329.5,-384.5 196.5,-384.5"/>
<text text-anchor="middle" x="263" y="-391.5" font-family="Helvetica,sans-Serif" font-size="10.00">compile.XCAdapt.adapting</text>
</a>
</g>
</g>
<!-- Node21&#45;&gt;Node22 -->
<g id="edge23" class="edge">
<title>Node21&#45;&gt;Node22</title>
<path fill="none" stroke="midnightblue" d="M390.81,-394C370.71,-394 349.22,-394 329.74,-394"/>
<polygon fill="midnightblue" stroke="midnightblue" points="390.87,-397.5 400.87,-394 390.87,-390.5 390.87,-397.5"/>
</g>
<!-- Node23 -->
<g id="node23" class="node">
<title>Node23</title>
<g id="a_node23"><a xlink:href="classcompile_1_1_x_compiler.html#a9a5b5de067fc28642be5e1f787527c21" target="_top" xlink:title="入力ストリーム{is}から与えられたクエリをプログラムにコンパイルする.">
<polygon fill="white" stroke="red" points="0,-346.5 0,-365.5 135,-365.5 135,-346.5 0,-346.5"/>
<text text-anchor="middle" x="67.5" y="-353.5" font-family="Helvetica,sans-Serif" font-size="10.00">compile.XCompiler.compile</text>
</a>
</g>
</g>
<!-- Node22&#45;&gt;Node23 -->
<g id="edge24" class="edge">
<title>Node22&#45;&gt;Node23</title>
<path fill="none" stroke="midnightblue" d="M203.25,-382.46C175.65,-377.04 143.15,-370.66 116.98,-365.52"/>
<polygon fill="midnightblue" stroke="midnightblue" points="202.68,-385.92 213.17,-384.41 204.03,-379.05 202.68,-385.92"/>
</g>
<!-- Node26 -->
<g id="node25" class="node">
<title>Node26</title>
<g id="a_node25"><a xlink:href="classcompile_1_1_x_c_push.html#a7a8fbc2be97dd1cb7a0b02131e362d9c" target="_top" xlink:title="クエリのコード変換を行う．">
<polygon fill="white" stroke="black" points="199.5,-346.5 199.5,-365.5 326.5,-365.5 326.5,-346.5 199.5,-346.5"/>
<text text-anchor="middle" x="263" y="-353.5" font-family="Helvetica,sans-Serif" font-size="10.00">compile.XCPush.pushing</text>
</a>
</g>
</g>
<!-- Node25&#45;&gt;Node26 -->
<g id="edge26" class="edge">
<title>Node25&#45;&gt;Node26</title>
<path fill="none" stroke="midnightblue" d="M393.68,-356C371.73,-356 347.89,-356 326.72,-356"/>
<polygon fill="midnightblue" stroke="midnightblue" points="393.95,-359.5 403.95,-356 393.95,-352.5 393.95,-359.5"/>
</g>
<!-- Node26&#45;&gt;Node23 -->
<g id="edge27" class="edge">
<title>Node26&#45;&gt;Node23</title>
<path fill="none" stroke="midnightblue" d="M189.16,-356C171.45,-356 152.59,-356 135.18,-356"/>
<polygon fill="midnightblue" stroke="midnightblue" points="189.44,-359.5 199.44,-356 189.44,-352.5 189.44,-359.5"/>
</g>
<!-- Node27&#45;&gt;Node11 -->
<g id="edge41" class="edge">
<title>Node27&#45;&gt;Node11</title>
<path fill="none" stroke="midnightblue" d="M841.63,-264.99C820.81,-281.96 785.05,-307.71 749,-318 674.81,-339.18 584.96,-334.05 527.52,-327.12"/>
<polygon fill="midnightblue" stroke="midnightblue" points="843.92,-267.64 849.35,-258.54 839.43,-262.27 843.92,-267.64"/>
</g>
<!-- Node28 -->
<g id="node27" class="node">
<title>Node28</title>
<g id="a_node27"><a xlink:href="classcmd_1_1_command_factory.html#a4ceabd7214d0a53f6911c981cb1f3c79" target="_top" xlink:title="値型xtに応じて，変数からの値の読み出し命令CmdLoadを返すファクトリ手続き．">
<polygon fill="white" stroke="black" points="593,-190 593,-220 738,-220 738,-190 593,-190"/>
<text text-anchor="start" x="601" y="-208" font-family="Helvetica,sans-Serif" font-size="10.00">cmd.CommandFactory.create</text>
<text text-anchor="middle" x="665.5" y="-197" font-family="Helvetica,sans-Serif" font-size="10.00">CmdLoad</text>
</a>
</g>
</g>
<!-- Node27&#45;&gt;Node28 -->
<g id="edge29" class="edge">
<title>Node27&#45;&gt;Node28</title>
<path fill="none" stroke="midnightblue" d="M808.05,-237.19C784.9,-231.92 757.36,-225.66 732.75,-220.07"/>
<polygon fill="midnightblue" stroke="midnightblue" points="807.49,-240.65 818.01,-239.45 809.04,-233.82 807.49,-240.65"/>
</g>
<!-- Node29 -->
<g id="node28" class="node">
<title>Node29</title>
<g id="a_node28"><a xlink:href="classcmd_1_1_command_factory.html#ac54a883e3a727bf1f2ef1fd5ca383227" target="_top" xlink:title="値型xtに応じて，値の変数への書き込み命令CmdStore命令を返すファクトリ手続き．">
<polygon fill="white" stroke="black" points="593,-278 593,-308 738,-308 738,-278 593,-278"/>
<text text-anchor="start" x="601" y="-296" font-family="Helvetica,sans-Serif" font-size="10.00">cmd.CommandFactory.create</text>
<text text-anchor="middle" x="665.5" y="-285" font-family="Helvetica,sans-Serif" font-size="10.00">CmdStore</text>
</a>
</g>
</g>
<!-- Node27&#45;&gt;Node29 -->
<g id="edge30" class="edge">
<title>Node27&#45;&gt;Node29</title>
<path fill="none" stroke="midnightblue" d="M808.05,-260.81C784.9,-266.08 757.36,-272.34 732.75,-277.93"/>
<polygon fill="midnightblue" stroke="midnightblue" points="809.04,-264.18 818.01,-258.55 807.49,-257.35 809.04,-264.18"/>
</g>
<!-- Node30 -->
<g id="node29" class="node">
<title>Node30</title>
<g id="a_node29"><a xlink:href="classmachine_1_1_ref.html#a3137357d0abb2bd75321d6e19024956a" target="_top" xlink:title="ノードが保持するデータの文字列表現を返す. interface XFormattableで必要。">
<polygon fill="white" stroke="black" points="618.5,-151.5 618.5,-170.5 712.5,-170.5 712.5,-151.5 618.5,-151.5"/>
<text text-anchor="middle" x="665.5" y="-158.5" font-family="Helvetica,sans-Serif" font-size="10.00">machine.Ref.data</text>
</a>
</g>
</g>
<!-- Node27&#45;&gt;Node30 -->
<g id="edge32" class="edge">
<title>Node27&#45;&gt;Node30</title>
<path fill="none" stroke="midnightblue" d="M803.95,-238.63C797.25,-236.09 790.76,-232.93 785,-229 762.68,-213.77 771.58,-194.85 749,-180 738.32,-172.97 725.37,-168.53 712.92,-165.72"/>
<polygon fill="midnightblue" stroke="midnightblue" points="803.25,-242.08 813.84,-241.92 805.46,-235.44 803.25,-242.08"/>
</g>
<!-- Node38 -->
<g id="node37" class="node">
<title>Node38</title>
<g id="a_node37"><a xlink:href="classmachine_1_1_ref.html#a343c42ffb9569842e1d7bb8e4e060bdd" target="_top" xlink:title="指定されたフレームIDと変数IDをもつRefを生成する.">
<polygon fill="white" stroke="black" points="620,-239.5 620,-258.5 711,-258.5 711,-239.5 620,-239.5"/>
<text text-anchor="middle" x="665.5" y="-246.5" font-family="Helvetica,sans-Serif" font-size="10.00">machine.Ref.Ref</text>
</a>
</g>
</g>
<!-- Node27&#45;&gt;Node38 -->
<g id="edge42" class="edge">
<title>Node27&#45;&gt;Node38</title>
<path fill="none" stroke="midnightblue" d="M803.52,-249C774.09,-249 738.62,-249 711.14,-249"/>
<polygon fill="midnightblue" stroke="midnightblue" points="803.65,-252.5 813.65,-249 803.65,-245.5 803.65,-252.5"/>
</g>
<!-- Node42 -->
<g id="node41" class="node">
<title>Node42</title>
<g id="a_node41"><a xlink:href="classast_1_1_ast_data_reader_1_1_get_ref.html#acd2fd83a0adb6f44674827d7f05ddf7d" target="_top" xlink:title="局所変数を設定する.">
<polygon fill="white" stroke="black" points="582,-403.5 582,-422.5 749,-422.5 749,-403.5 582,-403.5"/>
<text text-anchor="middle" x="665.5" y="-410.5" font-family="Helvetica,sans-Serif" font-size="10.00">ast.AstDataReader.GetRef.setRef</text>
</a>
</g>
</g>
<!-- Node27&#45;&gt;Node42 -->
<g id="edge47" class="edge">
<title>Node27&#45;&gt;Node42</title>
<path fill="none" stroke="midnightblue" d="M850.99,-267.99C835.05,-299.42 798.82,-361.94 749,-394 742.94,-397.9 736.18,-401 729.21,-403.47"/>
<polygon fill="midnightblue" stroke="midnightblue" points="854.33,-269.13 855.6,-258.62 848.05,-266.04 854.33,-269.13"/>
</g>
<!-- Node29&#45;&gt;Node11 -->
<g id="edge31" class="edge">
<title>Node29&#45;&gt;Node11</title>
<path fill="none" stroke="midnightblue" d="M583.05,-303.44C564.43,-305.83 545,-308.32 527.59,-310.55"/>
<polygon fill="midnightblue" stroke="midnightblue" points="583.52,-306.91 593,-302.17 582.63,-299.97 583.52,-306.91"/>
</g>
<!-- Node31 -->
<g id="node30" class="node">
<title>Node31</title>
<g id="a_node30"><a xlink:href="classmachine_1_1_ref.html#ad146fa8579a5f8a876c4688cc5a68520" target="_top" xlink:title="文字列表現を返す。">
<polygon fill="white" stroke="black" points="414,-132.5 414,-151.5 523,-151.5 523,-132.5 414,-132.5"/>
<text text-anchor="middle" x="468.5" y="-139.5" font-family="Helvetica,sans-Serif" font-size="10.00">machine.Ref.toString</text>
</a>
</g>
</g>
<!-- Node30&#45;&gt;Node31 -->
<g id="edge33" class="edge">
<title>Node30&#45;&gt;Node31</title>
<path fill="none" stroke="midnightblue" d="M608.31,-155.53C581.57,-152.92 549.75,-149.82 523.33,-147.24"/>
<polygon fill="midnightblue" stroke="midnightblue" points="608,-159.01 618.29,-156.5 608.67,-152.04 608,-159.01"/>
</g>
<!-- Node32 -->
<g id="node31" class="node">
<title>Node32</title>
<g id="a_node31"><a xlink:href="classast_1_1_ast_data_reader_1_1_get_ref.html#a3137357d0abb2bd75321d6e19024956a" target="_top" xlink:title="ノードが保持するデータの文字列表現を返す。">
<polygon fill="white" stroke="black" points="185,-220.5 185,-239.5 341,-239.5 341,-220.5 185,-220.5"/>
<text text-anchor="middle" x="263" y="-227.5" font-family="Helvetica,sans-Serif" font-size="10.00">ast.AstDataReader.GetRef.data</text>
</a>
</g>
</g>
<!-- Node31&#45;&gt;Node32 -->
<g id="edge34" class="edge">
<title>Node31&#45;&gt;Node32</title>
<path fill="none" stroke="midnightblue" d="M446.55,-157.56C424.75,-173.04 389.09,-196.38 355,-210 344.33,-214.26 332.59,-217.7 321.17,-220.44"/>
<polygon fill="midnightblue" stroke="midnightblue" points="448.67,-160.34 454.73,-151.66 444.58,-154.67 448.67,-160.34"/>
</g>
<!-- Node33 -->
<g id="node32" class="node">
<title>Node33</title>
<g id="a_node32"><a xlink:href="classast_1_1_ast_data_reader_1_1_ast_var_use.html#a3137357d0abb2bd75321d6e19024956a" target="_top" xlink:title="ノードが保持するデータの文字列表現を返す。">
<polygon fill="white" stroke="black" points="197,-171 197,-201 329,-201 329,-171 197,-171"/>
<text text-anchor="start" x="205" y="-189" font-family="Helvetica,sans-Serif" font-size="10.00">ast.AstDataReader.AstVar</text>
<text text-anchor="middle" x="263" y="-178" font-family="Helvetica,sans-Serif" font-size="10.00">Use.data</text>
</a>
</g>
</g>
<!-- Node31&#45;&gt;Node33 -->
<g id="edge35" class="edge">
<title>Node31&#45;&gt;Node33</title>
<path fill="none" stroke="midnightblue" d="M413.36,-153.71C387.55,-159.29 356.45,-166.01 329.33,-171.87"/>
<polygon fill="midnightblue" stroke="midnightblue" points="414.31,-157.08 423.34,-151.55 412.83,-150.24 414.31,-157.08"/>
</g>
<!-- Node34 -->
<g id="node33" class="node">
<title>Node34</title>
<g id="a_node33"><a xlink:href="classast_1_1_ast_data_writer.html#a3137357d0abb2bd75321d6e19024956a" target="_top" xlink:title="ノードが保持するデータの文字列表現を返す。">
<polygon fill="white" stroke="black" points="205,-132.5 205,-151.5 321,-151.5 321,-132.5 205,-132.5"/>
<text text-anchor="middle" x="263" y="-139.5" font-family="Helvetica,sans-Serif" font-size="10.00">ast.AstDataWriter.data</text>
</a>
</g>
</g>
<!-- Node31&#45;&gt;Node34 -->
<g id="edge36" class="edge">
<title>Node31&#45;&gt;Node34</title>
<path fill="none" stroke="midnightblue" d="M403.5,-142C377.15,-142 346.85,-142 321.25,-142"/>
<polygon fill="midnightblue" stroke="midnightblue" points="403.77,-145.5 413.77,-142 403.77,-138.5 403.77,-145.5"/>
</g>
<!-- Node35 -->
<g id="node34" class="node">
<title>Node35</title>
<g id="a_node34"><a xlink:href="classast_1_1_ast_var_decl.html#a3137357d0abb2bd75321d6e19024956a" target="_top" xlink:title="内容を表す文字列を出力する">
<polygon fill="white" stroke="black" points="211,-94.5 211,-113.5 315,-113.5 315,-94.5 211,-94.5"/>
<text text-anchor="middle" x="263" y="-101.5" font-family="Helvetica,sans-Serif" font-size="10.00">ast.AstVarDecl.data</text>
</a>
</g>
</g>
<!-- Node31&#45;&gt;Node35 -->
<g id="edge37" class="edge">
<title>Node31&#45;&gt;Node35</title>
<path fill="none" stroke="midnightblue" d="M406.35,-130.58C377.24,-125.14 342.81,-118.72 315.11,-113.54"/>
<polygon fill="midnightblue" stroke="midnightblue" points="405.94,-134.06 416.41,-132.46 407.22,-127.18 405.94,-134.06"/>
</g>
<!-- Node36 -->
<g id="node35" class="node">
<title>Node36</title>
<g id="a_node35"><a xlink:href="classmachine_1_1_ref_list.html#a61a1316af87e4a6656beb03056a26f12" target="_top" xlink:title="変数の名前から参照オブジェクトを得る．">
<polygon fill="white" stroke="black" points="206.5,-38.5 206.5,-57.5 319.5,-57.5 319.5,-38.5 206.5,-38.5"/>
<text text-anchor="middle" x="263" y="-45.5" font-family="Helvetica,sans-Serif" font-size="10.00">machine.RefList.fetch</text>
</a>
</g>
</g>
<!-- Node31&#45;&gt;Node36 -->
<g id="edge38" class="edge">
<title>Node31&#45;&gt;Node36</title>
<path fill="none" stroke="midnightblue" d="M440.81,-127.69C418.21,-115.76 384.81,-98.58 355,-85 332.96,-74.96 307.37,-64.67 288.95,-57.5"/>
<polygon fill="midnightblue" stroke="midnightblue" points="439.32,-130.86 449.8,-132.46 442.6,-124.68 439.32,-130.86"/>
</g>
<!-- Node37 -->
<g id="node36" class="node">
<title>Node37</title>
<g id="a_node36"><a xlink:href="classast_1_1_ast_var_decl.html#ae1ba45bad2d2854e7378d5322c0c2c57" target="_top" xlink:title="コードを生成する．">
<polygon fill="white" stroke="black" points="202,-0.5 202,-19.5 324,-19.5 324,-0.5 202,-0.5"/>
<text text-anchor="middle" x="263" y="-7.5" font-family="Helvetica,sans-Serif" font-size="10.00">ast.AstVarDecl.gencode</text>
</a>
</g>
</g>
<!-- Node31&#45;&gt;Node37 -->
<g id="edge40" class="edge">
<title>Node31&#45;&gt;Node37</title>
<path fill="none" stroke="midnightblue" d="M454.92,-123.9C436.21,-98.46 398.57,-52.62 355,-29 345.49,-23.85 334.73,-20.09 324.02,-17.35"/>
<polygon fill="midnightblue" stroke="midnightblue" points="452.25,-126.18 460.93,-132.27 457.94,-122.1 452.25,-126.18"/>
</g>
<!-- Node36&#45;&gt;Node36 -->
<g id="edge39" class="edge">
<title>Node36&#45;&gt;Node36</title>
<path fill="none" stroke="midnightblue" d="M299.37,-65.5C299.37,-71.34 287.24,-76 263,-76 228.52,-76 218.55,-66.57 233.1,-57.76"/>
<polygon fill="midnightblue" stroke="midnightblue" points="302,-63.19 292.9,-57.76 296.63,-67.67 302,-63.19"/>
</g>
<!-- Node39 -->
<g id="node38" class="node">
<title>Node39</title>
<g id="a_node38"><a xlink:href="classmachine_1_1_ref.html#ab788c909dc6f3580059add4ad31e57e3" target="_top" xlink:title="与えられた型のRefのサブクラスのオブジェクトを返すファクトリ手続き．">
<polygon fill="white" stroke="black" points="417.5,-258.5 417.5,-277.5 519.5,-277.5 519.5,-258.5 417.5,-258.5"/>
<text text-anchor="middle" x="468.5" y="-265.5" font-family="Helvetica,sans-Serif" font-size="10.00">machine.Ref.create</text>
</a>
</g>
</g>
<!-- Node38&#45;&gt;Node39 -->
<g id="edge43" class="edge">
<title>Node38&#45;&gt;Node39</title>
<path fill="none" stroke="midnightblue" d="M609.63,-254.35C581.34,-257.1 547.08,-260.44 519.52,-263.13"/>
<polygon fill="midnightblue" stroke="midnightblue" points="610.15,-257.81 619.76,-253.36 609.47,-250.85 610.15,-257.81"/>
</g>
<!-- Node40 -->
<g id="node39" class="node">
<title>Node40</title>
<g id="a_node39"><a xlink:href="classmachine_1_1_program_1_1_global_ref_list.html#a7021cf7b5ebe466bd3fa5eddde303d9d" target="_top" xlink:title="与えられた型と名前をもつ変数参照を生成する．">
<polygon fill="white" stroke="black" points="193,-297 193,-327 333,-327 333,-297 193,-297"/>
<text text-anchor="start" x="201" y="-315" font-family="Helvetica,sans-Serif" font-size="10.00">machine.Program.GlobalRef</text>
<text text-anchor="middle" x="263" y="-304" font-family="Helvetica,sans-Serif" font-size="10.00">List.createRef</text>
</a>
</g>
</g>
<!-- Node39&#45;&gt;Node40 -->
<g id="edge44" class="edge">
<title>Node39&#45;&gt;Node40</title>
<path fill="none" stroke="midnightblue" d="M413.47,-279.68C388.88,-285 359.48,-291.36 333.28,-297.02"/>
<polygon fill="midnightblue" stroke="midnightblue" points="414.31,-283.08 423.34,-277.55 412.83,-276.24 414.31,-283.08"/>
</g>
<!-- Node41 -->
<g id="node40" class="node">
<title>Node41</title>
<g id="a_node40"><a xlink:href="classast_1_1_ast_var_decl.html#a5b4b6ffe4c04719694eaf8dd12feba4b" target="_top" xlink:title="@breif">
<polygon fill="white" stroke="black" points="205.5,-258.5 205.5,-277.5 320.5,-277.5 320.5,-258.5 205.5,-258.5"/>
<text text-anchor="middle" x="263" y="-265.5" font-family="Helvetica,sans-Serif" font-size="10.00">ast.AstVarDecl.setRef</text>
</a>
</g>
</g>
<!-- Node39&#45;&gt;Node41 -->
<g id="edge46" class="edge">
<title>Node39&#45;&gt;Node41</title>
<path fill="none" stroke="midnightblue" d="M407.22,-268C379.84,-268 347.62,-268 320.68,-268"/>
<polygon fill="midnightblue" stroke="midnightblue" points="407.46,-271.5 417.46,-268 407.46,-264.5 407.46,-271.5"/>
</g>
<!-- Node40&#45;&gt;Node23 -->
<g id="edge45" class="edge">
<title>Node40&#45;&gt;Node23</title>
<path fill="none" stroke="midnightblue" d="M186.18,-329.24C160.37,-335.11 132.48,-341.45 110.33,-346.49"/>
<polygon fill="midnightblue" stroke="midnightblue" points="186.97,-332.65 195.95,-327.02 185.42,-325.82 186.97,-332.65"/>
</g>
<!-- Node43&#45;&gt;Node2 -->
<g id="edge49" class="edge">
<title>Node43&#45;&gt;Node2</title>
<path fill="none" stroke="midnightblue" d="M824.31,-499.56C798.7,-504.99 763.44,-512.46 732.74,-518.96"/>
<polygon fill="midnightblue" stroke="midnightblue" points="825.25,-502.94 834.3,-497.44 823.8,-496.09 825.25,-502.94"/>
</g>
<!-- Node44&#45;&gt;Node2 -->
<g id="edge52" class="edge">
<title>Node44&#45;&gt;Node2</title>
<path fill="none" stroke="midnightblue" d="M831.73,-455.89C817.09,-459.24 799.33,-464.63 785,-473 765.73,-484.25 768.22,-496.67 749,-508 742.55,-511.8 735.48,-515.07 728.27,-517.87"/>
<polygon fill="midnightblue" stroke="midnightblue" points="832.67,-459.27 841.74,-453.79 831.24,-452.41 832.67,-459.27"/>
</g>
<!-- Node44&#45;&gt;Node42 -->
<g id="edge53" class="edge">
<title>Node44&#45;&gt;Node42</title>
<path fill="none" stroke="midnightblue" d="M831.83,-445.47C801.31,-439.47 752.05,-429.8 715.22,-422.57"/>
<polygon fill="midnightblue" stroke="midnightblue" points="831.31,-448.93 841.8,-447.43 832.66,-442.06 831.31,-448.93"/>
</g>
<!-- Node45 -->
<g id="node44" class="node">
<title>Node45</title>
<g id="a_node44"><a xlink:href="classtype_1_1_child_hom_typing.html#a63c4b84e072ab3ea55255ba2d1259643" target="_top" xlink:title="子として，型をもつ型項を追加する．">
<polygon fill="white" stroke="black" points="589.5,-479.5 589.5,-498.5 741.5,-498.5 741.5,-479.5 589.5,-479.5"/>
<text text-anchor="middle" x="665.5" y="-486.5" font-family="Helvetica,sans-Serif" font-size="10.00">type.ChildHomTyping.addChild</text>
</a>
</g>
</g>
<!-- Node44&#45;&gt;Node45 -->
<g id="edge51" class="edge">
<title>Node44&#45;&gt;Node45</title>
<path fill="none" stroke="midnightblue" d="M831.83,-456.53C801.31,-462.53 752.05,-472.2 715.22,-479.43"/>
<polygon fill="midnightblue" stroke="midnightblue" points="832.66,-459.94 841.8,-454.57 831.31,-453.07 832.66,-459.94"/>
</g>
<!-- Node46 -->
<g id="node45" class="node">
<title>Node46</title>
<g id="a_node45"><a xlink:href="classast_1_1_ast_var_decl.html#a01af0743509a33df0dfbfa0c0b46690e" target="_top" xlink:title="@breif">
<polygon fill="white" stroke="black" points="608,-441.5 608,-460.5 723,-460.5 723,-441.5 608,-441.5"/>
<text text-anchor="middle" x="665.5" y="-448.5" font-family="Helvetica,sans-Serif" font-size="10.00">ast.AstVarDecl.setRef</text>
</a>
</g>
</g>
<!-- Node44&#45;&gt;Node46 -->
<g id="edge54" class="edge">
<title>Node44&#45;&gt;Node46</title>
<path fill="none" stroke="midnightblue" d="M831.76,-451C803.36,-451 758.78,-451 723.08,-451"/>
<polygon fill="midnightblue" stroke="midnightblue" points="831.8,-454.5 841.8,-451 831.8,-447.5 831.8,-454.5"/>
</g>
</g>
</svg>
