<?xml version="1.0" encoding="UTF-8" standalone="no"?>
<!DOCTYPE svg PUBLIC "-//W3C//DTD SVG 1.1//EN"
 "http://www.w3.org/Graphics/SVG/1.1/DTD/svg11.dtd">
<!-- Generated by graphviz version 2.38.0 (20140413.2041)
 -->
<!-- Title: ActionCode Pages: 1 -->
<svg width="180pt" height="157pt"
 viewBox="0.00 0.00 180.15 157.00" xmlns="http://www.w3.org/2000/svg" xmlns:xlink="http://www.w3.org/1999/xlink">
<g id="graph0" class="graph" transform="scale(1 1) rotate(0) translate(4 153)">
<title>ActionCode</title>
<polygon fill="white" stroke="none" points="-4,4 -4,-153 176.15,-153 176.15,4 -4,4"/>
<!-- Node1 -->
<g id="node1" class="node"><title>Node1</title>
<g id="a_node1"><a xlink:title="EventReadable が構文解析中に実行する動作命令を表すインタフェース">
<polygon fill="#bfbfbf" stroke="black" points="61.8276,-0.5 61.8276,-18.5 129.527,-18.5 129.527,-0.5 61.8276,-0.5"/>
<text text-anchor="middle" x="95.6772" y="-6.5" font-family="Helvetica,sans-Serif" font-size="10.00">ActionCode</text>
</a>
</g>
</g>
<!-- Node2 -->
<g id="node2" class="node"><title>Node2</title>
<g id="a_node2"><a xlink:href="interfaceevent_1_1_actable.html" target="_top" xlink:title="EventReadable が構文解析中に返すオブジェクトのインタフェース">
<polygon fill="white" stroke="black" points="0,-65.5 0,-83.5 49.3545,-83.5 49.3545,-65.5 0,-65.5"/>
<text text-anchor="middle" x="24.6772" y="-71.5" font-family="Helvetica,sans-Serif" font-size="10.00">Actable</text>
</a>
</g>
</g>
<!-- Node2&#45;&gt;Node1 -->
<g id="edge1" class="edge"><title>Node2&#45;&gt;Node1</title>
<path fill="none" stroke="midnightblue" d="M41.5372,-58.5397C55.6637,-46.005 75.2873,-28.5925 86.6174,-18.539"/>
<polygon fill="midnightblue" stroke="midnightblue" points="39.1162,-56.0087 33.9593,-65.2639 43.7622,-61.2447 39.1162,-56.0087"/>
</g>
<!-- Node3 -->
<g id="node3" class="node"><title>Node3</title>
<g id="a_node3"><a xlink:title=" ">
<polygon fill="white" stroke="#bfbfbf" points="10.1772,-130.5 10.1772,-148.5 39.1772,-148.5 39.1772,-130.5 10.1772,-130.5"/>
<text text-anchor="middle" x="24.458" y="-136.5" font-family="Helvetica,sans-Serif" font-size="10.00">int</text>
</a>
</g>
</g>
<!-- Node3&#45;&gt;Node2 -->
<g id="edge2" class="edge"><title>Node3&#45;&gt;Node2</title>
<path fill="none" stroke="#9a32cd" stroke-dasharray="5,2" d="M24.6772,-119.907C24.6772,-107.815 24.6772,-92.6529 24.6772,-83.539"/>
<polygon fill="#9a32cd" stroke="#9a32cd" points="21.1773,-120.264 24.6772,-130.264 28.1773,-120.264 21.1773,-120.264"/>
<text text-anchor="middle" x="43.2881" y="-104" font-family="Helvetica,sans-Serif" font-size="10.00"> UNDEF</text>
</g>
<!-- Node4 -->
<g id="node4" class="node"><title>Node4</title>
<g id="a_node4"><a xlink:href="interfaceevent_1_1_action_code_1_1_codelet.html" target="_top" xlink:title="EventReadableの環境内部で動作する動作命令のインタフェース．構文解析時にEventReadableから唯一のメソッドrun()が呼び出される．環境へのアクセスは，このメソッドの引数で与えられ...">
<polygon fill="white" stroke="black" points="67.2046,-65.5 67.2046,-83.5 172.15,-83.5 172.15,-65.5 67.2046,-65.5"/>
<text text-anchor="middle" x="119.677" y="-71.5" font-family="Helvetica,sans-Serif" font-size="10.00">ActionCode.Codelet</text>
</a>
</g>
</g>
<!-- Node4&#45;&gt;Node1 -->
<g id="edge3" class="edge"><title>Node4&#45;&gt;Node1</title>
<path fill="none" stroke="#9a32cd" stroke-dasharray="5,2" d="M112.878,-55.6515C108.227,-43.4424 102.283,-27.8409 98.7397,-18.539"/>
<polygon fill="#9a32cd" stroke="#9a32cd" points="109.709,-57.165 116.54,-65.2639 116.25,-54.673 109.709,-57.165"/>
<text text-anchor="middle" x="120.909" y="-39" font-family="Helvetica,sans-Serif" font-size="10.00"> code</text>
</g>
</g>
</svg>
