<?xml version="1.0" encoding="UTF-8" standalone="no"?>
<!DOCTYPE svg PUBLIC "-//W3C//DTD SVG 1.1//EN"
 "http://www.w3.org/Graphics/SVG/1.1/DTD/svg11.dtd">
<!-- Generated by graphviz version 2.47.0 (20210316.0004)
 -->
<!-- Title: AstAtom.RegexLiteral Pages: 1 -->
<svg width="426pt" height="334pt"
 viewBox="0.00 0.00 425.50 334.00" xmlns="http://www.w3.org/2000/svg" xmlns:xlink="http://www.w3.org/1999/xlink">
<g id="graph0" class="graph" transform="scale(1 1) rotate(0) translate(4 330)">
<title>AstAtom.RegexLiteral</title>
<polygon fill="white" stroke="transparent" points="-4,4 -4,-330 421.5,-330 421.5,4 -4,4"/>
<!-- Node1 -->
<g id="node1" class="node">
<title>Node1</title>
<g id="a_node1"><a xlink:title=" ">
<polygon fill="#bfbfbf" stroke="black" points="214.5,-0.5 214.5,-19.5 327.5,-19.5 327.5,-0.5 214.5,-0.5"/>
<text text-anchor="middle" x="271" y="-7.5" font-family="Helvetica,sans-Serif" font-size="10.00">AstAtom.RegexLiteral</text>
</a>
</g>
</g>
<!-- Node2 -->
<g id="node2" class="node">
<title>Node2</title>
<g id="a_node2"><a xlink:href="$classast_1_1_ast_atom_1_1_string_expr.html" xlink:title="String値アトム">
<polygon fill="white" stroke="black" points="219,-57.5 219,-76.5 323,-76.5 323,-57.5 219,-57.5"/>
<text text-anchor="middle" x="271" y="-64.5" font-family="Helvetica,sans-Serif" font-size="10.00">AstAtom.StringExpr</text>
</a>
</g>
</g>
<!-- Node2&#45;&gt;Node1 -->
<g id="edge1" class="edge">
<title>Node2&#45;&gt;Node1</title>
<path fill="none" stroke="midnightblue" d="M271,-47.12C271,-37.82 271,-27.06 271,-19.71"/>
<polygon fill="midnightblue" stroke="midnightblue" points="267.5,-47.41 271,-57.41 274.5,-47.41 267.5,-47.41"/>
</g>
<!-- Node3 -->
<g id="node3" class="node">
<title>Node3</title>
<g id="a_node3"><a xlink:href="$classast_1_1_ast_atom.html" xlink:title="値を返すことができる終端オブジェクトのクラス">
<polygon fill="white" stroke="black" points="176.5,-114.5 176.5,-133.5 231.5,-133.5 231.5,-114.5 176.5,-114.5"/>
<text text-anchor="middle" x="204" y="-121.5" font-family="Helvetica,sans-Serif" font-size="10.00">AstAtom</text>
</a>
</g>
</g>
<!-- Node3&#45;&gt;Node2 -->
<g id="edge2" class="edge">
<title>Node3&#45;&gt;Node2</title>
<path fill="none" stroke="midnightblue" d="M222.27,-108C234.5,-97.96 250.16,-85.1 260.38,-76.71"/>
<polygon fill="midnightblue" stroke="midnightblue" points="219.98,-105.36 214.47,-114.41 224.42,-110.77 219.98,-105.36"/>
</g>
<!-- Node4 -->
<g id="node4" class="node">
<title>Node4</title>
<g id="a_node4"><a xlink:href="$classast_1_1_ast_terminal.html" xlink:title="値型をもたない終端オブジェクトのクラス">
<polygon fill="white" stroke="black" points="56,-171.5 56,-190.5 124,-190.5 124,-171.5 56,-171.5"/>
<text text-anchor="middle" x="90" y="-178.5" font-family="Helvetica,sans-Serif" font-size="10.00">AstTerminal</text>
</a>
</g>
</g>
<!-- Node4&#45;&gt;Node3 -->
<g id="edge3" class="edge">
<title>Node4&#45;&gt;Node3</title>
<path fill="none" stroke="midnightblue" d="M117.04,-166.96C138.46,-156.62 167.79,-142.47 186.31,-133.53"/>
<polygon fill="midnightblue" stroke="midnightblue" points="115.3,-163.91 107.81,-171.41 118.34,-170.21 115.3,-163.91"/>
</g>
<!-- Node5 -->
<g id="node5" class="node">
<title>Node5</title>
<g id="a_node5"><a xlink:href="$classast_1_1_ast_node.html" xlink:title=" ">
<polygon fill="white" stroke="red" points="33.5,-228.5 33.5,-247.5 88.5,-247.5 88.5,-228.5 33.5,-228.5"/>
<text text-anchor="middle" x="61" y="-235.5" font-family="Helvetica,sans-Serif" font-size="10.00">AstNode</text>
</a>
</g>
</g>
<!-- Node5&#45;&gt;Node4 -->
<g id="edge4" class="edge">
<title>Node5&#45;&gt;Node4</title>
<path fill="none" stroke="midnightblue" d="M70.31,-219.33C75.36,-209.77 81.36,-198.38 85.4,-190.71"/>
<polygon fill="midnightblue" stroke="midnightblue" points="67.1,-217.93 65.53,-228.41 73.29,-221.19 67.1,-217.93"/>
</g>
<!-- Node7 -->
<g id="node6" class="node">
<title>Node7</title>
<g id="a_node6"><a xlink:title=" ">
<polygon fill="white" stroke="#bfbfbf" points="0,-306.5 0,-325.5 42,-325.5 42,-306.5 0,-306.5"/>
<text text-anchor="middle" x="21" y="-313.5" font-family="Helvetica,sans-Serif" font-size="10.00">String</text>
</a>
</g>
</g>
<!-- Node7&#45;&gt;Node2 -->
<g id="edge11" class="edge">
<title>Node7&#45;&gt;Node2</title>
<path fill="none" stroke="#9a32cd" stroke-dasharray="5,2" d="M14.87,-296.51C10.35,-281.26 5,-258.96 5,-239 5,-239 5,-239 5,-123 5,-79.79 141.3,-70.26 218.76,-68.33"/>
<polygon fill="#9a32cd" stroke="#9a32cd" points="11.58,-297.74 17.92,-306.23 18.26,-295.64 11.58,-297.74"/>
<text text-anchor="middle" x="16" y="-178.5" font-family="Helvetica,sans-Serif" font-size="10.00"> sval</text>
</g>
<!-- Node7&#45;&gt;Node5 -->
<g id="edge5" class="edge">
<title>Node7&#45;&gt;Node5</title>
<path fill="none" stroke="#9a32cd" stroke-dasharray="5,2" d="M30.41,-297.12C38.62,-281.53 50.17,-259.59 56.47,-247.62"/>
<polygon fill="#9a32cd" stroke="#9a32cd" points="27.15,-295.8 25.59,-306.28 33.34,-299.06 27.15,-295.8"/>
<text text-anchor="middle" x="72" y="-280" font-family="Helvetica,sans-Serif" font-size="10.00"> MOD_AST</text>
<text text-anchor="middle" x="72" y="-269" font-family="Helvetica,sans-Serif" font-size="10.00">mod_</text>
</g>
<!-- Node13 -->
<g id="node7" class="node">
<title>Node13</title>
<g id="a_node7"><a xlink:href="$interfaceformat_1_1_x_formattable_1_1_terminatable.html" xlink:title="木構造の終端として清書可能なオブジェクトのクラス">
<polygon fill="white" stroke="red" points="107,-228.5 107,-247.5 241,-247.5 241,-228.5 107,-228.5"/>
<text text-anchor="middle" x="174" y="-235.5" font-family="Helvetica,sans-Serif" font-size="10.00">XFormattable.Terminatable</text>
</a>
</g>
</g>
<!-- Node13&#45;&gt;Node4 -->
<g id="edge6" class="edge">
<title>Node13&#45;&gt;Node4</title>
<path fill="none" stroke="midnightblue" d="M152.35,-222.82C136.74,-212.61 116.19,-199.15 103.03,-190.53"/>
<polygon fill="midnightblue" stroke="midnightblue" points="150.59,-225.86 160.88,-228.41 154.43,-220 150.59,-225.86"/>
</g>
<!-- Node14 -->
<g id="node8" class="node">
<title>Node14</title>
<g id="a_node8"><a xlink:href="$interfacecmd_1_1_generatable_1_1_evaluatable.html" xlink:title="評価して値を返すノードのインタフェース．必ずしもコードを生成しなくても良い．">
<polygon fill="white" stroke="black" points="142.5,-171.5 142.5,-190.5 265.5,-190.5 265.5,-171.5 142.5,-171.5"/>
<text text-anchor="middle" x="204" y="-178.5" font-family="Helvetica,sans-Serif" font-size="10.00">Generatable.Evaluatable</text>
</a>
</g>
</g>
<!-- Node14&#45;&gt;Node3 -->
<g id="edge7" class="edge">
<title>Node14&#45;&gt;Node3</title>
<path fill="none" stroke="midnightblue" d="M204,-161.12C204,-151.82 204,-141.06 204,-133.71"/>
<polygon fill="midnightblue" stroke="midnightblue" points="200.5,-161.41 204,-171.41 207.5,-161.41 200.5,-161.41"/>
</g>
<!-- Node15 -->
<g id="node9" class="node">
<title>Node15</title>
<g id="a_node9"><a xlink:href="$interfacecmd_1_1_generatable.html" xlink:title="変換してコードを生成できるノードのインタフェース.">
<polygon fill="white" stroke="black" points="259.5,-228.5 259.5,-247.5 328.5,-247.5 328.5,-228.5 259.5,-228.5"/>
<text text-anchor="middle" x="294" y="-235.5" font-family="Helvetica,sans-Serif" font-size="10.00">Generatable</text>
</a>
</g>
</g>
<!-- Node15&#45;&gt;Node2 -->
<g id="edge10" class="edge">
<title>Node15&#45;&gt;Node2</title>
<path fill="none" stroke="midnightblue" d="M291.44,-218.19C286.49,-181.82 275.78,-103.14 272.2,-76.8"/>
<polygon fill="midnightblue" stroke="midnightblue" points="288.01,-218.95 292.83,-228.39 294.95,-218.01 288.01,-218.95"/>
</g>
<!-- Node15&#45;&gt;Node14 -->
<g id="edge8" class="edge">
<title>Node15&#45;&gt;Node14</title>
<path fill="none" stroke="midnightblue" d="M271.27,-223.11C254.49,-212.86 232.19,-199.23 217.96,-190.53"/>
<polygon fill="midnightblue" stroke="midnightblue" points="269.58,-226.18 279.94,-228.41 273.23,-220.21 269.58,-226.18"/>
</g>
<!-- Node16 -->
<g id="node10" class="node">
<title>Node16</title>
<g id="a_node10"><a xlink:href="$class_typed_formattable.html" xlink:title=" ">
<polygon fill="white" stroke="black" points="322.5,-114.5 322.5,-133.5 417.5,-133.5 417.5,-114.5 322.5,-114.5"/>
<text text-anchor="middle" x="370" y="-121.5" font-family="Helvetica,sans-Serif" font-size="10.00">TypedFormattable</text>
</a>
</g>
</g>
<!-- Node16&#45;&gt;Node2 -->
<g id="edge9" class="edge">
<title>Node16&#45;&gt;Node2</title>
<path fill="none" stroke="midnightblue" d="M345.76,-109.54C327.23,-99.24 302.23,-85.35 286.36,-76.53"/>
<polygon fill="midnightblue" stroke="midnightblue" points="344.09,-112.61 354.53,-114.41 347.49,-106.49 344.09,-112.61"/>
</g>
</g>
</svg>
