<?xml version="1.0" encoding="UTF-8" standalone="no"?>
<!DOCTYPE svg PUBLIC "-//W3C//DTD SVG 1.1//EN"
 "http://www.w3.org/Graphics/SVG/1.1/DTD/svg11.dtd">
<!-- Generated by graphviz version 2.38.0 (20140413.2041)
 -->
<!-- Title: BinaryOper Pages: 1 -->
<svg width="286pt" height="137pt"
 viewBox="0.00 0.00 285.66 137.00" xmlns="http://www.w3.org/2000/svg" xmlns:xlink="http://www.w3.org/1999/xlink">
<g id="graph0" class="graph" transform="scale(1 1) rotate(0) translate(4 133)">
<title>BinaryOper</title>
<polygon fill="white" stroke="none" points="-4,4 -4,-133 281.657,-133 281.657,4 -4,4"/>
<!-- Node1 -->
<g id="node1" class="node"><title>Node1</title>
<g id="a_node1"><a xlink:title=" ">
<polygon fill="#bfbfbf" stroke="black" points="106.236,-110.5 106.236,-128.5 172.812,-128.5 172.812,-110.5 106.236,-110.5"/>
<text text-anchor="middle" x="139.524" y="-116.5" font-family="Helvetica,sans-Serif" font-size="10.00">BinaryOper</text>
</a>
</g>
</g>
<!-- Node2 -->
<g id="node2" class="node"><title>Node2</title>
<g id="a_node2"><a xlink:href="classast_1_1_string_rel.html" target="_top" xlink:title=" ">
<polygon fill="white" stroke="black" points="110.96,-55.5 110.96,-73.5 168.088,-73.5 168.088,-55.5 110.96,-55.5"/>
<text text-anchor="middle" x="139.524" y="-61.5" font-family="Helvetica,sans-Serif" font-size="10.00">StringRel</text>
</a>
</g>
</g>
<!-- Node1&#45;&gt;Node2 -->
<g id="edge1" class="edge"><title>Node1&#45;&gt;Node2</title>
<path fill="none" stroke="midnightblue" d="M139.524,-100.175C139.524,-91.0945 139.524,-80.5949 139.524,-73.5496"/>
<polygon fill="midnightblue" stroke="midnightblue" points="136.025,-100.219 139.524,-110.219 143.025,-100.219 136.025,-100.219"/>
</g>
<!-- Node3 -->
<g id="node3" class="node"><title>Node3</title>
<g id="a_node3"><a xlink:href="classast_1_1_string_rel_1_1_regex_match_rel.html" target="_top" xlink:title=" ">
<polygon fill="white" stroke="black" points="0,-0.5 0,-18.5 131.049,-18.5 131.049,-0.5 0,-0.5"/>
<text text-anchor="middle" x="65.5244" y="-6.5" font-family="Helvetica,sans-Serif" font-size="10.00">StringRel.RegexMatchRel</text>
</a>
</g>
</g>
<!-- Node2&#45;&gt;Node3 -->
<g id="edge2" class="edge"><title>Node2&#45;&gt;Node3</title>
<path fill="none" stroke="midnightblue" d="M119.965,-49.4916C106.223,-39.6491 88.3186,-26.8255 76.8692,-18.6253"/>
<polygon fill="midnightblue" stroke="midnightblue" points="118.118,-52.4731 128.285,-55.4504 122.193,-46.7822 118.118,-52.4731"/>
</g>
<!-- Node4 -->
<g id="node4" class="node"><title>Node4</title>
<g id="a_node4"><a xlink:href="classast_1_1_string_rel_1_1_string_match_rel.html" target="_top" xlink:title=" ">
<polygon fill="white" stroke="black" points="149.392,-0.5 149.392,-18.5 277.657,-18.5 277.657,-0.5 149.392,-0.5"/>
<text text-anchor="middle" x="213.524" y="-6.5" font-family="Helvetica,sans-Serif" font-size="10.00">StringRel.StringMatchRel</text>
</a>
</g>
</g>
<!-- Node2&#45;&gt;Node4 -->
<g id="edge3" class="edge"><title>Node2&#45;&gt;Node4</title>
<path fill="none" stroke="midnightblue" d="M159.083,-49.4916C172.826,-39.6491 190.73,-26.8255 202.18,-18.6253"/>
<polygon fill="midnightblue" stroke="midnightblue" points="156.855,-46.7822 150.763,-55.4504 160.931,-52.4731 156.855,-46.7822"/>
</g>
</g>
</svg>
