<?xml version="1.0" encoding="UTF-8" standalone="no"?>
<!DOCTYPE svg PUBLIC "-//W3C//DTD SVG 1.1//EN"
 "http://www.w3.org/Graphics/SVG/1.1/DTD/svg11.dtd">
<!-- Generated by graphviz version 2.47.1 (20210417.1919)
 -->
<!-- Title: childData Pages: 1 -->
<svg width="714pt" height="104pt"
 viewBox="0.00 0.00 714.00 104.00" xmlns="http://www.w3.org/2000/svg" xmlns:xlink="http://www.w3.org/1999/xlink">
<g id="graph0" class="graph" transform="scale(1 1) rotate(0) translate(4 100)">
<title>childData</title>
<polygon fill="white" stroke="transparent" points="-4,4 -4,-100 710,-100 710,4 -4,4"/>
<!-- Node1 -->
<g id="node1" class="node">
<title>Node1</title>
<g id="a_node1"><a xlink:title="子型の文字列表現を返す。">
<polygon fill="#bfbfbf" stroke="black" points="0,-57.5 0,-76.5 58,-76.5 58,-57.5 0,-57.5"/>
<text text-anchor="middle" x="29" y="-64.5" font-family="Helvetica,sans-Serif" font-size="10.00">childData</text>
</a>
</g>
</g>
<!-- Node2 -->
<g id="node2" class="node">
<title>Node2</title>
<g id="a_node2"><a xlink:href="classtype_1_1_child_hom_typing.html#a3feda0aa727b222e0627dd41646ff824" target="_top" xlink:title=" ">
<polygon fill="white" stroke="black" points="285.5,-76.5 285.5,-95.5 343.5,-95.5 343.5,-76.5 285.5,-76.5"/>
<text text-anchor="middle" x="314.5" y="-83.5" font-family="Helvetica,sans-Serif" font-size="10.00">childHom</text>
</a>
</g>
</g>
<!-- Node1&#45;&gt;Node2 -->
<g id="edge1" class="edge">
<title>Node1&#45;&gt;Node2</title>
<path fill="none" stroke="midnightblue" d="M58.22,-68.89C109.38,-72.32 217.47,-79.56 275.22,-83.43"/>
<polygon fill="midnightblue" stroke="midnightblue" points="275.18,-86.94 285.39,-84.12 275.65,-79.96 275.18,-86.94"/>
</g>
<!-- Node4 -->
<g id="node4" class="node">
<title>Node4</title>
<g id="a_node4"><a xlink:href="classtype_1_1_basic_typing.html#ad146fa8579a5f8a876c4688cc5a68520" target="_top" xlink:title="演算子型の文字列表現を返す。">
<polygon fill="white" stroke="black" points="94,-38.5 94,-57.5 222,-57.5 222,-38.5 94,-38.5"/>
<text text-anchor="middle" x="158" y="-45.5" font-family="Helvetica,sans-Serif" font-size="10.00">type.BasicTyping.toString</text>
</a>
</g>
</g>
<!-- Node1&#45;&gt;Node4 -->
<g id="edge3" class="edge">
<title>Node1&#45;&gt;Node4</title>
<path fill="none" stroke="midnightblue" d="M58.19,-62.78C65.97,-61.62 74.79,-60.3 83.87,-58.94"/>
<polygon fill="midnightblue" stroke="midnightblue" points="84.43,-62.4 93.81,-57.45 83.4,-55.47 84.43,-62.4"/>
</g>
<!-- Node3 -->
<g id="node3" class="node">
<title>Node3</title>
<g id="a_node3"><a xlink:href="classtype_1_1_basic_typing.html#a43fad88a40e732def4cd36c8b11a570b" target="_top" xlink:title=" ">
<polygon fill="white" stroke="black" points="591,-76.5 591,-95.5 706,-95.5 706,-76.5 591,-76.5"/>
<text text-anchor="middle" x="648.5" y="-83.5" font-family="Helvetica,sans-Serif" font-size="10.00">type.BasicTyping.child</text>
</a>
</g>
</g>
<!-- Node2&#45;&gt;Node3 -->
<g id="edge2" class="edge">
<title>Node2&#45;&gt;Node3</title>
<path fill="none" stroke="midnightblue" d="M343.52,-86C395.45,-86 507.94,-86 580.56,-86"/>
<polygon fill="midnightblue" stroke="midnightblue" points="580.97,-89.5 590.97,-86 580.97,-82.5 580.97,-89.5"/>
</g>
<!-- Node5 -->
<g id="node5" class="node">
<title>Node5</title>
<g id="a_node5"><a xlink:href="classtype_1_1_basic_typing.html#a3137357d0abb2bd75321d6e19024956a" target="_top" xlink:title="演算子型の文字列表現を返す。">
<polygon fill="white" stroke="black" points="258,-38.5 258,-57.5 371,-57.5 371,-38.5 258,-38.5"/>
<text text-anchor="middle" x="314.5" y="-45.5" font-family="Helvetica,sans-Serif" font-size="10.00">type.BasicTyping.data</text>
</a>
</g>
</g>
<!-- Node4&#45;&gt;Node5 -->
<g id="edge4" class="edge">
<title>Node4&#45;&gt;Node5</title>
<path fill="none" stroke="midnightblue" d="M222.29,-41.35C230.7,-41.23 239.34,-41.22 247.79,-41.32"/>
<polygon fill="midnightblue" stroke="midnightblue" points="247.92,-44.82 257.98,-41.49 248.04,-37.82 247.92,-44.82"/>
</g>
<!-- Node5&#45;&gt;Node4 -->
<g id="edge9" class="edge">
<title>Node5&#45;&gt;Node4</title>
<path fill="none" stroke="midnightblue" d="M257.98,-54.51C249.66,-54.7 240.97,-54.78 232.35,-54.74"/>
<polygon fill="midnightblue" stroke="midnightblue" points="232.32,-51.24 222.29,-54.65 232.25,-58.24 232.32,-51.24"/>
</g>
<!-- Node6 -->
<g id="node6" class="node">
<title>Node6</title>
<g id="a_node6"><a xlink:href="classtype_1_1_basic_typing.html#ac773e3c20a29c208fea84c33d8b35cd2" target="_top" xlink:title="子型の文字列表現を返す。">
<polygon fill="white" stroke="black" points="413,-38.5 413,-57.5 549,-57.5 549,-38.5 413,-38.5"/>
<text text-anchor="middle" x="481" y="-45.5" font-family="Helvetica,sans-Serif" font-size="10.00">type.BasicTyping.childData</text>
</a>
</g>
</g>
<!-- Node5&#45;&gt;Node6 -->
<g id="edge5" class="edge">
<title>Node5&#45;&gt;Node6</title>
<path fill="none" stroke="midnightblue" d="M371.19,-48C381.36,-48 392.14,-48 402.81,-48"/>
<polygon fill="midnightblue" stroke="midnightblue" points="402.97,-51.5 412.97,-48 402.97,-44.5 402.97,-51.5"/>
</g>
<!-- Node10 -->
<g id="node8" class="node">
<title>Node10</title>
<g id="a_node8"><a xlink:href="classtype_1_1_basic_typing.html#ab764fc36d8fbb4e90f1a6c4b1f48ca6b" target="_top" xlink:title="data()の切り替え用">
<polygon fill="white" stroke="black" points="407,-0.5 407,-19.5 555,-19.5 555,-0.5 407,-0.5"/>
<text text-anchor="middle" x="481" y="-7.5" font-family="Helvetica,sans-Serif" font-size="10.00">type.BasicTyping.isBasicType</text>
</a>
</g>
</g>
<!-- Node5&#45;&gt;Node10 -->
<g id="edge8" class="edge">
<title>Node5&#45;&gt;Node10</title>
<path fill="none" stroke="midnightblue" d="M357.01,-38.41C378.82,-33.37 405.73,-27.16 428.82,-21.82"/>
<polygon fill="midnightblue" stroke="midnightblue" points="429.83,-25.18 438.79,-19.52 428.26,-18.36 429.83,-25.18"/>
</g>
<!-- Node6&#45;&gt;Node3 -->
<g id="edge6" class="edge">
<title>Node6&#45;&gt;Node3</title>
<path fill="none" stroke="midnightblue" d="M523.76,-57.59C545.7,-62.63 572.78,-68.84 596.01,-74.18"/>
<polygon fill="midnightblue" stroke="midnightblue" points="595.51,-77.65 606.04,-76.48 597.07,-70.83 595.51,-77.65"/>
</g>
<!-- Node7 -->
<g id="node7" class="node">
<title>Node7</title>
<g id="a_node7"><a xlink:href="classtype_1_1_x_type_item.html#a376d814d15cc5ae21afd6425d0780ad9" target="_top" xlink:title="この型変数thisがもつ値型を返す。">
<polygon fill="white" stroke="red" points="600,-38.5 600,-57.5 697,-57.5 697,-38.5 600,-38.5"/>
<text text-anchor="middle" x="648.5" y="-45.5" font-family="Helvetica,sans-Serif" font-size="10.00">type.XTypeItem.ty</text>
</a>
</g>
</g>
<!-- Node6&#45;&gt;Node7 -->
<g id="edge7" class="edge">
<title>Node6&#45;&gt;Node7</title>
<path fill="none" stroke="midnightblue" d="M549.32,-48C562.59,-48 576.42,-48 589.36,-48"/>
<polygon fill="midnightblue" stroke="midnightblue" points="589.52,-51.5 599.52,-48 589.52,-44.5 589.52,-51.5"/>
</g>
</g>
</svg>
