<?xml version="1.0" encoding="UTF-8" standalone="no"?>
<!DOCTYPE svg PUBLIC "-//W3C//DTD SVG 1.1//EN"
 "http://www.w3.org/Graphics/SVG/1.1/DTD/svg11.dtd">
<!-- Generated by graphviz version 2.47.1 (20210417.1919)
 -->
<!-- Title: size Pages: 1 -->
<!--zoomable 119 -->
<svg id="main" version="1.1" xmlns="http://www.w3.org/2000/svg" xmlns:xlink="http://www.w3.org/1999/xlink" xml:space="preserve" onload="init(evt)">
<style type="text/css"><![CDATA[
.edge:hover path { stroke: red; }
.edge:hover polygon { stroke: red; fill: red; }
]]></style>
<script type="text/javascript"><![CDATA[
var edges = document.getElementsByTagName('g');
if (edges && edges.length) {
  for (var i=0;i<edges.length;i++) {
    if (edges[i].id.substr(0,4)=='edge') {
      edges[i].setAttribute('class','edge');
    }
  }
}
]]></script>
        <defs>
                <circle id="rim" cx="0" cy="0" r="7"/>
                <circle id="rim2" cx="0" cy="0" r="3.5"/>
                <g id="zoomPlus">
                        <use xlink:href="#rim" fill="#404040">
                                <set attributeName="fill" to="#808080" begin="zoomplus.mouseover" end="zoomplus.mouseout"/>
                        </use>
                        <path d="M-4,0h8M0,-4v8" fill="none" stroke="white" stroke-width="1.5" pointer-events="none"/>
                </g>
                <g id="zoomMin">
                        <use xlink:href="#rim" fill="#404040">
                                <set attributeName="fill" to="#808080" begin="zoomminus.mouseover" end="zoomminus.mouseout"/>
                        </use>
                        <path d="M-4,0h8" fill="none" stroke="white" stroke-width="1.5" pointer-events="none"/>
                </g>
                <g id="dirArrow">
                        <path fill="none" stroke="white" stroke-width="1.5" d="M0,-3.0v7 M-2.5,-0.5L0,-3.0L2.5,-0.5"/>
                </g>
               <g id="resetDef">
                       <use xlink:href="#rim2" fill="#404040">
                               <set attributeName="fill" to="#808080" begin="reset.mouseover" end="reset.mouseout"/>
                       </use>
               </g>
        </defs>

<script type="text/javascript">
var viewWidth = 819;
var viewHeight = 119;
var sectionId = 'dynsection-3';
</script>
<script xlink:href="svgpan.js"/>
<svg id="graph" class="graph">
<g id="viewport">
<title>size</title>
<polygon fill="white" stroke="transparent" points="-4,4 -4,-114.5 815,-114.5 815,4 -4,4"/>
<!-- Node1 -->
<g id="node1" class="node">
<title>Node1</title>
<g id="a_node1"><a xlink:title="スタックのサイズを返す.">
<polygon fill="#bfbfbf" stroke="black" points="776,-63.5 776,-82.5 811,-82.5 811,-63.5 776,-63.5"/>
<text text-anchor="middle" x="793.5" y="-70.5" font-family="Helvetica,sans-Serif" font-size="10.00">size</text>
</a>
</g>
</g>
<!-- Node2 -->
<g id="node2" class="node">
<title>Node2</title>
<g id="a_node2"><a xlink:href="classframe_1_1_frame_stack_uni.html#a2642133c8586f59378e1bc16c614af68" target="_top" xlink:title="フレームポインタfpからフレームの文字列表現を返す">
<polygon fill="white" stroke="black" points="600,-80 600,-110 740,-110 740,-80 600,-80"/>
<text text-anchor="start" x="608" y="-98" font-family="Helvetica,sans-Serif" font-size="10.00">frame.FrameStackUni.frame</text>
<text text-anchor="middle" x="670" y="-87" font-family="Helvetica,sans-Serif" font-size="10.00">ToString</text>
</a>
</g>
</g>
<!-- Node1&#45;&gt;Node2 -->
<g id="edge1" class="edge">
<title>Node1&#45;&gt;Node2</title>
<path fill="none" stroke="midnightblue" d="M765.99,-77.8C758.18,-79.22 749.25,-80.83 740.06,-82.5"/>
<polygon fill="midnightblue" stroke="midnightblue" points="766.64,-81.24 775.86,-76.01 765.4,-74.35 766.64,-81.24"/>
</g>
<!-- Node3 -->
<g id="node3" class="node">
<title>Node3</title>
<g id="a_node3"><a xlink:href="classutil_1_1_stack_base.html#aa71d41fd3d95c354d4d5e922c6c21210" target="_top" xlink:title="空スタックか？">
<polygon fill="white" stroke="black" points="643.5,-41.5 643.5,-60.5 696.5,-60.5 696.5,-41.5 643.5,-41.5"/>
<text text-anchor="middle" x="670" y="-48.5" font-family="Helvetica,sans-Serif" font-size="10.00">isEmpty</text>
</a>
</g>
</g>
<!-- Node1&#45;&gt;Node3 -->
<g id="edge2" class="edge">
<title>Node1&#45;&gt;Node3</title>
<path fill="none" stroke="midnightblue" d="M765.9,-68.18C745.36,-64.46 717.09,-59.35 696.76,-55.66"/>
<polygon fill="midnightblue" stroke="midnightblue" points="765.4,-71.65 775.86,-69.99 766.64,-64.76 765.4,-71.65"/>
</g>
<!-- Node4 -->
<g id="node4" class="node">
<title>Node4</title>
<g id="a_node4"><a xlink:href="classutil_1_1_recycle_manager.html#ad6541e97c584aca806e22274f261b0c7" target="_top" xlink:title="型Sの新しいインスタンスを初期化して返す．">
<polygon fill="white" stroke="black" points="427,-63.5 427,-82.5 549,-82.5 549,-63.5 427,-63.5"/>
<text text-anchor="middle" x="488" y="-70.5" font-family="Helvetica,sans-Serif" font-size="10.00">util.RecycleManager.get</text>
</a>
</g>
</g>
<!-- Node3&#45;&gt;Node4 -->
<g id="edge3" class="edge">
<title>Node3&#45;&gt;Node4</title>
<path fill="none" stroke="midnightblue" d="M633.16,-55.38C609.23,-58.31 577.16,-62.23 549.34,-65.62"/>
<polygon fill="midnightblue" stroke="midnightblue" points="633.71,-58.84 643.21,-54.15 632.86,-51.89 633.71,-58.84"/>
</g>
<!-- Node5 -->
<g id="node5" class="node">
<title>Node5</title>
<g id="a_node5"><a xlink:href="classmachine_1_1_o_v_machine.html#afcb7bfddbaa58f232f8b97b5b1a6b74f" target="_top" xlink:title="文字列表現を返す">
<polygon fill="white" stroke="black" points="412,-14 412,-44 564,-44 564,-14 412,-14"/>
<text text-anchor="start" x="420" y="-32" font-family="Helvetica,sans-Serif" font-size="10.00">machine.OVMachine.opStacks</text>
<text text-anchor="middle" x="488" y="-21" font-family="Helvetica,sans-Serif" font-size="10.00">ToString</text>
</a>
</g>
</g>
<!-- Node3&#45;&gt;Node5 -->
<g id="edge4" class="edge">
<title>Node3&#45;&gt;Node5</title>
<path fill="none" stroke="midnightblue" d="M633.13,-46.62C613.36,-44.2 588.05,-41.11 564.17,-38.19"/>
<polygon fill="midnightblue" stroke="midnightblue" points="632.86,-50.11 643.21,-47.85 633.71,-43.16 632.86,-50.11"/>
</g>
<!-- Node6 -->
<g id="node6" class="node">
<title>Node6</title>
<g id="a_node6"><a xlink:href="classmachine_1_1_o_v_machine.html#a4171d94cd3db7876e92db22ba965dab7" target="_top" xlink:title="与えられた環境と呼び出し情報のもとで、仮想機械プログラムを実行する。">
<polygon fill="white" stroke="black" points="194,-38.5 194,-57.5 376,-57.5 376,-38.5 194,-38.5"/>
<text text-anchor="middle" x="285" y="-45.5" font-family="Helvetica,sans-Serif" font-size="10.00">machine.OVMachine.execCommands</text>
</a>
</g>
</g>
<!-- Node5&#45;&gt;Node6 -->
<g id="edge5" class="edge">
<title>Node5&#45;&gt;Node6</title>
<path fill="none" stroke="midnightblue" d="M401.71,-37.06C393.31,-37.86 384.76,-38.66 376.31,-39.46"/>
<polygon fill="midnightblue" stroke="midnightblue" points="402.24,-40.53 411.87,-36.1 401.58,-33.56 402.24,-40.53"/>
</g>
<!-- Node8 -->
<g id="node8" class="node">
<title>Node8</title>
<g id="a_node8"><a xlink:href="classmachine_1_1_o_v_machine.html#ad146fa8579a5f8a876c4688cc5a68520" target="_top" xlink:title="文字列表現を返す">
<polygon fill="white" stroke="black" points="213,-0.5 213,-19.5 357,-19.5 357,-0.5 213,-0.5"/>
<text text-anchor="middle" x="285" y="-7.5" font-family="Helvetica,sans-Serif" font-size="10.00">machine.OVMachine.toString</text>
</a>
</g>
</g>
<!-- Node5&#45;&gt;Node8 -->
<g id="edge7" class="edge">
<title>Node5&#45;&gt;Node8</title>
<path fill="none" stroke="midnightblue" d="M401.67,-20.93C386.8,-19.53 371.48,-18.08 357.05,-16.72"/>
<polygon fill="midnightblue" stroke="midnightblue" points="401.58,-24.44 411.87,-21.9 402.24,-17.47 401.58,-24.44"/>
</g>
<!-- Node7 -->
<g id="node7" class="node">
<title>Node7</title>
<g id="a_node7"><a xlink:href="classmachine_1_1_x_machine.html#a9775fe1388ad800fb595915ddbee7f95" target="_top" xlink:title="終了イベントに対して、指定されたタグマップを用いて、実行系を動作させる。">
<polygon fill="white" stroke="black" points="0,-38.5 0,-57.5 158,-57.5 158,-38.5 0,-38.5"/>
<text text-anchor="middle" x="79" y="-45.5" font-family="Helvetica,sans-Serif" font-size="10.00">machine.XMachine.execBLOCK</text>
</a>
</g>
</g>
<!-- Node6&#45;&gt;Node7 -->
<g id="edge6" class="edge">
<title>Node6&#45;&gt;Node7</title>
<path fill="none" stroke="midnightblue" d="M183.8,-48C175.16,-48 166.5,-48 158.07,-48"/>
<polygon fill="midnightblue" stroke="midnightblue" points="183.93,-51.5 193.93,-48 183.93,-44.5 183.93,-51.5"/>
</g>
</g>
</svg>
        <g id="navigator" transform="translate(0 0)" fill="#404254">
                <rect fill="#f2f5e9" fill-opacity="0.5" stroke="#606060" stroke-width=".5" x="0" y="0" width="60" height="60"/>
                <use id="zoomplus" xlink:href="#zoomPlus" x="17" y="9" onmousedown="handleZoom(evt,'in')"/>
                <use id="zoomminus" xlink:href="#zoomMin" x="42" y="9" onmousedown="handleZoom(evt,'out')"/>
                <use id="reset" xlink:href="#resetDef" x="30" y="36" onmousedown="handleReset()"/>
                <g id="arrowUp" xlink:href="#dirArrow" transform="translate(30 24)" onmousedown="handlePan(0,-1)">
                  <use xlink:href="#rim" fill="#404040">
                        <set attributeName="fill" to="#808080" begin="arrowUp.mouseover" end="arrowUp.mouseout"/>
                  </use>
                  <path fill="none" stroke="white" stroke-width="1.5" d="M0,-3.0v7 M-2.5,-0.5L0,-3.0L2.5,-0.5"/>
                </g>
                <g id="arrowRight" xlink:href="#dirArrow" transform="rotate(90) translate(36 -43)" onmousedown="handlePan(1,0)">
                  <use xlink:href="#rim" fill="#404040">
                        <set attributeName="fill" to="#808080" begin="arrowRight.mouseover" end="arrowRight.mouseout"/>
                  </use>
                  <path fill="none" stroke="white" stroke-width="1.5" d="M0,-3.0v7 M-2.5,-0.5L0,-3.0L2.5,-0.5"/>
                </g>
                <g id="arrowDown" xlink:href="#dirArrow" transform="rotate(180) translate(-30 -48)" onmousedown="handlePan(0,1)">
                  <use xlink:href="#rim" fill="#404040">
                        <set attributeName="fill" to="#808080" begin="arrowDown.mouseover" end="arrowDown.mouseout"/>
                  </use>
                  <path fill="none" stroke="white" stroke-width="1.5" d="M0,-3.0v7 M-2.5,-0.5L0,-3.0L2.5,-0.5"/>
                </g>
                <g id="arrowLeft" xlink:href="#dirArrow" transform="rotate(270) translate(-36 17)" onmousedown="handlePan(-1,0)">
                  <use xlink:href="#rim" fill="#404040">
                        <set attributeName="fill" to="#808080" begin="arrowLeft.mouseover" end="arrowLeft.mouseout"/>
                  </use>
                  <path fill="none" stroke="white" stroke-width="1.5" d="M0,-3.0v7 M-2.5,-0.5L0,-3.0L2.5,-0.5"/>
                </g>
        </g>
        <svg viewBox="0 0 15 15" width="100%" height="30px" preserveAspectRatio="xMaxYMin meet">
         <g id="arrow_out" transform="scale(0.3 0.3)">
          <a xlink:href="classutil_1_1_stack_base_af4b57d21919c42d55af03391f91a1c08_icgraph_org.svg" target="_base">
           <rect id="button" ry="5" rx="5" y="6" x="6" height="38" width="38"
                fill="#f2f5e9" fill-opacity="0.5" stroke="#606060" stroke-width="1.0"/>
           <path id="arrow"
             d="M 11.500037,31.436501 C 11.940474,20.09759 22.043105,11.32322 32.158766,21.979434 L 37.068811,17.246167 C 37.068811,17.246167 37.088388,32 37.088388,32 L 22.160133,31.978069 C 22.160133,31.978069 26.997745,27.140456 26.997745,27.140456 C 18.528582,18.264221 13.291696,25.230495 11.500037,31.436501 z"
             style="fill:#404040;"/>
          </a>
         </g>
        </svg>
</svg>
