<?xml version="1.0" encoding="UTF-8" standalone="no"?>
<!DOCTYPE svg PUBLIC "-//W3C//DTD SVG 1.1//EN"
 "http://www.w3.org/Graphics/SVG/1.1/DTD/svg11.dtd">
<!-- Generated by graphviz version 2.47.0 (20210316.0004)
 -->
<!-- Title: ty Pages: 1 -->
<svg width="803pt" height="519pt"
 viewBox="0.00 0.00 803.00 519.00" xmlns="http://www.w3.org/2000/svg" xmlns:xlink="http://www.w3.org/1999/xlink">
<g id="graph0" class="graph" transform="scale(1 1) rotate(0) translate(4 515)">
<title>ty</title>
<polygon fill="white" stroke="transparent" points="-4,4 -4,-515 799,-515 799,4 -4,4"/>
<!-- Node1 -->
<g id="node1" class="node">
<title>Node1</title>
<g id="a_node1"><a xlink:title="この型変数thisがもつ値型を返す。">
<polygon fill="#bfbfbf" stroke="black" points="766,-213.5 766,-232.5 795,-232.5 795,-213.5 766,-213.5"/>
<text text-anchor="middle" x="780.5" y="-220.5" font-family="Helvetica,sans-Serif" font-size="10.00">ty</text>
</a>
</g>
</g>
<!-- Node2 -->
<g id="node2" class="node">
<title>Node2</title>
<g id="a_node2"><a xlink:href="classtype_1_1_basic_typing.html#ac773e3c20a29c208fea84c33d8b35cd2" target="_top" xlink:title="子型の文字列表現を返す。">
<polygon fill="white" stroke="black" points="584.5,-431.5 584.5,-450.5 720.5,-450.5 720.5,-431.5 584.5,-431.5"/>
<text text-anchor="middle" x="652.5" y="-438.5" font-family="Helvetica,sans-Serif" font-size="10.00">type.BasicTyping.childData</text>
</a>
</g>
</g>
<!-- Node1&#45;&gt;Node2 -->
<g id="edge1" class="edge">
<title>Node1&#45;&gt;Node2</title>
<path fill="none" stroke="midnightblue" d="M773.37,-242.26C765.23,-266.61 749.55,-309.4 730,-343 709.59,-378.07 677.9,-414.48 662.51,-431.35"/>
<polygon fill="midnightblue" stroke="midnightblue" points="776.7,-243.34 776.48,-232.75 770.05,-241.16 776.7,-243.34"/>
</g>
<!-- Node6 -->
<g id="node6" class="node">
<title>Node6</title>
<g id="a_node6"><a xlink:href="classast_1_1_ast_assign.html#ae1ba45bad2d2854e7378d5322c0c2c57" target="_top" xlink:title="コードを生成する．">
<polygon fill="white" stroke="black" points="593.5,-314.5 593.5,-333.5 711.5,-333.5 711.5,-314.5 593.5,-314.5"/>
<text text-anchor="middle" x="652.5" y="-321.5" font-family="Helvetica,sans-Serif" font-size="10.00">ast.AstAssign.gencode</text>
</a>
</g>
</g>
<!-- Node1&#45;&gt;Node6 -->
<g id="edge6" class="edge">
<title>Node1&#45;&gt;Node6</title>
<path fill="none" stroke="midnightblue" d="M772.93,-242.14C765.47,-260.98 751.47,-289.17 730,-305 724.49,-309.06 718.22,-312.26 711.69,-314.78"/>
<polygon fill="midnightblue" stroke="midnightblue" points="776.3,-243.12 776.49,-232.53 769.73,-240.69 776.3,-243.12"/>
</g>
<!-- Node7 -->
<g id="node7" class="node">
<title>Node7</title>
<g id="a_node7"><a xlink:href="classast_1_1_ast_oper.html#aade0b6f6dbcac3769520224b8b04130c" target="_top" xlink:title="二つの非演算子である子供のコードを生成す">
<polygon fill="white" stroke="black" points="575,-276.5 575,-295.5 730,-295.5 730,-276.5 575,-276.5"/>
<text text-anchor="middle" x="652.5" y="-283.5" font-family="Helvetica,sans-Serif" font-size="10.00">ast.AstOper.generateChildCode</text>
</a>
</g>
</g>
<!-- Node1&#45;&gt;Node7 -->
<g id="edge7" class="edge">
<title>Node1&#45;&gt;Node7</title>
<path fill="none" stroke="midnightblue" d="M758.28,-238.6C749.74,-244.48 739.65,-250.97 730,-256 714.7,-263.98 696.77,-271.12 682.12,-276.43"/>
<polygon fill="midnightblue" stroke="midnightblue" points="760.38,-241.4 766.53,-232.77 756.34,-235.68 760.38,-241.4"/>
</g>
<!-- Node16 -->
<g id="node16" class="node">
<title>Node16</title>
<g id="a_node16"><a xlink:href="classtype_1_1_x_type_item.html#a8f3ab9d29a49a3c79ee1d258d2d0b613" target="_top" xlink:title="この型変数thisの値型を指定された上限の値型に制約する（上限で置き換える）。成功すればtrueを返し、そうでなければfalseを返す。">
<polygon fill="white" stroke="black" points="432.5,-126.5 432.5,-145.5 461.5,-145.5 461.5,-126.5 432.5,-126.5"/>
<text text-anchor="middle" x="447" y="-133.5" font-family="Helvetica,sans-Serif" font-size="10.00">lift</text>
</a>
</g>
</g>
<!-- Node1&#45;&gt;Node16 -->
<g id="edge16" class="edge">
<title>Node1&#45;&gt;Node16</title>
<path fill="none" stroke="midnightblue" d="M756.1,-230.26C715.83,-241.26 632.24,-257.46 575,-223 545.7,-205.36 566.33,-175.56 539,-155 516.04,-137.73 481.01,-135.29 461.8,-135.41"/>
<polygon fill="midnightblue" stroke="midnightblue" points="757.16,-233.59 765.81,-227.47 755.23,-226.86 757.16,-233.59"/>
</g>
<!-- Node17 -->
<g id="node17" class="node">
<title>Node17</title>
<g id="a_node17"><a xlink:href="classtype_1_1_x_type_item.html#a14d03fd612a033d16306576e10febe7a" target="_top" xlink:title="この型変数thisの値型が指定された値型に制約可能ならばtrueを返し、そうでなければfalseを返す。">
<polygon fill="white" stroke="black" points="630,-194.5 630,-213.5 675,-213.5 675,-194.5 630,-194.5"/>
<text text-anchor="middle" x="652.5" y="-201.5" font-family="Helvetica,sans-Serif" font-size="10.00">liftable</text>
</a>
</g>
</g>
<!-- Node1&#45;&gt;Node17 -->
<g id="edge17" class="edge">
<title>Node1&#45;&gt;Node17</title>
<path fill="none" stroke="midnightblue" d="M755.48,-219.38C732.28,-215.88 697.46,-210.63 675.1,-207.26"/>
<polygon fill="midnightblue" stroke="midnightblue" points="755.12,-222.86 765.53,-220.89 756.17,-215.94 755.12,-222.86"/>
</g>
<!-- Node18 -->
<g id="node18" class="node">
<title>Node18</title>
<g id="a_node18"><a xlink:href="classmachine_1_1_var.html#aac66012db63fd274931e6690afa76212" target="_top" xlink:title="データ型を返す.">
<polygon fill="white" stroke="black" points="606.5,-156.5 606.5,-175.5 698.5,-175.5 698.5,-156.5 606.5,-156.5"/>
<text text-anchor="middle" x="652.5" y="-163.5" font-family="Helvetica,sans-Serif" font-size="10.00">machine.Var.type</text>
</a>
</g>
</g>
<!-- Node1&#45;&gt;Node18 -->
<g id="edge19" class="edge">
<title>Node1&#45;&gt;Node18</title>
<path fill="none" stroke="midnightblue" d="M761.95,-206.66C752.98,-199.09 741.54,-190.56 730,-185 720.26,-180.31 709.25,-176.7 698.67,-173.96"/>
<polygon fill="midnightblue" stroke="midnightblue" points="759.89,-209.51 769.71,-213.49 764.52,-204.26 759.89,-209.51"/>
</g>
<!-- Node19 -->
<g id="node19" class="node">
<title>Node19</title>
<g id="a_node19"><a xlink:href="classtype_1_1_x_type_item.html#a873823a56369ff4fac9157d8e6f7ec61" target="_top" xlink:title="この型変数thisと指定された型変数が単一化可能ならばtrueを返し、そうでなければfalseを返す。">
<polygon fill="white" stroke="black" points="626,-118.5 626,-137.5 679,-137.5 679,-118.5 626,-118.5"/>
<text text-anchor="middle" x="652.5" y="-125.5" font-family="Helvetica,sans-Serif" font-size="10.00">unifiable</text>
</a>
</g>
</g>
<!-- Node1&#45;&gt;Node19 -->
<g id="edge20" class="edge">
<title>Node1&#45;&gt;Node19</title>
<path fill="none" stroke="midnightblue" d="M772.08,-204.18C764.22,-186.72 750.16,-161.35 730,-147 715.17,-136.45 695.1,-131.73 679.24,-129.64"/>
<polygon fill="midnightblue" stroke="midnightblue" points="768.86,-205.55 775.98,-213.39 775.31,-202.82 768.86,-205.55"/>
</g>
<!-- Node20 -->
<g id="node20" class="node">
<title>Node20</title>
<g id="a_node20"><a xlink:href="classtype_1_1_x_type_item.html#a3057d3707a7f0e95cbc88e49f41e8a4c" target="_top" xlink:title="この型変数thisと指定された型変数を単一化する（同じ同値類にする）。成功すればtrueを返し、そうでなければfalseを返す。">
<polygon fill="white" stroke="black" points="633.5,-69.5 633.5,-88.5 671.5,-88.5 671.5,-69.5 633.5,-69.5"/>
<text text-anchor="middle" x="652.5" y="-76.5" font-family="Helvetica,sans-Serif" font-size="10.00">unify</text>
</a>
</g>
</g>
<!-- Node1&#45;&gt;Node20 -->
<g id="edge21" class="edge">
<title>Node1&#45;&gt;Node20</title>
<path fill="none" stroke="midnightblue" d="M775.86,-203.52C770.21,-178.47 757.05,-135.1 730,-109 713.88,-93.45 688.76,-85.69 671.74,-82.01"/>
<polygon fill="midnightblue" stroke="midnightblue" points="772.43,-204.24 777.89,-213.32 779.28,-202.82 772.43,-204.24"/>
</g>
<!-- Node3 -->
<g id="node3" class="node">
<title>Node3</title>
<g id="a_node3"><a xlink:href="classtype_1_1_basic_typing.html#a3137357d0abb2bd75321d6e19024956a" target="_top" xlink:title="演算子型の文字列表現を返す。">
<polygon fill="white" stroke="black" points="390.5,-491.5 390.5,-510.5 503.5,-510.5 503.5,-491.5 390.5,-491.5"/>
<text text-anchor="middle" x="447" y="-498.5" font-family="Helvetica,sans-Serif" font-size="10.00">type.BasicTyping.data</text>
</a>
</g>
</g>
<!-- Node2&#45;&gt;Node3 -->
<g id="edge2" class="edge">
<title>Node2&#45;&gt;Node3</title>
<path fill="none" stroke="midnightblue" d="M618.81,-454.33C596.58,-463.04 566.34,-474.21 539,-482 526.58,-485.54 513.04,-488.72 500.29,-491.43"/>
<polygon fill="midnightblue" stroke="midnightblue" points="620.11,-457.58 628.12,-450.64 617.53,-451.07 620.11,-457.58"/>
</g>
<!-- Node4 -->
<g id="node4" class="node">
<title>Node4</title>
<g id="a_node4"><a xlink:href="classtype_1_1_basic_typing.html#ad146fa8579a5f8a876c4688cc5a68520" target="_top" xlink:title="演算子型の文字列表現を返す。">
<polygon fill="white" stroke="black" points="191,-491.5 191,-510.5 319,-510.5 319,-491.5 191,-491.5"/>
<text text-anchor="middle" x="255" y="-498.5" font-family="Helvetica,sans-Serif" font-size="10.00">type.BasicTyping.toString</text>
</a>
</g>
</g>
<!-- Node3&#45;&gt;Node4 -->
<g id="edge3" class="edge">
<title>Node3&#45;&gt;Node4</title>
<path fill="none" stroke="midnightblue" d="M380.12,-494.54C360.33,-494.13 338.67,-494.15 319.06,-494.6"/>
<polygon fill="midnightblue" stroke="midnightblue" points="380.19,-498.04 390.28,-494.79 380.37,-491.05 380.19,-498.04"/>
</g>
<!-- Node4&#45;&gt;Node3 -->
<g id="edge5" class="edge">
<title>Node4&#45;&gt;Node3</title>
<path fill="none" stroke="midnightblue" d="M329.2,-507.59C349.49,-507.89 371.17,-507.77 390.28,-507.21"/>
<polygon fill="midnightblue" stroke="midnightblue" points="329.13,-504.09 319.06,-507.4 329,-511.09 329.13,-504.09"/>
</g>
<!-- Node5 -->
<g id="node5" class="node">
<title>Node5</title>
<g id="a_node5"><a xlink:href="classtype_1_1_child_hom_typing.html#ac773e3c20a29c208fea84c33d8b35cd2" target="_top" xlink:title="子型の文字列表現を返す。">
<polygon fill="white" stroke="black" points="0,-491.5 0,-510.5 155,-510.5 155,-491.5 0,-491.5"/>
<text text-anchor="middle" x="77.5" y="-498.5" font-family="Helvetica,sans-Serif" font-size="10.00">type.ChildHomTyping.childData</text>
</a>
</g>
</g>
<!-- Node4&#45;&gt;Node5 -->
<g id="edge4" class="edge">
<title>Node4&#45;&gt;Node5</title>
<path fill="none" stroke="midnightblue" d="M180.55,-501C172.18,-501 163.64,-501 155.24,-501"/>
<polygon fill="midnightblue" stroke="midnightblue" points="180.64,-504.5 190.64,-501 180.64,-497.5 180.64,-504.5"/>
</g>
<!-- Node8 -->
<g id="node8" class="node">
<title>Node8</title>
<g id="a_node8"><a xlink:href="classast_1_1_ast_math_oper_1_1_integer_oper.html#ae1ba45bad2d2854e7378d5322c0c2c57" target="_top" xlink:title="コードを生成する．">
<polygon fill="white" stroke="black" points="355.5,-453.5 355.5,-472.5 538.5,-472.5 538.5,-453.5 355.5,-453.5"/>
<text text-anchor="middle" x="447" y="-460.5" font-family="Helvetica,sans-Serif" font-size="10.00">ast.AstMathOper.IntegerOper.gencode</text>
</a>
</g>
</g>
<!-- Node7&#45;&gt;Node8 -->
<g id="edge8" class="edge">
<title>Node7&#45;&gt;Node8</title>
<path fill="none" stroke="midnightblue" d="M579.64,-300.97C578.01,-302.22 576.46,-303.56 575,-305 529.65,-349.9 585.19,-399.96 539,-444 535.03,-447.79 530.51,-450.9 525.65,-453.46"/>
<polygon fill="midnightblue" stroke="midnightblue" points="581.71,-303.8 588.33,-295.53 577.99,-297.87 581.71,-303.8"/>
</g>
<!-- Node9 -->
<g id="node9" class="node">
<title>Node9</title>
<g id="a_node9"><a xlink:href="classast_1_1_ast_math_oper_1_1_integer_rel.html#ae1ba45bad2d2854e7378d5322c0c2c57" target="_top" xlink:title="コードを生成する．">
<polygon fill="white" stroke="black" points="358,-415.5 358,-434.5 536,-434.5 536,-415.5 358,-415.5"/>
<text text-anchor="middle" x="447" y="-422.5" font-family="Helvetica,sans-Serif" font-size="10.00">ast.AstMathOper.IntegerRel.gencode</text>
</a>
</g>
</g>
<!-- Node7&#45;&gt;Node9 -->
<g id="edge9" class="edge">
<title>Node7&#45;&gt;Node9</title>
<path fill="none" stroke="midnightblue" d="M580.5,-300.66C578.57,-301.99 576.73,-303.43 575,-305 539.68,-336.99 574.92,-374.68 539,-406 534.62,-409.82 529.67,-412.94 524.41,-415.48"/>
<polygon fill="midnightblue" stroke="midnightblue" points="582.49,-303.55 589.43,-295.55 579.02,-297.48 582.49,-303.55"/>
</g>
<!-- Node10 -->
<g id="node10" class="node">
<title>Node10</title>
<g id="a_node10"><a xlink:href="classast_1_1_ast_math_oper_1_1_double_oper.html#ae1ba45bad2d2854e7378d5322c0c2c57" target="_top" xlink:title="コードを生成する．">
<polygon fill="white" stroke="black" points="355,-377.5 355,-396.5 539,-396.5 539,-377.5 355,-377.5"/>
<text text-anchor="middle" x="447" y="-384.5" font-family="Helvetica,sans-Serif" font-size="10.00">ast.AstMathOper.DoubleOper.gencode</text>
</a>
</g>
</g>
<!-- Node7&#45;&gt;Node10 -->
<g id="edge10" class="edge">
<title>Node7&#45;&gt;Node10</title>
<path fill="none" stroke="midnightblue" d="M582.89,-299.9C580.13,-301.43 577.48,-303.12 575,-305 549.28,-324.45 565.08,-349.03 539,-368 533.78,-371.8 527.97,-374.87 521.88,-377.36"/>
<polygon fill="midnightblue" stroke="midnightblue" points="584.51,-303 592.05,-295.56 581.51,-296.68 584.51,-303"/>
</g>
<!-- Node11 -->
<g id="node11" class="node">
<title>Node11</title>
<g id="a_node11"><a xlink:href="classast_1_1_ast_math_oper_1_1_double_rel.html#ae1ba45bad2d2854e7378d5322c0c2c57" target="_top" xlink:title="コードを生成する．">
<polygon fill="white" stroke="black" points="357.5,-339.5 357.5,-358.5 536.5,-358.5 536.5,-339.5 357.5,-339.5"/>
<text text-anchor="middle" x="447" y="-346.5" font-family="Helvetica,sans-Serif" font-size="10.00">ast.AstMathOper.DoubleRel.gencode</text>
</a>
</g>
</g>
<!-- Node7&#45;&gt;Node11 -->
<g id="edge11" class="edge">
<title>Node7&#45;&gt;Node11</title>
<path fill="none" stroke="midnightblue" d="M591.85,-298.54C586.06,-300.43 580.35,-302.58 575,-305 557.26,-313.04 556.89,-322.3 539,-330 529.96,-333.89 520.06,-337.01 510.22,-339.5"/>
<polygon fill="midnightblue" stroke="midnightblue" points="593.07,-301.83 601.63,-295.59 591.05,-295.13 593.07,-301.83"/>
</g>
<!-- Node12 -->
<g id="node12" class="node">
<title>Node12</title>
<g id="a_node12"><a xlink:href="classast_1_1_ast_math_oper_1_1_pre_term.html#ae1ba45bad2d2854e7378d5322c0c2c57" target="_top" xlink:title="コードを生成する．">
<polygon fill="white" stroke="black" points="362,-301.5 362,-320.5 532,-320.5 532,-301.5 362,-301.5"/>
<text text-anchor="middle" x="447" y="-308.5" font-family="Helvetica,sans-Serif" font-size="10.00">ast.AstMathOper.PreTerm.gencode</text>
</a>
</g>
</g>
<!-- Node7&#45;&gt;Node12 -->
<g id="edge12" class="edge">
<title>Node7&#45;&gt;Node12</title>
<path fill="none" stroke="midnightblue" d="M564.56,-296.68C551.61,-298.27 538.33,-299.9 525.59,-301.47"/>
<polygon fill="midnightblue" stroke="midnightblue" points="565.36,-300.11 574.86,-295.42 564.5,-293.16 565.36,-300.11"/>
</g>
<!-- Node13 -->
<g id="node13" class="node">
<title>Node13</title>
<g id="a_node13"><a xlink:href="classast_1_1_string_rel_1_1_string_match_rel.html#ae1ba45bad2d2854e7378d5322c0c2c57" target="_top" xlink:title="コードを生成する．">
<polygon fill="white" stroke="black" points="382.5,-252 382.5,-282 511.5,-282 511.5,-252 382.5,-252"/>
<text text-anchor="start" x="390.5" y="-270" font-family="Helvetica,sans-Serif" font-size="10.00">ast.StringRel.StringMatch</text>
<text text-anchor="middle" x="447" y="-259" font-family="Helvetica,sans-Serif" font-size="10.00">Rel.gencode</text>
</a>
</g>
</g>
<!-- Node7&#45;&gt;Node13 -->
<g id="edge13" class="edge">
<title>Node7&#45;&gt;Node13</title>
<path fill="none" stroke="midnightblue" d="M564.49,-277.88C546.74,-276.22 528.38,-274.5 511.63,-272.94"/>
<polygon fill="midnightblue" stroke="midnightblue" points="564.57,-281.4 574.86,-278.84 565.22,-274.43 564.57,-281.4"/>
</g>
<!-- Node14 -->
<g id="node14" class="node">
<title>Node14</title>
<g id="a_node14"><a xlink:href="classast_1_1_string_rel_1_1_regex_match_rel.html#ae1ba45bad2d2854e7378d5322c0c2c57" target="_top" xlink:title="コードを生成する．">
<polygon fill="white" stroke="black" points="381,-203 381,-233 513,-233 513,-203 381,-203"/>
<text text-anchor="start" x="389" y="-221" font-family="Helvetica,sans-Serif" font-size="10.00">ast.StringRel.RegexMatch</text>
<text text-anchor="middle" x="447" y="-210" font-family="Helvetica,sans-Serif" font-size="10.00">Rel.gencode</text>
</a>
</g>
</g>
<!-- Node7&#45;&gt;Node14 -->
<g id="edge14" class="edge">
<title>Node7&#45;&gt;Node14</title>
<path fill="none" stroke="midnightblue" d="M617.56,-272.61C590.21,-261.9 553.95,-247.9 539,-243 528.41,-239.53 517.03,-236.14 506.02,-233.03"/>
<polygon fill="midnightblue" stroke="midnightblue" points="616.58,-275.99 627.17,-276.38 619.14,-269.47 616.58,-275.99"/>
</g>
<!-- Node15 -->
<g id="node15" class="node">
<title>Node15</title>
<g id="a_node15"><a xlink:href="classast_1_1_ast_func_call.html#a383612fb2c1d291f6f3f9c352a5cb262" target="_top" xlink:title="コードを生成する．">
<polygon fill="white" stroke="black" points="383.5,-164.5 383.5,-183.5 510.5,-183.5 510.5,-164.5 383.5,-164.5"/>
<text text-anchor="middle" x="447" y="-171.5" font-family="Helvetica,sans-Serif" font-size="10.00">ast.AstFuncCall.gencode</text>
</a>
</g>
</g>
<!-- Node7&#45;&gt;Node15 -->
<g id="edge15" class="edge">
<title>Node7&#45;&gt;Node15</title>
<path fill="none" stroke="midnightblue" d="M603.04,-272.67C593.05,-268.43 583.12,-262.97 575,-256 550.82,-235.25 564.74,-212.79 539,-194 530.64,-187.9 520.77,-183.59 510.67,-180.58"/>
<polygon fill="midnightblue" stroke="midnightblue" points="601.98,-276.01 612.57,-276.37 604.51,-269.49 601.98,-276.01"/>
</g>
<!-- Node17&#45;&gt;Node16 -->
<g id="edge18" class="edge">
<title>Node17&#45;&gt;Node16</title>
<path fill="none" stroke="midnightblue" d="M619.94,-199.48C605.69,-196.61 588.95,-192.07 575,-185 556.42,-175.58 557.75,-164.06 539,-155 513.43,-142.64 480,-138.29 461.61,-136.78"/>
<polygon fill="midnightblue" stroke="midnightblue" points="619.35,-202.93 629.81,-201.28 620.6,-196.04 619.35,-202.93"/>
</g>
<!-- Node21 -->
<g id="node21" class="node">
<title>Node21</title>
<g id="a_node21"><a xlink:href="classtype_1_1_child_hom_typing.html#a63c4b84e072ab3ea55255ba2d1259643" target="_top" xlink:title="子として，型をもつ型項を追加する．">
<polygon fill="white" stroke="black" points="371,-88.5 371,-107.5 523,-107.5 523,-88.5 371,-88.5"/>
<text text-anchor="middle" x="447" y="-95.5" font-family="Helvetica,sans-Serif" font-size="10.00">type.ChildHomTyping.addChild</text>
</a>
</g>
</g>
<!-- Node20&#45;&gt;Node21 -->
<g id="edge22" class="edge">
<title>Node20&#45;&gt;Node21</title>
<path fill="none" stroke="midnightblue" d="M623.28,-81.63C597.53,-84.04 558.29,-87.7 523.46,-90.95"/>
<polygon fill="midnightblue" stroke="midnightblue" points="623.81,-85.1 633.44,-80.69 623.16,-78.13 623.81,-85.1"/>
</g>
<!-- Node22 -->
<g id="node22" class="node">
<title>Node22</title>
<g id="a_node22"><a xlink:href="classast_1_1_ast_data_reader_1_1_reader_type.html#a5bd7371112ac4f681b98d88f23b16f95" target="_top" xlink:title="局所変数を設定する.">
<polygon fill="white" stroke="black" points="380,-39 380,-69 514,-69 514,-39 380,-39"/>
<text text-anchor="start" x="388" y="-57" font-family="Helvetica,sans-Serif" font-size="10.00">ast.AstDataReader.Reader</text>
<text text-anchor="middle" x="447" y="-46" font-family="Helvetica,sans-Serif" font-size="10.00">Type.setVar</text>
</a>
</g>
</g>
<!-- Node20&#45;&gt;Node22 -->
<g id="edge23" class="edge">
<title>Node20&#45;&gt;Node22</title>
<path fill="none" stroke="midnightblue" d="M623.15,-75.52C595.07,-72.07 551.03,-66.66 514.14,-62.13"/>
<polygon fill="midnightblue" stroke="midnightblue" points="623.09,-79.04 633.44,-76.78 623.94,-72.09 623.09,-79.04"/>
</g>
<!-- Node23 -->
<g id="node23" class="node">
<title>Node23</title>
<g id="a_node23"><a xlink:href="classast_1_1_ast_var_decl.html#a04f4f26c93cddb6d734a1b7d9fb9d1fa" target="_top" xlink:title="@breif">
<polygon fill="white" stroke="black" points="390.5,-0.5 390.5,-19.5 503.5,-19.5 503.5,-0.5 390.5,-0.5"/>
<text text-anchor="middle" x="447" y="-7.5" font-family="Helvetica,sans-Serif" font-size="10.00">ast.AstVarDecl.setVar</text>
</a>
</g>
</g>
<!-- Node20&#45;&gt;Node23 -->
<g id="edge24" class="edge">
<title>Node20&#45;&gt;Node23</title>
<path fill="none" stroke="midnightblue" d="M624.04,-64.82C601.65,-53.74 568.95,-38.66 539,-29 527.63,-25.33 515.23,-22.2 503.35,-19.6"/>
<polygon fill="midnightblue" stroke="midnightblue" points="622.75,-68.09 633.26,-69.44 625.89,-61.83 622.75,-68.09"/>
</g>
</g>
</svg>
