<?xml version="1.0" encoding="UTF-8" standalone="no"?>
<!DOCTYPE svg PUBLIC "-//W3C//DTD SVG 1.1//EN"
 "http://www.w3.org/Graphics/SVG/1.1/DTD/svg11.dtd">
<!-- Generated by graphviz version 2.38.0 (20140413.2041)
 -->
<!-- Title: queryParser.StrTermTextContext Pages: 1 -->
<svg width="169pt" height="137pt"
 viewBox="0.00 0.00 168.50 137.00" xmlns="http://www.w3.org/2000/svg" xmlns:xlink="http://www.w3.org/1999/xlink">
<g id="graph0" class="graph" transform="scale(1 1) rotate(0) translate(4 133)">
<title>queryParser.StrTermTextContext</title>
<polygon fill="white" stroke="none" points="-4,4 -4,-133 164.502,-133 164.502,4 -4,4"/>
<!-- Node1 -->
<g id="node1" class="node"><title>Node1</title>
<g id="a_node1"><a xlink:title=" ">
<polygon fill="#bfbfbf" stroke="black" points="0,-0.5 0,-18.5 160.502,-18.5 160.502,-0.5 0,-0.5"/>
<text text-anchor="middle" x="80.251" y="-6.5" font-family="Helvetica,sans-Serif" font-size="10.00">queryParser.StrTermTextContext</text>
</a>
</g>
</g>
<!-- Node2 -->
<g id="node2" class="node"><title>Node2</title>
<g id="a_node2"><a xlink:href="classparse_1_1query_parser_1_1_str_term_context.html" target="_top" xlink:title=" ">
<polygon fill="white" stroke="black" points="9.16992,-55.5 9.16992,-73.5 151.332,-73.5 151.332,-55.5 9.16992,-55.5"/>
<text text-anchor="middle" x="80.251" y="-61.5" font-family="Helvetica,sans-Serif" font-size="10.00">queryParser.StrTermContext</text>
</a>
</g>
</g>
<!-- Node2&#45;&gt;Node1 -->
<g id="edge1" class="edge"><title>Node2&#45;&gt;Node1</title>
<path fill="none" stroke="midnightblue" d="M80.251,-45.1746C80.251,-36.0945 80.251,-25.5949 80.251,-18.5496"/>
<polygon fill="midnightblue" stroke="midnightblue" points="76.7511,-45.2187 80.251,-55.2188 83.7511,-45.2188 76.7511,-45.2187"/>
</g>
<!-- Node3 -->
<g id="node3" class="node"><title>Node3</title>
<g id="a_node3"><a xlink:title=" ">
<polygon fill="white" stroke="#bfbfbf" points="30.0098,-110.5 30.0098,-128.5 130.492,-128.5 130.492,-110.5 30.0098,-110.5"/>
<text text-anchor="middle" x="80.251" y="-116.5" font-family="Helvetica,sans-Serif" font-size="10.00">ParserRuleContext</text>
</a>
</g>
</g>
<!-- Node3&#45;&gt;Node2 -->
<g id="edge2" class="edge"><title>Node3&#45;&gt;Node2</title>
<path fill="none" stroke="midnightblue" d="M80.251,-100.175C80.251,-91.0945 80.251,-80.5949 80.251,-73.5496"/>
<polygon fill="midnightblue" stroke="midnightblue" points="76.7511,-100.219 80.251,-110.219 83.7511,-100.219 76.7511,-100.219"/>
</g>
</g>
</svg>
