<?xml version="1.0" encoding="UTF-8" standalone="no"?>
<!DOCTYPE svg PUBLIC "-//W3C//DTD SVG 1.1//EN"
 "http://www.w3.org/Graphics/SVG/1.1/DTD/svg11.dtd">
<!-- Generated by graphviz version 2.47.0 (20210316.0004)
 -->
<!-- Title: queryParser.ChildTagExprMidContext Pages: 1 -->
<svg width="357pt" height="249pt"
 viewBox="0.00 0.00 357.00 249.00" xmlns="http://www.w3.org/2000/svg" xmlns:xlink="http://www.w3.org/1999/xlink">
<g id="graph0" class="graph" transform="scale(1 1) rotate(0) translate(4 245)">
<title>queryParser.ChildTagExprMidContext</title>
<polygon fill="white" stroke="transparent" points="-4,4 -4,-245 353,-245 353,4 -4,4"/>
<!-- Node1 -->
<g id="node1" class="node">
<title>Node1</title>
<g id="a_node1"><a xlink:title=" ">
<polygon fill="#bfbfbf" stroke="black" points="30,-0.5 30,-30.5 160,-30.5 160,-0.5 30,-0.5"/>
<text text-anchor="start" x="38" y="-18.5" font-family="Helvetica,sans-Serif" font-size="10.00">queryParser.ChildTagExpr</text>
<text text-anchor="middle" x="95" y="-7.5" font-family="Helvetica,sans-Serif" font-size="10.00">MidContext</text>
</a>
</g>
</g>
<!-- Node2 -->
<g id="node2" class="node">
<title>Node2</title>
<g id="a_node2"><a xlink:href="classparse_1_1query_parser_1_1_tag_expr_mid_context.html" target="_top" xlink:title=" ">
<polygon fill="white" stroke="black" points="0,-116.5 0,-135.5 158,-135.5 158,-116.5 0,-116.5"/>
<text text-anchor="middle" x="79" y="-123.5" font-family="Helvetica,sans-Serif" font-size="10.00">queryParser.TagExprMidContext</text>
</a>
</g>
</g>
<!-- Node2&#45;&gt;Node1 -->
<g id="edge1" class="edge">
<title>Node2&#45;&gt;Node1</title>
<path fill="none" stroke="midnightblue" d="M81.75,-106.37C84.92,-84.88 90.05,-50.06 92.91,-30.67"/>
<polygon fill="midnightblue" stroke="midnightblue" points="78.25,-106.08 80.26,-116.49 85.18,-107.1 78.25,-106.08"/>
</g>
<!-- Node3 -->
<g id="node3" class="node">
<title>Node3</title>
<g id="a_node3"><a xlink:title=" ">
<polygon fill="white" stroke="#bfbfbf" points="123,-221.5 123,-240.5 223,-240.5 223,-221.5 123,-221.5"/>
<text text-anchor="middle" x="173" y="-228.5" font-family="Helvetica,sans-Serif" font-size="10.00">ParserRuleContext</text>
</a>
</g>
</g>
<!-- Node3&#45;&gt;Node2 -->
<g id="edge2" class="edge">
<title>Node3&#45;&gt;Node2</title>
<path fill="none" stroke="midnightblue" d="M158.07,-213.64C137.92,-191.56 102.72,-153 86.99,-135.76"/>
<polygon fill="midnightblue" stroke="midnightblue" points="155.66,-216.19 164.99,-221.22 160.83,-211.47 155.66,-216.19"/>
</g>
<!-- Node4 -->
<g id="node4" class="node">
<title>Node4</title>
<g id="a_node4"><a xlink:href="classparse_1_1query_parser_1_1_tag_expr_context.html" target="_top" xlink:title=" ">
<polygon fill="white" stroke="black" points="107,-78.5 107,-97.5 249,-97.5 249,-78.5 107,-78.5"/>
<text text-anchor="middle" x="178" y="-85.5" font-family="Helvetica,sans-Serif" font-size="10.00">queryParser.TagExprContext</text>
</a>
</g>
</g>
<!-- Node3&#45;&gt;Node4 -->
<g id="edge4" class="edge">
<title>Node3&#45;&gt;Node4</title>
<path fill="none" stroke="midnightblue" d="M173.68,-210.89C174.77,-179.99 176.89,-120.27 177.69,-97.82"/>
<polygon fill="midnightblue" stroke="midnightblue" points="170.17,-211.06 173.31,-221.18 177.17,-211.31 170.17,-211.06"/>
</g>
<!-- Node5 -->
<g id="node5" class="node">
<title>Node5</title>
<g id="a_node5"><a xlink:href="classparse_1_1query_parser_1_1_tag_name_context.html" target="_top" xlink:title=" ">
<polygon fill="white" stroke="black" points="201,-154.5 201,-173.5 349,-173.5 349,-154.5 201,-154.5"/>
<text text-anchor="middle" x="275" y="-161.5" font-family="Helvetica,sans-Serif" font-size="10.00">queryParser.TagNameContext</text>
</a>
</g>
</g>
<!-- Node3&#45;&gt;Node5 -->
<g id="edge6" class="edge">
<title>Node3&#45;&gt;Node5</title>
<path fill="none" stroke="midnightblue" d="M195.33,-215.77C215.52,-202.9 244.59,-184.38 261.46,-173.63"/>
<polygon fill="midnightblue" stroke="midnightblue" points="193.31,-212.91 186.76,-221.23 197.07,-218.81 193.31,-212.91"/>
</g>
<!-- Node4&#45;&gt;Node1 -->
<g id="edge3" class="edge">
<title>Node4&#45;&gt;Node1</title>
<path fill="none" stroke="#9a32cd" stroke-dasharray="5,2" d="M160.09,-71.78C145.68,-59.55 125.61,-42.5 111.57,-30.58"/>
<polygon fill="#9a32cd" stroke="#9a32cd" points="157.94,-74.55 167.82,-78.36 162.47,-69.21 157.94,-74.55"/>
<text text-anchor="middle" x="151" y="-52" font-family="Helvetica,sans-Serif" font-size="10.00"> a0</text>
</g>
<!-- Node5&#45;&gt;Node4 -->
<g id="edge5" class="edge">
<title>Node5&#45;&gt;Node4</title>
<path fill="none" stroke="#9a32cd" stroke-dasharray="5,2" d="M255.4,-148.05C235.5,-132.86 205.36,-109.88 189.19,-97.54"/>
<polygon fill="#9a32cd" stroke="#9a32cd" points="253.42,-150.94 263.49,-154.22 257.66,-145.37 253.42,-150.94"/>
<text text-anchor="middle" x="245" y="-123.5" font-family="Helvetica,sans-Serif" font-size="10.00"> t0</text>
</g>
<!-- Node6 -->
<g id="node6" class="node">
<title>Node6</title>
<g id="a_node6"><a xlink:title=" ">
<polygon fill="white" stroke="#bfbfbf" points="253.5,-221.5 253.5,-240.5 296.5,-240.5 296.5,-221.5 253.5,-221.5"/>
<text text-anchor="middle" x="275" y="-228.5" font-family="Helvetica,sans-Serif" font-size="10.00">Token</text>
</a>
</g>
</g>
<!-- Node6&#45;&gt;Node5 -->
<g id="edge7" class="edge">
<title>Node6&#45;&gt;Node5</title>
<path fill="none" stroke="#9a32cd" stroke-dasharray="5,2" d="M275,-211.04C275,-198.67 275,-183.12 275,-173.63"/>
<polygon fill="#9a32cd" stroke="#9a32cd" points="271.5,-211.23 275,-221.23 278.5,-211.23 271.5,-211.23"/>
<text text-anchor="middle" x="281" y="-195" font-family="Helvetica,sans-Serif" font-size="10.00"> t0</text>
</g>
</g>
</svg>
