<?xml version="1.0" encoding="UTF-8" standalone="no"?>
<!DOCTYPE svg PUBLIC "-//W3C//DTD SVG 1.1//EN"
 "http://www.w3.org/Graphics/SVG/1.1/DTD/svg11.dtd">
<!-- Generated by graphviz version 2.47.0 (20210316.0004)
 -->
<!-- Title: SentList.ListWrapper&lt; T &gt; Pages: 1 -->
<svg width="1161pt" height="363pt"
 viewBox="0.00 0.00 1161.00 363.00" xmlns="http://www.w3.org/2000/svg" xmlns:xlink="http://www.w3.org/1999/xlink">
<g id="graph0" class="graph" transform="scale(1 1) rotate(0) translate(4 359)">
<title>SentList.ListWrapper&lt; T &gt;</title>
<polygon fill="white" stroke="transparent" points="-4,4 -4,-359 1157,-359 1157,4 -4,4"/>
<!-- Node1 -->
<g id="node1" class="node">
<title>Node1</title>
<g id="a_node1"><a xlink:title="Javaの基本型データの清書用の包み込みアトム">
<polygon fill="#bfbfbf" stroke="black" points="921.5,-0.5 921.5,-19.5 1052.5,-19.5 1052.5,-0.5 921.5,-0.5"/>
<text text-anchor="middle" x="987" y="-7.5" font-family="Helvetica,sans-Serif" font-size="10.00">SentList.ListWrapper&lt; T &gt;</text>
</a>
</g>
</g>
<!-- Node2 -->
<g id="node2" class="node">
<title>Node2</title>
<g id="a_node2"><a xlink:href="classast_1_1_sent_list.html" target="_top" xlink:title="文Sentenceのリスト.">
<polygon fill="white" stroke="black" points="385.5,-67.5 385.5,-86.5 438.5,-86.5 438.5,-67.5 385.5,-67.5"/>
<text text-anchor="middle" x="412" y="-74.5" font-family="Helvetica,sans-Serif" font-size="10.00">SentList</text>
</a>
</g>
</g>
<!-- Node2&#45;&gt;Node1 -->
<g id="edge1" class="edge">
<title>Node2&#45;&gt;Node1</title>
<path fill="none" stroke="midnightblue" d="M448.58,-71.86C543.66,-61.12 799.59,-32.19 921.16,-18.44"/>
<polygon fill="midnightblue" stroke="midnightblue" points="448.12,-68.39 438.58,-73 448.91,-75.35 448.12,-68.39"/>
</g>
<!-- Node3 -->
<g id="node3" class="node">
<title>Node3</title>
<g id="a_node3"><a xlink:href="classast_1_1_ast_node.html" target="_top" xlink:title="タグなしの順アクセスの子供をもてる抽象構文木のノードのクラス。">
<polygon fill="white" stroke="black" points="384.5,-124.5 384.5,-143.5 439.5,-143.5 439.5,-124.5 384.5,-124.5"/>
<text text-anchor="middle" x="412" y="-131.5" font-family="Helvetica,sans-Serif" font-size="10.00">AstNode</text>
</a>
</g>
</g>
<!-- Node3&#45;&gt;Node2 -->
<g id="edge2" class="edge">
<title>Node3&#45;&gt;Node2</title>
<path fill="none" stroke="midnightblue" d="M412,-114.12C412,-104.82 412,-94.06 412,-86.71"/>
<polygon fill="midnightblue" stroke="midnightblue" points="408.5,-114.41 412,-124.41 415.5,-114.41 408.5,-114.41"/>
</g>
<!-- Node4 -->
<g id="node4" class="node">
<title>Node4</title>
<g id="a_node4"><a xlink:href="classast_1_1_ast_node_base.html" target="_top" xlink:title=" ">
<polygon fill="white" stroke="black" points="580.5,-191.5 580.5,-210.5 657.5,-210.5 657.5,-191.5 580.5,-191.5"/>
<text text-anchor="middle" x="619" y="-198.5" font-family="Helvetica,sans-Serif" font-size="10.00">AstNodeBase</text>
</a>
</g>
</g>
<!-- Node4&#45;&gt;Node3 -->
<g id="edge3" class="edge">
<title>Node4&#45;&gt;Node3</title>
<path fill="none" stroke="midnightblue" d="M581.89,-188.35C540.89,-175.47 475.84,-155.05 439.27,-143.56"/>
<polygon fill="midnightblue" stroke="midnightblue" points="580.92,-191.71 591.51,-191.37 583.02,-185.03 580.92,-191.71"/>
</g>
<!-- Node5 -->
<g id="node5" class="node">
<title>Node5</title>
<g id="a_node5"><a xlink:title=" ">
<polygon fill="white" stroke="#bfbfbf" points="432,-335.5 432,-354.5 474,-354.5 474,-335.5 432,-335.5"/>
<text text-anchor="middle" x="453" y="-342.5" font-family="Helvetica,sans-Serif" font-size="10.00">String</text>
</a>
</g>
</g>
<!-- Node5&#45;&gt;Node4 -->
<g id="edge4" class="edge">
<title>Node5&#45;&gt;Node4</title>
<path fill="none" stroke="#9a32cd" stroke-dasharray="5,2" d="M484.1,-338.68C497.58,-334.83 512.43,-328.24 522,-317 547.94,-286.53 514.46,-258.95 541,-229 551.07,-217.63 566.18,-211.05 580.42,-207.24"/>
<polygon fill="#9a32cd" stroke="#9a32cd" points="483.05,-335.33 474.17,-341.12 484.72,-342.13 483.05,-335.33"/>
<text text-anchor="middle" x="567" y="-276" font-family="Helvetica,sans-Serif" font-size="10.00"> MOD_AST</text>
<text text-anchor="middle" x="567" y="-265" font-family="Helvetica,sans-Serif" font-size="10.00">mod_</text>
</g>
<!-- Node16 -->
<g id="node16" class="node">
<title>Node16</title>
<g id="a_node16"><a xlink:href="classformat_1_1_style.html" target="_top" xlink:title="ノードの表示スタイルに関するプロパティのクラス.">
<polygon fill="white" stroke="black" points="450.5,-191.5 450.5,-210.5 489.5,-210.5 489.5,-191.5 450.5,-191.5"/>
<text text-anchor="middle" x="470" y="-198.5" font-family="Helvetica,sans-Serif" font-size="10.00">Style</text>
</a>
</g>
</g>
<!-- Node5&#45;&gt;Node16 -->
<g id="edge18" class="edge">
<title>Node5&#45;&gt;Node16</title>
<path fill="none" stroke="#9a32cd" stroke-dasharray="5,2" d="M421.84,-341.89C387.68,-338.86 336.09,-331.89 324,-317 299.34,-286.64 298.53,-258.68 324,-229 341.13,-209.03 415.37,-216.91 441,-211 444.08,-210.29 447.31,-209.42 450.45,-208.5"/>
<polygon fill="#9a32cd" stroke="#9a32cd" points="421.56,-345.38 431.82,-342.71 422.14,-338.4 421.56,-345.38"/>
<text text-anchor="middle" x="350" y="-309" font-family="Helvetica,sans-Serif" font-size="10.00"> childLPAD</text>
<text text-anchor="middle" x="350" y="-298" font-family="Helvetica,sans-Serif" font-size="10.00">childRPAD</text>
<text text-anchor="middle" x="350" y="-287" font-family="Helvetica,sans-Serif" font-size="10.00">name</text>
<text text-anchor="middle" x="350" y="-276" font-family="Helvetica,sans-Serif" font-size="10.00">operSTR</text>
<text text-anchor="middle" x="350" y="-265" font-family="Helvetica,sans-Serif" font-size="10.00">parenLPAD</text>
<text text-anchor="middle" x="350" y="-254" font-family="Helvetica,sans-Serif" font-size="10.00">parenLPAR</text>
<text text-anchor="middle" x="350" y="-243" font-family="Helvetica,sans-Serif" font-size="10.00">parenRPAD</text>
<text text-anchor="middle" x="350" y="-232" font-family="Helvetica,sans-Serif" font-size="10.00">parenRPAR</text>
</g>
<!-- Node6 -->
<g id="node6" class="node">
<title>Node6</title>
<g id="a_node6"><a xlink:title=" ">
<polygon fill="white" stroke="#bfbfbf" points="546.5,-335.5 546.5,-354.5 611.5,-354.5 611.5,-335.5 546.5,-335.5"/>
<text text-anchor="middle" x="579" y="-342.5" font-family="Helvetica,sans-Serif" font-size="10.00">TraceLevel</text>
</a>
</g>
</g>
<!-- Node6&#45;&gt;Node4 -->
<g id="edge5" class="edge">
<title>Node6&#45;&gt;Node4</title>
<path fill="none" stroke="#9a32cd" stroke-dasharray="5,2" d="M592.06,-326.55C593.94,-323.48 595.68,-320.23 597,-317 612.4,-279.38 617.17,-230.35 618.51,-210.7"/>
<polygon fill="#9a32cd" stroke="#9a32cd" points="589.03,-324.79 586.31,-335.02 594.82,-328.72 589.03,-324.79"/>
<text text-anchor="middle" x="629" y="-270.5" font-family="Helvetica,sans-Serif" font-size="10.00"> LOG</text>
</g>
<!-- Node7 -->
<g id="node7" class="node">
<title>Node7</title>
<g id="a_node7"><a xlink:title=" ">
<polygon fill="white" stroke="#bfbfbf" points="629.5,-335.5 629.5,-354.5 702.5,-354.5 702.5,-335.5 629.5,-335.5"/>
<text text-anchor="middle" x="666" y="-342.5" font-family="Helvetica,sans-Serif" font-size="10.00">static Report</text>
</a>
</g>
</g>
<!-- Node7&#45;&gt;Node4 -->
<g id="edge6" class="edge">
<title>Node7&#45;&gt;Node4</title>
<path fill="none" stroke="#9a32cd" stroke-dasharray="5,2" d="M665.56,-325.36C664.32,-301.74 659.84,-260.34 644,-229 640.48,-222.04 634.64,-215.59 629.49,-210.73"/>
<polygon fill="#9a32cd" stroke="#9a32cd" points="662.06,-325.55 665.94,-335.41 669.06,-325.28 662.06,-325.55"/>
<text text-anchor="middle" x="677" y="-270.5" font-family="Helvetica,sans-Serif" font-size="10.00"> repo</text>
</g>
<!-- Node8 -->
<g id="node8" class="node">
<title>Node8</title>
<g id="a_node8"><a xlink:title=" ">
<polygon fill="white" stroke="#bfbfbf" points="330.5,-335.5 330.5,-354.5 359.5,-354.5 359.5,-335.5 330.5,-335.5"/>
<text text-anchor="middle" x="345" y="-342.5" font-family="Helvetica,sans-Serif" font-size="10.00">int</text>
</a>
</g>
</g>
<!-- Node8&#45;&gt;Node4 -->
<g id="edge7" class="edge">
<title>Node8&#45;&gt;Node4</title>
<path fill="none" stroke="#9a32cd" stroke-dasharray="5,2" d="M366.09,-328.95C369.87,-325.41 373.41,-321.38 376,-317 396.35,-282.55 365.43,-255.95 395,-229 401.77,-222.83 518.17,-211.27 580.43,-205.48"/>
<polygon fill="#9a32cd" stroke="#9a32cd" points="363.7,-326.39 358.26,-335.48 368.19,-331.76 363.7,-326.39"/>
<text text-anchor="middle" x="456.5" y="-276" font-family="Helvetica,sans-Serif" font-size="10.00"> BITMASK_PRINT_WIDTH</text>
<text text-anchor="middle" x="456.5" y="-265" font-family="Helvetica,sans-Serif" font-size="10.00">UNDEF</text>
</g>
<!-- Node8&#45;&gt;Node16 -->
<g id="edge19" class="edge">
<title>Node8&#45;&gt;Node16</title>
<path fill="none" stroke="#9a32cd" stroke-dasharray="5,2" d="M320.39,-340.19C306.6,-336.66 290.51,-329.9 282,-317 260.47,-284.35 255.95,-258.17 282,-229 305.69,-202.48 406.2,-218.3 441,-211 444.1,-210.35 447.33,-209.51 450.48,-208.61"/>
<polygon fill="#9a32cd" stroke="#9a32cd" points="319.82,-343.65 330.33,-342.31 321.27,-336.8 319.82,-343.65"/>
<text text-anchor="middle" x="292" y="-270.5" font-family="Helvetica,sans-Serif" font-size="10.00"> pref</text>
</g>
<!-- Node9 -->
<g id="node9" class="node">
<title>Node9</title>
<g id="a_node9"><a xlink:href="interfacetype_1_1_typable.html" target="_top" xlink:title="抽象ノードがもつ関数型のインタフェース">
<polygon fill="white" stroke="black" points="721,-335.5 721,-354.5 771,-354.5 771,-335.5 721,-335.5"/>
<text text-anchor="middle" x="746" y="-342.5" font-family="Helvetica,sans-Serif" font-size="10.00">Typable</text>
</a>
</g>
</g>
<!-- Node9&#45;&gt;Node4 -->
<g id="edge8" class="edge">
<title>Node9&#45;&gt;Node4</title>
<path fill="none" stroke="#9a32cd" stroke-dasharray="5,2" d="M723.13,-329.24C718.94,-325.66 714.96,-321.54 712,-317 689.93,-283.13 715.93,-259.15 689,-229 680.84,-219.87 669.24,-213.8 657.82,-209.78"/>
<polygon fill="#9a32cd" stroke="#9a32cd" points="721.17,-332.14 731.25,-335.42 725.41,-326.57 721.17,-332.14"/>
<text text-anchor="middle" x="727" y="-270.5" font-family="Helvetica,sans-Serif" font-size="10.00"> typing</text>
</g>
<!-- Node10 -->
<g id="node10" class="node">
<title>Node10</title>
<g id="a_node10"><a xlink:title=" ">
<polygon fill="white" stroke="#bfbfbf" points="834,-335.5 834,-354.5 884,-354.5 884,-335.5 834,-335.5"/>
<text text-anchor="middle" x="859" y="-342.5" font-family="Helvetica,sans-Serif" font-size="10.00">boolean</text>
</a>
</g>
</g>
<!-- Node10&#45;&gt;Node1 -->
<g id="edge23" class="edge">
<title>Node10&#45;&gt;Node1</title>
<path fill="none" stroke="#9a32cd" stroke-dasharray="5,2" d="M894.23,-339.27C908.38,-335.55 923.56,-328.89 933,-317 965.02,-276.68 947,-253.49 947,-202 947,-202 947,-202 947,-76 947,-52.94 965.48,-31.2 977.32,-19.64"/>
<polygon fill="#9a32cd" stroke="#9a32cd" points="893.2,-335.92 884.19,-341.5 894.71,-342.75 893.2,-335.92"/>
<text text-anchor="middle" x="967.5" y="-131.5" font-family="Helvetica,sans-Serif" font-size="10.00"> toIndex_</text>
</g>
<!-- Node10&#45;&gt;Node4 -->
<g id="edge9" class="edge">
<title>Node10&#45;&gt;Node4</title>
<path fill="none" stroke="#9a32cd" stroke-dasharray="5,2" d="M858.01,-325.1C856.07,-295.9 850.69,-241.82 837,-229 811.81,-205.41 713.26,-201.68 657.68,-201.52"/>
<polygon fill="#9a32cd" stroke="#9a32cd" points="854.53,-325.49 858.62,-335.26 861.52,-325.07 854.53,-325.49"/>
<text text-anchor="middle" x="894.5" y="-270.5" font-family="Helvetica,sans-Serif" font-size="10.00"> DEBUG_REPO</text>
</g>
<!-- Node10&#45;&gt;Node16 -->
<g id="edge20" class="edge">
<title>Node10&#45;&gt;Node16</title>
<path fill="none" stroke="#9a32cd" stroke-dasharray="5,2" d="M823.44,-343.03C802.46,-340.55 776.97,-333.9 761,-317 733.51,-287.92 771.85,-255.64 742,-229 739.64,-226.89 552.03,-209.52 489.81,-203.81"/>
<polygon fill="#9a32cd" stroke="#9a32cd" points="823.34,-346.54 833.62,-343.96 823.98,-339.57 823.34,-346.54"/>
<text text-anchor="middle" x="797" y="-276" font-family="Helvetica,sans-Serif" font-size="10.00"> preoperSupress</text>
<text text-anchor="middle" x="797" y="-265" font-family="Helvetica,sans-Serif" font-size="10.00">toInline</text>
</g>
<!-- Node11 -->
<g id="node11" class="node">
<title>Node11</title>
<g id="a_node11"><a xlink:href="interfaceast_1_1_node.html" target="_top" xlink:title=" ">
<polygon fill="white" stroke="black" points="392,-191.5 392,-210.5 432,-210.5 432,-191.5 392,-191.5"/>
<text text-anchor="middle" x="412" y="-198.5" font-family="Helvetica,sans-Serif" font-size="10.00">Node</text>
</a>
</g>
</g>
<!-- Node11&#45;&gt;Node3 -->
<g id="edge10" class="edge">
<title>Node11&#45;&gt;Node3</title>
<path fill="none" stroke="midnightblue" d="M412,-181.04C412,-168.67 412,-153.12 412,-143.63"/>
<polygon fill="midnightblue" stroke="midnightblue" points="408.5,-181.23 412,-191.23 415.5,-181.23 408.5,-181.23"/>
</g>
<!-- Node12 -->
<g id="node12" class="node">
<title>Node12</title>
<g id="a_node12"><a xlink:href="interfaceformat_1_1_x_formattable.html" target="_top" xlink:title="入れ子フォーマット出力可能なオブジェクトのインタフェース。">
<polygon fill="white" stroke="black" points="184.5,-335.5 184.5,-354.5 259.5,-354.5 259.5,-335.5 184.5,-335.5"/>
<text text-anchor="middle" x="222" y="-342.5" font-family="Helvetica,sans-Serif" font-size="10.00">XFormattable</text>
</a>
</g>
</g>
<!-- Node12&#45;&gt;Node11 -->
<g id="edge11" class="edge">
<title>Node12&#45;&gt;Node11</title>
<path fill="none" stroke="midnightblue" d="M229.65,-325.78C230.81,-322.86 231.97,-319.86 233,-317 246.98,-278.41 229.73,-255.59 261,-229 281.88,-211.25 356.28,-217.08 383,-211 385.88,-210.35 388.89,-209.55 391.83,-208.7"/>
<polygon fill="midnightblue" stroke="midnightblue" points="226.4,-324.49 225.85,-335.07 232.87,-327.14 226.4,-324.49"/>
</g>
<!-- Node13 -->
<g id="node13" class="node">
<title>Node13</title>
<g id="a_node13"><a xlink:href="interfaceformat_1_1_x_formattable_1_1_navigatable.html" target="_top" xlink:title="木構造の分岐ノードとして清書可能なオブジェクトのクラス">
<polygon fill="white" stroke="black" points="0,-191.5 0,-210.5 130,-210.5 130,-191.5 0,-191.5"/>
<text text-anchor="middle" x="65" y="-198.5" font-family="Helvetica,sans-Serif" font-size="10.00">XFormattable.Navigatable</text>
</a>
</g>
</g>
<!-- Node12&#45;&gt;Node13 -->
<g id="edge13" class="edge">
<title>Node12&#45;&gt;Node13</title>
<path fill="none" stroke="midnightblue" d="M204.61,-328.28C171.43,-298.26 100.06,-233.71 74.42,-210.52"/>
<polygon fill="midnightblue" stroke="midnightblue" points="202.41,-331.01 212.18,-335.12 207.11,-325.81 202.41,-331.01"/>
</g>
<!-- Node14 -->
<g id="node14" class="node">
<title>Node14</title>
<g id="a_node14"><a xlink:href="interfaceformat_1_1_x_formattable_1_1_typed_formattable.html" target="_top" xlink:title="ノードの型情報をもつ書式出力可能なオブジェクトのインタフェース．">
<polygon fill="white" stroke="black" points="218,-191.5 218,-210.5 374,-210.5 374,-191.5 218,-191.5"/>
<text text-anchor="middle" x="296" y="-198.5" font-family="Helvetica,sans-Serif" font-size="10.00">XFormattable.TypedFormattable</text>
</a>
</g>
</g>
<!-- Node12&#45;&gt;Node14 -->
<g id="edge15" class="edge">
<title>Node12&#45;&gt;Node14</title>
<path fill="none" stroke="midnightblue" d="M219.06,-325.36C216.26,-300.8 215.11,-257.39 236,-229 242.23,-220.54 251.73,-214.67 261.35,-210.63"/>
<polygon fill="midnightblue" stroke="midnightblue" points="215.62,-326.04 220.44,-335.48 222.56,-325.1 215.62,-326.04"/>
</g>
<!-- Node13&#45;&gt;Node3 -->
<g id="edge12" class="edge">
<title>Node13&#45;&gt;Node3</title>
<path fill="none" stroke="midnightblue" d="M108.28,-189C142.07,-180.71 190.3,-169.52 233,-162 295.65,-150.97 312.44,-155.54 375,-144 377.99,-143.45 381.1,-142.8 384.19,-142.12"/>
<polygon fill="midnightblue" stroke="midnightblue" points="107.14,-185.68 98.28,-191.48 108.82,-192.47 107.14,-185.68"/>
</g>
<!-- Node14&#45;&gt;Node3 -->
<g id="edge14" class="edge">
<title>Node14&#45;&gt;Node3</title>
<path fill="none" stroke="midnightblue" d="M320.47,-186.29C343.46,-173.4 377.16,-154.52 396.6,-143.63"/>
<polygon fill="midnightblue" stroke="midnightblue" points="318.66,-183.29 311.64,-191.23 322.08,-189.4 318.66,-183.29"/>
</g>
<!-- Node15 -->
<g id="node15" class="node">
<title>Node15</title>
<g id="a_node15"><a xlink:title=" ">
<polygon fill="white" stroke="#bfbfbf" points="148,-191.5 148,-210.5 200,-210.5 200,-191.5 148,-191.5"/>
<text text-anchor="middle" x="174" y="-198.5" font-family="Helvetica,sans-Serif" font-size="10.00">Boolean</text>
</a>
</g>
</g>
<!-- Node15&#45;&gt;Node3 -->
<g id="edge16" class="edge">
<title>Node15&#45;&gt;Node3</title>
<path fill="none" stroke="#9a32cd" stroke-dasharray="5,2" d="M201.22,-187.16C219.7,-178.9 244.88,-168.53 268,-162 314.41,-148.89 327.76,-153.71 375,-144 377.98,-143.39 381.08,-142.71 384.17,-142"/>
<polygon fill="#9a32cd" stroke="#9a32cd" points="199.61,-184.04 191.96,-191.37 202.51,-190.41 199.61,-184.04"/>
<text text-anchor="middle" x="306" y="-165" font-family="Helvetica,sans-Serif" font-size="10.00"> DEBUG_CHILD</text>
</g>
<!-- Node16&#45;&gt;Node3 -->
<g id="edge17" class="edge">
<title>Node16&#45;&gt;Node3</title>
<path fill="none" stroke="#9a32cd" stroke-dasharray="5,2" d="M455.4,-183.63C444.05,-170.92 428.77,-153.8 419.7,-143.63"/>
<polygon fill="#9a32cd" stroke="#9a32cd" points="452.91,-186.1 462.18,-191.23 458.13,-181.44 452.91,-186.1"/>
<text text-anchor="middle" x="453.5" y="-165" font-family="Helvetica,sans-Serif" font-size="10.00"> sty</text>
</g>
<!-- Node17 -->
<g id="node17" class="node">
<title>Node17</title>
<g id="a_node17"><a xlink:href="interfacecmd_1_1_generatable.html" target="_top" xlink:title="変換してコードを生成できるノードのインタフェース.">
<polygon fill="white" stroke="black" points="297.5,-124.5 297.5,-143.5 366.5,-143.5 366.5,-124.5 297.5,-124.5"/>
<text text-anchor="middle" x="332" y="-131.5" font-family="Helvetica,sans-Serif" font-size="10.00">Generatable</text>
</a>
</g>
</g>
<!-- Node17&#45;&gt;Node2 -->
<g id="edge21" class="edge">
<title>Node17&#45;&gt;Node2</title>
<path fill="none" stroke="midnightblue" d="M353.04,-118.54C367.85,-108.35 387.17,-95.07 399.59,-86.53"/>
<polygon fill="midnightblue" stroke="midnightblue" points="350.76,-115.86 344.5,-124.41 354.72,-121.63 350.76,-115.86"/>
</g>
<!-- Node18 -->
<g id="node18" class="node">
<title>Node18</title>
<g id="a_node18"><a xlink:title=" ">
<polygon fill="white" stroke="#bfbfbf" points="975.5,-67.5 975.5,-86.5 1078.5,-86.5 1078.5,-67.5 975.5,-67.5"/>
<text text-anchor="middle" x="1027" y="-74.5" font-family="Helvetica,sans-Serif" font-size="10.00">CustomFormattable</text>
</a>
</g>
</g>
<!-- Node18&#45;&gt;Node1 -->
<g id="edge22" class="edge">
<title>Node18&#45;&gt;Node1</title>
<path fill="none" stroke="midnightblue" d="M1016.25,-58.53C1008.51,-45.95 998.39,-29.51 992.31,-19.63"/>
<polygon fill="midnightblue" stroke="midnightblue" points="1013.38,-60.55 1021.61,-67.23 1019.35,-56.88 1013.38,-60.55"/>
</g>
<!-- Node19 -->
<g id="node19" class="node">
<title>Node19</title>
<g id="a_node19"><a xlink:title=" ">
<polygon fill="white" stroke="#bfbfbf" points="1097,-67.5 1097,-86.5 1153,-86.5 1153,-67.5 1097,-67.5"/>
<text text-anchor="middle" x="1125" y="-74.5" font-family="Helvetica,sans-Serif" font-size="10.00">List&lt; T &gt;</text>
</a>
</g>
</g>
<!-- Node19&#45;&gt;Node1 -->
<g id="edge24" class="edge">
<title>Node19&#45;&gt;Node1</title>
<path fill="none" stroke="#9a32cd" stroke-dasharray="5,2" d="M1097.28,-62.94C1069.95,-50.07 1028.95,-30.76 1005.4,-19.67"/>
<polygon fill="#9a32cd" stroke="#9a32cd" points="1096.14,-66.27 1106.67,-67.37 1099.12,-59.94 1096.14,-66.27"/>
<text text-anchor="middle" x="1072" y="-41" font-family="Helvetica,sans-Serif" font-size="10.00"> list</text>
</g>
</g>
</svg>
