<?xml version="1.0" encoding="UTF-8" standalone="no"?>
<!DOCTYPE svg PUBLIC "-//W3C//DTD SVG 1.1//EN"
 "http://www.w3.org/Graphics/SVG/1.1/DTD/svg11.dtd">
<!-- Generated by graphviz version 2.47.0 (20210316.0004)
 -->
<!-- Title: XCFlat Pages: 1 -->
<svg width="950pt" height="478pt"
 viewBox="0.00 0.00 950.00 478.00" xmlns="http://www.w3.org/2000/svg" xmlns:xlink="http://www.w3.org/1999/xlink">
<g id="graph0" class="graph" transform="scale(1 1) rotate(0) translate(4 474)">
<title>XCFlat</title>
<polygon fill="white" stroke="transparent" points="-4,4 -4,-474 946,-474 946,4 -4,4"/>
<!-- Node1 -->
<g id="node1" class="node">
<title>Node1</title>
<g id="a_node1"><a xlink:title=" ">
<polygon fill="#bfbfbf" stroke="black" points="84.5,-0.5 84.5,-19.5 131.5,-19.5 131.5,-0.5 84.5,-0.5"/>
<text text-anchor="middle" x="108" y="-7.5" font-family="Helvetica,sans-Serif" font-size="10.00">XCFlat</text>
</a>
</g>
</g>
<!-- Node2 -->
<g id="node2" class="node">
<title>Node2</title>
<g id="a_node2"><a xlink:href="classcompile_1_1_x_compiler.html" target="_top" xlink:title="クエリのコンパイル系モジュール。">
<polygon fill="white" stroke="black" points="409,-57.5 409,-76.5 471,-76.5 471,-57.5 409,-57.5"/>
<text text-anchor="middle" x="440" y="-64.5" font-family="Helvetica,sans-Serif" font-size="10.00">XCompiler</text>
</a>
</g>
</g>
<!-- Node2&#45;&gt;Node1 -->
<g id="edge1" class="edge">
<title>Node2&#45;&gt;Node1</title>
<path fill="none" stroke="midnightblue" d="M398.5,-59.12C328.08,-47.46 187.41,-24.16 131.6,-14.91"/>
<polygon fill="midnightblue" stroke="midnightblue" points="398.33,-62.64 408.77,-60.83 399.47,-55.74 398.33,-62.64"/>
</g>
<!-- Node3 -->
<g id="node3" class="node">
<title>Node3</title>
<g id="a_node3"><a xlink:href="classutil_1_1_inc_counter.html" target="_top" xlink:title="非負整数値を保持するカウンタ.">
<polygon fill="white" stroke="black" points="124.5,-231 124.5,-250 189.5,-250 189.5,-231 124.5,-231"/>
<text text-anchor="middle" x="157" y="-238" font-family="Helvetica,sans-Serif" font-size="10.00">IncCounter</text>
</a>
</g>
</g>
<!-- Node3&#45;&gt;Node2 -->
<g id="edge2" class="edge">
<title>Node3&#45;&gt;Node2</title>
<path fill="none" stroke="#9a32cd" stroke-dasharray="5,2" d="M177.42,-224.63C187.13,-216.72 198.27,-206.3 206,-195 222.12,-171.43 208.22,-154.59 229,-135 279.47,-87.4 363.67,-73.62 408.94,-69.63"/>
<polygon fill="#9a32cd" stroke="#9a32cd" points="175.12,-221.99 169.38,-230.89 179.42,-227.51 175.12,-221.99"/>
<text text-anchor="middle" x="255" y="-142.5" font-family="Helvetica,sans-Serif" font-size="10.00"> ridManager</text>
</g>
<!-- Node4 -->
<g id="node4" class="node">
<title>Node4</title>
<g id="a_node4"><a xlink:title=" ">
<polygon fill="white" stroke="#bfbfbf" points="132.5,-327.5 132.5,-346.5 161.5,-346.5 161.5,-327.5 132.5,-327.5"/>
<text text-anchor="middle" x="147" y="-334.5" font-family="Helvetica,sans-Serif" font-size="10.00">int</text>
</a>
</g>
</g>
<!-- Node4&#45;&gt;Node2 -->
<g id="edge12" class="edge">
<title>Node4&#45;&gt;Node2</title>
<path fill="none" stroke="#9a32cd" stroke-dasharray="5,2" d="M132.59,-319.24C107.92,-288.42 63.04,-221.47 93,-173 133.75,-107.06 174.99,-118.06 249,-95 303.67,-77.96 370.53,-71.64 408.9,-69.32"/>
<polygon fill="#9a32cd" stroke="#9a32cd" points="130.14,-321.78 139.21,-327.26 135.54,-317.32 130.14,-321.78"/>
<text text-anchor="middle" x="147.5" y="-187" font-family="Helvetica,sans-Serif" font-size="10.00"> MASK_QUERY_PRINT</text>
<text text-anchor="middle" x="147.5" y="-176" font-family="Helvetica,sans-Serif" font-size="10.00">PRINT_STAGE</text>
</g>
<!-- Node4&#45;&gt;Node3 -->
<g id="edge3" class="edge">
<title>Node4&#45;&gt;Node3</title>
<path fill="none" stroke="#9a32cd" stroke-dasharray="5,2" d="M140.92,-317.46C140.13,-314.33 139.43,-311.1 139,-308 137.64,-298.32 137.13,-295.6 139,-286 141.55,-272.91 147.94,-258.8 152.38,-250.06"/>
<polygon fill="#9a32cd" stroke="#9a32cd" points="137.64,-318.71 143.84,-327.31 144.36,-316.73 137.64,-318.71"/>
<text text-anchor="middle" x="147.5" y="-294.5" font-family="Helvetica,sans-Serif" font-size="10.00"> cnt</text>
</g>
<!-- Node13 -->
<g id="node13" class="node">
<title>Node13</title>
<g id="a_node13"><a xlink:href="classmachine_1_1_ref.html" target="_top" xlink:title="フレーム中の変数参照オブジェクトref = (XType type, int vid)">
<polygon fill="white" stroke="black" points="474,-135.5 474,-154.5 506,-154.5 506,-135.5 474,-135.5"/>
<text text-anchor="middle" x="490" y="-142.5" font-family="Helvetica,sans-Serif" font-size="10.00">Ref</text>
</a>
</g>
</g>
<!-- Node4&#45;&gt;Node13 -->
<g id="edge28" class="edge">
<title>Node4&#45;&gt;Node13</title>
<path fill="none" stroke="#9a32cd" stroke-dasharray="5,2" d="M157,-318.55C163.63,-308.11 173.11,-295.15 184,-286 232.42,-245.32 417.8,-173.32 473.85,-152.07"/>
<polygon fill="#9a32cd" stroke="#9a32cd" points="153.92,-316.87 151.74,-327.24 159.91,-320.5 153.92,-316.87"/>
<text text-anchor="middle" x="341.5" y="-238" font-family="Helvetica,sans-Serif" font-size="10.00"> UNDEF</text>
</g>
<!-- Node14 -->
<g id="node14" class="node">
<title>Node14</title>
<g id="a_node14"><a xlink:href="classast_1_1_ast_node.html" target="_top" xlink:title=" ">
<polygon fill="white" stroke="black" points="460.5,-231 460.5,-250 515.5,-250 515.5,-231 460.5,-231"/>
<text text-anchor="middle" x="488" y="-238" font-family="Helvetica,sans-Serif" font-size="10.00">AstNode</text>
</a>
</g>
</g>
<!-- Node4&#45;&gt;Node14 -->
<g id="edge24" class="edge">
<title>Node4&#45;&gt;Node14</title>
<path fill="none" stroke="#9a32cd" stroke-dasharray="5,2" d="M166.33,-321.04C171.25,-316.97 176.44,-312.45 181,-308 190.24,-298.97 188.45,-291.79 200,-286 250.18,-260.83 399.32,-287.41 452,-268 462.49,-264.14 472.57,-256.24 479.38,-250.06"/>
<polygon fill="#9a32cd" stroke="#9a32cd" points="164.04,-318.39 158.43,-327.38 168.42,-323.84 164.04,-318.39"/>
<text text-anchor="middle" x="261.5" y="-300" font-family="Helvetica,sans-Serif" font-size="10.00"> BITMASK_PRINT_WIDTH</text>
<text text-anchor="middle" x="261.5" y="-289" font-family="Helvetica,sans-Serif" font-size="10.00">UNDEF</text>
</g>
<!-- Node5 -->
<g id="node5" class="node">
<title>Node5</title>
<g id="a_node5"><a xlink:title=" ">
<polygon fill="white" stroke="#bfbfbf" points="281,-445 281,-464 331,-464 331,-445 281,-445"/>
<text text-anchor="middle" x="306" y="-452" font-family="Helvetica,sans-Serif" font-size="10.00">boolean</text>
</a>
</g>
</g>
<!-- Node5&#45;&gt;Node1 -->
<g id="edge29" class="edge">
<title>Node5&#45;&gt;Node1</title>
<path fill="none" stroke="#9a32cd" stroke-dasharray="5,2" d="M270.95,-453.98C227.63,-453.28 152.59,-447.79 95,-421 44.17,-397.35 0,-394.07 0,-338 0,-338 0,-338 0,-66 0,-28.44 52.51,-16.52 84.3,-12.74"/>
<polygon fill="#9a32cd" stroke="#9a32cd" points="270.96,-457.48 280.99,-454.06 271.02,-450.48 270.96,-457.48"/>
<text text-anchor="middle" x="36.5" y="-181.5" font-family="Helvetica,sans-Serif" font-size="10.00"> DEBUG_REPO</text>
</g>
<!-- Node5&#45;&gt;Node2 -->
<g id="edge17" class="edge">
<title>Node5&#45;&gt;Node2</title>
<path fill="none" stroke="#9a32cd" stroke-dasharray="5,2" d="M341.32,-451.95C369.4,-449.12 408.4,-441.45 436,-421 458.9,-404.03 444.73,-380.96 469,-366 514.72,-337.82 673.47,-387.36 710,-348 716.65,-340.83 712.45,-335.47 710,-326 708.16,-318.9 587.94,-99.3 582,-95 564.67,-82.46 507.43,-74.65 471.14,-70.83"/>
<polygon fill="#9a32cd" stroke="#9a32cd" points="340.81,-448.48 331.15,-452.82 341.41,-455.46 340.81,-448.48"/>
<text text-anchor="middle" x="716.5" y="-260" font-family="Helvetica,sans-Serif" font-size="10.00"> DEBUG_OPT_A</text>
<text text-anchor="middle" x="716.5" y="-249" font-family="Helvetica,sans-Serif" font-size="10.00">DEBUG_REPO</text>
<text text-anchor="middle" x="716.5" y="-238" font-family="Helvetica,sans-Serif" font-size="10.00">DEBUG_WORK</text>
<text text-anchor="middle" x="716.5" y="-227" font-family="Helvetica,sans-Serif" font-size="10.00">HAS_ARG</text>
<text text-anchor="middle" x="716.5" y="-216" font-family="Helvetica,sans-Serif" font-size="10.00">NO_ARG</text>
</g>
<!-- Node5&#45;&gt;Node3 -->
<g id="edge4" class="edge">
<title>Node5&#45;&gt;Node3</title>
<path fill="none" stroke="#9a32cd" stroke-dasharray="5,2" d="M270.9,-448.58C219.29,-439.26 124.58,-413.68 83,-348 59.39,-310.72 115.31,-268.09 142.82,-250.16"/>
<polygon fill="#9a32cd" stroke="#9a32cd" points="270.47,-452.06 280.92,-450.29 271.65,-445.16 270.47,-452.06"/>
<text text-anchor="middle" x="103" y="-334.5" font-family="Helvetica,sans-Serif" font-size="10.00"> DEBUG</text>
</g>
<!-- Node9 -->
<g id="node9" class="node">
<title>Node9</title>
<g id="a_node9"><a xlink:href="classutil_1_1_trace_level.html" target="_top" xlink:title="ログ出力用のトレースレベルを扱うクラス。">
<polygon fill="white" stroke="black" points="542.5,-327.5 542.5,-346.5 607.5,-346.5 607.5,-327.5 542.5,-327.5"/>
<text text-anchor="middle" x="575" y="-334.5" font-family="Helvetica,sans-Serif" font-size="10.00">TraceLevel</text>
</a>
</g>
</g>
<!-- Node5&#45;&gt;Node9 -->
<g id="edge11" class="edge">
<title>Node5&#45;&gt;Node9</title>
<path fill="none" stroke="#9a32cd" stroke-dasharray="5,2" d="M313.15,-435.71C322.46,-415.12 340.81,-381.97 368,-366 399.99,-347.2 497.45,-354.41 534,-348 536.74,-347.52 539.57,-346.96 542.41,-346.36"/>
<polygon fill="#9a32cd" stroke="#9a32cd" points="309.92,-434.37 309.21,-444.94 316.36,-437.12 309.92,-434.37"/>
<text text-anchor="middle" x="402" y="-391" font-family="Helvetica,sans-Serif" font-size="10.00"> DEBUG_MOD</text>
</g>
<!-- Node11 -->
<g id="node11" class="node">
<title>Node11</title>
<g id="a_node11"><a xlink:href="classutil_1_1_report.html" target="_top" xlink:title="標準出力への入れ子出力のためのレポートオブジェクトのクラス.">
<polygon fill="white" stroke="black" points="829.5,-327.5 829.5,-346.5 900.5,-346.5 900.5,-327.5 829.5,-327.5"/>
<text text-anchor="middle" x="865" y="-334.5" font-family="Helvetica,sans-Serif" font-size="10.00">Report&lt; S &gt;</text>
</a>
</g>
</g>
<!-- Node5&#45;&gt;Node11 -->
<g id="edge16" class="edge">
<title>Node5&#45;&gt;Node11</title>
<path fill="none" stroke="#9a32cd" stroke-dasharray="5,2" d="M341.11,-448.19C359.53,-445.41 382.48,-441.99 403,-439 431.21,-434.89 508.01,-439.13 530,-421 549.95,-404.55 528.62,-381.92 549,-366 551.74,-363.86 747.39,-347.62 829.42,-340.9"/>
<polygon fill="#9a32cd" stroke="#9a32cd" points="340.48,-444.74 331.11,-449.69 341.52,-451.66 340.48,-444.74"/>
<text text-anchor="middle" x="582" y="-396.5" font-family="Helvetica,sans-Serif" font-size="10.00"> DEBUG_POP</text>
<text text-anchor="middle" x="582" y="-385.5" font-family="Helvetica,sans-Serif" font-size="10.00">toPrint</text>
</g>
<!-- Node5&#45;&gt;Node14 -->
<g id="edge26" class="edge">
<title>Node5&#45;&gt;Node14</title>
<path fill="none" stroke="#9a32cd" stroke-dasharray="5,2" d="M293.88,-436.27C276.71,-409.55 250.2,-357.88 277,-326 306.9,-290.42 336.19,-323.5 380,-308 384.31,-306.47 448.15,-270.47 452,-268 460.62,-262.46 469.92,-255.59 476.91,-250.23"/>
<polygon fill="#9a32cd" stroke="#9a32cd" points="291.19,-438.55 299.67,-444.91 297.01,-434.65 291.19,-438.55"/>
<text text-anchor="middle" x="313.5" y="-334.5" font-family="Helvetica,sans-Serif" font-size="10.00"> DEBUG_REPO</text>
</g>
<!-- Node6 -->
<g id="node6" class="node">
<title>Node6</title>
<g id="a_node6"><a xlink:title=" ">
<polygon fill="white" stroke="#bfbfbf" points="747,-445 747,-464 789,-464 789,-445 747,-445"/>
<text text-anchor="middle" x="768" y="-452" font-family="Helvetica,sans-Serif" font-size="10.00">String</text>
</a>
</g>
</g>
<!-- Node6&#45;&gt;Node2 -->
<g id="edge5" class="edge">
<title>Node6&#45;&gt;Node2</title>
<path fill="none" stroke="#9a32cd" stroke-dasharray="5,2" d="M771.14,-434.85C774.69,-412.07 780,-372.32 780,-338 780,-338 780,-338 780,-144 780,-81.02 555.01,-70.21 471.07,-68.37"/>
<polygon fill="#9a32cd" stroke="#9a32cd" points="767.66,-434.41 769.52,-444.84 774.57,-435.53 767.66,-434.41"/>
<text text-anchor="middle" x="818.5" y="-238" font-family="Helvetica,sans-Serif" font-size="10.00"> MOD_COMPILE</text>
</g>
<!-- Node6&#45;&gt;Node9 -->
<g id="edge9" class="edge">
<title>Node6&#45;&gt;Node9</title>
<path fill="none" stroke="#9a32cd" stroke-dasharray="5,2" d="M736.61,-452.99C708.71,-450.93 668.35,-443.81 642,-421 621.97,-403.66 636.07,-386.26 619,-366 612.12,-357.83 602.23,-351.24 593.57,-346.51"/>
<polygon fill="#9a32cd" stroke="#9a32cd" points="736.47,-456.49 746.65,-453.55 736.86,-449.5 736.47,-456.49"/>
<text text-anchor="middle" x="691.5" y="-413" font-family="Helvetica,sans-Serif" font-size="10.00"> DELIM_LEVELS</text>
<text text-anchor="middle" x="691.5" y="-402" font-family="Helvetica,sans-Serif" font-size="10.00">DELIM_NAMES</text>
<text text-anchor="middle" x="691.5" y="-391" font-family="Helvetica,sans-Serif" font-size="10.00">MOD_DEFAULT</text>
<text text-anchor="middle" x="691.5" y="-380" font-family="Helvetica,sans-Serif" font-size="10.00">OUT_DELIM_NAMES</text>
<text text-anchor="middle" x="691.5" y="-369" font-family="Helvetica,sans-Serif" font-size="10.00">USAGE_STR</text>
</g>
<!-- Node6&#45;&gt;Node11 -->
<g id="edge14" class="edge">
<title>Node6&#45;&gt;Node11</title>
<path fill="none" stroke="#9a32cd" stroke-dasharray="5,2" d="M780.76,-436.85C784.3,-431.89 787.99,-426.34 791,-421 804.11,-397.77 797.1,-385.77 815,-366 822.61,-357.59 833.36,-351.12 842.94,-346.53"/>
<polygon fill="#9a32cd" stroke="#9a32cd" points="777.88,-434.87 774.75,-444.99 783.51,-439.03 777.88,-434.87"/>
<text text-anchor="middle" x="841" y="-391" font-family="Helvetica,sans-Serif" font-size="10.00"> STEMSTR</text>
</g>
<!-- Node6&#45;&gt;Node14 -->
<g id="edge21" class="edge">
<title>Node6&#45;&gt;Node14</title>
<path fill="none" stroke="#9a32cd" stroke-dasharray="5,2" d="M766.53,-434.78C764.11,-415.52 757.74,-385.62 741,-366 732.54,-356.09 563.01,-276.48 506.3,-250.02"/>
<polygon fill="#9a32cd" stroke="#9a32cd" points="763.07,-435.38 767.56,-444.98 770.03,-434.68 763.07,-435.38"/>
<text text-anchor="middle" x="733" y="-340" font-family="Helvetica,sans-Serif" font-size="10.00"> MOD_AST</text>
<text text-anchor="middle" x="733" y="-329" font-family="Helvetica,sans-Serif" font-size="10.00">mod_</text>
</g>
<!-- Node7 -->
<g id="node7" class="node">
<title>Node7</title>
<g id="a_node7"><a xlink:href="interfaceparse_1_1_parsable.html" target="_top" xlink:title=" ">
<polygon fill="white" stroke="black" points="290.5,-135.5 290.5,-154.5 345.5,-154.5 345.5,-135.5 290.5,-135.5"/>
<text text-anchor="middle" x="318" y="-142.5" font-family="Helvetica,sans-Serif" font-size="10.00">Parsable</text>
</a>
</g>
</g>
<!-- Node7&#45;&gt;Node2 -->
<g id="edge6" class="edge">
<title>Node7&#45;&gt;Node2</title>
<path fill="none" stroke="#9a32cd" stroke-dasharray="5,2" d="M340.5,-129.98C365.57,-114.36 405.31,-89.61 426.17,-76.62"/>
<polygon fill="#9a32cd" stroke="#9a32cd" points="338.63,-127.02 331.99,-135.28 342.33,-132.97 338.63,-127.02"/>
<text text-anchor="middle" x="401" y="-103.5" font-family="Helvetica,sans-Serif" font-size="10.00"> AP</text>
</g>
<!-- Node8 -->
<g id="node8" class="node">
<title>Node8</title>
<g id="a_node8"><a xlink:href="interfaceformat_1_1_node_formattable.html" target="_top" xlink:title="XFormattableインタフェースをもつ構造オブジェクトの清書出力器．">
<polygon fill="white" stroke="black" points="364,-135.5 364,-154.5 456,-154.5 456,-135.5 364,-135.5"/>
<text text-anchor="middle" x="410" y="-142.5" font-family="Helvetica,sans-Serif" font-size="10.00">NodeFormattable</text>
</a>
</g>
</g>
<!-- Node8&#45;&gt;Node2 -->
<g id="edge7" class="edge">
<title>Node8&#45;&gt;Node2</title>
<path fill="none" stroke="#9a32cd" stroke-dasharray="5,2" d="M417.23,-125.67C423.38,-110.11 431.92,-88.47 436.6,-76.62"/>
<polygon fill="#9a32cd" stroke="#9a32cd" points="413.86,-124.7 413.44,-135.28 420.37,-127.27 413.86,-124.7"/>
<text text-anchor="middle" x="436.5" y="-103.5" font-family="Helvetica,sans-Serif" font-size="10.00"> NF</text>
</g>
<!-- Node9&#45;&gt;Node2 -->
<g id="edge8" class="edge">
<title>Node9&#45;&gt;Node2</title>
<path fill="none" stroke="#9a32cd" stroke-dasharray="5,2" d="M580.71,-317.47C593.12,-273.09 617.26,-159.56 562,-95 550.4,-81.44 503.33,-74.16 471.17,-70.69"/>
<polygon fill="#9a32cd" stroke="#9a32cd" points="577.31,-316.62 577.86,-327.2 584.03,-318.58 577.31,-316.62"/>
<text text-anchor="middle" x="608" y="-181.5" font-family="Helvetica,sans-Serif" font-size="10.00"> LOG</text>
</g>
<!-- Node9&#45;&gt;Node14 -->
<g id="edge22" class="edge">
<title>Node9&#45;&gt;Node14</title>
<path fill="none" stroke="#9a32cd" stroke-dasharray="5,2" d="M560.09,-319.81C541.55,-299.66 510.56,-266.01 496.01,-250.2"/>
<polygon fill="#9a32cd" stroke="#9a32cd" points="557.62,-322.29 566.97,-327.28 562.77,-317.55 557.62,-322.29"/>
<text text-anchor="middle" x="558" y="-294.5" font-family="Helvetica,sans-Serif" font-size="10.00"> LOG</text>
</g>
<!-- Node10 -->
<g id="node10" class="node">
<title>Node10</title>
<g id="a_node10"><a xlink:title=" ">
<polygon fill="white" stroke="#bfbfbf" points="411.5,-439.5 411.5,-469.5 554.5,-469.5 554.5,-439.5 411.5,-439.5"/>
<text text-anchor="start" x="419.5" y="-457.5" font-family="Helvetica,sans-Serif" font-size="10.00">Map&lt; String, util.TraceLevel.</text>
<text text-anchor="middle" x="483" y="-446.5" font-family="Helvetica,sans-Serif" font-size="10.00">Level &gt;</text>
</a>
</g>
</g>
<!-- Node10&#45;&gt;Node9 -->
<g id="edge10" class="edge">
<title>Node10&#45;&gt;Node9</title>
<path fill="none" stroke="#9a32cd" stroke-dasharray="5,2" d="M476.24,-429.73C472.32,-410.62 470.49,-384.07 484,-366 487.66,-361.1 517.5,-352.51 542.03,-346.13"/>
<polygon fill="#9a32cd" stroke="#9a32cd" points="472.83,-430.55 478.54,-439.48 479.65,-428.94 472.83,-430.55"/>
<text text-anchor="middle" x="507" y="-391" font-family="Helvetica,sans-Serif" font-size="10.00"> mapLevel</text>
</g>
<!-- Node11&#45;&gt;Node2 -->
<g id="edge13" class="edge">
<title>Node11&#45;&gt;Node2</title>
<path fill="none" stroke="#9a32cd" stroke-dasharray="5,2" d="M866.66,-316.88C869.61,-268.73 869.54,-142.92 794,-95 767.1,-77.94 552.75,-70.82 471.28,-68.72"/>
<polygon fill="#9a32cd" stroke="#9a32cd" points="863.15,-316.89 865.9,-327.12 870.13,-317.4 863.15,-316.89"/>
<text text-anchor="middle" x="867" y="-181.5" font-family="Helvetica,sans-Serif" font-size="10.00"> repo</text>
</g>
<!-- Node12 -->
<g id="node12" class="node">
<title>Node12</title>
<g id="a_node12"><a xlink:href="classutil_1_1_stack_base.html" target="_top" xlink:title=" ">
<polygon fill="white" stroke="black" points="834,-445 834,-464 942,-464 942,-445 834,-445"/>
<text text-anchor="middle" x="888" y="-452" font-family="Helvetica,sans-Serif" font-size="10.00">StackBase&lt; String &gt;</text>
</a>
</g>
</g>
<!-- Node12&#45;&gt;Node11 -->
<g id="edge15" class="edge">
<title>Node12&#45;&gt;Node11</title>
<path fill="none" stroke="#9a32cd" stroke-dasharray="5,2" d="M884.32,-435C879.29,-409.76 870.48,-365.52 866.75,-346.78"/>
<polygon fill="#9a32cd" stroke="#9a32cd" points="880.89,-435.69 886.27,-444.82 887.75,-434.33 880.89,-435.69"/>
<text text-anchor="middle" x="890" y="-391" font-family="Helvetica,sans-Serif" font-size="10.00"> NS</text>
</g>
<!-- Node13&#45;&gt;Node2 -->
<g id="edge18" class="edge">
<title>Node13&#45;&gt;Node2</title>
<path fill="none" stroke="#9a32cd" stroke-dasharray="5,2" d="M478.53,-126.57C468.26,-110.95 453.62,-88.7 445.67,-76.62"/>
<polygon fill="#9a32cd" stroke="#9a32cd" points="475.84,-128.85 484.26,-135.28 481.69,-125 475.84,-128.85"/>
<text text-anchor="middle" x="514" y="-109" font-family="Helvetica,sans-Serif" font-size="10.00"> REF_HEAD_LAST</text>
<text text-anchor="middle" x="514" y="-98" font-family="Helvetica,sans-Serif" font-size="10.00">REF_HEAD_LEN</text>
</g>
<!-- Node14&#45;&gt;Node13 -->
<g id="edge19" class="edge">
<title>Node14&#45;&gt;Node13</title>
<path fill="none" stroke="midnightblue" d="M488.4,-220.74C488.83,-200.62 489.5,-169.55 489.82,-154.61"/>
<polygon fill="midnightblue" stroke="midnightblue" points="484.9,-220.8 488.18,-230.87 491.9,-220.95 484.9,-220.8"/>
</g>
<!-- Node15 -->
<g id="node15" class="node">
<title>Node15</title>
<g id="a_node15"><a xlink:href="interfaceformat_1_1_x_formattable.html" target="_top" xlink:title="入れ子フォーマット出力可能なオブジェクトのインタフェース。">
<polygon fill="white" stroke="black" points="358.5,-327.5 358.5,-346.5 433.5,-346.5 433.5,-327.5 358.5,-327.5"/>
<text text-anchor="middle" x="396" y="-334.5" font-family="Helvetica,sans-Serif" font-size="10.00">XFormattable</text>
</a>
</g>
</g>
<!-- Node15&#45;&gt;Node14 -->
<g id="edge20" class="edge">
<title>Node15&#45;&gt;Node14</title>
<path fill="none" stroke="midnightblue" d="M411.51,-320.07C431.08,-299.96 464.07,-266.08 479.53,-250.2"/>
<polygon fill="midnightblue" stroke="midnightblue" points="408.96,-317.67 404.49,-327.28 413.97,-322.56 408.96,-317.67"/>
</g>
<!-- Node16 -->
<g id="node16" class="node">
<title>Node16</title>
<g id="a_node16"><a xlink:title=" ">
<polygon fill="white" stroke="#bfbfbf" points="451.5,-327.5 451.5,-346.5 524.5,-346.5 524.5,-327.5 451.5,-327.5"/>
<text text-anchor="middle" x="488" y="-334.5" font-family="Helvetica,sans-Serif" font-size="10.00">static Report</text>
</a>
</g>
</g>
<!-- Node16&#45;&gt;Node14 -->
<g id="edge23" class="edge">
<title>Node16&#45;&gt;Node14</title>
<path fill="none" stroke="#9a32cd" stroke-dasharray="5,2" d="M488,-317.04C488,-296.71 488,-265.3 488,-250.2"/>
<polygon fill="#9a32cd" stroke="#9a32cd" points="484.5,-317.28 488,-327.28 491.5,-317.28 484.5,-317.28"/>
<text text-anchor="middle" x="499" y="-294.5" font-family="Helvetica,sans-Serif" font-size="10.00"> repo</text>
</g>
<!-- Node17 -->
<g id="node17" class="node">
<title>Node17</title>
<g id="a_node17"><a xlink:href="interfacetype_1_1_typable.html" target="_top" xlink:title="抽象ノードがもつ関数型のインタフェース">
<polygon fill="white" stroke="black" points="181,-327.5 181,-346.5 231,-346.5 231,-327.5 181,-327.5"/>
<text text-anchor="middle" x="206" y="-334.5" font-family="Helvetica,sans-Serif" font-size="10.00">Typable</text>
</a>
</g>
</g>
<!-- Node17&#45;&gt;Node14 -->
<g id="edge25" class="edge">
<title>Node17&#45;&gt;Node14</title>
<path fill="none" stroke="#9a32cd" stroke-dasharray="5,2" d="M241.16,-326.93C242.45,-326.61 243.74,-326.3 245,-326 281.3,-317.36 294.07,-325.55 327,-308 339.48,-301.35 337.38,-292.39 350,-286 391.06,-265.2 409.68,-286.12 452,-268 462.13,-263.66 472.1,-255.98 478.97,-250"/>
<polygon fill="#9a32cd" stroke="#9a32cd" points="240,-323.61 231.14,-329.42 241.69,-330.4 240,-323.61"/>
<text text-anchor="middle" x="365" y="-294.5" font-family="Helvetica,sans-Serif" font-size="10.00"> typing</text>
</g>
<!-- Node18 -->
<g id="node18" class="node">
<title>Node18</title>
<g id="a_node18"><a xlink:href="interfacemachine_1_1_assignable.html" target="_top" xlink:title="変数（チャネルとコンテナの名前）の抽象化">
<polygon fill="white" stroke="black" points="377.5,-231 377.5,-250 442.5,-250 442.5,-231 377.5,-231"/>
<text text-anchor="middle" x="410" y="-238" font-family="Helvetica,sans-Serif" font-size="10.00">Assignable</text>
</a>
</g>
</g>
<!-- Node18&#45;&gt;Node13 -->
<g id="edge27" class="edge">
<title>Node18&#45;&gt;Node13</title>
<path fill="none" stroke="midnightblue" d="M423.94,-223.21C441.01,-203.25 469.31,-170.18 482.64,-154.61"/>
<polygon fill="midnightblue" stroke="midnightblue" points="421.22,-221 417.38,-230.87 426.54,-225.55 421.22,-221"/>
</g>
</g>
</svg>
