<?xml version="1.0" encoding="UTF-8" standalone="no"?>
<!DOCTYPE svg PUBLIC "-//W3C//DTD SVG 1.1//EN"
 "http://www.w3.org/Graphics/SVG/1.1/DTD/svg11.dtd">
<!-- Generated by graphviz version 2.47.1 (20210417.1919)
 -->
<!-- Title: Bufs Pages: 1 -->
<svg width="335pt" height="106pt"
 viewBox="0.00 0.00 334.50 106.00" xmlns="http://www.w3.org/2000/svg" xmlns:xlink="http://www.w3.org/1999/xlink">
<g id="graph0" class="graph" transform="scale(1 1) rotate(0) translate(4 102)">
<title>Bufs</title>
<polygon fill="white" stroke="transparent" points="-4,4 -4,-102 330.5,-102 330.5,4 -4,4"/>
<!-- Node1 -->
<g id="node1" class="node">
<title>Node1</title>
<g id="a_node1"><a xlink:title="各種の清書バッファの管理オブジェクトを提供するオブジェクトプール。">
<polygon fill="#bfbfbf" stroke="black" points="133,-0.5 133,-19.5 170,-19.5 170,-0.5 133,-0.5"/>
<text text-anchor="middle" x="151.5" y="-7.5" font-family="Helvetica,sans-Serif" font-size="10.00">Bufs</text>
</a>
</g>
</g>
<!-- Node2 -->
<g id="node2" class="node">
<title>Node2</title>
<g id="a_node2"><a xlink:href="classutil_1_1_recycle_manager.html" target="_top" xlink:title=" ">
<polygon fill="white" stroke="black" points="0,-67.5 0,-97.5 137,-97.5 137,-67.5 0,-67.5"/>
<text text-anchor="start" x="8" y="-85.5" font-family="Helvetica,sans-Serif" font-size="10.00">RecycleManager&lt; util.Yaml</text>
<text text-anchor="middle" x="68.5" y="-74.5" font-family="Helvetica,sans-Serif" font-size="10.00">Buf &gt;</text>
</a>
</g>
</g>
<!-- Node2&#45;&gt;Node1 -->
<g id="edge1" class="edge">
<title>Node2&#45;&gt;Node1</title>
<path fill="none" stroke="#9a32cd" stroke-dasharray="5,2" d="M92.73,-60.79C101.19,-53.57 110.76,-45.42 119.5,-38 126.71,-31.89 134.85,-25.02 141.11,-19.74"/>
<polygon fill="#9a32cd" stroke="#9a32cd" points="90.35,-58.22 85.02,-67.37 94.9,-63.54 90.35,-58.22"/>
<text text-anchor="middle" x="166" y="-41" font-family="Helvetica,sans-Serif" font-size="10.00"> theYamlBufRecycler</text>
</g>
<!-- Node3 -->
<g id="node3" class="node">
<title>Node3</title>
<g id="a_node3"><a xlink:href="classutil_1_1_recycle_manager.html" target="_top" xlink:title=" ">
<polygon fill="white" stroke="black" points="155.5,-73 155.5,-92 313.5,-92 313.5,-73 155.5,-73"/>
<text text-anchor="middle" x="234.5" y="-80" font-family="Helvetica,sans-Serif" font-size="10.00">RecycleManager&lt; StringBufKt &gt;</text>
</a>
</g>
</g>
<!-- Node3&#45;&gt;Node1 -->
<g id="edge2" class="edge">
<title>Node3&#45;&gt;Node1</title>
<path fill="none" stroke="#9a32cd" stroke-dasharray="5,2" d="M228.53,-63.2C224.98,-54.66 219.74,-44.88 212.5,-38 200.66,-26.75 183.36,-19.71 170.2,-15.64"/>
<polygon fill="#9a32cd" stroke="#9a32cd" points="225.3,-64.56 232.03,-72.74 231.87,-62.14 225.3,-64.56"/>
<text text-anchor="middle" x="273.5" y="-41" font-family="Helvetica,sans-Serif" font-size="10.00"> theStringBufKtRecycler</text>
</g>
</g>
</svg>
