<?xml version="1.0" encoding="UTF-8" standalone="no"?>
<!DOCTYPE svg PUBLIC "-//W3C//DTD SVG 1.1//EN"
 "http://www.w3.org/Graphics/SVG/1.1/DTD/svg11.dtd">
<!-- Generated by graphviz version 2.47.1 (20210417.1919)
 -->
<!-- Title: AsaxEventReader Pages: 1 -->
<!--zoomable 600 -->
<svg id="main" version="1.1" xmlns="http://www.w3.org/2000/svg" xmlns:xlink="http://www.w3.org/1999/xlink" xml:space="preserve" onload="init(evt)">
<style type="text/css"><![CDATA[
.edge:hover path { stroke: red; }
.edge:hover polygon { stroke: red; fill: red; }
]]></style>
<script type="text/javascript"><![CDATA[
var edges = document.getElementsByTagName('g');
if (edges && edges.length) {
  for (var i=0;i<edges.length;i++) {
    if (edges[i].id.substr(0,4)=='edge') {
      edges[i].setAttribute('class','edge');
    }
  }
}
]]></script>
        <defs>
                <circle id="rim" cx="0" cy="0" r="7"/>
                <circle id="rim2" cx="0" cy="0" r="3.5"/>
                <g id="zoomPlus">
                        <use xlink:href="#rim" fill="#404040">
                                <set attributeName="fill" to="#808080" begin="zoomplus.mouseover" end="zoomplus.mouseout"/>
                        </use>
                        <path d="M-4,0h8M0,-4v8" fill="none" stroke="white" stroke-width="1.5" pointer-events="none"/>
                </g>
                <g id="zoomMin">
                        <use xlink:href="#rim" fill="#404040">
                                <set attributeName="fill" to="#808080" begin="zoomminus.mouseover" end="zoomminus.mouseout"/>
                        </use>
                        <path d="M-4,0h8" fill="none" stroke="white" stroke-width="1.5" pointer-events="none"/>
                </g>
                <g id="dirArrow">
                        <path fill="none" stroke="white" stroke-width="1.5" d="M0,-3.0v7 M-2.5,-0.5L0,-3.0L2.5,-0.5"/>
                </g>
               <g id="resetDef">
                       <use xlink:href="#rim2" fill="#404040">
                               <set attributeName="fill" to="#808080" begin="reset.mouseover" end="reset.mouseout"/>
                       </use>
               </g>
        </defs>

<script type="text/javascript">
var viewWidth = 775;
var viewHeight = 600;
var sectionId = 'dynsection-1';
</script>
<script xlink:href="svgpan.js"/>
<svg id="graph" class="graph">
<g id="viewport">
<title>AsaxEventReader</title>
<polygon fill="white" stroke="transparent" points="-4,4 -4,-595.61 771,-595.61 771,4 -4,4"/>
<!-- Node1 -->
<g id="node1" class="node">
<title>Node1</title>
<g id="a_node1"><a xlink:title="EventReadableインタフェースを実現するストリーム指向のプル型XMLパーザのクラス.">
<polygon fill="#bfbfbf" stroke="black" points="671,-3.11 671,-22.11 767,-22.11 767,-3.11 671,-3.11"/>
<text text-anchor="middle" x="719" y="-10.11" font-family="Helvetica,sans-Serif" font-size="10.00">AsaxEventReader</text>
</a>
</g>
</g>
<!-- Node2 -->
<g id="node2" class="node">
<title>Node2</title>
<g id="a_node2"><a xlink:href="classevent_1_1_event_reader_base.html" target="_top" xlink:title="構造文書走査器の実装に有用な基本手続きを提供するEventReadableインタフェースの実装クラス.">
<polygon fill="white" stroke="black" points="538,-315.11 538,-334.11 634,-334.11 634,-315.11 538,-315.11"/>
<text text-anchor="middle" x="586" y="-322.11" font-family="Helvetica,sans-Serif" font-size="10.00">EventReaderBase</text>
</a>
</g>
</g>
<!-- Node2&#45;&gt;Node1 -->
<g id="edge1" class="edge">
<title>Node2&#45;&gt;Node1</title>
<path fill="none" stroke="midnightblue" d="M594.98,-305.61C619.89,-246.27 695.67,-65.8 713.98,-22.17"/>
<polygon fill="midnightblue" stroke="midnightblue" points="591.71,-304.35 591.06,-314.93 598.16,-307.06 591.71,-304.35"/>
</g>
<!-- Node2&#45;&gt;Node2 -->
<g id="edge8" class="edge">
<title>Node2&#45;&gt;Node2</title>
<path fill="none" stroke="#9a32cd" stroke-dasharray="5,2" d="M573.85,-344.37C574.8,-349.1 578.85,-352.61 586,-352.61 597.73,-352.61 601.12,-343.17 596.17,-334.36"/>
<polygon fill="#9a32cd" stroke="#9a32cd" points="577.32,-344.85 575.83,-334.36 570.45,-343.49 577.32,-344.85"/>
<text text-anchor="middle" x="586" y="-355.61" font-family="Helvetica,sans-Serif" font-size="10.00"> driver</text>
</g>
<!-- Node3 -->
<g id="node3" class="node">
<title>Node3</title>
<g id="a_node3"><a xlink:href="interfaceevent_1_1_event_readable.html" target="_top" xlink:title="構造文書走査器が備えるべき機能を記述するインタフェース.">
<polygon fill="white" stroke="black" points="301.5,-534.11 301.5,-553.11 384.5,-553.11 384.5,-534.11 301.5,-534.11"/>
<text text-anchor="middle" x="343" y="-541.11" font-family="Helvetica,sans-Serif" font-size="10.00">EventReadable</text>
</a>
</g>
</g>
<!-- Node3&#45;&gt;Node2 -->
<g id="edge2" class="edge">
<title>Node3&#45;&gt;Node2</title>
<path fill="none" stroke="midnightblue" d="M394.78,-549.71C433.36,-551.49 485.49,-547.34 520,-518.61 578.69,-469.74 584.65,-366.12 585.05,-334.18"/>
<polygon fill="midnightblue" stroke="midnightblue" points="394.98,-546.22 384.78,-549.11 394.55,-553.21 394.98,-546.22"/>
</g>
<!-- Node4 -->
<g id="node4" class="node">
<title>Node4</title>
<g id="a_node4"><a xlink:href="class_iterable.html" target="_top" xlink:title=" ">
<polygon fill="white" stroke="black" points="21.5,-554.11 21.5,-573.11 113.5,-573.11 113.5,-554.11 21.5,-554.11"/>
<text text-anchor="middle" x="67.5" y="-561.11" font-family="Helvetica,sans-Serif" font-size="10.00">Iterable&lt; Event &gt;</text>
</a>
</g>
</g>
<!-- Node4&#45;&gt;Node3 -->
<g id="edge3" class="edge">
<title>Node4&#45;&gt;Node3</title>
<path fill="none" stroke="midnightblue" d="M123.82,-559.56C176.36,-555.72 254.13,-550.03 301.24,-546.59"/>
<polygon fill="midnightblue" stroke="midnightblue" points="123.38,-556.08 113.66,-560.3 123.89,-563.07 123.38,-556.08"/>
</g>
<!-- Node5 -->
<g id="node5" class="node">
<title>Node5</title>
<g id="a_node5"><a xlink:title=" ">
<polygon fill="white" stroke="#bfbfbf" points="46.5,-506.11 46.5,-525.11 88.5,-525.11 88.5,-506.11 46.5,-506.11"/>
<text text-anchor="middle" x="67.5" y="-513.11" font-family="Helvetica,sans-Serif" font-size="10.00">String</text>
</a>
</g>
</g>
<!-- Node5&#45;&gt;Node2 -->
<g id="edge5" class="edge">
<title>Node5&#45;&gt;Node2</title>
<path fill="none" stroke="#9a32cd" stroke-dasharray="5,2" d="M98.76,-515.83C188.88,-515.93 453.35,-511.82 520,-461.61 563.53,-428.82 579.16,-359.48 583.55,-334.14"/>
<polygon fill="#9a32cd" stroke="#9a32cd" points="98.67,-512.33 88.66,-515.8 98.65,-519.33 98.67,-512.33"/>
<text text-anchor="middle" x="343" y="-513.61" font-family="Helvetica,sans-Serif" font-size="10.00"> ATTR_PREFIX</text>
</g>
<!-- Node5&#45;&gt;Node3 -->
<g id="edge4" class="edge">
<title>Node5&#45;&gt;Node3</title>
<path fill="none" stroke="#9a32cd" stroke-dasharray="5,2" d="M98.65,-518.69C148.02,-523.75 246.11,-533.79 301.49,-539.46"/>
<polygon fill="#9a32cd" stroke="#9a32cd" points="98.92,-515.2 88.61,-517.67 98.2,-522.17 98.92,-515.2"/>
<text text-anchor="middle" x="199" y="-535.61" font-family="Helvetica,sans-Serif" font-size="10.00"> ROOT_TAG</text>
</g>
<!-- Node6 -->
<g id="node6" class="node">
<title>Node6</title>
<g id="a_node6"><a xlink:title=" ">
<polygon fill="white" stroke="#bfbfbf" points="316.5,-449.11 316.5,-468.11 369.5,-468.11 369.5,-449.11 316.5,-449.11"/>
<text text-anchor="middle" x="343" y="-456.11" font-family="Helvetica,sans-Serif" font-size="10.00">CharSet</text>
</a>
</g>
</g>
<!-- Node6&#45;&gt;Node2 -->
<g id="edge6" class="edge">
<title>Node6&#45;&gt;Node2</title>
<path fill="none" stroke="#9a32cd" stroke-dasharray="5,2" d="M379.58,-457.14C417.38,-454.04 477.42,-444.52 520,-415.61 551.16,-394.45 572.42,-353.1 580.89,-334.31"/>
<polygon fill="#9a32cd" stroke="#9a32cd" points="379.27,-453.66 369.55,-457.86 379.77,-460.64 379.27,-453.66"/>
<text text-anchor="middle" x="480.5" y="-449.61" font-family="Helvetica,sans-Serif" font-size="10.00"> CS</text>
</g>
<!-- Node7 -->
<g id="node7" class="node">
<title>Node7</title>
<g id="a_node7"><a xlink:title=" ">
<polygon fill="white" stroke="#bfbfbf" points="310.5,-411.11 310.5,-430.11 375.5,-430.11 375.5,-411.11 310.5,-411.11"/>
<text text-anchor="middle" x="343" y="-418.11" font-family="Helvetica,sans-Serif" font-size="10.00">TraceLevel</text>
</a>
</g>
</g>
<!-- Node7&#45;&gt;Node2 -->
<g id="edge7" class="edge">
<title>Node7&#45;&gt;Node2</title>
<path fill="none" stroke="#9a32cd" stroke-dasharray="5,2" d="M385.45,-414.42C422.23,-407.82 476.69,-395.26 520,-373.61 541.24,-362.99 562.59,-345.21 574.77,-334.23"/>
<polygon fill="#9a32cd" stroke="#9a32cd" points="384.83,-410.98 375.57,-416.13 386.02,-417.88 384.83,-410.98"/>
<text text-anchor="middle" x="480.5" y="-403.61" font-family="Helvetica,sans-Serif" font-size="10.00"> LOG</text>
</g>
<!-- Node8 -->
<g id="node8" class="node">
<title>Node8</title>
<g id="a_node8"><a xlink:title=" ">
<polygon fill="white" stroke="#bfbfbf" points="301,-373.11 301,-392.11 385,-392.11 385,-373.11 301,-373.11"/>
<text text-anchor="middle" x="343" y="-380.11" font-family="Helvetica,sans-Serif" font-size="10.00">InputScannable</text>
</a>
</g>
</g>
<!-- Node8&#45;&gt;Node2 -->
<g id="edge9" class="edge">
<title>Node8&#45;&gt;Node2</title>
<path fill="none" stroke="#9a32cd" stroke-dasharray="5,2" d="M393.35,-370.73C438.31,-359.91 503.85,-344.14 545.45,-334.12"/>
<polygon fill="#9a32cd" stroke="#9a32cd" points="392.43,-367.35 383.53,-373.09 394.07,-374.16 392.43,-367.35"/>
<text text-anchor="middle" x="480.5" y="-361.61" font-family="Helvetica,sans-Serif" font-size="10.00"> ins</text>
</g>
<!-- Node9 -->
<g id="node9" class="node">
<title>Node9</title>
<g id="a_node9"><a xlink:title=" ">
<polygon fill="white" stroke="#bfbfbf" points="53,-249.11 53,-268.11 82,-268.11 82,-249.11 53,-249.11"/>
<text text-anchor="middle" x="67.5" y="-256.11" font-family="Helvetica,sans-Serif" font-size="10.00">int</text>
</a>
</g>
</g>
<!-- Node9&#45;&gt;Node2 -->
<g id="edge10" class="edge">
<title>Node9&#45;&gt;Node2</title>
<path fill="none" stroke="#9a32cd" stroke-dasharray="5,2" d="M92.38,-259.74C171.77,-263.52 421.98,-275.43 423,-275.61 472.8,-284.2 528.81,-303.36 560.21,-315.02"/>
<polygon fill="#9a32cd" stroke="#9a32cd" points="92.51,-256.24 82.35,-259.27 92.17,-263.24 92.51,-256.24"/>
<text text-anchor="middle" x="343" y="-355.61" font-family="Helvetica,sans-Serif" font-size="10.00"> LINE_WIDTH</text>
<text text-anchor="middle" x="343" y="-344.61" font-family="Helvetica,sans-Serif" font-size="10.00">MAX_CHAR</text>
<text text-anchor="middle" x="343" y="-333.61" font-family="Helvetica,sans-Serif" font-size="10.00">OVER_WIDTH</text>
<text text-anchor="middle" x="343" y="-322.61" font-family="Helvetica,sans-Serif" font-size="10.00">ch</text>
<text text-anchor="middle" x="343" y="-311.61" font-family="Helvetica,sans-Serif" font-size="10.00">gLine</text>
<text text-anchor="middle" x="343" y="-300.61" font-family="Helvetica,sans-Serif" font-size="10.00">gNumEvent</text>
<text text-anchor="middle" x="343" y="-289.61" font-family="Helvetica,sans-Serif" font-size="10.00">gNumExec</text>
<text text-anchor="middle" x="343" y="-278.61" font-family="Helvetica,sans-Serif" font-size="10.00">gPos</text>
</g>
<!-- Node13 -->
<g id="node13" class="node">
<title>Node13</title>
<g id="a_node13"><a xlink:href="classevent_1_1_event_manager.html" target="_top" xlink:title="イベントのメモリ管理モジュールのクラス.">
<polygon fill="white" stroke="black" points="303,-211.11 303,-230.11 383,-230.11 383,-211.11 303,-211.11"/>
<text text-anchor="middle" x="343" y="-218.11" font-family="Helvetica,sans-Serif" font-size="10.00">EventManager</text>
</a>
</g>
</g>
<!-- Node9&#45;&gt;Node13 -->
<g id="edge15" class="edge">
<title>Node9&#45;&gt;Node13</title>
<path fill="none" stroke="#9a32cd" stroke-dasharray="5,2" d="M92.25,-252.85C109.12,-248.94 132.34,-243.89 153,-240.61 204.49,-232.42 264.41,-226.72 302.75,-223.56"/>
<polygon fill="#9a32cd" stroke="#9a32cd" points="91.1,-249.53 82.18,-255.23 92.71,-256.34 91.1,-249.53"/>
<text text-anchor="middle" x="199" y="-254.61" font-family="Helvetica,sans-Serif" font-size="10.00"> count</text>
<text text-anchor="middle" x="199" y="-243.61" font-family="Helvetica,sans-Serif" font-size="10.00">maxnum</text>
</g>
<!-- Node10 -->
<g id="node10" class="node">
<title>Node10</title>
<g id="a_node10"><a xlink:title=" ">
<polygon fill="white" stroke="#bfbfbf" points="301.5,-82.11 301.5,-101.11 384.5,-101.11 384.5,-82.11 301.5,-82.11"/>
<text text-anchor="middle" x="343" y="-89.11" font-family="Helvetica,sans-Serif" font-size="10.00">static final char</text>
</a>
</g>
</g>
<!-- Node10&#45;&gt;Node2 -->
<g id="edge11" class="edge">
<title>Node10&#45;&gt;Node2</title>
<path fill="none" stroke="#9a32cd" stroke-dasharray="5,2" d="M394.86,-83.92C433.49,-81.04 485.64,-83.9 520,-112.61 584.11,-166.17 586.24,-281.25 585.4,-315.07"/>
<polygon fill="#9a32cd" stroke="#9a32cd" points="394.5,-80.44 384.85,-84.82 395.13,-87.41 394.5,-80.44"/>
<text text-anchor="middle" x="480.5" y="-115.61" font-family="Helvetica,sans-Serif" font-size="10.00"> ESCAPE_CHAR</text>
</g>
<!-- Node11 -->
<g id="node11" class="node">
<title>Node11</title>
<g id="a_node11"><a xlink:title=" ">
<polygon fill="white" stroke="#bfbfbf" points="280.5,-44.11 280.5,-63.11 405.5,-63.11 405.5,-44.11 280.5,-44.11"/>
<text text-anchor="middle" x="343" y="-51.11" font-family="Helvetica,sans-Serif" font-size="10.00">AutoStack&lt; event.Env &gt;</text>
</a>
</g>
</g>
<!-- Node11&#45;&gt;Node2 -->
<g id="edge12" class="edge">
<title>Node11&#45;&gt;Node2</title>
<path fill="none" stroke="#9a32cd" stroke-dasharray="5,2" d="M416.06,-51.97C457.55,-52.57 504.47,-56.37 520,-69.61 558.85,-102.73 579.41,-272.38 584,-314.92"/>
<polygon fill="#9a32cd" stroke="#9a32cd" points="415.96,-48.47 405.93,-51.89 415.9,-55.47 415.96,-48.47"/>
<text text-anchor="middle" x="480.5" y="-72.61" font-family="Helvetica,sans-Serif" font-size="10.00"> ES</text>
</g>
<!-- Node12 -->
<g id="node12" class="node">
<title>Node12</title>
<g id="a_node12"><a xlink:title=" ">
<polygon fill="white" stroke="#bfbfbf" points="42.5,-118.11 42.5,-137.11 92.5,-137.11 92.5,-118.11 42.5,-118.11"/>
<text text-anchor="middle" x="67.5" y="-125.11" font-family="Helvetica,sans-Serif" font-size="10.00">boolean</text>
</a>
</g>
</g>
<!-- Node12&#45;&gt;Node1 -->
<g id="edge19" class="edge">
<title>Node12&#45;&gt;Node1</title>
<path fill="none" stroke="#9a32cd" stroke-dasharray="5,2" d="M93.35,-112.87C129.45,-92.13 199.07,-54.65 263,-34.61 406.01,10.22 586.61,0.74 670.79,-7.21"/>
<polygon fill="#9a32cd" stroke="#9a32cd" points="91.4,-109.95 84.5,-118 94.91,-116.01 91.4,-109.95"/>
<text text-anchor="middle" x="480.5" y="-39.61" font-family="Helvetica,sans-Serif" font-size="10.00"> DEBUG_AQ</text>
<text text-anchor="middle" x="480.5" y="-28.61" font-family="Helvetica,sans-Serif" font-size="10.00">DEBUG_REPO</text>
<text text-anchor="middle" x="480.5" y="-17.61" font-family="Helvetica,sans-Serif" font-size="10.00">onDocumentStart</text>
<text text-anchor="middle" x="480.5" y="-6.61" font-family="Helvetica,sans-Serif" font-size="10.00">onOuterTextStart</text>
</g>
<!-- Node12&#45;&gt;Node2 -->
<g id="edge13" class="edge">
<title>Node12&#45;&gt;Node2</title>
<path fill="none" stroke="#9a32cd" stroke-dasharray="5,2" d="M102.62,-123.36C167.23,-116.63 310.97,-107.92 423,-146.61 472.77,-163.79 484.25,-175.96 520,-214.61 549.68,-246.68 572.17,-294.53 580.96,-314.88"/>
<polygon fill="#9a32cd" stroke="#9a32cd" points="102.15,-119.9 92.59,-124.46 102.91,-126.85 102.15,-119.9"/>
<text text-anchor="middle" x="343" y="-193.61" font-family="Helvetica,sans-Serif" font-size="10.00"> DEBUG_GETCH</text>
<text text-anchor="middle" x="343" y="-182.61" font-family="Helvetica,sans-Serif" font-size="10.00">DEBUG_REPO</text>
<text text-anchor="middle" x="343" y="-171.61" font-family="Helvetica,sans-Serif" font-size="10.00">DEBUG_TEXT</text>
<text text-anchor="middle" x="343" y="-160.61" font-family="Helvetica,sans-Serif" font-size="10.00">EXACT_TEXT_MODE</text>
<text text-anchor="middle" x="343" y="-149.61" font-family="Helvetica,sans-Serif" font-size="10.00">_gLastCR</text>
</g>
<!-- Node12&#45;&gt;Node13 -->
<g id="edge17" class="edge">
<title>Node12&#45;&gt;Node13</title>
<path fill="none" stroke="#9a32cd" stroke-dasharray="5,2" d="M103.13,-131.38C140.49,-136.72 200.58,-149.1 245,-176.61 255.17,-182.9 252.91,-190.19 263,-196.61 274.97,-204.22 289.5,-209.54 302.82,-213.19"/>
<polygon fill="#9a32cd" stroke="#9a32cd" points="103.14,-127.85 92.77,-129.99 102.21,-134.79 103.14,-127.85"/>
<text text-anchor="middle" x="199" y="-179.61" font-family="Helvetica,sans-Serif" font-size="10.00"> DEBUG_STOP_GC</text>
</g>
<!-- Node13&#45;&gt;Node2 -->
<g id="edge14" class="edge">
<title>Node13&#45;&gt;Node2</title>
<path fill="none" stroke="#9a32cd" stroke-dasharray="5,2" d="M393.09,-216.68C430.22,-215.92 481.27,-219.81 520,-241.61 550.62,-258.84 571.87,-296.91 580.59,-314.87"/>
<polygon fill="#9a32cd" stroke="#9a32cd" points="392.88,-213.18 383,-217 393.11,-220.18 392.88,-213.18"/>
<text text-anchor="middle" x="480.5" y="-244.61" font-family="Helvetica,sans-Serif" font-size="10.00"> EM</text>
</g>
<!-- Node14 -->
<g id="node14" class="node">
<title>Node14</title>
<g id="a_node14"><a xlink:title=" ">
<polygon fill="white" stroke="#bfbfbf" points="0,-185.11 0,-204.11 135,-204.11 135,-185.11 0,-185.11"/>
<text text-anchor="middle" x="67.5" y="-192.11" font-family="Helvetica,sans-Serif" font-size="10.00">Stack&lt; event.EventBase &gt;</text>
</a>
</g>
</g>
<!-- Node14&#45;&gt;Node13 -->
<g id="edge16" class="edge">
<title>Node14&#45;&gt;Node13</title>
<path fill="none" stroke="#9a32cd" stroke-dasharray="5,2" d="M145.69,-190.94C176.68,-190.53 212.65,-191.41 245,-195.61 268.11,-198.6 293.6,-205.31 312.65,-211.03"/>
<polygon fill="#9a32cd" stroke="#9a32cd" points="145.33,-187.44 135.39,-191.12 145.45,-194.44 145.33,-187.44"/>
<text text-anchor="middle" x="199" y="-209.61" font-family="Helvetica,sans-Serif" font-size="10.00"> freeStack</text>
<text text-anchor="middle" x="199" y="-198.61" font-family="Helvetica,sans-Serif" font-size="10.00">testStack</text>
</g>
<!-- Node15 -->
<g id="node15" class="node">
<title>Node15</title>
<g id="a_node15"><a xlink:title=" ">
<polygon fill="white" stroke="#bfbfbf" points="263,-572.11 263,-591.11 423,-591.11 423,-572.11 263,-572.11"/>
<text text-anchor="middle" x="343" y="-579.11" font-family="Helvetica,sans-Serif" font-size="10.00">java.util.Queue&lt; event.Actable &gt;</text>
</a>
</g>
</g>
<!-- Node15&#45;&gt;Node2 -->
<g id="edge18" class="edge">
<title>Node15&#45;&gt;Node2</title>
<path fill="none" stroke="#9a32cd" stroke-dasharray="5,2" d="M433.03,-582.13C463.88,-577.97 496.57,-568.05 520,-546.61 584.29,-487.77 586.29,-369.17 585.41,-334.4"/>
<polygon fill="#9a32cd" stroke="#9a32cd" points="432.62,-578.66 423.09,-583.29 433.43,-585.61 432.62,-578.66"/>
<text text-anchor="middle" x="480.5" y="-583.61" font-family="Helvetica,sans-Serif" font-size="10.00"> AQ</text>
</g>
</g>
</svg>
        <g id="navigator" transform="translate(0 0)" fill="#404254">
                <rect fill="#f2f5e9" fill-opacity="0.5" stroke="#606060" stroke-width=".5" x="0" y="0" width="60" height="60"/>
                <use id="zoomplus" xlink:href="#zoomPlus" x="17" y="9" onmousedown="handleZoom(evt,'in')"/>
                <use id="zoomminus" xlink:href="#zoomMin" x="42" y="9" onmousedown="handleZoom(evt,'out')"/>
                <use id="reset" xlink:href="#resetDef" x="30" y="36" onmousedown="handleReset()"/>
                <g id="arrowUp" xlink:href="#dirArrow" transform="translate(30 24)" onmousedown="handlePan(0,-1)">
                  <use xlink:href="#rim" fill="#404040">
                        <set attributeName="fill" to="#808080" begin="arrowUp.mouseover" end="arrowUp.mouseout"/>
                  </use>
                  <path fill="none" stroke="white" stroke-width="1.5" d="M0,-3.0v7 M-2.5,-0.5L0,-3.0L2.5,-0.5"/>
                </g>
                <g id="arrowRight" xlink:href="#dirArrow" transform="rotate(90) translate(36 -43)" onmousedown="handlePan(1,0)">
                  <use xlink:href="#rim" fill="#404040">
                        <set attributeName="fill" to="#808080" begin="arrowRight.mouseover" end="arrowRight.mouseout"/>
                  </use>
                  <path fill="none" stroke="white" stroke-width="1.5" d="M0,-3.0v7 M-2.5,-0.5L0,-3.0L2.5,-0.5"/>
                </g>
                <g id="arrowDown" xlink:href="#dirArrow" transform="rotate(180) translate(-30 -48)" onmousedown="handlePan(0,1)">
                  <use xlink:href="#rim" fill="#404040">
                        <set attributeName="fill" to="#808080" begin="arrowDown.mouseover" end="arrowDown.mouseout"/>
                  </use>
                  <path fill="none" stroke="white" stroke-width="1.5" d="M0,-3.0v7 M-2.5,-0.5L0,-3.0L2.5,-0.5"/>
                </g>
                <g id="arrowLeft" xlink:href="#dirArrow" transform="rotate(270) translate(-36 17)" onmousedown="handlePan(-1,0)">
                  <use xlink:href="#rim" fill="#404040">
                        <set attributeName="fill" to="#808080" begin="arrowLeft.mouseover" end="arrowLeft.mouseout"/>
                  </use>
                  <path fill="none" stroke="white" stroke-width="1.5" d="M0,-3.0v7 M-2.5,-0.5L0,-3.0L2.5,-0.5"/>
                </g>
        </g>
        <svg viewBox="0 0 15 15" width="100%" height="30px" preserveAspectRatio="xMaxYMin meet">
         <g id="arrow_out" transform="scale(0.3 0.3)">
          <a xlink:href="classevent_1_1asax_1_1_asax_event_reader__coll__graph_org.svg" target="_base">
           <rect id="button" ry="5" rx="5" y="6" x="6" height="38" width="38"
                fill="#f2f5e9" fill-opacity="0.5" stroke="#606060" stroke-width="1.0"/>
           <path id="arrow"
             d="M 11.500037,31.436501 C 11.940474,20.09759 22.043105,11.32322 32.158766,21.979434 L 37.068811,17.246167 C 37.068811,17.246167 37.088388,32 37.088388,32 L 22.160133,31.978069 C 22.160133,31.978069 26.997745,27.140456 26.997745,27.140456 C 18.528582,18.264221 13.291696,25.230495 11.500037,31.436501 z"
             style="fill:#404040;"/>
          </a>
         </g>
        </svg>
</svg>
