<?xml version="1.0" encoding="UTF-8" standalone="no"?>
<!DOCTYPE svg PUBLIC "-//W3C//DTD SVG 1.1//EN"
 "http://www.w3.org/Graphics/SVG/1.1/DTD/svg11.dtd">
<!-- Generated by graphviz version 2.38.0 (20140413.2041)
 -->
<!-- Title: queryParser.ArithTermStepContext Pages: 1 -->
<svg width="1528pt" height="480pt"
 viewBox="0.00 0.00 1528.06 480.00" xmlns="http://www.w3.org/2000/svg" xmlns:xlink="http://www.w3.org/1999/xlink">
<g id="graph0" class="graph" transform="scale(1 1) rotate(0) translate(4 476)">
<title>queryParser.ArithTermStepContext</title>
<polygon fill="white" stroke="none" points="-4,4 -4,-476 1524.06,-476 1524.06,4 -4,4"/>
<!-- Node1 -->
<g id="node1" class="node"><title>Node1</title>
<g id="a_node1"><a xlink:title=" ">
<polygon fill="#bfbfbf" stroke="black" points="1182.2,-334 1182.2,-362 1318.25,-362 1318.25,-334 1182.2,-334"/>
<text text-anchor="start" x="1190.2" y="-350" font-family="Helvetica,sans-Serif" font-size="10.00">queryParser.ArithTermStep</text>
<text text-anchor="middle" x="1250.22" y="-340" font-family="Helvetica,sans-Serif" font-size="10.00">Context</text>
</a>
</g>
</g>
<!-- Node2 -->
<g id="node2" class="node"><title>Node2</title>
<g id="a_node2"><a xlink:href="classparse_1_1query_parser_1_1_arith_term_context.html" target="_top" xlink:title=" ">
<polygon fill="white" stroke="black" points="311.117,-387 311.117,-405 461.062,-405 461.062,-387 311.117,-387"/>
<text text-anchor="middle" x="386.09" y="-393" font-family="Helvetica,sans-Serif" font-size="10.00">queryParser.ArithTermContext</text>
</a>
</g>
</g>
<!-- Node2&#45;&gt;Node1 -->
<g id="edge1" class="edge"><title>Node2&#45;&gt;Node1</title>
<path fill="none" stroke="midnightblue" d="M471.254,-396C535.792,-396 627.078,-396 707.106,-396 707.106,-396 707.106,-396 1065.81,-396 1108.68,-396 1119.37,-389.819 1160.58,-378 1168.83,-375.634 1170.49,-373.885 1178.58,-371 1186.96,-368.008 1195.96,-364.958 1204.63,-362.099"/>
<polygon fill="midnightblue" stroke="midnightblue" points="471.131,-392.5 461.131,-396 471.131,-399.5 471.131,-392.5"/>
</g>
<!-- Node3 -->
<g id="node3" class="node"><title>Node3</title>
<g id="a_node3"><a xlink:title=" ">
<polygon fill="white" stroke="#bfbfbf" points="0,-292 0,-310 100.482,-310 100.482,-292 0,-292"/>
<text text-anchor="middle" x="50.2412" y="-298" font-family="Helvetica,sans-Serif" font-size="10.00">ParserRuleContext</text>
</a>
</g>
</g>
<!-- Node3&#45;&gt;Node2 -->
<g id="edge2" class="edge"><title>Node3&#45;&gt;Node2</title>
<path fill="none" stroke="midnightblue" d="M62.3206,-318.637C74.0164,-335.547 94.1185,-360.195 118.482,-372 178.603,-401.129 255.269,-405.112 310.942,-403.005"/>
<polygon fill="midnightblue" stroke="midnightblue" points="65.1531,-316.575 56.7141,-310.169 59.3165,-320.44 65.1531,-316.575"/>
</g>
<!-- Node4 -->
<g id="node4" class="node"><title>Node4</title>
<g id="a_node4"><a xlink:href="classparse_1_1query_parser_1_1_step_context.html" target="_top" xlink:title=" ">
<polygon fill="white" stroke="black" points="1000.94,-311 1000.94,-329 1128.68,-329 1128.68,-311 1000.94,-311"/>
<text text-anchor="middle" x="1064.81" y="-317" font-family="Helvetica,sans-Serif" font-size="10.00">queryParser.StepContext</text>
</a>
</g>
</g>
<!-- Node3&#45;&gt;Node4 -->
<g id="edge4" class="edge"><title>Node3&#45;&gt;Node4</title>
<path fill="none" stroke="midnightblue" d="M75.9327,-315.062C107.947,-331.941 166.013,-358 219.359,-358 219.359,-358 219.359,-358 871.507,-358 931.062,-358 999.057,-340.243 1036.12,-329.005"/>
<polygon fill="midnightblue" stroke="midnightblue" points="77.3283,-311.838 66.8675,-310.158 73.9974,-317.995 77.3283,-311.838"/>
</g>
<!-- Node5 -->
<g id="node5" class="node"><title>Node5</title>
<g id="a_node5"><a xlink:href="classparse_1_1query_parser_1_1_path_context.html" target="_top" xlink:title=" ">
<polygon fill="white" stroke="black" points="644.239,-311 644.239,-329 771.973,-329 771.973,-311 644.239,-311"/>
<text text-anchor="middle" x="708.106" y="-317" font-family="Helvetica,sans-Serif" font-size="10.00">queryParser.PathContext</text>
</a>
</g>
</g>
<!-- Node3&#45;&gt;Node5 -->
<g id="edge6" class="edge"><title>Node3&#45;&gt;Node5</title>
<path fill="none" stroke="midnightblue" d="M110.834,-305.591C113.418,-305.74 115.976,-305.877 118.482,-306 309.661,-315.375 536.087,-318.526 643.914,-319.542"/>
<polygon fill="midnightblue" stroke="midnightblue" points="110.995,-302.094 100.798,-304.969 110.562,-309.081 110.995,-302.094"/>
</g>
<!-- Node6 -->
<g id="node6" class="node"><title>Node6</title>
<g id="a_node6"><a xlink:href="classparse_1_1query_parser_1_1_ord_block_context.html" target="_top" xlink:title=" ">
<polygon fill="white" stroke="black" points="1371.77,-325 1371.77,-343 1520.06,-343 1520.06,-325 1371.77,-325"/>
<text text-anchor="middle" x="1445.92" y="-331" font-family="Helvetica,sans-Serif" font-size="10.00">queryParser.OrdBlockContext</text>
</a>
</g>
</g>
<!-- Node3&#45;&gt;Node6 -->
<g id="edge8" class="edge"><title>Node3&#45;&gt;Node6</title>
<path fill="none" stroke="midnightblue" d="M58.814,-319.513C78.2812,-363.762 134.566,-472 219.359,-472 219.359,-472 219.359,-472 1251.22,-472 1340.41,-472 1416.99,-373.756 1438.74,-343.055"/>
<polygon fill="midnightblue" stroke="midnightblue" points="61.9838,-318.023 54.8462,-310.194 55.5432,-320.766 61.9838,-318.023"/>
</g>
<!-- Node8 -->
<g id="node8" class="node"><title>Node8</title>
<g id="a_node8"><a xlink:href="classparse_1_1query_parser_1_1_step_list_context.html" target="_top" xlink:title=" ">
<polygon fill="white" stroke="black" points="1178.58,-381 1178.58,-399 1321.87,-399 1321.87,-381 1178.58,-381"/>
<text text-anchor="middle" x="1250.22" y="-387" font-family="Helvetica,sans-Serif" font-size="10.00">queryParser.StepListContext</text>
</a>
</g>
</g>
<!-- Node3&#45;&gt;Node8 -->
<g id="edge11" class="edge"><title>Node3&#45;&gt;Node8</title>
<path fill="none" stroke="midnightblue" d="M62.3334,-318.718C74.6165,-337.491 95.7127,-367.355 118.482,-389 154.063,-422.824 170.266,-434 219.359,-434 219.359,-434 219.359,-434 1065.81,-434 1125.24,-434 1192.6,-411.883 1226.77,-399.01"/>
<polygon fill="midnightblue" stroke="midnightblue" points="65.2432,-316.771 56.8969,-310.245 59.3517,-320.552 65.2432,-316.771"/>
</g>
<!-- Node9 -->
<g id="node9" class="node"><title>Node9</title>
<g id="a_node9"><a xlink:href="classparse_1_1query_parser_1_1_ret_block_context.html" target="_top" xlink:title=" ">
<polygon fill="white" stroke="black" points="479.062,-248 479.062,-266 626.239,-266 626.239,-248 479.062,-248"/>
<text text-anchor="middle" x="552.651" y="-254" font-family="Helvetica,sans-Serif" font-size="10.00">queryParser.RetBlockContext</text>
</a>
</g>
</g>
<!-- Node3&#45;&gt;Node9 -->
<g id="edge14" class="edge"><title>Node3&#45;&gt;Node9</title>
<path fill="none" stroke="midnightblue" d="M110.849,-296.96C190.677,-291.376 336.682,-280.554 461.062,-268 467.052,-267.395 473.26,-266.728 479.489,-266.03"/>
<polygon fill="midnightblue" stroke="midnightblue" points="110.238,-293.494 100.505,-297.68 110.724,-300.477 110.238,-293.494"/>
</g>
<!-- Node10 -->
<g id="node10" class="node"><title>Node10</title>
<g id="a_node10"><a xlink:href="classparse_1_1query_parser_1_1_str_expr_context.html" target="_top" xlink:title=" ">
<polygon fill="white" stroke="black" points="150.108,-235 150.108,-253 290.61,-253 290.61,-235 150.108,-235"/>
<text text-anchor="middle" x="220.359" y="-241" font-family="Helvetica,sans-Serif" font-size="10.00">queryParser.StrExprContext</text>
</a>
</g>
</g>
<!-- Node3&#45;&gt;Node10 -->
<g id="edge16" class="edge"><title>Node3&#45;&gt;Node10</title>
<path fill="none" stroke="midnightblue" d="M75.973,-287.214C88.4351,-280.697 103.952,-273.22 118.482,-268 135.509,-261.883 154.714,-256.87 171.763,-253.037"/>
<polygon fill="midnightblue" stroke="midnightblue" points="74.2724,-284.155 67.1055,-291.958 77.5742,-290.327 74.2724,-284.155"/>
</g>
<!-- Node11 -->
<g id="node11" class="node"><title>Node11</title>
<g id="a_node11"><a xlink:href="classparse_1_1query_parser_1_1_where_block_context.html" target="_top" xlink:title=" ">
<polygon fill="white" stroke="black" points="789.973,-113 789.973,-131 951.041,-131 951.041,-113 789.973,-113"/>
<text text-anchor="middle" x="870.507" y="-119" font-family="Helvetica,sans-Serif" font-size="10.00">queryParser.WhereBlockContext</text>
</a>
</g>
</g>
<!-- Node3&#45;&gt;Node11 -->
<g id="edge19" class="edge"><title>Node3&#45;&gt;Node11</title>
<path fill="none" stroke="midnightblue" d="M53.796,-281.654C60.4657,-240.005 82.6443,-142.437 147.601,-103 258.855,-35.4532 664.501,-89.9698 813.834,-112.985"/>
<polygon fill="midnightblue" stroke="midnightblue" points="50.324,-281.209 52.3316,-291.612 57.2495,-282.228 50.324,-281.209"/>
</g>
<!-- Node12 -->
<g id="node12" class="node"><title>Node12</title>
<g id="a_node12"><a xlink:href="classparse_1_1query_parser_1_1_or_expr_context.html" target="_top" xlink:title=" ">
<polygon fill="white" stroke="black" points="483.235,-113 483.235,-131 622.067,-131 622.067,-113 483.235,-113"/>
<text text-anchor="middle" x="552.651" y="-119" font-family="Helvetica,sans-Serif" font-size="10.00">queryParser.OrExprContext</text>
</a>
</g>
</g>
<!-- Node3&#45;&gt;Node12 -->
<g id="edge21" class="edge"><title>Node3&#45;&gt;Node12</title>
<path fill="none" stroke="midnightblue" d="M67.5257,-284.571C85.5743,-267.278 116.29,-240.463 147.601,-225 180.663,-208.672 417.044,-153.089 512.158,-131.08"/>
<polygon fill="midnightblue" stroke="midnightblue" points="64.8669,-282.276 60.1679,-291.772 69.7629,-287.279 64.8669,-282.276"/>
</g>
<!-- Node13 -->
<g id="node13" class="node"><title>Node13</title>
<g id="a_node13"><a xlink:href="classparse_1_1query_parser_1_1_and_expr_context.html" target="_top" xlink:title=" ">
<polygon fill="white" stroke="red" points="147.601,-113 147.601,-131 293.117,-131 293.117,-113 147.601,-113"/>
<text text-anchor="middle" x="220.359" y="-119" font-family="Helvetica,sans-Serif" font-size="10.00">queryParser.AndExprContext</text>
</a>
</g>
</g>
<!-- Node3&#45;&gt;Node13 -->
<g id="edge24" class="edge"><title>Node3&#45;&gt;Node13</title>
<path fill="none" stroke="midnightblue" d="M57.9658,-282.127C70.5087,-249.585 100.543,-182.871 147.601,-146 155.976,-139.437 166.236,-134.625 176.348,-131.112"/>
<polygon fill="midnightblue" stroke="midnightblue" points="54.5885,-281.167 54.3833,-291.76 61.1495,-283.607 54.5885,-281.167"/>
</g>
<!-- Node4&#45;&gt;Node1 -->
<g id="edge3" class="edge"><title>Node4&#45;&gt;Node1</title>
<path fill="none" stroke="#9a32cd" stroke-dasharray="5,2" d="M1134.85,-330.539C1150.29,-332.896 1166.64,-335.393 1182.01,-337.738"/>
<polygon fill="#9a32cd" stroke="#9a32cd" points="1135.27,-327.063 1124.85,-329.014 1134.21,-333.983 1135.27,-327.063"/>
<text text-anchor="middle" x="1153.63" y="-336" font-family="Helvetica,sans-Serif" font-size="10.00"> a0</text>
</g>
<!-- Node4&#45;&gt;Node8 -->
<g id="edge12" class="edge"><title>Node4&#45;&gt;Node8</title>
<path fill="none" stroke="#9a32cd" stroke-dasharray="5,2" d="M1092.66,-333.636C1115.2,-344.713 1148.44,-360.214 1178.58,-371 1188.98,-374.724 1200.47,-378.111 1211.11,-380.96"/>
<polygon fill="#9a32cd" stroke="#9a32cd" points="1093.92,-330.353 1083.41,-329.039 1090.81,-336.622 1093.92,-330.353"/>
<text text-anchor="middle" x="1153.63" y="-366" font-family="Helvetica,sans-Serif" font-size="10.00"> a0</text>
</g>
<!-- Node5&#45;&gt;Node4 -->
<g id="edge5" class="edge"><title>Node5&#45;&gt;Node4</title>
<path fill="none" stroke="#9a32cd" stroke-dasharray="5,2" d="M782.2,-320C846.645,-320 939.566,-320 1000.79,-320"/>
<polygon fill="#9a32cd" stroke="#9a32cd" points="782.111,-316.5 772.111,-320 782.111,-323.5 782.111,-316.5"/>
<text text-anchor="middle" x="870.507" y="-322" font-family="Helvetica,sans-Serif" font-size="10.00"> a0</text>
</g>
<!-- Node6&#45;&gt;Node4 -->
<g id="edge7" class="edge"><title>Node6&#45;&gt;Node4</title>
<path fill="none" stroke="#9a32cd" stroke-dasharray="5,2" d="M1390.56,-323.231C1369.24,-319.514 1344.5,-315.827 1321.87,-314 1258.39,-308.874 1242.24,-312.308 1178.58,-314 1162.41,-314.43 1144.95,-315.206 1128.71,-316.06"/>
<polygon fill="#9a32cd" stroke="#9a32cd" points="1389.96,-326.678 1400.42,-324.991 1391.19,-319.787 1389.96,-326.678"/>
<text text-anchor="middle" x="1250.22" y="-316" font-family="Helvetica,sans-Serif" font-size="10.00"> a5</text>
</g>
<!-- Node7 -->
<g id="node7" class="node"><title>Node7</title>
<g id="a_node7"><a xlink:title=" ">
<polygon fill="white" stroke="#bfbfbf" points="28.8989,-53 28.8989,-71 71.5835,-71 71.5835,-53 28.8989,-53"/>
<text text-anchor="middle" x="50.2412" y="-59" font-family="Helvetica,sans-Serif" font-size="10.00">Token</text>
</a>
</g>
</g>
<!-- Node7&#45;&gt;Node6 -->
<g id="edge9" class="edge"><title>Node7&#45;&gt;Node6</title>
<path fill="none" stroke="#9a32cd" stroke-dasharray="5,2" d="M74.2937,-47.5615C105.803,-29.2423 164.666,-0 219.359,-0 219.359,-0 219.359,-0 1251.22,-0 1405.73,-0 1439.03,-270.775 1444.13,-324.718"/>
<polygon fill="#9a32cd" stroke="#9a32cd" points="72.2219,-44.7219 65.428,-52.8517 75.8088,-50.7331 72.2219,-44.7219"/>
<text text-anchor="middle" x="870.507" y="-2" font-family="Helvetica,sans-Serif" font-size="10.00"> t0</text>
</g>
<!-- Node7&#45;&gt;Node9 -->
<g id="edge17" class="edge"><title>Node7&#45;&gt;Node9</title>
<path fill="none" stroke="#9a32cd" stroke-dasharray="5,2" d="M67.2557,-78.4053C85.2781,-95.9907 116.165,-123.587 147.601,-140 263.318,-200.416 414.429,-233.505 495.091,-247.973"/>
<polygon fill="#9a32cd" stroke="#9a32cd" points="69.4806,-75.6815 59.9246,-71.1062 64.5417,-80.6421 69.4806,-75.6815"/>
<text text-anchor="middle" x="220.359" y="-200" font-family="Helvetica,sans-Serif" font-size="10.00"> t0</text>
</g>
<!-- Node7&#45;&gt;Node12 -->
<g id="edge22" class="edge"><title>Node7&#45;&gt;Node12</title>
<path fill="none" stroke="#9a32cd" stroke-dasharray="5,2" d="M82.0524,-65.6943C161.194,-75.1835 373.099,-100.591 483.163,-113.788"/>
<polygon fill="#9a32cd" stroke="#9a32cd" points="82.1364,-62.1794 71.7908,-64.4639 81.303,-69.1296 82.1364,-62.1794"/>
<text text-anchor="middle" x="220.359" y="-94" font-family="Helvetica,sans-Serif" font-size="10.00"> t0</text>
</g>
<!-- Node7&#45;&gt;Node13 -->
<g id="edge25" class="edge"><title>Node7&#45;&gt;Node13</title>
<path fill="none" stroke="#9a32cd" stroke-dasharray="5,2" d="M81.6001,-72.8349C113.707,-84.2934 163.792,-102.169 193.905,-112.916"/>
<polygon fill="#9a32cd" stroke="#9a32cd" points="82.4504,-69.4222 71.8557,-69.3572 80.0974,-76.0149 82.4504,-69.4222"/>
<text text-anchor="middle" x="124.042" y="-91" font-family="Helvetica,sans-Serif" font-size="10.00"> t0</text>
</g>
<!-- Node8&#45;&gt;Node6 -->
<g id="edge10" class="edge"><title>Node8&#45;&gt;Node6</title>
<path fill="none" stroke="#9a32cd" stroke-dasharray="5,2" d="M1295.47,-378.315C1304.23,-375.941 1313.35,-373.426 1321.87,-371 1354.05,-361.836 1390.77,-350.708 1415.65,-343.064"/>
<polygon fill="#9a32cd" stroke="#9a32cd" points="1294.52,-374.945 1285.78,-380.925 1296.34,-381.704 1294.52,-374.945"/>
<text text-anchor="middle" x="1346.82" y="-368" font-family="Helvetica,sans-Serif" font-size="10.00"> a0</text>
</g>
<!-- Node9&#45;&gt;Node4 -->
<g id="edge13" class="edge"><title>Node9&#45;&gt;Node4</title>
<path fill="none" stroke="#9a32cd" stroke-dasharray="5,2" d="M636.595,-267.207C716.989,-277.105 842.376,-292.555 951.041,-306 967.194,-307.998 984.647,-310.163 1000.88,-312.179"/>
<polygon fill="#9a32cd" stroke="#9a32cd" points="636.884,-263.716 626.531,-265.968 636.029,-270.664 636.884,-263.716"/>
<text text-anchor="middle" x="870.507" y="-308" font-family="Helvetica,sans-Serif" font-size="10.00"> a6</text>
</g>
<!-- Node10&#45;&gt;Node9 -->
<g id="edge15" class="edge"><title>Node10&#45;&gt;Node9</title>
<path fill="none" stroke="#9a32cd" stroke-dasharray="5,2" d="M301.252,-247.145C355.401,-249.276 426.397,-252.07 478.959,-254.139"/>
<polygon fill="#9a32cd" stroke="#9a32cd" points="301.132,-243.637 291.002,-246.741 300.856,-250.632 301.132,-243.637"/>
<text text-anchor="middle" x="386.09" y="-256" font-family="Helvetica,sans-Serif" font-size="10.00"> a0</text>
</g>
<!-- Node11&#45;&gt;Node4 -->
<g id="edge18" class="edge"><title>Node11&#45;&gt;Node4</title>
<path fill="none" stroke="#9a32cd" stroke-dasharray="5,2" d="M887.4,-138.365C926.232,-178.347 1024.95,-279.985 1055,-310.925"/>
<polygon fill="#9a32cd" stroke="#9a32cd" points="889.747,-135.757 880.269,-131.022 884.726,-140.634 889.747,-135.757"/>
<text text-anchor="middle" x="975.992" y="-235" font-family="Helvetica,sans-Serif" font-size="10.00"> a3</text>
</g>
<!-- Node12&#45;&gt;Node11 -->
<g id="edge20" class="edge"><title>Node12&#45;&gt;Node11</title>
<path fill="none" stroke="#9a32cd" stroke-dasharray="5,2" d="M632.239,-122C680.332,-122 741.687,-122 789.956,-122"/>
<polygon fill="#9a32cd" stroke="#9a32cd" points="632.187,-118.5 622.187,-122 632.187,-125.5 632.187,-118.5"/>
<text text-anchor="middle" x="708.106" y="-124" font-family="Helvetica,sans-Serif" font-size="10.00"> a0</text>
</g>
<!-- Node13&#45;&gt;Node12 -->
<g id="edge23" class="edge"><title>Node13&#45;&gt;Node12</title>
<path fill="none" stroke="#9a32cd" stroke-dasharray="5,2" d="M303.557,-122C358.857,-122 430.917,-122 483.116,-122"/>
<polygon fill="#9a32cd" stroke="#9a32cd" points="303.435,-118.5 293.435,-122 303.435,-125.5 303.435,-118.5"/>
<text text-anchor="middle" x="386.09" y="-124" font-family="Helvetica,sans-Serif" font-size="10.00"> a0</text>
</g>
</g>
</svg>
