<?xml version="1.0" encoding="UTF-8" standalone="no"?>
<!DOCTYPE svg PUBLIC "-//W3C//DTD SVG 1.1//EN"
 "http://www.w3.org/Graphics/SVG/1.1/DTD/svg11.dtd">
<!-- Generated by graphviz version 2.47.0 (20210316.0004)
 -->
<!-- Title: AstDataWriter.WriterOStream Pages: 1 -->
<svg width="900pt" height="449pt"
 viewBox="0.00 0.00 900.42 449.00" xmlns="http://www.w3.org/2000/svg" xmlns:xlink="http://www.w3.org/1999/xlink">
<g id="graph0" class="graph" transform="scale(1 1) rotate(0) translate(4 445)">
<title>AstDataWriter.WriterOStream</title>
<polygon fill="white" stroke="transparent" points="-4,4 -4,-445 896.42,-445 896.42,4 -4,4"/>
<!-- Node1 -->
<g id="node1" class="node">
<title>Node1</title>
<g id="a_node1"><a xlink:title="String型の値をもつ局所変数">
<polygon fill="#bfbfbf" stroke="black" points="354.5,-0.5 354.5,-19.5 499.5,-19.5 499.5,-0.5 354.5,-0.5"/>
<text text-anchor="middle" x="427" y="-7.5" font-family="Helvetica,sans-Serif" font-size="10.00">AstDataWriter.WriterOStream</text>
</a>
</g>
</g>
<!-- Node2 -->
<g id="node2" class="node">
<title>Node2</title>
<g id="a_node2"><a xlink:href="classast_1_1_ast_data_writer.html" target="_top" xlink:title="局所変数環境からの値を書き込むクラス">
<polygon fill="white" stroke="black" points="296,-67.5 296,-86.5 374,-86.5 374,-67.5 296,-67.5"/>
<text text-anchor="middle" x="335" y="-74.5" font-family="Helvetica,sans-Serif" font-size="10.00">AstDataWriter</text>
</a>
</g>
</g>
<!-- Node2&#45;&gt;Node1 -->
<g id="edge1" class="edge">
<title>Node2&#45;&gt;Node1</title>
<path fill="none" stroke="midnightblue" d="M355.64,-61.42C373.82,-48.57 399.71,-30.28 414.79,-19.63"/>
<polygon fill="midnightblue" stroke="midnightblue" points="353.56,-58.6 347.41,-67.23 357.59,-64.32 353.56,-58.6"/>
</g>
<!-- Node3 -->
<g id="node3" class="node">
<title>Node3</title>
<g id="a_node3"><a xlink:href="classast_1_1_ast_node.html" target="_top" xlink:title="タグなしの順アクセスの子供をもてる抽象構文木のノードのクラス。">
<polygon fill="white" stroke="black" points="353.5,-210.5 353.5,-229.5 408.5,-229.5 408.5,-210.5 353.5,-210.5"/>
<text text-anchor="middle" x="381" y="-217.5" font-family="Helvetica,sans-Serif" font-size="10.00">AstNode</text>
</a>
</g>
</g>
<!-- Node3&#45;&gt;Node2 -->
<g id="edge2" class="edge">
<title>Node3&#45;&gt;Node2</title>
<path fill="none" stroke="midnightblue" d="M372.76,-201.19C366.99,-188.28 359.39,-170.3 354,-154 346.06,-129.98 339.63,-100.75 336.7,-86.55"/>
<polygon fill="midnightblue" stroke="midnightblue" points="369.59,-202.67 376.91,-210.33 375.96,-199.77 369.59,-202.67"/>
</g>
<!-- Node19 -->
<g id="node19" class="node">
<title>Node19</title>
<g id="a_node19"><a xlink:href="classmachine_1_1_ref.html" target="_top" xlink:title="フレーム中の変数参照オブジェクトref = (XType type, int vid)">
<polygon fill="white" stroke="black" points="461,-134.5 461,-153.5 493,-153.5 493,-134.5 461,-134.5"/>
<text text-anchor="middle" x="477" y="-141.5" font-family="Helvetica,sans-Serif" font-size="10.00">Ref</text>
</a>
</g>
</g>
<!-- Node3&#45;&gt;Node19 -->
<g id="edge26" class="edge">
<title>Node3&#45;&gt;Node19</title>
<path fill="none" stroke="midnightblue" d="M400.39,-204.05C420.09,-188.86 449.92,-165.88 465.92,-153.54"/>
<polygon fill="midnightblue" stroke="midnightblue" points="398.17,-201.34 392.39,-210.22 402.45,-206.89 398.17,-201.34"/>
</g>
<!-- Node4 -->
<g id="node4" class="node">
<title>Node4</title>
<g id="a_node4"><a xlink:href="classast_1_1_ast_node_base.html" target="_top" xlink:title=" ">
<polygon fill="white" stroke="black" points="380.5,-277.5 380.5,-296.5 457.5,-296.5 457.5,-277.5 380.5,-277.5"/>
<text text-anchor="middle" x="419" y="-284.5" font-family="Helvetica,sans-Serif" font-size="10.00">AstNodeBase</text>
</a>
</g>
</g>
<!-- Node4&#45;&gt;Node3 -->
<g id="edge3" class="edge">
<title>Node4&#45;&gt;Node3</title>
<path fill="none" stroke="midnightblue" d="M408.79,-268.53C401.43,-255.95 391.82,-239.51 386.04,-229.63"/>
<polygon fill="midnightblue" stroke="midnightblue" points="405.81,-270.37 413.88,-277.23 411.85,-266.83 405.81,-270.37"/>
</g>
<!-- Node5 -->
<g id="node5" class="node">
<title>Node5</title>
<g id="a_node5"><a xlink:title=" ">
<polygon fill="white" stroke="#bfbfbf" points="533,-421.5 533,-440.5 575,-440.5 575,-421.5 533,-421.5"/>
<text text-anchor="middle" x="554" y="-428.5" font-family="Helvetica,sans-Serif" font-size="10.00">String</text>
</a>
</g>
</g>
<!-- Node5&#45;&gt;Node4 -->
<g id="edge4" class="edge">
<title>Node5&#45;&gt;Node4</title>
<path fill="none" stroke="#9a32cd" stroke-dasharray="5,2" d="M522.52,-430.06C475.67,-429.41 391.07,-425.1 372,-403 346.45,-373.38 352.41,-348.85 372,-315 376.81,-306.69 385.25,-300.72 393.66,-296.54"/>
<polygon fill="#9a32cd" stroke="#9a32cd" points="522.7,-433.56 532.73,-430.16 522.76,-426.56 522.7,-433.56"/>
<text text-anchor="middle" x="398" y="-362" font-family="Helvetica,sans-Serif" font-size="10.00"> MOD_AST</text>
<text text-anchor="middle" x="398" y="-351" font-family="Helvetica,sans-Serif" font-size="10.00">mod_</text>
</g>
<!-- Node16 -->
<g id="node16" class="node">
<title>Node16</title>
<g id="a_node16"><a xlink:href="classformat_1_1_style.html" target="_top" xlink:title="ノードの表示スタイルに関するプロパティのクラス.">
<polygon fill="white" stroke="black" points="668.5,-277.5 668.5,-296.5 707.5,-296.5 707.5,-277.5 668.5,-277.5"/>
<text text-anchor="middle" x="688" y="-284.5" font-family="Helvetica,sans-Serif" font-size="10.00">Style</text>
</a>
</g>
</g>
<!-- Node5&#45;&gt;Node16 -->
<g id="edge18" class="edge">
<title>Node5&#45;&gt;Node16</title>
<path fill="none" stroke="#9a32cd" stroke-dasharray="5,2" d="M585.59,-426.23C614.72,-422.09 655.06,-414.47 666,-403 673.4,-395.24 683.55,-322.15 686.89,-296.69"/>
<polygon fill="#9a32cd" stroke="#9a32cd" points="584.88,-422.79 575.44,-427.6 585.81,-429.73 584.88,-422.79"/>
<text text-anchor="middle" x="710" y="-395" font-family="Helvetica,sans-Serif" font-size="10.00"> childLPAD</text>
<text text-anchor="middle" x="710" y="-384" font-family="Helvetica,sans-Serif" font-size="10.00">childRPAD</text>
<text text-anchor="middle" x="710" y="-373" font-family="Helvetica,sans-Serif" font-size="10.00">name</text>
<text text-anchor="middle" x="710" y="-362" font-family="Helvetica,sans-Serif" font-size="10.00">operSTR</text>
<text text-anchor="middle" x="710" y="-351" font-family="Helvetica,sans-Serif" font-size="10.00">parenLPAD</text>
<text text-anchor="middle" x="710" y="-340" font-family="Helvetica,sans-Serif" font-size="10.00">parenLPAR</text>
<text text-anchor="middle" x="710" y="-329" font-family="Helvetica,sans-Serif" font-size="10.00">parenRPAD</text>
<text text-anchor="middle" x="710" y="-318" font-family="Helvetica,sans-Serif" font-size="10.00">parenRPAR</text>
</g>
<!-- Node6 -->
<g id="node6" class="node">
<title>Node6</title>
<g id="a_node6"><a xlink:title=" ">
<polygon fill="white" stroke="#bfbfbf" points="314.5,-421.5 314.5,-440.5 379.5,-440.5 379.5,-421.5 314.5,-421.5"/>
<text text-anchor="middle" x="347" y="-428.5" font-family="Helvetica,sans-Serif" font-size="10.00">TraceLevel</text>
</a>
</g>
</g>
<!-- Node6&#45;&gt;Node4 -->
<g id="edge5" class="edge">
<title>Node6&#45;&gt;Node4</title>
<path fill="none" stroke="#9a32cd" stroke-dasharray="5,2" d="M330.6,-413.33C328.31,-410.13 326.29,-406.63 325,-403 311.89,-366.15 301.47,-346.24 325,-315 328.6,-310.22 356.75,-302.51 381.32,-296.56"/>
<polygon fill="#9a32cd" stroke="#9a32cd" points="327.93,-415.6 337.03,-421.02 333.3,-411.11 327.93,-415.6"/>
<text text-anchor="middle" x="337" y="-356.5" font-family="Helvetica,sans-Serif" font-size="10.00"> LOG</text>
</g>
<!-- Node7 -->
<g id="node7" class="node">
<title>Node7</title>
<g id="a_node7"><a xlink:title=" ">
<polygon fill="white" stroke="#bfbfbf" points="154.5,-421.5 154.5,-440.5 227.5,-440.5 227.5,-421.5 154.5,-421.5"/>
<text text-anchor="middle" x="191" y="-428.5" font-family="Helvetica,sans-Serif" font-size="10.00">static Report</text>
</a>
</g>
</g>
<!-- Node7&#45;&gt;Node4 -->
<g id="edge6" class="edge">
<title>Node7&#45;&gt;Node4</title>
<path fill="none" stroke="#9a32cd" stroke-dasharray="5,2" d="M192.42,-411.3C195.47,-385.27 205.04,-338.66 235,-315 258.92,-296.11 340.9,-301.81 371,-297 374.01,-296.52 377.13,-295.99 380.26,-295.45"/>
<polygon fill="#9a32cd" stroke="#9a32cd" points="188.92,-411.07 191.45,-421.36 195.89,-411.74 188.92,-411.07"/>
<text text-anchor="middle" x="246" y="-356.5" font-family="Helvetica,sans-Serif" font-size="10.00"> repo</text>
</g>
<!-- Node8 -->
<g id="node8" class="node">
<title>Node8</title>
<g id="a_node8"><a xlink:title=" ">
<polygon fill="white" stroke="#bfbfbf" points="843.5,-421.5 843.5,-440.5 872.5,-440.5 872.5,-421.5 843.5,-421.5"/>
<text text-anchor="middle" x="858" y="-428.5" font-family="Helvetica,sans-Serif" font-size="10.00">int</text>
</a>
</g>
</g>
<!-- Node8&#45;&gt;Node4 -->
<g id="edge7" class="edge">
<title>Node8&#45;&gt;Node4</title>
<path fill="none" stroke="#9a32cd" stroke-dasharray="5,2" d="M833.32,-426.25C820.94,-424.47 805.7,-422.42 792,-421 763.97,-418.09 560.29,-421.47 539,-403 508.78,-376.78 547.6,-343.97 520,-315 504.04,-298.24 478.92,-291.48 457.73,-288.91"/>
<polygon fill="#9a32cd" stroke="#9a32cd" points="832.95,-429.73 843.35,-427.73 833.97,-422.81 832.95,-429.73"/>
<text text-anchor="middle" x="600.5" y="-362" font-family="Helvetica,sans-Serif" font-size="10.00"> BITMASK_PRINT_WIDTH</text>
<text text-anchor="middle" x="600.5" y="-351" font-family="Helvetica,sans-Serif" font-size="10.00">UNDEF</text>
</g>
<!-- Node8&#45;&gt;Node16 -->
<g id="edge19" class="edge">
<title>Node8&#45;&gt;Node16</title>
<path fill="none" stroke="#9a32cd" stroke-dasharray="5,2" d="M856.97,-411.14C854.98,-382 849.52,-328 836,-315 816.72,-296.46 743.07,-302.98 717,-297 713.92,-296.29 710.69,-295.42 707.55,-294.5"/>
<polygon fill="#9a32cd" stroke="#9a32cd" points="853.49,-411.52 857.6,-421.28 860.48,-411.09 853.49,-411.52"/>
<text text-anchor="middle" x="866" y="-356.5" font-family="Helvetica,sans-Serif" font-size="10.00"> pref</text>
</g>
<!-- Node8&#45;&gt;Node19 -->
<g id="edge28" class="edge">
<title>Node8&#45;&gt;Node19</title>
<path fill="none" stroke="#9a32cd" stroke-dasharray="5,2" d="M873.44,-413.57C875.72,-410.28 877.73,-406.7 879,-403 891.69,-366.01 900.61,-347.6 879,-315 786.89,-176.05 556.21,-150.37 493.15,-145.9"/>
<polygon fill="#9a32cd" stroke="#9a32cd" points="870.66,-411.45 867.09,-421.42 876.1,-415.85 870.66,-411.45"/>
<text text-anchor="middle" x="843.5" y="-251" font-family="Helvetica,sans-Serif" font-size="10.00"> UNDEF</text>
</g>
<!-- Node9 -->
<g id="node9" class="node">
<title>Node9</title>
<g id="a_node9"><a xlink:href="interfacetype_1_1_typable.html" target="_top" xlink:title="抽象ノードがもつ関数型のインタフェース">
<polygon fill="white" stroke="black" points="246,-421.5 246,-440.5 296,-440.5 296,-421.5 246,-421.5"/>
<text text-anchor="middle" x="271" y="-428.5" font-family="Helvetica,sans-Serif" font-size="10.00">Typable</text>
</a>
</g>
</g>
<!-- Node9&#45;&gt;Node4 -->
<g id="edge8" class="edge">
<title>Node9&#45;&gt;Node4</title>
<path fill="none" stroke="#9a32cd" stroke-dasharray="5,2" d="M265.79,-411.82C259.82,-386.79 253.64,-341.77 277,-315 277.22,-314.75 338.3,-303.2 380.27,-295.29"/>
<polygon fill="#9a32cd" stroke="#9a32cd" points="262.4,-412.71 268.32,-421.5 269.17,-410.94 262.4,-412.71"/>
<text text-anchor="middle" x="292" y="-356.5" font-family="Helvetica,sans-Serif" font-size="10.00"> typing</text>
</g>
<!-- Node10 -->
<g id="node10" class="node">
<title>Node10</title>
<g id="a_node10"><a xlink:title=" ">
<polygon fill="white" stroke="#bfbfbf" points="733,-421.5 733,-440.5 783,-440.5 783,-421.5 733,-421.5"/>
<text text-anchor="middle" x="758" y="-428.5" font-family="Helvetica,sans-Serif" font-size="10.00">boolean</text>
</a>
</g>
</g>
<!-- Node10&#45;&gt;Node4 -->
<g id="edge9" class="edge">
<title>Node10&#45;&gt;Node4</title>
<path fill="none" stroke="#9a32cd" stroke-dasharray="5,2" d="M722.79,-428.04C643.56,-423.48 457.34,-411.88 447,-403 442.87,-399.45 426.38,-322.91 420.83,-296.71"/>
<polygon fill="#9a32cd" stroke="#9a32cd" points="722.6,-431.53 732.79,-428.61 723,-424.55 722.6,-431.53"/>
<text text-anchor="middle" x="483.5" y="-356.5" font-family="Helvetica,sans-Serif" font-size="10.00"> DEBUG_REPO</text>
</g>
<!-- Node10&#45;&gt;Node16 -->
<g id="edge20" class="edge">
<title>Node10&#45;&gt;Node16</title>
<path fill="none" stroke="#9a32cd" stroke-dasharray="5,2" d="M760.18,-411.1C761.99,-386.58 761.54,-343.58 741,-315 736.72,-309.05 720.88,-301.39 707.62,-295.75"/>
<polygon fill="#9a32cd" stroke="#9a32cd" points="756.68,-410.94 759.23,-421.23 763.65,-411.6 756.68,-410.94"/>
<text text-anchor="middle" x="796" y="-362" font-family="Helvetica,sans-Serif" font-size="10.00"> preoperSupress</text>
<text text-anchor="middle" x="796" y="-351" font-family="Helvetica,sans-Serif" font-size="10.00">toInline</text>
</g>
<!-- Node11 -->
<g id="node11" class="node">
<title>Node11</title>
<g id="a_node11"><a xlink:href="interfaceast_1_1_node.html" target="_top" xlink:title=" ">
<polygon fill="white" stroke="black" points="0,-277.5 0,-296.5 40,-296.5 40,-277.5 0,-277.5"/>
<text text-anchor="middle" x="20" y="-284.5" font-family="Helvetica,sans-Serif" font-size="10.00">Node</text>
</a>
</g>
</g>
<!-- Node11&#45;&gt;Node3 -->
<g id="edge10" class="edge">
<title>Node11&#45;&gt;Node3</title>
<path fill="none" stroke="midnightblue" d="M50.08,-277.01C167.79,-249.42 297.42,-231.52 353.2,-224.41"/>
<polygon fill="midnightblue" stroke="midnightblue" points="49.11,-273.64 40.19,-279.36 50.72,-280.45 49.11,-273.64"/>
</g>
<!-- Node17 -->
<g id="node17" class="node">
<title>Node17</title>
<g id="a_node17"><a xlink:href="interfaceast_1_1_node_1_1_node_unary.html" target="_top" xlink:title="子供を一つだけもつノードのインタフェース">
<polygon fill="white" stroke="black" points="95,-172.5 95,-191.5 187,-191.5 187,-172.5 95,-172.5"/>
<text text-anchor="middle" x="141" y="-179.5" font-family="Helvetica,sans-Serif" font-size="10.00">Node.NodeUnary</text>
</a>
</g>
</g>
<!-- Node11&#45;&gt;Node17 -->
<g id="edge23" class="edge">
<title>Node11&#45;&gt;Node17</title>
<path fill="none" stroke="midnightblue" d="M38.2,-270.51C63.96,-248.58 110.19,-209.22 130.71,-191.76"/>
<polygon fill="midnightblue" stroke="midnightblue" points="35.66,-268.07 30.32,-277.22 40.2,-273.4 35.66,-268.07"/>
</g>
<!-- Node12 -->
<g id="node12" class="node">
<title>Node12</title>
<g id="a_node12"><a xlink:href="interfaceformat_1_1_x_formattable.html" target="_top" xlink:title="入れ子フォーマット出力可能なオブジェクトのインタフェース。">
<polygon fill="white" stroke="black" points="61.5,-421.5 61.5,-440.5 136.5,-440.5 136.5,-421.5 61.5,-421.5"/>
<text text-anchor="middle" x="99" y="-428.5" font-family="Helvetica,sans-Serif" font-size="10.00">XFormattable</text>
</a>
</g>
</g>
<!-- Node12&#45;&gt;Node11 -->
<g id="edge11" class="edge">
<title>Node12&#45;&gt;Node11</title>
<path fill="none" stroke="midnightblue" d="M89.17,-412.32C72.04,-381.54 37.37,-319.22 24.74,-296.52"/>
<polygon fill="midnightblue" stroke="midnightblue" points="86.14,-414.08 94.06,-421.12 92.26,-410.68 86.14,-414.08"/>
</g>
<!-- Node13 -->
<g id="node13" class="node">
<title>Node13</title>
<g id="a_node13"><a xlink:href="interfaceformat_1_1_x_formattable_1_1_navigatable.html" target="_top" xlink:title="木構造の分岐ノードとして清書可能なオブジェクトのクラス">
<polygon fill="white" stroke="black" points="232,-277.5 232,-296.5 362,-296.5 362,-277.5 232,-277.5"/>
<text text-anchor="middle" x="297" y="-284.5" font-family="Helvetica,sans-Serif" font-size="10.00">XFormattable.Navigatable</text>
</a>
</g>
</g>
<!-- Node12&#45;&gt;Node13 -->
<g id="edge13" class="edge">
<title>Node12&#45;&gt;Node13</title>
<path fill="none" stroke="midnightblue" d="M120.29,-415.17C124.54,-411.53 128.71,-407.41 132,-403 157.39,-369.01 136.29,-342.02 169,-315 178.98,-306.76 205.46,-300.5 231.75,-296.1"/>
<polygon fill="midnightblue" stroke="midnightblue" points="117.93,-412.57 112.22,-421.5 122.25,-418.08 117.93,-412.57"/>
</g>
<!-- Node14 -->
<g id="node14" class="node">
<title>Node14</title>
<g id="a_node14"><a xlink:href="interfaceformat_1_1_x_formattable_1_1_typed_formattable.html" target="_top" xlink:title="ノードの型情報をもつ書式出力可能なオブジェクトのインタフェース．">
<polygon fill="white" stroke="black" points="58,-277.5 58,-296.5 214,-296.5 214,-277.5 58,-277.5"/>
<text text-anchor="middle" x="136" y="-284.5" font-family="Helvetica,sans-Serif" font-size="10.00">XFormattable.TypedFormattable</text>
</a>
</g>
</g>
<!-- Node12&#45;&gt;Node14 -->
<g id="edge15" class="edge">
<title>Node12&#45;&gt;Node14</title>
<path fill="none" stroke="midnightblue" d="M103.92,-411.11C112.05,-379.93 127.94,-318.93 133.78,-296.52"/>
<polygon fill="midnightblue" stroke="midnightblue" points="100.45,-410.56 101.31,-421.12 107.22,-412.32 100.45,-410.56"/>
</g>
<!-- Node13&#45;&gt;Node2 -->
<g id="edge21" class="edge">
<title>Node13&#45;&gt;Node2</title>
<path fill="none" stroke="midnightblue" d="M300.42,-267.3C308.34,-223.93 327.72,-117.82 333.41,-86.71"/>
<polygon fill="midnightblue" stroke="midnightblue" points="296.94,-266.86 298.58,-277.33 303.82,-268.12 296.94,-266.86"/>
</g>
<!-- Node13&#45;&gt;Node3 -->
<g id="edge12" class="edge">
<title>Node13&#45;&gt;Node3</title>
<path fill="none" stroke="midnightblue" d="M316.3,-271.07C332.88,-258.24 356.21,-240.19 369.85,-229.63"/>
<polygon fill="midnightblue" stroke="midnightblue" points="314.1,-268.35 308.33,-277.23 318.38,-273.88 314.1,-268.35"/>
</g>
<!-- Node14&#45;&gt;Node3 -->
<g id="edge14" class="edge">
<title>Node14&#45;&gt;Node3</title>
<path fill="none" stroke="midnightblue" d="M178.16,-274.82C228.26,-261.52 310.44,-239.72 353.19,-228.38"/>
<polygon fill="midnightblue" stroke="midnightblue" points="177.05,-271.49 168.28,-277.44 178.84,-278.25 177.05,-271.49"/>
</g>
<!-- Node15 -->
<g id="node15" class="node">
<title>Node15</title>
<g id="a_node15"><a xlink:title=" ">
<polygon fill="white" stroke="#bfbfbf" points="726,-277.5 726,-296.5 778,-296.5 778,-277.5 726,-277.5"/>
<text text-anchor="middle" x="752" y="-284.5" font-family="Helvetica,sans-Serif" font-size="10.00">Boolean</text>
</a>
</g>
</g>
<!-- Node15&#45;&gt;Node3 -->
<g id="edge16" class="edge">
<title>Node15&#45;&gt;Node3</title>
<path fill="none" stroke="#9a32cd" stroke-dasharray="5,2" d="M715.86,-276.81C651.76,-262.05 634.39,-258.17 573,-248 511.98,-237.89 496.18,-239.09 435,-230 426.44,-228.73 417.15,-227.23 408.72,-225.81"/>
<polygon fill="#9a32cd" stroke="#9a32cd" points="715.13,-280.24 725.66,-279.07 716.7,-273.41 715.13,-280.24"/>
<text text-anchor="middle" x="671" y="-251" font-family="Helvetica,sans-Serif" font-size="10.00"> DEBUG_CHILD</text>
</g>
<!-- Node16&#45;&gt;Node3 -->
<g id="edge17" class="edge">
<title>Node16&#45;&gt;Node3</title>
<path fill="none" stroke="#9a32cd" stroke-dasharray="5,2" d="M658.47,-279.75C599.17,-267.19 466.33,-239.07 408.63,-226.85"/>
<polygon fill="#9a32cd" stroke="#9a32cd" points="657.82,-283.19 668.33,-281.84 659.27,-276.34 657.82,-283.19"/>
<text text-anchor="middle" x="560.5" y="-251" font-family="Helvetica,sans-Serif" font-size="10.00"> sty</text>
</g>
<!-- Node17&#45;&gt;Node2 -->
<g id="edge22" class="edge">
<title>Node17&#45;&gt;Node2</title>
<path fill="none" stroke="midnightblue" d="M165.98,-167.51C194.3,-152.24 241.89,-126.67 283,-105 294.7,-98.83 307.92,-91.97 318.11,-86.7"/>
<polygon fill="midnightblue" stroke="midnightblue" points="164.29,-164.44 157.15,-172.27 167.61,-170.6 164.29,-164.44"/>
</g>
<!-- Node18 -->
<g id="node18" class="node">
<title>Node18</title>
<g id="a_node18"><a xlink:href="interfacemachine_1_1_data_accessor.html" target="_top" xlink:title="参照をもつデータ読み書きオブジェクトのインタフェース.">
<polygon fill="white" stroke="black" points="363.5,-134.5 363.5,-153.5 442.5,-153.5 442.5,-134.5 363.5,-134.5"/>
<text text-anchor="middle" x="403" y="-141.5" font-family="Helvetica,sans-Serif" font-size="10.00">DataAccessor</text>
</a>
</g>
</g>
<!-- Node18&#45;&gt;Node2 -->
<g id="edge24" class="edge">
<title>Node18&#45;&gt;Node2</title>
<path fill="none" stroke="midnightblue" d="M386.26,-127C372.92,-114.25 354.77,-96.89 344.03,-86.63"/>
<polygon fill="midnightblue" stroke="midnightblue" points="384.18,-129.85 393.83,-134.23 389.02,-124.79 384.18,-129.85"/>
</g>
<!-- Node19&#45;&gt;Node2 -->
<g id="edge25" class="edge">
<title>Node19&#45;&gt;Node2</title>
<path fill="none" stroke="#9a32cd" stroke-dasharray="5,2" d="M451.82,-131.47C423.77,-118.64 379.07,-98.17 353.88,-86.64"/>
<polygon fill="#9a32cd" stroke="#9a32cd" points="450.44,-134.69 460.99,-135.67 453.35,-128.33 450.44,-134.69"/>
<text text-anchor="middle" x="422.5" y="-108" font-family="Helvetica,sans-Serif" font-size="10.00"> ref</text>
</g>
<!-- Node20 -->
<g id="node20" class="node">
<title>Node20</title>
<g id="a_node20"><a xlink:href="interfacemachine_1_1_assignable.html" target="_top" xlink:title="変数（チャネルとコンテナの名前）の抽象化">
<polygon fill="white" stroke="black" points="444.5,-210.5 444.5,-229.5 509.5,-229.5 509.5,-210.5 444.5,-210.5"/>
<text text-anchor="middle" x="477" y="-217.5" font-family="Helvetica,sans-Serif" font-size="10.00">Assignable</text>
</a>
</g>
</g>
<!-- Node20&#45;&gt;Node19 -->
<g id="edge27" class="edge">
<title>Node20&#45;&gt;Node19</title>
<path fill="none" stroke="midnightblue" d="M477,-200.07C477,-185.18 477,-165.11 477,-153.77"/>
<polygon fill="midnightblue" stroke="midnightblue" points="473.5,-200.22 477,-210.22 480.5,-200.22 473.5,-200.22"/>
</g>
<!-- Node21 -->
<g id="node21" class="node">
<title>Node21</title>
<g id="a_node21"><a xlink:href="interfacecmd_1_1_generatable.html" target="_top" xlink:title="変換してコードを生成できるノードのインタフェース.">
<polygon fill="white" stroke="black" points="392.5,-67.5 392.5,-86.5 461.5,-86.5 461.5,-67.5 392.5,-67.5"/>
<text text-anchor="middle" x="427" y="-74.5" font-family="Helvetica,sans-Serif" font-size="10.00">Generatable</text>
</a>
</g>
</g>
<!-- Node21&#45;&gt;Node1 -->
<g id="edge29" class="edge">
<title>Node21&#45;&gt;Node1</title>
<path fill="none" stroke="midnightblue" d="M427,-57.04C427,-44.67 427,-29.12 427,-19.63"/>
<polygon fill="midnightblue" stroke="midnightblue" points="423.5,-57.23 427,-67.23 430.5,-57.23 423.5,-57.23"/>
</g>
<!-- Node22 -->
<g id="node22" class="node">
<title>Node22</title>
<g id="a_node22"><a xlink:title=" ">
<polygon fill="white" stroke="#bfbfbf" points="480,-67.5 480,-86.5 580,-86.5 580,-67.5 480,-67.5"/>
<text text-anchor="middle" x="530" y="-74.5" font-family="Helvetica,sans-Serif" font-size="10.00">java.io.PrintStream</text>
</a>
</g>
</g>
<!-- Node22&#45;&gt;Node1 -->
<g id="edge30" class="edge">
<title>Node22&#45;&gt;Node1</title>
<path fill="none" stroke="#9a32cd" stroke-dasharray="5,2" d="M507.45,-61.77C487.06,-48.9 457.71,-30.38 440.67,-19.63"/>
<polygon fill="#9a32cd" stroke="#9a32cd" points="505.78,-64.86 516.11,-67.23 509.52,-58.94 505.78,-64.86"/>
<text text-anchor="middle" x="495" y="-41" font-family="Helvetica,sans-Serif" font-size="10.00"> outs</text>
</g>
</g>
</svg>
