<?xml version="1.0" encoding="UTF-8" standalone="no"?>
<!DOCTYPE svg PUBLIC "-//W3C//DTD SVG 1.1//EN"
 "http://www.w3.org/Graphics/SVG/1.1/DTD/svg11.dtd">
<!-- Generated by graphviz version 2.47.1 (20210417.1919)
 -->
<!-- Title: StepRule Pages: 1 -->
<svg width="995pt" height="779pt"
 viewBox="0.00 0.00 995.00 779.00" xmlns="http://www.w3.org/2000/svg" xmlns:xlink="http://www.w3.org/1999/xlink">
<g id="graph0" class="graph" transform="scale(1 1) rotate(0) translate(4 775)">
<title>StepRule</title>
<polygon fill="white" stroke="transparent" points="-4,4 -4,-775 991,-775 991,4 -4,4"/>
<!-- Node1 -->
<g id="node1" class="node">
<title>Node1</title>
<g id="a_node1"><a xlink:title="XMで実行可能（Steppaoble）な計算単位であるルールを表すオブジェクト.">
<polygon fill="#bfbfbf" stroke="black" points="930,-713.5 930,-732.5 987,-732.5 987,-713.5 930,-713.5"/>
<text text-anchor="middle" x="958.5" y="-720.5" font-family="Helvetica,sans-Serif" font-size="10.00">StepRule</text>
</a>
</g>
</g>
<!-- Node2 -->
<g id="node2" class="node">
<title>Node2</title>
<g id="a_node2"><a xlink:href="classast_1_1_step.html" target="_top" xlink:title="抽象構文木のステップ式のクラス.">
<polygon fill="white" stroke="black" points="856,-442.5 856,-461.5 893,-461.5 893,-442.5 856,-442.5"/>
<text text-anchor="middle" x="874.5" y="-449.5" font-family="Helvetica,sans-Serif" font-size="10.00">Step</text>
</a>
</g>
</g>
<!-- Node2&#45;&gt;Node1 -->
<g id="edge1" class="edge">
<title>Node2&#45;&gt;Node1</title>
<path fill="none" stroke="midnightblue" d="M881.34,-471.29C897.56,-524.89 942.75,-674.26 954.62,-713.47"/>
<polygon fill="midnightblue" stroke="midnightblue" points="884.66,-470.2 878.42,-461.65 877.96,-472.23 884.66,-470.2"/>
</g>
<!-- Node3 -->
<g id="node3" class="node">
<title>Node3</title>
<g id="a_node3"><a xlink:href="classast_1_1_block_base.html" target="_top" xlink:title="抽象構文木のステップ式のクラス.">
<polygon fill="white" stroke="black" points="739,-389.5 739,-408.5 803,-408.5 803,-389.5 739,-389.5"/>
<text text-anchor="middle" x="771" y="-396.5" font-family="Helvetica,sans-Serif" font-size="10.00">BlockBase</text>
</a>
</g>
</g>
<!-- Node3&#45;&gt;Node2 -->
<g id="edge2" class="edge">
<title>Node3&#45;&gt;Node2</title>
<path fill="none" stroke="midnightblue" d="M799.95,-413.59C817.75,-422.89 840.28,-434.65 855.68,-442.7"/>
<polygon fill="midnightblue" stroke="midnightblue" points="801.1,-410.25 790.62,-408.72 797.86,-416.45 801.1,-410.25"/>
</g>
<!-- Node4 -->
<g id="node4" class="node">
<title>Node4</title>
<g id="a_node4"><a xlink:href="classast_1_1_ast_node_tagged.html" target="_top" xlink:title="子それぞれにタグと型アイテムをもつ順序ノードAstNodeのサブクラス．利用者は自前で，追加する子のField名と型を設定する．読み出しは子の添字のみで行う．">
<polygon fill="white" stroke="black" points="541.5,-538.5 541.5,-557.5 627.5,-557.5 627.5,-538.5 541.5,-538.5"/>
<text text-anchor="middle" x="584.5" y="-545.5" font-family="Helvetica,sans-Serif" font-size="10.00">AstNodeTagged</text>
</a>
</g>
</g>
<!-- Node4&#45;&gt;Node3 -->
<g id="edge3" class="edge">
<title>Node4&#45;&gt;Node3</title>
<path fill="none" stroke="midnightblue" d="M635.83,-535.35C663.53,-526.35 697.03,-511.91 721,-490 746.56,-466.63 761.43,-426.78 767.2,-408.58"/>
<polygon fill="midnightblue" stroke="midnightblue" points="634.43,-532.11 625.92,-538.42 636.51,-538.8 634.43,-532.11"/>
</g>
<!-- Node5 -->
<g id="node5" class="node">
<title>Node5</title>
<g id="a_node5"><a xlink:href="classast_1_1_ast_node.html" target="_top" xlink:title="タグなしの順アクセスの子供をもてる抽象構文木のノードのクラス。">
<polygon fill="white" stroke="red" points="321.5,-655.5 321.5,-674.5 376.5,-674.5 376.5,-655.5 321.5,-655.5"/>
<text text-anchor="middle" x="349" y="-662.5" font-family="Helvetica,sans-Serif" font-size="10.00">AstNode</text>
</a>
</g>
</g>
<!-- Node5&#45;&gt;Node4 -->
<g id="edge4" class="edge">
<title>Node5&#45;&gt;Node4</title>
<path fill="none" stroke="midnightblue" d="M386.86,-657.24C425.26,-651.8 484.78,-641.14 521,-606 537.35,-590.14 523.25,-574.47 539,-558 539.7,-557.27 540.43,-556.57 541.18,-555.89"/>
<polygon fill="midnightblue" stroke="midnightblue" points="386.06,-653.81 376.63,-658.65 387.02,-660.75 386.06,-653.81"/>
</g>
<!-- Node5&#45;&gt;Node4 -->
<g id="edge7" class="edge">
<title>Node5&#45;&gt;Node4</title>
<path fill="none" stroke="midnightblue" d="M386.86,-670.58C425.26,-669.8 484.78,-659.14 521,-624 537.35,-608.14 523.25,-592.47 539,-576 547.71,-566.89 561.49,-561.93 571.41,-557.58"/>
<polygon fill="midnightblue" stroke="midnightblue" points="386.64,-667.08 376.63,-670.55 386.62,-674.07 386.64,-667.08"/>
</g>
<!-- Node26 -->
<g id="node14" class="node">
<title>Node26</title>
<g id="a_node14"><a xlink:href="classast_1_1_sent_list.html" target="_top" xlink:title="文Sentenceのリスト.">
<polygon fill="white" stroke="black" points="558,-471.5 558,-490.5 611,-490.5 611,-471.5 558,-471.5"/>
<text text-anchor="middle" x="584.5" y="-478.5" font-family="Helvetica,sans-Serif" font-size="10.00">SentList</text>
</a>
</g>
</g>
<!-- Node5&#45;&gt;Node26 -->
<g id="edge15" class="edge">
<title>Node5&#45;&gt;Node26</title>
<path fill="none" stroke="midnightblue" d="M387.08,-662.66C401.65,-660.19 417.77,-655.34 430,-646 443.28,-635.86 436.8,-625.4 448,-613 474.37,-583.82 494.82,-592.34 521,-563 532.38,-550.24 529.1,-542.94 539,-529 549.26,-514.54 563.54,-499.88 573.13,-490.63"/>
<polygon fill="midnightblue" stroke="midnightblue" points="386.26,-659.24 376.83,-664.08 387.22,-666.18 386.26,-659.24"/>
</g>
<!-- Node37 -->
<g id="node25" class="node">
<title>Node37</title>
<g id="a_node25"><a xlink:href="classast_1_1_ast_tag.html" target="_top" xlink:title=" ">
<polygon fill="white" stroke="black" points="561,-751.5 561,-770.5 608,-770.5 608,-751.5 561,-751.5"/>
<text text-anchor="middle" x="584.5" y="-758.5" font-family="Helvetica,sans-Serif" font-size="10.00">AstTag</text>
</a>
</g>
</g>
<!-- Node5&#45;&gt;Node37 -->
<g id="edge42" class="edge">
<title>Node5&#45;&gt;Node37</title>
<path fill="none" stroke="midnightblue" d="M382.55,-678.38C430.53,-698.11 519.04,-734.5 560.7,-751.62"/>
<polygon fill="midnightblue" stroke="midnightblue" points="383.82,-675.12 373.24,-674.56 381.16,-681.6 383.82,-675.12"/>
</g>
<!-- Node18 -->
<g id="node6" class="node">
<title>Node18</title>
<g id="a_node6"><a xlink:title=" ">
<polygon fill="white" stroke="#bfbfbf" points="25.5,-680.5 25.5,-699.5 77.5,-699.5 77.5,-680.5 25.5,-680.5"/>
<text text-anchor="middle" x="51.5" y="-687.5" font-family="Helvetica,sans-Serif" font-size="10.00">Boolean</text>
</a>
</g>
</g>
<!-- Node18&#45;&gt;Node2 -->
<g id="edge38" class="edge">
<title>Node18&#45;&gt;Node2</title>
<path fill="none" stroke="#9a32cd" stroke-dasharray="5,2" d="M87.51,-697.77C203.9,-721.43 582.94,-780.73 803,-605 850.76,-566.86 867.53,-489.02 872.07,-461.72"/>
<polygon fill="#9a32cd" stroke="#9a32cd" points="88.2,-694.34 77.7,-695.73 86.78,-701.19 88.2,-694.34"/>
<text text-anchor="middle" x="584.5" y="-726" font-family="Helvetica,sans-Serif" font-size="10.00"> dynamic_</text>
<text text-anchor="middle" x="584.5" y="-715" font-family="Helvetica,sans-Serif" font-size="10.00">target_</text>
</g>
<!-- Node18&#45;&gt;Node5 -->
<g id="edge5" class="edge">
<title>Node18&#45;&gt;Node5</title>
<path fill="none" stroke="#9a32cd" stroke-dasharray="5,2" d="M87.61,-683.04C98.29,-681.14 110.09,-679.26 121,-678 193.15,-669.64 278.85,-666.58 321.35,-665.52"/>
<polygon fill="#9a32cd" stroke="#9a32cd" points="86.97,-679.6 77.77,-684.85 88.24,-686.48 86.97,-679.6"/>
<text text-anchor="middle" x="185.5" y="-681" font-family="Helvetica,sans-Serif" font-size="10.00"> DEBUG_CHILD</text>
</g>
<!-- Node20 -->
<g id="node7" class="node">
<title>Node20</title>
<g id="a_node7"><a xlink:title=" ">
<polygon fill="white" stroke="#bfbfbf" points="304.5,-576.5 304.5,-595.5 393.5,-595.5 393.5,-576.5 304.5,-576.5"/>
<text text-anchor="middle" x="349" y="-583.5" font-family="Helvetica,sans-Serif" font-size="10.00">FieldNavigatable</text>
</a>
</g>
</g>
<!-- Node20&#45;&gt;Node4 -->
<g id="edge6" class="edge">
<title>Node20&#45;&gt;Node4</title>
<path fill="none" stroke="midnightblue" d="M403.76,-578.37C437.48,-573.45 481.84,-566.73 521,-560 527.53,-558.88 534.44,-557.62 541.18,-556.36"/>
<polygon fill="midnightblue" stroke="midnightblue" points="403.04,-574.94 393.65,-579.84 404.05,-581.87 403.04,-574.94"/>
</g>
<!-- Node21 -->
<g id="node8" class="node">
<title>Node21</title>
<g id="a_node8"><a xlink:title=" ">
<polygon fill="white" stroke="#bfbfbf" points="310.5,-538.5 310.5,-557.5 387.5,-557.5 387.5,-538.5 310.5,-538.5"/>
<text text-anchor="middle" x="349" y="-545.5" font-family="Helvetica,sans-Serif" font-size="10.00">List&lt; XItem &gt;</text>
</a>
</g>
</g>
<!-- Node21&#45;&gt;Node4 -->
<g id="edge8" class="edge">
<title>Node21&#45;&gt;Node4</title>
<path fill="none" stroke="#9a32cd" stroke-dasharray="5,2" d="M397.55,-548C439.76,-548 500.84,-548 541.34,-548"/>
<polygon fill="#9a32cd" stroke="#9a32cd" points="397.52,-544.5 387.52,-548 397.52,-551.5 397.52,-544.5"/>
<text text-anchor="middle" x="484.5" y="-551" font-family="Helvetica,sans-Serif" font-size="10.00"> types</text>
</g>
<!-- Node22 -->
<g id="node9" class="node">
<title>Node22</title>
<g id="a_node9"><a xlink:title=" ">
<polygon fill="white" stroke="#bfbfbf" points="311,-500.5 311,-519.5 387,-519.5 387,-500.5 311,-500.5"/>
<text text-anchor="middle" x="349" y="-507.5" font-family="Helvetica,sans-Serif" font-size="10.00">List&lt; String &gt;</text>
</a>
</g>
</g>
<!-- Node22&#45;&gt;Node4 -->
<g id="edge9" class="edge">
<title>Node22&#45;&gt;Node4</title>
<path fill="none" stroke="#9a32cd" stroke-dasharray="5,2" d="M397.44,-515.07C431.88,-519.06 479.5,-525.25 521,-533 529.34,-534.56 538.23,-536.51 546.62,-538.49"/>
<polygon fill="#9a32cd" stroke="#9a32cd" points="397.53,-511.55 387.2,-513.9 396.74,-518.51 397.53,-511.55"/>
<text text-anchor="middle" x="484.5" y="-536" font-family="Helvetica,sans-Serif" font-size="10.00"> fields</text>
</g>
<!-- Node23 -->
<g id="node10" class="node">
<title>Node23</title>
<g id="a_node10"><a xlink:title=" ">
<polygon fill="white" stroke="#bfbfbf" points="268,-617.5 268,-636.5 430,-636.5 430,-617.5 268,-617.5"/>
<text text-anchor="middle" x="349" y="-624.5" font-family="Helvetica,sans-Serif" font-size="10.00">List&lt; Supplier&lt; XFormattable &gt; &gt;</text>
</a>
</g>
</g>
<!-- Node23&#45;&gt;Node4 -->
<g id="edge10" class="edge">
<title>Node23&#45;&gt;Node4</title>
<path fill="none" stroke="#9a32cd" stroke-dasharray="5,2" d="M394.88,-614.74C406.34,-611.59 418.63,-608.19 430,-605 470.5,-593.65 482.82,-596.66 521,-579 529.73,-574.96 530.54,-571.57 539,-567 545.21,-563.64 552.13,-560.44 558.63,-557.66"/>
<polygon fill="#9a32cd" stroke="#9a32cd" points="393.78,-611.41 385.07,-617.44 395.64,-618.16 393.78,-611.41"/>
<text text-anchor="middle" x="484.5" y="-603" font-family="Helvetica,sans-Serif" font-size="10.00"> getters</text>
</g>
<!-- Node12 -->
<g id="node11" class="node">
<title>Node12</title>
<g id="a_node11"><a xlink:title=" ">
<polygon fill="white" stroke="#bfbfbf" points="324,-268.5 324,-287.5 374,-287.5 374,-268.5 324,-268.5"/>
<text text-anchor="middle" x="349" y="-275.5" font-family="Helvetica,sans-Serif" font-size="10.00">boolean</text>
</a>
</g>
</g>
<!-- Node12&#45;&gt;Node2 -->
<g id="edge39" class="edge">
<title>Node12&#45;&gt;Node2</title>
<path fill="none" stroke="#9a32cd" stroke-dasharray="5,2" d="M384.28,-274.18C452.39,-268.16 607.92,-262.29 721,-318 786.13,-350.09 845.19,-417.3 865.77,-442.33"/>
<polygon fill="#9a32cd" stroke="#9a32cd" points="383.75,-270.72 374.12,-275.14 384.41,-277.69 383.75,-270.72"/>
<text text-anchor="middle" x="684.5" y="-321" font-family="Helvetica,sans-Serif" font-size="10.00"> DEBUG_REPO</text>
</g>
<!-- Node12&#45;&gt;Node3 -->
<g id="edge34" class="edge">
<title>Node12&#45;&gt;Node3</title>
<path fill="none" stroke="#9a32cd" stroke-dasharray="5,2" d="M384.37,-279.02C419.09,-280.51 474.16,-284.16 521,-293 570.61,-302.36 582.73,-307.26 630,-325 671.7,-340.65 682.03,-345.43 721,-367 733.45,-373.89 746.93,-382.81 756.6,-389.49"/>
<polygon fill="#9a32cd" stroke="#9a32cd" points="384.41,-275.52 374.28,-278.62 384.13,-282.51 384.41,-275.52"/>
<text text-anchor="middle" x="584.5" y="-328" font-family="Helvetica,sans-Serif" font-size="10.00"> DEBUG_REPO</text>
</g>
<!-- Node12&#45;&gt;Node4 -->
<g id="edge11" class="edge">
<title>Node12&#45;&gt;Node4</title>
<path fill="none" stroke="#9a32cd" stroke-dasharray="5,2" d="M384.37,-280.2C400.44,-283.03 418.53,-289.12 430,-302 460.33,-336.04 427.6,-362.22 448,-403 478.53,-464.01 542.89,-517.38 570.49,-538.44"/>
<polygon fill="#9a32cd" stroke="#9a32cd" points="384.58,-276.69 374.19,-278.77 383.61,-283.63 384.58,-276.69"/>
<text text-anchor="middle" x="484.5" y="-498" font-family="Helvetica,sans-Serif" font-size="10.00"> DEBUG_REPO</text>
</g>
<!-- Node35 -->
<g id="node22" class="node">
<title>Node35</title>
<g id="a_node22"><a xlink:href="classmachine_1_1_var_table.html" target="_top" xlink:title="@整数の表">
<polygon fill="white" stroke="black" points="557.5,-345.5 557.5,-364.5 611.5,-364.5 611.5,-345.5 557.5,-345.5"/>
<text text-anchor="middle" x="584.5" y="-352.5" font-family="Helvetica,sans-Serif" font-size="10.00">VarTable</text>
</a>
</g>
</g>
<!-- Node12&#45;&gt;Node35 -->
<g id="edge33" class="edge">
<title>Node12&#45;&gt;Node35</title>
<path fill="none" stroke="#9a32cd" stroke-dasharray="5,2" d="M384.14,-282.61C427.01,-288.81 497.77,-300.5 521,-313 530.96,-318.36 529.93,-324.24 539,-331 546.32,-336.45 555.04,-341.43 562.81,-345.43"/>
<polygon fill="#9a32cd" stroke="#9a32cd" points="384.54,-279.13 374.15,-281.19 383.56,-286.06 384.54,-279.13"/>
<text text-anchor="middle" x="484.5" y="-316" font-family="Helvetica,sans-Serif" font-size="10.00"> DEBUG_REPO</text>
</g>
<!-- Node24 -->
<g id="node12" class="node">
<title>Node24</title>
<g id="a_node12"><a xlink:href="interfacemachine_1_1_var_holdable.html" target="_top" xlink:title="実行可能コードのインタフェース. ブロックとステップの二種がある。">
<polygon fill="white" stroke="black" points="550,-576.5 550,-595.5 619,-595.5 619,-576.5 550,-576.5"/>
<text text-anchor="middle" x="584.5" y="-583.5" font-family="Helvetica,sans-Serif" font-size="10.00">VarHoldable</text>
</a>
</g>
</g>
<!-- Node24&#45;&gt;Node3 -->
<g id="edge12" class="edge">
<title>Node24&#45;&gt;Node3</title>
<path fill="none" stroke="midnightblue" d="M628.71,-575.59C658.23,-566.46 696.33,-550.41 721,-524 753.15,-489.6 765.07,-431.66 768.67,-408.75"/>
<polygon fill="midnightblue" stroke="midnightblue" points="627.66,-572.25 619.05,-578.43 629.64,-578.96 627.66,-572.25"/>
</g>
<!-- Node36 -->
<g id="node24" class="node">
<title>Node36</title>
<g id="a_node24"><a xlink:href="interfacemachine_1_1_callable.html" target="_top" xlink:title="実行可能ルールのインタフェース.">
<polygon fill="white" stroke="black" points="745,-576.5 745,-595.5 797,-595.5 797,-576.5 745,-576.5"/>
<text text-anchor="middle" x="771" y="-583.5" font-family="Helvetica,sans-Serif" font-size="10.00">Callable</text>
</a>
</g>
</g>
<!-- Node24&#45;&gt;Node36 -->
<g id="edge36" class="edge">
<title>Node24&#45;&gt;Node36</title>
<path fill="none" stroke="midnightblue" d="M629.59,-586C665.66,-586 715.38,-586 744.95,-586"/>
<polygon fill="midnightblue" stroke="midnightblue" points="629.34,-582.5 619.34,-586 629.34,-589.5 629.34,-582.5"/>
</g>
<!-- Node25 -->
<g id="node13" class="node">
<title>Node25</title>
<g id="a_node13"><a xlink:href="interfacecmd_1_1_generatable.html" target="_top" xlink:title="変換してコードを生成できるノードのインタフェース.">
<polygon fill="white" stroke="black" points="314.5,-446.5 314.5,-465.5 383.5,-465.5 383.5,-446.5 314.5,-446.5"/>
<text text-anchor="middle" x="349" y="-453.5" font-family="Helvetica,sans-Serif" font-size="10.00">Generatable</text>
</a>
</g>
</g>
<!-- Node25&#45;&gt;Node3 -->
<g id="edge13" class="edge">
<title>Node25&#45;&gt;Node3</title>
<path fill="none" stroke="midnightblue" d="M393.99,-446.17C410.83,-442.64 430.25,-438.83 448,-436 554.14,-419.1 681.14,-406.82 738.79,-401.68"/>
<polygon fill="midnightblue" stroke="midnightblue" points="392.93,-442.82 383.88,-448.33 394.39,-449.67 392.93,-442.82"/>
</g>
<!-- Node25&#45;&gt;Node26 -->
<g id="edge16" class="edge">
<title>Node25&#45;&gt;Node26</title>
<path fill="none" stroke="midnightblue" d="M393.73,-460.99C410.67,-462.9 430.24,-465.09 448,-467 486.21,-471.12 530.51,-475.65 557.77,-478.41"/>
<polygon fill="midnightblue" stroke="midnightblue" points="393.89,-457.49 383.56,-459.84 393.1,-464.44 393.89,-457.49"/>
</g>
<!-- Node26&#45;&gt;Node3 -->
<g id="edge14" class="edge">
<title>Node26&#45;&gt;Node3</title>
<path fill="none" stroke="#9a32cd" stroke-dasharray="5,2" d="M621.01,-472.61C649.12,-465.19 688.85,-452.89 721,-436 735.34,-428.46 749.93,-416.83 759.41,-408.63"/>
<polygon fill="#9a32cd" stroke="#9a32cd" points="620.04,-469.25 611.22,-475.13 621.78,-476.03 620.04,-469.25"/>
<text text-anchor="middle" x="684.5" y="-478" font-family="Helvetica,sans-Serif" font-size="10.00"> pre_sents_</text>
<text text-anchor="middle" x="684.5" y="-467" font-family="Helvetica,sans-Serif" font-size="10.00">sents_</text>
</g>
<!-- Node27 -->
<g id="node15" class="node">
<title>Node27</title>
<g id="a_node15"><a xlink:href="classmachine_1_1_call_list.html" target="_top" xlink:title=" ">
<polygon fill="white" stroke="black" points="559.5,-113.5 559.5,-132.5 609.5,-132.5 609.5,-113.5 559.5,-113.5"/>
<text text-anchor="middle" x="584.5" y="-120.5" font-family="Helvetica,sans-Serif" font-size="10.00">CallList</text>
</a>
</g>
</g>
<!-- Node27&#45;&gt;Node3 -->
<g id="edge17" class="edge">
<title>Node27&#45;&gt;Node3</title>
<path fill="none" stroke="#9a32cd" stroke-dasharray="5,2" d="M619.99,-119.71C650.71,-118.81 694.74,-122.84 721,-149 755.94,-183.8 767.19,-347.67 769.51,-389.34"/>
<polygon fill="#9a32cd" stroke="#9a32cd" points="619.55,-116.23 609.74,-120.2 619.89,-123.22 619.55,-116.23"/>
<text text-anchor="middle" x="684.5" y="-152" font-family="Helvetica,sans-Serif" font-size="10.00"> calls_</text>
</g>
<!-- Node28 -->
<g id="node16" class="node">
<title>Node28</title>
<g id="a_node16"><a xlink:title=" ">
<polygon fill="white" stroke="#bfbfbf" points="0,-234.5 0,-253.5 103,-253.5 103,-234.5 0,-234.5"/>
<text text-anchor="middle" x="51.5" y="-241.5" font-family="Helvetica,sans-Serif" font-size="10.00">CustomFormattable</text>
</a>
</g>
</g>
<!-- Node28&#45;&gt;Node27 -->
<g id="edge18" class="edge">
<title>Node28&#45;&gt;Node27</title>
<path fill="none" stroke="midnightblue" d="M105.37,-232.27C192.21,-212.96 370.42,-173.1 521,-138 533.71,-135.04 547.86,-131.65 559.48,-128.84"/>
<polygon fill="midnightblue" stroke="midnightblue" points="104.5,-228.88 95.5,-234.47 106.02,-235.71 104.5,-228.88"/>
</g>
<!-- Node29 -->
<g id="node18" class="node">
<title>Node29</title>
<g id="a_node18"><a xlink:href="classmachine_1_1_id_mask.html" target="_top" xlink:title="@IDのマスク">
<polygon fill="white" stroke="red" points="324.5,-75.5 324.5,-94.5 373.5,-94.5 373.5,-75.5 324.5,-75.5"/>
<text text-anchor="middle" x="349" y="-82.5" font-family="Helvetica,sans-Serif" font-size="10.00">IdMask</text>
</a>
</g>
</g>
<!-- Node28&#45;&gt;Node29 -->
<g id="edge21" class="edge">
<title>Node28&#45;&gt;Node29</title>
<path fill="none" stroke="midnightblue" d="M80.41,-229.46C119.92,-208.29 193.62,-166.61 250,-122 258.87,-114.98 258.12,-109.52 268,-104 285.45,-94.26 307.74,-89.49 324.36,-87.17"/>
<polygon fill="midnightblue" stroke="midnightblue" points="78.32,-226.6 71.13,-234.39 81.6,-232.79 78.32,-226.6"/>
</g>
<!-- Node33 -->
<g id="node20" class="node">
<title>Node33</title>
<g id="a_node20"><a xlink:href="classcmd_1_1_cmd_list.html" target="_top" xlink:title="仮想命令のリスト．">
<polygon fill="white" stroke="black" points="322.5,-230.5 322.5,-249.5 375.5,-249.5 375.5,-230.5 322.5,-230.5"/>
<text text-anchor="middle" x="349" y="-237.5" font-family="Helvetica,sans-Serif" font-size="10.00">CmdList</text>
</a>
</g>
</g>
<!-- Node28&#45;&gt;Node33 -->
<g id="edge25" class="edge">
<title>Node28&#45;&gt;Node33</title>
<path fill="none" stroke="midnightblue" d="M113.32,-243.18C177.68,-242.31 276.2,-240.97 322.41,-240.35"/>
<polygon fill="midnightblue" stroke="midnightblue" points="113.25,-239.68 103.3,-243.31 113.34,-246.68 113.25,-239.68"/>
</g>
<!-- Node28&#45;&gt;Node35 -->
<g id="edge29" class="edge">
<title>Node28&#45;&gt;Node35</title>
<path fill="none" stroke="midnightblue" d="M73.33,-259.91C82.64,-267.27 93.61,-276.3 103,-285 111.53,-292.9 110.92,-298.19 121,-304 267.26,-388.34 482.97,-368.96 557.25,-359"/>
<polygon fill="midnightblue" stroke="midnightblue" points="75.37,-257.06 65.33,-253.67 71.06,-262.58 75.37,-257.06"/>
</g>
<!-- Node10 -->
<g id="node17" class="node">
<title>Node10</title>
<g id="a_node17"><a xlink:title=" ">
<polygon fill="white" stroke="#bfbfbf" points="37,-75.5 37,-94.5 66,-94.5 66,-75.5 37,-75.5"/>
<text text-anchor="middle" x="51.5" y="-82.5" font-family="Helvetica,sans-Serif" font-size="10.00">int</text>
</a>
</g>
</g>
<!-- Node10&#45;&gt;Node2 -->
<g id="edge37" class="edge">
<title>Node10&#45;&gt;Node2</title>
<path fill="none" stroke="#9a32cd" stroke-dasharray="5,2" d="M74.71,-69.95C87.7,-61.77 104.71,-52.11 121,-46 217.39,-9.86 245.06,0 348,0 348,0 348,0 772,0 865.9,0 872.95,-376.04 873.46,-442.14"/>
<polygon fill="#9a32cd" stroke="#9a32cd" points="72.52,-67.2 66.03,-75.57 76.33,-73.07 72.52,-67.2"/>
<text text-anchor="middle" x="584.5" y="-3" font-family="Helvetica,sans-Serif" font-size="10.00"> dynamic_ref_count_</text>
</g>
<!-- Node10&#45;&gt;Node3 -->
<g id="edge27" class="edge">
<title>Node10&#45;&gt;Node3</title>
<path fill="none" stroke="#9a32cd" stroke-dasharray="5,2" d="M74.9,-99C87.96,-106.66 104.96,-115.83 121,-122 338.32,-205.57 410.16,-169.3 630,-246 672.06,-260.67 689.77,-256.24 721,-288 750.39,-317.89 763.7,-368.38 768.17,-389.39"/>
<polygon fill="#9a32cd" stroke="#9a32cd" points="76.54,-95.9 66.17,-93.75 72.93,-101.9 76.54,-95.9"/>
<text text-anchor="middle" x="484.5" y="-216" font-family="Helvetica,sans-Serif" font-size="10.00"> funid_</text>
</g>
<!-- Node10&#45;&gt;Node27 -->
<g id="edge19" class="edge">
<title>Node10&#45;&gt;Node27</title>
<path fill="none" stroke="#9a32cd" stroke-dasharray="5,2" d="M75.96,-78.7C135.66,-63.6 298.01,-28.55 430,-55 483.73,-65.77 541.33,-97.39 568.14,-113.43"/>
<polygon fill="#9a32cd" stroke="#9a32cd" points="74.84,-75.37 66.03,-81.26 76.59,-82.15 74.84,-75.37"/>
<text text-anchor="middle" x="349" y="-58" font-family="Helvetica,sans-Serif" font-size="10.00"> UNDEF</text>
</g>
<!-- Node10&#45;&gt;Node29 -->
<g id="edge22" class="edge">
<title>Node10&#45;&gt;Node29</title>
<path fill="none" stroke="#9a32cd" stroke-dasharray="5,2" d="M76.67,-85C132.4,-85 269.4,-85 324.49,-85"/>
<polygon fill="#9a32cd" stroke="#9a32cd" points="76.36,-81.5 66.36,-85 76.36,-88.5 76.36,-81.5"/>
<text text-anchor="middle" x="185.5" y="-110" font-family="Helvetica,sans-Serif" font-size="10.00"> OUTPUT_MIN_BIT_WIDTH</text>
<text text-anchor="middle" x="185.5" y="-99" font-family="Helvetica,sans-Serif" font-size="10.00">maxState</text>
<text text-anchor="middle" x="185.5" y="-88" font-family="Helvetica,sans-Serif" font-size="10.00">numStates</text>
</g>
<!-- Node10&#45;&gt;Node35 -->
<g id="edge31" class="edge">
<title>Node10&#45;&gt;Node35</title>
<path fill="none" stroke="#9a32cd" stroke-dasharray="5,2" d="M62.28,-103.55C74.08,-124.68 95.55,-159.32 121,-183 169.88,-228.49 204.84,-210.81 250,-260 262.37,-273.47 253.44,-285.93 268,-297 313.67,-331.71 490.13,-348.12 557.32,-353.2"/>
<polygon fill="#9a32cd" stroke="#9a32cd" points="65.28,-101.74 57.42,-94.63 59.13,-105.09 65.28,-101.74"/>
<text text-anchor="middle" x="349" y="-343" font-family="Helvetica,sans-Serif" font-size="10.00"> UNDEF</text>
</g>
<!-- Node29&#45;&gt;Node27 -->
<g id="edge20" class="edge">
<title>Node29&#45;&gt;Node27</title>
<path fill="none" stroke="#9a32cd" stroke-dasharray="5,2" d="M383.67,-88.5C418.28,-92.34 473.63,-99.15 521,-108 533.72,-110.38 547.75,-113.68 559.28,-116.58"/>
<polygon fill="#9a32cd" stroke="#9a32cd" points="383.95,-85.01 373.63,-87.41 383.19,-91.97 383.95,-85.01"/>
<text text-anchor="middle" x="484.5" y="-111" font-family="Helvetica,sans-Serif" font-size="10.00"> callbits_</text>
</g>
<!-- Node32 -->
<g id="node19" class="node">
<title>Node32</title>
<g id="a_node19"><a xlink:title=" ">
<polygon fill="white" stroke="#bfbfbf" points="295.5,-113.5 295.5,-132.5 402.5,-132.5 402.5,-113.5 295.5,-113.5"/>
<text text-anchor="middle" x="349" y="-120.5" font-family="Helvetica,sans-Serif" font-size="10.00">List&lt; machine.Call &gt;</text>
</a>
</g>
</g>
<!-- Node32&#45;&gt;Node27 -->
<g id="edge23" class="edge">
<title>Node32&#45;&gt;Node27</title>
<path fill="none" stroke="#9a32cd" stroke-dasharray="5,2" d="M412.75,-123C461.07,-123 525.21,-123 559.49,-123"/>
<polygon fill="#9a32cd" stroke="#9a32cd" points="412.69,-119.5 402.69,-123 412.69,-126.5 412.69,-119.5"/>
<text text-anchor="middle" x="484.5" y="-126" font-family="Helvetica,sans-Serif" font-size="10.00"> list_</text>
</g>
<!-- Node33&#45;&gt;Node3 -->
<g id="edge24" class="edge">
<title>Node33&#45;&gt;Node3</title>
<path fill="none" stroke="#9a32cd" stroke-dasharray="5,2" d="M385.73,-238.86C440.09,-238.23 546.11,-241.43 630,-271 675.23,-286.94 686.36,-295.83 721,-329 740.29,-347.47 756.68,-374.57 764.71,-389.04"/>
<polygon fill="#9a32cd" stroke="#9a32cd" points="385.51,-235.36 375.57,-239.02 385.63,-242.36 385.51,-235.36"/>
<text text-anchor="middle" x="584.5" y="-285" font-family="Helvetica,sans-Serif" font-size="10.00"> code_</text>
<text text-anchor="middle" x="584.5" y="-274" font-family="Helvetica,sans-Serif" font-size="10.00">pre_code_</text>
</g>
<!-- Node34 -->
<g id="node21" class="node">
<title>Node34</title>
<g id="a_node21"><a xlink:title=" ">
<polygon fill="white" stroke="#bfbfbf" points="16,-294.5 16,-313.5 87,-313.5 87,-294.5 16,-294.5"/>
<text text-anchor="middle" x="51.5" y="-301.5" font-family="Helvetica,sans-Serif" font-size="10.00">List&lt; Cmd &gt;</text>
</a>
</g>
</g>
<!-- Node34&#45;&gt;Node33 -->
<g id="edge26" class="edge">
<title>Node34&#45;&gt;Node33</title>
<path fill="none" stroke="#9a32cd" stroke-dasharray="5,2" d="M97.27,-294.3C160.05,-280.71 272.17,-256.42 322.41,-245.54"/>
<polygon fill="#9a32cd" stroke="#9a32cd" points="96.3,-290.93 87.27,-296.47 97.78,-297.77 96.3,-290.93"/>
<text text-anchor="middle" x="185.5" y="-292" font-family="Helvetica,sans-Serif" font-size="10.00"> list_</text>
</g>
<!-- Node35&#45;&gt;Node3 -->
<g id="edge28" class="edge">
<title>Node35&#45;&gt;Node3</title>
<path fill="none" stroke="#9a32cd" stroke-dasharray="5,2" d="M621.57,-363.6C655.71,-371.74 706.43,-383.84 738.85,-391.57"/>
<polygon fill="#9a32cd" stroke="#9a32cd" points="622.08,-360.13 611.54,-361.21 620.46,-366.94 622.08,-360.13"/>
<text text-anchor="middle" x="684.5" y="-391" font-family="Helvetica,sans-Serif" font-size="10.00"> vars_</text>
</g>
<!-- Node35&#45;&gt;Node35 -->
<g id="edge32" class="edge">
<title>Node35&#45;&gt;Node35</title>
<path fill="none" stroke="#9a32cd" stroke-dasharray="5,2" d="M565.98,-374.4C567.22,-379.31 573.39,-383 584.5,-383 602.27,-383 607.41,-373.57 599.91,-364.76"/>
<polygon fill="#9a32cd" stroke="#9a32cd" points="569.35,-375.35 569.09,-364.76 562.69,-373.2 569.35,-375.35"/>
<text text-anchor="middle" x="584.5" y="-386" font-family="Helvetica,sans-Serif" font-size="10.00"> parent</text>
</g>
<!-- Node9 -->
<g id="node23" class="node">
<title>Node9</title>
<g id="a_node23"><a xlink:title=" ">
<polygon fill="white" stroke="#bfbfbf" points="312.5,-391.5 312.5,-410.5 385.5,-410.5 385.5,-391.5 312.5,-391.5"/>
<text text-anchor="middle" x="349" y="-398.5" font-family="Helvetica,sans-Serif" font-size="10.00">static Report</text>
</a>
</g>
</g>
<!-- Node9&#45;&gt;Node35 -->
<g id="edge30" class="edge">
<title>Node9&#45;&gt;Node35</title>
<path fill="none" stroke="#9a32cd" stroke-dasharray="5,2" d="M395.92,-395.51C430.54,-390.94 479.06,-383.64 521,-374 533.05,-371.23 546.17,-367.38 557.26,-363.86"/>
<polygon fill="#9a32cd" stroke="#9a32cd" points="395.11,-392.08 385.64,-396.83 396.01,-399.02 395.11,-392.08"/>
<text text-anchor="middle" x="484.5" y="-391" font-family="Helvetica,sans-Serif" font-size="10.00"> repo</text>
</g>
<!-- Node36&#45;&gt;Node1 -->
<g id="edge40" class="edge">
<title>Node36&#45;&gt;Node1</title>
<path fill="none" stroke="midnightblue" d="M793.5,-601.88C832.21,-630.47 912.53,-689.78 944.22,-713.19"/>
<polygon fill="midnightblue" stroke="midnightblue" points="795.17,-598.76 785.04,-595.63 791.01,-604.39 795.17,-598.76"/>
</g>
<!-- Node36&#45;&gt;Node2 -->
<g id="edge35" class="edge">
<title>Node36&#45;&gt;Node2</title>
<path fill="none" stroke="midnightblue" d="M785.61,-568.03C807.42,-539.24 849.43,-483.77 866.27,-461.55"/>
<polygon fill="midnightblue" stroke="midnightblue" points="782.55,-566.28 779.3,-576.36 788.13,-570.5 782.55,-566.28"/>
</g>
<!-- Node37&#45;&gt;Node1 -->
<g id="edge41" class="edge">
<title>Node37&#45;&gt;Node1</title>
<path fill="none" stroke="#9a32cd" stroke-dasharray="5,2" d="M618.56,-757.62C691.03,-750.22 862.76,-732.68 929.91,-725.82"/>
<polygon fill="#9a32cd" stroke="#9a32cd" points="617.8,-754.18 608.21,-758.68 618.51,-761.15 617.8,-754.18"/>
<text text-anchor="middle" x="829.5" y="-739" font-family="Helvetica,sans-Serif" font-size="10.00"> tag</text>
</g>
<!-- Node38 -->
<g id="node26" class="node">
<title>Node38</title>
<g id="a_node26"><a xlink:title=" ">
<polygon fill="white" stroke="#bfbfbf" points="297.5,-751.5 297.5,-770.5 400.5,-770.5 400.5,-751.5 297.5,-751.5"/>
<text text-anchor="middle" x="349" y="-758.5" font-family="Helvetica,sans-Serif" font-size="10.00">CustomFormattable</text>
</a>
</g>
</g>
<!-- Node38&#45;&gt;Node37 -->
<g id="edge43" class="edge">
<title>Node38&#45;&gt;Node37</title>
<path fill="none" stroke="midnightblue" d="M410.88,-761C460.05,-761 526.52,-761 560.86,-761"/>
<polygon fill="midnightblue" stroke="midnightblue" points="410.67,-757.5 400.67,-761 410.67,-764.5 410.67,-757.5"/>
</g>
</g>
</svg>
