<?xml version="1.0" encoding="UTF-8" standalone="no"?>
<!DOCTYPE svg PUBLIC "-//W3C//DTD SVG 1.1//EN"
 "http://www.w3.org/Graphics/SVG/1.1/DTD/svg11.dtd">
<!-- Generated by graphviz version 2.47.1 (20210417.1919)
 -->
<!-- Title: AutoStack&lt; S &gt; Pages: 1 -->
<svg width="176pt" height="84pt"
 viewBox="0.00 0.00 175.50 84.00" xmlns="http://www.w3.org/2000/svg" xmlns:xlink="http://www.w3.org/1999/xlink">
<g id="graph0" class="graph" transform="scale(1 1) rotate(0) translate(4 80)">
<title>AutoStack&lt; S &gt;</title>
<polygon fill="white" stroke="transparent" points="-4,4 -4,-80 171.5,-80 171.5,4 -4,4"/>
<!-- Node1 -->
<g id="node1" class="node">
<title>Node1</title>
<g id="a_node1"><a xlink:title="再利用可能な型Sのオブジェクトを要素に持つスタックの実装.">
<polygon fill="#bfbfbf" stroke="black" points="47,-0.5 47,-19.5 134,-19.5 134,-0.5 47,-0.5"/>
<text text-anchor="middle" x="90.5" y="-7.5" font-family="Helvetica,sans-Serif" font-size="10.00">AutoStack&lt; S &gt;</text>
</a>
</g>
</g>
<!-- Node2 -->
<g id="node2" class="node">
<title>Node2</title>
<g id="a_node2"><a xlink:href="classutil_1_1_stack_base.html" target="_top" xlink:title=" ">
<polygon fill="white" stroke="black" points="0,-56.5 0,-75.5 89,-75.5 89,-56.5 0,-56.5"/>
<text text-anchor="middle" x="44.5" y="-63.5" font-family="Helvetica,sans-Serif" font-size="10.00">StackBase&lt; S &gt;</text>
</a>
</g>
</g>
<!-- Node2&#45;&gt;Node1 -->
<g id="edge1" class="edge">
<title>Node2&#45;&gt;Node1</title>
<path fill="none" stroke="midnightblue" d="M58.61,-48.43C66.68,-38.97 76.46,-27.48 83.05,-19.75"/>
<polygon fill="midnightblue" stroke="midnightblue" points="55.92,-46.2 52.1,-56.08 61.25,-50.74 55.92,-46.2"/>
</g>
<!-- Node3 -->
<g id="node3" class="node">
<title>Node3</title>
<g id="a_node3"><a xlink:href="interfaceutil_1_1_stackable.html" target="_top" xlink:title="レベル付きスタックを実装するための最小限のインタフェース">
<polygon fill="white" stroke="black" points="107.5,-56.5 107.5,-75.5 167.5,-75.5 167.5,-56.5 107.5,-56.5"/>
<text text-anchor="middle" x="137.5" y="-63.5" font-family="Helvetica,sans-Serif" font-size="10.00">Stackable</text>
</a>
</g>
</g>
<!-- Node3&#45;&gt;Node1 -->
<g id="edge2" class="edge">
<title>Node3&#45;&gt;Node1</title>
<path fill="none" stroke="midnightblue" d="M123.08,-48.43C114.84,-38.97 104.85,-27.48 98.12,-19.75"/>
<polygon fill="midnightblue" stroke="midnightblue" points="120.53,-50.84 129.74,-56.08 125.81,-46.24 120.53,-50.84"/>
</g>
</g>
</svg>
