<?xml version="1.0" encoding="UTF-8" standalone="no"?>
<!DOCTYPE svg PUBLIC "-//W3C//DTD SVG 1.1//EN"
 "http://www.w3.org/Graphics/SVG/1.1/DTD/svg11.dtd">
<!-- Generated by graphviz version 2.38.0 (20140413.2041)
 -->
<!-- Title: AstConverter.AstTypeToType&lt; S, T &gt; Pages: 1 -->
<!--zoomable 138 -->
<svg id="main" version="1.1" xmlns="http://www.w3.org/2000/svg" xmlns:xlink="http://www.w3.org/1999/xlink" xml:space="preserve" onload="init(evt)">
<style type="text/css"><![CDATA[
.edge:hover path { stroke: red; }
.edge:hover polygon { stroke: red; fill: red; }
]]></style>
<script type="text/javascript"><![CDATA[
var edges = document.getElementsByTagName('g');
if (edges && edges.length) {
  for (var i=0;i<edges.length;i++) {
    if (edges[i].id.substr(0,4)=='edge') {
      edges[i].setAttribute('class','edge');
    }
  }
}
]]></script>
        <defs>
                <circle id="rim" cx="0" cy="0" r="7"/>
                <circle id="rim2" cx="0" cy="0" r="3.5"/>
                <g id="zoomPlus">
                        <use xlink:href="#rim" fill="#404040">
                                <set attributeName="fill" to="#808080" begin="zoomplus.mouseover" end="zoomplus.mouseout"/>
                        </use>
                        <path d="M-4,0h8M0,-4v8" fill="none" stroke="white" stroke-width="1.5" pointer-events="none"/>
                </g>
                <g id="zoomMin">
                        <use xlink:href="#rim" fill="#404040">
                                <set attributeName="fill" to="#808080" begin="zoomminus.mouseover" end="zoomminus.mouseout"/>
                        </use>
                        <path d="M-4,0h8" fill="none" stroke="white" stroke-width="1.5" pointer-events="none"/>
                </g>
                <g id="dirArrow">
                        <path fill="none" stroke="white" stroke-width="1.5" d="M0,-3.0v7 M-2.5,-0.5L0,-3.0L2.5,-0.5"/>
                </g>
               <g id="resetDef">
                       <use xlink:href="#rim2" fill="#404040">
                               <set attributeName="fill" to="#808080" begin="reset.mouseover" end="reset.mouseout"/>
                       </use>
               </g>
        </defs>

<script type="text/javascript">
var viewWidth = 693;
var viewHeight = 138;
var sectionId = 'dynsection-0';
</script>
<script xlink:href="svgpan.js"/>
<svg id="graph" class="graph">
<g id="viewport">
<title>AstConverter.AstTypeToType&lt; S, T &gt;</title>
<polygon fill="white" stroke="none" points="-4,4 -4,-134 688.786,-134 688.786,4 -4,4"/>
<!-- Node1 -->
<g id="node1" class="node"><title>Node1</title>
<g id="a_node1"><a xlink:title="S型の値をT型の値に変換するアダプタ">
<polygon fill="#bfbfbf" stroke="black" points="539.821,-31.5 539.821,-59.5 684.786,-59.5 684.786,-31.5 539.821,-31.5"/>
<text text-anchor="start" x="547.821" y="-47.5" font-family="Helvetica,sans-Serif" font-size="10.00">AstConverter.AstTypeToType</text>
<text text-anchor="middle" x="612.304" y="-37.5" font-family="Helvetica,sans-Serif" font-size="10.00">&lt; S, T &gt;</text>
</a>
</g>
</g>
<!-- Node2 -->
<g id="node2" class="node"><title>Node2</title>
<g id="a_node2"><a xlink:href="classast_1_1_ast_converter.html" target="_top" xlink:title="値の変換のクラス。AstTypeToType&lt;S,T&gt;の単なるラッパー">
<polygon fill="white" stroke="black" points="429.467,-55.5 429.467,-73.5 503.821,-73.5 503.821,-55.5 429.467,-55.5"/>
<text text-anchor="middle" x="466.644" y="-61.5" font-family="Helvetica,sans-Serif" font-size="10.00">AstConverter</text>
</a>
</g>
</g>
<!-- Node2&#45;&gt;Node1 -->
<g id="edge1" class="edge"><title>Node2&#45;&gt;Node1</title>
<path fill="none" stroke="midnightblue" d="M514.02,-58.3664C522.261,-57.2766 531.015,-56.1188 539.763,-54.9617"/>
<polygon fill="midnightblue" stroke="midnightblue" points="513.35,-54.9245 503.895,-59.7055 514.268,-61.864 513.35,-54.9245"/>
</g>
<!-- Node3 -->
<g id="node3" class="node"><title>Node3</title>
<g id="a_node3"><a xlink:href="classast_1_1_ast_node_branch.html" target="_top" xlink:title="抽象構文木のノードの基本実装クラス.">
<polygon fill="white" stroke="black" points="307.428,-55.5 307.428,-73.5 393.467,-73.5 393.467,-55.5 307.428,-55.5"/>
<text text-anchor="middle" x="350.447" y="-61.5" font-family="Helvetica,sans-Serif" font-size="10.00">AstNodeBranch</text>
</a>
</g>
</g>
<!-- Node3&#45;&gt;Node2 -->
<g id="edge2" class="edge"><title>Node3&#45;&gt;Node2</title>
<path fill="none" stroke="midnightblue" d="M403.674,-64.5C412.317,-64.5 421.109,-64.5 429.252,-64.5"/>
<polygon fill="midnightblue" stroke="midnightblue" points="403.646,-61.0001 393.645,-64.5 403.645,-68.0001 403.646,-61.0001"/>
</g>
<!-- Node4 -->
<g id="node4" class="node"><title>Node4</title>
<g id="a_node4"><a xlink:href="classast_1_1_ast_node.html" target="_top" xlink:title=" ">
<polygon fill="white" stroke="black" points="164.549,-111.5 164.549,-129.5 218.903,-129.5 218.903,-111.5 164.549,-111.5"/>
<text text-anchor="middle" x="191.726" y="-117.5" font-family="Helvetica,sans-Serif" font-size="10.00">AstNode</text>
</a>
</g>
</g>
<!-- Node4&#45;&gt;Node3 -->
<g id="edge3" class="edge"><title>Node4&#45;&gt;Node3</title>
<path fill="none" stroke="midnightblue" d="M228.95,-114.025C242.474,-111.138 257.84,-107.292 271.428,-102.5 293.735,-94.6331 318.025,-82.1231 333.476,-73.6239"/>
<polygon fill="midnightblue" stroke="midnightblue" points="228.127,-110.62 219.026,-116.045 229.523,-117.48 228.127,-110.62"/>
</g>
<!-- Node5 -->
<g id="node5" class="node"><title>Node5</title>
<g id="a_node5"><a xlink:href="interfaceformat_1_1_x_formattable.html" target="_top" xlink:title="入れ子フォーマット出力可能なオブジェクトのインタフェース。">
<polygon fill="white" stroke="black" points="0,-55.5 0,-73.5 76.0244,-73.5 76.0244,-55.5 0,-55.5"/>
<text text-anchor="middle" x="38.0122" y="-61.5" font-family="Helvetica,sans-Serif" font-size="10.00">XFormattable</text>
</a>
</g>
</g>
<!-- Node5&#45;&gt;Node4 -->
<g id="edge4" class="edge"><title>Node5&#45;&gt;Node4</title>
<path fill="none" stroke="midnightblue" d="M62.5204,-78.696C76.4973,-86.6318 94.807,-96.169 112.024,-102.5 128.995,-108.74 148.846,-113.262 164.366,-116.213"/>
<polygon fill="midnightblue" stroke="midnightblue" points="64.0082,-75.5127 53.603,-73.517 60.4926,-81.5658 64.0082,-75.5127"/>
</g>
<!-- Node6 -->
<g id="node6" class="node"><title>Node6</title>
<g id="a_node6"><a xlink:href="interfaceformat_1_1_x_formattable_1_1_navigatable.html" target="_top" xlink:title="木構造の分岐ノードとして清書可能なオブジェクトのクラス">
<polygon fill="white" stroke="black" points="125.918,-74.5 125.918,-92.5 257.534,-92.5 257.534,-74.5 125.918,-74.5"/>
<text text-anchor="middle" x="191.726" y="-80.5" font-family="Helvetica,sans-Serif" font-size="10.00">XFormattable.Navigatable</text>
</a>
</g>
</g>
<!-- Node5&#45;&gt;Node6 -->
<g id="edge6" class="edge"><title>Node5&#45;&gt;Node6</title>
<path fill="none" stroke="midnightblue" d="M86.3297,-70.4258C98.8619,-71.9953 112.611,-73.7172 125.898,-75.3813"/>
<polygon fill="midnightblue" stroke="midnightblue" points="86.483,-66.9178 76.1256,-69.1479 85.6131,-73.8635 86.483,-66.9178"/>
</g>
<!-- Node7 -->
<g id="node7" class="node"><title>Node7</title>
<g id="a_node7"><a xlink:href="interfaceformat_1_1_x_formattable_1_1_typed_formattable.html" target="_top" xlink:title="ノードの型情報をもつ書式出力可能なオブジェクトのインタフェース．">
<polygon fill="white" stroke="black" points="112.024,-37.5 112.024,-55.5 271.428,-55.5 271.428,-37.5 112.024,-37.5"/>
<text text-anchor="middle" x="191.726" y="-43.5" font-family="Helvetica,sans-Serif" font-size="10.00">XFormattable.TypedFormattable</text>
</a>
</g>
</g>
<!-- Node5&#45;&gt;Node7 -->
<g id="edge8" class="edge"><title>Node5&#45;&gt;Node7</title>
<path fill="none" stroke="midnightblue" d="M86.1143,-58.9116C95.2373,-57.8292 105.012,-56.6696 114.788,-55.5097"/>
<polygon fill="midnightblue" stroke="midnightblue" points="85.6436,-55.4428 76.1256,-60.0967 86.4683,-62.3941 85.6436,-55.4428"/>
</g>
<!-- Node8 -->
<g id="node8" class="node"><title>Node8</title>
<g id="a_node8"><a xlink:href="interfaceformat_1_1_x_formattable_1_1_hgt_formattable.html" target="_top" xlink:title="ノードの高さ情報をもつ書式出力可能なオブジェクトのインタフェース．">
<polygon fill="white" stroke="black" points="117.867,-0.5 117.867,-18.5 265.585,-18.5 265.585,-0.5 117.867,-0.5"/>
<text text-anchor="middle" x="191.726" y="-6.5" font-family="Helvetica,sans-Serif" font-size="10.00">XFormattable.HgtFormattable</text>
</a>
</g>
</g>
<!-- Node5&#45;&gt;Node8 -->
<g id="edge10" class="edge"><title>Node5&#45;&gt;Node8</title>
<path fill="none" stroke="midnightblue" d="M63.0998,-50.4125C77.0222,-42.7545 95.0859,-33.6245 112.024,-27.5 121.778,-23.9732 132.47,-20.9813 142.741,-18.5098"/>
<polygon fill="midnightblue" stroke="midnightblue" points="61.1885,-47.4718 54.1876,-55.424 64.6196,-53.5733 61.1885,-47.4718"/>
</g>
<!-- Node6&#45;&gt;Node3 -->
<g id="edge5" class="edge"><title>Node6&#45;&gt;Node3</title>
<path fill="none" stroke="midnightblue" d="M268.051,-74.368C281.484,-72.7395 295.036,-71.0965 307.125,-69.6309"/>
<polygon fill="midnightblue" stroke="midnightblue" points="267.334,-70.9292 257.828,-75.6074 268.177,-77.8783 267.334,-70.9292"/>
</g>
<!-- Node7&#45;&gt;Node3 -->
<g id="edge7" class="edge"><title>Node7&#45;&gt;Node3</title>
<path fill="none" stroke="midnightblue" d="M281.647,-56.7129C290.546,-57.735 299.26,-58.7358 307.318,-59.6614"/>
<polygon fill="midnightblue" stroke="midnightblue" points="281.88,-53.2167 271.546,-55.5527 281.081,-60.171 281.88,-53.2167"/>
</g>
<!-- Node8&#45;&gt;Node3 -->
<g id="edge9" class="edge"><title>Node8&#45;&gt;Node3</title>
<path fill="none" stroke="midnightblue" d="M249.531,-20.9304C256.968,-22.8811 264.43,-25.073 271.428,-27.5 293.523,-35.1629 317.661,-47.2261 333.148,-55.4813"/>
<polygon fill="midnightblue" stroke="midnightblue" points="250.36,-17.5301 239.81,-18.5058 248.666,-24.322 250.36,-17.5301"/>
</g>
<!-- Node9 -->
<g id="node9" class="node"><title>Node9</title>
<g id="a_node9"><a xlink:href="class_generatable.html" target="_top" xlink:title=" ">
<polygon fill="white" stroke="black" points="431.125,-18.5 431.125,-36.5 502.164,-36.5 502.164,-18.5 431.125,-18.5"/>
<text text-anchor="middle" x="466.644" y="-24.5" font-family="Helvetica,sans-Serif" font-size="10.00">Generatable</text>
</a>
</g>
</g>
<!-- Node9&#45;&gt;Node1 -->
<g id="edge11" class="edge"><title>Node9&#45;&gt;Node1</title>
<path fill="none" stroke="midnightblue" d="M512.595,-33.1321C521.215,-34.2122 530.438,-35.3679 539.658,-36.5231"/>
<polygon fill="midnightblue" stroke="midnightblue" points="512.778,-29.6278 502.42,-31.8573 511.907,-36.5735 512.778,-29.6278"/>
</g>
</g>
</svg>
        <g id="navigator" transform="translate(0 0)" fill="#404254">
                <rect fill="#f2f5e9" fill-opacity="0.5" stroke="#606060" stroke-width=".5" x="0" y="0" width="60" height="60"/>
                <use id="zoomplus" xlink:href="#zoomPlus" x="17" y="9" onmousedown="handleZoom(evt,'in')"/>
                <use id="zoomminus" xlink:href="#zoomMin" x="42" y="9" onmousedown="handleZoom(evt,'out')"/>
                <use id="reset" xlink:href="#resetDef" x="30" y="36" onmousedown="handleReset()"/>
                <g id="arrowUp" xlink:href="#dirArrow" transform="translate(30 24)" onmousedown="handlePan(0,-1)">
                  <use xlink:href="#rim" fill="#404040">
                        <set attributeName="fill" to="#808080" begin="arrowUp.mouseover" end="arrowUp.mouseout"/>
                  </use>
                  <path fill="none" stroke="white" stroke-width="1.5" d="M0,-3.0v7 M-2.5,-0.5L0,-3.0L2.5,-0.5"/>
                </g>
                <g id="arrowRight" xlink:href="#dirArrow" transform="rotate(90) translate(36 -43)" onmousedown="handlePan(1,0)">
                  <use xlink:href="#rim" fill="#404040">
                        <set attributeName="fill" to="#808080" begin="arrowRight.mouseover" end="arrowRight.mouseout"/>
                  </use>
                  <path fill="none" stroke="white" stroke-width="1.5" d="M0,-3.0v7 M-2.5,-0.5L0,-3.0L2.5,-0.5"/>
                </g>
                <g id="arrowDown" xlink:href="#dirArrow" transform="rotate(180) translate(-30 -48)" onmousedown="handlePan(0,1)">
                  <use xlink:href="#rim" fill="#404040">
                        <set attributeName="fill" to="#808080" begin="arrowDown.mouseover" end="arrowDown.mouseout"/>
                  </use>
                  <path fill="none" stroke="white" stroke-width="1.5" d="M0,-3.0v7 M-2.5,-0.5L0,-3.0L2.5,-0.5"/>
                </g>
                <g id="arrowLeft" xlink:href="#dirArrow" transform="rotate(270) translate(-36 17)" onmousedown="handlePan(-1,0)">
                  <use xlink:href="#rim" fill="#404040">
                        <set attributeName="fill" to="#808080" begin="arrowLeft.mouseover" end="arrowLeft.mouseout"/>
                  </use>
                  <path fill="none" stroke="white" stroke-width="1.5" d="M0,-3.0v7 M-2.5,-0.5L0,-3.0L2.5,-0.5"/>
                </g>
        </g>
        <svg viewBox="0 0 15 15" width="100%" height="30px" preserveAspectRatio="xMaxYMin meet">
         <g id="arrow_out" transform="scale(0.3 0.3)">
          <a xlink:href="classast_1_1_ast_converter_1_1_ast_type_to_type__inherit__graph_org.svg" target="_base">
           <rect id="button" ry="5" rx="5" y="6" x="6" height="38" width="38"
                fill="#f2f5e9" fill-opacity="0.5" stroke="#606060" stroke-width="1.0"/>
           <path id="arrow"
             d="M 11.500037,31.436501 C 11.940474,20.09759 22.043105,11.32322 32.158766,21.979434 L 37.068811,17.246167 C 37.068811,17.246167 37.088388,32 37.088388,32 L 22.160133,31.978069 C 22.160133,31.978069 26.997745,27.140456 26.997745,27.140456 C 18.528582,18.264221 13.291696,25.230495 11.500037,31.436501 z"
             style="fill:#404040;"/>
          </a>
         </g>
        </svg>
</svg>
