<?xml version="1.0" encoding="UTF-8" standalone="no"?>
<!DOCTYPE svg PUBLIC "-//W3C//DTD SVG 1.1//EN"
 "http://www.w3.org/Graphics/SVG/1.1/DTD/svg11.dtd">
<!-- Generated by graphviz version 2.47.0 (20210316.0004)
 -->
<!-- Title: StringRel Pages: 1 -->
<svg width="473pt" height="308pt"
 viewBox="0.00 0.00 473.00 308.00" xmlns="http://www.w3.org/2000/svg" xmlns:xlink="http://www.w3.org/1999/xlink">
<g id="graph0" class="graph" transform="scale(1 1) rotate(0) translate(4 304)">
<title>StringRel</title>
<polygon fill="white" stroke="transparent" points="-4,4 -4,-304 469,-304 469,4 -4,4"/>
<!-- Node1 -->
<g id="node1" class="node">
<title>Node1</title>
<g id="a_node1"><a xlink:title=" ">
<polygon fill="#bfbfbf" stroke="black" points="251,-56.5 251,-75.5 308,-75.5 308,-56.5 251,-56.5"/>
<text text-anchor="middle" x="279.5" y="-63.5" font-family="Helvetica,sans-Serif" font-size="10.00">StringRel</text>
</a>
</g>
</g>
<!-- Node12 -->
<g id="node10" class="node">
<title>Node12</title>
<g id="a_node10"><a xlink:href="classast_1_1_string_rel_1_1_regex_match_rel.html" target="_top" xlink:title=" ">
<polygon fill="white" stroke="black" points="140,-0.5 140,-19.5 271,-19.5 271,-0.5 140,-0.5"/>
<text text-anchor="middle" x="205.5" y="-7.5" font-family="Helvetica,sans-Serif" font-size="10.00">StringRel.RegexMatchRel</text>
</a>
</g>
</g>
<!-- Node1&#45;&gt;Node12 -->
<g id="edge9" class="edge">
<title>Node1&#45;&gt;Node12</title>
<path fill="none" stroke="midnightblue" d="M259.47,-50.38C246.09,-40.62 228.94,-28.11 217.61,-19.83"/>
<polygon fill="midnightblue" stroke="midnightblue" points="257.47,-53.26 267.61,-56.32 261.6,-47.6 257.47,-53.26"/>
</g>
<!-- Node13 -->
<g id="node11" class="node">
<title>Node13</title>
<g id="a_node11"><a xlink:href="classast_1_1_string_rel_1_1_string_match_rel.html" target="_top" xlink:title=" ">
<polygon fill="white" stroke="black" points="289.5,-0.5 289.5,-19.5 417.5,-19.5 417.5,-0.5 289.5,-0.5"/>
<text text-anchor="middle" x="353.5" y="-7.5" font-family="Helvetica,sans-Serif" font-size="10.00">StringRel.StringMatchRel</text>
</a>
</g>
</g>
<!-- Node1&#45;&gt;Node13 -->
<g id="edge10" class="edge">
<title>Node1&#45;&gt;Node13</title>
<path fill="none" stroke="midnightblue" d="M299.53,-50.38C312.91,-40.62 330.06,-28.11 341.39,-19.83"/>
<polygon fill="midnightblue" stroke="midnightblue" points="297.4,-47.6 291.39,-56.32 301.53,-53.26 297.4,-47.6"/>
</g>
<!-- Node2 -->
<g id="node2" class="node">
<title>Node2</title>
<g id="a_node2"><a xlink:title=" ">
<polygon fill="white" stroke="#bfbfbf" points="245.5,-112.5 245.5,-131.5 313.5,-131.5 313.5,-112.5 245.5,-112.5"/>
<text text-anchor="middle" x="279.5" y="-119.5" font-family="Helvetica,sans-Serif" font-size="10.00">AstRelOper</text>
</a>
</g>
</g>
<!-- Node2&#45;&gt;Node1 -->
<g id="edge1" class="edge">
<title>Node2&#45;&gt;Node1</title>
<path fill="none" stroke="midnightblue" d="M279.5,-101.8C279.5,-92.91 279.5,-82.78 279.5,-75.75"/>
<polygon fill="midnightblue" stroke="midnightblue" points="276,-102.08 279.5,-112.08 283,-102.08 276,-102.08"/>
</g>
<!-- Node3 -->
<g id="node3" class="node">
<title>Node3</title>
<g id="a_node3"><a xlink:href="classast_1_1_ast_oper.html" target="_top" xlink:title=" ">
<polygon fill="white" stroke="black" points="253,-168.5 253,-187.5 306,-187.5 306,-168.5 253,-168.5"/>
<text text-anchor="middle" x="279.5" y="-175.5" font-family="Helvetica,sans-Serif" font-size="10.00">AstOper</text>
</a>
</g>
</g>
<!-- Node3&#45;&gt;Node2 -->
<g id="edge2" class="edge">
<title>Node3&#45;&gt;Node2</title>
<path fill="none" stroke="midnightblue" d="M279.5,-157.8C279.5,-148.91 279.5,-138.78 279.5,-131.75"/>
<polygon fill="midnightblue" stroke="midnightblue" points="276,-158.08 279.5,-168.08 283,-158.08 276,-158.08"/>
</g>
<!-- Node4 -->
<g id="node4" class="node">
<title>Node4</title>
<g id="a_node4"><a xlink:href="classast_1_1_ast_node_branch.html" target="_top" xlink:title="タグなしの順アクセスの子供をもてる抽象構文木のノードのクラス。">
<polygon fill="white" stroke="black" points="175.5,-224.5 175.5,-243.5 261.5,-243.5 261.5,-224.5 175.5,-224.5"/>
<text text-anchor="middle" x="218.5" y="-231.5" font-family="Helvetica,sans-Serif" font-size="10.00">AstNodeBranch</text>
</a>
</g>
</g>
<!-- Node4&#45;&gt;Node3 -->
<g id="edge3" class="edge">
<title>Node4&#45;&gt;Node3</title>
<path fill="none" stroke="midnightblue" d="M235.97,-217.54C246.84,-207.91 260.44,-195.87 269.52,-187.83"/>
<polygon fill="midnightblue" stroke="midnightblue" points="233.47,-215.07 228.3,-224.32 238.11,-220.32 233.47,-215.07"/>
</g>
<!-- Node5 -->
<g id="node5" class="node">
<title>Node5</title>
<g id="a_node5"><a xlink:href="classast_1_1_ast_node.html" target="_top" xlink:title=" ">
<polygon fill="white" stroke="red" points="0,-280.5 0,-299.5 55,-299.5 55,-280.5 0,-280.5"/>
<text text-anchor="middle" x="27.5" y="-287.5" font-family="Helvetica,sans-Serif" font-size="10.00">AstNode</text>
</a>
</g>
</g>
<!-- Node5&#45;&gt;Node4 -->
<g id="edge4" class="edge">
<title>Node5&#45;&gt;Node4</title>
<path fill="none" stroke="midnightblue" d="M64.93,-278.42C100.95,-268.23 154.74,-253.03 188.17,-243.58"/>
<polygon fill="midnightblue" stroke="midnightblue" points="63.94,-275.06 55.27,-281.15 65.85,-281.8 63.94,-275.06"/>
</g>
<!-- Node7 -->
<g id="node6" class="node">
<title>Node7</title>
<g id="a_node6"><a xlink:href="interfaceformat_1_1_x_formattable_1_1_navigatable.html" target="_top" xlink:title="木構造の分岐ノードとして清書可能なオブジェクトのクラス">
<polygon fill="white" stroke="red" points="73.5,-280.5 73.5,-299.5 203.5,-299.5 203.5,-280.5 73.5,-280.5"/>
<text text-anchor="middle" x="138.5" y="-287.5" font-family="Helvetica,sans-Serif" font-size="10.00">XFormattable.Navigatable</text>
</a>
</g>
</g>
<!-- Node7&#45;&gt;Node4 -->
<g id="edge5" class="edge">
<title>Node7&#45;&gt;Node4</title>
<path fill="none" stroke="midnightblue" d="M159.8,-274.62C174.42,-264.76 193.33,-251.99 205.68,-243.65"/>
<polygon fill="midnightblue" stroke="midnightblue" points="157.68,-271.83 151.35,-280.32 161.6,-277.63 157.68,-271.83"/>
</g>
<!-- Node9 -->
<g id="node7" class="node">
<title>Node9</title>
<g id="a_node7"><a xlink:href="interfaceformat_1_1_x_formattable_1_1_typed_formattable.html" target="_top" xlink:title="ノードの型情報をもつ書式出力可能なオブジェクトのインタフェース．">
<polygon fill="white" stroke="red" points="221.5,-280.5 221.5,-299.5 377.5,-299.5 377.5,-280.5 221.5,-280.5"/>
<text text-anchor="middle" x="299.5" y="-287.5" font-family="Helvetica,sans-Serif" font-size="10.00">XFormattable.TypedFormattable</text>
</a>
</g>
</g>
<!-- Node9&#45;&gt;Node4 -->
<g id="edge6" class="edge">
<title>Node9&#45;&gt;Node4</title>
<path fill="none" stroke="midnightblue" d="M277.93,-274.62C263.14,-264.76 243.99,-251.99 231.48,-243.65"/>
<polygon fill="midnightblue" stroke="midnightblue" points="276.22,-277.69 286.49,-280.32 280.11,-271.86 276.22,-277.69"/>
</g>
<!-- Node10 -->
<g id="node8" class="node">
<title>Node10</title>
<g id="a_node8"><a xlink:href="interfacecmd_1_1_generatable_1_1_evaluatable.html" target="_top" xlink:title="評価して値を返すノードのインタフェース．必ずしもコードを生成しなくても良い．">
<polygon fill="white" stroke="black" points="324,-224.5 324,-243.5 447,-243.5 447,-224.5 324,-224.5"/>
<text text-anchor="middle" x="385.5" y="-231.5" font-family="Helvetica,sans-Serif" font-size="10.00">Generatable.Evaluatable</text>
</a>
</g>
</g>
<!-- Node10&#45;&gt;Node3 -->
<g id="edge7" class="edge">
<title>Node10&#45;&gt;Node3</title>
<path fill="none" stroke="midnightblue" d="M359.44,-219.73C339.82,-209.73 313.47,-196.31 296.49,-187.65"/>
<polygon fill="midnightblue" stroke="midnightblue" points="357.97,-222.9 368.47,-224.32 361.15,-216.67 357.97,-222.9"/>
</g>
<!-- Node11 -->
<g id="node9" class="node">
<title>Node11</title>
<g id="a_node9"><a xlink:href="interfacecmd_1_1_generatable.html" target="_top" xlink:title="変換してコードを生成できるノードのインタフェース.">
<polygon fill="white" stroke="black" points="396,-280.5 396,-299.5 465,-299.5 465,-280.5 396,-280.5"/>
<text text-anchor="middle" x="430.5" y="-287.5" font-family="Helvetica,sans-Serif" font-size="10.00">Generatable</text>
</a>
</g>
</g>
<!-- Node11&#45;&gt;Node10 -->
<g id="edge8" class="edge">
<title>Node11&#45;&gt;Node10</title>
<path fill="none" stroke="midnightblue" d="M416.45,-272.14C408.61,-262.74 399.17,-251.4 392.79,-243.75"/>
<polygon fill="midnightblue" stroke="midnightblue" points="413.98,-274.64 423.07,-280.08 419.36,-270.16 413.98,-274.64"/>
</g>
</g>
</svg>
