<?xml version="1.0" encoding="UTF-8" standalone="no"?>
<!DOCTYPE svg PUBLIC "-//W3C//DTD SVG 1.1//EN"
 "http://www.w3.org/Graphics/SVG/1.1/DTD/svg11.dtd">
<!-- Generated by graphviz version 2.47.1 (20210417.1919)
 -->
<!-- Title: Entry Pages: 1 -->
<svg width="872pt" height="615pt"
 viewBox="0.00 0.00 872.00 614.50" xmlns="http://www.w3.org/2000/svg" xmlns:xlink="http://www.w3.org/1999/xlink">
<g id="graph0" class="graph" transform="scale(1 1) rotate(0) translate(4 610.5)">
<title>Entry</title>
<polygon fill="white" stroke="transparent" points="-4,4 -4,-610.5 868,-610.5 868,4 -4,4"/>
<!-- Node1 -->
<g id="node1" class="node">
<title>Node1</title>
<g id="a_node1"><a xlink:title="フレームスタックのレコード（セル）．">
<polygon fill="#bfbfbf" stroke="black" points="824,-528.5 824,-547.5 864,-547.5 864,-528.5 824,-528.5"/>
<text text-anchor="middle" x="844" y="-535.5" font-family="Helvetica,sans-Serif" font-size="10.00">Entry</text>
</a>
</g>
</g>
<!-- Node2 -->
<g id="node2" class="node">
<title>Node2</title>
<g id="a_node2"><a xlink:title=" ">
<polygon fill="white" stroke="#bfbfbf" points="607.5,-576 607.5,-606 730.5,-606 730.5,-576 607.5,-576"/>
<text text-anchor="start" x="615.5" y="-594" font-family="Helvetica,sans-Serif" font-size="10.00">static Generator&lt; frame.</text>
<text text-anchor="middle" x="669" y="-583" font-family="Helvetica,sans-Serif" font-size="10.00">Entry &gt;</text>
</a>
</g>
</g>
<!-- Node2&#45;&gt;Node1 -->
<g id="edge1" class="edge">
<title>Node2&#45;&gt;Node1</title>
<path fill="none" stroke="#9a32cd" stroke-dasharray="5,2" d="M740.61,-580.16C762.07,-575.61 785.41,-569.38 806,-561 814.41,-557.58 823.06,-552.31 829.89,-547.68"/>
<polygon fill="#9a32cd" stroke="#9a32cd" points="739.68,-576.77 730.57,-582.19 741.07,-583.63 739.68,-576.77"/>
<text text-anchor="middle" x="784" y="-579" font-family="Helvetica,sans-Serif" font-size="10.00"> generator</text>
</g>
<!-- Node3 -->
<g id="node3" class="node">
<title>Node3</title>
<g id="a_node3"><a xlink:title=" ">
<polygon fill="white" stroke="#bfbfbf" points="23,-478.5 23,-497.5 52,-497.5 52,-478.5 23,-478.5"/>
<text text-anchor="middle" x="37.5" y="-485.5" font-family="Helvetica,sans-Serif" font-size="10.00">int</text>
</a>
</g>
</g>
<!-- Node3&#45;&gt;Node1 -->
<g id="edge2" class="edge">
<title>Node3&#45;&gt;Node1</title>
<path fill="none" stroke="#9a32cd" stroke-dasharray="5,2" d="M61.63,-496.51C108.17,-512.85 216.72,-547 311,-547 311,-547 311,-547 670,-547 725.94,-547 791.92,-542.25 823.82,-539.65"/>
<polygon fill="#9a32cd" stroke="#9a32cd" points="62.76,-493.2 52.17,-493.13 60.41,-499.79 62.76,-493.2"/>
<text text-anchor="middle" x="529.5" y="-561" font-family="Helvetica,sans-Serif" font-size="10.00"> UNDEF</text>
<text text-anchor="middle" x="529.5" y="-550" font-family="Helvetica,sans-Serif" font-size="10.00">val</text>
</g>
<!-- Node4 -->
<g id="node4" class="node">
<title>Node4</title>
<g id="a_node4"><a xlink:href="classmachine_1_1_var.html" target="_top" xlink:title="フレーム中の変数参照オブジェクトref = (XType type, int vid)">
<polygon fill="white" stroke="black" points="653.5,-495.5 653.5,-514.5 684.5,-514.5 684.5,-495.5 653.5,-495.5"/>
<text text-anchor="middle" x="669" y="-502.5" font-family="Helvetica,sans-Serif" font-size="10.00">Var</text>
</a>
</g>
</g>
<!-- Node3&#45;&gt;Node4 -->
<g id="edge24" class="edge">
<title>Node3&#45;&gt;Node4</title>
<path fill="none" stroke="#9a32cd" stroke-dasharray="5,2" d="M62.24,-488.64C165.13,-491.42 570.95,-502.38 653.36,-504.6"/>
<polygon fill="#9a32cd" stroke="#9a32cd" points="62.32,-485.14 52.23,-488.37 62.14,-492.14 62.32,-485.14"/>
<text text-anchor="middle" x="446" y="-504" font-family="Helvetica,sans-Serif" font-size="10.00"> UNDEF</text>
</g>
<!-- Node6 -->
<g id="node6" class="node">
<title>Node6</title>
<g id="a_node6"><a xlink:href="classast_1_1_ast_node_base.html" target="_top" xlink:title=" ">
<polygon fill="white" stroke="black" points="273.5,-152.5 273.5,-171.5 350.5,-171.5 350.5,-152.5 273.5,-152.5"/>
<text text-anchor="middle" x="312" y="-159.5" font-family="Helvetica,sans-Serif" font-size="10.00">AstNodeBase</text>
</a>
</g>
</g>
<!-- Node3&#45;&gt;Node6 -->
<g id="edge9" class="edge">
<title>Node3&#45;&gt;Node6</title>
<path fill="none" stroke="#9a32cd" stroke-dasharray="5,2" d="M49.79,-470.16C59.54,-456.25 74.9,-437.58 93,-427 141.32,-398.76 179.16,-442.14 216,-400 248.14,-363.24 202.34,-218.18 234,-181 243.64,-169.68 258.85,-164.53 273.22,-162.36"/>
<polygon fill="#9a32cd" stroke="#9a32cd" points="46.88,-468.22 44.22,-478.47 52.7,-472.11 46.88,-468.22"/>
<text text-anchor="middle" x="154.5" y="-441" font-family="Helvetica,sans-Serif" font-size="10.00"> BITMASK_PRINT_WIDTH</text>
<text text-anchor="middle" x="154.5" y="-430" font-family="Helvetica,sans-Serif" font-size="10.00">UNDEF</text>
</g>
<!-- Node18 -->
<g id="node18" class="node">
<title>Node18</title>
<g id="a_node18"><a xlink:href="classformat_1_1_style.html" target="_top" xlink:title="ノードの表示スタイルに関するプロパティのクラス.">
<polygon fill="white" stroke="black" points="292.5,-302.5 292.5,-321.5 331.5,-321.5 331.5,-302.5 292.5,-302.5"/>
<text text-anchor="middle" x="312" y="-309.5" font-family="Helvetica,sans-Serif" font-size="10.00">Style</text>
</a>
</g>
</g>
<!-- Node3&#45;&gt;Node18 -->
<g id="edge22" class="edge">
<title>Node3&#45;&gt;Node18</title>
<path fill="none" stroke="#9a32cd" stroke-dasharray="5,2" d="M62.32,-482.58C71.85,-480.46 82.93,-478.05 93,-476 147.5,-464.91 169.52,-483.54 216,-453 267.06,-419.45 297.66,-347.97 307.5,-321.83"/>
<polygon fill="#9a32cd" stroke="#9a32cd" points="61.35,-479.21 52.36,-484.82 62.89,-486.04 61.35,-479.21"/>
<text text-anchor="middle" x="154.5" y="-479" font-family="Helvetica,sans-Serif" font-size="10.00"> pref</text>
</g>
<!-- Node4&#45;&gt;Node1 -->
<g id="edge3" class="edge">
<title>Node4&#45;&gt;Node1</title>
<path fill="none" stroke="#9a32cd" stroke-dasharray="5,2" d="M694.86,-505.99C722.44,-507.58 768.07,-511.65 806,-522 811.94,-523.62 818.17,-526.02 823.79,-528.47"/>
<polygon fill="#9a32cd" stroke="#9a32cd" points="694.72,-502.48 684.55,-505.47 694.36,-509.47 694.72,-502.48"/>
<text text-anchor="middle" x="784" y="-525" font-family="Helvetica,sans-Serif" font-size="10.00"> var</text>
</g>
<!-- Node5 -->
<g id="node5" class="node">
<title>Node5</title>
<g id="a_node5"><a xlink:href="classast_1_1_ast_node.html" target="_top" xlink:title="タグなしの順アクセスの子供をもてる抽象構文木のノードのクラス。">
<polygon fill="white" stroke="black" points="502,-134.5 502,-153.5 557,-153.5 557,-134.5 502,-134.5"/>
<text text-anchor="middle" x="529.5" y="-141.5" font-family="Helvetica,sans-Serif" font-size="10.00">AstNode</text>
</a>
</g>
</g>
<!-- Node5&#45;&gt;Node4 -->
<g id="edge4" class="edge">
<title>Node5&#45;&gt;Node4</title>
<path fill="none" stroke="midnightblue" d="M531.45,-163.78C535,-229.41 549.66,-438.55 594,-486 609.3,-502.38 636.65,-505.41 653.47,-505.58"/>
<polygon fill="midnightblue" stroke="midnightblue" points="534.93,-163.38 530.93,-153.57 527.94,-163.74 534.93,-163.38"/>
</g>
<!-- Node6&#45;&gt;Node5 -->
<g id="edge5" class="edge">
<title>Node6&#45;&gt;Node5</title>
<path fill="none" stroke="midnightblue" d="M360.59,-158.02C404.05,-154.39 466.73,-149.16 501.92,-146.22"/>
<polygon fill="midnightblue" stroke="midnightblue" points="360.21,-154.54 350.54,-158.86 360.79,-161.52 360.21,-154.54"/>
</g>
<!-- Node7 -->
<g id="node7" class="node">
<title>Node7</title>
<g id="a_node7"><a xlink:title=" ">
<polygon fill="white" stroke="#bfbfbf" points="16.5,-212.5 16.5,-231.5 58.5,-231.5 58.5,-212.5 16.5,-212.5"/>
<text text-anchor="middle" x="37.5" y="-219.5" font-family="Helvetica,sans-Serif" font-size="10.00">String</text>
</a>
</g>
</g>
<!-- Node7&#45;&gt;Node6 -->
<g id="edge6" class="edge">
<title>Node7&#45;&gt;Node6</title>
<path fill="none" stroke="#9a32cd" stroke-dasharray="5,2" d="M64.23,-207.84C73.12,-203.46 83.29,-199 93,-196 125.94,-185.81 220.33,-173.14 273.48,-166.52"/>
<polygon fill="#9a32cd" stroke="#9a32cd" points="62.47,-204.81 55.17,-212.49 65.66,-211.04 62.47,-204.81"/>
<text text-anchor="middle" x="154.5" y="-210" font-family="Helvetica,sans-Serif" font-size="10.00"> MOD_AST</text>
<text text-anchor="middle" x="154.5" y="-199" font-family="Helvetica,sans-Serif" font-size="10.00">mod_</text>
</g>
<!-- Node7&#45;&gt;Node18 -->
<g id="edge21" class="edge">
<title>Node7&#45;&gt;Node18</title>
<path fill="none" stroke="#9a32cd" stroke-dasharray="5,2" d="M69.17,-220.46C105.5,-219.71 167.24,-221.85 216,-241 251.84,-255.08 286.01,-286.47 301.83,-302.37"/>
<polygon fill="#9a32cd" stroke="#9a32cd" points="68.64,-216.97 58.75,-220.77 68.85,-223.97 68.64,-216.97"/>
<text text-anchor="middle" x="154.5" y="-321" font-family="Helvetica,sans-Serif" font-size="10.00"> childLPAD</text>
<text text-anchor="middle" x="154.5" y="-310" font-family="Helvetica,sans-Serif" font-size="10.00">childRPAD</text>
<text text-anchor="middle" x="154.5" y="-299" font-family="Helvetica,sans-Serif" font-size="10.00">name</text>
<text text-anchor="middle" x="154.5" y="-288" font-family="Helvetica,sans-Serif" font-size="10.00">operSTR</text>
<text text-anchor="middle" x="154.5" y="-277" font-family="Helvetica,sans-Serif" font-size="10.00">parenLPAD</text>
<text text-anchor="middle" x="154.5" y="-266" font-family="Helvetica,sans-Serif" font-size="10.00">parenLPAR</text>
<text text-anchor="middle" x="154.5" y="-255" font-family="Helvetica,sans-Serif" font-size="10.00">parenRPAD</text>
<text text-anchor="middle" x="154.5" y="-244" font-family="Helvetica,sans-Serif" font-size="10.00">parenRPAR</text>
</g>
<!-- Node8 -->
<g id="node8" class="node">
<title>Node8</title>
<g id="a_node8"><a xlink:title=" ">
<polygon fill="white" stroke="#bfbfbf" points="5,-155.5 5,-174.5 70,-174.5 70,-155.5 5,-155.5"/>
<text text-anchor="middle" x="37.5" y="-162.5" font-family="Helvetica,sans-Serif" font-size="10.00">TraceLevel</text>
</a>
</g>
</g>
<!-- Node8&#45;&gt;Node6 -->
<g id="edge7" class="edge">
<title>Node8&#45;&gt;Node6</title>
<path fill="none" stroke="#9a32cd" stroke-dasharray="5,2" d="M80.19,-162.47C84.51,-162.28 88.84,-162.11 93,-162 156.18,-160.26 229.7,-160.79 273.18,-161.37"/>
<polygon fill="#9a32cd" stroke="#9a32cd" points="80,-158.97 70.19,-162.96 80.35,-165.97 80,-158.97"/>
<text text-anchor="middle" x="154.5" y="-165" font-family="Helvetica,sans-Serif" font-size="10.00"> LOG</text>
</g>
<!-- Node9 -->
<g id="node9" class="node">
<title>Node9</title>
<g id="a_node9"><a xlink:title=" ">
<polygon fill="white" stroke="#bfbfbf" points="1,-117.5 1,-136.5 74,-136.5 74,-117.5 1,-117.5"/>
<text text-anchor="middle" x="37.5" y="-124.5" font-family="Helvetica,sans-Serif" font-size="10.00">static Report</text>
</a>
</g>
</g>
<!-- Node9&#45;&gt;Node6 -->
<g id="edge8" class="edge">
<title>Node9&#45;&gt;Node6</title>
<path fill="none" stroke="#9a32cd" stroke-dasharray="5,2" d="M84.44,-131.15C120.33,-134.58 171.43,-139.87 216,-146 234.89,-148.6 255.79,-152.06 273.17,-155.09"/>
<polygon fill="#9a32cd" stroke="#9a32cd" points="84.56,-127.65 74.27,-130.19 83.9,-134.62 84.56,-127.65"/>
<text text-anchor="middle" x="154.5" y="-149" font-family="Helvetica,sans-Serif" font-size="10.00"> repo</text>
</g>
<!-- Node10 -->
<g id="node10" class="node">
<title>Node10</title>
<g id="a_node10"><a xlink:href="interfacetype_1_1_typable.html" target="_top" xlink:title="抽象ノードがもつ関数型のインタフェース">
<polygon fill="white" stroke="black" points="12.5,-79.5 12.5,-98.5 62.5,-98.5 62.5,-79.5 12.5,-79.5"/>
<text text-anchor="middle" x="37.5" y="-86.5" font-family="Helvetica,sans-Serif" font-size="10.00">Typable</text>
</a>
</g>
</g>
<!-- Node10&#45;&gt;Node6 -->
<g id="edge10" class="edge">
<title>Node10&#45;&gt;Node6</title>
<path fill="none" stroke="#9a32cd" stroke-dasharray="5,2" d="M72.62,-87.11C110.45,-86.63 171.96,-90.73 216,-118 227.64,-125.21 222.66,-135.33 234,-143 245.52,-150.79 259.94,-155.39 273.17,-158.1"/>
<polygon fill="#9a32cd" stroke="#9a32cd" points="72.52,-83.62 62.61,-87.36 72.69,-90.61 72.52,-83.62"/>
<text text-anchor="middle" x="154.5" y="-121" font-family="Helvetica,sans-Serif" font-size="10.00"> typing</text>
</g>
<!-- Node11 -->
<g id="node11" class="node">
<title>Node11</title>
<g id="a_node11"><a xlink:title=" ">
<polygon fill="white" stroke="#bfbfbf" points="12.5,-358.5 12.5,-377.5 62.5,-377.5 62.5,-358.5 12.5,-358.5"/>
<text text-anchor="middle" x="37.5" y="-365.5" font-family="Helvetica,sans-Serif" font-size="10.00">boolean</text>
</a>
</g>
</g>
<!-- Node11&#45;&gt;Node6 -->
<g id="edge11" class="edge">
<title>Node11&#45;&gt;Node6</title>
<path fill="none" stroke="#9a32cd" stroke-dasharray="5,2" d="M72.32,-355.96C79.12,-353.79 86.24,-351.68 93,-350 146.81,-336.6 177.74,-369.15 216,-329 261.71,-281.03 190.06,-230.6 234,-181 243.86,-169.87 259.11,-164.75 273.44,-162.55"/>
<polygon fill="#9a32cd" stroke="#9a32cd" points="71.08,-352.68 62.69,-359.15 73.28,-359.33 71.08,-352.68"/>
<text text-anchor="middle" x="154.5" y="-353" font-family="Helvetica,sans-Serif" font-size="10.00"> DEBUG_REPO</text>
</g>
<!-- Node11&#45;&gt;Node18 -->
<g id="edge23" class="edge">
<title>Node11&#45;&gt;Node18</title>
<path fill="none" stroke="#9a32cd" stroke-dasharray="5,2" d="M72.59,-371.63C108.82,-374.43 167.47,-375.93 216,-363 247.65,-354.56 280.42,-333.83 297.99,-321.55"/>
<polygon fill="#9a32cd" stroke="#9a32cd" points="72.8,-368.13 62.54,-370.77 72.21,-375.11 72.8,-368.13"/>
<text text-anchor="middle" x="154.5" y="-388" font-family="Helvetica,sans-Serif" font-size="10.00"> preoperSupress</text>
<text text-anchor="middle" x="154.5" y="-377" font-family="Helvetica,sans-Serif" font-size="10.00">toInline</text>
</g>
<!-- Node12 -->
<g id="node12" class="node">
<title>Node12</title>
<g id="a_node12"><a xlink:href="interfaceast_1_1_node.html" target="_top" xlink:title=" ">
<polygon fill="white" stroke="black" points="292,-0.5 292,-19.5 332,-19.5 332,-0.5 292,-0.5"/>
<text text-anchor="middle" x="312" y="-7.5" font-family="Helvetica,sans-Serif" font-size="10.00">Node</text>
</a>
</g>
</g>
<!-- Node12&#45;&gt;Node5 -->
<g id="edge12" class="edge">
<title>Node12&#45;&gt;Node5</title>
<path fill="none" stroke="midnightblue" d="M342.13,-11.45C379.11,-14.74 443.02,-25.41 484,-60 508.09,-80.33 521,-117.08 526.01,-134.44"/>
<polygon fill="midnightblue" stroke="midnightblue" points="342.25,-7.95 332.01,-10.68 341.72,-14.93 342.25,-7.95"/>
</g>
<!-- Node13 -->
<g id="node13" class="node">
<title>Node13</title>
<g id="a_node13"><a xlink:href="interfaceformat_1_1_x_formattable.html" target="_top" xlink:title="入れ子フォーマット出力可能なオブジェクトのインタフェース。">
<polygon fill="white" stroke="black" points="0,-25.5 0,-44.5 75,-44.5 75,-25.5 0,-25.5"/>
<text text-anchor="middle" x="37.5" y="-32.5" font-family="Helvetica,sans-Serif" font-size="10.00">XFormattable</text>
</a>
</g>
</g>
<!-- Node13&#45;&gt;Node12 -->
<g id="edge13" class="edge">
<title>Node13&#45;&gt;Node12</title>
<path fill="none" stroke="midnightblue" d="M84.92,-25.19C87.65,-24.75 90.36,-24.35 93,-24 166.13,-14.32 253.97,-11.27 291.96,-10.36"/>
<polygon fill="midnightblue" stroke="midnightblue" points="84.28,-21.75 75.03,-26.92 85.48,-28.65 84.28,-21.75"/>
</g>
<!-- Node14 -->
<g id="node14" class="node">
<title>Node14</title>
<g id="a_node14"><a xlink:href="interfaceformat_1_1_x_formattable_1_1_navigatable.html" target="_top" xlink:title="木構造の分岐ノードとして清書可能なオブジェクトのクラス">
<polygon fill="white" stroke="black" points="247,-114.5 247,-133.5 377,-133.5 377,-114.5 247,-114.5"/>
<text text-anchor="middle" x="312" y="-121.5" font-family="Helvetica,sans-Serif" font-size="10.00">XFormattable.Navigatable</text>
</a>
</g>
</g>
<!-- Node13&#45;&gt;Node14 -->
<g id="edge15" class="edge">
<title>Node13&#45;&gt;Node14</title>
<path fill="none" stroke="midnightblue" d="M84.85,-44.57C129.8,-54.41 194.3,-70.22 216,-84 226.38,-90.59 223.53,-98.55 234,-105 240.33,-108.9 247.42,-112 254.66,-114.46"/>
<polygon fill="midnightblue" stroke="midnightblue" points="85.53,-41.13 75.01,-42.44 84.05,-47.97 85.53,-41.13"/>
</g>
<!-- Node15 -->
<g id="node15" class="node">
<title>Node15</title>
<g id="a_node15"><a xlink:href="interfaceformat_1_1_x_formattable_1_1_typed_formattable.html" target="_top" xlink:title="ノードの型情報をもつ書式出力可能なオブジェクトのインタフェース．">
<polygon fill="white" stroke="black" points="234,-76.5 234,-95.5 390,-95.5 390,-76.5 234,-76.5"/>
<text text-anchor="middle" x="312" y="-83.5" font-family="Helvetica,sans-Serif" font-size="10.00">XFormattable.TypedFormattable</text>
</a>
</g>
</g>
<!-- Node13&#45;&gt;Node15 -->
<g id="edge17" class="edge">
<title>Node13&#45;&gt;Node15</title>
<path fill="none" stroke="midnightblue" d="M85.07,-30.11C122.22,-28.18 174.69,-29.95 216,-49 226.27,-53.74 224.15,-61.44 234,-67 240.84,-70.86 248.44,-73.94 256.14,-76.4"/>
<polygon fill="midnightblue" stroke="midnightblue" points="84.78,-26.62 75.02,-30.74 85.22,-33.61 84.78,-26.62"/>
</g>
<!-- Node14&#45;&gt;Node5 -->
<g id="edge14" class="edge">
<title>Node14&#45;&gt;Node5</title>
<path fill="none" stroke="midnightblue" d="M387.27,-130.89C426.98,-134.58 473.43,-138.89 501.9,-141.53"/>
<polygon fill="midnightblue" stroke="midnightblue" points="387.35,-127.39 377.07,-129.95 386.71,-134.36 387.35,-127.39"/>
</g>
<!-- Node15&#45;&gt;Node5 -->
<g id="edge16" class="edge">
<title>Node15&#45;&gt;Node5</title>
<path fill="none" stroke="midnightblue" d="M362.69,-97.93C396.93,-106.37 443.4,-118.22 484,-130 489.76,-131.67 495.9,-133.54 501.73,-135.37"/>
<polygon fill="midnightblue" stroke="midnightblue" points="363.47,-94.52 352.92,-95.54 361.8,-101.32 363.47,-94.52"/>
</g>
<!-- Node16 -->
<g id="node16" class="node">
<title>Node16</title>
<g id="a_node16"><a xlink:title=" ">
<polygon fill="white" stroke="#bfbfbf" points="267,-38.5 267,-57.5 357,-57.5 357,-38.5 267,-38.5"/>
<text text-anchor="middle" x="312" y="-45.5" font-family="Helvetica,sans-Serif" font-size="10.00">List&lt; ast.Node &gt;</text>
</a>
</g>
</g>
<!-- Node16&#45;&gt;Node5 -->
<g id="edge18" class="edge">
<title>Node16&#45;&gt;Node5</title>
<path fill="none" stroke="#9a32cd" stroke-dasharray="5,2" d="M367.43,-54.66C402.77,-60.9 448.66,-72.77 484,-95 500.34,-105.28 514.4,-123.17 522.13,-134.25"/>
<polygon fill="#9a32cd" stroke="#9a32cd" points="367.74,-51.16 357.3,-52.97 366.59,-58.06 367.74,-51.16"/>
<text text-anchor="middle" x="446" y="-98" font-family="Helvetica,sans-Serif" font-size="10.00"> children</text>
</g>
<!-- Node17 -->
<g id="node17" class="node">
<title>Node17</title>
<g id="a_node17"><a xlink:title=" ">
<polygon fill="white" stroke="#bfbfbf" points="286,-190.5 286,-209.5 338,-209.5 338,-190.5 286,-190.5"/>
<text text-anchor="middle" x="312" y="-197.5" font-family="Helvetica,sans-Serif" font-size="10.00">Boolean</text>
</a>
</g>
</g>
<!-- Node17&#45;&gt;Node5 -->
<g id="edge19" class="edge">
<title>Node17&#45;&gt;Node5</title>
<path fill="none" stroke="#9a32cd" stroke-dasharray="5,2" d="M348.33,-195.29C383.36,-190.04 438.27,-180.23 484,-165 493.08,-161.98 502.73,-157.58 510.72,-153.59"/>
<polygon fill="#9a32cd" stroke="#9a32cd" points="347.52,-191.87 338.12,-196.78 348.52,-198.8 347.52,-191.87"/>
<text text-anchor="middle" x="446" y="-188" font-family="Helvetica,sans-Serif" font-size="10.00"> DEBUG_CHILD</text>
</g>
<!-- Node18&#45;&gt;Node5 -->
<g id="edge20" class="edge">
<title>Node18&#45;&gt;Node5</title>
<path fill="none" stroke="#9a32cd" stroke-dasharray="5,2" d="M340.38,-297.68C375.81,-278.38 438.39,-241.61 484,-200 499.6,-185.77 514.1,-165.75 522.09,-153.9"/>
<polygon fill="#9a32cd" stroke="#9a32cd" points="338.71,-294.61 331.56,-302.43 342.03,-300.77 338.71,-294.61"/>
<text text-anchor="middle" x="446" y="-261" font-family="Helvetica,sans-Serif" font-size="10.00"> sty</text>
</g>
<!-- Node19 -->
<g id="node19" class="node">
<title>Node19</title>
<g id="a_node19"><a xlink:title=" ">
<polygon fill="white" stroke="#bfbfbf" points="594,-457.5 594,-476.5 744,-476.5 744,-457.5 594,-457.5"/>
<text text-anchor="middle" x="669" y="-464.5" font-family="Helvetica,sans-Serif" font-size="10.00">static Resetter&lt; frame.Entry &gt;</text>
</a>
</g>
</g>
<!-- Node19&#45;&gt;Node1 -->
<g id="edge25" class="edge">
<title>Node19&#45;&gt;Node1</title>
<path fill="none" stroke="#9a32cd" stroke-dasharray="5,2" d="M754.1,-478.76C771.98,-483.42 790.21,-489.93 806,-499 818.79,-506.35 829.88,-519.48 836.51,-528.46"/>
<polygon fill="#9a32cd" stroke="#9a32cd" points="754.76,-475.32 744.22,-476.36 753.11,-482.12 754.76,-475.32"/>
<text text-anchor="middle" x="784" y="-502" font-family="Helvetica,sans-Serif" font-size="10.00"> resetter</text>
</g>
</g>
</svg>
