<?xml version="1.0" encoding="UTF-8" standalone="no"?>
<!DOCTYPE svg PUBLIC "-//W3C//DTD SVG 1.1//EN"
 "http://www.w3.org/Graphics/SVG/1.1/DTD/svg11.dtd">
<!-- Generated by graphviz version 2.47.0 (20210316.0004)
 -->
<!-- Title: addAttrName Pages: 1 -->
<svg width="563pt" height="102pt"
 viewBox="0.00 0.00 563.00 102.00" xmlns="http://www.w3.org/2000/svg" xmlns:xlink="http://www.w3.org/1999/xlink">
<g id="graph0" class="graph" transform="scale(1 1) rotate(0) translate(4 98)">
<title>addAttrName</title>
<polygon fill="white" stroke="transparent" points="-4,4 -4,-98 559,-98 559,4 -4,4"/>
<!-- Node1 -->
<g id="node1" class="node">
<title>Node1</title>
<g id="a_node1"><a xlink:title="属性名を追加する。">
<polygon fill="#bfbfbf" stroke="black" points="0,-37.5 0,-56.5 74,-56.5 74,-37.5 0,-37.5"/>
<text text-anchor="middle" x="37" y="-44.5" font-family="Helvetica,sans-Serif" font-size="10.00">addAttrName</text>
</a>
</g>
</g>
<!-- Node2 -->
<g id="node2" class="node">
<title>Node2</title>
<g id="a_node2"><a xlink:href="classutil_1_1_foldable_string_buf.html#a186579e7cd763dada34bcdc6c8f8f209" target="_top" xlink:title="空白を出力する.">
<polygon fill="white" stroke="black" points="110,-56.5 110,-75.5 249,-75.5 249,-56.5 110,-56.5"/>
<text text-anchor="middle" x="179.5" y="-63.5" font-family="Helvetica,sans-Serif" font-size="10.00">util.FoldableStringBuf.space</text>
</a>
</g>
</g>
<!-- Node1&#45;&gt;Node2 -->
<g id="edge1" class="edge">
<title>Node1&#45;&gt;Node2</title>
<path fill="none" stroke="midnightblue" d="M74.18,-51.89C82.16,-52.97 90.91,-54.15 99.84,-55.36"/>
<polygon fill="midnightblue" stroke="midnightblue" points="99.59,-58.86 109.97,-56.73 100.53,-51.92 99.59,-58.86"/>
</g>
<!-- Node7 -->
<g id="node7" class="node">
<title>Node7</title>
<g id="a_node7"><a xlink:href="classutil_1_1_foldable_string_buf.html#a2b018a5847ca3b5c67456ad721e23ba4" target="_top" xlink:title="文字列を出力する">
<polygon fill="white" stroke="black" points="117.5,-18.5 117.5,-37.5 241.5,-37.5 241.5,-18.5 117.5,-18.5"/>
<text text-anchor="middle" x="179.5" y="-25.5" font-family="Helvetica,sans-Serif" font-size="10.00">util.FoldableStringBuf.str</text>
</a>
</g>
</g>
<!-- Node1&#45;&gt;Node7 -->
<g id="edge9" class="edge">
<title>Node1&#45;&gt;Node7</title>
<path fill="none" stroke="midnightblue" d="M74.18,-42.11C84.37,-40.73 95.82,-39.18 107.3,-37.63"/>
<polygon fill="midnightblue" stroke="midnightblue" points="107.93,-41.08 117.37,-36.27 106.99,-34.14 107.93,-41.08"/>
</g>
<!-- Node3 -->
<g id="node3" class="node">
<title>Node3</title>
<g id="a_node3"><a xlink:href="classutil_1_1_string_buf.html#a2dc9e4579aee8516f9402d5ab3eac5eb" target="_top" xlink:title="バッファの末尾に文字列{str} を連結する.">
<polygon fill="white" stroke="black" points="288.5,-56.5 288.5,-75.5 395.5,-75.5 395.5,-56.5 288.5,-56.5"/>
<text text-anchor="middle" x="342" y="-63.5" font-family="Helvetica,sans-Serif" font-size="10.00">util.StringBuf.append</text>
</a>
</g>
</g>
<!-- Node2&#45;&gt;Node3 -->
<g id="edge2" class="edge">
<title>Node2&#45;&gt;Node3</title>
<path fill="none" stroke="midnightblue" d="M249.03,-66C258.67,-66 268.53,-66 278.06,-66"/>
<polygon fill="midnightblue" stroke="midnightblue" points="278.23,-69.5 288.23,-66 278.23,-62.5 278.23,-69.5"/>
</g>
<!-- Node5 -->
<g id="node5" class="node">
<title>Node5</title>
<g id="a_node5"><a xlink:href="classutil_1_1_trace_level.html#a163bdc94e3e530c147c8fcd59f9f01f4" target="_top" xlink:title="モジュールnameの現在のトレースレベルが{level}以上かを返す。モジュールのレベルが登録されていなければ、全体のトレースレベルを返す。">
<polygon fill="white" stroke="black" points="285,-18.5 285,-37.5 399,-37.5 399,-18.5 285,-18.5"/>
<text text-anchor="middle" x="342" y="-25.5" font-family="Helvetica,sans-Serif" font-size="10.00">util.TraceLevel.LEVEL</text>
</a>
</g>
</g>
<!-- Node2&#45;&gt;Node5 -->
<g id="edge6" class="edge">
<title>Node2&#45;&gt;Node5</title>
<path fill="none" stroke="midnightblue" d="M221,-56.41C242.18,-51.4 268.3,-45.21 290.76,-39.89"/>
<polygon fill="midnightblue" stroke="midnightblue" points="291.87,-43.23 300.79,-37.52 290.25,-36.42 291.87,-43.23"/>
</g>
<!-- Node3&#45;&gt;Node3 -->
<g id="edge3" class="edge">
<title>Node3&#45;&gt;Node3</title>
<path fill="none" stroke="midnightblue" d="M318.57,-75.76C307.18,-84.57 314.98,-94 342,-94 359.73,-94 369.19,-89.94 370.37,-84.65"/>
<polygon fill="midnightblue" stroke="midnightblue" points="373.34,-82.8 365.43,-75.76 367.23,-86.2 373.34,-82.8"/>
</g>
<!-- Node4 -->
<g id="node4" class="node">
<title>Node4</title>
<g id="a_node4"><a xlink:href="classutil_1_1_string_buf.html#a9ea51ad122f068c0e30e6a7a17f57685" target="_top" xlink:title="バッファの末尾に文字列{val} を追加する. メソッド {append} に同じ.">
<polygon fill="white" stroke="black" points="451.5,-56.5 451.5,-75.5 538.5,-75.5 538.5,-56.5 451.5,-56.5"/>
<text text-anchor="middle" x="495" y="-63.5" font-family="Helvetica,sans-Serif" font-size="10.00">util.StringBuf.str</text>
</a>
</g>
</g>
<!-- Node3&#45;&gt;Node4 -->
<g id="edge4" class="edge">
<title>Node3&#45;&gt;Node4</title>
<path fill="none" stroke="midnightblue" d="M395.81,-59.53C410.46,-59.16 426.36,-59.16 441.01,-59.52"/>
<polygon fill="midnightblue" stroke="midnightblue" points="441.32,-63.04 451.43,-59.86 441.55,-56.04 441.32,-63.04"/>
</g>
<!-- Node4&#45;&gt;Node3 -->
<g id="edge5" class="edge">
<title>Node4&#45;&gt;Node3</title>
<path fill="none" stroke="midnightblue" d="M451.43,-72.14C437.39,-72.69 421.46,-72.87 406.22,-72.67"/>
<polygon fill="midnightblue" stroke="midnightblue" points="405.88,-69.16 395.81,-72.47 405.74,-76.16 405.88,-69.16"/>
</g>
<!-- Node6 -->
<g id="node6" class="node">
<title>Node6</title>
<g id="a_node6"><a xlink:href="classutil_1_1_trace_level.html#ac3ccfd677fa662c8af08cebe99eafebf" target="_top" xlink:title="現在のプログラムでのトレースレベル（出力の活性化レベル）を返す.">
<polygon fill="white" stroke="black" points="435,-0.5 435,-19.5 555,-19.5 555,-0.5 435,-0.5"/>
<text text-anchor="middle" x="495" y="-7.5" font-family="Helvetica,sans-Serif" font-size="10.00">util.TraceLevel.getLevel</text>
</a>
</g>
</g>
<!-- Node5&#45;&gt;Node6 -->
<g id="edge7" class="edge">
<title>Node5&#45;&gt;Node6</title>
<path fill="none" stroke="midnightblue" d="M399.23,-21.3C407.6,-20.3 416.32,-19.26 424.92,-18.23"/>
<polygon fill="midnightblue" stroke="midnightblue" points="425.43,-21.7 434.95,-17.04 424.6,-14.75 425.43,-21.7"/>
</g>
<!-- Node6&#45;&gt;Node6 -->
<g id="edge8" class="edge">
<title>Node6&#45;&gt;Node6</title>
<path fill="none" stroke="midnightblue" d="M471.57,-19.76C460.18,-28.57 467.98,-38 495,-38 512.73,-38 522.19,-33.94 523.37,-28.65"/>
<polygon fill="midnightblue" stroke="midnightblue" points="526.34,-26.8 518.43,-19.76 520.23,-30.2 526.34,-26.8"/>
</g>
<!-- Node7&#45;&gt;Node3 -->
<g id="edge10" class="edge">
<title>Node7&#45;&gt;Node3</title>
<path fill="none" stroke="midnightblue" d="M221,-37.59C242.18,-42.6 268.3,-48.79 290.76,-54.11"/>
<polygon fill="midnightblue" stroke="midnightblue" points="290.25,-57.58 300.79,-56.48 291.87,-50.77 290.25,-57.58"/>
</g>
<!-- Node7&#45;&gt;Node5 -->
<g id="edge11" class="edge">
<title>Node7&#45;&gt;Node5</title>
<path fill="none" stroke="midnightblue" d="M241.64,-28C252.38,-28 263.6,-28 274.48,-28"/>
<polygon fill="midnightblue" stroke="midnightblue" points="274.78,-31.5 284.78,-28 274.78,-24.5 274.78,-31.5"/>
</g>
</g>
</svg>
