<?xml version="1.0" encoding="UTF-8" standalone="no"?>
<!DOCTYPE svg PUBLIC "-//W3C//DTD SVG 1.1//EN"
 "http://www.w3.org/Graphics/SVG/1.1/DTD/svg11.dtd">
<!-- Generated by graphviz version 2.47.0 (20210316.0004)
 -->
<!-- Title: _push_entry Pages: 1 -->
<svg width="498pt" height="966pt"
 viewBox="0.00 0.00 498.00 966.00" xmlns="http://www.w3.org/2000/svg" xmlns:xlink="http://www.w3.org/1999/xlink">
<g id="graph0" class="graph" transform="scale(1 1) rotate(0) translate(4 962)">
<title>_push_entry</title>
<polygon fill="white" stroke="transparent" points="-4,4 -4,-962 494,-962 494,4 -4,4"/>
<!-- Node1 -->
<g id="node1" class="node">
<title>Node1</title>
<g id="a_node1"><a xlink:title="スタックにエントリをプッシュし、その番地を返す。">
<polygon fill="#bfbfbf" stroke="black" points="420,-453.5 420,-472.5 490,-472.5 490,-453.5 420,-453.5"/>
<text text-anchor="middle" x="455" y="-460.5" font-family="Helvetica,sans-Serif" font-size="10.00">_push_entry</text>
</a>
</g>
</g>
<!-- Node2 -->
<g id="node2" class="node">
<title>Node2</title>
<g id="a_node2"><a xlink:href="classutil_1_1_stack_base.html#a95cd624d209c6e05e342b8f5f85ed28a" target="_top" xlink:title="スタックに値 val をプッシュし、その番地を返す。">
<polygon fill="white" stroke="black" points="346,-453.5 346,-472.5 384,-472.5 384,-453.5 346,-453.5"/>
<text text-anchor="middle" x="365" y="-460.5" font-family="Helvetica,sans-Serif" font-size="10.00">push</text>
</a>
</g>
</g>
<!-- Node1&#45;&gt;Node2 -->
<g id="edge1" class="edge">
<title>Node1&#45;&gt;Node2</title>
<path fill="none" stroke="midnightblue" d="M409.82,-463C400.75,-463 391.7,-463 384.19,-463"/>
<polygon fill="midnightblue" stroke="midnightblue" points="409.98,-466.5 419.98,-463 409.98,-459.5 409.98,-466.5"/>
</g>
<!-- Node3 -->
<g id="node3" class="node">
<title>Node3</title>
<g id="a_node3"><a xlink:href="classcmd_1_1_command_base_1_1_cmd_get_text.html#aed930e84d9417830c38fbb0917e1c58a" target="_top" xlink:title="テキスト文字列を読み出す．">
<polygon fill="white" stroke="black" points="122,-938.5 122,-957.5 310,-957.5 310,-938.5 122,-938.5"/>
<text text-anchor="middle" x="216" y="-945.5" font-family="Helvetica,sans-Serif" font-size="10.00">cmd.CommandBase.CmdGetText.exec</text>
</a>
</g>
</g>
<!-- Node2&#45;&gt;Node3 -->
<g id="edge2" class="edge">
<title>Node2&#45;&gt;Node3</title>
<path fill="none" stroke="midnightblue" d="M363.06,-482.84C358.85,-567.48 340.66,-895.58 310,-929 306.55,-932.76 302.57,-935.9 298.24,-938.49"/>
<polygon fill="midnightblue" stroke="midnightblue" points="366.56,-482.92 363.55,-472.76 359.56,-482.58 366.56,-482.92"/>
</g>
<!-- Node4 -->
<g id="node4" class="node">
<title>Node4</title>
<g id="a_node4"><a xlink:href="classcmd_1_1_command_base_1_1_cmd_get_elem_end.html#aed930e84d9417830c38fbb0917e1c58a" target="_top" xlink:title="テキスト文字列を読み出す．">
<polygon fill="white" stroke="black" points="132,-889 132,-919 300,-919 300,-889 132,-889"/>
<text text-anchor="start" x="140" y="-907" font-family="Helvetica,sans-Serif" font-size="10.00">cmd.CommandBase.CmdGetElem</text>
<text text-anchor="middle" x="216" y="-896" font-family="Helvetica,sans-Serif" font-size="10.00">End.exec</text>
</a>
</g>
</g>
<!-- Node2&#45;&gt;Node4 -->
<g id="edge3" class="edge">
<title>Node2&#45;&gt;Node4</title>
<path fill="none" stroke="midnightblue" d="M364.26,-483.07C364.81,-558 362.87,-820.15 310,-880 307.02,-883.37 303.63,-886.3 299.96,-888.84"/>
<polygon fill="midnightblue" stroke="midnightblue" points="367.76,-482.68 364.16,-472.71 360.76,-482.75 367.76,-482.68"/>
</g>
<!-- Node5 -->
<g id="node5" class="node">
<title>Node5</title>
<g id="a_node5"><a xlink:href="classcmd_1_1_command_base_1_1_cmd_int_in_stream_const.html#aed930e84d9417830c38fbb0917e1c58a" target="_top" xlink:title="命令を実行する">
<polygon fill="white" stroke="black" points="141.5,-840 141.5,-870 290.5,-870 290.5,-840 141.5,-840"/>
<text text-anchor="start" x="149.5" y="-858" font-family="Helvetica,sans-Serif" font-size="10.00">cmd.CommandBase.CmdIntIn</text>
<text text-anchor="middle" x="216" y="-847" font-family="Helvetica,sans-Serif" font-size="10.00">StreamConst.exec</text>
</a>
</g>
</g>
<!-- Node2&#45;&gt;Node5 -->
<g id="edge4" class="edge">
<title>Node2&#45;&gt;Node5</title>
<path fill="none" stroke="midnightblue" d="M363.88,-482.89C363.04,-551.8 356.71,-779.01 310,-831 304.65,-836.95 298.04,-841.52 290.82,-845.01"/>
<polygon fill="midnightblue" stroke="midnightblue" points="367.38,-482.61 363.97,-472.58 360.38,-482.55 367.38,-482.61"/>
</g>
<!-- Node6 -->
<g id="node6" class="node">
<title>Node6</title>
<g id="a_node6"><a xlink:href="classcmd_1_1_command_boolean_1_1_cmd_bool_load.html#aed930e84d9417830c38fbb0917e1c58a" target="_top" xlink:title="イベントevから要素テキストを読み出す．">
<polygon fill="white" stroke="black" points="135,-791 135,-821 297,-821 297,-791 135,-791"/>
<text text-anchor="start" x="143" y="-809" font-family="Helvetica,sans-Serif" font-size="10.00">cmd.CommandBoolean.CmdBool</text>
<text text-anchor="middle" x="216" y="-798" font-family="Helvetica,sans-Serif" font-size="10.00">Load.exec</text>
</a>
</g>
</g>
<!-- Node2&#45;&gt;Node6 -->
<g id="edge5" class="edge">
<title>Node2&#45;&gt;Node6</title>
<path fill="none" stroke="midnightblue" d="M363.39,-482.63C361.05,-545.1 350.6,-737.8 310,-782 306.28,-786.05 301.97,-789.46 297.29,-792.32"/>
<polygon fill="midnightblue" stroke="midnightblue" points="366.89,-482.66 363.74,-472.55 359.89,-482.42 366.89,-482.66"/>
</g>
<!-- Node7 -->
<g id="node7" class="node">
<title>Node7</title>
<g id="a_node7"><a xlink:href="classcmd_1_1_command_boolean_1_1_cmd_bool_opr.html#aed930e84d9417830c38fbb0917e1c58a" target="_top" xlink:title="スタックトップの二つの値を論理積演算して，結果をスタックトップにおく．">
<polygon fill="white" stroke="black" points="135,-742 135,-772 297,-772 297,-742 135,-742"/>
<text text-anchor="start" x="143" y="-760" font-family="Helvetica,sans-Serif" font-size="10.00">cmd.CommandBoolean.CmdBool</text>
<text text-anchor="middle" x="216" y="-749" font-family="Helvetica,sans-Serif" font-size="10.00">Opr.exec</text>
</a>
</g>
</g>
<!-- Node2&#45;&gt;Node7 -->
<g id="edge6" class="edge">
<title>Node2&#45;&gt;Node7</title>
<path fill="none" stroke="midnightblue" d="M362.71,-482.84C358.68,-538.87 344.43,-696.62 310,-733 306.22,-737 301.87,-740.36 297.15,-743.19"/>
<polygon fill="midnightblue" stroke="midnightblue" points="366.21,-483 363.4,-472.78 359.23,-482.51 366.21,-483"/>
</g>
<!-- Node8 -->
<g id="node8" class="node">
<title>Node8</title>
<g id="a_node8"><a xlink:href="classcmd_1_1_command_boolean_1_1_cmd_bool_and.html#aed930e84d9417830c38fbb0917e1c58a" target="_top" xlink:title="スタックトップの二つの値を論理積演算して，結果をスタックトップにおく．">
<polygon fill="white" stroke="black" points="135,-693 135,-723 297,-723 297,-693 135,-693"/>
<text text-anchor="start" x="143" y="-711" font-family="Helvetica,sans-Serif" font-size="10.00">cmd.CommandBoolean.CmdBool</text>
<text text-anchor="middle" x="216" y="-700" font-family="Helvetica,sans-Serif" font-size="10.00">And.exec</text>
</a>
</g>
</g>
<!-- Node2&#45;&gt;Node8 -->
<g id="edge7" class="edge">
<title>Node2&#45;&gt;Node8</title>
<path fill="none" stroke="midnightblue" d="M361.78,-482.67C355.89,-531.29 338.39,-655.25 310,-684 306.25,-687.8 301.99,-691.02 297.39,-693.75"/>
<polygon fill="midnightblue" stroke="midnightblue" points="365.28,-482.86 362.97,-472.52 358.33,-482.05 365.28,-482.86"/>
</g>
<!-- Node9 -->
<g id="node9" class="node">
<title>Node9</title>
<g id="a_node9"><a xlink:href="classcmd_1_1_command_boolean_1_1_cmd_bool_or.html#aed930e84d9417830c38fbb0917e1c58a" target="_top" xlink:title="スタックトップの二つの値を論理和演算して，結果をスタックトップにおく．">
<polygon fill="white" stroke="black" points="135,-644 135,-674 297,-674 297,-644 135,-644"/>
<text text-anchor="start" x="143" y="-662" font-family="Helvetica,sans-Serif" font-size="10.00">cmd.CommandBoolean.CmdBool</text>
<text text-anchor="middle" x="216" y="-651" font-family="Helvetica,sans-Serif" font-size="10.00">Or.exec</text>
</a>
</g>
</g>
<!-- Node2&#45;&gt;Node9 -->
<g id="edge8" class="edge">
<title>Node2&#45;&gt;Node9</title>
<path fill="none" stroke="midnightblue" d="M363.69,-483.01C362.02,-518.83 353.21,-593.97 310,-635 306.13,-638.67 301.78,-641.81 297.12,-644.47"/>
<polygon fill="midnightblue" stroke="midnightblue" points="367.2,-482.97 364.02,-472.86 360.2,-482.74 367.2,-482.97"/>
</g>
<!-- Node10 -->
<g id="node10" class="node">
<title>Node10</title>
<g id="a_node10"><a xlink:href="classcmd_1_1_command_boolean_1_1_cmd_bool_not.html#aed930e84d9417830c38fbb0917e1c58a" target="_top" xlink:title="スタックトップの値を否定して，結果をスタックトップにおく．">
<polygon fill="white" stroke="black" points="135,-595 135,-625 297,-625 297,-595 135,-595"/>
<text text-anchor="start" x="143" y="-613" font-family="Helvetica,sans-Serif" font-size="10.00">cmd.CommandBoolean.CmdBool</text>
<text text-anchor="middle" x="216" y="-602" font-family="Helvetica,sans-Serif" font-size="10.00">Not.exec</text>
</a>
</g>
</g>
<!-- Node2&#45;&gt;Node10 -->
<g id="edge9" class="edge">
<title>Node2&#45;&gt;Node10</title>
<path fill="none" stroke="midnightblue" d="M360.86,-482.61C355.44,-509.91 341.69,-559.04 310,-586 305.94,-589.46 301.43,-592.43 296.67,-594.97"/>
<polygon fill="midnightblue" stroke="midnightblue" points="364.32,-483.15 362.65,-472.69 357.43,-481.91 364.32,-483.15"/>
</g>
<!-- Node11 -->
<g id="node11" class="node">
<title>Node11</title>
<g id="a_node11"><a xlink:href="classcmd_1_1_command_double_1_1_cmd_dbl_load.html#aed930e84d9417830c38fbb0917e1c58a" target="_top" xlink:title="イベントevから要素テキストを読み出す．">
<polygon fill="white" stroke="black" points="139.5,-546 139.5,-576 292.5,-576 292.5,-546 139.5,-546"/>
<text text-anchor="start" x="147.5" y="-564" font-family="Helvetica,sans-Serif" font-size="10.00">cmd.CommandDouble.CmdDbl</text>
<text text-anchor="middle" x="216" y="-553" font-family="Helvetica,sans-Serif" font-size="10.00">Load.exec</text>
</a>
</g>
</g>
<!-- Node2&#45;&gt;Node11 -->
<g id="edge10" class="edge">
<title>Node2&#45;&gt;Node11</title>
<path fill="none" stroke="midnightblue" d="M355.17,-481.57C346.15,-498.53 330.57,-523.03 310,-537 304.62,-540.65 298.72,-543.75 292.59,-546.38"/>
<polygon fill="midnightblue" stroke="midnightblue" points="358.32,-483.09 359.71,-472.59 352.07,-479.93 358.32,-483.09"/>
</g>
<!-- Node12 -->
<g id="node12" class="node">
<title>Node12</title>
<g id="a_node12"><a xlink:href="classcmd_1_1_command_integer_1_1_cmd_int_load.html#aed930e84d9417830c38fbb0917e1c58a" target="_top" xlink:title="イベントevから要素テキストを読み出す．">
<polygon fill="white" stroke="black" points="142,-497 142,-527 290,-527 290,-497 142,-497"/>
<text text-anchor="start" x="150" y="-515" font-family="Helvetica,sans-Serif" font-size="10.00">cmd.CommandInteger.CmdInt</text>
<text text-anchor="middle" x="216" y="-504" font-family="Helvetica,sans-Serif" font-size="10.00">Load.exec</text>
</a>
</g>
</g>
<!-- Node2&#45;&gt;Node12 -->
<g id="edge11" class="edge">
<title>Node2&#45;&gt;Node12</title>
<path fill="none" stroke="midnightblue" d="M336.8,-476.76C328.35,-480.72 318.91,-484.82 310,-488 300.89,-491.25 291.14,-494.26 281.5,-496.98"/>
<polygon fill="midnightblue" stroke="midnightblue" points="338.36,-479.89 345.85,-472.41 335.32,-473.59 338.36,-479.89"/>
</g>
<!-- Node13 -->
<g id="node13" class="node">
<title>Node13</title>
<g id="a_node13"><a xlink:href="classcmd_1_1_command_string_1_1_cmd_str_load.html#aed930e84d9417830c38fbb0917e1c58a" target="_top" xlink:title="スタックトップに文字列変数値をおく．">
<polygon fill="white" stroke="black" points="143,-448 143,-478 289,-478 289,-448 143,-448"/>
<text text-anchor="start" x="151" y="-466" font-family="Helvetica,sans-Serif" font-size="10.00">cmd.CommandString.CmdStr</text>
<text text-anchor="middle" x="216" y="-455" font-family="Helvetica,sans-Serif" font-size="10.00">Load.exec</text>
</a>
</g>
</g>
<!-- Node2&#45;&gt;Node13 -->
<g id="edge12" class="edge">
<title>Node2&#45;&gt;Node13</title>
<path fill="none" stroke="midnightblue" d="M335.61,-463C322.29,-463 305.73,-463 289.26,-463"/>
<polygon fill="midnightblue" stroke="midnightblue" points="335.97,-466.5 345.97,-463 335.97,-459.5 335.97,-466.5"/>
</g>
<!-- Node14 -->
<g id="node14" class="node">
<title>Node14</title>
<g id="a_node14"><a xlink:href="classcmd_1_1_command_string_1_1_cmd_str_add.html#aed930e84d9417830c38fbb0917e1c58a" target="_top" xlink:title="スタックトップの二つの文字列を連結して，結果をスタックトップにおく．">
<polygon fill="white" stroke="black" points="143,-399 143,-429 289,-429 289,-399 143,-399"/>
<text text-anchor="start" x="151" y="-417" font-family="Helvetica,sans-Serif" font-size="10.00">cmd.CommandString.CmdStr</text>
<text text-anchor="middle" x="216" y="-406" font-family="Helvetica,sans-Serif" font-size="10.00">Add.exec</text>
</a>
</g>
</g>
<!-- Node2&#45;&gt;Node14 -->
<g id="edge13" class="edge">
<title>Node2&#45;&gt;Node14</title>
<path fill="none" stroke="midnightblue" d="M336.46,-449.77C328.08,-446.01 318.76,-442.1 310,-439 299.91,-435.43 289.06,-432.08 278.45,-429.07"/>
<polygon fill="midnightblue" stroke="midnightblue" points="335.25,-453.06 345.79,-454.06 338.17,-446.7 335.25,-453.06"/>
</g>
<!-- Node15 -->
<g id="node15" class="node">
<title>Node15</title>
<g id="a_node15"><a xlink:href="classcmd_1_1_command_string_1_1_cmd_str_string_match.html#aed930e84d9417830c38fbb0917e1c58a" target="_top" xlink:title="スタックトップの文字列を，保持した文字列パターンに部分文字列照合し，その結果のブール値をスタックトップにおく．">
<polygon fill="white" stroke="black" points="143,-350 143,-380 289,-380 289,-350 143,-350"/>
<text text-anchor="start" x="151" y="-368" font-family="Helvetica,sans-Serif" font-size="10.00">cmd.CommandString.CmdStr</text>
<text text-anchor="middle" x="216" y="-357" font-family="Helvetica,sans-Serif" font-size="10.00">StringMatch.exec</text>
</a>
</g>
</g>
<!-- Node2&#45;&gt;Node15 -->
<g id="edge14" class="edge">
<title>Node2&#45;&gt;Node15</title>
<path fill="none" stroke="midnightblue" d="M354.67,-443.99C345.53,-427.32 330.06,-403.68 310,-390 303.64,-385.67 296.57,-382.09 289.24,-379.12"/>
<polygon fill="midnightblue" stroke="midnightblue" points="351.81,-446.06 359.53,-453.31 358.01,-442.83 351.81,-446.06"/>
</g>
<!-- Node16 -->
<g id="node16" class="node">
<title>Node16</title>
<g id="a_node16"><a xlink:href="classcmd_1_1_command_string_1_1_cmd_str_regex_match.html#aed930e84d9417830c38fbb0917e1c58a" target="_top" xlink:title="スタックトップの文字列を，保持した正規表現に照合し，その結果のブール値をスタックトップにおく．">
<polygon fill="white" stroke="black" points="143,-301 143,-331 289,-331 289,-301 143,-301"/>
<text text-anchor="start" x="151" y="-319" font-family="Helvetica,sans-Serif" font-size="10.00">cmd.CommandString.CmdStr</text>
<text text-anchor="middle" x="216" y="-308" font-family="Helvetica,sans-Serif" font-size="10.00">RegexMatch.exec</text>
</a>
</g>
</g>
<!-- Node2&#45;&gt;Node16 -->
<g id="edge15" class="edge">
<title>Node2&#45;&gt;Node16</title>
<path fill="none" stroke="midnightblue" d="M360.7,-443.22C355.13,-416.12 341.25,-367.77 310,-341 303.91,-335.78 296.83,-331.64 289.35,-328.35"/>
<polygon fill="midnightblue" stroke="midnightblue" points="357.33,-444.23 362.61,-453.41 364.21,-442.94 357.33,-444.23"/>
</g>
<!-- Node17 -->
<g id="node17" class="node">
<title>Node17</title>
<g id="a_node17"><a xlink:href="classcmd_1_1_command_string_1_1_cmd_str_sys_var_load.html#aed930e84d9417830c38fbb0917e1c58a" target="_top" xlink:title="スタックトップにシステム変数値をおく．">
<polygon fill="white" stroke="black" points="143,-252 143,-282 289,-282 289,-252 143,-252"/>
<text text-anchor="start" x="151" y="-270" font-family="Helvetica,sans-Serif" font-size="10.00">cmd.CommandString.CmdStr</text>
<text text-anchor="middle" x="216" y="-259" font-family="Helvetica,sans-Serif" font-size="10.00">SysVarLoad.exec</text>
</a>
</g>
</g>
<!-- Node2&#45;&gt;Node17 -->
<g id="edge16" class="edge">
<title>Node2&#45;&gt;Node17</title>
<path fill="none" stroke="midnightblue" d="M363.61,-443.14C361.81,-407.6 352.81,-333 310,-292 303.96,-286.22 296.74,-281.74 289.01,-278.28"/>
<polygon fill="midnightblue" stroke="midnightblue" points="360.12,-443.35 363.98,-453.22 367.11,-443.1 360.12,-443.35"/>
</g>
<!-- Node18 -->
<g id="node18" class="node">
<title>Node18</title>
<g id="a_node18"><a xlink:href="classcmd_1_1_command_typed_1_1_cmd_str2_type.html#aed930e84d9417830c38fbb0917e1c58a" target="_top" xlink:title="文字列OSのトップをIntegerに変換し，IntegerOSにプッシュする">
<polygon fill="white" stroke="black" points="140,-203 140,-233 292,-233 292,-203 140,-203"/>
<text text-anchor="start" x="148" y="-221" font-family="Helvetica,sans-Serif" font-size="10.00">cmd.CommandTyped.CmdStr2</text>
<text text-anchor="middle" x="216" y="-210" font-family="Helvetica,sans-Serif" font-size="10.00">Type.exec</text>
</a>
</g>
</g>
<!-- Node2&#45;&gt;Node18 -->
<g id="edge17" class="edge">
<title>Node2&#45;&gt;Node18</title>
<path fill="none" stroke="midnightblue" d="M361.71,-443.1C355.71,-394.51 338.07,-271.69 310,-243 304.86,-237.74 298.73,-233.55 292.12,-230.22"/>
<polygon fill="midnightblue" stroke="midnightblue" points="358.26,-443.76 362.92,-453.27 365.21,-442.92 358.26,-443.76"/>
</g>
<!-- Node19 -->
<g id="node19" class="node">
<title>Node19</title>
<g id="a_node19"><a xlink:href="classcmd_1_1_command_typed_1_1_cmd_conv.html#aed930e84d9417830c38fbb0917e1c58a" target="_top" xlink:title="文字列OSのトップをIntegerに変換し，IntegerOSにプッシュする">
<polygon fill="white" stroke="black" points="126.5,-164.5 126.5,-183.5 305.5,-183.5 305.5,-164.5 126.5,-164.5"/>
<text text-anchor="middle" x="216" y="-171.5" font-family="Helvetica,sans-Serif" font-size="10.00">cmd.CommandTyped.CmdConv.exec</text>
</a>
</g>
</g>
<!-- Node2&#45;&gt;Node19 -->
<g id="edge18" class="edge">
<title>Node2&#45;&gt;Node19</title>
<path fill="none" stroke="midnightblue" d="M362.77,-443.16C358.9,-387.15 345.05,-229.53 310,-194 305.82,-189.77 300.98,-186.33 295.75,-183.55"/>
<polygon fill="midnightblue" stroke="midnightblue" points="359.29,-443.47 363.44,-453.22 366.27,-443.01 359.29,-443.47"/>
</g>
<!-- Node20 -->
<g id="node20" class="node">
<title>Node20</title>
<g id="a_node20"><a xlink:href="classcmd_1_1_command_typed_1_1_cmd_type_opr.html#aed930e84d9417830c38fbb0917e1c58a" target="_top" xlink:title="スタックトップの二つのIntegerを演算して，結果をスタックトップにおく．">
<polygon fill="white" stroke="black" points="138.5,-115 138.5,-145 293.5,-145 293.5,-115 138.5,-115"/>
<text text-anchor="start" x="146.5" y="-133" font-family="Helvetica,sans-Serif" font-size="10.00">cmd.CommandTyped.CmdType</text>
<text text-anchor="middle" x="216" y="-122" font-family="Helvetica,sans-Serif" font-size="10.00">Opr.exec</text>
</a>
</g>
</g>
<!-- Node2&#45;&gt;Node20 -->
<g id="edge19" class="edge">
<title>Node2&#45;&gt;Node20</title>
<path fill="none" stroke="midnightblue" d="M363.24,-443.28C360.47,-382.18 348.98,-197.62 310,-155 305.37,-149.94 299.84,-145.86 293.82,-142.58"/>
<polygon fill="midnightblue" stroke="midnightblue" points="359.75,-443.64 363.67,-453.48 366.74,-443.34 359.75,-443.64"/>
</g>
<!-- Node21 -->
<g id="node21" class="node">
<title>Node21</title>
<g id="a_node21"><a xlink:href="classutil_1_1_report.html#a18c2ea265e8622e114f6b037e69aa09a" target="_top" xlink:title="現在の入れ子深さを一つ深くする．">
<polygon fill="white" stroke="black" points="173,-76.5 173,-95.5 259,-95.5 259,-76.5 173,-76.5"/>
<text text-anchor="middle" x="216" y="-83.5" font-family="Helvetica,sans-Serif" font-size="10.00">util.Report.push</text>
</a>
</g>
</g>
<!-- Node2&#45;&gt;Node21 -->
<g id="edge20" class="edge">
<title>Node2&#45;&gt;Node21</title>
<path fill="none" stroke="midnightblue" d="M363.85,-443.19C362.93,-375.58 356.37,-155.33 310,-106 297.1,-92.28 277.25,-86.82 259.2,-84.97"/>
<polygon fill="midnightblue" stroke="midnightblue" points="360.35,-443.37 363.96,-453.33 367.35,-443.3 360.35,-443.37"/>
</g>
<!-- Node23 -->
<g id="node23" class="node">
<title>Node23</title>
<g id="a_node23"><a xlink:href="classutil_1_1_recycle_manager.html#aa9f7825d1e1ceade4de0aa24bdb2d10c" target="_top" xlink:title="型Sのインスタンスを，再利用可能のマークをつけて，入れ物にいれる．">
<polygon fill="white" stroke="black" points="146,-38.5 146,-57.5 286,-57.5 286,-38.5 146,-38.5"/>
<text text-anchor="middle" x="216" y="-45.5" font-family="Helvetica,sans-Serif" font-size="10.00">util.RecycleManager.recycle</text>
</a>
</g>
</g>
<!-- Node2&#45;&gt;Node23 -->
<g id="edge22" class="edge">
<title>Node2&#45;&gt;Node23</title>
<path fill="none" stroke="midnightblue" d="M364.2,-442.94C364.5,-370.26 361.66,-122.18 310,-67 303.47,-60.02 295.12,-55.23 286.12,-51.99"/>
<polygon fill="midnightblue" stroke="midnightblue" points="360.7,-443.35 364.13,-453.38 367.7,-443.4 360.7,-443.35"/>
</g>
<!-- Node24 -->
<g id="node24" class="node">
<title>Node24</title>
<g id="a_node24"><a xlink:href="classutil_1_1_report.html#a62bc0d20ce17d1ee1289cfccd4c0ce68" target="_top" xlink:title="name stack">
<polygon fill="white" stroke="black" points="169,-0.5 169,-19.5 263,-19.5 263,-0.5 169,-0.5"/>
<text text-anchor="middle" x="216" y="-7.5" font-family="Helvetica,sans-Serif" font-size="10.00">util.Report.Report</text>
</a>
</g>
</g>
<!-- Node2&#45;&gt;Node24 -->
<g id="edge23" class="edge">
<title>Node2&#45;&gt;Node24</title>
<path fill="none" stroke="midnightblue" d="M364.47,-443.01C365.83,-366.06 366.65,-90.23 310,-29 298.14,-16.18 280.15,-10.72 263.15,-8.72"/>
<polygon fill="midnightblue" stroke="midnightblue" points="360.96,-443.16 364.26,-453.23 367.96,-443.31 360.96,-443.16"/>
</g>
<!-- Node22 -->
<g id="node22" class="node">
<title>Node22</title>
<g id="a_node22"><a xlink:href="classutil_1_1_report.html#af99c57037baac94c5837a696ba33f50b" target="_top" xlink:title="現在の入れ子深さで段差げして，関数名nameの呼び出しと文字列msgを出力する。">
<polygon fill="white" stroke="black" points="0,-76.5 0,-95.5 86,-95.5 86,-76.5 0,-76.5"/>
<text text-anchor="middle" x="43" y="-83.5" font-family="Helvetica,sans-Serif" font-size="10.00">util.Report.enter</text>
</a>
</g>
</g>
<!-- Node21&#45;&gt;Node22 -->
<g id="edge21" class="edge">
<title>Node21&#45;&gt;Node22</title>
<path fill="none" stroke="midnightblue" d="M162.51,-86C137.97,-86 109.15,-86 86.08,-86"/>
<polygon fill="midnightblue" stroke="midnightblue" points="162.73,-89.5 172.73,-86 162.73,-82.5 162.73,-89.5"/>
</g>
</g>
</svg>
