<?xml version="1.0" encoding="UTF-8" standalone="no"?>
<!DOCTYPE svg PUBLIC "-//W3C//DTD SVG 1.1//EN"
 "http://www.w3.org/Graphics/SVG/1.1/DTD/svg11.dtd">
<!-- Generated by graphviz version 2.47.0 (20210316.0004)
 -->
<!-- Title: AstDataWriter Pages: 1 -->
<!--zoomable 218 -->
<svg id="main" version="1.1" xmlns="http://www.w3.org/2000/svg" xmlns:xlink="http://www.w3.org/1999/xlink" xml:space="preserve" onload="init(evt)">
<style type="text/css"><![CDATA[
.edge:hover path { stroke: red; }
.edge:hover polygon { stroke: red; fill: red; }
]]></style>
<script type="text/javascript"><![CDATA[
var edges = document.getElementsByTagName('g');
if (edges && edges.length) {
  for (var i=0;i<edges.length;i++) {
    if (edges[i].id.substr(0,4)=='edge') {
      edges[i].setAttribute('class','edge');
    }
  }
}
]]></script>
        <defs>
                <circle id="rim" cx="0" cy="0" r="7"/>
                <circle id="rim2" cx="0" cy="0" r="3.5"/>
                <g id="zoomPlus">
                        <use xlink:href="#rim" fill="#404040">
                                <set attributeName="fill" to="#808080" begin="zoomplus.mouseover" end="zoomplus.mouseout"/>
                        </use>
                        <path d="M-4,0h8M0,-4v8" fill="none" stroke="white" stroke-width="1.5" pointer-events="none"/>
                </g>
                <g id="zoomMin">
                        <use xlink:href="#rim" fill="#404040">
                                <set attributeName="fill" to="#808080" begin="zoomminus.mouseover" end="zoomminus.mouseout"/>
                        </use>
                        <path d="M-4,0h8" fill="none" stroke="white" stroke-width="1.5" pointer-events="none"/>
                </g>
                <g id="dirArrow">
                        <path fill="none" stroke="white" stroke-width="1.5" d="M0,-3.0v7 M-2.5,-0.5L0,-3.0L2.5,-0.5"/>
                </g>
               <g id="resetDef">
                       <use xlink:href="#rim2" fill="#404040">
                               <set attributeName="fill" to="#808080" begin="reset.mouseover" end="reset.mouseout"/>
                       </use>
               </g>
        </defs>

<script type="text/javascript">
var viewWidth = 685;
var viewHeight = 218;
var sectionId = 'dynsection-0';
</script>
<script xlink:href="svgpan.js"/>
<svg id="graph" class="graph">
<g id="viewport">
<title>AstDataWriter</title>
<polygon fill="white" stroke="transparent" points="-4,4 -4,-214 681,-214 681,4 -4,4"/>
<!-- Node1 -->
<g id="node1" class="node">
<title>Node1</title>
<g id="a_node1"><a xlink:title="局所変数環境からの値を書き込むクラス">
<polygon fill="#bfbfbf" stroke="black" points="418,-95.5 418,-114.5 496,-114.5 496,-95.5 418,-95.5"/>
<text text-anchor="middle" x="457" y="-102.5" font-family="Helvetica,sans-Serif" font-size="10.00">AstDataWriter</text>
</a>
</g>
</g>
<!-- Node8 -->
<g id="node8" class="node">
<title>Node8</title>
<g id="a_node8"><a xlink:href="classast_1_1_ast_data_writer_1_1_writer_boolean.html" target="_top" xlink:title="ブール型の値をもつ局所変数">
<polygon fill="white" stroke="black" points="534,-190.5 534,-209.5 675,-209.5 675,-190.5 534,-190.5"/>
<text text-anchor="middle" x="604.5" y="-197.5" font-family="Helvetica,sans-Serif" font-size="10.00">AstDataWriter.WriterBoolean</text>
</a>
</g>
</g>
<!-- Node1&#45;&gt;Node8 -->
<g id="edge9" class="edge">
<title>Node1&#45;&gt;Node8</title>
<path fill="none" stroke="midnightblue" d="M470.66,-122.74C483.99,-140.12 506.55,-166.12 532,-181 538.65,-184.89 546.11,-188 553.64,-190.48"/>
<polygon fill="midnightblue" stroke="midnightblue" points="473.34,-120.48 464.56,-114.54 467.72,-124.65 473.34,-120.48"/>
</g>
<!-- Node9 -->
<g id="node9" class="node">
<title>Node9</title>
<g id="a_node9"><a xlink:href="classast_1_1_ast_data_writer_1_1_writer_double.html" target="_top" xlink:title="Double型の値をもつ局所変数">
<polygon fill="white" stroke="black" points="536,-152.5 536,-171.5 673,-171.5 673,-152.5 536,-152.5"/>
<text text-anchor="middle" x="604.5" y="-159.5" font-family="Helvetica,sans-Serif" font-size="10.00">AstDataWriter.WriterDouble</text>
</a>
</g>
</g>
<!-- Node1&#45;&gt;Node9 -->
<g id="edge10" class="edge">
<title>Node1&#45;&gt;Node9</title>
<path fill="none" stroke="midnightblue" d="M483.3,-119.71C497.31,-127.41 515.24,-136.56 532,-143 541.35,-146.6 551.64,-149.76 561.43,-152.43"/>
<polygon fill="midnightblue" stroke="midnightblue" points="484.72,-116.49 474.28,-114.65 481.29,-122.6 484.72,-116.49"/>
</g>
<!-- Node10 -->
<g id="node10" class="node">
<title>Node10</title>
<g id="a_node10"><a xlink:href="classast_1_1_ast_data_writer_1_1_writer_integer.html" target="_top" xlink:title="Integer型の値をもつ局所変数">
<polygon fill="white" stroke="black" points="536.5,-114.5 536.5,-133.5 672.5,-133.5 672.5,-114.5 536.5,-114.5"/>
<text text-anchor="middle" x="604.5" y="-121.5" font-family="Helvetica,sans-Serif" font-size="10.00">AstDataWriter.WriterInteger</text>
</a>
</g>
</g>
<!-- Node1&#45;&gt;Node10 -->
<g id="edge11" class="edge">
<title>Node1&#45;&gt;Node10</title>
<path fill="none" stroke="midnightblue" d="M506.35,-111.31C515.94,-112.57 526.18,-113.9 536.27,-115.22"/>
<polygon fill="midnightblue" stroke="midnightblue" points="506.6,-107.82 496.23,-109.99 505.69,-114.76 506.6,-107.82"/>
</g>
<!-- Node11 -->
<g id="node11" class="node">
<title>Node11</title>
<g id="a_node11"><a xlink:href="classast_1_1_ast_data_writer_1_1_writer_o_stream.html" target="_top" xlink:title="String型の値をもつ局所変数">
<polygon fill="white" stroke="black" points="532,-76.5 532,-95.5 677,-95.5 677,-76.5 532,-76.5"/>
<text text-anchor="middle" x="604.5" y="-83.5" font-family="Helvetica,sans-Serif" font-size="10.00">AstDataWriter.WriterOStream</text>
</a>
</g>
</g>
<!-- Node1&#45;&gt;Node11 -->
<g id="edge12" class="edge">
<title>Node1&#45;&gt;Node11</title>
<path fill="none" stroke="midnightblue" d="M506.3,-98.69C514.48,-97.63 523.12,-96.5 531.74,-95.37"/>
<polygon fill="midnightblue" stroke="midnightblue" points="505.69,-95.24 496.23,-100.01 506.6,-102.18 505.69,-95.24"/>
</g>
<!-- Node12 -->
<g id="node12" class="node">
<title>Node12</title>
<g id="a_node12"><a xlink:href="classast_1_1_ast_data_writer_1_1_writer_string.html" target="_top" xlink:title="String型の値をもつ局所変数">
<polygon fill="white" stroke="black" points="539,-38.5 539,-57.5 670,-57.5 670,-38.5 539,-38.5"/>
<text text-anchor="middle" x="604.5" y="-45.5" font-family="Helvetica,sans-Serif" font-size="10.00">AstDataWriter.WriterString</text>
</a>
</g>
</g>
<!-- Node1&#45;&gt;Node12 -->
<g id="edge13" class="edge">
<title>Node1&#45;&gt;Node12</title>
<path fill="none" stroke="midnightblue" d="M483.3,-90.29C497.31,-82.59 515.24,-73.44 532,-67 541.35,-63.4 551.64,-60.24 561.43,-57.57"/>
<polygon fill="midnightblue" stroke="midnightblue" points="481.29,-87.4 474.28,-95.35 484.72,-93.51 481.29,-87.4"/>
</g>
<!-- Node13 -->
<g id="node13" class="node">
<title>Node13</title>
<g id="a_node13"><a xlink:href="classast_1_1_ast_data_writer_1_1_writer_void.html" target="_top" xlink:title="Void型の値をもつ局所変数">
<polygon fill="white" stroke="black" points="542,-0.5 542,-19.5 667,-19.5 667,-0.5 542,-0.5"/>
<text text-anchor="middle" x="604.5" y="-7.5" font-family="Helvetica,sans-Serif" font-size="10.00">AstDataWriter.WriterVoid</text>
</a>
</g>
</g>
<!-- Node1&#45;&gt;Node13 -->
<g id="edge14" class="edge">
<title>Node1&#45;&gt;Node13</title>
<path fill="none" stroke="midnightblue" d="M470.66,-87.26C483.99,-69.88 506.55,-43.88 532,-29 538.65,-25.11 546.11,-22 553.64,-19.52"/>
<polygon fill="midnightblue" stroke="midnightblue" points="467.72,-85.35 464.56,-95.46 473.34,-89.52 467.72,-85.35"/>
</g>
<!-- Node2 -->
<g id="node2" class="node">
<title>Node2</title>
<g id="a_node2"><a xlink:href="classast_1_1_ast_node.html" target="_top" xlink:title="タグなしの順アクセスの子供をもてる抽象構文木のノードのクラス。">
<polygon fill="white" stroke="black" points="315,-133.5 315,-152.5 370,-152.5 370,-133.5 315,-133.5"/>
<text text-anchor="middle" x="342.5" y="-140.5" font-family="Helvetica,sans-Serif" font-size="10.00">AstNode</text>
</a>
</g>
</g>
<!-- Node2&#45;&gt;Node1 -->
<g id="edge1" class="edge">
<title>Node2&#45;&gt;Node1</title>
<path fill="none" stroke="midnightblue" d="M379.92,-130.7C395.37,-125.48 413.11,-119.49 427.56,-114.61"/>
<polygon fill="midnightblue" stroke="midnightblue" points="378.51,-127.48 370.16,-133.99 380.76,-134.11 378.51,-127.48"/>
</g>
<!-- Node3 -->
<g id="node3" class="node">
<title>Node3</title>
<g id="a_node3"><a xlink:href="classast_1_1_ast_node_base.html" target="_top" xlink:title=" ">
<polygon fill="white" stroke="black" points="150.5,-171.5 150.5,-190.5 227.5,-190.5 227.5,-171.5 150.5,-171.5"/>
<text text-anchor="middle" x="189" y="-178.5" font-family="Helvetica,sans-Serif" font-size="10.00">AstNodeBase</text>
</a>
</g>
</g>
<!-- Node3&#45;&gt;Node2 -->
<g id="edge2" class="edge">
<title>Node3&#45;&gt;Node2</title>
<path fill="none" stroke="midnightblue" d="M237.56,-169.33C247.3,-166.92 257.48,-164.39 267,-162 282.92,-158 300.74,-153.46 314.96,-149.82"/>
<polygon fill="midnightblue" stroke="midnightblue" points="236.48,-165.99 227.61,-171.78 238.16,-172.78 236.48,-165.99"/>
</g>
<!-- Node4 -->
<g id="node4" class="node">
<title>Node4</title>
<g id="a_node4"><a xlink:href="interfaceformat_1_1_x_formattable_1_1_navigatable.html" target="_top" xlink:title="木構造の分岐ノードとして清書可能なオブジェクトのクラス">
<polygon fill="white" stroke="black" points="124,-95.5 124,-114.5 254,-114.5 254,-95.5 124,-95.5"/>
<text text-anchor="middle" x="189" y="-102.5" font-family="Helvetica,sans-Serif" font-size="10.00">XFormattable.Navigatable</text>
</a>
</g>
</g>
<!-- Node4&#45;&gt;Node1 -->
<g id="edge7" class="edge">
<title>Node4&#45;&gt;Node1</title>
<path fill="none" stroke="midnightblue" d="M264.17,-105C314.16,-105 378.02,-105 417.98,-105"/>
<polygon fill="midnightblue" stroke="midnightblue" points="264.05,-101.5 254.05,-105 264.05,-108.5 264.05,-101.5"/>
</g>
<!-- Node4&#45;&gt;Node2 -->
<g id="edge3" class="edge">
<title>Node4&#45;&gt;Node2</title>
<path fill="none" stroke="midnightblue" d="M238.77,-116.97C248.14,-119.29 257.88,-121.71 267,-124 282.92,-128 300.74,-132.54 314.96,-136.18"/>
<polygon fill="midnightblue" stroke="midnightblue" points="239.34,-113.51 228.79,-114.51 237.66,-120.3 239.34,-113.51"/>
</g>
<!-- Node5 -->
<g id="node5" class="node">
<title>Node5</title>
<g id="a_node5"><a xlink:href="interfaceformat_1_1_x_formattable.html" target="_top" xlink:title="入れ子フォーマット出力可能なオブジェクトのインタフェース。">
<polygon fill="white" stroke="black" points="0,-114.5 0,-133.5 75,-133.5 75,-114.5 0,-114.5"/>
<text text-anchor="middle" x="37.5" y="-121.5" font-family="Helvetica,sans-Serif" font-size="10.00">XFormattable</text>
</a>
</g>
</g>
<!-- Node5&#45;&gt;Node4 -->
<g id="edge4" class="edge">
<title>Node5&#45;&gt;Node4</title>
<path fill="none" stroke="midnightblue" d="M85.07,-118.08C97.34,-116.52 110.8,-114.81 123.82,-113.16"/>
<polygon fill="midnightblue" stroke="midnightblue" points="84.55,-114.62 75.07,-119.35 85.43,-121.56 84.55,-114.62"/>
</g>
<!-- Node6 -->
<g id="node6" class="node">
<title>Node6</title>
<g id="a_node6"><a xlink:href="interfaceformat_1_1_x_formattable_1_1_typed_formattable.html" target="_top" xlink:title="ノードの型情報をもつ書式出力可能なオブジェクトのインタフェース．">
<polygon fill="white" stroke="black" points="111,-133.5 111,-152.5 267,-152.5 267,-133.5 111,-133.5"/>
<text text-anchor="middle" x="189" y="-140.5" font-family="Helvetica,sans-Serif" font-size="10.00">XFormattable.TypedFormattable</text>
</a>
</g>
</g>
<!-- Node5&#45;&gt;Node6 -->
<g id="edge6" class="edge">
<title>Node5&#45;&gt;Node6</title>
<path fill="none" stroke="midnightblue" d="M85.21,-129.94C94.11,-131.07 103.64,-132.28 113.17,-133.49"/>
<polygon fill="midnightblue" stroke="midnightblue" points="85.43,-126.44 75.07,-128.65 84.55,-133.38 85.43,-126.44"/>
</g>
<!-- Node6&#45;&gt;Node2 -->
<g id="edge5" class="edge">
<title>Node6&#45;&gt;Node2</title>
<path fill="none" stroke="midnightblue" d="M277.15,-143C290.9,-143 304.13,-143 314.98,-143"/>
<polygon fill="midnightblue" stroke="midnightblue" points="277.08,-139.5 267.08,-143 277.08,-146.5 277.08,-139.5"/>
</g>
<!-- Node7 -->
<g id="node7" class="node">
<title>Node7</title>
<g id="a_node7"><a xlink:href="interfacemachine_1_1_data_accessor.html" target="_top" xlink:title="参照をもつデータ読み書きオブジェクトのインタフェース.">
<polygon fill="white" stroke="black" points="303,-57.5 303,-76.5 382,-76.5 382,-57.5 303,-57.5"/>
<text text-anchor="middle" x="342.5" y="-64.5" font-family="Helvetica,sans-Serif" font-size="10.00">DataAccessor</text>
</a>
</g>
</g>
<!-- Node7&#45;&gt;Node1 -->
<g id="edge8" class="edge">
<title>Node7&#45;&gt;Node1</title>
<path fill="none" stroke="midnightblue" d="M381.47,-79.83C396.57,-84.92 413.63,-90.69 427.62,-95.41"/>
<polygon fill="midnightblue" stroke="midnightblue" points="382.48,-76.47 371.89,-76.59 380.24,-83.11 382.48,-76.47"/>
</g>
</g>
</svg>
        <g id="navigator" transform="translate(0 0)" fill="#404254">
                <rect fill="#f2f5e9" fill-opacity="0.5" stroke="#606060" stroke-width=".5" x="0" y="0" width="60" height="60"/>
                <use id="zoomplus" xlink:href="#zoomPlus" x="17" y="9" onmousedown="handleZoom(evt,'in')"/>
                <use id="zoomminus" xlink:href="#zoomMin" x="42" y="9" onmousedown="handleZoom(evt,'out')"/>
                <use id="reset" xlink:href="#resetDef" x="30" y="36" onmousedown="handleReset()"/>
                <g id="arrowUp" xlink:href="#dirArrow" transform="translate(30 24)" onmousedown="handlePan(0,-1)">
                  <use xlink:href="#rim" fill="#404040">
                        <set attributeName="fill" to="#808080" begin="arrowUp.mouseover" end="arrowUp.mouseout"/>
                  </use>
                  <path fill="none" stroke="white" stroke-width="1.5" d="M0,-3.0v7 M-2.5,-0.5L0,-3.0L2.5,-0.5"/>
                </g>
                <g id="arrowRight" xlink:href="#dirArrow" transform="rotate(90) translate(36 -43)" onmousedown="handlePan(1,0)">
                  <use xlink:href="#rim" fill="#404040">
                        <set attributeName="fill" to="#808080" begin="arrowRight.mouseover" end="arrowRight.mouseout"/>
                  </use>
                  <path fill="none" stroke="white" stroke-width="1.5" d="M0,-3.0v7 M-2.5,-0.5L0,-3.0L2.5,-0.5"/>
                </g>
                <g id="arrowDown" xlink:href="#dirArrow" transform="rotate(180) translate(-30 -48)" onmousedown="handlePan(0,1)">
                  <use xlink:href="#rim" fill="#404040">
                        <set attributeName="fill" to="#808080" begin="arrowDown.mouseover" end="arrowDown.mouseout"/>
                  </use>
                  <path fill="none" stroke="white" stroke-width="1.5" d="M0,-3.0v7 M-2.5,-0.5L0,-3.0L2.5,-0.5"/>
                </g>
                <g id="arrowLeft" xlink:href="#dirArrow" transform="rotate(270) translate(-36 17)" onmousedown="handlePan(-1,0)">
                  <use xlink:href="#rim" fill="#404040">
                        <set attributeName="fill" to="#808080" begin="arrowLeft.mouseover" end="arrowLeft.mouseout"/>
                  </use>
                  <path fill="none" stroke="white" stroke-width="1.5" d="M0,-3.0v7 M-2.5,-0.5L0,-3.0L2.5,-0.5"/>
                </g>
        </g>
        <svg viewBox="0 0 15 15" width="100%" height="30px" preserveAspectRatio="xMaxYMin meet">
         <g id="arrow_out" transform="scale(0.3 0.3)">
          <a xlink:href="classast_1_1_ast_data_writer__inherit__graph_org.svg" target="_base">
           <rect id="button" ry="5" rx="5" y="6" x="6" height="38" width="38"
                fill="#f2f5e9" fill-opacity="0.5" stroke="#606060" stroke-width="1.0"/>
           <path id="arrow"
             d="M 11.500037,31.436501 C 11.940474,20.09759 22.043105,11.32322 32.158766,21.979434 L 37.068811,17.246167 C 37.068811,17.246167 37.088388,32 37.088388,32 L 22.160133,31.978069 C 22.160133,31.978069 26.997745,27.140456 26.997745,27.140456 C 18.528582,18.264221 13.291696,25.230495 11.500037,31.436501 z"
             style="fill:#404040;"/>
          </a>
         </g>
        </svg>
</svg>
