<?xml version="1.0" encoding="UTF-8" standalone="no"?>
<!DOCTYPE svg PUBLIC "-//W3C//DTD SVG 1.1//EN"
 "http://www.w3.org/Graphics/SVG/1.1/DTD/svg11.dtd">
<!-- Generated by graphviz version 2.47.1 (20210417.1919)
 -->
<!-- Title: createVariable Pages: 1 -->
<svg width="605pt" height="142pt"
 viewBox="0.00 0.00 605.00 142.00" xmlns="http://www.w3.org/2000/svg" xmlns:xlink="http://www.w3.org/1999/xlink">
<g id="graph0" class="graph" transform="scale(1 1) rotate(0) translate(4 138)">
<title>createVariable</title>
<polygon fill="white" stroke="transparent" points="-4,4 -4,-138 601,-138 601,4 -4,4"/>
<!-- Node1 -->
<g id="node1" class="node">
<title>Node1</title>
<g id="a_node1"><a xlink:title="与えられた名前文字列に対して一意な新しい変数を生成する．">
<polygon fill="#bfbfbf" stroke="black" points="0,-38.5 0,-57.5 78,-57.5 78,-38.5 0,-38.5"/>
<text text-anchor="middle" x="39" y="-45.5" font-family="Helvetica,sans-Serif" font-size="10.00">createVariable</text>
</a>
</g>
</g>
<!-- Node2 -->
<g id="node2" class="node">
<title>Node2</title>
<g id="a_node2"><a xlink:href="classmachine_1_1_var.html#a67842af23e4d88285781901c867f3388" target="_top" xlink:title="与えられた型のVarのサブクラスのオブジェクトを返すファクトリ手続き．">
<polygon fill="white" stroke="black" points="138.5,-76.5 138.5,-95.5 238.5,-95.5 238.5,-76.5 138.5,-76.5"/>
<text text-anchor="middle" x="188.5" y="-83.5" font-family="Helvetica,sans-Serif" font-size="10.00">machine.Var.create</text>
</a>
</g>
</g>
<!-- Node1&#45;&gt;Node2 -->
<g id="edge1" class="edge">
<title>Node1&#45;&gt;Node2</title>
<path fill="none" stroke="midnightblue" d="M77.22,-57.59C96.51,-62.56 120.26,-68.68 140.77,-73.96"/>
<polygon fill="midnightblue" stroke="midnightblue" points="139.99,-77.37 150.55,-76.48 141.74,-70.6 139.99,-77.37"/>
</g>
<!-- Node7 -->
<g id="node7" class="node">
<title>Node7</title>
<g id="a_node7"><a xlink:href="classmachine_1_1_name_table.html#a7ce78eaf62a8367163e8d43654704405" target="_top" xlink:title="id から名前文字列を返す．">
<polygon fill="white" stroke="black" points="114,-38.5 114,-57.5 263,-57.5 263,-38.5 114,-38.5"/>
<text text-anchor="middle" x="188.5" y="-45.5" font-family="Helvetica,sans-Serif" font-size="10.00">machine.NameTable.getName</text>
</a>
</g>
</g>
<!-- Node1&#45;&gt;Node7 -->
<g id="edge6" class="edge">
<title>Node1&#45;&gt;Node7</title>
<path fill="none" stroke="midnightblue" d="M78.37,-48C86.31,-48 94.96,-48 103.81,-48"/>
<polygon fill="midnightblue" stroke="midnightblue" points="103.86,-51.5 113.86,-48 103.86,-44.5 103.86,-51.5"/>
</g>
<!-- Node8 -->
<g id="node8" class="node">
<title>Node8</title>
<g id="a_node8"><a xlink:href="classmachine_1_1_name_table.html#a37a86e5a03f225a4a36fcbf36fe989f4" target="_top" xlink:title="名前文字列から一意なIDを返す">
<polygon fill="white" stroke="black" points="122,-0.5 122,-19.5 255,-19.5 255,-0.5 122,-0.5"/>
<text text-anchor="middle" x="188.5" y="-7.5" font-family="Helvetica,sans-Serif" font-size="10.00">machine.NameTable.intern</text>
</a>
</g>
</g>
<!-- Node1&#45;&gt;Node8 -->
<g id="edge7" class="edge">
<title>Node1&#45;&gt;Node8</title>
<path fill="none" stroke="midnightblue" d="M77.22,-38.41C96.51,-33.44 120.26,-27.32 140.77,-22.04"/>
<polygon fill="midnightblue" stroke="midnightblue" points="141.74,-25.4 150.55,-19.52 139.99,-18.63 141.74,-25.4"/>
</g>
<!-- Node3 -->
<g id="node3" class="node">
<title>Node3</title>
<g id="a_node3"><a xlink:href="classutil_1_1_util.html#ae411a90dd0a4a15776ea6eb5f0cbae13" target="_top" xlink:title="与えられた文字列を標準出力に印刷して、プログラムを強制停止する。">
<polygon fill="white" stroke="black" points="324,-114.5 324,-133.5 411,-133.5 411,-114.5 324,-114.5"/>
<text text-anchor="middle" x="367.5" y="-121.5" font-family="Helvetica,sans-Serif" font-size="10.00">util.Util.errorExit</text>
</a>
</g>
</g>
<!-- Node2&#45;&gt;Node3 -->
<g id="edge2" class="edge">
<title>Node2&#45;&gt;Node3</title>
<path fill="none" stroke="midnightblue" d="M234.16,-95.59C258.48,-100.81 288.71,-107.3 314.14,-112.76"/>
<polygon fill="midnightblue" stroke="midnightblue" points="313.47,-116.2 323.98,-114.87 314.94,-109.35 313.47,-116.2"/>
</g>
<!-- Node5 -->
<g id="node5" class="node">
<title>Node5</title>
<g id="a_node5"><a xlink:href="enumtype_1_1_x_type.html#af174570c9db775e56490cad7c2d1155f" target="_top" xlink:title="具体型かどうかを返す述語．">
<polygon fill="white" stroke="black" points="299,-76.5 299,-95.5 436,-95.5 436,-76.5 299,-76.5"/>
<text text-anchor="middle" x="367.5" y="-83.5" font-family="Helvetica,sans-Serif" font-size="10.00">type.XType.isConcreteType</text>
</a>
</g>
</g>
<!-- Node2&#45;&gt;Node5 -->
<g id="edge4" class="edge">
<title>Node2&#45;&gt;Node5</title>
<path fill="none" stroke="midnightblue" d="M238.8,-86C254.22,-86 271.63,-86 288.52,-86"/>
<polygon fill="midnightblue" stroke="midnightblue" points="288.94,-89.5 298.94,-86 288.94,-82.5 288.94,-89.5"/>
</g>
<!-- Node6 -->
<g id="node6" class="node">
<title>Node6</title>
<g id="a_node6"><a xlink:href="classmachine_1_1_var.html#a69a87332fa314128243b289ac96e436e" target="_top" xlink:title="Varを生成する.">
<polygon fill="white" stroke="black" points="324,-38.5 324,-57.5 411,-57.5 411,-38.5 324,-38.5"/>
<text text-anchor="middle" x="367.5" y="-45.5" font-family="Helvetica,sans-Serif" font-size="10.00">machine.Var.Var</text>
</a>
</g>
</g>
<!-- Node2&#45;&gt;Node6 -->
<g id="edge5" class="edge">
<title>Node2&#45;&gt;Node6</title>
<path fill="none" stroke="midnightblue" d="M234.16,-76.41C258.48,-71.19 288.71,-64.7 314.14,-59.24"/>
<polygon fill="midnightblue" stroke="midnightblue" points="314.94,-62.65 323.98,-57.13 313.47,-55.8 314.94,-62.65"/>
</g>
<!-- Node4 -->
<g id="node4" class="node">
<title>Node4</title>
<g id="a_node4"><a xlink:href="classutil_1_1_util.html#a7c4b5534ff284b188f83399c344c89c8" target="_top" xlink:title="スタックトレースを出力する。">
<polygon fill="white" stroke="black" points="472,-114.5 472,-133.5 597,-133.5 597,-114.5 472,-114.5"/>
<text text-anchor="middle" x="534.5" y="-121.5" font-family="Helvetica,sans-Serif" font-size="10.00">util.Util.reportStackTrace</text>
</a>
</g>
</g>
<!-- Node3&#45;&gt;Node4 -->
<g id="edge3" class="edge">
<title>Node3&#45;&gt;Node4</title>
<path fill="none" stroke="midnightblue" d="M411.42,-124C426.83,-124 444.64,-124 461.83,-124"/>
<polygon fill="midnightblue" stroke="midnightblue" points="461.84,-127.5 471.84,-124 461.84,-120.5 461.84,-127.5"/>
</g>
</g>
</svg>
