<?xml version="1.0" encoding="UTF-8" standalone="no"?>
<!DOCTYPE svg PUBLIC "-//W3C//DTD SVG 1.1//EN"
 "http://www.w3.org/Graphics/SVG/1.1/DTD/svg11.dtd">
<!-- Generated by graphviz version 2.47.1 (20210417.1919)
 -->
<!-- Title: _childString Pages: 1 -->
<svg width="375pt" height="66pt"
 viewBox="0.00 0.00 375.00 66.00" xmlns="http://www.w3.org/2000/svg" xmlns:xlink="http://www.w3.org/1999/xlink">
<g id="graph0" class="graph" transform="scale(1 1) rotate(0) translate(4 62)">
<title>_childString</title>
<polygon fill="white" stroke="transparent" points="-4,4 -4,-62 371,-62 371,4 -4,4"/>
<!-- Node1 -->
<g id="node1" class="node">
<title>Node1</title>
<g id="a_node1"><a xlink:title="子型の文字列表現を返す。">
<polygon fill="#bfbfbf" stroke="black" points="0,-19.5 0,-38.5 68,-38.5 68,-19.5 0,-19.5"/>
<text text-anchor="middle" x="34" y="-26.5" font-family="Helvetica,sans-Serif" font-size="10.00">_childString</text>
</a>
</g>
</g>
<!-- Node2 -->
<g id="node2" class="node">
<title>Node2</title>
<g id="a_node2"><a xlink:href="classtype_1_1_arrow_type.html#ac225d6807b8e43b3c26adfefaccbe86c" target="_top" xlink:title=" ">
<polygon fill="white" stroke="black" points="138.5,-38.5 138.5,-57.5 175.5,-57.5 175.5,-38.5 138.5,-38.5"/>
<text text-anchor="middle" x="157" y="-45.5" font-family="Helvetica,sans-Serif" font-size="10.00">child</text>
</a>
</g>
</g>
<!-- Node1&#45;&gt;Node2 -->
<g id="edge1" class="edge">
<title>Node1&#45;&gt;Node2</title>
<path fill="none" stroke="midnightblue" d="M68.06,-34.19C86.93,-37.15 110.3,-40.82 128.21,-43.64"/>
<polygon fill="midnightblue" stroke="midnightblue" points="127.89,-47.13 138.31,-45.22 128.97,-40.21 127.89,-47.13"/>
</g>
<!-- Node3 -->
<g id="node3" class="node">
<title>Node3</title>
<g id="a_node3"><a xlink:href="classtype_1_1_type_item.html#ab2779590ca497b3e0b72a642b69a4c9a" target="_top" xlink:title="この型アイテムthisがもつ値型XTypeを返す。">
<polygon fill="white" stroke="black" points="104,-0.5 104,-19.5 210,-19.5 210,-0.5 104,-0.5"/>
<text text-anchor="middle" x="157" y="-7.5" font-family="Helvetica,sans-Serif" font-size="10.00">type.TypeItem.xtype</text>
</a>
</g>
</g>
<!-- Node1&#45;&gt;Node3 -->
<g id="edge2" class="edge">
<title>Node1&#45;&gt;Node3</title>
<path fill="none" stroke="midnightblue" d="M68.06,-23.81C76.1,-22.55 84.95,-21.16 93.85,-19.76"/>
<polygon fill="midnightblue" stroke="midnightblue" points="94.54,-23.19 103.87,-18.19 93.45,-16.28 94.54,-23.19"/>
</g>
<!-- Node4 -->
<g id="node4" class="node">
<title>Node4</title>
<g id="a_node4"><a xlink:href="classtype_1_1_union_find_item.html#a9389ec55354a215f76de769c1e149985" target="_top" xlink:title="与えられた元が属する同値類の代表元を返す。">
<polygon fill="white" stroke="black" points="246,-0.5 246,-19.5 367,-19.5 367,-0.5 246,-0.5"/>
<text text-anchor="middle" x="306.5" y="-7.5" font-family="Helvetica,sans-Serif" font-size="10.00">type.UnionFindItem.find</text>
</a>
</g>
</g>
<!-- Node3&#45;&gt;Node4 -->
<g id="edge3" class="edge">
<title>Node3&#45;&gt;Node4</title>
<path fill="none" stroke="midnightblue" d="M210,-10C218.35,-10 227.1,-10 235.78,-10"/>
<polygon fill="midnightblue" stroke="midnightblue" points="235.91,-13.5 245.91,-10 235.91,-6.5 235.91,-13.5"/>
</g>
<!-- Node4&#45;&gt;Node4 -->
<g id="edge4" class="edge">
<title>Node4&#45;&gt;Node4</title>
<path fill="none" stroke="midnightblue" d="M283.69,-19.76C272.59,-28.57 280.2,-38 306.5,-38 323.76,-38 332.97,-33.94 334.13,-28.65"/>
<polygon fill="midnightblue" stroke="midnightblue" points="337.15,-26.89 329.31,-19.76 330.99,-30.22 337.15,-26.89"/>
</g>
</g>
</svg>
