<?xml version="1.0" encoding="UTF-8" standalone="no"?>
<!DOCTYPE svg PUBLIC "-//W3C//DTD SVG 1.1//EN"
 "http://www.w3.org/Graphics/SVG/1.1/DTD/svg11.dtd">
<!-- Generated by graphviz version 2.38.0 (20140413.2041)
 -->
<!-- Title: Record Pages: 1 -->
<svg width="224pt" height="132pt"
 viewBox="0.00 0.00 223.89 132.00" xmlns="http://www.w3.org/2000/svg" xmlns:xlink="http://www.w3.org/1999/xlink">
<g id="graph0" class="graph" transform="scale(1 1) rotate(0) translate(4 128)">
<title>Record</title>
<polygon fill="white" stroke="none" points="-4,4 -4,-128 219.893,-128 219.893,4 -4,4"/>
<!-- Node1 -->
<g id="node1" class="node"><title>Node1</title>
<g id="a_node1"><a xlink:title="整数を保持するオブジェクト。">
<polygon fill="#bfbfbf" stroke="black" points="117.553,-0.5 117.553,-18.5 165.789,-18.5 165.789,-0.5 117.553,-0.5"/>
<text text-anchor="middle" x="141.671" y="-6.5" font-family="Helvetica,sans-Serif" font-size="10.00">Record</text>
</a>
</g>
</g>
<!-- Node2 -->
<g id="node2" class="node"><title>Node2</title>
<g id="a_node2"><a xlink:href="interfaceutil_1_1_container.html" target="_top" xlink:title=" ">
<polygon fill="white" stroke="black" points="0,-95.5 0,-123.5 101.342,-123.5 101.342,-95.5 0,-95.5"/>
<text text-anchor="start" x="8" y="-111.5" font-family="Helvetica,sans-Serif" font-size="10.00">Container&lt; Integer,</text>
<text text-anchor="middle" x="50.6709" y="-101.5" font-family="Helvetica,sans-Serif" font-size="10.00"> Record &gt;</text>
</a>
</g>
</g>
<!-- Node2&#45;&gt;Node1 -->
<g id="edge1" class="edge"><title>Node2&#45;&gt;Node1</title>
<path fill="none" stroke="midnightblue" d="M69.7834,-87.9173C89.756,-66.4084 120.095,-33.736 134.099,-18.6541"/>
<polygon fill="midnightblue" stroke="midnightblue" points="67.1833,-85.5737 62.9436,-95.2833 72.3129,-90.3369 67.1833,-85.5737"/>
</g>
<!-- Node3 -->
<g id="node3" class="node"><title>Node3</title>
<g id="a_node3"><a xlink:href="enumtype_1_1_x_type.html" target="_top" xlink:title="基本型を表す半順序をもつ列挙型のクラス。">
<polygon fill="white" stroke="black" points="119.494,-100.5 119.494,-118.5 163.848,-118.5 163.848,-100.5 119.494,-100.5"/>
<text text-anchor="middle" x="141.671" y="-106.5" font-family="Helvetica,sans-Serif" font-size="10.00">XType</text>
</a>
</g>
</g>
<!-- Node3&#45;&gt;Node1 -->
<g id="edge2" class="edge"><title>Node3&#45;&gt;Node1</title>
<path fill="none" stroke="#9a32cd" stroke-dasharray="5,2" d="M141.671,-90.4164C141.671,-69.0109 141.671,-34.298 141.671,-18.6306"/>
<polygon fill="#9a32cd" stroke="#9a32cd" points="138.171,-90.4802 141.671,-100.48 145.171,-90.4803 138.171,-90.4802"/>
<text text-anchor="middle" x="146.949" y="-54" font-family="Helvetica,sans-Serif" font-size="10.00"> xt</text>
</g>
<!-- Node4 -->
<g id="node4" class="node"><title>Node4</title>
<g id="a_node4"><a xlink:title=" ">
<polygon fill="white" stroke="#bfbfbf" points="182.171,-100.5 182.171,-118.5 211.171,-118.5 211.171,-100.5 182.171,-100.5"/>
<text text-anchor="middle" x="196.452" y="-106.5" font-family="Helvetica,sans-Serif" font-size="10.00">int</text>
</a>
</g>
</g>
<!-- Node4&#45;&gt;Node1 -->
<g id="edge3" class="edge"><title>Node4&#45;&gt;Node1</title>
<path fill="none" stroke="#9a32cd" stroke-dasharray="5,2" d="M187.077,-91.2944C178.989,-76.8031 167.099,-55.5317 156.671,-37 153.249,-30.9185 149.368,-24.063 146.411,-18.8486"/>
<polygon fill="#9a32cd" stroke="#9a32cd" points="184.076,-93.0988 192.004,-100.127 190.189,-89.6884 184.076,-93.0988"/>
<text text-anchor="middle" x="197.282" y="-69" font-family="Helvetica,sans-Serif" font-size="10.00"> UNDEF</text>
<text text-anchor="middle" x="197.282" y="-59" font-family="Helvetica,sans-Serif" font-size="10.00">val</text>
<text text-anchor="middle" x="197.282" y="-49" font-family="Helvetica,sans-Serif" font-size="10.00">vid</text>
<text text-anchor="middle" x="197.282" y="-39" font-family="Helvetica,sans-Serif" font-size="10.00">fid</text>
</g>
</g>
</svg>
