<?xml version="1.0" encoding="UTF-8" standalone="no"?>
<!DOCTYPE svg PUBLIC "-//W3C//DTD SVG 1.1//EN"
 "http://www.w3.org/Graphics/SVG/1.1/DTD/svg11.dtd">
<!-- Generated by graphviz version 2.38.0 (20140413.2041)
 -->
<!-- Title: reset Pages: 1 -->
<svg width="603pt" height="51pt"
 viewBox="0.00 0.00 603.24 51.00" xmlns="http://www.w3.org/2000/svg" xmlns:xlink="http://www.w3.org/1999/xlink">
<g id="graph0" class="graph" transform="scale(1 1) rotate(0) translate(4 47)">
<title>reset</title>
<polygon fill="white" stroke="none" points="-4,4 -4,-47 599.24,-47 599.24,4 -4,4"/>
<!-- Node1 -->
<g id="node1" class="node"><title>Node1</title>
<g id="a_node1"><a xlink:title="StringBufを空に初期化する。">
<polygon fill="#bfbfbf" stroke="black" points="557.009,-19.5 557.009,-37.5 595.24,-37.5 595.24,-19.5 557.009,-19.5"/>
<text text-anchor="middle" x="576.125" y="-25.5" font-family="Helvetica,sans-Serif" font-size="10.00">reset</text>
</a>
</g>
</g>
<!-- Node2 -->
<g id="node2" class="node"><title>Node2</title>
<g id="a_node2"><a xlink:href="classframe_1_1_string_adder.html#a74cbf449e9d398f172d95c1231700a6a" target="_top" xlink:title="新しいStringAdderを生成して返す。">
<polygon fill="white" stroke="black" points="360.733,-19.5 360.733,-37.5 416.201,-37.5 416.201,-19.5 360.733,-19.5"/>
<text text-anchor="middle" x="388.467" y="-25.5" font-family="Helvetica,sans-Serif" font-size="10.00">manager</text>
</a>
</g>
</g>
<!-- Node1&#45;&gt;Node2 -->
<g id="edge1" class="edge"><title>Node1&#45;&gt;Node2</title>
<path fill="none" stroke="midnightblue" d="M546.837,-28.5C511.385,-28.5 451.068,-28.5 416.308,-28.5"/>
<polygon fill="midnightblue" stroke="midnightblue" points="546.985,-32.0001 556.985,-28.5 546.985,-25.0001 546.985,-32.0001"/>
</g>
<!-- Node5 -->
<g id="node5" class="node"><title>Node5</title>
<g id="a_node5"><a xlink:href="classframe_1_1_string_adder.html#ab12d24eb03a9c7b57fc4351e4cee46b2" target="_top" xlink:title="空のStringBufをもつホルダを生成する。">
<polygon fill="white" stroke="black" points="452.201,-0.5 452.201,-18.5 521.009,-18.5 521.009,-0.5 452.201,-0.5"/>
<text text-anchor="middle" x="486.605" y="-6.5" font-family="Helvetica,sans-Serif" font-size="10.00">StringAdder</text>
</a>
</g>
</g>
<!-- Node1&#45;&gt;Node5 -->
<g id="edge4" class="edge"><title>Node1&#45;&gt;Node5</title>
<path fill="none" stroke="midnightblue" d="M547.134,-22.4235C538.908,-20.6376 529.823,-18.6652 521.28,-16.8107"/>
<polygon fill="midnightblue" stroke="midnightblue" points="546.475,-25.8619 556.99,-24.5632 547.961,-19.0213 546.475,-25.8619"/>
</g>
<!-- Node3 -->
<g id="node3" class="node"><title>Node3</title>
<g id="a_node3"><a xlink:href="classframe_1_1_frame_stack_uni.html#ae6eaac2f39aa5ae1c7724dc2453c57c1" target="_top" xlink:title=" ">
<polygon fill="white" stroke="black" points="179.817,-14.5 179.817,-42.5 324.733,-42.5 324.733,-14.5 179.817,-14.5"/>
<text text-anchor="start" x="187.817" y="-30.5" font-family="Helvetica,sans-Serif" font-size="10.00">frame.FrameStackUni.Frame</text>
<text text-anchor="middle" x="252.275" y="-20.5" font-family="Helvetica,sans-Serif" font-size="10.00">StackUni</text>
</a>
</g>
</g>
<!-- Node2&#45;&gt;Node3 -->
<g id="edge2" class="edge"><title>Node2&#45;&gt;Node3</title>
<path fill="none" stroke="midnightblue" d="M350.53,-28.5C342.483,-28.5 333.706,-28.5 324.824,-28.5"/>
<polygon fill="midnightblue" stroke="midnightblue" points="350.634,-32.0001 360.634,-28.5 350.634,-25.0001 350.634,-32.0001"/>
</g>
<!-- Node4 -->
<g id="node4" class="node"><title>Node4</title>
<g id="a_node4"><a xlink:href="classframe_1_1_frame_stack_uni.html#ac267d53cce93cb73a44fce46d41cec11" target="_top" xlink:title="ファクトリ手続き">
<polygon fill="white" stroke="black" points="0,-19.5 0,-37.5 143.817,-37.5 143.817,-19.5 0,-19.5"/>
<text text-anchor="middle" x="71.9087" y="-25.5" font-family="Helvetica,sans-Serif" font-size="10.00">frame.FrameStackUni.create</text>
</a>
</g>
</g>
<!-- Node3&#45;&gt;Node4 -->
<g id="edge3" class="edge"><title>Node3&#45;&gt;Node4</title>
<path fill="none" stroke="midnightblue" d="M169.695,-28.5C161.072,-28.5 152.353,-28.5 143.864,-28.5"/>
<polygon fill="midnightblue" stroke="midnightblue" points="169.755,-32.0001 179.755,-28.5 169.755,-25.0001 169.755,-32.0001"/>
</g>
<!-- Node5&#45;&gt;Node2 -->
<g id="edge5" class="edge"><title>Node5&#45;&gt;Node2</title>
<path fill="none" stroke="midnightblue" d="M442.169,-18.0845C433.342,-19.8289 424.305,-21.6149 416.263,-23.2043"/>
<polygon fill="midnightblue" stroke="midnightblue" points="442.849,-21.5178 451.981,-16.1453 441.492,-14.6506 442.849,-21.5178"/>
</g>
</g>
</svg>
