<?xml version="1.0" encoding="UTF-8" standalone="no"?>
<!DOCTYPE svg PUBLIC "-//W3C//DTD SVG 1.1//EN"
 "http://www.w3.org/Graphics/SVG/1.1/DTD/svg11.dtd">
<!-- Generated by graphviz version 2.38.0 (20140413.2041)
 -->
<!-- Title: queryParser.IntNumberContext Pages: 1 -->
<svg width="162pt" height="137pt"
 viewBox="0.00 0.00 161.85 137.00" xmlns="http://www.w3.org/2000/svg" xmlns:xlink="http://www.w3.org/1999/xlink">
<g id="graph0" class="graph" transform="scale(1 1) rotate(0) translate(4 133)">
<title>queryParser.IntNumberContext</title>
<polygon fill="white" stroke="none" points="-4,4 -4,-133 157.847,-133 157.847,4 -4,4"/>
<!-- Node1 -->
<g id="node1" class="node"><title>Node1</title>
<g id="a_node1"><a xlink:title=" ">
<polygon fill="#bfbfbf" stroke="black" points="0,-0.5 0,-18.5 153.847,-18.5 153.847,-0.5 0,-0.5"/>
<text text-anchor="middle" x="76.9233" y="-6.5" font-family="Helvetica,sans-Serif" font-size="10.00">queryParser.IntNumberContext</text>
</a>
</g>
</g>
<!-- Node2 -->
<g id="node2" class="node"><title>Node2</title>
<g id="a_node2"><a xlink:href="classparse_1_1query_parser_1_1_number_context.html" target="_top" xlink:title=" ">
<polygon fill="white" stroke="black" points="5.55908,-55.5 5.55908,-73.5 148.288,-73.5 148.288,-55.5 5.55908,-55.5"/>
<text text-anchor="middle" x="76.9233" y="-61.5" font-family="Helvetica,sans-Serif" font-size="10.00">queryParser.NumberContext</text>
</a>
</g>
</g>
<!-- Node2&#45;&gt;Node1 -->
<g id="edge1" class="edge"><title>Node2&#45;&gt;Node1</title>
<path fill="none" stroke="midnightblue" d="M76.9233,-45.1746C76.9233,-36.0945 76.9233,-25.5949 76.9233,-18.5496"/>
<polygon fill="midnightblue" stroke="midnightblue" points="73.4234,-45.2187 76.9233,-55.2188 80.4234,-45.2188 73.4234,-45.2187"/>
</g>
<!-- Node3 -->
<g id="node3" class="node"><title>Node3</title>
<g id="a_node3"><a xlink:title=" ">
<polygon fill="white" stroke="#bfbfbf" points="26.6821,-110.5 26.6821,-128.5 127.165,-128.5 127.165,-110.5 26.6821,-110.5"/>
<text text-anchor="middle" x="76.9233" y="-116.5" font-family="Helvetica,sans-Serif" font-size="10.00">ParserRuleContext</text>
</a>
</g>
</g>
<!-- Node3&#45;&gt;Node2 -->
<g id="edge2" class="edge"><title>Node3&#45;&gt;Node2</title>
<path fill="none" stroke="midnightblue" d="M76.9233,-100.175C76.9233,-91.0945 76.9233,-80.5949 76.9233,-73.5496"/>
<polygon fill="midnightblue" stroke="midnightblue" points="73.4234,-100.219 76.9233,-110.219 80.4234,-100.219 73.4234,-100.219"/>
</g>
</g>
</svg>
