<?xml version="1.0" encoding="UTF-8" standalone="no"?>
<!DOCTYPE svg PUBLIC "-//W3C//DTD SVG 1.1//EN"
 "http://www.w3.org/Graphics/SVG/1.1/DTD/svg11.dtd">
<!-- Generated by graphviz version 2.38.0 (20140413.2041)
 -->
<!-- Title: EventReaderBase.UTFCharSet Pages: 1 -->
<svg width="305pt" height="92pt"
 viewBox="0.00 0.00 305.39 92.00" xmlns="http://www.w3.org/2000/svg" xmlns:xlink="http://www.w3.org/1999/xlink">
<g id="graph0" class="graph" transform="scale(1 1) rotate(0) translate(4 88)">
<title>EventReaderBase.UTFCharSet</title>
<polygon fill="white" stroke="none" points="-4,4 -4,-88 301.391,-88 301.391,4 -4,4"/>
<!-- Node1 -->
<g id="node1" class="node"><title>Node1</title>
<g id="a_node1"><a xlink:title="文字テストをもつ日本語文字集合のクラス。">
<polygon fill="#bfbfbf" stroke="black" points="0,-0.5 0,-18.5 156.063,-18.5 156.063,-0.5 0,-0.5"/>
<text text-anchor="middle" x="78.0317" y="-6.5" font-family="Helvetica,sans-Serif" font-size="10.00">EventReaderBase.UTFCharSet</text>
</a>
</g>
</g>
<!-- Node2 -->
<g id="node2" class="node"><title>Node2</title>
<g id="a_node2"><a xlink:title=" ">
<polygon fill="white" stroke="#bfbfbf" points="2.68945,-65.5 2.68945,-83.5 55.374,-83.5 55.374,-65.5 2.68945,-65.5"/>
<text text-anchor="middle" x="29.0317" y="-71.5" font-family="Helvetica,sans-Serif" font-size="10.00">CharSet</text>
</a>
</g>
</g>
<!-- Node2&#45;&gt;Node1 -->
<g id="edge1" class="edge"><title>Node2&#45;&gt;Node1</title>
<path fill="none" stroke="midnightblue" d="M30.2464,-55.0618C31.3562,-48.898 33.3809,-42.264 37.0317,-37 42.5381,-29.0606 51.2708,-22.9372 59.2644,-18.5868"/>
<polygon fill="midnightblue" stroke="midnightblue" points="26.7401,-54.9189 29.0832,-65.2513 33.6949,-55.7129 26.7401,-54.9189"/>
</g>
<!-- Node2&#45;&gt;Node1 -->
<g id="edge4" class="edge"><title>Node2&#45;&gt;Node1</title>
<path fill="none" stroke="#9a32cd" stroke-dasharray="5,2" d="M41.7763,-57.1142C51.4213,-44.7134 64.2521,-28.2167 71.7792,-18.539"/>
<polygon fill="#9a32cd" stroke="#9a32cd" points="38.8143,-55.2215 35.4376,-65.2639 44.3398,-59.5191 38.8143,-55.2215"/>
<text text-anchor="middle" x="68.1475" y="-39" font-family="Helvetica,sans-Serif" font-size="10.00"> CS0</text>
</g>
<!-- Node3 -->
<g id="node3" class="node"><title>Node3</title>
<g id="a_node3"><a xlink:title=" ">
<polygon fill="white" stroke="#bfbfbf" points="79.9702,-65.5 79.9702,-83.5 122.093,-83.5 122.093,-65.5 79.9702,-65.5"/>
<text text-anchor="middle" x="101.032" y="-71.5" font-family="Helvetica,sans-Serif" font-size="10.00">String</text>
</a>
</g>
</g>
<!-- Node3&#45;&gt;Node1 -->
<g id="edge2" class="edge"><title>Node3&#45;&gt;Node1</title>
<path fill="none" stroke="#9a32cd" stroke-dasharray="5,2" d="M94.5156,-55.6515C90.0583,-43.4424 84.3625,-27.8409 80.9666,-18.539"/>
<polygon fill="#9a32cd" stroke="#9a32cd" points="91.3077,-57.0706 98.0249,-65.2639 97.8832,-54.67 91.3077,-57.0706"/>
<text text-anchor="middle" x="122.526" y="-39" font-family="Helvetica,sans-Serif" font-size="10.00"> TAG_CHARS</text>
</g>
<!-- Node4 -->
<g id="node4" class="node"><title>Node4</title>
<g id="a_node4"><a xlink:title=" ">
<polygon fill="white" stroke="#bfbfbf" points="144.291,-65.5 144.291,-83.5 229.773,-83.5 229.773,-65.5 144.291,-65.5"/>
<text text-anchor="middle" x="187.032" y="-71.5" font-family="Helvetica,sans-Serif" font-size="10.00">io.CharTestable</text>
</a>
</g>
</g>
<!-- Node4&#45;&gt;Node1 -->
<g id="edge3" class="edge"><title>Node4&#45;&gt;Node1</title>
<path fill="none" stroke="#9a32cd" stroke-dasharray="5,2" d="M176.799,-56.6562C171.871,-49.7401 165.422,-42.1612 158.032,-37 145.916,-28.5389 130.908,-22.6293 117.176,-18.5749"/>
<polygon fill="#9a32cd" stroke="#9a32cd" points="174.112,-58.942 182.521,-65.387 179.967,-55.1047 174.112,-58.942"/>
<text text-anchor="middle" x="233.211" y="-39" font-family="Helvetica,sans-Serif" font-size="10.00"> MASK_NON_NAMECHARS</text>
</g>
</g>
</svg>
