<?xml version="1.0" encoding="UTF-8" standalone="no"?>
<!DOCTYPE svg PUBLIC "-//W3C//DTD SVG 1.1//EN"
 "http://www.w3.org/Graphics/SVG/1.1/DTD/svg11.dtd">
<!-- Generated by graphviz version 2.47.1 (20210417.1919)
 -->
<!-- Title: StackBase&lt; T &gt; Pages: 1 -->
<svg width="454pt" height="385pt"
 viewBox="0.00 0.00 454.00 385.00" xmlns="http://www.w3.org/2000/svg" xmlns:xlink="http://www.w3.org/1999/xlink">
<g id="graph0" class="graph" transform="scale(1 1) rotate(0) translate(4 381)">
<title>StackBase&lt; T &gt;</title>
<polygon fill="white" stroke="transparent" points="-4,4 -4,-381 450,-381 450,4 -4,4"/>
<!-- Node1 -->
<g id="node1" class="node">
<title>Node1</title>
<g id="a_node1"><a xlink:title="型 T の要素を保持する汎用型のスタックの基本実装.">
<polygon fill="#bfbfbf" stroke="black" points="357,-205.5 357,-224.5 446,-224.5 446,-205.5 357,-205.5"/>
<text text-anchor="middle" x="401.5" y="-212.5" font-family="Helvetica,sans-Serif" font-size="10.00">StackBase&lt; T &gt;</text>
</a>
</g>
</g>
<!-- Node2 -->
<g id="node2" class="node">
<title>Node2</title>
<g id="a_node2"><a xlink:href="interfaceutil_1_1_stackable.html" target="_top" xlink:title="レベル付きスタックを実装するための最小限のインタフェース">
<polygon fill="white" stroke="black" points="157.5,-357.5 157.5,-376.5 217.5,-376.5 217.5,-357.5 157.5,-357.5"/>
<text text-anchor="middle" x="187.5" y="-364.5" font-family="Helvetica,sans-Serif" font-size="10.00">Stackable</text>
</a>
</g>
</g>
<!-- Node2&#45;&gt;Node1 -->
<g id="edge1" class="edge">
<title>Node2&#45;&gt;Node1</title>
<path fill="none" stroke="midnightblue" d="M227.63,-362.5C260.4,-356.99 306.85,-344.96 339,-319 371.31,-292.91 390.43,-244.96 397.44,-224.58"/>
<polygon fill="midnightblue" stroke="midnightblue" points="226.85,-359.07 217.5,-364.06 227.92,-365.99 226.85,-359.07"/>
</g>
<!-- Node3 -->
<g id="node3" class="node">
<title>Node3</title>
<g id="a_node3"><a xlink:href="class_iterable.html" target="_top" xlink:title=" ">
<polygon fill="white" stroke="black" points="151,-319.5 151,-338.5 224,-338.5 224,-319.5 151,-319.5"/>
<text text-anchor="middle" x="187.5" y="-326.5" font-family="Helvetica,sans-Serif" font-size="10.00">Iterable&lt; T &gt;</text>
</a>
</g>
</g>
<!-- Node3&#45;&gt;Node1 -->
<g id="edge2" class="edge">
<title>Node3&#45;&gt;Node1</title>
<path fill="none" stroke="midnightblue" d="M234.46,-325.49C265.94,-321.3 307.54,-312.12 339,-292 366.1,-274.67 386.56,-241.27 395.52,-224.74"/>
<polygon fill="midnightblue" stroke="midnightblue" points="233.71,-322.05 224.2,-326.73 234.55,-329 233.71,-322.05"/>
</g>
<!-- Node4 -->
<g id="node4" class="node">
<title>Node4</title>
<g id="a_node4"><a xlink:title=" ">
<polygon fill="white" stroke="#bfbfbf" points="166.5,-281.5 166.5,-300.5 208.5,-300.5 208.5,-281.5 166.5,-281.5"/>
<text text-anchor="middle" x="187.5" y="-288.5" font-family="Helvetica,sans-Serif" font-size="10.00">String</text>
</a>
</g>
</g>
<!-- Node4&#45;&gt;Node1 -->
<g id="edge3" class="edge">
<title>Node4&#45;&gt;Node1</title>
<path fill="none" stroke="#9a32cd" stroke-dasharray="5,2" d="M218.91,-287.2C250.04,-282.57 299.36,-273.15 339,-256 357.84,-247.85 377.16,-233.87 388.99,-224.53"/>
<polygon fill="#9a32cd" stroke="#9a32cd" points="218.11,-283.78 208.7,-288.65 219.09,-290.71 218.11,-283.78"/>
<text text-anchor="middle" x="304.5" y="-280" font-family="Helvetica,sans-Serif" font-size="10.00"> DELIM</text>
</g>
<!-- Node5 -->
<g id="node5" class="node">
<title>Node5</title>
<g id="a_node5"><a xlink:title=" ">
<polygon fill="white" stroke="#bfbfbf" points="147.5,-243.5 147.5,-262.5 227.5,-262.5 227.5,-243.5 147.5,-243.5"/>
<text text-anchor="middle" x="187.5" y="-250.5" font-family="Helvetica,sans-Serif" font-size="10.00">ArrayList&lt; T &gt;</text>
</a>
</g>
</g>
<!-- Node5&#45;&gt;Node1 -->
<g id="edge4" class="edge">
<title>Node5&#45;&gt;Node1</title>
<path fill="none" stroke="#9a32cd" stroke-dasharray="5,2" d="M237.69,-246.59C267.18,-242.47 305.37,-236.66 339,-230 346.98,-228.42 355.48,-226.5 363.54,-224.57"/>
<polygon fill="#9a32cd" stroke="#9a32cd" points="237.07,-243.14 227.64,-247.98 238.03,-250.08 237.07,-243.14"/>
<text text-anchor="middle" x="304.5" y="-244" font-family="Helvetica,sans-Serif" font-size="10.00"> A</text>
</g>
<!-- Node6 -->
<g id="node6" class="node">
<title>Node6</title>
<g id="a_node6"><a xlink:href="classutil_1_1_stack_base.html" target="_top" xlink:title=" ">
<polygon fill="white" stroke="black" points="131,-205.5 131,-224.5 244,-224.5 244,-205.5 131,-205.5"/>
<text text-anchor="middle" x="187.5" y="-212.5" font-family="Helvetica,sans-Serif" font-size="10.00">StackBase&lt; Integer &gt;</text>
</a>
</g>
</g>
<!-- Node6&#45;&gt;Node1 -->
<g id="edge5" class="edge">
<title>Node6&#45;&gt;Node1</title>
<path fill="none" stroke="#9a32cd" stroke-dasharray="5,2" d="M254.34,-215C287.71,-215 327.32,-215 356.87,-215"/>
<polygon fill="#9a32cd" stroke="#9a32cd" points="254.2,-211.5 244.2,-215 254.2,-218.5 254.2,-211.5"/>
<text text-anchor="middle" x="304.5" y="-218" font-family="Helvetica,sans-Serif" font-size="10.00"> SB</text>
</g>
<!-- Node7 -->
<g id="node7" class="node">
<title>Node7</title>
<g id="a_node7"><a xlink:title=" ">
<polygon fill="white" stroke="#bfbfbf" points="0,-99.5 0,-118.5 29,-118.5 29,-99.5 0,-99.5"/>
<text text-anchor="middle" x="14.5" y="-106.5" font-family="Helvetica,sans-Serif" font-size="10.00">int</text>
</a>
</g>
</g>
<!-- Node7&#45;&gt;Node1 -->
<g id="edge6" class="edge">
<title>Node7&#45;&gt;Node1</title>
<path fill="none" stroke="#9a32cd" stroke-dasharray="5,2" d="M39.07,-116.19C41.73,-116.87 44.41,-117.49 47,-118 136.94,-135.77 164.07,-115.05 252,-141 303.94,-156.33 359.68,-189.05 385.63,-205.36"/>
<polygon fill="#9a32cd" stroke="#9a32cd" points="39.75,-112.75 29.18,-113.45 37.88,-119.49 39.75,-112.75"/>
<text text-anchor="middle" x="187.5" y="-188" font-family="Helvetica,sans-Serif" font-size="10.00"> DEFAULT_INIT_CAPACITY</text>
<text text-anchor="middle" x="187.5" y="-177" font-family="Helvetica,sans-Serif" font-size="10.00">GROWTH_FACTOR</text>
<text text-anchor="middle" x="187.5" y="-166" font-family="Helvetica,sans-Serif" font-size="10.00">UNDEF</text>
<text text-anchor="middle" x="187.5" y="-155" font-family="Helvetica,sans-Serif" font-size="10.00">maxlen_</text>
<text text-anchor="middle" x="187.5" y="-144" font-family="Helvetica,sans-Serif" font-size="10.00">top_</text>
</g>
<!-- Node9 -->
<g id="node9" class="node">
<title>Node9</title>
<g id="a_node9"><a xlink:href="classutil_1_1_stack_base_1_1_stat.html" target="_top" xlink:title="統計用クラス.">
<polygon fill="white" stroke="black" points="132.5,-76.5 132.5,-95.5 242.5,-95.5 242.5,-76.5 132.5,-76.5"/>
<text text-anchor="middle" x="187.5" y="-83.5" font-family="Helvetica,sans-Serif" font-size="10.00">StackBase&lt; T &gt;.Stat</text>
</a>
</g>
</g>
<!-- Node7&#45;&gt;Node9 -->
<g id="edge9" class="edge">
<title>Node7&#45;&gt;Node9</title>
<path fill="none" stroke="#9a32cd" stroke-dasharray="5,2" d="M38.77,-98.44C41.5,-97.48 44.29,-96.64 47,-96 74.65,-89.48 106.17,-86.83 132.24,-85.88"/>
<polygon fill="#9a32cd" stroke="#9a32cd" points="37.31,-95.25 29.29,-102.19 39.88,-101.76 37.31,-95.25"/>
<text text-anchor="middle" x="76" y="-110" font-family="Helvetica,sans-Serif" font-size="10.00"> countGen</text>
<text text-anchor="middle" x="76" y="-99" font-family="Helvetica,sans-Serif" font-size="10.00">maxArrayLen</text>
</g>
<!-- Node8 -->
<g id="node8" class="node">
<title>Node8</title>
<g id="a_node8"><a xlink:title=" ">
<polygon fill="white" stroke="#bfbfbf" points="162.5,-38.5 162.5,-57.5 212.5,-57.5 212.5,-38.5 162.5,-38.5"/>
<text text-anchor="middle" x="187.5" y="-45.5" font-family="Helvetica,sans-Serif" font-size="10.00">boolean</text>
</a>
</g>
</g>
<!-- Node8&#45;&gt;Node1 -->
<g id="edge7" class="edge">
<title>Node8&#45;&gt;Node1</title>
<path fill="none" stroke="#9a32cd" stroke-dasharray="5,2" d="M222.75,-44.02C255.88,-42.08 305.8,-44.37 339,-70 384.02,-104.75 396.48,-178.76 399.57,-205.28"/>
<polygon fill="#9a32cd" stroke="#9a32cd" points="222.34,-40.55 212.63,-44.78 222.86,-47.53 222.34,-40.55"/>
<text text-anchor="middle" x="304.5" y="-73" font-family="Helvetica,sans-Serif" font-size="10.00"> DEBUG_EVAL</text>
</g>
<!-- Node9&#45;&gt;Node1 -->
<g id="edge8" class="edge">
<title>Node9&#45;&gt;Node1</title>
<path fill="none" stroke="#9a32cd" stroke-dasharray="5,2" d="M253.07,-82.64C281.54,-84.11 314.11,-90.12 339,-107 374.72,-131.22 392.16,-183.51 398.09,-205.23"/>
<polygon fill="#9a32cd" stroke="#9a32cd" points="252.9,-79.13 242.79,-82.29 252.66,-86.12 252.9,-79.13"/>
<text text-anchor="middle" x="304.5" y="-110" font-family="Helvetica,sans-Serif" font-size="10.00"> stat</text>
</g>
<!-- Node10 -->
<g id="node10" class="node">
<title>Node10</title>
<g id="a_node10"><a xlink:title=" ">
<polygon fill="white" stroke="#bfbfbf" points="173,-0.5 173,-19.5 202,-19.5 202,-0.5 173,-0.5"/>
<text text-anchor="middle" x="187.5" y="-7.5" font-family="Helvetica,sans-Serif" font-size="10.00">T</text>
</a>
</g>
</g>
<!-- Node10&#45;&gt;Node1 -->
<g id="edge10" class="edge">
<title>Node10&#45;&gt;Node1</title>
<path fill="none" stroke="#9a32cd" stroke-dasharray="5,2" d="M212.4,-6.24C244.9,-2.54 303.09,-1.15 339,-31 394.43,-77.07 400.16,-174.69 400.55,-205.49"/>
<polygon fill="#9a32cd" stroke="#9a32cd" points="211.89,-2.77 202.43,-7.54 212.8,-9.71 211.89,-2.77"/>
<text text-anchor="middle" x="304.5" y="-34" font-family="Helvetica,sans-Serif" font-size="10.00"> initval</text>
</g>
</g>
</svg>
