<?xml version="1.0" encoding="UTF-8" standalone="no"?>
<!DOCTYPE svg PUBLIC "-//W3C//DTD SVG 1.1//EN"
 "http://www.w3.org/Graphics/SVG/1.1/DTD/svg11.dtd">
<!-- Generated by graphviz version 2.47.0 (20210316.0004)
 -->
<!-- Title: TraceLevel Pages: 1 -->
<svg width="313pt" height="150pt"
 viewBox="0.00 0.00 313.00 150.00" xmlns="http://www.w3.org/2000/svg" xmlns:xlink="http://www.w3.org/1999/xlink">
<g id="graph0" class="graph" transform="scale(1 1) rotate(0) translate(4 146)">
<title>TraceLevel</title>
<polygon fill="white" stroke="transparent" points="-4,4 -4,-146 309,-146 309,4 -4,4"/>
<!-- Node1 -->
<g id="node1" class="node">
<title>Node1</title>
<g id="a_node1"><a xlink:title="ログ出力用のトレースレベルを扱うクラス。">
<polygon fill="#bfbfbf" stroke="black" points="110.5,-0.5 110.5,-19.5 175.5,-19.5 175.5,-0.5 110.5,-0.5"/>
<text text-anchor="middle" x="143" y="-7.5" font-family="Helvetica,sans-Serif" font-size="10.00">TraceLevel</text>
</a>
</g>
</g>
<!-- Node2 -->
<g id="node2" class="node">
<title>Node2</title>
<g id="a_node2"><a xlink:title=" ">
<polygon fill="white" stroke="#bfbfbf" points="0,-117 0,-136 42,-136 42,-117 0,-117"/>
<text text-anchor="middle" x="21" y="-124" font-family="Helvetica,sans-Serif" font-size="10.00">String</text>
</a>
</g>
</g>
<!-- Node2&#45;&gt;Node1 -->
<g id="edge1" class="edge">
<title>Node2&#45;&gt;Node1</title>
<path fill="none" stroke="#9a32cd" stroke-dasharray="5,2" d="M19.76,-106.8C19.53,-87.08 22.38,-56.39 40,-38 58.03,-19.18 87.45,-12.9 110.24,-11.06"/>
<polygon fill="#9a32cd" stroke="#9a32cd" points="16.27,-107.11 20.17,-116.96 23.27,-106.83 16.27,-107.11"/>
<text text-anchor="middle" x="89.5" y="-85" font-family="Helvetica,sans-Serif" font-size="10.00"> DELIM_LEVELS</text>
<text text-anchor="middle" x="89.5" y="-74" font-family="Helvetica,sans-Serif" font-size="10.00">DELIM_NAMES</text>
<text text-anchor="middle" x="89.5" y="-63" font-family="Helvetica,sans-Serif" font-size="10.00">MOD_DEFAULT</text>
<text text-anchor="middle" x="89.5" y="-52" font-family="Helvetica,sans-Serif" font-size="10.00">OUT_DELIM_NAMES</text>
<text text-anchor="middle" x="89.5" y="-41" font-family="Helvetica,sans-Serif" font-size="10.00">USAGE_STR</text>
</g>
<!-- Node3 -->
<g id="node3" class="node">
<title>Node3</title>
<g id="a_node3"><a xlink:title=" ">
<polygon fill="white" stroke="#bfbfbf" points="71.5,-111.5 71.5,-141.5 214.5,-141.5 214.5,-111.5 71.5,-111.5"/>
<text text-anchor="start" x="79.5" y="-129.5" font-family="Helvetica,sans-Serif" font-size="10.00">Map&lt; String, util.TraceLevel.</text>
<text text-anchor="middle" x="143" y="-118.5" font-family="Helvetica,sans-Serif" font-size="10.00">Level &gt;</text>
</a>
</g>
</g>
<!-- Node3&#45;&gt;Node1 -->
<g id="edge2" class="edge">
<title>Node3&#45;&gt;Node1</title>
<path fill="none" stroke="#9a32cd" stroke-dasharray="5,2" d="M143,-101.43C143,-75.84 143,-36.76 143,-19.59"/>
<polygon fill="#9a32cd" stroke="#9a32cd" points="139.5,-101.46 143,-111.46 146.5,-101.46 139.5,-101.46"/>
<text text-anchor="middle" x="166" y="-63" font-family="Helvetica,sans-Serif" font-size="10.00"> mapLevel</text>
</g>
<!-- Node4 -->
<g id="node4" class="node">
<title>Node4</title>
<g id="a_node4"><a xlink:title=" ">
<polygon fill="white" stroke="#bfbfbf" points="233,-117 233,-136 283,-136 283,-117 233,-117"/>
<text text-anchor="middle" x="258" y="-124" font-family="Helvetica,sans-Serif" font-size="10.00">boolean</text>
</a>
</g>
</g>
<!-- Node4&#45;&gt;Node1 -->
<g id="edge3" class="edge">
<title>Node4&#45;&gt;Node1</title>
<path fill="none" stroke="#9a32cd" stroke-dasharray="5,2" d="M248.19,-108.01C236.84,-88.95 216.64,-58.46 193,-38 184.35,-30.51 173.27,-24.26 163.74,-19.67"/>
<polygon fill="#9a32cd" stroke="#9a32cd" points="245.25,-109.92 253.29,-116.82 251.31,-106.41 245.25,-109.92"/>
<text text-anchor="middle" x="271" y="-63" font-family="Helvetica,sans-Serif" font-size="10.00"> DEBUG_MOD</text>
</g>
</g>
</svg>
