<?xml version="1.0" encoding="UTF-8" standalone="no"?>
<!DOCTYPE svg PUBLIC "-//W3C//DTD SVG 1.1//EN"
 "http://www.w3.org/Graphics/SVG/1.1/DTD/svg11.dtd">
<!-- Generated by graphviz version 2.47.0 (20210316.0004)
 -->
<!-- Title: Bufs Pages: 1 -->
<svg width="314pt" height="106pt"
 viewBox="0.00 0.00 314.00 106.00" xmlns="http://www.w3.org/2000/svg" xmlns:xlink="http://www.w3.org/1999/xlink">
<g id="graph0" class="graph" transform="scale(1 1) rotate(0) translate(4 102)">
<title>Bufs</title>
<polygon fill="white" stroke="transparent" points="-4,4 -4,-102 310,-102 310,4 -4,4"/>
<!-- Node1 -->
<g id="node1" class="node">
<title>Node1</title>
<g id="a_node1"><a xlink:title="各種の清書バッファの管理オブジェクトを提供するオブジェクトプール。">
<polygon fill="#bfbfbf" stroke="black" points="129.5,-0.5 129.5,-19.5 166.5,-19.5 166.5,-0.5 129.5,-0.5"/>
<text text-anchor="middle" x="148" y="-7.5" font-family="Helvetica,sans-Serif" font-size="10.00">Bufs</text>
</a>
</g>
</g>
<!-- Node2 -->
<g id="node2" class="node">
<title>Node2</title>
<g id="a_node2"><a xlink:href="classutil_1_1_recycle_manager.html" target="_top" xlink:title=" ">
<polygon fill="white" stroke="black" points="0,-67.5 0,-97.5 140,-97.5 140,-67.5 0,-67.5"/>
<text text-anchor="start" x="8" y="-85.5" font-family="Helvetica,sans-Serif" font-size="10.00">RecycleManager&lt; util.String</text>
<text text-anchor="middle" x="70" y="-74.5" font-family="Helvetica,sans-Serif" font-size="10.00">Buf &gt;</text>
</a>
</g>
</g>
<!-- Node2&#45;&gt;Node1 -->
<g id="edge1" class="edge">
<title>Node2&#45;&gt;Node1</title>
<path fill="none" stroke="#9a32cd" stroke-dasharray="5,2" d="M87.46,-59.3C93.59,-52.13 100.76,-44.39 108,-38 115.79,-31.12 125.42,-24.57 133.27,-19.65"/>
<polygon fill="#9a32cd" stroke="#9a32cd" points="84.49,-57.4 80.8,-67.34 89.88,-61.87 84.49,-57.4"/>
<text text-anchor="middle" x="156.5" y="-41" font-family="Helvetica,sans-Serif" font-size="10.00"> theStringBufRecycler</text>
</g>
<!-- Node3 -->
<g id="node3" class="node">
<title>Node3</title>
<g id="a_node3"><a xlink:href="classutil_1_1_recycle_manager.html" target="_top" xlink:title=" ">
<polygon fill="white" stroke="black" points="158.5,-67.5 158.5,-97.5 295.5,-97.5 295.5,-67.5 158.5,-67.5"/>
<text text-anchor="start" x="166.5" y="-85.5" font-family="Helvetica,sans-Serif" font-size="10.00">RecycleManager&lt; util.Yaml</text>
<text text-anchor="middle" x="227" y="-74.5" font-family="Helvetica,sans-Serif" font-size="10.00">Buf &gt;</text>
</a>
</g>
</g>
<!-- Node3&#45;&gt;Node1 -->
<g id="edge2" class="edge">
<title>Node3&#45;&gt;Node1</title>
<path fill="none" stroke="#9a32cd" stroke-dasharray="5,2" d="M218.66,-58.15C215.26,-51.03 210.75,-43.6 205,-38 194.26,-27.53 178.69,-20.53 166.53,-16.29"/>
<polygon fill="#9a32cd" stroke="#9a32cd" points="215.49,-59.65 222.62,-67.49 221.94,-56.92 215.49,-59.65"/>
<text text-anchor="middle" x="259.5" y="-41" font-family="Helvetica,sans-Serif" font-size="10.00"> theYamlBufRecycler</text>
</g>
</g>
</svg>
