<?xml version="1.0" encoding="UTF-8" standalone="no"?>
<!DOCTYPE svg PUBLIC "-//W3C//DTD SVG 1.1//EN"
 "http://www.w3.org/Graphics/SVG/1.1/DTD/svg11.dtd">
<!-- Generated by graphviz version 2.38.0 (20140413.2041)
 -->
<!-- Title: addPost Pages: 1 -->
<svg width="209pt" height="64pt"
 viewBox="0.00 0.00 209.41 64.00" xmlns="http://www.w3.org/2000/svg" xmlns:xlink="http://www.w3.org/1999/xlink">
<g id="graph0" class="graph" transform="scale(1 1) rotate(0) translate(4 60)">
<title>addPost</title>
<polygon fill="white" stroke="none" points="-4,4 -4,-60 205.408,-60 205.408,4 -4,4"/>
<!-- Node1 -->
<g id="node1" class="node"><title>Node1</title>
<g id="a_node1"><a xlink:title="ステップのpostコードに，命令を追加する．">
<polygon fill="#bfbfbf" stroke="black" points="0,-18.5 0,-36.5 52.6943,-36.5 52.6943,-18.5 0,-18.5"/>
<text text-anchor="middle" x="26.3472" y="-24.5" font-family="Helvetica,sans-Serif" font-size="10.00">addPost</text>
</a>
</g>
</g>
<!-- Node2 -->
<g id="node2" class="node"><title>Node2</title>
<g id="a_node2"><a xlink:href="classmachine_1_1_cmd_list.html#af35aef48754436b688373f714f948a51" target="_top" xlink:title="命令cmdをリストに追加する．">
<polygon fill="white" stroke="black" points="88.6943,-37.5 88.6943,-55.5 201.408,-55.5 201.408,-37.5 88.6943,-37.5"/>
<text text-anchor="middle" x="145.051" y="-43.5" font-family="Helvetica,sans-Serif" font-size="10.00">machine.CmdList.add</text>
</a>
</g>
</g>
<!-- Node1&#45;&gt;Node2 -->
<g id="edge1" class="edge"><title>Node1&#45;&gt;Node2</title>
<path fill="none" stroke="midnightblue" d="M52.9584,-31.6696C60.5634,-32.9078 69.2655,-34.3245 78.2062,-35.7801"/>
<polygon fill="midnightblue" stroke="midnightblue" points="77.9237,-39.2801 88.3562,-37.4326 79.0486,-32.3711 77.9237,-39.2801"/>
</g>
<!-- Node3 -->
<g id="node3" class="node"><title>Node3</title>
<g id="a_node3"><a xlink:href="classast_1_1_step.html#a2cc39cd793cb2da90c7fbad24639155b" target="_top" xlink:title="ステップのpostコードを返す．">
<polygon fill="white" stroke="black" points="120.096,-0.5 120.096,-18.5 170.007,-18.5 170.007,-0.5 120.096,-0.5"/>
<text text-anchor="middle" x="145.051" y="-6.5" font-family="Helvetica,sans-Serif" font-size="10.00">getPost</text>
</a>
</g>
</g>
<!-- Node1&#45;&gt;Node3 -->
<g id="edge2" class="edge"><title>Node1&#45;&gt;Node3</title>
<path fill="none" stroke="midnightblue" d="M52.9584,-23.5498C69.751,-20.9598 91.8924,-17.5448 110.141,-14.7302"/>
<polygon fill="midnightblue" stroke="midnightblue" points="110.743,-18.1789 120.092,-13.1954 109.676,-11.2607 110.743,-18.1789"/>
</g>
</g>
</svg>
