<?xml version="1.0" encoding="UTF-8" standalone="no"?>
<!DOCTYPE svg PUBLIC "-//W3C//DTD SVG 1.1//EN"
 "http://www.w3.org/Graphics/SVG/1.1/DTD/svg11.dtd">
<!-- Generated by graphviz version 2.47.1 (20210417.1919)
 -->
<!-- Title: gencode Pages: 1 -->
<svg width="414pt" height="113pt"
 viewBox="0.00 0.00 414.00 112.50" xmlns="http://www.w3.org/2000/svg" xmlns:xlink="http://www.w3.org/1999/xlink">
<g id="graph0" class="graph" transform="scale(1 1) rotate(0) translate(4 108.5)">
<title>gencode</title>
<polygon fill="white" stroke="transparent" points="-4,4 -4,-108.5 410,-108.5 410,4 -4,4"/>
<!-- Node1 -->
<g id="node1" class="node">
<title>Node1</title>
<g id="a_node1"><a xlink:title="受取りコード末尾に生成したコードを追加する．">
<polygon fill="#bfbfbf" stroke="black" points="0,-57.5 0,-76.5 53,-76.5 53,-57.5 0,-57.5"/>
<text text-anchor="middle" x="26.5" y="-64.5" font-family="Helvetica,sans-Serif" font-size="10.00">gencode</text>
</a>
</g>
</g>
<!-- Node2 -->
<g id="node2" class="node">
<title>Node2</title>
<g id="a_node2"><a xlink:href="classcmd_1_1_cmd_list_1_1_back_patcher.html#a949e51cc984e37f5c091e0a5aaae3637" target="_top" xlink:title="飛び先のラベルをキーとして、コマンドを辞書とコードに登録する。">
<polygon fill="white" stroke="black" points="89,-74 89,-104 241,-104 241,-74 89,-74"/>
<text text-anchor="start" x="97" y="-92" font-family="Helvetica,sans-Serif" font-size="10.00">cmd.CmdList.BackPatcher.add</text>
<text text-anchor="middle" x="165" y="-81" font-family="Helvetica,sans-Serif" font-size="10.00">LabeledCommandToCode</text>
</a>
</g>
</g>
<!-- Node1&#45;&gt;Node2 -->
<g id="edge1" class="edge">
<title>Node1&#45;&gt;Node2</title>
<path fill="none" stroke="midnightblue" d="M53.17,-71.14C60.77,-72.36 69.55,-73.78 78.76,-75.26"/>
<polygon fill="midnightblue" stroke="midnightblue" points="78.47,-78.76 88.9,-76.9 79.58,-71.85 78.47,-78.76"/>
</g>
<!-- Node4 -->
<g id="node4" class="node">
<title>Node4</title>
<g id="a_node4"><a xlink:href="classast_1_1_sent_list.html#a383612fb2c1d291f6f3f9c352a5cb262" target="_top" xlink:title="受取りコード末尾に生成したコードを追加する．">
<polygon fill="white" stroke="black" points="110.5,-35.5 110.5,-54.5 219.5,-54.5 219.5,-35.5 110.5,-35.5"/>
<text text-anchor="middle" x="165" y="-42.5" font-family="Helvetica,sans-Serif" font-size="10.00">ast.SentList.gencode</text>
</a>
</g>
</g>
<!-- Node1&#45;&gt;Node4 -->
<g id="edge3" class="edge">
<title>Node1&#45;&gt;Node4</title>
<path fill="none" stroke="midnightblue" d="M53.17,-62.86C66.54,-60.71 83.54,-57.97 100.18,-55.29"/>
<polygon fill="midnightblue" stroke="midnightblue" points="101.14,-58.68 110.46,-53.63 100.03,-51.77 101.14,-58.68"/>
</g>
<!-- Node3 -->
<g id="node3" class="node">
<title>Node3</title>
<g id="a_node3"><a xlink:href="classcmd_1_1_cmd_list.html#af84e059067b66a9c4831a48ffef37ec0" target="_top" xlink:title="命令cmdをリストに追加する．">
<polygon fill="white" stroke="black" points="294.5,-79.5 294.5,-98.5 388.5,-98.5 388.5,-79.5 294.5,-79.5"/>
<text text-anchor="middle" x="341.5" y="-86.5" font-family="Helvetica,sans-Serif" font-size="10.00">cmd.CmdList.add</text>
</a>
</g>
</g>
<!-- Node2&#45;&gt;Node3 -->
<g id="edge2" class="edge">
<title>Node2&#45;&gt;Node3</title>
<path fill="none" stroke="midnightblue" d="M241.02,-89C255.44,-89 270.33,-89 284.04,-89"/>
<polygon fill="midnightblue" stroke="midnightblue" points="284.28,-92.5 294.28,-89 284.28,-85.5 284.28,-92.5"/>
</g>
<!-- Node5 -->
<g id="node5" class="node">
<title>Node5</title>
<g id="a_node5"><a xlink:href="classast_1_1_ast_node.html#a35d53cdd86285e56b69cfedc5ef28580" target="_top" xlink:title="i番目の子供を返す.">
<polygon fill="white" stroke="black" points="286.5,-38.5 286.5,-57.5 396.5,-57.5 396.5,-38.5 286.5,-38.5"/>
<text text-anchor="middle" x="341.5" y="-45.5" font-family="Helvetica,sans-Serif" font-size="10.00">ast.AstNode.getChild</text>
</a>
</g>
</g>
<!-- Node4&#45;&gt;Node5 -->
<g id="edge4" class="edge">
<title>Node4&#45;&gt;Node5</title>
<path fill="none" stroke="midnightblue" d="M219.78,-45.92C237.61,-46.23 257.63,-46.58 276.17,-46.89"/>
<polygon fill="midnightblue" stroke="midnightblue" points="276.24,-50.4 286.3,-47.07 276.36,-43.4 276.24,-50.4"/>
</g>
<!-- Node6 -->
<g id="node6" class="node">
<title>Node6</title>
<g id="a_node6"><a xlink:href="classast_1_1_ast_node.html#a43b257b2ab32fc064fad0355c7dc327d" target="_top" xlink:title="子供の数を返す.">
<polygon fill="white" stroke="black" points="277,-0.5 277,-19.5 406,-19.5 406,-0.5 277,-0.5"/>
<text text-anchor="middle" x="341.5" y="-7.5" font-family="Helvetica,sans-Serif" font-size="10.00">ast.AstNode.numChildren</text>
</a>
</g>
</g>
<!-- Node4&#45;&gt;Node6 -->
<g id="edge5" class="edge">
<title>Node4&#45;&gt;Node6</title>
<path fill="none" stroke="midnightblue" d="M213.68,-35.44C235.03,-31.15 260.4,-26.07 282.81,-21.57"/>
<polygon fill="midnightblue" stroke="midnightblue" points="283.76,-24.95 292.87,-19.55 282.38,-18.09 283.76,-24.95"/>
</g>
</g>
</svg>
