<?xml version="1.0" encoding="UTF-8" standalone="no"?>
<!DOCTYPE svg PUBLIC "-//W3C//DTD SVG 1.1//EN"
 "http://www.w3.org/Graphics/SVG/1.1/DTD/svg11.dtd">
<!-- Generated by graphviz version 2.38.0 (20140413.2041)
 -->
<!-- Title: queryParser.NumberContext Pages: 1 -->
<svg width="344pt" height="137pt"
 viewBox="0.00 0.00 344.40 137.00" xmlns="http://www.w3.org/2000/svg" xmlns:xlink="http://www.w3.org/1999/xlink">
<g id="graph0" class="graph" transform="scale(1 1) rotate(0) translate(4 133)">
<title>queryParser.NumberContext</title>
<polygon fill="white" stroke="none" points="-4,4 -4,-133 340.403,-133 340.403,4 -4,4"/>
<!-- Node1 -->
<g id="node1" class="node"><title>Node1</title>
<g id="a_node1"><a xlink:title=" ">
<polygon fill="#bfbfbf" stroke="black" points="99.1157,-55.5 99.1157,-73.5 241.844,-73.5 241.844,-55.5 99.1157,-55.5"/>
<text text-anchor="middle" x="170.48" y="-61.5" font-family="Helvetica,sans-Serif" font-size="10.00">queryParser.NumberContext</text>
</a>
</g>
</g>
<!-- Node3 -->
<g id="node3" class="node"><title>Node3</title>
<g id="a_node3"><a xlink:href="classparse_1_1query_parser_1_1_float_number_context.html" target="_top" xlink:title=" ">
<polygon fill="white" stroke="black" points="0,-0.5 0,-18.5 164.96,-18.5 164.96,-0.5 0,-0.5"/>
<text text-anchor="middle" x="82.48" y="-6.5" font-family="Helvetica,sans-Serif" font-size="10.00">queryParser.FloatNumberContext</text>
</a>
</g>
</g>
<!-- Node1&#45;&gt;Node3 -->
<g id="edge2" class="edge"><title>Node1&#45;&gt;Node3</title>
<path fill="none" stroke="midnightblue" d="M148.149,-50.0507C131.692,-40.1393 109.846,-26.9817 95.9711,-18.6253"/>
<polygon fill="midnightblue" stroke="midnightblue" points="146.743,-53.2893 157.115,-55.4504 150.354,-47.2929 146.743,-53.2893"/>
</g>
<!-- Node4 -->
<g id="node4" class="node"><title>Node4</title>
<g id="a_node4"><a xlink:href="classparse_1_1query_parser_1_1_int_number_context.html" target="_top" xlink:title=" ">
<polygon fill="white" stroke="black" points="182.557,-0.5 182.557,-18.5 336.403,-18.5 336.403,-0.5 182.557,-0.5"/>
<text text-anchor="middle" x="259.48" y="-6.5" font-family="Helvetica,sans-Serif" font-size="10.00">queryParser.IntNumberContext</text>
</a>
</g>
</g>
<!-- Node1&#45;&gt;Node4 -->
<g id="edge3" class="edge"><title>Node1&#45;&gt;Node4</title>
<path fill="none" stroke="midnightblue" d="M192.599,-50.3277C209.295,-40.3856 231.672,-27.0598 245.836,-18.6253"/>
<polygon fill="midnightblue" stroke="midnightblue" points="190.798,-47.3267 183.997,-55.4504 194.38,-53.341 190.798,-47.3267"/>
</g>
<!-- Node2 -->
<g id="node2" class="node"><title>Node2</title>
<g id="a_node2"><a xlink:title=" ">
<polygon fill="white" stroke="#bfbfbf" points="120.239,-110.5 120.239,-128.5 220.721,-128.5 220.721,-110.5 120.239,-110.5"/>
<text text-anchor="middle" x="170.48" y="-116.5" font-family="Helvetica,sans-Serif" font-size="10.00">ParserRuleContext</text>
</a>
</g>
</g>
<!-- Node2&#45;&gt;Node1 -->
<g id="edge1" class="edge"><title>Node2&#45;&gt;Node1</title>
<path fill="none" stroke="midnightblue" d="M170.48,-100.175C170.48,-91.0945 170.48,-80.5949 170.48,-73.5496"/>
<polygon fill="midnightblue" stroke="midnightblue" points="166.98,-100.219 170.48,-110.219 173.98,-100.219 166.98,-100.219"/>
</g>
</g>
</svg>
