<?xml version="1.0" encoding="UTF-8" standalone="no"?>
<!DOCTYPE svg PUBLIC "-//W3C//DTD SVG 1.1//EN"
 "http://www.w3.org/Graphics/SVG/1.1/DTD/svg11.dtd">
<!-- Generated by graphviz version 2.47.0 (20210316.0004)
 -->
<!-- Title: AstMathOper.DoubleOper Pages: 1 -->
<svg width="316pt" height="431pt"
 viewBox="0.00 0.00 316.00 431.00" xmlns="http://www.w3.org/2000/svg" xmlns:xlink="http://www.w3.org/1999/xlink">
<g id="graph0" class="graph" transform="scale(1 1) rotate(0) translate(4 427)">
<title>AstMathOper.DoubleOper</title>
<polygon fill="white" stroke="transparent" points="-4,4 -4,-427 312,-427 312,4 -4,4"/>
<!-- Node1 -->
<g id="node1" class="node">
<title>Node1</title>
<g id="a_node1"><a xlink:title=" ">
<polygon fill="#bfbfbf" stroke="black" points="49.5,-0.5 49.5,-19.5 177.5,-19.5 177.5,-0.5 49.5,-0.5"/>
<text text-anchor="middle" x="113.5" y="-7.5" font-family="Helvetica,sans-Serif" font-size="10.00">AstMathOper.DoubleOper</text>
</a>
</g>
</g>
<!-- Node2 -->
<g id="node2" class="node">
<title>Node2</title>
<g id="a_node2"><a xlink:href="classast_1_1_ast_math_oper_1_1_binary_oper.html" target="_top" xlink:title="end of class AstMathOper">
<polygon fill="white" stroke="black" points="51,-67.5 51,-86.5 176,-86.5 176,-67.5 51,-67.5"/>
<text text-anchor="middle" x="113.5" y="-74.5" font-family="Helvetica,sans-Serif" font-size="10.00">AstMathOper.BinaryOper</text>
</a>
</g>
</g>
<!-- Node2&#45;&gt;Node1 -->
<g id="edge1" class="edge">
<title>Node2&#45;&gt;Node1</title>
<path fill="none" stroke="midnightblue" d="M113.5,-57.04C113.5,-44.67 113.5,-29.12 113.5,-19.63"/>
<polygon fill="midnightblue" stroke="midnightblue" points="110,-57.23 113.5,-67.23 117,-57.23 110,-57.23"/>
</g>
<!-- Node3 -->
<g id="node3" class="node">
<title>Node3</title>
<g id="a_node3"><a xlink:href="classast_1_1_ast_math_oper.html" target="_top" xlink:title="値を返すことができるノードのクラス．一般に1個以上の子をもつ演算子である．">
<polygon fill="white" stroke="black" points="76.5,-124.5 76.5,-143.5 150.5,-143.5 150.5,-124.5 76.5,-124.5"/>
<text text-anchor="middle" x="113.5" y="-131.5" font-family="Helvetica,sans-Serif" font-size="10.00">AstMathOper</text>
</a>
</g>
</g>
<!-- Node3&#45;&gt;Node2 -->
<g id="edge2" class="edge">
<title>Node3&#45;&gt;Node2</title>
<path fill="none" stroke="midnightblue" d="M113.5,-114.12C113.5,-104.82 113.5,-94.06 113.5,-86.71"/>
<polygon fill="midnightblue" stroke="midnightblue" points="110,-114.41 113.5,-124.41 117,-114.41 110,-114.41"/>
</g>
<!-- Node4 -->
<g id="node4" class="node">
<title>Node4</title>
<g id="a_node4"><a xlink:href="classast_1_1_ast_oper.html" target="_top" xlink:title=" ">
<polygon fill="white" stroke="black" points="187,-279.5 187,-298.5 240,-298.5 240,-279.5 187,-279.5"/>
<text text-anchor="middle" x="213.5" y="-286.5" font-family="Helvetica,sans-Serif" font-size="10.00">AstOper</text>
</a>
</g>
</g>
<!-- Node4&#45;&gt;Node3 -->
<g id="edge3" class="edge">
<title>Node4&#45;&gt;Node3</title>
<path fill="none" stroke="midnightblue" d="M217.17,-269.48C221.36,-242.59 224.71,-192.63 199.5,-162 187.67,-147.62 168.25,-140.78 150.86,-137.57"/>
<polygon fill="midnightblue" stroke="midnightblue" points="213.7,-269.01 215.4,-279.46 220.59,-270.23 213.7,-269.01"/>
</g>
<!-- Node5 -->
<g id="node5" class="node">
<title>Node5</title>
<g id="a_node5"><a xlink:href="classast_1_1_ast_node.html" target="_top" xlink:title="タグなしの順アクセスの子供をもてる抽象構文木のノードのクラス。">
<polygon fill="white" stroke="red" points="253,-346.5 253,-365.5 308,-365.5 308,-346.5 253,-346.5"/>
<text text-anchor="middle" x="280.5" y="-353.5" font-family="Helvetica,sans-Serif" font-size="10.00">AstNode</text>
</a>
</g>
</g>
<!-- Node5&#45;&gt;Node4 -->
<g id="edge4" class="edge">
<title>Node5&#45;&gt;Node4</title>
<path fill="none" stroke="midnightblue" d="M264,-339C250.86,-326.25 232.98,-308.89 222.39,-298.63"/>
<polygon fill="midnightblue" stroke="midnightblue" points="261.85,-341.78 271.46,-346.23 266.72,-336.76 261.85,-341.78"/>
</g>
<!-- Node20 -->
<g id="node6" class="node">
<title>Node20</title>
<g id="a_node6"><a xlink:href="interfacecmd_1_1_generatable_1_1_evaluatable.html" target="_top" xlink:title="評価して値を返すノードのインタフェース．必ずしもコードを生成しなくても良い．">
<polygon fill="white" stroke="black" points="51,-346.5 51,-365.5 174,-365.5 174,-346.5 51,-346.5"/>
<text text-anchor="middle" x="112.5" y="-353.5" font-family="Helvetica,sans-Serif" font-size="10.00">Generatable.Evaluatable</text>
</a>
</g>
</g>
<!-- Node20&#45;&gt;Node4 -->
<g id="edge5" class="edge">
<title>Node20&#45;&gt;Node4</title>
<path fill="none" stroke="midnightblue" d="M134.61,-340.77C154.61,-327.9 183.39,-309.38 200.09,-298.63"/>
<polygon fill="midnightblue" stroke="midnightblue" points="132.64,-337.88 126.12,-346.23 136.42,-343.77 132.64,-337.88"/>
</g>
<!-- Node21 -->
<g id="node7" class="node">
<title>Node21</title>
<g id="a_node7"><a xlink:href="interfacecmd_1_1_generatable.html" target="_top" xlink:title="変換してコードを生成できるノードのインタフェース.">
<polygon fill="white" stroke="black" points="0,-403.5 0,-422.5 69,-422.5 69,-403.5 0,-403.5"/>
<text text-anchor="middle" x="34.5" y="-410.5" font-family="Helvetica,sans-Serif" font-size="10.00">Generatable</text>
</a>
</g>
</g>
<!-- Node21&#45;&gt;Node1 -->
<g id="edge9" class="edge">
<title>Node21&#45;&gt;Node1</title>
<path fill="none" stroke="midnightblue" d="M28.37,-393.43C25.41,-382.87 22.5,-369.33 22.5,-357 22.5,-357 22.5,-357 22.5,-76 22.5,-46.2 55.22,-28.77 81.42,-19.58"/>
<polygon fill="midnightblue" stroke="midnightblue" points="25.08,-394.63 31.35,-403.17 31.78,-392.59 25.08,-394.63"/>
</g>
<!-- Node21&#45;&gt;Node20 -->
<g id="edge6" class="edge">
<title>Node21&#45;&gt;Node20</title>
<path fill="none" stroke="midnightblue" d="M55.01,-397.54C69.45,-387.35 88.29,-374.07 100.4,-365.53"/>
<polygon fill="midnightblue" stroke="midnightblue" points="52.84,-394.78 46.69,-403.41 56.88,-400.5 52.84,-394.78"/>
</g>
<!-- Node7 -->
<g id="node8" class="node">
<title>Node7</title>
<g id="a_node8"><a xlink:title=" ">
<polygon fill="white" stroke="#bfbfbf" points="192.5,-346.5 192.5,-365.5 234.5,-365.5 234.5,-346.5 192.5,-346.5"/>
<text text-anchor="middle" x="213.5" y="-353.5" font-family="Helvetica,sans-Serif" font-size="10.00">String</text>
</a>
</g>
</g>
<!-- Node7&#45;&gt;Node4 -->
<g id="edge7" class="edge">
<title>Node7&#45;&gt;Node4</title>
<path fill="none" stroke="#9a32cd" stroke-dasharray="5,2" d="M213.5,-336.04C213.5,-323.67 213.5,-308.12 213.5,-298.63"/>
<polygon fill="#9a32cd" stroke="#9a32cd" points="210,-336.23 213.5,-346.23 217,-336.23 210,-336.23"/>
<text text-anchor="middle" x="220.5" y="-320" font-family="Helvetica,sans-Serif" font-size="10.00"> op</text>
</g>
<!-- Node10 -->
<g id="node9" class="node">
<title>Node10</title>
<g id="a_node9"><a xlink:title=" ">
<polygon fill="white" stroke="#bfbfbf" points="93,-279.5 93,-298.5 122,-298.5 122,-279.5 93,-279.5"/>
<text text-anchor="middle" x="107.5" y="-286.5" font-family="Helvetica,sans-Serif" font-size="10.00">int</text>
</a>
</g>
</g>
<!-- Node10&#45;&gt;Node3 -->
<g id="edge8" class="edge">
<title>Node10&#45;&gt;Node3</title>
<path fill="none" stroke="#9a32cd" stroke-dasharray="5,2" d="M106.63,-269.32C105.72,-244.68 104.86,-199.97 108.5,-162 109.08,-155.93 110.33,-149.18 111.44,-143.94"/>
<polygon fill="#9a32cd" stroke="#9a32cd" points="103.14,-269.57 107.05,-279.42 110.13,-269.28 103.14,-269.57"/>
<text text-anchor="middle" x="154" y="-253" font-family="Helvetica,sans-Serif" font-size="10.00"> PREF_ADD_TERM</text>
<text text-anchor="middle" x="154" y="-242" font-family="Helvetica,sans-Serif" font-size="10.00">PREF_AND_EXPR</text>
<text text-anchor="middle" x="154" y="-231" font-family="Helvetica,sans-Serif" font-size="10.00">PREF_BIN_OPER</text>
<text text-anchor="middle" x="154" y="-220" font-family="Helvetica,sans-Serif" font-size="10.00">PREF_BIN_REL</text>
<text text-anchor="middle" x="154" y="-209" font-family="Helvetica,sans-Serif" font-size="10.00">PREF_MUL_TERM</text>
<text text-anchor="middle" x="154" y="-198" font-family="Helvetica,sans-Serif" font-size="10.00">PREF_NOT_EXPR</text>
<text text-anchor="middle" x="154" y="-187" font-family="Helvetica,sans-Serif" font-size="10.00">PREF_NUM_SENT</text>
<text text-anchor="middle" x="154" y="-176" font-family="Helvetica,sans-Serif" font-size="10.00">PREF_OR_EXPR</text>
<text text-anchor="middle" x="154" y="-165" font-family="Helvetica,sans-Serif" font-size="10.00">PREF_PRE_TERM</text>
</g>
<!-- Node22 -->
<g id="node10" class="node">
<title>Node22</title>
<g id="a_node10"><a xlink:title=" ">
<polygon fill="white" stroke="#bfbfbf" points="194,-67.5 194,-86.5 241,-86.5 241,-67.5 194,-67.5"/>
<text text-anchor="middle" x="217.5" y="-74.5" font-family="Helvetica,sans-Serif" font-size="10.00">Double</text>
</a>
</g>
</g>
<!-- Node22&#45;&gt;Node1 -->
<g id="edge10" class="edge">
<title>Node22&#45;&gt;Node1</title>
<path fill="none" stroke="#9a32cd" stroke-dasharray="5,2" d="M194.73,-61.77C174.14,-48.9 144.51,-30.38 127.3,-19.63"/>
<polygon fill="#9a32cd" stroke="#9a32cd" points="193.14,-64.9 203.47,-67.23 196.85,-58.97 193.14,-64.9"/>
<text text-anchor="middle" x="189.5" y="-41" font-family="Helvetica,sans-Serif" font-size="10.00"> initEval</text>
</g>
</g>
</svg>
