<?xml version="1.0" encoding="UTF-8" standalone="no"?>
<!DOCTYPE svg PUBLIC "-//W3C//DTD SVG 1.1//EN"
 "http://www.w3.org/Graphics/SVG/1.1/DTD/svg11.dtd">
<!-- Generated by graphviz version 2.47.0 (20210316.0004)
 -->
<!-- Title: CallList Pages: 1 -->
<svg width="617pt" height="184pt"
 viewBox="0.00 0.00 617.00 184.00" xmlns="http://www.w3.org/2000/svg" xmlns:xlink="http://www.w3.org/1999/xlink">
<g id="graph0" class="graph" transform="scale(1 1) rotate(0) translate(4 180)">
<title>CallList</title>
<polygon fill="white" stroke="transparent" points="-4,4 -4,-180 613,-180 613,4 -4,4"/>
<!-- Node1 -->
<g id="node1" class="node">
<title>Node1</title>
<g id="a_node1"><a xlink:title=" ">
<polygon fill="#bfbfbf" stroke="black" points="360.5,-0.5 360.5,-19.5 410.5,-19.5 410.5,-0.5 360.5,-0.5"/>
<text text-anchor="middle" x="385.5" y="-7.5" font-family="Helvetica,sans-Serif" font-size="10.00">CallList</text>
</a>
</g>
</g>
<!-- Node2 -->
<g id="node2" class="node">
<title>Node2</title>
<g id="a_node2"><a xlink:title=" ">
<polygon fill="white" stroke="#bfbfbf" points="0,-156.5 0,-175.5 103,-175.5 103,-156.5 0,-156.5"/>
<text text-anchor="middle" x="51.5" y="-163.5" font-family="Helvetica,sans-Serif" font-size="10.00">CustomFormattable</text>
</a>
</g>
</g>
<!-- Node2&#45;&gt;Node1 -->
<g id="edge1" class="edge">
<title>Node2&#45;&gt;Node1</title>
<path fill="none" stroke="midnightblue" d="M61.99,-147.75C70.56,-134.74 83.66,-117.13 98.5,-105 178.9,-39.32 306.61,-19.01 360.36,-13.18"/>
<polygon fill="midnightblue" stroke="midnightblue" points="58.99,-145.94 56.59,-156.26 64.9,-149.69 58.99,-145.94"/>
</g>
<!-- Node4 -->
<g id="node4" class="node">
<title>Node4</title>
<g id="a_node4"><a xlink:href="classmachine_1_1_id_mask.html" target="_top" xlink:title="@IDのマスク">
<polygon fill="white" stroke="black" points="184,-67.5 184,-86.5 233,-86.5 233,-67.5 184,-67.5"/>
<text text-anchor="middle" x="208.5" y="-74.5" font-family="Helvetica,sans-Serif" font-size="10.00">IdMask</text>
</a>
</g>
</g>
<!-- Node2&#45;&gt;Node4 -->
<g id="edge4" class="edge">
<title>Node2&#45;&gt;Node4</title>
<path fill="none" stroke="midnightblue" d="M75.73,-151.57C108.33,-133.51 165.4,-101.88 192.87,-86.66"/>
<polygon fill="midnightblue" stroke="midnightblue" points="73.89,-148.59 66.84,-156.5 77.28,-154.71 73.89,-148.59"/>
</g>
<!-- Node3 -->
<g id="node3" class="node">
<title>Node3</title>
<g id="a_node3"><a xlink:title=" ">
<polygon fill="white" stroke="#bfbfbf" points="358,-156.5 358,-175.5 387,-175.5 387,-156.5 358,-156.5"/>
<text text-anchor="middle" x="372.5" y="-163.5" font-family="Helvetica,sans-Serif" font-size="10.00">int</text>
</a>
</g>
</g>
<!-- Node3&#45;&gt;Node1 -->
<g id="edge2" class="edge">
<title>Node3&#45;&gt;Node1</title>
<path fill="none" stroke="#9a32cd" stroke-dasharray="5,2" d="M396.89,-160.15C409.21,-156.33 423.08,-149.63 430.5,-138 456.15,-97.76 412.35,-41.01 393.49,-19.61"/>
<polygon fill="#9a32cd" stroke="#9a32cd" points="395.87,-156.8 387.08,-162.72 397.64,-163.57 395.87,-156.8"/>
<text text-anchor="middle" x="453" y="-74.5" font-family="Helvetica,sans-Serif" font-size="10.00"> UNDEF</text>
</g>
<!-- Node3&#45;&gt;Node4 -->
<g id="edge5" class="edge">
<title>Node3&#45;&gt;Node4</title>
<path fill="none" stroke="#9a32cd" stroke-dasharray="5,2" d="M348.04,-159.59C333.44,-155.47 315.14,-148.64 301.5,-138 287.41,-127 292.57,-116.03 278.5,-105 265.28,-94.63 247.61,-87.86 233.33,-83.69"/>
<polygon fill="#9a32cd" stroke="#9a32cd" points="347.35,-163.03 357.91,-162.14 349.1,-156.25 347.35,-163.03"/>
<text text-anchor="middle" x="366" y="-130" font-family="Helvetica,sans-Serif" font-size="10.00"> OUTPUT_MIN_BIT_WIDTH</text>
<text text-anchor="middle" x="366" y="-119" font-family="Helvetica,sans-Serif" font-size="10.00">maxState</text>
<text text-anchor="middle" x="366" y="-108" font-family="Helvetica,sans-Serif" font-size="10.00">numStates</text>
</g>
<!-- Node4&#45;&gt;Node1 -->
<g id="edge3" class="edge">
<title>Node4&#45;&gt;Node1</title>
<path fill="none" stroke="#9a32cd" stroke-dasharray="5,2" d="M241.8,-63.77C276.93,-50.87 331.38,-30.88 362.18,-19.56"/>
<polygon fill="#9a32cd" stroke="#9a32cd" points="240.18,-60.64 232,-67.37 242.6,-67.21 240.18,-60.64"/>
<text text-anchor="middle" x="328.5" y="-41" font-family="Helvetica,sans-Serif" font-size="10.00"> callbits_</text>
</g>
<!-- Node5 -->
<g id="node5" class="node">
<title>Node5</title>
<g id="a_node5"><a xlink:title=" ">
<polygon fill="white" stroke="#bfbfbf" points="121.5,-156.5 121.5,-175.5 201.5,-175.5 201.5,-156.5 121.5,-156.5"/>
<text text-anchor="middle" x="161.5" y="-163.5" font-family="Helvetica,sans-Serif" font-size="10.00">List&lt; Integer &gt;</text>
</a>
</g>
</g>
<!-- Node5&#45;&gt;Node4 -->
<g id="edge6" class="edge">
<title>Node5&#45;&gt;Node4</title>
<path fill="none" stroke="#9a32cd" stroke-dasharray="5,2" d="M163.63,-146.09C165.7,-133.66 169.73,-117.47 177.5,-105 182.03,-97.73 189.13,-91.35 195.38,-86.61"/>
<polygon fill="#9a32cd" stroke="#9a32cd" points="160.13,-145.83 162.22,-156.22 167.06,-146.79 160.13,-145.83"/>
<text text-anchor="middle" x="189.5" y="-119" font-family="Helvetica,sans-Serif" font-size="10.00"> idlist</text>
</g>
<!-- Node6 -->
<g id="node6" class="node">
<title>Node6</title>
<g id="a_node6"><a xlink:title=" ">
<polygon fill="white" stroke="#bfbfbf" points="220,-156.5 220,-175.5 255,-175.5 255,-156.5 220,-156.5"/>
<text text-anchor="middle" x="237.5" y="-163.5" font-family="Helvetica,sans-Serif" font-size="10.00">long</text>
</a>
</g>
</g>
<!-- Node6&#45;&gt;Node4 -->
<g id="edge7" class="edge">
<title>Node6&#45;&gt;Node4</title>
<path fill="none" stroke="#9a32cd" stroke-dasharray="5,2" d="M217.11,-149.27C214.03,-145.9 211.29,-142.11 209.5,-138 202.11,-120.99 204.51,-98.63 206.66,-86.58"/>
<polygon fill="#9a32cd" stroke="#9a32cd" points="214.93,-152.03 224.63,-156.29 219.71,-146.91 214.93,-152.03"/>
<text text-anchor="middle" x="244" y="-119" font-family="Helvetica,sans-Serif" font-size="10.00"> MASK_STATE</text>
</g>
<!-- Node7 -->
<g id="node7" class="node">
<title>Node7</title>
<g id="a_node7"><a xlink:title=" ">
<polygon fill="white" stroke="#bfbfbf" points="502,-67.5 502,-86.5 609,-86.5 609,-67.5 502,-67.5"/>
<text text-anchor="middle" x="555.5" y="-74.5" font-family="Helvetica,sans-Serif" font-size="10.00">List&lt; machine.Call &gt;</text>
</a>
</g>
</g>
<!-- Node7&#45;&gt;Node1 -->
<g id="edge8" class="edge">
<title>Node7&#45;&gt;Node1</title>
<path fill="none" stroke="#9a32cd" stroke-dasharray="5,2" d="M524.6,-63.72C505.58,-56.2 480.67,-46.44 458.5,-38 441.96,-31.7 423.23,-24.78 408.88,-19.52"/>
<polygon fill="#9a32cd" stroke="#9a32cd" points="523.38,-67 533.97,-67.43 525.96,-60.5 523.38,-67"/>
<text text-anchor="middle" x="495.5" y="-41" font-family="Helvetica,sans-Serif" font-size="10.00"> list_</text>
</g>
</g>
</svg>
