<?xml version="1.0" encoding="UTF-8" standalone="no"?>
<!DOCTYPE svg PUBLIC "-//W3C//DTD SVG 1.1//EN"
 "http://www.w3.org/Graphics/SVG/1.1/DTD/svg11.dtd">
<!-- Generated by graphviz version 2.47.1 (20210417.1919)
 -->
<!-- Title: Var Pages: 1 -->
<svg width="621pt" height="542pt"
 viewBox="0.00 0.00 621.00 542.11" xmlns="http://www.w3.org/2000/svg" xmlns:xlink="http://www.w3.org/1999/xlink">
<g id="graph0" class="graph" transform="scale(1 1) rotate(0) translate(4 538.11)">
<title>Var</title>
<polygon fill="white" stroke="transparent" points="-4,4 -4,-538.11 617,-538.11 617,4 -4,4"/>
<!-- Node1 -->
<g id="node1" class="node">
<title>Node1</title>
<g id="a_node1"><a xlink:title="フレーム中の変数参照オブジェクトref = (XType type, int vid)">
<polygon fill="#bfbfbf" stroke="black" points="582,-374.5 582,-393.5 613,-393.5 613,-374.5 582,-374.5"/>
<text text-anchor="middle" x="597.5" y="-381.5" font-family="Helvetica,sans-Serif" font-size="10.00">Var</text>
</a>
</g>
</g>
<!-- Node2 -->
<g id="node2" class="node">
<title>Node2</title>
<g id="a_node2"><a xlink:href="classast_1_1_ast_node.html" target="_top" xlink:title="タグなしの順アクセスの子供をもてる抽象構文木のノードのクラス。">
<polygon fill="white" stroke="black" points="490,-175.5 490,-194.5 545,-194.5 545,-175.5 490,-175.5"/>
<text text-anchor="middle" x="517.5" y="-182.5" font-family="Helvetica,sans-Serif" font-size="10.00">AstNode</text>
</a>
</g>
</g>
<!-- Node2&#45;&gt;Node1 -->
<g id="edge1" class="edge">
<title>Node2&#45;&gt;Node1</title>
<path fill="none" stroke="midnightblue" d="M526,-204.13C542.34,-245.83 580.68,-343.64 592.78,-374.5"/>
<polygon fill="midnightblue" stroke="midnightblue" points="529.17,-202.63 522.26,-194.6 522.65,-205.19 529.17,-202.63"/>
</g>
<!-- Node3 -->
<g id="node3" class="node">
<title>Node3</title>
<g id="a_node3"><a xlink:href="classast_1_1_ast_node_base.html" target="_top" xlink:title=" ">
<polygon fill="white" stroke="black" points="271.5,-371.5 271.5,-390.5 348.5,-390.5 348.5,-371.5 271.5,-371.5"/>
<text text-anchor="middle" x="310" y="-378.5" font-family="Helvetica,sans-Serif" font-size="10.00">AstNodeBase</text>
</a>
</g>
</g>
<!-- Node3&#45;&gt;Node2 -->
<g id="edge2" class="edge">
<title>Node3&#45;&gt;Node2</title>
<path fill="none" stroke="midnightblue" d="M336.55,-365.98C370.47,-345.13 430.87,-304.79 472,-259 490.23,-238.7 505.03,-209.86 512.07,-194.89"/>
<polygon fill="midnightblue" stroke="midnightblue" points="334.46,-363.15 327.72,-371.33 338.09,-369.14 334.46,-363.15"/>
</g>
<!-- Node4 -->
<g id="node4" class="node">
<title>Node4</title>
<g id="a_node4"><a xlink:title=" ">
<polygon fill="white" stroke="#bfbfbf" points="20.5,-198.5 20.5,-217.5 62.5,-217.5 62.5,-198.5 20.5,-198.5"/>
<text text-anchor="middle" x="41.5" y="-205.5" font-family="Helvetica,sans-Serif" font-size="10.00">String</text>
</a>
</g>
</g>
<!-- Node4&#45;&gt;Node3 -->
<g id="edge3" class="edge">
<title>Node4&#45;&gt;Node3</title>
<path fill="none" stroke="#9a32cd" stroke-dasharray="5,2" d="M69.12,-222.19C78.91,-226.9 90.24,-231.75 101,-235 153.96,-250.97 177.34,-224.28 224,-254 225.48,-254.94 282.8,-341.42 302.46,-371.12"/>
<polygon fill="#9a32cd" stroke="#9a32cd" points="70.43,-218.93 59.92,-217.6 67.3,-225.2 70.43,-218.93"/>
<text text-anchor="middle" x="162.5" y="-268" font-family="Helvetica,sans-Serif" font-size="10.00"> MOD_AST</text>
<text text-anchor="middle" x="162.5" y="-257" font-family="Helvetica,sans-Serif" font-size="10.00">mod_</text>
</g>
<!-- Node17 -->
<g id="node17" class="node">
<title>Node17</title>
<g id="a_node17"><a xlink:href="classformat_1_1_style.html" target="_top" xlink:title="ノードの表示スタイルに関するプロパティのクラス.">
<polygon fill="white" stroke="black" points="290.5,-251.5 290.5,-270.5 329.5,-270.5 329.5,-251.5 290.5,-251.5"/>
<text text-anchor="middle" x="310" y="-258.5" font-family="Helvetica,sans-Serif" font-size="10.00">Style</text>
</a>
</g>
</g>
<!-- Node4&#45;&gt;Node17 -->
<g id="edge18" class="edge">
<title>Node4&#45;&gt;Node17</title>
<path fill="none" stroke="#9a32cd" stroke-dasharray="5,2" d="M72.29,-197.37C110.67,-185.68 177.94,-172.22 224,-202 240.37,-212.59 227.24,-229.26 242,-242 255.45,-253.61 275.55,-258.15 290.22,-259.92"/>
<polygon fill="#9a32cd" stroke="#9a32cd" points="71.18,-194.05 62.72,-200.43 73.31,-200.72 71.18,-194.05"/>
<text text-anchor="middle" x="162.5" y="-227" font-family="Helvetica,sans-Serif" font-size="10.00"> operSTR</text>
<text text-anchor="middle" x="162.5" y="-216" font-family="Helvetica,sans-Serif" font-size="10.00">parenLPAR</text>
<text text-anchor="middle" x="162.5" y="-205" font-family="Helvetica,sans-Serif" font-size="10.00">parenRPAR</text>
</g>
<!-- Node5 -->
<g id="node5" class="node">
<title>Node5</title>
<g id="a_node5"><a xlink:title=" ">
<polygon fill="white" stroke="#bfbfbf" points="0,-405.5 0,-424.5 83,-424.5 83,-405.5 0,-405.5"/>
<text text-anchor="middle" x="41.5" y="-412.5" font-family="Helvetica,sans-Serif" font-size="10.00">static ReportKt</text>
</a>
</g>
</g>
<!-- Node5&#45;&gt;Node3 -->
<g id="edge4" class="edge">
<title>Node5&#45;&gt;Node3</title>
<path fill="none" stroke="#9a32cd" stroke-dasharray="5,2" d="M93.61,-409.08C130,-404.79 180.03,-398.77 224,-393 239.52,-390.96 256.6,-388.58 271.36,-386.48"/>
<polygon fill="#9a32cd" stroke="#9a32cd" points="92.78,-405.65 83.26,-410.29 93.6,-412.6 92.78,-405.65"/>
<text text-anchor="middle" x="162.5" y="-410" font-family="Helvetica,sans-Serif" font-size="10.00"> repo</text>
</g>
<!-- Node6 -->
<g id="node6" class="node">
<title>Node6</title>
<g id="a_node6"><a xlink:title=" ">
<polygon fill="white" stroke="#bfbfbf" points="9,-367.5 9,-386.5 74,-386.5 74,-367.5 9,-367.5"/>
<text text-anchor="middle" x="41.5" y="-374.5" font-family="Helvetica,sans-Serif" font-size="10.00">TraceLevel</text>
</a>
</g>
</g>
<!-- Node6&#45;&gt;Node3 -->
<g id="edge5" class="edge">
<title>Node6&#45;&gt;Node3</title>
<path fill="none" stroke="#9a32cd" stroke-dasharray="5,2" d="M84.21,-377.63C135.57,-378.4 222.05,-379.69 271.43,-380.44"/>
<polygon fill="#9a32cd" stroke="#9a32cd" points="84.17,-374.13 74.12,-377.47 84.06,-381.12 84.17,-374.13"/>
<text text-anchor="middle" x="162.5" y="-382" font-family="Helvetica,sans-Serif" font-size="10.00"> LOG</text>
</g>
<!-- Node7 -->
<g id="node7" class="node">
<title>Node7</title>
<g id="a_node7"><a xlink:title=" ">
<polygon fill="white" stroke="#bfbfbf" points="27,-506.5 27,-525.5 56,-525.5 56,-506.5 27,-506.5"/>
<text text-anchor="middle" x="41.5" y="-513.5" font-family="Helvetica,sans-Serif" font-size="10.00">int</text>
</a>
</g>
</g>
<!-- Node7&#45;&gt;Node1 -->
<g id="edge20" class="edge">
<title>Node7&#45;&gt;Node1</title>
<path fill="none" stroke="#9a32cd" stroke-dasharray="5,2" d="M66.1,-521.97C76.69,-524.36 89.4,-526.82 101,-528 155.39,-533.52 170.26,-538.03 224,-528 370.2,-500.72 532.92,-418.06 581.83,-391.98"/>
<polygon fill="#9a32cd" stroke="#9a32cd" points="66.86,-518.56 56.33,-519.66 65.25,-525.37 66.86,-518.56"/>
<text text-anchor="middle" x="434" y="-479" font-family="Helvetica,sans-Serif" font-size="10.00"> UNDEF</text>
</g>
<!-- Node7&#45;&gt;Node3 -->
<g id="edge6" class="edge">
<title>Node7&#45;&gt;Node3</title>
<path fill="none" stroke="#9a32cd" stroke-dasharray="5,2" d="M64.93,-501.56C75.5,-495.32 88.52,-488.45 101,-484 153.38,-465.31 174.42,-486.19 224,-461 258.33,-443.56 288.52,-407.94 301.81,-390.73"/>
<polygon fill="#9a32cd" stroke="#9a32cd" points="63.05,-498.6 56.33,-506.79 66.69,-504.58 63.05,-498.6"/>
<text text-anchor="middle" x="162.5" y="-520" font-family="Helvetica,sans-Serif" font-size="10.00"> BITMASK_PRINT_WIDTH</text>
<text text-anchor="middle" x="162.5" y="-509" font-family="Helvetica,sans-Serif" font-size="10.00">UNDEF</text>
<text text-anchor="middle" x="162.5" y="-498" font-family="Helvetica,sans-Serif" font-size="10.00">id_</text>
<text text-anchor="middle" x="162.5" y="-487" font-family="Helvetica,sans-Serif" font-size="10.00">numInstances</text>
</g>
<!-- Node8 -->
<g id="node8" class="node">
<title>Node8</title>
<g id="a_node8"><a xlink:href="interfacetype_1_1_typable.html" target="_top" xlink:title="抽象ノードがもつ関数型のインタフェース">
<polygon fill="white" stroke="black" points="16.5,-443.5 16.5,-462.5 66.5,-462.5 66.5,-443.5 16.5,-443.5"/>
<text text-anchor="middle" x="41.5" y="-450.5" font-family="Helvetica,sans-Serif" font-size="10.00">Typable</text>
</a>
</g>
</g>
<!-- Node8&#45;&gt;Node3 -->
<g id="edge7" class="edge">
<title>Node8&#45;&gt;Node3</title>
<path fill="none" stroke="#9a32cd" stroke-dasharray="5,2" d="M77.05,-450.01C114.08,-446.13 174.25,-437.9 224,-422 248.97,-414.02 275.93,-400 292.64,-390.61"/>
<polygon fill="#9a32cd" stroke="#9a32cd" points="76.4,-446.55 66.79,-451.03 77.09,-453.52 76.4,-446.55"/>
<text text-anchor="middle" x="162.5" y="-449" font-family="Helvetica,sans-Serif" font-size="10.00"> typing</text>
</g>
<!-- Node9 -->
<g id="node9" class="node">
<title>Node9</title>
<g id="a_node9"><a xlink:title=" ">
<polygon fill="white" stroke="#bfbfbf" points="16.5,-310.5 16.5,-329.5 66.5,-329.5 66.5,-310.5 16.5,-310.5"/>
<text text-anchor="middle" x="41.5" y="-317.5" font-family="Helvetica,sans-Serif" font-size="10.00">boolean</text>
</a>
</g>
</g>
<!-- Node9&#45;&gt;Node3 -->
<g id="edge8" class="edge">
<title>Node9&#45;&gt;Node3</title>
<path fill="none" stroke="#9a32cd" stroke-dasharray="5,2" d="M76.6,-327.8C126.52,-339.23 219.22,-360.45 271.18,-372.34"/>
<polygon fill="#9a32cd" stroke="#9a32cd" points="77.15,-324.34 66.62,-325.52 75.59,-331.16 77.15,-324.34"/>
<text text-anchor="middle" x="162.5" y="-364" font-family="Helvetica,sans-Serif" font-size="10.00"> DEBUG_REPO</text>
</g>
<!-- Node9&#45;&gt;Node17 -->
<g id="edge19" class="edge">
<title>Node9&#45;&gt;Node17</title>
<path fill="none" stroke="#9a32cd" stroke-dasharray="5,2" d="M76.36,-309.55C84.4,-307.24 92.97,-304.91 101,-303 155.1,-290.11 169.52,-291.18 224,-280 246.96,-275.29 273.28,-269.32 290.47,-265.34"/>
<polygon fill="#9a32cd" stroke="#9a32cd" points="75.16,-306.26 66.55,-312.43 77.13,-312.97 75.16,-306.26"/>
<text text-anchor="middle" x="162.5" y="-317" font-family="Helvetica,sans-Serif" font-size="10.00"> preoperSupress</text>
<text text-anchor="middle" x="162.5" y="-306" font-family="Helvetica,sans-Serif" font-size="10.00">toInline</text>
</g>
<!-- Node10 -->
<g id="node10" class="node">
<title>Node10</title>
<g id="a_node10"><a xlink:href="interfaceast_1_1_node.html" target="_top" xlink:title=" ">
<polygon fill="white" stroke="black" points="290,-213.5 290,-232.5 330,-232.5 330,-213.5 290,-213.5"/>
<text text-anchor="middle" x="310" y="-220.5" font-family="Helvetica,sans-Serif" font-size="10.00">Node</text>
</a>
</g>
</g>
<!-- Node10&#45;&gt;Node2 -->
<g id="edge9" class="edge">
<title>Node10&#45;&gt;Node2</title>
<path fill="none" stroke="midnightblue" d="M340.16,-220.05C372.61,-216.44 426.47,-209.49 472,-199 477.84,-197.65 484.02,-195.92 489.86,-194.13"/>
<polygon fill="midnightblue" stroke="midnightblue" points="339.58,-216.59 330.02,-221.14 340.34,-223.55 339.58,-216.59"/>
</g>
<!-- Node11 -->
<g id="node11" class="node">
<title>Node11</title>
<g id="a_node11"><a xlink:href="interfaceformat_1_1_x_formattable.html" target="_top" xlink:title="入れ子フォーマット出力可能なオブジェクトのインタフェース。">
<polygon fill="white" stroke="black" points="4,-150.5 4,-169.5 79,-169.5 79,-150.5 4,-150.5"/>
<text text-anchor="middle" x="41.5" y="-157.5" font-family="Helvetica,sans-Serif" font-size="10.00">XFormattable</text>
</a>
</g>
</g>
<!-- Node11&#45;&gt;Node10 -->
<g id="edge10" class="edge">
<title>Node11&#45;&gt;Node10</title>
<path fill="none" stroke="midnightblue" d="M89.41,-156.37C127.88,-155.49 182.56,-159.21 224,-182 235.07,-188.09 231.44,-197.07 242,-204 256.46,-213.49 275.67,-218.3 289.81,-220.71"/>
<polygon fill="midnightblue" stroke="midnightblue" points="88.88,-152.89 79.01,-156.73 89.12,-159.88 88.88,-152.89"/>
</g>
<!-- Node12 -->
<g id="node12" class="node">
<title>Node12</title>
<g id="a_node12"><a xlink:href="interfaceformat_1_1_x_formattable_1_1_navigatable.html" target="_top" xlink:title="木構造の分岐ノードとして清書可能なオブジェクトのクラス">
<polygon fill="white" stroke="black" points="245,-175.5 245,-194.5 375,-194.5 375,-175.5 245,-175.5"/>
<text text-anchor="middle" x="310" y="-182.5" font-family="Helvetica,sans-Serif" font-size="10.00">XFormattable.Navigatable</text>
</a>
</g>
</g>
<!-- Node11&#45;&gt;Node12 -->
<g id="edge12" class="edge">
<title>Node11&#45;&gt;Node12</title>
<path fill="none" stroke="midnightblue" d="M89.02,-157.4C93.07,-157.24 97.11,-157.1 101,-157 155.65,-155.6 170.8,-144.44 224,-157 232.71,-159.05 233.66,-162.77 242,-166 251.13,-169.54 261.19,-172.74 270.68,-175.47"/>
<polygon fill="midnightblue" stroke="midnightblue" points="88.84,-153.9 79,-157.84 89.14,-160.9 88.84,-153.9"/>
</g>
<!-- Node12&#45;&gt;Node2 -->
<g id="edge11" class="edge">
<title>Node12&#45;&gt;Node2</title>
<path fill="none" stroke="midnightblue" d="M385.31,-185C421.77,-185 463.42,-185 489.83,-185"/>
<polygon fill="midnightblue" stroke="midnightblue" points="385.18,-181.5 375.18,-185 385.18,-188.5 385.18,-181.5"/>
</g>
<!-- Node13 -->
<g id="node13" class="node">
<title>Node13</title>
<g id="a_node13"><a xlink:title=" ">
<polygon fill="white" stroke="#bfbfbf" points="246,-126 246,-156 374,-156 374,-126 246,-126"/>
<text text-anchor="start" x="254" y="-144" font-family="Helvetica,sans-Serif" font-size="10.00">java.util.function.Function</text>
<text text-anchor="middle" x="310" y="-133" font-family="Helvetica,sans-Serif" font-size="10.00">&lt; ast.Node, String &gt;</text>
</a>
</g>
</g>
<!-- Node13&#45;&gt;Node2 -->
<g id="edge13" class="edge">
<title>Node13&#45;&gt;Node2</title>
<path fill="none" stroke="#9a32cd" stroke-dasharray="5,2" d="M384.17,-151.85C411.88,-156.56 443.58,-162.69 472,-170 478,-171.54 484.36,-173.49 490.34,-175.47"/>
<polygon fill="#9a32cd" stroke="#9a32cd" points="384.6,-148.37 374.16,-150.17 383.45,-155.27 384.6,-148.37"/>
<text text-anchor="middle" x="434" y="-173" font-family="Helvetica,sans-Serif" font-size="10.00"> printerFunc</text>
</g>
<!-- Node14 -->
<g id="node14" class="node">
<title>Node14</title>
<g id="a_node14"><a xlink:title=" ">
<polygon fill="white" stroke="#bfbfbf" points="242,-77 242,-107 378,-107 378,-77 242,-77"/>
<text text-anchor="start" x="250" y="-95" font-family="Helvetica,sans-Serif" font-size="10.00">java.util.function.Consumer</text>
<text text-anchor="middle" x="310" y="-84" font-family="Helvetica,sans-Serif" font-size="10.00">&lt; ast.Node &gt;</text>
</a>
</g>
</g>
<!-- Node14&#45;&gt;Node2 -->
<g id="edge14" class="edge">
<title>Node14&#45;&gt;Node2</title>
<path fill="none" stroke="#9a32cd" stroke-dasharray="5,2" d="M387.74,-105.81C415.59,-112.99 446.47,-123.59 472,-139 487.79,-148.53 501.81,-165.04 509.72,-175.48"/>
<polygon fill="#9a32cd" stroke="#9a32cd" points="388.57,-102.41 378.03,-103.41 386.9,-109.21 388.57,-102.41"/>
<text text-anchor="middle" x="434" y="-142" font-family="Helvetica,sans-Serif" font-size="10.00"> typerFunc</text>
</g>
<!-- Node15 -->
<g id="node15" class="node">
<title>Node15</title>
<g id="a_node15"><a xlink:title=" ">
<polygon fill="white" stroke="#bfbfbf" points="265,-38.5 265,-57.5 355,-57.5 355,-38.5 265,-38.5"/>
<text text-anchor="middle" x="310" y="-45.5" font-family="Helvetica,sans-Serif" font-size="10.00">List&lt; ast.Node &gt;</text>
</a>
</g>
</g>
<!-- Node15&#45;&gt;Node2 -->
<g id="edge15" class="edge">
<title>Node15&#45;&gt;Node2</title>
<path fill="none" stroke="#9a32cd" stroke-dasharray="5,2" d="M365.42,-51.91C399.37,-56.87 442.14,-68.03 472,-93 498.41,-115.08 510.35,-156.53 514.58,-175.31"/>
<polygon fill="#9a32cd" stroke="#9a32cd" points="365.56,-48.4 355.19,-50.56 364.65,-55.34 365.56,-48.4"/>
<text text-anchor="middle" x="434" y="-96" font-family="Helvetica,sans-Serif" font-size="10.00"> children_</text>
</g>
<!-- Node16 -->
<g id="node16" class="node">
<title>Node16</title>
<g id="a_node16"><a xlink:title=" ">
<polygon fill="white" stroke="#bfbfbf" points="284,-0.5 284,-19.5 336,-19.5 336,-0.5 284,-0.5"/>
<text text-anchor="middle" x="310" y="-7.5" font-family="Helvetica,sans-Serif" font-size="10.00">Boolean</text>
</a>
</g>
</g>
<!-- Node16&#45;&gt;Node2 -->
<g id="edge16" class="edge">
<title>Node16&#45;&gt;Node2</title>
<path fill="none" stroke="#9a32cd" stroke-dasharray="5,2" d="M346.3,-7.55C382.33,-7.03 437.7,-12.01 472,-43 511.68,-78.85 516.29,-149.57 516.59,-175.32"/>
<polygon fill="#9a32cd" stroke="#9a32cd" points="346.13,-4.05 336.23,-7.84 346.33,-11.05 346.13,-4.05"/>
<text text-anchor="middle" x="434" y="-46" font-family="Helvetica,sans-Serif" font-size="10.00"> DEBUG_CHILD</text>
</g>
<!-- Node17&#45;&gt;Node2 -->
<g id="edge17" class="edge">
<title>Node17&#45;&gt;Node2</title>
<path fill="none" stroke="#9a32cd" stroke-dasharray="5,2" d="M339.63,-257.05C372.78,-251.69 428.42,-240.25 472,-219 484.93,-212.69 497.79,-202.31 506.33,-194.68"/>
<polygon fill="#9a32cd" stroke="#9a32cd" points="339.05,-253.6 329.7,-258.58 340.11,-260.52 339.05,-253.6"/>
<text text-anchor="middle" x="434" y="-247" font-family="Helvetica,sans-Serif" font-size="10.00"> sty</text>
</g>
</g>
</svg>
