<?xml version="1.0" encoding="UTF-8" standalone="no"?>
<!DOCTYPE svg PUBLIC "-//W3C//DTD SVG 1.1//EN"
 "http://www.w3.org/Graphics/SVG/1.1/DTD/svg11.dtd">
<!-- Generated by graphviz version 2.47.1 (20210417.1919)
 -->
<!-- Title: AstMathOper.IntegerOper Pages: 1 -->
<svg width="311pt" height="420pt"
 viewBox="0.00 0.00 310.50 420.00" xmlns="http://www.w3.org/2000/svg" xmlns:xlink="http://www.w3.org/1999/xlink">
<g id="graph0" class="graph" transform="scale(1 1) rotate(0) translate(4 416)">
<title>AstMathOper.IntegerOper</title>
<polygon fill="white" stroke="transparent" points="-4,4 -4,-416 306.5,-416 306.5,4 -4,4"/>
<!-- Node1 -->
<g id="node1" class="node">
<title>Node1</title>
<g id="a_node1"><a xlink:title=" ">
<polygon fill="#bfbfbf" stroke="black" points="114.5,-112.5 114.5,-131.5 242.5,-131.5 242.5,-112.5 114.5,-112.5"/>
<text text-anchor="middle" x="178.5" y="-119.5" font-family="Helvetica,sans-Serif" font-size="10.00">AstMathOper.IntegerOper</text>
</a>
</g>
</g>
<!-- Node13 -->
<g id="node8" class="node">
<title>Node13</title>
<g id="a_node8"><a xlink:href="classast_1_1_ast_math_oper_1_1_add_term.html" target="_top" xlink:title=" ">
<polygon fill="white" stroke="black" points="54.5,-56.5 54.5,-75.5 170.5,-75.5 170.5,-56.5 54.5,-56.5"/>
<text text-anchor="middle" x="112.5" y="-63.5" font-family="Helvetica,sans-Serif" font-size="10.00">AstMathOper.AddTerm</text>
</a>
</g>
</g>
<!-- Node1&#45;&gt;Node13 -->
<g id="edge8" class="edge">
<title>Node1&#45;&gt;Node13</title>
<path fill="none" stroke="midnightblue" d="M159.95,-105.82C148.12,-96.15 133.21,-83.95 123.3,-75.83"/>
<polygon fill="midnightblue" stroke="midnightblue" points="157.94,-108.7 167.9,-112.32 162.37,-103.28 157.94,-108.7"/>
</g>
<!-- Node15 -->
<g id="node10" class="node">
<title>Node15</title>
<g id="a_node10"><a xlink:href="classast_1_1_ast_math_oper_1_1_mul_term.html" target="_top" xlink:title=" ">
<polygon fill="white" stroke="black" points="188.5,-56.5 188.5,-75.5 302.5,-75.5 302.5,-56.5 188.5,-56.5"/>
<text text-anchor="middle" x="245.5" y="-63.5" font-family="Helvetica,sans-Serif" font-size="10.00">AstMathOper.MulTerm</text>
</a>
</g>
</g>
<!-- Node1&#45;&gt;Node15 -->
<g id="edge10" class="edge">
<title>Node1&#45;&gt;Node15</title>
<path fill="none" stroke="midnightblue" d="M197.33,-105.82C209.34,-96.15 224.47,-83.95 234.54,-75.83"/>
<polygon fill="midnightblue" stroke="midnightblue" points="194.85,-103.32 189.26,-112.32 199.25,-108.77 194.85,-103.32"/>
</g>
<!-- Node2 -->
<g id="node2" class="node">
<title>Node2</title>
<g id="a_node2"><a xlink:href="classast_1_1_ast_math_oper_1_1_binary_oper.html" target="_top" xlink:title="end of class AstMathOper">
<polygon fill="white" stroke="black" points="71,-168.5 71,-187.5 196,-187.5 196,-168.5 71,-168.5"/>
<text text-anchor="middle" x="133.5" y="-175.5" font-family="Helvetica,sans-Serif" font-size="10.00">AstMathOper.BinaryOper</text>
</a>
</g>
</g>
<!-- Node2&#45;&gt;Node1 -->
<g id="edge1" class="edge">
<title>Node2&#45;&gt;Node1</title>
<path fill="none" stroke="midnightblue" d="M147.55,-160.14C155.39,-150.74 164.83,-139.4 171.21,-131.75"/>
<polygon fill="midnightblue" stroke="midnightblue" points="144.64,-158.16 140.93,-168.08 150.02,-162.64 144.64,-158.16"/>
</g>
<!-- Node3 -->
<g id="node3" class="node">
<title>Node3</title>
<g id="a_node3"><a xlink:href="classast_1_1_ast_math_oper.html" target="_top" xlink:title="値を返すことができるノードのクラス．一般に1個以上の子をもつ演算子である．">
<polygon fill="white" stroke="black" points="96.5,-224.5 96.5,-243.5 170.5,-243.5 170.5,-224.5 96.5,-224.5"/>
<text text-anchor="middle" x="133.5" y="-231.5" font-family="Helvetica,sans-Serif" font-size="10.00">AstMathOper</text>
</a>
</g>
</g>
<!-- Node3&#45;&gt;Node2 -->
<g id="edge2" class="edge">
<title>Node3&#45;&gt;Node2</title>
<path fill="none" stroke="midnightblue" d="M133.5,-213.8C133.5,-204.91 133.5,-194.78 133.5,-187.75"/>
<polygon fill="midnightblue" stroke="midnightblue" points="130,-214.08 133.5,-224.08 137,-214.08 130,-214.08"/>
</g>
<!-- Node4 -->
<g id="node4" class="node">
<title>Node4</title>
<g id="a_node4"><a xlink:href="classast_1_1_ast_oper.html" target="_top" xlink:title=" ">
<polygon fill="white" stroke="black" points="107,-280.5 107,-299.5 160,-299.5 160,-280.5 107,-280.5"/>
<text text-anchor="middle" x="133.5" y="-287.5" font-family="Helvetica,sans-Serif" font-size="10.00">AstOper</text>
</a>
</g>
</g>
<!-- Node4&#45;&gt;Node3 -->
<g id="edge3" class="edge">
<title>Node4&#45;&gt;Node3</title>
<path fill="none" stroke="midnightblue" d="M133.5,-269.8C133.5,-260.91 133.5,-250.78 133.5,-243.75"/>
<polygon fill="midnightblue" stroke="midnightblue" points="130,-270.08 133.5,-280.08 137,-270.08 130,-270.08"/>
</g>
<!-- Node5 -->
<g id="node5" class="node">
<title>Node5</title>
<g id="a_node5"><a xlink:href="classast_1_1_ast_node.html" target="_top" xlink:title="タグなしの順アクセスの子供をもてる抽象構文木のノードのクラス。">
<polygon fill="white" stroke="red" points="0,-336.5 0,-355.5 55,-355.5 55,-336.5 0,-336.5"/>
<text text-anchor="middle" x="27.5" y="-343.5" font-family="Helvetica,sans-Serif" font-size="10.00">AstNode</text>
</a>
</g>
</g>
<!-- Node5&#45;&gt;Node4 -->
<g id="edge4" class="edge">
<title>Node5&#45;&gt;Node4</title>
<path fill="none" stroke="midnightblue" d="M53.56,-331.73C73.18,-321.73 99.53,-308.31 116.51,-299.65"/>
<polygon fill="midnightblue" stroke="midnightblue" points="51.85,-328.67 44.53,-336.32 55.03,-334.9 51.85,-328.67"/>
</g>
<!-- Node11 -->
<g id="node6" class="node">
<title>Node11</title>
<g id="a_node6"><a xlink:href="interfacecmd_1_1_generatable_1_1_evaluatable.html" target="_top" xlink:title="評価して値を返すノードのインタフェース．必ずしもコードを生成しなくても良い．">
<polygon fill="white" stroke="black" points="73,-336.5 73,-355.5 196,-355.5 196,-336.5 73,-336.5"/>
<text text-anchor="middle" x="134.5" y="-343.5" font-family="Helvetica,sans-Serif" font-size="10.00">Generatable.Evaluatable</text>
</a>
</g>
</g>
<!-- Node11&#45;&gt;Node4 -->
<g id="edge5" class="edge">
<title>Node11&#45;&gt;Node4</title>
<path fill="none" stroke="midnightblue" d="M134.14,-325.8C133.98,-316.91 133.79,-306.78 133.66,-299.75"/>
<polygon fill="midnightblue" stroke="midnightblue" points="130.65,-326.15 134.33,-336.08 137.65,-326.02 130.65,-326.15"/>
</g>
<!-- Node12 -->
<g id="node7" class="node">
<title>Node12</title>
<g id="a_node7"><a xlink:href="interfacecmd_1_1_generatable.html" target="_top" xlink:title="変換してコードを生成できるノードのインタフェース.">
<polygon fill="white" stroke="black" points="145,-392.5 145,-411.5 214,-411.5 214,-392.5 145,-392.5"/>
<text text-anchor="middle" x="179.5" y="-399.5" font-family="Helvetica,sans-Serif" font-size="10.00">Generatable</text>
</a>
</g>
</g>
<!-- Node12&#45;&gt;Node1 -->
<g id="edge7" class="edge">
<title>Node12&#45;&gt;Node1</title>
<path fill="none" stroke="midnightblue" d="M191.33,-383.96C204.66,-363.06 224.5,-326.07 224.5,-291 224.5,-291 224.5,-291 224.5,-233 224.5,-192.43 197.54,-149.5 184.9,-131.61"/>
<polygon fill="midnightblue" stroke="midnightblue" points="188.37,-382.1 185.76,-392.37 194.2,-385.97 188.37,-382.1"/>
</g>
<!-- Node12&#45;&gt;Node11 -->
<g id="edge6" class="edge">
<title>Node12&#45;&gt;Node11</title>
<path fill="none" stroke="midnightblue" d="M165.45,-384.14C157.61,-374.74 148.17,-363.4 141.79,-355.75"/>
<polygon fill="midnightblue" stroke="midnightblue" points="162.98,-386.64 172.07,-392.08 168.36,-382.16 162.98,-386.64"/>
</g>
<!-- Node14 -->
<g id="node9" class="node">
<title>Node14</title>
<g id="a_node9"><a xlink:href="classast_1_1_ast_math_oper_1_1_pre_term.html" target="_top" xlink:title=" ">
<polygon fill="white" stroke="black" points="56,-0.5 56,-19.5 169,-19.5 169,-0.5 56,-0.5"/>
<text text-anchor="middle" x="112.5" y="-7.5" font-family="Helvetica,sans-Serif" font-size="10.00">AstMathOper.PreTerm</text>
</a>
</g>
</g>
<!-- Node13&#45;&gt;Node14 -->
<g id="edge9" class="edge">
<title>Node13&#45;&gt;Node14</title>
<path fill="none" stroke="midnightblue" d="M112.5,-45.8C112.5,-36.91 112.5,-26.78 112.5,-19.75"/>
<polygon fill="midnightblue" stroke="midnightblue" points="109,-46.08 112.5,-56.08 116,-46.08 109,-46.08"/>
</g>
</g>
</svg>
