<?xml version="1.0" encoding="UTF-8" standalone="no"?>
<!DOCTYPE svg PUBLIC "-//W3C//DTD SVG 1.1//EN"
 "http://www.w3.org/Graphics/SVG/1.1/DTD/svg11.dtd">
<!-- Generated by graphviz version 2.47.1 (20210417.1919)
 -->
<!-- Title: AstDataWriter.WriterOStream Pages: 1 -->
<!--zoomable 393 -->
<svg id="main" version="1.1" xmlns="http://www.w3.org/2000/svg" xmlns:xlink="http://www.w3.org/1999/xlink" xml:space="preserve" onload="init(evt)">
<style type="text/css"><![CDATA[
.edge:hover path { stroke: red; }
.edge:hover polygon { stroke: red; fill: red; }
]]></style>
<script type="text/javascript"><![CDATA[
var edges = document.getElementsByTagName('g');
if (edges && edges.length) {
  for (var i=0;i<edges.length;i++) {
    if (edges[i].id.substr(0,4)=='edge') {
      edges[i].setAttribute('class','edge');
    }
  }
}
]]></script>
        <defs>
                <circle id="rim" cx="0" cy="0" r="7"/>
                <circle id="rim2" cx="0" cy="0" r="3.5"/>
                <g id="zoomPlus">
                        <use xlink:href="#rim" fill="#404040">
                                <set attributeName="fill" to="#808080" begin="zoomplus.mouseover" end="zoomplus.mouseout"/>
                        </use>
                        <path d="M-4,0h8M0,-4v8" fill="none" stroke="white" stroke-width="1.5" pointer-events="none"/>
                </g>
                <g id="zoomMin">
                        <use xlink:href="#rim" fill="#404040">
                                <set attributeName="fill" to="#808080" begin="zoomminus.mouseover" end="zoomminus.mouseout"/>
                        </use>
                        <path d="M-4,0h8" fill="none" stroke="white" stroke-width="1.5" pointer-events="none"/>
                </g>
                <g id="dirArrow">
                        <path fill="none" stroke="white" stroke-width="1.5" d="M0,-3.0v7 M-2.5,-0.5L0,-3.0L2.5,-0.5"/>
                </g>
               <g id="resetDef">
                       <use xlink:href="#rim2" fill="#404040">
                               <set attributeName="fill" to="#808080" begin="reset.mouseover" end="reset.mouseout"/>
                       </use>
               </g>
        </defs>

<script type="text/javascript">
var viewWidth = 1010;
var viewHeight = 393;
var sectionId = 'dynsection-1';
</script>
<script xlink:href="svgpan.js"/>
<svg id="graph" class="graph">
<g id="viewport">
<title>AstDataWriter.WriterOStream</title>
<polygon fill="white" stroke="transparent" points="-4,4 -4,-389 1006,-389 1006,4 -4,4"/>
<!-- Node1 -->
<g id="node1" class="node">
<title>Node1</title>
<g id="a_node1"><a xlink:title="String型の値をもつ局所変数">
<polygon fill="#bfbfbf" stroke="black" points="857,-38.5 857,-57.5 1002,-57.5 1002,-38.5 857,-38.5"/>
<text text-anchor="middle" x="929.5" y="-45.5" font-family="Helvetica,sans-Serif" font-size="10.00">AstDataWriter.WriterOStream</text>
</a>
</g>
</g>
<!-- Node2 -->
<g id="node2" class="node">
<title>Node2</title>
<g id="a_node2"><a xlink:href="classast_1_1_ast_data_writer.html" target="_top" xlink:title="局所変数環境からの値を書き込むクラス">
<polygon fill="white" stroke="black" points="710,-76.5 710,-95.5 788,-95.5 788,-76.5 710,-76.5"/>
<text text-anchor="middle" x="749" y="-83.5" font-family="Helvetica,sans-Serif" font-size="10.00">AstDataWriter</text>
</a>
</g>
</g>
<!-- Node2&#45;&gt;Node1 -->
<g id="edge1" class="edge">
<title>Node2&#45;&gt;Node1</title>
<path fill="none" stroke="midnightblue" d="M798.16,-75.75C824.76,-70.08 857.59,-63.1 883.65,-57.55"/>
<polygon fill="midnightblue" stroke="midnightblue" points="797.34,-72.34 788.29,-77.85 798.8,-79.19 797.34,-72.34"/>
</g>
<!-- Node3 -->
<g id="node3" class="node">
<title>Node3</title>
<g id="a_node3"><a xlink:href="classast_1_1_ast_node_unary.html" target="_top" xlink:title="ただ一つの子をもつノードのクラス。">
<polygon fill="white" stroke="black" points="565,-170.5 565,-189.5 646,-189.5 646,-170.5 565,-170.5"/>
<text text-anchor="middle" x="605.5" y="-177.5" font-family="Helvetica,sans-Serif" font-size="10.00">AstNodeUnary</text>
</a>
</g>
</g>
<!-- Node3&#45;&gt;Node2 -->
<g id="edge2" class="edge">
<title>Node3&#45;&gt;Node2</title>
<path fill="none" stroke="midnightblue" d="M629.25,-164.89C658.66,-145.35 709.01,-111.9 733.62,-95.56"/>
<polygon fill="midnightblue" stroke="midnightblue" points="627.24,-162.02 620.85,-170.47 631.11,-167.85 627.24,-162.02"/>
</g>
<!-- Node4 -->
<g id="node4" class="node">
<title>Node4</title>
<g id="a_node4"><a xlink:href="classast_1_1_ast_node.html" target="_top" xlink:title="タグなしの順アクセスの子供をもてる抽象構文木のノードのクラス。">
<polygon fill="white" stroke="black" points="454.5,-176.5 454.5,-195.5 509.5,-195.5 509.5,-176.5 454.5,-176.5"/>
<text text-anchor="middle" x="482" y="-183.5" font-family="Helvetica,sans-Serif" font-size="10.00">AstNode</text>
</a>
</g>
</g>
<!-- Node4&#45;&gt;Node3 -->
<g id="edge3" class="edge">
<title>Node4&#45;&gt;Node3</title>
<path fill="none" stroke="midnightblue" d="M520.07,-184.17C534.28,-183.47 550.54,-182.66 564.97,-181.95"/>
<polygon fill="midnightblue" stroke="midnightblue" points="519.48,-180.69 509.66,-184.68 519.82,-187.69 519.48,-180.69"/>
</g>
<!-- Node22 -->
<g id="node16" class="node">
<title>Node22</title>
<g id="a_node16"><a xlink:href="classmachine_1_1_var.html" target="_top" xlink:title="フレーム中の変数参照オブジェクトref = (XType type, int vid)">
<polygon fill="white" stroke="black" points="590,-38.5 590,-57.5 621,-57.5 621,-38.5 590,-38.5"/>
<text text-anchor="middle" x="605.5" y="-45.5" font-family="Helvetica,sans-Serif" font-size="10.00">Var</text>
</a>
</g>
</g>
<!-- Node4&#45;&gt;Node22 -->
<g id="edge19" class="edge">
<title>Node4&#45;&gt;Node22</title>
<path fill="none" stroke="midnightblue" d="M498.62,-168.26C524.52,-138.84 575.52,-80.92 595.84,-57.83"/>
<polygon fill="midnightblue" stroke="midnightblue" points="495.72,-166.26 491.74,-176.08 500.97,-170.88 495.72,-166.26"/>
</g>
<!-- Node5 -->
<g id="node5" class="node">
<title>Node5</title>
<g id="a_node5"><a xlink:href="classast_1_1_ast_node_base.html" target="_top" xlink:title=" ">
<polygon fill="white" stroke="red" points="217.5,-152.5 217.5,-171.5 294.5,-171.5 294.5,-152.5 217.5,-152.5"/>
<text text-anchor="middle" x="256" y="-159.5" font-family="Helvetica,sans-Serif" font-size="10.00">AstNodeBase</text>
</a>
</g>
</g>
<!-- Node5&#45;&gt;Node4 -->
<g id="edge4" class="edge">
<title>Node5&#45;&gt;Node4</title>
<path fill="none" stroke="midnightblue" d="M304.71,-167.11C350.34,-172 417.5,-179.2 454.36,-183.15"/>
<polygon fill="midnightblue" stroke="midnightblue" points="305.06,-163.63 294.75,-166.04 304.32,-170.59 305.06,-163.63"/>
</g>
<!-- Node9 -->
<g id="node6" class="node">
<title>Node9</title>
<g id="a_node6"><a xlink:title=" ">
<polygon fill="white" stroke="#bfbfbf" points="0,-54.5 0,-73.5 29,-73.5 29,-54.5 0,-54.5"/>
<text text-anchor="middle" x="14.5" y="-61.5" font-family="Helvetica,sans-Serif" font-size="10.00">int</text>
</a>
</g>
</g>
<!-- Node9&#45;&gt;Node5 -->
<g id="edge5" class="edge">
<title>Node9&#45;&gt;Node5</title>
<path fill="none" stroke="#9a32cd" stroke-dasharray="5,2" d="M38.17,-75.74C70.71,-92.28 132.82,-122.68 188,-143 197.42,-146.47 207.77,-149.68 217.46,-152.45"/>
<polygon fill="#9a32cd" stroke="#9a32cd" points="39.56,-72.52 29.06,-71.08 36.37,-78.75 39.56,-72.52"/>
<text text-anchor="middle" x="108.5" y="-171" font-family="Helvetica,sans-Serif" font-size="10.00"> BITMASK_PRINT_WIDTH</text>
<text text-anchor="middle" x="108.5" y="-160" font-family="Helvetica,sans-Serif" font-size="10.00">UNDEF</text>
<text text-anchor="middle" x="108.5" y="-149" font-family="Helvetica,sans-Serif" font-size="10.00">id_</text>
<text text-anchor="middle" x="108.5" y="-138" font-family="Helvetica,sans-Serif" font-size="10.00">numInstances</text>
</g>
<!-- Node9&#45;&gt;Node22 -->
<g id="edge20" class="edge">
<title>Node9&#45;&gt;Node22</title>
<path fill="none" stroke="#9a32cd" stroke-dasharray="5,2" d="M39.31,-63.35C137.69,-60.68 511.01,-50.54 589.83,-48.4"/>
<polygon fill="#9a32cd" stroke="#9a32cd" points="39.09,-59.86 29.19,-63.63 39.28,-66.86 39.09,-59.86"/>
<text text-anchor="middle" x="380" y="-58" font-family="Helvetica,sans-Serif" font-size="10.00"> UNDEF</text>
</g>
<!-- Node12 -->
<g id="node7" class="node">
<title>Node12</title>
<g id="a_node7"><a xlink:href="interfaceast_1_1_node.html" target="_top" xlink:title=" ">
<polygon fill="white" stroke="red" points="236,-365.5 236,-384.5 276,-384.5 276,-365.5 236,-365.5"/>
<text text-anchor="middle" x="256" y="-372.5" font-family="Helvetica,sans-Serif" font-size="10.00">Node</text>
</a>
</g>
</g>
<!-- Node12&#45;&gt;Node4 -->
<g id="edge6" class="edge">
<title>Node12&#45;&gt;Node4</title>
<path fill="none" stroke="midnightblue" d="M286.33,-371.82C327.82,-366.69 400.55,-355.18 418,-336 455.77,-294.48 404.15,-257.22 436,-211 440.56,-204.38 447.48,-199.32 454.53,-195.55"/>
<polygon fill="midnightblue" stroke="midnightblue" points="285.78,-368.36 276.26,-373.01 286.6,-375.31 285.78,-368.36"/>
</g>
<!-- Node20 -->
<g id="node14" class="node">
<title>Node20</title>
<g id="a_node14"><a xlink:href="interfaceast_1_1_node_1_1_node_unary.html" target="_top" xlink:title="子供を一つだけもつノードのインタフェース">
<polygon fill="white" stroke="black" points="436,-220.5 436,-239.5 528,-239.5 528,-220.5 436,-220.5"/>
<text text-anchor="middle" x="482" y="-227.5" font-family="Helvetica,sans-Serif" font-size="10.00">Node.NodeUnary</text>
</a>
</g>
</g>
<!-- Node12&#45;&gt;Node20 -->
<g id="edge14" class="edge">
<title>Node12&#45;&gt;Node20</title>
<path fill="none" stroke="midnightblue" d="M286.06,-380.51C320.69,-385.39 378.78,-388.1 418,-361 460.77,-331.45 475.5,-264.63 479.62,-239.66"/>
<polygon fill="midnightblue" stroke="midnightblue" points="286.54,-377.04 276.12,-378.95 285.46,-383.96 286.54,-377.04"/>
</g>
<!-- Node14 -->
<g id="node8" class="node">
<title>Node14</title>
<g id="a_node8"><a xlink:href="interfaceformat_1_1_x_formattable_1_1_navigatable.html" target="_top" xlink:title="木構造の分岐ノードとして清書可能なオブジェクトのクラス">
<polygon fill="white" stroke="red" points="191,-76.5 191,-95.5 321,-95.5 321,-76.5 191,-76.5"/>
<text text-anchor="middle" x="256" y="-83.5" font-family="Helvetica,sans-Serif" font-size="10.00">XFormattable.Navigatable</text>
</a>
</g>
</g>
<!-- Node14&#45;&gt;Node2 -->
<g id="edge15" class="edge">
<title>Node14&#45;&gt;Node2</title>
<path fill="none" stroke="midnightblue" d="M331.19,-86C437.37,-86 628.79,-86 709.96,-86"/>
<polygon fill="midnightblue" stroke="midnightblue" points="331.19,-82.5 321.19,-86 331.19,-89.5 331.19,-82.5"/>
</g>
<!-- Node14&#45;&gt;Node4 -->
<g id="edge7" class="edge">
<title>Node14&#45;&gt;Node4</title>
<path fill="none" stroke="midnightblue" d="M319.69,-97.83C350.5,-105.22 387.47,-116.54 418,-133 439.64,-144.67 460.64,-164.58 472.09,-176.39"/>
<polygon fill="midnightblue" stroke="midnightblue" points="320.45,-94.41 309.91,-95.56 318.87,-101.23 320.45,-94.41"/>
</g>
<!-- Node15 -->
<g id="node9" class="node">
<title>Node15</title>
<g id="a_node9"><a xlink:title=" ">
<polygon fill="white" stroke="#bfbfbf" points="192,-316 192,-346 320,-346 320,-316 192,-316"/>
<text text-anchor="start" x="200" y="-334" font-family="Helvetica,sans-Serif" font-size="10.00">java.util.function.Function</text>
<text text-anchor="middle" x="256" y="-323" font-family="Helvetica,sans-Serif" font-size="10.00">&lt; ast.Node, String &gt;</text>
</a>
</g>
</g>
<!-- Node15&#45;&gt;Node4 -->
<g id="edge8" class="edge">
<title>Node15&#45;&gt;Node4</title>
<path fill="none" stroke="#9a32cd" stroke-dasharray="5,2" d="M330.08,-326.7C361.06,-321.2 395.19,-309.67 418,-286 441.79,-261.32 415.26,-238.3 436,-211 440.97,-204.45 448.18,-199.38 455.38,-195.57"/>
<polygon fill="#9a32cd" stroke="#9a32cd" points="329.48,-323.26 320.15,-328.29 330.58,-330.17 329.48,-323.26"/>
<text text-anchor="middle" x="380" y="-326" font-family="Helvetica,sans-Serif" font-size="10.00"> printerFunc</text>
</g>
<!-- Node16 -->
<g id="node10" class="node">
<title>Node16</title>
<g id="a_node10"><a xlink:title=" ">
<polygon fill="white" stroke="#bfbfbf" points="188,-267 188,-297 324,-297 324,-267 188,-267"/>
<text text-anchor="start" x="196" y="-285" font-family="Helvetica,sans-Serif" font-size="10.00">java.util.function.Consumer</text>
<text text-anchor="middle" x="256" y="-274" font-family="Helvetica,sans-Serif" font-size="10.00">&lt; ast.Node &gt;</text>
</a>
</g>
</g>
<!-- Node16&#45;&gt;Node4 -->
<g id="edge9" class="edge">
<title>Node16&#45;&gt;Node4</title>
<path fill="none" stroke="#9a32cd" stroke-dasharray="5,2" d="M334.13,-274.05C362.59,-268.14 393.77,-257.86 418,-240 430.21,-231 425.02,-221.46 436,-211 442.47,-204.84 450.75,-199.67 458.44,-195.67"/>
<polygon fill="#9a32cd" stroke="#9a32cd" points="333.35,-270.64 324.19,-275.97 334.67,-277.51 333.35,-270.64"/>
<text text-anchor="middle" x="380" y="-274" font-family="Helvetica,sans-Serif" font-size="10.00"> typerFunc</text>
</g>
<!-- Node17 -->
<g id="node11" class="node">
<title>Node17</title>
<g id="a_node11"><a xlink:title=" ">
<polygon fill="white" stroke="#bfbfbf" points="211,-228.5 211,-247.5 301,-247.5 301,-228.5 211,-228.5"/>
<text text-anchor="middle" x="256" y="-235.5" font-family="Helvetica,sans-Serif" font-size="10.00">List&lt; ast.Node &gt;</text>
</a>
</g>
</g>
<!-- Node17&#45;&gt;Node4 -->
<g id="edge10" class="edge">
<title>Node17&#45;&gt;Node4</title>
<path fill="none" stroke="#9a32cd" stroke-dasharray="5,2" d="M311.08,-230.63C342.57,-225.76 382.87,-218.5 418,-209 431.38,-205.38 445.93,-200.16 457.68,-195.6"/>
<polygon fill="#9a32cd" stroke="#9a32cd" points="310.55,-227.17 301.19,-232.13 311.6,-234.1 310.55,-227.17"/>
<text text-anchor="middle" x="380" y="-228" font-family="Helvetica,sans-Serif" font-size="10.00"> children_</text>
</g>
<!-- Node18 -->
<g id="node12" class="node">
<title>Node18</title>
<g id="a_node12"><a xlink:title=" ">
<polygon fill="white" stroke="#bfbfbf" points="230,-190.5 230,-209.5 282,-209.5 282,-190.5 230,-190.5"/>
<text text-anchor="middle" x="256" y="-197.5" font-family="Helvetica,sans-Serif" font-size="10.00">Boolean</text>
</a>
</g>
</g>
<!-- Node18&#45;&gt;Node4 -->
<g id="edge11" class="edge">
<title>Node18&#45;&gt;Node4</title>
<path fill="none" stroke="#9a32cd" stroke-dasharray="5,2" d="M292.44,-197.78C337.47,-194.97 414.14,-190.18 454.45,-187.66"/>
<polygon fill="#9a32cd" stroke="#9a32cd" points="292.02,-194.3 282.26,-198.42 292.46,-201.29 292.02,-194.3"/>
<text text-anchor="middle" x="380" y="-197" font-family="Helvetica,sans-Serif" font-size="10.00"> DEBUG_CHILD</text>
</g>
<!-- Node19 -->
<g id="node13" class="node">
<title>Node19</title>
<g id="a_node13"><a xlink:href="classformat_1_1_style.html" target="_top" xlink:title="ノードの表示スタイルに関するプロパティのクラス.">
<polygon fill="white" stroke="red" points="236.5,-114.5 236.5,-133.5 275.5,-133.5 275.5,-114.5 236.5,-114.5"/>
<text text-anchor="middle" x="256" y="-121.5" font-family="Helvetica,sans-Serif" font-size="10.00">Style</text>
</a>
</g>
</g>
<!-- Node19&#45;&gt;Node4 -->
<g id="edge12" class="edge">
<title>Node19&#45;&gt;Node4</title>
<path fill="none" stroke="#9a32cd" stroke-dasharray="5,2" d="M285.93,-127.54C318.6,-132.05 373.04,-141.09 418,-156 434.1,-161.34 451.43,-169.81 463.83,-176.39"/>
<polygon fill="#9a32cd" stroke="#9a32cd" points="286.11,-124.04 275.74,-126.19 285.19,-130.98 286.11,-124.04"/>
<text text-anchor="middle" x="380" y="-159" font-family="Helvetica,sans-Serif" font-size="10.00"> sty</text>
</g>
<!-- Node20&#45;&gt;Node2 -->
<g id="edge16" class="edge">
<title>Node20&#45;&gt;Node2</title>
<path fill="none" stroke="midnightblue" d="M538.57,-228.23C571.59,-225.11 613.26,-217.41 646,-199 692.3,-172.96 728.78,-118.15 742.31,-95.8"/>
<polygon fill="midnightblue" stroke="midnightblue" points="537.86,-224.78 528.18,-229.09 538.44,-231.75 537.86,-224.78"/>
</g>
<!-- Node20&#45;&gt;Node3 -->
<g id="edge13" class="edge">
<title>Node20&#45;&gt;Node3</title>
<path fill="none" stroke="midnightblue" d="M515.48,-216.63C536.13,-208.13 562.4,-197.33 581.03,-189.66"/>
<polygon fill="midnightblue" stroke="midnightblue" points="514.05,-213.44 506.14,-220.48 516.72,-219.91 514.05,-213.44"/>
</g>
<!-- Node21 -->
<g id="node15" class="node">
<title>Node21</title>
<g id="a_node15"><a xlink:href="interfacemachine_1_1_data_accessor.html" target="_top" xlink:title="参照をもつデータ読み書きオブジェクトのインタフェース.">
<polygon fill="white" stroke="black" points="566,-0.5 566,-19.5 645,-19.5 645,-0.5 566,-0.5"/>
<text text-anchor="middle" x="605.5" y="-7.5" font-family="Helvetica,sans-Serif" font-size="10.00">DataAccessor</text>
</a>
</g>
</g>
<!-- Node21&#45;&gt;Node2 -->
<g id="edge17" class="edge">
<title>Node21&#45;&gt;Node2</title>
<path fill="none" stroke="midnightblue" d="M637.15,-24.17C640.17,-25.74 643.17,-27.36 646,-29 662.32,-38.45 665.77,-41.87 681,-53 689.18,-58.98 690.18,-62 699,-67 705.27,-70.55 712.34,-73.72 719.11,-76.41"/>
<polygon fill="midnightblue" stroke="midnightblue" points="638.64,-21 628.13,-19.67 635.52,-27.26 638.64,-21"/>
</g>
<!-- Node22&#45;&gt;Node2 -->
<g id="edge18" class="edge">
<title>Node22&#45;&gt;Node2</title>
<path fill="none" stroke="#9a32cd" stroke-dasharray="5,2" d="M631.48,-51.18C646.07,-53.33 664.74,-56.59 681,-61 689.27,-63.24 708.09,-70.33 723.69,-76.39"/>
<polygon fill="#9a32cd" stroke="#9a32cd" points="631.62,-47.67 621.24,-49.76 630.66,-54.6 631.62,-47.67"/>
<text text-anchor="middle" x="672.5" y="-64" font-family="Helvetica,sans-Serif" font-size="10.00"> var</text>
</g>
<!-- Node23 -->
<g id="node17" class="node">
<title>Node23</title>
<g id="a_node17"><a xlink:href="interfacecmd_1_1_generatable.html" target="_top" xlink:title="変換してコードを生成できるノードのインタフェース.">
<polygon fill="white" stroke="black" points="714.5,-38.5 714.5,-57.5 783.5,-57.5 783.5,-38.5 714.5,-38.5"/>
<text text-anchor="middle" x="749" y="-45.5" font-family="Helvetica,sans-Serif" font-size="10.00">Generatable</text>
</a>
</g>
</g>
<!-- Node23&#45;&gt;Node1 -->
<g id="edge21" class="edge">
<title>Node23&#45;&gt;Node1</title>
<path fill="none" stroke="midnightblue" d="M793.73,-48C812.78,-48 835.6,-48 857,-48"/>
<polygon fill="midnightblue" stroke="midnightblue" points="793.57,-44.5 783.57,-48 793.57,-51.5 793.57,-44.5"/>
</g>
<!-- Node24 -->
<g id="node18" class="node">
<title>Node24</title>
<g id="a_node18"><a xlink:title=" ">
<polygon fill="white" stroke="#bfbfbf" points="699,-0.5 699,-19.5 799,-19.5 799,-0.5 699,-0.5"/>
<text text-anchor="middle" x="749" y="-7.5" font-family="Helvetica,sans-Serif" font-size="10.00">java.io.PrintStream</text>
</a>
</g>
</g>
<!-- Node24&#45;&gt;Node1 -->
<g id="edge22" class="edge">
<title>Node24&#45;&gt;Node1</title>
<path fill="none" stroke="#9a32cd" stroke-dasharray="5,2" d="M804.87,-21.68C830.18,-27.07 859.85,-33.39 883.78,-38.48"/>
<polygon fill="#9a32cd" stroke="#9a32cd" points="805.55,-18.25 795.04,-19.59 804.1,-25.09 805.55,-18.25"/>
<text text-anchor="middle" x="828" y="-31" font-family="Helvetica,sans-Serif" font-size="10.00"> outs</text>
</g>
</g>
</svg>
        <g id="navigator" transform="translate(0 0)" fill="#404254">
                <rect fill="#f2f5e9" fill-opacity="0.5" stroke="#606060" stroke-width=".5" x="0" y="0" width="60" height="60"/>
                <use id="zoomplus" xlink:href="#zoomPlus" x="17" y="9" onmousedown="handleZoom(evt,'in')"/>
                <use id="zoomminus" xlink:href="#zoomMin" x="42" y="9" onmousedown="handleZoom(evt,'out')"/>
                <use id="reset" xlink:href="#resetDef" x="30" y="36" onmousedown="handleReset()"/>
                <g id="arrowUp" xlink:href="#dirArrow" transform="translate(30 24)" onmousedown="handlePan(0,-1)">
                  <use xlink:href="#rim" fill="#404040">
                        <set attributeName="fill" to="#808080" begin="arrowUp.mouseover" end="arrowUp.mouseout"/>
                  </use>
                  <path fill="none" stroke="white" stroke-width="1.5" d="M0,-3.0v7 M-2.5,-0.5L0,-3.0L2.5,-0.5"/>
                </g>
                <g id="arrowRight" xlink:href="#dirArrow" transform="rotate(90) translate(36 -43)" onmousedown="handlePan(1,0)">
                  <use xlink:href="#rim" fill="#404040">
                        <set attributeName="fill" to="#808080" begin="arrowRight.mouseover" end="arrowRight.mouseout"/>
                  </use>
                  <path fill="none" stroke="white" stroke-width="1.5" d="M0,-3.0v7 M-2.5,-0.5L0,-3.0L2.5,-0.5"/>
                </g>
                <g id="arrowDown" xlink:href="#dirArrow" transform="rotate(180) translate(-30 -48)" onmousedown="handlePan(0,1)">
                  <use xlink:href="#rim" fill="#404040">
                        <set attributeName="fill" to="#808080" begin="arrowDown.mouseover" end="arrowDown.mouseout"/>
                  </use>
                  <path fill="none" stroke="white" stroke-width="1.5" d="M0,-3.0v7 M-2.5,-0.5L0,-3.0L2.5,-0.5"/>
                </g>
                <g id="arrowLeft" xlink:href="#dirArrow" transform="rotate(270) translate(-36 17)" onmousedown="handlePan(-1,0)">
                  <use xlink:href="#rim" fill="#404040">
                        <set attributeName="fill" to="#808080" begin="arrowLeft.mouseover" end="arrowLeft.mouseout"/>
                  </use>
                  <path fill="none" stroke="white" stroke-width="1.5" d="M0,-3.0v7 M-2.5,-0.5L0,-3.0L2.5,-0.5"/>
                </g>
        </g>
        <svg viewBox="0 0 15 15" width="100%" height="30px" preserveAspectRatio="xMaxYMin meet">
         <g id="arrow_out" transform="scale(0.3 0.3)">
          <a xlink:href="classast_1_1_ast_data_writer_1_1_writer_o_stream__coll__graph_org.svg" target="_base">
           <rect id="button" ry="5" rx="5" y="6" x="6" height="38" width="38"
                fill="#f2f5e9" fill-opacity="0.5" stroke="#606060" stroke-width="1.0"/>
           <path id="arrow"
             d="M 11.500037,31.436501 C 11.940474,20.09759 22.043105,11.32322 32.158766,21.979434 L 37.068811,17.246167 C 37.068811,17.246167 37.088388,32 37.088388,32 L 22.160133,31.978069 C 22.160133,31.978069 26.997745,27.140456 26.997745,27.140456 C 18.528582,18.264221 13.291696,25.230495 11.500037,31.436501 z"
             style="fill:#404040;"/>
          </a>
         </g>
        </svg>
</svg>
