<?xml version="1.0" encoding="UTF-8" standalone="no"?>
<!DOCTYPE svg PUBLIC "-//W3C//DTD SVG 1.1//EN"
 "http://www.w3.org/Graphics/SVG/1.1/DTD/svg11.dtd">
<!-- Generated by graphviz version 2.47.0 (20210316.0004)
 -->
<!-- Title: AstList.StepList Pages: 1 -->
<!--zoomable 593 -->
<svg id="main" version="1.1" xmlns="http://www.w3.org/2000/svg" xmlns:xlink="http://www.w3.org/1999/xlink" xml:space="preserve" onload="init(evt)">
<style type="text/css"><![CDATA[
.edge:hover path { stroke: red; }
.edge:hover polygon { stroke: red; fill: red; }
]]></style>
<script type="text/javascript"><![CDATA[
var edges = document.getElementsByTagName('g');
if (edges && edges.length) {
  for (var i=0;i<edges.length;i++) {
    if (edges[i].id.substr(0,4)=='edge') {
      edges[i].setAttribute('class','edge');
    }
  }
}
]]></script>
        <defs>
                <circle id="rim" cx="0" cy="0" r="7"/>
                <circle id="rim2" cx="0" cy="0" r="3.5"/>
                <g id="zoomPlus">
                        <use xlink:href="#rim" fill="#404040">
                                <set attributeName="fill" to="#808080" begin="zoomplus.mouseover" end="zoomplus.mouseout"/>
                        </use>
                        <path d="M-4,0h8M0,-4v8" fill="none" stroke="white" stroke-width="1.5" pointer-events="none"/>
                </g>
                <g id="zoomMin">
                        <use xlink:href="#rim" fill="#404040">
                                <set attributeName="fill" to="#808080" begin="zoomminus.mouseover" end="zoomminus.mouseout"/>
                        </use>
                        <path d="M-4,0h8" fill="none" stroke="white" stroke-width="1.5" pointer-events="none"/>
                </g>
                <g id="dirArrow">
                        <path fill="none" stroke="white" stroke-width="1.5" d="M0,-3.0v7 M-2.5,-0.5L0,-3.0L2.5,-0.5"/>
                </g>
               <g id="resetDef">
                       <use xlink:href="#rim2" fill="#404040">
                               <set attributeName="fill" to="#808080" begin="reset.mouseover" end="reset.mouseout"/>
                       </use>
               </g>
        </defs>

<script type="text/javascript">
var viewWidth = 1022;
var viewHeight = 593;
var sectionId = 'dynsection-1';
</script>
<script xlink:href="svgpan.js"/>
<svg id="graph" class="graph">
<g id="viewport">
<title>AstList.StepList</title>
<polygon fill="white" stroke="transparent" points="-4,4 -4,-589 1018,-589 1018,4 -4,4"/>
<!-- Node1 -->
<g id="node1" class="node">
<title>Node1</title>
<g id="a_node1"><a xlink:title="ステップのリスト.">
<polygon fill="#bfbfbf" stroke="black" points="928,-12.5 928,-31.5 1014,-31.5 1014,-12.5 928,-12.5"/>
<text text-anchor="middle" x="971" y="-19.5" font-family="Helvetica,sans-Serif" font-size="10.00">AstList.StepList</text>
</a>
</g>
</g>
<!-- Node2 -->
<g id="node2" class="node">
<title>Node2</title>
<g id="a_node2"><a xlink:href="classast_1_1_ast_list.html" target="_top" xlink:title="リストのテンプレート.">
<polygon fill="white" stroke="black" points="833,-38.5 833,-57.5 880,-57.5 880,-38.5 833,-38.5"/>
<text text-anchor="middle" x="856.5" y="-45.5" font-family="Helvetica,sans-Serif" font-size="10.00">AstList</text>
</a>
</g>
</g>
<!-- Node2&#45;&gt;Node1 -->
<g id="edge1" class="edge">
<title>Node2&#45;&gt;Node1</title>
<path fill="none" stroke="midnightblue" d="M890.28,-40.42C902.26,-37.66 915.97,-34.49 928.61,-31.57"/>
<polygon fill="midnightblue" stroke="midnightblue" points="889.22,-37.08 880.27,-42.74 890.8,-43.9 889.22,-37.08"/>
</g>
<!-- Node3 -->
<g id="node3" class="node">
<title>Node3</title>
<g id="a_node3"><a xlink:href="classast_1_1_ast_node_branch.html" target="_top" xlink:title="タグなしの順アクセスの子供をもてる抽象構文木のノードのクラス。">
<polygon fill="white" stroke="black" points="699,-95.5 699,-114.5 785,-114.5 785,-95.5 699,-95.5"/>
<text text-anchor="middle" x="742" y="-102.5" font-family="Helvetica,sans-Serif" font-size="10.00">AstNodeBranch</text>
</a>
</g>
</g>
<!-- Node3&#45;&gt;Node2 -->
<g id="edge2" class="edge">
<title>Node3&#45;&gt;Node2</title>
<path fill="none" stroke="midnightblue" d="M770.98,-90.82C791.45,-80.45 818.66,-66.67 836.61,-57.57"/>
<polygon fill="midnightblue" stroke="midnightblue" points="769.17,-87.82 761.83,-95.46 772.33,-94.06 769.17,-87.82"/>
</g>
<!-- Node4 -->
<g id="node4" class="node">
<title>Node4</title>
<g id="a_node4"><a xlink:href="classast_1_1_ast_node.html" target="_top" xlink:title=" ">
<polygon fill="white" stroke="black" points="494.5,-412.5 494.5,-431.5 549.5,-431.5 549.5,-412.5 494.5,-412.5"/>
<text text-anchor="middle" x="522" y="-419.5" font-family="Helvetica,sans-Serif" font-size="10.00">AstNode</text>
</a>
</g>
</g>
<!-- Node4&#45;&gt;Node3 -->
<g id="edge3" class="edge">
<title>Node4&#45;&gt;Node3</title>
<path fill="none" stroke="midnightblue" d="M535.51,-403.8C576.16,-344.69 703.65,-159.32 734.32,-114.72"/>
<polygon fill="midnightblue" stroke="midnightblue" points="532.55,-401.94 529.76,-412.17 538.31,-405.91 532.55,-401.94"/>
</g>
<!-- Node5 -->
<g id="node5" class="node">
<title>Node5</title>
<g id="a_node5"><a xlink:href="interfaceformat_1_1_x_formattable.html" target="_top" xlink:title="入れ子フォーマット出力可能なオブジェクトのインタフェース。">
<polygon fill="white" stroke="black" points="0,-495.5 0,-514.5 75,-514.5 75,-495.5 0,-495.5"/>
<text text-anchor="middle" x="37.5" y="-502.5" font-family="Helvetica,sans-Serif" font-size="10.00">XFormattable</text>
</a>
</g>
</g>
<!-- Node5&#45;&gt;Node4 -->
<g id="edge4" class="edge">
<title>Node5&#45;&gt;Node4</title>
<path fill="none" stroke="midnightblue" d="M85.29,-507.04C178.36,-510.2 382.59,-512.4 439,-474 454.12,-463.71 442.71,-448.42 457,-437 467.52,-428.59 481.94,-424.75 494.43,-423.05"/>
<polygon fill="midnightblue" stroke="midnightblue" points="85.16,-503.53 75.04,-506.67 84.91,-510.53 85.16,-503.53"/>
</g>
<!-- Node13 -->
<g id="node13" class="node">
<title>Node13</title>
<g id="a_node13"><a xlink:href="interfaceformat_1_1_x_formattable_1_1_label_formattable.html" target="_top" xlink:title="カスタム清書出力器をもつオブジェクトのクラス．">
<polygon fill="white" stroke="black" points="112,-67.5 112,-86.5 265,-86.5 265,-67.5 112,-67.5"/>
<text text-anchor="middle" x="188.5" y="-74.5" font-family="Helvetica,sans-Serif" font-size="10.00">XFormattable.LabelFormattable</text>
</a>
</g>
</g>
<!-- Node5&#45;&gt;Node13 -->
<g id="edge13" class="edge">
<title>Node5&#45;&gt;Node13</title>
<path fill="none" stroke="midnightblue" d="M39.64,-485.01C44.16,-412.58 62.97,-165.03 112,-106 119.45,-97.03 130,-90.83 140.86,-86.55"/>
<polygon fill="midnightblue" stroke="midnightblue" points="36.12,-485.23 39.02,-495.42 43.11,-485.64 36.12,-485.23"/>
</g>
<!-- Node14 -->
<g id="node14" class="node">
<title>Node14</title>
<g id="a_node14"><a xlink:href="interfaceformat_1_1_x_formattable_1_1_typed_formattable.html" target="_top" xlink:title="ノードの型情報をもつ書式出力可能なオブジェクトのインタフェース．">
<polygon fill="white" stroke="black" points="283,-565.5 283,-584.5 439,-584.5 439,-565.5 283,-565.5"/>
<text text-anchor="middle" x="361" y="-572.5" font-family="Helvetica,sans-Serif" font-size="10.00">XFormattable.TypedFormattable</text>
</a>
</g>
</g>
<!-- Node5&#45;&gt;Node14 -->
<g id="edge15" class="edge">
<title>Node5&#45;&gt;Node14</title>
<path fill="none" stroke="midnightblue" d="M54.52,-522.21C68.31,-535.73 89.48,-553.63 112,-562 166.56,-582.29 232.54,-584.79 282.73,-582.63"/>
<polygon fill="midnightblue" stroke="midnightblue" points="56.81,-519.54 47.31,-514.86 51.82,-524.45 56.81,-519.54"/>
</g>
<!-- Node6 -->
<g id="node6" class="node">
<title>Node6</title>
<g id="a_node6"><a xlink:title=" ">
<polygon fill="white" stroke="#bfbfbf" points="167.5,-266.5 167.5,-285.5 209.5,-285.5 209.5,-266.5 167.5,-266.5"/>
<text text-anchor="middle" x="188.5" y="-273.5" font-family="Helvetica,sans-Serif" font-size="10.00">String</text>
</a>
</g>
</g>
<!-- Node6&#45;&gt;Node4 -->
<g id="edge5" class="edge">
<title>Node6&#45;&gt;Node4</title>
<path fill="none" stroke="#9a32cd" stroke-dasharray="5,2" d="M208.26,-292.3C226.17,-306.88 254.58,-327.52 283,-338 348.53,-362.17 374.55,-330.08 439,-357 469.51,-369.75 498.08,-397.22 512.05,-412.04"/>
<polygon fill="#9a32cd" stroke="#9a32cd" points="210.28,-289.43 200.36,-285.71 205.79,-294.8 210.28,-289.43"/>
<text text-anchor="middle" x="361" y="-371" font-family="Helvetica,sans-Serif" font-size="10.00"> MOD_AST</text>
<text text-anchor="middle" x="361" y="-360" font-family="Helvetica,sans-Serif" font-size="10.00">mod_</text>
</g>
<!-- Node16 -->
<g id="node16" class="node">
<title>Node16</title>
<g id="a_node16"><a xlink:href="classformat_1_1_style.html" target="_top" xlink:title="ノードの表示スタイルに関するプロパティのクラス.">
<polygon fill="white" stroke="black" points="502.5,-169.5 502.5,-188.5 541.5,-188.5 541.5,-169.5 502.5,-169.5"/>
<text text-anchor="middle" x="522" y="-176.5" font-family="Helvetica,sans-Serif" font-size="10.00">Style</text>
</a>
</g>
</g>
<!-- Node6&#45;&gt;Node16 -->
<g id="edge19" class="edge">
<title>Node6&#45;&gt;Node16</title>
<path fill="none" stroke="#9a32cd" stroke-dasharray="5,2" d="M205.6,-259.31C222.97,-242.46 252.29,-217.23 283,-205 322.87,-189.12 453.28,-181.94 502.22,-179.76"/>
<polygon fill="#9a32cd" stroke="#9a32cd" points="203.11,-256.84 198.5,-266.38 208.05,-261.8 203.11,-256.84"/>
<text text-anchor="middle" x="361" y="-285" font-family="Helvetica,sans-Serif" font-size="10.00"> childLPAD</text>
<text text-anchor="middle" x="361" y="-274" font-family="Helvetica,sans-Serif" font-size="10.00">childRPAD</text>
<text text-anchor="middle" x="361" y="-263" font-family="Helvetica,sans-Serif" font-size="10.00">name</text>
<text text-anchor="middle" x="361" y="-252" font-family="Helvetica,sans-Serif" font-size="10.00">operSTR</text>
<text text-anchor="middle" x="361" y="-241" font-family="Helvetica,sans-Serif" font-size="10.00">parenLPAD</text>
<text text-anchor="middle" x="361" y="-230" font-family="Helvetica,sans-Serif" font-size="10.00">parenLPAR</text>
<text text-anchor="middle" x="361" y="-219" font-family="Helvetica,sans-Serif" font-size="10.00">parenRPAD</text>
<text text-anchor="middle" x="361" y="-208" font-family="Helvetica,sans-Serif" font-size="10.00">parenRPAR</text>
</g>
<!-- Node7 -->
<g id="node7" class="node">
<title>Node7</title>
<g id="a_node7"><a xlink:title=" ">
<polygon fill="white" stroke="#bfbfbf" points="156,-457.5 156,-476.5 221,-476.5 221,-457.5 156,-457.5"/>
<text text-anchor="middle" x="188.5" y="-464.5" font-family="Helvetica,sans-Serif" font-size="10.00">TraceLevel</text>
</a>
</g>
</g>
<!-- Node7&#45;&gt;Node4 -->
<g id="edge6" class="edge">
<title>Node7&#45;&gt;Node4</title>
<path fill="none" stroke="#9a32cd" stroke-dasharray="5,2" d="M231.23,-464.24C280.95,-460.58 366.42,-453.14 439,-441 457.59,-437.89 478.27,-433.09 494.21,-429.09"/>
<polygon fill="#9a32cd" stroke="#9a32cd" points="230.9,-460.75 221.18,-464.96 231.4,-467.74 230.9,-460.75"/>
<text text-anchor="middle" x="361" y="-462" font-family="Helvetica,sans-Serif" font-size="10.00"> LOG</text>
</g>
<!-- Node8 -->
<g id="node8" class="node">
<title>Node8</title>
<g id="a_node8"><a xlink:title=" ">
<polygon fill="white" stroke="#bfbfbf" points="152,-419.5 152,-438.5 225,-438.5 225,-419.5 152,-419.5"/>
<text text-anchor="middle" x="188.5" y="-426.5" font-family="Helvetica,sans-Serif" font-size="10.00">static Report</text>
</a>
</g>
</g>
<!-- Node8&#45;&gt;Node4 -->
<g id="edge7" class="edge">
<title>Node8&#45;&gt;Node4</title>
<path fill="none" stroke="#9a32cd" stroke-dasharray="5,2" d="M235.62,-428.03C306.01,-426.54 437.97,-423.75 494.35,-422.56"/>
<polygon fill="#9a32cd" stroke="#9a32cd" points="235.22,-424.53 225.29,-428.24 235.36,-431.53 235.22,-424.53"/>
<text text-anchor="middle" x="361" y="-429" font-family="Helvetica,sans-Serif" font-size="10.00"> repo</text>
</g>
<!-- Node9 -->
<g id="node9" class="node">
<title>Node9</title>
<g id="a_node9"><a xlink:title=" ">
<polygon fill="white" stroke="#bfbfbf" points="174,-115.5 174,-134.5 203,-134.5 203,-115.5 174,-115.5"/>
<text text-anchor="middle" x="188.5" y="-122.5" font-family="Helvetica,sans-Serif" font-size="10.00">int</text>
</a>
</g>
</g>
<!-- Node9&#45;&gt;Node3 -->
<g id="edge16" class="edge">
<title>Node9&#45;&gt;Node3</title>
<path fill="none" stroke="#9a32cd" stroke-dasharray="5,2" d="M213.08,-118.86C231.86,-114.29 258.92,-108.45 283,-106 435.48,-90.5 617.99,-97.77 698.86,-102.31"/>
<polygon fill="#9a32cd" stroke="#9a32cd" points="212.16,-115.48 203.31,-121.3 213.86,-122.27 212.16,-115.48"/>
<text text-anchor="middle" x="522" y="-122" font-family="Helvetica,sans-Serif" font-size="10.00"> BITMASK_PRINT_WIDTH</text>
<text text-anchor="middle" x="522" y="-111" font-family="Helvetica,sans-Serif" font-size="10.00">UNDEF</text>
<text text-anchor="middle" x="522" y="-100" font-family="Helvetica,sans-Serif" font-size="10.00">height</text>
</g>
<!-- Node9&#45;&gt;Node4 -->
<g id="edge8" class="edge">
<title>Node9&#45;&gt;Node4</title>
<path fill="none" stroke="#9a32cd" stroke-dasharray="5,2" d="M213.21,-128.04C232.11,-130.47 259.25,-133.95 283,-137 317.67,-141.45 412.25,-134.51 439,-157 449.41,-165.76 505.35,-365.58 518.31,-412.3"/>
<polygon fill="#9a32cd" stroke="#9a32cd" points="213.49,-124.55 203.13,-126.75 212.6,-131.49 213.49,-124.55"/>
<text text-anchor="middle" x="361" y="-171" font-family="Helvetica,sans-Serif" font-size="10.00"> BITMASK_PRINT_WIDTH</text>
<text text-anchor="middle" x="361" y="-160" font-family="Helvetica,sans-Serif" font-size="10.00">UNDEF</text>
</g>
<!-- Node9&#45;&gt;Node16 -->
<g id="edge20" class="edge">
<title>Node9&#45;&gt;Node16</title>
<path fill="none" stroke="#9a32cd" stroke-dasharray="5,2" d="M213.15,-119.74C258.67,-110.74 360.88,-96.12 439,-126 449,-129.82 448.32,-135.73 457,-142 471.57,-152.52 489.34,-162.6 502.46,-169.57"/>
<polygon fill="#9a32cd" stroke="#9a32cd" points="212.17,-116.36 203.09,-121.82 213.59,-123.22 212.17,-116.36"/>
<text text-anchor="middle" x="361" y="-129" font-family="Helvetica,sans-Serif" font-size="10.00"> pref</text>
</g>
<!-- Node10 -->
<g id="node10" class="node">
<title>Node10</title>
<g id="a_node10"><a xlink:href="interfacetype_1_1_typable.html" target="_top" xlink:title="抽象ノードがもつ関数型のインタフェース">
<polygon fill="white" stroke="black" points="163.5,-533.5 163.5,-552.5 213.5,-552.5 213.5,-533.5 163.5,-533.5"/>
<text text-anchor="middle" x="188.5" y="-540.5" font-family="Helvetica,sans-Serif" font-size="10.00">Typable</text>
</a>
</g>
</g>
<!-- Node10&#45;&gt;Node4 -->
<g id="edge9" class="edge">
<title>Node10&#45;&gt;Node4</title>
<path fill="none" stroke="#9a32cd" stroke-dasharray="5,2" d="M223.76,-542.86C283.17,-542.09 402.45,-538.14 439,-519 448.96,-513.78 495.12,-455.28 513.46,-431.73"/>
<polygon fill="#9a32cd" stroke="#9a32cd" points="223.7,-539.36 213.74,-542.96 223.77,-546.36 223.7,-539.36"/>
<text text-anchor="middle" x="361" y="-544" font-family="Helvetica,sans-Serif" font-size="10.00"> typing</text>
</g>
<!-- Node11 -->
<g id="node11" class="node">
<title>Node11</title>
<g id="a_node11"><a xlink:title=" ">
<polygon fill="white" stroke="#bfbfbf" points="163.5,-340.5 163.5,-359.5 213.5,-359.5 213.5,-340.5 163.5,-340.5"/>
<text text-anchor="middle" x="188.5" y="-347.5" font-family="Helvetica,sans-Serif" font-size="10.00">boolean</text>
</a>
</g>
</g>
<!-- Node11&#45;&gt;Node4 -->
<g id="edge10" class="edge">
<title>Node11&#45;&gt;Node4</title>
<path fill="none" stroke="#9a32cd" stroke-dasharray="5,2" d="M222.79,-363.4C240.44,-370.08 262.64,-377.82 283,-383 351.05,-400.31 369.72,-396.54 439,-408 457.52,-411.07 478.38,-414.63 494.42,-417.39"/>
<polygon fill="#9a32cd" stroke="#9a32cd" points="223.55,-359.94 212.96,-359.61 221.04,-366.47 223.55,-359.94"/>
<text text-anchor="middle" x="361" y="-411" font-family="Helvetica,sans-Serif" font-size="10.00"> DEBUG_REPO</text>
</g>
<!-- Node11&#45;&gt;Node16 -->
<g id="edge21" class="edge">
<title>Node11&#45;&gt;Node16</title>
<path fill="none" stroke="#9a32cd" stroke-dasharray="5,2" d="M217.86,-336.18C236.06,-327.89 260.43,-317.85 283,-312 350.61,-294.48 378.89,-328.56 439,-293 481.39,-267.92 507.94,-211.44 517.25,-188.73"/>
<polygon fill="#9a32cd" stroke="#9a32cd" points="216.28,-333.05 208.69,-340.44 219.23,-339.4 216.28,-333.05"/>
<text text-anchor="middle" x="361" y="-326" font-family="Helvetica,sans-Serif" font-size="10.00"> preoperSupress</text>
<text text-anchor="middle" x="361" y="-315" font-family="Helvetica,sans-Serif" font-size="10.00">toInline</text>
</g>
<!-- Node12 -->
<g id="node12" class="node">
<title>Node12</title>
<g id="a_node12"><a xlink:href="interfaceformat_1_1_x_formattable_1_1_navigatable.html" target="_top" xlink:title="木構造の分岐ノードとして清書可能なオブジェクトのクラス">
<polygon fill="white" stroke="black" points="457,-11.5 457,-30.5 587,-30.5 587,-11.5 457,-11.5"/>
<text text-anchor="middle" x="522" y="-18.5" font-family="Helvetica,sans-Serif" font-size="10.00">XFormattable.Navigatable</text>
</a>
</g>
</g>
<!-- Node12&#45;&gt;Node2 -->
<g id="edge22" class="edge">
<title>Node12&#45;&gt;Node2</title>
<path fill="none" stroke="midnightblue" d="M597.5,-27.05C672.9,-33.17 784.98,-42.27 832.68,-46.15"/>
<polygon fill="midnightblue" stroke="midnightblue" points="597.36,-23.53 587.11,-26.21 596.79,-30.5 597.36,-23.53"/>
</g>
<!-- Node12&#45;&gt;Node3 -->
<g id="edge11" class="edge">
<title>Node12&#45;&gt;Node3</title>
<path fill="none" stroke="midnightblue" d="M590.29,-32.74C619.07,-39.2 652.53,-48.67 681,-62 699.8,-70.8 718.84,-85.68 730.28,-95.43"/>
<polygon fill="midnightblue" stroke="midnightblue" points="590.83,-29.27 580.32,-30.58 589.35,-36.12 590.83,-29.27"/>
</g>
<!-- Node13&#45;&gt;Node12 -->
<g id="edge12" class="edge">
<title>Node13&#45;&gt;Node12</title>
<path fill="none" stroke="midnightblue" d="M256.05,-65.76C317.22,-55.42 406.9,-40.27 464.62,-30.52"/>
<polygon fill="midnightblue" stroke="midnightblue" points="255.39,-62.32 246.11,-67.44 256.55,-69.22 255.39,-62.32"/>
</g>
<!-- Node14&#45;&gt;Node3 -->
<g id="edge14" class="edge">
<title>Node14&#45;&gt;Node3</title>
<path fill="none" stroke="midnightblue" d="M423.36,-562.38C428.76,-560.52 434.04,-558.4 439,-556 513.96,-519.67 533.46,-504.82 587,-441 679.18,-331.13 727.78,-157 738.64,-114.56"/>
<polygon fill="midnightblue" stroke="midnightblue" points="422.07,-559.11 413.59,-565.45 424.18,-565.79 422.07,-559.11"/>
</g>
<!-- Node15 -->
<g id="node15" class="node">
<title>Node15</title>
<g id="a_node15"><a xlink:title=" ">
<polygon fill="white" stroke="#bfbfbf" points="496,-49.5 496,-68.5 548,-68.5 548,-49.5 496,-49.5"/>
<text text-anchor="middle" x="522" y="-56.5" font-family="Helvetica,sans-Serif" font-size="10.00">Boolean</text>
</a>
</g>
</g>
<!-- Node15&#45;&gt;Node3 -->
<g id="edge17" class="edge">
<title>Node15&#45;&gt;Node3</title>
<path fill="none" stroke="#9a32cd" stroke-dasharray="5,2" d="M558.33,-61.03C590.7,-63.52 639.71,-68.86 681,-80 695.05,-83.79 710.18,-90.11 721.73,-95.45"/>
<polygon fill="#9a32cd" stroke="#9a32cd" points="558.25,-57.52 548.03,-60.3 557.75,-64.5 558.25,-57.52"/>
<text text-anchor="middle" x="643" y="-83" font-family="Helvetica,sans-Serif" font-size="10.00"> DEBUG_CHILD</text>
</g>
<!-- Node16&#45;&gt;Node3 -->
<g id="edge18" class="edge">
<title>Node16&#45;&gt;Node3</title>
<path fill="none" stroke="#9a32cd" stroke-dasharray="5,2" d="M551.13,-169.45C592.88,-155.28 670.78,-128.84 712.65,-114.62"/>
<polygon fill="#9a32cd" stroke="#9a32cd" points="549.93,-166.16 541.59,-172.69 552.18,-172.79 549.93,-166.16"/>
<text text-anchor="middle" x="643" y="-153" font-family="Helvetica,sans-Serif" font-size="10.00"> sty</text>
</g>
<!-- Node17 -->
<g id="node17" class="node">
<title>Node17</title>
<g id="a_node17"><a xlink:href="interfacecmd_1_1_generatable.html" target="_top" xlink:title="変換してコードを生成できるノードのインタフェース.">
<polygon fill="white" stroke="black" points="822,-0.5 822,-19.5 891,-19.5 891,-0.5 822,-0.5"/>
<text text-anchor="middle" x="856.5" y="-7.5" font-family="Helvetica,sans-Serif" font-size="10.00">Generatable</text>
</a>
</g>
</g>
<!-- Node17&#45;&gt;Node1 -->
<g id="edge23" class="edge">
<title>Node17&#45;&gt;Node1</title>
<path fill="none" stroke="midnightblue" d="M901.28,-14.67C910.03,-15.6 919.2,-16.58 927.9,-17.51"/>
<polygon fill="midnightblue" stroke="midnightblue" points="901.57,-11.18 891.25,-13.6 900.83,-18.14 901.57,-11.18"/>
</g>
</g>
</svg>
        <g id="navigator" transform="translate(0 0)" fill="#404254">
                <rect fill="#f2f5e9" fill-opacity="0.5" stroke="#606060" stroke-width=".5" x="0" y="0" width="60" height="60"/>
                <use id="zoomplus" xlink:href="#zoomPlus" x="17" y="9" onmousedown="handleZoom(evt,'in')"/>
                <use id="zoomminus" xlink:href="#zoomMin" x="42" y="9" onmousedown="handleZoom(evt,'out')"/>
                <use id="reset" xlink:href="#resetDef" x="30" y="36" onmousedown="handleReset()"/>
                <g id="arrowUp" xlink:href="#dirArrow" transform="translate(30 24)" onmousedown="handlePan(0,-1)">
                  <use xlink:href="#rim" fill="#404040">
                        <set attributeName="fill" to="#808080" begin="arrowUp.mouseover" end="arrowUp.mouseout"/>
                  </use>
                  <path fill="none" stroke="white" stroke-width="1.5" d="M0,-3.0v7 M-2.5,-0.5L0,-3.0L2.5,-0.5"/>
                </g>
                <g id="arrowRight" xlink:href="#dirArrow" transform="rotate(90) translate(36 -43)" onmousedown="handlePan(1,0)">
                  <use xlink:href="#rim" fill="#404040">
                        <set attributeName="fill" to="#808080" begin="arrowRight.mouseover" end="arrowRight.mouseout"/>
                  </use>
                  <path fill="none" stroke="white" stroke-width="1.5" d="M0,-3.0v7 M-2.5,-0.5L0,-3.0L2.5,-0.5"/>
                </g>
                <g id="arrowDown" xlink:href="#dirArrow" transform="rotate(180) translate(-30 -48)" onmousedown="handlePan(0,1)">
                  <use xlink:href="#rim" fill="#404040">
                        <set attributeName="fill" to="#808080" begin="arrowDown.mouseover" end="arrowDown.mouseout"/>
                  </use>
                  <path fill="none" stroke="white" stroke-width="1.5" d="M0,-3.0v7 M-2.5,-0.5L0,-3.0L2.5,-0.5"/>
                </g>
                <g id="arrowLeft" xlink:href="#dirArrow" transform="rotate(270) translate(-36 17)" onmousedown="handlePan(-1,0)">
                  <use xlink:href="#rim" fill="#404040">
                        <set attributeName="fill" to="#808080" begin="arrowLeft.mouseover" end="arrowLeft.mouseout"/>
                  </use>
                  <path fill="none" stroke="white" stroke-width="1.5" d="M0,-3.0v7 M-2.5,-0.5L0,-3.0L2.5,-0.5"/>
                </g>
        </g>
        <svg viewBox="0 0 15 15" width="100%" height="30px" preserveAspectRatio="xMaxYMin meet">
         <g id="arrow_out" transform="scale(0.3 0.3)">
          <a xlink:href="classast_1_1_ast_list_1_1_step_list__coll__graph_org.svg" target="_base">
           <rect id="button" ry="5" rx="5" y="6" x="6" height="38" width="38"
                fill="#f2f5e9" fill-opacity="0.5" stroke="#606060" stroke-width="1.0"/>
           <path id="arrow"
             d="M 11.500037,31.436501 C 11.940474,20.09759 22.043105,11.32322 32.158766,21.979434 L 37.068811,17.246167 C 37.068811,17.246167 37.088388,32 37.088388,32 L 22.160133,31.978069 C 22.160133,31.978069 26.997745,27.140456 26.997745,27.140456 C 18.528582,18.264221 13.291696,25.230495 11.500037,31.436501 z"
             style="fill:#404040;"/>
          </a>
         </g>
        </svg>
</svg>
