<?xml version="1.0" encoding="UTF-8" standalone="no"?>
<!DOCTYPE svg PUBLIC "-//W3C//DTD SVG 1.1//EN"
 "http://www.w3.org/Graphics/SVG/1.1/DTD/svg11.dtd">
<!-- Generated by graphviz version 2.38.0 (20140413.2041)
 -->
<!-- Title: closeArray Pages: 1 -->
<svg width="687pt" height="330pt"
 viewBox="0.00 0.00 687.42 330.00" xmlns="http://www.w3.org/2000/svg" xmlns:xlink="http://www.w3.org/1999/xlink">
<g id="graph0" class="graph" transform="scale(1 1) rotate(0) translate(4 326)">
<title>closeArray</title>
<polygon fill="white" stroke="none" points="-4,4 -4,-326 683.425,-326 683.425,4 -4,4"/>
<!-- Node1 -->
<g id="node1" class="node"><title>Node1</title>
<g id="a_node1"><a xlink:title="配列のモードを終了する.">
<polygon fill="#bfbfbf" stroke="black" points="0,-94.5 0,-112.5 63.2363,-112.5 63.2363,-94.5 0,-94.5"/>
<text text-anchor="middle" x="31.6182" y="-100.5" font-family="Helvetica,sans-Serif" font-size="10.00">closeArray</text>
</a>
</g>
</g>
<!-- Node2 -->
<g id="node2" class="node"><title>Node2</title>
<g id="a_node2"><a xlink:href="classutil_1_1_foldable_string_buf.html#ab3d4d59d8a1bb8f1cffeef544c66c052" target="_top" xlink:title="改行を出力する.">
<polygon fill="white" stroke="black" points="103.687,-227.5 103.687,-245.5 225.302,-245.5 225.302,-227.5 103.687,-227.5"/>
<text text-anchor="middle" x="164.495" y="-233.5" font-family="Helvetica,sans-Serif" font-size="10.00">util.FoldableStringBuf.nl</text>
</a>
</g>
</g>
<!-- Node1&#45;&gt;Node2 -->
<g id="edge1" class="edge"><title>Node1&#45;&gt;Node2</title>
<path fill="none" stroke="midnightblue" d="M41.6138,-112.642C63.4682,-134.851 119.598,-191.891 147.398,-220.142"/>
<polygon fill="midnightblue" stroke="midnightblue" points="144.927,-222.622 154.436,-227.294 149.917,-217.712 144.927,-222.622"/>
</g>
<!-- Node8 -->
<g id="node8" class="node"><title>Node8</title>
<g id="a_node8"><a xlink:href="classutil_1_1_foldable_string_buf.html#a3305d7ab7b9045776ab7ab1a93d62a54" target="_top" xlink:title="何もしない演算 (&quot;no operation&quot;).">
<polygon fill="white" stroke="black" points="99.2363,-38.5 99.2363,-56.5 229.753,-56.5 229.753,-38.5 99.2363,-38.5"/>
<text text-anchor="middle" x="164.495" y="-44.5" font-family="Helvetica,sans-Serif" font-size="10.00">util.FoldableStringBuf.nop</text>
</a>
</g>
</g>
<!-- Node1&#45;&gt;Node8 -->
<g id="edge11" class="edge"><title>Node1&#45;&gt;Node8</title>
<path fill="none" stroke="midnightblue" d="M46.1471,-94.4621C59.2617,-86.0252 79.9476,-73.5587 99.2363,-65.5 104.381,-63.3507 109.862,-61.3733 115.371,-59.5792"/>
<polygon fill="midnightblue" stroke="midnightblue" points="116.717,-62.8275 125.252,-56.5503 114.666,-56.1349 116.717,-62.8275"/>
</g>
<!-- Node9 -->
<g id="node9" class="node"><title>Node9</title>
<g id="a_node9"><a xlink:href="classutil_1_1_foldable_string_buf.html#a8a8abe37bfbae078b20ff72050fd2751" target="_top" xlink:title="入れ子を一つ浅く、ポップする">
<polygon fill="white" stroke="black" points="99.2363,-75.5 99.2363,-93.5 229.753,-93.5 229.753,-75.5 99.2363,-75.5"/>
<text text-anchor="middle" x="164.495" y="-81.5" font-family="Helvetica,sans-Serif" font-size="10.00">util.FoldableStringBuf.pop</text>
</a>
</g>
</g>
<!-- Node1&#45;&gt;Node9 -->
<g id="edge12" class="edge"><title>Node1&#45;&gt;Node9</title>
<path fill="none" stroke="midnightblue" d="M63.3029,-99.0453C71.8593,-97.8032 81.5324,-96.3989 91.4096,-94.9649"/>
<polygon fill="midnightblue" stroke="midnightblue" points="91.9277,-98.4265 101.321,-93.5261 90.9219,-91.4991 91.9277,-98.4265"/>
</g>
<!-- Node11 -->
<g id="node11" class="node"><title>Node11</title>
<g id="a_node11"><a xlink:href="classutil_1_1_foldable_string_buf.html#a2b018a5847ca3b5c67456ad721e23ba4" target="_top" xlink:title="文字列を出力する">
<polygon fill="white" stroke="black" points="273.541,-113.5 273.541,-131.5 398.481,-131.5 398.481,-113.5 273.541,-113.5"/>
<text text-anchor="middle" x="336.011" y="-119.5" font-family="Helvetica,sans-Serif" font-size="10.00">util.FoldableStringBuf.str</text>
</a>
</g>
</g>
<!-- Node1&#45;&gt;Node11 -->
<g id="edge20" class="edge"><title>Node1&#45;&gt;Node11</title>
<path fill="none" stroke="midnightblue" d="M63.2773,-105.426C109.787,-108.349 199.48,-113.984 263.081,-117.98"/>
<polygon fill="midnightblue" stroke="midnightblue" points="263.249,-121.498 273.449,-118.632 263.688,-114.512 263.249,-121.498"/>
</g>
<!-- Node3 -->
<g id="node3" class="node"><title>Node3</title>
<g id="a_node3"><a xlink:href="classutil_1_1_string_buf.html#a2dc9e4579aee8516f9402d5ab3eac5eb" target="_top" xlink:title="バッファの末尾に文字列{str} を連結する.">
<polygon fill="white" stroke="black" points="445.136,-189.5 445.136,-207.5 553.978,-207.5 553.978,-189.5 445.136,-189.5"/>
<text text-anchor="middle" x="499.557" y="-195.5" font-family="Helvetica,sans-Serif" font-size="10.00">util.StringBuf.append</text>
</a>
</g>
</g>
<!-- Node2&#45;&gt;Node3 -->
<g id="edge2" class="edge"><title>Node2&#45;&gt;Node3</title>
<path fill="none" stroke="midnightblue" d="M195.816,-245.57C242.132,-257.947 332.857,-276.344 406.27,-255.5 434.604,-247.455 462.764,-227.964 480.387,-214.016"/>
<polygon fill="midnightblue" stroke="midnightblue" points="482.608,-216.721 488.146,-207.688 478.184,-211.296 482.608,-216.721"/>
</g>
<!-- Node5 -->
<g id="node5" class="node"><title>Node5</title>
<g id="a_node5"><a xlink:href="classutil_1_1_trace_level.html#a62205b80cb936cb8f13f6a31afd2c9e0" target="_top" xlink:title="現在のトレースレベルが{level}以上ならば真になる.">
<polygon fill="white" stroke="black" points="442.27,-132.5 442.27,-150.5 556.844,-150.5 556.844,-132.5 442.27,-132.5"/>
<text text-anchor="middle" x="499.557" y="-138.5" font-family="Helvetica,sans-Serif" font-size="10.00">util.TraceLevel.LEVEL</text>
</a>
</g>
</g>
<!-- Node2&#45;&gt;Node5 -->
<g id="edge6" class="edge"><title>Node2&#45;&gt;Node5</title>
<path fill="none" stroke="midnightblue" d="M197.129,-227.477C257.519,-210.252 389.219,-172.687 456.769,-153.419"/>
<polygon fill="midnightblue" stroke="midnightblue" points="457.99,-156.711 466.647,-150.602 456.07,-149.979 457.99,-156.711"/>
</g>
<!-- Node6 -->
<g id="node6" class="node"><title>Node6</title>
<g id="a_node6"><a xlink:href="classutil_1_1_string_buf.html#af4b57d21919c42d55af03391f91a1c08" target="_top" xlink:title="バッファの長さを返す。 java.lang.StringBuilderのint length()に相当するメソッド。">
<polygon fill="white" stroke="black" points="289.383,-303.5 289.383,-321.5 382.639,-321.5 382.639,-303.5 289.383,-303.5"/>
<text text-anchor="middle" x="336.011" y="-309.5" font-family="Helvetica,sans-Serif" font-size="10.00">util.StringBuf.size</text>
</a>
</g>
</g>
<!-- Node2&#45;&gt;Node6 -->
<g id="edge7" class="edge"><title>Node2&#45;&gt;Node6</title>
<path fill="none" stroke="midnightblue" d="M181.126,-245.511C200.564,-256.505 234.949,-275.257 265.753,-288.5 275.486,-292.684 286.212,-296.685 296.258,-300.179"/>
<polygon fill="midnightblue" stroke="midnightblue" points="295.419,-303.591 306.013,-303.493 297.67,-296.963 295.419,-303.591"/>
</g>
<!-- Node7 -->
<g id="node7" class="node"><title>Node7</title>
<g id="a_node7"><a xlink:href="classutil_1_1_foldable_string_buf.html#a186579e7cd763dada34bcdc6c8f8f209" target="_top" xlink:title="空白を出力する.">
<polygon fill="white" stroke="black" points="265.753,-227.5 265.753,-245.5 406.27,-245.5 406.27,-227.5 265.753,-227.5"/>
<text text-anchor="middle" x="336.011" y="-233.5" font-family="Helvetica,sans-Serif" font-size="10.00">util.FoldableStringBuf.space</text>
</a>
</g>
</g>
<!-- Node2&#45;&gt;Node7 -->
<g id="edge8" class="edge"><title>Node2&#45;&gt;Node7</title>
<path fill="none" stroke="midnightblue" d="M225.737,-236.5C235.444,-236.5 245.62,-236.5 255.693,-236.5"/>
<polygon fill="midnightblue" stroke="midnightblue" points="255.711,-240 265.711,-236.5 255.711,-233 255.711,-240"/>
</g>
<!-- Node3&#45;&gt;Node3 -->
<g id="edge3" class="edge"><title>Node3&#45;&gt;Node3</title>
<path fill="none" stroke="midnightblue" d="M479.292,-207.513C468.099,-216.322 474.854,-226 499.557,-226 516.154,-226 524.649,-221.631 525.042,-216.093"/>
<polygon fill="midnightblue" stroke="midnightblue" points="528.01,-214.236 519.821,-207.513 522.03,-217.875 528.01,-214.236"/>
</g>
<!-- Node4 -->
<g id="node4" class="node"><title>Node4</title>
<g id="a_node4"><a xlink:href="classutil_1_1_string_buf.html#a9ea51ad122f068c0e30e6a7a17f57685" target="_top" xlink:title="バッファの末尾に文字列{val} を追加する. メソッド {append} に同じ.">
<polygon fill="white" stroke="black" points="592.844,-189.5 592.844,-207.5 679.425,-207.5 679.425,-189.5 592.844,-189.5"/>
<text text-anchor="middle" x="636.134" y="-195.5" font-family="Helvetica,sans-Serif" font-size="10.00">util.StringBuf.str</text>
</a>
</g>
</g>
<!-- Node3&#45;&gt;Node4 -->
<g id="edge4" class="edge"><title>Node3&#45;&gt;Node4</title>
<path fill="none" stroke="midnightblue" d="M554.132,-191.876C563.399,-191.703 573.028,-191.708 582.275,-191.89"/>
<polygon fill="midnightblue" stroke="midnightblue" points="582.422,-195.395 592.514,-192.17 582.614,-188.398 582.422,-195.395"/>
</g>
<!-- Node4&#45;&gt;Node3 -->
<g id="edge5" class="edge"><title>Node4&#45;&gt;Node3</title>
<path fill="none" stroke="midnightblue" d="M592.514,-204.83C583.564,-205.148 573.938,-205.286 564.404,-205.242"/>
<polygon fill="midnightblue" stroke="midnightblue" points="564.172,-201.739 554.132,-205.124 564.091,-208.739 564.172,-201.739"/>
</g>
<!-- Node7&#45;&gt;Node3 -->
<g id="edge9" class="edge"><title>Node7&#45;&gt;Node3</title>
<path fill="none" stroke="midnightblue" d="M375.295,-227.495C397.746,-222.213 426.32,-215.492 450.302,-209.851"/>
<polygon fill="midnightblue" stroke="midnightblue" points="451.335,-213.203 460.268,-207.507 449.732,-206.389 451.335,-213.203"/>
</g>
<!-- Node7&#45;&gt;Node5 -->
<g id="edge10" class="edge"><title>Node7&#45;&gt;Node5</title>
<path fill="none" stroke="midnightblue" d="M371.65,-227.449C383.097,-223.699 395.62,-218.741 406.27,-212.5 424.739,-201.676 425.441,-193.731 442.27,-180.5 452.968,-172.089 465.352,-163.402 475.777,-156.368"/>
<polygon fill="midnightblue" stroke="midnightblue" points="477.961,-159.119 484.341,-150.66 474.079,-153.294 477.961,-159.119"/>
</g>
<!-- Node9&#45;&gt;Node3 -->
<g id="edge13" class="edge"><title>Node9&#45;&gt;Node3</title>
<path fill="none" stroke="midnightblue" d="M179.189,-93.706C197.973,-105.962 233.125,-127.59 265.753,-140.5 321.438,-162.533 388.005,-178.112 435.667,-187.537"/>
<polygon fill="midnightblue" stroke="midnightblue" points="435.056,-190.983 445.54,-189.454 436.391,-184.112 435.056,-190.983"/>
</g>
<!-- Node9&#45;&gt;Node5 -->
<g id="edge15" class="edge"><title>Node9&#45;&gt;Node5</title>
<path fill="none" stroke="midnightblue" d="M229.961,-84.1713C278.941,-85.2179 347.646,-89.4842 406.27,-103.5 429.162,-108.973 453.745,-119.338 471.779,-127.861"/>
<polygon fill="midnightblue" stroke="midnightblue" points="470.546,-131.153 481.071,-132.365 473.599,-124.854 470.546,-131.153"/>
</g>
<!-- Node10 -->
<g id="node10" class="node"><title>Node10</title>
<g id="a_node10"><a xlink:href="classutil_1_1_util.html#ae411a90dd0a4a15776ea6eb5f0cbae13" target="_top" xlink:title="与えられた文字列を標準出力に印刷して、プログラムを強制停止する。">
<polygon fill="white" stroke="black" points="292.728,-0.5 292.728,-18.5 379.294,-18.5 379.294,-0.5 292.728,-0.5"/>
<text text-anchor="middle" x="336.011" y="-6.5" font-family="Helvetica,sans-Serif" font-size="10.00">util.Util.errorExit</text>
</a>
</g>
</g>
<!-- Node9&#45;&gt;Node10 -->
<g id="edge14" class="edge"><title>Node9&#45;&gt;Node10</title>
<path fill="none" stroke="midnightblue" d="M207.648,-75.4989C215.313,-72.9132 223.009,-69.6345 229.753,-65.5 249.587,-53.3409 245.72,-39.328 265.753,-27.5 270.962,-24.4248 276.694,-21.8682 282.563,-19.7442"/>
<polygon fill="midnightblue" stroke="midnightblue" points="284.043,-22.9454 292.5,-16.563 281.909,-16.2787 284.043,-22.9454"/>
</g>
<!-- Node9&#45;&gt;Node11 -->
<g id="edge16" class="edge"><title>Node9&#45;&gt;Node11</title>
<path fill="none" stroke="midnightblue" d="M205.668,-93.5055C229.437,-98.8337 259.746,-105.628 285.048,-111.3"/>
<polygon fill="midnightblue" stroke="midnightblue" points="284.31,-114.721 294.833,-113.493 285.841,-107.891 284.31,-114.721"/>
</g>
<!-- Node12 -->
<g id="node12" class="node"><title>Node12</title>
<g id="a_node12"><a xlink:href="classutil_1_1_string_buf.html#ad146fa8579a5f8a876c4688cc5a68520" target="_top" xlink:title="バッファの内容からjava文字列を生成して返す.">
<polygon fill="white" stroke="black" points="281.043,-37.5 281.043,-55.5 390.979,-55.5 390.979,-37.5 281.043,-37.5"/>
<text text-anchor="middle" x="336.011" y="-43.5" font-family="Helvetica,sans-Serif" font-size="10.00">util.StringBuf.toString</text>
</a>
</g>
</g>
<!-- Node9&#45;&gt;Node12 -->
<g id="edge19" class="edge"><title>Node9&#45;&gt;Node12</title>
<path fill="none" stroke="midnightblue" d="M205.668,-75.4945C229.437,-70.1663 259.746,-63.372 285.048,-57.7"/>
<polygon fill="midnightblue" stroke="midnightblue" points="285.841,-61.1093 294.833,-55.5066 284.31,-54.2788 285.841,-61.1093"/>
</g>
<!-- Node11&#45;&gt;Node3 -->
<g id="edge17" class="edge"><title>Node11&#45;&gt;Node3</title>
<path fill="none" stroke="midnightblue" d="M366.785,-131.516C379.19,-135.605 393.623,-140.802 406.27,-146.5 430.797,-157.552 457.428,-172.953 475.749,-184.123"/>
<polygon fill="midnightblue" stroke="midnightblue" points="473.924,-187.11 484.273,-189.382 477.6,-181.153 473.924,-187.11"/>
</g>
<!-- Node11&#45;&gt;Node5 -->
<g id="edge18" class="edge"><title>Node11&#45;&gt;Node5</title>
<path fill="none" stroke="midnightblue" d="M398.545,-129.737C409.536,-131.03 421.032,-132.382 432.152,-133.69"/>
<polygon fill="midnightblue" stroke="midnightblue" points="431.894,-137.184 442.234,-134.876 432.711,-130.231 431.894,-137.184"/>
</g>
</g>
</svg>
