<?xml version="1.0" encoding="UTF-8" standalone="no"?>
<!DOCTYPE svg PUBLIC "-//W3C//DTD SVG 1.1//EN"
 "http://www.w3.org/Graphics/SVG/1.1/DTD/svg11.dtd">
<!-- Generated by graphviz version 2.47.0 (20210316.0004)
 -->
<!-- Title: AstList.ListWrapper&lt; T &gt; Pages: 1 -->
<svg width="576pt" height="252pt"
 viewBox="0.00 0.00 575.50 252.00" xmlns="http://www.w3.org/2000/svg" xmlns:xlink="http://www.w3.org/1999/xlink">
<g id="graph0" class="graph" transform="scale(1 1) rotate(0) translate(4 248)">
<title>AstList.ListWrapper&lt; T &gt;</title>
<polygon fill="white" stroke="transparent" points="-4,4 -4,-248 571.5,-248 571.5,4 -4,4"/>
<!-- Node1 -->
<g id="node1" class="node">
<title>Node1</title>
<g id="a_node1"><a xlink:title="Javaの基本型データの清書用の包み込みアトム">
<polygon fill="#bfbfbf" stroke="black" points="338.5,-0.5 338.5,-19.5 464.5,-19.5 464.5,-0.5 338.5,-0.5"/>
<text text-anchor="middle" x="401.5" y="-7.5" font-family="Helvetica,sans-Serif" font-size="10.00">AstList.ListWrapper&lt; T &gt;</text>
</a>
</g>
</g>
<!-- Node2 -->
<g id="node2" class="node">
<title>Node2</title>
<g id="a_node2"><a xlink:href="classast_1_1_ast_list.html" target="_top" xlink:title="リストのテンプレート.">
<polygon fill="white" stroke="black" points="352,-56.5 352,-75.5 399,-75.5 399,-56.5 352,-56.5"/>
<text text-anchor="middle" x="375.5" y="-63.5" font-family="Helvetica,sans-Serif" font-size="10.00">AstList</text>
</a>
</g>
</g>
<!-- Node2&#45;&gt;Node1 -->
<g id="edge1" class="edge">
<title>Node2&#45;&gt;Node1</title>
<path fill="none" stroke="midnightblue" d="M384.17,-46.98C388.59,-37.82 393.75,-27.09 397.29,-19.75"/>
<polygon fill="midnightblue" stroke="midnightblue" points="380.98,-45.55 379.79,-56.08 387.29,-48.59 380.98,-45.55"/>
</g>
<!-- Node3 -->
<g id="node3" class="node">
<title>Node3</title>
<g id="a_node3"><a xlink:href="classast_1_1_ast_node.html" target="_top" xlink:title="タグなしの順アクセスの子供をもてる抽象構文木のノードのクラス。">
<polygon fill="white" stroke="black" points="204,-112.5 204,-131.5 259,-131.5 259,-112.5 204,-112.5"/>
<text text-anchor="middle" x="231.5" y="-119.5" font-family="Helvetica,sans-Serif" font-size="10.00">AstNode</text>
</a>
</g>
</g>
<!-- Node3&#45;&gt;Node2 -->
<g id="edge2" class="edge">
<title>Node3&#45;&gt;Node2</title>
<path fill="none" stroke="midnightblue" d="M263.75,-108.91C290.82,-98.75 328.82,-84.51 352.79,-75.52"/>
<polygon fill="midnightblue" stroke="midnightblue" points="262.45,-105.66 254.32,-112.44 264.91,-112.21 262.45,-105.66"/>
</g>
<!-- Node4 -->
<g id="node4" class="node">
<title>Node4</title>
<g id="a_node4"><a xlink:href="classast_1_1_ast_node_base.html" target="_top" xlink:title=" ">
<polygon fill="white" stroke="black" points="0,-168.5 0,-187.5 77,-187.5 77,-168.5 0,-168.5"/>
<text text-anchor="middle" x="38.5" y="-175.5" font-family="Helvetica,sans-Serif" font-size="10.00">AstNodeBase</text>
</a>
</g>
</g>
<!-- Node4&#45;&gt;Node3 -->
<g id="edge3" class="edge">
<title>Node4&#45;&gt;Node3</title>
<path fill="none" stroke="midnightblue" d="M79.16,-165.62C116.64,-155.14 171.23,-139.86 203.88,-130.73"/>
<polygon fill="midnightblue" stroke="midnightblue" points="77.77,-162.38 69.08,-168.44 79.65,-169.12 77.77,-162.38"/>
</g>
<!-- Node5 -->
<g id="node5" class="node">
<title>Node5</title>
<g id="a_node5"><a xlink:href="interfaceast_1_1_node.html" target="_top" xlink:title=" ">
<polygon fill="white" stroke="black" points="95.5,-168.5 95.5,-187.5 135.5,-187.5 135.5,-168.5 95.5,-168.5"/>
<text text-anchor="middle" x="115.5" y="-175.5" font-family="Helvetica,sans-Serif" font-size="10.00">Node</text>
</a>
</g>
</g>
<!-- Node5&#45;&gt;Node3 -->
<g id="edge4" class="edge">
<title>Node5&#45;&gt;Node3</title>
<path fill="none" stroke="midnightblue" d="M143.22,-164.1C164.89,-154.01 194.4,-140.27 213.21,-131.52"/>
<polygon fill="midnightblue" stroke="midnightblue" points="141.47,-161.05 133.88,-168.44 144.42,-167.4 141.47,-161.05"/>
</g>
<!-- Node6 -->
<g id="node6" class="node">
<title>Node6</title>
<g id="a_node6"><a xlink:href="interfaceformat_1_1_x_formattable.html" target="_top" xlink:title="入れ子フォーマット出力可能なオブジェクトのインタフェース。">
<polygon fill="white" stroke="black" points="274,-224.5 274,-243.5 349,-243.5 349,-224.5 274,-224.5"/>
<text text-anchor="middle" x="311.5" y="-231.5" font-family="Helvetica,sans-Serif" font-size="10.00">XFormattable</text>
</a>
</g>
</g>
<!-- Node6&#45;&gt;Node5 -->
<g id="edge5" class="edge">
<title>Node6&#45;&gt;Node5</title>
<path fill="none" stroke="midnightblue" d="M268.44,-221.87C234.64,-213.03 186.45,-200.16 144.5,-188 141.66,-187.18 138.68,-186.29 135.75,-185.39"/>
<polygon fill="midnightblue" stroke="midnightblue" points="267.88,-225.35 278.44,-224.49 269.65,-218.57 267.88,-225.35"/>
</g>
<!-- Node7 -->
<g id="node7" class="node">
<title>Node7</title>
<g id="a_node7"><a xlink:href="interfaceformat_1_1_x_formattable_1_1_navigatable.html" target="_top" xlink:title="木構造の分岐ノードとして清書可能なオブジェクトのクラス">
<polygon fill="white" stroke="black" points="327.5,-168.5 327.5,-187.5 457.5,-187.5 457.5,-168.5 327.5,-168.5"/>
<text text-anchor="middle" x="392.5" y="-175.5" font-family="Helvetica,sans-Serif" font-size="10.00">XFormattable.Navigatable</text>
</a>
</g>
</g>
<!-- Node6&#45;&gt;Node7 -->
<g id="edge7" class="edge">
<title>Node6&#45;&gt;Node7</title>
<path fill="none" stroke="midnightblue" d="M333.07,-218.62C347.86,-208.76 367.01,-195.99 379.52,-187.65"/>
<polygon fill="midnightblue" stroke="midnightblue" points="330.89,-215.86 324.51,-224.32 334.78,-221.69 330.89,-215.86"/>
</g>
<!-- Node8 -->
<g id="node8" class="node">
<title>Node8</title>
<g id="a_node8"><a xlink:href="interfaceformat_1_1_x_formattable_1_1_typed_formattable.html" target="_top" xlink:title="ノードの型情報をもつ書式出力可能なオブジェクトのインタフェース．">
<polygon fill="white" stroke="black" points="153.5,-168.5 153.5,-187.5 309.5,-187.5 309.5,-168.5 153.5,-168.5"/>
<text text-anchor="middle" x="231.5" y="-175.5" font-family="Helvetica,sans-Serif" font-size="10.00">XFormattable.TypedFormattable</text>
</a>
</g>
</g>
<!-- Node6&#45;&gt;Node8 -->
<g id="edge9" class="edge">
<title>Node6&#45;&gt;Node8</title>
<path fill="none" stroke="midnightblue" d="M290.2,-218.62C275.58,-208.76 256.67,-195.99 244.32,-187.65"/>
<polygon fill="midnightblue" stroke="midnightblue" points="288.4,-221.63 298.65,-224.32 292.32,-215.83 288.4,-221.63"/>
</g>
<!-- Node9 -->
<g id="node9" class="node">
<title>Node9</title>
<g id="a_node9"><a xlink:href="interfaceformat_1_1_x_formattable_1_1_custom_formattable.html" target="_top" xlink:title="カスタム清書出力器をもつオブジェクトのクラス．">
<polygon fill="white" stroke="black" points="403.5,-112.5 403.5,-131.5 567.5,-131.5 567.5,-112.5 403.5,-112.5"/>
<text text-anchor="middle" x="485.5" y="-119.5" font-family="Helvetica,sans-Serif" font-size="10.00">XFormattable.CustomFormattable</text>
</a>
</g>
</g>
<!-- Node6&#45;&gt;Node9 -->
<g id="edge12" class="edge">
<title>Node6&#45;&gt;Node9</title>
<path fill="none" stroke="midnightblue" d="M359.38,-230.92C393.55,-226.92 438.28,-216.17 466.5,-188 481.81,-172.72 484.93,-145.82 485.47,-131.91"/>
<polygon fill="midnightblue" stroke="midnightblue" points="358.74,-227.47 349.14,-231.96 359.45,-234.43 358.74,-227.47"/>
</g>
<!-- Node7&#45;&gt;Node2 -->
<g id="edge10" class="edge">
<title>Node7&#45;&gt;Node2</title>
<path fill="none" stroke="midnightblue" d="M389.62,-158.35C385.89,-134.25 379.57,-93.31 376.83,-75.59"/>
<polygon fill="midnightblue" stroke="midnightblue" points="386.18,-159.02 391.17,-168.37 393.1,-157.95 386.18,-159.02"/>
</g>
<!-- Node7&#45;&gt;Node3 -->
<g id="edge6" class="edge">
<title>Node7&#45;&gt;Node3</title>
<path fill="none" stroke="midnightblue" d="M357.24,-165.17C326.92,-155 283.93,-140.59 256.89,-131.52"/>
<polygon fill="midnightblue" stroke="midnightblue" points="356.4,-168.58 366.99,-168.44 358.62,-161.95 356.4,-168.58"/>
</g>
<!-- Node8&#45;&gt;Node3 -->
<g id="edge8" class="edge">
<title>Node8&#45;&gt;Node3</title>
<path fill="none" stroke="midnightblue" d="M231.5,-157.8C231.5,-148.91 231.5,-138.78 231.5,-131.75"/>
<polygon fill="midnightblue" stroke="midnightblue" points="228,-158.08 231.5,-168.08 235,-158.08 228,-158.08"/>
</g>
<!-- Node9&#45;&gt;Node1 -->
<g id="edge11" class="edge">
<title>Node9&#45;&gt;Node1</title>
<path fill="none" stroke="midnightblue" d="M472.73,-104.27C454.57,-80.49 421.96,-37.79 408.06,-19.59"/>
<polygon fill="midnightblue" stroke="midnightblue" points="470.06,-106.54 478.91,-112.37 475.62,-102.3 470.06,-106.54"/>
</g>
</g>
</svg>
