<?xml version="1.0" encoding="UTF-8" standalone="no"?>
<!DOCTYPE svg PUBLIC "-//W3C//DTD SVG 1.1//EN"
 "http://www.w3.org/Graphics/SVG/1.1/DTD/svg11.dtd">
<!-- Generated by graphviz version 2.47.1 (20210417.1919)
 -->
<!-- Title: CmdStore Pages: 1 -->
<svg width="269pt" height="142pt"
 viewBox="0.00 0.00 269.00 142.00" xmlns="http://www.w3.org/2000/svg" xmlns:xlink="http://www.w3.org/1999/xlink">
<g id="graph0" class="graph" transform="scale(1 1) rotate(0) translate(4 138)">
<title>CmdStore</title>
<polygon fill="white" stroke="transparent" points="-4,4 -4,-138 265,-138 265,4 -4,4"/>
<!-- Node1 -->
<g id="node1" class="node">
<title>Node1</title>
<g id="a_node1"><a xlink:title=" ">
<polygon fill="#bfbfbf" stroke="black" points="0,-57.5 0,-76.5 61,-76.5 61,-57.5 0,-57.5"/>
<text text-anchor="middle" x="30.5" y="-64.5" font-family="Helvetica,sans-Serif" font-size="10.00">CmdStore</text>
</a>
</g>
</g>
<!-- Node2 -->
<g id="node2" class="node">
<title>Node2</title>
<g id="a_node2"><a xlink:href="classcmd_1_1_command_boolean_1_1_cmd_bool_store.html" target="_top" xlink:title="整数変数にスタックトップの整数を代入する．">
<polygon fill="white" stroke="black" points="97,-114.5 97,-133.5 261,-133.5 261,-114.5 97,-114.5"/>
<text text-anchor="middle" x="179" y="-121.5" font-family="Helvetica,sans-Serif" font-size="10.00">CommandBoolean.CmdBoolStore</text>
</a>
</g>
</g>
<!-- Node1&#45;&gt;Node2 -->
<g id="edge1" class="edge">
<title>Node1&#45;&gt;Node2</title>
<path fill="none" stroke="midnightblue" d="M54.08,-82.33C66.34,-90.07 82.01,-99.05 97,-105 106.4,-108.73 116.71,-111.84 126.74,-114.4"/>
<polygon fill="midnightblue" stroke="midnightblue" points="55.74,-79.24 45.45,-76.73 51.93,-85.11 55.74,-79.24"/>
</g>
<!-- Node3 -->
<g id="node3" class="node">
<title>Node3</title>
<g id="a_node3"><a xlink:href="classcmd_1_1_command_double_1_1_cmd_dbl_store.html" target="_top" xlink:title="倍精度実数変数にスタックトップの倍精度実数を代入する．">
<polygon fill="white" stroke="black" points="101.5,-76.5 101.5,-95.5 256.5,-95.5 256.5,-76.5 101.5,-76.5"/>
<text text-anchor="middle" x="179" y="-83.5" font-family="Helvetica,sans-Serif" font-size="10.00">CommandDouble.CmdDblStore</text>
</a>
</g>
</g>
<!-- Node1&#45;&gt;Node3 -->
<g id="edge2" class="edge">
<title>Node1&#45;&gt;Node3</title>
<path fill="none" stroke="midnightblue" d="M71.08,-72.13C81.44,-73.48 92.95,-74.97 104.47,-76.46"/>
<polygon fill="midnightblue" stroke="midnightblue" points="71.51,-68.66 61.15,-70.84 70.61,-75.6 71.51,-68.66"/>
</g>
<!-- Node4 -->
<g id="node4" class="node">
<title>Node4</title>
<g id="a_node4"><a xlink:href="classcmd_1_1_command_integer_1_1_cmd_int_store.html" target="_top" xlink:title="整数変数にスタックトップの整数を代入する．">
<polygon fill="white" stroke="black" points="104.5,-38.5 104.5,-57.5 253.5,-57.5 253.5,-38.5 104.5,-38.5"/>
<text text-anchor="middle" x="179" y="-45.5" font-family="Helvetica,sans-Serif" font-size="10.00">CommandInteger.CmdIntStore</text>
</a>
</g>
</g>
<!-- Node1&#45;&gt;Node4 -->
<g id="edge3" class="edge">
<title>Node1&#45;&gt;Node4</title>
<path fill="none" stroke="midnightblue" d="M71.08,-61.87C81.44,-60.52 92.95,-59.03 104.47,-57.54"/>
<polygon fill="midnightblue" stroke="midnightblue" points="70.61,-58.4 61.15,-63.16 71.51,-65.34 70.61,-58.4"/>
</g>
<!-- Node5 -->
<g id="node5" class="node">
<title>Node5</title>
<g id="a_node5"><a xlink:href="classcmd_1_1_command_string_1_1_cmd_str_store.html" target="_top" xlink:title="文字列変数にスタックトップの文字列を代入する．">
<polygon fill="white" stroke="black" points="105.5,-0.5 105.5,-19.5 252.5,-19.5 252.5,-0.5 105.5,-0.5"/>
<text text-anchor="middle" x="179" y="-7.5" font-family="Helvetica,sans-Serif" font-size="10.00">CommandString.CmdStrStore</text>
</a>
</g>
</g>
<!-- Node1&#45;&gt;Node5 -->
<g id="edge4" class="edge">
<title>Node1&#45;&gt;Node5</title>
<path fill="none" stroke="midnightblue" d="M54.08,-51.67C66.34,-43.93 82.01,-34.95 97,-29 106.4,-25.27 116.71,-22.16 126.74,-19.6"/>
<polygon fill="midnightblue" stroke="midnightblue" points="51.93,-48.89 45.45,-57.27 55.74,-54.76 51.93,-48.89"/>
</g>
</g>
</svg>
