<?xml version="1.0" encoding="UTF-8" standalone="no"?>
<!DOCTYPE svg PUBLIC "-//W3C//DTD SVG 1.1//EN"
 "http://www.w3.org/Graphics/SVG/1.1/DTD/svg11.dtd">
<!-- Generated by graphviz version 2.38.0 (20140413.2041)
 -->
<!-- Title: queryParser.StrRelExpContext Pages: 1 -->
<svg width="160pt" height="137pt"
 viewBox="0.00 0.00 160.18 137.00" xmlns="http://www.w3.org/2000/svg" xmlns:xlink="http://www.w3.org/1999/xlink">
<g id="graph0" class="graph" transform="scale(1 1) rotate(0) translate(4 133)">
<title>queryParser.StrRelExpContext</title>
<polygon fill="white" stroke="none" points="-4,4 -4,-133 156.177,-133 156.177,4 -4,4"/>
<!-- Node1 -->
<g id="node1" class="node"><title>Node1</title>
<g id="a_node1"><a xlink:title=" ">
<polygon fill="#bfbfbf" stroke="black" points="0,-0.5 0,-18.5 152.177,-18.5 152.177,-0.5 0,-0.5"/>
<text text-anchor="middle" x="76.0884" y="-6.5" font-family="Helvetica,sans-Serif" font-size="10.00">queryParser.StrRelExpContext</text>
</a>
</g>
</g>
<!-- Node2 -->
<g id="node2" class="node"><title>Node2</title>
<g id="a_node2"><a xlink:href="classparse_1_1query_parser_1_1_boolexpr_context.html" target="_top" xlink:title=" ">
<polygon fill="white" stroke="black" points="2.77344,-55.5 2.77344,-73.5 149.403,-73.5 149.403,-55.5 2.77344,-55.5"/>
<text text-anchor="middle" x="76.0884" y="-61.5" font-family="Helvetica,sans-Serif" font-size="10.00">queryParser.BoolexprContext</text>
</a>
</g>
</g>
<!-- Node2&#45;&gt;Node1 -->
<g id="edge1" class="edge"><title>Node2&#45;&gt;Node1</title>
<path fill="none" stroke="midnightblue" d="M76.0884,-45.1746C76.0884,-36.0945 76.0884,-25.5949 76.0884,-18.5496"/>
<polygon fill="midnightblue" stroke="midnightblue" points="72.5885,-45.2187 76.0884,-55.2188 79.5885,-45.2188 72.5885,-45.2187"/>
</g>
<!-- Node3 -->
<g id="node3" class="node"><title>Node3</title>
<g id="a_node3"><a xlink:title=" ">
<polygon fill="white" stroke="#bfbfbf" points="25.8472,-110.5 25.8472,-128.5 126.33,-128.5 126.33,-110.5 25.8472,-110.5"/>
<text text-anchor="middle" x="76.0884" y="-116.5" font-family="Helvetica,sans-Serif" font-size="10.00">ParserRuleContext</text>
</a>
</g>
</g>
<!-- Node3&#45;&gt;Node2 -->
<g id="edge2" class="edge"><title>Node3&#45;&gt;Node2</title>
<path fill="none" stroke="midnightblue" d="M76.0884,-100.175C76.0884,-91.0945 76.0884,-80.5949 76.0884,-73.5496"/>
<polygon fill="midnightblue" stroke="midnightblue" points="72.5885,-100.219 76.0884,-110.219 79.5885,-100.219 72.5885,-100.219"/>
</g>
</g>
</svg>
