<?xml version="1.0" encoding="UTF-8" standalone="no"?>
<!DOCTYPE svg PUBLIC "-//W3C//DTD SVG 1.1//EN"
 "http://www.w3.org/Graphics/SVG/1.1/DTD/svg11.dtd">
<!-- Generated by graphviz version 2.47.0 (20210316.0004)
 -->
<!-- Title: CommandBase.CmdLoad Pages: 1 -->
<!--zoomable 297 -->
<svg id="main" version="1.1" xmlns="http://www.w3.org/2000/svg" xmlns:xlink="http://www.w3.org/1999/xlink" xml:space="preserve" onload="init(evt)">
<style type="text/css"><![CDATA[
.edge:hover path { stroke: red; }
.edge:hover polygon { stroke: red; fill: red; }
]]></style>
<script type="text/javascript"><![CDATA[
var edges = document.getElementsByTagName('g');
if (edges && edges.length) {
  for (var i=0;i<edges.length;i++) {
    if (edges[i].id.substr(0,4)=='edge') {
      edges[i].setAttribute('class','edge');
    }
  }
}
]]></script>
        <defs>
                <circle id="rim" cx="0" cy="0" r="7"/>
                <circle id="rim2" cx="0" cy="0" r="3.5"/>
                <g id="zoomPlus">
                        <use xlink:href="#rim" fill="#404040">
                                <set attributeName="fill" to="#808080" begin="zoomplus.mouseover" end="zoomplus.mouseout"/>
                        </use>
                        <path d="M-4,0h8M0,-4v8" fill="none" stroke="white" stroke-width="1.5" pointer-events="none"/>
                </g>
                <g id="zoomMin">
                        <use xlink:href="#rim" fill="#404040">
                                <set attributeName="fill" to="#808080" begin="zoomminus.mouseover" end="zoomminus.mouseout"/>
                        </use>
                        <path d="M-4,0h8" fill="none" stroke="white" stroke-width="1.5" pointer-events="none"/>
                </g>
                <g id="dirArrow">
                        <path fill="none" stroke="white" stroke-width="1.5" d="M0,-3.0v7 M-2.5,-0.5L0,-3.0L2.5,-0.5"/>
                </g>
               <g id="resetDef">
                       <use xlink:href="#rim2" fill="#404040">
                               <set attributeName="fill" to="#808080" begin="reset.mouseover" end="reset.mouseout"/>
                       </use>
               </g>
        </defs>

<script type="text/javascript">
var viewWidth = 773;
var viewHeight = 297;
var sectionId = 'dynsection-1';
</script>
<script xlink:href="svgpan.js"/>
<svg id="graph" class="graph">
<g id="viewport">
<title>CommandBase.CmdLoad</title>
<polygon fill="white" stroke="transparent" points="-4,4 -4,-293 769,-293 769,4 -4,4"/>
<!-- Node1 -->
<g id="node1" class="node">
<title>Node1</title>
<g id="a_node1"><a xlink:title=" ">
<polygon fill="#bfbfbf" stroke="black" points="329.5,-0.5 329.5,-19.5 458.5,-19.5 458.5,-0.5 329.5,-0.5"/>
<text text-anchor="middle" x="394" y="-7.5" font-family="Helvetica,sans-Serif" font-size="10.00">CommandBase.CmdLoad</text>
</a>
</g>
</g>
<!-- Node2 -->
<g id="node2" class="node">
<title>Node2</title>
<g id="a_node2"><a xlink:href="classcmd_1_1_command_base_1_1_command_ref.html" target="_top" xlink:title=" ">
<polygon fill="white" stroke="black" points="320,-57.5 320,-76.5 468,-76.5 468,-57.5 320,-57.5"/>
<text text-anchor="middle" x="394" y="-64.5" font-family="Helvetica,sans-Serif" font-size="10.00">CommandBase.CommandRef</text>
</a>
</g>
</g>
<!-- Node2&#45;&gt;Node1 -->
<g id="edge1" class="edge">
<title>Node2&#45;&gt;Node1</title>
<path fill="none" stroke="midnightblue" d="M394,-47.12C394,-37.82 394,-27.06 394,-19.71"/>
<polygon fill="midnightblue" stroke="midnightblue" points="390.5,-47.41 394,-57.41 397.5,-47.41 390.5,-47.41"/>
</g>
<!-- Node3 -->
<g id="node3" class="node">
<title>Node3</title>
<g id="a_node3"><a xlink:href="classcmd_1_1_command_base.html" target="_top" xlink:title="局所変数環境に値を書き込む式の抽象クラス.">
<polygon fill="white" stroke="black" points="168,-124.5 168,-143.5 252,-143.5 252,-124.5 168,-124.5"/>
<text text-anchor="middle" x="210" y="-131.5" font-family="Helvetica,sans-Serif" font-size="10.00">CommandBase</text>
</a>
</g>
</g>
<!-- Node3&#45;&gt;Node2 -->
<g id="edge2" class="edge">
<title>Node3&#45;&gt;Node2</title>
<path fill="none" stroke="midnightblue" d="M244.15,-120.94C280.65,-108.04 337.6,-87.92 369.76,-76.56"/>
<polygon fill="midnightblue" stroke="midnightblue" points="242.7,-117.74 234.43,-124.37 245.03,-124.34 242.7,-117.74"/>
</g>
<!-- Node4 -->
<g id="node4" class="node">
<title>Node4</title>
<g id="a_node4"><a xlink:href="interfacemachine_1_1_cmd.html" target="_top" xlink:title="仮装命令のインタフェース.">
<polygon fill="white" stroke="black" points="118,-191.5 118,-210.5 156,-210.5 156,-191.5 118,-191.5"/>
<text text-anchor="middle" x="137" y="-198.5" font-family="Helvetica,sans-Serif" font-size="10.00">Cmd</text>
</a>
</g>
</g>
<!-- Node4&#45;&gt;Node3 -->
<g id="edge3" class="edge">
<title>Node4&#45;&gt;Node3</title>
<path fill="none" stroke="midnightblue" d="M154.57,-184.36C168.92,-171.58 188.67,-153.99 200.31,-143.63"/>
<polygon fill="midnightblue" stroke="midnightblue" points="151.99,-181.97 146.85,-191.23 156.64,-187.2 151.99,-181.97"/>
</g>
<!-- Node5 -->
<g id="node5" class="node">
<title>Node5</title>
<g id="a_node5"><a xlink:href="interfaceformat_1_1_x_formattable_1_1_custom_formattable.html" target="_top" xlink:title="カスタム清書出力器をもつオブジェクトのクラス．">
<polygon fill="white" stroke="black" points="264,-191.5 264,-210.5 428,-210.5 428,-191.5 264,-191.5"/>
<text text-anchor="middle" x="346" y="-198.5" font-family="Helvetica,sans-Serif" font-size="10.00">XFormattable.CustomFormattable</text>
</a>
</g>
</g>
<!-- Node5&#45;&gt;Node3 -->
<g id="edge4" class="edge">
<title>Node5&#45;&gt;Node3</title>
<path fill="none" stroke="midnightblue" d="M318.68,-186.94C291.74,-174.07 251.34,-154.76 228.13,-143.67"/>
<polygon fill="midnightblue" stroke="midnightblue" points="317.41,-190.21 327.94,-191.37 320.43,-183.9 317.41,-190.21"/>
</g>
<!-- Node6 -->
<g id="node6" class="node">
<title>Node6</title>
<g id="a_node6"><a xlink:href="interfaceformat_1_1_x_formattable.html" target="_top" xlink:title="入れ子フォーマット出力可能なオブジェクトのインタフェース。">
<polygon fill="white" stroke="black" points="342.5,-269.5 342.5,-288.5 417.5,-288.5 417.5,-269.5 342.5,-269.5"/>
<text text-anchor="middle" x="380" y="-276.5" font-family="Helvetica,sans-Serif" font-size="10.00">XFormattable</text>
</a>
</g>
</g>
<!-- Node6&#45;&gt;Node5 -->
<g id="edge5" class="edge">
<title>Node6&#45;&gt;Node5</title>
<path fill="none" stroke="midnightblue" d="M383.22,-259.16C383.97,-249.66 383.49,-238.24 379,-229 375.31,-221.41 368.36,-215.23 361.79,-210.7"/>
<polygon fill="midnightblue" stroke="midnightblue" points="379.74,-258.8 381.94,-269.17 386.68,-259.69 379.74,-258.8"/>
</g>
<!-- Node13 -->
<g id="node13" class="node">
<title>Node13</title>
<g id="a_node13"><a xlink:href="classast_1_1_ast_node.html" target="_top" xlink:title=" ">
<polygon fill="white" stroke="black" points="446.5,-191.5 446.5,-210.5 501.5,-210.5 501.5,-191.5 446.5,-191.5"/>
<text text-anchor="middle" x="474" y="-198.5" font-family="Helvetica,sans-Serif" font-size="10.00">AstNode</text>
</a>
</g>
</g>
<!-- Node6&#45;&gt;Node13 -->
<g id="edge14" class="edge">
<title>Node6&#45;&gt;Node13</title>
<path fill="none" stroke="midnightblue" d="M398.63,-262.94C417.99,-247.28 447.62,-223.33 463.34,-210.62"/>
<polygon fill="midnightblue" stroke="midnightblue" points="396.36,-260.27 390.78,-269.28 400.76,-265.72 396.36,-260.27"/>
</g>
<!-- Node7 -->
<g id="node7" class="node">
<title>Node7</title>
<g id="a_node7"><a xlink:href="classutil_1_1_report.html" target="_top" xlink:title="標準出力への入れ子出力のためのレポートオブジェクトのクラス.">
<polygon fill="white" stroke="black" points="174.5,-191.5 174.5,-210.5 245.5,-210.5 245.5,-191.5 174.5,-191.5"/>
<text text-anchor="middle" x="210" y="-198.5" font-family="Helvetica,sans-Serif" font-size="10.00">Report&lt; S &gt;</text>
</a>
</g>
</g>
<!-- Node7&#45;&gt;Node3 -->
<g id="edge6" class="edge">
<title>Node7&#45;&gt;Node3</title>
<path fill="none" stroke="#9a32cd" stroke-dasharray="5,2" d="M210,-181.04C210,-168.67 210,-153.12 210,-143.63"/>
<polygon fill="#9a32cd" stroke="#9a32cd" points="206.5,-181.23 210,-191.23 213.5,-181.23 206.5,-181.23"/>
<text text-anchor="middle" x="221" y="-165" font-family="Helvetica,sans-Serif" font-size="10.00"> repo</text>
</g>
<!-- Node8 -->
<g id="node8" class="node">
<title>Node8</title>
<g id="a_node8"><a xlink:title=" ">
<polygon fill="white" stroke="#bfbfbf" points="282,-269.5 282,-288.5 324,-288.5 324,-269.5 282,-269.5"/>
<text text-anchor="middle" x="303" y="-276.5" font-family="Helvetica,sans-Serif" font-size="10.00">String</text>
</a>
</g>
</g>
<!-- Node8&#45;&gt;Node7 -->
<g id="edge7" class="edge">
<title>Node8&#45;&gt;Node7</title>
<path fill="none" stroke="#9a32cd" stroke-dasharray="5,2" d="M273.5,-264.78C266.13,-260.85 258.49,-256.19 252,-251 237.12,-239.1 223.48,-221.4 216,-210.85"/>
<polygon fill="#9a32cd" stroke="#9a32cd" points="272.06,-267.98 282.57,-269.36 275.21,-261.73 272.06,-267.98"/>
<text text-anchor="middle" x="278" y="-237.5" font-family="Helvetica,sans-Serif" font-size="10.00"> STEMSTR</text>
</g>
<!-- Node8&#45;&gt;Node13 -->
<g id="edge15" class="edge">
<title>Node8&#45;&gt;Node13</title>
<path fill="none" stroke="#9a32cd" stroke-dasharray="5,2" d="M317.46,-261.69C327.95,-250.85 343.05,-237.16 359,-229 390.67,-212.8 402.38,-219.2 437,-211 439.96,-210.3 443.05,-209.56 446.13,-208.82"/>
<polygon fill="#9a32cd" stroke="#9a32cd" points="314.64,-259.58 310.4,-269.29 319.77,-264.35 314.64,-259.58"/>
<text text-anchor="middle" x="385" y="-243" font-family="Helvetica,sans-Serif" font-size="10.00"> MOD_AST</text>
<text text-anchor="middle" x="385" y="-232" font-family="Helvetica,sans-Serif" font-size="10.00">mod_</text>
</g>
<!-- Node9 -->
<g id="node9" class="node">
<title>Node9</title>
<g id="a_node9"><a xlink:href="classutil_1_1_stack_base.html" target="_top" xlink:title=" ">
<polygon fill="white" stroke="black" points="156,-269.5 156,-288.5 264,-288.5 264,-269.5 156,-269.5"/>
<text text-anchor="middle" x="210" y="-276.5" font-family="Helvetica,sans-Serif" font-size="10.00">StackBase&lt; String &gt;</text>
</a>
</g>
</g>
<!-- Node9&#45;&gt;Node7 -->
<g id="edge8" class="edge">
<title>Node9&#45;&gt;Node7</title>
<path fill="none" stroke="#9a32cd" stroke-dasharray="5,2" d="M210,-259.22C210,-243.7 210,-222.36 210,-210.62"/>
<polygon fill="#9a32cd" stroke="#9a32cd" points="206.5,-259.28 210,-269.28 213.5,-259.28 206.5,-259.28"/>
<text text-anchor="middle" x="219" y="-237.5" font-family="Helvetica,sans-Serif" font-size="10.00"> NS</text>
</g>
<!-- Node10 -->
<g id="node10" class="node">
<title>Node10</title>
<g id="a_node10"><a xlink:title=" ">
<polygon fill="white" stroke="#bfbfbf" points="0,-269.5 0,-288.5 50,-288.5 50,-269.5 0,-269.5"/>
<text text-anchor="middle" x="25" y="-276.5" font-family="Helvetica,sans-Serif" font-size="10.00">boolean</text>
</a>
</g>
</g>
<!-- Node10&#45;&gt;Node3 -->
<g id="edge10" class="edge">
<title>Node10&#45;&gt;Node3</title>
<path fill="none" stroke="#9a32cd" stroke-dasharray="5,2" d="M17.51,-259.46C14.79,-250.2 13.04,-238.89 16,-229 21.8,-209.63 24.96,-203.31 41,-191 78.4,-162.31 131.21,-147.93 167.8,-140.99"/>
<polygon fill="#9a32cd" stroke="#9a32cd" points="14.31,-260.91 20.92,-269.19 20.91,-258.59 14.31,-260.91"/>
<text text-anchor="middle" x="75" y="-198.5" font-family="Helvetica,sans-Serif" font-size="10.00"> DEBUG_CMD</text>
</g>
<!-- Node10&#45;&gt;Node7 -->
<g id="edge9" class="edge">
<title>Node10&#45;&gt;Node7</title>
<path fill="none" stroke="#9a32cd" stroke-dasharray="5,2" d="M19.98,-259.17C18.49,-249.03 18.82,-237 26,-229 46.8,-205.82 134.27,-216.06 165,-211 167.99,-210.51 171.08,-209.96 174.18,-209.39"/>
<polygon fill="#9a32cd" stroke="#9a32cd" points="16.6,-260.1 22.1,-269.15 23.45,-258.65 16.6,-260.1"/>
<text text-anchor="middle" x="59" y="-243" font-family="Helvetica,sans-Serif" font-size="10.00"> DEBUG_POP</text>
<text text-anchor="middle" x="59" y="-232" font-family="Helvetica,sans-Serif" font-size="10.00">toPrint</text>
</g>
<!-- Node10&#45;&gt;Node13 -->
<g id="edge20" class="edge">
<title>Node10&#45;&gt;Node13</title>
<path fill="none" stroke="#9a32cd" stroke-dasharray="5,2" d="M57.26,-265.83C68.38,-261.41 80.84,-256.22 92,-251 110.73,-242.23 113.1,-234.63 133,-229 263.23,-192.14 303.15,-231.08 437,-211 440.01,-210.55 443.13,-209.97 446.23,-209.32"/>
<polygon fill="#9a32cd" stroke="#9a32cd" points="55.94,-262.58 47.9,-269.49 58.49,-269.1 55.94,-262.58"/>
<text text-anchor="middle" x="169.5" y="-237.5" font-family="Helvetica,sans-Serif" font-size="10.00"> DEBUG_REPO</text>
</g>
<!-- Node11 -->
<g id="node11" class="node">
<title>Node11</title>
<g id="a_node11"><a xlink:href="interfacemachine_1_1_data_accessor.html" target="_top" xlink:title="参照をもつデータ読み書きオブジェクトのインタフェース.">
<polygon fill="white" stroke="black" points="354.5,-124.5 354.5,-143.5 433.5,-143.5 433.5,-124.5 354.5,-124.5"/>
<text text-anchor="middle" x="394" y="-131.5" font-family="Helvetica,sans-Serif" font-size="10.00">DataAccessor</text>
</a>
</g>
</g>
<!-- Node11&#45;&gt;Node2 -->
<g id="edge11" class="edge">
<title>Node11&#45;&gt;Node2</title>
<path fill="none" stroke="midnightblue" d="M394,-114.04C394,-101.67 394,-86.12 394,-76.63"/>
<polygon fill="midnightblue" stroke="midnightblue" points="390.5,-114.23 394,-124.23 397.5,-114.23 390.5,-114.23"/>
</g>
<!-- Node12 -->
<g id="node12" class="node">
<title>Node12</title>
<g id="a_node12"><a xlink:href="classmachine_1_1_ref.html" target="_top" xlink:title="フレーム中の変数参照オブジェクトref = (XType type, int vid)">
<polygon fill="white" stroke="black" points="510,-124.5 510,-143.5 542,-143.5 542,-124.5 510,-124.5"/>
<text text-anchor="middle" x="526" y="-131.5" font-family="Helvetica,sans-Serif" font-size="10.00">Ref</text>
</a>
</g>
</g>
<!-- Node12&#45;&gt;Node2 -->
<g id="edge12" class="edge">
<title>Node12&#45;&gt;Node2</title>
<path fill="none" stroke="#9a32cd" stroke-dasharray="5,2" d="M500.54,-120.46C474.39,-107.59 434.4,-87.89 411.58,-76.66"/>
<polygon fill="#9a32cd" stroke="#9a32cd" points="499.3,-123.75 509.81,-125.03 502.39,-117.47 499.3,-123.75"/>
<text text-anchor="middle" x="474.5" y="-98" font-family="Helvetica,sans-Serif" font-size="10.00"> ref</text>
</g>
<!-- Node13&#45;&gt;Node12 -->
<g id="edge13" class="edge">
<title>Node13&#45;&gt;Node12</title>
<path fill="none" stroke="midnightblue" d="M487.38,-183.27C497.52,-170.6 511.04,-153.7 519.1,-143.63"/>
<polygon fill="midnightblue" stroke="midnightblue" points="484.53,-181.24 481.01,-191.23 489.99,-185.61 484.53,-181.24"/>
</g>
<!-- Node14 -->
<g id="node14" class="node">
<title>Node14</title>
<g id="a_node14"><a xlink:title=" ">
<polygon fill="white" stroke="#bfbfbf" points="504.5,-269.5 504.5,-288.5 569.5,-288.5 569.5,-269.5 504.5,-269.5"/>
<text text-anchor="middle" x="537" y="-276.5" font-family="Helvetica,sans-Serif" font-size="10.00">TraceLevel</text>
</a>
</g>
</g>
<!-- Node14&#45;&gt;Node13 -->
<g id="edge16" class="edge">
<title>Node14&#45;&gt;Node13</title>
<path fill="none" stroke="#9a32cd" stroke-dasharray="5,2" d="M526.21,-260.55C519.91,-250.89 511.54,-238.86 503,-229 497.23,-222.34 489.98,-215.59 484.18,-210.51"/>
<polygon fill="#9a32cd" stroke="#9a32cd" points="523.43,-262.71 531.75,-269.27 529.34,-258.95 523.43,-262.71"/>
<text text-anchor="middle" x="530" y="-237.5" font-family="Helvetica,sans-Serif" font-size="10.00"> LOG</text>
</g>
<!-- Node15 -->
<g id="node15" class="node">
<title>Node15</title>
<g id="a_node15"><a xlink:title=" ">
<polygon fill="white" stroke="#bfbfbf" points="587.5,-269.5 587.5,-288.5 660.5,-288.5 660.5,-269.5 587.5,-269.5"/>
<text text-anchor="middle" x="624" y="-276.5" font-family="Helvetica,sans-Serif" font-size="10.00">static Report</text>
</a>
</g>
</g>
<!-- Node15&#45;&gt;Node13 -->
<g id="edge17" class="edge">
<title>Node15&#45;&gt;Node13</title>
<path fill="none" stroke="#9a32cd" stroke-dasharray="5,2" d="M597.45,-264.75C589.73,-260.61 581.39,-255.85 574,-251 560.77,-242.32 559.79,-236.76 546,-229 532.04,-221.15 515.34,-214.72 501.55,-210.11"/>
<polygon fill="#9a32cd" stroke="#9a32cd" points="595.97,-267.93 606.45,-269.46 599.22,-261.72 595.97,-267.93"/>
<text text-anchor="middle" x="585" y="-237.5" font-family="Helvetica,sans-Serif" font-size="10.00"> repo</text>
</g>
<!-- Node16 -->
<g id="node16" class="node">
<title>Node16</title>
<g id="a_node16"><a xlink:title=" ">
<polygon fill="white" stroke="#bfbfbf" points="715.5,-269.5 715.5,-288.5 744.5,-288.5 744.5,-269.5 715.5,-269.5"/>
<text text-anchor="middle" x="730" y="-276.5" font-family="Helvetica,sans-Serif" font-size="10.00">int</text>
</a>
</g>
</g>
<!-- Node16&#45;&gt;Node12 -->
<g id="edge22" class="edge">
<title>Node16&#45;&gt;Node12</title>
<path fill="none" stroke="#9a32cd" stroke-dasharray="5,2" d="M740.66,-260.42C745.17,-250.53 748.12,-238.34 742,-229 695.82,-158.54 584.1,-140.61 542.22,-136.29"/>
<polygon fill="#9a32cd" stroke="#9a32cd" points="737.52,-258.87 735.92,-269.34 743.7,-262.16 737.52,-258.87"/>
<text text-anchor="middle" x="745.5" y="-198.5" font-family="Helvetica,sans-Serif" font-size="10.00"> UNDEF</text>
</g>
<!-- Node16&#45;&gt;Node13 -->
<g id="edge18" class="edge">
<title>Node16&#45;&gt;Node13</title>
<path fill="none" stroke="#9a32cd" stroke-dasharray="5,2" d="M705.53,-273.59C677.55,-268.28 633.73,-259.06 619,-251 606.59,-244.21 608.51,-235.61 596,-229 561.85,-210.97 548.65,-219.56 511,-211 508.03,-210.33 504.94,-209.6 501.86,-208.87"/>
<polygon fill="#9a32cd" stroke="#9a32cd" points="704.91,-277.03 715.38,-275.42 706.19,-270.15 704.91,-277.03"/>
<text text-anchor="middle" x="680.5" y="-243" font-family="Helvetica,sans-Serif" font-size="10.00"> BITMASK_PRINT_WIDTH</text>
<text text-anchor="middle" x="680.5" y="-232" font-family="Helvetica,sans-Serif" font-size="10.00">UNDEF</text>
</g>
<!-- Node17 -->
<g id="node17" class="node">
<title>Node17</title>
<g id="a_node17"><a xlink:href="interfacetype_1_1_typable.html" target="_top" xlink:title="抽象ノードがもつ関数型のインタフェース">
<polygon fill="white" stroke="black" points="436,-269.5 436,-288.5 486,-288.5 486,-269.5 436,-269.5"/>
<text text-anchor="middle" x="461" y="-276.5" font-family="Helvetica,sans-Serif" font-size="10.00">Typable</text>
</a>
</g>
</g>
<!-- Node17&#45;&gt;Node13 -->
<g id="edge19" class="edge">
<title>Node17&#45;&gt;Node13</title>
<path fill="none" stroke="#9a32cd" stroke-dasharray="5,2" d="M464.21,-259.22C466.87,-243.7 470.52,-222.36 472.53,-210.62"/>
<polygon fill="#9a32cd" stroke="#9a32cd" points="460.73,-258.83 462.49,-269.28 467.63,-260.02 460.73,-258.83"/>
<text text-anchor="middle" x="484" y="-237.5" font-family="Helvetica,sans-Serif" font-size="10.00"> typing</text>
</g>
<!-- Node18 -->
<g id="node18" class="node">
<title>Node18</title>
<g id="a_node18"><a xlink:href="interfacemachine_1_1_assignable.html" target="_top" xlink:title="変数（チャネルとコンテナの名前）の抽象化">
<polygon fill="white" stroke="black" points="519.5,-191.5 519.5,-210.5 584.5,-210.5 584.5,-191.5 519.5,-191.5"/>
<text text-anchor="middle" x="552" y="-198.5" font-family="Helvetica,sans-Serif" font-size="10.00">Assignable</text>
</a>
</g>
</g>
<!-- Node18&#45;&gt;Node12 -->
<g id="edge21" class="edge">
<title>Node18&#45;&gt;Node12</title>
<path fill="none" stroke="midnightblue" d="M544.72,-181.79C539.72,-169.31 533.33,-153.31 529.45,-143.63"/>
<polygon fill="midnightblue" stroke="midnightblue" points="541.53,-183.25 548.49,-191.23 548.03,-180.65 541.53,-183.25"/>
</g>
</g>
</svg>
        <g id="navigator" transform="translate(0 0)" fill="#404254">
                <rect fill="#f2f5e9" fill-opacity="0.5" stroke="#606060" stroke-width=".5" x="0" y="0" width="60" height="60"/>
                <use id="zoomplus" xlink:href="#zoomPlus" x="17" y="9" onmousedown="handleZoom(evt,'in')"/>
                <use id="zoomminus" xlink:href="#zoomMin" x="42" y="9" onmousedown="handleZoom(evt,'out')"/>
                <use id="reset" xlink:href="#resetDef" x="30" y="36" onmousedown="handleReset()"/>
                <g id="arrowUp" xlink:href="#dirArrow" transform="translate(30 24)" onmousedown="handlePan(0,-1)">
                  <use xlink:href="#rim" fill="#404040">
                        <set attributeName="fill" to="#808080" begin="arrowUp.mouseover" end="arrowUp.mouseout"/>
                  </use>
                  <path fill="none" stroke="white" stroke-width="1.5" d="M0,-3.0v7 M-2.5,-0.5L0,-3.0L2.5,-0.5"/>
                </g>
                <g id="arrowRight" xlink:href="#dirArrow" transform="rotate(90) translate(36 -43)" onmousedown="handlePan(1,0)">
                  <use xlink:href="#rim" fill="#404040">
                        <set attributeName="fill" to="#808080" begin="arrowRight.mouseover" end="arrowRight.mouseout"/>
                  </use>
                  <path fill="none" stroke="white" stroke-width="1.5" d="M0,-3.0v7 M-2.5,-0.5L0,-3.0L2.5,-0.5"/>
                </g>
                <g id="arrowDown" xlink:href="#dirArrow" transform="rotate(180) translate(-30 -48)" onmousedown="handlePan(0,1)">
                  <use xlink:href="#rim" fill="#404040">
                        <set attributeName="fill" to="#808080" begin="arrowDown.mouseover" end="arrowDown.mouseout"/>
                  </use>
                  <path fill="none" stroke="white" stroke-width="1.5" d="M0,-3.0v7 M-2.5,-0.5L0,-3.0L2.5,-0.5"/>
                </g>
                <g id="arrowLeft" xlink:href="#dirArrow" transform="rotate(270) translate(-36 17)" onmousedown="handlePan(-1,0)">
                  <use xlink:href="#rim" fill="#404040">
                        <set attributeName="fill" to="#808080" begin="arrowLeft.mouseover" end="arrowLeft.mouseout"/>
                  </use>
                  <path fill="none" stroke="white" stroke-width="1.5" d="M0,-3.0v7 M-2.5,-0.5L0,-3.0L2.5,-0.5"/>
                </g>
        </g>
        <svg viewBox="0 0 15 15" width="100%" height="30px" preserveAspectRatio="xMaxYMin meet">
         <g id="arrow_out" transform="scale(0.3 0.3)">
          <a xlink:href="classcmd_1_1_command_base_1_1_cmd_load__coll__graph_org.svg" target="_base">
           <rect id="button" ry="5" rx="5" y="6" x="6" height="38" width="38"
                fill="#f2f5e9" fill-opacity="0.5" stroke="#606060" stroke-width="1.0"/>
           <path id="arrow"
             d="M 11.500037,31.436501 C 11.940474,20.09759 22.043105,11.32322 32.158766,21.979434 L 37.068811,17.246167 C 37.068811,17.246167 37.088388,32 37.088388,32 L 22.160133,31.978069 C 22.160133,31.978069 26.997745,27.140456 26.997745,27.140456 C 18.528582,18.264221 13.291696,25.230495 11.500037,31.436501 z"
             style="fill:#404040;"/>
          </a>
         </g>
        </svg>
</svg>
