<?xml version="1.0" encoding="UTF-8" standalone="no"?>
<!DOCTYPE svg PUBLIC "-//W3C//DTD SVG 1.1//EN"
 "http://www.w3.org/Graphics/SVG/1.1/DTD/svg11.dtd">
<!-- Generated by graphviz version 2.38.0 (20140413.2041)
 -->
<!-- Title: getClassName Pages: 1 -->
<svg width="863pt" height="1203pt"
 viewBox="0.00 0.00 862.76 1203.00" xmlns="http://www.w3.org/2000/svg" xmlns:xlink="http://www.w3.org/1999/xlink">
<g id="graph0" class="graph" transform="scale(1 1) rotate(0) translate(4 1199)">
<title>getClassName</title>
<polygon fill="white" stroke="none" points="-4,4 -4,-1199 858.757,-1199 858.757,4 -4,4"/>
<!-- Node1 -->
<g id="node1" class="node"><title>Node1</title>
<g id="a_node1"><a xlink:title="出力ルーチンであり、引数のオブジェクトobjのクラス名を表す文字列を返す。">
<polygon fill="#bfbfbf" stroke="black" points="773.176,-809.5 773.176,-827.5 854.757,-827.5 854.757,-809.5 773.176,-809.5"/>
<text text-anchor="middle" x="813.966" y="-815.5" font-family="Helvetica,sans-Serif" font-size="10.00">getClassName</text>
</a>
</g>
</g>
<!-- Node2 -->
<g id="node2" class="node"><title>Node2</title>
<g id="a_node2"><a xlink:href="classformat_1_1_node_formatter_1_1_node_formatter_base.html#ab92a526b9fde76da4fa8924154dce1a2" target="_top" xlink:title="与えられたノードを根とする部分木の高さを計算する．">
<polygon fill="white" stroke="black" points="583.625,-1166.5 583.625,-1194.5 724.126,-1194.5 724.126,-1166.5 583.625,-1166.5"/>
<text text-anchor="start" x="591.625" y="-1182.5" font-family="Helvetica,sans-Serif" font-size="10.00">format.NodeFormatter.Node</text>
<text text-anchor="middle" x="653.875" y="-1172.5" font-family="Helvetica,sans-Serif" font-size="10.00">FormatterBase.compHeight</text>
</a>
</g>
</g>
<!-- Node1&#45;&gt;Node2 -->
<g id="edge1" class="edge"><title>Node1&#45;&gt;Node2</title>
<path fill="none" stroke="midnightblue" d="M811.239,-837.678C805.046,-902.251 781.913,-1110.35 737.176,-1157.5 733.398,-1161.48 728.992,-1164.79 724.22,-1167.55"/>
<polygon fill="midnightblue" stroke="midnightblue" points="814.729,-837.947 812.172,-827.665 807.759,-837.297 814.729,-837.947"/>
</g>
<!-- Node3 -->
<g id="node3" class="node"><title>Node3</title>
<g id="a_node3"><a xlink:href="classast_1_1_ast_terminal.html#a3137357d0abb2bd75321d6e19024956a" target="_top" xlink:title="ノードが保持するデータの文字列表現を返す. interface XFormattableで必要。">
<polygon fill="white" stroke="black" points="600.578,-1129.5 600.578,-1147.5 707.173,-1147.5 707.173,-1129.5 600.578,-1129.5"/>
<text text-anchor="middle" x="653.875" y="-1135.5" font-family="Helvetica,sans-Serif" font-size="10.00">ast.AstTerminal.data</text>
</a>
</g>
</g>
<!-- Node1&#45;&gt;Node3 -->
<g id="edge2" class="edge"><title>Node1&#45;&gt;Node3</title>
<path fill="none" stroke="midnightblue" d="M810.794,-837.59C803.587,-897.529 778.551,-1080.37 737.176,-1120.5 729.092,-1128.34 718.425,-1133.09 707.461,-1135.91"/>
<polygon fill="midnightblue" stroke="midnightblue" points="814.276,-837.943 811.964,-827.604 807.324,-837.128 814.276,-837.943"/>
</g>
<!-- Node4 -->
<g id="node4" class="node"><title>Node4</title>
<g id="a_node4"><a xlink:href="classformat_1_1_node_formatter_simple.html#a5c0ef08da3079eccb0198f198d32a9b5" target="_top" xlink:title="項のラベルを出力する">
<polygon fill="white" stroke="black" points="570.575,-1082.5 570.575,-1110.5 737.176,-1110.5 737.176,-1082.5 570.575,-1082.5"/>
<text text-anchor="start" x="578.575" y="-1098.5" font-family="Helvetica,sans-Serif" font-size="10.00">format.NodeFormatterSimple.emit</text>
<text text-anchor="middle" x="653.875" y="-1088.5" font-family="Helvetica,sans-Serif" font-size="10.00">NodeLabel</text>
</a>
</g>
</g>
<!-- Node1&#45;&gt;Node4 -->
<g id="edge3" class="edge"><title>Node1&#45;&gt;Node4</title>
<path fill="none" stroke="midnightblue" d="M812.719,-837.707C811.083,-883.714 800.56,-1001.31 737.176,-1067.5 731.203,-1073.74 723.811,-1078.63 715.926,-1082.48"/>
<polygon fill="midnightblue" stroke="midnightblue" points="816.22,-837.712 812.971,-827.628 809.222,-837.537 816.22,-837.712"/>
</g>
<!-- Node5 -->
<g id="node5" class="node"><title>Node5</title>
<g id="a_node5"><a xlink:href="classformat_1_1_node_formatter_simple.html#a2ffd13ecbb48136c0c309f7e36a91650" target="_top" xlink:title="項表現を出力する主ルーチン">
<polygon fill="white" stroke="black" points="372.975,-1061.5 372.975,-1089.5 534.575,-1089.5 534.575,-1061.5 372.975,-1061.5"/>
<text text-anchor="start" x="380.975" y="-1077.5" font-family="Helvetica,sans-Serif" font-size="10.00">format.NodeFormatterSimple.rec</text>
<text text-anchor="middle" x="453.775" y="-1067.5" font-family="Helvetica,sans-Serif" font-size="10.00">EmitString</text>
</a>
</g>
</g>
<!-- Node1&#45;&gt;Node5 -->
<g id="edge14" class="edge"><title>Node1&#45;&gt;Node5</title>
<path fill="none" stroke="midnightblue" d="M812.472,-837.932C810.245,-880.882 798.445,-984.06 737.176,-1034.5 707.055,-1059.3 607.105,-1069.1 534.649,-1072.97"/>
<polygon fill="midnightblue" stroke="midnightblue" points="815.977,-837.855 812.874,-827.725 808.983,-837.58 815.977,-837.855"/>
</g>
<!-- Node6 -->
<g id="node6" class="node"><title>Node6</title>
<g id="a_node6"><a xlink:href="classmachine_1_1_command.html#a547d3c8fbd985076fa76c007a645afea" target="_top" xlink:title="現在の計算文脈で仮装命令を実行する．">
<polygon fill="white" stroke="black" points="590.573,-1006.5 590.573,-1024.5 717.178,-1024.5 717.178,-1006.5 590.573,-1006.5"/>
<text text-anchor="middle" x="653.875" y="-1012.5" font-family="Helvetica,sans-Serif" font-size="10.00">machine.Command.exec</text>
</a>
</g>
</g>
<!-- Node1&#45;&gt;Node6 -->
<g id="edge5" class="edge"><title>Node1&#45;&gt;Node6</title>
<path fill="none" stroke="midnightblue" d="M810.642,-837.59C805.091,-874.502 787.536,-955.699 737.176,-997.5 731.324,-1002.36 724.453,-1005.98 717.22,-1008.68"/>
<polygon fill="midnightblue" stroke="midnightblue" points="814.114,-838.031 812.003,-827.649 807.179,-837.082 814.114,-838.031"/>
</g>
<!-- Node7 -->
<g id="node7" class="node"><title>Node7</title>
<g id="a_node7"><a xlink:href="classast_1_1_ast_let.html#a383612fb2c1d291f6f3f9c352a5cb262" target="_top" xlink:title="受取りコード末尾に生成したコードを追加する．">
<polygon fill="white" stroke="black" points="603.068,-969.5 603.068,-987.5 704.683,-987.5 704.683,-969.5 603.068,-969.5"/>
<text text-anchor="middle" x="653.875" y="-975.5" font-family="Helvetica,sans-Serif" font-size="10.00">ast.AstLet.gencode</text>
</a>
</g>
</g>
<!-- Node1&#45;&gt;Node7 -->
<g id="edge6" class="edge"><title>Node1&#45;&gt;Node7</title>
<path fill="none" stroke="midnightblue" d="M808.38,-837.439C799.881,-868.292 778.65,-929.107 737.176,-960.5 727.846,-967.562 716.311,-971.968 704.859,-974.688"/>
<polygon fill="midnightblue" stroke="midnightblue" points="811.826,-838.096 810.949,-827.537 805.05,-836.338 811.826,-838.096"/>
</g>
<!-- Node8 -->
<g id="node8" class="node"><title>Node8</title>
<g id="a_node8"><a xlink:href="classparse_1_1_ast_node_factory.html#ae479d0f97af31bd085d24ce4df390dc3" target="_top" xlink:title="TASK.OPER_MONOIDAL種のParserRuleContext型のノードに対して、対応するクラスのASTノードを生成するファクトリ手続き．開発者がカスタマイズする．">
<polygon fill="white" stroke="black" points="575.373,-922.5 575.373,-950.5 732.378,-950.5 732.378,-922.5 575.373,-922.5"/>
<text text-anchor="start" x="583.373" y="-938.5" font-family="Helvetica,sans-Serif" font-size="10.00">parse.AstNodeFactory.generate</text>
<text text-anchor="middle" x="653.875" y="-928.5" font-family="Helvetica,sans-Serif" font-size="10.00">OperMonoidal</text>
</a>
</g>
</g>
<!-- Node1&#45;&gt;Node8 -->
<g id="edge7" class="edge"><title>Node1&#45;&gt;Node8</title>
<path fill="none" stroke="midnightblue" d="M803.361,-836.438C790.922,-857.952 767.227,-893.598 737.176,-913.5 731.981,-916.941 726.275,-919.871 720.366,-922.367"/>
<polygon fill="midnightblue" stroke="midnightblue" points="806.446,-838.092 808.267,-827.655 800.335,-834.679 806.446,-838.092"/>
</g>
<!-- Node9 -->
<g id="node9" class="node"><title>Node9</title>
<g id="a_node9"><a xlink:href="classparse_1_1_ast_node_factory.html#aead06d450c0f8cf9cffd9e6c5c18ff19" target="_top" xlink:title="TASK.OPER_NON_MONOIDAL種のParserRuleContext型のノードに対して、対応するクラスのASTノードを生成するファクトリ手続き．開発者がカスタマイズする．">
<polygon fill="white" stroke="black" points="575.373,-875.5 575.373,-903.5 732.378,-903.5 732.378,-875.5 575.373,-875.5"/>
<text text-anchor="start" x="583.373" y="-891.5" font-family="Helvetica,sans-Serif" font-size="10.00">parse.AstNodeFactory.generate</text>
<text text-anchor="middle" x="653.875" y="-881.5" font-family="Helvetica,sans-Serif" font-size="10.00">OperNonMonoidal</text>
</a>
</g>
</g>
<!-- Node1&#45;&gt;Node9 -->
<g id="edge8" class="edge"><title>Node1&#45;&gt;Node9</title>
<path fill="none" stroke="midnightblue" d="M792.641,-833.687C777.884,-844.122 757.092,-857.641 737.176,-866.5 729.72,-869.816 721.67,-872.769 713.624,-875.362"/>
<polygon fill="midnightblue" stroke="midnightblue" points="794.932,-836.35 800.989,-827.657 790.833,-830.675 794.932,-836.35"/>
</g>
<!-- Node10 -->
<g id="node10" class="node"><title>Node10</title>
<g id="a_node10"><a xlink:href="classparse_1_1_ast_node_factory.html#a9b12bf6e060f976993606e556b230cef" target="_top" xlink:title="TASK.GEN_TERMINAL種のParserRuleContext型のノードに対して、対応するクラスのASTノードを生成するファクトリ手続き．開発者がカスタマイズする．">
<polygon fill="white" stroke="black" points="575.373,-828.5 575.373,-856.5 732.378,-856.5 732.378,-828.5 575.373,-828.5"/>
<text text-anchor="start" x="583.373" y="-844.5" font-family="Helvetica,sans-Serif" font-size="10.00">parse.AstNodeFactory.generate</text>
<text text-anchor="middle" x="653.875" y="-834.5" font-family="Helvetica,sans-Serif" font-size="10.00">Terminal</text>
</a>
</g>
</g>
<!-- Node1&#45;&gt;Node10 -->
<g id="edge9" class="edge"><title>Node1&#45;&gt;Node10</title>
<path fill="none" stroke="midnightblue" d="M762.905,-826.1C753.262,-827.564 742.951,-829.129 732.669,-830.69"/>
<polygon fill="midnightblue" stroke="midnightblue" points="763.712,-829.518 773.073,-824.556 762.661,-822.597 763.712,-829.518"/>
</g>
<!-- Node11 -->
<g id="node11" class="node"><title>Node11</title>
<g id="a_node11"><a xlink:href="classmachine_1_1_command.html#a54d57ec79cee3ac4683b86ee2dcddd49" target="_top" xlink:title="ノードの清書出力を返す。">
<polygon fill="white" stroke="black" points="576.957,-781.5 576.957,-809.5 730.794,-809.5 730.794,-781.5 576.957,-781.5"/>
<text text-anchor="start" x="584.957" y="-797.5" font-family="Helvetica,sans-Serif" font-size="10.00">machine.Command.getCustom</text>
<text text-anchor="middle" x="653.875" y="-787.5" font-family="Helvetica,sans-Serif" font-size="10.00">ObjectString</text>
</a>
</g>
</g>
<!-- Node1&#45;&gt;Node11 -->
<g id="edge10" class="edge"><title>Node1&#45;&gt;Node11</title>
<path fill="none" stroke="midnightblue" d="M763.083,-811.243C752.806,-809.748 741.764,-808.141 730.803,-806.546"/>
<polygon fill="midnightblue" stroke="midnightblue" points="762.674,-814.72 773.073,-812.696 763.681,-807.793 762.674,-814.72"/>
</g>
<!-- Node12 -->
<g id="node12" class="node"><title>Node12</title>
<g id="a_node12"><a xlink:href="classparse_1_1_ast_parser.html#ad027e677b1a3a4da0a241a3a0821a624" target="_top" xlink:title="Return an astree obtained from antlr4 parse tree.">
<polygon fill="white" stroke="black" points="583.344,-734.5 583.344,-762.5 724.407,-762.5 724.407,-734.5 583.344,-734.5"/>
<text text-anchor="start" x="591.344" y="-750.5" font-family="Helvetica,sans-Serif" font-size="10.00">parse.AstParser.parseAntlr4</text>
<text text-anchor="middle" x="653.875" y="-740.5" font-family="Helvetica,sans-Serif" font-size="10.00">ToAstree</text>
</a>
</g>
</g>
<!-- Node1&#45;&gt;Node12 -->
<g id="edge11" class="edge"><title>Node1&#45;&gt;Node12</title>
<path fill="none" stroke="midnightblue" d="M791.99,-803.708C777.21,-793.81 756.659,-781.075 737.176,-772.5 728.73,-768.783 719.548,-765.458 710.481,-762.554"/>
<polygon fill="midnightblue" stroke="midnightblue" points="790.153,-806.692 800.385,-809.441 794.101,-800.911 790.153,-806.692"/>
</g>
<!-- Node14 -->
<g id="node14" class="node"><title>Node14</title>
<g id="a_node14"><a xlink:href="classutil_1_1_auto_stack.html#a614f20f3cfc81c55ede27b7b7cb66de9" target="_top" xlink:title="スタックに空オブジェクトをプッシュする.">
<polygon fill="white" stroke="black" points="594.872,-687.5 594.872,-715.5 712.879,-715.5 712.879,-687.5 594.872,-687.5"/>
<text text-anchor="start" x="602.872" y="-703.5" font-family="Helvetica,sans-Serif" font-size="10.00">util.AutoStack&lt; frame</text>
<text text-anchor="middle" x="653.875" y="-693.5" font-family="Helvetica,sans-Serif" font-size="10.00">::IntegerHolder &gt;::push</text>
</a>
</g>
</g>
<!-- Node1&#45;&gt;Node14 -->
<g id="edge13" class="edge"><title>Node1&#45;&gt;Node14</title>
<path fill="none" stroke="midnightblue" d="M802.867,-800.392C790.204,-779.331 766.55,-744.972 737.176,-725.5 729.857,-720.648 721.54,-716.758 713.074,-713.644"/>
<polygon fill="midnightblue" stroke="midnightblue" points="799.985,-802.398 808.035,-809.286 806.037,-798.881 799.985,-802.398"/>
</g>
<!-- Node15 -->
<g id="node15" class="node"><title>Node15</title>
<g id="a_node15"><a xlink:href="classcompile_1_1_x_c_flat.html#a0b057c5d73f4c39bc08d0f2030062f7f" target="_top" xlink:title="与えられた抽象構文木（AST）を正規形の抽象構文木に変換する.">
<polygon fill="white" stroke="black" points="595.307,-650.5 595.307,-668.5 712.444,-668.5 712.444,-650.5 595.307,-650.5"/>
<text text-anchor="middle" x="653.875" y="-656.5" font-family="Helvetica,sans-Serif" font-size="10.00">compile.XCFlat.recFlat</text>
</a>
</g>
</g>
<!-- Node1&#45;&gt;Node15 -->
<g id="edge15" class="edge"><title>Node1&#45;&gt;Node15</title>
<path fill="none" stroke="midnightblue" d="M808.134,-799.438C799.38,-768.954 777.913,-709.516 737.176,-678.5 729.942,-672.992 721.385,-669.038 712.57,-666.208"/>
<polygon fill="midnightblue" stroke="midnightblue" points="804.8,-800.518 810.796,-809.253 811.556,-798.686 804.8,-800.518"/>
</g>
<!-- Node16 -->
<g id="node16" class="node"><title>Node16</title>
<g id="a_node16"><a xlink:href="classcompile_1_1_x_c_gen.html#ad3f537c1b2ff8f460564224a71770bf5" target="_top" xlink:title="コード生成を行う">
<polygon fill="white" stroke="black" points="593.075,-613.5 593.075,-631.5 714.676,-631.5 714.676,-613.5 593.075,-613.5"/>
<text text-anchor="middle" x="653.875" y="-619.5" font-family="Helvetica,sans-Serif" font-size="10.00">compile.XCGen.recGen</text>
</a>
</g>
</g>
<!-- Node1&#45;&gt;Node16 -->
<g id="edge16" class="edge"><title>Node1&#45;&gt;Node16</title>
<path fill="none" stroke="midnightblue" d="M810.534,-799.037C804.842,-762.108 787.123,-681.874 737.176,-640.5 730.643,-635.089 722.846,-631.205 714.692,-628.435"/>
<polygon fill="midnightblue" stroke="midnightblue" points="807.133,-799.983 811.985,-809.401 814.065,-799.012 807.133,-799.983"/>
</g>
<!-- Node20 -->
<g id="node20" class="node"><title>Node20</title>
<g id="a_node20"><a xlink:href="classcompile_1_1_x_c_typing.html#a598f0a342aa047ff9a49e7e82a306cc2" target="_top" xlink:title="与えられたノードの出力型が上限itemUpperを持つよう部分式を型付けする.">
<polygon fill="white" stroke="black" points="7.76855,-487.5 7.76855,-505.5 142.719,-505.5 142.719,-487.5 7.76855,-487.5"/>
<text text-anchor="middle" x="75.2437" y="-493.5" font-family="Helvetica,sans-Serif" font-size="10.00">compile.XCTyping.recType</text>
</a>
</g>
</g>
<!-- Node1&#45;&gt;Node20 -->
<g id="edge20" class="edge"><title>Node1&#45;&gt;Node20</title>
<path fill="none" stroke="midnightblue" d="M810.12,-799.205C801.669,-744.715 774.936,-591.607 737.176,-560.5 674.437,-508.817 453.879,-534.366 372.975,-526.5 293.868,-518.809 202.943,-509.555 142.814,-503.378"/>
<polygon fill="midnightblue" stroke="midnightblue" points="806.684,-799.893 811.643,-809.256 813.605,-798.844 806.684,-799.893"/>
</g>
<!-- Node21 -->
<g id="node21" class="node"><title>Node21</title>
<g id="a_node21"><a xlink:href="classutil_1_1_bufs.html#a8603b9b1f8954808d409f9bcda8fcda5" target="_top" xlink:title="リサイクラーオブジェクトを回収する。">
<polygon fill="white" stroke="black" points="410.763,-575.5 410.763,-593.5 496.787,-593.5 496.787,-575.5 410.763,-575.5"/>
<text text-anchor="middle" x="453.775" y="-581.5" font-family="Helvetica,sans-Serif" font-size="10.00">util.Bufs.recycle</text>
</a>
</g>
</g>
<!-- Node1&#45;&gt;Node21 -->
<g id="edge21" class="edge"><title>Node1&#45;&gt;Node21</title>
<path fill="none" stroke="midnightblue" d="M812.725,-799.085C811.026,-755.793 800.249,-651.402 737.176,-603.5 664.585,-548.37 548.917,-563.159 490.715,-575.486"/>
<polygon fill="midnightblue" stroke="midnightblue" points="809.228,-799.241 812.994,-809.144 816.225,-799.054 809.228,-799.241"/>
</g>
<!-- Node22 -->
<g id="node22" class="node"><title>Node22</title>
<g id="a_node22"><a xlink:href="classformat_1_1_node_formatter_1_1_node_formatter_base.html#ad2ed4947c266a995d1a0fb4b766bc824" target="_top" xlink:title="クエリの項表現の文字列（qsring）を返す.">
<polygon fill="white" stroke="black" points="583.625,-489.5 583.625,-517.5 724.126,-517.5 724.126,-489.5 583.625,-489.5"/>
<text text-anchor="start" x="591.625" y="-505.5" font-family="Helvetica,sans-Serif" font-size="10.00">format.NodeFormatter.Node</text>
<text text-anchor="middle" x="653.875" y="-495.5" font-family="Helvetica,sans-Serif" font-size="10.00">FormatterBase.toEmitString</text>
</a>
</g>
</g>
<!-- Node1&#45;&gt;Node22 -->
<g id="edge23" class="edge"><title>Node1&#45;&gt;Node22</title>
<path fill="none" stroke="midnightblue" d="M813.633,-799.24C814.313,-748.624 809.103,-610.404 737.176,-532.5 731.421,-526.267 724.245,-521.373 716.546,-517.531"/>
<polygon fill="midnightblue" stroke="midnightblue" points="810.13,-799.324 813.395,-809.403 817.128,-799.488 810.13,-799.324"/>
</g>
<!-- Node23 -->
<g id="node23" class="node"><title>Node23</title>
<g id="a_node23"><a xlink:href="classutil_1_1_bufs.html#a1527ff4e7fbe5000e2eab9f92f540d00" target="_top" xlink:title="リサイクラーオブジェクトを回収しつつ、その文字列表現を返す。">
<polygon fill="white" stroke="black" points="609.469,-275.5 609.469,-293.5 698.282,-293.5 698.282,-275.5 609.469,-275.5"/>
<text text-anchor="middle" x="653.875" y="-281.5" font-family="Helvetica,sans-Serif" font-size="10.00">util.Bufs.toString</text>
</a>
</g>
</g>
<!-- Node1&#45;&gt;Node23 -->
<g id="edge24" class="edge"><title>Node1&#45;&gt;Node23</title>
<path fill="none" stroke="midnightblue" d="M809.92,-799.306C801.373,-747.121 775.277,-598.582 737.176,-479.5 713.548,-405.654 672.96,-321.068 659.42,-293.612"/>
<polygon fill="midnightblue" stroke="midnightblue" points="806.507,-800.124 811.556,-809.438 813.417,-799.008 806.507,-800.124"/>
</g>
<!-- Node4&#45;&gt;Node5 -->
<g id="edge4" class="edge"><title>Node4&#45;&gt;Node5</title>
<path fill="none" stroke="midnightblue" d="M560.294,-1086.69C551.734,-1085.78 543.109,-1084.86 534.677,-1083.97"/>
<polygon fill="midnightblue" stroke="midnightblue" points="559.984,-1090.17 570.297,-1087.75 560.722,-1083.21 559.984,-1090.17"/>
</g>
<!-- Node13 -->
<g id="node13" class="node"><title>Node13</title>
<g id="a_node13"><a xlink:href="classparse_1_1_ast_parser.html#a59bf4ac30155658e6fd03aa2de837f11" target="_top" xlink:title="入力ストリームからクエリを読み，パーズした最終のASTreeを返す．">
<polygon fill="white" stroke="black" points="396.305,-739.5 396.305,-757.5 511.245,-757.5 511.245,-739.5 396.305,-739.5"/>
<text text-anchor="middle" x="453.775" y="-745.5" font-family="Helvetica,sans-Serif" font-size="10.00">parse.AstParser.parse</text>
</a>
</g>
</g>
<!-- Node12&#45;&gt;Node13 -->
<g id="edge12" class="edge"><title>Node12&#45;&gt;Node13</title>
<path fill="none" stroke="midnightblue" d="M573.259,-748.5C552.556,-748.5 530.673,-748.5 511.424,-748.5"/>
<polygon fill="midnightblue" stroke="midnightblue" points="573.311,-752 583.311,-748.5 573.311,-745 573.311,-752"/>
</g>
<!-- Node17 -->
<g id="node17" class="node"><title>Node17</title>
<g id="a_node17"><a xlink:href="classcompile_1_1_x_c_gen.html#a14c174fbf9bd2d321b11b0398ec76bb9" target="_top" xlink:title="Return節のコード生成を行う．">
<polygon fill="white" stroke="black" points="377.679,-613.5 377.679,-631.5 529.871,-631.5 529.871,-613.5 377.679,-613.5"/>
<text text-anchor="middle" x="453.775" y="-619.5" font-family="Helvetica,sans-Serif" font-size="10.00">compile.XCGen.generateCode</text>
</a>
</g>
</g>
<!-- Node16&#45;&gt;Node17 -->
<g id="edge17" class="edge"><title>Node16&#45;&gt;Node17</title>
<path fill="none" stroke="midnightblue" d="M582.484,-622.5C565.465,-622.5 547.21,-622.5 529.979,-622.5"/>
<polygon fill="midnightblue" stroke="midnightblue" points="582.901,-626 592.901,-622.5 582.901,-619 582.901,-626"/>
</g>
<!-- Node18 -->
<g id="node18" class="node"><title>Node18</title>
<g id="a_node18"><a xlink:href="classcompile_1_1_x_compiler.html#a9a5b5de067fc28642be5e1f787527c21" target="_top" xlink:title="入力ストリーム{is}から与えられたクエリをプログラムにコンパイルする.">
<polygon fill="white" stroke="black" points="193.428,-575.5 193.428,-593.5 330.034,-593.5 330.034,-575.5 193.428,-575.5"/>
<text text-anchor="middle" x="261.731" y="-581.5" font-family="Helvetica,sans-Serif" font-size="10.00">compile.XCompiler.compile</text>
</a>
</g>
</g>
<!-- Node17&#45;&gt;Node18 -->
<g id="edge18" class="edge"><title>Node17&#45;&gt;Node18</title>
<path fill="none" stroke="midnightblue" d="M397.895,-611.526C369.306,-605.81 334.777,-598.906 307.774,-593.507"/>
<polygon fill="midnightblue" stroke="midnightblue" points="397.245,-614.966 407.737,-613.495 398.618,-608.102 397.245,-614.966"/>
</g>
<!-- Node19 -->
<g id="node19" class="node"><title>Node19</title>
<g id="a_node19"><a xlink:href="classcompile_1_1_x_c_test.html#a8b260eecbaabcef8473fd87ada040682" target="_top" xlink:title="テスト用のサンプルプログラム。">
<polygon fill="white" stroke="black" points="20.2832,-575.5 20.2832,-593.5 130.204,-593.5 130.204,-575.5 20.2832,-575.5"/>
<text text-anchor="middle" x="75.2437" y="-581.5" font-family="Helvetica,sans-Serif" font-size="10.00">compile.XCTest.main</text>
</a>
</g>
</g>
<!-- Node18&#45;&gt;Node19 -->
<g id="edge19" class="edge"><title>Node18&#45;&gt;Node19</title>
<path fill="none" stroke="midnightblue" d="M183.035,-584.5C165.349,-584.5 146.932,-584.5 130.471,-584.5"/>
<polygon fill="midnightblue" stroke="midnightblue" points="183.344,-588 193.344,-584.5 183.344,-581 183.344,-588"/>
</g>
<!-- Node21&#45;&gt;Node18 -->
<g id="edge22" class="edge"><title>Node21&#45;&gt;Node18</title>
<path fill="none" stroke="midnightblue" d="M400.576,-584.5C378.833,-584.5 353.306,-584.5 330.168,-584.5"/>
<polygon fill="midnightblue" stroke="midnightblue" points="400.598,-588 410.598,-584.5 400.598,-581 400.598,-588"/>
</g>
<!-- Node24 -->
<g id="node24" class="node"><title>Node24</title>
<g id="a_node24"><a xlink:href="classtype_1_1_x_typing.html#a3137357d0abb2bd75321d6e19024956a" target="_top" xlink:title="演算子型の文字列表現を返す。">
<polygon fill="white" stroke="black" points="405.746,-294.5 405.746,-312.5 501.804,-312.5 501.804,-294.5 405.746,-294.5"/>
<text text-anchor="middle" x="453.775" y="-300.5" font-family="Helvetica,sans-Serif" font-size="10.00">type.XTyping.data</text>
</a>
</g>
</g>
<!-- Node23&#45;&gt;Node24 -->
<g id="edge25" class="edge"><title>Node23&#45;&gt;Node24</title>
<path fill="none" stroke="midnightblue" d="M599.393,-289.63C568.986,-292.546 531.253,-296.165 501.955,-298.975"/>
<polygon fill="midnightblue" stroke="midnightblue" points="599.781,-293.108 609.401,-288.67 599.113,-286.14 599.781,-293.108"/>
</g>
<!-- Node27 -->
<g id="node27" class="node"><title>Node27</title>
<g id="a_node27"><a xlink:href="classframe_1_1_frame_stack_uni.html#aa5c918f30e85de188af654e03d0f8474" target="_top" xlink:title="フレームポインタfpからフレームの文字列表現を返す">
<polygon fill="white" stroke="black" points="194.268,-187.5 194.268,-215.5 329.194,-215.5 329.194,-187.5 194.268,-187.5"/>
<text text-anchor="start" x="202.268" y="-203.5" font-family="Helvetica,sans-Serif" font-size="10.00">frame.FrameStackUni.fpTo</text>
<text text-anchor="middle" x="261.731" y="-193.5" font-family="Helvetica,sans-Serif" font-size="10.00">FrameString</text>
</a>
</g>
</g>
<!-- Node23&#45;&gt;Node27 -->
<g id="edge29" class="edge"><title>Node23&#45;&gt;Node27</title>
<path fill="none" stroke="midnightblue" d="M598.865,-280.858C541.928,-276.122 449.99,-265.913 372.975,-245.5 344.888,-238.056 314.297,-225.464 292.481,-215.653"/>
<polygon fill="midnightblue" stroke="midnightblue" points="598.829,-284.366 609.077,-281.68 599.39,-277.389 598.829,-284.366"/>
</g>
<!-- Node29 -->
<g id="node29" class="node"><title>Node29</title>
<g id="a_node29"><a xlink:href="classast_1_1_ast_list_1_1_list_wrapper.html#a54d57ec79cee3ac4683b86ee2dcddd49" target="_top" xlink:title="ノードの清書出力を返す。">
<polygon fill="white" stroke="black" points="386.39,-208.5 386.39,-236.5 521.16,-236.5 521.16,-208.5 386.39,-208.5"/>
<text text-anchor="start" x="394.39" y="-224.5" font-family="Helvetica,sans-Serif" font-size="10.00">ast.AstList.ListWrapper.get</text>
<text text-anchor="middle" x="453.775" y="-214.5" font-family="Helvetica,sans-Serif" font-size="10.00">CustomObjectString</text>
</a>
</g>
</g>
<!-- Node23&#45;&gt;Node29 -->
<g id="edge31" class="edge"><title>Node23&#45;&gt;Node29</title>
<path fill="none" stroke="midnightblue" d="M614.373,-272.45C581.54,-262.174 534.306,-247.391 499.742,-236.574"/>
<polygon fill="midnightblue" stroke="midnightblue" points="613.481,-275.838 624.07,-275.485 615.572,-269.158 613.481,-275.838"/>
</g>
<!-- Node30 -->
<g id="node30" class="node"><title>Node30</title>
<g id="a_node30"><a xlink:href="classutil_1_1_multi_words_option.html#ab3af84bcf0992ccc8fa7e7a21618dc65" target="_top" xlink:title="オプション引数の可変長文字列を受け取る．">
<polygon fill="white" stroke="black" points="390.008,-161.5 390.008,-189.5 517.542,-189.5 517.542,-161.5 390.008,-161.5"/>
<text text-anchor="start" x="398.008" y="-177.5" font-family="Helvetica,sans-Serif" font-size="10.00">util.MultiWordsOption.get</text>
<text text-anchor="middle" x="453.775" y="-167.5" font-family="Helvetica,sans-Serif" font-size="10.00">OptionValue</text>
</a>
</g>
</g>
<!-- Node23&#45;&gt;Node30 -->
<g id="edge32" class="edge"><title>Node23&#45;&gt;Node30</title>
<path fill="none" stroke="midnightblue" d="M635.365,-268.704C613.327,-249.584 573.616,-217.581 534.575,-198.5 527.71,-195.145 520.267,-192.193 512.779,-189.621"/>
<polygon fill="midnightblue" stroke="midnightblue" points="633.09,-271.365 642.908,-275.348 637.717,-266.112 633.09,-271.365"/>
</g>
<!-- Node31 -->
<g id="node31" class="node"><title>Node31</title>
<g id="a_node31"><a xlink:href="classframe_1_1_frame_stack_uni.html#ae2a2da39ffd392203076855edf5efeff" target="_top" xlink:title="レコードの清書文字列を返す。">
<polygon fill="white" stroke="black" points="381.59,-114.5 381.59,-142.5 525.959,-142.5 525.959,-114.5 381.59,-114.5"/>
<text text-anchor="start" x="389.59" y="-130.5" font-family="Helvetica,sans-Serif" font-size="10.00">frame.FrameStackUni.record</text>
<text text-anchor="middle" x="453.775" y="-120.5" font-family="Helvetica,sans-Serif" font-size="10.00">ToString</text>
</a>
</g>
</g>
<!-- Node23&#45;&gt;Node31 -->
<g id="edge33" class="edge"><title>Node23&#45;&gt;Node31</title>
<path fill="none" stroke="midnightblue" d="M642.079,-266.968C623.61,-238.452 583.201,-182.136 534.575,-151.5 529.086,-148.041 523.06,-145.088 516.857,-142.569"/>
<polygon fill="midnightblue" stroke="midnightblue" points="639.173,-268.921 647.481,-275.495 645.086,-265.175 639.173,-268.921"/>
</g>
<!-- Node32 -->
<g id="node32" class="node"><title>Node32</title>
<g id="a_node32"><a xlink:href="classframe_1_1_frame_stack_uni.html#abb6dc2b3a776fb3eec1367285a25d4ec" target="_top" xlink:title="文字列表現を返す. *‍/">
<polygon fill="white" stroke="black" points="186.487,-76.5 186.487,-104.5 336.975,-104.5 336.975,-76.5 186.487,-76.5"/>
<text text-anchor="start" x="194.487" y="-92.5" font-family="Helvetica,sans-Serif" font-size="10.00">frame.FrameStackUni.toString</text>
<text text-anchor="middle" x="261.731" y="-82.5" font-family="Helvetica,sans-Serif" font-size="10.00">Details</text>
</a>
</g>
</g>
<!-- Node23&#45;&gt;Node32 -->
<g id="edge44" class="edge"><title>Node23&#45;&gt;Node32</title>
<path fill="none" stroke="midnightblue" d="M646.842,-265.291C633.614,-226.818 598.064,-140.885 534.575,-104.5 474.713,-70.1927 394.712,-70.4636 337.014,-77.0306"/>
<polygon fill="midnightblue" stroke="midnightblue" points="643.655,-266.804 650.112,-275.204 650.303,-264.611 643.655,-266.804"/>
</g>
<!-- Node33 -->
<g id="node33" class="node"><title>Node33</title>
<g id="a_node33"><a xlink:href="classframe_1_1_frame_stack_uni.html#ad146fa8579a5f8a876c4688cc5a68520" target="_top" xlink:title="文字列表現を返す. *‍/">
<polygon fill="white" stroke="red" points="0,-60.5 0,-78.5 150.487,-78.5 150.487,-60.5 0,-60.5"/>
<text text-anchor="middle" x="75.2437" y="-66.5" font-family="Helvetica,sans-Serif" font-size="10.00">frame.FrameStackUni.toString</text>
</a>
</g>
</g>
<!-- Node23&#45;&gt;Node33 -->
<g id="edge42" class="edge"><title>Node23&#45;&gt;Node33</title>
<path fill="none" stroke="midnightblue" d="M649.026,-265.518C639.038,-221.862 607.797,-114.693 534.575,-70.5 472.07,-32.7755 263.682,-48.6188 150.663,-60.6182"/>
<polygon fill="midnightblue" stroke="midnightblue" points="645.626,-266.359 651.164,-275.392 652.468,-264.877 645.626,-266.359"/>
</g>
<!-- Node35 -->
<g id="node34" class="node"><title>Node35</title>
<g id="a_node34"><a xlink:href="classparse_1_1_ast_parser.html#afff1925b794dd2638467ee800fa549d7" target="_top" xlink:title="文字列からバックスラッシュ文字\\を除去した文字列を返す。">
<polygon fill="white" stroke="black" points="376.012,-0.5 376.012,-18.5 531.538,-18.5 531.538,-0.5 376.012,-0.5"/>
<text text-anchor="middle" x="453.775" y="-6.5" font-family="Helvetica,sans-Serif" font-size="10.00">parse.AstParser.sqeezeEscape</text>
</a>
</g>
</g>
<!-- Node23&#45;&gt;Node35 -->
<g id="edge37" class="edge"><title>Node23&#45;&gt;Node35</title>
<path fill="none" stroke="midnightblue" d="M649.324,-265.057C639.711,-218.049 608.746,-97.4137 534.575,-33.5 526.903,-26.8892 517.461,-22.0993 507.789,-18.6287"/>
<polygon fill="midnightblue" stroke="midnightblue" points="645.934,-265.961 651.278,-275.11 652.805,-264.625 645.934,-265.961"/>
</g>
<!-- Node36 -->
<g id="node35" class="node"><title>Node36</title>
<g id="a_node35"><a xlink:href="classframe_1_1_record.html#adfd137f94dd04ecdf855e58213973e1c" target="_top" xlink:title="レコードの内容を表す文字列を返す。">
<polygon fill="white" stroke="black" points="396.866,-499.5 396.866,-517.5 510.684,-517.5 510.684,-499.5 396.866,-499.5"/>
<text text-anchor="middle" x="453.775" y="-505.5" font-family="Helvetica,sans-Serif" font-size="10.00">frame.Record.toString</text>
</a>
</g>
</g>
<!-- Node23&#45;&gt;Node36 -->
<g id="edge38" class="edge"><title>Node23&#45;&gt;Node36</title>
<path fill="none" stroke="midnightblue" d="M647.601,-303.333C635.175,-344.081 600.062,-440.684 534.575,-489.5 527.61,-494.692 519.433,-498.488 511.018,-501.26"/>
<polygon fill="midnightblue" stroke="midnightblue" points="650.996,-304.194 650.453,-293.613 644.279,-302.223 650.996,-304.194"/>
</g>
<!-- Node37 -->
<g id="node36" class="node"><title>Node37</title>
<g id="a_node36"><a xlink:href="classmachine_1_1_o_v_machine.html#ad146fa8579a5f8a876c4688cc5a68520" target="_top" xlink:title="文字列表現を返す">
<polygon fill="white" stroke="black" points="380.743,-462.5 380.743,-480.5 526.807,-480.5 526.807,-462.5 380.743,-462.5"/>
<text text-anchor="middle" x="453.775" y="-468.5" font-family="Helvetica,sans-Serif" font-size="10.00">machine.OVMachine.toString</text>
</a>
</g>
</g>
<!-- Node23&#45;&gt;Node37 -->
<g id="edge39" class="edge"><title>Node23&#45;&gt;Node37</title>
<path fill="none" stroke="midnightblue" d="M645.271,-302.982C629.879,-337.981 591.581,-413.875 534.575,-452.5 528.444,-456.654 521.512,-459.904 514.356,-462.447"/>
<polygon fill="midnightblue" stroke="midnightblue" points="648.603,-304.091 649.308,-293.52 642.165,-301.344 648.603,-304.091"/>
</g>
<!-- Node38 -->
<g id="node37" class="node"><title>Node38</title>
<g id="a_node37"><a xlink:href="classutil_1_1_stack_base.html#a1ff4d6db5a609d810cedf042860ce447" target="_top" xlink:title="スタックの文字列表現を返す。">
<polygon fill="white" stroke="black" points="394.217,-415.5 394.217,-443.5 513.333,-443.5 513.333,-415.5 394.217,-415.5"/>
<text text-anchor="start" x="402.217" y="-431.5" font-family="Helvetica,sans-Serif" font-size="10.00">util.StackBase&lt; Integer</text>
<text text-anchor="middle" x="453.775" y="-421.5" font-family="Helvetica,sans-Serif" font-size="10.00"> &gt;::toString</text>
</a>
</g>
</g>
<!-- Node23&#45;&gt;Node38 -->
<g id="edge40" class="edge"><title>Node23&#45;&gt;Node38</title>
<path fill="none" stroke="midnightblue" d="M640.557,-301.835C621.027,-328.069 580.436,-377.734 534.575,-405.5 528.016,-409.471 520.752,-412.827 513.357,-415.651"/>
<polygon fill="midnightblue" stroke="midnightblue" points="643.494,-303.748 646.561,-293.607 637.839,-299.622 643.494,-303.748"/>
</g>
<!-- Node39 -->
<g id="node38" class="node"><title>Node39</title>
<g id="a_node38"><a xlink:href="classutil_1_1_stack_base_1_1_stat.html#ad146fa8579a5f8a876c4688cc5a68520" target="_top" xlink:title="文字列表現を返す。">
<polygon fill="white" stroke="black" points="385.189,-378.5 385.189,-396.5 522.361,-396.5 522.361,-378.5 385.189,-378.5"/>
<text text-anchor="middle" x="453.775" y="-384.5" font-family="Helvetica,sans-Serif" font-size="10.00">util.StackBase.Stat.toString</text>
</a>
</g>
</g>
<!-- Node23&#45;&gt;Node39 -->
<g id="edge41" class="edge"><title>Node23&#45;&gt;Node39</title>
<path fill="none" stroke="midnightblue" d="M635.147,-300.456C613.125,-319.439 573.665,-350.781 534.575,-368.5 525.625,-372.557 515.702,-375.807 505.982,-378.391"/>
<polygon fill="midnightblue" stroke="midnightblue" points="637.742,-302.836 642.953,-293.611 633.127,-297.573 637.742,-302.836"/>
</g>
<!-- Node40 -->
<g id="node39" class="node"><title>Node40</title>
<g id="a_node39"><a xlink:href="classutil_1_1_auto_stack.html#aed8f716239f4d48b8d22dc2a80c52263" target="_top" xlink:title="内部仕様のYamlBufの初期化器yamlInitializerと要素の清書器elemWriterをもつ清書出力文字列を返す実装手続き。">
<polygon fill="white" stroke="black" points="385.602,-331.5 385.602,-359.5 521.948,-359.5 521.948,-331.5 385.602,-331.5"/>
<text text-anchor="start" x="393.602" y="-347.5" font-family="Helvetica,sans-Serif" font-size="10.00">util.AutoStack&lt; frame</text>
<text text-anchor="middle" x="453.775" y="-337.5" font-family="Helvetica,sans-Serif" font-size="10.00">::IntegerHolder &gt;::toString_</text>
</a>
</g>
</g>
<!-- Node23&#45;&gt;Node40 -->
<g id="edge43" class="edge"><title>Node23&#45;&gt;Node40</title>
<path fill="none" stroke="midnightblue" d="M614.438,-296.639C591.313,-303.913 561.278,-313.309 534.575,-321.5 523.925,-324.767 512.462,-328.24 501.639,-331.499"/>
<polygon fill="midnightblue" stroke="midnightblue" points="615.73,-299.902 624.217,-293.56 613.627,-293.225 615.73,-299.902"/>
</g>
<!-- Node25 -->
<g id="node25" class="node"><title>Node25</title>
<g id="a_node25"><a xlink:href="classtype_1_1_x_typing.html#ad146fa8579a5f8a876c4688cc5a68520" target="_top" xlink:title="演算子型の文字列表現を返す。">
<polygon fill="white" stroke="black" points="206.202,-399.5 206.202,-417.5 317.26,-417.5 317.26,-399.5 206.202,-399.5"/>
<text text-anchor="middle" x="261.731" y="-405.5" font-family="Helvetica,sans-Serif" font-size="10.00">type.XTyping.toString</text>
</a>
</g>
</g>
<!-- Node24&#45;&gt;Node25 -->
<g id="edge26" class="edge"><title>Node24&#45;&gt;Node25</title>
<path fill="none" stroke="midnightblue" d="M395.713,-313.08C387.883,-315.335 380.095,-318.104 372.975,-321.5 330.281,-341.86 288.984,-381.324 271.485,-399.245"/>
<polygon fill="midnightblue" stroke="midnightblue" points="396.819,-316.408 405.606,-310.49 395.046,-309.636 396.819,-316.408"/>
</g>
<!-- Node25&#45;&gt;Node20 -->
<g id="edge28" class="edge"><title>Node25&#45;&gt;Node20</title>
<path fill="none" stroke="midnightblue" d="M232.192,-422.113C194.093,-440.286 127.653,-471.978 95.1885,-487.463"/>
<polygon fill="midnightblue" stroke="midnightblue" points="234.164,-425.05 241.682,-417.586 231.15,-418.732 234.164,-425.05"/>
</g>
<!-- Node26 -->
<g id="node26" class="node"><title>Node26</title>
<g id="a_node26"><a xlink:href="classast_1_1_ast_node.html#a00a28c4c9cc4dfcdb9c1179d4a991e66" target="_top" xlink:title="値型を表す文字列を返す。">
<polygon fill="white" stroke="black" points="7.76367,-399.5 7.76367,-417.5 142.724,-417.5 142.724,-399.5 7.76367,-399.5"/>
<text text-anchor="middle" x="75.2437" y="-405.5" font-family="Helvetica,sans-Serif" font-size="10.00">ast.AstNode.getTypeString</text>
</a>
</g>
</g>
<!-- Node25&#45;&gt;Node26 -->
<g id="edge27" class="edge"><title>Node25&#45;&gt;Node26</title>
<path fill="none" stroke="midnightblue" d="M195.471,-408.5C178.439,-408.5 160.062,-408.5 142.956,-408.5"/>
<polygon fill="midnightblue" stroke="midnightblue" points="195.878,-412 205.878,-408.5 195.878,-405 195.878,-412"/>
</g>
<!-- Node28 -->
<g id="node28" class="node"><title>Node28</title>
<g id="a_node28"><a xlink:href="classframe_1_1_frame_stack_uni.html#ae777bfd69907ad5d86b2beab89607a33" target="_top" xlink:title="番号fidをもつフレームの文字列表現を返す">
<polygon fill="white" stroke="black" points="6.66992,-187.5 6.66992,-215.5 143.817,-215.5 143.817,-187.5 6.66992,-187.5"/>
<text text-anchor="start" x="14.6699" y="-203.5" font-family="Helvetica,sans-Serif" font-size="10.00">frame.FrameStackUni.fidTo</text>
<text text-anchor="middle" x="75.2437" y="-193.5" font-family="Helvetica,sans-Serif" font-size="10.00">FrameString</text>
</a>
</g>
</g>
<!-- Node27&#45;&gt;Node28 -->
<g id="edge30" class="edge"><title>Node27&#45;&gt;Node28</title>
<path fill="none" stroke="midnightblue" d="M184.065,-201.5C170.768,-201.5 157.028,-201.5 143.99,-201.5"/>
<polygon fill="midnightblue" stroke="midnightblue" points="184.127,-205 194.127,-201.5 184.127,-198 184.127,-205"/>
</g>
<!-- Node31&#45;&gt;Node27 -->
<g id="edge34" class="edge"><title>Node31&#45;&gt;Node27</title>
<path fill="none" stroke="midnightblue" d="M390.196,-145.592C384.338,-147.475 378.521,-149.455 372.975,-151.5 344.383,-162.041 312.812,-176.682 290.81,-187.396"/>
<polygon fill="midnightblue" stroke="midnightblue" points="391.548,-148.837 400.054,-142.52 389.465,-142.154 391.548,-148.837"/>
</g>
<!-- Node31&#45;&gt;Node32 -->
<g id="edge35" class="edge"><title>Node31&#45;&gt;Node32</title>
<path fill="none" stroke="midnightblue" d="M372.581,-112.465C359.424,-109.834 345.877,-107.125 332.985,-104.548"/>
<polygon fill="midnightblue" stroke="midnightblue" points="372.057,-115.929 382.549,-114.458 373.43,-109.065 372.057,-115.929"/>
</g>
<!-- Node32&#45;&gt;Node33 -->
<g id="edge36" class="edge"><title>Node32&#45;&gt;Node33</title>
<path fill="none" stroke="midnightblue" d="M176.276,-80.8866C167.751,-79.9162 159.137,-78.9357 150.728,-77.9785"/>
<polygon fill="midnightblue" stroke="midnightblue" points="175.893,-84.3655 186.225,-82.019 176.685,-77.4104 175.893,-84.3655"/>
</g>
</g>
</svg>
