<?xml version="1.0" encoding="UTF-8" standalone="no"?>
<!DOCTYPE svg PUBLIC "-//W3C//DTD SVG 1.1//EN"
 "http://www.w3.org/Graphics/SVG/1.1/DTD/svg11.dtd">
<!-- Generated by graphviz version 2.47.0 (20210316.0004)
 -->
<!-- Title: queryParser.TagExprContext Pages: 1 -->
<svg width="239pt" height="162pt"
 viewBox="0.00 0.00 239.00 162.00" xmlns="http://www.w3.org/2000/svg" xmlns:xlink="http://www.w3.org/1999/xlink">
<g id="graph0" class="graph" transform="scale(1 1) rotate(0) translate(4 158)">
<title>queryParser.TagExprContext</title>
<polygon fill="white" stroke="transparent" points="-4,4 -4,-158 235,-158 235,4 -4,4"/>
<!-- Node1 -->
<g id="node1" class="node">
<title>Node1</title>
<g id="a_node1"><a xlink:title=" ">
<polygon fill="#bfbfbf" stroke="black" points="0,-0.5 0,-19.5 142,-19.5 142,-0.5 0,-0.5"/>
<text text-anchor="middle" x="71" y="-7.5" font-family="Helvetica,sans-Serif" font-size="10.00">queryParser.TagExprContext</text>
</a>
</g>
</g>
<!-- Node1&#45;&gt;Node1 -->
<g id="edge5" class="edge">
<title>Node1&#45;&gt;Node1</title>
<path fill="none" stroke="#9a32cd" stroke-dasharray="5,2" d="M152.15,-14.15C157.06,-13.17 160,-11.78 160,-10 160,-7.22 152.83,-5.4 142.23,-4.56"/>
<polygon fill="#9a32cd" stroke="#9a32cd" points="151.69,-10.69 142.23,-15.44 152.59,-17.63 151.69,-10.69"/>
<text text-anchor="middle" x="167" y="-7.5" font-family="Helvetica,sans-Serif" font-size="10.00"> a1</text>
</g>
<!-- Node2 -->
<g id="node2" class="node">
<title>Node2</title>
<g id="a_node2"><a xlink:title=" ">
<polygon fill="white" stroke="#bfbfbf" points="11,-134.5 11,-153.5 111,-153.5 111,-134.5 11,-134.5"/>
<text text-anchor="middle" x="61" y="-141.5" font-family="Helvetica,sans-Serif" font-size="10.00">ParserRuleContext</text>
</a>
</g>
</g>
<!-- Node2&#45;&gt;Node1 -->
<g id="edge1" class="edge">
<title>Node2&#45;&gt;Node1</title>
<path fill="none" stroke="midnightblue" d="M62.42,-124.28C64.62,-95.25 68.76,-40.54 70.35,-19.52"/>
<polygon fill="midnightblue" stroke="midnightblue" points="58.92,-124.1 61.66,-134.34 65.9,-124.63 58.92,-124.1"/>
</g>
<!-- Node3 -->
<g id="node3" class="node">
<title>Node3</title>
<g id="a_node3"><a xlink:href="classparse_1_1query_parser_1_1_tag_name_context.html" target="_top" xlink:title=" ">
<polygon fill="white" stroke="black" points="83,-67.5 83,-86.5 231,-86.5 231,-67.5 83,-67.5"/>
<text text-anchor="middle" x="157" y="-74.5" font-family="Helvetica,sans-Serif" font-size="10.00">queryParser.TagNameContext</text>
</a>
</g>
</g>
<!-- Node2&#45;&gt;Node3 -->
<g id="edge3" class="edge">
<title>Node2&#45;&gt;Node3</title>
<path fill="none" stroke="midnightblue" d="M82.28,-128.59C101.27,-115.74 128.45,-97.33 144.26,-86.63"/>
<polygon fill="midnightblue" stroke="midnightblue" points="80.27,-125.73 73.95,-134.23 84.19,-131.53 80.27,-125.73"/>
</g>
<!-- Node3&#45;&gt;Node1 -->
<g id="edge2" class="edge">
<title>Node3&#45;&gt;Node1</title>
<path fill="none" stroke="#9a32cd" stroke-dasharray="5,2" d="M137.24,-61.07C120.27,-48.24 96.38,-30.19 82.41,-19.63"/>
<polygon fill="#9a32cd" stroke="#9a32cd" points="135.31,-64 145.4,-67.23 139.53,-58.41 135.31,-64"/>
<text text-anchor="middle" x="126" y="-41" font-family="Helvetica,sans-Serif" font-size="10.00"> t0</text>
</g>
<!-- Node4 -->
<g id="node4" class="node">
<title>Node4</title>
<g id="a_node4"><a xlink:title=" ">
<polygon fill="white" stroke="#bfbfbf" points="135.5,-134.5 135.5,-153.5 178.5,-153.5 178.5,-134.5 135.5,-134.5"/>
<text text-anchor="middle" x="157" y="-141.5" font-family="Helvetica,sans-Serif" font-size="10.00">Token</text>
</a>
</g>
</g>
<!-- Node4&#45;&gt;Node3 -->
<g id="edge4" class="edge">
<title>Node4&#45;&gt;Node3</title>
<path fill="none" stroke="#9a32cd" stroke-dasharray="5,2" d="M157,-124.04C157,-111.67 157,-96.12 157,-86.63"/>
<polygon fill="#9a32cd" stroke="#9a32cd" points="153.5,-124.23 157,-134.23 160.5,-124.23 153.5,-124.23"/>
<text text-anchor="middle" x="163" y="-108" font-family="Helvetica,sans-Serif" font-size="10.00"> t0</text>
</g>
</g>
</svg>
