<?xml version="1.0" encoding="UTF-8" standalone="no"?>
<!DOCTYPE svg PUBLIC "-//W3C//DTD SVG 1.1//EN"
 "http://www.w3.org/Graphics/SVG/1.1/DTD/svg11.dtd">
<!-- Generated by graphviz version 2.47.0 (20210316.0004)
 -->
<!-- Title: YamlBuf Pages: 1 -->
<!--zoomable 542 -->
<svg id="main" version="1.1" xmlns="http://www.w3.org/2000/svg" xmlns:xlink="http://www.w3.org/1999/xlink" xml:space="preserve" onload="init(evt)">
<style type="text/css"><![CDATA[
.edge:hover path { stroke: red; }
.edge:hover polygon { stroke: red; fill: red; }
]]></style>
<script type="text/javascript"><![CDATA[
var edges = document.getElementsByTagName('g');
if (edges && edges.length) {
  for (var i=0;i<edges.length;i++) {
    if (edges[i].id.substr(0,4)=='edge') {
      edges[i].setAttribute('class','edge');
    }
  }
}
]]></script>
        <defs>
                <circle id="rim" cx="0" cy="0" r="7"/>
                <circle id="rim2" cx="0" cy="0" r="3.5"/>
                <g id="zoomPlus">
                        <use xlink:href="#rim" fill="#404040">
                                <set attributeName="fill" to="#808080" begin="zoomplus.mouseover" end="zoomplus.mouseout"/>
                        </use>
                        <path d="M-4,0h8M0,-4v8" fill="none" stroke="white" stroke-width="1.5" pointer-events="none"/>
                </g>
                <g id="zoomMin">
                        <use xlink:href="#rim" fill="#404040">
                                <set attributeName="fill" to="#808080" begin="zoomminus.mouseover" end="zoomminus.mouseout"/>
                        </use>
                        <path d="M-4,0h8" fill="none" stroke="white" stroke-width="1.5" pointer-events="none"/>
                </g>
                <g id="dirArrow">
                        <path fill="none" stroke="white" stroke-width="1.5" d="M0,-3.0v7 M-2.5,-0.5L0,-3.0L2.5,-0.5"/>
                </g>
               <g id="resetDef">
                       <use xlink:href="#rim2" fill="#404040">
                               <set attributeName="fill" to="#808080" begin="reset.mouseover" end="reset.mouseout"/>
                       </use>
               </g>
        </defs>

<script type="text/javascript">
var viewWidth = 966;
var viewHeight = 542;
var sectionId = 'dynsection-0';
</script>
<script xlink:href="svgpan.js"/>
<svg id="graph" class="graph">
<g id="viewport">
<title>YamlBuf</title>
<polygon fill="white" stroke="transparent" points="-4,4 -4,-538 961.5,-538 961.5,4 -4,4"/>
<!-- Node1 -->
<g id="node1" class="node">
<title>Node1</title>
<g id="a_node1"><a xlink:title="YAML書式での出力を行うクラス.">
<polygon fill="#bfbfbf" stroke="black" points="601.5,-0.5 601.5,-19.5 654.5,-19.5 654.5,-0.5 601.5,-0.5"/>
<text text-anchor="middle" x="628" y="-7.5" font-family="Helvetica,sans-Serif" font-size="10.00">YamlBuf</text>
</a>
</g>
</g>
<!-- Node2 -->
<g id="node2" class="node">
<title>Node2</title>
<g id="a_node2"><a xlink:title=" ">
<polygon fill="white" stroke="#bfbfbf" points="284,-509 284,-528 326,-528 326,-509 284,-509"/>
<text text-anchor="middle" x="305" y="-516" font-family="Helvetica,sans-Serif" font-size="10.00">String</text>
</a>
</g>
</g>
<!-- Node2&#45;&gt;Node1 -->
<g id="edge1" class="edge">
<title>Node2&#45;&gt;Node1</title>
<path fill="none" stroke="#9a32cd" stroke-dasharray="5,2" d="M273.35,-518.43C195.32,-518.93 0,-508.44 0,-391 0,-391 0,-391 0,-87 0,-25.43 481.89,-13.41 601.42,-11.38"/>
<polygon fill="#9a32cd" stroke="#9a32cd" points="273.6,-521.93 283.55,-518.3 273.51,-514.93 273.6,-521.93"/>
<text text-anchor="middle" x="41" y="-258" font-family="Helvetica,sans-Serif" font-size="10.00"> COLON</text>
<text text-anchor="middle" x="41" y="-247" font-family="Helvetica,sans-Serif" font-size="10.00">COMMA</text>
<text text-anchor="middle" x="41" y="-236" font-family="Helvetica,sans-Serif" font-size="10.00">DOUBLE_QUOTE</text>
<text text-anchor="middle" x="41" y="-225" font-family="Helvetica,sans-Serif" font-size="10.00">EMPTY_STR</text>
<text text-anchor="middle" x="41" y="-214" font-family="Helvetica,sans-Serif" font-size="10.00">FIELD_DELIM</text>
<text text-anchor="middle" x="41" y="-203" font-family="Helvetica,sans-Serif" font-size="10.00">LBRACE</text>
<text text-anchor="middle" x="41" y="-192" font-family="Helvetica,sans-Serif" font-size="10.00">LBRACKET</text>
<text text-anchor="middle" x="41" y="-181" font-family="Helvetica,sans-Serif" font-size="10.00">OBJ_DELIM</text>
<text text-anchor="middle" x="41" y="-170" font-family="Helvetica,sans-Serif" font-size="10.00">QS</text>
<text text-anchor="middle" x="41" y="-159" font-family="Helvetica,sans-Serif" font-size="10.00">RBRACE</text>
<text text-anchor="middle" x="41" y="-148" font-family="Helvetica,sans-Serif" font-size="10.00">...</text>
</g>
<!-- Node3 -->
<g id="node3" class="node">
<title>Node3</title>
<g id="a_node3"><a xlink:href="classutil_1_1_foldable_string_buf.html" target="_top" xlink:title="入れ子深さに応じた段下げ表示を行うよう拡張された文字列バッファのクラス.">
<polygon fill="white" stroke="black" points="392,-78.5 392,-97.5 486,-97.5 486,-78.5 392,-78.5"/>
<text text-anchor="middle" x="439" y="-85.5" font-family="Helvetica,sans-Serif" font-size="10.00">FoldableStringBuf</text>
</a>
</g>
</g>
<!-- Node2&#45;&gt;Node3 -->
<g id="edge11" class="edge">
<title>Node2&#45;&gt;Node3</title>
<path fill="none" stroke="#9a32cd" stroke-dasharray="5,2" d="M298.98,-498.92C286.92,-458.54 263.05,-360.3 289,-284 317.74,-199.49 399.53,-123 428.6,-97.76"/>
<polygon fill="#9a32cd" stroke="#9a32cd" points="295.71,-500.19 302.02,-508.71 302.4,-498.12 295.71,-500.19"/>
<text text-anchor="middle" x="346.5" y="-342" font-family="Helvetica,sans-Serif" font-size="10.00"> DEFAULT_EMPTY_STR</text>
<text text-anchor="middle" x="346.5" y="-331" font-family="Helvetica,sans-Serif" font-size="10.00">DEFAULT_INDENT_STR</text>
<text text-anchor="middle" x="346.5" y="-320" font-family="Helvetica,sans-Serif" font-size="10.00">EMPTY_STR</text>
<text text-anchor="middle" x="346.5" y="-309" font-family="Helvetica,sans-Serif" font-size="10.00">INDENT_STR</text>
<text text-anchor="middle" x="346.5" y="-298" font-family="Helvetica,sans-Serif" font-size="10.00">SPACE_STR</text>
<text text-anchor="middle" x="346.5" y="-287" font-family="Helvetica,sans-Serif" font-size="10.00">tag</text>
</g>
<!-- Node4 -->
<g id="node4" class="node">
<title>Node4</title>
<g id="a_node4"><a xlink:href="classutil_1_1_string_buf.html" target="_top" xlink:title="文字列バッファのクラス.">
<polygon fill="white" stroke="black" points="410.5,-196 410.5,-215 467.5,-215 467.5,-196 410.5,-196"/>
<text text-anchor="middle" x="439" y="-203" font-family="Helvetica,sans-Serif" font-size="10.00">StringBuf</text>
</a>
</g>
</g>
<!-- Node2&#45;&gt;Node4 -->
<g id="edge4" class="edge">
<title>Node2&#45;&gt;Node4</title>
<path fill="none" stroke="#9a32cd" stroke-dasharray="5,2" d="M304.79,-498.61C305.5,-467.13 311.58,-403.89 347,-368 366.86,-347.88 388.77,-370.72 408,-350 426.56,-330.01 435.75,-243.17 438.27,-215.21"/>
<polygon fill="#9a32cd" stroke="#9a32cd" points="301.29,-498.64 304.73,-508.66 308.29,-498.68 301.29,-498.64"/>
<text text-anchor="middle" x="370.5" y="-393" font-family="Helvetica,sans-Serif" font-size="10.00"> NL_STR</text>
<text text-anchor="middle" x="370.5" y="-382" font-family="Helvetica,sans-Serif" font-size="10.00">SPC_STR</text>
</g>
<!-- Node5 -->
<g id="node5" class="node">
<title>Node5</title>
<g id="a_node5"><a xlink:href="classutil_1_1_trace_level.html" target="_top" xlink:title="ログ出力用のトレースレベルを扱うクラス。">
<polygon fill="white" stroke="black" points="403.5,-380.5 403.5,-399.5 468.5,-399.5 468.5,-380.5 403.5,-380.5"/>
<text text-anchor="middle" x="436" y="-387.5" font-family="Helvetica,sans-Serif" font-size="10.00">TraceLevel</text>
</a>
</g>
</g>
<!-- Node2&#45;&gt;Node5 -->
<g id="edge6" class="edge">
<title>Node2&#45;&gt;Node5</title>
<path fill="none" stroke="#9a32cd" stroke-dasharray="5,2" d="M318.19,-500.79C321.68,-495.88 325.24,-490.38 328,-485 339.81,-461.99 329.39,-448.94 347,-430 360.83,-415.13 370.4,-420.14 389,-412 398.17,-407.99 408.31,-403.47 416.82,-399.65"/>
<polygon fill="#9a32cd" stroke="#9a32cd" points="315.36,-498.73 312.17,-508.83 320.96,-502.92 315.36,-498.73"/>
<text text-anchor="middle" x="396.5" y="-477" font-family="Helvetica,sans-Serif" font-size="10.00"> DELIM_LEVELS</text>
<text text-anchor="middle" x="396.5" y="-466" font-family="Helvetica,sans-Serif" font-size="10.00">DELIM_NAMES</text>
<text text-anchor="middle" x="396.5" y="-455" font-family="Helvetica,sans-Serif" font-size="10.00">MOD_DEFAULT</text>
<text text-anchor="middle" x="396.5" y="-444" font-family="Helvetica,sans-Serif" font-size="10.00">OUT_DELIM_NAMES</text>
<text text-anchor="middle" x="396.5" y="-433" font-family="Helvetica,sans-Serif" font-size="10.00">USAGE_STR</text>
</g>
<!-- Node3&#45;&gt;Node1 -->
<g id="edge2" class="edge">
<title>Node3&#45;&gt;Node1</title>
<path fill="none" stroke="#9a32cd" stroke-dasharray="5,2" d="M469.98,-74.54C508.55,-59.03 573.4,-32.95 606.76,-19.54"/>
<polygon fill="#9a32cd" stroke="#9a32cd" points="468.29,-71.45 460.31,-78.43 470.9,-77.95 468.29,-71.45"/>
<text text-anchor="middle" x="569.5" y="-52" font-family="Helvetica,sans-Serif" font-size="10.00"> buf</text>
<text text-anchor="middle" x="569.5" y="-41" font-family="Helvetica,sans-Serif" font-size="10.00">objbuf</text>
</g>
<!-- Node4&#45;&gt;Node3 -->
<g id="edge3" class="edge">
<title>Node4&#45;&gt;Node3</title>
<path fill="none" stroke="midnightblue" d="M439,-185.66C439,-160.37 439,-116.44 439,-97.78"/>
<polygon fill="midnightblue" stroke="midnightblue" points="435.5,-185.82 439,-195.82 442.5,-185.82 435.5,-185.82"/>
</g>
<!-- Node5&#45;&gt;Node4 -->
<g id="edge5" class="edge">
<title>Node5&#45;&gt;Node4</title>
<path fill="none" stroke="#9a32cd" stroke-dasharray="5,2" d="M436.32,-369.72C436.96,-330.56 438.4,-243.09 438.86,-215.21"/>
<polygon fill="#9a32cd" stroke="#9a32cd" points="432.81,-370.14 436.14,-380.2 439.81,-370.26 432.81,-370.14"/>
<text text-anchor="middle" x="450" y="-314.5" font-family="Helvetica,sans-Serif" font-size="10.00"> LOG</text>
</g>
<!-- Node6 -->
<g id="node6" class="node">
<title>Node6</title>
<g id="a_node6"><a xlink:title=" ">
<polygon fill="white" stroke="#bfbfbf" points="400.5,-503.5 400.5,-533.5 543.5,-533.5 543.5,-503.5 400.5,-503.5"/>
<text text-anchor="start" x="408.5" y="-521.5" font-family="Helvetica,sans-Serif" font-size="10.00">Map&lt; String, util.TraceLevel.</text>
<text text-anchor="middle" x="472" y="-510.5" font-family="Helvetica,sans-Serif" font-size="10.00">Level &gt;</text>
</a>
</g>
</g>
<!-- Node6&#45;&gt;Node5 -->
<g id="edge7" class="edge">
<title>Node6&#45;&gt;Node5</title>
<path fill="none" stroke="#9a32cd" stroke-dasharray="5,2" d="M466.62,-493.41C462.5,-475.74 456.46,-451.22 450,-430 446.77,-419.4 442.36,-407.44 439.36,-399.59"/>
<polygon fill="#9a32cd" stroke="#9a32cd" points="463.27,-494.48 468.91,-503.44 470.09,-492.91 463.27,-494.48"/>
<text text-anchor="middle" x="488" y="-455" font-family="Helvetica,sans-Serif" font-size="10.00"> mapLevel</text>
</g>
<!-- Node7 -->
<g id="node7" class="node">
<title>Node7</title>
<g id="a_node7"><a xlink:title=" ">
<polygon fill="white" stroke="#bfbfbf" points="613,-509 613,-528 663,-528 663,-509 613,-509"/>
<text text-anchor="middle" x="638" y="-516" font-family="Helvetica,sans-Serif" font-size="10.00">boolean</text>
</a>
</g>
</g>
<!-- Node7&#45;&gt;Node1 -->
<g id="edge18" class="edge">
<title>Node7&#45;&gt;Node1</title>
<path fill="none" stroke="#9a32cd" stroke-dasharray="5,2" d="M654.34,-501.44C658.64,-496.5 662.93,-490.82 666,-485 686.18,-446.77 691,-434.23 691,-391 691,-391 691,-391 691,-87 691,-56.67 660.88,-31.95 642.3,-19.58"/>
<polygon fill="#9a32cd" stroke="#9a32cd" points="651.59,-499.25 647.31,-508.94 656.7,-504.04 651.59,-499.25"/>
<text text-anchor="middle" x="717" y="-219.5" font-family="Helvetica,sans-Serif" font-size="10.00"> toCompact</text>
<text text-anchor="middle" x="717" y="-208.5" font-family="Helvetica,sans-Serif" font-size="10.00">toFold</text>
<text text-anchor="middle" x="717" y="-197.5" font-family="Helvetica,sans-Serif" font-size="10.00">toIndex</text>
<text text-anchor="middle" x="717" y="-186.5" font-family="Helvetica,sans-Serif" font-size="10.00">toQuote</text>
</g>
<!-- Node7&#45;&gt;Node3 -->
<g id="edge14" class="edge">
<title>Node7&#45;&gt;Node3</title>
<path fill="none" stroke="#9a32cd" stroke-dasharray="5,2" d="M644.23,-499.11C653.25,-468.87 666.09,-408.01 639,-368 626.92,-350.16 610.27,-364.11 594,-350 514.59,-281.12 531.22,-234.45 476,-145 465.47,-127.95 452.39,-108.53 444.94,-97.62"/>
<polygon fill="#9a32cd" stroke="#9a32cd" points="640.86,-498.18 641.16,-508.78 647.53,-500.3 640.86,-498.18"/>
<text text-anchor="middle" x="635.5" y="-342" font-family="Helvetica,sans-Serif" font-size="10.00"> DEBUG_INDENT</text>
<text text-anchor="middle" x="635.5" y="-331" font-family="Helvetica,sans-Serif" font-size="10.00">DEBUG_STEM</text>
<text text-anchor="middle" x="635.5" y="-320" font-family="Helvetica,sans-Serif" font-size="10.00">IS_EMPTY_LINE</text>
<text text-anchor="middle" x="635.5" y="-309" font-family="Helvetica,sans-Serif" font-size="10.00">IS_SPC_STATE</text>
<text text-anchor="middle" x="635.5" y="-298" font-family="Helvetica,sans-Serif" font-size="10.00">toFold</text>
<text text-anchor="middle" x="635.5" y="-287" font-family="Helvetica,sans-Serif" font-size="10.00">toPrintDepth</text>
</g>
<!-- Node7&#45;&gt;Node4 -->
<g id="edge10" class="edge">
<title>Node7&#45;&gt;Node4</title>
<path fill="none" stroke="#9a32cd" stroke-dasharray="5,2" d="M637.33,-498.69C635.57,-478.65 629.6,-447.47 610,-430 579.23,-402.56 550.6,-438.48 519,-412 510.78,-405.12 455.7,-252.94 442.05,-215.01"/>
<polygon fill="#9a32cd" stroke="#9a32cd" points="633.85,-498.99 637.95,-508.76 640.83,-498.57 633.85,-498.99"/>
<text text-anchor="middle" x="579" y="-404" font-family="Helvetica,sans-Serif" font-size="10.00"> DEBUG_POP</text>
<text text-anchor="middle" x="579" y="-393" font-family="Helvetica,sans-Serif" font-size="10.00">DEBUG_STRBUF</text>
<text text-anchor="middle" x="579" y="-382" font-family="Helvetica,sans-Serif" font-size="10.00">DEBUG_THROUGH_ERR</text>
<text text-anchor="middle" x="579" y="-371" font-family="Helvetica,sans-Serif" font-size="10.00">TRACE</text>
</g>
<!-- Node7&#45;&gt;Node5 -->
<g id="edge8" class="edge">
<title>Node7&#45;&gt;Node5</title>
<path fill="none" stroke="#9a32cd" stroke-dasharray="5,2" d="M602.97,-512.45C583.15,-508.06 559,-499.93 542,-485 521.54,-467.04 534.23,-449.28 515,-430 510.38,-425.37 476.68,-409.53 454.82,-399.51"/>
<polygon fill="#9a32cd" stroke="#9a32cd" points="602.38,-515.91 612.88,-514.43 603.75,-509.04 602.38,-515.91"/>
<text text-anchor="middle" x="576" y="-455" font-family="Helvetica,sans-Serif" font-size="10.00"> DEBUG_MOD</text>
</g>
<!-- Node8 -->
<g id="node8" class="node">
<title>Node8</title>
<g id="a_node8"><a xlink:title=" ">
<polygon fill="white" stroke="#bfbfbf" points="67.5,-380.5 67.5,-399.5 96.5,-399.5 96.5,-380.5 67.5,-380.5"/>
<text text-anchor="middle" x="82" y="-387.5" font-family="Helvetica,sans-Serif" font-size="10.00">int</text>
</a>
</g>
</g>
<!-- Node8&#45;&gt;Node1 -->
<g id="edge16" class="edge">
<title>Node8&#45;&gt;Node1</title>
<path fill="none" stroke="#9a32cd" stroke-dasharray="5,2" d="M81.38,-370.09C80.84,-326.93 84.4,-219.16 129,-145 139.59,-127.39 146.51,-124.95 165,-116 319.12,-41.39 528.02,-18.72 601.28,-12.83"/>
<polygon fill="#9a32cd" stroke="#9a32cd" points="77.89,-370.34 81.61,-380.26 84.89,-370.18 77.89,-370.34"/>
<text text-anchor="middle" x="204" y="-119" font-family="Helvetica,sans-Serif" font-size="10.00"> INIT_CAPACITY</text>
</g>
<!-- Node8&#45;&gt;Node4 -->
<g id="edge9" class="edge">
<title>Node8&#45;&gt;Node4</title>
<path fill="none" stroke="#9a32cd" stroke-dasharray="5,2" d="M97.78,-373.51C100.39,-371.46 103.17,-369.54 106,-368 131.58,-354.08 147.83,-370 169,-350 191.58,-328.67 168.79,-304.65 192,-284 219.55,-259.49 237.57,-276.24 273,-266 325.94,-250.7 386.5,-227.5 417.79,-215.07"/>
<polygon fill="#9a32cd" stroke="#9a32cd" points="95.38,-370.97 90.18,-380.21 100,-376.23 95.38,-370.97"/>
<text text-anchor="middle" x="231" y="-314.5" font-family="Helvetica,sans-Serif" font-size="10.00"> INIT_CAPACITY</text>
</g>
<!-- Node9 -->
<g id="node9" class="node">
<title>Node9</title>
<g id="a_node9"><a xlink:href="classutil_1_1_foldable_string_buf_1_1_sibling_stack.html" target="_top" xlink:title=" ">
<polygon fill="white" stroke="black" points="138,-190.5 138,-220.5 264,-220.5 264,-190.5 138,-190.5"/>
<text text-anchor="start" x="146" y="-208.5" font-family="Helvetica,sans-Serif" font-size="10.00">FoldableStringBuf.Sibling</text>
<text text-anchor="middle" x="201" y="-197.5" font-family="Helvetica,sans-Serif" font-size="10.00">Stack</text>
</a>
</g>
</g>
<!-- Node9&#45;&gt;Node3 -->
<g id="edge12" class="edge">
<title>Node9&#45;&gt;Node3</title>
<path fill="none" stroke="#9a32cd" stroke-dasharray="5,2" d="M210.08,-181.09C219.38,-160.44 235.89,-131.32 260,-116 281.28,-102.47 346.24,-95.29 391.74,-91.82"/>
<polygon fill="#9a32cd" stroke="#9a32cd" points="206.79,-179.87 206.1,-190.45 213.23,-182.62 206.79,-179.87"/>
<text text-anchor="middle" x="269" y="-119" font-family="Helvetica,sans-Serif" font-size="10.00"> HS</text>
</g>
<!-- Node10 -->
<g id="node10" class="node">
<title>Node10</title>
<g id="a_node10"><a xlink:href="classutil_1_1_stack_base.html" target="_top" xlink:title=" ">
<polygon fill="white" stroke="black" points="115,-380.5 115,-399.5 233,-399.5 233,-380.5 115,-380.5"/>
<text text-anchor="middle" x="174" y="-387.5" font-family="Helvetica,sans-Serif" font-size="10.00">StackBase&lt; Boolean &gt;</text>
</a>
</g>
</g>
<!-- Node10&#45;&gt;Node9 -->
<g id="edge13" class="edge">
<title>Node10&#45;&gt;Node9</title>
<path fill="none" stroke="#9a32cd" stroke-dasharray="5,2" d="M158.58,-372.38C153.55,-365.89 148.6,-358.07 146,-350 137.01,-322.08 137.09,-311.95 146,-284 153.97,-259.01 173.25,-235.16 186.73,-220.68"/>
<polygon fill="#9a32cd" stroke="#9a32cd" points="156.15,-374.92 165.27,-380.3 161.5,-370.4 156.15,-374.92"/>
<text text-anchor="middle" x="157.5" y="-314.5" font-family="Helvetica,sans-Serif" font-size="10.00"> _HS</text>
</g>
<!-- Node11 -->
<g id="node11" class="node">
<title>Node11</title>
<g id="a_node11"><a xlink:href="classutil_1_1_stack_base.html" target="_top" xlink:title=" ">
<polygon fill="white" stroke="black" points="719.5,-78.5 719.5,-97.5 832.5,-97.5 832.5,-78.5 719.5,-78.5"/>
<text text-anchor="middle" x="776" y="-85.5" font-family="Helvetica,sans-Serif" font-size="10.00">StackBase&lt; Integer &gt;</text>
</a>
</g>
</g>
<!-- Node11&#45;&gt;Node1 -->
<g id="edge15" class="edge">
<title>Node11&#45;&gt;Node1</title>
<path fill="none" stroke="#9a32cd" stroke-dasharray="5,2" d="M757.31,-72.04C743.47,-61.49 723.83,-47.58 705,-38 688.97,-29.84 669.89,-23.13 654.74,-18.44"/>
<polygon fill="#9a32cd" stroke="#9a32cd" points="755.46,-75.03 765.5,-78.41 759.76,-69.51 755.46,-75.03"/>
<text text-anchor="middle" x="760.5" y="-46.5" font-family="Helvetica,sans-Serif" font-size="10.00"> ordStack</text>
</g>
<!-- Node12 -->
<g id="node12" class="node">
<title>Node12</title>
<g id="a_node12"><a xlink:href="classutil_1_1_stack_base.html" target="_top" xlink:title=" ">
<polygon fill="white" stroke="black" points="850.5,-78.5 850.5,-97.5 957.5,-97.5 957.5,-78.5 850.5,-78.5"/>
<text text-anchor="middle" x="904" y="-85.5" font-family="Helvetica,sans-Serif" font-size="10.00">StackBase&lt; Mode &gt;</text>
</a>
</g>
</g>
<!-- Node12&#45;&gt;Node1 -->
<g id="edge17" class="edge">
<title>Node12&#45;&gt;Node1</title>
<path fill="none" stroke="#9a32cd" stroke-dasharray="5,2" d="M877.55,-74C854.03,-62.93 818.44,-47.38 786,-38 740.82,-24.94 686.43,-17.36 654.69,-13.71"/>
<polygon fill="#9a32cd" stroke="#9a32cd" points="876.32,-77.29 886.85,-78.44 879.33,-70.97 876.32,-77.29"/>
<text text-anchor="middle" x="870.5" y="-46.5" font-family="Helvetica,sans-Serif" font-size="10.00"> modeStack</text>
</g>
</g>
</svg>
        <g id="navigator" transform="translate(0 0)" fill="#404254">
                <rect fill="#f2f5e9" fill-opacity="0.5" stroke="#606060" stroke-width=".5" x="0" y="0" width="60" height="60"/>
                <use id="zoomplus" xlink:href="#zoomPlus" x="17" y="9" onmousedown="handleZoom(evt,'in')"/>
                <use id="zoomminus" xlink:href="#zoomMin" x="42" y="9" onmousedown="handleZoom(evt,'out')"/>
                <use id="reset" xlink:href="#resetDef" x="30" y="36" onmousedown="handleReset()"/>
                <g id="arrowUp" xlink:href="#dirArrow" transform="translate(30 24)" onmousedown="handlePan(0,-1)">
                  <use xlink:href="#rim" fill="#404040">
                        <set attributeName="fill" to="#808080" begin="arrowUp.mouseover" end="arrowUp.mouseout"/>
                  </use>
                  <path fill="none" stroke="white" stroke-width="1.5" d="M0,-3.0v7 M-2.5,-0.5L0,-3.0L2.5,-0.5"/>
                </g>
                <g id="arrowRight" xlink:href="#dirArrow" transform="rotate(90) translate(36 -43)" onmousedown="handlePan(1,0)">
                  <use xlink:href="#rim" fill="#404040">
                        <set attributeName="fill" to="#808080" begin="arrowRight.mouseover" end="arrowRight.mouseout"/>
                  </use>
                  <path fill="none" stroke="white" stroke-width="1.5" d="M0,-3.0v7 M-2.5,-0.5L0,-3.0L2.5,-0.5"/>
                </g>
                <g id="arrowDown" xlink:href="#dirArrow" transform="rotate(180) translate(-30 -48)" onmousedown="handlePan(0,1)">
                  <use xlink:href="#rim" fill="#404040">
                        <set attributeName="fill" to="#808080" begin="arrowDown.mouseover" end="arrowDown.mouseout"/>
                  </use>
                  <path fill="none" stroke="white" stroke-width="1.5" d="M0,-3.0v7 M-2.5,-0.5L0,-3.0L2.5,-0.5"/>
                </g>
                <g id="arrowLeft" xlink:href="#dirArrow" transform="rotate(270) translate(-36 17)" onmousedown="handlePan(-1,0)">
                  <use xlink:href="#rim" fill="#404040">
                        <set attributeName="fill" to="#808080" begin="arrowLeft.mouseover" end="arrowLeft.mouseout"/>
                  </use>
                  <path fill="none" stroke="white" stroke-width="1.5" d="M0,-3.0v7 M-2.5,-0.5L0,-3.0L2.5,-0.5"/>
                </g>
        </g>
        <svg viewBox="0 0 15 15" width="100%" height="30px" preserveAspectRatio="xMaxYMin meet">
         <g id="arrow_out" transform="scale(0.3 0.3)">
          <a xlink:href="classutil_1_1_yaml_buf__coll__graph_org.svg" target="_base">
           <rect id="button" ry="5" rx="5" y="6" x="6" height="38" width="38"
                fill="#f2f5e9" fill-opacity="0.5" stroke="#606060" stroke-width="1.0"/>
           <path id="arrow"
             d="M 11.500037,31.436501 C 11.940474,20.09759 22.043105,11.32322 32.158766,21.979434 L 37.068811,17.246167 C 37.068811,17.246167 37.088388,32 37.088388,32 L 22.160133,31.978069 C 22.160133,31.978069 26.997745,27.140456 26.997745,27.140456 C 18.528582,18.264221 13.291696,25.230495 11.500037,31.436501 z"
             style="fill:#404040;"/>
          </a>
         </g>
        </svg>
</svg>
