<?xml version="1.0" encoding="UTF-8" standalone="no"?>
<!DOCTYPE svg PUBLIC "-//W3C//DTD SVG 1.1//EN"
 "http://www.w3.org/Graphics/SVG/1.1/DTD/svg11.dtd">
<!-- Generated by graphviz version 2.47.0 (20210316.0004)
 -->
<!-- Title: StepRule Pages: 1 -->
<svg width="806pt" height="185pt"
 viewBox="0.00 0.00 806.00 185.44" xmlns="http://www.w3.org/2000/svg" xmlns:xlink="http://www.w3.org/1999/xlink">
<g id="graph0" class="graph" transform="scale(1 1) rotate(0) translate(4 181.44)">
<title>StepRule</title>
<polygon fill="white" stroke="transparent" points="-4,4 -4,-181.44 802,-181.44 802,4 -4,4"/>
<!-- Node1 -->
<g id="node1" class="node">
<title>Node1</title>
<g id="a_node1"><a xlink:title="XMで実行可能（Steppaoble）な計算単位であるルールを表すオブジェクト.">
<polygon fill="#bfbfbf" stroke="black" points="741,-38.5 741,-57.5 798,-57.5 798,-38.5 741,-38.5"/>
<text text-anchor="middle" x="769.5" y="-45.5" font-family="Helvetica,sans-Serif" font-size="10.00">StepRule</text>
</a>
</g>
</g>
<!-- Node2 -->
<g id="node2" class="node">
<title>Node2</title>
<g id="a_node2"><a xlink:href="classast_1_1_step.html" target="_top" xlink:title="抽象構文木のステップ式のクラス.">
<polygon fill="white" stroke="black" points="668,-57.5 668,-76.5 705,-76.5 705,-57.5 668,-57.5"/>
<text text-anchor="middle" x="686.5" y="-64.5" font-family="Helvetica,sans-Serif" font-size="10.00">Step</text>
</a>
</g>
</g>
<!-- Node2&#45;&gt;Node1 -->
<g id="edge1" class="edge">
<title>Node2&#45;&gt;Node1</title>
<path fill="none" stroke="midnightblue" d="M715.04,-60.54C723.34,-58.59 732.45,-56.46 740.77,-54.51"/>
<polygon fill="midnightblue" stroke="midnightblue" points="714.01,-57.19 705.08,-62.88 715.61,-64 714.01,-57.19"/>
</g>
<!-- Node3 -->
<g id="node3" class="node">
<title>Node3</title>
<g id="a_node3"><a xlink:href="classast_1_1_block_base.html" target="_top" xlink:title="抽象構文木のステップ式のクラス.">
<polygon fill="white" stroke="black" points="568,-66.5 568,-85.5 632,-85.5 632,-66.5 568,-66.5"/>
<text text-anchor="middle" x="600" y="-73.5" font-family="Helvetica,sans-Serif" font-size="10.00">BlockBase</text>
</a>
</g>
</g>
<!-- Node3&#45;&gt;Node2 -->
<g id="edge2" class="edge">
<title>Node3&#45;&gt;Node2</title>
<path fill="none" stroke="midnightblue" d="M642.51,-71.58C651.5,-70.62 660.54,-69.66 667.99,-68.86"/>
<polygon fill="midnightblue" stroke="midnightblue" points="642.04,-68.11 632.46,-72.65 642.78,-75.07 642.04,-68.11"/>
</g>
<!-- Node4 -->
<g id="node4" class="node">
<title>Node4</title>
<g id="a_node4"><a xlink:href="classast_1_1_ast_node_tagged.html" target="_top" xlink:title="タグ付きの子をもつノードのクラス．利用者は自前で，追加する子のField名と，Getter，型を設定する．読み出しは子の添字でも行える．">
<polygon fill="white" stroke="black" points="412.5,-114.5 412.5,-133.5 498.5,-133.5 498.5,-114.5 412.5,-114.5"/>
<text text-anchor="middle" x="455.5" y="-121.5" font-family="Helvetica,sans-Serif" font-size="10.00">AstNodeTagged</text>
</a>
</g>
</g>
<!-- Node4&#45;&gt;Node3 -->
<g id="edge3" class="edge">
<title>Node4&#45;&gt;Node3</title>
<path fill="none" stroke="midnightblue" d="M508.66,-112.05C516.54,-109.91 524.53,-107.54 532,-105 548.2,-99.5 565.95,-91.73 579.1,-85.62"/>
<polygon fill="midnightblue" stroke="midnightblue" points="507.57,-108.72 498.78,-114.64 509.35,-115.49 507.57,-108.72"/>
</g>
<!-- Node5 -->
<g id="node5" class="node">
<title>Node5</title>
<g id="a_node5"><a xlink:href="classast_1_1_ast_node_branch.html" target="_top" xlink:title="タグなしの順アクセスの子供をもてる抽象構文木のノードのクラス。">
<polygon fill="white" stroke="red" points="224.5,-114.5 224.5,-133.5 310.5,-133.5 310.5,-114.5 224.5,-114.5"/>
<text text-anchor="middle" x="267.5" y="-121.5" font-family="Helvetica,sans-Serif" font-size="10.00">AstNodeBranch</text>
</a>
</g>
</g>
<!-- Node5&#45;&gt;Node4 -->
<g id="edge4" class="edge">
<title>Node5&#45;&gt;Node4</title>
<path fill="none" stroke="midnightblue" d="M321.04,-124C349.97,-124 385.38,-124 412.46,-124"/>
<polygon fill="midnightblue" stroke="midnightblue" points="320.71,-120.5 310.71,-124 320.71,-127.5 320.71,-120.5"/>
</g>
<!-- Node10 -->
<g id="node6" class="node">
<title>Node10</title>
<g id="a_node6"><a xlink:href="interfaceformat_1_1_x_formattable_1_1_typed_formattable.html" target="_top" xlink:title="ノードの型情報をもつ書式出力可能なオブジェクトのインタフェース．">
<polygon fill="white" stroke="red" points="0,-133.5 0,-152.5 156,-152.5 156,-133.5 0,-133.5"/>
<text text-anchor="middle" x="78" y="-140.5" font-family="Helvetica,sans-Serif" font-size="10.00">XFormattable.TypedFormattable</text>
</a>
</g>
</g>
<!-- Node10&#45;&gt;Node3 -->
<g id="edge10" class="edge">
<title>Node10&#45;&gt;Node3</title>
<path fill="none" stroke="midnightblue" d="M127.54,-154.67C213.08,-172.76 394.63,-199.9 532,-143 560.27,-131.29 582.83,-101.23 593.05,-85.66"/>
<polygon fill="midnightblue" stroke="midnightblue" points="128.11,-151.21 117.59,-152.52 126.62,-158.05 128.11,-151.21"/>
</g>
<!-- Node10&#45;&gt;Node5 -->
<g id="edge5" class="edge">
<title>Node10&#45;&gt;Node5</title>
<path fill="none" stroke="midnightblue" d="M166.26,-134.16C186.47,-132.11 207.08,-130.02 224.31,-128.28"/>
<polygon fill="midnightblue" stroke="midnightblue" points="165.67,-130.7 156.08,-135.19 166.38,-137.66 165.67,-130.7"/>
</g>
<!-- Node11 -->
<g id="node7" class="node">
<title>Node11</title>
<g id="a_node7"><a xlink:href="interfaceformat_1_1_x_formattable_1_1_field_navigatable.html" target="_top" xlink:title="タグ付きノードに対応する清書対象のクラス。">
<polygon fill="white" stroke="red" points="192,-76.5 192,-95.5 343,-95.5 343,-76.5 192,-76.5"/>
<text text-anchor="middle" x="267.5" y="-83.5" font-family="Helvetica,sans-Serif" font-size="10.00">XFormattable.FieldNavigatable</text>
</a>
</g>
</g>
<!-- Node11&#45;&gt;Node4 -->
<g id="edge6" class="edge">
<title>Node11&#45;&gt;Node4</title>
<path fill="none" stroke="midnightblue" d="M325.5,-97.64C353.5,-103.37 386.66,-110.14 412.34,-115.39"/>
<polygon fill="midnightblue" stroke="midnightblue" points="325.93,-94.16 315.44,-95.59 324.53,-101.02 325.93,-94.16"/>
</g>
<!-- Node12 -->
<g id="node8" class="node">
<title>Node12</title>
<g id="a_node8"><a xlink:href="interfacemachine_1_1_rule.html" target="_top" xlink:title="実行可能コードのインタフェース. ブロックとステップの二種がある。">
<polygon fill="white" stroke="black" points="437,-0.5 437,-19.5 474,-19.5 474,-0.5 437,-0.5"/>
<text text-anchor="middle" x="455.5" y="-7.5" font-family="Helvetica,sans-Serif" font-size="10.00">Rule</text>
</a>
</g>
</g>
<!-- Node12&#45;&gt;Node3 -->
<g id="edge7" class="edge">
<title>Node12&#45;&gt;Node3</title>
<path fill="none" stroke="midnightblue" d="M484.18,-14.45C498.83,-17.42 516.87,-22.08 532,-29 553.45,-38.81 575.25,-55.66 587.93,-66.3"/>
<polygon fill="midnightblue" stroke="midnightblue" points="484.67,-10.98 474.2,-12.57 483.38,-17.86 484.67,-10.98"/>
</g>
<!-- Node14 -->
<g id="node11" class="node">
<title>Node14</title>
<g id="a_node11"><a xlink:href="interfacemachine_1_1_steppable.html" target="_top" xlink:title="実行可能ルールのインタフェース.">
<polygon fill="white" stroke="black" points="570,-19.5 570,-38.5 630,-38.5 630,-19.5 570,-19.5"/>
<text text-anchor="middle" x="600" y="-26.5" font-family="Helvetica,sans-Serif" font-size="10.00">Steppable</text>
</a>
</g>
</g>
<!-- Node12&#45;&gt;Node14 -->
<g id="edge12" class="edge">
<title>Node12&#45;&gt;Node14</title>
<path fill="none" stroke="midnightblue" d="M484.4,-13.72C509.05,-17.01 544.86,-21.78 569.87,-25.12"/>
<polygon fill="midnightblue" stroke="midnightblue" points="484.63,-10.22 474.26,-12.37 483.71,-17.16 484.63,-10.22"/>
</g>
<!-- Node13 -->
<g id="node9" class="node">
<title>Node13</title>
<g id="a_node9"><a xlink:href="interfacecmd_1_1_generatable.html" target="_top" xlink:title="変換してコードを生成できるノードのインタフェース.">
<polygon fill="white" stroke="black" points="421,-76.5 421,-95.5 490,-95.5 490,-76.5 421,-76.5"/>
<text text-anchor="middle" x="455.5" y="-83.5" font-family="Helvetica,sans-Serif" font-size="10.00">Generatable</text>
</a>
</g>
</g>
<!-- Node13&#45;&gt;Node3 -->
<g id="edge8" class="edge">
<title>Node13&#45;&gt;Node3</title>
<path fill="none" stroke="midnightblue" d="M500.31,-82.93C522.18,-81.39 548.11,-79.57 567.91,-78.18"/>
<polygon fill="midnightblue" stroke="midnightblue" points="500,-79.44 490.27,-83.63 500.49,-86.42 500,-79.44"/>
</g>
<!-- Node9 -->
<g id="node10" class="node">
<title>Node9</title>
<g id="a_node10"><a xlink:href="interfaceformat_1_1_x_formattable_1_1_label_formattable.html" target="_top" xlink:title="カスタム清書出力器をもつオブジェクトのクラス．">
<polygon fill="white" stroke="red" points="379,-38.5 379,-57.5 532,-57.5 532,-38.5 379,-38.5"/>
<text text-anchor="middle" x="455.5" y="-45.5" font-family="Helvetica,sans-Serif" font-size="10.00">XFormattable.LabelFormattable</text>
</a>
</g>
</g>
<!-- Node9&#45;&gt;Node3 -->
<g id="edge9" class="edge">
<title>Node9&#45;&gt;Node3</title>
<path fill="none" stroke="midnightblue" d="M515.07,-59.51C533.21,-63.07 552.48,-66.86 567.98,-69.9"/>
<polygon fill="midnightblue" stroke="midnightblue" points="515.63,-56.05 505.14,-57.56 514.28,-62.92 515.63,-56.05"/>
</g>
<!-- Node14&#45;&gt;Node1 -->
<g id="edge13" class="edge">
<title>Node14&#45;&gt;Node1</title>
<path fill="none" stroke="midnightblue" d="M640.17,-33.44C671.04,-36.95 713.32,-41.74 740.77,-44.85"/>
<polygon fill="midnightblue" stroke="midnightblue" points="640.51,-29.96 630.18,-32.31 639.72,-36.91 640.51,-29.96"/>
</g>
<!-- Node14&#45;&gt;Node2 -->
<g id="edge11" class="edge">
<title>Node14&#45;&gt;Node2</title>
<path fill="none" stroke="midnightblue" d="M631.7,-42.81C643.87,-48.28 657.43,-54.38 667.89,-59.08"/>
<polygon fill="midnightblue" stroke="midnightblue" points="632.88,-39.5 622.32,-38.59 630.01,-45.88 632.88,-39.5"/>
</g>
</g>
</svg>
