<?xml version="1.0" encoding="UTF-8" standalone="no"?>
<!DOCTYPE svg PUBLIC "-//W3C//DTD SVG 1.1//EN"
 "http://www.w3.org/Graphics/SVG/1.1/DTD/svg11.dtd">
<!-- Generated by graphviz version 2.38.0 (20140413.2041)
 -->
<!-- Title: CommandTyped&lt; T &gt;.CmdTypeToType&lt; S, T &gt; Pages: 1 -->
<svg width="376pt" height="253pt"
 viewBox="0.00 0.00 375.92 253.00" xmlns="http://www.w3.org/2000/svg" xmlns:xlink="http://www.w3.org/1999/xlink">
<g id="graph0" class="graph" transform="scale(1 1) rotate(0) translate(4 249)">
<title>CommandTyped&lt; T &gt;.CmdTypeToType&lt; S, T &gt;</title>
<polygon fill="white" stroke="none" points="-4,4 -4,-249 371.916,-249 371.916,4 -4,4"/>
<!-- Node1 -->
<g id="node1" class="node"><title>Node1</title>
<g id="a_node1"><a xlink:title="OVMachine上のS型の値をT型の値に変換する命令．">
<polygon fill="#bfbfbf" stroke="black" points="181.767,-0.5 181.767,-28.5 339.71,-28.5 339.71,-0.5 181.767,-0.5"/>
<text text-anchor="start" x="189.767" y="-16.5" font-family="Helvetica,sans-Serif" font-size="10.00">CommandTyped&lt; T &gt;.CmdType</text>
<text text-anchor="middle" x="260.739" y="-6.5" font-family="Helvetica,sans-Serif" font-size="10.00">ToType&lt; S, T &gt;</text>
</a>
</g>
</g>
<!-- Node2 -->
<g id="node2" class="node"><title>Node2</title>
<g id="a_node2"><a xlink:href="classmachine_1_1_command.html" target="_top" xlink:title="局所変数環境に値を書き込む式の抽象クラス.">
<polygon fill="white" stroke="black" points="135.675,-85.5 135.675,-103.5 197.803,-103.5 197.803,-85.5 135.675,-85.5"/>
<text text-anchor="middle" x="166.739" y="-91.5" font-family="Helvetica,sans-Serif" font-size="10.00">Command</text>
</a>
</g>
</g>
<!-- Node2&#45;&gt;Node1 -->
<g id="edge1" class="edge"><title>Node2&#45;&gt;Node1</title>
<path fill="none" stroke="midnightblue" d="M184.191,-79.0183C201.635,-64.5436 228.214,-42.4884 245.02,-28.5431"/>
<polygon fill="midnightblue" stroke="midnightblue" points="181.905,-76.3672 176.444,-85.4464 186.375,-81.7541 181.905,-76.3672"/>
</g>
<!-- Node3 -->
<g id="node3" class="node"><title>Node3</title>
<g id="a_node3"><a xlink:href="interfacemachine_1_1_executable.html" target="_top" xlink:title="仮装命令のインタフェース.">
<polygon fill="white" stroke="black" points="0,-170.5 0,-188.5 65.4775,-188.5 65.4775,-170.5 0,-170.5"/>
<text text-anchor="middle" x="32.7388" y="-176.5" font-family="Helvetica,sans-Serif" font-size="10.00">Executable</text>
</a>
</g>
</g>
<!-- Node3&#45;&gt;Node2 -->
<g id="edge2" class="edge"><title>Node3&#45;&gt;Node2</title>
<path fill="none" stroke="midnightblue" d="M54.779,-164.848C82.8336,-147.471 130.416,-117.998 153.454,-103.728"/>
<polygon fill="midnightblue" stroke="midnightblue" points="52.7354,-161.997 46.0771,-170.238 56.4214,-167.948 52.7354,-161.997"/>
</g>
<!-- Node4 -->
<g id="node4" class="node"><title>Node4</title>
<g id="a_node4"><a xlink:href="interfaceformat_1_1_x_formattable_1_1_custom_formattable.html" target="_top" xlink:title="カスタム清書出力器をもつオブジェクトのクラス．">
<polygon fill="white" stroke="black" points="83.4336,-170.5 83.4336,-188.5 250.044,-188.5 250.044,-170.5 83.4336,-170.5"/>
<text text-anchor="middle" x="166.739" y="-176.5" font-family="Helvetica,sans-Serif" font-size="10.00">XFormattable.CustomFormattable</text>
</a>
</g>
</g>
<!-- Node4&#45;&gt;Node2 -->
<g id="edge3" class="edge"><title>Node4&#45;&gt;Node2</title>
<path fill="none" stroke="midnightblue" d="M166.739,-160.059C166.739,-142.46 166.739,-116.757 166.739,-103.728"/>
<polygon fill="midnightblue" stroke="midnightblue" points="163.239,-160.238 166.739,-170.238 170.239,-160.238 163.239,-160.238"/>
</g>
<!-- Node5 -->
<g id="node5" class="node"><title>Node5</title>
<g id="a_node5"><a xlink:href="interfaceformat_1_1_x_formattable.html" target="_top" xlink:title="入れ子フォーマット出力可能なオブジェクトのインタフェース。">
<polygon fill="white" stroke="black" points="128.727,-226.5 128.727,-244.5 204.751,-244.5 204.751,-226.5 128.727,-226.5"/>
<text text-anchor="middle" x="166.739" y="-232.5" font-family="Helvetica,sans-Serif" font-size="10.00">XFormattable</text>
</a>
</g>
</g>
<!-- Node5&#45;&gt;Node4 -->
<g id="edge4" class="edge"><title>Node5&#45;&gt;Node4</title>
<path fill="none" stroke="midnightblue" d="M166.739,-215.829C166.739,-206.577 166.739,-195.88 166.739,-188.701"/>
<polygon fill="midnightblue" stroke="midnightblue" points="163.239,-216.062 166.739,-226.062 170.239,-216.063 163.239,-216.062"/>
</g>
<!-- Node6 -->
<g id="node6" class="node"><title>Node6</title>
<g id="a_node6"><a xlink:title=" ">
<polygon fill="white" stroke="#bfbfbf" points="267.943,-170.5 267.943,-188.5 319.534,-188.5 319.534,-170.5 267.943,-170.5"/>
<text text-anchor="middle" x="293.739" y="-176.5" font-family="Helvetica,sans-Serif" font-size="10.00">boolean</text>
</a>
</g>
</g>
<!-- Node6&#45;&gt;Node2 -->
<g id="edge5" class="edge"><title>Node6&#45;&gt;Node2</title>
<path fill="none" stroke="#9a32cd" stroke-dasharray="5,2" d="M272.502,-164.621C245.869,-147.215 201.069,-117.936 179.329,-103.728"/>
<polygon fill="#9a32cd" stroke="#9a32cd" points="270.812,-167.697 281.097,-170.238 274.641,-161.838 270.812,-167.697"/>
<text text-anchor="middle" x="298.303" y="-144" font-family="Helvetica,sans-Serif" font-size="10.00"> DEBUG_EVAL</text>
<text text-anchor="middle" x="298.303" y="-134" font-family="Helvetica,sans-Serif" font-size="10.00">DEBUG_CMDELEM</text>
<text text-anchor="middle" x="298.303" y="-124" font-family="Helvetica,sans-Serif" font-size="10.00">DEBUG_CMD</text>
</g>
<!-- Node7 -->
<g id="node7" class="node"><title>Node7</title>
<g id="a_node7"><a xlink:title=" ">
<polygon fill="white" stroke="#bfbfbf" points="215.952,-85.5 215.952,-103.5 305.526,-103.5 305.526,-85.5 215.952,-85.5"/>
<text text-anchor="middle" x="260.739" y="-91.5" font-family="Helvetica,sans-Serif" font-size="10.00">Function&lt; S, T &gt;</text>
</a>
</g>
</g>
<!-- Node7&#45;&gt;Node1 -->
<g id="edge6" class="edge"><title>Node7&#45;&gt;Node1</title>
<path fill="none" stroke="#9a32cd" stroke-dasharray="5,2" d="M260.739,-75.3218C260.739,-60.9889 260.739,-41.3474 260.739,-28.5431"/>
<polygon fill="#9a32cd" stroke="#9a32cd" points="257.239,-75.4464 260.739,-85.4464 264.239,-75.4464 257.239,-75.4464"/>
<text text-anchor="middle" x="271.579" y="-54" font-family="Helvetica,sans-Serif" font-size="10.00"> func</text>
</g>
<!-- Node8 -->
<g id="node8" class="node"><title>Node8</title>
<g id="a_node8"><a xlink:href="enumtype_1_1_x_type.html" target="_top" xlink:title="基本型を表す半順序をもつ列挙型のクラス。">
<polygon fill="white" stroke="black" points="323.562,-85.5 323.562,-103.5 367.916,-103.5 367.916,-85.5 323.562,-85.5"/>
<text text-anchor="middle" x="345.739" y="-91.5" font-family="Helvetica,sans-Serif" font-size="10.00">XType</text>
</a>
</g>
</g>
<!-- Node8&#45;&gt;Node1 -->
<g id="edge7" class="edge"><title>Node8&#45;&gt;Node1</title>
<path fill="none" stroke="#9a32cd" stroke-dasharray="5,2" d="M329.525,-78.6217C313.747,-64.1433 290.011,-42.3617 274.952,-28.5431"/>
<polygon fill="#9a32cd" stroke="#9a32cd" points="327.228,-81.264 336.962,-85.4464 331.961,-76.1064 327.228,-81.264"/>
<text text-anchor="middle" x="324.798" y="-59" font-family="Helvetica,sans-Serif" font-size="10.00"> oxt</text>
<text text-anchor="middle" x="324.798" y="-49" font-family="Helvetica,sans-Serif" font-size="10.00">ixt</text>
</g>
</g>
</svg>
