<?xml version="1.0" encoding="UTF-8" standalone="no"?>
<!DOCTYPE svg PUBLIC "-//W3C//DTD SVG 1.1//EN"
 "http://www.w3.org/Graphics/SVG/1.1/DTD/svg11.dtd">
<!-- Generated by graphviz version 2.47.0 (20210316.0004)
 -->
<!-- Title: AstTerminal Pages: 1 -->
<svg width="577pt" height="163pt"
 viewBox="0.00 0.00 576.50 163.00" xmlns="http://www.w3.org/2000/svg" xmlns:xlink="http://www.w3.org/1999/xlink">
<g id="graph0" class="graph" transform="scale(1 1) rotate(0) translate(4 159)">
<title>AstTerminal</title>
<polygon fill="white" stroke="transparent" points="-4,4 -4,-159 572.5,-159 572.5,4 -4,4"/>
<!-- Node1 -->
<g id="node1" class="node">
<title>Node1</title>
<g id="a_node1"><a xlink:title="値型をもたない終端オブジェクトのクラス">
<polygon fill="#bfbfbf" stroke="black" points="128.5,-0.5 128.5,-19.5 196.5,-19.5 196.5,-0.5 128.5,-0.5"/>
<text text-anchor="middle" x="162.5" y="-7.5" font-family="Helvetica,sans-Serif" font-size="10.00">AstTerminal</text>
</a>
</g>
</g>
<!-- Node2 -->
<g id="node2" class="node">
<title>Node2</title>
<g id="a_node2"><a xlink:href="classast_1_1_ast_node.html" target="_top" xlink:title=" ">
<polygon fill="white" stroke="black" points="194,-57.5 194,-76.5 249,-76.5 249,-57.5 194,-57.5"/>
<text text-anchor="middle" x="221.5" y="-64.5" font-family="Helvetica,sans-Serif" font-size="10.00">AstNode</text>
</a>
</g>
</g>
<!-- Node2&#45;&gt;Node1 -->
<g id="edge1" class="edge">
<title>Node2&#45;&gt;Node1</title>
<path fill="none" stroke="midnightblue" d="M204.78,-50.42C194.11,-40.47 180.68,-27.94 171.85,-19.71"/>
<polygon fill="midnightblue" stroke="midnightblue" points="202.58,-53.15 212.28,-57.41 207.35,-48.03 202.58,-53.15"/>
</g>
<!-- Node3 -->
<g id="node3" class="node">
<title>Node3</title>
<g id="a_node3"><a xlink:href="interfaceformat_1_1_x_formattable.html" target="_top" xlink:title="入れ子フォーマット出力可能なオブジェクトのインタフェース。">
<polygon fill="white" stroke="black" points="0,-135.5 0,-154.5 75,-154.5 75,-135.5 0,-135.5"/>
<text text-anchor="middle" x="37.5" y="-142.5" font-family="Helvetica,sans-Serif" font-size="10.00">XFormattable</text>
</a>
</g>
</g>
<!-- Node3&#45;&gt;Node2 -->
<g id="edge2" class="edge">
<title>Node3&#45;&gt;Node2</title>
<path fill="none" stroke="midnightblue" d="M58.39,-129.92C75.13,-119.15 99.55,-104.56 122.5,-95 145.85,-85.27 173.76,-78.03 193.98,-73.51"/>
<polygon fill="midnightblue" stroke="midnightblue" points="56.38,-127.05 49.93,-135.46 60.22,-132.91 56.38,-127.05"/>
</g>
<!-- Node10 -->
<g id="node10" class="node">
<title>Node10</title>
<g id="a_node10"><a xlink:href="interfaceformat_1_1_x_formattable_1_1_terminatable.html" target="_top" xlink:title="木構造の終端として清書可能なオブジェクトのクラス">
<polygon fill="white" stroke="black" points="24.5,-57.5 24.5,-76.5 158.5,-76.5 158.5,-57.5 24.5,-57.5"/>
<text text-anchor="middle" x="91.5" y="-64.5" font-family="Helvetica,sans-Serif" font-size="10.00">XFormattable.Terminatable</text>
</a>
</g>
</g>
<!-- Node3&#45;&gt;Node10 -->
<g id="edge10" class="edge">
<title>Node3&#45;&gt;Node10</title>
<path fill="none" stroke="midnightblue" d="M44.96,-125.75C49.34,-116.13 55.4,-104.41 62.5,-95 67.64,-88.19 74.6,-81.64 80.42,-76.7"/>
<polygon fill="midnightblue" stroke="midnightblue" points="41.65,-124.58 40.91,-135.15 48.08,-127.35 41.65,-124.58"/>
</g>
<!-- Node4 -->
<g id="node4" class="node">
<title>Node4</title>
<g id="a_node4"><a xlink:title=" ">
<polygon fill="white" stroke="#bfbfbf" points="93.5,-135.5 93.5,-154.5 135.5,-154.5 135.5,-135.5 93.5,-135.5"/>
<text text-anchor="middle" x="114.5" y="-142.5" font-family="Helvetica,sans-Serif" font-size="10.00">String</text>
</a>
</g>
</g>
<!-- Node4&#45;&gt;Node2 -->
<g id="edge3" class="edge">
<title>Node4&#45;&gt;Node2</title>
<path fill="none" stroke="#9a32cd" stroke-dasharray="5,2" d="M121.37,-126.1C126.17,-115.73 133.51,-103.16 143.5,-95 157.93,-83.22 177.82,-76.44 193.9,-72.62"/>
<polygon fill="#9a32cd" stroke="#9a32cd" points="118.07,-124.91 117.42,-135.49 124.53,-127.63 118.07,-124.91"/>
<text text-anchor="middle" x="169.5" y="-109" font-family="Helvetica,sans-Serif" font-size="10.00"> MOD_AST</text>
<text text-anchor="middle" x="169.5" y="-98" font-family="Helvetica,sans-Serif" font-size="10.00">mod_</text>
</g>
<!-- Node5 -->
<g id="node5" class="node">
<title>Node5</title>
<g id="a_node5"><a xlink:title=" ">
<polygon fill="white" stroke="#bfbfbf" points="154,-135.5 154,-154.5 219,-154.5 219,-135.5 154,-135.5"/>
<text text-anchor="middle" x="186.5" y="-142.5" font-family="Helvetica,sans-Serif" font-size="10.00">TraceLevel</text>
</a>
</g>
</g>
<!-- Node5&#45;&gt;Node2 -->
<g id="edge4" class="edge">
<title>Node5&#45;&gt;Node2</title>
<path fill="none" stroke="#9a32cd" stroke-dasharray="5,2" d="M194.47,-125.94C198.6,-116.66 203.76,-105.2 208.5,-95 211.31,-88.96 214.56,-82.21 217.11,-76.97"/>
<polygon fill="#9a32cd" stroke="#9a32cd" points="191.18,-124.73 190.32,-135.29 197.58,-127.57 191.18,-124.73"/>
<text text-anchor="middle" x="220.5" y="-103.5" font-family="Helvetica,sans-Serif" font-size="10.00"> LOG</text>
</g>
<!-- Node6 -->
<g id="node6" class="node">
<title>Node6</title>
<g id="a_node6"><a xlink:title=" ">
<polygon fill="white" stroke="#bfbfbf" points="237,-135.5 237,-154.5 310,-154.5 310,-135.5 237,-135.5"/>
<text text-anchor="middle" x="273.5" y="-142.5" font-family="Helvetica,sans-Serif" font-size="10.00">static Report</text>
</a>
</g>
</g>
<!-- Node6&#45;&gt;Node2 -->
<g id="edge5" class="edge">
<title>Node6&#45;&gt;Node2</title>
<path fill="none" stroke="#9a32cd" stroke-dasharray="5,2" d="M261.87,-127.01C251.17,-111.37 235.74,-88.81 227.4,-76.62"/>
<polygon fill="#9a32cd" stroke="#9a32cd" points="259,-129.01 267.53,-135.28 264.78,-125.05 259,-129.01"/>
<text text-anchor="middle" x="264.5" y="-103.5" font-family="Helvetica,sans-Serif" font-size="10.00"> repo</text>
</g>
<!-- Node7 -->
<g id="node7" class="node">
<title>Node7</title>
<g id="a_node7"><a xlink:title=" ">
<polygon fill="white" stroke="#bfbfbf" points="328,-135.5 328,-154.5 357,-154.5 357,-135.5 328,-135.5"/>
<text text-anchor="middle" x="342.5" y="-142.5" font-family="Helvetica,sans-Serif" font-size="10.00">int</text>
</a>
</g>
</g>
<!-- Node7&#45;&gt;Node2 -->
<g id="edge6" class="edge">
<title>Node7&#45;&gt;Node2</title>
<path fill="none" stroke="#9a32cd" stroke-dasharray="5,2" d="M318.99,-130.01C312.81,-126.03 306.26,-121.54 300.5,-117 289.39,-108.25 289.12,-103.06 277.5,-95 266.86,-87.62 253.89,-81.23 243.11,-76.52"/>
<polygon fill="#9a32cd" stroke="#9a32cd" points="317.31,-133.09 327.65,-135.41 321.02,-127.15 317.31,-133.09"/>
<text text-anchor="middle" x="362" y="-109" font-family="Helvetica,sans-Serif" font-size="10.00"> BITMASK_PRINT_WIDTH</text>
<text text-anchor="middle" x="362" y="-98" font-family="Helvetica,sans-Serif" font-size="10.00">UNDEF</text>
</g>
<!-- Node8 -->
<g id="node8" class="node">
<title>Node8</title>
<g id="a_node8"><a xlink:href="interfacetype_1_1_typable.html" target="_top" xlink:title="抽象ノードがもつ関数型のインタフェース">
<polygon fill="white" stroke="black" points="420.5,-135.5 420.5,-154.5 470.5,-154.5 470.5,-135.5 420.5,-135.5"/>
<text text-anchor="middle" x="445.5" y="-142.5" font-family="Helvetica,sans-Serif" font-size="10.00">Typable</text>
</a>
</g>
</g>
<!-- Node8&#45;&gt;Node2 -->
<g id="edge7" class="edge">
<title>Node8&#45;&gt;Node2</title>
<path fill="none" stroke="#9a32cd" stroke-dasharray="5,2" d="M441.76,-125.13C438.67,-114.6 433.15,-102.2 423.5,-95 396.49,-74.85 297.82,-69.74 249.1,-68.44"/>
<polygon fill="#9a32cd" stroke="#9a32cd" points="438.42,-126.23 444.18,-135.12 445.23,-124.58 438.42,-126.23"/>
<text text-anchor="middle" x="452.5" y="-103.5" font-family="Helvetica,sans-Serif" font-size="10.00"> typing</text>
</g>
<!-- Node9 -->
<g id="node9" class="node">
<title>Node9</title>
<g id="a_node9"><a xlink:title=" ">
<polygon fill="white" stroke="#bfbfbf" points="488.5,-135.5 488.5,-154.5 538.5,-154.5 538.5,-135.5 488.5,-135.5"/>
<text text-anchor="middle" x="513.5" y="-142.5" font-family="Helvetica,sans-Serif" font-size="10.00">boolean</text>
</a>
</g>
</g>
<!-- Node9&#45;&gt;Node2 -->
<g id="edge8" class="edge">
<title>Node9&#45;&gt;Node2</title>
<path fill="none" stroke="#9a32cd" stroke-dasharray="5,2" d="M503.37,-126.51C496.01,-115.51 484.99,-102.11 471.5,-95 433.46,-74.96 305.92,-69.77 249.15,-68.45"/>
<polygon fill="#9a32cd" stroke="#9a32cd" points="500.61,-128.69 508.87,-135.33 506.55,-124.99 500.61,-128.69"/>
<text text-anchor="middle" x="532" y="-103.5" font-family="Helvetica,sans-Serif" font-size="10.00"> DEBUG_REPO</text>
</g>
<!-- Node10&#45;&gt;Node1 -->
<g id="edge9" class="edge">
<title>Node10&#45;&gt;Node1</title>
<path fill="none" stroke="midnightblue" d="M110.87,-51C123.82,-40.96 140.42,-28.1 151.25,-19.71"/>
<polygon fill="midnightblue" stroke="midnightblue" points="108.36,-48.52 102.59,-57.41 112.64,-54.05 108.36,-48.52"/>
</g>
</g>
</svg>
