<?xml version="1.0" encoding="UTF-8" standalone="no"?>
<!DOCTYPE svg PUBLIC "-//W3C//DTD SVG 1.1//EN"
 "http://www.w3.org/Graphics/SVG/1.1/DTD/svg11.dtd">
<!-- Generated by graphviz version 2.47.1 (20210417.1919)
 -->
<!-- Title: NodeFormatter Pages: 1 -->
<!--zoomable 278 -->
<svg id="main" version="1.1" xmlns="http://www.w3.org/2000/svg" xmlns:xlink="http://www.w3.org/1999/xlink" xml:space="preserve" onload="init(evt)">
<style type="text/css"><![CDATA[
.edge:hover path { stroke: red; }
.edge:hover polygon { stroke: red; fill: red; }
]]></style>
<script type="text/javascript"><![CDATA[
var edges = document.getElementsByTagName('g');
if (edges && edges.length) {
  for (var i=0;i<edges.length;i++) {
    if (edges[i].id.substr(0,4)=='edge') {
      edges[i].setAttribute('class','edge');
    }
  }
}
]]></script>
        <defs>
                <circle id="rim" cx="0" cy="0" r="7"/>
                <circle id="rim2" cx="0" cy="0" r="3.5"/>
                <g id="zoomPlus">
                        <use xlink:href="#rim" fill="#404040">
                                <set attributeName="fill" to="#808080" begin="zoomplus.mouseover" end="zoomplus.mouseout"/>
                        </use>
                        <path d="M-4,0h8M0,-4v8" fill="none" stroke="white" stroke-width="1.5" pointer-events="none"/>
                </g>
                <g id="zoomMin">
                        <use xlink:href="#rim" fill="#404040">
                                <set attributeName="fill" to="#808080" begin="zoomminus.mouseover" end="zoomminus.mouseout"/>
                        </use>
                        <path d="M-4,0h8" fill="none" stroke="white" stroke-width="1.5" pointer-events="none"/>
                </g>
                <g id="dirArrow">
                        <path fill="none" stroke="white" stroke-width="1.5" d="M0,-3.0v7 M-2.5,-0.5L0,-3.0L2.5,-0.5"/>
                </g>
               <g id="resetDef">
                       <use xlink:href="#rim2" fill="#404040">
                               <set attributeName="fill" to="#808080" begin="reset.mouseover" end="reset.mouseout"/>
                       </use>
               </g>
        </defs>

<script type="text/javascript">
var viewWidth = 556;
var viewHeight = 278;
var sectionId = 'dynsection-1';
</script>
<script xlink:href="svgpan.js"/>
<svg id="graph" class="graph">
<g id="viewport">
<title>NodeFormatter</title>
<polygon fill="white" stroke="transparent" points="-4,4 -4,-274.31 552,-274.31 552,4 -4,4"/>
<!-- Node1 -->
<g id="node1" class="node">
<title>Node1</title>
<g id="a_node1"><a xlink:title="前置演算をもつ項形式のオブジェクトの清書出力器の実装．">
<polygon fill="#bfbfbf" stroke="black" points="466,-116.81 466,-135.81 548,-135.81 548,-116.81 466,-116.81"/>
<text text-anchor="middle" x="507" y="-123.81" font-family="Helvetica,sans-Serif" font-size="10.00">NodeFormatter</text>
</a>
</g>
</g>
<!-- Node2 -->
<g id="node2" class="node">
<title>Node2</title>
<g id="a_node2"><a xlink:href="interfaceformat_1_1_node_formattable.html" target="_top" xlink:title="XFormattableインタフェースをもつ構造オブジェクトの清書出力器．">
<polygon fill="white" stroke="black" points="285,-250.81 285,-269.81 377,-269.81 377,-250.81 285,-250.81"/>
<text text-anchor="middle" x="331" y="-257.81" font-family="Helvetica,sans-Serif" font-size="10.00">NodeFormattable</text>
</a>
</g>
</g>
<!-- Node2&#45;&gt;Node1 -->
<g id="edge1" class="edge">
<title>Node2&#45;&gt;Node1</title>
<path fill="none" stroke="midnightblue" d="M386.82,-250.26C407.59,-244.42 430.44,-235.33 448,-221.31 477.45,-197.81 495.69,-154.99 502.71,-135.92"/>
<polygon fill="midnightblue" stroke="midnightblue" points="385.92,-246.88 377.14,-252.8 387.7,-253.65 385.92,-246.88"/>
</g>
<!-- Node3 -->
<g id="node3" class="node">
<title>Node3</title>
<g id="a_node3"><a xlink:href="classformat_1_1_print_state.html" target="_top" xlink:title="木を印刷する際に，オプション指定と現在の状態保持を行う構造体．">
<polygon fill="white" stroke="black" points="301,-212.81 301,-231.81 361,-231.81 361,-212.81 301,-212.81"/>
<text text-anchor="middle" x="331" y="-219.81" font-family="Helvetica,sans-Serif" font-size="10.00">PrintState</text>
</a>
</g>
</g>
<!-- Node3&#45;&gt;Node1 -->
<g id="edge2" class="edge">
<title>Node3&#45;&gt;Node1</title>
<path fill="none" stroke="#9a32cd" stroke-dasharray="5,2" d="M371.32,-215.26C394.8,-209.83 424.53,-200.75 448,-186.31 469.96,-172.8 489.42,-149.07 499.24,-135.86"/>
<polygon fill="#9a32cd" stroke="#9a32cd" points="370.36,-211.88 361.34,-217.43 371.85,-218.72 370.36,-211.88"/>
<text text-anchor="middle" x="425" y="-209.31" font-family="Helvetica,sans-Serif" font-size="10.00"> printState</text>
</g>
<!-- Node4 -->
<g id="node4" class="node">
<title>Node4</title>
<g id="a_node4"><a xlink:title=" ">
<polygon fill="white" stroke="#bfbfbf" points="45.5,-240.81 45.5,-259.81 97.5,-259.81 97.5,-240.81 45.5,-240.81"/>
<text text-anchor="middle" x="71.5" y="-247.81" font-family="Helvetica,sans-Serif" font-size="10.00">Boolean</text>
</a>
</g>
</g>
<!-- Node4&#45;&gt;Node3 -->
<g id="edge3" class="edge">
<title>Node4&#45;&gt;Node3</title>
<path fill="none" stroke="#9a32cd" stroke-dasharray="5,2" d="M107.61,-246.5C158.84,-240.92 253.17,-230.67 300.82,-225.49"/>
<polygon fill="#9a32cd" stroke="#9a32cd" points="107.22,-243.02 97.66,-247.58 107.98,-249.98 107.22,-243.02"/>
<text text-anchor="middle" x="210.5" y="-243.31" font-family="Helvetica,sans-Serif" font-size="10.00"> toInlineMe</text>
</g>
<!-- Node5 -->
<g id="node5" class="node">
<title>Node5</title>
<g id="a_node5"><a xlink:title=" ">
<polygon fill="white" stroke="#bfbfbf" points="46.5,-162.81 46.5,-181.81 96.5,-181.81 96.5,-162.81 46.5,-162.81"/>
<text text-anchor="middle" x="71.5" y="-169.81" font-family="Helvetica,sans-Serif" font-size="10.00">boolean</text>
</a>
</g>
</g>
<!-- Node5&#45;&gt;Node1 -->
<g id="edge12" class="edge">
<title>Node5&#45;&gt;Node1</title>
<path fill="none" stroke="#9a32cd" stroke-dasharray="5,2" d="M107.17,-171.51C173.71,-169.53 323.76,-162.85 448,-141.31 456.2,-139.89 464.94,-137.89 473.08,-135.82"/>
<polygon fill="#9a32cd" stroke="#9a32cd" points="106.75,-168.02 96.85,-171.8 106.95,-175.02 106.75,-168.02"/>
<text text-anchor="middle" x="331" y="-175.31" font-family="Helvetica,sans-Serif" font-size="10.00"> DEBUG_PRINT_NULL</text>
<text text-anchor="middle" x="331" y="-164.31" font-family="Helvetica,sans-Serif" font-size="10.00">DEBUG_REPO</text>
</g>
<!-- Node5&#45;&gt;Node3 -->
<g id="edge4" class="edge">
<title>Node5&#45;&gt;Node3</title>
<path fill="none" stroke="#9a32cd" stroke-dasharray="5,2" d="M106.54,-177.26C144.23,-182.93 206.72,-192.94 260,-204.31 273.5,-207.19 288.32,-210.92 300.84,-214.24"/>
<polygon fill="#9a32cd" stroke="#9a32cd" points="107,-173.79 96.6,-175.77 105.97,-180.71 107,-173.79"/>
<text text-anchor="middle" x="210.5" y="-218.31" font-family="Helvetica,sans-Serif" font-size="10.00"> noend</text>
<text text-anchor="middle" x="210.5" y="-207.31" font-family="Helvetica,sans-Serif" font-size="10.00">type</text>
</g>
<!-- Node9 -->
<g id="node9" class="node">
<title>Node9</title>
<g id="a_node9"><a xlink:href="classutil_1_1_trace_level.html" target="_top" xlink:title="ログ出力用のトレースレベルを扱うクラス。">
<polygon fill="white" stroke="black" points="298.5,-116.81 298.5,-135.81 363.5,-135.81 363.5,-116.81 298.5,-116.81"/>
<text text-anchor="middle" x="331" y="-123.81" font-family="Helvetica,sans-Serif" font-size="10.00">TraceLevel</text>
</a>
</g>
</g>
<!-- Node5&#45;&gt;Node9 -->
<g id="edge11" class="edge">
<title>Node5&#45;&gt;Node9</title>
<path fill="none" stroke="#9a32cd" stroke-dasharray="5,2" d="M106.34,-161.45C122.71,-156.53 142.73,-151.01 161,-147.31 208.38,-137.73 264.18,-131.82 298.31,-128.8"/>
<polygon fill="#9a32cd" stroke="#9a32cd" points="105.21,-158.14 96.67,-164.41 107.26,-164.83 105.21,-158.14"/>
<text text-anchor="middle" x="210.5" y="-150.31" font-family="Helvetica,sans-Serif" font-size="10.00"> DEBUG_MOD</text>
</g>
<!-- Node6 -->
<g id="node6" class="node">
<title>Node6</title>
<g id="a_node6"><a xlink:title=" ">
<polygon fill="white" stroke="#bfbfbf" points="50.5,-8.81 50.5,-27.81 92.5,-27.81 92.5,-8.81 50.5,-8.81"/>
<text text-anchor="middle" x="71.5" y="-15.81" font-family="Helvetica,sans-Serif" font-size="10.00">String</text>
</a>
</g>
</g>
<!-- Node6&#45;&gt;Node1 -->
<g id="edge5" class="edge">
<title>Node6&#45;&gt;Node1</title>
<path fill="none" stroke="#9a32cd" stroke-dasharray="5,2" d="M102.59,-12.49C159.37,-2.81 285.42,12.5 384,-20.31 437.78,-38.21 482.65,-93.86 499.18,-116.54"/>
<polygon fill="#9a32cd" stroke="#9a32cd" points="101.74,-9.09 92.51,-14.28 102.96,-15.98 101.74,-9.09"/>
<text text-anchor="middle" x="331" y="-23.31" font-family="Helvetica,sans-Serif" font-size="10.00"> DELIM_TAG</text>
</g>
<!-- Node6&#45;&gt;Node9 -->
<g id="edge9" class="edge">
<title>Node6&#45;&gt;Node9</title>
<path fill="none" stroke="#9a32cd" stroke-dasharray="5,2" d="M102.66,-14.58C143.41,-11.31 216.01,-11.97 260,-50.31 280.03,-67.77 259.64,-88.11 278,-107.31 283.51,-113.08 290.92,-117.1 298.41,-119.91"/>
<polygon fill="#9a32cd" stroke="#9a32cd" points="102.17,-11.12 92.54,-15.53 102.82,-18.08 102.17,-11.12"/>
<text text-anchor="middle" x="210.5" y="-97.31" font-family="Helvetica,sans-Serif" font-size="10.00"> DELIM_LEVELS</text>
<text text-anchor="middle" x="210.5" y="-86.31" font-family="Helvetica,sans-Serif" font-size="10.00">DELIM_NAMES</text>
<text text-anchor="middle" x="210.5" y="-75.31" font-family="Helvetica,sans-Serif" font-size="10.00">MOD_DEFAULT</text>
<text text-anchor="middle" x="210.5" y="-64.31" font-family="Helvetica,sans-Serif" font-size="10.00">OUT_DELIM_NAMES</text>
<text text-anchor="middle" x="210.5" y="-53.31" font-family="Helvetica,sans-Serif" font-size="10.00">USAGE_STR</text>
</g>
<!-- Node7 -->
<g id="node7" class="node">
<title>Node7</title>
<g id="a_node7"><a xlink:title=" ">
<polygon fill="white" stroke="#bfbfbf" points="289.5,-78.81 289.5,-97.81 372.5,-97.81 372.5,-78.81 289.5,-78.81"/>
<text text-anchor="middle" x="331" y="-85.81" font-family="Helvetica,sans-Serif" font-size="10.00">static ReportKt</text>
</a>
</g>
</g>
<!-- Node7&#45;&gt;Node1 -->
<g id="edge6" class="edge">
<title>Node7&#45;&gt;Node1</title>
<path fill="none" stroke="#9a32cd" stroke-dasharray="5,2" d="M382.66,-97.7C403.02,-101.65 426.68,-106.45 448,-111.31 455.3,-112.98 463.08,-114.89 470.5,-116.79"/>
<polygon fill="#9a32cd" stroke="#9a32cd" points="383.13,-94.23 372.65,-95.78 381.81,-101.1 383.13,-94.23"/>
<text text-anchor="middle" x="425" y="-114.31" font-family="Helvetica,sans-Serif" font-size="10.00"> repo</text>
</g>
<!-- Node8 -->
<g id="node8" class="node">
<title>Node8</title>
<g id="a_node8"><a xlink:title=" ">
<polygon fill="white" stroke="#bfbfbf" points="279,-40.81 279,-59.81 383,-59.81 383,-40.81 279,-40.81"/>
<text text-anchor="middle" x="331" y="-47.81" font-family="Helvetica,sans-Serif" font-size="10.00">FoldableStringBufKt</text>
</a>
</g>
</g>
<!-- Node8&#45;&gt;Node1 -->
<g id="edge7" class="edge">
<title>Node8&#45;&gt;Node1</title>
<path fill="none" stroke="#9a32cd" stroke-dasharray="5,2" d="M383.03,-62.54C403.74,-68.42 427.55,-76.37 448,-86.31 465.16,-94.65 482.95,-107.68 494.22,-116.59"/>
<polygon fill="#9a32cd" stroke="#9a32cd" points="383.71,-59.1 373.14,-59.82 381.86,-65.85 383.71,-59.1"/>
<text text-anchor="middle" x="425" y="-89.31" font-family="Helvetica,sans-Serif" font-size="10.00"> buf</text>
</g>
<!-- Node9&#45;&gt;Node1 -->
<g id="edge8" class="edge">
<title>Node9&#45;&gt;Node1</title>
<path fill="none" stroke="#9a32cd" stroke-dasharray="5,2" d="M373.76,-126.31C401.69,-126.31 438.25,-126.31 465.84,-126.31"/>
<polygon fill="#9a32cd" stroke="#9a32cd" points="373.51,-122.81 363.51,-126.31 373.51,-129.81 373.51,-122.81"/>
<text text-anchor="middle" x="425" y="-129.31" font-family="Helvetica,sans-Serif" font-size="10.00"> LOG</text>
</g>
<!-- Node10 -->
<g id="node10" class="node">
<title>Node10</title>
<g id="a_node10"><a xlink:title=" ">
<polygon fill="white" stroke="#bfbfbf" points="0,-97.31 0,-127.31 143,-127.31 143,-97.31 0,-97.31"/>
<text text-anchor="start" x="8" y="-115.31" font-family="Helvetica,sans-Serif" font-size="10.00">Map&lt; String, util.TraceLevel.</text>
<text text-anchor="middle" x="71.5" y="-104.31" font-family="Helvetica,sans-Serif" font-size="10.00">Level &gt;</text>
</a>
</g>
</g>
<!-- Node10&#45;&gt;Node9 -->
<g id="edge10" class="edge">
<title>Node10&#45;&gt;Node9</title>
<path fill="none" stroke="#9a32cd" stroke-dasharray="5,2" d="M153.51,-109.6C186.6,-109.31 225.2,-110.01 260,-113.31 272.67,-114.51 286.48,-116.85 298.46,-119.22"/>
<polygon fill="#9a32cd" stroke="#9a32cd" points="153.39,-106.1 143.43,-109.72 153.47,-113.1 153.39,-106.1"/>
<text text-anchor="middle" x="210.5" y="-116.31" font-family="Helvetica,sans-Serif" font-size="10.00"> mapLevel</text>
</g>
</g>
</svg>
        <g id="navigator" transform="translate(0 0)" fill="#404254">
                <rect fill="#f2f5e9" fill-opacity="0.5" stroke="#606060" stroke-width=".5" x="0" y="0" width="60" height="60"/>
                <use id="zoomplus" xlink:href="#zoomPlus" x="17" y="9" onmousedown="handleZoom(evt,'in')"/>
                <use id="zoomminus" xlink:href="#zoomMin" x="42" y="9" onmousedown="handleZoom(evt,'out')"/>
                <use id="reset" xlink:href="#resetDef" x="30" y="36" onmousedown="handleReset()"/>
                <g id="arrowUp" xlink:href="#dirArrow" transform="translate(30 24)" onmousedown="handlePan(0,-1)">
                  <use xlink:href="#rim" fill="#404040">
                        <set attributeName="fill" to="#808080" begin="arrowUp.mouseover" end="arrowUp.mouseout"/>
                  </use>
                  <path fill="none" stroke="white" stroke-width="1.5" d="M0,-3.0v7 M-2.5,-0.5L0,-3.0L2.5,-0.5"/>
                </g>
                <g id="arrowRight" xlink:href="#dirArrow" transform="rotate(90) translate(36 -43)" onmousedown="handlePan(1,0)">
                  <use xlink:href="#rim" fill="#404040">
                        <set attributeName="fill" to="#808080" begin="arrowRight.mouseover" end="arrowRight.mouseout"/>
                  </use>
                  <path fill="none" stroke="white" stroke-width="1.5" d="M0,-3.0v7 M-2.5,-0.5L0,-3.0L2.5,-0.5"/>
                </g>
                <g id="arrowDown" xlink:href="#dirArrow" transform="rotate(180) translate(-30 -48)" onmousedown="handlePan(0,1)">
                  <use xlink:href="#rim" fill="#404040">
                        <set attributeName="fill" to="#808080" begin="arrowDown.mouseover" end="arrowDown.mouseout"/>
                  </use>
                  <path fill="none" stroke="white" stroke-width="1.5" d="M0,-3.0v7 M-2.5,-0.5L0,-3.0L2.5,-0.5"/>
                </g>
                <g id="arrowLeft" xlink:href="#dirArrow" transform="rotate(270) translate(-36 17)" onmousedown="handlePan(-1,0)">
                  <use xlink:href="#rim" fill="#404040">
                        <set attributeName="fill" to="#808080" begin="arrowLeft.mouseover" end="arrowLeft.mouseout"/>
                  </use>
                  <path fill="none" stroke="white" stroke-width="1.5" d="M0,-3.0v7 M-2.5,-0.5L0,-3.0L2.5,-0.5"/>
                </g>
        </g>
        <svg viewBox="0 0 15 15" width="100%" height="30px" preserveAspectRatio="xMaxYMin meet">
         <g id="arrow_out" transform="scale(0.3 0.3)">
          <a xlink:href="classformat_1_1_node_formatter__coll__graph_org.svg" target="_base">
           <rect id="button" ry="5" rx="5" y="6" x="6" height="38" width="38"
                fill="#f2f5e9" fill-opacity="0.5" stroke="#606060" stroke-width="1.0"/>
           <path id="arrow"
             d="M 11.500037,31.436501 C 11.940474,20.09759 22.043105,11.32322 32.158766,21.979434 L 37.068811,17.246167 C 37.068811,17.246167 37.088388,32 37.088388,32 L 22.160133,31.978069 C 22.160133,31.978069 26.997745,27.140456 26.997745,27.140456 C 18.528582,18.264221 13.291696,25.230495 11.500037,31.436501 z"
             style="fill:#404040;"/>
          </a>
         </g>
        </svg>
</svg>
