<?xml version="1.0" encoding="UTF-8" standalone="no"?>
<!DOCTYPE svg PUBLIC "-//W3C//DTD SVG 1.1//EN"
 "http://www.w3.org/Graphics/SVG/1.1/DTD/svg11.dtd">
<!-- Generated by graphviz version 2.47.1 (20210417.1919)
 -->
<!-- Title: unifyMe Pages: 1 -->
<svg width="534pt" height="104pt"
 viewBox="0.00 0.00 534.00 104.00" xmlns="http://www.w3.org/2000/svg" xmlns:xlink="http://www.w3.org/1999/xlink">
<g id="graph0" class="graph" transform="scale(1 1) rotate(0) translate(4 100)">
<title>unifyMe</title>
<polygon fill="white" stroke="transparent" points="-4,4 -4,-100 530,-100 530,4 -4,4"/>
<!-- Node1 -->
<g id="node1" class="node">
<title>Node1</title>
<g id="a_node1"><a xlink:title="自分がもつ返値の型アイテムを与えられた型アイテムと単一化する．">
<polygon fill="#bfbfbf" stroke="black" points="0,-57.5 0,-76.5 51,-76.5 51,-57.5 0,-57.5"/>
<text text-anchor="middle" x="25.5" y="-64.5" font-family="Helvetica,sans-Serif" font-size="10.00">unifyMe</text>
</a>
</g>
</g>
<!-- Node2 -->
<g id="node2" class="node">
<title>Node2</title>
<g id="a_node2"><a xlink:href="classtype_1_1_type_item.html#afefb7cc16f9623dc5f1fc9b2a6433417" target="_top" xlink:title="この型変数thisと指定された型変数が単一化可能ならばtrueを返し、そうでなければfalseを返す。">
<polygon fill="white" stroke="black" points="87,-76.5 87,-95.5 205,-95.5 205,-76.5 87,-76.5"/>
<text text-anchor="middle" x="146" y="-83.5" font-family="Helvetica,sans-Serif" font-size="10.00">type.TypeItem.unifiable</text>
</a>
</g>
</g>
<!-- Node1&#45;&gt;Node2 -->
<g id="edge1" class="edge">
<title>Node1&#45;&gt;Node2</title>
<path fill="none" stroke="midnightblue" d="M51.05,-70.94C58.72,-72.17 67.58,-73.59 76.74,-75.06"/>
<polygon fill="midnightblue" stroke="midnightblue" points="76.32,-78.53 86.75,-76.66 77.43,-71.62 76.32,-78.53"/>
</g>
<!-- Node5 -->
<g id="node5" class="node">
<title>Node5</title>
<g id="a_node5"><a xlink:href="classtype_1_1_type_item.html#a6ce5a50989555a633ba32656e6b3a121" target="_top" xlink:title="この型変数thisと指定された型変数を単一化する（同じ同値類にする）。成功すればtrueを返し、そうでなければfalseを返す。">
<polygon fill="white" stroke="black" points="94.5,-38.5 94.5,-57.5 197.5,-57.5 197.5,-38.5 94.5,-38.5"/>
<text text-anchor="middle" x="146" y="-45.5" font-family="Helvetica,sans-Serif" font-size="10.00">type.TypeItem.unify</text>
</a>
</g>
</g>
<!-- Node1&#45;&gt;Node5 -->
<g id="edge5" class="edge">
<title>Node1&#45;&gt;Node5</title>
<path fill="none" stroke="midnightblue" d="M51.05,-63.06C60.7,-61.52 72.24,-59.67 83.88,-57.8"/>
<polygon fill="midnightblue" stroke="midnightblue" points="84.77,-61.2 94.09,-56.16 83.66,-54.29 84.77,-61.2"/>
</g>
<!-- Node3 -->
<g id="node3" class="node">
<title>Node3</title>
<g id="a_node3"><a xlink:href="classtype_1_1_type_item.html#ab2779590ca497b3e0b72a642b69a4c9a" target="_top" xlink:title="この型アイテムthisがもつ値型XTypeを返す。">
<polygon fill="white" stroke="black" points="252,-76.5 252,-95.5 358,-95.5 358,-76.5 252,-76.5"/>
<text text-anchor="middle" x="305" y="-83.5" font-family="Helvetica,sans-Serif" font-size="10.00">type.TypeItem.xtype</text>
</a>
</g>
</g>
<!-- Node2&#45;&gt;Node3 -->
<g id="edge2" class="edge">
<title>Node2&#45;&gt;Node3</title>
<path fill="none" stroke="midnightblue" d="M205.01,-86C217.03,-86 229.72,-86 241.88,-86"/>
<polygon fill="midnightblue" stroke="midnightblue" points="241.93,-89.5 251.93,-86 241.93,-82.5 241.93,-89.5"/>
</g>
<!-- Node4 -->
<g id="node4" class="node">
<title>Node4</title>
<g id="a_node4"><a xlink:href="classtype_1_1_union_find_item.html#a9389ec55354a215f76de769c1e149985" target="_top" xlink:title="与えられた元が属する同値類の代表元を返す。">
<polygon fill="white" stroke="black" points="405,-38.5 405,-57.5 526,-57.5 526,-38.5 405,-38.5"/>
<text text-anchor="middle" x="465.5" y="-45.5" font-family="Helvetica,sans-Serif" font-size="10.00">type.UnionFindItem.find</text>
</a>
</g>
</g>
<!-- Node3&#45;&gt;Node4 -->
<g id="edge3" class="edge">
<title>Node3&#45;&gt;Node4</title>
<path fill="none" stroke="midnightblue" d="M346,-76.41C366.91,-71.4 392.71,-65.21 414.89,-59.89"/>
<polygon fill="midnightblue" stroke="midnightblue" points="415.88,-63.26 424.79,-57.52 414.25,-56.45 415.88,-63.26"/>
</g>
<!-- Node4&#45;&gt;Node4 -->
<g id="edge4" class="edge">
<title>Node4&#45;&gt;Node4</title>
<path fill="none" stroke="midnightblue" d="M440.84,-57.76C428.84,-66.57 437.06,-76 465.5,-76 484.61,-76 494.59,-71.74 495.44,-66.27"/>
<polygon fill="midnightblue" stroke="midnightblue" points="498.4,-64.41 490.16,-57.76 492.45,-68.1 498.4,-64.41"/>
</g>
<!-- Node5&#45;&gt;Node3 -->
<g id="edge9" class="edge">
<title>Node5&#45;&gt;Node3</title>
<path fill="none" stroke="midnightblue" d="M186.62,-57.59C207.34,-62.6 232.89,-68.79 254.86,-74.11"/>
<polygon fill="midnightblue" stroke="midnightblue" points="254.12,-77.53 264.67,-76.48 255.77,-70.73 254.12,-77.53"/>
</g>
<!-- Node6 -->
<g id="node6" class="node">
<title>Node6</title>
<g id="a_node6"><a xlink:href="enumtype_1_1_x_type.html#a56bd5bc246f87ecc5987ec1cced2ca85" target="_top" xlink:title="値型xt0と値型xt1の単一化（最大下界）xtを返す。 返り値がXType.Nothingは，単一化不可能を意味する．">
<polygon fill="white" stroke="black" points="259.5,-38.5 259.5,-57.5 350.5,-57.5 350.5,-38.5 259.5,-38.5"/>
<text text-anchor="middle" x="305" y="-45.5" font-family="Helvetica,sans-Serif" font-size="10.00">type.XType.meet</text>
</a>
</g>
</g>
<!-- Node5&#45;&gt;Node6 -->
<g id="edge6" class="edge">
<title>Node5&#45;&gt;Node6</title>
<path fill="none" stroke="midnightblue" d="M197.54,-48C214.02,-48 232.39,-48 249.17,-48"/>
<polygon fill="midnightblue" stroke="midnightblue" points="249.38,-51.5 259.38,-48 249.38,-44.5 249.38,-51.5"/>
</g>
<!-- Node7 -->
<g id="node7" class="node">
<title>Node7</title>
<g id="a_node7"><a xlink:href="classtype_1_1_union_find_item.html#a5d2f3e9121ceab808329981e2daed56d" target="_top" xlink:title="自身の同値類と与えられた元の同値類を併合して、代表元を返す。">
<polygon fill="white" stroke="black" points="241,-0.5 241,-19.5 369,-19.5 369,-0.5 241,-0.5"/>
<text text-anchor="middle" x="305" y="-7.5" font-family="Helvetica,sans-Serif" font-size="10.00">type.UnionFindItem.union</text>
</a>
</g>
</g>
<!-- Node5&#45;&gt;Node7 -->
<g id="edge7" class="edge">
<title>Node5&#45;&gt;Node7</title>
<path fill="none" stroke="midnightblue" d="M186.62,-38.41C207.34,-33.4 232.89,-27.21 254.86,-21.89"/>
<polygon fill="midnightblue" stroke="midnightblue" points="255.77,-25.27 264.67,-19.52 254.12,-18.47 255.77,-25.27"/>
</g>
<!-- Node7&#45;&gt;Node4 -->
<g id="edge8" class="edge">
<title>Node7&#45;&gt;Node4</title>
<path fill="none" stroke="midnightblue" d="M346,-19.59C366.91,-24.6 392.71,-30.79 414.89,-36.11"/>
<polygon fill="midnightblue" stroke="midnightblue" points="414.25,-39.55 424.79,-38.48 415.88,-32.74 414.25,-39.55"/>
</g>
</g>
</svg>
