<?xml version="1.0" encoding="UTF-8" standalone="no"?>
<!DOCTYPE svg PUBLIC "-//W3C//DTD SVG 1.1//EN"
 "http://www.w3.org/Graphics/SVG/1.1/DTD/svg11.dtd">
<!-- Generated by graphviz version 2.38.0 (20140413.2041)
 -->
<!-- Title: AstDataReader.ReaderGetText Pages: 1 -->
<svg width="333pt" height="302pt"
 viewBox="0.00 0.00 332.88 302.00" xmlns="http://www.w3.org/2000/svg" xmlns:xlink="http://www.w3.org/1999/xlink">
<g id="graph0" class="graph" transform="scale(1 1) rotate(0) translate(4 298)">
<title>AstDataReader.ReaderGetText</title>
<polygon fill="white" stroke="none" points="-4,4 -4,-298 328.879,-298 328.879,4 -4,4"/>
<!-- Node1 -->
<g id="node1" class="node"><title>Node1</title>
<g id="a_node1"><a xlink:title=" ">
<polygon fill="#bfbfbf" stroke="black" points="111.249,-0.5 111.249,-18.5 265.105,-18.5 265.105,-0.5 111.249,-0.5"/>
<text text-anchor="middle" x="188.177" y="-6.5" font-family="Helvetica,sans-Serif" font-size="10.00">AstDataReader.ReaderGetText</text>
</a>
</g>
</g>
<!-- Node2 -->
<g id="node2" class="node"><title>Node2</title>
<g id="a_node2"><a xlink:href="classast_1_1_ast_data_reader.html" target="_top" xlink:title="値の読み出しオブジェクト．">
<polygon fill="white" stroke="black" points="94.9927,-55.5 94.9927,-73.5 179.362,-73.5 179.362,-55.5 94.9927,-55.5"/>
<text text-anchor="middle" x="137.177" y="-61.5" font-family="Helvetica,sans-Serif" font-size="10.00">AstDataReader</text>
</a>
</g>
</g>
<!-- Node2&#45;&gt;Node1 -->
<g id="edge1" class="edge"><title>Node2&#45;&gt;Node1</title>
<path fill="none" stroke="midnightblue" d="M152.263,-47.8223C161.518,-38.2051 172.981,-26.2917 180.431,-18.5496"/>
<polygon fill="midnightblue" stroke="midnightblue" points="149.558,-45.5862 145.146,-55.2188 154.602,-50.4398 149.558,-45.5862"/>
</g>
<!-- Node3 -->
<g id="node3" class="node"><title>Node3</title>
<g id="a_node3"><a xlink:href="classast_1_1_ast_atom.html" target="_top" xlink:title="値型をもつ終端オブジェクトのクラス">
<polygon fill="white" stroke="black" points="52.2832,-110.5 52.2832,-128.5 106.071,-128.5 106.071,-110.5 52.2832,-110.5"/>
<text text-anchor="middle" x="79.1772" y="-116.5" font-family="Helvetica,sans-Serif" font-size="10.00">AstAtom</text>
</a>
</g>
</g>
<!-- Node3&#45;&gt;Node2 -->
<g id="edge2" class="edge"><title>Node3&#45;&gt;Node2</title>
<path fill="none" stroke="midnightblue" d="M95.7056,-103.397C106.335,-93.6833 119.726,-81.4466 128.368,-73.5496"/>
<polygon fill="midnightblue" stroke="midnightblue" points="93.2609,-100.889 88.2397,-110.219 97.9829,-106.057 93.2609,-100.889"/>
</g>
<!-- Node4 -->
<g id="node4" class="node"><title>Node4</title>
<g id="a_node4"><a xlink:href="classast_1_1_ast_terminal.html" target="_top" xlink:title="値型をもたない終端オブジェクトのクラス">
<polygon fill="white" stroke="black" points="41.0591,-165.5 41.0591,-183.5 109.295,-183.5 109.295,-165.5 41.0591,-165.5"/>
<text text-anchor="middle" x="75.1772" y="-171.5" font-family="Helvetica,sans-Serif" font-size="10.00">AstTerminal</text>
</a>
</g>
</g>
<!-- Node4&#45;&gt;Node3 -->
<g id="edge3" class="edge"><title>Node4&#45;&gt;Node3</title>
<path fill="none" stroke="midnightblue" d="M76.5603,-155.175C77.2456,-146.094 78.038,-135.595 78.5697,-128.55"/>
<polygon fill="midnightblue" stroke="midnightblue" points="73.0648,-154.984 75.8022,-165.219 80.045,-155.511 73.0648,-154.984"/>
</g>
<!-- Node5 -->
<g id="node5" class="node"><title>Node5</title>
<g id="a_node5"><a xlink:href="classast_1_1_ast_node.html" target="_top" xlink:title=" ">
<polygon fill="white" stroke="black" points="0,-220.5 0,-238.5 54.3545,-238.5 54.3545,-220.5 0,-220.5"/>
<text text-anchor="middle" x="27.1772" y="-226.5" font-family="Helvetica,sans-Serif" font-size="10.00">AstNode</text>
</a>
</g>
</g>
<!-- Node5&#45;&gt;Node4 -->
<g id="edge4" class="edge"><title>Node5&#45;&gt;Node4</title>
<path fill="none" stroke="midnightblue" d="M41.6378,-212.533C50.3012,-202.967 60.9454,-191.214 67.8871,-183.55"/>
<polygon fill="midnightblue" stroke="midnightblue" points="38.7958,-210.457 34.6772,-220.219 43.9843,-215.156 38.7958,-210.457"/>
</g>
<!-- Node6 -->
<g id="node6" class="node"><title>Node6</title>
<g id="a_node6"><a xlink:href="interfaceformat_1_1_x_formattable.html" target="_top" xlink:title="入れ子フォーマット出力可能なオブジェクトのインタフェース。">
<polygon fill="white" stroke="black" points="102.165,-275.5 102.165,-293.5 178.189,-293.5 178.189,-275.5 102.165,-275.5"/>
<text text-anchor="middle" x="140.177" y="-281.5" font-family="Helvetica,sans-Serif" font-size="10.00">XFormattable</text>
</a>
</g>
</g>
<!-- Node6&#45;&gt;Node5 -->
<g id="edge5" class="edge"><title>Node6&#45;&gt;Node5</title>
<path fill="none" stroke="midnightblue" d="M113.842,-271.148C92.4821,-261.13 62.9836,-247.294 44.501,-238.625"/>
<polygon fill="midnightblue" stroke="midnightblue" points="112.475,-274.373 123.015,-275.45 115.448,-268.035 112.475,-274.373"/>
</g>
<!-- Node7 -->
<g id="node7" class="node"><title>Node7</title>
<g id="a_node7"><a xlink:href="interfaceformat_1_1_x_formattable_1_1_terminatable.html" target="_top" xlink:title="木構造の終端として清書可能なオブジェクトのクラス">
<polygon fill="white" stroke="black" points="72.1504,-220.5 72.1504,-238.5 208.204,-238.5 208.204,-220.5 72.1504,-220.5"/>
<text text-anchor="middle" x="140.177" y="-226.5" font-family="Helvetica,sans-Serif" font-size="10.00">XFormattable.Terminatable</text>
</a>
</g>
</g>
<!-- Node6&#45;&gt;Node7 -->
<g id="edge7" class="edge"><title>Node6&#45;&gt;Node7</title>
<path fill="none" stroke="midnightblue" d="M140.177,-265.175C140.177,-256.094 140.177,-245.595 140.177,-238.55"/>
<polygon fill="midnightblue" stroke="midnightblue" points="136.677,-265.219 140.177,-275.219 143.677,-265.219 136.677,-265.219"/>
</g>
<!-- Node8 -->
<g id="node8" class="node"><title>Node8</title>
<g id="a_node8"><a xlink:href="interfaceformat_1_1_x_formattable_1_1_typed_formattable.html" target="_top" xlink:title="ノードの型情報をもつ書式出力可能なオブジェクトのインタフェース．">
<polygon fill="white" stroke="black" points="165.476,-165.5 165.476,-183.5 324.879,-183.5 324.879,-165.5 165.476,-165.5"/>
<text text-anchor="middle" x="245.177" y="-171.5" font-family="Helvetica,sans-Serif" font-size="10.00">XFormattable.TypedFormattable</text>
</a>
</g>
</g>
<!-- Node6&#45;&gt;Node8 -->
<g id="edge10" class="edge"><title>Node6&#45;&gt;Node8</title>
<path fill="none" stroke="midnightblue" d="M171.146,-271.165C186.603,-263.741 204.628,-252.993 217.177,-239 231.978,-222.495 239.968,-196.912 243.291,-183.827"/>
<polygon fill="midnightblue" stroke="midnightblue" points="169.581,-268.032 161.927,-275.358 172.478,-274.404 169.581,-268.032"/>
</g>
<!-- Node7&#45;&gt;Node2 -->
<g id="edge8" class="edge"><title>Node7&#45;&gt;Node2</title>
<path fill="none" stroke="midnightblue" d="M139.834,-209.841C139.181,-174.362 137.784,-98.4924 137.326,-73.5971"/>
<polygon fill="midnightblue" stroke="midnightblue" points="136.341,-210.259 140.024,-220.193 143.34,-210.13 136.341,-210.259"/>
</g>
<!-- Node7&#45;&gt;Node4 -->
<g id="edge6" class="edge"><title>Node7&#45;&gt;Node4</title>
<path fill="none" stroke="midnightblue" d="M122.303,-213.926C110.329,-204.162 95.0076,-191.669 85.1423,-183.625"/>
<polygon fill="midnightblue" stroke="midnightblue" points="120.343,-216.844 130.305,-220.45 124.767,-211.418 120.343,-216.844"/>
</g>
<!-- Node8&#45;&gt;Node2 -->
<g id="edge9" class="edge"><title>Node8&#45;&gt;Node2</title>
<path fill="none" stroke="midnightblue" d="M229.749,-158.071C206.522,-134.845 163.381,-91.7038 145.389,-73.7118"/>
<polygon fill="midnightblue" stroke="midnightblue" points="227.514,-160.786 237.06,-165.382 232.463,-155.836 227.514,-160.786"/>
</g>
<!-- Node9 -->
<g id="node9" class="node"><title>Node9</title>
<g id="a_node9"><a xlink:href="class_evaluable_string.html" target="_top" xlink:title=" ">
<polygon fill="white" stroke="black" points="197.155,-55.5 197.155,-73.5 283.199,-73.5 283.199,-55.5 197.155,-55.5"/>
<text text-anchor="middle" x="240.177" y="-61.5" font-family="Helvetica,sans-Serif" font-size="10.00">EvaluableString</text>
</a>
</g>
</g>
<!-- Node9&#45;&gt;Node1 -->
<g id="edge11" class="edge"><title>Node9&#45;&gt;Node1</title>
<path fill="none" stroke="midnightblue" d="M224.795,-47.8223C215.36,-38.2051 203.671,-26.2917 196.075,-18.5496"/>
<polygon fill="midnightblue" stroke="midnightblue" points="222.55,-50.5318 232.052,-55.2188 227.547,-45.6294 222.55,-50.5318"/>
</g>
</g>
</svg>
