<?xml version="1.0" encoding="UTF-8" standalone="no"?>
<!DOCTYPE svg PUBLIC "-//W3C//DTD SVG 1.1//EN"
 "http://www.w3.org/Graphics/SVG/1.1/DTD/svg11.dtd">
<!-- Generated by graphviz version 2.47.1 (20210417.1919)
 -->
<!-- Title: XppEventReader Pages: 1 -->
<svg width="575pt" height="357pt"
 viewBox="0.00 0.00 575.00 357.00" xmlns="http://www.w3.org/2000/svg" xmlns:xlink="http://www.w3.org/1999/xlink">
<g id="graph0" class="graph" transform="scale(1 1) rotate(0) translate(4 353)">
<title>XppEventReader</title>
<polygon fill="white" stroke="transparent" points="-4,4 -4,-353 571,-353 571,4 -4,4"/>
<!-- Node1 -->
<g id="node1" class="node">
<title>Node1</title>
<g id="a_node1"><a xlink:title=" ">
<polygon fill="#bfbfbf" stroke="black" points="476,-172.5 476,-191.5 567,-191.5 567,-172.5 476,-172.5"/>
<text text-anchor="middle" x="521.5" y="-179.5" font-family="Helvetica,sans-Serif" font-size="10.00">XppEventReader</text>
</a>
</g>
</g>
<!-- Node2 -->
<g id="node2" class="node">
<title>Node2</title>
<g id="a_node2"><a xlink:href="interfaceevent_1_1_event_readable.html" target="_top" xlink:title="構造文書走査器が備えるべき機能を記述するインタフェース.">
<polygon fill="white" stroke="black" points="300.5,-310.5 300.5,-329.5 383.5,-329.5 383.5,-310.5 300.5,-310.5"/>
<text text-anchor="middle" x="342" y="-317.5" font-family="Helvetica,sans-Serif" font-size="10.00">EventReadable</text>
</a>
</g>
</g>
<!-- Node2&#45;&gt;Node1 -->
<g id="edge1" class="edge">
<title>Node2&#45;&gt;Node1</title>
<path fill="none" stroke="midnightblue" d="M393.42,-311.56C402.89,-308.92 412.48,-305.47 421,-301 469.64,-275.45 503.94,-215.06 515.87,-191.57"/>
<polygon fill="midnightblue" stroke="midnightblue" points="392.48,-308.19 383.64,-314.03 394.19,-314.97 392.48,-308.19"/>
</g>
<!-- Node3 -->
<g id="node3" class="node">
<title>Node3</title>
<g id="a_node3"><a xlink:href="class_iterable.html" target="_top" xlink:title=" ">
<polygon fill="white" stroke="black" points="21.5,-329.5 21.5,-348.5 113.5,-348.5 113.5,-329.5 21.5,-329.5"/>
<text text-anchor="middle" x="67.5" y="-336.5" font-family="Helvetica,sans-Serif" font-size="10.00">Iterable&lt; Event &gt;</text>
</a>
</g>
</g>
<!-- Node3&#45;&gt;Node2 -->
<g id="edge2" class="edge">
<title>Node3&#45;&gt;Node2</title>
<path fill="none" stroke="midnightblue" d="M123.93,-335.14C176.31,-331.48 253.65,-326.09 300.48,-322.82"/>
<polygon fill="midnightblue" stroke="midnightblue" points="123.54,-331.65 113.8,-335.84 124.02,-338.64 123.54,-331.65"/>
</g>
<!-- Node4 -->
<g id="node4" class="node">
<title>Node4</title>
<g id="a_node4"><a xlink:title=" ">
<polygon fill="white" stroke="#bfbfbf" points="46.5,-291.5 46.5,-310.5 88.5,-310.5 88.5,-291.5 46.5,-291.5"/>
<text text-anchor="middle" x="67.5" y="-298.5" font-family="Helvetica,sans-Serif" font-size="10.00">String</text>
</a>
</g>
</g>
<!-- Node4&#45;&gt;Node2 -->
<g id="edge3" class="edge">
<title>Node4&#45;&gt;Node2</title>
<path fill="none" stroke="#9a32cd" stroke-dasharray="5,2" d="M98.71,-302.69C133.87,-304.7 193.66,-308.26 245,-312 263.18,-313.32 283.28,-314.97 300.38,-316.43"/>
<polygon fill="#9a32cd" stroke="#9a32cd" points="98.81,-299.19 88.63,-302.12 98.41,-306.18 98.81,-299.19"/>
<text text-anchor="middle" x="199" y="-315" font-family="Helvetica,sans-Serif" font-size="10.00"> ROOT_TAG</text>
</g>
<!-- Node5 -->
<g id="node5" class="node">
<title>Node5</title>
<g id="a_node5"><a xlink:title=" ">
<polygon fill="white" stroke="#bfbfbf" points="318,-272.5 318,-291.5 366,-291.5 366,-272.5 318,-272.5"/>
<text text-anchor="middle" x="342" y="-279.5" font-family="Helvetica,sans-Serif" font-size="10.00">Reader</text>
</a>
</g>
</g>
<!-- Node5&#45;&gt;Node1 -->
<g id="edge4" class="edge">
<title>Node5&#45;&gt;Node1</title>
<path fill="none" stroke="#9a32cd" stroke-dasharray="5,2" d="M375.98,-276.39C390.16,-273.36 406.73,-268.99 421,-263 460.43,-246.44 496.68,-209.16 512.35,-191.55"/>
<polygon fill="#9a32cd" stroke="#9a32cd" points="375.25,-272.96 366.14,-278.36 376.63,-279.83 375.25,-272.96"/>
<text text-anchor="middle" x="448.5" y="-256" font-family="Helvetica,sans-Serif" font-size="10.00"> is</text>
</g>
<!-- Node6 -->
<g id="node6" class="node">
<title>Node6</title>
<g id="a_node6"><a xlink:title=" ">
<polygon fill="white" stroke="#bfbfbf" points="302.5,-234.5 302.5,-253.5 381.5,-253.5 381.5,-234.5 302.5,-234.5"/>
<text text-anchor="middle" x="342" y="-241.5" font-family="Helvetica,sans-Serif" font-size="10.00">XmlPullParser</text>
</a>
</g>
</g>
<!-- Node6&#45;&gt;Node1 -->
<g id="edge5" class="edge">
<title>Node6&#45;&gt;Node1</title>
<path fill="none" stroke="#9a32cd" stroke-dasharray="5,2" d="M391.65,-236.99C412.53,-233.08 436.92,-227.28 458,-219 476.07,-211.9 495.02,-199.95 507.25,-191.56"/>
<polygon fill="#9a32cd" stroke="#9a32cd" points="390.94,-233.56 381.71,-238.76 392.17,-240.45 390.94,-233.56"/>
<text text-anchor="middle" x="448.5" y="-228" font-family="Helvetica,sans-Serif" font-size="10.00"> xpp</text>
</g>
<!-- Node7 -->
<g id="node7" class="node">
<title>Node7</title>
<g id="a_node7"><a xlink:title=" ">
<polygon fill="white" stroke="#bfbfbf" points="53,-177.5 53,-196.5 82,-196.5 82,-177.5 53,-177.5"/>
<text text-anchor="middle" x="67.5" y="-184.5" font-family="Helvetica,sans-Serif" font-size="10.00">int</text>
</a>
</g>
</g>
<!-- Node7&#45;&gt;Node1 -->
<g id="edge6" class="edge">
<title>Node7&#45;&gt;Node1</title>
<path fill="none" stroke="#9a32cd" stroke-dasharray="5,2" d="M92.36,-188.43C109.28,-189.37 132.52,-190.52 153,-191 288.52,-194.21 322.64,-195.44 458,-188 463.77,-187.68 469.83,-187.24 475.81,-186.74"/>
<polygon fill="#9a32cd" stroke="#9a32cd" points="92.43,-184.93 82.25,-187.85 92.03,-191.92 92.43,-184.93"/>
<text text-anchor="middle" x="342" y="-196" font-family="Helvetica,sans-Serif" font-size="10.00"> eventType</text>
</g>
<!-- Node10 -->
<g id="node10" class="node">
<title>Node10</title>
<g id="a_node10"><a xlink:href="classevent_1_1_event_manager.html" target="_top" xlink:title="イベントのメモリ管理モジュールのクラス.">
<polygon fill="white" stroke="black" points="302,-111.5 302,-130.5 382,-130.5 382,-111.5 302,-111.5"/>
<text text-anchor="middle" x="342" y="-118.5" font-family="Helvetica,sans-Serif" font-size="10.00">EventManager</text>
</a>
</g>
</g>
<!-- Node7&#45;&gt;Node10 -->
<g id="edge10" class="edge">
<title>Node7&#45;&gt;Node10</title>
<path fill="none" stroke="#9a32cd" stroke-dasharray="5,2" d="M92.2,-181.78C133.33,-172.68 216.3,-154.1 245,-146 253.12,-143.71 254.9,-142.33 263,-140 275.59,-136.38 289.45,-132.85 301.95,-129.84"/>
<polygon fill="#9a32cd" stroke="#9a32cd" points="91.25,-178.41 82.24,-183.98 92.76,-185.24 91.25,-178.41"/>
<text text-anchor="middle" x="199" y="-181" font-family="Helvetica,sans-Serif" font-size="10.00"> count</text>
<text text-anchor="middle" x="199" y="-170" font-family="Helvetica,sans-Serif" font-size="10.00">maxnum</text>
</g>
<!-- Node8 -->
<g id="node8" class="node">
<title>Node8</title>
<g id="a_node8"><a xlink:title=" ">
<polygon fill="white" stroke="#bfbfbf" points="293,-149.5 293,-168.5 391,-168.5 391,-149.5 293,-149.5"/>
<text text-anchor="middle" x="342" y="-156.5" font-family="Helvetica,sans-Serif" font-size="10.00">AutoStack&lt; Env &gt;</text>
</a>
</g>
</g>
<!-- Node8&#45;&gt;Node1 -->
<g id="edge7" class="edge">
<title>Node8&#45;&gt;Node1</title>
<path fill="none" stroke="#9a32cd" stroke-dasharray="5,2" d="M401.19,-166.54C425.45,-169.68 453.17,-173.28 475.78,-176.21"/>
<polygon fill="#9a32cd" stroke="#9a32cd" points="401.4,-163.04 391.03,-165.22 400.5,-169.98 401.4,-163.04"/>
<text text-anchor="middle" x="448.5" y="-176" font-family="Helvetica,sans-Serif" font-size="10.00"> SS</text>
</g>
<!-- Node9 -->
<g id="node9" class="node">
<title>Node9</title>
<g id="a_node9"><a xlink:title=" ">
<polygon fill="white" stroke="#bfbfbf" points="42.5,-60.5 42.5,-79.5 92.5,-79.5 92.5,-60.5 42.5,-60.5"/>
<text text-anchor="middle" x="67.5" y="-67.5" font-family="Helvetica,sans-Serif" font-size="10.00">boolean</text>
</a>
</g>
</g>
<!-- Node9&#45;&gt;Node1 -->
<g id="edge8" class="edge">
<title>Node9&#45;&gt;Node1</title>
<path fill="none" stroke="#9a32cd" stroke-dasharray="5,2" d="M103.09,-62.77C168.44,-50.84 313.17,-32.74 421,-80 466.32,-99.86 501.56,-150.95 514.8,-172.34"/>
<polygon fill="#9a32cd" stroke="#9a32cd" points="102.11,-59.39 92.93,-64.69 103.41,-66.27 102.11,-59.39"/>
<text text-anchor="middle" x="342" y="-94" font-family="Helvetica,sans-Serif" font-size="10.00"> DEBUG_XPP</text>
<text text-anchor="middle" x="342" y="-83" font-family="Helvetica,sans-Serif" font-size="10.00">reachEOS</text>
</g>
<!-- Node9&#45;&gt;Node10 -->
<g id="edge12" class="edge">
<title>Node9&#45;&gt;Node10</title>
<path fill="none" stroke="#9a32cd" stroke-dasharray="5,2" d="M102.81,-76.42C153.52,-85.91 248.24,-103.64 301.69,-113.64"/>
<polygon fill="#9a32cd" stroke="#9a32cd" points="103.16,-72.93 92.68,-74.53 101.87,-79.81 103.16,-72.93"/>
<text text-anchor="middle" x="199" y="-104" font-family="Helvetica,sans-Serif" font-size="10.00"> DEBUG_STOP_GC</text>
</g>
<!-- Node10&#45;&gt;Node1 -->
<g id="edge9" class="edge">
<title>Node10&#45;&gt;Node1</title>
<path fill="none" stroke="#9a32cd" stroke-dasharray="5,2" d="M392.12,-131.69C401.77,-134.15 411.77,-136.95 421,-140 449.13,-149.3 480.44,-163.12 500.29,-172.33"/>
<polygon fill="#9a32cd" stroke="#9a32cd" points="392.78,-128.25 382.23,-129.26 391.1,-135.05 392.78,-128.25"/>
<text text-anchor="middle" x="448.5" y="-156" font-family="Helvetica,sans-Serif" font-size="10.00"> EM</text>
</g>
<!-- Node11 -->
<g id="node11" class="node">
<title>Node11</title>
<g id="a_node11"><a xlink:title=" ">
<polygon fill="white" stroke="#bfbfbf" points="0,-113.5 0,-132.5 135,-132.5 135,-113.5 0,-113.5"/>
<text text-anchor="middle" x="67.5" y="-120.5" font-family="Helvetica,sans-Serif" font-size="10.00">Stack&lt; event.EventBase &gt;</text>
</a>
</g>
</g>
<!-- Node11&#45;&gt;Node10 -->
<g id="edge11" class="edge">
<title>Node11&#45;&gt;Node10</title>
<path fill="none" stroke="#9a32cd" stroke-dasharray="5,2" d="M145.18,-122.44C196.24,-122.06 261.21,-121.59 301.96,-121.29"/>
<polygon fill="#9a32cd" stroke="#9a32cd" points="145.14,-118.94 135.16,-122.51 145.19,-125.94 145.14,-118.94"/>
<text text-anchor="middle" x="199" y="-136" font-family="Helvetica,sans-Serif" font-size="10.00"> freeStack</text>
<text text-anchor="middle" x="199" y="-125" font-family="Helvetica,sans-Serif" font-size="10.00">testStack</text>
</g>
<!-- Node12 -->
<g id="node12" class="node">
<title>Node12</title>
<g id="a_node12"><a xlink:title=" ">
<polygon fill="white" stroke="#bfbfbf" points="263,-0.5 263,-19.5 421,-19.5 421,-0.5 263,-0.5"/>
<text text-anchor="middle" x="342" y="-7.5" font-family="Helvetica,sans-Serif" font-size="10.00">StackBase&lt; event.EventBase &gt;</text>
</a>
</g>
</g>
<!-- Node12&#45;&gt;Node1 -->
<g id="edge13" class="edge">
<title>Node12&#45;&gt;Node1</title>
<path fill="none" stroke="#9a32cd" stroke-dasharray="5,2" d="M430.77,-16.36C440.62,-19.79 449.98,-24.52 458,-31 504.13,-68.26 516.59,-145.33 519.62,-172.37"/>
<polygon fill="#9a32cd" stroke="#9a32cd" points="431.78,-13.01 421.2,-13.47 429.75,-19.71 431.78,-13.01"/>
<text text-anchor="middle" x="448.5" y="-34" font-family="Helvetica,sans-Serif" font-size="10.00"> ES</text>
</g>
</g>
</svg>
