<?xml version="1.0" encoding="UTF-8" standalone="no"?>
<!DOCTYPE svg PUBLIC "-//W3C//DTD SVG 1.1//EN"
 "http://www.w3.org/Graphics/SVG/1.1/DTD/svg11.dtd">
<!-- Generated by graphviz version 2.47.0 (20210316.0004)
 -->
<!-- Title: SentList.ListWrapper&lt; T &gt; Pages: 1 -->
<svg width="466pt" height="252pt"
 viewBox="0.00 0.00 465.50 252.00" xmlns="http://www.w3.org/2000/svg" xmlns:xlink="http://www.w3.org/1999/xlink">
<g id="graph0" class="graph" transform="scale(1 1) rotate(0) translate(4 248)">
<title>SentList.ListWrapper&lt; T &gt;</title>
<polygon fill="white" stroke="transparent" points="-4,4 -4,-248 461.5,-248 461.5,4 -4,4"/>
<!-- Node1 -->
<g id="node1" class="node">
<title>Node1</title>
<g id="a_node1"><a xlink:title="Javaの基本型データの清書用の包み込みアトム">
<polygon fill="#bfbfbf" stroke="black" points="189,-0.5 189,-19.5 320,-19.5 320,-0.5 189,-0.5"/>
<text text-anchor="middle" x="254.5" y="-7.5" font-family="Helvetica,sans-Serif" font-size="10.00">SentList.ListWrapper&lt; T &gt;</text>
</a>
</g>
</g>
<!-- Node2 -->
<g id="node2" class="node">
<title>Node2</title>
<g id="a_node2"><a xlink:href="classast_1_1_sent_list.html" target="_top" xlink:title="文Sentenceのリスト.">
<polygon fill="white" stroke="black" points="180,-56.5 180,-75.5 233,-75.5 233,-56.5 180,-56.5"/>
<text text-anchor="middle" x="206.5" y="-63.5" font-family="Helvetica,sans-Serif" font-size="10.00">SentList</text>
</a>
</g>
</g>
<!-- Node2&#45;&gt;Node1 -->
<g id="edge1" class="edge">
<title>Node2&#45;&gt;Node1</title>
<path fill="none" stroke="midnightblue" d="M221.23,-48.43C229.64,-38.97 239.85,-27.48 246.72,-19.75"/>
<polygon fill="midnightblue" stroke="midnightblue" points="218.45,-46.28 214.43,-56.08 223.69,-50.93 218.45,-46.28"/>
</g>
<!-- Node3 -->
<g id="node3" class="node">
<title>Node3</title>
<g id="a_node3"><a xlink:href="classast_1_1_ast_node.html" target="_top" xlink:title="タグなしの順アクセスの子供をもてる抽象構文木のノードのクラス。">
<polygon fill="white" stroke="black" points="139,-112.5 139,-131.5 194,-131.5 194,-112.5 139,-112.5"/>
<text text-anchor="middle" x="166.5" y="-119.5" font-family="Helvetica,sans-Serif" font-size="10.00">AstNode</text>
</a>
</g>
</g>
<!-- Node3&#45;&gt;Node2 -->
<g id="edge2" class="edge">
<title>Node3&#45;&gt;Node2</title>
<path fill="none" stroke="midnightblue" d="M179.2,-103.86C186.13,-94.5 194.41,-83.33 200.02,-75.75"/>
<polygon fill="midnightblue" stroke="midnightblue" points="176.25,-101.96 173.11,-112.08 181.87,-106.13 176.25,-101.96"/>
</g>
<!-- Node4 -->
<g id="node4" class="node">
<title>Node4</title>
<g id="a_node4"><a xlink:href="classast_1_1_ast_node_base.html" target="_top" xlink:title=" ">
<polygon fill="white" stroke="black" points="0,-168.5 0,-187.5 77,-187.5 77,-168.5 0,-168.5"/>
<text text-anchor="middle" x="38.5" y="-175.5" font-family="Helvetica,sans-Serif" font-size="10.00">AstNodeBase</text>
</a>
</g>
</g>
<!-- Node4&#45;&gt;Node3 -->
<g id="edge3" class="edge">
<title>Node4&#45;&gt;Node3</title>
<path fill="none" stroke="midnightblue" d="M68.12,-164.5C92.12,-154.38 125.28,-140.39 146.31,-131.52"/>
<polygon fill="midnightblue" stroke="midnightblue" points="66.64,-161.33 58.78,-168.44 69.36,-167.78 66.64,-161.33"/>
</g>
<!-- Node5 -->
<g id="node5" class="node">
<title>Node5</title>
<g id="a_node5"><a xlink:href="interfaceast_1_1_node.html" target="_top" xlink:title=" ">
<polygon fill="white" stroke="black" points="95.5,-168.5 95.5,-187.5 135.5,-187.5 135.5,-168.5 95.5,-168.5"/>
<text text-anchor="middle" x="115.5" y="-175.5" font-family="Helvetica,sans-Serif" font-size="10.00">Node</text>
</a>
</g>
</g>
<!-- Node5&#45;&gt;Node3 -->
<g id="edge4" class="edge">
<title>Node5&#45;&gt;Node3</title>
<path fill="none" stroke="midnightblue" d="M130.88,-160.72C139.87,-151.2 150.86,-139.56 158.24,-131.75"/>
<polygon fill="midnightblue" stroke="midnightblue" points="128.24,-158.41 123.92,-168.08 133.33,-163.22 128.24,-158.41"/>
</g>
<!-- Node6 -->
<g id="node6" class="node">
<title>Node6</title>
<g id="a_node6"><a xlink:href="interfaceformat_1_1_x_formattable.html" target="_top" xlink:title="入れ子フォーマット出力可能なオブジェクトのインタフェース。">
<polygon fill="white" stroke="black" points="181,-224.5 181,-243.5 256,-243.5 256,-224.5 181,-224.5"/>
<text text-anchor="middle" x="218.5" y="-231.5" font-family="Helvetica,sans-Serif" font-size="10.00">XFormattable</text>
</a>
</g>
</g>
<!-- Node6&#45;&gt;Node5 -->
<g id="edge5" class="edge">
<title>Node6&#45;&gt;Node5</title>
<path fill="none" stroke="midnightblue" d="M192.92,-219.59C173.88,-209.61 148.44,-196.27 132.01,-187.65"/>
<polygon fill="midnightblue" stroke="midnightblue" points="191.47,-222.78 201.95,-224.32 194.72,-216.58 191.47,-222.78"/>
</g>
<!-- Node7 -->
<g id="node7" class="node">
<title>Node7</title>
<g id="a_node7"><a xlink:href="interfaceformat_1_1_x_formattable_1_1_navigatable.html" target="_top" xlink:title="木構造の分岐ノードとして清書可能なオブジェクトのクラス">
<polygon fill="white" stroke="black" points="153.5,-168.5 153.5,-187.5 283.5,-187.5 283.5,-168.5 153.5,-168.5"/>
<text text-anchor="middle" x="218.5" y="-175.5" font-family="Helvetica,sans-Serif" font-size="10.00">XFormattable.Navigatable</text>
</a>
</g>
</g>
<!-- Node6&#45;&gt;Node7 -->
<g id="edge7" class="edge">
<title>Node6&#45;&gt;Node7</title>
<path fill="none" stroke="midnightblue" d="M218.5,-213.8C218.5,-204.91 218.5,-194.78 218.5,-187.75"/>
<polygon fill="midnightblue" stroke="midnightblue" points="215,-214.08 218.5,-224.08 222,-214.08 215,-214.08"/>
</g>
<!-- Node8 -->
<g id="node8" class="node">
<title>Node8</title>
<g id="a_node8"><a xlink:href="interfaceformat_1_1_x_formattable_1_1_typed_formattable.html" target="_top" xlink:title="ノードの型情報をもつ書式出力可能なオブジェクトのインタフェース．">
<polygon fill="white" stroke="black" points="301.5,-168.5 301.5,-187.5 457.5,-187.5 457.5,-168.5 301.5,-168.5"/>
<text text-anchor="middle" x="379.5" y="-175.5" font-family="Helvetica,sans-Serif" font-size="10.00">XFormattable.TypedFormattable</text>
</a>
</g>
</g>
<!-- Node6&#45;&gt;Node8 -->
<g id="edge9" class="edge">
<title>Node6&#45;&gt;Node8</title>
<path fill="none" stroke="midnightblue" d="M253.76,-221.17C284.08,-211 327.07,-196.59 354.11,-187.52"/>
<polygon fill="midnightblue" stroke="midnightblue" points="252.38,-217.95 244.01,-224.44 254.6,-224.58 252.38,-217.95"/>
</g>
<!-- Node7&#45;&gt;Node3 -->
<g id="edge6" class="edge">
<title>Node7&#45;&gt;Node3</title>
<path fill="none" stroke="midnightblue" d="M202.82,-160.72C193.66,-151.2 182.45,-139.56 174.93,-131.75"/>
<polygon fill="midnightblue" stroke="midnightblue" points="200.46,-163.31 209.91,-168.08 205.5,-158.45 200.46,-163.31"/>
</g>
<!-- Node8&#45;&gt;Node3 -->
<g id="edge8" class="edge">
<title>Node8&#45;&gt;Node3</title>
<path fill="none" stroke="midnightblue" d="M335.97,-165.97C293.56,-155.21 230.36,-139.19 194.32,-130.05"/>
<polygon fill="midnightblue" stroke="midnightblue" points="335.2,-169.38 345.75,-168.44 336.92,-162.59 335.2,-169.38"/>
</g>
<!-- Node9 -->
<g id="node9" class="node">
<title>Node9</title>
<g id="a_node9"><a xlink:href="interfacecmd_1_1_generatable.html" target="_top" xlink:title="変換してコードを生成できるノードのインタフェース.">
<polygon fill="white" stroke="black" points="212,-112.5 212,-131.5 281,-131.5 281,-112.5 212,-112.5"/>
<text text-anchor="middle" x="246.5" y="-119.5" font-family="Helvetica,sans-Serif" font-size="10.00">Generatable</text>
</a>
</g>
</g>
<!-- Node9&#45;&gt;Node2 -->
<g id="edge10" class="edge">
<title>Node9&#45;&gt;Node2</title>
<path fill="none" stroke="midnightblue" d="M233.8,-103.86C226.87,-94.5 218.59,-83.33 212.98,-75.75"/>
<polygon fill="midnightblue" stroke="midnightblue" points="231.13,-106.13 239.89,-112.08 236.75,-101.96 231.13,-106.13"/>
</g>
<!-- Node10 -->
<g id="node10" class="node">
<title>Node10</title>
<g id="a_node10"><a xlink:title=" ">
<polygon fill="white" stroke="#bfbfbf" points="251,-56.5 251,-75.5 354,-75.5 354,-56.5 251,-56.5"/>
<text text-anchor="middle" x="302.5" y="-63.5" font-family="Helvetica,sans-Serif" font-size="10.00">CustomFormattable</text>
</a>
</g>
</g>
<!-- Node10&#45;&gt;Node1 -->
<g id="edge11" class="edge">
<title>Node10&#45;&gt;Node1</title>
<path fill="none" stroke="midnightblue" d="M287.77,-48.43C279.36,-38.97 269.15,-27.48 262.28,-19.75"/>
<polygon fill="midnightblue" stroke="midnightblue" points="285.31,-50.93 294.57,-56.08 290.55,-46.28 285.31,-50.93"/>
</g>
</g>
</svg>
