<?xml version="1.0" encoding="UTF-8" standalone="no"?>
<!DOCTYPE svg PUBLIC "-//W3C//DTD SVG 1.1//EN"
 "http://www.w3.org/Graphics/SVG/1.1/DTD/svg11.dtd">
<!-- Generated by graphviz version 2.47.0 (20210316.0004)
 -->
<!-- Title: AstDataWriter.WriterVoid Pages: 1 -->
<!--zoomable 429 -->
<svg id="main" version="1.1" xmlns="http://www.w3.org/2000/svg" xmlns:xlink="http://www.w3.org/1999/xlink" xml:space="preserve" onload="init(evt)">
<style type="text/css"><![CDATA[
.edge:hover path { stroke: red; }
.edge:hover polygon { stroke: red; fill: red; }
]]></style>
<script type="text/javascript"><![CDATA[
var edges = document.getElementsByTagName('g');
if (edges && edges.length) {
  for (var i=0;i<edges.length;i++) {
    if (edges[i].id.substr(0,4)=='edge') {
      edges[i].setAttribute('class','edge');
    }
  }
}
]]></script>
        <defs>
                <circle id="rim" cx="0" cy="0" r="7"/>
                <circle id="rim2" cx="0" cy="0" r="3.5"/>
                <g id="zoomPlus">
                        <use xlink:href="#rim" fill="#404040">
                                <set attributeName="fill" to="#808080" begin="zoomplus.mouseover" end="zoomplus.mouseout"/>
                        </use>
                        <path d="M-4,0h8M0,-4v8" fill="none" stroke="white" stroke-width="1.5" pointer-events="none"/>
                </g>
                <g id="zoomMin">
                        <use xlink:href="#rim" fill="#404040">
                                <set attributeName="fill" to="#808080" begin="zoomminus.mouseover" end="zoomminus.mouseout"/>
                        </use>
                        <path d="M-4,0h8" fill="none" stroke="white" stroke-width="1.5" pointer-events="none"/>
                </g>
                <g id="dirArrow">
                        <path fill="none" stroke="white" stroke-width="1.5" d="M0,-3.0v7 M-2.5,-0.5L0,-3.0L2.5,-0.5"/>
                </g>
               <g id="resetDef">
                       <use xlink:href="#rim2" fill="#404040">
                               <set attributeName="fill" to="#808080" begin="reset.mouseover" end="reset.mouseout"/>
                       </use>
               </g>
        </defs>

<script type="text/javascript">
var viewWidth = 1184;
var viewHeight = 429;
var sectionId = 'dynsection-1';
</script>
<script xlink:href="svgpan.js"/>
<svg id="graph" class="graph">
<g id="viewport">
<title>AstDataWriter.WriterVoid</title>
<polygon fill="white" stroke="transparent" points="-4,4 -4,-425 1179.5,-425 1179.5,4 -4,4"/>
<!-- Node1 -->
<g id="node1" class="node">
<title>Node1</title>
<g id="a_node1"><a xlink:title="Void型の値をもつ局所変数">
<polygon fill="#bfbfbf" stroke="black" points="990,-0.5 990,-19.5 1115,-19.5 1115,-0.5 990,-0.5"/>
<text text-anchor="middle" x="1052.5" y="-7.5" font-family="Helvetica,sans-Serif" font-size="10.00">AstDataWriter.WriterVoid</text>
</a>
</g>
</g>
<!-- Node2 -->
<g id="node2" class="node">
<title>Node2</title>
<g id="a_node2"><a xlink:href="classast_1_1_ast_data_writer.html" target="_top" xlink:title="局所変数環境からの値を書き込むクラス">
<polygon fill="white" stroke="black" points="717.5,-57.5 717.5,-76.5 795.5,-76.5 795.5,-57.5 717.5,-57.5"/>
<text text-anchor="middle" x="756.5" y="-64.5" font-family="Helvetica,sans-Serif" font-size="10.00">AstDataWriter</text>
</a>
</g>
</g>
<!-- Node2&#45;&gt;Node1 -->
<g id="edge1" class="edge">
<title>Node2&#45;&gt;Node1</title>
<path fill="none" stroke="midnightblue" d="M805.51,-56.89C861.4,-46.51 952.05,-29.66 1006.6,-19.53"/>
<polygon fill="midnightblue" stroke="midnightblue" points="804.69,-53.49 795.5,-58.75 805.97,-60.37 804.69,-53.49"/>
</g>
<!-- Node3 -->
<g id="node3" class="node">
<title>Node3</title>
<g id="a_node3"><a xlink:href="classast_1_1_ast_node.html" target="_top" xlink:title="タグなしの順アクセスの子供をもてる抽象構文木のノードのクラス。">
<polygon fill="white" stroke="black" points="587,-181.5 587,-200.5 642,-200.5 642,-181.5 587,-181.5"/>
<text text-anchor="middle" x="614.5" y="-188.5" font-family="Helvetica,sans-Serif" font-size="10.00">AstNode</text>
</a>
</g>
</g>
<!-- Node3&#45;&gt;Node2 -->
<g id="edge2" class="edge">
<title>Node3&#45;&gt;Node2</title>
<path fill="none" stroke="midnightblue" d="M615.74,-170.97C617.6,-156.58 622.19,-137.11 633.5,-124 655.19,-98.86 690.48,-84.41 717.71,-76.5"/>
<polygon fill="midnightblue" stroke="midnightblue" points="612.23,-170.93 614.76,-181.22 619.2,-171.59 612.23,-170.93"/>
</g>
<!-- Node17 -->
<g id="node17" class="node">
<title>Node17</title>
<g id="a_node17"><a xlink:href="classmachine_1_1_ref.html" target="_top" xlink:title="フレーム中の変数参照オブジェクトref = (XType type, int vid)">
<polygon fill="white" stroke="black" points="740.5,-124.5 740.5,-143.5 772.5,-143.5 772.5,-124.5 740.5,-124.5"/>
<text text-anchor="middle" x="756.5" y="-131.5" font-family="Helvetica,sans-Serif" font-size="10.00">Ref</text>
</a>
</g>
</g>
<!-- Node3&#45;&gt;Node17 -->
<g id="edge22" class="edge">
<title>Node3&#45;&gt;Node17</title>
<path fill="none" stroke="midnightblue" d="M646.03,-177.79C675.17,-166.5 717.32,-150.18 740.21,-141.31"/>
<polygon fill="midnightblue" stroke="midnightblue" points="644.75,-174.53 636.69,-181.41 647.28,-181.06 644.75,-174.53"/>
</g>
<!-- Node4 -->
<g id="node4" class="node">
<title>Node4</title>
<g id="a_node4"><a xlink:href="classast_1_1_ast_node_base.html" target="_top" xlink:title=" ">
<polygon fill="white" stroke="black" points="234,-257.5 234,-276.5 311,-276.5 311,-257.5 234,-257.5"/>
<text text-anchor="middle" x="272.5" y="-264.5" font-family="Helvetica,sans-Serif" font-size="10.00">AstNodeBase</text>
</a>
</g>
</g>
<!-- Node4&#45;&gt;Node3 -->
<g id="edge3" class="edge">
<title>Node4&#45;&gt;Node3</title>
<path fill="none" stroke="midnightblue" d="M320.9,-255.53C393.66,-239.78 528.84,-210.53 586.87,-197.98"/>
<polygon fill="midnightblue" stroke="midnightblue" points="320.1,-252.12 311.07,-257.66 321.58,-258.96 320.1,-252.12"/>
</g>
<!-- Node5 -->
<g id="node5" class="node">
<title>Node5</title>
<g id="a_node5"><a xlink:title=" ">
<polygon fill="white" stroke="#bfbfbf" points="322.5,-401.5 322.5,-420.5 364.5,-420.5 364.5,-401.5 322.5,-401.5"/>
<text text-anchor="middle" x="343.5" y="-408.5" font-family="Helvetica,sans-Serif" font-size="10.00">String</text>
</a>
</g>
</g>
<!-- Node5&#45;&gt;Node4 -->
<g id="edge4" class="edge">
<title>Node5&#45;&gt;Node4</title>
<path fill="none" stroke="#9a32cd" stroke-dasharray="5,2" d="M312.55,-406.49C284.1,-402.55 244.93,-395.08 235.5,-383 211.43,-352.17 217.78,-329.87 235.5,-295 239.46,-287.2 246.85,-281.12 253.99,-276.72"/>
<polygon fill="#9a32cd" stroke="#9a32cd" points="312.11,-409.96 322.48,-407.78 313.02,-403.02 312.11,-409.96"/>
<text text-anchor="middle" x="261.5" y="-342" font-family="Helvetica,sans-Serif" font-size="10.00"> MOD_AST</text>
<text text-anchor="middle" x="261.5" y="-331" font-family="Helvetica,sans-Serif" font-size="10.00">mod_</text>
</g>
<!-- Node15 -->
<g id="node15" class="node">
<title>Node15</title>
<g id="a_node15"><a xlink:href="classformat_1_1_style.html" target="_top" xlink:title="ノードの表示スタイルに関するプロパティのクラス.">
<polygon fill="white" stroke="black" points="494,-257.5 494,-276.5 533,-276.5 533,-257.5 494,-257.5"/>
<text text-anchor="middle" x="513.5" y="-264.5" font-family="Helvetica,sans-Serif" font-size="10.00">Style</text>
</a>
</g>
</g>
<!-- Node5&#45;&gt;Node15 -->
<g id="edge16" class="edge">
<title>Node5&#45;&gt;Node15</title>
<path fill="none" stroke="#9a32cd" stroke-dasharray="5,2" d="M370.96,-395.64C375.73,-392.08 380.21,-387.86 383.5,-383 405.92,-349.86 374.58,-323.66 402.5,-295 415.03,-282.14 465.33,-273.97 493.73,-270.28"/>
<polygon fill="#9a32cd" stroke="#9a32cd" points="368.68,-392.95 362.24,-401.36 372.52,-398.81 368.68,-392.95"/>
<text text-anchor="middle" x="428.5" y="-375" font-family="Helvetica,sans-Serif" font-size="10.00"> childLPAD</text>
<text text-anchor="middle" x="428.5" y="-364" font-family="Helvetica,sans-Serif" font-size="10.00">childRPAD</text>
<text text-anchor="middle" x="428.5" y="-353" font-family="Helvetica,sans-Serif" font-size="10.00">name</text>
<text text-anchor="middle" x="428.5" y="-342" font-family="Helvetica,sans-Serif" font-size="10.00">operSTR</text>
<text text-anchor="middle" x="428.5" y="-331" font-family="Helvetica,sans-Serif" font-size="10.00">parenLPAD</text>
<text text-anchor="middle" x="428.5" y="-320" font-family="Helvetica,sans-Serif" font-size="10.00">parenLPAR</text>
<text text-anchor="middle" x="428.5" y="-309" font-family="Helvetica,sans-Serif" font-size="10.00">parenRPAD</text>
<text text-anchor="middle" x="428.5" y="-298" font-family="Helvetica,sans-Serif" font-size="10.00">parenRPAR</text>
</g>
<!-- Node6 -->
<g id="node6" class="node">
<title>Node6</title>
<g id="a_node6"><a xlink:title=" ">
<polygon fill="white" stroke="#bfbfbf" points="0,-401.5 0,-420.5 65,-420.5 65,-401.5 0,-401.5"/>
<text text-anchor="middle" x="32.5" y="-408.5" font-family="Helvetica,sans-Serif" font-size="10.00">TraceLevel</text>
</a>
</g>
</g>
<!-- Node6&#45;&gt;Node4 -->
<g id="edge5" class="edge">
<title>Node6&#45;&gt;Node4</title>
<path fill="none" stroke="#9a32cd" stroke-dasharray="5,2" d="M36.36,-391.51C42.86,-365.37 58.64,-318.24 91.5,-295 115.85,-277.78 195.06,-281.75 224.5,-277 227.51,-276.51 230.63,-275.99 233.76,-275.44"/>
<polygon fill="#9a32cd" stroke="#9a32cd" points="32.94,-390.76 34.12,-401.29 39.76,-392.32 32.94,-390.76"/>
<text text-anchor="middle" x="103.5" y="-336.5" font-family="Helvetica,sans-Serif" font-size="10.00"> LOG</text>
</g>
<!-- Node7 -->
<g id="node7" class="node">
<title>Node7</title>
<g id="a_node7"><a xlink:title=" ">
<polygon fill="white" stroke="#bfbfbf" points="83,-401.5 83,-420.5 156,-420.5 156,-401.5 83,-401.5"/>
<text text-anchor="middle" x="119.5" y="-408.5" font-family="Helvetica,sans-Serif" font-size="10.00">static Report</text>
</a>
</g>
</g>
<!-- Node7&#45;&gt;Node4 -->
<g id="edge6" class="edge">
<title>Node7&#45;&gt;Node4</title>
<path fill="none" stroke="#9a32cd" stroke-dasharray="5,2" d="M118.6,-391.11C118.48,-365.57 122.33,-320.33 148.5,-295 151.65,-291.95 198.72,-282.28 233.94,-275.38"/>
<polygon fill="#9a32cd" stroke="#9a32cd" points="115.11,-391.4 118.87,-401.31 122.1,-391.22 115.11,-391.4"/>
<text text-anchor="middle" x="159.5" y="-336.5" font-family="Helvetica,sans-Serif" font-size="10.00"> repo</text>
</g>
<!-- Node8 -->
<g id="node8" class="node">
<title>Node8</title>
<g id="a_node8"><a xlink:title=" ">
<polygon fill="white" stroke="#bfbfbf" points="707,-401.5 707,-420.5 736,-420.5 736,-401.5 707,-401.5"/>
<text text-anchor="middle" x="721.5" y="-408.5" font-family="Helvetica,sans-Serif" font-size="10.00">int</text>
</a>
</g>
</g>
<!-- Node8&#45;&gt;Node4 -->
<g id="edge7" class="edge">
<title>Node8&#45;&gt;Node4</title>
<path fill="none" stroke="#9a32cd" stroke-dasharray="5,2" d="M696.81,-408.78C659.14,-406.4 589.87,-399.8 572.5,-383 543.74,-355.18 583.4,-321.59 553.5,-295 535.76,-279.22 383.92,-271.86 311.12,-269.21"/>
<polygon fill="#9a32cd" stroke="#9a32cd" points="696.77,-412.28 706.96,-409.37 697.17,-405.29 696.77,-412.28"/>
<text text-anchor="middle" x="634" y="-342" font-family="Helvetica,sans-Serif" font-size="10.00"> BITMASK_PRINT_WIDTH</text>
<text text-anchor="middle" x="634" y="-331" font-family="Helvetica,sans-Serif" font-size="10.00">UNDEF</text>
</g>
<!-- Node8&#45;&gt;Node15 -->
<g id="edge17" class="edge">
<title>Node8&#45;&gt;Node15</title>
<path fill="none" stroke="#9a32cd" stroke-dasharray="5,2" d="M720.48,-391.14C718.5,-361.98 713.05,-307.96 699.5,-295 675.97,-272.51 576.16,-268.67 533.24,-268.08"/>
<polygon fill="#9a32cd" stroke="#9a32cd" points="717,-391.51 721.1,-401.28 723.99,-391.08 717,-391.51"/>
<text text-anchor="middle" x="730.5" y="-336.5" font-family="Helvetica,sans-Serif" font-size="10.00"> pref</text>
</g>
<!-- Node8&#45;&gt;Node17 -->
<g id="edge24" class="edge">
<title>Node8&#45;&gt;Node17</title>
<path fill="none" stroke="#9a32cd" stroke-dasharray="5,2" d="M736.77,-393.5C739.07,-390.23 741.13,-386.66 742.5,-383 775.66,-294.57 762.33,-175.95 757.79,-143.5"/>
<polygon fill="#9a32cd" stroke="#9a32cd" points="733.98,-391.39 730.43,-401.37 739.43,-395.78 733.98,-391.39"/>
<text text-anchor="middle" x="784" y="-226.5" font-family="Helvetica,sans-Serif" font-size="10.00"> UNDEF</text>
</g>
<!-- Node9 -->
<g id="node9" class="node">
<title>Node9</title>
<g id="a_node9"><a xlink:href="interfacetype_1_1_typable.html" target="_top" xlink:title="抽象ノードがもつ関数型のインタフェース">
<polygon fill="white" stroke="black" points="174.5,-401.5 174.5,-420.5 224.5,-420.5 224.5,-401.5 174.5,-401.5"/>
<text text-anchor="middle" x="199.5" y="-408.5" font-family="Helvetica,sans-Serif" font-size="10.00">Typable</text>
</a>
</g>
</g>
<!-- Node9&#45;&gt;Node4 -->
<g id="edge8" class="edge">
<title>Node9&#45;&gt;Node4</title>
<path fill="none" stroke="#9a32cd" stroke-dasharray="5,2" d="M189.65,-392.4C188.35,-389.35 187.22,-386.14 186.5,-383 177.8,-344.87 163.35,-326.53 186.5,-295 192.43,-286.93 213.93,-280.18 233.95,-275.45"/>
<polygon fill="#9a32cd" stroke="#9a32cd" points="186.53,-393.97 194.11,-401.37 192.79,-390.86 186.53,-393.97"/>
<text text-anchor="middle" x="201.5" y="-336.5" font-family="Helvetica,sans-Serif" font-size="10.00"> typing</text>
</g>
<!-- Node10 -->
<g id="node10" class="node">
<title>Node10</title>
<g id="a_node10"><a xlink:title=" ">
<polygon fill="white" stroke="#bfbfbf" points="419.5,-401.5 419.5,-420.5 469.5,-420.5 469.5,-401.5 419.5,-401.5"/>
<text text-anchor="middle" x="444.5" y="-408.5" font-family="Helvetica,sans-Serif" font-size="10.00">boolean</text>
</a>
</g>
</g>
<!-- Node10&#45;&gt;Node4 -->
<g id="edge9" class="edge">
<title>Node10&#45;&gt;Node4</title>
<path fill="none" stroke="#9a32cd" stroke-dasharray="5,2" d="M409.2,-405.14C370.78,-399.53 313.81,-390.17 306.5,-383 277.93,-354.98 301.59,-332.45 287.5,-295 285.08,-288.58 281.33,-281.83 278.19,-276.68"/>
<polygon fill="#9a32cd" stroke="#9a32cd" points="409.09,-408.66 419.49,-406.62 410.09,-401.73 409.09,-408.66"/>
<text text-anchor="middle" x="343" y="-336.5" font-family="Helvetica,sans-Serif" font-size="10.00"> DEBUG_REPO</text>
</g>
<!-- Node10&#45;&gt;Node15 -->
<g id="edge18" class="edge">
<title>Node10&#45;&gt;Node15</title>
<path fill="none" stroke="#9a32cd" stroke-dasharray="5,2" d="M454.41,-392.25C455.9,-389.21 457.33,-386.06 458.5,-383 473.01,-345.27 459.93,-329.19 481.5,-295 486.15,-287.62 493.48,-281.23 499.94,-276.52"/>
<polygon fill="#9a32cd" stroke="#9a32cd" points="451.24,-390.75 449.68,-401.23 457.44,-394.01 451.24,-390.75"/>
<text text-anchor="middle" x="517.5" y="-342" font-family="Helvetica,sans-Serif" font-size="10.00"> preoperSupress</text>
<text text-anchor="middle" x="517.5" y="-331" font-family="Helvetica,sans-Serif" font-size="10.00">toInline</text>
</g>
<!-- Node11 -->
<g id="node11" class="node">
<title>Node11</title>
<g id="a_node11"><a xlink:href="interfaceformat_1_1_x_formattable_1_1_navigatable.html" target="_top" xlink:title="木構造の分岐ノードとして清書可能なオブジェクトのクラス">
<polygon fill="white" stroke="black" points="958.5,-257.5 958.5,-276.5 1088.5,-276.5 1088.5,-257.5 958.5,-257.5"/>
<text text-anchor="middle" x="1023.5" y="-264.5" font-family="Helvetica,sans-Serif" font-size="10.00">XFormattable.Navigatable</text>
</a>
</g>
</g>
<!-- Node11&#45;&gt;Node2 -->
<g id="edge19" class="edge">
<title>Node11&#45;&gt;Node2</title>
<path fill="none" stroke="midnightblue" d="M1003.88,-251.45C951.59,-212.67 809.97,-107.65 768.23,-76.7"/>
<polygon fill="midnightblue" stroke="midnightblue" points="1001.91,-254.35 1012.03,-257.49 1006.08,-248.72 1001.91,-254.35"/>
</g>
<!-- Node11&#45;&gt;Node3 -->
<g id="edge10" class="edge">
<title>Node11&#45;&gt;Node3</title>
<path fill="none" stroke="midnightblue" d="M977.82,-255.24C932.7,-244.89 861.63,-229.33 799.5,-219 735.01,-208.28 717.88,-212.37 653.5,-201 649.8,-200.35 645.93,-199.57 642.12,-198.75"/>
<polygon fill="midnightblue" stroke="midnightblue" points="977.07,-258.66 987.6,-257.49 978.64,-251.83 977.07,-258.66"/>
</g>
<!-- Node12 -->
<g id="node12" class="node">
<title>Node12</title>
<g id="a_node12"><a xlink:href="interfaceformat_1_1_x_formattable.html" target="_top" xlink:title="入れ子フォーマット出力可能なオブジェクトのインタフェース。">
<polygon fill="white" stroke="black" points="986,-401.5 986,-420.5 1061,-420.5 1061,-401.5 986,-401.5"/>
<text text-anchor="middle" x="1023.5" y="-408.5" font-family="Helvetica,sans-Serif" font-size="10.00">XFormattable</text>
</a>
</g>
</g>
<!-- Node12&#45;&gt;Node11 -->
<g id="edge11" class="edge">
<title>Node12&#45;&gt;Node11</title>
<path fill="none" stroke="midnightblue" d="M1023.5,-391.11C1023.5,-359.93 1023.5,-298.93 1023.5,-276.52"/>
<polygon fill="midnightblue" stroke="midnightblue" points="1020,-391.12 1023.5,-401.12 1027,-391.12 1020,-391.12"/>
</g>
<!-- Node13 -->
<g id="node13" class="node">
<title>Node13</title>
<g id="a_node13"><a xlink:href="interfaceformat_1_1_x_formattable_1_1_typed_formattable.html" target="_top" xlink:title="ノードの型情報をもつ書式出力可能なオブジェクトのインタフェース．">
<polygon fill="white" stroke="black" points="784.5,-257.5 784.5,-276.5 940.5,-276.5 940.5,-257.5 784.5,-257.5"/>
<text text-anchor="middle" x="862.5" y="-264.5" font-family="Helvetica,sans-Serif" font-size="10.00">XFormattable.TypedFormattable</text>
</a>
</g>
</g>
<!-- Node12&#45;&gt;Node13 -->
<g id="edge13" class="edge">
<title>Node12&#45;&gt;Node13</title>
<path fill="none" stroke="midnightblue" d="M1005.67,-394.28C971.64,-364.26 898.46,-299.71 872.16,-276.52"/>
<polygon fill="midnightblue" stroke="midnightblue" points="1003.61,-397.13 1013.43,-401.12 1008.24,-391.88 1003.61,-397.13"/>
</g>
<!-- Node19 -->
<g id="node19" class="node">
<title>Node19</title>
<g id="a_node19"><a xlink:href="interfaceformat_1_1_x_formattable_1_1_custom_formattable.html" target="_top" xlink:title="カスタム清書出力器をもつオブジェクトのクラス．">
<polygon fill="white" stroke="black" points="1011.5,-219.5 1011.5,-238.5 1175.5,-238.5 1175.5,-219.5 1011.5,-219.5"/>
<text text-anchor="middle" x="1093.5" y="-226.5" font-family="Helvetica,sans-Serif" font-size="10.00">XFormattable.CustomFormattable</text>
</a>
</g>
</g>
<!-- Node12&#45;&gt;Node19 -->
<g id="edge26" class="edge">
<title>Node12&#45;&gt;Node19</title>
<path fill="none" stroke="midnightblue" d="M1036.56,-393.26C1054.44,-369.16 1085.67,-322.59 1097.5,-277 1100.87,-264 1098.28,-248.37 1095.99,-238.81"/>
<polygon fill="midnightblue" stroke="midnightblue" points="1033.69,-391.26 1030.43,-401.34 1039.26,-395.49 1033.69,-391.26"/>
</g>
<!-- Node13&#45;&gt;Node3 -->
<g id="edge12" class="edge">
<title>Node13&#45;&gt;Node3</title>
<path fill="none" stroke="midnightblue" d="M802.72,-255.52C781.04,-251.16 756.48,-245.57 734.5,-239 698.06,-228.1 657.1,-210.95 633.69,-200.66"/>
<polygon fill="midnightblue" stroke="midnightblue" points="802.3,-259 812.79,-257.5 803.65,-252.14 802.3,-259"/>
</g>
<!-- Node14 -->
<g id="node14" class="node">
<title>Node14</title>
<g id="a_node14"><a xlink:title=" ">
<polygon fill="white" stroke="#bfbfbf" points="163.5,-257.5 163.5,-276.5 215.5,-276.5 215.5,-257.5 163.5,-257.5"/>
<text text-anchor="middle" x="189.5" y="-264.5" font-family="Helvetica,sans-Serif" font-size="10.00">Boolean</text>
</a>
</g>
</g>
<!-- Node14&#45;&gt;Node3 -->
<g id="edge14" class="edge">
<title>Node14&#45;&gt;Node3</title>
<path fill="none" stroke="#9a32cd" stroke-dasharray="5,2" d="M218.55,-253.48C245.3,-242.52 286.34,-227.11 323.5,-219 418.68,-198.22 534.78,-193.42 586.88,-192.32"/>
<polygon fill="#9a32cd" stroke="#9a32cd" points="216.93,-250.37 209.04,-257.44 219.61,-256.83 216.93,-250.37"/>
<text text-anchor="middle" x="361.5" y="-226.5" font-family="Helvetica,sans-Serif" font-size="10.00"> DEBUG_CHILD</text>
</g>
<!-- Node15&#45;&gt;Node3 -->
<g id="edge15" class="edge">
<title>Node15&#45;&gt;Node3</title>
<path fill="none" stroke="#9a32cd" stroke-dasharray="5,2" d="M533.62,-251.25C554.35,-236.07 585.93,-212.93 602.84,-200.54"/>
<polygon fill="#9a32cd" stroke="#9a32cd" points="531.48,-248.49 525.48,-257.22 535.62,-254.13 531.48,-248.49"/>
<text text-anchor="middle" x="585" y="-226.5" font-family="Helvetica,sans-Serif" font-size="10.00"> sty</text>
</g>
<!-- Node16 -->
<g id="node16" class="node">
<title>Node16</title>
<g id="a_node16"><a xlink:href="interfacemachine_1_1_data_accessor.html" target="_top" xlink:title="参照をもつデータ読み書きオブジェクトのインタフェース.">
<polygon fill="white" stroke="black" points="643,-124.5 643,-143.5 722,-143.5 722,-124.5 643,-124.5"/>
<text text-anchor="middle" x="682.5" y="-131.5" font-family="Helvetica,sans-Serif" font-size="10.00">DataAccessor</text>
</a>
</g>
</g>
<!-- Node16&#45;&gt;Node2 -->
<g id="edge20" class="edge">
<title>Node16&#45;&gt;Node2</title>
<path fill="none" stroke="midnightblue" d="M700.31,-117.36C714.86,-104.58 734.88,-86.99 746.68,-76.63"/>
<polygon fill="midnightblue" stroke="midnightblue" points="697.68,-115 692.48,-124.23 702.3,-120.26 697.68,-115"/>
</g>
<!-- Node17&#45;&gt;Node2 -->
<g id="edge21" class="edge">
<title>Node17&#45;&gt;Node2</title>
<path fill="none" stroke="#9a32cd" stroke-dasharray="5,2" d="M756.5,-114.04C756.5,-101.67 756.5,-86.12 756.5,-76.63"/>
<polygon fill="#9a32cd" stroke="#9a32cd" points="753,-114.23 756.5,-124.23 760,-114.23 753,-114.23"/>
<text text-anchor="middle" x="764" y="-98" font-family="Helvetica,sans-Serif" font-size="10.00"> ref</text>
</g>
<!-- Node18 -->
<g id="node18" class="node">
<title>Node18</title>
<g id="a_node18"><a xlink:href="interfacemachine_1_1_assignable.html" target="_top" xlink:title="変数（チャネルとコンテナの名前）の抽象化">
<polygon fill="white" stroke="black" points="663,-181.5 663,-200.5 728,-200.5 728,-181.5 663,-181.5"/>
<text text-anchor="middle" x="695.5" y="-188.5" font-family="Helvetica,sans-Serif" font-size="10.00">Assignable</text>
</a>
</g>
</g>
<!-- Node18&#45;&gt;Node17 -->
<g id="edge23" class="edge">
<title>Node18&#45;&gt;Node17</title>
<path fill="none" stroke="midnightblue" d="M712.46,-174.71C723.54,-164.72 737.62,-152.02 746.83,-143.71"/>
<polygon fill="midnightblue" stroke="midnightblue" points="710.11,-172.11 705.03,-181.41 714.8,-177.31 710.11,-172.11"/>
</g>
<!-- Node19&#45;&gt;Node1 -->
<g id="edge25" class="edge">
<title>Node19&#45;&gt;Node1</title>
<path fill="none" stroke="midnightblue" d="M1076.52,-212.27C1065.25,-200.06 1052.5,-182.04 1052.5,-163 1052.5,-163 1052.5,-163 1052.5,-66 1052.5,-49.58 1052.5,-30.39 1052.5,-19.57"/>
<polygon fill="midnightblue" stroke="midnightblue" points="1074.06,-214.75 1083.58,-219.41 1079.04,-209.84 1074.06,-214.75"/>
</g>
<!-- Node20 -->
<g id="node20" class="node">
<title>Node20</title>
<g id="a_node20"><a xlink:href="interfacecmd_1_1_generatable.html" target="_top" xlink:title="変換してコードを生成できるノードのインタフェース.">
<polygon fill="white" stroke="black" points="1081,-57.5 1081,-76.5 1150,-76.5 1150,-57.5 1081,-57.5"/>
<text text-anchor="middle" x="1115.5" y="-64.5" font-family="Helvetica,sans-Serif" font-size="10.00">Generatable</text>
</a>
</g>
</g>
<!-- Node20&#45;&gt;Node1 -->
<g id="edge27" class="edge">
<title>Node20&#45;&gt;Node1</title>
<path fill="none" stroke="midnightblue" d="M1097.98,-50.71C1086.54,-40.72 1072,-28.02 1062.48,-19.71"/>
<polygon fill="midnightblue" stroke="midnightblue" points="1095.82,-53.47 1105.66,-57.41 1100.42,-48.19 1095.82,-53.47"/>
</g>
</g>
</svg>
        <g id="navigator" transform="translate(0 0)" fill="#404254">
                <rect fill="#f2f5e9" fill-opacity="0.5" stroke="#606060" stroke-width=".5" x="0" y="0" width="60" height="60"/>
                <use id="zoomplus" xlink:href="#zoomPlus" x="17" y="9" onmousedown="handleZoom(evt,'in')"/>
                <use id="zoomminus" xlink:href="#zoomMin" x="42" y="9" onmousedown="handleZoom(evt,'out')"/>
                <use id="reset" xlink:href="#resetDef" x="30" y="36" onmousedown="handleReset()"/>
                <g id="arrowUp" xlink:href="#dirArrow" transform="translate(30 24)" onmousedown="handlePan(0,-1)">
                  <use xlink:href="#rim" fill="#404040">
                        <set attributeName="fill" to="#808080" begin="arrowUp.mouseover" end="arrowUp.mouseout"/>
                  </use>
                  <path fill="none" stroke="white" stroke-width="1.5" d="M0,-3.0v7 M-2.5,-0.5L0,-3.0L2.5,-0.5"/>
                </g>
                <g id="arrowRight" xlink:href="#dirArrow" transform="rotate(90) translate(36 -43)" onmousedown="handlePan(1,0)">
                  <use xlink:href="#rim" fill="#404040">
                        <set attributeName="fill" to="#808080" begin="arrowRight.mouseover" end="arrowRight.mouseout"/>
                  </use>
                  <path fill="none" stroke="white" stroke-width="1.5" d="M0,-3.0v7 M-2.5,-0.5L0,-3.0L2.5,-0.5"/>
                </g>
                <g id="arrowDown" xlink:href="#dirArrow" transform="rotate(180) translate(-30 -48)" onmousedown="handlePan(0,1)">
                  <use xlink:href="#rim" fill="#404040">
                        <set attributeName="fill" to="#808080" begin="arrowDown.mouseover" end="arrowDown.mouseout"/>
                  </use>
                  <path fill="none" stroke="white" stroke-width="1.5" d="M0,-3.0v7 M-2.5,-0.5L0,-3.0L2.5,-0.5"/>
                </g>
                <g id="arrowLeft" xlink:href="#dirArrow" transform="rotate(270) translate(-36 17)" onmousedown="handlePan(-1,0)">
                  <use xlink:href="#rim" fill="#404040">
                        <set attributeName="fill" to="#808080" begin="arrowLeft.mouseover" end="arrowLeft.mouseout"/>
                  </use>
                  <path fill="none" stroke="white" stroke-width="1.5" d="M0,-3.0v7 M-2.5,-0.5L0,-3.0L2.5,-0.5"/>
                </g>
        </g>
        <svg viewBox="0 0 15 15" width="100%" height="30px" preserveAspectRatio="xMaxYMin meet">
         <g id="arrow_out" transform="scale(0.3 0.3)">
          <a xlink:href="classast_1_1_ast_data_writer_1_1_writer_void__coll__graph_org.svg" target="_base">
           <rect id="button" ry="5" rx="5" y="6" x="6" height="38" width="38"
                fill="#f2f5e9" fill-opacity="0.5" stroke="#606060" stroke-width="1.0"/>
           <path id="arrow"
             d="M 11.500037,31.436501 C 11.940474,20.09759 22.043105,11.32322 32.158766,21.979434 L 37.068811,17.246167 C 37.068811,17.246167 37.088388,32 37.088388,32 L 22.160133,31.978069 C 22.160133,31.978069 26.997745,27.140456 26.997745,27.140456 C 18.528582,18.264221 13.291696,25.230495 11.500037,31.436501 z"
             style="fill:#404040;"/>
          </a>
         </g>
        </svg>
</svg>
