<?xml version="1.0" encoding="UTF-8" standalone="no"?>
<!DOCTYPE svg PUBLIC "-//W3C//DTD SVG 1.1//EN"
 "http://www.w3.org/Graphics/SVG/1.1/DTD/svg11.dtd">
<!-- Generated by graphviz version 2.47.0 (20210316.0004)
 -->
<!-- Title: AstNodeTagged Pages: 1 -->
<!--zoomable 527 -->
<svg id="main" version="1.1" xmlns="http://www.w3.org/2000/svg" xmlns:xlink="http://www.w3.org/1999/xlink" xml:space="preserve" onload="init(evt)">
<style type="text/css"><![CDATA[
.edge:hover path { stroke: red; }
.edge:hover polygon { stroke: red; fill: red; }
]]></style>
<script type="text/javascript"><![CDATA[
var edges = document.getElementsByTagName('g');
if (edges && edges.length) {
  for (var i=0;i<edges.length;i++) {
    if (edges[i].id.substr(0,4)=='edge') {
      edges[i].setAttribute('class','edge');
    }
  }
}
]]></script>
        <defs>
                <circle id="rim" cx="0" cy="0" r="7"/>
                <circle id="rim2" cx="0" cy="0" r="3.5"/>
                <g id="zoomPlus">
                        <use xlink:href="#rim" fill="#404040">
                                <set attributeName="fill" to="#808080" begin="zoomplus.mouseover" end="zoomplus.mouseout"/>
                        </use>
                        <path d="M-4,0h8M0,-4v8" fill="none" stroke="white" stroke-width="1.5" pointer-events="none"/>
                </g>
                <g id="zoomMin">
                        <use xlink:href="#rim" fill="#404040">
                                <set attributeName="fill" to="#808080" begin="zoomminus.mouseover" end="zoomminus.mouseout"/>
                        </use>
                        <path d="M-4,0h8" fill="none" stroke="white" stroke-width="1.5" pointer-events="none"/>
                </g>
                <g id="dirArrow">
                        <path fill="none" stroke="white" stroke-width="1.5" d="M0,-3.0v7 M-2.5,-0.5L0,-3.0L2.5,-0.5"/>
                </g>
               <g id="resetDef">
                       <use xlink:href="#rim2" fill="#404040">
                               <set attributeName="fill" to="#808080" begin="reset.mouseover" end="reset.mouseout"/>
                       </use>
               </g>
        </defs>

<script type="text/javascript">
var viewWidth = 828;
var viewHeight = 527;
var sectionId = 'dynsection-1';
</script>
<script xlink:href="svgpan.js"/>
<svg id="graph" class="graph">
<g id="viewport">
<title>AstNodeTagged</title>
<polygon fill="white" stroke="transparent" points="-4,4 -4,-523.48 824,-523.48 824,4 -4,4"/>
<!-- Node1 -->
<g id="node1" class="node">
<title>Node1</title>
<g id="a_node1"><a xlink:title="子それぞれにタグと型アイテムをもつ順序ノードAstNodeのサブクラス．利用者は自前で，追加する子のField名と型を設定する．読み出しは子の添字のみで行う．">
<polygon fill="#bfbfbf" stroke="black" points="734,-114.5 734,-133.5 820,-133.5 820,-114.5 734,-114.5"/>
<text text-anchor="middle" x="777" y="-121.5" font-family="Helvetica,sans-Serif" font-size="10.00">AstNodeTagged</text>
</a>
</g>
</g>
<!-- Node2 -->
<g id="node2" class="node">
<title>Node2</title>
<g id="a_node2"><a xlink:href="classast_1_1_ast_node.html" target="_top" xlink:title="タグなしの順アクセスの子供をもてる抽象構文木のノードのクラス。">
<polygon fill="white" stroke="black" points="555.5,-152.5 555.5,-171.5 610.5,-171.5 610.5,-152.5 555.5,-152.5"/>
<text text-anchor="middle" x="583" y="-159.5" font-family="Helvetica,sans-Serif" font-size="10.00">AstNode</text>
</a>
</g>
</g>
<!-- Node2&#45;&gt;Node1 -->
<g id="edge1" class="edge">
<title>Node2&#45;&gt;Node1</title>
<path fill="none" stroke="midnightblue" d="M613.15,-149.68C639.92,-142.79 680.69,-135.17 716,-128 721.74,-126.83 727.79,-125.57 733.74,-124.39"/>
<polygon fill="midnightblue" stroke="midnightblue" points="611.99,-146.37 603.27,-152.39 613.84,-153.12 611.99,-146.37"/>
</g>
<!-- Node2&#45;&gt;Node1 -->
<g id="edge22" class="edge">
<title>Node2&#45;&gt;Node1</title>
<path fill="none" stroke="midnightblue" d="M620.58,-162.84C647.1,-159.44 683.81,-152.53 716,-146 732.5,-142.65 751.49,-138.48 763.61,-133.67"/>
<polygon fill="midnightblue" stroke="midnightblue" points="620.12,-159.37 610.59,-164 620.92,-166.32 620.12,-159.37"/>
</g>
<!-- Node3 -->
<g id="node3" class="node">
<title>Node3</title>
<g id="a_node3"><a xlink:href="classast_1_1_ast_node_base.html" target="_top" xlink:title=" ">
<polygon fill="white" stroke="black" points="273.5,-174.5 273.5,-193.5 350.5,-193.5 350.5,-174.5 273.5,-174.5"/>
<text text-anchor="middle" x="312" y="-181.5" font-family="Helvetica,sans-Serif" font-size="10.00">AstNodeBase</text>
</a>
</g>
</g>
<!-- Node3&#45;&gt;Node2 -->
<g id="edge2" class="edge">
<title>Node3&#45;&gt;Node2</title>
<path fill="none" stroke="midnightblue" d="M360.83,-180.09C417.45,-175.46 509.79,-167.91 555.14,-164.2"/>
<polygon fill="midnightblue" stroke="midnightblue" points="360.37,-176.61 350.69,-180.92 360.94,-183.59 360.37,-176.61"/>
</g>
<!-- Node4 -->
<g id="node4" class="node">
<title>Node4</title>
<g id="a_node4"><a xlink:title=" ">
<polygon fill="white" stroke="#bfbfbf" points="16.5,-256.5 16.5,-275.5 58.5,-275.5 58.5,-256.5 16.5,-256.5"/>
<text text-anchor="middle" x="37.5" y="-263.5" font-family="Helvetica,sans-Serif" font-size="10.00">String</text>
</a>
</g>
</g>
<!-- Node4&#45;&gt;Node3 -->
<g id="edge3" class="edge">
<title>Node4&#45;&gt;Node3</title>
<path fill="none" stroke="#9a32cd" stroke-dasharray="5,2" d="M53.08,-248.92C63.18,-238.27 77.53,-225.25 93,-218 109,-210.5 215.17,-196.15 273.23,-188.72"/>
<polygon fill="#9a32cd" stroke="#9a32cd" points="50.37,-246.71 46.25,-256.47 55.55,-251.4 50.37,-246.71"/>
<text text-anchor="middle" x="154.5" y="-232" font-family="Helvetica,sans-Serif" font-size="10.00"> MOD_AST</text>
<text text-anchor="middle" x="154.5" y="-221" font-family="Helvetica,sans-Serif" font-size="10.00">mod_</text>
</g>
<!-- Node16 -->
<g id="node16" class="node">
<title>Node16</title>
<g id="a_node16"><a xlink:href="classformat_1_1_style.html" target="_top" xlink:title="ノードの表示スタイルに関するプロパティのクラス.">
<polygon fill="white" stroke="black" points="292.5,-353.5 292.5,-372.5 331.5,-372.5 331.5,-353.5 292.5,-353.5"/>
<text text-anchor="middle" x="312" y="-360.5" font-family="Helvetica,sans-Serif" font-size="10.00">Style</text>
</a>
</g>
</g>
<!-- Node4&#45;&gt;Node16 -->
<g id="edge18" class="edge">
<title>Node4&#45;&gt;Node16</title>
<path fill="none" stroke="#9a32cd" stroke-dasharray="5,2" d="M68.28,-277.48C76.23,-280.24 84.86,-282.97 93,-285 146.67,-298.38 164.12,-284.8 216,-304 248.59,-316.06 282.05,-340.1 299.23,-353.47"/>
<polygon fill="#9a32cd" stroke="#9a32cd" points="69.27,-274.12 58.68,-274.02 66.9,-280.7 69.27,-274.12"/>
<text text-anchor="middle" x="154.5" y="-384" font-family="Helvetica,sans-Serif" font-size="10.00"> childLPAD</text>
<text text-anchor="middle" x="154.5" y="-373" font-family="Helvetica,sans-Serif" font-size="10.00">childRPAD</text>
<text text-anchor="middle" x="154.5" y="-362" font-family="Helvetica,sans-Serif" font-size="10.00">name</text>
<text text-anchor="middle" x="154.5" y="-351" font-family="Helvetica,sans-Serif" font-size="10.00">operSTR</text>
<text text-anchor="middle" x="154.5" y="-340" font-family="Helvetica,sans-Serif" font-size="10.00">parenLPAD</text>
<text text-anchor="middle" x="154.5" y="-329" font-family="Helvetica,sans-Serif" font-size="10.00">parenLPAR</text>
<text text-anchor="middle" x="154.5" y="-318" font-family="Helvetica,sans-Serif" font-size="10.00">parenRPAD</text>
<text text-anchor="middle" x="154.5" y="-307" font-family="Helvetica,sans-Serif" font-size="10.00">parenRPAR</text>
</g>
<!-- Node5 -->
<g id="node5" class="node">
<title>Node5</title>
<g id="a_node5"><a xlink:title=" ">
<polygon fill="white" stroke="#bfbfbf" points="5,-101.5 5,-120.5 70,-120.5 70,-101.5 5,-101.5"/>
<text text-anchor="middle" x="37.5" y="-108.5" font-family="Helvetica,sans-Serif" font-size="10.00">TraceLevel</text>
</a>
</g>
</g>
<!-- Node5&#45;&gt;Node3 -->
<g id="edge4" class="edge">
<title>Node5&#45;&gt;Node3</title>
<path fill="none" stroke="#9a32cd" stroke-dasharray="5,2" d="M80.26,-108.18C118.49,-107.61 175.14,-111.99 216,-138 228.17,-145.74 222.2,-156.71 234,-165 245.49,-173.07 260.05,-177.73 273.41,-180.41"/>
<polygon fill="#9a32cd" stroke="#9a32cd" points="79.9,-104.69 70,-108.46 80.09,-111.69 79.9,-104.69"/>
<text text-anchor="middle" x="154.5" y="-141" font-family="Helvetica,sans-Serif" font-size="10.00"> LOG</text>
</g>
<!-- Node6 -->
<g id="node6" class="node">
<title>Node6</title>
<g id="a_node6"><a xlink:title=" ">
<polygon fill="white" stroke="#bfbfbf" points="1,-139.5 1,-158.5 74,-158.5 74,-139.5 1,-139.5"/>
<text text-anchor="middle" x="37.5" y="-146.5" font-family="Helvetica,sans-Serif" font-size="10.00">static Report</text>
</a>
</g>
</g>
<!-- Node6&#45;&gt;Node3 -->
<g id="edge5" class="edge">
<title>Node6&#45;&gt;Node3</title>
<path fill="none" stroke="#9a32cd" stroke-dasharray="5,2" d="M84.46,-152.7C120.36,-155.81 171.47,-160.77 216,-167 234.92,-169.65 255.82,-173.31 273.2,-176.55"/>
<polygon fill="#9a32cd" stroke="#9a32cd" points="84.56,-149.19 74.29,-151.83 83.96,-156.17 84.56,-149.19"/>
<text text-anchor="middle" x="154.5" y="-170" font-family="Helvetica,sans-Serif" font-size="10.00"> repo</text>
</g>
<!-- Node7 -->
<g id="node7" class="node">
<title>Node7</title>
<g id="a_node7"><a xlink:title=" ">
<polygon fill="white" stroke="#bfbfbf" points="23,-351.5 23,-370.5 52,-370.5 52,-351.5 23,-351.5"/>
<text text-anchor="middle" x="37.5" y="-358.5" font-family="Helvetica,sans-Serif" font-size="10.00">int</text>
</a>
</g>
</g>
<!-- Node7&#45;&gt;Node3 -->
<g id="edge6" class="edge">
<title>Node7&#45;&gt;Node3</title>
<path fill="none" stroke="#9a32cd" stroke-dasharray="5,2" d="M47.53,-341.95C60.99,-313.92 85.52,-264.3 93,-259 138.13,-227.01 171.49,-272.84 216,-240 230.72,-229.14 219.78,-214.5 234,-203 245.03,-194.08 259.65,-189.27 273.18,-186.69"/>
<polygon fill="#9a32cd" stroke="#9a32cd" points="44.28,-340.64 43.13,-351.18 50.59,-343.66 44.28,-340.64"/>
<text text-anchor="middle" x="154.5" y="-273" font-family="Helvetica,sans-Serif" font-size="10.00"> BITMASK_PRINT_WIDTH</text>
<text text-anchor="middle" x="154.5" y="-262" font-family="Helvetica,sans-Serif" font-size="10.00">UNDEF</text>
</g>
<!-- Node7&#45;&gt;Node16 -->
<g id="edge19" class="edge">
<title>Node7&#45;&gt;Node16</title>
<path fill="none" stroke="#9a32cd" stroke-dasharray="5,2" d="M57.18,-376.8C67.13,-384.19 79.98,-392.18 93,-396 145.45,-411.39 162.1,-405.1 216,-396 243.37,-391.38 273.39,-379.77 292.21,-371.63"/>
<polygon fill="#9a32cd" stroke="#9a32cd" points="59.28,-374 49.25,-370.59 54.96,-379.51 59.28,-374"/>
<text text-anchor="middle" x="154.5" y="-408" font-family="Helvetica,sans-Serif" font-size="10.00"> pref</text>
</g>
<!-- Node8 -->
<g id="node8" class="node">
<title>Node8</title>
<g id="a_node8"><a xlink:href="interfacetype_1_1_typable.html" target="_top" xlink:title="抽象ノードがもつ関数型のインタフェース">
<polygon fill="white" stroke="black" points="12.5,-177.5 12.5,-196.5 62.5,-196.5 62.5,-177.5 12.5,-177.5"/>
<text text-anchor="middle" x="37.5" y="-184.5" font-family="Helvetica,sans-Serif" font-size="10.00">Typable</text>
</a>
</g>
</g>
<!-- Node8&#45;&gt;Node3 -->
<g id="edge7" class="edge">
<title>Node8&#45;&gt;Node3</title>
<path fill="none" stroke="#9a32cd" stroke-dasharray="5,2" d="M72.82,-184.82C79.51,-184.48 86.47,-184.18 93,-184 156.18,-182.26 229.7,-182.79 273.18,-183.37"/>
<polygon fill="#9a32cd" stroke="#9a32cd" points="72.43,-181.34 62.63,-185.39 72.81,-188.33 72.43,-181.34"/>
<text text-anchor="middle" x="154.5" y="-187" font-family="Helvetica,sans-Serif" font-size="10.00"> typing</text>
</g>
<!-- Node9 -->
<g id="node9" class="node">
<title>Node9</title>
<g id="a_node9"><a xlink:title=" ">
<polygon fill="white" stroke="#bfbfbf" points="12.5,-476.5 12.5,-495.5 62.5,-495.5 62.5,-476.5 12.5,-476.5"/>
<text text-anchor="middle" x="37.5" y="-483.5" font-family="Helvetica,sans-Serif" font-size="10.00">boolean</text>
</a>
</g>
</g>
<!-- Node9&#45;&gt;Node1 -->
<g id="edge26" class="edge">
<title>Node9&#45;&gt;Node1</title>
<path fill="none" stroke="#9a32cd" stroke-dasharray="5,2" d="M65.26,-499.8C73.89,-503.55 83.64,-507.11 93,-509 146.58,-519.84 163.79,-525.21 216,-509 473.46,-429.04 717.46,-185.09 766.91,-133.61"/>
<polygon fill="#9a32cd" stroke="#9a32cd" points="66.63,-496.57 56.09,-495.54 63.69,-502.92 66.63,-496.57"/>
<text text-anchor="middle" x="446" y="-423" font-family="Helvetica,sans-Serif" font-size="10.00"> DEBUG_REPO</text>
</g>
<!-- Node9&#45;&gt;Node3 -->
<g id="edge8" class="edge">
<title>Node9&#45;&gt;Node3</title>
<path fill="none" stroke="#9a32cd" stroke-dasharray="5,2" d="M59.13,-470.49C68.96,-463.71 81.15,-456.13 93,-451 144.73,-428.59 179.54,-463 216,-420 247.3,-383.1 202.61,-239.83 234,-203 243.65,-191.68 258.86,-186.53 273.22,-184.36"/>
<polygon fill="#9a32cd" stroke="#9a32cd" points="56.94,-467.76 50.83,-476.42 61.01,-473.45 56.94,-467.76"/>
<text text-anchor="middle" x="154.5" y="-454" font-family="Helvetica,sans-Serif" font-size="10.00"> DEBUG_REPO</text>
</g>
<!-- Node9&#45;&gt;Node16 -->
<g id="edge20" class="edge">
<title>Node9&#45;&gt;Node16</title>
<path fill="none" stroke="#9a32cd" stroke-dasharray="5,2" d="M72.61,-484.52C116.96,-482.12 191.65,-476.36 216,-464 258.72,-442.32 292.43,-393.31 305.32,-372.57"/>
<polygon fill="#9a32cd" stroke="#9a32cd" points="72.37,-481.02 62.57,-485.03 72.73,-488.01 72.37,-481.02"/>
<text text-anchor="middle" x="154.5" y="-497" font-family="Helvetica,sans-Serif" font-size="10.00"> preoperSupress</text>
<text text-anchor="middle" x="154.5" y="-486" font-family="Helvetica,sans-Serif" font-size="10.00">toInline</text>
</g>
<!-- Node10 -->
<g id="node10" class="node">
<title>Node10</title>
<g id="a_node10"><a xlink:href="interfaceast_1_1_node.html" target="_top" xlink:title=" ">
<polygon fill="white" stroke="black" points="292,-60.5 292,-79.5 332,-79.5 332,-60.5 292,-60.5"/>
<text text-anchor="middle" x="312" y="-67.5" font-family="Helvetica,sans-Serif" font-size="10.00">Node</text>
</a>
</g>
</g>
<!-- Node10&#45;&gt;Node2 -->
<g id="edge9" class="edge">
<title>Node10&#45;&gt;Node2</title>
<path fill="none" stroke="midnightblue" d="M342.07,-76.34C356.58,-79.72 374.33,-84.17 390,-89 432.6,-102.14 446.82,-99.4 484,-124 493.7,-130.42 491.92,-137.19 502,-143 518.33,-152.41 539.09,-157.17 555.37,-159.57"/>
<polygon fill="midnightblue" stroke="midnightblue" points="342.68,-72.89 332.15,-74.08 341.13,-79.72 342.68,-72.89"/>
</g>
<!-- Node11 -->
<g id="node11" class="node">
<title>Node11</title>
<g id="a_node11"><a xlink:href="interfaceformat_1_1_x_formattable.html" target="_top" xlink:title="入れ子フォーマット出力可能なオブジェクトのインタフェース。">
<polygon fill="white" stroke="black" points="0,-47.5 0,-66.5 75,-66.5 75,-47.5 0,-47.5"/>
<text text-anchor="middle" x="37.5" y="-54.5" font-family="Helvetica,sans-Serif" font-size="10.00">XFormattable</text>
</a>
</g>
</g>
<!-- Node11&#45;&gt;Node10 -->
<g id="edge10" class="edge">
<title>Node11&#45;&gt;Node10</title>
<path fill="none" stroke="midnightblue" d="M85.35,-59.23C146.08,-62.13 249.25,-67.05 291.79,-69.08"/>
<polygon fill="midnightblue" stroke="midnightblue" points="85.41,-55.73 75.25,-58.75 85.07,-62.73 85.41,-55.73"/>
</g>
<!-- Node12 -->
<g id="node12" class="node">
<title>Node12</title>
<g id="a_node12"><a xlink:href="interfaceformat_1_1_x_formattable_1_1_navigatable.html" target="_top" xlink:title="木構造の分岐ノードとして清書可能なオブジェクトのクラス">
<polygon fill="white" stroke="black" points="247,-22.5 247,-41.5 377,-41.5 377,-22.5 247,-22.5"/>
<text text-anchor="middle" x="312" y="-29.5" font-family="Helvetica,sans-Serif" font-size="10.00">XFormattable.Navigatable</text>
</a>
</g>
</g>
<!-- Node11&#45;&gt;Node12 -->
<g id="edge12" class="edge">
<title>Node11&#45;&gt;Node12</title>
<path fill="none" stroke="midnightblue" d="M85.23,-52.71C129.83,-48.62 197.37,-42.42 246.96,-37.88"/>
<polygon fill="midnightblue" stroke="midnightblue" points="84.89,-49.23 75.25,-53.63 85.53,-56.2 84.89,-49.23"/>
</g>
<!-- Node13 -->
<g id="node13" class="node">
<title>Node13</title>
<g id="a_node13"><a xlink:href="interfaceformat_1_1_x_formattable_1_1_typed_formattable.html" target="_top" xlink:title="ノードの型情報をもつ書式出力可能なオブジェクトのインタフェース．">
<polygon fill="white" stroke="black" points="234,-98.5 234,-117.5 390,-117.5 390,-98.5 234,-98.5"/>
<text text-anchor="middle" x="312" y="-105.5" font-family="Helvetica,sans-Serif" font-size="10.00">XFormattable.TypedFormattable</text>
</a>
</g>
</g>
<!-- Node11&#45;&gt;Node13 -->
<g id="edge14" class="edge">
<title>Node11&#45;&gt;Node13</title>
<path fill="none" stroke="midnightblue" d="M84.98,-66.44C87.69,-66.97 90.38,-67.5 93,-68 149.11,-78.81 213.48,-90.54 257.64,-98.48"/>
<polygon fill="midnightblue" stroke="midnightblue" points="85.62,-63 75.13,-64.49 84.26,-69.86 85.62,-63"/>
</g>
<!-- Node12&#45;&gt;Node2 -->
<g id="edge11" class="edge">
<title>Node12&#45;&gt;Node2</title>
<path fill="none" stroke="midnightblue" d="M386.97,-40.97C420.8,-48.71 458.85,-63.13 484,-90 501,-108.16 483.6,-126.26 502,-143 516.36,-156.07 538.04,-160.61 555.21,-162"/>
<polygon fill="midnightblue" stroke="midnightblue" points="387.6,-37.52 377.09,-38.86 386.14,-44.37 387.6,-37.52"/>
</g>
<!-- Node13&#45;&gt;Node2 -->
<g id="edge13" class="edge">
<title>Node13&#45;&gt;Node2</title>
<path fill="none" stroke="midnightblue" d="M370.44,-119.53C427.55,-131 512.64,-148.08 555.42,-156.66"/>
<polygon fill="midnightblue" stroke="midnightblue" points="370.97,-116.07 360.47,-117.53 369.59,-122.93 370.97,-116.07"/>
</g>
<!-- Node14 -->
<g id="node14" class="node">
<title>Node14</title>
<g id="a_node14"><a xlink:title=" ">
<polygon fill="white" stroke="#bfbfbf" points="267,-212.5 267,-231.5 357,-231.5 357,-212.5 267,-212.5"/>
<text text-anchor="middle" x="312" y="-219.5" font-family="Helvetica,sans-Serif" font-size="10.00">List&lt; ast.Node &gt;</text>
</a>
</g>
</g>
<!-- Node14&#45;&gt;Node2 -->
<g id="edge15" class="edge">
<title>Node14&#45;&gt;Node2</title>
<path fill="none" stroke="#9a32cd" stroke-dasharray="5,2" d="M367.16,-211.6C400.86,-204.96 445.06,-195.95 484,-187 508.3,-181.42 535.79,-174.34 555.46,-169.14"/>
<polygon fill="#9a32cd" stroke="#9a32cd" points="366.2,-208.23 357.06,-213.58 367.54,-215.09 366.2,-208.23"/>
<text text-anchor="middle" x="446" y="-206" font-family="Helvetica,sans-Serif" font-size="10.00"> children</text>
</g>
<!-- Node15 -->
<g id="node15" class="node">
<title>Node15</title>
<g id="a_node15"><a xlink:title=" ">
<polygon fill="white" stroke="#bfbfbf" points="286,-136.5 286,-155.5 338,-155.5 338,-136.5 286,-136.5"/>
<text text-anchor="middle" x="312" y="-143.5" font-family="Helvetica,sans-Serif" font-size="10.00">Boolean</text>
</a>
</g>
</g>
<!-- Node15&#45;&gt;Node2 -->
<g id="edge16" class="edge">
<title>Node15&#45;&gt;Node2</title>
<path fill="none" stroke="#9a32cd" stroke-dasharray="5,2" d="M348.31,-146.92C382.9,-147.95 437.12,-149.89 484,-153 508.21,-154.61 535.71,-157.2 555.41,-159.19"/>
<polygon fill="#9a32cd" stroke="#9a32cd" points="348.33,-143.42 338.23,-146.63 348.12,-150.42 348.33,-143.42"/>
<text text-anchor="middle" x="446" y="-156" font-family="Helvetica,sans-Serif" font-size="10.00"> DEBUG_CHILD</text>
</g>
<!-- Node16&#45;&gt;Node2 -->
<g id="edge17" class="edge">
<title>Node16&#45;&gt;Node2</title>
<path fill="none" stroke="#9a32cd" stroke-dasharray="5,2" d="M334.04,-347.28C387.29,-307.49 526.2,-203.69 569.16,-171.6"/>
<polygon fill="#9a32cd" stroke="#9a32cd" points="331.89,-344.52 325.97,-353.31 336.08,-350.12 331.89,-344.52"/>
<text text-anchor="middle" x="446" y="-289" font-family="Helvetica,sans-Serif" font-size="10.00"> sty</text>
</g>
<!-- Node17 -->
<g id="node17" class="node">
<title>Node17</title>
<g id="a_node17"><a xlink:title=" ">
<polygon fill="white" stroke="#bfbfbf" points="538.5,-114.5 538.5,-133.5 627.5,-133.5 627.5,-114.5 538.5,-114.5"/>
<text text-anchor="middle" x="583" y="-121.5" font-family="Helvetica,sans-Serif" font-size="10.00">FieldNavigatable</text>
</a>
</g>
</g>
<!-- Node17&#45;&gt;Node1 -->
<g id="edge21" class="edge">
<title>Node17&#45;&gt;Node1</title>
<path fill="none" stroke="midnightblue" d="M637.6,-124C668.04,-124 705.61,-124 733.92,-124"/>
<polygon fill="midnightblue" stroke="midnightblue" points="637.57,-120.5 627.57,-124 637.57,-127.5 637.57,-120.5"/>
</g>
<!-- Node18 -->
<g id="node18" class="node">
<title>Node18</title>
<g id="a_node18"><a xlink:title=" ">
<polygon fill="white" stroke="#bfbfbf" points="545,-76.5 545,-95.5 621,-95.5 621,-76.5 545,-76.5"/>
<text text-anchor="middle" x="583" y="-83.5" font-family="Helvetica,sans-Serif" font-size="10.00">List&lt; String &gt;</text>
</a>
</g>
</g>
<!-- Node18&#45;&gt;Node1 -->
<g id="edge23" class="edge">
<title>Node18&#45;&gt;Node1</title>
<path fill="none" stroke="#9a32cd" stroke-dasharray="5,2" d="M631.17,-93.37C656.42,-97.53 688,-103.07 716,-109 723.67,-110.62 731.84,-112.54 739.61,-114.45"/>
<polygon fill="#9a32cd" stroke="#9a32cd" points="631.55,-89.88 621.12,-91.73 630.43,-96.79 631.55,-89.88"/>
<text text-anchor="middle" x="699" y="-112" font-family="Helvetica,sans-Serif" font-size="10.00"> fields</text>
</g>
<!-- Node19 -->
<g id="node19" class="node">
<title>Node19</title>
<g id="a_node19"><a xlink:title=" ">
<polygon fill="white" stroke="#bfbfbf" points="534,-38.5 534,-57.5 632,-57.5 632,-38.5 534,-38.5"/>
<text text-anchor="middle" x="583" y="-45.5" font-family="Helvetica,sans-Serif" font-size="10.00">List&lt; XTypeItem &gt;</text>
</a>
</g>
</g>
<!-- Node19&#45;&gt;Node1 -->
<g id="edge24" class="edge">
<title>Node19&#45;&gt;Node1</title>
<path fill="none" stroke="#9a32cd" stroke-dasharray="5,2" d="M640.08,-60C664.17,-66.3 692.19,-75.21 716,-87 732.45,-95.15 750.22,-106.45 762.12,-114.41"/>
<polygon fill="#9a32cd" stroke="#9a32cd" points="640.92,-56.6 630.37,-57.54 639.2,-63.39 640.92,-56.6"/>
<text text-anchor="middle" x="699" y="-90" font-family="Helvetica,sans-Serif" font-size="10.00"> types</text>
</g>
<!-- Node20 -->
<g id="node20" class="node">
<title>Node20</title>
<g id="a_node20"><a xlink:title=" ">
<polygon fill="white" stroke="#bfbfbf" points="502,-0.5 502,-19.5 664,-19.5 664,-0.5 502,-0.5"/>
<text text-anchor="middle" x="583" y="-7.5" font-family="Helvetica,sans-Serif" font-size="10.00">List&lt; Supplier&lt; XFormattable &gt; &gt;</text>
</a>
</g>
</g>
<!-- Node20&#45;&gt;Node1 -->
<g id="edge25" class="edge">
<title>Node20&#45;&gt;Node1</title>
<path fill="none" stroke="#9a32cd" stroke-dasharray="5,2" d="M643.81,-22.28C650.7,-24.26 657.56,-26.5 664,-29 688.66,-38.59 695.27,-41.55 716,-58 737.59,-75.14 758.16,-100.35 768.7,-114.12"/>
<polygon fill="#9a32cd" stroke="#9a32cd" points="644.3,-18.79 633.73,-19.56 642.47,-25.55 644.3,-18.79"/>
<text text-anchor="middle" x="699" y="-61" font-family="Helvetica,sans-Serif" font-size="10.00"> getters</text>
</g>
</g>
</svg>
        <g id="navigator" transform="translate(0 0)" fill="#404254">
                <rect fill="#f2f5e9" fill-opacity="0.5" stroke="#606060" stroke-width=".5" x="0" y="0" width="60" height="60"/>
                <use id="zoomplus" xlink:href="#zoomPlus" x="17" y="9" onmousedown="handleZoom(evt,'in')"/>
                <use id="zoomminus" xlink:href="#zoomMin" x="42" y="9" onmousedown="handleZoom(evt,'out')"/>
                <use id="reset" xlink:href="#resetDef" x="30" y="36" onmousedown="handleReset()"/>
                <g id="arrowUp" xlink:href="#dirArrow" transform="translate(30 24)" onmousedown="handlePan(0,-1)">
                  <use xlink:href="#rim" fill="#404040">
                        <set attributeName="fill" to="#808080" begin="arrowUp.mouseover" end="arrowUp.mouseout"/>
                  </use>
                  <path fill="none" stroke="white" stroke-width="1.5" d="M0,-3.0v7 M-2.5,-0.5L0,-3.0L2.5,-0.5"/>
                </g>
                <g id="arrowRight" xlink:href="#dirArrow" transform="rotate(90) translate(36 -43)" onmousedown="handlePan(1,0)">
                  <use xlink:href="#rim" fill="#404040">
                        <set attributeName="fill" to="#808080" begin="arrowRight.mouseover" end="arrowRight.mouseout"/>
                  </use>
                  <path fill="none" stroke="white" stroke-width="1.5" d="M0,-3.0v7 M-2.5,-0.5L0,-3.0L2.5,-0.5"/>
                </g>
                <g id="arrowDown" xlink:href="#dirArrow" transform="rotate(180) translate(-30 -48)" onmousedown="handlePan(0,1)">
                  <use xlink:href="#rim" fill="#404040">
                        <set attributeName="fill" to="#808080" begin="arrowDown.mouseover" end="arrowDown.mouseout"/>
                  </use>
                  <path fill="none" stroke="white" stroke-width="1.5" d="M0,-3.0v7 M-2.5,-0.5L0,-3.0L2.5,-0.5"/>
                </g>
                <g id="arrowLeft" xlink:href="#dirArrow" transform="rotate(270) translate(-36 17)" onmousedown="handlePan(-1,0)">
                  <use xlink:href="#rim" fill="#404040">
                        <set attributeName="fill" to="#808080" begin="arrowLeft.mouseover" end="arrowLeft.mouseout"/>
                  </use>
                  <path fill="none" stroke="white" stroke-width="1.5" d="M0,-3.0v7 M-2.5,-0.5L0,-3.0L2.5,-0.5"/>
                </g>
        </g>
        <svg viewBox="0 0 15 15" width="100%" height="30px" preserveAspectRatio="xMaxYMin meet">
         <g id="arrow_out" transform="scale(0.3 0.3)">
          <a xlink:href="classast_1_1_ast_node_tagged__coll__graph_org.svg" target="_base">
           <rect id="button" ry="5" rx="5" y="6" x="6" height="38" width="38"
                fill="#f2f5e9" fill-opacity="0.5" stroke="#606060" stroke-width="1.0"/>
           <path id="arrow"
             d="M 11.500037,31.436501 C 11.940474,20.09759 22.043105,11.32322 32.158766,21.979434 L 37.068811,17.246167 C 37.068811,17.246167 37.088388,32 37.088388,32 L 22.160133,31.978069 C 22.160133,31.978069 26.997745,27.140456 26.997745,27.140456 C 18.528582,18.264221 13.291696,25.230495 11.500037,31.436501 z"
             style="fill:#404040;"/>
          </a>
         </g>
        </svg>
</svg>
