<?xml version="1.0" encoding="UTF-8" standalone="no"?>
<!DOCTYPE svg PUBLIC "-//W3C//DTD SVG 1.1//EN"
 "http://www.w3.org/Graphics/SVG/1.1/DTD/svg11.dtd">
<!-- Generated by graphviz version 2.47.0 (20210316.0004)
 -->
<!-- Title: AstLiteral.StringExpr Pages: 1 -->
<!--zoomable 353 -->
<svg id="main" version="1.1" xmlns="http://www.w3.org/2000/svg" xmlns:xlink="http://www.w3.org/1999/xlink" xml:space="preserve" onload="init(evt)">
<style type="text/css"><![CDATA[
.edge:hover path { stroke: red; }
.edge:hover polygon { stroke: red; fill: red; }
]]></style>
<script type="text/javascript"><![CDATA[
var edges = document.getElementsByTagName('g');
if (edges && edges.length) {
  for (var i=0;i<edges.length;i++) {
    if (edges[i].id.substr(0,4)=='edge') {
      edges[i].setAttribute('class','edge');
    }
  }
}
]]></script>
        <defs>
                <circle id="rim" cx="0" cy="0" r="7"/>
                <circle id="rim2" cx="0" cy="0" r="3.5"/>
                <g id="zoomPlus">
                        <use xlink:href="#rim" fill="#404040">
                                <set attributeName="fill" to="#808080" begin="zoomplus.mouseover" end="zoomplus.mouseout"/>
                        </use>
                        <path d="M-4,0h8M0,-4v8" fill="none" stroke="white" stroke-width="1.5" pointer-events="none"/>
                </g>
                <g id="zoomMin">
                        <use xlink:href="#rim" fill="#404040">
                                <set attributeName="fill" to="#808080" begin="zoomminus.mouseover" end="zoomminus.mouseout"/>
                        </use>
                        <path d="M-4,0h8" fill="none" stroke="white" stroke-width="1.5" pointer-events="none"/>
                </g>
                <g id="dirArrow">
                        <path fill="none" stroke="white" stroke-width="1.5" d="M0,-3.0v7 M-2.5,-0.5L0,-3.0L2.5,-0.5"/>
                </g>
               <g id="resetDef">
                       <use xlink:href="#rim2" fill="#404040">
                               <set attributeName="fill" to="#808080" begin="reset.mouseover" end="reset.mouseout"/>
                       </use>
               </g>
        </defs>

<script type="text/javascript">
var viewWidth = 1031;
var viewHeight = 353;
var sectionId = 'dynsection-1';
</script>
<script xlink:href="svgpan.js"/>
<svg id="graph" class="graph">
<g id="viewport">
<title>AstLiteral.StringExpr</title>
<polygon fill="white" stroke="transparent" points="-4,4 -4,-349 1027.28,-349 1027.28,4 -4,4"/>
<!-- Node1 -->
<g id="node1" class="node">
<title>Node1</title>
<g id="a_node1"><a xlink:title="String値アトム">
<polygon fill="#bfbfbf" stroke="black" points="803.28,-0.5 803.28,-19.5 910.28,-19.5 910.28,-0.5 803.28,-0.5"/>
<text text-anchor="middle" x="856.78" y="-7.5" font-family="Helvetica,sans-Serif" font-size="10.00">AstLiteral.StringExpr</text>
</a>
</g>
</g>
<!-- Node2 -->
<g id="node2" class="node">
<title>Node2</title>
<g id="a_node2"><a xlink:href="classast_1_1_ast_literal.html" target="_top" xlink:title="値を返すことができる終端オブジェクトのクラス">
<polygon fill="white" stroke="black" points="785.78,-57.5 785.78,-76.5 843.78,-76.5 843.78,-57.5 785.78,-57.5"/>
<text text-anchor="middle" x="814.78" y="-64.5" font-family="Helvetica,sans-Serif" font-size="10.00">AstLiteral</text>
</a>
</g>
</g>
<!-- Node2&#45;&gt;Node1 -->
<g id="edge1" class="edge">
<title>Node2&#45;&gt;Node1</title>
<path fill="none" stroke="midnightblue" d="M827.58,-49.23C835.02,-39.49 844.08,-27.62 850.12,-19.71"/>
<polygon fill="midnightblue" stroke="midnightblue" points="824.63,-47.33 821.34,-57.41 830.19,-51.58 824.63,-47.33"/>
</g>
<!-- Node3 -->
<g id="node3" class="node">
<title>Node3</title>
<g id="a_node3"><a xlink:href="classast_1_1_ast_node.html" target="_top" xlink:title="タグなしの順アクセスの子供をもてる抽象構文木のノードのクラス。">
<polygon fill="white" stroke="black" points="637.28,-114.5 637.28,-133.5 692.28,-133.5 692.28,-114.5 637.28,-114.5"/>
<text text-anchor="middle" x="664.78" y="-121.5" font-family="Helvetica,sans-Serif" font-size="10.00">AstNode</text>
</a>
</g>
</g>
<!-- Node3&#45;&gt;Node2 -->
<g id="edge2" class="edge">
<title>Node3&#45;&gt;Node2</title>
<path fill="none" stroke="midnightblue" d="M697.71,-110.92C726.1,-100.52 766.36,-85.75 791.5,-76.53"/>
<polygon fill="midnightblue" stroke="midnightblue" points="696.4,-107.68 688.21,-114.41 698.81,-114.25 696.4,-107.68"/>
</g>
<!-- Node4 -->
<g id="node4" class="node">
<title>Node4</title>
<g id="a_node4"><a xlink:href="classast_1_1_ast_node_base.html" target="_top" xlink:title=" ">
<polygon fill="white" stroke="black" points="439.28,-181.5 439.28,-200.5 516.28,-200.5 516.28,-181.5 439.28,-181.5"/>
<text text-anchor="middle" x="477.78" y="-188.5" font-family="Helvetica,sans-Serif" font-size="10.00">AstNodeBase</text>
</a>
</g>
</g>
<!-- Node4&#45;&gt;Node3 -->
<g id="edge3" class="edge">
<title>Node4&#45;&gt;Node3</title>
<path fill="none" stroke="midnightblue" d="M512.48,-177.94C549.58,-165.04 607.46,-144.92 640.14,-133.56"/>
<polygon fill="midnightblue" stroke="midnightblue" points="510.9,-174.78 502.61,-181.37 513.2,-181.39 510.9,-174.78"/>
</g>
<!-- Node5 -->
<g id="node5" class="node">
<title>Node5</title>
<g id="a_node5"><a xlink:title=" ">
<polygon fill="white" stroke="#bfbfbf" points="12.78,-325.5 12.78,-344.5 54.78,-344.5 54.78,-325.5 12.78,-325.5"/>
<text text-anchor="middle" x="33.78" y="-332.5" font-family="Helvetica,sans-Serif" font-size="10.00">String</text>
</a>
</g>
</g>
<!-- Node5&#45;&gt;Node1 -->
<g id="edge23" class="edge">
<title>Node5&#45;&gt;Node1</title>
<path fill="none" stroke="#9a32cd" stroke-dasharray="5,2" d="M20.54,-316.62C18.69,-313.54 17,-310.27 15.78,-307 -2.33,-258.74 0.78,-243.54 0.78,-192 0.78,-192 0.78,-192 0.78,-66 0.78,-25.61 615.83,-14.17 803.23,-11.63"/>
<polygon fill="#9a32cd" stroke="#9a32cd" points="17.79,-318.79 26.31,-325.08 23.57,-314.85 17.79,-318.79"/>
<text text-anchor="middle" x="11.78" y="-121.5" font-family="Helvetica,sans-Serif" font-size="10.00"> sval</text>
</g>
<!-- Node5&#45;&gt;Node4 -->
<g id="edge4" class="edge">
<title>Node5&#45;&gt;Node4</title>
<path fill="none" stroke="#9a32cd" stroke-dasharray="5,2" d="M64.07,-323.58C72.36,-319.5 80.72,-314.06 86.78,-307 113.59,-275.74 83.33,-244.36 115.78,-219 128.38,-209.15 348.62,-197.94 439.27,-193.73"/>
<polygon fill="#9a32cd" stroke="#9a32cd" points="62.62,-320.39 54.87,-327.62 65.43,-326.8 62.62,-320.39"/>
<text text-anchor="middle" x="141.78" y="-266" font-family="Helvetica,sans-Serif" font-size="10.00"> MOD_AST</text>
<text text-anchor="middle" x="141.78" y="-255" font-family="Helvetica,sans-Serif" font-size="10.00">mod_</text>
</g>
<!-- Node15 -->
<g id="node15" class="node">
<title>Node15</title>
<g id="a_node15"><a xlink:href="classformat_1_1_style.html" target="_top" xlink:title="ノードの表示スタイルに関するプロパティのクラス.">
<polygon fill="white" stroke="black" points="239.28,-181.5 239.28,-200.5 278.28,-200.5 278.28,-181.5 239.28,-181.5"/>
<text text-anchor="middle" x="258.78" y="-188.5" font-family="Helvetica,sans-Serif" font-size="10.00">Style</text>
</a>
</g>
</g>
<!-- Node5&#45;&gt;Node15 -->
<g id="edge16" class="edge">
<title>Node5&#45;&gt;Node15</title>
<path fill="none" stroke="#9a32cd" stroke-dasharray="5,2" d="M27.36,-315.73C19.82,-290.59 11.12,-245.44 34.78,-219 48.32,-203.86 187.07,-195.52 239.16,-192.91"/>
<polygon fill="#9a32cd" stroke="#9a32cd" points="24.1,-317.02 30.52,-325.45 30.76,-314.86 24.1,-317.02"/>
<text text-anchor="middle" x="60.78" y="-299" font-family="Helvetica,sans-Serif" font-size="10.00"> childLPAD</text>
<text text-anchor="middle" x="60.78" y="-288" font-family="Helvetica,sans-Serif" font-size="10.00">childRPAD</text>
<text text-anchor="middle" x="60.78" y="-277" font-family="Helvetica,sans-Serif" font-size="10.00">name</text>
<text text-anchor="middle" x="60.78" y="-266" font-family="Helvetica,sans-Serif" font-size="10.00">operSTR</text>
<text text-anchor="middle" x="60.78" y="-255" font-family="Helvetica,sans-Serif" font-size="10.00">parenLPAD</text>
<text text-anchor="middle" x="60.78" y="-244" font-family="Helvetica,sans-Serif" font-size="10.00">parenLPAR</text>
<text text-anchor="middle" x="60.78" y="-233" font-family="Helvetica,sans-Serif" font-size="10.00">parenRPAD</text>
<text text-anchor="middle" x="60.78" y="-222" font-family="Helvetica,sans-Serif" font-size="10.00">parenRPAR</text>
</g>
<!-- Node6 -->
<g id="node6" class="node">
<title>Node6</title>
<g id="a_node6"><a xlink:title=" ">
<polygon fill="white" stroke="#bfbfbf" points="491.28,-325.5 491.28,-344.5 556.28,-344.5 556.28,-325.5 491.28,-325.5"/>
<text text-anchor="middle" x="523.78" y="-332.5" font-family="Helvetica,sans-Serif" font-size="10.00">TraceLevel</text>
</a>
</g>
</g>
<!-- Node6&#45;&gt;Node4 -->
<g id="edge5" class="edge">
<title>Node6&#45;&gt;Node4</title>
<path fill="none" stroke="#9a32cd" stroke-dasharray="5,2" d="M537.38,-316.74C539.19,-313.65 540.76,-310.34 541.78,-307 553.11,-269.57 563.4,-251.59 541.78,-219 535.84,-210.06 526.3,-204.07 516.37,-200.06"/>
<polygon fill="#9a32cd" stroke="#9a32cd" points="534.35,-314.97 531.58,-325.2 540.12,-318.93 534.35,-314.97"/>
<text text-anchor="middle" x="566.78" y="-260.5" font-family="Helvetica,sans-Serif" font-size="10.00"> LOG</text>
</g>
<!-- Node7 -->
<g id="node7" class="node">
<title>Node7</title>
<g id="a_node7"><a xlink:title=" ">
<polygon fill="white" stroke="#bfbfbf" points="574.28,-325.5 574.28,-344.5 647.28,-344.5 647.28,-325.5 574.28,-325.5"/>
<text text-anchor="middle" x="610.78" y="-332.5" font-family="Helvetica,sans-Serif" font-size="10.00">static Report</text>
</a>
</g>
</g>
<!-- Node7&#45;&gt;Node4 -->
<g id="edge6" class="edge">
<title>Node7&#45;&gt;Node4</title>
<path fill="none" stroke="#9a32cd" stroke-dasharray="5,2" d="M611.72,-315.26C611.93,-289.9 608.31,-244.87 582.78,-219 577.93,-214.09 544.25,-205.96 516.31,-199.9"/>
<polygon fill="#9a32cd" stroke="#9a32cd" points="608.22,-315.29 611.42,-325.39 615.22,-315.49 608.22,-315.29"/>
<text text-anchor="middle" x="622.78" y="-260.5" font-family="Helvetica,sans-Serif" font-size="10.00"> repo</text>
</g>
<!-- Node8 -->
<g id="node8" class="node">
<title>Node8</title>
<g id="a_node8"><a xlink:title=" ">
<polygon fill="white" stroke="#bfbfbf" points="190.28,-325.5 190.28,-344.5 219.28,-344.5 219.28,-325.5 190.28,-325.5"/>
<text text-anchor="middle" x="204.78" y="-332.5" font-family="Helvetica,sans-Serif" font-size="10.00">int</text>
</a>
</g>
</g>
<!-- Node8&#45;&gt;Node4 -->
<g id="edge7" class="edge">
<title>Node8&#45;&gt;Node4</title>
<path fill="none" stroke="#9a32cd" stroke-dasharray="5,2" d="M205.22,-315.1C206.32,-285.89 210.2,-231.81 223.78,-219 239.11,-204.52 371.94,-196.65 439.15,-193.56"/>
<polygon fill="#9a32cd" stroke="#9a32cd" points="201.71,-315.16 204.91,-325.26 208.71,-315.37 201.71,-315.16"/>
<text text-anchor="middle" x="285.28" y="-266" font-family="Helvetica,sans-Serif" font-size="10.00"> BITMASK_PRINT_WIDTH</text>
<text text-anchor="middle" x="285.28" y="-255" font-family="Helvetica,sans-Serif" font-size="10.00">UNDEF</text>
</g>
<!-- Node8&#45;&gt;Node15 -->
<g id="edge17" class="edge">
<title>Node8&#45;&gt;Node15</title>
<path fill="none" stroke="#9a32cd" stroke-dasharray="5,2" d="M189.87,-317.19C187.78,-314 185.94,-310.54 184.78,-307 172.52,-269.86 162.36,-251.05 184.78,-219 196.93,-201.63 221.49,-195.4 238.98,-193.18"/>
<polygon fill="#9a32cd" stroke="#9a32cd" points="187.26,-319.54 196.12,-325.35 192.81,-315.28 187.26,-319.54"/>
<text text-anchor="middle" x="194.78" y="-260.5" font-family="Helvetica,sans-Serif" font-size="10.00"> pref</text>
</g>
<!-- Node9 -->
<g id="node9" class="node">
<title>Node9</title>
<g id="a_node9"><a xlink:href="interfacetype_1_1_typable.html" target="_top" xlink:title="抽象ノードがもつ関数型のインタフェース">
<polygon fill="white" stroke="black" points="665.78,-325.5 665.78,-344.5 715.78,-344.5 715.78,-325.5 665.78,-325.5"/>
<text text-anchor="middle" x="690.78" y="-332.5" font-family="Helvetica,sans-Serif" font-size="10.00">Typable</text>
</a>
</g>
</g>
<!-- Node9&#45;&gt;Node4 -->
<g id="edge8" class="edge">
<title>Node9&#45;&gt;Node4</title>
<path fill="none" stroke="#9a32cd" stroke-dasharray="5,2" d="M687.75,-315.32C682.48,-289.31 669.05,-242.73 637.78,-219 597.61,-188.52 575.45,-209.65 525.78,-201 522.77,-200.48 519.66,-199.92 516.53,-199.36"/>
<polygon fill="#9a32cd" stroke="#9a32cd" points="684.34,-316.16 689.58,-325.37 691.23,-314.9 684.34,-316.16"/>
<text text-anchor="middle" x="700.78" y="-260.5" font-family="Helvetica,sans-Serif" font-size="10.00"> typing</text>
</g>
<!-- Node10 -->
<g id="node10" class="node">
<title>Node10</title>
<g id="a_node10"><a xlink:title=" ">
<polygon fill="white" stroke="#bfbfbf" points="384.78,-325.5 384.78,-344.5 434.78,-344.5 434.78,-325.5 384.78,-325.5"/>
<text text-anchor="middle" x="409.78" y="-332.5" font-family="Helvetica,sans-Serif" font-size="10.00">boolean</text>
</a>
</g>
</g>
<!-- Node10&#45;&gt;Node4 -->
<g id="edge9" class="edge">
<title>Node10&#45;&gt;Node4</title>
<path fill="none" stroke="#9a32cd" stroke-dasharray="5,2" d="M434.04,-319.62C438.51,-316 442.72,-311.77 445.78,-307 467.37,-273.31 451.78,-256.84 464.78,-219 466.94,-212.7 470.19,-205.95 472.9,-200.78"/>
<polygon fill="#9a32cd" stroke="#9a32cd" points="432,-316.78 425.91,-325.45 436.08,-322.47 432,-316.78"/>
<text text-anchor="middle" x="501.28" y="-260.5" font-family="Helvetica,sans-Serif" font-size="10.00"> DEBUG_REPO</text>
</g>
<!-- Node10&#45;&gt;Node15 -->
<g id="edge18" class="edge">
<title>Node10&#45;&gt;Node15</title>
<path fill="none" stroke="#9a32cd" stroke-dasharray="5,2" d="M382.32,-319.64C377.54,-316.08 373.06,-311.86 369.78,-307 347.35,-273.86 378.02,-248.3 350.78,-219 332.07,-198.88 299.26,-193.48 278.3,-192.18"/>
<polygon fill="#9a32cd" stroke="#9a32cd" points="380.75,-322.81 391.04,-325.36 384.59,-316.95 380.75,-322.81"/>
<text text-anchor="middle" x="405.78" y="-266" font-family="Helvetica,sans-Serif" font-size="10.00"> preoperSupress</text>
<text text-anchor="middle" x="405.78" y="-255" font-family="Helvetica,sans-Serif" font-size="10.00">toInline</text>
</g>
<!-- Node11 -->
<g id="node11" class="node">
<title>Node11</title>
<g id="a_node11"><a xlink:href="interfaceformat_1_1_x_formattable_1_1_navigatable.html" target="_top" xlink:title="木構造の分岐ノードとして清書可能なオブジェクトのクラス">
<polygon fill="white" stroke="black" points="534.78,-181.5 534.78,-200.5 664.78,-200.5 664.78,-181.5 534.78,-181.5"/>
<text text-anchor="middle" x="599.78" y="-188.5" font-family="Helvetica,sans-Serif" font-size="10.00">XFormattable.Navigatable</text>
</a>
</g>
</g>
<!-- Node11&#45;&gt;Node3 -->
<g id="edge10" class="edge">
<title>Node11&#45;&gt;Node3</title>
<path fill="none" stroke="midnightblue" d="M615.78,-174C628.53,-161.25 645.88,-143.89 656.15,-133.63"/>
<polygon fill="midnightblue" stroke="midnightblue" points="613.14,-171.69 608.54,-181.23 618.09,-176.64 613.14,-171.69"/>
</g>
<!-- Node12 -->
<g id="node12" class="node">
<title>Node12</title>
<g id="a_node12"><a xlink:href="interfaceformat_1_1_x_formattable.html" target="_top" xlink:title="入れ子フォーマット出力可能なオブジェクトのインタフェース。">
<polygon fill="white" stroke="black" points="734.28,-325.5 734.28,-344.5 809.28,-344.5 809.28,-325.5 734.28,-325.5"/>
<text text-anchor="middle" x="771.78" y="-332.5" font-family="Helvetica,sans-Serif" font-size="10.00">XFormattable</text>
</a>
</g>
</g>
<!-- Node12&#45;&gt;Node11 -->
<g id="edge11" class="edge">
<title>Node12&#45;&gt;Node11</title>
<path fill="none" stroke="midnightblue" d="M763.54,-315.74C762.26,-312.83 760.97,-309.84 759.78,-307 743.45,-268.21 756.9,-246.2 724.78,-219 715.29,-210.97 690.17,-204.79 664.93,-200.39"/>
<polygon fill="midnightblue" stroke="midnightblue" points="760.42,-317.33 767.69,-325.04 766.81,-314.48 760.42,-317.33"/>
</g>
<!-- Node13 -->
<g id="node13" class="node">
<title>Node13</title>
<g id="a_node13"><a xlink:href="interfaceformat_1_1_x_formattable_1_1_typed_formattable.html" target="_top" xlink:title="ノードの型情報をもつ書式出力可能なオブジェクトのインタフェース．">
<polygon fill="white" stroke="black" points="682.78,-181.5 682.78,-200.5 838.78,-200.5 838.78,-181.5 682.78,-181.5"/>
<text text-anchor="middle" x="760.78" y="-188.5" font-family="Helvetica,sans-Serif" font-size="10.00">XFormattable.TypedFormattable</text>
</a>
</g>
</g>
<!-- Node12&#45;&gt;Node13 -->
<g id="edge13" class="edge">
<title>Node12&#45;&gt;Node13</title>
<path fill="none" stroke="midnightblue" d="M770.31,-315.11C767.9,-283.93 763.17,-222.93 761.44,-200.52"/>
<polygon fill="midnightblue" stroke="midnightblue" points="766.83,-315.42 771.09,-325.12 773.8,-314.88 766.83,-315.42"/>
</g>
<!-- Node13&#45;&gt;Node3 -->
<g id="edge12" class="edge">
<title>Node13&#45;&gt;Node3</title>
<path fill="none" stroke="midnightblue" d="M739.5,-175.59C720.51,-162.74 693.33,-144.33 677.52,-133.63"/>
<polygon fill="midnightblue" stroke="midnightblue" points="737.59,-178.53 747.83,-181.23 741.51,-172.73 737.59,-178.53"/>
</g>
<!-- Node14 -->
<g id="node14" class="node">
<title>Node14</title>
<g id="a_node14"><a xlink:title=" ">
<polygon fill="white" stroke="#bfbfbf" points="856.78,-181.5 856.78,-200.5 908.78,-200.5 908.78,-181.5 856.78,-181.5"/>
<text text-anchor="middle" x="882.78" y="-188.5" font-family="Helvetica,sans-Serif" font-size="10.00">Boolean</text>
</a>
</g>
</g>
<!-- Node14&#45;&gt;Node3 -->
<g id="edge14" class="edge">
<title>Node14&#45;&gt;Node3</title>
<path fill="none" stroke="#9a32cd" stroke-dasharray="5,2" d="M846.86,-180.61C823.02,-174.34 793.96,-166.6 781.78,-163 749.83,-153.55 713.37,-141.51 689.76,-133.54"/>
<polygon fill="#9a32cd" stroke="#9a32cd" points="846.13,-184.04 856.69,-183.19 847.91,-177.27 846.13,-184.04"/>
<text text-anchor="middle" x="819.78" y="-155" font-family="Helvetica,sans-Serif" font-size="10.00"> DEBUG_CHILD</text>
</g>
<!-- Node15&#45;&gt;Node3 -->
<g id="edge15" class="edge">
<title>Node15&#45;&gt;Node3</title>
<path fill="none" stroke="#9a32cd" stroke-dasharray="5,2" d="M288.62,-185.22C364.48,-173.08 563.83,-141.16 637.18,-129.42"/>
<polygon fill="#9a32cd" stroke="#9a32cd" points="287.68,-181.83 278.36,-186.86 288.79,-188.74 287.68,-181.83"/>
<text text-anchor="middle" x="495.28" y="-155" font-family="Helvetica,sans-Serif" font-size="10.00"> sty</text>
</g>
<!-- Node16 -->
<g id="node16" class="node">
<title>Node16</title>
<g id="a_node16"><a xlink:href="interfacecmd_1_1_generatable_1_1_evaluatable.html" target="_top" xlink:title="評価して値を返すノードのインタフェース．必ずしもコードを生成しなくても良い．">
<polygon fill="white" stroke="black" points="900.28,-114.5 900.28,-133.5 1023.28,-133.5 1023.28,-114.5 900.28,-114.5"/>
<text text-anchor="middle" x="961.78" y="-121.5" font-family="Helvetica,sans-Serif" font-size="10.00">Generatable.Evaluatable</text>
</a>
</g>
</g>
<!-- Node16&#45;&gt;Node2 -->
<g id="edge19" class="edge">
<title>Node16&#45;&gt;Node2</title>
<path fill="none" stroke="midnightblue" d="M929.13,-110.79C901.34,-100.39 862.11,-85.71 837.58,-76.53"/>
<polygon fill="midnightblue" stroke="midnightblue" points="928.21,-114.18 938.81,-114.41 930.67,-107.62 928.21,-114.18"/>
</g>
<!-- Node17 -->
<g id="node17" class="node">
<title>Node17</title>
<g id="a_node17"><a xlink:href="interfacecmd_1_1_generatable.html" target="_top" xlink:title="変換してコードを生成できるノードのインタフェース.">
<polygon fill="white" stroke="black" points="927.28,-181.5 927.28,-200.5 996.28,-200.5 996.28,-181.5 927.28,-181.5"/>
<text text-anchor="middle" x="961.78" y="-188.5" font-family="Helvetica,sans-Serif" font-size="10.00">Generatable</text>
</a>
</g>
</g>
<!-- Node17&#45;&gt;Node1 -->
<g id="edge22" class="edge">
<title>Node17&#45;&gt;Node1</title>
<path fill="none" stroke="midnightblue" d="M937.15,-175.84C922,-165.93 903.33,-151.39 891.78,-134 866.83,-96.47 859.44,-41.12 857.45,-19.81"/>
<polygon fill="midnightblue" stroke="midnightblue" points="935.7,-179.06 946.04,-181.39 939.41,-173.12 935.7,-179.06"/>
</g>
<!-- Node17&#45;&gt;Node16 -->
<g id="edge20" class="edge">
<title>Node17&#45;&gt;Node16</title>
<path fill="none" stroke="midnightblue" d="M961.78,-171.04C961.78,-158.67 961.78,-143.12 961.78,-133.63"/>
<polygon fill="midnightblue" stroke="midnightblue" points="958.28,-171.23 961.78,-181.23 965.28,-171.23 958.28,-171.23"/>
</g>
<!-- Node18 -->
<g id="node18" class="node">
<title>Node18</title>
<g id="a_node18"><a xlink:href="class_typed_formattable.html" target="_top" xlink:title=" ">
<polygon fill="white" stroke="black" points="900.28,-57.5 900.28,-76.5 995.28,-76.5 995.28,-57.5 900.28,-57.5"/>
<text text-anchor="middle" x="947.78" y="-64.5" font-family="Helvetica,sans-Serif" font-size="10.00">TypedFormattable</text>
</a>
</g>
</g>
<!-- Node18&#45;&gt;Node1 -->
<g id="edge21" class="edge">
<title>Node18&#45;&gt;Node1</title>
<path fill="none" stroke="midnightblue" d="M924.79,-52.11C907.83,-41.86 885.28,-28.23 870.89,-19.53"/>
<polygon fill="midnightblue" stroke="midnightblue" points="923.19,-55.23 933.56,-57.41 926.81,-49.24 923.19,-55.23"/>
</g>
</g>
</svg>
        <g id="navigator" transform="translate(0 0)" fill="#404254">
                <rect fill="#f2f5e9" fill-opacity="0.5" stroke="#606060" stroke-width=".5" x="0" y="0" width="60" height="60"/>
                <use id="zoomplus" xlink:href="#zoomPlus" x="17" y="9" onmousedown="handleZoom(evt,'in')"/>
                <use id="zoomminus" xlink:href="#zoomMin" x="42" y="9" onmousedown="handleZoom(evt,'out')"/>
                <use id="reset" xlink:href="#resetDef" x="30" y="36" onmousedown="handleReset()"/>
                <g id="arrowUp" xlink:href="#dirArrow" transform="translate(30 24)" onmousedown="handlePan(0,-1)">
                  <use xlink:href="#rim" fill="#404040">
                        <set attributeName="fill" to="#808080" begin="arrowUp.mouseover" end="arrowUp.mouseout"/>
                  </use>
                  <path fill="none" stroke="white" stroke-width="1.5" d="M0,-3.0v7 M-2.5,-0.5L0,-3.0L2.5,-0.5"/>
                </g>
                <g id="arrowRight" xlink:href="#dirArrow" transform="rotate(90) translate(36 -43)" onmousedown="handlePan(1,0)">
                  <use xlink:href="#rim" fill="#404040">
                        <set attributeName="fill" to="#808080" begin="arrowRight.mouseover" end="arrowRight.mouseout"/>
                  </use>
                  <path fill="none" stroke="white" stroke-width="1.5" d="M0,-3.0v7 M-2.5,-0.5L0,-3.0L2.5,-0.5"/>
                </g>
                <g id="arrowDown" xlink:href="#dirArrow" transform="rotate(180) translate(-30 -48)" onmousedown="handlePan(0,1)">
                  <use xlink:href="#rim" fill="#404040">
                        <set attributeName="fill" to="#808080" begin="arrowDown.mouseover" end="arrowDown.mouseout"/>
                  </use>
                  <path fill="none" stroke="white" stroke-width="1.5" d="M0,-3.0v7 M-2.5,-0.5L0,-3.0L2.5,-0.5"/>
                </g>
                <g id="arrowLeft" xlink:href="#dirArrow" transform="rotate(270) translate(-36 17)" onmousedown="handlePan(-1,0)">
                  <use xlink:href="#rim" fill="#404040">
                        <set attributeName="fill" to="#808080" begin="arrowLeft.mouseover" end="arrowLeft.mouseout"/>
                  </use>
                  <path fill="none" stroke="white" stroke-width="1.5" d="M0,-3.0v7 M-2.5,-0.5L0,-3.0L2.5,-0.5"/>
                </g>
        </g>
        <svg viewBox="0 0 15 15" width="100%" height="30px" preserveAspectRatio="xMaxYMin meet">
         <g id="arrow_out" transform="scale(0.3 0.3)">
          <a xlink:href="classast_1_1_ast_literal_1_1_string_expr__coll__graph_org.svg" target="_base">
           <rect id="button" ry="5" rx="5" y="6" x="6" height="38" width="38"
                fill="#f2f5e9" fill-opacity="0.5" stroke="#606060" stroke-width="1.0"/>
           <path id="arrow"
             d="M 11.500037,31.436501 C 11.940474,20.09759 22.043105,11.32322 32.158766,21.979434 L 37.068811,17.246167 C 37.068811,17.246167 37.088388,32 37.088388,32 L 22.160133,31.978069 C 22.160133,31.978069 26.997745,27.140456 26.997745,27.140456 C 18.528582,18.264221 13.291696,25.230495 11.500037,31.436501 z"
             style="fill:#404040;"/>
          </a>
         </g>
        </svg>
</svg>
