<?xml version="1.0" encoding="UTF-8" standalone="no"?>
<!DOCTYPE svg PUBLIC "-//W3C//DTD SVG 1.1//EN"
 "http://www.w3.org/Graphics/SVG/1.1/DTD/svg11.dtd">
<!-- Generated by graphviz version 2.47.0 (20210316.0004)
 -->
<!-- Title: AstDataReader Pages: 1 -->
<svg width="679pt" height="296pt"
 viewBox="0.00 0.00 679.00 296.00" xmlns="http://www.w3.org/2000/svg" xmlns:xlink="http://www.w3.org/1999/xlink">
<g id="graph0" class="graph" transform="scale(1 1) rotate(0) translate(4 292)">
<title>AstDataReader</title>
<polygon fill="white" stroke="transparent" points="-4,4 -4,-292 675,-292 675,4 -4,4"/>
<!-- Node1 -->
<g id="node1" class="node">
<title>Node1</title>
<g id="a_node1"><a xlink:title="値の読み出しオブジェクト．">
<polygon fill="#bfbfbf" stroke="black" points="187,-0.5 187,-19.5 271,-19.5 271,-0.5 187,-0.5"/>
<text text-anchor="middle" x="229" y="-7.5" font-family="Helvetica,sans-Serif" font-size="10.00">AstDataReader</text>
</a>
</g>
</g>
<!-- Node2 -->
<g id="node2" class="node">
<title>Node2</title>
<g id="a_node2"><a xlink:href="classast_1_1_ast_atom.html" target="_top" xlink:title="値を返すことができる終端オブジェクトのクラス">
<polygon fill="white" stroke="black" points="227.5,-57.5 227.5,-76.5 282.5,-76.5 282.5,-57.5 227.5,-57.5"/>
<text text-anchor="middle" x="255" y="-64.5" font-family="Helvetica,sans-Serif" font-size="10.00">AstAtom</text>
</a>
</g>
</g>
<!-- Node2&#45;&gt;Node1 -->
<g id="edge1" class="edge">
<title>Node2&#45;&gt;Node1</title>
<path fill="none" stroke="midnightblue" d="M246.65,-48.33C242.13,-38.77 236.74,-27.38 233.12,-19.71"/>
<polygon fill="midnightblue" stroke="midnightblue" points="243.5,-49.86 250.94,-57.41 249.83,-46.87 243.5,-49.86"/>
</g>
<!-- Node3 -->
<g id="node3" class="node">
<title>Node3</title>
<g id="a_node3"><a xlink:href="classast_1_1_ast_terminal.html" target="_top" xlink:title="値型をもたない終端オブジェクトのクラス">
<polygon fill="white" stroke="black" points="221,-114.5 221,-133.5 289,-133.5 289,-114.5 221,-114.5"/>
<text text-anchor="middle" x="255" y="-121.5" font-family="Helvetica,sans-Serif" font-size="10.00">AstTerminal</text>
</a>
</g>
</g>
<!-- Node3&#45;&gt;Node2 -->
<g id="edge2" class="edge">
<title>Node3&#45;&gt;Node2</title>
<path fill="none" stroke="midnightblue" d="M255,-104.12C255,-94.82 255,-84.06 255,-76.71"/>
<polygon fill="midnightblue" stroke="midnightblue" points="251.5,-104.41 255,-114.41 258.5,-104.41 251.5,-104.41"/>
</g>
<!-- Node4 -->
<g id="node4" class="node">
<title>Node4</title>
<g id="a_node4"><a xlink:href="classast_1_1_ast_node.html" target="_top" xlink:title=" ">
<polygon fill="white" stroke="black" points="273.5,-190.5 273.5,-209.5 328.5,-209.5 328.5,-190.5 273.5,-190.5"/>
<text text-anchor="middle" x="301" y="-197.5" font-family="Helvetica,sans-Serif" font-size="10.00">AstNode</text>
</a>
</g>
</g>
<!-- Node4&#45;&gt;Node3 -->
<g id="edge3" class="edge">
<title>Node4&#45;&gt;Node3</title>
<path fill="none" stroke="midnightblue" d="M290.04,-181.37C280.72,-166.37 267.71,-145.44 260.45,-133.77"/>
<polygon fill="midnightblue" stroke="midnightblue" points="287.29,-183.58 295.54,-190.22 293.24,-179.88 287.29,-183.58"/>
</g>
<!-- Node5 -->
<g id="node5" class="node">
<title>Node5</title>
<g id="a_node5"><a xlink:href="interfaceformat_1_1_x_formattable.html" target="_top" xlink:title="入れ子フォーマット出力可能なオブジェクトのインタフェース。">
<polygon fill="white" stroke="black" points="16.5,-268.5 16.5,-287.5 91.5,-287.5 91.5,-268.5 16.5,-268.5"/>
<text text-anchor="middle" x="54" y="-275.5" font-family="Helvetica,sans-Serif" font-size="10.00">XFormattable</text>
</a>
</g>
</g>
<!-- Node5&#45;&gt;Node4 -->
<g id="edge4" class="edge">
<title>Node5&#45;&gt;Node4</title>
<path fill="none" stroke="midnightblue" d="M77.09,-263.22C99.02,-250.37 130.57,-232.51 144,-228 195.13,-210.84 211.08,-220.38 264,-210 266.98,-209.41 270.09,-208.75 273.18,-208.05"/>
<polygon fill="midnightblue" stroke="midnightblue" points="75.2,-260.28 68.37,-268.38 78.76,-266.31 75.2,-260.28"/>
</g>
<!-- Node12 -->
<g id="node12" class="node">
<title>Node12</title>
<g id="a_node12"><a xlink:href="interfaceformat_1_1_x_formattable_1_1_terminatable.html" target="_top" xlink:title="木構造の終端として清書可能なオブジェクトのクラス">
<polygon fill="white" stroke="black" points="121,-190.5 121,-209.5 255,-209.5 255,-190.5 121,-190.5"/>
<text text-anchor="middle" x="188" y="-197.5" font-family="Helvetica,sans-Serif" font-size="10.00">XFormattable.Terminatable</text>
</a>
</g>
</g>
<!-- Node5&#45;&gt;Node12 -->
<g id="edge12" class="edge">
<title>Node5&#45;&gt;Node12</title>
<path fill="none" stroke="midnightblue" d="M65.64,-260.29C73.84,-249.65 85.71,-236.36 99,-228 112.4,-219.58 128.58,-213.65 143.45,-209.53"/>
<polygon fill="midnightblue" stroke="midnightblue" points="62.76,-258.3 59.66,-268.43 68.4,-262.45 62.76,-258.3"/>
</g>
<!-- Node15 -->
<g id="node15" class="node">
<title>Node15</title>
<g id="a_node15"><a xlink:href="interfaceformat_1_1_x_formattable_1_1_typed_formattable.html" target="_top" xlink:title="ノードの型情報をもつ書式出力可能なオブジェクトのインタフェース．">
<polygon fill="white" stroke="black" points="0,-152.5 0,-171.5 156,-171.5 156,-152.5 0,-152.5"/>
<text text-anchor="middle" x="78" y="-159.5" font-family="Helvetica,sans-Serif" font-size="10.00">XFormattable.TypedFormattable</text>
</a>
</g>
</g>
<!-- Node5&#45;&gt;Node15 -->
<g id="edge17" class="edge">
<title>Node5&#45;&gt;Node15</title>
<path fill="none" stroke="midnightblue" d="M57.91,-258.41C63.17,-233.44 72.3,-190.08 76.18,-171.67"/>
<polygon fill="midnightblue" stroke="midnightblue" points="54.44,-257.92 55.8,-268.43 61.29,-259.37 54.44,-257.92"/>
</g>
<!-- Node6 -->
<g id="node6" class="node">
<title>Node6</title>
<g id="a_node6"><a xlink:title=" ">
<polygon fill="white" stroke="#bfbfbf" points="370,-268.5 370,-287.5 412,-287.5 412,-268.5 370,-268.5"/>
<text text-anchor="middle" x="391" y="-275.5" font-family="Helvetica,sans-Serif" font-size="10.00">String</text>
</a>
</g>
</g>
<!-- Node6&#45;&gt;Node4 -->
<g id="edge5" class="edge">
<title>Node6&#45;&gt;Node4</title>
<path fill="none" stroke="#9a32cd" stroke-dasharray="5,2" d="M381.49,-259.54C375.27,-249.36 366.39,-236.81 356,-228 346.83,-220.22 335.04,-214.05 324.73,-209.58"/>
<polygon fill="#9a32cd" stroke="#9a32cd" points="378.57,-261.48 386.6,-268.39 384.63,-257.98 378.57,-261.48"/>
<text text-anchor="middle" x="401" y="-242" font-family="Helvetica,sans-Serif" font-size="10.00"> MOD_AST</text>
<text text-anchor="middle" x="401" y="-231" font-family="Helvetica,sans-Serif" font-size="10.00">mod_</text>
</g>
<!-- Node7 -->
<g id="node7" class="node">
<title>Node7</title>
<g id="a_node7"><a xlink:title=" ">
<polygon fill="white" stroke="#bfbfbf" points="432.5,-268.5 432.5,-287.5 497.5,-287.5 497.5,-268.5 432.5,-268.5"/>
<text text-anchor="middle" x="465" y="-275.5" font-family="Helvetica,sans-Serif" font-size="10.00">TraceLevel</text>
</a>
</g>
</g>
<!-- Node7&#45;&gt;Node4 -->
<g id="edge6" class="edge">
<title>Node7&#45;&gt;Node4</title>
<path fill="none" stroke="#9a32cd" stroke-dasharray="5,2" d="M456.84,-258.86C451.12,-248.22 442.44,-235.44 431,-228 395.34,-204.81 378.54,-219.16 337,-210 334.36,-209.42 331.61,-208.78 328.87,-208.13"/>
<polygon fill="#9a32cd" stroke="#9a32cd" points="453.86,-260.73 461.42,-268.16 460.15,-257.64 453.86,-260.73"/>
<text text-anchor="middle" x="462" y="-236.5" font-family="Helvetica,sans-Serif" font-size="10.00"> LOG</text>
</g>
<!-- Node8 -->
<g id="node8" class="node">
<title>Node8</title>
<g id="a_node8"><a xlink:title=" ">
<polygon fill="white" stroke="#bfbfbf" points="109.5,-268.5 109.5,-287.5 182.5,-287.5 182.5,-268.5 109.5,-268.5"/>
<text text-anchor="middle" x="146" y="-275.5" font-family="Helvetica,sans-Serif" font-size="10.00">static Report</text>
</a>
</g>
</g>
<!-- Node8&#45;&gt;Node4 -->
<g id="edge7" class="edge">
<title>Node8&#45;&gt;Node4</title>
<path fill="none" stroke="#9a32cd" stroke-dasharray="5,2" d="M146.27,-258.15C147.45,-247.81 150.7,-235.59 159,-228 193.94,-196.05 217.64,-219.6 264,-210 266.98,-209.38 270.08,-208.7 273.17,-207.99"/>
<polygon fill="#9a32cd" stroke="#9a32cd" points="142.77,-258.13 145.67,-268.32 149.75,-258.54 142.77,-258.13"/>
<text text-anchor="middle" x="170" y="-236.5" font-family="Helvetica,sans-Serif" font-size="10.00"> repo</text>
</g>
<!-- Node9 -->
<g id="node9" class="node">
<title>Node9</title>
<g id="a_node9"><a xlink:title=" ">
<polygon fill="white" stroke="#bfbfbf" points="200.5,-268.5 200.5,-287.5 229.5,-287.5 229.5,-268.5 200.5,-268.5"/>
<text text-anchor="middle" x="215" y="-275.5" font-family="Helvetica,sans-Serif" font-size="10.00">int</text>
</a>
</g>
</g>
<!-- Node9&#45;&gt;Node4 -->
<g id="edge8" class="edge">
<title>Node9&#45;&gt;Node4</title>
<path fill="none" stroke="#9a32cd" stroke-dasharray="5,2" d="M195.43,-261.37C192.4,-257.97 189.71,-254.13 188,-250 184.26,-240.97 181.93,-235.67 188,-228 209.53,-200.77 230.25,-218.1 264,-210 266.96,-209.29 270.05,-208.54 273.12,-207.8"/>
<polygon fill="#9a32cd" stroke="#9a32cd" points="193.18,-264.06 202.81,-268.46 198.02,-259.01 193.18,-264.06"/>
<text text-anchor="middle" x="249.5" y="-242" font-family="Helvetica,sans-Serif" font-size="10.00"> BITMASK_PRINT_WIDTH</text>
<text text-anchor="middle" x="249.5" y="-231" font-family="Helvetica,sans-Serif" font-size="10.00">UNDEF</text>
</g>
<!-- Node10 -->
<g id="node10" class="node">
<title>Node10</title>
<g id="a_node10"><a xlink:href="interfacetype_1_1_typable.html" target="_top" xlink:title="抽象ノードがもつ関数型のインタフェース">
<polygon fill="white" stroke="black" points="302,-268.5 302,-287.5 352,-287.5 352,-268.5 302,-268.5"/>
<text text-anchor="middle" x="327" y="-275.5" font-family="Helvetica,sans-Serif" font-size="10.00">Typable</text>
</a>
</g>
</g>
<!-- Node10&#45;&gt;Node4 -->
<g id="edge9" class="edge">
<title>Node10&#45;&gt;Node4</title>
<path fill="none" stroke="#9a32cd" stroke-dasharray="5,2" d="M323.54,-258.41C321.54,-249.11 318.68,-237.79 315,-228 312.62,-221.67 309.12,-214.92 306.22,-209.75"/>
<polygon fill="#9a32cd" stroke="#9a32cd" points="320.16,-259.37 325.55,-268.49 327.03,-258 320.16,-259.37"/>
<text text-anchor="middle" x="337" y="-236.5" font-family="Helvetica,sans-Serif" font-size="10.00"> typing</text>
</g>
<!-- Node11 -->
<g id="node11" class="node">
<title>Node11</title>
<g id="a_node11"><a xlink:title=" ">
<polygon fill="white" stroke="#bfbfbf" points="545,-268.5 545,-287.5 595,-287.5 595,-268.5 545,-268.5"/>
<text text-anchor="middle" x="570" y="-275.5" font-family="Helvetica,sans-Serif" font-size="10.00">boolean</text>
</a>
</g>
</g>
<!-- Node11&#45;&gt;Node1 -->
<g id="edge18" class="edge">
<title>Node11&#45;&gt;Node1</title>
<path fill="none" stroke="#9a32cd" stroke-dasharray="5,2" d="M581.29,-259.43C589.8,-244.5 600,-222.18 600,-201 600,-201 600,-201 600,-66 600,-33.08 368.44,-17.85 271.2,-12.9"/>
<polygon fill="#9a32cd" stroke="#9a32cd" points="578.24,-257.72 576.07,-268.09 584.23,-261.34 578.24,-257.72"/>
<text text-anchor="middle" x="635.5" y="-121.5" font-family="Helvetica,sans-Serif" font-size="10.00"> DEBUG_TYPE</text>
</g>
<!-- Node11&#45;&gt;Node4 -->
<g id="edge10" class="edge">
<title>Node11&#45;&gt;Node4</title>
<path fill="none" stroke="#9a32cd" stroke-dasharray="5,2" d="M541.33,-264.23C532.16,-259.93 522.05,-254.96 513,-250 496.89,-241.16 495.3,-234.2 478,-228 418.53,-206.69 399.09,-221.68 337,-210 334.34,-209.5 331.59,-208.92 328.84,-208.3"/>
<polygon fill="#9a32cd" stroke="#9a32cd" points="539.91,-267.43 550.45,-268.44 542.84,-261.07 539.91,-267.43"/>
<text text-anchor="middle" x="549.5" y="-236.5" font-family="Helvetica,sans-Serif" font-size="10.00"> DEBUG_REPO</text>
</g>
<!-- Node12&#45;&gt;Node1 -->
<g id="edge15" class="edge">
<title>Node12&#45;&gt;Node1</title>
<path fill="none" stroke="midnightblue" d="M191.79,-180.3C197.33,-153.11 208.07,-101.09 218,-57 220.92,-44.02 224.55,-29.05 226.82,-19.8"/>
<polygon fill="midnightblue" stroke="midnightblue" points="188.31,-179.84 189.75,-190.34 195.17,-181.24 188.31,-179.84"/>
</g>
<!-- Node12&#45;&gt;Node3 -->
<g id="edge11" class="edge">
<title>Node12&#45;&gt;Node3</title>
<path fill="none" stroke="midnightblue" d="M202.81,-182.64C216.46,-167.57 236.19,-145.78 247.06,-133.77"/>
<polygon fill="midnightblue" stroke="midnightblue" points="200.07,-180.46 195.95,-190.22 205.26,-185.16 200.07,-180.46"/>
</g>
<!-- Node13 -->
<g id="node13" class="node">
<title>Node13</title>
<g id="a_node13"><a xlink:href="interfacecmd_1_1_generatable_1_1_evaluatable.html" target="_top" xlink:title="評価して値を返すノードのインタフェース．必ずしもコードを生成しなくても良い．">
<polygon fill="white" stroke="black" points="311.5,-114.5 311.5,-133.5 434.5,-133.5 434.5,-114.5 311.5,-114.5"/>
<text text-anchor="middle" x="373" y="-121.5" font-family="Helvetica,sans-Serif" font-size="10.00">Generatable.Evaluatable</text>
</a>
</g>
</g>
<!-- Node13&#45;&gt;Node2 -->
<g id="edge13" class="edge">
<title>Node13&#45;&gt;Node2</title>
<path fill="none" stroke="midnightblue" d="M345.32,-110.1C323.11,-99.75 292.57,-85.51 273.31,-76.53"/>
<polygon fill="midnightblue" stroke="midnightblue" points="344.02,-113.35 354.56,-114.41 346.98,-107.01 344.02,-113.35"/>
</g>
<!-- Node14 -->
<g id="node14" class="node">
<title>Node14</title>
<g id="a_node14"><a xlink:href="interfacecmd_1_1_generatable.html" target="_top" xlink:title="変換してコードを生成できるノードのインタフェース.">
<polygon fill="white" stroke="black" points="346.5,-190.5 346.5,-209.5 415.5,-209.5 415.5,-190.5 346.5,-190.5"/>
<text text-anchor="middle" x="381" y="-197.5" font-family="Helvetica,sans-Serif" font-size="10.00">Generatable</text>
</a>
</g>
</g>
<!-- Node14&#45;&gt;Node13 -->
<g id="edge14" class="edge">
<title>Node14&#45;&gt;Node13</title>
<path fill="none" stroke="midnightblue" d="M378.95,-180.07C377.34,-165.18 375.17,-145.11 373.95,-133.77"/>
<polygon fill="midnightblue" stroke="midnightblue" points="375.5,-180.65 380.05,-190.22 382.46,-179.9 375.5,-180.65"/>
</g>
<!-- Node15&#45;&gt;Node1 -->
<g id="edge16" class="edge">
<title>Node15&#45;&gt;Node1</title>
<path fill="none" stroke="midnightblue" d="M88.48,-143.51C104.62,-117.74 137.74,-69.23 176,-38 185.28,-30.42 197.03,-24.17 207.11,-19.6"/>
<polygon fill="midnightblue" stroke="midnightblue" points="85.4,-141.84 83.15,-152.2 91.36,-145.51 85.4,-141.84"/>
</g>
</g>
</svg>
