<?xml version="1.0" encoding="UTF-8" standalone="no"?>
<!DOCTYPE svg PUBLIC "-//W3C//DTD SVG 1.1//EN"
 "http://www.w3.org/Graphics/SVG/1.1/DTD/svg11.dtd">
<!-- Generated by graphviz version 2.47.0 (20210316.0004)
 -->
<!-- Title: AstMathOper.BinaryOper Pages: 1 -->
<svg width="1199pt" height="237pt"
 viewBox="0.00 0.00 1199.00 237.00" xmlns="http://www.w3.org/2000/svg" xmlns:xlink="http://www.w3.org/1999/xlink">
<g id="graph0" class="graph" transform="scale(1 1) rotate(0) translate(4 233)">
<title>AstMathOper.BinaryOper</title>
<polygon fill="white" stroke="transparent" points="-4,4 -4,-233 1195,-233 1195,4 -4,4"/>
<!-- Node1 -->
<g id="node1" class="node">
<title>Node1</title>
<g id="a_node1"><a xlink:title="end of class AstMathOper">
<polygon fill="#bfbfbf" stroke="black" points="550,-76.5 550,-95.5 675,-95.5 675,-76.5 550,-76.5"/>
<text text-anchor="middle" x="612.5" y="-83.5" font-family="Helvetica,sans-Serif" font-size="10.00">AstMathOper.BinaryOper</text>
</a>
</g>
</g>
<!-- Node12 -->
<g id="node10" class="node">
<title>Node12</title>
<g id="a_node10"><a xlink:href="classast_1_1_ast_math_oper_1_1_boolean_oper.html" target="_top" xlink:title=" ">
<polygon fill="white" stroke="black" points="714.5,-161.5 714.5,-180.5 847.5,-180.5 847.5,-161.5 714.5,-161.5"/>
<text text-anchor="middle" x="781" y="-168.5" font-family="Helvetica,sans-Serif" font-size="10.00">AstMathOper.BooleanOper</text>
</a>
</g>
</g>
<!-- Node1&#45;&gt;Node12 -->
<g id="edge9" class="edge">
<title>Node1&#45;&gt;Node12</title>
<path fill="none" stroke="midnightblue" d="M636.82,-100.92C656.26,-113.03 684.88,-130.15 711,-143 724.92,-149.85 740.95,-156.43 754.06,-161.49"/>
<polygon fill="midnightblue" stroke="midnightblue" points="638.66,-97.93 628.33,-95.57 634.93,-103.86 638.66,-97.93"/>
</g>
<!-- Node16 -->
<g id="node14" class="node">
<title>Node16</title>
<g id="a_node14"><a xlink:href="classast_1_1_ast_math_oper_1_1_double_oper.html" target="_top" xlink:title=" ">
<polygon fill="white" stroke="black" points="717,-114.5 717,-133.5 845,-133.5 845,-114.5 717,-114.5"/>
<text text-anchor="middle" x="781" y="-121.5" font-family="Helvetica,sans-Serif" font-size="10.00">AstMathOper.DoubleOper</text>
</a>
</g>
</g>
<!-- Node1&#45;&gt;Node16 -->
<g id="edge13" class="edge">
<title>Node1&#45;&gt;Node16</title>
<path fill="none" stroke="midnightblue" d="M665.31,-97.82C688.78,-103.18 716.17,-109.43 738.29,-114.48"/>
<polygon fill="midnightblue" stroke="midnightblue" points="666.04,-94.4 655.51,-95.59 664.49,-101.23 666.04,-94.4"/>
</g>
<!-- Node17 -->
<g id="node15" class="node">
<title>Node17</title>
<g id="a_node15"><a xlink:href="classast_1_1_ast_math_oper_1_1_integer_oper.html" target="_top" xlink:title=" ">
<polygon fill="white" stroke="black" points="717,-76.5 717,-95.5 845,-95.5 845,-76.5 717,-76.5"/>
<text text-anchor="middle" x="781" y="-83.5" font-family="Helvetica,sans-Serif" font-size="10.00">AstMathOper.IntegerOper</text>
</a>
</g>
</g>
<!-- Node1&#45;&gt;Node17 -->
<g id="edge14" class="edge">
<title>Node1&#45;&gt;Node17</title>
<path fill="none" stroke="midnightblue" d="M685.04,-86C695.6,-86 706.41,-86 716.78,-86"/>
<polygon fill="midnightblue" stroke="midnightblue" points="685.03,-82.5 675.03,-86 685.03,-89.5 685.03,-82.5"/>
</g>
<!-- Node21 -->
<g id="node19" class="node">
<title>Node21</title>
<g id="a_node19"><a xlink:href="classast_1_1_ast_math_oper_1_1_number_oper.html" target="_top" xlink:title=" ">
<polygon fill="white" stroke="black" points="715,-38.5 715,-57.5 847,-57.5 847,-38.5 715,-38.5"/>
<text text-anchor="middle" x="781" y="-45.5" font-family="Helvetica,sans-Serif" font-size="10.00">AstMathOper.NumberOper</text>
</a>
</g>
</g>
<!-- Node1&#45;&gt;Node21 -->
<g id="edge18" class="edge">
<title>Node1&#45;&gt;Node21</title>
<path fill="none" stroke="midnightblue" d="M665.31,-74.18C688.78,-68.82 716.17,-62.57 738.29,-57.52"/>
<polygon fill="midnightblue" stroke="midnightblue" points="664.49,-70.77 655.51,-76.41 666.04,-77.6 664.49,-70.77"/>
</g>
<!-- Node23 -->
<g id="node21" class="node">
<title>Node23</title>
<g id="a_node21"><a xlink:href="classast_1_1_ast_math_oper_1_1_string_add_oper.html" target="_top" xlink:title=" ">
<polygon fill="white" stroke="black" points="711,-0.5 711,-19.5 851,-19.5 851,-0.5 711,-0.5"/>
<text text-anchor="middle" x="781" y="-7.5" font-family="Helvetica,sans-Serif" font-size="10.00">AstMathOper.StringAddOper</text>
</a>
</g>
</g>
<!-- Node1&#45;&gt;Node23 -->
<g id="edge20" class="edge">
<title>Node1&#45;&gt;Node23</title>
<path fill="none" stroke="midnightblue" d="M635.45,-70.92C654.67,-58.28 683.7,-40.5 711,-29 719.7,-25.33 729.32,-22.17 738.54,-19.53"/>
<polygon fill="midnightblue" stroke="midnightblue" points="633.48,-68.03 627.11,-76.49 637.37,-73.85 633.48,-68.03"/>
</g>
<!-- Node2 -->
<g id="node2" class="node">
<title>Node2</title>
<g id="a_node2"><a xlink:href="classast_1_1_ast_math_oper.html" target="_top" xlink:title="値を返すことができるノードのクラス．一般に1個以上の子をもつ演算子である．">
<polygon fill="white" stroke="black" points="440,-76.5 440,-95.5 514,-95.5 514,-76.5 440,-76.5"/>
<text text-anchor="middle" x="477" y="-83.5" font-family="Helvetica,sans-Serif" font-size="10.00">AstMathOper</text>
</a>
</g>
</g>
<!-- Node2&#45;&gt;Node1 -->
<g id="edge1" class="edge">
<title>Node2&#45;&gt;Node1</title>
<path fill="none" stroke="midnightblue" d="M524.3,-86C532.55,-86 541.27,-86 549.88,-86"/>
<polygon fill="midnightblue" stroke="midnightblue" points="524.13,-82.5 514.13,-86 524.13,-89.5 524.13,-82.5"/>
</g>
<!-- Node3 -->
<g id="node3" class="node">
<title>Node3</title>
<g id="a_node3"><a xlink:href="classast_1_1_ast_oper.html" target="_top" xlink:title=" ">
<polygon fill="white" stroke="black" points="351,-76.5 351,-95.5 404,-95.5 404,-76.5 351,-76.5"/>
<text text-anchor="middle" x="377.5" y="-83.5" font-family="Helvetica,sans-Serif" font-size="10.00">AstOper</text>
</a>
</g>
</g>
<!-- Node3&#45;&gt;Node2 -->
<g id="edge2" class="edge">
<title>Node3&#45;&gt;Node2</title>
<path fill="none" stroke="midnightblue" d="M414.32,-86C422.67,-86 431.56,-86 439.92,-86"/>
<polygon fill="midnightblue" stroke="midnightblue" points="414.12,-82.5 404.12,-86 414.12,-89.5 414.12,-82.5"/>
</g>
<!-- Node4 -->
<g id="node4" class="node">
<title>Node4</title>
<g id="a_node4"><a xlink:href="classast_1_1_ast_node_branch.html" target="_top" xlink:title="タグなしの順アクセスの子供をもてる抽象構文木のノードのクラス。">
<polygon fill="white" stroke="black" points="210.5,-100.5 210.5,-119.5 296.5,-119.5 296.5,-100.5 210.5,-100.5"/>
<text text-anchor="middle" x="253.5" y="-107.5" font-family="Helvetica,sans-Serif" font-size="10.00">AstNodeBranch</text>
</a>
</g>
</g>
<!-- Node4&#45;&gt;Node3 -->
<g id="edge3" class="edge">
<title>Node4&#45;&gt;Node3</title>
<path fill="none" stroke="midnightblue" d="M306.74,-99.72C322.05,-96.71 338.11,-93.55 350.96,-91.02"/>
<polygon fill="midnightblue" stroke="midnightblue" points="305.96,-96.31 296.83,-101.67 307.31,-103.18 305.96,-96.31"/>
</g>
<!-- Node5 -->
<g id="node5" class="node">
<title>Node5</title>
<g id="a_node5"><a xlink:href="classast_1_1_ast_node.html" target="_top" xlink:title=" ">
<polygon fill="white" stroke="red" points="50.5,-157.5 50.5,-176.5 105.5,-176.5 105.5,-157.5 50.5,-157.5"/>
<text text-anchor="middle" x="78" y="-164.5" font-family="Helvetica,sans-Serif" font-size="10.00">AstNode</text>
</a>
</g>
</g>
<!-- Node5&#45;&gt;Node4 -->
<g id="edge4" class="edge">
<title>Node5&#45;&gt;Node4</title>
<path fill="none" stroke="midnightblue" d="M115.54,-159.04C128.43,-155.95 142.96,-152.16 156,-148 182.08,-139.69 211.21,-127.85 230.57,-119.6"/>
<polygon fill="midnightblue" stroke="midnightblue" points="114.56,-155.67 105.61,-161.35 116.15,-162.49 114.56,-155.67"/>
</g>
<!-- Node7 -->
<g id="node6" class="node">
<title>Node7</title>
<g id="a_node6"><a xlink:href="interfaceformat_1_1_x_formattable_1_1_navigatable.html" target="_top" xlink:title="木構造の分岐ノードとして清書可能なオブジェクトのクラス">
<polygon fill="white" stroke="red" points="13,-119.5 13,-138.5 143,-138.5 143,-119.5 13,-119.5"/>
<text text-anchor="middle" x="78" y="-126.5" font-family="Helvetica,sans-Serif" font-size="10.00">XFormattable.Navigatable</text>
</a>
</g>
</g>
<!-- Node7&#45;&gt;Node4 -->
<g id="edge5" class="edge">
<title>Node7&#45;&gt;Node4</title>
<path fill="none" stroke="midnightblue" d="M153.25,-120.87C172.83,-118.72 193.28,-116.49 210.49,-114.6"/>
<polygon fill="midnightblue" stroke="midnightblue" points="152.67,-117.41 143.11,-121.98 153.43,-124.37 152.67,-117.41"/>
</g>
<!-- Node9 -->
<g id="node7" class="node">
<title>Node9</title>
<g id="a_node7"><a xlink:href="interfaceformat_1_1_x_formattable_1_1_typed_formattable.html" target="_top" xlink:title="ノードの型情報をもつ書式出力可能なオブジェクトのインタフェース．">
<polygon fill="white" stroke="red" points="0,-81.5 0,-100.5 156,-100.5 156,-81.5 0,-81.5"/>
<text text-anchor="middle" x="78" y="-88.5" font-family="Helvetica,sans-Serif" font-size="10.00">XFormattable.TypedFormattable</text>
</a>
</g>
</g>
<!-- Node9&#45;&gt;Node4 -->
<g id="edge6" class="edge">
<title>Node9&#45;&gt;Node4</title>
<path fill="none" stroke="midnightblue" d="M166.2,-100.55C181.58,-102.23 196.94,-103.92 210.34,-105.38"/>
<polygon fill="midnightblue" stroke="midnightblue" points="166.43,-97.05 156.11,-99.44 165.67,-104.01 166.43,-97.05"/>
</g>
<!-- Node10 -->
<g id="node8" class="node">
<title>Node10</title>
<g id="a_node8"><a xlink:href="interfacecmd_1_1_generatable_1_1_evaluatable.html" target="_top" xlink:title="評価して値を返すノードのインタフェース．必ずしもコードを生成しなくても良い．">
<polygon fill="white" stroke="black" points="192,-53.5 192,-72.5 315,-72.5 315,-53.5 192,-53.5"/>
<text text-anchor="middle" x="253.5" y="-60.5" font-family="Helvetica,sans-Serif" font-size="10.00">Generatable.Evaluatable</text>
</a>
</g>
</g>
<!-- Node10&#45;&gt;Node3 -->
<g id="edge7" class="edge">
<title>Node10&#45;&gt;Node3</title>
<path fill="none" stroke="midnightblue" d="M315.21,-74.44C327.77,-76.81 340.34,-79.18 350.8,-81.16"/>
<polygon fill="midnightblue" stroke="midnightblue" points="315.65,-70.97 305.18,-72.55 314.36,-77.85 315.65,-70.97"/>
</g>
<!-- Node11 -->
<g id="node9" class="node">
<title>Node11</title>
<g id="a_node9"><a xlink:href="interfacecmd_1_1_generatable.html" target="_top" xlink:title="変換してコードを生成できるノードのインタフェース.">
<polygon fill="white" stroke="black" points="43.5,-43.5 43.5,-62.5 112.5,-62.5 112.5,-43.5 43.5,-43.5"/>
<text text-anchor="middle" x="78" y="-50.5" font-family="Helvetica,sans-Serif" font-size="10.00">Generatable</text>
</a>
</g>
</g>
<!-- Node11&#45;&gt;Node10 -->
<g id="edge8" class="edge">
<title>Node11&#45;&gt;Node10</title>
<path fill="none" stroke="midnightblue" d="M123.01,-55.54C143.84,-56.74 169.06,-58.19 191.68,-59.49"/>
<polygon fill="midnightblue" stroke="midnightblue" points="123.05,-52.03 112.86,-54.95 122.65,-59.02 123.05,-52.03"/>
</g>
<!-- Node13 -->
<g id="node11" class="node">
<title>Node13</title>
<g id="a_node11"><a xlink:href="classast_1_1_ast_math_oper_1_1_and_expr.html" target="_top" xlink:title=" ">
<polygon fill="white" stroke="black" points="907.5,-209.5 907.5,-228.5 1021.5,-228.5 1021.5,-209.5 907.5,-209.5"/>
<text text-anchor="middle" x="964.5" y="-216.5" font-family="Helvetica,sans-Serif" font-size="10.00">AstMathOper.AndExpr</text>
</a>
</g>
</g>
<!-- Node12&#45;&gt;Node13 -->
<g id="edge10" class="edge">
<title>Node12&#45;&gt;Node13</title>
<path fill="none" stroke="midnightblue" d="M825.77,-183.36C844.58,-188.61 866.84,-194.71 887,-200 899.05,-203.16 912.19,-206.47 924.14,-209.43"/>
<polygon fill="midnightblue" stroke="midnightblue" points="826.56,-179.95 815.99,-180.63 824.68,-186.69 826.56,-179.95"/>
</g>
<!-- Node14 -->
<g id="node12" class="node">
<title>Node14</title>
<g id="a_node12"><a xlink:href="classast_1_1_ast_math_oper_1_1_not_expr.html" target="_top" xlink:title=" ">
<polygon fill="white" stroke="black" points="908,-171.5 908,-190.5 1021,-190.5 1021,-171.5 908,-171.5"/>
<text text-anchor="middle" x="964.5" y="-178.5" font-family="Helvetica,sans-Serif" font-size="10.00">AstMathOper.NotExpr</text>
</a>
</g>
</g>
<!-- Node12&#45;&gt;Node14 -->
<g id="edge11" class="edge">
<title>Node12&#45;&gt;Node14</title>
<path fill="none" stroke="midnightblue" d="M857.87,-175.18C874.66,-176.11 892.15,-177.07 907.95,-177.94"/>
<polygon fill="midnightblue" stroke="midnightblue" points="857.7,-171.67 847.53,-174.61 857.32,-178.66 857.7,-171.67"/>
</g>
<!-- Node15 -->
<g id="node13" class="node">
<title>Node15</title>
<g id="a_node13"><a xlink:href="classast_1_1_ast_math_oper_1_1_or_expr.html" target="_top" xlink:title=" ">
<polygon fill="white" stroke="black" points="911,-133.5 911,-152.5 1018,-152.5 1018,-133.5 911,-133.5"/>
<text text-anchor="middle" x="964.5" y="-140.5" font-family="Helvetica,sans-Serif" font-size="10.00">AstMathOper.OrExpr</text>
</a>
</g>
</g>
<!-- Node12&#45;&gt;Node15 -->
<g id="edge12" class="edge">
<title>Node12&#45;&gt;Node15</title>
<path fill="none" stroke="midnightblue" d="M853.81,-159.92C872.81,-156.99 892.97,-153.88 910.75,-151.14"/>
<polygon fill="midnightblue" stroke="midnightblue" points="853.05,-156.5 843.7,-161.48 854.12,-163.42 853.05,-156.5"/>
</g>
<!-- Node18 -->
<g id="node16" class="node">
<title>Node18</title>
<g id="a_node16"><a xlink:href="classast_1_1_ast_math_oper_1_1_add_term.html" target="_top" xlink:title=" ">
<polygon fill="white" stroke="black" points="906.5,-95.5 906.5,-114.5 1022.5,-114.5 1022.5,-95.5 906.5,-95.5"/>
<text text-anchor="middle" x="964.5" y="-102.5" font-family="Helvetica,sans-Serif" font-size="10.00">AstMathOper.AddTerm</text>
</a>
</g>
</g>
<!-- Node17&#45;&gt;Node18 -->
<g id="edge15" class="edge">
<title>Node17&#45;&gt;Node18</title>
<path fill="none" stroke="midnightblue" d="M855.61,-93.71C872.49,-95.47 890.2,-97.33 906.27,-99.01"/>
<polygon fill="midnightblue" stroke="midnightblue" points="855.54,-90.18 845.23,-92.62 854.81,-97.14 855.54,-90.18"/>
</g>
<!-- Node20 -->
<g id="node18" class="node">
<title>Node20</title>
<g id="a_node18"><a xlink:href="classast_1_1_ast_math_oper_1_1_mul_term.html" target="_top" xlink:title=" ">
<polygon fill="white" stroke="black" points="907.5,-57.5 907.5,-76.5 1021.5,-76.5 1021.5,-57.5 907.5,-57.5"/>
<text text-anchor="middle" x="964.5" y="-64.5" font-family="Helvetica,sans-Serif" font-size="10.00">AstMathOper.MulTerm</text>
</a>
</g>
</g>
<!-- Node17&#45;&gt;Node20 -->
<g id="edge17" class="edge">
<title>Node17&#45;&gt;Node20</title>
<path fill="none" stroke="midnightblue" d="M855.34,-78.32C872.72,-76.5 890.99,-74.59 907.47,-72.87"/>
<polygon fill="midnightblue" stroke="midnightblue" points="854.81,-74.86 845.23,-79.38 855.54,-81.82 854.81,-74.86"/>
</g>
<!-- Node19 -->
<g id="node17" class="node">
<title>Node19</title>
<g id="a_node17"><a xlink:href="classast_1_1_ast_math_oper_1_1_pre_term.html" target="_top" xlink:title=" ">
<polygon fill="white" stroke="black" points="1078,-95.5 1078,-114.5 1191,-114.5 1191,-95.5 1078,-95.5"/>
<text text-anchor="middle" x="1134.5" y="-102.5" font-family="Helvetica,sans-Serif" font-size="10.00">AstMathOper.PreTerm</text>
</a>
</g>
</g>
<!-- Node18&#45;&gt;Node19 -->
<g id="edge16" class="edge">
<title>Node18&#45;&gt;Node19</title>
<path fill="none" stroke="midnightblue" d="M1033.01,-105C1047.89,-105 1063.48,-105 1077.83,-105"/>
<polygon fill="midnightblue" stroke="midnightblue" points="1032.85,-101.5 1022.85,-105 1032.85,-108.5 1032.85,-101.5"/>
</g>
<!-- Node22 -->
<g id="node20" class="node">
<title>Node22</title>
<g id="a_node20"><a xlink:href="classast_1_1_ast_math_oper_1_1_number_or_str_oper.html" target="_top" xlink:title=" ">
<polygon fill="white" stroke="black" points="887,-19.5 887,-38.5 1042,-38.5 1042,-19.5 887,-19.5"/>
<text text-anchor="middle" x="964.5" y="-26.5" font-family="Helvetica,sans-Serif" font-size="10.00">AstMathOper.NumberOrStrOper</text>
</a>
</g>
</g>
<!-- Node21&#45;&gt;Node22 -->
<g id="edge19" class="edge">
<title>Node21&#45;&gt;Node22</title>
<path fill="none" stroke="midnightblue" d="M857.14,-40.13C866.96,-39.11 877.03,-38.05 886.87,-37.02"/>
<polygon fill="midnightblue" stroke="midnightblue" points="856.59,-36.67 847.01,-41.19 857.32,-43.63 856.59,-36.67"/>
</g>
</g>
</svg>
