<?xml version="1.0" encoding="UTF-8" standalone="no"?>
<!DOCTYPE svg PUBLIC "-//W3C//DTD SVG 1.1//EN"
 "http://www.w3.org/Graphics/SVG/1.1/DTD/svg11.dtd">
<!-- Generated by graphviz version 2.38.0 (20140413.2041)
 -->
<!-- Title: StringAdder Pages: 1 -->
<svg width="374pt" height="112pt"
 viewBox="0.00 0.00 373.67 112.00" xmlns="http://www.w3.org/2000/svg" xmlns:xlink="http://www.w3.org/1999/xlink">
<g id="graph0" class="graph" transform="scale(1 1) rotate(0) translate(4 108)">
<title>StringAdder</title>
<polygon fill="white" stroke="none" points="-4,4 -4,-108 369.674,-108 369.674,4 -4,4"/>
<!-- Node1 -->
<g id="node1" class="node"><title>Node1</title>
<g id="a_node1"><a xlink:title="追記可能な文字列バッファ型値を格納するオブジェクト。">
<polygon fill="#bfbfbf" stroke="black" points="158.808,-0.5 158.808,-18.5 227.615,-18.5 227.615,-0.5 158.808,-0.5"/>
<text text-anchor="middle" x="193.211" y="-6.5" font-family="Helvetica,sans-Serif" font-size="10.00">StringAdder</text>
</a>
</g>
</g>
<!-- Node2 -->
<g id="node2" class="node"><title>Node2</title>
<g id="a_node2"><a xlink:href="interfaceframe_1_1_addable.html" target="_top" xlink:title=" ">
<polygon fill="white" stroke="black" points="0,-85.5 0,-103.5 154.423,-103.5 154.423,-85.5 0,-85.5"/>
<text text-anchor="middle" x="77.2114" y="-91.5" font-family="Helvetica,sans-Serif" font-size="10.00">Addable&lt; String, StringAdder &gt;</text>
</a>
</g>
</g>
<!-- Node2&#45;&gt;Node1 -->
<g id="edge1" class="edge"><title>Node2&#45;&gt;Node1</title>
<path fill="none" stroke="midnightblue" d="M96.9284,-79.3922C121.292,-61.9597 161.941,-32.8742 181.712,-18.7284"/>
<polygon fill="midnightblue" stroke="midnightblue" points="94.854,-76.5727 88.758,-85.2382 98.9273,-82.2656 94.854,-76.5727"/>
</g>
<!-- Node3 -->
<g id="node3" class="node"><title>Node3</title>
<g id="a_node3"><a xlink:title=" ">
<polygon fill="white" stroke="#bfbfbf" points="172.15,-85.5 172.15,-103.5 214.273,-103.5 214.273,-85.5 172.15,-85.5"/>
<text text-anchor="middle" x="193.211" y="-91.5" font-family="Helvetica,sans-Serif" font-size="10.00">String</text>
</a>
</g>
</g>
<!-- Node3&#45;&gt;Node1 -->
<g id="edge2" class="edge"><title>Node3&#45;&gt;Node1</title>
<path fill="none" stroke="#9a32cd" stroke-dasharray="5,2" d="M193.211,-75.0586C193.211,-57.4603 193.211,-31.7575 193.211,-18.7284"/>
<polygon fill="#9a32cd" stroke="#9a32cd" points="189.712,-75.2382 193.211,-85.2382 196.712,-75.2382 189.712,-75.2382"/>
<text text-anchor="middle" x="233.412" y="-59" font-family="Helvetica,sans-Serif" font-size="10.00"> delimInit</text>
<text text-anchor="middle" x="233.412" y="-49" font-family="Helvetica,sans-Serif" font-size="10.00">delim</text>
<text text-anchor="middle" x="233.412" y="-39" font-family="Helvetica,sans-Serif" font-size="10.00">DEFAULT_DELIM</text>
</g>
<!-- Node4 -->
<g id="node4" class="node"><title>Node4</title>
<g id="a_node4"><a xlink:title=" ">
<polygon fill="white" stroke="#bfbfbf" points="270.416,-85.5 270.416,-103.5 322.007,-103.5 322.007,-85.5 270.416,-85.5"/>
<text text-anchor="middle" x="296.211" y="-91.5" font-family="Helvetica,sans-Serif" font-size="10.00">boolean</text>
</a>
</g>
</g>
<!-- Node4&#45;&gt;Node1 -->
<g id="edge3" class="edge"><title>Node4&#45;&gt;Node1</title>
<path fill="none" stroke="#9a32cd" stroke-dasharray="5,2" d="M293.307,-75.2762C290.439,-62.928 284.865,-47.0819 274.211,-37 261.638,-25.1011 243.638,-18.5433 227.799,-14.9299"/>
<polygon fill="#9a32cd" stroke="#9a32cd" points="289.922,-76.2083 295.247,-85.3673 296.796,-74.8862 289.922,-76.2083"/>
<text text-anchor="middle" x="328.443" y="-54" font-family="Helvetica,sans-Serif" font-size="10.00"> DEBUG_DELIM</text>
<text text-anchor="middle" x="328.443" y="-44" font-family="Helvetica,sans-Serif" font-size="10.00">DEBUG_REPO</text>
</g>
</g>
</svg>
