<?xml version="1.0" encoding="UTF-8" standalone="no"?>
<!DOCTYPE svg PUBLIC "-//W3C//DTD SVG 1.1//EN"
 "http://www.w3.org/Graphics/SVG/1.1/DTD/svg11.dtd">
<!-- Generated by graphviz version 2.47.0 (20210316.0004)
 -->
<!-- Title: AstAtom.RegexLiteral Pages: 1 -->
<svg width="455pt" height="252pt"
 viewBox="0.00 0.00 455.00 252.00" xmlns="http://www.w3.org/2000/svg" xmlns:xlink="http://www.w3.org/1999/xlink">
<g id="graph0" class="graph" transform="scale(1 1) rotate(0) translate(4 248)">
<title>AstAtom.RegexLiteral</title>
<polygon fill="white" stroke="transparent" points="-4,4 -4,-248 451,-248 451,4 -4,4"/>
<!-- Node1 -->
<g id="node1" class="node">
<title>Node1</title>
<g id="a_node1"><a xlink:title=" ">
<polygon fill="#bfbfbf" stroke="black" points="267,-0.5 267,-19.5 380,-19.5 380,-0.5 267,-0.5"/>
<text text-anchor="middle" x="323.5" y="-7.5" font-family="Helvetica,sans-Serif" font-size="10.00">AstAtom.RegexLiteral</text>
</a>
</g>
</g>
<!-- Node2 -->
<g id="node2" class="node">
<title>Node2</title>
<g id="a_node2"><a xlink:href="$classast_1_1_ast_atom_1_1_string_expr.html" xlink:title="String値アトム">
<polygon fill="white" stroke="black" points="271.5,-56.5 271.5,-75.5 375.5,-75.5 375.5,-56.5 271.5,-56.5"/>
<text text-anchor="middle" x="323.5" y="-63.5" font-family="Helvetica,sans-Serif" font-size="10.00">AstAtom.StringExpr</text>
</a>
</g>
</g>
<!-- Node2&#45;&gt;Node1 -->
<g id="edge1" class="edge">
<title>Node2&#45;&gt;Node1</title>
<path fill="none" stroke="midnightblue" d="M323.5,-45.8C323.5,-36.91 323.5,-26.78 323.5,-19.75"/>
<polygon fill="midnightblue" stroke="midnightblue" points="320,-46.08 323.5,-56.08 327,-46.08 320,-46.08"/>
</g>
<!-- Node3 -->
<g id="node3" class="node">
<title>Node3</title>
<g id="a_node3"><a xlink:href="$classast_1_1_ast_atom.html" xlink:title="値を返すことができる終端オブジェクトのクラス">
<polygon fill="white" stroke="black" points="206,-112.5 206,-131.5 261,-131.5 261,-112.5 206,-112.5"/>
<text text-anchor="middle" x="233.5" y="-119.5" font-family="Helvetica,sans-Serif" font-size="10.00">AstAtom</text>
</a>
</g>
</g>
<!-- Node3&#45;&gt;Node2 -->
<g id="edge2" class="edge">
<title>Node3&#45;&gt;Node2</title>
<path fill="none" stroke="midnightblue" d="M256.54,-107.18C273.1,-97.24 294.92,-84.15 309.08,-75.65"/>
<polygon fill="midnightblue" stroke="midnightblue" points="254.73,-104.18 247.96,-112.32 258.34,-110.18 254.73,-104.18"/>
</g>
<!-- Node4 -->
<g id="node4" class="node">
<title>Node4</title>
<g id="a_node4"><a xlink:href="$classast_1_1_ast_terminal.html" xlink:title="値型をもたない終端オブジェクトのクラス">
<polygon fill="white" stroke="black" points="85.5,-168.5 85.5,-187.5 153.5,-187.5 153.5,-168.5 85.5,-168.5"/>
<text text-anchor="middle" x="119.5" y="-175.5" font-family="Helvetica,sans-Serif" font-size="10.00">AstTerminal</text>
</a>
</g>
</g>
<!-- Node4&#45;&gt;Node3 -->
<g id="edge3" class="edge">
<title>Node4&#45;&gt;Node3</title>
<path fill="none" stroke="midnightblue" d="M146.74,-164.1C168.04,-154.01 197.04,-140.27 215.52,-131.52"/>
<polygon fill="midnightblue" stroke="midnightblue" points="145.1,-161 137.56,-168.44 148.1,-167.33 145.1,-161"/>
</g>
<!-- Node5 -->
<g id="node5" class="node">
<title>Node5</title>
<g id="a_node5"><a xlink:href="$classast_1_1_ast_node.html" xlink:title=" ">
<polygon fill="white" stroke="red" points="0,-224.5 0,-243.5 55,-243.5 55,-224.5 0,-224.5"/>
<text text-anchor="middle" x="27.5" y="-231.5" font-family="Helvetica,sans-Serif" font-size="10.00">AstNode</text>
</a>
</g>
</g>
<!-- Node5&#45;&gt;Node4 -->
<g id="edge4" class="edge">
<title>Node5&#45;&gt;Node4</title>
<path fill="none" stroke="midnightblue" d="M51.05,-219.18C67.98,-209.24 90.28,-196.15 104.76,-187.65"/>
<polygon fill="midnightblue" stroke="midnightblue" points="49.13,-216.24 42.28,-224.32 52.68,-222.28 49.13,-216.24"/>
</g>
<!-- Node7 -->
<g id="node6" class="node">
<title>Node7</title>
<g id="a_node6"><a xlink:href="$interfaceformat_1_1_x_formattable_1_1_terminatable.html" xlink:title="木構造の終端として清書可能なオブジェクトのクラス">
<polygon fill="white" stroke="red" points="73.5,-224.5 73.5,-243.5 207.5,-243.5 207.5,-224.5 73.5,-224.5"/>
<text text-anchor="middle" x="140.5" y="-231.5" font-family="Helvetica,sans-Serif" font-size="10.00">XFormattable.Terminatable</text>
</a>
</g>
</g>
<!-- Node7&#45;&gt;Node4 -->
<g id="edge5" class="edge">
<title>Node7&#45;&gt;Node4</title>
<path fill="none" stroke="midnightblue" d="M133.38,-214.69C129.84,-205.59 125.73,-195.01 122.9,-187.75"/>
<polygon fill="midnightblue" stroke="midnightblue" points="130.15,-216.03 137.03,-224.08 136.67,-213.49 130.15,-216.03"/>
</g>
<!-- Node8 -->
<g id="node7" class="node">
<title>Node8</title>
<g id="a_node7"><a xlink:href="$interfacecmd_1_1_generatable_1_1_evaluatable.html" xlink:title="評価して値を返すノードのインタフェース．必ずしもコードを生成しなくても良い．">
<polygon fill="white" stroke="black" points="172,-168.5 172,-187.5 295,-187.5 295,-168.5 172,-168.5"/>
<text text-anchor="middle" x="233.5" y="-175.5" font-family="Helvetica,sans-Serif" font-size="10.00">Generatable.Evaluatable</text>
</a>
</g>
</g>
<!-- Node8&#45;&gt;Node3 -->
<g id="edge6" class="edge">
<title>Node8&#45;&gt;Node3</title>
<path fill="none" stroke="midnightblue" d="M233.5,-157.8C233.5,-148.91 233.5,-138.78 233.5,-131.75"/>
<polygon fill="midnightblue" stroke="midnightblue" points="230,-158.08 233.5,-168.08 237,-158.08 230,-158.08"/>
</g>
<!-- Node9 -->
<g id="node8" class="node">
<title>Node9</title>
<g id="a_node8"><a xlink:href="$interfacecmd_1_1_generatable.html" xlink:title="変換してコードを生成できるノードのインタフェース.">
<polygon fill="white" stroke="black" points="268,-224.5 268,-243.5 337,-243.5 337,-224.5 268,-224.5"/>
<text text-anchor="middle" x="302.5" y="-231.5" font-family="Helvetica,sans-Serif" font-size="10.00">Generatable</text>
</a>
</g>
</g>
<!-- Node9&#45;&gt;Node2 -->
<g id="edge9" class="edge">
<title>Node9&#45;&gt;Node2</title>
<path fill="none" stroke="midnightblue" d="M304.91,-213.93C309.47,-177.92 319.17,-101.23 322.42,-75.57"/>
<polygon fill="midnightblue" stroke="midnightblue" points="301.41,-213.71 303.63,-224.08 308.36,-214.59 301.41,-213.71"/>
</g>
<!-- Node9&#45;&gt;Node8 -->
<g id="edge7" class="edge">
<title>Node9&#45;&gt;Node8</title>
<path fill="none" stroke="midnightblue" d="M283.46,-218.1C271.04,-208.38 255.26,-196.03 244.79,-187.83"/>
<polygon fill="midnightblue" stroke="midnightblue" points="281.38,-220.92 291.41,-224.32 285.7,-215.4 281.38,-220.92"/>
</g>
<!-- Node10 -->
<g id="node9" class="node">
<title>Node10</title>
<g id="a_node9"><a xlink:href="$class_typed_formattable.html" xlink:title=" ">
<polygon fill="white" stroke="black" points="352,-112.5 352,-131.5 447,-131.5 447,-112.5 352,-112.5"/>
<text text-anchor="middle" x="399.5" y="-119.5" font-family="Helvetica,sans-Serif" font-size="10.00">TypedFormattable</text>
</a>
</g>
</g>
<!-- Node10&#45;&gt;Node2 -->
<g id="edge8" class="edge">
<title>Node10&#45;&gt;Node2</title>
<path fill="none" stroke="midnightblue" d="M378.92,-106.38C365.19,-96.62 347.57,-84.11 335.93,-75.83"/>
<polygon fill="midnightblue" stroke="midnightblue" points="377.11,-109.38 387.29,-112.32 381.16,-103.68 377.11,-109.38"/>
</g>
</g>
</svg>
