<?xml version="1.0" encoding="UTF-8" standalone="no"?>
<!DOCTYPE svg PUBLIC "-//W3C//DTD SVG 1.1//EN"
 "http://www.w3.org/Graphics/SVG/1.1/DTD/svg11.dtd">
<!-- Generated by graphviz version 2.38.0 (20140413.2041)
 -->
<!-- Title: strip Pages: 1 -->
<svg width="241pt" height="119pt"
 viewBox="0.00 0.00 240.52 119.00" xmlns="http://www.w3.org/2000/svg" xmlns:xlink="http://www.w3.org/1999/xlink">
<g id="graph0" class="graph" transform="scale(1 1) rotate(0) translate(4 115)">
<title>strip</title>
<polygon fill="white" stroke="none" points="-4,4 -4,-115 236.521,-115 236.521,4 -4,4"/>
<!-- Node1 -->
<g id="node1" class="node"><title>Node1</title>
<g id="a_node1"><a xlink:title="空の子供を取り除く.">
<polygon fill="#bfbfbf" stroke="black" points="0,-37.5 0,-55.5 34.8916,-55.5 34.8916,-37.5 0,-37.5"/>
<text text-anchor="middle" x="17.4458" y="-43.5" font-family="Helvetica,sans-Serif" font-size="10.00">strip</text>
</a>
</g>
</g>
<!-- Node2 -->
<g id="node2" class="node"><title>Node2</title>
<g id="a_node2"><a xlink:href="classast_1_1_ast_node_branch.html#ae9cce06b34cb100ef1aa425387d265fd" target="_top" xlink:title="子供のリストを返す.">
<polygon fill="white" stroke="black" points="81.729,-74.5 81.729,-92.5 221.684,-92.5 221.684,-74.5 81.729,-74.5"/>
<text text-anchor="middle" x="151.707" y="-80.5" font-family="Helvetica,sans-Serif" font-size="10.00">ast.AstNodeBranch.children</text>
</a>
</g>
</g>
<!-- Node1&#45;&gt;Node2 -->
<g id="edge1" class="edge"><title>Node1&#45;&gt;Node2</title>
<path fill="none" stroke="midnightblue" d="M35.273,-53.2077C45.4732,-57.1197 58.8088,-61.9641 70.8916,-65.5 79.0245,-67.88 87.7013,-70.1283 96.2267,-72.1769"/>
<polygon fill="midnightblue" stroke="midnightblue" points="95.59,-75.6223 106.124,-74.4861 97.1805,-68.8054 95.59,-75.6223"/>
</g>
<!-- Node3 -->
<g id="node3" class="node"><title>Node3</title>
<g id="a_node3"><a xlink:href="classast_1_1_ast_node_branch.html#ae67707ee54f4c5d72844844470940d77" target="_top" xlink:title="i番目の子供を返す.">
<polygon fill="white" stroke="black" points="80.894,-37.5 80.894,-55.5 222.519,-55.5 222.519,-37.5 80.894,-37.5"/>
<text text-anchor="middle" x="151.707" y="-43.5" font-family="Helvetica,sans-Serif" font-size="10.00">ast.AstNodeBranch.getChild</text>
</a>
</g>
</g>
<!-- Node1&#45;&gt;Node3 -->
<g id="edge3" class="edge"><title>Node1&#45;&gt;Node3</title>
<path fill="none" stroke="midnightblue" d="M34.9293,-46.5C44.3654,-46.5 56.9795,-46.5 70.4118,-46.5"/>
<polygon fill="midnightblue" stroke="midnightblue" points="70.8039,-50.0001 80.8038,-46.5 70.8038,-43.0001 70.8039,-50.0001"/>
</g>
<!-- Node4 -->
<g id="node4" class="node"><title>Node4</title>
<g id="a_node4"><a xlink:href="classast_1_1_ast_node_branch.html#a43b257b2ab32fc064fad0355c7dc327d" target="_top" xlink:title="子供の数を返す.">
<polygon fill="white" stroke="black" points="70.8916,-0.5 70.8916,-18.5 232.521,-18.5 232.521,-0.5 70.8916,-0.5"/>
<text text-anchor="middle" x="151.707" y="-6.5" font-family="Helvetica,sans-Serif" font-size="10.00">ast.AstNodeBranch.numChildren</text>
</a>
</g>
</g>
<!-- Node1&#45;&gt;Node4 -->
<g id="edge4" class="edge"><title>Node1&#45;&gt;Node4</title>
<path fill="none" stroke="midnightblue" d="M35.319,-40.2432C45.5354,-36.5717 58.872,-31.9844 70.8916,-28.5 80.1314,-25.8214 90.0513,-23.2338 99.6492,-20.8754"/>
<polygon fill="midnightblue" stroke="midnightblue" points="100.589,-24.2493 109.493,-18.5067 98.9513,-17.4435 100.589,-24.2493"/>
</g>
<!-- Node2&#45;&gt;Node2 -->
<g id="edge2" class="edge"><title>Node2&#45;&gt;Node2</title>
<path fill="none" stroke="midnightblue" d="M131.74,-92.5134C120.711,-101.322 127.367,-111 151.707,-111 168.06,-111 176.43,-106.631 176.817,-101.093"/>
<polygon fill="midnightblue" stroke="midnightblue" points="179.817,-99.2896 171.673,-92.5134 173.814,-102.89 179.817,-99.2896"/>
</g>
</g>
</svg>
