<?xml version="1.0" encoding="UTF-8" standalone="no"?>
<!DOCTYPE svg PUBLIC "-//W3C//DTD SVG 1.1//EN"
 "http://www.w3.org/Graphics/SVG/1.1/DTD/svg11.dtd">
<!-- Generated by graphviz version 2.47.0 (20210316.0004)
 -->
<!-- Title: addGetter Pages: 1 -->
<svg width="242pt" height="142pt"
 viewBox="0.00 0.00 242.00 142.00" xmlns="http://www.w3.org/2000/svg" xmlns:xlink="http://www.w3.org/1999/xlink">
<g id="graph0" class="graph" transform="scale(1 1) rotate(0) translate(4 138)">
<title>addGetter</title>
<polygon fill="white" stroke="transparent" points="-4,4 -4,-138 238,-138 238,4 -4,4"/>
<!-- Node1 -->
<g id="node1" class="node">
<title>Node1</title>
<g id="a_node1"><a xlink:title="次の子のField名と，Getter，型を設定し，子の添字idxを返す．">
<polygon fill="#bfbfbf" stroke="black" points="0,-57.5 0,-76.5 59,-76.5 59,-57.5 0,-57.5"/>
<text text-anchor="middle" x="29.5" y="-64.5" font-family="Helvetica,sans-Serif" font-size="10.00">addGetter</text>
</a>
</g>
</g>
<!-- Node2 -->
<g id="node2" class="node">
<title>Node2</title>
<g id="a_node2"><a xlink:href="interfacetype_1_1_typable.html#aa7232c3fd7a09d8287be32ad607556b6" target="_top" xlink:title="子として，型をもつ型項を追加する．">
<polygon fill="white" stroke="black" points="108,-114.5 108,-133.5 221,-133.5 221,-114.5 108,-114.5"/>
<text text-anchor="middle" x="164.5" y="-121.5" font-family="Helvetica,sans-Serif" font-size="10.00">type.Typable.addChild</text>
</a>
</g>
</g>
<!-- Node1&#45;&gt;Node2 -->
<g id="edge1" class="edge">
<title>Node1&#45;&gt;Node2</title>
<path fill="none" stroke="midnightblue" d="M44.28,-76.57C56.98,-85.02 76.58,-97.18 95,-105 100.53,-107.35 106.44,-109.49 112.37,-111.42"/>
<polygon fill="midnightblue" stroke="midnightblue" points="111.75,-114.89 122.33,-114.47 113.79,-108.19 111.75,-114.89"/>
</g>
<!-- Node3 -->
<g id="node3" class="node">
<title>Node3</title>
<g id="a_node3"><a xlink:href="interfacetype_1_1_typable.html#a43fad88a40e732def4cd36c8b11a570b" target="_top" xlink:title=" ">
<polygon fill="white" stroke="black" points="117,-76.5 117,-95.5 212,-95.5 212,-76.5 117,-76.5"/>
<text text-anchor="middle" x="164.5" y="-83.5" font-family="Helvetica,sans-Serif" font-size="10.00">type.Typable.child</text>
</a>
</g>
</g>
<!-- Node1&#45;&gt;Node3 -->
<g id="edge2" class="edge">
<title>Node1&#45;&gt;Node3</title>
<path fill="none" stroke="midnightblue" d="M59.03,-71.08C73,-73.07 90.33,-75.55 106.84,-77.91"/>
<polygon fill="midnightblue" stroke="midnightblue" points="106.57,-81.4 116.97,-79.35 107.56,-74.47 106.57,-81.4"/>
</g>
<!-- Node4 -->
<g id="node4" class="node">
<title>Node4</title>
<g id="a_node4"><a xlink:href="classast_1_1_ast_node_base.html#adfc6b93e5d1b92cba301a9a917fe372c" target="_top" xlink:title="ノードの演算型を返す。">
<polygon fill="white" stroke="black" points="95,-38.5 95,-57.5 234,-57.5 234,-38.5 95,-38.5"/>
<text text-anchor="middle" x="164.5" y="-45.5" font-family="Helvetica,sans-Serif" font-size="10.00">ast.AstNodeBase.getTyping</text>
</a>
</g>
</g>
<!-- Node1&#45;&gt;Node4 -->
<g id="edge3" class="edge">
<title>Node1&#45;&gt;Node4</title>
<path fill="none" stroke="midnightblue" d="M59.03,-62.92C67.39,-61.73 76.95,-60.36 86.82,-58.95"/>
<polygon fill="midnightblue" stroke="midnightblue" points="87.35,-62.41 96.75,-57.54 86.36,-55.48 87.35,-62.41"/>
</g>
<!-- Node5 -->
<g id="node5" class="node">
<title>Node5</title>
<g id="a_node5"><a xlink:href="classast_1_1_ast_node.html#a43b257b2ab32fc064fad0355c7dc327d" target="_top" xlink:title="子供の数を返す.">
<polygon fill="white" stroke="black" points="100,-0.5 100,-19.5 229,-19.5 229,-0.5 100,-0.5"/>
<text text-anchor="middle" x="164.5" y="-7.5" font-family="Helvetica,sans-Serif" font-size="10.00">ast.AstNode.numChildren</text>
</a>
</g>
</g>
<!-- Node1&#45;&gt;Node5 -->
<g id="edge4" class="edge">
<title>Node1&#45;&gt;Node5</title>
<path fill="none" stroke="midnightblue" d="M44.28,-57.43C56.98,-48.98 76.58,-36.82 95,-29 100.53,-26.65 106.44,-24.51 112.37,-22.58"/>
<polygon fill="midnightblue" stroke="midnightblue" points="113.79,-25.81 122.33,-19.53 111.75,-19.11 113.79,-25.81"/>
</g>
</g>
</svg>
