<?xml version="1.0" encoding="UTF-8" standalone="no"?>
<!DOCTYPE svg PUBLIC "-//W3C//DTD SVG 1.1//EN"
 "http://www.w3.org/Graphics/SVG/1.1/DTD/svg11.dtd">
<!-- Generated by graphviz version 2.47.1 (20210417.1919)
 -->
<!-- Title: AstNodeUnary Pages: 1 -->
<svg width="884pt" height="230pt"
 viewBox="0.00 0.00 884.00 229.50" xmlns="http://www.w3.org/2000/svg" xmlns:xlink="http://www.w3.org/1999/xlink">
<g id="graph0" class="graph" transform="scale(1 1) rotate(0) translate(4 225.5)">
<title>AstNodeUnary</title>
<polygon fill="white" stroke="transparent" points="-4,4 -4,-225.5 880,-225.5 880,4 -4,4"/>
<!-- Node1 -->
<g id="node1" class="node">
<title>Node1</title>
<g id="a_node1"><a xlink:title="ただ一つの子をもつノードのクラス。">
<polygon fill="#bfbfbf" stroke="black" points="431,-106.5 431,-125.5 512,-125.5 512,-106.5 431,-106.5"/>
<text text-anchor="middle" x="471.5" y="-113.5" font-family="Helvetica,sans-Serif" font-size="10.00">AstNodeUnary</text>
</a>
</g>
</g>
<!-- Node9 -->
<g id="node9" class="node">
<title>Node9</title>
<g id="a_node9"><a xlink:href="classast_1_1_ast_converter.html" target="_top" xlink:title="値の変換のクラス。AstConv&lt;S,T&gt;の単なるラッパー">
<polygon fill="white" stroke="black" points="584.5,-185.5 584.5,-204.5 658.5,-204.5 658.5,-185.5 584.5,-185.5"/>
<text text-anchor="middle" x="621.5" y="-192.5" font-family="Helvetica,sans-Serif" font-size="10.00">AstConverter</text>
</a>
</g>
</g>
<!-- Node1&#45;&gt;Node9 -->
<g id="edge11" class="edge">
<title>Node1&#45;&gt;Node9</title>
<path fill="none" stroke="midnightblue" d="M499.4,-130.36C529.34,-146.34 576.88,-171.72 602.58,-185.44"/>
<polygon fill="midnightblue" stroke="midnightblue" points="500.82,-127.15 490.35,-125.53 497.53,-133.33 500.82,-127.15"/>
</g>
<!-- Node11 -->
<g id="node11" class="node">
<title>Node11</title>
<g id="a_node11"><a xlink:href="classast_1_1_ast_data_reader_1_1_ast_var_reader.html" target="_top" xlink:title="ブール型の値をもつ参照読み出し">
<polygon fill="white" stroke="black" points="548,-125.5 548,-144.5 695,-144.5 695,-125.5 548,-125.5"/>
<text text-anchor="middle" x="621.5" y="-132.5" font-family="Helvetica,sans-Serif" font-size="10.00">AstDataReader.AstVarReader</text>
</a>
</g>
</g>
<!-- Node1&#45;&gt;Node11 -->
<g id="edge13" class="edge">
<title>Node1&#45;&gt;Node11</title>
<path fill="none" stroke="midnightblue" d="M522.31,-122.39C530.54,-123.45 539.22,-124.57 547.87,-125.68"/>
<polygon fill="midnightblue" stroke="midnightblue" points="522.53,-118.89 512.16,-121.09 521.63,-125.84 522.53,-118.89"/>
</g>
<!-- Node12 -->
<g id="node12" class="node">
<title>Node12</title>
<g id="a_node12"><a xlink:href="classast_1_1_ast_data_writer.html" target="_top" xlink:title="局所変数環境からの値を書き込むクラス">
<polygon fill="white" stroke="black" points="582.5,-87.5 582.5,-106.5 660.5,-106.5 660.5,-87.5 582.5,-87.5"/>
<text text-anchor="middle" x="621.5" y="-94.5" font-family="Helvetica,sans-Serif" font-size="10.00">AstDataWriter</text>
</a>
</g>
</g>
<!-- Node1&#45;&gt;Node12 -->
<g id="edge14" class="edge">
<title>Node1&#45;&gt;Node12</title>
<path fill="none" stroke="midnightblue" d="M522.15,-109.63C541.76,-107.11 563.94,-104.26 582.26,-101.91"/>
<polygon fill="midnightblue" stroke="midnightblue" points="521.63,-106.16 512.16,-110.91 522.53,-113.11 521.63,-106.16"/>
</g>
<!-- Node18 -->
<g id="node18" class="node">
<title>Node18</title>
<g id="a_node18"><a xlink:href="classast_1_1_ast_source_1_1_ast_in_file_open.html" target="_top" xlink:title="入力ストリームを表すノードのクラス">
<polygon fill="white" stroke="black" points="557.5,-49.5 557.5,-68.5 685.5,-68.5 685.5,-49.5 557.5,-49.5"/>
<text text-anchor="middle" x="621.5" y="-56.5" font-family="Helvetica,sans-Serif" font-size="10.00">AstSource.AstInFileOpen</text>
</a>
</g>
</g>
<!-- Node1&#45;&gt;Node18 -->
<g id="edge20" class="edge">
<title>Node1&#45;&gt;Node18</title>
<path fill="none" stroke="midnightblue" d="M497.92,-101.52C512.29,-93.77 530.77,-84.51 548,-78 557.49,-74.41 567.93,-71.25 577.86,-68.58"/>
<polygon fill="midnightblue" stroke="midnightblue" points="496.21,-98.47 489.13,-106.35 499.58,-104.6 496.21,-98.47"/>
</g>
<!-- Node2 -->
<g id="node2" class="node">
<title>Node2</title>
<g id="a_node2"><a xlink:href="classast_1_1_ast_node.html" target="_top" xlink:title="タグなしの順アクセスの子供をもてる抽象構文木のノードのクラス。">
<polygon fill="white" stroke="black" points="321.5,-125.5 321.5,-144.5 376.5,-144.5 376.5,-125.5 321.5,-125.5"/>
<text text-anchor="middle" x="349" y="-132.5" font-family="Helvetica,sans-Serif" font-size="10.00">AstNode</text>
</a>
</g>
</g>
<!-- Node2&#45;&gt;Node1 -->
<g id="edge1" class="edge">
<title>Node2&#45;&gt;Node1</title>
<path fill="none" stroke="midnightblue" d="M386.87,-129.19C400.7,-127.01 416.46,-124.52 430.55,-122.3"/>
<polygon fill="midnightblue" stroke="midnightblue" points="386.08,-125.77 376.74,-130.78 387.17,-132.68 386.08,-125.77"/>
</g>
<!-- Node3 -->
<g id="node3" class="node">
<title>Node3</title>
<g id="a_node3"><a xlink:href="classast_1_1_ast_node_base.html" target="_top" xlink:title=" ">
<polygon fill="white" stroke="black" points="150.5,-201.5 150.5,-220.5 227.5,-220.5 227.5,-201.5 150.5,-201.5"/>
<text text-anchor="middle" x="189" y="-208.5" font-family="Helvetica,sans-Serif" font-size="10.00">AstNodeBase</text>
</a>
</g>
</g>
<!-- Node3&#45;&gt;Node2 -->
<g id="edge2" class="edge">
<title>Node3&#45;&gt;Node2</title>
<path fill="none" stroke="midnightblue" d="M237.56,-202.2C247.52,-199.55 257.79,-196.2 267,-192 294.54,-179.45 322.5,-157.22 337.28,-144.54"/>
<polygon fill="midnightblue" stroke="midnightblue" points="236.63,-198.82 227.76,-204.62 238.3,-205.62 236.63,-198.82"/>
</g>
<!-- Node4 -->
<g id="node4" class="node">
<title>Node4</title>
<g id="a_node4"><a xlink:href="interfaceast_1_1_node.html" target="_top" xlink:title=" ">
<polygon fill="white" stroke="black" points="169,-87.5 169,-106.5 209,-106.5 209,-87.5 169,-87.5"/>
<text text-anchor="middle" x="189" y="-94.5" font-family="Helvetica,sans-Serif" font-size="10.00">Node</text>
</a>
</g>
</g>
<!-- Node4&#45;&gt;Node2 -->
<g id="edge3" class="edge">
<title>Node4&#45;&gt;Node2</title>
<path fill="none" stroke="midnightblue" d="M219.06,-103.99C248.25,-111.01 292.87,-121.74 321.22,-128.56"/>
<polygon fill="midnightblue" stroke="midnightblue" points="219.6,-100.52 209.06,-101.58 217.96,-107.33 219.6,-100.52"/>
</g>
<!-- Node8 -->
<g id="node8" class="node">
<title>Node8</title>
<g id="a_node8"><a xlink:href="interfaceast_1_1_node_1_1_node_unary.html" target="_top" xlink:title="子供を一つだけもつノードのインタフェース">
<polygon fill="white" stroke="black" points="303,-87.5 303,-106.5 395,-106.5 395,-87.5 303,-87.5"/>
<text text-anchor="middle" x="349" y="-94.5" font-family="Helvetica,sans-Serif" font-size="10.00">Node.NodeUnary</text>
</a>
</g>
</g>
<!-- Node4&#45;&gt;Node8 -->
<g id="edge10" class="edge">
<title>Node4&#45;&gt;Node8</title>
<path fill="none" stroke="midnightblue" d="M219.06,-97C242.49,-97 275.84,-97 302.76,-97"/>
<polygon fill="midnightblue" stroke="midnightblue" points="219.06,-93.5 209.06,-97 219.06,-100.5 219.06,-93.5"/>
</g>
<!-- Node5 -->
<g id="node5" class="node">
<title>Node5</title>
<g id="a_node5"><a xlink:href="interfaceformat_1_1_x_formattable.html" target="_top" xlink:title="入れ子フォーマット出力可能なオブジェクトのインタフェース。">
<polygon fill="white" stroke="black" points="0,-125.5 0,-144.5 75,-144.5 75,-125.5 0,-125.5"/>
<text text-anchor="middle" x="37.5" y="-132.5" font-family="Helvetica,sans-Serif" font-size="10.00">XFormattable</text>
</a>
</g>
</g>
<!-- Node5&#45;&gt;Node4 -->
<g id="edge4" class="edge">
<title>Node5&#45;&gt;Node4</title>
<path fill="none" stroke="midnightblue" d="M84.38,-122.87C93.21,-120.57 102.39,-118.19 111,-116 130.75,-110.98 153.4,-105.41 168.99,-101.61"/>
<polygon fill="midnightblue" stroke="midnightblue" points="83.4,-119.51 74.61,-125.43 85.17,-126.28 83.4,-119.51"/>
</g>
<!-- Node6 -->
<g id="node6" class="node">
<title>Node6</title>
<g id="a_node6"><a xlink:href="interfaceformat_1_1_x_formattable_1_1_navigatable.html" target="_top" xlink:title="木構造の分岐ノードとして清書可能なオブジェクトのクラス">
<polygon fill="white" stroke="black" points="124,-163.5 124,-182.5 254,-182.5 254,-163.5 124,-163.5"/>
<text text-anchor="middle" x="189" y="-170.5" font-family="Helvetica,sans-Serif" font-size="10.00">XFormattable.Navigatable</text>
</a>
</g>
</g>
<!-- Node5&#45;&gt;Node6 -->
<g id="edge6" class="edge">
<title>Node5&#45;&gt;Node6</title>
<path fill="none" stroke="midnightblue" d="M84.38,-147.13C93.21,-149.43 102.39,-151.81 111,-154 123.28,-157.12 136.67,-160.46 148.8,-163.44"/>
<polygon fill="midnightblue" stroke="midnightblue" points="85.17,-143.72 74.61,-144.57 83.4,-150.49 85.17,-143.72"/>
</g>
<!-- Node7 -->
<g id="node7" class="node">
<title>Node7</title>
<g id="a_node7"><a xlink:href="interfaceformat_1_1_x_formattable_1_1_typed_formattable.html" target="_top" xlink:title="ノードの型情報をもつ書式出力可能なオブジェクトのインタフェース．">
<polygon fill="white" stroke="black" points="111,-125.5 111,-144.5 267,-144.5 267,-125.5 111,-125.5"/>
<text text-anchor="middle" x="189" y="-132.5" font-family="Helvetica,sans-Serif" font-size="10.00">XFormattable.TypedFormattable</text>
</a>
</g>
</g>
<!-- Node5&#45;&gt;Node7 -->
<g id="edge8" class="edge">
<title>Node5&#45;&gt;Node7</title>
<path fill="none" stroke="midnightblue" d="M85.13,-135C93.32,-135 102.03,-135 110.8,-135"/>
<polygon fill="midnightblue" stroke="midnightblue" points="85.07,-131.5 75.07,-135 85.07,-138.5 85.07,-131.5"/>
</g>
<!-- Node6&#45;&gt;Node2 -->
<g id="edge5" class="edge">
<title>Node6&#45;&gt;Node2</title>
<path fill="none" stroke="midnightblue" d="M239.88,-161C266.76,-154.54 298.86,-146.82 321.06,-141.48"/>
<polygon fill="midnightblue" stroke="midnightblue" points="238.77,-157.67 229.87,-163.41 240.41,-164.48 238.77,-157.67"/>
</g>
<!-- Node7&#45;&gt;Node2 -->
<g id="edge7" class="edge">
<title>Node7&#45;&gt;Node2</title>
<path fill="none" stroke="midnightblue" d="M277.16,-135C293.17,-135 308.73,-135 321.18,-135"/>
<polygon fill="midnightblue" stroke="midnightblue" points="277.15,-131.5 267.15,-135 277.15,-138.5 277.15,-131.5"/>
</g>
<!-- Node8&#45;&gt;Node1 -->
<g id="edge9" class="edge">
<title>Node8&#45;&gt;Node1</title>
<path fill="none" stroke="midnightblue" d="M405.28,-105.72C413.95,-107.08 422.75,-108.47 430.97,-109.77"/>
<polygon fill="midnightblue" stroke="midnightblue" points="405.64,-102.23 395.21,-104.13 404.55,-109.14 405.64,-102.23"/>
</g>
<!-- Node10 -->
<g id="node10" class="node">
<title>Node10</title>
<g id="a_node10"><a xlink:href="classast_1_1_ast_converter_1_1_ast_conv.html" target="_top" xlink:title="S型の値をT型の値に変換するアダプタ">
<polygon fill="white" stroke="black" points="746,-191 746,-221 861,-221 861,-191 746,-191"/>
<text text-anchor="start" x="754" y="-209" font-family="Helvetica,sans-Serif" font-size="10.00">AstConverter.AstConv</text>
<text text-anchor="middle" x="803.5" y="-198" font-family="Helvetica,sans-Serif" font-size="10.00">&lt; S, T &gt;</text>
</a>
</g>
</g>
<!-- Node9&#45;&gt;Node10 -->
<g id="edge12" class="edge">
<title>Node9&#45;&gt;Node10</title>
<path fill="none" stroke="midnightblue" d="M668.98,-197.84C692.47,-199.28 721.16,-201.03 745.92,-202.54"/>
<polygon fill="midnightblue" stroke="midnightblue" points="669.12,-194.34 658.93,-197.23 668.69,-201.33 669.12,-194.34"/>
</g>
<!-- Node13 -->
<g id="node13" class="node">
<title>Node13</title>
<g id="a_node13"><a xlink:href="classast_1_1_ast_data_writer_1_1_writer_boolean.html" target="_top" xlink:title="ブール型の値をもつ局所変数">
<polygon fill="white" stroke="black" points="733,-152.5 733,-171.5 874,-171.5 874,-152.5 733,-152.5"/>
<text text-anchor="middle" x="803.5" y="-159.5" font-family="Helvetica,sans-Serif" font-size="10.00">AstDataWriter.WriterBoolean</text>
</a>
</g>
</g>
<!-- Node12&#45;&gt;Node13 -->
<g id="edge15" class="edge">
<title>Node12&#45;&gt;Node13</title>
<path fill="none" stroke="midnightblue" d="M670.48,-106.76C678.86,-109.25 687.34,-112.3 695,-116 713.01,-124.7 713.01,-134.27 731,-143 738.86,-146.81 747.59,-149.94 756.17,-152.48"/>
<polygon fill="midnightblue" stroke="midnightblue" points="671.31,-103.36 660.74,-104.09 669.46,-110.11 671.31,-103.36"/>
</g>
<!-- Node14 -->
<g id="node14" class="node">
<title>Node14</title>
<g id="a_node14"><a xlink:href="classast_1_1_ast_data_writer_1_1_writer_double.html" target="_top" xlink:title="Double型の値をもつ局所変数">
<polygon fill="white" stroke="black" points="735,-114.5 735,-133.5 872,-133.5 872,-114.5 735,-114.5"/>
<text text-anchor="middle" x="803.5" y="-121.5" font-family="Helvetica,sans-Serif" font-size="10.00">AstDataWriter.WriterDouble</text>
</a>
</g>
</g>
<!-- Node12&#45;&gt;Node14 -->
<g id="edge16" class="edge">
<title>Node12&#45;&gt;Node14</title>
<path fill="none" stroke="midnightblue" d="M670.62,-104.22C691.58,-107.36 716.43,-111.09 738.88,-114.46"/>
<polygon fill="midnightblue" stroke="midnightblue" points="671.08,-100.75 660.67,-102.73 670.04,-107.67 671.08,-100.75"/>
</g>
<!-- Node15 -->
<g id="node15" class="node">
<title>Node15</title>
<g id="a_node15"><a xlink:href="classast_1_1_ast_data_writer_1_1_writer_integer.html" target="_top" xlink:title="Integer型の値をもつ局所変数">
<polygon fill="white" stroke="black" points="735.5,-76.5 735.5,-95.5 871.5,-95.5 871.5,-76.5 735.5,-76.5"/>
<text text-anchor="middle" x="803.5" y="-83.5" font-family="Helvetica,sans-Serif" font-size="10.00">AstDataWriter.WriterInteger</text>
</a>
</g>
</g>
<!-- Node12&#45;&gt;Node15 -->
<g id="edge17" class="edge">
<title>Node12&#45;&gt;Node15</title>
<path fill="none" stroke="midnightblue" d="M670.7,-94.05C690.53,-92.84 713.84,-91.42 735.3,-90.11"/>
<polygon fill="midnightblue" stroke="midnightblue" points="670.44,-90.56 660.67,-94.67 670.87,-97.55 670.44,-90.56"/>
</g>
<!-- Node16 -->
<g id="node16" class="node">
<title>Node16</title>
<g id="a_node16"><a xlink:href="classast_1_1_ast_data_writer_1_1_writer_o_stream.html" target="_top" xlink:title="String型の値をもつ局所変数">
<polygon fill="white" stroke="black" points="731,-38.5 731,-57.5 876,-57.5 876,-38.5 731,-38.5"/>
<text text-anchor="middle" x="803.5" y="-45.5" font-family="Helvetica,sans-Serif" font-size="10.00">AstDataWriter.WriterOStream</text>
</a>
</g>
</g>
<!-- Node12&#45;&gt;Node16 -->
<g id="edge18" class="edge">
<title>Node12&#45;&gt;Node16</title>
<path fill="none" stroke="midnightblue" d="M669.89,-84.88C678.27,-82.65 686.9,-80.3 695,-78 711.1,-73.43 714.91,-71.59 731,-67 742.24,-63.79 754.52,-60.46 765.69,-57.5"/>
<polygon fill="midnightblue" stroke="midnightblue" points="668.99,-81.49 660.21,-87.43 670.77,-88.26 668.99,-81.49"/>
</g>
<!-- Node17 -->
<g id="node17" class="node">
<title>Node17</title>
<g id="a_node17"><a xlink:href="classast_1_1_ast_data_writer_1_1_writer_string.html" target="_top" xlink:title="String型の値をもつ局所変数">
<polygon fill="white" stroke="black" points="738,-0.5 738,-19.5 869,-19.5 869,-0.5 738,-0.5"/>
<text text-anchor="middle" x="803.5" y="-7.5" font-family="Helvetica,sans-Serif" font-size="10.00">AstDataWriter.WriterString</text>
</a>
</g>
</g>
<!-- Node12&#45;&gt;Node17 -->
<g id="edge19" class="edge">
<title>Node12&#45;&gt;Node17</title>
<path fill="none" stroke="midnightblue" d="M670.42,-89.39C679.06,-86.68 687.65,-82.99 695,-78 717.35,-62.81 708.67,-44.22 731,-29 736.73,-25.09 743.22,-21.99 749.91,-19.52"/>
<polygon fill="midnightblue" stroke="midnightblue" points="669.41,-86.04 660.7,-92.06 671.27,-92.79 669.41,-86.04"/>
</g>
</g>
</svg>
