<?xml version="1.0" encoding="UTF-8" standalone="no"?>
<!DOCTYPE svg PUBLIC "-//W3C//DTD SVG 1.1//EN"
 "http://www.w3.org/Graphics/SVG/1.1/DTD/svg11.dtd">
<!-- Generated by graphviz version 2.47.0 (20210316.0004)
 -->
<!-- Title: AstLiteral.StringLiteral Pages: 1 -->
<svg width="584pt" height="252pt"
 viewBox="0.00 0.00 584.00 252.00" xmlns="http://www.w3.org/2000/svg" xmlns:xlink="http://www.w3.org/1999/xlink">
<g id="graph0" class="graph" transform="scale(1 1) rotate(0) translate(4 248)">
<title>AstLiteral.StringLiteral</title>
<polygon fill="white" stroke="transparent" points="-4,4 -4,-248 580,-248 580,4 -4,4"/>
<!-- Node1 -->
<g id="node1" class="node">
<title>Node1</title>
<g id="a_node1"><a xlink:title=" ">
<polygon fill="#bfbfbf" stroke="black" points="396,-0.5 396,-19.5 509,-19.5 509,-0.5 396,-0.5"/>
<text text-anchor="middle" x="452.5" y="-7.5" font-family="Helvetica,sans-Serif" font-size="10.00">AstLiteral.StringLiteral</text>
</a>
</g>
</g>
<!-- Node2 -->
<g id="node2" class="node">
<title>Node2</title>
<g id="a_node2"><a xlink:href="classast_1_1_ast_literal_1_1_string_expr.html" target="_top" xlink:title="String値アトム">
<polygon fill="white" stroke="black" points="399,-56.5 399,-75.5 506,-75.5 506,-56.5 399,-56.5"/>
<text text-anchor="middle" x="452.5" y="-63.5" font-family="Helvetica,sans-Serif" font-size="10.00">AstLiteral.StringExpr</text>
</a>
</g>
</g>
<!-- Node2&#45;&gt;Node1 -->
<g id="edge1" class="edge">
<title>Node2&#45;&gt;Node1</title>
<path fill="none" stroke="midnightblue" d="M452.5,-45.8C452.5,-36.91 452.5,-26.78 452.5,-19.75"/>
<polygon fill="midnightblue" stroke="midnightblue" points="449,-46.08 452.5,-56.08 456,-46.08 449,-46.08"/>
</g>
<!-- Node3 -->
<g id="node3" class="node">
<title>Node3</title>
<g id="a_node3"><a xlink:href="classast_1_1_ast_literal.html" target="_top" xlink:title="値を返すことができる終端オブジェクトのクラス">
<polygon fill="white" stroke="black" points="333.5,-112.5 333.5,-131.5 391.5,-131.5 391.5,-112.5 333.5,-112.5"/>
<text text-anchor="middle" x="362.5" y="-119.5" font-family="Helvetica,sans-Serif" font-size="10.00">AstLiteral</text>
</a>
</g>
</g>
<!-- Node3&#45;&gt;Node2 -->
<g id="edge2" class="edge">
<title>Node3&#45;&gt;Node2</title>
<path fill="none" stroke="midnightblue" d="M385.54,-107.18C402.1,-97.24 423.92,-84.15 438.08,-75.65"/>
<polygon fill="midnightblue" stroke="midnightblue" points="383.73,-104.18 376.96,-112.32 387.34,-110.18 383.73,-104.18"/>
</g>
<!-- Node4 -->
<g id="node4" class="node">
<title>Node4</title>
<g id="a_node4"><a xlink:href="classast_1_1_ast_node.html" target="_top" xlink:title="タグなしの順アクセスの子供をもてる抽象構文木のノードのクラス。">
<polygon fill="white" stroke="black" points="181,-168.5 181,-187.5 236,-187.5 236,-168.5 181,-168.5"/>
<text text-anchor="middle" x="208.5" y="-175.5" font-family="Helvetica,sans-Serif" font-size="10.00">AstNode</text>
</a>
</g>
</g>
<!-- Node4&#45;&gt;Node3 -->
<g id="edge3" class="edge">
<title>Node4&#45;&gt;Node3</title>
<path fill="none" stroke="midnightblue" d="M242.61,-165.04C271.59,-154.88 312.46,-140.55 338.21,-131.52"/>
<polygon fill="midnightblue" stroke="midnightblue" points="241.18,-161.83 232.9,-168.44 243.5,-168.44 241.18,-161.83"/>
</g>
<!-- Node5 -->
<g id="node5" class="node">
<title>Node5</title>
<g id="a_node5"><a xlink:href="classast_1_1_ast_node_base.html" target="_top" xlink:title=" ">
<polygon fill="white" stroke="black" points="0,-224.5 0,-243.5 77,-243.5 77,-224.5 0,-224.5"/>
<text text-anchor="middle" x="38.5" y="-231.5" font-family="Helvetica,sans-Serif" font-size="10.00">AstNodeBase</text>
</a>
</g>
</g>
<!-- Node5&#45;&gt;Node4 -->
<g id="edge4" class="edge">
<title>Node5&#45;&gt;Node4</title>
<path fill="none" stroke="midnightblue" d="M75.32,-221.3C107.35,-211.13 153.02,-196.62 181.69,-187.52"/>
<polygon fill="midnightblue" stroke="midnightblue" points="73.91,-218.08 65.44,-224.44 76.03,-224.75 73.91,-218.08"/>
</g>
<!-- Node6 -->
<g id="node6" class="node">
<title>Node6</title>
<g id="a_node6"><a xlink:href="interfaceformat_1_1_x_formattable_1_1_navigatable.html" target="_top" xlink:title="木構造の分岐ノードとして清書可能なオブジェクトのクラス">
<polygon fill="white" stroke="red" points="95.5,-224.5 95.5,-243.5 225.5,-243.5 225.5,-224.5 95.5,-224.5"/>
<text text-anchor="middle" x="160.5" y="-231.5" font-family="Helvetica,sans-Serif" font-size="10.00">XFormattable.Navigatable</text>
</a>
</g>
</g>
<!-- Node6&#45;&gt;Node4 -->
<g id="edge5" class="edge">
<title>Node6&#45;&gt;Node4</title>
<path fill="none" stroke="midnightblue" d="M175.23,-216.43C183.64,-206.97 193.85,-195.48 200.72,-187.75"/>
<polygon fill="midnightblue" stroke="midnightblue" points="172.45,-214.28 168.43,-224.08 177.69,-218.93 172.45,-214.28"/>
</g>
<!-- Node8 -->
<g id="node7" class="node">
<title>Node8</title>
<g id="a_node7"><a xlink:href="interfaceformat_1_1_x_formattable_1_1_typed_formattable.html" target="_top" xlink:title="ノードの型情報をもつ書式出力可能なオブジェクトのインタフェース．">
<polygon fill="white" stroke="red" points="243.5,-224.5 243.5,-243.5 399.5,-243.5 399.5,-224.5 243.5,-224.5"/>
<text text-anchor="middle" x="321.5" y="-231.5" font-family="Helvetica,sans-Serif" font-size="10.00">XFormattable.TypedFormattable</text>
</a>
</g>
</g>
<!-- Node8&#45;&gt;Node4 -->
<g id="edge6" class="edge">
<title>Node8&#45;&gt;Node4</title>
<path fill="none" stroke="midnightblue" d="M294.5,-220.1C273.39,-210.01 244.64,-196.27 226.32,-187.52"/>
<polygon fill="midnightblue" stroke="midnightblue" points="293.06,-223.29 303.59,-224.44 296.08,-216.97 293.06,-223.29"/>
</g>
<!-- Node9 -->
<g id="node8" class="node">
<title>Node9</title>
<g id="a_node8"><a xlink:href="interfacecmd_1_1_generatable_1_1_evaluatable.html" target="_top" xlink:title="評価して値を返すノードのインタフェース．必ずしもコードを生成しなくても良い．">
<polygon fill="white" stroke="black" points="301,-168.5 301,-187.5 424,-187.5 424,-168.5 301,-168.5"/>
<text text-anchor="middle" x="362.5" y="-175.5" font-family="Helvetica,sans-Serif" font-size="10.00">Generatable.Evaluatable</text>
</a>
</g>
</g>
<!-- Node9&#45;&gt;Node3 -->
<g id="edge7" class="edge">
<title>Node9&#45;&gt;Node3</title>
<path fill="none" stroke="midnightblue" d="M362.5,-157.8C362.5,-148.91 362.5,-138.78 362.5,-131.75"/>
<polygon fill="midnightblue" stroke="midnightblue" points="359,-158.08 362.5,-168.08 366,-158.08 359,-158.08"/>
</g>
<!-- Node10 -->
<g id="node9" class="node">
<title>Node10</title>
<g id="a_node9"><a xlink:href="interfacecmd_1_1_generatable.html" target="_top" xlink:title="変換してコードを生成できるノードのインタフェース.">
<polygon fill="white" stroke="black" points="418,-224.5 418,-243.5 487,-243.5 487,-224.5 418,-224.5"/>
<text text-anchor="middle" x="452.5" y="-231.5" font-family="Helvetica,sans-Serif" font-size="10.00">Generatable</text>
</a>
</g>
</g>
<!-- Node10&#45;&gt;Node2 -->
<g id="edge10" class="edge">
<title>Node10&#45;&gt;Node2</title>
<path fill="none" stroke="midnightblue" d="M452.5,-213.93C452.5,-177.92 452.5,-101.23 452.5,-75.57"/>
<polygon fill="midnightblue" stroke="midnightblue" points="449,-214.08 452.5,-224.08 456,-214.08 449,-214.08"/>
</g>
<!-- Node10&#45;&gt;Node9 -->
<g id="edge8" class="edge">
<title>Node10&#45;&gt;Node9</title>
<path fill="none" stroke="midnightblue" d="M429.46,-219.18C412.9,-209.24 391.08,-196.15 376.92,-187.65"/>
<polygon fill="midnightblue" stroke="midnightblue" points="427.66,-222.18 438.04,-224.32 431.27,-216.18 427.66,-222.18"/>
</g>
<!-- Node11 -->
<g id="node10" class="node">
<title>Node11</title>
<g id="a_node10"><a xlink:href="class_typed_formattable.html" target="_top" xlink:title=" ">
<polygon fill="white" stroke="black" points="481,-112.5 481,-131.5 576,-131.5 576,-112.5 481,-112.5"/>
<text text-anchor="middle" x="528.5" y="-119.5" font-family="Helvetica,sans-Serif" font-size="10.00">TypedFormattable</text>
</a>
</g>
</g>
<!-- Node11&#45;&gt;Node2 -->
<g id="edge9" class="edge">
<title>Node11&#45;&gt;Node2</title>
<path fill="none" stroke="midnightblue" d="M507.92,-106.38C494.19,-96.62 476.57,-84.11 464.93,-75.83"/>
<polygon fill="midnightblue" stroke="midnightblue" points="506.11,-109.38 516.29,-112.32 510.16,-103.68 506.11,-109.38"/>
</g>
</g>
</svg>
