<?xml version="1.0" encoding="UTF-8" standalone="no"?>
<!DOCTYPE svg PUBLIC "-//W3C//DTD SVG 1.1//EN"
 "http://www.w3.org/Graphics/SVG/1.1/DTD/svg11.dtd">
<!-- Generated by graphviz version 2.47.0 (20210316.0004)
 -->
<!-- Title: AstNodeTagged Pages: 1 -->
<svg width="466pt" height="364pt"
 viewBox="0.00 0.00 465.50 364.00" xmlns="http://www.w3.org/2000/svg" xmlns:xlink="http://www.w3.org/1999/xlink">
<g id="graph0" class="graph" transform="scale(1 1) rotate(0) translate(4 360)">
<title>AstNodeTagged</title>
<polygon fill="white" stroke="transparent" points="-4,4 -4,-360 461.5,-360 461.5,4 -4,4"/>
<!-- Node1 -->
<g id="node1" class="node">
<title>Node1</title>
<g id="a_node1"><a xlink:title="子それぞれにタグと型アイテムをもつ順序ノードAstNodeのサブクラス．利用者は自前で，追加する子のField名と型を設定する．読み出しは子の添字のみで行う．">
<polygon fill="#bfbfbf" stroke="black" points="123.5,-168.5 123.5,-187.5 209.5,-187.5 209.5,-168.5 123.5,-168.5"/>
<text text-anchor="middle" x="166.5" y="-175.5" font-family="Helvetica,sans-Serif" font-size="10.00">AstNodeTagged</text>
</a>
</g>
</g>
<!-- Node9 -->
<g id="node9" class="node">
<title>Node9</title>
<g id="a_node9"><a xlink:href="classast_1_1_block_base.html" target="_top" xlink:title="抽象構文木のステップ式のクラス.">
<polygon fill="white" stroke="black" points="96.5,-112.5 96.5,-131.5 160.5,-131.5 160.5,-112.5 96.5,-112.5"/>
<text text-anchor="middle" x="128.5" y="-119.5" font-family="Helvetica,sans-Serif" font-size="10.00">BlockBase</text>
</a>
</g>
</g>
<!-- Node1&#45;&gt;Node9 -->
<g id="edge11" class="edge">
<title>Node1&#45;&gt;Node9</title>
<path fill="none" stroke="midnightblue" d="M154.44,-159.86C147.86,-150.5 139.99,-139.33 134.66,-131.75"/>
<polygon fill="midnightblue" stroke="midnightblue" points="151.61,-161.92 160.23,-168.08 157.33,-157.89 151.61,-161.92"/>
</g>
<!-- Node13 -->
<g id="node13" class="node">
<title>Node13</title>
<g id="a_node13"><a xlink:href="classast_1_1_program.html" target="_top" xlink:title="ルールの集合からなるコンパイル済みのプログラム.">
<polygon fill="white" stroke="black" points="179,-112.5 179,-131.5 232,-131.5 232,-112.5 179,-112.5"/>
<text text-anchor="middle" x="205.5" y="-119.5" font-family="Helvetica,sans-Serif" font-size="10.00">Program</text>
</a>
</g>
</g>
<!-- Node1&#45;&gt;Node13 -->
<g id="edge15" class="edge">
<title>Node1&#45;&gt;Node13</title>
<path fill="none" stroke="midnightblue" d="M178.88,-159.86C185.64,-150.5 193.71,-139.33 199.18,-131.75"/>
<polygon fill="midnightblue" stroke="midnightblue" points="175.96,-157.93 172.94,-168.08 181.63,-162.03 175.96,-157.93"/>
</g>
<!-- Node2 -->
<g id="node2" class="node">
<title>Node2</title>
<g id="a_node2"><a xlink:href="classast_1_1_ast_node.html" target="_top" xlink:title="タグなしの順アクセスの子供をもてる抽象構文木のノードのクラス。">
<polygon fill="white" stroke="black" points="139,-224.5 139,-243.5 194,-243.5 194,-224.5 139,-224.5"/>
<text text-anchor="middle" x="166.5" y="-231.5" font-family="Helvetica,sans-Serif" font-size="10.00">AstNode</text>
</a>
</g>
</g>
<!-- Node2&#45;&gt;Node1 -->
<g id="edge1" class="edge">
<title>Node2&#45;&gt;Node1</title>
<path fill="none" stroke="midnightblue" d="M160.03,-214.1C159.4,-205.14 159.84,-194.86 161.37,-187.75"/>
<polygon fill="midnightblue" stroke="midnightblue" points="156.57,-214.62 161.33,-224.08 163.51,-213.71 156.57,-214.62"/>
</g>
<!-- Node2&#45;&gt;Node1 -->
<g id="edge10" class="edge">
<title>Node2&#45;&gt;Node1</title>
<path fill="none" stroke="midnightblue" d="M172.97,-214.1C173.6,-205.14 173.16,-194.86 171.63,-187.75"/>
<polygon fill="midnightblue" stroke="midnightblue" points="169.49,-213.71 171.67,-224.08 176.43,-214.62 169.49,-213.71"/>
</g>
<!-- Node3 -->
<g id="node3" class="node">
<title>Node3</title>
<g id="a_node3"><a xlink:href="classast_1_1_ast_node_base.html" target="_top" xlink:title=" ">
<polygon fill="white" stroke="black" points="0,-280.5 0,-299.5 77,-299.5 77,-280.5 0,-280.5"/>
<text text-anchor="middle" x="38.5" y="-287.5" font-family="Helvetica,sans-Serif" font-size="10.00">AstNodeBase</text>
</a>
</g>
</g>
<!-- Node3&#45;&gt;Node2 -->
<g id="edge2" class="edge">
<title>Node3&#45;&gt;Node2</title>
<path fill="none" stroke="midnightblue" d="M68.12,-276.5C92.12,-266.38 125.28,-252.39 146.31,-243.52"/>
<polygon fill="midnightblue" stroke="midnightblue" points="66.64,-273.33 58.78,-280.44 69.36,-279.78 66.64,-273.33"/>
</g>
<!-- Node4 -->
<g id="node4" class="node">
<title>Node4</title>
<g id="a_node4"><a xlink:href="interfaceast_1_1_node.html" target="_top" xlink:title=" ">
<polygon fill="white" stroke="black" points="95.5,-280.5 95.5,-299.5 135.5,-299.5 135.5,-280.5 95.5,-280.5"/>
<text text-anchor="middle" x="115.5" y="-287.5" font-family="Helvetica,sans-Serif" font-size="10.00">Node</text>
</a>
</g>
</g>
<!-- Node4&#45;&gt;Node2 -->
<g id="edge3" class="edge">
<title>Node4&#45;&gt;Node2</title>
<path fill="none" stroke="midnightblue" d="M130.88,-272.72C139.87,-263.2 150.86,-251.56 158.24,-243.75"/>
<polygon fill="midnightblue" stroke="midnightblue" points="128.24,-270.41 123.92,-280.08 133.33,-275.22 128.24,-270.41"/>
</g>
<!-- Node5 -->
<g id="node5" class="node">
<title>Node5</title>
<g id="a_node5"><a xlink:href="interfaceformat_1_1_x_formattable.html" target="_top" xlink:title="入れ子フォーマット出力可能なオブジェクトのインタフェース。">
<polygon fill="white" stroke="black" points="181,-336.5 181,-355.5 256,-355.5 256,-336.5 181,-336.5"/>
<text text-anchor="middle" x="218.5" y="-343.5" font-family="Helvetica,sans-Serif" font-size="10.00">XFormattable</text>
</a>
</g>
</g>
<!-- Node5&#45;&gt;Node4 -->
<g id="edge4" class="edge">
<title>Node5&#45;&gt;Node4</title>
<path fill="none" stroke="midnightblue" d="M192.92,-331.59C173.88,-321.61 148.44,-308.27 132.01,-299.65"/>
<polygon fill="midnightblue" stroke="midnightblue" points="191.47,-334.78 201.95,-336.32 194.72,-328.58 191.47,-334.78"/>
</g>
<!-- Node6 -->
<g id="node6" class="node">
<title>Node6</title>
<g id="a_node6"><a xlink:href="interfaceformat_1_1_x_formattable_1_1_navigatable.html" target="_top" xlink:title="木構造の分岐ノードとして清書可能なオブジェクトのクラス">
<polygon fill="white" stroke="black" points="153.5,-280.5 153.5,-299.5 283.5,-299.5 283.5,-280.5 153.5,-280.5"/>
<text text-anchor="middle" x="218.5" y="-287.5" font-family="Helvetica,sans-Serif" font-size="10.00">XFormattable.Navigatable</text>
</a>
</g>
</g>
<!-- Node5&#45;&gt;Node6 -->
<g id="edge6" class="edge">
<title>Node5&#45;&gt;Node6</title>
<path fill="none" stroke="midnightblue" d="M218.5,-325.8C218.5,-316.91 218.5,-306.78 218.5,-299.75"/>
<polygon fill="midnightblue" stroke="midnightblue" points="215,-326.08 218.5,-336.08 222,-326.08 215,-326.08"/>
</g>
<!-- Node7 -->
<g id="node7" class="node">
<title>Node7</title>
<g id="a_node7"><a xlink:href="interfaceformat_1_1_x_formattable_1_1_typed_formattable.html" target="_top" xlink:title="ノードの型情報をもつ書式出力可能なオブジェクトのインタフェース．">
<polygon fill="white" stroke="black" points="301.5,-280.5 301.5,-299.5 457.5,-299.5 457.5,-280.5 301.5,-280.5"/>
<text text-anchor="middle" x="379.5" y="-287.5" font-family="Helvetica,sans-Serif" font-size="10.00">XFormattable.TypedFormattable</text>
</a>
</g>
</g>
<!-- Node5&#45;&gt;Node7 -->
<g id="edge8" class="edge">
<title>Node5&#45;&gt;Node7</title>
<path fill="none" stroke="midnightblue" d="M253.76,-333.17C284.08,-323 327.07,-308.59 354.11,-299.52"/>
<polygon fill="midnightblue" stroke="midnightblue" points="252.38,-329.95 244.01,-336.44 254.6,-336.58 252.38,-329.95"/>
</g>
<!-- Node6&#45;&gt;Node2 -->
<g id="edge5" class="edge">
<title>Node6&#45;&gt;Node2</title>
<path fill="none" stroke="midnightblue" d="M202.82,-272.72C193.66,-263.2 182.45,-251.56 174.93,-243.75"/>
<polygon fill="midnightblue" stroke="midnightblue" points="200.46,-275.31 209.91,-280.08 205.5,-270.45 200.46,-275.31"/>
</g>
<!-- Node7&#45;&gt;Node2 -->
<g id="edge7" class="edge">
<title>Node7&#45;&gt;Node2</title>
<path fill="none" stroke="midnightblue" d="M335.97,-277.97C293.56,-267.21 230.36,-251.19 194.32,-242.05"/>
<polygon fill="midnightblue" stroke="midnightblue" points="335.2,-281.38 345.75,-280.44 336.92,-274.59 335.2,-281.38"/>
</g>
<!-- Node8 -->
<g id="node8" class="node">
<title>Node8</title>
<g id="a_node8"><a xlink:title=" ">
<polygon fill="white" stroke="#bfbfbf" points="212,-224.5 212,-243.5 301,-243.5 301,-224.5 212,-224.5"/>
<text text-anchor="middle" x="256.5" y="-231.5" font-family="Helvetica,sans-Serif" font-size="10.00">FieldNavigatable</text>
</a>
</g>
</g>
<!-- Node8&#45;&gt;Node1 -->
<g id="edge9" class="edge">
<title>Node8&#45;&gt;Node1</title>
<path fill="none" stroke="midnightblue" d="M233.46,-219.18C216.9,-209.24 195.08,-196.15 180.92,-187.65"/>
<polygon fill="midnightblue" stroke="midnightblue" points="231.66,-222.18 242.04,-224.32 235.27,-216.18 231.66,-222.18"/>
</g>
<!-- Node10 -->
<g id="node10" class="node">
<title>Node10</title>
<g id="a_node10"><a xlink:href="classast_1_1_block.html" target="_top" xlink:title="抽象構文木のステップ式のクラス.">
<polygon fill="white" stroke="black" points="80,-56.5 80,-75.5 121,-75.5 121,-56.5 80,-56.5"/>
<text text-anchor="middle" x="100.5" y="-63.5" font-family="Helvetica,sans-Serif" font-size="10.00">Block</text>
</a>
</g>
</g>
<!-- Node9&#45;&gt;Node10 -->
<g id="edge12" class="edge">
<title>Node9&#45;&gt;Node10</title>
<path fill="none" stroke="midnightblue" d="M119.16,-102.98C114.41,-93.82 108.84,-83.09 105.04,-75.75"/>
<polygon fill="midnightblue" stroke="midnightblue" points="116.17,-104.82 123.88,-112.08 122.38,-101.59 116.17,-104.82"/>
</g>
<!-- Node11 -->
<g id="node11" class="node">
<title>Node11</title>
<g id="a_node11"><a xlink:href="classast_1_1_step.html" target="_top" xlink:title="抽象構文木のステップ式のクラス.">
<polygon fill="white" stroke="black" points="139,-56.5 139,-75.5 176,-75.5 176,-56.5 139,-56.5"/>
<text text-anchor="middle" x="157.5" y="-63.5" font-family="Helvetica,sans-Serif" font-size="10.00">Step</text>
</a>
</g>
</g>
<!-- Node9&#45;&gt;Node11 -->
<g id="edge13" class="edge">
<title>Node9&#45;&gt;Node11</title>
<path fill="none" stroke="midnightblue" d="M138.18,-102.98C143.1,-93.82 148.86,-83.09 152.8,-75.75"/>
<polygon fill="midnightblue" stroke="midnightblue" points="134.94,-101.62 133.29,-112.08 141.1,-104.93 134.94,-101.62"/>
</g>
<!-- Node12 -->
<g id="node12" class="node">
<title>Node12</title>
<g id="a_node12"><a xlink:href="classast_1_1_step_rule.html" target="_top" xlink:title="XMで実行可能（Steppaoble）な計算単位であるルールを表すオブジェクト.">
<polygon fill="white" stroke="black" points="129,-0.5 129,-19.5 186,-19.5 186,-0.5 129,-0.5"/>
<text text-anchor="middle" x="157.5" y="-7.5" font-family="Helvetica,sans-Serif" font-size="10.00">StepRule</text>
</a>
</g>
</g>
<!-- Node11&#45;&gt;Node12 -->
<g id="edge14" class="edge">
<title>Node11&#45;&gt;Node12</title>
<path fill="none" stroke="midnightblue" d="M157.5,-45.8C157.5,-36.91 157.5,-26.78 157.5,-19.75"/>
<polygon fill="midnightblue" stroke="midnightblue" points="154,-46.08 157.5,-56.08 161,-46.08 154,-46.08"/>
</g>
</g>
</svg>
