<?xml version="1.0" encoding="UTF-8" standalone="no"?>
<!DOCTYPE svg PUBLIC "-//W3C//DTD SVG 1.1//EN"
 "http://www.w3.org/Graphics/SVG/1.1/DTD/svg11.dtd">
<!-- Generated by graphviz version 2.47.0 (20210316.0004)
 -->
<!-- Title: AstConverter Pages: 1 -->
<!--zoomable 523 -->
<svg id="main" version="1.1" xmlns="http://www.w3.org/2000/svg" xmlns:xlink="http://www.w3.org/1999/xlink" xml:space="preserve" onload="init(evt)">
<style type="text/css"><![CDATA[
.edge:hover path { stroke: red; }
.edge:hover polygon { stroke: red; fill: red; }
]]></style>
<script type="text/javascript"><![CDATA[
var edges = document.getElementsByTagName('g');
if (edges && edges.length) {
  for (var i=0;i<edges.length;i++) {
    if (edges[i].id.substr(0,4)=='edge') {
      edges[i].setAttribute('class','edge');
    }
  }
}
]]></script>
        <defs>
                <circle id="rim" cx="0" cy="0" r="7"/>
                <circle id="rim2" cx="0" cy="0" r="3.5"/>
                <g id="zoomPlus">
                        <use xlink:href="#rim" fill="#404040">
                                <set attributeName="fill" to="#808080" begin="zoomplus.mouseover" end="zoomplus.mouseout"/>
                        </use>
                        <path d="M-4,0h8M0,-4v8" fill="none" stroke="white" stroke-width="1.5" pointer-events="none"/>
                </g>
                <g id="zoomMin">
                        <use xlink:href="#rim" fill="#404040">
                                <set attributeName="fill" to="#808080" begin="zoomminus.mouseover" end="zoomminus.mouseout"/>
                        </use>
                        <path d="M-4,0h8" fill="none" stroke="white" stroke-width="1.5" pointer-events="none"/>
                </g>
                <g id="dirArrow">
                        <path fill="none" stroke="white" stroke-width="1.5" d="M0,-3.0v7 M-2.5,-0.5L0,-3.0L2.5,-0.5"/>
                </g>
               <g id="resetDef">
                       <use xlink:href="#rim2" fill="#404040">
                               <set attributeName="fill" to="#808080" begin="reset.mouseover" end="reset.mouseout"/>
                       </use>
               </g>
        </defs>

<script type="text/javascript">
var viewWidth = 831;
var viewHeight = 523;
var sectionId = 'dynsection-1';
</script>
<script xlink:href="svgpan.js"/>
<svg id="graph" class="graph">
<g id="viewport">
<title>AstConverter</title>
<polygon fill="white" stroke="transparent" points="-4,4 -4,-519 827,-519 827,4 -4,4"/>
<!-- Node1 -->
<g id="node1" class="node">
<title>Node1</title>
<g id="a_node1"><a xlink:title="値の変換のクラス。AstConv&lt;S,T&gt;の単なるラッパー">
<polygon fill="#bfbfbf" stroke="black" points="749,-138.5 749,-157.5 823,-157.5 823,-138.5 749,-138.5"/>
<text text-anchor="middle" x="786" y="-145.5" font-family="Helvetica,sans-Serif" font-size="10.00">AstConverter</text>
</a>
</g>
</g>
<!-- Node2 -->
<g id="node2" class="node">
<title>Node2</title>
<g id="a_node2"><a xlink:href="classast_1_1_ast_node_unary.html" target="_top" xlink:title="ただ一つの子をもつノードのクラス。">
<polygon fill="white" stroke="black" points="631,-138.5 631,-157.5 712,-157.5 712,-138.5 631,-138.5"/>
<text text-anchor="middle" x="671.5" y="-145.5" font-family="Helvetica,sans-Serif" font-size="10.00">AstNodeUnary</text>
</a>
</g>
</g>
<!-- Node2&#45;&gt;Node1 -->
<g id="edge1" class="edge">
<title>Node2&#45;&gt;Node1</title>
<path fill="none" stroke="midnightblue" d="M722.4,-148C731.25,-148 740.32,-148 748.7,-148"/>
<polygon fill="midnightblue" stroke="midnightblue" points="722.16,-144.5 712.16,-148 722.16,-151.5 722.16,-144.5"/>
</g>
<!-- Node3 -->
<g id="node3" class="node">
<title>Node3</title>
<g id="a_node3"><a xlink:href="classast_1_1_ast_node.html" target="_top" xlink:title="タグなしの順アクセスの子供をもてる抽象構文木のノードのクラス。">
<polygon fill="white" stroke="black" points="520.5,-120.5 520.5,-139.5 575.5,-139.5 575.5,-120.5 520.5,-120.5"/>
<text text-anchor="middle" x="548" y="-127.5" font-family="Helvetica,sans-Serif" font-size="10.00">AstNode</text>
</a>
</g>
</g>
<!-- Node3&#45;&gt;Node2 -->
<g id="edge2" class="edge">
<title>Node3&#45;&gt;Node2</title>
<path fill="none" stroke="midnightblue" d="M585.65,-135.43C599.96,-137.55 616.4,-139.99 630.97,-142.14"/>
<polygon fill="midnightblue" stroke="midnightblue" points="586.07,-131.95 575.66,-133.95 585.04,-138.88 586.07,-131.95"/>
</g>
<!-- Node4 -->
<g id="node4" class="node">
<title>Node4</title>
<g id="a_node4"><a xlink:href="classast_1_1_ast_node_base.html" target="_top" xlink:title=" ">
<polygon fill="white" stroke="black" points="273.5,-190.5 273.5,-209.5 350.5,-209.5 350.5,-190.5 273.5,-190.5"/>
<text text-anchor="middle" x="312" y="-197.5" font-family="Helvetica,sans-Serif" font-size="10.00">AstNodeBase</text>
</a>
</g>
</g>
<!-- Node4&#45;&gt;Node3 -->
<g id="edge3" class="edge">
<title>Node4&#45;&gt;Node3</title>
<path fill="none" stroke="midnightblue" d="M360.44,-190.72C395.12,-183.36 443.06,-172 484,-158 499.06,-152.85 515.48,-145.49 527.78,-139.61"/>
<polygon fill="midnightblue" stroke="midnightblue" points="359.65,-187.3 350.57,-192.78 361.08,-194.16 359.65,-187.3"/>
</g>
<!-- Node5 -->
<g id="node5" class="node">
<title>Node5</title>
<g id="a_node5"><a xlink:title=" ">
<polygon fill="white" stroke="#bfbfbf" points="16.5,-403.5 16.5,-422.5 58.5,-422.5 58.5,-403.5 16.5,-403.5"/>
<text text-anchor="middle" x="37.5" y="-410.5" font-family="Helvetica,sans-Serif" font-size="10.00">String</text>
</a>
</g>
</g>
<!-- Node5&#45;&gt;Node4 -->
<g id="edge4" class="edge">
<title>Node5&#45;&gt;Node4</title>
<path fill="none" stroke="#9a32cd" stroke-dasharray="5,2" d="M66.37,-399.08C74.8,-395.18 84.17,-391.15 93,-388 146.21,-369.04 175.59,-395.46 216,-356 236.83,-335.66 220.43,-318.76 234,-293 252.08,-258.69 284.24,-225.4 300.69,-209.58"/>
<polygon fill="#9a32cd" stroke="#9a32cd" points="64.86,-395.92 57.33,-403.37 67.86,-402.24 64.86,-395.92"/>
<text text-anchor="middle" x="154.5" y="-402" font-family="Helvetica,sans-Serif" font-size="10.00"> MOD_AST</text>
<text text-anchor="middle" x="154.5" y="-391" font-family="Helvetica,sans-Serif" font-size="10.00">mod_</text>
</g>
<!-- Node17 -->
<g id="node17" class="node">
<title>Node17</title>
<g id="a_node17"><a xlink:href="classformat_1_1_style.html" target="_top" xlink:title="ノードの表示スタイルに関するプロパティのクラス.">
<polygon fill="white" stroke="black" points="292.5,-302.5 292.5,-321.5 331.5,-321.5 331.5,-302.5 292.5,-302.5"/>
<text text-anchor="middle" x="312" y="-309.5" font-family="Helvetica,sans-Serif" font-size="10.00">Style</text>
</a>
</g>
</g>
<!-- Node5&#45;&gt;Node17 -->
<g id="edge19" class="edge">
<title>Node5&#45;&gt;Node17</title>
<path fill="none" stroke="#9a32cd" stroke-dasharray="5,2" d="M68.74,-420.31C105.31,-427.59 167.91,-434.93 216,-414 260.38,-394.69 293.4,-343.29 305.72,-321.73"/>
<polygon fill="#9a32cd" stroke="#9a32cd" points="69.23,-416.84 58.72,-418.19 67.77,-423.69 69.23,-416.84"/>
<text text-anchor="middle" x="154.5" y="-507" font-family="Helvetica,sans-Serif" font-size="10.00"> childLPAD</text>
<text text-anchor="middle" x="154.5" y="-496" font-family="Helvetica,sans-Serif" font-size="10.00">childRPAD</text>
<text text-anchor="middle" x="154.5" y="-485" font-family="Helvetica,sans-Serif" font-size="10.00">name</text>
<text text-anchor="middle" x="154.5" y="-474" font-family="Helvetica,sans-Serif" font-size="10.00">operSTR</text>
<text text-anchor="middle" x="154.5" y="-463" font-family="Helvetica,sans-Serif" font-size="10.00">parenLPAD</text>
<text text-anchor="middle" x="154.5" y="-452" font-family="Helvetica,sans-Serif" font-size="10.00">parenLPAR</text>
<text text-anchor="middle" x="154.5" y="-441" font-family="Helvetica,sans-Serif" font-size="10.00">parenRPAD</text>
<text text-anchor="middle" x="154.5" y="-430" font-family="Helvetica,sans-Serif" font-size="10.00">parenRPAR</text>
</g>
<!-- Node6 -->
<g id="node6" class="node">
<title>Node6</title>
<g id="a_node6"><a xlink:title=" ">
<polygon fill="white" stroke="#bfbfbf" points="5,-117.5 5,-136.5 70,-136.5 70,-117.5 5,-117.5"/>
<text text-anchor="middle" x="37.5" y="-124.5" font-family="Helvetica,sans-Serif" font-size="10.00">TraceLevel</text>
</a>
</g>
</g>
<!-- Node6&#45;&gt;Node4 -->
<g id="edge5" class="edge">
<title>Node6&#45;&gt;Node4</title>
<path fill="none" stroke="#9a32cd" stroke-dasharray="5,2" d="M80.26,-124.18C118.49,-123.61 175.14,-127.99 216,-154 228.17,-161.74 222.2,-172.71 234,-181 245.49,-189.07 260.05,-193.73 273.41,-196.41"/>
<polygon fill="#9a32cd" stroke="#9a32cd" points="79.9,-120.69 70,-124.46 80.09,-127.69 79.9,-120.69"/>
<text text-anchor="middle" x="154.5" y="-157" font-family="Helvetica,sans-Serif" font-size="10.00"> LOG</text>
</g>
<!-- Node7 -->
<g id="node7" class="node">
<title>Node7</title>
<g id="a_node7"><a xlink:title=" ">
<polygon fill="white" stroke="#bfbfbf" points="1,-193.5 1,-212.5 74,-212.5 74,-193.5 1,-193.5"/>
<text text-anchor="middle" x="37.5" y="-200.5" font-family="Helvetica,sans-Serif" font-size="10.00">static Report</text>
</a>
</g>
</g>
<!-- Node7&#45;&gt;Node4 -->
<g id="edge6" class="edge">
<title>Node7&#45;&gt;Node4</title>
<path fill="none" stroke="#9a32cd" stroke-dasharray="5,2" d="M84.29,-200.3C87.23,-200.18 90.16,-200.08 93,-200 156.18,-198.26 229.7,-198.79 273.18,-199.37"/>
<polygon fill="#9a32cd" stroke="#9a32cd" points="84.09,-196.8 74.25,-200.75 84.4,-203.79 84.09,-196.8"/>
<text text-anchor="middle" x="154.5" y="-203" font-family="Helvetica,sans-Serif" font-size="10.00"> repo</text>
</g>
<!-- Node8 -->
<g id="node8" class="node">
<title>Node8</title>
<g id="a_node8"><a xlink:title=" ">
<polygon fill="white" stroke="#bfbfbf" points="23,-250.5 23,-269.5 52,-269.5 52,-250.5 23,-250.5"/>
<text text-anchor="middle" x="37.5" y="-257.5" font-family="Helvetica,sans-Serif" font-size="10.00">int</text>
</a>
</g>
</g>
<!-- Node8&#45;&gt;Node4 -->
<g id="edge7" class="edge">
<title>Node8&#45;&gt;Node4</title>
<path fill="none" stroke="#9a32cd" stroke-dasharray="5,2" d="M61.26,-248.45C70.85,-243.99 82.26,-239.2 93,-236 126,-226.18 219.9,-212.43 273.07,-205.09"/>
<polygon fill="#9a32cd" stroke="#9a32cd" points="59.51,-245.4 52.03,-252.9 62.55,-251.71 59.51,-245.4"/>
<text text-anchor="middle" x="154.5" y="-250" font-family="Helvetica,sans-Serif" font-size="10.00"> BITMASK_PRINT_WIDTH</text>
<text text-anchor="middle" x="154.5" y="-239" font-family="Helvetica,sans-Serif" font-size="10.00">UNDEF</text>
</g>
<!-- Node8&#45;&gt;Node17 -->
<g id="edge20" class="edge">
<title>Node8&#45;&gt;Node17</title>
<path fill="none" stroke="#9a32cd" stroke-dasharray="5,2" d="M62.44,-260.84C96.81,-262.42 161.93,-266.88 216,-279 243.26,-285.11 273.55,-296.47 292.44,-304.14"/>
<polygon fill="#9a32cd" stroke="#9a32cd" points="62.17,-257.32 52.03,-260.4 61.88,-264.31 62.17,-257.32"/>
<text text-anchor="middle" x="154.5" y="-282" font-family="Helvetica,sans-Serif" font-size="10.00"> pref</text>
</g>
<!-- Node9 -->
<g id="node9" class="node">
<title>Node9</title>
<g id="a_node9"><a xlink:href="interfacetype_1_1_typable.html" target="_top" xlink:title="抽象ノードがもつ関数型のインタフェース">
<polygon fill="white" stroke="black" points="12.5,-155.5 12.5,-174.5 62.5,-174.5 62.5,-155.5 12.5,-155.5"/>
<text text-anchor="middle" x="37.5" y="-162.5" font-family="Helvetica,sans-Serif" font-size="10.00">Typable</text>
</a>
</g>
</g>
<!-- Node9&#45;&gt;Node4 -->
<g id="edge8" class="edge">
<title>Node9&#45;&gt;Node4</title>
<path fill="none" stroke="#9a32cd" stroke-dasharray="5,2" d="M73.08,-167.72C108.92,-170.73 166.52,-176.07 216,-183 234.92,-185.65 255.82,-189.31 273.2,-192.55"/>
<polygon fill="#9a32cd" stroke="#9a32cd" points="72.94,-164.2 62.69,-166.87 72.36,-171.18 72.94,-164.2"/>
<text text-anchor="middle" x="154.5" y="-186" font-family="Helvetica,sans-Serif" font-size="10.00"> typing</text>
</g>
<!-- Node10 -->
<g id="node10" class="node">
<title>Node10</title>
<g id="a_node10"><a xlink:title=" ">
<polygon fill="white" stroke="#bfbfbf" points="12.5,-321.5 12.5,-340.5 62.5,-340.5 62.5,-321.5 12.5,-321.5"/>
<text text-anchor="middle" x="37.5" y="-328.5" font-family="Helvetica,sans-Serif" font-size="10.00">boolean</text>
</a>
</g>
</g>
<!-- Node10&#45;&gt;Node4 -->
<g id="edge9" class="edge">
<title>Node10&#45;&gt;Node4</title>
<path fill="none" stroke="#9a32cd" stroke-dasharray="5,2" d="M70.97,-317.99C78.15,-315.42 85.77,-312.93 93,-311 146.59,-296.72 166.4,-314.81 216,-290 255.62,-270.18 290,-228.34 304.14,-209.52"/>
<polygon fill="#9a32cd" stroke="#9a32cd" points="69.7,-314.72 61.54,-321.49 72.13,-321.29 69.7,-314.72"/>
<text text-anchor="middle" x="154.5" y="-314" font-family="Helvetica,sans-Serif" font-size="10.00"> DEBUG_REPO</text>
</g>
<!-- Node10&#45;&gt;Node17 -->
<g id="edge21" class="edge">
<title>Node10&#45;&gt;Node17</title>
<path fill="none" stroke="#9a32cd" stroke-dasharray="5,2" d="M73.04,-330.52C108.85,-329.81 166.42,-328.1 216,-324 242.67,-321.79 273.37,-317.62 292.48,-314.82"/>
<polygon fill="#9a32cd" stroke="#9a32cd" points="72.59,-327.03 62.66,-330.71 72.72,-334.02 72.59,-327.03"/>
<text text-anchor="middle" x="154.5" y="-344" font-family="Helvetica,sans-Serif" font-size="10.00"> preoperSupress</text>
<text text-anchor="middle" x="154.5" y="-333" font-family="Helvetica,sans-Serif" font-size="10.00">toInline</text>
</g>
<!-- Node11 -->
<g id="node11" class="node">
<title>Node11</title>
<g id="a_node11"><a xlink:href="interfaceast_1_1_node.html" target="_top" xlink:title=" ">
<polygon fill="white" stroke="black" points="292,-152.5 292,-171.5 332,-171.5 332,-152.5 292,-152.5"/>
<text text-anchor="middle" x="312" y="-159.5" font-family="Helvetica,sans-Serif" font-size="10.00">Node</text>
</a>
</g>
</g>
<!-- Node11&#45;&gt;Node3 -->
<g id="edge10" class="edge">
<title>Node11&#45;&gt;Node3</title>
<path fill="none" stroke="midnightblue" d="M342.31,-157.99C388.1,-151.73 475.95,-139.72 520.17,-133.67"/>
<polygon fill="midnightblue" stroke="midnightblue" points="341.58,-154.56 332.15,-159.38 342.53,-161.49 341.58,-154.56"/>
</g>
<!-- Node18 -->
<g id="node18" class="node">
<title>Node18</title>
<g id="a_node18"><a xlink:href="interfaceast_1_1_node_1_1_node_unary.html" target="_top" xlink:title="子供を一つだけもつノードのインタフェース">
<polygon fill="white" stroke="black" points="502,-161.5 502,-180.5 594,-180.5 594,-161.5 502,-161.5"/>
<text text-anchor="middle" x="548" y="-168.5" font-family="Helvetica,sans-Serif" font-size="10.00">Node.NodeUnary</text>
</a>
</g>
</g>
<!-- Node11&#45;&gt;Node18 -->
<g id="edge23" class="edge">
<title>Node11&#45;&gt;Node18</title>
<path fill="none" stroke="midnightblue" d="M342.32,-163.13C382.4,-164.67 454.69,-167.45 501.75,-169.26"/>
<polygon fill="midnightblue" stroke="midnightblue" points="342.28,-159.62 332.15,-162.74 342.01,-166.62 342.28,-159.62"/>
</g>
<!-- Node12 -->
<g id="node12" class="node">
<title>Node12</title>
<g id="a_node12"><a xlink:href="interfaceformat_1_1_x_formattable.html" target="_top" xlink:title="入れ子フォーマット出力可能なオブジェクトのインタフェース。">
<polygon fill="white" stroke="black" points="0,-63.5 0,-82.5 75,-82.5 75,-63.5 0,-63.5"/>
<text text-anchor="middle" x="37.5" y="-70.5" font-family="Helvetica,sans-Serif" font-size="10.00">XFormattable</text>
</a>
</g>
</g>
<!-- Node12&#45;&gt;Node11 -->
<g id="edge11" class="edge">
<title>Node12&#45;&gt;Node11</title>
<path fill="none" stroke="midnightblue" d="M84.74,-83.63C133.55,-95.11 204.95,-112.72 216,-120 226.84,-127.14 223.1,-135.95 234,-143 251.57,-154.37 275.42,-158.94 291.9,-160.77"/>
<polygon fill="midnightblue" stroke="midnightblue" points="85.54,-80.22 75,-81.35 83.94,-87.04 85.54,-80.22"/>
</g>
<!-- Node13 -->
<g id="node13" class="node">
<title>Node13</title>
<g id="a_node13"><a xlink:href="interfaceformat_1_1_x_formattable_1_1_navigatable.html" target="_top" xlink:title="木構造の分岐ノードとして清書可能なオブジェクトのクラス">
<polygon fill="white" stroke="black" points="247,-76.5 247,-95.5 377,-95.5 377,-76.5 247,-76.5"/>
<text text-anchor="middle" x="312" y="-83.5" font-family="Helvetica,sans-Serif" font-size="10.00">XFormattable.Navigatable</text>
</a>
</g>
</g>
<!-- Node12&#45;&gt;Node13 -->
<g id="edge13" class="edge">
<title>Node12&#45;&gt;Node13</title>
<path fill="none" stroke="midnightblue" d="M85.52,-75.24C130.11,-77.37 197.47,-80.58 246.96,-82.94"/>
<polygon fill="midnightblue" stroke="midnightblue" points="85.41,-71.73 75.25,-74.75 85.07,-78.73 85.41,-71.73"/>
</g>
<!-- Node14 -->
<g id="node14" class="node">
<title>Node14</title>
<g id="a_node14"><a xlink:href="interfaceformat_1_1_x_formattable_1_1_typed_formattable.html" target="_top" xlink:title="ノードの型情報をもつ書式出力可能なオブジェクトのインタフェース．">
<polygon fill="white" stroke="black" points="234,-38.5 234,-57.5 390,-57.5 390,-38.5 234,-38.5"/>
<text text-anchor="middle" x="312" y="-45.5" font-family="Helvetica,sans-Serif" font-size="10.00">XFormattable.TypedFormattable</text>
</a>
</g>
</g>
<!-- Node12&#45;&gt;Node14 -->
<g id="edge15" class="edge">
<title>Node12&#45;&gt;Node14</title>
<path fill="none" stroke="midnightblue" d="M85.44,-68.69C126.22,-64.95 186.07,-59.46 233.87,-55.08"/>
<polygon fill="midnightblue" stroke="midnightblue" points="84.89,-65.23 75.25,-69.63 85.53,-72.2 84.89,-65.23"/>
</g>
<!-- Node13&#45;&gt;Node3 -->
<g id="edge12" class="edge">
<title>Node13&#45;&gt;Node3</title>
<path fill="none" stroke="midnightblue" d="M373.64,-97.4C421.1,-106.33 484.83,-118.31 520.3,-124.98"/>
<polygon fill="midnightblue" stroke="midnightblue" points="374.25,-93.96 363.77,-95.55 372.96,-100.84 374.25,-93.96"/>
</g>
<!-- Node14&#45;&gt;Node3 -->
<g id="edge14" class="edge">
<title>Node14&#45;&gt;Node3</title>
<path fill="none" stroke="midnightblue" d="M364.62,-60.01C373.14,-62.2 381.84,-64.57 390,-67 432.43,-79.65 443.06,-83.12 484,-100 499.12,-106.23 515.81,-114.24 528.21,-120.41"/>
<polygon fill="midnightblue" stroke="midnightblue" points="365.31,-56.58 354.76,-57.53 363.6,-63.37 365.31,-56.58"/>
</g>
<!-- Node15 -->
<g id="node15" class="node">
<title>Node15</title>
<g id="a_node15"><a xlink:title=" ">
<polygon fill="white" stroke="#bfbfbf" points="267,-0.5 267,-19.5 357,-19.5 357,-0.5 267,-0.5"/>
<text text-anchor="middle" x="312" y="-7.5" font-family="Helvetica,sans-Serif" font-size="10.00">List&lt; ast.Node &gt;</text>
</a>
</g>
</g>
<!-- Node15&#45;&gt;Node3 -->
<g id="edge16" class="edge">
<title>Node15&#45;&gt;Node3</title>
<path fill="none" stroke="#9a32cd" stroke-dasharray="5,2" d="M367.27,-16.3C402.73,-22.4 448.82,-34.25 484,-57 510.14,-73.91 531.56,-104.78 541.31,-120.4"/>
<polygon fill="#9a32cd" stroke="#9a32cd" points="367.52,-12.8 357.09,-14.66 366.41,-19.71 367.52,-12.8"/>
<text text-anchor="middle" x="446" y="-60" font-family="Helvetica,sans-Serif" font-size="10.00"> children</text>
</g>
<!-- Node16 -->
<g id="node16" class="node">
<title>Node16</title>
<g id="a_node16"><a xlink:title=" ">
<polygon fill="white" stroke="#bfbfbf" points="286,-114.5 286,-133.5 338,-133.5 338,-114.5 286,-114.5"/>
<text text-anchor="middle" x="312" y="-121.5" font-family="Helvetica,sans-Serif" font-size="10.00">Boolean</text>
</a>
</g>
</g>
<!-- Node16&#45;&gt;Node3 -->
<g id="edge17" class="edge">
<title>Node16&#45;&gt;Node3</title>
<path fill="none" stroke="#9a32cd" stroke-dasharray="5,2" d="M348.3,-123.45C382.89,-123.09 437.09,-123 484,-125 495.95,-125.51 509.14,-126.49 520.36,-127.45"/>
<polygon fill="#9a32cd" stroke="#9a32cd" points="348.18,-119.95 338.22,-123.57 348.26,-126.95 348.18,-119.95"/>
<text text-anchor="middle" x="446" y="-128" font-family="Helvetica,sans-Serif" font-size="10.00"> DEBUG_CHILD</text>
</g>
<!-- Node17&#45;&gt;Node3 -->
<g id="edge18" class="edge">
<title>Node17&#45;&gt;Node3</title>
<path fill="none" stroke="#9a32cd" stroke-dasharray="5,2" d="M338.29,-297.12C373.93,-275.24 439.57,-231.59 484,-182 494.38,-170.42 490.54,-162.51 502,-152 507.51,-146.94 514.4,-142.8 521.11,-139.53"/>
<polygon fill="#9a32cd" stroke="#9a32cd" points="336.22,-294.28 329.48,-302.45 339.85,-300.26 336.22,-294.28"/>
<text text-anchor="middle" x="446" y="-251" font-family="Helvetica,sans-Serif" font-size="10.00"> sty</text>
</g>
<!-- Node18&#45;&gt;Node2 -->
<g id="edge22" class="edge">
<title>Node18&#45;&gt;Node2</title>
<path fill="none" stroke="midnightblue" d="M604.25,-160.54C613.2,-158.85 622.32,-157.12 630.82,-155.51"/>
<polygon fill="midnightblue" stroke="midnightblue" points="603.42,-157.14 594.24,-162.44 604.72,-164.01 603.42,-157.14"/>
</g>
</g>
</svg>
        <g id="navigator" transform="translate(0 0)" fill="#404254">
                <rect fill="#f2f5e9" fill-opacity="0.5" stroke="#606060" stroke-width=".5" x="0" y="0" width="60" height="60"/>
                <use id="zoomplus" xlink:href="#zoomPlus" x="17" y="9" onmousedown="handleZoom(evt,'in')"/>
                <use id="zoomminus" xlink:href="#zoomMin" x="42" y="9" onmousedown="handleZoom(evt,'out')"/>
                <use id="reset" xlink:href="#resetDef" x="30" y="36" onmousedown="handleReset()"/>
                <g id="arrowUp" xlink:href="#dirArrow" transform="translate(30 24)" onmousedown="handlePan(0,-1)">
                  <use xlink:href="#rim" fill="#404040">
                        <set attributeName="fill" to="#808080" begin="arrowUp.mouseover" end="arrowUp.mouseout"/>
                  </use>
                  <path fill="none" stroke="white" stroke-width="1.5" d="M0,-3.0v7 M-2.5,-0.5L0,-3.0L2.5,-0.5"/>
                </g>
                <g id="arrowRight" xlink:href="#dirArrow" transform="rotate(90) translate(36 -43)" onmousedown="handlePan(1,0)">
                  <use xlink:href="#rim" fill="#404040">
                        <set attributeName="fill" to="#808080" begin="arrowRight.mouseover" end="arrowRight.mouseout"/>
                  </use>
                  <path fill="none" stroke="white" stroke-width="1.5" d="M0,-3.0v7 M-2.5,-0.5L0,-3.0L2.5,-0.5"/>
                </g>
                <g id="arrowDown" xlink:href="#dirArrow" transform="rotate(180) translate(-30 -48)" onmousedown="handlePan(0,1)">
                  <use xlink:href="#rim" fill="#404040">
                        <set attributeName="fill" to="#808080" begin="arrowDown.mouseover" end="arrowDown.mouseout"/>
                  </use>
                  <path fill="none" stroke="white" stroke-width="1.5" d="M0,-3.0v7 M-2.5,-0.5L0,-3.0L2.5,-0.5"/>
                </g>
                <g id="arrowLeft" xlink:href="#dirArrow" transform="rotate(270) translate(-36 17)" onmousedown="handlePan(-1,0)">
                  <use xlink:href="#rim" fill="#404040">
                        <set attributeName="fill" to="#808080" begin="arrowLeft.mouseover" end="arrowLeft.mouseout"/>
                  </use>
                  <path fill="none" stroke="white" stroke-width="1.5" d="M0,-3.0v7 M-2.5,-0.5L0,-3.0L2.5,-0.5"/>
                </g>
        </g>
        <svg viewBox="0 0 15 15" width="100%" height="30px" preserveAspectRatio="xMaxYMin meet">
         <g id="arrow_out" transform="scale(0.3 0.3)">
          <a xlink:href="classast_1_1_ast_converter__coll__graph_org.svg" target="_base">
           <rect id="button" ry="5" rx="5" y="6" x="6" height="38" width="38"
                fill="#f2f5e9" fill-opacity="0.5" stroke="#606060" stroke-width="1.0"/>
           <path id="arrow"
             d="M 11.500037,31.436501 C 11.940474,20.09759 22.043105,11.32322 32.158766,21.979434 L 37.068811,17.246167 C 37.068811,17.246167 37.088388,32 37.088388,32 L 22.160133,31.978069 C 22.160133,31.978069 26.997745,27.140456 26.997745,27.140456 C 18.528582,18.264221 13.291696,25.230495 11.500037,31.436501 z"
             style="fill:#404040;"/>
          </a>
         </g>
        </svg>
</svg>
