<?xml version="1.0" encoding="UTF-8" standalone="no"?>
<!DOCTYPE svg PUBLIC "-//W3C//DTD SVG 1.1//EN"
 "http://www.w3.org/Graphics/SVG/1.1/DTD/svg11.dtd">
<!-- Generated by graphviz version 2.47.1 (20210417.1919)
 -->
<!-- Title: AstDataReader.ReaderType Pages: 1 -->
<svg width="918pt" height="218pt"
 viewBox="0.00 0.00 918.00 218.00" xmlns="http://www.w3.org/2000/svg" xmlns:xlink="http://www.w3.org/1999/xlink">
<g id="graph0" class="graph" transform="scale(1 1) rotate(0) translate(4 214)">
<title>AstDataReader.ReaderType</title>
<polygon fill="white" stroke="transparent" points="-4,4 -4,-214 914,-214 914,4 -4,4"/>
<!-- Node1 -->
<g id="node1" class="node">
<title>Node1</title>
<g id="a_node1"><a xlink:title="フレームスタックから参照が示す値を読み出すクラス">
<polygon fill="#bfbfbf" stroke="black" points="582,-57.5 582,-76.5 721,-76.5 721,-57.5 582,-57.5"/>
<text text-anchor="middle" x="651.5" y="-64.5" font-family="Helvetica,sans-Serif" font-size="10.00">AstDataReader.ReaderType</text>
</a>
</g>
</g>
<!-- Node12 -->
<g id="node12" class="node">
<title>Node12</title>
<g id="a_node12"><a xlink:href="classast_1_1_ast_data_reader_1_1_reader_boolean.html" target="_top" xlink:title="ブール型の値をもつ参照読み出し">
<polygon fill="white" stroke="black" points="757,-114.5 757,-133.5 910,-133.5 910,-114.5 757,-114.5"/>
<text text-anchor="middle" x="833.5" y="-121.5" font-family="Helvetica,sans-Serif" font-size="10.00">AstDataReader.ReaderBoolean</text>
</a>
</g>
</g>
<!-- Node1&#45;&gt;Node12 -->
<g id="edge13" class="edge">
<title>Node1&#45;&gt;Node12</title>
<path fill="none" stroke="midnightblue" d="M686.2,-80.25C706.53,-87.99 733.05,-97.65 757,-105 767.98,-108.37 780,-111.6 791.15,-114.4"/>
<polygon fill="midnightblue" stroke="midnightblue" points="687.34,-76.94 676.75,-76.62 684.83,-83.47 687.34,-76.94"/>
</g>
<!-- Node13 -->
<g id="node13" class="node">
<title>Node13</title>
<g id="a_node13"><a xlink:href="classast_1_1_ast_data_reader_1_1_reader_double.html" target="_top" xlink:title="倍精度実数型の値をもつ参照読み出しの呼び出し">
<polygon fill="white" stroke="black" points="759,-76.5 759,-95.5 908,-95.5 908,-76.5 759,-76.5"/>
<text text-anchor="middle" x="833.5" y="-83.5" font-family="Helvetica,sans-Serif" font-size="10.00">AstDataReader.ReaderDouble</text>
</a>
</g>
</g>
<!-- Node1&#45;&gt;Node13 -->
<g id="edge14" class="edge">
<title>Node1&#45;&gt;Node13</title>
<path fill="none" stroke="midnightblue" d="M731.28,-75.32C740.4,-76.28 749.68,-77.26 758.73,-78.21"/>
<polygon fill="midnightblue" stroke="midnightblue" points="731.38,-71.81 721.06,-74.24 730.64,-78.77 731.38,-71.81"/>
</g>
<!-- Node14 -->
<g id="node14" class="node">
<title>Node14</title>
<g id="a_node14"><a xlink:href="classast_1_1_ast_data_reader_1_1_reader_integer.html" target="_top" xlink:title="整数型の値をもつ参照読み出しの呼び出し">
<polygon fill="white" stroke="black" points="759.5,-38.5 759.5,-57.5 907.5,-57.5 907.5,-38.5 759.5,-38.5"/>
<text text-anchor="middle" x="833.5" y="-45.5" font-family="Helvetica,sans-Serif" font-size="10.00">AstDataReader.ReaderInteger</text>
</a>
</g>
</g>
<!-- Node1&#45;&gt;Node14 -->
<g id="edge15" class="edge">
<title>Node1&#45;&gt;Node14</title>
<path fill="none" stroke="midnightblue" d="M731.14,-58.7C740.51,-57.71 750.05,-56.7 759.33,-55.72"/>
<polygon fill="midnightblue" stroke="midnightblue" points="730.64,-55.23 721.06,-59.76 731.38,-62.19 730.64,-55.23"/>
</g>
<!-- Node15 -->
<g id="node15" class="node">
<title>Node15</title>
<g id="a_node15"><a xlink:href="classast_1_1_ast_data_reader_1_1_reader_string.html" target="_top" xlink:title="文字列型の値をもつ参照読み出し">
<polygon fill="white" stroke="black" points="762,-0.5 762,-19.5 905,-19.5 905,-0.5 762,-0.5"/>
<text text-anchor="middle" x="833.5" y="-7.5" font-family="Helvetica,sans-Serif" font-size="10.00">AstDataReader.ReaderString</text>
</a>
</g>
</g>
<!-- Node1&#45;&gt;Node15 -->
<g id="edge16" class="edge">
<title>Node1&#45;&gt;Node15</title>
<path fill="none" stroke="midnightblue" d="M686.2,-53.75C706.53,-46.01 733.05,-36.35 757,-29 767.98,-25.63 780,-22.4 791.15,-19.6"/>
<polygon fill="midnightblue" stroke="midnightblue" points="684.83,-50.53 676.75,-57.38 687.34,-57.06 684.83,-50.53"/>
</g>
<!-- Node2 -->
<g id="node2" class="node">
<title>Node2</title>
<g id="a_node2"><a xlink:href="classast_1_1_ast_data_reader.html" target="_top" xlink:title="値の読み出しオブジェクト．">
<polygon fill="white" stroke="black" points="462,-76.5 462,-95.5 546,-95.5 546,-76.5 462,-76.5"/>
<text text-anchor="middle" x="504" y="-83.5" font-family="Helvetica,sans-Serif" font-size="10.00">AstDataReader</text>
</a>
</g>
</g>
<!-- Node2&#45;&gt;Node1 -->
<g id="edge1" class="edge">
<title>Node2&#45;&gt;Node1</title>
<path fill="none" stroke="midnightblue" d="M556.47,-79.28C564.68,-78.21 573.3,-77.08 581.84,-75.97"/>
<polygon fill="midnightblue" stroke="midnightblue" points="555.77,-75.84 546.31,-80.61 556.67,-82.78 555.77,-75.84"/>
</g>
<!-- Node3 -->
<g id="node3" class="node">
<title>Node3</title>
<g id="a_node3"><a xlink:href="classast_1_1_ast_node.html" target="_top" xlink:title="タグなしの順アクセスの子供をもてる抽象構文木のノードのクラス。">
<polygon fill="white" stroke="black" points="337,-114.5 337,-133.5 392,-133.5 392,-114.5 337,-114.5"/>
<text text-anchor="middle" x="364.5" y="-121.5" font-family="Helvetica,sans-Serif" font-size="10.00">AstNode</text>
</a>
</g>
</g>
<!-- Node3&#45;&gt;Node2 -->
<g id="edge2" class="edge">
<title>Node3&#45;&gt;Node2</title>
<path fill="none" stroke="midnightblue" d="M401.7,-114C422.36,-108.29 448.12,-101.17 468.49,-95.54"/>
<polygon fill="midnightblue" stroke="midnightblue" points="400.72,-110.64 392.01,-116.67 402.58,-117.38 400.72,-110.64"/>
</g>
<!-- Node4 -->
<g id="node4" class="node">
<title>Node4</title>
<g id="a_node4"><a xlink:href="classast_1_1_ast_node_base.html" target="_top" xlink:title=" ">
<polygon fill="white" stroke="black" points="150.5,-190.5 150.5,-209.5 227.5,-209.5 227.5,-190.5 150.5,-190.5"/>
<text text-anchor="middle" x="189" y="-197.5" font-family="Helvetica,sans-Serif" font-size="10.00">AstNodeBase</text>
</a>
</g>
</g>
<!-- Node4&#45;&gt;Node3 -->
<g id="edge3" class="edge">
<title>Node4&#45;&gt;Node3</title>
<path fill="none" stroke="midnightblue" d="M237.32,-190.63C247.29,-188.02 257.63,-184.83 267,-181 298.52,-168.13 332.04,-146.22 350.1,-133.64"/>
<polygon fill="midnightblue" stroke="midnightblue" points="236.38,-187.26 227.51,-193.05 238.06,-194.06 236.38,-187.26"/>
</g>
<!-- Node5 -->
<g id="node5" class="node">
<title>Node5</title>
<g id="a_node5"><a xlink:href="interfaceast_1_1_node.html" target="_top" xlink:title=" ">
<polygon fill="white" stroke="black" points="169,-152.5 169,-171.5 209,-171.5 209,-152.5 169,-152.5"/>
<text text-anchor="middle" x="189" y="-159.5" font-family="Helvetica,sans-Serif" font-size="10.00">Node</text>
</a>
</g>
</g>
<!-- Node5&#45;&gt;Node3 -->
<g id="edge4" class="edge">
<title>Node5&#45;&gt;Node3</title>
<path fill="none" stroke="midnightblue" d="M219.14,-155.62C252.01,-148.42 305,-136.81 336.82,-129.84"/>
<polygon fill="midnightblue" stroke="midnightblue" points="218.25,-152.23 209.23,-157.79 219.75,-159.07 218.25,-152.23"/>
</g>
<!-- Node6 -->
<g id="node6" class="node">
<title>Node6</title>
<g id="a_node6"><a xlink:href="interfaceformat_1_1_x_formattable.html" target="_top" xlink:title="入れ子フォーマット出力可能なオブジェクトのインタフェース。">
<polygon fill="white" stroke="black" points="0,-114.5 0,-133.5 75,-133.5 75,-114.5 0,-114.5"/>
<text text-anchor="middle" x="37.5" y="-121.5" font-family="Helvetica,sans-Serif" font-size="10.00">XFormattable</text>
</a>
</g>
</g>
<!-- Node6&#45;&gt;Node5 -->
<g id="edge5" class="edge">
<title>Node6&#45;&gt;Node5</title>
<path fill="none" stroke="midnightblue" d="M84.38,-136.13C93.21,-138.43 102.39,-140.81 111,-143 130.75,-148.02 153.4,-153.59 168.99,-157.39"/>
<polygon fill="midnightblue" stroke="midnightblue" points="85.17,-132.72 74.61,-133.57 83.4,-139.49 85.17,-132.72"/>
</g>
<!-- Node7 -->
<g id="node7" class="node">
<title>Node7</title>
<g id="a_node7"><a xlink:href="interfaceformat_1_1_x_formattable_1_1_navigatable.html" target="_top" xlink:title="木構造の分岐ノードとして清書可能なオブジェクトのクラス">
<polygon fill="white" stroke="black" points="124,-114.5 124,-133.5 254,-133.5 254,-114.5 124,-114.5"/>
<text text-anchor="middle" x="189" y="-121.5" font-family="Helvetica,sans-Serif" font-size="10.00">XFormattable.Navigatable</text>
</a>
</g>
</g>
<!-- Node6&#45;&gt;Node7 -->
<g id="edge7" class="edge">
<title>Node6&#45;&gt;Node7</title>
<path fill="none" stroke="midnightblue" d="M85.43,-124C97.61,-124 110.93,-124 123.82,-124"/>
<polygon fill="midnightblue" stroke="midnightblue" points="85.07,-120.5 75.07,-124 85.07,-127.5 85.07,-120.5"/>
</g>
<!-- Node8 -->
<g id="node8" class="node">
<title>Node8</title>
<g id="a_node8"><a xlink:href="interfaceformat_1_1_x_formattable_1_1_typed_formattable.html" target="_top" xlink:title="ノードの型情報をもつ書式出力可能なオブジェクトのインタフェース．">
<polygon fill="white" stroke="black" points="111,-76.5 111,-95.5 267,-95.5 267,-76.5 111,-76.5"/>
<text text-anchor="middle" x="189" y="-83.5" font-family="Helvetica,sans-Serif" font-size="10.00">XFormattable.TypedFormattable</text>
</a>
</g>
</g>
<!-- Node6&#45;&gt;Node8 -->
<g id="edge9" class="edge">
<title>Node6&#45;&gt;Node8</title>
<path fill="none" stroke="midnightblue" d="M84.38,-111.87C93.21,-109.57 102.39,-107.19 111,-105 123.28,-101.88 136.67,-98.54 148.8,-95.56"/>
<polygon fill="midnightblue" stroke="midnightblue" points="83.4,-108.51 74.61,-114.43 85.17,-115.28 83.4,-108.51"/>
</g>
<!-- Node7&#45;&gt;Node3 -->
<g id="edge6" class="edge">
<title>Node7&#45;&gt;Node3</title>
<path fill="none" stroke="midnightblue" d="M264.28,-124C290.07,-124 317.36,-124 336.78,-124"/>
<polygon fill="midnightblue" stroke="midnightblue" points="264.11,-120.5 254.11,-124 264.11,-127.5 264.11,-120.5"/>
</g>
<!-- Node8&#45;&gt;Node3 -->
<g id="edge8" class="edge">
<title>Node8&#45;&gt;Node3</title>
<path fill="none" stroke="midnightblue" d="M243.56,-97.73C274.48,-104.5 312.02,-112.73 336.78,-118.15"/>
<polygon fill="midnightblue" stroke="midnightblue" points="244.3,-94.31 233.78,-95.59 242.8,-101.15 244.3,-94.31"/>
</g>
<!-- Node9 -->
<g id="node9" class="node">
<title>Node9</title>
<g id="a_node9"><a xlink:href="interfacecmd_1_1_generatable_1_1_evaluatable.html" target="_top" xlink:title="評価して値を返すノードのインタフェース．必ずしもコードを生成しなくても良い．">
<polygon fill="white" stroke="black" points="303,-57.5 303,-76.5 426,-76.5 426,-57.5 303,-57.5"/>
<text text-anchor="middle" x="364.5" y="-64.5" font-family="Helvetica,sans-Serif" font-size="10.00">Generatable.Evaluatable</text>
</a>
</g>
</g>
<!-- Node9&#45;&gt;Node2 -->
<g id="edge10" class="edge">
<title>Node9&#45;&gt;Node2</title>
<path fill="none" stroke="midnightblue" d="M436.17,-76.77C445,-77.99 453.79,-79.2 461.95,-80.33"/>
<polygon fill="midnightblue" stroke="midnightblue" points="436.59,-73.29 426.21,-75.39 435.64,-80.22 436.59,-73.29"/>
</g>
<!-- Node10 -->
<g id="node10" class="node">
<title>Node10</title>
<g id="a_node10"><a xlink:href="interfacecmd_1_1_generatable.html" target="_top" xlink:title="変換してコードを生成できるノードのインタフェース.">
<polygon fill="white" stroke="black" points="154.5,-38.5 154.5,-57.5 223.5,-57.5 223.5,-38.5 154.5,-38.5"/>
<text text-anchor="middle" x="189" y="-45.5" font-family="Helvetica,sans-Serif" font-size="10.00">Generatable</text>
</a>
</g>
</g>
<!-- Node10&#45;&gt;Node9 -->
<g id="edge11" class="edge">
<title>Node10&#45;&gt;Node9</title>
<path fill="none" stroke="midnightblue" d="M234.01,-52.82C254.84,-55.1 280.06,-57.86 302.68,-60.34"/>
<polygon fill="midnightblue" stroke="midnightblue" points="234.19,-49.32 223.86,-51.71 233.42,-56.28 234.19,-49.32"/>
</g>
<!-- Node11 -->
<g id="node11" class="node">
<title>Node11</title>
<g id="a_node11"><a xlink:href="class_data_reader.html" target="_top" xlink:title=" ">
<polygon fill="white" stroke="black" points="469.5,-38.5 469.5,-57.5 538.5,-57.5 538.5,-38.5 469.5,-38.5"/>
<text text-anchor="middle" x="504" y="-45.5" font-family="Helvetica,sans-Serif" font-size="10.00">DataReader</text>
</a>
</g>
</g>
<!-- Node11&#45;&gt;Node1 -->
<g id="edge12" class="edge">
<title>Node11&#45;&gt;Node1</title>
<path fill="none" stroke="midnightblue" d="M548.84,-53.72C559.29,-55.09 570.69,-56.58 581.96,-58.05"/>
<polygon fill="midnightblue" stroke="midnightblue" points="549.12,-50.23 538.75,-52.41 548.21,-57.17 549.12,-50.23"/>
</g>
</g>
</svg>
