<?xml version="1.0" encoding="UTF-8" standalone="no"?>
<!DOCTYPE svg PUBLIC "-//W3C//DTD SVG 1.1//EN"
 "http://www.w3.org/Graphics/SVG/1.1/DTD/svg11.dtd">
<!-- Generated by graphviz version 2.38.0 (20140413.2041)
 -->
<!-- Title: nop Pages: 1 -->
<svg width="586pt" height="37pt"
 viewBox="0.00 0.00 585.70 37.00" xmlns="http://www.w3.org/2000/svg" xmlns:xlink="http://www.w3.org/1999/xlink">
<g id="graph0" class="graph" transform="scale(1 1) rotate(0) translate(4 33)">
<title>nop</title>
<polygon fill="white" stroke="none" points="-4,4 -4,-33 581.698,-33 581.698,4 -4,4"/>
<!-- Node1 -->
<g id="node1" class="node"><title>Node1</title>
<g id="a_node1"><a xlink:title="何もしない演算 (&quot;no operation&quot;).">
<polygon fill="#bfbfbf" stroke="black" points="545.014,-5.5 545.014,-23.5 577.698,-23.5 577.698,-5.5 545.014,-5.5"/>
<text text-anchor="middle" x="561.356" y="-11.5" font-family="Helvetica,sans-Serif" font-size="10.00">nop</text>
</a>
</g>
</g>
<!-- Node2 -->
<g id="node2" class="node"><title>Node2</title>
<g id="a_node2"><a xlink:href="classframe_1_1_frame_stack_uni.html#abb6dc2b3a776fb3eec1367285a25d4ec" target="_top" xlink:title="文字列表現を返す. *‍/">
<polygon fill="white" stroke="black" points="358.526,-0.5 358.526,-28.5 509.014,-28.5 509.014,-0.5 358.526,-0.5"/>
<text text-anchor="start" x="366.526" y="-16.5" font-family="Helvetica,sans-Serif" font-size="10.00">frame.FrameStackUni.toString</text>
<text text-anchor="middle" x="433.77" y="-6.5" font-family="Helvetica,sans-Serif" font-size="10.00">Details</text>
</a>
</g>
</g>
<!-- Node1&#45;&gt;Node2 -->
<g id="edge1" class="edge"><title>Node1&#45;&gt;Node2</title>
<path fill="none" stroke="midnightblue" d="M534.931,-14.5C527.221,-14.5 518.33,-14.5 509.094,-14.5"/>
<polygon fill="midnightblue" stroke="midnightblue" points="534.957,-18.0001 544.957,-14.5 534.957,-11.0001 534.957,-18.0001"/>
</g>
<!-- Node3 -->
<g id="node3" class="node"><title>Node3</title>
<g id="a_node3"><a xlink:href="classframe_1_1_frame_stack_uni.html#ad146fa8579a5f8a876c4688cc5a68520" target="_top" xlink:title="文字列表現を返す. *‍/">
<polygon fill="white" stroke="black" points="172.039,-5.5 172.039,-23.5 322.526,-23.5 322.526,-5.5 172.039,-5.5"/>
<text text-anchor="middle" x="247.283" y="-11.5" font-family="Helvetica,sans-Serif" font-size="10.00">frame.FrameStackUni.toString</text>
</a>
</g>
</g>
<!-- Node2&#45;&gt;Node3 -->
<g id="edge2" class="edge"><title>Node2&#45;&gt;Node3</title>
<path fill="none" stroke="midnightblue" d="M348.037,-14.5C339.603,-14.5 331.085,-14.5 322.767,-14.5"/>
<polygon fill="midnightblue" stroke="midnightblue" points="348.264,-18.0001 358.264,-14.5 348.264,-11.0001 348.264,-18.0001"/>
</g>
<!-- Node4 -->
<g id="node4" class="node"><title>Node4</title>
<g id="a_node4"><a xlink:href="classframe_1_1_frame_stack_uni.html#a123b91c8f1635d500e0192ab40268542" target="_top" xlink:title="トークナイザーの状態を報告するYAML書式文字列を返す.">
<polygon fill="white" stroke="black" points="0,-0.5 0,-28.5 136.039,-28.5 136.039,-0.5 0,-0.5"/>
<text text-anchor="start" x="8" y="-16.5" font-family="Helvetica,sans-Serif" font-size="10.00">frame.FrameStackUni.repo</text>
<text text-anchor="middle" x="68.0195" y="-6.5" font-family="Helvetica,sans-Serif" font-size="10.00">Stack</text>
</a>
</g>
</g>
<!-- Node3&#45;&gt;Node4 -->
<g id="edge3" class="edge"><title>Node3&#45;&gt;Node4</title>
<path fill="none" stroke="midnightblue" d="M161.822,-14.5C153.219,-14.5 144.563,-14.5 136.18,-14.5"/>
<polygon fill="midnightblue" stroke="midnightblue" points="161.878,-18.0001 171.878,-14.5 161.878,-11.0001 161.878,-18.0001"/>
</g>
</g>
</svg>
