<?xml version="1.0" encoding="UTF-8" standalone="no"?>
<!DOCTYPE svg PUBLIC "-//W3C//DTD SVG 1.1//EN"
 "http://www.w3.org/Graphics/SVG/1.1/DTD/svg11.dtd">
<!-- Generated by graphviz version 2.47.0 (20210316.0004)
 -->
<!-- Title: AstDataWriter.WriterString Pages: 1 -->
<svg width="900pt" height="439pt"
 viewBox="0.00 0.00 900.42 439.00" xmlns="http://www.w3.org/2000/svg" xmlns:xlink="http://www.w3.org/1999/xlink">
<g id="graph0" class="graph" transform="scale(1 1) rotate(0) translate(4 435)">
<title>AstDataWriter.WriterString</title>
<polygon fill="white" stroke="transparent" points="-4,4 -4,-435 896.42,-435 896.42,4 -4,4"/>
<!-- Node1 -->
<g id="node1" class="node">
<title>Node1</title>
<g id="a_node1"><a xlink:title="String型の値をもつ局所変数">
<polygon fill="#bfbfbf" stroke="black" points="315.5,-0.5 315.5,-19.5 446.5,-19.5 446.5,-0.5 315.5,-0.5"/>
<text text-anchor="middle" x="381" y="-7.5" font-family="Helvetica,sans-Serif" font-size="10.00">AstDataWriter.WriterString</text>
</a>
</g>
</g>
<!-- Node2 -->
<g id="node2" class="node">
<title>Node2</title>
<g id="a_node2"><a xlink:href="classast_1_1_ast_data_writer.html" target="_top" xlink:title="局所変数環境からの値を書き込むクラス">
<polygon fill="white" stroke="black" points="296,-57.5 296,-76.5 374,-76.5 374,-57.5 296,-57.5"/>
<text text-anchor="middle" x="335" y="-64.5" font-family="Helvetica,sans-Serif" font-size="10.00">AstDataWriter</text>
</a>
</g>
</g>
<!-- Node2&#45;&gt;Node1 -->
<g id="edge1" class="edge">
<title>Node2&#45;&gt;Node1</title>
<path fill="none" stroke="midnightblue" d="M348.77,-49.53C356.97,-39.74 367.03,-27.7 373.71,-19.71"/>
<polygon fill="midnightblue" stroke="midnightblue" points="345.92,-47.49 342.19,-57.41 351.29,-51.98 345.92,-47.49"/>
</g>
<!-- Node3 -->
<g id="node3" class="node">
<title>Node3</title>
<g id="a_node3"><a xlink:href="classast_1_1_ast_node.html" target="_top" xlink:title="タグなしの順アクセスの子供をもてる抽象構文木のノードのクラス。">
<polygon fill="white" stroke="black" points="353.5,-200.5 353.5,-219.5 408.5,-219.5 408.5,-200.5 353.5,-200.5"/>
<text text-anchor="middle" x="381" y="-207.5" font-family="Helvetica,sans-Serif" font-size="10.00">AstNode</text>
</a>
</g>
</g>
<!-- Node3&#45;&gt;Node2 -->
<g id="edge2" class="edge">
<title>Node3&#45;&gt;Node2</title>
<path fill="none" stroke="midnightblue" d="M372.76,-191.19C366.99,-178.28 359.39,-160.3 354,-144 346.06,-119.98 339.63,-90.75 336.7,-76.55"/>
<polygon fill="midnightblue" stroke="midnightblue" points="369.59,-192.67 376.91,-200.33 375.96,-189.77 369.59,-192.67"/>
</g>
<!-- Node19 -->
<g id="node19" class="node">
<title>Node19</title>
<g id="a_node19"><a xlink:href="classmachine_1_1_ref.html" target="_top" xlink:title="フレーム中の変数参照オブジェクトref = (XType type, int vid)">
<polygon fill="white" stroke="black" points="461,-124.5 461,-143.5 493,-143.5 493,-124.5 461,-124.5"/>
<text text-anchor="middle" x="477" y="-131.5" font-family="Helvetica,sans-Serif" font-size="10.00">Ref</text>
</a>
</g>
</g>
<!-- Node3&#45;&gt;Node19 -->
<g id="edge26" class="edge">
<title>Node3&#45;&gt;Node19</title>
<path fill="none" stroke="midnightblue" d="M400.39,-194.05C420.09,-178.86 449.92,-155.88 465.92,-143.54"/>
<polygon fill="midnightblue" stroke="midnightblue" points="398.17,-191.34 392.39,-200.22 402.45,-196.89 398.17,-191.34"/>
</g>
<!-- Node4 -->
<g id="node4" class="node">
<title>Node4</title>
<g id="a_node4"><a xlink:href="classast_1_1_ast_node_base.html" target="_top" xlink:title=" ">
<polygon fill="white" stroke="black" points="380.5,-267.5 380.5,-286.5 457.5,-286.5 457.5,-267.5 380.5,-267.5"/>
<text text-anchor="middle" x="419" y="-274.5" font-family="Helvetica,sans-Serif" font-size="10.00">AstNodeBase</text>
</a>
</g>
</g>
<!-- Node4&#45;&gt;Node3 -->
<g id="edge3" class="edge">
<title>Node4&#45;&gt;Node3</title>
<path fill="none" stroke="midnightblue" d="M408.79,-258.53C401.43,-245.95 391.82,-229.51 386.04,-219.63"/>
<polygon fill="midnightblue" stroke="midnightblue" points="405.81,-260.37 413.88,-267.23 411.85,-256.83 405.81,-260.37"/>
</g>
<!-- Node5 -->
<g id="node5" class="node">
<title>Node5</title>
<g id="a_node5"><a xlink:title=" ">
<polygon fill="white" stroke="#bfbfbf" points="533,-411.5 533,-430.5 575,-430.5 575,-411.5 533,-411.5"/>
<text text-anchor="middle" x="554" y="-418.5" font-family="Helvetica,sans-Serif" font-size="10.00">String</text>
</a>
</g>
</g>
<!-- Node5&#45;&gt;Node4 -->
<g id="edge4" class="edge">
<title>Node5&#45;&gt;Node4</title>
<path fill="none" stroke="#9a32cd" stroke-dasharray="5,2" d="M522.52,-420.06C475.67,-419.41 391.07,-415.1 372,-393 346.45,-363.38 352.41,-338.85 372,-305 376.81,-296.69 385.25,-290.72 393.66,-286.54"/>
<polygon fill="#9a32cd" stroke="#9a32cd" points="522.7,-423.56 532.73,-420.16 522.76,-416.56 522.7,-423.56"/>
<text text-anchor="middle" x="398" y="-352" font-family="Helvetica,sans-Serif" font-size="10.00"> MOD_AST</text>
<text text-anchor="middle" x="398" y="-341" font-family="Helvetica,sans-Serif" font-size="10.00">mod_</text>
</g>
<!-- Node16 -->
<g id="node16" class="node">
<title>Node16</title>
<g id="a_node16"><a xlink:href="classformat_1_1_style.html" target="_top" xlink:title="ノードの表示スタイルに関するプロパティのクラス.">
<polygon fill="white" stroke="black" points="668.5,-267.5 668.5,-286.5 707.5,-286.5 707.5,-267.5 668.5,-267.5"/>
<text text-anchor="middle" x="688" y="-274.5" font-family="Helvetica,sans-Serif" font-size="10.00">Style</text>
</a>
</g>
</g>
<!-- Node5&#45;&gt;Node16 -->
<g id="edge18" class="edge">
<title>Node5&#45;&gt;Node16</title>
<path fill="none" stroke="#9a32cd" stroke-dasharray="5,2" d="M585.59,-416.23C614.72,-412.09 655.06,-404.47 666,-393 673.4,-385.24 683.55,-312.15 686.89,-286.69"/>
<polygon fill="#9a32cd" stroke="#9a32cd" points="584.88,-412.79 575.44,-417.6 585.81,-419.73 584.88,-412.79"/>
<text text-anchor="middle" x="710" y="-385" font-family="Helvetica,sans-Serif" font-size="10.00"> childLPAD</text>
<text text-anchor="middle" x="710" y="-374" font-family="Helvetica,sans-Serif" font-size="10.00">childRPAD</text>
<text text-anchor="middle" x="710" y="-363" font-family="Helvetica,sans-Serif" font-size="10.00">name</text>
<text text-anchor="middle" x="710" y="-352" font-family="Helvetica,sans-Serif" font-size="10.00">operSTR</text>
<text text-anchor="middle" x="710" y="-341" font-family="Helvetica,sans-Serif" font-size="10.00">parenLPAD</text>
<text text-anchor="middle" x="710" y="-330" font-family="Helvetica,sans-Serif" font-size="10.00">parenLPAR</text>
<text text-anchor="middle" x="710" y="-319" font-family="Helvetica,sans-Serif" font-size="10.00">parenRPAD</text>
<text text-anchor="middle" x="710" y="-308" font-family="Helvetica,sans-Serif" font-size="10.00">parenRPAR</text>
</g>
<!-- Node6 -->
<g id="node6" class="node">
<title>Node6</title>
<g id="a_node6"><a xlink:title=" ">
<polygon fill="white" stroke="#bfbfbf" points="314.5,-411.5 314.5,-430.5 379.5,-430.5 379.5,-411.5 314.5,-411.5"/>
<text text-anchor="middle" x="347" y="-418.5" font-family="Helvetica,sans-Serif" font-size="10.00">TraceLevel</text>
</a>
</g>
</g>
<!-- Node6&#45;&gt;Node4 -->
<g id="edge5" class="edge">
<title>Node6&#45;&gt;Node4</title>
<path fill="none" stroke="#9a32cd" stroke-dasharray="5,2" d="M330.6,-403.33C328.31,-400.13 326.29,-396.63 325,-393 311.89,-356.15 301.47,-336.24 325,-305 328.6,-300.22 356.75,-292.51 381.32,-286.56"/>
<polygon fill="#9a32cd" stroke="#9a32cd" points="327.93,-405.6 337.03,-411.02 333.3,-401.11 327.93,-405.6"/>
<text text-anchor="middle" x="337" y="-346.5" font-family="Helvetica,sans-Serif" font-size="10.00"> LOG</text>
</g>
<!-- Node7 -->
<g id="node7" class="node">
<title>Node7</title>
<g id="a_node7"><a xlink:title=" ">
<polygon fill="white" stroke="#bfbfbf" points="154.5,-411.5 154.5,-430.5 227.5,-430.5 227.5,-411.5 154.5,-411.5"/>
<text text-anchor="middle" x="191" y="-418.5" font-family="Helvetica,sans-Serif" font-size="10.00">static Report</text>
</a>
</g>
</g>
<!-- Node7&#45;&gt;Node4 -->
<g id="edge6" class="edge">
<title>Node7&#45;&gt;Node4</title>
<path fill="none" stroke="#9a32cd" stroke-dasharray="5,2" d="M192.42,-401.3C195.47,-375.27 205.04,-328.66 235,-305 258.92,-286.11 340.9,-291.81 371,-287 374.01,-286.52 377.13,-285.99 380.26,-285.45"/>
<polygon fill="#9a32cd" stroke="#9a32cd" points="188.92,-401.07 191.45,-411.36 195.89,-401.74 188.92,-401.07"/>
<text text-anchor="middle" x="246" y="-346.5" font-family="Helvetica,sans-Serif" font-size="10.00"> repo</text>
</g>
<!-- Node8 -->
<g id="node8" class="node">
<title>Node8</title>
<g id="a_node8"><a xlink:title=" ">
<polygon fill="white" stroke="#bfbfbf" points="843.5,-411.5 843.5,-430.5 872.5,-430.5 872.5,-411.5 843.5,-411.5"/>
<text text-anchor="middle" x="858" y="-418.5" font-family="Helvetica,sans-Serif" font-size="10.00">int</text>
</a>
</g>
</g>
<!-- Node8&#45;&gt;Node4 -->
<g id="edge7" class="edge">
<title>Node8&#45;&gt;Node4</title>
<path fill="none" stroke="#9a32cd" stroke-dasharray="5,2" d="M833.32,-416.25C820.94,-414.47 805.7,-412.42 792,-411 763.97,-408.09 560.29,-411.47 539,-393 508.78,-366.78 547.6,-333.97 520,-305 504.04,-288.24 478.92,-281.48 457.73,-278.91"/>
<polygon fill="#9a32cd" stroke="#9a32cd" points="832.95,-419.73 843.35,-417.73 833.97,-412.81 832.95,-419.73"/>
<text text-anchor="middle" x="600.5" y="-352" font-family="Helvetica,sans-Serif" font-size="10.00"> BITMASK_PRINT_WIDTH</text>
<text text-anchor="middle" x="600.5" y="-341" font-family="Helvetica,sans-Serif" font-size="10.00">UNDEF</text>
</g>
<!-- Node8&#45;&gt;Node16 -->
<g id="edge19" class="edge">
<title>Node8&#45;&gt;Node16</title>
<path fill="none" stroke="#9a32cd" stroke-dasharray="5,2" d="M856.97,-401.14C854.98,-372 849.52,-318 836,-305 816.72,-286.46 743.07,-292.98 717,-287 713.92,-286.29 710.69,-285.42 707.55,-284.5"/>
<polygon fill="#9a32cd" stroke="#9a32cd" points="853.49,-401.52 857.6,-411.28 860.48,-401.09 853.49,-401.52"/>
<text text-anchor="middle" x="866" y="-346.5" font-family="Helvetica,sans-Serif" font-size="10.00"> pref</text>
</g>
<!-- Node8&#45;&gt;Node19 -->
<g id="edge28" class="edge">
<title>Node8&#45;&gt;Node19</title>
<path fill="none" stroke="#9a32cd" stroke-dasharray="5,2" d="M873.44,-403.57C875.72,-400.28 877.73,-396.7 879,-393 891.69,-356.01 900.61,-337.6 879,-305 786.89,-166.05 556.21,-140.37 493.15,-135.9"/>
<polygon fill="#9a32cd" stroke="#9a32cd" points="870.66,-401.45 867.09,-411.42 876.1,-405.85 870.66,-401.45"/>
<text text-anchor="middle" x="843.5" y="-241" font-family="Helvetica,sans-Serif" font-size="10.00"> UNDEF</text>
</g>
<!-- Node9 -->
<g id="node9" class="node">
<title>Node9</title>
<g id="a_node9"><a xlink:href="interfacetype_1_1_typable.html" target="_top" xlink:title="抽象ノードがもつ関数型のインタフェース">
<polygon fill="white" stroke="black" points="246,-411.5 246,-430.5 296,-430.5 296,-411.5 246,-411.5"/>
<text text-anchor="middle" x="271" y="-418.5" font-family="Helvetica,sans-Serif" font-size="10.00">Typable</text>
</a>
</g>
</g>
<!-- Node9&#45;&gt;Node4 -->
<g id="edge8" class="edge">
<title>Node9&#45;&gt;Node4</title>
<path fill="none" stroke="#9a32cd" stroke-dasharray="5,2" d="M265.79,-401.82C259.82,-376.79 253.64,-331.77 277,-305 277.22,-304.75 338.3,-293.2 380.27,-285.29"/>
<polygon fill="#9a32cd" stroke="#9a32cd" points="262.4,-402.71 268.32,-411.5 269.17,-400.94 262.4,-402.71"/>
<text text-anchor="middle" x="292" y="-346.5" font-family="Helvetica,sans-Serif" font-size="10.00"> typing</text>
</g>
<!-- Node10 -->
<g id="node10" class="node">
<title>Node10</title>
<g id="a_node10"><a xlink:title=" ">
<polygon fill="white" stroke="#bfbfbf" points="733,-411.5 733,-430.5 783,-430.5 783,-411.5 733,-411.5"/>
<text text-anchor="middle" x="758" y="-418.5" font-family="Helvetica,sans-Serif" font-size="10.00">boolean</text>
</a>
</g>
</g>
<!-- Node10&#45;&gt;Node4 -->
<g id="edge9" class="edge">
<title>Node10&#45;&gt;Node4</title>
<path fill="none" stroke="#9a32cd" stroke-dasharray="5,2" d="M722.79,-418.04C643.56,-413.48 457.34,-401.88 447,-393 442.87,-389.45 426.38,-312.91 420.83,-286.71"/>
<polygon fill="#9a32cd" stroke="#9a32cd" points="722.6,-421.53 732.79,-418.61 723,-414.55 722.6,-421.53"/>
<text text-anchor="middle" x="483.5" y="-346.5" font-family="Helvetica,sans-Serif" font-size="10.00"> DEBUG_REPO</text>
</g>
<!-- Node10&#45;&gt;Node16 -->
<g id="edge20" class="edge">
<title>Node10&#45;&gt;Node16</title>
<path fill="none" stroke="#9a32cd" stroke-dasharray="5,2" d="M760.18,-401.1C761.99,-376.58 761.54,-333.58 741,-305 736.72,-299.05 720.88,-291.39 707.62,-285.75"/>
<polygon fill="#9a32cd" stroke="#9a32cd" points="756.68,-400.94 759.23,-411.23 763.65,-401.6 756.68,-400.94"/>
<text text-anchor="middle" x="796" y="-352" font-family="Helvetica,sans-Serif" font-size="10.00"> preoperSupress</text>
<text text-anchor="middle" x="796" y="-341" font-family="Helvetica,sans-Serif" font-size="10.00">toInline</text>
</g>
<!-- Node11 -->
<g id="node11" class="node">
<title>Node11</title>
<g id="a_node11"><a xlink:href="interfaceast_1_1_node.html" target="_top" xlink:title=" ">
<polygon fill="white" stroke="black" points="0,-267.5 0,-286.5 40,-286.5 40,-267.5 0,-267.5"/>
<text text-anchor="middle" x="20" y="-274.5" font-family="Helvetica,sans-Serif" font-size="10.00">Node</text>
</a>
</g>
</g>
<!-- Node11&#45;&gt;Node3 -->
<g id="edge10" class="edge">
<title>Node11&#45;&gt;Node3</title>
<path fill="none" stroke="midnightblue" d="M50.08,-267.01C167.79,-239.42 297.42,-221.52 353.2,-214.41"/>
<polygon fill="midnightblue" stroke="midnightblue" points="49.11,-263.64 40.19,-269.36 50.72,-270.45 49.11,-263.64"/>
</g>
<!-- Node17 -->
<g id="node17" class="node">
<title>Node17</title>
<g id="a_node17"><a xlink:href="interfaceast_1_1_node_1_1_node_unary.html" target="_top" xlink:title="子供を一つだけもつノードのインタフェース">
<polygon fill="white" stroke="black" points="91,-162.5 91,-181.5 183,-181.5 183,-162.5 91,-162.5"/>
<text text-anchor="middle" x="137" y="-169.5" font-family="Helvetica,sans-Serif" font-size="10.00">Node.NodeUnary</text>
</a>
</g>
</g>
<!-- Node11&#45;&gt;Node17 -->
<g id="edge23" class="edge">
<title>Node11&#45;&gt;Node17</title>
<path fill="none" stroke="midnightblue" d="M37.6,-260.51C62.51,-238.58 107.21,-199.22 127.05,-181.76"/>
<polygon fill="midnightblue" stroke="midnightblue" points="35.17,-257.98 29.98,-267.22 39.79,-263.24 35.17,-257.98"/>
</g>
<!-- Node12 -->
<g id="node12" class="node">
<title>Node12</title>
<g id="a_node12"><a xlink:href="interfaceformat_1_1_x_formattable.html" target="_top" xlink:title="入れ子フォーマット出力可能なオブジェクトのインタフェース。">
<polygon fill="white" stroke="black" points="61.5,-411.5 61.5,-430.5 136.5,-430.5 136.5,-411.5 61.5,-411.5"/>
<text text-anchor="middle" x="99" y="-418.5" font-family="Helvetica,sans-Serif" font-size="10.00">XFormattable</text>
</a>
</g>
</g>
<!-- Node12&#45;&gt;Node11 -->
<g id="edge11" class="edge">
<title>Node12&#45;&gt;Node11</title>
<path fill="none" stroke="midnightblue" d="M89.17,-402.32C72.04,-371.54 37.37,-309.22 24.74,-286.52"/>
<polygon fill="midnightblue" stroke="midnightblue" points="86.14,-404.08 94.06,-411.12 92.26,-400.68 86.14,-404.08"/>
</g>
<!-- Node13 -->
<g id="node13" class="node">
<title>Node13</title>
<g id="a_node13"><a xlink:href="interfaceformat_1_1_x_formattable_1_1_navigatable.html" target="_top" xlink:title="木構造の分岐ノードとして清書可能なオブジェクトのクラス">
<polygon fill="white" stroke="black" points="232,-267.5 232,-286.5 362,-286.5 362,-267.5 232,-267.5"/>
<text text-anchor="middle" x="297" y="-274.5" font-family="Helvetica,sans-Serif" font-size="10.00">XFormattable.Navigatable</text>
</a>
</g>
</g>
<!-- Node12&#45;&gt;Node13 -->
<g id="edge13" class="edge">
<title>Node12&#45;&gt;Node13</title>
<path fill="none" stroke="midnightblue" d="M120.29,-405.17C124.54,-401.53 128.71,-397.41 132,-393 157.39,-359.01 136.29,-332.02 169,-305 178.98,-296.76 205.46,-290.5 231.75,-286.1"/>
<polygon fill="midnightblue" stroke="midnightblue" points="117.93,-402.57 112.22,-411.5 122.25,-408.08 117.93,-402.57"/>
</g>
<!-- Node14 -->
<g id="node14" class="node">
<title>Node14</title>
<g id="a_node14"><a xlink:href="interfaceformat_1_1_x_formattable_1_1_typed_formattable.html" target="_top" xlink:title="ノードの型情報をもつ書式出力可能なオブジェクトのインタフェース．">
<polygon fill="white" stroke="black" points="58,-267.5 58,-286.5 214,-286.5 214,-267.5 58,-267.5"/>
<text text-anchor="middle" x="136" y="-274.5" font-family="Helvetica,sans-Serif" font-size="10.00">XFormattable.TypedFormattable</text>
</a>
</g>
</g>
<!-- Node12&#45;&gt;Node14 -->
<g id="edge15" class="edge">
<title>Node12&#45;&gt;Node14</title>
<path fill="none" stroke="midnightblue" d="M103.92,-401.11C112.05,-369.93 127.94,-308.93 133.78,-286.52"/>
<polygon fill="midnightblue" stroke="midnightblue" points="100.45,-400.56 101.31,-411.12 107.22,-402.32 100.45,-400.56"/>
</g>
<!-- Node13&#45;&gt;Node2 -->
<g id="edge21" class="edge">
<title>Node13&#45;&gt;Node2</title>
<path fill="none" stroke="midnightblue" d="M300.42,-257.3C308.34,-213.93 327.72,-107.82 333.41,-76.71"/>
<polygon fill="midnightblue" stroke="midnightblue" points="296.94,-256.86 298.58,-267.33 303.82,-258.12 296.94,-256.86"/>
</g>
<!-- Node13&#45;&gt;Node3 -->
<g id="edge12" class="edge">
<title>Node13&#45;&gt;Node3</title>
<path fill="none" stroke="midnightblue" d="M316.3,-261.07C332.88,-248.24 356.21,-230.19 369.85,-219.63"/>
<polygon fill="midnightblue" stroke="midnightblue" points="314.1,-258.35 308.33,-267.23 318.38,-263.88 314.1,-258.35"/>
</g>
<!-- Node14&#45;&gt;Node3 -->
<g id="edge14" class="edge">
<title>Node14&#45;&gt;Node3</title>
<path fill="none" stroke="midnightblue" d="M178.16,-264.82C228.26,-251.52 310.44,-229.72 353.19,-218.38"/>
<polygon fill="midnightblue" stroke="midnightblue" points="177.05,-261.49 168.28,-267.44 178.84,-268.25 177.05,-261.49"/>
</g>
<!-- Node15 -->
<g id="node15" class="node">
<title>Node15</title>
<g id="a_node15"><a xlink:title=" ">
<polygon fill="white" stroke="#bfbfbf" points="726,-267.5 726,-286.5 778,-286.5 778,-267.5 726,-267.5"/>
<text text-anchor="middle" x="752" y="-274.5" font-family="Helvetica,sans-Serif" font-size="10.00">Boolean</text>
</a>
</g>
</g>
<!-- Node15&#45;&gt;Node3 -->
<g id="edge16" class="edge">
<title>Node15&#45;&gt;Node3</title>
<path fill="none" stroke="#9a32cd" stroke-dasharray="5,2" d="M715.86,-266.81C651.76,-252.06 634.38,-248.2 573,-238 512.42,-227.93 496.76,-228.96 436,-220 427.1,-218.69 417.41,-217.14 408.67,-215.7"/>
<polygon fill="#9a32cd" stroke="#9a32cd" points="715.13,-270.24 725.66,-269.07 716.7,-263.41 715.13,-270.24"/>
<text text-anchor="middle" x="671" y="-241" font-family="Helvetica,sans-Serif" font-size="10.00"> DEBUG_CHILD</text>
</g>
<!-- Node16&#45;&gt;Node3 -->
<g id="edge17" class="edge">
<title>Node16&#45;&gt;Node3</title>
<path fill="none" stroke="#9a32cd" stroke-dasharray="5,2" d="M658.47,-269.75C599.17,-257.19 466.33,-229.07 408.63,-216.85"/>
<polygon fill="#9a32cd" stroke="#9a32cd" points="657.82,-273.19 668.33,-271.84 659.27,-266.34 657.82,-273.19"/>
<text text-anchor="middle" x="560.5" y="-241" font-family="Helvetica,sans-Serif" font-size="10.00"> sty</text>
</g>
<!-- Node17&#45;&gt;Node2 -->
<g id="edge22" class="edge">
<title>Node17&#45;&gt;Node2</title>
<path fill="none" stroke="midnightblue" d="M162.73,-157.6C191.89,-142.41 240.86,-116.91 283,-95 294.91,-88.81 308.37,-81.82 318.6,-76.51"/>
<polygon fill="midnightblue" stroke="midnightblue" points="160.89,-154.61 153.64,-162.33 164.12,-160.82 160.89,-154.61"/>
</g>
<!-- Node18 -->
<g id="node18" class="node">
<title>Node18</title>
<g id="a_node18"><a xlink:href="interfacemachine_1_1_data_accessor.html" target="_top" xlink:title="参照をもつデータ読み書きオブジェクトのインタフェース.">
<polygon fill="white" stroke="black" points="363.5,-124.5 363.5,-143.5 442.5,-143.5 442.5,-124.5 363.5,-124.5"/>
<text text-anchor="middle" x="403" y="-131.5" font-family="Helvetica,sans-Serif" font-size="10.00">DataAccessor</text>
</a>
</g>
</g>
<!-- Node18&#45;&gt;Node2 -->
<g id="edge24" class="edge">
<title>Node18&#45;&gt;Node2</title>
<path fill="none" stroke="midnightblue" d="M386.26,-117C372.92,-104.25 354.77,-86.89 344.03,-76.63"/>
<polygon fill="midnightblue" stroke="midnightblue" points="384.18,-119.85 393.83,-124.23 389.02,-114.79 384.18,-119.85"/>
</g>
<!-- Node19&#45;&gt;Node2 -->
<g id="edge25" class="edge">
<title>Node19&#45;&gt;Node2</title>
<path fill="none" stroke="#9a32cd" stroke-dasharray="5,2" d="M451.82,-121.47C423.77,-108.64 379.07,-88.17 353.88,-76.64"/>
<polygon fill="#9a32cd" stroke="#9a32cd" points="450.44,-124.69 460.99,-125.67 453.35,-118.33 450.44,-124.69"/>
<text text-anchor="middle" x="421.5" y="-98" font-family="Helvetica,sans-Serif" font-size="10.00"> ref</text>
</g>
<!-- Node20 -->
<g id="node20" class="node">
<title>Node20</title>
<g id="a_node20"><a xlink:href="interfacemachine_1_1_assignable.html" target="_top" xlink:title="変数（チャネルとコンテナの名前）の抽象化">
<polygon fill="white" stroke="black" points="444.5,-200.5 444.5,-219.5 509.5,-219.5 509.5,-200.5 444.5,-200.5"/>
<text text-anchor="middle" x="477" y="-207.5" font-family="Helvetica,sans-Serif" font-size="10.00">Assignable</text>
</a>
</g>
</g>
<!-- Node20&#45;&gt;Node19 -->
<g id="edge27" class="edge">
<title>Node20&#45;&gt;Node19</title>
<path fill="none" stroke="midnightblue" d="M477,-190.07C477,-175.18 477,-155.11 477,-143.77"/>
<polygon fill="midnightblue" stroke="midnightblue" points="473.5,-190.22 477,-200.22 480.5,-190.22 473.5,-190.22"/>
</g>
<!-- Node21 -->
<g id="node21" class="node">
<title>Node21</title>
<g id="a_node21"><a xlink:href="interfacecmd_1_1_generatable.html" target="_top" xlink:title="変換してコードを生成できるノードのインタフェース.">
<polygon fill="white" stroke="black" points="392.5,-57.5 392.5,-76.5 461.5,-76.5 461.5,-57.5 392.5,-57.5"/>
<text text-anchor="middle" x="427" y="-64.5" font-family="Helvetica,sans-Serif" font-size="10.00">Generatable</text>
</a>
</g>
</g>
<!-- Node21&#45;&gt;Node1 -->
<g id="edge29" class="edge">
<title>Node21&#45;&gt;Node1</title>
<path fill="none" stroke="midnightblue" d="M413.23,-49.53C405.03,-39.74 394.97,-27.7 388.29,-19.71"/>
<polygon fill="midnightblue" stroke="midnightblue" points="410.71,-51.98 419.81,-57.41 416.08,-47.49 410.71,-51.98"/>
</g>
</g>
</svg>
