<?xml version="1.0" encoding="UTF-8" standalone="no"?>
<!DOCTYPE svg PUBLIC "-//W3C//DTD SVG 1.1//EN"
 "http://www.w3.org/Graphics/SVG/1.1/DTD/svg11.dtd">
<!-- Generated by graphviz version 2.38.0 (20140413.2041)
 -->
<!-- Title: nl Pages: 1 -->
<svg width="931pt" height="480pt"
 viewBox="0.00 0.00 931.48 480.00" xmlns="http://www.w3.org/2000/svg" xmlns:xlink="http://www.w3.org/1999/xlink">
<g id="graph0" class="graph" transform="scale(1 1) rotate(0) translate(4 476)">
<title>nl</title>
<polygon fill="white" stroke="none" points="-4,4 -4,-476 927.478,-476 927.478,4 -4,4"/>
<!-- Node1 -->
<g id="node1" class="node"><title>Node1</title>
<g id="a_node1"><a xlink:title="改行を出力する.">
<polygon fill="#bfbfbf" stroke="black" points="894.478,-188.5 894.478,-206.5 923.478,-206.5 923.478,-188.5 894.478,-188.5"/>
<text text-anchor="middle" x="908.978" y="-194.5" font-family="Helvetica,sans-Serif" font-size="10.00">nl</text>
</a>
</g>
</g>
<!-- Node2 -->
<g id="node2" class="node"><title>Node2</title>
<g id="a_node2"><a xlink:href="classutil_1_1_yaml_buf.html#a8663c31f082a838793228ce664adf114" target="_top" xlink:title="配列モードで、文字列valueを正しい段下げでバッファに追加する。">
<polygon fill="white" stroke="black" points="567.873,-453.5 567.873,-471.5 683.755,-471.5 683.755,-453.5 567.873,-453.5"/>
<text text-anchor="middle" x="625.814" y="-459.5" font-family="Helvetica,sans-Serif" font-size="10.00">util.YamlBuf.addIndent</text>
</a>
</g>
</g>
<!-- Node1&#45;&gt;Node2 -->
<g id="edge1" class="edge"><title>Node1&#45;&gt;Node2</title>
<path fill="none" stroke="midnightblue" d="M907.453,-216.605C905.531,-250.992 896.864,-323.87 858.478,-368.5 831.448,-399.926 715.795,-436.784 658.807,-453.475"/>
<polygon fill="midnightblue" stroke="midnightblue" points="910.954,-216.655 907.88,-206.516 903.961,-216.359 910.954,-216.655"/>
</g>
<!-- Node5 -->
<g id="node5" class="node"><title>Node5</title>
<g id="a_node5"><a xlink:href="classutil_1_1_yaml_buf.html#aa2dbf5580c67426222a69dd024b3789c" target="_top" xlink:title="配列のモードを終了する.">
<polygon fill="white" stroke="black" points="566.498,-217.5 566.498,-235.5 685.13,-235.5 685.13,-217.5 566.498,-217.5"/>
<text text-anchor="middle" x="625.814" y="-223.5" font-family="Helvetica,sans-Serif" font-size="10.00">util.YamlBuf.closeArray</text>
</a>
</g>
</g>
<!-- Node1&#45;&gt;Node5 -->
<g id="edge4" class="edge"><title>Node1&#45;&gt;Node5</title>
<path fill="none" stroke="midnightblue" d="M884.243,-202.884C876.109,-204.572 866.928,-206.304 858.478,-207.5 799.942,-215.784 732.535,-220.809 685.58,-223.592"/>
<polygon fill="midnightblue" stroke="midnightblue" points="885.147,-206.27 894.184,-200.74 883.671,-199.427 885.147,-206.27"/>
</g>
<!-- Node11 -->
<g id="node11" class="node"><title>Node11</title>
<g id="a_node11"><a xlink:href="classutil_1_1_yaml_buf.html#a74d796e1e4a0dfe981f1cd331ca2a8ad" target="_top" xlink:title="オブジェクトのモードを終了する.">
<polygon fill="white" stroke="black" points="745.395,-283.5 745.395,-301.5 855.697,-301.5 855.697,-283.5 745.395,-283.5"/>
<text text-anchor="middle" x="800.546" y="-289.5" font-family="Helvetica,sans-Serif" font-size="10.00">util.YamlBuf.closeObj</text>
</a>
</g>
</g>
<!-- Node1&#45;&gt;Node11 -->
<g id="edge11" class="edge"><title>Node1&#45;&gt;Node11</title>
<path fill="none" stroke="midnightblue" d="M893.15,-214.439C883.64,-224.949 870.807,-238.501 858.478,-249.5 844.428,-262.034 826.992,-274.843 815.144,-283.182"/>
<polygon fill="midnightblue" stroke="midnightblue" points="895.947,-216.561 899.99,-206.768 890.723,-211.902 895.947,-216.561"/>
</g>
<!-- Node14 -->
<g id="node14" class="node"><title>Node14</title>
<g id="a_node14"><a xlink:href="classutil_1_1_foldable_string_buf.html#ad8c09f96206ccb28fc5e37e0e47eb22d" target="_top" xlink:title="入れ子文字列を、正しく段下げしながら読み込む。">
<polygon fill="white" stroke="black" points="770.312,-150.5 770.312,-168.5 830.78,-168.5 830.78,-150.5 770.312,-150.5"/>
<text text-anchor="middle" x="800.546" y="-156.5" font-family="Helvetica,sans-Serif" font-size="10.00">includeStr</text>
</a>
</g>
</g>
<!-- Node1&#45;&gt;Node14 -->
<g id="edge17" class="edge"><title>Node1&#45;&gt;Node14</title>
<path fill="none" stroke="midnightblue" d="M884.318,-189.053C867.272,-182.967 844.301,-174.765 826.883,-168.546"/>
<polygon fill="midnightblue" stroke="midnightblue" points="883.469,-192.466 894.063,-192.532 885.823,-185.873 883.469,-192.466"/>
</g>
<!-- Node17 -->
<g id="node17" class="node"><title>Node17</title>
<g id="a_node17"><a xlink:href="classutil_1_1_yaml_buf.html#a50f6097b032e431f7d3340bdd3768d9f" target="_top" xlink:title="入れ子文字列を、正しく段下げしながら読み込む。">
<polygon fill="white" stroke="black" points="742.614,-444.5 742.614,-462.5 858.478,-462.5 858.478,-444.5 742.614,-444.5"/>
<text text-anchor="middle" x="800.546" y="-450.5" font-family="Helvetica,sans-Serif" font-size="10.00">util.YamlBuf.includeStr</text>
</a>
</g>
</g>
<!-- Node1&#45;&gt;Node17 -->
<g id="edge20" class="edge"><title>Node1&#45;&gt;Node17</title>
<path fill="none" stroke="midnightblue" d="M908.56,-216.81C908.84,-258.058 904.265,-356.158 858.478,-419.5 850.384,-430.696 837.369,-438.866 825.825,-444.388"/>
<polygon fill="midnightblue" stroke="midnightblue" points="912.055,-216.488 908.376,-206.552 905.056,-216.613 912.055,-216.488"/>
</g>
<!-- Node18 -->
<g id="node18" class="node"><title>Node18</title>
<g id="a_node18"><a xlink:href="classutil_1_1_foldable_string_buf.html#ac0544cb00ffba355dfe72d6a4044e78c" target="_top" xlink:title="新しい行として、文字列を出力する.">
<polygon fill="white" stroke="black" points="784.763,-113.5 784.763,-131.5 816.329,-131.5 816.329,-113.5 784.763,-113.5"/>
<text text-anchor="middle" x="800.546" y="-119.5" font-family="Helvetica,sans-Serif" font-size="10.00">line</text>
</a>
</g>
</g>
<!-- Node1&#45;&gt;Node18 -->
<g id="edge22" class="edge"><title>Node1&#45;&gt;Node18</title>
<path fill="none" stroke="midnightblue" d="M896.078,-179.666C887.059,-167.389 873.655,-151.542 858.478,-141.5 845.616,-132.99 828.598,-127.97 816.527,-125.248"/>
<polygon fill="midnightblue" stroke="midnightblue" points="893.464,-182.034 902.077,-188.204 899.191,-178.009 893.464,-182.034"/>
</g>
<!-- Node19 -->
<g id="node19" class="node"><title>Node19</title>
<g id="a_node19"><a xlink:href="classutil_1_1_yaml_buf.html#abb9a0f5723e48d12790f370d16ec068a" target="_top" xlink:title="改行">
<polygon fill="white" stroke="black" points="760.957,-76.5 760.957,-94.5 840.135,-94.5 840.135,-76.5 760.957,-76.5"/>
<text text-anchor="middle" x="800.546" y="-82.5" font-family="Helvetica,sans-Serif" font-size="10.00">util.YamlBuf.nl</text>
</a>
</g>
</g>
<!-- Node1&#45;&gt;Node19 -->
<g id="edge23" class="edge"><title>Node1&#45;&gt;Node19</title>
<path fill="none" stroke="midnightblue" d="M902.635,-178.71C895.745,-157.752 881.789,-124.211 858.478,-104.5 853.226,-100.06 846.898,-96.646 840.398,-94.0248"/>
<polygon fill="midnightblue" stroke="midnightblue" points="899.324,-179.852 905.606,-188.383 906.016,-177.796 899.324,-179.852"/>
</g>
<!-- Node20 -->
<g id="node20" class="node"><title>Node20</title>
<g id="a_node20"><a xlink:href="classutil_1_1_yaml_buf.html#a4048c4dbacc178a6483bd8b894b78f18" target="_top" xlink:title="文字列{value}をバッファに追加する.">
<polygon fill="white" stroke="black" points="558.434,-52.5 558.434,-70.5 693.194,-70.5 693.194,-52.5 558.434,-52.5"/>
<text text-anchor="middle" x="625.814" y="-58.5" font-family="Helvetica,sans-Serif" font-size="10.00">util.YamlBuf.toObjectString</text>
</a>
</g>
</g>
<!-- Node1&#45;&gt;Node20 -->
<g id="edge36" class="edge"><title>Node1&#45;&gt;Node20</title>
<path fill="none" stroke="midnightblue" d="M907.085,-178.19C904.555,-148.475 894.927,-92.2777 858.478,-66.5 797.878,-23.6437 704.298,-39.9637 656.752,-52.423"/>
<polygon fill="midnightblue" stroke="midnightblue" points="903.614,-178.742 907.764,-188.49 910.599,-178.282 903.614,-178.742"/>
</g>
<!-- Node21 -->
<g id="node21" class="node"><title>Node21</title>
<g id="a_node21"><a xlink:href="classutil_1_1_foldable_string_buf.html#a23199bc8ccfa76c48cf9213752b46476" target="_top" xlink:title="フラグtoFoldが真ならば改行し、そうでなければ空白を出力する.">
<polygon fill="white" stroke="black" points="786.046,-0.5 786.046,-18.5 815.046,-18.5 815.046,-0.5 786.046,-0.5"/>
<text text-anchor="middle" x="800.546" y="-6.5" font-family="Helvetica,sans-Serif" font-size="10.00">nl</text>
</a>
</g>
</g>
<!-- Node1&#45;&gt;Node21 -->
<g id="edge25" class="edge"><title>Node1&#45;&gt;Node21</title>
<path fill="none" stroke="midnightblue" d="M907.296,-178.132C905.109,-144.579 896.016,-75.2369 858.478,-33.5 847.144,-20.8993 828.114,-14.7105 815.205,-11.8188"/>
<polygon fill="midnightblue" stroke="midnightblue" points="903.815,-178.594 907.817,-188.404 910.806,-178.24 903.815,-178.594"/>
</g>
<!-- Node22 -->
<g id="node22" class="node"><title>Node22</title>
<g id="a_node22"><a xlink:href="classutil_1_1_yaml_buf.html#a0cdc3f00b2d8dc03acf755b2e205bd55" target="_top" xlink:title="配列のモードを開始する.">
<polygon fill="white" stroke="black" points="567.047,-180.5 567.047,-198.5 684.581,-198.5 684.581,-180.5 567.047,-180.5"/>
<text text-anchor="middle" x="625.814" y="-186.5" font-family="Helvetica,sans-Serif" font-size="10.00">util.YamlBuf.openArray</text>
</a>
</g>
</g>
<!-- Node1&#45;&gt;Node22 -->
<g id="edge26" class="edge"><title>Node1&#45;&gt;Node22</title>
<path fill="none" stroke="midnightblue" d="M884.211,-196.824C840.524,-195.581 746.307,-192.9 684.792,-191.15"/>
<polygon fill="midnightblue" stroke="midnightblue" points="884.321,-200.328 894.416,-197.114 884.52,-193.331 884.321,-200.328"/>
</g>
<!-- Node23 -->
<g id="node23" class="node"><title>Node23</title>
<g id="a_node23"><a xlink:href="classutil_1_1_yaml_buf.html#a0ac66c68634f271c4e64c2fac7c39ae5" target="_top" xlink:title="オブジェクトのモードを開始する.">
<polygon fill="white" stroke="black" points="745.944,-340.5 745.944,-358.5 855.147,-358.5 855.147,-340.5 745.944,-340.5"/>
<text text-anchor="middle" x="800.546" y="-346.5" font-family="Helvetica,sans-Serif" font-size="10.00">util.YamlBuf.openObj</text>
</a>
</g>
</g>
<!-- Node1&#45;&gt;Node23 -->
<g id="edge31" class="edge"><title>Node1&#45;&gt;Node23</title>
<path fill="none" stroke="midnightblue" d="M903.339,-216.462C896.673,-240.65 882.469,-282.78 858.478,-311.5 848.116,-323.903 832.696,-333.853 820.517,-340.455"/>
<polygon fill="midnightblue" stroke="midnightblue" points="906.742,-217.284 905.879,-206.724 899.968,-215.517 906.742,-217.284"/>
</g>
<!-- Node3 -->
<g id="node3" class="node"><title>Node3</title>
<g id="a_node3"><a xlink:href="classframe_1_1_frame_stack_uni.html#ad146fa8579a5f8a876c4688cc5a68520" target="_top" xlink:title="文字列表現を返す. *‍/">
<polygon fill="white" stroke="black" points="172.039,-360.5 172.039,-378.5 322.526,-378.5 322.526,-360.5 172.039,-360.5"/>
<text text-anchor="middle" x="247.283" y="-366.5" font-family="Helvetica,sans-Serif" font-size="10.00">frame.FrameStackUni.toString</text>
</a>
</g>
</g>
<!-- Node2&#45;&gt;Node3 -->
<g id="edge2" class="edge"><title>Node2&#45;&gt;Node3</title>
<path fill="none" stroke="midnightblue" d="M557.347,-464.987C502.427,-465.004 423.622,-460.402 358.526,-438.5 318.294,-424.963 277.698,-394.096 258.97,-378.654"/>
<polygon fill="midnightblue" stroke="midnightblue" points="557.678,-468.485 567.658,-464.929 557.639,-461.485 557.678,-468.485"/>
</g>
<!-- Node4 -->
<g id="node4" class="node"><title>Node4</title>
<g id="a_node4"><a xlink:href="classframe_1_1_frame_stack_uni.html#a123b91c8f1635d500e0192ab40268542" target="_top" xlink:title="トークナイザーの状態を報告するYAML書式文字列を返す.">
<polygon fill="white" stroke="black" points="0,-355.5 0,-383.5 136.039,-383.5 136.039,-355.5 0,-355.5"/>
<text text-anchor="start" x="8" y="-371.5" font-family="Helvetica,sans-Serif" font-size="10.00">frame.FrameStackUni.repo</text>
<text text-anchor="middle" x="68.0195" y="-361.5" font-family="Helvetica,sans-Serif" font-size="10.00">Stack</text>
</a>
</g>
</g>
<!-- Node3&#45;&gt;Node4 -->
<g id="edge3" class="edge"><title>Node3&#45;&gt;Node4</title>
<path fill="none" stroke="midnightblue" d="M161.822,-369.5C153.219,-369.5 144.563,-369.5 136.18,-369.5"/>
<polygon fill="midnightblue" stroke="midnightblue" points="161.878,-373 171.878,-369.5 161.878,-366 161.878,-373"/>
</g>
<!-- Node6 -->
<g id="node6" class="node"><title>Node6</title>
<g id="a_node6"><a xlink:href="classframe_1_1_frame_stack_uni.html#aa5c918f30e85de188af654e03d0f8474" target="_top" xlink:title="フレームポインタfpからフレームの文字列表現を返す">
<polygon fill="white" stroke="black" points="366.307,-210.5 366.307,-238.5 501.233,-238.5 501.233,-210.5 366.307,-210.5"/>
<text text-anchor="start" x="374.307" y="-226.5" font-family="Helvetica,sans-Serif" font-size="10.00">frame.FrameStackUni.fpTo</text>
<text text-anchor="middle" x="433.77" y="-216.5" font-family="Helvetica,sans-Serif" font-size="10.00">FrameString</text>
</a>
</g>
</g>
<!-- Node5&#45;&gt;Node6 -->
<g id="edge5" class="edge"><title>Node5&#45;&gt;Node6</title>
<path fill="none" stroke="midnightblue" d="M555.958,-225.775C538.192,-225.588 519.103,-225.388 501.451,-225.202"/>
<polygon fill="midnightblue" stroke="midnightblue" points="556.208,-229.278 566.244,-225.884 556.281,-222.278 556.208,-229.278"/>
</g>
<!-- Node8 -->
<g id="node8" class="node"><title>Node8</title>
<g id="a_node8"><a xlink:href="classast_1_1_ast_list_1_1_list_wrapper.html#a54d57ec79cee3ac4683b86ee2dcddd49" target="_top" xlink:title="ノードの清書出力を返す。">
<polygon fill="white" stroke="black" points="366.385,-163.5 366.385,-191.5 501.155,-191.5 501.155,-163.5 366.385,-163.5"/>
<text text-anchor="start" x="374.385" y="-179.5" font-family="Helvetica,sans-Serif" font-size="10.00">ast.AstList.ListWrapper.get</text>
<text text-anchor="middle" x="433.77" y="-169.5" font-family="Helvetica,sans-Serif" font-size="10.00">CustomObjectString</text>
</a>
</g>
</g>
<!-- Node5&#45;&gt;Node8 -->
<g id="edge7" class="edge"><title>Node5&#45;&gt;Node8</title>
<path fill="none" stroke="midnightblue" d="M572.933,-215.211C563.618,-213.067 554.012,-210.778 545.014,-208.5 524.487,-203.303 501.96,-197.065 482.649,-191.551"/>
<polygon fill="midnightblue" stroke="midnightblue" points="572.359,-218.67 582.886,-217.475 573.911,-211.844 572.359,-218.67"/>
</g>
<!-- Node9 -->
<g id="node9" class="node"><title>Node9</title>
<g id="a_node9"><a xlink:href="classutil_1_1_auto_stack.html#aed8f716239f4d48b8d22dc2a80c52263" target="_top" xlink:title="内部仕様のYamlBufの初期化器yamlInitializerと要素の清書器elemWriterをもつ清書出力文字列を返す実装手続き。">
<polygon fill="white" stroke="black" points="365.597,-116.5 365.597,-144.5 501.943,-144.5 501.943,-116.5 365.597,-116.5"/>
<text text-anchor="start" x="373.597" y="-132.5" font-family="Helvetica,sans-Serif" font-size="10.00">util.AutoStack&lt; frame</text>
<text text-anchor="middle" x="433.77" y="-122.5" font-family="Helvetica,sans-Serif" font-size="10.00">::IntegerHolder &gt;::toString_</text>
</a>
</g>
</g>
<!-- Node5&#45;&gt;Node9 -->
<g id="edge8" class="edge"><title>Node5&#45;&gt;Node9</title>
<path fill="none" stroke="midnightblue" d="M556.964,-215.151C552.763,-213.259 548.735,-211.059 545.014,-208.5 521.245,-192.158 532.016,-171.904 509.014,-154.5 503.828,-150.577 497.978,-147.281 491.893,-144.515"/>
<polygon fill="midnightblue" stroke="midnightblue" points="555.797,-218.453 566.385,-218.82 558.337,-211.93 555.797,-218.453"/>
</g>
<!-- Node10 -->
<g id="node10" class="node"><title>Node10</title>
<g id="a_node10"><a xlink:href="classframe_1_1_frame_stack_uni.html#abb6dc2b3a776fb3eec1367285a25d4ec" target="_top" xlink:title="文字列表現を返す. *‍/">
<polygon fill="white" stroke="black" points="358.526,-257.5 358.526,-285.5 509.014,-285.5 509.014,-257.5 358.526,-257.5"/>
<text text-anchor="start" x="366.526" y="-273.5" font-family="Helvetica,sans-Serif" font-size="10.00">frame.FrameStackUni.toString</text>
<text text-anchor="middle" x="433.77" y="-263.5" font-family="Helvetica,sans-Serif" font-size="10.00">Details</text>
</a>
</g>
</g>
<!-- Node5&#45;&gt;Node10 -->
<g id="edge9" class="edge"><title>Node5&#45;&gt;Node10</title>
<path fill="none" stroke="midnightblue" d="M576.363,-237.973C551.335,-243.899 520.581,-251.181 494.136,-257.443"/>
<polygon fill="midnightblue" stroke="midnightblue" points="577.431,-241.316 586.356,-235.606 575.818,-234.505 577.431,-241.316"/>
</g>
<!-- Node7 -->
<g id="node7" class="node"><title>Node7</title>
<g id="a_node7"><a xlink:href="classframe_1_1_frame_stack_uni.html#ae777bfd69907ad5d86b2beab89607a33" target="_top" xlink:title="番号fidをもつフレームの文字列表現を返す">
<polygon fill="white" stroke="black" points="178.709,-210.5 178.709,-238.5 315.856,-238.5 315.856,-210.5 178.709,-210.5"/>
<text text-anchor="start" x="186.709" y="-226.5" font-family="Helvetica,sans-Serif" font-size="10.00">frame.FrameStackUni.fidTo</text>
<text text-anchor="middle" x="247.283" y="-216.5" font-family="Helvetica,sans-Serif" font-size="10.00">FrameString</text>
</a>
</g>
</g>
<!-- Node6&#45;&gt;Node7 -->
<g id="edge6" class="edge"><title>Node6&#45;&gt;Node7</title>
<path fill="none" stroke="midnightblue" d="M356.104,-224.5C342.808,-224.5 329.067,-224.5 316.029,-224.5"/>
<polygon fill="midnightblue" stroke="midnightblue" points="356.166,-228 366.166,-224.5 356.166,-221 356.166,-228"/>
</g>
<!-- Node10&#45;&gt;Node3 -->
<g id="edge10" class="edge"><title>Node10&#45;&gt;Node3</title>
<path fill="none" stroke="midnightblue" d="M383.455,-289.266C375.019,-292.728 366.431,-296.526 358.526,-300.5 321.609,-319.059 281.137,-346.343 261.058,-360.395"/>
<polygon fill="midnightblue" stroke="midnightblue" points="384.88,-292.466 392.871,-285.509 382.286,-285.965 384.88,-292.466"/>
</g>
<!-- Node11&#45;&gt;Node3 -->
<g id="edge16" class="edge"><title>Node11&#45;&gt;Node3</title>
<path fill="none" stroke="midnightblue" d="M735.253,-301.48C629.234,-316.289 418.932,-345.664 312.78,-360.491"/>
<polygon fill="midnightblue" stroke="midnightblue" points="735.76,-304.944 745.18,-300.094 734.792,-298.011 735.76,-304.944"/>
</g>
<!-- Node12 -->
<g id="node12" class="node"><title>Node12</title>
<g id="a_node12"><a xlink:href="classframe_1_1_frame_stack_uni.html#ae2a2da39ffd392203076855edf5efeff" target="_top" xlink:title="レコードの清書文字列を返す。">
<polygon fill="white" stroke="black" points="553.629,-254.5 553.629,-282.5 697.999,-282.5 697.999,-254.5 553.629,-254.5"/>
<text text-anchor="start" x="561.629" y="-270.5" font-family="Helvetica,sans-Serif" font-size="10.00">frame.FrameStackUni.record</text>
<text text-anchor="middle" x="625.814" y="-260.5" font-family="Helvetica,sans-Serif" font-size="10.00">ToString</text>
</a>
</g>
</g>
<!-- Node11&#45;&gt;Node12 -->
<g id="edge12" class="edge"><title>Node11&#45;&gt;Node12</title>
<path fill="none" stroke="midnightblue" d="M735.37,-283.583C723.267,-281.902 710.541,-280.133 698.233,-278.423"/>
<polygon fill="midnightblue" stroke="midnightblue" points="734.98,-287.062 745.366,-284.972 735.943,-280.129 734.98,-287.062"/>
</g>
<!-- Node13 -->
<g id="node13" class="node"><title>Node13</title>
<g id="a_node13"><a xlink:href="classframe_1_1_record.html#adfd137f94dd04ecdf855e58213973e1c" target="_top" xlink:title="レコードの内容を表す文字列を返す。">
<polygon fill="white" stroke="black" points="568.905,-340.5 568.905,-358.5 682.723,-358.5 682.723,-340.5 568.905,-340.5"/>
<text text-anchor="middle" x="625.814" y="-346.5" font-family="Helvetica,sans-Serif" font-size="10.00">frame.Record.toString</text>
</a>
</g>
</g>
<!-- Node11&#45;&gt;Node13 -->
<g id="edge15" class="edge"><title>Node11&#45;&gt;Node13</title>
<path fill="none" stroke="midnightblue" d="M765.424,-305.069C747.913,-311.403 726.199,-319.082 706.614,-325.5 690.804,-330.681 673.095,-336.05 658.383,-340.393"/>
<polygon fill="midnightblue" stroke="midnightblue" points="766.998,-308.22 775.2,-301.514 764.606,-301.642 766.998,-308.22"/>
</g>
<!-- Node12&#45;&gt;Node6 -->
<g id="edge13" class="edge"><title>Node12&#45;&gt;Node6</title>
<path fill="none" stroke="midnightblue" d="M554.221,-252.156C534.926,-247.689 514.191,-242.888 495.499,-238.56"/>
<polygon fill="midnightblue" stroke="midnightblue" points="553.629,-255.611 564.16,-254.457 555.208,-248.792 553.629,-255.611"/>
</g>
<!-- Node12&#45;&gt;Node10 -->
<g id="edge14" class="edge"><title>Node12&#45;&gt;Node10</title>
<path fill="none" stroke="midnightblue" d="M543.253,-269.788C531.986,-269.965 520.462,-270.147 509.332,-270.323"/>
<polygon fill="midnightblue" stroke="midnightblue" points="543.564,-273.283 553.508,-269.626 543.454,-266.284 543.564,-273.283"/>
</g>
<!-- Node15 -->
<g id="node15" class="node"><title>Node15</title>
<g id="a_node15"><a xlink:href="classutil_1_1_yaml_buf.html#aee371624d7c135f4684656e6ab6b8269" target="_top" xlink:title="配列モードで、文字列valueを正しい段下げでバッファに追加する。">
<polygon fill="white" stroke="black" points="567.873,-96.5 567.873,-114.5 683.755,-114.5 683.755,-96.5 567.873,-96.5"/>
<text text-anchor="middle" x="625.814" y="-102.5" font-family="Helvetica,sans-Serif" font-size="10.00">util.YamlBuf.addIndent</text>
</a>
</g>
</g>
<!-- Node14&#45;&gt;Node15 -->
<g id="edge18" class="edge"><title>Node14&#45;&gt;Node15</title>
<path fill="none" stroke="midnightblue" d="M760.193,-147.822C754.256,-145.841 748.24,-143.706 742.614,-141.5 726.141,-135.04 723.311,-130.358 706.614,-124.5 695.595,-120.633 683.447,-117.295 672.025,-114.542"/>
<polygon fill="midnightblue" stroke="midnightblue" points="759.434,-151.255 770.026,-150.998 761.586,-144.594 759.434,-151.255"/>
</g>
<!-- Node16 -->
<g id="node16" class="node"><title>Node16</title>
<g id="a_node16"><a xlink:href="classformat_1_1_node_formatter_simple.html#a2ffd13ecbb48136c0c309f7e36a91650" target="_top" xlink:title="項表現を出力する主ルーチン">
<polygon fill="white" stroke="black" points="545.014,-133.5 545.014,-161.5 706.614,-161.5 706.614,-133.5 545.014,-133.5"/>
<text text-anchor="start" x="553.014" y="-149.5" font-family="Helvetica,sans-Serif" font-size="10.00">format.NodeFormatterSimple.rec</text>
<text text-anchor="middle" x="625.814" y="-139.5" font-family="Helvetica,sans-Serif" font-size="10.00">EmitString</text>
</a>
</g>
</g>
<!-- Node14&#45;&gt;Node16 -->
<g id="edge19" class="edge"><title>Node14&#45;&gt;Node16</title>
<path fill="none" stroke="midnightblue" d="M759.834,-156.741C744.051,-155.645 725.299,-154.342 706.926,-153.066"/>
<polygon fill="midnightblue" stroke="midnightblue" points="760.026,-160.263 770.244,-157.464 760.511,-153.28 760.026,-160.263"/>
</g>
<!-- Node17&#45;&gt;Node2 -->
<g id="edge21" class="edge"><title>Node17&#45;&gt;Node2</title>
<path fill="none" stroke="midnightblue" d="M732.157,-457.011C716.168,-457.844 699.265,-458.725 683.792,-459.531"/>
<polygon fill="midnightblue" stroke="midnightblue" points="732.704,-460.488 742.508,-456.472 732.34,-453.497 732.704,-460.488"/>
</g>
<!-- Node19&#45;&gt;Node20 -->
<g id="edge24" class="edge"><title>Node19&#45;&gt;Node20</title>
<path fill="none" stroke="midnightblue" d="M750.67,-78.709C732.414,-76.1724 711.385,-73.2506 691.897,-70.5429"/>
<polygon fill="midnightblue" stroke="midnightblue" points="750.395,-82.2043 760.781,-80.1139 751.358,-75.2709 750.395,-82.2043"/>
</g>
<!-- Node22&#45;&gt;Node6 -->
<g id="edge27" class="edge"><title>Node22&#45;&gt;Node6</title>
<path fill="none" stroke="midnightblue" d="M565.783,-200.372C545.394,-204.127 522.41,-208.36 501.451,-212.22"/>
<polygon fill="midnightblue" stroke="midnightblue" points="566.672,-203.767 575.873,-198.513 565.404,-196.883 566.672,-203.767"/>
</g>
<!-- Node22&#45;&gt;Node8 -->
<g id="edge28" class="edge"><title>Node22&#45;&gt;Node8</title>
<path fill="none" stroke="midnightblue" d="M556.855,-185.209C538.78,-184.068 519.278,-182.836 501.281,-181.7"/>
<polygon fill="midnightblue" stroke="midnightblue" points="556.82,-188.714 567.02,-185.851 557.261,-181.727 556.82,-188.714"/>
</g>
<!-- Node22&#45;&gt;Node9 -->
<g id="edge29" class="edge"><title>Node22&#45;&gt;Node9</title>
<path fill="none" stroke="midnightblue" d="M566.92,-178.022C559.478,-176.086 552.017,-173.911 545.014,-171.5 528.283,-165.741 525.466,-161.012 509.014,-154.5 500.197,-151.01 490.651,-147.634 481.433,-144.571"/>
<polygon fill="midnightblue" stroke="midnightblue" points="566.105,-181.426 576.653,-180.429 567.785,-174.63 566.105,-181.426"/>
</g>
<!-- Node22&#45;&gt;Node10 -->
<g id="edge30" class="edge"><title>Node22&#45;&gt;Node10</title>
<path fill="none" stroke="midnightblue" d="M558.192,-202.032C553.601,-203.897 549.158,-206.039 545.014,-208.5 524.449,-220.712 529.16,-235.609 509.014,-248.5 503.671,-251.918 497.788,-254.856 491.743,-257.376"/>
<polygon fill="midnightblue" stroke="midnightblue" points="559.551,-205.262 567.773,-198.58 557.179,-198.677 559.551,-205.262"/>
</g>
<!-- Node23&#45;&gt;Node3 -->
<g id="edge35" class="edge"><title>Node23&#45;&gt;Node3</title>
<path fill="none" stroke="midnightblue" d="M745.48,-362.831C744.505,-363.366 743.549,-363.922 742.614,-364.5 721.991,-377.256 728.705,-395.499 706.614,-405.5 552.465,-475.288 339.306,-404.801 270.586,-378.51"/>
<polygon fill="midnightblue" stroke="midnightblue" points="747.06,-365.957 754.656,-358.571 744.112,-359.608 747.06,-365.957"/>
</g>
<!-- Node23&#45;&gt;Node12 -->
<g id="edge32" class="edge"><title>Node23&#45;&gt;Node12</title>
<path fill="none" stroke="midnightblue" d="M770.94,-336.086C739.439,-321.314 689.011,-297.666 656.923,-282.619"/>
<polygon fill="midnightblue" stroke="midnightblue" points="769.527,-339.289 780.067,-340.366 772.499,-332.951 769.527,-339.289"/>
</g>
<!-- Node23&#45;&gt;Node13 -->
<g id="edge33" class="edge"><title>Node23&#45;&gt;Node13</title>
<path fill="none" stroke="midnightblue" d="M735.795,-349.5C718.439,-349.5 699.772,-349.5 682.876,-349.5"/>
<polygon fill="midnightblue" stroke="midnightblue" points="735.839,-353 745.839,-349.5 735.839,-346 735.839,-353"/>
</g>
<!-- Node24 -->
<g id="node24" class="node"><title>Node24</title>
<g id="a_node24"><a xlink:href="classutil_1_1_stack_base_1_1_stat.html#ad146fa8579a5f8a876c4688cc5a68520" target="_top" xlink:title="文字列表現を返す。">
<polygon fill="white" stroke="black" points="557.228,-377.5 557.228,-395.5 694.4,-395.5 694.4,-377.5 557.228,-377.5"/>
<text text-anchor="middle" x="625.814" y="-383.5" font-family="Helvetica,sans-Serif" font-size="10.00">util.StackBase.Stat.toString</text>
</a>
</g>
</g>
<!-- Node23&#45;&gt;Node24 -->
<g id="edge34" class="edge"><title>Node23&#45;&gt;Node24</title>
<path fill="none" stroke="midnightblue" d="M747.216,-360.709C722.146,-366.079 692.522,-372.425 668.932,-377.478"/>
<polygon fill="midnightblue" stroke="midnightblue" points="748.246,-364.068 757.291,-358.551 746.78,-357.223 748.246,-364.068"/>
</g>
</g>
</svg>
