<?xml version="1.0" encoding="UTF-8" standalone="no"?>
<!DOCTYPE svg PUBLIC "-//W3C//DTD SVG 1.1//EN"
 "http://www.w3.org/Graphics/SVG/1.1/DTD/svg11.dtd">
<!-- Generated by graphviz version 2.47.0 (20210316.0004)
 -->
<!-- Title: BlockBase Pages: 1 -->
<svg width="1002pt" height="794pt"
 viewBox="0.00 0.00 1002.00 794.14" xmlns="http://www.w3.org/2000/svg" xmlns:xlink="http://www.w3.org/1999/xlink">
<g id="graph0" class="graph" transform="scale(1 1) rotate(0) translate(4 790.14)">
<title>BlockBase</title>
<polygon fill="white" stroke="transparent" points="-4,4 -4,-790.14 998,-790.14 998,4 -4,4"/>
<!-- Node1 -->
<g id="node1" class="node">
<title>Node1</title>
<g id="a_node1"><a xlink:title="抽象構文木のステップ式のクラス.">
<polygon fill="#bfbfbf" stroke="black" points="930,-265.64 930,-284.64 994,-284.64 994,-265.64 930,-265.64"/>
<text text-anchor="middle" x="962" y="-272.64" font-family="Helvetica,sans-Serif" font-size="10.00">BlockBase</text>
</a>
</g>
</g>
<!-- Node2 -->
<g id="node2" class="node">
<title>Node2</title>
<g id="a_node2"><a xlink:href="classast_1_1_ast_node_tagged.html" target="_top" xlink:title="子それぞれにタグと型アイテムをもつ順序ノードAstNodeのサブクラス．利用者は自前で，追加する子のField名と型を設定する．読み出しは子の添字のみで行う．">
<polygon fill="white" stroke="black" points="762,-475.64 762,-494.64 848,-494.64 848,-475.64 762,-475.64"/>
<text text-anchor="middle" x="805" y="-482.64" font-family="Helvetica,sans-Serif" font-size="10.00">AstNodeTagged</text>
</a>
</g>
</g>
<!-- Node2&#45;&gt;Node1 -->
<g id="edge1" class="edge">
<title>Node2&#45;&gt;Node1</title>
<path fill="none" stroke="midnightblue" d="M830.62,-470.21C854.3,-454.77 889.7,-428.64 912,-398.14 939.13,-361.03 953.78,-306.83 958.89,-284.89"/>
<polygon fill="midnightblue" stroke="midnightblue" points="828.73,-467.27 822.17,-475.6 832.49,-473.18 828.73,-467.27"/>
</g>
<!-- Node3 -->
<g id="node3" class="node">
<title>Node3</title>
<g id="a_node3"><a xlink:href="classast_1_1_ast_node.html" target="_top" xlink:title="タグなしの順アクセスの子供をもてる抽象構文木のノードのクラス。">
<polygon fill="white" stroke="black" points="583.5,-454.64 583.5,-473.64 638.5,-473.64 638.5,-454.64 583.5,-454.64"/>
<text text-anchor="middle" x="611" y="-461.64" font-family="Helvetica,sans-Serif" font-size="10.00">AstNode</text>
</a>
</g>
</g>
<!-- Node3&#45;&gt;Node2 -->
<g id="edge2" class="edge">
<title>Node3&#45;&gt;Node2</title>
<path fill="none" stroke="midnightblue" d="M649.12,-462.74C683.09,-464.73 733.08,-470.2 767.01,-475.64"/>
<polygon fill="midnightblue" stroke="midnightblue" points="648.86,-459.22 638.7,-462.22 648.51,-466.21 648.86,-459.22"/>
</g>
<!-- Node3&#45;&gt;Node2 -->
<g id="edge22" class="edge">
<title>Node3&#45;&gt;Node2</title>
<path fill="none" stroke="midnightblue" d="M648.61,-473.58C680.85,-478.76 727.82,-483.99 761.66,-486.22"/>
<polygon fill="midnightblue" stroke="midnightblue" points="649.14,-470.12 638.7,-471.9 647.97,-477.02 649.14,-470.12"/>
</g>
<!-- Node23 -->
<g id="node23" class="node">
<title>Node23</title>
<g id="a_node23"><a xlink:href="classast_1_1_sent_list.html" target="_top" xlink:title="文Sentenceのリスト.">
<polygon fill="white" stroke="black" points="778.5,-379.64 778.5,-398.64 831.5,-398.64 831.5,-379.64 778.5,-379.64"/>
<text text-anchor="middle" x="805" y="-386.64" font-family="Helvetica,sans-Serif" font-size="10.00">SentList</text>
</a>
</g>
</g>
<!-- Node3&#45;&gt;Node23 -->
<g id="edge30" class="edge">
<title>Node3&#45;&gt;Node23</title>
<path fill="none" stroke="midnightblue" d="M646.39,-450.71C684.68,-435.75 745.6,-411.95 779.39,-398.75"/>
<polygon fill="midnightblue" stroke="midnightblue" points="644.75,-447.59 636.71,-454.49 647.3,-454.11 644.75,-447.59"/>
</g>
<!-- Node28 -->
<g id="node28" class="node">
<title>Node28</title>
<g id="a_node28"><a xlink:href="classmachine_1_1_ref.html" target="_top" xlink:title="フレーム中の変数参照オブジェクトref = (XType type, int vid)">
<polygon fill="white" stroke="black" points="789,-97.64 789,-116.64 821,-116.64 821,-97.64 789,-97.64"/>
<text text-anchor="middle" x="805" y="-104.64" font-family="Helvetica,sans-Serif" font-size="10.00">Ref</text>
</a>
</g>
</g>
<!-- Node3&#45;&gt;Node28 -->
<g id="edge44" class="edge">
<title>Node3&#45;&gt;Node28</title>
<path fill="none" stroke="midnightblue" d="M632.07,-447.87C649.77,-432.66 675.28,-408.53 692,-383.14 754.28,-288.56 791.97,-153.82 801.56,-116.84"/>
<polygon fill="midnightblue" stroke="midnightblue" points="629.48,-445.47 624.08,-454.58 633.98,-450.83 629.48,-445.47"/>
</g>
<!-- Node4 -->
<g id="node4" class="node">
<title>Node4</title>
<g id="a_node4"><a xlink:href="classast_1_1_ast_node_base.html" target="_top" xlink:title=" ">
<polygon fill="white" stroke="black" points="301.5,-476.64 301.5,-495.64 378.5,-495.64 378.5,-476.64 301.5,-476.64"/>
<text text-anchor="middle" x="340" y="-483.64" font-family="Helvetica,sans-Serif" font-size="10.00">AstNodeBase</text>
</a>
</g>
</g>
<!-- Node4&#45;&gt;Node3 -->
<g id="edge3" class="edge">
<title>Node4&#45;&gt;Node3</title>
<path fill="none" stroke="midnightblue" d="M388.83,-482.23C445.45,-477.6 537.79,-470.05 583.14,-466.34"/>
<polygon fill="midnightblue" stroke="midnightblue" points="388.37,-478.75 378.69,-483.06 388.94,-485.73 388.37,-478.75"/>
</g>
<!-- Node5 -->
<g id="node5" class="node">
<title>Node5</title>
<g id="a_node5"><a xlink:title=" ">
<polygon fill="white" stroke="#bfbfbf" points="30.5,-586.64 30.5,-605.64 72.5,-605.64 72.5,-586.64 30.5,-586.64"/>
<text text-anchor="middle" x="51.5" y="-593.64" font-family="Helvetica,sans-Serif" font-size="10.00">String</text>
</a>
</g>
</g>
<!-- Node5&#45;&gt;Node4 -->
<g id="edge4" class="edge">
<title>Node5&#45;&gt;Node4</title>
<path fill="none" stroke="#9a32cd" stroke-dasharray="5,2" d="M81.26,-609.68C122.43,-626.82 198.24,-649.78 244,-611.14 280.51,-580.31 229.48,-540.15 262,-505.14 272.03,-494.35 287.12,-489.26 301.3,-486.99"/>
<polygon fill="#9a32cd" stroke="#9a32cd" points="82.63,-606.45 72.06,-605.7 79.85,-612.88 82.63,-606.45"/>
<text text-anchor="middle" x="182.5" y="-646.14" font-family="Helvetica,sans-Serif" font-size="10.00"> MOD_AST</text>
<text text-anchor="middle" x="182.5" y="-635.14" font-family="Helvetica,sans-Serif" font-size="10.00">mod_</text>
</g>
<!-- Node16 -->
<g id="node16" class="node">
<title>Node16</title>
<g id="a_node16"><a xlink:href="classformat_1_1_style.html" target="_top" xlink:title="ノードの表示スタイルに関するプロパティのクラス.">
<polygon fill="white" stroke="black" points="320.5,-438.64 320.5,-457.64 359.5,-457.64 359.5,-438.64 320.5,-438.64"/>
<text text-anchor="middle" x="340" y="-445.64" font-family="Helvetica,sans-Serif" font-size="10.00">Style</text>
</a>
</g>
</g>
<!-- Node5&#45;&gt;Node16 -->
<g id="edge18" class="edge">
<title>Node5&#45;&gt;Node16</title>
<path fill="none" stroke="#9a32cd" stroke-dasharray="5,2" d="M59.5,-577.13C69.34,-553.31 89.63,-513.18 121,-493.14 167.61,-463.36 190.57,-488.47 244,-474.14 252.29,-471.92 253.82,-469.73 262,-467.14 281.69,-460.91 304.74,-455.46 320.46,-452.01"/>
<polygon fill="#9a32cd" stroke="#9a32cd" points="56.21,-575.93 55.82,-586.52 62.73,-578.49 56.21,-575.93"/>
<text text-anchor="middle" x="182.5" y="-573.14" font-family="Helvetica,sans-Serif" font-size="10.00"> childLPAD</text>
<text text-anchor="middle" x="182.5" y="-562.14" font-family="Helvetica,sans-Serif" font-size="10.00">childRPAD</text>
<text text-anchor="middle" x="182.5" y="-551.14" font-family="Helvetica,sans-Serif" font-size="10.00">name</text>
<text text-anchor="middle" x="182.5" y="-540.14" font-family="Helvetica,sans-Serif" font-size="10.00">operSTR</text>
<text text-anchor="middle" x="182.5" y="-529.14" font-family="Helvetica,sans-Serif" font-size="10.00">parenLPAD</text>
<text text-anchor="middle" x="182.5" y="-518.14" font-family="Helvetica,sans-Serif" font-size="10.00">parenLPAR</text>
<text text-anchor="middle" x="182.5" y="-507.14" font-family="Helvetica,sans-Serif" font-size="10.00">parenRPAD</text>
<text text-anchor="middle" x="182.5" y="-496.14" font-family="Helvetica,sans-Serif" font-size="10.00">parenRPAR</text>
</g>
<!-- Node6 -->
<g id="node6" class="node">
<title>Node6</title>
<g id="a_node6"><a xlink:title=" ">
<polygon fill="white" stroke="#bfbfbf" points="19,-674.64 19,-693.64 84,-693.64 84,-674.64 19,-674.64"/>
<text text-anchor="middle" x="51.5" y="-681.64" font-family="Helvetica,sans-Serif" font-size="10.00">TraceLevel</text>
</a>
</g>
</g>
<!-- Node6&#45;&gt;Node4 -->
<g id="edge5" class="edge">
<title>Node6&#45;&gt;Node4</title>
<path fill="none" stroke="#9a32cd" stroke-dasharray="5,2" d="M94.48,-684.22C144.49,-683.37 223.81,-678.7 244,-658.14 291.98,-609.3 216.7,-556.48 262,-505.14 271.84,-493.99 287.08,-488.87 301.42,-486.67"/>
<polygon fill="#9a32cd" stroke="#9a32cd" points="94.25,-680.73 84.29,-684.35 94.33,-687.73 94.25,-680.73"/>
<text text-anchor="middle" x="182.5" y="-686.14" font-family="Helvetica,sans-Serif" font-size="10.00"> LOG</text>
</g>
<!-- Node7 -->
<g id="node7" class="node">
<title>Node7</title>
<g id="a_node7"><a xlink:title=" ">
<polygon fill="white" stroke="#bfbfbf" points="15,-458.64 15,-477.64 88,-477.64 88,-458.64 15,-458.64"/>
<text text-anchor="middle" x="51.5" y="-465.64" font-family="Helvetica,sans-Serif" font-size="10.00">static Report</text>
</a>
</g>
</g>
<!-- Node7&#45;&gt;Node4 -->
<g id="edge6" class="edge">
<title>Node7&#45;&gt;Node4</title>
<path fill="none" stroke="#9a32cd" stroke-dasharray="5,2" d="M57.4,-487.7C65.46,-515.17 84.39,-564.15 121,-585.14 144.71,-598.73 222.66,-602.22 244,-585.14 272.46,-562.37 236.5,-531.17 262,-505.14 272.21,-494.71 287.17,-489.66 301.19,-487.33"/>
<polygon fill="#9a32cd" stroke="#9a32cd" points="60.68,-486.43 54.67,-477.7 53.93,-488.27 60.68,-486.43"/>
<text text-anchor="middle" x="182.5" y="-599.14" font-family="Helvetica,sans-Serif" font-size="10.00"> repo</text>
</g>
<!-- Node27 -->
<g id="node27" class="node">
<title>Node27</title>
<g id="a_node27"><a xlink:href="classmachine_1_1_ref_list.html" target="_top" xlink:title="@整数の表">
<polygon fill="white" stroke="black" points="316,-227.64 316,-246.64 364,-246.64 364,-227.64 316,-227.64"/>
<text text-anchor="middle" x="340" y="-234.64" font-family="Helvetica,sans-Serif" font-size="10.00">RefList</text>
</a>
</g>
</g>
<!-- Node7&#45;&gt;Node27 -->
<g id="edge39" class="edge">
<title>Node7&#45;&gt;Node27</title>
<path fill="none" stroke="#9a32cd" stroke-dasharray="5,2" d="M66.39,-450.25C86.29,-424.63 120.58,-380.5 121,-380.14 168.52,-339.27 191.79,-345.83 244,-311.14 275.69,-290.08 310.34,-261.56 327.72,-246.84"/>
<polygon fill="#9a32cd" stroke="#9a32cd" points="63.4,-448.39 60.03,-458.44 68.93,-452.69 63.4,-448.39"/>
<text text-anchor="middle" x="182.5" y="-383.14" font-family="Helvetica,sans-Serif" font-size="10.00"> repo</text>
</g>
<!-- Node8 -->
<g id="node8" class="node">
<title>Node8</title>
<g id="a_node8"><a xlink:title=" ">
<polygon fill="white" stroke="#bfbfbf" points="37,-176.64 37,-195.64 66,-195.64 66,-176.64 37,-176.64"/>
<text text-anchor="middle" x="51.5" y="-183.64" font-family="Helvetica,sans-Serif" font-size="10.00">int</text>
</a>
</g>
</g>
<!-- Node8&#45;&gt;Node1 -->
<g id="edge35" class="edge">
<title>Node8&#45;&gt;Node1</title>
<path fill="none" stroke="#9a32cd" stroke-dasharray="5,2" d="M76.14,-180.96C89.28,-178.34 105.96,-175.45 121,-174.14 175.46,-169.41 189.4,-171.47 244,-174.14 513.67,-187.35 581.12,-198.26 848,-239.14 876.53,-243.51 884.61,-241.03 912,-250.14 923.6,-254 935.85,-260.25 945.2,-265.53"/>
<polygon fill="#9a32cd" stroke="#9a32cd" points="75.14,-177.59 66.05,-183.05 76.56,-184.44 75.14,-177.59"/>
<text text-anchor="middle" x="611" y="-218.14" font-family="Helvetica,sans-Serif" font-size="10.00"> rid_</text>
</g>
<!-- Node8&#45;&gt;Node4 -->
<g id="edge7" class="edge">
<title>Node8&#45;&gt;Node4</title>
<path fill="none" stroke="#9a32cd" stroke-dasharray="5,2" d="M71.53,-202.28C84.61,-212.48 102.83,-225.04 121,-232.14 172.53,-252.26 206.28,-210.68 244,-251.14 276.84,-286.37 230.75,-430.49 262,-467.14 271.65,-478.46 286.86,-483.61 301.22,-485.78"/>
<polygon fill="#9a32cd" stroke="#9a32cd" points="73.72,-199.54 63.73,-195.99 69.32,-204.99 73.72,-199.54"/>
<text text-anchor="middle" x="182.5" y="-265.14" font-family="Helvetica,sans-Serif" font-size="10.00"> BITMASK_PRINT_WIDTH</text>
<text text-anchor="middle" x="182.5" y="-254.14" font-family="Helvetica,sans-Serif" font-size="10.00">UNDEF</text>
</g>
<!-- Node8&#45;&gt;Node16 -->
<g id="edge19" class="edge">
<title>Node8&#45;&gt;Node16</title>
<path fill="none" stroke="#9a32cd" stroke-dasharray="5,2" d="M76.24,-190.31C127.16,-199.28 242.44,-219.72 244,-221.14 265.85,-241.04 251.65,-257.46 262,-285.14 284.47,-345.24 320.33,-413.61 333.72,-438.47"/>
<polygon fill="#9a32cd" stroke="#9a32cd" points="76.59,-186.82 66.14,-188.53 75.38,-193.71 76.59,-186.82"/>
<text text-anchor="middle" x="182.5" y="-224.14" font-family="Helvetica,sans-Serif" font-size="10.00"> pref</text>
</g>
<!-- Node8&#45;&gt;Node27 -->
<g id="edge40" class="edge">
<title>Node8&#45;&gt;Node27</title>
<path fill="none" stroke="#9a32cd" stroke-dasharray="5,2" d="M76.44,-182.68C113.15,-178.16 185.24,-172.46 244,-187.14 275.46,-195 308.04,-215.28 325.69,-227.46"/>
<polygon fill="#9a32cd" stroke="#9a32cd" points="75.7,-179.24 66.24,-184.02 76.61,-186.18 75.7,-179.24"/>
<text text-anchor="middle" x="182.5" y="-190.14" font-family="Helvetica,sans-Serif" font-size="10.00"> UNDEF</text>
</g>
<!-- Node8&#45;&gt;Node28 -->
<g id="edge46" class="edge">
<title>Node8&#45;&gt;Node28</title>
<path fill="none" stroke="#9a32cd" stroke-dasharray="5,2" d="M70.83,-169.57C80.61,-160.51 92.72,-148.97 103,-138.14 111.47,-129.23 109.87,-122.36 121,-117.14 244.88,-59.06 700.35,-97.56 788.99,-105.72"/>
<polygon fill="#9a32cd" stroke="#9a32cd" points="68.25,-167.18 63.25,-176.51 72.98,-172.34 68.25,-167.18"/>
<text text-anchor="middle" x="474" y="-91.14" font-family="Helvetica,sans-Serif" font-size="10.00"> UNDEF</text>
</g>
<!-- Node9 -->
<g id="node9" class="node">
<title>Node9</title>
<g id="a_node9"><a xlink:href="interfacetype_1_1_typable.html" target="_top" xlink:title="抽象ノードがもつ関数型のインタフェース">
<polygon fill="white" stroke="black" points="26.5,-712.64 26.5,-731.64 76.5,-731.64 76.5,-712.64 26.5,-712.64"/>
<text text-anchor="middle" x="51.5" y="-719.64" font-family="Helvetica,sans-Serif" font-size="10.00">Typable</text>
</a>
</g>
</g>
<!-- Node9&#45;&gt;Node4 -->
<g id="edge8" class="edge">
<title>Node9&#45;&gt;Node4</title>
<path fill="none" stroke="#9a32cd" stroke-dasharray="5,2" d="M87.02,-720.13C139.21,-716.75 233.28,-709.2 244,-698.14 273.97,-667.2 233.89,-537.78 262,-505.14 271.7,-493.87 286.92,-488.73 301.28,-486.55"/>
<polygon fill="#9a32cd" stroke="#9a32cd" points="86.63,-716.65 76.87,-720.77 87.07,-723.63 86.63,-716.65"/>
<text text-anchor="middle" x="182.5" y="-720.14" font-family="Helvetica,sans-Serif" font-size="10.00"> typing</text>
</g>
<!-- Node10 -->
<g id="node10" class="node">
<title>Node10</title>
<g id="a_node10"><a xlink:title=" ">
<polygon fill="white" stroke="#bfbfbf" points="26.5,-374.64 26.5,-393.64 76.5,-393.64 76.5,-374.64 26.5,-374.64"/>
<text text-anchor="middle" x="51.5" y="-381.64" font-family="Helvetica,sans-Serif" font-size="10.00">boolean</text>
</a>
</g>
</g>
<!-- Node10&#45;&gt;Node1 -->
<g id="edge36" class="edge">
<title>Node10&#45;&gt;Node1</title>
<path fill="none" stroke="#9a32cd" stroke-dasharray="5,2" d="M86.73,-379.42C189.09,-365.37 501.88,-323.05 762,-294.14 821.33,-287.55 890.77,-281.24 929.95,-277.8"/>
<polygon fill="#9a32cd" stroke="#9a32cd" points="86.09,-375.97 76.66,-380.8 87.05,-382.9 86.09,-375.97"/>
<text text-anchor="middle" x="611" y="-324.14" font-family="Helvetica,sans-Serif" font-size="10.00"> DEBUG_REPO</text>
</g>
<!-- Node10&#45;&gt;Node2 -->
<g id="edge26" class="edge">
<title>Node10&#45;&gt;Node2</title>
<path fill="none" stroke="#9a32cd" stroke-dasharray="5,2" d="M86.81,-386.32C125.15,-388.83 189.07,-393.25 244,-398.14 443.42,-415.89 496.79,-400.71 692,-445.14 724.21,-452.47 759.91,-466.26 782.15,-475.58"/>
<polygon fill="#9a32cd" stroke="#9a32cd" points="86.91,-382.82 76.7,-385.66 86.46,-389.81 86.91,-382.82"/>
<text text-anchor="middle" x="474" y="-417.14" font-family="Helvetica,sans-Serif" font-size="10.00"> DEBUG_REPO</text>
</g>
<!-- Node10&#45;&gt;Node4 -->
<g id="edge9" class="edge">
<title>Node10&#45;&gt;Node4</title>
<path fill="none" stroke="#9a32cd" stroke-dasharray="5,2" d="M68.37,-401.1C81.31,-413.86 100.7,-430.7 121,-440.14 171.43,-463.58 189.62,-451.48 244,-463.14 263.08,-467.23 284.19,-472.29 301.65,-476.62"/>
<polygon fill="#9a32cd" stroke="#9a32cd" points="70.71,-398.48 61.21,-393.79 65.71,-403.38 70.71,-398.48"/>
<text text-anchor="middle" x="182.5" y="-466.14" font-family="Helvetica,sans-Serif" font-size="10.00"> DEBUG_REPO</text>
</g>
<!-- Node10&#45;&gt;Node16 -->
<g id="edge20" class="edge">
<title>Node10&#45;&gt;Node16</title>
<path fill="none" stroke="#9a32cd" stroke-dasharray="5,2" d="M86.48,-389.63C133.18,-397.26 214.73,-410.95 244,-418.14 258.53,-421.71 296.81,-434.15 320.1,-441.85"/>
<polygon fill="#9a32cd" stroke="#9a32cd" points="86.95,-386.16 76.52,-388 85.83,-393.07 86.95,-386.16"/>
<text text-anchor="middle" x="182.5" y="-432.14" font-family="Helvetica,sans-Serif" font-size="10.00"> preoperSupress</text>
<text text-anchor="middle" x="182.5" y="-421.14" font-family="Helvetica,sans-Serif" font-size="10.00">toInline</text>
</g>
<!-- Node10&#45;&gt;Node27 -->
<g id="edge41" class="edge">
<title>Node10&#45;&gt;Node27</title>
<path fill="none" stroke="#9a32cd" stroke-dasharray="5,2" d="M62.35,-365.59C73.75,-346.03 94.42,-315.92 121,-300.14 168.82,-271.75 190.73,-293.13 244,-277.14 271.08,-269.01 300.92,-255.68 319.8,-246.66"/>
<polygon fill="#9a32cd" stroke="#9a32cd" points="59.2,-364.04 57.38,-374.47 65.31,-367.45 59.2,-364.04"/>
<text text-anchor="middle" x="182.5" y="-303.14" font-family="Helvetica,sans-Serif" font-size="10.00"> DEBUG_REPO</text>
</g>
<!-- Node11 -->
<g id="node11" class="node">
<title>Node11</title>
<g id="a_node11"><a xlink:href="interfaceast_1_1_node.html" target="_top" xlink:title=" ">
<polygon fill="white" stroke="black" points="320,-708.64 320,-727.64 360,-727.64 360,-708.64 320,-708.64"/>
<text text-anchor="middle" x="340" y="-715.64" font-family="Helvetica,sans-Serif" font-size="10.00">Node</text>
</a>
</g>
</g>
<!-- Node11&#45;&gt;Node3 -->
<g id="edge10" class="edge">
<title>Node11&#45;&gt;Node3</title>
<path fill="none" stroke="midnightblue" d="M363.34,-702.58C379.07,-691.32 400.37,-675.47 418,-660.14 462.59,-621.38 483.7,-618 512,-566.14 530.08,-533.01 503.57,-510.09 530,-483.14 543.79,-469.07 565.96,-464.65 583.47,-463.56"/>
<polygon fill="midnightblue" stroke="midnightblue" points="360.94,-699.99 354.8,-708.63 364.98,-705.71 360.94,-699.99"/>
</g>
<!-- Node12 -->
<g id="node12" class="node">
<title>Node12</title>
<g id="a_node12"><a xlink:href="interfaceformat_1_1_x_formattable.html" target="_top" xlink:title="入れ子フォーマット出力可能なオブジェクトのインタフェース。">
<polygon fill="white" stroke="black" points="14,-761.64 14,-780.64 89,-780.64 89,-761.64 14,-761.64"/>
<text text-anchor="middle" x="51.5" y="-768.64" font-family="Helvetica,sans-Serif" font-size="10.00">XFormattable</text>
</a>
</g>
</g>
<!-- Node12&#45;&gt;Node11 -->
<g id="edge11" class="edge">
<title>Node12&#45;&gt;Node11</title>
<path fill="none" stroke="midnightblue" d="M99.06,-771.82C138.23,-771.42 195.45,-768.57 244,-757.14 271.77,-750.6 301.93,-737 320.66,-727.72"/>
<polygon fill="midnightblue" stroke="midnightblue" points="99,-768.32 89.02,-771.87 99.03,-775.32 99,-768.32"/>
</g>
<!-- Node13 -->
<g id="node13" class="node">
<title>Node13</title>
<g id="a_node13"><a xlink:href="interfaceformat_1_1_x_formattable_1_1_navigatable.html" target="_top" xlink:title="木構造の分岐ノードとして清書可能なオブジェクトのクラス">
<polygon fill="white" stroke="black" points="275,-631.64 275,-650.64 405,-650.64 405,-631.64 275,-631.64"/>
<text text-anchor="middle" x="340" y="-638.64" font-family="Helvetica,sans-Serif" font-size="10.00">XFormattable.Navigatable</text>
</a>
</g>
</g>
<!-- Node12&#45;&gt;Node13 -->
<g id="edge13" class="edge">
<title>Node12&#45;&gt;Node13</title>
<path fill="none" stroke="midnightblue" d="M99.62,-763.67C152.5,-754.96 232.45,-740.67 244,-732.14 257.44,-722.21 251.08,-711.78 262,-699.14 279.61,-678.75 305.53,-661.06 322.33,-650.75"/>
<polygon fill="midnightblue" stroke="midnightblue" points="98.74,-760.27 89.43,-765.34 99.86,-767.18 98.74,-760.27"/>
</g>
<!-- Node14 -->
<g id="node14" class="node">
<title>Node14</title>
<g id="a_node14"><a xlink:href="interfaceformat_1_1_x_formattable_1_1_typed_formattable.html" target="_top" xlink:title="ノードの型情報をもつ書式出力可能なオブジェクトのインタフェース．">
<polygon fill="white" stroke="black" points="262,-766.64 262,-785.64 418,-785.64 418,-766.64 262,-766.64"/>
<text text-anchor="middle" x="340" y="-773.64" font-family="Helvetica,sans-Serif" font-size="10.00">XFormattable.TypedFormattable</text>
</a>
</g>
</g>
<!-- Node12&#45;&gt;Node14 -->
<g id="edge15" class="edge">
<title>Node12&#45;&gt;Node14</title>
<path fill="none" stroke="midnightblue" d="M99.63,-779.72C106.77,-780.72 114.06,-781.59 121,-782.14 167.71,-785.87 220.2,-784.59 261.97,-782.27"/>
<polygon fill="midnightblue" stroke="midnightblue" points="99.75,-776.2 89.34,-778.16 98.71,-783.12 99.75,-776.2"/>
</g>
<!-- Node13&#45;&gt;Node3 -->
<g id="edge12" class="edge">
<title>Node13&#45;&gt;Node3</title>
<path fill="none" stroke="midnightblue" d="M370.19,-626.77C407.31,-607.26 471.43,-569.24 512,-521.14 524.05,-506.85 515.48,-494.9 530,-483.14 544.98,-471.01 566.4,-466.39 583.31,-464.73"/>
<polygon fill="midnightblue" stroke="midnightblue" points="368.21,-623.86 360.93,-631.55 371.42,-630.08 368.21,-623.86"/>
</g>
<!-- Node14&#45;&gt;Node3 -->
<g id="edge14" class="edge">
<title>Node14&#45;&gt;Node3</title>
<path fill="none" stroke="midnightblue" d="M375.86,-762.39C389.79,-755.94 405.47,-747.39 418,-737.14 470.17,-694.47 485.72,-680.2 512,-618.14 535.6,-562.4 489.4,-528.04 530,-483.14 543.31,-468.42 565.75,-464.08 583.48,-463.2"/>
<polygon fill="midnightblue" stroke="midnightblue" points="374.28,-759.26 366.56,-766.52 377.12,-765.66 374.28,-759.26"/>
</g>
<!-- Node15 -->
<g id="node15" class="node">
<title>Node15</title>
<g id="a_node15"><a xlink:title=" ">
<polygon fill="white" stroke="#bfbfbf" points="314,-514.64 314,-533.64 366,-533.64 366,-514.64 314,-514.64"/>
<text text-anchor="middle" x="340" y="-521.64" font-family="Helvetica,sans-Serif" font-size="10.00">Boolean</text>
</a>
</g>
</g>
<!-- Node15&#45;&gt;Node3 -->
<g id="edge16" class="edge">
<title>Node15&#45;&gt;Node3</title>
<path fill="none" stroke="#9a32cd" stroke-dasharray="5,2" d="M376.27,-518.2C411.05,-512.04 465.58,-501.58 512,-489.14 520.15,-486.96 521.89,-485.45 530,-483.14 547.57,-478.13 567.57,-473.38 583.18,-469.89"/>
<polygon fill="#9a32cd" stroke="#9a32cd" points="375.39,-514.8 366.14,-519.97 376.59,-521.69 375.39,-514.8"/>
<text text-anchor="middle" x="474" y="-509.14" font-family="Helvetica,sans-Serif" font-size="10.00"> DEBUG_CHILD</text>
</g>
<!-- Node16&#45;&gt;Node3 -->
<g id="edge17" class="edge">
<title>Node16&#45;&gt;Node3</title>
<path fill="none" stroke="#9a32cd" stroke-dasharray="5,2" d="M369.9,-448.88C403.92,-449.85 462.11,-451.83 512,-455.14 536.21,-456.75 563.71,-459.34 583.41,-461.33"/>
<polygon fill="#9a32cd" stroke="#9a32cd" points="369.83,-445.37 359.74,-448.6 369.64,-452.37 369.83,-445.37"/>
<text text-anchor="middle" x="474" y="-458.14" font-family="Helvetica,sans-Serif" font-size="10.00"> sty</text>
</g>
<!-- Node17 -->
<g id="node17" class="node">
<title>Node17</title>
<g id="a_node17"><a xlink:title=" ">
<polygon fill="white" stroke="#bfbfbf" points="566.5,-530.64 566.5,-549.64 655.5,-549.64 655.5,-530.64 566.5,-530.64"/>
<text text-anchor="middle" x="611" y="-537.64" font-family="Helvetica,sans-Serif" font-size="10.00">FieldNavigatable</text>
</a>
</g>
</g>
<!-- Node17&#45;&gt;Node2 -->
<g id="edge21" class="edge">
<title>Node17&#45;&gt;Node2</title>
<path fill="none" stroke="midnightblue" d="M665.81,-528.29C689.92,-522.57 718.59,-515.2 744,-507.14 755.74,-503.42 768.58,-498.79 779.36,-494.73"/>
<polygon fill="midnightblue" stroke="midnightblue" points="664.72,-524.95 655.78,-530.64 666.32,-531.77 664.72,-524.95"/>
</g>
<!-- Node18 -->
<g id="node18" class="node">
<title>Node18</title>
<g id="a_node18"><a xlink:title=" ">
<polygon fill="white" stroke="#bfbfbf" points="573,-492.64 573,-511.64 649,-511.64 649,-492.64 573,-492.64"/>
<text text-anchor="middle" x="611" y="-499.64" font-family="Helvetica,sans-Serif" font-size="10.00">List&lt; String &gt;</text>
</a>
</g>
</g>
<!-- Node18&#45;&gt;Node2 -->
<g id="edge23" class="edge">
<title>Node18&#45;&gt;Node2</title>
<path fill="none" stroke="#9a32cd" stroke-dasharray="5,2" d="M659.27,-497.95C690.64,-495.18 731.46,-491.56 761.75,-488.88"/>
<polygon fill="#9a32cd" stroke="#9a32cd" points="658.67,-494.49 649.02,-498.86 659.29,-501.47 658.67,-494.49"/>
<text text-anchor="middle" x="727" y="-495.14" font-family="Helvetica,sans-Serif" font-size="10.00"> fields</text>
</g>
<!-- Node19 -->
<g id="node19" class="node">
<title>Node19</title>
<g id="a_node19"><a xlink:title=" ">
<polygon fill="white" stroke="#bfbfbf" points="562,-606.64 562,-625.64 660,-625.64 660,-606.64 562,-606.64"/>
<text text-anchor="middle" x="611" y="-613.64" font-family="Helvetica,sans-Serif" font-size="10.00">List&lt; XTypeItem &gt;</text>
</a>
</g>
</g>
<!-- Node19&#45;&gt;Node2 -->
<g id="edge24" class="edge">
<title>Node19&#45;&gt;Node2</title>
<path fill="none" stroke="#9a32cd" stroke-dasharray="5,2" d="M670.05,-604.78C677.56,-602.6 685.05,-600.07 692,-597.14 717.22,-586.5 723.85,-582.66 744,-564.14 767.58,-542.46 788.57,-510.58 798.28,-494.77"/>
<polygon fill="#9a32cd" stroke="#9a32cd" points="668.96,-601.45 660.21,-607.43 670.78,-608.21 668.96,-601.45"/>
<text text-anchor="middle" x="727" y="-591.14" font-family="Helvetica,sans-Serif" font-size="10.00"> types</text>
</g>
<!-- Node20 -->
<g id="node20" class="node">
<title>Node20</title>
<g id="a_node20"><a xlink:title=" ">
<polygon fill="white" stroke="#bfbfbf" points="530,-568.64 530,-587.64 692,-587.64 692,-568.64 530,-568.64"/>
<text text-anchor="middle" x="611" y="-575.64" font-family="Helvetica,sans-Serif" font-size="10.00">List&lt; Supplier&lt; XFormattable &gt; &gt;</text>
</a>
</g>
</g>
<!-- Node20&#45;&gt;Node2 -->
<g id="edge25" class="edge">
<title>Node20&#45;&gt;Node2</title>
<path fill="none" stroke="#9a32cd" stroke-dasharray="5,2" d="M673.86,-565.73C680.09,-563.81 686.23,-561.62 692,-559.14 731.82,-542.02 772.9,-510.71 792.39,-494.87"/>
<polygon fill="#9a32cd" stroke="#9a32cd" points="672.71,-562.42 664.06,-568.54 674.64,-569.15 672.71,-562.42"/>
<text text-anchor="middle" x="727" y="-552.14" font-family="Helvetica,sans-Serif" font-size="10.00"> getters</text>
</g>
<!-- Node21 -->
<g id="node21" class="node">
<title>Node21</title>
<g id="a_node21"><a xlink:href="interfacemachine_1_1_rule.html" target="_top" xlink:title="実行可能コードのインタフェース. ブロックとステップの二種がある。">
<polygon fill="white" stroke="black" points="786.5,-303.64 786.5,-322.64 823.5,-322.64 823.5,-303.64 786.5,-303.64"/>
<text text-anchor="middle" x="805" y="-310.64" font-family="Helvetica,sans-Serif" font-size="10.00">Rule</text>
</a>
</g>
</g>
<!-- Node21&#45;&gt;Node1 -->
<g id="edge27" class="edge">
<title>Node21&#45;&gt;Node1</title>
<path fill="none" stroke="midnightblue" d="M833.74,-307.3C855.19,-302.68 885.57,-295.9 912,-289.14 917.83,-287.65 924.02,-285.96 929.97,-284.29"/>
<polygon fill="midnightblue" stroke="midnightblue" points="832.75,-303.93 823.7,-309.45 834.21,-310.78 832.75,-303.93"/>
</g>
<!-- Node22 -->
<g id="node22" class="node">
<title>Node22</title>
<g id="a_node22"><a xlink:href="interfacecmd_1_1_generatable.html" target="_top" xlink:title="変換してコードを生成できるノードのインタフェース.">
<polygon fill="white" stroke="black" points="576.5,-354.64 576.5,-373.64 645.5,-373.64 645.5,-354.64 576.5,-354.64"/>
<text text-anchor="middle" x="611" y="-361.64" font-family="Helvetica,sans-Serif" font-size="10.00">Generatable</text>
</a>
</g>
</g>
<!-- Node22&#45;&gt;Node1 -->
<g id="edge28" class="edge">
<title>Node22&#45;&gt;Node1</title>
<path fill="none" stroke="midnightblue" d="M655.52,-363.73C716.23,-361.5 828.3,-351.26 912,-308.14 925.13,-301.38 938.99,-291.78 948.61,-284.68"/>
<polygon fill="midnightblue" stroke="midnightblue" points="655.4,-360.23 645.51,-364.04 655.62,-367.23 655.4,-360.23"/>
</g>
<!-- Node22&#45;&gt;Node23 -->
<g id="edge31" class="edge">
<title>Node22&#45;&gt;Node23</title>
<path fill="none" stroke="midnightblue" d="M656.12,-369.89C693.99,-374.82 747.24,-381.75 778.43,-385.81"/>
<polygon fill="midnightblue" stroke="midnightblue" points="656.25,-366.37 645.88,-368.55 655.35,-373.31 656.25,-366.37"/>
</g>
<!-- Node23&#45;&gt;Node1 -->
<g id="edge29" class="edge">
<title>Node23&#45;&gt;Node1</title>
<path fill="none" stroke="#9a32cd" stroke-dasharray="5,2" d="M841.62,-387.95C863.81,-385.58 891.85,-379.44 912,-364.14 939.11,-343.55 953.19,-303.42 958.48,-284.92"/>
<polygon fill="#9a32cd" stroke="#9a32cd" points="841.24,-384.47 831.58,-388.81 841.84,-391.44 841.24,-384.47"/>
<text text-anchor="middle" x="889" y="-386.14" font-family="Helvetica,sans-Serif" font-size="10.00"> pre_sent_</text>
</g>
<!-- Node24 -->
<g id="node24" class="node">
<title>Node24</title>
<g id="a_node24"><a xlink:href="classcmd_1_1_cmd_list.html" target="_top" xlink:title="仮想命令のリスト．">
<polygon fill="white" stroke="black" points="313.5,-24.64 313.5,-43.64 366.5,-43.64 366.5,-24.64 313.5,-24.64"/>
<text text-anchor="middle" x="340" y="-31.64" font-family="Helvetica,sans-Serif" font-size="10.00">CmdList</text>
</a>
</g>
</g>
<!-- Node24&#45;&gt;Node1 -->
<g id="edge32" class="edge">
<title>Node24&#45;&gt;Node1</title>
<path fill="none" stroke="#9a32cd" stroke-dasharray="5,2" d="M376.41,-25.49C476.25,-3.42 762.43,43.48 912,-102.14 959.19,-148.09 961.88,-235.82 961.36,-265.24"/>
<polygon fill="#9a32cd" stroke="#9a32cd" points="375.51,-22.1 366.53,-27.73 377.05,-28.93 375.51,-22.1"/>
<text text-anchor="middle" x="727" y="-19.14" font-family="Helvetica,sans-Serif" font-size="10.00"> code_</text>
</g>
<!-- Node25 -->
<g id="node25" class="node">
<title>Node25</title>
<g id="a_node25"><a xlink:title=" ">
<polygon fill="white" stroke="#bfbfbf" points="0,-109.64 0,-128.64 103,-128.64 103,-109.64 0,-109.64"/>
<text text-anchor="middle" x="51.5" y="-116.64" font-family="Helvetica,sans-Serif" font-size="10.00">CustomFormattable</text>
</a>
</g>
</g>
<!-- Node25&#45;&gt;Node24 -->
<g id="edge33" class="edge">
<title>Node25&#45;&gt;Node24</title>
<path fill="none" stroke="midnightblue" d="M81.11,-105.34C93.24,-99.83 107.63,-93.72 121,-89.14 189.13,-65.81 272.29,-47.54 313.43,-39.15"/>
<polygon fill="midnightblue" stroke="midnightblue" points="79.54,-102.21 71.94,-109.59 82.49,-108.57 79.54,-102.21"/>
</g>
<!-- Node25&#45;&gt;Node27 -->
<g id="edge38" class="edge">
<title>Node25&#45;&gt;Node27</title>
<path fill="none" stroke="midnightblue" d="M110.86,-131C149.67,-140.06 201.19,-154.37 244,-174.14 276.16,-188.99 309.79,-213.88 327.12,-227.5"/>
<polygon fill="midnightblue" stroke="midnightblue" points="111.3,-127.51 100.77,-128.7 109.74,-134.34 111.3,-127.51"/>
</g>
<!-- Node26 -->
<g id="node26" class="node">
<title>Node26</title>
<g id="a_node26"><a xlink:title=" ">
<polygon fill="white" stroke="#bfbfbf" points="16,-24.64 16,-43.64 87,-43.64 87,-24.64 16,-24.64"/>
<text text-anchor="middle" x="51.5" y="-31.64" font-family="Helvetica,sans-Serif" font-size="10.00">List&lt; Cmd &gt;</text>
</a>
</g>
</g>
<!-- Node26&#45;&gt;Node24 -->
<g id="edge34" class="edge">
<title>Node26&#45;&gt;Node24</title>
<path fill="none" stroke="#9a32cd" stroke-dasharray="5,2" d="M97.11,-34.14C157.77,-34.14 264.32,-34.14 313.19,-34.14"/>
<polygon fill="#9a32cd" stroke="#9a32cd" points="97.06,-30.64 87.06,-34.14 97.06,-37.64 97.06,-30.64"/>
<text text-anchor="middle" x="182.5" y="-37.14" font-family="Helvetica,sans-Serif" font-size="10.00"> list_</text>
</g>
<!-- Node27&#45;&gt;Node1 -->
<g id="edge37" class="edge">
<title>Node27&#45;&gt;Node1</title>
<path fill="none" stroke="#9a32cd" stroke-dasharray="5,2" d="M374.24,-235.82C462.51,-232.88 709.84,-228.48 912,-261.14 918.55,-262.2 925.47,-263.84 931.98,-265.63"/>
<polygon fill="#9a32cd" stroke="#9a32cd" points="373.91,-232.32 364.04,-236.17 374.16,-239.32 373.91,-232.32"/>
<text text-anchor="middle" x="727" y="-244.14" font-family="Helvetica,sans-Serif" font-size="10.00"> vars_</text>
</g>
<!-- Node27&#45;&gt;Node27 -->
<g id="edge42" class="edge">
<title>Node27&#45;&gt;Node27</title>
<path fill="none" stroke="#9a32cd" stroke-dasharray="5,2" d="M315.07,-256.17C316.43,-261.27 324.74,-265.14 340,-265.14 363.82,-265.14 370.7,-255.71 360.65,-246.9"/>
<polygon fill="#9a32cd" stroke="#9a32cd" points="318.34,-257.44 319.35,-246.9 311.98,-254.51 318.34,-257.44"/>
<text text-anchor="middle" x="340" y="-268.14" font-family="Helvetica,sans-Serif" font-size="10.00"> parent</text>
</g>
<!-- Node28&#45;&gt;Node1 -->
<g id="edge43" class="edge">
<title>Node28&#45;&gt;Node1</title>
<path fill="none" stroke="#9a32cd" stroke-dasharray="5,2" d="M831.34,-104.26C854.96,-103.03 889.78,-105.12 912,-124.14 955.76,-161.6 960.73,-238.54 961.08,-265.53"/>
<polygon fill="#9a32cd" stroke="#9a32cd" points="831.07,-100.77 821.36,-105.01 831.6,-107.75 831.07,-100.77"/>
<text text-anchor="middle" x="889" y="-127.14" font-family="Helvetica,sans-Serif" font-size="10.00"> retRef_</text>
</g>
<!-- Node29 -->
<g id="node29" class="node">
<title>Node29</title>
<g id="a_node29"><a xlink:href="interfacemachine_1_1_assignable.html" target="_top" xlink:title="変数（チャネルとコンテナの名前）の抽象化">
<polygon fill="white" stroke="black" points="578.5,-55.64 578.5,-74.64 643.5,-74.64 643.5,-55.64 578.5,-55.64"/>
<text text-anchor="middle" x="611" y="-62.64" font-family="Helvetica,sans-Serif" font-size="10.00">Assignable</text>
</a>
</g>
</g>
<!-- Node29&#45;&gt;Node28 -->
<g id="edge45" class="edge">
<title>Node29&#45;&gt;Node28</title>
<path fill="none" stroke="midnightblue" d="M653.61,-71.48C679.72,-75.77 714.01,-81.94 744,-89.14 759.44,-92.85 776.78,-98.18 788.84,-102.08"/>
<polygon fill="midnightblue" stroke="midnightblue" points="654.11,-68.02 643.68,-69.88 652.99,-74.93 654.11,-68.02"/>
</g>
</g>
</svg>
