<?xml version="1.0" encoding="UTF-8" standalone="no"?>
<!DOCTYPE svg PUBLIC "-//W3C//DTD SVG 1.1//EN"
 "http://www.w3.org/Graphics/SVG/1.1/DTD/svg11.dtd">
<!-- Generated by graphviz version 2.38.0 (20140413.2041)
 -->
<!-- Title: push_ Pages: 1 -->
<svg width="398pt" height="178pt"
 viewBox="0.00 0.00 397.55 178.00" xmlns="http://www.w3.org/2000/svg" xmlns:xlink="http://www.w3.org/1999/xlink">
<g id="graph0" class="graph" transform="scale(1 1) rotate(0) translate(4 174)">
<title>push_</title>
<polygon fill="white" stroke="none" points="-4,4 -4,-174 393.546,-174 393.546,4 -4,4"/>
<!-- Node1 -->
<g id="node1" class="node"><title>Node1</title>
<g id="a_node1"><a xlink:title="スタックにプッシュする.">
<polygon fill="#bfbfbf" stroke="black" points="346.3,-75.5 346.3,-93.5 389.546,-93.5 389.546,-75.5 346.3,-75.5"/>
<text text-anchor="middle" x="367.923" y="-81.5" font-family="Helvetica,sans-Serif" font-size="10.00">push_</text>
</a>
</g>
</g>
<!-- Node2 -->
<g id="node2" class="node"><title>Node2</title>
<g id="a_node2"><a xlink:href="classframe_1_1_frame_stack_uni.html#a35e47054870bbed27d7344ccc22f486a" target="_top" xlink:title="新しいレコードを追加し、局所変数IDを返す。">
<polygon fill="white" stroke="black" points="172.591,-141.5 172.591,-169.5 310.3,-169.5 310.3,-141.5 172.591,-141.5"/>
<text text-anchor="start" x="180.591" y="-157.5" font-family="Helvetica,sans-Serif" font-size="10.00">frame.FrameStackUni.push</text>
<text text-anchor="middle" x="241.445" y="-147.5" font-family="Helvetica,sans-Serif" font-size="10.00">RecordBoolean</text>
</a>
</g>
</g>
<!-- Node1&#45;&gt;Node2 -->
<g id="edge1" class="edge"><title>Node1&#45;&gt;Node2</title>
<path fill="none" stroke="midnightblue" d="M350.81,-101.047C340.111,-111.266 325.315,-124.003 310.3,-132.5 304.346,-135.869 297.818,-138.853 291.238,-141.46"/>
<polygon fill="midnightblue" stroke="midnightblue" points="353.463,-103.348 358.13,-93.8361 348.55,-98.3611 353.463,-103.348"/>
</g>
<!-- Node4 -->
<g id="node4" class="node"><title>Node4</title>
<g id="a_node4"><a xlink:href="classframe_1_1_frame_stack_uni.html#a48a0a46cf7e14dfe9af0fe846bb52ef5" target="_top" xlink:title="新しいレコードを追加し、局所変数IDを返す。">
<polygon fill="white" stroke="black" points="172.591,-94.5 172.591,-122.5 310.3,-122.5 310.3,-94.5 172.591,-94.5"/>
<text text-anchor="start" x="180.591" y="-110.5" font-family="Helvetica,sans-Serif" font-size="10.00">frame.FrameStackUni.push</text>
<text text-anchor="middle" x="241.445" y="-100.5" font-family="Helvetica,sans-Serif" font-size="10.00">RecordDouble</text>
</a>
</g>
</g>
<!-- Node1&#45;&gt;Node4 -->
<g id="edge3" class="edge"><title>Node1&#45;&gt;Node4</title>
<path fill="none" stroke="midnightblue" d="M336.248,-90.4143C328.304,-91.9459 319.428,-93.6573 310.39,-95.3999"/>
<polygon fill="midnightblue" stroke="midnightblue" points="336.932,-93.847 346.088,-88.5171 335.606,-86.9736 336.932,-93.847"/>
</g>
<!-- Node5 -->
<g id="node5" class="node"><title>Node5</title>
<g id="a_node5"><a xlink:href="classframe_1_1_frame_stack_uni.html#a54903f924146c74394338bb9534922b3" target="_top" xlink:title="新しいレコードを追加し、局所変数IDを返す。">
<polygon fill="white" stroke="black" points="172.591,-47.5 172.591,-75.5 310.3,-75.5 310.3,-47.5 172.591,-47.5"/>
<text text-anchor="start" x="180.591" y="-63.5" font-family="Helvetica,sans-Serif" font-size="10.00">frame.FrameStackUni.push</text>
<text text-anchor="middle" x="241.445" y="-53.5" font-family="Helvetica,sans-Serif" font-size="10.00">RecordInteger</text>
</a>
</g>
</g>
<!-- Node1&#45;&gt;Node5 -->
<g id="edge5" class="edge"><title>Node1&#45;&gt;Node5</title>
<path fill="none" stroke="midnightblue" d="M336.248,-78.8321C328.304,-77.3644 319.428,-75.7243 310.39,-74.0543"/>
<polygon fill="midnightblue" stroke="midnightblue" points="335.619,-82.275 346.088,-80.6503 336.891,-75.3915 335.619,-82.275"/>
</g>
<!-- Node6 -->
<g id="node6" class="node"><title>Node6</title>
<g id="a_node6"><a xlink:href="classframe_1_1_frame_stack_uni.html#ad941701ab014aa0ffe0366a01f94de7c" target="_top" xlink:title="新しいレコードを追加し、局所変数IDを返す。">
<polygon fill="white" stroke="black" points="172.591,-0.5 172.591,-28.5 310.3,-28.5 310.3,-0.5 172.591,-0.5"/>
<text text-anchor="start" x="180.591" y="-16.5" font-family="Helvetica,sans-Serif" font-size="10.00">frame.FrameStackUni.push</text>
<text text-anchor="middle" x="241.445" y="-6.5" font-family="Helvetica,sans-Serif" font-size="10.00">RecordString</text>
</a>
</g>
</g>
<!-- Node1&#45;&gt;Node6 -->
<g id="edge7" class="edge"><title>Node1&#45;&gt;Node6</title>
<path fill="none" stroke="midnightblue" d="M350.27,-68.3956C339.543,-58.7032 324.913,-46.6951 310.3,-38.5 303.652,-34.7716 296.319,-31.4574 289.006,-28.5716"/>
<polygon fill="midnightblue" stroke="midnightblue" points="347.941,-71.009 357.648,-75.2545 352.707,-65.8823 347.941,-71.009"/>
</g>
<!-- Node3 -->
<g id="node3" class="node"><title>Node3</title>
<g id="a_node3"><a xlink:href="classframe_1_1_frame_stack_uni.html#acdad7e2ff3c9fca40f7bd6c669941f11" target="_top" xlink:title="新しいコンテナを頂上フレームに挿入する。">
<polygon fill="white" stroke="black" points="0,-70.5 0,-98.5 136.591,-98.5 136.591,-70.5 0,-70.5"/>
<text text-anchor="start" x="8" y="-86.5" font-family="Helvetica,sans-Serif" font-size="10.00">frame.FrameStackUni.alloc</text>
<text text-anchor="middle" x="68.2954" y="-76.5" font-family="Helvetica,sans-Serif" font-size="10.00">Record</text>
</a>
</g>
</g>
<!-- Node2&#45;&gt;Node3 -->
<g id="edge2" class="edge"><title>Node2&#45;&gt;Node3</title>
<path fill="none" stroke="midnightblue" d="M187.21,-138.07C182.242,-136.259 177.305,-134.388 172.591,-132.5 146.707,-122.134 118,-108.626 97.4319,-98.5811"/>
<polygon fill="midnightblue" stroke="midnightblue" points="186.157,-141.41 196.752,-141.468 188.506,-134.816 186.157,-141.41"/>
</g>
<!-- Node4&#45;&gt;Node3 -->
<g id="edge4" class="edge"><title>Node4&#45;&gt;Node3</title>
<path fill="none" stroke="midnightblue" d="M162.312,-97.5436C153.738,-96.3413 145.064,-95.1249 136.637,-93.9432"/>
<polygon fill="midnightblue" stroke="midnightblue" points="161.921,-101.023 172.311,-98.9456 162.894,-94.0907 161.921,-101.023"/>
</g>
<!-- Node5&#45;&gt;Node3 -->
<g id="edge6" class="edge"><title>Node5&#45;&gt;Node3</title>
<path fill="none" stroke="midnightblue" d="M162.312,-71.9999C153.738,-73.1521 145.064,-74.3178 136.637,-75.4503"/>
<polygon fill="midnightblue" stroke="midnightblue" points="162.866,-75.4571 172.311,-70.6563 161.933,-68.5194 162.866,-75.4571"/>
</g>
<!-- Node6&#45;&gt;Node3 -->
<g id="edge8" class="edge"><title>Node6&#45;&gt;Node3</title>
<path fill="none" stroke="midnightblue" d="M189.434,-32.052C183.728,-34.1608 178.019,-36.3354 172.591,-38.5 147.609,-48.4623 119.783,-60.9359 99.311,-70.3797"/>
<polygon fill="midnightblue" stroke="midnightblue" points="190.784,-35.2855 198.986,-28.5786 188.391,-28.707 190.784,-35.2855"/>
</g>
</g>
</svg>
