<?xml version="1.0" encoding="UTF-8" standalone="no"?>
<!DOCTYPE svg PUBLIC "-//W3C//DTD SVG 1.1//EN"
 "http://www.w3.org/Graphics/SVG/1.1/DTD/svg11.dtd">
<!-- Generated by graphviz version 2.47.0 (20210316.0004)
 -->
<!-- Title: XCFlat Pages: 1 -->
<svg width="1312pt" height="687pt"
 viewBox="0.00 0.00 1312.00 687.00" xmlns="http://www.w3.org/2000/svg" xmlns:xlink="http://www.w3.org/1999/xlink">
<g id="graph0" class="graph" transform="scale(1 1) rotate(0) translate(4 683)">
<title>XCFlat</title>
<polygon fill="white" stroke="transparent" points="-4,4 -4,-683 1308,-683 1308,4 -4,4"/>
<!-- Node1 -->
<g id="node1" class="node">
<title>Node1</title>
<g id="a_node1"><a xlink:title=" ">
<polygon fill="#bfbfbf" stroke="black" points="1257,-523.5 1257,-542.5 1304,-542.5 1304,-523.5 1257,-523.5"/>
<text text-anchor="middle" x="1280.5" y="-530.5" font-family="Helvetica,sans-Serif" font-size="10.00">XCFlat</text>
</a>
</g>
</g>
<!-- Node2 -->
<g id="node2" class="node">
<title>Node2</title>
<g id="a_node2"><a xlink:href="classcompile_1_1_x_compiler.html" target="_top" xlink:title="クエリのコンパイル系モジュール。">
<polygon fill="white" stroke="black" points="1158,-402.5 1158,-421.5 1220,-421.5 1220,-402.5 1158,-402.5"/>
<text text-anchor="middle" x="1189" y="-409.5" font-family="Helvetica,sans-Serif" font-size="10.00">XCompiler</text>
</a>
</g>
</g>
<!-- Node2&#45;&gt;Node1 -->
<g id="edge1" class="edge">
<title>Node2&#45;&gt;Node1</title>
<path fill="none" stroke="midnightblue" d="M1203.42,-430.15C1222.65,-456.14 1257.37,-503.08 1272.32,-523.3"/>
<polygon fill="midnightblue" stroke="midnightblue" points="1206.08,-427.86 1197.32,-421.9 1200.46,-432.02 1206.08,-427.86"/>
</g>
<!-- Node3 -->
<g id="node3" class="node">
<title>Node3</title>
<g id="a_node3"><a xlink:href="classutil_1_1_inc_counter.html" target="_top" xlink:title="非負整数値を保持するカウンタ.">
<polygon fill="white" stroke="black" points="555.5,-471.5 555.5,-490.5 620.5,-490.5 620.5,-471.5 555.5,-471.5"/>
<text text-anchor="middle" x="588" y="-478.5" font-family="Helvetica,sans-Serif" font-size="10.00">IncCounter</text>
</a>
</g>
</g>
<!-- Node3&#45;&gt;Node2 -->
<g id="edge2" class="edge">
<title>Node3&#45;&gt;Node2</title>
<path fill="none" stroke="#9a32cd" stroke-dasharray="5,2" d="M630.56,-485.6C724.44,-494.45 958.85,-507.81 1140,-445 1154.33,-440.03 1168.35,-429.56 1177.5,-421.73"/>
<polygon fill="#9a32cd" stroke="#9a32cd" points="630.89,-482.12 620.6,-484.63 630.21,-489.09 630.89,-482.12"/>
<text text-anchor="middle" x="932" y="-492" font-family="Helvetica,sans-Serif" font-size="10.00"> ridManager</text>
</g>
<!-- Node4 -->
<g id="node4" class="node">
<title>Node4</title>
<g id="a_node4"><a xlink:title=" ">
<polygon fill="white" stroke="#bfbfbf" points="300,-421.5 300,-440.5 329,-440.5 329,-421.5 300,-421.5"/>
<text text-anchor="middle" x="314.5" y="-428.5" font-family="Helvetica,sans-Serif" font-size="10.00">int</text>
</a>
</g>
</g>
<!-- Node4&#45;&gt;Node2 -->
<g id="edge12" class="edge">
<title>Node4&#45;&gt;Node2</title>
<path fill="none" stroke="#9a32cd" stroke-dasharray="5,2" d="M339.17,-431C386.33,-431 495.36,-431 587,-431 587,-431 587,-431 1023,-431 1070.29,-431 1124.71,-423.2 1157.71,-417.6"/>
<polygon fill="#9a32cd" stroke="#9a32cd" points="339.06,-427.5 329.06,-431 339.06,-434.5 339.06,-427.5"/>
<text text-anchor="middle" x="833.5" y="-445" font-family="Helvetica,sans-Serif" font-size="10.00"> MASK_QUERY_PRINT</text>
<text text-anchor="middle" x="833.5" y="-434" font-family="Helvetica,sans-Serif" font-size="10.00">PRINT_STAGE</text>
</g>
<!-- Node4&#45;&gt;Node3 -->
<g id="edge3" class="edge">
<title>Node4&#45;&gt;Node3</title>
<path fill="none" stroke="#9a32cd" stroke-dasharray="5,2" d="M339.19,-436.01C348.48,-437.93 359.23,-440.12 369,-442 435.07,-454.7 512.68,-468.26 555.18,-475.57"/>
<polygon fill="#9a32cd" stroke="#9a32cd" points="339.62,-432.52 329.11,-433.9 338.19,-439.37 339.62,-432.52"/>
<text text-anchor="middle" x="430.5" y="-466" font-family="Helvetica,sans-Serif" font-size="10.00"> cnt</text>
</g>
<!-- Node13 -->
<g id="node13" class="node">
<title>Node13</title>
<g id="a_node13"><a xlink:href="classmachine_1_1_var.html" target="_top" xlink:title="フレーム中の変数参照オブジェクトref = (XType type, int vid)">
<polygon fill="white" stroke="black" points="1006.5,-291.5 1006.5,-310.5 1037.5,-310.5 1037.5,-291.5 1006.5,-291.5"/>
<text text-anchor="middle" x="1022" y="-298.5" font-family="Helvetica,sans-Serif" font-size="10.00">Var</text>
</a>
</g>
</g>
<!-- Node4&#45;&gt;Node13 -->
<g id="edge36" class="edge">
<title>Node4&#45;&gt;Node13</title>
<path fill="none" stroke="#9a32cd" stroke-dasharray="5,2" d="M339.18,-425.91C348.46,-423.98 359.21,-421.8 369,-420 629.84,-371.95 701.4,-391.11 958,-324 975.01,-319.55 993.87,-312.35 1006.48,-307.19"/>
<polygon fill="#9a32cd" stroke="#9a32cd" points="338.16,-422.55 329.1,-428.04 339.61,-429.4 338.16,-422.55"/>
<text text-anchor="middle" x="722.5" y="-379" font-family="Helvetica,sans-Serif" font-size="10.00"> UNDEF</text>
</g>
<!-- Node15 -->
<g id="node15" class="node">
<title>Node15</title>
<g id="a_node15"><a xlink:href="classast_1_1_ast_node_base.html" target="_top" xlink:title=" ">
<polygon fill="white" stroke="red" points="549.5,-294.5 549.5,-313.5 626.5,-313.5 626.5,-294.5 549.5,-294.5"/>
<text text-anchor="middle" x="588" y="-301.5" font-family="Helvetica,sans-Serif" font-size="10.00">AstNodeBase</text>
</a>
</g>
</g>
<!-- Node4&#45;&gt;Node15 -->
<g id="edge22" class="edge">
<title>Node4&#45;&gt;Node15</title>
<path fill="none" stroke="#9a32cd" stroke-dasharray="5,2" d="M337.95,-419.5C342.86,-416.06 347.6,-411.89 351,-407 370.32,-379.21 343.83,-355.63 369,-333 418.41,-288.59 501.36,-291.15 549.44,-297.35"/>
<polygon fill="#9a32cd" stroke="#9a32cd" points="335.88,-416.66 329.17,-424.86 339.53,-422.63 335.88,-416.66"/>
<text text-anchor="middle" x="430.5" y="-347" font-family="Helvetica,sans-Serif" font-size="10.00"> BITMASK_PRINT_WIDTH</text>
<text text-anchor="middle" x="430.5" y="-336" font-family="Helvetica,sans-Serif" font-size="10.00">UNDEF</text>
</g>
<!-- Node24 -->
<g id="node21" class="node">
<title>Node24</title>
<g id="a_node21"><a xlink:href="classformat_1_1_style.html" target="_top" xlink:title="ノードの表示スタイルに関するプロパティのクラス.">
<polygon fill="white" stroke="black" points="568.5,-332.5 568.5,-351.5 607.5,-351.5 607.5,-332.5 568.5,-332.5"/>
<text text-anchor="middle" x="588" y="-339.5" font-family="Helvetica,sans-Serif" font-size="10.00">Style</text>
</a>
</g>
</g>
<!-- Node4&#45;&gt;Node24 -->
<g id="edge31" class="edge">
<title>Node4&#45;&gt;Node24</title>
<path fill="none" stroke="#9a32cd" stroke-dasharray="5,2" d="M337.82,-417.77C342.43,-414.54 347.07,-410.89 351,-407 360.99,-397.12 357.18,-388.6 369,-381 373.24,-378.28 516.54,-353.89 568.45,-345.12"/>
<polygon fill="#9a32cd" stroke="#9a32cd" points="335.65,-415 329.19,-423.4 339.48,-420.87 335.65,-415"/>
<text text-anchor="middle" x="430.5" y="-384" font-family="Helvetica,sans-Serif" font-size="10.00"> pref</text>
</g>
<!-- Node5 -->
<g id="node5" class="node">
<title>Node5</title>
<g id="a_node5"><a xlink:title=" ">
<polygon fill="white" stroke="#bfbfbf" points="46.5,-479.5 46.5,-498.5 96.5,-498.5 96.5,-479.5 46.5,-479.5"/>
<text text-anchor="middle" x="71.5" y="-486.5" font-family="Helvetica,sans-Serif" font-size="10.00">boolean</text>
</a>
</g>
</g>
<!-- Node5&#45;&gt;Node1 -->
<g id="edge38" class="edge">
<title>Node5&#45;&gt;Node1</title>
<path fill="none" stroke="#9a32cd" stroke-dasharray="5,2" d="M87.55,-506.55C122.77,-545.55 215.08,-636 313.5,-636 313.5,-636 313.5,-636 1190,-636 1239.27,-636 1267.56,-568 1276.44,-542.51"/>
<polygon fill="#9a32cd" stroke="#9a32cd" points="89.81,-503.82 80.56,-498.65 84.56,-508.45 89.81,-503.82"/>
<text text-anchor="middle" x="833.5" y="-639" font-family="Helvetica,sans-Serif" font-size="10.00"> DEBUG_REPO</text>
</g>
<!-- Node5&#45;&gt;Node2 -->
<g id="edge37" class="edge">
<title>Node5&#45;&gt;Node2</title>
<path fill="none" stroke="#9a32cd" stroke-dasharray="5,2" d="M92.38,-504.73C109.55,-517.45 135.53,-534.71 161,-544 225.34,-567.46 245.02,-566 313.5,-566 313.5,-566 313.5,-566 1023,-566 1082.27,-566 1098.31,-544.13 1140,-502 1163.91,-477.83 1178.96,-439.29 1184.98,-421.53"/>
<polygon fill="#9a32cd" stroke="#9a32cd" points="94.34,-501.82 84.26,-498.56 90.11,-507.4 94.34,-501.82"/>
<text text-anchor="middle" x="722.5" y="-613" font-family="Helvetica,sans-Serif" font-size="10.00"> DEBUG_OPT_A</text>
<text text-anchor="middle" x="722.5" y="-602" font-family="Helvetica,sans-Serif" font-size="10.00">DEBUG_REPO</text>
<text text-anchor="middle" x="722.5" y="-591" font-family="Helvetica,sans-Serif" font-size="10.00">DEBUG_WORK</text>
<text text-anchor="middle" x="722.5" y="-580" font-family="Helvetica,sans-Serif" font-size="10.00">HAS_ARG</text>
<text text-anchor="middle" x="722.5" y="-569" font-family="Helvetica,sans-Serif" font-size="10.00">NO_ARG</text>
</g>
<!-- Node5&#45;&gt;Node3 -->
<g id="edge4" class="edge">
<title>Node5&#45;&gt;Node3</title>
<path fill="none" stroke="#9a32cd" stroke-dasharray="5,2" d="M106.77,-488.47C201.18,-487 464.07,-482.91 555.32,-481.49"/>
<polygon fill="#9a32cd" stroke="#9a32cd" points="106.57,-484.97 96.63,-488.62 106.68,-491.97 106.57,-484.97"/>
<text text-anchor="middle" x="314.5" y="-488" font-family="Helvetica,sans-Serif" font-size="10.00"> DEBUG</text>
</g>
<!-- Node9 -->
<g id="node9" class="node">
<title>Node9</title>
<g id="a_node9"><a xlink:href="classutil_1_1_trace_level.html" target="_top" xlink:title="ログ出力用のトレースレベルを扱うクラス。">
<polygon fill="white" stroke="black" points="282,-147.5 282,-166.5 347,-166.5 347,-147.5 282,-147.5"/>
<text text-anchor="middle" x="314.5" y="-154.5" font-family="Helvetica,sans-Serif" font-size="10.00">TraceLevel</text>
</a>
</g>
</g>
<!-- Node5&#45;&gt;Node9 -->
<g id="edge11" class="edge">
<title>Node5&#45;&gt;Node9</title>
<path fill="none" stroke="#9a32cd" stroke-dasharray="5,2" d="M79.63,-469.8C92.79,-435.67 123.05,-362.98 161,-309 204.21,-247.53 273.58,-188.89 301.39,-166.52"/>
<polygon fill="#9a32cd" stroke="#9a32cd" points="76.24,-468.86 75.97,-479.45 82.79,-471.34 76.24,-468.86"/>
<text text-anchor="middle" x="210.5" y="-312" font-family="Helvetica,sans-Serif" font-size="10.00"> DEBUG_MOD</text>
</g>
<!-- Node11 -->
<g id="node11" class="node">
<title>Node11</title>
<g id="a_node11"><a xlink:href="classutil_1_1_report.html" target="_top" xlink:title="標準出力への入れ子出力のためのレポートオブジェクトのクラス.">
<polygon fill="white" stroke="black" points="279,-518.5 279,-537.5 350,-537.5 350,-518.5 279,-518.5"/>
<text text-anchor="middle" x="314.5" y="-525.5" font-family="Helvetica,sans-Serif" font-size="10.00">Report&lt; S &gt;</text>
</a>
</g>
</g>
<!-- Node5&#45;&gt;Node11 -->
<g id="edge16" class="edge">
<title>Node5&#45;&gt;Node11</title>
<path fill="none" stroke="#9a32cd" stroke-dasharray="5,2" d="M106.97,-494.58C152.75,-501.99 233.15,-515 278.96,-522.41"/>
<polygon fill="#9a32cd" stroke="#9a32cd" points="107.37,-491.1 96.93,-492.95 106.25,-498.01 107.37,-491.1"/>
<text text-anchor="middle" x="210.5" y="-532" font-family="Helvetica,sans-Serif" font-size="10.00"> DEBUG_POP</text>
<text text-anchor="middle" x="210.5" y="-521" font-family="Helvetica,sans-Serif" font-size="10.00">toPrint</text>
</g>
<!-- Node5&#45;&gt;Node15 -->
<g id="edge23" class="edge">
<title>Node5&#45;&gt;Node15</title>
<path fill="none" stroke="#9a32cd" stroke-dasharray="5,2" d="M82.05,-470.1C96.02,-444.22 124.41,-397.94 161,-371 170.88,-363.73 356.91,-299.09 369,-297 422.87,-287.7 437.37,-294.99 492,-297 510.84,-297.69 531.74,-299.16 549.13,-300.57"/>
<polygon fill="#9a32cd" stroke="#9a32cd" points="78.8,-468.74 77.26,-479.23 85,-472 78.8,-468.74"/>
<text text-anchor="middle" x="314.5" y="-329" font-family="Helvetica,sans-Serif" font-size="10.00"> DEBUG_REPO</text>
</g>
<!-- Node5&#45;&gt;Node24 -->
<g id="edge32" class="edge">
<title>Node5&#45;&gt;Node24</title>
<path fill="none" stroke="#9a32cd" stroke-dasharray="5,2" d="M84.43,-471.02C99.63,-449.58 127.94,-414.22 161,-395 236.12,-351.34 282.07,-401.89 351,-349 364.25,-338.83 354.63,-324.53 369,-316 416.01,-288.09 438.27,-305.92 492,-316 500.44,-317.58 501.82,-320.41 510,-323 529.69,-329.23 552.74,-334.68 568.46,-338.13"/>
<polygon fill="#9a32cd" stroke="#9a32cd" points="81.54,-469.05 78.74,-479.27 87.3,-473.03 81.54,-469.05"/>
<text text-anchor="middle" x="314.5" y="-389" font-family="Helvetica,sans-Serif" font-size="10.00"> preoperSupress</text>
<text text-anchor="middle" x="314.5" y="-378" font-family="Helvetica,sans-Serif" font-size="10.00">toInline</text>
</g>
<!-- Node6 -->
<g id="node6" class="node">
<title>Node6</title>
<g id="a_node6"><a xlink:title=" ">
<polygon fill="white" stroke="#bfbfbf" points="50.5,-69.5 50.5,-88.5 92.5,-88.5 92.5,-69.5 50.5,-69.5"/>
<text text-anchor="middle" x="71.5" y="-76.5" font-family="Helvetica,sans-Serif" font-size="10.00">String</text>
</a>
</g>
</g>
<!-- Node6&#45;&gt;Node2 -->
<g id="edge5" class="edge">
<title>Node6&#45;&gt;Node2</title>
<path fill="none" stroke="#9a32cd" stroke-dasharray="5,2" d="M98.05,-64.66C141.1,-41.88 231.43,0 313.5,0 313.5,0 313.5,0 1023,0 1090.26,0 1106.74,-37.53 1140,-96 1171,-150.5 1184.68,-355.05 1187.45,-402.24"/>
<polygon fill="#9a32cd" stroke="#9a32cd" points="96.27,-61.65 89.12,-69.47 99.59,-67.81 96.27,-61.65"/>
<text text-anchor="middle" x="722.5" y="-3" font-family="Helvetica,sans-Serif" font-size="10.00"> MOD_COMPILE</text>
</g>
<!-- Node6&#45;&gt;Node9 -->
<g id="edge9" class="edge">
<title>Node6&#45;&gt;Node9</title>
<path fill="none" stroke="#9a32cd" stroke-dasharray="5,2" d="M102.77,-75.66C141.44,-72.78 209.41,-72.45 260,-98 282.22,-109.22 299.64,-133.83 308.03,-147.45"/>
<polygon fill="#9a32cd" stroke="#9a32cd" points="102.35,-72.18 92.68,-76.52 102.94,-79.16 102.35,-72.18"/>
<text text-anchor="middle" x="210.5" y="-145" font-family="Helvetica,sans-Serif" font-size="10.00"> DELIM_LEVELS</text>
<text text-anchor="middle" x="210.5" y="-134" font-family="Helvetica,sans-Serif" font-size="10.00">DELIM_NAMES</text>
<text text-anchor="middle" x="210.5" y="-123" font-family="Helvetica,sans-Serif" font-size="10.00">MOD_DEFAULT</text>
<text text-anchor="middle" x="210.5" y="-112" font-family="Helvetica,sans-Serif" font-size="10.00">OUT_DELIM_NAMES</text>
<text text-anchor="middle" x="210.5" y="-101" font-family="Helvetica,sans-Serif" font-size="10.00">USAGE_STR</text>
</g>
<!-- Node6&#45;&gt;Node11 -->
<g id="edge14" class="edge">
<title>Node6&#45;&gt;Node11</title>
<path fill="none" stroke="#9a32cd" stroke-dasharray="5,2" d="M101.07,-93.63C115.89,-102.68 132.94,-115.71 143,-132 166.49,-170.06 148.11,-188.18 161,-231 199.05,-357.4 193.91,-402.24 278,-504 282.64,-509.62 288.94,-514.45 294.93,-518.28"/>
<polygon fill="#9a32cd" stroke="#9a32cd" points="102.63,-90.48 92.22,-88.5 99.12,-96.54 102.63,-90.48"/>
<text text-anchor="middle" x="210.5" y="-483" font-family="Helvetica,sans-Serif" font-size="10.00"> STEMSTR</text>
</g>
<!-- Node6&#45;&gt;Node15 -->
<g id="edge20" class="edge">
<title>Node6&#45;&gt;Node15</title>
<path fill="none" stroke="#9a32cd" stroke-dasharray="5,2" d="M102.9,-73.77C140.25,-68.29 205.36,-61.77 260,-72 368.71,-92.35 423.06,-75.52 492,-162 526.44,-205.2 472.87,-244.09 510,-285 519.9,-295.91 534.98,-301.02 549.17,-303.27"/>
<polygon fill="#9a32cd" stroke="#9a32cd" points="102.04,-70.37 92.69,-75.35 103.11,-77.28 102.04,-70.37"/>
<text text-anchor="middle" x="314.5" y="-99" font-family="Helvetica,sans-Serif" font-size="10.00"> MOD_AST</text>
<text text-anchor="middle" x="314.5" y="-88" font-family="Helvetica,sans-Serif" font-size="10.00">mod_</text>
</g>
<!-- Node6&#45;&gt;Node24 -->
<g id="edge30" class="edge">
<title>Node6&#45;&gt;Node24</title>
<path fill="none" stroke="#9a32cd" stroke-dasharray="5,2" d="M100.35,-93.72C115.1,-102.87 132.32,-115.95 143,-132 161.04,-159.1 135.68,-182.54 161,-203 226.72,-256.11 278.86,-166 351,-210 364.93,-218.5 356.94,-231 369,-242 413.24,-282.35 445.92,-258.75 492,-297 502.81,-305.98 498.43,-315.02 510,-323 527.46,-335.04 551.78,-339.47 568.38,-341.09"/>
<polygon fill="#9a32cd" stroke="#9a32cd" points="101.96,-90.61 91.57,-88.54 98.4,-96.64 101.96,-90.61"/>
<text text-anchor="middle" x="314.5" y="-290" font-family="Helvetica,sans-Serif" font-size="10.00"> childLPAD</text>
<text text-anchor="middle" x="314.5" y="-279" font-family="Helvetica,sans-Serif" font-size="10.00">childRPAD</text>
<text text-anchor="middle" x="314.5" y="-268" font-family="Helvetica,sans-Serif" font-size="10.00">name</text>
<text text-anchor="middle" x="314.5" y="-257" font-family="Helvetica,sans-Serif" font-size="10.00">operSTR</text>
<text text-anchor="middle" x="314.5" y="-246" font-family="Helvetica,sans-Serif" font-size="10.00">parenLPAD</text>
<text text-anchor="middle" x="314.5" y="-235" font-family="Helvetica,sans-Serif" font-size="10.00">parenLPAR</text>
<text text-anchor="middle" x="314.5" y="-224" font-family="Helvetica,sans-Serif" font-size="10.00">parenRPAD</text>
<text text-anchor="middle" x="314.5" y="-213" font-family="Helvetica,sans-Serif" font-size="10.00">parenRPAR</text>
</g>
<!-- Node7 -->
<g id="node7" class="node">
<title>Node7</title>
<g id="a_node7"><a xlink:href="interfaceparse_1_1_parsable.html" target="_top" xlink:title=" ">
<polygon fill="white" stroke="black" points="994.5,-383.5 994.5,-402.5 1049.5,-402.5 1049.5,-383.5 994.5,-383.5"/>
<text text-anchor="middle" x="1022" y="-390.5" font-family="Helvetica,sans-Serif" font-size="10.00">Parsable</text>
</a>
</g>
</g>
<!-- Node7&#45;&gt;Node2 -->
<g id="edge6" class="edge">
<title>Node7&#45;&gt;Node2</title>
<path fill="none" stroke="#9a32cd" stroke-dasharray="5,2" d="M1060,-396.98C1083.03,-399.49 1113.25,-402.84 1140,-406 1145.75,-406.68 1151.89,-407.43 1157.79,-408.16"/>
<polygon fill="#9a32cd" stroke="#9a32cd" points="1060.28,-393.49 1049.96,-395.89 1059.53,-400.45 1060.28,-393.49"/>
<text text-anchor="middle" x="1113" y="-409" font-family="Helvetica,sans-Serif" font-size="10.00"> AP</text>
</g>
<!-- Node8 -->
<g id="node8" class="node">
<title>Node8</title>
<g id="a_node8"><a xlink:href="interfaceformat_1_1_node_formattable.html" target="_top" xlink:title="XFormattableインタフェースをもつ構造オブジェクトの清書出力器．">
<polygon fill="white" stroke="black" points="976,-345.5 976,-364.5 1068,-364.5 1068,-345.5 976,-345.5"/>
<text text-anchor="middle" x="1022" y="-352.5" font-family="Helvetica,sans-Serif" font-size="10.00">NodeFormattable</text>
</a>
</g>
</g>
<!-- Node8&#45;&gt;Node2 -->
<g id="edge7" class="edge">
<title>Node8&#45;&gt;Node2</title>
<path fill="none" stroke="#9a32cd" stroke-dasharray="5,2" d="M1077.9,-365.95C1097.82,-370.73 1120.27,-377.08 1140,-385 1151.71,-389.7 1164.11,-396.73 1173.37,-402.44"/>
<polygon fill="#9a32cd" stroke="#9a32cd" points="1078.58,-362.51 1068.04,-363.66 1076.99,-369.33 1078.58,-362.51"/>
<text text-anchor="middle" x="1113" y="-388" font-family="Helvetica,sans-Serif" font-size="10.00"> NF</text>
</g>
<!-- Node9&#45;&gt;Node2 -->
<g id="edge8" class="edge">
<title>Node9&#45;&gt;Node2</title>
<path fill="none" stroke="#9a32cd" stroke-dasharray="5,2" d="M343.18,-142.91C391.4,-119.7 494.5,-76 587,-76 587,-76 587,-76 1023,-76 1172.47,-76 1186.55,-347.22 1187.87,-402.31"/>
<polygon fill="#9a32cd" stroke="#9a32cd" points="341.46,-139.85 334.02,-147.39 344.54,-146.14 341.46,-139.85"/>
<text text-anchor="middle" x="833.5" y="-79" font-family="Helvetica,sans-Serif" font-size="10.00"> LOG</text>
</g>
<!-- Node9&#45;&gt;Node15 -->
<g id="edge21" class="edge">
<title>Node9&#45;&gt;Node15</title>
<path fill="none" stroke="#9a32cd" stroke-dasharray="5,2" d="M357.21,-163.02C397.16,-170.93 456.46,-188.62 492,-227 510.34,-246.8 490.36,-266.49 510,-285 520.52,-294.92 535.36,-299.9 549.22,-302.32"/>
<polygon fill="#9a32cd" stroke="#9a32cd" points="357.72,-159.55 347.25,-161.17 356.44,-166.43 357.72,-159.55"/>
<text text-anchor="middle" x="430.5" y="-230" font-family="Helvetica,sans-Serif" font-size="10.00"> LOG</text>
</g>
<!-- Node10 -->
<g id="node10" class="node">
<title>Node10</title>
<g id="a_node10"><a xlink:title=" ">
<polygon fill="white" stroke="#bfbfbf" points="0,-142 0,-172 143,-172 143,-142 0,-142"/>
<text text-anchor="start" x="8" y="-160" font-family="Helvetica,sans-Serif" font-size="10.00">Map&lt; String, util.TraceLevel.</text>
<text text-anchor="middle" x="71.5" y="-149" font-family="Helvetica,sans-Serif" font-size="10.00">Level &gt;</text>
</a>
</g>
</g>
<!-- Node10&#45;&gt;Node9 -->
<g id="edge10" class="edge">
<title>Node10&#45;&gt;Node9</title>
<path fill="none" stroke="#9a32cd" stroke-dasharray="5,2" d="M153.32,-157C197.38,-157 249.4,-157 281.93,-157"/>
<polygon fill="#9a32cd" stroke="#9a32cd" points="153.18,-153.5 143.18,-157 153.18,-160.5 153.18,-153.5"/>
<text text-anchor="middle" x="210.5" y="-160" font-family="Helvetica,sans-Serif" font-size="10.00"> mapLevel</text>
</g>
<!-- Node11&#45;&gt;Node2 -->
<g id="edge13" class="edge">
<title>Node11&#45;&gt;Node2</title>
<path fill="none" stroke="#9a32cd" stroke-dasharray="5,2" d="M360.45,-527.73C414.29,-527.44 507.24,-527 587,-527 587,-527 587,-527 1023,-527 1096.33,-527 1160.38,-449.62 1181.03,-421.8"/>
<polygon fill="#9a32cd" stroke="#9a32cd" points="360.2,-524.23 350.21,-527.79 360.23,-531.23 360.2,-524.23"/>
<text text-anchor="middle" x="833.5" y="-530" font-family="Helvetica,sans-Serif" font-size="10.00"> repo</text>
</g>
<!-- Node12 -->
<g id="node12" class="node">
<title>Node12</title>
<g id="a_node12"><a xlink:href="classutil_1_1_stack_base.html" target="_top" xlink:title=" ">
<polygon fill="white" stroke="black" points="17.5,-659.5 17.5,-678.5 125.5,-678.5 125.5,-659.5 17.5,-659.5"/>
<text text-anchor="middle" x="71.5" y="-666.5" font-family="Helvetica,sans-Serif" font-size="10.00">StackBase&lt; String &gt;</text>
</a>
</g>
</g>
<!-- Node12&#45;&gt;Node11 -->
<g id="edge15" class="edge">
<title>Node12&#45;&gt;Node11</title>
<path fill="none" stroke="#9a32cd" stroke-dasharray="5,2" d="M97.88,-654.15C147.46,-625.15 255.9,-561.7 297.14,-537.57"/>
<polygon fill="#9a32cd" stroke="#9a32cd" points="95.93,-651.24 89.06,-659.31 99.46,-657.28 95.93,-651.24"/>
<text text-anchor="middle" x="210.5" y="-618" font-family="Helvetica,sans-Serif" font-size="10.00"> NS</text>
</g>
<!-- Node13&#45;&gt;Node2 -->
<g id="edge17" class="edge">
<title>Node13&#45;&gt;Node2</title>
<path fill="none" stroke="#9a32cd" stroke-dasharray="5,2" d="M1048.15,-301.95C1073.6,-304.09 1112.96,-310.73 1140,-331 1164.85,-349.63 1179.25,-385.23 1185.03,-402.34"/>
<polygon fill="#9a32cd" stroke="#9a32cd" points="1048.05,-298.44 1037.84,-301.27 1047.59,-305.42 1048.05,-298.44"/>
<text text-anchor="middle" x="1113" y="-356" font-family="Helvetica,sans-Serif" font-size="10.00"> VAR_FLEN</text>
<text text-anchor="middle" x="1113" y="-345" font-family="Helvetica,sans-Serif" font-size="10.00">VAR_FPAR</text>
<text text-anchor="middle" x="1113" y="-334" font-family="Helvetica,sans-Serif" font-size="10.00">VAR_FUNC</text>
</g>
<!-- Node14 -->
<g id="node14" class="node">
<title>Node14</title>
<g id="a_node14"><a xlink:href="classast_1_1_ast_node.html" target="_top" xlink:title="タグなしの順アクセスの子供をもてる抽象構文木のノードのクラス。">
<polygon fill="white" stroke="black" points="806,-248.5 806,-267.5 861,-267.5 861,-248.5 806,-248.5"/>
<text text-anchor="middle" x="833.5" y="-255.5" font-family="Helvetica,sans-Serif" font-size="10.00">AstNode</text>
</a>
</g>
</g>
<!-- Node14&#45;&gt;Node13 -->
<g id="edge18" class="edge">
<title>Node14&#45;&gt;Node13</title>
<path fill="none" stroke="midnightblue" d="M871.15,-260.96C912.37,-268.35 977.33,-283.87 1006.25,-293.74"/>
<polygon fill="midnightblue" stroke="midnightblue" points="871.67,-257.49 861.22,-259.26 870.49,-264.39 871.67,-257.49"/>
</g>
<!-- Node14&#45;&gt;Node13 -->
<g id="edge34" class="edge">
<title>Node14&#45;&gt;Node13</title>
<path fill="none" stroke="midnightblue" d="M865.97,-270.46C906.74,-282.3 976.18,-297.86 1006.32,-301.46"/>
<polygon fill="midnightblue" stroke="midnightblue" points="866.84,-267.07 856.26,-267.54 864.83,-273.77 866.84,-267.07"/>
</g>
<!-- Node15&#45;&gt;Node14 -->
<g id="edge19" class="edge">
<title>Node15&#45;&gt;Node14</title>
<path fill="none" stroke="midnightblue" d="M637,-296.78C671.59,-291.37 719.31,-283.46 761,-275 775.88,-271.98 792.38,-268.09 805.77,-264.8"/>
<polygon fill="midnightblue" stroke="midnightblue" points="636.06,-293.39 626.71,-298.38 637.13,-300.3 636.06,-293.39"/>
</g>
<!-- Node18 -->
<g id="node16" class="node">
<title>Node18</title>
<g id="a_node16"><a xlink:href="interfaceast_1_1_node.html" target="_top" xlink:title=" ">
<polygon fill="white" stroke="red" points="568,-256.5 568,-275.5 608,-275.5 608,-256.5 568,-256.5"/>
<text text-anchor="middle" x="588" y="-263.5" font-family="Helvetica,sans-Serif" font-size="10.00">Node</text>
</a>
</g>
</g>
<!-- Node18&#45;&gt;Node14 -->
<g id="edge24" class="edge">
<title>Node18&#45;&gt;Node14</title>
<path fill="none" stroke="midnightblue" d="M618.39,-265.03C666.18,-263.46 759.98,-260.38 805.9,-258.87"/>
<polygon fill="midnightblue" stroke="midnightblue" points="617.99,-261.55 608.11,-265.37 618.22,-268.54 617.99,-261.55"/>
</g>
<!-- Node20 -->
<g id="node17" class="node">
<title>Node20</title>
<g id="a_node17"><a xlink:href="interfaceformat_1_1_x_formattable_1_1_navigatable.html" target="_top" xlink:title="木構造の分岐ノードとして清書可能なオブジェクトのクラス">
<polygon fill="white" stroke="red" points="523,-218.5 523,-237.5 653,-237.5 653,-218.5 523,-218.5"/>
<text text-anchor="middle" x="588" y="-225.5" font-family="Helvetica,sans-Serif" font-size="10.00">XFormattable.Navigatable</text>
</a>
</g>
</g>
<!-- Node20&#45;&gt;Node14 -->
<g id="edge25" class="edge">
<title>Node20&#45;&gt;Node14</title>
<path fill="none" stroke="midnightblue" d="M663.41,-237.17C711.71,-243.12 771.79,-250.52 805.78,-254.71"/>
<polygon fill="midnightblue" stroke="midnightblue" points="663.65,-233.67 653.3,-235.92 662.79,-240.62 663.65,-233.67"/>
</g>
<!-- Node21 -->
<g id="node18" class="node">
<title>Node21</title>
<g id="a_node18"><a xlink:href="interfaceformat_1_1_x_formattable_1_1_typed_formattable.html" target="_top" xlink:title="ノードの型情報をもつ書式出力可能なオブジェクトのインタフェース．">
<polygon fill="white" stroke="red" points="510,-180.5 510,-199.5 666,-199.5 666,-180.5 510,-180.5"/>
<text text-anchor="middle" x="588" y="-187.5" font-family="Helvetica,sans-Serif" font-size="10.00">XFormattable.TypedFormattable</text>
</a>
</g>
</g>
<!-- Node21&#45;&gt;Node14 -->
<g id="edge26" class="edge">
<title>Node21&#45;&gt;Node14</title>
<path fill="none" stroke="midnightblue" d="M639.02,-202.07C648.02,-204.32 657.3,-206.69 666,-209 708.43,-220.26 718.91,-223.54 761,-236 775.82,-240.39 792.31,-245.45 805.72,-249.61"/>
<polygon fill="midnightblue" stroke="midnightblue" points="639.58,-198.61 629.03,-199.6 637.9,-205.4 639.58,-198.61"/>
</g>
<!-- Node22 -->
<g id="node19" class="node">
<title>Node22</title>
<g id="a_node19"><a xlink:title=" ">
<polygon fill="white" stroke="#bfbfbf" points="543,-142.5 543,-161.5 633,-161.5 633,-142.5 543,-142.5"/>
<text text-anchor="middle" x="588" y="-149.5" font-family="Helvetica,sans-Serif" font-size="10.00">List&lt; ast.Node &gt;</text>
</a>
</g>
</g>
<!-- Node22&#45;&gt;Node14 -->
<g id="edge27" class="edge">
<title>Node22&#45;&gt;Node14</title>
<path fill="none" stroke="#9a32cd" stroke-dasharray="5,2" d="M643.09,-160.41C678.17,-167.37 724.05,-179.37 761,-199 786.02,-212.29 810.43,-235.19 823.25,-248.21"/>
<polygon fill="#9a32cd" stroke="#9a32cd" points="643.52,-156.93 633.04,-158.5 642.21,-163.81 643.52,-156.93"/>
<text text-anchor="middle" x="722.5" y="-202" font-family="Helvetica,sans-Serif" font-size="10.00"> children</text>
</g>
<!-- Node23 -->
<g id="node20" class="node">
<title>Node23</title>
<g id="a_node20"><a xlink:title=" ">
<polygon fill="white" stroke="#bfbfbf" points="562,-104.5 562,-123.5 614,-123.5 614,-104.5 562,-104.5"/>
<text text-anchor="middle" x="588" y="-111.5" font-family="Helvetica,sans-Serif" font-size="10.00">Boolean</text>
</a>
</g>
</g>
<!-- Node23&#45;&gt;Node14 -->
<g id="edge28" class="edge">
<title>Node23&#45;&gt;Node14</title>
<path fill="none" stroke="#9a32cd" stroke-dasharray="5,2" d="M624.59,-115.7C661.59,-119.01 719.76,-128.72 761,-157 795.9,-180.94 819.43,-227.84 828.42,-248.19"/>
<polygon fill="#9a32cd" stroke="#9a32cd" points="624.53,-112.18 614.29,-114.89 623.98,-119.16 624.53,-112.18"/>
<text text-anchor="middle" x="722.5" y="-160" font-family="Helvetica,sans-Serif" font-size="10.00"> DEBUG_CHILD</text>
</g>
<!-- Node24&#45;&gt;Node14 -->
<g id="edge29" class="edge">
<title>Node24&#45;&gt;Node14</title>
<path fill="none" stroke="#9a32cd" stroke-dasharray="5,2" d="M617.64,-335.26C632.17,-331.75 650.06,-327.31 666,-323 708.49,-311.5 721.48,-314.39 761,-295 769.86,-290.65 770.45,-286.93 779,-282 788.35,-276.6 799.12,-271.56 808.55,-267.51"/>
<polygon fill="#9a32cd" stroke="#9a32cd" points="616.64,-331.89 607.73,-337.63 618.27,-338.7 616.64,-331.89"/>
<text text-anchor="middle" x="722.5" y="-321" font-family="Helvetica,sans-Serif" font-size="10.00"> sty</text>
</g>
<!-- Node25 -->
<g id="node22" class="node">
<title>Node25</title>
<g id="a_node22"><a xlink:href="interfacemachine_1_1_assignable.html" target="_top" xlink:title="変数（チャネルとコンテナの名前）の抽象化">
<polygon fill="white" stroke="black" points="801,-291.5 801,-310.5 866,-310.5 866,-291.5 801,-291.5"/>
<text text-anchor="middle" x="833.5" y="-298.5" font-family="Helvetica,sans-Serif" font-size="10.00">Assignable</text>
</a>
</g>
</g>
<!-- Node25&#45;&gt;Node13 -->
<g id="edge33" class="edge">
<title>Node25&#45;&gt;Node13</title>
<path fill="none" stroke="midnightblue" d="M876.17,-295.27C917.44,-293.45 978.37,-294.07 1006.18,-297.14"/>
<polygon fill="midnightblue" stroke="midnightblue" points="875.94,-291.77 866.14,-295.78 876.3,-298.77 875.94,-291.77"/>
</g>
<!-- Node25&#45;&gt;Node13 -->
<g id="edge35" class="edge">
<title>Node25&#45;&gt;Node13</title>
<path fill="none" stroke="midnightblue" d="M876.17,-306.73C917.44,-308.55 978.37,-307.93 1006.18,-304.86"/>
<polygon fill="midnightblue" stroke="midnightblue" points="876.3,-303.23 866.14,-306.22 875.94,-310.23 876.3,-303.23"/>
</g>
</g>
</svg>
