<?xml version="1.0" encoding="UTF-8" standalone="no"?>
<!DOCTYPE svg PUBLIC "-//W3C//DTD SVG 1.1//EN"
 "http://www.w3.org/Graphics/SVG/1.1/DTD/svg11.dtd">
<!-- Generated by graphviz version 2.47.1 (20210417.1919)
 -->
<!-- Title: Block Pages: 1 -->
<svg width="1264pt" height="870pt"
 viewBox="0.00 0.00 1264.00 870.00" xmlns="http://www.w3.org/2000/svg" xmlns:xlink="http://www.w3.org/1999/xlink">
<g id="graph0" class="graph" transform="scale(1 1) rotate(0) translate(4 866)">
<title>Block</title>
<polygon fill="white" stroke="transparent" points="-4,4 -4,-866 1260,-866 1260,4 -4,4"/>
<!-- Node1 -->
<g id="node1" class="node">
<title>Node1</title>
<g id="a_node1"><a xlink:title="抽象構文木のステップ式のクラス.">
<polygon fill="#bfbfbf" stroke="black" points="1215,-438.5 1215,-457.5 1256,-457.5 1256,-438.5 1215,-438.5"/>
<text text-anchor="middle" x="1235.5" y="-445.5" font-family="Helvetica,sans-Serif" font-size="10.00">Block</text>
</a>
</g>
</g>
<!-- Node2 -->
<g id="node2" class="node">
<title>Node2</title>
<g id="a_node2"><a xlink:href="classast_1_1_block_base.html" target="_top" xlink:title="抽象構文木のステップ式のクラス.">
<polygon fill="white" stroke="black" points="1114,-438.5 1114,-457.5 1178,-457.5 1178,-438.5 1114,-438.5"/>
<text text-anchor="middle" x="1146" y="-445.5" font-family="Helvetica,sans-Serif" font-size="10.00">BlockBase</text>
</a>
</g>
</g>
<!-- Node2&#45;&gt;Node1 -->
<g id="edge1" class="edge">
<title>Node2&#45;&gt;Node1</title>
<path fill="none" stroke="midnightblue" d="M1188.11,-448C1197.47,-448 1206.99,-448 1214.95,-448"/>
<polygon fill="midnightblue" stroke="midnightblue" points="1188.1,-444.5 1178.1,-448 1188.1,-451.5 1188.1,-444.5"/>
</g>
<!-- Node3 -->
<g id="node3" class="node">
<title>Node3</title>
<g id="a_node3"><a xlink:href="classast_1_1_ast_node_tagged.html" target="_top" xlink:title="タグ付きの子をもつノードのクラス．利用者は自前で，追加する子のField名と，Getter，型を設定する．読み出しは子の添字でも行える．">
<polygon fill="white" stroke="black" points="789,-661.5 789,-680.5 875,-680.5 875,-661.5 789,-661.5"/>
<text text-anchor="middle" x="832" y="-668.5" font-family="Helvetica,sans-Serif" font-size="10.00">AstNodeTagged</text>
</a>
</g>
</g>
<!-- Node3&#45;&gt;Node2 -->
<g id="edge2" class="edge">
<title>Node3&#45;&gt;Node2</title>
<path fill="none" stroke="midnightblue" d="M885.45,-661.29C943.74,-648.01 1037.35,-618.89 1096,-561 1126.44,-530.96 1139.22,-478.89 1143.36,-457.54"/>
<polygon fill="midnightblue" stroke="midnightblue" points="884.36,-657.95 875.35,-663.52 885.87,-664.79 884.36,-657.95"/>
</g>
<!-- Node4 -->
<g id="node4" class="node">
<title>Node4</title>
<g id="a_node4"><a xlink:href="classast_1_1_ast_node.html" target="_top" xlink:title="タグなしの順アクセスの子供をもてる抽象構文木のノードのクラス。">
<polygon fill="white" stroke="black" points="571.5,-640.5 571.5,-659.5 626.5,-659.5 626.5,-640.5 571.5,-640.5"/>
<text text-anchor="middle" x="599" y="-647.5" font-family="Helvetica,sans-Serif" font-size="10.00">AstNode</text>
</a>
</g>
</g>
<!-- Node4&#45;&gt;Node3 -->
<g id="edge3" class="edge">
<title>Node4&#45;&gt;Node3</title>
<path fill="none" stroke="midnightblue" d="M637.17,-653.38C678.66,-657.15 745.65,-663.24 789,-667.18"/>
<polygon fill="midnightblue" stroke="midnightblue" points="637.23,-649.87 626.95,-652.45 636.59,-656.84 637.23,-649.87"/>
</g>
<!-- Node26 -->
<g id="node23" class="node">
<title>Node26</title>
<g id="a_node23"><a xlink:href="classast_1_1_ast_node_new.html" target="_top" xlink:title="実装置き換え用のノードのクラス。">
<polygon fill="white" stroke="black" points="794.5,-537.5 794.5,-556.5 869.5,-556.5 869.5,-537.5 794.5,-537.5"/>
<text text-anchor="middle" x="832" y="-544.5" font-family="Helvetica,sans-Serif" font-size="10.00">AstNodeNew</text>
</a>
</g>
</g>
<!-- Node4&#45;&gt;Node26 -->
<g id="edge26" class="edge">
<title>Node4&#45;&gt;Node26</title>
<path fill="none" stroke="midnightblue" d="M630.48,-636.41C677.88,-615.28 768.11,-575.04 809.4,-556.63"/>
<polygon fill="midnightblue" stroke="midnightblue" points="629.03,-633.23 621.32,-640.49 631.88,-639.62 629.03,-633.23"/>
</g>
<!-- Node5 -->
<g id="node5" class="node">
<title>Node5</title>
<g id="a_node5"><a xlink:href="classast_1_1_ast_node_base.html" target="_top" xlink:title=" ">
<polygon fill="white" stroke="red" points="285.5,-476.5 285.5,-495.5 362.5,-495.5 362.5,-476.5 285.5,-476.5"/>
<text text-anchor="middle" x="324" y="-483.5" font-family="Helvetica,sans-Serif" font-size="10.00">AstNodeBase</text>
</a>
</g>
</g>
<!-- Node5&#45;&gt;Node4 -->
<g id="edge4" class="edge">
<title>Node5&#45;&gt;Node4</title>
<path fill="none" stroke="midnightblue" d="M372.76,-496.5C409.56,-506.06 460.64,-522.6 500,-548 540.65,-574.23 576.77,-620.49 591.26,-640.42"/>
<polygon fill="midnightblue" stroke="midnightblue" points="373.34,-493.04 362.79,-493.99 371.63,-499.83 373.34,-493.04"/>
</g>
<!-- Node7 -->
<g id="node6" class="node">
<title>Node7</title>
<g id="a_node6"><a xlink:title=" ">
<polygon fill="white" stroke="#bfbfbf" points="0,-303.5 0,-322.5 83,-322.5 83,-303.5 0,-303.5"/>
<text text-anchor="middle" x="41.5" y="-310.5" font-family="Helvetica,sans-Serif" font-size="10.00">static ReportKt</text>
</a>
</g>
</g>
<!-- Node7&#45;&gt;Node5 -->
<g id="edge5" class="edge">
<title>Node7&#45;&gt;Node5</title>
<path fill="none" stroke="#9a32cd" stroke-dasharray="5,2" d="M59.11,-329.96C91.33,-361.86 165.87,-430.8 242,-467 255.44,-473.39 271.17,-477.71 285.18,-480.6"/>
<polygon fill="#9a32cd" stroke="#9a32cd" points="61.4,-327.3 51.85,-322.7 56.44,-332.25 61.4,-327.3"/>
<text text-anchor="middle" x="162.5" y="-460" font-family="Helvetica,sans-Serif" font-size="10.00"> repo</text>
</g>
<!-- Node35 -->
<g id="node32" class="node">
<title>Node35</title>
<g id="a_node32"><a xlink:href="classmachine_1_1_var_table.html" target="_top" xlink:title="@整数の表">
<polygon fill="white" stroke="black" points="572,-283.5 572,-302.5 626,-302.5 626,-283.5 572,-283.5"/>
<text text-anchor="middle" x="599" y="-290.5" font-family="Helvetica,sans-Serif" font-size="10.00">VarTable</text>
</a>
</g>
</g>
<!-- Node7&#45;&gt;Node35 -->
<g id="edge45" class="edge">
<title>Node7&#45;&gt;Node35</title>
<path fill="none" stroke="#9a32cd" stroke-dasharray="5,2" d="M61.92,-297.26C72.73,-289.52 86.84,-281.01 101,-277 275.02,-227.74 497.07,-269.82 571.99,-286.73"/>
<polygon fill="#9a32cd" stroke="#9a32cd" points="59.56,-294.65 53.68,-303.47 63.78,-300.25 59.56,-294.65"/>
<text text-anchor="middle" x="324" y="-263" font-family="Helvetica,sans-Serif" font-size="10.00"> repo</text>
</g>
<!-- Node9 -->
<g id="node7" class="node">
<title>Node9</title>
<g id="a_node7"><a xlink:title=" ">
<polygon fill="white" stroke="#bfbfbf" points="27,-83.5 27,-102.5 56,-102.5 56,-83.5 27,-83.5"/>
<text text-anchor="middle" x="41.5" y="-90.5" font-family="Helvetica,sans-Serif" font-size="10.00">int</text>
</a>
</g>
</g>
<!-- Node9&#45;&gt;Node2 -->
<g id="edge42" class="edge">
<title>Node9&#45;&gt;Node2</title>
<path fill="none" stroke="#9a32cd" stroke-dasharray="5,2" d="M65.23,-79.91C111.91,-54.29 222.65,0 323,0 323,0 323,0 992.5,0 1088.42,0 1136.23,-372.71 1143.9,-438.23"/>
<polygon fill="#9a32cd" stroke="#9a32cd" points="63.29,-76.98 56.26,-84.91 66.7,-83.09 63.29,-76.98"/>
<text text-anchor="middle" x="734.5" y="-3" font-family="Helvetica,sans-Serif" font-size="10.00"> funid_</text>
</g>
<!-- Node9&#45;&gt;Node5 -->
<g id="edge6" class="edge">
<title>Node9&#45;&gt;Node5</title>
<path fill="none" stroke="#9a32cd" stroke-dasharray="5,2" d="M45.32,-112.74C50.84,-145.14 65.75,-210.14 101,-252 141.66,-300.28 189.1,-270.4 224,-323 259.66,-376.74 198.87,-419.04 242,-467 252.82,-479.03 269.67,-484.17 285.21,-486.15"/>
<polygon fill="#9a32cd" stroke="#9a32cd" points="48.76,-112.07 43.74,-102.74 41.84,-113.16 48.76,-112.07"/>
<text text-anchor="middle" x="162.5" y="-359" font-family="Helvetica,sans-Serif" font-size="10.00"> BITMASK_PRINT_WIDTH</text>
<text text-anchor="middle" x="162.5" y="-348" font-family="Helvetica,sans-Serif" font-size="10.00">UNDEF</text>
<text text-anchor="middle" x="162.5" y="-337" font-family="Helvetica,sans-Serif" font-size="10.00">id_</text>
<text text-anchor="middle" x="162.5" y="-326" font-family="Helvetica,sans-Serif" font-size="10.00">numInstances</text>
</g>
<!-- Node27 -->
<g id="node24" class="node">
<title>Node27</title>
<g id="a_node24"><a xlink:href="classmachine_1_1_call_list.html" target="_top" xlink:title=" ">
<polygon fill="white" stroke="black" points="807,-161.5 807,-180.5 857,-180.5 857,-161.5 807,-161.5"/>
<text text-anchor="middle" x="832" y="-168.5" font-family="Helvetica,sans-Serif" font-size="10.00">CallList</text>
</a>
</g>
</g>
<!-- Node9&#45;&gt;Node27 -->
<g id="edge32" class="edge">
<title>Node9&#45;&gt;Node27</title>
<path fill="none" stroke="#9a32cd" stroke-dasharray="5,2" d="M66.13,-87.52C76.72,-85.33 89.42,-83.08 101,-82 155.43,-76.93 169.33,-81.85 224,-82 304.89,-82.22 325.21,-78.92 406,-83 447.92,-85.12 458.6,-85.11 500,-92 616.26,-111.34 752.34,-148.52 806.74,-163.98"/>
<polygon fill="#9a32cd" stroke="#9a32cd" points="65.38,-84.1 56.34,-89.64 66.86,-90.94 65.38,-84.1"/>
<text text-anchor="middle" x="462" y="-95" font-family="Helvetica,sans-Serif" font-size="10.00"> UNDEF</text>
</g>
<!-- Node29 -->
<g id="node26" class="node">
<title>Node29</title>
<g id="a_node26"><a xlink:href="classmachine_1_1_id_mask.html" target="_top" xlink:title="@IDのマスク">
<polygon fill="white" stroke="black" points="574.5,-161.5 574.5,-180.5 623.5,-180.5 623.5,-161.5 574.5,-161.5"/>
<text text-anchor="middle" x="599" y="-168.5" font-family="Helvetica,sans-Serif" font-size="10.00">IdMask</text>
</a>
</g>
</g>
<!-- Node9&#45;&gt;Node29 -->
<g id="edge35" class="edge">
<title>Node9&#45;&gt;Node29</title>
<path fill="none" stroke="#9a32cd" stroke-dasharray="5,2" d="M66.25,-90.99C124.68,-86.62 279.79,-78.4 406,-102 471.28,-114.21 543.93,-145.55 578.14,-161.45"/>
<polygon fill="#9a32cd" stroke="#9a32cd" points="65.89,-87.51 56.2,-91.78 66.44,-94.49 65.89,-87.51"/>
<text text-anchor="middle" x="324" y="-127" font-family="Helvetica,sans-Serif" font-size="10.00"> OUTPUT_MIN_BIT_WIDTH</text>
<text text-anchor="middle" x="324" y="-116" font-family="Helvetica,sans-Serif" font-size="10.00">maxState</text>
<text text-anchor="middle" x="324" y="-105" font-family="Helvetica,sans-Serif" font-size="10.00">numStates</text>
</g>
<!-- Node9&#45;&gt;Node35 -->
<g id="edge46" class="edge">
<title>Node9&#45;&gt;Node35</title>
<path fill="none" stroke="#9a32cd" stroke-dasharray="5,2" d="M63.65,-109.1C98.71,-134.92 171.95,-185.3 242,-211 311.42,-236.47 333.38,-225.08 406,-239 447.95,-247.04 458.86,-247.53 500,-259 525.33,-266.06 553.64,-276.12 573.3,-283.47"/>
<polygon fill="#9a32cd" stroke="#9a32cd" points="65.31,-105.97 55.2,-102.8 61.13,-111.58 65.31,-105.97"/>
<text text-anchor="middle" x="324" y="-242" font-family="Helvetica,sans-Serif" font-size="10.00"> UNDEF</text>
</g>
<!-- Node11 -->
<g id="node8" class="node">
<title>Node11</title>
<g id="a_node8"><a xlink:title=" ">
<polygon fill="white" stroke="#bfbfbf" points="16.5,-495.5 16.5,-514.5 66.5,-514.5 66.5,-495.5 16.5,-495.5"/>
<text text-anchor="middle" x="41.5" y="-502.5" font-family="Helvetica,sans-Serif" font-size="10.00">boolean</text>
</a>
</g>
</g>
<!-- Node11&#45;&gt;Node2 -->
<g id="edge49" class="edge">
<title>Node11&#45;&gt;Node2</title>
<path fill="none" stroke="#9a32cd" stroke-dasharray="5,2" d="M71.47,-491.02C109.6,-473.32 179.15,-443.4 242,-429 337.23,-407.18 363.3,-410 461,-410 461,-410 461,-410 992.5,-410 1039.43,-410 1092.14,-427.15 1121.68,-438.41"/>
<polygon fill="#9a32cd" stroke="#9a32cd" points="69.6,-488.04 62.03,-495.46 72.57,-494.37 69.6,-488.04"/>
<text text-anchor="middle" x="734.5" y="-413" font-family="Helvetica,sans-Serif" font-size="10.00"> DEBUG_REPO</text>
</g>
<!-- Node11&#45;&gt;Node3 -->
<g id="edge21" class="edge">
<title>Node11&#45;&gt;Node3</title>
<path fill="none" stroke="#9a32cd" stroke-dasharray="5,2" d="M64.79,-520.16C75.33,-526.64 88.37,-533.69 101,-538 230.64,-582.18 270.79,-560.16 406,-582 528.13,-601.72 559.2,-604.32 680,-631 721.05,-640.07 767.74,-652.82 798.2,-661.47"/>
<polygon fill="#9a32cd" stroke="#9a32cd" points="66.54,-517.13 56.23,-514.69 62.77,-523.03 66.54,-517.13"/>
<text text-anchor="middle" x="462" y="-599" font-family="Helvetica,sans-Serif" font-size="10.00"> DEBUG_REPO</text>
</g>
<!-- Node11&#45;&gt;Node5 -->
<g id="edge7" class="edge">
<title>Node11&#45;&gt;Node5</title>
<path fill="none" stroke="#9a32cd" stroke-dasharray="5,2" d="M76.76,-501.23C84.71,-500.43 93.15,-499.63 101,-499 165.65,-493.79 241.06,-489.82 285.26,-487.71"/>
<polygon fill="#9a32cd" stroke="#9a32cd" points="76.26,-497.77 66.67,-502.28 76.98,-504.73 76.26,-497.77"/>
<text text-anchor="middle" x="162.5" y="-502" font-family="Helvetica,sans-Serif" font-size="10.00"> DEBUG_REPO</text>
</g>
<!-- Node19 -->
<g id="node16" class="node">
<title>Node19</title>
<g id="a_node16"><a xlink:href="classformat_1_1_style.html" target="_top" xlink:title="ノードの表示スタイルに関するプロパティのクラス.">
<polygon fill="white" stroke="red" points="304.5,-640.5 304.5,-659.5 343.5,-659.5 343.5,-640.5 304.5,-640.5"/>
<text text-anchor="middle" x="324" y="-647.5" font-family="Helvetica,sans-Serif" font-size="10.00">Style</text>
</a>
</g>
</g>
<!-- Node11&#45;&gt;Node19 -->
<g id="edge17" class="edge">
<title>Node11&#45;&gt;Node19</title>
<path fill="none" stroke="#9a32cd" stroke-dasharray="5,2" d="M53.81,-523.47C64.32,-539.29 81.29,-561.73 101,-576 166.32,-623.3 263.81,-641.74 304.32,-647.64"/>
<polygon fill="#9a32cd" stroke="#9a32cd" points="56.47,-521.13 48.13,-514.6 50.57,-524.91 56.47,-521.13"/>
<text text-anchor="middle" x="162.5" y="-644" font-family="Helvetica,sans-Serif" font-size="10.00"> preoperSupress</text>
<text text-anchor="middle" x="162.5" y="-633" font-family="Helvetica,sans-Serif" font-size="10.00">toInline</text>
</g>
<!-- Node25 -->
<g id="node22" class="node">
<title>Node25</title>
<g id="a_node22"><a xlink:href="classast_1_1_sent_list.html" target="_top" xlink:title="文Sentenceのリスト.">
<polygon fill="white" stroke="black" points="965,-522.5 965,-541.5 1018,-541.5 1018,-522.5 965,-522.5"/>
<text text-anchor="middle" x="991.5" y="-529.5" font-family="Helvetica,sans-Serif" font-size="10.00">SentList</text>
</a>
</g>
</g>
<!-- Node11&#45;&gt;Node25 -->
<g id="edge28" class="edge">
<title>Node11&#45;&gt;Node25</title>
<path fill="none" stroke="#9a32cd" stroke-dasharray="5,2" d="M76.76,-508.29C84.71,-508.95 93.14,-509.57 101,-510 444.59,-528.66 531.05,-518.05 875,-528 905.89,-528.89 941.41,-530.16 964.81,-531.03"/>
<polygon fill="#9a32cd" stroke="#9a32cd" points="76.94,-504.79 66.67,-507.4 76.33,-511.76 76.94,-504.79"/>
<text text-anchor="middle" x="599" y="-526" font-family="Helvetica,sans-Serif" font-size="10.00"> DEBUG_CHILD</text>
</g>
<!-- Node11&#45;&gt;Node35 -->
<g id="edge48" class="edge">
<title>Node11&#45;&gt;Node35</title>
<path fill="none" stroke="#9a32cd" stroke-dasharray="5,2" d="M48.29,-485.57C56.28,-462.27 72.95,-423.75 101,-403 146.07,-369.66 179.5,-409.1 224,-375 237.57,-364.6 227.98,-350.78 242,-341 345.84,-268.58 508.85,-280.83 571.89,-289.01"/>
<polygon fill="#9a32cd" stroke="#9a32cd" points="44.87,-484.78 45.14,-495.37 51.54,-486.92 44.87,-484.78"/>
<text text-anchor="middle" x="324" y="-344" font-family="Helvetica,sans-Serif" font-size="10.00"> DEBUG_REPO</text>
</g>
<!-- Node12 -->
<g id="node9" class="node">
<title>Node12</title>
<g id="a_node9"><a xlink:href="interfaceast_1_1_node.html" target="_top" xlink:title=" ">
<polygon fill="white" stroke="black" points="304,-678.5 304,-697.5 344,-697.5 344,-678.5 304,-678.5"/>
<text text-anchor="middle" x="324" y="-685.5" font-family="Helvetica,sans-Serif" font-size="10.00">Node</text>
</a>
</g>
</g>
<!-- Node12&#45;&gt;Node4 -->
<g id="edge8" class="edge">
<title>Node12&#45;&gt;Node4</title>
<path fill="none" stroke="midnightblue" d="M354.12,-684.36C388.87,-679.98 448.72,-672.29 500,-665 524.2,-661.56 551.7,-657.32 571.4,-654.23"/>
<polygon fill="midnightblue" stroke="midnightblue" points="353.67,-680.89 344.18,-685.61 354.54,-687.84 353.67,-680.89"/>
</g>
<!-- Node13 -->
<g id="node10" class="node">
<title>Node13</title>
<g id="a_node10"><a xlink:href="interfaceformat_1_1_x_formattable.html" target="_top" xlink:title="入れ子フォーマット出力可能なオブジェクトのインタフェース。">
<polygon fill="white" stroke="black" points="4,-678.5 4,-697.5 79,-697.5 79,-678.5 4,-678.5"/>
<text text-anchor="middle" x="41.5" y="-685.5" font-family="Helvetica,sans-Serif" font-size="10.00">XFormattable</text>
</a>
</g>
</g>
<!-- Node13&#45;&gt;Node12 -->
<g id="edge9" class="edge">
<title>Node13&#45;&gt;Node12</title>
<path fill="none" stroke="midnightblue" d="M89.17,-688C151.71,-688 259.9,-688 303.73,-688"/>
<polygon fill="midnightblue" stroke="midnightblue" points="89.17,-684.5 79.17,-688 89.17,-691.5 89.17,-684.5"/>
</g>
<!-- Node14 -->
<g id="node11" class="node">
<title>Node14</title>
<g id="a_node11"><a xlink:href="interfaceformat_1_1_x_formattable_1_1_navigatable.html" target="_top" xlink:title="木構造の分岐ノードとして清書可能なオブジェクトのクラス">
<polygon fill="white" stroke="black" points="259,-842.5 259,-861.5 389,-861.5 389,-842.5 259,-842.5"/>
<text text-anchor="middle" x="324" y="-849.5" font-family="Helvetica,sans-Serif" font-size="10.00">XFormattable.Navigatable</text>
</a>
</g>
</g>
<!-- Node13&#45;&gt;Node14 -->
<g id="edge11" class="edge">
<title>Node13&#45;&gt;Node14</title>
<path fill="none" stroke="midnightblue" d="M60.26,-704.79C93.32,-735.11 167.71,-798.98 242,-833 250.4,-836.85 259.67,-839.96 268.84,-842.46"/>
<polygon fill="midnightblue" stroke="midnightblue" points="62.48,-702.08 52.77,-697.85 57.72,-707.21 62.48,-702.08"/>
</g>
<!-- Node28 -->
<g id="node25" class="node">
<title>Node28</title>
<g id="a_node25"><a xlink:href="interfaceformat_1_1_x_formattable_1_1_custom_formattable.html" target="_top" xlink:title="カスタム清書出力器をもつオブジェクトのクラス．">
<polygon fill="white" stroke="black" points="242,-361.5 242,-380.5 406,-380.5 406,-361.5 242,-361.5"/>
<text text-anchor="middle" x="324" y="-368.5" font-family="Helvetica,sans-Serif" font-size="10.00">XFormattable.CustomFormattable</text>
</a>
</g>
</g>
<!-- Node13&#45;&gt;Node28 -->
<g id="edge31" class="edge">
<title>Node13&#45;&gt;Node28</title>
<path fill="none" stroke="midnightblue" d="M47.2,-668.56C58.89,-620.78 89.15,-500.43 101,-486 128.4,-452.62 247.35,-401.64 298.96,-380.6"/>
<polygon fill="midnightblue" stroke="midnightblue" points="43.79,-667.78 44.83,-678.32 50.59,-669.43 43.79,-667.78"/>
</g>
<!-- Node14&#45;&gt;Node4 -->
<g id="edge10" class="edge">
<title>Node14&#45;&gt;Node4</title>
<path fill="none" stroke="midnightblue" d="M399.72,-853.58C435.09,-850.19 474.97,-839.65 500,-812 542.99,-764.51 475.21,-716.67 518,-669 531.25,-654.23 553.7,-649.9 571.45,-649.02"/>
<polygon fill="midnightblue" stroke="midnightblue" points="399.1,-850.11 389.4,-854.38 399.64,-857.09 399.1,-850.11"/>
</g>
<!-- Node15 -->
<g id="node12" class="node">
<title>Node15</title>
<g id="a_node12"><a xlink:title=" ">
<polygon fill="white" stroke="#bfbfbf" points="260,-591 260,-621 388,-621 388,-591 260,-591"/>
<text text-anchor="start" x="268" y="-609" font-family="Helvetica,sans-Serif" font-size="10.00">java.util.function.Function</text>
<text text-anchor="middle" x="324" y="-598" font-family="Helvetica,sans-Serif" font-size="10.00">&lt; ast.Node, String &gt;</text>
</a>
</g>
</g>
<!-- Node15&#45;&gt;Node4 -->
<g id="edge12" class="edge">
<title>Node15&#45;&gt;Node4</title>
<path fill="none" stroke="#9a32cd" stroke-dasharray="5,2" d="M398.4,-617.83C455.55,-627.04 531.63,-639.3 571.33,-645.7"/>
<polygon fill="#9a32cd" stroke="#9a32cd" points="398.75,-614.34 388.32,-616.21 397.63,-621.25 398.75,-614.34"/>
<text text-anchor="middle" x="462" y="-636" font-family="Helvetica,sans-Serif" font-size="10.00"> printerFunc</text>
</g>
<!-- Node16 -->
<g id="node13" class="node">
<title>Node16</title>
<g id="a_node13"><a xlink:title=" ">
<polygon fill="white" stroke="#bfbfbf" points="256,-793 256,-823 392,-823 392,-793 256,-793"/>
<text text-anchor="start" x="264" y="-811" font-family="Helvetica,sans-Serif" font-size="10.00">java.util.function.Consumer</text>
<text text-anchor="middle" x="324" y="-800" font-family="Helvetica,sans-Serif" font-size="10.00">&lt; ast.Node &gt;</text>
</a>
</g>
</g>
<!-- Node16&#45;&gt;Node4 -->
<g id="edge13" class="edge">
<title>Node16&#45;&gt;Node4</title>
<path fill="none" stroke="#9a32cd" stroke-dasharray="5,2" d="M402.41,-802.66C436.84,-796.3 475.12,-783.09 500,-756 526.71,-726.92 490.49,-697.32 518,-669 531.73,-654.87 553.9,-650.45 571.43,-649.38"/>
<polygon fill="#9a32cd" stroke="#9a32cd" points="401.63,-799.24 392.35,-804.34 402.79,-806.14 401.63,-799.24"/>
<text text-anchor="middle" x="462" y="-800" font-family="Helvetica,sans-Serif" font-size="10.00"> typerFunc</text>
</g>
<!-- Node17 -->
<g id="node14" class="node">
<title>Node17</title>
<g id="a_node14"><a xlink:title=" ">
<polygon fill="white" stroke="#bfbfbf" points="279,-754.5 279,-773.5 369,-773.5 369,-754.5 279,-754.5"/>
<text text-anchor="middle" x="324" y="-761.5" font-family="Helvetica,sans-Serif" font-size="10.00">List&lt; ast.Node &gt;</text>
</a>
</g>
</g>
<!-- Node17&#45;&gt;Node4 -->
<g id="edge14" class="edge">
<title>Node17&#45;&gt;Node4</title>
<path fill="none" stroke="#9a32cd" stroke-dasharray="5,2" d="M377.36,-752.12C386.91,-749.84 396.77,-747.41 406,-745 448.06,-734.03 468.17,-747.6 500,-718 516.99,-702.2 500.65,-684.4 518,-669 532.52,-656.11 554.19,-651.55 571.32,-650.11"/>
<polygon fill="#9a32cd" stroke="#9a32cd" points="376.48,-748.73 367.56,-754.43 378.09,-755.54 376.48,-748.73"/>
<text text-anchor="middle" x="462" y="-744" font-family="Helvetica,sans-Serif" font-size="10.00"> children_</text>
</g>
<!-- Node18 -->
<g id="node15" class="node">
<title>Node18</title>
<g id="a_node15"><a xlink:title=" ">
<polygon fill="white" stroke="#bfbfbf" points="298,-716.5 298,-735.5 350,-735.5 350,-716.5 298,-716.5"/>
<text text-anchor="middle" x="324" y="-723.5" font-family="Helvetica,sans-Serif" font-size="10.00">Boolean</text>
</a>
</g>
</g>
<!-- Node18&#45;&gt;Node4 -->
<g id="edge15" class="edge">
<title>Node18&#45;&gt;Node4</title>
<path fill="none" stroke="#9a32cd" stroke-dasharray="5,2" d="M360.11,-717.92C374.37,-714.6 390.99,-710.68 406,-707 447.88,-696.74 461.28,-701.97 500,-683 509.1,-678.54 508.86,-673.38 518,-669 534.86,-660.91 555.42,-656.13 571.47,-653.38"/>
<polygon fill="#9a32cd" stroke="#9a32cd" points="359.16,-714.55 350.21,-720.22 360.74,-721.37 359.16,-714.55"/>
<text text-anchor="middle" x="462" y="-706" font-family="Helvetica,sans-Serif" font-size="10.00"> DEBUG_CHILD</text>
</g>
<!-- Node19&#45;&gt;Node4 -->
<g id="edge16" class="edge">
<title>Node19&#45;&gt;Node4</title>
<path fill="none" stroke="#9a32cd" stroke-dasharray="5,2" d="M353.87,-650C407.05,-650 519.75,-650 571.28,-650"/>
<polygon fill="#9a32cd" stroke="#9a32cd" points="353.76,-646.5 343.76,-650 353.76,-653.5 353.76,-646.5"/>
<text text-anchor="middle" x="462" y="-653" font-family="Helvetica,sans-Serif" font-size="10.00"> sty</text>
</g>
<!-- Node20 -->
<g id="node17" class="node">
<title>Node20</title>
<g id="a_node17"><a xlink:title=" ">
<polygon fill="white" stroke="#bfbfbf" points="561,-754.5 561,-773.5 637,-773.5 637,-754.5 561,-754.5"/>
<text text-anchor="middle" x="599" y="-761.5" font-family="Helvetica,sans-Serif" font-size="10.00">List&lt; String &gt;</text>
</a>
</g>
</g>
<!-- Node20&#45;&gt;Node3 -->
<g id="edge18" class="edge">
<title>Node20&#45;&gt;Node3</title>
<path fill="none" stroke="#9a32cd" stroke-dasharray="5,2" d="M647.4,-760.14C683.05,-755.7 732.21,-746.21 771,-726 792.81,-714.64 812.69,-693.31 823.19,-680.82"/>
<polygon fill="#9a32cd" stroke="#9a32cd" points="646.79,-756.69 637.26,-761.32 647.59,-763.65 646.79,-756.69"/>
<text text-anchor="middle" x="734.5" y="-754" font-family="Helvetica,sans-Serif" font-size="10.00"> fields</text>
</g>
<!-- Node21 -->
<g id="node18" class="node">
<title>Node21</title>
<g id="a_node18"><a xlink:title=" ">
<polygon fill="white" stroke="#bfbfbf" points="553.5,-716.5 553.5,-735.5 644.5,-735.5 644.5,-716.5 553.5,-716.5"/>
<text text-anchor="middle" x="599" y="-723.5" font-family="Helvetica,sans-Serif" font-size="10.00">List&lt; TypeItem &gt;</text>
</a>
</g>
</g>
<!-- Node21&#45;&gt;Node3 -->
<g id="edge19" class="edge">
<title>Node21&#45;&gt;Node3</title>
<path fill="none" stroke="#9a32cd" stroke-dasharray="5,2" d="M655.01,-718.9C688.85,-713.83 732.9,-705.95 771,-695 784.26,-691.19 798.63,-685.5 809.98,-680.62"/>
<polygon fill="#9a32cd" stroke="#9a32cd" points="654.24,-715.48 644.85,-720.39 655.25,-722.4 654.24,-715.48"/>
<text text-anchor="middle" x="734.5" y="-714" font-family="Helvetica,sans-Serif" font-size="10.00"> types</text>
</g>
<!-- Node22 -->
<g id="node19" class="node">
<title>Node22</title>
<g id="a_node19"><a xlink:title=" ">
<polygon fill="white" stroke="#bfbfbf" points="518,-678.5 518,-697.5 680,-697.5 680,-678.5 518,-678.5"/>
<text text-anchor="middle" x="599" y="-685.5" font-family="Helvetica,sans-Serif" font-size="10.00">List&lt; Supplier&lt; XFormattable &gt; &gt;</text>
</a>
</g>
</g>
<!-- Node22&#45;&gt;Node3 -->
<g id="edge20" class="edge">
<title>Node22&#45;&gt;Node3</title>
<path fill="none" stroke="#9a32cd" stroke-dasharray="5,2" d="M690.13,-681.37C724.19,-678.86 761.35,-676.13 788.95,-674.09"/>
<polygon fill="#9a32cd" stroke="#9a32cd" points="689.86,-677.88 680.14,-682.1 690.37,-684.86 689.86,-677.88"/>
<text text-anchor="middle" x="734.5" y="-683" font-family="Helvetica,sans-Serif" font-size="10.00"> getters</text>
</g>
<!-- Node23 -->
<g id="node20" class="node">
<title>Node23</title>
<g id="a_node20"><a xlink:href="interfacemachine_1_1_var_holdable.html" target="_top" xlink:title="実行可能コードのインタフェース. ブロックとステップの二種がある。">
<polygon fill="white" stroke="black" points="957,-476.5 957,-495.5 1026,-495.5 1026,-476.5 957,-476.5"/>
<text text-anchor="middle" x="991.5" y="-483.5" font-family="Helvetica,sans-Serif" font-size="10.00">VarHoldable</text>
</a>
</g>
</g>
<!-- Node23&#45;&gt;Node2 -->
<g id="edge22" class="edge">
<title>Node23&#45;&gt;Node2</title>
<path fill="none" stroke="midnightblue" d="M1036.08,-476.41C1054.61,-472.2 1076.41,-467.07 1096,-462 1101.82,-460.49 1108.01,-458.8 1113.96,-457.12"/>
<polygon fill="midnightblue" stroke="midnightblue" points="1035.15,-473.03 1026.17,-478.64 1036.69,-479.86 1035.15,-473.03"/>
</g>
<!-- Node24 -->
<g id="node21" class="node">
<title>Node24</title>
<g id="a_node21"><a xlink:href="interfacecmd_1_1_generatable.html" target="_top" xlink:title="変換してコードを生成できるノードのインタフェース.">
<polygon fill="white" stroke="black" points="797.5,-575.5 797.5,-594.5 866.5,-594.5 866.5,-575.5 797.5,-575.5"/>
<text text-anchor="middle" x="832" y="-582.5" font-family="Helvetica,sans-Serif" font-size="10.00">Generatable</text>
</a>
</g>
</g>
<!-- Node24&#45;&gt;Node2 -->
<g id="edge23" class="edge">
<title>Node24&#45;&gt;Node2</title>
<path fill="none" stroke="midnightblue" d="M876.61,-587.64C932.91,-588.76 1031.3,-582.74 1096,-534 1122.35,-514.15 1136.74,-475.7 1142.29,-457.72"/>
<polygon fill="midnightblue" stroke="midnightblue" points="876.7,-584.14 866.61,-587.35 876.5,-591.14 876.7,-584.14"/>
</g>
<!-- Node24&#45;&gt;Node25 -->
<g id="edge27" class="edge">
<title>Node24&#45;&gt;Node25</title>
<path fill="none" stroke="midnightblue" d="M871.33,-572.1C900.36,-562.33 939.44,-549.18 964.8,-540.65"/>
<polygon fill="midnightblue" stroke="midnightblue" points="869.88,-568.9 861.52,-575.4 872.12,-575.53 869.88,-568.9"/>
</g>
<!-- Node25&#45;&gt;Node2 -->
<g id="edge24" class="edge">
<title>Node25&#45;&gt;Node2</title>
<path fill="none" stroke="#9a32cd" stroke-dasharray="5,2" d="M1024.17,-518.26C1045,-508.85 1072.64,-495.63 1096,-482 1108.88,-474.48 1122.77,-464.67 1132.46,-457.51"/>
<polygon fill="#9a32cd" stroke="#9a32cd" points="1022.53,-515.16 1014.82,-522.44 1025.38,-521.55 1022.53,-515.16"/>
<text text-anchor="middle" x="1070" y="-522" font-family="Helvetica,sans-Serif" font-size="10.00"> pre_sents_</text>
<text text-anchor="middle" x="1070" y="-511" font-family="Helvetica,sans-Serif" font-size="10.00">sents_</text>
</g>
<!-- Node26&#45;&gt;Node25 -->
<g id="edge25" class="edge">
<title>Node26&#45;&gt;Node25</title>
<path fill="none" stroke="midnightblue" d="M879.49,-542.57C907.43,-539.91 941.92,-536.63 964.98,-534.43"/>
<polygon fill="midnightblue" stroke="midnightblue" points="879.15,-539.09 869.53,-543.52 879.82,-546.06 879.15,-539.09"/>
</g>
<!-- Node27&#45;&gt;Node2 -->
<g id="edge29" class="edge">
<title>Node27&#45;&gt;Node2</title>
<path fill="none" stroke="#9a32cd" stroke-dasharray="5,2" d="M866.93,-178.58C922.69,-192.76 1033.69,-228.56 1096,-300 1132.83,-342.22 1142.14,-412.93 1144.35,-438.45"/>
<polygon fill="#9a32cd" stroke="#9a32cd" points="867.74,-175.17 857.19,-176.18 866.06,-181.97 867.74,-175.17"/>
<text text-anchor="middle" x="991.5" y="-245" font-family="Helvetica,sans-Serif" font-size="10.00"> calls_</text>
</g>
<!-- Node28&#45;&gt;Node27 -->
<g id="edge30" class="edge">
<title>Node28&#45;&gt;Node27</title>
<path fill="none" stroke="midnightblue" d="M414.6,-381.21C489.5,-385.71 597.08,-382.54 680,-341 755.18,-303.34 809.79,-210.66 826.01,-180.59"/>
<polygon fill="midnightblue" stroke="midnightblue" points="414.47,-377.69 404.26,-380.52 414,-384.68 414.47,-377.69"/>
</g>
<!-- Node28&#45;&gt;Node29 -->
<g id="edge34" class="edge">
<title>Node28&#45;&gt;Node29</title>
<path fill="none" stroke="midnightblue" d="M386.75,-357.85C393.6,-354.93 400.19,-351.36 406,-347 417.83,-338.12 414.26,-330.14 424,-319 476.22,-259.3 553.05,-202.55 584.16,-180.58"/>
<polygon fill="midnightblue" stroke="midnightblue" points="385.39,-354.62 377.29,-361.45 387.88,-361.16 385.39,-354.62"/>
</g>
<!-- Node33 -->
<g id="node30" class="node">
<title>Node33</title>
<g id="a_node30"><a xlink:href="classcmd_1_1_cmd_list.html" target="_top" xlink:title="仮想命令のリスト．">
<polygon fill="white" stroke="black" points="572.5,-438.5 572.5,-457.5 625.5,-457.5 625.5,-438.5 572.5,-438.5"/>
<text text-anchor="middle" x="599" y="-445.5" font-family="Helvetica,sans-Serif" font-size="10.00">CmdList</text>
</a>
</g>
</g>
<!-- Node28&#45;&gt;Node33 -->
<g id="edge40" class="edge">
<title>Node28&#45;&gt;Node33</title>
<path fill="none" stroke="midnightblue" d="M368.65,-383.31C426.24,-399.56 525.76,-427.62 572.44,-440.79"/>
<polygon fill="midnightblue" stroke="midnightblue" points="369.32,-379.87 358.75,-380.52 367.42,-386.6 369.32,-379.87"/>
</g>
<!-- Node28&#45;&gt;Node35 -->
<g id="edge44" class="edge">
<title>Node28&#45;&gt;Node35</title>
<path fill="none" stroke="midnightblue" d="M368.33,-358.62C425.7,-342.23 525.05,-313.84 571.99,-300.43"/>
<polygon fill="midnightblue" stroke="midnightblue" points="367.13,-355.32 358.48,-361.44 369.05,-362.05 367.13,-355.32"/>
</g>
<!-- Node29&#45;&gt;Node27 -->
<g id="edge33" class="edge">
<title>Node29&#45;&gt;Node27</title>
<path fill="none" stroke="#9a32cd" stroke-dasharray="5,2" d="M633.9,-171C681.14,-171 765.63,-171 806.93,-171"/>
<polygon fill="#9a32cd" stroke="#9a32cd" points="633.85,-167.5 623.85,-171 633.85,-174.5 633.85,-167.5"/>
<text text-anchor="middle" x="734.5" y="-174" font-family="Helvetica,sans-Serif" font-size="10.00"> callbits_</text>
</g>
<!-- Node30 -->
<g id="node27" class="node">
<title>Node30</title>
<g id="a_node27"><a xlink:title=" ">
<polygon fill="white" stroke="#bfbfbf" points="284,-182.5 284,-201.5 364,-201.5 364,-182.5 284,-182.5"/>
<text text-anchor="middle" x="324" y="-189.5" font-family="Helvetica,sans-Serif" font-size="10.00">List&lt; Integer &gt;</text>
</a>
</g>
</g>
<!-- Node30&#45;&gt;Node29 -->
<g id="edge36" class="edge">
<title>Node30&#45;&gt;Node29</title>
<path fill="none" stroke="#9a32cd" stroke-dasharray="5,2" d="M374.33,-188.21C433.39,-183.66 529.89,-176.24 574.28,-172.82"/>
<polygon fill="#9a32cd" stroke="#9a32cd" points="373.82,-184.73 364.11,-188.99 374.35,-191.71 373.82,-184.73"/>
<text text-anchor="middle" x="462" y="-187" font-family="Helvetica,sans-Serif" font-size="10.00"> idlist</text>
</g>
<!-- Node31 -->
<g id="node28" class="node">
<title>Node31</title>
<g id="a_node28"><a xlink:title=" ">
<polygon fill="white" stroke="#bfbfbf" points="306.5,-144.5 306.5,-163.5 341.5,-163.5 341.5,-144.5 306.5,-144.5"/>
<text text-anchor="middle" x="324" y="-151.5" font-family="Helvetica,sans-Serif" font-size="10.00">long</text>
</a>
</g>
</g>
<!-- Node31&#45;&gt;Node29 -->
<g id="edge37" class="edge">
<title>Node31&#45;&gt;Node29</title>
<path fill="none" stroke="#9a32cd" stroke-dasharray="5,2" d="M352.13,-152.85C386.58,-151.68 447.82,-150.62 500,-155 525.6,-157.15 554.6,-162.22 574.37,-166.08"/>
<polygon fill="#9a32cd" stroke="#9a32cd" points="351.8,-149.36 341.93,-153.22 352.05,-156.35 351.8,-149.36"/>
<text text-anchor="middle" x="462" y="-158" font-family="Helvetica,sans-Serif" font-size="10.00"> MASK_STATE</text>
</g>
<!-- Node32 -->
<g id="node29" class="node">
<title>Node32</title>
<g id="a_node29"><a xlink:title=" ">
<polygon fill="white" stroke="#bfbfbf" points="545.5,-28.5 545.5,-47.5 652.5,-47.5 652.5,-28.5 545.5,-28.5"/>
<text text-anchor="middle" x="599" y="-35.5" font-family="Helvetica,sans-Serif" font-size="10.00">List&lt; machine.Call &gt;</text>
</a>
</g>
</g>
<!-- Node32&#45;&gt;Node27 -->
<g id="edge38" class="edge">
<title>Node32&#45;&gt;Node27</title>
<path fill="none" stroke="#9a32cd" stroke-dasharray="5,2" d="M662.62,-28.51C697.3,-26.55 739.62,-29.92 771,-51 810.44,-77.5 825.12,-137.97 829.46,-161.44"/>
<polygon fill="#9a32cd" stroke="#9a32cd" points="662.31,-25.03 652.59,-29.24 662.81,-32.01 662.31,-25.03"/>
<text text-anchor="middle" x="734.5" y="-54" font-family="Helvetica,sans-Serif" font-size="10.00"> list_</text>
</g>
<!-- Node33&#45;&gt;Node2 -->
<g id="edge39" class="edge">
<title>Node33&#45;&gt;Node2</title>
<path fill="none" stroke="#9a32cd" stroke-dasharray="5,2" d="M635.79,-448C736.2,-448 1019.42,-448 1113.89,-448"/>
<polygon fill="#9a32cd" stroke="#9a32cd" points="635.56,-444.5 625.56,-448 635.56,-451.5 635.56,-444.5"/>
<text text-anchor="middle" x="916" y="-462" font-family="Helvetica,sans-Serif" font-size="10.00"> code_</text>
<text text-anchor="middle" x="916" y="-451" font-family="Helvetica,sans-Serif" font-size="10.00">pre_code_</text>
</g>
<!-- Node34 -->
<g id="node31" class="node">
<title>Node34</title>
<g id="a_node31"><a xlink:title=" ">
<polygon fill="white" stroke="#bfbfbf" points="288.5,-438.5 288.5,-457.5 359.5,-457.5 359.5,-438.5 288.5,-438.5"/>
<text text-anchor="middle" x="324" y="-445.5" font-family="Helvetica,sans-Serif" font-size="10.00">List&lt; Cmd &gt;</text>
</a>
</g>
</g>
<!-- Node34&#45;&gt;Node33 -->
<g id="edge41" class="edge">
<title>Node34&#45;&gt;Node33</title>
<path fill="none" stroke="#9a32cd" stroke-dasharray="5,2" d="M369.85,-448C427.53,-448 525.8,-448 572.23,-448"/>
<polygon fill="#9a32cd" stroke="#9a32cd" points="369.58,-444.5 359.58,-448 369.58,-451.5 369.58,-444.5"/>
<text text-anchor="middle" x="462" y="-451" font-family="Helvetica,sans-Serif" font-size="10.00"> list_</text>
</g>
<!-- Node35&#45;&gt;Node2 -->
<g id="edge43" class="edge">
<title>Node35&#45;&gt;Node2</title>
<path fill="none" stroke="#9a32cd" stroke-dasharray="5,2" d="M636.37,-293.24C722.06,-295.31 941.05,-309.34 1096,-396 1114.62,-406.41 1130.34,-426.31 1138.65,-438.24"/>
<polygon fill="#9a32cd" stroke="#9a32cd" points="636.19,-289.74 626.12,-293.04 636.05,-296.74 636.19,-289.74"/>
<text text-anchor="middle" x="916" y="-338" font-family="Helvetica,sans-Serif" font-size="10.00"> vars_</text>
</g>
<!-- Node35&#45;&gt;Node35 -->
<g id="edge47" class="edge">
<title>Node35&#45;&gt;Node35</title>
<path fill="none" stroke="#9a32cd" stroke-dasharray="5,2" d="M574.07,-312.03C575.43,-317.13 583.74,-321 599,-321 622.82,-321 629.7,-311.57 619.65,-302.76"/>
<polygon fill="#9a32cd" stroke="#9a32cd" points="577.34,-313.3 578.35,-302.76 570.98,-310.37 577.34,-313.3"/>
<text text-anchor="middle" x="599" y="-324" font-family="Helvetica,sans-Serif" font-size="10.00"> parent</text>
</g>
</g>
</svg>
