<?xml version="1.0" encoding="UTF-8" standalone="no"?>
<!DOCTYPE svg PUBLIC "-//W3C//DTD SVG 1.1//EN"
 "http://www.w3.org/Graphics/SVG/1.1/DTD/svg11.dtd">
<!-- Generated by graphviz version 2.47.0 (20210316.0004)
 -->
<!-- Title: HeightFormatter Pages: 1 -->
<!--zoomable 548 -->
<svg id="main" version="1.1" xmlns="http://www.w3.org/2000/svg" xmlns:xlink="http://www.w3.org/1999/xlink" xml:space="preserve" onload="init(evt)">
<style type="text/css"><![CDATA[
.edge:hover path { stroke: red; }
.edge:hover polygon { stroke: red; fill: red; }
]]></style>
<script type="text/javascript"><![CDATA[
var edges = document.getElementsByTagName('g');
if (edges && edges.length) {
  for (var i=0;i<edges.length;i++) {
    if (edges[i].id.substr(0,4)=='edge') {
      edges[i].setAttribute('class','edge');
    }
  }
}
]]></script>
        <defs>
                <circle id="rim" cx="0" cy="0" r="7"/>
                <circle id="rim2" cx="0" cy="0" r="3.5"/>
                <g id="zoomPlus">
                        <use xlink:href="#rim" fill="#404040">
                                <set attributeName="fill" to="#808080" begin="zoomplus.mouseover" end="zoomplus.mouseout"/>
                        </use>
                        <path d="M-4,0h8M0,-4v8" fill="none" stroke="white" stroke-width="1.5" pointer-events="none"/>
                </g>
                <g id="zoomMin">
                        <use xlink:href="#rim" fill="#404040">
                                <set attributeName="fill" to="#808080" begin="zoomminus.mouseover" end="zoomminus.mouseout"/>
                        </use>
                        <path d="M-4,0h8" fill="none" stroke="white" stroke-width="1.5" pointer-events="none"/>
                </g>
                <g id="dirArrow">
                        <path fill="none" stroke="white" stroke-width="1.5" d="M0,-3.0v7 M-2.5,-0.5L0,-3.0L2.5,-0.5"/>
                </g>
               <g id="resetDef">
                       <use xlink:href="#rim2" fill="#404040">
                               <set attributeName="fill" to="#808080" begin="reset.mouseover" end="reset.mouseout"/>
                       </use>
               </g>
        </defs>

<script type="text/javascript">
var viewWidth = 1174;
var viewHeight = 548;
var sectionId = 'dynsection-1';
</script>
<script xlink:href="svgpan.js"/>
<svg id="graph" class="graph">
<g id="viewport">
<title>HeightFormatter</title>
<polygon fill="white" stroke="transparent" points="-4,4 -4,-544 1170,-544 1170,4 -4,4"/>
<!-- Node1 -->
<g id="node1" class="node">
<title>Node1</title>
<g id="a_node1"><a xlink:title="HgtFormattableインタフェースをもつ構造オブジェクトの清書出力器．">
<polygon fill="#bfbfbf" stroke="black" points="1079,-112.5 1079,-131.5 1166,-131.5 1166,-112.5 1079,-112.5"/>
<text text-anchor="middle" x="1122.5" y="-119.5" font-family="Helvetica,sans-Serif" font-size="10.00">HeightFormatter</text>
</a>
</g>
</g>
<!-- Node2 -->
<g id="node2" class="node">
<title>Node2</title>
<g id="a_node2"><a xlink:href="classformat_1_1_node_formatter_base.html" target="_top" xlink:title="オブジェクトの清書出力器の基本実装．">
<polygon fill="white" stroke="black" points="938,-250.5 938,-269.5 1042,-269.5 1042,-250.5 938,-250.5"/>
<text text-anchor="middle" x="990" y="-257.5" font-family="Helvetica,sans-Serif" font-size="10.00">NodeFormatterBase</text>
</a>
</g>
</g>
<!-- Node2&#45;&gt;Node1 -->
<g id="edge1" class="edge">
<title>Node2&#45;&gt;Node1</title>
<path fill="none" stroke="midnightblue" d="M1007.42,-242.63C1035.13,-213.34 1090.28,-155.02 1112.2,-131.83"/>
<polygon fill="midnightblue" stroke="midnightblue" points="1004.71,-240.4 1000.39,-250.08 1009.8,-245.21 1004.71,-240.4"/>
</g>
<!-- Node3 -->
<g id="node3" class="node">
<title>Node3</title>
<g id="a_node3"><a xlink:href="interfaceformat_1_1_node_formattable.html" target="_top" xlink:title="XFormattableインタフェースをもつ構造オブジェクトの清書出力器．">
<polygon fill="white" stroke="black" points="763,-443.5 763,-462.5 855,-462.5 855,-443.5 763,-443.5"/>
<text text-anchor="middle" x="809" y="-450.5" font-family="Helvetica,sans-Serif" font-size="10.00">NodeFormattable</text>
</a>
</g>
</g>
<!-- Node3&#45;&gt;Node2 -->
<g id="edge2" class="edge">
<title>Node3&#45;&gt;Node2</title>
<path fill="none" stroke="midnightblue" d="M865.36,-451.26C884.46,-448.16 904.84,-441.74 920,-429 971.19,-385.97 984.87,-299.07 988.1,-269.84"/>
<polygon fill="midnightblue" stroke="midnightblue" points="864.66,-447.82 855.22,-452.63 865.6,-454.76 864.66,-447.82"/>
</g>
<!-- Node4 -->
<g id="node4" class="node">
<title>Node4</title>
<g id="a_node4"><a xlink:title=" ">
<polygon fill="white" stroke="#bfbfbf" points="50.5,-428.5 50.5,-447.5 92.5,-447.5 92.5,-428.5 50.5,-428.5"/>
<text text-anchor="middle" x="71.5" y="-435.5" font-family="Helvetica,sans-Serif" font-size="10.00">String</text>
</a>
</g>
</g>
<!-- Node4&#45;&gt;Node2 -->
<g id="edge3" class="edge">
<title>Node4&#45;&gt;Node2</title>
<path fill="none" stroke="#9a32cd" stroke-dasharray="5,2" d="M97.11,-452.65C142.75,-478.39 244.29,-529 337,-529 337,-529 337,-529 810,-529 937.34,-529 979.59,-317.49 987.53,-269.57"/>
<polygon fill="#9a32cd" stroke="#9a32cd" points="98.66,-449.51 88.25,-447.57 95.18,-455.58 98.66,-449.51"/>
<text text-anchor="middle" x="612" y="-532" font-family="Helvetica,sans-Serif" font-size="10.00"> tagDelimitor</text>
</g>
<!-- Node8 -->
<g id="node8" class="node">
<title>Node8</title>
<g id="a_node8"><a xlink:href="classutil_1_1_string_buf.html" target="_top" xlink:title="文字列バッファのクラス.">
<polygon fill="white" stroke="black" points="583.5,-323.5 583.5,-342.5 640.5,-342.5 640.5,-323.5 583.5,-323.5"/>
<text text-anchor="middle" x="612" y="-330.5" font-family="Helvetica,sans-Serif" font-size="10.00">StringBuf</text>
</a>
</g>
</g>
<!-- Node4&#45;&gt;Node8 -->
<g id="edge8" class="edge">
<title>Node4&#45;&gt;Node8</title>
<path fill="none" stroke="#9a32cd" stroke-dasharray="5,2" d="M102.71,-436.82C139.86,-435.11 204.78,-431.33 260,-424 381.57,-407.85 418.4,-420.61 531,-372 540.06,-368.09 540.39,-363.83 549,-359 560.2,-352.72 573.22,-347.03 584.43,-342.59"/>
<polygon fill="#9a32cd" stroke="#9a32cd" points="102.39,-433.33 92.56,-437.26 102.7,-440.32 102.39,-433.33"/>
<text text-anchor="middle" x="338" y="-435" font-family="Helvetica,sans-Serif" font-size="10.00"> NL_STR</text>
<text text-anchor="middle" x="338" y="-424" font-family="Helvetica,sans-Serif" font-size="10.00">SPC_STR</text>
</g>
<!-- Node9 -->
<g id="node9" class="node">
<title>Node9</title>
<g id="a_node9"><a xlink:href="classutil_1_1_trace_level.html" target="_top" xlink:title="ログ出力用のトレースレベルを扱うクラス。">
<polygon fill="white" stroke="black" points="305.5,-358.5 305.5,-377.5 370.5,-377.5 370.5,-358.5 305.5,-358.5"/>
<text text-anchor="middle" x="338" y="-365.5" font-family="Helvetica,sans-Serif" font-size="10.00">TraceLevel</text>
</a>
</g>
</g>
<!-- Node4&#45;&gt;Node9 -->
<g id="edge10" class="edge">
<title>Node4&#45;&gt;Node9</title>
<path fill="none" stroke="#9a32cd" stroke-dasharray="5,2" d="M87.86,-420.7C104.1,-403.83 131.42,-379.26 161,-369 209.21,-352.27 269.42,-356.94 305.45,-362.21"/>
<polygon fill="#9a32cd" stroke="#9a32cd" points="85.07,-418.56 80.82,-428.27 90.2,-423.33 85.07,-418.56"/>
<text text-anchor="middle" x="210.5" y="-416" font-family="Helvetica,sans-Serif" font-size="10.00"> DELIM_LEVELS</text>
<text text-anchor="middle" x="210.5" y="-405" font-family="Helvetica,sans-Serif" font-size="10.00">DELIM_NAMES</text>
<text text-anchor="middle" x="210.5" y="-394" font-family="Helvetica,sans-Serif" font-size="10.00">MOD_DEFAULT</text>
<text text-anchor="middle" x="210.5" y="-383" font-family="Helvetica,sans-Serif" font-size="10.00">OUT_DELIM_NAMES</text>
<text text-anchor="middle" x="210.5" y="-372" font-family="Helvetica,sans-Serif" font-size="10.00">USAGE_STR</text>
</g>
<!-- Node12 -->
<g id="node12" class="node">
<title>Node12</title>
<g id="a_node12"><a xlink:href="classutil_1_1_foldable_string_buf.html" target="_top" xlink:title="入れ子深さに応じた段下げ表示を行うよう拡張された文字列バッファのクラス.">
<polygon fill="white" stroke="black" points="762,-250.5 762,-269.5 856,-269.5 856,-250.5 762,-250.5"/>
<text text-anchor="middle" x="809" y="-257.5" font-family="Helvetica,sans-Serif" font-size="10.00">FoldableStringBuf</text>
</a>
</g>
</g>
<!-- Node4&#45;&gt;Node12 -->
<g id="edge17" class="edge">
<title>Node4&#45;&gt;Node12</title>
<path fill="none" stroke="#9a32cd" stroke-dasharray="5,2" d="M102.8,-442.58C160.63,-450.5 290.55,-464.31 398,-447 561.61,-420.64 623.56,-421.84 744,-308 753.95,-298.6 751.57,-291.87 762,-283 768.26,-277.68 775.96,-273.21 783.25,-269.67"/>
<polygon fill="#9a32cd" stroke="#9a32cd" points="103.25,-439.11 92.86,-441.18 102.28,-446.04 103.25,-439.11"/>
<text text-anchor="middle" x="473.5" y="-502" font-family="Helvetica,sans-Serif" font-size="10.00"> DEFAULT_EMPTY_STR</text>
<text text-anchor="middle" x="473.5" y="-491" font-family="Helvetica,sans-Serif" font-size="10.00">DEFAULT_INDENT_STR</text>
<text text-anchor="middle" x="473.5" y="-480" font-family="Helvetica,sans-Serif" font-size="10.00">EMPTY_STR</text>
<text text-anchor="middle" x="473.5" y="-469" font-family="Helvetica,sans-Serif" font-size="10.00">INDENT_STR</text>
<text text-anchor="middle" x="473.5" y="-458" font-family="Helvetica,sans-Serif" font-size="10.00">SPACE_STR</text>
<text text-anchor="middle" x="473.5" y="-447" font-family="Helvetica,sans-Serif" font-size="10.00">tag</text>
</g>
<!-- Node15 -->
<g id="node15" class="node">
<title>Node15</title>
<g id="a_node15"><a xlink:href="classutil_1_1_report.html" target="_top" xlink:title="標準出力への入れ子出力のためのレポートオブジェクトのクラス.">
<polygon fill="white" stroke="black" points="302.5,-33.5 302.5,-52.5 373.5,-52.5 373.5,-33.5 302.5,-33.5"/>
<text text-anchor="middle" x="338" y="-40.5" font-family="Helvetica,sans-Serif" font-size="10.00">Report&lt; S &gt;</text>
</a>
</g>
</g>
<!-- Node4&#45;&gt;Node15 -->
<g id="edge23" class="edge">
<title>Node4&#45;&gt;Node15</title>
<path fill="none" stroke="#9a32cd" stroke-dasharray="5,2" d="M92.26,-421.52C108.51,-406.84 130.77,-383.86 143,-359 162.15,-320.04 142.9,-302.46 161,-263 203.82,-169.64 294.82,-81.41 326.14,-52.71"/>
<polygon fill="#9a32cd" stroke="#9a32cd" points="89.61,-419.19 84.4,-428.42 94.22,-424.46 89.61,-419.19"/>
<text text-anchor="middle" x="210.5" y="-266" font-family="Helvetica,sans-Serif" font-size="10.00"> STEMSTR</text>
</g>
<!-- Node5 -->
<g id="node5" class="node">
<title>Node5</title>
<g id="a_node5"><a xlink:href="classformat_1_1_print_state.html" target="_top" xlink:title="木を印刷する際に，オプション指定と現在の状態保持を行う構造体．">
<polygon fill="white" stroke="black" points="779,-135.5 779,-154.5 839,-154.5 839,-135.5 779,-135.5"/>
<text text-anchor="middle" x="809" y="-142.5" font-family="Helvetica,sans-Serif" font-size="10.00">PrintState</text>
</a>
</g>
</g>
<!-- Node5&#45;&gt;Node2 -->
<g id="edge4" class="edge">
<title>Node5&#45;&gt;Node2</title>
<path fill="none" stroke="#9a32cd" stroke-dasharray="5,2" d="M849.34,-145.55C871.56,-147.48 899,-152.74 920,-166 953.55,-187.18 976.17,-231.03 984.94,-250.42"/>
<polygon fill="#9a32cd" stroke="#9a32cd" points="849.44,-142.05 839.22,-144.86 848.96,-149.03 849.44,-142.05"/>
<text text-anchor="middle" x="897" y="-169" font-family="Helvetica,sans-Serif" font-size="10.00"> printState</text>
</g>
<!-- Node6 -->
<g id="node6" class="node">
<title>Node6</title>
<g id="a_node6"><a xlink:title=" ">
<polygon fill="white" stroke="#bfbfbf" points="586,-151.5 586,-170.5 638,-170.5 638,-151.5 586,-151.5"/>
<text text-anchor="middle" x="612" y="-158.5" font-family="Helvetica,sans-Serif" font-size="10.00">Boolean</text>
</a>
</g>
</g>
<!-- Node6&#45;&gt;Node2 -->
<g id="edge26" class="edge">
<title>Node6&#45;&gt;Node2</title>
<path fill="none" stroke="#9a32cd" stroke-dasharray="5,2" d="M648.33,-167.66C713.3,-179.93 846.05,-205.12 856,-208 896.48,-219.72 941.85,-238.81 967.76,-250.31"/>
<polygon fill="#9a32cd" stroke="#9a32cd" points="648.62,-164.15 638.14,-165.74 647.32,-171.03 648.62,-164.15"/>
<text text-anchor="middle" x="809" y="-233" font-family="Helvetica,sans-Serif" font-size="10.00"> DEBUG_HGT</text>
<text text-anchor="middle" x="809" y="-222" font-family="Helvetica,sans-Serif" font-size="10.00">DEBUG_PSTATE</text>
<text text-anchor="middle" x="809" y="-211" font-family="Helvetica,sans-Serif" font-size="10.00">DEBUG_TYPE</text>
</g>
<!-- Node6&#45;&gt;Node5 -->
<g id="edge5" class="edge">
<title>Node6&#45;&gt;Node5</title>
<path fill="none" stroke="#9a32cd" stroke-dasharray="5,2" d="M648.36,-157.84C662.27,-156.61 678.38,-155.21 693,-154 722.14,-151.59 755.45,-149 778.69,-147.22"/>
<polygon fill="#9a32cd" stroke="#9a32cd" points="647.87,-154.37 638.22,-158.73 648.49,-161.34 647.87,-154.37"/>
<text text-anchor="middle" x="718.5" y="-168" font-family="Helvetica,sans-Serif" font-size="10.00"> isSimple</text>
<text text-anchor="middle" x="718.5" y="-157" font-family="Helvetica,sans-Serif" font-size="10.00">toInlineMe</text>
</g>
<!-- Node7 -->
<g id="node7" class="node">
<title>Node7</title>
<g id="a_node7"><a xlink:title=" ">
<polygon fill="white" stroke="#bfbfbf" points="46.5,-202.5 46.5,-221.5 96.5,-221.5 96.5,-202.5 46.5,-202.5"/>
<text text-anchor="middle" x="71.5" y="-209.5" font-family="Helvetica,sans-Serif" font-size="10.00">boolean</text>
</a>
</g>
</g>
<!-- Node7&#45;&gt;Node5 -->
<g id="edge6" class="edge">
<title>Node7&#45;&gt;Node5</title>
<path fill="none" stroke="#9a32cd" stroke-dasharray="5,2" d="M83.01,-193.38C97.25,-170.25 125.09,-131.9 161,-116 382.04,-18.1 688.15,-105.1 780.54,-135.47"/>
<polygon fill="#9a32cd" stroke="#9a32cd" points="79.84,-191.86 77.75,-202.25 85.86,-195.43 79.84,-191.86"/>
<text text-anchor="middle" x="473.5" y="-126" font-family="Helvetica,sans-Serif" font-size="10.00"> hgt</text>
<text text-anchor="middle" x="473.5" y="-115" font-family="Helvetica,sans-Serif" font-size="10.00">isFolded</text>
<text text-anchor="middle" x="473.5" y="-104" font-family="Helvetica,sans-Serif" font-size="10.00">noend</text>
<text text-anchor="middle" x="473.5" y="-93" font-family="Helvetica,sans-Serif" font-size="10.00">obj</text>
<text text-anchor="middle" x="473.5" y="-82" font-family="Helvetica,sans-Serif" font-size="10.00">type</text>
</g>
<!-- Node7&#45;&gt;Node8 -->
<g id="edge14" class="edge">
<title>Node7&#45;&gt;Node8</title>
<path fill="none" stroke="#9a32cd" stroke-dasharray="5,2" d="M106.19,-221.32C186.66,-243.64 384.43,-298.72 398,-305 406.73,-309.04 406.92,-313.84 416,-317 472.94,-336.82 544.67,-336.85 583.3,-335"/>
<polygon fill="#9a32cd" stroke="#9a32cd" points="107.1,-217.94 96.53,-218.65 105.23,-224.69 107.1,-217.94"/>
<text text-anchor="middle" x="338" y="-341" font-family="Helvetica,sans-Serif" font-size="10.00"> DEBUG_POP</text>
<text text-anchor="middle" x="338" y="-330" font-family="Helvetica,sans-Serif" font-size="10.00">DEBUG_STRBUF</text>
<text text-anchor="middle" x="338" y="-319" font-family="Helvetica,sans-Serif" font-size="10.00">DEBUG_THROUGH_ERR</text>
<text text-anchor="middle" x="338" y="-308" font-family="Helvetica,sans-Serif" font-size="10.00">TRACE</text>
</g>
<!-- Node7&#45;&gt;Node9 -->
<g id="edge12" class="edge">
<title>Node7&#45;&gt;Node9</title>
<path fill="none" stroke="#9a32cd" stroke-dasharray="5,2" d="M90.48,-228.14C107.59,-242.8 134.57,-264.2 161,-278 202.11,-299.47 224.43,-281.24 260,-311 272.81,-321.72 265.54,-332.87 278,-344 285.75,-350.92 295.77,-356 305.34,-359.65"/>
<polygon fill="#9a32cd" stroke="#9a32cd" points="92.76,-225.48 82.92,-221.54 88.15,-230.75 92.76,-225.48"/>
<text text-anchor="middle" x="210.5" y="-314" font-family="Helvetica,sans-Serif" font-size="10.00"> DEBUG_MOD</text>
</g>
<!-- Node7&#45;&gt;Node12 -->
<g id="edge20" class="edge">
<title>Node7&#45;&gt;Node12</title>
<path fill="none" stroke="#9a32cd" stroke-dasharray="5,2" d="M106.72,-208.86C199.52,-200.84 454.11,-182.33 531,-213 541.22,-217.08 539.03,-225.35 549,-230 617.93,-262.12 707.93,-265 761.66,-263.19"/>
<polygon fill="#9a32cd" stroke="#9a32cd" points="106.39,-205.37 96.73,-209.73 107,-212.34 106.39,-205.37"/>
<text text-anchor="middle" x="473.5" y="-271" font-family="Helvetica,sans-Serif" font-size="10.00"> DEBUG_INDENT</text>
<text text-anchor="middle" x="473.5" y="-260" font-family="Helvetica,sans-Serif" font-size="10.00">DEBUG_STEM</text>
<text text-anchor="middle" x="473.5" y="-249" font-family="Helvetica,sans-Serif" font-size="10.00">IS_EMPTY_LINE</text>
<text text-anchor="middle" x="473.5" y="-238" font-family="Helvetica,sans-Serif" font-size="10.00">IS_SPC_STATE</text>
<text text-anchor="middle" x="473.5" y="-227" font-family="Helvetica,sans-Serif" font-size="10.00">toFold</text>
<text text-anchor="middle" x="473.5" y="-216" font-family="Helvetica,sans-Serif" font-size="10.00">toPrintDepth</text>
</g>
<!-- Node7&#45;&gt;Node15 -->
<g id="edge25" class="edge">
<title>Node7&#45;&gt;Node15</title>
<path fill="none" stroke="#9a32cd" stroke-dasharray="5,2" d="M76.23,-192.13C84.29,-155.43 107.17,-77.81 161,-45 204.05,-18.76 264.72,-25.51 302.41,-33.63"/>
<polygon fill="#9a32cd" stroke="#9a32cd" points="72.76,-191.61 74.18,-202.1 79.62,-193.01 72.76,-191.61"/>
<text text-anchor="middle" x="210.5" y="-59" font-family="Helvetica,sans-Serif" font-size="10.00"> DEBUG_POP</text>
<text text-anchor="middle" x="210.5" y="-48" font-family="Helvetica,sans-Serif" font-size="10.00">toPrint</text>
</g>
<!-- Node8&#45;&gt;Node2 -->
<g id="edge7" class="edge">
<title>Node8&#45;&gt;Node2</title>
<path fill="none" stroke="#9a32cd" stroke-dasharray="5,2" d="M650.72,-326.22C708.7,-315.71 823.17,-294.67 920,-275 928.41,-273.29 937.38,-271.4 945.97,-269.54"/>
<polygon fill="#9a32cd" stroke="#9a32cd" points="649.79,-322.83 640.57,-328.05 651.03,-329.72 649.79,-322.83"/>
<text text-anchor="middle" x="809" y="-307" font-family="Helvetica,sans-Serif" font-size="10.00"> aux</text>
</g>
<!-- Node8&#45;&gt;Node12 -->
<g id="edge16" class="edge">
<title>Node8&#45;&gt;Node12</title>
<path fill="none" stroke="midnightblue" d="M648.3,-319.79C687.01,-305.29 748.19,-282.39 782.5,-269.55"/>
<polygon fill="midnightblue" stroke="midnightblue" points="646.63,-316.67 638.49,-323.46 649.09,-323.23 646.63,-316.67"/>
</g>
<!-- Node9&#45;&gt;Node2 -->
<g id="edge21" class="edge">
<title>Node9&#45;&gt;Node2</title>
<path fill="none" stroke="#9a32cd" stroke-dasharray="5,2" d="M380.95,-370.58C392.32,-371.16 404.63,-371.7 416,-372 612.9,-377.11 666.87,-374.02 856,-319 899.17,-306.44 946.61,-282.82 971.51,-269.6"/>
<polygon fill="#9a32cd" stroke="#9a32cd" points="381,-367.07 370.83,-370.03 380.62,-374.06 381,-367.07"/>
<text text-anchor="middle" x="718.5" y="-362" font-family="Helvetica,sans-Serif" font-size="10.00"> LOG</text>
</g>
<!-- Node9&#45;&gt;Node8 -->
<g id="edge9" class="edge">
<title>Node9&#45;&gt;Node8</title>
<path fill="none" stroke="#9a32cd" stroke-dasharray="5,2" d="M380.7,-362.63C436.85,-355.41 535.21,-342.75 583.15,-336.58"/>
<polygon fill="#9a32cd" stroke="#9a32cd" points="380.21,-359.17 370.73,-363.92 381.1,-366.11 380.21,-359.17"/>
<text text-anchor="middle" x="473.5" y="-360" font-family="Helvetica,sans-Serif" font-size="10.00"> LOG</text>
</g>
<!-- Node10 -->
<g id="node10" class="node">
<title>Node10</title>
<g id="a_node10"><a xlink:title=" ">
<polygon fill="white" stroke="#bfbfbf" points="0,-319 0,-349 143,-349 143,-319 0,-319"/>
<text text-anchor="start" x="8" y="-337" font-family="Helvetica,sans-Serif" font-size="10.00">Map&lt; String, util.TraceLevel.</text>
<text text-anchor="middle" x="71.5" y="-326" font-family="Helvetica,sans-Serif" font-size="10.00">Level &gt;</text>
</a>
</g>
</g>
<!-- Node10&#45;&gt;Node9 -->
<g id="edge11" class="edge">
<title>Node10&#45;&gt;Node9</title>
<path fill="none" stroke="#9a32cd" stroke-dasharray="5,2" d="M153.48,-326.43C186.88,-325.37 225.71,-326.81 260,-335 268.7,-337.08 269.85,-340.31 278,-344 289.18,-349.06 301.76,-354.25 312.42,-358.49"/>
<polygon fill="#9a32cd" stroke="#9a32cd" points="153.16,-322.94 143.3,-326.84 153.44,-329.94 153.16,-322.94"/>
<text text-anchor="middle" x="210.5" y="-338" font-family="Helvetica,sans-Serif" font-size="10.00"> mapLevel</text>
</g>
<!-- Node11 -->
<g id="node11" class="node">
<title>Node11</title>
<g id="a_node11"><a xlink:title=" ">
<polygon fill="white" stroke="#bfbfbf" points="323.5,-240.5 323.5,-259.5 352.5,-259.5 352.5,-240.5 323.5,-240.5"/>
<text text-anchor="middle" x="338" y="-247.5" font-family="Helvetica,sans-Serif" font-size="10.00">int</text>
</a>
</g>
</g>
<!-- Node11&#45;&gt;Node1 -->
<g id="edge27" class="edge">
<title>Node11&#45;&gt;Node1</title>
<path fill="none" stroke="#9a32cd" stroke-dasharray="5,2" d="M357.59,-233.47C369.59,-222.45 385.29,-207.4 398,-193 406.82,-183 404.73,-176.13 416,-169 466.98,-136.77 489.48,-151.8 549,-142 643.16,-126.5 666.77,-121.01 762,-115 803.69,-112.37 814.23,-114.45 856,-115 934.61,-116.04 1026.28,-118.8 1078.74,-120.53"/>
<polygon fill="#9a32cd" stroke="#9a32cd" points="355.01,-231.08 349.95,-240.39 359.71,-236.27 355.01,-231.08"/>
<text text-anchor="middle" x="809" y="-118" font-family="Helvetica,sans-Serif" font-size="10.00"> MAX_UNFOLD</text>
</g>
<!-- Node11&#45;&gt;Node8 -->
<g id="edge13" class="edge">
<title>Node11&#45;&gt;Node8</title>
<path fill="none" stroke="#9a32cd" stroke-dasharray="5,2" d="M362.05,-258.9C373.02,-263.25 386.28,-268.69 398,-274 406.15,-277.69 407.54,-280.1 416,-283 465.3,-299.92 480.65,-292.53 531,-306 549.41,-310.93 569.75,-317.81 585.32,-323.4"/>
<polygon fill="#9a32cd" stroke="#9a32cd" points="363.31,-255.63 352.72,-255.23 360.75,-262.15 363.31,-255.63"/>
<text text-anchor="middle" x="473.5" y="-309" font-family="Helvetica,sans-Serif" font-size="10.00"> INIT_CAPACITY</text>
</g>
<!-- Node12&#45;&gt;Node2 -->
<g id="edge15" class="edge">
<title>Node12&#45;&gt;Node2</title>
<path fill="none" stroke="#9a32cd" stroke-dasharray="5,2" d="M866.33,-260C889.18,-260 915.39,-260 937.7,-260"/>
<polygon fill="#9a32cd" stroke="#9a32cd" points="866.1,-256.5 856.1,-260 866.1,-263.5 866.1,-256.5"/>
<text text-anchor="middle" x="897" y="-263" font-family="Helvetica,sans-Serif" font-size="10.00"> buf</text>
</g>
<!-- Node13 -->
<g id="node13" class="node">
<title>Node13</title>
<g id="a_node13"><a xlink:href="classutil_1_1_foldable_string_buf_1_1_sibling_stack.html" target="_top" xlink:title=" ">
<polygon fill="white" stroke="black" points="549,-190 549,-220 675,-220 675,-190 549,-190"/>
<text text-anchor="start" x="557" y="-208" font-family="Helvetica,sans-Serif" font-size="10.00">FoldableStringBuf.Sibling</text>
<text text-anchor="middle" x="612" y="-197" font-family="Helvetica,sans-Serif" font-size="10.00">Stack</text>
</a>
</g>
</g>
<!-- Node13&#45;&gt;Node12 -->
<g id="edge18" class="edge">
<title>Node13&#45;&gt;Node12</title>
<path fill="none" stroke="#9a32cd" stroke-dasharray="5,2" d="M685.12,-210.62C704.57,-213.44 725.38,-217.66 744,-224 762.58,-230.33 781.97,-242.07 794.47,-250.42"/>
<polygon fill="#9a32cd" stroke="#9a32cd" points="685.46,-207.14 675.08,-209.27 684.53,-214.07 685.46,-207.14"/>
<text text-anchor="middle" x="718.5" y="-227" font-family="Helvetica,sans-Serif" font-size="10.00"> HS</text>
</g>
<!-- Node14 -->
<g id="node14" class="node">
<title>Node14</title>
<g id="a_node14"><a xlink:href="classutil_1_1_stack_base.html" target="_top" xlink:title=" ">
<polygon fill="white" stroke="black" points="279,-164.5 279,-183.5 397,-183.5 397,-164.5 279,-164.5"/>
<text text-anchor="middle" x="338" y="-171.5" font-family="Helvetica,sans-Serif" font-size="10.00">StackBase&lt; Boolean &gt;</text>
</a>
</g>
</g>
<!-- Node14&#45;&gt;Node13 -->
<g id="edge19" class="edge">
<title>Node14&#45;&gt;Node13</title>
<path fill="none" stroke="#9a32cd" stroke-dasharray="5,2" d="M407.44,-173.54C444.26,-174.21 490.33,-176.54 531,-183 541.53,-184.67 552.65,-187.22 563.15,-189.99"/>
<polygon fill="#9a32cd" stroke="#9a32cd" points="407.36,-170.04 397.31,-173.39 407.26,-177.04 407.36,-170.04"/>
<text text-anchor="middle" x="473.5" y="-186" font-family="Helvetica,sans-Serif" font-size="10.00"> _HS</text>
</g>
<!-- Node15&#45;&gt;Node2 -->
<g id="edge22" class="edge">
<title>Node15&#45;&gt;Node2</title>
<path fill="none" stroke="#9a32cd" stroke-dasharray="5,2" d="M383.85,-45.54C505.08,-53.21 835.85,-79.76 920,-145 956.99,-173.67 978.43,-228.22 985.94,-250.33"/>
<polygon fill="#9a32cd" stroke="#9a32cd" points="383.99,-42.04 373.79,-44.91 383.56,-49.03 383.99,-42.04"/>
<text text-anchor="middle" x="718.5" y="-90" font-family="Helvetica,sans-Serif" font-size="10.00"> repoHeight</text>
</g>
<!-- Node16 -->
<g id="node16" class="node">
<title>Node16</title>
<g id="a_node16"><a xlink:href="classutil_1_1_stack_base.html" target="_top" xlink:title=" ">
<polygon fill="white" stroke="black" points="17.5,-0.5 17.5,-19.5 125.5,-19.5 125.5,-0.5 17.5,-0.5"/>
<text text-anchor="middle" x="71.5" y="-7.5" font-family="Helvetica,sans-Serif" font-size="10.00">StackBase&lt; String &gt;</text>
</a>
</g>
</g>
<!-- Node16&#45;&gt;Node15 -->
<g id="edge24" class="edge">
<title>Node16&#45;&gt;Node15</title>
<path fill="none" stroke="#9a32cd" stroke-dasharray="5,2" d="M135.65,-4.3C172.31,-2.49 219.17,-2.74 260,-11 281.43,-15.33 304.37,-25.69 319.58,-33.45"/>
<polygon fill="#9a32cd" stroke="#9a32cd" points="135.38,-0.81 125.59,-4.86 135.77,-7.8 135.38,-0.81"/>
<text text-anchor="middle" x="210.5" y="-14" font-family="Helvetica,sans-Serif" font-size="10.00"> NS</text>
</g>
</g>
</svg>
        <g id="navigator" transform="translate(0 0)" fill="#404254">
                <rect fill="#f2f5e9" fill-opacity="0.5" stroke="#606060" stroke-width=".5" x="0" y="0" width="60" height="60"/>
                <use id="zoomplus" xlink:href="#zoomPlus" x="17" y="9" onmousedown="handleZoom(evt,'in')"/>
                <use id="zoomminus" xlink:href="#zoomMin" x="42" y="9" onmousedown="handleZoom(evt,'out')"/>
                <use id="reset" xlink:href="#resetDef" x="30" y="36" onmousedown="handleReset()"/>
                <g id="arrowUp" xlink:href="#dirArrow" transform="translate(30 24)" onmousedown="handlePan(0,-1)">
                  <use xlink:href="#rim" fill="#404040">
                        <set attributeName="fill" to="#808080" begin="arrowUp.mouseover" end="arrowUp.mouseout"/>
                  </use>
                  <path fill="none" stroke="white" stroke-width="1.5" d="M0,-3.0v7 M-2.5,-0.5L0,-3.0L2.5,-0.5"/>
                </g>
                <g id="arrowRight" xlink:href="#dirArrow" transform="rotate(90) translate(36 -43)" onmousedown="handlePan(1,0)">
                  <use xlink:href="#rim" fill="#404040">
                        <set attributeName="fill" to="#808080" begin="arrowRight.mouseover" end="arrowRight.mouseout"/>
                  </use>
                  <path fill="none" stroke="white" stroke-width="1.5" d="M0,-3.0v7 M-2.5,-0.5L0,-3.0L2.5,-0.5"/>
                </g>
                <g id="arrowDown" xlink:href="#dirArrow" transform="rotate(180) translate(-30 -48)" onmousedown="handlePan(0,1)">
                  <use xlink:href="#rim" fill="#404040">
                        <set attributeName="fill" to="#808080" begin="arrowDown.mouseover" end="arrowDown.mouseout"/>
                  </use>
                  <path fill="none" stroke="white" stroke-width="1.5" d="M0,-3.0v7 M-2.5,-0.5L0,-3.0L2.5,-0.5"/>
                </g>
                <g id="arrowLeft" xlink:href="#dirArrow" transform="rotate(270) translate(-36 17)" onmousedown="handlePan(-1,0)">
                  <use xlink:href="#rim" fill="#404040">
                        <set attributeName="fill" to="#808080" begin="arrowLeft.mouseover" end="arrowLeft.mouseout"/>
                  </use>
                  <path fill="none" stroke="white" stroke-width="1.5" d="M0,-3.0v7 M-2.5,-0.5L0,-3.0L2.5,-0.5"/>
                </g>
        </g>
        <svg viewBox="0 0 15 15" width="100%" height="30px" preserveAspectRatio="xMaxYMin meet">
         <g id="arrow_out" transform="scale(0.3 0.3)">
          <a xlink:href="classformat_1_1_height_formatter__coll__graph_org.svg" target="_base">
           <rect id="button" ry="5" rx="5" y="6" x="6" height="38" width="38"
                fill="#f2f5e9" fill-opacity="0.5" stroke="#606060" stroke-width="1.0"/>
           <path id="arrow"
             d="M 11.500037,31.436501 C 11.940474,20.09759 22.043105,11.32322 32.158766,21.979434 L 37.068811,17.246167 C 37.068811,17.246167 37.088388,32 37.088388,32 L 22.160133,31.978069 C 22.160133,31.978069 26.997745,27.140456 26.997745,27.140456 C 18.528582,18.264221 13.291696,25.230495 11.500037,31.436501 z"
             style="fill:#404040;"/>
          </a>
         </g>
        </svg>
</svg>
