<?xml version="1.0" encoding="UTF-8" standalone="no"?>
<!DOCTYPE svg PUBLIC "-//W3C//DTD SVG 1.1//EN"
 "http://www.w3.org/Graphics/SVG/1.1/DTD/svg11.dtd">
<!-- Generated by graphviz version 2.38.0 (20140413.2041)
 -->
<!-- Title: CmdTypeAllocContainer Pages: 1 -->
<svg width="290pt" height="178pt"
 viewBox="0.00 0.00 289.99 178.00" xmlns="http://www.w3.org/2000/svg" xmlns:xlink="http://www.w3.org/1999/xlink">
<g id="graph0" class="graph" transform="scale(1 1) rotate(0) translate(4 174)">
<title>CmdTypeAllocContainer</title>
<polygon fill="white" stroke="none" points="-4,4 -4,-174 285.994,-174 285.994,4 -4,4"/>
<!-- Node1 -->
<g id="node1" class="node"><title>Node1</title>
<g id="a_node1"><a xlink:title=" ">
<polygon fill="#bfbfbf" stroke="black" points="0,-75.5 0,-93.5 123.832,-93.5 123.832,-75.5 0,-75.5"/>
<text text-anchor="middle" x="61.916" y="-81.5" font-family="Helvetica,sans-Serif" font-size="10.00">CmdTypeAllocContainer</text>
</a>
</g>
</g>
<!-- Node2 -->
<g id="node2" class="node"><title>Node2</title>
<g id="a_node2"><a xlink:href="classmachine_1_1_command_boolean_1_1_cmd_bool_alloc_container.html" target="_top" xlink:title="整数変数を割り当てる">
<polygon fill="white" stroke="black" points="159.832,-141.5 159.832,-169.5 281.994,-169.5 281.994,-141.5 159.832,-141.5"/>
<text text-anchor="start" x="167.832" y="-157.5" font-family="Helvetica,sans-Serif" font-size="10.00">CmdBoolAllocContainer</text>
<text text-anchor="middle" x="220.913" y="-147.5" font-family="Helvetica,sans-Serif" font-size="10.00">&lt; Boolean &gt;</text>
</a>
</g>
</g>
<!-- Node1&#45;&gt;Node2 -->
<g id="edge1" class="edge"><title>Node1&#45;&gt;Node2</title>
<path fill="none" stroke="midnightblue" d="M89.2729,-98.3952C108.585,-108.369 135.554,-121.869 159.832,-132.5 166.789,-135.546 174.289,-138.597 181.553,-141.435"/>
<polygon fill="midnightblue" stroke="midnightblue" points="90.6773,-95.1806 80.1903,-93.6729 87.4482,-101.391 90.6773,-95.1806"/>
</g>
<!-- Node3 -->
<g id="node3" class="node"><title>Node3</title>
<g id="a_node3"><a xlink:href="classmachine_1_1_command_double_1_1_cmd_dbl_alloc_container.html" target="_top" xlink:title="Double変数を割り当てる">
<polygon fill="white" stroke="black" points="162.337,-94.5 162.337,-122.5 279.489,-122.5 279.489,-94.5 162.337,-94.5"/>
<text text-anchor="start" x="170.337" y="-110.5" font-family="Helvetica,sans-Serif" font-size="10.00">CmdDblAllocContainer</text>
<text text-anchor="middle" x="220.913" y="-100.5" font-family="Helvetica,sans-Serif" font-size="10.00">&lt; Double &gt;</text>
</a>
</g>
</g>
<!-- Node1&#45;&gt;Node3 -->
<g id="edge2" class="edge"><title>Node1&#45;&gt;Node3</title>
<path fill="none" stroke="midnightblue" d="M131.865,-95.0401C142.004,-96.5901 152.36,-98.1731 162.24,-99.6836"/>
<polygon fill="midnightblue" stroke="midnightblue" points="132.237,-91.5564 121.823,-93.505 131.179,-98.476 132.237,-91.5564"/>
</g>
<!-- Node4 -->
<g id="node4" class="node"><title>Node4</title>
<g id="a_node4"><a xlink:href="classmachine_1_1_command_integer_1_1_cmd_int_alloc_container.html" target="_top" xlink:title="Integer変数を割り当てる">
<polygon fill="white" stroke="black" points="164.28,-47.5 164.28,-75.5 277.546,-75.5 277.546,-47.5 164.28,-47.5"/>
<text text-anchor="start" x="172.28" y="-63.5" font-family="Helvetica,sans-Serif" font-size="10.00">CmdIntAllocContainer</text>
<text text-anchor="middle" x="220.913" y="-53.5" font-family="Helvetica,sans-Serif" font-size="10.00">&lt; Integer &gt;</text>
</a>
</g>
</g>
<!-- Node1&#45;&gt;Node4 -->
<g id="edge3" class="edge"><title>Node1&#45;&gt;Node4</title>
<path fill="none" stroke="midnightblue" d="M134.048,-74.0791C144.111,-72.605 154.337,-71.1069 164.056,-69.6831"/>
<polygon fill="midnightblue" stroke="midnightblue" points="133.452,-70.6291 124.065,-75.5417 134.466,-77.5552 133.452,-70.6291"/>
</g>
<!-- Node5 -->
<g id="node5" class="node"><title>Node5</title>
<g id="a_node5"><a xlink:href="classmachine_1_1_command_string_1_1_cmd_str_alloc_container.html" target="_top" xlink:title="String変数を割り当てる">
<polygon fill="white" stroke="black" points="163.45,-0.5 163.45,-28.5 278.376,-28.5 278.376,-0.5 163.45,-0.5"/>
<text text-anchor="start" x="171.45" y="-16.5" font-family="Helvetica,sans-Serif" font-size="10.00">CmdStrAllocContainer</text>
<text text-anchor="middle" x="220.913" y="-6.5" font-family="Helvetica,sans-Serif" font-size="10.00">&lt; String &gt;</text>
</a>
</g>
</g>
<!-- Node1&#45;&gt;Node5 -->
<g id="edge4" class="edge"><title>Node1&#45;&gt;Node5</title>
<path fill="none" stroke="midnightblue" d="M90.4478,-70.8635C109.73,-61.4532 136.176,-48.8264 159.832,-38.5 167.45,-35.1747 175.684,-31.7664 183.541,-28.6011"/>
<polygon fill="midnightblue" stroke="midnightblue" points="88.7739,-67.7861 81.3358,-75.331 91.8555,-74.0713 88.7739,-67.7861"/>
</g>
</g>
</svg>
