<?xml version="1.0" encoding="UTF-8" standalone="no"?>
<!DOCTYPE svg PUBLIC "-//W3C//DTD SVG 1.1//EN"
 "http://www.w3.org/Graphics/SVG/1.1/DTD/svg11.dtd">
<!-- Generated by graphviz version 2.47.0 (20210316.0004)
 -->
<!-- Title: createRootStep Pages: 1 -->
<svg width="251pt" height="66pt"
 viewBox="0.00 0.00 251.00 66.00" xmlns="http://www.w3.org/2000/svg" xmlns:xlink="http://www.w3.org/1999/xlink">
<g id="graph0" class="graph" transform="scale(1 1) rotate(0) translate(4 62)">
<title>createRootStep</title>
<polygon fill="white" stroke="transparent" points="-4,4 -4,-62 247,-62 247,4 -4,4"/>
<!-- Node1 -->
<g id="node1" class="node">
<title>Node1</title>
<g id="a_node1"><a xlink:title="与えられたブロックを子にもつ、走査の根ステップのクラスを返すファクトリ手続き。">
<polygon fill="#bfbfbf" stroke="black" points="0,-19.5 0,-38.5 85,-38.5 85,-19.5 0,-19.5"/>
<text text-anchor="middle" x="42.5" y="-26.5" font-family="Helvetica,sans-Serif" font-size="10.00">createRootStep</text>
</a>
</g>
</g>
<!-- Node2 -->
<g id="node2" class="node">
<title>Node2</title>
<g id="a_node2"><a xlink:href="classast_1_1_program.html#a5788cfd9f521da781e600b8a94bae589" target="_top" xlink:title="global container for RIDs">
<polygon fill="white" stroke="black" points="121,-38.5 121,-57.5 243,-57.5 243,-38.5 121,-38.5"/>
<text text-anchor="middle" x="182" y="-45.5" font-family="Helvetica,sans-Serif" font-size="10.00">ast.Program.getNewRid</text>
</a>
</g>
</g>
<!-- Node1&#45;&gt;Node2 -->
<g id="edge1" class="edge">
<title>Node1&#45;&gt;Node2</title>
<path fill="none" stroke="midnightblue" d="M85.13,-34.75C93.34,-35.89 102.17,-37.11 111.02,-38.33"/>
<polygon fill="midnightblue" stroke="midnightblue" points="110.61,-41.81 121,-39.71 111.57,-34.87 110.61,-41.81"/>
</g>
<!-- Node3 -->
<g id="node3" class="node">
<title>Node3</title>
<g id="a_node3"><a xlink:href="classast_1_1_step_rule.html#af73d34a3b985a0cac0734fa957fbd03a" target="_top" xlink:title="空なルールを生成する.">
<polygon fill="white" stroke="black" points="153.5,-0.5 153.5,-19.5 210.5,-19.5 210.5,-0.5 153.5,-0.5"/>
<text text-anchor="middle" x="182" y="-7.5" font-family="Helvetica,sans-Serif" font-size="10.00">StepRule</text>
</a>
</g>
</g>
<!-- Node1&#45;&gt;Node3 -->
<g id="edge2" class="edge">
<title>Node1&#45;&gt;Node3</title>
<path fill="none" stroke="midnightblue" d="M85.13,-23.25C103.63,-20.69 125.25,-17.7 143.27,-15.21"/>
<polygon fill="midnightblue" stroke="midnightblue" points="143.99,-18.65 153.42,-13.81 143.03,-11.71 143.99,-18.65"/>
</g>
</g>
</svg>
