<?xml version="1.0" encoding="UTF-8" standalone="no"?>
<!DOCTYPE svg PUBLIC "-//W3C//DTD SVG 1.1//EN"
 "http://www.w3.org/Graphics/SVG/1.1/DTD/svg11.dtd">
<!-- Generated by graphviz version 2.47.0 (20210316.0004)
 -->
<!-- Title: AstLet Pages: 1 -->
<!--zoomable 372 -->
<svg id="main" version="1.1" xmlns="http://www.w3.org/2000/svg" xmlns:xlink="http://www.w3.org/1999/xlink" xml:space="preserve" onload="init(evt)">
<style type="text/css"><![CDATA[
.edge:hover path { stroke: red; }
.edge:hover polygon { stroke: red; fill: red; }
]]></style>
<script type="text/javascript"><![CDATA[
var edges = document.getElementsByTagName('g');
if (edges && edges.length) {
  for (var i=0;i<edges.length;i++) {
    if (edges[i].id.substr(0,4)=='edge') {
      edges[i].setAttribute('class','edge');
    }
  }
}
]]></script>
        <defs>
                <circle id="rim" cx="0" cy="0" r="7"/>
                <circle id="rim2" cx="0" cy="0" r="3.5"/>
                <g id="zoomPlus">
                        <use xlink:href="#rim" fill="#404040">
                                <set attributeName="fill" to="#808080" begin="zoomplus.mouseover" end="zoomplus.mouseout"/>
                        </use>
                        <path d="M-4,0h8M0,-4v8" fill="none" stroke="white" stroke-width="1.5" pointer-events="none"/>
                </g>
                <g id="zoomMin">
                        <use xlink:href="#rim" fill="#404040">
                                <set attributeName="fill" to="#808080" begin="zoomminus.mouseover" end="zoomminus.mouseout"/>
                        </use>
                        <path d="M-4,0h8" fill="none" stroke="white" stroke-width="1.5" pointer-events="none"/>
                </g>
                <g id="dirArrow">
                        <path fill="none" stroke="white" stroke-width="1.5" d="M0,-3.0v7 M-2.5,-0.5L0,-3.0L2.5,-0.5"/>
                </g>
               <g id="resetDef">
                       <use xlink:href="#rim2" fill="#404040">
                               <set attributeName="fill" to="#808080" begin="reset.mouseover" end="reset.mouseout"/>
                       </use>
               </g>
        </defs>

<script type="text/javascript">
var viewWidth = 1105;
var viewHeight = 372;
var sectionId = 'dynsection-1';
</script>
<script xlink:href="svgpan.js"/>
<svg id="graph" class="graph">
<g id="viewport">
<title>AstLet</title>
<polygon fill="white" stroke="transparent" points="-4,4 -4,-368 1101,-368 1101,4 -4,4"/>
<!-- Node1 -->
<g id="node1" class="node">
<title>Node1</title>
<g id="a_node1"><a xlink:title="とりあえず任意の文をラップして，ブール値を与えるためのノード">
<polygon fill="#bfbfbf" stroke="black" points="1052,-249.5 1052,-268.5 1097,-268.5 1097,-249.5 1052,-249.5"/>
<text text-anchor="middle" x="1074.5" y="-256.5" font-family="Helvetica,sans-Serif" font-size="10.00">AstLet</text>
</a>
</g>
</g>
<!-- Node2 -->
<g id="node2" class="node">
<title>Node2</title>
<g id="a_node2"><a xlink:href="classast_1_1_ast_oper_tagged.html" target="_top" xlink:title=" ">
<polygon fill="white" stroke="black" points="931,-212.5 931,-231.5 1015,-231.5 1015,-212.5 931,-212.5"/>
<text text-anchor="middle" x="973" y="-219.5" font-family="Helvetica,sans-Serif" font-size="10.00">AstOperTagged</text>
</a>
</g>
</g>
<!-- Node2&#45;&gt;Node1 -->
<g id="edge1" class="edge">
<title>Node2&#45;&gt;Node1</title>
<path fill="none" stroke="midnightblue" d="M1009.17,-235.08C1023.46,-240.39 1039.51,-246.36 1052,-251.01"/>
<polygon fill="midnightblue" stroke="midnightblue" points="1010.22,-231.73 999.62,-231.53 1007.78,-238.29 1010.22,-231.73"/>
</g>
<!-- Node3 -->
<g id="node3" class="node">
<title>Node3</title>
<g id="a_node3"><a xlink:href="classast_1_1_ast_node_tagged_settable.html" target="_top" xlink:title="タグ付きの子をもつノードのクラス．利用者は自前で，追加する子のField名と，Getter，Setter，型を設定する．読み出しは子の添字でも行える．">
<polygon fill="white" stroke="black" points="744.5,-142.5 744.5,-161.5 866.5,-161.5 866.5,-142.5 744.5,-142.5"/>
<text text-anchor="middle" x="805.5" y="-149.5" font-family="Helvetica,sans-Serif" font-size="10.00">AstNodeTaggedSettable</text>
</a>
</g>
</g>
<!-- Node3&#45;&gt;Node2 -->
<g id="edge2" class="edge">
<title>Node3&#45;&gt;Node2</title>
<path fill="none" stroke="midnightblue" d="M838.68,-165.61C871.23,-179.38 920.71,-200.3 949.34,-212.42"/>
<polygon fill="midnightblue" stroke="midnightblue" points="839.74,-162.26 829.17,-161.59 837.01,-168.71 839.74,-162.26"/>
</g>
<!-- Node4 -->
<g id="node4" class="node">
<title>Node4</title>
<g id="a_node4"><a xlink:href="classast_1_1_ast_node.html" target="_top" xlink:title="タグなしの順アクセスの子供をもてる抽象構文木のノードのクラス。">
<polygon fill="white" stroke="black" points="533.5,-256.5 533.5,-275.5 588.5,-275.5 588.5,-256.5 533.5,-256.5"/>
<text text-anchor="middle" x="561" y="-263.5" font-family="Helvetica,sans-Serif" font-size="10.00">AstNode</text>
</a>
</g>
</g>
<!-- Node4&#45;&gt;Node1 -->
<g id="edge21" class="edge">
<title>Node4&#45;&gt;Node1</title>
<path fill="none" stroke="#9a32cd" stroke-dasharray="5,2" d="M599.01,-265.49C699.14,-264.12 973.08,-260.37 1051.97,-259.29"/>
<polygon fill="#9a32cd" stroke="#9a32cd" points="598.73,-262 588.78,-265.63 598.83,-269 598.73,-262"/>
<text text-anchor="middle" x="899" y="-275" font-family="Helvetica,sans-Serif" font-size="10.00"> sent_</text>
<text text-anchor="middle" x="899" y="-264" font-family="Helvetica,sans-Serif" font-size="10.00">term_</text>
</g>
<!-- Node4&#45;&gt;Node3 -->
<g id="edge3" class="edge">
<title>Node4&#45;&gt;Node3</title>
<path fill="none" stroke="midnightblue" d="M599.02,-260.1C613.66,-257.11 630.42,-252.84 645,-247 703.34,-223.62 765.35,-180.74 791.58,-161.63"/>
<polygon fill="midnightblue" stroke="midnightblue" points="597.97,-256.73 588.81,-262.05 599.29,-263.61 597.97,-256.73"/>
</g>
<!-- Node5 -->
<g id="node5" class="node">
<title>Node5</title>
<g id="a_node5"><a xlink:href="classast_1_1_ast_node_base.html" target="_top" xlink:title=" ">
<polygon fill="white" stroke="red" points="248.5,-294.5 248.5,-313.5 325.5,-313.5 325.5,-294.5 248.5,-294.5"/>
<text text-anchor="middle" x="287" y="-301.5" font-family="Helvetica,sans-Serif" font-size="10.00">AstNodeBase</text>
</a>
</g>
</g>
<!-- Node5&#45;&gt;Node4 -->
<g id="edge4" class="edge">
<title>Node5&#45;&gt;Node4</title>
<path fill="none" stroke="midnightblue" d="M335.46,-297.37C392.9,-289.34 487.62,-276.11 533.48,-269.71"/>
<polygon fill="midnightblue" stroke="midnightblue" points="334.95,-293.91 325.53,-298.76 335.92,-300.84 334.95,-293.91"/>
</g>
<!-- Node9 -->
<g id="node6" class="node">
<title>Node9</title>
<g id="a_node6"><a xlink:title=" ">
<polygon fill="white" stroke="#bfbfbf" points="10.5,-294.5 10.5,-313.5 39.5,-313.5 39.5,-294.5 10.5,-294.5"/>
<text text-anchor="middle" x="25" y="-301.5" font-family="Helvetica,sans-Serif" font-size="10.00">int</text>
</a>
</g>
</g>
<!-- Node9&#45;&gt;Node1 -->
<g id="edge22" class="edge">
<title>Node9&#45;&gt;Node1</title>
<path fill="none" stroke="#9a32cd" stroke-dasharray="5,2" d="M47.81,-318.95C54.07,-322.53 61.08,-325.92 68,-328 160.99,-355.92 188.91,-342 286,-342 286,-342 286,-342 974,-342 1019.44,-342 1055.12,-290.32 1068.15,-268.52"/>
<polygon fill="#9a32cd" stroke="#9a32cd" points="49.63,-315.95 39.28,-313.68 45.95,-321.91 49.63,-315.95"/>
<text text-anchor="middle" x="694.5" y="-356" font-family="Helvetica,sans-Serif" font-size="10.00"> IDX_SENT</text>
<text text-anchor="middle" x="694.5" y="-345" font-family="Helvetica,sans-Serif" font-size="10.00">IDX_TERM</text>
</g>
<!-- Node9&#45;&gt;Node5 -->
<g id="edge5" class="edge">
<title>Node9&#45;&gt;Node5</title>
<path fill="none" stroke="#9a32cd" stroke-dasharray="5,2" d="M49.63,-304C94.77,-304 193.62,-304 248.1,-304"/>
<polygon fill="#9a32cd" stroke="#9a32cd" points="49.61,-300.5 39.61,-304 49.61,-307.5 49.61,-300.5"/>
<text text-anchor="middle" x="129.5" y="-318" font-family="Helvetica,sans-Serif" font-size="10.00"> BITMASK_PRINT_WIDTH</text>
<text text-anchor="middle" x="129.5" y="-307" font-family="Helvetica,sans-Serif" font-size="10.00">UNDEF</text>
</g>
<!-- Node16 -->
<g id="node11" class="node">
<title>Node16</title>
<g id="a_node11"><a xlink:href="classformat_1_1_style.html" target="_top" xlink:title="ノードの表示スタイルに関するプロパティのクラス.">
<polygon fill="white" stroke="red" points="267.5,-180.5 267.5,-199.5 306.5,-199.5 306.5,-180.5 267.5,-180.5"/>
<text text-anchor="middle" x="287" y="-187.5" font-family="Helvetica,sans-Serif" font-size="10.00">Style</text>
</a>
</g>
</g>
<!-- Node9&#45;&gt;Node16 -->
<g id="edge11" class="edge">
<title>Node9&#45;&gt;Node16</title>
<path fill="none" stroke="#9a32cd" stroke-dasharray="5,2" d="M49.23,-295.6C55.33,-293.43 61.9,-291.1 68,-289 122.47,-270.2 148.06,-286.43 191,-248 205.22,-235.27 194.28,-221.15 209,-209 225.46,-195.41 250.21,-191.31 267.19,-190.19"/>
<polygon fill="#9a32cd" stroke="#9a32cd" points="47.82,-292.39 39.59,-299.06 50.19,-298.98 47.82,-292.39"/>
<text text-anchor="middle" x="129.5" y="-292" font-family="Helvetica,sans-Serif" font-size="10.00"> pref</text>
</g>
<!-- Node11 -->
<g id="node7" class="node">
<title>Node11</title>
<g id="a_node7"><a xlink:title=" ">
<polygon fill="white" stroke="#bfbfbf" points="0,-66.5 0,-85.5 50,-85.5 50,-66.5 0,-66.5"/>
<text text-anchor="middle" x="25" y="-73.5" font-family="Helvetica,sans-Serif" font-size="10.00">boolean</text>
</a>
</g>
</g>
<!-- Node11&#45;&gt;Node1 -->
<g id="edge23" class="edge">
<title>Node11&#45;&gt;Node1</title>
<path fill="none" stroke="#9a32cd" stroke-dasharray="5,2" d="M45.8,-59.96C52.52,-55.19 60.28,-50.34 68,-47 158.97,-7.64 186.88,0 286,0 286,0 286,0 974,0 1028.55,0 1064.46,-202.75 1072.01,-249.47"/>
<polygon fill="#9a32cd" stroke="#9a32cd" points="43.28,-57.48 37.39,-66.29 47.49,-63.08 43.28,-57.48"/>
<text text-anchor="middle" x="694.5" y="-3" font-family="Helvetica,sans-Serif" font-size="10.00"> DEBUG_LET</text>
</g>
<!-- Node11&#45;&gt;Node3 -->
<g id="edge18" class="edge">
<title>Node11&#45;&gt;Node3</title>
<path fill="none" stroke="#9a32cd" stroke-dasharray="5,2" d="M60.33,-69.65C154.73,-53.32 425.81,-14.06 645,-57 683.15,-64.47 692.41,-70.43 726,-90 752.41,-105.39 779.61,-128.92 794.03,-142.13"/>
<polygon fill="#9a32cd" stroke="#9a32cd" points="59.45,-66.25 50.21,-71.43 60.67,-73.15 59.45,-66.25"/>
<text text-anchor="middle" x="421" y="-42" font-family="Helvetica,sans-Serif" font-size="10.00"> DEBUG_REPO</text>
</g>
<!-- Node11&#45;&gt;Node5 -->
<g id="edge6" class="edge">
<title>Node11&#45;&gt;Node5</title>
<path fill="none" stroke="#9a32cd" stroke-dasharray="5,2" d="M28.64,-95.76C32.87,-120.01 43.35,-160.99 68,-186 109.31,-227.91 150.09,-192.7 191,-235 207.42,-251.98 191.46,-269.19 209,-285 219.74,-294.68 234.62,-299.62 248.44,-302.07"/>
<polygon fill="#9a32cd" stroke="#9a32cd" points="32.06,-94.97 27.07,-85.62 25.14,-96.04 32.06,-94.97"/>
<text text-anchor="middle" x="129.5" y="-238" font-family="Helvetica,sans-Serif" font-size="10.00"> DEBUG_REPO</text>
</g>
<!-- Node11&#45;&gt;Node16 -->
<g id="edge12" class="edge">
<title>Node11&#45;&gt;Node16</title>
<path fill="none" stroke="#9a32cd" stroke-dasharray="5,2" d="M51.06,-90.81C85.63,-110.77 150.34,-146.37 209,-169 228.39,-176.48 251.49,-182.41 267.3,-186.03"/>
<polygon fill="#9a32cd" stroke="#9a32cd" points="52.54,-87.63 42.13,-85.63 49.02,-93.68 52.54,-87.63"/>
<text text-anchor="middle" x="129.5" y="-174" font-family="Helvetica,sans-Serif" font-size="10.00"> preoperSupress</text>
<text text-anchor="middle" x="129.5" y="-163" font-family="Helvetica,sans-Serif" font-size="10.00">toInline</text>
</g>
<!-- Node12 -->
<g id="node8" class="node">
<title>Node12</title>
<g id="a_node8"><a xlink:href="interfaceformat_1_1_x_formattable_1_1_navigatable.html" target="_top" xlink:title="木構造の分岐ノードとして清書可能なオブジェクトのクラス">
<polygon fill="white" stroke="red" points="222,-140.5 222,-159.5 352,-159.5 352,-140.5 222,-140.5"/>
<text text-anchor="middle" x="287" y="-147.5" font-family="Helvetica,sans-Serif" font-size="10.00">XFormattable.Navigatable</text>
</a>
</g>
</g>
<!-- Node12&#45;&gt;Node4 -->
<g id="edge7" class="edge">
<title>Node12&#45;&gt;Node4</title>
<path fill="none" stroke="midnightblue" d="M361.75,-161.32C401.17,-168.75 444.52,-179.57 459,-193 477.55,-210.2 458.27,-230 477,-247 492.21,-260.81 515.38,-265.22 533.37,-266.38"/>
<polygon fill="midnightblue" stroke="midnightblue" points="362.3,-157.87 351.83,-159.51 361.04,-164.75 362.3,-157.87"/>
</g>
<!-- Node17 -->
<g id="node12" class="node">
<title>Node17</title>
<g id="a_node12"><a xlink:href="interfaceformat_1_1_x_formattable_1_1_field_navigatable.html" target="_top" xlink:title="タグ付きノードに対応する清書対象のクラス。">
<polygon fill="white" stroke="black" points="485.5,-180.5 485.5,-199.5 636.5,-199.5 636.5,-180.5 485.5,-180.5"/>
<text text-anchor="middle" x="561" y="-187.5" font-family="Helvetica,sans-Serif" font-size="10.00">XFormattable.FieldNavigatable</text>
</a>
</g>
</g>
<!-- Node12&#45;&gt;Node17 -->
<g id="edge14" class="edge">
<title>Node12&#45;&gt;Node17</title>
<path fill="none" stroke="midnightblue" d="M362.45,-148.9C392.84,-150.08 428.05,-153.54 459,-162 467.63,-164.36 468.58,-167.98 477,-171 487.3,-174.69 498.58,-177.84 509.41,-180.44"/>
<polygon fill="midnightblue" stroke="midnightblue" points="362.44,-145.4 352.34,-148.59 362.22,-152.4 362.44,-145.4"/>
</g>
<!-- Node14 -->
<g id="node9" class="node">
<title>Node14</title>
<g id="a_node9"><a xlink:href="interfaceformat_1_1_x_formattable_1_1_typed_formattable.html" target="_top" xlink:title="ノードの型情報をもつ書式出力可能なオブジェクトのインタフェース．">
<polygon fill="white" stroke="red" points="209,-256.5 209,-275.5 365,-275.5 365,-256.5 209,-256.5"/>
<text text-anchor="middle" x="287" y="-263.5" font-family="Helvetica,sans-Serif" font-size="10.00">XFormattable.TypedFormattable</text>
</a>
</g>
</g>
<!-- Node14&#45;&gt;Node4 -->
<g id="edge8" class="edge">
<title>Node14&#45;&gt;Node4</title>
<path fill="none" stroke="midnightblue" d="M375.29,-266C430.05,-266 496.94,-266 533.32,-266"/>
<polygon fill="midnightblue" stroke="midnightblue" points="375.22,-262.5 365.22,-266 375.22,-269.5 375.22,-262.5"/>
</g>
<!-- Node15 -->
<g id="node10" class="node">
<title>Node15</title>
<g id="a_node10"><a xlink:title=" ">
<polygon fill="white" stroke="#bfbfbf" points="261,-218.5 261,-237.5 313,-237.5 313,-218.5 261,-218.5"/>
<text text-anchor="middle" x="287" y="-225.5" font-family="Helvetica,sans-Serif" font-size="10.00">Boolean</text>
</a>
</g>
</g>
<!-- Node15&#45;&gt;Node4 -->
<g id="edge9" class="edge">
<title>Node15&#45;&gt;Node4</title>
<path fill="none" stroke="#9a32cd" stroke-dasharray="5,2" d="M323.3,-232.6C357.89,-237.15 412.1,-244.36 459,-251 484.28,-254.58 513.07,-258.88 533.43,-261.95"/>
<polygon fill="#9a32cd" stroke="#9a32cd" points="323.59,-229.11 313.22,-231.28 322.68,-236.05 323.59,-229.11"/>
<text text-anchor="middle" x="421" y="-254" font-family="Helvetica,sans-Serif" font-size="10.00"> DEBUG_CHILD</text>
</g>
<!-- Node16&#45;&gt;Node4 -->
<g id="edge10" class="edge">
<title>Node16&#45;&gt;Node4</title>
<path fill="none" stroke="#9a32cd" stroke-dasharray="5,2" d="M316.91,-190.13C352.72,-191.53 414.46,-198.09 459,-225 469.81,-231.53 466.26,-240.34 477,-247 493.96,-257.52 516.11,-262.23 533.27,-264.33"/>
<polygon fill="#9a32cd" stroke="#9a32cd" points="316.77,-186.63 306.67,-189.85 316.57,-193.62 316.77,-186.63"/>
<text text-anchor="middle" x="421" y="-228" font-family="Helvetica,sans-Serif" font-size="10.00"> sty</text>
</g>
<!-- Node17&#45;&gt;Node3 -->
<g id="edge13" class="edge">
<title>Node17&#45;&gt;Node3</title>
<path fill="none" stroke="midnightblue" d="M645.71,-179.07C671.5,-175.49 699.96,-171.31 726,-167 735.99,-165.35 746.67,-163.42 756.83,-161.5"/>
<polygon fill="midnightblue" stroke="midnightblue" points="645.02,-175.64 635.59,-180.47 645.98,-182.57 645.02,-175.64"/>
</g>
<!-- Node18 -->
<g id="node13" class="node">
<title>Node18</title>
<g id="a_node13"><a xlink:title=" ">
<polygon fill="white" stroke="#bfbfbf" points="523,-66.5 523,-85.5 599,-85.5 599,-66.5 523,-66.5"/>
<text text-anchor="middle" x="561" y="-73.5" font-family="Helvetica,sans-Serif" font-size="10.00">List&lt; String &gt;</text>
</a>
</g>
</g>
<!-- Node18&#45;&gt;Node3 -->
<g id="edge15" class="edge">
<title>Node18&#45;&gt;Node3</title>
<path fill="none" stroke="#9a32cd" stroke-dasharray="5,2" d="M609.15,-83.06C642.41,-88.83 687.7,-98.29 726,-112 748.75,-120.14 773.32,-133.47 788.8,-142.48"/>
<polygon fill="#9a32cd" stroke="#9a32cd" points="609.67,-79.6 599.23,-81.39 608.51,-86.5 609.67,-79.6"/>
<text text-anchor="middle" x="694.5" y="-115" font-family="Helvetica,sans-Serif" font-size="10.00"> fields</text>
</g>
<!-- Node19 -->
<g id="node14" class="node">
<title>Node19</title>
<g id="a_node14"><a xlink:title=" ">
<polygon fill="white" stroke="#bfbfbf" points="477,-142.5 477,-161.5 645,-161.5 645,-142.5 477,-142.5"/>
<text text-anchor="middle" x="561" y="-149.5" font-family="Helvetica,sans-Serif" font-size="10.00">List&lt; Consumer&lt; ast.AstNode &gt; &gt;</text>
</a>
</g>
</g>
<!-- Node19&#45;&gt;Node3 -->
<g id="edge16" class="edge">
<title>Node19&#45;&gt;Node3</title>
<path fill="none" stroke="#9a32cd" stroke-dasharray="5,2" d="M655.17,-152C685.14,-152 717.53,-152 744.45,-152"/>
<polygon fill="#9a32cd" stroke="#9a32cd" points="655.12,-148.5 645.12,-152 655.12,-155.5 655.12,-148.5"/>
<text text-anchor="middle" x="694.5" y="-155" font-family="Helvetica,sans-Serif" font-size="10.00"> setters</text>
</g>
<!-- Node20 -->
<g id="node15" class="node">
<title>Node20</title>
<g id="a_node15"><a xlink:title=" ">
<polygon fill="white" stroke="#bfbfbf" points="480,-104.5 480,-123.5 642,-123.5 642,-104.5 480,-104.5"/>
<text text-anchor="middle" x="561" y="-111.5" font-family="Helvetica,sans-Serif" font-size="10.00">List&lt; Supplier&lt; XFormattable &gt; &gt;</text>
</a>
</g>
</g>
<!-- Node20&#45;&gt;Node3 -->
<g id="edge17" class="edge">
<title>Node20&#45;&gt;Node3</title>
<path fill="none" stroke="#9a32cd" stroke-dasharray="5,2" d="M645.71,-124.93C671.5,-128.51 699.96,-132.69 726,-137 735.99,-138.65 746.67,-140.58 756.83,-142.5"/>
<polygon fill="#9a32cd" stroke="#9a32cd" points="645.98,-121.43 635.59,-123.53 645.02,-128.36 645.98,-121.43"/>
<text text-anchor="middle" x="694.5" y="-140" font-family="Helvetica,sans-Serif" font-size="10.00"> getters</text>
</g>
<!-- Node21 -->
<g id="node16" class="node">
<title>Node21</title>
<g id="a_node16"><a xlink:href="interfacecmd_1_1_generatable_1_1_evaluatable.html" target="_top" xlink:title="評価して値を返すノードのインタフェース．必ずしもコードを生成しなくても良い．">
<polygon fill="white" stroke="black" points="744,-212.5 744,-231.5 867,-231.5 867,-212.5 744,-212.5"/>
<text text-anchor="middle" x="805.5" y="-219.5" font-family="Helvetica,sans-Serif" font-size="10.00">Generatable.Evaluatable</text>
</a>
</g>
</g>
<!-- Node21&#45;&gt;Node2 -->
<g id="edge19" class="edge">
<title>Node21&#45;&gt;Node2</title>
<path fill="none" stroke="midnightblue" d="M877.26,-222C895.59,-222 914.72,-222 930.95,-222"/>
<polygon fill="midnightblue" stroke="midnightblue" points="877.19,-218.5 867.19,-222 877.19,-225.5 877.19,-218.5"/>
</g>
<!-- Node22 -->
<g id="node17" class="node">
<title>Node22</title>
<g id="a_node17"><a xlink:href="interfacecmd_1_1_generatable.html" target="_top" xlink:title="変換してコードを生成できるノードのインタフェース.">
<polygon fill="white" stroke="black" points="526.5,-218.5 526.5,-237.5 595.5,-237.5 595.5,-218.5 526.5,-218.5"/>
<text text-anchor="middle" x="561" y="-225.5" font-family="Helvetica,sans-Serif" font-size="10.00">Generatable</text>
</a>
</g>
</g>
<!-- Node22&#45;&gt;Node21 -->
<g id="edge20" class="edge">
<title>Node22&#45;&gt;Node21</title>
<path fill="none" stroke="midnightblue" d="M606.11,-226.91C644.72,-225.95 701.17,-224.56 743.99,-223.5"/>
<polygon fill="midnightblue" stroke="midnightblue" points="605.63,-223.42 595.72,-227.17 605.8,-230.42 605.63,-223.42"/>
</g>
</g>
</svg>
        <g id="navigator" transform="translate(0 0)" fill="#404254">
                <rect fill="#f2f5e9" fill-opacity="0.5" stroke="#606060" stroke-width=".5" x="0" y="0" width="60" height="60"/>
                <use id="zoomplus" xlink:href="#zoomPlus" x="17" y="9" onmousedown="handleZoom(evt,'in')"/>
                <use id="zoomminus" xlink:href="#zoomMin" x="42" y="9" onmousedown="handleZoom(evt,'out')"/>
                <use id="reset" xlink:href="#resetDef" x="30" y="36" onmousedown="handleReset()"/>
                <g id="arrowUp" xlink:href="#dirArrow" transform="translate(30 24)" onmousedown="handlePan(0,-1)">
                  <use xlink:href="#rim" fill="#404040">
                        <set attributeName="fill" to="#808080" begin="arrowUp.mouseover" end="arrowUp.mouseout"/>
                  </use>
                  <path fill="none" stroke="white" stroke-width="1.5" d="M0,-3.0v7 M-2.5,-0.5L0,-3.0L2.5,-0.5"/>
                </g>
                <g id="arrowRight" xlink:href="#dirArrow" transform="rotate(90) translate(36 -43)" onmousedown="handlePan(1,0)">
                  <use xlink:href="#rim" fill="#404040">
                        <set attributeName="fill" to="#808080" begin="arrowRight.mouseover" end="arrowRight.mouseout"/>
                  </use>
                  <path fill="none" stroke="white" stroke-width="1.5" d="M0,-3.0v7 M-2.5,-0.5L0,-3.0L2.5,-0.5"/>
                </g>
                <g id="arrowDown" xlink:href="#dirArrow" transform="rotate(180) translate(-30 -48)" onmousedown="handlePan(0,1)">
                  <use xlink:href="#rim" fill="#404040">
                        <set attributeName="fill" to="#808080" begin="arrowDown.mouseover" end="arrowDown.mouseout"/>
                  </use>
                  <path fill="none" stroke="white" stroke-width="1.5" d="M0,-3.0v7 M-2.5,-0.5L0,-3.0L2.5,-0.5"/>
                </g>
                <g id="arrowLeft" xlink:href="#dirArrow" transform="rotate(270) translate(-36 17)" onmousedown="handlePan(-1,0)">
                  <use xlink:href="#rim" fill="#404040">
                        <set attributeName="fill" to="#808080" begin="arrowLeft.mouseover" end="arrowLeft.mouseout"/>
                  </use>
                  <path fill="none" stroke="white" stroke-width="1.5" d="M0,-3.0v7 M-2.5,-0.5L0,-3.0L2.5,-0.5"/>
                </g>
        </g>
        <svg viewBox="0 0 15 15" width="100%" height="30px" preserveAspectRatio="xMaxYMin meet">
         <g id="arrow_out" transform="scale(0.3 0.3)">
          <a xlink:href="classast_1_1_ast_let__coll__graph_org.svg" target="_base">
           <rect id="button" ry="5" rx="5" y="6" x="6" height="38" width="38"
                fill="#f2f5e9" fill-opacity="0.5" stroke="#606060" stroke-width="1.0"/>
           <path id="arrow"
             d="M 11.500037,31.436501 C 11.940474,20.09759 22.043105,11.32322 32.158766,21.979434 L 37.068811,17.246167 C 37.068811,17.246167 37.088388,32 37.088388,32 L 22.160133,31.978069 C 22.160133,31.978069 26.997745,27.140456 26.997745,27.140456 C 18.528582,18.264221 13.291696,25.230495 11.500037,31.436501 z"
             style="fill:#404040;"/>
          </a>
         </g>
        </svg>
</svg>
