<?xml version="1.0" encoding="UTF-8" standalone="no"?>
<!DOCTYPE svg PUBLIC "-//W3C//DTD SVG 1.1//EN"
 "http://www.w3.org/Graphics/SVG/1.1/DTD/svg11.dtd">
<!-- Generated by graphviz version 2.38.0 (20140413.2041)
 -->
<!-- Title: queryParser.StrRelStrDQContext Pages: 1 -->
<svg width="536pt" height="128pt"
 viewBox="0.00 0.00 535.96 128.11" xmlns="http://www.w3.org/2000/svg" xmlns:xlink="http://www.w3.org/1999/xlink">
<g id="graph0" class="graph" transform="scale(1 1) rotate(0) translate(4 124.115)">
<title>queryParser.StrRelStrDQContext</title>
<polygon fill="white" stroke="none" points="-4,4 -4,-124.115 531.964,-124.115 531.964,4 -4,4"/>
<!-- Node1 -->
<g id="node1" class="node"><title>Node1</title>
<g id="a_node1"><a xlink:title=" ">
<polygon fill="#bfbfbf" stroke="black" points="365.24,-45.6146 365.24,-63.6146 527.964,-63.6146 527.964,-45.6146 365.24,-45.6146"/>
<text text-anchor="middle" x="446.602" y="-51.6146" font-family="Helvetica,sans-Serif" font-size="10.00">queryParser.StrRelStrDQContext</text>
</a>
</g>
</g>
<!-- Node2 -->
<g id="node2" class="node"><title>Node2</title>
<g id="a_node2"><a xlink:href="classparse_1_1query_parser_1_1_string_rel_context.html" target="_top" xlink:title=" ">
<polygon fill="white" stroke="black" points="157.325,-101.615 157.325,-119.615 305.615,-119.615 305.615,-101.615 157.325,-101.615"/>
<text text-anchor="middle" x="231.47" y="-107.615" font-family="Helvetica,sans-Serif" font-size="10.00">queryParser.StringRelContext</text>
</a>
</g>
</g>
<!-- Node2&#45;&gt;Node1 -->
<g id="edge1" class="edge"><title>Node2&#45;&gt;Node1</title>
<path fill="none" stroke="midnightblue" d="M283.744,-99.2915C294.221,-96.8564 305.154,-94.2268 315.339,-91.6146 349.839,-82.766 389.127,-71.4323 415.452,-63.6538"/>
<polygon fill="midnightblue" stroke="midnightblue" points="282.841,-95.9078 273.879,-101.56 284.409,-102.73 282.841,-95.9078"/>
</g>
<!-- Node3 -->
<g id="node3" class="node"><title>Node3</title>
<g id="a_node3"><a xlink:title=" ">
<polygon fill="white" stroke="#bfbfbf" points="0,-72.6146 0,-90.6146 100.482,-90.6146 100.482,-72.6146 0,-72.6146"/>
<text text-anchor="middle" x="50.2412" y="-78.6146" font-family="Helvetica,sans-Serif" font-size="10.00">ParserRuleContext</text>
</a>
</g>
</g>
<!-- Node3&#45;&gt;Node2 -->
<g id="edge2" class="edge"><title>Node3&#45;&gt;Node2</title>
<path fill="none" stroke="midnightblue" d="M110.842,-91.3738C113.424,-91.7937 115.979,-92.2087 118.482,-92.6146 136.56,-95.5461 156.282,-98.7231 174.068,-101.581"/>
<polygon fill="midnightblue" stroke="midnightblue" points="111.245,-87.8934 100.813,-89.7401 110.12,-94.8023 111.245,-87.8934"/>
</g>
<!-- Node4 -->
<g id="node4" class="node"><title>Node4</title>
<g id="a_node4"><a xlink:href="classparse_1_1query_parser_1_1_str_term_context.html" target="_top" xlink:title=" ">
<polygon fill="white" stroke="black" points="160.389,-64.6146 160.389,-82.6146 302.551,-82.6146 302.551,-64.6146 160.389,-64.6146"/>
<text text-anchor="middle" x="231.47" y="-70.6146" font-family="Helvetica,sans-Serif" font-size="10.00">queryParser.StrTermContext</text>
</a>
</g>
</g>
<!-- Node3&#45;&gt;Node4 -->
<g id="edge4" class="edge"><title>Node3&#45;&gt;Node4</title>
<path fill="none" stroke="midnightblue" d="M110.885,-78.9524C126.747,-78.2444 144.024,-77.4732 160.387,-76.7428"/>
<polygon fill="midnightblue" stroke="midnightblue" points="110.525,-75.4649 100.691,-79.4074 110.837,-82.4579 110.525,-75.4649"/>
</g>
<!-- Node6 -->
<g id="node6" class="node"><title>Node6</title>
<g id="a_node6"><a xlink:href="classparse_1_1query_parser_1_1_dq_match_expr_context.html" target="_top" xlink:title=" ">
<polygon fill="white" stroke="black" points="147.601,-27.6146 147.601,-45.6146 315.339,-45.6146 315.339,-27.6146 147.601,-27.6146"/>
<text text-anchor="middle" x="231.47" y="-33.6146" font-family="Helvetica,sans-Serif" font-size="10.00">queryParser.DqMatchExprContext</text>
</a>
</g>
</g>
<!-- Node3&#45;&gt;Node6 -->
<g id="edge7" class="edge"><title>Node3&#45;&gt;Node6</title>
<path fill="none" stroke="midnightblue" d="M91.651,-69.7163C108.837,-64.8057 129.137,-59.2024 147.601,-54.6146 160.174,-51.4905 173.895,-48.3872 186.49,-45.6597"/>
<polygon fill="midnightblue" stroke="midnightblue" points="90.5709,-66.385 81.9292,-72.5146 92.5072,-73.1119 90.5709,-66.385"/>
</g>
<!-- Node4&#45;&gt;Node1 -->
<g id="edge3" class="edge"><title>Node4&#45;&gt;Node1</title>
<path fill="none" stroke="#9a32cd" stroke-dasharray="5,2" d="M312.549,-66.4759C329.744,-64.943 347.922,-63.3225 365.132,-61.7883"/>
<polygon fill="#9a32cd" stroke="#9a32cd" points="312.202,-62.9928 302.552,-67.367 312.824,-69.9652 312.202,-62.9928"/>
<text text-anchor="middle" x="340.29" y="-66.6146" font-family="Helvetica,sans-Serif" font-size="10.00"> a0</text>
</g>
<!-- Node5 -->
<g id="node5" class="node"><title>Node5</title>
<g id="a_node5"><a xlink:title=" ">
<polygon fill="white" stroke="#bfbfbf" points="28.8989,-6.61465 28.8989,-24.6146 71.5835,-24.6146 71.5835,-6.61465 28.8989,-6.61465"/>
<text text-anchor="middle" x="50.2412" y="-12.6146" font-family="Helvetica,sans-Serif" font-size="10.00">Token</text>
</a>
</g>
</g>
<!-- Node5&#45;&gt;Node1 -->
<g id="edge5" class="edge"><title>Node5&#45;&gt;Node1</title>
<path fill="none" stroke="#9a32cd" stroke-dasharray="5,2" d="M81.6817,-10.7284C131.126,-3.67535 231.777,6.99918 315.339,-7.61465 356.547,-14.8213 401.916,-33.9443 426.753,-45.4555"/>
<polygon fill="#9a32cd" stroke="#9a32cd" points="81.0324,-7.2863 71.6518,-12.2111 82.0561,-14.211 81.0324,-7.2863"/>
<text text-anchor="middle" x="231.47" y="-9.61465" font-family="Helvetica,sans-Serif" font-size="10.00"> t0</text>
</g>
<!-- Node5&#45;&gt;Node6 -->
<g id="edge8" class="edge"><title>Node5&#45;&gt;Node6</title>
<path fill="none" stroke="#9a32cd" stroke-dasharray="5,2" d="M82.0017,-19.2188C101.718,-21.529 128.249,-24.6376 153.429,-27.5878"/>
<polygon fill="#9a32cd" stroke="#9a32cd" points="82.1404,-15.7112 71.801,-18.0236 81.3257,-22.6636 82.1404,-15.7112"/>
<text text-anchor="middle" x="124.042" y="-26.6146" font-family="Helvetica,sans-Serif" font-size="10.00"> t0</text>
</g>
<!-- Node6&#45;&gt;Node1 -->
<g id="edge6" class="edge"><title>Node6&#45;&gt;Node1</title>
<path fill="none" stroke="#9a32cd" stroke-dasharray="5,2" d="M325.598,-39.0226C332.926,-39.4676 340.208,-39.9935 347.24,-40.6146 360.986,-41.8289 375.746,-43.6514 389.544,-45.5835"/>
<polygon fill="#9a32cd" stroke="#9a32cd" points="325.774,-35.527 315.594,-38.4644 325.384,-42.5162 325.774,-35.527"/>
<text text-anchor="middle" x="340.29" y="-42.6146" font-family="Helvetica,sans-Serif" font-size="10.00"> a1</text>
</g>
</g>
</svg>
