<?xml version="1.0" encoding="UTF-8" standalone="no"?>
<!DOCTYPE svg PUBLIC "-//W3C//DTD SVG 1.1//EN"
 "http://www.w3.org/Graphics/SVG/1.1/DTD/svg11.dtd">
<!-- Generated by graphviz version 2.47.0 (20210316.0004)
 -->
<!-- Title: AstTag Pages: 1 -->
<svg width="326pt" height="196pt"
 viewBox="0.00 0.00 325.50 196.00" xmlns="http://www.w3.org/2000/svg" xmlns:xlink="http://www.w3.org/1999/xlink">
<g id="graph0" class="graph" transform="scale(1 1) rotate(0) translate(4 192)">
<title>AstTag</title>
<polygon fill="white" stroke="transparent" points="-4,4 -4,-192 321.5,-192 321.5,4 -4,4"/>
<!-- Node1 -->
<g id="node1" class="node">
<title>Node1</title>
<g id="a_node1"><a xlink:title=" ">
<polygon fill="#bfbfbf" stroke="black" points="145,-0.5 145,-19.5 192,-19.5 192,-0.5 145,-0.5"/>
<text text-anchor="middle" x="168.5" y="-7.5" font-family="Helvetica,sans-Serif" font-size="10.00">AstTag</text>
</a>
</g>
</g>
<!-- Node2 -->
<g id="node2" class="node">
<title>Node2</title>
<g id="a_node2"><a xlink:href="classast_1_1_ast_terminal.html" target="_top" xlink:title="値型をもたない終端オブジェクトのクラス">
<polygon fill="white" stroke="black" points="67.5,-56.5 67.5,-75.5 135.5,-75.5 135.5,-56.5 67.5,-56.5"/>
<text text-anchor="middle" x="101.5" y="-63.5" font-family="Helvetica,sans-Serif" font-size="10.00">AstTerminal</text>
</a>
</g>
</g>
<!-- Node2&#45;&gt;Node1 -->
<g id="edge1" class="edge">
<title>Node2&#45;&gt;Node1</title>
<path fill="none" stroke="midnightblue" d="M120.33,-49.82C132.34,-40.15 147.47,-27.95 157.54,-19.83"/>
<polygon fill="midnightblue" stroke="midnightblue" points="117.85,-47.32 112.26,-56.32 122.25,-52.77 117.85,-47.32"/>
</g>
<!-- Node3 -->
<g id="node3" class="node">
<title>Node3</title>
<g id="a_node3"><a xlink:href="classast_1_1_ast_node.html" target="_top" xlink:title=" ">
<polygon fill="white" stroke="black" points="0,-112.5 0,-131.5 55,-131.5 55,-112.5 0,-112.5"/>
<text text-anchor="middle" x="27.5" y="-119.5" font-family="Helvetica,sans-Serif" font-size="10.00">AstNode</text>
</a>
</g>
</g>
<!-- Node3&#45;&gt;Node2 -->
<g id="edge2" class="edge">
<title>Node3&#45;&gt;Node2</title>
<path fill="none" stroke="midnightblue" d="M47.53,-106.38C60.91,-96.62 78.06,-84.11 89.39,-75.83"/>
<polygon fill="midnightblue" stroke="midnightblue" points="45.4,-103.6 39.39,-112.32 49.53,-109.26 45.4,-103.6"/>
</g>
<!-- Node4 -->
<g id="node4" class="node">
<title>Node4</title>
<g id="a_node4"><a xlink:href="interfaceformat_1_1_x_formattable.html" target="_top" xlink:title="入れ子フォーマット出力可能なオブジェクトのインタフェース。">
<polygon fill="white" stroke="black" points="103,-168.5 103,-187.5 178,-187.5 178,-168.5 103,-168.5"/>
<text text-anchor="middle" x="140.5" y="-175.5" font-family="Helvetica,sans-Serif" font-size="10.00">XFormattable</text>
</a>
</g>
</g>
<!-- Node4&#45;&gt;Node3 -->
<g id="edge3" class="edge">
<title>Node4&#45;&gt;Node3</title>
<path fill="none" stroke="midnightblue" d="M113.5,-164.1C92.39,-154.01 63.64,-140.27 45.32,-131.52"/>
<polygon fill="midnightblue" stroke="midnightblue" points="112.06,-167.29 122.59,-168.44 115.08,-160.97 112.06,-167.29"/>
</g>
<!-- Node5 -->
<g id="node5" class="node">
<title>Node5</title>
<g id="a_node5"><a xlink:href="interfaceformat_1_1_x_formattable_1_1_terminatable.html" target="_top" xlink:title="木構造の終端として清書可能なオブジェクトのクラス">
<polygon fill="white" stroke="black" points="73.5,-112.5 73.5,-131.5 207.5,-131.5 207.5,-112.5 73.5,-112.5"/>
<text text-anchor="middle" x="140.5" y="-119.5" font-family="Helvetica,sans-Serif" font-size="10.00">XFormattable.Terminatable</text>
</a>
</g>
</g>
<!-- Node4&#45;&gt;Node5 -->
<g id="edge5" class="edge">
<title>Node4&#45;&gt;Node5</title>
<path fill="none" stroke="midnightblue" d="M140.5,-157.8C140.5,-148.91 140.5,-138.78 140.5,-131.75"/>
<polygon fill="midnightblue" stroke="midnightblue" points="137,-158.08 140.5,-168.08 144,-158.08 137,-158.08"/>
</g>
<!-- Node6 -->
<g id="node6" class="node">
<title>Node6</title>
<g id="a_node6"><a xlink:href="interfaceformat_1_1_x_formattable_1_1_custom_formattable.html" target="_top" xlink:title="カスタム清書出力器をもつオブジェクトのクラス．">
<polygon fill="white" stroke="black" points="153.5,-56.5 153.5,-75.5 317.5,-75.5 317.5,-56.5 153.5,-56.5"/>
<text text-anchor="middle" x="235.5" y="-63.5" font-family="Helvetica,sans-Serif" font-size="10.00">XFormattable.CustomFormattable</text>
</a>
</g>
</g>
<!-- Node4&#45;&gt;Node6 -->
<g id="edge7" class="edge">
<title>Node4&#45;&gt;Node6</title>
<path fill="none" stroke="midnightblue" d="M173.85,-164.04C188.82,-156.69 205.54,-146.11 216.5,-132 229.62,-115.1 233.69,-89.38 234.94,-75.92"/>
<polygon fill="midnightblue" stroke="midnightblue" points="171.97,-161.05 164.35,-168.41 174.89,-167.42 171.97,-161.05"/>
</g>
<!-- Node5&#45;&gt;Node2 -->
<g id="edge4" class="edge">
<title>Node5&#45;&gt;Node2</title>
<path fill="none" stroke="midnightblue" d="M128.12,-103.86C121.36,-94.5 113.29,-83.33 107.82,-75.75"/>
<polygon fill="midnightblue" stroke="midnightblue" points="125.37,-106.03 134.06,-112.08 131.04,-101.93 125.37,-106.03"/>
</g>
<!-- Node6&#45;&gt;Node1 -->
<g id="edge6" class="edge">
<title>Node6&#45;&gt;Node1</title>
<path fill="none" stroke="midnightblue" d="M216.67,-49.82C204.66,-40.15 189.53,-27.95 179.46,-19.83"/>
<polygon fill="midnightblue" stroke="midnightblue" points="214.75,-52.77 224.74,-56.32 219.15,-47.32 214.75,-52.77"/>
</g>
</g>
</svg>
