<?xml version="1.0" encoding="UTF-8" standalone="no"?>
<!DOCTYPE svg PUBLIC "-//W3C//DTD SVG 1.1//EN"
 "http://www.w3.org/Graphics/SVG/1.1/DTD/svg11.dtd">
<!-- Generated by graphviz version 2.47.0 (20210316.0004)
 -->
<!-- Title: AstDataWriter.WriterBoolean Pages: 1 -->
<svg width="466pt" height="252pt"
 viewBox="0.00 0.00 466.00 252.00" xmlns="http://www.w3.org/2000/svg" xmlns:xlink="http://www.w3.org/1999/xlink">
<g id="graph0" class="graph" transform="scale(1 1) rotate(0) translate(4 248)">
<title>AstDataWriter.WriterBoolean</title>
<polygon fill="white" stroke="transparent" points="-4,4 -4,-248 462,-248 462,4 -4,4"/>
<!-- Node1 -->
<g id="node1" class="node">
<title>Node1</title>
<g id="a_node1"><a xlink:title="ブール型の値をもつ局所変数">
<polygon fill="#bfbfbf" stroke="black" points="205.5,-0.5 205.5,-19.5 346.5,-19.5 346.5,-0.5 205.5,-0.5"/>
<text text-anchor="middle" x="276" y="-7.5" font-family="Helvetica,sans-Serif" font-size="10.00">AstDataWriter.WriterBoolean</text>
</a>
</g>
</g>
<!-- Node2 -->
<g id="node2" class="node">
<title>Node2</title>
<g id="a_node2"><a xlink:href="classast_1_1_ast_data_writer.html" target="_top" xlink:title="局所変数環境からの値を書き込むクラス">
<polygon fill="white" stroke="black" points="191,-56.5 191,-75.5 269,-75.5 269,-56.5 191,-56.5"/>
<text text-anchor="middle" x="230" y="-63.5" font-family="Helvetica,sans-Serif" font-size="10.00">AstDataWriter</text>
</a>
</g>
</g>
<!-- Node2&#45;&gt;Node1 -->
<g id="edge1" class="edge">
<title>Node2&#45;&gt;Node1</title>
<path fill="none" stroke="midnightblue" d="M244.11,-48.43C252.18,-38.97 261.96,-27.48 268.55,-19.75"/>
<polygon fill="midnightblue" stroke="midnightblue" points="241.42,-46.2 237.6,-56.08 246.75,-50.74 241.42,-46.2"/>
</g>
<!-- Node3 -->
<g id="node3" class="node">
<title>Node3</title>
<g id="a_node3"><a xlink:href="classast_1_1_ast_node.html" target="_top" xlink:title="タグなしの順アクセスの子供をもてる抽象構文木のノードのクラス。">
<polygon fill="white" stroke="black" points="174.5,-112.5 174.5,-131.5 229.5,-131.5 229.5,-112.5 174.5,-112.5"/>
<text text-anchor="middle" x="202" y="-119.5" font-family="Helvetica,sans-Serif" font-size="10.00">AstNode</text>
</a>
</g>
</g>
<!-- Node3&#45;&gt;Node2 -->
<g id="edge2" class="edge">
<title>Node3&#45;&gt;Node2</title>
<path fill="none" stroke="midnightblue" d="M211.34,-102.98C216.09,-93.82 221.66,-83.09 225.46,-75.75"/>
<polygon fill="midnightblue" stroke="midnightblue" points="208.12,-101.59 206.62,-112.08 214.33,-104.82 208.12,-101.59"/>
</g>
<!-- Node4 -->
<g id="node4" class="node">
<title>Node4</title>
<g id="a_node4"><a xlink:href="classast_1_1_ast_node_base.html" target="_top" xlink:title=" ">
<polygon fill="white" stroke="black" points="58.5,-168.5 58.5,-187.5 135.5,-187.5 135.5,-168.5 58.5,-168.5"/>
<text text-anchor="middle" x="97" y="-175.5" font-family="Helvetica,sans-Serif" font-size="10.00">AstNodeBase</text>
</a>
</g>
</g>
<!-- Node4&#45;&gt;Node3 -->
<g id="edge3" class="edge">
<title>Node4&#45;&gt;Node3</title>
<path fill="none" stroke="midnightblue" d="M122.81,-163.73C142.25,-153.73 168.35,-140.31 185.17,-131.65"/>
<polygon fill="midnightblue" stroke="midnightblue" points="121.16,-160.64 113.87,-168.32 124.36,-166.86 121.16,-160.64"/>
</g>
<!-- Node5 -->
<g id="node5" class="node">
<title>Node5</title>
<g id="a_node5"><a xlink:href="interfaceast_1_1_node.html" target="_top" xlink:title=" ">
<polygon fill="white" stroke="black" points="0,-168.5 0,-187.5 40,-187.5 40,-168.5 0,-168.5"/>
<text text-anchor="middle" x="20" y="-175.5" font-family="Helvetica,sans-Serif" font-size="10.00">Node</text>
</a>
</g>
</g>
<!-- Node5&#45;&gt;Node3 -->
<g id="edge4" class="edge">
<title>Node5&#45;&gt;Node3</title>
<path fill="none" stroke="midnightblue" d="M50.08,-167.7C99.02,-152.95 145.57,-139.35 174.32,-131.01"/>
<polygon fill="midnightblue" stroke="midnightblue" points="48.83,-164.42 40.27,-170.67 50.85,-171.13 48.83,-164.42"/>
</g>
<!-- Node9 -->
<g id="node9" class="node">
<title>Node9</title>
<g id="a_node9"><a xlink:href="interfaceast_1_1_node_1_1_node_unary.html" target="_top" xlink:title="子供を一つだけもつノードのインタフェース">
<polygon fill="white" stroke="black" points="34,-112.5 34,-131.5 126,-131.5 126,-112.5 34,-112.5"/>
<text text-anchor="middle" x="80" y="-119.5" font-family="Helvetica,sans-Serif" font-size="10.00">Node.NodeUnary</text>
</a>
</g>
</g>
<!-- Node5&#45;&gt;Node9 -->
<g id="edge12" class="edge">
<title>Node5&#45;&gt;Node9</title>
<path fill="none" stroke="midnightblue" d="M37.18,-161.54C47.88,-151.91 61.26,-139.87 70.18,-131.83"/>
<polygon fill="midnightblue" stroke="midnightblue" points="34.73,-159.03 29.64,-168.32 39.41,-164.24 34.73,-159.03"/>
</g>
<!-- Node6 -->
<g id="node6" class="node">
<title>Node6</title>
<g id="a_node6"><a xlink:href="interfaceformat_1_1_x_formattable.html" target="_top" xlink:title="入れ子フォーマット出力可能なオブジェクトのインタフェース。">
<polygon fill="white" stroke="black" points="194.5,-224.5 194.5,-243.5 269.5,-243.5 269.5,-224.5 194.5,-224.5"/>
<text text-anchor="middle" x="232" y="-231.5" font-family="Helvetica,sans-Serif" font-size="10.00">XFormattable</text>
</a>
</g>
</g>
<!-- Node6&#45;&gt;Node5 -->
<g id="edge5" class="edge">
<title>Node6&#45;&gt;Node5</title>
<path fill="none" stroke="midnightblue" d="M184.31,-222.1C147.26,-213.43 94.67,-200.69 49,-188 46.16,-187.21 43.17,-186.33 40.24,-185.45"/>
<polygon fill="midnightblue" stroke="midnightblue" points="183.79,-225.57 194.33,-224.43 185.38,-218.75 183.79,-225.57"/>
</g>
<!-- Node7 -->
<g id="node7" class="node">
<title>Node7</title>
<g id="a_node7"><a xlink:href="interfaceformat_1_1_x_formattable_1_1_navigatable.html" target="_top" xlink:title="木構造の分岐ノードとして清書可能なオブジェクトのクラス">
<polygon fill="white" stroke="black" points="328,-168.5 328,-187.5 458,-187.5 458,-168.5 328,-168.5"/>
<text text-anchor="middle" x="393" y="-175.5" font-family="Helvetica,sans-Serif" font-size="10.00">XFormattable.Navigatable</text>
</a>
</g>
</g>
<!-- Node6&#45;&gt;Node7 -->
<g id="edge7" class="edge">
<title>Node6&#45;&gt;Node7</title>
<path fill="none" stroke="midnightblue" d="M267.26,-221.17C297.58,-211 340.57,-196.59 367.61,-187.52"/>
<polygon fill="midnightblue" stroke="midnightblue" points="265.88,-217.95 257.51,-224.44 268.1,-224.58 265.88,-217.95"/>
</g>
<!-- Node8 -->
<g id="node8" class="node">
<title>Node8</title>
<g id="a_node8"><a xlink:href="interfaceformat_1_1_x_formattable_1_1_typed_formattable.html" target="_top" xlink:title="ノードの型情報をもつ書式出力可能なオブジェクトのインタフェース．">
<polygon fill="white" stroke="black" points="154,-168.5 154,-187.5 310,-187.5 310,-168.5 154,-168.5"/>
<text text-anchor="middle" x="232" y="-175.5" font-family="Helvetica,sans-Serif" font-size="10.00">XFormattable.TypedFormattable</text>
</a>
</g>
</g>
<!-- Node6&#45;&gt;Node8 -->
<g id="edge9" class="edge">
<title>Node6&#45;&gt;Node8</title>
<path fill="none" stroke="midnightblue" d="M232,-213.8C232,-204.91 232,-194.78 232,-187.75"/>
<polygon fill="midnightblue" stroke="midnightblue" points="228.5,-214.08 232,-224.08 235.5,-214.08 228.5,-214.08"/>
</g>
<!-- Node7&#45;&gt;Node2 -->
<g id="edge10" class="edge">
<title>Node7&#45;&gt;Node2</title>
<path fill="none" stroke="midnightblue" d="M346.07,-165.53C323.61,-158.44 297.26,-147.64 277,-132 256.72,-116.34 241.31,-89.61 234.25,-75.82"/>
<polygon fill="midnightblue" stroke="midnightblue" points="345.18,-168.92 355.76,-168.44 347.19,-162.21 345.18,-168.92"/>
</g>
<!-- Node7&#45;&gt;Node3 -->
<g id="edge6" class="edge">
<title>Node7&#45;&gt;Node3</title>
<path fill="none" stroke="midnightblue" d="M352.79,-165.63C315.82,-155.18 261.99,-139.96 229.64,-130.82"/>
<polygon fill="midnightblue" stroke="midnightblue" points="352.16,-169.09 362.74,-168.44 354.06,-162.35 352.16,-169.09"/>
</g>
<!-- Node8&#45;&gt;Node3 -->
<g id="edge8" class="edge">
<title>Node8&#45;&gt;Node3</title>
<path fill="none" stroke="midnightblue" d="M222.15,-159.27C217.03,-150.05 210.98,-139.17 206.86,-131.75"/>
<polygon fill="midnightblue" stroke="midnightblue" points="219.13,-161.04 227.05,-168.08 225.25,-157.64 219.13,-161.04"/>
</g>
<!-- Node9&#45;&gt;Node2 -->
<g id="edge11" class="edge">
<title>Node9&#45;&gt;Node2</title>
<path fill="none" stroke="midnightblue" d="M113.22,-109.04C141.45,-98.88 181.26,-84.55 206.34,-75.52"/>
<polygon fill="midnightblue" stroke="midnightblue" points="111.99,-105.76 103.77,-112.44 114.36,-112.35 111.99,-105.76"/>
</g>
<!-- Node10 -->
<g id="node10" class="node">
<title>Node10</title>
<g id="a_node10"><a xlink:href="interfacemachine_1_1_data_accessor.html" target="_top" xlink:title="参照をもつデータ読み書きオブジェクトのインタフェース.">
<polygon fill="white" stroke="black" points="286.5,-112.5 286.5,-131.5 365.5,-131.5 365.5,-112.5 286.5,-112.5"/>
<text text-anchor="middle" x="326" y="-119.5" font-family="Helvetica,sans-Serif" font-size="10.00">DataAccessor</text>
</a>
</g>
</g>
<!-- Node10&#45;&gt;Node2 -->
<g id="edge13" class="edge">
<title>Node10&#45;&gt;Node2</title>
<path fill="none" stroke="midnightblue" d="M301.43,-107.18C283.76,-97.24 260.49,-84.15 245.39,-75.65"/>
<polygon fill="midnightblue" stroke="midnightblue" points="300.14,-110.47 310.58,-112.32 303.58,-104.37 300.14,-110.47"/>
</g>
<!-- Node11 -->
<g id="node11" class="node">
<title>Node11</title>
<g id="a_node11"><a xlink:href="interfacecmd_1_1_generatable.html" target="_top" xlink:title="変換してコードを生成できるノードのインタフェース.">
<polygon fill="white" stroke="black" points="287.5,-56.5 287.5,-75.5 356.5,-75.5 356.5,-56.5 287.5,-56.5"/>
<text text-anchor="middle" x="322" y="-63.5" font-family="Helvetica,sans-Serif" font-size="10.00">Generatable</text>
</a>
</g>
</g>
<!-- Node11&#45;&gt;Node1 -->
<g id="edge14" class="edge">
<title>Node11&#45;&gt;Node1</title>
<path fill="none" stroke="midnightblue" d="M307.89,-48.43C299.82,-38.97 290.04,-27.48 283.45,-19.75"/>
<polygon fill="midnightblue" stroke="midnightblue" points="305.25,-50.74 314.4,-56.08 310.58,-46.2 305.25,-50.74"/>
</g>
</g>
</svg>
