<?xml version="1.0" encoding="UTF-8" standalone="no"?>
<!DOCTYPE svg PUBLIC "-//W3C//DTD SVG 1.1//EN"
 "http://www.w3.org/Graphics/SVG/1.1/DTD/svg11.dtd">
<!-- Generated by graphviz version 2.47.0 (20210316.0004)
 -->
<!-- Title: AstMathOper.BinaryOper Pages: 1 -->
<svg width="963pt" height="319pt"
 viewBox="0.00 0.00 963.00 318.83" xmlns="http://www.w3.org/2000/svg" xmlns:xlink="http://www.w3.org/1999/xlink">
<g id="graph0" class="graph" transform="scale(1 1) rotate(0) translate(4 314.83)">
<title>AstMathOper.BinaryOper</title>
<polygon fill="white" stroke="transparent" points="-4,4 -4,-314.83 959,-314.83 959,4 -4,4"/>
<!-- Node1 -->
<g id="node1" class="node">
<title>Node1</title>
<g id="a_node1"><a xlink:title="end of class AstMathOper">
<polygon fill="#bfbfbf" stroke="black" points="830,-5.33 830,-24.33 955,-24.33 955,-5.33 830,-5.33"/>
<text text-anchor="middle" x="892.5" y="-12.33" font-family="Helvetica,sans-Serif" font-size="10.00">AstMathOper.BinaryOper</text>
</a>
</g>
</g>
<!-- Node2 -->
<g id="node2" class="node">
<title>Node2</title>
<g id="a_node2"><a xlink:href="classast_1_1_ast_math_oper.html" target="_top" xlink:title="値を返すことができるノードのクラス．一般に1個以上の子をもつ演算子である．">
<polygon fill="white" stroke="black" points="719,-5.33 719,-24.33 793,-24.33 793,-5.33 719,-5.33"/>
<text text-anchor="middle" x="756" y="-12.33" font-family="Helvetica,sans-Serif" font-size="10.00">AstMathOper</text>
</a>
</g>
</g>
<!-- Node2&#45;&gt;Node1 -->
<g id="edge1" class="edge">
<title>Node2&#45;&gt;Node1</title>
<path fill="none" stroke="midnightblue" d="M803.23,-14.83C811.83,-14.83 820.94,-14.83 829.91,-14.83"/>
<polygon fill="midnightblue" stroke="midnightblue" points="803.04,-11.33 793.04,-14.83 803.04,-18.33 803.04,-11.33"/>
</g>
<!-- Node3 -->
<g id="node3" class="node">
<title>Node3</title>
<g id="a_node3"><a xlink:href="classast_1_1_ast_oper.html" target="_top" xlink:title=" ">
<polygon fill="white" stroke="black" points="629,-215.33 629,-234.33 682,-234.33 682,-215.33 629,-215.33"/>
<text text-anchor="middle" x="655.5" y="-222.33" font-family="Helvetica,sans-Serif" font-size="10.00">AstOper</text>
</a>
</g>
</g>
<!-- Node3&#45;&gt;Node2 -->
<g id="edge2" class="edge">
<title>Node3&#45;&gt;Node2</title>
<path fill="none" stroke="midnightblue" d="M665.27,-206.13C685.58,-162.83 735.25,-56.93 750.49,-24.46"/>
<polygon fill="midnightblue" stroke="midnightblue" points="662.07,-204.72 660.99,-215.26 668.4,-207.69 662.07,-204.72"/>
</g>
<!-- Node4 -->
<g id="node4" class="node">
<title>Node4</title>
<g id="a_node4"><a xlink:href="classast_1_1_ast_node.html" target="_top" xlink:title="タグなしの順アクセスの子供をもてる抽象構文木のノードのクラス。">
<polygon fill="white" stroke="black" points="503,-158.33 503,-177.33 558,-177.33 558,-158.33 503,-158.33"/>
<text text-anchor="middle" x="530.5" y="-165.33" font-family="Helvetica,sans-Serif" font-size="10.00">AstNode</text>
</a>
</g>
</g>
<!-- Node4&#45;&gt;Node3 -->
<g id="edge3" class="edge">
<title>Node4&#45;&gt;Node3</title>
<path fill="none" stroke="midnightblue" d="M561.19,-181.59C583.66,-192 613.95,-206.04 633.85,-215.26"/>
<polygon fill="midnightblue" stroke="midnightblue" points="562.63,-178.4 552.09,-177.37 559.69,-184.75 562.63,-178.4"/>
</g>
<!-- Node5 -->
<g id="node5" class="node">
<title>Node5</title>
<g id="a_node5"><a xlink:href="classast_1_1_ast_node_base.html" target="_top" xlink:title=" ">
<polygon fill="white" stroke="red" points="240.5,-215.33 240.5,-234.33 317.5,-234.33 317.5,-215.33 240.5,-215.33"/>
<text text-anchor="middle" x="279" y="-222.33" font-family="Helvetica,sans-Serif" font-size="10.00">AstNodeBase</text>
</a>
</g>
</g>
<!-- Node5&#45;&gt;Node4 -->
<g id="edge4" class="edge">
<title>Node5&#45;&gt;Node4</title>
<path fill="none" stroke="midnightblue" d="M327.77,-216C362.17,-209.41 409.63,-199.85 451,-189.83 468.33,-185.63 487.62,-180.24 502.74,-175.84"/>
<polygon fill="midnightblue" stroke="midnightblue" points="326.7,-212.64 317.53,-217.95 328.01,-219.52 326.7,-212.64"/>
</g>
<!-- Node6 -->
<g id="node6" class="node">
<title>Node6</title>
<g id="a_node6"><a xlink:title=" ">
<polygon fill="white" stroke="#bfbfbf" points="0,-216.33 0,-235.33 42,-235.33 42,-216.33 0,-216.33"/>
<text text-anchor="middle" x="21" y="-223.33" font-family="Helvetica,sans-Serif" font-size="10.00">String</text>
</a>
</g>
</g>
<!-- Node6&#45;&gt;Node3 -->
<g id="edge15" class="edge">
<title>Node6&#45;&gt;Node3</title>
<path fill="none" stroke="#9a32cd" stroke-dasharray="5,2" d="M42.36,-240.91C47.82,-244.16 53.91,-247.13 60,-248.83 112.65,-263.53 128.34,-249.62 183,-248.83 260.36,-247.72 279.72,-247.41 357,-243.83 457.55,-239.18 577.04,-230.63 628.65,-226.79"/>
<polygon fill="#9a32cd" stroke="#9a32cd" points="44.15,-237.9 33.87,-235.34 40.31,-243.75 44.15,-237.9"/>
<text text-anchor="middle" x="413" y="-245.83" font-family="Helvetica,sans-Serif" font-size="10.00"> op</text>
</g>
<!-- Node6&#45;&gt;Node5 -->
<g id="edge5" class="edge">
<title>Node6&#45;&gt;Node5</title>
<path fill="none" stroke="#9a32cd" stroke-dasharray="5,2" d="M52.2,-225.71C99.01,-225.53 189,-225.18 240.11,-224.98"/>
<polygon fill="#9a32cd" stroke="#9a32cd" points="52.07,-222.21 42.09,-225.75 52.1,-229.21 52.07,-222.21"/>
<text text-anchor="middle" x="121.5" y="-238.83" font-family="Helvetica,sans-Serif" font-size="10.00"> MOD_AST</text>
<text text-anchor="middle" x="121.5" y="-227.83" font-family="Helvetica,sans-Serif" font-size="10.00">mod_</text>
</g>
<!-- Node16 -->
<g id="node11" class="node">
<title>Node16</title>
<g id="a_node11"><a xlink:href="classformat_1_1_style.html" target="_top" xlink:title="ノードの表示スタイルに関するプロパティのクラス.">
<polygon fill="white" stroke="red" points="259.5,-101.33 259.5,-120.33 298.5,-120.33 298.5,-101.33 259.5,-101.33"/>
<text text-anchor="middle" x="279" y="-108.33" font-family="Helvetica,sans-Serif" font-size="10.00">Style</text>
</a>
</g>
</g>
<!-- Node6&#45;&gt;Node16 -->
<g id="edge11" class="edge">
<title>Node6&#45;&gt;Node16</title>
<path fill="none" stroke="#9a32cd" stroke-dasharray="5,2" d="M24.13,-206.21C27.62,-184.49 36.68,-150.26 60,-132.83 120.64,-87.52 218.73,-99.36 259.41,-106.88"/>
<polygon fill="#9a32cd" stroke="#9a32cd" points="20.64,-205.89 22.77,-216.27 27.58,-206.83 20.64,-205.89"/>
<text text-anchor="middle" x="121.5" y="-212.83" font-family="Helvetica,sans-Serif" font-size="10.00"> childLPAD</text>
<text text-anchor="middle" x="121.5" y="-201.83" font-family="Helvetica,sans-Serif" font-size="10.00">childRPAD</text>
<text text-anchor="middle" x="121.5" y="-190.83" font-family="Helvetica,sans-Serif" font-size="10.00">name</text>
<text text-anchor="middle" x="121.5" y="-179.83" font-family="Helvetica,sans-Serif" font-size="10.00">operSTR</text>
<text text-anchor="middle" x="121.5" y="-168.83" font-family="Helvetica,sans-Serif" font-size="10.00">parenLPAD</text>
<text text-anchor="middle" x="121.5" y="-157.83" font-family="Helvetica,sans-Serif" font-size="10.00">parenLPAR</text>
<text text-anchor="middle" x="121.5" y="-146.83" font-family="Helvetica,sans-Serif" font-size="10.00">parenRPAD</text>
<text text-anchor="middle" x="121.5" y="-135.83" font-family="Helvetica,sans-Serif" font-size="10.00">parenRPAR</text>
</g>
<!-- Node9 -->
<g id="node7" class="node">
<title>Node9</title>
<g id="a_node7"><a xlink:title=" ">
<polygon fill="white" stroke="#bfbfbf" points="6.5,-26.33 6.5,-45.33 35.5,-45.33 35.5,-26.33 6.5,-26.33"/>
<text text-anchor="middle" x="21" y="-33.33" font-family="Helvetica,sans-Serif" font-size="10.00">int</text>
</a>
</g>
</g>
<!-- Node9&#45;&gt;Node2 -->
<g id="edge16" class="edge">
<title>Node9&#45;&gt;Node2</title>
<path fill="none" stroke="#9a32cd" stroke-dasharray="5,2" d="M44.5,-22.75C49.46,-20.39 54.79,-18.24 60,-16.83 153.73,8.49 180.91,-2.83 278,-2.83 278,-2.83 278,-2.83 656.5,-2.83 677.17,-2.83 700.11,-5.47 718.64,-8.27"/>
<polygon fill="#9a32cd" stroke="#9a32cd" points="42.81,-19.68 35.54,-27.4 46.03,-25.9 42.81,-19.68"/>
<text text-anchor="middle" x="530.5" y="-93.83" font-family="Helvetica,sans-Serif" font-size="10.00"> PREF_ADD_TERM</text>
<text text-anchor="middle" x="530.5" y="-82.83" font-family="Helvetica,sans-Serif" font-size="10.00">PREF_AND_EXPR</text>
<text text-anchor="middle" x="530.5" y="-71.83" font-family="Helvetica,sans-Serif" font-size="10.00">PREF_BIN_OPER</text>
<text text-anchor="middle" x="530.5" y="-60.83" font-family="Helvetica,sans-Serif" font-size="10.00">PREF_BIN_REL</text>
<text text-anchor="middle" x="530.5" y="-49.83" font-family="Helvetica,sans-Serif" font-size="10.00">PREF_MUL_TERM</text>
<text text-anchor="middle" x="530.5" y="-38.83" font-family="Helvetica,sans-Serif" font-size="10.00">PREF_NOT_EXPR</text>
<text text-anchor="middle" x="530.5" y="-27.83" font-family="Helvetica,sans-Serif" font-size="10.00">PREF_NUM_SENT</text>
<text text-anchor="middle" x="530.5" y="-16.83" font-family="Helvetica,sans-Serif" font-size="10.00">PREF_OR_EXPR</text>
<text text-anchor="middle" x="530.5" y="-5.83" font-family="Helvetica,sans-Serif" font-size="10.00">PREF_PRE_TERM</text>
</g>
<!-- Node9&#45;&gt;Node5 -->
<g id="edge6" class="edge">
<title>Node9&#45;&gt;Node5</title>
<path fill="none" stroke="#9a32cd" stroke-dasharray="5,2" d="M45.5,-43.68C50.27,-45.15 55.28,-46.61 60,-47.83 114.01,-61.81 144.88,-32.11 183,-72.83 223.76,-116.38 161.15,-161.45 201,-205.83 210.84,-216.79 225.91,-221.91 240.11,-224.15"/>
<polygon fill="#9a32cd" stroke="#9a32cd" points="46.21,-40.23 35.62,-40.51 44.08,-46.9 46.21,-40.23"/>
<text text-anchor="middle" x="121.5" y="-86.83" font-family="Helvetica,sans-Serif" font-size="10.00"> BITMASK_PRINT_WIDTH</text>
<text text-anchor="middle" x="121.5" y="-75.83" font-family="Helvetica,sans-Serif" font-size="10.00">UNDEF</text>
</g>
<!-- Node9&#45;&gt;Node16 -->
<g id="edge12" class="edge">
<title>Node9&#45;&gt;Node16</title>
<path fill="none" stroke="#9a32cd" stroke-dasharray="5,2" d="M45.64,-28.13C79.58,-18.67 142.45,-7.25 183,-36.83 203.78,-51.99 182.15,-74.33 201,-91.83 216.84,-106.54 242.21,-110.35 259.47,-111.1"/>
<polygon fill="#9a32cd" stroke="#9a32cd" points="44.3,-24.88 35.71,-31.08 46.29,-31.59 44.3,-24.88"/>
<text text-anchor="middle" x="121.5" y="-39.83" font-family="Helvetica,sans-Serif" font-size="10.00"> pref</text>
</g>
<!-- Node12 -->
<g id="node8" class="node">
<title>Node12</title>
<g id="a_node8"><a xlink:href="interfaceformat_1_1_x_formattable_1_1_navigatable.html" target="_top" xlink:title="木構造の分岐ノードとして清書可能なオブジェクトのクラス">
<polygon fill="white" stroke="red" points="214,-177.33 214,-196.33 344,-196.33 344,-177.33 214,-177.33"/>
<text text-anchor="middle" x="279" y="-184.33" font-family="Helvetica,sans-Serif" font-size="10.00">XFormattable.Navigatable</text>
</a>
</g>
</g>
<!-- Node12&#45;&gt;Node4 -->
<g id="edge7" class="edge">
<title>Node12&#45;&gt;Node4</title>
<path fill="none" stroke="midnightblue" d="M354.4,-181.17C404.48,-177.35 467.56,-172.55 502.7,-169.87"/>
<polygon fill="midnightblue" stroke="midnightblue" points="353.96,-177.69 344.25,-181.94 354.49,-184.67 353.96,-177.69"/>
</g>
<!-- Node14 -->
<g id="node9" class="node">
<title>Node14</title>
<g id="a_node9"><a xlink:href="interfaceformat_1_1_x_formattable_1_1_typed_formattable.html" target="_top" xlink:title="ノードの型情報をもつ書式出力可能なオブジェクトのインタフェース．">
<polygon fill="white" stroke="red" points="201,-139.33 201,-158.33 357,-158.33 357,-139.33 201,-139.33"/>
<text text-anchor="middle" x="279" y="-146.33" font-family="Helvetica,sans-Serif" font-size="10.00">XFormattable.TypedFormattable</text>
</a>
</g>
</g>
<!-- Node14&#45;&gt;Node4 -->
<g id="edge8" class="edge">
<title>Node14&#45;&gt;Node4</title>
<path fill="none" stroke="midnightblue" d="M367.27,-155.48C414.94,-159.11 470.66,-163.35 502.83,-165.8"/>
<polygon fill="midnightblue" stroke="midnightblue" points="367.47,-151.98 357.23,-154.71 366.94,-158.96 367.47,-151.98"/>
</g>
<!-- Node15 -->
<g id="node10" class="node">
<title>Node15</title>
<g id="a_node10"><a xlink:title=" ">
<polygon fill="white" stroke="#bfbfbf" points="253,-63.33 253,-82.33 305,-82.33 305,-63.33 253,-63.33"/>
<text text-anchor="middle" x="279" y="-70.33" font-family="Helvetica,sans-Serif" font-size="10.00">Boolean</text>
</a>
</g>
</g>
<!-- Node15&#45;&gt;Node4 -->
<g id="edge9" class="edge">
<title>Node15&#45;&gt;Node4</title>
<path fill="none" stroke="#9a32cd" stroke-dasharray="5,2" d="M315.46,-76.09C351.02,-80.36 406.73,-89.81 451,-109.83 478.17,-122.12 505.09,-144.93 519.25,-157.98"/>
<polygon fill="#9a32cd" stroke="#9a32cd" points="315.43,-72.57 305.1,-74.93 314.64,-79.52 315.43,-72.57"/>
<text text-anchor="middle" x="413" y="-112.83" font-family="Helvetica,sans-Serif" font-size="10.00"> DEBUG_CHILD</text>
</g>
<!-- Node16&#45;&gt;Node4 -->
<g id="edge10" class="edge">
<title>Node16&#45;&gt;Node4</title>
<path fill="none" stroke="#9a32cd" stroke-dasharray="5,2" d="M308.89,-114.48C343.13,-119.14 401.75,-128.13 451,-140.83 469.42,-145.58 489.72,-152.61 505.05,-158.31"/>
<polygon fill="#9a32cd" stroke="#9a32cd" points="309.05,-110.97 298.68,-113.13 308.13,-117.91 309.05,-110.97"/>
<text text-anchor="middle" x="413" y="-143.83" font-family="Helvetica,sans-Serif" font-size="10.00"> sty</text>
</g>
<!-- Node17 -->
<g id="node12" class="node">
<title>Node17</title>
<g id="a_node12"><a xlink:href="interfacecmd_1_1_generatable_1_1_evaluatable.html" target="_top" xlink:title="評価して値を返すノードのインタフェース．必ずしもコードを生成しなくても良い．">
<polygon fill="white" stroke="black" points="469,-291.33 469,-310.33 592,-310.33 592,-291.33 469,-291.33"/>
<text text-anchor="middle" x="530.5" y="-298.33" font-family="Helvetica,sans-Serif" font-size="10.00">Generatable.Evaluatable</text>
</a>
</g>
</g>
<!-- Node17&#45;&gt;Node3 -->
<g id="edge13" class="edge">
<title>Node17&#45;&gt;Node3</title>
<path fill="none" stroke="midnightblue" d="M588.85,-287.95C596.62,-284.95 604.24,-281.29 611,-276.83 627.89,-265.67 641.72,-246.04 648.98,-234.35"/>
<polygon fill="midnightblue" stroke="midnightblue" points="587.61,-284.67 579.33,-291.28 589.93,-291.28 587.61,-284.67"/>
</g>
<!-- Node18 -->
<g id="node13" class="node">
<title>Node18</title>
<g id="a_node13"><a xlink:href="interfacecmd_1_1_generatable.html" target="_top" xlink:title="変換してコードを生成できるノードのインタフェース.">
<polygon fill="white" stroke="black" points="244.5,-291.33 244.5,-310.33 313.5,-310.33 313.5,-291.33 244.5,-291.33"/>
<text text-anchor="middle" x="279" y="-298.33" font-family="Helvetica,sans-Serif" font-size="10.00">Generatable</text>
</a>
</g>
</g>
<!-- Node18&#45;&gt;Node17 -->
<g id="edge14" class="edge">
<title>Node18&#45;&gt;Node17</title>
<path fill="none" stroke="midnightblue" d="M323.67,-300.83C363.84,-300.83 423.81,-300.83 468.67,-300.83"/>
<polygon fill="midnightblue" stroke="midnightblue" points="323.65,-297.33 313.65,-300.83 323.65,-304.33 323.65,-297.33"/>
</g>
</g>
</svg>
