<?xml version="1.0" encoding="UTF-8" standalone="no"?>
<!DOCTYPE svg PUBLIC "-//W3C//DTD SVG 1.1//EN"
 "http://www.w3.org/Graphics/SVG/1.1/DTD/svg11.dtd">
<!-- Generated by graphviz version 2.47.0 (20210316.0004)
 -->
<!-- Title: AstMathOper.IntegerOper Pages: 1 -->
<!--zoomable 453 -->
<svg id="main" version="1.1" xmlns="http://www.w3.org/2000/svg" xmlns:xlink="http://www.w3.org/1999/xlink" xml:space="preserve" onload="init(evt)">
<style type="text/css"><![CDATA[
.edge:hover path { stroke: red; }
.edge:hover polygon { stroke: red; fill: red; }
]]></style>
<script type="text/javascript"><![CDATA[
var edges = document.getElementsByTagName('g');
if (edges && edges.length) {
  for (var i=0;i<edges.length;i++) {
    if (edges[i].id.substr(0,4)=='edge') {
      edges[i].setAttribute('class','edge');
    }
  }
}
]]></script>
        <defs>
                <circle id="rim" cx="0" cy="0" r="7"/>
                <circle id="rim2" cx="0" cy="0" r="3.5"/>
                <g id="zoomPlus">
                        <use xlink:href="#rim" fill="#404040">
                                <set attributeName="fill" to="#808080" begin="zoomplus.mouseover" end="zoomplus.mouseout"/>
                        </use>
                        <path d="M-4,0h8M0,-4v8" fill="none" stroke="white" stroke-width="1.5" pointer-events="none"/>
                </g>
                <g id="zoomMin">
                        <use xlink:href="#rim" fill="#404040">
                                <set attributeName="fill" to="#808080" begin="zoomminus.mouseover" end="zoomminus.mouseout"/>
                        </use>
                        <path d="M-4,0h8" fill="none" stroke="white" stroke-width="1.5" pointer-events="none"/>
                </g>
                <g id="dirArrow">
                        <path fill="none" stroke="white" stroke-width="1.5" d="M0,-3.0v7 M-2.5,-0.5L0,-3.0L2.5,-0.5"/>
                </g>
               <g id="resetDef">
                       <use xlink:href="#rim2" fill="#404040">
                               <set attributeName="fill" to="#808080" begin="reset.mouseover" end="reset.mouseout"/>
                       </use>
               </g>
        </defs>

<script type="text/javascript">
var viewWidth = 413;
var viewHeight = 453;
var sectionId = 'dynsection-1';
</script>
<script xlink:href="svgpan.js"/>
<svg id="graph" class="graph">
<g id="viewport">
<title>AstMathOper.IntegerOper</title>
<polygon fill="white" stroke="transparent" points="-4,4 -4,-449 408.5,-449 408.5,4 -4,4"/>
<!-- Node1 -->
<g id="node1" class="node">
<title>Node1</title>
<g id="a_node1"><a xlink:title=" ">
<polygon fill="#bfbfbf" stroke="black" points="60,-0.5 60,-19.5 188,-19.5 188,-0.5 60,-0.5"/>
<text text-anchor="middle" x="124" y="-7.5" font-family="Helvetica,sans-Serif" font-size="10.00">AstMathOper.IntegerOper</text>
</a>
</g>
</g>
<!-- Node2 -->
<g id="node2" class="node">
<title>Node2</title>
<g id="a_node2"><a xlink:href="classast_1_1_ast_math_oper_1_1_binary_oper.html" target="_top" xlink:title="end of class AstMathOper">
<polygon fill="white" stroke="black" points="61.5,-57.5 61.5,-76.5 186.5,-76.5 186.5,-57.5 61.5,-57.5"/>
<text text-anchor="middle" x="124" y="-64.5" font-family="Helvetica,sans-Serif" font-size="10.00">AstMathOper.BinaryOper</text>
</a>
</g>
</g>
<!-- Node2&#45;&gt;Node1 -->
<g id="edge1" class="edge">
<title>Node2&#45;&gt;Node1</title>
<path fill="none" stroke="midnightblue" d="M124,-47.12C124,-37.82 124,-27.06 124,-19.71"/>
<polygon fill="midnightblue" stroke="midnightblue" points="120.5,-47.41 124,-57.41 127.5,-47.41 120.5,-47.41"/>
</g>
<!-- Node3 -->
<g id="node3" class="node">
<title>Node3</title>
<g id="a_node3"><a xlink:href="classast_1_1_ast_math_oper.html" target="_top" xlink:title="値を返すことができるノードのクラス．一般に1個以上の子をもつ演算子である．">
<polygon fill="white" stroke="black" points="87,-114.5 87,-133.5 161,-133.5 161,-114.5 87,-114.5"/>
<text text-anchor="middle" x="124" y="-121.5" font-family="Helvetica,sans-Serif" font-size="10.00">AstMathOper</text>
</a>
</g>
</g>
<!-- Node3&#45;&gt;Node2 -->
<g id="edge2" class="edge">
<title>Node3&#45;&gt;Node2</title>
<path fill="none" stroke="midnightblue" d="M124,-104.12C124,-94.82 124,-84.06 124,-76.71"/>
<polygon fill="midnightblue" stroke="midnightblue" points="120.5,-104.41 124,-114.41 127.5,-104.41 120.5,-104.41"/>
</g>
<!-- Node4 -->
<g id="node4" class="node">
<title>Node4</title>
<g id="a_node4"><a xlink:href="classast_1_1_ast_oper.html" target="_top" xlink:title=" ">
<polygon fill="white" stroke="black" points="152.5,-181.5 152.5,-200.5 205.5,-200.5 205.5,-181.5 152.5,-181.5"/>
<text text-anchor="middle" x="179" y="-188.5" font-family="Helvetica,sans-Serif" font-size="10.00">AstOper</text>
</a>
</g>
</g>
<!-- Node4&#45;&gt;Node3 -->
<g id="edge3" class="edge">
<title>Node4&#45;&gt;Node3</title>
<path fill="none" stroke="midnightblue" d="M164.84,-173.27C154.12,-160.6 139.82,-143.7 131.3,-133.63"/>
<polygon fill="midnightblue" stroke="midnightblue" points="162.45,-175.86 171.58,-181.23 167.79,-171.34 162.45,-175.86"/>
</g>
<!-- Node5 -->
<g id="node5" class="node">
<title>Node5</title>
<g id="a_node5"><a xlink:href="classast_1_1_ast_node_branch.html" target="_top" xlink:title="タグなしの順アクセスの子供をもてる抽象構文木のノードのクラス。">
<polygon fill="white" stroke="red" points="145,-336.5 145,-355.5 231,-355.5 231,-336.5 145,-336.5"/>
<text text-anchor="middle" x="188" y="-343.5" font-family="Helvetica,sans-Serif" font-size="10.00">AstNodeBranch</text>
</a>
</g>
</g>
<!-- Node5&#45;&gt;Node4 -->
<g id="edge4" class="edge">
<title>Node5&#45;&gt;Node4</title>
<path fill="none" stroke="midnightblue" d="M186.89,-326.11C184.92,-292.72 180.91,-224.54 179.5,-200.57"/>
<polygon fill="midnightblue" stroke="midnightblue" points="183.41,-326.56 187.49,-336.34 190.4,-326.15 183.41,-326.56"/>
</g>
<!-- Node11 -->
<g id="node6" class="node">
<title>Node11</title>
<g id="a_node6"><a xlink:title=" ">
<polygon fill="white" stroke="#bfbfbf" points="36.5,-425.5 36.5,-444.5 65.5,-444.5 65.5,-425.5 36.5,-425.5"/>
<text text-anchor="middle" x="51" y="-432.5" font-family="Helvetica,sans-Serif" font-size="10.00">int</text>
</a>
</g>
</g>
<!-- Node11&#45;&gt;Node1 -->
<g id="edge11" class="edge">
<title>Node11&#45;&gt;Node1</title>
<path fill="none" stroke="#9a32cd" stroke-dasharray="5,2" d="M34.41,-417.8C19.52,-401.45 0,-374.73 0,-347 0,-347 0,-347 0,-66 0,-36.56 29.56,-22.76 59.82,-16.34"/>
<polygon fill="#9a32cd" stroke="#9a32cd" points="32.2,-420.55 41.65,-425.35 37.26,-415.71 32.2,-420.55"/>
<text text-anchor="middle" x="18" y="-155" font-family="Helvetica,sans-Serif" font-size="10.00"> initEval</text>
</g>
<!-- Node11&#45;&gt;Node3 -->
<g id="edge9" class="edge">
<title>Node11&#45;&gt;Node3</title>
<path fill="none" stroke="#9a32cd" stroke-dasharray="5,2" d="M46.53,-415.33C38.28,-377.14 23.63,-287.89 48,-219 61.16,-181.8 95.98,-148.54 113.55,-133.5"/>
<polygon fill="#9a32cd" stroke="#9a32cd" points="43.2,-416.49 48.83,-425.46 50.03,-414.93 43.2,-416.49"/>
<text text-anchor="middle" x="93.5" y="-310" font-family="Helvetica,sans-Serif" font-size="10.00"> PREF_ADD_TERM</text>
<text text-anchor="middle" x="93.5" y="-299" font-family="Helvetica,sans-Serif" font-size="10.00">PREF_AND_EXPR</text>
<text text-anchor="middle" x="93.5" y="-288" font-family="Helvetica,sans-Serif" font-size="10.00">PREF_BIN_OPER</text>
<text text-anchor="middle" x="93.5" y="-277" font-family="Helvetica,sans-Serif" font-size="10.00">PREF_BIN_REL</text>
<text text-anchor="middle" x="93.5" y="-266" font-family="Helvetica,sans-Serif" font-size="10.00">PREF_MUL_TERM</text>
<text text-anchor="middle" x="93.5" y="-255" font-family="Helvetica,sans-Serif" font-size="10.00">PREF_NOT_EXPR</text>
<text text-anchor="middle" x="93.5" y="-244" font-family="Helvetica,sans-Serif" font-size="10.00">PREF_NUM_SENT</text>
<text text-anchor="middle" x="93.5" y="-233" font-family="Helvetica,sans-Serif" font-size="10.00">PREF_OR_EXPR</text>
<text text-anchor="middle" x="93.5" y="-222" font-family="Helvetica,sans-Serif" font-size="10.00">PREF_PRE_TERM</text>
</g>
<!-- Node11&#45;&gt;Node5 -->
<g id="edge5" class="edge">
<title>Node11&#45;&gt;Node5</title>
<path fill="none" stroke="#9a32cd" stroke-dasharray="5,2" d="M72.88,-420.11C101.45,-401.96 150.6,-370.75 174.36,-355.66"/>
<polygon fill="#9a32cd" stroke="#9a32cd" points="70.95,-417.18 64.39,-425.5 74.7,-423.09 70.95,-417.18"/>
<text text-anchor="middle" x="204.5" y="-399" font-family="Helvetica,sans-Serif" font-size="10.00"> BITMASK_PRINT_WIDTH</text>
<text text-anchor="middle" x="204.5" y="-388" font-family="Helvetica,sans-Serif" font-size="10.00">UNDEF</text>
<text text-anchor="middle" x="204.5" y="-377" font-family="Helvetica,sans-Serif" font-size="10.00">height</text>
</g>
<!-- Node19 -->
<g id="node7" class="node">
<title>Node19</title>
<g id="a_node7"><a xlink:href="interfacecmd_1_1_generatable_1_1_evaluatable.html" target="_top" xlink:title="評価して値を返すノードのインタフェース．必ずしもコードを生成しなくても良い．">
<polygon fill="white" stroke="black" points="249.5,-336.5 249.5,-355.5 372.5,-355.5 372.5,-336.5 249.5,-336.5"/>
<text text-anchor="middle" x="311" y="-343.5" font-family="Helvetica,sans-Serif" font-size="10.00">Generatable.Evaluatable</text>
</a>
</g>
</g>
<!-- Node19&#45;&gt;Node4 -->
<g id="edge6" class="edge">
<title>Node19&#45;&gt;Node4</title>
<path fill="none" stroke="midnightblue" d="M296.9,-328.66C269,-296.32 207.62,-225.17 186.39,-200.57"/>
<polygon fill="midnightblue" stroke="midnightblue" points="294.34,-331.05 303.52,-336.34 299.64,-326.48 294.34,-331.05"/>
</g>
<!-- Node20 -->
<g id="node8" class="node">
<title>Node20</title>
<g id="a_node8"><a xlink:href="interfacecmd_1_1_generatable.html" target="_top" xlink:title="変換してコードを生成できるノードのインタフェース.">
<polygon fill="white" stroke="black" points="335.5,-425.5 335.5,-444.5 404.5,-444.5 404.5,-425.5 335.5,-425.5"/>
<text text-anchor="middle" x="370" y="-432.5" font-family="Helvetica,sans-Serif" font-size="10.00">Generatable</text>
</a>
</g>
</g>
<!-- Node20&#45;&gt;Node1 -->
<g id="edge10" class="edge">
<title>Node20&#45;&gt;Node1</title>
<path fill="none" stroke="midnightblue" d="M380.3,-416.38C389.32,-399.25 401,-372.2 401,-347 401,-347 401,-347 401,-66 401,-22.85 270.07,-13.04 188.25,-11.12"/>
<polygon fill="midnightblue" stroke="midnightblue" points="377.18,-414.78 375.4,-425.23 383.3,-418.17 377.18,-414.78"/>
</g>
<!-- Node20&#45;&gt;Node19 -->
<g id="edge7" class="edge">
<title>Node20&#45;&gt;Node19</title>
<path fill="none" stroke="midnightblue" d="M358.47,-416.99C345.96,-398.56 326.51,-369.87 316.85,-355.62"/>
<polygon fill="midnightblue" stroke="midnightblue" points="355.62,-419.03 364.13,-425.34 361.41,-415.1 355.62,-419.03"/>
</g>
<!-- Node8 -->
<g id="node9" class="node">
<title>Node8</title>
<g id="a_node9"><a xlink:title=" ">
<polygon fill="white" stroke="#bfbfbf" points="85,-336.5 85,-355.5 127,-355.5 127,-336.5 85,-336.5"/>
<text text-anchor="middle" x="106" y="-343.5" font-family="Helvetica,sans-Serif" font-size="10.00">String</text>
</a>
</g>
</g>
<!-- Node8&#45;&gt;Node4 -->
<g id="edge8" class="edge">
<title>Node8&#45;&gt;Node4</title>
<path fill="none" stroke="#9a32cd" stroke-dasharray="5,2" d="M131.26,-330.59C135.76,-327 139.97,-322.79 143,-318 166.99,-280.16 145.56,-260.68 162,-219 164.6,-212.4 168.85,-205.65 172.45,-200.55"/>
<polygon fill="#9a32cd" stroke="#9a32cd" points="129.21,-327.75 123.04,-336.36 133.24,-333.47 129.21,-327.75"/>
<text text-anchor="middle" x="169" y="-266" font-family="Helvetica,sans-Serif" font-size="10.00"> op</text>
</g>
</g>
</svg>
        <g id="navigator" transform="translate(0 0)" fill="#404254">
                <rect fill="#f2f5e9" fill-opacity="0.5" stroke="#606060" stroke-width=".5" x="0" y="0" width="60" height="60"/>
                <use id="zoomplus" xlink:href="#zoomPlus" x="17" y="9" onmousedown="handleZoom(evt,'in')"/>
                <use id="zoomminus" xlink:href="#zoomMin" x="42" y="9" onmousedown="handleZoom(evt,'out')"/>
                <use id="reset" xlink:href="#resetDef" x="30" y="36" onmousedown="handleReset()"/>
                <g id="arrowUp" xlink:href="#dirArrow" transform="translate(30 24)" onmousedown="handlePan(0,-1)">
                  <use xlink:href="#rim" fill="#404040">
                        <set attributeName="fill" to="#808080" begin="arrowUp.mouseover" end="arrowUp.mouseout"/>
                  </use>
                  <path fill="none" stroke="white" stroke-width="1.5" d="M0,-3.0v7 M-2.5,-0.5L0,-3.0L2.5,-0.5"/>
                </g>
                <g id="arrowRight" xlink:href="#dirArrow" transform="rotate(90) translate(36 -43)" onmousedown="handlePan(1,0)">
                  <use xlink:href="#rim" fill="#404040">
                        <set attributeName="fill" to="#808080" begin="arrowRight.mouseover" end="arrowRight.mouseout"/>
                  </use>
                  <path fill="none" stroke="white" stroke-width="1.5" d="M0,-3.0v7 M-2.5,-0.5L0,-3.0L2.5,-0.5"/>
                </g>
                <g id="arrowDown" xlink:href="#dirArrow" transform="rotate(180) translate(-30 -48)" onmousedown="handlePan(0,1)">
                  <use xlink:href="#rim" fill="#404040">
                        <set attributeName="fill" to="#808080" begin="arrowDown.mouseover" end="arrowDown.mouseout"/>
                  </use>
                  <path fill="none" stroke="white" stroke-width="1.5" d="M0,-3.0v7 M-2.5,-0.5L0,-3.0L2.5,-0.5"/>
                </g>
                <g id="arrowLeft" xlink:href="#dirArrow" transform="rotate(270) translate(-36 17)" onmousedown="handlePan(-1,0)">
                  <use xlink:href="#rim" fill="#404040">
                        <set attributeName="fill" to="#808080" begin="arrowLeft.mouseover" end="arrowLeft.mouseout"/>
                  </use>
                  <path fill="none" stroke="white" stroke-width="1.5" d="M0,-3.0v7 M-2.5,-0.5L0,-3.0L2.5,-0.5"/>
                </g>
        </g>
        <svg viewBox="0 0 15 15" width="100%" height="30px" preserveAspectRatio="xMaxYMin meet">
         <g id="arrow_out" transform="scale(0.3 0.3)">
          <a xlink:href="classast_1_1_ast_math_oper_1_1_integer_oper__coll__graph_org.svg" target="_base">
           <rect id="button" ry="5" rx="5" y="6" x="6" height="38" width="38"
                fill="#f2f5e9" fill-opacity="0.5" stroke="#606060" stroke-width="1.0"/>
           <path id="arrow"
             d="M 11.500037,31.436501 C 11.940474,20.09759 22.043105,11.32322 32.158766,21.979434 L 37.068811,17.246167 C 37.068811,17.246167 37.088388,32 37.088388,32 L 22.160133,31.978069 C 22.160133,31.978069 26.997745,27.140456 26.997745,27.140456 C 18.528582,18.264221 13.291696,25.230495 11.500037,31.436501 z"
             style="fill:#404040;"/>
          </a>
         </g>
        </svg>
</svg>
