<?xml version="1.0" encoding="UTF-8" standalone="no"?>
<!DOCTYPE svg PUBLIC "-//W3C//DTD SVG 1.1//EN"
 "http://www.w3.org/Graphics/SVG/1.1/DTD/svg11.dtd">
<!-- Generated by graphviz version 2.47.0 (20210316.0004)
 -->
<!-- Title: Step Pages: 1 -->
<svg width="1229pt" height="964pt"
 viewBox="0.00 0.00 1229.00 964.00" xmlns="http://www.w3.org/2000/svg" xmlns:xlink="http://www.w3.org/1999/xlink">
<g id="graph0" class="graph" transform="scale(1 1) rotate(0) translate(4 960)">
<title>Step</title>
<polygon fill="white" stroke="transparent" points="-4,4 -4,-960 1225,-960 1225,4 -4,4"/>
<!-- Node1 -->
<g id="node1" class="node">
<title>Node1</title>
<g id="a_node1"><a xlink:title="抽象構文木のステップ式のクラス.">
<polygon fill="#bfbfbf" stroke="black" points="1184,-183.5 1184,-202.5 1221,-202.5 1221,-183.5 1184,-183.5"/>
<text text-anchor="middle" x="1202.5" y="-190.5" font-family="Helvetica,sans-Serif" font-size="10.00">Step</text>
</a>
</g>
</g>
<!-- Node2 -->
<g id="node2" class="node">
<title>Node2</title>
<g id="a_node2"><a xlink:href="classast_1_1_block_base.html" target="_top" xlink:title="抽象構文木のステップ式のクラス.">
<polygon fill="white" stroke="black" points="1002.5,-448.5 1002.5,-467.5 1066.5,-467.5 1066.5,-448.5 1002.5,-448.5"/>
<text text-anchor="middle" x="1034.5" y="-455.5" font-family="Helvetica,sans-Serif" font-size="10.00">BlockBase</text>
</a>
</g>
</g>
<!-- Node2&#45;&gt;Node1 -->
<g id="edge1" class="edge">
<title>Node2&#45;&gt;Node1</title>
<path fill="none" stroke="midnightblue" d="M1050.14,-440.39C1075.87,-408.86 1129.89,-340.09 1166,-276 1180.31,-250.6 1192.57,-218.3 1198.2,-202.53"/>
<polygon fill="midnightblue" stroke="midnightblue" points="1047.32,-438.31 1043.67,-448.26 1052.72,-442.75 1047.32,-438.31"/>
</g>
<!-- Node3 -->
<g id="node3" class="node">
<title>Node3</title>
<g id="a_node3"><a xlink:href="classast_1_1_ast_node_tagged.html" target="_top" xlink:title="子それぞれにタグと型アイテムをもつ順序ノードAstNodeのサブクラス．利用者は自前で，追加する子のField名と型を設定する．読み出しは子の添字のみで行う．">
<polygon fill="white" stroke="black" points="799,-334.5 799,-353.5 885,-353.5 885,-334.5 799,-334.5"/>
<text text-anchor="middle" x="842" y="-341.5" font-family="Helvetica,sans-Serif" font-size="10.00">AstNodeTagged</text>
</a>
</g>
</g>
<!-- Node3&#45;&gt;Node2 -->
<g id="edge2" class="edge">
<title>Node3&#45;&gt;Node2</title>
<path fill="none" stroke="midnightblue" d="M867.7,-358.78C907.37,-382.52 984.22,-428.51 1017.5,-448.42"/>
<polygon fill="midnightblue" stroke="midnightblue" points="869.29,-355.66 858.91,-353.52 865.7,-361.66 869.29,-355.66"/>
</g>
<!-- Node4 -->
<g id="node4" class="node">
<title>Node4</title>
<g id="a_node4"><a xlink:href="classast_1_1_ast_node.html" target="_top" xlink:title="タグなしの順アクセスの子供をもてる抽象構文木のノードのクラス。">
<polygon fill="white" stroke="black" points="563.5,-182.5 563.5,-201.5 618.5,-201.5 618.5,-182.5 563.5,-182.5"/>
<text text-anchor="middle" x="591" y="-189.5" font-family="Helvetica,sans-Serif" font-size="10.00">AstNode</text>
</a>
</g>
</g>
<!-- Node4&#45;&gt;Node1 -->
<g id="edge44" class="edge">
<title>Node4&#45;&gt;Node1</title>
<path fill="none" stroke="#9a32cd" stroke-dasharray="5,2" d="M628.73,-192.06C744.74,-192.25 1100.59,-192.83 1183.91,-192.97"/>
<polygon fill="#9a32cd" stroke="#9a32cd" points="628.59,-188.56 618.58,-192.04 628.58,-195.56 628.59,-188.56"/>
<text text-anchor="middle" x="921" y="-195" font-family="Helvetica,sans-Serif" font-size="10.00"> where_</text>
</g>
<!-- Node4&#45;&gt;Node3 -->
<g id="edge3" class="edge">
<title>Node4&#45;&gt;Node3</title>
<path fill="none" stroke="midnightblue" d="M628.54,-191.53C669.11,-197.28 734.93,-215.09 781,-250 788.67,-255.81 825.11,-310.79 837.14,-334.29"/>
<polygon fill="midnightblue" stroke="midnightblue" points="628.9,-188.05 618.55,-190.3 628.05,-194.99 628.9,-188.05"/>
</g>
<!-- Node4&#45;&gt;Node3 -->
<g id="edge18" class="edge">
<title>Node4&#45;&gt;Node3</title>
<path fill="none" stroke="midnightblue" d="M626.87,-204.18C667.28,-214.79 734.29,-232.61 781,-268 787.62,-273.02 815.72,-314.73 831,-334.46"/>
<polygon fill="midnightblue" stroke="midnightblue" points="627.52,-200.73 616.95,-201.56 625.73,-207.5 627.52,-200.73"/>
</g>
<!-- Node27 -->
<g id="node24" class="node">
<title>Node27</title>
<g id="a_node24"><a xlink:href="classmachine_1_1_ref.html" target="_top" xlink:title="フレーム中の変数参照オブジェクトref = (XType type, int vid)">
<polygon fill="white" stroke="black" points="826,-543.5 826,-562.5 858,-562.5 858,-543.5 826,-543.5"/>
<text text-anchor="middle" x="842" y="-550.5" font-family="Helvetica,sans-Serif" font-size="10.00">Ref</text>
</a>
</g>
</g>
<!-- Node4&#45;&gt;Node27 -->
<g id="edge39" class="edge">
<title>Node4&#45;&gt;Node27</title>
<path fill="none" stroke="midnightblue" d="M617.58,-206.98C634.2,-217.47 655.73,-232.51 672,-249 681.87,-259.01 680.14,-264.99 690,-275 724.89,-310.4 756.24,-296.91 781,-340 802.57,-377.54 773.87,-498.74 799,-534 805.22,-542.73 816.44,-547.53 825.72,-550.12"/>
<polygon fill="midnightblue" stroke="midnightblue" points="619.26,-203.91 608.91,-201.65 615.59,-209.87 619.26,-203.91"/>
</g>
<!-- Node30 -->
<g id="node27" class="node">
<title>Node30</title>
<g id="a_node27"><a xlink:href="classast_1_1_ast_list.html" target="_top" xlink:title="リストのテンプレート.">
<polygon fill="white" stroke="black" points="818.5,-88.5 818.5,-107.5 865.5,-107.5 865.5,-88.5 818.5,-88.5"/>
<text text-anchor="middle" x="842" y="-95.5" font-family="Helvetica,sans-Serif" font-size="10.00">AstList</text>
</a>
</g>
</g>
<!-- Node4&#45;&gt;Node30 -->
<g id="edge46" class="edge">
<title>Node4&#45;&gt;Node30</title>
<path fill="none" stroke="midnightblue" d="M617.86,-177.02C634.18,-166.98 655.27,-152.91 672,-138 681.18,-129.82 679.18,-122.83 690,-117 731.07,-94.9 787.28,-94.24 818.24,-95.97"/>
<polygon fill="midnightblue" stroke="midnightblue" points="615.63,-174.28 608.87,-182.44 619.24,-180.27 615.63,-174.28"/>
</g>
<!-- Node5 -->
<g id="node5" class="node">
<title>Node5</title>
<g id="a_node5"><a xlink:href="classast_1_1_ast_node_base.html" target="_top" xlink:title=" ">
<polygon fill="white" stroke="red" points="277.5,-407.5 277.5,-426.5 354.5,-426.5 354.5,-407.5 277.5,-407.5"/>
<text text-anchor="middle" x="316" y="-414.5" font-family="Helvetica,sans-Serif" font-size="10.00">AstNodeBase</text>
</a>
</g>
</g>
<!-- Node5&#45;&gt;Node4 -->
<g id="edge4" class="edge">
<title>Node5&#45;&gt;Node4</title>
<path fill="none" stroke="midnightblue" d="M331.98,-399.48C349.25,-378.76 377.83,-342.81 398,-309 407.78,-292.61 401.98,-282.95 416,-270 442.44,-245.58 463.54,-264.05 492,-242 503.11,-233.39 498.63,-224.26 510,-216 525.6,-204.66 546.59,-198.63 563.15,-195.45"/>
<polygon fill="midnightblue" stroke="midnightblue" points="329.1,-397.47 325.33,-407.37 334.45,-401.98 329.1,-397.47"/>
</g>
<!-- Node8 -->
<g id="node6" class="node">
<title>Node8</title>
<g id="a_node6"><a xlink:title=" ">
<polygon fill="white" stroke="#bfbfbf" points="1,-499.5 1,-518.5 74,-518.5 74,-499.5 1,-499.5"/>
<text text-anchor="middle" x="37.5" y="-506.5" font-family="Helvetica,sans-Serif" font-size="10.00">static Report</text>
</a>
</g>
</g>
<!-- Node8&#45;&gt;Node5 -->
<g id="edge5" class="edge">
<title>Node8&#45;&gt;Node5</title>
<path fill="none" stroke="#9a32cd" stroke-dasharray="5,2" d="M44.17,-489.56C51.56,-468.21 66.73,-434.95 93,-420 151.12,-386.92 232.43,-397.3 278.8,-407.43"/>
<polygon fill="#9a32cd" stroke="#9a32cd" points="40.79,-488.63 41.08,-499.23 47.46,-490.77 40.79,-488.63"/>
<text text-anchor="middle" x="154.5" y="-423" font-family="Helvetica,sans-Serif" font-size="10.00"> repo</text>
</g>
<!-- Node26 -->
<g id="node23" class="node">
<title>Node26</title>
<g id="a_node23"><a xlink:href="classmachine_1_1_ref_list.html" target="_top" xlink:title="@整数の表">
<polygon fill="white" stroke="black" points="567,-589.5 567,-608.5 615,-608.5 615,-589.5 567,-589.5"/>
<text text-anchor="middle" x="591" y="-596.5" font-family="Helvetica,sans-Serif" font-size="10.00">RefList</text>
</a>
</g>
</g>
<!-- Node8&#45;&gt;Node26 -->
<g id="edge34" class="edge">
<title>Node8&#45;&gt;Node26</title>
<path fill="none" stroke="#9a32cd" stroke-dasharray="5,2" d="M51.13,-527.03C60.97,-539.5 75.83,-555.2 93,-563 179.14,-602.15 480.96,-600.68 566.97,-599.42"/>
<polygon fill="#9a32cd" stroke="#9a32cd" points="53.68,-524.6 44.89,-518.68 48.07,-528.79 53.68,-524.6"/>
<text text-anchor="middle" x="316" y="-601" font-family="Helvetica,sans-Serif" font-size="10.00"> repo</text>
</g>
<!-- Node9 -->
<g id="node7" class="node">
<title>Node9</title>
<g id="a_node7"><a xlink:title=" ">
<polygon fill="white" stroke="#bfbfbf" points="23,-675.5 23,-694.5 52,-694.5 52,-675.5 23,-675.5"/>
<text text-anchor="middle" x="37.5" y="-682.5" font-family="Helvetica,sans-Serif" font-size="10.00">int</text>
</a>
</g>
</g>
<!-- Node9&#45;&gt;Node1 -->
<g id="edge58" class="edge">
<title>Node9&#45;&gt;Node1</title>
<path fill="none" stroke="#9a32cd" stroke-dasharray="5,2" d="M41.69,-704.71C47.37,-734.31 61.69,-790.62 93,-827 165.88,-911.7 203.26,-945 315,-945 315,-945 315,-945 1035.5,-945 1195.27,-945 1201.4,-289.56 1201.51,-202.51"/>
<polygon fill="#9a32cd" stroke="#9a32cd" points="45.12,-704.01 39.92,-694.78 38.23,-705.23 45.12,-704.01"/>
<text text-anchor="middle" x="735.5" y="-948" font-family="Helvetica,sans-Serif" font-size="10.00"> dynamic_ref_count_</text>
</g>
<!-- Node9&#45;&gt;Node2 -->
<g id="edge30" class="edge">
<title>Node9&#45;&gt;Node2</title>
<path fill="none" stroke="#9a32cd" stroke-dasharray="5,2" d="M62.43,-688.08C99.22,-692.65 171.96,-700.99 234,-704 306.8,-707.53 325.21,-707.86 398,-704 618.47,-692.31 682.56,-694.11 885,-606 911.68,-594.39 923.11,-593.37 939,-569 962.71,-532.63 926.43,-503.82 957,-473 968.63,-461.28 986.55,-457.32 1002.12,-456.39"/>
<polygon fill="#9a32cd" stroke="#9a32cd" points="62.57,-684.57 52.21,-686.79 61.7,-691.52 62.57,-684.57"/>
<text text-anchor="middle" x="591" y="-700" font-family="Helvetica,sans-Serif" font-size="10.00"> rid_</text>
</g>
<!-- Node9&#45;&gt;Node5 -->
<g id="edge6" class="edge">
<title>Node9&#45;&gt;Node5</title>
<path fill="none" stroke="#9a32cd" stroke-dasharray="5,2" d="M41.34,-664.98C46.61,-634.38 60.46,-575.59 93,-538 107.9,-520.78 244.5,-451.98 295.72,-426.53"/>
<polygon fill="#9a32cd" stroke="#9a32cd" points="37.83,-664.8 39.73,-675.22 44.74,-665.89 37.83,-664.8"/>
<text text-anchor="middle" x="154.5" y="-552" font-family="Helvetica,sans-Serif" font-size="10.00"> BITMASK_PRINT_WIDTH</text>
<text text-anchor="middle" x="154.5" y="-541" font-family="Helvetica,sans-Serif" font-size="10.00">UNDEF</text>
</g>
<!-- Node16 -->
<g id="node13" class="node">
<title>Node16</title>
<g id="a_node13"><a xlink:href="classformat_1_1_style.html" target="_top" xlink:title="ノードの表示スタイルに関するプロパティのクラス.">
<polygon fill="white" stroke="red" points="296.5,-280.5 296.5,-299.5 335.5,-299.5 335.5,-280.5 296.5,-280.5"/>
<text text-anchor="middle" x="316" y="-287.5" font-family="Helvetica,sans-Serif" font-size="10.00">Style</text>
</a>
</g>
</g>
<!-- Node9&#45;&gt;Node16 -->
<g id="edge14" class="edge">
<title>Node9&#45;&gt;Node16</title>
<path fill="none" stroke="#9a32cd" stroke-dasharray="5,2" d="M43.05,-665.42C55.96,-609.82 92.02,-454.93 93,-454 133.24,-415.61 171,-463.68 216,-431 229.52,-421.18 224.96,-412.05 234,-398 258.34,-360.15 291.73,-318.32 306.91,-299.78"/>
<polygon fill="#9a32cd" stroke="#9a32cd" points="39.58,-664.88 40.72,-675.41 46.4,-666.46 39.58,-664.88"/>
<text text-anchor="middle" x="154.5" y="-457" font-family="Helvetica,sans-Serif" font-size="10.00"> pref</text>
</g>
<!-- Node9&#45;&gt;Node26 -->
<g id="edge35" class="edge">
<title>Node9&#45;&gt;Node26</title>
<path fill="none" stroke="#9a32cd" stroke-dasharray="5,2" d="M62.22,-681.3C152.87,-667.16 476.78,-616.66 566.7,-602.63"/>
<polygon fill="#9a32cd" stroke="#9a32cd" points="61.47,-677.88 52.13,-682.87 62.55,-684.79 61.47,-677.88"/>
<text text-anchor="middle" x="316" y="-656" font-family="Helvetica,sans-Serif" font-size="10.00"> UNDEF</text>
</g>
<!-- Node9&#45;&gt;Node27 -->
<g id="edge41" class="edge">
<title>Node9&#45;&gt;Node27</title>
<path fill="none" stroke="#9a32cd" stroke-dasharray="5,2" d="M60.85,-669.5C95.87,-646.22 166.64,-603.12 234,-586 463.12,-527.75 756.01,-546.17 825.66,-551.69"/>
<polygon fill="#9a32cd" stroke="#9a32cd" points="58.68,-666.74 52.35,-675.24 62.6,-672.55 58.68,-666.74"/>
<text text-anchor="middle" x="454" y="-557" font-family="Helvetica,sans-Serif" font-size="10.00"> UNDEF</text>
</g>
<!-- Node31 -->
<g id="node28" class="node">
<title>Node31</title>
<g id="a_node28"><a xlink:href="classmachine_1_1_call_list.html" target="_top" xlink:title=" ">
<polygon fill="white" stroke="black" points="817,-749.5 817,-768.5 867,-768.5 867,-749.5 817,-749.5"/>
<text text-anchor="middle" x="842" y="-756.5" font-family="Helvetica,sans-Serif" font-size="10.00">CallList</text>
</a>
</g>
</g>
<!-- Node9&#45;&gt;Node31 -->
<g id="edge50" class="edge">
<title>Node9&#45;&gt;Node31</title>
<path fill="none" stroke="#9a32cd" stroke-dasharray="5,2" d="M51.6,-703C61.5,-715.11 76.23,-730.24 93,-738 210.04,-792.18 543.05,-780.37 672,-778 720.47,-777.11 733,-780.8 781,-774 793.01,-772.3 806.11,-769.17 817,-766.22"/>
<polygon fill="#9a32cd" stroke="#9a32cd" points="54.18,-700.61 45.28,-694.86 48.65,-704.91 54.18,-700.61"/>
<text text-anchor="middle" x="454" y="-783" font-family="Helvetica,sans-Serif" font-size="10.00"> UNDEF</text>
</g>
<!-- Node32 -->
<g id="node29" class="node">
<title>Node32</title>
<g id="a_node29"><a xlink:href="classmachine_1_1_id_mask.html" target="_top" xlink:title="@IDのマスク">
<polygon fill="white" stroke="black" points="566.5,-825.5 566.5,-844.5 615.5,-844.5 615.5,-825.5 566.5,-825.5"/>
<text text-anchor="middle" x="591" y="-832.5" font-family="Helvetica,sans-Serif" font-size="10.00">IdMask</text>
</a>
</g>
</g>
<!-- Node9&#45;&gt;Node32 -->
<g id="edge53" class="edge">
<title>Node9&#45;&gt;Node32</title>
<path fill="none" stroke="#9a32cd" stroke-dasharray="5,2" d="M46.29,-703.79C55.24,-723.64 71.52,-754.9 93,-776 144.57,-826.64 164.17,-838.37 234,-857 355.46,-889.4 508.14,-856.58 566.16,-841.61"/>
<polygon fill="#9a32cd" stroke="#9a32cd" points="49.48,-702.35 42.29,-694.57 43.06,-705.14 49.48,-702.35"/>
<text text-anchor="middle" x="316" y="-895" font-family="Helvetica,sans-Serif" font-size="10.00"> OUTPUT_MIN_BIT_WIDTH</text>
<text text-anchor="middle" x="316" y="-884" font-family="Helvetica,sans-Serif" font-size="10.00">maxState</text>
<text text-anchor="middle" x="316" y="-873" font-family="Helvetica,sans-Serif" font-size="10.00">numStates</text>
</g>
<!-- Node11 -->
<g id="node8" class="node">
<title>Node11</title>
<g id="a_node8"><a xlink:title=" ">
<polygon fill="white" stroke="#bfbfbf" points="12.5,-330.5 12.5,-349.5 62.5,-349.5 62.5,-330.5 12.5,-330.5"/>
<text text-anchor="middle" x="37.5" y="-337.5" font-family="Helvetica,sans-Serif" font-size="10.00">boolean</text>
</a>
</g>
</g>
<!-- Node11&#45;&gt;Node1 -->
<g id="edge60" class="edge">
<title>Node11&#45;&gt;Node1</title>
<path fill="none" stroke="#9a32cd" stroke-dasharray="5,2" d="M48.62,-321.41C73.5,-277.79 142.38,-169.08 234,-123 409.28,-34.85 1066.96,-165.15 1183.72,-189.27"/>
<polygon fill="#9a32cd" stroke="#9a32cd" points="45.44,-319.92 43.62,-330.36 51.55,-323.34 45.44,-319.92"/>
<text text-anchor="middle" x="735.5" y="-123" font-family="Helvetica,sans-Serif" font-size="10.00"> DEBUG_REPO</text>
</g>
<!-- Node11&#45;&gt;Node2 -->
<g id="edge31" class="edge">
<title>Node11&#45;&gt;Node2</title>
<path fill="none" stroke="#9a32cd" stroke-dasharray="5,2" d="M72.57,-344.7C108.33,-349.69 166.19,-357.97 216,-366 297.08,-379.06 322.93,-364.7 398,-398 407.26,-402.11 406.54,-408.36 416,-412 524.84,-453.93 892.85,-457.83 1002.45,-458.04"/>
<polygon fill="#9a32cd" stroke="#9a32cd" points="73.04,-341.23 62.65,-343.31 72.07,-348.16 73.04,-341.23"/>
<text text-anchor="middle" x="591" y="-451" font-family="Helvetica,sans-Serif" font-size="10.00"> DEBUG_REPO</text>
</g>
<!-- Node11&#45;&gt;Node3 -->
<g id="edge22" class="edge">
<title>Node11&#45;&gt;Node3</title>
<path fill="none" stroke="#9a32cd" stroke-dasharray="5,2" d="M73.02,-339.03C108.82,-338.29 166.39,-337.87 216,-341 297.32,-346.13 318.55,-344.93 398,-363 449.26,-374.66 458.14,-392.44 510,-401 581.04,-412.72 600.15,-405.6 672,-401 720.74,-397.88 735.55,-404.88 781,-387 800.56,-379.31 819.68,-363.82 830.9,-353.69"/>
<polygon fill="#9a32cd" stroke="#9a32cd" points="72.56,-335.53 62.65,-339.26 72.72,-342.53 72.56,-335.53"/>
<text text-anchor="middle" x="454" y="-400" font-family="Helvetica,sans-Serif" font-size="10.00"> DEBUG_REPO</text>
</g>
<!-- Node11&#45;&gt;Node5 -->
<g id="edge7" class="edge">
<title>Node11&#45;&gt;Node5</title>
<path fill="none" stroke="#9a32cd" stroke-dasharray="5,2" d="M67.69,-353.67C75.76,-357.08 84.61,-360.48 93,-363 146.26,-379.01 162.04,-372.56 216,-386 229.28,-389.31 261.69,-399.62 285.83,-407.45"/>
<polygon fill="#9a32cd" stroke="#9a32cd" points="68.87,-350.37 58.31,-349.57 66.07,-356.79 68.87,-350.37"/>
<text text-anchor="middle" x="154.5" y="-389" font-family="Helvetica,sans-Serif" font-size="10.00"> DEBUG_REPO</text>
</g>
<!-- Node11&#45;&gt;Node16 -->
<g id="edge15" class="edge">
<title>Node11&#45;&gt;Node16</title>
<path fill="none" stroke="#9a32cd" stroke-dasharray="5,2" d="M52.33,-322.16C62.26,-310.88 76.73,-297.28 93,-291 163.83,-263.66 257.11,-277.8 296.35,-285.78"/>
<polygon fill="#9a32cd" stroke="#9a32cd" points="49.36,-320.25 45.66,-330.18 54.74,-324.73 49.36,-320.25"/>
<text text-anchor="middle" x="154.5" y="-305" font-family="Helvetica,sans-Serif" font-size="10.00"> preoperSupress</text>
<text text-anchor="middle" x="154.5" y="-294" font-family="Helvetica,sans-Serif" font-size="10.00">toInline</text>
</g>
<!-- Node11&#45;&gt;Node26 -->
<g id="edge36" class="edge">
<title>Node11&#45;&gt;Node26</title>
<path fill="none" stroke="#9a32cd" stroke-dasharray="5,2" d="M43.27,-359.46C55.18,-407.75 85.82,-529.55 93,-535 163.64,-588.6 407.38,-504.52 492,-531 528.96,-542.57 564.21,-573.52 580.53,-589.36"/>
<polygon fill="#9a32cd" stroke="#9a32cd" points="46.63,-358.48 40.84,-349.61 39.83,-360.16 46.63,-358.48"/>
<text text-anchor="middle" x="316" y="-552" font-family="Helvetica,sans-Serif" font-size="10.00"> DEBUG_REPO</text>
</g>
<!-- Node12 -->
<g id="node9" class="node">
<title>Node12</title>
<g id="a_node9"><a xlink:href="interfaceformat_1_1_x_formattable_1_1_navigatable.html" target="_top" xlink:title="木構造の分岐ノードとして清書可能なオブジェクトのクラス">
<polygon fill="white" stroke="black" points="251,-132.5 251,-151.5 381,-151.5 381,-132.5 251,-132.5"/>
<text text-anchor="middle" x="316" y="-139.5" font-family="Helvetica,sans-Serif" font-size="10.00">XFormattable.Navigatable</text>
</a>
</g>
</g>
<!-- Node12&#45;&gt;Node4 -->
<g id="edge8" class="edge">
<title>Node12&#45;&gt;Node4</title>
<path fill="none" stroke="midnightblue" d="M379.16,-153.38C437.23,-164.02 521.14,-179.39 563.46,-187.14"/>
<polygon fill="midnightblue" stroke="midnightblue" points="379.46,-149.88 368.99,-151.52 378.2,-156.77 379.46,-149.88"/>
</g>
<!-- Node17 -->
<g id="node14" class="node">
<title>Node17</title>
<g id="a_node14"><a xlink:href="interfaceformat_1_1_x_formattable_1_1_field_navigatable.html" target="_top" xlink:title="タグ付きノードに対応する清書対象のクラス。">
<polygon fill="white" stroke="black" points="515.5,-296.5 515.5,-315.5 666.5,-315.5 666.5,-296.5 515.5,-296.5"/>
<text text-anchor="middle" x="591" y="-303.5" font-family="Helvetica,sans-Serif" font-size="10.00">XFormattable.FieldNavigatable</text>
</a>
</g>
</g>
<!-- Node12&#45;&gt;Node17 -->
<g id="edge17" class="edge">
<title>Node12&#45;&gt;Node17</title>
<path fill="none" stroke="midnightblue" d="M366.03,-155.51C377.89,-160.83 389.57,-168.11 398,-178 418.28,-201.8 395.64,-222.27 416,-246 445.68,-280.59 466.77,-272.57 510,-287 520.7,-290.57 532.41,-293.75 543.49,-296.43"/>
<polygon fill="midnightblue" stroke="midnightblue" points="367.11,-152.17 356.52,-151.65 364.47,-158.66 367.11,-152.17"/>
</g>
<!-- Node12&#45;&gt;Node30 -->
<g id="edge47" class="edge">
<title>Node12&#45;&gt;Node30</title>
<path fill="none" stroke="midnightblue" d="M388.27,-131C397.6,-129.62 407.02,-128.25 416,-127 537.59,-110.03 567.48,-99.79 690,-92 730.36,-89.43 740.61,-89.99 781,-92 793.34,-92.62 807.05,-93.94 818.25,-95.19"/>
<polygon fill="midnightblue" stroke="midnightblue" points="387.6,-127.56 378.23,-132.5 388.63,-134.48 387.6,-127.56"/>
</g>
<!-- Node13 -->
<g id="node10" class="node">
<title>Node13</title>
<g id="a_node10"><a xlink:href="interfaceformat_1_1_x_formattable.html" target="_top" xlink:title="入れ子フォーマット出力可能なオブジェクトのインタフェース。">
<polygon fill="white" stroke="black" points="0,-187.5 0,-206.5 75,-206.5 75,-187.5 0,-187.5"/>
<text text-anchor="middle" x="37.5" y="-194.5" font-family="Helvetica,sans-Serif" font-size="10.00">XFormattable</text>
</a>
</g>
</g>
<!-- Node13&#45;&gt;Node12 -->
<g id="edge9" class="edge">
<title>Node13&#45;&gt;Node12</title>
<path fill="none" stroke="midnightblue" d="M85.22,-187.71C135.76,-177.65 215.93,-161.71 266.98,-151.55"/>
<polygon fill="midnightblue" stroke="midnightblue" points="84.34,-184.31 75.22,-189.7 85.71,-191.18 84.34,-184.31"/>
</g>
<!-- Node14 -->
<g id="node11" class="node">
<title>Node14</title>
<g id="a_node11"><a xlink:href="interfaceformat_1_1_x_formattable_1_1_typed_formattable.html" target="_top" xlink:title="ノードの型情報をもつ書式出力可能なオブジェクトのインタフェース．">
<polygon fill="white" stroke="black" points="238,-187.5 238,-206.5 394,-206.5 394,-187.5 238,-187.5"/>
<text text-anchor="middle" x="316" y="-194.5" font-family="Helvetica,sans-Serif" font-size="10.00">XFormattable.TypedFormattable</text>
</a>
</g>
</g>
<!-- Node13&#45;&gt;Node14 -->
<g id="edge11" class="edge">
<title>Node13&#45;&gt;Node14</title>
<path fill="none" stroke="midnightblue" d="M85.36,-197C127.06,-197 188.84,-197 237.82,-197"/>
<polygon fill="midnightblue" stroke="midnightblue" points="85.22,-193.5 75.22,-197 85.22,-200.5 85.22,-193.5"/>
</g>
<!-- Node23 -->
<g id="node20" class="node">
<title>Node23</title>
<g id="a_node20"><a xlink:href="interfaceformat_1_1_x_formattable_1_1_custom_formattable.html" target="_top" xlink:title="カスタム清書出力器をもつオブジェクトのクラス．">
<polygon fill="white" stroke="black" points="234,-675.5 234,-694.5 398,-694.5 398,-675.5 234,-675.5"/>
<text text-anchor="middle" x="316" y="-682.5" font-family="Helvetica,sans-Serif" font-size="10.00">XFormattable.CustomFormattable</text>
</a>
</g>
</g>
<!-- Node13&#45;&gt;Node23 -->
<g id="edge27" class="edge">
<title>Node13&#45;&gt;Node23</title>
<path fill="none" stroke="midnightblue" d="M45.52,-216.54C53.91,-240.73 67.74,-283.36 75,-321 90.99,-403.85 58.36,-433.06 93,-510 130.7,-593.73 155.91,-612.71 234,-661 244.1,-667.25 255.92,-671.95 267.36,-675.45"/>
<polygon fill="midnightblue" stroke="midnightblue" points="48.71,-215.07 42.09,-206.81 42.11,-217.4 48.71,-215.07"/>
</g>
<!-- Node14&#45;&gt;Node4 -->
<g id="edge10" class="edge">
<title>Node14&#45;&gt;Node4</title>
<path fill="none" stroke="midnightblue" d="M404.28,-195.4C459.42,-194.39 526.94,-193.15 563.47,-192.49"/>
<polygon fill="midnightblue" stroke="midnightblue" points="404.07,-191.9 394.14,-195.59 404.2,-198.9 404.07,-191.9"/>
</g>
<!-- Node15 -->
<g id="node12" class="node">
<title>Node15</title>
<g id="a_node12"><a xlink:title=" ">
<polygon fill="white" stroke="#bfbfbf" points="290,-38.5 290,-57.5 342,-57.5 342,-38.5 290,-38.5"/>
<text text-anchor="middle" x="316" y="-45.5" font-family="Helvetica,sans-Serif" font-size="10.00">Boolean</text>
</a>
</g>
</g>
<!-- Node15&#45;&gt;Node1 -->
<g id="edge59" class="edge">
<title>Node15&#45;&gt;Node1</title>
<path fill="none" stroke="#9a32cd" stroke-dasharray="5,2" d="M352.26,-48C404.28,-48 504.64,-48 590,-48 590,-48 590,-48 1035.5,-48 1097.61,-48 1124.47,-51.81 1166,-98 1188.84,-123.4 1197.45,-164.86 1200.28,-183.45"/>
<polygon fill="#9a32cd" stroke="#9a32cd" points="352.22,-44.5 342.22,-48 352.22,-51.5 352.22,-44.5"/>
<text text-anchor="middle" x="842" y="-62" font-family="Helvetica,sans-Serif" font-size="10.00"> dynamic_</text>
<text text-anchor="middle" x="842" y="-51" font-family="Helvetica,sans-Serif" font-size="10.00">target_</text>
</g>
<!-- Node15&#45;&gt;Node4 -->
<g id="edge12" class="edge">
<title>Node15&#45;&gt;Node4</title>
<path fill="none" stroke="#9a32cd" stroke-dasharray="5,2" d="M344.25,-62.37C399.8,-91.67 524.82,-157.62 571.74,-182.37"/>
<polygon fill="#9a32cd" stroke="#9a32cd" points="345.81,-59.24 335.34,-57.67 342.55,-65.43 345.81,-59.24"/>
<text text-anchor="middle" x="454" y="-140" font-family="Helvetica,sans-Serif" font-size="10.00"> DEBUG_CHILD</text>
</g>
<!-- Node16&#45;&gt;Node4 -->
<g id="edge13" class="edge">
<title>Node16&#45;&gt;Node4</title>
<path fill="none" stroke="#9a32cd" stroke-dasharray="5,2" d="M338.45,-274.48C357.83,-261.14 387.6,-242.31 416,-231 466.04,-211.07 528.44,-200.22 563.28,-195.31"/>
<polygon fill="#9a32cd" stroke="#9a32cd" points="336.24,-271.75 330.06,-280.36 340.26,-277.48 336.24,-271.75"/>
<text text-anchor="middle" x="454" y="-234" font-family="Helvetica,sans-Serif" font-size="10.00"> sty</text>
</g>
<!-- Node17&#45;&gt;Node3 -->
<g id="edge16" class="edge">
<title>Node17&#45;&gt;Node3</title>
<path fill="none" stroke="midnightblue" d="M676.9,-312.52C722.47,-318.73 775.94,-327.47 809.16,-334.45"/>
<polygon fill="midnightblue" stroke="midnightblue" points="677.08,-309.01 666.71,-311.16 676.16,-315.95 677.08,-309.01"/>
</g>
<!-- Node17&#45;&gt;Node3 -->
<g id="edge19" class="edge">
<title>Node17&#45;&gt;Node3</title>
<path fill="none" stroke="midnightblue" d="M633.68,-317.55C679.44,-326.6 752.53,-337.77 798.58,-342.75"/>
<polygon fill="midnightblue" stroke="midnightblue" points="634.29,-314.1 623.79,-315.54 632.89,-320.96 634.29,-314.1"/>
</g>
<!-- Node18 -->
<g id="node15" class="node">
<title>Node18</title>
<g id="a_node15"><a xlink:title=" ">
<polygon fill="white" stroke="#bfbfbf" points="553,-334.5 553,-353.5 629,-353.5 629,-334.5 553,-334.5"/>
<text text-anchor="middle" x="591" y="-341.5" font-family="Helvetica,sans-Serif" font-size="10.00">List&lt; String &gt;</text>
</a>
</g>
</g>
<!-- Node18&#45;&gt;Node3 -->
<g id="edge20" class="edge">
<title>Node18&#45;&gt;Node3</title>
<path fill="none" stroke="#9a32cd" stroke-dasharray="5,2" d="M639.03,-344C685.04,-344 754.49,-344 798.78,-344"/>
<polygon fill="#9a32cd" stroke="#9a32cd" points="639.01,-340.5 629.01,-344 639.01,-347.5 639.01,-340.5"/>
<text text-anchor="middle" x="735.5" y="-347" font-family="Helvetica,sans-Serif" font-size="10.00"> fields</text>
</g>
<!-- Node19 -->
<g id="node16" class="node">
<title>Node19</title>
<g id="a_node16"><a xlink:title=" ">
<polygon fill="white" stroke="#bfbfbf" points="510,-372.5 510,-391.5 672,-391.5 672,-372.5 510,-372.5"/>
<text text-anchor="middle" x="591" y="-379.5" font-family="Helvetica,sans-Serif" font-size="10.00">List&lt; Supplier&lt; XFormattable &gt; &gt;</text>
</a>
</g>
</g>
<!-- Node19&#45;&gt;Node3 -->
<g id="edge21" class="edge">
<title>Node19&#45;&gt;Node3</title>
<path fill="none" stroke="#9a32cd" stroke-dasharray="5,2" d="M682.37,-373.31C713.73,-369.68 749.03,-364.92 781,-359 789.13,-357.5 797.8,-355.54 805.94,-353.54"/>
<polygon fill="#9a32cd" stroke="#9a32cd" points="681.88,-369.84 672.34,-374.45 682.67,-376.8 681.88,-369.84"/>
<text text-anchor="middle" x="735.5" y="-375" font-family="Helvetica,sans-Serif" font-size="10.00"> getters</text>
</g>
<!-- Node20 -->
<g id="node17" class="node">
<title>Node20</title>
<g id="a_node17"><a xlink:href="interfacemachine_1_1_rule.html" target="_top" xlink:title="実行可能コードのインタフェース. ブロックとステップの二種がある。">
<polygon fill="white" stroke="black" points="823.5,-208.5 823.5,-227.5 860.5,-227.5 860.5,-208.5 823.5,-208.5"/>
<text text-anchor="middle" x="842" y="-215.5" font-family="Helvetica,sans-Serif" font-size="10.00">Rule</text>
</a>
</g>
</g>
<!-- Node20&#45;&gt;Node2 -->
<g id="edge23" class="edge">
<title>Node20&#45;&gt;Node2</title>
<path fill="none" stroke="midnightblue" d="M869.75,-231.58C875.11,-234.92 880.47,-238.77 885,-243 956.29,-309.56 1012.58,-415.97 1028.78,-448.34"/>
<polygon fill="midnightblue" stroke="midnightblue" points="871.31,-228.43 860.9,-226.45 867.8,-234.49 871.31,-228.43"/>
</g>
<!-- Node29 -->
<g id="node26" class="node">
<title>Node29</title>
<g id="a_node26"><a xlink:href="interfacemachine_1_1_steppable.html" target="_top" xlink:title="実行可能ルールのインタフェース.">
<polygon fill="white" stroke="black" points="1004.5,-202.5 1004.5,-221.5 1064.5,-221.5 1064.5,-202.5 1004.5,-202.5"/>
<text text-anchor="middle" x="1034.5" y="-209.5" font-family="Helvetica,sans-Serif" font-size="10.00">Steppable</text>
</a>
</g>
</g>
<!-- Node20&#45;&gt;Node29 -->
<g id="edge43" class="edge">
<title>Node20&#45;&gt;Node29</title>
<path fill="none" stroke="midnightblue" d="M870.75,-217.13C906.37,-216 967.92,-214.07 1004.26,-212.92"/>
<polygon fill="midnightblue" stroke="midnightblue" points="870.47,-213.63 860.58,-217.45 870.69,-220.63 870.47,-213.63"/>
</g>
<!-- Node21 -->
<g id="node18" class="node">
<title>Node21</title>
<g id="a_node18"><a xlink:href="interfacecmd_1_1_generatable.html" target="_top" xlink:title="変換してコードを生成できるノードのインタフェース.">
<polygon fill="white" stroke="black" points="807.5,-505.5 807.5,-524.5 876.5,-524.5 876.5,-505.5 807.5,-505.5"/>
<text text-anchor="middle" x="842" y="-512.5" font-family="Helvetica,sans-Serif" font-size="10.00">Generatable</text>
</a>
</g>
</g>
<!-- Node21&#45;&gt;Node2 -->
<g id="edge24" class="edge">
<title>Node21&#45;&gt;Node2</title>
<path fill="none" stroke="midnightblue" d="M884.48,-502.59C920,-491.96 970.34,-476.9 1002.46,-467.29"/>
<polygon fill="midnightblue" stroke="midnightblue" points="883.46,-499.24 874.89,-505.46 885.47,-505.95 883.46,-499.24"/>
</g>
<!-- Node22 -->
<g id="node19" class="node">
<title>Node22</title>
<g id="a_node19"><a xlink:href="classcmd_1_1_cmd_list.html" target="_top" xlink:title="仮想命令のリスト．">
<polygon fill="white" stroke="black" points="815.5,-252.5 815.5,-271.5 868.5,-271.5 868.5,-252.5 815.5,-252.5"/>
<text text-anchor="middle" x="842" y="-259.5" font-family="Helvetica,sans-Serif" font-size="10.00">CmdList</text>
</a>
</g>
</g>
<!-- Node22&#45;&gt;Node1 -->
<g id="edge57" class="edge">
<title>Node22&#45;&gt;Node1</title>
<path fill="none" stroke="#9a32cd" stroke-dasharray="5,2" d="M878.57,-260.43C930.47,-257.58 1029.71,-249.97 1112,-231 1136.79,-225.29 1142.72,-222.26 1166,-212 1172.27,-209.24 1178.94,-205.81 1184.79,-202.62"/>
<polygon fill="#9a32cd" stroke="#9a32cd" points="878.34,-256.94 868.54,-260.96 878.71,-263.93 878.34,-256.94"/>
<text text-anchor="middle" x="1034.5" y="-257" font-family="Helvetica,sans-Serif" font-size="10.00"> pre_code_</text>
</g>
<!-- Node22&#45;&gt;Node2 -->
<g id="edge25" class="edge">
<title>Node22&#45;&gt;Node2</title>
<path fill="none" stroke="#9a32cd" stroke-dasharray="5,2" d="M859.6,-279.08C898.31,-318.91 993.57,-416.92 1024,-448.22"/>
<polygon fill="#9a32cd" stroke="#9a32cd" points="861.93,-276.45 852.45,-271.72 856.91,-281.33 861.93,-276.45"/>
<text text-anchor="middle" x="921" y="-363" font-family="Helvetica,sans-Serif" font-size="10.00"> code_</text>
</g>
<!-- Node23&#45;&gt;Node22 -->
<g id="edge26" class="edge">
<title>Node23&#45;&gt;Node22</title>
<path fill="none" stroke="midnightblue" d="M397.54,-668.53C397.69,-668.35 397.85,-668.18 398,-668 420.52,-641.86 403.05,-389.98 416,-358 419,-350.59 502.73,-252.33 510,-249 614.57,-201.1 757.78,-235.98 815.42,-253.53"/>
<polygon fill="midnightblue" stroke="midnightblue" points="394.97,-666.12 389.76,-675.35 399.59,-671.39 394.97,-666.12"/>
</g>
<!-- Node23&#45;&gt;Node26 -->
<g id="edge33" class="edge">
<title>Node23&#45;&gt;Node26</title>
<path fill="none" stroke="midnightblue" d="M363.48,-672.72C398.91,-663.12 448.8,-649.09 492,-635 517.85,-626.57 547.05,-615.66 566.8,-608.07"/>
<polygon fill="midnightblue" stroke="midnightblue" points="362.18,-669.45 353.43,-675.43 364,-676.21 362.18,-669.45"/>
</g>
<!-- Node23&#45;&gt;Node31 -->
<g id="edge49" class="edge">
<title>Node23&#45;&gt;Node31</title>
<path fill="none" stroke="midnightblue" d="M408.6,-680.64C480.81,-679.05 583.71,-680.88 672,-698 727.89,-708.83 789.98,-735.22 821.03,-749.48"/>
<polygon fill="midnightblue" stroke="midnightblue" points="408.08,-677.15 398.17,-680.9 408.26,-684.15 408.08,-677.15"/>
</g>
<!-- Node23&#45;&gt;Node32 -->
<g id="edge52" class="edge">
<title>Node23&#45;&gt;Node32</title>
<path fill="none" stroke="midnightblue" d="M396.35,-696.96C428.94,-705.17 465.23,-718.94 492,-742 505.55,-753.67 498.37,-764.41 510,-778 527.52,-798.47 553.88,-815.39 571.51,-825.34"/>
<polygon fill="midnightblue" stroke="midnightblue" points="396.91,-693.5 386.37,-694.59 395.29,-700.31 396.91,-693.5"/>
</g>
<!-- Node24 -->
<g id="node21" class="node">
<title>Node24</title>
<g id="a_node21"><a xlink:title=" ">
<polygon fill="white" stroke="#bfbfbf" points="555.5,-258.5 555.5,-277.5 626.5,-277.5 626.5,-258.5 555.5,-258.5"/>
<text text-anchor="middle" x="591" y="-265.5" font-family="Helvetica,sans-Serif" font-size="10.00">List&lt; Cmd &gt;</text>
</a>
</g>
</g>
<!-- Node24&#45;&gt;Node22 -->
<g id="edge28" class="edge">
<title>Node24&#45;&gt;Node22</title>
<path fill="none" stroke="#9a32cd" stroke-dasharray="5,2" d="M636.92,-266.92C689.07,-265.66 773.3,-263.63 815.37,-262.62"/>
<polygon fill="#9a32cd" stroke="#9a32cd" points="636.54,-263.43 626.62,-267.17 636.7,-270.42 636.54,-263.43"/>
<text text-anchor="middle" x="735.5" y="-268" font-family="Helvetica,sans-Serif" font-size="10.00"> list_</text>
</g>
<!-- Node25 -->
<g id="node22" class="node">
<title>Node25</title>
<g id="a_node22"><a xlink:title=" ">
<polygon fill="white" stroke="#bfbfbf" points="815.5,-467.5 815.5,-486.5 868.5,-486.5 868.5,-467.5 815.5,-467.5"/>
<text text-anchor="middle" x="842" y="-474.5" font-family="Helvetica,sans-Serif" font-size="10.00">StepList</text>
</a>
</g>
</g>
<!-- Node25&#45;&gt;Node2 -->
<g id="edge29" class="edge">
<title>Node25&#45;&gt;Node2</title>
<path fill="none" stroke="#9a32cd" stroke-dasharray="5,2" d="M879.1,-473.4C914.66,-469.85 968.43,-464.49 1002.22,-461.12"/>
<polygon fill="#9a32cd" stroke="#9a32cd" points="878.29,-469.96 868.69,-474.44 878.99,-476.93 878.29,-469.96"/>
<text text-anchor="middle" x="921" y="-473" font-family="Helvetica,sans-Serif" font-size="10.00"> sub_</text>
</g>
<!-- Node26&#45;&gt;Node2 -->
<g id="edge32" class="edge">
<title>Node26&#45;&gt;Node2</title>
<path fill="none" stroke="#9a32cd" stroke-dasharray="5,2" d="M625.43,-600.75C680.89,-602.61 794.77,-601.92 885,-572 947.93,-551.13 1004.87,-491.13 1025.4,-467.62"/>
<polygon fill="#9a32cd" stroke="#9a32cd" points="625.27,-597.24 615.14,-600.36 625,-604.24 625.27,-597.24"/>
<text text-anchor="middle" x="842" y="-594" font-family="Helvetica,sans-Serif" font-size="10.00"> refs_</text>
</g>
<!-- Node26&#45;&gt;Node26 -->
<g id="edge37" class="edge">
<title>Node26&#45;&gt;Node26</title>
<path fill="none" stroke="#9a32cd" stroke-dasharray="5,2" d="M565.7,-618.03C567.08,-623.13 575.51,-627 591,-627 615.17,-627 622.16,-617.57 611.96,-608.76"/>
<polygon fill="#9a32cd" stroke="#9a32cd" points="568.97,-619.3 570.04,-608.76 562.63,-616.33 568.97,-619.3"/>
<text text-anchor="middle" x="591" y="-630" font-family="Helvetica,sans-Serif" font-size="10.00"> parent</text>
</g>
<!-- Node27&#45;&gt;Node2 -->
<g id="edge38" class="edge">
<title>Node27&#45;&gt;Node2</title>
<path fill="none" stroke="#9a32cd" stroke-dasharray="5,2" d="M867.49,-542.16C873.26,-539.54 879.36,-536.71 885,-534 932.49,-511.12 987.51,-482.36 1015.35,-467.65"/>
<polygon fill="#9a32cd" stroke="#9a32cd" points="865.93,-539.02 858.25,-546.32 868.8,-545.41 865.93,-539.02"/>
<text text-anchor="middle" x="921" y="-527" font-family="Helvetica,sans-Serif" font-size="10.00"> retRef_</text>
</g>
<!-- Node28 -->
<g id="node25" class="node">
<title>Node28</title>
<g id="a_node25"><a xlink:href="interfacemachine_1_1_assignable.html" target="_top" xlink:title="変数（チャネルとコンテナの名前）の抽象化">
<polygon fill="white" stroke="black" points="558.5,-505.5 558.5,-524.5 623.5,-524.5 623.5,-505.5 558.5,-505.5"/>
<text text-anchor="middle" x="591" y="-512.5" font-family="Helvetica,sans-Serif" font-size="10.00">Assignable</text>
</a>
</g>
</g>
<!-- Node28&#45;&gt;Node27 -->
<g id="edge40" class="edge">
<title>Node28&#45;&gt;Node27</title>
<path fill="none" stroke="midnightblue" d="M633.87,-519.07C672.29,-523.09 730.71,-529.96 781,-539 796.37,-541.76 813.72,-545.93 825.8,-549"/>
<polygon fill="midnightblue" stroke="midnightblue" points="633.89,-515.55 623.59,-518.01 633.17,-522.51 633.89,-515.55"/>
</g>
<!-- Node29&#45;&gt;Node1 -->
<g id="edge42" class="edge">
<title>Node29&#45;&gt;Node1</title>
<path fill="none" stroke="midnightblue" d="M1075.01,-207.48C1109.5,-203.53 1157.96,-197.98 1183.73,-195.03"/>
<polygon fill="midnightblue" stroke="midnightblue" points="1074.33,-204.03 1064.8,-208.65 1075.13,-210.99 1074.33,-204.03"/>
</g>
<!-- Node30&#45;&gt;Node1 -->
<g id="edge45" class="edge">
<title>Node30&#45;&gt;Node1</title>
<path fill="none" stroke="#9a32cd" stroke-dasharray="5,2" d="M875.7,-89.8C938.99,-76.01 1079.55,-55.73 1166,-122 1186.34,-137.6 1195.87,-168.01 1199.55,-183.48"/>
<polygon fill="#9a32cd" stroke="#9a32cd" points="874.86,-86.41 865.88,-92.03 876.4,-93.23 874.86,-86.41"/>
<text text-anchor="middle" x="1034.5" y="-95" font-family="Helvetica,sans-Serif" font-size="10.00"> sents_</text>
</g>
<!-- Node31&#45;&gt;Node1 -->
<g id="edge48" class="edge">
<title>Node31&#45;&gt;Node1</title>
<path fill="none" stroke="#9a32cd" stroke-dasharray="5,2" d="M877.13,-756.12C896.7,-753.08 920.9,-746.83 939,-734 1051.34,-654.39 1050.88,-600.38 1112,-477 1162.26,-375.55 1192.03,-239.84 1199.58,-202.73"/>
<polygon fill="#9a32cd" stroke="#9a32cd" points="876.53,-752.67 867.08,-757.47 877.46,-759.61 876.53,-752.67"/>
<text text-anchor="middle" x="1034.5" y="-721" font-family="Helvetica,sans-Serif" font-size="10.00"> calls_</text>
</g>
<!-- Node32&#45;&gt;Node31 -->
<g id="edge51" class="edge">
<title>Node32&#45;&gt;Node31</title>
<path fill="none" stroke="#9a32cd" stroke-dasharray="5,2" d="M625.85,-836.48C664.94,-836.91 730.35,-833.63 781,-811 802.9,-801.22 822.75,-780.71 833.22,-768.58"/>
<polygon fill="#9a32cd" stroke="#9a32cd" points="625.62,-832.97 615.56,-836.27 625.48,-839.97 625.62,-832.97"/>
<text text-anchor="middle" x="735.5" y="-836" font-family="Helvetica,sans-Serif" font-size="10.00"> callbits_</text>
</g>
<!-- Node33 -->
<g id="node30" class="node">
<title>Node33</title>
<g id="a_node30"><a xlink:title=" ">
<polygon fill="white" stroke="#bfbfbf" points="276,-790.5 276,-809.5 356,-809.5 356,-790.5 276,-790.5"/>
<text text-anchor="middle" x="316" y="-797.5" font-family="Helvetica,sans-Serif" font-size="10.00">List&lt; Integer &gt;</text>
</a>
</g>
</g>
<!-- Node33&#45;&gt;Node32 -->
<g id="edge54" class="edge">
<title>Node33&#45;&gt;Node32</title>
<path fill="none" stroke="#9a32cd" stroke-dasharray="5,2" d="M366.29,-805.62C401.37,-809.69 449.61,-815.43 492,-821 517.39,-824.34 546.42,-828.53 566.26,-831.46"/>
<polygon fill="#9a32cd" stroke="#9a32cd" points="366.64,-802.13 356.3,-804.46 365.83,-809.09 366.64,-802.13"/>
<text text-anchor="middle" x="454" y="-824" font-family="Helvetica,sans-Serif" font-size="10.00"> idlist</text>
</g>
<!-- Node34 -->
<g id="node31" class="node">
<title>Node34</title>
<g id="a_node31"><a xlink:title=" ">
<polygon fill="white" stroke="#bfbfbf" points="298.5,-828.5 298.5,-847.5 333.5,-847.5 333.5,-828.5 298.5,-828.5"/>
<text text-anchor="middle" x="316" y="-835.5" font-family="Helvetica,sans-Serif" font-size="10.00">long</text>
</a>
</g>
</g>
<!-- Node34&#45;&gt;Node32 -->
<g id="edge55" class="edge">
<title>Node34&#45;&gt;Node32</title>
<path fill="none" stroke="#9a32cd" stroke-dasharray="5,2" d="M343.71,-837.71C397.01,-837.12 515.83,-835.82 566.44,-835.26"/>
<polygon fill="#9a32cd" stroke="#9a32cd" points="343.63,-834.21 333.67,-837.82 343.7,-841.21 343.63,-834.21"/>
<text text-anchor="middle" x="454" y="-839" font-family="Helvetica,sans-Serif" font-size="10.00"> MASK_STATE</text>
</g>
<!-- Node35 -->
<g id="node32" class="node">
<title>Node35</title>
<g id="a_node32"><a xlink:title=" ">
<polygon fill="white" stroke="#bfbfbf" points="537.5,-749.5 537.5,-768.5 644.5,-768.5 644.5,-749.5 537.5,-749.5"/>
<text text-anchor="middle" x="591" y="-756.5" font-family="Helvetica,sans-Serif" font-size="10.00">List&lt; machine.Call &gt;</text>
</a>
</g>
</g>
<!-- Node35&#45;&gt;Node31 -->
<g id="edge56" class="edge">
<title>Node35&#45;&gt;Node31</title>
<path fill="none" stroke="#9a32cd" stroke-dasharray="5,2" d="M654.75,-759C707.38,-759 779.73,-759 816.86,-759"/>
<polygon fill="#9a32cd" stroke="#9a32cd" points="654.5,-755.5 644.5,-759 654.5,-762.5 654.5,-755.5"/>
<text text-anchor="middle" x="735.5" y="-762" font-family="Helvetica,sans-Serif" font-size="10.00"> list_</text>
</g>
<!-- Node36 -->
<g id="node33" class="node">
<title>Node36</title>
<g id="a_node33"><a xlink:title=" ">
<polygon fill="white" stroke="#bfbfbf" points="957,-0.5 957,-19.5 1112,-19.5 1112,-0.5 957,-0.5"/>
<text text-anchor="middle" x="1034.5" y="-7.5" font-family="Helvetica,sans-Serif" font-size="10.00">Generator&lt; ast.AstDataWriter &gt;</text>
</a>
</g>
</g>
<!-- Node36&#45;&gt;Node1 -->
<g id="edge61" class="edge">
<title>Node36&#45;&gt;Node1</title>
<path fill="none" stroke="#9a32cd" stroke-dasharray="5,2" d="M1122.19,-3.55C1138.31,-6.28 1153.87,-12.1 1166,-23 1190.22,-44.77 1198.84,-150.83 1200.94,-183.44"/>
<polygon fill="#9a32cd" stroke="#9a32cd" points="1122.48,-0.06 1112.11,-2.24 1121.57,-7 1122.48,-0.06"/>
<text text-anchor="middle" x="1148" y="-26" font-family="Helvetica,sans-Serif" font-size="10.00"> wFact_</text>
</g>
</g>
</svg>
