<?xml version="1.0" encoding="UTF-8" standalone="no"?>
<!DOCTYPE svg PUBLIC "-//W3C//DTD SVG 1.1//EN"
 "http://www.w3.org/Graphics/SVG/1.1/DTD/svg11.dtd">
<!-- Generated by graphviz version 2.38.0 (20140413.2041)
 -->
<!-- Title: StringAdder Pages: 1 -->
<svg width="529pt" height="37pt"
 viewBox="0.00 0.00 529.01 37.00" xmlns="http://www.w3.org/2000/svg" xmlns:xlink="http://www.w3.org/1999/xlink">
<g id="graph0" class="graph" transform="scale(1 1) rotate(0) translate(4 33)">
<title>StringAdder</title>
<polygon fill="white" stroke="none" points="-4,4 -4,-33 525.009,-33 525.009,4 -4,4"/>
<!-- Node1 -->
<g id="node1" class="node"><title>Node1</title>
<g id="a_node1"><a xlink:title="空のStringBufをもつホルダを生成する。">
<polygon fill="#bfbfbf" stroke="black" points="452.201,-5.5 452.201,-23.5 521.009,-23.5 521.009,-5.5 452.201,-5.5"/>
<text text-anchor="middle" x="486.605" y="-11.5" font-family="Helvetica,sans-Serif" font-size="10.00">StringAdder</text>
</a>
</g>
</g>
<!-- Node2 -->
<g id="node2" class="node"><title>Node2</title>
<g id="a_node2"><a xlink:href="classframe_1_1_string_adder.html#a74cbf449e9d398f172d95c1231700a6a" target="_top" xlink:title="新しいStringAdderを生成して返す。">
<polygon fill="white" stroke="black" points="360.733,-5.5 360.733,-23.5 416.201,-23.5 416.201,-5.5 360.733,-5.5"/>
<text text-anchor="middle" x="388.467" y="-11.5" font-family="Helvetica,sans-Serif" font-size="10.00">manager</text>
</a>
</g>
</g>
<!-- Node1&#45;&gt;Node2 -->
<g id="edge1" class="edge"><title>Node1&#45;&gt;Node2</title>
<path fill="none" stroke="midnightblue" d="M441.884,-14.5C433.148,-14.5 424.218,-14.5 416.263,-14.5"/>
<polygon fill="midnightblue" stroke="midnightblue" points="441.981,-18.0001 451.981,-14.5 441.981,-11.0001 441.981,-18.0001"/>
</g>
<!-- Node3 -->
<g id="node3" class="node"><title>Node3</title>
<g id="a_node3"><a xlink:href="classframe_1_1_frame_stack_uni.html#ae6eaac2f39aa5ae1c7724dc2453c57c1" target="_top" xlink:title=" ">
<polygon fill="white" stroke="black" points="179.817,-0.5 179.817,-28.5 324.733,-28.5 324.733,-0.5 179.817,-0.5"/>
<text text-anchor="start" x="187.817" y="-16.5" font-family="Helvetica,sans-Serif" font-size="10.00">frame.FrameStackUni.Frame</text>
<text text-anchor="middle" x="252.275" y="-6.5" font-family="Helvetica,sans-Serif" font-size="10.00">StackUni</text>
</a>
</g>
</g>
<!-- Node2&#45;&gt;Node3 -->
<g id="edge2" class="edge"><title>Node2&#45;&gt;Node3</title>
<path fill="none" stroke="midnightblue" d="M350.53,-14.5C342.483,-14.5 333.706,-14.5 324.824,-14.5"/>
<polygon fill="midnightblue" stroke="midnightblue" points="350.634,-18.0001 360.634,-14.5 350.634,-11.0001 350.634,-18.0001"/>
</g>
<!-- Node4 -->
<g id="node4" class="node"><title>Node4</title>
<g id="a_node4"><a xlink:href="classframe_1_1_frame_stack_uni.html#ac267d53cce93cb73a44fce46d41cec11" target="_top" xlink:title="ファクトリ手続き">
<polygon fill="white" stroke="black" points="0,-5.5 0,-23.5 143.817,-23.5 143.817,-5.5 0,-5.5"/>
<text text-anchor="middle" x="71.9087" y="-11.5" font-family="Helvetica,sans-Serif" font-size="10.00">frame.FrameStackUni.create</text>
</a>
</g>
</g>
<!-- Node3&#45;&gt;Node4 -->
<g id="edge3" class="edge"><title>Node3&#45;&gt;Node4</title>
<path fill="none" stroke="midnightblue" d="M169.695,-14.5C161.072,-14.5 152.353,-14.5 143.864,-14.5"/>
<polygon fill="midnightblue" stroke="midnightblue" points="169.755,-18.0001 179.755,-14.5 169.755,-11.0001 169.755,-18.0001"/>
</g>
</g>
</svg>
