<?xml version="1.0" encoding="UTF-8" standalone="no"?>
<!DOCTYPE svg PUBLIC "-//W3C//DTD SVG 1.1//EN"
 "http://www.w3.org/Graphics/SVG/1.1/DTD/svg11.dtd">
<!-- Generated by graphviz version 2.47.0 (20210316.0004)
 -->
<!-- Title: AstNodeBase Pages: 1 -->
<svg width="503pt" height="106pt"
 viewBox="0.00 0.00 503.00 106.00" xmlns="http://www.w3.org/2000/svg" xmlns:xlink="http://www.w3.org/1999/xlink">
<g id="graph0" class="graph" transform="scale(1 1) rotate(0) translate(4 102)">
<title>AstNodeBase</title>
<polygon fill="white" stroke="transparent" points="-4,4 -4,-102 499,-102 499,4 -4,4"/>
<!-- Node1 -->
<g id="node1" class="node">
<title>Node1</title>
<g id="a_node1"><a xlink:title=" ">
<polygon fill="#bfbfbf" stroke="black" points="164.5,-0.5 164.5,-19.5 241.5,-19.5 241.5,-0.5 164.5,-0.5"/>
<text text-anchor="middle" x="203" y="-7.5" font-family="Helvetica,sans-Serif" font-size="10.00">AstNodeBase</text>
</a>
</g>
</g>
<!-- Node2 -->
<g id="node2" class="node">
<title>Node2</title>
<g id="a_node2"><a xlink:title=" ">
<polygon fill="white" stroke="#bfbfbf" points="0,-78.5 0,-97.5 42,-97.5 42,-78.5 0,-78.5"/>
<text text-anchor="middle" x="21" y="-85.5" font-family="Helvetica,sans-Serif" font-size="10.00">String</text>
</a>
</g>
</g>
<!-- Node2&#45;&gt;Node1 -->
<g id="edge1" class="edge">
<title>Node2&#45;&gt;Node1</title>
<path fill="none" stroke="#9a32cd" stroke-dasharray="5,2" d="M32.37,-69.85C40.47,-59.02 52.31,-45.68 66,-38 96.34,-20.98 135.71,-14.56 164.46,-12.2"/>
<polygon fill="#9a32cd" stroke="#9a32cd" points="29.41,-67.98 26.5,-78.17 35.13,-72.02 29.41,-67.98"/>
<text text-anchor="middle" x="92" y="-52" font-family="Helvetica,sans-Serif" font-size="10.00"> MOD_AST</text>
<text text-anchor="middle" x="92" y="-41" font-family="Helvetica,sans-Serif" font-size="10.00">mod_</text>
</g>
<!-- Node3 -->
<g id="node3" class="node">
<title>Node3</title>
<g id="a_node3"><a xlink:title=" ">
<polygon fill="white" stroke="#bfbfbf" points="61.5,-78.5 61.5,-97.5 126.5,-97.5 126.5,-78.5 61.5,-78.5"/>
<text text-anchor="middle" x="94" y="-85.5" font-family="Helvetica,sans-Serif" font-size="10.00">TraceLevel</text>
</a>
</g>
</g>
<!-- Node3&#45;&gt;Node1 -->
<g id="edge2" class="edge">
<title>Node3&#45;&gt;Node1</title>
<path fill="none" stroke="#9a32cd" stroke-dasharray="5,2" d="M109.91,-71.17C120.67,-60.96 135.51,-47.81 150,-38 160.52,-30.88 173.16,-24.37 183.47,-19.53"/>
<polygon fill="#9a32cd" stroke="#9a32cd" points="107.3,-68.82 102.56,-78.29 112.17,-73.85 107.3,-68.82"/>
<text text-anchor="middle" x="162" y="-46.5" font-family="Helvetica,sans-Serif" font-size="10.00"> LOG</text>
</g>
<!-- Node4 -->
<g id="node4" class="node">
<title>Node4</title>
<g id="a_node4"><a xlink:title=" ">
<polygon fill="white" stroke="#bfbfbf" points="144.5,-78.5 144.5,-97.5 217.5,-97.5 217.5,-78.5 144.5,-78.5"/>
<text text-anchor="middle" x="181" y="-85.5" font-family="Helvetica,sans-Serif" font-size="10.00">static Report</text>
</a>
</g>
</g>
<!-- Node4&#45;&gt;Node1 -->
<g id="edge3" class="edge">
<title>Node4&#45;&gt;Node1</title>
<path fill="none" stroke="#9a32cd" stroke-dasharray="5,2" d="M178.65,-68.22C178.16,-58.89 178.6,-47.58 182,-38 184.46,-31.06 189.46,-24.51 193.97,-19.6"/>
<polygon fill="#9a32cd" stroke="#9a32cd" points="175.18,-68.75 179.58,-78.39 182.16,-68.11 175.18,-68.75"/>
<text text-anchor="middle" x="193" y="-46.5" font-family="Helvetica,sans-Serif" font-size="10.00"> repo</text>
</g>
<!-- Node5 -->
<g id="node5" class="node">
<title>Node5</title>
<g id="a_node5"><a xlink:title=" ">
<polygon fill="white" stroke="#bfbfbf" points="235.5,-78.5 235.5,-97.5 264.5,-97.5 264.5,-78.5 235.5,-78.5"/>
<text text-anchor="middle" x="250" y="-85.5" font-family="Helvetica,sans-Serif" font-size="10.00">int</text>
</a>
</g>
</g>
<!-- Node5&#45;&gt;Node1 -->
<g id="edge4" class="edge">
<title>Node5&#45;&gt;Node1</title>
<path fill="none" stroke="#9a32cd" stroke-dasharray="5,2" d="M234.96,-70.66C232.15,-67.26 229.36,-63.6 227,-60 218.27,-46.69 210.66,-29.75 206.46,-19.67"/>
<polygon fill="#9a32cd" stroke="#9a32cd" points="232.53,-73.2 241.74,-78.44 237.81,-68.6 232.53,-73.2"/>
<text text-anchor="middle" x="288.5" y="-52" font-family="Helvetica,sans-Serif" font-size="10.00"> BITMASK_PRINT_WIDTH</text>
<text text-anchor="middle" x="288.5" y="-41" font-family="Helvetica,sans-Serif" font-size="10.00">UNDEF</text>
</g>
<!-- Node6 -->
<g id="node6" class="node">
<title>Node6</title>
<g id="a_node6"><a xlink:href="interfacetype_1_1_typable.html" target="_top" xlink:title="抽象ノードがもつ関数型のインタフェース">
<polygon fill="white" stroke="black" points="347,-78.5 347,-97.5 397,-97.5 397,-78.5 347,-78.5"/>
<text text-anchor="middle" x="372" y="-85.5" font-family="Helvetica,sans-Serif" font-size="10.00">Typable</text>
</a>
</g>
</g>
<!-- Node6&#45;&gt;Node1 -->
<g id="edge5" class="edge">
<title>Node6&#45;&gt;Node1</title>
<path fill="none" stroke="#9a32cd" stroke-dasharray="5,2" d="M368.13,-68.3C364.99,-57.84 359.47,-45.43 350,-38 333.51,-25.07 279.33,-17.71 241.57,-14.03"/>
<polygon fill="#9a32cd" stroke="#9a32cd" points="364.79,-69.37 370.6,-78.22 371.58,-67.67 364.79,-69.37"/>
<text text-anchor="middle" x="379" y="-46.5" font-family="Helvetica,sans-Serif" font-size="10.00"> typing</text>
</g>
<!-- Node7 -->
<g id="node7" class="node">
<title>Node7</title>
<g id="a_node7"><a xlink:title=" ">
<polygon fill="white" stroke="#bfbfbf" points="415,-78.5 415,-97.5 465,-97.5 465,-78.5 415,-78.5"/>
<text text-anchor="middle" x="440" y="-85.5" font-family="Helvetica,sans-Serif" font-size="10.00">boolean</text>
</a>
</g>
</g>
<!-- Node7&#45;&gt;Node1 -->
<g id="edge6" class="edge">
<title>Node7&#45;&gt;Node1</title>
<path fill="none" stroke="#9a32cd" stroke-dasharray="5,2" d="M429.8,-69.64C422.41,-58.7 411.39,-45.31 398,-38 371.83,-23.71 290.73,-16.35 241.75,-13.12"/>
<polygon fill="#9a32cd" stroke="#9a32cd" points="427.03,-71.81 435.33,-78.4 432.96,-68.08 427.03,-71.81"/>
<text text-anchor="middle" x="458.5" y="-46.5" font-family="Helvetica,sans-Serif" font-size="10.00"> DEBUG_REPO</text>
</g>
</g>
</svg>
