<?xml version="1.0" encoding="UTF-8" standalone="no"?>
<!DOCTYPE svg PUBLIC "-//W3C//DTD SVG 1.1//EN"
 "http://www.w3.org/Graphics/SVG/1.1/DTD/svg11.dtd">
<!-- Generated by graphviz version 2.47.0 (20210316.0004)
 -->
<!-- Title: AstDataWriter Pages: 1 -->
<svg width="698pt" height="180pt"
 viewBox="0.00 0.00 698.00 180.00" xmlns="http://www.w3.org/2000/svg" xmlns:xlink="http://www.w3.org/1999/xlink">
<g id="graph0" class="graph" transform="scale(1 1) rotate(0) translate(4 176)">
<title>AstDataWriter</title>
<polygon fill="white" stroke="transparent" points="-4,4 -4,-176 694,-176 694,4 -4,4"/>
<!-- Node1 -->
<g id="node1" class="node">
<title>Node1</title>
<g id="a_node1"><a xlink:title="局所変数環境からの値を書き込むクラス">
<polygon fill="#bfbfbf" stroke="black" points="431,-76.5 431,-95.5 509,-95.5 509,-76.5 431,-76.5"/>
<text text-anchor="middle" x="470" y="-83.5" font-family="Helvetica,sans-Serif" font-size="10.00">AstDataWriter</text>
</a>
</g>
</g>
<!-- Node10 -->
<g id="node10" class="node">
<title>Node10</title>
<g id="a_node10"><a xlink:href="classast_1_1_ast_data_writer_1_1_writer_boolean.html" target="_top" xlink:title="ブール型の値をもつ局所変数">
<polygon fill="white" stroke="black" points="547,-152.5 547,-171.5 688,-171.5 688,-152.5 547,-152.5"/>
<text text-anchor="middle" x="617.5" y="-159.5" font-family="Helvetica,sans-Serif" font-size="10.00">AstDataWriter.WriterBoolean</text>
</a>
</g>
</g>
<!-- Node1&#45;&gt;Node10 -->
<g id="edge13" class="edge">
<title>Node1&#45;&gt;Node10</title>
<path fill="none" stroke="midnightblue" d="M488.16,-102.44C502.36,-115.2 523.6,-132.45 545,-143 552.72,-146.81 561.29,-149.92 569.75,-152.45"/>
<polygon fill="midnightblue" stroke="midnightblue" points="490.39,-99.73 480.66,-95.52 485.64,-104.88 490.39,-99.73"/>
</g>
<!-- Node11 -->
<g id="node11" class="node">
<title>Node11</title>
<g id="a_node11"><a xlink:href="classast_1_1_ast_data_writer_1_1_writer_double.html" target="_top" xlink:title="Double型の値をもつ局所変数">
<polygon fill="white" stroke="black" points="549,-114.5 549,-133.5 686,-133.5 686,-114.5 549,-114.5"/>
<text text-anchor="middle" x="617.5" y="-121.5" font-family="Helvetica,sans-Serif" font-size="10.00">AstDataWriter.WriterDouble</text>
</a>
</g>
</g>
<!-- Node1&#45;&gt;Node11 -->
<g id="edge14" class="edge">
<title>Node1&#45;&gt;Node11</title>
<path fill="none" stroke="midnightblue" d="M517.65,-98.18C537.85,-103.46 561.15,-109.54 580.05,-114.48"/>
<polygon fill="midnightblue" stroke="midnightblue" points="518.28,-94.73 507.72,-95.59 516.51,-101.5 518.28,-94.73"/>
</g>
<!-- Node12 -->
<g id="node12" class="node">
<title>Node12</title>
<g id="a_node12"><a xlink:href="classast_1_1_ast_data_writer_1_1_writer_integer.html" target="_top" xlink:title="Integer型の値をもつ局所変数">
<polygon fill="white" stroke="black" points="549.5,-76.5 549.5,-95.5 685.5,-95.5 685.5,-76.5 549.5,-76.5"/>
<text text-anchor="middle" x="617.5" y="-83.5" font-family="Helvetica,sans-Serif" font-size="10.00">AstDataWriter.WriterInteger</text>
</a>
</g>
</g>
<!-- Node1&#45;&gt;Node12 -->
<g id="edge15" class="edge">
<title>Node1&#45;&gt;Node12</title>
<path fill="none" stroke="midnightblue" d="M519.35,-86C528.94,-86 539.18,-86 549.27,-86"/>
<polygon fill="midnightblue" stroke="midnightblue" points="519.23,-82.5 509.23,-86 519.23,-89.5 519.23,-82.5"/>
</g>
<!-- Node13 -->
<g id="node13" class="node">
<title>Node13</title>
<g id="a_node13"><a xlink:href="classast_1_1_ast_data_writer_1_1_writer_o_stream.html" target="_top" xlink:title="String型の値をもつ局所変数">
<polygon fill="white" stroke="black" points="545,-38.5 545,-57.5 690,-57.5 690,-38.5 545,-38.5"/>
<text text-anchor="middle" x="617.5" y="-45.5" font-family="Helvetica,sans-Serif" font-size="10.00">AstDataWriter.WriterOStream</text>
</a>
</g>
</g>
<!-- Node1&#45;&gt;Node13 -->
<g id="edge16" class="edge">
<title>Node1&#45;&gt;Node13</title>
<path fill="none" stroke="midnightblue" d="M517.65,-73.82C537.85,-68.54 561.15,-62.46 580.05,-57.52"/>
<polygon fill="midnightblue" stroke="midnightblue" points="516.51,-70.5 507.72,-76.41 518.28,-77.27 516.51,-70.5"/>
</g>
<!-- Node14 -->
<g id="node14" class="node">
<title>Node14</title>
<g id="a_node14"><a xlink:href="classast_1_1_ast_data_writer_1_1_writer_string.html" target="_top" xlink:title="String型の値をもつ局所変数">
<polygon fill="white" stroke="black" points="552,-0.5 552,-19.5 683,-19.5 683,-0.5 552,-0.5"/>
<text text-anchor="middle" x="617.5" y="-7.5" font-family="Helvetica,sans-Serif" font-size="10.00">AstDataWriter.WriterString</text>
</a>
</g>
</g>
<!-- Node1&#45;&gt;Node14 -->
<g id="edge17" class="edge">
<title>Node1&#45;&gt;Node14</title>
<path fill="none" stroke="midnightblue" d="M488.16,-69.56C502.36,-56.8 523.6,-39.55 545,-29 552.72,-25.19 561.29,-22.08 569.75,-19.55"/>
<polygon fill="midnightblue" stroke="midnightblue" points="485.64,-67.12 480.66,-76.48 490.39,-72.27 485.64,-67.12"/>
</g>
<!-- Node2 -->
<g id="node2" class="node">
<title>Node2</title>
<g id="a_node2"><a xlink:href="classast_1_1_ast_node.html" target="_top" xlink:title="タグなしの順アクセスの子供をもてる抽象構文木のノードのクラス。">
<polygon fill="white" stroke="black" points="321.5,-95.5 321.5,-114.5 376.5,-114.5 376.5,-95.5 321.5,-95.5"/>
<text text-anchor="middle" x="349" y="-102.5" font-family="Helvetica,sans-Serif" font-size="10.00">AstNode</text>
</a>
</g>
</g>
<!-- Node2&#45;&gt;Node1 -->
<g id="edge1" class="edge">
<title>Node2&#45;&gt;Node1</title>
<path fill="none" stroke="midnightblue" d="M386.89,-99.11C400.79,-96.89 416.62,-94.36 430.65,-92.12"/>
<polygon fill="midnightblue" stroke="midnightblue" points="386.03,-95.7 376.71,-100.74 387.13,-102.62 386.03,-95.7"/>
</g>
<!-- Node3 -->
<g id="node3" class="node">
<title>Node3</title>
<g id="a_node3"><a xlink:href="classast_1_1_ast_node_base.html" target="_top" xlink:title=" ">
<polygon fill="white" stroke="black" points="150.5,-114.5 150.5,-133.5 227.5,-133.5 227.5,-114.5 150.5,-114.5"/>
<text text-anchor="middle" x="189" y="-121.5" font-family="Helvetica,sans-Serif" font-size="10.00">AstNodeBase</text>
</a>
</g>
</g>
<!-- Node3&#45;&gt;Node2 -->
<g id="edge2" class="edge">
<title>Node3&#45;&gt;Node2</title>
<path fill="none" stroke="midnightblue" d="M238.01,-118.23C265.36,-114.94 298.61,-110.94 321.34,-108.21"/>
<polygon fill="midnightblue" stroke="midnightblue" points="237.36,-114.78 227.84,-119.45 238.19,-121.73 237.36,-114.78"/>
</g>
<!-- Node4 -->
<g id="node4" class="node">
<title>Node4</title>
<g id="a_node4"><a xlink:href="interfaceast_1_1_node.html" target="_top" xlink:title=" ">
<polygon fill="white" stroke="black" points="169,-38.5 169,-57.5 209,-57.5 209,-38.5 169,-38.5"/>
<text text-anchor="middle" x="189" y="-45.5" font-family="Helvetica,sans-Serif" font-size="10.00">Node</text>
</a>
</g>
</g>
<!-- Node4&#45;&gt;Node2 -->
<g id="edge3" class="edge">
<title>Node4&#45;&gt;Node2</title>
<path fill="none" stroke="midnightblue" d="M219.07,-53.42C233.7,-56.59 251.57,-61.13 267,-67 283.91,-73.44 286.65,-78.25 303,-86 309.74,-89.2 317.17,-92.44 324.01,-95.32"/>
<polygon fill="midnightblue" stroke="midnightblue" points="219.56,-49.95 209.06,-51.36 218.15,-56.8 219.56,-49.95"/>
</g>
<!-- Node8 -->
<g id="node8" class="node">
<title>Node8</title>
<g id="a_node8"><a xlink:href="interfaceast_1_1_node_1_1_node_unary.html" target="_top" xlink:title="子供を一つだけもつノードのインタフェース">
<polygon fill="white" stroke="black" points="303,-57.5 303,-76.5 395,-76.5 395,-57.5 303,-57.5"/>
<text text-anchor="middle" x="349" y="-64.5" font-family="Helvetica,sans-Serif" font-size="10.00">Node.NodeUnary</text>
</a>
</g>
</g>
<!-- Node4&#45;&gt;Node8 -->
<g id="edge11" class="edge">
<title>Node4&#45;&gt;Node8</title>
<path fill="none" stroke="midnightblue" d="M219.06,-51.5C242.49,-54.31 275.84,-58.32 302.76,-61.56"/>
<polygon fill="midnightblue" stroke="midnightblue" points="219.4,-48.01 209.06,-50.29 218.57,-54.96 219.4,-48.01"/>
</g>
<!-- Node5 -->
<g id="node5" class="node">
<title>Node5</title>
<g id="a_node5"><a xlink:href="interfaceformat_1_1_x_formattable.html" target="_top" xlink:title="入れ子フォーマット出力可能なオブジェクトのインタフェース。">
<polygon fill="white" stroke="black" points="0,-76.5 0,-95.5 75,-95.5 75,-76.5 0,-76.5"/>
<text text-anchor="middle" x="37.5" y="-83.5" font-family="Helvetica,sans-Serif" font-size="10.00">XFormattable</text>
</a>
</g>
</g>
<!-- Node5&#45;&gt;Node4 -->
<g id="edge4" class="edge">
<title>Node5&#45;&gt;Node4</title>
<path fill="none" stroke="midnightblue" d="M84.38,-73.87C93.21,-71.57 102.39,-69.19 111,-67 130.75,-61.98 153.4,-56.41 168.99,-52.61"/>
<polygon fill="midnightblue" stroke="midnightblue" points="83.4,-70.51 74.61,-76.43 85.17,-77.28 83.4,-70.51"/>
</g>
<!-- Node6 -->
<g id="node6" class="node">
<title>Node6</title>
<g id="a_node6"><a xlink:href="interfaceformat_1_1_x_formattable_1_1_navigatable.html" target="_top" xlink:title="木構造の分岐ノードとして清書可能なオブジェクトのクラス">
<polygon fill="white" stroke="black" points="124,-152.5 124,-171.5 254,-171.5 254,-152.5 124,-152.5"/>
<text text-anchor="middle" x="189" y="-159.5" font-family="Helvetica,sans-Serif" font-size="10.00">XFormattable.Navigatable</text>
</a>
</g>
</g>
<!-- Node5&#45;&gt;Node6 -->
<g id="edge6" class="edge">
<title>Node5&#45;&gt;Node6</title>
<path fill="none" stroke="midnightblue" d="M55.2,-102.55C69.05,-115.38 89.83,-132.67 111,-143 118.92,-146.87 127.69,-149.99 136.39,-152.49"/>
<polygon fill="midnightblue" stroke="midnightblue" points="57.55,-99.96 47.9,-95.6 52.72,-105.03 57.55,-99.96"/>
</g>
<!-- Node7 -->
<g id="node7" class="node">
<title>Node7</title>
<g id="a_node7"><a xlink:href="interfaceformat_1_1_x_formattable_1_1_typed_formattable.html" target="_top" xlink:title="ノードの型情報をもつ書式出力可能なオブジェクトのインタフェース．">
<polygon fill="white" stroke="black" points="111,-76.5 111,-95.5 267,-95.5 267,-76.5 111,-76.5"/>
<text text-anchor="middle" x="189" y="-83.5" font-family="Helvetica,sans-Serif" font-size="10.00">XFormattable.TypedFormattable</text>
</a>
</g>
</g>
<!-- Node5&#45;&gt;Node7 -->
<g id="edge8" class="edge">
<title>Node5&#45;&gt;Node7</title>
<path fill="none" stroke="midnightblue" d="M85.13,-86C93.32,-86 102.03,-86 110.8,-86"/>
<polygon fill="midnightblue" stroke="midnightblue" points="85.07,-82.5 75.07,-86 85.07,-89.5 85.07,-82.5"/>
</g>
<!-- Node6&#45;&gt;Node1 -->
<g id="edge9" class="edge">
<title>Node6&#45;&gt;Node1</title>
<path fill="none" stroke="midnightblue" d="M264.12,-153.57C303.68,-147.75 352.77,-138.41 395,-124 416.32,-116.72 439.14,-104.2 453.71,-95.53"/>
<polygon fill="midnightblue" stroke="midnightblue" points="263.43,-150.13 254.02,-155.01 264.42,-157.06 263.43,-150.13"/>
</g>
<!-- Node6&#45;&gt;Node2 -->
<g id="edge5" class="edge">
<title>Node6&#45;&gt;Node2</title>
<path fill="none" stroke="midnightblue" d="M244.98,-149.84C252.45,-147.78 259.96,-145.49 267,-143 289.4,-135.07 313.96,-123.04 330.09,-114.65"/>
<polygon fill="midnightblue" stroke="midnightblue" points="244,-146.48 235.23,-152.42 245.79,-153.25 244,-146.48"/>
</g>
<!-- Node7&#45;&gt;Node2 -->
<g id="edge7" class="edge">
<title>Node7&#45;&gt;Node2</title>
<path fill="none" stroke="midnightblue" d="M277.16,-96.48C293.17,-98.41 308.73,-100.28 321.18,-101.77"/>
<polygon fill="midnightblue" stroke="midnightblue" points="277.49,-93 267.15,-95.28 276.66,-99.95 277.49,-93"/>
</g>
<!-- Node8&#45;&gt;Node1 -->
<g id="edge10" class="edge">
<title>Node8&#45;&gt;Node1</title>
<path fill="none" stroke="midnightblue" d="M405.33,-75.83C413.94,-77.21 422.66,-78.6 430.78,-79.9"/>
<polygon fill="midnightblue" stroke="midnightblue" points="405.76,-72.36 395.33,-74.24 404.65,-79.27 405.76,-72.36"/>
</g>
<!-- Node9 -->
<g id="node9" class="node">
<title>Node9</title>
<g id="a_node9"><a xlink:href="interfacemachine_1_1_data_accessor.html" target="_top" xlink:title="参照をもつデータ読み書きオブジェクトのインタフェース.">
<polygon fill="white" stroke="black" points="309.5,-19.5 309.5,-38.5 388.5,-38.5 388.5,-19.5 309.5,-19.5"/>
<text text-anchor="middle" x="349" y="-26.5" font-family="Helvetica,sans-Serif" font-size="10.00">DataAccessor</text>
</a>
</g>
</g>
<!-- Node9&#45;&gt;Node1 -->
<g id="edge12" class="edge">
<title>Node9&#45;&gt;Node1</title>
<path fill="none" stroke="midnightblue" d="M382.91,-42.56C387,-44.34 391.11,-46.18 395,-48 414.5,-57.11 436.37,-68.49 451.24,-76.41"/>
<polygon fill="midnightblue" stroke="midnightblue" points="384.07,-39.25 373.5,-38.53 381.32,-45.68 384.07,-39.25"/>
</g>
</g>
</svg>
