<?xml version="1.0" encoding="UTF-8" standalone="no"?>
<!DOCTYPE svg PUBLIC "-//W3C//DTD SVG 1.1//EN"
 "http://www.w3.org/Graphics/SVG/1.1/DTD/svg11.dtd">
<!-- Generated by graphviz version 2.47.1 (20210417.1919)
 -->
<!-- Title: PooledInputStream Pages: 1 -->
<svg width="627pt" height="340pt"
 viewBox="0.00 0.00 627.46 340.00" xmlns="http://www.w3.org/2000/svg" xmlns:xlink="http://www.w3.org/1999/xlink">
<g id="graph0" class="graph" transform="scale(1 1) rotate(0) translate(4 336)">
<title>PooledInputStream</title>
<polygon fill="white" stroke="transparent" points="-4,4 -4,-336 623.46,-336 623.46,4 -4,4"/>
<!-- Node1 -->
<g id="node1" class="node">
<title>Node1</title>
<g id="a_node1"><a xlink:title="論理位置アクセスによる再読み出しが可能なバッファつき入力ストリーム.">
<polygon fill="#bfbfbf" stroke="black" points="223.46,-0.5 223.46,-19.5 323.46,-19.5 323.46,-0.5 223.46,-0.5"/>
<text text-anchor="middle" x="273.46" y="-7.5" font-family="Helvetica,sans-Serif" font-size="10.00">PooledInputStream</text>
</a>
</g>
</g>
<!-- Node2 -->
<g id="node2" class="node">
<title>Node2</title>
<g id="a_node2"><a xlink:href="interfaceio_1_1_input_scannable.html" target="_top" xlink:title="部分文字列の抽出が可能な入力文字ストリームのインタフェース.">
<polygon fill="white" stroke="black" points="84.46,-118 84.46,-137 168.46,-137 168.46,-118 84.46,-118"/>
<text text-anchor="middle" x="126.46" y="-125" font-family="Helvetica,sans-Serif" font-size="10.00">InputScannable</text>
</a>
</g>
</g>
<!-- Node2&#45;&gt;Node1 -->
<g id="edge1" class="edge">
<title>Node2&#45;&gt;Node1</title>
<path fill="none" stroke="midnightblue" d="M138.72,-109.3C148.31,-96.62 162.5,-79.48 177.46,-67 201.77,-46.73 234.33,-29.45 254.6,-19.65"/>
<polygon fill="midnightblue" stroke="midnightblue" points="135.71,-107.49 132.6,-117.61 141.35,-111.64 135.71,-107.49"/>
</g>
<!-- Node3 -->
<g id="node3" class="node">
<title>Node3</title>
<g id="a_node3"><a xlink:title=" ">
<polygon fill="white" stroke="#bfbfbf" points="19.96,-312.5 19.96,-331.5 48.96,-331.5 48.96,-312.5 19.96,-312.5"/>
<text text-anchor="middle" x="34.46" y="-319.5" font-family="Helvetica,sans-Serif" font-size="10.00">int</text>
</a>
</g>
</g>
<!-- Node3&#45;&gt;Node1 -->
<g id="edge9" class="edge">
<title>Node3&#45;&gt;Node1</title>
<path fill="none" stroke="#9a32cd" stroke-dasharray="5,2" d="M27.25,-302.93C10.46,-257.59 -25.72,-137.61 30.46,-67 54.09,-37.32 159.24,-22.03 223.24,-15.34"/>
<polygon fill="#9a32cd" stroke="#9a32cd" points="24.01,-304.25 30.86,-312.33 30.54,-301.74 24.01,-304.25"/>
<text text-anchor="middle" x="52.96" y="-180" font-family="Helvetica,sans-Serif" font-size="10.00"> BLKSIZE</text>
<text text-anchor="middle" x="52.96" y="-169" font-family="Helvetica,sans-Serif" font-size="10.00">CR</text>
<text text-anchor="middle" x="52.96" y="-158" font-family="Helvetica,sans-Serif" font-size="10.00">EOF</text>
<text text-anchor="middle" x="52.96" y="-147" font-family="Helvetica,sans-Serif" font-size="10.00">LF</text>
<text text-anchor="middle" x="52.96" y="-136" font-family="Helvetica,sans-Serif" font-size="10.00">MAXBUF</text>
<text text-anchor="middle" x="52.96" y="-125" font-family="Helvetica,sans-Serif" font-size="10.00">_cur</text>
<text text-anchor="middle" x="52.96" y="-114" font-family="Helvetica,sans-Serif" font-size="10.00">_pos</text>
<text text-anchor="middle" x="52.96" y="-103" font-family="Helvetica,sans-Serif" font-size="10.00">_reset</text>
<text text-anchor="middle" x="52.96" y="-92" font-family="Helvetica,sans-Serif" font-size="10.00">_tail</text>
<text text-anchor="middle" x="52.96" y="-81" font-family="Helvetica,sans-Serif" font-size="10.00">cur</text>
<text text-anchor="middle" x="52.96" y="-70" font-family="Helvetica,sans-Serif" font-size="10.00">...</text>
</g>
<!-- Node3&#45;&gt;Node2 -->
<g id="edge2" class="edge">
<title>Node3&#45;&gt;Node2</title>
<path fill="none" stroke="#9a32cd" stroke-dasharray="5,2" d="M34.73,-302.38C35.76,-278.78 39.87,-237.4 55.46,-206 57.5,-201.89 100.11,-156.46 118.32,-137.13"/>
<polygon fill="#9a32cd" stroke="#9a32cd" points="31.23,-302.32 34.44,-312.42 38.23,-302.52 31.23,-302.32"/>
<text text-anchor="middle" x="67.46" y="-247.5" font-family="Helvetica,sans-Serif" font-size="10.00"> EOF</text>
</g>
<!-- Node4 -->
<g id="node4" class="node">
<title>Node4</title>
<g id="a_node4"><a xlink:title=" ">
<polygon fill="white" stroke="#bfbfbf" points="186.46,-118 186.46,-137 234.46,-137 234.46,-118 186.46,-118"/>
<text text-anchor="middle" x="210.46" y="-125" font-family="Helvetica,sans-Serif" font-size="10.00">Reader</text>
</a>
</g>
</g>
<!-- Node4&#45;&gt;Node1 -->
<g id="edge3" class="edge">
<title>Node4&#45;&gt;Node1</title>
<path fill="none" stroke="#9a32cd" stroke-dasharray="5,2" d="M219.9,-108.98C229.54,-91.1 244.97,-62.58 258.46,-38 261.87,-31.8 265.75,-24.81 268.71,-19.5"/>
<polygon fill="#9a32cd" stroke="#9a32cd" points="216.73,-107.48 215.07,-117.94 222.89,-110.8 216.73,-107.48"/>
<text text-anchor="middle" x="263.96" y="-41" font-family="Helvetica,sans-Serif" font-size="10.00"> in</text>
</g>
<!-- Node5 -->
<g id="node5" class="node">
<title>Node5</title>
<g id="a_node5"><a xlink:title=" ">
<polygon fill="white" stroke="#bfbfbf" points="252.96,-118 252.96,-137 293.96,-137 293.96,-118 252.96,-118"/>
<text text-anchor="middle" x="273.46" y="-125" font-family="Helvetica,sans-Serif" font-size="10.00">char[]</text>
</a>
</g>
</g>
<!-- Node5&#45;&gt;Node1 -->
<g id="edge4" class="edge">
<title>Node5&#45;&gt;Node1</title>
<path fill="none" stroke="#9a32cd" stroke-dasharray="5,2" d="M273.46,-107.66C273.46,-82.37 273.46,-38.44 273.46,-19.78"/>
<polygon fill="#9a32cd" stroke="#9a32cd" points="269.96,-107.82 273.46,-117.82 276.96,-107.82 269.96,-107.82"/>
<text text-anchor="middle" x="281.96" y="-41" font-family="Helvetica,sans-Serif" font-size="10.00"> buf</text>
</g>
<!-- Node6 -->
<g id="node6" class="node">
<title>Node6</title>
<g id="a_node6"><a xlink:href="classio_1_1_char_set.html" target="_top" xlink:title="EventReadableが用いる典型的な文字クラスを準備する．">
<polygon fill="white" stroke="black" points="311.96,-118 311.96,-137 364.96,-137 364.96,-118 311.96,-118"/>
<text text-anchor="middle" x="338.46" y="-125" font-family="Helvetica,sans-Serif" font-size="10.00">CharSet</text>
</a>
</g>
</g>
<!-- Node6&#45;&gt;Node1 -->
<g id="edge5" class="edge">
<title>Node6&#45;&gt;Node1</title>
<path fill="none" stroke="#9a32cd" stroke-dasharray="5,2" d="M330.78,-108.47C322.7,-90.18 309.12,-61.32 294.46,-38 290.42,-31.56 285.17,-24.81 280.93,-19.67"/>
<polygon fill="#9a32cd" stroke="#9a32cd" points="327.68,-110.12 334.88,-117.9 334.1,-107.33 327.68,-110.12"/>
<text text-anchor="middle" x="309.46" y="-41" font-family="Helvetica,sans-Serif" font-size="10.00"> CS</text>
</g>
<!-- Node7 -->
<g id="node7" class="node">
<title>Node7</title>
<g id="a_node7"><a xlink:title=" ">
<polygon fill="white" stroke="#bfbfbf" points="80.46,-312.5 80.46,-331.5 122.46,-331.5 122.46,-312.5 80.46,-312.5"/>
<text text-anchor="middle" x="101.46" y="-319.5" font-family="Helvetica,sans-Serif" font-size="10.00">String</text>
</a>
</g>
</g>
<!-- Node7&#45;&gt;Node6 -->
<g id="edge6" class="edge">
<title>Node7&#45;&gt;Node6</title>
<path fill="none" stroke="#9a32cd" stroke-dasharray="5,2" d="M96.47,-302.42C90.85,-276.92 85.49,-231.36 110.46,-206 140.53,-175.47 266.16,-210.77 302.46,-188 321.29,-176.2 331.65,-150.62 335.99,-137.17"/>
<polygon fill="#9a32cd" stroke="#9a32cd" points="93.11,-303.41 98.88,-312.3 99.91,-301.75 93.11,-303.41"/>
<text text-anchor="middle" x="160.46" y="-286" font-family="Helvetica,sans-Serif" font-size="10.00"> ALL_SET</text>
<text text-anchor="middle" x="160.46" y="-275" font-family="Helvetica,sans-Serif" font-size="10.00">DIGITS</text>
<text text-anchor="middle" x="160.46" y="-264" font-family="Helvetica,sans-Serif" font-size="10.00">LETTERS</text>
<text text-anchor="middle" x="160.46" y="-253" font-family="Helvetica,sans-Serif" font-size="10.00">NAMECHAR</text>
<text text-anchor="middle" x="160.46" y="-242" font-family="Helvetica,sans-Serif" font-size="10.00">NAMEINIT</text>
<text text-anchor="middle" x="160.46" y="-231" font-family="Helvetica,sans-Serif" font-size="10.00">OTHER_NAMECHAR</text>
<text text-anchor="middle" x="160.46" y="-220" font-family="Helvetica,sans-Serif" font-size="10.00">OTHER_NAMEINIT</text>
<text text-anchor="middle" x="160.46" y="-209" font-family="Helvetica,sans-Serif" font-size="10.00">WHITE_SPACE</text>
</g>
<!-- Node8 -->
<g id="node8" class="node">
<title>Node8</title>
<g id="a_node8"><a xlink:href="interfaceio_1_1_char_testable.html" target="_top" xlink:title=" ">
<polygon fill="white" stroke="black" points="187.46,-312.5 187.46,-331.5 261.46,-331.5 261.46,-312.5 187.46,-312.5"/>
<text text-anchor="middle" x="224.46" y="-319.5" font-family="Helvetica,sans-Serif" font-size="10.00">CharTestable</text>
</a>
</g>
</g>
<!-- Node8&#45;&gt;Node6 -->
<g id="edge7" class="edge">
<title>Node8&#45;&gt;Node6</title>
<path fill="none" stroke="#9a32cd" stroke-dasharray="5,2" d="M219.1,-302.32C213.17,-277.38 207.17,-233.22 229.46,-206 250.64,-180.15 275.55,-207.8 302.46,-188 320.16,-174.98 330.89,-150.4 335.62,-137.28"/>
<polygon fill="#9a32cd" stroke="#9a32cd" points="215.79,-303.5 221.71,-312.29 222.56,-301.73 215.79,-303.5"/>
<text text-anchor="middle" x="282.46" y="-258.5" font-family="Helvetica,sans-Serif" font-size="10.00"> MASK_NAMECHAR</text>
<text text-anchor="middle" x="282.46" y="-247.5" font-family="Helvetica,sans-Serif" font-size="10.00">MASK_NAMEINIT</text>
<text text-anchor="middle" x="282.46" y="-236.5" font-family="Helvetica,sans-Serif" font-size="10.00">MASK_WHITE_SPACE</text>
</g>
<!-- Node9 -->
<g id="node9" class="node">
<title>Node9</title>
<g id="a_node9"><a xlink:title=" ">
<polygon fill="white" stroke="#bfbfbf" points="382.46,-312.5 382.46,-331.5 432.46,-331.5 432.46,-312.5 382.46,-312.5"/>
<text text-anchor="middle" x="407.46" y="-319.5" font-family="Helvetica,sans-Serif" font-size="10.00">boolean</text>
</a>
</g>
</g>
<!-- Node9&#45;&gt;Node1 -->
<g id="edge11" class="edge">
<title>Node9&#45;&gt;Node1</title>
<path fill="none" stroke="#9a32cd" stroke-dasharray="5,2" d="M436.98,-306.88C441.6,-303.34 445.74,-299.06 448.46,-294 467.02,-259.57 458.04,-243.92 448.46,-206 431.27,-137.94 422.55,-117.19 373.46,-67 351.62,-44.67 318.96,-28.66 296.96,-19.63"/>
<polygon fill="#9a32cd" stroke="#9a32cd" points="434.83,-304.1 428.35,-312.49 438.64,-309.97 434.83,-304.1"/>
<text text-anchor="middle" x="478.96" y="-141.5" font-family="Helvetica,sans-Serif" font-size="10.00"> DEBUG</text>
<text text-anchor="middle" x="478.96" y="-130.5" font-family="Helvetica,sans-Serif" font-size="10.00">DEBUG_CHAR</text>
<text text-anchor="middle" x="478.96" y="-119.5" font-family="Helvetica,sans-Serif" font-size="10.00">DEBUG_POS</text>
<text text-anchor="middle" x="478.96" y="-108.5" font-family="Helvetica,sans-Serif" font-size="10.00">IsFirstRound</text>
</g>
<!-- Node9&#45;&gt;Node6 -->
<g id="edge8" class="edge">
<title>Node9&#45;&gt;Node6</title>
<path fill="none" stroke="#9a32cd" stroke-dasharray="5,2" d="M373.01,-309.76C365.82,-305.86 359.04,-300.72 354.46,-294 336.83,-268.12 337.6,-167.2 338.24,-137.05"/>
<polygon fill="#9a32cd" stroke="#9a32cd" points="371.66,-312.99 382.2,-314.06 374.62,-306.65 371.66,-312.99"/>
<text text-anchor="middle" x="401.46" y="-247.5" font-family="Helvetica,sans-Serif" font-size="10.00"> DEBUG_CHARSET</text>
</g>
<!-- Node10 -->
<g id="node10" class="node">
<title>Node10</title>
<g id="a_node10"><a xlink:title=" ">
<polygon fill="white" stroke="#bfbfbf" points="551.46,-118 551.46,-137 619.46,-137 619.46,-118 551.46,-118"/>
<text text-anchor="middle" x="585.46" y="-125" font-family="Helvetica,sans-Serif" font-size="10.00">StringBuffer</text>
</a>
</g>
</g>
<!-- Node10&#45;&gt;Node1 -->
<g id="edge10" class="edge">
<title>Node10&#45;&gt;Node1</title>
<path fill="none" stroke="#9a32cd" stroke-dasharray="5,2" d="M574.71,-109.32C565.94,-96.39 552.56,-78.91 537.46,-67 513.9,-48.41 505.25,-46.53 476.46,-38 425.67,-22.95 365.24,-16.28 323.59,-13.32"/>
<polygon fill="#9a32cd" stroke="#9a32cd" points="571.85,-111.34 580.24,-117.79 577.71,-107.51 571.85,-111.34"/>
<text text-anchor="middle" x="522.46" y="-41" font-family="Helvetica,sans-Serif" font-size="10.00"> gsbuf</text>
</g>
</g>
</svg>
