<?xml version="1.0" encoding="UTF-8" standalone="no"?>
<!DOCTYPE svg PUBLIC "-//W3C//DTD SVG 1.1//EN"
 "http://www.w3.org/Graphics/SVG/1.1/DTD/svg11.dtd">
<!-- Generated by graphviz version 2.47.0 (20210316.0004)
 -->
<!-- Title: AstLiteral.RegexLiteral Pages: 1 -->
<svg width="774pt" height="410pt"
 viewBox="0.00 0.00 774.00 410.00" xmlns="http://www.w3.org/2000/svg" xmlns:xlink="http://www.w3.org/1999/xlink">
<g id="graph0" class="graph" transform="scale(1 1) rotate(0) translate(4 406)">
<title>AstLiteral.RegexLiteral</title>
<polygon fill="white" stroke="transparent" points="-4,4 -4,-406 770,-406 770,4 -4,4"/>
<!-- Node1 -->
<g id="node1" class="node">
<title>Node1</title>
<g id="a_node1"><a xlink:title=" ">
<polygon fill="#bfbfbf" stroke="black" points="486.5,-0.5 486.5,-19.5 602.5,-19.5 602.5,-0.5 486.5,-0.5"/>
<text text-anchor="middle" x="544.5" y="-7.5" font-family="Helvetica,sans-Serif" font-size="10.00">AstLiteral.RegexLiteral</text>
</a>
</g>
</g>
<!-- Node2 -->
<g id="node2" class="node">
<title>Node2</title>
<g id="a_node2"><a xlink:href="classast_1_1_ast_literal_1_1_string_expr.html" target="_top" xlink:title="String値アトム">
<polygon fill="white" stroke="black" points="491,-57.5 491,-76.5 598,-76.5 598,-57.5 491,-57.5"/>
<text text-anchor="middle" x="544.5" y="-64.5" font-family="Helvetica,sans-Serif" font-size="10.00">AstLiteral.StringExpr</text>
</a>
</g>
</g>
<!-- Node2&#45;&gt;Node1 -->
<g id="edge1" class="edge">
<title>Node2&#45;&gt;Node1</title>
<path fill="none" stroke="midnightblue" d="M544.5,-47.12C544.5,-37.82 544.5,-27.06 544.5,-19.71"/>
<polygon fill="midnightblue" stroke="midnightblue" points="541,-47.41 544.5,-57.41 548,-47.41 541,-47.41"/>
</g>
<!-- Node3 -->
<g id="node3" class="node">
<title>Node3</title>
<g id="a_node3"><a xlink:href="classast_1_1_ast_literal.html" target="_top" xlink:title="値を返すことができる終端オブジェクトのクラス">
<polygon fill="white" stroke="black" points="224.5,-114.5 224.5,-133.5 282.5,-133.5 282.5,-114.5 224.5,-114.5"/>
<text text-anchor="middle" x="253.5" y="-121.5" font-family="Helvetica,sans-Serif" font-size="10.00">AstLiteral</text>
</a>
</g>
</g>
<!-- Node3&#45;&gt;Node2 -->
<g id="edge2" class="edge">
<title>Node3&#45;&gt;Node2</title>
<path fill="none" stroke="midnightblue" d="M292.57,-115.62C346.28,-105.46 442.72,-87.24 499.42,-76.52"/>
<polygon fill="midnightblue" stroke="midnightblue" points="291.91,-112.18 282.73,-117.47 293.21,-119.06 291.91,-112.18"/>
</g>
<!-- Node4 -->
<g id="node4" class="node">
<title>Node4</title>
<g id="a_node4"><a xlink:href="classast_1_1_ast_node.html" target="_top" xlink:title="タグなしの順アクセスの子供をもてる抽象構文木のノードのクラス。">
<polygon fill="white" stroke="black" points="226,-171.5 226,-190.5 281,-190.5 281,-171.5 226,-171.5"/>
<text text-anchor="middle" x="253.5" y="-178.5" font-family="Helvetica,sans-Serif" font-size="10.00">AstNode</text>
</a>
</g>
</g>
<!-- Node4&#45;&gt;Node3 -->
<g id="edge3" class="edge">
<title>Node4&#45;&gt;Node3</title>
<path fill="none" stroke="midnightblue" d="M253.5,-161.12C253.5,-151.82 253.5,-141.06 253.5,-133.71"/>
<polygon fill="midnightblue" stroke="midnightblue" points="250,-161.41 253.5,-171.41 257,-161.41 250,-161.41"/>
</g>
<!-- Node5 -->
<g id="node5" class="node">
<title>Node5</title>
<g id="a_node5"><a xlink:href="classast_1_1_ast_node_base.html" target="_top" xlink:title=" ">
<polygon fill="white" stroke="red" points="215,-238.5 215,-257.5 292,-257.5 292,-238.5 215,-238.5"/>
<text text-anchor="middle" x="253.5" y="-245.5" font-family="Helvetica,sans-Serif" font-size="10.00">AstNodeBase</text>
</a>
</g>
</g>
<!-- Node5&#45;&gt;Node4 -->
<g id="edge4" class="edge">
<title>Node5&#45;&gt;Node4</title>
<path fill="none" stroke="midnightblue" d="M253.5,-228.04C253.5,-215.67 253.5,-200.12 253.5,-190.63"/>
<polygon fill="midnightblue" stroke="midnightblue" points="250,-228.23 253.5,-238.23 257,-228.23 250,-228.23"/>
</g>
<!-- Node6 -->
<g id="node6" class="node">
<title>Node6</title>
<g id="a_node6"><a xlink:title=" ">
<polygon fill="white" stroke="#bfbfbf" points="232.5,-382.5 232.5,-401.5 274.5,-401.5 274.5,-382.5 232.5,-382.5"/>
<text text-anchor="middle" x="253.5" y="-389.5" font-family="Helvetica,sans-Serif" font-size="10.00">String</text>
</a>
</g>
</g>
<!-- Node6&#45;&gt;Node2 -->
<g id="edge15" class="edge">
<title>Node6&#45;&gt;Node2</title>
<path fill="none" stroke="#9a32cd" stroke-dasharray="5,2" d="M284.83,-386.49C377.28,-372.3 642.5,-324.98 642.5,-249 642.5,-249 642.5,-249 642.5,-123 642.5,-97.73 617.42,-83.96 592.64,-76.51"/>
<polygon fill="#9a32cd" stroke="#9a32cd" points="284.06,-383.06 274.69,-388.02 285.1,-389.99 284.06,-383.06"/>
<text text-anchor="middle" x="653.5" y="-178.5" font-family="Helvetica,sans-Serif" font-size="10.00"> sval</text>
</g>
<!-- Node6&#45;&gt;Node5 -->
<g id="edge5" class="edge">
<title>Node6&#45;&gt;Node5</title>
<path fill="none" stroke="#9a32cd" stroke-dasharray="5,2" d="M253.5,-372.11C253.5,-340.93 253.5,-279.93 253.5,-257.52"/>
<polygon fill="#9a32cd" stroke="#9a32cd" points="250,-372.12 253.5,-382.12 257,-372.12 250,-372.12"/>
<text text-anchor="middle" x="279.5" y="-323" font-family="Helvetica,sans-Serif" font-size="10.00"> MOD_AST</text>
<text text-anchor="middle" x="279.5" y="-312" font-family="Helvetica,sans-Serif" font-size="10.00">mod_</text>
</g>
<!-- Node16 -->
<g id="node10" class="node">
<title>Node16</title>
<g id="a_node10"><a xlink:href="classformat_1_1_style.html" target="_top" xlink:title="ノードの表示スタイルに関するプロパティのクラス.">
<polygon fill="white" stroke="red" points="158,-238.5 158,-257.5 197,-257.5 197,-238.5 158,-238.5"/>
<text text-anchor="middle" x="177.5" y="-245.5" font-family="Helvetica,sans-Serif" font-size="10.00">Style</text>
</a>
</g>
</g>
<!-- Node6&#45;&gt;Node16 -->
<g id="edge10" class="edge">
<title>Node6&#45;&gt;Node16</title>
<path fill="none" stroke="#9a32cd" stroke-dasharray="5,2" d="M222.68,-382.29C213.28,-378.19 203.78,-372.31 197.5,-364 172.71,-331.17 174.66,-278.1 176.53,-257.53"/>
<polygon fill="#9a32cd" stroke="#9a32cd" points="221.71,-385.67 232.3,-385.95 224.2,-379.13 221.71,-385.67"/>
<text text-anchor="middle" x="223.5" y="-356" font-family="Helvetica,sans-Serif" font-size="10.00"> childLPAD</text>
<text text-anchor="middle" x="223.5" y="-345" font-family="Helvetica,sans-Serif" font-size="10.00">childRPAD</text>
<text text-anchor="middle" x="223.5" y="-334" font-family="Helvetica,sans-Serif" font-size="10.00">name</text>
<text text-anchor="middle" x="223.5" y="-323" font-family="Helvetica,sans-Serif" font-size="10.00">operSTR</text>
<text text-anchor="middle" x="223.5" y="-312" font-family="Helvetica,sans-Serif" font-size="10.00">parenLPAD</text>
<text text-anchor="middle" x="223.5" y="-301" font-family="Helvetica,sans-Serif" font-size="10.00">parenLPAR</text>
<text text-anchor="middle" x="223.5" y="-290" font-family="Helvetica,sans-Serif" font-size="10.00">parenRPAD</text>
<text text-anchor="middle" x="223.5" y="-279" font-family="Helvetica,sans-Serif" font-size="10.00">parenRPAR</text>
</g>
<!-- Node12 -->
<g id="node7" class="node">
<title>Node12</title>
<g id="a_node7"><a xlink:href="interfaceformat_1_1_x_formattable_1_1_navigatable.html" target="_top" xlink:title="木構造の分岐ノードとして清書可能なオブジェクトのクラス">
<polygon fill="white" stroke="red" points="310.5,-238.5 310.5,-257.5 440.5,-257.5 440.5,-238.5 310.5,-238.5"/>
<text text-anchor="middle" x="375.5" y="-245.5" font-family="Helvetica,sans-Serif" font-size="10.00">XFormattable.Navigatable</text>
</a>
</g>
</g>
<!-- Node12&#45;&gt;Node4 -->
<g id="edge6" class="edge">
<title>Node12&#45;&gt;Node4</title>
<path fill="none" stroke="midnightblue" d="M350.36,-233.6C326.19,-220.73 290.4,-201.66 269.77,-190.67"/>
<polygon fill="midnightblue" stroke="midnightblue" points="348.83,-236.76 359.3,-238.37 352.12,-230.58 348.83,-236.76"/>
</g>
<!-- Node14 -->
<g id="node8" class="node">
<title>Node14</title>
<g id="a_node8"><a xlink:href="interfaceformat_1_1_x_formattable_1_1_typed_formattable.html" target="_top" xlink:title="ノードの型情報をもつ書式出力可能なオブジェクトのインタフェース．">
<polygon fill="white" stroke="red" points="458.5,-238.5 458.5,-257.5 614.5,-257.5 614.5,-238.5 458.5,-238.5"/>
<text text-anchor="middle" x="536.5" y="-245.5" font-family="Helvetica,sans-Serif" font-size="10.00">XFormattable.TypedFormattable</text>
</a>
</g>
</g>
<!-- Node14&#45;&gt;Node4 -->
<g id="edge7" class="edge">
<title>Node14&#45;&gt;Node4</title>
<path fill="none" stroke="midnightblue" d="M489.31,-236.16C429.79,-222.49 329.39,-199.43 281.09,-188.34"/>
<polygon fill="midnightblue" stroke="midnightblue" points="488.68,-239.61 499.21,-238.44 490.25,-232.79 488.68,-239.61"/>
</g>
<!-- Node15 -->
<g id="node9" class="node">
<title>Node15</title>
<g id="a_node9"><a xlink:title=" ">
<polygon fill="white" stroke="#bfbfbf" points="87.5,-238.5 87.5,-257.5 139.5,-257.5 139.5,-238.5 87.5,-238.5"/>
<text text-anchor="middle" x="113.5" y="-245.5" font-family="Helvetica,sans-Serif" font-size="10.00">Boolean</text>
</a>
</g>
</g>
<!-- Node15&#45;&gt;Node4 -->
<g id="edge8" class="edge">
<title>Node15&#45;&gt;Node4</title>
<path fill="none" stroke="#9a32cd" stroke-dasharray="5,2" d="M118.35,-228.68C121.1,-221.56 125.29,-213.95 131.5,-209 135.21,-206.04 190.86,-194.51 225.7,-187.51"/>
<polygon fill="#9a32cd" stroke="#9a32cd" points="114.96,-227.78 115.26,-238.37 121.63,-229.91 114.96,-227.78"/>
<text text-anchor="middle" x="169.5" y="-212" font-family="Helvetica,sans-Serif" font-size="10.00"> DEBUG_CHILD</text>
</g>
<!-- Node16&#45;&gt;Node4 -->
<g id="edge9" class="edge">
<title>Node16&#45;&gt;Node4</title>
<path fill="none" stroke="#9a32cd" stroke-dasharray="5,2" d="M195.37,-231.71C210.35,-218.91 231.18,-201.09 243.41,-190.63"/>
<polygon fill="#9a32cd" stroke="#9a32cd" points="193.07,-229.07 187.75,-238.23 197.62,-234.39 193.07,-229.07"/>
<text text-anchor="middle" x="229" y="-212" font-family="Helvetica,sans-Serif" font-size="10.00"> sty</text>
</g>
<!-- Node17 -->
<g id="node11" class="node">
<title>Node17</title>
<g id="a_node11"><a xlink:href="interfacecmd_1_1_generatable_1_1_evaluatable.html" target="_top" xlink:title="評価して値を返すノードのインタフェース．必ずしもコードを生成しなくても良い．">
<polygon fill="white" stroke="black" points="77,-171.5 77,-190.5 200,-190.5 200,-171.5 77,-171.5"/>
<text text-anchor="middle" x="138.5" y="-178.5" font-family="Helvetica,sans-Serif" font-size="10.00">Generatable.Evaluatable</text>
</a>
</g>
</g>
<!-- Node17&#45;&gt;Node3 -->
<g id="edge11" class="edge">
<title>Node17&#45;&gt;Node3</title>
<path fill="none" stroke="midnightblue" d="M165.77,-166.96C187.39,-156.62 216.97,-142.47 235.66,-133.53"/>
<polygon fill="midnightblue" stroke="midnightblue" points="163.98,-163.93 156.47,-171.41 167,-170.25 163.98,-163.93"/>
</g>
<!-- Node18 -->
<g id="node12" class="node">
<title>Node18</title>
<g id="a_node12"><a xlink:href="interfacecmd_1_1_generatable.html" target="_top" xlink:title="変換してコードを生成できるノードのインタフェース.">
<polygon fill="white" stroke="black" points="0,-238.5 0,-257.5 69,-257.5 69,-238.5 0,-238.5"/>
<text text-anchor="middle" x="34.5" y="-245.5" font-family="Helvetica,sans-Serif" font-size="10.00">Generatable</text>
</a>
</g>
</g>
<!-- Node18&#45;&gt;Node2 -->
<g id="edge14" class="edge">
<title>Node18&#45;&gt;Node2</title>
<path fill="none" stroke="midnightblue" d="M38.27,-228.33C42.61,-211.31 51.32,-186.52 67.5,-171 118.38,-122.22 147.26,-131.66 215.5,-114 310.7,-89.36 425.03,-77.14 490.77,-71.72"/>
<polygon fill="midnightblue" stroke="midnightblue" points="34.83,-227.69 36.02,-238.22 41.65,-229.25 34.83,-227.69"/>
</g>
<!-- Node18&#45;&gt;Node17 -->
<g id="edge12" class="edge">
<title>Node18&#45;&gt;Node17</title>
<path fill="none" stroke="midnightblue" d="M55.31,-232.64C66.02,-225.38 79.34,-216.54 91.5,-209 101.9,-202.56 113.86,-195.69 123.11,-190.5"/>
<polygon fill="midnightblue" stroke="midnightblue" points="53.31,-229.77 47.02,-238.3 57.25,-235.56 53.31,-229.77"/>
</g>
<!-- Node19 -->
<g id="node13" class="node">
<title>Node19</title>
<g id="a_node13"><a xlink:href="class_typed_formattable.html" target="_top" xlink:title=" ">
<polygon fill="white" stroke="black" points="671,-114.5 671,-133.5 766,-133.5 766,-114.5 671,-114.5"/>
<text text-anchor="middle" x="718.5" y="-121.5" font-family="Helvetica,sans-Serif" font-size="10.00">TypedFormattable</text>
</a>
</g>
</g>
<!-- Node19&#45;&gt;Node2 -->
<g id="edge13" class="edge">
<title>Node19&#45;&gt;Node2</title>
<path fill="none" stroke="midnightblue" d="M692.71,-110.04C681.74,-104.88 668.68,-99.18 656.5,-95 634.36,-87.41 609.07,-81.12 588.12,-76.52"/>
<polygon fill="midnightblue" stroke="midnightblue" points="691.21,-113.21 701.74,-114.4 694.25,-106.9 691.21,-113.21"/>
</g>
</g>
</svg>
