<?xml version="1.0" encoding="UTF-8" standalone="no"?>
<!DOCTYPE svg PUBLIC "-//W3C//DTD SVG 1.1//EN"
 "http://www.w3.org/Graphics/SVG/1.1/DTD/svg11.dtd">
<!-- Generated by graphviz version 2.47.1 (20210417.1919)
 -->
<!-- Title: AstLet Pages: 1 -->
<svg width="918pt" height="645pt"
 viewBox="0.00 0.00 918.00 644.50" xmlns="http://www.w3.org/2000/svg" xmlns:xlink="http://www.w3.org/1999/xlink">
<g id="graph0" class="graph" transform="scale(1 1) rotate(0) translate(4 640.5)">
<title>AstLet</title>
<polygon fill="white" stroke="transparent" points="-4,4 -4,-640.5 914,-640.5 914,4 -4,4"/>
<!-- Node1 -->
<g id="node1" class="node">
<title>Node1</title>
<g id="a_node1"><a xlink:title="とりあえず任意の文をラップして，ブール値を与えるためのノード">
<polygon fill="#bfbfbf" stroke="black" points="865,-143.5 865,-162.5 910,-162.5 910,-143.5 865,-143.5"/>
<text text-anchor="middle" x="887.5" y="-150.5" font-family="Helvetica,sans-Serif" font-size="10.00">AstLet</text>
</a>
</g>
</g>
<!-- Node2 -->
<g id="node2" class="node">
<title>Node2</title>
<g id="a_node2"><a xlink:href="classast_1_1_ast_node_named.html" target="_top" xlink:title="タグ付きの子をもつノードのクラス．利用者は自前で，追加する子のField名と，Getter，型を設定する．読み出しは子の添字でも行える．">
<polygon fill="white" stroke="black" points="742,-341.5 742,-360.5 828,-360.5 828,-341.5 742,-341.5"/>
<text text-anchor="middle" x="785" y="-348.5" font-family="Helvetica,sans-Serif" font-size="10.00">AstNodeNamed</text>
</a>
</g>
</g>
<!-- Node2&#45;&gt;Node1 -->
<g id="edge1" class="edge">
<title>Node2&#45;&gt;Node1</title>
<path fill="none" stroke="midnightblue" d="M795.5,-332.28C816.37,-291.17 865.58,-194.21 881.46,-162.92"/>
<polygon fill="midnightblue" stroke="midnightblue" points="792.25,-330.95 790.85,-341.45 798.49,-334.12 792.25,-330.95"/>
</g>
<!-- Node3 -->
<g id="node3" class="node">
<title>Node3</title>
<g id="a_node3"><a xlink:href="classast_1_1_ast_node.html" target="_top" xlink:title="タグなしの順アクセスの子供をもてる抽象構文木のノードのクラス。">
<polygon fill="white" stroke="black" points="543,-428.5 543,-447.5 598,-447.5 598,-428.5 543,-428.5"/>
<text text-anchor="middle" x="570.5" y="-435.5" font-family="Helvetica,sans-Serif" font-size="10.00">AstNode</text>
</a>
</g>
</g>
<!-- Node3&#45;&gt;Node2 -->
<g id="edge2" class="edge">
<title>Node3&#45;&gt;Node2</title>
<path fill="none" stroke="midnightblue" d="M604.57,-424.46C647.9,-406.72 722.81,-376.05 760.67,-360.55"/>
<polygon fill="midnightblue" stroke="midnightblue" points="602.98,-421.33 595.05,-428.36 605.63,-427.81 602.98,-421.33"/>
</g>
<!-- Node4 -->
<g id="node4" class="node">
<title>Node4</title>
<g id="a_node4"><a xlink:href="classast_1_1_ast_node_base.html" target="_top" xlink:title=" ">
<polygon fill="white" stroke="black" points="271.5,-415.5 271.5,-434.5 348.5,-434.5 348.5,-415.5 271.5,-415.5"/>
<text text-anchor="middle" x="310" y="-422.5" font-family="Helvetica,sans-Serif" font-size="10.00">AstNodeBase</text>
</a>
</g>
</g>
<!-- Node4&#45;&gt;Node3 -->
<g id="edge3" class="edge">
<title>Node4&#45;&gt;Node3</title>
<path fill="none" stroke="midnightblue" d="M358.65,-427.4C412.87,-430.12 499.5,-434.48 542.9,-436.66"/>
<polygon fill="midnightblue" stroke="midnightblue" points="358.75,-423.9 348.59,-426.89 358.4,-430.89 358.75,-423.9"/>
</g>
<!-- Node5 -->
<g id="node5" class="node">
<title>Node5</title>
<g id="a_node5"><a xlink:title=" ">
<polygon fill="white" stroke="#bfbfbf" points="20.5,-377.5 20.5,-396.5 62.5,-396.5 62.5,-377.5 20.5,-377.5"/>
<text text-anchor="middle" x="41.5" y="-384.5" font-family="Helvetica,sans-Serif" font-size="10.00">String</text>
</a>
</g>
</g>
<!-- Node5&#45;&gt;Node4 -->
<g id="edge4" class="edge">
<title>Node5&#45;&gt;Node4</title>
<path fill="none" stroke="#9a32cd" stroke-dasharray="5,2" d="M62.91,-402.32C73.65,-409.45 87.39,-417.19 101,-421 158.74,-437.16 229.05,-434.04 271.36,-429.86"/>
<polygon fill="#9a32cd" stroke="#9a32cd" points="64.87,-399.42 54.66,-396.57 60.87,-405.16 64.87,-399.42"/>
<text text-anchor="middle" x="162.5" y="-447" font-family="Helvetica,sans-Serif" font-size="10.00"> MOD_AST</text>
<text text-anchor="middle" x="162.5" y="-436" font-family="Helvetica,sans-Serif" font-size="10.00">mod_</text>
</g>
<!-- Node18 -->
<g id="node18" class="node">
<title>Node18</title>
<g id="a_node18"><a xlink:href="classformat_1_1_style.html" target="_top" xlink:title="ノードの表示スタイルに関するプロパティのクラス.">
<polygon fill="white" stroke="black" points="290.5,-377.5 290.5,-396.5 329.5,-396.5 329.5,-377.5 290.5,-377.5"/>
<text text-anchor="middle" x="310" y="-384.5" font-family="Helvetica,sans-Serif" font-size="10.00">Style</text>
</a>
</g>
</g>
<!-- Node5&#45;&gt;Node18 -->
<g id="edge19" class="edge">
<title>Node5&#45;&gt;Node18</title>
<path fill="none" stroke="#9a32cd" stroke-dasharray="5,2" d="M72.77,-387C128.24,-387 244.64,-387 290.17,-387"/>
<polygon fill="#9a32cd" stroke="#9a32cd" points="72.53,-383.5 62.53,-387 72.53,-390.5 72.53,-383.5"/>
<text text-anchor="middle" x="162.5" y="-412" font-family="Helvetica,sans-Serif" font-size="10.00"> operSTR</text>
<text text-anchor="middle" x="162.5" y="-401" font-family="Helvetica,sans-Serif" font-size="10.00">parenLPAR</text>
<text text-anchor="middle" x="162.5" y="-390" font-family="Helvetica,sans-Serif" font-size="10.00">parenRPAR</text>
</g>
<!-- Node21 -->
<g id="node21" class="node">
<title>Node21</title>
<g id="a_node21"><a xlink:href="enumtype_1_1_x_type.html" target="_top" xlink:title="式がもつ値の型のクラス．Kotlin言語の型システムを参考にしている． 次の型をもつ．">
<polygon fill="white" stroke="black" points="288,-100.5 288,-119.5 332,-119.5 332,-100.5 288,-100.5"/>
<text text-anchor="middle" x="310" y="-107.5" font-family="Helvetica,sans-Serif" font-size="10.00">XType</text>
</a>
</g>
</g>
<!-- Node5&#45;&gt;Node21 -->
<g id="edge24" class="edge">
<title>Node5&#45;&gt;Node21</title>
<path fill="none" stroke="#9a32cd" stroke-dasharray="5,2" d="M43.88,-367.15C47.35,-333.6 59.39,-265.94 101,-231 143.59,-195.24 175.75,-235.66 224,-208 262.49,-185.93 292.08,-139.79 303.67,-119.7"/>
<polygon fill="#9a32cd" stroke="#9a32cd" points="40.36,-367.22 42.98,-377.48 47.34,-367.82 40.36,-367.22"/>
<text text-anchor="middle" x="162.5" y="-256" font-family="Helvetica,sans-Serif" font-size="10.00"> name</text>
<text text-anchor="middle" x="162.5" y="-245" font-family="Helvetica,sans-Serif" font-size="10.00">nickname</text>
<text text-anchor="middle" x="162.5" y="-234" font-family="Helvetica,sans-Serif" font-size="10.00">prefix</text>
</g>
<!-- Node6 -->
<g id="node6" class="node">
<title>Node6</title>
<g id="a_node6"><a xlink:title=" ">
<polygon fill="white" stroke="#bfbfbf" points="0,-550.5 0,-569.5 83,-569.5 83,-550.5 0,-550.5"/>
<text text-anchor="middle" x="41.5" y="-557.5" font-family="Helvetica,sans-Serif" font-size="10.00">static ReportKt</text>
</a>
</g>
</g>
<!-- Node6&#45;&gt;Node4 -->
<g id="edge5" class="edge">
<title>Node6&#45;&gt;Node4</title>
<path fill="none" stroke="#9a32cd" stroke-dasharray="5,2" d="M93.43,-555.71C143.76,-551 214.59,-542.9 224,-534 253.63,-505.96 214.32,-473.96 242,-444 249.63,-435.74 260.56,-430.98 271.38,-428.26"/>
<polygon fill="#9a32cd" stroke="#9a32cd" points="92.98,-552.24 83.34,-556.64 93.62,-559.21 92.98,-552.24"/>
<text text-anchor="middle" x="162.5" y="-557" font-family="Helvetica,sans-Serif" font-size="10.00"> repo</text>
</g>
<!-- Node7 -->
<g id="node7" class="node">
<title>Node7</title>
<g id="a_node7"><a xlink:title=" ">
<polygon fill="white" stroke="#bfbfbf" points="9,-512.5 9,-531.5 74,-531.5 74,-512.5 9,-512.5"/>
<text text-anchor="middle" x="41.5" y="-519.5" font-family="Helvetica,sans-Serif" font-size="10.00">TraceLevel</text>
</a>
</g>
</g>
<!-- Node7&#45;&gt;Node4 -->
<g id="edge6" class="edge">
<title>Node7&#45;&gt;Node4</title>
<path fill="none" stroke="#9a32cd" stroke-dasharray="5,2" d="M84.19,-521.75C131.06,-520.63 203.34,-516.06 224,-499 243.83,-482.62 223.45,-461.82 242,-444 249.93,-436.38 260.69,-431.77 271.27,-429"/>
<polygon fill="#9a32cd" stroke="#9a32cd" points="83.95,-518.26 74.02,-521.95 84.09,-525.26 83.95,-518.26"/>
<text text-anchor="middle" x="162.5" y="-524" font-family="Helvetica,sans-Serif" font-size="10.00"> LOG</text>
</g>
<!-- Node8 -->
<g id="node8" class="node">
<title>Node8</title>
<g id="a_node8"><a xlink:title=" ">
<polygon fill="white" stroke="#bfbfbf" points="27,-116.5 27,-135.5 56,-135.5 56,-116.5 27,-116.5"/>
<text text-anchor="middle" x="41.5" y="-123.5" font-family="Helvetica,sans-Serif" font-size="10.00">int</text>
</a>
</g>
</g>
<!-- Node8&#45;&gt;Node1 -->
<g id="edge29" class="edge">
<title>Node8&#45;&gt;Node1</title>
<path fill="none" stroke="#9a32cd" stroke-dasharray="5,2" d="M64.7,-113.52C70.91,-109.56 77.47,-104.93 83,-100 92.43,-91.59 90,-84.21 101,-78 182.33,-32.07 215.6,-48 309,-48 309,-48 309,-48 786,-48 838.49,-48 872.03,-117.32 882.76,-143.31"/>
<polygon fill="#9a32cd" stroke="#9a32cd" points="62.75,-110.6 56.01,-118.77 66.37,-116.59 62.75,-110.6"/>
<text text-anchor="middle" x="570.5" y="-62" font-family="Helvetica,sans-Serif" font-size="10.00"> IDX_SENT</text>
<text text-anchor="middle" x="570.5" y="-51" font-family="Helvetica,sans-Serif" font-size="10.00">IDX_TERM</text>
</g>
<!-- Node8&#45;&gt;Node4 -->
<g id="edge7" class="edge">
<title>Node8&#45;&gt;Node4</title>
<path fill="none" stroke="#9a32cd" stroke-dasharray="5,2" d="M63.55,-142.18C70.78,-148.8 78.25,-157.02 83,-166 103.71,-205.14 69.25,-233.13 101,-264 140.66,-302.55 185.04,-243.73 224,-283 262.91,-322.22 205.57,-364.46 242,-406 249.49,-414.55 260.52,-419.38 271.47,-422.07"/>
<polygon fill="#9a32cd" stroke="#9a32cd" points="65.8,-139.5 55.93,-135.66 61.25,-144.82 65.8,-139.5"/>
<text text-anchor="middle" x="162.5" y="-319" font-family="Helvetica,sans-Serif" font-size="10.00"> BITMASK_PRINT_WIDTH</text>
<text text-anchor="middle" x="162.5" y="-308" font-family="Helvetica,sans-Serif" font-size="10.00">UNDEF</text>
<text text-anchor="middle" x="162.5" y="-297" font-family="Helvetica,sans-Serif" font-size="10.00">id_</text>
<text text-anchor="middle" x="162.5" y="-286" font-family="Helvetica,sans-Serif" font-size="10.00">numInstances</text>
</g>
<!-- Node8&#45;&gt;Node21 -->
<g id="edge25" class="edge">
<title>Node8&#45;&gt;Node21</title>
<path fill="none" stroke="#9a32cd" stroke-dasharray="5,2" d="M66.21,-124.58C117.6,-121.49 238.54,-114.23 287.68,-111.28"/>
<polygon fill="#9a32cd" stroke="#9a32cd" points="65.85,-121.09 56.08,-125.18 66.27,-128.08 65.85,-121.09"/>
<text text-anchor="middle" x="162.5" y="-126" font-family="Helvetica,sans-Serif" font-size="10.00"> FLAG_WIDTH</text>
</g>
<!-- Node9 -->
<g id="node9" class="node">
<title>Node9</title>
<g id="a_node9"><a xlink:href="interfacetype_1_1_typable.html" target="_top" xlink:title="抽象ノードがもつ関数型のインタフェース">
<polygon fill="white" stroke="black" points="16.5,-474.5 16.5,-493.5 66.5,-493.5 66.5,-474.5 16.5,-474.5"/>
<text text-anchor="middle" x="41.5" y="-481.5" font-family="Helvetica,sans-Serif" font-size="10.00">Typable</text>
</a>
</g>
</g>
<!-- Node9&#45;&gt;Node4 -->
<g id="edge8" class="edge">
<title>Node9&#45;&gt;Node4</title>
<path fill="none" stroke="#9a32cd" stroke-dasharray="5,2" d="M76.98,-484.8C114.66,-484.44 176.07,-480.17 224,-459 233.53,-454.79 232.79,-448.86 242,-444 251.09,-439.2 261.53,-435.5 271.42,-432.69"/>
<polygon fill="#9a32cd" stroke="#9a32cd" points="76.54,-481.3 66.55,-484.81 76.55,-488.3 76.54,-481.3"/>
<text text-anchor="middle" x="162.5" y="-487" font-family="Helvetica,sans-Serif" font-size="10.00"> typing</text>
</g>
<!-- Node10 -->
<g id="node10" class="node">
<title>Node10</title>
<g id="a_node10"><a xlink:title=" ">
<polygon fill="white" stroke="#bfbfbf" points="16.5,-175.5 16.5,-194.5 66.5,-194.5 66.5,-175.5 16.5,-175.5"/>
<text text-anchor="middle" x="41.5" y="-182.5" font-family="Helvetica,sans-Serif" font-size="10.00">boolean</text>
</a>
</g>
</g>
<!-- Node10&#45;&gt;Node1 -->
<g id="edge30" class="edge">
<title>Node10&#45;&gt;Node1</title>
<path fill="none" stroke="#9a32cd" stroke-dasharray="5,2" d="M76.47,-174.89C84.45,-172.91 92.97,-171.1 101,-170 401.34,-128.8 772.23,-146.32 864.8,-151.66"/>
<polygon fill="#9a32cd" stroke="#9a32cd" points="75.51,-171.52 66.73,-177.46 77.29,-178.29 75.51,-171.52"/>
<text text-anchor="middle" x="570.5" y="-148" font-family="Helvetica,sans-Serif" font-size="10.00"> DEBUG_LET</text>
</g>
<!-- Node10&#45;&gt;Node4 -->
<g id="edge9" class="edge">
<title>Node10&#45;&gt;Node4</title>
<path fill="none" stroke="#9a32cd" stroke-dasharray="5,2" d="M45.07,-204.79C50.15,-235.96 64.36,-296.47 101,-331 142.94,-370.52 180.03,-334.75 224,-372 237.05,-383.05 228.71,-395.25 242,-406 250.37,-412.77 261.01,-417.13 271.34,-419.93"/>
<polygon fill="#9a32cd" stroke="#9a32cd" points="48.51,-204.12 43.59,-194.74 41.59,-205.14 48.51,-204.12"/>
<text text-anchor="middle" x="162.5" y="-375" font-family="Helvetica,sans-Serif" font-size="10.00"> DEBUG_REPO</text>
</g>
<!-- Node10&#45;&gt;Node18 -->
<g id="edge20" class="edge">
<title>Node10&#45;&gt;Node18</title>
<path fill="none" stroke="#9a32cd" stroke-dasharray="5,2" d="M76.61,-180.01C123.17,-174.05 203.21,-167.06 224,-186 254.04,-213.37 215.93,-336.82 242,-368 253.71,-382 274.92,-386.1 290.34,-387.1"/>
<polygon fill="#9a32cd" stroke="#9a32cd" points="76.12,-176.55 66.67,-181.34 77.04,-183.49 76.12,-176.55"/>
<text text-anchor="middle" x="162.5" y="-200" font-family="Helvetica,sans-Serif" font-size="10.00"> preoperSupress</text>
<text text-anchor="middle" x="162.5" y="-189" font-family="Helvetica,sans-Serif" font-size="10.00">toInline</text>
</g>
<!-- Node11 -->
<g id="node11" class="node">
<title>Node11</title>
<g id="a_node11"><a xlink:href="interfaceast_1_1_node.html" target="_top" xlink:title=" ">
<polygon fill="white" stroke="black" points="290,-491.5 290,-510.5 330,-510.5 330,-491.5 290,-491.5"/>
<text text-anchor="middle" x="310" y="-498.5" font-family="Helvetica,sans-Serif" font-size="10.00">Node</text>
</a>
</g>
</g>
<!-- Node11&#45;&gt;Node1 -->
<g id="edge28" class="edge">
<title>Node11&#45;&gt;Node1</title>
<path fill="none" stroke="#9a32cd" stroke-dasharray="5,2" d="M340.03,-503.22C353.06,-505.6 367.78,-510.4 378,-520 395.52,-536.45 376.38,-557.12 396,-571 423.57,-590.51 438.9,-577.74 472,-571 591.75,-546.63 621.6,-527.7 724,-461 775.46,-427.48 795.5,-422.11 828,-370 872.19,-299.15 883.38,-195.11 885.86,-162.89"/>
<polygon fill="#9a32cd" stroke="#9a32cd" points="340.45,-499.74 330.05,-501.78 339.45,-506.67 340.45,-499.74"/>
<text text-anchor="middle" x="696.5" y="-509" font-family="Helvetica,sans-Serif" font-size="10.00"> sent_</text>
<text text-anchor="middle" x="696.5" y="-498" font-family="Helvetica,sans-Serif" font-size="10.00">term_</text>
</g>
<!-- Node11&#45;&gt;Node3 -->
<g id="edge10" class="edge">
<title>Node11&#45;&gt;Node3</title>
<path fill="none" stroke="midnightblue" d="M340.24,-495.61C372.76,-489.3 426.68,-477.94 472,-464 480.2,-461.48 481.81,-459.56 490,-457 507.34,-451.58 527.21,-446.83 542.75,-443.44"/>
<polygon fill="midnightblue" stroke="midnightblue" points="339.24,-492.23 330.07,-497.55 340.55,-499.11 339.24,-492.23"/>
</g>
<!-- Node12 -->
<g id="node12" class="node">
<title>Node12</title>
<g id="a_node12"><a xlink:href="interfaceformat_1_1_x_formattable.html" target="_top" xlink:title="入れ子フォーマット出力可能なオブジェクトのインタフェース。">
<polygon fill="white" stroke="black" points="4,-592.5 4,-611.5 79,-611.5 79,-592.5 4,-592.5"/>
<text text-anchor="middle" x="41.5" y="-599.5" font-family="Helvetica,sans-Serif" font-size="10.00">XFormattable</text>
</a>
</g>
</g>
<!-- Node12&#45;&gt;Node11 -->
<g id="edge11" class="edge">
<title>Node12&#45;&gt;Node11</title>
<path fill="none" stroke="midnightblue" d="M87.8,-613.51C128.13,-620.86 186.41,-623.98 224,-593 249.79,-571.75 218.78,-544.03 242,-520 254.43,-507.13 274.88,-502.79 289.93,-501.42"/>
<polygon fill="midnightblue" stroke="midnightblue" points="88.44,-610.07 77.96,-611.57 87.09,-616.94 88.44,-610.07"/>
</g>
<!-- Node13 -->
<g id="node13" class="node">
<title>Node13</title>
<g id="a_node13"><a xlink:href="interfaceformat_1_1_x_formattable_1_1_navigatable.html" target="_top" xlink:title="木構造の分岐ノードとして清書可能なオブジェクトのクラス">
<polygon fill="white" stroke="black" points="245,-453.5 245,-472.5 375,-472.5 375,-453.5 245,-453.5"/>
<text text-anchor="middle" x="310" y="-460.5" font-family="Helvetica,sans-Serif" font-size="10.00">XFormattable.Navigatable</text>
</a>
</g>
</g>
<!-- Node12&#45;&gt;Node13 -->
<g id="edge13" class="edge">
<title>Node12&#45;&gt;Node13</title>
<path fill="none" stroke="midnightblue" d="M89.17,-595.98C139.7,-589.04 214.41,-577.39 224,-568 251.9,-540.68 215.37,-510.56 242,-482 245.63,-478.11 249.99,-474.99 254.72,-472.5"/>
<polygon fill="midnightblue" stroke="midnightblue" points="88.54,-592.54 79.1,-597.35 89.48,-599.47 88.54,-592.54"/>
</g>
<!-- Node13&#45;&gt;Node3 -->
<g id="edge12" class="edge">
<title>Node13&#45;&gt;Node3</title>
<path fill="none" stroke="midnightblue" d="M385.25,-455.82C438.1,-450.71 506.02,-444.14 542.86,-440.58"/>
<polygon fill="midnightblue" stroke="midnightblue" points="384.85,-452.34 375.23,-456.79 385.52,-459.31 384.85,-452.34"/>
</g>
<!-- Node14 -->
<g id="node14" class="node">
<title>Node14</title>
<g id="a_node14"><a xlink:title=" ">
<polygon fill="white" stroke="#bfbfbf" points="246,-328 246,-358 374,-358 374,-328 246,-328"/>
<text text-anchor="start" x="254" y="-346" font-family="Helvetica,sans-Serif" font-size="10.00">java.util.function.Function</text>
<text text-anchor="middle" x="310" y="-335" font-family="Helvetica,sans-Serif" font-size="10.00">&lt; ast.Node, String &gt;</text>
</a>
</g>
</g>
<!-- Node14&#45;&gt;Node3 -->
<g id="edge14" class="edge">
<title>Node14&#45;&gt;Node3</title>
<path fill="none" stroke="#9a32cd" stroke-dasharray="5,2" d="M383.8,-358.02C411.85,-364.84 443.89,-373.88 472,-385 502.64,-397.11 535.85,-416.69 554.52,-428.36"/>
<polygon fill="#9a32cd" stroke="#9a32cd" points="384.59,-354.62 374.05,-355.71 382.97,-361.43 384.59,-354.62"/>
<text text-anchor="middle" x="434" y="-388" font-family="Helvetica,sans-Serif" font-size="10.00"> printerFunc</text>
</g>
<!-- Node15 -->
<g id="node15" class="node">
<title>Node15</title>
<g id="a_node15"><a xlink:title=" ">
<polygon fill="white" stroke="#bfbfbf" points="242,-606 242,-636 378,-636 378,-606 242,-606"/>
<text text-anchor="start" x="250" y="-624" font-family="Helvetica,sans-Serif" font-size="10.00">java.util.function.Consumer</text>
<text text-anchor="middle" x="310" y="-613" font-family="Helvetica,sans-Serif" font-size="10.00">&lt; ast.Node &gt;</text>
</a>
</g>
</g>
<!-- Node15&#45;&gt;Node3 -->
<g id="edge15" class="edge">
<title>Node15&#45;&gt;Node3</title>
<path fill="none" stroke="#9a32cd" stroke-dasharray="5,2" d="M388.27,-620.68C418.46,-616.46 450.85,-606.14 472,-583 510.16,-541.24 451.9,-498.81 490,-457 503.19,-442.53 525.26,-438.14 542.81,-437.16"/>
<polygon fill="#9a32cd" stroke="#9a32cd" points="387.65,-617.23 378.13,-621.88 388.48,-624.18 387.65,-617.23"/>
<text text-anchor="middle" x="434" y="-622" font-family="Helvetica,sans-Serif" font-size="10.00"> typerFunc</text>
</g>
<!-- Node16 -->
<g id="node16" class="node">
<title>Node16</title>
<g id="a_node16"><a xlink:title=" ">
<polygon fill="white" stroke="#bfbfbf" points="265,-567.5 265,-586.5 355,-586.5 355,-567.5 265,-567.5"/>
<text text-anchor="middle" x="310" y="-574.5" font-family="Helvetica,sans-Serif" font-size="10.00">List&lt; ast.Node &gt;</text>
</a>
</g>
</g>
<!-- Node16&#45;&gt;Node3 -->
<g id="edge16" class="edge">
<title>Node16&#45;&gt;Node3</title>
<path fill="none" stroke="#9a32cd" stroke-dasharray="5,2" d="M365.2,-574.69C400.31,-570.3 444.48,-558.87 472,-530 495.06,-505.81 466.29,-480.54 490,-457 503.8,-443.3 525.59,-438.82 542.88,-437.62"/>
<polygon fill="#9a32cd" stroke="#9a32cd" points="364.65,-571.23 355.09,-575.79 365.41,-578.19 364.65,-571.23"/>
<text text-anchor="middle" x="434" y="-571" font-family="Helvetica,sans-Serif" font-size="10.00"> children_</text>
</g>
<!-- Node17 -->
<g id="node17" class="node">
<title>Node17</title>
<g id="a_node17"><a xlink:title=" ">
<polygon fill="white" stroke="#bfbfbf" points="284,-529.5 284,-548.5 336,-548.5 336,-529.5 284,-529.5"/>
<text text-anchor="middle" x="310" y="-536.5" font-family="Helvetica,sans-Serif" font-size="10.00">Boolean</text>
</a>
</g>
</g>
<!-- Node17&#45;&gt;Node3 -->
<g id="edge17" class="edge">
<title>Node17&#45;&gt;Node3</title>
<path fill="none" stroke="#9a32cd" stroke-dasharray="5,2" d="M346.15,-529.47C356.46,-526.56 367.71,-523.26 378,-520 420.21,-506.62 437.68,-514.98 472,-487 484.05,-477.17 477.46,-466.19 490,-457 505.34,-445.76 526.4,-441.08 542.99,-439.17"/>
<polygon fill="#9a32cd" stroke="#9a32cd" points="344.93,-526.18 336.24,-532.24 346.82,-532.92 344.93,-526.18"/>
<text text-anchor="middle" x="434" y="-518" font-family="Helvetica,sans-Serif" font-size="10.00"> DEBUG_CHILD</text>
</g>
<!-- Node18&#45;&gt;Node3 -->
<g id="edge18" class="edge">
<title>Node18&#45;&gt;Node3</title>
<path fill="none" stroke="#9a32cd" stroke-dasharray="5,2" d="M340.02,-391.2C372.36,-396.02 426.12,-404.52 472,-414 496.07,-418.97 523.2,-425.75 542.72,-430.83"/>
<polygon fill="#9a32cd" stroke="#9a32cd" points="340.33,-387.7 329.92,-389.7 339.3,-394.63 340.33,-387.7"/>
<text text-anchor="middle" x="434" y="-417" font-family="Helvetica,sans-Serif" font-size="10.00"> sty</text>
</g>
<!-- Node19 -->
<g id="node19" class="node">
<title>Node19</title>
<g id="a_node19"><a xlink:href="classast_1_1_named_children.html" target="_top" xlink:title=" ">
<polygon fill="white" stroke="black" points="499.5,-341.5 499.5,-360.5 641.5,-360.5 641.5,-341.5 499.5,-341.5"/>
<text text-anchor="middle" x="570.5" y="-348.5" font-family="Helvetica,sans-Serif" font-size="10.00">NamedChildren&lt; ast.Node &gt;</text>
</a>
</g>
</g>
<!-- Node19&#45;&gt;Node2 -->
<g id="edge21" class="edge">
<title>Node19&#45;&gt;Node2</title>
<path fill="none" stroke="#9a32cd" stroke-dasharray="5,2" d="M651.91,-351C682.5,-351 716.13,-351 741.8,-351"/>
<polygon fill="#9a32cd" stroke="#9a32cd" points="651.67,-347.5 641.67,-351 651.67,-354.5 651.67,-347.5"/>
<text text-anchor="middle" x="696.5" y="-354" font-family="Helvetica,sans-Serif" font-size="10.00"> astChildren</text>
</g>
<!-- Node20 -->
<g id="node20" class="node">
<title>Node20</title>
<g id="a_node20"><a xlink:href="classast_1_1_named_children.html" target="_top" xlink:title=" ">
<polygon fill="white" stroke="black" points="490,-466.5 490,-485.5 651,-485.5 651,-466.5 490,-466.5"/>
<text text-anchor="middle" x="570.5" y="-473.5" font-family="Helvetica,sans-Serif" font-size="10.00">NamedChildren&lt; XFormattable &gt;</text>
</a>
</g>
</g>
<!-- Node20&#45;&gt;Node2 -->
<g id="edge22" class="edge">
<title>Node20&#45;&gt;Node2</title>
<path fill="none" stroke="#9a32cd" stroke-dasharray="5,2" d="M635.12,-463.42C640.6,-461.55 645.97,-459.42 651,-457 703.94,-431.51 754.94,-381.6 775.03,-360.63"/>
<polygon fill="#9a32cd" stroke="#9a32cd" points="633.7,-460.19 625.19,-466.5 635.78,-466.88 633.7,-460.19"/>
<text text-anchor="middle" x="696.5" y="-449" font-family="Helvetica,sans-Serif" font-size="10.00"> navChildren</text>
</g>
<!-- Node21&#45;&gt;Node2 -->
<g id="edge23" class="edge">
<title>Node21&#45;&gt;Node2</title>
<path fill="none" stroke="#9a32cd" stroke-dasharray="5,2" d="M341.82,-101.62C405.01,-86.32 551.62,-60.58 651,-120 738.18,-172.13 773.64,-304.69 781.98,-341.43"/>
<polygon fill="#9a32cd" stroke="#9a32cd" points="340.92,-98.24 332.07,-104.06 342.62,-105.03 340.92,-98.24"/>
<text text-anchor="middle" x="570.5" y="-123" font-family="Helvetica,sans-Serif" font-size="10.00"> xtSelf</text>
</g>
<!-- Node22 -->
<g id="node22" class="node">
<title>Node22</title>
<g id="a_node22"><a xlink:title=" ">
<polygon fill="white" stroke="#bfbfbf" points="24,-71.5 24,-90.5 59,-90.5 59,-71.5 24,-71.5"/>
<text text-anchor="middle" x="41.5" y="-78.5" font-family="Helvetica,sans-Serif" font-size="10.00">long</text>
</a>
</g>
</g>
<!-- Node22&#45;&gt;Node21 -->
<g id="edge26" class="edge">
<title>Node22&#45;&gt;Node21</title>
<path fill="none" stroke="#9a32cd" stroke-dasharray="5,2" d="M69.15,-80.81C104.66,-80.91 169.36,-82.28 224,-90 246.07,-93.12 270.82,-99.25 287.89,-103.91"/>
<polygon fill="#9a32cd" stroke="#9a32cd" points="69.11,-77.31 59.11,-80.82 69.11,-84.31 69.11,-77.31"/>
<text text-anchor="middle" x="162.5" y="-104" font-family="Helvetica,sans-Serif" font-size="10.00"> FLAG_RETURN_TYPE</text>
<text text-anchor="middle" x="162.5" y="-93" font-family="Helvetica,sans-Serif" font-size="10.00">flag</text>
</g>
<!-- Node23 -->
<g id="node23" class="node">
<title>Node23</title>
<g id="a_node23"><a xlink:href="interfacecmd_1_1_generatable.html" target="_top" xlink:title="変換してコードを生成できるノードのインタフェース.">
<polygon fill="white" stroke="black" points="750.5,-0.5 750.5,-19.5 819.5,-19.5 819.5,-0.5 750.5,-0.5"/>
<text text-anchor="middle" x="785" y="-7.5" font-family="Helvetica,sans-Serif" font-size="10.00">Generatable</text>
</a>
</g>
</g>
<!-- Node23&#45;&gt;Node1 -->
<g id="edge27" class="edge">
<title>Node23&#45;&gt;Node1</title>
<path fill="none" stroke="midnightblue" d="M828.82,-21.23C835.55,-24.49 841.94,-28.66 847,-34 877.09,-65.77 884.28,-121.01 885.98,-143.28"/>
<polygon fill="midnightblue" stroke="midnightblue" points="830.11,-17.97 819.53,-17.34 827.4,-24.43 830.11,-17.97"/>
</g>
</g>
</svg>
