<?xml version="1.0" encoding="UTF-8" standalone="no"?>
<!DOCTYPE svg PUBLIC "-//W3C//DTD SVG 1.1//EN"
 "http://www.w3.org/Graphics/SVG/1.1/DTD/svg11.dtd">
<!-- Generated by graphviz version 2.47.0 (20210316.0004)
 -->
<!-- Title: includeStrIndentArray Pages: 1 -->
<!--zoomable 117 -->
<svg id="main" version="1.1" xmlns="http://www.w3.org/2000/svg" xmlns:xlink="http://www.w3.org/1999/xlink" xml:space="preserve" onload="init(evt)">
<style type="text/css"><![CDATA[
.edge:hover path { stroke: red; }
.edge:hover polygon { stroke: red; fill: red; }
]]></style>
<script type="text/javascript"><![CDATA[
var edges = document.getElementsByTagName('g');
if (edges && edges.length) {
  for (var i=0;i<edges.length;i++) {
    if (edges[i].id.substr(0,4)=='edge') {
      edges[i].setAttribute('class','edge');
    }
  }
}
]]></script>
        <defs>
                <circle id="rim" cx="0" cy="0" r="7"/>
                <circle id="rim2" cx="0" cy="0" r="3.5"/>
                <g id="zoomPlus">
                        <use xlink:href="#rim" fill="#404040">
                                <set attributeName="fill" to="#808080" begin="zoomplus.mouseover" end="zoomplus.mouseout"/>
                        </use>
                        <path d="M-4,0h8M0,-4v8" fill="none" stroke="white" stroke-width="1.5" pointer-events="none"/>
                </g>
                <g id="zoomMin">
                        <use xlink:href="#rim" fill="#404040">
                                <set attributeName="fill" to="#808080" begin="zoomminus.mouseover" end="zoomminus.mouseout"/>
                        </use>
                        <path d="M-4,0h8" fill="none" stroke="white" stroke-width="1.5" pointer-events="none"/>
                </g>
                <g id="dirArrow">
                        <path fill="none" stroke="white" stroke-width="1.5" d="M0,-3.0v7 M-2.5,-0.5L0,-3.0L2.5,-0.5"/>
                </g>
               <g id="resetDef">
                       <use xlink:href="#rim2" fill="#404040">
                               <set attributeName="fill" to="#808080" begin="reset.mouseover" end="reset.mouseout"/>
                       </use>
               </g>
        </defs>

<script type="text/javascript">
var viewWidth = 786;
var viewHeight = 117;
var sectionId = 'dynsection-6';
</script>
<script xlink:href="svgpan.js"/>
<svg id="graph" class="graph">
<g id="viewport">
<title>includeStrIndentArray</title>
<polygon fill="white" stroke="transparent" points="-4,4 -4,-112.76 782,-112.76 782,4 -4,4"/>
<!-- Node1 -->
<g id="node1" class="node">
<title>Node1</title>
<g id="a_node1"><a xlink:title="配列モードで、文字列valueを正しい段下げで，区切り記号を挿入しながら，バッファに追加する。">
<polygon fill="#bfbfbf" stroke="black" points="0,-41.5 0,-60.5 110,-60.5 110,-41.5 0,-41.5"/>
<text text-anchor="middle" x="55" y="-48.5" font-family="Helvetica,sans-Serif" font-size="10.00">includeStrIndentArray</text>
</a>
</g>
</g>
<!-- Node2 -->
<g id="node2" class="node">
<title>Node2</title>
<g id="a_node2"><a xlink:href="classutil_1_1_foldable_string_buf.html#af6ee3a021ca300a156d8347b5bf0f71f" target="_top" xlink:title="入れ子文字列を、正しく段下げしながら読み込む。">
<polygon fill="white" stroke="black" points="146,-36 146,-66 289,-66 289,-36 146,-36"/>
<text text-anchor="start" x="154" y="-54" font-family="Helvetica,sans-Serif" font-size="10.00">util.FoldableStringBuf.include</text>
<text text-anchor="middle" x="217.5" y="-43" font-family="Helvetica,sans-Serif" font-size="10.00">StrIndent</text>
</a>
</g>
</g>
<!-- Node1&#45;&gt;Node2 -->
<g id="edge1" class="edge">
<title>Node1&#45;&gt;Node2</title>
<path fill="none" stroke="midnightblue" d="M110.34,-51C118.51,-51 127.08,-51 135.66,-51"/>
<polygon fill="midnightblue" stroke="midnightblue" points="135.72,-54.5 145.72,-51 135.72,-47.5 135.72,-54.5"/>
</g>
<!-- Node4 -->
<g id="node4" class="node">
<title>Node4</title>
<g id="a_node4"><a xlink:href="classutil_1_1_foldable_string_buf.html#a2b018a5847ca3b5c67456ad721e23ba4" target="_top" xlink:title="文字列を出力する">
<polygon fill="white" stroke="black" points="496.5,-0.5 496.5,-19.5 620.5,-19.5 620.5,-0.5 496.5,-0.5"/>
<text text-anchor="middle" x="558.5" y="-7.5" font-family="Helvetica,sans-Serif" font-size="10.00">util.FoldableStringBuf.str</text>
</a>
</g>
</g>
<!-- Node1&#45;&gt;Node4 -->
<g id="edge14" class="edge">
<title>Node1&#45;&gt;Node4</title>
<path fill="none" stroke="midnightblue" d="M84,-41.41C101.58,-35.85 124.85,-29.3 146,-26 264.33,-7.52 403.99,-6.38 486.41,-7.79"/>
<polygon fill="midnightblue" stroke="midnightblue" points="486.35,-11.29 496.42,-7.98 486.48,-4.29 486.35,-11.29"/>
</g>
<!-- Node9 -->
<g id="node7" class="node">
<title>Node9</title>
<g id="a_node7"><a xlink:href="classutil_1_1_foldable_string_buf.html#ab3d4d59d8a1bb8f1cffeef544c66c052" target="_top" xlink:title="改行を出力する.">
<polygon fill="white" stroke="black" points="329,-76.5 329,-95.5 449,-95.5 449,-76.5 329,-76.5"/>
<text text-anchor="middle" x="389" y="-83.5" font-family="Helvetica,sans-Serif" font-size="10.00">util.FoldableStringBuf.nl</text>
</a>
</g>
</g>
<!-- Node1&#45;&gt;Node9 -->
<g id="edge13" class="edge">
<title>Node1&#45;&gt;Node9</title>
<path fill="none" stroke="midnightblue" d="M85.25,-60.51C102.69,-65.75 125.38,-71.82 146,-75 203.82,-83.92 270.26,-86.39 318.87,-86.79"/>
<polygon fill="midnightblue" stroke="midnightblue" points="318.95,-90.29 328.97,-86.85 318.99,-83.29 318.95,-90.29"/>
</g>
<!-- Node3 -->
<g id="node3" class="node">
<title>Node3</title>
<g id="a_node3"><a xlink:href="classutil_1_1_foldable_string_buf.html#aaa1e91437222f9467827a35ccfecbdb7" target="_top" xlink:title="バッファの末尾に文字c を追加する.">
<polygon fill="white" stroke="black" points="325,-37.5 325,-56.5 453,-56.5 453,-37.5 325,-37.5"/>
<text text-anchor="middle" x="389" y="-44.5" font-family="Helvetica,sans-Serif" font-size="10.00">util.FoldableStringBuf.add</text>
</a>
</g>
</g>
<!-- Node2&#45;&gt;Node3 -->
<g id="edge2" class="edge">
<title>Node2&#45;&gt;Node3</title>
<path fill="none" stroke="midnightblue" d="M289.4,-49.33C297.79,-49.13 306.36,-48.93 314.77,-48.73"/>
<polygon fill="midnightblue" stroke="midnightblue" points="315.02,-52.22 324.94,-48.49 314.86,-45.23 315.02,-52.22"/>
</g>
<!-- Node2&#45;&gt;Node9 -->
<g id="edge7" class="edge">
<title>Node2&#45;&gt;Node9</title>
<path fill="none" stroke="midnightblue" d="M289.4,-65.64C303.43,-68.54 317.97,-71.54 331.44,-74.32"/>
<polygon fill="midnightblue" stroke="midnightblue" points="331.01,-77.81 341.51,-76.4 332.42,-70.95 331.01,-77.81"/>
</g>
<!-- Node3&#45;&gt;Node4 -->
<g id="edge3" class="edge">
<title>Node3&#45;&gt;Node4</title>
<path fill="none" stroke="midnightblue" d="M433.14,-37.47C454.84,-32.68 481.34,-26.82 504.29,-21.75"/>
<polygon fill="midnightblue" stroke="midnightblue" points="505.21,-25.14 514.22,-19.56 503.7,-18.3 505.21,-25.14"/>
</g>
<!-- Node5 -->
<g id="node5" class="node">
<title>Node5</title>
<g id="a_node5"><a xlink:href="classutil_1_1_string_buf.html#a2dc9e4579aee8516f9402d5ab3eac5eb" target="_top" xlink:title="バッファの末尾に文字列{str} を連結する.">
<polygon fill="white" stroke="red" points="667.5,-29.5 667.5,-48.5 774.5,-48.5 774.5,-29.5 667.5,-29.5"/>
<text text-anchor="middle" x="721" y="-36.5" font-family="Helvetica,sans-Serif" font-size="10.00">util.StringBuf.append</text>
</a>
</g>
</g>
<!-- Node4&#45;&gt;Node5 -->
<g id="edge4" class="edge">
<title>Node4&#45;&gt;Node5</title>
<path fill="none" stroke="midnightblue" d="M612.5,-19.58C626.82,-22.16 642.45,-24.99 657.25,-27.66"/>
<polygon fill="midnightblue" stroke="midnightblue" points="656.87,-31.15 667.33,-29.48 658.11,-24.26 656.87,-31.15"/>
</g>
<!-- Node7 -->
<g id="node6" class="node">
<title>Node7</title>
<g id="a_node6"><a xlink:href="classutil_1_1_trace_level.html#a163bdc94e3e530c147c8fcd59f9f01f4" target="_top" xlink:title="モジュールnameの現在のトレースレベルが{level}以上かを返す。モジュールのレベルが登録されていなければ、全体のトレースレベルを返す。">
<polygon fill="white" stroke="red" points="664,-85.5 664,-104.5 778,-104.5 778,-85.5 664,-85.5"/>
<text text-anchor="middle" x="721" y="-92.5" font-family="Helvetica,sans-Serif" font-size="10.00">util.TraceLevel.LEVEL</text>
</a>
</g>
</g>
<!-- Node4&#45;&gt;Node7 -->
<g id="edge6" class="edge">
<title>Node4&#45;&gt;Node7</title>
<path fill="none" stroke="midnightblue" d="M572.44,-19.6C591.64,-33.49 629.14,-59.37 664,-76 668.4,-78.1 673.1,-80.07 677.83,-81.9"/>
<polygon fill="midnightblue" stroke="midnightblue" points="676.91,-85.29 687.5,-85.42 679.3,-78.71 676.91,-85.29"/>
</g>
<!-- Node5&#45;&gt;Node5 -->
<g id="edge5" class="edge">
<title>Node5&#45;&gt;Node5</title>
<path fill="none" stroke="midnightblue" d="M696.03,-48.76C683.88,-57.57 692.21,-67 721,-67 740.35,-67 750.45,-62.74 751.31,-57.27"/>
<polygon fill="midnightblue" stroke="midnightblue" points="754.25,-55.37 745.97,-48.76 748.32,-59.09 754.25,-55.37"/>
</g>
<!-- Node9&#45;&gt;Node5 -->
<g id="edge8" class="edge">
<title>Node9&#45;&gt;Node5</title>
<path fill="none" stroke="midnightblue" d="M436.22,-76.44C452.82,-73.19 471.71,-69.7 489,-67 545.59,-58.15 610.35,-50.52 656.87,-45.46"/>
<polygon fill="midnightblue" stroke="midnightblue" points="657.54,-48.91 667.1,-44.36 656.79,-41.95 657.54,-48.91"/>
</g>
<!-- Node9&#45;&gt;Node7 -->
<g id="edge9" class="edge">
<title>Node9&#45;&gt;Node7</title>
<path fill="none" stroke="midnightblue" d="M430.21,-95.51C448.1,-99.28 469.49,-103.14 489,-105 550.5,-110.85 566.31,-108.34 628,-105 636.3,-104.55 645.01,-103.87 653.61,-103.08"/>
<polygon fill="midnightblue" stroke="midnightblue" points="654.03,-106.56 663.64,-102.1 653.35,-99.59 654.03,-106.56"/>
</g>
<!-- Node10 -->
<g id="node8" class="node">
<title>Node10</title>
<g id="a_node8"><a xlink:href="classutil_1_1_foldable_string_buf.html#a186579e7cd763dada34bcdc6c8f8f209" target="_top" xlink:title="空白を出力する.">
<polygon fill="white" stroke="black" points="489,-76.5 489,-95.5 628,-95.5 628,-76.5 489,-76.5"/>
<text text-anchor="middle" x="558.5" y="-83.5" font-family="Helvetica,sans-Serif" font-size="10.00">util.FoldableStringBuf.space</text>
</a>
</g>
</g>
<!-- Node9&#45;&gt;Node10 -->
<g id="edge10" class="edge">
<title>Node9&#45;&gt;Node10</title>
<path fill="none" stroke="midnightblue" d="M449.05,-86C458.73,-86 468.89,-86 478.95,-86"/>
<polygon fill="midnightblue" stroke="midnightblue" points="478.96,-89.5 488.96,-86 478.96,-82.5 478.96,-89.5"/>
</g>
<!-- Node10&#45;&gt;Node5 -->
<g id="edge11" class="edge">
<title>Node10&#45;&gt;Node5</title>
<path fill="none" stroke="midnightblue" d="M591.98,-76.49C616.59,-69.28 650.62,-59.32 677.42,-51.47"/>
<polygon fill="midnightblue" stroke="midnightblue" points="678.68,-54.75 687.29,-48.58 676.71,-48.03 678.68,-54.75"/>
</g>
<!-- Node10&#45;&gt;Node7 -->
<g id="edge12" class="edge">
<title>Node10&#45;&gt;Node7</title>
<path fill="none" stroke="midnightblue" d="M628.03,-89.84C636.51,-90.32 645.17,-90.8 653.62,-91.28"/>
<polygon fill="midnightblue" stroke="midnightblue" points="653.61,-94.78 663.79,-91.85 654,-87.79 653.61,-94.78"/>
</g>
</g>
</svg>
        <g id="navigator" transform="translate(0 0)" fill="#404254">
                <rect fill="#f2f5e9" fill-opacity="0.5" stroke="#606060" stroke-width=".5" x="0" y="0" width="60" height="60"/>
                <use id="zoomplus" xlink:href="#zoomPlus" x="17" y="9" onmousedown="handleZoom(evt,'in')"/>
                <use id="zoomminus" xlink:href="#zoomMin" x="42" y="9" onmousedown="handleZoom(evt,'out')"/>
                <use id="reset" xlink:href="#resetDef" x="30" y="36" onmousedown="handleReset()"/>
                <g id="arrowUp" xlink:href="#dirArrow" transform="translate(30 24)" onmousedown="handlePan(0,-1)">
                  <use xlink:href="#rim" fill="#404040">
                        <set attributeName="fill" to="#808080" begin="arrowUp.mouseover" end="arrowUp.mouseout"/>
                  </use>
                  <path fill="none" stroke="white" stroke-width="1.5" d="M0,-3.0v7 M-2.5,-0.5L0,-3.0L2.5,-0.5"/>
                </g>
                <g id="arrowRight" xlink:href="#dirArrow" transform="rotate(90) translate(36 -43)" onmousedown="handlePan(1,0)">
                  <use xlink:href="#rim" fill="#404040">
                        <set attributeName="fill" to="#808080" begin="arrowRight.mouseover" end="arrowRight.mouseout"/>
                  </use>
                  <path fill="none" stroke="white" stroke-width="1.5" d="M0,-3.0v7 M-2.5,-0.5L0,-3.0L2.5,-0.5"/>
                </g>
                <g id="arrowDown" xlink:href="#dirArrow" transform="rotate(180) translate(-30 -48)" onmousedown="handlePan(0,1)">
                  <use xlink:href="#rim" fill="#404040">
                        <set attributeName="fill" to="#808080" begin="arrowDown.mouseover" end="arrowDown.mouseout"/>
                  </use>
                  <path fill="none" stroke="white" stroke-width="1.5" d="M0,-3.0v7 M-2.5,-0.5L0,-3.0L2.5,-0.5"/>
                </g>
                <g id="arrowLeft" xlink:href="#dirArrow" transform="rotate(270) translate(-36 17)" onmousedown="handlePan(-1,0)">
                  <use xlink:href="#rim" fill="#404040">
                        <set attributeName="fill" to="#808080" begin="arrowLeft.mouseover" end="arrowLeft.mouseout"/>
                  </use>
                  <path fill="none" stroke="white" stroke-width="1.5" d="M0,-3.0v7 M-2.5,-0.5L0,-3.0L2.5,-0.5"/>
                </g>
        </g>
        <svg viewBox="0 0 15 15" width="100%" height="30px" preserveAspectRatio="xMaxYMin meet">
         <g id="arrow_out" transform="scale(0.3 0.3)">
          <a xlink:href="classutil_1_1_yaml_buf_ac7bbf751cbb1c71e697315495afcc788_cgraph_org.svg" target="_base">
           <rect id="button" ry="5" rx="5" y="6" x="6" height="38" width="38"
                fill="#f2f5e9" fill-opacity="0.5" stroke="#606060" stroke-width="1.0"/>
           <path id="arrow"
             d="M 11.500037,31.436501 C 11.940474,20.09759 22.043105,11.32322 32.158766,21.979434 L 37.068811,17.246167 C 37.068811,17.246167 37.088388,32 37.088388,32 L 22.160133,31.978069 C 22.160133,31.978069 26.997745,27.140456 26.997745,27.140456 C 18.528582,18.264221 13.291696,25.230495 11.500037,31.436501 z"
             style="fill:#404040;"/>
          </a>
         </g>
        </svg>
</svg>
