<?xml version="1.0" encoding="UTF-8" standalone="no"?>
<!DOCTYPE svg PUBLIC "-//W3C//DTD SVG 1.1//EN"
 "http://www.w3.org/Graphics/SVG/1.1/DTD/svg11.dtd">
<!-- Generated by graphviz version 2.47.0 (20210316.0004)
 -->
<!-- Title: addChild Pages: 1 -->
<svg width="269pt" height="154pt"
 viewBox="0.00 0.00 269.00 154.00" xmlns="http://www.w3.org/2000/svg" xmlns:xlink="http://www.w3.org/1999/xlink">
<g id="graph0" class="graph" transform="scale(1 1) rotate(0) translate(4 150)">
<title>addChild</title>
<polygon fill="white" stroke="transparent" points="-4,4 -4,-150 265,-150 265,4 -4,4"/>
<!-- Node1 -->
<g id="node1" class="node">
<title>Node1</title>
<g id="a_node1"><a xlink:title="新しい子供を追加する">
<polygon fill="#bfbfbf" stroke="black" points="206,-66.5 206,-85.5 261,-85.5 261,-66.5 206,-66.5"/>
<text text-anchor="middle" x="233.5" y="-73.5" font-family="Helvetica,sans-Serif" font-size="10.00">addChild</text>
</a>
</g>
</g>
<!-- Node2 -->
<g id="node2" class="node">
<title>Node2</title>
<g id="a_node2"><a xlink:href="classast_1_1_step.html#ab17fdcc0ffd7387efab9364b02faee79" target="_top" xlink:title="ノードをwhere節にセットする．">
<polygon fill="white" stroke="black" points="34.5,-126.5 34.5,-145.5 135.5,-145.5 135.5,-126.5 34.5,-126.5"/>
<text text-anchor="middle" x="85" y="-133.5" font-family="Helvetica,sans-Serif" font-size="10.00">ast.Step.addWhere</text>
</a>
</g>
</g>
<!-- Node1&#45;&gt;Node2 -->
<g id="edge1" class="edge">
<title>Node1&#45;&gt;Node2</title>
<path fill="none" stroke="midnightblue" d="M212.58,-91.73C200.79,-100.34 185.23,-110.53 170,-117 159.27,-121.56 147.27,-125.1 135.79,-127.83"/>
<polygon fill="midnightblue" stroke="midnightblue" points="214.91,-94.36 220.79,-85.55 210.69,-88.77 214.91,-94.36"/>
</g>
<!-- Node3 -->
<g id="node3" class="node">
<title>Node3</title>
<g id="a_node3"><a xlink:href="classast_1_1_ast_assign.html#ae1200243e54a5809d17e10bd3870212a" target="_top" xlink:title="コンストラクタ">
<polygon fill="white" stroke="black" points="22,-88.5 22,-107.5 148,-107.5 148,-88.5 22,-88.5"/>
<text text-anchor="middle" x="85" y="-95.5" font-family="Helvetica,sans-Serif" font-size="10.00">ast.AstAssign.AstAssign</text>
</a>
</g>
</g>
<!-- Node1&#45;&gt;Node3 -->
<g id="edge2" class="edge">
<title>Node1&#45;&gt;Node3</title>
<path fill="none" stroke="midnightblue" d="M195.95,-81.49C181.51,-83.66 164.49,-86.21 148.22,-88.66"/>
<polygon fill="midnightblue" stroke="midnightblue" points="196.6,-84.93 205.97,-79.98 195.56,-78.01 196.6,-84.93"/>
</g>
<!-- Node4 -->
<g id="node4" class="node">
<title>Node4</title>
<g id="a_node4"><a xlink:href="classast_1_1_ast_node_unary.html#a705aa745ef641cefe75cd931f7801582" target="_top" xlink:title="生成子. 空の子供リストをもつノードを生成する.">
<polygon fill="white" stroke="black" points="16.5,-39 16.5,-69 153.5,-69 153.5,-39 16.5,-39"/>
<text text-anchor="start" x="24.5" y="-57" font-family="Helvetica,sans-Serif" font-size="10.00">ast.AstNodeUnary.AstNode</text>
<text text-anchor="middle" x="85" y="-46" font-family="Helvetica,sans-Serif" font-size="10.00">Unary</text>
</a>
</g>
</g>
<!-- Node1&#45;&gt;Node4 -->
<g id="edge3" class="edge">
<title>Node1&#45;&gt;Node4</title>
<path fill="none" stroke="midnightblue" d="M195.71,-70.48C182.88,-68.55 168.04,-66.32 153.5,-64.14"/>
<polygon fill="midnightblue" stroke="midnightblue" points="195.56,-73.99 205.97,-72.02 196.6,-67.07 195.56,-73.99"/>
</g>
<!-- Node5 -->
<g id="node5" class="node">
<title>Node5</title>
<g id="a_node5"><a xlink:href="classast_1_1_ast_math_oper_1_1_boolean_oper.html#a985c8b27b9709168ea045d1b32a45798" target="_top" xlink:title="空の子供を取り除く.">
<polygon fill="white" stroke="black" points="0,-0.5 0,-19.5 170,-19.5 170,-0.5 0,-0.5"/>
<text text-anchor="middle" x="85" y="-7.5" font-family="Helvetica,sans-Serif" font-size="10.00">ast.AstMathOper.BooleanOper.strip</text>
</a>
</g>
</g>
<!-- Node1&#45;&gt;Node5 -->
<g id="edge4" class="edge">
<title>Node1&#45;&gt;Node5</title>
<path fill="none" stroke="midnightblue" d="M214.49,-59.7C202.63,-49.76 186.33,-37.57 170,-30 160.75,-25.71 150.49,-22.29 140.41,-19.58"/>
<polygon fill="midnightblue" stroke="midnightblue" points="212.43,-62.54 222.28,-66.43 217.01,-57.24 212.43,-62.54"/>
</g>
</g>
</svg>
