<?xml version="1.0" encoding="UTF-8" standalone="no"?>
<!DOCTYPE svg PUBLIC "-//W3C//DTD SVG 1.1//EN"
 "http://www.w3.org/Graphics/SVG/1.1/DTD/svg11.dtd">
<!-- Generated by graphviz version 2.47.0 (20210316.0004)
 -->
<!-- Title: peek Pages: 1 -->
<!--zoomable 568 -->
<svg id="main" version="1.1" xmlns="http://www.w3.org/2000/svg" xmlns:xlink="http://www.w3.org/1999/xlink" xml:space="preserve" onload="init(evt)">
<style type="text/css"><![CDATA[
.edge:hover path { stroke: red; }
.edge:hover polygon { stroke: red; fill: red; }
]]></style>
<script type="text/javascript"><![CDATA[
var edges = document.getElementsByTagName('g');
if (edges && edges.length) {
  for (var i=0;i<edges.length;i++) {
    if (edges[i].id.substr(0,4)=='edge') {
      edges[i].setAttribute('class','edge');
    }
  }
}
]]></script>
        <defs>
                <circle id="rim" cx="0" cy="0" r="7"/>
                <circle id="rim2" cx="0" cy="0" r="3.5"/>
                <g id="zoomPlus">
                        <use xlink:href="#rim" fill="#404040">
                                <set attributeName="fill" to="#808080" begin="zoomplus.mouseover" end="zoomplus.mouseout"/>
                        </use>
                        <path d="M-4,0h8M0,-4v8" fill="none" stroke="white" stroke-width="1.5" pointer-events="none"/>
                </g>
                <g id="zoomMin">
                        <use xlink:href="#rim" fill="#404040">
                                <set attributeName="fill" to="#808080" begin="zoomminus.mouseover" end="zoomminus.mouseout"/>
                        </use>
                        <path d="M-4,0h8" fill="none" stroke="white" stroke-width="1.5" pointer-events="none"/>
                </g>
                <g id="dirArrow">
                        <path fill="none" stroke="white" stroke-width="1.5" d="M0,-3.0v7 M-2.5,-0.5L0,-3.0L2.5,-0.5"/>
                </g>
               <g id="resetDef">
                       <use xlink:href="#rim2" fill="#404040">
                               <set attributeName="fill" to="#808080" begin="reset.mouseover" end="reset.mouseout"/>
                       </use>
               </g>
        </defs>

<script type="text/javascript">
var viewWidth = 244;
var viewHeight = 568;
var sectionId = 'dynsection-5';
</script>
<script xlink:href="svgpan.js"/>
<svg id="graph" class="graph">
<g id="viewport">
<title>peek</title>
<polygon fill="white" stroke="transparent" points="-4,4 -4,-563.5 240,-563.5 240,4 -4,4"/>
<!-- Node1 -->
<g id="node1" class="node">
<title>Node1</title>
<g id="a_node1"><a xlink:title="オフセットi &gt;= 0に対して、スタックの頂上からi下の値を返す.">
<polygon fill="#bfbfbf" stroke="black" points="198,-264.5 198,-283.5 236,-283.5 236,-264.5 198,-264.5"/>
<text text-anchor="middle" x="217" y="-271.5" font-family="Helvetica,sans-Serif" font-size="10.00">peek</text>
</a>
</g>
</g>
<!-- Node2 -->
<g id="node2" class="node">
<title>Node2</title>
<g id="a_node2"><a xlink:href="classcmd_1_1_command_boolean_1_1_cmd_bool_load.html#aed930e84d9417830c38fbb0917e1c58a" target="_top" xlink:title="イベントevから要素テキストを読み出す．">
<polygon fill="white" stroke="black" points="0,-529 0,-559 162,-559 162,-529 0,-529"/>
<text text-anchor="start" x="8" y="-547" font-family="Helvetica,sans-Serif" font-size="10.00">cmd.CommandBoolean.CmdBool</text>
<text text-anchor="middle" x="81" y="-536" font-family="Helvetica,sans-Serif" font-size="10.00">Load.exec</text>
</a>
</g>
</g>
<!-- Node1&#45;&gt;Node2 -->
<g id="edge1" class="edge">
<title>Node1&#45;&gt;Node2</title>
<path fill="none" stroke="midnightblue" d="M214.23,-293.72C209.13,-346.06 192.82,-486.77 162,-520 158.84,-523.4 155.23,-526.33 151.32,-528.85"/>
<polygon fill="midnightblue" stroke="midnightblue" points="217.72,-293.99 215.17,-283.7 210.75,-293.33 217.72,-293.99"/>
</g>
<!-- Node3 -->
<g id="node3" class="node">
<title>Node3</title>
<g id="a_node3"><a xlink:href="classcmd_1_1_command_boolean_1_1_cmd_bool_opr.html#aed930e84d9417830c38fbb0917e1c58a" target="_top" xlink:title="スタックトップの二つの値を論理積演算して，結果をスタックトップにおく．">
<polygon fill="white" stroke="black" points="0,-480 0,-510 162,-510 162,-480 0,-480"/>
<text text-anchor="start" x="8" y="-498" font-family="Helvetica,sans-Serif" font-size="10.00">cmd.CommandBoolean.CmdBool</text>
<text text-anchor="middle" x="81" y="-487" font-family="Helvetica,sans-Serif" font-size="10.00">Opr.exec</text>
</a>
</g>
</g>
<!-- Node1&#45;&gt;Node3 -->
<g id="edge2" class="edge">
<title>Node1&#45;&gt;Node3</title>
<path fill="none" stroke="midnightblue" d="M216.49,-293.93C216.34,-333.32 210.25,-421.58 162,-471 158.66,-474.42 154.85,-477.36 150.74,-479.89"/>
<polygon fill="midnightblue" stroke="midnightblue" points="219.99,-293.75 216.4,-283.78 212.99,-293.81 219.99,-293.75"/>
</g>
<!-- Node4 -->
<g id="node4" class="node">
<title>Node4</title>
<g id="a_node4"><a xlink:href="classcmd_1_1_command_boolean_1_1_cmd_bool_and.html#aed930e84d9417830c38fbb0917e1c58a" target="_top" xlink:title="スタックトップの二つの値を論理積演算して，結果をスタックトップにおく．">
<polygon fill="white" stroke="black" points="0,-431 0,-461 162,-461 162,-431 0,-431"/>
<text text-anchor="start" x="8" y="-449" font-family="Helvetica,sans-Serif" font-size="10.00">cmd.CommandBoolean.CmdBool</text>
<text text-anchor="middle" x="81" y="-438" font-family="Helvetica,sans-Serif" font-size="10.00">And.exec</text>
</a>
</g>
</g>
<!-- Node1&#45;&gt;Node4 -->
<g id="edge3" class="edge">
<title>Node1&#45;&gt;Node4</title>
<path fill="none" stroke="midnightblue" d="M214.35,-293.7C210.65,-325.28 198.86,-387.23 162,-422 158.41,-425.38 154.37,-428.29 150.05,-430.79"/>
<polygon fill="midnightblue" stroke="midnightblue" points="217.86,-293.84 215.38,-283.54 210.89,-293.14 217.86,-293.84"/>
</g>
<!-- Node5 -->
<g id="node5" class="node">
<title>Node5</title>
<g id="a_node5"><a xlink:href="classcmd_1_1_command_boolean_1_1_cmd_bool_or.html#aed930e84d9417830c38fbb0917e1c58a" target="_top" xlink:title="スタックトップの二つの値を論理和演算して，結果をスタックトップにおく．">
<polygon fill="white" stroke="black" points="0,-382 0,-412 162,-412 162,-382 0,-382"/>
<text text-anchor="start" x="8" y="-400" font-family="Helvetica,sans-Serif" font-size="10.00">cmd.CommandBoolean.CmdBool</text>
<text text-anchor="middle" x="81" y="-389" font-family="Helvetica,sans-Serif" font-size="10.00">Or.exec</text>
</a>
</g>
</g>
<!-- Node1&#45;&gt;Node5 -->
<g id="edge4" class="edge">
<title>Node1&#45;&gt;Node5</title>
<path fill="none" stroke="midnightblue" d="M210.36,-293.53C202.9,-315.93 187.61,-352.23 162,-373 157.72,-376.47 152.95,-379.44 147.93,-381.98"/>
<polygon fill="midnightblue" stroke="midnightblue" points="213.76,-294.37 213.4,-283.78 207.08,-292.28 213.76,-294.37"/>
</g>
<!-- Node6 -->
<g id="node6" class="node">
<title>Node6</title>
<g id="a_node6"><a xlink:href="classcmd_1_1_command_boolean_1_1_cmd_bool_not.html#aed930e84d9417830c38fbb0917e1c58a" target="_top" xlink:title="スタックトップの値を否定して，結果をスタックトップにおく．">
<polygon fill="white" stroke="black" points="0,-333 0,-363 162,-363 162,-333 0,-333"/>
<text text-anchor="start" x="8" y="-351" font-family="Helvetica,sans-Serif" font-size="10.00">cmd.CommandBoolean.CmdBool</text>
<text text-anchor="middle" x="81" y="-340" font-family="Helvetica,sans-Serif" font-size="10.00">Not.exec</text>
</a>
</g>
</g>
<!-- Node1&#45;&gt;Node6 -->
<g id="edge5" class="edge">
<title>Node1&#45;&gt;Node6</title>
<path fill="none" stroke="midnightblue" d="M201,-291.49C190.94,-302.23 176.85,-315.51 162,-324 156.08,-327.38 149.64,-330.33 143.07,-332.89"/>
<polygon fill="midnightblue" stroke="midnightblue" points="203.75,-293.66 207.85,-283.89 198.55,-288.97 203.75,-293.66"/>
</g>
<!-- Node7 -->
<g id="node7" class="node">
<title>Node7</title>
<g id="a_node7"><a xlink:href="classcmd_1_1_command_double_1_1_cmd_dbl_load.html#aed930e84d9417830c38fbb0917e1c58a" target="_top" xlink:title="イベントevから要素テキストを読み出す．">
<polygon fill="white" stroke="black" points="4.5,-284 4.5,-314 157.5,-314 157.5,-284 4.5,-284"/>
<text text-anchor="start" x="12.5" y="-302" font-family="Helvetica,sans-Serif" font-size="10.00">cmd.CommandDouble.CmdDbl</text>
<text text-anchor="middle" x="81" y="-291" font-family="Helvetica,sans-Serif" font-size="10.00">Load.exec</text>
</a>
</g>
</g>
<!-- Node1&#45;&gt;Node7 -->
<g id="edge6" class="edge">
<title>Node1&#45;&gt;Node7</title>
<path fill="none" stroke="midnightblue" d="M188.01,-279.22C178.93,-280.92 168.39,-282.88 157.54,-284.91"/>
<polygon fill="midnightblue" stroke="midnightblue" points="188.74,-282.65 197.93,-277.37 187.46,-275.77 188.74,-282.65"/>
</g>
<!-- Node8 -->
<g id="node8" class="node">
<title>Node8</title>
<g id="a_node8"><a xlink:href="classcmd_1_1_command_integer_1_1_cmd_int_load.html#aed930e84d9417830c38fbb0917e1c58a" target="_top" xlink:title="イベントevから要素テキストを読み出す．">
<polygon fill="white" stroke="black" points="7,-235 7,-265 155,-265 155,-235 7,-235"/>
<text text-anchor="start" x="15" y="-253" font-family="Helvetica,sans-Serif" font-size="10.00">cmd.CommandInteger.CmdInt</text>
<text text-anchor="middle" x="81" y="-242" font-family="Helvetica,sans-Serif" font-size="10.00">Load.exec</text>
</a>
</g>
</g>
<!-- Node1&#45;&gt;Node8 -->
<g id="edge7" class="edge">
<title>Node1&#45;&gt;Node8</title>
<path fill="none" stroke="midnightblue" d="M188.07,-269C178.31,-267.25 166.85,-265.2 155.13,-263.1"/>
<polygon fill="midnightblue" stroke="midnightblue" points="187.47,-272.45 197.93,-270.76 188.7,-265.56 187.47,-272.45"/>
</g>
<!-- Node9 -->
<g id="node9" class="node">
<title>Node9</title>
<g id="a_node9"><a xlink:href="classcmd_1_1_command_string_1_1_cmd_str_add.html#aed930e84d9417830c38fbb0917e1c58a" target="_top" xlink:title="スタックトップの二つの文字列を連結して，結果をスタックトップにおく．">
<polygon fill="white" stroke="black" points="8,-186 8,-216 154,-216 154,-186 8,-186"/>
<text text-anchor="start" x="16" y="-204" font-family="Helvetica,sans-Serif" font-size="10.00">cmd.CommandString.CmdStr</text>
<text text-anchor="middle" x="81" y="-193" font-family="Helvetica,sans-Serif" font-size="10.00">Add.exec</text>
</a>
</g>
</g>
<!-- Node1&#45;&gt;Node9 -->
<g id="edge8" class="edge">
<title>Node1&#45;&gt;Node9</title>
<path fill="none" stroke="midnightblue" d="M200.47,-256.93C190.38,-246.71 176.44,-234.17 162,-226 155.29,-222.2 147.93,-218.91 140.47,-216.07"/>
<polygon fill="midnightblue" stroke="midnightblue" points="197.95,-259.36 207.39,-264.17 203.02,-254.52 197.95,-259.36"/>
</g>
<!-- Node10 -->
<g id="node10" class="node">
<title>Node10</title>
<g id="a_node10"><a xlink:href="classcmd_1_1_command_string_1_1_cmd_str_regex_match.html#aed930e84d9417830c38fbb0917e1c58a" target="_top" xlink:title="スタックトップの文字列を，保持した正規表現に照合し，その結果のブール値をスタックトップにおく．">
<polygon fill="white" stroke="black" points="8,-137 8,-167 154,-167 154,-137 8,-137"/>
<text text-anchor="start" x="16" y="-155" font-family="Helvetica,sans-Serif" font-size="10.00">cmd.CommandString.CmdStr</text>
<text text-anchor="middle" x="81" y="-144" font-family="Helvetica,sans-Serif" font-size="10.00">RegexMatch.exec</text>
</a>
</g>
</g>
<!-- Node1&#45;&gt;Node10 -->
<g id="edge9" class="edge">
<title>Node1&#45;&gt;Node10</title>
<path fill="none" stroke="midnightblue" d="M210.21,-254.91C202.61,-233.01 187.19,-197.49 162,-177 157.26,-173.14 151.92,-169.88 146.31,-167.12"/>
<polygon fill="midnightblue" stroke="midnightblue" points="206.89,-256.02 213.32,-264.44 213.54,-253.85 206.89,-256.02"/>
</g>
<!-- Node11 -->
<g id="node11" class="node">
<title>Node11</title>
<g id="a_node11"><a xlink:href="classcmd_1_1_command_string_1_1_cmd_str_sys_var_load.html#aed930e84d9417830c38fbb0917e1c58a" target="_top" xlink:title="スタックトップにシステム変数値をおく．">
<polygon fill="white" stroke="black" points="8,-88 8,-118 154,-118 154,-88 8,-88"/>
<text text-anchor="start" x="16" y="-106" font-family="Helvetica,sans-Serif" font-size="10.00">cmd.CommandString.CmdStr</text>
<text text-anchor="middle" x="81" y="-95" font-family="Helvetica,sans-Serif" font-size="10.00">SysVarLoad.exec</text>
</a>
</g>
</g>
<!-- Node1&#45;&gt;Node11 -->
<g id="edge10" class="edge">
<title>Node1&#45;&gt;Node11</title>
<path fill="none" stroke="midnightblue" d="M214.17,-254.16C210.22,-222.92 198.12,-162.31 162,-128 157.89,-124.09 153.17,-120.79 148.13,-118.01"/>
<polygon fill="midnightblue" stroke="midnightblue" points="210.7,-254.68 215.28,-264.24 217.66,-253.91 210.7,-254.68"/>
</g>
<!-- Node12 -->
<g id="node12" class="node">
<title>Node12</title>
<g id="a_node12"><a xlink:href="classcmd_1_1_command_typed_1_1_cmd_type_opr.html#aed930e84d9417830c38fbb0917e1c58a" target="_top" xlink:title="スタックトップの二つのIntegerを演算して，結果をスタックトップにおく．">
<polygon fill="white" stroke="black" points="3.5,-39 3.5,-69 158.5,-69 158.5,-39 3.5,-39"/>
<text text-anchor="start" x="11.5" y="-57" font-family="Helvetica,sans-Serif" font-size="10.00">cmd.CommandTyped.CmdType</text>
<text text-anchor="middle" x="81" y="-46" font-family="Helvetica,sans-Serif" font-size="10.00">Opr.exec</text>
</a>
</g>
</g>
<!-- Node1&#45;&gt;Node12 -->
<g id="edge11" class="edge">
<title>Node1&#45;&gt;Node12</title>
<path fill="none" stroke="midnightblue" d="M216.38,-254.31C216.02,-215.4 209.58,-128.17 162,-79 158.26,-75.13 153.92,-71.86 149.25,-69.09"/>
<polygon fill="midnightblue" stroke="midnightblue" points="212.88,-254.32 216.34,-264.34 219.88,-254.35 212.88,-254.32"/>
</g>
<!-- Node13 -->
<g id="node13" class="node">
<title>Node13</title>
<g id="a_node13"><a xlink:href="classutil_1_1_report.html#af0022e20c64f9d3646a91a82b49c0ea8" target="_top" xlink:title="現在の入れ子深さで段差げして，関数の戻りと文字列msgを出力する。">
<polygon fill="white" stroke="black" points="41,-0.5 41,-19.5 121,-19.5 121,-0.5 41,-0.5"/>
<text text-anchor="middle" x="81" y="-7.5" font-family="Helvetica,sans-Serif" font-size="10.00">util.Report.exit</text>
</a>
</g>
</g>
<!-- Node1&#45;&gt;Node13 -->
<g id="edge12" class="edge">
<title>Node1&#45;&gt;Node13</title>
<path fill="none" stroke="midnightblue" d="M214.29,-254.36C209.34,-202.24 193.36,-62.23 162,-30 151.42,-19.12 135.88,-13.83 121.31,-11.35"/>
<polygon fill="midnightblue" stroke="midnightblue" points="210.8,-254.7 215.2,-264.34 217.77,-254.06 210.8,-254.7"/>
</g>
</g>
</svg>
        <g id="navigator" transform="translate(0 0)" fill="#404254">
                <rect fill="#f2f5e9" fill-opacity="0.5" stroke="#606060" stroke-width=".5" x="0" y="0" width="60" height="60"/>
                <use id="zoomplus" xlink:href="#zoomPlus" x="17" y="9" onmousedown="handleZoom(evt,'in')"/>
                <use id="zoomminus" xlink:href="#zoomMin" x="42" y="9" onmousedown="handleZoom(evt,'out')"/>
                <use id="reset" xlink:href="#resetDef" x="30" y="36" onmousedown="handleReset()"/>
                <g id="arrowUp" xlink:href="#dirArrow" transform="translate(30 24)" onmousedown="handlePan(0,-1)">
                  <use xlink:href="#rim" fill="#404040">
                        <set attributeName="fill" to="#808080" begin="arrowUp.mouseover" end="arrowUp.mouseout"/>
                  </use>
                  <path fill="none" stroke="white" stroke-width="1.5" d="M0,-3.0v7 M-2.5,-0.5L0,-3.0L2.5,-0.5"/>
                </g>
                <g id="arrowRight" xlink:href="#dirArrow" transform="rotate(90) translate(36 -43)" onmousedown="handlePan(1,0)">
                  <use xlink:href="#rim" fill="#404040">
                        <set attributeName="fill" to="#808080" begin="arrowRight.mouseover" end="arrowRight.mouseout"/>
                  </use>
                  <path fill="none" stroke="white" stroke-width="1.5" d="M0,-3.0v7 M-2.5,-0.5L0,-3.0L2.5,-0.5"/>
                </g>
                <g id="arrowDown" xlink:href="#dirArrow" transform="rotate(180) translate(-30 -48)" onmousedown="handlePan(0,1)">
                  <use xlink:href="#rim" fill="#404040">
                        <set attributeName="fill" to="#808080" begin="arrowDown.mouseover" end="arrowDown.mouseout"/>
                  </use>
                  <path fill="none" stroke="white" stroke-width="1.5" d="M0,-3.0v7 M-2.5,-0.5L0,-3.0L2.5,-0.5"/>
                </g>
                <g id="arrowLeft" xlink:href="#dirArrow" transform="rotate(270) translate(-36 17)" onmousedown="handlePan(-1,0)">
                  <use xlink:href="#rim" fill="#404040">
                        <set attributeName="fill" to="#808080" begin="arrowLeft.mouseover" end="arrowLeft.mouseout"/>
                  </use>
                  <path fill="none" stroke="white" stroke-width="1.5" d="M0,-3.0v7 M-2.5,-0.5L0,-3.0L2.5,-0.5"/>
                </g>
        </g>
        <svg viewBox="0 0 15 15" width="100%" height="30px" preserveAspectRatio="xMaxYMin meet">
         <g id="arrow_out" transform="scale(0.3 0.3)">
          <a xlink:href="classutil_1_1_stack_base_a8807ac20df95e5ed0d4d5e4447d68f35_icgraph_org.svg" target="_base">
           <rect id="button" ry="5" rx="5" y="6" x="6" height="38" width="38"
                fill="#f2f5e9" fill-opacity="0.5" stroke="#606060" stroke-width="1.0"/>
           <path id="arrow"
             d="M 11.500037,31.436501 C 11.940474,20.09759 22.043105,11.32322 32.158766,21.979434 L 37.068811,17.246167 C 37.068811,17.246167 37.088388,32 37.088388,32 L 22.160133,31.978069 C 22.160133,31.978069 26.997745,27.140456 26.997745,27.140456 C 18.528582,18.264221 13.291696,25.230495 11.500037,31.436501 z"
             style="fill:#404040;"/>
          </a>
         </g>
        </svg>
</svg>
