<?xml version="1.0" encoding="UTF-8" standalone="no"?>
<!DOCTYPE svg PUBLIC "-//W3C//DTD SVG 1.1//EN"
 "http://www.w3.org/Graphics/SVG/1.1/DTD/svg11.dtd">
<!-- Generated by graphviz version 2.47.1 (20210417.1919)
 -->
<!-- Title: typ Pages: 1 -->
<svg width="388pt" height="449pt"
 viewBox="0.00 0.00 388.00 448.50" xmlns="http://www.w3.org/2000/svg" xmlns:xlink="http://www.w3.org/1999/xlink">
<g id="graph0" class="graph" transform="scale(1 1) rotate(0) translate(4 444.5)">
<title>typ</title>
<polygon fill="white" stroke="transparent" points="-4,4 -4,-444.5 384,-444.5 384,4 -4,4"/>
<!-- Node1 -->
<g id="node1" class="node">
<title>Node1</title>
<g id="a_node1"><a xlink:title="データ型を返す．">
<polygon fill="#bfbfbf" stroke="black" points="350,-213.5 350,-232.5 380,-232.5 380,-213.5 350,-213.5"/>
<text text-anchor="middle" x="365" y="-220.5" font-family="Helvetica,sans-Serif" font-size="10.00">typ</text>
</a>
</g>
</g>
<!-- Node2 -->
<g id="node2" class="node">
<title>Node2</title>
<g id="a_node2"><a xlink:href="classframe_1_1_frame_stack_uni.html#aaa5606ad3baa7526b404ad5609a65d7f" target="_top" xlink:title="フレームfpに、指定された内容と対応する値型の新しいメモリセルを追加する。型ごとに定められた初期値が代入される。">
<polygon fill="white" stroke="black" points="166,-410 166,-440 302,-440 302,-410 166,-410"/>
<text text-anchor="start" x="174" y="-428" font-family="Helvetica,sans-Serif" font-size="10.00">frame.FrameStackUni.alloc</text>
<text text-anchor="middle" x="234" y="-417" font-family="Helvetica,sans-Serif" font-size="10.00">VariableEntry</text>
</a>
</g>
</g>
<!-- Node1&#45;&gt;Node2 -->
<g id="edge1" class="edge">
<title>Node1&#45;&gt;Node2</title>
<path fill="none" stroke="midnightblue" d="M364.27,-242.96C363.63,-279.43 356.96,-357.13 314,-401 310.49,-404.58 306.46,-407.64 302.13,-410.24"/>
<polygon fill="midnightblue" stroke="midnightblue" points="367.77,-242.67 364.3,-232.66 360.77,-242.65 367.77,-242.67"/>
</g>
<!-- Node3 -->
<g id="node3" class="node">
<title>Node3</title>
<g id="a_node3"><a xlink:href="classcmd_1_1_command_factory.html#a86f892ccd0ac694da35dd13dd56f8cbd" target="_top" xlink:title="値型xtに応じて，変数からの値の読み出し命令CmdLoadを返すファクトリ手続き．">
<polygon fill="white" stroke="black" points="161.5,-361 161.5,-391 306.5,-391 306.5,-361 161.5,-361"/>
<text text-anchor="start" x="169.5" y="-379" font-family="Helvetica,sans-Serif" font-size="10.00">cmd.CommandFactory.create</text>
<text text-anchor="middle" x="234" y="-368" font-family="Helvetica,sans-Serif" font-size="10.00">CmdLoad</text>
</a>
</g>
</g>
<!-- Node1&#45;&gt;Node3 -->
<g id="edge2" class="edge">
<title>Node1&#45;&gt;Node3</title>
<path fill="none" stroke="midnightblue" d="M361.73,-242.91C357.44,-271.17 345.57,-322.71 314,-352 310.32,-355.41 306.17,-358.34 301.75,-360.85"/>
<polygon fill="midnightblue" stroke="midnightblue" points="365.24,-243.06 363.1,-232.68 358.3,-242.13 365.24,-243.06"/>
</g>
<!-- Node4 -->
<g id="node4" class="node">
<title>Node4</title>
<g id="a_node4"><a xlink:href="classcmd_1_1_command_factory.html#af7c39735d3fc1647c72061c97e8debfd" target="_top" xlink:title="値型xtに応じて，値の変数への書き込み命令CmdStore命令を返すファクトリ手続き．">
<polygon fill="white" stroke="black" points="161.5,-312 161.5,-342 306.5,-342 306.5,-312 161.5,-312"/>
<text text-anchor="start" x="169.5" y="-330" font-family="Helvetica,sans-Serif" font-size="10.00">cmd.CommandFactory.create</text>
<text text-anchor="middle" x="234" y="-319" font-family="Helvetica,sans-Serif" font-size="10.00">CmdStore</text>
</a>
</g>
</g>
<!-- Node1&#45;&gt;Node4 -->
<g id="edge3" class="edge">
<title>Node1&#45;&gt;Node4</title>
<path fill="none" stroke="midnightblue" d="M356.56,-241.99C348.6,-259.93 334.31,-286.35 314,-302 308.99,-305.86 303.36,-309.14 297.49,-311.91"/>
<polygon fill="midnightblue" stroke="midnightblue" points="359.87,-243.13 360.51,-232.55 353.42,-240.42 359.87,-243.13"/>
</g>
<!-- Node6 -->
<g id="node6" class="node">
<title>Node6</title>
<g id="a_node6"><a xlink:href="classframe_1_1_entry.html#a3137357d0abb2bd75321d6e19024956a" target="_top" xlink:title="メモリセルを表す文字列を返す。">
<polygon fill="white" stroke="black" points="190,-273.5 190,-292.5 278,-292.5 278,-273.5 190,-273.5"/>
<text text-anchor="middle" x="234" y="-280.5" font-family="Helvetica,sans-Serif" font-size="10.00">frame.Entry.data</text>
</a>
</g>
</g>
<!-- Node1&#45;&gt;Node6 -->
<g id="edge5" class="edge">
<title>Node1&#45;&gt;Node6</title>
<path fill="none" stroke="midnightblue" d="M347.71,-239.57C338.54,-248.03 326.44,-257.82 314,-264 302.88,-269.53 290.08,-273.5 278.05,-276.33"/>
<polygon fill="midnightblue" stroke="midnightblue" points="350.18,-242.05 354.96,-232.6 345.33,-237.01 350.18,-242.05"/>
</g>
<!-- Node8 -->
<g id="node8" class="node">
<title>Node8</title>
<g id="a_node8"><a xlink:href="classmachine_1_1_var.html#a3137357d0abb2bd75321d6e19024956a" target="_top" xlink:title="ノードが保持するデータの文字列表現を返す. interface XFormattableで必要。">
<polygon fill="white" stroke="black" points="216.5,-235.5 216.5,-254.5 251.5,-254.5 251.5,-235.5 216.5,-235.5"/>
<text text-anchor="middle" x="234" y="-242.5" font-family="Helvetica,sans-Serif" font-size="10.00">data</text>
</a>
</g>
</g>
<!-- Node1&#45;&gt;Node8 -->
<g id="edge7" class="edge">
<title>Node1&#45;&gt;Node8</title>
<path fill="none" stroke="midnightblue" d="M339.65,-227.15C313.97,-231.53 274.2,-238.32 251.8,-242.13"/>
<polygon fill="midnightblue" stroke="midnightblue" points="340.43,-230.57 349.7,-225.44 339.26,-223.67 340.43,-230.57"/>
</g>
<!-- Node9 -->
<g id="node9" class="node">
<title>Node9</title>
<g id="a_node9"><a xlink:href="classframe_1_1_frame_stack_uni.html#ad115983756ebf37cb4541323bb500f58" target="_top" xlink:title="フレームfpで変数IDがさすBooleanHolder型のコンテナを取得する. exp.">
<polygon fill="white" stroke="black" points="165.5,-186 165.5,-216 302.5,-216 302.5,-186 165.5,-186"/>
<text text-anchor="start" x="173.5" y="-204" font-family="Helvetica,sans-Serif" font-size="10.00">frame.FrameStackUni.fetch</text>
<text text-anchor="middle" x="234" y="-193" font-family="Helvetica,sans-Serif" font-size="10.00">BooleanHolder</text>
</a>
</g>
</g>
<!-- Node1&#45;&gt;Node9 -->
<g id="edge8" class="edge">
<title>Node1&#45;&gt;Node9</title>
<path fill="none" stroke="midnightblue" d="M339.56,-218.83C328.89,-217.01 315.8,-214.78 302.54,-212.52"/>
<polygon fill="midnightblue" stroke="midnightblue" points="339.26,-222.33 349.7,-220.56 340.43,-215.43 339.26,-222.33"/>
</g>
<!-- Node10 -->
<g id="node10" class="node">
<title>Node10</title>
<g id="a_node10"><a xlink:href="classframe_1_1_frame_stack_uni.html#a044e14a4aace8751c934473c9f3f3c0b" target="_top" xlink:title="フレームfpで変数IDがさすDoubleHolder型のコンテナを取得する. exp.">
<polygon fill="white" stroke="black" points="165.5,-137 165.5,-167 302.5,-167 302.5,-137 165.5,-137"/>
<text text-anchor="start" x="173.5" y="-155" font-family="Helvetica,sans-Serif" font-size="10.00">frame.FrameStackUni.fetch</text>
<text text-anchor="middle" x="234" y="-144" font-family="Helvetica,sans-Serif" font-size="10.00">DoubleHolder</text>
</a>
</g>
</g>
<!-- Node1&#45;&gt;Node10 -->
<g id="edge9" class="edge">
<title>Node1&#45;&gt;Node10</title>
<path fill="none" stroke="midnightblue" d="M349.26,-205.62C340.03,-195.7 327.37,-183.74 314,-176 308.17,-172.62 301.82,-169.68 295.33,-167.12"/>
<polygon fill="midnightblue" stroke="midnightblue" points="346.88,-208.21 356.15,-213.33 352.1,-203.54 346.88,-208.21"/>
</g>
<!-- Node11 -->
<g id="node11" class="node">
<title>Node11</title>
<g id="a_node11"><a xlink:href="classframe_1_1_frame_stack_uni.html#a0d179bee2c2a63bd7f49f8f2494f9c97" target="_top" xlink:title="フレームfpで変数IDがさすIntegerHolder型のコンテナを取得する.">
<polygon fill="white" stroke="black" points="165.5,-88 165.5,-118 302.5,-118 302.5,-88 165.5,-88"/>
<text text-anchor="start" x="173.5" y="-106" font-family="Helvetica,sans-Serif" font-size="10.00">frame.FrameStackUni.fetch</text>
<text text-anchor="middle" x="234" y="-95" font-family="Helvetica,sans-Serif" font-size="10.00">IntegerHolder</text>
</a>
</g>
</g>
<!-- Node1&#45;&gt;Node11 -->
<g id="edge10" class="edge">
<title>Node1&#45;&gt;Node11</title>
<path fill="none" stroke="midnightblue" d="M358.81,-203.45C352.04,-181.71 338.12,-147.02 314,-127 309.81,-123.52 305.12,-120.55 300.18,-118"/>
<polygon fill="midnightblue" stroke="midnightblue" points="355.49,-204.6 361.64,-213.23 362.22,-202.65 355.49,-204.6"/>
</g>
<!-- Node12 -->
<g id="node12" class="node">
<title>Node12</title>
<g id="a_node12"><a xlink:href="classframe_1_1_frame_stack_uni.html#a23824a7fbc3f712377edcf8c3ab252c1" target="_top" xlink:title="フレームfpで変数IDがさすStringHolder型のコンテナを取得する.">
<polygon fill="white" stroke="black" points="165.5,-39 165.5,-69 302.5,-69 302.5,-39 165.5,-39"/>
<text text-anchor="start" x="173.5" y="-57" font-family="Helvetica,sans-Serif" font-size="10.00">frame.FrameStackUni.fetch</text>
<text text-anchor="middle" x="234" y="-46" font-family="Helvetica,sans-Serif" font-size="10.00">StringHolder</text>
</a>
</g>
</g>
<!-- Node1&#45;&gt;Node12 -->
<g id="edge11" class="edge">
<title>Node1&#45;&gt;Node12</title>
<path fill="none" stroke="midnightblue" d="M362.75,-203.29C359.72,-172.26 349.35,-112.06 314,-78 310.49,-74.62 306.52,-71.71 302.27,-69.21"/>
<polygon fill="midnightblue" stroke="midnightblue" points="359.26,-203.62 363.57,-213.3 366.24,-203.05 359.26,-203.62"/>
</g>
<!-- Node13 -->
<g id="node13" class="node">
<title>Node13</title>
<g id="a_node13"><a xlink:href="classmachine_1_1_var_table.html#a48c387cd3361c4f21e65cb65029ec21a" target="_top" xlink:title="与えられた名前をもつ変数を記号表で見つけて返し， もし見つからなければ，Universe.createVariable(name)で， 最汎型をもつ新しい変数を生成して返す．">
<polygon fill="white" stroke="black" points="154,-0.5 154,-19.5 314,-19.5 314,-0.5 154,-0.5"/>
<text text-anchor="middle" x="234" y="-7.5" font-family="Helvetica,sans-Serif" font-size="10.00">machine.VarTable.lookupVariable</text>
</a>
</g>
</g>
<!-- Node1&#45;&gt;Node13 -->
<g id="edge12" class="edge">
<title>Node1&#45;&gt;Node13</title>
<path fill="none" stroke="midnightblue" d="M361.48,-203.08C355.45,-158.65 338.86,-53.46 314,-29 310.18,-25.24 305.75,-22.18 300.98,-19.69"/>
<polygon fill="midnightblue" stroke="midnightblue" points="358.03,-203.74 362.81,-213.2 364.98,-202.83 358.03,-203.74"/>
</g>
<!-- Node5 -->
<g id="node5" class="node">
<title>Node5</title>
<g id="a_node5"><a xlink:href="classast_1_1_ast_assign.html#ae1ba45bad2d2854e7378d5322c0c2c57" target="_top" xlink:title="コードを生成する．">
<polygon fill="white" stroke="black" points="0,-317.5 0,-336.5 118,-336.5 118,-317.5 0,-317.5"/>
<text text-anchor="middle" x="59" y="-324.5" font-family="Helvetica,sans-Serif" font-size="10.00">ast.AstAssign.gencode</text>
</a>
</g>
</g>
<!-- Node4&#45;&gt;Node5 -->
<g id="edge4" class="edge">
<title>Node4&#45;&gt;Node5</title>
<path fill="none" stroke="midnightblue" d="M151.18,-327C140.02,-327 128.75,-327 118.12,-327"/>
<polygon fill="midnightblue" stroke="midnightblue" points="151.39,-330.5 161.39,-327 151.39,-323.5 151.39,-330.5"/>
</g>
<!-- Node7 -->
<g id="node7" class="node">
<title>Node7</title>
<g id="a_node7"><a xlink:href="classframe_1_1_entry.html#ad146fa8579a5f8a876c4688cc5a68520" target="_top" xlink:title="メモリセルの内容を表す文字列を返す。">
<polygon fill="white" stroke="black" points="7.5,-273.5 7.5,-292.5 110.5,-292.5 110.5,-273.5 7.5,-273.5"/>
<text text-anchor="middle" x="59" y="-280.5" font-family="Helvetica,sans-Serif" font-size="10.00">frame.Entry.toString</text>
</a>
</g>
</g>
<!-- Node6&#45;&gt;Node7 -->
<g id="edge6" class="edge">
<title>Node6&#45;&gt;Node7</title>
<path fill="none" stroke="midnightblue" d="M179.63,-283C157.65,-283 132.32,-283 110.63,-283"/>
<polygon fill="midnightblue" stroke="midnightblue" points="179.79,-286.5 189.79,-283 179.79,-279.5 179.79,-286.5"/>
</g>
</g>
</svg>
