<?xml version="1.0" encoding="UTF-8" standalone="no"?>
<!DOCTYPE svg PUBLIC "-//W3C//DTD SVG 1.1//EN"
 "http://www.w3.org/Graphics/SVG/1.1/DTD/svg11.dtd">
<!-- Generated by graphviz version 2.47.1 (20210417.1919)
 -->
<!-- Title: AstMathOper.IntegerRel Pages: 1 -->
<svg width="863pt" height="380pt"
 viewBox="0.00 0.00 863.00 379.71" xmlns="http://www.w3.org/2000/svg" xmlns:xlink="http://www.w3.org/1999/xlink">
<g id="graph0" class="graph" transform="scale(1 1) rotate(0) translate(4 375.71)">
<title>AstMathOper.IntegerRel</title>
<polygon fill="white" stroke="transparent" points="-4,4 -4,-375.71 859,-375.71 859,4 -4,4"/>
<!-- Node1 -->
<g id="node1" class="node">
<title>Node1</title>
<g id="a_node1"><a xlink:title=" ">
<polygon fill="#bfbfbf" stroke="black" points="733,-19.5 733,-38.5 855,-38.5 855,-19.5 733,-19.5"/>
<text text-anchor="middle" x="794" y="-26.5" font-family="Helvetica,sans-Serif" font-size="10.00">AstMathOper.IntegerRel</text>
</a>
</g>
</g>
<!-- Node2 -->
<g id="node2" class="node">
<title>Node2</title>
<g id="a_node2"><a xlink:title=" ">
<polygon fill="white" stroke="#bfbfbf" points="628,-78.5 628,-97.5 696,-97.5 696,-78.5 628,-78.5"/>
<text text-anchor="middle" x="662" y="-85.5" font-family="Helvetica,sans-Serif" font-size="10.00">AstRelOper</text>
</a>
</g>
</g>
<!-- Node2&#45;&gt;Node1 -->
<g id="edge1" class="edge">
<title>Node2&#45;&gt;Node1</title>
<path fill="none" stroke="midnightblue" d="M693.57,-74.13C717.65,-63.2 750.59,-48.25 771.83,-38.61"/>
<polygon fill="midnightblue" stroke="midnightblue" points="691.84,-71.07 684.18,-78.39 694.73,-77.44 691.84,-71.07"/>
</g>
<!-- Node3 -->
<g id="node3" class="node">
<title>Node3</title>
<g id="a_node3"><a xlink:href="classast_1_1_ast_oper.html" target="_top" xlink:title=" ">
<polygon fill="white" stroke="black" points="538,-138.5 538,-157.5 591,-157.5 591,-138.5 538,-138.5"/>
<text text-anchor="middle" x="564.5" y="-145.5" font-family="Helvetica,sans-Serif" font-size="10.00">AstOper</text>
</a>
</g>
</g>
<!-- Node3&#45;&gt;Node2 -->
<g id="edge2" class="edge">
<title>Node3&#45;&gt;Node2</title>
<path fill="none" stroke="midnightblue" d="M589.46,-132.95C607.09,-121.87 630.53,-107.14 645.69,-97.62"/>
<polygon fill="midnightblue" stroke="midnightblue" points="587.45,-130.08 580.84,-138.36 591.17,-136 587.45,-130.08"/>
</g>
<!-- Node4 -->
<g id="node4" class="node">
<title>Node4</title>
<g id="a_node4"><a xlink:href="classast_1_1_ast_node.html" target="_top" xlink:title="タグなしの順アクセスの子供をもてる抽象構文木のノードのクラス。">
<polygon fill="white" stroke="black" points="412,-172.5 412,-191.5 467,-191.5 467,-172.5 412,-172.5"/>
<text text-anchor="middle" x="439.5" y="-179.5" font-family="Helvetica,sans-Serif" font-size="10.00">AstNode</text>
</a>
</g>
</g>
<!-- Node4&#45;&gt;Node3 -->
<g id="edge3" class="edge">
<title>Node4&#45;&gt;Node3</title>
<path fill="none" stroke="midnightblue" d="M476.98,-171.92C496.51,-166.52 520.09,-160 537.71,-155.13"/>
<polygon fill="midnightblue" stroke="midnightblue" points="475.9,-168.58 467.19,-174.62 477.76,-175.33 475.9,-168.58"/>
</g>
<!-- Node5 -->
<g id="node5" class="node">
<title>Node5</title>
<g id="a_node5"><a xlink:href="classast_1_1_ast_node_base.html" target="_top" xlink:title=" ">
<polygon fill="white" stroke="red" points="159.5,-330.5 159.5,-349.5 236.5,-349.5 236.5,-330.5 159.5,-330.5"/>
<text text-anchor="middle" x="198" y="-337.5" font-family="Helvetica,sans-Serif" font-size="10.00">AstNodeBase</text>
</a>
</g>
</g>
<!-- Node5&#45;&gt;Node4 -->
<g id="edge4" class="edge">
<title>Node5&#45;&gt;Node4</title>
<path fill="none" stroke="midnightblue" d="M246.82,-333.92C280.96,-327.67 326.57,-315.26 360,-291 397.56,-263.74 424.16,-213 434.14,-191.75"/>
<polygon fill="midnightblue" stroke="midnightblue" points="245.89,-330.53 236.62,-335.67 247.07,-337.43 245.89,-330.53"/>
</g>
<!-- Node6 -->
<g id="node6" class="node">
<title>Node6</title>
<g id="a_node6"><a xlink:title=" ">
<polygon fill="white" stroke="#bfbfbf" points="0,-331.5 0,-350.5 42,-350.5 42,-331.5 0,-331.5"/>
<text text-anchor="middle" x="21" y="-338.5" font-family="Helvetica,sans-Serif" font-size="10.00">String</text>
</a>
</g>
</g>
<!-- Node6&#45;&gt;Node3 -->
<g id="edge16" class="edge">
<title>Node6&#45;&gt;Node3</title>
<path fill="none" stroke="#9a32cd" stroke-dasharray="5,2" d="M42.36,-356.08C47.82,-359.33 53.91,-362.3 60,-364 91.27,-372.73 178.75,-377.44 266,-359 402.29,-330.19 524.04,-195.07 555.59,-157.64"/>
<polygon fill="#9a32cd" stroke="#9a32cd" points="44.15,-353.07 33.87,-350.51 40.31,-358.92 44.15,-353.07"/>
<text text-anchor="middle" x="322" y="-357" font-family="Helvetica,sans-Serif" font-size="10.00"> op</text>
</g>
<!-- Node6&#45;&gt;Node5 -->
<g id="edge5" class="edge">
<title>Node6&#45;&gt;Node5</title>
<path fill="none" stroke="#9a32cd" stroke-dasharray="5,2" d="M52.26,-340.83C81.98,-340.66 127.41,-340.4 159.42,-340.21"/>
<polygon fill="#9a32cd" stroke="#9a32cd" points="52.05,-337.33 42.07,-340.89 52.09,-344.33 52.05,-337.33"/>
<text text-anchor="middle" x="86" y="-354" font-family="Helvetica,sans-Serif" font-size="10.00"> MOD_AST</text>
<text text-anchor="middle" x="86" y="-343" font-family="Helvetica,sans-Serif" font-size="10.00">mod_</text>
</g>
<!-- Node19 -->
<g id="node13" class="node">
<title>Node19</title>
<g id="a_node13"><a xlink:href="classformat_1_1_style.html" target="_top" xlink:title="ノードの表示スタイルに関するプロパティのクラス.">
<polygon fill="white" stroke="red" points="178.5,-292.5 178.5,-311.5 217.5,-311.5 217.5,-292.5 178.5,-292.5"/>
<text text-anchor="middle" x="198" y="-299.5" font-family="Helvetica,sans-Serif" font-size="10.00">Style</text>
</a>
</g>
</g>
<!-- Node6&#45;&gt;Node19 -->
<g id="edge13" class="edge">
<title>Node6&#45;&gt;Node19</title>
<path fill="none" stroke="#9a32cd" stroke-dasharray="5,2" d="M34.45,-323.38C41.05,-315.58 49.89,-307.23 60,-303 99.49,-286.47 151.18,-292.69 178.39,-297.84"/>
<polygon fill="#9a32cd" stroke="#9a32cd" points="31.59,-321.36 28.21,-331.41 37.12,-325.66 31.59,-321.36"/>
<text text-anchor="middle" x="86" y="-328" font-family="Helvetica,sans-Serif" font-size="10.00"> operSTR</text>
<text text-anchor="middle" x="86" y="-317" font-family="Helvetica,sans-Serif" font-size="10.00">parenLPAR</text>
<text text-anchor="middle" x="86" y="-306" font-family="Helvetica,sans-Serif" font-size="10.00">parenRPAR</text>
</g>
<!-- Node12 -->
<g id="node7" class="node">
<title>Node12</title>
<g id="a_node7"><a xlink:href="interfaceast_1_1_node.html" target="_top" xlink:title=" ">
<polygon fill="white" stroke="red" points="178,-254.5 178,-273.5 218,-273.5 218,-254.5 178,-254.5"/>
<text text-anchor="middle" x="198" y="-261.5" font-family="Helvetica,sans-Serif" font-size="10.00">Node</text>
</a>
</g>
</g>
<!-- Node12&#45;&gt;Node4 -->
<g id="edge6" class="edge">
<title>Node12&#45;&gt;Node4</title>
<path fill="none" stroke="midnightblue" d="M227.88,-255.9C239.7,-252.56 253.52,-248.63 266,-245 307.86,-232.83 319.12,-232.13 360,-217 380.43,-209.44 403.09,-199.12 418.79,-191.64"/>
<polygon fill="midnightblue" stroke="midnightblue" points="226.76,-252.58 218.08,-258.66 228.65,-259.32 226.76,-252.58"/>
</g>
<!-- Node14 -->
<g id="node8" class="node">
<title>Node14</title>
<g id="a_node8"><a xlink:href="interfaceformat_1_1_x_formattable_1_1_navigatable.html" target="_top" xlink:title="木構造の分岐ノードとして清書可能なオブジェクトのクラス">
<polygon fill="white" stroke="red" points="133,-216.5 133,-235.5 263,-235.5 263,-216.5 133,-216.5"/>
<text text-anchor="middle" x="198" y="-223.5" font-family="Helvetica,sans-Serif" font-size="10.00">XFormattable.Navigatable</text>
</a>
</g>
</g>
<!-- Node14&#45;&gt;Node4 -->
<g id="edge7" class="edge">
<title>Node14&#45;&gt;Node4</title>
<path fill="none" stroke="midnightblue" d="M262.88,-214.65C292.45,-209.36 328.03,-202.93 360,-197 377.33,-193.78 396.78,-190.07 411.99,-187.14"/>
<polygon fill="midnightblue" stroke="midnightblue" points="261.92,-211.27 252.69,-216.48 263.15,-218.16 261.92,-211.27"/>
</g>
<!-- Node15 -->
<g id="node9" class="node">
<title>Node15</title>
<g id="a_node9"><a xlink:title=" ">
<polygon fill="white" stroke="#bfbfbf" points="134,-167 134,-197 262,-197 262,-167 134,-167"/>
<text text-anchor="start" x="142" y="-185" font-family="Helvetica,sans-Serif" font-size="10.00">java.util.function.Function</text>
<text text-anchor="middle" x="198" y="-174" font-family="Helvetica,sans-Serif" font-size="10.00">&lt; ast.Node, String &gt;</text>
</a>
</g>
</g>
<!-- Node15&#45;&gt;Node4 -->
<g id="edge8" class="edge">
<title>Node15&#45;&gt;Node4</title>
<path fill="none" stroke="#9a32cd" stroke-dasharray="5,2" d="M272.46,-182C319.77,-182 378.49,-182 411.91,-182"/>
<polygon fill="#9a32cd" stroke="#9a32cd" points="272.24,-178.5 262.24,-182 272.24,-185.5 272.24,-178.5"/>
<text text-anchor="middle" x="322" y="-185" font-family="Helvetica,sans-Serif" font-size="10.00"> printerFunc</text>
</g>
<!-- Node16 -->
<g id="node10" class="node">
<title>Node16</title>
<g id="a_node10"><a xlink:title=" ">
<polygon fill="white" stroke="#bfbfbf" points="130,-118 130,-148 266,-148 266,-118 130,-118"/>
<text text-anchor="start" x="138" y="-136" font-family="Helvetica,sans-Serif" font-size="10.00">java.util.function.Consumer</text>
<text text-anchor="middle" x="198" y="-125" font-family="Helvetica,sans-Serif" font-size="10.00">&lt; ast.Node &gt;</text>
</a>
</g>
</g>
<!-- Node16&#45;&gt;Node4 -->
<g id="edge9" class="edge">
<title>Node16&#45;&gt;Node4</title>
<path fill="none" stroke="#9a32cd" stroke-dasharray="5,2" d="M275.83,-148.72C322.52,-158.27 379.24,-169.88 411.87,-176.55"/>
<polygon fill="#9a32cd" stroke="#9a32cd" points="276.53,-145.29 266.03,-146.71 275.13,-152.15 276.53,-145.29"/>
<text text-anchor="middle" x="322" y="-167" font-family="Helvetica,sans-Serif" font-size="10.00"> typerFunc</text>
</g>
<!-- Node17 -->
<g id="node11" class="node">
<title>Node17</title>
<g id="a_node11"><a xlink:title=" ">
<polygon fill="white" stroke="#bfbfbf" points="153,-79.5 153,-98.5 243,-98.5 243,-79.5 153,-79.5"/>
<text text-anchor="middle" x="198" y="-86.5" font-family="Helvetica,sans-Serif" font-size="10.00">List&lt; ast.Node &gt;</text>
</a>
</g>
</g>
<!-- Node17&#45;&gt;Node4 -->
<g id="edge10" class="edge">
<title>Node17&#45;&gt;Node4</title>
<path fill="none" stroke="#9a32cd" stroke-dasharray="5,2" d="M252.07,-100.99C284.02,-109.06 325.14,-120.97 360,-136 383.79,-146.26 409.31,-162.25 424.59,-172.42"/>
<polygon fill="#9a32cd" stroke="#9a32cd" points="252.58,-97.51 242.03,-98.5 250.9,-104.3 252.58,-97.51"/>
<text text-anchor="middle" x="322" y="-139" font-family="Helvetica,sans-Serif" font-size="10.00"> children_</text>
</g>
<!-- Node18 -->
<g id="node12" class="node">
<title>Node18</title>
<g id="a_node12"><a xlink:title=" ">
<polygon fill="white" stroke="#bfbfbf" points="172,-41.5 172,-60.5 224,-60.5 224,-41.5 172,-41.5"/>
<text text-anchor="middle" x="198" y="-48.5" font-family="Helvetica,sans-Serif" font-size="10.00">Boolean</text>
</a>
</g>
</g>
<!-- Node18&#45;&gt;Node4 -->
<g id="edge11" class="edge">
<title>Node18&#45;&gt;Node4</title>
<path fill="none" stroke="#9a32cd" stroke-dasharray="5,2" d="M234.19,-54.8C268.43,-59.78 320.86,-70.91 360,-95 368.71,-100.36 412.13,-150.94 430.39,-172.42"/>
<polygon fill="#9a32cd" stroke="#9a32cd" points="234.56,-51.32 224.18,-53.44 233.62,-58.26 234.56,-51.32"/>
<text text-anchor="middle" x="322" y="-98" font-family="Helvetica,sans-Serif" font-size="10.00"> DEBUG_CHILD</text>
</g>
<!-- Node19&#45;&gt;Node4 -->
<g id="edge12" class="edge">
<title>Node19&#45;&gt;Node4</title>
<path fill="none" stroke="#9a32cd" stroke-dasharray="5,2" d="M227.61,-294.8C239.59,-291.55 253.59,-287.44 266,-283 308.91,-267.64 320.72,-265.12 360,-242 385.87,-226.77 413.05,-204.33 427.67,-191.65"/>
<polygon fill="#9a32cd" stroke="#9a32cd" points="226.47,-291.48 217.7,-297.42 228.26,-298.25 226.47,-291.48"/>
<text text-anchor="middle" x="322" y="-279" font-family="Helvetica,sans-Serif" font-size="10.00"> sty</text>
</g>
<!-- Node20 -->
<g id="node14" class="node">
<title>Node20</title>
<g id="a_node14"><a xlink:href="interfacecmd_1_1_generatable_1_1_evaluatable.html" target="_top" xlink:title="評価して値を返すノードのインタフェース．必ずしもコードを生成しなくても良い．">
<polygon fill="white" stroke="black" points="378,-82.5 378,-101.5 501,-101.5 501,-82.5 378,-82.5"/>
<text text-anchor="middle" x="439.5" y="-89.5" font-family="Helvetica,sans-Serif" font-size="10.00">Generatable.Evaluatable</text>
</a>
</g>
</g>
<!-- Node20&#45;&gt;Node3 -->
<g id="edge14" class="edge">
<title>Node20&#45;&gt;Node3</title>
<path fill="none" stroke="midnightblue" d="M471.01,-105.89C493.31,-116.04 522.98,-129.55 542.63,-138.5"/>
<polygon fill="midnightblue" stroke="midnightblue" points="472.2,-102.59 461.64,-101.63 469.3,-108.96 472.2,-102.59"/>
</g>
<!-- Node21 -->
<g id="node15" class="node">
<title>Node21</title>
<g id="a_node15"><a xlink:href="interfacecmd_1_1_generatable.html" target="_top" xlink:title="変換してコードを生成できるノードのインタフェース.">
<polygon fill="white" stroke="black" points="163.5,-0.5 163.5,-19.5 232.5,-19.5 232.5,-0.5 163.5,-0.5"/>
<text text-anchor="middle" x="198" y="-7.5" font-family="Helvetica,sans-Serif" font-size="10.00">Generatable</text>
</a>
</g>
</g>
<!-- Node21&#45;&gt;Node1 -->
<g id="edge17" class="edge">
<title>Node21&#45;&gt;Node1</title>
<path fill="none" stroke="midnightblue" d="M242.75,-7.66C290.75,-5.3 370.09,-2 438.5,-2 438.5,-2 438.5,-2 663,-2 698.38,-2 738.07,-11.71 764.18,-19.48"/>
<polygon fill="midnightblue" stroke="midnightblue" points="242.51,-4.17 232.7,-8.16 242.86,-11.16 242.51,-4.17"/>
</g>
<!-- Node21&#45;&gt;Node20 -->
<g id="edge15" class="edge">
<title>Node21&#45;&gt;Node20</title>
<path fill="none" stroke="midnightblue" d="M243.02,-13.85C276.13,-17.84 322.12,-25.73 360,-41 385.78,-51.39 412.14,-70.66 426.81,-82.3"/>
<polygon fill="midnightblue" stroke="midnightblue" points="243.08,-10.34 232.75,-12.69 242.29,-17.29 243.08,-10.34"/>
</g>
</g>
</svg>
