<?xml version="1.0" encoding="UTF-8" standalone="no"?>
<!DOCTYPE svg PUBLIC "-//W3C//DTD SVG 1.1//EN"
 "http://www.w3.org/Graphics/SVG/1.1/DTD/svg11.dtd">
<!-- Generated by graphviz version 2.47.1 (20210417.1919)
 -->
<!-- Title: Match Pages: 1 -->
<svg width="867pt" height="1106pt"
 viewBox="0.00 0.00 867.00 1105.64" xmlns="http://www.w3.org/2000/svg" xmlns:xlink="http://www.w3.org/1999/xlink">
<g id="graph0" class="graph" transform="scale(1 1) rotate(0) translate(4 1101.64)">
<title>Match</title>
<polygon fill="white" stroke="transparent" points="-4,4 -4,-1101.64 863,-1101.64 863,4 -4,4"/>
<!-- Node1 -->
<g id="node1" class="node">
<title>Node1</title>
<g id="a_node1"><a xlink:title="AsaxEventReaderを用いた簡単な構造テキストの操作器の実装例.">
<polygon fill="#bfbfbf" stroke="black" points="815,-474.61 815,-493.61 859,-493.61 859,-474.61 815,-474.61"/>
<text text-anchor="middle" x="837" y="-481.61" font-family="Helvetica,sans-Serif" font-size="10.00">Match</text>
</a>
</g>
</g>
<!-- Node2 -->
<g id="node2" class="node">
<title>Node2</title>
<g id="a_node2"><a xlink:href="interfaceapp_1_1_query_holder.html" target="_top" xlink:title=" ">
<polygon fill="white" stroke="black" points="545.5,-1071.61 545.5,-1090.61 616.5,-1090.61 616.5,-1071.61 545.5,-1071.61"/>
<text text-anchor="middle" x="581" y="-1078.61" font-family="Helvetica,sans-Serif" font-size="10.00">QueryHolder</text>
</a>
</g>
</g>
<!-- Node2&#45;&gt;Node1 -->
<g id="edge1" class="edge">
<title>Node2&#45;&gt;Node1</title>
<path fill="none" stroke="midnightblue" d="M626.8,-1091.69C675.94,-1100.34 753.59,-1104.84 797,-1060.11 838.1,-1017.77 836.59,-565.89 836.08,-493.79"/>
<polygon fill="midnightblue" stroke="midnightblue" points="627.24,-1088.21 616.77,-1089.79 625.94,-1095.09 627.24,-1088.21"/>
</g>
<!-- Node3 -->
<g id="node3" class="node">
<title>Node3</title>
<g id="a_node3"><a xlink:title=" ">
<polygon fill="white" stroke="#bfbfbf" points="541,-1033.61 541,-1052.61 621,-1052.61 621,-1033.61 541,-1033.61"/>
<text text-anchor="middle" x="581" y="-1040.61" font-family="Helvetica,sans-Serif" font-size="10.00">CommandLine</text>
</a>
</g>
</g>
<!-- Node3&#45;&gt;Node1 -->
<g id="edge2" class="edge">
<title>Node3&#45;&gt;Node1</title>
<path fill="none" stroke="#9a32cd" stroke-dasharray="5,2" d="M631.51,-1045.09C687.82,-1046.18 774.85,-1043.92 797,-1021.11 835.17,-981.8 836.14,-563.92 836.03,-494.01"/>
<polygon fill="#9a32cd" stroke="#9a32cd" points="631.46,-1041.59 621.38,-1044.85 631.29,-1048.59 631.46,-1041.59"/>
<text text-anchor="middle" x="725" y="-1048.11" font-family="Helvetica,sans-Serif" font-size="10.00"> cmd</text>
</g>
<!-- Node4 -->
<g id="node4" class="node">
<title>Node4</title>
<g id="a_node4"><a xlink:title=" ">
<polygon fill="white" stroke="#bfbfbf" points="533.5,-995.61 533.5,-1014.61 628.5,-1014.61 628.5,-995.61 533.5,-995.61"/>
<text text-anchor="middle" x="581" y="-1002.61" font-family="Helvetica,sans-Serif" font-size="10.00">static PrintStream</text>
</a>
</g>
</g>
<!-- Node4&#45;&gt;Node1 -->
<g id="edge3" class="edge">
<title>Node4&#45;&gt;Node1</title>
<path fill="none" stroke="#9a32cd" stroke-dasharray="5,2" d="M638.71,-1006.62C694.98,-1006.8 775.79,-1003.03 797,-981.11 832.21,-944.73 835.64,-559.61 835.97,-493.69"/>
<polygon fill="#9a32cd" stroke="#9a32cd" points="638.53,-1003.12 628.51,-1006.55 638.48,-1010.12 638.53,-1003.12"/>
<text text-anchor="middle" x="725" y="-1009.11" font-family="Helvetica,sans-Serif" font-size="10.00"> out</text>
</g>
<!-- Node5 -->
<g id="node5" class="node">
<title>Node5</title>
<g id="a_node5"><a xlink:title=" ">
<polygon fill="white" stroke="#bfbfbf" points="38,-746.61 38,-765.61 80,-765.61 80,-746.61 38,-746.61"/>
<text text-anchor="middle" x="59" y="-753.61" font-family="Helvetica,sans-Serif" font-size="10.00">String</text>
</a>
</g>
</g>
<!-- Node5&#45;&gt;Node1 -->
<g id="edge4" class="edge">
<title>Node5&#45;&gt;Node1</title>
<path fill="none" stroke="#9a32cd" stroke-dasharray="5,2" d="M73.07,-773.86C98.24,-806.58 156.93,-876.12 224,-909.11 338.29,-965.35 710.15,-987.29 797,-894.11 825.21,-863.84 834.29,-553.04 835.77,-493.83"/>
<polygon fill="#9a32cd" stroke="#9a32cd" points="75.7,-771.53 66.88,-765.66 70.11,-775.75 75.7,-771.53"/>
<text text-anchor="middle" x="447" y="-1015.11" font-family="Helvetica,sans-Serif" font-size="10.00"> eventScannerName</text>
<text text-anchor="middle" x="447" y="-1004.11" font-family="Helvetica,sans-Serif" font-size="10.00">inputCharset</text>
<text text-anchor="middle" x="447" y="-993.11" font-family="Helvetica,sans-Serif" font-size="10.00">outfile</text>
<text text-anchor="middle" x="447" y="-982.11" font-family="Helvetica,sans-Serif" font-size="10.00">queryCharset</text>
<text text-anchor="middle" x="447" y="-971.11" font-family="Helvetica,sans-Serif" font-size="10.00">queryFile</text>
<text text-anchor="middle" x="447" y="-960.11" font-family="Helvetica,sans-Serif" font-size="10.00">queryString</text>
</g>
<!-- Node19 -->
<g id="node19" class="node">
<title>Node19</title>
<g id="a_node19"><a xlink:href="classmachine_1_1_x_machine.html" target="_top" xlink:title="クエリの実行系モジュールのクラス。">
<polygon fill="white" stroke="black" points="551,-531.61 551,-550.61 611,-550.61 611,-531.61 551,-531.61"/>
<text text-anchor="middle" x="581" y="-538.61" font-family="Helvetica,sans-Serif" font-size="10.00">XMachine</text>
</a>
</g>
</g>
<!-- Node5&#45;&gt;Node19 -->
<g id="edge22" class="edge">
<title>Node5&#45;&gt;Node19</title>
<path fill="none" stroke="#9a32cd" stroke-dasharray="5,2" d="M85.01,-770.64C141.04,-801.07 278.64,-863.79 367,-802.11 386.02,-788.84 367.56,-768.42 385,-753.11 427.46,-715.84 466.24,-762.04 509,-725.11 564.2,-677.45 576.69,-581.72 579.34,-550.91"/>
<polygon fill="#9a32cd" stroke="#9a32cd" points="86.57,-767.51 76.13,-765.71 83.18,-773.63 86.57,-767.51"/>
<text text-anchor="middle" x="295.5" y="-831.11" font-family="Helvetica,sans-Serif" font-size="10.00"> MOD_MACHINE</text>
</g>
<!-- Node27 -->
<g id="node27" class="node">
<title>Node27</title>
<g id="a_node27"><a xlink:href="interfaceevent_1_1_event_readable.html" target="_top" xlink:title="構造文書走査器が備えるべき機能を記述するインタフェース.">
<polygon fill="white" stroke="black" points="254,-455.61 254,-474.61 337,-474.61 337,-455.61 254,-455.61"/>
<text text-anchor="middle" x="295.5" y="-462.61" font-family="Helvetica,sans-Serif" font-size="10.00">EventReadable</text>
</a>
</g>
</g>
<!-- Node5&#45;&gt;Node27 -->
<g id="edge31" class="edge">
<title>Node5&#45;&gt;Node27</title>
<path fill="none" stroke="#9a32cd" stroke-dasharray="5,2" d="M89.74,-744.85C124.12,-730.11 179.38,-700.8 206,-656.11 225.67,-623.1 199.07,-513.36 224,-484.11 231.48,-475.34 242.55,-470.4 253.72,-467.68"/>
<polygon fill="#9a32cd" stroke="#9a32cd" points="88.12,-741.73 80.22,-748.78 90.8,-748.2 88.12,-741.73"/>
<text text-anchor="middle" x="171" y="-723.11" font-family="Helvetica,sans-Serif" font-size="10.00"> ROOT_TAG</text>
</g>
<!-- Node30 -->
<g id="node30" class="node">
<title>Node30</title>
<g id="a_node30"><a xlink:href="classmachine_1_1_o_v_machine.html" target="_top" xlink:title="仮想機械のクラス">
<polygon fill="white" stroke="black" points="261.5,-417.61 261.5,-436.61 329.5,-436.61 329.5,-417.61 261.5,-417.61"/>
<text text-anchor="middle" x="295.5" y="-424.61" font-family="Helvetica,sans-Serif" font-size="10.00">OVMachine</text>
</a>
</g>
</g>
<!-- Node5&#45;&gt;Node30 -->
<g id="edge35" class="edge">
<title>Node5&#45;&gt;Node30</title>
<path fill="none" stroke="#9a32cd" stroke-dasharray="5,2" d="M78.05,-739.58C90.65,-727.24 107.11,-709.41 118,-691.11 130.08,-670.82 118.96,-657.47 136,-641.11 159.53,-618.53 185.37,-644.37 206,-619.11 254.91,-559.25 173.87,-504.96 224,-446.11 233.21,-435.31 247.85,-430.32 261.41,-428.13"/>
<polygon fill="#9a32cd" stroke="#9a32cd" points="75.6,-737.08 70.79,-746.52 80.44,-742.15 75.6,-737.08"/>
<text text-anchor="middle" x="171" y="-644.11" font-family="Helvetica,sans-Serif" font-size="10.00"> MOD_OVM</text>
</g>
<!-- Node6 -->
<g id="node6" class="node">
<title>Node6</title>
<g id="a_node6"><a xlink:title=" ">
<polygon fill="white" stroke="#bfbfbf" points="546.5,-455.61 546.5,-474.61 615.5,-474.61 615.5,-455.61 546.5,-455.61"/>
<text text-anchor="middle" x="581" y="-462.61" font-family="Helvetica,sans-Serif" font-size="10.00">static String</text>
</a>
</g>
</g>
<!-- Node6&#45;&gt;Node1 -->
<g id="edge5" class="edge">
<title>Node6&#45;&gt;Node1</title>
<path fill="none" stroke="#9a32cd" stroke-dasharray="5,2" d="M625.83,-466.58C669.35,-468.31 737.92,-471.8 797,-478.11 802.86,-478.74 809.18,-479.62 815,-480.52"/>
<polygon fill="#9a32cd" stroke="#9a32cd" points="625.72,-463.07 615.6,-466.19 625.45,-470.07 625.72,-463.07"/>
<text text-anchor="middle" x="725" y="-481.11" font-family="Helvetica,sans-Serif" font-size="10.00"> externalCharset</text>
</g>
<!-- Node7 -->
<g id="node7" class="node">
<title>Node7</title>
<g id="a_node7"><a xlink:title=" ">
<polygon fill="white" stroke="#bfbfbf" points="536,-417.61 536,-436.61 626,-436.61 626,-417.61 536,-417.61"/>
<text text-anchor="middle" x="581" y="-424.61" font-family="Helvetica,sans-Serif" font-size="10.00">static final String</text>
</a>
</g>
</g>
<!-- Node7&#45;&gt;Node1 -->
<g id="edge6" class="edge">
<title>Node7&#45;&gt;Node1</title>
<path fill="none" stroke="#9a32cd" stroke-dasharray="5,2" d="M636.36,-425.1C681.17,-425.36 745.49,-430.25 797,-452.11 808.93,-457.18 820.1,-467.08 827.4,-474.54"/>
<polygon fill="#9a32cd" stroke="#9a32cd" points="636.25,-421.6 626.26,-425.12 636.27,-428.6 636.25,-421.6"/>
<text text-anchor="middle" x="725" y="-455.11" font-family="Helvetica,sans-Serif" font-size="10.00"> DEFAULT_EVENT_SCANNER</text>
</g>
<!-- Node8 -->
<g id="node8" class="node">
<title>Node8</title>
<g id="a_node8"><a xlink:title=" ">
<polygon fill="white" stroke="#bfbfbf" points="536.5,-827.61 536.5,-846.61 625.5,-846.61 625.5,-827.61 536.5,-827.61"/>
<text text-anchor="middle" x="581" y="-834.61" font-family="Helvetica,sans-Serif" font-size="10.00">Match.RunTimer</text>
</a>
</g>
</g>
<!-- Node8&#45;&gt;Node1 -->
<g id="edge7" class="edge">
<title>Node8&#45;&gt;Node1</title>
<path fill="none" stroke="#9a32cd" stroke-dasharray="5,2" d="M635.87,-847.61C684.82,-853.74 755.52,-853.49 797,-812.11 820.19,-788.98 833.05,-545.83 835.55,-493.86"/>
<polygon fill="#9a32cd" stroke="#9a32cd" points="636.16,-844.12 625.78,-846.22 635.21,-851.05 636.16,-844.12"/>
<text text-anchor="middle" x="725" y="-853.11" font-family="Helvetica,sans-Serif" font-size="10.00"> timer</text>
</g>
<!-- Node9 -->
<g id="node9" class="node">
<title>Node9</title>
<g id="a_node9"><a xlink:title=" ">
<polygon fill="white" stroke="#bfbfbf" points="278,-858.61 278,-877.61 313,-877.61 313,-858.61 278,-858.61"/>
<text text-anchor="middle" x="295.5" y="-865.61" font-family="Helvetica,sans-Serif" font-size="10.00">long</text>
</a>
</g>
</g>
<!-- Node9&#45;&gt;Node8 -->
<g id="edge8" class="edge">
<title>Node9&#45;&gt;Node8</title>
<path fill="none" stroke="#9a32cd" stroke-dasharray="5,2" d="M322.89,-860.92C336.42,-856.78 352.95,-851.04 367,-844.11 375.62,-839.86 375.8,-834.9 385,-832.11 435.24,-816.9 496.13,-821.94 536.35,-828.29"/>
<polygon fill="#9a32cd" stroke="#9a32cd" points="321.83,-857.58 313.22,-863.75 323.81,-864.29 321.83,-857.58"/>
<text text-anchor="middle" x="447" y="-890.11" font-family="Helvetica,sans-Serif" font-size="10.00"> compl_</text>
<text text-anchor="middle" x="447" y="-879.11" font-family="Helvetica,sans-Serif" font-size="10.00">nanoSec</text>
<text text-anchor="middle" x="447" y="-868.11" font-family="Helvetica,sans-Serif" font-size="10.00">run_</text>
<text text-anchor="middle" x="447" y="-857.11" font-family="Helvetica,sans-Serif" font-size="10.00">scaleMin</text>
<text text-anchor="middle" x="447" y="-846.11" font-family="Helvetica,sans-Serif" font-size="10.00">scaleSec</text>
<text text-anchor="middle" x="447" y="-835.11" font-family="Helvetica,sans-Serif" font-size="10.00">start_</text>
</g>
<!-- Node9&#45;&gt;Node19 -->
<g id="edge33" class="edge">
<title>Node9&#45;&gt;Node19</title>
<path fill="none" stroke="#9a32cd" stroke-dasharray="5,2" d="M323.01,-864.2C337.42,-860.91 354.75,-854.92 367,-844.11 380.71,-832.01 371.93,-819.9 385,-807.11 428.36,-764.7 468.38,-795.16 509,-750.11 564.17,-688.92 576.75,-583.1 579.37,-550.77"/>
<polygon fill="#9a32cd" stroke="#9a32cd" points="322.28,-860.78 313.15,-866.15 323.64,-867.64 322.28,-860.78"/>
<text text-anchor="middle" x="447" y="-810.11" font-family="Helvetica,sans-Serif" font-size="10.00"> EMPTY_MASK</text>
</g>
<!-- Node10 -->
<g id="node10" class="node">
<title>Node10</title>
<g id="a_node10"><a xlink:title=" ">
<polygon fill="white" stroke="#bfbfbf" points="556,-379.61 556,-398.61 606,-398.61 606,-379.61 556,-379.61"/>
<text text-anchor="middle" x="581" y="-386.61" font-family="Helvetica,sans-Serif" font-size="10.00">Options</text>
</a>
</g>
</g>
<!-- Node10&#45;&gt;Node1 -->
<g id="edge9" class="edge">
<title>Node10&#45;&gt;Node1</title>
<path fill="none" stroke="#9a32cd" stroke-dasharray="5,2" d="M615.96,-383.18C661.31,-377.17 742.27,-373.35 797,-410.11 819.66,-425.34 830.07,-458.11 834,-474.45"/>
<polygon fill="#9a32cd" stroke="#9a32cd" points="615.44,-379.72 606.04,-384.61 616.44,-386.65 615.44,-379.72"/>
<text text-anchor="middle" x="725" y="-413.11" font-family="Helvetica,sans-Serif" font-size="10.00"> opts</text>
</g>
<!-- Node11 -->
<g id="node11" class="node">
<title>Node11</title>
<g id="a_node11"><a xlink:title=" ">
<polygon fill="white" stroke="#bfbfbf" points="543,-341.61 543,-360.61 619,-360.61 619,-341.61 543,-341.61"/>
<text text-anchor="middle" x="581" y="-348.61" font-family="Helvetica,sans-Serif" font-size="10.00">List&lt; String &gt;</text>
</a>
</g>
</g>
<!-- Node11&#45;&gt;Node1 -->
<g id="edge10" class="edge">
<title>Node11&#45;&gt;Node1</title>
<path fill="none" stroke="#9a32cd" stroke-dasharray="5,2" d="M629.02,-339.96C676.46,-331.64 749.33,-327.23 797,-364.11 832.17,-391.33 836.09,-450.84 836.2,-474.31"/>
<polygon fill="#9a32cd" stroke="#9a32cd" points="628.19,-336.56 619.01,-341.84 629.48,-343.44 628.19,-336.56"/>
<text text-anchor="middle" x="725" y="-367.11" font-family="Helvetica,sans-Serif" font-size="10.00"> infiles</text>
</g>
<!-- Node12 -->
<g id="node12" class="node">
<title>Node12</title>
<g id="a_node12"><a xlink:href="interfacemachine_1_1_runnable.html" target="_top" xlink:title="実行可能なプログラムのインタフェース.">
<polygon fill="white" stroke="black" points="266.5,-773.61 266.5,-792.61 324.5,-792.61 324.5,-773.61 266.5,-773.61"/>
<text text-anchor="middle" x="295.5" y="-780.61" font-family="Helvetica,sans-Serif" font-size="10.00">Runnable</text>
</a>
</g>
</g>
<!-- Node12&#45;&gt;Node1 -->
<g id="edge11" class="edge">
<title>Node12&#45;&gt;Node1</title>
<path fill="none" stroke="#9a32cd" stroke-dasharray="5,2" d="M334.5,-790.68C377.99,-797.67 450.73,-804.25 509,-784.11 662.78,-730.98 692.78,-683.06 797,-558.11 813.93,-537.82 826.5,-508.98 832.35,-494"/>
<polygon fill="#9a32cd" stroke="#9a32cd" points="335.07,-787.22 324.62,-789 333.9,-794.12 335.07,-787.22"/>
<text text-anchor="middle" x="581" y="-779.11" font-family="Helvetica,sans-Serif" font-size="10.00"> prog</text>
</g>
<!-- Node12&#45;&gt;Node19 -->
<g id="edge26" class="edge">
<title>Node12&#45;&gt;Node19</title>
<path fill="none" stroke="#9a32cd" stroke-dasharray="5,2" d="M334.52,-779.71C346.12,-777.01 358.13,-772.28 367,-764.11 384.37,-748.11 367,-729.41 385,-714.11 427.71,-677.82 464.58,-725.31 509,-691.11 556.72,-654.38 573.84,-577.65 578.52,-550.71"/>
<polygon fill="#9a32cd" stroke="#9a32cd" points="333.7,-776.31 324.53,-781.61 335,-783.18 333.7,-776.31"/>
<text text-anchor="middle" x="447" y="-717.11" font-family="Helvetica,sans-Serif" font-size="10.00"> prog</text>
</g>
<!-- Node13 -->
<g id="node13" class="node">
<title>Node13</title>
<g id="a_node13"><a xlink:title=" ">
<polygon fill="white" stroke="#bfbfbf" points="531,-303.61 531,-322.61 631,-322.61 631,-303.61 531,-303.61"/>
<text text-anchor="middle" x="581" y="-310.61" font-family="Helvetica,sans-Serif" font-size="10.00">Match.WriteFormat</text>
</a>
</g>
</g>
<!-- Node13&#45;&gt;Node1 -->
<g id="edge12" class="edge">
<title>Node13&#45;&gt;Node1</title>
<path fill="none" stroke="#9a32cd" stroke-dasharray="5,2" d="M641.19,-306.98C696.52,-302.6 773.96,-300.36 797,-319.11 821.54,-339.09 832.37,-441.89 835.21,-474.31"/>
<polygon fill="#9a32cd" stroke="#9a32cd" points="640.81,-303.5 631.14,-307.82 641.39,-310.48 640.81,-303.5"/>
<text text-anchor="middle" x="725" y="-322.11" font-family="Helvetica,sans-Serif" font-size="10.00"> WRITE_FORMAT</text>
</g>
<!-- Node14 -->
<g id="node14" class="node">
<title>Node14</title>
<g id="a_node14"><a xlink:title=" ">
<polygon fill="white" stroke="#bfbfbf" points="527,-265.61 527,-284.61 635,-284.61 635,-265.61 527,-265.61"/>
<text text-anchor="middle" x="581" y="-272.61" font-family="Helvetica,sans-Serif" font-size="10.00">CommandLineParser</text>
</a>
</g>
</g>
<!-- Node14&#45;&gt;Node1 -->
<g id="edge13" class="edge">
<title>Node14&#45;&gt;Node1</title>
<path fill="none" stroke="#9a32cd" stroke-dasharray="5,2" d="M626.76,-263.46C674.83,-253.86 750.57,-247.61 797,-288.11 825.63,-313.09 833.82,-438.77 835.59,-474.58"/>
<polygon fill="#9a32cd" stroke="#9a32cd" points="625.99,-260.04 616.94,-265.54 627.45,-266.89 625.99,-260.04"/>
<text text-anchor="middle" x="725" y="-291.11" font-family="Helvetica,sans-Serif" font-size="10.00"> optParser</text>
</g>
<!-- Node15 -->
<g id="node15" class="node">
<title>Node15</title>
<g id="a_node15"><a xlink:title=" ">
<polygon fill="white" stroke="#bfbfbf" points="562,-227.61 562,-246.61 600,-246.61 600,-227.61 562,-227.61"/>
<text text-anchor="middle" x="581" y="-234.61" font-family="Helvetica,sans-Serif" font-size="10.00">Lock</text>
</a>
</g>
</g>
<!-- Node15&#45;&gt;Node1 -->
<g id="edge14" class="edge">
<title>Node15&#45;&gt;Node1</title>
<path fill="none" stroke="#9a32cd" stroke-dasharray="5,2" d="M610.27,-233.51C662.2,-227.55 769.94,-218.52 797,-242.11 832.68,-273.23 835.8,-433.07 836,-474.37"/>
<polygon fill="#9a32cd" stroke="#9a32cd" points="609.6,-230.06 600.08,-234.72 610.43,-237.01 609.6,-230.06"/>
<text text-anchor="middle" x="725" y="-245.11" font-family="Helvetica,sans-Serif" font-size="10.00"> stdinLock</text>
</g>
<!-- Node16 -->
<g id="node16" class="node">
<title>Node16</title>
<g id="a_node16"><a xlink:title=" ">
<polygon fill="white" stroke="#bfbfbf" points="44.5,-662.61 44.5,-681.61 73.5,-681.61 73.5,-662.61 44.5,-662.61"/>
<text text-anchor="middle" x="59" y="-669.61" font-family="Helvetica,sans-Serif" font-size="10.00">int</text>
</a>
</g>
</g>
<!-- Node16&#45;&gt;Node1 -->
<g id="edge15" class="edge">
<title>Node16&#45;&gt;Node1</title>
<path fill="none" stroke="#9a32cd" stroke-dasharray="5,2" d="M76.54,-689.55C88.46,-702.38 104.72,-720.41 118,-737.11 168.81,-801.01 152.83,-847.13 224,-887.11 279.55,-918.32 752.22,-910.44 797,-865.11 823.93,-837.86 833.98,-550.81 835.72,-493.89"/>
<polygon fill="#9a32cd" stroke="#9a32cd" points="78.8,-686.84 69.41,-681.94 73.69,-691.63 78.8,-686.84"/>
<text text-anchor="middle" x="447" y="-930.11" font-family="Helvetica,sans-Serif" font-size="10.00"> BLKSIZE</text>
<text text-anchor="middle" x="447" y="-919.11" font-family="Helvetica,sans-Serif" font-size="10.00">MAXBUF</text>
<text text-anchor="middle" x="447" y="-908.11" font-family="Helvetica,sans-Serif" font-size="10.00">depth</text>
</g>
<!-- Node16&#45;&gt;Node19 -->
<g id="edge28" class="edge">
<title>Node16&#45;&gt;Node19</title>
<path fill="none" stroke="#9a32cd" stroke-dasharray="5,2" d="M83.75,-671.11C171.12,-667.25 471.49,-652.59 509,-632.11 543.47,-613.29 566.78,-569.95 575.81,-550.67"/>
<polygon fill="#9a32cd" stroke="#9a32cd" points="83.37,-667.62 73.53,-671.55 83.68,-674.61 83.37,-667.62"/>
<text text-anchor="middle" x="295.5" y="-688.11" font-family="Helvetica,sans-Serif" font-size="10.00"> INIT_CAPACITY</text>
<text text-anchor="middle" x="295.5" y="-677.11" font-family="Helvetica,sans-Serif" font-size="10.00">INS_ID_STDIN</text>
<text text-anchor="middle" x="295.5" y="-666.11" font-family="Helvetica,sans-Serif" font-size="10.00">UNDEF</text>
</g>
<!-- Node16&#45;&gt;Node30 -->
<g id="edge40" class="edge">
<title>Node16&#45;&gt;Node30</title>
<path fill="none" stroke="#9a32cd" stroke-dasharray="5,2" d="M75.36,-654.74C112.37,-612.85 203.62,-509.41 206,-505.11 219.32,-481.15 204.3,-465.18 224,-446.11 233.93,-436.51 248.18,-431.64 261.28,-429.21"/>
<polygon fill="#9a32cd" stroke="#9a32cd" points="72.53,-652.66 68.53,-662.47 77.77,-657.3 72.53,-652.66"/>
<text text-anchor="middle" x="171" y="-610.11" font-family="Helvetica,sans-Serif" font-size="10.00"> cmd_idx</text>
<text text-anchor="middle" x="171" y="-599.11" font-family="Helvetica,sans-Serif" font-size="10.00">fp</text>
<text text-anchor="middle" x="171" y="-588.11" font-family="Helvetica,sans-Serif" font-size="10.00">initCapacity</text>
</g>
<!-- Node17 -->
<g id="node17" class="node">
<title>Node17</title>
<g id="a_node17"><a xlink:title=" ">
<polygon fill="white" stroke="#bfbfbf" points="532,-166.61 532,-185.61 630,-185.61 630,-166.61 532,-166.61"/>
<text text-anchor="middle" x="581" y="-173.61" font-family="Helvetica,sans-Serif" font-size="10.00">static final boolean</text>
</a>
</g>
</g>
<!-- Node17&#45;&gt;Node1 -->
<g id="edge16" class="edge">
<title>Node17&#45;&gt;Node1</title>
<path fill="none" stroke="#9a32cd" stroke-dasharray="5,2" d="M640.57,-168.38C696.24,-162.46 774.68,-158.27 797,-178.11 819.77,-198.35 832.87,-424.28 835.5,-474.33"/>
<polygon fill="#9a32cd" stroke="#9a32cd" points="640.01,-164.92 630.46,-169.5 640.79,-171.88 640.01,-164.92"/>
<text text-anchor="middle" x="725" y="-214.11" font-family="Helvetica,sans-Serif" font-size="10.00"> DEBUG_DECORA</text>
<text text-anchor="middle" x="725" y="-203.11" font-family="Helvetica,sans-Serif" font-size="10.00">DEBUG_REMOVE_SPACE</text>
<text text-anchor="middle" x="725" y="-192.11" font-family="Helvetica,sans-Serif" font-size="10.00">HAS_ARG</text>
<text text-anchor="middle" x="725" y="-181.11" font-family="Helvetica,sans-Serif" font-size="10.00">NO_ARG</text>
</g>
<!-- Node18 -->
<g id="node18" class="node">
<title>Node18</title>
<g id="a_node18"><a xlink:title=" ">
<polygon fill="white" stroke="#bfbfbf" points="531.5,-128.61 531.5,-147.61 630.5,-147.61 630.5,-128.61 531.5,-128.61"/>
<text text-anchor="middle" x="581" y="-135.61" font-family="Helvetica,sans-Serif" font-size="10.00">compile.XCompiler</text>
</a>
</g>
</g>
<!-- Node18&#45;&gt;Node1 -->
<g id="edge17" class="edge">
<title>Node18&#45;&gt;Node1</title>
<path fill="none" stroke="#9a32cd" stroke-dasharray="5,2" d="M623.26,-126.18C671.56,-115.01 750.79,-105.81 797,-149.11 821.46,-172.04 833.37,-422.01 835.61,-474.49"/>
<polygon fill="#9a32cd" stroke="#9a32cd" points="622.34,-122.81 613.45,-128.58 624,-129.61 622.34,-122.81"/>
<text text-anchor="middle" x="725" y="-152.11" font-family="Helvetica,sans-Serif" font-size="10.00"> XC</text>
</g>
<!-- Node19&#45;&gt;Node1 -->
<g id="edge18" class="edge">
<title>Node19&#45;&gt;Node1</title>
<path fill="none" stroke="#9a32cd" stroke-dasharray="5,2" d="M621.29,-543.43C665.77,-544.57 739.52,-541.87 797,-517.11 809.22,-511.85 820.51,-501.43 827.76,-493.7"/>
<polygon fill="#9a32cd" stroke="#9a32cd" points="621.29,-539.93 611.18,-543.1 621.06,-546.93 621.29,-539.93"/>
<text text-anchor="middle" x="725" y="-546.11" font-family="Helvetica,sans-Serif" font-size="10.00"> XM</text>
</g>
<!-- Node20 -->
<g id="node20" class="node">
<title>Node20</title>
<g id="a_node20"><a xlink:href="interfacemachine_1_1_context.html" target="_top" xlink:title="実行系の記憶機構（環境）を抽象化したインタフェース.">
<polygon fill="white" stroke="black" points="270,-239.61 270,-258.61 321,-258.61 321,-239.61 270,-239.61"/>
<text text-anchor="middle" x="295.5" y="-246.61" font-family="Helvetica,sans-Serif" font-size="10.00">Context</text>
</a>
</g>
</g>
<!-- Node20&#45;&gt;Node19 -->
<g id="edge19" class="edge">
<title>Node20&#45;&gt;Node19</title>
<path fill="none" stroke="midnightblue" d="M331.42,-242.62C379.13,-235.98 463.9,-232.58 509,-281.11 544.8,-319.64 496.83,-474.03 527,-517.11 532.68,-525.22 541.78,-530.64 550.84,-534.24"/>
<polygon fill="midnightblue" stroke="midnightblue" points="330.62,-239.2 321.26,-244.16 331.67,-246.12 330.62,-239.2"/>
</g>
<!-- Node21 -->
<g id="node21" class="node">
<title>Node21</title>
<g id="a_node21"><a xlink:href="interfacemachine_1_1_system_readable.html" target="_top" xlink:title="システム変数の辞書を抽象化したインタフェース.">
<polygon fill="white" stroke="black" points="13,-192.61 13,-211.61 105,-211.61 105,-192.61 13,-192.61"/>
<text text-anchor="middle" x="59" y="-199.61" font-family="Helvetica,sans-Serif" font-size="10.00">SystemReadable</text>
</a>
</g>
</g>
<!-- Node21&#45;&gt;Node19 -->
<g id="edge20" class="edge">
<title>Node21&#45;&gt;Node19</title>
<path fill="none" stroke="midnightblue" d="M115.64,-202.07C229.75,-202.56 481.84,-206.75 509,-234.11 553.39,-278.84 491.18,-465.27 527,-517.11 532.63,-525.26 541.71,-530.68 550.78,-534.28"/>
<polygon fill="midnightblue" stroke="midnightblue" points="115.38,-198.57 105.37,-202.04 115.36,-205.57 115.38,-198.57"/>
</g>
<!-- Node38 -->
<g id="node38" class="node">
<title>Node38</title>
<g id="a_node38"><a xlink:href="classmachine_1_1_system_scope.html" target="_top" xlink:title="システム変数にアクセスするための読み出し専用スコープ．">
<polygon fill="white" stroke="black" points="256.5,-163.61 256.5,-182.61 334.5,-182.61 334.5,-163.61 256.5,-163.61"/>
<text text-anchor="middle" x="295.5" y="-170.61" font-family="Helvetica,sans-Serif" font-size="10.00">SystemScope</text>
</a>
</g>
</g>
<!-- Node21&#45;&gt;Node38 -->
<g id="edge48" class="edge">
<title>Node21&#45;&gt;Node38</title>
<path fill="none" stroke="#9a32cd" stroke-dasharray="5,2" d="M104.87,-190.21C115.05,-187.87 125.85,-185.66 136,-184.11 176.77,-177.91 223.98,-175.2 256.2,-174.02"/>
<polygon fill="#9a32cd" stroke="#9a32cd" points="103.87,-186.85 94.95,-192.57 105.49,-193.66 103.87,-186.85"/>
<text text-anchor="middle" x="171" y="-187.11" font-family="Helvetica,sans-Serif" font-size="10.00"> sys</text>
</g>
<!-- Node22 -->
<g id="node22" class="node">
<title>Node22</title>
<g id="a_node22"><a xlink:title=" ">
<polygon fill="white" stroke="#bfbfbf" points="257.5,-125.61 257.5,-144.61 333.5,-144.61 333.5,-125.61 257.5,-125.61"/>
<text text-anchor="middle" x="295.5" y="-132.61" font-family="Helvetica,sans-Serif" font-size="10.00">static BitsBuf</text>
</a>
</g>
</g>
<!-- Node22&#45;&gt;Node19 -->
<g id="edge21" class="edge">
<title>Node22&#45;&gt;Node19</title>
<path fill="none" stroke="#9a32cd" stroke-dasharray="5,2" d="M344.02,-137.96C403.22,-141.99 497.97,-150.22 509,-162.11 535.85,-191.08 504.76,-484.48 527,-517.11 532.57,-525.29 541.65,-530.73 550.72,-534.32"/>
<polygon fill="#9a32cd" stroke="#9a32cd" points="343.98,-134.45 333.77,-137.28 343.52,-141.44 343.98,-134.45"/>
<text text-anchor="middle" x="447" y="-165.11" font-family="Helvetica,sans-Serif" font-size="10.00"> bitsbuf</text>
</g>
<!-- Node23 -->
<g id="node23" class="node">
<title>Node23</title>
<g id="a_node23"><a xlink:title=" ">
<polygon fill="white" stroke="#bfbfbf" points="254,-87.61 254,-106.61 337,-106.61 337,-87.61 254,-87.61"/>
<text text-anchor="middle" x="295.5" y="-94.61" font-family="Helvetica,sans-Serif" font-size="10.00">static ReportKt</text>
</a>
</g>
</g>
<!-- Node23&#45;&gt;Node19 -->
<g id="edge23" class="edge">
<title>Node23&#45;&gt;Node19</title>
<path fill="none" stroke="#9a32cd" stroke-dasharray="5,2" d="M347.45,-100.93C406.83,-105.88 498.27,-115.32 509,-127.11 538.2,-159.2 502.65,-481.21 527,-517.11 532.61,-525.39 541.81,-530.86 550.98,-534.44"/>
<polygon fill="#9a32cd" stroke="#9a32cd" points="347.38,-97.41 337.12,-100.08 346.81,-104.38 347.38,-97.41"/>
<text text-anchor="middle" x="447" y="-130.11" font-family="Helvetica,sans-Serif" font-size="10.00"> repo</text>
</g>
<!-- Node24 -->
<g id="node24" class="node">
<title>Node24</title>
<g id="a_node24"><a xlink:title=" ">
<polygon fill="white" stroke="#bfbfbf" points="26.5,-491.61 26.5,-510.61 91.5,-510.61 91.5,-491.61 26.5,-491.61"/>
<text text-anchor="middle" x="59" y="-498.61" font-family="Helvetica,sans-Serif" font-size="10.00">TraceLevel</text>
</a>
</g>
</g>
<!-- Node24&#45;&gt;Node19 -->
<g id="edge24" class="edge">
<title>Node24&#45;&gt;Node19</title>
<path fill="none" stroke="#9a32cd" stroke-dasharray="5,2" d="M101.57,-509.04C107.7,-511.72 113.47,-515.31 118,-520.11 139.46,-542.85 111.23,-569.05 136,-588.11 152.66,-600.94 301.14,-588.96 509,-556.11 522.81,-553.93 538,-550.82 550.76,-548"/>
<polygon fill="#9a32cd" stroke="#9a32cd" points="102.36,-505.6 91.77,-505.52 100,-512.19 102.36,-505.6"/>
<text text-anchor="middle" x="295.5" y="-594.11" font-family="Helvetica,sans-Serif" font-size="10.00"> LOG</text>
</g>
<!-- Node24&#45;&gt;Node30 -->
<g id="edge37" class="edge">
<title>Node24&#45;&gt;Node30</title>
<path fill="none" stroke="#9a32cd" stroke-dasharray="5,2" d="M101.86,-497.17C132.41,-492.83 173.91,-483.79 206,-465.11 216.05,-459.26 214.01,-452.07 224,-446.11 235.32,-439.36 249.08,-434.96 261.43,-432.11"/>
<polygon fill="#9a32cd" stroke="#9a32cd" points="101.01,-493.75 91.55,-498.52 101.92,-500.69 101.01,-493.75"/>
<text text-anchor="middle" x="171" y="-493.11" font-family="Helvetica,sans-Serif" font-size="10.00"> LOG</text>
</g>
<!-- Node25 -->
<g id="node25" class="node">
<title>Node25</title>
<g id="a_node25"><a xlink:title=" ">
<polygon fill="white" stroke="#bfbfbf" points="224,-724.11 224,-754.11 367,-754.11 367,-724.11 224,-724.11"/>
<text text-anchor="start" x="232" y="-742.11" font-family="Helvetica,sans-Serif" font-size="10.00">AutoStack&lt; machine.Multi</text>
<text text-anchor="middle" x="295.5" y="-731.11" font-family="Helvetica,sans-Serif" font-size="10.00">HashMap&lt; machine.Call &gt; &gt;</text>
</a>
</g>
</g>
<!-- Node25&#45;&gt;Node19 -->
<g id="edge25" class="edge">
<title>Node25&#45;&gt;Node19</title>
<path fill="none" stroke="#9a32cd" stroke-dasharray="5,2" d="M352.25,-719.35C357.51,-716.34 362.54,-712.94 367,-709.11 378.52,-699.24 372.47,-688.67 385,-680.11 431.28,-648.5 462.82,-688.88 509,-657.11 548.3,-630.09 569.78,-573.49 577.1,-550.81"/>
<polygon fill="#9a32cd" stroke="#9a32cd" points="350.5,-716.32 343.24,-724.04 353.73,-722.53 350.5,-716.32"/>
<text text-anchor="middle" x="447" y="-683.11" font-family="Helvetica,sans-Serif" font-size="10.00"> CS</text>
</g>
<!-- Node26 -->
<g id="node26" class="node">
<title>Node26</title>
<g id="a_node26"><a xlink:href="interfacemachine_1_1_frame_stackable.html" target="_top" xlink:title=" ">
<polygon fill="white" stroke="black" points="251.5,-616.61 251.5,-635.61 339.5,-635.61 339.5,-616.61 251.5,-616.61"/>
<text text-anchor="middle" x="295.5" y="-623.61" font-family="Helvetica,sans-Serif" font-size="10.00">FrameStackable</text>
</a>
</g>
</g>
<!-- Node26&#45;&gt;Node19 -->
<g id="edge27" class="edge">
<title>Node26&#45;&gt;Node19</title>
<path fill="none" stroke="#9a32cd" stroke-dasharray="5,2" d="M349.68,-622.39C403.04,-618.08 481.19,-609.99 509,-598.11 534.87,-587.06 559.09,-563.82 571.45,-550.69"/>
<polygon fill="#9a32cd" stroke="#9a32cd" points="349.39,-618.91 339.69,-623.18 349.94,-625.88 349.39,-618.91"/>
<text text-anchor="middle" x="447" y="-622.11" font-family="Helvetica,sans-Serif" font-size="10.00"> FRS</text>
</g>
<!-- Node27&#45;&gt;Node19 -->
<g id="edge29" class="edge">
<title>Node27&#45;&gt;Node19</title>
<path fill="none" stroke="#9a32cd" stroke-dasharray="5,2" d="M347.41,-462.2C392.65,-461.86 459.15,-467.06 509,-495.11 520.01,-501.31 516.98,-509.42 527,-517.11 534.61,-522.96 543.87,-527.77 552.51,-531.51"/>
<polygon fill="#9a32cd" stroke="#9a32cd" points="347.19,-458.7 337.25,-462.37 347.31,-465.7 347.19,-458.7"/>
<text text-anchor="middle" x="447" y="-498.11" font-family="Helvetica,sans-Serif" font-size="10.00"> eis</text>
</g>
<!-- Node28 -->
<g id="node28" class="node">
<title>Node28</title>
<g id="a_node28"><a xlink:href="class_iterable.html" target="_top" xlink:title=" ">
<polygon fill="white" stroke="black" points="13,-529.61 13,-548.61 105,-548.61 105,-529.61 13,-529.61"/>
<text text-anchor="middle" x="59" y="-536.61" font-family="Helvetica,sans-Serif" font-size="10.00">Iterable&lt; Event &gt;</text>
</a>
</g>
</g>
<!-- Node28&#45;&gt;Node27 -->
<g id="edge30" class="edge">
<title>Node28&#45;&gt;Node27</title>
<path fill="none" stroke="midnightblue" d="M115.08,-535.97C143.97,-532.21 178.88,-524.16 206,-507.11 216.99,-500.21 213.18,-491.28 224,-484.11 232.88,-478.23 243.52,-474.17 253.81,-471.36"/>
<polygon fill="midnightblue" stroke="midnightblue" points="114.67,-532.5 105.14,-537.13 115.48,-539.45 114.67,-532.5"/>
</g>
<!-- Node29 -->
<g id="node29" class="node">
<title>Node29</title>
<g id="a_node29"><a xlink:title=" ">
<polygon fill="white" stroke="#bfbfbf" points="243.5,-531.61 243.5,-550.61 347.5,-550.61 347.5,-531.61 243.5,-531.61"/>
<text text-anchor="middle" x="295.5" y="-538.61" font-family="Helvetica,sans-Serif" font-size="10.00">StackBase&lt; Long &gt;</text>
</a>
</g>
</g>
<!-- Node29&#45;&gt;Node19 -->
<g id="edge32" class="edge">
<title>Node29&#45;&gt;Node19</title>
<path fill="none" stroke="#9a32cd" stroke-dasharray="5,2" d="M357.56,-541.11C417.16,-541.11 505.3,-541.11 550.66,-541.11"/>
<polygon fill="#9a32cd" stroke="#9a32cd" points="357.51,-537.61 347.51,-541.11 357.51,-544.61 357.51,-537.61"/>
<text text-anchor="middle" x="447" y="-544.11" font-family="Helvetica,sans-Serif" font-size="10.00"> SS</text>
</g>
<!-- Node30&#45;&gt;Node19 -->
<g id="edge34" class="edge">
<title>Node30&#45;&gt;Node19</title>
<path fill="none" stroke="#9a32cd" stroke-dasharray="5,2" d="M339.62,-418.23C386.91,-411.17 462.26,-408.18 509,-448.11 533.1,-468.7 506.57,-492.88 527,-517.11 533.18,-524.45 542.08,-529.65 550.82,-533.28"/>
<polygon fill="#9a32cd" stroke="#9a32cd" points="339,-414.79 329.69,-419.84 340.12,-421.7 339,-414.79"/>
<text text-anchor="middle" x="447" y="-451.11" font-family="Helvetica,sans-Serif" font-size="10.00"> OVM</text>
</g>
<!-- Node31 -->
<g id="node31" class="node">
<title>Node31</title>
<g id="a_node31"><a xlink:href="classutil_1_1_stack_base.html" target="_top" xlink:title=" ">
<polygon fill="white" stroke="black" points="0,-377.61 0,-396.61 118,-396.61 118,-377.61 0,-377.61"/>
<text text-anchor="middle" x="59" y="-384.61" font-family="Helvetica,sans-Serif" font-size="10.00">StackBase&lt; Boolean &gt;</text>
</a>
</g>
</g>
<!-- Node31&#45;&gt;Node30 -->
<g id="edge36" class="edge">
<title>Node31&#45;&gt;Node30</title>
<path fill="none" stroke="#9a32cd" stroke-dasharray="5,2" d="M128.27,-397.38C152.81,-401.2 180.67,-405.69 206,-410.11 224.34,-413.32 244.75,-417.22 261.35,-420.47"/>
<polygon fill="#9a32cd" stroke="#9a32cd" points="128.75,-393.92 118.33,-395.85 127.68,-400.83 128.75,-393.92"/>
<text text-anchor="middle" x="171" y="-413.11" font-family="Helvetica,sans-Serif" font-size="10.00"> boolStack</text>
</g>
<!-- Node32 -->
<g id="node32" class="node">
<title>Node32</title>
<g id="a_node32"><a xlink:title=" ">
<polygon fill="white" stroke="#bfbfbf" points="2.5,-338.61 2.5,-357.61 115.5,-357.61 115.5,-338.61 2.5,-338.61"/>
<text text-anchor="middle" x="59" y="-345.61" font-family="Helvetica,sans-Serif" font-size="10.00">StackBase&lt; Integer &gt;</text>
</a>
</g>
</g>
<!-- Node32&#45;&gt;Node30 -->
<g id="edge38" class="edge">
<title>Node32&#45;&gt;Node30</title>
<path fill="none" stroke="#9a32cd" stroke-dasharray="5,2" d="M125.81,-346.25C152.88,-348.52 183.17,-355.29 206,-372.11 220.4,-382.73 210.15,-396.79 224,-408.11 234.5,-416.7 248.54,-421.43 261.33,-424.02"/>
<polygon fill="#9a32cd" stroke="#9a32cd" points="125.82,-342.74 115.61,-345.59 125.37,-349.73 125.82,-342.74"/>
<text text-anchor="middle" x="171" y="-386.11" font-family="Helvetica,sans-Serif" font-size="10.00"> fpStack</text>
<text text-anchor="middle" x="171" y="-375.11" font-family="Helvetica,sans-Serif" font-size="10.00">intStack</text>
</g>
<!-- Node33 -->
<g id="node33" class="node">
<title>Node33</title>
<g id="a_node33"><a xlink:href="classutil_1_1_stack_base.html" target="_top" xlink:title=" ">
<polygon fill="white" stroke="black" points="5,-453.61 5,-472.61 113,-472.61 113,-453.61 5,-453.61"/>
<text text-anchor="middle" x="59" y="-460.61" font-family="Helvetica,sans-Serif" font-size="10.00">StackBase&lt; String &gt;</text>
</a>
</g>
</g>
<!-- Node33&#45;&gt;Node30 -->
<g id="edge39" class="edge">
<title>Node33&#45;&gt;Node30</title>
<path fill="none" stroke="#9a32cd" stroke-dasharray="5,2" d="M123.36,-453.39C167.89,-446.55 225.67,-437.68 261.4,-432.2"/>
<polygon fill="#9a32cd" stroke="#9a32cd" points="122.56,-449.97 113.21,-454.95 123.63,-456.89 122.56,-449.97"/>
<text text-anchor="middle" x="171" y="-453.11" font-family="Helvetica,sans-Serif" font-size="10.00"> strStack</text>
</g>
<!-- Node34 -->
<g id="node34" class="node">
<title>Node34</title>
<g id="a_node34"><a xlink:href="classutil_1_1_stack_base.html" target="_top" xlink:title=" ">
<polygon fill="white" stroke="black" points="2.5,-415.61 2.5,-434.61 115.5,-434.61 115.5,-415.61 2.5,-415.61"/>
<text text-anchor="middle" x="59" y="-422.61" font-family="Helvetica,sans-Serif" font-size="10.00">StackBase&lt; Double &gt;</text>
</a>
</g>
</g>
<!-- Node34&#45;&gt;Node30 -->
<g id="edge41" class="edge">
<title>Node34&#45;&gt;Node30</title>
<path fill="none" stroke="#9a32cd" stroke-dasharray="5,2" d="M125.66,-425.67C169.86,-426.05 226.28,-426.53 261.4,-426.83"/>
<polygon fill="#9a32cd" stroke="#9a32cd" points="125.6,-422.17 115.57,-425.59 125.54,-429.17 125.6,-422.17"/>
<text text-anchor="middle" x="171" y="-429.11" font-family="Helvetica,sans-Serif" font-size="10.00"> dblStack</text>
</g>
<!-- Node35 -->
<g id="node35" class="node">
<title>Node35</title>
<g id="a_node35"><a xlink:title=" ">
<polygon fill="white" stroke="#bfbfbf" points="34,-249.61 34,-268.61 84,-268.61 84,-249.61 34,-249.61"/>
<text text-anchor="middle" x="59" y="-256.61" font-family="Helvetica,sans-Serif" font-size="10.00">boolean</text>
</a>
</g>
</g>
<!-- Node35&#45;&gt;Node1 -->
<g id="edge49" class="edge">
<title>Node35&#45;&gt;Node1</title>
<path fill="none" stroke="#9a32cd" stroke-dasharray="5,2" d="M93.96,-254.85C127.87,-248.69 178.75,-233.92 206,-199.11 239.52,-156.31 185.21,-116.21 224,-78.11 314.61,10.88 417.32,30.78 509,-57.11 543.28,-89.98 493.38,-450.58 527,-484.11 567.16,-524.18 751.87,-498.04 814.88,-487.75"/>
<polygon fill="#9a32cd" stroke="#9a32cd" points="93.32,-251.41 84.03,-256.5 94.47,-258.31 93.32,-251.41"/>
<text text-anchor="middle" x="447" y="-93.11" font-family="Helvetica,sans-Serif" font-size="10.00"> TO_COMPLEMENT_TAGS</text>
<text text-anchor="middle" x="447" y="-82.11" font-family="Helvetica,sans-Serif" font-size="10.00">TO_PRINT_OPTION</text>
<text text-anchor="middle" x="447" y="-71.11" font-family="Helvetica,sans-Serif" font-size="10.00">TO_PRINT_QUERY_ONLY</text>
<text text-anchor="middle" x="447" y="-60.11" font-family="Helvetica,sans-Serif" font-size="10.00">TO_WRITE</text>
</g>
<!-- Node35&#45;&gt;Node19 -->
<g id="edge44" class="edge">
<title>Node35&#45;&gt;Node19</title>
<path fill="none" stroke="#9a32cd" stroke-dasharray="5,2" d="M94.2,-261.55C190.21,-269.19 458.52,-296.25 509,-363.11 550.52,-418.11 486.35,-461.47 527,-517.11 532.78,-525.03 541.79,-530.39 550.75,-534"/>
<polygon fill="#9a32cd" stroke="#9a32cd" points="94.39,-258.06 84.15,-260.77 93.85,-265.04 94.39,-258.06"/>
<text text-anchor="middle" x="295.5" y="-357.11" font-family="Helvetica,sans-Serif" font-size="10.00"> DEBUG_REPO</text>
<text text-anchor="start" x="240.5" y="-346.11" font-family="Helvetica,sans-Serif" font-size="10.00">FLAG_RELATIVE_PATH</text>
<text text-anchor="middle" x="295.5" y="-335.11" font-family="Helvetica,sans-Serif" font-size="10.00">_MATCH</text>
<text text-anchor="middle" x="295.5" y="-324.11" font-family="Helvetica,sans-Serif" font-size="10.00">TO_PRINT_EVENT</text>
<text text-anchor="middle" x="295.5" y="-313.11" font-family="Helvetica,sans-Serif" font-size="10.00">TO_SCAN_ONLY</text>
<text text-anchor="middle" x="295.5" y="-302.11" font-family="Helvetica,sans-Serif" font-size="10.00">toPrint</text>
</g>
<!-- Node35&#45;&gt;Node30 -->
<g id="edge42" class="edge">
<title>Node35&#45;&gt;Node30</title>
<path fill="none" stroke="#9a32cd" stroke-dasharray="5,2" d="M93.76,-266.75C132.09,-276.1 191.21,-292.85 206,-310.11 234.81,-343.75 193.99,-375.55 224,-408.11 233.54,-418.46 248.06,-423.41 261.45,-425.69"/>
<polygon fill="#9a32cd" stroke="#9a32cd" points="94.57,-263.35 84.03,-264.42 92.95,-270.15 94.57,-263.35"/>
<text text-anchor="middle" x="171" y="-335.11" font-family="Helvetica,sans-Serif" font-size="10.00"> DEBUG_FP</text>
<text text-anchor="middle" x="171" y="-324.11" font-family="Helvetica,sans-Serif" font-size="10.00">DEBUG_OVM</text>
<text text-anchor="middle" x="171" y="-313.11" font-family="Helvetica,sans-Serif" font-size="10.00">DEBUG_REPO</text>
</g>
<!-- Node36 -->
<g id="node36" class="node">
<title>Node36</title>
<g id="a_node36"><a xlink:title=" ">
<polygon fill="white" stroke="#bfbfbf" points="251.5,-493.61 251.5,-512.61 339.5,-512.61 339.5,-493.61 251.5,-493.61"/>
<text text-anchor="middle" x="295.5" y="-500.61" font-family="Helvetica,sans-Serif" font-size="10.00">static PrintMode</text>
</a>
</g>
</g>
<!-- Node36&#45;&gt;Node19 -->
<g id="edge43" class="edge">
<title>Node36&#45;&gt;Node19</title>
<path fill="none" stroke="#9a32cd" stroke-dasharray="5,2" d="M349.79,-507.39C392.89,-511.2 455.06,-517.52 509,-526.11 522.81,-528.31 537.99,-531.43 550.76,-534.25"/>
<polygon fill="#9a32cd" stroke="#9a32cd" points="350.08,-503.9 339.81,-506.52 349.47,-510.87 350.08,-503.9"/>
<text text-anchor="middle" x="447" y="-529.11" font-family="Helvetica,sans-Serif" font-size="10.00"> pmode</text>
</g>
<!-- Node37 -->
<g id="node37" class="node">
<title>Node37</title>
<g id="a_node37"><a xlink:href="interfacemachine_1_1_input_manageable.html" target="_top" xlink:title="入力ストリーム管理のインタフェース">
<polygon fill="white" stroke="black" points="250,-379.61 250,-398.61 341,-398.61 341,-379.61 250,-379.61"/>
<text text-anchor="middle" x="295.5" y="-386.61" font-family="Helvetica,sans-Serif" font-size="10.00">InputManageable</text>
</a>
</g>
</g>
<!-- Node37&#45;&gt;Node19 -->
<g id="edge45" class="edge">
<title>Node37&#45;&gt;Node19</title>
<path fill="none" stroke="#9a32cd" stroke-dasharray="5,2" d="M337.28,-377.1C384.74,-365.87 462.54,-356.41 509,-398.11 548.81,-433.85 494.72,-474.46 527,-517.11 532.91,-524.93 541.95,-530.26 550.9,-533.88"/>
<polygon fill="#9a32cd" stroke="#9a32cd" points="336.2,-373.76 327.34,-379.58 337.89,-380.56 336.2,-373.76"/>
<text text-anchor="middle" x="447" y="-401.11" font-family="Helvetica,sans-Serif" font-size="10.00"> IM</text>
</g>
<!-- Node38&#45;&gt;Node19 -->
<g id="edge46" class="edge">
<title>Node38&#45;&gt;Node19</title>
<path fill="none" stroke="#9a32cd" stroke-dasharray="5,2" d="M344.94,-174.87C404.15,-177.5 497.89,-183.47 509,-195.11 533.73,-221.05 506.75,-487.55 527,-517.11 532.6,-525.28 541.67,-530.71 550.75,-534.3"/>
<polygon fill="#9a32cd" stroke="#9a32cd" points="344.82,-171.36 334.68,-174.43 344.52,-178.35 344.82,-171.36"/>
<text text-anchor="middle" x="447" y="-198.11" font-family="Helvetica,sans-Serif" font-size="10.00"> SE</text>
</g>
<!-- Node39 -->
<g id="node39" class="node">
<title>Node39</title>
<g id="a_node39"><a xlink:href="interfacemachine_1_1_inspectable.html" target="_top" xlink:title=" ">
<polygon fill="white" stroke="black" points="7,-135.11 7,-165.11 111,-165.11 111,-135.11 7,-135.11"/>
<text text-anchor="start" x="15" y="-153.11" font-family="Helvetica,sans-Serif" font-size="10.00">Inspectable&lt; String,</text>
<text text-anchor="middle" x="59" y="-142.11" font-family="Helvetica,sans-Serif" font-size="10.00"> String &gt;</text>
</a>
</g>
</g>
<!-- Node39&#45;&gt;Node38 -->
<g id="edge47" class="edge">
<title>Node39&#45;&gt;Node38</title>
<path fill="none" stroke="midnightblue" d="M121.16,-155.9C147.3,-158.39 178.15,-161.36 206,-164.11 222.44,-165.74 240.6,-167.58 256.17,-169.17"/>
<polygon fill="midnightblue" stroke="midnightblue" points="121.31,-152.4 111.02,-154.93 120.64,-159.37 121.31,-152.4"/>
</g>
</g>
</svg>
