<?xml version="1.0" encoding="UTF-8" standalone="no"?>
<!DOCTYPE svg PUBLIC "-//W3C//DTD SVG 1.1//EN"
 "http://www.w3.org/Graphics/SVG/1.1/DTD/svg11.dtd">
<!-- Generated by graphviz version 2.38.0 (20140413.2041)
 -->
<!-- Title: AstOper.IntegerRel Pages: 1 -->
<svg width="657pt" height="138pt"
 viewBox="0.00 0.00 656.66 138.00" xmlns="http://www.w3.org/2000/svg" xmlns:xlink="http://www.w3.org/1999/xlink">
<g id="graph0" class="graph" transform="scale(1 1) rotate(0) translate(4 134)">
<title>AstOper.IntegerRel</title>
<polygon fill="white" stroke="none" points="-4,4 -4,-134 652.658,-134 652.658,4 -4,4"/>
<!-- Node1 -->
<g id="node1" class="node"><title>Node1</title>
<g id="a_node1"><a xlink:title=" ">
<polygon fill="#bfbfbf" stroke="black" points="547.609,-36.5 547.609,-54.5 648.658,-54.5 648.658,-36.5 547.609,-36.5"/>
<text text-anchor="middle" x="598.134" y="-42.5" font-family="Helvetica,sans-Serif" font-size="10.00">AstOper.IntegerRel</text>
</a>
</g>
</g>
<!-- Node2 -->
<g id="node2" class="node"><title>Node2</title>
<g id="a_node2"><a xlink:href="classast_1_1_ast_oper_1_1_binary_oper.html" target="_top" xlink:title=" ">
<polygon fill="white" stroke="black" points="406.122,-55.5 406.122,-73.5 511.609,-73.5 511.609,-55.5 406.122,-55.5"/>
<text text-anchor="middle" x="458.866" y="-61.5" font-family="Helvetica,sans-Serif" font-size="10.00">AstOper.BinaryOper</text>
</a>
</g>
</g>
<!-- Node2&#45;&gt;Node1 -->
<g id="edge1" class="edge"><title>Node2&#45;&gt;Node1</title>
<path fill="none" stroke="midnightblue" d="M521.757,-55.9333C530.356,-54.7431 539.097,-53.5331 547.434,-52.3792"/>
<polygon fill="midnightblue" stroke="midnightblue" points="521.187,-52.4788 511.761,-57.3169 522.146,-59.4127 521.187,-52.4788"/>
</g>
<!-- Node3 -->
<g id="node3" class="node"><title>Node3</title>
<g id="a_node3"><a xlink:href="classast_1_1_ast_oper.html" target="_top" xlink:title="演算子をもつノードのクラス">
<polygon fill="white" stroke="black" points="317.442,-55.5 317.442,-73.5 370.122,-73.5 370.122,-55.5 317.442,-55.5"/>
<text text-anchor="middle" x="343.782" y="-61.5" font-family="Helvetica,sans-Serif" font-size="10.00">AstOper</text>
</a>
</g>
</g>
<!-- Node3&#45;&gt;Node2 -->
<g id="edge2" class="edge"><title>Node3&#45;&gt;Node2</title>
<path fill="none" stroke="midnightblue" d="M380.322,-64.5C388.394,-64.5 397.133,-64.5 405.734,-64.5"/>
<polygon fill="midnightblue" stroke="midnightblue" points="380.16,-61.0001 370.16,-64.5 380.16,-68.0001 380.16,-61.0001"/>
</g>
<!-- Node4 -->
<g id="node4" class="node"><title>Node4</title>
<g id="a_node4"><a xlink:href="classast_1_1_ast_node_branch.html" target="_top" xlink:title="抽象構文木のノードの基本実装クラス.">
<polygon fill="white" stroke="black" points="195.403,-55.5 195.403,-73.5 281.442,-73.5 281.442,-55.5 195.403,-55.5"/>
<text text-anchor="middle" x="238.423" y="-61.5" font-family="Helvetica,sans-Serif" font-size="10.00">AstNodeBranch</text>
</a>
</g>
</g>
<!-- Node4&#45;&gt;Node3 -->
<g id="edge3" class="edge"><title>Node4&#45;&gt;Node3</title>
<path fill="none" stroke="midnightblue" d="M291.566,-64.5C300.559,-64.5 309.532,-64.5 317.398,-64.5"/>
<polygon fill="midnightblue" stroke="midnightblue" points="291.463,-61.0001 281.463,-64.5 291.463,-68.0001 291.463,-61.0001"/>
</g>
<!-- Node5 -->
<g id="node5" class="node"><title>Node5</title>
<g id="a_node5"><a xlink:href="classast_1_1_ast_node.html" target="_top" xlink:title=" ">
<polygon fill="white" stroke="red" points="52.5244,-111.5 52.5244,-129.5 106.879,-129.5 106.879,-111.5 52.5244,-111.5"/>
<text text-anchor="middle" x="79.7017" y="-117.5" font-family="Helvetica,sans-Serif" font-size="10.00">AstNode</text>
</a>
</g>
</g>
<!-- Node5&#45;&gt;Node4 -->
<g id="edge4" class="edge"><title>Node5&#45;&gt;Node4</title>
<path fill="none" stroke="midnightblue" d="M116.925,-114.025C130.45,-111.138 145.815,-107.292 159.403,-102.5 181.711,-94.6331 206.001,-82.1231 221.452,-73.6239"/>
<polygon fill="midnightblue" stroke="midnightblue" points="116.102,-110.62 107.002,-116.045 117.499,-117.48 116.102,-110.62"/>
</g>
<!-- Node7 -->
<g id="node6" class="node"><title>Node7</title>
<g id="a_node6"><a xlink:href="interfaceformat_1_1_x_formattable_1_1_navigatable.html" target="_top" xlink:title="木構造の分岐ノードとして清書可能なオブジェクトのクラス">
<polygon fill="white" stroke="red" points="13.894,-74.5 13.894,-92.5 145.509,-92.5 145.509,-74.5 13.894,-74.5"/>
<text text-anchor="middle" x="79.7017" y="-80.5" font-family="Helvetica,sans-Serif" font-size="10.00">XFormattable.Navigatable</text>
</a>
</g>
</g>
<!-- Node7&#45;&gt;Node4 -->
<g id="edge5" class="edge"><title>Node7&#45;&gt;Node4</title>
<path fill="none" stroke="midnightblue" d="M156.027,-74.368C169.46,-72.7395 183.012,-71.0965 195.101,-69.6309"/>
<polygon fill="midnightblue" stroke="midnightblue" points="155.31,-70.9292 145.804,-75.6074 156.153,-77.8783 155.31,-70.9292"/>
</g>
<!-- Node8 -->
<g id="node7" class="node"><title>Node8</title>
<g id="a_node7"><a xlink:href="interfaceformat_1_1_x_formattable_1_1_typed_formattable.html" target="_top" xlink:title="ノードの型情報をもつ書式出力可能なオブジェクトのインタフェース．">
<polygon fill="white" stroke="red" points="0,-37.5 0,-55.5 159.403,-55.5 159.403,-37.5 0,-37.5"/>
<text text-anchor="middle" x="79.7017" y="-43.5" font-family="Helvetica,sans-Serif" font-size="10.00">XFormattable.TypedFormattable</text>
</a>
</g>
</g>
<!-- Node8&#45;&gt;Node4 -->
<g id="edge6" class="edge"><title>Node8&#45;&gt;Node4</title>
<path fill="none" stroke="midnightblue" d="M169.622,-56.7129C178.521,-57.735 187.236,-58.7358 195.294,-59.6614"/>
<polygon fill="midnightblue" stroke="midnightblue" points="169.855,-53.2167 159.521,-55.5527 169.057,-60.171 169.855,-53.2167"/>
</g>
<!-- Node9 -->
<g id="node8" class="node"><title>Node9</title>
<g id="a_node8"><a xlink:href="interfaceformat_1_1_x_formattable_1_1_hgt_formattable.html" target="_top" xlink:title="ノードの高さ情報をもつ書式出力可能なオブジェクトのインタフェース．">
<polygon fill="white" stroke="red" points="5.84229,-0.5 5.84229,-18.5 153.561,-18.5 153.561,-0.5 5.84229,-0.5"/>
<text text-anchor="middle" x="79.7017" y="-6.5" font-family="Helvetica,sans-Serif" font-size="10.00">XFormattable.HgtFormattable</text>
</a>
</g>
</g>
<!-- Node9&#45;&gt;Node4 -->
<g id="edge7" class="edge"><title>Node9&#45;&gt;Node4</title>
<path fill="none" stroke="midnightblue" d="M137.506,-20.9304C144.943,-22.8811 152.405,-25.073 159.403,-27.5 181.498,-35.1629 205.637,-47.2261 221.123,-55.4813"/>
<polygon fill="midnightblue" stroke="midnightblue" points="138.336,-17.5301 127.786,-18.5058 136.641,-24.322 138.336,-17.5301"/>
</g>
<!-- Node10 -->
<g id="node9" class="node"><title>Node10</title>
<g id="a_node9"><a xlink:href="class_evaluable_boolean.html" target="_top" xlink:title=" ">
<polygon fill="white" stroke="black" points="410.556,-18.5 410.556,-36.5 507.176,-36.5 507.176,-18.5 410.556,-18.5"/>
<text text-anchor="middle" x="458.866" y="-24.5" font-family="Helvetica,sans-Serif" font-size="10.00">EvaluableBoolean</text>
</a>
</g>
</g>
<!-- Node10&#45;&gt;Node1 -->
<g id="edge8" class="edge"><title>Node10&#45;&gt;Node1</title>
<path fill="none" stroke="midnightblue" d="M517.614,-35.0725C527.469,-36.3648 537.631,-37.6974 547.26,-38.96"/>
<polygon fill="midnightblue" stroke="midnightblue" points="517.86,-31.575 507.49,-33.745 516.95,-38.5156 517.86,-31.575"/>
</g>
</g>
</svg>
