<?xml version="1.0" encoding="UTF-8" standalone="no"?>
<!DOCTYPE svg PUBLIC "-//W3C//DTD SVG 1.1//EN"
 "http://www.w3.org/Graphics/SVG/1.1/DTD/svg11.dtd">
<!-- Generated by graphviz version 2.47.1 (20210417.1919)
 -->
<!-- Title: XTyping.BasicTyping Pages: 1 -->
<svg width="356pt" height="230pt"
 viewBox="0.00 0.00 356.00 230.00" xmlns="http://www.w3.org/2000/svg" xmlns:xlink="http://www.w3.org/1999/xlink">
<g id="graph0" class="graph" transform="scale(1 1) rotate(0) translate(4 226)">
<title>XTyping.BasicTyping</title>
<polygon fill="white" stroke="transparent" points="-4,4 -4,-226 352,-226 352,4 -4,4"/>
<!-- Node1 -->
<g id="node1" class="node">
<title>Node1</title>
<g id="a_node1"><a xlink:title=" ">
<polygon fill="#bfbfbf" stroke="black" points="104,-0.5 104,-19.5 212,-19.5 212,-0.5 104,-0.5"/>
<text text-anchor="middle" x="158" y="-7.5" font-family="Helvetica,sans-Serif" font-size="10.00">XTyping.BasicTyping</text>
</a>
</g>
</g>
<!-- Node2 -->
<g id="node2" class="node">
<title>Node2</title>
<g id="a_node2"><a xlink:href="classtype_1_1_x_typing.html" target="_top" xlink:title="基本的な関数型のクラス">
<polygon fill="white" stroke="black" points="132,-57.5 132,-76.5 184,-76.5 184,-57.5 132,-57.5"/>
<text text-anchor="middle" x="158" y="-64.5" font-family="Helvetica,sans-Serif" font-size="10.00">XTyping</text>
</a>
</g>
</g>
<!-- Node2&#45;&gt;Node1 -->
<g id="edge1" class="edge">
<title>Node2&#45;&gt;Node1</title>
<path fill="none" stroke="midnightblue" d="M158,-47.12C158,-37.82 158,-27.06 158,-19.71"/>
<polygon fill="midnightblue" stroke="midnightblue" points="154.5,-47.41 158,-57.41 161.5,-47.41 154.5,-47.41"/>
</g>
<!-- Node3 -->
<g id="node3" class="node">
<title>Node3</title>
<g id="a_node3"><a xlink:href="interfacetype_1_1_typable.html" target="_top" xlink:title="抽象ノードがもつ関数型のインタフェース">
<polygon fill="white" stroke="black" points="0,-135.5 0,-154.5 50,-154.5 50,-135.5 0,-135.5"/>
<text text-anchor="middle" x="25" y="-142.5" font-family="Helvetica,sans-Serif" font-size="10.00">Typable</text>
</a>
</g>
</g>
<!-- Node3&#45;&gt;Node2 -->
<g id="edge2" class="edge">
<title>Node3&#45;&gt;Node2</title>
<path fill="none" stroke="midnightblue" d="M48.89,-130.35C76.15,-114.77 119.91,-89.76 142.85,-76.66"/>
<polygon fill="midnightblue" stroke="midnightblue" points="46.94,-127.43 40,-135.43 50.42,-133.51 46.94,-127.43"/>
</g>
<!-- Node4 -->
<g id="node4" class="node">
<title>Node4</title>
<g id="a_node4"><a xlink:title=" ">
<polygon fill="white" stroke="#bfbfbf" points="68,-135.5 68,-154.5 166,-154.5 166,-135.5 68,-135.5"/>
<text text-anchor="middle" x="117" y="-142.5" font-family="Helvetica,sans-Serif" font-size="10.00">List&lt; type.XItem &gt;</text>
</a>
</g>
</g>
<!-- Node4&#45;&gt;Node2 -->
<g id="edge3" class="edge">
<title>Node4&#45;&gt;Node2</title>
<path fill="none" stroke="#9a32cd" stroke-dasharray="5,2" d="M124.54,-126.3C128.76,-116.84 134.31,-105.1 140,-95 143.54,-88.72 148.04,-81.97 151.66,-76.79"/>
<polygon fill="#9a32cd" stroke="#9a32cd" points="121.32,-124.92 120.54,-135.49 127.74,-127.72 121.32,-124.92"/>
<text text-anchor="middle" x="158.5" y="-103.5" font-family="Helvetica,sans-Serif" font-size="10.00"> children</text>
</g>
<!-- Node5 -->
<g id="node5" class="node">
<title>Node5</title>
<g id="a_node5"><a xlink:href="enumtype_1_1_x_type.html" target="_top" xlink:title="基本型を表す半順序をもつ列挙型のクラス。">
<polygon fill="white" stroke="black" points="184,-135.5 184,-154.5 228,-154.5 228,-135.5 184,-135.5"/>
<text text-anchor="middle" x="206" y="-142.5" font-family="Helvetica,sans-Serif" font-size="10.00">XType</text>
</a>
</g>
</g>
<!-- Node5&#45;&gt;Node2 -->
<g id="edge4" class="edge">
<title>Node5&#45;&gt;Node2</title>
<path fill="none" stroke="#9a32cd" stroke-dasharray="5,2" d="M196.02,-126.38C190.58,-116.96 183.61,-105.23 177,-95 173.02,-88.84 168.27,-82.09 164.51,-76.88"/>
<polygon fill="#9a32cd" stroke="#9a32cd" points="193.06,-128.26 201.07,-135.2 199.14,-124.78 193.06,-128.26"/>
<text text-anchor="middle" x="217" y="-109" font-family="Helvetica,sans-Serif" font-size="10.00"> forcedType</text>
<text text-anchor="middle" x="217" y="-98" font-family="Helvetica,sans-Serif" font-size="10.00">nativeType</text>
</g>
<!-- Node6 -->
<g id="node6" class="node">
<title>Node6</title>
<g id="a_node6"><a xlink:href="classtype_1_1_x_item.html" target="_top" xlink:title="型変数のクラス">
<polygon fill="white" stroke="black" points="252.5,-135.5 252.5,-154.5 295.5,-154.5 295.5,-135.5 252.5,-135.5"/>
<text text-anchor="middle" x="274" y="-142.5" font-family="Helvetica,sans-Serif" font-size="10.00">XItem</text>
</a>
</g>
</g>
<!-- Node6&#45;&gt;Node2 -->
<g id="edge5" class="edge">
<title>Node6&#45;&gt;Node2</title>
<path fill="none" stroke="#9a32cd" stroke-dasharray="5,2" d="M268,-125.97C263.67,-115.56 256.85,-102.98 247,-95 229.06,-80.47 203.39,-73.74 184.23,-70.64"/>
<polygon fill="#9a32cd" stroke="#9a32cd" points="264.74,-127.26 271.51,-135.41 271.3,-124.82 264.74,-127.26"/>
<text text-anchor="middle" x="272.5" y="-103.5" font-family="Helvetica,sans-Serif" font-size="10.00"> self</text>
</g>
<!-- Node7 -->
<g id="node7" class="node">
<title>Node7</title>
<g id="a_node7"><a xlink:href="classtype_1_1_union_find_item.html" target="_top" xlink:title=" ">
<polygon fill="white" stroke="black" points="200,-202.5 200,-221.5 348,-221.5 348,-202.5 200,-202.5"/>
<text text-anchor="middle" x="274" y="-209.5" font-family="Helvetica,sans-Serif" font-size="10.00">UnionFindItem&lt; type.XType &gt;</text>
</a>
</g>
</g>
<!-- Node7&#45;&gt;Node6 -->
<g id="edge6" class="edge">
<title>Node7&#45;&gt;Node6</title>
<path fill="none" stroke="#9a32cd" stroke-dasharray="5,2" d="M274,-192.04C274,-179.67 274,-164.12 274,-154.63"/>
<polygon fill="#9a32cd" stroke="#9a32cd" points="270.5,-192.23 274,-202.23 277.5,-192.23 270.5,-192.23"/>
<text text-anchor="middle" x="285" y="-176" font-family="Helvetica,sans-Serif" font-size="10.00"> item</text>
</g>
</g>
</svg>
