<?xml version="1.0" encoding="UTF-8" standalone="no"?>
<!DOCTYPE svg PUBLIC "-//W3C//DTD SVG 1.1//EN"
 "http://www.w3.org/Graphics/SVG/1.1/DTD/svg11.dtd">
<!-- Generated by graphviz version 2.47.0 (20210316.0004)
 -->
<!-- Title: Block Pages: 1 -->
<svg width="1265pt" height="743pt"
 viewBox="0.00 0.00 1265.00 743.00" xmlns="http://www.w3.org/2000/svg" xmlns:xlink="http://www.w3.org/1999/xlink">
<g id="graph0" class="graph" transform="scale(1 1) rotate(0) translate(4 739)">
<title>Block</title>
<polygon fill="white" stroke="transparent" points="-4,4 -4,-739 1261,-739 1261,4 -4,4"/>
<!-- Node1 -->
<g id="node1" class="node">
<title>Node1</title>
<g id="a_node1"><a xlink:title="抽象構文木のステップ式のクラス.">
<polygon fill="#bfbfbf" stroke="black" points="1216,-609.5 1216,-628.5 1257,-628.5 1257,-609.5 1216,-609.5"/>
<text text-anchor="middle" x="1236.5" y="-616.5" font-family="Helvetica,sans-Serif" font-size="10.00">Block</text>
</a>
</g>
</g>
<!-- Node2 -->
<g id="node2" class="node">
<title>Node2</title>
<g id="a_node2"><a xlink:href="classast_1_1_block_base.html" target="_top" xlink:title="抽象構文木のステップ式のクラス.">
<polygon fill="white" stroke="black" points="1113,-486.5 1113,-505.5 1177,-505.5 1177,-486.5 1113,-486.5"/>
<text text-anchor="middle" x="1145" y="-493.5" font-family="Helvetica,sans-Serif" font-size="10.00">BlockBase</text>
</a>
</g>
</g>
<!-- Node2&#45;&gt;Node1 -->
<g id="edge1" class="edge">
<title>Node2&#45;&gt;Node1</title>
<path fill="none" stroke="midnightblue" d="M1159.1,-514.01C1178.34,-540.45 1213.57,-588.87 1228.51,-609.39"/>
<polygon fill="midnightblue" stroke="midnightblue" points="1161.74,-511.68 1153.02,-505.65 1156.08,-515.8 1161.74,-511.68"/>
</g>
<!-- Node3 -->
<g id="node3" class="node">
<title>Node3</title>
<g id="a_node3"><a xlink:href="classast_1_1_ast_node_tagged.html" target="_top" xlink:title="タグ付きの子をもつノードのクラス．利用者は自前で，追加する子のField名と，Getter，型を設定する．読み出しは子の添字でも行える．">
<polygon fill="white" stroke="black" points="964,-211.5 964,-230.5 1050,-230.5 1050,-211.5 964,-211.5"/>
<text text-anchor="middle" x="1007" y="-218.5" font-family="Helvetica,sans-Serif" font-size="10.00">AstNodeTagged</text>
</a>
</g>
</g>
<!-- Node3&#45;&gt;Node2 -->
<g id="edge2" class="edge">
<title>Node3&#45;&gt;Node2</title>
<path fill="none" stroke="midnightblue" d="M1042.28,-235.07C1060.52,-244.44 1081.5,-258.61 1093,-278 1138.29,-354.39 1063.13,-402.2 1111,-477 1113.42,-480.79 1116.89,-483.9 1120.67,-486.44"/>
<polygon fill="midnightblue" stroke="midnightblue" points="1043.59,-231.82 1033.06,-230.61 1040.54,-238.12 1043.59,-231.82"/>
</g>
<!-- Node4 -->
<g id="node4" class="node">
<title>Node4</title>
<g id="a_node4"><a xlink:href="classast_1_1_ast_node_branch.html" target="_top" xlink:title="タグなしの順アクセスの子供をもてる抽象構文木のノードのクラス。">
<polygon fill="white" stroke="black" points="741,-462.5 741,-481.5 827,-481.5 827,-462.5 741,-462.5"/>
<text text-anchor="middle" x="784" y="-469.5" font-family="Helvetica,sans-Serif" font-size="10.00">AstNodeBranch</text>
</a>
</g>
</g>
<!-- Node4&#45;&gt;Node3 -->
<g id="edge3" class="edge">
<title>Node4&#45;&gt;Node3</title>
<path fill="none" stroke="midnightblue" d="M806.17,-455.83C824.98,-440.17 851.53,-414.65 865,-386 891.32,-330.02 841.19,-293.58 883,-248 903.17,-226.01 936.8,-219.79 963.8,-218.78"/>
<polygon fill="midnightblue" stroke="midnightblue" points="803.73,-453.3 798.14,-462.3 808.12,-458.75 803.73,-453.3"/>
</g>
<!-- Node31 -->
<g id="node28" class="node">
<title>Node31</title>
<g id="a_node28"><a xlink:href="classast_1_1_ast_list.html" target="_top" xlink:title="リストのテンプレート.">
<polygon fill="white" stroke="black" points="983.5,-600.5 983.5,-619.5 1030.5,-619.5 1030.5,-600.5 983.5,-600.5"/>
<text text-anchor="middle" x="1007" y="-607.5" font-family="Helvetica,sans-Serif" font-size="10.00">AstList</text>
</a>
</g>
</g>
<!-- Node4&#45;&gt;Node31 -->
<g id="edge47" class="edge">
<title>Node4&#45;&gt;Node31</title>
<path fill="none" stroke="midnightblue" d="M828.59,-484.71C840.6,-488.75 853.5,-493.59 865,-499 903.29,-516.99 918.38,-516.95 946,-549 959.26,-564.38 949.78,-576.5 964,-591 969.27,-596.37 976.33,-600.36 983.16,-603.26"/>
<polygon fill="midnightblue" stroke="midnightblue" points="829.34,-481.28 818.75,-481.51 827.18,-487.93 829.34,-481.28"/>
</g>
<!-- Node5 -->
<g id="node5" class="node">
<title>Node5</title>
<g id="a_node5"><a xlink:href="classast_1_1_ast_node.html" target="_top" xlink:title=" ">
<polygon fill="white" stroke="red" points="485.5,-294.5 485.5,-313.5 540.5,-313.5 540.5,-294.5 485.5,-294.5"/>
<text text-anchor="middle" x="513" y="-301.5" font-family="Helvetica,sans-Serif" font-size="10.00">AstNode</text>
</a>
</g>
</g>
<!-- Node5&#45;&gt;Node4 -->
<g id="edge4" class="edge">
<title>Node5&#45;&gt;Node4</title>
<path fill="none" stroke="midnightblue" d="M550.26,-312.54C563.48,-316.36 578.28,-321.5 591,-328 630.32,-348.11 736.19,-433.67 771.42,-462.48"/>
<polygon fill="midnightblue" stroke="midnightblue" points="551.1,-309.15 540.53,-309.88 549.25,-315.9 551.1,-309.15"/>
</g>
<!-- Node28 -->
<g id="node25" class="node">
<title>Node28</title>
<g id="a_node25"><a xlink:href="classmachine_1_1_ref.html" target="_top" xlink:title="フレーム中の変数参照オブジェクトref = (XType type, int vid)">
<polygon fill="white" stroke="black" points="768,-357.5 768,-376.5 800,-376.5 800,-357.5 768,-357.5"/>
<text text-anchor="middle" x="784" y="-364.5" font-family="Helvetica,sans-Serif" font-size="10.00">Ref</text>
</a>
</g>
</g>
<!-- Node5&#45;&gt;Node28 -->
<g id="edge42" class="edge">
<title>Node5&#45;&gt;Node28</title>
<path fill="none" stroke="midnightblue" d="M550.9,-307.72C585.82,-311.73 639.53,-319.18 685,-331 715,-338.8 748.65,-352.24 767.68,-360.31"/>
<polygon fill="midnightblue" stroke="midnightblue" points="551.02,-304.21 540.69,-306.58 550.25,-311.16 551.02,-304.21"/>
</g>
<!-- Node6 -->
<g id="node6" class="node">
<title>Node6</title>
<g id="a_node6"><a xlink:href="interfaceformat_1_1_x_formattable.html" target="_top" xlink:title="入れ子フォーマット出力可能なオブジェクトのインタフェース。">
<polygon fill="white" stroke="black" points="0,-440.5 0,-459.5 75,-459.5 75,-440.5 0,-440.5"/>
<text text-anchor="middle" x="37.5" y="-447.5" font-family="Helvetica,sans-Serif" font-size="10.00">XFormattable</text>
</a>
</g>
</g>
<!-- Node6&#45;&gt;Node5 -->
<g id="edge5" class="edge">
<title>Node6&#45;&gt;Node5</title>
<path fill="none" stroke="midnightblue" d="M85.04,-440.96C179.97,-422.25 389.34,-379.47 417,-361 428.39,-353.4 424.27,-344.51 435,-336 449.86,-324.22 469.68,-316.12 485.48,-311.01"/>
<polygon fill="midnightblue" stroke="midnightblue" points="84.27,-437.54 75.13,-442.91 85.62,-444.41 84.27,-437.54"/>
</g>
<!-- Node14 -->
<g id="node11" class="node">
<title>Node14</title>
<g id="a_node11"><a xlink:href="interfaceformat_1_1_x_formattable_1_1_label_formattable.html" target="_top" xlink:title="カスタム清書出力器をもつオブジェクトのクラス．">
<polygon fill="white" stroke="black" points="117.5,-613.5 117.5,-632.5 270.5,-632.5 270.5,-613.5 117.5,-613.5"/>
<text text-anchor="middle" x="194" y="-620.5" font-family="Helvetica,sans-Serif" font-size="10.00">XFormattable.LabelFormattable</text>
</a>
</g>
</g>
<!-- Node6&#45;&gt;Node14 -->
<g id="edge11" class="edge">
<title>Node6&#45;&gt;Node14</title>
<path fill="none" stroke="midnightblue" d="M53.91,-467.26C86.01,-503.2 159.15,-585.1 184.31,-613.27"/>
<polygon fill="midnightblue" stroke="midnightblue" points="56.3,-464.67 47.03,-459.55 51.08,-469.34 56.3,-464.67"/>
</g>
<!-- Node15 -->
<g id="node12" class="node">
<title>Node15</title>
<g id="a_node12"><a xlink:href="interfaceformat_1_1_x_formattable_1_1_typed_formattable.html" target="_top" xlink:title="ノードの型情報をもつ書式出力可能なオブジェクトのインタフェース．">
<polygon fill="white" stroke="black" points="435,-676.5 435,-695.5 591,-695.5 591,-676.5 435,-676.5"/>
<text text-anchor="middle" x="513" y="-683.5" font-family="Helvetica,sans-Serif" font-size="10.00">XFormattable.TypedFormattable</text>
</a>
</g>
</g>
<!-- Node6&#45;&gt;Node15 -->
<g id="edge13" class="edge">
<title>Node6&#45;&gt;Node15</title>
<path fill="none" stroke="midnightblue" d="M39.59,-469.59C42.94,-509.32 56.59,-599.23 112,-642 215.42,-721.83 381.18,-708.51 463.03,-695.53"/>
<polygon fill="midnightblue" stroke="midnightblue" points="43.08,-469.32 38.88,-459.59 36.1,-469.81 43.08,-469.32"/>
</g>
<!-- Node24 -->
<g id="node21" class="node">
<title>Node24</title>
<g id="a_node21"><a xlink:href="interfaceformat_1_1_x_formattable_1_1_custom_formattable.html" target="_top" xlink:title="カスタム清書出力器をもつオブジェクトのクラス．">
<polygon fill="white" stroke="black" points="112,-109.5 112,-128.5 276,-128.5 276,-109.5 112,-109.5"/>
<text text-anchor="middle" x="194" y="-116.5" font-family="Helvetica,sans-Serif" font-size="10.00">XFormattable.CustomFormattable</text>
</a>
</g>
</g>
<!-- Node6&#45;&gt;Node24 -->
<g id="edge30" class="edge">
<title>Node6&#45;&gt;Node24</title>
<path fill="none" stroke="midnightblue" d="M38.02,-430.11C37.85,-378.99 44.09,-241.24 112,-158 123.45,-143.97 141.15,-134.65 157.09,-128.65"/>
<polygon fill="midnightblue" stroke="midnightblue" points="34.53,-430.45 38.16,-440.41 41.53,-430.36 34.53,-430.45"/>
</g>
<!-- Node9 -->
<g id="node7" class="node">
<title>Node9</title>
<g id="a_node7"><a xlink:title=" ">
<polygon fill="white" stroke="#bfbfbf" points="157.5,-271.5 157.5,-290.5 230.5,-290.5 230.5,-271.5 157.5,-271.5"/>
<text text-anchor="middle" x="194" y="-278.5" font-family="Helvetica,sans-Serif" font-size="10.00">static Report</text>
</a>
</g>
</g>
<!-- Node9&#45;&gt;Node5 -->
<g id="edge6" class="edge">
<title>Node9&#45;&gt;Node5</title>
<path fill="none" stroke="#9a32cd" stroke-dasharray="5,2" d="M215.47,-296.48C234.61,-309.92 264.59,-328.38 294,-336 346.92,-349.71 363.52,-347.35 417,-336 425.56,-334.18 426.81,-331.09 435,-328 451.51,-321.78 470.42,-315.87 485.37,-311.47"/>
<polygon fill="#9a32cd" stroke="#9a32cd" points="217.39,-293.55 207.23,-290.54 213.3,-299.23 217.39,-293.55"/>
<text text-anchor="middle" x="355.5" y="-349" font-family="Helvetica,sans-Serif" font-size="10.00"> repo</text>
</g>
<!-- Node27 -->
<g id="node24" class="node">
<title>Node27</title>
<g id="a_node24"><a xlink:href="classmachine_1_1_ref_list.html" target="_top" xlink:title="@整数の表">
<polygon fill="white" stroke="black" points="489,-201.5 489,-220.5 537,-220.5 537,-201.5 489,-201.5"/>
<text text-anchor="middle" x="513" y="-208.5" font-family="Helvetica,sans-Serif" font-size="10.00">RefList</text>
</a>
</g>
</g>
<!-- Node9&#45;&gt;Node27 -->
<g id="edge37" class="edge">
<title>Node9&#45;&gt;Node27</title>
<path fill="none" stroke="#9a32cd" stroke-dasharray="5,2" d="M211.56,-264.62C229.92,-247.7 261.29,-222.36 294,-212 362.01,-190.46 448.06,-200.1 488.71,-206.68"/>
<polygon fill="#9a32cd" stroke="#9a32cd" points="209.15,-262.08 204.3,-271.5 213.96,-267.16 209.15,-262.08"/>
<text text-anchor="middle" x="355.5" y="-215" font-family="Helvetica,sans-Serif" font-size="10.00"> repo</text>
</g>
<!-- Node10 -->
<g id="node8" class="node">
<title>Node10</title>
<g id="a_node8"><a xlink:title=" ">
<polygon fill="white" stroke="#bfbfbf" points="179.5,-477.5 179.5,-496.5 208.5,-496.5 208.5,-477.5 179.5,-477.5"/>
<text text-anchor="middle" x="194" y="-484.5" font-family="Helvetica,sans-Serif" font-size="10.00">int</text>
</a>
</g>
</g>
<!-- Node10&#45;&gt;Node1 -->
<g id="edge49" class="edge">
<title>Node10&#45;&gt;Node1</title>
<path fill="none" stroke="#9a32cd" stroke-dasharray="5,2" d="M206.6,-505.05C243.73,-560.4 365.85,-724 512,-724 512,-724 512,-724 1146,-724 1195.82,-724 1223.77,-654.68 1232.5,-628.69"/>
<polygon fill="#9a32cd" stroke="#9a32cd" points="209.44,-503.01 201.02,-496.58 203.6,-506.86 209.44,-503.01"/>
<text text-anchor="middle" x="914.5" y="-727" font-family="Helvetica,sans-Serif" font-size="10.00"> idxTypeSents</text>
</g>
<!-- Node10&#45;&gt;Node2 -->
<g id="edge33" class="edge">
<title>Node10&#45;&gt;Node2</title>
<path fill="none" stroke="#9a32cd" stroke-dasharray="5,2" d="M217.36,-500.44C258.61,-524.35 350.23,-573.42 435,-591 623.6,-630.11 676.48,-576.52 865,-537 909.11,-527.75 919.52,-522.27 964,-515 1015.95,-506.51 1076.97,-501 1112.96,-498.2"/>
<polygon fill="#9a32cd" stroke="#9a32cd" points="219.06,-497.37 208.67,-495.33 215.52,-503.41 219.06,-497.37"/>
<text text-anchor="middle" x="784" y="-582" font-family="Helvetica,sans-Serif" font-size="10.00"> rid_</text>
</g>
<!-- Node10&#45;&gt;Node4 -->
<g id="edge14" class="edge">
<title>Node10&#45;&gt;Node4</title>
<path fill="none" stroke="#9a32cd" stroke-dasharray="5,2" d="M218.84,-489.16C238.88,-490.86 268.28,-493.09 294,-494 459.4,-499.84 656.14,-484.06 740.82,-476.18"/>
<polygon fill="#9a32cd" stroke="#9a32cd" points="219.02,-485.66 208.76,-488.28 218.42,-492.64 219.02,-485.66"/>
<text text-anchor="middle" x="513" y="-519" font-family="Helvetica,sans-Serif" font-size="10.00"> BITMASK_PRINT_WIDTH</text>
<text text-anchor="middle" x="513" y="-508" font-family="Helvetica,sans-Serif" font-size="10.00">UNDEF</text>
<text text-anchor="middle" x="513" y="-497" font-family="Helvetica,sans-Serif" font-size="10.00">height</text>
</g>
<!-- Node10&#45;&gt;Node5 -->
<g id="edge7" class="edge">
<title>Node10&#45;&gt;Node5</title>
<path fill="none" stroke="#9a32cd" stroke-dasharray="5,2" d="M213.13,-470.76C231.97,-454.8 263,-430.99 294,-418 345.29,-396.51 376.18,-432.77 417,-395 439.63,-374.06 413.63,-350.23 435,-328 448.1,-314.37 468.8,-308.44 485.43,-305.88"/>
<polygon fill="#9a32cd" stroke="#9a32cd" points="210.64,-468.29 205.37,-477.48 215.22,-473.58 210.64,-468.29"/>
<text text-anchor="middle" x="355.5" y="-432" font-family="Helvetica,sans-Serif" font-size="10.00"> BITMASK_PRINT_WIDTH</text>
<text text-anchor="middle" x="355.5" y="-421" font-family="Helvetica,sans-Serif" font-size="10.00">UNDEF</text>
</g>
<!-- Node17 -->
<g id="node14" class="node">
<title>Node17</title>
<g id="a_node14"><a xlink:href="classformat_1_1_style.html" target="_top" xlink:title="ノードの表示スタイルに関するプロパティのクラス.">
<polygon fill="white" stroke="red" points="493.5,-455.5 493.5,-474.5 532.5,-474.5 532.5,-455.5 493.5,-455.5"/>
<text text-anchor="middle" x="513" y="-462.5" font-family="Helvetica,sans-Serif" font-size="10.00">Style</text>
</a>
</g>
</g>
<!-- Node10&#45;&gt;Node17 -->
<g id="edge17" class="edge">
<title>Node10&#45;&gt;Node17</title>
<path fill="none" stroke="#9a32cd" stroke-dasharray="5,2" d="M218.74,-485.35C279.38,-481.14 438.99,-470.07 493.47,-466.29"/>
<polygon fill="#9a32cd" stroke="#9a32cd" points="218.35,-481.87 208.62,-486.05 218.84,-488.85 218.35,-481.87"/>
<text text-anchor="middle" x="355.5" y="-482" font-family="Helvetica,sans-Serif" font-size="10.00"> pref</text>
</g>
<!-- Node10&#45;&gt;Node27 -->
<g id="edge38" class="edge">
<title>Node10&#45;&gt;Node27</title>
<path fill="none" stroke="#9a32cd" stroke-dasharray="5,2" d="M201.58,-467.98C218,-421.62 261.75,-304.76 294,-280 338.11,-246.13 364.17,-274.38 417,-257 445.9,-247.49 477.26,-230.97 495.74,-220.53"/>
<polygon fill="#9a32cd" stroke="#9a32cd" points="198.26,-466.86 198.26,-477.45 204.87,-469.17 198.26,-466.86"/>
<text text-anchor="middle" x="355.5" y="-283" font-family="Helvetica,sans-Serif" font-size="10.00"> UNDEF</text>
</g>
<!-- Node10&#45;&gt;Node28 -->
<g id="edge44" class="edge">
<title>Node10&#45;&gt;Node28</title>
<path fill="none" stroke="#9a32cd" stroke-dasharray="5,2" d="M218.78,-482.32C275.34,-471.13 413.44,-443.52 417,-440 443.21,-414.05 406.23,-382.08 435,-359 486.97,-317.31 707.59,-353.37 767.78,-364.18"/>
<polygon fill="#9a32cd" stroke="#9a32cd" points="217.76,-478.95 208.62,-484.32 219.11,-485.82 217.76,-478.95"/>
<text text-anchor="middle" x="513" y="-362" font-family="Helvetica,sans-Serif" font-size="10.00"> UNDEF</text>
</g>
<!-- Node12 -->
<g id="node9" class="node">
<title>Node12</title>
<g id="a_node9"><a xlink:title=" ">
<polygon fill="white" stroke="#bfbfbf" points="169,-167.5 169,-186.5 219,-186.5 219,-167.5 169,-167.5"/>
<text text-anchor="middle" x="194" y="-174.5" font-family="Helvetica,sans-Serif" font-size="10.00">boolean</text>
</a>
</g>
</g>
<!-- Node12&#45;&gt;Node2 -->
<g id="edge34" class="edge">
<title>Node12&#45;&gt;Node2</title>
<path fill="none" stroke="#9a32cd" stroke-dasharray="5,2" d="M225.3,-163.5C280.93,-139.99 403.59,-94 512,-94 512,-94 512,-94 1008,-94 1086.18,-94 1070.54,-173.12 1093,-248 1107.66,-296.89 1083.74,-433.84 1111,-477 1113.4,-480.8 1116.85,-483.92 1120.63,-486.46"/>
<polygon fill="#9a32cd" stroke="#9a32cd" points="223.84,-160.32 216.02,-167.48 226.59,-166.76 223.84,-160.32"/>
<text text-anchor="middle" x="784" y="-97" font-family="Helvetica,sans-Serif" font-size="10.00"> DEBUG_REPO</text>
</g>
<!-- Node12&#45;&gt;Node3 -->
<g id="edge23" class="edge">
<title>Node12&#45;&gt;Node3</title>
<path fill="none" stroke="#9a32cd" stroke-dasharray="5,2" d="M229.36,-172.67C248.37,-170.49 272.46,-168.09 294,-167 348.6,-164.25 362.39,-164.5 417,-167 523.94,-171.89 847.39,-204.64 963.74,-216.62"/>
<polygon fill="#9a32cd" stroke="#9a32cd" points="228.88,-169.2 219.36,-173.85 229.7,-176.15 228.88,-169.2"/>
<text text-anchor="middle" x="647" y="-192" font-family="Helvetica,sans-Serif" font-size="10.00"> DEBUG_REPO</text>
</g>
<!-- Node12&#45;&gt;Node5 -->
<g id="edge8" class="edge">
<title>Node12&#45;&gt;Node5</title>
<path fill="none" stroke="#9a32cd" stroke-dasharray="5,2" d="M220.89,-191.22C240.46,-201.41 268.25,-214.75 294,-223 346.96,-239.96 365.89,-224.08 417,-246 426.07,-249.89 426.73,-253.62 435,-259 454.98,-272.01 478.79,-285.65 494.59,-294.46"/>
<polygon fill="#9a32cd" stroke="#9a32cd" points="222.47,-188.09 212,-186.5 219.19,-194.28 222.47,-188.09"/>
<text text-anchor="middle" x="355.5" y="-249" font-family="Helvetica,sans-Serif" font-size="10.00"> DEBUG_REPO</text>
</g>
<!-- Node12&#45;&gt;Node17 -->
<g id="edge18" class="edge">
<title>Node12&#45;&gt;Node17</title>
<path fill="none" stroke="#9a32cd" stroke-dasharray="5,2" d="M213.1,-193.86C230.3,-210.36 256.39,-236.64 276,-262 285.28,-274 281.35,-282.63 294,-291 340.14,-321.51 378.31,-270.46 417,-310 459.64,-353.58 394.33,-400.57 435,-446 449.51,-462.21 475.44,-465.65 493.17,-465.9"/>
<polygon fill="#9a32cd" stroke="#9a32cd" points="215.1,-190.94 205.44,-186.6 210.28,-196.02 215.1,-190.94"/>
<text text-anchor="middle" x="355.5" y="-324" font-family="Helvetica,sans-Serif" font-size="10.00"> preoperSupress</text>
<text text-anchor="middle" x="355.5" y="-313" font-family="Helvetica,sans-Serif" font-size="10.00">toInline</text>
</g>
<!-- Node12&#45;&gt;Node27 -->
<g id="edge39" class="edge">
<title>Node12&#45;&gt;Node27</title>
<path fill="none" stroke="#9a32cd" stroke-dasharray="5,2" d="M229.34,-173.69C273.22,-170.24 351.37,-166.77 417,-178 443.33,-182.5 472.12,-193.41 491.03,-201.46"/>
<polygon fill="#9a32cd" stroke="#9a32cd" points="228.88,-170.21 219.21,-174.53 229.46,-177.19 228.88,-170.21"/>
<text text-anchor="middle" x="355.5" y="-181" font-family="Helvetica,sans-Serif" font-size="10.00"> DEBUG_REPO</text>
</g>
<!-- Node13 -->
<g id="node10" class="node">
<title>Node13</title>
<g id="a_node10"><a xlink:href="interfaceformat_1_1_x_formattable_1_1_navigatable.html" target="_top" xlink:title="木構造の分岐ノードとして清書可能なオブジェクトのクラス">
<polygon fill="white" stroke="black" points="448,-562.5 448,-581.5 578,-581.5 578,-562.5 448,-562.5"/>
<text text-anchor="middle" x="513" y="-569.5" font-family="Helvetica,sans-Serif" font-size="10.00">XFormattable.Navigatable</text>
</a>
</g>
</g>
<!-- Node13&#45;&gt;Node4 -->
<g id="edge9" class="edge">
<title>Node13&#45;&gt;Node4</title>
<path fill="none" stroke="midnightblue" d="M570.78,-558.84C577.92,-555.9 584.87,-552.33 591,-548 601.89,-540.31 598.06,-531.63 609,-524 620.44,-516.02 699.24,-494.22 746.79,-481.52"/>
<polygon fill="midnightblue" stroke="midnightblue" points="569.14,-555.71 560.97,-562.46 571.56,-562.28 569.14,-555.71"/>
</g>
<!-- Node18 -->
<g id="node15" class="node">
<title>Node18</title>
<g id="a_node15"><a xlink:href="interfaceformat_1_1_x_formattable_1_1_field_navigatable.html" target="_top" xlink:title="タグ付きノードに対応する清書対象のクラス。">
<polygon fill="white" stroke="black" points="708.5,-508.5 708.5,-527.5 859.5,-527.5 859.5,-508.5 708.5,-508.5"/>
<text text-anchor="middle" x="784" y="-515.5" font-family="Helvetica,sans-Serif" font-size="10.00">XFormattable.FieldNavigatable</text>
</a>
</g>
</g>
<!-- Node13&#45;&gt;Node18 -->
<g id="edge20" class="edge">
<title>Node13&#45;&gt;Node18</title>
<path fill="none" stroke="midnightblue" d="M571.58,-560.44C620.47,-550.63 689.79,-536.71 735.55,-527.53"/>
<polygon fill="midnightblue" stroke="midnightblue" points="570.59,-557.07 561.47,-562.47 571.97,-563.93 570.59,-557.07"/>
</g>
<!-- Node13&#45;&gt;Node31 -->
<g id="edge48" class="edge">
<title>Node13&#45;&gt;Node31</title>
<path fill="none" stroke="midnightblue" d="M588.43,-572.62C659.6,-573.81 769.87,-577.24 865,-587 906.94,-591.3 955.36,-600.03 983.15,-605.41"/>
<polygon fill="midnightblue" stroke="midnightblue" points="588.27,-569.11 578.21,-572.46 588.16,-576.11 588.27,-569.11"/>
</g>
<!-- Node14&#45;&gt;Node2 -->
<g id="edge26" class="edge">
<title>Node14&#45;&gt;Node2</title>
<path fill="none" stroke="midnightblue" d="M280.77,-633.44C344.47,-640.29 433.53,-648 512,-648 512,-648 512,-648 915.5,-648 975.87,-648 998.47,-660.45 1050,-629 1099.72,-598.66 1130.29,-531.03 1140.33,-505.77"/>
<polygon fill="midnightblue" stroke="midnightblue" points="281.09,-629.95 270.77,-632.34 280.33,-636.91 281.09,-629.95"/>
</g>
<!-- Node14&#45;&gt;Node13 -->
<g id="edge10" class="edge">
<title>Node14&#45;&gt;Node13</title>
<path fill="none" stroke="midnightblue" d="M264.15,-611.87C320.52,-602.81 399.27,-590.14 452.77,-581.53"/>
<polygon fill="midnightblue" stroke="midnightblue" points="263.57,-608.42 254.25,-613.47 264.68,-615.33 263.57,-608.42"/>
</g>
<!-- Node15&#45;&gt;Node2 -->
<g id="edge27" class="edge">
<title>Node15&#45;&gt;Node2</title>
<path fill="none" stroke="midnightblue" d="M601.22,-693.62C745.47,-704.17 1024.62,-715.2 1093,-650 1103.96,-639.55 1132.48,-538.03 1141.34,-505.78"/>
<polygon fill="midnightblue" stroke="midnightblue" points="601.31,-690.12 591.07,-692.86 600.78,-697.1 601.31,-690.12"/>
</g>
<!-- Node15&#45;&gt;Node4 -->
<g id="edge12" class="edge">
<title>Node15&#45;&gt;Node4</title>
<path fill="none" stroke="midnightblue" d="M532.57,-669.42C564.73,-640.41 632.4,-578.09 685,-521 693.56,-511.71 692.61,-506.19 703,-499 714.21,-491.24 727.83,-485.56 740.64,-481.47"/>
<polygon fill="midnightblue" stroke="midnightblue" points="529.93,-667.08 524.83,-676.37 534.61,-672.29 529.93,-667.08"/>
</g>
<!-- Node16 -->
<g id="node13" class="node">
<title>Node16</title>
<g id="a_node13"><a xlink:title=" ">
<polygon fill="white" stroke="#bfbfbf" points="487,-417.5 487,-436.5 539,-436.5 539,-417.5 487,-417.5"/>
<text text-anchor="middle" x="513" y="-424.5" font-family="Helvetica,sans-Serif" font-size="10.00">Boolean</text>
</a>
</g>
</g>
<!-- Node16&#45;&gt;Node4 -->
<g id="edge15" class="edge">
<title>Node16&#45;&gt;Node4</title>
<path fill="none" stroke="#9a32cd" stroke-dasharray="5,2" d="M549.26,-428.3C584.04,-430.05 638.57,-434.05 685,-443 709.39,-447.7 736.41,-455.94 755.89,-462.43"/>
<polygon fill="#9a32cd" stroke="#9a32cd" points="549.29,-424.79 539.14,-427.82 548.96,-431.79 549.29,-424.79"/>
<text text-anchor="middle" x="647" y="-446" font-family="Helvetica,sans-Serif" font-size="10.00"> DEBUG_CHILD</text>
</g>
<!-- Node17&#45;&gt;Node4 -->
<g id="edge16" class="edge">
<title>Node17&#45;&gt;Node4</title>
<path fill="none" stroke="#9a32cd" stroke-dasharray="5,2" d="M542.58,-463.1C561.43,-461.95 586.68,-460.59 609,-460 642.77,-459.11 651.28,-457.94 685,-460 703.31,-461.12 723.43,-463.4 740.65,-465.67"/>
<polygon fill="#9a32cd" stroke="#9a32cd" points="542.32,-459.61 532.56,-463.73 542.76,-466.6 542.32,-459.61"/>
<text text-anchor="middle" x="647" y="-463" font-family="Helvetica,sans-Serif" font-size="10.00"> sty</text>
</g>
<!-- Node18&#45;&gt;Node3 -->
<g id="edge19" class="edge">
<title>Node18&#45;&gt;Node3</title>
<path fill="none" stroke="midnightblue" d="M850.31,-503.71C855.91,-500.33 860.97,-496.15 865,-491 894.95,-452.71 854.5,-312.37 883,-273 884.56,-270.84 947.42,-244.92 982.66,-230.51"/>
<polygon fill="midnightblue" stroke="midnightblue" points="848.44,-500.74 841.13,-508.41 851.63,-506.97 848.44,-500.74"/>
</g>
<!-- Node19 -->
<g id="node16" class="node">
<title>Node19</title>
<g id="a_node16"><a xlink:title=" ">
<polygon fill="white" stroke="#bfbfbf" points="746,-161.5 746,-180.5 822,-180.5 822,-161.5 746,-161.5"/>
<text text-anchor="middle" x="784" y="-168.5" font-family="Helvetica,sans-Serif" font-size="10.00">List&lt; String &gt;</text>
</a>
</g>
</g>
<!-- Node19&#45;&gt;Node3 -->
<g id="edge21" class="edge">
<title>Node19&#45;&gt;Node3</title>
<path fill="none" stroke="#9a32cd" stroke-dasharray="5,2" d="M832.28,-169.06C864.99,-169.1 909.09,-171.91 946,-184 964.14,-189.94 982.45,-202.38 993.99,-211.19"/>
<polygon fill="#9a32cd" stroke="#9a32cd" points="832.06,-165.56 822.09,-169.14 832.12,-172.56 832.06,-165.56"/>
<text text-anchor="middle" x="914.5" y="-187" font-family="Helvetica,sans-Serif" font-size="10.00"> fields</text>
</g>
<!-- Node20 -->
<g id="node17" class="node">
<title>Node20</title>
<g id="a_node17"><a xlink:title=" ">
<polygon fill="white" stroke="#bfbfbf" points="703,-123.5 703,-142.5 865,-142.5 865,-123.5 703,-123.5"/>
<text text-anchor="middle" x="784" y="-130.5" font-family="Helvetica,sans-Serif" font-size="10.00">List&lt; Supplier&lt; XFormattable &gt; &gt;</text>
</a>
</g>
</g>
<!-- Node20&#45;&gt;Node3 -->
<g id="edge22" class="edge">
<title>Node20&#45;&gt;Node3</title>
<path fill="none" stroke="#9a32cd" stroke-dasharray="5,2" d="M875.43,-135.8C899.39,-139.34 924.54,-145.75 946,-157 970.55,-169.87 990.52,-196.79 1000.01,-211.27"/>
<polygon fill="#9a32cd" stroke="#9a32cd" points="875.62,-132.29 865.25,-134.45 874.7,-139.23 875.62,-132.29"/>
<text text-anchor="middle" x="914.5" y="-160" font-family="Helvetica,sans-Serif" font-size="10.00"> getters</text>
</g>
<!-- Node21 -->
<g id="node18" class="node">
<title>Node21</title>
<g id="a_node18"><a xlink:href="interfacemachine_1_1_rule.html" target="_top" xlink:title="実行可能コードのインタフェース. ブロックとステップの二種がある。">
<polygon fill="white" stroke="black" points="988.5,-0.5 988.5,-19.5 1025.5,-19.5 1025.5,-0.5 988.5,-0.5"/>
<text text-anchor="middle" x="1007" y="-7.5" font-family="Helvetica,sans-Serif" font-size="10.00">Rule</text>
</a>
</g>
</g>
<!-- Node21&#45;&gt;Node2 -->
<g id="edge24" class="edge">
<title>Node21&#45;&gt;Node2</title>
<path fill="none" stroke="midnightblue" d="M1035.63,-9.88C1054.92,-11.41 1079.53,-16.94 1093,-34 1123.52,-72.67 1085.48,-434.86 1111,-477 1113.26,-480.73 1116.55,-483.8 1120.18,-486.31"/>
<polygon fill="midnightblue" stroke="midnightblue" points="1035.73,-6.38 1025.57,-9.39 1035.39,-13.37 1035.73,-6.38"/>
</g>
<!-- Node22 -->
<g id="node19" class="node">
<title>Node22</title>
<g id="a_node19"><a xlink:href="interfacecmd_1_1_generatable.html" target="_top" xlink:title="変換してコードを生成できるノードのインタフェース.">
<polygon fill="white" stroke="black" points="972.5,-562.5 972.5,-581.5 1041.5,-581.5 1041.5,-562.5 972.5,-562.5"/>
<text text-anchor="middle" x="1007" y="-569.5" font-family="Helvetica,sans-Serif" font-size="10.00">Generatable</text>
</a>
</g>
</g>
<!-- Node22&#45;&gt;Node2 -->
<g id="edge25" class="edge">
<title>Node22&#45;&gt;Node2</title>
<path fill="none" stroke="midnightblue" d="M1038.99,-558.18C1042.71,-556.46 1046.45,-554.71 1050,-553 1069.34,-543.68 1074.56,-541.99 1093,-531 1106.29,-523.09 1120.76,-513 1130.89,-505.69"/>
<polygon fill="midnightblue" stroke="midnightblue" points="1037.54,-555 1029.89,-562.34 1040.44,-561.37 1037.54,-555"/>
</g>
<!-- Node23 -->
<g id="node20" class="node">
<title>Node23</title>
<g id="a_node20"><a xlink:href="classcmd_1_1_cmd_list.html" target="_top" xlink:title="仮想命令のリスト．">
<polygon fill="white" stroke="black" points="486.5,-38.5 486.5,-57.5 539.5,-57.5 539.5,-38.5 486.5,-38.5"/>
<text text-anchor="middle" x="513" y="-45.5" font-family="Helvetica,sans-Serif" font-size="10.00">CmdList</text>
</a>
</g>
</g>
<!-- Node23&#45;&gt;Node2 -->
<g id="edge28" class="edge">
<title>Node23&#45;&gt;Node2</title>
<path fill="none" stroke="#9a32cd" stroke-dasharray="5,2" d="M549.47,-44.07C663.55,-32.3 1017.93,-2.69 1093,-80 1123.76,-111.68 1088.04,-439.28 1111,-477 1113.27,-480.73 1116.56,-483.79 1120.2,-486.3"/>
<polygon fill="#9a32cd" stroke="#9a32cd" points="549.09,-40.59 539.51,-45.12 549.82,-47.55 549.09,-40.59"/>
<text text-anchor="middle" x="914.5" y="-37" font-family="Helvetica,sans-Serif" font-size="10.00"> code_</text>
</g>
<!-- Node24&#45;&gt;Node23 -->
<g id="edge29" class="edge">
<title>Node24&#45;&gt;Node23</title>
<path fill="none" stroke="midnightblue" d="M226.87,-105.66C246.04,-98.08 271.09,-88.95 294,-83 362.27,-65.28 445.02,-54.95 486.17,-50.54"/>
<polygon fill="midnightblue" stroke="midnightblue" points="225.39,-102.48 217.42,-109.46 228,-108.98 225.39,-102.48"/>
</g>
<!-- Node24&#45;&gt;Node27 -->
<g id="edge36" class="edge">
<title>Node24&#45;&gt;Node27</title>
<path fill="none" stroke="midnightblue" d="M266.79,-130.37C310.8,-138.35 367.92,-150.55 417,-167 444.92,-176.36 475.55,-191.49 494.27,-201.34"/>
<polygon fill="midnightblue" stroke="midnightblue" points="267.21,-126.89 256.75,-128.58 265.98,-133.78 267.21,-126.89"/>
</g>
<!-- Node25 -->
<g id="node22" class="node">
<title>Node25</title>
<g id="a_node22"><a xlink:title=" ">
<polygon fill="white" stroke="#bfbfbf" points="158.5,-33.5 158.5,-52.5 229.5,-52.5 229.5,-33.5 158.5,-33.5"/>
<text text-anchor="middle" x="194" y="-40.5" font-family="Helvetica,sans-Serif" font-size="10.00">List&lt; Cmd &gt;</text>
</a>
</g>
</g>
<!-- Node25&#45;&gt;Node23 -->
<g id="edge31" class="edge">
<title>Node25&#45;&gt;Node23</title>
<path fill="none" stroke="#9a32cd" stroke-dasharray="5,2" d="M239.88,-42.71C284.73,-42.53 355.64,-42.57 417,-44 440.43,-44.55 467.1,-45.72 486.2,-46.65"/>
<polygon fill="#9a32cd" stroke="#9a32cd" points="239.6,-39.21 229.61,-42.75 239.63,-46.21 239.6,-39.21"/>
<text text-anchor="middle" x="355.5" y="-47" font-family="Helvetica,sans-Serif" font-size="10.00"> list_</text>
</g>
<!-- Node26 -->
<g id="node23" class="node">
<title>Node26</title>
<g id="a_node23"><a xlink:title=" ">
<polygon fill="white" stroke="#bfbfbf" points="980.5,-524.5 980.5,-543.5 1033.5,-543.5 1033.5,-524.5 980.5,-524.5"/>
<text text-anchor="middle" x="1007" y="-531.5" font-family="Helvetica,sans-Serif" font-size="10.00">StepList</text>
</a>
</g>
</g>
<!-- Node26&#45;&gt;Node2 -->
<g id="edge32" class="edge">
<title>Node26&#45;&gt;Node2</title>
<path fill="none" stroke="#9a32cd" stroke-dasharray="5,2" d="M1043.32,-524.13C1064.84,-518.12 1092.08,-510.51 1112.8,-504.72"/>
<polygon fill="#9a32cd" stroke="#9a32cd" points="1042.27,-520.79 1033.58,-526.85 1044.15,-527.53 1042.27,-520.79"/>
<text text-anchor="middle" x="1080.5" y="-519" font-family="Helvetica,sans-Serif" font-size="10.00"> sub_</text>
</g>
<!-- Node27&#45;&gt;Node2 -->
<g id="edge35" class="edge">
<title>Node27&#45;&gt;Node2</title>
<path fill="none" stroke="#9a32cd" stroke-dasharray="5,2" d="M546.93,-220.34C633.46,-245.7 872.77,-321.18 1050,-428 1079.78,-445.95 1082.29,-457.38 1111,-477 1115.8,-480.28 1121.2,-483.55 1126.22,-486.43"/>
<polygon fill="#9a32cd" stroke="#9a32cd" points="547.73,-216.93 537.15,-217.49 545.78,-223.65 547.73,-216.93"/>
<text text-anchor="middle" x="914.5" y="-374" font-family="Helvetica,sans-Serif" font-size="10.00"> refs_</text>
</g>
<!-- Node27&#45;&gt;Node27 -->
<g id="edge40" class="edge">
<title>Node27&#45;&gt;Node27</title>
<path fill="none" stroke="#9a32cd" stroke-dasharray="5,2" d="M488.07,-230.03C489.43,-235.13 497.74,-239 513,-239 536.82,-239 543.7,-229.57 533.65,-220.76"/>
<polygon fill="#9a32cd" stroke="#9a32cd" points="491.34,-231.3 492.35,-220.76 484.98,-228.37 491.34,-231.3"/>
<text text-anchor="middle" x="513" y="-242" font-family="Helvetica,sans-Serif" font-size="10.00"> parent</text>
</g>
<!-- Node28&#45;&gt;Node2 -->
<g id="edge41" class="edge">
<title>Node28&#45;&gt;Node2</title>
<path fill="none" stroke="#9a32cd" stroke-dasharray="5,2" d="M809.91,-375.95C875.12,-399.38 1050.38,-462.36 1117.42,-486.45"/>
<polygon fill="#9a32cd" stroke="#9a32cd" points="811.02,-372.63 800.43,-372.54 808.65,-379.22 811.02,-372.63"/>
<text text-anchor="middle" x="1007" y="-463" font-family="Helvetica,sans-Serif" font-size="10.00"> retRef_</text>
</g>
<!-- Node29 -->
<g id="node26" class="node">
<title>Node29</title>
<g id="a_node26"><a xlink:href="interfacemachine_1_1_assignable.html" target="_top" xlink:title="変数（チャネルとコンテナの名前）の抽象化">
<polygon fill="white" stroke="black" points="480.5,-379.5 480.5,-398.5 545.5,-398.5 545.5,-379.5 480.5,-379.5"/>
<text text-anchor="middle" x="513" y="-386.5" font-family="Helvetica,sans-Serif" font-size="10.00">Assignable</text>
</a>
</g>
</g>
<!-- Node29&#45;&gt;Node28 -->
<g id="edge43" class="edge">
<title>Node29&#45;&gt;Node28</title>
<path fill="none" stroke="midnightblue" d="M555.72,-385.59C616.75,-380.6 727.5,-371.54 767.81,-368.24"/>
<polygon fill="midnightblue" stroke="midnightblue" points="555.33,-382.11 545.65,-386.41 555.9,-389.08 555.33,-382.11"/>
</g>
<!-- Node30 -->
<g id="node27" class="node">
<title>Node30</title>
<g id="a_node27"><a xlink:href="interfaceast_1_1_traversable.html" target="_top" xlink:title="巡回可能な木のインタフェース">
<polygon fill="white" stroke="black" points="1111,-448.5 1111,-467.5 1179,-467.5 1179,-448.5 1111,-448.5"/>
<text text-anchor="middle" x="1145" y="-455.5" font-family="Helvetica,sans-Serif" font-size="10.00">Traversable</text>
</a>
</g>
</g>
<!-- Node30&#45;&gt;Node1 -->
<g id="edge45" class="edge">
<title>Node30&#45;&gt;Node1</title>
<path fill="none" stroke="midnightblue" d="M1175.76,-473.69C1176.91,-474.74 1178,-475.84 1179,-477 1214.6,-518.12 1229.42,-584.44 1233.91,-609.23"/>
<polygon fill="midnightblue" stroke="midnightblue" points="1177.58,-470.69 1167.47,-467.55 1173.42,-476.31 1177.58,-470.69"/>
</g>
<!-- Node31&#45;&gt;Node1 -->
<g id="edge46" class="edge">
<title>Node31&#45;&gt;Node1</title>
<path fill="none" stroke="#9a32cd" stroke-dasharray="5,2" d="M1040.82,-611.3C1088.85,-613.2 1176.81,-616.68 1215.89,-618.22"/>
<polygon fill="#9a32cd" stroke="#9a32cd" points="1040.78,-607.79 1030.65,-610.9 1040.5,-614.79 1040.78,-607.79"/>
<text text-anchor="middle" x="1145" y="-619" font-family="Helvetica,sans-Serif" font-size="10.00"> sents_</text>
</g>
</g>
</svg>
