<?xml version="1.0" encoding="UTF-8" standalone="no"?>
<!DOCTYPE svg PUBLIC "-//W3C//DTD SVG 1.1//EN"
 "http://www.w3.org/Graphics/SVG/1.1/DTD/svg11.dtd">
<!-- Generated by graphviz version 2.47.0 (20210316.0004)
 -->
<!-- Title: AstDataReader Pages: 1 -->
<!--zoomable 530 -->
<svg id="main" version="1.1" xmlns="http://www.w3.org/2000/svg" xmlns:xlink="http://www.w3.org/1999/xlink" xml:space="preserve" onload="init(evt)">
<style type="text/css"><![CDATA[
.edge:hover path { stroke: red; }
.edge:hover polygon { stroke: red; fill: red; }
]]></style>
<script type="text/javascript"><![CDATA[
var edges = document.getElementsByTagName('g');
if (edges && edges.length) {
  for (var i=0;i<edges.length;i++) {
    if (edges[i].id.substr(0,4)=='edge') {
      edges[i].setAttribute('class','edge');
    }
  }
}
]]></script>
        <defs>
                <circle id="rim" cx="0" cy="0" r="7"/>
                <circle id="rim2" cx="0" cy="0" r="3.5"/>
                <g id="zoomPlus">
                        <use xlink:href="#rim" fill="#404040">
                                <set attributeName="fill" to="#808080" begin="zoomplus.mouseover" end="zoomplus.mouseout"/>
                        </use>
                        <path d="M-4,0h8M0,-4v8" fill="none" stroke="white" stroke-width="1.5" pointer-events="none"/>
                </g>
                <g id="zoomMin">
                        <use xlink:href="#rim" fill="#404040">
                                <set attributeName="fill" to="#808080" begin="zoomminus.mouseover" end="zoomminus.mouseout"/>
                        </use>
                        <path d="M-4,0h8" fill="none" stroke="white" stroke-width="1.5" pointer-events="none"/>
                </g>
                <g id="dirArrow">
                        <path fill="none" stroke="white" stroke-width="1.5" d="M0,-3.0v7 M-2.5,-0.5L0,-3.0L2.5,-0.5"/>
                </g>
               <g id="resetDef">
                       <use xlink:href="#rim2" fill="#404040">
                               <set attributeName="fill" to="#808080" begin="reset.mouseover" end="reset.mouseout"/>
                       </use>
               </g>
        </defs>

<script type="text/javascript">
var viewWidth = 754;
var viewHeight = 530;
var sectionId = 'dynsection-1';
</script>
<script xlink:href="svgpan.js"/>
<svg id="graph" class="graph">
<g id="viewport">
<title>AstDataReader</title>
<polygon fill="white" stroke="transparent" points="-4,4 -4,-525.55 750,-525.55 750,4 -4,4"/>
<!-- Node1 -->
<g id="node1" class="node">
<title>Node1</title>
<g id="a_node1"><a xlink:title="値の読み出しオブジェクト．">
<polygon fill="#bfbfbf" stroke="black" points="662,-38.5 662,-57.5 746,-57.5 746,-38.5 662,-38.5"/>
<text text-anchor="middle" x="704" y="-45.5" font-family="Helvetica,sans-Serif" font-size="10.00">AstDataReader</text>
</a>
</g>
</g>
<!-- Node2 -->
<g id="node2" class="node">
<title>Node2</title>
<g id="a_node2"><a xlink:href="classast_1_1_ast_node.html" target="_top" xlink:title="タグなしの順アクセスの子供をもてる抽象構文木のノードのクラス。">
<polygon fill="white" stroke="black" points="536,-378.5 536,-397.5 591,-397.5 591,-378.5 536,-378.5"/>
<text text-anchor="middle" x="563.5" y="-385.5" font-family="Helvetica,sans-Serif" font-size="10.00">AstNode</text>
</a>
</g>
</g>
<!-- Node2&#45;&gt;Node1 -->
<g id="edge1" class="edge">
<title>Node2&#45;&gt;Node1</title>
<path fill="none" stroke="midnightblue" d="M572.41,-368.57C598.37,-304.86 680.3,-103.72 699.12,-57.52"/>
<polygon fill="midnightblue" stroke="midnightblue" points="569.03,-367.61 568.5,-378.19 575.51,-370.25 569.03,-367.61"/>
</g>
<!-- Node3 -->
<g id="node3" class="node">
<title>Node3</title>
<g id="a_node3"><a xlink:href="classast_1_1_ast_node_base.html" target="_top" xlink:title=" ">
<polygon fill="white" stroke="black" points="273.5,-362.5 273.5,-381.5 350.5,-381.5 350.5,-362.5 273.5,-362.5"/>
<text text-anchor="middle" x="312" y="-369.5" font-family="Helvetica,sans-Serif" font-size="10.00">AstNodeBase</text>
</a>
</g>
</g>
<!-- Node3&#45;&gt;Node2 -->
<g id="edge2" class="edge">
<title>Node3&#45;&gt;Node2</title>
<path fill="none" stroke="midnightblue" d="M360.93,-375.07C412.9,-378.41 494,-383.61 535.72,-386.28"/>
<polygon fill="midnightblue" stroke="midnightblue" points="360.83,-371.56 350.62,-374.41 360.38,-378.55 360.83,-371.56"/>
</g>
<!-- Node4 -->
<g id="node4" class="node">
<title>Node4</title>
<g id="a_node4"><a xlink:title=" ">
<polygon fill="white" stroke="#bfbfbf" points="16.5,-205.5 16.5,-224.5 58.5,-224.5 58.5,-205.5 16.5,-205.5"/>
<text text-anchor="middle" x="37.5" y="-212.5" font-family="Helvetica,sans-Serif" font-size="10.00">String</text>
</a>
</g>
</g>
<!-- Node4&#45;&gt;Node3 -->
<g id="edge3" class="edge">
<title>Node4&#45;&gt;Node3</title>
<path fill="none" stroke="#9a32cd" stroke-dasharray="5,2" d="M58.99,-230.55C68.79,-237.24 80.99,-244.54 93,-249 144.86,-268.25 167.24,-241.87 216,-268 258.89,-290.99 292.51,-341.08 305.35,-362.25"/>
<polygon fill="#9a32cd" stroke="#9a32cd" points="60.9,-227.62 50.73,-224.67 56.84,-233.32 60.9,-227.62"/>
<text text-anchor="middle" x="154.5" y="-282" font-family="Helvetica,sans-Serif" font-size="10.00"> MOD_AST</text>
<text text-anchor="middle" x="154.5" y="-271" font-family="Helvetica,sans-Serif" font-size="10.00">mod_</text>
</g>
<!-- Node14 -->
<g id="node14" class="node">
<title>Node14</title>
<g id="a_node14"><a xlink:href="classformat_1_1_style.html" target="_top" xlink:title="ノードの表示スタイルに関するプロパティのクラス.">
<polygon fill="white" stroke="black" points="292.5,-248.5 292.5,-267.5 331.5,-267.5 331.5,-248.5 292.5,-248.5"/>
<text text-anchor="middle" x="312" y="-255.5" font-family="Helvetica,sans-Serif" font-size="10.00">Style</text>
</a>
</g>
</g>
<!-- Node4&#45;&gt;Node14 -->
<g id="edge15" class="edge">
<title>Node4&#45;&gt;Node14</title>
<path fill="none" stroke="#9a32cd" stroke-dasharray="5,2" d="M50.69,-196.96C60.44,-184.25 75.39,-168.25 93,-161 143.55,-140.2 165.6,-139.82 216,-161 259.24,-179.18 292.66,-227.71 305.4,-248.42"/>
<polygon fill="#9a32cd" stroke="#9a32cd" points="47.83,-194.94 44.79,-205.09 53.49,-199.05 47.83,-194.94"/>
<text text-anchor="middle" x="154.5" y="-241" font-family="Helvetica,sans-Serif" font-size="10.00"> childLPAD</text>
<text text-anchor="middle" x="154.5" y="-230" font-family="Helvetica,sans-Serif" font-size="10.00">childRPAD</text>
<text text-anchor="middle" x="154.5" y="-219" font-family="Helvetica,sans-Serif" font-size="10.00">name</text>
<text text-anchor="middle" x="154.5" y="-208" font-family="Helvetica,sans-Serif" font-size="10.00">operSTR</text>
<text text-anchor="middle" x="154.5" y="-197" font-family="Helvetica,sans-Serif" font-size="10.00">parenLPAD</text>
<text text-anchor="middle" x="154.5" y="-186" font-family="Helvetica,sans-Serif" font-size="10.00">parenLPAR</text>
<text text-anchor="middle" x="154.5" y="-175" font-family="Helvetica,sans-Serif" font-size="10.00">parenRPAD</text>
<text text-anchor="middle" x="154.5" y="-164" font-family="Helvetica,sans-Serif" font-size="10.00">parenRPAR</text>
</g>
<!-- Node5 -->
<g id="node5" class="node">
<title>Node5</title>
<g id="a_node5"><a xlink:title=" ">
<polygon fill="white" stroke="#bfbfbf" points="5,-457.5 5,-476.5 70,-476.5 70,-457.5 5,-457.5"/>
<text text-anchor="middle" x="37.5" y="-464.5" font-family="Helvetica,sans-Serif" font-size="10.00">TraceLevel</text>
</a>
</g>
</g>
<!-- Node5&#45;&gt;Node3 -->
<g id="edge4" class="edge">
<title>Node5&#45;&gt;Node3</title>
<path fill="none" stroke="#9a32cd" stroke-dasharray="5,2" d="M80.13,-462.91C129.26,-457.73 205.63,-448.47 216,-440 233.97,-425.32 216.72,-406.48 234,-391 244.77,-381.36 259.66,-376.43 273.48,-373.97"/>
<polygon fill="#9a32cd" stroke="#9a32cd" points="79.67,-459.43 70.09,-463.95 80.4,-466.4 79.67,-459.43"/>
<text text-anchor="middle" x="154.5" y="-464" font-family="Helvetica,sans-Serif" font-size="10.00"> LOG</text>
</g>
<!-- Node6 -->
<g id="node6" class="node">
<title>Node6</title>
<g id="a_node6"><a xlink:title=" ">
<polygon fill="white" stroke="#bfbfbf" points="1,-419.5 1,-438.5 74,-438.5 74,-419.5 1,-419.5"/>
<text text-anchor="middle" x="37.5" y="-426.5" font-family="Helvetica,sans-Serif" font-size="10.00">static Report</text>
</a>
</g>
</g>
<!-- Node6&#45;&gt;Node3 -->
<g id="edge5" class="edge">
<title>Node6&#45;&gt;Node3</title>
<path fill="none" stroke="#9a32cd" stroke-dasharray="5,2" d="M84.4,-426.19C120.88,-422.91 172.78,-415.89 216,-401 224.65,-398.02 225.48,-394.35 234,-391 246.43,-386.11 260.5,-382.2 273.17,-379.23"/>
<polygon fill="#9a32cd" stroke="#9a32cd" points="83.74,-422.73 74.07,-427.05 84.33,-429.71 83.74,-422.73"/>
<text text-anchor="middle" x="154.5" y="-428" font-family="Helvetica,sans-Serif" font-size="10.00"> repo</text>
</g>
<!-- Node7 -->
<g id="node7" class="node">
<title>Node7</title>
<g id="a_node7"><a xlink:title=" ">
<polygon fill="white" stroke="#bfbfbf" points="23,-323.5 23,-342.5 52,-342.5 52,-323.5 23,-323.5"/>
<text text-anchor="middle" x="37.5" y="-330.5" font-family="Helvetica,sans-Serif" font-size="10.00">int</text>
</a>
</g>
</g>
<!-- Node7&#45;&gt;Node3 -->
<g id="edge6" class="edge">
<title>Node7&#45;&gt;Node3</title>
<path fill="none" stroke="#9a32cd" stroke-dasharray="5,2" d="M62.78,-334.82C97.06,-337.56 161.55,-343.38 216,-352 234.98,-355.01 255.89,-359.3 273.26,-363.14"/>
<polygon fill="#9a32cd" stroke="#9a32cd" points="62.61,-331.29 52.37,-334.01 62.07,-338.27 62.61,-331.29"/>
<text text-anchor="middle" x="154.5" y="-366" font-family="Helvetica,sans-Serif" font-size="10.00"> BITMASK_PRINT_WIDTH</text>
<text text-anchor="middle" x="154.5" y="-355" font-family="Helvetica,sans-Serif" font-size="10.00">UNDEF</text>
</g>
<!-- Node7&#45;&gt;Node14 -->
<g id="edge16" class="edge">
<title>Node7&#45;&gt;Node14</title>
<path fill="none" stroke="#9a32cd" stroke-dasharray="5,2" d="M62.07,-328.27C103.4,-319.89 187.27,-302.55 216,-294 243.05,-285.95 273.4,-273.9 292.35,-265.99"/>
<polygon fill="#9a32cd" stroke="#9a32cd" points="61.19,-324.87 52.08,-330.28 62.57,-331.74 61.19,-324.87"/>
<text text-anchor="middle" x="154.5" y="-324" font-family="Helvetica,sans-Serif" font-size="10.00"> pref</text>
</g>
<!-- Node8 -->
<g id="node8" class="node">
<title>Node8</title>
<g id="a_node8"><a xlink:href="interfacetype_1_1_typable.html" target="_top" xlink:title="抽象ノードがもつ関数型のインタフェース">
<polygon fill="white" stroke="black" points="12.5,-381.5 12.5,-400.5 62.5,-400.5 62.5,-381.5 12.5,-381.5"/>
<text text-anchor="middle" x="37.5" y="-388.5" font-family="Helvetica,sans-Serif" font-size="10.00">Typable</text>
</a>
</g>
</g>
<!-- Node8&#45;&gt;Node3 -->
<g id="edge7" class="edge">
<title>Node8&#45;&gt;Node3</title>
<path fill="none" stroke="#9a32cd" stroke-dasharray="5,2" d="M72.9,-388.6C124.08,-385.03 219.96,-378.35 273.1,-374.64"/>
<polygon fill="#9a32cd" stroke="#9a32cd" points="72.41,-385.13 62.68,-389.31 72.9,-392.11 72.41,-385.13"/>
<text text-anchor="middle" x="154.5" y="-389" font-family="Helvetica,sans-Serif" font-size="10.00"> typing</text>
</g>
<!-- Node9 -->
<g id="node9" class="node">
<title>Node9</title>
<g id="a_node9"><a xlink:title=" ">
<polygon fill="white" stroke="#bfbfbf" points="12.5,-71.5 12.5,-90.5 62.5,-90.5 62.5,-71.5 12.5,-71.5"/>
<text text-anchor="middle" x="37.5" y="-78.5" font-family="Helvetica,sans-Serif" font-size="10.00">boolean</text>
</a>
</g>
</g>
<!-- Node9&#45;&gt;Node1 -->
<g id="edge20" class="edge">
<title>Node9&#45;&gt;Node1</title>
<path fill="none" stroke="#9a32cd" stroke-dasharray="5,2" d="M70.44,-68.01C77.74,-65.56 85.54,-63.35 93,-62 304.07,-23.77 562.9,-37.26 661.87,-44.57"/>
<polygon fill="#9a32cd" stroke="#9a32cd" points="69.11,-64.76 60.88,-71.43 71.47,-71.35 69.11,-64.76"/>
<text text-anchor="middle" x="446" y="-40" font-family="Helvetica,sans-Serif" font-size="10.00"> DEBUG_TYPE</text>
</g>
<!-- Node9&#45;&gt;Node3 -->
<g id="edge8" class="edge">
<title>Node9&#45;&gt;Node3</title>
<path fill="none" stroke="#9a32cd" stroke-dasharray="5,2" d="M67.93,-94.63C75.95,-98.01 84.71,-101.4 93,-104 146.32,-120.72 178.24,-88.82 216,-130 238.24,-154.26 221.14,-246.71 234,-277 249.35,-313.15 282.73,-346.67 300.06,-362.47"/>
<polygon fill="#9a32cd" stroke="#9a32cd" points="69.17,-91.35 58.6,-90.57 66.37,-97.77 69.17,-91.35"/>
<text text-anchor="middle" x="154.5" y="-133" font-family="Helvetica,sans-Serif" font-size="10.00"> DEBUG_REPO</text>
</g>
<!-- Node9&#45;&gt;Node14 -->
<g id="edge17" class="edge">
<title>Node9&#45;&gt;Node14</title>
<path fill="none" stroke="#9a32cd" stroke-dasharray="5,2" d="M72.69,-71.5C110.6,-63.06 172.17,-55.68 216,-82 279.71,-120.25 303.29,-217.54 309.31,-248.43"/>
<polygon fill="#9a32cd" stroke="#9a32cd" points="71.58,-68.17 62.66,-73.89 73.2,-74.98 71.58,-68.17"/>
<text text-anchor="middle" x="154.5" y="-96" font-family="Helvetica,sans-Serif" font-size="10.00"> preoperSupress</text>
<text text-anchor="middle" x="154.5" y="-85" font-family="Helvetica,sans-Serif" font-size="10.00">toInline</text>
</g>
<!-- Node10 -->
<g id="node10" class="node">
<title>Node10</title>
<g id="a_node10"><a xlink:href="interfaceformat_1_1_x_formattable_1_1_navigatable.html" target="_top" xlink:title="木構造の分岐ノードとして清書可能なオブジェクトのクラス">
<polygon fill="white" stroke="black" points="247,-400.5 247,-419.5 377,-419.5 377,-400.5 247,-400.5"/>
<text text-anchor="middle" x="312" y="-407.5" font-family="Helvetica,sans-Serif" font-size="10.00">XFormattable.Navigatable</text>
</a>
</g>
</g>
<!-- Node10&#45;&gt;Node2 -->
<g id="edge9" class="edge">
<title>Node10&#45;&gt;Node2</title>
<path fill="none" stroke="midnightblue" d="M387.4,-403.44C437.48,-399.02 500.56,-393.46 535.7,-390.36"/>
<polygon fill="midnightblue" stroke="midnightblue" points="386.91,-399.97 377.25,-404.33 387.52,-406.94 386.91,-399.97"/>
</g>
<!-- Node11 -->
<g id="node11" class="node">
<title>Node11</title>
<g id="a_node11"><a xlink:href="interfaceformat_1_1_x_formattable.html" target="_top" xlink:title="入れ子フォーマット出力可能なオブジェクトのインタフェース。">
<polygon fill="white" stroke="black" points="0,-499.5 0,-518.5 75,-518.5 75,-499.5 0,-499.5"/>
<text text-anchor="middle" x="37.5" y="-506.5" font-family="Helvetica,sans-Serif" font-size="10.00">XFormattable</text>
</a>
</g>
</g>
<!-- Node11&#45;&gt;Node10 -->
<g id="edge10" class="edge">
<title>Node11&#45;&gt;Node10</title>
<path fill="none" stroke="midnightblue" d="M85.43,-502.4C134.57,-495.11 206,-483.31 216,-475 232.88,-460.97 217.49,-443.47 234,-429 238.35,-425.19 243.34,-422.11 248.65,-419.64"/>
<polygon fill="midnightblue" stroke="midnightblue" points="84.7,-498.97 75.31,-503.88 85.72,-505.89 84.7,-498.97"/>
</g>
<!-- Node12 -->
<g id="node12" class="node">
<title>Node12</title>
<g id="a_node12"><a xlink:href="interfaceformat_1_1_x_formattable_1_1_typed_formattable.html" target="_top" xlink:title="ノードの型情報をもつ書式出力可能なオブジェクトのインタフェース．">
<polygon fill="white" stroke="black" points="234,-438.5 234,-457.5 390,-457.5 390,-438.5 234,-438.5"/>
<text text-anchor="middle" x="312" y="-445.5" font-family="Helvetica,sans-Serif" font-size="10.00">XFormattable.TypedFormattable</text>
</a>
</g>
</g>
<!-- Node11&#45;&gt;Node12 -->
<g id="edge12" class="edge">
<title>Node11&#45;&gt;Node12</title>
<path fill="none" stroke="midnightblue" d="M85.56,-518.47C123.67,-523.5 177.19,-524.39 216,-500 230.15,-491.11 220.77,-477.2 234,-467 239.02,-463.13 244.72,-460.04 250.69,-457.57"/>
<polygon fill="midnightblue" stroke="midnightblue" points="85.65,-514.94 75.25,-516.95 84.63,-521.87 85.65,-514.94"/>
</g>
<!-- Node12&#45;&gt;Node2 -->
<g id="edge11" class="edge">
<title>Node12&#45;&gt;Node2</title>
<path fill="none" stroke="midnightblue" d="M374.05,-436.52C406.81,-430.02 447.79,-421.33 484,-412 501.39,-407.52 520.68,-401.64 535.78,-396.82"/>
<polygon fill="midnightblue" stroke="midnightblue" points="373.29,-433.1 364.16,-438.47 374.64,-439.97 373.29,-433.1"/>
</g>
<!-- Node13 -->
<g id="node13" class="node">
<title>Node13</title>
<g id="a_node13"><a xlink:title=" ">
<polygon fill="white" stroke="#bfbfbf" points="286,-476.5 286,-495.5 338,-495.5 338,-476.5 286,-476.5"/>
<text text-anchor="middle" x="312" y="-483.5" font-family="Helvetica,sans-Serif" font-size="10.00">Boolean</text>
</a>
</g>
</g>
<!-- Node13&#45;&gt;Node2 -->
<g id="edge13" class="edge">
<title>Node13&#45;&gt;Node2</title>
<path fill="none" stroke="#9a32cd" stroke-dasharray="5,2" d="M348.23,-478.06C361.41,-474.89 376.46,-471.04 390,-467 432.43,-454.35 443.82,-452.61 484,-434 507.36,-423.18 532.8,-407.49 548.2,-397.52"/>
<polygon fill="#9a32cd" stroke="#9a32cd" points="347.06,-474.74 338.13,-480.44 348.67,-481.55 347.06,-474.74"/>
<text text-anchor="middle" x="446" y="-464" font-family="Helvetica,sans-Serif" font-size="10.00"> DEBUG_CHILD</text>
</g>
<!-- Node14&#45;&gt;Node2 -->
<g id="edge14" class="edge">
<title>Node14&#45;&gt;Node2</title>
<path fill="none" stroke="#9a32cd" stroke-dasharray="5,2" d="M340.51,-272.33C391.8,-299.06 500.75,-355.83 544.13,-378.43"/>
<polygon fill="#9a32cd" stroke="#9a32cd" points="341.83,-269.08 331.35,-267.56 338.6,-275.28 341.83,-269.08"/>
<text text-anchor="middle" x="446" y="-348" font-family="Helvetica,sans-Serif" font-size="10.00"> sty</text>
</g>
<!-- Node15 -->
<g id="node15" class="node">
<title>Node15</title>
<g id="a_node15"><a xlink:href="interfacecmd_1_1_generatable_1_1_evaluatable.html" target="_top" xlink:title="評価して値を返すノードのインタフェース．必ずしもコードを生成しなくても良い．">
<polygon fill="white" stroke="black" points="502,-0.5 502,-19.5 625,-19.5 625,-0.5 502,-0.5"/>
<text text-anchor="middle" x="563.5" y="-7.5" font-family="Helvetica,sans-Serif" font-size="10.00">Generatable.Evaluatable</text>
</a>
</g>
</g>
<!-- Node15&#45;&gt;Node1 -->
<g id="edge18" class="edge">
<title>Node15&#45;&gt;Node1</title>
<path fill="none" stroke="midnightblue" d="M609.13,-22.25C628.22,-27.48 650.18,-33.51 668.06,-38.41"/>
<polygon fill="midnightblue" stroke="midnightblue" points="610.02,-18.86 599.45,-19.59 608.17,-25.61 610.02,-18.86"/>
</g>
<!-- Node16 -->
<g id="node16" class="node">
<title>Node16</title>
<g id="a_node16"><a xlink:href="interfacecmd_1_1_generatable.html" target="_top" xlink:title="変換してコードを生成できるノードのインタフェース.">
<polygon fill="white" stroke="black" points="277.5,-0.5 277.5,-19.5 346.5,-19.5 346.5,-0.5 277.5,-0.5"/>
<text text-anchor="middle" x="312" y="-7.5" font-family="Helvetica,sans-Serif" font-size="10.00">Generatable</text>
</a>
</g>
</g>
<!-- Node16&#45;&gt;Node15 -->
<g id="edge19" class="edge">
<title>Node16&#45;&gt;Node15</title>
<path fill="none" stroke="midnightblue" d="M356.67,-10C396.84,-10 456.81,-10 501.67,-10"/>
<polygon fill="midnightblue" stroke="midnightblue" points="356.65,-6.5 346.65,-10 356.65,-13.5 356.65,-6.5"/>
</g>
</g>
</svg>
        <g id="navigator" transform="translate(0 0)" fill="#404254">
                <rect fill="#f2f5e9" fill-opacity="0.5" stroke="#606060" stroke-width=".5" x="0" y="0" width="60" height="60"/>
                <use id="zoomplus" xlink:href="#zoomPlus" x="17" y="9" onmousedown="handleZoom(evt,'in')"/>
                <use id="zoomminus" xlink:href="#zoomMin" x="42" y="9" onmousedown="handleZoom(evt,'out')"/>
                <use id="reset" xlink:href="#resetDef" x="30" y="36" onmousedown="handleReset()"/>
                <g id="arrowUp" xlink:href="#dirArrow" transform="translate(30 24)" onmousedown="handlePan(0,-1)">
                  <use xlink:href="#rim" fill="#404040">
                        <set attributeName="fill" to="#808080" begin="arrowUp.mouseover" end="arrowUp.mouseout"/>
                  </use>
                  <path fill="none" stroke="white" stroke-width="1.5" d="M0,-3.0v7 M-2.5,-0.5L0,-3.0L2.5,-0.5"/>
                </g>
                <g id="arrowRight" xlink:href="#dirArrow" transform="rotate(90) translate(36 -43)" onmousedown="handlePan(1,0)">
                  <use xlink:href="#rim" fill="#404040">
                        <set attributeName="fill" to="#808080" begin="arrowRight.mouseover" end="arrowRight.mouseout"/>
                  </use>
                  <path fill="none" stroke="white" stroke-width="1.5" d="M0,-3.0v7 M-2.5,-0.5L0,-3.0L2.5,-0.5"/>
                </g>
                <g id="arrowDown" xlink:href="#dirArrow" transform="rotate(180) translate(-30 -48)" onmousedown="handlePan(0,1)">
                  <use xlink:href="#rim" fill="#404040">
                        <set attributeName="fill" to="#808080" begin="arrowDown.mouseover" end="arrowDown.mouseout"/>
                  </use>
                  <path fill="none" stroke="white" stroke-width="1.5" d="M0,-3.0v7 M-2.5,-0.5L0,-3.0L2.5,-0.5"/>
                </g>
                <g id="arrowLeft" xlink:href="#dirArrow" transform="rotate(270) translate(-36 17)" onmousedown="handlePan(-1,0)">
                  <use xlink:href="#rim" fill="#404040">
                        <set attributeName="fill" to="#808080" begin="arrowLeft.mouseover" end="arrowLeft.mouseout"/>
                  </use>
                  <path fill="none" stroke="white" stroke-width="1.5" d="M0,-3.0v7 M-2.5,-0.5L0,-3.0L2.5,-0.5"/>
                </g>
        </g>
        <svg viewBox="0 0 15 15" width="100%" height="30px" preserveAspectRatio="xMaxYMin meet">
         <g id="arrow_out" transform="scale(0.3 0.3)">
          <a xlink:href="classast_1_1_ast_data_reader__coll__graph_org.svg" target="_base">
           <rect id="button" ry="5" rx="5" y="6" x="6" height="38" width="38"
                fill="#f2f5e9" fill-opacity="0.5" stroke="#606060" stroke-width="1.0"/>
           <path id="arrow"
             d="M 11.500037,31.436501 C 11.940474,20.09759 22.043105,11.32322 32.158766,21.979434 L 37.068811,17.246167 C 37.068811,17.246167 37.088388,32 37.088388,32 L 22.160133,31.978069 C 22.160133,31.978069 26.997745,27.140456 26.997745,27.140456 C 18.528582,18.264221 13.291696,25.230495 11.500037,31.436501 z"
             style="fill:#404040;"/>
          </a>
         </g>
        </svg>
</svg>
