<?xml version="1.0" encoding="UTF-8" standalone="no"?>
<!DOCTYPE svg PUBLIC "-//W3C//DTD SVG 1.1//EN"
 "http://www.w3.org/Graphics/SVG/1.1/DTD/svg11.dtd">
<!-- Generated by graphviz version 2.38.0 (20140413.2041)
 -->
<!-- Title: get Pages: 1 -->
<svg width="321pt" height="27pt"
 viewBox="0.00 0.00 321.42 27.00" xmlns="http://www.w3.org/2000/svg" xmlns:xlink="http://www.w3.org/1999/xlink">
<g id="graph0" class="graph" transform="scale(1 1) rotate(0) translate(4 23)">
<title>get</title>
<polygon fill="white" stroke="none" points="-4,4 -4,-23 317.418,-23 317.418,4 -4,4"/>
<!-- Node1 -->
<g id="node1" class="node"><title>Node1</title>
<g id="a_node1"><a xlink:title="型Sの新しいインスタンスを初期化して返す．">
<polygon fill="#bfbfbf" stroke="black" points="283.517,-0.5 283.517,-18.5 313.418,-18.5 313.418,-0.5 283.517,-0.5"/>
<text text-anchor="middle" x="298.467" y="-6.5" font-family="Helvetica,sans-Serif" font-size="10.00">get</text>
</a>
</g>
</g>
<!-- Node2 -->
<g id="node2" class="node"><title>Node2</title>
<g id="a_node2"><a xlink:href="classutil_1_1_bufs.html#a419738a2d52901df7a6c608a886388e4" target="_top" xlink:title="リサイクル可能なNodeFormatterを返す。">
<polygon fill="white" stroke="black" points="184.827,-0.5 184.827,-18.5 247.517,-18.5 247.517,-0.5 184.827,-0.5"/>
<text text-anchor="middle" x="216.172" y="-6.5" font-family="Helvetica,sans-Serif" font-size="10.00">util.Bufs.nf</text>
</a>
</g>
</g>
<!-- Node1&#45;&gt;Node2 -->
<g id="edge1" class="edge"><title>Node1&#45;&gt;Node2</title>
<path fill="none" stroke="midnightblue" d="M273.27,-9.5C265.202,-9.5 256.108,-9.5 247.628,-9.5"/>
<polygon fill="midnightblue" stroke="midnightblue" points="273.481,-13.0001 283.481,-9.5 273.481,-6.0001 273.481,-13.0001"/>
</g>
<!-- Node3 -->
<g id="node3" class="node"><title>Node3</title>
<g id="a_node3"><a xlink:href="classcompile_1_1_x_compiler.html#a4cbd057c22095a80ec44c19887ecacb2" target="_top" xlink:title="コンパイラオブジェクトを生成する。">
<polygon fill="white" stroke="black" points="0,-0.5 0,-18.5 148.827,-18.5 148.827,-0.5 0,-0.5"/>
<text text-anchor="middle" x="74.4136" y="-6.5" font-family="Helvetica,sans-Serif" font-size="10.00">compile.XCompiler.XCompiler</text>
</a>
</g>
</g>
<!-- Node2&#45;&gt;Node3 -->
<g id="edge2" class="edge"><title>Node2&#45;&gt;Node3</title>
<path fill="none" stroke="midnightblue" d="M174.356,-9.5C166.331,-9.5 157.684,-9.5 148.96,-9.5"/>
<polygon fill="midnightblue" stroke="midnightblue" points="174.501,-13.0001 184.501,-9.5 174.501,-6.0001 174.501,-13.0001"/>
</g>
</g>
</svg>
