<?xml version="1.0" encoding="UTF-8" standalone="no"?>
<!DOCTYPE svg PUBLIC "-//W3C//DTD SVG 1.1//EN"
 "http://www.w3.org/Graphics/SVG/1.1/DTD/svg11.dtd">
<!-- Generated by graphviz version 2.47.1 (20210417.1919)
 -->
<!-- Title: typ Pages: 1 -->
<svg width="462pt" height="65pt"
 viewBox="0.00 0.00 462.00 65.00" xmlns="http://www.w3.org/2000/svg" xmlns:xlink="http://www.w3.org/1999/xlink">
<g id="graph0" class="graph" transform="scale(1 1) rotate(0) translate(4 61)">
<title>typ</title>
<polygon fill="white" stroke="transparent" points="-4,4 -4,-61 458,-61 458,4 -4,4"/>
<!-- Node1 -->
<g id="node1" class="node">
<title>Node1</title>
<g id="a_node1"><a xlink:title="データ型を返す．">
<polygon fill="#bfbfbf" stroke="black" points="0,-19.5 0,-38.5 30,-38.5 30,-19.5 0,-19.5"/>
<text text-anchor="middle" x="15" y="-26.5" font-family="Helvetica,sans-Serif" font-size="10.00">typ</text>
</a>
</g>
</g>
<!-- Node2 -->
<g id="node2" class="node">
<title>Node2</title>
<g id="a_node2"><a xlink:href="classtype_1_1_x_item.html#a376d814d15cc5ae21afd6425d0780ad9" target="_top" xlink:title="この型変数thisがもつ値型を返す。">
<polygon fill="white" stroke="black" points="66,-19.5 66,-38.5 142,-38.5 142,-19.5 66,-19.5"/>
<text text-anchor="middle" x="104" y="-26.5" font-family="Helvetica,sans-Serif" font-size="10.00">type.XItem.ty</text>
</a>
</g>
</g>
<!-- Node1&#45;&gt;Node2 -->
<g id="edge1" class="edge">
<title>Node1&#45;&gt;Node2</title>
<path fill="none" stroke="midnightblue" d="M30.37,-29C37.45,-29 46.45,-29 55.68,-29"/>
<polygon fill="midnightblue" stroke="midnightblue" points="55.71,-32.5 65.71,-29 55.71,-25.5 55.71,-32.5"/>
</g>
<!-- Node3 -->
<g id="node3" class="node">
<title>Node3</title>
<g id="a_node3"><a xlink:href="classtype_1_1_union_find_item.html#a9389ec55354a215f76de769c1e149985" target="_top" xlink:title="与えられた元が属する同値類の代表元を返す。">
<polygon fill="white" stroke="black" points="333,-19.5 333,-38.5 454,-38.5 454,-19.5 333,-19.5"/>
<text text-anchor="middle" x="393.5" y="-26.5" font-family="Helvetica,sans-Serif" font-size="10.00">type.UnionFindItem.find</text>
</a>
</g>
</g>
<!-- Node2&#45;&gt;Node3 -->
<g id="edge2" class="edge">
<title>Node2&#45;&gt;Node3</title>
<path fill="none" stroke="midnightblue" d="M142.29,-29C187.78,-29 265.61,-29 322.42,-29"/>
<polygon fill="midnightblue" stroke="midnightblue" points="322.76,-32.5 332.76,-29 322.76,-25.5 322.76,-32.5"/>
</g>
<!-- Node4 -->
<g id="node4" class="node">
<title>Node4</title>
<g id="a_node4"><a xlink:href="classtype_1_1_union_find_item.html#af6ea056c8af82f08af9fd0d857967f9b" target="_top" xlink:title="この元の同値類がもつT型の値を返す。">
<polygon fill="white" stroke="black" points="178,-0.5 178,-19.5 297,-19.5 297,-0.5 178,-0.5"/>
<text text-anchor="middle" x="237.5" y="-7.5" font-family="Helvetica,sans-Serif" font-size="10.00">type.UnionFindItem.get</text>
</a>
</g>
</g>
<!-- Node2&#45;&gt;Node4 -->
<g id="edge4" class="edge">
<title>Node2&#45;&gt;Node4</title>
<path fill="none" stroke="midnightblue" d="M142.33,-23.61C150.39,-22.44 159.14,-21.18 167.97,-19.9"/>
<polygon fill="midnightblue" stroke="midnightblue" points="168.53,-23.36 177.93,-18.46 167.53,-16.43 168.53,-23.36"/>
</g>
<!-- Node3&#45;&gt;Node3 -->
<g id="edge3" class="edge">
<title>Node3&#45;&gt;Node3</title>
<path fill="none" stroke="midnightblue" d="M369.46,-38.76C357.76,-47.57 365.77,-57 393.5,-57 411.7,-57 421.4,-52.94 422.62,-47.65"/>
<polygon fill="midnightblue" stroke="midnightblue" points="425.54,-45.71 417.54,-38.76 419.46,-49.18 425.54,-45.71"/>
</g>
<!-- Node4&#45;&gt;Node3 -->
<g id="edge5" class="edge">
<title>Node4&#45;&gt;Node3</title>
<path fill="none" stroke="midnightblue" d="M297.16,-17.24C305.59,-18.28 314.33,-19.36 322.95,-20.42"/>
<polygon fill="midnightblue" stroke="midnightblue" points="322.63,-23.91 332.98,-21.66 323.49,-16.96 322.63,-23.91"/>
</g>
</g>
</svg>
