<?xml version="1.0" encoding="UTF-8" standalone="no"?>
<!DOCTYPE svg PUBLIC "-//W3C//DTD SVG 1.1//EN"
 "http://www.w3.org/Graphics/SVG/1.1/DTD/svg11.dtd">
<!-- Generated by graphviz version 2.38.0 (20140413.2041)
 -->
<!-- Title: compHeight Pages: 1 -->
<svg width="228pt" height="101pt"
 viewBox="0.00 0.00 227.72 101.00" xmlns="http://www.w3.org/2000/svg" xmlns:xlink="http://www.w3.org/1999/xlink">
<g id="graph0" class="graph" transform="scale(1 1) rotate(0) translate(4 97)">
<title>compHeight</title>
<polygon fill="white" stroke="none" points="-4,4 -4,-97 223.724,-97 223.724,4 -4,4"/>
<!-- Node1 -->
<g id="node1" class="node"><title>Node1</title>
<g id="a_node1"><a xlink:title="与えられたノードを根とする部分木の高さを計算する．">
<polygon fill="#bfbfbf" stroke="black" points="0,-37.5 0,-55.5 69.3594,-55.5 69.3594,-37.5 0,-37.5"/>
<text text-anchor="middle" x="34.6797" y="-43.5" font-family="Helvetica,sans-Serif" font-size="10.00">compHeight</text>
</a>
</g>
</g>
<!-- Node2 -->
<g id="node2" class="node"><title>Node2</title>
<g id="a_node2"><a xlink:href="classutil_1_1_util.html#adfc0c73538373de5bf51415db06e5aed" target="_top" xlink:title="出力ルーチンであり、引数のオブジェクトobjのクラス名を表す文字列を返す。">
<polygon fill="white" stroke="black" points="105.359,-74.5 105.359,-92.5 219.724,-92.5 219.724,-74.5 105.359,-74.5"/>
<text text-anchor="middle" x="162.542" y="-80.5" font-family="Helvetica,sans-Serif" font-size="10.00">util.Util.getClassName</text>
</a>
</g>
</g>
<!-- Node1&#45;&gt;Node2 -->
<g id="edge1" class="edge"><title>Node1&#45;&gt;Node2</title>
<path fill="none" stroke="midnightblue" d="M66.469,-55.5512C82.773,-60.3442 103.012,-66.2938 120.62,-71.4702"/>
<polygon fill="midnightblue" stroke="midnightblue" points="120.053,-74.9514 130.634,-74.414 122.027,-68.2356 120.053,-74.9514"/>
</g>
<!-- Node3 -->
<g id="node3" class="node"><title>Node3</title>
<g id="a_node3"><a xlink:href="classutil_1_1_report.html#a03135aa774dc9eea1dd6229cb2586de4" target="_top" xlink:title="現在の入れ子深さを一つ浅くする．">
<polygon fill="white" stroke="black" points="122.022,-37.5 122.022,-55.5 203.061,-55.5 203.061,-37.5 122.022,-37.5"/>
<text text-anchor="middle" x="162.542" y="-43.5" font-family="Helvetica,sans-Serif" font-size="10.00">util.Report.pop</text>
</a>
</g>
</g>
<!-- Node1&#45;&gt;Node3 -->
<g id="edge2" class="edge"><title>Node1&#45;&gt;Node3</title>
<path fill="none" stroke="midnightblue" d="M69.4083,-46.5C82.4162,-46.5 97.563,-46.5 111.773,-46.5"/>
<polygon fill="midnightblue" stroke="midnightblue" points="111.91,-50.0001 121.91,-46.5 111.91,-43.0001 111.91,-50.0001"/>
</g>
<!-- Node4 -->
<g id="node4" class="node"><title>Node4</title>
<g id="a_node4"><a xlink:href="classutil_1_1_report.html#ae68320b8203db308b03de0834134ff8d" target="_top" xlink:title="現在の入れ子深さで段差げして，printlnを呼ぶ．">
<polygon fill="white" stroke="black" points="116.746,-0.5 116.746,-18.5 208.337,-18.5 208.337,-0.5 116.746,-0.5"/>
<text text-anchor="middle" x="162.542" y="-6.5" font-family="Helvetica,sans-Serif" font-size="10.00">util.Report.println</text>
</a>
</g>
</g>
<!-- Node1&#45;&gt;Node4 -->
<g id="edge3" class="edge"><title>Node1&#45;&gt;Node4</title>
<path fill="none" stroke="midnightblue" d="M66.469,-37.4488C82.773,-32.6558 103.012,-26.7062 120.62,-21.5298"/>
<polygon fill="midnightblue" stroke="midnightblue" points="122.027,-24.7644 130.634,-18.586 120.053,-18.0486 122.027,-24.7644"/>
</g>
</g>
</svg>
