<?xml version="1.0" encoding="UTF-8" standalone="no"?>
<!DOCTYPE svg PUBLIC "-//W3C//DTD SVG 1.1//EN"
 "http://www.w3.org/Graphics/SVG/1.1/DTD/svg11.dtd">
<!-- Generated by graphviz version 2.47.1 (20210417.1919)
 -->
<!-- Title: XMachine Pages: 1 -->
<!--zoomable 810 -->
<svg id="main" version="1.1" xmlns="http://www.w3.org/2000/svg" xmlns:xlink="http://www.w3.org/1999/xlink" xml:space="preserve" onload="init(evt)">
<style type="text/css"><![CDATA[
.edge:hover path { stroke: red; }
.edge:hover polygon { stroke: red; fill: red; }
]]></style>
<script type="text/javascript"><![CDATA[
var edges = document.getElementsByTagName('g');
if (edges && edges.length) {
  for (var i=0;i<edges.length;i++) {
    if (edges[i].id.substr(0,4)=='edge') {
      edges[i].setAttribute('class','edge');
    }
  }
}
]]></script>
        <defs>
                <circle id="rim" cx="0" cy="0" r="7"/>
                <circle id="rim2" cx="0" cy="0" r="3.5"/>
                <g id="zoomPlus">
                        <use xlink:href="#rim" fill="#404040">
                                <set attributeName="fill" to="#808080" begin="zoomplus.mouseover" end="zoomplus.mouseout"/>
                        </use>
                        <path d="M-4,0h8M0,-4v8" fill="none" stroke="white" stroke-width="1.5" pointer-events="none"/>
                </g>
                <g id="zoomMin">
                        <use xlink:href="#rim" fill="#404040">
                                <set attributeName="fill" to="#808080" begin="zoomminus.mouseover" end="zoomminus.mouseout"/>
                        </use>
                        <path d="M-4,0h8" fill="none" stroke="white" stroke-width="1.5" pointer-events="none"/>
                </g>
                <g id="dirArrow">
                        <path fill="none" stroke="white" stroke-width="1.5" d="M0,-3.0v7 M-2.5,-0.5L0,-3.0L2.5,-0.5"/>
                </g>
               <g id="resetDef">
                       <use xlink:href="#rim2" fill="#404040">
                               <set attributeName="fill" to="#808080" begin="reset.mouseover" end="reset.mouseout"/>
                       </use>
               </g>
        </defs>

<script type="text/javascript">
var viewWidth = 543;
var viewHeight = 810;
var sectionId = 'dynsection-1';
</script>
<script xlink:href="svgpan.js"/>
<svg id="graph" class="graph">
<g id="viewport">
<title>XMachine</title>
<polygon fill="white" stroke="transparent" points="-4,4 -4,-806.46 539,-806.46 539,4 -4,4"/>
<!-- Node1 -->
<g id="node1" class="node">
<title>Node1</title>
<g id="a_node1"><a xlink:title="クエリの実行系モジュールのクラス。">
<polygon fill="#bfbfbf" stroke="black" points="475,-376.96 475,-395.96 535,-395.96 535,-376.96 475,-376.96"/>
<text text-anchor="middle" x="505" y="-383.96" font-family="Helvetica,sans-Serif" font-size="10.00">XMachine</text>
</a>
</g>
</g>
<!-- Node2 -->
<g id="node2" class="node">
<title>Node2</title>
<g id="a_node2"><a xlink:href="interfacemachine_1_1_context.html" target="_top" xlink:title="実行系の記憶機構（環境）を抽象化したインタフェース.">
<polygon fill="white" stroke="black" points="270,-782.96 270,-801.96 321,-801.96 321,-782.96 270,-782.96"/>
<text text-anchor="middle" x="295.5" y="-789.96" font-family="Helvetica,sans-Serif" font-size="10.00">Context</text>
</a>
</g>
</g>
<!-- Node2&#45;&gt;Node1 -->
<g id="edge1" class="edge">
<title>Node2&#45;&gt;Node1</title>
<path fill="none" stroke="midnightblue" d="M331.41,-798.23C368.07,-802.1 424.79,-801.52 457,-768.46 483.87,-740.89 500.46,-453.28 503.49,-396.26"/>
<polygon fill="midnightblue" stroke="midnightblue" points="331.53,-794.72 321.18,-796.98 330.68,-801.67 331.53,-794.72"/>
</g>
<!-- Node3 -->
<g id="node3" class="node">
<title>Node3</title>
<g id="a_node3"><a xlink:href="interfacemachine_1_1_system_readable.html" target="_top" xlink:title="システム変数の辞書を抽象化したインタフェース.">
<polygon fill="white" stroke="black" points="13,-738.96 13,-757.96 105,-757.96 105,-738.96 13,-738.96"/>
<text text-anchor="middle" x="59" y="-745.96" font-family="Helvetica,sans-Serif" font-size="10.00">SystemReadable</text>
</a>
</g>
</g>
<!-- Node3&#45;&gt;Node1 -->
<g id="edge2" class="edge">
<title>Node3&#45;&gt;Node1</title>
<path fill="none" stroke="midnightblue" d="M115.42,-754.26C212.71,-763.13 408.52,-774.74 457,-730.46 507.74,-684.12 505.38,-447.46 504.26,-396.25"/>
<polygon fill="midnightblue" stroke="midnightblue" points="115.47,-750.75 105.19,-753.31 114.82,-757.72 115.47,-750.75"/>
</g>
<!-- Node24 -->
<g id="node24" class="node">
<title>Node24</title>
<g id="a_node24"><a xlink:href="classmachine_1_1_system_scope.html" target="_top" xlink:title="システム変数にアクセスするための読み出し専用スコープ．">
<polygon fill="white" stroke="black" points="256.5,-702.96 256.5,-721.96 334.5,-721.96 334.5,-702.96 256.5,-702.96"/>
<text text-anchor="middle" x="295.5" y="-709.96" font-family="Helvetica,sans-Serif" font-size="10.00">SystemScope</text>
</a>
</g>
</g>
<!-- Node3&#45;&gt;Node24 -->
<g id="edge30" class="edge">
<title>Node3&#45;&gt;Node24</title>
<path fill="none" stroke="#9a32cd" stroke-dasharray="5,2" d="M103.66,-736.45C114.19,-733.86 125.45,-731.34 136,-729.46 176.74,-722.22 223.95,-717.64 256.18,-715.08"/>
<polygon fill="#9a32cd" stroke="#9a32cd" points="102.67,-733.09 93.83,-738.94 104.39,-739.88 102.67,-733.09"/>
<text text-anchor="middle" x="171" y="-732.46" font-family="Helvetica,sans-Serif" font-size="10.00"> sys</text>
</g>
<!-- Node4 -->
<g id="node4" class="node">
<title>Node4</title>
<g id="a_node4"><a xlink:title=" ">
<polygon fill="white" stroke="#bfbfbf" points="257.5,-664.96 257.5,-683.96 333.5,-683.96 333.5,-664.96 257.5,-664.96"/>
<text text-anchor="middle" x="295.5" y="-671.96" font-family="Helvetica,sans-Serif" font-size="10.00">static BitsBuf</text>
</a>
</g>
</g>
<!-- Node4&#45;&gt;Node1 -->
<g id="edge3" class="edge">
<title>Node4&#45;&gt;Node1</title>
<path fill="none" stroke="#9a32cd" stroke-dasharray="5,2" d="M343.76,-673.97C385.2,-672.5 441.21,-667.65 457,-652.46 494.85,-616.05 502.45,-439.7 503.75,-396.19"/>
<polygon fill="#9a32cd" stroke="#9a32cd" points="343.47,-670.48 333.58,-674.28 343.68,-677.48 343.47,-670.48"/>
<text text-anchor="middle" x="421" y="-673.46" font-family="Helvetica,sans-Serif" font-size="10.00"> bitsbuf</text>
</g>
<!-- Node5 -->
<g id="node5" class="node">
<title>Node5</title>
<g id="a_node5"><a xlink:title=" ">
<polygon fill="white" stroke="#bfbfbf" points="38,-587.96 38,-606.96 80,-606.96 80,-587.96 38,-587.96"/>
<text text-anchor="middle" x="59" y="-594.96" font-family="Helvetica,sans-Serif" font-size="10.00">String</text>
</a>
</g>
</g>
<!-- Node5&#45;&gt;Node1 -->
<g id="edge4" class="edge">
<title>Node5&#45;&gt;Node1</title>
<path fill="none" stroke="#9a32cd" stroke-dasharray="5,2" d="M90.41,-601.19C147.13,-606.88 271.89,-613.43 367,-575.46 415.09,-556.26 426.27,-543.15 457,-501.46 482.34,-467.09 496.6,-417.1 501.76,-396.21"/>
<polygon fill="#9a32cd" stroke="#9a32cd" points="90.64,-597.69 80.32,-600.11 89.89,-604.66 90.64,-597.69"/>
<text text-anchor="middle" x="295.5" y="-606.46" font-family="Helvetica,sans-Serif" font-size="10.00"> MOD_MACHINE</text>
</g>
<!-- Node12 -->
<g id="node12" class="node">
<title>Node12</title>
<g id="a_node12"><a xlink:href="interfaceevent_1_1_event_readable.html" target="_top" xlink:title="構造文書走査器が備えるべき機能を記述するインタフェース.">
<polygon fill="white" stroke="black" points="254,-626.96 254,-645.96 337,-645.96 337,-626.96 254,-626.96"/>
<text text-anchor="middle" x="295.5" y="-633.96" font-family="Helvetica,sans-Serif" font-size="10.00">EventReadable</text>
</a>
</g>
</g>
<!-- Node5&#45;&gt;Node12 -->
<g id="edge13" class="edge">
<title>Node5&#45;&gt;Node12</title>
<path fill="none" stroke="#9a32cd" stroke-dasharray="5,2" d="M90.5,-602.54C132.23,-609.48 207.22,-621.95 253.73,-629.68"/>
<polygon fill="#9a32cd" stroke="#9a32cd" points="90.84,-599.05 80.4,-600.86 89.69,-605.95 90.84,-599.05"/>
<text text-anchor="middle" x="171" y="-624.46" font-family="Helvetica,sans-Serif" font-size="10.00"> ROOT_TAG</text>
</g>
<!-- Node16 -->
<g id="node16" class="node">
<title>Node16</title>
<g id="a_node16"><a xlink:href="classmachine_1_1_o_v_machine.html" target="_top" xlink:title="仮想機械のクラス">
<polygon fill="white" stroke="black" points="261.5,-423.96 261.5,-442.96 329.5,-442.96 329.5,-423.96 261.5,-423.96"/>
<text text-anchor="middle" x="295.5" y="-430.96" font-family="Helvetica,sans-Serif" font-size="10.00">OVMachine</text>
</a>
</g>
</g>
<!-- Node5&#45;&gt;Node16 -->
<g id="edge17" class="edge">
<title>Node5&#45;&gt;Node16</title>
<path fill="none" stroke="#9a32cd" stroke-dasharray="5,2" d="M89.42,-583.95C121.72,-567.84 173.34,-538.15 206,-499.46 218.58,-484.57 209.74,-472.76 224,-459.46 234.3,-449.85 248.46,-443.73 261.39,-439.85"/>
<polygon fill="#9a32cd" stroke="#9a32cd" points="87.51,-580.99 80.05,-588.52 90.58,-587.28 87.51,-580.99"/>
<text text-anchor="middle" x="171" y="-559.46" font-family="Helvetica,sans-Serif" font-size="10.00"> MOD_OVM</text>
</g>
<!-- Node6 -->
<g id="node6" class="node">
<title>Node6</title>
<g id="a_node6"><a xlink:title=" ">
<polygon fill="white" stroke="#bfbfbf" points="254,-283.96 254,-302.96 337,-302.96 337,-283.96 254,-283.96"/>
<text text-anchor="middle" x="295.5" y="-290.96" font-family="Helvetica,sans-Serif" font-size="10.00">static ReportKt</text>
</a>
</g>
</g>
<!-- Node6&#45;&gt;Node1 -->
<g id="edge5" class="edge">
<title>Node6&#45;&gt;Node1</title>
<path fill="none" stroke="#9a32cd" stroke-dasharray="5,2" d="M347.29,-289.57C380.83,-289.41 424.44,-294 457,-314.46 480.63,-329.32 494.82,-360.89 500.75,-376.83"/>
<polygon fill="#9a32cd" stroke="#9a32cd" points="347.15,-286.08 337.22,-289.77 347.29,-293.07 347.15,-286.08"/>
<text text-anchor="middle" x="421" y="-317.46" font-family="Helvetica,sans-Serif" font-size="10.00"> repo</text>
</g>
<!-- Node7 -->
<g id="node7" class="node">
<title>Node7</title>
<g id="a_node7"><a xlink:title=" ">
<polygon fill="white" stroke="#bfbfbf" points="26.5,-513.96 26.5,-532.96 91.5,-532.96 91.5,-513.96 26.5,-513.96"/>
<text text-anchor="middle" x="59" y="-520.96" font-family="Helvetica,sans-Serif" font-size="10.00">TraceLevel</text>
</a>
</g>
</g>
<!-- Node7&#45;&gt;Node1 -->
<g id="edge6" class="edge">
<title>Node7&#45;&gt;Node1</title>
<path fill="none" stroke="#9a32cd" stroke-dasharray="5,2" d="M88.63,-537.23C102.57,-543.19 119.79,-549.48 136,-552.46 237.51,-571.17 272.95,-570.99 367,-528.46 432.24,-498.97 482.27,-422.99 498.44,-396.08"/>
<polygon fill="#9a32cd" stroke="#9a32cd" points="89.68,-533.86 79.12,-533 86.83,-540.26 89.68,-533.86"/>
<text text-anchor="middle" x="295.5" y="-566.46" font-family="Helvetica,sans-Serif" font-size="10.00"> LOG</text>
</g>
<!-- Node7&#45;&gt;Node16 -->
<g id="edge19" class="edge">
<title>Node7&#45;&gt;Node16</title>
<path fill="none" stroke="#9a32cd" stroke-dasharray="5,2" d="M88.31,-509.49C102.47,-502.75 119.96,-494.77 136,-488.46 166.48,-476.48 175.04,-476.14 206,-465.46 227.16,-458.16 251.02,-449.51 268.63,-443.05"/>
<polygon fill="#9a32cd" stroke="#9a32cd" points="86.59,-506.43 79.1,-513.93 89.63,-512.74 86.59,-506.43"/>
<text text-anchor="middle" x="171" y="-491.46" font-family="Helvetica,sans-Serif" font-size="10.00"> LOG</text>
</g>
<!-- Node8 -->
<g id="node8" class="node">
<title>Node8</title>
<g id="a_node8"><a xlink:title=" ">
<polygon fill="white" stroke="#bfbfbf" points="224,-234.46 224,-264.46 367,-264.46 367,-234.46 224,-234.46"/>
<text text-anchor="start" x="232" y="-252.46" font-family="Helvetica,sans-Serif" font-size="10.00">AutoStack&lt; machine.Multi</text>
<text text-anchor="middle" x="295.5" y="-241.46" font-family="Helvetica,sans-Serif" font-size="10.00">HashMap&lt; machine.Call &gt; &gt;</text>
</a>
</g>
</g>
<!-- Node8&#45;&gt;Node1 -->
<g id="edge7" class="edge">
<title>Node8&#45;&gt;Node1</title>
<path fill="none" stroke="#9a32cd" stroke-dasharray="5,2" d="M377.4,-247.79C405.07,-250.94 434.65,-258.88 457,-276.46 489.64,-302.15 499.97,-354.84 502.92,-376.66"/>
<polygon fill="#9a32cd" stroke="#9a32cd" points="377.59,-244.3 367.31,-246.84 376.93,-251.27 377.59,-244.3"/>
<text text-anchor="middle" x="421" y="-279.46" font-family="Helvetica,sans-Serif" font-size="10.00"> CS</text>
</g>
<!-- Node9 -->
<g id="node9" class="node">
<title>Node9</title>
<g id="a_node9"><a xlink:href="interfacemachine_1_1_runnable.html" target="_top" xlink:title="実行可能なプログラムのインタフェース.">
<polygon fill="white" stroke="black" points="266.5,-195.96 266.5,-214.96 324.5,-214.96 324.5,-195.96 266.5,-195.96"/>
<text text-anchor="middle" x="295.5" y="-202.96" font-family="Helvetica,sans-Serif" font-size="10.00">Runnable</text>
</a>
</g>
</g>
<!-- Node9&#45;&gt;Node1 -->
<g id="edge8" class="edge">
<title>Node9&#45;&gt;Node1</title>
<path fill="none" stroke="#9a32cd" stroke-dasharray="5,2" d="M334.69,-201.62C370.57,-200.19 423.6,-204.01 457,-233.46 500.56,-271.88 504.32,-349.55 504.23,-376.77"/>
<polygon fill="#9a32cd" stroke="#9a32cd" points="334.39,-198.13 324.6,-202.18 334.78,-205.12 334.39,-198.13"/>
<text text-anchor="middle" x="421" y="-236.46" font-family="Helvetica,sans-Serif" font-size="10.00"> prog</text>
</g>
<!-- Node10 -->
<g id="node10" class="node">
<title>Node10</title>
<g id="a_node10"><a xlink:href="interfacemachine_1_1_frame_stackable.html" target="_top" xlink:title=" ">
<polygon fill="white" stroke="black" points="251.5,-157.96 251.5,-176.96 339.5,-176.96 339.5,-157.96 251.5,-157.96"/>
<text text-anchor="middle" x="295.5" y="-164.96" font-family="Helvetica,sans-Serif" font-size="10.00">FrameStackable</text>
</a>
</g>
</g>
<!-- Node10&#45;&gt;Node1 -->
<g id="edge9" class="edge">
<title>Node10&#45;&gt;Node1</title>
<path fill="none" stroke="#9a32cd" stroke-dasharray="5,2" d="M350.23,-160.12C384.85,-158.51 428.54,-162.79 457,-188.46 485.73,-214.38 499.7,-340.86 503.14,-376.88"/>
<polygon fill="#9a32cd" stroke="#9a32cd" points="349.56,-156.66 339.81,-160.79 350.01,-163.64 349.56,-156.66"/>
<text text-anchor="middle" x="421" y="-191.46" font-family="Helvetica,sans-Serif" font-size="10.00"> FRS</text>
</g>
<!-- Node11 -->
<g id="node11" class="node">
<title>Node11</title>
<g id="a_node11"><a xlink:title=" ">
<polygon fill="white" stroke="#bfbfbf" points="44.5,-448.96 44.5,-467.96 73.5,-467.96 73.5,-448.96 44.5,-448.96"/>
<text text-anchor="middle" x="59" y="-455.96" font-family="Helvetica,sans-Serif" font-size="10.00">int</text>
</a>
</g>
</g>
<!-- Node11&#45;&gt;Node1 -->
<g id="edge10" class="edge">
<title>Node11&#45;&gt;Node1</title>
<path fill="none" stroke="#9a32cd" stroke-dasharray="5,2" d="M81.82,-472.99C93.39,-481.35 107.37,-492.54 118,-504.46 128.09,-515.79 122.74,-526.09 136,-533.46 163.19,-548.59 179.71,-550.1 206,-533.46 221.79,-523.47 209.78,-507.59 224,-495.46 306.08,-425.46 362.36,-479.24 457,-427.46 472.01,-419.25 486.39,-405.56 495.21,-396.28"/>
<polygon fill="#9a32cd" stroke="#9a32cd" points="83.73,-470.06 73.53,-467.19 79.71,-475.79 83.73,-470.06"/>
<text text-anchor="middle" x="295.5" y="-520.46" font-family="Helvetica,sans-Serif" font-size="10.00"> INIT_CAPACITY</text>
<text text-anchor="middle" x="295.5" y="-509.46" font-family="Helvetica,sans-Serif" font-size="10.00">INS_ID_STDIN</text>
<text text-anchor="middle" x="295.5" y="-498.46" font-family="Helvetica,sans-Serif" font-size="10.00">UNDEF</text>
</g>
<!-- Node11&#45;&gt;Node16 -->
<g id="edge22" class="edge">
<title>Node11&#45;&gt;Node16</title>
<path fill="none" stroke="#9a32cd" stroke-dasharray="5,2" d="M83.02,-448.37C97.83,-442.43 117.67,-435.51 136,-432.46 178.89,-425.33 229.21,-427.38 261.46,-430"/>
<polygon fill="#9a32cd" stroke="#9a32cd" points="81.54,-445.19 73.65,-452.26 84.23,-451.65 81.54,-445.19"/>
<text text-anchor="middle" x="171" y="-457.46" font-family="Helvetica,sans-Serif" font-size="10.00"> cmd_idx</text>
<text text-anchor="middle" x="171" y="-446.46" font-family="Helvetica,sans-Serif" font-size="10.00">fp</text>
<text text-anchor="middle" x="171" y="-435.46" font-family="Helvetica,sans-Serif" font-size="10.00">initCapacity</text>
</g>
<!-- Node12&#45;&gt;Node1 -->
<g id="edge11" class="edge">
<title>Node12&#45;&gt;Node1</title>
<path fill="none" stroke="#9a32cd" stroke-dasharray="5,2" d="M347.4,-642.45C382.66,-643.63 428.25,-638.78 457,-611.46 488.97,-581.1 500.77,-435.48 503.4,-396.23"/>
<polygon fill="#9a32cd" stroke="#9a32cd" points="347.45,-638.95 337.29,-641.94 347.1,-645.94 347.45,-638.95"/>
<text text-anchor="middle" x="421" y="-643.46" font-family="Helvetica,sans-Serif" font-size="10.00"> eis</text>
</g>
<!-- Node13 -->
<g id="node13" class="node">
<title>Node13</title>
<g id="a_node13"><a xlink:href="class_iterable.html" target="_top" xlink:title=" ">
<polygon fill="white" stroke="black" points="13,-643.96 13,-662.96 105,-662.96 105,-643.96 13,-643.96"/>
<text text-anchor="middle" x="59" y="-650.96" font-family="Helvetica,sans-Serif" font-size="10.00">Iterable&lt; Event &gt;</text>
</a>
</g>
</g>
<!-- Node13&#45;&gt;Node12 -->
<g id="edge12" class="edge">
<title>Node13&#45;&gt;Node12</title>
<path fill="none" stroke="midnightblue" d="M115.39,-649.45C157.83,-646.37 215.44,-642.2 253.74,-639.42"/>
<polygon fill="midnightblue" stroke="midnightblue" points="114.93,-645.97 105.21,-650.19 115.44,-652.95 114.93,-645.97"/>
</g>
<!-- Node14 -->
<g id="node14" class="node">
<title>Node14</title>
<g id="a_node14"><a xlink:title=" ">
<polygon fill="white" stroke="#bfbfbf" points="243.5,-119.96 243.5,-138.96 347.5,-138.96 347.5,-119.96 243.5,-119.96"/>
<text text-anchor="middle" x="295.5" y="-126.96" font-family="Helvetica,sans-Serif" font-size="10.00">StackBase&lt; Long &gt;</text>
</a>
</g>
</g>
<!-- Node14&#45;&gt;Node1 -->
<g id="edge14" class="edge">
<title>Node14&#45;&gt;Node1</title>
<path fill="none" stroke="#9a32cd" stroke-dasharray="5,2" d="M357.76,-119.31C391.08,-117.4 430.73,-121.54 457,-145.46 492.06,-177.4 501.68,-335.88 503.6,-376.8"/>
<polygon fill="#9a32cd" stroke="#9a32cd" points="357.35,-115.83 347.65,-120.08 357.88,-122.81 357.35,-115.83"/>
<text text-anchor="middle" x="421" y="-148.46" font-family="Helvetica,sans-Serif" font-size="10.00"> SS</text>
</g>
<!-- Node15 -->
<g id="node15" class="node">
<title>Node15</title>
<g id="a_node15"><a xlink:title=" ">
<polygon fill="white" stroke="#bfbfbf" points="278,-81.96 278,-100.96 313,-100.96 313,-81.96 278,-81.96"/>
<text text-anchor="middle" x="295.5" y="-88.96" font-family="Helvetica,sans-Serif" font-size="10.00">long</text>
</a>
</g>
</g>
<!-- Node15&#45;&gt;Node1 -->
<g id="edge15" class="edge">
<title>Node15&#45;&gt;Node1</title>
<path fill="none" stroke="#9a32cd" stroke-dasharray="5,2" d="M323.2,-84.5C358.58,-77.04 420.74,-70.32 457,-103.46 498.36,-141.26 503.32,-331.23 503.92,-376.68"/>
<polygon fill="#9a32cd" stroke="#9a32cd" points="322.11,-81.16 313.14,-86.8 323.67,-87.99 322.11,-81.16"/>
<text text-anchor="middle" x="421" y="-106.46" font-family="Helvetica,sans-Serif" font-size="10.00"> EMPTY_MASK</text>
</g>
<!-- Node16&#45;&gt;Node1 -->
<g id="edge16" class="edge">
<title>Node16&#45;&gt;Node1</title>
<path fill="none" stroke="#9a32cd" stroke-dasharray="5,2" d="M339.7,-423.68C380.18,-414.51 439.58,-401.06 474.77,-393.09"/>
<polygon fill="#9a32cd" stroke="#9a32cd" points="338.82,-420.29 329.84,-425.91 340.36,-427.12 338.82,-420.29"/>
<text text-anchor="middle" x="421" y="-415.46" font-family="Helvetica,sans-Serif" font-size="10.00"> OVM</text>
</g>
<!-- Node17 -->
<g id="node17" class="node">
<title>Node17</title>
<g id="a_node17"><a xlink:href="classutil_1_1_stack_base.html" target="_top" xlink:title=" ">
<polygon fill="white" stroke="black" points="0,-268.96 0,-287.96 118,-287.96 118,-268.96 0,-268.96"/>
<text text-anchor="middle" x="59" y="-275.96" font-family="Helvetica,sans-Serif" font-size="10.00">StackBase&lt; Boolean &gt;</text>
</a>
</g>
</g>
<!-- Node17&#45;&gt;Node16 -->
<g id="edge18" class="edge">
<title>Node17&#45;&gt;Node16</title>
<path fill="none" stroke="#9a32cd" stroke-dasharray="5,2" d="M128.57,-269.78C155.97,-270.16 185.76,-276.03 206,-295.46 243,-330.99 190.97,-370.22 224,-409.46 233.24,-420.44 247.72,-426.41 261.16,-429.66"/>
<polygon fill="#9a32cd" stroke="#9a32cd" points="128.18,-266.28 118.22,-269.88 128.25,-273.28 128.18,-266.28"/>
<text text-anchor="middle" x="171" y="-298.46" font-family="Helvetica,sans-Serif" font-size="10.00"> boolStack</text>
</g>
<!-- Node18 -->
<g id="node18" class="node">
<title>Node18</title>
<g id="a_node18"><a xlink:title=" ">
<polygon fill="white" stroke="#bfbfbf" points="2.5,-382.96 2.5,-401.96 115.5,-401.96 115.5,-382.96 2.5,-382.96"/>
<text text-anchor="middle" x="59" y="-389.96" font-family="Helvetica,sans-Serif" font-size="10.00">StackBase&lt; Integer &gt;</text>
</a>
</g>
</g>
<!-- Node18&#45;&gt;Node16 -->
<g id="edge20" class="edge">
<title>Node18&#45;&gt;Node16</title>
<path fill="none" stroke="#9a32cd" stroke-dasharray="5,2" d="M126.05,-391.57C151.36,-392.52 180.31,-395.18 206,-401.46 214.5,-403.54 215.85,-406.27 224,-409.46 237.12,-414.6 251.85,-419.72 264.44,-423.89"/>
<polygon fill="#9a32cd" stroke="#9a32cd" points="125.91,-388.07 115.81,-391.28 125.71,-395.07 125.91,-388.07"/>
<text text-anchor="middle" x="171" y="-415.46" font-family="Helvetica,sans-Serif" font-size="10.00"> fpStack</text>
<text text-anchor="middle" x="171" y="-404.46" font-family="Helvetica,sans-Serif" font-size="10.00">intStack</text>
</g>
<!-- Node19 -->
<g id="node19" class="node">
<title>Node19</title>
<g id="a_node19"><a xlink:href="classutil_1_1_stack_base.html" target="_top" xlink:title=" ">
<polygon fill="white" stroke="black" points="5,-344.96 5,-363.96 113,-363.96 113,-344.96 5,-344.96"/>
<text text-anchor="middle" x="59" y="-351.96" font-family="Helvetica,sans-Serif" font-size="10.00">StackBase&lt; String &gt;</text>
</a>
</g>
</g>
<!-- Node19&#45;&gt;Node16 -->
<g id="edge21" class="edge">
<title>Node19&#45;&gt;Node16</title>
<path fill="none" stroke="#9a32cd" stroke-dasharray="5,2" d="M123.52,-351.84C151.01,-353.62 182.25,-359.85 206,-376.46 219.69,-386.04 211.22,-398.7 224,-409.46 234.58,-418.37 248.64,-424.03 261.41,-427.59"/>
<polygon fill="#9a32cd" stroke="#9a32cd" points="123.34,-348.33 113.19,-351.37 123.01,-355.32 123.34,-348.33"/>
<text text-anchor="middle" x="171" y="-379.46" font-family="Helvetica,sans-Serif" font-size="10.00"> strStack</text>
</g>
<!-- Node20 -->
<g id="node20" class="node">
<title>Node20</title>
<g id="a_node20"><a xlink:href="classutil_1_1_stack_base.html" target="_top" xlink:title=" ">
<polygon fill="white" stroke="black" points="2.5,-306.96 2.5,-325.96 115.5,-325.96 115.5,-306.96 2.5,-306.96"/>
<text text-anchor="middle" x="59" y="-313.96" font-family="Helvetica,sans-Serif" font-size="10.00">StackBase&lt; Double &gt;</text>
</a>
</g>
</g>
<!-- Node20&#45;&gt;Node16 -->
<g id="edge23" class="edge">
<title>Node20&#45;&gt;Node16</title>
<path fill="none" stroke="#9a32cd" stroke-dasharray="5,2" d="M125.92,-310.66C153.74,-311.75 184.58,-318.13 206,-337.46 230.48,-359.57 201.67,-385.19 224,-409.46 233.63,-419.93 248,-425.83 261.26,-429.16"/>
<polygon fill="#9a32cd" stroke="#9a32cd" points="125.88,-307.16 115.82,-310.48 125.76,-314.16 125.88,-307.16"/>
<text text-anchor="middle" x="171" y="-340.46" font-family="Helvetica,sans-Serif" font-size="10.00"> dblStack</text>
</g>
<!-- Node21 -->
<g id="node21" class="node">
<title>Node21</title>
<g id="a_node21"><a xlink:title=" ">
<polygon fill="white" stroke="#bfbfbf" points="34,-202.96 34,-221.96 84,-221.96 84,-202.96 34,-202.96"/>
<text text-anchor="middle" x="59" y="-209.96" font-family="Helvetica,sans-Serif" font-size="10.00">boolean</text>
</a>
</g>
</g>
<!-- Node21&#45;&gt;Node1 -->
<g id="edge26" class="edge">
<title>Node21&#45;&gt;Node1</title>
<path fill="none" stroke="#9a32cd" stroke-dasharray="5,2" d="M94.09,-200.55C126.67,-191.55 175.25,-184.66 206,-210.46 241.27,-240.05 192.64,-278.76 224,-312.46 268.65,-360.44 303.64,-331.7 367,-348.46 404.34,-358.34 447.23,-370.34 474.92,-378.18"/>
<polygon fill="#9a32cd" stroke="#9a32cd" points="92.71,-197.31 84.12,-203.51 94.7,-204.02 92.71,-197.31"/>
<text text-anchor="middle" x="295.5" y="-406.46" font-family="Helvetica,sans-Serif" font-size="10.00"> DEBUG_REPO</text>
<text text-anchor="start" x="240.5" y="-395.46" font-family="Helvetica,sans-Serif" font-size="10.00">FLAG_RELATIVE_PATH</text>
<text text-anchor="middle" x="295.5" y="-384.46" font-family="Helvetica,sans-Serif" font-size="10.00">_MATCH</text>
<text text-anchor="middle" x="295.5" y="-373.46" font-family="Helvetica,sans-Serif" font-size="10.00">TO_PRINT_EVENT</text>
<text text-anchor="middle" x="295.5" y="-362.46" font-family="Helvetica,sans-Serif" font-size="10.00">TO_SCAN_ONLY</text>
<text text-anchor="middle" x="295.5" y="-351.46" font-family="Helvetica,sans-Serif" font-size="10.00">toPrint</text>
</g>
<!-- Node21&#45;&gt;Node16 -->
<g id="edge24" class="edge">
<title>Node21&#45;&gt;Node16</title>
<path fill="none" stroke="#9a32cd" stroke-dasharray="5,2" d="M94.47,-212.45C132.73,-213.22 191.05,-216.99 206,-232.46 233.47,-260.9 199.39,-378.52 224,-409.46 233.02,-420.8 247.64,-426.81 261.23,-429.98"/>
<polygon fill="#9a32cd" stroke="#9a32cd" points="94.32,-208.94 84.27,-212.3 94.22,-215.94 94.32,-208.94"/>
<text text-anchor="middle" x="171" y="-257.46" font-family="Helvetica,sans-Serif" font-size="10.00"> DEBUG_FP</text>
<text text-anchor="middle" x="171" y="-246.46" font-family="Helvetica,sans-Serif" font-size="10.00">DEBUG_OVM</text>
<text text-anchor="middle" x="171" y="-235.46" font-family="Helvetica,sans-Serif" font-size="10.00">DEBUG_REPO</text>
</g>
<!-- Node22 -->
<g id="node22" class="node">
<title>Node22</title>
<g id="a_node22"><a xlink:title=" ">
<polygon fill="white" stroke="#bfbfbf" points="251.5,-43.96 251.5,-62.96 339.5,-62.96 339.5,-43.96 251.5,-43.96"/>
<text text-anchor="middle" x="295.5" y="-50.96" font-family="Helvetica,sans-Serif" font-size="10.00">static PrintMode</text>
</a>
</g>
</g>
<!-- Node22&#45;&gt;Node1 -->
<g id="edge25" class="edge">
<title>Node22&#45;&gt;Node1</title>
<path fill="none" stroke="#9a32cd" stroke-dasharray="5,2" d="M343.27,-42.13C378.98,-36.48 427,-35.84 457,-63.46 504.31,-107.03 504.67,-327.3 504.15,-376.65"/>
<polygon fill="#9a32cd" stroke="#9a32cd" points="342.32,-38.74 333.08,-43.93 343.54,-45.64 342.32,-38.74"/>
<text text-anchor="middle" x="421" y="-66.46" font-family="Helvetica,sans-Serif" font-size="10.00"> pmode</text>
</g>
<!-- Node23 -->
<g id="node23" class="node">
<title>Node23</title>
<g id="a_node23"><a xlink:href="interfacemachine_1_1_input_manageable.html" target="_top" xlink:title="入力ストリーム管理のインタフェース">
<polygon fill="white" stroke="black" points="250,-5.96 250,-24.96 341,-24.96 341,-5.96 250,-5.96"/>
<text text-anchor="middle" x="295.5" y="-12.96" font-family="Helvetica,sans-Serif" font-size="10.00">InputManageable</text>
</a>
</g>
</g>
<!-- Node23&#45;&gt;Node1 -->
<g id="edge27" class="edge">
<title>Node23&#45;&gt;Node1</title>
<path fill="none" stroke="#9a32cd" stroke-dasharray="5,2" d="M341.68,-3.95C377.59,2.26 426.67,3.72 457,-24.46 483.69,-49.27 500.36,-321.71 503.47,-376.79"/>
<polygon fill="#9a32cd" stroke="#9a32cd" points="340.63,-0.59 331.46,-5.9 341.94,-7.46 340.63,-0.59"/>
<text text-anchor="middle" x="421" y="-27.46" font-family="Helvetica,sans-Serif" font-size="10.00"> IM</text>
</g>
<!-- Node24&#45;&gt;Node1 -->
<g id="edge28" class="edge">
<title>Node24&#45;&gt;Node1</title>
<path fill="none" stroke="#9a32cd" stroke-dasharray="5,2" d="M344.82,-718.07C380.71,-719.37 428.24,-714.53 457,-685.46 498.76,-643.25 503.42,-442.54 503.94,-396.08"/>
<polygon fill="#9a32cd" stroke="#9a32cd" points="344.73,-714.56 334.56,-717.53 344.36,-721.55 344.73,-714.56"/>
<text text-anchor="middle" x="421" y="-718.46" font-family="Helvetica,sans-Serif" font-size="10.00"> SE</text>
</g>
<!-- Node25 -->
<g id="node25" class="node">
<title>Node25</title>
<g id="a_node25"><a xlink:href="interfacemachine_1_1_inspectable.html" target="_top" xlink:title=" ">
<polygon fill="white" stroke="black" points="7,-682.46 7,-712.46 111,-712.46 111,-682.46 7,-682.46"/>
<text text-anchor="start" x="15" y="-700.46" font-family="Helvetica,sans-Serif" font-size="10.00">Inspectable&lt; String,</text>
<text text-anchor="middle" x="59" y="-689.46" font-family="Helvetica,sans-Serif" font-size="10.00"> String &gt;</text>
</a>
</g>
</g>
<!-- Node25&#45;&gt;Node24 -->
<g id="edge29" class="edge">
<title>Node25&#45;&gt;Node24</title>
<path fill="none" stroke="midnightblue" d="M121.18,-701.38C163.89,-704.11 219.58,-707.67 256.16,-710.01"/>
<polygon fill="midnightblue" stroke="midnightblue" points="121.38,-697.88 111.17,-700.74 120.93,-704.87 121.38,-697.88"/>
</g>
</g>
</svg>
        <g id="navigator" transform="translate(0 0)" fill="#404254">
                <rect fill="#f2f5e9" fill-opacity="0.5" stroke="#606060" stroke-width=".5" x="0" y="0" width="60" height="60"/>
                <use id="zoomplus" xlink:href="#zoomPlus" x="17" y="9" onmousedown="handleZoom(evt,'in')"/>
                <use id="zoomminus" xlink:href="#zoomMin" x="42" y="9" onmousedown="handleZoom(evt,'out')"/>
                <use id="reset" xlink:href="#resetDef" x="30" y="36" onmousedown="handleReset()"/>
                <g id="arrowUp" xlink:href="#dirArrow" transform="translate(30 24)" onmousedown="handlePan(0,-1)">
                  <use xlink:href="#rim" fill="#404040">
                        <set attributeName="fill" to="#808080" begin="arrowUp.mouseover" end="arrowUp.mouseout"/>
                  </use>
                  <path fill="none" stroke="white" stroke-width="1.5" d="M0,-3.0v7 M-2.5,-0.5L0,-3.0L2.5,-0.5"/>
                </g>
                <g id="arrowRight" xlink:href="#dirArrow" transform="rotate(90) translate(36 -43)" onmousedown="handlePan(1,0)">
                  <use xlink:href="#rim" fill="#404040">
                        <set attributeName="fill" to="#808080" begin="arrowRight.mouseover" end="arrowRight.mouseout"/>
                  </use>
                  <path fill="none" stroke="white" stroke-width="1.5" d="M0,-3.0v7 M-2.5,-0.5L0,-3.0L2.5,-0.5"/>
                </g>
                <g id="arrowDown" xlink:href="#dirArrow" transform="rotate(180) translate(-30 -48)" onmousedown="handlePan(0,1)">
                  <use xlink:href="#rim" fill="#404040">
                        <set attributeName="fill" to="#808080" begin="arrowDown.mouseover" end="arrowDown.mouseout"/>
                  </use>
                  <path fill="none" stroke="white" stroke-width="1.5" d="M0,-3.0v7 M-2.5,-0.5L0,-3.0L2.5,-0.5"/>
                </g>
                <g id="arrowLeft" xlink:href="#dirArrow" transform="rotate(270) translate(-36 17)" onmousedown="handlePan(-1,0)">
                  <use xlink:href="#rim" fill="#404040">
                        <set attributeName="fill" to="#808080" begin="arrowLeft.mouseover" end="arrowLeft.mouseout"/>
                  </use>
                  <path fill="none" stroke="white" stroke-width="1.5" d="M0,-3.0v7 M-2.5,-0.5L0,-3.0L2.5,-0.5"/>
                </g>
        </g>
        <svg viewBox="0 0 15 15" width="100%" height="30px" preserveAspectRatio="xMaxYMin meet">
         <g id="arrow_out" transform="scale(0.3 0.3)">
          <a xlink:href="classmachine_1_1_x_machine__coll__graph_org.svg" target="_base">
           <rect id="button" ry="5" rx="5" y="6" x="6" height="38" width="38"
                fill="#f2f5e9" fill-opacity="0.5" stroke="#606060" stroke-width="1.0"/>
           <path id="arrow"
             d="M 11.500037,31.436501 C 11.940474,20.09759 22.043105,11.32322 32.158766,21.979434 L 37.068811,17.246167 C 37.068811,17.246167 37.088388,32 37.088388,32 L 22.160133,31.978069 C 22.160133,31.978069 26.997745,27.140456 26.997745,27.140456 C 18.528582,18.264221 13.291696,25.230495 11.500037,31.436501 z"
             style="fill:#404040;"/>
          </a>
         </g>
        </svg>
</svg>
