<?xml version="1.0" encoding="UTF-8" standalone="no"?>
<!DOCTYPE svg PUBLIC "-//W3C//DTD SVG 1.1//EN"
 "http://www.w3.org/Graphics/SVG/1.1/DTD/svg11.dtd">
<!-- Generated by graphviz version 2.47.0 (20210316.0004)
 -->
<!-- Title: AstList.StepList Pages: 1 -->
<svg width="343pt" height="308pt"
 viewBox="0.00 0.00 342.50 308.00" xmlns="http://www.w3.org/2000/svg" xmlns:xlink="http://www.w3.org/1999/xlink">
<g id="graph0" class="graph" transform="scale(1 1) rotate(0) translate(4 304)">
<title>AstList.StepList</title>
<polygon fill="white" stroke="transparent" points="-4,4 -4,-304 338.5,-304 338.5,4 -4,4"/>
<!-- Node1 -->
<g id="node1" class="node">
<title>Node1</title>
<g id="a_node1"><a xlink:title="ステップのリスト.">
<polygon fill="#bfbfbf" stroke="black" points="183.5,-0.5 183.5,-19.5 269.5,-19.5 269.5,-0.5 183.5,-0.5"/>
<text text-anchor="middle" x="226.5" y="-7.5" font-family="Helvetica,sans-Serif" font-size="10.00">AstList.StepList</text>
</a>
</g>
</g>
<!-- Node2 -->
<g id="node2" class="node">
<title>Node2</title>
<g id="a_node2"><a xlink:href="classast_1_1_ast_list.html" target="_top" xlink:title="リストのテンプレート.">
<polygon fill="white" stroke="black" points="165,-56.5 165,-75.5 212,-75.5 212,-56.5 165,-56.5"/>
<text text-anchor="middle" x="188.5" y="-63.5" font-family="Helvetica,sans-Serif" font-size="10.00">AstList</text>
</a>
</g>
</g>
<!-- Node2&#45;&gt;Node1 -->
<g id="edge1" class="edge">
<title>Node2&#45;&gt;Node1</title>
<path fill="none" stroke="midnightblue" d="M200.56,-47.86C207.14,-38.5 215.01,-27.33 220.34,-19.75"/>
<polygon fill="midnightblue" stroke="midnightblue" points="197.67,-45.89 194.77,-56.08 203.39,-49.92 197.67,-45.89"/>
</g>
<!-- Node3 -->
<g id="node3" class="node">
<title>Node3</title>
<g id="a_node3"><a xlink:href="classast_1_1_ast_node_branch.html" target="_top" xlink:title="タグなしの順アクセスの子供をもてる抽象構文木のノードのクラス。">
<polygon fill="white" stroke="black" points="110.5,-112.5 110.5,-131.5 196.5,-131.5 196.5,-112.5 110.5,-112.5"/>
<text text-anchor="middle" x="153.5" y="-119.5" font-family="Helvetica,sans-Serif" font-size="10.00">AstNodeBranch</text>
</a>
</g>
</g>
<!-- Node3&#45;&gt;Node2 -->
<g id="edge2" class="edge">
<title>Node3&#45;&gt;Node2</title>
<path fill="none" stroke="midnightblue" d="M164.8,-103.57C170.82,-94.27 177.97,-83.25 182.83,-75.75"/>
<polygon fill="midnightblue" stroke="midnightblue" points="161.78,-101.79 159.28,-112.08 167.66,-105.6 161.78,-101.79"/>
</g>
<!-- Node4 -->
<g id="node4" class="node">
<title>Node4</title>
<g id="a_node4"><a xlink:href="classast_1_1_ast_node.html" target="_top" xlink:title=" ">
<polygon fill="white" stroke="black" points="0,-224.5 0,-243.5 55,-243.5 55,-224.5 0,-224.5"/>
<text text-anchor="middle" x="27.5" y="-231.5" font-family="Helvetica,sans-Serif" font-size="10.00">AstNode</text>
</a>
</g>
</g>
<!-- Node4&#45;&gt;Node3 -->
<g id="edge3" class="edge">
<title>Node4&#45;&gt;Node3</title>
<path fill="none" stroke="midnightblue" d="M19.85,-214.94C15.21,-200.87 11.83,-181.51 21.5,-168 41.51,-140.04 79.93,-129.25 110.19,-125.19"/>
<polygon fill="midnightblue" stroke="midnightblue" points="16.65,-216.37 23.46,-224.49 23.2,-213.9 16.65,-216.37"/>
</g>
<!-- Node5 -->
<g id="node5" class="node">
<title>Node5</title>
<g id="a_node5"><a xlink:href="interfaceformat_1_1_x_formattable.html" target="_top" xlink:title="入れ子フォーマット出力可能なオブジェクトのインタフェース。">
<polygon fill="white" stroke="black" points="71,-280.5 71,-299.5 146,-299.5 146,-280.5 71,-280.5"/>
<text text-anchor="middle" x="108.5" y="-287.5" font-family="Helvetica,sans-Serif" font-size="10.00">XFormattable</text>
</a>
</g>
</g>
<!-- Node5&#45;&gt;Node4 -->
<g id="edge4" class="edge">
<title>Node5&#45;&gt;Node4</title>
<path fill="none" stroke="midnightblue" d="M86.93,-274.62C72.14,-264.76 52.99,-251.99 40.48,-243.65"/>
<polygon fill="midnightblue" stroke="midnightblue" points="85.22,-277.69 95.49,-280.32 89.11,-271.86 85.22,-277.69"/>
</g>
<!-- Node7 -->
<g id="node7" class="node">
<title>Node7</title>
<g id="a_node7"><a xlink:href="interfaceformat_1_1_x_formattable_1_1_label_formattable.html" target="_top" xlink:title="カスタム清書出力器をもつオブジェクトのクラス．">
<polygon fill="white" stroke="black" points="165,-224.5 165,-243.5 318,-243.5 318,-224.5 165,-224.5"/>
<text text-anchor="middle" x="241.5" y="-231.5" font-family="Helvetica,sans-Serif" font-size="10.00">XFormattable.LabelFormattable</text>
</a>
</g>
</g>
<!-- Node5&#45;&gt;Node7 -->
<g id="edge7" class="edge">
<title>Node5&#45;&gt;Node7</title>
<path fill="none" stroke="midnightblue" d="M138.95,-276.64C163.91,-266.5 198.58,-252.43 220.52,-243.52"/>
<polygon fill="midnightblue" stroke="midnightblue" points="137.52,-273.44 129.57,-280.44 140.16,-279.92 137.52,-273.44"/>
</g>
<!-- Node8 -->
<g id="node8" class="node">
<title>Node8</title>
<g id="a_node8"><a xlink:href="interfaceformat_1_1_x_formattable_1_1_typed_formattable.html" target="_top" xlink:title="ノードの型情報をもつ書式出力可能なオブジェクトのインタフェース．">
<polygon fill="white" stroke="black" points="30.5,-168.5 30.5,-187.5 186.5,-187.5 186.5,-168.5 30.5,-168.5"/>
<text text-anchor="middle" x="108.5" y="-175.5" font-family="Helvetica,sans-Serif" font-size="10.00">XFormattable.TypedFormattable</text>
</a>
</g>
</g>
<!-- Node5&#45;&gt;Node8 -->
<g id="edge9" class="edge">
<title>Node5&#45;&gt;Node8</title>
<path fill="none" stroke="midnightblue" d="M108.5,-270.35C108.5,-246.25 108.5,-205.31 108.5,-187.59"/>
<polygon fill="midnightblue" stroke="midnightblue" points="105,-270.37 108.5,-280.37 112,-270.37 105,-270.37"/>
</g>
<!-- Node6 -->
<g id="node6" class="node">
<title>Node6</title>
<g id="a_node6"><a xlink:href="interfaceformat_1_1_x_formattable_1_1_navigatable.html" target="_top" xlink:title="木構造の分岐ノードとして清書可能なオブジェクトのクラス">
<polygon fill="white" stroke="black" points="204.5,-168.5 204.5,-187.5 334.5,-187.5 334.5,-168.5 204.5,-168.5"/>
<text text-anchor="middle" x="269.5" y="-175.5" font-family="Helvetica,sans-Serif" font-size="10.00">XFormattable.Navigatable</text>
</a>
</g>
</g>
<!-- Node6&#45;&gt;Node2 -->
<g id="edge10" class="edge">
<title>Node6&#45;&gt;Node2</title>
<path fill="none" stroke="midnightblue" d="M257.18,-160.27C239.67,-136.49 208.23,-93.79 194.83,-75.59"/>
<polygon fill="midnightblue" stroke="midnightblue" points="254.4,-162.39 263.14,-168.37 260.03,-158.24 254.4,-162.39"/>
</g>
<!-- Node6&#45;&gt;Node3 -->
<g id="edge5" class="edge">
<title>Node6&#45;&gt;Node3</title>
<path fill="none" stroke="midnightblue" d="M241.78,-164.1C220.11,-154.01 190.6,-140.27 171.79,-131.52"/>
<polygon fill="midnightblue" stroke="midnightblue" points="240.58,-167.4 251.12,-168.44 243.53,-161.05 240.58,-167.4"/>
</g>
<!-- Node7&#45;&gt;Node6 -->
<g id="edge6" class="edge">
<title>Node7&#45;&gt;Node6</title>
<path fill="none" stroke="midnightblue" d="M250.84,-214.98C255.59,-205.82 261.16,-195.09 264.96,-187.75"/>
<polygon fill="midnightblue" stroke="midnightblue" points="247.62,-213.59 246.12,-224.08 253.83,-216.82 247.62,-213.59"/>
</g>
<!-- Node8&#45;&gt;Node3 -->
<g id="edge8" class="edge">
<title>Node8&#45;&gt;Node3</title>
<path fill="none" stroke="midnightblue" d="M122.55,-160.14C130.39,-150.74 139.83,-139.4 146.21,-131.75"/>
<polygon fill="midnightblue" stroke="midnightblue" points="119.64,-158.16 115.93,-168.08 125.02,-162.64 119.64,-158.16"/>
</g>
<!-- Node9 -->
<g id="node9" class="node">
<title>Node9</title>
<g id="a_node9"><a xlink:href="interfacecmd_1_1_generatable.html" target="_top" xlink:title="変換してコードを生成できるノードのインタフェース.">
<polygon fill="white" stroke="black" points="230,-56.5 230,-75.5 299,-75.5 299,-56.5 230,-56.5"/>
<text text-anchor="middle" x="264.5" y="-63.5" font-family="Helvetica,sans-Serif" font-size="10.00">Generatable</text>
</a>
</g>
</g>
<!-- Node9&#45;&gt;Node1 -->
<g id="edge11" class="edge">
<title>Node9&#45;&gt;Node1</title>
<path fill="none" stroke="midnightblue" d="M252.44,-47.86C245.86,-38.5 237.99,-27.33 232.66,-19.75"/>
<polygon fill="midnightblue" stroke="midnightblue" points="249.61,-49.92 258.23,-56.08 255.33,-45.89 249.61,-49.92"/>
</g>
</g>
</svg>
