<?xml version="1.0" encoding="UTF-8" standalone="no"?>
<!DOCTYPE svg PUBLIC "-//W3C//DTD SVG 1.1//EN"
 "http://www.w3.org/Graphics/SVG/1.1/DTD/svg11.dtd">
<!-- Generated by graphviz version 2.47.1 (20210417.1919)
 -->
<!-- Title: StepRule Pages: 1 -->
<!--zoomable 851 -->
<svg id="main" version="1.1" xmlns="http://www.w3.org/2000/svg" xmlns:xlink="http://www.w3.org/1999/xlink" xml:space="preserve" onload="init(evt)">
<style type="text/css"><![CDATA[
.edge:hover path { stroke: red; }
.edge:hover polygon { stroke: red; fill: red; }
]]></style>
<script type="text/javascript"><![CDATA[
var edges = document.getElementsByTagName('g');
if (edges && edges.length) {
  for (var i=0;i<edges.length;i++) {
    if (edges[i].id.substr(0,4)=='edge') {
      edges[i].setAttribute('class','edge');
    }
  }
}
]]></script>
        <defs>
                <circle id="rim" cx="0" cy="0" r="7"/>
                <circle id="rim2" cx="0" cy="0" r="3.5"/>
                <g id="zoomPlus">
                        <use xlink:href="#rim" fill="#404040">
                                <set attributeName="fill" to="#808080" begin="zoomplus.mouseover" end="zoomplus.mouseout"/>
                        </use>
                        <path d="M-4,0h8M0,-4v8" fill="none" stroke="white" stroke-width="1.5" pointer-events="none"/>
                </g>
                <g id="zoomMin">
                        <use xlink:href="#rim" fill="#404040">
                                <set attributeName="fill" to="#808080" begin="zoomminus.mouseover" end="zoomminus.mouseout"/>
                        </use>
                        <path d="M-4,0h8" fill="none" stroke="white" stroke-width="1.5" pointer-events="none"/>
                </g>
                <g id="dirArrow">
                        <path fill="none" stroke="white" stroke-width="1.5" d="M0,-3.0v7 M-2.5,-0.5L0,-3.0L2.5,-0.5"/>
                </g>
               <g id="resetDef">
                       <use xlink:href="#rim2" fill="#404040">
                               <set attributeName="fill" to="#808080" begin="reset.mouseover" end="reset.mouseout"/>
                       </use>
               </g>
        </defs>

<script type="text/javascript">
var viewWidth = 993;
var viewHeight = 851;
var sectionId = 'dynsection-1';
</script>
<script xlink:href="svgpan.js"/>
<svg id="graph" class="graph">
<g id="viewport">
<title>StepRule</title>
<polygon fill="white" stroke="transparent" points="-4,4 -4,-847 989,-847 989,4 -4,4"/>
<!-- Node1 -->
<g id="node1" class="node">
<title>Node1</title>
<g id="a_node1"><a xlink:title="XMで実行可能（Steppaoble）な計算単位であるルールを表すオブジェクト.">
<polygon fill="#bfbfbf" stroke="black" points="928,-785.5 928,-804.5 985,-804.5 985,-785.5 928,-785.5"/>
<text text-anchor="middle" x="956.5" y="-792.5" font-family="Helvetica,sans-Serif" font-size="10.00">StepRule</text>
</a>
</g>
</g>
<!-- Node2 -->
<g id="node2" class="node">
<title>Node2</title>
<g id="a_node2"><a xlink:href="classast_1_1_step.html" target="_top" xlink:title="抽象構文木のステップ式のクラス.">
<polygon fill="white" stroke="black" points="854,-595.5 854,-614.5 891,-614.5 891,-595.5 854,-595.5"/>
<text text-anchor="middle" x="872.5" y="-602.5" font-family="Helvetica,sans-Serif" font-size="10.00">Step</text>
</a>
</g>
</g>
<!-- Node2&#45;&gt;Node1 -->
<g id="edge1" class="edge">
<title>Node2&#45;&gt;Node1</title>
<path fill="none" stroke="midnightblue" d="M881.73,-624.07C898.94,-663.95 938.23,-754.98 951.23,-785.11"/>
<polygon fill="midnightblue" stroke="midnightblue" points="884.86,-622.48 877.68,-614.68 878.43,-625.25 884.86,-622.48"/>
</g>
<!-- Node3 -->
<g id="node3" class="node">
<title>Node3</title>
<g id="a_node3"><a xlink:href="classast_1_1_block_base.html" target="_top" xlink:title="抽象構文木のステップ式のクラス.">
<polygon fill="white" stroke="black" points="725,-595.5 725,-614.5 789,-614.5 789,-595.5 725,-595.5"/>
<text text-anchor="middle" x="757" y="-602.5" font-family="Helvetica,sans-Serif" font-size="10.00">BlockBase</text>
</a>
</g>
</g>
<!-- Node3&#45;&gt;Node2 -->
<g id="edge2" class="edge">
<title>Node3&#45;&gt;Node2</title>
<path fill="none" stroke="midnightblue" d="M799.17,-605C818.02,-605 839.35,-605 853.94,-605"/>
<polygon fill="midnightblue" stroke="midnightblue" points="799.01,-601.5 789.01,-605 799.01,-608.5 799.01,-601.5"/>
</g>
<!-- Node4 -->
<g id="node4" class="node">
<title>Node4</title>
<g id="a_node4"><a xlink:href="classast_1_1_ast_node_tagged.html" target="_top" xlink:title="子それぞれにタグと型アイテムをもつ順序ノードAstNodeのサブクラス．利用者は自前で，追加する子のField名と型を設定する．読み出しは子の添字のみで行う．">
<polygon fill="white" stroke="black" points="501.5,-565.5 501.5,-584.5 587.5,-584.5 587.5,-565.5 501.5,-565.5"/>
<text text-anchor="middle" x="544.5" y="-572.5" font-family="Helvetica,sans-Serif" font-size="10.00">AstNodeTagged</text>
</a>
</g>
</g>
<!-- Node4&#45;&gt;Node3 -->
<g id="edge3" class="edge">
<title>Node4&#45;&gt;Node3</title>
<path fill="none" stroke="midnightblue" d="M597.69,-582.44C637.66,-588.14 691.46,-595.8 724.92,-600.57"/>
<polygon fill="midnightblue" stroke="midnightblue" points="597.99,-578.94 587.59,-581 597,-585.87 597.99,-578.94"/>
</g>
<!-- Node5 -->
<g id="node5" class="node">
<title>Node5</title>
<g id="a_node5"><a xlink:href="classast_1_1_ast_node.html" target="_top" xlink:title="タグなしの順アクセスの子供をもてる抽象構文木のノードのクラス。">
<polygon fill="white" stroke="red" points="217.5,-633.5 217.5,-652.5 272.5,-652.5 272.5,-633.5 217.5,-633.5"/>
<text text-anchor="middle" x="245" y="-640.5" font-family="Helvetica,sans-Serif" font-size="10.00">AstNode</text>
</a>
</g>
</g>
<!-- Node5&#45;&gt;Node4 -->
<g id="edge4" class="edge">
<title>Node5&#45;&gt;Node4</title>
<path fill="none" stroke="midnightblue" d="M282.83,-634.91C328.39,-629.22 407.93,-621.31 473,-601 486.44,-596.81 500.47,-590.32 512.45,-584.65"/>
<polygon fill="midnightblue" stroke="midnightblue" points="282.29,-631.45 272.82,-636.21 283.18,-638.39 282.29,-631.45"/>
</g>
<!-- Node5&#45;&gt;Node4 -->
<g id="edge7" class="edge">
<title>Node5&#45;&gt;Node4</title>
<path fill="none" stroke="midnightblue" d="M282.83,-647.53C328.39,-647.22 407.93,-639.31 473,-619 497.78,-611.26 524.61,-595.73 536.8,-584.56"/>
<polygon fill="midnightblue" stroke="midnightblue" points="282.84,-644.03 272.82,-647.47 282.8,-651.03 282.84,-644.03"/>
</g>
<!-- Node26 -->
<g id="node14" class="node">
<title>Node26</title>
<g id="a_node14"><a xlink:href="classast_1_1_sent_list.html" target="_top" xlink:title="文Sentenceのリスト.">
<polygon fill="white" stroke="black" points="518,-785.5 518,-804.5 571,-804.5 571,-785.5 518,-785.5"/>
<text text-anchor="middle" x="544.5" y="-792.5" font-family="Helvetica,sans-Serif" font-size="10.00">SentList</text>
</a>
</g>
</g>
<!-- Node5&#45;&gt;Node26 -->
<g id="edge15" class="edge">
<title>Node5&#45;&gt;Node26</title>
<path fill="none" stroke="midnightblue" d="M266.89,-658.66C286.22,-672.71 316.11,-693.32 344,-708 398.7,-736.79 420.46,-727.43 473,-760 482.1,-765.64 481.8,-770.52 491,-776 499.25,-780.91 508.97,-784.86 517.79,-787.87"/>
<polygon fill="midnightblue" stroke="midnightblue" points="268.92,-655.81 258.79,-652.71 264.78,-661.45 268.92,-655.81"/>
</g>
<!-- Node37 -->
<g id="node27" class="node">
<title>Node37</title>
<g id="a_node27"><a xlink:href="classast_1_1_ast_tag.html" target="_top" xlink:title=" ">
<polygon fill="white" stroke="black" points="521,-823.5 521,-842.5 568,-842.5 568,-823.5 521,-823.5"/>
<text text-anchor="middle" x="544.5" y="-830.5" font-family="Helvetica,sans-Serif" font-size="10.00">AstTag</text>
</a>
</g>
</g>
<!-- Node5&#45;&gt;Node37 -->
<g id="edge46" class="edge">
<title>Node5&#45;&gt;Node37</title>
<path fill="none" stroke="midnightblue" d="M262.78,-660.09C279.15,-676.89 304.65,-703.37 326,-727 334.24,-736.12 334.16,-740.64 344,-748 400.68,-790.39 481.7,-816.36 520.75,-827.17"/>
<polygon fill="midnightblue" stroke="midnightblue" points="265.02,-657.38 255.53,-652.67 260.02,-662.27 265.02,-657.38"/>
</g>
<!-- Node18 -->
<g id="node6" class="node">
<title>Node18</title>
<g id="a_node6"><a xlink:title=" ">
<polygon fill="white" stroke="#bfbfbf" points="0,-6.5 0,-25.5 52,-25.5 52,-6.5 0,-6.5"/>
<text text-anchor="middle" x="26" y="-13.5" font-family="Helvetica,sans-Serif" font-size="10.00">Boolean</text>
</a>
</g>
</g>
<!-- Node18&#45;&gt;Node2 -->
<g id="edge42" class="edge">
<title>Node18&#45;&gt;Node2</title>
<path fill="none" stroke="#9a32cd" stroke-dasharray="5,2" d="M62.21,-11.8C105.08,-7.06 179.75,0 244,0 244,0 244,0 758,0 858.4,0 813.96,-114.05 836,-212 869.76,-362.05 871.61,-551.16 871.55,-595.43"/>
<polygon fill="#9a32cd" stroke="#9a32cd" points="61.56,-8.35 52.02,-12.95 62.35,-15.31 61.56,-8.35"/>
<text text-anchor="middle" x="544.5" y="-14" font-family="Helvetica,sans-Serif" font-size="10.00"> dynamic_</text>
<text text-anchor="middle" x="544.5" y="-3" font-family="Helvetica,sans-Serif" font-size="10.00">target_</text>
</g>
<!-- Node18&#45;&gt;Node5 -->
<g id="edge5" class="edge">
<title>Node18&#45;&gt;Node5</title>
<path fill="none" stroke="#9a32cd" stroke-dasharray="5,2" d="M28.71,-36.02C37.23,-131.24 78.2,-537.2 164,-624 177.75,-637.91 199.69,-642.37 217.12,-643.52"/>
<polygon fill="#9a32cd" stroke="#9a32cd" points="32.17,-35.43 27.81,-25.78 25.2,-36.04 32.17,-35.43"/>
<text text-anchor="middle" x="108" y="-596" font-family="Helvetica,sans-Serif" font-size="10.00"> DEBUG_CHILD</text>
</g>
<!-- Node20 -->
<g id="node7" class="node">
<title>Node20</title>
<g id="a_node7"><a xlink:title=" ">
<polygon fill="white" stroke="#bfbfbf" points="200.5,-557.5 200.5,-576.5 289.5,-576.5 289.5,-557.5 200.5,-557.5"/>
<text text-anchor="middle" x="245" y="-564.5" font-family="Helvetica,sans-Serif" font-size="10.00">FieldNavigatable</text>
</a>
</g>
</g>
<!-- Node20&#45;&gt;Node4 -->
<g id="edge6" class="edge">
<title>Node20&#45;&gt;Node4</title>
<path fill="none" stroke="midnightblue" d="M299.62,-568.44C357.43,-570 448.28,-572.44 501.25,-573.86"/>
<polygon fill="midnightblue" stroke="midnightblue" points="299.67,-564.94 289.58,-568.17 299.48,-571.94 299.67,-564.94"/>
</g>
<!-- Node21 -->
<g id="node8" class="node">
<title>Node21</title>
<g id="a_node8"><a xlink:title=" ">
<polygon fill="white" stroke="#bfbfbf" points="206.5,-503.5 206.5,-522.5 283.5,-522.5 283.5,-503.5 206.5,-503.5"/>
<text text-anchor="middle" x="245" y="-510.5" font-family="Helvetica,sans-Serif" font-size="10.00">List&lt; XItem &gt;</text>
</a>
</g>
</g>
<!-- Node21&#45;&gt;Node4 -->
<g id="edge8" class="edge">
<title>Node21&#45;&gt;Node4</title>
<path fill="none" stroke="#9a32cd" stroke-dasharray="5,2" d="M293.73,-501.43C341.04,-492.34 414.68,-484.71 473,-508 502.17,-519.65 526.17,-549.74 537.11,-565.32"/>
<polygon fill="#9a32cd" stroke="#9a32cd" points="292.86,-498.03 283.75,-503.44 294.25,-504.9 292.86,-498.03"/>
<text text-anchor="middle" x="408.5" y="-511" font-family="Helvetica,sans-Serif" font-size="10.00"> types</text>
</g>
<!-- Node22 -->
<g id="node9" class="node">
<title>Node22</title>
<g id="a_node9"><a xlink:title=" ">
<polygon fill="white" stroke="#bfbfbf" points="207,-465.5 207,-484.5 283,-484.5 283,-465.5 207,-465.5"/>
<text text-anchor="middle" x="245" y="-472.5" font-family="Helvetica,sans-Serif" font-size="10.00">List&lt; String &gt;</text>
</a>
</g>
</g>
<!-- Node22&#45;&gt;Node4 -->
<g id="edge9" class="edge">
<title>Node22&#45;&gt;Node4</title>
<path fill="none" stroke="#9a32cd" stroke-dasharray="5,2" d="M292.84,-463.96C340.92,-455.2 416.47,-448.73 473,-478 509.6,-496.95 531.76,-544.61 539.92,-565.24"/>
<polygon fill="#9a32cd" stroke="#9a32cd" points="292.18,-460.53 283.02,-465.85 293.5,-467.4 292.18,-460.53"/>
<text text-anchor="middle" x="408.5" y="-481" font-family="Helvetica,sans-Serif" font-size="10.00"> fields</text>
</g>
<!-- Node23 -->
<g id="node10" class="node">
<title>Node23</title>
<g id="a_node10"><a xlink:title=" ">
<polygon fill="white" stroke="#bfbfbf" points="164,-427.5 164,-446.5 326,-446.5 326,-427.5 164,-427.5"/>
<text text-anchor="middle" x="245" y="-434.5" font-family="Helvetica,sans-Serif" font-size="10.00">List&lt; Supplier&lt; XFormattable &gt; &gt;</text>
</a>
</g>
</g>
<!-- Node23&#45;&gt;Node4 -->
<g id="edge10" class="edge">
<title>Node23&#45;&gt;Node4</title>
<path fill="none" stroke="#9a32cd" stroke-dasharray="5,2" d="M291.28,-425.38C340,-415.58 417.87,-408 473,-442 519.04,-470.4 536.72,-539.83 541.8,-565.37"/>
<polygon fill="#9a32cd" stroke="#9a32cd" points="290.4,-421.99 281.35,-427.49 291.86,-428.83 290.4,-421.99"/>
<text text-anchor="middle" x="408.5" y="-445" font-family="Helvetica,sans-Serif" font-size="10.00"> getters</text>
</g>
<!-- Node12 -->
<g id="node11" class="node">
<title>Node12</title>
<g id="a_node11"><a xlink:title=" ">
<polygon fill="white" stroke="#bfbfbf" points="220,-595.5 220,-614.5 270,-614.5 270,-595.5 220,-595.5"/>
<text text-anchor="middle" x="245" y="-602.5" font-family="Helvetica,sans-Serif" font-size="10.00">boolean</text>
</a>
</g>
</g>
<!-- Node12&#45;&gt;Node2 -->
<g id="edge43" class="edge">
<title>Node12&#45;&gt;Node2</title>
<path fill="none" stroke="#9a32cd" stroke-dasharray="5,2" d="M280.23,-613.19C298.95,-617.27 322.62,-621.8 344,-624 540.74,-644.25 591.56,-635.51 789,-624 809.97,-622.78 815.6,-624.01 836,-619 841.92,-617.55 848.17,-615.33 853.75,-613.09"/>
<polygon fill="#9a32cd" stroke="#9a32cd" points="280.91,-609.75 270.39,-610.98 279.38,-616.58 280.91,-609.75"/>
<text text-anchor="middle" x="661.5" y="-637" font-family="Helvetica,sans-Serif" font-size="10.00"> DEBUG_REPO</text>
</g>
<!-- Node12&#45;&gt;Node3 -->
<g id="edge27" class="edge">
<title>Node12&#45;&gt;Node3</title>
<path fill="none" stroke="#9a32cd" stroke-dasharray="5,2" d="M280.32,-607.18C299.12,-608.27 322.83,-609.46 344,-610 486.3,-613.63 656.33,-608.59 724.98,-606.17"/>
<polygon fill="#9a32cd" stroke="#9a32cd" points="280.34,-603.68 270.15,-606.58 279.93,-610.66 280.34,-603.68"/>
<text text-anchor="middle" x="544.5" y="-614" font-family="Helvetica,sans-Serif" font-size="10.00"> DEBUG_REPO</text>
</g>
<!-- Node12&#45;&gt;Node4 -->
<g id="edge11" class="edge">
<title>Node12&#45;&gt;Node4</title>
<path fill="none" stroke="#9a32cd" stroke-dasharray="5,2" d="M280.32,-601.54C335.05,-596.02 441.99,-585.24 501.32,-579.25"/>
<polygon fill="#9a32cd" stroke="#9a32cd" points="279.69,-598.08 270.09,-602.57 280.39,-605.05 279.69,-598.08"/>
<text text-anchor="middle" x="408.5" y="-598" font-family="Helvetica,sans-Serif" font-size="10.00"> DEBUG_REPO</text>
</g>
<!-- Node30 -->
<g id="node19" class="node">
<title>Node30</title>
<g id="a_node19"><a xlink:href="classmachine_1_1_var_table.html" target="_top" xlink:title="@整数の表">
<polygon fill="white" stroke="black" points="517.5,-395.5 517.5,-414.5 571.5,-414.5 571.5,-395.5 517.5,-395.5"/>
<text text-anchor="middle" x="544.5" y="-402.5" font-family="Helvetica,sans-Serif" font-size="10.00">VarTable</text>
</a>
</g>
</g>
<!-- Node12&#45;&gt;Node30 -->
<g id="edge26" class="edge">
<title>Node12&#45;&gt;Node30</title>
<path fill="none" stroke="#9a32cd" stroke-dasharray="5,2" d="M280.27,-601.12C295.03,-598.39 312.06,-593.78 326,-586 335.88,-580.48 334.5,-574.15 344,-568 395.49,-534.69 425.7,-558.04 473,-519 508.9,-489.38 531.73,-436.46 540.01,-414.73"/>
<polygon fill="#9a32cd" stroke="#9a32cd" points="279.31,-597.73 270,-602.78 280.43,-604.64 279.31,-597.73"/>
<text text-anchor="middle" x="408.5" y="-571" font-family="Helvetica,sans-Serif" font-size="10.00"> DEBUG_REPO</text>
</g>
<!-- Node24 -->
<g id="node12" class="node">
<title>Node24</title>
<g id="a_node12"><a xlink:href="interfacemachine_1_1_var_holdable.html" target="_top" xlink:title="実行可能コードのインタフェース. ブロックとステップの二種がある。">
<polygon fill="white" stroke="black" points="510,-747.5 510,-766.5 579,-766.5 579,-747.5 510,-747.5"/>
<text text-anchor="middle" x="544.5" y="-754.5" font-family="Helvetica,sans-Serif" font-size="10.00">VarHoldable</text>
</a>
</g>
</g>
<!-- Node24&#45;&gt;Node3 -->
<g id="edge12" class="edge">
<title>Node24&#45;&gt;Node3</title>
<path fill="none" stroke="midnightblue" d="M577.48,-743.36C584.35,-740.16 591.5,-736.62 598,-733 606.4,-728.32 607.31,-725.12 616,-721 654.23,-702.85 674.11,-719.63 707,-693 733.23,-671.76 747.76,-632.53 753.32,-614.51"/>
<polygon fill="midnightblue" stroke="midnightblue" points="576.04,-740.18 568.37,-747.49 578.93,-746.55 576.04,-740.18"/>
</g>
<!-- Node31 -->
<g id="node21" class="node">
<title>Node31</title>
<g id="a_node21"><a xlink:href="interfacemachine_1_1_callable.html" target="_top" xlink:title="実行可能ルールのインタフェース.">
<polygon fill="white" stroke="black" points="731,-735.5 731,-754.5 783,-754.5 783,-735.5 731,-735.5"/>
<text text-anchor="middle" x="757" y="-742.5" font-family="Helvetica,sans-Serif" font-size="10.00">Callable</text>
</a>
</g>
</g>
<!-- Node24&#45;&gt;Node31 -->
<g id="edge29" class="edge">
<title>Node24&#45;&gt;Node31</title>
<path fill="none" stroke="midnightblue" d="M589.36,-756.95C621.89,-756.6 667.28,-755.44 707,-752 714.79,-751.33 723.23,-750.25 730.88,-749.13"/>
<polygon fill="midnightblue" stroke="midnightblue" points="589.25,-753.46 579.28,-757.04 589.31,-760.46 589.25,-753.46"/>
</g>
<!-- Node25 -->
<g id="node13" class="node">
<title>Node25</title>
<g id="a_node13"><a xlink:href="interfacecmd_1_1_generatable.html" target="_top" xlink:title="変換してコードを生成できるノードのインタフェース.">
<polygon fill="white" stroke="black" points="210.5,-736.5 210.5,-755.5 279.5,-755.5 279.5,-736.5 210.5,-736.5"/>
<text text-anchor="middle" x="245" y="-743.5" font-family="Helvetica,sans-Serif" font-size="10.00">Generatable</text>
</a>
</g>
</g>
<!-- Node25&#45;&gt;Node3 -->
<g id="edge13" class="edge">
<title>Node25&#45;&gt;Node3</title>
<path fill="none" stroke="midnightblue" d="M289.52,-735.39C371.65,-715.13 554.91,-668.77 707,-622 714.4,-619.72 722.36,-617.06 729.67,-614.52"/>
<polygon fill="midnightblue" stroke="midnightblue" points="288.66,-732 279.78,-737.79 290.33,-738.8 288.66,-732"/>
</g>
<!-- Node25&#45;&gt;Node26 -->
<g id="edge16" class="edge">
<title>Node25&#45;&gt;Node26</title>
<path fill="none" stroke="midnightblue" d="M289.56,-753.18C352.51,-763.54 466.92,-782.39 517.85,-790.78"/>
<polygon fill="midnightblue" stroke="midnightblue" points="289.98,-749.7 279.55,-751.53 288.85,-756.6 289.98,-749.7"/>
</g>
<!-- Node26&#45;&gt;Node2 -->
<g id="edge30" class="edge">
<title>Node26&#45;&gt;Node2</title>
<path fill="none" stroke="#9a32cd" stroke-dasharray="5,2" d="M581.19,-797.02C630.34,-798.39 720.55,-795.71 789,-764 814.69,-752.1 820.88,-744.94 836,-721 858.27,-685.74 867.33,-635.63 870.29,-614.74"/>
<polygon fill="#9a32cd" stroke="#9a32cd" points="581.18,-793.52 571.06,-796.67 580.93,-800.52 581.18,-793.52"/>
<text text-anchor="middle" x="757" y="-787" font-family="Helvetica,sans-Serif" font-size="10.00"> sents_</text>
</g>
<!-- Node26&#45;&gt;Node3 -->
<g id="edge14" class="edge">
<title>Node26&#45;&gt;Node3</title>
<path fill="none" stroke="#9a32cd" stroke-dasharray="5,2" d="M580.79,-783.11C586.6,-780.9 592.52,-778.5 598,-776 606.33,-772.21 607.95,-770.36 616,-766 656.21,-744.23 675.92,-751.54 707,-718 735.92,-686.79 749.49,-635.82 754.1,-614.67"/>
<polygon fill="#9a32cd" stroke="#9a32cd" points="579.38,-779.9 571.2,-786.62 581.79,-786.47 579.38,-779.9"/>
<text text-anchor="middle" x="661.5" y="-769" font-family="Helvetica,sans-Serif" font-size="10.00"> pre_sent_</text>
</g>
<!-- Node27 -->
<g id="node15" class="node">
<title>Node27</title>
<g id="a_node15"><a xlink:href="classcmd_1_1_cmd_list.html" target="_top" xlink:title="仮想命令のリスト．">
<polygon fill="white" stroke="black" points="518,-207.5 518,-226.5 571,-226.5 571,-207.5 518,-207.5"/>
<text text-anchor="middle" x="544.5" y="-214.5" font-family="Helvetica,sans-Serif" font-size="10.00">CmdList</text>
</a>
</g>
</g>
<!-- Node27&#45;&gt;Node2 -->
<g id="edge40" class="edge">
<title>Node27&#45;&gt;Node2</title>
<path fill="none" stroke="#9a32cd" stroke-dasharray="5,2" d="M581.56,-215.82C644.06,-215.93 771.94,-226.06 836,-302 874.59,-347.75 872.71,-548.87 871.74,-595.38"/>
<polygon fill="#9a32cd" stroke="#9a32cd" points="581.37,-212.32 571.39,-215.89 581.42,-219.32 581.37,-212.32"/>
<text text-anchor="middle" x="757" y="-266" font-family="Helvetica,sans-Serif" font-size="10.00"> pre_code_</text>
</g>
<!-- Node27&#45;&gt;Node3 -->
<g id="edge17" class="edge">
<title>Node27&#45;&gt;Node3</title>
<path fill="none" stroke="#9a32cd" stroke-dasharray="5,2" d="M580.27,-227.34C586.97,-230.74 593.34,-235.2 598,-241 621.91,-270.77 589.5,-297.51 616,-325 644.96,-355.03 678.39,-317.64 707,-348 741.81,-384.94 753.19,-553.27 755.51,-595.41"/>
<polygon fill="#9a32cd" stroke="#9a32cd" points="581.62,-224.11 571.06,-223.33 578.83,-230.53 581.62,-224.11"/>
<text text-anchor="middle" x="661.5" y="-351" font-family="Helvetica,sans-Serif" font-size="10.00"> code_</text>
</g>
<!-- Node28 -->
<g id="node16" class="node">
<title>Node28</title>
<g id="a_node16"><a xlink:title=" ">
<polygon fill="white" stroke="#bfbfbf" points="193.5,-179.5 193.5,-198.5 296.5,-198.5 296.5,-179.5 193.5,-179.5"/>
<text text-anchor="middle" x="245" y="-186.5" font-family="Helvetica,sans-Serif" font-size="10.00">CustomFormattable</text>
</a>
</g>
</g>
<!-- Node28&#45;&gt;Node27 -->
<g id="edge18" class="edge">
<title>Node28&#45;&gt;Node27</title>
<path fill="none" stroke="midnightblue" d="M306.89,-194.73C371.65,-200.83 471.04,-210.18 517.67,-214.57"/>
<polygon fill="midnightblue" stroke="midnightblue" points="307.09,-191.23 296.8,-193.78 306.43,-198.2 307.09,-191.23"/>
</g>
<!-- Node28&#45;&gt;Node30 -->
<g id="edge22" class="edge">
<title>Node28&#45;&gt;Node30</title>
<path fill="none" stroke="midnightblue" d="M297.29,-202.11C307.43,-206.16 317.54,-211.37 326,-218 337.35,-226.9 334.17,-234.44 344,-245 393.43,-298.09 425.97,-289.77 473,-345 483.83,-357.72 479.04,-366.33 491,-378 498.56,-385.37 508.53,-391.18 517.75,-395.5"/>
<polygon fill="midnightblue" stroke="midnightblue" points="298.21,-198.71 287.61,-198.57 295.8,-205.29 298.21,-198.71"/>
</g>
<!-- Node32 -->
<g id="node22" class="node">
<title>Node32</title>
<g id="a_node22"><a xlink:href="classmachine_1_1_call_list.html" target="_top" xlink:title=" ">
<polygon fill="white" stroke="black" points="732,-169.5 732,-188.5 782,-188.5 782,-169.5 732,-169.5"/>
<text text-anchor="middle" x="757" y="-176.5" font-family="Helvetica,sans-Serif" font-size="10.00">CallList</text>
</a>
</g>
</g>
<!-- Node28&#45;&gt;Node32 -->
<g id="edge32" class="edge">
<title>Node28&#45;&gt;Node32</title>
<path fill="none" stroke="midnightblue" d="M306.95,-187.8C419.64,-185.6 656.01,-180.96 731.96,-179.47"/>
<polygon fill="midnightblue" stroke="midnightblue" points="306.69,-184.31 296.77,-188 306.83,-191.31 306.69,-184.31"/>
</g>
<!-- Node33 -->
<g id="node23" class="node">
<title>Node33</title>
<g id="a_node23"><a xlink:href="classmachine_1_1_id_mask.html" target="_top" xlink:title="@IDのマスク">
<polygon fill="white" stroke="black" points="520,-88.5 520,-107.5 569,-107.5 569,-88.5 520,-88.5"/>
<text text-anchor="middle" x="544.5" y="-95.5" font-family="Helvetica,sans-Serif" font-size="10.00">IdMask</text>
</a>
</g>
</g>
<!-- Node28&#45;&gt;Node33 -->
<g id="edge35" class="edge">
<title>Node28&#45;&gt;Node33</title>
<path fill="none" stroke="midnightblue" d="M261.55,-171.77C279.42,-153.29 310.59,-124.88 344,-112 403.93,-88.89 481.43,-91.87 519.81,-95.3"/>
<polygon fill="midnightblue" stroke="midnightblue" points="258.83,-169.55 254.53,-179.23 263.93,-174.35 258.83,-169.55"/>
</g>
<!-- Node29 -->
<g id="node17" class="node">
<title>Node29</title>
<g id="a_node17"><a xlink:title=" ">
<polygon fill="white" stroke="#bfbfbf" points="209.5,-227.5 209.5,-246.5 280.5,-246.5 280.5,-227.5 209.5,-227.5"/>
<text text-anchor="middle" x="245" y="-234.5" font-family="Helvetica,sans-Serif" font-size="10.00">List&lt; Cmd &gt;</text>
</a>
</g>
</g>
<!-- Node29&#45;&gt;Node27 -->
<g id="edge19" class="edge">
<title>Node29&#45;&gt;Node27</title>
<path fill="none" stroke="#9a32cd" stroke-dasharray="5,2" d="M290.77,-233.99C353.89,-229.75 466.99,-222.14 517.68,-218.74"/>
<polygon fill="#9a32cd" stroke="#9a32cd" points="290.45,-230.5 280.71,-234.67 290.92,-237.49 290.45,-230.5"/>
<text text-anchor="middle" x="408.5" y="-233" font-family="Helvetica,sans-Serif" font-size="10.00"> list_</text>
</g>
<!-- Node10 -->
<g id="node18" class="node">
<title>Node10</title>
<g id="a_node18"><a xlink:title=" ">
<polygon fill="white" stroke="#bfbfbf" points="230.5,-303.5 230.5,-322.5 259.5,-322.5 259.5,-303.5 230.5,-303.5"/>
<text text-anchor="middle" x="245" y="-310.5" font-family="Helvetica,sans-Serif" font-size="10.00">int</text>
</a>
</g>
</g>
<!-- Node10&#45;&gt;Node2 -->
<g id="edge41" class="edge">
<title>Node10&#45;&gt;Node2</title>
<path fill="none" stroke="#9a32cd" stroke-dasharray="5,2" d="M270.17,-311.53C359.69,-306.28 669.24,-289.9 707,-312 819.52,-377.87 860.95,-552.05 869.66,-595.22"/>
<polygon fill="#9a32cd" stroke="#9a32cd" points="269.7,-308.05 259.93,-312.14 270.12,-315.04 269.7,-308.05"/>
<text text-anchor="middle" x="661.5" y="-315" font-family="Helvetica,sans-Serif" font-size="10.00"> dynamic_ref_count_</text>
</g>
<!-- Node10&#45;&gt;Node3 -->
<g id="edge20" class="edge">
<title>Node10&#45;&gt;Node3</title>
<path fill="none" stroke="#9a32cd" stroke-dasharray="5,2" d="M270.05,-315.48C339.54,-322.93 539.38,-346.35 598,-375 656.26,-403.47 670.48,-418.41 707,-472 735,-513.07 749.32,-572.14 754.12,-595.23"/>
<polygon fill="#9a32cd" stroke="#9a32cd" points="270.02,-311.96 259.7,-314.39 269.28,-318.92 270.02,-311.96"/>
<text text-anchor="middle" x="544.5" y="-378" font-family="Helvetica,sans-Serif" font-size="10.00"> funid_</text>
</g>
<!-- Node10&#45;&gt;Node30 -->
<g id="edge24" class="edge">
<title>Node10&#45;&gt;Node30</title>
<path fill="none" stroke="#9a32cd" stroke-dasharray="5,2" d="M268.9,-321.99C288.65,-329.6 318.01,-340.59 344,-349 405.61,-368.93 479.21,-388.52 517.48,-398.39"/>
<polygon fill="#9a32cd" stroke="#9a32cd" points="270.11,-318.7 259.52,-318.35 267.57,-325.23 270.11,-318.7"/>
<text text-anchor="middle" x="408.5" y="-390" font-family="Helvetica,sans-Serif" font-size="10.00"> UNDEF</text>
</g>
<!-- Node10&#45;&gt;Node32 -->
<g id="edge33" class="edge">
<title>Node10&#45;&gt;Node32</title>
<path fill="none" stroke="#9a32cd" stroke-dasharray="5,2" d="M269.75,-308.92C326.88,-298.85 476.28,-271.1 598,-236 646.61,-221.98 701.91,-200.78 732.49,-188.58"/>
<polygon fill="#9a32cd" stroke="#9a32cd" points="268.84,-305.52 259.59,-310.69 270.04,-312.42 268.84,-305.52"/>
<text text-anchor="middle" x="544.5" y="-267" font-family="Helvetica,sans-Serif" font-size="10.00"> UNDEF</text>
</g>
<!-- Node10&#45;&gt;Node33 -->
<g id="edge36" class="edge">
<title>Node10&#45;&gt;Node33</title>
<path fill="none" stroke="#9a32cd" stroke-dasharray="5,2" d="M268.91,-302.34C287.07,-292.73 311.7,-276.9 326,-256 344.38,-229.13 322.93,-209.82 344,-185 390.47,-130.27 477.85,-108.86 519.82,-101.45"/>
<polygon fill="#9a32cd" stroke="#9a32cd" points="266.95,-299.41 259.59,-307.04 270.1,-305.67 266.95,-299.41"/>
<text text-anchor="middle" x="408.5" y="-210" font-family="Helvetica,sans-Serif" font-size="10.00"> OUTPUT_MIN_BIT_WIDTH</text>
<text text-anchor="middle" x="408.5" y="-199" font-family="Helvetica,sans-Serif" font-size="10.00">maxState</text>
<text text-anchor="middle" x="408.5" y="-188" font-family="Helvetica,sans-Serif" font-size="10.00">numStates</text>
</g>
<!-- Node30&#45;&gt;Node3 -->
<g id="edge21" class="edge">
<title>Node30&#45;&gt;Node3</title>
<path fill="none" stroke="#9a32cd" stroke-dasharray="5,2" d="M563.01,-421.64C605.42,-461.93 712.61,-563.78 745.95,-595.45"/>
<polygon fill="#9a32cd" stroke="#9a32cd" points="565.31,-419 555.65,-414.65 560.49,-424.07 565.31,-419"/>
<text text-anchor="middle" x="661.5" y="-560" font-family="Helvetica,sans-Serif" font-size="10.00"> vars_</text>
</g>
<!-- Node30&#45;&gt;Node30 -->
<g id="edge25" class="edge">
<title>Node30&#45;&gt;Node30</title>
<path fill="none" stroke="#9a32cd" stroke-dasharray="5,2" d="M523.02,-424.4C524.45,-429.31 531.61,-433 544.5,-433 565.12,-433 571.08,-423.57 562.38,-414.76"/>
<polygon fill="#9a32cd" stroke="#9a32cd" points="526.4,-425.35 526.62,-414.76 519.84,-422.9 526.4,-425.35"/>
<text text-anchor="middle" x="544.5" y="-436" font-family="Helvetica,sans-Serif" font-size="10.00"> parent</text>
</g>
<!-- Node9 -->
<g id="node20" class="node">
<title>Node9</title>
<g id="a_node20"><a xlink:title=" ">
<polygon fill="white" stroke="#bfbfbf" points="208.5,-389.5 208.5,-408.5 281.5,-408.5 281.5,-389.5 208.5,-389.5"/>
<text text-anchor="middle" x="245" y="-396.5" font-family="Helvetica,sans-Serif" font-size="10.00">static Report</text>
</a>
</g>
</g>
<!-- Node9&#45;&gt;Node30 -->
<g id="edge23" class="edge">
<title>Node9&#45;&gt;Node30</title>
<path fill="none" stroke="#9a32cd" stroke-dasharray="5,2" d="M291.67,-399.92C354.87,-401.2 466.89,-403.45 517.45,-404.47"/>
<polygon fill="#9a32cd" stroke="#9a32cd" points="291.66,-396.42 281.59,-399.72 291.52,-403.42 291.66,-396.42"/>
<text text-anchor="middle" x="408.5" y="-407" font-family="Helvetica,sans-Serif" font-size="10.00"> repo</text>
</g>
<!-- Node31&#45;&gt;Node1 -->
<g id="edge44" class="edge">
<title>Node31&#45;&gt;Node1</title>
<path fill="none" stroke="midnightblue" d="M792.75,-753.8C831.22,-763.54 892.47,-779.04 927.84,-788"/>
<polygon fill="midnightblue" stroke="midnightblue" points="793.57,-750.39 783.01,-751.33 791.85,-757.18 793.57,-750.39"/>
</g>
<!-- Node31&#45;&gt;Node2 -->
<g id="edge28" class="edge">
<title>Node31&#45;&gt;Node2</title>
<path fill="none" stroke="midnightblue" d="M789.15,-730.89C804.97,-722.4 823.45,-710.27 836,-695 856.38,-670.22 866.11,-632.32 869.74,-614.67"/>
<polygon fill="midnightblue" stroke="midnightblue" points="787.52,-727.79 780.21,-735.46 790.71,-734.02 787.52,-727.79"/>
</g>
<!-- Node32&#45;&gt;Node2 -->
<g id="edge31" class="edge">
<title>Node32&#45;&gt;Node2</title>
<path fill="none" stroke="#9a32cd" stroke-dasharray="5,2" d="M782.14,-194.38C800.28,-207.37 823.99,-227.71 836,-252 867.06,-314.8 870.95,-544.76 871.43,-595.18"/>
<polygon fill="#9a32cd" stroke="#9a32cd" points="783.98,-191.4 773.76,-188.61 780.01,-197.17 783.98,-191.4"/>
<text text-anchor="middle" x="821.5" y="-255" font-family="Helvetica,sans-Serif" font-size="10.00"> calls_</text>
</g>
<!-- Node33&#45;&gt;Node32 -->
<g id="edge34" class="edge">
<title>Node33&#45;&gt;Node32</title>
<path fill="none" stroke="#9a32cd" stroke-dasharray="5,2" d="M579.62,-97.68C613.81,-98.74 666.96,-104.22 707,-126 726.15,-136.42 741.91,-157.16 750.03,-169.38"/>
<polygon fill="#9a32cd" stroke="#9a32cd" points="579.29,-94.17 569.23,-97.48 579.16,-101.17 579.29,-94.17"/>
<text text-anchor="middle" x="661.5" y="-129" font-family="Helvetica,sans-Serif" font-size="10.00"> callbits_</text>
</g>
<!-- Node34 -->
<g id="node24" class="node">
<title>Node34</title>
<g id="a_node24"><a xlink:title=" ">
<polygon fill="white" stroke="#bfbfbf" points="205,-28.5 205,-47.5 285,-47.5 285,-28.5 205,-28.5"/>
<text text-anchor="middle" x="245" y="-35.5" font-family="Helvetica,sans-Serif" font-size="10.00">List&lt; Integer &gt;</text>
</a>
</g>
</g>
<!-- Node34&#45;&gt;Node33 -->
<g id="edge37" class="edge">
<title>Node34&#45;&gt;Node33</title>
<path fill="none" stroke="#9a32cd" stroke-dasharray="5,2" d="M295.5,-33.9C342.43,-31.66 414.28,-32.55 473,-52 496.31,-59.72 519.39,-77.12 532.5,-88.17"/>
<polygon fill="#9a32cd" stroke="#9a32cd" points="295.09,-30.42 285.29,-34.46 295.47,-37.41 295.09,-30.42"/>
<text text-anchor="middle" x="408.5" y="-55" font-family="Helvetica,sans-Serif" font-size="10.00"> idlist</text>
</g>
<!-- Node35 -->
<g id="node25" class="node">
<title>Node35</title>
<g id="a_node25"><a xlink:title=" ">
<polygon fill="white" stroke="#bfbfbf" points="227.5,-66.5 227.5,-85.5 262.5,-85.5 262.5,-66.5 227.5,-66.5"/>
<text text-anchor="middle" x="245" y="-73.5" font-family="Helvetica,sans-Serif" font-size="10.00">long</text>
</a>
</g>
</g>
<!-- Node35&#45;&gt;Node33 -->
<g id="edge38" class="edge">
<title>Node35&#45;&gt;Node33</title>
<path fill="none" stroke="#9a32cd" stroke-dasharray="5,2" d="M272.82,-72.5C315.54,-67.63 401.54,-60.7 473,-73 490.15,-75.95 508.66,-82.66 522.41,-88.39"/>
<polygon fill="#9a32cd" stroke="#9a32cd" points="272.2,-69.05 262.68,-73.71 273.03,-76 272.2,-69.05"/>
<text text-anchor="middle" x="408.5" y="-76" font-family="Helvetica,sans-Serif" font-size="10.00"> MASK_STATE</text>
</g>
<!-- Node36 -->
<g id="node26" class="node">
<title>Node36</title>
<g id="a_node26"><a xlink:title=" ">
<polygon fill="white" stroke="#bfbfbf" points="491,-131.5 491,-150.5 598,-150.5 598,-131.5 491,-131.5"/>
<text text-anchor="middle" x="544.5" y="-138.5" font-family="Helvetica,sans-Serif" font-size="10.00">List&lt; machine.Call &gt;</text>
</a>
</g>
</g>
<!-- Node36&#45;&gt;Node32 -->
<g id="edge39" class="edge">
<title>Node36&#45;&gt;Node32</title>
<path fill="none" stroke="#9a32cd" stroke-dasharray="5,2" d="M608.09,-140.38C638.45,-141.5 675.15,-144.98 707,-154 718.95,-157.38 731.39,-163.78 740.76,-169.25"/>
<polygon fill="#9a32cd" stroke="#9a32cd" points="608.15,-136.88 598.05,-140.09 607.95,-143.88 608.15,-136.88"/>
<text text-anchor="middle" x="661.5" y="-157" font-family="Helvetica,sans-Serif" font-size="10.00"> list_</text>
</g>
<!-- Node37&#45;&gt;Node1 -->
<g id="edge45" class="edge">
<title>Node37&#45;&gt;Node1</title>
<path fill="none" stroke="#9a32cd" stroke-dasharray="5,2" d="M578.41,-829.95C657.11,-822.66 855,-804.31 927.95,-797.55"/>
<polygon fill="#9a32cd" stroke="#9a32cd" points="577.76,-826.49 568.13,-830.9 578.41,-833.46 577.76,-826.49"/>
<text text-anchor="middle" x="821.5" y="-811" font-family="Helvetica,sans-Serif" font-size="10.00"> tag</text>
</g>
<!-- Node38 -->
<g id="node28" class="node">
<title>Node38</title>
<g id="a_node28"><a xlink:title=" ">
<polygon fill="white" stroke="#bfbfbf" points="193.5,-823.5 193.5,-842.5 296.5,-842.5 296.5,-823.5 193.5,-823.5"/>
<text text-anchor="middle" x="245" y="-830.5" font-family="Helvetica,sans-Serif" font-size="10.00">CustomFormattable</text>
</a>
</g>
</g>
<!-- Node38&#45;&gt;Node37 -->
<g id="edge47" class="edge">
<title>Node38&#45;&gt;Node37</title>
<path fill="none" stroke="midnightblue" d="M307.1,-833C373.28,-833 475.45,-833 520.65,-833"/>
<polygon fill="midnightblue" stroke="midnightblue" points="306.8,-829.5 296.8,-833 306.8,-836.5 306.8,-829.5"/>
</g>
</g>
</svg>
        <g id="navigator" transform="translate(0 0)" fill="#404254">
                <rect fill="#f2f5e9" fill-opacity="0.5" stroke="#606060" stroke-width=".5" x="0" y="0" width="60" height="60"/>
                <use id="zoomplus" xlink:href="#zoomPlus" x="17" y="9" onmousedown="handleZoom(evt,'in')"/>
                <use id="zoomminus" xlink:href="#zoomMin" x="42" y="9" onmousedown="handleZoom(evt,'out')"/>
                <use id="reset" xlink:href="#resetDef" x="30" y="36" onmousedown="handleReset()"/>
                <g id="arrowUp" xlink:href="#dirArrow" transform="translate(30 24)" onmousedown="handlePan(0,-1)">
                  <use xlink:href="#rim" fill="#404040">
                        <set attributeName="fill" to="#808080" begin="arrowUp.mouseover" end="arrowUp.mouseout"/>
                  </use>
                  <path fill="none" stroke="white" stroke-width="1.5" d="M0,-3.0v7 M-2.5,-0.5L0,-3.0L2.5,-0.5"/>
                </g>
                <g id="arrowRight" xlink:href="#dirArrow" transform="rotate(90) translate(36 -43)" onmousedown="handlePan(1,0)">
                  <use xlink:href="#rim" fill="#404040">
                        <set attributeName="fill" to="#808080" begin="arrowRight.mouseover" end="arrowRight.mouseout"/>
                  </use>
                  <path fill="none" stroke="white" stroke-width="1.5" d="M0,-3.0v7 M-2.5,-0.5L0,-3.0L2.5,-0.5"/>
                </g>
                <g id="arrowDown" xlink:href="#dirArrow" transform="rotate(180) translate(-30 -48)" onmousedown="handlePan(0,1)">
                  <use xlink:href="#rim" fill="#404040">
                        <set attributeName="fill" to="#808080" begin="arrowDown.mouseover" end="arrowDown.mouseout"/>
                  </use>
                  <path fill="none" stroke="white" stroke-width="1.5" d="M0,-3.0v7 M-2.5,-0.5L0,-3.0L2.5,-0.5"/>
                </g>
                <g id="arrowLeft" xlink:href="#dirArrow" transform="rotate(270) translate(-36 17)" onmousedown="handlePan(-1,0)">
                  <use xlink:href="#rim" fill="#404040">
                        <set attributeName="fill" to="#808080" begin="arrowLeft.mouseover" end="arrowLeft.mouseout"/>
                  </use>
                  <path fill="none" stroke="white" stroke-width="1.5" d="M0,-3.0v7 M-2.5,-0.5L0,-3.0L2.5,-0.5"/>
                </g>
        </g>
        <svg viewBox="0 0 15 15" width="100%" height="30px" preserveAspectRatio="xMaxYMin meet">
         <g id="arrow_out" transform="scale(0.3 0.3)">
          <a xlink:href="classast_1_1_step_rule__coll__graph_org.svg" target="_base">
           <rect id="button" ry="5" rx="5" y="6" x="6" height="38" width="38"
                fill="#f2f5e9" fill-opacity="0.5" stroke="#606060" stroke-width="1.0"/>
           <path id="arrow"
             d="M 11.500037,31.436501 C 11.940474,20.09759 22.043105,11.32322 32.158766,21.979434 L 37.068811,17.246167 C 37.068811,17.246167 37.088388,32 37.088388,32 L 22.160133,31.978069 C 22.160133,31.978069 26.997745,27.140456 26.997745,27.140456 C 18.528582,18.264221 13.291696,25.230495 11.500037,31.436501 z"
             style="fill:#404040;"/>
          </a>
         </g>
        </svg>
</svg>
