<?xml version="1.0" encoding="UTF-8" standalone="no"?>
<!DOCTYPE svg PUBLIC "-//W3C//DTD SVG 1.1//EN"
 "http://www.w3.org/Graphics/SVG/1.1/DTD/svg11.dtd">
<!-- Generated by graphviz version 2.38.0 (20140413.2041)
 -->
<!-- Title: CommandString.CmdOStreamStore Pages: 1 -->
<svg width="352pt" height="243pt"
 viewBox="0.00 0.00 351.87 243.00" xmlns="http://www.w3.org/2000/svg" xmlns:xlink="http://www.w3.org/1999/xlink">
<g id="graph0" class="graph" transform="scale(1 1) rotate(0) translate(4 239)">
<title>CommandString.CmdOStreamStore</title>
<polygon fill="white" stroke="none" points="-4,4 -4,-239 347.867,-239 347.867,4 -4,4"/>
<!-- Node1 -->
<g id="node1" class="node"><title>Node1</title>
<g id="a_node1"><a xlink:title="文字列変数にスタックトップの文字列を代入する．">
<polygon fill="#bfbfbf" stroke="black" points="152.663,-0.5 152.663,-28.5 304.815,-28.5 304.815,-0.5 152.663,-0.5"/>
<text text-anchor="start" x="160.663" y="-16.5" font-family="Helvetica,sans-Serif" font-size="10.00">CommandString.CmdOStream</text>
<text text-anchor="middle" x="228.739" y="-6.5" font-family="Helvetica,sans-Serif" font-size="10.00">Store</text>
</a>
</g>
</g>
<!-- Node2 -->
<g id="node2" class="node"><title>Node2</title>
<g id="a_node2"><a xlink:href="classmachine_1_1_command.html" target="_top" xlink:title="局所変数環境に値を書き込む式の抽象クラス.">
<polygon fill="white" stroke="black" points="135.675,-75.5 135.675,-93.5 197.803,-93.5 197.803,-75.5 135.675,-75.5"/>
<text text-anchor="middle" x="166.739" y="-81.5" font-family="Helvetica,sans-Serif" font-size="10.00">Command</text>
</a>
</g>
</g>
<!-- Node2&#45;&gt;Node1 -->
<g id="edge1" class="edge"><title>Node2&#45;&gt;Node1</title>
<path fill="none" stroke="midnightblue" d="M180.852,-68.0209C191.675,-56.1501 206.451,-39.9444 216.716,-28.6867"/>
<polygon fill="midnightblue" stroke="midnightblue" points="178.246,-65.6847 174.094,-75.4325 183.418,-70.401 178.246,-65.6847"/>
</g>
<!-- Node3 -->
<g id="node3" class="node"><title>Node3</title>
<g id="a_node3"><a xlink:href="interfacemachine_1_1_executable.html" target="_top" xlink:title="仮装命令のインタフェース.">
<polygon fill="white" stroke="black" points="0,-160.5 0,-178.5 65.4775,-178.5 65.4775,-160.5 0,-160.5"/>
<text text-anchor="middle" x="32.7388" y="-166.5" font-family="Helvetica,sans-Serif" font-size="10.00">Executable</text>
</a>
</g>
</g>
<!-- Node3&#45;&gt;Node2 -->
<g id="edge2" class="edge"><title>Node3&#45;&gt;Node2</title>
<path fill="none" stroke="midnightblue" d="M54.779,-154.848C82.8336,-137.471 130.416,-107.998 153.454,-93.7284"/>
<polygon fill="midnightblue" stroke="midnightblue" points="52.7354,-151.997 46.0771,-160.238 56.4214,-157.948 52.7354,-151.997"/>
</g>
<!-- Node4 -->
<g id="node4" class="node"><title>Node4</title>
<g id="a_node4"><a xlink:href="interfaceformat_1_1_x_formattable_1_1_custom_formattable.html" target="_top" xlink:title="カスタム清書出力器をもつオブジェクトのクラス．">
<polygon fill="white" stroke="black" points="83.4336,-160.5 83.4336,-178.5 250.044,-178.5 250.044,-160.5 83.4336,-160.5"/>
<text text-anchor="middle" x="166.739" y="-166.5" font-family="Helvetica,sans-Serif" font-size="10.00">XFormattable.CustomFormattable</text>
</a>
</g>
</g>
<!-- Node4&#45;&gt;Node2 -->
<g id="edge3" class="edge"><title>Node4&#45;&gt;Node2</title>
<path fill="none" stroke="midnightblue" d="M166.739,-150.059C166.739,-132.46 166.739,-106.757 166.739,-93.7284"/>
<polygon fill="midnightblue" stroke="midnightblue" points="163.239,-150.238 166.739,-160.238 170.239,-150.238 163.239,-150.238"/>
</g>
<!-- Node5 -->
<g id="node5" class="node"><title>Node5</title>
<g id="a_node5"><a xlink:href="interfaceformat_1_1_x_formattable.html" target="_top" xlink:title="入れ子フォーマット出力可能なオブジェクトのインタフェース。">
<polygon fill="white" stroke="black" points="128.727,-216.5 128.727,-234.5 204.751,-234.5 204.751,-216.5 128.727,-216.5"/>
<text text-anchor="middle" x="166.739" y="-222.5" font-family="Helvetica,sans-Serif" font-size="10.00">XFormattable</text>
</a>
</g>
</g>
<!-- Node5&#45;&gt;Node4 -->
<g id="edge4" class="edge"><title>Node5&#45;&gt;Node4</title>
<path fill="none" stroke="midnightblue" d="M166.739,-205.829C166.739,-196.577 166.739,-185.88 166.739,-178.701"/>
<polygon fill="midnightblue" stroke="midnightblue" points="163.239,-206.062 166.739,-216.062 170.239,-206.063 163.239,-206.062"/>
</g>
<!-- Node6 -->
<g id="node6" class="node"><title>Node6</title>
<g id="a_node6"><a xlink:title=" ">
<polygon fill="white" stroke="#bfbfbf" points="267.943,-160.5 267.943,-178.5 319.534,-178.5 319.534,-160.5 267.943,-160.5"/>
<text text-anchor="middle" x="293.739" y="-166.5" font-family="Helvetica,sans-Serif" font-size="10.00">boolean</text>
</a>
</g>
</g>
<!-- Node6&#45;&gt;Node2 -->
<g id="edge5" class="edge"><title>Node6&#45;&gt;Node2</title>
<path fill="none" stroke="#9a32cd" stroke-dasharray="5,2" d="M272.502,-154.621C245.869,-137.215 201.069,-107.936 179.329,-93.7284"/>
<polygon fill="#9a32cd" stroke="#9a32cd" points="270.812,-157.697 281.097,-160.238 274.641,-151.838 270.812,-157.697"/>
<text text-anchor="middle" x="298.303" y="-134" font-family="Helvetica,sans-Serif" font-size="10.00"> DEBUG_EVAL</text>
<text text-anchor="middle" x="298.303" y="-124" font-family="Helvetica,sans-Serif" font-size="10.00">DEBUG_CMDELEM</text>
<text text-anchor="middle" x="298.303" y="-114" font-family="Helvetica,sans-Serif" font-size="10.00">DEBUG_CMD</text>
</g>
<!-- Node7 -->
<g id="node7" class="node"><title>Node7</title>
<g id="a_node7"><a xlink:title=" ">
<polygon fill="white" stroke="#bfbfbf" points="215.342,-75.5 215.342,-93.5 284.135,-93.5 284.135,-75.5 215.342,-75.5"/>
<text text-anchor="middle" x="249.739" y="-81.5" font-family="Helvetica,sans-Serif" font-size="10.00">PrintStream</text>
</a>
</g>
</g>
<!-- Node7&#45;&gt;Node1 -->
<g id="edge6" class="edge"><title>Node7&#45;&gt;Node1</title>
<path fill="none" stroke="#9a32cd" stroke-dasharray="5,2" d="M244.201,-65.5678C240.626,-53.991 236.054,-39.1867 232.811,-28.6867"/>
<polygon fill="#9a32cd" stroke="#9a32cd" points="240.952,-66.9105 247.247,-75.4325 247.641,-64.8449 240.952,-66.9105"/>
<text text-anchor="middle" x="252.579" y="-49" font-family="Helvetica,sans-Serif" font-size="10.00"> outs</text>
</g>
</g>
</svg>
