<?xml version="1.0" encoding="UTF-8" standalone="no"?>
<!DOCTYPE svg PUBLIC "-//W3C//DTD SVG 1.1//EN"
 "http://www.w3.org/Graphics/SVG/1.1/DTD/svg11.dtd">
<!-- Generated by graphviz version 2.38.0 (20140413.2041)
 -->
<!-- Title: AstArrow Pages: 1 -->
<svg width="556pt" height="192pt"
 viewBox="0.00 0.00 555.88 192.00" xmlns="http://www.w3.org/2000/svg" xmlns:xlink="http://www.w3.org/1999/xlink">
<g id="graph0" class="graph" transform="scale(1 1) rotate(0) translate(4 188)">
<title>AstArrow</title>
<polygon fill="white" stroke="none" points="-4,4 -4,-188 551.879,-188 551.879,4 -4,4"/>
<!-- Node1 -->
<g id="node1" class="node"><title>Node1</title>
<g id="a_node1"><a xlink:title="値の読み出しオブジェクト．">
<polygon fill="#bfbfbf" stroke="black" points="327.896,-0.5 327.896,-18.5 384.458,-18.5 384.458,-0.5 327.896,-0.5"/>
<text text-anchor="middle" x="356.177" y="-6.5" font-family="Helvetica,sans-Serif" font-size="10.00">AstArrow</text>
</a>
</g>
</g>
<!-- Node2 -->
<g id="node2" class="node"><title>Node2</title>
<g id="a_node2"><a xlink:href="classast_1_1_ast_node_branch.html" target="_top" xlink:title="抽象構文木のノードの基本実装クラス.">
<polygon fill="white" stroke="black" points="253.158,-55.5 253.158,-73.5 339.197,-73.5 339.197,-55.5 253.158,-55.5"/>
<text text-anchor="middle" x="296.177" y="-61.5" font-family="Helvetica,sans-Serif" font-size="10.00">AstNodeBranch</text>
</a>
</g>
</g>
<!-- Node2&#45;&gt;Node1 -->
<g id="edge1" class="edge"><title>Node2&#45;&gt;Node1</title>
<path fill="none" stroke="midnightblue" d="M312.999,-48.6408C324.004,-38.9201 337.961,-26.5913 346.979,-18.6253"/>
<polygon fill="midnightblue" stroke="midnightblue" points="310.468,-46.2069 305.29,-55.4504 315.102,-51.4532 310.468,-46.2069"/>
</g>
<!-- Node3 -->
<g id="node3" class="node"><title>Node3</title>
<g id="a_node3"><a xlink:href="classast_1_1_ast_node.html" target="_top" xlink:title=" ">
<polygon fill="white" stroke="black" points="0,-110.5 0,-128.5 54.3545,-128.5 54.3545,-110.5 0,-110.5"/>
<text text-anchor="middle" x="27.1772" y="-116.5" font-family="Helvetica,sans-Serif" font-size="10.00">AstNode</text>
</a>
</g>
</g>
<!-- Node3&#45;&gt;Node2 -->
<g id="edge2" class="edge"><title>Node3&#45;&gt;Node2</title>
<path fill="none" stroke="midnightblue" d="M64.7275,-109.738C136.09,-94.6289 208.379,-81.2241 253.122,-73.1484"/>
<polygon fill="midnightblue" stroke="midnightblue" points="63.7185,-106.374 54.6671,-111.88 65.1769,-113.22 63.7185,-106.374"/>
</g>
<!-- Node4 -->
<g id="node4" class="node"><title>Node4</title>
<g id="a_node4"><a xlink:href="interfaceformat_1_1_x_formattable.html" target="_top" xlink:title="入れ子フォーマット出力可能なオブジェクトのインタフェース。">
<polygon fill="white" stroke="black" points="179.165,-165.5 179.165,-183.5 255.189,-183.5 255.189,-165.5 179.165,-165.5"/>
<text text-anchor="middle" x="217.177" y="-171.5" font-family="Helvetica,sans-Serif" font-size="10.00">XFormattable</text>
</a>
</g>
</g>
<!-- Node4&#45;&gt;Node3 -->
<g id="edge3" class="edge"><title>Node4&#45;&gt;Node3</title>
<path fill="none" stroke="midnightblue" d="M178.418,-162.688C141.531,-152.399 86.9683,-137.179 54.4533,-128.109"/>
<polygon fill="midnightblue" stroke="midnightblue" points="177.748,-166.135 188.32,-165.45 179.629,-159.392 177.748,-166.135"/>
</g>
<!-- Node5 -->
<g id="node5" class="node"><title>Node5</title>
<g id="a_node5"><a xlink:href="interfaceformat_1_1_x_formattable_1_1_navigatable.html" target="_top" xlink:title="木構造の分岐ノードとして清書可能なオブジェクトのクラス">
<polygon fill="white" stroke="black" points="72.3696,-110.5 72.3696,-128.5 203.985,-128.5 203.985,-110.5 72.3696,-110.5"/>
<text text-anchor="middle" x="138.177" y="-116.5" font-family="Helvetica,sans-Serif" font-size="10.00">XFormattable.Navigatable</text>
</a>
</g>
</g>
<!-- Node4&#45;&gt;Node5 -->
<g id="edge5" class="edge"><title>Node4&#45;&gt;Node5</title>
<path fill="none" stroke="midnightblue" d="M196.715,-159.772C181.991,-149.894 162.628,-136.904 150.289,-128.625"/>
<polygon fill="midnightblue" stroke="midnightblue" points="194.925,-162.786 205.179,-165.45 198.824,-156.973 194.925,-162.786"/>
</g>
<!-- Node6 -->
<g id="node6" class="node"><title>Node6</title>
<g id="a_node6"><a xlink:href="interfaceformat_1_1_x_formattable_1_1_typed_formattable.html" target="_top" xlink:title="ノードの型情報をもつ書式出力可能なオブジェクトのインタフェース．">
<polygon fill="white" stroke="black" points="388.476,-110.5 388.476,-128.5 547.879,-128.5 547.879,-110.5 388.476,-110.5"/>
<text text-anchor="middle" x="468.177" y="-116.5" font-family="Helvetica,sans-Serif" font-size="10.00">XFormattable.TypedFormattable</text>
</a>
</g>
</g>
<!-- Node4&#45;&gt;Node6 -->
<g id="edge7" class="edge"><title>Node4&#45;&gt;Node6</title>
<path fill="none" stroke="midnightblue" d="M265.14,-163.372C313.12,-153.241 385.96,-137.861 430.109,-128.538"/>
<polygon fill="midnightblue" stroke="midnightblue" points="264.36,-159.96 255.299,-165.45 265.806,-166.809 264.36,-159.96"/>
</g>
<!-- Node7 -->
<g id="node7" class="node"><title>Node7</title>
<g id="a_node7"><a xlink:href="interfaceformat_1_1_x_formattable_1_1_hgt_formattable.html" target="_top" xlink:title="ノードの高さ情報をもつ書式出力可能なオブジェクトのインタフェース．">
<polygon fill="white" stroke="black" points="222.318,-110.5 222.318,-128.5 370.037,-128.5 370.037,-110.5 222.318,-110.5"/>
<text text-anchor="middle" x="296.177" y="-116.5" font-family="Helvetica,sans-Serif" font-size="10.00">XFormattable.HgtFormattable</text>
</a>
</g>
</g>
<!-- Node4&#45;&gt;Node7 -->
<g id="edge9" class="edge"><title>Node4&#45;&gt;Node7</title>
<path fill="none" stroke="midnightblue" d="M237.64,-159.772C252.364,-149.894 271.727,-136.904 284.066,-128.625"/>
<polygon fill="midnightblue" stroke="midnightblue" points="235.53,-156.973 229.176,-165.45 239.43,-162.786 235.53,-156.973"/>
</g>
<!-- Node5&#45;&gt;Node2 -->
<g id="edge4" class="edge"><title>Node5&#45;&gt;Node2</title>
<path fill="none" stroke="midnightblue" d="M171.846,-107.206C201.999,-97.0914 245.47,-82.5095 272.214,-73.5383"/>
<polygon fill="midnightblue" stroke="midnightblue" points="170.542,-103.952 162.174,-110.45 172.768,-110.588 170.542,-103.952"/>
</g>
<!-- Node6&#45;&gt;Node1 -->
<g id="edge10" class="edge"><title>Node6&#45;&gt;Node1</title>
<path fill="none" stroke="midnightblue" d="M452.492,-103.375C428.482,-80.2222 383.433,-36.7823 364.693,-18.7118"/>
<polygon fill="midnightblue" stroke="midnightblue" points="450.131,-105.961 459.759,-110.382 454.99,-100.922 450.131,-105.961"/>
</g>
<!-- Node6&#45;&gt;Node2 -->
<g id="edge6" class="edge"><title>Node6&#45;&gt;Node2</title>
<path fill="none" stroke="midnightblue" d="M432.378,-107.469C399.525,-97.3454 351.631,-82.5875 322.264,-73.5383"/>
<polygon fill="midnightblue" stroke="midnightblue" points="431.467,-110.85 442.054,-110.45 433.528,-104.161 431.467,-110.85"/>
</g>
<!-- Node7&#45;&gt;Node2 -->
<g id="edge8" class="edge"><title>Node7&#45;&gt;Node2</title>
<path fill="none" stroke="midnightblue" d="M296.177,-100.175C296.177,-91.0945 296.177,-80.5949 296.177,-73.5496"/>
<polygon fill="midnightblue" stroke="midnightblue" points="292.677,-100.219 296.177,-110.219 299.677,-100.219 292.677,-100.219"/>
</g>
</g>
</svg>
