<?xml version="1.0" encoding="UTF-8" standalone="no"?>
<!DOCTYPE svg PUBLIC "-//W3C//DTD SVG 1.1//EN"
 "http://www.w3.org/Graphics/SVG/1.1/DTD/svg11.dtd">
<!-- Generated by graphviz version 2.47.1 (20210417.1919)
 -->
<!-- Title: Path Pages: 1 -->
<!--zoomable 570 -->
<svg id="main" version="1.1" xmlns="http://www.w3.org/2000/svg" xmlns:xlink="http://www.w3.org/1999/xlink" xml:space="preserve" onload="init(evt)">
<style type="text/css"><![CDATA[
.edge:hover path { stroke: red; }
.edge:hover polygon { stroke: red; fill: red; }
]]></style>
<script type="text/javascript"><![CDATA[
var edges = document.getElementsByTagName('g');
if (edges && edges.length) {
  for (var i=0;i<edges.length;i++) {
    if (edges[i].id.substr(0,4)=='edge') {
      edges[i].setAttribute('class','edge');
    }
  }
}
]]></script>
        <defs>
                <circle id="rim" cx="0" cy="0" r="7"/>
                <circle id="rim2" cx="0" cy="0" r="3.5"/>
                <g id="zoomPlus">
                        <use xlink:href="#rim" fill="#404040">
                                <set attributeName="fill" to="#808080" begin="zoomplus.mouseover" end="zoomplus.mouseout"/>
                        </use>
                        <path d="M-4,0h8M0,-4v8" fill="none" stroke="white" stroke-width="1.5" pointer-events="none"/>
                </g>
                <g id="zoomMin">
                        <use xlink:href="#rim" fill="#404040">
                                <set attributeName="fill" to="#808080" begin="zoomminus.mouseover" end="zoomminus.mouseout"/>
                        </use>
                        <path d="M-4,0h8" fill="none" stroke="white" stroke-width="1.5" pointer-events="none"/>
                </g>
                <g id="dirArrow">
                        <path fill="none" stroke="white" stroke-width="1.5" d="M0,-3.0v7 M-2.5,-0.5L0,-3.0L2.5,-0.5"/>
                </g>
               <g id="resetDef">
                       <use xlink:href="#rim2" fill="#404040">
                               <set attributeName="fill" to="#808080" begin="reset.mouseover" end="reset.mouseout"/>
                       </use>
               </g>
        </defs>

<script type="text/javascript">
var viewWidth = 702;
var viewHeight = 570;
var sectionId = 'dynsection-1';
</script>
<script xlink:href="svgpan.js"/>
<svg id="graph" class="graph">
<g id="viewport">
<title>Path</title>
<polygon fill="white" stroke="transparent" points="-4,4 -4,-565.9 698,-565.9 698,4 -4,4"/>
<!-- Node1 -->
<g id="node1" class="node">
<title>Node1</title>
<g id="a_node1"><a xlink:title=" ">
<polygon fill="#bfbfbf" stroke="black" points="657,-112.5 657,-131.5 694,-131.5 694,-112.5 657,-112.5"/>
<text text-anchor="middle" x="675.5" y="-119.5" font-family="Helvetica,sans-Serif" font-size="10.00">Path</text>
</a>
</g>
</g>
<!-- Node2 -->
<g id="node2" class="node">
<title>Node2</title>
<g id="a_node2"><a xlink:href="classast_1_1_ast_node.html" target="_top" xlink:title="タグなしの順アクセスの子供をもてる抽象構文木のノードのクラス。">
<polygon fill="white" stroke="black" points="526,-134.5 526,-153.5 581,-153.5 581,-134.5 526,-134.5"/>
<text text-anchor="middle" x="553.5" y="-141.5" font-family="Helvetica,sans-Serif" font-size="10.00">AstNode</text>
</a>
</g>
</g>
<!-- Node2&#45;&gt;Node1 -->
<g id="edge1" class="edge">
<title>Node2&#45;&gt;Node1</title>
<path fill="none" stroke="midnightblue" d="M586.86,-132C609.3,-126.69 638.36,-121.74 656.72,-120.3"/>
<polygon fill="midnightblue" stroke="midnightblue" points="585.92,-128.63 577.07,-134.45 587.62,-135.42 585.92,-128.63"/>
</g>
<!-- Node2&#45;&gt;Node1 -->
<g id="edge22" class="edge">
<title>Node2&#45;&gt;Node1</title>
<path fill="none" stroke="midnightblue" d="M591.07,-143.56C612.9,-140.5 639.63,-135.16 656.85,-130.18"/>
<polygon fill="midnightblue" stroke="midnightblue" points="590.61,-140.1 581.13,-144.84 591.5,-147.04 590.61,-140.1"/>
</g>
<!-- Node3 -->
<g id="node3" class="node">
<title>Node3</title>
<g id="a_node3"><a xlink:href="classast_1_1_ast_node_base.html" target="_top" xlink:title=" ">
<polygon fill="white" stroke="black" points="273.5,-208.5 273.5,-227.5 350.5,-227.5 350.5,-208.5 273.5,-208.5"/>
<text text-anchor="middle" x="312" y="-215.5" font-family="Helvetica,sans-Serif" font-size="10.00">AstNodeBase</text>
</a>
</g>
</g>
<!-- Node3&#45;&gt;Node2 -->
<g id="edge2" class="edge">
<title>Node3&#45;&gt;Node2</title>
<path fill="none" stroke="midnightblue" d="M353.49,-205.49C402.6,-190.32 484,-165.16 525.85,-152.23"/>
<polygon fill="midnightblue" stroke="midnightblue" points="352.34,-202.18 343.82,-208.48 354.41,-208.87 352.34,-202.18"/>
</g>
<!-- Node4 -->
<g id="node4" class="node">
<title>Node4</title>
<g id="a_node4"><a xlink:title=" ">
<polygon fill="white" stroke="#bfbfbf" points="16.5,-445.5 16.5,-464.5 58.5,-464.5 58.5,-445.5 16.5,-445.5"/>
<text text-anchor="middle" x="37.5" y="-452.5" font-family="Helvetica,sans-Serif" font-size="10.00">String</text>
</a>
</g>
</g>
<!-- Node4&#45;&gt;Node1 -->
<g id="edge24" class="edge">
<title>Node4&#45;&gt;Node1</title>
<path fill="none" stroke="#9a32cd" stroke-dasharray="5,2" d="M44.02,-474.17C51.33,-495.57 66.5,-529.15 93,-544 140.69,-570.72 165.07,-563.87 216,-544 447.3,-453.76 632.38,-186.16 668.21,-131.73"/>
<polygon fill="#9a32cd" stroke="#9a32cd" points="47.32,-473 40.97,-464.51 40.65,-475.1 47.32,-473"/>
<text text-anchor="middle" x="446" y="-461" font-family="Helvetica,sans-Serif" font-size="10.00"> CHLD_DELIM</text>
<text text-anchor="middle" x="446" y="-450" font-family="Helvetica,sans-Serif" font-size="10.00">DESC_DELIM</text>
<text text-anchor="middle" x="446" y="-439" font-family="Helvetica,sans-Serif" font-size="10.00">NONE_DELIM</text>
<text text-anchor="middle" x="446" y="-428" font-family="Helvetica,sans-Serif" font-size="10.00">PATH_DELIM</text>
</g>
<!-- Node4&#45;&gt;Node3 -->
<g id="edge3" class="edge">
<title>Node4&#45;&gt;Node3</title>
<path fill="none" stroke="#9a32cd" stroke-dasharray="5,2" d="M53.74,-438.13C63.93,-427.79 78.15,-415.03 93,-407 142.89,-380.01 175.55,-412.76 216,-373 236.16,-353.19 220.78,-336.99 234,-312 252.25,-277.5 284.34,-243.78 300.73,-227.72"/>
<polygon fill="#9a32cd" stroke="#9a32cd" points="51.13,-435.79 46.79,-445.46 56.21,-440.61 51.13,-435.79"/>
<text text-anchor="middle" x="154.5" y="-421" font-family="Helvetica,sans-Serif" font-size="10.00"> MOD_AST</text>
<text text-anchor="middle" x="154.5" y="-410" font-family="Helvetica,sans-Serif" font-size="10.00">mod_</text>
</g>
<!-- Node16 -->
<g id="node16" class="node">
<title>Node16</title>
<g id="a_node16"><a xlink:href="classformat_1_1_style.html" target="_top" xlink:title="ノードの表示スタイルに関するプロパティのクラス.">
<polygon fill="white" stroke="black" points="292.5,-321.5 292.5,-340.5 331.5,-340.5 331.5,-321.5 292.5,-321.5"/>
<text text-anchor="middle" x="312" y="-328.5" font-family="Helvetica,sans-Serif" font-size="10.00">Style</text>
</a>
</g>
</g>
<!-- Node4&#45;&gt;Node16 -->
<g id="edge18" class="edge">
<title>Node4&#45;&gt;Node16</title>
<path fill="none" stroke="#9a32cd" stroke-dasharray="5,2" d="M68.78,-453.73C112.54,-451.49 190.96,-445.78 216,-433 258.89,-411.1 292.5,-361.61 305.35,-340.66"/>
<polygon fill="#9a32cd" stroke="#9a32cd" points="68.53,-450.24 58.71,-454.22 68.87,-457.23 68.53,-450.24"/>
<text text-anchor="middle" x="154.5" y="-532" font-family="Helvetica,sans-Serif" font-size="10.00"> childLPAD</text>
<text text-anchor="middle" x="154.5" y="-521" font-family="Helvetica,sans-Serif" font-size="10.00">childRPAD</text>
<text text-anchor="middle" x="154.5" y="-510" font-family="Helvetica,sans-Serif" font-size="10.00">name</text>
<text text-anchor="middle" x="154.5" y="-499" font-family="Helvetica,sans-Serif" font-size="10.00">operSTR</text>
<text text-anchor="middle" x="154.5" y="-488" font-family="Helvetica,sans-Serif" font-size="10.00">parenLPAD</text>
<text text-anchor="middle" x="154.5" y="-477" font-family="Helvetica,sans-Serif" font-size="10.00">parenLPAR</text>
<text text-anchor="middle" x="154.5" y="-466" font-family="Helvetica,sans-Serif" font-size="10.00">parenRPAD</text>
<text text-anchor="middle" x="154.5" y="-455" font-family="Helvetica,sans-Serif" font-size="10.00">parenRPAR</text>
</g>
<!-- Node5 -->
<g id="node5" class="node">
<title>Node5</title>
<g id="a_node5"><a xlink:title=" ">
<polygon fill="white" stroke="#bfbfbf" points="5,-212.5 5,-231.5 70,-231.5 70,-212.5 5,-212.5"/>
<text text-anchor="middle" x="37.5" y="-219.5" font-family="Helvetica,sans-Serif" font-size="10.00">TraceLevel</text>
</a>
</g>
</g>
<!-- Node5&#45;&gt;Node3 -->
<g id="edge4" class="edge">
<title>Node5&#45;&gt;Node3</title>
<path fill="none" stroke="#9a32cd" stroke-dasharray="5,2" d="M80.19,-219.49C84.51,-219.29 88.84,-219.12 93,-219 156.18,-217.12 229.7,-217.27 273.18,-217.6"/>
<polygon fill="#9a32cd" stroke="#9a32cd" points="80,-215.99 70.19,-219.99 80.35,-222.99 80,-215.99"/>
<text text-anchor="middle" x="154.5" y="-222" font-family="Helvetica,sans-Serif" font-size="10.00"> LOG</text>
</g>
<!-- Node6 -->
<g id="node6" class="node">
<title>Node6</title>
<g id="a_node6"><a xlink:title=" ">
<polygon fill="white" stroke="#bfbfbf" points="1,-174.5 1,-193.5 74,-193.5 74,-174.5 1,-174.5"/>
<text text-anchor="middle" x="37.5" y="-181.5" font-family="Helvetica,sans-Serif" font-size="10.00">static Report</text>
</a>
</g>
</g>
<!-- Node6&#45;&gt;Node3 -->
<g id="edge5" class="edge">
<title>Node6&#45;&gt;Node3</title>
<path fill="none" stroke="#9a32cd" stroke-dasharray="5,2" d="M84.44,-187.82C120.34,-191.01 171.44,-195.99 216,-202 234.9,-204.55 255.8,-208 273.18,-211.04"/>
<polygon fill="#9a32cd" stroke="#9a32cd" points="84.55,-184.32 74.28,-186.93 83.94,-191.29 84.55,-184.32"/>
<text text-anchor="middle" x="154.5" y="-205" font-family="Helvetica,sans-Serif" font-size="10.00"> repo</text>
</g>
<!-- Node7 -->
<g id="node7" class="node">
<title>Node7</title>
<g id="a_node7"><a xlink:title=" ">
<polygon fill="white" stroke="#bfbfbf" points="23,-344.5 23,-363.5 52,-363.5 52,-344.5 23,-344.5"/>
<text text-anchor="middle" x="37.5" y="-351.5" font-family="Helvetica,sans-Serif" font-size="10.00">int</text>
</a>
</g>
</g>
<!-- Node7&#45;&gt;Node3 -->
<g id="edge6" class="edge">
<title>Node7&#45;&gt;Node3</title>
<path fill="none" stroke="#9a32cd" stroke-dasharray="5,2" d="M61.24,-341.32C70.79,-336.49 82.18,-331.34 93,-328 145.86,-311.7 166.4,-333.49 216,-309 255.93,-289.29 290.15,-246.81 304.19,-227.68"/>
<polygon fill="#9a32cd" stroke="#9a32cd" points="59.61,-338.23 52.38,-345.98 62.86,-344.42 59.61,-338.23"/>
<text text-anchor="middle" x="154.5" y="-342" font-family="Helvetica,sans-Serif" font-size="10.00"> BITMASK_PRINT_WIDTH</text>
<text text-anchor="middle" x="154.5" y="-331" font-family="Helvetica,sans-Serif" font-size="10.00">UNDEF</text>
</g>
<!-- Node7&#45;&gt;Node16 -->
<g id="edge19" class="edge">
<title>Node7&#45;&gt;Node16</title>
<path fill="none" stroke="#9a32cd" stroke-dasharray="5,2" d="M62.79,-355.81C97.08,-357.96 161.57,-360.5 216,-354 242.96,-350.78 273.33,-342.6 292.32,-336.92"/>
<polygon fill="#9a32cd" stroke="#9a32cd" points="62.59,-352.29 52.38,-355.11 62.12,-359.28 62.59,-352.29"/>
<text text-anchor="middle" x="154.5" y="-361" font-family="Helvetica,sans-Serif" font-size="10.00"> pref</text>
</g>
<!-- Node8 -->
<g id="node8" class="node">
<title>Node8</title>
<g id="a_node8"><a xlink:href="interfacetype_1_1_typable.html" target="_top" xlink:title="抽象ノードがもつ関数型のインタフェース">
<polygon fill="white" stroke="black" points="12.5,-136.5 12.5,-155.5 62.5,-155.5 62.5,-136.5 12.5,-136.5"/>
<text text-anchor="middle" x="37.5" y="-143.5" font-family="Helvetica,sans-Serif" font-size="10.00">Typable</text>
</a>
</g>
</g>
<!-- Node8&#45;&gt;Node3 -->
<g id="edge7" class="edge">
<title>Node8&#45;&gt;Node3</title>
<path fill="none" stroke="#9a32cd" stroke-dasharray="5,2" d="M72.57,-148.22C108.8,-151.27 167.44,-158.15 216,-173 219.88,-174.19 264.29,-195.48 291,-208.34"/>
<polygon fill="#9a32cd" stroke="#9a32cd" points="72.78,-144.73 62.53,-147.43 72.23,-151.71 72.78,-144.73"/>
<text text-anchor="middle" x="154.5" y="-176" font-family="Helvetica,sans-Serif" font-size="10.00"> typing</text>
</g>
<!-- Node9 -->
<g id="node9" class="node">
<title>Node9</title>
<g id="a_node9"><a xlink:title=" ">
<polygon fill="white" stroke="#bfbfbf" points="12.5,-263.5 12.5,-282.5 62.5,-282.5 62.5,-263.5 12.5,-263.5"/>
<text text-anchor="middle" x="37.5" y="-270.5" font-family="Helvetica,sans-Serif" font-size="10.00">boolean</text>
</a>
</g>
</g>
<!-- Node9&#45;&gt;Node3 -->
<g id="edge8" class="edge">
<title>Node9&#45;&gt;Node3</title>
<path fill="none" stroke="#9a32cd" stroke-dasharray="5,2" d="M70.96,-259.93C78.13,-257.37 85.76,-254.89 93,-253 126.29,-244.31 220.07,-230.6 273.15,-223.18"/>
<polygon fill="#9a32cd" stroke="#9a32cd" points="69.68,-256.67 61.52,-263.43 72.12,-263.23 69.68,-256.67"/>
<text text-anchor="middle" x="154.5" y="-256" font-family="Helvetica,sans-Serif" font-size="10.00"> DEBUG_REPO</text>
</g>
<!-- Node9&#45;&gt;Node16 -->
<g id="edge20" class="edge">
<title>Node9&#45;&gt;Node16</title>
<path fill="none" stroke="#9a32cd" stroke-dasharray="5,2" d="M72.82,-272.14C109.01,-272.06 167.42,-274.27 216,-287 245.19,-294.65 276.47,-310.88 294.85,-321.34"/>
<polygon fill="#9a32cd" stroke="#9a32cd" points="72.75,-268.64 62.78,-272.23 72.81,-275.64 72.75,-268.64"/>
<text text-anchor="middle" x="154.5" y="-301" font-family="Helvetica,sans-Serif" font-size="10.00"> preoperSupress</text>
<text text-anchor="middle" x="154.5" y="-290" font-family="Helvetica,sans-Serif" font-size="10.00">toInline</text>
</g>
<!-- Node10 -->
<g id="node10" class="node">
<title>Node10</title>
<g id="a_node10"><a xlink:href="interfaceast_1_1_node.html" target="_top" xlink:title=" ">
<polygon fill="white" stroke="black" points="292,-76.5 292,-95.5 332,-95.5 332,-76.5 292,-76.5"/>
<text text-anchor="middle" x="312" y="-83.5" font-family="Helvetica,sans-Serif" font-size="10.00">Node</text>
</a>
</g>
</g>
<!-- Node10&#45;&gt;Node2 -->
<g id="edge9" class="edge">
<title>Node10&#45;&gt;Node2</title>
<path fill="none" stroke="midnightblue" d="M342.01,-93.02C388.81,-104.36 480.33,-126.52 525.69,-137.51"/>
<polygon fill="midnightblue" stroke="midnightblue" points="342.74,-89.6 332.19,-90.65 341.09,-96.4 342.74,-89.6"/>
</g>
<!-- Node11 -->
<g id="node11" class="node">
<title>Node11</title>
<g id="a_node11"><a xlink:href="interfaceformat_1_1_x_formattable.html" target="_top" xlink:title="入れ子フォーマット出力可能なオブジェクトのインタフェース。">
<polygon fill="white" stroke="black" points="0,-82.5 0,-101.5 75,-101.5 75,-82.5 0,-82.5"/>
<text text-anchor="middle" x="37.5" y="-89.5" font-family="Helvetica,sans-Serif" font-size="10.00">XFormattable</text>
</a>
</g>
</g>
<!-- Node11&#45;&gt;Node10 -->
<g id="edge10" class="edge">
<title>Node11&#45;&gt;Node10</title>
<path fill="none" stroke="midnightblue" d="M85.31,-81.93C87.9,-81.57 90.48,-81.25 93,-81 166.27,-73.68 254.04,-80.37 291.99,-84.01"/>
<polygon fill="midnightblue" stroke="midnightblue" points="84.61,-78.5 75.29,-83.54 85.72,-85.41 84.61,-78.5"/>
</g>
<!-- Node12 -->
<g id="node12" class="node">
<title>Node12</title>
<g id="a_node12"><a xlink:href="interfaceformat_1_1_x_formattable_1_1_navigatable.html" target="_top" xlink:title="木構造の分岐ノードとして清書可能なオブジェクトのクラス">
<polygon fill="white" stroke="black" points="247,-152.5 247,-171.5 377,-171.5 377,-152.5 247,-152.5"/>
<text text-anchor="middle" x="312" y="-159.5" font-family="Helvetica,sans-Serif" font-size="10.00">XFormattable.Navigatable</text>
</a>
</g>
</g>
<!-- Node11&#45;&gt;Node12 -->
<g id="edge12" class="edge">
<title>Node11&#45;&gt;Node12</title>
<path fill="none" stroke="midnightblue" d="M85.33,-101.84C135.84,-112.52 209.92,-128.42 216,-131 224.85,-134.76 225.2,-139.12 234,-143 242.57,-146.77 252.02,-149.88 261.28,-152.42"/>
<polygon fill="midnightblue" stroke="midnightblue" points="85.76,-98.35 75.25,-99.71 84.31,-105.2 85.76,-98.35"/>
</g>
<!-- Node13 -->
<g id="node13" class="node">
<title>Node13</title>
<g id="a_node13"><a xlink:href="interfaceformat_1_1_x_formattable_1_1_typed_formattable.html" target="_top" xlink:title="ノードの型情報をもつ書式出力可能なオブジェクトのインタフェース．">
<polygon fill="white" stroke="black" points="234,-114.5 234,-133.5 390,-133.5 390,-114.5 234,-114.5"/>
<text text-anchor="middle" x="312" y="-121.5" font-family="Helvetica,sans-Serif" font-size="10.00">XFormattable.TypedFormattable</text>
</a>
</g>
</g>
<!-- Node11&#45;&gt;Node13 -->
<g id="edge14" class="edge">
<title>Node11&#45;&gt;Node13</title>
<path fill="none" stroke="midnightblue" d="M85.51,-94.31C121.37,-96.42 171.94,-100.11 216,-106 232.47,-108.2 250.41,-111.39 266.22,-114.48"/>
<polygon fill="midnightblue" stroke="midnightblue" points="85.52,-90.81 75.34,-93.74 85.12,-97.8 85.52,-90.81"/>
</g>
<!-- Node12&#45;&gt;Node2 -->
<g id="edge11" class="edge">
<title>Node12&#45;&gt;Node2</title>
<path fill="none" stroke="midnightblue" d="M387.36,-156.41C434.48,-152.87 492.6,-148.5 525.82,-146"/>
<polygon fill="midnightblue" stroke="midnightblue" points="386.89,-152.94 377.18,-157.18 387.42,-159.92 386.89,-152.94"/>
</g>
<!-- Node13&#45;&gt;Node2 -->
<g id="edge13" class="edge">
<title>Node13&#45;&gt;Node2</title>
<path fill="none" stroke="midnightblue" d="M400.07,-131.27C444.56,-134.99 495.57,-139.25 525.86,-141.78"/>
<polygon fill="midnightblue" stroke="midnightblue" points="400.35,-127.78 390.1,-130.44 399.77,-134.76 400.35,-127.78"/>
</g>
<!-- Node14 -->
<g id="node14" class="node">
<title>Node14</title>
<g id="a_node14"><a xlink:title=" ">
<polygon fill="white" stroke="#bfbfbf" points="267,-38.5 267,-57.5 357,-57.5 357,-38.5 267,-38.5"/>
<text text-anchor="middle" x="312" y="-45.5" font-family="Helvetica,sans-Serif" font-size="10.00">List&lt; ast.Node &gt;</text>
</a>
</g>
</g>
<!-- Node14&#45;&gt;Node2 -->
<g id="edge15" class="edge">
<title>Node14&#45;&gt;Node2</title>
<path fill="none" stroke="#9a32cd" stroke-dasharray="5,2" d="M367.33,-52.66C403.23,-58 449.79,-69.45 484,-94 495.42,-102.19 491.29,-110.9 502,-120 508.95,-125.91 517.61,-130.71 525.78,-134.43"/>
<polygon fill="#9a32cd" stroke="#9a32cd" points="367.42,-49.14 357.04,-51.25 366.47,-56.08 367.42,-49.14"/>
<text text-anchor="middle" x="446" y="-97" font-family="Helvetica,sans-Serif" font-size="10.00"> children</text>
</g>
<!-- Node15 -->
<g id="node15" class="node">
<title>Node15</title>
<g id="a_node15"><a xlink:title=" ">
<polygon fill="white" stroke="#bfbfbf" points="286,-0.5 286,-19.5 338,-19.5 338,-0.5 286,-0.5"/>
<text text-anchor="middle" x="312" y="-7.5" font-family="Helvetica,sans-Serif" font-size="10.00">Boolean</text>
</a>
</g>
</g>
<!-- Node15&#45;&gt;Node2 -->
<g id="edge16" class="edge">
<title>Node15&#45;&gt;Node2</title>
<path fill="none" stroke="#9a32cd" stroke-dasharray="5,2" d="M348.52,-7.21C387.08,-6.25 447.96,-11.06 484,-46 508.3,-69.56 480.64,-93.74 502,-120 508.13,-127.53 517.17,-132.84 525.92,-136.51"/>
<polygon fill="#9a32cd" stroke="#9a32cd" points="348.13,-3.73 338.28,-7.62 348.41,-10.72 348.13,-3.73"/>
<text text-anchor="middle" x="446" y="-49" font-family="Helvetica,sans-Serif" font-size="10.00"> DEBUG_CHILD</text>
</g>
<!-- Node16&#45;&gt;Node2 -->
<g id="edge17" class="edge">
<title>Node16&#45;&gt;Node2</title>
<path fill="none" stroke="#9a32cd" stroke-dasharray="5,2" d="M333.34,-315.12C381.56,-277.47 501.68,-183.68 540.32,-153.51"/>
<polygon fill="#9a32cd" stroke="#9a32cd" points="330.93,-312.56 325.21,-321.47 335.24,-318.07 330.93,-312.56"/>
<text text-anchor="middle" x="446" y="-257" font-family="Helvetica,sans-Serif" font-size="10.00"> sty</text>
</g>
<!-- Node17 -->
<g id="node17" class="node">
<title>Node17</title>
<g id="a_node17"><a xlink:title=" ">
<polygon fill="white" stroke="#bfbfbf" points="502,-91.5 502,-110.5 605,-110.5 605,-91.5 502,-91.5"/>
<text text-anchor="middle" x="553.5" y="-98.5" font-family="Helvetica,sans-Serif" font-size="10.00">CustomFormattable</text>
</a>
</g>
</g>
<!-- Node17&#45;&gt;Node1 -->
<g id="edge21" class="edge">
<title>Node17&#45;&gt;Node1</title>
<path fill="none" stroke="midnightblue" d="M615.06,-104.85C630.37,-107.54 645.62,-110.81 656.84,-113.96"/>
<polygon fill="midnightblue" stroke="midnightblue" points="615.48,-101.37 605.04,-103.17 614.33,-108.27 615.48,-101.37"/>
</g>
<!-- Node17&#45;&gt;Node1 -->
<g id="edge23" class="edge">
<title>Node17&#45;&gt;Node1</title>
<path fill="none" stroke="midnightblue" d="M587.44,-112.86C609.87,-117.95 638.7,-122.61 656.89,-123.86"/>
<polygon fill="midnightblue" stroke="midnightblue" points="588.18,-109.44 577.64,-110.51 586.54,-116.25 588.18,-109.44"/>
</g>
<!-- Node18 -->
<g id="node18" class="node">
<title>Node18</title>
<g id="a_node18"><a xlink:title=" ">
<polygon fill="white" stroke="#bfbfbf" points="504.5,-53.5 504.5,-72.5 602.5,-72.5 602.5,-53.5 504.5,-53.5"/>
<text text-anchor="middle" x="553.5" y="-60.5" font-family="Helvetica,sans-Serif" font-size="10.00">List&lt; ast.AstTag &gt;</text>
</a>
</g>
</g>
<!-- Node18&#45;&gt;Node1 -->
<g id="edge25" class="edge">
<title>Node18&#45;&gt;Node1</title>
<path fill="none" stroke="#9a32cd" stroke-dasharray="5,2" d="M591.85,-76.16C606.9,-82.04 624.17,-89.56 639,-98 646.63,-102.34 654.77,-107.78 661.33,-112.38"/>
<polygon fill="#9a32cd" stroke="#9a32cd" points="592.92,-72.82 582.33,-72.53 590.43,-79.36 592.92,-72.82"/>
<text text-anchor="middle" x="631" y="-101" font-family="Helvetica,sans-Serif" font-size="10.00"> list</text>
</g>
</g>
</svg>
        <g id="navigator" transform="translate(0 0)" fill="#404254">
                <rect fill="#f2f5e9" fill-opacity="0.5" stroke="#606060" stroke-width=".5" x="0" y="0" width="60" height="60"/>
                <use id="zoomplus" xlink:href="#zoomPlus" x="17" y="9" onmousedown="handleZoom(evt,'in')"/>
                <use id="zoomminus" xlink:href="#zoomMin" x="42" y="9" onmousedown="handleZoom(evt,'out')"/>
                <use id="reset" xlink:href="#resetDef" x="30" y="36" onmousedown="handleReset()"/>
                <g id="arrowUp" xlink:href="#dirArrow" transform="translate(30 24)" onmousedown="handlePan(0,-1)">
                  <use xlink:href="#rim" fill="#404040">
                        <set attributeName="fill" to="#808080" begin="arrowUp.mouseover" end="arrowUp.mouseout"/>
                  </use>
                  <path fill="none" stroke="white" stroke-width="1.5" d="M0,-3.0v7 M-2.5,-0.5L0,-3.0L2.5,-0.5"/>
                </g>
                <g id="arrowRight" xlink:href="#dirArrow" transform="rotate(90) translate(36 -43)" onmousedown="handlePan(1,0)">
                  <use xlink:href="#rim" fill="#404040">
                        <set attributeName="fill" to="#808080" begin="arrowRight.mouseover" end="arrowRight.mouseout"/>
                  </use>
                  <path fill="none" stroke="white" stroke-width="1.5" d="M0,-3.0v7 M-2.5,-0.5L0,-3.0L2.5,-0.5"/>
                </g>
                <g id="arrowDown" xlink:href="#dirArrow" transform="rotate(180) translate(-30 -48)" onmousedown="handlePan(0,1)">
                  <use xlink:href="#rim" fill="#404040">
                        <set attributeName="fill" to="#808080" begin="arrowDown.mouseover" end="arrowDown.mouseout"/>
                  </use>
                  <path fill="none" stroke="white" stroke-width="1.5" d="M0,-3.0v7 M-2.5,-0.5L0,-3.0L2.5,-0.5"/>
                </g>
                <g id="arrowLeft" xlink:href="#dirArrow" transform="rotate(270) translate(-36 17)" onmousedown="handlePan(-1,0)">
                  <use xlink:href="#rim" fill="#404040">
                        <set attributeName="fill" to="#808080" begin="arrowLeft.mouseover" end="arrowLeft.mouseout"/>
                  </use>
                  <path fill="none" stroke="white" stroke-width="1.5" d="M0,-3.0v7 M-2.5,-0.5L0,-3.0L2.5,-0.5"/>
                </g>
        </g>
        <svg viewBox="0 0 15 15" width="100%" height="30px" preserveAspectRatio="xMaxYMin meet">
         <g id="arrow_out" transform="scale(0.3 0.3)">
          <a xlink:href="classast_1_1_path__coll__graph_org.svg" target="_base">
           <rect id="button" ry="5" rx="5" y="6" x="6" height="38" width="38"
                fill="#f2f5e9" fill-opacity="0.5" stroke="#606060" stroke-width="1.0"/>
           <path id="arrow"
             d="M 11.500037,31.436501 C 11.940474,20.09759 22.043105,11.32322 32.158766,21.979434 L 37.068811,17.246167 C 37.068811,17.246167 37.088388,32 37.088388,32 L 22.160133,31.978069 C 22.160133,31.978069 26.997745,27.140456 26.997745,27.140456 C 18.528582,18.264221 13.291696,25.230495 11.500037,31.436501 z"
             style="fill:#404040;"/>
          </a>
         </g>
        </svg>
</svg>
