<?xml version="1.0" encoding="UTF-8" standalone="no"?>
<!DOCTYPE svg PUBLIC "-//W3C//DTD SVG 1.1//EN"
 "http://www.w3.org/Graphics/SVG/1.1/DTD/svg11.dtd">
<!-- Generated by graphviz version 2.47.0 (20210316.0004)
 -->
<!-- Title: TypedFormattable Pages: 1 -->
<svg width="407pt" height="161pt"
 viewBox="0.00 0.00 407.00 161.00" xmlns="http://www.w3.org/2000/svg" xmlns:xlink="http://www.w3.org/1999/xlink">
<g id="graph0" class="graph" transform="scale(1 1) rotate(0) translate(4 157)">
<title>TypedFormattable</title>
<polygon fill="white" stroke="transparent" points="-4,4 -4,-157 403,-157 403,4 -4,4"/>
<!-- Node1 -->
<g id="node1" class="node">
<title>Node1</title>
<g id="a_node1"><a xlink:title=" ">
<polygon fill="#bfbfbf" stroke="black" points="0,-76.5 0,-95.5 95,-95.5 95,-76.5 0,-76.5"/>
<text text-anchor="middle" x="47.5" y="-83.5" font-family="Helvetica,sans-Serif" font-size="10.00">TypedFormattable</text>
</a>
</g>
</g>
<!-- Node2 -->
<g id="node2" class="node">
<title>Node2</title>
<g id="a_node2"><a xlink:href="$classast_1_1_ast_atom_1_1_boolean_literal.html" xlink:title="Boolean値アトム">
<polygon fill="white" stroke="black" points="131,-133.5 131,-152.5 250,-152.5 250,-133.5 131,-133.5"/>
<text text-anchor="middle" x="190.5" y="-140.5" font-family="Helvetica,sans-Serif" font-size="10.00">AstAtom.BooleanLiteral</text>
</a>
</g>
</g>
<!-- Node1&#45;&gt;Node2 -->
<g id="edge1" class="edge">
<title>Node1&#45;&gt;Node2</title>
<path fill="none" stroke="midnightblue" d="M76.76,-100.02C92.53,-107.58 112.64,-116.82 131,-124 139.55,-127.35 148.96,-130.59 157.68,-133.42"/>
<polygon fill="midnightblue" stroke="midnightblue" points="78.08,-96.77 67.56,-95.56 75.03,-103.07 78.08,-96.77"/>
</g>
<!-- Node3 -->
<g id="node3" class="node">
<title>Node3</title>
<g id="a_node3"><a xlink:href="$classast_1_1_ast_atom_1_1_double_literal.html" xlink:title="Double値アトム">
<polygon fill="white" stroke="black" points="133,-95.5 133,-114.5 248,-114.5 248,-95.5 133,-95.5"/>
<text text-anchor="middle" x="190.5" y="-102.5" font-family="Helvetica,sans-Serif" font-size="10.00">AstAtom.DoubleLiteral</text>
</a>
</g>
</g>
<!-- Node1&#45;&gt;Node3 -->
<g id="edge2" class="edge">
<title>Node1&#45;&gt;Node3</title>
<path fill="none" stroke="midnightblue" d="M105.2,-93.64C114.34,-94.87 123.79,-96.15 132.92,-97.38"/>
<polygon fill="midnightblue" stroke="midnightblue" points="105.44,-90.14 95.06,-92.27 104.5,-97.08 105.44,-90.14"/>
</g>
<!-- Node4 -->
<g id="node4" class="node">
<title>Node4</title>
<g id="a_node4"><a xlink:href="$classast_1_1_ast_atom_1_1_integer_literal.html" xlink:title="Integer値アトム">
<polygon fill="white" stroke="black" points="133.5,-57.5 133.5,-76.5 247.5,-76.5 247.5,-57.5 133.5,-57.5"/>
<text text-anchor="middle" x="190.5" y="-64.5" font-family="Helvetica,sans-Serif" font-size="10.00">AstAtom.IntegerLiteral</text>
</a>
</g>
</g>
<!-- Node1&#45;&gt;Node4 -->
<g id="edge3" class="edge">
<title>Node1&#45;&gt;Node4</title>
<path fill="none" stroke="midnightblue" d="M104.97,-78.39C114.26,-77.14 123.89,-75.84 133.17,-74.59"/>
<polygon fill="midnightblue" stroke="midnightblue" points="104.5,-74.92 95.06,-79.73 105.44,-81.86 104.5,-74.92"/>
</g>
<!-- Node5 -->
<g id="node5" class="node">
<title>Node5</title>
<g id="a_node5"><a xlink:href="$classast_1_1_ast_atom_1_1_string_expr.html" xlink:title="String値アトム">
<polygon fill="white" stroke="black" points="138.5,-19.5 138.5,-38.5 242.5,-38.5 242.5,-19.5 138.5,-19.5"/>
<text text-anchor="middle" x="190.5" y="-26.5" font-family="Helvetica,sans-Serif" font-size="10.00">AstAtom.StringExpr</text>
</a>
</g>
</g>
<!-- Node1&#45;&gt;Node5 -->
<g id="edge4" class="edge">
<title>Node1&#45;&gt;Node5</title>
<path fill="none" stroke="midnightblue" d="M76.76,-71.98C92.53,-64.42 112.64,-55.18 131,-48 139.55,-44.65 148.96,-41.41 157.68,-38.58"/>
<polygon fill="midnightblue" stroke="midnightblue" points="75.03,-68.93 67.56,-76.44 78.08,-75.23 75.03,-68.93"/>
</g>
<!-- Node6 -->
<g id="node6" class="node">
<title>Node6</title>
<g id="a_node6"><a xlink:href="$classast_1_1_ast_atom_1_1_regex_literal.html" xlink:title=" ">
<polygon fill="white" stroke="black" points="286,-38.5 286,-57.5 399,-57.5 399,-38.5 286,-38.5"/>
<text text-anchor="middle" x="342.5" y="-45.5" font-family="Helvetica,sans-Serif" font-size="10.00">AstAtom.RegexLiteral</text>
</a>
</g>
</g>
<!-- Node5&#45;&gt;Node6 -->
<g id="edge5" class="edge">
<title>Node5&#45;&gt;Node6</title>
<path fill="none" stroke="midnightblue" d="M252.66,-36.75C263.66,-38.14 275.08,-39.59 285.91,-40.96"/>
<polygon fill="midnightblue" stroke="midnightblue" points="253.06,-33.27 242.7,-35.49 252.18,-40.21 253.06,-33.27"/>
</g>
<!-- Node7 -->
<g id="node7" class="node">
<title>Node7</title>
<g id="a_node7"><a xlink:href="$classast_1_1_ast_atom_1_1_string_literal.html" xlink:title=" ">
<polygon fill="white" stroke="black" points="287.5,-0.5 287.5,-19.5 397.5,-19.5 397.5,-0.5 287.5,-0.5"/>
<text text-anchor="middle" x="342.5" y="-7.5" font-family="Helvetica,sans-Serif" font-size="10.00">AstAtom.StringLiteral</text>
</a>
</g>
</g>
<!-- Node5&#45;&gt;Node7 -->
<g id="edge6" class="edge">
<title>Node5&#45;&gt;Node7</title>
<path fill="none" stroke="midnightblue" d="M252.68,-21.25C264.2,-19.79 276.17,-18.27 287.46,-16.85"/>
<polygon fill="midnightblue" stroke="midnightblue" points="252.18,-17.79 242.7,-22.51 253.06,-24.73 252.18,-17.79"/>
</g>
</g>
</svg>
