<?xml version="1.0" encoding="UTF-8" standalone="no"?>
<!DOCTYPE svg PUBLIC "-//W3C//DTD SVG 1.1//EN"
 "http://www.w3.org/Graphics/SVG/1.1/DTD/svg11.dtd">
<!-- Generated by graphviz version 2.38.0 (20140413.2041)
 -->
<!-- Title: recFlat Pages: 1 -->
<svg width="205pt" height="64pt"
 viewBox="0.00 0.00 204.93 64.00" xmlns="http://www.w3.org/2000/svg" xmlns:xlink="http://www.w3.org/1999/xlink">
<g id="graph0" class="graph" transform="scale(1 1) rotate(0) translate(4 60)">
<title>recFlat</title>
<polygon fill="white" stroke="none" points="-4,4 -4,-60 200.926,-60 200.926,4 -4,4"/>
<!-- Node1 -->
<g id="node1" class="node"><title>Node1</title>
<g id="a_node1"><a xlink:title="与えられた抽象構文木（AST）を正規形の抽象構文木に変換する.">
<polygon fill="#bfbfbf" stroke="black" points="0,-18.5 0,-36.5 46.5615,-36.5 46.5615,-18.5 0,-18.5"/>
<text text-anchor="middle" x="23.2808" y="-24.5" font-family="Helvetica,sans-Serif" font-size="10.00">recFlat</text>
</a>
</g>
</g>
<!-- Node2 -->
<g id="node2" class="node"><title>Node2</title>
<g id="a_node2"><a xlink:href="classutil_1_1_util.html#ae411a90dd0a4a15776ea6eb5f0cbae13" target="_top" xlink:title="与えられた文字列を標準出力に印刷して、プログラムを強制停止する。">
<polygon fill="white" stroke="black" points="96.4604,-37.5 96.4604,-55.5 183.027,-55.5 183.027,-37.5 96.4604,-37.5"/>
<text text-anchor="middle" x="139.744" y="-43.5" font-family="Helvetica,sans-Serif" font-size="10.00">util.Util.errorExit</text>
</a>
</g>
</g>
<!-- Node1&#45;&gt;Node2 -->
<g id="edge1" class="edge"><title>Node1&#45;&gt;Node2</title>
<path fill="none" stroke="midnightblue" d="M46.6221,-31.2085C57.9303,-33.0856 72.1774,-35.4505 86.0646,-37.7557"/>
<polygon fill="midnightblue" stroke="midnightblue" points="85.6278,-41.231 96.066,-39.4158 86.7741,-34.3255 85.6278,-41.231"/>
</g>
<!-- Node3 -->
<g id="node3" class="node"><title>Node3</title>
<g id="a_node3"><a xlink:href="classutil_1_1_util.html#adfc0c73538373de5bf51415db06e5aed" target="_top" xlink:title="出力ルーチンであり、引数のオブジェクトobjのクラス名を表す文字列を返す。">
<polygon fill="white" stroke="black" points="82.5615,-0.5 82.5615,-18.5 196.926,-18.5 196.926,-0.5 82.5615,-0.5"/>
<text text-anchor="middle" x="139.744" y="-6.5" font-family="Helvetica,sans-Serif" font-size="10.00">util.Util.getClassName</text>
</a>
</g>
</g>
<!-- Node1&#45;&gt;Node3 -->
<g id="edge2" class="edge"><title>Node1&#45;&gt;Node3</title>
<path fill="none" stroke="midnightblue" d="M46.6221,-23.9867C54.1711,-22.7996 63.0297,-21.4065 72.2167,-19.9618"/>
<polygon fill="midnightblue" stroke="midnightblue" points="72.9332,-23.3922 82.268,-18.3811 71.8457,-16.4772 72.9332,-23.3922"/>
</g>
</g>
</svg>
