<?xml version="1.0" encoding="UTF-8" standalone="no"?>
<!DOCTYPE svg PUBLIC "-//W3C//DTD SVG 1.1//EN"
 "http://www.w3.org/Graphics/SVG/1.1/DTD/svg11.dtd">
<!-- Generated by graphviz version 2.38.0 (20140413.2041)
 -->
<!-- Title: getNativeType Pages: 1 -->
<svg width="749pt" height="27pt"
 viewBox="0.00 0.00 748.93 27.00" xmlns="http://www.w3.org/2000/svg" xmlns:xlink="http://www.w3.org/1999/xlink">
<g id="graph0" class="graph" transform="scale(1 1) rotate(0) translate(4 23)">
<title>getNativeType</title>
<polygon fill="white" stroke="none" points="-4,4 -4,-23 744.929,-23 744.929,4 -4,4"/>
<!-- Node1 -->
<g id="node1" class="node"><title>Node1</title>
<g id="a_node1"><a xlink:title="ノードのもつ元のデータ値型を返す。">
<polygon fill="#bfbfbf" stroke="black" points="660.998,-0.5 660.998,-18.5 740.929,-18.5 740.929,-0.5 660.998,-0.5"/>
<text text-anchor="middle" x="700.963" y="-6.5" font-family="Helvetica,sans-Serif" font-size="10.00">getNativeType</text>
</a>
</g>
</g>
<!-- Node2 -->
<g id="node2" class="node"><title>Node2</title>
<g id="a_node2"><a xlink:href="classcompile_1_1_x_c_adapt.html#aaf7cbbcf8e05830556c8c2640a472359" target="_top" xlink:title="文脈ステップparStepのもとで与えられたクエリを変換したクエリを返す．">
<polygon fill="white" stroke="black" points="488.935,-0.5 488.935,-18.5 624.998,-18.5 624.998,-0.5 488.935,-0.5"/>
<text text-anchor="middle" x="556.966" y="-6.5" font-family="Helvetica,sans-Serif" font-size="10.00">compile.XCAdapt.recAdapt</text>
</a>
</g>
</g>
<!-- Node1&#45;&gt;Node2 -->
<g id="edge1" class="edge"><title>Node1&#45;&gt;Node2</title>
<path fill="none" stroke="midnightblue" d="M650.609,-9.5C642.363,-9.5 633.686,-9.5 625.085,-9.5"/>
<polygon fill="midnightblue" stroke="midnightblue" points="650.786,-13.0001 660.786,-9.5 650.786,-6.0001 650.786,-13.0001"/>
</g>
<!-- Node3 -->
<g id="node3" class="node"><title>Node3</title>
<g id="a_node3"><a xlink:href="classcompile_1_1_x_c_adapt.html#a7008ca6da6e82508a93bc2d77e72d968" target="_top" xlink:title="クエリのコード生成を行う．">
<polygon fill="white" stroke="black" points="318.526,-0.5 318.526,-18.5 452.935,-18.5 452.935,-0.5 318.526,-0.5"/>
<text text-anchor="middle" x="385.73" y="-6.5" font-family="Helvetica,sans-Serif" font-size="10.00">compile.XCAdapt.adapting</text>
</a>
</g>
</g>
<!-- Node2&#45;&gt;Node3 -->
<g id="edge2" class="edge"><title>Node2&#45;&gt;Node3</title>
<path fill="none" stroke="midnightblue" d="M478.35,-9.5C469.894,-9.5 461.345,-9.5 453.043,-9.5"/>
<polygon fill="midnightblue" stroke="midnightblue" points="478.594,-13.0001 488.594,-9.5 478.594,-6.0001 478.594,-13.0001"/>
</g>
<!-- Node4 -->
<g id="node4" class="node"><title>Node4</title>
<g id="a_node4"><a xlink:href="classcompile_1_1_x_compiler.html#a9a5b5de067fc28642be5e1f787527c21" target="_top" xlink:title="入力ストリーム{is}から与えられたクエリをプログラムにコンパイルする.">
<polygon fill="white" stroke="black" points="145.921,-0.5 145.921,-18.5 282.526,-18.5 282.526,-0.5 145.921,-0.5"/>
<text text-anchor="middle" x="214.224" y="-6.5" font-family="Helvetica,sans-Serif" font-size="10.00">compile.XCompiler.compile</text>
</a>
</g>
</g>
<!-- Node3&#45;&gt;Node4 -->
<g id="edge3" class="edge"><title>Node3&#45;&gt;Node4</title>
<path fill="none" stroke="midnightblue" d="M307.99,-9.5C299.538,-9.5 290.979,-9.5 282.653,-9.5"/>
<polygon fill="midnightblue" stroke="midnightblue" points="308.223,-13.0001 318.223,-9.5 308.223,-6.0001 308.223,-13.0001"/>
</g>
<!-- Node5 -->
<g id="node5" class="node"><title>Node5</title>
<g id="a_node5"><a xlink:href="classcompile_1_1_x_c_test.html#a8b260eecbaabcef8473fd87ada040682" target="_top" xlink:title="テスト用のサンプルプログラム。">
<polygon fill="white" stroke="black" points="0,-0.5 0,-18.5 109.921,-18.5 109.921,-0.5 0,-0.5"/>
<text text-anchor="middle" x="54.9604" y="-6.5" font-family="Helvetica,sans-Serif" font-size="10.00">compile.XCTest.main</text>
</a>
</g>
</g>
<!-- Node4&#45;&gt;Node5 -->
<g id="edge4" class="edge"><title>Node4&#45;&gt;Node5</title>
<path fill="none" stroke="midnightblue" d="M135.587,-9.5C127.015,-9.5 118.428,-9.5 110.233,-9.5"/>
<polygon fill="midnightblue" stroke="midnightblue" points="135.617,-13.0001 145.617,-9.5 135.617,-6.0001 135.617,-13.0001"/>
</g>
</g>
</svg>
