<?xml version="1.0" encoding="UTF-8" standalone="no"?>
<!DOCTYPE svg PUBLIC "-//W3C//DTD SVG 1.1//EN"
 "http://www.w3.org/Graphics/SVG/1.1/DTD/svg11.dtd">
<!-- Generated by graphviz version 2.47.1 (20210417.1919)
 -->
<!-- Title: getCalls Pages: 1 -->
<svg width="321pt" height="104pt"
 viewBox="0.00 0.00 321.00 104.00" xmlns="http://www.w3.org/2000/svg" xmlns:xlink="http://www.w3.org/1999/xlink">
<g id="graph0" class="graph" transform="scale(1 1) rotate(0) translate(4 100)">
<title>getCalls</title>
<polygon fill="white" stroke="transparent" points="-4,4 -4,-100 317,-100 317,4 -4,4"/>
<!-- Node1 -->
<g id="node1" class="node">
<title>Node1</title>
<g id="a_node1"><a xlink:title="呼び出しリストを返す．">
<polygon fill="#bfbfbf" stroke="black" points="260,-38.5 260,-57.5 313,-57.5 313,-38.5 260,-38.5"/>
<text text-anchor="middle" x="286.5" y="-45.5" font-family="Helvetica,sans-Serif" font-size="10.00">getCalls</text>
</a>
</g>
</g>
<!-- Node2 -->
<g id="node2" class="node">
<title>Node2</title>
<g id="a_node2"><a xlink:href="classast_1_1_block_base.html#a47cf57ec96efe77123f112236a16bd25" target="_top" xlink:title="ビットマスクchildbitsを返す.">
<polygon fill="white" stroke="black" points="139.5,-76.5 139.5,-95.5 210.5,-95.5 210.5,-76.5 139.5,-76.5"/>
<text text-anchor="middle" x="175" y="-83.5" font-family="Helvetica,sans-Serif" font-size="10.00">getCallMask</text>
</a>
</g>
</g>
<!-- Node1&#45;&gt;Node2 -->
<g id="edge1" class="edge">
<title>Node1&#45;&gt;Node2</title>
<path fill="none" stroke="midnightblue" d="M250.25,-60.23C235.08,-65.5 217.61,-71.56 203.43,-76.48"/>
<polygon fill="midnightblue" stroke="midnightblue" points="251.53,-63.49 259.83,-56.91 249.23,-56.88 251.53,-63.49"/>
</g>
<!-- Node3 -->
<g id="node3" class="node">
<title>Node3</title>
<g id="a_node3"><a xlink:href="classast_1_1_step.html#a76f0e577c1ccab0026ada08ac4256887" target="_top" xlink:title="実行ルールの文字列表現を返す．">
<polygon fill="white" stroke="black" points="136.5,-38.5 136.5,-57.5 213.5,-57.5 213.5,-38.5 136.5,-38.5"/>
<text text-anchor="middle" x="175" y="-45.5" font-family="Helvetica,sans-Serif" font-size="10.00">ast.Step.toStr</text>
</a>
</g>
</g>
<!-- Node1&#45;&gt;Node3 -->
<g id="edge2" class="edge">
<title>Node1&#45;&gt;Node3</title>
<path fill="none" stroke="midnightblue" d="M249.64,-48C238.07,-48 225.23,-48 213.55,-48"/>
<polygon fill="midnightblue" stroke="midnightblue" points="249.83,-51.5 259.83,-48 249.83,-44.5 249.83,-51.5"/>
</g>
<!-- Node5 -->
<g id="node5" class="node">
<title>Node5</title>
<g id="a_node5"><a xlink:href="classast_1_1_step_rule.html#a76f0e577c1ccab0026ada08ac4256887" target="_top" xlink:title="実行ルールの文字列表現を返す．">
<polygon fill="white" stroke="black" points="126,-0.5 126,-19.5 224,-19.5 224,-0.5 126,-0.5"/>
<text text-anchor="middle" x="175" y="-7.5" font-family="Helvetica,sans-Serif" font-size="10.00">ast.StepRule.toStr</text>
</a>
</g>
</g>
<!-- Node1&#45;&gt;Node5 -->
<g id="edge4" class="edge">
<title>Node1&#45;&gt;Node5</title>
<path fill="none" stroke="midnightblue" d="M250.25,-35.77C235.08,-30.5 217.61,-24.44 203.43,-19.52"/>
<polygon fill="midnightblue" stroke="midnightblue" points="249.23,-39.12 259.83,-39.09 251.53,-32.51 249.23,-39.12"/>
</g>
<!-- Node4 -->
<g id="node4" class="node">
<title>Node4</title>
<g id="a_node4"><a xlink:href="classast_1_1_step.html#ad146fa8579a5f8a876c4688cc5a68520" target="_top" xlink:title="清書表現を返す.">
<polygon fill="white" stroke="black" points="0,-38.5 0,-57.5 90,-57.5 90,-38.5 0,-38.5"/>
<text text-anchor="middle" x="45" y="-45.5" font-family="Helvetica,sans-Serif" font-size="10.00">ast.Step.toString</text>
</a>
</g>
</g>
<!-- Node3&#45;&gt;Node4 -->
<g id="edge3" class="edge">
<title>Node3&#45;&gt;Node4</title>
<path fill="none" stroke="midnightblue" d="M126.17,-48C114.39,-48 101.82,-48 90.21,-48"/>
<polygon fill="midnightblue" stroke="midnightblue" points="126.29,-51.5 136.29,-48 126.29,-44.5 126.29,-51.5"/>
</g>
</g>
</svg>
