<?xml version="1.0" encoding="UTF-8" standalone="no"?>
<!DOCTYPE svg PUBLIC "-//W3C//DTD SVG 1.1//EN"
 "http://www.w3.org/Graphics/SVG/1.1/DTD/svg11.dtd">
<!-- Generated by graphviz version 2.47.1 (20210417.1919)
 -->
<!-- Title: XFormList Pages: 1 -->
<svg width="240pt" height="88pt"
 viewBox="0.00 0.00 240.00 88.00" xmlns="http://www.w3.org/2000/svg" xmlns:xlink="http://www.w3.org/1999/xlink">
<g id="graph0" class="graph" transform="scale(1 1) rotate(0) translate(4 84)">
<title>XFormList</title>
<polygon fill="white" stroke="transparent" points="-4,4 -4,-84 236,-84 236,4 -4,4"/>
<!-- Node1 -->
<g id="node1" class="node">
<title>Node1</title>
<g id="a_node1"><a xlink:title=" ">
<polygon fill="#bfbfbf" stroke="black" points="0,-30 0,-49 62,-49 62,-30 0,-30"/>
<text text-anchor="middle" x="31" y="-37" font-family="Helvetica,sans-Serif" font-size="10.00">XFormList</text>
</a>
</g>
</g>
<!-- Node2 -->
<g id="node2" class="node">
<title>Node2</title>
<g id="a_node2"><a xlink:title=" ">
<polygon fill="white" stroke="#bfbfbf" points="98,-49.5 98,-79.5 232,-79.5 232,-49.5 98,-49.5"/>
<text text-anchor="start" x="106" y="-67.5" font-family="Helvetica,sans-Serif" font-size="10.00">CommandList&lt; Command,</text>
<text text-anchor="middle" x="165" y="-56.5" font-family="Helvetica,sans-Serif" font-size="10.00"> CommandList &gt;</text>
</a>
</g>
</g>
<!-- Node1&#45;&gt;Node2 -->
<g id="edge1" class="edge">
<title>Node1&#45;&gt;Node2</title>
<path fill="none" stroke="midnightblue" d="M72.2,-47.11C80.32,-48.65 89.07,-50.31 97.82,-51.97"/>
<polygon fill="midnightblue" stroke="midnightblue" points="72.76,-43.66 62.28,-45.24 71.46,-50.54 72.76,-43.66"/>
</g>
<!-- Node3 -->
<g id="node3" class="node">
<title>Node3</title>
<g id="a_node3"><a xlink:title=" ">
<polygon fill="white" stroke="#bfbfbf" points="98,-0.5 98,-30.5 232,-30.5 232,-0.5 98,-0.5"/>
<text text-anchor="start" x="106" y="-18.5" font-family="Helvetica,sans-Serif" font-size="10.00">DataList&lt; AstDataWrapper</text>
<text text-anchor="middle" x="165" y="-7.5" font-family="Helvetica,sans-Serif" font-size="10.00">&lt; Integer &gt;, DataList &gt;</text>
</a>
</g>
</g>
<!-- Node1&#45;&gt;Node3 -->
<g id="edge2" class="edge">
<title>Node1&#45;&gt;Node3</title>
<path fill="none" stroke="midnightblue" d="M72.2,-32.19C80.32,-30.71 89.07,-29.12 97.82,-27.53"/>
<polygon fill="midnightblue" stroke="midnightblue" points="71.5,-28.76 62.28,-33.99 72.75,-35.65 71.5,-28.76"/>
</g>
</g>
</svg>
