<?xml version="1.0" encoding="UTF-8" standalone="no"?>
<!DOCTYPE svg PUBLIC "-//W3C//DTD SVG 1.1//EN"
 "http://www.w3.org/Graphics/SVG/1.1/DTD/svg11.dtd">
<!-- Generated by graphviz version 2.47.0 (20210316.0004)
 -->
<!-- Title: AstTemplate Pages: 1 -->
<svg width="947pt" height="645pt"
 viewBox="0.00 0.00 947.00 644.71" xmlns="http://www.w3.org/2000/svg" xmlns:xlink="http://www.w3.org/1999/xlink">
<g id="graph0" class="graph" transform="scale(1 1) rotate(0) translate(4 640.71)">
<title>AstTemplate</title>
<polygon fill="white" stroke="transparent" points="-4,4 -4,-640.71 943,-640.71 943,4 -4,4"/>
<!-- Node1 -->
<g id="node1" class="node">
<title>Node1</title>
<g id="a_node1"><a xlink:title=" ">
<polygon fill="#bfbfbf" stroke="black" points="868,-102.5 868,-121.5 939,-121.5 939,-102.5 868,-102.5"/>
<text text-anchor="middle" x="903.5" y="-109.5" font-family="Helvetica,sans-Serif" font-size="10.00">AstTemplate</text>
</a>
</g>
</g>
<!-- Node2 -->
<g id="node2" class="node">
<title>Node2</title>
<g id="a_node2"><a xlink:href="classast_1_1_ast_oper.html" target="_top" xlink:title=" ">
<polygon fill="white" stroke="black" points="742.5,-189.5 742.5,-208.5 795.5,-208.5 795.5,-189.5 742.5,-189.5"/>
<text text-anchor="middle" x="769" y="-196.5" font-family="Helvetica,sans-Serif" font-size="10.00">AstOper</text>
</a>
</g>
</g>
<!-- Node2&#45;&gt;Node1 -->
<g id="edge1" class="edge">
<title>Node2&#45;&gt;Node1</title>
<path fill="none" stroke="midnightblue" d="M798.81,-184.79C814.37,-176.71 833.69,-166.03 850,-155 865.23,-144.71 881.39,-130.99 891.7,-121.85"/>
<polygon fill="midnightblue" stroke="midnightblue" points="796.97,-181.8 789.66,-189.47 800.16,-188.03 796.97,-181.8"/>
</g>
<!-- Node3 -->
<g id="node3" class="node">
<title>Node3</title>
<g id="a_node3"><a xlink:href="classast_1_1_ast_node.html" target="_top" xlink:title="タグなしの順アクセスの子供をもてる抽象構文木のノードのクラス。">
<polygon fill="white" stroke="black" points="536,-211.5 536,-230.5 591,-230.5 591,-211.5 536,-211.5"/>
<text text-anchor="middle" x="563.5" y="-218.5" font-family="Helvetica,sans-Serif" font-size="10.00">AstNode</text>
</a>
</g>
</g>
<!-- Node3&#45;&gt;Node2 -->
<g id="edge2" class="edge">
<title>Node3&#45;&gt;Node2</title>
<path fill="none" stroke="midnightblue" d="M601.17,-217.04C641.92,-212.63 706.69,-205.63 742.35,-201.77"/>
<polygon fill="midnightblue" stroke="midnightblue" points="600.67,-213.57 591.1,-218.12 601.42,-220.53 600.67,-213.57"/>
</g>
<!-- Node4 -->
<g id="node4" class="node">
<title>Node4</title>
<g id="a_node4"><a xlink:href="classast_1_1_ast_node_base.html" target="_top" xlink:title=" ">
<polygon fill="white" stroke="black" points="273.5,-278.5 273.5,-297.5 350.5,-297.5 350.5,-278.5 273.5,-278.5"/>
<text text-anchor="middle" x="312" y="-285.5" font-family="Helvetica,sans-Serif" font-size="10.00">AstNodeBase</text>
</a>
</g>
</g>
<!-- Node4&#45;&gt;Node3 -->
<g id="edge3" class="edge">
<title>Node4&#45;&gt;Node3</title>
<path fill="none" stroke="midnightblue" d="M360.46,-278.25C394.96,-270.84 442.67,-259.91 484,-248 501.86,-242.85 521.66,-236.04 536.9,-230.54"/>
<polygon fill="midnightblue" stroke="midnightblue" points="359.69,-274.84 350.64,-280.34 361.15,-281.68 359.69,-274.84"/>
</g>
<!-- Node5 -->
<g id="node5" class="node">
<title>Node5</title>
<g id="a_node5"><a xlink:title=" ">
<polygon fill="white" stroke="#bfbfbf" points="16.5,-523.5 16.5,-542.5 58.5,-542.5 58.5,-523.5 16.5,-523.5"/>
<text text-anchor="middle" x="37.5" y="-530.5" font-family="Helvetica,sans-Serif" font-size="10.00">String</text>
</a>
</g>
</g>
<!-- Node5&#45;&gt;Node2 -->
<g id="edge24" class="edge">
<title>Node5&#45;&gt;Node2</title>
<path fill="none" stroke="#9a32cd" stroke-dasharray="5,2" d="M44.02,-552.17C51.33,-573.57 66.5,-607.15 93,-622 140.69,-648.72 162.2,-631.67 216,-622 406.86,-587.68 479.27,-597.95 625,-470 713.14,-392.61 755.54,-247.48 765.6,-208.72"/>
<polygon fill="#9a32cd" stroke="#9a32cd" points="47.32,-551 40.97,-542.51 40.65,-553.1 47.32,-551"/>
<text text-anchor="middle" x="446" y="-591" font-family="Helvetica,sans-Serif" font-size="10.00"> op</text>
</g>
<!-- Node5&#45;&gt;Node4 -->
<g id="edge4" class="edge">
<title>Node5&#45;&gt;Node4</title>
<path fill="none" stroke="#9a32cd" stroke-dasharray="5,2" d="M54.36,-516.21C64.62,-506.1 78.69,-493.57 93,-485 143.06,-454.99 177.52,-482.88 216,-439 239.46,-412.25 216.34,-391.89 234,-361 249.73,-333.5 279.08,-310 296.65,-297.54"/>
<polygon fill="#9a32cd" stroke="#9a32cd" points="51.84,-513.78 47.32,-523.36 56.83,-518.7 51.84,-513.78"/>
<text text-anchor="middle" x="154.5" y="-499" font-family="Helvetica,sans-Serif" font-size="10.00"> MOD_AST</text>
<text text-anchor="middle" x="154.5" y="-488" font-family="Helvetica,sans-Serif" font-size="10.00">mod_</text>
</g>
<!-- Node17 -->
<g id="node17" class="node">
<title>Node17</title>
<g id="a_node17"><a xlink:href="classformat_1_1_style.html" target="_top" xlink:title="ノードの表示スタイルに関するプロパティのクラス.">
<polygon fill="white" stroke="black" points="292.5,-370.5 292.5,-389.5 331.5,-389.5 331.5,-370.5 292.5,-370.5"/>
<text text-anchor="middle" x="312" y="-377.5" font-family="Helvetica,sans-Serif" font-size="10.00">Style</text>
</a>
</g>
</g>
<!-- Node5&#45;&gt;Node17 -->
<g id="edge19" class="edge">
<title>Node5&#45;&gt;Node17</title>
<path fill="none" stroke="#9a32cd" stroke-dasharray="5,2" d="M68.66,-532.14C112.63,-530.4 191.73,-525.33 216,-511 265.84,-481.58 296.98,-414.68 307.25,-389.67"/>
<polygon fill="#9a32cd" stroke="#9a32cd" points="68.42,-528.64 58.55,-532.5 68.67,-535.64 68.42,-528.64"/>
<text text-anchor="middle" x="154.5" y="-610" font-family="Helvetica,sans-Serif" font-size="10.00"> childLPAD</text>
<text text-anchor="middle" x="154.5" y="-599" font-family="Helvetica,sans-Serif" font-size="10.00">childRPAD</text>
<text text-anchor="middle" x="154.5" y="-588" font-family="Helvetica,sans-Serif" font-size="10.00">name</text>
<text text-anchor="middle" x="154.5" y="-577" font-family="Helvetica,sans-Serif" font-size="10.00">operSTR</text>
<text text-anchor="middle" x="154.5" y="-566" font-family="Helvetica,sans-Serif" font-size="10.00">parenLPAD</text>
<text text-anchor="middle" x="154.5" y="-555" font-family="Helvetica,sans-Serif" font-size="10.00">parenLPAR</text>
<text text-anchor="middle" x="154.5" y="-544" font-family="Helvetica,sans-Serif" font-size="10.00">parenRPAD</text>
<text text-anchor="middle" x="154.5" y="-533" font-family="Helvetica,sans-Serif" font-size="10.00">parenRPAR</text>
</g>
<!-- Node6 -->
<g id="node6" class="node">
<title>Node6</title>
<g id="a_node6"><a xlink:title=" ">
<polygon fill="white" stroke="#bfbfbf" points="5,-265.5 5,-284.5 70,-284.5 70,-265.5 5,-265.5"/>
<text text-anchor="middle" x="37.5" y="-272.5" font-family="Helvetica,sans-Serif" font-size="10.00">TraceLevel</text>
</a>
</g>
</g>
<!-- Node6&#45;&gt;Node4 -->
<g id="edge5" class="edge">
<title>Node6&#45;&gt;Node4</title>
<path fill="none" stroke="#9a32cd" stroke-dasharray="5,2" d="M80.19,-272.47C84.51,-272.28 88.84,-272.11 93,-272 147.65,-270.5 161.52,-267.44 216,-272 235,-273.59 255.92,-276.94 273.28,-280.16"/>
<polygon fill="#9a32cd" stroke="#9a32cd" points="80,-268.97 70.19,-272.96 80.35,-275.97 80,-268.97"/>
<text text-anchor="middle" x="154.5" y="-275" font-family="Helvetica,sans-Serif" font-size="10.00"> LOG</text>
</g>
<!-- Node7 -->
<g id="node7" class="node">
<title>Node7</title>
<g id="a_node7"><a xlink:title=" ">
<polygon fill="white" stroke="#bfbfbf" points="1,-227.5 1,-246.5 74,-246.5 74,-227.5 1,-227.5"/>
<text text-anchor="middle" x="37.5" y="-234.5" font-family="Helvetica,sans-Serif" font-size="10.00">static Report</text>
</a>
</g>
</g>
<!-- Node7&#45;&gt;Node4 -->
<g id="edge6" class="edge">
<title>Node7&#45;&gt;Node4</title>
<path fill="none" stroke="#9a32cd" stroke-dasharray="5,2" d="M84.8,-234.09C121.71,-233.48 174,-236.49 216,-254 225.61,-258.01 224.71,-264.3 234,-269 246.16,-275.15 260.43,-279.39 273.36,-282.27"/>
<polygon fill="#9a32cd" stroke="#9a32cd" points="84.24,-230.61 74.34,-234.37 84.43,-237.61 84.24,-230.61"/>
<text text-anchor="middle" x="154.5" y="-257" font-family="Helvetica,sans-Serif" font-size="10.00"> repo</text>
</g>
<!-- Node8 -->
<g id="node8" class="node">
<title>Node8</title>
<g id="a_node8"><a xlink:title=" ">
<polygon fill="white" stroke="#bfbfbf" points="23,-419.5 23,-438.5 52,-438.5 52,-419.5 23,-419.5"/>
<text text-anchor="middle" x="37.5" y="-426.5" font-family="Helvetica,sans-Serif" font-size="10.00">int</text>
</a>
</g>
</g>
<!-- Node8&#45;&gt;Node1 -->
<g id="edge28" class="edge">
<title>Node8&#45;&gt;Node1</title>
<path fill="none" stroke="#9a32cd" stroke-dasharray="5,2" d="M62.27,-433.94C71.79,-435.76 82.88,-437.7 93,-439 189.36,-451.34 213.85,-455 311,-455 311,-455 311,-455 770,-455 843.57,-455 892.08,-176.93 901.01,-121.53"/>
<polygon fill="#9a32cd" stroke="#9a32cd" points="62.81,-430.48 52.32,-431.96 61.45,-437.34 62.81,-430.48"/>
<text text-anchor="middle" x="563.5" y="-458" font-family="Helvetica,sans-Serif" font-size="10.00"> num</text>
</g>
<!-- Node8&#45;&gt;Node4 -->
<g id="edge7" class="edge">
<title>Node8&#45;&gt;Node4</title>
<path fill="none" stroke="#9a32cd" stroke-dasharray="5,2" d="M53.08,-411.91C63.17,-401.26 77.53,-388.24 93,-381 143.1,-357.56 165.21,-383.92 216,-362 252.09,-346.42 286.4,-313.82 302.09,-297.59"/>
<polygon fill="#9a32cd" stroke="#9a32cd" points="50.36,-409.7 46.25,-419.46 55.55,-414.4 50.36,-409.7"/>
<text text-anchor="middle" x="154.5" y="-395" font-family="Helvetica,sans-Serif" font-size="10.00"> BITMASK_PRINT_WIDTH</text>
<text text-anchor="middle" x="154.5" y="-384" font-family="Helvetica,sans-Serif" font-size="10.00">UNDEF</text>
</g>
<!-- Node8&#45;&gt;Node17 -->
<g id="edge20" class="edge">
<title>Node8&#45;&gt;Node17</title>
<path fill="none" stroke="#9a32cd" stroke-dasharray="5,2" d="M62.42,-427.21C96.69,-424.38 161.63,-418.03 216,-407 242.89,-401.55 273.27,-392.36 292.28,-386.24"/>
<polygon fill="#9a32cd" stroke="#9a32cd" points="62.12,-423.72 52.43,-428.01 62.67,-430.7 62.12,-423.72"/>
<text text-anchor="middle" x="154.5" y="-427" font-family="Helvetica,sans-Serif" font-size="10.00"> pref</text>
</g>
<!-- Node9 -->
<g id="node9" class="node">
<title>Node9</title>
<g id="a_node9"><a xlink:href="interfacetype_1_1_typable.html" target="_top" xlink:title="抽象ノードがもつ関数型のインタフェース">
<polygon fill="white" stroke="black" points="12.5,-189.5 12.5,-208.5 62.5,-208.5 62.5,-189.5 12.5,-189.5"/>
<text text-anchor="middle" x="37.5" y="-196.5" font-family="Helvetica,sans-Serif" font-size="10.00">Typable</text>
</a>
</g>
</g>
<!-- Node9&#45;&gt;Node4 -->
<g id="edge8" class="edge">
<title>Node9&#45;&gt;Node4</title>
<path fill="none" stroke="#9a32cd" stroke-dasharray="5,2" d="M73.02,-192.95C112,-188.17 175.3,-186.84 216,-219 234.53,-233.64 216.46,-253.19 234,-269 244.74,-278.68 259.62,-283.62 273.44,-286.07"/>
<polygon fill="#9a32cd" stroke="#9a32cd" points="72.14,-189.54 62.71,-194.37 73.09,-196.48 72.14,-189.54"/>
<text text-anchor="middle" x="154.5" y="-222" font-family="Helvetica,sans-Serif" font-size="10.00"> typing</text>
</g>
<!-- Node10 -->
<g id="node10" class="node">
<title>Node10</title>
<g id="a_node10"><a xlink:title=" ">
<polygon fill="white" stroke="#bfbfbf" points="12.5,-316.5 12.5,-335.5 62.5,-335.5 62.5,-316.5 12.5,-316.5"/>
<text text-anchor="middle" x="37.5" y="-323.5" font-family="Helvetica,sans-Serif" font-size="10.00">boolean</text>
</a>
</g>
</g>
<!-- Node10&#45;&gt;Node4 -->
<g id="edge9" class="edge">
<title>Node10&#45;&gt;Node4</title>
<path fill="none" stroke="#9a32cd" stroke-dasharray="5,2" d="M69.81,-312.88C77.29,-310.2 85.34,-307.69 93,-306 155.12,-292.3 229.28,-288.82 273.12,-288.05"/>
<polygon fill="#9a32cd" stroke="#9a32cd" points="68.49,-309.64 60.37,-316.44 70.96,-316.19 68.49,-309.64"/>
<text text-anchor="middle" x="154.5" y="-309" font-family="Helvetica,sans-Serif" font-size="10.00"> DEBUG_REPO</text>
</g>
<!-- Node10&#45;&gt;Node17 -->
<g id="edge21" class="edge">
<title>Node10&#45;&gt;Node17</title>
<path fill="none" stroke="#9a32cd" stroke-dasharray="5,2" d="M72.73,-325.49C108.85,-325.69 167.2,-328.13 216,-340 244,-346.81 274.35,-360.88 293.03,-370.38"/>
<polygon fill="#9a32cd" stroke="#9a32cd" points="72.71,-321.99 62.71,-325.49 72.71,-328.99 72.71,-321.99"/>
<text text-anchor="middle" x="154.5" y="-354" font-family="Helvetica,sans-Serif" font-size="10.00"> preoperSupress</text>
<text text-anchor="middle" x="154.5" y="-343" font-family="Helvetica,sans-Serif" font-size="10.00">toInline</text>
</g>
<!-- Node11 -->
<g id="node11" class="node">
<title>Node11</title>
<g id="a_node11"><a xlink:href="interfaceast_1_1_node.html" target="_top" xlink:title=" ">
<polygon fill="white" stroke="black" points="292,-164.5 292,-183.5 332,-183.5 332,-164.5 292,-164.5"/>
<text text-anchor="middle" x="312" y="-171.5" font-family="Helvetica,sans-Serif" font-size="10.00">Node</text>
</a>
</g>
</g>
<!-- Node11&#45;&gt;Node3 -->
<g id="edge10" class="edge">
<title>Node11&#45;&gt;Node3</title>
<path fill="none" stroke="midnightblue" d="M342.09,-179.48C390.95,-188.68 488.78,-207.11 535.91,-215.99"/>
<polygon fill="midnightblue" stroke="midnightblue" points="342.64,-176.02 332.16,-177.61 341.34,-182.9 342.64,-176.02"/>
</g>
<!-- Node12 -->
<g id="node12" class="node">
<title>Node12</title>
<g id="a_node12"><a xlink:href="interfaceformat_1_1_x_formattable.html" target="_top" xlink:title="入れ子フォーマット出力可能なオブジェクトのインタフェース。">
<polygon fill="white" stroke="black" points="0,-135.5 0,-154.5 75,-154.5 75,-135.5 0,-135.5"/>
<text text-anchor="middle" x="37.5" y="-142.5" font-family="Helvetica,sans-Serif" font-size="10.00">XFormattable</text>
</a>
</g>
</g>
<!-- Node12&#45;&gt;Node11 -->
<g id="edge11" class="edge">
<title>Node12&#45;&gt;Node11</title>
<path fill="none" stroke="midnightblue" d="M76.4,-132.63C113.7,-122.7 171.39,-113.48 216,-134 227.17,-139.14 223.53,-148.55 234,-155 251.7,-165.9 275.31,-170.55 291.7,-172.54"/>
<polygon fill="midnightblue" stroke="midnightblue" points="75.13,-129.35 66.44,-135.43 77.02,-136.09 75.13,-129.35"/>
</g>
<!-- Node13 -->
<g id="node13" class="node">
<title>Node13</title>
<g id="a_node13"><a xlink:href="interfaceformat_1_1_x_formattable_1_1_navigatable.html" target="_top" xlink:title="木構造の分岐ノードとして清書可能なオブジェクトのクラス">
<polygon fill="white" stroke="black" points="247,-240.5 247,-259.5 377,-259.5 377,-240.5 247,-240.5"/>
<text text-anchor="middle" x="312" y="-247.5" font-family="Helvetica,sans-Serif" font-size="10.00">XFormattable.Navigatable</text>
</a>
</g>
</g>
<!-- Node12&#45;&gt;Node13 -->
<g id="edge13" class="edge">
<title>Node12&#45;&gt;Node13</title>
<path fill="none" stroke="midnightblue" d="M84.96,-154.62C135.84,-165.32 210.95,-181.67 216,-186 232.35,-200.02 217.75,-216.86 234,-231 238.47,-234.89 243.6,-238 249.06,-240.5"/>
<polygon fill="midnightblue" stroke="midnightblue" points="85.64,-151.18 75.13,-152.56 84.2,-158.04 85.64,-151.18"/>
</g>
<!-- Node14 -->
<g id="node14" class="node">
<title>Node14</title>
<g id="a_node14"><a xlink:href="interfaceformat_1_1_x_formattable_1_1_typed_formattable.html" target="_top" xlink:title="ノードの型情報をもつ書式出力可能なオブジェクトのインタフェース．">
<polygon fill="white" stroke="black" points="234,-202.5 234,-221.5 390,-221.5 390,-202.5 234,-202.5"/>
<text text-anchor="middle" x="312" y="-209.5" font-family="Helvetica,sans-Serif" font-size="10.00">XFormattable.TypedFormattable</text>
</a>
</g>
</g>
<!-- Node12&#45;&gt;Node14 -->
<g id="edge15" class="edge">
<title>Node12&#45;&gt;Node14</title>
<path fill="none" stroke="midnightblue" d="M85.44,-137.04C123.7,-133.12 177.51,-133.71 216,-159 230.29,-168.39 220.52,-182.48 234,-193 238.99,-196.9 244.68,-200.01 250.64,-202.49"/>
<polygon fill="midnightblue" stroke="midnightblue" points="84.61,-133.61 75.08,-138.25 85.42,-140.56 84.61,-133.61"/>
</g>
<!-- Node13&#45;&gt;Node3 -->
<g id="edge12" class="edge">
<title>Node13&#45;&gt;Node3</title>
<path fill="none" stroke="midnightblue" d="M387.4,-241.35C437.48,-235.53 500.56,-228.2 535.7,-224.11"/>
<polygon fill="midnightblue" stroke="midnightblue" points="386.78,-237.9 377.25,-242.53 387.59,-244.85 386.78,-237.9"/>
</g>
<!-- Node14&#45;&gt;Node3 -->
<g id="edge14" class="edge">
<title>Node14&#45;&gt;Node3</title>
<path fill="none" stroke="midnightblue" d="M400.27,-215.15C447.94,-216.87 503.66,-218.88 535.83,-220.04"/>
<polygon fill="midnightblue" stroke="midnightblue" points="400.35,-211.65 390.23,-214.79 400.1,-218.64 400.35,-211.65"/>
</g>
<!-- Node15 -->
<g id="node15" class="node">
<title>Node15</title>
<g id="a_node15"><a xlink:title=" ">
<polygon fill="white" stroke="#bfbfbf" points="267,-126.5 267,-145.5 357,-145.5 357,-126.5 267,-126.5"/>
<text text-anchor="middle" x="312" y="-133.5" font-family="Helvetica,sans-Serif" font-size="10.00">List&lt; ast.Node &gt;</text>
</a>
</g>
</g>
<!-- Node15&#45;&gt;Node1 -->
<g id="edge26" class="edge">
<title>Node15&#45;&gt;Node1</title>
<path fill="none" stroke="#9a32cd" stroke-dasharray="5,2" d="M367.24,-138.39C464.44,-141.88 674.55,-145.78 850,-124 855.85,-123.27 861.99,-122.18 867.94,-120.94"/>
<polygon fill="#9a32cd" stroke="#9a32cd" points="367.2,-134.89 357.07,-138.02 366.93,-141.89 367.2,-134.89"/>
<text text-anchor="middle" x="678" y="-142" font-family="Helvetica,sans-Serif" font-size="10.00"> steps</text>
</g>
<!-- Node15&#45;&gt;Node3 -->
<g id="edge16" class="edge">
<title>Node15&#45;&gt;Node3</title>
<path fill="none" stroke="#9a32cd" stroke-dasharray="5,2" d="M367.54,-144.57C401.75,-150.96 446.34,-161.17 484,-176 507.97,-185.44 533.45,-201.25 548.66,-211.4"/>
<polygon fill="#9a32cd" stroke="#9a32cd" points="367.75,-141.05 357.28,-142.71 366.5,-147.94 367.75,-141.05"/>
<text text-anchor="middle" x="446" y="-179" font-family="Helvetica,sans-Serif" font-size="10.00"> children</text>
</g>
<!-- Node16 -->
<g id="node16" class="node">
<title>Node16</title>
<g id="a_node16"><a xlink:title=" ">
<polygon fill="white" stroke="#bfbfbf" points="286,-87.5 286,-106.5 338,-106.5 338,-87.5 286,-87.5"/>
<text text-anchor="middle" x="312" y="-94.5" font-family="Helvetica,sans-Serif" font-size="10.00">Boolean</text>
</a>
</g>
</g>
<!-- Node16&#45;&gt;Node1 -->
<g id="edge29" class="edge">
<title>Node16&#45;&gt;Node1</title>
<path fill="none" stroke="#9a32cd" stroke-dasharray="5,2" d="M348.43,-97.9C453.61,-100.58 763.25,-108.46 867.66,-111.11"/>
<polygon fill="#9a32cd" stroke="#9a32cd" points="348.42,-94.4 338.33,-97.64 348.24,-101.4 348.42,-94.4"/>
<text text-anchor="middle" x="678" y="-110" font-family="Helvetica,sans-Serif" font-size="10.00"> DEBUG_TRIM</text>
</g>
<!-- Node16&#45;&gt;Node3 -->
<g id="edge17" class="edge">
<title>Node16&#45;&gt;Node3</title>
<path fill="none" stroke="#9a32cd" stroke-dasharray="5,2" d="M348.22,-99.54C384.4,-103.45 441.3,-113.31 484,-138 516.79,-156.96 544.35,-193.83 556.23,-211.33"/>
<polygon fill="#9a32cd" stroke="#9a32cd" points="348.44,-96.05 338.14,-98.55 347.75,-103.01 348.44,-96.05"/>
<text text-anchor="middle" x="446" y="-141" font-family="Helvetica,sans-Serif" font-size="10.00"> DEBUG_CHILD</text>
</g>
<!-- Node17&#45;&gt;Node3 -->
<g id="edge18" class="edge">
<title>Node17&#45;&gt;Node3</title>
<path fill="none" stroke="#9a32cd" stroke-dasharray="5,2" d="M336.93,-364.75C387.84,-332.3 505.68,-257.21 547.47,-230.58"/>
<polygon fill="#9a32cd" stroke="#9a32cd" points="334.78,-361.97 328.23,-370.29 338.55,-367.87 334.78,-361.97"/>
<text text-anchor="middle" x="446" y="-322" font-family="Helvetica,sans-Serif" font-size="10.00"> sty</text>
</g>
<!-- Node18 -->
<g id="node18" class="node">
<title>Node18</title>
<g id="a_node18"><a xlink:href="interfacecmd_1_1_generatable_1_1_evaluatable.html" target="_top" xlink:title="評価して値を返すノードのインタフェース．必ずしもコードを生成しなくても良い．">
<polygon fill="white" stroke="black" points="502,-41.5 502,-60.5 625,-60.5 625,-41.5 502,-41.5"/>
<text text-anchor="middle" x="563.5" y="-48.5" font-family="Helvetica,sans-Serif" font-size="10.00">Generatable.Evaluatable</text>
</a>
</g>
</g>
<!-- Node18&#45;&gt;Node2 -->
<g id="edge22" class="edge">
<title>Node18&#45;&gt;Node2</title>
<path fill="none" stroke="midnightblue" d="M635.41,-44.68C662.02,-45.79 691.1,-51.57 713,-68 753.65,-98.49 764.49,-164.74 767.18,-189.45"/>
<polygon fill="midnightblue" stroke="midnightblue" points="635.42,-41.18 625.35,-44.47 635.27,-48.18 635.42,-41.18"/>
</g>
<!-- Node19 -->
<g id="node19" class="node">
<title>Node19</title>
<g id="a_node19"><a xlink:href="interfacecmd_1_1_generatable.html" target="_top" xlink:title="変換してコードを生成できるノードのインタフェース.">
<polygon fill="white" stroke="black" points="277.5,-41.5 277.5,-60.5 346.5,-60.5 346.5,-41.5 277.5,-41.5"/>
<text text-anchor="middle" x="312" y="-48.5" font-family="Helvetica,sans-Serif" font-size="10.00">Generatable</text>
</a>
</g>
</g>
<!-- Node19&#45;&gt;Node18 -->
<g id="edge23" class="edge">
<title>Node19&#45;&gt;Node18</title>
<path fill="none" stroke="midnightblue" d="M356.67,-51C396.84,-51 456.81,-51 501.67,-51"/>
<polygon fill="midnightblue" stroke="midnightblue" points="356.65,-47.5 346.65,-51 356.65,-54.5 356.65,-47.5"/>
</g>
<!-- Node20 -->
<g id="node20" class="node">
<title>Node20</title>
<g id="a_node20"><a xlink:title=" ">
<polygon fill="white" stroke="#bfbfbf" points="731,-41.5 731,-60.5 807,-60.5 807,-41.5 731,-41.5"/>
<text text-anchor="middle" x="769" y="-48.5" font-family="Helvetica,sans-Serif" font-size="10.00">List&lt; String &gt;</text>
</a>
</g>
</g>
<!-- Node20&#45;&gt;Node1 -->
<g id="edge25" class="edge">
<title>Node20&#45;&gt;Node1</title>
<path fill="none" stroke="#9a32cd" stroke-dasharray="5,2" d="M817.24,-54.06C828.36,-56.02 839.92,-59.12 850,-64 868.9,-73.15 885.85,-91.31 895.1,-102.49"/>
<polygon fill="#9a32cd" stroke="#9a32cd" points="817.59,-50.57 807.19,-52.56 816.56,-57.5 817.59,-50.57"/>
<text text-anchor="middle" x="837.5" y="-67" font-family="Helvetica,sans-Serif" font-size="10.00"> texts</text>
</g>
<!-- Node21 -->
<g id="node21" class="node">
<title>Node21</title>
<g id="a_node21"><a xlink:title=" ">
<polygon fill="white" stroke="#bfbfbf" points="751.5,-0.5 751.5,-19.5 786.5,-19.5 786.5,-0.5 751.5,-0.5"/>
<text text-anchor="middle" x="769" y="-7.5" font-family="Helvetica,sans-Serif" font-size="10.00">char</text>
</a>
</g>
</g>
<!-- Node21&#45;&gt;Node1 -->
<g id="edge27" class="edge">
<title>Node21&#45;&gt;Node1</title>
<path fill="none" stroke="#9a32cd" stroke-dasharray="5,2" d="M796.68,-11.68C813.32,-13.87 834.46,-18.83 850,-30 876.22,-48.84 892.54,-85.21 899.14,-102.47"/>
<polygon fill="#9a32cd" stroke="#9a32cd" points="796.81,-8.18 786.5,-10.61 796.08,-15.14 796.81,-8.18"/>
<text text-anchor="middle" x="837.5" y="-44" font-family="Helvetica,sans-Serif" font-size="10.00"> DQ</text>
<text text-anchor="middle" x="837.5" y="-33" font-family="Helvetica,sans-Serif" font-size="10.00">SQ</text>
</g>
</g>
</svg>
