<?xml version="1.0" encoding="UTF-8" standalone="no"?>
<!DOCTYPE svg PUBLIC "-//W3C//DTD SVG 1.1//EN"
 "http://www.w3.org/Graphics/SVG/1.1/DTD/svg11.dtd">
<!-- Generated by graphviz version 2.47.0 (20210316.0004)
 -->
<!-- Title: AstParser Pages: 1 -->
<svg width="1334pt" height="1233pt"
 viewBox="0.00 0.00 1334.00 1233.00" xmlns="http://www.w3.org/2000/svg" xmlns:xlink="http://www.w3.org/1999/xlink">
<g id="graph0" class="graph" transform="scale(1 1) rotate(0) translate(4 1229)">
<title>AstParser</title>
<polygon fill="white" stroke="transparent" points="-4,4 -4,-1229 1330,-1229 1330,4 -4,4"/>
<!-- Node1 -->
<g id="node1" class="node">
<title>Node1</title>
<g id="a_node1"><a xlink:title=" ">
<polygon fill="#bfbfbf" stroke="black" points="1266,-894.5 1266,-913.5 1326,-913.5 1326,-894.5 1266,-894.5"/>
<text text-anchor="middle" x="1296" y="-901.5" font-family="Helvetica,sans-Serif" font-size="10.00">AstParser</text>
</a>
</g>
</g>
<!-- Node2 -->
<g id="node2" class="node">
<title>Node2</title>
<g id="a_node2"><a xlink:href="interfaceparse_1_1_parsable.html" target="_top" xlink:title=" ">
<polygon fill="white" stroke="black" points="1102.5,-1205.5 1102.5,-1224.5 1157.5,-1224.5 1157.5,-1205.5 1102.5,-1205.5"/>
<text text-anchor="middle" x="1130" y="-1212.5" font-family="Helvetica,sans-Serif" font-size="10.00">Parsable</text>
</a>
</g>
</g>
<!-- Node2&#45;&gt;Node1 -->
<g id="edge1" class="edge">
<title>Node2&#45;&gt;Node1</title>
<path fill="none" stroke="midnightblue" d="M1168.11,-1217.24C1194.11,-1216.67 1227.72,-1211.27 1248,-1190 1287.06,-1149.03 1293.77,-959.15 1294.82,-913.76"/>
<polygon fill="midnightblue" stroke="midnightblue" points="1167.85,-1213.74 1157.84,-1217.23 1167.84,-1220.74 1167.85,-1213.74"/>
</g>
<!-- Node3 -->
<g id="node3" class="node">
<title>Node3</title>
<g id="a_node3"><a xlink:title=" ">
<polygon fill="white" stroke="#bfbfbf" points="1090,-1167.5 1090,-1186.5 1170,-1186.5 1170,-1167.5 1090,-1167.5"/>
<text text-anchor="middle" x="1130" y="-1174.5" font-family="Helvetica,sans-Serif" font-size="10.00">CommandLine</text>
</a>
</g>
</g>
<!-- Node3&#45;&gt;Node1 -->
<g id="edge2" class="edge">
<title>Node3&#45;&gt;Node1</title>
<path fill="none" stroke="#9a32cd" stroke-dasharray="5,2" d="M1180.33,-1178.88C1203.85,-1177.09 1230.58,-1170.7 1248,-1153 1282.41,-1118.04 1292.54,-955.05 1294.57,-913.6"/>
<polygon fill="#9a32cd" stroke="#9a32cd" points="1179.95,-1175.39 1170.14,-1179.39 1180.31,-1182.39 1179.95,-1175.39"/>
<text text-anchor="middle" x="1225" y="-1178" font-family="Helvetica,sans-Serif" font-size="10.00"> cmd</text>
</g>
<!-- Node4 -->
<g id="node4" class="node">
<title>Node4</title>
<g id="a_node4"><a xlink:href="classparse_1_1_p_node_printer.html" target="_top" xlink:title=" ">
<polygon fill="white" stroke="black" points="318.5,-1029.5 318.5,-1048.5 393.5,-1048.5 393.5,-1029.5 318.5,-1029.5"/>
<text text-anchor="middle" x="356" y="-1036.5" font-family="Helvetica,sans-Serif" font-size="10.00">PNodePrinter</text>
</a>
</g>
</g>
<!-- Node4&#45;&gt;Node1 -->
<g id="edge3" class="edge">
<title>Node4&#45;&gt;Node1</title>
<path fill="none" stroke="#9a32cd" stroke-dasharray="5,2" d="M403.77,-1039C457.43,-1039 548.07,-1039 626,-1039 626,-1039 626,-1039 1131,-1039 1186.71,-1039 1206.42,-1031.09 1248,-994 1273.39,-971.35 1287.21,-931.7 1292.47,-913.55"/>
<polygon fill="#9a32cd" stroke="#9a32cd" points="403.55,-1035.5 393.55,-1039 403.55,-1042.5 403.55,-1035.5"/>
<text text-anchor="middle" x="922" y="-1042" font-family="Helvetica,sans-Serif" font-size="10.00"> PP</text>
</g>
<!-- Node13 -->
<g id="node13" class="node">
<title>Node13</title>
<g id="a_node13"><a xlink:href="classparse_1_1_ast_node_factory.html" target="_top" xlink:title="各TASK種のParserRuleContext型のノードに対して、対応するクラスのASTノードを生成するファクトリ手続き．">
<polygon fill="white" stroke="black" points="583,-876.5 583,-895.5 671,-895.5 671,-876.5 583,-876.5"/>
<text text-anchor="middle" x="627" y="-883.5" font-family="Helvetica,sans-Serif" font-size="10.00">AstNodeFactory</text>
</a>
</g>
</g>
<!-- Node4&#45;&gt;Node13 -->
<g id="edge14" class="edge">
<title>Node4&#45;&gt;Node13</title>
<path fill="none" stroke="#9a32cd" stroke-dasharray="5,2" d="M383.93,-1024.62C417.78,-1006.45 477.54,-974.04 528,-945 557.43,-928.06 591.27,-907.43 610.5,-895.59"/>
<polygon fill="#9a32cd" stroke="#9a32cd" points="382.26,-1021.54 375.1,-1029.35 385.57,-1027.71 382.26,-1021.54"/>
<text text-anchor="middle" x="490" y="-989" font-family="Helvetica,sans-Serif" font-size="10.00"> PP</text>
</g>
<!-- Node5 -->
<g id="node5" class="node">
<title>Node5</title>
<g id="a_node5"><a xlink:title=" ">
<polygon fill="white" stroke="#bfbfbf" points="35.5,-1036.5 35.5,-1055.5 77.5,-1055.5 77.5,-1036.5 35.5,-1036.5"/>
<text text-anchor="middle" x="56.5" y="-1043.5" font-family="Helvetica,sans-Serif" font-size="10.00">String</text>
</a>
</g>
</g>
<!-- Node5&#45;&gt;Node1 -->
<g id="edge8" class="edge">
<title>Node5&#45;&gt;Node1</title>
<path fill="none" stroke="#9a32cd" stroke-dasharray="5,2" d="M72.07,-1063.12C85.7,-1077.89 107.44,-1098.46 131,-1109 222.68,-1150.04 254.56,-1139 355,-1139 355,-1139 355,-1139 1131,-1139 1242.94,-1139 1284.8,-957.47 1293.29,-913.5"/>
<polygon fill="#9a32cd" stroke="#9a32cd" points="74.64,-1060.75 65.38,-1055.62 69.42,-1065.41 74.64,-1060.75"/>
<text text-anchor="middle" x="779" y="-1142" font-family="Helvetica,sans-Serif" font-size="10.00"> MOD_PARSE</text>
</g>
<!-- Node5&#45;&gt;Node4 -->
<g id="edge4" class="edge">
<title>Node5&#45;&gt;Node4</title>
<path fill="none" stroke="#9a32cd" stroke-dasharray="5,2" d="M87.67,-1052.06C100.9,-1054.42 116.66,-1056.84 131,-1058 188.15,-1062.63 202.95,-1063.65 260,-1058 279.42,-1056.08 300.74,-1052 318.26,-1048.11"/>
<polygon fill="#9a32cd" stroke="#9a32cd" points="88.14,-1048.58 77.67,-1050.2 86.86,-1055.47 88.14,-1048.58"/>
<text text-anchor="middle" x="195.5" y="-1097" font-family="Helvetica,sans-Serif" font-size="10.00"> LBODY</text>
<text text-anchor="middle" x="195.5" y="-1086" font-family="Helvetica,sans-Serif" font-size="10.00">LHEAD</text>
<text text-anchor="middle" x="195.5" y="-1075" font-family="Helvetica,sans-Serif" font-size="10.00">RBODY</text>
<text text-anchor="middle" x="195.5" y="-1064" font-family="Helvetica,sans-Serif" font-size="10.00">RHEAD</text>
</g>
<!-- Node16 -->
<g id="node16" class="node">
<title>Node16</title>
<g id="a_node16"><a xlink:href="classutil_1_1_report.html" target="_top" xlink:title="標準出力への入れ子出力のためのレポートオブジェクトのクラス.">
<polygon fill="white" stroke="black" points="320.5,-932.5 320.5,-951.5 391.5,-951.5 391.5,-932.5 320.5,-932.5"/>
<text text-anchor="middle" x="356" y="-939.5" font-family="Helvetica,sans-Serif" font-size="10.00">Report&lt; S &gt;</text>
</a>
</g>
</g>
<!-- Node5&#45;&gt;Node16 -->
<g id="edge20" class="edge">
<title>Node5&#45;&gt;Node16</title>
<path fill="none" stroke="#9a32cd" stroke-dasharray="5,2" d="M87.93,-1044.9C136.67,-1042.78 229.85,-1037.11 260,-1024 298.36,-1007.32 332.62,-969.53 347.35,-951.68"/>
<polygon fill="#9a32cd" stroke="#9a32cd" points="87.52,-1041.42 77.67,-1045.33 87.81,-1048.41 87.52,-1041.42"/>
<text text-anchor="middle" x="195.5" y="-1045" font-family="Helvetica,sans-Serif" font-size="10.00"> STEMSTR</text>
</g>
<!-- Node21 -->
<g id="node21" class="node">
<title>Node21</title>
<g id="a_node21"><a xlink:href="classast_1_1_ast_node_base.html" target="_top" xlink:title=" ">
<polygon fill="white" stroke="red" points="317.5,-642.5 317.5,-661.5 394.5,-661.5 394.5,-642.5 317.5,-642.5"/>
<text text-anchor="middle" x="356" y="-649.5" font-family="Helvetica,sans-Serif" font-size="10.00">AstNodeBase</text>
</a>
</g>
</g>
<!-- Node5&#45;&gt;Node21 -->
<g id="edge30" class="edge">
<title>Node5&#45;&gt;Node21</title>
<path fill="none" stroke="#9a32cd" stroke-dasharray="5,2" d="M78.01,-1030.44C92.28,-1020.16 112.07,-1006.98 131,-998 185.35,-972.21 222.71,-1004.21 260,-957 293.56,-914.51 252.83,-761.94 278,-714 290.68,-689.84 317.32,-671.77 335.68,-661.55"/>
<polygon fill="#9a32cd" stroke="#9a32cd" points="75.88,-1027.66 69.89,-1036.4 80.02,-1033.3 75.88,-1027.66"/>
<text text-anchor="middle" x="195.5" y="-1012" font-family="Helvetica,sans-Serif" font-size="10.00"> MOD_AST</text>
<text text-anchor="middle" x="195.5" y="-1001" font-family="Helvetica,sans-Serif" font-size="10.00">mod_</text>
</g>
<!-- Node30 -->
<g id="node28" class="node">
<title>Node30</title>
<g id="a_node28"><a xlink:href="classformat_1_1_style.html" target="_top" xlink:title="ノードの表示スタイルに関するプロパティのクラス.">
<polygon fill="white" stroke="black" points="336.5,-452.5 336.5,-471.5 375.5,-471.5 375.5,-452.5 336.5,-452.5"/>
<text text-anchor="middle" x="356" y="-459.5" font-family="Helvetica,sans-Serif" font-size="10.00">Style</text>
</a>
</g>
</g>
<!-- Node5&#45;&gt;Node30 -->
<g id="edge41" class="edge">
<title>Node5&#45;&gt;Node30</title>
<path fill="none" stroke="#9a32cd" stroke-dasharray="5,2" d="M72.91,-1028.39C86.14,-1012.12 104.39,-986.66 113,-961 122.21,-933.55 111.33,-722.25 131,-701 170.37,-658.47 220.2,-724.13 260,-682 290.8,-649.4 248.8,-515.04 278,-481 292.26,-464.38 318.51,-461.08 336.35,-460.96"/>
<polygon fill="#9a32cd" stroke="#9a32cd" points="69.92,-1026.51 66.17,-1036.42 75.28,-1031.01 69.92,-1026.51"/>
<text text-anchor="middle" x="195.5" y="-781" font-family="Helvetica,sans-Serif" font-size="10.00"> childLPAD</text>
<text text-anchor="middle" x="195.5" y="-770" font-family="Helvetica,sans-Serif" font-size="10.00">childRPAD</text>
<text text-anchor="middle" x="195.5" y="-759" font-family="Helvetica,sans-Serif" font-size="10.00">name</text>
<text text-anchor="middle" x="195.5" y="-748" font-family="Helvetica,sans-Serif" font-size="10.00">operSTR</text>
<text text-anchor="middle" x="195.5" y="-737" font-family="Helvetica,sans-Serif" font-size="10.00">parenLPAD</text>
<text text-anchor="middle" x="195.5" y="-726" font-family="Helvetica,sans-Serif" font-size="10.00">parenLPAR</text>
<text text-anchor="middle" x="195.5" y="-715" font-family="Helvetica,sans-Serif" font-size="10.00">parenRPAD</text>
<text text-anchor="middle" x="195.5" y="-704" font-family="Helvetica,sans-Serif" font-size="10.00">parenRPAR</text>
</g>
<!-- Node6 -->
<g id="node6" class="node">
<title>Node6</title>
<g id="a_node6"><a xlink:title=" ">
<polygon fill="white" stroke="#bfbfbf" points="9.5,-1162.5 9.5,-1181.5 103.5,-1181.5 103.5,-1162.5 9.5,-1162.5"/>
<text text-anchor="middle" x="56.5" y="-1169.5" font-family="Helvetica,sans-Serif" font-size="10.00">FoldableStringBuf</text>
</a>
</g>
</g>
<!-- Node6&#45;&gt;Node4 -->
<g id="edge5" class="edge">
<title>Node6&#45;&gt;Node4</title>
<path fill="none" stroke="#9a32cd" stroke-dasharray="5,2" d="M112.73,-1160.11C154.56,-1149.86 212.7,-1132.93 260,-1109 293.45,-1092.08 327.62,-1063.58 344.39,-1048.7"/>
<polygon fill="#9a32cd" stroke="#9a32cd" points="111.91,-1156.71 103,-1162.44 113.54,-1163.51 111.91,-1156.71"/>
<text text-anchor="middle" x="195.5" y="-1158" font-family="Helvetica,sans-Serif" font-size="10.00"> buf</text>
</g>
<!-- Node7 -->
<g id="node7" class="node">
<title>Node7</title>
<g id="a_node7"><a xlink:title=" ">
<polygon fill="white" stroke="#bfbfbf" points="31.5,-557.5 31.5,-576.5 81.5,-576.5 81.5,-557.5 31.5,-557.5"/>
<text text-anchor="middle" x="56.5" y="-564.5" font-family="Helvetica,sans-Serif" font-size="10.00">boolean</text>
</a>
</g>
</g>
<!-- Node7&#45;&gt;Node1 -->
<g id="edge25" class="edge">
<title>Node7&#45;&gt;Node1</title>
<path fill="none" stroke="#9a32cd" stroke-dasharray="5,2" d="M92.01,-564.55C143.2,-561.69 235.85,-559.77 260,-581 290.64,-607.93 247.65,-643.75 278,-671 313.03,-702.45 441.92,-690 489,-690 489,-690 489,-690 1131,-690 1235.38,-690 1282.35,-852.38 1292.73,-894.25"/>
<polygon fill="#9a32cd" stroke="#9a32cd" points="91.52,-561.07 81.75,-565.17 91.94,-568.06 91.52,-561.07"/>
<text text-anchor="middle" x="779" y="-770" font-family="Helvetica,sans-Serif" font-size="10.00"> DEBUG_REPO</text>
<text text-anchor="middle" x="779" y="-759" font-family="Helvetica,sans-Serif" font-size="10.00">DEBUG_TMPL</text>
<text text-anchor="middle" x="779" y="-748" font-family="Helvetica,sans-Serif" font-size="10.00">HAS_ARG</text>
<text text-anchor="middle" x="779" y="-737" font-family="Helvetica,sans-Serif" font-size="10.00">NO_ARG</text>
<text text-anchor="middle" x="779" y="-726" font-family="Helvetica,sans-Serif" font-size="10.00">TRACE</text>
<text text-anchor="start" x="726" y="-715" font-family="Helvetica,sans-Serif" font-size="10.00">USE_QUERY_STRING</text>
<text text-anchor="middle" x="779" y="-704" font-family="Helvetica,sans-Serif" font-size="10.00">_FMT</text>
<text text-anchor="middle" x="779" y="-693" font-family="Helvetica,sans-Serif" font-size="10.00">VERBOSE</text>
</g>
<!-- Node7&#45;&gt;Node4 -->
<g id="edge6" class="edge">
<title>Node7&#45;&gt;Node4</title>
<path fill="none" stroke="#9a32cd" stroke-dasharray="5,2" d="M60.26,-586.69C68.82,-645.34 96.4,-817.46 131,-861 171.06,-911.42 214.14,-881.78 260,-927 272.17,-939.01 267.89,-947.21 278,-961 298.03,-988.31 327.43,-1015.35 343.49,-1029.3"/>
<polygon fill="#9a32cd" stroke="#9a32cd" points="63.69,-585.95 58.81,-576.55 56.76,-586.94 63.69,-585.95"/>
<text text-anchor="middle" x="195.5" y="-930" font-family="Helvetica,sans-Serif" font-size="10.00"> hasEnd</text>
</g>
<!-- Node7&#45;&gt;Node13 -->
<g id="edge23" class="edge">
<title>Node7&#45;&gt;Node13</title>
<path fill="none" stroke="#9a32cd" stroke-dasharray="5,2" d="M91.69,-572.56C147.86,-581.83 254.08,-600.03 260,-606 291.18,-637.45 251.72,-668.36 278,-704 320.68,-761.9 529.42,-847.99 601.48,-876.47"/>
<polygon fill="#9a32cd" stroke="#9a32cd" points="92.25,-569.1 81.82,-570.93 91.12,-576.01 92.25,-569.1"/>
<text text-anchor="middle" x="356" y="-806" font-family="Helvetica,sans-Serif" font-size="10.00"> DEBUG_REPO</text>
</g>
<!-- Node14 -->
<g id="node14" class="node">
<title>Node14</title>
<g id="a_node14"><a xlink:href="classparse_1_1_parse_table.html" target="_top" xlink:title="ノードの型のクラスオブジェクトをキーとし，ノードの再帰の型を値とする表．">
<polygon fill="white" stroke="black" points="323.5,-829.5 323.5,-848.5 388.5,-848.5 388.5,-829.5 323.5,-829.5"/>
<text text-anchor="middle" x="356" y="-836.5" font-family="Helvetica,sans-Serif" font-size="10.00">ParseTable</text>
</a>
</g>
</g>
<!-- Node7&#45;&gt;Node14 -->
<g id="edge18" class="edge">
<title>Node7&#45;&gt;Node14</title>
<path fill="none" stroke="#9a32cd" stroke-dasharray="5,2" d="M82.51,-581.42C96.4,-588.86 114.21,-597.51 131,-603 186.35,-621.1 219.51,-584.14 260,-626 299.02,-666.35 254.55,-700 278,-751 293.35,-784.38 325.48,-814.55 343,-829.36"/>
<polygon fill="#9a32cd" stroke="#9a32cd" points="84.03,-578.26 73.59,-576.51 80.66,-584.4 84.03,-578.26"/>
<text text-anchor="middle" x="195.5" y="-629" font-family="Helvetica,sans-Serif" font-size="10.00"> DEBUG_REG</text>
</g>
<!-- Node7&#45;&gt;Node16 -->
<g id="edge22" class="edge">
<title>Node7&#45;&gt;Node16</title>
<path fill="none" stroke="#9a32cd" stroke-dasharray="5,2" d="M70.92,-584.72C84.28,-601.02 106.33,-624.51 131,-637 182.96,-663.31 221.08,-616.68 260,-660 298.41,-702.75 242.35,-872.92 278,-918 288.08,-930.74 304.83,-936.86 320.14,-939.75"/>
<polygon fill="#9a32cd" stroke="#9a32cd" points="73.37,-582.19 64.42,-576.52 67.89,-586.53 73.37,-582.19"/>
<text text-anchor="middle" x="195.5" y="-674" font-family="Helvetica,sans-Serif" font-size="10.00"> DEBUG_POP</text>
<text text-anchor="middle" x="195.5" y="-663" font-family="Helvetica,sans-Serif" font-size="10.00">toPrint</text>
</g>
<!-- Node18 -->
<g id="node18" class="node">
<title>Node18</title>
<g id="a_node18"><a xlink:href="classast_1_1_program.html" target="_top" xlink:title="ルールの集合からなるコンパイル済みのプログラム.">
<polygon fill="white" stroke="black" points="1103.5,-242.5 1103.5,-261.5 1156.5,-261.5 1156.5,-242.5 1103.5,-242.5"/>
<text text-anchor="middle" x="1130" y="-249.5" font-family="Helvetica,sans-Serif" font-size="10.00">Program</text>
</a>
</g>
</g>
<!-- Node7&#45;&gt;Node18 -->
<g id="edge63" class="edge">
<title>Node7&#45;&gt;Node18</title>
<path fill="none" stroke="#9a32cd" stroke-dasharray="5,2" d="M64.82,-548.02C80.86,-506.88 118.63,-412.45 131,-403 284.3,-285.89 805.82,-351.46 994,-309 1038.42,-298.98 1086.73,-275.1 1111.76,-261.65"/>
<polygon fill="#9a32cd" stroke="#9a32cd" points="61.52,-546.87 61.16,-557.46 68.04,-549.4 61.52,-546.87"/>
<text text-anchor="middle" x="627" y="-332" font-family="Helvetica,sans-Serif" font-size="10.00"> DEBUG_NAME</text>
</g>
<!-- Node19 -->
<g id="node19" class="node">
<title>Node19</title>
<g id="a_node19"><a xlink:href="classast_1_1_ast_node_tagged.html" target="_top" xlink:title="子それぞれにタグと型アイテムをもつ順序ノードAstNodeのサブクラス．利用者は自前で，追加する子のField名と型を設定する．読み出しは子の添字のみで行う．">
<polygon fill="white" stroke="black" points="879,-471.5 879,-490.5 965,-490.5 965,-471.5 879,-471.5"/>
<text text-anchor="middle" x="922" y="-478.5" font-family="Helvetica,sans-Serif" font-size="10.00">AstNodeTagged</text>
</a>
</g>
</g>
<!-- Node7&#45;&gt;Node19 -->
<g id="edge49" class="edge">
<title>Node7&#45;&gt;Node19</title>
<path fill="none" stroke="#9a32cd" stroke-dasharray="5,2" d="M63.16,-547.54C72.46,-519.12 93.78,-466.62 131,-439 184.85,-399.04 211.37,-412.6 278,-405 389.13,-392.32 452.57,-351.41 528,-434 554.04,-462.51 516,-494.69 546,-519 601.94,-564.33 636.06,-521.9 708,-519 763.25,-516.78 777.73,-519.59 832,-509 853.94,-504.72 878.09,-496.92 895.69,-490.64"/>
<polygon fill="#9a32cd" stroke="#9a32cd" points="59.79,-546.57 60.17,-557.16 66.48,-548.65 59.79,-546.57"/>
<text text-anchor="middle" x="490" y="-437" font-family="Helvetica,sans-Serif" font-size="10.00"> DEBUG_REPO</text>
</g>
<!-- Node7&#45;&gt;Node21 -->
<g id="edge34" class="edge">
<title>Node7&#45;&gt;Node21</title>
<path fill="none" stroke="#9a32cd" stroke-dasharray="5,2" d="M83.53,-552.88C125.67,-532.17 209.21,-500.28 260,-542 291.86,-568.17 249.54,-603.18 278,-633 288.17,-643.66 303.29,-648.73 317.45,-651.01"/>
<polygon fill="#9a32cd" stroke="#9a32cd" points="81.81,-549.83 74.47,-557.48 84.97,-556.07 81.81,-549.83"/>
<text text-anchor="middle" x="195.5" y="-545" font-family="Helvetica,sans-Serif" font-size="10.00"> DEBUG_REPO</text>
</g>
<!-- Node7&#45;&gt;Node30 -->
<g id="edge43" class="edge">
<title>Node7&#45;&gt;Node30</title>
<path fill="none" stroke="#9a32cd" stroke-dasharray="5,2" d="M64.61,-547.72C74.94,-522.91 96.68,-480.87 131,-463 199.3,-427.44 295.95,-446.29 336.23,-456.66"/>
<polygon fill="#9a32cd" stroke="#9a32cd" points="61.29,-546.59 60.88,-557.18 67.81,-549.16 61.29,-546.59"/>
<text text-anchor="middle" x="195.5" y="-477" font-family="Helvetica,sans-Serif" font-size="10.00"> preoperSupress</text>
<text text-anchor="middle" x="195.5" y="-466" font-family="Helvetica,sans-Serif" font-size="10.00">toInline</text>
</g>
<!-- Node8 -->
<g id="node8" class="node">
<title>Node8</title>
<g id="a_node8"><a xlink:title=" ">
<polygon fill="white" stroke="#bfbfbf" points="1096,-932.5 1096,-951.5 1164,-951.5 1164,-932.5 1096,-932.5"/>
<text text-anchor="middle" x="1130" y="-939.5" font-family="Helvetica,sans-Serif" font-size="10.00">static Panic</text>
</a>
</g>
</g>
<!-- Node8&#45;&gt;Node1 -->
<g id="edge7" class="edge">
<title>Node8&#45;&gt;Node1</title>
<path fill="none" stroke="#9a32cd" stroke-dasharray="5,2" d="M1174.13,-934.74C1196.34,-930.7 1223.77,-925.23 1248,-919 1254.14,-917.42 1260.66,-915.5 1266.82,-913.57"/>
<polygon fill="#9a32cd" stroke="#9a32cd" points="1173.23,-931.35 1164.01,-936.56 1174.47,-938.24 1173.23,-931.35"/>
<text text-anchor="middle" x="1225" y="-932" font-family="Helvetica,sans-Serif" font-size="10.00"> pan</text>
</g>
<!-- Node9 -->
<g id="node9" class="node">
<title>Node9</title>
<g id="a_node9"><a xlink:title=" ">
<polygon fill="white" stroke="#bfbfbf" points="1105,-894.5 1105,-913.5 1155,-913.5 1155,-894.5 1105,-894.5"/>
<text text-anchor="middle" x="1130" y="-901.5" font-family="Helvetica,sans-Serif" font-size="10.00">Options</text>
</a>
</g>
</g>
<!-- Node9&#45;&gt;Node1 -->
<g id="edge9" class="edge">
<title>Node9&#45;&gt;Node1</title>
<path fill="none" stroke="#9a32cd" stroke-dasharray="5,2" d="M1165.55,-904C1195.36,-904 1237.93,-904 1266,-904"/>
<polygon fill="#9a32cd" stroke="#9a32cd" points="1165.2,-900.5 1155.2,-904 1165.2,-907.5 1165.2,-900.5"/>
<text text-anchor="middle" x="1225" y="-907" font-family="Helvetica,sans-Serif" font-size="10.00"> opts</text>
</g>
<!-- Node10 -->
<g id="node10" class="node">
<title>Node10</title>
<g id="a_node10"><a xlink:title=" ">
<polygon fill="white" stroke="#bfbfbf" points="24,-894.5 24,-913.5 89,-913.5 89,-894.5 24,-894.5"/>
<text text-anchor="middle" x="56.5" y="-901.5" font-family="Helvetica,sans-Serif" font-size="10.00">TraceLevel</text>
</a>
</g>
</g>
<!-- Node10&#45;&gt;Node1 -->
<g id="edge10" class="edge">
<title>Node10&#45;&gt;Node1</title>
<path fill="none" stroke="#9a32cd" stroke-dasharray="5,2" d="M98.59,-914.25C103.75,-916.61 108.72,-919.49 113,-923 125.31,-933.11 117.49,-945.56 131,-954 198.64,-996.28 409.23,-980 489,-980 489,-980 489,-980 1131,-980 1185.41,-980 1200.3,-970.17 1248,-944 1262.84,-935.86 1277.27,-922.53 1286.14,-913.52"/>
<polygon fill="#9a32cd" stroke="#9a32cd" points="99.76,-910.96 89.17,-910.56 97.2,-917.47 99.76,-910.96"/>
<text text-anchor="middle" x="779" y="-983" font-family="Helvetica,sans-Serif" font-size="10.00"> LOG</text>
</g>
<!-- Node10&#45;&gt;Node13 -->
<g id="edge15" class="edge">
<title>Node10&#45;&gt;Node13</title>
<path fill="none" stroke="#9a32cd" stroke-dasharray="5,2" d="M99.48,-902.67C204.3,-899.35 476.69,-890.73 582.8,-887.37"/>
<polygon fill="#9a32cd" stroke="#9a32cd" points="99.17,-899.18 89.28,-902.99 99.39,-906.18 99.17,-899.18"/>
<text text-anchor="middle" x="356" y="-899" font-family="Helvetica,sans-Serif" font-size="10.00"> LOG</text>
</g>
<!-- Node10&#45;&gt;Node21 -->
<g id="edge31" class="edge">
<title>Node10&#45;&gt;Node21</title>
<path fill="none" stroke="#9a32cd" stroke-dasharray="5,2" d="M86.78,-889.41C96.07,-883.71 105.78,-876.49 113,-868 125.89,-852.84 115.87,-839.93 131,-827 176.06,-788.47 218.79,-835.63 260,-793 285.03,-767.11 258.92,-744.54 278,-714 292.64,-690.57 319.32,-672.08 337.11,-661.6"/>
<polygon fill="#9a32cd" stroke="#9a32cd" points="85.03,-886.38 78.11,-894.4 88.52,-892.45 85.03,-886.38"/>
<text text-anchor="middle" x="195.5" y="-830" font-family="Helvetica,sans-Serif" font-size="10.00"> LOG</text>
</g>
<!-- Node11 -->
<g id="node11" class="node">
<title>Node11</title>
<g id="a_node11"><a xlink:title=" ">
<polygon fill="white" stroke="#bfbfbf" points="20,-403.5 20,-422.5 93,-422.5 93,-403.5 20,-403.5"/>
<text text-anchor="middle" x="56.5" y="-410.5" font-family="Helvetica,sans-Serif" font-size="10.00">static Report</text>
</a>
</g>
</g>
<!-- Node11&#45;&gt;Node1 -->
<g id="edge11" class="edge">
<title>Node11&#45;&gt;Node1</title>
<path fill="none" stroke="#9a32cd" stroke-dasharray="5,2" d="M72.09,-395.93C85.74,-381.19 107.49,-360.65 131,-350 247.93,-297.04 582.6,-295.56 708,-323 998.22,-386.51 1101.71,-458.42 1248,-717 1282.78,-778.48 1292.16,-865.65 1294.38,-894.4"/>
<polygon fill="#9a32cd" stroke="#9a32cd" points="69.45,-393.63 65.39,-403.41 74.67,-398.3 69.45,-393.63"/>
<text text-anchor="middle" x="779" y="-358" font-family="Helvetica,sans-Serif" font-size="10.00"> repo</text>
</g>
<!-- Node11&#45;&gt;Node21 -->
<g id="edge32" class="edge">
<title>Node11&#45;&gt;Node21</title>
<path fill="none" stroke="#9a32cd" stroke-dasharray="5,2" d="M70.2,-430.54C83.41,-447.36 105.67,-472.07 131,-485 182.8,-511.44 219.43,-465.32 260,-507 299.46,-547.54 240.05,-591.05 278,-633 287.88,-643.93 302.96,-649.04 317.16,-651.29"/>
<polygon fill="#9a32cd" stroke="#9a32cd" points="72.99,-428.42 64.16,-422.56 67.41,-432.65 72.99,-428.42"/>
<text text-anchor="middle" x="195.5" y="-510" font-family="Helvetica,sans-Serif" font-size="10.00"> repo</text>
</g>
<!-- Node12 -->
<g id="node12" class="node">
<title>Node12</title>
<g id="a_node12"><a xlink:title=" ">
<polygon fill="white" stroke="#bfbfbf" points="1076,-780.5 1076,-799.5 1184,-799.5 1184,-780.5 1076,-780.5"/>
<text text-anchor="middle" x="1130" y="-787.5" font-family="Helvetica,sans-Serif" font-size="10.00">CommandLineParser</text>
</a>
</g>
</g>
<!-- Node12&#45;&gt;Node1 -->
<g id="edge12" class="edge">
<title>Node12&#45;&gt;Node1</title>
<path fill="none" stroke="#9a32cd" stroke-dasharray="5,2" d="M1194.23,-785.62C1212.98,-787.18 1232.59,-791.93 1248,-803 1279.1,-825.34 1290.21,-873.54 1293.64,-894.24"/>
<polygon fill="#9a32cd" stroke="#9a32cd" points="1194.41,-782.13 1184.24,-785.07 1194.03,-789.12 1194.41,-782.13"/>
<text text-anchor="middle" x="1225" y="-806" font-family="Helvetica,sans-Serif" font-size="10.00"> optParser</text>
</g>
<!-- Node13&#45;&gt;Node1 -->
<g id="edge13" class="edge">
<title>Node13&#45;&gt;Node1</title>
<path fill="none" stroke="#9a32cd" stroke-dasharray="5,2" d="M681.06,-882.86C780.12,-877.67 999.84,-869.35 1184,-885 1212.05,-887.38 1243.67,-893.1 1265.96,-897.64"/>
<polygon fill="#9a32cd" stroke="#9a32cd" points="680.81,-879.37 671.01,-883.4 681.18,-886.36 680.81,-879.37"/>
<text text-anchor="middle" x="1035" y="-880" font-family="Helvetica,sans-Serif" font-size="10.00"> AF</text>
</g>
<!-- Node14&#45;&gt;Node1 -->
<g id="edge24" class="edge">
<title>Node14&#45;&gt;Node1</title>
<path fill="none" stroke="#9a32cd" stroke-dasharray="5,2" d="M398.88,-836.23C451.78,-832.97 545.59,-828 626,-828 626,-828 626,-828 1131,-828 1193.45,-828 1257.91,-873.92 1283.52,-894.37"/>
<polygon fill="#9a32cd" stroke="#9a32cd" points="398.63,-832.74 388.87,-836.85 399.07,-839.72 398.63,-832.74"/>
<text text-anchor="middle" x="922" y="-831" font-family="Helvetica,sans-Serif" font-size="10.00"> PM</text>
</g>
<!-- Node14&#45;&gt;Node13 -->
<g id="edge16" class="edge">
<title>Node14&#45;&gt;Node13</title>
<path fill="none" stroke="#9a32cd" stroke-dasharray="5,2" d="M398.8,-846.3C448.88,-855.05 532.33,-869.63 582.95,-878.48"/>
<polygon fill="#9a32cd" stroke="#9a32cd" points="399.1,-842.8 388.65,-844.53 397.9,-849.7 399.1,-842.8"/>
<text text-anchor="middle" x="490" y="-871" font-family="Helvetica,sans-Serif" font-size="10.00"> PM</text>
</g>
<!-- Node15 -->
<g id="node15" class="node">
<title>Node15</title>
<g id="a_node15"><a xlink:title=" ">
<polygon fill="white" stroke="#bfbfbf" points="0,-839.5 0,-858.5 113,-858.5 113,-839.5 0,-839.5"/>
<text text-anchor="middle" x="56.5" y="-846.5" font-family="Helvetica,sans-Serif" font-size="10.00">Map&lt; String, PType &gt;</text>
</a>
</g>
</g>
<!-- Node15&#45;&gt;Node14 -->
<g id="edge17" class="edge">
<title>Node15&#45;&gt;Node14</title>
<path fill="none" stroke="#9a32cd" stroke-dasharray="5,2" d="M123.22,-846.79C185.39,-844.7 276.05,-841.65 323.46,-840.06"/>
<polygon fill="#9a32cd" stroke="#9a32cd" points="122.99,-843.3 113.11,-847.13 123.22,-850.29 122.99,-843.3"/>
<text text-anchor="middle" x="195.5" y="-849" font-family="Helvetica,sans-Serif" font-size="10.00"> PM</text>
</g>
<!-- Node16&#45;&gt;Node13 -->
<g id="edge19" class="edge">
<title>Node16&#45;&gt;Node13</title>
<path fill="none" stroke="#9a32cd" stroke-dasharray="5,2" d="M401.98,-937.43C436.68,-933.42 485.73,-926.71 528,-917 552.7,-911.33 580.15,-902.41 599.7,-895.59"/>
<polygon fill="#9a32cd" stroke="#9a32cd" points="401.24,-933.99 391.69,-938.59 402.02,-940.95 401.24,-933.99"/>
<text text-anchor="middle" x="490" y="-933" font-family="Helvetica,sans-Serif" font-size="10.00"> repo</text>
</g>
<!-- Node17 -->
<g id="node17" class="node">
<title>Node17</title>
<g id="a_node17"><a xlink:href="classutil_1_1_stack_base.html" target="_top" xlink:title=" ">
<polygon fill="white" stroke="black" points="2.5,-932.5 2.5,-951.5 110.5,-951.5 110.5,-932.5 2.5,-932.5"/>
<text text-anchor="middle" x="56.5" y="-939.5" font-family="Helvetica,sans-Serif" font-size="10.00">StackBase&lt; String &gt;</text>
</a>
</g>
</g>
<!-- Node17&#45;&gt;Node16 -->
<g id="edge21" class="edge">
<title>Node17&#45;&gt;Node16</title>
<path fill="none" stroke="#9a32cd" stroke-dasharray="5,2" d="M120.96,-942C181.88,-942 271.63,-942 320.38,-942"/>
<polygon fill="#9a32cd" stroke="#9a32cd" points="120.69,-938.5 110.69,-942 120.69,-945.5 120.69,-938.5"/>
<text text-anchor="middle" x="195.5" y="-945" font-family="Helvetica,sans-Serif" font-size="10.00"> NS</text>
</g>
<!-- Node18&#45;&gt;Node1 -->
<g id="edge26" class="edge">
<title>Node18&#45;&gt;Node1</title>
<path fill="none" stroke="#9a32cd" stroke-dasharray="5,2" d="M1158.88,-266.61C1186.76,-282.88 1228.25,-311.97 1248,-350 1299.95,-450.01 1296.23,-828.48 1295.18,-894.23"/>
<polygon fill="#9a32cd" stroke="#9a32cd" points="1160.43,-263.47 1150,-261.59 1156.98,-269.56 1160.43,-263.47"/>
<text text-anchor="middle" x="1225" y="-353" font-family="Helvetica,sans-Serif" font-size="10.00"> prog</text>
</g>
<!-- Node19&#45;&gt;Node18 -->
<g id="edge27" class="edge">
<title>Node19&#45;&gt;Node18</title>
<path fill="none" stroke="midnightblue" d="M939.46,-463.87C965.16,-436.98 1016.21,-383.1 1058,-336 1081.44,-309.58 1108.08,-277.48 1121.06,-261.7"/>
<polygon fill="midnightblue" stroke="midnightblue" points="936.72,-461.66 932.33,-471.3 941.78,-466.5 936.72,-461.66"/>
</g>
<!-- Node20 -->
<g id="node20" class="node">
<title>Node20</title>
<g id="a_node20"><a xlink:href="classast_1_1_ast_node.html" target="_top" xlink:title="タグなしの順アクセスの子供をもてる抽象構文木のノードのクラス。">
<polygon fill="white" stroke="black" points="599.5,-566.5 599.5,-585.5 654.5,-585.5 654.5,-566.5 599.5,-566.5"/>
<text text-anchor="middle" x="627" y="-573.5" font-family="Helvetica,sans-Serif" font-size="10.00">AstNode</text>
</a>
</g>
</g>
<!-- Node20&#45;&gt;Node19 -->
<g id="edge28" class="edge">
<title>Node20&#45;&gt;Node19</title>
<path fill="none" stroke="midnightblue" d="M664.63,-570.85C706.66,-568.57 776.88,-564.93 832,-542 861.4,-529.77 889.23,-504.99 905.71,-490.72"/>
<polygon fill="midnightblue" stroke="midnightblue" points="664.37,-567.36 654.58,-571.41 664.76,-574.34 664.37,-567.36"/>
</g>
<!-- Node20&#45;&gt;Node19 -->
<g id="edge45" class="edge">
<title>Node20&#45;&gt;Node19</title>
<path fill="none" stroke="midnightblue" d="M664.63,-583.82C706.66,-586.57 776.88,-582.93 832,-560 869.21,-544.52 903.9,-508.95 916.24,-490.76"/>
<polygon fill="midnightblue" stroke="midnightblue" points="664.84,-580.33 654.58,-582.99 664.26,-587.3 664.84,-580.33"/>
</g>
<!-- Node21&#45;&gt;Node20 -->
<g id="edge29" class="edge">
<title>Node21&#45;&gt;Node20</title>
<path fill="none" stroke="midnightblue" d="M404.49,-642.06C439.01,-634.48 486.72,-623.28 528,-611 553.45,-603.43 581.99,-593.01 601.67,-585.51"/>
<polygon fill="midnightblue" stroke="midnightblue" points="403.7,-638.65 394.67,-644.19 405.18,-645.49 403.7,-638.65"/>
</g>
<!-- Node22 -->
<g id="node22" class="node">
<title>Node22</title>
<g id="a_node22"><a xlink:title=" ">
<polygon fill="white" stroke="#bfbfbf" points="42,-204.5 42,-223.5 71,-223.5 71,-204.5 42,-204.5"/>
<text text-anchor="middle" x="56.5" y="-211.5" font-family="Helvetica,sans-Serif" font-size="10.00">int</text>
</a>
</g>
</g>
<!-- Node22&#45;&gt;Node18 -->
<g id="edge56" class="edge">
<title>Node22&#45;&gt;Node18</title>
<path fill="none" stroke="#9a32cd" stroke-dasharray="5,2" d="M81.34,-214C131.81,-214 253.2,-214 355,-214 355,-214 355,-214 923,-214 988.82,-214 1064.55,-233 1103.27,-244.13"/>
<polygon fill="#9a32cd" stroke="#9a32cd" points="81.14,-210.5 71.14,-214 81.14,-217.5 81.14,-210.5"/>
<text text-anchor="middle" x="627" y="-217" font-family="Helvetica,sans-Serif" font-size="10.00"> rootRID</text>
</g>
<!-- Node22&#45;&gt;Node21 -->
<g id="edge33" class="edge">
<title>Node22&#45;&gt;Node21</title>
<path fill="none" stroke="#9a32cd" stroke-dasharray="5,2" d="M79.48,-228.03C122.95,-257.15 219.19,-328.86 260,-417 280.24,-460.71 246.75,-596.35 278,-633 287.65,-644.32 302.86,-649.47 317.22,-651.64"/>
<polygon fill="#9a32cd" stroke="#9a32cd" points="81.33,-225.05 71.05,-222.47 77.47,-230.89 81.33,-225.05"/>
<text text-anchor="middle" x="195.5" y="-431" font-family="Helvetica,sans-Serif" font-size="10.00"> BITMASK_PRINT_WIDTH</text>
<text text-anchor="middle" x="195.5" y="-420" font-family="Helvetica,sans-Serif" font-size="10.00">UNDEF</text>
</g>
<!-- Node22&#45;&gt;Node30 -->
<g id="edge42" class="edge">
<title>Node22&#45;&gt;Node30</title>
<path fill="none" stroke="#9a32cd" stroke-dasharray="5,2" d="M81.32,-217.61C134.2,-225.68 256.96,-244.72 260,-248 289.61,-279.89 249.62,-410.01 278,-443 292.28,-459.6 318.52,-462.91 336.36,-463.03"/>
<polygon fill="#9a32cd" stroke="#9a32cd" points="81.58,-214.11 71.17,-216.07 80.53,-221.03 81.58,-214.11"/>
<text text-anchor="middle" x="195.5" y="-251" font-family="Helvetica,sans-Serif" font-size="10.00"> pref</text>
</g>
<!-- Node38 -->
<g id="node36" class="node">
<title>Node38</title>
<g id="a_node36"><a xlink:href="classmachine_1_1_call.html" target="_top" xlink:title=" ">
<polygon fill="white" stroke="black" points="339,-158.5 339,-177.5 373,-177.5 373,-158.5 339,-158.5"/>
<text text-anchor="middle" x="356" y="-165.5" font-family="Helvetica,sans-Serif" font-size="10.00">Call</text>
</a>
</g>
</g>
<!-- Node22&#45;&gt;Node38 -->
<g id="edge55" class="edge">
<title>Node22&#45;&gt;Node38</title>
<path fill="none" stroke="#9a32cd" stroke-dasharray="5,2" d="M80.55,-204.6C94.84,-199.17 113.71,-192.7 131,-189 207.58,-172.62 301.61,-169.02 338.78,-168.22"/>
<polygon fill="#9a32cd" stroke="#9a32cd" points="79.09,-201.42 71.05,-208.32 81.63,-207.94 79.09,-201.42"/>
<text text-anchor="middle" x="195.5" y="-192" font-family="Helvetica,sans-Serif" font-size="10.00"> UNDEF</text>
</g>
<!-- Node41 -->
<g id="node39" class="node">
<title>Node41</title>
<g id="a_node39"><a xlink:href="classmachine_1_1_id_mask.html" target="_top" xlink:title="@IDのマスク">
<polygon fill="white" stroke="black" points="331.5,-64.5 331.5,-83.5 380.5,-83.5 380.5,-64.5 331.5,-64.5"/>
<text text-anchor="middle" x="356" y="-71.5" font-family="Helvetica,sans-Serif" font-size="10.00">IdMask</text>
</a>
</g>
</g>
<!-- Node22&#45;&gt;Node41 -->
<g id="edge60" class="edge">
<title>Node22&#45;&gt;Node41</title>
<path fill="none" stroke="#9a32cd" stroke-dasharray="5,2" d="M69.77,-196.12C82.9,-178.31 105.35,-151.46 131,-136 139.77,-130.71 275.48,-94.83 331.3,-80.19"/>
<polygon fill="#9a32cd" stroke="#9a32cd" points="66.75,-194.33 63.78,-204.5 72.44,-198.4 66.75,-194.33"/>
<text text-anchor="middle" x="195.5" y="-161" font-family="Helvetica,sans-Serif" font-size="10.00"> OUTPUT_MIN_BIT_WIDTH</text>
<text text-anchor="middle" x="195.5" y="-150" font-family="Helvetica,sans-Serif" font-size="10.00">maxState</text>
<text text-anchor="middle" x="195.5" y="-139" font-family="Helvetica,sans-Serif" font-size="10.00">numStates</text>
</g>
<!-- Node24 -->
<g id="node23" class="node">
<title>Node24</title>
<g id="a_node23"><a xlink:href="interfaceast_1_1_node.html" target="_top" xlink:title=" ">
<polygon fill="white" stroke="red" points="336,-490.5 336,-509.5 376,-509.5 376,-490.5 336,-490.5"/>
<text text-anchor="middle" x="356" y="-497.5" font-family="Helvetica,sans-Serif" font-size="10.00">Node</text>
</a>
</g>
</g>
<!-- Node24&#45;&gt;Node20 -->
<g id="edge35" class="edge">
<title>Node24&#45;&gt;Node20</title>
<path fill="none" stroke="midnightblue" d="M385.93,-506.8C400.41,-510.29 418.18,-514.7 434,-519 450.15,-523.39 550.57,-553.41 599.4,-568.03"/>
<polygon fill="midnightblue" stroke="midnightblue" points="386.59,-503.36 376.05,-504.44 384.96,-510.17 386.59,-503.36"/>
</g>
<!-- Node26 -->
<g id="node24" class="node">
<title>Node26</title>
<g id="a_node24"><a xlink:href="interfaceformat_1_1_x_formattable_1_1_navigatable.html" target="_top" xlink:title="木構造の分岐ノードとして清書可能なオブジェクトのクラス">
<polygon fill="white" stroke="red" points="291,-414.5 291,-433.5 421,-433.5 421,-414.5 291,-414.5"/>
<text text-anchor="middle" x="356" y="-421.5" font-family="Helvetica,sans-Serif" font-size="10.00">XFormattable.Navigatable</text>
</a>
</g>
</g>
<!-- Node26&#45;&gt;Node20 -->
<g id="edge36" class="edge">
<title>Node26&#45;&gt;Node20</title>
<path fill="none" stroke="midnightblue" d="M410.2,-436.01C418.23,-438.14 426.37,-440.49 434,-443 476.97,-457.13 498.36,-447.83 528,-482 549.05,-506.26 523.74,-528.84 546,-552 559.77,-566.32 581.71,-572.19 599.13,-574.55"/>
<polygon fill="midnightblue" stroke="midnightblue" points="411.05,-432.61 400.5,-433.51 409.31,-439.39 411.05,-432.61"/>
</g>
<!-- Node27 -->
<g id="node25" class="node">
<title>Node27</title>
<g id="a_node25"><a xlink:href="interfaceformat_1_1_x_formattable_1_1_typed_formattable.html" target="_top" xlink:title="ノードの型情報をもつ書式出力可能なオブジェクトのインタフェース．">
<polygon fill="white" stroke="red" points="278,-604.5 278,-623.5 434,-623.5 434,-604.5 278,-604.5"/>
<text text-anchor="middle" x="356" y="-611.5" font-family="Helvetica,sans-Serif" font-size="10.00">XFormattable.TypedFormattable</text>
</a>
</g>
</g>
<!-- Node27&#45;&gt;Node20 -->
<g id="edge37" class="edge">
<title>Node27&#45;&gt;Node20</title>
<path fill="none" stroke="midnightblue" d="M439.99,-603.15C467.96,-599.41 499.35,-595.12 528,-591 552.19,-587.52 579.7,-583.29 599.4,-580.21"/>
<polygon fill="midnightblue" stroke="midnightblue" points="439.3,-599.71 429.85,-604.5 440.22,-606.65 439.3,-599.71"/>
</g>
<!-- Node28 -->
<g id="node26" class="node">
<title>Node28</title>
<g id="a_node26"><a xlink:title=" ">
<polygon fill="white" stroke="#bfbfbf" points="311,-566.5 311,-585.5 401,-585.5 401,-566.5 311,-566.5"/>
<text text-anchor="middle" x="356" y="-573.5" font-family="Helvetica,sans-Serif" font-size="10.00">List&lt; ast.Node &gt;</text>
</a>
</g>
</g>
<!-- Node28&#45;&gt;Node20 -->
<g id="edge38" class="edge">
<title>Node28&#45;&gt;Node20</title>
<path fill="none" stroke="#9a32cd" stroke-dasharray="5,2" d="M411.41,-576C468.51,-576 555.89,-576 599.43,-576"/>
<polygon fill="#9a32cd" stroke="#9a32cd" points="411.12,-572.5 401.12,-576 411.12,-579.5 411.12,-572.5"/>
<text text-anchor="middle" x="490" y="-579" font-family="Helvetica,sans-Serif" font-size="10.00"> children</text>
</g>
<!-- Node29 -->
<g id="node27" class="node">
<title>Node29</title>
<g id="a_node27"><a xlink:title=" ">
<polygon fill="white" stroke="#bfbfbf" points="330,-528.5 330,-547.5 382,-547.5 382,-528.5 330,-528.5"/>
<text text-anchor="middle" x="356" y="-535.5" font-family="Helvetica,sans-Serif" font-size="10.00">Boolean</text>
</a>
</g>
</g>
<!-- Node29&#45;&gt;Node20 -->
<g id="edge39" class="edge">
<title>Node29&#45;&gt;Node20</title>
<path fill="none" stroke="#9a32cd" stroke-dasharray="5,2" d="M392.3,-542.56C426.9,-547.07 481.11,-554.26 528,-561 552.19,-564.48 579.7,-568.71 599.4,-571.79"/>
<polygon fill="#9a32cd" stroke="#9a32cd" points="392.59,-539.07 382.23,-541.25 391.69,-546.01 392.59,-539.07"/>
<text text-anchor="middle" x="490" y="-564" font-family="Helvetica,sans-Serif" font-size="10.00"> DEBUG_CHILD</text>
</g>
<!-- Node30&#45;&gt;Node20 -->
<g id="edge40" class="edge">
<title>Node30&#45;&gt;Node20</title>
<path fill="none" stroke="#9a32cd" stroke-dasharray="5,2" d="M385.66,-468.66C400.19,-472.14 418.09,-476.59 434,-481 476.13,-492.69 495.5,-480.76 528,-510 543.1,-523.58 530.85,-538.48 546,-552 560.71,-565.13 582.37,-571.08 599.44,-573.78"/>
<polygon fill="#9a32cd" stroke="#9a32cd" points="386.29,-465.21 375.75,-466.31 384.67,-472.02 386.29,-465.21"/>
<text text-anchor="middle" x="490" y="-513" font-family="Helvetica,sans-Serif" font-size="10.00"> sty</text>
</g>
<!-- Node31 -->
<g id="node29" class="node">
<title>Node31</title>
<g id="a_node29"><a xlink:title=" ">
<polygon fill="white" stroke="#bfbfbf" points="582.5,-452.5 582.5,-471.5 671.5,-471.5 671.5,-452.5 582.5,-452.5"/>
<text text-anchor="middle" x="627" y="-459.5" font-family="Helvetica,sans-Serif" font-size="10.00">FieldNavigatable</text>
</a>
</g>
</g>
<!-- Node31&#45;&gt;Node19 -->
<g id="edge44" class="edge">
<title>Node31&#45;&gt;Node19</title>
<path fill="none" stroke="midnightblue" d="M681.76,-465.49C738.46,-469.16 826.66,-474.88 878.64,-478.25"/>
<polygon fill="midnightblue" stroke="midnightblue" points="681.75,-461.98 671.55,-464.82 681.3,-468.96 681.75,-461.98"/>
</g>
<!-- Node32 -->
<g id="node30" class="node">
<title>Node32</title>
<g id="a_node30"><a xlink:title=" ">
<polygon fill="white" stroke="#bfbfbf" points="589,-414.5 589,-433.5 665,-433.5 665,-414.5 589,-414.5"/>
<text text-anchor="middle" x="627" y="-421.5" font-family="Helvetica,sans-Serif" font-size="10.00">List&lt; String &gt;</text>
</a>
</g>
</g>
<!-- Node32&#45;&gt;Node19 -->
<g id="edge46" class="edge">
<title>Node32&#45;&gt;Node19</title>
<path fill="none" stroke="#9a32cd" stroke-dasharray="5,2" d="M675.27,-428.93C716.85,-433.75 778.86,-442.1 832,-454 852.8,-458.66 875.81,-465.69 893.22,-471.41"/>
<polygon fill="#9a32cd" stroke="#9a32cd" points="675.49,-425.44 665.16,-427.78 674.7,-432.39 675.49,-425.44"/>
<text text-anchor="middle" x="779" y="-457" font-family="Helvetica,sans-Serif" font-size="10.00"> fields</text>
</g>
<!-- Node33 -->
<g id="node31" class="node">
<title>Node33</title>
<g id="a_node31"><a xlink:title=" ">
<polygon fill="white" stroke="#bfbfbf" points="578,-376.5 578,-395.5 676,-395.5 676,-376.5 578,-376.5"/>
<text text-anchor="middle" x="627" y="-383.5" font-family="Helvetica,sans-Serif" font-size="10.00">List&lt; XTypeItem &gt;</text>
</a>
</g>
</g>
<!-- Node33&#45;&gt;Node19 -->
<g id="edge47" class="edge">
<title>Node33&#45;&gt;Node19</title>
<path fill="none" stroke="#9a32cd" stroke-dasharray="5,2" d="M686.15,-389.43C727.96,-393.45 785.02,-402.15 832,-421 862.96,-433.42 894.14,-457.81 910.09,-471.35"/>
<polygon fill="#9a32cd" stroke="#9a32cd" points="686.41,-385.94 676.13,-388.53 685.78,-392.91 686.41,-385.94"/>
<text text-anchor="middle" x="779" y="-424" font-family="Helvetica,sans-Serif" font-size="10.00"> types</text>
</g>
<!-- Node34 -->
<g id="node32" class="node">
<title>Node34</title>
<g id="a_node32"><a xlink:title=" ">
<polygon fill="white" stroke="#bfbfbf" points="546,-490.5 546,-509.5 708,-509.5 708,-490.5 546,-490.5"/>
<text text-anchor="middle" x="627" y="-497.5" font-family="Helvetica,sans-Serif" font-size="10.00">List&lt; Supplier&lt; XFormattable &gt; &gt;</text>
</a>
</g>
</g>
<!-- Node34&#45;&gt;Node19 -->
<g id="edge48" class="edge">
<title>Node34&#45;&gt;Node19</title>
<path fill="none" stroke="#9a32cd" stroke-dasharray="5,2" d="M718.26,-494.15C771.83,-490.67 837.21,-486.43 878.98,-483.72"/>
<polygon fill="#9a32cd" stroke="#9a32cd" points="717.82,-490.67 708.06,-494.81 718.27,-497.65 717.82,-490.67"/>
<text text-anchor="middle" x="779" y="-497" font-family="Helvetica,sans-Serif" font-size="10.00"> getters</text>
</g>
<!-- Node35 -->
<g id="node33" class="node">
<title>Node35</title>
<g id="a_node33"><a xlink:href="interfacemachine_1_1_runnable.html" target="_top" xlink:title="実行可能なプログラムのインタフェース.">
<polygon fill="white" stroke="black" points="893,-280.5 893,-299.5 951,-299.5 951,-280.5 893,-280.5"/>
<text text-anchor="middle" x="922" y="-287.5" font-family="Helvetica,sans-Serif" font-size="10.00">Runnable</text>
</a>
</g>
</g>
<!-- Node35&#45;&gt;Node18 -->
<g id="edge50" class="edge">
<title>Node35&#45;&gt;Node18</title>
<path fill="none" stroke="midnightblue" d="M961.45,-283.86C988.5,-279.44 1025.53,-273.19 1058,-267 1073.1,-264.12 1089.93,-260.58 1103.42,-257.66"/>
<polygon fill="midnightblue" stroke="midnightblue" points="960.55,-280.46 951.24,-285.52 961.67,-287.37 960.55,-280.46"/>
</g>
<!-- Node36 -->
<g id="node34" class="node">
<title>Node36</title>
<g id="a_node34"><a xlink:href="classmachine_1_1_global_ref_list.html" target="_top" xlink:title=" ">
<polygon fill="white" stroke="black" points="884,-242.5 884,-261.5 960,-261.5 960,-242.5 884,-242.5"/>
<text text-anchor="middle" x="922" y="-249.5" font-family="Helvetica,sans-Serif" font-size="10.00">GlobalRefList</text>
</a>
</g>
</g>
<!-- Node36&#45;&gt;Node18 -->
<g id="edge51" class="edge">
<title>Node36&#45;&gt;Node18</title>
<path fill="none" stroke="#9a32cd" stroke-dasharray="5,2" d="M970.43,-252C1011.78,-252 1070.19,-252 1103.36,-252"/>
<polygon fill="#9a32cd" stroke="#9a32cd" points="970.31,-248.5 960.31,-252 970.31,-255.5 970.31,-248.5"/>
<text text-anchor="middle" x="1035" y="-255" font-family="Helvetica,sans-Serif" font-size="10.00"> gRefList_</text>
</g>
<!-- Node37 -->
<g id="node35" class="node">
<title>Node37</title>
<g id="a_node35"><a xlink:title=" ">
<polygon fill="white" stroke="#bfbfbf" points="574,-243.5 574,-262.5 680,-262.5 680,-243.5 574,-243.5"/>
<text text-anchor="middle" x="627" y="-250.5" font-family="Helvetica,sans-Serif" font-size="10.00">List&lt; machine.Ref &gt;</text>
</a>
</g>
</g>
<!-- Node37&#45;&gt;Node36 -->
<g id="edge52" class="edge">
<title>Node37&#45;&gt;Node36</title>
<path fill="none" stroke="#9a32cd" stroke-dasharray="5,2" d="M690.32,-252.79C749.06,-252.59 835.14,-252.29 883.83,-252.13"/>
<polygon fill="#9a32cd" stroke="#9a32cd" points="690.03,-249.29 680.04,-252.82 690.06,-256.29 690.03,-249.29"/>
<text text-anchor="middle" x="779" y="-256" font-family="Helvetica,sans-Serif" font-size="10.00"> list_</text>
</g>
<!-- Node38&#45;&gt;Node18 -->
<g id="edge53" class="edge">
<title>Node38&#45;&gt;Node18</title>
<path fill="none" stroke="#9a32cd" stroke-dasharray="5,2" d="M383.3,-163.89C477.93,-150.17 808.63,-111.68 1058,-200 1083.06,-208.88 1106.85,-229.71 1119.53,-242.14"/>
<polygon fill="#9a32cd" stroke="#9a32cd" points="382.57,-160.46 373.19,-165.39 383.6,-167.38 382.57,-160.46"/>
<text text-anchor="middle" x="779" y="-155" font-family="Helvetica,sans-Serif" font-size="10.00"> rootCall</text>
</g>
<!-- Node39 -->
<g id="node37" class="node">
<title>Node39</title>
<g id="a_node37"><a xlink:title=" ">
<polygon fill="white" stroke="#bfbfbf" points="5,-83.5 5,-102.5 108,-102.5 108,-83.5 5,-83.5"/>
<text text-anchor="middle" x="56.5" y="-90.5" font-family="Helvetica,sans-Serif" font-size="10.00">CustomFormattable</text>
</a>
</g>
</g>
<!-- Node39&#45;&gt;Node38 -->
<g id="edge54" class="edge">
<title>Node39&#45;&gt;Node38</title>
<path fill="none" stroke="midnightblue" d="M118.32,-92.33C159.26,-93.48 213.97,-98.17 260,-113 292.11,-123.34 325.23,-145.68 342.62,-158.47"/>
<polygon fill="midnightblue" stroke="midnightblue" points="118.29,-88.83 108.22,-92.11 118.14,-95.83 118.29,-88.83"/>
</g>
<!-- Node39&#45;&gt;Node41 -->
<g id="edge59" class="edge">
<title>Node39&#45;&gt;Node41</title>
<path fill="none" stroke="midnightblue" d="M118.21,-88.84C122.54,-88.56 126.84,-88.27 131,-88 204.1,-83.23 290.64,-77.92 331.45,-75.43"/>
<polygon fill="midnightblue" stroke="midnightblue" points="117.85,-85.36 108.11,-89.52 118.32,-92.34 117.85,-85.36"/>
</g>
<!-- Node40 -->
<g id="node38" class="node">
<title>Node40</title>
<g id="a_node38"><a xlink:title=" ">
<polygon fill="white" stroke="#bfbfbf" points="850,-109 850,-139 994,-139 994,-109 850,-109"/>
<text text-anchor="start" x="858" y="-127" font-family="Helvetica,sans-Serif" font-size="10.00">HashMap&lt; Integer, ast.Block</text>
<text text-anchor="middle" x="922" y="-116" font-family="Helvetica,sans-Serif" font-size="10.00">Base &gt;</text>
</a>
</g>
</g>
<!-- Node40&#45;&gt;Node18 -->
<g id="edge57" class="edge">
<title>Node40&#45;&gt;Node18</title>
<path fill="none" stroke="#9a32cd" stroke-dasharray="5,2" d="M1004.26,-124.22C1023,-127.21 1042.09,-132.88 1058,-143 1096.3,-167.37 1118.23,-220.67 1125.88,-242.44"/>
<polygon fill="#9a32cd" stroke="#9a32cd" points="1004.59,-120.73 994.21,-122.85 1003.65,-127.67 1004.59,-120.73"/>
<text text-anchor="middle" x="1035" y="-146" font-family="Helvetica,sans-Serif" font-size="10.00"> ruleList</text>
</g>
<!-- Node41&#45;&gt;Node18 -->
<g id="edge58" class="edge">
<title>Node41&#45;&gt;Node18</title>
<path fill="none" stroke="#9a32cd" stroke-dasharray="5,2" d="M390.97,-71.73C486.84,-66.09 767.26,-54.9 994,-99 1023.67,-104.77 1035.04,-102.34 1058,-122 1097.85,-156.11 1119.28,-218.41 1126.33,-242.31"/>
<polygon fill="#9a32cd" stroke="#9a32cd" points="390.49,-68.25 380.72,-72.35 390.92,-75.24 390.49,-68.25"/>
<text text-anchor="middle" x="779" y="-80" font-family="Helvetica,sans-Serif" font-size="10.00"> loopMask_</text>
</g>
<!-- Node42 -->
<g id="node40" class="node">
<title>Node42</title>
<g id="a_node40"><a xlink:title=" ">
<polygon fill="white" stroke="#bfbfbf" points="16.5,-38.5 16.5,-57.5 96.5,-57.5 96.5,-38.5 16.5,-38.5"/>
<text text-anchor="middle" x="56.5" y="-45.5" font-family="Helvetica,sans-Serif" font-size="10.00">List&lt; Integer &gt;</text>
</a>
</g>
</g>
<!-- Node42&#45;&gt;Node41 -->
<g id="edge61" class="edge">
<title>Node42&#45;&gt;Node41</title>
<path fill="none" stroke="#9a32cd" stroke-dasharray="5,2" d="M106.71,-51.98C147.73,-55.34 207.68,-60.33 260,-65 284.26,-67.17 311.98,-69.81 331.19,-71.67"/>
<polygon fill="#9a32cd" stroke="#9a32cd" points="106.96,-48.49 96.71,-51.17 106.39,-55.47 106.96,-48.49"/>
<text text-anchor="middle" x="195.5" y="-68" font-family="Helvetica,sans-Serif" font-size="10.00"> idlist</text>
</g>
<!-- Node43 -->
<g id="node41" class="node">
<title>Node43</title>
<g id="a_node41"><a xlink:title=" ">
<polygon fill="white" stroke="#bfbfbf" points="39,-0.5 39,-19.5 74,-19.5 74,-0.5 39,-0.5"/>
<text text-anchor="middle" x="56.5" y="-7.5" font-family="Helvetica,sans-Serif" font-size="10.00">long</text>
</a>
</g>
</g>
<!-- Node43&#45;&gt;Node41 -->
<g id="edge62" class="edge">
<title>Node43&#45;&gt;Node41</title>
<path fill="none" stroke="#9a32cd" stroke-dasharray="5,2" d="M84.29,-12.28C123.36,-15.98 198.08,-24.49 260,-40 285.32,-46.34 313.35,-56.82 332.35,-64.47"/>
<polygon fill="#9a32cd" stroke="#9a32cd" points="84.53,-8.78 74.25,-11.36 83.89,-15.76 84.53,-8.78"/>
<text text-anchor="middle" x="195.5" y="-43" font-family="Helvetica,sans-Serif" font-size="10.00"> MASK_STATE</text>
</g>
</g>
</svg>
