<?xml version="1.0" encoding="UTF-8" standalone="no"?>
<!DOCTYPE svg PUBLIC "-//W3C//DTD SVG 1.1//EN"
 "http://www.w3.org/Graphics/SVG/1.1/DTD/svg11.dtd">
<!-- Generated by graphviz version 2.47.0 (20210316.0004)
 -->
<!-- Title: addIndent Pages: 1 -->
<svg width="652pt" height="142pt"
 viewBox="0.00 0.00 652.00 142.00" xmlns="http://www.w3.org/2000/svg" xmlns:xlink="http://www.w3.org/1999/xlink">
<g id="graph0" class="graph" transform="scale(1 1) rotate(0) translate(4 138)">
<title>addIndent</title>
<polygon fill="white" stroke="transparent" points="-4,4 -4,-138 648,-138 648,4 -4,4"/>
<!-- Node1 -->
<g id="node1" class="node">
<title>Node1</title>
<g id="a_node1"><a xlink:title="配列モードで、文字列valueを正しい段下げでバッファに追加する。">
<polygon fill="#bfbfbf" stroke="black" points="0,-57.5 0,-76.5 59,-76.5 59,-57.5 0,-57.5"/>
<text text-anchor="middle" x="29.5" y="-64.5" font-family="Helvetica,sans-Serif" font-size="10.00">addIndent</text>
</a>
</g>
</g>
<!-- Node2 -->
<g id="node2" class="node">
<title>Node2</title>
<g id="a_node2"><a xlink:href="classutil_1_1_yaml_buf.html#a50f6097b032e431f7d3340bdd3768d9f" target="_top" xlink:title="入れ子文字列を、正しく段下げしながら読み込む。">
<polygon fill="white" stroke="black" points="95,-38.5 95,-57.5 155,-57.5 155,-38.5 95,-38.5"/>
<text text-anchor="middle" x="125" y="-45.5" font-family="Helvetica,sans-Serif" font-size="10.00">includeStr</text>
</a>
</g>
</g>
<!-- Node1&#45;&gt;Node2 -->
<g id="edge1" class="edge">
<title>Node1&#45;&gt;Node2</title>
<path fill="none" stroke="midnightblue" d="M59.06,-61.2C67.24,-59.53 76.31,-57.69 85,-55.92"/>
<polygon fill="midnightblue" stroke="midnightblue" points="85.87,-59.32 94.97,-53.9 84.47,-52.46 85.87,-59.32"/>
</g>
<!-- Node4 -->
<g id="node4" class="node">
<title>Node4</title>
<g id="a_node4"><a xlink:href="classutil_1_1_foldable_string_buf.html#a2b018a5847ca3b5c67456ad721e23ba4" target="_top" xlink:title="文字列を出力する">
<polygon fill="white" stroke="black" points="362.5,-0.5 362.5,-19.5 486.5,-19.5 486.5,-0.5 362.5,-0.5"/>
<text text-anchor="middle" x="424.5" y="-7.5" font-family="Helvetica,sans-Serif" font-size="10.00">util.FoldableStringBuf.str</text>
</a>
</g>
</g>
<!-- Node1&#45;&gt;Node4 -->
<g id="edge16" class="edge">
<title>Node1&#45;&gt;Node4</title>
<path fill="none" stroke="midnightblue" d="M42.98,-57.18C55.39,-48.05 75.35,-34.97 95,-29 180.65,-2.97 284.53,-1.68 352.23,-4.61"/>
<polygon fill="midnightblue" stroke="midnightblue" points="352.21,-8.11 362.37,-5.09 352.54,-1.12 352.21,-8.11"/>
</g>
<!-- Node9 -->
<g id="node7" class="node">
<title>Node9</title>
<g id="a_node7"><a xlink:href="classutil_1_1_foldable_string_buf.html#ab3d4d59d8a1bb8f1cffeef544c66c052" target="_top" xlink:title="改行を出力する.">
<polygon fill="white" stroke="black" points="195,-76.5 195,-95.5 315,-95.5 315,-76.5 195,-76.5"/>
<text text-anchor="middle" x="255" y="-83.5" font-family="Helvetica,sans-Serif" font-size="10.00">util.FoldableStringBuf.nl</text>
</a>
</g>
</g>
<!-- Node1&#45;&gt;Node9 -->
<g id="edge13" class="edge">
<title>Node1&#45;&gt;Node9</title>
<path fill="none" stroke="midnightblue" d="M59.26,-69.45C90.74,-72.12 142.34,-76.51 184.52,-80.09"/>
<polygon fill="midnightblue" stroke="midnightblue" points="184.48,-83.6 194.74,-80.96 185.08,-76.63 184.48,-83.6"/>
</g>
<!-- Node11 -->
<g id="node9" class="node">
<title>Node11</title>
<g id="a_node9"><a xlink:href="classutil_1_1_yaml_buf.html#a5005fc24515d55a5b8984d5c7f2e78c1" target="_top" xlink:title="調整された空白をバッファに追加する">
<polygon fill="white" stroke="black" points="103.5,-114.5 103.5,-133.5 146.5,-133.5 146.5,-114.5 103.5,-114.5"/>
<text text-anchor="middle" x="125" y="-121.5" font-family="Helvetica,sans-Serif" font-size="10.00">space</text>
</a>
</g>
</g>
<!-- Node1&#45;&gt;Node11 -->
<g id="edge14" class="edge">
<title>Node1&#45;&gt;Node11</title>
<path fill="none" stroke="midnightblue" d="M46.36,-76.67C60.96,-85.57 82.82,-98.9 99.63,-109.14"/>
<polygon fill="midnightblue" stroke="midnightblue" points="98.01,-112.26 108.37,-114.47 101.66,-106.28 98.01,-112.26"/>
</g>
<!-- Node3 -->
<g id="node3" class="node">
<title>Node3</title>
<g id="a_node3"><a xlink:href="classutil_1_1_foldable_string_buf.html#aaa1e91437222f9467827a35ccfecbdb7" target="_top" xlink:title="バッファの末尾に文字c を追加する.">
<polygon fill="white" stroke="black" points="191,-38.5 191,-57.5 319,-57.5 319,-38.5 191,-38.5"/>
<text text-anchor="middle" x="255" y="-45.5" font-family="Helvetica,sans-Serif" font-size="10.00">util.FoldableStringBuf.add</text>
</a>
</g>
</g>
<!-- Node2&#45;&gt;Node3 -->
<g id="edge2" class="edge">
<title>Node2&#45;&gt;Node3</title>
<path fill="none" stroke="midnightblue" d="M155.05,-48C162.82,-48 171.58,-48 180.6,-48"/>
<polygon fill="midnightblue" stroke="midnightblue" points="180.85,-51.5 190.85,-48 180.85,-44.5 180.85,-51.5"/>
</g>
<!-- Node2&#45;&gt;Node9 -->
<g id="edge7" class="edge">
<title>Node2&#45;&gt;Node9</title>
<path fill="none" stroke="midnightblue" d="M155.05,-56.62C171.93,-61.63 193.49,-68.04 212.17,-73.58"/>
<polygon fill="midnightblue" stroke="midnightblue" points="211.34,-76.99 221.92,-76.48 213.33,-70.28 211.34,-76.99"/>
</g>
<!-- Node3&#45;&gt;Node4 -->
<g id="edge3" class="edge">
<title>Node3&#45;&gt;Node4</title>
<path fill="none" stroke="midnightblue" d="M298.27,-38.41C320.57,-33.35 348.12,-27.1 371.7,-21.75"/>
<polygon fill="midnightblue" stroke="midnightblue" points="372.56,-25.15 381.54,-19.52 371.01,-18.32 372.56,-25.15"/>
</g>
<!-- Node5 -->
<g id="node5" class="node">
<title>Node5</title>
<g id="a_node5"><a xlink:href="classutil_1_1_string_buf.html#a2dc9e4579aee8516f9402d5ab3eac5eb" target="_top" xlink:title="バッファの末尾に文字列{str} を連結する.">
<polygon fill="white" stroke="red" points="533.5,-76.5 533.5,-95.5 640.5,-95.5 640.5,-76.5 533.5,-76.5"/>
<text text-anchor="middle" x="587" y="-83.5" font-family="Helvetica,sans-Serif" font-size="10.00">util.StringBuf.append</text>
</a>
</g>
</g>
<!-- Node4&#45;&gt;Node5 -->
<g id="edge4" class="edge">
<title>Node4&#45;&gt;Node5</title>
<path fill="none" stroke="midnightblue" d="M441.01,-19.56C461.05,-31.66 497.26,-52.64 530,-67 534.81,-69.11 539.94,-71.14 545.06,-73.03"/>
<polygon fill="midnightblue" stroke="midnightblue" points="544.23,-76.45 554.83,-76.48 546.57,-69.85 544.23,-76.45"/>
</g>
<!-- Node7 -->
<g id="node6" class="node">
<title>Node7</title>
<g id="a_node6"><a xlink:href="classutil_1_1_trace_level.html#a163bdc94e3e530c147c8fcd59f9f01f4" target="_top" xlink:title="モジュールnameの現在のトレースレベルが{level}以上かを返す。モジュールのレベルが登録されていなければ、全体のトレースレベルを返す。">
<polygon fill="white" stroke="red" points="530,-38.5 530,-57.5 644,-57.5 644,-38.5 530,-38.5"/>
<text text-anchor="middle" x="587" y="-45.5" font-family="Helvetica,sans-Serif" font-size="10.00">util.TraceLevel.LEVEL</text>
</a>
</g>
</g>
<!-- Node4&#45;&gt;Node7 -->
<g id="edge6" class="edge">
<title>Node4&#45;&gt;Node7</title>
<path fill="none" stroke="midnightblue" d="M466,-19.59C487.18,-24.6 513.3,-30.79 535.76,-36.11"/>
<polygon fill="midnightblue" stroke="midnightblue" points="535.25,-39.58 545.79,-38.48 536.87,-32.77 535.25,-39.58"/>
</g>
<!-- Node5&#45;&gt;Node5 -->
<g id="edge5" class="edge">
<title>Node5&#45;&gt;Node5</title>
<path fill="none" stroke="midnightblue" d="M562.03,-95.76C549.88,-104.57 558.21,-114 587,-114 606.35,-114 616.45,-109.74 617.31,-104.27"/>
<polygon fill="midnightblue" stroke="midnightblue" points="620.25,-102.37 611.97,-95.76 614.32,-106.09 620.25,-102.37"/>
</g>
<!-- Node9&#45;&gt;Node5 -->
<g id="edge8" class="edge">
<title>Node9&#45;&gt;Node5</title>
<path fill="none" stroke="midnightblue" d="M315.38,-86C374.06,-86 463.48,-86 523.29,-86"/>
<polygon fill="midnightblue" stroke="midnightblue" points="523.36,-89.5 533.36,-86 523.36,-82.5 523.36,-89.5"/>
</g>
<!-- Node9&#45;&gt;Node7 -->
<g id="edge9" class="edge">
<title>Node9&#45;&gt;Node7</title>
<path fill="none" stroke="midnightblue" d="M315.38,-79.16C372.92,-72.54 460.01,-62.51 519.77,-55.63"/>
<polygon fill="midnightblue" stroke="midnightblue" points="520.32,-59.09 529.85,-54.47 519.52,-52.13 520.32,-59.09"/>
</g>
<!-- Node10 -->
<g id="node8" class="node">
<title>Node10</title>
<g id="a_node8"><a xlink:href="classutil_1_1_foldable_string_buf.html#a186579e7cd763dada34bcdc6c8f8f209" target="_top" xlink:title="空白を出力する.">
<polygon fill="white" stroke="black" points="355,-114.5 355,-133.5 494,-133.5 494,-114.5 355,-114.5"/>
<text text-anchor="middle" x="424.5" y="-121.5" font-family="Helvetica,sans-Serif" font-size="10.00">util.FoldableStringBuf.space</text>
</a>
</g>
</g>
<!-- Node9&#45;&gt;Node10 -->
<g id="edge10" class="edge">
<title>Node9&#45;&gt;Node10</title>
<path fill="none" stroke="midnightblue" d="M298.27,-95.59C320.57,-100.65 348.12,-106.9 371.7,-112.25"/>
<polygon fill="midnightblue" stroke="midnightblue" points="371.01,-115.68 381.54,-114.48 372.56,-108.85 371.01,-115.68"/>
</g>
<!-- Node10&#45;&gt;Node5 -->
<g id="edge11" class="edge">
<title>Node10&#45;&gt;Node5</title>
<path fill="none" stroke="midnightblue" d="M466,-114.41C487.18,-109.4 513.3,-103.21 535.76,-97.89"/>
<polygon fill="midnightblue" stroke="midnightblue" points="536.87,-101.23 545.79,-95.52 535.25,-94.42 536.87,-101.23"/>
</g>
<!-- Node10&#45;&gt;Node7 -->
<g id="edge12" class="edge">
<title>Node10&#45;&gt;Node7</title>
<path fill="none" stroke="midnightblue" d="M441.01,-114.44C461.05,-102.34 497.26,-81.36 530,-67 534.81,-64.89 539.94,-62.86 545.06,-60.97"/>
<polygon fill="midnightblue" stroke="midnightblue" points="546.57,-64.15 554.83,-57.52 544.23,-57.55 546.57,-64.15"/>
</g>
<!-- Node11&#45;&gt;Node10 -->
<g id="edge15" class="edge">
<title>Node11&#45;&gt;Node10</title>
<path fill="none" stroke="midnightblue" d="M146.92,-124C187.37,-124 278.16,-124 344.73,-124"/>
<polygon fill="midnightblue" stroke="midnightblue" points="344.79,-127.5 354.79,-124 344.79,-120.5 344.79,-127.5"/>
</g>
</g>
</svg>
