<?xml version="1.0" encoding="UTF-8" standalone="no"?>
<!DOCTYPE svg PUBLIC "-//W3C//DTD SVG 1.1//EN"
 "http://www.w3.org/Graphics/SVG/1.1/DTD/svg11.dtd">
<!-- Generated by graphviz version 2.47.0 (20210316.0004)
 -->
<!-- Title: addGetterAndSetter Pages: 1 -->
<svg width="286pt" height="66pt"
 viewBox="0.00 0.00 286.00 66.00" xmlns="http://www.w3.org/2000/svg" xmlns:xlink="http://www.w3.org/1999/xlink">
<g id="graph0" class="graph" transform="scale(1 1) rotate(0) translate(4 62)">
<title>addGetterAndSetter</title>
<polygon fill="white" stroke="transparent" points="-4,4 -4,-62 282,-62 282,4 -4,4"/>
<!-- Node1 -->
<g id="node1" class="node">
<title>Node1</title>
<g id="a_node1"><a xlink:title="次の子のField名と，Getter，Setter，型を設定し，子の添字idxを返す．">
<polygon fill="#bfbfbf" stroke="black" points="0,-19.5 0,-38.5 103,-38.5 103,-19.5 0,-19.5"/>
<text text-anchor="middle" x="51.5" y="-26.5" font-family="Helvetica,sans-Serif" font-size="10.00">addGetterAndSetter</text>
</a>
</g>
</g>
<!-- Node2 -->
<g id="node2" class="node">
<title>Node2</title>
<g id="a_node2"><a xlink:href="interfacetype_1_1_typable.html#aa7232c3fd7a09d8287be32ad607556b6" target="_top" xlink:title="子として，型をもつ型項を追加する．">
<polygon fill="white" stroke="black" points="152,-38.5 152,-57.5 265,-57.5 265,-38.5 152,-38.5"/>
<text text-anchor="middle" x="208.5" y="-45.5" font-family="Helvetica,sans-Serif" font-size="10.00">type.Typable.addChild</text>
</a>
</g>
</g>
<!-- Node1&#45;&gt;Node2 -->
<g id="edge1" class="edge">
<title>Node1&#45;&gt;Node2</title>
<path fill="none" stroke="midnightblue" d="M103.25,-35.22C115.51,-36.72 128.79,-38.35 141.64,-39.93"/>
<polygon fill="midnightblue" stroke="midnightblue" points="141.46,-43.43 151.82,-41.17 142.32,-36.48 141.46,-43.43"/>
</g>
<!-- Node3 -->
<g id="node3" class="node">
<title>Node3</title>
<g id="a_node3"><a xlink:href="classast_1_1_ast_node_base.html#adfc6b93e5d1b92cba301a9a917fe372c" target="_top" xlink:title="ノードの演算型を返す。">
<polygon fill="white" stroke="black" points="139,-0.5 139,-19.5 278,-19.5 278,-0.5 139,-0.5"/>
<text text-anchor="middle" x="208.5" y="-7.5" font-family="Helvetica,sans-Serif" font-size="10.00">ast.AstNodeBase.getTyping</text>
</a>
</g>
</g>
<!-- Node1&#45;&gt;Node3 -->
<g id="edge2" class="edge">
<title>Node1&#45;&gt;Node3</title>
<path fill="none" stroke="midnightblue" d="M103.25,-22.78C111.44,-21.78 120.08,-20.72 128.74,-19.65"/>
<polygon fill="midnightblue" stroke="midnightblue" points="129.39,-23.1 138.89,-18.41 128.54,-16.15 129.39,-23.1"/>
</g>
</g>
</svg>
