<?xml version="1.0" encoding="UTF-8" standalone="no"?>
<!DOCTYPE svg PUBLIC "-//W3C//DTD SVG 1.1//EN"
 "http://www.w3.org/Graphics/SVG/1.1/DTD/svg11.dtd">
<!-- Generated by graphviz version 2.47.1 (20210417.1919)
 -->
<!-- Title: gencode Pages: 1 -->
<svg width="697pt" height="142pt"
 viewBox="0.00 0.00 697.00 142.00" xmlns="http://www.w3.org/2000/svg" xmlns:xlink="http://www.w3.org/1999/xlink">
<g id="graph0" class="graph" transform="scale(1 1) rotate(0) translate(4 138)">
<title>gencode</title>
<polygon fill="white" stroke="transparent" points="-4,4 -4,-138 693,-138 693,4 -4,4"/>
<!-- Node1 -->
<g id="node1" class="node">
<title>Node1</title>
<g id="a_node1"><a xlink:title="コードを生成する．">
<polygon fill="#bfbfbf" stroke="black" points="0,-38.5 0,-57.5 53,-57.5 53,-38.5 0,-38.5"/>
<text text-anchor="middle" x="26.5" y="-45.5" font-family="Helvetica,sans-Serif" font-size="10.00">gencode</text>
</a>
</g>
</g>
<!-- Node2 -->
<g id="node2" class="node">
<title>Node2</title>
<g id="a_node2"><a xlink:href="classast_1_1_ast_oper.html#aade0b6f6dbcac3769520224b8b04130c" target="_top" xlink:title="二つの非演算子である子供のコードを生成す">
<polygon fill="white" stroke="black" points="89,-57.5 89,-76.5 244,-76.5 244,-57.5 89,-57.5"/>
<text text-anchor="middle" x="166.5" y="-64.5" font-family="Helvetica,sans-Serif" font-size="10.00">ast.AstOper.generateChildCode</text>
</a>
</g>
</g>
<!-- Node1&#45;&gt;Node2 -->
<g id="edge1" class="edge">
<title>Node1&#45;&gt;Node2</title>
<path fill="none" stroke="midnightblue" d="M53.13,-51.53C62.75,-52.85 74.27,-54.44 86.2,-56.08"/>
<polygon fill="midnightblue" stroke="midnightblue" points="85.91,-59.57 96.29,-57.47 86.86,-52.64 85.91,-59.57"/>
</g>
<!-- Node10 -->
<g id="node10" class="node">
<title>Node10</title>
<g id="a_node10"><a xlink:href="classast_1_1_ast_node.html#a35d53cdd86285e56b69cfedc5ef28580" target="_top" xlink:title="i番目の子供を返す.">
<polygon fill="white" stroke="black" points="111.5,-19.5 111.5,-38.5 221.5,-38.5 221.5,-19.5 111.5,-19.5"/>
<text text-anchor="middle" x="166.5" y="-26.5" font-family="Helvetica,sans-Serif" font-size="10.00">ast.AstNode.getChild</text>
</a>
</g>
</g>
<!-- Node1&#45;&gt;Node10 -->
<g id="edge11" class="edge">
<title>Node1&#45;&gt;Node10</title>
<path fill="none" stroke="midnightblue" d="M53.13,-44.47C66.82,-42.59 84.33,-40.18 101.43,-37.82"/>
<polygon fill="midnightblue" stroke="midnightblue" points="101.99,-41.28 111.42,-36.45 101.04,-34.34 101.99,-41.28"/>
</g>
<!-- Node3 -->
<g id="node3" class="node">
<title>Node3</title>
<g id="a_node3"><a xlink:href="classutil_1_1_util.html#ae411a90dd0a4a15776ea6eb5f0cbae13" target="_top" xlink:title="与えられた文字列を標準出力に印刷して、プログラムを強制停止する。">
<polygon fill="white" stroke="black" points="282,-114.5 282,-133.5 369,-133.5 369,-114.5 282,-114.5"/>
<text text-anchor="middle" x="325.5" y="-121.5" font-family="Helvetica,sans-Serif" font-size="10.00">util.Util.errorExit</text>
</a>
</g>
</g>
<!-- Node2&#45;&gt;Node3 -->
<g id="edge2" class="edge">
<title>Node2&#45;&gt;Node3</title>
<path fill="none" stroke="midnightblue" d="M193.78,-76.54C219.7,-85.95 259.53,-100.41 288.42,-110.9"/>
<polygon fill="midnightblue" stroke="midnightblue" points="287.54,-114.31 298.14,-114.43 289.93,-107.73 287.54,-114.31"/>
</g>
<!-- Node5 -->
<g id="node5" class="node">
<title>Node5</title>
<g id="a_node5"><a xlink:href="interfacetype_1_1_typable.html#abcd711b709d52806e817ddb836274348" target="_top" xlink:title=" ">
<polygon fill="white" stroke="black" points="280,-76.5 280,-95.5 371,-95.5 371,-76.5 280,-76.5"/>
<text text-anchor="middle" x="325.5" y="-83.5" font-family="Helvetica,sans-Serif" font-size="10.00">type.Typable.self</text>
</a>
</g>
</g>
<!-- Node2&#45;&gt;Node5 -->
<g id="edge4" class="edge">
<title>Node2&#45;&gt;Node5</title>
<path fill="none" stroke="midnightblue" d="M244.16,-76.28C252.7,-77.31 261.27,-78.35 269.46,-79.34"/>
<polygon fill="midnightblue" stroke="midnightblue" points="269.25,-82.84 279.6,-80.57 270.1,-75.89 269.25,-82.84"/>
</g>
<!-- Node6 -->
<g id="node6" class="node">
<title>Node6</title>
<g id="a_node6"><a xlink:href="classtype_1_1_x_item.html#a376d814d15cc5ae21afd6425d0780ad9" target="_top" xlink:title="この型変数thisがもつ値型を返す。">
<polygon fill="white" stroke="black" points="287.5,-38.5 287.5,-57.5 363.5,-57.5 363.5,-38.5 287.5,-38.5"/>
<text text-anchor="middle" x="325.5" y="-45.5" font-family="Helvetica,sans-Serif" font-size="10.00">type.XItem.ty</text>
</a>
</g>
</g>
<!-- Node2&#45;&gt;Node6 -->
<g id="edge5" class="edge">
<title>Node2&#45;&gt;Node6</title>
<path fill="none" stroke="midnightblue" d="M244.16,-57.72C255.49,-56.35 266.86,-54.98 277.35,-53.71"/>
<polygon fill="midnightblue" stroke="midnightblue" points="277.99,-57.15 287.5,-52.48 277.15,-50.2 277.99,-57.15"/>
</g>
<!-- Node9 -->
<g id="node9" class="node">
<title>Node9</title>
<g id="a_node9"><a xlink:href="interfaceast_1_1_node.html#a2ef381509e2e7abf437394ba4c53686c" target="_top" xlink:title="ノードの演算型を返す。">
<polygon fill="white" stroke="black" points="282.5,-0.5 282.5,-19.5 368.5,-19.5 368.5,-0.5 282.5,-0.5"/>
<text text-anchor="middle" x="325.5" y="-7.5" font-family="Helvetica,sans-Serif" font-size="10.00">ast.Node.typing</text>
</a>
</g>
</g>
<!-- Node2&#45;&gt;Node9 -->
<g id="edge10" class="edge">
<title>Node2&#45;&gt;Node9</title>
<path fill="none" stroke="midnightblue" d="M213.77,-57.42C223.87,-54.8 234.41,-51.66 244,-48 260.9,-41.55 263.67,-36.78 280,-29 283.84,-27.17 287.9,-25.32 291.95,-23.53"/>
<polygon fill="midnightblue" stroke="midnightblue" points="293.46,-26.69 301.24,-19.5 290.68,-20.27 293.46,-26.69"/>
</g>
<!-- Node4 -->
<g id="node4" class="node">
<title>Node4</title>
<g id="a_node4"><a xlink:href="classutil_1_1_util.html#a7c4b5534ff284b188f83399c344c89c8" target="_top" xlink:title="スタックトレースを出力する。">
<polygon fill="white" stroke="black" points="407,-114.5 407,-133.5 532,-133.5 532,-114.5 407,-114.5"/>
<text text-anchor="middle" x="469.5" y="-121.5" font-family="Helvetica,sans-Serif" font-size="10.00">util.Util.reportStackTrace</text>
</a>
</g>
</g>
<!-- Node3&#45;&gt;Node4 -->
<g id="edge3" class="edge">
<title>Node3&#45;&gt;Node4</title>
<path fill="none" stroke="midnightblue" d="M369.1,-124C377.8,-124 387.18,-124 396.59,-124"/>
<polygon fill="midnightblue" stroke="midnightblue" points="396.76,-127.5 406.76,-124 396.76,-120.5 396.76,-127.5"/>
</g>
<!-- Node7 -->
<g id="node7" class="node">
<title>Node7</title>
<g id="a_node7"><a xlink:href="classtype_1_1_union_find_item.html#a9389ec55354a215f76de769c1e149985" target="_top" xlink:title="与えられた元が属する同値類の代表元を返す。">
<polygon fill="white" stroke="black" points="568,-38.5 568,-57.5 689,-57.5 689,-38.5 568,-38.5"/>
<text text-anchor="middle" x="628.5" y="-45.5" font-family="Helvetica,sans-Serif" font-size="10.00">type.UnionFindItem.find</text>
</a>
</g>
</g>
<!-- Node6&#45;&gt;Node7 -->
<g id="edge6" class="edge">
<title>Node6&#45;&gt;Node7</title>
<path fill="none" stroke="midnightblue" d="M363.71,-48C411.96,-48 497.08,-48 557.58,-48"/>
<polygon fill="midnightblue" stroke="midnightblue" points="557.82,-51.5 567.82,-48 557.82,-44.5 557.82,-51.5"/>
</g>
<!-- Node8 -->
<g id="node8" class="node">
<title>Node8</title>
<g id="a_node8"><a xlink:href="classtype_1_1_union_find_item.html#af6ea056c8af82f08af9fd0d857967f9b" target="_top" xlink:title="この元の同値類がもつT型の値を返す。">
<polygon fill="white" stroke="black" points="410,-19.5 410,-38.5 529,-38.5 529,-19.5 410,-19.5"/>
<text text-anchor="middle" x="469.5" y="-26.5" font-family="Helvetica,sans-Serif" font-size="10.00">type.UnionFindItem.get</text>
</a>
</g>
</g>
<!-- Node6&#45;&gt;Node8 -->
<g id="edge8" class="edge">
<title>Node6&#45;&gt;Node8</title>
<path fill="none" stroke="midnightblue" d="M363.81,-43.01C374.79,-41.54 387.16,-39.88 399.46,-38.24"/>
<polygon fill="midnightblue" stroke="midnightblue" points="400.29,-41.66 409.74,-36.86 399.36,-34.72 400.29,-41.66"/>
</g>
<!-- Node7&#45;&gt;Node7 -->
<g id="edge7" class="edge">
<title>Node7&#45;&gt;Node7</title>
<path fill="none" stroke="midnightblue" d="M604.15,-57.76C592.3,-66.57 600.42,-76 628.5,-76 646.93,-76 656.76,-71.94 657.99,-66.65"/>
<polygon fill="midnightblue" stroke="midnightblue" points="660.89,-64.66 652.85,-57.76 654.82,-68.17 660.89,-64.66"/>
</g>
<!-- Node8&#45;&gt;Node7 -->
<g id="edge9" class="edge">
<title>Node8&#45;&gt;Node7</title>
<path fill="none" stroke="midnightblue" d="M529.41,-36.13C538.61,-37.24 548.19,-38.4 557.61,-39.54"/>
<polygon fill="midnightblue" stroke="midnightblue" points="557.39,-43.04 567.74,-40.77 558.23,-36.09 557.39,-43.04"/>
</g>
</g>
</svg>
