<?xml version="1.0" encoding="UTF-8" standalone="no"?>
<!DOCTYPE svg PUBLIC "-//W3C//DTD SVG 1.1//EN"
 "http://www.w3.org/Graphics/SVG/1.1/DTD/svg11.dtd">
<!-- Generated by graphviz version 2.47.0 (20210316.0004)
 -->
<!-- Title: AstList Pages: 1 -->
<!--zoomable 582 -->
<svg id="main" version="1.1" xmlns="http://www.w3.org/2000/svg" xmlns:xlink="http://www.w3.org/1999/xlink" xml:space="preserve" onload="init(evt)">
<style type="text/css"><![CDATA[
.edge:hover path { stroke: red; }
.edge:hover polygon { stroke: red; fill: red; }
]]></style>
<script type="text/javascript"><![CDATA[
var edges = document.getElementsByTagName('g');
if (edges && edges.length) {
  for (var i=0;i<edges.length;i++) {
    if (edges[i].id.substr(0,4)=='edge') {
      edges[i].setAttribute('class','edge');
    }
  }
}
]]></script>
        <defs>
                <circle id="rim" cx="0" cy="0" r="7"/>
                <circle id="rim2" cx="0" cy="0" r="3.5"/>
                <g id="zoomPlus">
                        <use xlink:href="#rim" fill="#404040">
                                <set attributeName="fill" to="#808080" begin="zoomplus.mouseover" end="zoomplus.mouseout"/>
                        </use>
                        <path d="M-4,0h8M0,-4v8" fill="none" stroke="white" stroke-width="1.5" pointer-events="none"/>
                </g>
                <g id="zoomMin">
                        <use xlink:href="#rim" fill="#404040">
                                <set attributeName="fill" to="#808080" begin="zoomminus.mouseover" end="zoomminus.mouseout"/>
                        </use>
                        <path d="M-4,0h8" fill="none" stroke="white" stroke-width="1.5" pointer-events="none"/>
                </g>
                <g id="dirArrow">
                        <path fill="none" stroke="white" stroke-width="1.5" d="M0,-3.0v7 M-2.5,-0.5L0,-3.0L2.5,-0.5"/>
                </g>
               <g id="resetDef">
                       <use xlink:href="#rim2" fill="#404040">
                               <set attributeName="fill" to="#808080" begin="reset.mouseover" end="reset.mouseout"/>
                       </use>
               </g>
        </defs>

<script type="text/javascript">
var viewWidth = 877;
var viewHeight = 582;
var sectionId = 'dynsection-1';
</script>
<script xlink:href="svgpan.js"/>
<svg id="graph" class="graph">
<g id="viewport">
<title>AstList</title>
<polygon fill="white" stroke="transparent" points="-4,4 -4,-578 873,-578 873,4 -4,4"/>
<!-- Node1 -->
<g id="node1" class="node">
<title>Node1</title>
<g id="a_node1"><a xlink:title="リストのテンプレート.">
<polygon fill="#bfbfbf" stroke="black" points="822,-12.5 822,-31.5 869,-31.5 869,-12.5 822,-12.5"/>
<text text-anchor="middle" x="845.5" y="-19.5" font-family="Helvetica,sans-Serif" font-size="10.00">AstList</text>
</a>
</g>
</g>
<!-- Node2 -->
<g id="node2" class="node">
<title>Node2</title>
<g id="a_node2"><a xlink:href="classast_1_1_ast_node_branch.html" target="_top" xlink:title="タグなしの順アクセスの子供をもてる抽象構文木のノードのクラス。">
<polygon fill="white" stroke="black" points="699,-84.5 699,-103.5 785,-103.5 785,-84.5 699,-84.5"/>
<text text-anchor="middle" x="742" y="-91.5" font-family="Helvetica,sans-Serif" font-size="10.00">AstNodeBranch</text>
</a>
</g>
</g>
<!-- Node2&#45;&gt;Node1 -->
<g id="edge1" class="edge">
<title>Node2&#45;&gt;Node1</title>
<path fill="none" stroke="midnightblue" d="M764.95,-78.43C785.05,-64.17 814.16,-43.52 831.03,-31.56"/>
<polygon fill="midnightblue" stroke="midnightblue" points="762.82,-75.65 756.69,-84.29 766.87,-81.36 762.82,-75.65"/>
</g>
<!-- Node3 -->
<g id="node3" class="node">
<title>Node3</title>
<g id="a_node3"><a xlink:href="classast_1_1_ast_node.html" target="_top" xlink:title=" ">
<polygon fill="white" stroke="black" points="494.5,-401.5 494.5,-420.5 549.5,-420.5 549.5,-401.5 494.5,-401.5"/>
<text text-anchor="middle" x="522" y="-408.5" font-family="Helvetica,sans-Serif" font-size="10.00">AstNode</text>
</a>
</g>
</g>
<!-- Node3&#45;&gt;Node2 -->
<g id="edge2" class="edge">
<title>Node3&#45;&gt;Node2</title>
<path fill="none" stroke="midnightblue" d="M535.51,-392.8C576.16,-333.69 703.65,-148.32 734.32,-103.72"/>
<polygon fill="midnightblue" stroke="midnightblue" points="532.55,-390.94 529.76,-401.17 538.31,-394.91 532.55,-390.94"/>
</g>
<!-- Node4 -->
<g id="node4" class="node">
<title>Node4</title>
<g id="a_node4"><a xlink:href="interfaceformat_1_1_x_formattable.html" target="_top" xlink:title="入れ子フォーマット出力可能なオブジェクトのインタフェース。">
<polygon fill="white" stroke="black" points="0,-484.5 0,-503.5 75,-503.5 75,-484.5 0,-484.5"/>
<text text-anchor="middle" x="37.5" y="-491.5" font-family="Helvetica,sans-Serif" font-size="10.00">XFormattable</text>
</a>
</g>
</g>
<!-- Node4&#45;&gt;Node3 -->
<g id="edge3" class="edge">
<title>Node4&#45;&gt;Node3</title>
<path fill="none" stroke="midnightblue" d="M85.29,-496.04C178.36,-499.2 382.59,-501.4 439,-463 454.12,-452.71 442.71,-437.42 457,-426 467.52,-417.59 481.94,-413.75 494.43,-412.05"/>
<polygon fill="midnightblue" stroke="midnightblue" points="85.16,-492.53 75.04,-495.67 84.91,-499.53 85.16,-492.53"/>
</g>
<!-- Node12 -->
<g id="node12" class="node">
<title>Node12</title>
<g id="a_node12"><a xlink:href="interfaceformat_1_1_x_formattable_1_1_label_formattable.html" target="_top" xlink:title="カスタム清書出力器をもつオブジェクトのクラス．">
<polygon fill="white" stroke="black" points="112,-56.5 112,-75.5 265,-75.5 265,-56.5 112,-56.5"/>
<text text-anchor="middle" x="188.5" y="-63.5" font-family="Helvetica,sans-Serif" font-size="10.00">XFormattable.LabelFormattable</text>
</a>
</g>
</g>
<!-- Node4&#45;&gt;Node12 -->
<g id="edge12" class="edge">
<title>Node4&#45;&gt;Node12</title>
<path fill="none" stroke="midnightblue" d="M39.64,-474.01C44.16,-401.58 62.97,-154.03 112,-95 119.45,-86.03 130,-79.83 140.86,-75.55"/>
<polygon fill="midnightblue" stroke="midnightblue" points="36.12,-474.23 39.02,-484.42 43.11,-474.64 36.12,-474.23"/>
</g>
<!-- Node13 -->
<g id="node13" class="node">
<title>Node13</title>
<g id="a_node13"><a xlink:href="interfaceformat_1_1_x_formattable_1_1_typed_formattable.html" target="_top" xlink:title="ノードの型情報をもつ書式出力可能なオブジェクトのインタフェース．">
<polygon fill="white" stroke="black" points="283,-554.5 283,-573.5 439,-573.5 439,-554.5 283,-554.5"/>
<text text-anchor="middle" x="361" y="-561.5" font-family="Helvetica,sans-Serif" font-size="10.00">XFormattable.TypedFormattable</text>
</a>
</g>
</g>
<!-- Node4&#45;&gt;Node13 -->
<g id="edge14" class="edge">
<title>Node4&#45;&gt;Node13</title>
<path fill="none" stroke="midnightblue" d="M54.52,-511.21C68.31,-524.73 89.48,-542.63 112,-551 166.56,-571.29 232.54,-573.79 282.73,-571.63"/>
<polygon fill="midnightblue" stroke="midnightblue" points="56.81,-508.54 47.31,-503.86 51.82,-513.45 56.81,-508.54"/>
</g>
<!-- Node5 -->
<g id="node5" class="node">
<title>Node5</title>
<g id="a_node5"><a xlink:title=" ">
<polygon fill="white" stroke="#bfbfbf" points="167.5,-255.5 167.5,-274.5 209.5,-274.5 209.5,-255.5 167.5,-255.5"/>
<text text-anchor="middle" x="188.5" y="-262.5" font-family="Helvetica,sans-Serif" font-size="10.00">String</text>
</a>
</g>
</g>
<!-- Node5&#45;&gt;Node3 -->
<g id="edge4" class="edge">
<title>Node5&#45;&gt;Node3</title>
<path fill="none" stroke="#9a32cd" stroke-dasharray="5,2" d="M208.26,-281.3C226.17,-295.88 254.58,-316.52 283,-327 348.53,-351.17 374.55,-319.08 439,-346 469.51,-358.75 498.08,-386.22 512.05,-401.04"/>
<polygon fill="#9a32cd" stroke="#9a32cd" points="210.28,-278.43 200.36,-274.71 205.79,-283.8 210.28,-278.43"/>
<text text-anchor="middle" x="361" y="-360" font-family="Helvetica,sans-Serif" font-size="10.00"> MOD_AST</text>
<text text-anchor="middle" x="361" y="-349" font-family="Helvetica,sans-Serif" font-size="10.00">mod_</text>
</g>
<!-- Node15 -->
<g id="node15" class="node">
<title>Node15</title>
<g id="a_node15"><a xlink:href="classformat_1_1_style.html" target="_top" xlink:title="ノードの表示スタイルに関するプロパティのクラス.">
<polygon fill="white" stroke="black" points="502.5,-158.5 502.5,-177.5 541.5,-177.5 541.5,-158.5 502.5,-158.5"/>
<text text-anchor="middle" x="522" y="-165.5" font-family="Helvetica,sans-Serif" font-size="10.00">Style</text>
</a>
</g>
</g>
<!-- Node5&#45;&gt;Node15 -->
<g id="edge18" class="edge">
<title>Node5&#45;&gt;Node15</title>
<path fill="none" stroke="#9a32cd" stroke-dasharray="5,2" d="M205.6,-248.31C222.97,-231.46 252.29,-206.23 283,-194 322.87,-178.12 453.28,-170.94 502.22,-168.76"/>
<polygon fill="#9a32cd" stroke="#9a32cd" points="203.11,-245.84 198.5,-255.38 208.05,-250.8 203.11,-245.84"/>
<text text-anchor="middle" x="361" y="-274" font-family="Helvetica,sans-Serif" font-size="10.00"> childLPAD</text>
<text text-anchor="middle" x="361" y="-263" font-family="Helvetica,sans-Serif" font-size="10.00">childRPAD</text>
<text text-anchor="middle" x="361" y="-252" font-family="Helvetica,sans-Serif" font-size="10.00">name</text>
<text text-anchor="middle" x="361" y="-241" font-family="Helvetica,sans-Serif" font-size="10.00">operSTR</text>
<text text-anchor="middle" x="361" y="-230" font-family="Helvetica,sans-Serif" font-size="10.00">parenLPAD</text>
<text text-anchor="middle" x="361" y="-219" font-family="Helvetica,sans-Serif" font-size="10.00">parenLPAR</text>
<text text-anchor="middle" x="361" y="-208" font-family="Helvetica,sans-Serif" font-size="10.00">parenRPAD</text>
<text text-anchor="middle" x="361" y="-197" font-family="Helvetica,sans-Serif" font-size="10.00">parenRPAR</text>
</g>
<!-- Node6 -->
<g id="node6" class="node">
<title>Node6</title>
<g id="a_node6"><a xlink:title=" ">
<polygon fill="white" stroke="#bfbfbf" points="156,-446.5 156,-465.5 221,-465.5 221,-446.5 156,-446.5"/>
<text text-anchor="middle" x="188.5" y="-453.5" font-family="Helvetica,sans-Serif" font-size="10.00">TraceLevel</text>
</a>
</g>
</g>
<!-- Node6&#45;&gt;Node3 -->
<g id="edge5" class="edge">
<title>Node6&#45;&gt;Node3</title>
<path fill="none" stroke="#9a32cd" stroke-dasharray="5,2" d="M231.23,-453.24C280.95,-449.58 366.42,-442.14 439,-430 457.59,-426.89 478.27,-422.09 494.21,-418.09"/>
<polygon fill="#9a32cd" stroke="#9a32cd" points="230.9,-449.75 221.18,-453.96 231.4,-456.74 230.9,-449.75"/>
<text text-anchor="middle" x="361" y="-451" font-family="Helvetica,sans-Serif" font-size="10.00"> LOG</text>
</g>
<!-- Node7 -->
<g id="node7" class="node">
<title>Node7</title>
<g id="a_node7"><a xlink:title=" ">
<polygon fill="white" stroke="#bfbfbf" points="152,-408.5 152,-427.5 225,-427.5 225,-408.5 152,-408.5"/>
<text text-anchor="middle" x="188.5" y="-415.5" font-family="Helvetica,sans-Serif" font-size="10.00">static Report</text>
</a>
</g>
</g>
<!-- Node7&#45;&gt;Node3 -->
<g id="edge6" class="edge">
<title>Node7&#45;&gt;Node3</title>
<path fill="none" stroke="#9a32cd" stroke-dasharray="5,2" d="M235.62,-417.03C306.01,-415.54 437.97,-412.75 494.35,-411.56"/>
<polygon fill="#9a32cd" stroke="#9a32cd" points="235.22,-413.53 225.29,-417.24 235.36,-420.53 235.22,-413.53"/>
<text text-anchor="middle" x="361" y="-418" font-family="Helvetica,sans-Serif" font-size="10.00"> repo</text>
</g>
<!-- Node8 -->
<g id="node8" class="node">
<title>Node8</title>
<g id="a_node8"><a xlink:title=" ">
<polygon fill="white" stroke="#bfbfbf" points="174,-104.5 174,-123.5 203,-123.5 203,-104.5 174,-104.5"/>
<text text-anchor="middle" x="188.5" y="-111.5" font-family="Helvetica,sans-Serif" font-size="10.00">int</text>
</a>
</g>
</g>
<!-- Node8&#45;&gt;Node2 -->
<g id="edge15" class="edge">
<title>Node8&#45;&gt;Node2</title>
<path fill="none" stroke="#9a32cd" stroke-dasharray="5,2" d="M213.08,-107.86C231.86,-103.29 258.92,-97.45 283,-95 435.48,-79.5 617.99,-86.77 698.86,-91.31"/>
<polygon fill="#9a32cd" stroke="#9a32cd" points="212.16,-104.48 203.31,-110.3 213.86,-111.27 212.16,-104.48"/>
<text text-anchor="middle" x="522" y="-111" font-family="Helvetica,sans-Serif" font-size="10.00"> BITMASK_PRINT_WIDTH</text>
<text text-anchor="middle" x="522" y="-100" font-family="Helvetica,sans-Serif" font-size="10.00">UNDEF</text>
<text text-anchor="middle" x="522" y="-89" font-family="Helvetica,sans-Serif" font-size="10.00">height</text>
</g>
<!-- Node8&#45;&gt;Node3 -->
<g id="edge7" class="edge">
<title>Node8&#45;&gt;Node3</title>
<path fill="none" stroke="#9a32cd" stroke-dasharray="5,2" d="M213.21,-117.04C232.11,-119.47 259.25,-122.95 283,-126 317.67,-130.45 412.25,-123.51 439,-146 449.41,-154.76 505.35,-354.58 518.31,-401.3"/>
<polygon fill="#9a32cd" stroke="#9a32cd" points="213.49,-113.55 203.13,-115.75 212.6,-120.49 213.49,-113.55"/>
<text text-anchor="middle" x="361" y="-160" font-family="Helvetica,sans-Serif" font-size="10.00"> BITMASK_PRINT_WIDTH</text>
<text text-anchor="middle" x="361" y="-149" font-family="Helvetica,sans-Serif" font-size="10.00">UNDEF</text>
</g>
<!-- Node8&#45;&gt;Node15 -->
<g id="edge19" class="edge">
<title>Node8&#45;&gt;Node15</title>
<path fill="none" stroke="#9a32cd" stroke-dasharray="5,2" d="M213.15,-108.74C258.67,-99.74 360.88,-85.12 439,-115 449,-118.82 448.32,-124.73 457,-131 471.57,-141.52 489.34,-151.6 502.46,-158.57"/>
<polygon fill="#9a32cd" stroke="#9a32cd" points="212.17,-105.36 203.09,-110.82 213.59,-112.22 212.17,-105.36"/>
<text text-anchor="middle" x="361" y="-118" font-family="Helvetica,sans-Serif" font-size="10.00"> pref</text>
</g>
<!-- Node9 -->
<g id="node9" class="node">
<title>Node9</title>
<g id="a_node9"><a xlink:href="interfacetype_1_1_typable.html" target="_top" xlink:title="抽象ノードがもつ関数型のインタフェース">
<polygon fill="white" stroke="black" points="163.5,-522.5 163.5,-541.5 213.5,-541.5 213.5,-522.5 163.5,-522.5"/>
<text text-anchor="middle" x="188.5" y="-529.5" font-family="Helvetica,sans-Serif" font-size="10.00">Typable</text>
</a>
</g>
</g>
<!-- Node9&#45;&gt;Node3 -->
<g id="edge8" class="edge">
<title>Node9&#45;&gt;Node3</title>
<path fill="none" stroke="#9a32cd" stroke-dasharray="5,2" d="M223.76,-531.86C283.17,-531.09 402.45,-527.14 439,-508 448.96,-502.78 495.12,-444.28 513.46,-420.73"/>
<polygon fill="#9a32cd" stroke="#9a32cd" points="223.7,-528.36 213.74,-531.96 223.77,-535.36 223.7,-528.36"/>
<text text-anchor="middle" x="361" y="-533" font-family="Helvetica,sans-Serif" font-size="10.00"> typing</text>
</g>
<!-- Node10 -->
<g id="node10" class="node">
<title>Node10</title>
<g id="a_node10"><a xlink:title=" ">
<polygon fill="white" stroke="#bfbfbf" points="163.5,-329.5 163.5,-348.5 213.5,-348.5 213.5,-329.5 163.5,-329.5"/>
<text text-anchor="middle" x="188.5" y="-336.5" font-family="Helvetica,sans-Serif" font-size="10.00">boolean</text>
</a>
</g>
</g>
<!-- Node10&#45;&gt;Node3 -->
<g id="edge9" class="edge">
<title>Node10&#45;&gt;Node3</title>
<path fill="none" stroke="#9a32cd" stroke-dasharray="5,2" d="M222.79,-352.4C240.44,-359.08 262.64,-366.82 283,-372 351.05,-389.31 369.72,-385.54 439,-397 457.52,-400.07 478.38,-403.63 494.42,-406.39"/>
<polygon fill="#9a32cd" stroke="#9a32cd" points="223.55,-348.94 212.96,-348.61 221.04,-355.47 223.55,-348.94"/>
<text text-anchor="middle" x="361" y="-400" font-family="Helvetica,sans-Serif" font-size="10.00"> DEBUG_REPO</text>
</g>
<!-- Node10&#45;&gt;Node15 -->
<g id="edge20" class="edge">
<title>Node10&#45;&gt;Node15</title>
<path fill="none" stroke="#9a32cd" stroke-dasharray="5,2" d="M217.86,-325.18C236.06,-316.89 260.43,-306.85 283,-301 350.61,-283.48 378.89,-317.56 439,-282 481.39,-256.92 507.94,-200.44 517.25,-177.73"/>
<polygon fill="#9a32cd" stroke="#9a32cd" points="216.28,-322.05 208.69,-329.44 219.23,-328.4 216.28,-322.05"/>
<text text-anchor="middle" x="361" y="-315" font-family="Helvetica,sans-Serif" font-size="10.00"> preoperSupress</text>
<text text-anchor="middle" x="361" y="-304" font-family="Helvetica,sans-Serif" font-size="10.00">toInline</text>
</g>
<!-- Node11 -->
<g id="node11" class="node">
<title>Node11</title>
<g id="a_node11"><a xlink:href="interfaceformat_1_1_x_formattable_1_1_navigatable.html" target="_top" xlink:title="木構造の分岐ノードとして清書可能なオブジェクトのクラス">
<polygon fill="white" stroke="black" points="457,-0.5 457,-19.5 587,-19.5 587,-0.5 457,-0.5"/>
<text text-anchor="middle" x="522" y="-7.5" font-family="Helvetica,sans-Serif" font-size="10.00">XFormattable.Navigatable</text>
</a>
</g>
</g>
<!-- Node11&#45;&gt;Node1 -->
<g id="edge21" class="edge">
<title>Node11&#45;&gt;Node1</title>
<path fill="none" stroke="midnightblue" d="M597.28,-12.77C669.76,-15.48 775.62,-19.43 821.68,-21.15"/>
<polygon fill="midnightblue" stroke="midnightblue" points="597.41,-9.28 587.29,-12.4 597.15,-16.27 597.41,-9.28"/>
</g>
<!-- Node11&#45;&gt;Node2 -->
<g id="edge10" class="edge">
<title>Node11&#45;&gt;Node2</title>
<path fill="none" stroke="midnightblue" d="M590.29,-21.74C619.07,-28.2 652.53,-37.67 681,-51 699.8,-59.8 718.84,-74.68 730.28,-84.43"/>
<polygon fill="midnightblue" stroke="midnightblue" points="590.83,-18.27 580.32,-19.58 589.35,-25.12 590.83,-18.27"/>
</g>
<!-- Node12&#45;&gt;Node11 -->
<g id="edge11" class="edge">
<title>Node12&#45;&gt;Node11</title>
<path fill="none" stroke="midnightblue" d="M256.05,-54.76C317.22,-44.42 406.9,-29.27 464.62,-19.52"/>
<polygon fill="midnightblue" stroke="midnightblue" points="255.39,-51.32 246.11,-56.44 256.55,-58.22 255.39,-51.32"/>
</g>
<!-- Node13&#45;&gt;Node2 -->
<g id="edge13" class="edge">
<title>Node13&#45;&gt;Node2</title>
<path fill="none" stroke="midnightblue" d="M423.36,-551.38C428.76,-549.52 434.04,-547.4 439,-545 513.96,-508.67 533.46,-493.82 587,-430 679.18,-320.13 727.78,-146 738.64,-103.56"/>
<polygon fill="midnightblue" stroke="midnightblue" points="422.07,-548.11 413.59,-554.45 424.18,-554.79 422.07,-548.11"/>
</g>
<!-- Node14 -->
<g id="node14" class="node">
<title>Node14</title>
<g id="a_node14"><a xlink:title=" ">
<polygon fill="white" stroke="#bfbfbf" points="496,-38.5 496,-57.5 548,-57.5 548,-38.5 496,-38.5"/>
<text text-anchor="middle" x="522" y="-45.5" font-family="Helvetica,sans-Serif" font-size="10.00">Boolean</text>
</a>
</g>
</g>
<!-- Node14&#45;&gt;Node2 -->
<g id="edge16" class="edge">
<title>Node14&#45;&gt;Node2</title>
<path fill="none" stroke="#9a32cd" stroke-dasharray="5,2" d="M558.33,-50.03C590.7,-52.52 639.71,-57.86 681,-69 695.05,-72.79 710.18,-79.11 721.73,-84.45"/>
<polygon fill="#9a32cd" stroke="#9a32cd" points="558.25,-46.52 548.03,-49.3 557.75,-53.5 558.25,-46.52"/>
<text text-anchor="middle" x="643" y="-72" font-family="Helvetica,sans-Serif" font-size="10.00"> DEBUG_CHILD</text>
</g>
<!-- Node15&#45;&gt;Node2 -->
<g id="edge17" class="edge">
<title>Node15&#45;&gt;Node2</title>
<path fill="none" stroke="#9a32cd" stroke-dasharray="5,2" d="M551.13,-158.45C592.88,-144.28 670.78,-117.84 712.65,-103.62"/>
<polygon fill="#9a32cd" stroke="#9a32cd" points="549.93,-155.16 541.59,-161.69 552.18,-161.79 549.93,-155.16"/>
<text text-anchor="middle" x="643" y="-142" font-family="Helvetica,sans-Serif" font-size="10.00"> sty</text>
</g>
</g>
</svg>
        <g id="navigator" transform="translate(0 0)" fill="#404254">
                <rect fill="#f2f5e9" fill-opacity="0.5" stroke="#606060" stroke-width=".5" x="0" y="0" width="60" height="60"/>
                <use id="zoomplus" xlink:href="#zoomPlus" x="17" y="9" onmousedown="handleZoom(evt,'in')"/>
                <use id="zoomminus" xlink:href="#zoomMin" x="42" y="9" onmousedown="handleZoom(evt,'out')"/>
                <use id="reset" xlink:href="#resetDef" x="30" y="36" onmousedown="handleReset()"/>
                <g id="arrowUp" xlink:href="#dirArrow" transform="translate(30 24)" onmousedown="handlePan(0,-1)">
                  <use xlink:href="#rim" fill="#404040">
                        <set attributeName="fill" to="#808080" begin="arrowUp.mouseover" end="arrowUp.mouseout"/>
                  </use>
                  <path fill="none" stroke="white" stroke-width="1.5" d="M0,-3.0v7 M-2.5,-0.5L0,-3.0L2.5,-0.5"/>
                </g>
                <g id="arrowRight" xlink:href="#dirArrow" transform="rotate(90) translate(36 -43)" onmousedown="handlePan(1,0)">
                  <use xlink:href="#rim" fill="#404040">
                        <set attributeName="fill" to="#808080" begin="arrowRight.mouseover" end="arrowRight.mouseout"/>
                  </use>
                  <path fill="none" stroke="white" stroke-width="1.5" d="M0,-3.0v7 M-2.5,-0.5L0,-3.0L2.5,-0.5"/>
                </g>
                <g id="arrowDown" xlink:href="#dirArrow" transform="rotate(180) translate(-30 -48)" onmousedown="handlePan(0,1)">
                  <use xlink:href="#rim" fill="#404040">
                        <set attributeName="fill" to="#808080" begin="arrowDown.mouseover" end="arrowDown.mouseout"/>
                  </use>
                  <path fill="none" stroke="white" stroke-width="1.5" d="M0,-3.0v7 M-2.5,-0.5L0,-3.0L2.5,-0.5"/>
                </g>
                <g id="arrowLeft" xlink:href="#dirArrow" transform="rotate(270) translate(-36 17)" onmousedown="handlePan(-1,0)">
                  <use xlink:href="#rim" fill="#404040">
                        <set attributeName="fill" to="#808080" begin="arrowLeft.mouseover" end="arrowLeft.mouseout"/>
                  </use>
                  <path fill="none" stroke="white" stroke-width="1.5" d="M0,-3.0v7 M-2.5,-0.5L0,-3.0L2.5,-0.5"/>
                </g>
        </g>
        <svg viewBox="0 0 15 15" width="100%" height="30px" preserveAspectRatio="xMaxYMin meet">
         <g id="arrow_out" transform="scale(0.3 0.3)">
          <a xlink:href="classast_1_1_ast_list__coll__graph_org.svg" target="_base">
           <rect id="button" ry="5" rx="5" y="6" x="6" height="38" width="38"
                fill="#f2f5e9" fill-opacity="0.5" stroke="#606060" stroke-width="1.0"/>
           <path id="arrow"
             d="M 11.500037,31.436501 C 11.940474,20.09759 22.043105,11.32322 32.158766,21.979434 L 37.068811,17.246167 C 37.068811,17.246167 37.088388,32 37.088388,32 L 22.160133,31.978069 C 22.160133,31.978069 26.997745,27.140456 26.997745,27.140456 C 18.528582,18.264221 13.291696,25.230495 11.500037,31.436501 z"
             style="fill:#404040;"/>
          </a>
         </g>
        </svg>
</svg>
