<?xml version="1.0" encoding="UTF-8" standalone="no"?>
<!DOCTYPE svg PUBLIC "-//W3C//DTD SVG 1.1//EN"
 "http://www.w3.org/Graphics/SVG/1.1/DTD/svg11.dtd">
<!-- Generated by graphviz version 2.47.1 (20210417.1919)
 -->
<!-- Title: child Pages: 1 -->
<svg width="607pt" height="66pt"
 viewBox="0.00 0.00 607.00 66.00" xmlns="http://www.w3.org/2000/svg" xmlns:xlink="http://www.w3.org/1999/xlink">
<g id="graph0" class="graph" transform="scale(1 1) rotate(0) translate(4 62)">
<title>child</title>
<polygon fill="white" stroke="transparent" points="-4,4 -4,-62 603,-62 603,4 -4,4"/>
<!-- Node1 -->
<g id="node1" class="node">
<title>Node1</title>
<g id="a_node1"><a xlink:title=" ">
<polygon fill="#bfbfbf" stroke="black" points="562,-19.5 562,-38.5 599,-38.5 599,-19.5 562,-19.5"/>
<text text-anchor="middle" x="580.5" y="-26.5" font-family="Helvetica,sans-Serif" font-size="10.00">child</text>
</a>
</g>
</g>
<!-- Node2 -->
<g id="node2" class="node">
<title>Node2</title>
<g id="a_node2"><a xlink:href="classtype_1_1_basic_typing.html#ac773e3c20a29c208fea84c33d8b35cd2" target="_top" xlink:title="子型の文字列表現を返す。">
<polygon fill="white" stroke="black" points="468,-38.5 468,-57.5 526,-57.5 526,-38.5 468,-38.5"/>
<text text-anchor="middle" x="497" y="-45.5" font-family="Helvetica,sans-Serif" font-size="10.00">childData</text>
</a>
</g>
</g>
<!-- Node1&#45;&gt;Node2 -->
<g id="edge1" class="edge">
<title>Node1&#45;&gt;Node2</title>
<path fill="none" stroke="midnightblue" d="M551.89,-35.44C543.62,-37.37 534.54,-39.48 526.22,-41.42"/>
<polygon fill="midnightblue" stroke="midnightblue" points="552.87,-38.8 561.82,-33.12 551.28,-31.98 552.87,-38.8"/>
</g>
<!-- Node6 -->
<g id="node6" class="node">
<title>Node6</title>
<g id="a_node6"><a xlink:href="classtype_1_1_child_hom_typing.html#a3feda0aa727b222e0627dd41646ff824" target="_top" xlink:title=" ">
<polygon fill="white" stroke="black" points="277,-0.5 277,-19.5 432,-19.5 432,-0.5 277,-0.5"/>
<text text-anchor="middle" x="354.5" y="-7.5" font-family="Helvetica,sans-Serif" font-size="10.00">type.ChildHomTyping.childHom</text>
</a>
</g>
</g>
<!-- Node1&#45;&gt;Node6 -->
<g id="edge6" class="edge">
<title>Node1&#45;&gt;Node6</title>
<path fill="none" stroke="midnightblue" d="M551.87,-26.66C522.13,-24.13 473.52,-20.01 432.11,-16.5"/>
<polygon fill="midnightblue" stroke="midnightblue" points="551.66,-30.15 561.92,-27.51 552.25,-23.18 551.66,-30.15"/>
</g>
<!-- Node3 -->
<g id="node3" class="node">
<title>Node3</title>
<g id="a_node3"><a xlink:href="classtype_1_1_basic_typing.html#a3137357d0abb2bd75321d6e19024956a" target="_top" xlink:title="演算子型の文字列表現を返す。">
<polygon fill="white" stroke="black" points="337,-38.5 337,-57.5 372,-57.5 372,-38.5 337,-38.5"/>
<text text-anchor="middle" x="354.5" y="-45.5" font-family="Helvetica,sans-Serif" font-size="10.00">data</text>
</a>
</g>
</g>
<!-- Node2&#45;&gt;Node3 -->
<g id="edge2" class="edge">
<title>Node2&#45;&gt;Node3</title>
<path fill="none" stroke="midnightblue" d="M457.64,-48C429.63,-48 393.03,-48 372.11,-48"/>
<polygon fill="midnightblue" stroke="midnightblue" points="457.91,-51.5 467.91,-48 457.91,-44.5 457.91,-51.5"/>
</g>
<!-- Node4 -->
<g id="node4" class="node">
<title>Node4</title>
<g id="a_node4"><a xlink:href="classtype_1_1_basic_typing.html#ad146fa8579a5f8a876c4688cc5a68520" target="_top" xlink:title="演算子型の文字列表現を返す。">
<polygon fill="white" stroke="black" points="191,-38.5 191,-57.5 241,-57.5 241,-38.5 191,-38.5"/>
<text text-anchor="middle" x="216" y="-45.5" font-family="Helvetica,sans-Serif" font-size="10.00">toString</text>
</a>
</g>
</g>
<!-- Node3&#45;&gt;Node4 -->
<g id="edge3" class="edge">
<title>Node3&#45;&gt;Node4</title>
<path fill="none" stroke="midnightblue" d="M326.58,-42.5C301.75,-40.77 265.2,-40.84 241.25,-42.7"/>
<polygon fill="midnightblue" stroke="midnightblue" points="326.5,-46.01 336.76,-43.39 327.1,-39.03 326.5,-46.01"/>
</g>
<!-- Node4&#45;&gt;Node3 -->
<g id="edge5" class="edge">
<title>Node4&#45;&gt;Node3</title>
<path fill="none" stroke="midnightblue" d="M251.54,-53.96C278.8,-55.35 315.65,-54.91 336.76,-52.61"/>
<polygon fill="midnightblue" stroke="midnightblue" points="251.45,-50.44 241.25,-53.3 251,-57.43 251.45,-50.44"/>
</g>
<!-- Node5 -->
<g id="node5" class="node">
<title>Node5</title>
<g id="a_node5"><a xlink:href="classtype_1_1_child_hom_typing.html#ac773e3c20a29c208fea84c33d8b35cd2" target="_top" xlink:title="子型の文字列表現を返す。">
<polygon fill="white" stroke="black" points="0,-19.5 0,-38.5 155,-38.5 155,-19.5 0,-19.5"/>
<text text-anchor="middle" x="77.5" y="-26.5" font-family="Helvetica,sans-Serif" font-size="10.00">type.ChildHomTyping.childData</text>
</a>
</g>
</g>
<!-- Node4&#45;&gt;Node5 -->
<g id="edge4" class="edge">
<title>Node4&#45;&gt;Node5</title>
<path fill="none" stroke="midnightblue" d="M180.7,-43.23C170.36,-41.79 158.63,-40.15 146.89,-38.52"/>
<polygon fill="midnightblue" stroke="midnightblue" points="180.52,-46.73 190.91,-44.65 181.49,-39.8 180.52,-46.73"/>
</g>
<!-- Node6&#45;&gt;Node5 -->
<g id="edge7" class="edge">
<title>Node6&#45;&gt;Node5</title>
<path fill="none" stroke="midnightblue" d="M266.48,-16.01C230.76,-18.48 189.75,-21.31 155.17,-23.7"/>
<polygon fill="midnightblue" stroke="midnightblue" points="267.16,-19.47 276.9,-15.29 266.68,-12.49 267.16,-19.47"/>
</g>
</g>
</svg>
