<?xml version="1.0" encoding="UTF-8" standalone="no"?>
<!DOCTYPE svg PUBLIC "-//W3C//DTD SVG 1.1//EN"
 "http://www.w3.org/Graphics/SVG/1.1/DTD/svg11.dtd">
<!-- Generated by graphviz version 2.47.1 (20210417.1919)
 -->
<!-- Title: XCGen Pages: 1 -->
<svg width="1263pt" height="608pt"
 viewBox="0.00 0.00 1263.00 608.00" xmlns="http://www.w3.org/2000/svg" xmlns:xlink="http://www.w3.org/1999/xlink">
<g id="graph0" class="graph" transform="scale(1 1) rotate(0) translate(4 604)">
<title>XCGen</title>
<polygon fill="white" stroke="transparent" points="-4,4 -4,-604 1259,-604 1259,4 -4,4"/>
<!-- Node1 -->
<g id="node1" class="node">
<title>Node1</title>
<g id="a_node1"><a xlink:title=" ">
<polygon fill="#bfbfbf" stroke="black" points="1206,-105.5 1206,-124.5 1255,-124.5 1255,-105.5 1206,-105.5"/>
<text text-anchor="middle" x="1230.5" y="-112.5" font-family="Helvetica,sans-Serif" font-size="10.00">XCGen</text>
</a>
</g>
</g>
<!-- Node2 -->
<g id="node2" class="node">
<title>Node2</title>
<g id="a_node2"><a xlink:href="classcompile_1_1_x_compiler.html" target="_top" xlink:title="クエリのコンパイル系モジュール。">
<polygon fill="white" stroke="black" points="1107,-427.5 1107,-446.5 1169,-446.5 1169,-427.5 1107,-427.5"/>
<text text-anchor="middle" x="1138" y="-434.5" font-family="Helvetica,sans-Serif" font-size="10.00">XCompiler</text>
</a>
</g>
</g>
<!-- Node2&#45;&gt;Node1 -->
<g id="edge1" class="edge">
<title>Node2&#45;&gt;Node1</title>
<path fill="none" stroke="midnightblue" d="M1144.5,-417.44C1161.73,-356.13 1214.28,-169.14 1226.8,-124.6"/>
<polygon fill="midnightblue" stroke="midnightblue" points="1141.04,-416.79 1141.71,-427.36 1147.78,-418.68 1141.04,-416.79"/>
</g>
<!-- Node3 -->
<g id="node3" class="node">
<title>Node3</title>
<g id="a_node3"><a xlink:title=" ">
<polygon fill="white" stroke="#bfbfbf" points="50.5,-298.5 50.5,-317.5 92.5,-317.5 92.5,-298.5 50.5,-298.5"/>
<text text-anchor="middle" x="71.5" y="-305.5" font-family="Helvetica,sans-Serif" font-size="10.00">String</text>
</a>
</g>
</g>
<!-- Node3&#45;&gt;Node2 -->
<g id="edge2" class="edge">
<title>Node3&#45;&gt;Node2</title>
<path fill="none" stroke="#9a32cd" stroke-dasharray="5,2" d="M77.99,-327.64C88.33,-360.73 113.98,-427.18 161,-460 217.44,-499.4 244.67,-487 313.5,-487 313.5,-487 313.5,-487 723.5,-487 886.73,-487 928.74,-481.99 1089,-451 1095.05,-449.83 1101.44,-448.23 1107.51,-446.53"/>
<polygon fill="#9a32cd" stroke="#9a32cd" points="81.27,-326.38 75.06,-317.8 74.56,-328.38 81.27,-326.38"/>
<text text-anchor="middle" x="722.5" y="-490" font-family="Helvetica,sans-Serif" font-size="10.00"> MOD_COMPILE</text>
</g>
<!-- Node6 -->
<g id="node6" class="node">
<title>Node6</title>
<g id="a_node6"><a xlink:href="classutil_1_1_trace_level.html" target="_top" xlink:title="ログ出力用のトレースレベルを扱うクラス。">
<polygon fill="white" stroke="black" points="282,-85.5 282,-104.5 347,-104.5 347,-85.5 282,-85.5"/>
<text text-anchor="middle" x="314.5" y="-92.5" font-family="Helvetica,sans-Serif" font-size="10.00">TraceLevel</text>
</a>
</g>
</g>
<!-- Node3&#45;&gt;Node6 -->
<g id="edge6" class="edge">
<title>Node3&#45;&gt;Node6</title>
<path fill="none" stroke="#9a32cd" stroke-dasharray="5,2" d="M82.01,-289.28C96.28,-262.62 125.38,-213.38 161,-181 200.47,-145.12 257.49,-118.01 289.45,-104.52"/>
<polygon fill="#9a32cd" stroke="#9a32cd" points="78.83,-287.82 77.29,-298.31 85.03,-291.07 78.83,-287.82"/>
<text text-anchor="middle" x="210.5" y="-228" font-family="Helvetica,sans-Serif" font-size="10.00"> DELIM_LEVELS</text>
<text text-anchor="middle" x="210.5" y="-217" font-family="Helvetica,sans-Serif" font-size="10.00">DELIM_NAMES</text>
<text text-anchor="middle" x="210.5" y="-206" font-family="Helvetica,sans-Serif" font-size="10.00">MOD_DEFAULT</text>
<text text-anchor="middle" x="210.5" y="-195" font-family="Helvetica,sans-Serif" font-size="10.00">OUT_DELIM_NAMES</text>
<text text-anchor="middle" x="210.5" y="-184" font-family="Helvetica,sans-Serif" font-size="10.00">USAGE_STR</text>
</g>
<!-- Node10 -->
<g id="node10" class="node">
<title>Node10</title>
<g id="a_node10"><a xlink:href="classutil_1_1_report.html" target="_top" xlink:title="標準出力への入れ子出力のためのレポートオブジェクトのクラス.">
<polygon fill="white" stroke="black" points="279,-529.5 279,-548.5 350,-548.5 350,-529.5 279,-529.5"/>
<text text-anchor="middle" x="314.5" y="-536.5" font-family="Helvetica,sans-Serif" font-size="10.00">Report&lt; S &gt;</text>
</a>
</g>
</g>
<!-- Node3&#45;&gt;Node10 -->
<g id="edge11" class="edge">
<title>Node3&#45;&gt;Node10</title>
<path fill="none" stroke="#9a32cd" stroke-dasharray="5,2" d="M75.95,-327.58C83.81,-366.21 106.73,-452.41 161,-498 170.08,-505.63 236.53,-521.67 278.67,-531.27"/>
<polygon fill="#9a32cd" stroke="#9a32cd" points="79.36,-326.79 74.05,-317.62 72.49,-328.1 79.36,-326.79"/>
<text text-anchor="middle" x="210.5" y="-529" font-family="Helvetica,sans-Serif" font-size="10.00"> STEMSTR</text>
</g>
<!-- Node14 -->
<g id="node14" class="node">
<title>Node14</title>
<g id="a_node14"><a xlink:href="classast_1_1_ast_node_base.html" target="_top" xlink:title=" ">
<polygon fill="white" stroke="red" points="549.5,-199.5 549.5,-218.5 626.5,-218.5 626.5,-199.5 549.5,-199.5"/>
<text text-anchor="middle" x="588" y="-206.5" font-family="Helvetica,sans-Serif" font-size="10.00">AstNodeBase</text>
</a>
</g>
</g>
<!-- Node3&#45;&gt;Node14 -->
<g id="edge17" class="edge">
<title>Node3&#45;&gt;Node14</title>
<path fill="none" stroke="#9a32cd" stroke-dasharray="5,2" d="M102.62,-297.55C119.62,-291.88 141.35,-285.02 161,-280 302.11,-243.93 474.35,-221.72 549.23,-213.1"/>
<polygon fill="#9a32cd" stroke="#9a32cd" points="101.05,-294.38 92.7,-300.89 103.29,-301.01 101.05,-294.38"/>
<text text-anchor="middle" x="314.5" y="-268" font-family="Helvetica,sans-Serif" font-size="10.00"> MOD_AST</text>
<text text-anchor="middle" x="314.5" y="-257" font-family="Helvetica,sans-Serif" font-size="10.00">mod_</text>
</g>
<!-- Node23 -->
<g id="node20" class="node">
<title>Node23</title>
<g id="a_node20"><a xlink:href="classformat_1_1_style.html" target="_top" xlink:title="ノードの表示スタイルに関するプロパティのクラス.">
<polygon fill="white" stroke="black" points="568.5,-351.5 568.5,-370.5 607.5,-370.5 607.5,-351.5 568.5,-351.5"/>
<text text-anchor="middle" x="588" y="-358.5" font-family="Helvetica,sans-Serif" font-size="10.00">Style</text>
</a>
</g>
</g>
<!-- Node3&#45;&gt;Node23 -->
<g id="edge27" class="edge">
<title>Node3&#45;&gt;Node23</title>
<path fill="none" stroke="#9a32cd" stroke-dasharray="5,2" d="M102.69,-301.32C174.31,-287.05 358.53,-259.7 492,-322 502.84,-327.06 499.74,-335.85 510,-342 528.07,-352.83 552.04,-357.5 568.41,-359.51"/>
<polygon fill="#9a32cd" stroke="#9a32cd" points="101.66,-297.96 92.57,-303.4 103.07,-304.82 101.66,-297.96"/>
<text text-anchor="middle" x="314.5" y="-366" font-family="Helvetica,sans-Serif" font-size="10.00"> childLPAD</text>
<text text-anchor="middle" x="314.5" y="-355" font-family="Helvetica,sans-Serif" font-size="10.00">childRPAD</text>
<text text-anchor="middle" x="314.5" y="-344" font-family="Helvetica,sans-Serif" font-size="10.00">name</text>
<text text-anchor="middle" x="314.5" y="-333" font-family="Helvetica,sans-Serif" font-size="10.00">operSTR</text>
<text text-anchor="middle" x="314.5" y="-322" font-family="Helvetica,sans-Serif" font-size="10.00">parenLPAD</text>
<text text-anchor="middle" x="314.5" y="-311" font-family="Helvetica,sans-Serif" font-size="10.00">parenLPAR</text>
<text text-anchor="middle" x="314.5" y="-300" font-family="Helvetica,sans-Serif" font-size="10.00">parenRPAD</text>
<text text-anchor="middle" x="314.5" y="-289" font-family="Helvetica,sans-Serif" font-size="10.00">parenRPAR</text>
</g>
<!-- Node4 -->
<g id="node4" class="node">
<title>Node4</title>
<g id="a_node4"><a xlink:href="interfaceparse_1_1_parsable.html" target="_top" xlink:title=" ">
<polygon fill="white" stroke="black" points="943.5,-541.5 943.5,-560.5 998.5,-560.5 998.5,-541.5 943.5,-541.5"/>
<text text-anchor="middle" x="971" y="-548.5" font-family="Helvetica,sans-Serif" font-size="10.00">Parsable</text>
</a>
</g>
</g>
<!-- Node4&#45;&gt;Node2 -->
<g id="edge3" class="edge">
<title>Node4&#45;&gt;Node2</title>
<path fill="none" stroke="#9a32cd" stroke-dasharray="5,2" d="M1008.87,-549.35C1033.69,-546.56 1065.97,-539.51 1089,-522 1114.91,-502.31 1128.95,-464.34 1134.36,-446.59"/>
<polygon fill="#9a32cd" stroke="#9a32cd" points="1008.37,-545.88 998.74,-550.3 1009.02,-552.85 1008.37,-545.88"/>
<text text-anchor="middle" x="1062" y="-547" font-family="Helvetica,sans-Serif" font-size="10.00"> AP</text>
</g>
<!-- Node5 -->
<g id="node5" class="node">
<title>Node5</title>
<g id="a_node5"><a xlink:href="interfaceformat_1_1_node_formattable.html" target="_top" xlink:title="XFormattableインタフェースをもつ構造オブジェクトの清書出力器．">
<polygon fill="white" stroke="black" points="925,-503.5 925,-522.5 1017,-522.5 1017,-503.5 925,-503.5"/>
<text text-anchor="middle" x="971" y="-510.5" font-family="Helvetica,sans-Serif" font-size="10.00">NodeFormattable</text>
</a>
</g>
</g>
<!-- Node5&#45;&gt;Node2 -->
<g id="edge4" class="edge">
<title>Node5&#45;&gt;Node2</title>
<path fill="none" stroke="#9a32cd" stroke-dasharray="5,2" d="M1027.19,-508.83C1047.6,-505.49 1070.31,-499.55 1089,-489 1107.4,-478.61 1122.74,-458.71 1130.83,-446.77"/>
<polygon fill="#9a32cd" stroke="#9a32cd" points="1026.46,-505.4 1017.07,-510.31 1027.47,-512.32 1026.46,-505.4"/>
<text text-anchor="middle" x="1062" y="-510" font-family="Helvetica,sans-Serif" font-size="10.00"> NF</text>
</g>
<!-- Node6&#45;&gt;Node2 -->
<g id="edge5" class="edge">
<title>Node6&#45;&gt;Node2</title>
<path fill="none" stroke="#9a32cd" stroke-dasharray="5,2" d="M357.48,-92.8C423.88,-90.3 556.81,-89.37 666,-114 881.72,-162.66 928.14,-224.25 1089,-376 1106.06,-392.09 1122.1,-414.49 1130.63,-427.19"/>
<polygon fill="#9a32cd" stroke="#9a32cd" points="357.25,-89.3 347.4,-93.2 357.54,-96.3 357.25,-89.3"/>
<text text-anchor="middle" x="833.5" y="-203" font-family="Helvetica,sans-Serif" font-size="10.00"> LOG</text>
</g>
<!-- Node6&#45;&gt;Node14 -->
<g id="edge18" class="edge">
<title>Node6&#45;&gt;Node14</title>
<path fill="none" stroke="#9a32cd" stroke-dasharray="5,2" d="M357.09,-103.63C361.11,-104.44 365.13,-105.24 369,-106 423.57,-116.71 450.72,-91.73 492,-129 512.98,-147.94 489.57,-170.47 510,-190 520.45,-199.99 535.28,-204.98 549.14,-207.39"/>
<polygon fill="#9a32cd" stroke="#9a32cd" points="357.66,-100.17 347.17,-101.61 356.27,-107.03 357.66,-100.17"/>
<text text-anchor="middle" x="430.5" y="-132" font-family="Helvetica,sans-Serif" font-size="10.00"> LOG</text>
</g>
<!-- Node7 -->
<g id="node7" class="node">
<title>Node7</title>
<g id="a_node7"><a xlink:title=" ">
<polygon fill="white" stroke="#bfbfbf" points="0,-18 0,-48 143,-48 143,-18 0,-18"/>
<text text-anchor="start" x="8" y="-36" font-family="Helvetica,sans-Serif" font-size="10.00">Map&lt; String, util.TraceLevel.</text>
<text text-anchor="middle" x="71.5" y="-25" font-family="Helvetica,sans-Serif" font-size="10.00">Level &gt;</text>
</a>
</g>
</g>
<!-- Node7&#45;&gt;Node6 -->
<g id="edge7" class="edge">
<title>Node7&#45;&gt;Node6</title>
<path fill="none" stroke="#9a32cd" stroke-dasharray="5,2" d="M150.33,-50.35C184.17,-58.24 224.19,-68.03 260,-78 268.07,-80.25 276.76,-82.9 284.74,-85.44"/>
<polygon fill="#9a32cd" stroke="#9a32cd" points="151.03,-46.92 140.5,-48.07 149.45,-53.74 151.03,-46.92"/>
<text text-anchor="middle" x="210.5" y="-81" font-family="Helvetica,sans-Serif" font-size="10.00"> mapLevel</text>
</g>
<!-- Node8 -->
<g id="node8" class="node">
<title>Node8</title>
<g id="a_node8"><a xlink:title=" ">
<polygon fill="white" stroke="#bfbfbf" points="46.5,-97.5 46.5,-116.5 96.5,-116.5 96.5,-97.5 46.5,-97.5"/>
<text text-anchor="middle" x="71.5" y="-104.5" font-family="Helvetica,sans-Serif" font-size="10.00">boolean</text>
</a>
</g>
</g>
<!-- Node8&#45;&gt;Node1 -->
<g id="edge32" class="edge">
<title>Node8&#45;&gt;Node1</title>
<path fill="none" stroke="#9a32cd" stroke-dasharray="5,2" d="M92.82,-90.92C132.68,-61.05 224.98,0 313.5,0 313.5,0 313.5,0 1139,0 1192.35,0 1219.07,-77.38 1226.95,-105.2"/>
<polygon fill="#9a32cd" stroke="#9a32cd" points="90.52,-88.27 84.7,-97.13 94.77,-93.84 90.52,-88.27"/>
<text text-anchor="middle" x="833.5" y="-3" font-family="Helvetica,sans-Serif" font-size="10.00"> DEBUG_CODEGEN</text>
</g>
<!-- Node8&#45;&gt;Node2 -->
<g id="edge31" class="edge">
<title>Node8&#45;&gt;Node2</title>
<path fill="none" stroke="#9a32cd" stroke-dasharray="5,2" d="M106.35,-96.57C207.97,-66.95 518.39,11.05 761,-60 940.32,-112.51 997.19,-160.26 1089,-323 1109.79,-359.85 1127.01,-407.49 1133.84,-427.5"/>
<polygon fill="#9a32cd" stroke="#9a32cd" points="105.23,-93.25 96.63,-99.44 107.21,-99.96 105.23,-93.25"/>
<text text-anchor="middle" x="722.5" y="-107" font-family="Helvetica,sans-Serif" font-size="10.00"> DEBUG_OPT_A</text>
<text text-anchor="middle" x="722.5" y="-96" font-family="Helvetica,sans-Serif" font-size="10.00">DEBUG_REPO</text>
<text text-anchor="middle" x="722.5" y="-85" font-family="Helvetica,sans-Serif" font-size="10.00">DEBUG_WORK</text>
<text text-anchor="middle" x="722.5" y="-74" font-family="Helvetica,sans-Serif" font-size="10.00">HAS_ARG</text>
<text text-anchor="middle" x="722.5" y="-63" font-family="Helvetica,sans-Serif" font-size="10.00">NO_ARG</text>
</g>
<!-- Node8&#45;&gt;Node6 -->
<g id="edge8" class="edge">
<title>Node8&#45;&gt;Node6</title>
<path fill="none" stroke="#9a32cd" stroke-dasharray="5,2" d="M107,-101.22C123.32,-98.77 143.11,-96.21 161,-95 202.74,-92.18 251.04,-92.84 281.91,-93.76"/>
<polygon fill="#9a32cd" stroke="#9a32cd" points="106.17,-97.81 96.83,-102.8 107.25,-104.73 106.17,-97.81"/>
<text text-anchor="middle" x="210.5" y="-98" font-family="Helvetica,sans-Serif" font-size="10.00"> DEBUG_MOD</text>
</g>
<!-- Node8&#45;&gt;Node10 -->
<g id="edge13" class="edge">
<title>Node8&#45;&gt;Node10</title>
<path fill="none" stroke="#9a32cd" stroke-dasharray="5,2" d="M82.88,-125.6C124.35,-199.94 277.45,-474.37 308.13,-529.37"/>
<polygon fill="#9a32cd" stroke="#9a32cd" points="85.91,-123.86 77.99,-116.83 79.8,-127.27 85.91,-123.86"/>
<text text-anchor="middle" x="210.5" y="-448" font-family="Helvetica,sans-Serif" font-size="10.00"> DEBUG_POP</text>
<text text-anchor="middle" x="210.5" y="-437" font-family="Helvetica,sans-Serif" font-size="10.00">toPrint</text>
</g>
<!-- Node8&#45;&gt;Node14 -->
<g id="edge20" class="edge">
<title>Node8&#45;&gt;Node14</title>
<path fill="none" stroke="#9a32cd" stroke-dasharray="5,2" d="M106.52,-111.04C144.19,-115.72 206.66,-124.06 260,-134 315.76,-144.39 475.92,-182.38 549.38,-199.96"/>
<polygon fill="#9a32cd" stroke="#9a32cd" points="106.93,-107.57 96.58,-109.82 106.08,-114.51 106.93,-107.57"/>
<text text-anchor="middle" x="314.5" y="-157" font-family="Helvetica,sans-Serif" font-size="10.00"> DEBUG_REPO</text>
</g>
<!-- Node8&#45;&gt;Node23 -->
<g id="edge29" class="edge">
<title>Node8&#45;&gt;Node23</title>
<path fill="none" stroke="#9a32cd" stroke-dasharray="5,2" d="M82.17,-125.53C95.98,-149.76 123.83,-191.2 161,-209 237.22,-245.49 269.04,-195.42 351,-216 418.67,-232.99 446.48,-232.13 492,-285 509.33,-305.13 490.62,-323.82 510,-342 525.77,-356.79 551.16,-360.58 568.43,-361.31"/>
<polygon fill="#9a32cd" stroke="#9a32cd" points="85.16,-123.69 77.28,-116.6 79.02,-127.05 85.16,-123.69"/>
<text text-anchor="middle" x="314.5" y="-230" font-family="Helvetica,sans-Serif" font-size="10.00"> preoperSupress</text>
<text text-anchor="middle" x="314.5" y="-219" font-family="Helvetica,sans-Serif" font-size="10.00">toInline</text>
</g>
<!-- Node9 -->
<g id="node9" class="node">
<title>Node9</title>
<g id="a_node9"><a xlink:title=" ">
<polygon fill="white" stroke="#bfbfbf" points="300,-414.5 300,-433.5 329,-433.5 329,-414.5 300,-414.5"/>
<text text-anchor="middle" x="314.5" y="-421.5" font-family="Helvetica,sans-Serif" font-size="10.00">int</text>
</a>
</g>
</g>
<!-- Node9&#45;&gt;Node2 -->
<g id="edge9" class="edge">
<title>Node9&#45;&gt;Node2</title>
<path fill="none" stroke="#9a32cd" stroke-dasharray="5,2" d="M339.15,-425.9C386.28,-429.5 495.26,-437 587,-437 587,-437 587,-437 972,-437 1019.12,-437 1073.81,-437 1106.89,-437"/>
<polygon fill="#9a32cd" stroke="#9a32cd" points="339.29,-422.4 329.05,-425.11 338.75,-429.37 339.29,-422.4"/>
<text text-anchor="middle" x="833.5" y="-451" font-family="Helvetica,sans-Serif" font-size="10.00"> MASK_QUERY_PRINT</text>
<text text-anchor="middle" x="833.5" y="-440" font-family="Helvetica,sans-Serif" font-size="10.00">PRINT_STAGE</text>
</g>
<!-- Node12 -->
<g id="node12" class="node">
<title>Node12</title>
<g id="a_node12"><a xlink:href="classmachine_1_1_var.html" target="_top" xlink:title="フレーム中の変数参照オブジェクトref = (XType type, int vid)">
<polygon fill="white" stroke="black" points="955.5,-379.5 955.5,-398.5 986.5,-398.5 986.5,-379.5 955.5,-379.5"/>
<text text-anchor="middle" x="971" y="-386.5" font-family="Helvetica,sans-Serif" font-size="10.00">Var</text>
</a>
</g>
</g>
<!-- Node9&#45;&gt;Node12 -->
<g id="edge30" class="edge">
<title>Node9&#45;&gt;Node12</title>
<path fill="none" stroke="#9a32cd" stroke-dasharray="5,2" d="M339.45,-422.72C445.42,-417.05 870.6,-394.32 955.29,-389.79"/>
<polygon fill="#9a32cd" stroke="#9a32cd" points="338.97,-419.24 329.17,-423.27 339.34,-426.23 338.97,-419.24"/>
<text text-anchor="middle" x="722.5" y="-407" font-family="Helvetica,sans-Serif" font-size="10.00"> UNDEF</text>
</g>
<!-- Node9&#45;&gt;Node14 -->
<g id="edge19" class="edge">
<title>Node9&#45;&gt;Node14</title>
<path fill="none" stroke="#9a32cd" stroke-dasharray="5,2" d="M337.75,-412.35C342.67,-408.93 347.46,-404.79 351,-400 367.29,-377.95 353.53,-363.63 369,-341 408.29,-283.52 438.63,-288.7 492,-244 500.21,-237.13 500.53,-232.98 510,-228 522.06,-221.65 536.31,-217.37 549.25,-214.51"/>
<polygon fill="#9a32cd" stroke="#9a32cd" points="335.68,-409.52 329.01,-417.74 339.36,-415.48 335.68,-409.52"/>
<text text-anchor="middle" x="430.5" y="-355" font-family="Helvetica,sans-Serif" font-size="10.00"> BITMASK_PRINT_WIDTH</text>
<text text-anchor="middle" x="430.5" y="-344" font-family="Helvetica,sans-Serif" font-size="10.00">UNDEF</text>
</g>
<!-- Node9&#45;&gt;Node23 -->
<g id="edge28" class="edge">
<title>Node9&#45;&gt;Node23</title>
<path fill="none" stroke="#9a32cd" stroke-dasharray="5,2" d="M337.37,-409.37C341.89,-406.3 346.62,-403.06 351,-400 359.09,-394.35 359.81,-390.59 369,-387 405.31,-372.83 522.72,-364.71 568.49,-362.01"/>
<polygon fill="#9a32cd" stroke="#9a32cd" points="335.39,-406.49 329.05,-414.98 339.3,-412.29 335.39,-406.49"/>
<text text-anchor="middle" x="430.5" y="-390" font-family="Helvetica,sans-Serif" font-size="10.00"> pref</text>
</g>
<!-- Node10&#45;&gt;Node2 -->
<g id="edge10" class="edge">
<title>Node10&#45;&gt;Node2</title>
<path fill="none" stroke="#9a32cd" stroke-dasharray="5,2" d="M356.16,-551.28C408.88,-566.08 503.93,-589 587,-589 587,-589 587,-589 972,-589 1025.68,-589 1048.76,-594.54 1089,-559 1123.63,-528.41 1133.52,-469.62 1136.13,-446.59"/>
<polygon fill="#9a32cd" stroke="#9a32cd" points="357.09,-547.9 346.51,-548.52 355.17,-554.63 357.09,-547.9"/>
<text text-anchor="middle" x="833.5" y="-592" font-family="Helvetica,sans-Serif" font-size="10.00"> repo</text>
</g>
<!-- Node11 -->
<g id="node11" class="node">
<title>Node11</title>
<g id="a_node11"><a xlink:href="classutil_1_1_stack_base.html" target="_top" xlink:title=" ">
<polygon fill="white" stroke="black" points="17.5,-544.5 17.5,-563.5 125.5,-563.5 125.5,-544.5 17.5,-544.5"/>
<text text-anchor="middle" x="71.5" y="-551.5" font-family="Helvetica,sans-Serif" font-size="10.00">StackBase&lt; String &gt;</text>
</a>
</g>
</g>
<!-- Node11&#45;&gt;Node10 -->
<g id="edge12" class="edge">
<title>Node11&#45;&gt;Node10</title>
<path fill="none" stroke="#9a32cd" stroke-dasharray="5,2" d="M135.79,-550.06C181.46,-547.22 241.41,-543.49 278.69,-541.17"/>
<polygon fill="#9a32cd" stroke="#9a32cd" points="135.45,-546.58 125.69,-550.69 135.88,-553.56 135.45,-546.58"/>
<text text-anchor="middle" x="210.5" y="-551" font-family="Helvetica,sans-Serif" font-size="10.00"> NS</text>
</g>
<!-- Node12&#45;&gt;Node2 -->
<g id="edge14" class="edge">
<title>Node12&#45;&gt;Node2</title>
<path fill="none" stroke="#9a32cd" stroke-dasharray="5,2" d="M996.62,-384.04C1021.05,-380.28 1059.07,-377.64 1089,-390 1107.33,-397.57 1122.48,-415.81 1130.59,-427.21"/>
<polygon fill="#9a32cd" stroke="#9a32cd" points="996,-380.6 986.73,-385.74 997.18,-387.49 996,-380.6"/>
<text text-anchor="middle" x="1062" y="-415" font-family="Helvetica,sans-Serif" font-size="10.00"> VAR_FLEN</text>
<text text-anchor="middle" x="1062" y="-404" font-family="Helvetica,sans-Serif" font-size="10.00">VAR_FPAR</text>
<text text-anchor="middle" x="1062" y="-393" font-family="Helvetica,sans-Serif" font-size="10.00">VAR_FUNC</text>
</g>
<!-- Node13 -->
<g id="node13" class="node">
<title>Node13</title>
<g id="a_node13"><a xlink:href="classast_1_1_ast_node.html" target="_top" xlink:title="タグなしの順アクセスの子供をもてる抽象構文木のノードのクラス。">
<polygon fill="white" stroke="black" points="806,-256.5 806,-275.5 861,-275.5 861,-256.5 806,-256.5"/>
<text text-anchor="middle" x="833.5" y="-263.5" font-family="Helvetica,sans-Serif" font-size="10.00">AstNode</text>
</a>
</g>
</g>
<!-- Node13&#45;&gt;Node12 -->
<g id="edge15" class="edge">
<title>Node13&#45;&gt;Node12</title>
<path fill="none" stroke="midnightblue" d="M852.83,-282.64C881.59,-308.75 936.41,-358.51 959.42,-379.39"/>
<polygon fill="midnightblue" stroke="midnightblue" points="854.89,-279.78 845.13,-275.65 850.18,-284.96 854.89,-279.78"/>
</g>
<!-- Node14&#45;&gt;Node13 -->
<g id="edge16" class="edge">
<title>Node14&#45;&gt;Node13</title>
<path fill="none" stroke="midnightblue" d="M636.54,-220.13C687.08,-231.96 765.19,-250.24 805.85,-259.76"/>
<polygon fill="midnightblue" stroke="midnightblue" points="637.05,-216.65 626.51,-217.78 635.45,-223.47 637.05,-216.65"/>
</g>
<!-- Node17 -->
<g id="node15" class="node">
<title>Node17</title>
<g id="a_node15"><a xlink:href="interfaceast_1_1_node.html" target="_top" xlink:title=" ">
<polygon fill="white" stroke="red" points="568,-237.5 568,-256.5 608,-256.5 608,-237.5 568,-237.5"/>
<text text-anchor="middle" x="588" y="-244.5" font-family="Helvetica,sans-Serif" font-size="10.00">Node</text>
</a>
</g>
</g>
<!-- Node17&#45;&gt;Node13 -->
<g id="edge21" class="edge">
<title>Node17&#45;&gt;Node13</title>
<path fill="none" stroke="midnightblue" d="M618.09,-249.27C665.78,-252.99 759.88,-260.33 805.9,-263.92"/>
<polygon fill="midnightblue" stroke="midnightblue" points="618.35,-245.78 608.11,-248.49 617.8,-252.76 618.35,-245.78"/>
</g>
<!-- Node19 -->
<g id="node16" class="node">
<title>Node19</title>
<g id="a_node16"><a xlink:href="interfaceformat_1_1_x_formattable_1_1_navigatable.html" target="_top" xlink:title="木構造の分岐ノードとして清書可能なオブジェクトのクラス">
<polygon fill="white" stroke="red" points="523,-161.5 523,-180.5 653,-180.5 653,-161.5 523,-161.5"/>
<text text-anchor="middle" x="588" y="-168.5" font-family="Helvetica,sans-Serif" font-size="10.00">XFormattable.Navigatable</text>
</a>
</g>
</g>
<!-- Node19&#45;&gt;Node13 -->
<g id="edge22" class="edge">
<title>Node19&#45;&gt;Node13</title>
<path fill="none" stroke="midnightblue" d="M642.19,-183.03C650.22,-185.16 658.37,-187.51 666,-190 709.39,-204.17 719.58,-209.83 761,-229 779.77,-237.69 800.74,-248.7 815.08,-256.44"/>
<polygon fill="midnightblue" stroke="midnightblue" points="643.04,-179.64 632.49,-180.54 641.3,-186.42 643.04,-179.64"/>
</g>
<!-- Node20 -->
<g id="node17" class="node">
<title>Node20</title>
<g id="a_node17"><a xlink:href="interfaceformat_1_1_x_formattable_1_1_typed_formattable.html" target="_top" xlink:title="ノードの型情報をもつ書式出力可能なオブジェクトのインタフェース．">
<polygon fill="white" stroke="red" points="510,-123.5 510,-142.5 666,-142.5 666,-123.5 510,-123.5"/>
<text text-anchor="middle" x="588" y="-130.5" font-family="Helvetica,sans-Serif" font-size="10.00">XFormattable.TypedFormattable</text>
</a>
</g>
</g>
<!-- Node20&#45;&gt;Node13 -->
<g id="edge23" class="edge">
<title>Node20&#45;&gt;Node13</title>
<path fill="none" stroke="midnightblue" d="M647.13,-145.07C682.26,-154.27 726.71,-169.46 761,-193 787.91,-211.47 813.07,-241.1 825.1,-256.31"/>
<polygon fill="midnightblue" stroke="midnightblue" points="647.57,-141.57 637.02,-142.51 645.86,-148.35 647.57,-141.57"/>
</g>
<!-- Node21 -->
<g id="node18" class="node">
<title>Node21</title>
<g id="a_node18"><a xlink:title=" ">
<polygon fill="white" stroke="#bfbfbf" points="543,-313.5 543,-332.5 633,-332.5 633,-313.5 543,-313.5"/>
<text text-anchor="middle" x="588" y="-320.5" font-family="Helvetica,sans-Serif" font-size="10.00">List&lt; ast.Node &gt;</text>
</a>
</g>
</g>
<!-- Node21&#45;&gt;Node13 -->
<g id="edge24" class="edge">
<title>Node21&#45;&gt;Node13</title>
<path fill="none" stroke="#9a32cd" stroke-dasharray="5,2" d="M643.56,-316.16C677.67,-311.23 722.31,-303.58 761,-293 777.89,-288.38 796.38,-281.35 810.32,-275.62"/>
<polygon fill="#9a32cd" stroke="#9a32cd" points="642.75,-312.75 633.33,-317.61 643.72,-319.68 642.75,-312.75"/>
<text text-anchor="middle" x="722.5" y="-313" font-family="Helvetica,sans-Serif" font-size="10.00"> children</text>
</g>
<!-- Node22 -->
<g id="node19" class="node">
<title>Node22</title>
<g id="a_node19"><a xlink:title=" ">
<polygon fill="white" stroke="#bfbfbf" points="562,-275.5 562,-294.5 614,-294.5 614,-275.5 562,-275.5"/>
<text text-anchor="middle" x="588" y="-282.5" font-family="Helvetica,sans-Serif" font-size="10.00">Boolean</text>
</a>
</g>
</g>
<!-- Node22&#45;&gt;Node13 -->
<g id="edge25" class="edge">
<title>Node22&#45;&gt;Node13</title>
<path fill="none" stroke="#9a32cd" stroke-dasharray="5,2" d="M624.3,-282.25C673.47,-278.41 761.47,-271.54 805.65,-268.1"/>
<polygon fill="#9a32cd" stroke="#9a32cd" points="623.84,-278.77 614.14,-283.04 624.38,-285.75 623.84,-278.77"/>
<text text-anchor="middle" x="722.5" y="-281" font-family="Helvetica,sans-Serif" font-size="10.00"> DEBUG_CHILD</text>
</g>
<!-- Node23&#45;&gt;Node13 -->
<g id="edge26" class="edge">
<title>Node23&#45;&gt;Node13</title>
<path fill="none" stroke="#9a32cd" stroke-dasharray="5,2" d="M617.85,-359.2C653.16,-356.06 714.03,-347.58 761,-325 786.82,-312.59 811.3,-288.91 823.82,-275.64"/>
<polygon fill="#9a32cd" stroke="#9a32cd" points="617.44,-355.72 607.76,-360.01 618.01,-362.69 617.44,-355.72"/>
<text text-anchor="middle" x="722.5" y="-352" font-family="Helvetica,sans-Serif" font-size="10.00"> sty</text>
</g>
</g>
</svg>
