<?xml version="1.0" encoding="UTF-8" standalone="no"?>
<!DOCTYPE svg PUBLIC "-//W3C//DTD SVG 1.1//EN"
 "http://www.w3.org/Graphics/SVG/1.1/DTD/svg11.dtd">
<!-- Generated by graphviz version 2.47.0 (20210316.0004)
 -->
<!-- Title: gencode Pages: 1 -->
<!--zoomable 123 -->
<svg id="main" version="1.1" xmlns="http://www.w3.org/2000/svg" xmlns:xlink="http://www.w3.org/1999/xlink" xml:space="preserve" onload="init(evt)">
<style type="text/css"><![CDATA[
.edge:hover path { stroke: red; }
.edge:hover polygon { stroke: red; fill: red; }
]]></style>
<script type="text/javascript"><![CDATA[
var edges = document.getElementsByTagName('g');
if (edges && edges.length) {
  for (var i=0;i<edges.length;i++) {
    if (edges[i].id.substr(0,4)=='edge') {
      edges[i].setAttribute('class','edge');
    }
  }
}
]]></script>
        <defs>
                <circle id="rim" cx="0" cy="0" r="7"/>
                <circle id="rim2" cx="0" cy="0" r="3.5"/>
                <g id="zoomPlus">
                        <use xlink:href="#rim" fill="#404040">
                                <set attributeName="fill" to="#808080" begin="zoomplus.mouseover" end="zoomplus.mouseout"/>
                        </use>
                        <path d="M-4,0h8M0,-4v8" fill="none" stroke="white" stroke-width="1.5" pointer-events="none"/>
                </g>
                <g id="zoomMin">
                        <use xlink:href="#rim" fill="#404040">
                                <set attributeName="fill" to="#808080" begin="zoomminus.mouseover" end="zoomminus.mouseout"/>
                        </use>
                        <path d="M-4,0h8" fill="none" stroke="white" stroke-width="1.5" pointer-events="none"/>
                </g>
                <g id="dirArrow">
                        <path fill="none" stroke="white" stroke-width="1.5" d="M0,-3.0v7 M-2.5,-0.5L0,-3.0L2.5,-0.5"/>
                </g>
               <g id="resetDef">
                       <use xlink:href="#rim2" fill="#404040">
                               <set attributeName="fill" to="#808080" begin="reset.mouseover" end="reset.mouseout"/>
                       </use>
               </g>
        </defs>

<script type="text/javascript">
var viewWidth = 854;
var viewHeight = 123;
var sectionId = 'dynsection-2';
</script>
<script xlink:href="svgpan.js"/>
<svg id="graph" class="graph">
<g id="viewport">
<title>gencode</title>
<polygon fill="white" stroke="transparent" points="-4,4 -4,-119 850,-119 850,4 -4,4"/>
<!-- Node1 -->
<g id="node1" class="node">
<title>Node1</title>
<g id="a_node1"><a xlink:title="コードを生成する．">
<polygon fill="#bfbfbf" stroke="black" points="0,-57.5 0,-76.5 53,-76.5 53,-57.5 0,-57.5"/>
<text text-anchor="middle" x="26.5" y="-64.5" font-family="Helvetica,sans-Serif" font-size="10.00">gencode</text>
</a>
</g>
</g>
<!-- Node2 -->
<g id="node2" class="node">
<title>Node2</title>
<g id="a_node2"><a xlink:href="classast_1_1_ast_oper.html#a32bccadf4b650391376fe92303e9b41c" target="_top" xlink:title="二つの非演算子である子供のコードを生成す">
<polygon fill="white" stroke="black" points="89,-76.5 89,-95.5 244,-95.5 244,-76.5 89,-76.5"/>
<text text-anchor="middle" x="166.5" y="-83.5" font-family="Helvetica,sans-Serif" font-size="10.00">ast.AstOper.generateChildCode</text>
</a>
</g>
</g>
<!-- Node1&#45;&gt;Node2 -->
<g id="edge1" class="edge">
<title>Node1&#45;&gt;Node2</title>
<path fill="none" stroke="midnightblue" d="M53.13,-70.53C62.75,-71.85 74.27,-73.44 86.2,-75.08"/>
<polygon fill="midnightblue" stroke="midnightblue" points="85.91,-78.57 96.29,-76.47 86.86,-71.64 85.91,-78.57"/>
</g>
<!-- Node10 -->
<g id="node10" class="node">
<title>Node10</title>
<g id="a_node10"><a xlink:href="classast_1_1_ast_node_branch.html#ae67707ee54f4c5d72844844470940d77" target="_top" xlink:title="i番目の子供を返す.">
<polygon fill="white" stroke="black" points="96,-38.5 96,-57.5 237,-57.5 237,-38.5 96,-38.5"/>
<text text-anchor="middle" x="166.5" y="-45.5" font-family="Helvetica,sans-Serif" font-size="10.00">ast.AstNodeBranch.getChild</text>
</a>
</g>
</g>
<!-- Node1&#45;&gt;Node10 -->
<g id="edge11" class="edge">
<title>Node1&#45;&gt;Node10</title>
<path fill="none" stroke="midnightblue" d="M53.13,-63.47C62.75,-62.15 74.27,-60.56 86.2,-58.92"/>
<polygon fill="midnightblue" stroke="midnightblue" points="86.86,-62.36 96.29,-57.53 85.91,-55.43 86.86,-62.36"/>
</g>
<!-- Node3 -->
<g id="node3" class="node">
<title>Node3</title>
<g id="a_node3"><a xlink:href="classutil_1_1_util.html#ae411a90dd0a4a15776ea6eb5f0cbae13" target="_top" xlink:title="与えられた文字列を標準出力に印刷して、プログラムを強制停止する。">
<polygon fill="white" stroke="black" points="283,-95.5 283,-114.5 370,-114.5 370,-95.5 283,-95.5"/>
<text text-anchor="middle" x="326.5" y="-102.5" font-family="Helvetica,sans-Serif" font-size="10.00">util.Util.errorExit</text>
</a>
</g>
</g>
<!-- Node2&#45;&gt;Node3 -->
<g id="edge2" class="edge">
<title>Node2&#45;&gt;Node3</title>
<path fill="none" stroke="midnightblue" d="M244.19,-95.22C253.78,-96.38 263.43,-97.54 272.55,-98.63"/>
<polygon fill="midnightblue" stroke="midnightblue" points="272.25,-102.12 282.59,-99.84 273.08,-95.17 272.25,-102.12"/>
</g>
<!-- Node5 -->
<g id="node5" class="node">
<title>Node5</title>
<g id="a_node5"><a xlink:href="classast_1_1_ast_node.html#aac66012db63fd274931e6690afa76212" target="_top" xlink:title="ノードのもつ値型を返す。">
<polygon fill="white" stroke="black" points="280,-57.5 280,-76.5 373,-76.5 373,-57.5 280,-57.5"/>
<text text-anchor="middle" x="326.5" y="-64.5" font-family="Helvetica,sans-Serif" font-size="10.00">ast.AstNode.type</text>
</a>
</g>
</g>
<!-- Node2&#45;&gt;Node5 -->
<g id="edge4" class="edge">
<title>Node2&#45;&gt;Node5</title>
<path fill="none" stroke="midnightblue" d="M244.19,-76.78C252.7,-75.75 261.25,-74.73 269.44,-73.74"/>
<polygon fill="midnightblue" stroke="midnightblue" points="270.08,-77.19 279.59,-72.52 269.24,-70.24 270.08,-77.19"/>
</g>
<!-- Node4 -->
<g id="node4" class="node">
<title>Node4</title>
<g id="a_node4"><a xlink:href="classutil_1_1_util.html#a7c4b5534ff284b188f83399c344c89c8" target="_top" xlink:title="スタックトレースを出力する。">
<polygon fill="white" stroke="black" points="409,-95.5 409,-114.5 534,-114.5 534,-95.5 409,-95.5"/>
<text text-anchor="middle" x="471.5" y="-102.5" font-family="Helvetica,sans-Serif" font-size="10.00">util.Util.reportStackTrace</text>
</a>
</g>
</g>
<!-- Node3&#45;&gt;Node4 -->
<g id="edge3" class="edge">
<title>Node3&#45;&gt;Node4</title>
<path fill="none" stroke="midnightblue" d="M370.02,-105C379.06,-105 388.85,-105 398.65,-105"/>
<polygon fill="midnightblue" stroke="midnightblue" points="398.83,-108.5 408.83,-105 398.83,-101.5 398.83,-108.5"/>
</g>
<!-- Node6 -->
<g id="node6" class="node">
<title>Node6</title>
<g id="a_node6"><a xlink:href="classast_1_1_ast_node.html#adfc6b93e5d1b92cba301a9a917fe372c" target="_top" xlink:title="ノードの演算型を返す。">
<polygon fill="white" stroke="black" points="413.5,-57.5 413.5,-76.5 529.5,-76.5 529.5,-57.5 413.5,-57.5"/>
<text text-anchor="middle" x="471.5" y="-64.5" font-family="Helvetica,sans-Serif" font-size="10.00">ast.AstNode.getTyping</text>
</a>
</g>
</g>
<!-- Node5&#45;&gt;Node6 -->
<g id="edge5" class="edge">
<title>Node5&#45;&gt;Node6</title>
<path fill="none" stroke="midnightblue" d="M373.14,-67C382.76,-67 393.11,-67 403.34,-67"/>
<polygon fill="midnightblue" stroke="midnightblue" points="403.5,-70.5 413.5,-67 403.5,-63.5 403.5,-70.5"/>
</g>
<!-- Node7 -->
<g id="node7" class="node">
<title>Node7</title>
<g id="a_node7"><a xlink:href="classtype_1_1_x_type_item.html#a376d814d15cc5ae21afd6425d0780ad9" target="_top" xlink:title="この型変数thisがもつ値型を返す。">
<polygon fill="white" stroke="black" points="423,-19.5 423,-38.5 520,-38.5 520,-19.5 423,-19.5"/>
<text text-anchor="middle" x="471.5" y="-26.5" font-family="Helvetica,sans-Serif" font-size="10.00">type.XTypeItem.ty</text>
</a>
</g>
</g>
<!-- Node5&#45;&gt;Node7 -->
<g id="edge6" class="edge">
<title>Node5&#45;&gt;Node7</title>
<path fill="none" stroke="midnightblue" d="M363.58,-57.41C382.13,-52.48 404.93,-46.43 424.7,-41.17"/>
<polygon fill="midnightblue" stroke="midnightblue" points="425.66,-44.54 434.43,-38.59 423.86,-37.77 425.66,-44.54"/>
</g>
<!-- Node8 -->
<g id="node8" class="node">
<title>Node8</title>
<g id="a_node8"><a xlink:href="classtype_1_1_union_find_item.html#a9389ec55354a215f76de769c1e149985" target="_top" xlink:title="与えられた元が属する同値類の代表元を返す。">
<polygon fill="white" stroke="black" points="725,-19.5 725,-38.5 846,-38.5 846,-19.5 725,-19.5"/>
<text text-anchor="middle" x="785.5" y="-26.5" font-family="Helvetica,sans-Serif" font-size="10.00">type.UnionFindItem.find</text>
</a>
</g>
</g>
<!-- Node7&#45;&gt;Node8 -->
<g id="edge7" class="edge">
<title>Node7&#45;&gt;Node8</title>
<path fill="none" stroke="midnightblue" d="M520.23,-29C572.11,-29 655.51,-29 714.74,-29"/>
<polygon fill="midnightblue" stroke="midnightblue" points="714.76,-32.5 724.76,-29 714.76,-25.5 714.76,-32.5"/>
</g>
<!-- Node9 -->
<g id="node9" class="node">
<title>Node9</title>
<g id="a_node9"><a xlink:href="classtype_1_1_union_find_item.html#af6ea056c8af82f08af9fd0d857967f9b" target="_top" xlink:title="この元の同値類がもつT型の値を返す。">
<polygon fill="white" stroke="black" points="570,-0.5 570,-19.5 689,-19.5 689,-0.5 570,-0.5"/>
<text text-anchor="middle" x="629.5" y="-7.5" font-family="Helvetica,sans-Serif" font-size="10.00">type.UnionFindItem.get</text>
</a>
</g>
</g>
<!-- Node7&#45;&gt;Node9 -->
<g id="edge9" class="edge">
<title>Node7&#45;&gt;Node9</title>
<path fill="none" stroke="midnightblue" d="M520.15,-23.2C532.65,-21.67 546.37,-20 559.73,-18.38"/>
<polygon fill="midnightblue" stroke="midnightblue" points="560.35,-21.83 569.85,-17.14 559.5,-14.88 560.35,-21.83"/>
</g>
<!-- Node8&#45;&gt;Node8 -->
<g id="edge8" class="edge">
<title>Node8&#45;&gt;Node8</title>
<path fill="none" stroke="midnightblue" d="M761.46,-38.76C749.76,-47.57 757.77,-57 785.5,-57 803.7,-57 813.4,-52.94 814.62,-47.65"/>
<polygon fill="midnightblue" stroke="midnightblue" points="817.54,-45.71 809.54,-38.76 811.46,-49.18 817.54,-45.71"/>
</g>
<!-- Node9&#45;&gt;Node8 -->
<g id="edge10" class="edge">
<title>Node9&#45;&gt;Node8</title>
<path fill="none" stroke="midnightblue" d="M689.16,-17.24C697.59,-18.28 706.33,-19.36 714.95,-20.42"/>
<polygon fill="midnightblue" stroke="midnightblue" points="714.63,-23.91 724.98,-21.66 715.49,-16.96 714.63,-23.91"/>
</g>
</g>
</svg>
        <g id="navigator" transform="translate(0 0)" fill="#404254">
                <rect fill="#f2f5e9" fill-opacity="0.5" stroke="#606060" stroke-width=".5" x="0" y="0" width="60" height="60"/>
                <use id="zoomplus" xlink:href="#zoomPlus" x="17" y="9" onmousedown="handleZoom(evt,'in')"/>
                <use id="zoomminus" xlink:href="#zoomMin" x="42" y="9" onmousedown="handleZoom(evt,'out')"/>
                <use id="reset" xlink:href="#resetDef" x="30" y="36" onmousedown="handleReset()"/>
                <g id="arrowUp" xlink:href="#dirArrow" transform="translate(30 24)" onmousedown="handlePan(0,-1)">
                  <use xlink:href="#rim" fill="#404040">
                        <set attributeName="fill" to="#808080" begin="arrowUp.mouseover" end="arrowUp.mouseout"/>
                  </use>
                  <path fill="none" stroke="white" stroke-width="1.5" d="M0,-3.0v7 M-2.5,-0.5L0,-3.0L2.5,-0.5"/>
                </g>
                <g id="arrowRight" xlink:href="#dirArrow" transform="rotate(90) translate(36 -43)" onmousedown="handlePan(1,0)">
                  <use xlink:href="#rim" fill="#404040">
                        <set attributeName="fill" to="#808080" begin="arrowRight.mouseover" end="arrowRight.mouseout"/>
                  </use>
                  <path fill="none" stroke="white" stroke-width="1.5" d="M0,-3.0v7 M-2.5,-0.5L0,-3.0L2.5,-0.5"/>
                </g>
                <g id="arrowDown" xlink:href="#dirArrow" transform="rotate(180) translate(-30 -48)" onmousedown="handlePan(0,1)">
                  <use xlink:href="#rim" fill="#404040">
                        <set attributeName="fill" to="#808080" begin="arrowDown.mouseover" end="arrowDown.mouseout"/>
                  </use>
                  <path fill="none" stroke="white" stroke-width="1.5" d="M0,-3.0v7 M-2.5,-0.5L0,-3.0L2.5,-0.5"/>
                </g>
                <g id="arrowLeft" xlink:href="#dirArrow" transform="rotate(270) translate(-36 17)" onmousedown="handlePan(-1,0)">
                  <use xlink:href="#rim" fill="#404040">
                        <set attributeName="fill" to="#808080" begin="arrowLeft.mouseover" end="arrowLeft.mouseout"/>
                  </use>
                  <path fill="none" stroke="white" stroke-width="1.5" d="M0,-3.0v7 M-2.5,-0.5L0,-3.0L2.5,-0.5"/>
                </g>
        </g>
        <svg viewBox="0 0 15 15" width="100%" height="30px" preserveAspectRatio="xMaxYMin meet">
         <g id="arrow_out" transform="scale(0.3 0.3)">
          <a xlink:href="classast_1_1_ast_math_oper_1_1_double_oper_ae1ba45bad2d2854e7378d5322c0c2c57_cgraph_org.svg" target="_base">
           <rect id="button" ry="5" rx="5" y="6" x="6" height="38" width="38"
                fill="#f2f5e9" fill-opacity="0.5" stroke="#606060" stroke-width="1.0"/>
           <path id="arrow"
             d="M 11.500037,31.436501 C 11.940474,20.09759 22.043105,11.32322 32.158766,21.979434 L 37.068811,17.246167 C 37.068811,17.246167 37.088388,32 37.088388,32 L 22.160133,31.978069 C 22.160133,31.978069 26.997745,27.140456 26.997745,27.140456 C 18.528582,18.264221 13.291696,25.230495 11.500037,31.436501 z"
             style="fill:#404040;"/>
          </a>
         </g>
        </svg>
</svg>
