<?xml version="1.0" encoding="UTF-8" standalone="no"?>
<!DOCTYPE svg PUBLIC "-//W3C//DTD SVG 1.1//EN"
 "http://www.w3.org/Graphics/SVG/1.1/DTD/svg11.dtd">
<!-- Generated by graphviz version 2.47.1 (20210417.1919)
 -->
<!-- Title: childData Pages: 1 -->
<svg width="414pt" height="28pt"
 viewBox="0.00 0.00 414.00 28.00" xmlns="http://www.w3.org/2000/svg" xmlns:xlink="http://www.w3.org/1999/xlink">
<g id="graph0" class="graph" transform="scale(1 1) rotate(0) translate(4 24)">
<title>childData</title>
<polygon fill="white" stroke="transparent" points="-4,4 -4,-24 410,-24 410,4 -4,4"/>
<!-- Node1 -->
<g id="node1" class="node">
<title>Node1</title>
<g id="a_node1"><a xlink:title="子型の文字列表現を返す。">
<polygon fill="#bfbfbf" stroke="black" points="348,-0.5 348,-19.5 406,-19.5 406,-0.5 348,-0.5"/>
<text text-anchor="middle" x="377" y="-7.5" font-family="Helvetica,sans-Serif" font-size="10.00">childData</text>
</a>
</g>
</g>
<!-- Node2 -->
<g id="node2" class="node">
<title>Node2</title>
<g id="a_node2"><a xlink:href="classtype_1_1_basic_typing.html#a3137357d0abb2bd75321d6e19024956a" target="_top" xlink:title="演算子型の文字列表現を返す。">
<polygon fill="white" stroke="black" points="277,-0.5 277,-19.5 312,-19.5 312,-0.5 277,-0.5"/>
<text text-anchor="middle" x="294.5" y="-7.5" font-family="Helvetica,sans-Serif" font-size="10.00">data</text>
</a>
</g>
</g>
<!-- Node1&#45;&gt;Node2 -->
<g id="edge1" class="edge">
<title>Node1&#45;&gt;Node2</title>
<path fill="none" stroke="midnightblue" d="M337.77,-10C328.71,-10 319.51,-10 312.02,-10"/>
<polygon fill="midnightblue" stroke="midnightblue" points="337.85,-13.5 347.85,-10 337.84,-6.5 337.85,-13.5"/>
</g>
<!-- Node3 -->
<g id="node3" class="node">
<title>Node3</title>
<g id="a_node3"><a xlink:href="classtype_1_1_basic_typing.html#ad146fa8579a5f8a876c4688cc5a68520" target="_top" xlink:title="演算子型の文字列表現を返す。">
<polygon fill="white" stroke="black" points="191,-0.5 191,-19.5 241,-19.5 241,-0.5 191,-0.5"/>
<text text-anchor="middle" x="216" y="-7.5" font-family="Helvetica,sans-Serif" font-size="10.00">toString</text>
</a>
</g>
</g>
<!-- Node2&#45;&gt;Node3 -->
<g id="edge2" class="edge">
<title>Node2&#45;&gt;Node3</title>
<path fill="none" stroke="midnightblue" d="M266.87,-3.53C258.5,-3.11 249.31,-3.16 241.12,-3.68"/>
<polygon fill="midnightblue" stroke="midnightblue" points="266.66,-7.03 276.9,-4.32 267.2,-0.05 266.66,-7.03"/>
</g>
<!-- Node3&#45;&gt;Node2 -->
<g id="edge4" class="edge">
<title>Node3&#45;&gt;Node2</title>
<path fill="none" stroke="midnightblue" d="M251.31,-16.72C260.2,-16.86 269.38,-16.52 276.9,-15.68"/>
<polygon fill="midnightblue" stroke="midnightblue" points="251.25,-13.21 241.12,-16.32 250.97,-20.21 251.25,-13.21"/>
</g>
<!-- Node4 -->
<g id="node4" class="node">
<title>Node4</title>
<g id="a_node4"><a xlink:href="classtype_1_1_child_hom_typing.html#ac773e3c20a29c208fea84c33d8b35cd2" target="_top" xlink:title="子型の文字列表現を返す。">
<polygon fill="white" stroke="black" points="0,-0.5 0,-19.5 155,-19.5 155,-0.5 0,-0.5"/>
<text text-anchor="middle" x="77.5" y="-7.5" font-family="Helvetica,sans-Serif" font-size="10.00">type.ChildHomTyping.childData</text>
</a>
</g>
</g>
<!-- Node3&#45;&gt;Node4 -->
<g id="edge3" class="edge">
<title>Node3&#45;&gt;Node4</title>
<path fill="none" stroke="midnightblue" d="M180.67,-10C172.75,-10 164.01,-10 155.07,-10"/>
<polygon fill="midnightblue" stroke="midnightblue" points="180.91,-13.5 190.91,-10 180.91,-6.5 180.91,-13.5"/>
</g>
</g>
</svg>
