<?xml version="1.0" encoding="UTF-8" standalone="no"?>
<!DOCTYPE svg PUBLIC "-//W3C//DTD SVG 1.1//EN"
 "http://www.w3.org/Graphics/SVG/1.1/DTD/svg11.dtd">
<!-- Generated by graphviz version 2.47.0 (20210316.0004)
 -->
<!-- Title: getNewEvent Pages: 1 -->
<svg width="447pt" height="39pt"
 viewBox="0.00 0.00 447.00 39.00" xmlns="http://www.w3.org/2000/svg" xmlns:xlink="http://www.w3.org/1999/xlink">
<g id="graph0" class="graph" transform="scale(1 1) rotate(0) translate(4 35)">
<title>getNewEvent</title>
<polygon fill="white" stroke="transparent" points="-4,4 -4,-35 443,-35 443,4 -4,4"/>
<!-- Node1 -->
<g id="node1" class="node">
<title>Node1</title>
<g id="a_node1"><a xlink:title="新しいイベントを返す。">
<polygon fill="#bfbfbf" stroke="black" points="363,-6 363,-25 439,-25 439,-6 363,-6"/>
<text text-anchor="middle" x="401" y="-13" font-family="Helvetica,sans-Serif" font-size="10.00">getNewEvent</text>
</a>
</g>
</g>
<!-- Node2 -->
<g id="node2" class="node">
<title>Node2</title>
<g id="a_node2"><a xlink:href="classevent_1_1xpp_1_1_xpp_event_reader.html#a1c3e36047f9c1f923a67d3c0b5483d0f" target="_top" xlink:title="次のイベントを返す.">
<polygon fill="white" stroke="black" points="175,-0.5 175,-30.5 327,-30.5 327,-0.5 175,-0.5"/>
<text text-anchor="start" x="183" y="-18.5" font-family="Helvetica,sans-Serif" font-size="10.00">event.xpp.XppEventReader.get</text>
<text text-anchor="middle" x="251" y="-7.5" font-family="Helvetica,sans-Serif" font-size="10.00">NextEvent</text>
</a>
</g>
</g>
<!-- Node1&#45;&gt;Node2 -->
<g id="edge1" class="edge">
<title>Node1&#45;&gt;Node2</title>
<path fill="none" stroke="midnightblue" d="M352.63,-15.5C344.48,-15.5 335.83,-15.5 327.16,-15.5"/>
<polygon fill="midnightblue" stroke="midnightblue" points="352.65,-19 362.65,-15.5 352.65,-12 352.65,-19"/>
</g>
<!-- Node3 -->
<g id="node3" class="node">
<title>Node3</title>
<g id="a_node3"><a xlink:href="classevent_1_1xpp_1_1_xpp_event_reader_1_1_xpp_event_iterator.html#aface30febb89dafb3fe3ea57f1ca1e3b" target="_top" xlink:title="次の要素であるイベントを返す．終端に達したときはEOS型のイベントを返す．">
<polygon fill="white" stroke="black" points="0,-0.5 0,-30.5 139,-30.5 139,-0.5 0,-0.5"/>
<text text-anchor="start" x="8" y="-18.5" font-family="Helvetica,sans-Serif" font-size="10.00">event.xpp.XppEventReader.</text>
<text text-anchor="middle" x="69.5" y="-7.5" font-family="Helvetica,sans-Serif" font-size="10.00">XppEventIterator.next</text>
</a>
</g>
</g>
<!-- Node2&#45;&gt;Node3 -->
<g id="edge2" class="edge">
<title>Node2&#45;&gt;Node3</title>
<path fill="none" stroke="midnightblue" d="M164.88,-15.5C156.3,-15.5 147.65,-15.5 139.27,-15.5"/>
<polygon fill="midnightblue" stroke="midnightblue" points="164.92,-19 174.92,-15.5 164.92,-12 164.92,-19"/>
</g>
</g>
</svg>
