<?xml version="1.0" encoding="UTF-8" standalone="no"?>
<!DOCTYPE svg PUBLIC "-//W3C//DTD SVG 1.1//EN"
 "http://www.w3.org/Graphics/SVG/1.1/DTD/svg11.dtd">
<!-- Generated by graphviz version 2.47.0 (20210316.0004)
 -->
<!-- Title: AstNodeTaggedSettable Pages: 1 -->
<svg width="864pt" height="506pt"
 viewBox="0.00 0.00 864.00 505.53" xmlns="http://www.w3.org/2000/svg" xmlns:xlink="http://www.w3.org/1999/xlink">
<g id="graph0" class="graph" transform="scale(1 1) rotate(0) translate(4 501.53)">
<title>AstNodeTaggedSettable</title>
<polygon fill="white" stroke="transparent" points="-4,4 -4,-501.53 860,-501.53 860,4 -4,4"/>
<!-- Node1 -->
<g id="node1" class="node">
<title>Node1</title>
<g id="a_node1"><a xlink:title="タグ付きの子をもつノードのクラス．利用者は自前で，追加する子のField名と，Getter，Setter，型を設定する．読み出しは子の添字でも行える．">
<polygon fill="#bfbfbf" stroke="black" points="734,-76.5 734,-95.5 856,-95.5 856,-76.5 734,-76.5"/>
<text text-anchor="middle" x="795" y="-83.5" font-family="Helvetica,sans-Serif" font-size="10.00">AstNodeTaggedSettable</text>
</a>
</g>
</g>
<!-- Node2 -->
<g id="node2" class="node">
<title>Node2</title>
<g id="a_node2"><a xlink:href="classast_1_1_ast_node.html" target="_top" xlink:title="タグなしの順アクセスの子供をもてる抽象構文木のノードのクラス。">
<polygon fill="white" stroke="black" points="555.5,-114.5 555.5,-133.5 610.5,-133.5 610.5,-114.5 555.5,-114.5"/>
<text text-anchor="middle" x="583" y="-121.5" font-family="Helvetica,sans-Serif" font-size="10.00">AstNode</text>
</a>
</g>
</g>
<!-- Node2&#45;&gt;Node1 -->
<g id="edge1" class="edge">
<title>Node2&#45;&gt;Node1</title>
<path fill="none" stroke="midnightblue" d="M620.56,-117.81C647.07,-113.27 683.78,-106.9 716,-101 725.36,-99.28 735.34,-97.4 744.93,-95.57"/>
<polygon fill="midnightblue" stroke="midnightblue" points="619.84,-114.38 610.57,-119.51 621.02,-121.28 619.84,-114.38"/>
</g>
<!-- Node3 -->
<g id="node3" class="node">
<title>Node3</title>
<g id="a_node3"><a xlink:href="classast_1_1_ast_node_base.html" target="_top" xlink:title=" ">
<polygon fill="white" stroke="black" points="273.5,-152.5 273.5,-171.5 350.5,-171.5 350.5,-152.5 273.5,-152.5"/>
<text text-anchor="middle" x="312" y="-159.5" font-family="Helvetica,sans-Serif" font-size="10.00">AstNodeBase</text>
</a>
</g>
</g>
<!-- Node3&#45;&gt;Node2 -->
<g id="edge2" class="edge">
<title>Node3&#45;&gt;Node2</title>
<path fill="none" stroke="midnightblue" d="M360.9,-155.31C395.19,-150.51 442.44,-143.89 484,-138 508.16,-134.58 535.67,-130.65 555.38,-127.82"/>
<polygon fill="midnightblue" stroke="midnightblue" points="360.12,-151.88 350.7,-156.74 361.09,-158.82 360.12,-151.88"/>
</g>
<!-- Node4 -->
<g id="node4" class="node">
<title>Node4</title>
<g id="a_node4"><a xlink:title=" ">
<polygon fill="white" stroke="#bfbfbf" points="16.5,-234.5 16.5,-253.5 58.5,-253.5 58.5,-234.5 16.5,-234.5"/>
<text text-anchor="middle" x="37.5" y="-241.5" font-family="Helvetica,sans-Serif" font-size="10.00">String</text>
</a>
</g>
</g>
<!-- Node4&#45;&gt;Node3 -->
<g id="edge3" class="edge">
<title>Node4&#45;&gt;Node3</title>
<path fill="none" stroke="#9a32cd" stroke-dasharray="5,2" d="M53.08,-226.92C63.18,-216.27 77.53,-203.25 93,-196 109,-188.5 215.17,-174.15 273.23,-166.72"/>
<polygon fill="#9a32cd" stroke="#9a32cd" points="50.37,-224.71 46.25,-234.47 55.55,-229.4 50.37,-224.71"/>
<text text-anchor="middle" x="154.5" y="-210" font-family="Helvetica,sans-Serif" font-size="10.00"> MOD_AST</text>
<text text-anchor="middle" x="154.5" y="-199" font-family="Helvetica,sans-Serif" font-size="10.00">mod_</text>
</g>
<!-- Node15 -->
<g id="node15" class="node">
<title>Node15</title>
<g id="a_node15"><a xlink:href="classformat_1_1_style.html" target="_top" xlink:title="ノードの表示スタイルに関するプロパティのクラス.">
<polygon fill="white" stroke="black" points="292.5,-331.5 292.5,-350.5 331.5,-350.5 331.5,-331.5 292.5,-331.5"/>
<text text-anchor="middle" x="312" y="-338.5" font-family="Helvetica,sans-Serif" font-size="10.00">Style</text>
</a>
</g>
</g>
<!-- Node4&#45;&gt;Node15 -->
<g id="edge17" class="edge">
<title>Node4&#45;&gt;Node15</title>
<path fill="none" stroke="#9a32cd" stroke-dasharray="5,2" d="M68.28,-255.48C76.23,-258.24 84.86,-260.97 93,-263 146.67,-276.38 164.12,-262.8 216,-282 248.59,-294.06 282.05,-318.1 299.23,-331.47"/>
<polygon fill="#9a32cd" stroke="#9a32cd" points="69.27,-252.12 58.68,-252.02 66.9,-258.7 69.27,-252.12"/>
<text text-anchor="middle" x="154.5" y="-362" font-family="Helvetica,sans-Serif" font-size="10.00"> childLPAD</text>
<text text-anchor="middle" x="154.5" y="-351" font-family="Helvetica,sans-Serif" font-size="10.00">childRPAD</text>
<text text-anchor="middle" x="154.5" y="-340" font-family="Helvetica,sans-Serif" font-size="10.00">name</text>
<text text-anchor="middle" x="154.5" y="-329" font-family="Helvetica,sans-Serif" font-size="10.00">operSTR</text>
<text text-anchor="middle" x="154.5" y="-318" font-family="Helvetica,sans-Serif" font-size="10.00">parenLPAD</text>
<text text-anchor="middle" x="154.5" y="-307" font-family="Helvetica,sans-Serif" font-size="10.00">parenLPAR</text>
<text text-anchor="middle" x="154.5" y="-296" font-family="Helvetica,sans-Serif" font-size="10.00">parenRPAD</text>
<text text-anchor="middle" x="154.5" y="-285" font-family="Helvetica,sans-Serif" font-size="10.00">parenRPAR</text>
</g>
<!-- Node5 -->
<g id="node5" class="node">
<title>Node5</title>
<g id="a_node5"><a xlink:title=" ">
<polygon fill="white" stroke="#bfbfbf" points="5,-117.5 5,-136.5 70,-136.5 70,-117.5 5,-117.5"/>
<text text-anchor="middle" x="37.5" y="-124.5" font-family="Helvetica,sans-Serif" font-size="10.00">TraceLevel</text>
</a>
</g>
</g>
<!-- Node5&#45;&gt;Node3 -->
<g id="edge4" class="edge">
<title>Node5&#45;&gt;Node3</title>
<path fill="none" stroke="#9a32cd" stroke-dasharray="5,2" d="M80.15,-130.32C116.19,-133.41 169.65,-138.51 216,-145 234.92,-147.65 255.82,-151.31 273.2,-154.55"/>
<polygon fill="#9a32cd" stroke="#9a32cd" points="80.27,-126.82 70.01,-129.47 79.68,-133.8 80.27,-126.82"/>
<text text-anchor="middle" x="154.5" y="-148" font-family="Helvetica,sans-Serif" font-size="10.00"> LOG</text>
</g>
<!-- Node6 -->
<g id="node6" class="node">
<title>Node6</title>
<g id="a_node6"><a xlink:title=" ">
<polygon fill="white" stroke="#bfbfbf" points="1,-79.5 1,-98.5 74,-98.5 74,-79.5 1,-79.5"/>
<text text-anchor="middle" x="37.5" y="-86.5" font-family="Helvetica,sans-Serif" font-size="10.00">static Report</text>
</a>
</g>
</g>
<!-- Node6&#45;&gt;Node3 -->
<g id="edge5" class="edge">
<title>Node6&#45;&gt;Node3</title>
<path fill="none" stroke="#9a32cd" stroke-dasharray="5,2" d="M84.38,-86.14C122.46,-85.94 176.58,-90.91 216,-116 228.17,-123.74 222.2,-134.71 234,-143 245.49,-151.07 260.05,-155.73 273.41,-158.41"/>
<polygon fill="#9a32cd" stroke="#9a32cd" points="84.02,-82.64 74.09,-86.32 84.15,-89.64 84.02,-82.64"/>
<text text-anchor="middle" x="154.5" y="-119" font-family="Helvetica,sans-Serif" font-size="10.00"> repo</text>
</g>
<!-- Node7 -->
<g id="node7" class="node">
<title>Node7</title>
<g id="a_node7"><a xlink:title=" ">
<polygon fill="white" stroke="#bfbfbf" points="23,-329.5 23,-348.5 52,-348.5 52,-329.5 23,-329.5"/>
<text text-anchor="middle" x="37.5" y="-336.5" font-family="Helvetica,sans-Serif" font-size="10.00">int</text>
</a>
</g>
</g>
<!-- Node7&#45;&gt;Node3 -->
<g id="edge6" class="edge">
<title>Node7&#45;&gt;Node3</title>
<path fill="none" stroke="#9a32cd" stroke-dasharray="5,2" d="M47.53,-319.95C60.99,-291.92 85.52,-242.3 93,-237 138.13,-205.01 163.91,-236.6 216,-218 247.73,-206.67 280.74,-184.45 298.26,-171.67"/>
<polygon fill="#9a32cd" stroke="#9a32cd" points="44.28,-318.64 43.13,-329.18 50.59,-321.66 44.28,-318.64"/>
<text text-anchor="middle" x="154.5" y="-251" font-family="Helvetica,sans-Serif" font-size="10.00"> BITMASK_PRINT_WIDTH</text>
<text text-anchor="middle" x="154.5" y="-240" font-family="Helvetica,sans-Serif" font-size="10.00">UNDEF</text>
</g>
<!-- Node7&#45;&gt;Node15 -->
<g id="edge18" class="edge">
<title>Node7&#45;&gt;Node15</title>
<path fill="none" stroke="#9a32cd" stroke-dasharray="5,2" d="M57.18,-354.8C67.13,-362.19 79.98,-370.18 93,-374 145.45,-389.39 162.1,-383.1 216,-374 243.37,-369.38 273.39,-357.77 292.21,-349.63"/>
<polygon fill="#9a32cd" stroke="#9a32cd" points="59.28,-352 49.25,-348.59 54.96,-357.51 59.28,-352"/>
<text text-anchor="middle" x="154.5" y="-386" font-family="Helvetica,sans-Serif" font-size="10.00"> pref</text>
</g>
<!-- Node8 -->
<g id="node8" class="node">
<title>Node8</title>
<g id="a_node8"><a xlink:href="interfacetype_1_1_typable.html" target="_top" xlink:title="抽象ノードがもつ関数型のインタフェース">
<polygon fill="white" stroke="black" points="12.5,-155.5 12.5,-174.5 62.5,-174.5 62.5,-155.5 12.5,-155.5"/>
<text text-anchor="middle" x="37.5" y="-162.5" font-family="Helvetica,sans-Serif" font-size="10.00">Typable</text>
</a>
</g>
</g>
<!-- Node8&#45;&gt;Node3 -->
<g id="edge7" class="edge">
<title>Node8&#45;&gt;Node3</title>
<path fill="none" stroke="#9a32cd" stroke-dasharray="5,2" d="M72.82,-162.82C79.51,-162.48 86.47,-162.18 93,-162 156.18,-160.26 229.7,-160.79 273.18,-161.37"/>
<polygon fill="#9a32cd" stroke="#9a32cd" points="72.43,-159.34 62.63,-163.39 72.81,-166.33 72.43,-159.34"/>
<text text-anchor="middle" x="154.5" y="-165" font-family="Helvetica,sans-Serif" font-size="10.00"> typing</text>
</g>
<!-- Node9 -->
<g id="node9" class="node">
<title>Node9</title>
<g id="a_node9"><a xlink:title=" ">
<polygon fill="white" stroke="#bfbfbf" points="12.5,-454.5 12.5,-473.5 62.5,-473.5 62.5,-454.5 12.5,-454.5"/>
<text text-anchor="middle" x="37.5" y="-461.5" font-family="Helvetica,sans-Serif" font-size="10.00">boolean</text>
</a>
</g>
</g>
<!-- Node9&#45;&gt;Node1 -->
<g id="edge22" class="edge">
<title>Node9&#45;&gt;Node1</title>
<path fill="none" stroke="#9a32cd" stroke-dasharray="5,2" d="M65.26,-477.8C73.89,-481.55 83.64,-485.11 93,-487 146.58,-497.84 163.83,-503.33 216,-487 482.92,-403.48 734.81,-148.51 784.98,-95.65"/>
<polygon fill="#9a32cd" stroke="#9a32cd" points="66.63,-474.57 56.09,-473.54 63.69,-480.92 66.63,-474.57"/>
<text text-anchor="middle" x="446" y="-401" font-family="Helvetica,sans-Serif" font-size="10.00"> DEBUG_REPO</text>
</g>
<!-- Node9&#45;&gt;Node3 -->
<g id="edge8" class="edge">
<title>Node9&#45;&gt;Node3</title>
<path fill="none" stroke="#9a32cd" stroke-dasharray="5,2" d="M59.13,-448.49C68.96,-441.71 81.15,-434.13 93,-429 144.73,-406.59 176.42,-438.15 216,-398 240.37,-373.28 222.41,-354.72 234,-322 255,-262.72 291.43,-196.32 305.36,-171.79"/>
<polygon fill="#9a32cd" stroke="#9a32cd" points="56.94,-445.76 50.83,-454.42 61.01,-451.45 56.94,-445.76"/>
<text text-anchor="middle" x="154.5" y="-432" font-family="Helvetica,sans-Serif" font-size="10.00"> DEBUG_REPO</text>
</g>
<!-- Node9&#45;&gt;Node15 -->
<g id="edge19" class="edge">
<title>Node9&#45;&gt;Node15</title>
<path fill="none" stroke="#9a32cd" stroke-dasharray="5,2" d="M72.61,-462.52C116.96,-460.12 191.65,-454.36 216,-442 258.72,-420.32 292.43,-371.31 305.32,-350.57"/>
<polygon fill="#9a32cd" stroke="#9a32cd" points="72.37,-459.02 62.57,-463.03 72.73,-466.01 72.37,-459.02"/>
<text text-anchor="middle" x="154.5" y="-475" font-family="Helvetica,sans-Serif" font-size="10.00"> preoperSupress</text>
<text text-anchor="middle" x="154.5" y="-464" font-family="Helvetica,sans-Serif" font-size="10.00">toInline</text>
</g>
<!-- Node10 -->
<g id="node10" class="node">
<title>Node10</title>
<g id="a_node10"><a xlink:href="interfaceast_1_1_node.html" target="_top" xlink:title=" ">
<polygon fill="white" stroke="black" points="292,-0.5 292,-19.5 332,-19.5 332,-0.5 292,-0.5"/>
<text text-anchor="middle" x="312" y="-7.5" font-family="Helvetica,sans-Serif" font-size="10.00">Node</text>
</a>
</g>
</g>
<!-- Node10&#45;&gt;Node2 -->
<g id="edge9" class="edge">
<title>Node10&#45;&gt;Node2</title>
<path fill="none" stroke="midnightblue" d="M342.13,-16.16C356.65,-19.49 374.4,-23.95 390,-29 432.87,-42.88 451.22,-36.08 484,-67 497.59,-79.82 487.48,-93.24 502,-105 516.98,-117.13 538.4,-121.75 555.31,-123.41"/>
<polygon fill="midnightblue" stroke="midnightblue" points="342.72,-12.7 332.2,-13.94 341.2,-19.54 342.72,-12.7"/>
</g>
<!-- Node11 -->
<g id="node11" class="node">
<title>Node11</title>
<g id="a_node11"><a xlink:href="interfaceformat_1_1_x_formattable.html" target="_top" xlink:title="入れ子フォーマット出力可能なオブジェクトのインタフェース。">
<polygon fill="white" stroke="black" points="0,-25.5 0,-44.5 75,-44.5 75,-25.5 0,-25.5"/>
<text text-anchor="middle" x="37.5" y="-32.5" font-family="Helvetica,sans-Serif" font-size="10.00">XFormattable</text>
</a>
</g>
</g>
<!-- Node11&#45;&gt;Node10 -->
<g id="edge10" class="edge">
<title>Node11&#45;&gt;Node10</title>
<path fill="none" stroke="midnightblue" d="M85.35,-30.7C146.08,-25.13 249.25,-15.66 291.79,-11.76"/>
<polygon fill="midnightblue" stroke="midnightblue" points="84.89,-27.23 75.25,-31.63 85.53,-34.2 84.89,-27.23"/>
</g>
<!-- Node12 -->
<g id="node12" class="node">
<title>Node12</title>
<g id="a_node12"><a xlink:href="interfaceformat_1_1_x_formattable_1_1_navigatable.html" target="_top" xlink:title="木構造の分岐ノードとして清書可能なオブジェクトのクラス">
<polygon fill="white" stroke="black" points="247,-114.5 247,-133.5 377,-133.5 377,-114.5 247,-114.5"/>
<text text-anchor="middle" x="312" y="-121.5" font-family="Helvetica,sans-Serif" font-size="10.00">XFormattable.Navigatable</text>
</a>
</g>
</g>
<!-- Node11&#45;&gt;Node12 -->
<g id="edge12" class="edge">
<title>Node11&#45;&gt;Node12</title>
<path fill="none" stroke="midnightblue" d="M84.74,-45.63C133.55,-57.11 204.95,-74.72 216,-82 226.84,-89.14 223.1,-97.95 234,-105 240.01,-108.89 246.76,-111.98 253.69,-114.44"/>
<polygon fill="midnightblue" stroke="midnightblue" points="85.54,-42.22 75,-43.35 83.94,-49.04 85.54,-42.22"/>
</g>
<!-- Node13 -->
<g id="node13" class="node">
<title>Node13</title>
<g id="a_node13"><a xlink:href="interfaceformat_1_1_x_formattable_1_1_typed_formattable.html" target="_top" xlink:title="ノードの型情報をもつ書式出力可能なオブジェクトのインタフェース．">
<polygon fill="white" stroke="black" points="234,-38.5 234,-57.5 390,-57.5 390,-38.5 234,-38.5"/>
<text text-anchor="middle" x="312" y="-45.5" font-family="Helvetica,sans-Serif" font-size="10.00">XFormattable.TypedFormattable</text>
</a>
</g>
</g>
<!-- Node11&#45;&gt;Node13 -->
<g id="edge14" class="edge">
<title>Node11&#45;&gt;Node13</title>
<path fill="none" stroke="midnightblue" d="M85.44,-37.24C126.22,-39.18 186.07,-42.04 233.87,-44.32"/>
<polygon fill="midnightblue" stroke="midnightblue" points="85.41,-33.73 75.25,-36.75 85.07,-40.73 85.41,-33.73"/>
</g>
<!-- Node12&#45;&gt;Node2 -->
<g id="edge11" class="edge">
<title>Node12&#45;&gt;Node2</title>
<path fill="none" stroke="midnightblue" d="M387.32,-124C443.24,-124 516.65,-124 555.39,-124"/>
<polygon fill="midnightblue" stroke="midnightblue" points="387.09,-120.5 377.09,-124 387.09,-127.5 387.09,-120.5"/>
</g>
<!-- Node13&#45;&gt;Node2 -->
<g id="edge13" class="edge">
<title>Node13&#45;&gt;Node2</title>
<path fill="none" stroke="midnightblue" d="M363.03,-60.05C372.02,-62.3 381.3,-64.68 390,-67 432,-78.21 444.21,-76.51 484,-94 492.58,-97.77 493.33,-101.43 502,-105 519.16,-112.07 539.52,-116.86 555.41,-119.86"/>
<polygon fill="midnightblue" stroke="midnightblue" points="363.59,-56.59 353.04,-57.58 361.9,-63.38 363.59,-56.59"/>
</g>
<!-- Node14 -->
<g id="node14" class="node">
<title>Node14</title>
<g id="a_node14"><a xlink:title=" ">
<polygon fill="white" stroke="#bfbfbf" points="286,-76.5 286,-95.5 338,-95.5 338,-76.5 286,-76.5"/>
<text text-anchor="middle" x="312" y="-83.5" font-family="Helvetica,sans-Serif" font-size="10.00">Boolean</text>
</a>
</g>
</g>
<!-- Node14&#45;&gt;Node2 -->
<g id="edge15" class="edge">
<title>Node14&#45;&gt;Node2</title>
<path fill="none" stroke="#9a32cd" stroke-dasharray="5,2" d="M348.3,-90.56C382.9,-95.07 437.11,-102.26 484,-109 508.19,-112.48 535.7,-116.71 555.4,-119.79"/>
<polygon fill="#9a32cd" stroke="#9a32cd" points="348.59,-87.07 338.23,-89.25 347.69,-94.01 348.59,-87.07"/>
<text text-anchor="middle" x="446" y="-112" font-family="Helvetica,sans-Serif" font-size="10.00"> DEBUG_CHILD</text>
</g>
<!-- Node15&#45;&gt;Node2 -->
<g id="edge16" class="edge">
<title>Node15&#45;&gt;Node2</title>
<path fill="none" stroke="#9a32cd" stroke-dasharray="5,2" d="M332.83,-325C385.47,-282.54 527.57,-167.91 569.93,-133.74"/>
<polygon fill="#9a32cd" stroke="#9a32cd" points="330.49,-322.39 324.91,-331.4 334.89,-327.84 330.49,-322.39"/>
<text text-anchor="middle" x="446" y="-261" font-family="Helvetica,sans-Serif" font-size="10.00"> sty</text>
</g>
<!-- Node16 -->
<g id="node16" class="node">
<title>Node16</title>
<g id="a_node16"><a xlink:title=" ">
<polygon fill="white" stroke="#bfbfbf" points="545,-76.5 545,-95.5 621,-95.5 621,-76.5 545,-76.5"/>
<text text-anchor="middle" x="583" y="-83.5" font-family="Helvetica,sans-Serif" font-size="10.00">List&lt; String &gt;</text>
</a>
</g>
</g>
<!-- Node16&#45;&gt;Node1 -->
<g id="edge20" class="edge">
<title>Node16&#45;&gt;Node1</title>
<path fill="none" stroke="#9a32cd" stroke-dasharray="5,2" d="M631.37,-86C661.71,-86 701.33,-86 733.87,-86"/>
<polygon fill="#9a32cd" stroke="#9a32cd" points="631.06,-82.5 621.06,-86 631.06,-89.5 631.06,-82.5"/>
<text text-anchor="middle" x="699" y="-89" font-family="Helvetica,sans-Serif" font-size="10.00"> fields</text>
</g>
<!-- Node17 -->
<g id="node17" class="node">
<title>Node17</title>
<g id="a_node17"><a xlink:title=" ">
<polygon fill="white" stroke="#bfbfbf" points="502,-38.5 502,-57.5 664,-57.5 664,-38.5 502,-38.5"/>
<text text-anchor="middle" x="583" y="-45.5" font-family="Helvetica,sans-Serif" font-size="10.00">List&lt; Supplier&lt; XFormattable &gt; &gt;</text>
</a>
</g>
</g>
<!-- Node17&#45;&gt;Node1 -->
<g id="edge21" class="edge">
<title>Node17&#45;&gt;Node1</title>
<path fill="none" stroke="#9a32cd" stroke-dasharray="5,2" d="M649.77,-59.23C670.93,-62.9 694.47,-67.05 716,-71 725.36,-72.72 735.34,-74.6 744.93,-76.43"/>
<polygon fill="#9a32cd" stroke="#9a32cd" points="650.37,-55.78 639.92,-57.52 649.17,-62.68 650.37,-55.78"/>
<text text-anchor="middle" x="699" y="-74" font-family="Helvetica,sans-Serif" font-size="10.00"> getters</text>
</g>
<!-- Node18 -->
<g id="node18" class="node">
<title>Node18</title>
<g id="a_node18"><a xlink:title=" ">
<polygon fill="white" stroke="#bfbfbf" points="506.5,-0.5 506.5,-19.5 659.5,-19.5 659.5,-0.5 506.5,-0.5"/>
<text text-anchor="middle" x="583" y="-7.5" font-family="Helvetica,sans-Serif" font-size="10.00">List&lt; Consumer&lt; ast.Node &gt; &gt;</text>
</a>
</g>
</g>
<!-- Node18&#45;&gt;Node1 -->
<g id="edge23" class="edge">
<title>Node18&#45;&gt;Node1</title>
<path fill="none" stroke="#9a32cd" stroke-dasharray="5,2" d="M639.56,-22.05C647.81,-24.17 656.17,-26.5 664,-29 705.09,-42.09 750.75,-63.92 775.53,-76.42"/>
<polygon fill="#9a32cd" stroke="#9a32cd" points="640.15,-18.59 629.6,-19.58 638.46,-25.38 640.15,-18.59"/>
<text text-anchor="middle" x="699" y="-51" font-family="Helvetica,sans-Serif" font-size="10.00"> setters</text>
</g>
</g>
</svg>
