<?xml version="1.0" encoding="UTF-8" standalone="no"?>
<!DOCTYPE svg PUBLIC "-//W3C//DTD SVG 1.1//EN"
 "http://www.w3.org/Graphics/SVG/1.1/DTD/svg11.dtd">
<!-- Generated by graphviz version 2.47.0 (20210316.0004)
 -->
<!-- Title: Path Pages: 1 -->
<svg width="246pt" height="140pt"
 viewBox="0.00 0.00 245.50 140.00" xmlns="http://www.w3.org/2000/svg" xmlns:xlink="http://www.w3.org/1999/xlink">
<g id="graph0" class="graph" transform="scale(1 1) rotate(0) translate(4 136)">
<title>Path</title>
<polygon fill="white" stroke="transparent" points="-4,4 -4,-136 241.5,-136 241.5,4 -4,4"/>
<!-- Node1 -->
<g id="node1" class="node">
<title>Node1</title>
<g id="a_node1"><a xlink:title=" ">
<polygon fill="#bfbfbf" stroke="black" points="73,-0.5 73,-19.5 110,-19.5 110,-0.5 73,-0.5"/>
<text text-anchor="middle" x="91.5" y="-7.5" font-family="Helvetica,sans-Serif" font-size="10.00">Path</text>
</a>
</g>
</g>
<!-- Node2 -->
<g id="node2" class="node">
<title>Node2</title>
<g id="a_node2"><a xlink:href="classast_1_1_ast_node.html" target="_top" xlink:title=" ">
<polygon fill="white" stroke="black" points="0,-56.5 0,-75.5 55,-75.5 55,-56.5 0,-56.5"/>
<text text-anchor="middle" x="27.5" y="-63.5" font-family="Helvetica,sans-Serif" font-size="10.00">AstNode</text>
</a>
</g>
</g>
<!-- Node2&#45;&gt;Node1 -->
<g id="edge1" class="edge">
<title>Node2&#45;&gt;Node1</title>
<path fill="none" stroke="midnightblue" d="M40.24,-49C50.61,-39.43 64.95,-27.64 76,-19.75"/>
<polygon fill="midnightblue" stroke="midnightblue" points="37.66,-46.62 32.9,-56.08 42.53,-51.65 37.66,-46.62"/>
</g>
<!-- Node2&#45;&gt;Node1 -->
<g id="edge5" class="edge">
<title>Node2&#45;&gt;Node1</title>
<path fill="none" stroke="midnightblue" d="M51.27,-50.1C63.89,-40.38 78.21,-28.03 86.18,-19.83"/>
<polygon fill="midnightblue" stroke="midnightblue" points="48.83,-47.55 42.9,-56.32 53.01,-53.16 48.83,-47.55"/>
</g>
<!-- Node3 -->
<g id="node3" class="node">
<title>Node3</title>
<g id="a_node3"><a xlink:href="interfaceformat_1_1_x_formattable.html" target="_top" xlink:title="入れ子フォーマット出力可能なオブジェクトのインタフェース。">
<polygon fill="white" stroke="black" points="54,-112.5 54,-131.5 129,-131.5 129,-112.5 54,-112.5"/>
<text text-anchor="middle" x="91.5" y="-119.5" font-family="Helvetica,sans-Serif" font-size="10.00">XFormattable</text>
</a>
</g>
</g>
<!-- Node3&#45;&gt;Node2 -->
<g id="edge2" class="edge">
<title>Node3&#45;&gt;Node2</title>
<path fill="none" stroke="midnightblue" d="M73.51,-105.82C62.04,-96.15 47.59,-83.95 37.97,-75.83"/>
<polygon fill="midnightblue" stroke="midnightblue" points="71.32,-108.55 81.22,-112.32 75.83,-103.2 71.32,-108.55"/>
</g>
<!-- Node4 -->
<g id="node4" class="node">
<title>Node4</title>
<g id="a_node4"><a xlink:href="interfaceformat_1_1_x_formattable_1_1_custom_formattable.html" target="_top" xlink:title="カスタム清書出力器をもつオブジェクトのクラス．">
<polygon fill="white" stroke="black" points="73.5,-56.5 73.5,-75.5 237.5,-75.5 237.5,-56.5 73.5,-56.5"/>
<text text-anchor="middle" x="155.5" y="-63.5" font-family="Helvetica,sans-Serif" font-size="10.00">XFormattable.CustomFormattable</text>
</a>
</g>
</g>
<!-- Node3&#45;&gt;Node4 -->
<g id="edge4" class="edge">
<title>Node3&#45;&gt;Node4</title>
<path fill="none" stroke="midnightblue" d="M109.49,-105.82C120.96,-96.15 135.41,-83.95 145.03,-75.83"/>
<polygon fill="midnightblue" stroke="midnightblue" points="107.17,-103.2 101.78,-112.32 111.68,-108.55 107.17,-103.2"/>
</g>
<!-- Node4&#45;&gt;Node1 -->
<g id="edge3" class="edge">
<title>Node4&#45;&gt;Node1</title>
<path fill="none" stroke="midnightblue" d="M131.73,-50.1C119.11,-40.38 104.79,-28.03 96.82,-19.83"/>
<polygon fill="midnightblue" stroke="midnightblue" points="129.99,-53.16 140.1,-56.32 134.17,-47.55 129.99,-53.16"/>
</g>
<!-- Node4&#45;&gt;Node1 -->
<g id="edge6" class="edge">
<title>Node4&#45;&gt;Node1</title>
<path fill="none" stroke="midnightblue" d="M142.76,-49C132.39,-39.43 118.05,-27.64 107,-19.75"/>
<polygon fill="midnightblue" stroke="midnightblue" points="140.47,-51.65 150.1,-56.08 145.34,-46.62 140.47,-51.65"/>
</g>
</g>
</svg>
