<?xml version="1.0" encoding="UTF-8" standalone="no"?>
<!DOCTYPE svg PUBLIC "-//W3C//DTD SVG 1.1//EN"
 "http://www.w3.org/Graphics/SVG/1.1/DTD/svg11.dtd">
<!-- Generated by graphviz version 2.47.1 (20210417.1919)
 -->
<!-- Title: XCNorm Pages: 1 -->
<!--zoomable 654 -->
<svg id="main" version="1.1" xmlns="http://www.w3.org/2000/svg" xmlns:xlink="http://www.w3.org/1999/xlink" xml:space="preserve" onload="init(evt)">
<style type="text/css"><![CDATA[
.edge:hover path { stroke: red; }
.edge:hover polygon { stroke: red; fill: red; }
]]></style>
<script type="text/javascript"><![CDATA[
var edges = document.getElementsByTagName('g');
if (edges && edges.length) {
  for (var i=0;i<edges.length;i++) {
    if (edges[i].id.substr(0,4)=='edge') {
      edges[i].setAttribute('class','edge');
    }
  }
}
]]></script>
        <defs>
                <circle id="rim" cx="0" cy="0" r="7"/>
                <circle id="rim2" cx="0" cy="0" r="3.5"/>
                <g id="zoomPlus">
                        <use xlink:href="#rim" fill="#404040">
                                <set attributeName="fill" to="#808080" begin="zoomplus.mouseover" end="zoomplus.mouseout"/>
                        </use>
                        <path d="M-4,0h8M0,-4v8" fill="none" stroke="white" stroke-width="1.5" pointer-events="none"/>
                </g>
                <g id="zoomMin">
                        <use xlink:href="#rim" fill="#404040">
                                <set attributeName="fill" to="#808080" begin="zoomminus.mouseover" end="zoomminus.mouseout"/>
                        </use>
                        <path d="M-4,0h8" fill="none" stroke="white" stroke-width="1.5" pointer-events="none"/>
                </g>
                <g id="dirArrow">
                        <path fill="none" stroke="white" stroke-width="1.5" d="M0,-3.0v7 M-2.5,-0.5L0,-3.0L2.5,-0.5"/>
                </g>
               <g id="resetDef">
                       <use xlink:href="#rim2" fill="#404040">
                               <set attributeName="fill" to="#808080" begin="reset.mouseover" end="reset.mouseout"/>
                       </use>
               </g>
        </defs>

<script type="text/javascript">
var viewWidth = 1259;
var viewHeight = 654;
var sectionId = 'dynsection-1';
</script>
<script xlink:href="svgpan.js"/>
<svg id="graph" class="graph">
<g id="viewport">
<title>XCNorm</title>
<polygon fill="white" stroke="transparent" points="-4,4 -4,-650 1255,-650 1255,4 -4,4"/>
<!-- Node1 -->
<g id="node1" class="node">
<title>Node1</title>
<g id="a_node1"><a xlink:title=" ">
<polygon fill="#bfbfbf" stroke="black" points="1196,-145.5 1196,-164.5 1251,-164.5 1251,-145.5 1196,-145.5"/>
<text text-anchor="middle" x="1223.5" y="-152.5" font-family="Helvetica,sans-Serif" font-size="10.00">XCNorm</text>
</a>
</g>
</g>
<!-- Node2 -->
<g id="node2" class="node">
<title>Node2</title>
<g id="a_node2"><a xlink:href="classcompile_1_1_x_compiler.html" target="_top" xlink:title="クエリのコンパイル系モジュール。">
<polygon fill="white" stroke="black" points="1097,-145.5 1097,-164.5 1159,-164.5 1159,-145.5 1097,-145.5"/>
<text text-anchor="middle" x="1128" y="-152.5" font-family="Helvetica,sans-Serif" font-size="10.00">XCompiler</text>
</a>
</g>
</g>
<!-- Node2&#45;&gt;Node1 -->
<g id="edge1" class="edge">
<title>Node2&#45;&gt;Node1</title>
<path fill="none" stroke="midnightblue" d="M1169.11,-155C1178.18,-155 1187.58,-155 1195.93,-155"/>
<polygon fill="midnightblue" stroke="midnightblue" points="1169.1,-151.5 1159.1,-155 1169.1,-158.5 1169.1,-151.5"/>
</g>
<!-- Node3 -->
<g id="node3" class="node">
<title>Node3</title>
<g id="a_node3"><a xlink:title=" ">
<polygon fill="white" stroke="#bfbfbf" points="50.5,-560.5 50.5,-579.5 92.5,-579.5 92.5,-560.5 50.5,-560.5"/>
<text text-anchor="middle" x="71.5" y="-567.5" font-family="Helvetica,sans-Serif" font-size="10.00">String</text>
</a>
</g>
</g>
<!-- Node3&#45;&gt;Node2 -->
<g id="edge2" class="edge">
<title>Node3&#45;&gt;Node2</title>
<path fill="none" stroke="#9a32cd" stroke-dasharray="5,2" d="M93.34,-585.52C110.54,-597.43 136.09,-613.14 161,-621 228.02,-642.15 248.22,-635 318.5,-635 318.5,-635 318.5,-635 962,-635 1034.68,-635 1073.75,-492.32 1079,-477 1119.59,-358.57 1125.87,-204.02 1126.83,-164.52"/>
<polygon fill="#9a32cd" stroke="#9a32cd" points="95.33,-582.64 85.15,-579.69 91.27,-588.34 95.33,-582.64"/>
<text text-anchor="middle" x="712.5" y="-638" font-family="Helvetica,sans-Serif" font-size="10.00"> MOD_COMPILE</text>
</g>
<!-- Node7 -->
<g id="node7" class="node">
<title>Node7</title>
<g id="a_node7"><a xlink:href="classutil_1_1_trace_level.html" target="_top" xlink:title="ログ出力用のトレースレベルを扱うクラス。">
<polygon fill="white" stroke="black" points="287,-440.5 287,-459.5 352,-459.5 352,-440.5 287,-440.5"/>
<text text-anchor="middle" x="319.5" y="-447.5" font-family="Helvetica,sans-Serif" font-size="10.00">TraceLevel</text>
</a>
</g>
</g>
<!-- Node3&#45;&gt;Node7 -->
<g id="edge7" class="edge">
<title>Node3&#45;&gt;Node7</title>
<path fill="none" stroke="#9a32cd" stroke-dasharray="5,2" d="M85.92,-552.24C101.7,-532.67 129.74,-501.75 161,-485 166.57,-482.01 242.58,-465.84 286.94,-456.56"/>
<polygon fill="#9a32cd" stroke="#9a32cd" points="82.99,-550.31 79.57,-560.34 88.49,-554.63 82.99,-550.31"/>
<text text-anchor="middle" x="210.5" y="-532" font-family="Helvetica,sans-Serif" font-size="10.00"> DELIM_LEVELS</text>
<text text-anchor="middle" x="210.5" y="-521" font-family="Helvetica,sans-Serif" font-size="10.00">DELIM_NAMES</text>
<text text-anchor="middle" x="210.5" y="-510" font-family="Helvetica,sans-Serif" font-size="10.00">MOD_DEFAULT</text>
<text text-anchor="middle" x="210.5" y="-499" font-family="Helvetica,sans-Serif" font-size="10.00">OUT_DELIM_NAMES</text>
<text text-anchor="middle" x="210.5" y="-488" font-family="Helvetica,sans-Serif" font-size="10.00">USAGE_STR</text>
</g>
<!-- Node13 -->
<g id="node13" class="node">
<title>Node13</title>
<g id="a_node13"><a xlink:href="classast_1_1_ast_node_base.html" target="_top" xlink:title=" ">
<polygon fill="white" stroke="red" points="549.5,-344.5 549.5,-363.5 626.5,-363.5 626.5,-344.5 549.5,-344.5"/>
<text text-anchor="middle" x="588" y="-351.5" font-family="Helvetica,sans-Serif" font-size="10.00">AstNodeBase</text>
</a>
</g>
</g>
<!-- Node3&#45;&gt;Node13 -->
<g id="edge14" class="edge">
<title>Node3&#45;&gt;Node13</title>
<path fill="none" stroke="#9a32cd" stroke-dasharray="5,2" d="M102.78,-567.38C140.25,-563.63 205.74,-555.43 260,-540 372.1,-508.13 425.08,-526.56 502,-439 522.07,-416.16 498.61,-394.61 520,-373 527.83,-365.1 538.68,-360.42 549.37,-357.67"/>
<polygon fill="#9a32cd" stroke="#9a32cd" points="102.16,-563.92 92.54,-568.36 102.83,-570.89 102.16,-563.92"/>
<text text-anchor="middle" x="319.5" y="-549" font-family="Helvetica,sans-Serif" font-size="10.00"> MOD_AST</text>
<text text-anchor="middle" x="319.5" y="-538" font-family="Helvetica,sans-Serif" font-size="10.00">mod_</text>
</g>
<!-- Node22 -->
<g id="node20" class="node">
<title>Node22</title>
<g id="a_node20"><a xlink:href="classformat_1_1_style.html" target="_top" xlink:title="ノードの表示スタイルに関するプロパティのクラス.">
<polygon fill="white" stroke="black" points="300,-582.5 300,-601.5 339,-601.5 339,-582.5 300,-582.5"/>
<text text-anchor="middle" x="319.5" y="-589.5" font-family="Helvetica,sans-Serif" font-size="10.00">Style</text>
</a>
</g>
</g>
<!-- Node3&#45;&gt;Node22 -->
<g id="edge26" class="edge">
<title>Node3&#45;&gt;Node22</title>
<path fill="none" stroke="#9a32cd" stroke-dasharray="5,2" d="M102.8,-572.71C154.32,-577.32 257.52,-586.55 299.79,-590.33"/>
<polygon fill="#9a32cd" stroke="#9a32cd" points="102.9,-569.21 92.63,-571.8 102.28,-576.18 102.9,-569.21"/>
<text text-anchor="middle" x="210.5" y="-611" font-family="Helvetica,sans-Serif" font-size="10.00"> operSTR</text>
<text text-anchor="middle" x="210.5" y="-600" font-family="Helvetica,sans-Serif" font-size="10.00">parenLPAR</text>
<text text-anchor="middle" x="210.5" y="-589" font-family="Helvetica,sans-Serif" font-size="10.00">parenRPAR</text>
</g>
<!-- Node4 -->
<g id="node4" class="node">
<title>Node4</title>
<g id="a_node4"><a xlink:href="interfaceparse_1_1_parsable.html" target="_top" xlink:title=" ">
<polygon fill="white" stroke="black" points="933.5,-38.5 933.5,-57.5 988.5,-57.5 988.5,-38.5 933.5,-38.5"/>
<text text-anchor="middle" x="961" y="-45.5" font-family="Helvetica,sans-Serif" font-size="10.00">Parsable</text>
</a>
</g>
</g>
<!-- Node4&#45;&gt;Node2 -->
<g id="edge3" class="edge">
<title>Node4&#45;&gt;Node2</title>
<path fill="none" stroke="#9a32cd" stroke-dasharray="5,2" d="M998.73,-43.53C1023.49,-42.43 1055.75,-44.94 1079,-61 1108.55,-81.42 1120.99,-125.67 1125.2,-145.29"/>
<polygon fill="#9a32cd" stroke="#9a32cd" points="998.38,-40.04 988.63,-44.19 998.84,-47.03 998.38,-40.04"/>
<text text-anchor="middle" x="1052" y="-64" font-family="Helvetica,sans-Serif" font-size="10.00"> AP</text>
</g>
<!-- Node5 -->
<g id="node5" class="node">
<title>Node5</title>
<g id="a_node5"><a xlink:title=" ">
<polygon fill="white" stroke="#bfbfbf" points="278,-147.5 278,-166.5 361,-166.5 361,-147.5 278,-147.5"/>
<text text-anchor="middle" x="319.5" y="-154.5" font-family="Helvetica,sans-Serif" font-size="10.00">static ReportKt</text>
</a>
</g>
</g>
<!-- Node5&#45;&gt;Node2 -->
<g id="edge4" class="edge">
<title>Node5&#45;&gt;Node2</title>
<path fill="none" stroke="#9a32cd" stroke-dasharray="5,2" d="M371.28,-154.71C469.26,-150.59 691.22,-142.63 878,-146 956.93,-147.43 1049.87,-151.39 1096.73,-153.55"/>
<polygon fill="#9a32cd" stroke="#9a32cd" points="370.91,-151.23 361.07,-155.15 371.21,-158.22 370.91,-151.23"/>
<text text-anchor="middle" x="823.5" y="-149" font-family="Helvetica,sans-Serif" font-size="10.00"> repo</text>
</g>
<!-- Node5&#45;&gt;Node13 -->
<g id="edge15" class="edge">
<title>Node5&#45;&gt;Node13</title>
<path fill="none" stroke="#9a32cd" stroke-dasharray="5,2" d="M370.76,-169.39C412.31,-182.29 469.57,-206.69 502,-249 525.76,-279.99 493.37,-306.44 520,-335 527.67,-343.22 538.61,-347.98 549.43,-350.7"/>
<polygon fill="#9a32cd" stroke="#9a32cd" points="371.67,-166.01 361.09,-166.51 369.67,-172.72 371.67,-166.01"/>
<text text-anchor="middle" x="440.5" y="-252" font-family="Helvetica,sans-Serif" font-size="10.00"> repo</text>
</g>
<!-- Node6 -->
<g id="node6" class="node">
<title>Node6</title>
<g id="a_node6"><a xlink:href="interfaceformat_1_1_node_formattable.html" target="_top" xlink:title="XFormattableインタフェースをもつ構造オブジェクトの清書出力器．">
<polygon fill="white" stroke="black" points="915,-0.5 915,-19.5 1007,-19.5 1007,-0.5 915,-0.5"/>
<text text-anchor="middle" x="961" y="-7.5" font-family="Helvetica,sans-Serif" font-size="10.00">NodeFormattable</text>
</a>
</g>
</g>
<!-- Node6&#45;&gt;Node2 -->
<g id="edge5" class="edge">
<title>Node6&#45;&gt;Node2</title>
<path fill="none" stroke="#9a32cd" stroke-dasharray="5,2" d="M1017.43,-7.68C1038.7,-9.49 1061.93,-15.09 1079,-29 1116.01,-59.17 1124.52,-121.27 1126.44,-145.25"/>
<polygon fill="#9a32cd" stroke="#9a32cd" points="1017.37,-4.17 1007.18,-7.08 1016.96,-11.16 1017.37,-4.17"/>
<text text-anchor="middle" x="1052" y="-32" font-family="Helvetica,sans-Serif" font-size="10.00"> NF</text>
</g>
<!-- Node7&#45;&gt;Node2 -->
<g id="edge6" class="edge">
<title>Node7&#45;&gt;Node2</title>
<path fill="none" stroke="#9a32cd" stroke-dasharray="5,2" d="M339.15,-466.48C372.62,-494.94 446.3,-552.58 520,-577 601.01,-603.84 626.16,-591 711.5,-591 711.5,-591 711.5,-591 962,-591 1056.49,-591 1115.88,-228.27 1125.59,-164.51"/>
<polygon fill="#9a32cd" stroke="#9a32cd" points="341.03,-463.48 331.17,-459.6 336.46,-468.78 341.03,-463.48"/>
<text text-anchor="middle" x="823.5" y="-594" font-family="Helvetica,sans-Serif" font-size="10.00"> LOG</text>
</g>
<!-- Node7&#45;&gt;Node13 -->
<g id="edge16" class="edge">
<title>Node7&#45;&gt;Node13</title>
<path fill="none" stroke="#9a32cd" stroke-dasharray="5,2" d="M352.59,-436.56C391.74,-420.42 460.11,-393 520,-373 529.98,-369.67 540.91,-366.41 551,-363.55"/>
<polygon fill="#9a32cd" stroke="#9a32cd" points="351.19,-433.35 343.29,-440.41 353.87,-439.82 351.19,-433.35"/>
<text text-anchor="middle" x="440.5" y="-427" font-family="Helvetica,sans-Serif" font-size="10.00"> LOG</text>
</g>
<!-- Node8 -->
<g id="node8" class="node">
<title>Node8</title>
<g id="a_node8"><a xlink:title=" ">
<polygon fill="white" stroke="#bfbfbf" points="0,-435 0,-465 143,-465 143,-435 0,-435"/>
<text text-anchor="start" x="8" y="-453" font-family="Helvetica,sans-Serif" font-size="10.00">Map&lt; String, util.TraceLevel.</text>
<text text-anchor="middle" x="71.5" y="-442" font-family="Helvetica,sans-Serif" font-size="10.00">Level &gt;</text>
</a>
</g>
</g>
<!-- Node8&#45;&gt;Node7 -->
<g id="edge8" class="edge">
<title>Node8&#45;&gt;Node7</title>
<path fill="none" stroke="#9a32cd" stroke-dasharray="5,2" d="M153.5,-450C199.06,-450 253.37,-450 286.89,-450"/>
<polygon fill="#9a32cd" stroke="#9a32cd" points="153.32,-446.5 143.32,-450 153.32,-453.5 153.32,-446.5"/>
<text text-anchor="middle" x="210.5" y="-453" font-family="Helvetica,sans-Serif" font-size="10.00"> mapLevel</text>
</g>
<!-- Node9 -->
<g id="node9" class="node">
<title>Node9</title>
<g id="a_node9"><a xlink:title=" ">
<polygon fill="white" stroke="#bfbfbf" points="46.5,-345.5 46.5,-364.5 96.5,-364.5 96.5,-345.5 46.5,-345.5"/>
<text text-anchor="middle" x="71.5" y="-352.5" font-family="Helvetica,sans-Serif" font-size="10.00">boolean</text>
</a>
</g>
</g>
<!-- Node9&#45;&gt;Node2 -->
<g id="edge29" class="edge">
<title>Node9&#45;&gt;Node2</title>
<path fill="none" stroke="#9a32cd" stroke-dasharray="5,2" d="M79.21,-335.78C102.05,-274.23 182.98,-86 318.5,-86 318.5,-86 318.5,-86 962,-86 1022.86,-86 1087.25,-126.45 1114.09,-145.41"/>
<polygon fill="#9a32cd" stroke="#9a32cd" points="75.83,-334.83 75.72,-345.43 82.41,-337.21 75.83,-334.83"/>
<text text-anchor="middle" x="712.5" y="-111" font-family="Helvetica,sans-Serif" font-size="10.00"> DEBUG_OPT_A</text>
<text text-anchor="middle" x="712.5" y="-100" font-family="Helvetica,sans-Serif" font-size="10.00">DEBUG_REPO</text>
<text text-anchor="middle" x="712.5" y="-89" font-family="Helvetica,sans-Serif" font-size="10.00">DEBUG_WORK</text>
</g>
<!-- Node9&#45;&gt;Node7 -->
<g id="edge9" class="edge">
<title>Node9&#45;&gt;Node7</title>
<path fill="none" stroke="#9a32cd" stroke-dasharray="5,2" d="M106.94,-354.83C153.76,-355.14 234.58,-357.82 260,-372 288.09,-387.67 306.71,-423.04 314.44,-440.24"/>
<polygon fill="#9a32cd" stroke="#9a32cd" points="106.67,-351.32 96.66,-354.79 106.65,-358.32 106.67,-351.32"/>
<text text-anchor="middle" x="210.5" y="-375" font-family="Helvetica,sans-Serif" font-size="10.00"> DEBUG_MOD</text>
</g>
<!-- Node9&#45;&gt;Node13 -->
<g id="edge18" class="edge">
<title>Node9&#45;&gt;Node13</title>
<path fill="none" stroke="#9a32cd" stroke-dasharray="5,2" d="M106.75,-353.57C123.16,-352.95 143.09,-352.3 161,-352 304.46,-349.57 475.13,-351.97 549.39,-353.28"/>
<polygon fill="#9a32cd" stroke="#9a32cd" points="106.39,-350.08 96.53,-353.97 106.66,-357.07 106.39,-350.08"/>
<text text-anchor="middle" x="319.5" y="-354" font-family="Helvetica,sans-Serif" font-size="10.00"> DEBUG_REPO</text>
</g>
<!-- Node9&#45;&gt;Node22 -->
<g id="edge27" class="edge">
<title>Node9&#45;&gt;Node22</title>
<path fill="none" stroke="#9a32cd" stroke-dasharray="5,2" d="M106.15,-366.37C158.75,-384.29 255,-417.7 260,-424 300.12,-474.5 242.65,-514.05 278,-568 283.11,-575.79 291.7,-581.4 299.65,-585.23"/>
<polygon fill="#9a32cd" stroke="#9a32cd" points="107.16,-363.02 96.56,-363.11 104.91,-369.64 107.16,-363.02"/>
<text text-anchor="middle" x="210.5" y="-438" font-family="Helvetica,sans-Serif" font-size="10.00"> preoperSupress</text>
<text text-anchor="middle" x="210.5" y="-427" font-family="Helvetica,sans-Serif" font-size="10.00">toInline</text>
</g>
<!-- Node10 -->
<g id="node10" class="node">
<title>Node10</title>
<g id="a_node10"><a xlink:title=" ">
<polygon fill="white" stroke="#bfbfbf" points="305,-207.5 305,-226.5 334,-226.5 334,-207.5 305,-207.5"/>
<text text-anchor="middle" x="319.5" y="-214.5" font-family="Helvetica,sans-Serif" font-size="10.00">int</text>
</a>
</g>
</g>
<!-- Node10&#45;&gt;Node2 -->
<g id="edge10" class="edge">
<title>Node10&#45;&gt;Node2</title>
<path fill="none" stroke="#9a32cd" stroke-dasharray="5,2" d="M344.24,-211.31C390.6,-200.71 496.57,-179 587,-179 587,-179 587,-179 962,-179 1009.47,-179 1063.84,-169.15 1096.78,-162.07"/>
<polygon fill="#9a32cd" stroke="#9a32cd" points="343.22,-207.95 334.27,-213.63 344.81,-214.77 343.22,-207.95"/>
<text text-anchor="middle" x="823.5" y="-193" font-family="Helvetica,sans-Serif" font-size="10.00"> MASK_QUERY_PRINT</text>
<text text-anchor="middle" x="823.5" y="-182" font-family="Helvetica,sans-Serif" font-size="10.00">PRINT_STAGE</text>
</g>
<!-- Node11 -->
<g id="node11" class="node">
<title>Node11</title>
<g id="a_node11"><a xlink:href="classmachine_1_1_var.html" target="_top" xlink:title="フレーム中の変数参照オブジェクトref = (XType type, int vid)">
<polygon fill="white" stroke="black" points="945.5,-219.5 945.5,-238.5 976.5,-238.5 976.5,-219.5 945.5,-219.5"/>
<text text-anchor="middle" x="961" y="-226.5" font-family="Helvetica,sans-Serif" font-size="10.00">Var</text>
</a>
</g>
</g>
<!-- Node10&#45;&gt;Node11 -->
<g id="edge28" class="edge">
<title>Node10&#45;&gt;Node11</title>
<path fill="none" stroke="#9a32cd" stroke-dasharray="5,2" d="M344.26,-217.45C448.29,-219.4 862.14,-227.16 945.37,-228.73"/>
<polygon fill="#9a32cd" stroke="#9a32cd" points="344.22,-213.94 334.15,-217.26 344.09,-220.94 344.22,-213.94"/>
<text text-anchor="middle" x="712.5" y="-228" font-family="Helvetica,sans-Serif" font-size="10.00"> UNDEF</text>
</g>
<!-- Node10&#45;&gt;Node13 -->
<g id="edge17" class="edge">
<title>Node10&#45;&gt;Node13</title>
<path fill="none" stroke="#9a32cd" stroke-dasharray="5,2" d="M337.44,-233.53C348.42,-243.3 363.53,-255.08 379,-262 429.77,-284.69 459.65,-248.96 502,-285 519.99,-300.31 502.73,-318.89 520,-335 528.04,-342.51 538.84,-347.08 549.4,-349.85"/>
<polygon fill="#9a32cd" stroke="#9a32cd" points="339.62,-230.78 329.91,-226.56 334.87,-235.92 339.62,-230.78"/>
<text text-anchor="middle" x="440.5" y="-321" font-family="Helvetica,sans-Serif" font-size="10.00"> BITMASK_PRINT_WIDTH</text>
<text text-anchor="middle" x="440.5" y="-310" font-family="Helvetica,sans-Serif" font-size="10.00">UNDEF</text>
<text text-anchor="middle" x="440.5" y="-299" font-family="Helvetica,sans-Serif" font-size="10.00">id_</text>
<text text-anchor="middle" x="440.5" y="-288" font-family="Helvetica,sans-Serif" font-size="10.00">numInstances</text>
</g>
<!-- Node11&#45;&gt;Node2 -->
<g id="edge11" class="edge">
<title>Node11&#45;&gt;Node2</title>
<path fill="none" stroke="#9a32cd" stroke-dasharray="5,2" d="M986.59,-224.23C1011.01,-218.86 1049.01,-208.77 1079,-193 1093.49,-185.38 1107.91,-173.18 1117.11,-164.66"/>
<polygon fill="#9a32cd" stroke="#9a32cd" points="985.78,-220.82 976.72,-226.3 987.22,-227.67 985.78,-220.82"/>
<text text-anchor="middle" x="1052" y="-238" font-family="Helvetica,sans-Serif" font-size="10.00"> VAR_FLEN</text>
<text text-anchor="middle" x="1052" y="-227" font-family="Helvetica,sans-Serif" font-size="10.00">VAR_FPAR</text>
<text text-anchor="middle" x="1052" y="-216" font-family="Helvetica,sans-Serif" font-size="10.00">VAR_FUNC</text>
</g>
<!-- Node12 -->
<g id="node12" class="node">
<title>Node12</title>
<g id="a_node12"><a xlink:href="classast_1_1_ast_node.html" target="_top" xlink:title="タグなしの順アクセスの子供をもてる抽象構文木のノードのクラス。">
<polygon fill="white" stroke="black" points="796,-382.5 796,-401.5 851,-401.5 851,-382.5 796,-382.5"/>
<text text-anchor="middle" x="823.5" y="-389.5" font-family="Helvetica,sans-Serif" font-size="10.00">AstNode</text>
</a>
</g>
</g>
<!-- Node12&#45;&gt;Node11 -->
<g id="edge12" class="edge">
<title>Node12&#45;&gt;Node11</title>
<path fill="none" stroke="midnightblue" d="M839.02,-374.53C867.42,-340.37 929.48,-265.71 951.8,-238.86"/>
<polygon fill="midnightblue" stroke="midnightblue" points="836.27,-372.36 832.57,-382.29 841.65,-376.84 836.27,-372.36"/>
</g>
<!-- Node13&#45;&gt;Node12 -->
<g id="edge13" class="edge">
<title>Node13&#45;&gt;Node12</title>
<path fill="none" stroke="midnightblue" d="M636.69,-361.76C684.78,-369.59 757.29,-381.39 795.97,-387.68"/>
<polygon fill="midnightblue" stroke="midnightblue" points="636.95,-358.26 626.52,-360.11 635.82,-365.17 636.95,-358.26"/>
</g>
<!-- Node15 -->
<g id="node14" class="node">
<title>Node15</title>
<g id="a_node14"><a xlink:href="interfaceast_1_1_node.html" target="_top" xlink:title=" ">
<polygon fill="white" stroke="red" points="568,-420.5 568,-439.5 608,-439.5 608,-420.5 568,-420.5"/>
<text text-anchor="middle" x="588" y="-427.5" font-family="Helvetica,sans-Serif" font-size="10.00">Node</text>
</a>
</g>
</g>
<!-- Node15&#45;&gt;Node12 -->
<g id="edge19" class="edge">
<title>Node15&#45;&gt;Node12</title>
<path fill="none" stroke="midnightblue" d="M618.15,-426.1C650.63,-421.65 704.68,-413.96 751,-406 765.83,-403.45 782.33,-400.25 795.73,-397.55"/>
<polygon fill="midnightblue" stroke="midnightblue" points="617.44,-422.66 608,-427.48 618.38,-429.6 617.44,-422.66"/>
</g>
<!-- Node17 -->
<g id="node15" class="node">
<title>Node17</title>
<g id="a_node15"><a xlink:href="interfaceformat_1_1_x_formattable_1_1_navigatable.html" target="_top" xlink:title="木構造の分岐ノードとして清書可能なオブジェクトのクラス">
<polygon fill="white" stroke="red" points="523,-382.5 523,-401.5 653,-401.5 653,-382.5 523,-382.5"/>
<text text-anchor="middle" x="588" y="-389.5" font-family="Helvetica,sans-Serif" font-size="10.00">XFormattable.Navigatable</text>
</a>
</g>
</g>
<!-- Node17&#45;&gt;Node12 -->
<g id="edge20" class="edge">
<title>Node17&#45;&gt;Node12</title>
<path fill="none" stroke="midnightblue" d="M663.22,-392C708.59,-392 763.89,-392 795.96,-392"/>
<polygon fill="midnightblue" stroke="midnightblue" points="663.11,-388.5 653.11,-392 663.11,-395.5 663.11,-388.5"/>
</g>
<!-- Node18 -->
<g id="node16" class="node">
<title>Node18</title>
<g id="a_node16"><a xlink:title=" ">
<polygon fill="white" stroke="#bfbfbf" points="524,-295 524,-325 652,-325 652,-295 524,-295"/>
<text text-anchor="start" x="532" y="-313" font-family="Helvetica,sans-Serif" font-size="10.00">java.util.function.Function</text>
<text text-anchor="middle" x="588" y="-302" font-family="Helvetica,sans-Serif" font-size="10.00">&lt; ast.Node, String &gt;</text>
</a>
</g>
</g>
<!-- Node18&#45;&gt;Node12 -->
<g id="edge21" class="edge">
<title>Node18&#45;&gt;Node12</title>
<path fill="none" stroke="#9a32cd" stroke-dasharray="5,2" d="M661.89,-325.4C690.2,-332.4 722.59,-341.67 751,-353 771.36,-361.12 793.28,-373.7 807.4,-382.37"/>
<polygon fill="#9a32cd" stroke="#9a32cd" points="662.6,-321.97 652.06,-323.02 660.95,-328.77 662.6,-321.97"/>
<text text-anchor="middle" x="712.5" y="-356" font-family="Helvetica,sans-Serif" font-size="10.00"> printerFunc</text>
</g>
<!-- Node19 -->
<g id="node17" class="node">
<title>Node19</title>
<g id="a_node17"><a xlink:title=" ">
<polygon fill="white" stroke="#bfbfbf" points="520,-246 520,-276 656,-276 656,-246 520,-246"/>
<text text-anchor="start" x="528" y="-264" font-family="Helvetica,sans-Serif" font-size="10.00">java.util.function.Consumer</text>
<text text-anchor="middle" x="588" y="-253" font-family="Helvetica,sans-Serif" font-size="10.00">&lt; ast.Node &gt;</text>
</a>
</g>
</g>
<!-- Node19&#45;&gt;Node12 -->
<g id="edge22" class="edge">
<title>Node19&#45;&gt;Node12</title>
<path fill="none" stroke="#9a32cd" stroke-dasharray="5,2" d="M666.08,-277.5C694.23,-285.71 725.41,-297.51 751,-314 780.03,-332.71 804.98,-366.01 816.19,-382.37"/>
<polygon fill="#9a32cd" stroke="#9a32cd" points="666.84,-274.08 656.27,-274.74 664.95,-280.82 666.84,-274.08"/>
<text text-anchor="middle" x="712.5" y="-317" font-family="Helvetica,sans-Serif" font-size="10.00"> typerFunc</text>
</g>
<!-- Node20 -->
<g id="node18" class="node">
<title>Node20</title>
<g id="a_node18"><a xlink:title=" ">
<polygon fill="white" stroke="#bfbfbf" points="543,-496.5 543,-515.5 633,-515.5 633,-496.5 543,-496.5"/>
<text text-anchor="middle" x="588" y="-503.5" font-family="Helvetica,sans-Serif" font-size="10.00">List&lt; ast.Node &gt;</text>
</a>
</g>
</g>
<!-- Node20&#45;&gt;Node12 -->
<g id="edge23" class="edge">
<title>Node20&#45;&gt;Node12</title>
<path fill="none" stroke="#9a32cd" stroke-dasharray="5,2" d="M643.15,-498.4C675.97,-492.12 717.77,-481.03 751,-462 778.74,-446.12 803.54,-416.9 815.3,-401.73"/>
<polygon fill="#9a32cd" stroke="#9a32cd" points="642.48,-494.96 633.27,-500.2 643.74,-501.85 642.48,-494.96"/>
<text text-anchor="middle" x="712.5" y="-494" font-family="Helvetica,sans-Serif" font-size="10.00"> children_</text>
</g>
<!-- Node21 -->
<g id="node19" class="node">
<title>Node21</title>
<g id="a_node19"><a xlink:title=" ">
<polygon fill="white" stroke="#bfbfbf" points="562,-458.5 562,-477.5 614,-477.5 614,-458.5 562,-458.5"/>
<text text-anchor="middle" x="588" y="-465.5" font-family="Helvetica,sans-Serif" font-size="10.00">Boolean</text>
</a>
</g>
</g>
<!-- Node21&#45;&gt;Node12 -->
<g id="edge24" class="edge">
<title>Node21&#45;&gt;Node12</title>
<path fill="none" stroke="#9a32cd" stroke-dasharray="5,2" d="M624.23,-460.5C657.41,-453.01 708.27,-440.4 751,-425 769.52,-418.32 789.83,-408.72 804.05,-401.59"/>
<polygon fill="#9a32cd" stroke="#9a32cd" points="623.11,-457.17 614.11,-462.75 624.63,-464 623.11,-457.17"/>
<text text-anchor="middle" x="712.5" y="-450" font-family="Helvetica,sans-Serif" font-size="10.00"> DEBUG_CHILD</text>
</g>
<!-- Node22&#45;&gt;Node12 -->
<g id="edge25" class="edge">
<title>Node22&#45;&gt;Node12</title>
<path fill="none" stroke="#9a32cd" stroke-dasharray="5,2" d="M349.67,-593.69C423.76,-596.52 622.45,-594.78 751,-506 789.64,-479.32 811.68,-424.26 819.37,-401.83"/>
<polygon fill="#9a32cd" stroke="#9a32cd" points="349.41,-590.18 339.27,-593.23 349.1,-597.17 349.41,-590.18"/>
<text text-anchor="middle" x="588" y="-588" font-family="Helvetica,sans-Serif" font-size="10.00"> sty</text>
</g>
</g>
</svg>
        <g id="navigator" transform="translate(0 0)" fill="#404254">
                <rect fill="#f2f5e9" fill-opacity="0.5" stroke="#606060" stroke-width=".5" x="0" y="0" width="60" height="60"/>
                <use id="zoomplus" xlink:href="#zoomPlus" x="17" y="9" onmousedown="handleZoom(evt,'in')"/>
                <use id="zoomminus" xlink:href="#zoomMin" x="42" y="9" onmousedown="handleZoom(evt,'out')"/>
                <use id="reset" xlink:href="#resetDef" x="30" y="36" onmousedown="handleReset()"/>
                <g id="arrowUp" xlink:href="#dirArrow" transform="translate(30 24)" onmousedown="handlePan(0,-1)">
                  <use xlink:href="#rim" fill="#404040">
                        <set attributeName="fill" to="#808080" begin="arrowUp.mouseover" end="arrowUp.mouseout"/>
                  </use>
                  <path fill="none" stroke="white" stroke-width="1.5" d="M0,-3.0v7 M-2.5,-0.5L0,-3.0L2.5,-0.5"/>
                </g>
                <g id="arrowRight" xlink:href="#dirArrow" transform="rotate(90) translate(36 -43)" onmousedown="handlePan(1,0)">
                  <use xlink:href="#rim" fill="#404040">
                        <set attributeName="fill" to="#808080" begin="arrowRight.mouseover" end="arrowRight.mouseout"/>
                  </use>
                  <path fill="none" stroke="white" stroke-width="1.5" d="M0,-3.0v7 M-2.5,-0.5L0,-3.0L2.5,-0.5"/>
                </g>
                <g id="arrowDown" xlink:href="#dirArrow" transform="rotate(180) translate(-30 -48)" onmousedown="handlePan(0,1)">
                  <use xlink:href="#rim" fill="#404040">
                        <set attributeName="fill" to="#808080" begin="arrowDown.mouseover" end="arrowDown.mouseout"/>
                  </use>
                  <path fill="none" stroke="white" stroke-width="1.5" d="M0,-3.0v7 M-2.5,-0.5L0,-3.0L2.5,-0.5"/>
                </g>
                <g id="arrowLeft" xlink:href="#dirArrow" transform="rotate(270) translate(-36 17)" onmousedown="handlePan(-1,0)">
                  <use xlink:href="#rim" fill="#404040">
                        <set attributeName="fill" to="#808080" begin="arrowLeft.mouseover" end="arrowLeft.mouseout"/>
                  </use>
                  <path fill="none" stroke="white" stroke-width="1.5" d="M0,-3.0v7 M-2.5,-0.5L0,-3.0L2.5,-0.5"/>
                </g>
        </g>
        <svg viewBox="0 0 15 15" width="100%" height="30px" preserveAspectRatio="xMaxYMin meet">
         <g id="arrow_out" transform="scale(0.3 0.3)">
          <a xlink:href="classcompile_1_1_x_c_norm__coll__graph_org.svg" target="_base">
           <rect id="button" ry="5" rx="5" y="6" x="6" height="38" width="38"
                fill="#f2f5e9" fill-opacity="0.5" stroke="#606060" stroke-width="1.0"/>
           <path id="arrow"
             d="M 11.500037,31.436501 C 11.940474,20.09759 22.043105,11.32322 32.158766,21.979434 L 37.068811,17.246167 C 37.068811,17.246167 37.088388,32 37.088388,32 L 22.160133,31.978069 C 22.160133,31.978069 26.997745,27.140456 26.997745,27.140456 C 18.528582,18.264221 13.291696,25.230495 11.500037,31.436501 z"
             style="fill:#404040;"/>
          </a>
         </g>
        </svg>
</svg>
