<?xml version="1.0" encoding="UTF-8" standalone="no"?>
<!DOCTYPE svg PUBLIC "-//W3C//DTD SVG 1.1//EN"
 "http://www.w3.org/Graphics/SVG/1.1/DTD/svg11.dtd">
<!-- Generated by graphviz version 2.47.0 (20210316.0004)
 -->
<!-- Title: queryParser.BlockArgListContext Pages: 1 -->
<svg width="208pt" height="184pt"
 viewBox="0.00 0.00 207.50 184.00" xmlns="http://www.w3.org/2000/svg" xmlns:xlink="http://www.w3.org/1999/xlink">
<g id="graph0" class="graph" transform="scale(1 1) rotate(0) translate(4 180)">
<title>queryParser.BlockArgListContext</title>
<polygon fill="white" stroke="transparent" points="-4,4 -4,-180 203.5,-180 203.5,4 -4,4"/>
<!-- Node1 -->
<g id="node1" class="node">
<title>Node1</title>
<g id="a_node1"><a xlink:title=" ">
<polygon fill="#bfbfbf" stroke="black" points="2.5,-0.5 2.5,-30.5 129.5,-30.5 129.5,-0.5 2.5,-0.5"/>
<text text-anchor="start" x="10.5" y="-18.5" font-family="Helvetica,sans-Serif" font-size="10.00">queryParser.BlockArgList</text>
<text text-anchor="middle" x="66" y="-7.5" font-family="Helvetica,sans-Serif" font-size="10.00">Context</text>
</a>
</g>
</g>
<!-- Node2 -->
<g id="node2" class="node">
<title>Node2</title>
<g id="a_node2"><a xlink:title=" ">
<polygon fill="white" stroke="#bfbfbf" points="0,-156.5 0,-175.5 100,-175.5 100,-156.5 0,-156.5"/>
<text text-anchor="middle" x="50" y="-163.5" font-family="Helvetica,sans-Serif" font-size="10.00">ParserRuleContext</text>
</a>
</g>
</g>
<!-- Node2&#45;&gt;Node1 -->
<g id="edge1" class="edge">
<title>Node2&#45;&gt;Node1</title>
<path fill="none" stroke="midnightblue" d="M52.03,-146.13C55.27,-116.07 61.53,-57.96 64.44,-30.95"/>
<polygon fill="midnightblue" stroke="midnightblue" points="48.54,-145.84 50.95,-156.16 55.5,-146.59 48.54,-145.84"/>
</g>
<!-- Node3 -->
<g id="node3" class="node">
<title>Node3</title>
<g id="a_node3"><a xlink:href="classparse_1_1query_parser_1_1_arg_context.html" target="_top" xlink:title=" ">
<polygon fill="white" stroke="black" points="78.5,-78.5 78.5,-97.5 199.5,-97.5 199.5,-78.5 78.5,-78.5"/>
<text text-anchor="middle" x="139" y="-85.5" font-family="Helvetica,sans-Serif" font-size="10.00">queryParser.ArgContext</text>
</a>
</g>
</g>
<!-- Node2&#45;&gt;Node3 -->
<g id="edge3" class="edge">
<title>Node2&#45;&gt;Node3</title>
<path fill="none" stroke="midnightblue" d="M67.88,-149.73C86.22,-134.07 114.09,-110.27 128.91,-97.62"/>
<polygon fill="midnightblue" stroke="midnightblue" points="65.54,-147.13 60.21,-156.28 70.09,-152.45 65.54,-147.13"/>
</g>
<!-- Node3&#45;&gt;Node1 -->
<g id="edge2" class="edge">
<title>Node3&#45;&gt;Node1</title>
<path fill="none" stroke="#9a32cd" stroke-dasharray="5,2" d="M122.53,-71.09C109.92,-58.91 92.69,-42.27 80.58,-30.58"/>
<polygon fill="#9a32cd" stroke="#9a32cd" points="120.42,-73.93 130.05,-78.36 125.29,-68.89 120.42,-73.93"/>
<text text-anchor="middle" x="117" y="-52" font-family="Helvetica,sans-Serif" font-size="10.00"> a0</text>
</g>
<!-- Node4 -->
<g id="node4" class="node">
<title>Node4</title>
<g id="a_node4"><a xlink:title=" ">
<polygon fill="white" stroke="#bfbfbf" points="118.5,-156.5 118.5,-175.5 161.5,-175.5 161.5,-156.5 118.5,-156.5"/>
<text text-anchor="middle" x="140" y="-163.5" font-family="Helvetica,sans-Serif" font-size="10.00">Token</text>
</a>
</g>
</g>
<!-- Node4&#45;&gt;Node3 -->
<g id="edge4" class="edge">
<title>Node4&#45;&gt;Node3</title>
<path fill="none" stroke="#9a32cd" stroke-dasharray="5,2" d="M139.75,-146.22C139.55,-130.7 139.27,-109.36 139.11,-97.62"/>
<polygon fill="#9a32cd" stroke="#9a32cd" points="136.25,-146.33 139.89,-156.28 143.25,-146.24 136.25,-146.33"/>
<text text-anchor="middle" x="145" y="-130" font-family="Helvetica,sans-Serif" font-size="10.00"> t0</text>
<text text-anchor="middle" x="145" y="-119" font-family="Helvetica,sans-Serif" font-size="10.00">t1</text>
</g>
</g>
</svg>
