<?xml version="1.0" encoding="UTF-8" standalone="no"?>
<!DOCTYPE svg PUBLIC "-//W3C//DTD SVG 1.1//EN"
 "http://www.w3.org/Graphics/SVG/1.1/DTD/svg11.dtd">
<!-- Generated by graphviz version 2.47.0 (20210316.0004)
 -->
<!-- Title: Path Pages: 1 -->
<svg width="962pt" height="339pt"
 viewBox="0.00 0.00 962.15 339.00" xmlns="http://www.w3.org/2000/svg" xmlns:xlink="http://www.w3.org/1999/xlink">
<g id="graph0" class="graph" transform="scale(1 1) rotate(0) translate(4 335)">
<title>Path</title>
<polygon fill="white" stroke="transparent" points="-4,4 -4,-335 958.15,-335 958.15,4 -4,4"/>
<!-- Node1 -->
<g id="node1" class="node">
<title>Node1</title>
<g id="a_node1"><a xlink:title=" ">
<polygon fill="#bfbfbf" stroke="black" points="641.65,-0.5 641.65,-19.5 678.65,-19.5 678.65,-0.5 641.65,-0.5"/>
<text text-anchor="middle" x="660.15" y="-7.5" font-family="Helvetica,sans-Serif" font-size="10.00">Path</text>
</a>
</g>
</g>
<!-- Node2 -->
<g id="node2" class="node">
<title>Node2</title>
<g id="a_node2"><a xlink:href="classast_1_1_ast_node.html" target="_top" xlink:title="タグなしの順アクセスの子供をもてる抽象構文木のノードのクラス。">
<polygon fill="white" stroke="black" points="572.65,-67.5 572.65,-86.5 627.65,-86.5 627.65,-67.5 572.65,-67.5"/>
<text text-anchor="middle" x="600.15" y="-74.5" font-family="Helvetica,sans-Serif" font-size="10.00">AstNode</text>
</a>
</g>
</g>
<!-- Node2&#45;&gt;Node1 -->
<g id="edge1" class="edge">
<title>Node2&#45;&gt;Node1</title>
<path fill="none" stroke="midnightblue" d="M609.61,-59.27C619.98,-46.6 635.98,-29.7 647.43,-19.63"/>
<polygon fill="midnightblue" stroke="midnightblue" points="606.8,-57.18 603.46,-67.23 612.34,-61.46 606.8,-57.18"/>
</g>
<!-- Node2&#45;&gt;Node1 -->
<g id="edge21" class="edge">
<title>Node2&#45;&gt;Node1</title>
<path fill="none" stroke="midnightblue" d="M620.46,-60.36C633.73,-47.58 649.59,-29.99 656.95,-19.63"/>
<polygon fill="midnightblue" stroke="midnightblue" points="617.99,-57.87 613.03,-67.23 622.75,-63.01 617.99,-57.87"/>
</g>
<!-- Node3 -->
<g id="node3" class="node">
<title>Node3</title>
<g id="a_node3"><a xlink:href="classast_1_1_ast_node_base.html" target="_top" xlink:title=" ">
<polygon fill="white" stroke="black" points="426.65,-167.5 426.65,-186.5 503.65,-186.5 503.65,-167.5 426.65,-167.5"/>
<text text-anchor="middle" x="465.15" y="-174.5" font-family="Helvetica,sans-Serif" font-size="10.00">AstNodeBase</text>
</a>
</g>
</g>
<!-- Node3&#45;&gt;Node2 -->
<g id="edge2" class="edge">
<title>Node3&#45;&gt;Node2</title>
<path fill="none" stroke="midnightblue" d="M485.58,-161.17C514.22,-140.38 565.4,-103.23 588.39,-86.54"/>
<polygon fill="midnightblue" stroke="midnightblue" points="483.17,-158.6 477.13,-167.3 487.28,-164.26 483.17,-158.6"/>
</g>
<!-- Node4 -->
<g id="node4" class="node">
<title>Node4</title>
<g id="a_node4"><a xlink:title=" ">
<polygon fill="white" stroke="#bfbfbf" points="10.15,-311.5 10.15,-330.5 52.15,-330.5 52.15,-311.5 10.15,-311.5"/>
<text text-anchor="middle" x="31.15" y="-318.5" font-family="Helvetica,sans-Serif" font-size="10.00">String</text>
</a>
</g>
</g>
<!-- Node4&#45;&gt;Node1 -->
<g id="edge23" class="edge">
<title>Node4&#45;&gt;Node1</title>
<path fill="none" stroke="#9a32cd" stroke-dasharray="5,2" d="M17.55,-302.74C15.74,-299.65 14.17,-296.34 13.15,-293 1.82,-255.57 -8.82,-237.36 13.15,-205 88.34,-94.28 543.79,-26.78 641.65,-13.44"/>
<polygon fill="#9a32cd" stroke="#9a32cd" points="14.81,-304.93 23.35,-311.2 20.58,-300.97 14.81,-304.93"/>
<text text-anchor="middle" x="230.65" y="-141" font-family="Helvetica,sans-Serif" font-size="10.00"> CHLD_DELIM</text>
<text text-anchor="middle" x="230.65" y="-130" font-family="Helvetica,sans-Serif" font-size="10.00">DESC_DELIM</text>
<text text-anchor="middle" x="230.65" y="-119" font-family="Helvetica,sans-Serif" font-size="10.00">NONE_DELIM</text>
<text text-anchor="middle" x="230.65" y="-108" font-family="Helvetica,sans-Serif" font-size="10.00">PATH_DELIM</text>
</g>
<!-- Node4&#45;&gt;Node3 -->
<g id="edge3" class="edge">
<title>Node4&#45;&gt;Node3</title>
<path fill="none" stroke="#9a32cd" stroke-dasharray="5,2" d="M61.4,-309.54C69.69,-305.46 78.06,-300.03 84.15,-293 111.22,-261.77 81.5,-230.32 114.15,-205 126.35,-195.54 337.84,-184.2 426.52,-179.84"/>
<polygon fill="#9a32cd" stroke="#9a32cd" points="59.95,-306.35 52.21,-313.59 62.77,-312.76 59.95,-306.35"/>
<text text-anchor="middle" x="140.15" y="-252" font-family="Helvetica,sans-Serif" font-size="10.00"> MOD_AST</text>
<text text-anchor="middle" x="140.15" y="-241" font-family="Helvetica,sans-Serif" font-size="10.00">mod_</text>
</g>
<!-- Node15 -->
<g id="node15" class="node">
<title>Node15</title>
<g id="a_node15"><a xlink:href="classformat_1_1_style.html" target="_top" xlink:title="ノードの表示スタイルに関するプロパティのクラス.">
<polygon fill="white" stroke="black" points="224.65,-167.5 224.65,-186.5 263.65,-186.5 263.65,-167.5 224.65,-167.5"/>
<text text-anchor="middle" x="244.15" y="-174.5" font-family="Helvetica,sans-Serif" font-size="10.00">Style</text>
</a>
</g>
</g>
<!-- Node4&#45;&gt;Node15 -->
<g id="edge17" class="edge">
<title>Node4&#45;&gt;Node15</title>
<path fill="none" stroke="#9a32cd" stroke-dasharray="5,2" d="M24.76,-301.75C17.26,-276.64 8.59,-231.52 32.15,-205 57.29,-176.71 176.99,-176.36 224.58,-177.39"/>
<polygon fill="#9a32cd" stroke="#9a32cd" points="21.5,-303.03 27.91,-311.46 28.16,-300.87 21.5,-303.03"/>
<text text-anchor="middle" x="58.15" y="-285" font-family="Helvetica,sans-Serif" font-size="10.00"> childLPAD</text>
<text text-anchor="middle" x="58.15" y="-274" font-family="Helvetica,sans-Serif" font-size="10.00">childRPAD</text>
<text text-anchor="middle" x="58.15" y="-263" font-family="Helvetica,sans-Serif" font-size="10.00">name</text>
<text text-anchor="middle" x="58.15" y="-252" font-family="Helvetica,sans-Serif" font-size="10.00">operSTR</text>
<text text-anchor="middle" x="58.15" y="-241" font-family="Helvetica,sans-Serif" font-size="10.00">parenLPAD</text>
<text text-anchor="middle" x="58.15" y="-230" font-family="Helvetica,sans-Serif" font-size="10.00">parenLPAR</text>
<text text-anchor="middle" x="58.15" y="-219" font-family="Helvetica,sans-Serif" font-size="10.00">parenRPAD</text>
<text text-anchor="middle" x="58.15" y="-208" font-family="Helvetica,sans-Serif" font-size="10.00">parenRPAR</text>
</g>
<!-- Node5 -->
<g id="node5" class="node">
<title>Node5</title>
<g id="a_node5"><a xlink:title=" ">
<polygon fill="white" stroke="#bfbfbf" points="488.65,-311.5 488.65,-330.5 553.65,-330.5 553.65,-311.5 488.65,-311.5"/>
<text text-anchor="middle" x="521.15" y="-318.5" font-family="Helvetica,sans-Serif" font-size="10.00">TraceLevel</text>
</a>
</g>
</g>
<!-- Node5&#45;&gt;Node3 -->
<g id="edge4" class="edge">
<title>Node5&#45;&gt;Node3</title>
<path fill="none" stroke="#9a32cd" stroke-dasharray="5,2" d="M534.75,-302.74C536.56,-299.65 538.14,-296.34 539.15,-293 550.49,-255.57 561.57,-237.05 539.15,-205 534.29,-198.05 516.78,-191.5 500.01,-186.59"/>
<polygon fill="#9a32cd" stroke="#9a32cd" points="531.73,-300.97 528.96,-311.2 537.5,-304.93 531.73,-300.97"/>
<text text-anchor="middle" x="564.15" y="-246.5" font-family="Helvetica,sans-Serif" font-size="10.00"> LOG</text>
</g>
<!-- Node6 -->
<g id="node6" class="node">
<title>Node6</title>
<g id="a_node6"><a xlink:title=" ">
<polygon fill="white" stroke="#bfbfbf" points="571.65,-311.5 571.65,-330.5 644.65,-330.5 644.65,-311.5 571.65,-311.5"/>
<text text-anchor="middle" x="608.15" y="-318.5" font-family="Helvetica,sans-Serif" font-size="10.00">static Report</text>
</a>
</g>
</g>
<!-- Node6&#45;&gt;Node3 -->
<g id="edge5" class="edge">
<title>Node6&#45;&gt;Node3</title>
<path fill="none" stroke="#9a32cd" stroke-dasharray="5,2" d="M609.18,-301.18C609.47,-275.73 605.96,-230.6 580.15,-205 577.34,-202.21 536.04,-192.95 503.73,-186.05"/>
<polygon fill="#9a32cd" stroke="#9a32cd" points="605.67,-301.24 608.84,-311.35 612.67,-301.47 605.67,-301.24"/>
<text text-anchor="middle" x="620.15" y="-246.5" font-family="Helvetica,sans-Serif" font-size="10.00"> repo</text>
</g>
<!-- Node7 -->
<g id="node7" class="node">
<title>Node7</title>
<g id="a_node7"><a xlink:title=" ">
<polygon fill="white" stroke="#bfbfbf" points="187.65,-311.5 187.65,-330.5 216.65,-330.5 216.65,-311.5 187.65,-311.5"/>
<text text-anchor="middle" x="202.15" y="-318.5" font-family="Helvetica,sans-Serif" font-size="10.00">int</text>
</a>
</g>
</g>
<!-- Node7&#45;&gt;Node3 -->
<g id="edge6" class="edge">
<title>Node7&#45;&gt;Node3</title>
<path fill="none" stroke="#9a32cd" stroke-dasharray="5,2" d="M202.6,-301.11C203.72,-271.91 207.61,-217.84 221.15,-205 235.75,-191.16 361.47,-183.05 426.51,-179.75"/>
<polygon fill="#9a32cd" stroke="#9a32cd" points="199.1,-301.16 202.29,-311.27 206.1,-301.38 199.1,-301.16"/>
<text text-anchor="middle" x="282.65" y="-252" font-family="Helvetica,sans-Serif" font-size="10.00"> BITMASK_PRINT_WIDTH</text>
<text text-anchor="middle" x="282.65" y="-241" font-family="Helvetica,sans-Serif" font-size="10.00">UNDEF</text>
</g>
<!-- Node7&#45;&gt;Node15 -->
<g id="edge18" class="edge">
<title>Node7&#45;&gt;Node15</title>
<path fill="none" stroke="#9a32cd" stroke-dasharray="5,2" d="M187.25,-303.19C185.16,-300 183.32,-296.54 182.15,-293 169.9,-255.86 160.72,-237.71 182.15,-205 191.48,-190.76 210.14,-183.99 224.56,-180.8"/>
<polygon fill="#9a32cd" stroke="#9a32cd" points="184.63,-305.54 193.49,-311.35 190.19,-301.28 184.63,-305.54"/>
<text text-anchor="middle" x="192.15" y="-246.5" font-family="Helvetica,sans-Serif" font-size="10.00"> pref</text>
</g>
<!-- Node8 -->
<g id="node8" class="node">
<title>Node8</title>
<g id="a_node8"><a xlink:href="interfacetype_1_1_typable.html" target="_top" xlink:title="抽象ノードがもつ関数型のインタフェース">
<polygon fill="white" stroke="black" points="663.15,-311.5 663.15,-330.5 713.15,-330.5 713.15,-311.5 663.15,-311.5"/>
<text text-anchor="middle" x="688.15" y="-318.5" font-family="Helvetica,sans-Serif" font-size="10.00">Typable</text>
</a>
</g>
</g>
<!-- Node8&#45;&gt;Node3 -->
<g id="edge7" class="edge">
<title>Node8&#45;&gt;Node3</title>
<path fill="none" stroke="#9a32cd" stroke-dasharray="5,2" d="M685.17,-301.26C679.95,-275.19 666.58,-228.53 635.15,-205 613.22,-188.57 540.18,-191.53 513.15,-187 510.14,-186.5 507.03,-185.96 503.9,-185.4"/>
<polygon fill="#9a32cd" stroke="#9a32cd" points="681.76,-302.12 686.98,-311.34 688.65,-300.88 681.76,-302.12"/>
<text text-anchor="middle" x="698.15" y="-246.5" font-family="Helvetica,sans-Serif" font-size="10.00"> typing</text>
</g>
<!-- Node9 -->
<g id="node9" class="node">
<title>Node9</title>
<g id="a_node9"><a xlink:title=" ">
<polygon fill="white" stroke="#bfbfbf" points="382.15,-311.5 382.15,-330.5 432.15,-330.5 432.15,-311.5 382.15,-311.5"/>
<text text-anchor="middle" x="407.15" y="-318.5" font-family="Helvetica,sans-Serif" font-size="10.00">boolean</text>
</a>
</g>
</g>
<!-- Node9&#45;&gt;Node3 -->
<g id="edge8" class="edge">
<title>Node9&#45;&gt;Node3</title>
<path fill="none" stroke="#9a32cd" stroke-dasharray="5,2" d="M432.06,-305.22C436.31,-301.7 440.28,-297.6 443.15,-293 448.83,-283.9 460.1,-211.68 463.88,-186.57"/>
<polygon fill="#9a32cd" stroke="#9a32cd" points="429.77,-302.56 423.74,-311.27 433.89,-308.22 429.77,-302.56"/>
<text text-anchor="middle" x="497.65" y="-246.5" font-family="Helvetica,sans-Serif" font-size="10.00"> DEBUG_REPO</text>
</g>
<!-- Node9&#45;&gt;Node15 -->
<g id="edge19" class="edge">
<title>Node9&#45;&gt;Node15</title>
<path fill="none" stroke="#9a32cd" stroke-dasharray="5,2" d="M379.7,-305.64C374.92,-302.08 370.44,-297.86 367.15,-293 344.73,-259.86 375.86,-233.87 348.15,-205 326.2,-182.12 287.54,-177.72 264.05,-177.35"/>
<polygon fill="#9a32cd" stroke="#9a32cd" points="378.13,-308.81 388.42,-311.36 381.97,-302.95 378.13,-308.81"/>
<text text-anchor="middle" x="403.15" y="-252" font-family="Helvetica,sans-Serif" font-size="10.00"> preoperSupress</text>
<text text-anchor="middle" x="403.15" y="-241" font-family="Helvetica,sans-Serif" font-size="10.00">toInline</text>
</g>
<!-- Node10 -->
<g id="node10" class="node">
<title>Node10</title>
<g id="a_node10"><a xlink:href="interfaceast_1_1_node.html" target="_top" xlink:title=" ">
<polygon fill="white" stroke="black" points="696.15,-167.5 696.15,-186.5 736.15,-186.5 736.15,-167.5 696.15,-167.5"/>
<text text-anchor="middle" x="716.15" y="-174.5" font-family="Helvetica,sans-Serif" font-size="10.00">Node</text>
</a>
</g>
</g>
<!-- Node10&#45;&gt;Node2 -->
<g id="edge9" class="edge">
<title>Node10&#45;&gt;Node2</title>
<path fill="none" stroke="midnightblue" d="M697.96,-160.63C673.23,-139.74 629.85,-103.09 610.26,-86.54"/>
<polygon fill="midnightblue" stroke="midnightblue" points="695.96,-163.52 705.86,-167.3 700.48,-158.18 695.96,-163.52"/>
</g>
<!-- Node11 -->
<g id="node11" class="node">
<title>Node11</title>
<g id="a_node11"><a xlink:href="interfaceformat_1_1_x_formattable.html" target="_top" xlink:title="入れ子フォーマット出力可能なオブジェクトのインタフェース。">
<polygon fill="white" stroke="black" points="731.65,-311.5 731.65,-330.5 806.65,-330.5 806.65,-311.5 731.65,-311.5"/>
<text text-anchor="middle" x="769.15" y="-318.5" font-family="Helvetica,sans-Serif" font-size="10.00">XFormattable</text>
</a>
</g>
</g>
<!-- Node11&#45;&gt;Node10 -->
<g id="edge10" class="edge">
<title>Node11&#45;&gt;Node10</title>
<path fill="none" stroke="midnightblue" d="M770.06,-300.98C770.33,-276.96 767.88,-235.13 750.15,-205 745.72,-197.46 738.32,-191.21 731.56,-186.63"/>
<polygon fill="midnightblue" stroke="midnightblue" points="766.55,-301.11 769.76,-311.21 773.55,-301.32 766.55,-301.11"/>
</g>
<!-- Node12 -->
<g id="node12" class="node">
<title>Node12</title>
<g id="a_node12"><a xlink:href="interfaceformat_1_1_x_formattable_1_1_navigatable.html" target="_top" xlink:title="木構造の分岐ノードとして清書可能なオブジェクトのクラス">
<polygon fill="white" stroke="black" points="754.15,-167.5 754.15,-186.5 884.15,-186.5 884.15,-167.5 754.15,-167.5"/>
<text text-anchor="middle" x="819.15" y="-174.5" font-family="Helvetica,sans-Serif" font-size="10.00">XFormattable.Navigatable</text>
</a>
</g>
</g>
<!-- Node11&#45;&gt;Node12 -->
<g id="edge12" class="edge">
<title>Node11&#45;&gt;Node12</title>
<path fill="none" stroke="midnightblue" d="M775.66,-301.52C786.6,-270.47 808.23,-209.02 816.15,-186.52"/>
<polygon fill="midnightblue" stroke="midnightblue" points="772.3,-300.52 772.28,-311.12 778.9,-302.85 772.3,-300.52"/>
</g>
<!-- Node13 -->
<g id="node13" class="node">
<title>Node13</title>
<g id="a_node13"><a xlink:href="interfaceformat_1_1_x_formattable_1_1_typed_formattable.html" target="_top" xlink:title="ノードの型情報をもつ書式出力可能なオブジェクトのインタフェース．">
<polygon fill="white" stroke="black" points="522.15,-167.5 522.15,-186.5 678.15,-186.5 678.15,-167.5 522.15,-167.5"/>
<text text-anchor="middle" x="600.15" y="-174.5" font-family="Helvetica,sans-Serif" font-size="10.00">XFormattable.TypedFormattable</text>
</a>
</g>
</g>
<!-- Node11&#45;&gt;Node13 -->
<g id="edge14" class="edge">
<title>Node11&#45;&gt;Node13</title>
<path fill="none" stroke="midnightblue" d="M756.07,-303.06C753.91,-299.82 751.84,-296.39 750.15,-293 731.91,-256.23 752.46,-232.68 722.15,-205 713.39,-196.99 689.8,-190.89 665.67,-186.54"/>
<polygon fill="midnightblue" stroke="midnightblue" points="753.42,-305.36 762.1,-311.43 759.1,-301.27 753.42,-305.36"/>
</g>
<!-- Node12&#45;&gt;Node2 -->
<g id="edge11" class="edge">
<title>Node12&#45;&gt;Node2</title>
<path fill="none" stroke="midnightblue" d="M793.57,-162.76C764.5,-147.93 715.46,-123.53 672.15,-105 656.57,-98.33 638.73,-91.63 624.7,-86.58"/>
<polygon fill="midnightblue" stroke="midnightblue" points="792.13,-165.96 802.63,-167.41 795.33,-159.73 792.13,-165.96"/>
</g>
<!-- Node13&#45;&gt;Node2 -->
<g id="edge13" class="edge">
<title>Node13&#45;&gt;Node2</title>
<path fill="none" stroke="midnightblue" d="M600.15,-157.22C600.15,-135.95 600.15,-102.22 600.15,-86.54"/>
<polygon fill="midnightblue" stroke="midnightblue" points="596.65,-157.3 600.15,-167.3 603.65,-157.3 596.65,-157.3"/>
</g>
<!-- Node14 -->
<g id="node14" class="node">
<title>Node14</title>
<g id="a_node14"><a xlink:title=" ">
<polygon fill="white" stroke="#bfbfbf" points="902.15,-167.5 902.15,-186.5 954.15,-186.5 954.15,-167.5 902.15,-167.5"/>
<text text-anchor="middle" x="928.15" y="-174.5" font-family="Helvetica,sans-Serif" font-size="10.00">Boolean</text>
</a>
</g>
</g>
<!-- Node14&#45;&gt;Node2 -->
<g id="edge15" class="edge">
<title>Node14&#45;&gt;Node2</title>
<path fill="none" stroke="#9a32cd" stroke-dasharray="5,2" d="M898.31,-163.56C860.13,-148.04 791.68,-121.53 731.15,-105 689.7,-93.68 678.13,-96.22 636.15,-87 633.51,-86.42 630.77,-85.79 628.02,-85.14"/>
<polygon fill="#9a32cd" stroke="#9a32cd" points="897.21,-166.89 907.8,-167.44 899.87,-160.42 897.21,-166.89"/>
<text text-anchor="middle" x="896.15" y="-124.5" font-family="Helvetica,sans-Serif" font-size="10.00"> DEBUG_CHILD</text>
</g>
<!-- Node15&#45;&gt;Node2 -->
<g id="edge16" class="edge">
<title>Node15&#45;&gt;Node2</title>
<path fill="none" stroke="#9a32cd" stroke-dasharray="5,2" d="M273.68,-166.65C318.81,-152.51 407.76,-125.17 484.15,-105 514.14,-97.08 548.81,-89.17 572.38,-83.98"/>
<polygon fill="#9a32cd" stroke="#9a32cd" points="272.45,-163.37 263.96,-169.71 274.54,-170.05 272.45,-163.37"/>
<text text-anchor="middle" x="492.65" y="-124.5" font-family="Helvetica,sans-Serif" font-size="10.00"> sty</text>
</g>
<!-- Node16 -->
<g id="node16" class="node">
<title>Node16</title>
<g id="a_node16"><a xlink:title=" ">
<polygon fill="white" stroke="#bfbfbf" points="645.65,-67.5 645.65,-86.5 748.65,-86.5 748.65,-67.5 645.65,-67.5"/>
<text text-anchor="middle" x="697.15" y="-74.5" font-family="Helvetica,sans-Serif" font-size="10.00">CustomFormattable</text>
</a>
</g>
</g>
<!-- Node16&#45;&gt;Node1 -->
<g id="edge20" class="edge">
<title>Node16&#45;&gt;Node1</title>
<path fill="none" stroke="midnightblue" d="M681.4,-58.9C672.92,-46.27 663.86,-29.6 660.31,-19.63"/>
<polygon fill="midnightblue" stroke="midnightblue" points="678.7,-61.15 687.38,-67.23 684.39,-57.07 678.7,-61.15"/>
</g>
<!-- Node16&#45;&gt;Node1 -->
<g id="edge22" class="edge">
<title>Node16&#45;&gt;Node1</title>
<path fill="none" stroke="midnightblue" d="M692.92,-57.79C686.97,-45.31 677.4,-29.31 669.82,-19.63"/>
<polygon fill="midnightblue" stroke="midnightblue" points="689.81,-59.41 696.95,-67.23 696.25,-56.66 689.81,-59.41"/>
</g>
<!-- Node17 -->
<g id="node17" class="node">
<title>Node17</title>
<g id="a_node17"><a xlink:title=" ">
<polygon fill="white" stroke="#bfbfbf" points="767.15,-67.5 767.15,-86.5 865.15,-86.5 865.15,-67.5 767.15,-67.5"/>
<text text-anchor="middle" x="816.15" y="-74.5" font-family="Helvetica,sans-Serif" font-size="10.00">List&lt; ast.AstTag &gt;</text>
</a>
</g>
</g>
<!-- Node17&#45;&gt;Node1 -->
<g id="edge24" class="edge">
<title>Node17&#45;&gt;Node1</title>
<path fill="none" stroke="#9a32cd" stroke-dasharray="5,2" d="M785.81,-63.36C754.15,-50.17 705.52,-29.9 679,-18.85"/>
<polygon fill="#9a32cd" stroke="#9a32cd" points="784.86,-66.75 795.44,-67.37 787.55,-60.29 784.86,-66.75"/>
<text text-anchor="middle" x="755.15" y="-41" font-family="Helvetica,sans-Serif" font-size="10.00"> list</text>
</g>
</g>
</svg>
