<?xml version="1.0" encoding="UTF-8" standalone="no"?>
<!DOCTYPE svg PUBLIC "-//W3C//DTD SVG 1.1//EN"
 "http://www.w3.org/Graphics/SVG/1.1/DTD/svg11.dtd">
<!-- Generated by graphviz version 2.47.1 (20210417.1919)
 -->
<!-- Title: Program Pages: 1 -->
<svg width="292pt" height="252pt"
 viewBox="0.00 0.00 291.50 252.00" xmlns="http://www.w3.org/2000/svg" xmlns:xlink="http://www.w3.org/1999/xlink">
<g id="graph0" class="graph" transform="scale(1 1) rotate(0) translate(4 248)">
<title>Program</title>
<polygon fill="white" stroke="transparent" points="-4,4 -4,-248 287.5,-248 287.5,4 -4,4"/>
<!-- Node1 -->
<g id="node1" class="node">
<title>Node1</title>
<g id="a_node1"><a xlink:title="ルールの集合からなるコンパイル済みのプログラム.">
<polygon fill="#bfbfbf" stroke="black" points="134,-0.5 134,-19.5 187,-19.5 187,-0.5 134,-0.5"/>
<text text-anchor="middle" x="160.5" y="-7.5" font-family="Helvetica,sans-Serif" font-size="10.00">Program</text>
</a>
</g>
</g>
<!-- Node2 -->
<g id="node2" class="node">
<title>Node2</title>
<g id="a_node2"><a xlink:href="classast_1_1_ast_node_tagged.html" target="_top" xlink:title="タグ付きの子をもつノードのクラス．利用者は自前で，追加する子のField名と，Getter，型を設定する．読み出しは子の添字でも行える．">
<polygon fill="white" stroke="black" points="72.5,-56.5 72.5,-75.5 158.5,-75.5 158.5,-56.5 72.5,-56.5"/>
<text text-anchor="middle" x="115.5" y="-63.5" font-family="Helvetica,sans-Serif" font-size="10.00">AstNodeTagged</text>
</a>
</g>
</g>
<!-- Node2&#45;&gt;Node1 -->
<g id="edge1" class="edge">
<title>Node2&#45;&gt;Node1</title>
<path fill="none" stroke="midnightblue" d="M129.55,-48.14C137.39,-38.74 146.83,-27.4 153.21,-19.75"/>
<polygon fill="midnightblue" stroke="midnightblue" points="126.64,-46.16 122.93,-56.08 132.02,-50.64 126.64,-46.16"/>
</g>
<!-- Node3 -->
<g id="node3" class="node">
<title>Node3</title>
<g id="a_node3"><a xlink:href="classast_1_1_ast_node.html" target="_top" xlink:title="タグなしの順アクセスの子供をもてる抽象構文木のノードのクラス。">
<polygon fill="white" stroke="black" points="88,-112.5 88,-131.5 143,-131.5 143,-112.5 88,-112.5"/>
<text text-anchor="middle" x="115.5" y="-119.5" font-family="Helvetica,sans-Serif" font-size="10.00">AstNode</text>
</a>
</g>
</g>
<!-- Node3&#45;&gt;Node2 -->
<g id="edge2" class="edge">
<title>Node3&#45;&gt;Node2</title>
<path fill="none" stroke="midnightblue" d="M115.5,-101.8C115.5,-92.91 115.5,-82.78 115.5,-75.75"/>
<polygon fill="midnightblue" stroke="midnightblue" points="112,-102.08 115.5,-112.08 119,-102.08 112,-102.08"/>
</g>
<!-- Node4 -->
<g id="node4" class="node">
<title>Node4</title>
<g id="a_node4"><a xlink:href="classast_1_1_ast_node_base.html" target="_top" xlink:title=" ">
<polygon fill="white" stroke="black" points="0,-168.5 0,-187.5 77,-187.5 77,-168.5 0,-168.5"/>
<text text-anchor="middle" x="38.5" y="-175.5" font-family="Helvetica,sans-Serif" font-size="10.00">AstNodeBase</text>
</a>
</g>
</g>
<!-- Node4&#45;&gt;Node3 -->
<g id="edge3" class="edge">
<title>Node4&#45;&gt;Node3</title>
<path fill="none" stroke="midnightblue" d="M59.4,-162.34C73.41,-152.52 91.38,-139.91 103.16,-131.65"/>
<polygon fill="midnightblue" stroke="midnightblue" points="57.05,-159.72 50.87,-168.32 61.07,-165.45 57.05,-159.72"/>
</g>
<!-- Node5 -->
<g id="node5" class="node">
<title>Node5</title>
<g id="a_node5"><a xlink:href="interfaceast_1_1_node.html" target="_top" xlink:title=" ">
<polygon fill="white" stroke="black" points="95.5,-168.5 95.5,-187.5 135.5,-187.5 135.5,-168.5 95.5,-168.5"/>
<text text-anchor="middle" x="115.5" y="-175.5" font-family="Helvetica,sans-Serif" font-size="10.00">Node</text>
</a>
</g>
</g>
<!-- Node5&#45;&gt;Node3 -->
<g id="edge4" class="edge">
<title>Node5&#45;&gt;Node3</title>
<path fill="none" stroke="midnightblue" d="M115.5,-157.8C115.5,-148.91 115.5,-138.78 115.5,-131.75"/>
<polygon fill="midnightblue" stroke="midnightblue" points="112,-158.08 115.5,-168.08 119,-158.08 112,-158.08"/>
</g>
<!-- Node6 -->
<g id="node6" class="node">
<title>Node6</title>
<g id="a_node6"><a xlink:href="interfaceformat_1_1_x_formattable.html" target="_top" xlink:title="入れ子フォーマット出力可能なオブジェクトのインタフェース。">
<polygon fill="white" stroke="black" points="129,-224.5 129,-243.5 204,-243.5 204,-224.5 129,-224.5"/>
<text text-anchor="middle" x="166.5" y="-231.5" font-family="Helvetica,sans-Serif" font-size="10.00">XFormattable</text>
</a>
</g>
</g>
<!-- Node6&#45;&gt;Node5 -->
<g id="edge5" class="edge">
<title>Node6&#45;&gt;Node5</title>
<path fill="none" stroke="midnightblue" d="M151.12,-216.72C142.13,-207.2 131.14,-195.56 123.76,-187.75"/>
<polygon fill="midnightblue" stroke="midnightblue" points="148.67,-219.22 158.08,-224.08 153.76,-214.41 148.67,-219.22"/>
</g>
<!-- Node7 -->
<g id="node7" class="node">
<title>Node7</title>
<g id="a_node7"><a xlink:href="interfaceformat_1_1_x_formattable_1_1_navigatable.html" target="_top" xlink:title="木構造の分岐ノードとして清書可能なオブジェクトのクラス">
<polygon fill="white" stroke="black" points="153.5,-168.5 153.5,-187.5 283.5,-187.5 283.5,-168.5 153.5,-168.5"/>
<text text-anchor="middle" x="218.5" y="-175.5" font-family="Helvetica,sans-Serif" font-size="10.00">XFormattable.Navigatable</text>
</a>
</g>
</g>
<!-- Node6&#45;&gt;Node7 -->
<g id="edge7" class="edge">
<title>Node6&#45;&gt;Node7</title>
<path fill="none" stroke="midnightblue" d="M182.18,-216.72C191.34,-207.2 202.55,-195.56 210.07,-187.75"/>
<polygon fill="midnightblue" stroke="midnightblue" points="179.5,-214.45 175.09,-224.08 184.54,-219.31 179.5,-214.45"/>
</g>
<!-- Node7&#45;&gt;Node3 -->
<g id="edge6" class="edge">
<title>Node7&#45;&gt;Node3</title>
<path fill="none" stroke="midnightblue" d="M192.92,-163.59C173.88,-153.61 148.44,-140.27 132.01,-131.65"/>
<polygon fill="midnightblue" stroke="midnightblue" points="191.47,-166.78 201.95,-168.32 194.72,-160.58 191.47,-166.78"/>
</g>
<!-- Node8 -->
<g id="node8" class="node">
<title>Node8</title>
<g id="a_node8"><a xlink:href="interfacemachine_1_1_runnable.html" target="_top" xlink:title="実行可能なプログラムのインタフェース.">
<polygon fill="white" stroke="black" points="176.5,-56.5 176.5,-75.5 234.5,-75.5 234.5,-56.5 176.5,-56.5"/>
<text text-anchor="middle" x="205.5" y="-63.5" font-family="Helvetica,sans-Serif" font-size="10.00">Runnable</text>
</a>
</g>
</g>
<!-- Node8&#45;&gt;Node1 -->
<g id="edge8" class="edge">
<title>Node8&#45;&gt;Node1</title>
<path fill="none" stroke="midnightblue" d="M191.45,-48.14C183.61,-38.74 174.17,-27.4 167.79,-19.75"/>
<polygon fill="midnightblue" stroke="midnightblue" points="188.98,-50.64 198.07,-56.08 194.36,-46.16 188.98,-50.64"/>
</g>
</g>
</svg>
