<?xml version="1.0" encoding="UTF-8" standalone="no"?>
<!DOCTYPE svg PUBLIC "-//W3C//DTD SVG 1.1//EN"
 "http://www.w3.org/Graphics/SVG/1.1/DTD/svg11.dtd">
<!-- Generated by graphviz version 2.47.0 (20210316.0004)
 -->
<!-- Title: getLeastUpperBound Pages: 1 -->
<svg width="465pt" height="104pt"
 viewBox="0.00 0.00 465.00 104.00" xmlns="http://www.w3.org/2000/svg" xmlns:xlink="http://www.w3.org/1999/xlink">
<g id="graph0" class="graph" transform="scale(1 1) rotate(0) translate(4 100)">
<title>getLeastUpperBound</title>
<polygon fill="white" stroke="transparent" points="-4,4 -4,-100 461,-100 461,4 -4,4"/>
<!-- Node1 -->
<g id="node1" class="node">
<title>Node1</title>
<g id="a_node1"><a xlink:title="値型xt0と値型xt1の最小上界xtを返す。">
<polygon fill="#bfbfbf" stroke="black" points="349,-38.5 349,-57.5 457,-57.5 457,-38.5 349,-38.5"/>
<text text-anchor="middle" x="403" y="-45.5" font-family="Helvetica,sans-Serif" font-size="10.00">getLeastUpperBound</text>
</a>
</g>
</g>
<!-- Node2 -->
<g id="node2" class="node">
<title>Node2</title>
<g id="a_node2"><a xlink:href="classtype_1_1_x_type_item.html#a3057d3707a7f0e95cbc88e49f41e8a4c" target="_top" xlink:title="この型変数thisと指定された型変数を単一化する（同じ同値類にする）。成功すればtrueを返し、そうでなければfalseを返す。">
<polygon fill="white" stroke="black" points="203,-38.5 203,-57.5 313,-57.5 313,-38.5 203,-38.5"/>
<text text-anchor="middle" x="258" y="-45.5" font-family="Helvetica,sans-Serif" font-size="10.00">type.XTypeItem.unify</text>
</a>
</g>
</g>
<!-- Node1&#45;&gt;Node2 -->
<g id="edge1" class="edge">
<title>Node1&#45;&gt;Node2</title>
<path fill="none" stroke="midnightblue" d="M338.56,-48C330.11,-48 321.52,-48 313.25,-48"/>
<polygon fill="midnightblue" stroke="midnightblue" points="338.75,-51.5 348.75,-48 338.75,-44.5 338.75,-51.5"/>
</g>
<!-- Node3 -->
<g id="node3" class="node">
<title>Node3</title>
<g id="a_node3"><a xlink:href="classtype_1_1_child_hom_typing.html#a63c4b84e072ab3ea55255ba2d1259643" target="_top" xlink:title="子として，型をもつ型項を追加する．">
<polygon fill="white" stroke="black" points="7.5,-76.5 7.5,-95.5 159.5,-95.5 159.5,-76.5 7.5,-76.5"/>
<text text-anchor="middle" x="83.5" y="-83.5" font-family="Helvetica,sans-Serif" font-size="10.00">type.ChildHomTyping.addChild</text>
</a>
</g>
</g>
<!-- Node2&#45;&gt;Node3 -->
<g id="edge2" class="edge">
<title>Node2&#45;&gt;Node3</title>
<path fill="none" stroke="midnightblue" d="M203.65,-59.75C179.26,-65.13 150.74,-71.41 127.72,-76.48"/>
<polygon fill="midnightblue" stroke="midnightblue" points="204.46,-63.16 213.47,-57.59 202.95,-56.32 204.46,-63.16"/>
</g>
<!-- Node4 -->
<g id="node4" class="node">
<title>Node4</title>
<g id="a_node4"><a xlink:href="classast_1_1_ast_data_reader_1_1_get_ref.html#acd2fd83a0adb6f44674827d7f05ddf7d" target="_top" xlink:title="局所変数を設定する.">
<polygon fill="white" stroke="black" points="0,-38.5 0,-57.5 167,-57.5 167,-38.5 0,-38.5"/>
<text text-anchor="middle" x="83.5" y="-45.5" font-family="Helvetica,sans-Serif" font-size="10.00">ast.AstDataReader.GetRef.setRef</text>
</a>
</g>
</g>
<!-- Node2&#45;&gt;Node4 -->
<g id="edge3" class="edge">
<title>Node2&#45;&gt;Node4</title>
<path fill="none" stroke="midnightblue" d="M192.85,-48C184.47,-48 175.79,-48 167.16,-48"/>
<polygon fill="midnightblue" stroke="midnightblue" points="192.89,-51.5 202.89,-48 192.89,-44.5 192.89,-51.5"/>
</g>
<!-- Node5 -->
<g id="node5" class="node">
<title>Node5</title>
<g id="a_node5"><a xlink:href="classast_1_1_ast_var_decl.html#a01af0743509a33df0dfbfa0c0b46690e" target="_top" xlink:title="@breif">
<polygon fill="white" stroke="black" points="26,-0.5 26,-19.5 141,-19.5 141,-0.5 26,-0.5"/>
<text text-anchor="middle" x="83.5" y="-7.5" font-family="Helvetica,sans-Serif" font-size="10.00">ast.AstVarDecl.setRef</text>
</a>
</g>
</g>
<!-- Node2&#45;&gt;Node5 -->
<g id="edge4" class="edge">
<title>Node2&#45;&gt;Node5</title>
<path fill="none" stroke="midnightblue" d="M203.65,-36.25C179.26,-30.87 150.74,-24.59 127.72,-19.52"/>
<polygon fill="midnightblue" stroke="midnightblue" points="202.95,-39.68 213.47,-38.41 204.46,-32.84 202.95,-39.68"/>
</g>
</g>
</svg>
