<?xml version="1.0" encoding="UTF-8" standalone="no"?>
<!DOCTYPE svg PUBLIC "-//W3C//DTD SVG 1.1//EN"
 "http://www.w3.org/Graphics/SVG/1.1/DTD/svg11.dtd">
<!-- Generated by graphviz version 2.47.1 (20210417.1919)
 -->
<!-- Title: Graphical Class Hierarchy Pages: 1 -->
<svg width="367pt" height="28pt"
 viewBox="0.00 0.00 367.00 28.00" xmlns="http://www.w3.org/2000/svg" xmlns:xlink="http://www.w3.org/1999/xlink">
<g id="graph0" class="graph" transform="scale(1 1) rotate(0) translate(4 24)">
<title>Graphical Class Hierarchy</title>
<polygon fill="white" stroke="transparent" points="-4,4 -4,-24 363,-24 363,4 -4,4"/>
<!-- Node0 -->
<g id="node1" class="node">
<title>Node0</title>
<g id="a_node1"><a xlink:href="classutil_1_1_string_buf.html" target="_top" xlink:title="文字列バッファのクラス.">
<polygon fill="white" stroke="black" points="0,-0.5 0,-19.5 57,-19.5 57,-0.5 0,-0.5"/>
<text text-anchor="middle" x="28.5" y="-7.5" font-family="Helvetica,sans-Serif" font-size="10.00">StringBuf</text>
</a>
</g>
</g>
<!-- Node1 -->
<g id="node2" class="node">
<title>Node1</title>
<g id="a_node2"><a xlink:href="classutil_1_1_foldable_string_buf.html" target="_top" xlink:title="入れ子深さに応じた段下げ表示を行うよう拡張された文字列バッファのクラス.">
<polygon fill="white" stroke="black" points="93,-0.5 93,-19.5 187,-19.5 187,-0.5 93,-0.5"/>
<text text-anchor="middle" x="140" y="-7.5" font-family="Helvetica,sans-Serif" font-size="10.00">FoldableStringBuf</text>
</a>
</g>
</g>
<!-- Node0&#45;&gt;Node1 -->
<g id="edge1" class="edge">
<title>Node0&#45;&gt;Node1</title>
<path fill="none" stroke="midnightblue" d="M67.16,-10C75.36,-10 84.13,-10 92.63,-10"/>
<polygon fill="midnightblue" stroke="midnightblue" points="67.13,-6.5 57.13,-10 67.13,-13.5 67.13,-6.5"/>
</g>
<!-- Node2 -->
<g id="node3" class="node">
<title>Node2</title>
<g id="a_node3"><a xlink:href="classutil_1_1_foldable_string_buf_1_1_lockable.html" target="_top" xlink:title="初期化のロック機構をもつFoldableStringBufクラス">
<polygon fill="white" stroke="black" points="223,-0.5 223,-19.5 359,-19.5 359,-0.5 223,-0.5"/>
<text text-anchor="middle" x="291" y="-7.5" font-family="Helvetica,sans-Serif" font-size="10.00">FoldableStringBuf.Lockable</text>
</a>
</g>
</g>
<!-- Node1&#45;&gt;Node2 -->
<g id="edge2" class="edge">
<title>Node1&#45;&gt;Node2</title>
<path fill="none" stroke="midnightblue" d="M197.33,-10C205.69,-10 214.37,-10 222.92,-10"/>
<polygon fill="midnightblue" stroke="midnightblue" points="197.33,-6.5 187.33,-10 197.33,-13.5 197.33,-6.5"/>
</g>
</g>
</svg>
