<?xml version="1.0" encoding="UTF-8" standalone="no"?>
<!DOCTYPE svg PUBLIC "-//W3C//DTD SVG 1.1//EN"
 "http://www.w3.org/Graphics/SVG/1.1/DTD/svg11.dtd">
<!-- Generated by graphviz version 2.38.0 (20140413.2041)
 -->
<!-- Title: Graphical Class Hierarchy Pages: 1 -->
<svg width="261pt" height="64pt"
 viewBox="0.00 0.00 261.42 64.00" xmlns="http://www.w3.org/2000/svg" xmlns:xlink="http://www.w3.org/1999/xlink">
<g id="graph0" class="graph" transform="scale(1 1) rotate(0) translate(4 60)">
<title>Graphical Class Hierarchy</title>
<polygon fill="white" stroke="none" points="-4,4 -4,-60 257.418,-60 257.418,4 -4,4"/>
<!-- Node0 -->
<g id="node1" class="node"><title>Node0</title>
<g id="a_node1"><a xlink:href="interfaceevent_1_1_actable.html" target="_top" xlink:title="EventReadable が構文解析中に返すオブジェクトのインタフェース">
<polygon fill="white" stroke="black" points="0,-18.5 0,-36.5 49.3545,-36.5 49.3545,-18.5 0,-18.5"/>
<text text-anchor="middle" x="24.6772" y="-24.5" font-family="Helvetica,sans-Serif" font-size="10.00">Actable</text>
</a>
</g>
</g>
<!-- Node1 -->
<g id="node2" class="node"><title>Node1</title>
<g id="a_node2"><a xlink:href="classevent_1_1_action_code.html" target="_top" xlink:title="EventReadable が構文解析中に実行する動作命令を表すインタフェース">
<polygon fill="white" stroke="black" points="85.3545,-37.5 85.3545,-55.5 153.054,-55.5 153.054,-37.5 85.3545,-37.5"/>
<text text-anchor="middle" x="119.204" y="-43.5" font-family="Helvetica,sans-Serif" font-size="10.00">ActionCode</text>
</a>
</g>
</g>
<!-- Node0&#45;&gt;Node1 -->
<g id="edge1" class="edge"><title>Node0&#45;&gt;Node1</title>
<path fill="none" stroke="midnightblue" d="M59.3441,-34.4134C67.7198,-36.1333 76.6917,-37.9756 85.0428,-39.6905"/>
<polygon fill="midnightblue" stroke="midnightblue" points="60.0049,-30.9761 49.5052,-32.393 58.5968,-37.833 60.0049,-30.9761"/>
</g>
<!-- Node2 -->
<g id="node3" class="node"><title>Node2</title>
<g id="a_node3"><a xlink:href="interfaceevent_1_1_event.html" target="_top" xlink:title="構文解析イベントを表すインタフェース。">
<polygon fill="white" stroke="black" points="98.4185,-0.5 98.4185,-18.5 139.99,-18.5 139.99,-0.5 98.4185,-0.5"/>
<text text-anchor="middle" x="119.204" y="-6.5" font-family="Helvetica,sans-Serif" font-size="10.00">Event</text>
</a>
</g>
</g>
<!-- Node0&#45;&gt;Node2 -->
<g id="edge2" class="edge"><title>Node0&#45;&gt;Node2</title>
<path fill="none" stroke="midnightblue" d="M59.5356,-20.9133C72.5272,-18.3859 86.928,-15.5844 98.2108,-13.3895"/>
<polygon fill="midnightblue" stroke="midnightblue" points="58.6528,-17.5193 49.5052,-22.8646 59.9896,-24.3905 58.6528,-17.5193"/>
</g>
<!-- Node3 -->
<g id="node4" class="node"><title>Node3</title>
<g id="a_node4"><a xlink:href="classevent_1_1_event_base.html" target="_top" xlink:title="EventReadable が構文解析中に返す構文解析イベントを表すクラス。">
<polygon fill="white" stroke="black" points="189.054,-0.5 189.054,-18.5 253.418,-18.5 253.418,-0.5 189.054,-0.5"/>
<text text-anchor="middle" x="221.236" y="-6.5" font-family="Helvetica,sans-Serif" font-size="10.00">EventBase</text>
</a>
</g>
</g>
<!-- Node2&#45;&gt;Node3 -->
<g id="edge3" class="edge"><title>Node2&#45;&gt;Node3</title>
<path fill="none" stroke="midnightblue" d="M150.57,-9.5C162.733,-9.5 176.739,-9.5 188.988,-9.5"/>
<polygon fill="midnightblue" stroke="midnightblue" points="150.447,-6.0001 140.447,-9.5 150.447,-13.0001 150.447,-6.0001"/>
</g>
</g>
</svg>
