<?xml version="1.0" encoding="UTF-8" standalone="no"?>
<!DOCTYPE svg PUBLIC "-//W3C//DTD SVG 1.1//EN"
 "http://www.w3.org/Graphics/SVG/1.1/DTD/svg11.dtd">
<!-- Generated by graphviz version 2.47.1 (20210417.1919)
 -->
<!-- Title: Graphical Class Hierarchy Pages: 1 -->
<svg width="165pt" height="256pt"
 viewBox="0.00 0.00 165.00 256.00" xmlns="http://www.w3.org/2000/svg" xmlns:xlink="http://www.w3.org/1999/xlink">
<g id="graph0" class="graph" transform="scale(1 1) rotate(0) translate(4 252)">
<title>Graphical Class Hierarchy</title>
<polygon fill="white" stroke="transparent" points="-4,4 -4,-252 161,-252 161,4 -4,4"/>
<!-- Node0 -->
<g id="node1" class="node">
<title>Node0</title>
<g id="a_node1"><a xlink:href="classcompile_1_1_x_compiler.html" target="_top" xlink:title="クエリのコンパイル系モジュール。">
<polygon fill="white" stroke="black" points="0,-114.5 0,-133.5 62,-133.5 62,-114.5 0,-114.5"/>
<text text-anchor="middle" x="31" y="-121.5" font-family="Helvetica,sans-Serif" font-size="10.00">XCompiler</text>
</a>
</g>
</g>
<!-- Node1 -->
<g id="node2" class="node">
<title>Node1</title>
<g id="a_node2"><a xlink:href="classcompile_1_1_x_c_adapt.html" target="_top" xlink:title=" ">
<polygon fill="white" stroke="black" points="99.5,-228.5 99.5,-247.5 155.5,-247.5 155.5,-228.5 99.5,-228.5"/>
<text text-anchor="middle" x="127.5" y="-235.5" font-family="Helvetica,sans-Serif" font-size="10.00">XCAdapt</text>
</a>
</g>
</g>
<!-- Node0&#45;&gt;Node1 -->
<g id="edge1" class="edge">
<title>Node0&#45;&gt;Node1</title>
<path fill="none" stroke="midnightblue" d="M42.12,-142.68C53.77,-163.04 74.35,-195.79 98,-219 101.48,-222.41 105.66,-225.59 109.72,-228.33"/>
<polygon fill="midnightblue" stroke="midnightblue" points="45.08,-140.8 37.15,-133.78 38.97,-144.22 45.08,-140.8"/>
</g>
<!-- Node2 -->
<g id="node3" class="node">
<title>Node2</title>
<g id="a_node3"><a xlink:href="classcompile_1_1_x_c_flat.html" target="_top" xlink:title=" ">
<polygon fill="white" stroke="black" points="104,-190.5 104,-209.5 151,-209.5 151,-190.5 104,-190.5"/>
<text text-anchor="middle" x="127.5" y="-197.5" font-family="Helvetica,sans-Serif" font-size="10.00">XCFlat</text>
</a>
</g>
</g>
<!-- Node0&#45;&gt;Node2 -->
<g id="edge2" class="edge">
<title>Node0&#45;&gt;Node2</title>
<path fill="none" stroke="midnightblue" d="M50.13,-140.74C63.11,-152.45 81.19,-168.22 98,-181 102.26,-184.24 107.05,-187.55 111.46,-190.48"/>
<polygon fill="midnightblue" stroke="midnightblue" points="52.16,-137.85 42.4,-133.7 47.44,-143.02 52.16,-137.85"/>
</g>
<!-- Node3 -->
<g id="node4" class="node">
<title>Node3</title>
<g id="a_node4"><a xlink:href="classcompile_1_1_x_c_gen.html" target="_top" xlink:title=" ">
<polygon fill="white" stroke="black" points="103,-152.5 103,-171.5 152,-171.5 152,-152.5 103,-152.5"/>
<text text-anchor="middle" x="127.5" y="-159.5" font-family="Helvetica,sans-Serif" font-size="10.00">XCGen</text>
</a>
</g>
</g>
<!-- Node0&#45;&gt;Node3 -->
<g id="edge3" class="edge">
<title>Node0&#45;&gt;Node3</title>
<path fill="none" stroke="midnightblue" d="M65.43,-137.44C77.84,-142.43 91.65,-147.98 102.99,-152.55"/>
<polygon fill="midnightblue" stroke="midnightblue" points="66.43,-134.07 55.85,-133.59 63.82,-140.57 66.43,-134.07"/>
</g>
<!-- Node4 -->
<g id="node5" class="node">
<title>Node4</title>
<g id="a_node5"><a xlink:href="classcompile_1_1_x_c_norm.html" target="_top" xlink:title=" ">
<polygon fill="white" stroke="black" points="100,-114.5 100,-133.5 155,-133.5 155,-114.5 100,-114.5"/>
<text text-anchor="middle" x="127.5" y="-121.5" font-family="Helvetica,sans-Serif" font-size="10.00">XCNorm</text>
</a>
</g>
</g>
<!-- Node0&#45;&gt;Node4 -->
<g id="edge4" class="edge">
<title>Node0&#45;&gt;Node4</title>
<path fill="none" stroke="midnightblue" d="M72.39,-124C81.66,-124 91.29,-124 99.81,-124"/>
<polygon fill="midnightblue" stroke="midnightblue" points="72.16,-120.5 62.16,-124 72.16,-127.5 72.16,-120.5"/>
</g>
<!-- Node5 -->
<g id="node6" class="node">
<title>Node5</title>
<g id="a_node6"><a xlink:href="classcompile_1_1_x_c_print.html" target="_top" xlink:title=" ">
<polygon fill="white" stroke="black" points="102,-76.5 102,-95.5 153,-95.5 153,-76.5 102,-76.5"/>
<text text-anchor="middle" x="127.5" y="-83.5" font-family="Helvetica,sans-Serif" font-size="10.00">XCPrint</text>
</a>
</g>
</g>
<!-- Node0&#45;&gt;Node5 -->
<g id="edge5" class="edge">
<title>Node0&#45;&gt;Node5</title>
<path fill="none" stroke="midnightblue" d="M65.35,-110.59C77.66,-105.64 91.36,-100.13 102.66,-95.59"/>
<polygon fill="midnightblue" stroke="midnightblue" points="63.82,-107.43 55.85,-114.41 66.43,-113.93 63.82,-107.43"/>
</g>
<!-- Node6 -->
<g id="node7" class="node">
<title>Node6</title>
<g id="a_node7"><a xlink:href="classcompile_1_1_x_c_push.html" target="_top" xlink:title=" ">
<polygon fill="white" stroke="black" points="101,-38.5 101,-57.5 154,-57.5 154,-38.5 101,-38.5"/>
<text text-anchor="middle" x="127.5" y="-45.5" font-family="Helvetica,sans-Serif" font-size="10.00">XCPush</text>
</a>
</g>
</g>
<!-- Node0&#45;&gt;Node6 -->
<g id="edge6" class="edge">
<title>Node0&#45;&gt;Node6</title>
<path fill="none" stroke="midnightblue" d="M50.13,-107.26C63.11,-95.55 81.19,-79.78 98,-67 102.26,-63.76 107.05,-60.45 111.46,-57.52"/>
<polygon fill="midnightblue" stroke="midnightblue" points="47.44,-104.98 42.4,-114.3 52.16,-110.15 47.44,-104.98"/>
</g>
<!-- Node7 -->
<g id="node8" class="node">
<title>Node7</title>
<g id="a_node8"><a xlink:href="classcompile_1_1_x_c_typing.html" target="_top" xlink:title="型付けと記号表の前処理を行うクラス">
<polygon fill="white" stroke="black" points="98,-0.5 98,-19.5 157,-19.5 157,-0.5 98,-0.5"/>
<text text-anchor="middle" x="127.5" y="-7.5" font-family="Helvetica,sans-Serif" font-size="10.00">XCTyping</text>
</a>
</g>
</g>
<!-- Node0&#45;&gt;Node7 -->
<g id="edge7" class="edge">
<title>Node0&#45;&gt;Node7</title>
<path fill="none" stroke="midnightblue" d="M42.12,-105.32C53.77,-84.96 74.35,-52.21 98,-29 101.48,-25.59 105.66,-22.41 109.72,-19.67"/>
<polygon fill="midnightblue" stroke="midnightblue" points="38.97,-103.78 37.15,-114.22 45.08,-107.2 38.97,-103.78"/>
</g>
</g>
</svg>
