<?xml version="1.0" encoding="UTF-8" standalone="no"?>
<!DOCTYPE svg PUBLIC "-//W3C//DTD SVG 1.1//EN"
 "http://www.w3.org/Graphics/SVG/1.1/DTD/svg11.dtd">
<!-- Generated by graphviz version 2.47.1 (20210417.1919)
 -->
<!-- Title: Graphical Class Hierarchy Pages: 1 -->
<svg width="279pt" height="104pt"
 viewBox="0.00 0.00 279.00 104.00" xmlns="http://www.w3.org/2000/svg" xmlns:xlink="http://www.w3.org/1999/xlink">
<g id="graph0" class="graph" transform="scale(1 1) rotate(0) translate(4 100)">
<title>Graphical Class Hierarchy</title>
<polygon fill="white" stroke="transparent" points="-4,4 -4,-100 275,-100 275,4 -4,4"/>
<!-- Node0 -->
<g id="node1" class="node">
<title>Node0</title>
<g id="a_node1"><a xlink:href="class_cmd_str2_type.html" target="_top" xlink:title=" ">
<polygon fill="white" stroke="black" points="0,-38.5 0,-57.5 77,-57.5 77,-38.5 0,-38.5"/>
<text text-anchor="middle" x="38.5" y="-45.5" font-family="Helvetica,sans-Serif" font-size="10.00">CmdStr2Type</text>
</a>
</g>
</g>
<!-- Node1 -->
<g id="node2" class="node">
<title>Node1</title>
<g id="a_node2"><a xlink:href="classcmd_1_1_command_boolean_1_1_cmd_str2_bool.html" target="_top" xlink:title="OVMachine上のString値をBoolean値に変換する命令．">
<polygon fill="white" stroke="black" points="113,-76.5 113,-95.5 271,-95.5 271,-76.5 113,-76.5"/>
<text text-anchor="middle" x="192" y="-83.5" font-family="Helvetica,sans-Serif" font-size="10.00">CommandBoolean.CmdStr2Bool</text>
</a>
</g>
</g>
<!-- Node0&#45;&gt;Node1 -->
<g id="edge1" class="edge">
<title>Node0&#45;&gt;Node1</title>
<path fill="none" stroke="midnightblue" d="M86.02,-60.13C94.97,-62.43 104.27,-64.81 113,-67 125.44,-70.12 139.01,-73.45 151.29,-76.44"/>
<polygon fill="midnightblue" stroke="midnightblue" points="86.67,-56.68 76.11,-57.57 84.92,-63.46 86.67,-56.68"/>
</g>
<!-- Node2 -->
<g id="node3" class="node">
<title>Node2</title>
<g id="a_node3"><a xlink:href="classcmd_1_1_command_double_1_1_cmd_str2_dbl.html" target="_top" xlink:title="OVMachine上のString値をDouble値に変換する命令．">
<polygon fill="white" stroke="black" points="117.5,-38.5 117.5,-57.5 266.5,-57.5 266.5,-38.5 117.5,-38.5"/>
<text text-anchor="middle" x="192" y="-45.5" font-family="Helvetica,sans-Serif" font-size="10.00">CommandDouble.CmdStr2Dbl</text>
</a>
</g>
</g>
<!-- Node0&#45;&gt;Node2 -->
<g id="edge2" class="edge">
<title>Node0&#45;&gt;Node2</title>
<path fill="none" stroke="midnightblue" d="M87.39,-48C96.92,-48 107.15,-48 117.32,-48"/>
<polygon fill="midnightblue" stroke="midnightblue" points="87.34,-44.5 77.34,-48 87.34,-51.5 87.34,-44.5"/>
</g>
<!-- Node3 -->
<g id="node4" class="node">
<title>Node3</title>
<g id="a_node4"><a xlink:href="classcmd_1_1_command_integer_1_1_cmd_str2_int.html" target="_top" xlink:title="OVMachine上のString値をInteger値に変換する命令．">
<polygon fill="white" stroke="black" points="120,-0.5 120,-19.5 264,-19.5 264,-0.5 120,-0.5"/>
<text text-anchor="middle" x="192" y="-7.5" font-family="Helvetica,sans-Serif" font-size="10.00">CommandInteger.CmdStr2Int</text>
</a>
</g>
</g>
<!-- Node0&#45;&gt;Node3 -->
<g id="edge3" class="edge">
<title>Node0&#45;&gt;Node3</title>
<path fill="none" stroke="midnightblue" d="M86.02,-35.87C94.97,-33.57 104.27,-31.19 113,-29 125.44,-25.88 139.01,-22.55 151.29,-19.56"/>
<polygon fill="midnightblue" stroke="midnightblue" points="84.92,-32.54 76.11,-38.43 86.67,-39.32 84.92,-32.54"/>
</g>
</g>
</svg>
