<?xml version="1.0" encoding="UTF-8" standalone="no"?>
<!DOCTYPE svg PUBLIC "-//W3C//DTD SVG 1.1//EN"
 "http://www.w3.org/Graphics/SVG/1.1/DTD/svg11.dtd">
<!-- Generated by graphviz version 2.47.0 (20210316.0004)
 -->
<!-- Title: Graphical Class Hierarchy Pages: 1 -->
<svg width="165pt" height="218pt"
 viewBox="0.00 0.00 165.00 218.00" xmlns="http://www.w3.org/2000/svg" xmlns:xlink="http://www.w3.org/1999/xlink">
<g id="graph0" class="graph" transform="scale(1 1) rotate(0) translate(4 214)">
<title>Graphical Class Hierarchy</title>
<polygon fill="white" stroke="transparent" points="-4,4 -4,-214 161,-214 161,4 -4,4"/>
<!-- Node0 -->
<g id="node1" class="node">
<title>Node0</title>
<g id="a_node1"><a xlink:href="classcompile_1_1_x_compiler.html" target="_top" xlink:title="クエリのコンパイル系モジュール。">
<polygon fill="white" stroke="black" points="0,-95.5 0,-114.5 62,-114.5 62,-95.5 0,-95.5"/>
<text text-anchor="middle" x="31" y="-102.5" font-family="Helvetica,sans-Serif" font-size="10.00">XCompiler</text>
</a>
</g>
</g>
<!-- Node1 -->
<g id="node2" class="node">
<title>Node1</title>
<g id="a_node2"><a xlink:href="classcompile_1_1_x_c_adapt.html" target="_top" xlink:title=" ">
<polygon fill="white" stroke="black" points="99.5,-190.5 99.5,-209.5 155.5,-209.5 155.5,-190.5 99.5,-190.5"/>
<text text-anchor="middle" x="127.5" y="-197.5" font-family="Helvetica,sans-Serif" font-size="10.00">XCAdapt</text>
</a>
</g>
</g>
<!-- Node0&#45;&gt;Node1 -->
<g id="edge1" class="edge">
<title>Node0&#45;&gt;Node1</title>
<path fill="none" stroke="midnightblue" d="M45.16,-122.72C57.7,-138.94 77.64,-163.07 98,-181 101.84,-184.38 106.31,-187.63 110.57,-190.46"/>
<polygon fill="midnightblue" stroke="midnightblue" points="47.84,-120.46 39,-114.61 42.26,-124.69 47.84,-120.46"/>
</g>
<!-- Node2 -->
<g id="node3" class="node">
<title>Node2</title>
<g id="a_node3"><a xlink:href="classcompile_1_1_x_c_flat.html" target="_top" xlink:title=" ">
<polygon fill="white" stroke="black" points="104,-152.5 104,-171.5 151,-171.5 151,-152.5 104,-152.5"/>
<text text-anchor="middle" x="127.5" y="-159.5" font-family="Helvetica,sans-Serif" font-size="10.00">XCFlat</text>
</a>
</g>
</g>
<!-- Node0&#45;&gt;Node2 -->
<g id="edge2" class="edge">
<title>Node0&#45;&gt;Node2</title>
<path fill="none" stroke="midnightblue" d="M56.9,-120.02C73.95,-130.3 96.03,-143.62 110.71,-152.47"/>
<polygon fill="midnightblue" stroke="midnightblue" points="58.4,-116.84 48.03,-114.67 54.79,-122.83 58.4,-116.84"/>
</g>
<!-- Node3 -->
<g id="node4" class="node">
<title>Node3</title>
<g id="a_node4"><a xlink:href="classcompile_1_1_x_c_gen.html" target="_top" xlink:title=" ">
<polygon fill="white" stroke="black" points="103,-114.5 103,-133.5 152,-133.5 152,-114.5 103,-114.5"/>
<text text-anchor="middle" x="127.5" y="-121.5" font-family="Helvetica,sans-Serif" font-size="10.00">XCGen</text>
</a>
</g>
</g>
<!-- Node0&#45;&gt;Node3 -->
<g id="edge3" class="edge">
<title>Node0&#45;&gt;Node3</title>
<path fill="none" stroke="midnightblue" d="M72.03,-113.05C82.55,-115.16 93.56,-117.38 102.9,-119.26"/>
<polygon fill="midnightblue" stroke="midnightblue" points="72.65,-109.6 62.16,-111.06 71.27,-116.47 72.65,-109.6"/>
</g>
<!-- Node4 -->
<g id="node5" class="node">
<title>Node4</title>
<g id="a_node5"><a xlink:href="classcompile_1_1_x_c_norm.html" target="_top" xlink:title=" ">
<polygon fill="white" stroke="black" points="100,-76.5 100,-95.5 155,-95.5 155,-76.5 100,-76.5"/>
<text text-anchor="middle" x="127.5" y="-83.5" font-family="Helvetica,sans-Serif" font-size="10.00">XCNorm</text>
</a>
</g>
</g>
<!-- Node0&#45;&gt;Node4 -->
<g id="edge4" class="edge">
<title>Node0&#45;&gt;Node4</title>
<path fill="none" stroke="midnightblue" d="M72.1,-96.94C81.46,-95.06 91.2,-93.1 99.81,-91.37"/>
<polygon fill="midnightblue" stroke="midnightblue" points="71.27,-93.53 62.16,-98.94 72.65,-100.4 71.27,-93.53"/>
</g>
<!-- Node5 -->
<g id="node6" class="node">
<title>Node5</title>
<g id="a_node6"><a xlink:href="classcompile_1_1_x_c_push.html" target="_top" xlink:title=" ">
<polygon fill="white" stroke="black" points="101,-38.5 101,-57.5 154,-57.5 154,-38.5 101,-38.5"/>
<text text-anchor="middle" x="127.5" y="-45.5" font-family="Helvetica,sans-Serif" font-size="10.00">XCPush</text>
</a>
</g>
</g>
<!-- Node0&#45;&gt;Node5 -->
<g id="edge5" class="edge">
<title>Node0&#45;&gt;Node5</title>
<path fill="none" stroke="midnightblue" d="M56.9,-89.98C73.95,-79.7 96.03,-66.38 110.71,-57.53"/>
<polygon fill="midnightblue" stroke="midnightblue" points="54.79,-87.17 48.03,-95.33 58.4,-93.16 54.79,-87.17"/>
</g>
<!-- Node6 -->
<g id="node7" class="node">
<title>Node6</title>
<g id="a_node7"><a xlink:href="classcompile_1_1_x_c_typing.html" target="_top" xlink:title="型付けと記号表の前処理を行うクラス">
<polygon fill="white" stroke="black" points="98,-0.5 98,-19.5 157,-19.5 157,-0.5 98,-0.5"/>
<text text-anchor="middle" x="127.5" y="-7.5" font-family="Helvetica,sans-Serif" font-size="10.00">XCTyping</text>
</a>
</g>
</g>
<!-- Node0&#45;&gt;Node6 -->
<g id="edge6" class="edge">
<title>Node0&#45;&gt;Node6</title>
<path fill="none" stroke="midnightblue" d="M45.16,-87.28C57.7,-71.06 77.64,-46.93 98,-29 101.84,-25.62 106.31,-22.37 110.57,-19.54"/>
<polygon fill="midnightblue" stroke="midnightblue" points="42.26,-85.31 39,-95.39 47.84,-89.54 42.26,-85.31"/>
</g>
</g>
</svg>
