<?xml version="1.0" encoding="UTF-8" standalone="no"?>
<!DOCTYPE svg PUBLIC "-//W3C//DTD SVG 1.1//EN"
 "http://www.w3.org/Graphics/SVG/1.1/DTD/svg11.dtd">
<!-- Generated by graphviz version 2.47.0 (20210316.0004)
 -->
<!-- Title: Graphical Class Hierarchy Pages: 1 -->
<svg width="349pt" height="28pt"
 viewBox="0.00 0.00 349.00 28.00" xmlns="http://www.w3.org/2000/svg" xmlns:xlink="http://www.w3.org/1999/xlink">
<g id="graph0" class="graph" transform="scale(1 1) rotate(0) translate(4 24)">
<title>Graphical Class Hierarchy</title>
<polygon fill="white" stroke="transparent" points="-4,4 -4,-24 345,-24 345,4 -4,4"/>
<!-- Node417 -->
<g id="node1" class="node">
<title>Node417</title>
<g id="a_node1"><a xlink:title=" ">
<polygon fill="white" stroke="#bfbfbf" points="0,-0.5 0,-19.5 96,-19.5 96,-0.5 0,-0.5"/>
<text text-anchor="middle" x="48" y="-7.5" font-family="Helvetica,sans-Serif" font-size="10.00">ParseTreeListener</text>
</a>
</g>
</g>
<!-- Node0 -->
<g id="node2" class="node">
<title>Node0</title>
<g id="a_node2"><a xlink:href="interfaceparse_1_1query_listener.html" target="_top" xlink:title="This interface defines a complete listener for a parse tree produced by queryParser.">
<polygon fill="white" stroke="black" points="132,-0.5 132,-19.5 207,-19.5 207,-0.5 132,-0.5"/>
<text text-anchor="middle" x="169.5" y="-7.5" font-family="Helvetica,sans-Serif" font-size="10.00">queryListener</text>
</a>
</g>
</g>
<!-- Node417&#45;&gt;Node0 -->
<g id="edge1" class="edge">
<title>Node417&#45;&gt;Node0</title>
<path fill="none" stroke="midnightblue" d="M106.37,-10C115.07,-10 123.84,-10 131.93,-10"/>
<polygon fill="midnightblue" stroke="midnightblue" points="106.23,-6.5 96.23,-10 106.23,-13.5 106.23,-6.5"/>
</g>
<!-- Node1 -->
<g id="node3" class="node">
<title>Node1</title>
<g id="a_node3"><a xlink:href="classparse_1_1query_base_listener.html" target="_top" xlink:title="This class provides an empty implementation of queryListener, which can be extended to create a liste...">
<polygon fill="white" stroke="black" points="243,-0.5 243,-19.5 341,-19.5 341,-0.5 243,-0.5"/>
<text text-anchor="middle" x="292" y="-7.5" font-family="Helvetica,sans-Serif" font-size="10.00">queryBaseListener</text>
</a>
</g>
</g>
<!-- Node0&#45;&gt;Node1 -->
<g id="edge2" class="edge">
<title>Node0&#45;&gt;Node1</title>
<path fill="none" stroke="midnightblue" d="M217.58,-10C225.88,-10 234.53,-10 242.86,-10"/>
<polygon fill="midnightblue" stroke="midnightblue" points="217.31,-6.5 207.31,-10 217.31,-13.5 217.31,-6.5"/>
</g>
</g>
</svg>
