<?xml version="1.0" encoding="UTF-8" standalone="no"?>
<!DOCTYPE svg PUBLIC "-//W3C//DTD SVG 1.1//EN"
 "http://www.w3.org/Graphics/SVG/1.1/DTD/svg11.dtd">
<!-- Generated by graphviz version 2.38.0 (20140413.2041)
 -->
<!-- Title: Ref Pages: 1 -->
<svg width="129pt" height="92pt"
 viewBox="0.00 0.00 128.68 92.00" xmlns="http://www.w3.org/2000/svg" xmlns:xlink="http://www.w3.org/1999/xlink">
<g id="graph0" class="graph" transform="scale(1 1) rotate(0) translate(4 88)">
<title>Ref</title>
<polygon fill="white" stroke="none" points="-4,4 -4,-88 124.682,-88 124.682,4 -4,4"/>
<!-- Node1 -->
<g id="node1" class="node"><title>Node1</title>
<g id="a_node1"><a xlink:title="フレームスタック中のコンテナ型の要素を指す参照オブジェクト.">
<polygon fill="#bfbfbf" stroke="black" points="48.6797,-0.5 48.6797,-18.5 80.2412,-18.5 80.2412,-0.5 48.6797,-0.5"/>
<text text-anchor="middle" x="64.4604" y="-6.5" font-family="Helvetica,sans-Serif" font-size="10.00">Ref</text>
</a>
</g>
</g>
<!-- Node2 -->
<g id="node2" class="node"><title>Node2</title>
<g id="a_node2"><a xlink:href="interfacemachine_1_1_assignable.html" target="_top" xlink:title="変数（チャネルとコンテナの名前）の抽象化">
<polygon fill="white" stroke="black" points="0,-65.5 0,-83.5 64.9209,-83.5 64.9209,-65.5 0,-65.5"/>
<text text-anchor="middle" x="32.4604" y="-71.5" font-family="Helvetica,sans-Serif" font-size="10.00">Assignable</text>
</a>
</g>
</g>
<!-- Node2&#45;&gt;Node1 -->
<g id="edge1" class="edge"><title>Node2&#45;&gt;Node1</title>
<path fill="none" stroke="midnightblue" d="M41.339,-56.0204C47.5674,-43.7582 55.6047,-27.9348 60.3772,-18.539"/>
<polygon fill="midnightblue" stroke="midnightblue" points="38.0521,-54.763 36.6439,-65.2639 44.2931,-57.9331 38.0521,-54.763"/>
</g>
<!-- Node3 -->
<g id="node3" class="node"><title>Node3</title>
<g id="a_node3"><a xlink:title=" ">
<polygon fill="white" stroke="#bfbfbf" points="82.9604,-65.5 82.9604,-83.5 111.96,-83.5 111.96,-65.5 82.9604,-65.5"/>
<text text-anchor="middle" x="97.2412" y="-71.5" font-family="Helvetica,sans-Serif" font-size="10.00">int</text>
</a>
</g>
</g>
<!-- Node3&#45;&gt;Node1 -->
<g id="edge2" class="edge"><title>Node3&#45;&gt;Node1</title>
<path fill="none" stroke="#9a32cd" stroke-dasharray="5,2" d="M88.4966,-56.3872C82.0475,-44.0753 73.6422,-28.0288 68.6713,-18.539"/>
<polygon fill="#9a32cd" stroke="#9a32cd" points="85.4057,-58.0296 93.1463,-65.2639 91.6066,-54.7815 85.4057,-58.0296"/>
<text text-anchor="middle" x="102.071" y="-39" font-family="Helvetica,sans-Serif" font-size="10.00"> UNDEF</text>
</g>
</g>
</svg>
