<?xml version="1.0" encoding="UTF-8" standalone="no"?>
<!DOCTYPE svg PUBLIC "-//W3C//DTD SVG 1.1//EN"
 "http://www.w3.org/Graphics/SVG/1.1/DTD/svg11.dtd">
<!-- Generated by graphviz version 2.47.0 (20210316.0004)
 -->
<!-- Title: XFormattable Pages: 1 -->
<svg width="809pt" height="902pt"
 viewBox="0.00 0.00 809.00 902.00" xmlns="http://www.w3.org/2000/svg" xmlns:xlink="http://www.w3.org/1999/xlink">
<g id="graph0" class="graph" transform="scale(1 1) rotate(0) translate(4 898)">
<title>XFormattable</title>
<polygon fill="white" stroke="transparent" points="-4,4 -4,-898 805,-898 805,4 -4,4"/>
<!-- Node1 -->
<g id="node1" class="node">
<title>Node1</title>
<g id="a_node1"><a xlink:title="入れ子フォーマット出力可能なオブジェクトのインタフェース。">
<polygon fill="#bfbfbf" stroke="black" points="0,-95.5 0,-114.5 75,-114.5 75,-95.5 0,-95.5"/>
<text text-anchor="middle" x="37.5" y="-102.5" font-family="Helvetica,sans-Serif" font-size="10.00">XFormattable</text>
</a>
</g>
</g>
<!-- Node2 -->
<g id="node2" class="node">
<title>Node2</title>
<g id="a_node2"><a xlink:href="interfaceast_1_1_node.html" target="_top" xlink:title=" ">
<polygon fill="white" stroke="black" points="173,-76.5 173,-95.5 213,-95.5 213,-76.5 173,-76.5"/>
<text text-anchor="middle" x="193" y="-83.5" font-family="Helvetica,sans-Serif" font-size="10.00">Node</text>
</a>
</g>
</g>
<!-- Node1&#45;&gt;Node2 -->
<g id="edge1" class="edge">
<title>Node1&#45;&gt;Node2</title>
<path fill="none" stroke="midnightblue" d="M85.34,-99.2C114.72,-95.57 151.04,-91.07 172.82,-88.37"/>
<polygon fill="midnightblue" stroke="midnightblue" points="84.76,-95.75 75.27,-100.45 85.62,-102.69 84.76,-95.75"/>
</g>
<!-- Node82 -->
<g id="node46" class="node">
<title>Node82</title>
<g id="a_node46"><a xlink:href="interfaceformat_1_1_x_formattable_1_1_custom_formattable.html" target="_top" xlink:title="カスタム清書出力器をもつオブジェクトのクラス．">
<polygon fill="white" stroke="black" points="111,-38.5 111,-57.5 275,-57.5 275,-38.5 111,-38.5"/>
<text text-anchor="middle" x="193" y="-45.5" font-family="Helvetica,sans-Serif" font-size="10.00">XFormattable.CustomFormattable</text>
</a>
</g>
</g>
<!-- Node1&#45;&gt;Node82 -->
<g id="edge50" class="edge">
<title>Node1&#45;&gt;Node82</title>
<path fill="none" stroke="midnightblue" d="M62.91,-90.23C76.64,-82.42 94.34,-73.21 111,-67 120.88,-63.32 131.71,-60.19 142.15,-57.6"/>
<polygon fill="midnightblue" stroke="midnightblue" points="60.98,-87.3 54.09,-95.35 64.49,-93.35 60.98,-87.3"/>
</g>
<!-- Node83 -->
<g id="node47" class="node">
<title>Node83</title>
<g id="a_node47"><a xlink:href="interfaceformat_1_1_x_formattable_1_1_navigatable.html" target="_top" xlink:title="木構造の分岐ノードとして清書可能なオブジェクトのクラス">
<polygon fill="white" stroke="black" points="128,-114.5 128,-133.5 258,-133.5 258,-114.5 128,-114.5"/>
<text text-anchor="middle" x="193" y="-121.5" font-family="Helvetica,sans-Serif" font-size="10.00">XFormattable.Navigatable</text>
</a>
</g>
</g>
<!-- Node1&#45;&gt;Node83 -->
<g id="edge51" class="edge">
<title>Node1&#45;&gt;Node83</title>
<path fill="none" stroke="midnightblue" d="M85.24,-110.79C98.7,-112.45 113.62,-114.3 127.94,-116.07"/>
<polygon fill="midnightblue" stroke="midnightblue" points="85.62,-107.31 75.27,-109.55 84.76,-114.25 85.62,-107.31"/>
</g>
<!-- Node84 -->
<g id="node48" class="node">
<title>Node84</title>
<g id="a_node48"><a xlink:href="interfaceformat_1_1_x_formattable_1_1_typed_formattable.html" target="_top" xlink:title="ノードの型情報をもつ書式出力可能なオブジェクトのインタフェース．">
<polygon fill="white" stroke="black" points="115,-323.5 115,-342.5 271,-342.5 271,-323.5 115,-323.5"/>
<text text-anchor="middle" x="193" y="-330.5" font-family="Helvetica,sans-Serif" font-size="10.00">XFormattable.TypedFormattable</text>
</a>
</g>
</g>
<!-- Node1&#45;&gt;Node84 -->
<g id="edge54" class="edge">
<title>Node1&#45;&gt;Node84</title>
<path fill="none" stroke="midnightblue" d="M50.51,-122.84C81.28,-168.55 162.17,-288.69 185.57,-323.45"/>
<polygon fill="midnightblue" stroke="midnightblue" points="53.39,-120.85 44.9,-114.51 47.58,-124.76 53.39,-120.85"/>
</g>
<!-- Node3 -->
<g id="node3" class="node">
<title>Node3</title>
<g id="a_node3"><a xlink:href="classast_1_1_ast_node.html" target="_top" xlink:title="タグなしの順アクセスの子供をもてる抽象構文木のノードのクラス。">
<polygon fill="white" stroke="black" points="331,-513.5 331,-532.5 386,-532.5 386,-513.5 331,-513.5"/>
<text text-anchor="middle" x="358.5" y="-520.5" font-family="Helvetica,sans-Serif" font-size="10.00">AstNode</text>
</a>
</g>
</g>
<!-- Node2&#45;&gt;Node3 -->
<g id="edge2" class="edge">
<title>Node2&#45;&gt;Node3</title>
<path fill="none" stroke="midnightblue" d="M223.41,-85.41C240.74,-86.68 261.79,-91.31 275,-105 334.2,-166.34 353.68,-456.09 356.97,-513.21"/>
<polygon fill="midnightblue" stroke="midnightblue" points="223.34,-81.9 213.21,-85 223.06,-88.9 223.34,-81.9"/>
</g>
<!-- Node79 -->
<g id="node43" class="node">
<title>Node79</title>
<g id="a_node43"><a xlink:href="interfaceast_1_1_node_1_1_data_reader.html" target="_top" xlink:title="データをメモリから読み込むノードのインタフェース．">
<polygon fill="white" stroke="black" points="311,-0.5 311,-19.5 406,-19.5 406,-0.5 311,-0.5"/>
<text text-anchor="middle" x="358.5" y="-7.5" font-family="Helvetica,sans-Serif" font-size="10.00">Node.DataReader</text>
</a>
</g>
</g>
<!-- Node2&#45;&gt;Node79 -->
<g id="edge45" class="edge">
<title>Node2&#45;&gt;Node79</title>
<path fill="none" stroke="midnightblue" d="M223.11,-83.31C239.25,-80.83 259.18,-76.09 275,-67 295.17,-55.41 291.8,-42.14 311,-29 316.33,-25.36 322.46,-22.23 328.49,-19.63"/>
<polygon fill="midnightblue" stroke="midnightblue" points="222.6,-79.85 213.14,-84.63 223.52,-86.79 222.6,-79.85"/>
</g>
<!-- Node80 -->
<g id="node44" class="node">
<title>Node80</title>
<g id="a_node44"><a xlink:href="interfaceast_1_1_node_1_1_data_writer.html" target="_top" xlink:title="データをメモリに書き出すノードのインタフェース．単なるマーカー．">
<polygon fill="white" stroke="black" points="314,-38.5 314,-57.5 403,-57.5 403,-38.5 314,-38.5"/>
<text text-anchor="middle" x="358.5" y="-45.5" font-family="Helvetica,sans-Serif" font-size="10.00">Node.DataWriter</text>
</a>
</g>
</g>
<!-- Node2&#45;&gt;Node80 -->
<g id="edge46" class="edge">
<title>Node2&#45;&gt;Node80</title>
<path fill="none" stroke="midnightblue" d="M223.04,-79.25C248.99,-73.22 287.29,-64.32 316.39,-57.56"/>
<polygon fill="midnightblue" stroke="midnightblue" points="222.02,-75.89 213.08,-81.57 223.61,-82.71 222.02,-75.89"/>
</g>
<!-- Node81 -->
<g id="node45" class="node">
<title>Node81</title>
<g id="a_node45"><a xlink:href="interfaceast_1_1_node_1_1_node_unary.html" target="_top" xlink:title="子供を一つだけもつノードのインタフェース">
<polygon fill="white" stroke="black" points="312.5,-76.5 312.5,-95.5 404.5,-95.5 404.5,-76.5 312.5,-76.5"/>
<text text-anchor="middle" x="358.5" y="-83.5" font-family="Helvetica,sans-Serif" font-size="10.00">Node.NodeUnary</text>
</a>
</g>
</g>
<!-- Node2&#45;&gt;Node81 -->
<g id="edge47" class="edge">
<title>Node2&#45;&gt;Node81</title>
<path fill="none" stroke="midnightblue" d="M223.28,-86C248.03,-86 283.91,-86 312.35,-86"/>
<polygon fill="midnightblue" stroke="midnightblue" points="223.08,-82.5 213.08,-86 223.08,-89.5 223.08,-82.5"/>
</g>
<!-- Node4 -->
<g id="node4" class="node">
<title>Node4</title>
<g id="a_node4"><a xlink:href="classast_1_1_ast_assign.html" target="_top" xlink:title="値の読み出しオブジェクト．">
<polygon fill="white" stroke="black" points="489,-646.5 489,-665.5 551,-665.5 551,-646.5 489,-646.5"/>
<text text-anchor="middle" x="520" y="-653.5" font-family="Helvetica,sans-Serif" font-size="10.00">AstAssign</text>
</a>
</g>
</g>
<!-- Node3&#45;&gt;Node4 -->
<g id="edge3" class="edge">
<title>Node3&#45;&gt;Node4</title>
<path fill="none" stroke="midnightblue" d="M368.05,-542.11C380.53,-567.76 406.21,-612.88 442,-637 455.81,-646.31 473.77,-651.07 488.87,-653.49"/>
<polygon fill="midnightblue" stroke="midnightblue" points="371.06,-540.29 363.65,-532.72 364.72,-543.26 371.06,-540.29"/>
</g>
<!-- Node5 -->
<g id="node5" class="node">
<title>Node5</title>
<g id="a_node5"><a xlink:href="classast_1_1_ast_break.html" target="_top" xlink:title="実行を強制中断させる演算．デバッグのブレークポイント設定に用いる．">
<polygon fill="white" stroke="black" points="491.5,-608.5 491.5,-627.5 548.5,-627.5 548.5,-608.5 491.5,-608.5"/>
<text text-anchor="middle" x="520" y="-615.5" font-family="Helvetica,sans-Serif" font-size="10.00">AstBreak</text>
</a>
</g>
</g>
<!-- Node3&#45;&gt;Node5 -->
<g id="edge4" class="edge">
<title>Node3&#45;&gt;Node5</title>
<path fill="none" stroke="midnightblue" d="M373.58,-540.32C388.69,-557.74 414.29,-584.1 442,-599 457.28,-607.21 476.17,-611.94 491.42,-614.63"/>
<polygon fill="midnightblue" stroke="midnightblue" points="376.17,-537.95 367.04,-532.57 370.82,-542.47 376.17,-537.95"/>
</g>
<!-- Node6 -->
<g id="node6" class="node">
<title>Node6</title>
<g id="a_node6"><a xlink:href="classast_1_1_ast_data_reader.html" target="_top" xlink:title="値の読み出しオブジェクト．">
<polygon fill="white" stroke="black" points="478,-760.5 478,-779.5 562,-779.5 562,-760.5 478,-760.5"/>
<text text-anchor="middle" x="520" y="-767.5" font-family="Helvetica,sans-Serif" font-size="10.00">AstDataReader</text>
</a>
</g>
</g>
<!-- Node3&#45;&gt;Node6 -->
<g id="edge5" class="edge">
<title>Node3&#45;&gt;Node6</title>
<path fill="none" stroke="midnightblue" d="M360.6,-542.51C364.19,-586.62 379.25,-694.53 442,-751 451.83,-759.84 465.11,-764.72 477.88,-767.37"/>
<polygon fill="midnightblue" stroke="midnightblue" points="364.09,-542.25 359.9,-532.52 357.11,-542.74 364.09,-542.25"/>
</g>
<!-- Node12 -->
<g id="node8" class="node">
<title>Node12</title>
<g id="a_node8"><a xlink:href="classast_1_1_ast_data_reader_1_1_ast_get_text.html" target="_top" xlink:title=" ">
<polygon fill="white" stroke="black" points="452,-532.5 452,-551.5 588,-551.5 588,-532.5 452,-532.5"/>
<text text-anchor="middle" x="520" y="-539.5" font-family="Helvetica,sans-Serif" font-size="10.00">AstDataReader.AstGetText</text>
</a>
</g>
</g>
<!-- Node3&#45;&gt;Node12 -->
<g id="edge7" class="edge">
<title>Node3&#45;&gt;Node12</title>
<path fill="none" stroke="midnightblue" d="M396.49,-527.41C412.99,-529.37 432.96,-531.75 451.94,-534.01"/>
<polygon fill="midnightblue" stroke="midnightblue" points="396.54,-523.89 386.2,-526.18 395.71,-530.84 396.54,-523.89"/>
</g>
<!-- Node13 -->
<g id="node9" class="node">
<title>Node13</title>
<g id="a_node9"><a xlink:href="classast_1_1_ast_data_reader_1_1_get_system_var.html" target="_top" xlink:title=" ">
<polygon fill="white" stroke="black" points="445,-494.5 445,-513.5 595,-513.5 595,-494.5 445,-494.5"/>
<text text-anchor="middle" x="520" y="-501.5" font-family="Helvetica,sans-Serif" font-size="10.00">AstDataReader.GetSystemVar</text>
</a>
</g>
</g>
<!-- Node3&#45;&gt;Node13 -->
<g id="edge8" class="edge">
<title>Node3&#45;&gt;Node13</title>
<path fill="none" stroke="midnightblue" d="M396.22,-518.63C410.7,-516.9 427.87,-514.86 444.72,-512.85"/>
<polygon fill="midnightblue" stroke="midnightblue" points="395.71,-515.16 386.2,-519.82 396.54,-522.11 395.71,-515.16"/>
</g>
<!-- Node14 -->
<g id="node10" class="node">
<title>Node14</title>
<g id="a_node10"><a xlink:href="classast_1_1_ast_data_reader_1_1_reader_get_elem.html" target="_top" xlink:title=" ">
<polygon fill="white" stroke="black" points="442,-456.5 442,-475.5 598,-475.5 598,-456.5 442,-456.5"/>
<text text-anchor="middle" x="520" y="-463.5" font-family="Helvetica,sans-Serif" font-size="10.00">AstDataReader.ReaderGetElem</text>
</a>
</g>
</g>
<!-- Node3&#45;&gt;Node14 -->
<g id="edge9" class="edge">
<title>Node3&#45;&gt;Node14</title>
<path fill="none" stroke="midnightblue" d="M386.95,-508.76C402.74,-500.98 423.14,-491.6 442,-485 452.27,-481.41 463.53,-478.22 474.2,-475.53"/>
<polygon fill="midnightblue" stroke="midnightblue" points="385.13,-505.76 377.76,-513.37 388.27,-512.02 385.13,-505.76"/>
</g>
<!-- Node15 -->
<g id="node11" class="node">
<title>Node15</title>
<g id="a_node11"><a xlink:href="classast_1_1_ast_data_wrapper.html" target="_top" xlink:title="Javaの基本型データの清書用の包み込みアトム">
<polygon fill="white" stroke="black" points="463.5,-418.5 463.5,-437.5 576.5,-437.5 576.5,-418.5 463.5,-418.5"/>
<text text-anchor="middle" x="520" y="-425.5" font-family="Helvetica,sans-Serif" font-size="10.00">AstDataWrapper&lt; T &gt;</text>
</a>
</g>
</g>
<!-- Node3&#45;&gt;Node15 -->
<g id="edge10" class="edge">
<title>Node3&#45;&gt;Node15</title>
<path fill="none" stroke="midnightblue" d="M373.58,-505.68C388.69,-488.26 414.29,-461.9 442,-447 449.16,-443.15 457.1,-440.07 465.1,-437.61"/>
<polygon fill="midnightblue" stroke="midnightblue" points="370.82,-503.53 367.04,-513.43 376.17,-508.05 370.82,-503.53"/>
</g>
<!-- Node16 -->
<g id="node12" class="node">
<title>Node16</title>
<g id="a_node12"><a xlink:href="classast_1_1_ast_literal.html" target="_top" xlink:title="値を返すことができる終端オブジェクトのクラス">
<polygon fill="white" stroke="black" points="491,-722.5 491,-741.5 549,-741.5 549,-722.5 491,-722.5"/>
<text text-anchor="middle" x="520" y="-729.5" font-family="Helvetica,sans-Serif" font-size="10.00">AstLiteral</text>
</a>
</g>
</g>
<!-- Node3&#45;&gt;Node16 -->
<g id="edge11" class="edge">
<title>Node3&#45;&gt;Node16</title>
<path fill="none" stroke="midnightblue" d="M362.22,-542.65C368.65,-581.39 388.5,-667.79 442,-713 455.57,-724.46 475.01,-729.2 490.97,-731.08"/>
<polygon fill="midnightblue" stroke="midnightblue" points="365.66,-542.01 360.69,-532.65 358.74,-543.07 365.66,-542.01"/>
</g>
<!-- Node23 -->
<g id="node17" class="node">
<title>Node23</title>
<g id="a_node17"><a xlink:href="classast_1_1_ast_node_tagged.html" target="_top" xlink:title="子それぞれにタグと型アイテムをもつ順序ノードAstNodeのサブクラス．利用者は自前で，追加する子のField名と型を設定する．読み出しは子の添字のみで行う．">
<polygon fill="white" stroke="black" points="477,-570.5 477,-589.5 563,-589.5 563,-570.5 477,-570.5"/>
<text text-anchor="middle" x="520" y="-577.5" font-family="Helvetica,sans-Serif" font-size="10.00">AstNodeTagged</text>
</a>
</g>
</g>
<!-- Node3&#45;&gt;Node23 -->
<g id="edge16" class="edge">
<title>Node3&#45;&gt;Node23</title>
<path fill="none" stroke="midnightblue" d="M395.51,-533.01C409.75,-539.18 426.4,-546.54 442,-552 463.05,-559.37 488.3,-565.02 503.99,-570.46"/>
<polygon fill="midnightblue" stroke="midnightblue" points="396.66,-529.69 386.09,-528.97 393.9,-536.13 396.66,-529.69"/>
</g>
<!-- Node3&#45;&gt;Node23 -->
<g id="edge19" class="edge">
<title>Node3&#45;&gt;Node23</title>
<path fill="none" stroke="midnightblue" d="M375.92,-538.54C392.3,-549.09 418.36,-561.72 442,-570 453.05,-573.87 465.25,-577.26 476.62,-579.74"/>
<polygon fill="midnightblue" stroke="midnightblue" points="377.68,-535.5 367.48,-532.62 373.66,-541.23 377.68,-535.5"/>
</g>
<!-- Node29 -->
<g id="node20" class="node">
<title>Node29</title>
<g id="a_node20"><a xlink:href="classast_1_1_ast_node_tagged_settable.html" target="_top" xlink:title="タグ付きの子をもつノードのクラス．利用者は自前で，追加する子のField名と，Getter，Setter，型を設定する．読み出しは子の添字でも行える．">
<polygon fill="white" stroke="black" points="459,-380.5 459,-399.5 581,-399.5 581,-380.5 459,-380.5"/>
<text text-anchor="middle" x="520" y="-387.5" font-family="Helvetica,sans-Serif" font-size="10.00">AstNodeTaggedSettable</text>
</a>
</g>
</g>
<!-- Node3&#45;&gt;Node29 -->
<g id="edge20" class="edge">
<title>Node3&#45;&gt;Node29</title>
<path fill="none" stroke="midnightblue" d="M368.05,-503.89C380.53,-478.24 406.21,-433.12 442,-409 447.71,-405.15 454.12,-402.08 460.75,-399.63"/>
<polygon fill="midnightblue" stroke="midnightblue" points="364.72,-502.74 363.65,-513.28 371.06,-505.71 364.72,-502.74"/>
</g>
<!-- Node34 -->
<g id="node23" class="node">
<title>Node34</title>
<g id="a_node23"><a xlink:href="classast_1_1_ast_node_unary.html" target="_top" xlink:title="ただ一つの子をもつノードのクラス。">
<polygon fill="white" stroke="black" points="479.5,-152.5 479.5,-171.5 560.5,-171.5 560.5,-152.5 479.5,-152.5"/>
<text text-anchor="middle" x="520" y="-159.5" font-family="Helvetica,sans-Serif" font-size="10.00">AstNodeUnary</text>
</a>
</g>
</g>
<!-- Node3&#45;&gt;Node34 -->
<g id="edge23" class="edge">
<title>Node3&#45;&gt;Node34</title>
<path fill="none" stroke="midnightblue" d="M361.6,-503.15C368.96,-437.3 395.67,-227.57 442,-181 451.81,-171.14 465.86,-166.1 479.29,-163.62"/>
<polygon fill="midnightblue" stroke="midnightblue" points="358.09,-503.07 360.48,-513.39 365.05,-503.83 358.09,-503.07"/>
</g>
<!-- Node45 -->
<g id="node28" class="node">
<title>Node45</title>
<g id="a_node28"><a xlink:href="classast_1_1_ast_oper.html" target="_top" xlink:title=" ">
<polygon fill="white" stroke="black" points="493.5,-342.5 493.5,-361.5 546.5,-361.5 546.5,-342.5 493.5,-342.5"/>
<text text-anchor="middle" x="520" y="-349.5" font-family="Helvetica,sans-Serif" font-size="10.00">AstOper</text>
</a>
</g>
</g>
<!-- Node3&#45;&gt;Node45 -->
<g id="edge28" class="edge">
<title>Node3&#45;&gt;Node45</title>
<path fill="none" stroke="midnightblue" d="M364.45,-503.71C373.83,-471.15 397.38,-405.47 442,-371 456.6,-359.72 477.01,-355.04 493.15,-353.15"/>
<polygon fill="midnightblue" stroke="midnightblue" points="361.06,-502.82 361.8,-513.39 367.82,-504.67 361.06,-502.82"/>
</g>
<!-- Node70 -->
<g id="node34" class="node">
<title>Node70</title>
<g id="a_node34"><a xlink:href="classast_1_1_ast_source_1_1_ast_instream_const.html" target="_top" xlink:title="入力ストリームを表すノードのクラス">
<polygon fill="white" stroke="black" points="447.5,-266.5 447.5,-285.5 592.5,-285.5 592.5,-266.5 447.5,-266.5"/>
<text text-anchor="middle" x="520" y="-273.5" font-family="Helvetica,sans-Serif" font-size="10.00">AstSource.AstInstreamConst</text>
</a>
</g>
</g>
<!-- Node3&#45;&gt;Node70 -->
<g id="edge34" class="edge">
<title>Node3&#45;&gt;Node70</title>
<path fill="none" stroke="midnightblue" d="M360.6,-503.49C364.19,-459.38 379.25,-351.47 442,-295 446.3,-291.13 451.26,-288.02 456.55,-285.52"/>
<polygon fill="midnightblue" stroke="midnightblue" points="357.11,-503.26 359.9,-513.48 364.09,-503.75 357.11,-503.26"/>
</g>
<!-- Node71 -->
<g id="node35" class="node">
<title>Node71</title>
<g id="a_node35"><a xlink:href="classast_1_1_ast_tag.html" target="_top" xlink:title=" ">
<polygon fill="white" stroke="black" points="496.5,-228.5 496.5,-247.5 543.5,-247.5 543.5,-228.5 496.5,-228.5"/>
<text text-anchor="middle" x="520" y="-235.5" font-family="Helvetica,sans-Serif" font-size="10.00">AstTag</text>
</a>
</g>
</g>
<!-- Node3&#45;&gt;Node71 -->
<g id="edge35" class="edge">
<title>Node3&#45;&gt;Node71</title>
<path fill="none" stroke="midnightblue" d="M359.44,-503.01C360.44,-453.57 370.19,-324.71 442,-257 456.53,-243.3 479.3,-239.03 496.32,-237.89"/>
<polygon fill="midnightblue" stroke="midnightblue" points="355.94,-503.26 359.34,-513.29 362.94,-503.33 355.94,-503.26"/>
</g>
<!-- Node72 -->
<g id="node36" class="node">
<title>Node72</title>
<g id="a_node36"><a xlink:href="classast_1_1_ast_var.html" target="_top" xlink:title=" ">
<polygon fill="white" stroke="black" points="497,-190.5 497,-209.5 543,-209.5 543,-190.5 497,-190.5"/>
<text text-anchor="middle" x="520" y="-197.5" font-family="Helvetica,sans-Serif" font-size="10.00">AstVar</text>
</a>
</g>
</g>
<!-- Node3&#45;&gt;Node72 -->
<g id="edge36" class="edge">
<title>Node3&#45;&gt;Node72</title>
<path fill="none" stroke="midnightblue" d="M362.26,-503.01C371.08,-441.95 400.48,-259.57 442,-219 456.48,-204.85 479.72,-200.69 496.88,-199.71"/>
<polygon fill="midnightblue" stroke="midnightblue" points="358.75,-502.84 360.81,-513.23 365.68,-503.82 358.75,-502.84"/>
</g>
<!-- Node73 -->
<g id="node37" class="node">
<title>Node73</title>
<g id="a_node37"><a xlink:href="classast_1_1_ast_var_decl.html" target="_top" xlink:title="値の読み出しオブジェクト．">
<polygon fill="white" stroke="black" points="487,-836.5 487,-855.5 553,-855.5 553,-836.5 487,-836.5"/>
<text text-anchor="middle" x="520" y="-843.5" font-family="Helvetica,sans-Serif" font-size="10.00">AstVarDecl</text>
</a>
</g>
</g>
<!-- Node3&#45;&gt;Node73 -->
<g id="edge37" class="edge">
<title>Node3&#45;&gt;Node73</title>
<path fill="none" stroke="midnightblue" d="M362.26,-542.99C371.08,-604.05 400.48,-786.43 442,-827 453.82,-838.55 471.47,-843.44 486.9,-845.39"/>
<polygon fill="midnightblue" stroke="midnightblue" points="365.68,-542.18 360.81,-532.77 358.75,-543.16 365.68,-542.18"/>
</g>
<!-- Node74 -->
<g id="node38" class="node">
<title>Node74</title>
<g id="a_node38"><a xlink:href="classast_1_1_path.html" target="_top" xlink:title=" ">
<polygon fill="white" stroke="black" points="501.5,-798.5 501.5,-817.5 538.5,-817.5 538.5,-798.5 501.5,-798.5"/>
<text text-anchor="middle" x="520" y="-805.5" font-family="Helvetica,sans-Serif" font-size="10.00">Path</text>
</a>
</g>
</g>
<!-- Node3&#45;&gt;Node74 -->
<g id="edge38" class="edge">
<title>Node3&#45;&gt;Node74</title>
<path fill="none" stroke="midnightblue" d="M359.56,-542.74C361.07,-590.97 372.3,-714.29 442,-780 458.03,-795.11 484.1,-798.76 501.4,-801.56"/>
<polygon fill="midnightblue" stroke="midnightblue" points="363.05,-542.58 359.35,-532.66 356.06,-542.72 363.05,-542.58"/>
</g>
<!-- Node3&#45;&gt;Node74 -->
<g id="edge39" class="edge">
<title>Node3&#45;&gt;Node74</title>
<path fill="none" stroke="midnightblue" d="M359.38,-542.87C359.92,-593.8 368.08,-728.3 442,-798 458.03,-813.11 484.1,-816.76 501.4,-815.17"/>
<polygon fill="midnightblue" stroke="midnightblue" points="362.88,-542.55 359.36,-532.56 355.88,-542.56 362.88,-542.55"/>
</g>
<!-- Node75 -->
<g id="node39" class="node">
<title>Node75</title>
<g id="a_node39"><a xlink:href="classast_1_1_sent_list.html" target="_top" xlink:title="文Sentenceのリスト.">
<polygon fill="white" stroke="black" points="493.5,-874.5 493.5,-893.5 546.5,-893.5 546.5,-874.5 493.5,-874.5"/>
<text text-anchor="middle" x="520" y="-881.5" font-family="Helvetica,sans-Serif" font-size="10.00">SentList</text>
</a>
</g>
</g>
<!-- Node3&#45;&gt;Node75 -->
<g id="edge40" class="edge">
<title>Node3&#45;&gt;Node75</title>
<path fill="none" stroke="midnightblue" d="M361.6,-542.85C368.96,-608.7 395.67,-818.43 442,-865 455.3,-878.37 476.42,-882.87 493.18,-884.17"/>
<polygon fill="midnightblue" stroke="midnightblue" points="365.05,-542.17 360.48,-532.61 358.09,-542.93 365.05,-542.17"/>
</g>
<!-- Node77 -->
<g id="node41" class="node">
<title>Node77</title>
<g id="a_node41"><a xlink:href="classmachine_1_1_ref.html" target="_top" xlink:title="フレーム中の変数参照オブジェクトref = (XType type, int vid)">
<polygon fill="white" stroke="black" points="504,-684.5 504,-703.5 536,-703.5 536,-684.5 504,-684.5"/>
<text text-anchor="middle" x="520" y="-691.5" font-family="Helvetica,sans-Serif" font-size="10.00">Ref</text>
</a>
</g>
</g>
<!-- Node3&#45;&gt;Node77 -->
<g id="edge42" class="edge">
<title>Node3&#45;&gt;Node77</title>
<path fill="none" stroke="midnightblue" d="M366.34,-542.6C376.81,-573.81 400.13,-633.65 442,-666 460.09,-679.97 487.09,-683.81 503.85,-687.24"/>
<polygon fill="midnightblue" stroke="midnightblue" points="369.59,-541.26 363.17,-532.84 362.93,-543.43 369.59,-541.26"/>
</g>
<!-- Node3&#45;&gt;Node77 -->
<g id="edge43" class="edge">
<title>Node3&#45;&gt;Node77</title>
<path fill="none" stroke="midnightblue" d="M363.2,-542.79C371.64,-577.53 395.26,-647.89 442,-684 460.09,-697.97 487.09,-701.81 503.85,-700.33"/>
<polygon fill="midnightblue" stroke="midnightblue" points="366.58,-541.85 360.99,-532.85 359.75,-543.37 366.58,-541.85"/>
</g>
<!-- Node78 -->
<g id="node42" class="node">
<title>Node78</title>
<g id="a_node42"><a xlink:href="classmachine_1_1_var_key.html" target="_top" xlink:title="フレーム中の変数参照オブジェクトref = (XType type, int vid)">
<polygon fill="white" stroke="black" points="496,-304.5 496,-323.5 544,-323.5 544,-304.5 496,-304.5"/>
<text text-anchor="middle" x="520" y="-311.5" font-family="Helvetica,sans-Serif" font-size="10.00">VarKey</text>
</a>
</g>
</g>
<!-- Node3&#45;&gt;Node78 -->
<g id="edge44" class="edge">
<title>Node3&#45;&gt;Node78</title>
<path fill="none" stroke="midnightblue" d="M362.22,-503.35C368.65,-464.61 388.5,-378.21 442,-333 456.93,-320.38 478.99,-315.92 495.68,-314.44"/>
<polygon fill="midnightblue" stroke="midnightblue" points="358.74,-502.93 360.69,-513.35 365.66,-503.99 358.74,-502.93"/>
</g>
<!-- Node7 -->
<g id="node7" class="node">
<title>Node7</title>
<g id="a_node7"><a xlink:href="classast_1_1_ast_data_reader_1_1_reader_type.html" target="_top" xlink:title="フレームスタックから参照が示す値を読み出すクラス">
<polygon fill="white" stroke="red" points="648,-798.5 648,-817.5 787,-817.5 787,-798.5 648,-798.5"/>
<text text-anchor="middle" x="717.5" y="-805.5" font-family="Helvetica,sans-Serif" font-size="10.00">AstDataReader.ReaderType</text>
</a>
</g>
</g>
<!-- Node6&#45;&gt;Node7 -->
<g id="edge6" class="edge">
<title>Node6&#45;&gt;Node7</title>
<path fill="none" stroke="midnightblue" d="M572.53,-780.02C601.92,-785.73 638.54,-792.85 667.5,-798.48"/>
<polygon fill="midnightblue" stroke="midnightblue" points="572.94,-776.53 562.46,-778.06 571.61,-783.4 572.94,-776.53"/>
</g>
<!-- Node17 -->
<g id="node13" class="node">
<title>Node17</title>
<g id="a_node13"><a xlink:href="classast_1_1_ast_literal_1_1_boolean_literal.html" target="_top" xlink:title="ダミーの生成子．このクラス自身は直接生成されない．部分クラスからのみ生成される">
<polygon fill="white" stroke="black" points="656.5,-722.5 656.5,-741.5 778.5,-741.5 778.5,-722.5 656.5,-722.5"/>
<text text-anchor="middle" x="717.5" y="-729.5" font-family="Helvetica,sans-Serif" font-size="10.00">AstLiteral.BooleanLiteral</text>
</a>
</g>
</g>
<!-- Node16&#45;&gt;Node17 -->
<g id="edge12" class="edge">
<title>Node16&#45;&gt;Node17</title>
<path fill="none" stroke="midnightblue" d="M559.06,-732C586.67,-732 624.59,-732 656.3,-732"/>
<polygon fill="midnightblue" stroke="midnightblue" points="559.01,-728.5 549.01,-732 559.01,-735.5 559.01,-728.5"/>
</g>
<!-- Node18 -->
<g id="node14" class="node">
<title>Node18</title>
<g id="a_node14"><a xlink:href="classast_1_1_ast_literal_1_1_double_literal.html" target="_top" xlink:title="Double値アトム">
<polygon fill="white" stroke="black" points="658.5,-684.5 658.5,-703.5 776.5,-703.5 776.5,-684.5 658.5,-684.5"/>
<text text-anchor="middle" x="717.5" y="-691.5" font-family="Helvetica,sans-Serif" font-size="10.00">AstLiteral.DoubleLiteral</text>
</a>
</g>
</g>
<!-- Node16&#45;&gt;Node18 -->
<g id="edge13" class="edge">
<title>Node16&#45;&gt;Node18</title>
<path fill="none" stroke="midnightblue" d="M558.97,-724.62C589.89,-718.61 633.78,-710.08 667.38,-703.55"/>
<polygon fill="midnightblue" stroke="midnightblue" points="558.16,-721.21 549.01,-726.56 559.49,-728.08 558.16,-721.21"/>
</g>
<!-- Node19 -->
<g id="node15" class="node">
<title>Node19</title>
<g id="a_node15"><a xlink:href="classast_1_1_ast_literal_1_1_integer_literal.html" target="_top" xlink:title="Integer値アトム">
<polygon fill="white" stroke="black" points="659,-646.5 659,-665.5 776,-665.5 776,-646.5 659,-646.5"/>
<text text-anchor="middle" x="717.5" y="-653.5" font-family="Helvetica,sans-Serif" font-size="10.00">AstLiteral.IntegerLiteral</text>
</a>
</g>
</g>
<!-- Node16&#45;&gt;Node19 -->
<g id="edge14" class="edge">
<title>Node16&#45;&gt;Node19</title>
<path fill="none" stroke="midnightblue" d="M559.21,-727.03C572.14,-724.22 586.26,-719.83 598,-713 618.11,-701.3 613.8,-686.55 634,-675 641.66,-670.62 650.25,-667.25 658.93,-664.66"/>
<polygon fill="midnightblue" stroke="midnightblue" points="558.33,-723.64 549.17,-728.97 559.65,-730.51 558.33,-723.64"/>
</g>
<!-- Node20 -->
<g id="node16" class="node">
<title>Node20</title>
<g id="a_node16"><a xlink:href="classast_1_1_ast_literal_1_1_string_expr.html" target="_top" xlink:title="String値アトム">
<polygon fill="white" stroke="red" points="664,-760.5 664,-779.5 771,-779.5 771,-760.5 664,-760.5"/>
<text text-anchor="middle" x="717.5" y="-767.5" font-family="Helvetica,sans-Serif" font-size="10.00">AstLiteral.StringExpr</text>
</a>
</g>
</g>
<!-- Node16&#45;&gt;Node20 -->
<g id="edge15" class="edge">
<title>Node16&#45;&gt;Node20</title>
<path fill="none" stroke="midnightblue" d="M558.97,-739.38C589.89,-745.39 633.78,-753.92 667.38,-760.45"/>
<polygon fill="midnightblue" stroke="midnightblue" points="559.49,-735.92 549.01,-737.44 558.16,-742.79 559.49,-735.92"/>
</g>
<!-- Node24 -->
<g id="node18" class="node">
<title>Node24</title>
<g id="a_node18"><a xlink:href="classast_1_1_block_base.html" target="_top" xlink:title="抽象構文木のステップ式のクラス.">
<polygon fill="white" stroke="red" points="685.5,-551.5 685.5,-570.5 749.5,-570.5 749.5,-551.5 685.5,-551.5"/>
<text text-anchor="middle" x="717.5" y="-558.5" font-family="Helvetica,sans-Serif" font-size="10.00">BlockBase</text>
</a>
</g>
</g>
<!-- Node23&#45;&gt;Node24 -->
<g id="edge17" class="edge">
<title>Node23&#45;&gt;Node24</title>
<path fill="none" stroke="midnightblue" d="M573.67,-574.88C609.38,-571.41 655.36,-566.94 685.37,-564.03"/>
<polygon fill="midnightblue" stroke="midnightblue" points="573.04,-571.43 563.42,-575.88 573.71,-578.39 573.04,-571.43"/>
</g>
<!-- Node28 -->
<g id="node19" class="node">
<title>Node28</title>
<g id="a_node19"><a xlink:href="classast_1_1_program.html" target="_top" xlink:title="ルールの集合からなるコンパイル済みのプログラム.">
<polygon fill="white" stroke="black" points="691,-589.5 691,-608.5 744,-608.5 744,-589.5 691,-589.5"/>
<text text-anchor="middle" x="717.5" y="-596.5" font-family="Helvetica,sans-Serif" font-size="10.00">Program</text>
</a>
</g>
</g>
<!-- Node23&#45;&gt;Node28 -->
<g id="edge18" class="edge">
<title>Node23&#45;&gt;Node28</title>
<path fill="none" stroke="midnightblue" d="M573.8,-585.13C611.77,-588.82 661.31,-593.64 690.91,-596.51"/>
<polygon fill="midnightblue" stroke="midnightblue" points="573.71,-581.61 563.42,-584.12 573.04,-588.57 573.71,-581.61"/>
</g>
<!-- Node30 -->
<g id="node21" class="node">
<title>Node30</title>
<g id="a_node21"><a xlink:href="classast_1_1_ast_oper_tagged.html" target="_top" xlink:title=" ">
<polygon fill="white" stroke="red" points="675.5,-418.5 675.5,-437.5 759.5,-437.5 759.5,-418.5 675.5,-418.5"/>
<text text-anchor="middle" x="717.5" y="-425.5" font-family="Helvetica,sans-Serif" font-size="10.00">AstOperTagged</text>
</a>
</g>
</g>
<!-- Node29&#45;&gt;Node30 -->
<g id="edge21" class="edge">
<title>Node29&#45;&gt;Node30</title>
<path fill="none" stroke="midnightblue" d="M580.25,-401.52C610.97,-407.49 647.74,-414.63 675.33,-420"/>
<polygon fill="midnightblue" stroke="midnightblue" points="580.56,-398.01 570.08,-399.54 579.23,-404.88 580.56,-398.01"/>
</g>
<!-- Node33 -->
<g id="node22" class="node">
<title>Node33</title>
<g id="a_node22"><a xlink:href="classast_1_1_ast_scan_from.html" target="_top" xlink:title=" ">
<polygon fill="white" stroke="black" points="679,-456.5 679,-475.5 756,-475.5 756,-456.5 679,-456.5"/>
<text text-anchor="middle" x="717.5" y="-463.5" font-family="Helvetica,sans-Serif" font-size="10.00">AstScanFrom</text>
</a>
</g>
</g>
<!-- Node29&#45;&gt;Node33 -->
<g id="edge22" class="edge">
<title>Node29&#45;&gt;Node33</title>
<path fill="none" stroke="midnightblue" d="M585.8,-403.03C590.04,-404.78 594.15,-406.76 598,-409 618.11,-420.7 613.8,-435.45 634,-447 647.53,-454.73 663.99,-459.32 678.65,-462.04"/>
<polygon fill="midnightblue" stroke="midnightblue" points="586.95,-399.73 576.36,-399.57 584.54,-406.3 586.95,-399.73"/>
</g>
<!-- Node35 -->
<g id="node24" class="node">
<title>Node35</title>
<g id="a_node24"><a xlink:href="classast_1_1_ast_converter.html" target="_top" xlink:title="値の変換のクラス。AstConv&lt;S,T&gt;の単なるラッパー">
<polygon fill="white" stroke="red" points="680.5,-190.5 680.5,-209.5 754.5,-209.5 754.5,-190.5 680.5,-190.5"/>
<text text-anchor="middle" x="717.5" y="-197.5" font-family="Helvetica,sans-Serif" font-size="10.00">AstConverter</text>
</a>
</g>
</g>
<!-- Node34&#45;&gt;Node35 -->
<g id="edge24" class="edge">
<title>Node34&#45;&gt;Node35</title>
<path fill="none" stroke="midnightblue" d="M570.8,-171.68C604.96,-178.32 649.5,-186.98 680.29,-192.96"/>
<polygon fill="midnightblue" stroke="midnightblue" points="571.05,-168.16 560.56,-169.69 569.71,-175.03 571.05,-168.16"/>
</g>
<!-- Node37 -->
<g id="node25" class="node">
<title>Node37</title>
<g id="a_node25"><a xlink:href="classast_1_1_ast_data_reader_1_1_ast_var_reader_new.html" target="_top" xlink:title="ブール型の値をもつ参照読み出し">
<polygon fill="white" stroke="black" points="634,-152.5 634,-171.5 801,-171.5 801,-152.5 634,-152.5"/>
<text text-anchor="middle" x="717.5" y="-159.5" font-family="Helvetica,sans-Serif" font-size="10.00">AstDataReader.AstVarReaderNew</text>
</a>
</g>
</g>
<!-- Node34&#45;&gt;Node37 -->
<g id="edge25" class="edge">
<title>Node34&#45;&gt;Node37</title>
<path fill="none" stroke="midnightblue" d="M570.57,-162C589.77,-162 612.28,-162 633.8,-162"/>
<polygon fill="midnightblue" stroke="midnightblue" points="570.56,-158.5 560.56,-162 570.56,-165.5 570.56,-158.5"/>
</g>
<!-- Node38 -->
<g id="node26" class="node">
<title>Node38</title>
<g id="a_node26"><a xlink:href="classast_1_1_ast_data_writer.html" target="_top" xlink:title="局所変数環境からの値を書き込むクラス">
<polygon fill="white" stroke="red" points="678.5,-76.5 678.5,-95.5 756.5,-95.5 756.5,-76.5 678.5,-76.5"/>
<text text-anchor="middle" x="717.5" y="-83.5" font-family="Helvetica,sans-Serif" font-size="10.00">AstDataWriter</text>
</a>
</g>
</g>
<!-- Node34&#45;&gt;Node38 -->
<g id="edge26" class="edge">
<title>Node34&#45;&gt;Node38</title>
<path fill="none" stroke="midnightblue" d="M570.52,-150.11C579.96,-146.87 589.53,-142.87 598,-138 616.81,-127.18 614.79,-115.1 634,-105 647.53,-97.89 663.68,-93.42 678.09,-90.62"/>
<polygon fill="midnightblue" stroke="midnightblue" points="569.24,-146.84 560.77,-153.22 571.36,-153.51 569.24,-146.84"/>
</g>
<!-- Node44 -->
<g id="node27" class="node">
<title>Node44</title>
<g id="a_node27"><a xlink:href="classast_1_1_ast_source_1_1_ast_in_file_open.html" target="_top" xlink:title="入力ストリームを表すノードのクラス">
<polygon fill="white" stroke="black" points="653.5,-114.5 653.5,-133.5 781.5,-133.5 781.5,-114.5 653.5,-114.5"/>
<text text-anchor="middle" x="717.5" y="-121.5" font-family="Helvetica,sans-Serif" font-size="10.00">AstSource.AstInFileOpen</text>
</a>
</g>
</g>
<!-- Node34&#45;&gt;Node44 -->
<g id="edge27" class="edge">
<title>Node34&#45;&gt;Node44</title>
<path fill="none" stroke="midnightblue" d="M570.68,-152.34C600.3,-146.59 637.75,-139.31 667.28,-133.57"/>
<polygon fill="midnightblue" stroke="midnightblue" points="569.71,-148.97 560.56,-154.31 571.05,-155.84 569.71,-148.97"/>
</g>
<!-- Node46 -->
<g id="node29" class="node">
<title>Node46</title>
<g id="a_node29"><a xlink:href="classast_1_1_ast_func_call.html" target="_top" xlink:title=" ">
<polygon fill="white" stroke="black" points="682,-304.5 682,-323.5 753,-323.5 753,-304.5 682,-304.5"/>
<text text-anchor="middle" x="717.5" y="-311.5" font-family="Helvetica,sans-Serif" font-size="10.00">AstFuncCall</text>
</a>
</g>
</g>
<!-- Node45&#45;&gt;Node46 -->
<g id="edge29" class="edge">
<title>Node45&#45;&gt;Node46</title>
<path fill="none" stroke="midnightblue" d="M556.5,-345.1C592.04,-338.19 646.4,-327.63 681.7,-320.76"/>
<polygon fill="midnightblue" stroke="midnightblue" points="555.71,-341.69 546.56,-347.03 557.04,-348.56 555.71,-341.69"/>
</g>
<!-- Node47 -->
<g id="node30" class="node">
<title>Node47</title>
<g id="a_node30"><a xlink:href="classast_1_1_ast_math_oper.html" target="_top" xlink:title="値を返すことができるノードのクラス．一般に1個以上の子をもつ演算子である．">
<polygon fill="white" stroke="red" points="680.5,-266.5 680.5,-285.5 754.5,-285.5 754.5,-266.5 680.5,-266.5"/>
<text text-anchor="middle" x="717.5" y="-273.5" font-family="Helvetica,sans-Serif" font-size="10.00">AstMathOper</text>
</a>
</g>
</g>
<!-- Node45&#45;&gt;Node47 -->
<g id="edge30" class="edge">
<title>Node45&#45;&gt;Node47</title>
<path fill="none" stroke="midnightblue" d="M556.65,-347.57C570.25,-344.79 585.48,-340.29 598,-333 618.11,-321.3 613.8,-306.55 634,-295 648.04,-286.98 665.24,-282.34 680.3,-279.66"/>
<polygon fill="midnightblue" stroke="midnightblue" points="555.86,-344.16 546.64,-349.38 557.1,-351.05 555.86,-344.16"/>
</g>
<!-- Node61 -->
<g id="node31" class="node">
<title>Node61</title>
<g id="a_node31"><a xlink:title=" ">
<polygon fill="white" stroke="#bfbfbf" points="683.5,-228.5 683.5,-247.5 751.5,-247.5 751.5,-228.5 683.5,-228.5"/>
<text text-anchor="middle" x="717.5" y="-235.5" font-family="Helvetica,sans-Serif" font-size="10.00">AstRelOper</text>
</a>
</g>
</g>
<!-- Node45&#45;&gt;Node61 -->
<g id="edge31" class="edge">
<title>Node45&#45;&gt;Node61</title>
<path fill="none" stroke="midnightblue" d="M556.66,-349.77C570.8,-347.32 586.42,-342.47 598,-333 626.94,-309.35 604.88,-280.43 634,-257 647.86,-245.85 667.05,-241 683.43,-238.98"/>
<polygon fill="midnightblue" stroke="midnightblue" points="556.12,-346.31 546.7,-351.16 557.09,-353.24 556.12,-346.31"/>
</g>
<!-- Node68 -->
<g id="node32" class="node">
<title>Node68</title>
<g id="a_node32"><a xlink:href="classast_1_1_ast_return.html" target="_top" xlink:title="リターン式のクラス．値を返すことができる．">
<polygon fill="white" stroke="black" points="687,-380.5 687,-399.5 748,-399.5 748,-380.5 687,-380.5"/>
<text text-anchor="middle" x="717.5" y="-387.5" font-family="Helvetica,sans-Serif" font-size="10.00">AstReturn</text>
</a>
</g>
</g>
<!-- Node45&#45;&gt;Node68 -->
<g id="edge32" class="edge">
<title>Node45&#45;&gt;Node68</title>
<path fill="none" stroke="midnightblue" d="M556.49,-358.9C593.79,-366.15 651.81,-377.43 686.78,-384.22"/>
<polygon fill="midnightblue" stroke="midnightblue" points="557.04,-355.44 546.56,-356.97 555.71,-362.31 557.04,-355.44"/>
</g>
<!-- Node69 -->
<g id="node33" class="node">
<title>Node69</title>
<g id="a_node33"><a xlink:href="classast_1_1_ast_template.html" target="_top" xlink:title=" ">
<polygon fill="white" stroke="black" points="682,-342.5 682,-361.5 753,-361.5 753,-342.5 682,-342.5"/>
<text text-anchor="middle" x="717.5" y="-349.5" font-family="Helvetica,sans-Serif" font-size="10.00">AstTemplate</text>
</a>
</g>
</g>
<!-- Node45&#45;&gt;Node69 -->
<g id="edge33" class="edge">
<title>Node45&#45;&gt;Node69</title>
<path fill="none" stroke="midnightblue" d="M556.96,-352C592.51,-352 646.55,-352 681.7,-352"/>
<polygon fill="midnightblue" stroke="midnightblue" points="556.56,-348.5 546.56,-352 556.56,-355.5 556.56,-348.5"/>
</g>
<!-- Node76 -->
<g id="node40" class="node">
<title>Node76</title>
<g id="a_node40"><a xlink:href="classast_1_1_sent_list_1_1_list_wrapper.html" target="_top" xlink:title="Javaの基本型データの清書用の包み込みアトム">
<polygon fill="white" stroke="black" points="652,-874.5 652,-893.5 783,-893.5 783,-874.5 652,-874.5"/>
<text text-anchor="middle" x="717.5" y="-881.5" font-family="Helvetica,sans-Serif" font-size="10.00">SentList.ListWrapper&lt; T &gt;</text>
</a>
</g>
</g>
<!-- Node75&#45;&gt;Node76 -->
<g id="edge41" class="edge">
<title>Node75&#45;&gt;Node76</title>
<path fill="none" stroke="midnightblue" d="M556.89,-884C583.4,-884 620.23,-884 651.82,-884"/>
<polygon fill="midnightblue" stroke="midnightblue" points="556.56,-880.5 546.56,-884 556.56,-887.5 556.56,-880.5"/>
</g>
<!-- Node81&#45;&gt;Node34 -->
<g id="edge49" class="edge">
<title>Node81&#45;&gt;Node34</title>
<path fill="none" stroke="midnightblue" d="M389,-100.06C421.02,-115.31 471.25,-139.25 498.96,-152.45"/>
<polygon fill="midnightblue" stroke="midnightblue" points="390.23,-96.77 379.7,-95.63 387.22,-103.09 390.23,-96.77"/>
</g>
<!-- Node81&#45;&gt;Node38 -->
<g id="edge48" class="edge">
<title>Node81&#45;&gt;Node38</title>
<path fill="none" stroke="midnightblue" d="M415.12,-86C488.36,-86 615.25,-86 678.45,-86"/>
<polygon fill="midnightblue" stroke="midnightblue" points="414.71,-82.5 404.71,-86 414.71,-89.5 414.71,-82.5"/>
</g>
<!-- Node83&#45;&gt;Node3 -->
<g id="edge53" class="edge">
<title>Node83&#45;&gt;Node3</title>
<path fill="none" stroke="midnightblue" d="M202.36,-143.13C217.24,-177.3 249.21,-251.17 275,-314 306.4,-390.51 342.37,-483.63 353.81,-513.38"/>
<polygon fill="midnightblue" stroke="midnightblue" points="205.52,-141.62 198.31,-133.85 199.1,-144.42 205.52,-141.62"/>
</g>
<!-- Node83&#45;&gt;Node38 -->
<g id="edge52" class="edge">
<title>Node83&#45;&gt;Node38</title>
<path fill="none" stroke="midnightblue" d="M268.22,-120.89C349.33,-117.19 483.06,-110.19 598,-100 624.93,-97.61 655.2,-94.02 678.4,-91.07"/>
<polygon fill="midnightblue" stroke="midnightblue" points="267.94,-117.4 258.11,-121.35 268.26,-124.39 267.94,-117.4"/>
</g>
<!-- Node84&#45;&gt;Node3 -->
<g id="edge55" class="edge">
<title>Node84&#45;&gt;Node3</title>
<path fill="none" stroke="midnightblue" d="M209.12,-350.57C242.72,-389.62 322.73,-482.59 348.99,-513.11"/>
<polygon fill="midnightblue" stroke="midnightblue" points="211.51,-347.98 202.33,-342.68 206.2,-352.55 211.51,-347.98"/>
</g>
</g>
</svg>
