<?xml version="1.0" encoding="UTF-8" standalone="no"?>
<!DOCTYPE svg PUBLIC "-//W3C//DTD SVG 1.1//EN"
 "http://www.w3.org/Graphics/SVG/1.1/DTD/svg11.dtd">
<!-- Generated by graphviz version 2.38.0 (20140413.2041)
 -->
<!-- Title: Stackable Pages: 1 -->
<svg width="428pt" height="92pt"
 viewBox="0.00 0.00 428.24 92.00" xmlns="http://www.w3.org/2000/svg" xmlns:xlink="http://www.w3.org/1999/xlink">
<g id="graph0" class="graph" transform="scale(1 1) rotate(0) translate(4 88)">
<title>Stackable</title>
<polygon fill="white" stroke="none" points="-4,4 -4,-88 424.236,-88 424.236,4 -4,4"/>
<!-- Node1 -->
<g id="node1" class="node"><title>Node1</title>
<g id="a_node1"><a xlink:title="レベル付きスタックを実装するための最小限のインタフェース">
<polygon fill="#bfbfbf" stroke="black" points="195.88,-65.5 195.88,-83.5 255.796,-83.5 255.796,-65.5 195.88,-65.5"/>
<text text-anchor="middle" x="225.838" y="-71.5" font-family="Helvetica,sans-Serif" font-size="10.00">Stackable</text>
</a>
</g>
</g>
<!-- Node2 -->
<g id="node2" class="node"><title>Node2</title>
<g id="a_node2"><a xlink:href="classframe_1_1_auto_stack_uni.html" target="_top" xlink:title="セルのオブジェクトを再利用可能なスタックの実装.">
<polygon fill="white" stroke="black" points="0,-0.5 0,-28.5 129.677,-28.5 129.677,-0.5 0,-0.5"/>
<text text-anchor="start" x="8" y="-16.5" font-family="Helvetica,sans-Serif" font-size="10.00">AutoStackUni&lt; S extends</text>
<text text-anchor="middle" x="64.8384" y="-6.5" font-family="Helvetica,sans-Serif" font-size="10.00"> Container &gt;</text>
</a>
</g>
</g>
<!-- Node1&#45;&gt;Node2 -->
<g id="edge1" class="edge"><title>Node1&#45;&gt;Node2</title>
<path fill="none" stroke="midnightblue" d="M193.789,-61.9542C167.001,-52.3039 128.815,-38.5475 100.951,-28.5096"/>
<polygon fill="midnightblue" stroke="midnightblue" points="192.858,-65.3389 203.452,-65.4353 195.23,-58.7532 192.858,-65.3389"/>
</g>
<!-- Node3 -->
<g id="node3" class="node"><title>Node3</title>
<g id="a_node3"><a xlink:href="classframe_1_1_level_stack.html" target="_top" xlink:title="レベル付きスタックのクラス。">
<polygon fill="white" stroke="black" points="147.38,-5.5 147.38,-23.5 212.296,-23.5 212.296,-5.5 147.38,-5.5"/>
<text text-anchor="middle" x="179.838" y="-11.5" font-family="Helvetica,sans-Serif" font-size="10.00">LevelStack</text>
</a>
</g>
</g>
<!-- Node1&#45;&gt;Node3 -->
<g id="edge2" class="edge"><title>Node1&#45;&gt;Node3</title>
<path fill="none" stroke="midnightblue" d="M213.165,-57.5211C204.526,-46.6278 193.433,-32.641 186.478,-23.8718"/>
<polygon fill="midnightblue" stroke="midnightblue" points="210.486,-59.7752 219.442,-65.4353 215.971,-55.4255 210.486,-59.7752"/>
</g>
<!-- Node4 -->
<g id="node4" class="node"><title>Node4</title>
<g id="a_node4"><a xlink:href="classutil_1_1_auto_stack.html" target="_top" xlink:title="セルのオブジェクトを再利用可能なスタックの実装.">
<polygon fill="white" stroke="black" points="230.095,-5.5 230.095,-23.5 315.582,-23.5 315.582,-5.5 230.095,-5.5"/>
<text text-anchor="middle" x="272.838" y="-11.5" font-family="Helvetica,sans-Serif" font-size="10.00">AutoStack&lt; S &gt;</text>
</a>
</g>
</g>
<!-- Node1&#45;&gt;Node4 -->
<g id="edge3" class="edge"><title>Node1&#45;&gt;Node4</title>
<path fill="none" stroke="midnightblue" d="M238.787,-57.5211C247.614,-46.6278 258.948,-32.641 266.054,-23.8718"/>
<polygon fill="midnightblue" stroke="midnightblue" points="235.95,-55.4624 232.374,-65.4353 241.389,-59.8696 235.95,-55.4624"/>
</g>
<!-- Node5 -->
<g id="node5" class="node"><title>Node5</title>
<g id="a_node5"><a xlink:href="classutil_1_1_stack_base.html" target="_top" xlink:title="型 T の要素を保持する汎用型のスタックの基本実装.">
<polygon fill="white" stroke="black" points="333.44,-5.5 333.44,-23.5 420.236,-23.5 420.236,-5.5 333.44,-5.5"/>
<text text-anchor="middle" x="376.838" y="-11.5" font-family="Helvetica,sans-Serif" font-size="10.00">StackBase&lt; T &gt;</text>
</a>
</g>
</g>
<!-- Node1&#45;&gt;Node5 -->
<g id="edge4" class="edge"><title>Node1&#45;&gt;Node5</title>
<path fill="none" stroke="midnightblue" d="M256.223,-61.8289C285.684,-50.5129 329.617,-33.6381 355.534,-23.6831"/>
<polygon fill="midnightblue" stroke="midnightblue" points="254.914,-58.5824 246.834,-65.4353 257.424,-65.1169 254.914,-58.5824"/>
</g>
</g>
</svg>
