<?xml version="1.0" encoding="UTF-8" standalone="no"?>
<!DOCTYPE svg PUBLIC "-//W3C//DTD SVG 1.1//EN"
 "http://www.w3.org/Graphics/SVG/1.1/DTD/svg11.dtd">
<!-- Generated by graphviz version 2.47.0 (20210316.0004)
 -->
<!-- Title: Assignable Pages: 1 -->
<svg width="169pt" height="84pt"
 viewBox="0.00 0.00 168.50 84.00" xmlns="http://www.w3.org/2000/svg" xmlns:xlink="http://www.w3.org/1999/xlink">
<g id="graph0" class="graph" transform="scale(1 1) rotate(0) translate(4 80)">
<title>Assignable</title>
<polygon fill="white" stroke="transparent" points="-4,4 -4,-80 164.5,-80 164.5,4 -4,4"/>
<!-- Node1 -->
<g id="node1" class="node">
<title>Node1</title>
<g id="a_node1"><a xlink:title="変数（チャネルとコンテナの名前）の抽象化">
<polygon fill="#bfbfbf" stroke="black" points="46,-56.5 46,-75.5 111,-75.5 111,-56.5 46,-56.5"/>
<text text-anchor="middle" x="78.5" y="-63.5" font-family="Helvetica,sans-Serif" font-size="10.00">Assignable</text>
</a>
</g>
</g>
<!-- Node2 -->
<g id="node2" class="node">
<title>Node2</title>
<g id="a_node2"><a xlink:href="classmachine_1_1_o_s_var.html" target="_top" xlink:title="フレーム中の変数参照オブジェクトref = (XType type, int vid)">
<polygon fill="white" stroke="black" points="0,-0.5 0,-19.5 45,-19.5 45,-0.5 0,-0.5"/>
<text text-anchor="middle" x="22.5" y="-7.5" font-family="Helvetica,sans-Serif" font-size="10.00">OSVar</text>
</a>
</g>
</g>
<!-- Node1&#45;&gt;Node2 -->
<g id="edge1" class="edge">
<title>Node1&#45;&gt;Node2</title>
<path fill="none" stroke="midnightblue" d="M62.17,-49.25C52.24,-39.67 39.91,-27.79 31.66,-19.83"/>
<polygon fill="midnightblue" stroke="midnightblue" points="59.87,-51.9 69.5,-56.32 64.73,-46.86 59.87,-51.9"/>
</g>
<!-- Node3 -->
<g id="node3" class="node">
<title>Node3</title>
<g id="a_node3"><a xlink:href="classmachine_1_1_var.html" target="_top" xlink:title="フレーム中の変数参照オブジェクトref = (XType type, int vid)">
<polygon fill="white" stroke="black" points="63,-0.5 63,-19.5 94,-19.5 94,-0.5 63,-0.5"/>
<text text-anchor="middle" x="78.5" y="-7.5" font-family="Helvetica,sans-Serif" font-size="10.00">Var</text>
</a>
</g>
</g>
<!-- Node1&#45;&gt;Node3 -->
<g id="edge2" class="edge">
<title>Node1&#45;&gt;Node3</title>
<path fill="none" stroke="midnightblue" d="M72.03,-46.1C71.4,-37.14 71.84,-26.86 73.37,-19.75"/>
<polygon fill="midnightblue" stroke="midnightblue" points="68.57,-46.62 73.33,-56.08 75.51,-45.71 68.57,-46.62"/>
</g>
<!-- Node1&#45;&gt;Node3 -->
<g id="edge3" class="edge">
<title>Node1&#45;&gt;Node3</title>
<path fill="none" stroke="midnightblue" d="M84.97,-46.1C85.6,-37.14 85.16,-26.86 83.63,-19.75"/>
<polygon fill="midnightblue" stroke="midnightblue" points="81.49,-45.71 83.67,-56.08 88.43,-46.62 81.49,-45.71"/>
</g>
<!-- Node4 -->
<g id="node4" class="node">
<title>Node4</title>
<g id="a_node4"><a xlink:href="classmachine_1_1_var_key.html" target="_top" xlink:title="フレーム中の変数参照オブジェクトref = (XType type, int vid)">
<polygon fill="white" stroke="black" points="112.5,-0.5 112.5,-19.5 160.5,-19.5 160.5,-0.5 112.5,-0.5"/>
<text text-anchor="middle" x="136.5" y="-7.5" font-family="Helvetica,sans-Serif" font-size="10.00">VarKey</text>
</a>
</g>
</g>
<!-- Node1&#45;&gt;Node4 -->
<g id="edge4" class="edge">
<title>Node1&#45;&gt;Node4</title>
<path fill="none" stroke="midnightblue" d="M95.41,-49.25C105.7,-39.67 118.47,-27.79 127.01,-19.83"/>
<polygon fill="midnightblue" stroke="midnightblue" points="92.75,-46.95 87.82,-56.32 97.52,-52.07 92.75,-46.95"/>
</g>
</g>
</svg>
