<?xml version="1.0" encoding="UTF-8" standalone="no"?>
<!DOCTYPE svg PUBLIC "-//W3C//DTD SVG 1.1//EN"
 "http://www.w3.org/Graphics/SVG/1.1/DTD/svg11.dtd">
<!-- Generated by graphviz version 2.38.0 (20140413.2041)
 -->
<!-- Title: RunnableRule Pages: 1 -->
<svg width="236pt" height="82pt"
 viewBox="0.00 0.00 235.94 82.00" xmlns="http://www.w3.org/2000/svg" xmlns:xlink="http://www.w3.org/1999/xlink">
<g id="graph0" class="graph" transform="scale(1 1) rotate(0) translate(4 78)">
<title>RunnableRule</title>
<polygon fill="white" stroke="none" points="-4,4 -4,-78 231.943,-78 231.943,4 -4,4"/>
<!-- Node1 -->
<g id="node1" class="node"><title>Node1</title>
<g id="a_node1"><a xlink:title="実行可能ルールのインタフェース.">
<polygon fill="#bfbfbf" stroke="black" points="49.8794,-55.5 49.8794,-73.5 129.258,-73.5 129.258,-55.5 49.8794,-55.5"/>
<text text-anchor="middle" x="89.5688" y="-61.5" font-family="Helvetica,sans-Serif" font-size="10.00">RunnableRule</text>
</a>
</g>
</g>
<!-- Node2 -->
<g id="node2" class="node"><title>Node2</title>
<g id="a_node2"><a xlink:href="classast_1_1_step_rule.html" target="_top" xlink:title="XMで実行可能（RunnableRule）な計算単位であるルールを表すオブジェクト.">
<polygon fill="white" stroke="black" points="0,-0.5 0,-18.5 57.1377,-18.5 57.1377,-0.5 0,-0.5"/>
<text text-anchor="middle" x="28.5688" y="-6.5" font-family="Helvetica,sans-Serif" font-size="10.00">StepRule</text>
</a>
</g>
</g>
<!-- Node1&#45;&gt;Node2 -->
<g id="edge1" class="edge"><title>Node1&#45;&gt;Node2</title>
<path fill="none" stroke="midnightblue" d="M72.4667,-48.6408C61.2787,-38.9201 47.089,-26.5913 37.9206,-18.6253"/>
<polygon fill="midnightblue" stroke="midnightblue" points="70.46,-51.5337 80.3043,-55.4504 75.0511,-46.2496 70.46,-51.5337"/>
</g>
<!-- Node3 -->
<g id="node3" class="node"><title>Node3</title>
<g id="a_node3"><a xlink:href="interfacemachine_1_1_runnable_rule_1_1_compilable_rule.html" target="_top" xlink:title="実行可能ルールのインタフェース.">
<polygon fill="white" stroke="black" points="75.1948,-0.5 75.1948,-18.5 227.943,-18.5 227.943,-0.5 75.1948,-0.5"/>
<text text-anchor="middle" x="151.569" y="-6.5" font-family="Helvetica,sans-Serif" font-size="10.00">RunnableRule.CompilableRule</text>
</a>
</g>
</g>
<!-- Node1&#45;&gt;Node3 -->
<g id="edge2" class="edge"><title>Node1&#45;&gt;Node3</title>
<path fill="none" stroke="midnightblue" d="M106.618,-48.9259C118.039,-39.1622 132.654,-26.6693 142.064,-18.6253"/>
<polygon fill="midnightblue" stroke="midnightblue" points="104.312,-46.2922 98.9853,-55.4504 108.861,-51.613 104.312,-46.2922"/>
</g>
</g>
</svg>
