<?xml version="1.0" encoding="UTF-8" standalone="no"?>
<!DOCTYPE svg PUBLIC "-//W3C//DTD SVG 1.1//EN"
 "http://www.w3.org/Graphics/SVG/1.1/DTD/svg11.dtd">
<!-- Generated by graphviz version 2.47.1 (20210417.1919)
 -->
<!-- Title: Node.NodeUnary Pages: 1 -->
<svg width="768pt" height="237pt"
 viewBox="0.00 0.00 768.00 237.00" xmlns="http://www.w3.org/2000/svg" xmlns:xlink="http://www.w3.org/1999/xlink">
<g id="graph0" class="graph" transform="scale(1 1) rotate(0) translate(4 233)">
<title>Node.NodeUnary</title>
<polygon fill="white" stroke="transparent" points="-4,4 -4,-233 764,-233 764,4 -4,4"/>
<!-- Node1 -->
<g id="node1" class="node">
<title>Node1</title>
<g id="a_node1"><a xlink:title="子供を一つだけもつノードのインタフェース">
<polygon fill="#bfbfbf" stroke="black" points="187,-95.5 187,-114.5 279,-114.5 279,-95.5 187,-95.5"/>
<text text-anchor="middle" x="233" y="-102.5" font-family="Helvetica,sans-Serif" font-size="10.00">Node.NodeUnary</text>
</a>
</g>
</g>
<!-- Node4 -->
<g id="node4" class="node">
<title>Node4</title>
<g id="a_node4"><a xlink:href="classast_1_1_ast_data_writer.html" target="_top" xlink:title="局所変数環境からの値を書き込むクラス">
<polygon fill="white" stroke="black" points="466.5,-114.5 466.5,-133.5 544.5,-133.5 544.5,-114.5 466.5,-114.5"/>
<text text-anchor="middle" x="505.5" y="-121.5" font-family="Helvetica,sans-Serif" font-size="10.00">AstDataWriter</text>
</a>
</g>
</g>
<!-- Node1&#45;&gt;Node4 -->
<g id="edge3" class="edge">
<title>Node1&#45;&gt;Node4</title>
<path fill="none" stroke="midnightblue" d="M289.46,-108.9C342.13,-112.6 419.93,-118.06 466.09,-121.3"/>
<polygon fill="midnightblue" stroke="midnightblue" points="289.5,-105.39 279.28,-108.18 289.01,-112.37 289.5,-105.39"/>
</g>
<!-- Node10 -->
<g id="node10" class="node">
<title>Node10</title>
<g id="a_node10"><a xlink:href="classast_1_1_ast_node_unary.html" target="_top" xlink:title="ただ一つの子をもつノードのクラス。">
<polygon fill="white" stroke="black" points="315,-76.5 315,-95.5 396,-95.5 396,-76.5 315,-76.5"/>
<text text-anchor="middle" x="355.5" y="-83.5" font-family="Helvetica,sans-Serif" font-size="10.00">AstNodeUnary</text>
</a>
</g>
</g>
<!-- Node1&#45;&gt;Node10 -->
<g id="edge9" class="edge">
<title>Node1&#45;&gt;Node10</title>
<path fill="none" stroke="midnightblue" d="M289.28,-96.28C297.95,-94.92 306.75,-93.53 314.97,-92.23"/>
<polygon fill="midnightblue" stroke="midnightblue" points="288.55,-92.86 279.21,-97.87 289.64,-99.77 288.55,-92.86"/>
</g>
<!-- Node2 -->
<g id="node2" class="node">
<title>Node2</title>
<g id="a_node2"><a xlink:href="interfaceast_1_1_node.html" target="_top" xlink:title=" ">
<polygon fill="white" stroke="black" points="111,-95.5 111,-114.5 151,-114.5 151,-95.5 111,-95.5"/>
<text text-anchor="middle" x="131" y="-102.5" font-family="Helvetica,sans-Serif" font-size="10.00">Node</text>
</a>
</g>
</g>
<!-- Node2&#45;&gt;Node1 -->
<g id="edge1" class="edge">
<title>Node2&#45;&gt;Node1</title>
<path fill="none" stroke="midnightblue" d="M161.46,-105C169.37,-105 178.11,-105 186.66,-105"/>
<polygon fill="midnightblue" stroke="midnightblue" points="161.28,-101.5 151.28,-105 161.28,-108.5 161.28,-101.5"/>
</g>
<!-- Node3 -->
<g id="node3" class="node">
<title>Node3</title>
<g id="a_node3"><a xlink:href="interfaceformat_1_1_x_formattable.html" target="_top" xlink:title="入れ子フォーマット出力可能なオブジェクトのインタフェース。">
<polygon fill="white" stroke="black" points="0,-95.5 0,-114.5 75,-114.5 75,-95.5 0,-95.5"/>
<text text-anchor="middle" x="37.5" y="-102.5" font-family="Helvetica,sans-Serif" font-size="10.00">XFormattable</text>
</a>
</g>
</g>
<!-- Node3&#45;&gt;Node2 -->
<g id="edge2" class="edge">
<title>Node3&#45;&gt;Node2</title>
<path fill="none" stroke="midnightblue" d="M85.35,-105C94.39,-105 103.38,-105 110.89,-105"/>
<polygon fill="midnightblue" stroke="midnightblue" points="85.19,-101.5 75.19,-105 85.19,-108.5 85.19,-101.5"/>
</g>
<!-- Node5 -->
<g id="node5" class="node">
<title>Node5</title>
<g id="a_node5"><a xlink:href="classast_1_1_ast_data_writer_1_1_writer_boolean.html" target="_top" xlink:title="ブール型の値をもつ局所変数">
<polygon fill="white" stroke="black" points="617,-209.5 617,-228.5 758,-228.5 758,-209.5 617,-209.5"/>
<text text-anchor="middle" x="687.5" y="-216.5" font-family="Helvetica,sans-Serif" font-size="10.00">AstDataWriter.WriterBoolean</text>
</a>
</g>
</g>
<!-- Node4&#45;&gt;Node5 -->
<g id="edge4" class="edge">
<title>Node4&#45;&gt;Node5</title>
<path fill="none" stroke="midnightblue" d="M525.08,-140.12C545.74,-157.26 580.73,-184.06 615,-200 623.15,-203.79 632.19,-206.93 641.02,-209.49"/>
<polygon fill="midnightblue" stroke="midnightblue" points="527.3,-137.41 517.4,-133.63 522.79,-142.76 527.3,-137.41"/>
</g>
<!-- Node6 -->
<g id="node6" class="node">
<title>Node6</title>
<g id="a_node6"><a xlink:href="classast_1_1_ast_data_writer_1_1_writer_double.html" target="_top" xlink:title="Double型の値をもつ局所変数">
<polygon fill="white" stroke="black" points="619,-171.5 619,-190.5 756,-190.5 756,-171.5 619,-171.5"/>
<text text-anchor="middle" x="687.5" y="-178.5" font-family="Helvetica,sans-Serif" font-size="10.00">AstDataWriter.WriterDouble</text>
</a>
</g>
</g>
<!-- Node4&#45;&gt;Node6 -->
<g id="edge5" class="edge">
<title>Node4&#45;&gt;Node6</title>
<path fill="none" stroke="midnightblue" d="M541.7,-137.1C562.82,-144.77 590.3,-154.4 615,-162 625.8,-165.32 637.63,-168.61 648.5,-171.48"/>
<polygon fill="midnightblue" stroke="midnightblue" points="542.78,-133.77 532.18,-133.62 540.37,-140.34 542.78,-133.77"/>
</g>
<!-- Node7 -->
<g id="node7" class="node">
<title>Node7</title>
<g id="a_node7"><a xlink:href="classast_1_1_ast_data_writer_1_1_writer_integer.html" target="_top" xlink:title="Integer型の値をもつ局所変数">
<polygon fill="white" stroke="black" points="619.5,-133.5 619.5,-152.5 755.5,-152.5 755.5,-133.5 619.5,-133.5"/>
<text text-anchor="middle" x="687.5" y="-140.5" font-family="Helvetica,sans-Serif" font-size="10.00">AstDataWriter.WriterInteger</text>
</a>
</g>
</g>
<!-- Node4&#45;&gt;Node7 -->
<g id="edge6" class="edge">
<title>Node4&#45;&gt;Node7</title>
<path fill="none" stroke="midnightblue" d="M554.7,-129.09C574.53,-131.18 597.84,-133.64 619.3,-135.91"/>
<polygon fill="midnightblue" stroke="midnightblue" points="554.99,-125.6 544.67,-128.03 554.25,-132.56 554.99,-125.6"/>
</g>
<!-- Node8 -->
<g id="node8" class="node">
<title>Node8</title>
<g id="a_node8"><a xlink:href="classast_1_1_ast_data_writer_1_1_writer_o_stream.html" target="_top" xlink:title="String型の値をもつ局所変数">
<polygon fill="white" stroke="black" points="615,-95.5 615,-114.5 760,-114.5 760,-95.5 615,-95.5"/>
<text text-anchor="middle" x="687.5" y="-102.5" font-family="Helvetica,sans-Serif" font-size="10.00">AstDataWriter.WriterOStream</text>
</a>
</g>
</g>
<!-- Node4&#45;&gt;Node8 -->
<g id="edge7" class="edge">
<title>Node4&#45;&gt;Node8</title>
<path fill="none" stroke="midnightblue" d="M554.62,-118.92C573.14,-116.97 594.7,-114.69 614.96,-112.55"/>
<polygon fill="midnightblue" stroke="midnightblue" points="554.25,-115.44 544.67,-119.97 554.99,-122.4 554.25,-115.44"/>
</g>
<!-- Node9 -->
<g id="node9" class="node">
<title>Node9</title>
<g id="a_node9"><a xlink:href="classast_1_1_ast_data_writer_1_1_writer_string.html" target="_top" xlink:title="String型の値をもつ局所変数">
<polygon fill="white" stroke="black" points="622,-57.5 622,-76.5 753,-76.5 753,-57.5 622,-57.5"/>
<text text-anchor="middle" x="687.5" y="-64.5" font-family="Helvetica,sans-Serif" font-size="10.00">AstDataWriter.WriterString</text>
</a>
</g>
</g>
<!-- Node4&#45;&gt;Node9 -->
<g id="edge8" class="edge">
<title>Node4&#45;&gt;Node9</title>
<path fill="none" stroke="midnightblue" d="M554.31,-113.14C562.65,-110.77 571.16,-108.05 579,-105 595.86,-98.44 598.15,-92.59 615,-86 624.21,-82.4 634.35,-79.25 644.02,-76.6"/>
<polygon fill="midnightblue" stroke="midnightblue" points="553.39,-109.76 544.65,-115.75 555.22,-116.52 553.39,-109.76"/>
</g>
<!-- Node10&#45;&gt;Node4 -->
<g id="edge13" class="edge">
<title>Node10&#45;&gt;Node4</title>
<path fill="none" stroke="midnightblue" d="M403.67,-98.11C424.29,-103.4 448.11,-109.52 467.42,-114.48"/>
<polygon fill="midnightblue" stroke="midnightblue" points="404.4,-94.69 393.85,-95.59 402.66,-101.47 404.4,-94.69"/>
</g>
<!-- Node11 -->
<g id="node11" class="node">
<title>Node11</title>
<g id="a_node11"><a xlink:href="classast_1_1_ast_converter.html" target="_top" xlink:title="値の変換のクラス。AstConv&lt;S,T&gt;の単なるラッパー">
<polygon fill="white" stroke="black" points="468.5,-76.5 468.5,-95.5 542.5,-95.5 542.5,-76.5 468.5,-76.5"/>
<text text-anchor="middle" x="505.5" y="-83.5" font-family="Helvetica,sans-Serif" font-size="10.00">AstConverter</text>
</a>
</g>
</g>
<!-- Node10&#45;&gt;Node11 -->
<g id="edge10" class="edge">
<title>Node10&#45;&gt;Node11</title>
<path fill="none" stroke="midnightblue" d="M406.19,-86C426.52,-86 449.59,-86 468.28,-86"/>
<polygon fill="midnightblue" stroke="midnightblue" points="406.16,-82.5 396.16,-86 406.16,-89.5 406.16,-82.5"/>
</g>
<!-- Node13 -->
<g id="node13" class="node">
<title>Node13</title>
<g id="a_node13"><a xlink:href="classast_1_1_ast_data_reader_1_1_ast_var_reader.html" target="_top" xlink:title="ブール型の値をもつ参照読み出し">
<polygon fill="white" stroke="black" points="432,-38.5 432,-57.5 579,-57.5 579,-38.5 432,-38.5"/>
<text text-anchor="middle" x="505.5" y="-45.5" font-family="Helvetica,sans-Serif" font-size="10.00">AstDataReader.AstVarReader</text>
</a>
</g>
</g>
<!-- Node10&#45;&gt;Node13 -->
<g id="edge12" class="edge">
<title>Node10&#45;&gt;Node13</title>
<path fill="none" stroke="midnightblue" d="M403.67,-73.89C424.29,-68.6 448.11,-62.48 467.42,-57.52"/>
<polygon fill="midnightblue" stroke="midnightblue" points="402.66,-70.53 393.85,-76.41 404.4,-77.31 402.66,-70.53"/>
</g>
<!-- Node14 -->
<g id="node14" class="node">
<title>Node14</title>
<g id="a_node14"><a xlink:href="classast_1_1_ast_source_1_1_ast_in_file_open.html" target="_top" xlink:title="入力ストリームを表すノードのクラス">
<polygon fill="white" stroke="black" points="441.5,-0.5 441.5,-19.5 569.5,-19.5 569.5,-0.5 441.5,-0.5"/>
<text text-anchor="middle" x="505.5" y="-7.5" font-family="Helvetica,sans-Serif" font-size="10.00">AstSource.AstInFileOpen</text>
</a>
</g>
</g>
<!-- Node10&#45;&gt;Node14 -->
<g id="edge14" class="edge">
<title>Node10&#45;&gt;Node14</title>
<path fill="none" stroke="midnightblue" d="M374.05,-69.56C388.57,-56.79 410.26,-39.54 432,-29 439.84,-25.2 448.55,-22.08 457.13,-19.56"/>
<polygon fill="midnightblue" stroke="midnightblue" points="371.47,-67.18 366.39,-76.47 376.16,-72.37 371.47,-67.18"/>
</g>
<!-- Node12 -->
<g id="node12" class="node">
<title>Node12</title>
<g id="a_node12"><a xlink:href="classast_1_1_ast_converter_1_1_ast_conv.html" target="_top" xlink:title="S型の値をT型の値に変換するアダプタ">
<polygon fill="white" stroke="black" points="630,-8 630,-38 745,-38 745,-8 630,-8"/>
<text text-anchor="start" x="638" y="-26" font-family="Helvetica,sans-Serif" font-size="10.00">AstConverter.AstConv</text>
<text text-anchor="middle" x="687.5" y="-15" font-family="Helvetica,sans-Serif" font-size="10.00">&lt; S, T &gt;</text>
</a>
</g>
</g>
<!-- Node11&#45;&gt;Node12 -->
<g id="edge11" class="edge">
<title>Node11&#45;&gt;Node12</title>
<path fill="none" stroke="midnightblue" d="M552.64,-75.61C561.5,-73.14 570.63,-70.26 579,-67 595.86,-60.44 598.41,-55.23 615,-48 623.08,-44.48 631.82,-41.09 640.34,-38"/>
<polygon fill="midnightblue" stroke="midnightblue" points="551.55,-72.27 542.79,-78.22 553.35,-79.04 551.55,-72.27"/>
</g>
</g>
</svg>
