<?xml version="1.0" encoding="UTF-8" standalone="no"?>
<!DOCTYPE svg PUBLIC "-//W3C//DTD SVG 1.1//EN"
 "http://www.w3.org/Graphics/SVG/1.1/DTD/svg11.dtd">
<!-- Generated by graphviz version 2.47.1 (20210417.1919)
 -->
<!-- Title: Node Pages: 1 -->
<svg width="839pt" height="876pt"
 viewBox="0.00 0.00 839.00 876.00" xmlns="http://www.w3.org/2000/svg" xmlns:xlink="http://www.w3.org/1999/xlink">
<g id="graph0" class="graph" transform="scale(1 1) rotate(0) translate(4 872)">
<title>Node</title>
<polygon fill="white" stroke="transparent" points="-4,4 -4,-872 835,-872 835,4 -4,4"/>
<!-- Node1 -->
<g id="node1" class="node">
<title>Node1</title>
<g id="a_node1"><a xlink:title=" ">
<polygon fill="#bfbfbf" stroke="black" points="111,-314.5 111,-333.5 151,-333.5 151,-314.5 111,-314.5"/>
<text text-anchor="middle" x="131" y="-321.5" font-family="Helvetica,sans-Serif" font-size="10.00">Node</text>
</a>
</g>
</g>
<!-- Node3 -->
<g id="node3" class="node">
<title>Node3</title>
<g id="a_node3"><a xlink:href="classast_1_1_ast_node.html" target="_top" xlink:title="タグなしの順アクセスの子供をもてる抽象構文木のノードのクラス。">
<polygon fill="white" stroke="black" points="207,-487.5 207,-506.5 262,-506.5 262,-487.5 207,-487.5"/>
<text text-anchor="middle" x="234.5" y="-494.5" font-family="Helvetica,sans-Serif" font-size="10.00">AstNode</text>
</a>
</g>
</g>
<!-- Node1&#45;&gt;Node3 -->
<g id="edge2" class="edge">
<title>Node1&#45;&gt;Node3</title>
<path fill="none" stroke="midnightblue" d="M142.66,-342.17C164.02,-378.58 211.4,-459.34 227.79,-487.27"/>
<polygon fill="midnightblue" stroke="midnightblue" points="145.68,-340.4 137.6,-333.55 139.64,-343.94 145.68,-340.4"/>
</g>
<!-- Node73 -->
<g id="node58" class="node">
<title>Node73</title>
<g id="a_node58"><a xlink:href="interfaceast_1_1_node_1_1_data_reader.html" target="_top" xlink:title="データをメモリから読み込むノードのインタフェース．">
<polygon fill="white" stroke="black" points="187,-333.5 187,-352.5 282,-352.5 282,-333.5 187,-333.5"/>
<text text-anchor="middle" x="234.5" y="-340.5" font-family="Helvetica,sans-Serif" font-size="10.00">Node.DataReader</text>
</a>
</g>
</g>
<!-- Node1&#45;&gt;Node73 -->
<g id="edge59" class="edge">
<title>Node1&#45;&gt;Node73</title>
<path fill="none" stroke="midnightblue" d="M161.02,-329.43C169.03,-330.93 177.93,-332.6 186.67,-334.23"/>
<polygon fill="midnightblue" stroke="midnightblue" points="161.56,-325.97 151.09,-327.57 160.28,-332.85 161.56,-325.97"/>
</g>
<!-- Node74 -->
<g id="node59" class="node">
<title>Node74</title>
<g id="a_node59"><a xlink:href="interfaceast_1_1_node_1_1_data_writer.html" target="_top" xlink:title="データをメモリに書き出すノードのインタフェース．単なるマーカー．">
<polygon fill="white" stroke="black" points="190,-295.5 190,-314.5 279,-314.5 279,-295.5 190,-295.5"/>
<text text-anchor="middle" x="234.5" y="-302.5" font-family="Helvetica,sans-Serif" font-size="10.00">Node.DataWriter</text>
</a>
</g>
</g>
<!-- Node1&#45;&gt;Node74 -->
<g id="edge60" class="edge">
<title>Node1&#45;&gt;Node74</title>
<path fill="none" stroke="midnightblue" d="M160.98,-318.57C169.92,-316.9 179.96,-315.02 189.66,-313.21"/>
<polygon fill="midnightblue" stroke="midnightblue" points="160.28,-315.15 151.09,-320.43 161.56,-322.03 160.28,-315.15"/>
</g>
<!-- Node75 -->
<g id="node60" class="node">
<title>Node75</title>
<g id="a_node60"><a xlink:href="interfaceast_1_1_node_1_1_node_unary.html" target="_top" xlink:title="子供を一つだけもつノードのインタフェース">
<polygon fill="white" stroke="black" points="188.5,-161.5 188.5,-180.5 280.5,-180.5 280.5,-161.5 188.5,-161.5"/>
<text text-anchor="middle" x="234.5" y="-168.5" font-family="Helvetica,sans-Serif" font-size="10.00">Node.NodeUnary</text>
</a>
</g>
</g>
<!-- Node1&#45;&gt;Node75 -->
<g id="edge61" class="edge">
<title>Node1&#45;&gt;Node75</title>
<path fill="none" stroke="midnightblue" d="M144.04,-305.85C165.71,-273.19 210.57,-205.57 227.15,-180.57"/>
<polygon fill="midnightblue" stroke="midnightblue" points="140.96,-304.16 138.35,-314.43 146.79,-308.03 140.96,-304.16"/>
</g>
<!-- Node2 -->
<g id="node2" class="node">
<title>Node2</title>
<g id="a_node2"><a xlink:href="interfaceformat_1_1_x_formattable.html" target="_top" xlink:title="入れ子フォーマット出力可能なオブジェクトのインタフェース。">
<polygon fill="white" stroke="black" points="0,-314.5 0,-333.5 75,-333.5 75,-314.5 0,-314.5"/>
<text text-anchor="middle" x="37.5" y="-321.5" font-family="Helvetica,sans-Serif" font-size="10.00">XFormattable</text>
</a>
</g>
</g>
<!-- Node2&#45;&gt;Node1 -->
<g id="edge1" class="edge">
<title>Node2&#45;&gt;Node1</title>
<path fill="none" stroke="midnightblue" d="M85.35,-324C94.39,-324 103.38,-324 110.89,-324"/>
<polygon fill="midnightblue" stroke="midnightblue" points="85.19,-320.5 75.19,-324 85.19,-327.5 85.19,-320.5"/>
</g>
<!-- Node4 -->
<g id="node4" class="node">
<title>Node4</title>
<g id="a_node4"><a xlink:href="classast_1_1_ast_break.html" target="_top" xlink:title="実行を強制中断させる演算．デバッグのブレークポイント設定に用いる．">
<polygon fill="white" stroke="black" points="364,-772.5 364,-791.5 421,-791.5 421,-772.5 364,-772.5"/>
<text text-anchor="middle" x="392.5" y="-779.5" font-family="Helvetica,sans-Serif" font-size="10.00">AstBreak</text>
</a>
</g>
</g>
<!-- Node3&#45;&gt;Node4 -->
<g id="edge3" class="edge">
<title>Node3&#45;&gt;Node4</title>
<path fill="none" stroke="midnightblue" d="M235.49,-516.94C236.6,-566.27 246.56,-694.9 318,-763 330.21,-774.64 348.59,-779.39 363.91,-781.23"/>
<polygon fill="midnightblue" stroke="midnightblue" points="238.99,-516.64 235.37,-506.68 231.99,-516.72 238.99,-516.64"/>
</g>
<!-- Node5 -->
<g id="node5" class="node">
<title>Node5</title>
<g id="a_node5"><a xlink:href="classast_1_1_ast_data_reader.html" target="_top" xlink:title="値の読み出しオブジェクト．">
<polygon fill="white" stroke="black" points="350.5,-734.5 350.5,-753.5 434.5,-753.5 434.5,-734.5 350.5,-734.5"/>
<text text-anchor="middle" x="392.5" y="-741.5" font-family="Helvetica,sans-Serif" font-size="10.00">AstDataReader</text>
</a>
</g>
</g>
<!-- Node3&#45;&gt;Node5 -->
<g id="edge4" class="edge">
<title>Node3&#45;&gt;Node5</title>
<path fill="none" stroke="midnightblue" d="M236.7,-517.07C240.46,-561.45 255.85,-668.45 318,-725 326.87,-733.07 338.72,-737.81 350.31,-740.56"/>
<polygon fill="midnightblue" stroke="midnightblue" points="240.18,-516.7 235.96,-506.98 233.2,-517.21 240.18,-516.7"/>
</g>
<!-- Node6 -->
<g id="node6" class="node">
<title>Node6</title>
<g id="a_node6"><a xlink:href="classast_1_1_ast_data_reader_1_1_ast_get_elem.html" target="_top" xlink:title=" ">
<polygon fill="white" stroke="black" points="322.5,-696.5 322.5,-715.5 462.5,-715.5 462.5,-696.5 322.5,-696.5"/>
<text text-anchor="middle" x="392.5" y="-703.5" font-family="Helvetica,sans-Serif" font-size="10.00">AstDataReader.AstGetElem</text>
</a>
</g>
</g>
<!-- Node3&#45;&gt;Node6 -->
<g id="edge5" class="edge">
<title>Node3&#45;&gt;Node6</title>
<path fill="none" stroke="midnightblue" d="M238.26,-516.6C244.77,-555.25 264.75,-641.5 318,-687 322.51,-690.85 327.7,-693.94 333.2,-696.41"/>
<polygon fill="midnightblue" stroke="midnightblue" points="241.71,-515.97 236.71,-506.63 234.79,-517.05 241.71,-515.97"/>
</g>
<!-- Node7 -->
<g id="node7" class="node">
<title>Node7</title>
<g id="a_node7"><a xlink:href="classast_1_1_ast_data_reader_1_1_ast_get_sys_var.html" target="_top" xlink:title=" ">
<polygon fill="white" stroke="black" points="318,-658.5 318,-677.5 467,-677.5 467,-658.5 318,-658.5"/>
<text text-anchor="middle" x="392.5" y="-665.5" font-family="Helvetica,sans-Serif" font-size="10.00">AstDataReader.AstGetSysVar</text>
</a>
</g>
</g>
<!-- Node3&#45;&gt;Node7 -->
<g id="edge6" class="edge">
<title>Node3&#45;&gt;Node7</title>
<path fill="none" stroke="midnightblue" d="M240.49,-516.24C249.93,-548.72 273.57,-614.29 318,-649 322.99,-652.89 328.68,-656 334.66,-658.47"/>
<polygon fill="midnightblue" stroke="midnightblue" points="243.86,-515.29 237.82,-506.58 237.11,-517.15 243.86,-515.29"/>
</g>
<!-- Node8 -->
<g id="node8" class="node">
<title>Node8</title>
<g id="a_node8"><a xlink:href="classast_1_1_ast_data_reader_1_1_ast_get_text.html" target="_top" xlink:title=" ">
<polygon fill="white" stroke="black" points="324.5,-620.5 324.5,-639.5 460.5,-639.5 460.5,-620.5 324.5,-620.5"/>
<text text-anchor="middle" x="392.5" y="-627.5" font-family="Helvetica,sans-Serif" font-size="10.00">AstDataReader.AstGetText</text>
</a>
</g>
</g>
<!-- Node3&#45;&gt;Node8 -->
<g id="edge7" class="edge">
<title>Node3&#45;&gt;Node8</title>
<path fill="none" stroke="midnightblue" d="M244.09,-516.05C256.61,-541.64 282.35,-586.68 318,-611 323.66,-614.86 330.06,-617.94 336.65,-620.39"/>
<polygon fill="midnightblue" stroke="midnightblue" points="247.1,-514.24 239.67,-506.69 240.77,-517.23 247.1,-514.24"/>
</g>
<!-- Node9 -->
<g id="node9" class="node">
<title>Node9</title>
<g id="a_node9"><a xlink:href="classast_1_1_ast_data_wrapper.html" target="_top" xlink:title="Javaの基本型データの清書用の包み込みアトム">
<polygon fill="white" stroke="black" points="336,-582.5 336,-601.5 449,-601.5 449,-582.5 336,-582.5"/>
<text text-anchor="middle" x="392.5" y="-589.5" font-family="Helvetica,sans-Serif" font-size="10.00">AstDataWrapper&lt; T &gt;</text>
</a>
</g>
</g>
<!-- Node3&#45;&gt;Node9 -->
<g id="edge8" class="edge">
<title>Node3&#45;&gt;Node9</title>
<path fill="none" stroke="midnightblue" d="M249.62,-514.25C264.76,-531.63 290.37,-557.95 318,-573 325.06,-576.85 332.93,-579.94 340.82,-582.42"/>
<polygon fill="midnightblue" stroke="midnightblue" points="252.2,-511.89 243.06,-506.53 246.87,-516.42 252.2,-511.89"/>
</g>
<!-- Node10 -->
<g id="node10" class="node">
<title>Node10</title>
<g id="a_node10"><a xlink:href="classast_1_1_ast_literal.html" target="_top" xlink:title="値を返すことができる終端オブジェクトのクラス">
<polygon fill="white" stroke="black" points="363.5,-544.5 363.5,-563.5 421.5,-563.5 421.5,-544.5 363.5,-544.5"/>
<text text-anchor="middle" x="392.5" y="-551.5" font-family="Helvetica,sans-Serif" font-size="10.00">AstLiteral</text>
</a>
</g>
</g>
<!-- Node3&#45;&gt;Node10 -->
<g id="edge9" class="edge">
<title>Node3&#45;&gt;Node10</title>
<path fill="none" stroke="midnightblue" d="M262.97,-511.16C278.78,-518.92 299.18,-528.29 318,-535 332.65,-540.22 349.41,-544.66 363.22,-547.94"/>
<polygon fill="midnightblue" stroke="midnightblue" points="264.29,-507.9 253.78,-506.57 261.17,-514.17 264.29,-507.9"/>
</g>
<!-- Node17 -->
<g id="node17" class="node">
<title>Node17</title>
<g id="a_node17"><a xlink:href="classast_1_1_ast_node_tagged.html" target="_top" xlink:title="子それぞれにタグと型アイテムをもつ順序ノードAstNodeのサブクラス．利用者は自前で，追加する子のField名と型を設定する．読み出しは子の添字のみで行う．">
<polygon fill="white" stroke="black" points="349.5,-506.5 349.5,-525.5 435.5,-525.5 435.5,-506.5 349.5,-506.5"/>
<text text-anchor="middle" x="392.5" y="-513.5" font-family="Helvetica,sans-Serif" font-size="10.00">AstNodeTagged</text>
</a>
</g>
</g>
<!-- Node3&#45;&gt;Node17 -->
<g id="edge16" class="edge">
<title>Node3&#45;&gt;Node17</title>
<path fill="none" stroke="midnightblue" d="M272.3,-495.65C298.65,-497.56 333.8,-501.92 359.1,-506.46"/>
<polygon fill="midnightblue" stroke="midnightblue" points="272.52,-492.16 262.32,-495.02 272.08,-499.14 272.52,-492.16"/>
</g>
<!-- Node3&#45;&gt;Node17 -->
<g id="edge21" class="edge">
<title>Node3&#45;&gt;Node17</title>
<path fill="none" stroke="midnightblue" d="M272.43,-507.34C295.56,-511.29 325.45,-515 349.49,-516.95"/>
<polygon fill="midnightblue" stroke="midnightblue" points="272.78,-503.84 262.32,-505.51 271.54,-510.73 272.78,-503.84"/>
</g>
<!-- Node23 -->
<g id="node22" class="node">
<title>Node23</title>
<g id="a_node22"><a xlink:href="classast_1_1_ast_node_tagged_settable.html" target="_top" xlink:title="タグ付きの子をもつノードのクラス．利用者は自前で，追加する子のField名と，Getter，Setter，型を設定する．読み出しは子の添字でも行える．">
<polygon fill="white" stroke="black" points="331.5,-468.5 331.5,-487.5 453.5,-487.5 453.5,-468.5 331.5,-468.5"/>
<text text-anchor="middle" x="392.5" y="-475.5" font-family="Helvetica,sans-Serif" font-size="10.00">AstNodeTaggedSettable</text>
</a>
</g>
</g>
<!-- Node3&#45;&gt;Node23 -->
<g id="edge22" class="edge">
<title>Node3&#45;&gt;Node23</title>
<path fill="none" stroke="midnightblue" d="M272.7,-492.47C290.26,-490.33 311.65,-487.73 331.42,-485.32"/>
<polygon fill="midnightblue" stroke="midnightblue" points="271.82,-489.05 262.32,-493.73 272.67,-496 271.82,-489.05"/>
</g>
<!-- Node28 -->
<g id="node27" class="node">
<title>Node28</title>
<g id="a_node27"><a xlink:href="classast_1_1_ast_node_unary.html" target="_top" xlink:title="ただ一つの子をもつノードのクラス。">
<polygon fill="white" stroke="black" points="352,-161.5 352,-180.5 433,-180.5 433,-161.5 352,-161.5"/>
<text text-anchor="middle" x="392.5" y="-168.5" font-family="Helvetica,sans-Serif" font-size="10.00">AstNodeUnary</text>
</a>
</g>
</g>
<!-- Node3&#45;&gt;Node28 -->
<g id="edge27" class="edge">
<title>Node3&#45;&gt;Node28</title>
<path fill="none" stroke="midnightblue" d="M242.9,-477.91C252.77,-451.96 270.34,-403.99 282,-362 302.54,-288 265.94,-249.46 318,-193 326.76,-183.5 339.43,-178.04 351.8,-174.93"/>
<polygon fill="midnightblue" stroke="midnightblue" points="239.61,-476.71 239.3,-487.3 246.15,-479.22 239.61,-476.71"/>
</g>
<!-- Node39 -->
<g id="node38" class="node">
<title>Node39</title>
<g id="a_node38"><a xlink:href="classast_1_1_ast_oper.html" target="_top" xlink:title=" ">
<polygon fill="white" stroke="black" points="366,-430.5 366,-449.5 419,-449.5 419,-430.5 366,-430.5"/>
<text text-anchor="middle" x="392.5" y="-437.5" font-family="Helvetica,sans-Serif" font-size="10.00">AstOper</text>
</a>
</g>
</g>
<!-- Node3&#45;&gt;Node39 -->
<g id="edge38" class="edge">
<title>Node3&#45;&gt;Node39</title>
<path fill="none" stroke="midnightblue" d="M262.97,-482.84C278.78,-475.08 299.18,-465.71 318,-459 333.64,-453.43 351.69,-448.74 365.99,-445.41"/>
<polygon fill="midnightblue" stroke="midnightblue" points="261.17,-479.83 253.78,-487.43 264.29,-486.1 261.17,-479.83"/>
</g>
<!-- Node64 -->
<g id="node49" class="node">
<title>Node64</title>
<g id="a_node49"><a xlink:href="classast_1_1_ast_source_1_1_ast_instream_const.html" target="_top" xlink:title="入力ストリームを表すノードのクラス">
<polygon fill="white" stroke="black" points="320,-392.5 320,-411.5 465,-411.5 465,-392.5 320,-392.5"/>
<text text-anchor="middle" x="392.5" y="-399.5" font-family="Helvetica,sans-Serif" font-size="10.00">AstSource.AstInstreamConst</text>
</a>
</g>
</g>
<!-- Node3&#45;&gt;Node64 -->
<g id="edge49" class="edge">
<title>Node3&#45;&gt;Node64</title>
<path fill="none" stroke="midnightblue" d="M249.62,-479.75C264.76,-462.37 290.37,-436.05 318,-421 325.06,-417.15 332.93,-414.06 340.82,-411.58"/>
<polygon fill="midnightblue" stroke="midnightblue" points="246.87,-477.58 243.06,-487.47 252.2,-482.11 246.87,-477.58"/>
</g>
<!-- Node65 -->
<g id="node50" class="node">
<title>Node65</title>
<g id="a_node50"><a xlink:href="classast_1_1_ast_tag.html" target="_top" xlink:title=" ">
<polygon fill="white" stroke="black" points="369,-354.5 369,-373.5 416,-373.5 416,-354.5 369,-354.5"/>
<text text-anchor="middle" x="392.5" y="-361.5" font-family="Helvetica,sans-Serif" font-size="10.00">AstTag</text>
</a>
</g>
</g>
<!-- Node3&#45;&gt;Node65 -->
<g id="edge50" class="edge">
<title>Node3&#45;&gt;Node65</title>
<path fill="none" stroke="midnightblue" d="M244.09,-477.95C256.61,-452.36 282.35,-407.32 318,-383 333.13,-372.68 353.5,-367.96 368.96,-365.81"/>
<polygon fill="midnightblue" stroke="midnightblue" points="240.77,-476.77 239.67,-487.31 247.1,-479.76 240.77,-476.77"/>
</g>
<!-- Node66 -->
<g id="node51" class="node">
<title>Node66</title>
<g id="a_node51"><a xlink:href="classast_1_1_ast_var.html" target="_top" xlink:title=" ">
<polygon fill="white" stroke="black" points="369.5,-316.5 369.5,-335.5 415.5,-335.5 415.5,-316.5 369.5,-316.5"/>
<text text-anchor="middle" x="392.5" y="-323.5" font-family="Helvetica,sans-Serif" font-size="10.00">AstVar</text>
</a>
</g>
</g>
<!-- Node3&#45;&gt;Node66 -->
<g id="edge51" class="edge">
<title>Node3&#45;&gt;Node66</title>
<path fill="none" stroke="midnightblue" d="M240.49,-477.76C249.93,-445.28 273.57,-379.71 318,-345 332.64,-333.56 353.45,-328.96 369.19,-327.13"/>
<polygon fill="midnightblue" stroke="midnightblue" points="237.11,-476.85 237.82,-487.42 243.86,-478.71 237.11,-476.85"/>
</g>
<!-- Node67 -->
<g id="node52" class="node">
<title>Node67</title>
<g id="a_node52"><a xlink:href="classast_1_1_ast_var_assign.html" target="_top" xlink:title="値の読み出しオブジェクト．">
<polygon fill="white" stroke="black" points="354.5,-278.5 354.5,-297.5 430.5,-297.5 430.5,-278.5 354.5,-278.5"/>
<text text-anchor="middle" x="392.5" y="-285.5" font-family="Helvetica,sans-Serif" font-size="10.00">AstVarAssign</text>
</a>
</g>
</g>
<!-- Node3&#45;&gt;Node67 -->
<g id="edge52" class="edge">
<title>Node3&#45;&gt;Node67</title>
<path fill="none" stroke="midnightblue" d="M241.49,-477.69C255.35,-434.19 290.53,-330.47 318,-307 328.12,-298.35 341.7,-293.57 354.42,-290.95"/>
<polygon fill="midnightblue" stroke="midnightblue" points="238.11,-476.78 238.44,-487.37 244.78,-478.88 238.11,-476.78"/>
</g>
<!-- Node68 -->
<g id="node53" class="node">
<title>Node68</title>
<g id="a_node53"><a xlink:href="classast_1_1_ast_var_decl.html" target="_top" xlink:title="値の読み出しオブジェクト．">
<polygon fill="white" stroke="black" points="359.5,-240.5 359.5,-259.5 425.5,-259.5 425.5,-240.5 359.5,-240.5"/>
<text text-anchor="middle" x="392.5" y="-247.5" font-family="Helvetica,sans-Serif" font-size="10.00">AstVarDecl</text>
</a>
</g>
</g>
<!-- Node3&#45;&gt;Node68 -->
<g id="edge53" class="edge">
<title>Node3&#45;&gt;Node68</title>
<path fill="none" stroke="midnightblue" d="M242.14,-477.92C261.02,-423.76 313.91,-272.72 318,-269 329.21,-258.8 345.18,-253.93 359.37,-251.66"/>
<polygon fill="midnightblue" stroke="midnightblue" points="238.82,-476.79 238.84,-487.39 245.43,-479.1 238.82,-476.79"/>
</g>
<!-- Node69 -->
<g id="node54" class="node">
<title>Node69</title>
<g id="a_node54"><a xlink:href="classast_1_1_path.html" target="_top" xlink:title=" ">
<polygon fill="white" stroke="black" points="374,-202.5 374,-221.5 411,-221.5 411,-202.5 374,-202.5"/>
<text text-anchor="middle" x="392.5" y="-209.5" font-family="Helvetica,sans-Serif" font-size="10.00">Path</text>
</a>
</g>
</g>
<!-- Node3&#45;&gt;Node69 -->
<g id="edge54" class="edge">
<title>Node3&#45;&gt;Node69</title>
<path fill="none" stroke="midnightblue" d="M240.68,-477.49C249.6,-449.48 268.23,-397.53 282,-353 299.84,-295.32 274.98,-264.37 318,-222 332.84,-207.39 357.36,-203.57 373.96,-204.91"/>
<polygon fill="midnightblue" stroke="midnightblue" points="237.26,-476.72 237.67,-487.31 243.95,-478.77 237.26,-476.72"/>
</g>
<!-- Node3&#45;&gt;Node69 -->
<g id="edge55" class="edge">
<title>Node3&#45;&gt;Node69</title>
<path fill="none" stroke="midnightblue" d="M244.93,-477.94C254.69,-453.17 270.14,-409.34 282,-371 299.84,-313.32 274.98,-282.37 318,-240 332.84,-225.39 357.36,-221.57 373.96,-218.68"/>
<polygon fill="midnightblue" stroke="midnightblue" points="241.64,-476.74 241.12,-487.32 248.12,-479.37 241.64,-476.74"/>
</g>
<!-- Node70 -->
<g id="node55" class="node">
<title>Node70</title>
<g id="a_node55"><a xlink:href="classast_1_1_sent_list.html" target="_top" xlink:title="文Sentenceのリスト.">
<polygon fill="white" stroke="black" points="366,-848.5 366,-867.5 419,-867.5 419,-848.5 366,-848.5"/>
<text text-anchor="middle" x="392.5" y="-855.5" font-family="Helvetica,sans-Serif" font-size="10.00">SentList</text>
</a>
</g>
</g>
<!-- Node3&#45;&gt;Node70 -->
<g id="edge56" class="edge">
<title>Node3&#45;&gt;Node70</title>
<path fill="none" stroke="midnightblue" d="M237.62,-516.83C245.04,-582.62 271.93,-792.18 318,-839 330.39,-851.59 349.94,-856.2 365.77,-857.75"/>
<polygon fill="midnightblue" stroke="midnightblue" points="241.07,-516.15 236.49,-506.6 234.11,-516.92 241.07,-516.15"/>
</g>
<!-- Node72 -->
<g id="node57" class="node">
<title>Node72</title>
<g id="a_node57"><a xlink:href="classmachine_1_1_var.html" target="_top" xlink:title="フレーム中の変数参照オブジェクトref = (XType type, int vid)">
<polygon fill="white" stroke="black" points="377,-810.5 377,-829.5 408,-829.5 408,-810.5 377,-810.5"/>
<text text-anchor="middle" x="392.5" y="-817.5" font-family="Helvetica,sans-Serif" font-size="10.00">Var</text>
</a>
</g>
</g>
<!-- Node3&#45;&gt;Node72 -->
<g id="edge58" class="edge">
<title>Node3&#45;&gt;Node72</title>
<path fill="none" stroke="midnightblue" d="M238.28,-516.97C247.16,-577.97 276.7,-760.2 318,-801 333.75,-816.56 360.48,-819.88 377,-820.32"/>
<polygon fill="midnightblue" stroke="midnightblue" points="241.7,-516.16 236.82,-506.76 234.77,-517.15 241.7,-516.16"/>
</g>
<!-- Node11 -->
<g id="node11" class="node">
<title>Node11</title>
<g id="a_node11"><a xlink:href="classast_1_1_ast_literal_1_1_boolean_literal.html" target="_top" xlink:title="Boolean値アトム">
<polygon fill="white" stroke="black" points="515.5,-696.5 515.5,-715.5 637.5,-715.5 637.5,-696.5 515.5,-696.5"/>
<text text-anchor="middle" x="576.5" y="-703.5" font-family="Helvetica,sans-Serif" font-size="10.00">AstLiteral.BooleanLiteral</text>
</a>
</g>
</g>
<!-- Node10&#45;&gt;Node11 -->
<g id="edge10" class="edge">
<title>Node10&#45;&gt;Node11</title>
<path fill="none" stroke="midnightblue" d="M431.68,-556.51C444.28,-559.1 457.49,-563.98 467,-573 505.55,-609.56 464.51,-650.37 503,-687 507.05,-690.86 511.79,-693.95 516.87,-696.44"/>
<polygon fill="midnightblue" stroke="midnightblue" points="432.23,-553.05 421.79,-554.88 431.09,-559.96 432.23,-553.05"/>
</g>
<!-- Node12 -->
<g id="node12" class="node">
<title>Node12</title>
<g id="a_node12"><a xlink:href="classast_1_1_ast_literal_1_1_double_literal.html" target="_top" xlink:title="Double値アトム">
<polygon fill="white" stroke="black" points="517.5,-658.5 517.5,-677.5 635.5,-677.5 635.5,-658.5 517.5,-658.5"/>
<text text-anchor="middle" x="576.5" y="-665.5" font-family="Helvetica,sans-Serif" font-size="10.00">AstLiteral.DoubleLiteral</text>
</a>
</g>
</g>
<!-- Node10&#45;&gt;Node12 -->
<g id="edge11" class="edge">
<title>Node10&#45;&gt;Node12</title>
<path fill="none" stroke="midnightblue" d="M431.69,-557.4C444.03,-560.09 457.08,-564.8 467,-573 495.81,-596.81 474.23,-625.14 503,-649 507.71,-652.9 513.13,-656.01 518.85,-658.49"/>
<polygon fill="midnightblue" stroke="midnightblue" points="432.03,-553.91 421.57,-555.59 430.79,-560.8 432.03,-553.91"/>
</g>
<!-- Node13 -->
<g id="node13" class="node">
<title>Node13</title>
<g id="a_node13"><a xlink:href="classast_1_1_ast_literal_1_1_integer_literal.html" target="_top" xlink:title="Integer値アトム">
<polygon fill="white" stroke="black" points="518,-620.5 518,-639.5 635,-639.5 635,-620.5 518,-620.5"/>
<text text-anchor="middle" x="576.5" y="-627.5" font-family="Helvetica,sans-Serif" font-size="10.00">AstLiteral.IntegerLiteral</text>
</a>
</g>
</g>
<!-- Node10&#45;&gt;Node13 -->
<g id="edge12" class="edge">
<title>Node10&#45;&gt;Node13</title>
<path fill="none" stroke="midnightblue" d="M431.88,-559.67C443.7,-562.51 456.37,-566.74 467,-573 487.04,-584.81 482.98,-599.15 503,-611 509.49,-614.84 516.77,-617.92 524.13,-620.38"/>
<polygon fill="midnightblue" stroke="midnightblue" points="432.31,-556.19 421.8,-557.52 430.85,-563.03 432.31,-556.19"/>
</g>
<!-- Node14 -->
<g id="node14" class="node">
<title>Node14</title>
<g id="a_node14"><a xlink:href="classast_1_1_ast_literal_1_1_string_expr.html" target="_top" xlink:title="String値アトム">
<polygon fill="white" stroke="black" points="523,-734.5 523,-753.5 630,-753.5 630,-734.5 523,-734.5"/>
<text text-anchor="middle" x="576.5" y="-741.5" font-family="Helvetica,sans-Serif" font-size="10.00">AstLiteral.StringExpr</text>
</a>
</g>
</g>
<!-- Node10&#45;&gt;Node14 -->
<g id="edge13" class="edge">
<title>Node10&#45;&gt;Node14</title>
<path fill="none" stroke="midnightblue" d="M431.76,-556.06C444.49,-558.61 457.76,-563.57 467,-573 515.59,-622.59 454.5,-675.33 503,-725 508.45,-730.59 515.33,-734.6 522.67,-737.46"/>
<polygon fill="midnightblue" stroke="midnightblue" points="432.18,-552.59 421.76,-554.5 431.1,-559.5 432.18,-552.59"/>
</g>
<!-- Node15 -->
<g id="node15" class="node">
<title>Node15</title>
<g id="a_node15"><a xlink:href="classast_1_1_ast_literal_1_1_regex_literal.html" target="_top" xlink:title=" ">
<polygon fill="white" stroke="black" points="700.5,-715.5 700.5,-734.5 816.5,-734.5 816.5,-715.5 700.5,-715.5"/>
<text text-anchor="middle" x="758.5" y="-722.5" font-family="Helvetica,sans-Serif" font-size="10.00">AstLiteral.RegexLiteral</text>
</a>
</g>
</g>
<!-- Node14&#45;&gt;Node15 -->
<g id="edge14" class="edge">
<title>Node14&#45;&gt;Node15</title>
<path fill="none" stroke="midnightblue" d="M640.11,-737.39C659.73,-735.32 681.27,-733.05 700.48,-731.02"/>
<polygon fill="midnightblue" stroke="midnightblue" points="639.62,-733.92 630.05,-738.45 640.36,-740.88 639.62,-733.92"/>
</g>
<!-- Node16 -->
<g id="node16" class="node">
<title>Node16</title>
<g id="a_node16"><a xlink:href="classast_1_1_ast_literal_1_1_string_literal.html" target="_top" xlink:title=" ">
<polygon fill="white" stroke="black" points="702,-753.5 702,-772.5 815,-772.5 815,-753.5 702,-753.5"/>
<text text-anchor="middle" x="758.5" y="-760.5" font-family="Helvetica,sans-Serif" font-size="10.00">AstLiteral.StringLiteral</text>
</a>
</g>
</g>
<!-- Node14&#45;&gt;Node16 -->
<g id="edge15" class="edge">
<title>Node14&#45;&gt;Node16</title>
<path fill="none" stroke="midnightblue" d="M640.03,-750.6C660.1,-752.72 682.19,-755.05 701.75,-757.12"/>
<polygon fill="midnightblue" stroke="midnightblue" points="640.36,-747.12 630.05,-749.55 639.62,-754.08 640.36,-747.12"/>
</g>
<!-- Node18 -->
<g id="node18" class="node">
<title>Node18</title>
<g id="a_node18"><a xlink:href="classast_1_1_block_base.html" target="_top" xlink:title="抽象構文木のステップ式のクラス.">
<polygon fill="white" stroke="black" points="544.5,-544.5 544.5,-563.5 608.5,-563.5 608.5,-544.5 544.5,-544.5"/>
<text text-anchor="middle" x="576.5" y="-551.5" font-family="Helvetica,sans-Serif" font-size="10.00">BlockBase</text>
</a>
</g>
</g>
<!-- Node17&#45;&gt;Node18 -->
<g id="edge17" class="edge">
<title>Node17&#45;&gt;Node18</title>
<path fill="none" stroke="midnightblue" d="M445.76,-526.91C477.63,-533.57 517.29,-541.85 544.32,-547.49"/>
<polygon fill="midnightblue" stroke="midnightblue" points="446.22,-523.43 435.71,-524.81 444.79,-530.28 446.22,-523.43"/>
</g>
<!-- Node22 -->
<g id="node21" class="node">
<title>Node22</title>
<g id="a_node21"><a xlink:href="classast_1_1_program.html" target="_top" xlink:title="ルールの集合からなるコンパイル済みのプログラム.">
<polygon fill="white" stroke="black" points="550,-582.5 550,-601.5 603,-601.5 603,-582.5 550,-582.5"/>
<text text-anchor="middle" x="576.5" y="-589.5" font-family="Helvetica,sans-Serif" font-size="10.00">Program</text>
</a>
</g>
</g>
<!-- Node17&#45;&gt;Node22 -->
<g id="edge20" class="edge">
<title>Node17&#45;&gt;Node22</title>
<path fill="none" stroke="midnightblue" d="M445.16,-525.41C452.77,-527.91 460.29,-531.05 467,-535 487.04,-546.81 482.98,-561.15 503,-573 517.22,-581.42 535.18,-586.16 549.66,-588.8"/>
<polygon fill="midnightblue" stroke="midnightblue" points="446.12,-522.05 435.54,-522.59 444.15,-528.76 446.12,-522.05"/>
</g>
<!-- Node19 -->
<g id="node19" class="node">
<title>Node19</title>
<g id="a_node19"><a xlink:href="classast_1_1_block.html" target="_top" xlink:title="抽象構文木のステップ式のクラス.">
<polygon fill="white" stroke="black" points="738,-535.5 738,-554.5 779,-554.5 779,-535.5 738,-535.5"/>
<text text-anchor="middle" x="758.5" y="-542.5" font-family="Helvetica,sans-Serif" font-size="10.00">Block</text>
</a>
</g>
</g>
<!-- Node18&#45;&gt;Node19 -->
<g id="edge18" class="edge">
<title>Node18&#45;&gt;Node19</title>
<path fill="none" stroke="midnightblue" d="M618.9,-551.93C656.11,-550.07 709.17,-547.42 737.64,-545.99"/>
<polygon fill="midnightblue" stroke="midnightblue" points="618.67,-548.44 608.85,-552.43 619.02,-555.43 618.67,-548.44"/>
</g>
<!-- Node20 -->
<g id="node20" class="node">
<title>Node20</title>
<g id="a_node20"><a xlink:href="classast_1_1_step.html" target="_top" xlink:title="抽象構文木のステップ式のクラス.">
<polygon fill="white" stroke="red" points="740,-573.5 740,-592.5 777,-592.5 777,-573.5 740,-573.5"/>
<text text-anchor="middle" x="758.5" y="-580.5" font-family="Helvetica,sans-Serif" font-size="10.00">Step</text>
</a>
</g>
</g>
<!-- Node18&#45;&gt;Node20 -->
<g id="edge19" class="edge">
<title>Node18&#45;&gt;Node20</title>
<path fill="none" stroke="midnightblue" d="M619.13,-560.71C657.22,-566.84 711.76,-575.63 739.62,-580.12"/>
<polygon fill="midnightblue" stroke="midnightblue" points="619.28,-557.19 608.85,-559.05 618.17,-564.1 619.28,-557.19"/>
</g>
<!-- Node24 -->
<g id="node23" class="node">
<title>Node24</title>
<g id="a_node23"><a xlink:href="classast_1_1_ast_oper_tagged.html" target="_top" xlink:title=" ">
<polygon fill="white" stroke="black" points="534.5,-468.5 534.5,-487.5 618.5,-487.5 618.5,-468.5 534.5,-468.5"/>
<text text-anchor="middle" x="576.5" y="-475.5" font-family="Helvetica,sans-Serif" font-size="10.00">AstOperTagged</text>
</a>
</g>
</g>
<!-- Node23&#45;&gt;Node24 -->
<g id="edge23" class="edge">
<title>Node23&#45;&gt;Node24</title>
<path fill="none" stroke="midnightblue" d="M463.7,-478C487.62,-478 513.56,-478 534.43,-478"/>
<polygon fill="midnightblue" stroke="midnightblue" points="463.6,-474.5 453.6,-478 463.6,-481.5 463.6,-474.5"/>
</g>
<!-- Node27 -->
<g id="node26" class="node">
<title>Node27</title>
<g id="a_node26"><a xlink:href="classast_1_1_ast_scan_from.html" target="_top" xlink:title=" ">
<polygon fill="white" stroke="black" points="538,-506.5 538,-525.5 615,-525.5 615,-506.5 538,-506.5"/>
<text text-anchor="middle" x="576.5" y="-513.5" font-family="Helvetica,sans-Serif" font-size="10.00">AstScanFrom</text>
</a>
</g>
</g>
<!-- Node23&#45;&gt;Node27 -->
<g id="edge26" class="edge">
<title>Node23&#45;&gt;Node27</title>
<path fill="none" stroke="midnightblue" d="M449.33,-489.66C478.06,-495.65 512.3,-502.81 537.87,-508.14"/>
<polygon fill="midnightblue" stroke="midnightblue" points="449.93,-486.21 439.43,-487.59 448.5,-493.06 449.93,-486.21"/>
</g>
<!-- Node25 -->
<g id="node24" class="node">
<title>Node25</title>
<g id="a_node24"><a xlink:href="classast_1_1_ast_if.html" target="_top" xlink:title="抽象構文木のステップ式のクラス.">
<polygon fill="white" stroke="black" points="739.5,-440.5 739.5,-459.5 777.5,-459.5 777.5,-440.5 739.5,-440.5"/>
<text text-anchor="middle" x="758.5" y="-447.5" font-family="Helvetica,sans-Serif" font-size="10.00">AstIf</text>
</a>
</g>
</g>
<!-- Node24&#45;&gt;Node25 -->
<g id="edge24" class="edge">
<title>Node24&#45;&gt;Node25</title>
<path fill="none" stroke="midnightblue" d="M628.93,-470C665.96,-464.24 713.75,-456.81 739.36,-452.82"/>
<polygon fill="midnightblue" stroke="midnightblue" points="628.14,-466.58 618.8,-471.58 629.21,-473.5 628.14,-466.58"/>
</g>
<!-- Node26 -->
<g id="node25" class="node">
<title>Node26</title>
<g id="a_node25"><a xlink:href="classast_1_1_ast_let.html" target="_top" xlink:title="とりあえず任意の文をラップして，ブール値を与えるためのノード">
<polygon fill="white" stroke="black" points="736,-478.5 736,-497.5 781,-497.5 781,-478.5 736,-478.5"/>
<text text-anchor="middle" x="758.5" y="-485.5" font-family="Helvetica,sans-Serif" font-size="10.00">AstLet</text>
</a>
</g>
</g>
<!-- Node24&#45;&gt;Node26 -->
<g id="edge25" class="edge">
<title>Node24&#45;&gt;Node26</title>
<path fill="none" stroke="midnightblue" d="M628.93,-480.86C664.19,-482.82 709.2,-485.32 735.54,-486.78"/>
<polygon fill="midnightblue" stroke="midnightblue" points="628.97,-477.35 618.8,-480.29 628.59,-484.34 628.97,-477.35"/>
</g>
<!-- Node29 -->
<g id="node28" class="node">
<title>Node29</title>
<g id="a_node28"><a xlink:href="classast_1_1_ast_converter.html" target="_top" xlink:title="値の変換のクラス。AstConv&lt;S,T&gt;の単なるラッパー">
<polygon fill="white" stroke="black" points="539.5,-199.5 539.5,-218.5 613.5,-218.5 613.5,-199.5 539.5,-199.5"/>
<text text-anchor="middle" x="576.5" y="-206.5" font-family="Helvetica,sans-Serif" font-size="10.00">AstConverter</text>
</a>
</g>
</g>
<!-- Node28&#45;&gt;Node29 -->
<g id="edge28" class="edge">
<title>Node28&#45;&gt;Node29</title>
<path fill="none" stroke="midnightblue" d="M443.42,-181.42C473.79,-187.76 511.89,-195.72 539.36,-201.45"/>
<polygon fill="midnightblue" stroke="midnightblue" points="443.94,-177.96 433.44,-179.34 442.51,-184.81 443.94,-177.96"/>
</g>
<!-- Node31 -->
<g id="node30" class="node">
<title>Node31</title>
<g id="a_node30"><a xlink:href="classast_1_1_ast_data_reader_1_1_ast_var_reader.html" target="_top" xlink:title="ブール型の値をもつ参照読み出し">
<polygon fill="white" stroke="black" points="503,-161.5 503,-180.5 650,-180.5 650,-161.5 503,-161.5"/>
<text text-anchor="middle" x="576.5" y="-168.5" font-family="Helvetica,sans-Serif" font-size="10.00">AstDataReader.AstVarReader</text>
</a>
</g>
</g>
<!-- Node28&#45;&gt;Node31 -->
<g id="edge30" class="edge">
<title>Node28&#45;&gt;Node31</title>
<path fill="none" stroke="midnightblue" d="M443.55,-171C461.8,-171 482.83,-171 502.66,-171"/>
<polygon fill="midnightblue" stroke="midnightblue" points="443.44,-167.5 433.44,-171 443.44,-174.5 443.44,-167.5"/>
</g>
<!-- Node32 -->
<g id="node31" class="node">
<title>Node32</title>
<g id="a_node31"><a xlink:href="classast_1_1_ast_data_writer.html" target="_top" xlink:title="局所変数環境からの値を書き込むクラス">
<polygon fill="white" stroke="black" points="537.5,-85.5 537.5,-104.5 615.5,-104.5 615.5,-85.5 537.5,-85.5"/>
<text text-anchor="middle" x="576.5" y="-92.5" font-family="Helvetica,sans-Serif" font-size="10.00">AstDataWriter</text>
</a>
</g>
</g>
<!-- Node28&#45;&gt;Node32 -->
<g id="edge31" class="edge">
<title>Node28&#45;&gt;Node32</title>
<path fill="none" stroke="midnightblue" d="M418.17,-156.12C439.89,-143.52 472.69,-125.69 503,-114 513.93,-109.79 526.13,-106.19 537.36,-103.29"/>
<polygon fill="midnightblue" stroke="midnightblue" points="416.15,-153.25 409.3,-161.33 419.69,-159.28 416.15,-153.25"/>
</g>
<!-- Node38 -->
<g id="node37" class="node">
<title>Node38</title>
<g id="a_node37"><a xlink:href="classast_1_1_ast_source_1_1_ast_in_file_open.html" target="_top" xlink:title="入力ストリームを表すノードのクラス">
<polygon fill="white" stroke="black" points="512.5,-123.5 512.5,-142.5 640.5,-142.5 640.5,-123.5 512.5,-123.5"/>
<text text-anchor="middle" x="576.5" y="-130.5" font-family="Helvetica,sans-Serif" font-size="10.00">AstSource.AstInFileOpen</text>
</a>
</g>
</g>
<!-- Node28&#45;&gt;Node38 -->
<g id="edge37" class="edge">
<title>Node28&#45;&gt;Node38</title>
<path fill="none" stroke="midnightblue" d="M443.47,-160.57C470.47,-154.93 503.58,-148.02 529.88,-142.52"/>
<polygon fill="midnightblue" stroke="midnightblue" points="442.51,-157.19 433.44,-162.66 443.94,-164.04 442.51,-157.19"/>
</g>
<!-- Node30 -->
<g id="node29" class="node">
<title>Node30</title>
<g id="a_node29"><a xlink:href="classast_1_1_ast_converter_1_1_ast_conv.html" target="_top" xlink:title="S型の値をT型の値に変換するアダプタ">
<polygon fill="white" stroke="black" points="701,-191 701,-221 816,-221 816,-191 701,-191"/>
<text text-anchor="start" x="709" y="-209" font-family="Helvetica,sans-Serif" font-size="10.00">AstConverter.AstConv</text>
<text text-anchor="middle" x="758.5" y="-198" font-family="Helvetica,sans-Serif" font-size="10.00">&lt; S, T &gt;</text>
</a>
</g>
</g>
<!-- Node29&#45;&gt;Node30 -->
<g id="edge29" class="edge">
<title>Node29&#45;&gt;Node30</title>
<path fill="none" stroke="midnightblue" d="M623.98,-208.23C647.47,-207.83 676.16,-207.36 700.92,-206.94"/>
<polygon fill="midnightblue" stroke="midnightblue" points="623.87,-204.73 613.93,-208.39 623.98,-211.73 623.87,-204.73"/>
</g>
<!-- Node33 -->
<g id="node32" class="node">
<title>Node33</title>
<g id="a_node32"><a xlink:href="classast_1_1_ast_data_writer_1_1_writer_boolean.html" target="_top" xlink:title="ブール型の値をもつ局所変数">
<polygon fill="white" stroke="black" points="688,-76.5 688,-95.5 829,-95.5 829,-76.5 688,-76.5"/>
<text text-anchor="middle" x="758.5" y="-83.5" font-family="Helvetica,sans-Serif" font-size="10.00">AstDataWriter.WriterBoolean</text>
</a>
</g>
</g>
<!-- Node32&#45;&gt;Node33 -->
<g id="edge32" class="edge">
<title>Node32&#45;&gt;Node33</title>
<path fill="none" stroke="midnightblue" d="M625.88,-92.58C644.89,-91.63 667.09,-90.52 687.77,-89.49"/>
<polygon fill="midnightblue" stroke="midnightblue" points="625.49,-89.1 615.67,-93.09 625.84,-96.09 625.49,-89.1"/>
</g>
<!-- Node34 -->
<g id="node33" class="node">
<title>Node34</title>
<g id="a_node33"><a xlink:href="classast_1_1_ast_data_writer_1_1_writer_double.html" target="_top" xlink:title="Double型の値をもつ局所変数">
<polygon fill="white" stroke="black" points="690,-38.5 690,-57.5 827,-57.5 827,-38.5 690,-38.5"/>
<text text-anchor="middle" x="758.5" y="-45.5" font-family="Helvetica,sans-Serif" font-size="10.00">AstDataWriter.WriterDouble</text>
</a>
</g>
</g>
<!-- Node32&#45;&gt;Node34 -->
<g id="edge33" class="edge">
<title>Node32&#45;&gt;Node34</title>
<path fill="none" stroke="midnightblue" d="M623.8,-82.91C653.97,-75.03 692.79,-64.9 720.82,-57.58"/>
<polygon fill="midnightblue" stroke="midnightblue" points="622.72,-79.58 613.93,-85.49 624.49,-86.35 622.72,-79.58"/>
</g>
<!-- Node35 -->
<g id="node34" class="node">
<title>Node35</title>
<g id="a_node34"><a xlink:href="classast_1_1_ast_data_writer_1_1_writer_integer.html" target="_top" xlink:title="Integer型の値をもつ局所変数">
<polygon fill="white" stroke="black" points="690.5,-0.5 690.5,-19.5 826.5,-19.5 826.5,-0.5 690.5,-0.5"/>
<text text-anchor="middle" x="758.5" y="-7.5" font-family="Helvetica,sans-Serif" font-size="10.00">AstDataWriter.WriterInteger</text>
</a>
</g>
</g>
<!-- Node32&#45;&gt;Node35 -->
<g id="edge34" class="edge">
<title>Node32&#45;&gt;Node35</title>
<path fill="none" stroke="midnightblue" d="M598.79,-79.5C619.98,-64.71 653.88,-42.7 686,-29 694.74,-25.27 704.41,-22.11 713.73,-19.5"/>
<polygon fill="midnightblue" stroke="midnightblue" points="596.66,-76.72 590.53,-85.36 600.71,-82.43 596.66,-76.72"/>
</g>
<!-- Node36 -->
<g id="node35" class="node">
<title>Node36</title>
<g id="a_node35"><a xlink:href="classast_1_1_ast_data_writer_1_1_writer_o_stream.html" target="_top" xlink:title="String型の値をもつ局所変数">
<polygon fill="white" stroke="black" points="686,-152.5 686,-171.5 831,-171.5 831,-152.5 686,-152.5"/>
<text text-anchor="middle" x="758.5" y="-159.5" font-family="Helvetica,sans-Serif" font-size="10.00">AstDataWriter.WriterOStream</text>
</a>
</g>
</g>
<!-- Node32&#45;&gt;Node36 -->
<g id="edge35" class="edge">
<title>Node32&#45;&gt;Node36</title>
<path fill="none" stroke="midnightblue" d="M625.59,-104.54C633.95,-107.05 642.4,-110.17 650,-114 668.34,-123.25 667.67,-133.71 686,-143 693.56,-146.83 701.98,-149.95 710.3,-152.47"/>
<polygon fill="midnightblue" stroke="midnightblue" points="626.43,-101.14 615.85,-101.86 624.57,-107.89 626.43,-101.14"/>
</g>
<!-- Node37 -->
<g id="node36" class="node">
<title>Node37</title>
<g id="a_node36"><a xlink:href="classast_1_1_ast_data_writer_1_1_writer_string.html" target="_top" xlink:title="String型の値をもつ局所変数">
<polygon fill="white" stroke="black" points="693,-114.5 693,-133.5 824,-133.5 824,-114.5 693,-114.5"/>
<text text-anchor="middle" x="758.5" y="-121.5" font-family="Helvetica,sans-Serif" font-size="10.00">AstDataWriter.WriterString</text>
</a>
</g>
</g>
<!-- Node32&#45;&gt;Node37 -->
<g id="edge36" class="edge">
<title>Node32&#45;&gt;Node37</title>
<path fill="none" stroke="midnightblue" d="M625.62,-102.75C648.02,-106.36 674.87,-110.69 698.48,-114.49"/>
<polygon fill="midnightblue" stroke="midnightblue" points="626.1,-99.29 615.67,-101.15 624.99,-106.2 626.1,-99.29"/>
</g>
<!-- Node40 -->
<g id="node39" class="node">
<title>Node40</title>
<g id="a_node39"><a xlink:href="classast_1_1_ast_func_call.html" target="_top" xlink:title=" ">
<polygon fill="white" stroke="black" points="541,-354.5 541,-373.5 612,-373.5 612,-354.5 541,-354.5"/>
<text text-anchor="middle" x="576.5" y="-361.5" font-family="Helvetica,sans-Serif" font-size="10.00">AstFuncCall</text>
</a>
</g>
</g>
<!-- Node39&#45;&gt;Node40 -->
<g id="edge39" class="edge">
<title>Node39&#45;&gt;Node40</title>
<path fill="none" stroke="midnightblue" d="M429.18,-434.96C441.73,-432.12 455.56,-427.75 467,-421 487.04,-409.19 482.98,-394.85 503,-383 514.42,-376.24 528.25,-371.85 540.76,-369.02"/>
<polygon fill="midnightblue" stroke="midnightblue" points="428.13,-431.6 419.01,-436.99 429.5,-438.46 428.13,-431.6"/>
</g>
<!-- Node41 -->
<g id="node40" class="node">
<title>Node41</title>
<g id="a_node40"><a xlink:href="classast_1_1_ast_math_oper.html" target="_top" xlink:title="値を返すことができるノードのクラス．一般に1個以上の子をもつ演算子である．">
<polygon fill="white" stroke="black" points="539.5,-316.5 539.5,-335.5 613.5,-335.5 613.5,-316.5 539.5,-316.5"/>
<text text-anchor="middle" x="576.5" y="-323.5" font-family="Helvetica,sans-Serif" font-size="10.00">AstMathOper</text>
</a>
</g>
</g>
<!-- Node39&#45;&gt;Node41 -->
<g id="edge40" class="edge">
<title>Node39&#45;&gt;Node41</title>
<path fill="none" stroke="midnightblue" d="M429.23,-437.11C442.28,-434.52 456.42,-429.75 467,-421 495.81,-397.19 474.23,-368.86 503,-345 513.22,-336.53 526.8,-331.79 539.45,-329.16"/>
<polygon fill="midnightblue" stroke="midnightblue" points="428.4,-433.7 419.09,-438.75 429.52,-440.61 428.4,-433.7"/>
</g>
<!-- Node55 -->
<g id="node42" class="node">
<title>Node55</title>
<g id="a_node42"><a xlink:title=" ">
<polygon fill="white" stroke="#bfbfbf" points="542.5,-278.5 542.5,-297.5 610.5,-297.5 610.5,-278.5 542.5,-278.5"/>
<text text-anchor="middle" x="576.5" y="-285.5" font-family="Helvetica,sans-Serif" font-size="10.00">AstRelOper</text>
</a>
</g>
</g>
<!-- Node39&#45;&gt;Node55 -->
<g id="edge42" class="edge">
<title>Node39&#45;&gt;Node55</title>
<path fill="none" stroke="midnightblue" d="M429.2,-437.98C442.52,-435.52 456.86,-430.61 467,-421 505.55,-384.44 464.51,-343.63 503,-307 513.46,-297.04 528.48,-292.15 542.14,-289.8"/>
<polygon fill="midnightblue" stroke="midnightblue" points="428.68,-434.51 419.29,-439.41 429.69,-441.44 428.68,-434.51"/>
</g>
<!-- Node62 -->
<g id="node47" class="node">
<title>Node62</title>
<g id="a_node47"><a xlink:href="classast_1_1_ast_return.html" target="_top" xlink:title="リターン式のクラス．値を返すことができる．">
<polygon fill="white" stroke="black" points="546,-430.5 546,-449.5 607,-449.5 607,-430.5 546,-430.5"/>
<text text-anchor="middle" x="576.5" y="-437.5" font-family="Helvetica,sans-Serif" font-size="10.00">AstReturn</text>
</a>
</g>
</g>
<!-- Node39&#45;&gt;Node62 -->
<g id="edge47" class="edge">
<title>Node39&#45;&gt;Node62</title>
<path fill="none" stroke="midnightblue" d="M429.61,-440C463.62,-440 513.94,-440 545.71,-440"/>
<polygon fill="midnightblue" stroke="midnightblue" points="429.19,-436.5 419.19,-440 429.19,-443.5 429.19,-436.5"/>
</g>
<!-- Node63 -->
<g id="node48" class="node">
<title>Node63</title>
<g id="a_node48"><a xlink:href="classast_1_1_ast_template.html" target="_top" xlink:title=" ">
<polygon fill="white" stroke="black" points="541,-392.5 541,-411.5 612,-411.5 612,-392.5 541,-392.5"/>
<text text-anchor="middle" x="576.5" y="-399.5" font-family="Helvetica,sans-Serif" font-size="10.00">AstTemplate</text>
</a>
</g>
</g>
<!-- Node39&#45;&gt;Node63 -->
<g id="edge48" class="edge">
<title>Node39&#45;&gt;Node63</title>
<path fill="none" stroke="midnightblue" d="M429.13,-432.56C461.48,-425.81 508.9,-415.91 540.92,-409.22"/>
<polygon fill="midnightblue" stroke="midnightblue" points="428.26,-429.17 419.19,-434.64 429.69,-436.02 428.26,-429.17"/>
</g>
<!-- Node42 -->
<g id="node41" class="node">
<title>Node42</title>
<g id="a_node41"><a xlink:href="classast_1_1_ast_math_oper_1_1_binary_oper.html" target="_top" xlink:title="end of class AstMathOper">
<polygon fill="white" stroke="red" points="696,-392.5 696,-411.5 821,-411.5 821,-392.5 696,-392.5"/>
<text text-anchor="middle" x="758.5" y="-399.5" font-family="Helvetica,sans-Serif" font-size="10.00">AstMathOper.BinaryOper</text>
</a>
</g>
</g>
<!-- Node41&#45;&gt;Node42 -->
<g id="edge41" class="edge">
<title>Node41&#45;&gt;Node42</title>
<path fill="none" stroke="midnightblue" d="M623.54,-333.95C632.68,-336.64 641.94,-340.23 650,-345 670.02,-356.85 666,-371.12 686,-383 692.51,-386.87 699.82,-389.97 707.22,-392.44"/>
<polygon fill="midnightblue" stroke="midnightblue" points="624.28,-330.52 613.72,-331.36 622.5,-337.29 624.28,-330.52"/>
</g>
<!-- Node56 -->
<g id="node43" class="node">
<title>Node56</title>
<g id="a_node43"><a xlink:href="classast_1_1_ast_math_oper_1_1_double_rel.html" target="_top" xlink:title=" ">
<polygon fill="white" stroke="black" points="697.5,-316.5 697.5,-335.5 819.5,-335.5 819.5,-316.5 697.5,-316.5"/>
<text text-anchor="middle" x="758.5" y="-323.5" font-family="Helvetica,sans-Serif" font-size="10.00">AstMathOper.DoubleRel</text>
</a>
</g>
</g>
<!-- Node55&#45;&gt;Node56 -->
<g id="edge43" class="edge">
<title>Node55&#45;&gt;Node56</title>
<path fill="none" stroke="midnightblue" d="M620.34,-297.04C648.13,-302.91 684.28,-310.54 712.49,-316.5"/>
<polygon fill="midnightblue" stroke="midnightblue" points="621.02,-293.61 610.51,-294.97 619.58,-300.46 621.02,-293.61"/>
</g>
<!-- Node57 -->
<g id="node44" class="node">
<title>Node57</title>
<g id="a_node44"><a xlink:href="classast_1_1_ast_math_oper_1_1_integer_rel.html" target="_top" xlink:title=" ">
<polygon fill="white" stroke="black" points="697.5,-278.5 697.5,-297.5 819.5,-297.5 819.5,-278.5 697.5,-278.5"/>
<text text-anchor="middle" x="758.5" y="-285.5" font-family="Helvetica,sans-Serif" font-size="10.00">AstMathOper.IntegerRel</text>
</a>
</g>
</g>
<!-- Node55&#45;&gt;Node57 -->
<g id="edge44" class="edge">
<title>Node55&#45;&gt;Node57</title>
<path fill="none" stroke="midnightblue" d="M620.64,-288C643.62,-288 672.26,-288 697.39,-288"/>
<polygon fill="midnightblue" stroke="midnightblue" points="620.51,-284.5 610.51,-288 620.51,-291.5 620.51,-284.5"/>
</g>
<!-- Node58 -->
<g id="node45" class="node">
<title>Node58</title>
<g id="a_node45"><a xlink:href="classast_1_1_ast_math_oper_1_1_number_rel.html" target="_top" xlink:title=" ">
<polygon fill="white" stroke="black" points="695.5,-240.5 695.5,-259.5 821.5,-259.5 821.5,-240.5 695.5,-240.5"/>
<text text-anchor="middle" x="758.5" y="-247.5" font-family="Helvetica,sans-Serif" font-size="10.00">AstMathOper.NumberRel</text>
</a>
</g>
</g>
<!-- Node55&#45;&gt;Node58 -->
<g id="edge45" class="edge">
<title>Node55&#45;&gt;Node58</title>
<path fill="none" stroke="midnightblue" d="M620.34,-278.96C648.13,-273.09 684.28,-265.46 712.49,-259.5"/>
<polygon fill="midnightblue" stroke="midnightblue" points="619.58,-275.54 610.51,-281.03 621.02,-282.39 619.58,-275.54"/>
</g>
<!-- Node59 -->
<g id="node46" class="node">
<title>Node59</title>
<g id="a_node46"><a xlink:href="classast_1_1_string_rel.html" target="_top" xlink:title=" ">
<polygon fill="white" stroke="red" points="730,-354.5 730,-373.5 787,-373.5 787,-354.5 730,-354.5"/>
<text text-anchor="middle" x="758.5" y="-361.5" font-family="Helvetica,sans-Serif" font-size="10.00">StringRel</text>
</a>
</g>
</g>
<!-- Node55&#45;&gt;Node59 -->
<g id="edge46" class="edge">
<title>Node55&#45;&gt;Node59</title>
<path fill="none" stroke="midnightblue" d="M620.67,-295.13C630.73,-297.9 641.1,-301.73 650,-307 670.02,-318.85 666,-333.12 686,-345 699.36,-352.94 716.07,-357.62 729.97,-360.34"/>
<polygon fill="midnightblue" stroke="midnightblue" points="621.33,-291.68 610.78,-292.69 619.65,-298.48 621.33,-291.68"/>
</g>
<!-- Node71 -->
<g id="node56" class="node">
<title>Node71</title>
<g id="a_node56"><a xlink:href="classast_1_1_sent_list_1_1_list_wrapper.html" target="_top" xlink:title="Javaの基本型データの清書用の包み込みアトム">
<polygon fill="white" stroke="black" points="511,-848.5 511,-867.5 642,-867.5 642,-848.5 511,-848.5"/>
<text text-anchor="middle" x="576.5" y="-855.5" font-family="Helvetica,sans-Serif" font-size="10.00">SentList.ListWrapper&lt; T &gt;</text>
</a>
</g>
</g>
<!-- Node70&#45;&gt;Node71 -->
<g id="edge57" class="edge">
<title>Node70&#45;&gt;Node71</title>
<path fill="none" stroke="midnightblue" d="M429.26,-858C452.44,-858 483.32,-858 510.72,-858"/>
<polygon fill="midnightblue" stroke="midnightblue" points="429.19,-854.5 419.19,-858 429.19,-861.5 429.19,-854.5"/>
</g>
<!-- Node75&#45;&gt;Node28 -->
<g id="edge63" class="edge">
<title>Node75&#45;&gt;Node28</title>
<path fill="none" stroke="midnightblue" d="M290.63,-171C310.8,-171 333.22,-171 351.78,-171"/>
<polygon fill="midnightblue" stroke="midnightblue" points="290.62,-167.5 280.62,-171 290.62,-174.5 290.62,-167.5"/>
</g>
<!-- Node75&#45;&gt;Node32 -->
<g id="edge62" class="edge">
<title>Node75&#45;&gt;Node32</title>
<path fill="none" stroke="midnightblue" d="M286.43,-159.2C296.87,-156.8 307.79,-154.31 318,-152 395.71,-134.45 486.74,-114.42 537.09,-103.4"/>
<polygon fill="midnightblue" stroke="midnightblue" points="285.57,-155.81 276.61,-161.46 287.14,-162.63 285.57,-155.81"/>
</g>
</g>
</svg>
