<?xml version="1.0" encoding="UTF-8" standalone="no"?>
<!DOCTYPE svg PUBLIC "-//W3C//DTD SVG 1.1//EN"
 "http://www.w3.org/Graphics/SVG/1.1/DTD/svg11.dtd">
<!-- Generated by graphviz version 2.47.1 (20210417.1919)
 -->
<!-- Title: Node.DataReader Pages: 1 -->
<svg width="207pt" height="140pt"
 viewBox="0.00 0.00 207.00 140.00" xmlns="http://www.w3.org/2000/svg" xmlns:xlink="http://www.w3.org/1999/xlink">
<g id="graph0" class="graph" transform="scale(1 1) rotate(0) translate(4 136)">
<title>Node.DataReader</title>
<polygon fill="white" stroke="transparent" points="-4,4 -4,-136 203,-136 203,4 -4,4"/>
<!-- Node1 -->
<g id="node1" class="node">
<title>Node1</title>
<g id="a_node1"><a xlink:title="データをメモリから読み込むノードのインタフェース．">
<polygon fill="#bfbfbf" stroke="black" points="40,-0.5 40,-19.5 135,-19.5 135,-0.5 40,-0.5"/>
<text text-anchor="middle" x="87.5" y="-7.5" font-family="Helvetica,sans-Serif" font-size="10.00">Node.DataReader</text>
</a>
</g>
</g>
<!-- Node2 -->
<g id="node2" class="node">
<title>Node2</title>
<g id="a_node2"><a xlink:href="interfaceast_1_1_node.html" target="_top" xlink:title=" ">
<polygon fill="white" stroke="black" points="17.5,-56.5 17.5,-75.5 57.5,-75.5 57.5,-56.5 17.5,-56.5"/>
<text text-anchor="middle" x="37.5" y="-63.5" font-family="Helvetica,sans-Serif" font-size="10.00">Node</text>
</a>
</g>
</g>
<!-- Node2&#45;&gt;Node1 -->
<g id="edge1" class="edge">
<title>Node2&#45;&gt;Node1</title>
<path fill="none" stroke="midnightblue" d="M52.58,-48.72C61.39,-39.2 72.17,-27.56 79.4,-19.75"/>
<polygon fill="midnightblue" stroke="midnightblue" points="49.98,-46.37 45.76,-56.08 55.12,-51.12 49.98,-46.37"/>
</g>
<!-- Node3 -->
<g id="node3" class="node">
<title>Node3</title>
<g id="a_node3"><a xlink:href="interfaceformat_1_1_x_formattable.html" target="_top" xlink:title="入れ子フォーマット出力可能なオブジェクトのインタフェース。">
<polygon fill="white" stroke="black" points="0,-112.5 0,-131.5 75,-131.5 75,-112.5 0,-112.5"/>
<text text-anchor="middle" x="37.5" y="-119.5" font-family="Helvetica,sans-Serif" font-size="10.00">XFormattable</text>
</a>
</g>
</g>
<!-- Node3&#45;&gt;Node2 -->
<g id="edge2" class="edge">
<title>Node3&#45;&gt;Node2</title>
<path fill="none" stroke="midnightblue" d="M37.5,-101.8C37.5,-92.91 37.5,-82.78 37.5,-75.75"/>
<polygon fill="midnightblue" stroke="midnightblue" points="34,-102.08 37.5,-112.08 41,-102.08 34,-102.08"/>
</g>
<!-- Node4 -->
<g id="node4" class="node">
<title>Node4</title>
<g id="a_node4"><a xlink:href="interfacecmd_1_1_generatable_1_1_evaluatable.html" target="_top" xlink:title="評価して値を返すノードのインタフェース．必ずしもコードを生成しなくても良い．">
<polygon fill="white" stroke="black" points="76,-56.5 76,-75.5 199,-75.5 199,-56.5 76,-56.5"/>
<text text-anchor="middle" x="137.5" y="-63.5" font-family="Helvetica,sans-Serif" font-size="10.00">Generatable.Evaluatable</text>
</a>
</g>
</g>
<!-- Node4&#45;&gt;Node1 -->
<g id="edge3" class="edge">
<title>Node4&#45;&gt;Node1</title>
<path fill="none" stroke="midnightblue" d="M122.42,-48.72C113.61,-39.2 102.83,-27.56 95.6,-19.75"/>
<polygon fill="midnightblue" stroke="midnightblue" points="119.88,-51.12 129.24,-56.08 125.02,-46.37 119.88,-51.12"/>
</g>
<!-- Node5 -->
<g id="node5" class="node">
<title>Node5</title>
<g id="a_node5"><a xlink:href="interfacecmd_1_1_generatable.html" target="_top" xlink:title="変換してコードを生成できるノードのインタフェース.">
<polygon fill="white" stroke="black" points="103,-112.5 103,-131.5 172,-131.5 172,-112.5 103,-112.5"/>
<text text-anchor="middle" x="137.5" y="-119.5" font-family="Helvetica,sans-Serif" font-size="10.00">Generatable</text>
</a>
</g>
</g>
<!-- Node5&#45;&gt;Node4 -->
<g id="edge4" class="edge">
<title>Node5&#45;&gt;Node4</title>
<path fill="none" stroke="midnightblue" d="M137.5,-101.8C137.5,-92.91 137.5,-82.78 137.5,-75.75"/>
<polygon fill="midnightblue" stroke="midnightblue" points="134,-102.08 137.5,-112.08 141,-102.08 134,-102.08"/>
</g>
</g>
</svg>
