<?xml version="1.0" encoding="UTF-8" standalone="no"?>
<!DOCTYPE svg PUBLIC "-//W3C//DTD SVG 1.1//EN"
 "http://www.w3.org/Graphics/SVG/1.1/DTD/svg11.dtd">
<!-- Generated by graphviz version 2.47.0 (20210316.0004)
 -->
<!-- Title: DataAccessor Pages: 1 -->
<!--zoomable 522 -->
<svg id="main" version="1.1" xmlns="http://www.w3.org/2000/svg" xmlns:xlink="http://www.w3.org/1999/xlink" xml:space="preserve" onload="init(evt)">
<style type="text/css"><![CDATA[
.edge:hover path { stroke: red; }
.edge:hover polygon { stroke: red; fill: red; }
]]></style>
<script type="text/javascript"><![CDATA[
var edges = document.getElementsByTagName('g');
if (edges && edges.length) {
  for (var i=0;i<edges.length;i++) {
    if (edges[i].id.substr(0,4)=='edge') {
      edges[i].setAttribute('class','edge');
    }
  }
}
]]></script>
        <defs>
                <circle id="rim" cx="0" cy="0" r="7"/>
                <circle id="rim2" cx="0" cy="0" r="3.5"/>
                <g id="zoomPlus">
                        <use xlink:href="#rim" fill="#404040">
                                <set attributeName="fill" to="#808080" begin="zoomplus.mouseover" end="zoomplus.mouseout"/>
                        </use>
                        <path d="M-4,0h8M0,-4v8" fill="none" stroke="white" stroke-width="1.5" pointer-events="none"/>
                </g>
                <g id="zoomMin">
                        <use xlink:href="#rim" fill="#404040">
                                <set attributeName="fill" to="#808080" begin="zoomminus.mouseover" end="zoomminus.mouseout"/>
                        </use>
                        <path d="M-4,0h8" fill="none" stroke="white" stroke-width="1.5" pointer-events="none"/>
                </g>
                <g id="dirArrow">
                        <path fill="none" stroke="white" stroke-width="1.5" d="M0,-3.0v7 M-2.5,-0.5L0,-3.0L2.5,-0.5"/>
                </g>
               <g id="resetDef">
                       <use xlink:href="#rim2" fill="#404040">
                               <set attributeName="fill" to="#808080" begin="reset.mouseover" end="reset.mouseout"/>
                       </use>
               </g>
        </defs>

<script type="text/javascript">
var viewWidth = 663;
var viewHeight = 522;
var sectionId = 'dynsection-0';
</script>
<script xlink:href="svgpan.js"/>
<svg id="graph" class="graph">
<g id="viewport">
<title>DataAccessor</title>
<polygon fill="white" stroke="transparent" points="-4,4 -4,-518 659,-518 659,4 -4,4"/>
<!-- Node1 -->
<g id="node1" class="node">
<title>Node1</title>
<g id="a_node1"><a xlink:title="参照をもつデータ読み書きオブジェクトのインタフェース.">
<polygon fill="#bfbfbf" stroke="black" points="0,-171.5 0,-190.5 79,-190.5 79,-171.5 0,-171.5"/>
<text text-anchor="middle" x="39.5" y="-178.5" font-family="Helvetica,sans-Serif" font-size="10.00">DataAccessor</text>
</a>
</g>
</g>
<!-- Node2 -->
<g id="node2" class="node">
<title>Node2</title>
<g id="a_node2"><a xlink:href="classast_1_1_ast_data_reader_1_1_get_ref.html" target="_top" xlink:title="フレームスタックから参照が示す値を読み出すクラス">
<polygon fill="white" stroke="black" points="130,-380.5 130,-399.5 248,-399.5 248,-380.5 130,-380.5"/>
<text text-anchor="middle" x="189" y="-387.5" font-family="Helvetica,sans-Serif" font-size="10.00">AstDataReader.GetRef</text>
</a>
</g>
</g>
<!-- Node1&#45;&gt;Node2 -->
<g id="edge1" class="edge">
<title>Node1&#45;&gt;Node2</title>
<path fill="none" stroke="midnightblue" d="M53.07,-198.81C83.11,-241.37 158.29,-347.9 181.24,-380.42"/>
<polygon fill="midnightblue" stroke="midnightblue" points="55.85,-196.68 47.22,-190.52 50.13,-200.71 55.85,-196.68"/>
</g>
<!-- Node9 -->
<g id="node9" class="node">
<title>Node9</title>
<g id="a_node9"><a xlink:href="classast_1_1_ast_data_writer.html" target="_top" xlink:title="局所変数環境からの値を書き込むクラス">
<polygon fill="white" stroke="black" points="150,-171.5 150,-190.5 228,-190.5 228,-171.5 150,-171.5"/>
<text text-anchor="middle" x="189" y="-178.5" font-family="Helvetica,sans-Serif" font-size="10.00">AstDataWriter</text>
</a>
</g>
</g>
<!-- Node1&#45;&gt;Node9 -->
<g id="edge8" class="edge">
<title>Node1&#45;&gt;Node9</title>
<path fill="none" stroke="midnightblue" d="M89.26,-181C108.93,-181 131.3,-181 149.76,-181"/>
<polygon fill="midnightblue" stroke="midnightblue" points="89.25,-177.5 79.25,-181 89.25,-184.5 89.25,-177.5"/>
</g>
<!-- Node16 -->
<g id="node16" class="node">
<title>Node16</title>
<g id="a_node16"><a xlink:href="classcmd_1_1_command_base_1_1_command_ref.html" target="_top" xlink:title=" ">
<polygon fill="white" stroke="black" points="115,-38.5 115,-57.5 263,-57.5 263,-38.5 115,-38.5"/>
<text text-anchor="middle" x="189" y="-45.5" font-family="Helvetica,sans-Serif" font-size="10.00">CommandBase.CommandRef</text>
</a>
</g>
</g>
<!-- Node1&#45;&gt;Node16 -->
<g id="edge15" class="edge">
<title>Node1&#45;&gt;Node16</title>
<path fill="none" stroke="midnightblue" d="M58.62,-164.66C89.62,-136.71 151.93,-80.52 177.09,-57.84"/>
<polygon fill="midnightblue" stroke="midnightblue" points="56.19,-162.14 51.11,-171.43 60.88,-167.34 56.19,-162.14"/>
</g>
<!-- Node3 -->
<g id="node3" class="node">
<title>Node3</title>
<g id="a_node3"><a xlink:href="classast_1_1_ast_data_reader_1_1_ast_var_use.html" target="_top" xlink:title=" ">
<polygon fill="white" stroke="black" points="310,-494.5 310,-513.5 444,-513.5 444,-494.5 310,-494.5"/>
<text text-anchor="middle" x="377" y="-501.5" font-family="Helvetica,sans-Serif" font-size="10.00">AstDataReader.AstVarUse</text>
</a>
</g>
</g>
<!-- Node2&#45;&gt;Node3 -->
<g id="edge2" class="edge">
<title>Node2&#45;&gt;Node3</title>
<path fill="none" stroke="midnightblue" d="M205.08,-407.48C224.59,-428.98 260.66,-465.07 299,-485 306.45,-488.87 314.72,-491.98 323,-494.47"/>
<polygon fill="midnightblue" stroke="midnightblue" points="207.48,-404.91 198.22,-399.77 202.25,-409.56 207.48,-404.91"/>
</g>
<!-- Node4 -->
<g id="node4" class="node">
<title>Node4</title>
<g id="a_node4"><a xlink:href="classast_1_1_ast_data_reader_1_1_reader_boolean.html" target="_top" xlink:title="ブール型の値をもつ参照読み出し">
<polygon fill="white" stroke="black" points="300.5,-456.5 300.5,-475.5 453.5,-475.5 453.5,-456.5 300.5,-456.5"/>
<text text-anchor="middle" x="377" y="-463.5" font-family="Helvetica,sans-Serif" font-size="10.00">AstDataReader.ReaderBoolean</text>
</a>
</g>
</g>
<!-- Node2&#45;&gt;Node4 -->
<g id="edge3" class="edge">
<title>Node2&#45;&gt;Node4</title>
<path fill="none" stroke="midnightblue" d="M214.13,-404.78C235.72,-417.46 268.55,-435.48 299,-447 308.66,-450.66 319.27,-453.8 329.44,-456.42"/>
<polygon fill="midnightblue" stroke="midnightblue" points="215.72,-401.65 205.33,-399.53 212.13,-407.66 215.72,-401.65"/>
</g>
<!-- Node5 -->
<g id="node5" class="node">
<title>Node5</title>
<g id="a_node5"><a xlink:href="classast_1_1_ast_data_reader_1_1_reader_double.html" target="_top" xlink:title="倍精度実数型の値をもつ参照読み出しの呼び出し">
<polygon fill="white" stroke="black" points="302.5,-418.5 302.5,-437.5 451.5,-437.5 451.5,-418.5 302.5,-418.5"/>
<text text-anchor="middle" x="377" y="-425.5" font-family="Helvetica,sans-Serif" font-size="10.00">AstDataReader.ReaderDouble</text>
</a>
</g>
</g>
<!-- Node2&#45;&gt;Node5 -->
<g id="edge4" class="edge">
<title>Node2&#45;&gt;Node5</title>
<path fill="none" stroke="midnightblue" d="M246.83,-401.61C273.28,-407.01 304.36,-413.36 329.4,-418.48"/>
<polygon fill="midnightblue" stroke="midnightblue" points="247.43,-398.16 236.94,-399.59 246.03,-405.02 247.43,-398.16"/>
</g>
<!-- Node6 -->
<g id="node6" class="node">
<title>Node6</title>
<g id="a_node6"><a xlink:href="classast_1_1_ast_data_reader_1_1_reader_get_elem.html" target="_top" xlink:title=" ">
<polygon fill="white" stroke="black" points="299,-380.5 299,-399.5 455,-399.5 455,-380.5 299,-380.5"/>
<text text-anchor="middle" x="377" y="-387.5" font-family="Helvetica,sans-Serif" font-size="10.00">AstDataReader.ReaderGetElem</text>
</a>
</g>
</g>
<!-- Node2&#45;&gt;Node6 -->
<g id="edge5" class="edge">
<title>Node2&#45;&gt;Node6</title>
<path fill="none" stroke="midnightblue" d="M258.47,-390C271.63,-390 285.49,-390 298.91,-390"/>
<polygon fill="midnightblue" stroke="midnightblue" points="258.09,-386.5 248.09,-390 258.09,-393.5 258.09,-386.5"/>
</g>
<!-- Node7 -->
<g id="node7" class="node">
<title>Node7</title>
<g id="a_node7"><a xlink:href="classast_1_1_ast_data_reader_1_1_reader_integer.html" target="_top" xlink:title="整数型の値をもつ参照読み出しの呼び出し">
<polygon fill="white" stroke="black" points="303,-342.5 303,-361.5 451,-361.5 451,-342.5 303,-342.5"/>
<text text-anchor="middle" x="377" y="-349.5" font-family="Helvetica,sans-Serif" font-size="10.00">AstDataReader.ReaderInteger</text>
</a>
</g>
</g>
<!-- Node2&#45;&gt;Node7 -->
<g id="edge6" class="edge">
<title>Node2&#45;&gt;Node7</title>
<path fill="none" stroke="midnightblue" d="M246.83,-378.39C273.28,-372.99 304.36,-366.64 329.4,-361.52"/>
<polygon fill="midnightblue" stroke="midnightblue" points="246.03,-374.98 236.94,-380.41 247.43,-381.84 246.03,-374.98"/>
</g>
<!-- Node8 -->
<g id="node8" class="node">
<title>Node8</title>
<g id="a_node8"><a xlink:href="classast_1_1_ast_data_reader_1_1_reader_string.html" target="_top" xlink:title="文字列型の値をもつ参照読み出し">
<polygon fill="white" stroke="black" points="305.5,-304.5 305.5,-323.5 448.5,-323.5 448.5,-304.5 305.5,-304.5"/>
<text text-anchor="middle" x="377" y="-311.5" font-family="Helvetica,sans-Serif" font-size="10.00">AstDataReader.ReaderString</text>
</a>
</g>
</g>
<!-- Node2&#45;&gt;Node8 -->
<g id="edge7" class="edge">
<title>Node2&#45;&gt;Node8</title>
<path fill="none" stroke="midnightblue" d="M214.13,-375.22C235.72,-362.54 268.55,-344.52 299,-333 308.66,-329.34 319.27,-326.2 329.44,-323.58"/>
<polygon fill="midnightblue" stroke="midnightblue" points="212.13,-372.34 205.33,-380.47 215.72,-378.35 212.13,-372.34"/>
</g>
<!-- Node10 -->
<g id="node10" class="node">
<title>Node10</title>
<g id="a_node10"><a xlink:href="classast_1_1_ast_data_writer_1_1_writer_boolean.html" target="_top" xlink:title="ブール型の値をもつ局所変数">
<polygon fill="white" stroke="black" points="306.5,-266.5 306.5,-285.5 447.5,-285.5 447.5,-266.5 306.5,-266.5"/>
<text text-anchor="middle" x="377" y="-273.5" font-family="Helvetica,sans-Serif" font-size="10.00">AstDataWriter.WriterBoolean</text>
</a>
</g>
</g>
<!-- Node9&#45;&gt;Node10 -->
<g id="edge9" class="edge">
<title>Node9&#45;&gt;Node10</title>
<path fill="none" stroke="midnightblue" d="M208.63,-197.23C229.35,-214.47 264.46,-241.35 299,-257 307.4,-260.81 316.68,-263.92 325.8,-266.45"/>
<polygon fill="midnightblue" stroke="midnightblue" points="210.82,-194.5 200.92,-190.71 206.29,-199.84 210.82,-194.5"/>
</g>
<!-- Node11 -->
<g id="node11" class="node">
<title>Node11</title>
<g id="a_node11"><a xlink:href="classast_1_1_ast_data_writer_1_1_writer_double.html" target="_top" xlink:title="Double型の値をもつ局所変数">
<polygon fill="white" stroke="black" points="308.5,-228.5 308.5,-247.5 445.5,-247.5 445.5,-228.5 308.5,-228.5"/>
<text text-anchor="middle" x="377" y="-235.5" font-family="Helvetica,sans-Serif" font-size="10.00">AstDataWriter.WriterDouble</text>
</a>
</g>
</g>
<!-- Node9&#45;&gt;Node11 -->
<g id="edge10" class="edge">
<title>Node9&#45;&gt;Node11</title>
<path fill="none" stroke="midnightblue" d="M224.9,-194.1C246.16,-201.85 273.96,-211.56 299,-219 310.35,-222.37 322.77,-225.62 334.25,-228.45"/>
<polygon fill="midnightblue" stroke="midnightblue" points="225.92,-190.75 215.33,-190.59 223.51,-197.32 225.92,-190.75"/>
</g>
<!-- Node12 -->
<g id="node12" class="node">
<title>Node12</title>
<g id="a_node12"><a xlink:href="classast_1_1_ast_data_writer_1_1_writer_integer.html" target="_top" xlink:title="Integer型の値をもつ局所変数">
<polygon fill="white" stroke="black" points="309,-190.5 309,-209.5 445,-209.5 445,-190.5 309,-190.5"/>
<text text-anchor="middle" x="377" y="-197.5" font-family="Helvetica,sans-Serif" font-size="10.00">AstDataWriter.WriterInteger</text>
</a>
</g>
</g>
<!-- Node9&#45;&gt;Node12 -->
<g id="edge11" class="edge">
<title>Node9&#45;&gt;Node12</title>
<path fill="none" stroke="midnightblue" d="M238.3,-185.93C259.86,-188.14 285.62,-190.77 308.99,-193.15"/>
<polygon fill="midnightblue" stroke="midnightblue" points="238.39,-182.43 228.09,-184.89 237.68,-189.39 238.39,-182.43"/>
</g>
<!-- Node13 -->
<g id="node13" class="node">
<title>Node13</title>
<g id="a_node13"><a xlink:href="classast_1_1_ast_data_writer_1_1_writer_o_stream.html" target="_top" xlink:title="String型の値をもつ局所変数">
<polygon fill="white" stroke="black" points="304.5,-152.5 304.5,-171.5 449.5,-171.5 449.5,-152.5 304.5,-152.5"/>
<text text-anchor="middle" x="377" y="-159.5" font-family="Helvetica,sans-Serif" font-size="10.00">AstDataWriter.WriterOStream</text>
</a>
</g>
</g>
<!-- Node9&#45;&gt;Node13 -->
<g id="edge12" class="edge">
<title>Node9&#45;&gt;Node13</title>
<path fill="none" stroke="midnightblue" d="M238.28,-176.07C258.46,-174.01 282.34,-171.57 304.49,-169.3"/>
<polygon fill="midnightblue" stroke="midnightblue" points="237.68,-172.61 228.09,-177.11 238.39,-179.57 237.68,-172.61"/>
</g>
<!-- Node14 -->
<g id="node14" class="node">
<title>Node14</title>
<g id="a_node14"><a xlink:href="classast_1_1_ast_data_writer_1_1_writer_string.html" target="_top" xlink:title="String型の値をもつ局所変数">
<polygon fill="white" stroke="black" points="311.5,-114.5 311.5,-133.5 442.5,-133.5 442.5,-114.5 311.5,-114.5"/>
<text text-anchor="middle" x="377" y="-121.5" font-family="Helvetica,sans-Serif" font-size="10.00">AstDataWriter.WriterString</text>
</a>
</g>
</g>
<!-- Node9&#45;&gt;Node14 -->
<g id="edge13" class="edge">
<title>Node9&#45;&gt;Node14</title>
<path fill="none" stroke="midnightblue" d="M224.9,-167.9C246.16,-160.15 273.96,-150.44 299,-143 310.35,-139.63 322.77,-136.38 334.25,-133.55"/>
<polygon fill="midnightblue" stroke="midnightblue" points="223.51,-164.68 215.33,-171.41 225.92,-171.25 223.51,-164.68"/>
</g>
<!-- Node15 -->
<g id="node15" class="node">
<title>Node15</title>
<g id="a_node15"><a xlink:href="classast_1_1_ast_data_writer_1_1_writer_void.html" target="_top" xlink:title="Void型の値をもつ局所変数">
<polygon fill="white" stroke="black" points="314.5,-76.5 314.5,-95.5 439.5,-95.5 439.5,-76.5 314.5,-76.5"/>
<text text-anchor="middle" x="377" y="-83.5" font-family="Helvetica,sans-Serif" font-size="10.00">AstDataWriter.WriterVoid</text>
</a>
</g>
</g>
<!-- Node9&#45;&gt;Node15 -->
<g id="edge14" class="edge">
<title>Node9&#45;&gt;Node15</title>
<path fill="none" stroke="midnightblue" d="M208.63,-164.77C229.35,-147.53 264.46,-120.65 299,-105 307.4,-101.19 316.68,-98.08 325.8,-95.55"/>
<polygon fill="midnightblue" stroke="midnightblue" points="206.29,-162.16 200.92,-171.29 210.82,-167.5 206.29,-162.16"/>
</g>
<!-- Node17 -->
<g id="node17" class="node">
<title>Node17</title>
<g id="a_node17"><a xlink:href="classcmd_1_1_command_base_1_1_cmd_load.html" target="_top" xlink:title=" ">
<polygon fill="white" stroke="black" points="312.5,-38.5 312.5,-57.5 441.5,-57.5 441.5,-38.5 312.5,-38.5"/>
<text text-anchor="middle" x="377" y="-45.5" font-family="Helvetica,sans-Serif" font-size="10.00">CommandBase.CmdLoad</text>
</a>
</g>
</g>
<!-- Node16&#45;&gt;Node17 -->
<g id="edge16" class="edge">
<title>Node16&#45;&gt;Node17</title>
<path fill="none" stroke="midnightblue" d="M273.63,-48C286.67,-48 299.96,-48 312.46,-48"/>
<polygon fill="midnightblue" stroke="midnightblue" points="273.25,-44.5 263.25,-48 273.25,-51.5 273.25,-44.5"/>
</g>
<!-- Node19 -->
<g id="node19" class="node">
<title>Node19</title>
<g id="a_node19"><a xlink:href="classcmd_1_1_command_base_1_1_cmd_store.html" target="_top" xlink:title=" ">
<polygon fill="white" stroke="black" points="311.5,-0.5 311.5,-19.5 442.5,-19.5 442.5,-0.5 311.5,-0.5"/>
<text text-anchor="middle" x="377" y="-7.5" font-family="Helvetica,sans-Serif" font-size="10.00">CommandBase.CmdStore</text>
</a>
</g>
</g>
<!-- Node16&#45;&gt;Node19 -->
<g id="edge18" class="edge">
<title>Node16&#45;&gt;Node19</title>
<path fill="none" stroke="midnightblue" d="M246.83,-36.39C273.28,-30.99 304.36,-24.64 329.4,-19.52"/>
<polygon fill="midnightblue" stroke="midnightblue" points="246.03,-32.98 236.94,-38.41 247.43,-39.84 246.03,-32.98"/>
</g>
<!-- Node18 -->
<g id="node18" class="node">
<title>Node18</title>
<g id="a_node18"><a xlink:href="classcmd_1_1_command_base_1_1_cmd_get_elem_end.html" target="_top" xlink:title="テキスト読み出し命令の一つ:任意のノードの要素テキストを取得して，文字列型の変数に格納する．">
<polygon fill="white" stroke="black" points="491,-38.5 491,-57.5 655,-57.5 655,-38.5 491,-38.5"/>
<text text-anchor="middle" x="573" y="-45.5" font-family="Helvetica,sans-Serif" font-size="10.00">CommandBase.CmdGetElemEnd</text>
</a>
</g>
</g>
<!-- Node17&#45;&gt;Node18 -->
<g id="edge17" class="edge">
<title>Node17&#45;&gt;Node18</title>
<path fill="none" stroke="midnightblue" d="M451.68,-48C464.53,-48 477.96,-48 491,-48"/>
<polygon fill="midnightblue" stroke="midnightblue" points="451.52,-44.5 441.52,-48 451.52,-51.5 451.52,-44.5"/>
</g>
<!-- Node20 -->
<g id="node20" class="node">
<title>Node20</title>
<g id="a_node20"><a xlink:href="classcmd_1_1_command_base_1_1_cmd_set_elem_beg.html" target="_top" xlink:title="テキスト読み出し命令の一つ:任意のノードの要素テキストの開始位置を取得して，整数型の変数に格納する．">
<polygon fill="white" stroke="black" points="491.5,-0.5 491.5,-19.5 654.5,-19.5 654.5,-0.5 491.5,-0.5"/>
<text text-anchor="middle" x="573" y="-7.5" font-family="Helvetica,sans-Serif" font-size="10.00">CommandBase.CmdSetElemBeg</text>
</a>
</g>
</g>
<!-- Node19&#45;&gt;Node20 -->
<g id="edge19" class="edge">
<title>Node19&#45;&gt;Node20</title>
<path fill="none" stroke="midnightblue" d="M452.66,-10C465.36,-10 478.61,-10 491.46,-10"/>
<polygon fill="midnightblue" stroke="midnightblue" points="452.6,-6.5 442.6,-10 452.6,-13.5 452.6,-6.5"/>
</g>
</g>
</svg>
        <g id="navigator" transform="translate(0 0)" fill="#404254">
                <rect fill="#f2f5e9" fill-opacity="0.5" stroke="#606060" stroke-width=".5" x="0" y="0" width="60" height="60"/>
                <use id="zoomplus" xlink:href="#zoomPlus" x="17" y="9" onmousedown="handleZoom(evt,'in')"/>
                <use id="zoomminus" xlink:href="#zoomMin" x="42" y="9" onmousedown="handleZoom(evt,'out')"/>
                <use id="reset" xlink:href="#resetDef" x="30" y="36" onmousedown="handleReset()"/>
                <g id="arrowUp" xlink:href="#dirArrow" transform="translate(30 24)" onmousedown="handlePan(0,-1)">
                  <use xlink:href="#rim" fill="#404040">
                        <set attributeName="fill" to="#808080" begin="arrowUp.mouseover" end="arrowUp.mouseout"/>
                  </use>
                  <path fill="none" stroke="white" stroke-width="1.5" d="M0,-3.0v7 M-2.5,-0.5L0,-3.0L2.5,-0.5"/>
                </g>
                <g id="arrowRight" xlink:href="#dirArrow" transform="rotate(90) translate(36 -43)" onmousedown="handlePan(1,0)">
                  <use xlink:href="#rim" fill="#404040">
                        <set attributeName="fill" to="#808080" begin="arrowRight.mouseover" end="arrowRight.mouseout"/>
                  </use>
                  <path fill="none" stroke="white" stroke-width="1.5" d="M0,-3.0v7 M-2.5,-0.5L0,-3.0L2.5,-0.5"/>
                </g>
                <g id="arrowDown" xlink:href="#dirArrow" transform="rotate(180) translate(-30 -48)" onmousedown="handlePan(0,1)">
                  <use xlink:href="#rim" fill="#404040">
                        <set attributeName="fill" to="#808080" begin="arrowDown.mouseover" end="arrowDown.mouseout"/>
                  </use>
                  <path fill="none" stroke="white" stroke-width="1.5" d="M0,-3.0v7 M-2.5,-0.5L0,-3.0L2.5,-0.5"/>
                </g>
                <g id="arrowLeft" xlink:href="#dirArrow" transform="rotate(270) translate(-36 17)" onmousedown="handlePan(-1,0)">
                  <use xlink:href="#rim" fill="#404040">
                        <set attributeName="fill" to="#808080" begin="arrowLeft.mouseover" end="arrowLeft.mouseout"/>
                  </use>
                  <path fill="none" stroke="white" stroke-width="1.5" d="M0,-3.0v7 M-2.5,-0.5L0,-3.0L2.5,-0.5"/>
                </g>
        </g>
        <svg viewBox="0 0 15 15" width="100%" height="30px" preserveAspectRatio="xMaxYMin meet">
         <g id="arrow_out" transform="scale(0.3 0.3)">
          <a xlink:href="interfacemachine_1_1_data_accessor__inherit__graph_org.svg" target="_base">
           <rect id="button" ry="5" rx="5" y="6" x="6" height="38" width="38"
                fill="#f2f5e9" fill-opacity="0.5" stroke="#606060" stroke-width="1.0"/>
           <path id="arrow"
             d="M 11.500037,31.436501 C 11.940474,20.09759 22.043105,11.32322 32.158766,21.979434 L 37.068811,17.246167 C 37.068811,17.246167 37.088388,32 37.088388,32 L 22.160133,31.978069 C 22.160133,31.978069 26.997745,27.140456 26.997745,27.140456 C 18.528582,18.264221 13.291696,25.230495 11.500037,31.436501 z"
             style="fill:#404040;"/>
          </a>
         </g>
        </svg>
</svg>
