<?xml version="1.0" encoding="UTF-8" standalone="no"?>
<!DOCTYPE svg PUBLIC "-//W3C//DTD SVG 1.1//EN"
 "http://www.w3.org/Graphics/SVG/1.1/DTD/svg11.dtd">
<!-- Generated by graphviz version 2.47.1 (20210417.1919)
 -->
<!-- Title: XFormattable.CustomFormattable Pages: 1 -->
<!--zoomable 994 -->
<svg id="main" version="1.1" xmlns="http://www.w3.org/2000/svg" xmlns:xlink="http://www.w3.org/1999/xlink" xml:space="preserve" onload="init(evt)">
<style type="text/css"><![CDATA[
.edge:hover path { stroke: red; }
.edge:hover polygon { stroke: red; fill: red; }
]]></style>
<script type="text/javascript"><![CDATA[
var edges = document.getElementsByTagName('g');
if (edges && edges.length) {
  for (var i=0;i<edges.length;i++) {
    if (edges[i].id.substr(0,4)=='edge') {
      edges[i].setAttribute('class','edge');
    }
  }
}
]]></script>
        <defs>
                <circle id="rim" cx="0" cy="0" r="7"/>
                <circle id="rim2" cx="0" cy="0" r="3.5"/>
                <g id="zoomPlus">
                        <use xlink:href="#rim" fill="#404040">
                                <set attributeName="fill" to="#808080" begin="zoomplus.mouseover" end="zoomplus.mouseout"/>
                        </use>
                        <path d="M-4,0h8M0,-4v8" fill="none" stroke="white" stroke-width="1.5" pointer-events="none"/>
                </g>
                <g id="zoomMin">
                        <use xlink:href="#rim" fill="#404040">
                                <set attributeName="fill" to="#808080" begin="zoomminus.mouseover" end="zoomminus.mouseout"/>
                        </use>
                        <path d="M-4,0h8" fill="none" stroke="white" stroke-width="1.5" pointer-events="none"/>
                </g>
                <g id="dirArrow">
                        <path fill="none" stroke="white" stroke-width="1.5" d="M0,-3.0v7 M-2.5,-0.5L0,-3.0L2.5,-0.5"/>
                </g>
               <g id="resetDef">
                       <use xlink:href="#rim2" fill="#404040">
                               <set attributeName="fill" to="#808080" begin="reset.mouseover" end="reset.mouseout"/>
                       </use>
               </g>
        </defs>

<script type="text/javascript">
var viewWidth = 1078;
var viewHeight = 994;
var sectionId = 'dynsection-0';
</script>
<script xlink:href="svgpan.js"/>
<svg id="graph" class="graph">
<g id="viewport">
<title>XFormattable.CustomFormattable</title>
<polygon fill="white" stroke="transparent" points="-4,4 -4,-989.5 1074,-989.5 1074,4 -4,4"/>
<!-- Node1 -->
<g id="node1" class="node">
<title>Node1</title>
<g id="a_node1"><a xlink:title="カスタム清書出力器をもつオブジェクトのクラス．">
<polygon fill="#bfbfbf" stroke="black" points="111,-536 111,-555 275,-555 275,-536 111,-536"/>
<text text-anchor="middle" x="193" y="-543" font-family="Helvetica,sans-Serif" font-size="10.00">XFormattable.CustomFormattable</text>
</a>
</g>
</g>
<!-- Node3 -->
<g id="node3" class="node">
<title>Node3</title>
<g id="a_node3"><a xlink:title=" ">
<polygon fill="white" stroke="#bfbfbf" points="336.5,-707 336.5,-726 416.5,-726 416.5,-707 336.5,-707"/>
<text text-anchor="middle" x="376.5" y="-714" font-family="Helvetica,sans-Serif" font-size="10.00">AstStrWrapper</text>
</a>
</g>
</g>
<!-- Node1&#45;&gt;Node3 -->
<g id="edge2" class="edge">
<title>Node1&#45;&gt;Node3</title>
<path fill="none" stroke="midnightblue" d="M203.29,-564.18C220.22,-596.32 259.19,-662.01 311,-697.5 318.51,-702.65 327.43,-706.42 336.21,-709.18"/>
<polygon fill="midnightblue" stroke="midnightblue" points="206.26,-562.31 198.58,-555.01 200.03,-565.51 206.26,-562.31"/>
</g>
<!-- Node4 -->
<g id="node4" class="node">
<title>Node4</title>
<g id="a_node4"><a xlink:href="classast_1_1_ast_tag.html" target="_top" xlink:title=" ">
<polygon fill="white" stroke="black" points="353,-669 353,-688 400,-688 400,-669 353,-669"/>
<text text-anchor="middle" x="376.5" y="-676" font-family="Helvetica,sans-Serif" font-size="10.00">AstTag</text>
</a>
</g>
</g>
<!-- Node1&#45;&gt;Node4 -->
<g id="edge3" class="edge">
<title>Node1&#45;&gt;Node4</title>
<path fill="none" stroke="midnightblue" d="M207.23,-562.94C227.09,-587.93 266.99,-633.75 311,-659.5 323.9,-667.05 340.02,-671.8 352.92,-674.66"/>
<polygon fill="midnightblue" stroke="midnightblue" points="209.98,-560.77 201.07,-555.04 204.46,-565.08 209.98,-560.77"/>
</g>
<!-- Node5 -->
<g id="node5" class="node">
<title>Node5</title>
<g id="a_node5"><a xlink:href="classast_1_1_path.html" target="_top" xlink:title=" ">
<polygon fill="white" stroke="black" points="358,-631 358,-650 395,-650 395,-631 358,-631"/>
<text text-anchor="middle" x="376.5" y="-638" font-family="Helvetica,sans-Serif" font-size="10.00">Path</text>
</a>
</g>
</g>
<!-- Node1&#45;&gt;Node5 -->
<g id="edge4" class="edge">
<title>Node1&#45;&gt;Node5</title>
<path fill="none" stroke="midnightblue" d="M214.41,-561.39C236.95,-578.31 274.87,-604.87 311,-621.5 326.16,-628.48 344.51,-633.59 357.76,-636.74"/>
<polygon fill="midnightblue" stroke="midnightblue" points="216.36,-558.48 206.28,-555.22 212.12,-564.05 216.36,-558.48"/>
</g>
<!-- Node6 -->
<g id="node6" class="node">
<title>Node6</title>
<g id="a_node6"><a xlink:href="classast_1_1_sent_list_1_1_list_wrapper.html" target="_top" xlink:title="Javaの基本型データの清書用の包み込みアトム">
<polygon fill="white" stroke="black" points="311,-593 311,-612 442,-612 442,-593 311,-593"/>
<text text-anchor="middle" x="376.5" y="-600" font-family="Helvetica,sans-Serif" font-size="10.00">SentList.ListWrapper&lt; T &gt;</text>
</a>
</g>
</g>
<!-- Node1&#45;&gt;Node6 -->
<g id="edge5" class="edge">
<title>Node1&#45;&gt;Node6</title>
<path fill="none" stroke="midnightblue" d="M232.42,-558.27C255.21,-565.78 284.7,-575.36 311,-583.5 321.15,-586.64 332.23,-589.95 342.3,-592.91"/>
<polygon fill="midnightblue" stroke="midnightblue" points="233.37,-554.9 222.78,-555.09 231.18,-561.55 233.37,-554.9"/>
</g>
<!-- Node7 -->
<g id="node7" class="node">
<title>Node7</title>
<g id="a_node7"><a xlink:href="classcmd_1_1_cmd_list.html" target="_top" xlink:title="仮想命令のリスト．">
<polygon fill="white" stroke="black" points="350,-555 350,-574 403,-574 403,-555 350,-555"/>
<text text-anchor="middle" x="376.5" y="-562" font-family="Helvetica,sans-Serif" font-size="10.00">CmdList</text>
</a>
</g>
</g>
<!-- Node1&#45;&gt;Node7 -->
<g id="edge6" class="edge">
<title>Node1&#45;&gt;Node7</title>
<path fill="none" stroke="midnightblue" d="M285.35,-555.06C309.09,-557.55 332.77,-560.03 349.9,-561.82"/>
<polygon fill="midnightblue" stroke="midnightblue" points="285.5,-551.56 275.19,-554 284.78,-558.52 285.5,-551.56"/>
</g>
<!-- Node8 -->
<g id="node8" class="node">
<title>Node8</title>
<g id="a_node8"><a xlink:href="classcmd_1_1_command_base.html" target="_top" xlink:title="局所変数環境に値を書き込む式の抽象クラス.">
<polygon fill="white" stroke="black" points="334.5,-517 334.5,-536 418.5,-536 418.5,-517 334.5,-517"/>
<text text-anchor="middle" x="376.5" y="-524" font-family="Helvetica,sans-Serif" font-size="10.00">CommandBase</text>
</a>
</g>
</g>
<!-- Node1&#45;&gt;Node8 -->
<g id="edge7" class="edge">
<title>Node1&#45;&gt;Node8</title>
<path fill="none" stroke="midnightblue" d="M285.26,-535.95C302.39,-534.15 319.49,-532.36 334.13,-530.83"/>
<polygon fill="midnightblue" stroke="midnightblue" points="284.78,-532.48 275.19,-537 285.5,-539.44 284.78,-532.48"/>
</g>
<!-- Node43 -->
<g id="node43" class="node">
<title>Node43</title>
<g id="a_node43"><a xlink:href="classmachine_1_1_call.html" target="_top" xlink:title=" ">
<polygon fill="white" stroke="black" points="359.5,-479 359.5,-498 393.5,-498 393.5,-479 359.5,-479"/>
<text text-anchor="middle" x="376.5" y="-486" font-family="Helvetica,sans-Serif" font-size="10.00">Call</text>
</a>
</g>
</g>
<!-- Node1&#45;&gt;Node43 -->
<g id="edge42" class="edge">
<title>Node1&#45;&gt;Node43</title>
<path fill="none" stroke="midnightblue" d="M232.42,-532.73C255.21,-525.22 284.7,-515.64 311,-507.5 327.39,-502.42 346.23,-496.91 359.29,-493.14"/>
<polygon fill="midnightblue" stroke="midnightblue" points="231.18,-529.45 222.78,-535.91 233.37,-536.1 231.18,-529.45"/>
</g>
<!-- Node44 -->
<g id="node44" class="node">
<title>Node44</title>
<g id="a_node44"><a xlink:href="classmachine_1_1_call_list.html" target="_top" xlink:title=" ">
<polygon fill="white" stroke="black" points="351.5,-441 351.5,-460 401.5,-460 401.5,-441 351.5,-441"/>
<text text-anchor="middle" x="376.5" y="-448" font-family="Helvetica,sans-Serif" font-size="10.00">CallList</text>
</a>
</g>
</g>
<!-- Node1&#45;&gt;Node44 -->
<g id="edge43" class="edge">
<title>Node1&#45;&gt;Node44</title>
<path fill="none" stroke="midnightblue" d="M214.41,-529.61C236.95,-512.69 274.87,-486.13 311,-469.5 323.83,-463.6 338.94,-459.03 351.31,-455.85"/>
<polygon fill="midnightblue" stroke="midnightblue" points="212.12,-526.95 206.28,-535.78 216.36,-532.52 212.12,-526.95"/>
</g>
<!-- Node45 -->
<g id="node45" class="node">
<title>Node45</title>
<g id="a_node45"><a xlink:href="classmachine_1_1_id_mask.html" target="_top" xlink:title="@IDのマスク">
<polygon fill="white" stroke="black" points="352,-403 352,-422 401,-422 401,-403 352,-403"/>
<text text-anchor="middle" x="376.5" y="-410" font-family="Helvetica,sans-Serif" font-size="10.00">IdMask</text>
</a>
</g>
</g>
<!-- Node1&#45;&gt;Node45 -->
<g id="edge44" class="edge">
<title>Node1&#45;&gt;Node45</title>
<path fill="none" stroke="midnightblue" d="M207.23,-528.06C227.09,-503.07 266.99,-457.25 311,-431.5 323.49,-424.19 339.02,-419.5 351.7,-416.61"/>
<polygon fill="midnightblue" stroke="midnightblue" points="204.46,-525.92 201.07,-535.96 209.98,-530.23 204.46,-525.92"/>
</g>
<!-- Node46 -->
<g id="node46" class="node">
<title>Node46</title>
<g id="a_node46"><a xlink:href="classmachine_1_1_var_table.html" target="_top" xlink:title="@整数の表">
<polygon fill="white" stroke="black" points="349.5,-365 349.5,-384 403.5,-384 403.5,-365 349.5,-365"/>
<text text-anchor="middle" x="376.5" y="-372" font-family="Helvetica,sans-Serif" font-size="10.00">VarTable</text>
</a>
</g>
</g>
<!-- Node1&#45;&gt;Node46 -->
<g id="edge45" class="edge">
<title>Node1&#45;&gt;Node46</title>
<path fill="none" stroke="midnightblue" d="M203.29,-526.82C220.22,-494.68 259.19,-428.99 311,-393.5 322.36,-385.71 336.96,-381.07 349.39,-378.32"/>
<polygon fill="midnightblue" stroke="midnightblue" points="200.03,-525.49 198.58,-535.99 206.26,-528.69 200.03,-525.49"/>
</g>
<!-- Node2 -->
<g id="node2" class="node">
<title>Node2</title>
<g id="a_node2"><a xlink:href="interfaceformat_1_1_x_formattable.html" target="_top" xlink:title="入れ子フォーマット出力可能なオブジェクトのインタフェース。">
<polygon fill="white" stroke="black" points="0,-536 0,-555 75,-555 75,-536 0,-536"/>
<text text-anchor="middle" x="37.5" y="-543" font-family="Helvetica,sans-Serif" font-size="10.00">XFormattable</text>
</a>
</g>
</g>
<!-- Node2&#45;&gt;Node1 -->
<g id="edge1" class="edge">
<title>Node2&#45;&gt;Node1</title>
<path fill="none" stroke="midnightblue" d="M85.53,-545.5C93.59,-545.5 102.17,-545.5 110.83,-545.5"/>
<polygon fill="midnightblue" stroke="midnightblue" points="85.27,-542 75.27,-545.5 85.27,-549 85.27,-542"/>
</g>
<!-- Node9 -->
<g id="node9" class="node">
<title>Node9</title>
<g id="a_node9"><a xlink:href="classcmd_1_1_command_base_1_1_cmd_break.html" target="_top" xlink:title="実行を強制中断させる命令．デバッグのブレークポイント設定に用いる．">
<polygon fill="white" stroke="black" points="500.5,-966 500.5,-985 634.5,-985 634.5,-966 500.5,-966"/>
<text text-anchor="middle" x="567.5" y="-973" font-family="Helvetica,sans-Serif" font-size="10.00">CommandBase.CmdBreak</text>
</a>
</g>
</g>
<!-- Node8&#45;&gt;Node9 -->
<g id="edge8" class="edge">
<title>Node8&#45;&gt;Node9</title>
<path fill="none" stroke="midnightblue" d="M428.01,-534.64C433.35,-537.33 438.21,-540.87 442,-545.5 500.07,-616.45 417.32,-887.77 478,-956.5 484.03,-963.33 491.87,-968.04 500.4,-971.25"/>
<polygon fill="midnightblue" stroke="midnightblue" points="429.24,-531.36 418.65,-530.85 426.61,-537.84 429.24,-531.36"/>
</g>
<!-- Node10 -->
<g id="node10" class="node">
<title>Node10</title>
<g id="a_node10"><a xlink:href="classcmd_1_1_command_base_1_1_cmd_get_text.html" target="_top" xlink:title="テキスト読み出し命令: 終端ノードのテキスト値を返す．">
<polygon fill="white" stroke="black" points="496,-928 496,-947 639,-947 639,-928 496,-928"/>
<text text-anchor="middle" x="567.5" y="-935" font-family="Helvetica,sans-Serif" font-size="10.00">CommandBase.CmdGetText</text>
</a>
</g>
</g>
<!-- Node8&#45;&gt;Node10 -->
<g id="edge9" class="edge">
<title>Node8&#45;&gt;Node10</title>
<path fill="none" stroke="midnightblue" d="M427.97,-534.67C433.32,-537.36 438.19,-540.89 442,-545.5 495.02,-609.71 422.61,-856.32 478,-918.5 482.91,-924.01 489.01,-928.15 495.68,-931.21"/>
<polygon fill="midnightblue" stroke="midnightblue" points="429.19,-531.39 418.61,-530.88 426.57,-537.88 429.19,-531.39"/>
</g>
<!-- Node11 -->
<g id="node11" class="node">
<title>Node11</title>
<g id="a_node11"><a xlink:href="classcmd_1_1_command_base_1_1_cmd_h_a_l_t.html" target="_top" xlink:title="停止のマーカーになる命令">
<polygon fill="white" stroke="black" points="500.5,-890 500.5,-909 634.5,-909 634.5,-890 500.5,-890"/>
<text text-anchor="middle" x="567.5" y="-897" font-family="Helvetica,sans-Serif" font-size="10.00">CommandBase.CmdHALT</text>
</a>
</g>
</g>
<!-- Node8&#45;&gt;Node11 -->
<g id="edge10" class="edge">
<title>Node8&#45;&gt;Node11</title>
<path fill="none" stroke="midnightblue" d="M427.92,-534.71C433.28,-537.39 438.17,-540.91 442,-545.5 537.97,-660.45 377.78,-769.23 478,-880.5 483.99,-887.16 491.71,-891.79 500.08,-894.97"/>
<polygon fill="midnightblue" stroke="midnightblue" points="429.14,-531.42 418.55,-530.93 426.52,-537.92 429.14,-531.42"/>
</g>
<!-- Node12 -->
<g id="node12" class="node">
<title>Node12</title>
<g id="a_node12"><a xlink:href="classcmd_1_1_command_base_1_1_cmd_in_file_open.html" target="_top" xlink:title="入力ファイルを開き、そのファイル記述子をスタックへ積む。">
<polygon fill="white" stroke="black" points="490,-852 490,-871 645,-871 645,-852 490,-852"/>
<text text-anchor="middle" x="567.5" y="-859" font-family="Helvetica,sans-Serif" font-size="10.00">CommandBase.CmdInFileOpen</text>
</a>
</g>
</g>
<!-- Node8&#45;&gt;Node12 -->
<g id="edge11" class="edge">
<title>Node8&#45;&gt;Node12</title>
<path fill="none" stroke="midnightblue" d="M428.45,-535.05C433.59,-537.69 438.28,-541.1 442,-545.5 527.91,-646.99 388.35,-744.31 478,-842.5 481.5,-846.33 485.56,-849.49 489.99,-852.08"/>
<polygon fill="midnightblue" stroke="midnightblue" points="429.4,-531.66 418.82,-531.09 426.74,-538.13 429.4,-531.66"/>
</g>
<!-- Node13 -->
<g id="node13" class="node">
<title>Node13</title>
<g id="a_node13"><a xlink:href="classcmd_1_1_command_base_1_1_cmd_inc_m_a_t_c_h.html" target="_top" xlink:title="何もしない命令．">
<polygon fill="white" stroke="black" points="489,-814 489,-833 646,-833 646,-814 489,-814"/>
<text text-anchor="middle" x="567.5" y="-821" font-family="Helvetica,sans-Serif" font-size="10.00">CommandBase.CmdIncMATCH</text>
</a>
</g>
</g>
<!-- Node8&#45;&gt;Node13 -->
<g id="edge12" class="edge">
<title>Node8&#45;&gt;Node13</title>
<path fill="none" stroke="midnightblue" d="M428.37,-535.12C433.53,-537.75 438.24,-541.13 442,-545.5 517.6,-633.19 399.63,-718.28 478,-803.5 481.84,-807.67 486.35,-811.07 491.26,-813.82"/>
<polygon fill="midnightblue" stroke="midnightblue" points="429.31,-531.72 418.73,-531.17 426.66,-538.2 429.31,-531.72"/>
</g>
<!-- Node14 -->
<g id="node14" class="node">
<title>Node14</title>
<g id="a_node14"><a xlink:href="classcmd_1_1_command_base_1_1_cmd_int_in_stream_const.html" target="_top" xlink:title="ファイル記述子をスタックへ積む。">
<polygon fill="white" stroke="black" points="488,-764.5 488,-794.5 647,-794.5 647,-764.5 488,-764.5"/>
<text text-anchor="start" x="496" y="-782.5" font-family="Helvetica,sans-Serif" font-size="10.00">CommandBase.CmdIntInStream</text>
<text text-anchor="middle" x="567.5" y="-771.5" font-family="Helvetica,sans-Serif" font-size="10.00">Const</text>
</a>
</g>
</g>
<!-- Node8&#45;&gt;Node14 -->
<g id="edge13" class="edge">
<title>Node8&#45;&gt;Node14</title>
<path fill="none" stroke="midnightblue" d="M427.85,-535.04C433.18,-537.68 438.07,-541.09 442,-545.5 504.68,-615.9 414.93,-684.45 478,-754.5 481.42,-758.3 485.37,-761.54 489.65,-764.3"/>
<polygon fill="midnightblue" stroke="midnightblue" points="429.15,-531.8 418.57,-531.31 426.54,-538.29 429.15,-531.8"/>
</g>
<!-- Node15 -->
<g id="node15" class="node">
<title>Node15</title>
<g id="a_node15"><a xlink:href="classcmd_1_1_command_base_1_1_cmd_l_a_b_e_l.html" target="_top" xlink:title="何もしない命令．">
<polygon fill="white" stroke="black" points="498,-726 498,-745 637,-745 637,-726 498,-726"/>
<text text-anchor="middle" x="567.5" y="-733" font-family="Helvetica,sans-Serif" font-size="10.00">CommandBase.CmdLABEL</text>
</a>
</g>
</g>
<!-- Node8&#45;&gt;Node15 -->
<g id="edge14" class="edge">
<title>Node8&#45;&gt;Node15</title>
<path fill="none" stroke="midnightblue" d="M428.28,-535.48C433.41,-538.04 438.14,-541.32 442,-545.5 494.71,-602.54 423.19,-661.47 478,-716.5 483.54,-722.07 490.3,-726.18 497.58,-729.21"/>
<polygon fill="midnightblue" stroke="midnightblue" points="429.3,-532.12 418.72,-531.58 426.66,-538.6 429.3,-532.12"/>
</g>
<!-- Node16 -->
<g id="node16" class="node">
<title>Node16</title>
<g id="a_node16"><a xlink:href="classcmd_1_1_command_base_1_1_cmd_n_o_p.html" target="_top" xlink:title="何もしない命令．">
<polygon fill="white" stroke="black" points="502.5,-688 502.5,-707 632.5,-707 632.5,-688 502.5,-688"/>
<text text-anchor="middle" x="567.5" y="-695" font-family="Helvetica,sans-Serif" font-size="10.00">CommandBase.CmdNOP</text>
</a>
</g>
</g>
<!-- Node8&#45;&gt;Node16 -->
<g id="edge15" class="edge">
<title>Node8&#45;&gt;Node16</title>
<path fill="none" stroke="midnightblue" d="M428.25,-535.79C433.34,-538.31 438.07,-541.48 442,-545.5 484.82,-589.28 433.57,-636.36 478,-678.5 484.84,-684.99 493.34,-689.48 502.34,-692.55"/>
<polygon fill="midnightblue" stroke="midnightblue" points="429.37,-532.47 418.79,-531.95 426.73,-538.96 429.37,-532.47"/>
</g>
<!-- Node18 -->
<g id="node18" class="node">
<title>Node18</title>
<g id="a_node18"><a xlink:href="classcmd_1_1_command_base_1_1_cmd_scan_loop.html" target="_top" xlink:title="スタックからファイル記述子をとり、その入力ストリームを走査する。">
<polygon fill="white" stroke="black" points="491.5,-650 491.5,-669 643.5,-669 643.5,-650 491.5,-650"/>
<text text-anchor="middle" x="567.5" y="-657" font-family="Helvetica,sans-Serif" font-size="10.00">CommandBase.CmdScanLoop</text>
</a>
</g>
</g>
<!-- Node8&#45;&gt;Node18 -->
<g id="edge17" class="edge">
<title>Node8&#45;&gt;Node18</title>
<path fill="none" stroke="midnightblue" d="M428.07,-536.28C433.16,-538.71 437.93,-541.73 442,-545.5 475.11,-576.2 443.76,-611.07 478,-640.5 482.41,-644.29 487.39,-647.38 492.69,-649.9"/>
<polygon fill="midnightblue" stroke="midnightblue" points="429.26,-532.98 418.67,-532.53 426.66,-539.48 429.26,-532.98"/>
</g>
<!-- Node19 -->
<g id="node19" class="node">
<title>Node19</title>
<g id="a_node19"><a xlink:href="classcmd_1_1_command_base_1_1_command_jump_base.html" target="_top" xlink:title="無条件ジャンプの命令">
<polygon fill="white" stroke="black" points="478,-612 478,-631 657,-631 657,-612 478,-612"/>
<text text-anchor="middle" x="567.5" y="-619" font-family="Helvetica,sans-Serif" font-size="10.00">CommandBase.CommandJumpBase</text>
</a>
</g>
</g>
<!-- Node8&#45;&gt;Node19 -->
<g id="edge18" class="edge">
<title>Node8&#45;&gt;Node19</title>
<path fill="none" stroke="midnightblue" d="M428.35,-537.57C433.21,-539.75 437.86,-542.37 442,-545.5 465.91,-563.56 453.43,-585.35 478,-602.5 483.54,-606.37 489.72,-609.47 496.16,-611.96"/>
<polygon fill="midnightblue" stroke="midnightblue" points="429.42,-534.23 418.83,-533.87 426.89,-540.76 429.42,-534.23"/>
</g>
<!-- Node25 -->
<g id="node25" class="node">
<title>Node25</title>
<g id="a_node25"><a xlink:href="classcmd_1_1_command_base_1_1_command_var.html" target="_top" xlink:title=" ">
<polygon fill="white" stroke="black" points="494.5,-574 494.5,-593 640.5,-593 640.5,-574 494.5,-574"/>
<text text-anchor="middle" x="567.5" y="-581" font-family="Helvetica,sans-Serif" font-size="10.00">CommandBase.CommandVar</text>
</a>
</g>
</g>
<!-- Node8&#45;&gt;Node25 -->
<g id="edge24" class="edge">
<title>Node8&#45;&gt;Node25</title>
<path fill="none" stroke="midnightblue" d="M423.98,-538.98C430.11,-540.98 436.25,-543.16 442,-545.5 458.76,-552.31 461,-558.32 478,-564.5 488.34,-568.26 499.64,-571.38 510.61,-573.93"/>
<polygon fill="midnightblue" stroke="midnightblue" points="425.02,-535.64 414.43,-536.01 422.94,-542.32 425.02,-535.64"/>
</g>
<!-- Node30 -->
<g id="node30" class="node">
<title>Node30</title>
<g id="a_node30"><a xlink:href="classcmd_1_1_command_boolean_1_1_cmd_bool_and.html" target="_top" xlink:title="論理積命令">
<polygon fill="white" stroke="black" points="488.5,-536 488.5,-555 646.5,-555 646.5,-536 488.5,-536"/>
<text text-anchor="middle" x="567.5" y="-543" font-family="Helvetica,sans-Serif" font-size="10.00">CommandBoolean.CmdBoolAnd</text>
</a>
</g>
</g>
<!-- Node8&#45;&gt;Node30 -->
<g id="edge29" class="edge">
<title>Node8&#45;&gt;Node30</title>
<path fill="none" stroke="midnightblue" d="M428.67,-531.64C447.01,-533.49 468.13,-535.61 488.24,-537.63"/>
<polygon fill="midnightblue" stroke="midnightblue" points="428.81,-528.14 418.51,-530.62 428.11,-535.11 428.81,-528.14"/>
</g>
<!-- Node31 -->
<g id="node31" class="node">
<title>Node31</title>
<g id="a_node31"><a xlink:href="classcmd_1_1_command_boolean_1_1_cmd_bool_not.html" target="_top" xlink:title="論理否定命令">
<polygon fill="white" stroke="black" points="489.5,-498 489.5,-517 645.5,-517 645.5,-498 489.5,-498"/>
<text text-anchor="middle" x="567.5" y="-505" font-family="Helvetica,sans-Serif" font-size="10.00">CommandBoolean.CmdBoolNot</text>
</a>
</g>
</g>
<!-- Node8&#45;&gt;Node31 -->
<g id="edge30" class="edge">
<title>Node8&#45;&gt;Node31</title>
<path fill="none" stroke="midnightblue" d="M428.58,-521.36C447.29,-519.48 468.9,-517.31 489.38,-515.25"/>
<polygon fill="midnightblue" stroke="midnightblue" points="428.11,-517.89 418.51,-522.38 428.81,-524.86 428.11,-517.89"/>
</g>
<!-- Node32 -->
<g id="node32" class="node">
<title>Node32</title>
<g id="a_node32"><a xlink:href="classcmd_1_1_command_boolean_1_1_cmd_bool_opr.html" target="_top" xlink:title="論理二項演算命令">
<polygon fill="white" stroke="black" points="489.5,-460 489.5,-479 645.5,-479 645.5,-460 489.5,-460"/>
<text text-anchor="middle" x="567.5" y="-467" font-family="Helvetica,sans-Serif" font-size="10.00">CommandBoolean.CmdBoolOpr</text>
</a>
</g>
</g>
<!-- Node8&#45;&gt;Node32 -->
<g id="edge31" class="edge">
<title>Node8&#45;&gt;Node32</title>
<path fill="none" stroke="midnightblue" d="M423.98,-514.02C430.11,-512.02 436.25,-509.84 442,-507.5 458.76,-500.69 461,-494.68 478,-488.5 488.34,-484.74 499.64,-481.62 510.61,-479.07"/>
<polygon fill="midnightblue" stroke="midnightblue" points="422.94,-510.68 414.43,-516.99 425.02,-517.36 422.94,-510.68"/>
</g>
<!-- Node33 -->
<g id="node33" class="node">
<title>Node33</title>
<g id="a_node33"><a xlink:href="classcmd_1_1_command_boolean_1_1_cmd_bool_or.html" target="_top" xlink:title="論理和命令">
<polygon fill="white" stroke="black" points="492,-422 492,-441 643,-441 643,-422 492,-422"/>
<text text-anchor="middle" x="567.5" y="-429" font-family="Helvetica,sans-Serif" font-size="10.00">CommandBoolean.CmdBoolOr</text>
</a>
</g>
</g>
<!-- Node8&#45;&gt;Node33 -->
<g id="edge32" class="edge">
<title>Node8&#45;&gt;Node33</title>
<path fill="none" stroke="midnightblue" d="M428.35,-515.43C433.21,-513.25 437.86,-510.63 442,-507.5 465.91,-489.44 453.43,-467.65 478,-450.5 483.54,-446.63 489.72,-443.53 496.16,-441.04"/>
<polygon fill="midnightblue" stroke="midnightblue" points="426.89,-512.24 418.83,-519.13 429.42,-518.77 426.89,-512.24"/>
</g>
<!-- Node34 -->
<g id="node34" class="node">
<title>Node34</title>
<g id="a_node34"><a xlink:href="classcmd_1_1_command_string_1_1_cmd_o_stream_store.html" target="_top" xlink:title="文字列変数にスタックトップの文字列を代入する．">
<polygon fill="white" stroke="black" points="492.5,-372.5 492.5,-402.5 642.5,-402.5 642.5,-372.5 492.5,-372.5"/>
<text text-anchor="start" x="500.5" y="-390.5" font-family="Helvetica,sans-Serif" font-size="10.00">CommandString.CmdOStream</text>
<text text-anchor="middle" x="567.5" y="-379.5" font-family="Helvetica,sans-Serif" font-size="10.00">Store</text>
</a>
</g>
</g>
<!-- Node8&#45;&gt;Node34 -->
<g id="edge33" class="edge">
<title>Node8&#45;&gt;Node34</title>
<path fill="none" stroke="midnightblue" d="M428.07,-516.72C433.16,-514.29 437.93,-511.27 442,-507.5 475.11,-476.8 444.72,-443.01 478,-412.5 482.24,-408.62 487.03,-405.33 492.15,-402.55"/>
<polygon fill="midnightblue" stroke="midnightblue" points="426.66,-513.52 418.67,-520.47 429.26,-520.02 426.66,-513.52"/>
</g>
<!-- Node35 -->
<g id="node35" class="node">
<title>Node35</title>
<g id="a_node35"><a xlink:href="classcmd_1_1_command_string_1_1_cmd_str_add.html" target="_top" xlink:title="文字列加算命令">
<polygon fill="white" stroke="black" points="497,-334 497,-353 638,-353 638,-334 497,-334"/>
<text text-anchor="middle" x="567.5" y="-341" font-family="Helvetica,sans-Serif" font-size="10.00">CommandString.CmdStrAdd</text>
</a>
</g>
</g>
<!-- Node8&#45;&gt;Node35 -->
<g id="edge34" class="edge">
<title>Node8&#45;&gt;Node35</title>
<path fill="none" stroke="midnightblue" d="M428.13,-517.39C433.29,-514.84 438.06,-511.61 442,-507.5 487.93,-459.55 430.31,-408.7 478,-362.5 483.42,-357.25 489.92,-353.3 496.9,-350.35"/>
<polygon fill="midnightblue" stroke="midnightblue" points="426.51,-514.27 418.55,-521.25 429.13,-520.76 426.51,-514.27"/>
</g>
<!-- Node36 -->
<g id="node36" class="node">
<title>Node36</title>
<g id="a_node36"><a xlink:href="classcmd_1_1_command_string_1_1_cmd_str_regex_match.html" target="_top" xlink:title="正規表現照合命令">
<polygon fill="white" stroke="black" points="491.5,-284.5 491.5,-314.5 643.5,-314.5 643.5,-284.5 491.5,-284.5"/>
<text text-anchor="start" x="499.5" y="-302.5" font-family="Helvetica,sans-Serif" font-size="10.00">CommandString.CmdStrRegex</text>
<text text-anchor="middle" x="567.5" y="-291.5" font-family="Helvetica,sans-Serif" font-size="10.00">Match</text>
</a>
</g>
</g>
<!-- Node8&#45;&gt;Node36 -->
<g id="edge35" class="edge">
<title>Node8&#45;&gt;Node36</title>
<path fill="none" stroke="midnightblue" d="M428.33,-517.57C433.45,-515 438.17,-511.71 442,-507.5 497.85,-446.25 421.81,-385.44 478,-324.5 481.9,-320.27 486.45,-316.74 491.39,-313.79"/>
<polygon fill="midnightblue" stroke="midnightblue" points="426.72,-514.45 418.79,-521.48 429.37,-520.93 426.72,-514.45"/>
</g>
<!-- Node37 -->
<g id="node37" class="node">
<title>Node37</title>
<g id="a_node37"><a xlink:href="classcmd_1_1_command_string_1_1_cmd_str_string_match.html" target="_top" xlink:title="部分文字列照合命令">
<polygon fill="white" stroke="black" points="493,-235.5 493,-265.5 642,-265.5 642,-235.5 493,-235.5"/>
<text text-anchor="start" x="501" y="-253.5" font-family="Helvetica,sans-Serif" font-size="10.00">CommandString.CmdStrString</text>
<text text-anchor="middle" x="567.5" y="-242.5" font-family="Helvetica,sans-Serif" font-size="10.00">Match</text>
</a>
</g>
</g>
<!-- Node8&#45;&gt;Node37 -->
<g id="edge36" class="edge">
<title>Node8&#45;&gt;Node37</title>
<path fill="none" stroke="midnightblue" d="M428.31,-517.83C433.47,-515.21 438.2,-511.84 442,-507.5 511,-428.64 408.15,-352.61 478,-274.5 482.24,-269.75 487.32,-265.9 492.87,-262.79"/>
<polygon fill="midnightblue" stroke="midnightblue" points="426.59,-514.75 418.65,-521.76 429.24,-521.23 426.59,-514.75"/>
</g>
<!-- Node38 -->
<g id="node38" class="node">
<title>Node38</title>
<g id="a_node38"><a xlink:href="classcmd_1_1_command_string_1_1_cmd_str_sys_var_load.html" target="_top" xlink:title="スタックトップにシステム変数値を取り出す．">
<polygon fill="white" stroke="black" points="479.5,-197 479.5,-216 655.5,-216 655.5,-197 479.5,-197"/>
<text text-anchor="middle" x="567.5" y="-204" font-family="Helvetica,sans-Serif" font-size="10.00">CommandString.CmdStrSysVarLoad</text>
</a>
</g>
</g>
<!-- Node8&#45;&gt;Node38 -->
<g id="edge37" class="edge">
<title>Node8&#45;&gt;Node38</title>
<path fill="none" stroke="midnightblue" d="M428.42,-517.92C433.57,-515.29 438.26,-511.89 442,-507.5 523.94,-411.32 392.51,-318.54 478,-225.5 481.4,-221.8 485.34,-218.72 489.62,-216.18"/>
<polygon fill="midnightblue" stroke="midnightblue" points="426.71,-514.84 418.79,-521.88 429.37,-521.32 426.71,-514.84"/>
</g>
<!-- Node39 -->
<g id="node39" class="node">
<title>Node39</title>
<g id="a_node39"><a xlink:href="classcmd_1_1_command_typed_1_1_cmd_conv.html" target="_top" xlink:title="OVMachine上のS型の値をT型の値に変換する命令．">
<polygon fill="white" stroke="black" points="488,-147.5 488,-177.5 647,-177.5 647,-147.5 488,-147.5"/>
<text text-anchor="start" x="496" y="-165.5" font-family="Helvetica,sans-Serif" font-size="10.00">CommandTyped&lt; T &gt;.CmdConv</text>
<text text-anchor="middle" x="567.5" y="-154.5" font-family="Helvetica,sans-Serif" font-size="10.00">&lt; S, T &gt;</text>
</a>
</g>
</g>
<!-- Node8&#45;&gt;Node39 -->
<g id="edge38" class="edge">
<title>Node8&#45;&gt;Node39</title>
<path fill="none" stroke="midnightblue" d="M427.9,-518.27C433.26,-515.59 438.15,-512.08 442,-507.5 534,-397.87 385.39,-296.62 478,-187.5 481.2,-183.73 484.93,-180.5 489,-177.74"/>
<polygon fill="midnightblue" stroke="midnightblue" points="426.5,-515.07 418.53,-522.05 429.11,-521.56 426.5,-515.07"/>
</g>
<!-- Node40 -->
<g id="node40" class="node">
<title>Node40</title>
<g id="a_node40"><a xlink:href="classcmd_1_1_command_typed_1_1_cmd_str2_type.html" target="_top" xlink:title="OVMachine上の文字列値をInteger値に変換する命令．">
<polygon fill="white" stroke="black" points="490.5,-98.5 490.5,-128.5 644.5,-128.5 644.5,-98.5 490.5,-98.5"/>
<text text-anchor="start" x="498.5" y="-116.5" font-family="Helvetica,sans-Serif" font-size="10.00">CommandTyped&lt; T &gt;.CmdStr2</text>
<text text-anchor="middle" x="567.5" y="-105.5" font-family="Helvetica,sans-Serif" font-size="10.00">Type&lt; T &gt;</text>
</a>
</g>
</g>
<!-- Node8&#45;&gt;Node40 -->
<g id="edge39" class="edge">
<title>Node8&#45;&gt;Node40</title>
<path fill="none" stroke="midnightblue" d="M427.97,-518.33C433.32,-515.64 438.19,-512.11 442,-507.5 547.25,-380.14 371.37,-263.71 478,-137.5 481.49,-133.37 485.62,-129.91 490.15,-127.01"/>
<polygon fill="midnightblue" stroke="midnightblue" points="426.56,-515.12 418.6,-522.11 429.19,-521.61 426.56,-515.12"/>
</g>
<!-- Node41 -->
<g id="node41" class="node">
<title>Node41</title>
<g id="a_node41"><a xlink:href="classcmd_1_1_command_typed_1_1_cmd_type_const.html" target="_top" xlink:title="スタックトップに整数定数値をおく命令">
<polygon fill="white" stroke="black" points="489,-49.5 489,-79.5 646,-79.5 646,-49.5 489,-49.5"/>
<text text-anchor="start" x="497" y="-67.5" font-family="Helvetica,sans-Serif" font-size="10.00">CommandTyped&lt; T &gt;.CmdType</text>
<text text-anchor="middle" x="567.5" y="-56.5" font-family="Helvetica,sans-Serif" font-size="10.00">Const&lt; T &gt;</text>
</a>
</g>
</g>
<!-- Node8&#45;&gt;Node41 -->
<g id="edge40" class="edge">
<title>Node8&#45;&gt;Node41</title>
<path fill="none" stroke="midnightblue" d="M428.02,-518.37C433.36,-515.67 438.21,-512.13 442,-507.5 501.13,-435.13 418.09,-160.23 478,-88.5 481.16,-84.71 484.86,-81.49 488.91,-78.75"/>
<polygon fill="midnightblue" stroke="midnightblue" points="426.62,-515.16 418.66,-522.16 429.24,-521.65 426.62,-515.16"/>
</g>
<!-- Node42 -->
<g id="node42" class="node">
<title>Node42</title>
<g id="a_node42"><a xlink:href="classcmd_1_1_command_typed_1_1_cmd_type_opr.html" target="_top" xlink:title="二つの型Tの値をもらい、型Rの値を返す二項演算演算命令。">
<polygon fill="white" stroke="black" points="489,-0.5 489,-30.5 646,-30.5 646,-0.5 489,-0.5"/>
<text text-anchor="start" x="497" y="-18.5" font-family="Helvetica,sans-Serif" font-size="10.00">CommandTyped&lt; T &gt;.CmdType</text>
<text text-anchor="middle" x="567.5" y="-7.5" font-family="Helvetica,sans-Serif" font-size="10.00">Opr&lt; T, R &gt;</text>
</a>
</g>
</g>
<!-- Node8&#45;&gt;Node42 -->
<g id="edge41" class="edge">
<title>Node8&#45;&gt;Node42</title>
<path fill="none" stroke="midnightblue" d="M428.06,-518.4C433.39,-515.7 438.24,-512.15 442,-507.5 507.63,-426.43 411.49,-119.86 478,-39.5 481.15,-35.7 484.83,-32.47 488.87,-29.72"/>
<polygon fill="midnightblue" stroke="midnightblue" points="426.66,-515.19 418.71,-522.2 429.29,-521.68 426.66,-515.19"/>
</g>
<!-- Node17 -->
<g id="node17" class="node">
<title>Node17</title>
<g id="a_node17"><a xlink:href="classcmd_1_1_command_base_1_1_cmd_u_n_d_e_f.html" target="_top" xlink:title="何もしない命令．">
<polygon fill="white" stroke="black" points="710,-745 710,-764 853,-764 853,-745 710,-745"/>
<text text-anchor="middle" x="781.5" y="-752" font-family="Helvetica,sans-Serif" font-size="10.00">CommandBase.CmdUNDEF</text>
</a>
</g>
</g>
<!-- Node16&#45;&gt;Node17 -->
<g id="edge16" class="edge">
<title>Node16&#45;&gt;Node17</title>
<path fill="none" stroke="midnightblue" d="M634.22,-709.49C641.98,-711.53 649.73,-713.86 657,-716.5 674,-722.68 676,-729.3 693,-735.5 703.37,-739.28 714.72,-742.43 725.7,-745"/>
<polygon fill="midnightblue" stroke="midnightblue" points="634.94,-706.07 624.39,-707.07 633.26,-712.86 634.94,-706.07"/>
</g>
<!-- Node20 -->
<g id="node20" class="node">
<title>Node20</title>
<g id="a_node20"><a xlink:href="classcmd_1_1_command_base_1_1_cmd_jmp.html" target="_top" xlink:title="無条件ジャンプの命令">
<polygon fill="white" stroke="black" points="718,-707 718,-726 845,-726 845,-707 718,-707"/>
<text text-anchor="middle" x="781.5" y="-714" font-family="Helvetica,sans-Serif" font-size="10.00">CommandBase.CmdJmp</text>
</a>
</g>
</g>
<!-- Node19&#45;&gt;Node20 -->
<g id="edge19" class="edge">
<title>Node19&#45;&gt;Node20</title>
<path fill="none" stroke="midnightblue" d="M648.26,-635.25C651.3,-636.82 654.23,-638.57 657,-640.5 681.57,-657.65 668.45,-680.32 693,-697.5 700.39,-702.67 708.92,-706.47 717.7,-709.26"/>
<polygon fill="midnightblue" stroke="midnightblue" points="649.4,-631.93 638.84,-631.04 646.54,-638.32 649.4,-631.93"/>
</g>
<!-- Node21 -->
<g id="node21" class="node">
<title>Node21</title>
<g id="a_node21"><a xlink:href="classcmd_1_1_command_base_1_1_cmd_jmp_f_a_l_s_e.html" target="_top" xlink:title="偽ならばジャンプの命令">
<polygon fill="white" stroke="black" points="702.5,-669 702.5,-688 860.5,-688 860.5,-669 702.5,-669"/>
<text text-anchor="middle" x="781.5" y="-676" font-family="Helvetica,sans-Serif" font-size="10.00">CommandBase.CmdJmpFALSE</text>
</a>
</g>
</g>
<!-- Node19&#45;&gt;Node21 -->
<g id="edge20" class="edge">
<title>Node19&#45;&gt;Node21</title>
<path fill="none" stroke="midnightblue" d="M634.22,-633.49C641.98,-635.53 649.73,-637.86 657,-640.5 674,-646.68 676,-653.3 693,-659.5 703.37,-663.28 714.72,-666.43 725.7,-669"/>
<polygon fill="midnightblue" stroke="midnightblue" points="634.94,-630.07 624.39,-631.07 633.26,-636.86 634.94,-630.07"/>
</g>
<!-- Node22 -->
<g id="node22" class="node">
<title>Node22</title>
<g id="a_node22"><a xlink:href="classcmd_1_1_command_base_1_1_cmd_jmp_n_o_n_z_e_r_o.html" target="_top" xlink:title="スタックの値が非0ならばジャンプの命令">
<polygon fill="white" stroke="black" points="693,-631 693,-650 870,-650 870,-631 693,-631"/>
<text text-anchor="middle" x="781.5" y="-638" font-family="Helvetica,sans-Serif" font-size="10.00">CommandBase.CmdJmpNONZERO</text>
</a>
</g>
</g>
<!-- Node19&#45;&gt;Node22 -->
<g id="edge21" class="edge">
<title>Node19&#45;&gt;Node22</title>
<path fill="none" stroke="midnightblue" d="M667.19,-630.34C675.76,-631.11 684.39,-631.89 692.86,-632.65"/>
<polygon fill="midnightblue" stroke="midnightblue" points="667.45,-626.85 657.18,-629.45 666.83,-633.83 667.45,-626.85"/>
</g>
<!-- Node23 -->
<g id="node23" class="node">
<title>Node23</title>
<g id="a_node23"><a xlink:href="classcmd_1_1_command_base_1_1_cmd_jmp_t_r_u_e.html" target="_top" xlink:title="真ならばジャンプの命令">
<polygon fill="white" stroke="black" points="704,-593 704,-612 859,-612 859,-593 704,-593"/>
<text text-anchor="middle" x="781.5" y="-600" font-family="Helvetica,sans-Serif" font-size="10.00">CommandBase.CmdJmpTRUE</text>
</a>
</g>
</g>
<!-- Node19&#45;&gt;Node23 -->
<g id="edge22" class="edge">
<title>Node19&#45;&gt;Node23</title>
<path fill="none" stroke="midnightblue" d="M667.44,-612.63C679.71,-611.53 692.1,-610.42 703.96,-609.36"/>
<polygon fill="midnightblue" stroke="midnightblue" points="666.83,-609.17 657.18,-613.55 667.45,-616.15 666.83,-609.17"/>
</g>
<!-- Node24 -->
<g id="node24" class="node">
<title>Node24</title>
<g id="a_node24"><a xlink:href="classcmd_1_1_command_base_1_1_cmd_jmp_z_e_r_o.html" target="_top" xlink:title="スタックの値が0ならばジャンプの命令">
<polygon fill="white" stroke="black" points="704,-555 704,-574 859,-574 859,-555 704,-555"/>
<text text-anchor="middle" x="781.5" y="-562" font-family="Helvetica,sans-Serif" font-size="10.00">CommandBase.CmdJmpZERO</text>
</a>
</g>
</g>
<!-- Node19&#45;&gt;Node24 -->
<g id="edge23" class="edge">
<title>Node19&#45;&gt;Node24</title>
<path fill="none" stroke="midnightblue" d="M634.22,-609.51C641.98,-607.47 649.73,-605.14 657,-602.5 674,-596.32 676,-589.7 693,-583.5 703.37,-579.72 714.72,-576.57 725.7,-574"/>
<polygon fill="midnightblue" stroke="midnightblue" points="633.26,-606.14 624.39,-611.93 634.94,-612.93 633.26,-606.14"/>
</g>
<!-- Node26 -->
<g id="node26" class="node">
<title>Node26</title>
<g id="a_node26"><a xlink:href="classcmd_1_1_command_base_1_1_cmd_load.html" target="_top" xlink:title=" ">
<polygon fill="white" stroke="black" points="717,-517 717,-536 846,-536 846,-517 717,-517"/>
<text text-anchor="middle" x="781.5" y="-524" font-family="Helvetica,sans-Serif" font-size="10.00">CommandBase.CmdLoad</text>
</a>
</g>
</g>
<!-- Node25&#45;&gt;Node26 -->
<g id="edge25" class="edge">
<title>Node25&#45;&gt;Node26</title>
<path fill="none" stroke="midnightblue" d="M634.22,-571.51C641.98,-569.47 649.73,-567.14 657,-564.5 674,-558.32 676,-551.7 693,-545.5 703.37,-541.72 714.72,-538.57 725.7,-536"/>
<polygon fill="midnightblue" stroke="midnightblue" points="633.26,-568.14 624.39,-573.93 634.94,-574.93 633.26,-568.14"/>
</g>
<!-- Node28 -->
<g id="node28" class="node">
<title>Node28</title>
<g id="a_node28"><a xlink:href="classcmd_1_1_command_base_1_1_cmd_store.html" target="_top" xlink:title=" ">
<polygon fill="white" stroke="black" points="716,-479 716,-498 847,-498 847,-479 716,-479"/>
<text text-anchor="middle" x="781.5" y="-486" font-family="Helvetica,sans-Serif" font-size="10.00">CommandBase.CmdStore</text>
</a>
</g>
</g>
<!-- Node25&#45;&gt;Node28 -->
<g id="edge27" class="edge">
<title>Node25&#45;&gt;Node28</title>
<path fill="none" stroke="midnightblue" d="M648.26,-569.75C651.3,-568.18 654.23,-566.43 657,-564.5 681.57,-547.35 668.45,-524.68 693,-507.5 699.88,-502.69 707.75,-499.06 715.88,-496.33"/>
<polygon fill="midnightblue" stroke="midnightblue" points="646.54,-566.68 638.84,-573.96 649.4,-573.07 646.54,-566.68"/>
</g>
<!-- Node27 -->
<g id="node27" class="node">
<title>Node27</title>
<g id="a_node27"><a xlink:href="classcmd_1_1_command_base_1_1_cmd_get_elem_end.html" target="_top" xlink:title="テキスト読み出し命令の一つ:任意のノードの要素テキストを取得して，文字列型の変数に格納する．">
<polygon fill="white" stroke="black" points="906,-517 906,-536 1070,-536 1070,-517 906,-517"/>
<text text-anchor="middle" x="988" y="-524" font-family="Helvetica,sans-Serif" font-size="10.00">CommandBase.CmdGetElemEnd</text>
</a>
</g>
</g>
<!-- Node26&#45;&gt;Node27 -->
<g id="edge26" class="edge">
<title>Node26&#45;&gt;Node27</title>
<path fill="none" stroke="midnightblue" d="M856.44,-526.5C872.45,-526.5 889.46,-526.5 905.74,-526.5"/>
<polygon fill="midnightblue" stroke="midnightblue" points="856.08,-523 846.08,-526.5 856.08,-530 856.08,-523"/>
</g>
<!-- Node29 -->
<g id="node29" class="node">
<title>Node29</title>
<g id="a_node29"><a xlink:href="classcmd_1_1_command_base_1_1_cmd_set_elem_beg.html" target="_top" xlink:title="テキスト読み出し命令の一つ:任意のノードの要素テキストの開始位置を取得して，整数型の変数に格納する．">
<polygon fill="white" stroke="black" points="906.5,-479 906.5,-498 1069.5,-498 1069.5,-479 906.5,-479"/>
<text text-anchor="middle" x="988" y="-486" font-family="Helvetica,sans-Serif" font-size="10.00">CommandBase.CmdSetElemBeg</text>
</a>
</g>
</g>
<!-- Node28&#45;&gt;Node29 -->
<g id="edge28" class="edge">
<title>Node28&#45;&gt;Node29</title>
<path fill="none" stroke="midnightblue" d="M857.47,-488.5C873.32,-488.5 890.12,-488.5 906.18,-488.5"/>
<polygon fill="midnightblue" stroke="midnightblue" points="857.21,-485 847.21,-488.5 857.21,-492 857.21,-485"/>
</g>
</g>
</svg>
        <g id="navigator" transform="translate(0 0)" fill="#404254">
                <rect fill="#f2f5e9" fill-opacity="0.5" stroke="#606060" stroke-width=".5" x="0" y="0" width="60" height="60"/>
                <use id="zoomplus" xlink:href="#zoomPlus" x="17" y="9" onmousedown="handleZoom(evt,'in')"/>
                <use id="zoomminus" xlink:href="#zoomMin" x="42" y="9" onmousedown="handleZoom(evt,'out')"/>
                <use id="reset" xlink:href="#resetDef" x="30" y="36" onmousedown="handleReset()"/>
                <g id="arrowUp" xlink:href="#dirArrow" transform="translate(30 24)" onmousedown="handlePan(0,-1)">
                  <use xlink:href="#rim" fill="#404040">
                        <set attributeName="fill" to="#808080" begin="arrowUp.mouseover" end="arrowUp.mouseout"/>
                  </use>
                  <path fill="none" stroke="white" stroke-width="1.5" d="M0,-3.0v7 M-2.5,-0.5L0,-3.0L2.5,-0.5"/>
                </g>
                <g id="arrowRight" xlink:href="#dirArrow" transform="rotate(90) translate(36 -43)" onmousedown="handlePan(1,0)">
                  <use xlink:href="#rim" fill="#404040">
                        <set attributeName="fill" to="#808080" begin="arrowRight.mouseover" end="arrowRight.mouseout"/>
                  </use>
                  <path fill="none" stroke="white" stroke-width="1.5" d="M0,-3.0v7 M-2.5,-0.5L0,-3.0L2.5,-0.5"/>
                </g>
                <g id="arrowDown" xlink:href="#dirArrow" transform="rotate(180) translate(-30 -48)" onmousedown="handlePan(0,1)">
                  <use xlink:href="#rim" fill="#404040">
                        <set attributeName="fill" to="#808080" begin="arrowDown.mouseover" end="arrowDown.mouseout"/>
                  </use>
                  <path fill="none" stroke="white" stroke-width="1.5" d="M0,-3.0v7 M-2.5,-0.5L0,-3.0L2.5,-0.5"/>
                </g>
                <g id="arrowLeft" xlink:href="#dirArrow" transform="rotate(270) translate(-36 17)" onmousedown="handlePan(-1,0)">
                  <use xlink:href="#rim" fill="#404040">
                        <set attributeName="fill" to="#808080" begin="arrowLeft.mouseover" end="arrowLeft.mouseout"/>
                  </use>
                  <path fill="none" stroke="white" stroke-width="1.5" d="M0,-3.0v7 M-2.5,-0.5L0,-3.0L2.5,-0.5"/>
                </g>
        </g>
        <svg viewBox="0 0 15 15" width="100%" height="30px" preserveAspectRatio="xMaxYMin meet">
         <g id="arrow_out" transform="scale(0.3 0.3)">
          <a xlink:href="interfaceformat_1_1_x_formattable_1_1_custom_formattable__inherit__graph_org.svg" target="_base">
           <rect id="button" ry="5" rx="5" y="6" x="6" height="38" width="38"
                fill="#f2f5e9" fill-opacity="0.5" stroke="#606060" stroke-width="1.0"/>
           <path id="arrow"
             d="M 11.500037,31.436501 C 11.940474,20.09759 22.043105,11.32322 32.158766,21.979434 L 37.068811,17.246167 C 37.068811,17.246167 37.088388,32 37.088388,32 L 22.160133,31.978069 C 22.160133,31.978069 26.997745,27.140456 26.997745,27.140456 C 18.528582,18.264221 13.291696,25.230495 11.500037,31.436501 z"
             style="fill:#404040;"/>
          </a>
         </g>
        </svg>
</svg>
