<?xml version="1.0" encoding="UTF-8" standalone="no"?>
<!DOCTYPE svg PUBLIC "-//W3C//DTD SVG 1.1//EN"
 "http://www.w3.org/Graphics/SVG/1.1/DTD/svg11.dtd">
<!-- Generated by graphviz version 2.47.1 (20210417.1919)
 -->
<!-- Title: Stackable Pages: 1 -->
<svg width="202pt" height="84pt"
 viewBox="0.00 0.00 202.00 84.00" xmlns="http://www.w3.org/2000/svg" xmlns:xlink="http://www.w3.org/1999/xlink">
<g id="graph0" class="graph" transform="scale(1 1) rotate(0) translate(4 80)">
<title>Stackable</title>
<polygon fill="white" stroke="transparent" points="-4,4 -4,-80 198,-80 198,4 -4,4"/>
<!-- Node1 -->
<g id="node1" class="node">
<title>Node1</title>
<g id="a_node1"><a xlink:title="レベル付きスタックを実装するための最小限のインタフェース">
<polygon fill="#bfbfbf" stroke="black" points="66.5,-56.5 66.5,-75.5 126.5,-75.5 126.5,-56.5 66.5,-56.5"/>
<text text-anchor="middle" x="96.5" y="-63.5" font-family="Helvetica,sans-Serif" font-size="10.00">Stackable</text>
</a>
</g>
</g>
<!-- Node2 -->
<g id="node2" class="node">
<title>Node2</title>
<g id="a_node2"><a xlink:href="classutil_1_1_auto_stack.html" target="_top" xlink:title="再利用可能な型Sのオブジェクトを要素に持つスタックの実装.">
<polygon fill="white" stroke="black" points="0,-0.5 0,-19.5 87,-19.5 87,-0.5 0,-0.5"/>
<text text-anchor="middle" x="43.5" y="-7.5" font-family="Helvetica,sans-Serif" font-size="10.00">AutoStack&lt; S &gt;</text>
</a>
</g>
</g>
<!-- Node1&#45;&gt;Node2 -->
<g id="edge1" class="edge">
<title>Node1&#45;&gt;Node2</title>
<path fill="none" stroke="midnightblue" d="M80.52,-48.72C71.18,-39.2 59.75,-27.56 52.09,-19.75"/>
<polygon fill="midnightblue" stroke="midnightblue" points="78.25,-51.4 87.75,-56.08 83.24,-46.49 78.25,-51.4"/>
</g>
<!-- Node3 -->
<g id="node3" class="node">
<title>Node3</title>
<g id="a_node3"><a xlink:href="classutil_1_1_stack_base.html" target="_top" xlink:title="型 T の要素を保持する汎用型のスタックの基本実装.">
<polygon fill="white" stroke="black" points="105,-0.5 105,-19.5 194,-19.5 194,-0.5 105,-0.5"/>
<text text-anchor="middle" x="149.5" y="-7.5" font-family="Helvetica,sans-Serif" font-size="10.00">StackBase&lt; T &gt;</text>
</a>
</g>
</g>
<!-- Node1&#45;&gt;Node3 -->
<g id="edge2" class="edge">
<title>Node1&#45;&gt;Node3</title>
<path fill="none" stroke="midnightblue" d="M112.48,-48.72C121.82,-39.2 133.25,-27.56 140.91,-19.75"/>
<polygon fill="midnightblue" stroke="midnightblue" points="109.76,-46.49 105.25,-56.08 114.75,-51.4 109.76,-46.49"/>
</g>
</g>
</svg>
