<?xml version="1.0" encoding="UTF-8" standalone="no"?>
<!DOCTYPE svg PUBLIC "-//W3C//DTD SVG 1.1//EN"
 "http://www.w3.org/Graphics/SVG/1.1/DTD/svg11.dtd">
<!-- Generated by graphviz version 2.47.1 (20210417.1919)
 -->
<!-- Title: child Pages: 1 -->
<svg width="215pt" height="116pt"
 viewBox="0.00 0.00 215.00 116.00" xmlns="http://www.w3.org/2000/svg" xmlns:xlink="http://www.w3.org/1999/xlink">
<g id="graph0" class="graph" transform="scale(1 1) rotate(0) translate(4 112)">
<title>child</title>
<polygon fill="white" stroke="transparent" points="-4,4 -4,-112 211,-112 211,4 -4,4"/>
<!-- Node1 -->
<g id="node1" class="node">
<title>Node1</title>
<g id="a_node1"><a xlink:title=" ">
<polygon fill="#bfbfbf" stroke="black" points="170,-44.5 170,-63.5 207,-63.5 207,-44.5 170,-44.5"/>
<text text-anchor="middle" x="188.5" y="-51.5" font-family="Helvetica,sans-Serif" font-size="10.00">child</text>
</a>
</g>
</g>
<!-- Node2 -->
<g id="node2" class="node">
<title>Node2</title>
<g id="a_node2"><a xlink:href="classtype_1_1_arrow_type.html#a2eae42fa62eb0ae3c0908c1873b0e926" target="_top" xlink:title="コンストラクタ">
<polygon fill="white" stroke="black" points="0,-88.5 0,-107.5 134,-107.5 134,-88.5 0,-88.5"/>
<text text-anchor="middle" x="67" y="-95.5" font-family="Helvetica,sans-Serif" font-size="10.00">type.ArrowType.ArrowType</text>
</a>
</g>
</g>
<!-- Node1&#45;&gt;Node2 -->
<g id="edge1" class="edge">
<title>Node1&#45;&gt;Node2</title>
<path fill="none" stroke="midnightblue" d="M160.91,-67.43C152.43,-71.44 142.93,-75.65 134,-79 124.73,-82.47 114.54,-85.69 104.99,-88.46"/>
<polygon fill="midnightblue" stroke="midnightblue" points="162.49,-70.55 169.97,-63.04 159.44,-64.25 162.49,-70.55"/>
</g>
<!-- Node3 -->
<g id="node3" class="node">
<title>Node3</title>
<g id="a_node3"><a xlink:href="classast_1_1_ast_data_reader_1_1_ast_var_reader.html#a80cf572a464f084f2f6f24ad5873a147" target="_top" xlink:title="指定された変数参照をもつ読み出し変数オブジェクトを生成する．">
<polygon fill="white" stroke="black" points="1,-39 1,-69 133,-69 133,-39 1,-39"/>
<text text-anchor="start" x="9" y="-57" font-family="Helvetica,sans-Serif" font-size="10.00">ast.AstDataReader.AstVar</text>
<text text-anchor="middle" x="67" y="-46" font-family="Helvetica,sans-Serif" font-size="10.00">Reader.AstVarReader</text>
</a>
</g>
</g>
<!-- Node1&#45;&gt;Node3 -->
<g id="edge2" class="edge">
<title>Node1&#45;&gt;Node3</title>
<path fill="none" stroke="midnightblue" d="M159.64,-54C151.58,-54 142.43,-54 133.1,-54"/>
<polygon fill="midnightblue" stroke="midnightblue" points="159.87,-57.5 169.87,-54 159.87,-50.5 159.87,-57.5"/>
</g>
<!-- Node4 -->
<g id="node4" class="node">
<title>Node4</title>
<g id="a_node4"><a xlink:href="classcompile_1_1_x_c_typing.html#a52e5d51f022fdb387cbee193c563ea15" target="_top" xlink:title="与えられたノードの出力型が上限itemUpperを持つよう部分式を型付けする.">
<polygon fill="white" stroke="black" points="0,-0.5 0,-19.5 134,-19.5 134,-0.5 0,-0.5"/>
<text text-anchor="middle" x="67" y="-7.5" font-family="Helvetica,sans-Serif" font-size="10.00">compile.XCTyping.recType</text>
</a>
</g>
</g>
<!-- Node1&#45;&gt;Node4 -->
<g id="edge3" class="edge">
<title>Node1&#45;&gt;Node4</title>
<path fill="none" stroke="midnightblue" d="M160.56,-41.11C152.15,-37.3 142.77,-33.28 134,-30 123.91,-26.22 112.75,-22.63 102.53,-19.56"/>
<polygon fill="midnightblue" stroke="midnightblue" points="159.36,-44.41 169.9,-45.42 162.29,-38.05 159.36,-44.41"/>
</g>
</g>
</svg>
