<?xml version="1.0" encoding="UTF-8" standalone="no"?>
<!DOCTYPE svg PUBLIC "-//W3C//DTD SVG 1.1//EN"
 "http://www.w3.org/Graphics/SVG/1.1/DTD/svg11.dtd">
<!-- Generated by graphviz version 2.47.1 (20210417.1919)
 -->
<!-- Title: XFormattable.Navigatable Pages: 1 -->
<svg width="889pt" height="845pt"
 viewBox="0.00 0.00 889.00 845.00" xmlns="http://www.w3.org/2000/svg" xmlns:xlink="http://www.w3.org/1999/xlink">
<g id="graph0" class="graph" transform="scale(1 1) rotate(0) translate(4 841)">
<title>XFormattable.Navigatable</title>
<polygon fill="white" stroke="transparent" points="-4,4 -4,-841 885,-841 885,4 -4,4"/>
<!-- Node1 -->
<g id="node1" class="node">
<title>Node1</title>
<g id="a_node1"><a xlink:title="木構造の分岐ノードとして清書可能なオブジェクトのクラス">
<polygon fill="#bfbfbf" stroke="black" points="111,-532.5 111,-551.5 241,-551.5 241,-532.5 111,-532.5"/>
<text text-anchor="middle" x="176" y="-539.5" font-family="Helvetica,sans-Serif" font-size="10.00">XFormattable.Navigatable</text>
</a>
</g>
</g>
<!-- Node3 -->
<g id="node3" class="node">
<title>Node3</title>
<g id="a_node3"><a xlink:href="classast_1_1_ast_data_writer.html" target="_top" xlink:title="局所変数環境からの値を書き込むクラス">
<polygon fill="white" stroke="black" points="587.5,-722.5 587.5,-741.5 665.5,-741.5 665.5,-722.5 587.5,-722.5"/>
<text text-anchor="middle" x="626.5" y="-729.5" font-family="Helvetica,sans-Serif" font-size="10.00">AstDataWriter</text>
</a>
</g>
</g>
<!-- Node1&#45;&gt;Node3 -->
<g id="edge2" class="edge">
<title>Node1&#45;&gt;Node3</title>
<path fill="none" stroke="midnightblue" d="M190.17,-559.95C218.15,-596.47 287.57,-678.81 368,-713 440.81,-743.95 535.63,-741.25 587.49,-736.6"/>
<polygon fill="midnightblue" stroke="midnightblue" points="192.78,-557.6 183.97,-551.71 187.19,-561.81 192.78,-557.6"/>
</g>
<!-- Node9 -->
<g id="node9" class="node">
<title>Node9</title>
<g id="a_node9"><a xlink:href="classast_1_1_ast_node.html" target="_top" xlink:title="タグなしの順アクセスの子供をもてる抽象構文木のノードのクラス。">
<polygon fill="white" stroke="black" points="277,-342.5 277,-361.5 332,-361.5 332,-342.5 277,-342.5"/>
<text text-anchor="middle" x="304.5" y="-349.5" font-family="Helvetica,sans-Serif" font-size="10.00">AstNode</text>
</a>
</g>
</g>
<!-- Node1&#45;&gt;Node9 -->
<g id="edge8" class="edge">
<title>Node1&#45;&gt;Node9</title>
<path fill="none" stroke="midnightblue" d="M189.03,-523.94C215.22,-484.6 276.68,-392.28 296.91,-361.89"/>
<polygon fill="midnightblue" stroke="midnightblue" points="186.08,-522.05 183.45,-532.32 191.9,-525.93 186.08,-522.05"/>
</g>
<!-- Node2 -->
<g id="node2" class="node">
<title>Node2</title>
<g id="a_node2"><a xlink:href="interfaceformat_1_1_x_formattable.html" target="_top" xlink:title="入れ子フォーマット出力可能なオブジェクトのインタフェース。">
<polygon fill="white" stroke="black" points="0,-532.5 0,-551.5 75,-551.5 75,-532.5 0,-532.5"/>
<text text-anchor="middle" x="37.5" y="-539.5" font-family="Helvetica,sans-Serif" font-size="10.00">XFormattable</text>
</a>
</g>
</g>
<!-- Node2&#45;&gt;Node1 -->
<g id="edge1" class="edge">
<title>Node2&#45;&gt;Node1</title>
<path fill="none" stroke="midnightblue" d="M85.26,-542C93.53,-542 102.27,-542 110.92,-542"/>
<polygon fill="midnightblue" stroke="midnightblue" points="85.08,-538.5 75.08,-542 85.08,-545.5 85.08,-538.5"/>
</g>
<!-- Node4 -->
<g id="node4" class="node">
<title>Node4</title>
<g id="a_node4"><a xlink:href="classast_1_1_ast_data_writer_1_1_writer_boolean.html" target="_top" xlink:title="ブール型の値をもつ局所変数">
<polygon fill="white" stroke="black" points="738,-817.5 738,-836.5 879,-836.5 879,-817.5 738,-817.5"/>
<text text-anchor="middle" x="808.5" y="-824.5" font-family="Helvetica,sans-Serif" font-size="10.00">AstDataWriter.WriterBoolean</text>
</a>
</g>
</g>
<!-- Node3&#45;&gt;Node4 -->
<g id="edge3" class="edge">
<title>Node3&#45;&gt;Node4</title>
<path fill="none" stroke="midnightblue" d="M646.08,-748.12C666.74,-765.26 701.73,-792.06 736,-808 744.15,-811.79 753.19,-814.93 762.02,-817.49"/>
<polygon fill="midnightblue" stroke="midnightblue" points="648.3,-745.41 638.4,-741.63 643.79,-750.76 648.3,-745.41"/>
</g>
<!-- Node5 -->
<g id="node5" class="node">
<title>Node5</title>
<g id="a_node5"><a xlink:href="classast_1_1_ast_data_writer_1_1_writer_double.html" target="_top" xlink:title="Double型の値をもつ局所変数">
<polygon fill="white" stroke="black" points="740,-779.5 740,-798.5 877,-798.5 877,-779.5 740,-779.5"/>
<text text-anchor="middle" x="808.5" y="-786.5" font-family="Helvetica,sans-Serif" font-size="10.00">AstDataWriter.WriterDouble</text>
</a>
</g>
</g>
<!-- Node3&#45;&gt;Node5 -->
<g id="edge4" class="edge">
<title>Node3&#45;&gt;Node5</title>
<path fill="none" stroke="midnightblue" d="M662.7,-745.1C683.82,-752.77 711.3,-762.4 736,-770 746.8,-773.32 758.63,-776.61 769.5,-779.48"/>
<polygon fill="midnightblue" stroke="midnightblue" points="663.78,-741.77 653.18,-741.62 661.37,-748.34 663.78,-741.77"/>
</g>
<!-- Node6 -->
<g id="node6" class="node">
<title>Node6</title>
<g id="a_node6"><a xlink:href="classast_1_1_ast_data_writer_1_1_writer_integer.html" target="_top" xlink:title="Integer型の値をもつ局所変数">
<polygon fill="white" stroke="black" points="740.5,-741.5 740.5,-760.5 876.5,-760.5 876.5,-741.5 740.5,-741.5"/>
<text text-anchor="middle" x="808.5" y="-748.5" font-family="Helvetica,sans-Serif" font-size="10.00">AstDataWriter.WriterInteger</text>
</a>
</g>
</g>
<!-- Node3&#45;&gt;Node6 -->
<g id="edge5" class="edge">
<title>Node3&#45;&gt;Node6</title>
<path fill="none" stroke="midnightblue" d="M675.7,-737.09C695.53,-739.18 718.84,-741.64 740.3,-743.91"/>
<polygon fill="midnightblue" stroke="midnightblue" points="675.99,-733.6 665.67,-736.03 675.25,-740.56 675.99,-733.6"/>
</g>
<!-- Node7 -->
<g id="node7" class="node">
<title>Node7</title>
<g id="a_node7"><a xlink:href="classast_1_1_ast_data_writer_1_1_writer_o_stream.html" target="_top" xlink:title="String型の値をもつ局所変数">
<polygon fill="white" stroke="black" points="736,-703.5 736,-722.5 881,-722.5 881,-703.5 736,-703.5"/>
<text text-anchor="middle" x="808.5" y="-710.5" font-family="Helvetica,sans-Serif" font-size="10.00">AstDataWriter.WriterOStream</text>
</a>
</g>
</g>
<!-- Node3&#45;&gt;Node7 -->
<g id="edge6" class="edge">
<title>Node3&#45;&gt;Node7</title>
<path fill="none" stroke="midnightblue" d="M675.62,-726.92C694.14,-724.97 715.7,-722.69 735.96,-720.55"/>
<polygon fill="midnightblue" stroke="midnightblue" points="675.25,-723.44 665.67,-727.97 675.99,-730.4 675.25,-723.44"/>
</g>
<!-- Node8 -->
<g id="node8" class="node">
<title>Node8</title>
<g id="a_node8"><a xlink:href="classast_1_1_ast_data_writer_1_1_writer_string.html" target="_top" xlink:title="String型の値をもつ局所変数">
<polygon fill="white" stroke="black" points="743,-665.5 743,-684.5 874,-684.5 874,-665.5 743,-665.5"/>
<text text-anchor="middle" x="808.5" y="-672.5" font-family="Helvetica,sans-Serif" font-size="10.00">AstDataWriter.WriterString</text>
</a>
</g>
</g>
<!-- Node3&#45;&gt;Node8 -->
<g id="edge7" class="edge">
<title>Node3&#45;&gt;Node8</title>
<path fill="none" stroke="midnightblue" d="M675.31,-721.14C683.65,-718.77 692.16,-716.05 700,-713 716.86,-706.44 719.15,-700.59 736,-694 745.21,-690.4 755.35,-687.25 765.02,-684.6"/>
<polygon fill="midnightblue" stroke="midnightblue" points="674.39,-717.76 665.65,-723.75 676.22,-724.52 674.39,-717.76"/>
</g>
<!-- Node10 -->
<g id="node10" class="node">
<title>Node10</title>
<g id="a_node10"><a xlink:href="classast_1_1_ast_assign.html" target="_top" xlink:title="値の読み出しオブジェクト．">
<polygon fill="white" stroke="black" points="411.5,-646.5 411.5,-665.5 473.5,-665.5 473.5,-646.5 411.5,-646.5"/>
<text text-anchor="middle" x="442.5" y="-653.5" font-family="Helvetica,sans-Serif" font-size="10.00">AstAssign</text>
</a>
</g>
</g>
<!-- Node9&#45;&gt;Node10 -->
<g id="edge9" class="edge">
<title>Node9&#45;&gt;Node10</title>
<path fill="none" stroke="midnightblue" d="M307.18,-371.81C312.52,-429.96 330.93,-598.53 368,-637 379.16,-648.58 396.37,-653.44 411.34,-655.35"/>
<polygon fill="midnightblue" stroke="midnightblue" points="310.66,-371.37 306.29,-361.72 303.68,-371.99 310.66,-371.37"/>
</g>
<!-- Node11 -->
<g id="node11" class="node">
<title>Node11</title>
<g id="a_node11"><a xlink:href="classast_1_1_ast_break.html" target="_top" xlink:title="実行を強制中断させる演算．デバッグのブレークポイント設定に用いる．">
<polygon fill="white" stroke="black" points="414,-608.5 414,-627.5 471,-627.5 471,-608.5 414,-608.5"/>
<text text-anchor="middle" x="442.5" y="-615.5" font-family="Helvetica,sans-Serif" font-size="10.00">AstBreak</text>
</a>
</g>
</g>
<!-- Node9&#45;&gt;Node11 -->
<g id="edge10" class="edge">
<title>Node9&#45;&gt;Node11</title>
<path fill="none" stroke="midnightblue" d="M307.87,-371.54C314.62,-424.05 335.59,-566.43 368,-599 379.9,-610.96 398.27,-615.71 413.67,-617.47"/>
<polygon fill="midnightblue" stroke="midnightblue" points="311.33,-371 306.61,-361.51 304.38,-371.87 311.33,-371"/>
</g>
<!-- Node12 -->
<g id="node12" class="node">
<title>Node12</title>
<g id="a_node12"><a xlink:href="classast_1_1_ast_data_reader.html" target="_top" xlink:title="値の読み出しオブジェクト．">
<polygon fill="white" stroke="black" points="400.5,-570.5 400.5,-589.5 484.5,-589.5 484.5,-570.5 400.5,-570.5"/>
<text text-anchor="middle" x="442.5" y="-577.5" font-family="Helvetica,sans-Serif" font-size="10.00">AstDataReader</text>
</a>
</g>
</g>
<!-- Node9&#45;&gt;Node12 -->
<g id="edge11" class="edge">
<title>Node9&#45;&gt;Node12</title>
<path fill="none" stroke="midnightblue" d="M305.36,-371.66C306.18,-412.95 314.14,-509.13 368,-561 376.73,-569.41 388.68,-574.23 400.41,-576.95"/>
<polygon fill="midnightblue" stroke="midnightblue" points="308.86,-371.53 305.29,-361.56 301.86,-371.58 308.86,-371.53"/>
</g>
<!-- Node13 -->
<g id="node13" class="node">
<title>Node13</title>
<g id="a_node13"><a xlink:href="classast_1_1_ast_data_reader_1_1_ast_get_elem.html" target="_top" xlink:title=" ">
<polygon fill="white" stroke="black" points="372.5,-532.5 372.5,-551.5 512.5,-551.5 512.5,-532.5 372.5,-532.5"/>
<text text-anchor="middle" x="442.5" y="-539.5" font-family="Helvetica,sans-Serif" font-size="10.00">AstDataReader.AstGetElem</text>
</a>
</g>
</g>
<!-- Node9&#45;&gt;Node13 -->
<g id="edge12" class="edge">
<title>Node9&#45;&gt;Node13</title>
<path fill="none" stroke="midnightblue" d="M306.93,-371.97C310.58,-407.69 323.42,-482.57 368,-523 372.2,-526.81 377.06,-529.87 382.24,-532.34"/>
<polygon fill="midnightblue" stroke="midnightblue" points="310.4,-371.49 306.04,-361.84 303.43,-372.11 310.4,-371.49"/>
</g>
<!-- Node14 -->
<g id="node14" class="node">
<title>Node14</title>
<g id="a_node14"><a xlink:href="classast_1_1_ast_data_reader_1_1_ast_get_sys_var.html" target="_top" xlink:title=" ">
<polygon fill="white" stroke="black" points="368,-494.5 368,-513.5 517,-513.5 517,-494.5 368,-494.5"/>
<text text-anchor="middle" x="442.5" y="-501.5" font-family="Helvetica,sans-Serif" font-size="10.00">AstDataReader.AstGetSysVar</text>
</a>
</g>
</g>
<!-- Node9&#45;&gt;Node14 -->
<g id="edge13" class="edge">
<title>Node9&#45;&gt;Node14</title>
<path fill="none" stroke="midnightblue" d="M309.21,-371.59C315.79,-400.78 332.3,-455.4 368,-485 372.67,-488.87 378.03,-491.96 383.69,-494.43"/>
<polygon fill="midnightblue" stroke="midnightblue" points="312.63,-370.83 307.16,-361.76 305.78,-372.26 312.63,-370.83"/>
</g>
<!-- Node15 -->
<g id="node15" class="node">
<title>Node15</title>
<g id="a_node15"><a xlink:href="classast_1_1_ast_data_reader_1_1_ast_get_text.html" target="_top" xlink:title=" ">
<polygon fill="white" stroke="black" points="374.5,-456.5 374.5,-475.5 510.5,-475.5 510.5,-456.5 374.5,-456.5"/>
<text text-anchor="middle" x="442.5" y="-463.5" font-family="Helvetica,sans-Serif" font-size="10.00">AstDataReader.AstGetText</text>
</a>
</g>
</g>
<!-- Node9&#45;&gt;Node15 -->
<g id="edge14" class="edge">
<title>Node9&#45;&gt;Node15</title>
<path fill="none" stroke="midnightblue" d="M313.09,-371.28C322.63,-393 341.09,-427.75 368,-447 373.47,-450.91 379.67,-454.02 386.11,-456.48"/>
<polygon fill="midnightblue" stroke="midnightblue" points="316.21,-369.67 309.12,-361.8 309.75,-372.37 316.21,-369.67"/>
</g>
<!-- Node16 -->
<g id="node16" class="node">
<title>Node16</title>
<g id="a_node16"><a xlink:href="classast_1_1_ast_data_wrapper.html" target="_top" xlink:title="Javaの基本型データの清書用の包み込みアトム">
<polygon fill="white" stroke="black" points="386,-418.5 386,-437.5 499,-437.5 499,-418.5 386,-418.5"/>
<text text-anchor="middle" x="442.5" y="-425.5" font-family="Helvetica,sans-Serif" font-size="10.00">AstDataWrapper&lt; T &gt;</text>
</a>
</g>
</g>
<!-- Node9&#45;&gt;Node16 -->
<g id="edge15" class="edge">
<title>Node9&#45;&gt;Node16</title>
<path fill="none" stroke="midnightblue" d="M320.15,-369.3C331.86,-382.07 349.35,-398.91 368,-409 375.07,-412.83 382.94,-415.91 390.84,-418.38"/>
<polygon fill="midnightblue" stroke="midnightblue" points="322.59,-366.78 313.34,-361.62 317.35,-371.42 322.59,-366.78"/>
</g>
<!-- Node17 -->
<g id="node17" class="node">
<title>Node17</title>
<g id="a_node17"><a xlink:href="classast_1_1_ast_literal.html" target="_top" xlink:title="値を返すことができる終端オブジェクトのクラス">
<polygon fill="white" stroke="black" points="413.5,-380.5 413.5,-399.5 471.5,-399.5 471.5,-380.5 413.5,-380.5"/>
<text text-anchor="middle" x="442.5" y="-387.5" font-family="Helvetica,sans-Serif" font-size="10.00">AstLiteral</text>
</a>
</g>
</g>
<!-- Node9&#45;&gt;Node17 -->
<g id="edge16" class="edge">
<title>Node9&#45;&gt;Node17</title>
<path fill="none" stroke="midnightblue" d="M341.9,-363.35C350.44,-365.93 359.53,-368.62 368,-371 382.85,-375.17 399.47,-379.5 413.15,-382.97"/>
<polygon fill="midnightblue" stroke="midnightblue" points="342.78,-359.96 332.19,-360.38 340.73,-366.65 342.78,-359.96"/>
</g>
<!-- Node24 -->
<g id="node24" class="node">
<title>Node24</title>
<g id="a_node24"><a xlink:href="classast_1_1_ast_node_tagged.html" target="_top" xlink:title="子それぞれにタグと型アイテムをもつ順序ノードAstNodeのサブクラス．利用者は自前で，追加する子のField名と型を設定する．読み出しは子の添字のみで行う．">
<polygon fill="white" stroke="black" points="399.5,-342.5 399.5,-361.5 485.5,-361.5 485.5,-342.5 399.5,-342.5"/>
<text text-anchor="middle" x="442.5" y="-349.5" font-family="Helvetica,sans-Serif" font-size="10.00">AstNodeTagged</text>
</a>
</g>
</g>
<!-- Node9&#45;&gt;Node24 -->
<g id="edge23" class="edge">
<title>Node9&#45;&gt;Node24</title>
<path fill="none" stroke="midnightblue" d="M342.5,-345.92C360.12,-345.1 381.28,-345.03 399.5,-345.71"/>
<polygon fill="midnightblue" stroke="midnightblue" points="341.83,-342.45 332.05,-346.52 342.23,-349.44 341.83,-342.45"/>
</g>
<!-- Node9&#45;&gt;Node24 -->
<g id="edge28" class="edge">
<title>Node9&#45;&gt;Node24</title>
<path fill="none" stroke="midnightblue" d="M342.5,-358.08C360.12,-358.9 381.28,-358.97 399.5,-358.29"/>
<polygon fill="midnightblue" stroke="midnightblue" points="342.23,-354.56 332.05,-357.48 341.83,-361.55 342.23,-354.56"/>
</g>
<!-- Node30 -->
<g id="node29" class="node">
<title>Node30</title>
<g id="a_node29"><a xlink:href="classast_1_1_ast_node_tagged_settable.html" target="_top" xlink:title="タグ付きの子をもつノードのクラス．利用者は自前で，追加する子のField名と，Getter，Setter，型を設定する．読み出しは子の添字でも行える．">
<polygon fill="white" stroke="black" points="381.5,-304.5 381.5,-323.5 503.5,-323.5 503.5,-304.5 381.5,-304.5"/>
<text text-anchor="middle" x="442.5" y="-311.5" font-family="Helvetica,sans-Serif" font-size="10.00">AstNodeTaggedSettable</text>
</a>
</g>
</g>
<!-- Node9&#45;&gt;Node30 -->
<g id="edge29" class="edge">
<title>Node9&#45;&gt;Node30</title>
<path fill="none" stroke="midnightblue" d="M341.9,-340.65C350.44,-338.07 359.53,-335.38 368,-333 379.42,-329.79 391.89,-326.49 403.27,-323.56"/>
<polygon fill="midnightblue" stroke="midnightblue" points="340.73,-337.35 332.19,-343.62 342.78,-344.04 340.73,-337.35"/>
</g>
<!-- Node35 -->
<g id="node34" class="node">
<title>Node35</title>
<g id="a_node34"><a xlink:href="classast_1_1_ast_node_unary.html" target="_top" xlink:title="ただ一つの子をもつノードのクラス。">
<polygon fill="white" stroke="black" points="402,-684.5 402,-703.5 483,-703.5 483,-684.5 402,-684.5"/>
<text text-anchor="middle" x="442.5" y="-691.5" font-family="Helvetica,sans-Serif" font-size="10.00">AstNodeUnary</text>
</a>
</g>
</g>
<!-- Node9&#45;&gt;Node35 -->
<g id="edge34" class="edge">
<title>Node9&#45;&gt;Node35</title>
<path fill="none" stroke="midnightblue" d="M306.63,-371.9C310.63,-435.23 326.2,-630.53 368,-675 376.76,-684.32 389.43,-689.3 401.79,-691.9"/>
<polygon fill="midnightblue" stroke="midnightblue" points="310.11,-371.45 306.02,-361.68 303.12,-371.87 310.11,-371.45"/>
</g>
<!-- Node40 -->
<g id="node39" class="node">
<title>Node40</title>
<g id="a_node39"><a xlink:href="classast_1_1_ast_oper.html" target="_top" xlink:title=" ">
<polygon fill="white" stroke="black" points="416,-266.5 416,-285.5 469,-285.5 469,-266.5 416,-266.5"/>
<text text-anchor="middle" x="442.5" y="-273.5" font-family="Helvetica,sans-Serif" font-size="10.00">AstOper</text>
</a>
</g>
</g>
<!-- Node9&#45;&gt;Node40 -->
<g id="edge40" class="edge">
<title>Node9&#45;&gt;Node40</title>
<path fill="none" stroke="midnightblue" d="M320.15,-334.7C331.86,-321.93 349.35,-305.09 368,-295 382.84,-286.97 401.21,-282.22 415.88,-279.48"/>
<polygon fill="midnightblue" stroke="midnightblue" points="317.35,-332.58 313.34,-342.38 322.59,-337.22 317.35,-332.58"/>
</g>
<!-- Node65 -->
<g id="node50" class="node">
<title>Node65</title>
<g id="a_node50"><a xlink:href="classast_1_1_ast_source_1_1_ast_instream_const.html" target="_top" xlink:title="入力ストリームを表すノードのクラス">
<polygon fill="white" stroke="black" points="370,-228.5 370,-247.5 515,-247.5 515,-228.5 370,-228.5"/>
<text text-anchor="middle" x="442.5" y="-235.5" font-family="Helvetica,sans-Serif" font-size="10.00">AstSource.AstInstreamConst</text>
</a>
</g>
</g>
<!-- Node9&#45;&gt;Node65 -->
<g id="edge51" class="edge">
<title>Node9&#45;&gt;Node65</title>
<path fill="none" stroke="midnightblue" d="M313.09,-332.72C322.63,-311 341.09,-276.25 368,-257 373.47,-253.09 379.67,-249.98 386.11,-247.52"/>
<polygon fill="midnightblue" stroke="midnightblue" points="309.75,-331.63 309.12,-342.2 316.21,-334.33 309.75,-331.63"/>
</g>
<!-- Node66 -->
<g id="node51" class="node">
<title>Node66</title>
<g id="a_node51"><a xlink:href="classast_1_1_ast_tag.html" target="_top" xlink:title=" ">
<polygon fill="white" stroke="black" points="419,-190.5 419,-209.5 466,-209.5 466,-190.5 419,-190.5"/>
<text text-anchor="middle" x="442.5" y="-197.5" font-family="Helvetica,sans-Serif" font-size="10.00">AstTag</text>
</a>
</g>
</g>
<!-- Node9&#45;&gt;Node66 -->
<g id="edge52" class="edge">
<title>Node9&#45;&gt;Node66</title>
<path fill="none" stroke="midnightblue" d="M309.21,-332.41C315.79,-303.22 332.3,-248.6 368,-219 382.31,-207.14 403.15,-202.58 418.99,-200.88"/>
<polygon fill="midnightblue" stroke="midnightblue" points="305.78,-331.74 307.16,-342.24 312.63,-333.17 305.78,-331.74"/>
</g>
<!-- Node67 -->
<g id="node52" class="node">
<title>Node67</title>
<g id="a_node52"><a xlink:href="classast_1_1_ast_var.html" target="_top" xlink:title=" ">
<polygon fill="white" stroke="black" points="419.5,-152.5 419.5,-171.5 465.5,-171.5 465.5,-152.5 419.5,-152.5"/>
<text text-anchor="middle" x="442.5" y="-159.5" font-family="Helvetica,sans-Serif" font-size="10.00">AstVar</text>
</a>
</g>
</g>
<!-- Node9&#45;&gt;Node67 -->
<g id="edge53" class="edge">
<title>Node9&#45;&gt;Node67</title>
<path fill="none" stroke="midnightblue" d="M306.93,-332.03C310.58,-296.31 323.42,-221.43 368,-181 381.96,-168.34 403.26,-163.89 419.34,-162.44"/>
<polygon fill="midnightblue" stroke="midnightblue" points="303.43,-331.89 306.04,-342.16 310.4,-332.51 303.43,-331.89"/>
</g>
<!-- Node68 -->
<g id="node53" class="node">
<title>Node68</title>
<g id="a_node53"><a xlink:href="classast_1_1_ast_var_decl.html" target="_top" xlink:title="値の読み出しオブジェクト．">
<polygon fill="white" stroke="black" points="409.5,-114.5 409.5,-133.5 475.5,-133.5 475.5,-114.5 409.5,-114.5"/>
<text text-anchor="middle" x="442.5" y="-121.5" font-family="Helvetica,sans-Serif" font-size="10.00">AstVarDecl</text>
</a>
</g>
</g>
<!-- Node9&#45;&gt;Node68 -->
<g id="edge54" class="edge">
<title>Node9&#45;&gt;Node68</title>
<path fill="none" stroke="midnightblue" d="M305.36,-332.34C306.18,-291.05 314.14,-194.87 368,-143 379.01,-132.39 395.14,-127.5 409.48,-125.32"/>
<polygon fill="midnightblue" stroke="midnightblue" points="301.86,-332.42 305.29,-342.44 308.86,-332.47 301.86,-332.42"/>
</g>
<!-- Node69 -->
<g id="node54" class="node">
<title>Node69</title>
<g id="a_node54"><a xlink:href="classast_1_1_path.html" target="_top" xlink:title=" ">
<polygon fill="white" stroke="black" points="424,-76.5 424,-95.5 461,-95.5 461,-76.5 424,-76.5"/>
<text text-anchor="middle" x="442.5" y="-83.5" font-family="Helvetica,sans-Serif" font-size="10.00">Path</text>
</a>
</g>
</g>
<!-- Node9&#45;&gt;Node69 -->
<g id="edge55" class="edge">
<title>Node9&#45;&gt;Node69</title>
<path fill="none" stroke="midnightblue" d="M307.4,-332.34C313.6,-278.01 334.8,-129.37 368,-96 382.69,-81.24 407.24,-77.46 423.89,-78.85"/>
<polygon fill="midnightblue" stroke="midnightblue" points="303.9,-332.1 306.3,-342.42 310.86,-332.86 303.9,-332.1"/>
</g>
<!-- Node9&#45;&gt;Node69 -->
<g id="edge56" class="edge">
<title>Node9&#45;&gt;Node69</title>
<path fill="none" stroke="midnightblue" d="M308.49,-332.28C315.85,-280.8 336.53,-145.63 368,-114 382.69,-99.24 407.24,-95.46 423.89,-92.62"/>
<polygon fill="midnightblue" stroke="midnightblue" points="304.99,-332.04 307.05,-342.44 311.92,-333.03 304.99,-332.04"/>
</g>
<!-- Node70 -->
<g id="node55" class="node">
<title>Node70</title>
<g id="a_node55"><a xlink:href="classast_1_1_sent_list.html" target="_top" xlink:title="文Sentenceのリスト.">
<polygon fill="white" stroke="black" points="416,-38.5 416,-57.5 469,-57.5 469,-38.5 416,-38.5"/>
<text text-anchor="middle" x="442.5" y="-45.5" font-family="Helvetica,sans-Serif" font-size="10.00">SentList</text>
</a>
</g>
</g>
<!-- Node9&#45;&gt;Node70 -->
<g id="edge57" class="edge">
<title>Node9&#45;&gt;Node70</title>
<path fill="none" stroke="midnightblue" d="M307.18,-332.19C312.52,-274.04 330.93,-105.47 368,-67 380.25,-54.28 399.82,-49.67 415.68,-48.17"/>
<polygon fill="midnightblue" stroke="midnightblue" points="303.68,-332.01 306.29,-342.28 310.66,-332.63 303.68,-332.01"/>
</g>
<!-- Node72 -->
<g id="node57" class="node">
<title>Node72</title>
<g id="a_node57"><a xlink:href="classmachine_1_1_var.html" target="_top" xlink:title="フレーム中の変数参照オブジェクトref = (XType type, int vid)">
<polygon fill="white" stroke="black" points="427,-0.5 427,-19.5 458,-19.5 458,-0.5 427,-0.5"/>
<text text-anchor="middle" x="442.5" y="-7.5" font-family="Helvetica,sans-Serif" font-size="10.00">Var</text>
</a>
</g>
</g>
<!-- Node9&#45;&gt;Node72 -->
<g id="edge59" class="edge">
<title>Node9&#45;&gt;Node72</title>
<path fill="none" stroke="midnightblue" d="M306.63,-332.1C310.63,-268.77 326.2,-73.47 368,-29 383.17,-12.87 410.08,-9.73 426.79,-9.47"/>
<polygon fill="midnightblue" stroke="midnightblue" points="303.12,-332.13 306.02,-342.32 310.11,-332.55 303.12,-332.13"/>
</g>
<!-- Node18 -->
<g id="node18" class="node">
<title>Node18</title>
<g id="a_node18"><a xlink:href="classast_1_1_ast_literal_1_1_boolean_literal.html" target="_top" xlink:title="ダミーの生成子．このクラス自身は直接生成されない．部分クラスからのみ生成される">
<polygon fill="white" stroke="black" points="565.5,-532.5 565.5,-551.5 687.5,-551.5 687.5,-532.5 565.5,-532.5"/>
<text text-anchor="middle" x="626.5" y="-539.5" font-family="Helvetica,sans-Serif" font-size="10.00">AstLiteral.BooleanLiteral</text>
</a>
</g>
</g>
<!-- Node17&#45;&gt;Node18 -->
<g id="edge17" class="edge">
<title>Node17&#45;&gt;Node18</title>
<path fill="none" stroke="midnightblue" d="M481.68,-392.51C494.28,-395.1 507.49,-399.98 517,-409 555.55,-445.56 514.51,-486.37 553,-523 557.05,-526.86 561.79,-529.95 566.87,-532.44"/>
<polygon fill="midnightblue" stroke="midnightblue" points="482.23,-389.05 471.79,-390.88 481.09,-395.96 482.23,-389.05"/>
</g>
<!-- Node19 -->
<g id="node19" class="node">
<title>Node19</title>
<g id="a_node19"><a xlink:href="classast_1_1_ast_literal_1_1_double_literal.html" target="_top" xlink:title="Double値アトム">
<polygon fill="white" stroke="black" points="567.5,-494.5 567.5,-513.5 685.5,-513.5 685.5,-494.5 567.5,-494.5"/>
<text text-anchor="middle" x="626.5" y="-501.5" font-family="Helvetica,sans-Serif" font-size="10.00">AstLiteral.DoubleLiteral</text>
</a>
</g>
</g>
<!-- Node17&#45;&gt;Node19 -->
<g id="edge18" class="edge">
<title>Node17&#45;&gt;Node19</title>
<path fill="none" stroke="midnightblue" d="M481.69,-393.4C494.03,-396.09 507.08,-400.8 517,-409 545.81,-432.81 524.23,-461.14 553,-485 557.71,-488.9 563.13,-492.01 568.85,-494.49"/>
<polygon fill="midnightblue" stroke="midnightblue" points="482.03,-389.91 471.57,-391.59 480.79,-396.8 482.03,-389.91"/>
</g>
<!-- Node20 -->
<g id="node20" class="node">
<title>Node20</title>
<g id="a_node20"><a xlink:href="classast_1_1_ast_literal_1_1_integer_literal.html" target="_top" xlink:title="Integer値アトム">
<polygon fill="white" stroke="black" points="568,-456.5 568,-475.5 685,-475.5 685,-456.5 568,-456.5"/>
<text text-anchor="middle" x="626.5" y="-463.5" font-family="Helvetica,sans-Serif" font-size="10.00">AstLiteral.IntegerLiteral</text>
</a>
</g>
</g>
<!-- Node17&#45;&gt;Node20 -->
<g id="edge19" class="edge">
<title>Node17&#45;&gt;Node20</title>
<path fill="none" stroke="midnightblue" d="M481.88,-395.67C493.7,-398.51 506.37,-402.74 517,-409 537.04,-420.81 532.98,-435.15 553,-447 559.49,-450.84 566.77,-453.92 574.13,-456.38"/>
<polygon fill="midnightblue" stroke="midnightblue" points="482.31,-392.19 471.8,-393.52 480.85,-399.03 482.31,-392.19"/>
</g>
<!-- Node21 -->
<g id="node21" class="node">
<title>Node21</title>
<g id="a_node21"><a xlink:href="classast_1_1_ast_literal_1_1_string_expr.html" target="_top" xlink:title="String値アトム">
<polygon fill="white" stroke="black" points="573,-418.5 573,-437.5 680,-437.5 680,-418.5 573,-418.5"/>
<text text-anchor="middle" x="626.5" y="-425.5" font-family="Helvetica,sans-Serif" font-size="10.00">AstLiteral.StringExpr</text>
</a>
</g>
</g>
<!-- Node17&#45;&gt;Node21 -->
<g id="edge20" class="edge">
<title>Node17&#45;&gt;Node21</title>
<path fill="none" stroke="midnightblue" d="M481.55,-397.94C510.14,-403.91 549.42,-412.11 579.72,-418.44"/>
<polygon fill="midnightblue" stroke="midnightblue" points="482.04,-394.47 471.54,-395.85 480.61,-401.32 482.04,-394.47"/>
</g>
<!-- Node22 -->
<g id="node22" class="node">
<title>Node22</title>
<g id="a_node22"><a xlink:href="classast_1_1_ast_literal_1_1_regex_literal.html" target="_top" xlink:title=" ">
<polygon fill="white" stroke="black" points="750.5,-456.5 750.5,-475.5 866.5,-475.5 866.5,-456.5 750.5,-456.5"/>
<text text-anchor="middle" x="808.5" y="-463.5" font-family="Helvetica,sans-Serif" font-size="10.00">AstLiteral.RegexLiteral</text>
</a>
</g>
</g>
<!-- Node21&#45;&gt;Node22 -->
<g id="edge21" class="edge">
<title>Node21&#45;&gt;Node22</title>
<path fill="none" stroke="midnightblue" d="M682.83,-439.68C708.36,-445.07 738.28,-451.39 762.41,-456.48"/>
<polygon fill="midnightblue" stroke="midnightblue" points="683.43,-436.23 672.92,-437.59 681.98,-443.08 683.43,-436.23"/>
</g>
<!-- Node23 -->
<g id="node23" class="node">
<title>Node23</title>
<g id="a_node23"><a xlink:href="classast_1_1_ast_literal_1_1_string_literal.html" target="_top" xlink:title=" ">
<polygon fill="white" stroke="black" points="752,-418.5 752,-437.5 865,-437.5 865,-418.5 752,-418.5"/>
<text text-anchor="middle" x="808.5" y="-425.5" font-family="Helvetica,sans-Serif" font-size="10.00">AstLiteral.StringLiteral</text>
</a>
</g>
</g>
<!-- Node21&#45;&gt;Node23 -->
<g id="edge22" class="edge">
<title>Node21&#45;&gt;Node23</title>
<path fill="none" stroke="midnightblue" d="M690.3,-428C710.3,-428 732.28,-428 751.75,-428"/>
<polygon fill="midnightblue" stroke="midnightblue" points="690.05,-424.5 680.05,-428 690.05,-431.5 690.05,-424.5"/>
</g>
<!-- Node25 -->
<g id="node25" class="node">
<title>Node25</title>
<g id="a_node25"><a xlink:href="classast_1_1_block_base.html" target="_top" xlink:title="抽象構文木のステップ式のクラス.">
<polygon fill="white" stroke="black" points="594.5,-380.5 594.5,-399.5 658.5,-399.5 658.5,-380.5 594.5,-380.5"/>
<text text-anchor="middle" x="626.5" y="-387.5" font-family="Helvetica,sans-Serif" font-size="10.00">BlockBase</text>
</a>
</g>
</g>
<!-- Node24&#45;&gt;Node25 -->
<g id="edge24" class="edge">
<title>Node24&#45;&gt;Node25</title>
<path fill="none" stroke="midnightblue" d="M495.76,-362.91C527.63,-369.57 567.29,-377.85 594.32,-383.49"/>
<polygon fill="midnightblue" stroke="midnightblue" points="496.22,-359.43 485.71,-360.81 494.79,-366.28 496.22,-359.43"/>
</g>
<!-- Node29 -->
<g id="node28" class="node">
<title>Node29</title>
<g id="a_node28"><a xlink:href="classast_1_1_program.html" target="_top" xlink:title="ルールの集合からなるコンパイル済みのプログラム.">
<polygon fill="white" stroke="black" points="600,-342.5 600,-361.5 653,-361.5 653,-342.5 600,-342.5"/>
<text text-anchor="middle" x="626.5" y="-349.5" font-family="Helvetica,sans-Serif" font-size="10.00">Program</text>
</a>
</g>
</g>
<!-- Node24&#45;&gt;Node29 -->
<g id="edge27" class="edge">
<title>Node24&#45;&gt;Node29</title>
<path fill="none" stroke="midnightblue" d="M495.97,-352C530.04,-352 572.95,-352 599.81,-352"/>
<polygon fill="midnightblue" stroke="midnightblue" points="495.71,-348.5 485.71,-352 495.71,-355.5 495.71,-348.5"/>
</g>
<!-- Node26 -->
<g id="node26" class="node">
<title>Node26</title>
<g id="a_node26"><a xlink:href="classast_1_1_block.html" target="_top" xlink:title="抽象構文木のステップ式のクラス.">
<polygon fill="white" stroke="black" points="788,-380.5 788,-399.5 829,-399.5 829,-380.5 788,-380.5"/>
<text text-anchor="middle" x="808.5" y="-387.5" font-family="Helvetica,sans-Serif" font-size="10.00">Block</text>
</a>
</g>
</g>
<!-- Node25&#45;&gt;Node26 -->
<g id="edge25" class="edge">
<title>Node25&#45;&gt;Node26</title>
<path fill="none" stroke="midnightblue" d="M668.9,-390C706.11,-390 759.17,-390 787.64,-390"/>
<polygon fill="midnightblue" stroke="midnightblue" points="668.85,-386.5 658.85,-390 668.85,-393.5 668.85,-386.5"/>
</g>
<!-- Node27 -->
<g id="node27" class="node">
<title>Node27</title>
<g id="a_node27"><a xlink:href="classast_1_1_step.html" target="_top" xlink:title="抽象構文木のステップ式のクラス.">
<polygon fill="white" stroke="red" points="790,-342.5 790,-361.5 827,-361.5 827,-342.5 790,-342.5"/>
<text text-anchor="middle" x="808.5" y="-349.5" font-family="Helvetica,sans-Serif" font-size="10.00">Step</text>
</a>
</g>
</g>
<!-- Node25&#45;&gt;Node27 -->
<g id="edge26" class="edge">
<title>Node25&#45;&gt;Node27</title>
<path fill="none" stroke="midnightblue" d="M668.64,-381.32C706.75,-373.27 761.64,-361.68 789.62,-355.77"/>
<polygon fill="midnightblue" stroke="midnightblue" points="667.91,-377.89 658.85,-383.38 669.36,-384.74 667.91,-377.89"/>
</g>
<!-- Node31 -->
<g id="node30" class="node">
<title>Node31</title>
<g id="a_node30"><a xlink:href="classast_1_1_ast_oper_tagged.html" target="_top" xlink:title=" ">
<polygon fill="white" stroke="black" points="584.5,-304.5 584.5,-323.5 668.5,-323.5 668.5,-304.5 584.5,-304.5"/>
<text text-anchor="middle" x="626.5" y="-311.5" font-family="Helvetica,sans-Serif" font-size="10.00">AstOperTagged</text>
</a>
</g>
</g>
<!-- Node30&#45;&gt;Node31 -->
<g id="edge30" class="edge">
<title>Node30&#45;&gt;Node31</title>
<path fill="none" stroke="midnightblue" d="M513.7,-314C537.62,-314 563.56,-314 584.43,-314"/>
<polygon fill="midnightblue" stroke="midnightblue" points="513.6,-310.5 503.6,-314 513.6,-317.5 513.6,-310.5"/>
</g>
<!-- Node34 -->
<g id="node33" class="node">
<title>Node34</title>
<g id="a_node33"><a xlink:href="classast_1_1_ast_scan_from.html" target="_top" xlink:title=" ">
<polygon fill="white" stroke="black" points="588,-266.5 588,-285.5 665,-285.5 665,-266.5 588,-266.5"/>
<text text-anchor="middle" x="626.5" y="-273.5" font-family="Helvetica,sans-Serif" font-size="10.00">AstScanFrom</text>
</a>
</g>
</g>
<!-- Node30&#45;&gt;Node34 -->
<g id="edge33" class="edge">
<title>Node30&#45;&gt;Node34</title>
<path fill="none" stroke="midnightblue" d="M499.33,-302.34C528.06,-296.35 562.3,-289.19 587.87,-283.86"/>
<polygon fill="midnightblue" stroke="midnightblue" points="498.5,-298.94 489.43,-304.41 499.93,-305.79 498.5,-298.94"/>
</g>
<!-- Node32 -->
<g id="node31" class="node">
<title>Node32</title>
<g id="a_node31"><a xlink:href="classast_1_1_ast_if.html" target="_top" xlink:title="抽象構文木のステップ式のクラス.">
<polygon fill="white" stroke="black" points="789.5,-304.5 789.5,-323.5 827.5,-323.5 827.5,-304.5 789.5,-304.5"/>
<text text-anchor="middle" x="808.5" y="-311.5" font-family="Helvetica,sans-Serif" font-size="10.00">AstIf</text>
</a>
</g>
</g>
<!-- Node31&#45;&gt;Node32 -->
<g id="edge31" class="edge">
<title>Node31&#45;&gt;Node32</title>
<path fill="none" stroke="midnightblue" d="M678.93,-314C715.96,-314 763.75,-314 789.36,-314"/>
<polygon fill="midnightblue" stroke="midnightblue" points="678.8,-310.5 668.8,-314 678.8,-317.5 678.8,-310.5"/>
</g>
<!-- Node33 -->
<g id="node32" class="node">
<title>Node33</title>
<g id="a_node32"><a xlink:href="classast_1_1_ast_let.html" target="_top" xlink:title="とりあえず任意の文をラップして，ブール値を与えるためのノード">
<polygon fill="white" stroke="black" points="786,-266.5 786,-285.5 831,-285.5 831,-266.5 786,-266.5"/>
<text text-anchor="middle" x="808.5" y="-273.5" font-family="Helvetica,sans-Serif" font-size="10.00">AstLet</text>
</a>
</g>
</g>
<!-- Node31&#45;&gt;Node33 -->
<g id="edge32" class="edge">
<title>Node31&#45;&gt;Node33</title>
<path fill="none" stroke="midnightblue" d="M678.93,-303.14C714.19,-295.7 759.2,-286.2 785.54,-280.64"/>
<polygon fill="midnightblue" stroke="midnightblue" points="677.86,-299.79 668.8,-305.28 679.3,-306.64 677.86,-299.79"/>
</g>
<!-- Node35&#45;&gt;Node3 -->
<g id="edge38" class="edge">
<title>Node35&#45;&gt;Node3</title>
<path fill="none" stroke="midnightblue" d="M493.57,-704.45C523.13,-710.63 559.98,-718.32 587.21,-724.01"/>
<polygon fill="midnightblue" stroke="midnightblue" points="493.94,-700.96 483.44,-702.34 492.51,-707.81 493.94,-700.96"/>
</g>
<!-- Node36 -->
<g id="node35" class="node">
<title>Node36</title>
<g id="a_node35"><a xlink:href="classast_1_1_ast_converter.html" target="_top" xlink:title="値の変換のクラス。AstConv&lt;S,T&gt;の単なるラッパー">
<polygon fill="white" stroke="black" points="589.5,-684.5 589.5,-703.5 663.5,-703.5 663.5,-684.5 589.5,-684.5"/>
<text text-anchor="middle" x="626.5" y="-691.5" font-family="Helvetica,sans-Serif" font-size="10.00">AstConverter</text>
</a>
</g>
</g>
<!-- Node35&#45;&gt;Node36 -->
<g id="edge35" class="edge">
<title>Node35&#45;&gt;Node36</title>
<path fill="none" stroke="midnightblue" d="M493.81,-694C524.12,-694 562.01,-694 589.36,-694"/>
<polygon fill="midnightblue" stroke="midnightblue" points="493.44,-690.5 483.44,-694 493.44,-697.5 493.44,-690.5"/>
</g>
<!-- Node38 -->
<g id="node37" class="node">
<title>Node38</title>
<g id="a_node37"><a xlink:href="classast_1_1_ast_data_reader_1_1_ast_var_reader.html" target="_top" xlink:title="ブール型の値をもつ参照読み出し">
<polygon fill="white" stroke="black" points="553,-646.5 553,-665.5 700,-665.5 700,-646.5 553,-646.5"/>
<text text-anchor="middle" x="626.5" y="-653.5" font-family="Helvetica,sans-Serif" font-size="10.00">AstDataReader.AstVarReader</text>
</a>
</g>
</g>
<!-- Node35&#45;&gt;Node38 -->
<g id="edge37" class="edge">
<title>Node35&#45;&gt;Node38</title>
<path fill="none" stroke="midnightblue" d="M493.47,-683.57C520.47,-677.93 553.58,-671.02 579.88,-665.52"/>
<polygon fill="midnightblue" stroke="midnightblue" points="492.51,-680.19 483.44,-685.66 493.94,-687.04 492.51,-680.19"/>
</g>
<!-- Node39 -->
<g id="node38" class="node">
<title>Node39</title>
<g id="a_node38"><a xlink:href="classast_1_1_ast_source_1_1_ast_in_file_open.html" target="_top" xlink:title="入力ストリームを表すノードのクラス">
<polygon fill="white" stroke="black" points="562.5,-608.5 562.5,-627.5 690.5,-627.5 690.5,-608.5 562.5,-608.5"/>
<text text-anchor="middle" x="626.5" y="-615.5" font-family="Helvetica,sans-Serif" font-size="10.00">AstSource.AstInFileOpen</text>
</a>
</g>
</g>
<!-- Node35&#45;&gt;Node39 -->
<g id="edge39" class="edge">
<title>Node35&#45;&gt;Node39</title>
<path fill="none" stroke="midnightblue" d="M492.99,-685.28C501.33,-682.68 509.66,-679.33 517,-675 537.04,-663.19 532.98,-648.85 553,-637 559.49,-633.16 566.77,-630.08 574.13,-627.62"/>
<polygon fill="midnightblue" stroke="midnightblue" points="491.94,-681.94 483.24,-687.99 493.82,-688.68 491.94,-681.94"/>
</g>
<!-- Node37 -->
<g id="node36" class="node">
<title>Node37</title>
<g id="a_node36"><a xlink:href="classast_1_1_ast_converter_1_1_ast_conv.html" target="_top" xlink:title="S型の値をT型の値に変換するアダプタ">
<polygon fill="white" stroke="black" points="751,-616 751,-646 866,-646 866,-616 751,-616"/>
<text text-anchor="start" x="759" y="-634" font-family="Helvetica,sans-Serif" font-size="10.00">AstConverter.AstConv</text>
<text text-anchor="middle" x="808.5" y="-623" font-family="Helvetica,sans-Serif" font-size="10.00">&lt; S, T &gt;</text>
</a>
</g>
</g>
<!-- Node36&#45;&gt;Node37 -->
<g id="edge36" class="edge">
<title>Node36&#45;&gt;Node37</title>
<path fill="none" stroke="midnightblue" d="M673.64,-683.61C682.5,-681.14 691.63,-678.26 700,-675 716.86,-668.44 719.41,-663.23 736,-656 744.08,-652.48 752.82,-649.09 761.34,-646"/>
<polygon fill="midnightblue" stroke="midnightblue" points="672.55,-680.27 663.79,-686.22 674.35,-687.04 672.55,-680.27"/>
</g>
<!-- Node41 -->
<g id="node40" class="node">
<title>Node41</title>
<g id="a_node40"><a xlink:href="classast_1_1_ast_func_call.html" target="_top" xlink:title=" ">
<polygon fill="white" stroke="black" points="591,-228.5 591,-247.5 662,-247.5 662,-228.5 591,-228.5"/>
<text text-anchor="middle" x="626.5" y="-235.5" font-family="Helvetica,sans-Serif" font-size="10.00">AstFuncCall</text>
</a>
</g>
</g>
<!-- Node40&#45;&gt;Node41 -->
<g id="edge41" class="edge">
<title>Node40&#45;&gt;Node41</title>
<path fill="none" stroke="midnightblue" d="M479.13,-268.56C511.48,-261.81 558.9,-251.91 590.92,-245.22"/>
<polygon fill="midnightblue" stroke="midnightblue" points="478.26,-265.17 469.19,-270.64 479.69,-272.02 478.26,-265.17"/>
</g>
<!-- Node42 -->
<g id="node41" class="node">
<title>Node42</title>
<g id="a_node41"><a xlink:href="classast_1_1_ast_math_oper.html" target="_top" xlink:title="値を返すことができるノードのクラス．一般に1個以上の子をもつ演算子である．">
<polygon fill="white" stroke="black" points="589.5,-190.5 589.5,-209.5 663.5,-209.5 663.5,-190.5 589.5,-190.5"/>
<text text-anchor="middle" x="626.5" y="-197.5" font-family="Helvetica,sans-Serif" font-size="10.00">AstMathOper</text>
</a>
</g>
</g>
<!-- Node40&#45;&gt;Node42 -->
<g id="edge42" class="edge">
<title>Node40&#45;&gt;Node42</title>
<path fill="none" stroke="midnightblue" d="M479.18,-270.96C491.73,-268.12 505.56,-263.75 517,-257 537.04,-245.19 532.98,-230.85 553,-219 563.97,-212.51 577.17,-208.2 589.28,-205.36"/>
<polygon fill="midnightblue" stroke="midnightblue" points="478.13,-267.6 469.01,-272.99 479.5,-274.46 478.13,-267.6"/>
</g>
<!-- Node56 -->
<g id="node43" class="node">
<title>Node56</title>
<g id="a_node43"><a xlink:title=" ">
<polygon fill="white" stroke="#bfbfbf" points="592.5,-152.5 592.5,-171.5 660.5,-171.5 660.5,-152.5 592.5,-152.5"/>
<text text-anchor="middle" x="626.5" y="-159.5" font-family="Helvetica,sans-Serif" font-size="10.00">AstRelOper</text>
</a>
</g>
</g>
<!-- Node40&#45;&gt;Node56 -->
<g id="edge44" class="edge">
<title>Node40&#45;&gt;Node56</title>
<path fill="none" stroke="midnightblue" d="M479.23,-273.11C492.28,-270.52 506.42,-265.75 517,-257 545.81,-233.19 524.23,-204.86 553,-181 564.02,-171.86 578.95,-167.07 592.4,-164.58"/>
<polygon fill="midnightblue" stroke="midnightblue" points="478.4,-269.7 469.09,-274.75 479.52,-276.61 478.4,-269.7"/>
</g>
<!-- Node63 -->
<g id="node48" class="node">
<title>Node63</title>
<g id="a_node48"><a xlink:href="classast_1_1_ast_return.html" target="_top" xlink:title="リターン式のクラス．値を返すことができる．">
<polygon fill="white" stroke="black" points="596,-114.5 596,-133.5 657,-133.5 657,-114.5 596,-114.5"/>
<text text-anchor="middle" x="626.5" y="-121.5" font-family="Helvetica,sans-Serif" font-size="10.00">AstReturn</text>
</a>
</g>
</g>
<!-- Node40&#45;&gt;Node63 -->
<g id="edge49" class="edge">
<title>Node40&#45;&gt;Node63</title>
<path fill="none" stroke="midnightblue" d="M479.2,-273.98C492.52,-271.52 506.86,-266.61 517,-257 555.55,-220.44 514.51,-179.63 553,-143 564.41,-132.15 581.23,-127.31 595.79,-125.22"/>
<polygon fill="midnightblue" stroke="midnightblue" points="478.68,-270.51 469.29,-275.41 479.69,-277.44 478.68,-270.51"/>
</g>
<!-- Node64 -->
<g id="node49" class="node">
<title>Node64</title>
<g id="a_node49"><a xlink:href="classast_1_1_ast_template.html" target="_top" xlink:title=" ">
<polygon fill="white" stroke="black" points="591,-76.5 591,-95.5 662,-95.5 662,-76.5 591,-76.5"/>
<text text-anchor="middle" x="626.5" y="-83.5" font-family="Helvetica,sans-Serif" font-size="10.00">AstTemplate</text>
</a>
</g>
</g>
<!-- Node40&#45;&gt;Node64 -->
<g id="edge50" class="edge">
<title>Node40&#45;&gt;Node64</title>
<path fill="none" stroke="midnightblue" d="M479.27,-274.41C492.73,-272.02 507.15,-267.05 517,-257 565.59,-207.41 504.5,-154.67 553,-105 562.82,-94.95 577.26,-89.99 590.67,-87.63"/>
<polygon fill="midnightblue" stroke="midnightblue" points="478.69,-270.95 469.25,-275.76 479.63,-277.89 478.69,-270.95"/>
</g>
<!-- Node43 -->
<g id="node42" class="node">
<title>Node43</title>
<g id="a_node42"><a xlink:href="classast_1_1_ast_math_oper_1_1_binary_oper.html" target="_top" xlink:title="end of class AstMathOper">
<polygon fill="white" stroke="red" points="746,-228.5 746,-247.5 871,-247.5 871,-228.5 746,-228.5"/>
<text text-anchor="middle" x="808.5" y="-235.5" font-family="Helvetica,sans-Serif" font-size="10.00">AstMathOper.BinaryOper</text>
</a>
</g>
</g>
<!-- Node42&#45;&gt;Node43 -->
<g id="edge43" class="edge">
<title>Node42&#45;&gt;Node43</title>
<path fill="none" stroke="midnightblue" d="M673.96,-209.81C701.11,-215.54 735.23,-222.74 762.18,-228.43"/>
<polygon fill="midnightblue" stroke="midnightblue" points="674.43,-206.33 663.93,-207.69 672.99,-213.18 674.43,-206.33"/>
</g>
<!-- Node57 -->
<g id="node44" class="node">
<title>Node57</title>
<g id="a_node44"><a xlink:href="classast_1_1_ast_math_oper_1_1_double_rel.html" target="_top" xlink:title=" ">
<polygon fill="white" stroke="black" points="747.5,-190.5 747.5,-209.5 869.5,-209.5 869.5,-190.5 747.5,-190.5"/>
<text text-anchor="middle" x="808.5" y="-197.5" font-family="Helvetica,sans-Serif" font-size="10.00">AstMathOper.DoubleRel</text>
</a>
</g>
</g>
<!-- Node56&#45;&gt;Node57 -->
<g id="edge45" class="edge">
<title>Node56&#45;&gt;Node57</title>
<path fill="none" stroke="midnightblue" d="M670.34,-171.04C698.13,-176.91 734.28,-184.54 762.49,-190.5"/>
<polygon fill="midnightblue" stroke="midnightblue" points="671.02,-167.61 660.51,-168.97 669.58,-174.46 671.02,-167.61"/>
</g>
<!-- Node58 -->
<g id="node45" class="node">
<title>Node58</title>
<g id="a_node45"><a xlink:href="classast_1_1_ast_math_oper_1_1_integer_rel.html" target="_top" xlink:title=" ">
<polygon fill="white" stroke="black" points="747.5,-152.5 747.5,-171.5 869.5,-171.5 869.5,-152.5 747.5,-152.5"/>
<text text-anchor="middle" x="808.5" y="-159.5" font-family="Helvetica,sans-Serif" font-size="10.00">AstMathOper.IntegerRel</text>
</a>
</g>
</g>
<!-- Node56&#45;&gt;Node58 -->
<g id="edge46" class="edge">
<title>Node56&#45;&gt;Node58</title>
<path fill="none" stroke="midnightblue" d="M670.64,-162C693.62,-162 722.26,-162 747.39,-162"/>
<polygon fill="midnightblue" stroke="midnightblue" points="670.51,-158.5 660.51,-162 670.51,-165.5 670.51,-158.5"/>
</g>
<!-- Node59 -->
<g id="node46" class="node">
<title>Node59</title>
<g id="a_node46"><a xlink:href="classast_1_1_ast_math_oper_1_1_number_rel.html" target="_top" xlink:title=" ">
<polygon fill="white" stroke="black" points="745.5,-114.5 745.5,-133.5 871.5,-133.5 871.5,-114.5 745.5,-114.5"/>
<text text-anchor="middle" x="808.5" y="-121.5" font-family="Helvetica,sans-Serif" font-size="10.00">AstMathOper.NumberRel</text>
</a>
</g>
</g>
<!-- Node56&#45;&gt;Node59 -->
<g id="edge47" class="edge">
<title>Node56&#45;&gt;Node59</title>
<path fill="none" stroke="midnightblue" d="M670.34,-152.96C698.13,-147.09 734.28,-139.46 762.49,-133.5"/>
<polygon fill="midnightblue" stroke="midnightblue" points="669.58,-149.54 660.51,-155.03 671.02,-156.39 669.58,-149.54"/>
</g>
<!-- Node60 -->
<g id="node47" class="node">
<title>Node60</title>
<g id="a_node47"><a xlink:href="classast_1_1_string_rel.html" target="_top" xlink:title=" ">
<polygon fill="white" stroke="red" points="780,-76.5 780,-95.5 837,-95.5 837,-76.5 780,-76.5"/>
<text text-anchor="middle" x="808.5" y="-83.5" font-family="Helvetica,sans-Serif" font-size="10.00">StringRel</text>
</a>
</g>
</g>
<!-- Node56&#45;&gt;Node60 -->
<g id="edge48" class="edge">
<title>Node56&#45;&gt;Node60</title>
<path fill="none" stroke="midnightblue" d="M670.67,-154.87C680.73,-152.1 691.1,-148.27 700,-143 720.02,-131.15 716,-116.88 736,-105 749.36,-97.06 766.07,-92.38 779.97,-89.66"/>
<polygon fill="midnightblue" stroke="midnightblue" points="669.65,-151.52 660.78,-157.31 671.33,-158.32 669.65,-151.52"/>
</g>
<!-- Node71 -->
<g id="node56" class="node">
<title>Node71</title>
<g id="a_node56"><a xlink:href="classast_1_1_sent_list_1_1_list_wrapper.html" target="_top" xlink:title="Javaの基本型データの清書用の包み込みアトム">
<polygon fill="white" stroke="black" points="561,-38.5 561,-57.5 692,-57.5 692,-38.5 561,-38.5"/>
<text text-anchor="middle" x="626.5" y="-45.5" font-family="Helvetica,sans-Serif" font-size="10.00">SentList.ListWrapper&lt; T &gt;</text>
</a>
</g>
</g>
<!-- Node70&#45;&gt;Node71 -->
<g id="edge58" class="edge">
<title>Node70&#45;&gt;Node71</title>
<path fill="none" stroke="midnightblue" d="M479.26,-48C502.44,-48 533.32,-48 560.72,-48"/>
<polygon fill="midnightblue" stroke="midnightblue" points="479.19,-44.5 469.19,-48 479.19,-51.5 479.19,-44.5"/>
</g>
</g>
</svg>
