<?xml version="1.0" encoding="UTF-8" standalone="no"?>
<!DOCTYPE svg PUBLIC "-//W3C//DTD SVG 1.1//EN"
 "http://www.w3.org/Graphics/SVG/1.1/DTD/svg11.dtd">
<!-- Generated by graphviz version 2.47.0 (20210316.0004)
 -->
<!-- Title: self Pages: 1 -->
<svg width="451pt" height="317pt"
 viewBox="0.00 0.00 451.00 317.00" xmlns="http://www.w3.org/2000/svg" xmlns:xlink="http://www.w3.org/1999/xlink">
<g id="graph0" class="graph" transform="scale(1 1) rotate(0) translate(4 313)">
<title>self</title>
<polygon fill="white" stroke="transparent" points="-4,4 -4,-313 447,-313 447,4 -4,4"/>
<!-- Node1 -->
<g id="node1" class="node">
<title>Node1</title>
<g id="a_node1"><a xlink:title=" ">
<polygon fill="#bfbfbf" stroke="black" points="411,-175.5 411,-194.5 443,-194.5 443,-175.5 411,-175.5"/>
<text text-anchor="middle" x="427" y="-182.5" font-family="Helvetica,sans-Serif" font-size="10.00">self</text>
</a>
</g>
</g>
<!-- Node2 -->
<g id="node2" class="node">
<title>Node2</title>
<g id="a_node2"><a xlink:href="classtype_1_1_basic_typing.html#a4e5cb3528205dfd40d187cd82a02ee27" target="_top" xlink:title="コンストラクタ">
<polygon fill="white" stroke="black" points="223.5,-232.5 223.5,-251.5 371.5,-251.5 371.5,-232.5 223.5,-232.5"/>
<text text-anchor="middle" x="297.5" y="-239.5" font-family="Helvetica,sans-Serif" font-size="10.00">type.BasicTyping.BasicTyping</text>
</a>
</g>
</g>
<!-- Node1&#45;&gt;Node2 -->
<g id="edge1" class="edge">
<title>Node1&#45;&gt;Node2</title>
<path fill="none" stroke="midnightblue" d="M407.76,-201.38C398.51,-208.93 386.77,-217.43 375,-223 366.96,-226.8 358.07,-229.9 349.28,-232.41"/>
<polygon fill="midnightblue" stroke="midnightblue" points="410.13,-203.97 415.48,-194.83 405.6,-198.63 410.13,-203.97"/>
</g>
<!-- Node3 -->
<g id="node3" class="node">
<title>Node3</title>
<g id="a_node3"><a xlink:href="classast_1_1_ast_assign.html#ae1ba45bad2d2854e7378d5322c0c2c57" target="_top" xlink:title="コードを生成する．">
<polygon fill="white" stroke="black" points="238.5,-194.5 238.5,-213.5 356.5,-213.5 356.5,-194.5 238.5,-194.5"/>
<text text-anchor="middle" x="297.5" y="-201.5" font-family="Helvetica,sans-Serif" font-size="10.00">ast.AstAssign.gencode</text>
</a>
</g>
</g>
<!-- Node1&#45;&gt;Node3 -->
<g id="edge2" class="edge">
<title>Node1&#45;&gt;Node3</title>
<path fill="none" stroke="midnightblue" d="M400.67,-188.77C388,-190.66 372.12,-193.03 356.67,-195.33"/>
<polygon fill="midnightblue" stroke="midnightblue" points="401.5,-192.19 410.87,-187.25 400.47,-185.27 401.5,-192.19"/>
</g>
<!-- Node4 -->
<g id="node4" class="node">
<title>Node4</title>
<g id="a_node4"><a xlink:href="classast_1_1_ast_oper.html#aade0b6f6dbcac3769520224b8b04130c" target="_top" xlink:title="二つの非演算子である子供のコードを生成す">
<polygon fill="white" stroke="black" points="220,-156.5 220,-175.5 375,-175.5 375,-156.5 220,-156.5"/>
<text text-anchor="middle" x="297.5" y="-163.5" font-family="Helvetica,sans-Serif" font-size="10.00">ast.AstOper.generateChildCode</text>
</a>
</g>
</g>
<!-- Node1&#45;&gt;Node4 -->
<g id="edge3" class="edge">
<title>Node1&#45;&gt;Node4</title>
<path fill="none" stroke="midnightblue" d="M400.71,-181.23C389.64,-179.58 376.09,-177.56 362.53,-175.54"/>
<polygon fill="midnightblue" stroke="midnightblue" points="400.47,-184.73 410.87,-182.75 401.5,-177.81 400.47,-184.73"/>
</g>
<!-- Node13 -->
<g id="node13" class="node">
<title>Node13</title>
<g id="a_node13"><a xlink:href="classast_1_1_ast_data_reader_1_1_reader_type.html#a5bd7371112ac4f681b98d88f23b16f95" target="_top" xlink:title="局所変数を設定する.">
<polygon fill="white" stroke="black" points="230.5,-107 230.5,-137 364.5,-137 364.5,-107 230.5,-107"/>
<text text-anchor="start" x="238.5" y="-125" font-family="Helvetica,sans-Serif" font-size="10.00">ast.AstDataReader.Reader</text>
<text text-anchor="middle" x="297.5" y="-114" font-family="Helvetica,sans-Serif" font-size="10.00">Type.setVar</text>
</a>
</g>
</g>
<!-- Node1&#45;&gt;Node13 -->
<g id="edge12" class="edge">
<title>Node1&#45;&gt;Node13</title>
<path fill="none" stroke="midnightblue" d="M407.58,-168.99C398.29,-161.52 386.56,-152.99 375,-147 367.8,-143.27 359.94,-139.95 352.09,-137.04"/>
<polygon fill="midnightblue" stroke="midnightblue" points="405.42,-171.74 415.35,-175.44 409.89,-166.36 405.42,-171.74"/>
</g>
<!-- Node5 -->
<g id="node5" class="node">
<title>Node5</title>
<g id="a_node5"><a xlink:href="classast_1_1_ast_math_oper_1_1_integer_oper.html#ae1ba45bad2d2854e7378d5322c0c2c57" target="_top" xlink:title="コードを生成する．">
<polygon fill="white" stroke="black" points="0.5,-289.5 0.5,-308.5 183.5,-308.5 183.5,-289.5 0.5,-289.5"/>
<text text-anchor="middle" x="92" y="-296.5" font-family="Helvetica,sans-Serif" font-size="10.00">ast.AstMathOper.IntegerOper.gencode</text>
</a>
</g>
</g>
<!-- Node4&#45;&gt;Node5 -->
<g id="edge4" class="edge">
<title>Node4&#45;&gt;Node5</title>
<path fill="none" stroke="midnightblue" d="M225.54,-180.71C223.6,-182.02 221.75,-183.45 220,-185 186.23,-214.98 218.32,-250.66 184,-280 179.58,-283.77 174.61,-286.86 169.32,-289.39"/>
<polygon fill="midnightblue" stroke="midnightblue" points="227.53,-183.6 234.51,-175.63 224.08,-177.51 227.53,-183.6"/>
</g>
<!-- Node6 -->
<g id="node6" class="node">
<title>Node6</title>
<g id="a_node6"><a xlink:href="classast_1_1_ast_math_oper_1_1_integer_rel.html#ae1ba45bad2d2854e7378d5322c0c2c57" target="_top" xlink:title="コードを生成する．">
<polygon fill="white" stroke="black" points="3,-251.5 3,-270.5 181,-270.5 181,-251.5 3,-251.5"/>
<text text-anchor="middle" x="92" y="-258.5" font-family="Helvetica,sans-Serif" font-size="10.00">ast.AstMathOper.IntegerRel.gencode</text>
</a>
</g>
</g>
<!-- Node4&#45;&gt;Node6 -->
<g id="edge5" class="edge">
<title>Node4&#45;&gt;Node6</title>
<path fill="none" stroke="midnightblue" d="M228.45,-179.79C225.5,-181.35 222.66,-183.08 220,-185 195.71,-202.54 208.62,-224.92 184,-242 178.43,-245.86 172.24,-248.97 165.78,-251.47"/>
<polygon fill="midnightblue" stroke="midnightblue" points="229.95,-182.96 237.61,-175.63 227.05,-176.58 229.95,-182.96"/>
</g>
<!-- Node7 -->
<g id="node7" class="node">
<title>Node7</title>
<g id="a_node7"><a xlink:href="classast_1_1_ast_math_oper_1_1_double_oper.html#ae1ba45bad2d2854e7378d5322c0c2c57" target="_top" xlink:title="コードを生成する．">
<polygon fill="white" stroke="black" points="0,-213.5 0,-232.5 184,-232.5 184,-213.5 0,-213.5"/>
<text text-anchor="middle" x="92" y="-220.5" font-family="Helvetica,sans-Serif" font-size="10.00">ast.AstMathOper.DoubleOper.gencode</text>
</a>
</g>
</g>
<!-- Node4&#45;&gt;Node7 -->
<g id="edge6" class="edge">
<title>Node4&#45;&gt;Node7</title>
<path fill="none" stroke="midnightblue" d="M240.19,-178.32C233.31,-180.31 226.44,-182.54 220,-185 203.1,-191.45 201.02,-197.87 184,-204 173.52,-207.77 162.08,-210.89 150.96,-213.44"/>
<polygon fill="midnightblue" stroke="midnightblue" points="241.51,-181.59 250.23,-175.58 239.66,-174.84 241.51,-181.59"/>
</g>
<!-- Node8 -->
<g id="node8" class="node">
<title>Node8</title>
<g id="a_node8"><a xlink:href="classast_1_1_ast_math_oper_1_1_double_rel.html#ae1ba45bad2d2854e7378d5322c0c2c57" target="_top" xlink:title="コードを生成する．">
<polygon fill="white" stroke="black" points="2.5,-175.5 2.5,-194.5 181.5,-194.5 181.5,-175.5 2.5,-175.5"/>
<text text-anchor="middle" x="92" y="-182.5" font-family="Helvetica,sans-Serif" font-size="10.00">ast.AstMathOper.DoubleRel.gencode</text>
</a>
</g>
</g>
<!-- Node4&#45;&gt;Node8 -->
<g id="edge7" class="edge">
<title>Node4&#45;&gt;Node8</title>
<path fill="none" stroke="midnightblue" d="M209.79,-174.1C200.44,-174.97 190.91,-175.86 181.54,-176.73"/>
<polygon fill="midnightblue" stroke="midnightblue" points="210.22,-177.57 219.86,-173.16 209.57,-170.6 210.22,-177.57"/>
</g>
<!-- Node9 -->
<g id="node9" class="node">
<title>Node9</title>
<g id="a_node9"><a xlink:href="classast_1_1_ast_math_oper_1_1_pre_term.html#ae1ba45bad2d2854e7378d5322c0c2c57" target="_top" xlink:title="コードを生成する．">
<polygon fill="white" stroke="black" points="7,-137.5 7,-156.5 177,-156.5 177,-137.5 7,-137.5"/>
<text text-anchor="middle" x="92" y="-144.5" font-family="Helvetica,sans-Serif" font-size="10.00">ast.AstMathOper.PreTerm.gencode</text>
</a>
</g>
</g>
<!-- Node4&#45;&gt;Node9 -->
<g id="edge8" class="edge">
<title>Node4&#45;&gt;Node9</title>
<path fill="none" stroke="midnightblue" d="M209.6,-157.89C198.82,-156.88 187.81,-155.85 177.07,-154.85"/>
<polygon fill="midnightblue" stroke="midnightblue" points="209.57,-161.4 219.86,-158.84 210.22,-154.43 209.57,-161.4"/>
</g>
<!-- Node10 -->
<g id="node10" class="node">
<title>Node10</title>
<g id="a_node10"><a xlink:href="classast_1_1_string_rel_1_1_string_match_rel.html#ae1ba45bad2d2854e7378d5322c0c2c57" target="_top" xlink:title="コードを生成する．">
<polygon fill="white" stroke="black" points="27.5,-88 27.5,-118 156.5,-118 156.5,-88 27.5,-88"/>
<text text-anchor="start" x="35.5" y="-106" font-family="Helvetica,sans-Serif" font-size="10.00">ast.StringRel.StringMatch</text>
<text text-anchor="middle" x="92" y="-95" font-family="Helvetica,sans-Serif" font-size="10.00">Rel.gencode</text>
</a>
</g>
</g>
<!-- Node4&#45;&gt;Node10 -->
<g id="edge9" class="edge">
<title>Node4&#45;&gt;Node10</title>
<path fill="none" stroke="midnightblue" d="M240.19,-153.68C233.31,-151.69 226.44,-149.46 220,-147 203.1,-140.55 200.82,-134.66 184,-128 174.71,-124.32 164.68,-120.98 154.79,-118.02"/>
<polygon fill="midnightblue" stroke="midnightblue" points="239.66,-157.16 250.23,-156.42 241.51,-150.41 239.66,-157.16"/>
</g>
<!-- Node11 -->
<g id="node11" class="node">
<title>Node11</title>
<g id="a_node11"><a xlink:href="classast_1_1_string_rel_1_1_regex_match_rel.html#ae1ba45bad2d2854e7378d5322c0c2c57" target="_top" xlink:title="コードを生成する．">
<polygon fill="white" stroke="black" points="26,-39 26,-69 158,-69 158,-39 26,-39"/>
<text text-anchor="start" x="34" y="-57" font-family="Helvetica,sans-Serif" font-size="10.00">ast.StringRel.RegexMatch</text>
<text text-anchor="middle" x="92" y="-46" font-family="Helvetica,sans-Serif" font-size="10.00">Rel.gencode</text>
</a>
</g>
</g>
<!-- Node4&#45;&gt;Node11 -->
<g id="edge10" class="edge">
<title>Node4&#45;&gt;Node11</title>
<path fill="none" stroke="midnightblue" d="M227.38,-151.95C224.8,-150.46 222.32,-148.82 220,-147 193.06,-125.93 210.68,-100.4 184,-79 176.46,-72.95 167.56,-68.36 158.33,-64.88"/>
<polygon fill="midnightblue" stroke="midnightblue" points="226.01,-155.18 236.53,-156.45 229.1,-148.9 226.01,-155.18"/>
</g>
<!-- Node12 -->
<g id="node12" class="node">
<title>Node12</title>
<g id="a_node12"><a xlink:href="classast_1_1_ast_func_call.html#a383612fb2c1d291f6f3f9c352a5cb262" target="_top" xlink:title="コードを生成する．">
<polygon fill="white" stroke="black" points="28.5,-0.5 28.5,-19.5 155.5,-19.5 155.5,-0.5 28.5,-0.5"/>
<text text-anchor="middle" x="92" y="-7.5" font-family="Helvetica,sans-Serif" font-size="10.00">ast.AstFuncCall.gencode</text>
</a>
</g>
</g>
<!-- Node4&#45;&gt;Node12 -->
<g id="edge11" class="edge">
<title>Node4&#45;&gt;Node12</title>
<path fill="none" stroke="midnightblue" d="M225.27,-151.34C223.42,-150.01 221.66,-148.57 220,-147 180.48,-109.6 224.02,-66.86 184,-30 176.03,-22.66 166,-17.79 155.53,-14.6"/>
<polygon fill="midnightblue" stroke="midnightblue" points="223.5,-154.36 233.88,-156.47 227.08,-148.34 223.5,-154.36"/>
</g>
</g>
</svg>
