<?xml version="1.0" encoding="UTF-8" standalone="no"?>
<!DOCTYPE svg PUBLIC "-//W3C//DTD SVG 1.1//EN"
 "http://www.w3.org/Graphics/SVG/1.1/DTD/svg11.dtd">
<!-- Generated by graphviz version 2.47.0 (20210316.0004)
 -->
<!-- Title: Assignable Pages: 1 -->
<svg width="172pt" height="84pt"
 viewBox="0.00 0.00 171.50 84.00" xmlns="http://www.w3.org/2000/svg" xmlns:xlink="http://www.w3.org/1999/xlink">
<g id="graph0" class="graph" transform="scale(1 1) rotate(0) translate(4 80)">
<title>Assignable</title>
<polygon fill="white" stroke="transparent" points="-4,4 -4,-80 167.5,-80 167.5,4 -4,4"/>
<!-- Node1 -->
<g id="node1" class="node">
<title>Node1</title>
<g id="a_node1"><a xlink:title="変数（チャネルとコンテナの名前）の抽象化">
<polygon fill="#bfbfbf" stroke="black" points="49,-56.5 49,-75.5 114,-75.5 114,-56.5 49,-56.5"/>
<text text-anchor="middle" x="81.5" y="-63.5" font-family="Helvetica,sans-Serif" font-size="10.00">Assignable</text>
</a>
</g>
</g>
<!-- Node2 -->
<g id="node2" class="node">
<title>Node2</title>
<g id="a_node2"><a xlink:href="classmachine_1_1_o_s_ref.html" target="_top" xlink:title="フレーム中の変数参照オブジェクトref = (XType type, int vid)">
<polygon fill="white" stroke="black" points="0,-0.5 0,-19.5 47,-19.5 47,-0.5 0,-0.5"/>
<text text-anchor="middle" x="23.5" y="-7.5" font-family="Helvetica,sans-Serif" font-size="10.00">OSRef</text>
</a>
</g>
</g>
<!-- Node1&#45;&gt;Node2 -->
<g id="edge1" class="edge">
<title>Node1&#45;&gt;Node2</title>
<path fill="none" stroke="midnightblue" d="M64.59,-49.25C54.3,-39.67 41.53,-27.79 32.99,-19.83"/>
<polygon fill="midnightblue" stroke="midnightblue" points="62.48,-52.07 72.18,-56.32 67.25,-46.95 62.48,-52.07"/>
</g>
<!-- Node3 -->
<g id="node3" class="node">
<title>Node3</title>
<g id="a_node3"><a xlink:href="classmachine_1_1_ref.html" target="_top" xlink:title="フレーム中の変数参照オブジェクトref = (XType type, int vid)">
<polygon fill="white" stroke="black" points="65.5,-0.5 65.5,-19.5 97.5,-19.5 97.5,-0.5 65.5,-0.5"/>
<text text-anchor="middle" x="81.5" y="-7.5" font-family="Helvetica,sans-Serif" font-size="10.00">Ref</text>
</a>
</g>
</g>
<!-- Node1&#45;&gt;Node3 -->
<g id="edge2" class="edge">
<title>Node1&#45;&gt;Node3</title>
<path fill="none" stroke="midnightblue" d="M75.03,-46.1C74.4,-37.14 74.84,-26.86 76.37,-19.75"/>
<polygon fill="midnightblue" stroke="midnightblue" points="71.57,-46.62 76.33,-56.08 78.51,-45.71 71.57,-46.62"/>
</g>
<!-- Node1&#45;&gt;Node3 -->
<g id="edge3" class="edge">
<title>Node1&#45;&gt;Node3</title>
<path fill="none" stroke="midnightblue" d="M87.97,-46.1C88.6,-37.14 88.16,-26.86 86.63,-19.75"/>
<polygon fill="midnightblue" stroke="midnightblue" points="84.49,-45.71 86.67,-56.08 91.43,-46.62 84.49,-45.71"/>
</g>
<!-- Node4 -->
<g id="node4" class="node">
<title>Node4</title>
<g id="a_node4"><a xlink:href="classmachine_1_1_var_key.html" target="_top" xlink:title="フレーム中の変数参照オブジェクトref = (XType type, int vid)">
<polygon fill="white" stroke="black" points="115.5,-0.5 115.5,-19.5 163.5,-19.5 163.5,-0.5 115.5,-0.5"/>
<text text-anchor="middle" x="139.5" y="-7.5" font-family="Helvetica,sans-Serif" font-size="10.00">VarKey</text>
</a>
</g>
</g>
<!-- Node1&#45;&gt;Node4 -->
<g id="edge4" class="edge">
<title>Node1&#45;&gt;Node4</title>
<path fill="none" stroke="midnightblue" d="M98.41,-49.25C108.7,-39.67 121.47,-27.79 130.01,-19.83"/>
<polygon fill="midnightblue" stroke="midnightblue" points="95.75,-46.95 90.82,-56.32 100.52,-52.07 95.75,-46.95"/>
</g>
</g>
</svg>
