<?xml version="1.0" encoding="UTF-8" standalone="no"?>
<!DOCTYPE svg PUBLIC "-//W3C//DTD SVG 1.1//EN"
 "http://www.w3.org/Graphics/SVG/1.1/DTD/svg11.dtd">
<!-- Generated by graphviz version 2.47.1 (20210417.1919)
 -->
<!-- Title: child Pages: 1 -->
<svg width="230pt" height="165pt"
 viewBox="0.00 0.00 230.00 165.00" xmlns="http://www.w3.org/2000/svg" xmlns:xlink="http://www.w3.org/1999/xlink">
<g id="graph0" class="graph" transform="scale(1 1) rotate(0) translate(4 161)">
<title>child</title>
<polygon fill="white" stroke="transparent" points="-4,4 -4,-161 226,-161 226,4 -4,4"/>
<!-- Node1 -->
<g id="node1" class="node">
<title>Node1</title>
<g id="a_node1"><a xlink:title=" ">
<polygon fill="#bfbfbf" stroke="black" points="185,-68.5 185,-87.5 222,-87.5 222,-68.5 185,-68.5"/>
<text text-anchor="middle" x="203.5" y="-75.5" font-family="Helvetica,sans-Serif" font-size="10.00">child</text>
</a>
</g>
</g>
<!-- Node2 -->
<g id="node2" class="node">
<title>Node2</title>
<g id="a_node2"><a xlink:href="classast_1_1_ast_node_tagged.html#a7868eab9522d9035b82fde8289212f50" target="_top" xlink:title="次の子のField名と，Getter，型を設定し，子の添字idxを返す．">
<polygon fill="white" stroke="black" points="0,-137.5 0,-156.5 149,-156.5 149,-137.5 0,-137.5"/>
<text text-anchor="middle" x="74.5" y="-144.5" font-family="Helvetica,sans-Serif" font-size="10.00">ast.AstNodeTagged.addGetter</text>
</a>
</g>
</g>
<!-- Node1&#45;&gt;Node2 -->
<g id="edge1" class="edge">
<title>Node1&#45;&gt;Node2</title>
<path fill="none" stroke="midnightblue" d="M188.13,-95.3C178.2,-106.19 164.1,-119.71 149,-128 141.95,-131.87 134.09,-134.98 126.2,-137.46"/>
<polygon fill="midnightblue" stroke="midnightblue" points="190.9,-97.44 194.86,-87.61 185.64,-92.83 190.9,-97.44"/>
</g>
<!-- Node3 -->
<g id="node3" class="node">
<title>Node3</title>
<g id="a_node3"><a xlink:href="classast_1_1_ast_data_reader_1_1_ast_var_reader.html#a80cf572a464f084f2f6f24ad5873a147" target="_top" xlink:title="指定された変数参照をもつ読み出し変数オブジェクトを生成する．">
<polygon fill="white" stroke="black" points="8.5,-88 8.5,-118 140.5,-118 140.5,-88 8.5,-88"/>
<text text-anchor="start" x="16.5" y="-106" font-family="Helvetica,sans-Serif" font-size="10.00">ast.AstDataReader.AstVar</text>
<text text-anchor="middle" x="74.5" y="-95" font-family="Helvetica,sans-Serif" font-size="10.00">Reader.AstVarReader</text>
</a>
</g>
</g>
<!-- Node1&#45;&gt;Node3 -->
<g id="edge2" class="edge">
<title>Node1&#45;&gt;Node3</title>
<path fill="none" stroke="midnightblue" d="M174.96,-83.42C164.76,-85.43 152.72,-87.8 140.6,-90.18"/>
<polygon fill="midnightblue" stroke="midnightblue" points="175.71,-86.84 184.84,-81.48 174.35,-79.97 175.71,-86.84"/>
</g>
<!-- Node4 -->
<g id="node4" class="node">
<title>Node4</title>
<g id="a_node4"><a xlink:href="classtype_1_1_x_typing_1_1_basic_typing.html#a4e5cb3528205dfd40d187cd82a02ee27" target="_top" xlink:title="コンストラクタ">
<polygon fill="white" stroke="black" points="8,-39 8,-69 141,-69 141,-39 8,-39"/>
<text text-anchor="start" x="16" y="-57" font-family="Helvetica,sans-Serif" font-size="10.00">type.XTyping.BasicTyping.</text>
<text text-anchor="middle" x="74.5" y="-46" font-family="Helvetica,sans-Serif" font-size="10.00">BasicTyping</text>
</a>
</g>
</g>
<!-- Node1&#45;&gt;Node4 -->
<g id="edge3" class="edge">
<title>Node1&#45;&gt;Node4</title>
<path fill="none" stroke="midnightblue" d="M174.76,-72.76C164.77,-70.87 153.02,-68.65 141.17,-66.41"/>
<polygon fill="midnightblue" stroke="midnightblue" points="174.37,-76.25 184.84,-74.66 175.67,-69.37 174.37,-76.25"/>
</g>
<!-- Node5 -->
<g id="node5" class="node">
<title>Node5</title>
<g id="a_node5"><a xlink:href="classcompile_1_1_x_c_typing.html#a583b9bca860315dda8bcfb18f63df01d" target="_top" xlink:title="与えられたノードの出力型が上限itemUpperを持つよう部分式を型付けする.">
<polygon fill="white" stroke="black" points="7.5,-0.5 7.5,-19.5 141.5,-19.5 141.5,-0.5 7.5,-0.5"/>
<text text-anchor="middle" x="74.5" y="-7.5" font-family="Helvetica,sans-Serif" font-size="10.00">compile.XCTyping.recType</text>
</a>
</g>
</g>
<!-- Node1&#45;&gt;Node5 -->
<g id="edge4" class="edge">
<title>Node1&#45;&gt;Node5</title>
<path fill="none" stroke="midnightblue" d="M187.61,-61.1C177.63,-50.75 163.67,-37.99 149,-30 141.1,-25.7 132.21,-22.27 123.42,-19.56"/>
<polygon fill="midnightblue" stroke="midnightblue" points="185.04,-63.48 194.41,-68.44 190.17,-58.72 185.04,-63.48"/>
</g>
</g>
</svg>
