<?xml version="1.0" encoding="UTF-8" standalone="no"?>
<!DOCTYPE svg PUBLIC "-//W3C//DTD SVG 1.1//EN"
 "http://www.w3.org/Graphics/SVG/1.1/DTD/svg11.dtd">
<!-- Generated by graphviz version 2.47.0 (20210316.0004)
 -->
<!-- Title: XFormattable.FieldNavigatable Pages: 1 -->
<svg width="483pt" height="420pt"
 viewBox="0.00 0.00 483.00 420.00" xmlns="http://www.w3.org/2000/svg" xmlns:xlink="http://www.w3.org/1999/xlink">
<g id="graph0" class="graph" transform="scale(1 1) rotate(0) translate(4 416)">
<title>XFormattable.FieldNavigatable</title>
<polygon fill="white" stroke="transparent" points="-4,4 -4,-416 479,-416 479,4 -4,4"/>
<!-- Node1 -->
<g id="node1" class="node">
<title>Node1</title>
<g id="a_node1"><a xlink:title="タグ付きノードに対応する清書対象のクラス。">
<polygon fill="#bfbfbf" stroke="black" points="138,-224.5 138,-243.5 289,-243.5 289,-224.5 138,-224.5"/>
<text text-anchor="middle" x="213.5" y="-231.5" font-family="Helvetica,sans-Serif" font-size="10.00">XFormattable.FieldNavigatable</text>
</a>
</g>
</g>
<!-- Node5 -->
<g id="node5" class="node">
<title>Node5</title>
<g id="a_node5"><a xlink:href="classast_1_1_ast_node_branch_tagged.html" target="_top" xlink:title="子それぞれにタグと型アイテムをもつ順序ノードAstNodeBranchのサブクラス．利用者は自前で，追加する子のField名と型を設定する．読み出しは子の添字のみで行う．">
<polygon fill="white" stroke="black" points="0,-168.5 0,-187.5 117,-187.5 117,-168.5 0,-168.5"/>
<text text-anchor="middle" x="58.5" y="-175.5" font-family="Helvetica,sans-Serif" font-size="10.00">AstNodeBranchTagged</text>
</a>
</g>
</g>
<!-- Node1&#45;&gt;Node5 -->
<g id="edge4" class="edge">
<title>Node1&#45;&gt;Node5</title>
<path fill="none" stroke="midnightblue" d="M179.17,-221.04C150,-210.88 108.86,-196.55 82.95,-187.52"/>
<polygon fill="midnightblue" stroke="midnightblue" points="178.34,-224.46 188.94,-224.44 180.65,-217.85 178.34,-224.46"/>
</g>
<!-- Node6 -->
<g id="node6" class="node">
<title>Node6</title>
<g id="a_node6"><a xlink:href="classast_1_1_ast_node_tagged.html" target="_top" xlink:title="タグ付きの子をもつノードのクラス．利用者は自前で，追加する子のField名と，Getter，型を設定する．読み出しは子の添字でも行える．">
<polygon fill="white" stroke="black" points="135.5,-168.5 135.5,-187.5 221.5,-187.5 221.5,-168.5 135.5,-168.5"/>
<text text-anchor="middle" x="178.5" y="-175.5" font-family="Helvetica,sans-Serif" font-size="10.00">AstNodeTagged</text>
</a>
</g>
</g>
<!-- Node1&#45;&gt;Node6 -->
<g id="edge5" class="edge">
<title>Node1&#45;&gt;Node6</title>
<path fill="none" stroke="midnightblue" d="M202.2,-215.57C196.18,-206.27 189.03,-195.25 184.17,-187.75"/>
<polygon fill="midnightblue" stroke="midnightblue" points="199.34,-217.6 207.72,-224.08 205.22,-213.79 199.34,-217.6"/>
</g>
<!-- Node11 -->
<g id="node11" class="node">
<title>Node11</title>
<g id="a_node11"><a xlink:href="classmachine_1_1_program.html" target="_top" xlink:title="ルールの集合からなるコンパイル済みのプログラム.">
<polygon fill="white" stroke="black" points="223,-112.5 223,-131.5 276,-131.5 276,-112.5 223,-112.5"/>
<text text-anchor="middle" x="249.5" y="-119.5" font-family="Helvetica,sans-Serif" font-size="10.00">Program</text>
</a>
</g>
</g>
<!-- Node1&#45;&gt;Node11 -->
<g id="edge16" class="edge">
<title>Node1&#45;&gt;Node11</title>
<path fill="none" stroke="midnightblue" d="M220.72,-214.86C223.87,-206.7 227.52,-196.92 230.5,-188 237.14,-168.15 243.73,-144.48 247.13,-131.9"/>
<polygon fill="midnightblue" stroke="midnightblue" points="217.35,-213.86 216.96,-224.44 223.87,-216.41 217.35,-213.86"/>
</g>
<!-- Node12 -->
<g id="node12" class="node">
<title>Node12</title>
<g id="a_node12"><a xlink:href="classast_1_1_ast_node_tagged_settable.html" target="_top" xlink:title="タグ付きの子をもつノードのクラス．利用者は自前で，追加する子のField名と，Getter，Setter，型を設定する．読み出しは子の添字でも行える．">
<polygon fill="white" stroke="black" points="277.5,-168.5 277.5,-187.5 399.5,-187.5 399.5,-168.5 277.5,-168.5"/>
<text text-anchor="middle" x="338.5" y="-175.5" font-family="Helvetica,sans-Serif" font-size="10.00">AstNodeTaggedSettable</text>
</a>
</g>
</g>
<!-- Node1&#45;&gt;Node12 -->
<g id="edge11" class="edge">
<title>Node1&#45;&gt;Node12</title>
<path fill="none" stroke="midnightblue" d="M242.74,-220.37C266.15,-210.26 298.34,-196.35 318.79,-187.52"/>
<polygon fill="midnightblue" stroke="midnightblue" points="241.1,-217.26 233.31,-224.44 243.87,-223.69 241.1,-217.26"/>
</g>
<!-- Node2 -->
<g id="node2" class="node">
<title>Node2</title>
<g id="a_node2"><a xlink:href="interfaceformat_1_1_x_formattable_1_1_navigatable.html" target="_top" xlink:title="木構造の分岐ノードとして清書可能なオブジェクトのクラス">
<polygon fill="white" stroke="black" points="148.5,-280.5 148.5,-299.5 278.5,-299.5 278.5,-280.5 148.5,-280.5"/>
<text text-anchor="middle" x="213.5" y="-287.5" font-family="Helvetica,sans-Serif" font-size="10.00">XFormattable.Navigatable</text>
</a>
</g>
</g>
<!-- Node2&#45;&gt;Node1 -->
<g id="edge1" class="edge">
<title>Node2&#45;&gt;Node1</title>
<path fill="none" stroke="midnightblue" d="M213.5,-269.8C213.5,-260.91 213.5,-250.78 213.5,-243.75"/>
<polygon fill="midnightblue" stroke="midnightblue" points="210,-270.08 213.5,-280.08 217,-270.08 210,-270.08"/>
</g>
<!-- Node3 -->
<g id="node3" class="node">
<title>Node3</title>
<g id="a_node3"><a xlink:href="interfaceformat_1_1_x_formattable_1_1_label_formattable.html" target="_top" xlink:title="カスタム清書出力器をもつオブジェクトのクラス．">
<polygon fill="white" stroke="black" points="137,-336.5 137,-355.5 290,-355.5 290,-336.5 137,-336.5"/>
<text text-anchor="middle" x="213.5" y="-343.5" font-family="Helvetica,sans-Serif" font-size="10.00">XFormattable.LabelFormattable</text>
</a>
</g>
</g>
<!-- Node3&#45;&gt;Node2 -->
<g id="edge2" class="edge">
<title>Node3&#45;&gt;Node2</title>
<path fill="none" stroke="midnightblue" d="M213.5,-325.8C213.5,-316.91 213.5,-306.78 213.5,-299.75"/>
<polygon fill="midnightblue" stroke="midnightblue" points="210,-326.08 213.5,-336.08 217,-326.08 210,-326.08"/>
</g>
<!-- Node4 -->
<g id="node4" class="node">
<title>Node4</title>
<g id="a_node4"><a xlink:href="interfaceformat_1_1_x_formattable.html" target="_top" xlink:title="入れ子フォーマット出力可能なオブジェクトのインタフェース。">
<polygon fill="white" stroke="black" points="176,-392.5 176,-411.5 251,-411.5 251,-392.5 176,-392.5"/>
<text text-anchor="middle" x="213.5" y="-399.5" font-family="Helvetica,sans-Serif" font-size="10.00">XFormattable</text>
</a>
</g>
</g>
<!-- Node4&#45;&gt;Node3 -->
<g id="edge3" class="edge">
<title>Node4&#45;&gt;Node3</title>
<path fill="none" stroke="midnightblue" d="M213.5,-381.8C213.5,-372.91 213.5,-362.78 213.5,-355.75"/>
<polygon fill="midnightblue" stroke="midnightblue" points="210,-382.08 213.5,-392.08 217,-382.08 210,-382.08"/>
</g>
<!-- Node7 -->
<g id="node7" class="node">
<title>Node7</title>
<g id="a_node7"><a xlink:href="classast_1_1_block_base.html" target="_top" xlink:title="抽象構文木のステップ式のクラス.">
<polygon fill="white" stroke="black" points="140.5,-112.5 140.5,-131.5 204.5,-131.5 204.5,-112.5 140.5,-112.5"/>
<text text-anchor="middle" x="172.5" y="-119.5" font-family="Helvetica,sans-Serif" font-size="10.00">BlockBase</text>
</a>
</g>
</g>
<!-- Node6&#45;&gt;Node7 -->
<g id="edge6" class="edge">
<title>Node6&#45;&gt;Node7</title>
<path fill="none" stroke="midnightblue" d="M176.4,-158.1C175.4,-149.14 174.26,-138.86 173.47,-131.75"/>
<polygon fill="midnightblue" stroke="midnightblue" points="172.93,-158.53 177.51,-168.08 179.88,-157.76 172.93,-158.53"/>
</g>
<!-- Node6&#45;&gt;Node11 -->
<g id="edge10" class="edge">
<title>Node6&#45;&gt;Node11</title>
<path fill="none" stroke="midnightblue" d="M198.09,-162.1C210.87,-152.38 227.11,-140.03 237.89,-131.83"/>
<polygon fill="midnightblue" stroke="midnightblue" points="195.75,-159.48 189.91,-168.32 199.99,-165.06 195.75,-159.48"/>
</g>
<!-- Node8 -->
<g id="node8" class="node">
<title>Node8</title>
<g id="a_node8"><a xlink:href="classast_1_1_block.html" target="_top" xlink:title="抽象構文木のステップ式のクラス.">
<polygon fill="white" stroke="black" points="149,-56.5 149,-75.5 190,-75.5 190,-56.5 149,-56.5"/>
<text text-anchor="middle" x="169.5" y="-63.5" font-family="Helvetica,sans-Serif" font-size="10.00">Block</text>
</a>
</g>
</g>
<!-- Node7&#45;&gt;Node8 -->
<g id="edge7" class="edge">
<title>Node7&#45;&gt;Node8</title>
<path fill="none" stroke="midnightblue" d="M171.43,-101.8C170.94,-92.91 170.38,-82.78 169.99,-75.75"/>
<polygon fill="midnightblue" stroke="midnightblue" points="167.96,-102.29 172,-112.08 174.94,-101.9 167.96,-102.29"/>
</g>
<!-- Node9 -->
<g id="node9" class="node">
<title>Node9</title>
<g id="a_node9"><a xlink:href="classast_1_1_step.html" target="_top" xlink:title="抽象構文木のステップ式のクラス.">
<polygon fill="white" stroke="black" points="208,-56.5 208,-75.5 245,-75.5 245,-56.5 208,-56.5"/>
<text text-anchor="middle" x="226.5" y="-63.5" font-family="Helvetica,sans-Serif" font-size="10.00">Step</text>
</a>
</g>
</g>
<!-- Node7&#45;&gt;Node9 -->
<g id="edge8" class="edge">
<title>Node7&#45;&gt;Node9</title>
<path fill="none" stroke="midnightblue" d="M188.5,-105C198.07,-95.43 209.86,-83.64 217.75,-75.75"/>
<polygon fill="midnightblue" stroke="midnightblue" points="186.01,-102.54 181.42,-112.08 190.96,-107.49 186.01,-102.54"/>
</g>
<!-- Node10 -->
<g id="node10" class="node">
<title>Node10</title>
<g id="a_node10"><a xlink:href="classast_1_1_step_rule.html" target="_top" xlink:title="XMで実行可能（Steppaoble）な計算単位であるルールを表すオブジェクト.">
<polygon fill="white" stroke="black" points="198,-0.5 198,-19.5 255,-19.5 255,-0.5 198,-0.5"/>
<text text-anchor="middle" x="226.5" y="-7.5" font-family="Helvetica,sans-Serif" font-size="10.00">StepRule</text>
</a>
</g>
</g>
<!-- Node9&#45;&gt;Node10 -->
<g id="edge9" class="edge">
<title>Node9&#45;&gt;Node10</title>
<path fill="none" stroke="midnightblue" d="M226.5,-45.8C226.5,-36.91 226.5,-26.78 226.5,-19.75"/>
<polygon fill="midnightblue" stroke="midnightblue" points="223,-46.08 226.5,-56.08 230,-46.08 223,-46.08"/>
</g>
<!-- Node13 -->
<g id="node13" class="node">
<title>Node13</title>
<g id="a_node13"><a xlink:href="classast_1_1_ast_oper_tagged.html" target="_top" xlink:title=" ">
<polygon fill="white" stroke="black" points="295.5,-112.5 295.5,-131.5 379.5,-131.5 379.5,-112.5 295.5,-112.5"/>
<text text-anchor="middle" x="337.5" y="-119.5" font-family="Helvetica,sans-Serif" font-size="10.00">AstOperTagged</text>
</a>
</g>
</g>
<!-- Node12&#45;&gt;Node13 -->
<g id="edge12" class="edge">
<title>Node12&#45;&gt;Node13</title>
<path fill="none" stroke="midnightblue" d="M338.14,-157.8C337.98,-148.91 337.79,-138.78 337.66,-131.75"/>
<polygon fill="midnightblue" stroke="midnightblue" points="334.65,-158.15 338.33,-168.08 341.65,-158.02 334.65,-158.15"/>
</g>
<!-- Node16 -->
<g id="node16" class="node">
<title>Node16</title>
<g id="a_node16"><a xlink:href="classast_1_1_ast_scan_from.html" target="_top" xlink:title=" ">
<polygon fill="white" stroke="black" points="398,-112.5 398,-131.5 475,-131.5 475,-112.5 398,-112.5"/>
<text text-anchor="middle" x="436.5" y="-119.5" font-family="Helvetica,sans-Serif" font-size="10.00">AstScanFrom</text>
</a>
</g>
</g>
<!-- Node12&#45;&gt;Node16 -->
<g id="edge15" class="edge">
<title>Node12&#45;&gt;Node16</title>
<path fill="none" stroke="midnightblue" d="M363.09,-163.45C381.18,-153.48 405.23,-140.23 420.79,-131.65"/>
<polygon fill="midnightblue" stroke="midnightblue" points="361.31,-160.43 354.25,-168.32 364.69,-166.56 361.31,-160.43"/>
</g>
<!-- Node14 -->
<g id="node14" class="node">
<title>Node14</title>
<g id="a_node14"><a xlink:href="classast_1_1_ast_if.html" target="_top" xlink:title="抽象構文木のステップ式のクラス.">
<polygon fill="white" stroke="black" points="291.5,-56.5 291.5,-75.5 329.5,-75.5 329.5,-56.5 291.5,-56.5"/>
<text text-anchor="middle" x="310.5" y="-63.5" font-family="Helvetica,sans-Serif" font-size="10.00">AstIf</text>
</a>
</g>
</g>
<!-- Node13&#45;&gt;Node14 -->
<g id="edge13" class="edge">
<title>Node13&#45;&gt;Node14</title>
<path fill="none" stroke="midnightblue" d="M328.49,-102.98C323.91,-93.82 318.55,-83.09 314.88,-75.75"/>
<polygon fill="midnightblue" stroke="midnightblue" points="325.44,-104.7 333.04,-112.08 331.7,-101.57 325.44,-104.7"/>
</g>
<!-- Node15 -->
<g id="node15" class="node">
<title>Node15</title>
<g id="a_node15"><a xlink:href="classast_1_1_ast_let.html" target="_top" xlink:title="値の読み出しオブジェクト．">
<polygon fill="white" stroke="black" points="348,-56.5 348,-75.5 393,-75.5 393,-56.5 348,-56.5"/>
<text text-anchor="middle" x="370.5" y="-63.5" font-family="Helvetica,sans-Serif" font-size="10.00">AstLet</text>
</a>
</g>
</g>
<!-- Node13&#45;&gt;Node15 -->
<g id="edge14" class="edge">
<title>Node13&#45;&gt;Node15</title>
<path fill="none" stroke="midnightblue" d="M348.33,-103.27C353.97,-94.05 360.62,-83.17 365.15,-75.75"/>
<polygon fill="midnightblue" stroke="midnightblue" points="345.18,-101.73 342.95,-112.08 351.15,-105.38 345.18,-101.73"/>
</g>
</g>
</svg>
