<?xml version="1.0" encoding="UTF-8" standalone="no"?>
<!DOCTYPE svg PUBLIC "-//W3C//DTD SVG 1.1//EN"
 "http://www.w3.org/Graphics/SVG/1.1/DTD/svg11.dtd">
<!-- Generated by graphviz version 2.47.0 (20210316.0004)
 -->
<!-- Title: self Pages: 1 -->
<svg width="463pt" height="317pt"
 viewBox="0.00 0.00 463.00 317.00" xmlns="http://www.w3.org/2000/svg" xmlns:xlink="http://www.w3.org/1999/xlink">
<g id="graph0" class="graph" transform="scale(1 1) rotate(0) translate(4 313)">
<title>self</title>
<polygon fill="white" stroke="transparent" points="-4,4 -4,-313 459,-313 459,4 -4,4"/>
<!-- Node1 -->
<g id="node1" class="node">
<title>Node1</title>
<g id="a_node1"><a xlink:title=" ">
<polygon fill="#bfbfbf" stroke="black" points="423,-175.5 423,-194.5 455,-194.5 455,-175.5 423,-175.5"/>
<text text-anchor="middle" x="439" y="-182.5" font-family="Helvetica,sans-Serif" font-size="10.00">self</text>
</a>
</g>
</g>
<!-- Node2 -->
<g id="node2" class="node">
<title>Node2</title>
<g id="a_node2"><a xlink:href="classtype_1_1_basic_typing.html#a4e5cb3528205dfd40d187cd82a02ee27" target="_top" xlink:title="コンストラクタ">
<polygon fill="white" stroke="black" points="229.5,-232.5 229.5,-251.5 377.5,-251.5 377.5,-232.5 229.5,-232.5"/>
<text text-anchor="middle" x="303.5" y="-239.5" font-family="Helvetica,sans-Serif" font-size="10.00">type.BasicTyping.BasicTyping</text>
</a>
</g>
</g>
<!-- Node1&#45;&gt;Node2 -->
<g id="edge1" class="edge">
<title>Node1&#45;&gt;Node2</title>
<path fill="none" stroke="midnightblue" d="M420.16,-201.18C410.87,-208.82 398.97,-217.46 387,-223 378.73,-226.83 369.63,-229.91 360.58,-232.4"/>
<polygon fill="midnightblue" stroke="midnightblue" points="422.57,-203.72 427.89,-194.55 418.02,-198.4 422.57,-203.72"/>
</g>
<!-- Node3 -->
<g id="node3" class="node">
<title>Node3</title>
<g id="a_node3"><a xlink:href="classast_1_1_ast_assign.html#ae1ba45bad2d2854e7378d5322c0c2c57" target="_top" xlink:title="コードを生成する．">
<polygon fill="white" stroke="black" points="244.5,-194.5 244.5,-213.5 362.5,-213.5 362.5,-194.5 244.5,-194.5"/>
<text text-anchor="middle" x="303.5" y="-201.5" font-family="Helvetica,sans-Serif" font-size="10.00">ast.AstAssign.gencode</text>
</a>
</g>
</g>
<!-- Node1&#45;&gt;Node3 -->
<g id="edge2" class="edge">
<title>Node1&#45;&gt;Node3</title>
<path fill="none" stroke="midnightblue" d="M412.98,-188.56C398.77,-190.58 380.34,-193.21 362.72,-195.71"/>
<polygon fill="midnightblue" stroke="midnightblue" points="413.54,-192.02 422.95,-187.14 412.55,-185.09 413.54,-192.02"/>
</g>
<!-- Node4 -->
<g id="node4" class="node">
<title>Node4</title>
<g id="a_node4"><a xlink:href="classast_1_1_ast_oper.html#aade0b6f6dbcac3769520224b8b04130c" target="_top" xlink:title="二つの非演算子である子供のコードを生成す">
<polygon fill="white" stroke="black" points="226,-156.5 226,-175.5 381,-175.5 381,-156.5 226,-156.5"/>
<text text-anchor="middle" x="303.5" y="-163.5" font-family="Helvetica,sans-Serif" font-size="10.00">ast.AstOper.generateChildCode</text>
</a>
</g>
</g>
<!-- Node1&#45;&gt;Node4 -->
<g id="edge3" class="edge">
<title>Node1&#45;&gt;Node4</title>
<path fill="none" stroke="midnightblue" d="M412.94,-181.43C401.04,-179.74 386.21,-177.63 371.36,-175.52"/>
<polygon fill="midnightblue" stroke="midnightblue" points="412.55,-184.91 422.95,-182.86 413.54,-177.98 412.55,-184.91"/>
</g>
<!-- Node13 -->
<g id="node13" class="node">
<title>Node13</title>
<g id="a_node13"><a xlink:href="classast_1_1_ast_data_reader_1_1_get_ref.html#acd2fd83a0adb6f44674827d7f05ddf7d" target="_top" xlink:title="局所変数を設定する.">
<polygon fill="white" stroke="black" points="220,-118.5 220,-137.5 387,-137.5 387,-118.5 220,-118.5"/>
<text text-anchor="middle" x="303.5" y="-125.5" font-family="Helvetica,sans-Serif" font-size="10.00">ast.AstDataReader.GetRef.setRef</text>
</a>
</g>
</g>
<!-- Node1&#45;&gt;Node13 -->
<g id="edge12" class="edge">
<title>Node1&#45;&gt;Node13</title>
<path fill="none" stroke="midnightblue" d="M420.16,-168.82C410.87,-161.18 398.97,-152.54 387,-147 378.73,-143.17 369.63,-140.09 360.58,-137.6"/>
<polygon fill="midnightblue" stroke="midnightblue" points="418.02,-171.6 427.89,-175.45 422.57,-166.28 418.02,-171.6"/>
</g>
<!-- Node5 -->
<g id="node5" class="node">
<title>Node5</title>
<g id="a_node5"><a xlink:href="classast_1_1_ast_math_oper_1_1_integer_oper.html#ae1ba45bad2d2854e7378d5322c0c2c57" target="_top" xlink:title="コードを生成する．">
<polygon fill="white" stroke="black" points="0.5,-289.5 0.5,-308.5 183.5,-308.5 183.5,-289.5 0.5,-289.5"/>
<text text-anchor="middle" x="92" y="-296.5" font-family="Helvetica,sans-Serif" font-size="10.00">ast.AstMathOper.IntegerOper.gencode</text>
</a>
</g>
</g>
<!-- Node4&#45;&gt;Node5 -->
<g id="edge4" class="edge">
<title>Node4&#45;&gt;Node5</title>
<path fill="none" stroke="midnightblue" d="M225.54,-180.75C223.61,-182.05 221.75,-183.47 220,-185 185.98,-214.69 218.32,-250.66 184,-280 179.58,-283.77 174.61,-286.86 169.32,-289.39"/>
<polygon fill="midnightblue" stroke="midnightblue" points="227.5,-183.66 234.47,-175.69 224.05,-177.57 227.5,-183.66"/>
</g>
<!-- Node6 -->
<g id="node6" class="node">
<title>Node6</title>
<g id="a_node6"><a xlink:href="classast_1_1_ast_math_oper_1_1_integer_rel.html#ae1ba45bad2d2854e7378d5322c0c2c57" target="_top" xlink:title="コードを生成する．">
<polygon fill="white" stroke="black" points="3,-251.5 3,-270.5 181,-270.5 181,-251.5 3,-251.5"/>
<text text-anchor="middle" x="92" y="-258.5" font-family="Helvetica,sans-Serif" font-size="10.00">ast.AstMathOper.IntegerRel.gencode</text>
</a>
</g>
</g>
<!-- Node4&#45;&gt;Node6 -->
<g id="edge5" class="edge">
<title>Node4&#45;&gt;Node6</title>
<path fill="none" stroke="midnightblue" d="M228.53,-179.81C225.56,-181.36 222.7,-183.09 220,-185 195.56,-202.33 208.62,-224.92 184,-242 178.43,-245.86 172.24,-248.97 165.78,-251.47"/>
<polygon fill="midnightblue" stroke="midnightblue" points="230.07,-182.95 237.75,-175.65 227.19,-176.58 230.07,-182.95"/>
</g>
<!-- Node7 -->
<g id="node7" class="node">
<title>Node7</title>
<g id="a_node7"><a xlink:href="classast_1_1_ast_math_oper_1_1_double_oper.html#ae1ba45bad2d2854e7378d5322c0c2c57" target="_top" xlink:title="コードを生成する．">
<polygon fill="white" stroke="black" points="0,-213.5 0,-232.5 184,-232.5 184,-213.5 0,-213.5"/>
<text text-anchor="middle" x="92" y="-220.5" font-family="Helvetica,sans-Serif" font-size="10.00">ast.AstMathOper.DoubleOper.gencode</text>
</a>
</g>
</g>
<!-- Node4&#45;&gt;Node7 -->
<g id="edge6" class="edge">
<title>Node4&#45;&gt;Node7</title>
<path fill="none" stroke="midnightblue" d="M241.93,-178.04C234.46,-180.08 226.99,-182.4 220,-185 203.04,-191.31 201.02,-197.87 184,-204 173.52,-207.77 162.08,-210.89 150.96,-213.44"/>
<polygon fill="midnightblue" stroke="midnightblue" points="242.91,-181.4 251.72,-175.51 241.16,-174.63 242.91,-181.4"/>
</g>
<!-- Node8 -->
<g id="node8" class="node">
<title>Node8</title>
<g id="a_node8"><a xlink:href="classast_1_1_ast_math_oper_1_1_double_rel.html#ae1ba45bad2d2854e7378d5322c0c2c57" target="_top" xlink:title="コードを生成する．">
<polygon fill="white" stroke="black" points="2.5,-175.5 2.5,-194.5 181.5,-194.5 181.5,-175.5 2.5,-175.5"/>
<text text-anchor="middle" x="92" y="-182.5" font-family="Helvetica,sans-Serif" font-size="10.00">ast.AstMathOper.DoubleRel.gencode</text>
</a>
</g>
</g>
<!-- Node4&#45;&gt;Node8 -->
<g id="edge7" class="edge">
<title>Node4&#45;&gt;Node8</title>
<path fill="none" stroke="midnightblue" d="M215.76,-173.87C204.52,-174.89 193.01,-175.93 181.74,-176.95"/>
<polygon fill="midnightblue" stroke="midnightblue" points="216.33,-177.33 225.98,-172.94 215.7,-170.36 216.33,-177.33"/>
</g>
<!-- Node9 -->
<g id="node9" class="node">
<title>Node9</title>
<g id="a_node9"><a xlink:href="classast_1_1_ast_math_oper_1_1_pre_term.html#ae1ba45bad2d2854e7378d5322c0c2c57" target="_top" xlink:title="コードを生成する．">
<polygon fill="white" stroke="black" points="7,-137.5 7,-156.5 177,-156.5 177,-137.5 7,-137.5"/>
<text text-anchor="middle" x="92" y="-144.5" font-family="Helvetica,sans-Serif" font-size="10.00">ast.AstMathOper.PreTerm.gencode</text>
</a>
</g>
</g>
<!-- Node4&#45;&gt;Node9 -->
<g id="edge8" class="edge">
<title>Node4&#45;&gt;Node9</title>
<path fill="none" stroke="midnightblue" d="M215.81,-158.14C203.01,-156.98 189.84,-155.78 177.09,-154.63"/>
<polygon fill="midnightblue" stroke="midnightblue" points="215.7,-161.64 225.98,-159.06 216.33,-154.67 215.7,-161.64"/>
</g>
<!-- Node10 -->
<g id="node10" class="node">
<title>Node10</title>
<g id="a_node10"><a xlink:href="classast_1_1_string_rel_1_1_string_match_rel.html#ae1ba45bad2d2854e7378d5322c0c2c57" target="_top" xlink:title="コードを生成する．">
<polygon fill="white" stroke="black" points="27.5,-88 27.5,-118 156.5,-118 156.5,-88 27.5,-88"/>
<text text-anchor="start" x="35.5" y="-106" font-family="Helvetica,sans-Serif" font-size="10.00">ast.StringRel.StringMatch</text>
<text text-anchor="middle" x="92" y="-95" font-family="Helvetica,sans-Serif" font-size="10.00">Rel.gencode</text>
</a>
</g>
</g>
<!-- Node4&#45;&gt;Node10 -->
<g id="edge9" class="edge">
<title>Node4&#45;&gt;Node10</title>
<path fill="none" stroke="midnightblue" d="M241.93,-153.96C234.46,-151.92 226.99,-149.6 220,-147 203.04,-140.69 200.82,-134.66 184,-128 174.71,-124.32 164.68,-120.98 154.79,-118.02"/>
<polygon fill="midnightblue" stroke="midnightblue" points="241.16,-157.37 251.72,-156.49 242.91,-150.6 241.16,-157.37"/>
</g>
<!-- Node11 -->
<g id="node11" class="node">
<title>Node11</title>
<g id="a_node11"><a xlink:href="classast_1_1_string_rel_1_1_regex_match_rel.html#ae1ba45bad2d2854e7378d5322c0c2c57" target="_top" xlink:title="コードを生成する．">
<polygon fill="white" stroke="black" points="26,-39 26,-69 158,-69 158,-39 26,-39"/>
<text text-anchor="start" x="34" y="-57" font-family="Helvetica,sans-Serif" font-size="10.00">ast.StringRel.RegexMatch</text>
<text text-anchor="middle" x="92" y="-46" font-family="Helvetica,sans-Serif" font-size="10.00">Rel.gencode</text>
</a>
</g>
</g>
<!-- Node4&#45;&gt;Node11 -->
<g id="edge10" class="edge">
<title>Node4&#45;&gt;Node11</title>
<path fill="none" stroke="midnightblue" d="M227.44,-151.93C224.84,-150.44 222.35,-148.8 220,-147 192.88,-126.17 210.68,-100.4 184,-79 176.46,-72.95 167.56,-68.36 158.33,-64.88"/>
<polygon fill="midnightblue" stroke="midnightblue" points="226.09,-155.17 236.61,-156.43 229.17,-148.88 226.09,-155.17"/>
</g>
<!-- Node12 -->
<g id="node12" class="node">
<title>Node12</title>
<g id="a_node12"><a xlink:href="classast_1_1_ast_func_call.html#a383612fb2c1d291f6f3f9c352a5cb262" target="_top" xlink:title="コードを生成する．">
<polygon fill="white" stroke="black" points="28.5,-0.5 28.5,-19.5 155.5,-19.5 155.5,-0.5 28.5,-0.5"/>
<text text-anchor="middle" x="92" y="-7.5" font-family="Helvetica,sans-Serif" font-size="10.00">ast.AstFuncCall.gencode</text>
</a>
</g>
</g>
<!-- Node4&#45;&gt;Node12 -->
<g id="edge11" class="edge">
<title>Node4&#45;&gt;Node12</title>
<path fill="none" stroke="midnightblue" d="M224.84,-150.99C223.15,-149.75 221.53,-148.43 220,-147 180.17,-109.94 224.02,-66.86 184,-30 176.03,-22.66 166,-17.79 155.53,-14.6"/>
<polygon fill="midnightblue" stroke="midnightblue" points="223.44,-154.23 233.81,-156.41 227.06,-148.24 223.44,-154.23"/>
</g>
</g>
</svg>
